<svg id="Layer_2" data-name="Layer 2" xmlns="http://www.w3.org/2000/svg" width="290.789" height="38.902" viewBox="0 0 290.789 38.902">
  <g id="Group_77" data-name="Group 77">
    <g id="Group_76" data-name="Group 76" transform="translate(55.289 3.832)">
      <path id="Path_215" data-name="Path 215" d="M72.557,16.7,63.93,14.857a2.843,2.843,0,0,1-2.3-2.616c0-1.751,2.645-3.705,6.185-3.705,3.258,0,5.913,1.614,5.913,3.6h4.4c0-4.483-4.532-7.994-10.319-7.994S57.22,7.777,57.22,12.251a7.243,7.243,0,0,0,5.757,6.915L71.6,21a2.843,2.843,0,0,1,2.3,2.616c0,1.624-2.762,3.433-6.467,3.433s-6.185-1.9-6.185-3.6h-4.4c0,4.483,4.649,7.994,10.591,7.994S78.3,28.006,78.3,23.61A7.243,7.243,0,0,0,72.547,16.7Z" transform="translate(-56.85 -3.945)" fill="#fff"/>
      <path id="Path_216" data-name="Path 216" d="M97.3,4.11a12.6,12.6,0,0,0-10.27,5.427V4.985h-4.4V39.014h4.4v-13.1A12.611,12.611,0,0,0,97.3,31.341c7.1,0,12.857-6.1,12.857-13.616S104.4,4.11,97.3,4.11Zm-.807,23.214a9.411,9.411,0,0,1-9.249-9.57,9.254,9.254,0,1,1,18.5,0A9.411,9.411,0,0,1,96.489,27.324Z" transform="translate(-57.558 -3.945)" fill="#fff"/>
      <path id="Path_217" data-name="Path 217" d="M158.46,8.346a9.384,9.384,0,0,1,7.382,3.569l3.453-2.733a13.813,13.813,0,1,0-.019,17.156L165.832,23.6A9.414,9.414,0,1,1,158.46,8.326Z" transform="translate(-59.261 -3.94)" fill="#fff"/>
      <path id="Path_218" data-name="Path 218" d="M185.17,3.95a13.81,13.81,0,1,0,10.7,22.543l-3.4-2.781a9.414,9.414,0,0,1-16.446-3.744H198.98v-2.2A13.826,13.826,0,0,0,185.17,3.96Zm-9.152,11.612a9.414,9.414,0,0,1,18.3,0Z" transform="translate(-59.995 -3.94)" fill="#fff"/>
      <path id="Path_219" data-name="Path 219" d="M298.22,17.76a13.81,13.81,0,1,0-3.112,8.733l-3.4-2.781a9.414,9.414,0,0,1-16.446-3.744H298.22v-2.2Zm-22.962-2.2a9.414,9.414,0,0,1,18.3,0Z" transform="translate(-62.72 -3.94)" fill="#fff"/>
      <path id="Path_220" data-name="Path 220" d="M226.942,4.1a13.732,13.732,0,1,0,13.732,13.732A13.749,13.749,0,0,0,226.942,4.1Zm0,23.069a9.336,9.336,0,1,1,9.336-9.336A9.351,9.351,0,0,1,226.942,27.169Z" transform="translate(-61.144 -3.944)" fill="#fff"/>
      <path id="Path_221" data-name="Path 221" d="M256.916,4.24h0a10.173,10.173,0,0,0-7.44,3.219V4.96h-4.4V30.528h4.4V13.168a6.778,6.778,0,0,1,6.448-4.7h0a6.778,6.778,0,0,1,6.779,6.779V30.508h4.425V14.452A10.21,10.21,0,0,0,256.916,4.24Z" transform="translate(-62.019 -3.948)" fill="#fff"/>
      <path id="Path_222" data-name="Path 222" d="M135.955,9.128a12.569,12.569,0,0,0-9.969-5.018c-7.1,0-12.857,6.1-12.857,13.616s5.757,13.616,12.857,13.616a12.555,12.555,0,0,0,9.969-5.018v4.211h4.4V4.956h-4.4Zm-9.161,18.2a9.411,9.411,0,0,1-9.249-9.57,9.232,9.232,0,0,1,18.41-1.274v2.548a9.364,9.364,0,0,1-9.161,8.3Z" transform="translate(-58.396 -3.945)" fill="#fff"/>
    </g>
    <path id="Path_223" data-name="Path 223" d="M26.56,13.67l-11.962,12H0l11.962-12Z" transform="translate(0 -0.375)" fill="#fff"/>
    <path id="Path_224" data-name="Path 224" d="M43.4,13.67l-11.962,12H16.84l11.962-12Z" transform="translate(-0.462 -0.375)" fill="#fff"/>
    <path id="Path_225" data-name="Path 225" d="M40.19,0,28.228,12H13.63L25.592,0Z" transform="translate(-0.374)" fill="#fff"/>
    <path id="Path_226" data-name="Path 226" d="M29.77,27.35l-11.962,12H3.21l11.962-12Z" transform="translate(-0.088 -0.751)" fill="#fff"/>
  </g>
</svg>
