<svg xmlns="http://www.w3.org/2000/svg" width="146.735" height="73.8" viewBox="0 0 146.735 73.8">
  <g id="Group_29" data-name="Group 29" transform="translate(1.96 -15.051)">
    <path id="Path_3232" data-name="Path 3232" d="M12.936-13.622v-10H17v-6.713H12.936V-41.16H6.321v10.829H1.96v6.713H6.321v12.3C4.263-10.584,2.352-10,.784-9.555L3.234-2.3C7.84-4.116,13.475-6.419,18.62-8.624L17.2-15.141ZM37.583-9.7v1.323H26.8V-9.7ZM26.8-2.107V-3.43h10.78v1.323ZM20.237,4.655H26.8V3.43h10.78V4.655h6.86V-15.239H20.237Zm19.4-32.83H35.28v-1.568h4.361Zm0,6.37H35.28v-1.617h4.361Zm-15.19-1.617h4.312v1.617H24.451Zm4.312-6.321v1.568H24.451v-1.568Zm12.446-5.145c1.127-1.568,2.45-3.479,3.773-5.488l-7.35-1.764a38.181,38.181,0,0,1-3.185,6.909l1.127.343h-7.1L29.6-35.28a26.7,26.7,0,0,0-3.675-6.664l-6.076,2.058a34.929,34.929,0,0,1,2.646,5H18.13V-16.66H46.305V-34.888Zm45.325,4.9V-6.125H77.077V-40.376H69.531V-6.125H60.515V-29.841h-7.35V4.116h7.35V1.225H86.534V3.969h7.448V-29.988Zm27.881-10.486H101.577v5.292h12.838Zm1.372,6.713H99.225v5.537h16.562Zm-1.225,7.007H101.283v5.292h13.279ZM101.283-14.7h13.279v-5.292H101.283Zm24.157-2.352c-.1,5.145-.2,7.1-.49,7.693a1.235,1.235,0,0,1-1.176.588,7.954,7.954,0,0,1-1.029-.049c.343-2.842.539-5.635.637-8.232ZM108.829-3.43h-2.254V-7.6h2.254Zm31.115-21.609a74.179,74.179,0,0,1-2.058,7.252c-.2-2.842-.343-6.027-.441-9.408h8.183v-6.321h-3.381l3.773-2.058a28.768,28.768,0,0,0-4.116-6.174l-4.557,2.4a32.841,32.841,0,0,1,3.577,5.831h-3.577c-.049-2.7-.049-5.537,0-8.379h-6.174c.049,2.891.049,5.684.1,8.379H117.012v12.691c0,5.782-.2,13.72-2.548,19.747V-13.083H101.087v17h5.488V2.058h7.889V1.029a27.384,27.384,0,0,1,4.459,3.822,37.924,37.924,0,0,0,3.528-11.809,18.566,18.566,0,0,1,.784,4.459,17.993,17.993,0,0,0,4.018-.343A4.128,4.128,0,0,0,130-4.8c1.029-1.372,1.176-5.978,1.323-15.729v-2.254h-7.889v-4.41h8.036a146.757,146.757,0,0,0,1.617,19.5A32.648,32.648,0,0,1,125.538.882a21.6,21.6,0,0,1,4.312,3.626,32.961,32.961,0,0,0,5.1-5.047c1.323,3.283,3.185,5.1,5.635,5.194,1.911.049,4.655-1.666,5.978-10.535A20.5,20.5,0,0,1,141.953-9.6c-.2,3.969-.588,6.223-1.176,6.174s-1.127-1.225-1.568-3.283a64.769,64.769,0,0,0,6.419-15.876Z" transform="translate(-1.784 57.191)" fill="#fff"/>
    <path id="Path_3233" data-name="Path 3233" d="M11.8-15.48a42.528,42.528,0,0,0,5.72,7.96A9.328,9.328,0,0,1,19.1-9.14a28.6,28.6,0,0,1-5.46-7.12Zm-5.6-.78A18.4,18.4,0,0,1,1.04-8.9,10.288,10.288,0,0,1,2.82-7.52,24.554,24.554,0,0,0,8.3-15.68Zm5.84,11c.86,1.06,1.78,2.32,2.6,3.54-2.7.14-5.44.26-7.88.36a80.068,80.068,0,0,0,3.68-7.68l-2.2-.54a52.429,52.429,0,0,1-3.62,8.3c-1,.04-1.92.08-2.74.1L2.12.78C5.66.6,10.84.34,15.74.04q.54.9.9,1.62L18.54.64a45.443,45.443,0,0,0-4.72-6.72ZM39.6-6.94h3.5v-1.8H34.42v1.8h3.32v5.36c-1.52.28-2.9.54-3.98.72l.54,1.88c2.56-.56,6.14-1.34,9.46-2.1l-.14-1.68c-1.34.28-2.7.56-4.02.8Zm7.12-8.72a15.665,15.665,0,0,1,2.7,2.44l1.3-1.16a15.185,15.185,0,0,0-2.78-2.3Zm4.7,4.26v-1.82H45.68c-.04-1.12-.06-2.3-.04-3.46h-2c0,1.16.04,2.32.08,3.46H33.7v1.82H43.84c.5,7.2,2.08,13.02,5.38,13.02,1.66,0,2.32-.98,2.64-4.58a4.711,4.711,0,0,1-1.64-1.06c-.12,2.6-.36,3.68-.84,3.68-1.74,0-3.14-4.76-3.58-11.06Zm28.3,2.36v-.68h1.9c.96,0,1.66.02,1.98.06v-2.12a13.29,13.29,0,0,1-2,.12H79.72v-2.32a13.04,13.04,0,0,1,.12-1.74H77.58a13.809,13.809,0,0,1,.1,1.74v2.32H72.4v-2.3a10.779,10.779,0,0,1,.12-1.6H70.26a10.975,10.975,0,0,1,.12,1.6v2.3H68.42a12.433,12.433,0,0,1-2.08-.16v2.18c.32-.04,1.14-.08,2.08-.08h1.96v3c0,.84-.08,1.66-.1,1.94H72.5a17.783,17.783,0,0,1-.1-1.94v-3h5.28v.8c0,5.3-1.76,7.02-5.5,8.4l1.7,1.6C78.56-1.02,79.72-3.88,79.72-9.04ZM99.14-7.46l.98,1.98a40.919,40.919,0,0,0,7.38-3.1v6.96a23.177,23.177,0,0,1-.12,2.36h2.48a15.04,15.04,0,0,1-.14-2.36v-8.3a33.738,33.738,0,0,0,5.38-4.38l-1.68-1.6a24.688,24.688,0,0,1-5.56,4.76A33.026,33.026,0,0,1,99.14-7.46ZM136.7-1.84a20.939,20.939,0,0,1-.16,2.56H139a23.436,23.436,0,0,1-.16-2.56V-8.02A52.368,52.368,0,0,1,146.4-4.9l.9-2.18a67.793,67.793,0,0,0-8.46-3.2V-13.4c0-.7.08-1.58.14-2.24h-2.46a14.479,14.479,0,0,1,.18,2.24Z" transform="translate(-3 87.191)" fill="#fff"/>
  </g>
</svg>
