<?xml version="1.0" encoding="UTF-8"?>
<svg id="Layer_2" data-name="Layer 2" xmlns="http://www.w3.org/2000/svg" viewBox="0 0 272.37 134.43">
  <defs>
    <style>
      .cls-1 {
        fill: #ffffff;
      }
    </style>
  </defs>
  <g id="_レイヤー_1" data-name="レイヤー 1">
    <g>
      <path class="cls-1" d="m145.06,40.71h13.25l-2.34,13.25h-13.25l2.34-13.25Zm-4.7,26.63h13.25l-11.61,65.85h-13.25l11.61-65.85Zm38.27,22.08c.47-2.68,1.08-5.15,1.82-7.4.74-2.25,1.74-4.24,3-5.98,2.06-2.86,4.72-5.15,7.97-6.88,3.25-1.73,6.91-2.6,10.98-2.6s7.42.87,10.06,2.6c2.64,1.73,4.49,4.03,5.54,6.88.65,1.73.94,3.72.89,5.98-.05,2.25-.31,4.72-.78,7.4l-3.82,21.69c-.47,2.69-1.08,5.15-1.83,7.4-.74,2.25-1.74,4.24-3,5.98-2.06,2.86-4.72,5.15-7.97,6.88-3.25,1.73-6.91,2.6-10.98,2.6s-7.43-.86-10.06-2.6c-2.64-1.73-4.49-4.03-5.54-6.88-.65-1.73-.95-3.72-.9-5.98.05-2.25.31-4.72.79-7.4l3.82-21.69Zm9.06,23.77c-.44,2.51-.19,4.4.76,5.65.95,1.26,2.41,1.88,4.41,1.88s3.68-.63,5.07-1.88c1.39-1.25,2.31-3.14,2.75-5.65l4.56-25.85c.44-2.51.19-4.39-.76-5.65-.95-1.25-2.42-1.88-4.41-1.88s-3.68.63-5.07,1.88c-1.39,1.26-2.31,3.14-2.75,5.65l-4.56,25.85Zm67.3-72.48h13.25l-4.06,26.63h8.18l-1.83,10.39h-8.18l-6.44,36.5c-.28,1.56-.34,2.77-.19,3.64.15.87.51,1.52,1.09,1.95.57.44,1.37.69,2.4.78,1.02.09,2.27.13,3.74.13l-2.2,12.47h-5.45c-3.03,0-5.48-.47-7.35-1.43-1.87-.95-3.28-2.16-4.23-3.64-.95-1.47-1.55-3.14-1.78-5-.24-1.86-.2-3.66.11-5.39l7.05-40h-6.62l1.83-10.39h6.62l4.06-26.63Z"/>
      <g>
        <path class="cls-1" d="m114.92,16.05c-6.46-18.49-39.13-21.95-72.13-5.41C25.45,19.33,11.47,32.23.66,46.26c-.49.63.27,1.45.84.91,4.95-4.74,10.51-9.29,16.58-13.46,30.88-21.2,63.29-24.61,72.4-7.63,5.22,9.75,1.62,24.1-8.23,38.57-1.1,1.61.58,3.65,2.12,2.58,22.66-15.61,35.75-36.32,30.56-51.19Z"/>
        <path class="cls-1" d="m25.9,103.42c-9.25,2.78-18.56,3.73-25.75,2.72-.02,3.77,0,27.83,0,27.83h25.75s-.06-30.75,0-30.55Z"/>
        <path class="cls-1" d="m24.49,67.43c-1.27,1.67-3.34,2.51-4.97,1.92-1.86-.68-2.43-2.97-1.28-5.13.77-1.45,2.13-2.45,3.5-2.76-.83-.79-1.82-1.43-2.99-1.85-5.76-2.09-13.33,1.63-16.9,8.3-3.58,6.68-1.81,13.79,3.95,15.88,5.76,2.09,13.33-1.63,16.9-8.3,1.47-2.74,2.02-5.55,1.78-8.06Z"/>
        <path class="cls-1" d="m31.61,67.13s59.22,7.63,87.48,66.84h-40.28s10.23-37.24-47.2-66.84Z"/>
        <path class="cls-1" d="m31.61,67.13s47.72,35.26,32.63,67.3l-19.52-.46s24.72-27.62-13.11-66.84Z"/>
      </g>
    </g>
  </g>
</svg>