<svg xmlns="http://www.w3.org/2000/svg" width="212.984" height="18.307" viewBox="0 0 212.984 18.307">
  <g id="Layer_1" data-name="Layer 1" transform="translate(0.015 0.005)">
    <g id="Group_99" data-name="Group 99" transform="translate(0.51 0.9)">
      <g id="Group_98" data-name="Group 98" transform="translate(0 0.625)">
        <path id="Path_303" data-name="Path 303" d="M7.176,13.741v2.406l.011.276H.51v-.668L.574,8.06.531,4.4V1.924L.51,1.49h5a29.728,29.728,0,0,1,4.642.265A7.106,7.106,0,0,1,12.8,2.7,6.087,6.087,0,0,1,15.039,5.22a5.834,5.834,0,0,1,.6,2.6,6.055,6.055,0,0,1-.678,2.8,5.779,5.779,0,0,1-2.289,2.459,6.714,6.714,0,0,1-3.434.858,15.99,15.99,0,0,1-2.066-.191ZM7.186,2.232v.731l-.042,7.312L7.165,13a9.181,9.181,0,0,0,2.247.233,5.692,5.692,0,0,0,2.342-.487,5.344,5.344,0,0,0,3.179-4.917A5.173,5.173,0,0,0,13.64,4.362a5.363,5.363,0,0,0-2.374-1.611,11.574,11.574,0,0,0-3.741-.5H7.2Z" transform="translate(-0.51 -1.49)" fill="#ff1d25" stroke="#ff1d25" stroke-miterlimit="10" stroke-width="1"/>
        <path id="Path_304" data-name="Path 304" d="M20.809,10.643v3.391a4.129,4.129,0,0,0,.117,1.25c.148.339.519.5,1.081.5a5.062,5.062,0,0,0,2.512-.7,6.843,6.843,0,0,0,2.151-1.918,4.643,4.643,0,0,1,.424-.519.418.418,0,0,1,.286-.106.382.382,0,0,1,.307.138.483.483,0,0,1,.117.35,2.165,2.165,0,0,1-.731,1.24,7.348,7.348,0,0,1-2.4,1.621,6.969,6.969,0,0,1-2.787.625,6.012,6.012,0,0,1-4.112-1.568,6.357,6.357,0,0,1-2.088-4.631,6.344,6.344,0,0,1,.434-2.278,5.983,5.983,0,0,1,1.208-1.971A6.26,6.26,0,0,1,21.921,4.03a6.031,6.031,0,0,1,3.667,1.2,6.221,6.221,0,0,1,2.543,5.394H22.3l-1.494.032Zm2.8-.721V6.732c-.011-.689-.032-1.092-.042-1.229a.741.741,0,0,0-.148-.382,1.464,1.464,0,0,0-1.25-.424c-.625,0-1.039.159-1.208.487a4.411,4.411,0,0,0-.148,1.537v3.19l1.335.042,1.462-.042Z" transform="translate(0.397 -1.338)" fill="#ff1d25" stroke="#ff1d25" stroke-miterlimit="10" stroke-width="1"/>
        <path id="Path_305" data-name="Path 305" d="M36.87,8.98V7.644c0-.922-.021-1.494-.042-1.706a1.2,1.2,0,0,0-.2-.572c-.265-.413-.88-.615-1.844-.615a4.337,4.337,0,0,0-3.455,1.4c-.329.382-.6.572-.837.572a.561.561,0,0,1-.434-.18.538.538,0,0,1-.191-.4c0-.456.54-.933,1.632-1.42a9.86,9.86,0,0,1,4.016-.7c2.7,0,4.6.413,5.712,1.229a2.565,2.565,0,0,1,.943,1.208,8.454,8.454,0,0,1,.223,2.353v4.345a8.743,8.743,0,0,0,.074,1.812,4.279,4.279,0,0,0,.519,1.3H36.859V15.126a8.767,8.767,0,0,1-1.992,1.039,5.834,5.834,0,0,1-1.95.35,4.705,4.705,0,0,1-2.9-.954,3.868,3.868,0,0,1-1.653-3.243A3.472,3.472,0,0,1,29.7,9.478,5.843,5.843,0,0,1,33.553,8.2a7.115,7.115,0,0,1,1.664.17A8.546,8.546,0,0,1,36.87,8.98Zm0,.784a5.389,5.389,0,0,0-2.13-.689.793.793,0,0,0-.827.5,6.3,6.3,0,0,0-.106,1.59V13.78a6.12,6.12,0,0,0,.053,1.049c.074.339.318.5.742.5a2.578,2.578,0,0,0,1.123-.3,4.384,4.384,0,0,0,1.134-.795l.021-4.472Z" transform="translate(1.154 -1.339)" fill="#ff1d25" stroke="#ff1d25" stroke-miterlimit="10" stroke-width="1"/>
        <path id="Path_306" data-name="Path 306" d="M49.132,6.692V14.7a1.516,1.516,0,0,0,.159.9.836.836,0,0,0,.689.223,4.711,4.711,0,0,0,2.543-.795,6.327,6.327,0,0,0,2.035-2.13c.159-.265.318-.4.466-.4a.4.4,0,0,1,.3.148.477.477,0,0,1,.138.307,2.026,2.026,0,0,1-.636,1.113,7.492,7.492,0,0,1-1.473,1.282,6.517,6.517,0,0,1-3.677,1.145,6.148,6.148,0,0,1-4.43-1.664,6.068,6.068,0,0,1-1.992-4.589,6.053,6.053,0,0,1,2.1-4.663A6.283,6.283,0,0,1,49.693,4a6.645,6.645,0,0,1,3.6.975,4.825,4.825,0,0,1,1.07.89,1.354,1.354,0,0,1,.413.805.385.385,0,0,1-.117.276.435.435,0,0,1-.3.117c-.148,0-.35-.17-.583-.53a4.129,4.129,0,0,0-1.59-1.272,4.611,4.611,0,0,0-2.045-.54c-.434,0-.71.117-.827.36a4.141,4.141,0,0,0-.191,1.59Z" transform="translate(2.043 -1.34)" fill="#ff1d25" stroke="#ff1d25" stroke-miterlimit="10" stroke-width="1"/>
        <path id="Path_307" data-name="Path 307" d="M60.269,10.643v3.391a4.129,4.129,0,0,0,.117,1.25c.148.339.519.5,1.081.5a5.062,5.062,0,0,0,2.512-.7,6.843,6.843,0,0,0,2.151-1.918,4.641,4.641,0,0,1,.424-.519.418.418,0,0,1,.286-.106.382.382,0,0,1,.307.138.483.483,0,0,1,.117.35,2.165,2.165,0,0,1-.731,1.24,7.348,7.348,0,0,1-2.4,1.621,6.969,6.969,0,0,1-2.787.625,6.012,6.012,0,0,1-4.112-1.568,6.357,6.357,0,0,1-2.088-4.631,6.344,6.344,0,0,1,.434-2.278,5.983,5.983,0,0,1,1.208-1.971A6.26,6.26,0,0,1,61.381,4.03a6.031,6.031,0,0,1,3.667,1.2,6.221,6.221,0,0,1,2.543,5.394H61.763l-1.494.032Zm2.8-.721V6.732c-.011-.689-.032-1.092-.042-1.229a.741.741,0,0,0-.148-.382,1.464,1.464,0,0,0-1.25-.424c-.625,0-1.039.159-1.208.487a4.411,4.411,0,0,0-.148,1.537v3.19l1.335.042,1.462-.042Z" transform="translate(2.754 -1.338)" fill="#ff1d25" stroke="#ff1d25" stroke-miterlimit="10" stroke-width="1"/>
      </g>
      <path id="Path_308" data-name="Path 308" d="M159.6,8.8V6.962l-.021-2.9V2.733l-.021-.837c0-.392.138-.593.4-.593a.379.379,0,0,1,.339.138.994.994,0,0,1,.1.519v.148c0,.148-.011.4-.011.752l-.042,3.688-.032,3.381.032,3.561.042,3.571c-1.5-.943-3.7-2.247-6.6-3.9s-5.246-2.967-7.037-3.91v.54l.117,5.648v.752c.011.318-.138.466-.424.466s-.445-.191-.445-.583v-.763l.021-1.24.042-5.617L145.97.9q4.435,2.75,13.649,7.884Z" transform="translate(8.18 -0.9)" fill="#2b75e0" stroke="#2b75e0" stroke-miterlimit="10" stroke-width="1"/>
      <path id="Path_309" data-name="Path 309" d="M166.309,10.643v3.391a4.129,4.129,0,0,0,.117,1.25c.148.339.519.5,1.081.5a5.062,5.062,0,0,0,2.512-.7,6.843,6.843,0,0,0,2.151-1.918,4.645,4.645,0,0,1,.424-.519.418.418,0,0,1,.286-.106.382.382,0,0,1,.307.138.483.483,0,0,1,.117.35,2.165,2.165,0,0,1-.731,1.24,7.348,7.348,0,0,1-2.4,1.621,6.969,6.969,0,0,1-2.787.625,6.012,6.012,0,0,1-4.112-1.568,6.357,6.357,0,0,1-2.088-4.631,6.344,6.344,0,0,1,.434-2.278,5.983,5.983,0,0,1,1.208-1.971,6.26,6.26,0,0,1,4.589-2.035,6.031,6.031,0,0,1,3.667,1.2,6.221,6.221,0,0,1,2.543,5.394H167.8l-1.494.032Zm2.8-.721V6.732c-.011-.689-.032-1.092-.042-1.229a.741.741,0,0,0-.148-.382,1.464,1.464,0,0,0-1.25-.424c-.625,0-1.039.159-1.208.487a4.411,4.411,0,0,0-.148,1.537v3.19l1.335.042,1.462-.042Z" transform="translate(9.089 -0.713)" fill="#2b75e0" stroke="#2b75e0" stroke-miterlimit="10" stroke-width="1"/>
      <path id="Path_310" data-name="Path 310" d="M189.1,10.325q1.176-2.464,2.321-5.468a5.549,5.549,0,0,1,.382-.88.332.332,0,0,1,.3-.148.555.555,0,0,1,.36.127.352.352,0,0,1,.148.286,1.329,1.329,0,0,1-.117.434c-.074.191-.35.795-.816,1.812L190.289,9.52l-1.272,2.734-1.039,2.289-1.092,2.5-4.144-7.121c-.276.456-.646,1.113-1.1,1.961l-2.777,5.161-2.045-3.932-1.568-2.978-1.346-2.586-1.7-3.232h6.21l3.147,6.146c.6-1.017,1.028-1.738,1.261-2.172s1.081-2.035,2.533-4.8l3.73,6.814Z" transform="translate(9.747 -0.745)" fill="#2b75e0" stroke="#2b75e0" stroke-miterlimit="10" stroke-width="1"/>
      <path id="Path_311" data-name="Path 311" d="M191.876,14.246a.933.933,0,0,1,.562.329,4.466,4.466,0,0,0,1.558.89,5.557,5.557,0,0,0,1.886.371,1.04,1.04,0,0,0,.6-.138.449.449,0,0,0,.2-.4,1.148,1.148,0,0,0-.276-.636c-.191-.244-.6-.721-1.24-1.409a37.364,37.364,0,0,1-3.052-3.54,3.489,3.489,0,0,1-.7-1.961,2.862,2.862,0,0,1,.477-1.568,4.123,4.123,0,0,1,1.325-1.272,6.045,6.045,0,0,1,3.243-.88,7.93,7.93,0,0,1,2.84.572c.784.3,1.166.625,1.166.975a.391.391,0,0,1-.138.3.442.442,0,0,1-.307.127,1.859,1.859,0,0,1-.774-.4,4.258,4.258,0,0,0-2.533-.827,1.508,1.508,0,0,0-.731.148.49.49,0,0,0-.244.466,1.673,1.673,0,0,0,.456.943c.307.382.922,1.017,1.844,1.929.9.88,1.484,1.462,1.727,1.738a8.753,8.753,0,0,1,.71.943,3.729,3.729,0,0,1,.583,1.992,3.11,3.11,0,0,1-1.632,2.724,5.948,5.948,0,0,1-3.285.869,7.5,7.5,0,0,1-3.836-.964,3.981,3.981,0,0,1-.668-.477.584.584,0,0,1-.18-.4.373.373,0,0,1,.424-.413Z" transform="translate(10.895 -0.713)" fill="#2b75e0" stroke="#2b75e0" stroke-miterlimit="10" stroke-width="1"/>
      <path id="Path_312" data-name="Path 312" d="M80.476,13.741v2.406l.011.276H73.81v-.668l.064-7.694L73.831,4.4V1.924L73.81,1.49h5a29.728,29.728,0,0,1,4.642.265A7.106,7.106,0,0,1,86.1,2.7,6.087,6.087,0,0,1,88.339,5.22a5.834,5.834,0,0,1,.6,2.6,6.055,6.055,0,0,1-.678,2.8,5.779,5.779,0,0,1-2.289,2.459,6.714,6.714,0,0,1-3.434.858A15.99,15.99,0,0,1,80.476,13.741Zm.011-11.509v.731l-.042,7.312L80.465,13a9.181,9.181,0,0,0,2.247.233,5.692,5.692,0,0,0,2.342-.487,5.344,5.344,0,0,0,3.179-4.917A5.173,5.173,0,0,0,86.94,4.362a5.363,5.363,0,0,0-2.374-1.611,11.574,11.574,0,0,0-3.741-.5H80.5Z" transform="translate(3.869 -0.865)" stroke="#000" stroke-miterlimit="10" stroke-width="1"/>
      <path id="Path_313" data-name="Path 313" d="M95.221,4.02a6.266,6.266,0,0,1,3.338.975,5.914,5.914,0,0,1,2.225,2.448,6.391,6.391,0,0,1,.678,2.9,5.952,5.952,0,0,1-.4,2.109,6.282,6.282,0,0,1-1.092,1.886,6.154,6.154,0,0,1-2.353,1.7,6.255,6.255,0,0,1-6.094-.763,5.992,5.992,0,0,1-1.961-2.416A6.376,6.376,0,0,1,89,10.219a5.812,5.812,0,0,1,1.971-4.5,6.276,6.276,0,0,1,4.25-1.7Zm-.318.7-.032,11.042c.223.011.382.021.466.021a5.476,5.476,0,0,0,2.914-.858,5.243,5.243,0,0,0,2-2.215,5.517,5.517,0,0,0,.53-2.406,5.317,5.317,0,0,0-1.95-4.281A5.234,5.234,0,0,0,95.411,4.7c-.106,0-.265,0-.5.021Z" transform="translate(4.776 -0.714)" stroke="#000" stroke-miterlimit="10" stroke-width="1"/>
      <path id="Path_314" data-name="Path 314" d="M111.919,6.748l1.24,2.066,1.187,2.014c1.176,1.939,1.971,3.222,2.4,3.847a13.193,13.193,0,0,0,1.42,1.738h-6.507l-2.024-3.54c-.742-1.325-1.314-2.278-1.706-2.872v2.469l.032,3.412V16.4H102.35l.053-5.278V8.083l-.042-6.1V1.46h5.6l-.042,7.185v.593q3.052-2.75,4.207-3.6A4.608,4.608,0,0,1,114.749,4.5c.562,0,.837.2.837.615a.53.53,0,0,1-.148.371.555.555,0,0,1-.382.148,1.245,1.245,0,0,1-.307-.053,2.085,2.085,0,0,0-.466-.085,2.113,2.113,0,0,0-.975.265,10.79,10.79,0,0,0-1.431.975Z" transform="translate(5.574 -0.867)" stroke="#000" stroke-miterlimit="10" stroke-width="1"/>
      <path id="Path_315" data-name="Path 315" d="M121.419,10.643v3.391a4.13,4.13,0,0,0,.117,1.25c.148.339.519.5,1.081.5a5.062,5.062,0,0,0,2.512-.7,6.843,6.843,0,0,0,2.151-1.918,4.643,4.643,0,0,1,.424-.519.418.418,0,0,1,.286-.106.382.382,0,0,1,.307.138.483.483,0,0,1,.117.35,2.165,2.165,0,0,1-.731,1.24,7.348,7.348,0,0,1-2.4,1.621,6.969,6.969,0,0,1-2.787.625,6.012,6.012,0,0,1-4.112-1.568,6.357,6.357,0,0,1-2.088-4.631,6.344,6.344,0,0,1,.434-2.278,5.983,5.983,0,0,1,1.208-1.971,6.26,6.26,0,0,1,4.589-2.035,6.031,6.031,0,0,1,3.667,1.2,6.221,6.221,0,0,1,2.543,5.394h-5.829l-1.494.032Zm2.8-.721V6.732c-.011-.689-.032-1.092-.042-1.229a.741.741,0,0,0-.148-.382,1.464,1.464,0,0,0-1.25-.424c-.625,0-1.039.159-1.208.487a4.411,4.411,0,0,0-.148,1.537v3.19l1.335.042,1.462-.042Z" transform="translate(6.407 -0.713)" stroke="#000" stroke-miterlimit="10" stroke-width="1"/>
      <path id="Path_316" data-name="Path 316" d="M135.266,7.7l-.021,4.207.042,4.356H129.66v-.6l.021-2.236.042-4.016-.053-4.462V4.313h5.6V6.57a15.329,15.329,0,0,1,1.749-1.685,3.781,3.781,0,0,1,2.141-.795,1.759,1.759,0,0,1,1.007.265.8.8,0,0,1,.4.668.7.7,0,0,1-.244.53.892.892,0,0,1-.6.212,1.237,1.237,0,0,1-.509-.127,2.02,2.02,0,0,0-.795-.233,2.526,2.526,0,0,0-1.515.54,8.385,8.385,0,0,0-1.643,1.78Z" transform="translate(7.205 -0.709)" stroke="#000" stroke-miterlimit="10" stroke-width="1"/>
    </g>
  </g>
</svg>
