<svg id="Green_Logo_White_Text" data-name="Green Logo_White Text" xmlns="http://www.w3.org/2000/svg" width="299.343" height="49.76" viewBox="0 0 299.343 49.76">
  <path id="Path_1" data-name="Path 1" d="M53.26,1.86l-7.7,21.9-7.5-21c-1.715.053-3.432.085-5.209.085-1.747,0-3.462-.032-5.179-.053L20.139,23.77,12.418,1.84A121.745,121.745,0,0,1,0,.011L19.573,49.294l.136.353.2-.385c.89-1.511,10.074-18.6,10.074-18.6l.053-.168a4.213,4.213,0,0,1,.993-.591c2.072-.867,2.217-1.088.659-.867a4.419,4.419,0,0,0-1.443.508l1.747-7.134L27.63,14.3,38.9,23.36s-.334,4.756.5,4.756c.774,0,.419,2.125.355,3.213a9.021,9.021,0,0,1-.993-.644,2.69,2.69,0,0,1-.774-.982,7.644,7.644,0,0,0,.555,1.458,7.423,7.423,0,0,0,1.464,1.511c.638,2.093,2.3,6.849,3.849,11.213a6.881,6.881,0,0,0-.806-.444,34.831,34.831,0,0,1-4.981-3.995,16.632,16.632,0,0,0,2.27,3.128,40.337,40.337,0,0,0,4.289,3.519l.032.032c.47,1.311.91,2.569,1.3,3.636L65.731,0A123.707,123.707,0,0,1,53.26,1.86Z" fill="#1ec39c" fill-rule="evenodd"/>
  <path id="Path_2" data-name="Path 2" d="M150.792,23.9c4.017,0,7.039,2.1,8.11,5.738l4.476-1.568c-1.721-5.394-6.542-8.607-12.586-8.607-7.919,0-13.581,5.777-13.581,14.116,0,8.378,5.547,14.078,13.313,14.078,4.208,0,7.422-1.721,9.1-4.361v3.9h4.17V32.354H152.054v4.208h7.269c-.574,4.476-3.9,6.924-8.531,6.924-5.356,0-8.684-4.055-8.684-9.908S145.359,23.9,150.792,23.9Z" transform="translate(-52.921 -7.506)" fill="#fff"/>
  <path id="Path_3" data-name="Path 3" d="M203.519,20.4h-20.39v4.4h7.881V47.558h4.629V24.8h7.88Z" transform="translate(-70.631 -7.867)" fill="#fff"/>
  <path id="Path_4" data-name="Path 4" d="M222.382,33.617c0-5.853,3.825-9.717,9.143-9.717s9.143,3.864,9.143,9.717-3.826,9.717-9.143,9.717S222.382,39.47,222.382,33.617Zm-4.9,0c0,8.072,5.776,14.154,14.04,14.154s14.04-6.083,14.04-14.154-5.776-14.154-14.04-14.154S217.485,25.545,217.485,33.617Z" transform="translate(-83.881 -7.506)" fill="#fff"/>
  <path id="Path_5" data-name="Path 5" d="M300.983,26.938h.076l6.083,20.62h4.973L320.569,20.4h-5.088l-5.738,20.62h-.076L303.622,20.4h-5.088l-6.044,20.62h-.076l-5.7-20.62h-5.241l8.455,27.161H294.9Z" transform="translate(-108.56 -7.867)" fill="#fff"/>
  <path id="Path_6" data-name="Path 6" d="M352.216,23.318a2.7,2.7,0,0,0,2.831-2.793,2.85,2.85,0,1,0-5.7,0A2.712,2.712,0,0,0,352.216,23.318Zm-2.3,23.183h4.553V26.646h-4.553Z" transform="translate(-134.739 -6.81)" fill="#fff"/>
  <path id="Path_7" data-name="Path 7" d="M381.911,36V32.291H365.423v3.94h10.75l-10.9,12.2v3.711h16.794V48.2H370.97Z" transform="translate(-140.88 -12.454)" fill="#fff"/>
  <path id="Path_8" data-name="Path 8" d="M410.416,42.561v1.224c0,2.678-1.8,4.973-5.47,4.973-2.411,0-3.443-.956-3.443-2.487,0-1.339.727-2.334,3.634-2.831Zm-6.389,9.755c2.984,0,5.509-.956,6.925-2.64a4.279,4.279,0,0,0,4.131,2.41,6.207,6.207,0,0,0,1.454-.153V48.261a2.245,2.245,0,0,1-.383.038,1.166,1.166,0,0,1-1.3-1.339v-8c0-4.552-2.755-7.422-8.57-7.422-5.623,0-8.071,2.831-8.684,6.044l4.361.727c.307-1.913,1.722-3.022,4.208-3.022,2.717,0,4.247,1.148,4.247,3.558v.268l-5.738.842c-5.241.765-7.613,2.984-7.613,6.35C397.065,49.714,399.208,52.316,404.028,52.316Z" transform="translate(-153.143 -12.166)" fill="#fff"/>
  <path id="Path_9" data-name="Path 9" d="M446.01,32.017s-.459-.038-.65-.038c-3.443,0-5.126,1.683-5.853,2.946V32.17H435.3V52.025h4.552V41.7c0-3.826,1.913-5.509,5.126-5.509a8.478,8.478,0,0,1,1.033.076Z" transform="translate(-167.889 -12.334)" fill="#fff"/>
  <path id="Path_10" data-name="Path 10" d="M470.12,29.344a7.328,7.328,0,0,0-6.35-3.06c-5.853,0-9.182,4.705-9.182,10.405,0,5.662,3.328,10.367,9.182,10.367,3.1,0,5.432-1.224,6.694-3.29V46.6h4.208V17.905H470.12Zm.191,7.345c0,3.558-2.1,6.35-5.585,6.35-3.443,0-5.585-2.793-5.585-6.35,0-3.634,2.142-6.389,5.585-6.389C468.207,30.3,470.311,33.054,470.311,36.689Z" transform="translate(-175.329 -6.906)" fill="#fff"/>
</svg>
