<svg xmlns="http://www.w3.org/2000/svg" width="444.771" height="336.703" viewBox="0 0 444.771 336.703">
  <path id="Path_91" data-name="Path 91" d="M360.385,12.588l-52.1,148.185-50.75-142.1c-11.6.358-23.222.575-35.248.575-11.821,0-23.426-.217-35.043-.358L136.274,160.837,84.029,12.448A823.789,823.789,0,0,1,0,.077l132.44,333.47.92,2.39,1.355-2.607c6.019-10.224,68.169-125.871,68.169-125.871l.358-1.137a28.5,28.5,0,0,1,6.722-4c14.019-5.866,15-7.362,4.46-5.866a29.9,29.9,0,0,0-9.764,3.438l11.822-48.27L186.96,96.771l76.246,61.293s-2.262,32.18,3.4,32.18c5.24,0,2.837,14.378,2.4,21.739a61.045,61.045,0,0,1-6.722-4.358,18.2,18.2,0,0,1-5.24-6.645,51.724,51.724,0,0,0,3.758,9.866c1.84,3.438,7.3,7.936,9.9,10.224,4.32,14.16,15.579,46.341,26.046,75.875a46.562,46.562,0,0,0-5.457-3c-10.339-5.291-31.081-24.6-33.7-27.03,6.581,10.441,8.78,14.16,15.361,21.164,5.457,6.083,21.381,18.16,29.024,23.809l.217.217c3.182,8.87,6.16,17.381,8.78,24.6L444.771,0C419.785,5.227,391.53,9.368,360.385,12.588Z" fill="#fff" fill-rule="evenodd"/>
</svg>
