<svg xmlns="http://www.w3.org/2000/svg" width="123.872" height="115.388" viewBox="0 0 123.872 115.388">
  <g id="Group_2409" data-name="Group 2409" transform="translate(-27.476 -815.088)">
    <path id="Path_22969" data-name="Path 22969" d="M-19.432-11.76q.112-.14.294-.406a2.871,2.871,0,0,1,.308-.392.353.353,0,0,1,.238-.126,2.172,2.172,0,0,1,.784.462,11.858,11.858,0,0,1,1.162.994q.546.532.546.728-.112.448-.728.448H-34.944a28.372,28.372,0,0,0-4.2.392l-.756-1.428q1.54.168,3.724.224h6.916V-14.2h-3.164a28.372,28.372,0,0,0-4.2.392l-.7-1.428q1.54.168,3.724.224h4.34v-3.164h-4.564a28.371,28.371,0,0,0-4.2.392l-.7-1.428q1.54.168,3.724.224h8.932a19.468,19.468,0,0,0,1.022-2.492,17.966,17.966,0,0,0,.658-2.436q3.08,1.064,3.08,1.428,0,.084-.252.2l-.5.168a25.589,25.589,0,0,1-3.192,3.136h4.4l.644-.9q.112-.14.294-.406a2.87,2.87,0,0,1,.308-.392.353.353,0,0,1,.238-.126,2.172,2.172,0,0,1,.784.462,10.7,10.7,0,0,1,1.148.994q.532.532.532.728-.028.448-.7.448H-27.02v3.164h4.928l.588-.84q.14-.168.28-.364a3.827,3.827,0,0,1,.28-.35.377.377,0,0,1,.252-.154,2.046,2.046,0,0,1,.756.434,10.67,10.67,0,0,1,1.106.938q.518.5.518.7-.112.448-.7.448H-27.02v3.332h6.944Zm-14.7-11.676a6.214,6.214,0,0,1,2.9,1.33,2.5,2.5,0,0,1,.938,1.778,1.413,1.413,0,0,1-.336.952,1.033,1.033,0,0,1-.812.392,1.549,1.549,0,0,1-.868-.336,5.655,5.655,0,0,0-.714-2.044,8.81,8.81,0,0,0-1.358-1.876ZM-19.04-7.252q.14-.168.294-.378a4.479,4.479,0,0,1,.308-.378.413.413,0,0,1,.266-.168,2.237,2.237,0,0,1,.8.476,13.834,13.834,0,0,1,1.19,1.008q.56.532.56.728-.112.448-.7.448H-26.74a8.947,8.947,0,0,0,4.284,3.654A23.961,23.961,0,0,0-15.4-.224l-.028.308A2.23,2.23,0,0,0-16.52.826a2.842,2.842,0,0,0-.588,1.33A17.412,17.412,0,0,1-23.66-.476a10.568,10.568,0,0,1-3.7-5.04h-.392A8.139,8.139,0,0,1-29.484-2.17,10.443,10.443,0,0,1-33.306.35,35.1,35.1,0,0,1-40.32,2.3l-.168-.532a29.922,29.922,0,0,0,5.516-2.03,10.613,10.613,0,0,0,3.206-2.352,7.653,7.653,0,0,0,1.582-2.9h-5.348a28.372,28.372,0,0,0-4.2.392l-.756-1.428q1.54.168,3.724.224h6.776a9.373,9.373,0,0,0,.2-2.044A10.693,10.693,0,0,0-29.876-9.8q3.276.28,3.276.644,0,.112-.224.252l-.448.308q-.168,1.512-.308,2.268h7.9ZM-.532.588q-3.36,0-4.746-1.974T-6.664-7.364q0-2.548.364-6.188a32.1,32.1,0,0,0,.252-3.3,6.532,6.532,0,0,0-.294-2.128,2.389,2.389,0,0,0-1.022-1.288q-.252-.14-.252-.28,0-.2.378-.28a3.67,3.67,0,0,1,.8-.084,2.488,2.488,0,0,1,2.128.826A3.745,3.745,0,0,1-3.7-17.808a15.9,15.9,0,0,1-.2,2.142q-.2,1.358-.224,1.61a4.775,4.775,0,0,0-.112.644,39.181,39.181,0,0,0-.56,6.076,10.367,10.367,0,0,0,.476,3.514A3.25,3.25,0,0,0-2.758-1.988a6.4,6.4,0,0,0,2.926.56q3.7,0,9.016-4.2L9.45-5.81a.573.573,0,0,1,.294-.126q.084,0,.084.112a1.162,1.162,0,0,1-.336.56Q4.4.588-.532.588ZM25.032-.756a3.718,3.718,0,0,1-1.54-.448A9.323,9.323,0,0,1,21.5-2.576Q18.7-5.04,18.7-10a23.7,23.7,0,0,1,.252-3,15.109,15.109,0,0,0,.168-1.68,3.859,3.859,0,0,0-.252-1.442,2.926,2.926,0,0,0-.84-1.134q-.224-.2-.224-.252,0-.084.168-.14a1.144,1.144,0,0,1,.364-.056,3.28,3.28,0,0,1,1.428.35,3.244,3.244,0,0,1,1.19.952,2.059,2.059,0,0,1,.462,1.274,9.263,9.263,0,0,1-.336,1.848q-.308,1.372-.448,2.184a9.873,9.873,0,0,0-.14,1.68,6.721,6.721,0,0,0,.518,2.632A6.385,6.385,0,0,0,22.246-4.8a1.946,1.946,0,0,0,1.274.742q.364,0,.476-.532a26.194,26.194,0,0,1,1.064-3.5q.056-.084.182-.308t.238-.224q.084,0,.084.168a1.671,1.671,0,0,1-.084.532,14.345,14.345,0,0,0-.308,2.6,6.377,6.377,0,0,0,.168,1.54A5.229,5.229,0,0,0,25.7-2.772a2.431,2.431,0,0,1,.308,1.036.965.965,0,0,1-.266.714A.965.965,0,0,1,25.032-.756ZM36.9-7.924a1.126,1.126,0,0,1-.854-.308,1.887,1.887,0,0,1-.434-.84q-.924-3.556-2.436-4.34a3.927,3.927,0,0,0-1.792-.336h-.476q-.252,0-.252-.14t.308-.252a5.631,5.631,0,0,1,1.792-.28,5.171,5.171,0,0,1,3.5,1.316,5.606,5.606,0,0,1,1.47,1.932,4.389,4.389,0,0,1,.434,1.624,1.884,1.884,0,0,1-.35,1.148A1.08,1.08,0,0,1,36.9-7.924ZM-55.3,19.792a11.734,11.734,0,0,1,4.76,3.444A7.236,7.236,0,0,1-48.832,27.8a5,5,0,0,1-.91,2.982,5.8,5.8,0,0,1-2.352,1.932,7.234,7.234,0,0,1-3.038.658,4.544,4.544,0,0,1-3.99-1.764,8,8,0,0,1-1.246-4.7q0-1.092.028-1.624a4.691,4.691,0,0,1-1.582-.924,1.742,1.742,0,0,1-.6-1.316q0-1.652,2.8-4,.252-1.512.5-2.772a10.319,10.319,0,0,1-3.024-1.9,1.357,1.357,0,0,0-.168-.2.307.307,0,0,1-.112-.2.148.148,0,0,1,.168-.168,1.091,1.091,0,0,1,.392.14,8.831,8.831,0,0,0,1.288.392q.728.168,1.162.252t.6.112a17.538,17.538,0,0,0,.336-2.8,4.806,4.806,0,0,0-.28-1.68,2.806,2.806,0,0,0-.518-.826l-.322-.322a.386.386,0,0,1-.14-.252q0-.2.392-.2a2.69,2.69,0,0,1,.9.2,3.384,3.384,0,0,1,.952.532A2.51,2.51,0,0,1-56.5,11.336a4.975,4.975,0,0,1-.476,1.848q-.588,1.456-.7,1.736a11.561,11.561,0,0,1,1.736.448,1.766,1.766,0,0,1,.882.672,1.623,1.623,0,0,1,.294.9.938.938,0,0,1-.28.714,1.249,1.249,0,0,1-.728.322,6.7,6.7,0,0,0-2.912.952,45.037,45.037,0,0,0-.672,4.788l.336.028q.56.056,2.184.056,1.82,0,1.82,1.176,0,.952-1.708.952a11.479,11.479,0,0,1-2.716-.364v.2a8.924,8.924,0,0,0,.882,4.326,3.319,3.319,0,0,0,3.178,1.582,4.108,4.108,0,0,0,3.066-1.246,4.5,4.5,0,0,0,1.218-3.29,6.717,6.717,0,0,0-1.232-3.7A12.766,12.766,0,0,0-55.58,20.1q-.336-.224-.336-.364,0-.084.14-.084A3.3,3.3,0,0,1-55.3,19.792ZM-57.4,17.1q0-.112-.168-.2a2.566,2.566,0,0,0-.336-.14q-.168-.056-.28-.084-.2.84-.308,1.4.532-.364.812-.6T-57.4,17.1ZM-61.572,22.4q0,.784,1.316,1.12.168-1.988.42-3.752A6.866,6.866,0,0,0-61.1,21.15,2.354,2.354,0,0,0-61.572,22.4Zm34.048-9.968a12.484,12.484,0,0,1,4.788.98,9.276,9.276,0,0,1,3.976,3.136,8.98,8.98,0,0,1,1.6,5.488A8.358,8.358,0,0,1-19.6,28.4a12.709,12.709,0,0,1-5.53,3.136,21.956,21.956,0,0,1-5.614.826,1.5,1.5,0,0,1-.364-.042q-.168-.042-.168-.1,0-.112.364-.21a6.742,6.742,0,0,1,.728-.154A16.005,16.005,0,0,0-22.5,28.626a8.244,8.244,0,0,0,2.982-6.734,8.718,8.718,0,0,0-1.316-5.026,7.427,7.427,0,0,0-3.22-2.73,9.577,9.577,0,0,0-3.78-.812,5.142,5.142,0,0,0-.644.028,8.485,8.485,0,0,1,.56,1.792,9.566,9.566,0,0,1,.224,1.96,12.55,12.55,0,0,1-.252,2.366,14.835,14.835,0,0,1-.756,2.59,20.714,20.714,0,0,1-2.086,4.172,13.138,13.138,0,0,1-2.31,2.744,3.211,3.211,0,0,1-1.82.952,2.6,2.6,0,0,1-1.946-1.036A7.667,7.667,0,0,1-38.318,26.2a10.643,10.643,0,0,1-.546-3.36,9.4,9.4,0,0,1,1.638-5.46,10.943,10.943,0,0,1,4.256-3.668A12.191,12.191,0,0,1-27.524,12.428Zm-1.12,3.08a7.243,7.243,0,0,0-.308-2.128,9.312,9.312,0,0,0-4.032,1.512,9.143,9.143,0,0,0-2.94,3.178,8.632,8.632,0,0,0-1.092,4.3,7.883,7.883,0,0,0,.406,2.7,4.643,4.643,0,0,0,.924,1.638q.518.532.826.532a2.525,2.525,0,0,0,1.61-1.008,16.909,16.909,0,0,0,1.806-2.352,19.173,19.173,0,0,0,2.156-4.326A12.965,12.965,0,0,0-28.644,15.508Zm41.3-1.148a1.418,1.418,0,0,1-1.008-.476,9.106,9.106,0,0,0-1.218-1.022,4.707,4.707,0,0,0-1.246-.546,3.883,3.883,0,0,0-.462-.126,2.03,2.03,0,0,1-.35-.1q-.14-.056-.14-.14,0-.224.672-.364a6.443,6.443,0,0,1,1.316-.14,4.968,4.968,0,0,1,2.352.532,1.616,1.616,0,0,1,1.008,1.456.841.841,0,0,1-.294.672A.952.952,0,0,1,12.656,14.36ZM9.968,17.048a1.177,1.177,0,0,1-.98-.532A6.665,6.665,0,0,0,7.84,15.368a4.957,4.957,0,0,0-1.4-.728q-.112-.028-.336-.1a1.2,1.2,0,0,1-.322-.14.194.194,0,0,1-.1-.154q0-.168.532-.294a4.6,4.6,0,0,1,1.064-.126,6.045,6.045,0,0,1,2.632.56,1.76,1.76,0,0,1,1.176,1.624.957.957,0,0,1-.336.728A1.124,1.124,0,0,1,9.968,17.048ZM-3.808,31.972q-.42,0-.42-.224t.392-.28a17.515,17.515,0,0,0,6.16-1.722A12.451,12.451,0,0,0,6.692,26.3a6.889,6.889,0,0,0,1.6-4.27A4.975,4.975,0,0,0,7.6,19.358a4.474,4.474,0,0,0-1.778-1.666,4.965,4.965,0,0,0-2.3-.56,7.868,7.868,0,0,0-3.472.9,19.108,19.108,0,0,0-2.912,1.708q-1.092.812-2.324,1.82-.14.112-.756.616a7.791,7.791,0,0,1-1.274.854,2.58,2.58,0,0,1-1.19.35,2.925,2.925,0,0,1-1.652-.574,7.069,7.069,0,0,1-1.372-1.19q-.42-.392-.42-.616,0-.14.07-.182a.573.573,0,0,1,.266-.042,7.189,7.189,0,0,1,.756.084,7.042,7.042,0,0,0,.952.084,3.831,3.831,0,0,0,1.68-.406q.84-.406,2.3-1.3,1.568-.952,2.744-1.568A14.336,14.336,0,0,1-.308,16.6a12.81,12.81,0,0,1,3.472-.448,7.9,7.9,0,0,1,3.654.868,6.88,6.88,0,0,1,2.7,2.436,6.433,6.433,0,0,1,1.008,3.556,7.535,7.535,0,0,1-.938,3.36,9.348,9.348,0,0,1-4.116,3.542Q2.3,31.608-3.808,31.972Zm33.236,1.4a1.246,1.246,0,0,1-1.092-.7,9.266,9.266,0,0,1-.812-1.96,33.125,33.125,0,0,0-1.456-3.934,24.139,24.139,0,0,0-1.54-2.674q-.84-1.288-1.134-1.834a2.215,2.215,0,0,1-.294-1.05,2.713,2.713,0,0,1,.266-1.078,10.674,10.674,0,0,1,.91-1.554,47.523,47.523,0,0,0,3.36-6.16,3.289,3.289,0,0,0,.252-1.092,1.279,1.279,0,0,0-.532-1.092,2.476,2.476,0,0,0-.434-.322q-.294-.182-.294-.294,0-.2.56-.2a4.019,4.019,0,0,1,1.246.252,6.142,6.142,0,0,1,1.386.672,1.591,1.591,0,0,1,.756,1.344,2.3,2.3,0,0,1-.224.924,9.124,9.124,0,0,1-.9,1.61q-.5.714-1.624,2-1.848,2.1-3.3,4.116a1.372,1.372,0,0,0-.308.868,1.2,1.2,0,0,0,.392.868,37.276,37.276,0,0,1,4,4.97,9.134,9.134,0,0,1,1.848,5,1.64,1.64,0,0,1-.252.952A.887.887,0,0,1,29.428,33.372ZM57.092,14.08a3.006,3.006,0,0,1,2.016.882,6.4,6.4,0,0,1,1.61,2.562,11.052,11.052,0,0,1,.63,3.892q0,9.324-8.512,11.844a1.125,1.125,0,0,1-.448.112q-.224,0-.224-.2a.236.236,0,0,1,.14-.2,9.483,9.483,0,0,0,5.222-4.7,15.51,15.51,0,0,0,1.5-6.72,13.174,13.174,0,0,0-.658-4.452q-.658-1.82-1.834-1.82a2.3,2.3,0,0,0-1.792,1.148,9.861,9.861,0,0,0-1.358,2.674,8.22,8.22,0,0,0-.518,2.534,2.726,2.726,0,0,0,.168.938A9.819,9.819,0,0,0,53.48,23.6q.2.392.35.784a1.945,1.945,0,0,1,.154.7.77.77,0,0,1-.238.588.808.808,0,0,1-.574.224,1.736,1.736,0,0,1-1.358-.672,4.626,4.626,0,0,1-.882-1.694,6.917,6.917,0,0,1-.308-2,15.3,15.3,0,0,1,.28-2.73q.28-1.526.784-3.57a21.86,21.86,0,0,0,.672-3.668,1.687,1.687,0,0,0-.448-1.2,5.482,5.482,0,0,0-.42-.378q-.224-.182-.224-.322t.224-.252a1.32,1.32,0,0,1,.588-.112,1.691,1.691,0,0,1,1.414.728,2.9,2.9,0,0,1,.546,1.792,7.475,7.475,0,0,1-.21,1.764q-.21.868-.63,2.1l-.392,1.232a10.967,10.967,0,0,0-.308,1.624,12.625,12.625,0,0,1,2.016-3.318A3.347,3.347,0,0,1,57.092,14.08Z" transform="translate(90 839)" fill="#78c3de"/>
    <path id="Path_22970" data-name="Path 22970" d="M15.25,13.152a7.543,7.543,0,0,1,3.06,2.214,4.652,4.652,0,0,1,1.1,2.934,3.212,3.212,0,0,1-.585,1.917,3.725,3.725,0,0,1-1.512,1.242,4.651,4.651,0,0,1-1.953.423,2.921,2.921,0,0,1-2.565-1.134,5.142,5.142,0,0,1-.8-3.024q0-.7.018-1.044a3.015,3.015,0,0,1-1.017-.594,1.12,1.12,0,0,1-.387-.846q0-1.062,1.8-2.574.162-.972.324-1.782A6.633,6.633,0,0,1,10.786,9.66a.873.873,0,0,0-.108-.126.2.2,0,0,1-.072-.126.1.1,0,0,1,.108-.108.7.7,0,0,1,.252.09,5.677,5.677,0,0,0,.828.252q.468.108.747.162t.387.072a11.274,11.274,0,0,0,.216-1.8A3.09,3.09,0,0,0,12.964,7a1.8,1.8,0,0,0-.333-.531l-.207-.207a.248.248,0,0,1-.09-.162q0-.126.252-.126a1.729,1.729,0,0,1,.576.126,2.175,2.175,0,0,1,.612.342,1.614,1.614,0,0,1,.7,1.278A3.2,3.2,0,0,1,14.17,8.9l-.45,1.116a7.432,7.432,0,0,1,1.116.288,1.136,1.136,0,0,1,.567.432,1.043,1.043,0,0,1,.189.576.6.6,0,0,1-.18.459.8.8,0,0,1-.468.207,4.307,4.307,0,0,0-1.872.612,28.952,28.952,0,0,0-.432,3.078l.216.018q.36.036,1.4.036,1.17,0,1.17.756,0,.612-1.1.612a7.379,7.379,0,0,1-1.746-.234v.126a5.737,5.737,0,0,0,.567,2.781A2.133,2.133,0,0,0,15.2,20.784a2.641,2.641,0,0,0,1.971-.8,2.9,2.9,0,0,0,.783-2.115,4.318,4.318,0,0,0-.792-2.376A8.207,8.207,0,0,0,15.07,13.35q-.216-.144-.216-.234,0-.054.09-.054A2.123,2.123,0,0,1,15.25,13.152ZM13.9,11.424q0-.072-.108-.126a1.65,1.65,0,0,0-.216-.09q-.108-.036-.18-.054-.126.54-.2.9.342-.234.522-.387T13.9,11.424Zm-2.682,3.4q0,.5.846.72.108-1.278.27-2.412a4.414,4.414,0,0,0-.81.891A1.513,1.513,0,0,0,11.218,14.826ZM34.186,8.418a8.025,8.025,0,0,1,3.078.63,5.963,5.963,0,0,1,2.556,2.016,5.773,5.773,0,0,1,1.026,3.528,5.373,5.373,0,0,1-1.566,4.1A8.17,8.17,0,0,1,35.725,20.7a14.115,14.115,0,0,1-3.609.531.963.963,0,0,1-.234-.027q-.108-.027-.108-.063,0-.072.234-.135a4.334,4.334,0,0,1,.468-.1,10.289,10.289,0,0,0,4.941-2.079A5.3,5.3,0,0,0,39.334,14.5a5.6,5.6,0,0,0-.846-3.231,4.774,4.774,0,0,0-2.07-1.755,6.157,6.157,0,0,0-2.43-.522,3.305,3.305,0,0,0-.414.018,5.455,5.455,0,0,1,.36,1.152,6.15,6.15,0,0,1,.144,1.26,8.068,8.068,0,0,1-.162,1.521,9.537,9.537,0,0,1-.486,1.665,13.316,13.316,0,0,1-1.341,2.682A8.446,8.446,0,0,1,30.6,19.056a2.064,2.064,0,0,1-1.17.612A1.672,1.672,0,0,1,28.183,19a4.928,4.928,0,0,1-.936-1.728,6.842,6.842,0,0,1-.351-2.16,6.041,6.041,0,0,1,1.053-3.51,7.035,7.035,0,0,1,2.736-2.358A7.837,7.837,0,0,1,34.186,8.418Zm-.72,1.98a4.656,4.656,0,0,0-.2-1.368A5.986,5.986,0,0,0,30.676,10a5.877,5.877,0,0,0-1.89,2.043,5.549,5.549,0,0,0-.7,2.763,5.067,5.067,0,0,0,.261,1.737,2.984,2.984,0,0,0,.594,1.053q.333.342.531.342a1.623,1.623,0,0,0,1.035-.648,10.87,10.87,0,0,0,1.161-1.512A12.326,12.326,0,0,0,33.052,13,8.335,8.335,0,0,0,33.466,10.4ZM61.1,9.66a.912.912,0,0,1-.648-.306,5.854,5.854,0,0,0-.783-.657,3.026,3.026,0,0,0-.8-.351,2.5,2.5,0,0,0-.3-.081,1.305,1.305,0,0,1-.225-.063q-.09-.036-.09-.09,0-.144.432-.234a4.142,4.142,0,0,1,.846-.09,3.194,3.194,0,0,1,1.512.342,1.039,1.039,0,0,1,.648.936A.54.54,0,0,1,61.5,9.5.612.612,0,0,1,61.1,9.66Zm-1.728,1.728a.757.757,0,0,1-.63-.342A4.285,4.285,0,0,0,58,10.308a3.187,3.187,0,0,0-.9-.468q-.072-.018-.216-.063a.772.772,0,0,1-.207-.09.125.125,0,0,1-.063-.1q0-.108.342-.189a2.959,2.959,0,0,1,.684-.081,3.886,3.886,0,0,1,1.692.36,1.131,1.131,0,0,1,.756,1.044.615.615,0,0,1-.216.468A.722.722,0,0,1,59.368,11.388Zm-8.856,9.594q-.27,0-.27-.144t.252-.18a11.26,11.26,0,0,0,3.96-1.107,8,8,0,0,0,2.808-2.214,4.428,4.428,0,0,0,1.026-2.745,3.2,3.2,0,0,0-.441-1.719A2.876,2.876,0,0,0,56.7,11.8a3.192,3.192,0,0,0-1.476-.36A5.058,5.058,0,0,0,53,12.018a12.284,12.284,0,0,0-1.872,1.1q-.7.522-1.494,1.17l-.486.4a5.008,5.008,0,0,1-.819.549,1.659,1.659,0,0,1-.765.225,1.881,1.881,0,0,1-1.062-.369,4.544,4.544,0,0,1-.882-.765q-.27-.252-.27-.4,0-.09.045-.117a.368.368,0,0,1,.171-.027,4.621,4.621,0,0,1,.486.054,4.527,4.527,0,0,0,.612.054,2.463,2.463,0,0,0,1.08-.261q.54-.261,1.476-.837,1.008-.612,1.764-1.008a9.216,9.216,0,0,1,1.782-.684,8.235,8.235,0,0,1,2.232-.288,5.077,5.077,0,0,1,2.349.558,4.423,4.423,0,0,1,1.737,1.566,4.136,4.136,0,0,1,.648,2.286,4.844,4.844,0,0,1-.6,2.16,6.009,6.009,0,0,1-2.646,2.277A14.926,14.926,0,0,1,50.512,20.982Zm22.446.9a.8.8,0,0,1-.7-.45,5.957,5.957,0,0,1-.522-1.26,21.3,21.3,0,0,0-.936-2.529,15.52,15.52,0,0,0-.99-1.719q-.54-.828-.729-1.179a1.424,1.424,0,0,1-.189-.675,1.744,1.744,0,0,1,.171-.693,6.862,6.862,0,0,1,.585-1,30.55,30.55,0,0,0,2.16-3.96,2.114,2.114,0,0,0,.162-.7.823.823,0,0,0-.342-.7,1.592,1.592,0,0,0-.279-.207q-.189-.117-.189-.189,0-.126.36-.126a2.584,2.584,0,0,1,.8.162,3.948,3.948,0,0,1,.891.432,1.023,1.023,0,0,1,.486.864,1.477,1.477,0,0,1-.144.594,5.865,5.865,0,0,1-.576,1.035q-.324.459-1.044,1.287-1.188,1.35-2.124,2.646a.882.882,0,0,0-.2.558.774.774,0,0,0,.252.558,23.963,23.963,0,0,1,2.574,3.195,5.872,5.872,0,0,1,1.188,3.213,1.054,1.054,0,0,1-.162.612A.57.57,0,0,1,72.958,21.882ZM91.822,9.48a1.933,1.933,0,0,1,1.3.567,4.114,4.114,0,0,1,1.035,1.647,7.1,7.1,0,0,1,.405,2.5q0,5.994-5.472,7.614a.723.723,0,0,1-.288.072q-.144,0-.144-.126a.152.152,0,0,1,.09-.126A6.1,6.1,0,0,0,92.1,18.606a9.971,9.971,0,0,0,.963-4.32,8.469,8.469,0,0,0-.423-2.862q-.423-1.17-1.179-1.17a1.481,1.481,0,0,0-1.152.738,6.339,6.339,0,0,0-.873,1.719A5.284,5.284,0,0,0,89.1,14.34a1.752,1.752,0,0,0,.108.6,6.311,6.311,0,0,0,.288.657q.126.252.225.5a1.25,1.25,0,0,1,.1.45.5.5,0,0,1-.153.378.519.519,0,0,1-.369.144,1.116,1.116,0,0,1-.873-.432,2.974,2.974,0,0,1-.567-1.089,4.447,4.447,0,0,1-.2-1.287,9.833,9.833,0,0,1,.18-1.755q.18-.981.5-2.295A14.053,14.053,0,0,0,88.78,7.86a1.085,1.085,0,0,0-.288-.774,3.524,3.524,0,0,0-.27-.243q-.144-.117-.144-.207t.144-.162A.849.849,0,0,1,88.6,6.4a1.087,1.087,0,0,1,.909.468,1.865,1.865,0,0,1,.351,1.152,4.806,4.806,0,0,1-.135,1.134q-.135.558-.405,1.35l-.252.792a7.05,7.05,0,0,0-.2,1.044,8.116,8.116,0,0,1,1.3-2.133A2.152,2.152,0,0,1,91.822,9.48Zm18.684-1.062a8.025,8.025,0,0,1,3.078.63,5.963,5.963,0,0,1,2.556,2.016,5.773,5.773,0,0,1,1.026,3.528,5.373,5.373,0,0,1-1.566,4.1,8.17,8.17,0,0,1-3.555,2.016,14.115,14.115,0,0,1-3.609.531.963.963,0,0,1-.234-.027q-.108-.027-.108-.063,0-.072.234-.135a4.334,4.334,0,0,1,.468-.1,10.289,10.289,0,0,0,4.941-2.079,5.3,5.3,0,0,0,1.917-4.329,5.6,5.6,0,0,0-.846-3.231,4.774,4.774,0,0,0-2.07-1.755,6.157,6.157,0,0,0-2.43-.522,3.305,3.305,0,0,0-.414.018,5.455,5.455,0,0,1,.36,1.152,6.15,6.15,0,0,1,.144,1.26,8.068,8.068,0,0,1-.162,1.521,9.537,9.537,0,0,1-.486,1.665,13.316,13.316,0,0,1-1.341,2.682,8.446,8.446,0,0,1-1.485,1.764,2.064,2.064,0,0,1-1.17.612A1.672,1.672,0,0,1,104.5,19a4.929,4.929,0,0,1-.936-1.728,6.842,6.842,0,0,1-.351-2.16,6.041,6.041,0,0,1,1.053-3.51A7.035,7.035,0,0,1,107,9.246,7.837,7.837,0,0,1,110.506,8.418Zm-.72,1.98a4.656,4.656,0,0,0-.2-1.368A5.986,5.986,0,0,0,107,10a5.878,5.878,0,0,0-1.89,2.043,5.549,5.549,0,0,0-.7,2.763,5.068,5.068,0,0,0,.261,1.737,2.985,2.985,0,0,0,.594,1.053q.333.342.531.342a1.623,1.623,0,0,0,1.035-.648,10.87,10.87,0,0,0,1.161-1.512A12.325,12.325,0,0,0,109.372,13,8.335,8.335,0,0,0,109.786,10.4ZM58.558,33.228q.054-.072.153-.216a1.588,1.588,0,0,1,.171-.216.207.207,0,0,1,.144-.072,1.187,1.187,0,0,1,.459.261,5.348,5.348,0,0,1,.648.567q.3.306.3.432-.054.288-.432.288H56.434V35.8h2.358l.378-.54q.054-.072.162-.225a1.842,1.842,0,0,1,.189-.234.227.227,0,0,1,.153-.081,1.213,1.213,0,0,1,.468.279,5.807,5.807,0,0,1,.666.6q.306.324.306.45-.054.288-.45.288h-9.09l.216.2q-.072.288-.45.288H48.928v.954a5.185,5.185,0,0,1,1.827,1.278,2.116,2.116,0,0,1,.585,1.314.815.815,0,0,1-.18.54.545.545,0,0,1-.432.216.783.783,0,0,1-.54-.234,6.944,6.944,0,0,0-1.26-2.61v3.4q.036,2.232.144,4.23a1.049,1.049,0,0,1-.459.378,1.578,1.578,0,0,1-.729.18.446.446,0,0,1-.315-.108.333.333,0,0,1-.117-.252q.126-1.818.162-4V39.942a14.466,14.466,0,0,1-2.646,3.87l-.252-.216a15.914,15.914,0,0,0,1.512-3.123,25.04,25.04,0,0,0,1.026-3.645h-.72a3.844,3.844,0,0,0-1.224.252l-.468-.936a18.122,18.122,0,0,0,1.872.144h.9V33.48a23.548,23.548,0,0,0-.234-3.69,12.563,12.563,0,0,1,1.539.468q.423.18.423.306,0,.072-.126.162l-.288.2v5.364h.612l.792-1.08,1.044.936-.09-.342H55.12v-1.53H54.076a8.629,8.629,0,0,0-1.836.252l-.468-.936q.936.108,2.268.144h1.08V32.346H51.9l-.09-.414a.914.914,0,0,1-.414.09,17.129,17.129,0,0,1-1.818,3.312l-.288-.126.144-.522a16.129,16.129,0,0,0,.387-1.944,13.335,13.335,0,0,0,.153-1.818l2.07.738a.379.379,0,0,1-.108.162H55.12a15.413,15.413,0,0,0-.108-1.962q1.89.5,1.89.774,0,.09-.162.18l-.306.2v.81H58.4l.36-.54a2.831,2.831,0,0,1,.171-.243q.117-.153.189-.234a.2.2,0,0,1,.144-.081,1.165,1.165,0,0,1,.459.279,6.262,6.262,0,0,1,.657.6q.306.324.306.45-.054.288-.432.288H56.434v1.386h1.782Zm-13.1-1.962a5.609,5.609,0,0,1,1.161,1.539,3.252,3.252,0,0,1,.369,1.4,1.441,1.441,0,0,1-.189.783.555.555,0,0,1-.477.3.749.749,0,0,1-.522-.288,11.652,11.652,0,0,0-.558-3.654ZM53.7,43.74l.018.666q.018.756.072,1.458a.81.81,0,0,1-.423.378,1.578,1.578,0,0,1-.729.18.366.366,0,0,1-.27-.108.345.345,0,0,1-.108-.252q.126-1.548.162-3.438V40.716a23.548,23.548,0,0,0-.234-3.69l1.6.738h4.248l.288-.4q.054-.072.189-.243t.243-.171a1.345,1.345,0,0,1,.486.261,6.514,6.514,0,0,1,.7.558q.324.3.324.423a.891.891,0,0,1-.288.207,1.935,1.935,0,0,1-.432.153V44.64a2.633,2.633,0,0,1-.135.927,1.124,1.124,0,0,1-.558.576,3.58,3.58,0,0,1-1.251.315,4.178,4.178,0,0,0-.126-.594.812.812,0,0,0-.234-.378A2.458,2.458,0,0,0,55.858,45v-.27q1.62.108,1.98.108a.419.419,0,0,0,.3-.081.358.358,0,0,0,.081-.261V42.624H53.7Zm4.518-3.852v-1.6H53.7v1.6ZM53.7,40.41v1.71h4.518V40.41ZM80,33.48a.645.645,0,0,1-.243.2,1.278,1.278,0,0,1-.369.126V37.3q.036,2.232.144,4.23a1.432,1.432,0,0,1-.54.342,1.885,1.885,0,0,1-.738.18q-.288,0-.288-.36,0-.036.072-.45v-.414H75.676v1.692q.054,2.124.126,3.276a1.125,1.125,0,0,1-.486.423,1.532,1.532,0,0,1-.738.207.389.389,0,0,1-.288-.108.345.345,0,0,1-.108-.252q.108-1.674.144-3.366V40.824h-2.3v.342q.018.2.027.351a1.341,1.341,0,0,0,.027.225q-.036.2-.387.369a1.645,1.645,0,0,1-.729.171.366.366,0,0,1-.27-.108.345.345,0,0,1-.108-.252q.126-1.71.162-3.78v-2.07q0-1.152-.072-2.07a1.582,1.582,0,0,1-.72.18,17.064,17.064,0,0,1-1.908,2.79,4.081,4.081,0,0,1,1.719.954,1.651,1.651,0,0,1,.549,1.1.734.734,0,0,1-.162.495.5.5,0,0,1-.4.189.788.788,0,0,1-.486-.18,3.774,3.774,0,0,0-.477-1.044,7.944,7.944,0,0,0-.8-1.062v4.23q.036,2.232.144,4.23a1.493,1.493,0,0,1-.477.387,1.523,1.523,0,0,1-.765.189.489.489,0,0,1-.315-.108.317.317,0,0,1-.135-.252q.072-1.062.126-2.061t.072-2.619V38.466A17.445,17.445,0,0,1,63.9,40.68l-.2-.2a17.7,17.7,0,0,0,2.718-3.06,18.206,18.206,0,0,0,2.016-3.51H67.054a15.456,15.456,0,0,0-2.52.252l-.468-.936a15.847,15.847,0,0,0,1.764.144h.81a24.39,24.39,0,0,0-.216-3.564q2,.5,2,.774,0,.072-.162.162l-.306.2v2.43h.594l.4-.414a2.794,2.794,0,0,0,.252-.243.437.437,0,0,1,.27-.171q.126,0,.576.468a4.144,4.144,0,0,1,.63.792,13.414,13.414,0,0,0-.162-1.422l1.6.72h2.214a21.233,21.233,0,0,0-.2-3.276,13.743,13.743,0,0,1,1.557.495q.441.189.441.315,0,.09-.144.18l-.306.2V33.1H77.89l.306-.378q.036-.054.126-.171a.907.907,0,0,1,.162-.171.239.239,0,0,1,.144-.054,1.181,1.181,0,0,1,.45.234,4.792,4.792,0,0,1,.63.513Q80,33.354,80,33.48Zm-7.974,3.15h2.3V33.624h-2.3Zm3.654,0h2.358V33.624H75.676ZM72.022,40.3h2.3V37.134h-2.3Zm3.654,0h2.358V37.134H75.676Z" transform="translate(28 884)" fill="#222"/>
  </g>
</svg>
