<svg id="Group_2823" data-name="Group 2823" xmlns="http://www.w3.org/2000/svg" width="273.938" height="84.168" viewBox="0 0 273.938 84.168">
  <path id="Path_22973" data-name="Path 22973" d="M-115.736-14.28q.136-.17.357-.493a3.486,3.486,0,0,1,.374-.476.429.429,0,0,1,.289-.153,2.637,2.637,0,0,1,.952.561,14.4,14.4,0,0,1,1.411,1.207q.663.646.663.884-.136.544-.884.544h-22a34.451,34.451,0,0,0-5.1.476l-.918-1.734q1.87.2,4.522.272h8.4v-4.046h-3.842a34.452,34.452,0,0,0-5.1.476l-.85-1.734q1.87.2,4.522.272h5.27v-3.842h-5.542a34.451,34.451,0,0,0-5.1.476l-.85-1.734q1.87.2,4.522.272h10.846a23.641,23.641,0,0,0,1.241-3.026,21.816,21.816,0,0,0,.8-2.958q3.74,1.292,3.74,1.734,0,.1-.306.238l-.612.2a31.073,31.073,0,0,1-3.876,3.808h5.338l.782-1.088q.136-.17.357-.493a3.485,3.485,0,0,1,.374-.476.429.429,0,0,1,.289-.153,2.637,2.637,0,0,1,.952.561,12.991,12.991,0,0,1,1.394,1.207q.646.646.646.884-.034.544-.85.544H-124.95v3.842h5.984l.714-1.02q.17-.2.34-.442a4.647,4.647,0,0,1,.34-.425.458.458,0,0,1,.306-.187,2.484,2.484,0,0,1,.918.527A12.957,12.957,0,0,1-115-18.632q.629.612.629.85-.136.544-.85.544h-9.724v4.046h8.432Zm-17.85-14.178a7.546,7.546,0,0,1,3.519,1.615,3.031,3.031,0,0,1,1.139,2.159,1.716,1.716,0,0,1-.408,1.156,1.255,1.255,0,0,1-.986.476,1.881,1.881,0,0,1-1.054-.408,6.867,6.867,0,0,0-.867-2.482,10.7,10.7,0,0,0-1.649-2.278ZM-115.26-8.806q.17-.2.357-.459a5.44,5.44,0,0,1,.374-.459.5.5,0,0,1,.323-.2,2.717,2.717,0,0,1,.969.578,16.8,16.8,0,0,1,1.445,1.224q.68.646.68.884-.136.544-.85.544H-124.61a10.864,10.864,0,0,0,5.2,4.437A29.1,29.1,0,0,0-110.84-.272l-.034.374A2.708,2.708,0,0,0-112.2,1a3.451,3.451,0,0,0-.714,1.615,21.144,21.144,0,0,1-7.956-3.2,12.832,12.832,0,0,1-4.488-6.12h-.476a9.882,9.882,0,0,1-2.108,4.063,12.681,12.681,0,0,1-4.641,3.06A42.616,42.616,0,0,1-141.1,2.788l-.2-.646a36.333,36.333,0,0,0,6.7-2.465,12.887,12.887,0,0,0,3.893-2.856A9.293,9.293,0,0,0-128.792-6.7h-6.494a34.452,34.452,0,0,0-5.1.476l-.918-1.734q1.87.2,4.522.272h8.228a11.38,11.38,0,0,0,.238-2.482,12.983,12.983,0,0,0-.1-1.734q3.978.34,3.978.782,0,.136-.272.306l-.544.374q-.2,1.836-.374,2.754h9.588ZM-90.746.714q-4.08,0-5.763-2.4t-1.683-7.259q0-3.094.442-7.514a38.983,38.983,0,0,0,.306-4.012,7.932,7.932,0,0,0-.357-2.584,2.9,2.9,0,0,0-1.241-1.564q-.306-.17-.306-.34,0-.238.459-.34a4.457,4.457,0,0,1,.969-.1,3.022,3.022,0,0,1,2.584,1,4.547,4.547,0,0,1,.748,2.771,19.313,19.313,0,0,1-.238,2.6q-.238,1.649-.272,1.955a5.8,5.8,0,0,0-.136.782,47.577,47.577,0,0,0-.68,7.378,12.588,12.588,0,0,0,.578,4.267,3.946,3.946,0,0,0,1.887,2.227,7.771,7.771,0,0,0,3.553.68q4.488,0,10.948-5.1.1-.068.323-.221a.7.7,0,0,1,.357-.153q.1,0,.1.136a1.412,1.412,0,0,1-.408.68Q-84.762.714-90.746.714ZM-57.664-.918a4.514,4.514,0,0,1-1.87-.544,11.321,11.321,0,0,1-2.414-1.666q-3.4-2.992-3.4-9.01a28.776,28.776,0,0,1,.306-3.638,18.347,18.347,0,0,0,.2-2.04,4.686,4.686,0,0,0-.306-1.751,3.553,3.553,0,0,0-1.02-1.377q-.272-.238-.272-.306,0-.1.2-.17a1.39,1.39,0,0,1,.442-.068,3.983,3.983,0,0,1,1.734.425,3.939,3.939,0,0,1,1.445,1.156,2.5,2.5,0,0,1,.561,1.547,11.248,11.248,0,0,1-.408,2.244q-.374,1.666-.544,2.652a11.989,11.989,0,0,0-.17,2.04,8.161,8.161,0,0,0,.629,3.2,7.753,7.753,0,0,0,1.5,2.4,2.363,2.363,0,0,0,1.547.9q.442,0,.578-.646a31.807,31.807,0,0,1,1.292-4.25q.068-.1.221-.374t.289-.272q.1,0,.1.2a2.029,2.029,0,0,1-.1.646,17.419,17.419,0,0,0-.374,3.162,7.743,7.743,0,0,0,.2,1.87,6.35,6.35,0,0,0,.442,1.224,2.952,2.952,0,0,1,.374,1.258,1.172,1.172,0,0,1-.323.867A1.172,1.172,0,0,1-57.664-.918Zm14.416-8.7A1.367,1.367,0,0,1-44.285-10a2.291,2.291,0,0,1-.527-1.02q-1.122-4.318-2.958-5.27a4.768,4.768,0,0,0-2.176-.408h-.578q-.306,0-.306-.17t.374-.306a6.837,6.837,0,0,1,2.176-.34,6.279,6.279,0,0,1,4.25,1.6,6.808,6.808,0,0,1,1.785,2.346,5.329,5.329,0,0,1,.527,1.972,2.288,2.288,0,0,1-.425,1.394A1.312,1.312,0,0,1-43.248-9.622Zm26.078-5.2a14.249,14.249,0,0,1,5.78,4.182A8.787,8.787,0,0,1-9.316-5.1a6.067,6.067,0,0,1-1.1,3.621A7.036,7.036,0,0,1-13.277.867a8.785,8.785,0,0,1-3.689.8A5.518,5.518,0,0,1-21.811-.476a9.714,9.714,0,0,1-1.513-5.712q0-1.326.034-1.972a5.7,5.7,0,0,1-1.921-1.122,2.116,2.116,0,0,1-.731-1.6q0-2.006,3.4-4.862.306-1.836.612-3.366A12.53,12.53,0,0,1-25.6-21.42a1.648,1.648,0,0,0-.2-.238.373.373,0,0,1-.136-.238.18.18,0,0,1,.2-.2,1.324,1.324,0,0,1,.476.17,10.723,10.723,0,0,0,1.564.476q.884.2,1.411.306t.731.136a21.3,21.3,0,0,0,.408-3.4,5.836,5.836,0,0,0-.34-2.04,3.408,3.408,0,0,0-.629-1l-.391-.391a.469.469,0,0,1-.17-.306q0-.238.476-.238a3.266,3.266,0,0,1,1.088.238,4.109,4.109,0,0,1,1.156.646,3.048,3.048,0,0,1,1.326,2.414,6.041,6.041,0,0,1-.578,2.244q-.714,1.768-.85,2.108a14.038,14.038,0,0,1,2.108.544,2.145,2.145,0,0,1,1.071.816,1.971,1.971,0,0,1,.357,1.088,1.139,1.139,0,0,1-.34.867,1.517,1.517,0,0,1-.884.391,8.135,8.135,0,0,0-3.536,1.156,54.689,54.689,0,0,0-.816,5.814l.408.034q.68.068,2.652.068,2.21,0,2.21,1.428,0,1.156-2.074,1.156a13.938,13.938,0,0,1-3.3-.442v.238a10.837,10.837,0,0,0,1.071,5.253A4.03,4.03,0,0,0-17.272-.408a4.989,4.989,0,0,0,3.723-1.513A5.47,5.47,0,0,0-12.07-5.916a8.156,8.156,0,0,0-1.5-4.488A15.5,15.5,0,0,0-17.51-14.45q-.408-.272-.408-.442,0-.1.17-.1A4.01,4.01,0,0,1-17.17-14.824Zm-2.55-3.264q0-.136-.2-.238a3.116,3.116,0,0,0-.408-.17q-.2-.068-.34-.1-.238,1.02-.374,1.7.646-.442.986-.731T-19.72-18.088Zm-5.066,6.426q0,.952,1.6,1.36.2-2.414.51-4.556a8.337,8.337,0,0,0-1.53,1.683A2.858,2.858,0,0,0-24.786-11.662ZM18.6-23.766a15.159,15.159,0,0,1,5.814,1.19,11.263,11.263,0,0,1,4.828,3.808A10.9,10.9,0,0,1,31.178-12.1,10.149,10.149,0,0,1,28.22-4.369,15.432,15.432,0,0,1,21.505-.561a26.661,26.661,0,0,1-6.817,1,1.819,1.819,0,0,1-.442-.051q-.2-.051-.2-.119,0-.136.442-.255a8.187,8.187,0,0,1,.884-.187A19.435,19.435,0,0,0,24.7-4.1a10.01,10.01,0,0,0,3.621-8.177,10.586,10.586,0,0,0-1.6-6.1,9.018,9.018,0,0,0-3.91-3.315,11.629,11.629,0,0,0-4.59-.986,6.244,6.244,0,0,0-.782.034,10.3,10.3,0,0,1,.68,2.176,11.616,11.616,0,0,1,.272,2.38,15.239,15.239,0,0,1-.306,2.873,18.015,18.015,0,0,1-.918,3.145A25.152,25.152,0,0,1,14.637-7a15.954,15.954,0,0,1-2.805,3.332,3.9,3.9,0,0,1-2.21,1.156A3.158,3.158,0,0,1,7.259-3.774,9.309,9.309,0,0,1,5.491-7.038a12.923,12.923,0,0,1-.663-4.08,11.411,11.411,0,0,1,1.989-6.63A13.288,13.288,0,0,1,11.985-22.2,14.8,14.8,0,0,1,18.6-23.766Zm-1.36,3.74a8.8,8.8,0,0,0-.374-2.584,11.307,11.307,0,0,0-4.9,1.836A11.1,11.1,0,0,0,8.4-16.915,10.481,10.481,0,0,0,7.072-11.7a9.572,9.572,0,0,0,.493,3.281A5.637,5.637,0,0,0,8.687-6.426q.629.646,1,.646A3.065,3.065,0,0,0,11.645-7,20.533,20.533,0,0,0,13.838-9.86a23.282,23.282,0,0,0,2.618-5.253A15.743,15.743,0,0,0,17.238-20.026Zm52.19-1.394A1.722,1.722,0,0,1,68.2-22a11.058,11.058,0,0,0-1.479-1.241,5.715,5.715,0,0,0-1.513-.663,4.716,4.716,0,0,0-.561-.153,2.464,2.464,0,0,1-.425-.119q-.17-.068-.17-.17,0-.272.816-.442a7.823,7.823,0,0,1,1.6-.17,6.032,6.032,0,0,1,2.856.646,1.962,1.962,0,0,1,1.224,1.768,1.021,1.021,0,0,1-.357.816A1.156,1.156,0,0,1,69.428-21.42Zm-3.264,3.264a1.429,1.429,0,0,1-1.19-.646A8.093,8.093,0,0,0,63.58-20.2a6.019,6.019,0,0,0-1.7-.884q-.136-.034-.408-.119a1.458,1.458,0,0,1-.391-.17.236.236,0,0,1-.119-.187q0-.2.646-.357a5.589,5.589,0,0,1,1.292-.153,7.34,7.34,0,0,1,3.2.68,2.137,2.137,0,0,1,1.428,1.972,1.162,1.162,0,0,1-.408.884A1.365,1.365,0,0,1,66.164-18.156ZM49.436-.034q-.51,0-.51-.272t.476-.34a21.269,21.269,0,0,0,7.48-2.091,15.119,15.119,0,0,0,5.3-4.182A8.365,8.365,0,0,0,64.124-12.1a6.041,6.041,0,0,0-.833-3.247,5.433,5.433,0,0,0-2.159-2.023,6.029,6.029,0,0,0-2.788-.68,9.554,9.554,0,0,0-4.216,1.088,23.2,23.2,0,0,0-3.536,2.074q-1.326.986-2.822,2.21-.17.136-.918.748A9.46,9.46,0,0,1,45.3-10.9a3.133,3.133,0,0,1-1.445.425,3.552,3.552,0,0,1-2.006-.7,8.584,8.584,0,0,1-1.666-1.445q-.51-.476-.51-.748,0-.17.085-.221a.7.7,0,0,1,.323-.051,8.729,8.729,0,0,1,.918.1,8.55,8.55,0,0,0,1.156.1,4.652,4.652,0,0,0,2.04-.493q1.02-.493,2.788-1.581,1.9-1.156,3.332-1.9A17.408,17.408,0,0,1,53.686-18.7a15.555,15.555,0,0,1,4.216-.544,9.59,9.59,0,0,1,4.437,1.054,8.354,8.354,0,0,1,3.281,2.958,7.812,7.812,0,0,1,1.224,4.318A9.15,9.15,0,0,1,65.7-6.834q-1.139,2.244-5,4.3T49.436-.034Zm42.4,1.7a1.514,1.514,0,0,1-1.326-.85,11.252,11.252,0,0,1-.986-2.38,40.223,40.223,0,0,0-1.768-4.777,29.311,29.311,0,0,0-1.87-3.247q-1.02-1.564-1.377-2.227a2.689,2.689,0,0,1-.357-1.275,3.294,3.294,0,0,1,.323-1.309,12.962,12.962,0,0,1,1.1-1.887,57.707,57.707,0,0,0,4.08-7.48,3.993,3.993,0,0,0,.306-1.326,1.554,1.554,0,0,0-.646-1.326,3.007,3.007,0,0,0-.527-.391q-.357-.221-.357-.357,0-.238.68-.238a4.88,4.88,0,0,1,1.513.306,7.457,7.457,0,0,1,1.683.816,1.931,1.931,0,0,1,.918,1.632,2.79,2.79,0,0,1-.272,1.122,11.08,11.08,0,0,1-1.088,1.955q-.612.867-1.972,2.431-2.244,2.55-4.012,5a1.666,1.666,0,0,0-.374,1.054,1.462,1.462,0,0,0,.476,1.054A45.264,45.264,0,0,1,90.848-6,11.091,11.091,0,0,1,93.092.068a1.991,1.991,0,0,1-.306,1.156A1.077,1.077,0,0,1,91.834,1.666ZM127.466-21.76a3.65,3.65,0,0,1,2.448,1.071,7.771,7.771,0,0,1,1.955,3.111,13.42,13.42,0,0,1,.765,4.726q0,11.322-10.336,14.382a1.366,1.366,0,0,1-.544.136q-.272,0-.272-.238a.287.287,0,0,1,.17-.238,11.515,11.515,0,0,0,6.341-5.712,18.834,18.834,0,0,0,1.819-8.16,16,16,0,0,0-.8-5.406q-.8-2.21-2.227-2.21A2.8,2.8,0,0,0,124.61-18.9a11.974,11.974,0,0,0-1.649,3.247,9.982,9.982,0,0,0-.629,3.077,3.31,3.31,0,0,0,.2,1.139,11.922,11.922,0,0,0,.544,1.241q.238.476.425.952a2.362,2.362,0,0,1,.187.85.935.935,0,0,1-.289.714.981.981,0,0,1-.7.272,2.107,2.107,0,0,1-1.649-.816,5.618,5.618,0,0,1-1.071-2.057,8.4,8.4,0,0,1-.374-2.431,18.574,18.574,0,0,1,.34-3.315q.34-1.853.952-4.335a26.545,26.545,0,0,0,.816-4.454,2.049,2.049,0,0,0-.544-1.462,6.657,6.657,0,0,0-.51-.459q-.272-.221-.272-.391t.272-.306a1.6,1.6,0,0,1,.714-.136,2.053,2.053,0,0,1,1.717.884,3.523,3.523,0,0,1,.663,2.176,9.077,9.077,0,0,1-.255,2.142q-.255,1.054-.765,2.55l-.476,1.5a13.317,13.317,0,0,0-.374,1.972,15.33,15.33,0,0,1,2.448-4.029A4.064,4.064,0,0,1,127.466-21.76Z" transform="translate(141.304 29.036)" fill="#78c3de"/>
  <path id="Path_22974" data-name="Path 22974" d="M13.65-11.336a10.9,10.9,0,0,1,4.42,3.2A6.719,6.719,0,0,1,19.656-3.9a4.64,4.64,0,0,1-.845,2.769A5.381,5.381,0,0,1,16.627.663a6.718,6.718,0,0,1-2.821.611A4.22,4.22,0,0,1,10.1-.364,7.428,7.428,0,0,1,8.944-4.732q0-1.014.026-1.508A4.356,4.356,0,0,1,7.5-7.1,1.618,1.618,0,0,1,6.942-8.32q0-1.534,2.6-3.718.234-1.4.468-2.574A9.582,9.582,0,0,1,7.2-16.38a1.26,1.26,0,0,0-.156-.182.285.285,0,0,1-.1-.182A.138.138,0,0,1,7.1-16.9a1.013,1.013,0,0,1,.364.13,8.2,8.2,0,0,0,1.2.364q.676.156,1.079.234t.559.1a16.285,16.285,0,0,0,.312-2.6,4.463,4.463,0,0,0-.26-1.56A2.606,2.606,0,0,0,9.867-21l-.3-.3a.359.359,0,0,1-.13-.234q0-.182.364-.182a2.5,2.5,0,0,1,.832.182,3.142,3.142,0,0,1,.884.494,2.331,2.331,0,0,1,1.014,1.846,4.62,4.62,0,0,1-.442,1.716q-.546,1.352-.65,1.612a10.735,10.735,0,0,1,1.612.416,1.64,1.64,0,0,1,.819.624,1.507,1.507,0,0,1,.273.832.871.871,0,0,1-.26.663,1.16,1.16,0,0,1-.676.3,6.221,6.221,0,0,0-2.7.884A41.821,41.821,0,0,0,9.88-7.7l.312.026q.52.052,2.028.052,1.69,0,1.69,1.092,0,.884-1.586.884A10.659,10.659,0,0,1,9.8-5.98V-5.8a8.287,8.287,0,0,0,.819,4.017A3.082,3.082,0,0,0,13.572-.312a3.815,3.815,0,0,0,2.847-1.157A4.183,4.183,0,0,0,17.55-4.524a6.237,6.237,0,0,0-1.144-3.432A11.854,11.854,0,0,0,13.39-11.05q-.312-.208-.312-.338,0-.078.13-.078A3.067,3.067,0,0,1,13.65-11.336Zm-1.95-2.5q0-.1-.156-.182a2.383,2.383,0,0,0-.312-.13q-.156-.052-.26-.078-.182.78-.286,1.3.494-.338.754-.559T11.7-13.832ZM7.826-8.918q0,.728,1.222,1.04.156-1.846.39-3.484a6.375,6.375,0,0,0-1.17,1.287A2.186,2.186,0,0,0,7.826-8.918ZM41-18.174a11.592,11.592,0,0,1,4.446.91,8.613,8.613,0,0,1,3.692,2.912,8.338,8.338,0,0,1,1.482,5.1A7.761,7.761,0,0,1,48.36-3.341,11.8,11.8,0,0,1,43.225-.429a20.388,20.388,0,0,1-5.213.767A1.391,1.391,0,0,1,37.674.3Q37.518.26,37.518.208q0-.1.338-.2a6.261,6.261,0,0,1,.676-.143,14.862,14.862,0,0,0,7.137-3,7.655,7.655,0,0,0,2.769-6.253,8.1,8.1,0,0,0-1.222-4.667,6.9,6.9,0,0,0-2.99-2.535,8.893,8.893,0,0,0-3.51-.754,4.775,4.775,0,0,0-.6.026,7.879,7.879,0,0,1,.52,1.664,8.883,8.883,0,0,1,.208,1.82,11.653,11.653,0,0,1-.234,2.2,13.776,13.776,0,0,1-.7,2.405,19.234,19.234,0,0,1-1.937,3.874,12.2,12.2,0,0,1-2.145,2.548,2.981,2.981,0,0,1-1.69.884,2.415,2.415,0,0,1-1.807-.962,7.119,7.119,0,0,1-1.352-2.5,9.882,9.882,0,0,1-.507-3.12,8.726,8.726,0,0,1,1.521-5.07,10.161,10.161,0,0,1,3.952-3.406A11.32,11.32,0,0,1,41-18.174Zm-1.04,2.86a6.725,6.725,0,0,0-.286-1.976,8.647,8.647,0,0,0-3.744,1.4,8.49,8.49,0,0,0-2.73,2.951,8.015,8.015,0,0,0-1.014,3.991,7.32,7.32,0,0,0,.377,2.509,4.311,4.311,0,0,0,.858,1.521q.481.494.767.494a2.344,2.344,0,0,0,1.495-.936A15.7,15.7,0,0,0,37.362-7.54a17.8,17.8,0,0,0,2-4.017A12.039,12.039,0,0,0,39.962-15.314Zm39.91-1.066a1.317,1.317,0,0,1-.936-.442,8.456,8.456,0,0,0-1.131-.949,4.371,4.371,0,0,0-1.157-.507,3.606,3.606,0,0,0-.429-.117,1.885,1.885,0,0,1-.325-.091q-.13-.052-.13-.13,0-.208.624-.338a5.982,5.982,0,0,1,1.222-.13,4.613,4.613,0,0,1,2.184.494,1.5,1.5,0,0,1,.936,1.352.781.781,0,0,1-.273.624A.884.884,0,0,1,79.872-16.38Zm-2.5,2.5a1.093,1.093,0,0,1-.91-.494A6.189,6.189,0,0,0,75.4-15.444a4.6,4.6,0,0,0-1.3-.676q-.1-.026-.312-.091a1.115,1.115,0,0,1-.3-.13.18.18,0,0,1-.091-.143q0-.156.494-.273a4.274,4.274,0,0,1,.988-.117,5.613,5.613,0,0,1,2.444.52,1.634,1.634,0,0,1,1.092,1.508.888.888,0,0,1-.312.676A1.043,1.043,0,0,1,77.376-13.884ZM64.584-.026q-.39,0-.39-.208t.364-.26a16.264,16.264,0,0,0,5.72-1.6,11.561,11.561,0,0,0,4.056-3.2,6.4,6.4,0,0,0,1.482-3.965,4.62,4.62,0,0,0-.637-2.483,4.155,4.155,0,0,0-1.651-1.547,4.611,4.611,0,0,0-2.132-.52,7.306,7.306,0,0,0-3.224.832,17.744,17.744,0,0,0-2.7,1.586q-1.014.754-2.158,1.69-.13.1-.7.572a7.234,7.234,0,0,1-1.183.793,2.4,2.4,0,0,1-1.1.325,2.716,2.716,0,0,1-1.534-.533,6.564,6.564,0,0,1-1.274-1.1q-.39-.364-.39-.572,0-.13.065-.169a.532.532,0,0,1,.247-.039,6.675,6.675,0,0,1,.7.078,6.539,6.539,0,0,0,.884.078,3.558,3.558,0,0,0,1.56-.377q.78-.377,2.132-1.209,1.456-.884,2.548-1.456a13.312,13.312,0,0,1,2.574-.988,11.9,11.9,0,0,1,3.224-.416,7.333,7.333,0,0,1,3.393.806,6.388,6.388,0,0,1,2.509,2.262,5.974,5.974,0,0,1,.936,3.3,7,7,0,0,1-.871,3.12A8.68,8.68,0,0,1,73.2-1.937,21.56,21.56,0,0,1,64.584-.026Zm32.422,1.3a1.157,1.157,0,0,1-1.014-.65,8.6,8.6,0,0,1-.754-1.82,30.759,30.759,0,0,0-1.352-3.653,22.416,22.416,0,0,0-1.43-2.483q-.78-1.2-1.053-1.7a2.057,2.057,0,0,1-.273-.975,2.519,2.519,0,0,1,.247-1,9.912,9.912,0,0,1,.845-1.443,44.128,44.128,0,0,0,3.12-5.72,3.054,3.054,0,0,0,.234-1.014,1.188,1.188,0,0,0-.494-1.014,2.3,2.3,0,0,0-.4-.3q-.273-.169-.273-.273,0-.182.52-.182a3.732,3.732,0,0,1,1.157.234,5.7,5.7,0,0,1,1.287.624,1.477,1.477,0,0,1,.7,1.248,2.133,2.133,0,0,1-.208.858,8.472,8.472,0,0,1-.832,1.495q-.468.663-1.508,1.859-1.716,1.95-3.068,3.822a1.274,1.274,0,0,0-.286.806,1.118,1.118,0,0,0,.364.806,34.613,34.613,0,0,1,3.718,4.615A8.482,8.482,0,0,1,97.968.052a1.523,1.523,0,0,1-.234.884A.824.824,0,0,1,97.006,1.274ZM124.254-16.64a2.792,2.792,0,0,1,1.872.819,5.943,5.943,0,0,1,1.5,2.379,10.262,10.262,0,0,1,.585,3.614q0,8.658-7.9,11a1.044,1.044,0,0,1-.416.1q-.208,0-.208-.182a.219.219,0,0,1,.13-.182,8.805,8.805,0,0,0,4.849-4.368,14.4,14.4,0,0,0,1.391-6.24,12.233,12.233,0,0,0-.611-4.134q-.611-1.69-1.7-1.69a2.139,2.139,0,0,0-1.664,1.066,9.157,9.157,0,0,0-1.261,2.483,7.633,7.633,0,0,0-.481,2.353,2.531,2.531,0,0,0,.156.871,9.118,9.118,0,0,0,.416.949q.182.364.325.728a1.806,1.806,0,0,1,.143.65.715.715,0,0,1-.221.546.75.75,0,0,1-.533.208,1.612,1.612,0,0,1-1.261-.624,4.3,4.3,0,0,1-.819-1.573,6.423,6.423,0,0,1-.286-1.859,14.2,14.2,0,0,1,.26-2.535q.26-1.417.728-3.315a20.3,20.3,0,0,0,.624-3.406,1.567,1.567,0,0,0-.416-1.118,5.091,5.091,0,0,0-.39-.351q-.208-.169-.208-.3t.208-.234a1.226,1.226,0,0,1,.546-.1,1.57,1.57,0,0,1,1.313.676,2.694,2.694,0,0,1,.507,1.664,6.941,6.941,0,0,1-.195,1.638q-.195.806-.585,1.95l-.364,1.144a10.182,10.182,0,0,0-.286,1.508,11.723,11.723,0,0,1,1.872-3.081A3.108,3.108,0,0,1,124.254-16.64Zm26.988-1.534a11.592,11.592,0,0,1,4.446.91,8.613,8.613,0,0,1,3.692,2.912,8.338,8.338,0,0,1,1.482,5.1A7.761,7.761,0,0,1,158.6-3.341a11.8,11.8,0,0,1-5.135,2.912,20.388,20.388,0,0,1-5.213.767A1.391,1.391,0,0,1,147.914.3q-.156-.039-.156-.091,0-.1.338-.2a6.261,6.261,0,0,1,.676-.143,14.862,14.862,0,0,0,7.137-3,7.655,7.655,0,0,0,2.769-6.253,8.1,8.1,0,0,0-1.222-4.667,6.9,6.9,0,0,0-2.99-2.535,8.893,8.893,0,0,0-3.51-.754,4.775,4.775,0,0,0-.6.026,7.88,7.88,0,0,1,.52,1.664,8.883,8.883,0,0,1,.208,1.82,11.654,11.654,0,0,1-.234,2.2,13.777,13.777,0,0,1-.7,2.405,19.234,19.234,0,0,1-1.937,3.874,12.2,12.2,0,0,1-2.145,2.548,2.981,2.981,0,0,1-1.69.884,2.415,2.415,0,0,1-1.807-.962,7.119,7.119,0,0,1-1.352-2.5,9.883,9.883,0,0,1-.507-3.12,8.726,8.726,0,0,1,1.521-5.07,10.161,10.161,0,0,1,3.952-3.406A11.32,11.32,0,0,1,151.242-18.174Zm-1.04,2.86a6.726,6.726,0,0,0-.286-1.976,8.647,8.647,0,0,0-3.744,1.4,8.49,8.49,0,0,0-2.73,2.951,8.015,8.015,0,0,0-1.014,3.991,7.32,7.32,0,0,0,.377,2.509,4.311,4.311,0,0,0,.858,1.521q.481.494.767.494a2.344,2.344,0,0,0,1.495-.936A15.7,15.7,0,0,0,147.6-7.54a17.8,17.8,0,0,0,2-4.017A12.039,12.039,0,0,0,150.2-15.314ZM186.446-17q.078-.1.221-.312a2.293,2.293,0,0,1,.247-.312.3.3,0,0,1,.208-.1,1.714,1.714,0,0,1,.663.377,7.725,7.725,0,0,1,.936.819q.429.442.429.624-.078.416-.624.416h-5.148v2.21h3.406l.546-.78q.078-.1.234-.325a2.661,2.661,0,0,1,.273-.338.328.328,0,0,1,.221-.117,1.752,1.752,0,0,1,.676.4,8.387,8.387,0,0,1,.962.871q.442.468.442.65-.078.416-.65.416h-13.13l.312.286q-.1.416-.65.416h-3.484v1.378a7.489,7.489,0,0,1,2.639,1.846,3.056,3.056,0,0,1,.845,1.9,1.177,1.177,0,0,1-.26.78.787.787,0,0,1-.624.312,1.131,1.131,0,0,1-.78-.338,10.029,10.029,0,0,0-1.82-3.77v4.914q.052,3.224.208,6.11a1.515,1.515,0,0,1-.663.546,2.279,2.279,0,0,1-1.053.26.645.645,0,0,1-.455-.156.481.481,0,0,1-.169-.364q.182-2.626.234-5.772V-7.306a20.9,20.9,0,0,1-3.822,5.59l-.364-.312a22.988,22.988,0,0,0,2.184-4.511,36.168,36.168,0,0,0,1.482-5.265h-1.04a5.552,5.552,0,0,0-1.768.364l-.676-1.352a26.174,26.174,0,0,0,2.7.208h1.3V-16.64a34.015,34.015,0,0,0-.338-5.33,18.146,18.146,0,0,1,2.223.676q.611.26.611.442,0,.1-.182.234l-.416.286v7.748h.884l1.144-1.56,1.508,1.352-.13-.494h5.538V-15.5h-1.508a12.464,12.464,0,0,0-2.652.364l-.676-1.352q1.352.156,3.276.208h1.56v-2h-4.654l-.13-.6a1.32,1.32,0,0,1-.6.13,24.742,24.742,0,0,1-2.626,4.784l-.416-.182.208-.754a23.3,23.3,0,0,0,.559-2.808,19.261,19.261,0,0,0,.221-2.626l2.99,1.066a.547.547,0,0,1-.156.234h4.6a22.265,22.265,0,0,0-.156-2.834q2.73.728,2.73,1.118,0,.13-.234.26l-.442.286v1.17h2.834l.52-.78a4.089,4.089,0,0,1,.247-.351q.169-.221.273-.338a.288.288,0,0,1,.208-.117,1.682,1.682,0,0,1,.663.4,9.045,9.045,0,0,1,.949.871q.442.468.442.65-.078.416-.624.416h-5.512v2h2.574Zm-18.928-2.834a8.1,8.1,0,0,1,1.677,2.223,4.7,4.7,0,0,1,.533,2.015,2.081,2.081,0,0,1-.273,1.131.8.8,0,0,1-.689.429,1.082,1.082,0,0,1-.754-.416,16.83,16.83,0,0,0-.806-5.278ZM179.426-1.82l.026.962q.026,1.092.1,2.106a1.169,1.169,0,0,1-.611.546,2.28,2.28,0,0,1-1.053.26.529.529,0,0,1-.39-.156.5.5,0,0,1-.156-.364q.182-2.236.234-4.966V-6.188a34.015,34.015,0,0,0-.338-5.33l2.314,1.066h6.136l.416-.572q.078-.1.273-.351t.351-.247a1.943,1.943,0,0,1,.7.377,9.41,9.41,0,0,1,1.014.806q.468.429.468.611a1.287,1.287,0,0,1-.416.3,2.8,2.8,0,0,1-.624.221V-.52a3.8,3.8,0,0,1-.2,1.339,1.623,1.623,0,0,1-.806.832,5.172,5.172,0,0,1-1.807.455,6.033,6.033,0,0,0-.182-.858A1.173,1.173,0,0,0,184.548.7a3.55,3.55,0,0,0-2-.7V-.39q2.34.156,2.86.156a.605.605,0,0,0,.429-.117.517.517,0,0,0,.117-.377v-2.7h-6.526Zm6.526-5.564V-9.7h-6.526v2.314Zm-6.526.754v2.47h6.526V-6.63Zm37.986-10.01a.932.932,0,0,1-.351.286,1.846,1.846,0,0,1-.533.182v5.044q.052,3.224.208,6.11a2.068,2.068,0,0,1-.78.494,2.722,2.722,0,0,1-1.066.26q-.416,0-.416-.52,0-.052.1-.65v-.6h-3.406v2.444q.078,3.068.182,4.732a1.625,1.625,0,0,1-.7.611,2.212,2.212,0,0,1-1.066.3.562.562,0,0,1-.416-.156.5.5,0,0,1-.156-.364q.156-2.418.208-4.862v-2.7h-3.328v.494q.026.286.039.507a1.938,1.938,0,0,0,.039.325q-.052.286-.559.533a2.376,2.376,0,0,1-1.053.247.529.529,0,0,1-.39-.156.5.5,0,0,1-.156-.364q.182-2.47.234-5.46V-12.9q0-1.664-.1-2.99a2.285,2.285,0,0,1-1.04.26,24.648,24.648,0,0,1-2.756,4.03,5.9,5.9,0,0,1,2.483,1.378,2.384,2.384,0,0,1,.793,1.586,1.06,1.06,0,0,1-.234.715.726.726,0,0,1-.572.273,1.138,1.138,0,0,1-.7-.26,5.451,5.451,0,0,0-.689-1.508,11.475,11.475,0,0,0-1.157-1.534v6.11q.052,3.224.208,6.11a2.156,2.156,0,0,1-.689.559,2.2,2.2,0,0,1-1.105.273.707.707,0,0,1-.455-.156.457.457,0,0,1-.195-.364q.1-1.534.182-2.977t.1-3.783V-9.438a25.2,25.2,0,0,1-3.952,3.2l-.286-.286a25.564,25.564,0,0,0,3.926-4.42,26.3,26.3,0,0,0,2.912-5.07h-2a22.326,22.326,0,0,0-3.64.364L194.4-17a22.889,22.889,0,0,0,2.548.208h1.17a35.23,35.23,0,0,0-.312-5.148q2.886.728,2.886,1.118,0,.1-.234.234l-.442.286v3.51h.858l.572-.6a4.037,4.037,0,0,0,.364-.351.632.632,0,0,1,.39-.247q.182,0,.832.676a5.986,5.986,0,0,1,.91,1.144,19.375,19.375,0,0,0-.234-2.054l2.314,1.04h3.2a30.672,30.672,0,0,0-.286-4.732,19.852,19.852,0,0,1,2.249.715q.637.273.637.455,0,.13-.208.26l-.442.286v3.016h3.2l.442-.546q.052-.078.182-.247a1.309,1.309,0,0,1,.234-.247.346.346,0,0,1,.208-.078,1.706,1.706,0,0,1,.65.338,6.922,6.922,0,0,1,.91.741Q217.412-16.822,217.412-16.64Zm-11.518,4.55h3.328v-4.342h-3.328Zm5.278,0h3.406v-4.342h-3.406Zm-5.278,5.3h3.328v-4.576h-3.328Zm5.278,0h3.406v-4.576h-3.406Z" transform="translate(32.304 82.036)" fill="#222"/>
</svg>
