<svg xmlns="http://www.w3.org/2000/svg" width="22.616" height="22.616" viewBox="0 0 22.616 22.616">
  <path id="Path_2362" data-name="Path 2362" d="M1455.218,4461.926H1435.1a1.247,1.247,0,0,0-1.247,1.248v20.118a1.248,1.248,0,0,0,1.247,1.25h9.7v-7.555h-3.287v-3.806h3.287v-2.809a6.584,6.584,0,0,1,.2-1.671c0-.015.009-.029.014-.044.038-.142.082-.28.13-.413.039-.1.083-.2.128-.3.018-.042.035-.085.054-.126a4.34,4.34,0,0,1,.211-.385l.01-.019a4.2,4.2,0,0,1,.55-.709l.014-.016c.089-.091.184-.175.281-.258.022-.018.042-.039.064-.056.077-.063.159-.119.24-.176.049-.034.095-.071.145-.1s.109-.063.164-.1c.086-.049.169-.1.258-.142.016-.008.032-.014.048-.021a5.532,5.532,0,0,1,2.381-.494,26.679,26.679,0,0,1,2.937.152v3.4h-2.015c-1.579,0-1.887.752-1.887,1.854v2.431h3.77l-.491,3.806h-3.279v7.555h6.488a1.248,1.248,0,0,0,1.248-1.25v-20.118A1.247,1.247,0,0,0,1455.218,4461.926Z" transform="translate(-1433.85 -4461.926)"/>
</svg>