<svg id="Group_1511" data-name="Group 1511" xmlns="http://www.w3.org/2000/svg" width="22.616" height="23" viewBox="0 0 22.616 23">
  <path id="Path_2360" data-name="Path 2360" d="M1399.266,4461.621h-9.615a6.5,6.5,0,0,0-6.5,6.5v10a6.5,6.5,0,0,0,6.5,6.5h9.615a6.5,6.5,0,0,0,6.5-6.5v-10A6.5,6.5,0,0,0,1399.266,4461.621Zm-13.807,6.5a4.2,4.2,0,0,1,4.192-4.192h9.615a4.2,4.2,0,0,1,4.193,4.192v10a4.2,4.2,0,0,1-4.193,4.192h-9.615a4.2,4.2,0,0,1-4.192-4.192Z" transform="translate(-1383.15 -4461.621)"/>
  <path id="Path_2361" data-name="Path 2361" d="M1397.645,4482.345a5.923,5.923,0,1,0-5.923-5.923A5.931,5.931,0,0,0,1397.645,4482.345Zm0-10a4.077,4.077,0,1,1-4.076,4.078A4.082,4.082,0,0,1,1397.645,4472.344Z" transform="translate(-1386.337 -4464.921)"/>
  <circle id="Ellipse_2" data-name="Ellipse 2" cx="1.327" cy="1.327" r="1.327" transform="translate(15.941 4.077)"/>
</svg>