<svg xmlns="http://www.w3.org/2000/svg" width="180" height="134.468" viewBox="0 0 180 134.468">
  <g id="Group_387" data-name="Group 387" transform="translate(-460 -6934.532)">
    <path id="Path_741" data-name="Path 741" d="M1.12-9.338V0H2.548V-3.794h.644a3.371,3.371,0,0,0,2.282-.728,2.615,2.615,0,0,0,.91-2.044A2.7,2.7,0,0,0,5.222-8.834a3.649,3.649,0,0,0-2.044-.5ZM2.548-8.022h.63c1.624,0,1.834.924,1.834,1.442,0,.868-.588,1.47-1.82,1.47H2.548Zm9.7-1.484A4.737,4.737,0,0,0,7.392-4.662,4.737,4.737,0,0,0,12.25.182a4.737,4.737,0,0,0,4.858-4.844A4.737,4.737,0,0,0,12.25-9.506Zm0,8.372A3.342,3.342,0,0,1,8.82-4.662,3.342,3.342,0,0,1,12.25-8.19a3.342,3.342,0,0,1,3.43,3.528A3.342,3.342,0,0,1,12.25-1.134Zm6.65-8.2V0h1.428V-9.338ZM24,0V-6.524l6.776,7.1V-9.338H29.344V-2.87l-6.776-7.1V0ZM37.744-7.994V-9.338H32.032v1.344h2.142V0H35.6V-7.994Z" transform="translate(460 6944.5)" fill="#e74b21"/>
    <path id="Path_740" data-name="Path 740" d="M4.98-9.84c.06-1.23.06-2.4.06-3.45v-1.65H9.12v5.1ZM9.12-21.96v4.98H5.04v-4.98ZM11.13-24H3.09v10.71c0,4.38-.12,10.35-2.04,14.55A7.168,7.168,0,0,1,2.79,2.28,31.179,31.179,0,0,0,4.86-7.77H9.12v7.2c0,.39-.12.54-.51.57C8.28,0,7.08,0,5.79-.03a9.337,9.337,0,0,1,.63,2.04c1.92,0,3.03-.03,3.72-.42.72-.36.99-.99.99-2.13Zm4.32,6.87h9.33v5.49H15.45ZM24.15-.15c-.63,0-.72-.09-.72-.87V-9.66H27v-9.48H23.58c.93-1.53,1.89-3.45,2.76-5.19l-2.28-.75a33.681,33.681,0,0,1-2.85,5.94H17.1l1.74-.78a20.574,20.574,0,0,0-2.55-5.07l-1.89.75a23.573,23.573,0,0,1,2.43,5.1H13.26v9.48h3.3C16.2-5.07,15.33-1.38,11.07.6a5.676,5.676,0,0,1,1.35,1.71c4.74-2.37,5.91-6.6,6.33-11.97h2.52v8.64c0,2.22.51,2.91,2.58,2.91h2.58C28.2,1.89,28.77.87,28.98-3a6.36,6.36,0,0,1-1.95-.87c-.06,3.24-.18,3.72-.78,3.72ZM46.77-.39c-2.1,0-2.49-.36-2.49-1.95V-6.69l13.71-1.8-.3-2.07L44.28-8.82V-13.5l11.7-1.65-.3-2.07-11.4,1.59v-4.65a65.339,65.339,0,0,0,10.38-2.88L52.77-24.9c-4.62,1.92-13.08,3.54-20.49,4.53a8.545,8.545,0,0,1,.66,1.92c2.94-.36,6.03-.84,9.06-1.41v4.56l-9.18,1.26.33,2.1L42-13.17v4.65L31.89-7.2l.33,2.1L42-6.39V-2.4c0,3.3,1.05,4.17,4.65,4.17H54.3c3.3,0,4.05-1.32,4.44-5.46a7.1,7.1,0,0,1-2.19-.93c-.24,3.45-.54,4.23-2.31,4.23Zm20.85-24.6a34.889,34.889,0,0,1-6.57,11.91,16.678,16.678,0,0,1,1.29,2.19,32.148,32.148,0,0,0,2.55-3.45V2.25h2.13V-18.03a50.582,50.582,0,0,0,2.67-6.33ZM88.5-16.92v-2.16H79.56v-5.91H77.4v5.91H69v2.16h7.05C74.22-11.85,71.1-6.81,67.83-4.17a10.732,10.732,0,0,1,1.62,1.68c3.15-2.88,6.03-7.8,7.95-12.99v10.2H72.51v2.04H77.4V2.13h2.16V-3.24h4.83V-5.28H79.56V-15.69c1.83,5.22,4.71,10.26,7.86,13.14A7.881,7.881,0,0,1,89.1-4.32c-3.24-2.61-6.33-7.59-8.1-12.6Zm10.86-2.13v3.75h1.98v-3.75h3.54v-1.74h-9v-1.53a48.093,48.093,0,0,0,8.22-1.32l-1.5-1.38a51.9,51.9,0,0,1-6.93,1.23L93.9-24.3v2.97a7.96,7.96,0,0,1-2.49,6.24,6.21,6.21,0,0,1,1.5,1.44,9.353,9.353,0,0,0,2.79-5.4Zm-1.8,12.9h15.12v2.16H97.56Zm0-3.54h15.12v2.1H97.56Zm0-3.51h15.12v2.07H97.56ZM95.43-2.49H114.9V-14.7H95.43Zm5.07.3A34.354,34.354,0,0,1,91.71.69a17.346,17.346,0,0,1,1.65,1.68,42.748,42.748,0,0,0,9.15-3.6Zm6.99,1.23a65.763,65.763,0,0,1,8.37,3.3l2.46-1.11c-2.19-.99-5.76-2.28-9-3.33Zm.54-19.83a5.545,5.545,0,0,0,.03-.69v-.81a54.069,54.069,0,0,0,8.79-1.29l-1.5-1.41a49.447,49.447,0,0,1-7.56,1.2l-1.71-.42v2.67a5.719,5.719,0,0,1-2.88,5.16,4.956,4.956,0,0,1,1.38,1.47,7.363,7.363,0,0,0,3.12-4.14h4.17v3.81h2.01v-3.81h4.44v-1.74Zm29.43,3.27h6.63a29.556,29.556,0,0,1-3.24,10.05,34.1,34.1,0,0,1-3.42-9.99Zm11.31,0v-2.13H138.24a42.2,42.2,0,0,0,1.35-5.01l-2.31-.42c-.9,4.71-2.58,9.15-4.98,12.09v-9.48H122.19v2.07h7.95v5.88h-7.95v9.54c0,2.55.75,3.18,3.39,3.18h4.62c2.31,0,2.94-.96,3.21-4.74a6.1,6.1,0,0,1-2.01-.87c-.09,3.03-.27,3.51-1.38,3.51h-4.23c-1.23,0-1.47-.15-1.47-1.11v-7.47h5.82v1.14h2.16v-.99c.54.36,1.26.87,1.62,1.14a22,22,0,0,0,2.1-3.21,35.558,35.558,0,0,0,3.42,8.97A18.426,18.426,0,0,1,130.83.42a11.582,11.582,0,0,1,1.35,1.98,21.144,21.144,0,0,0,8.52-5.91,17.466,17.466,0,0,0,6.84,5.76A9.7,9.7,0,0,1,149.1.36a16.354,16.354,0,0,1-6.99-5.76c2.07-3.18,3.39-7.14,4.23-12.12ZM172.11-4.05V-.54h-14.1V-4.05ZM155.82,2.28h2.19V1.26h14.1v.93h2.28V-5.85H155.82ZM163.8-12.6v3.18h-4.86l1.05-.33a11.033,11.033,0,0,0-1.74-2.85Zm7.8,0a22.681,22.681,0,0,1-1.8,2.94l1.05.24h-4.8V-12.6Zm.36,3.18a23,23,0,0,0,1.89-2.76l-1.83-.42h5.58v-1.71H166.05v-2.07h8.79v-1.68h-8.79v-2.01H176.7v-1.71h-6c.57-.78,1.2-1.8,1.83-2.82l-2.28-.54a30.888,30.888,0,0,1-1.83,3.36h-7.29l.33-.12a12.473,12.473,0,0,0-1.98-3.18l-1.98.6a15.173,15.173,0,0,1,1.65,2.7h-5.76v1.71H163.8v2.01h-8.61v1.68h8.61v2.07H152.58v1.71h5.25l-1.65.45a12.67,12.67,0,0,1,1.59,2.73h-6.09v1.8h26.7v-1.8Z" transform="translate(460 6989)" fill="#e74b21"/>
    <g id="Group_194" data-name="Group 194" transform="translate(-237 5406)">
      <rect id="Rectangle_1" data-name="Rectangle 1" width="180" height="50" transform="translate(697 1613)" fill="#e74b21"/>
      <g id="Rectangle_109" data-name="Rectangle 109" transform="translate(702 1618)" fill="none" stroke="#fff" stroke-width="1">
        <rect width="170" height="40" stroke="none"/>
        <rect x="-0.5" y="-0.5" width="171" height="41" fill="none"/>
      </g>
      <path id="Path_742" data-name="Path 742" d="M-52.218,0h1.674V-6.228h6.156V0h1.656V-13.212h-1.656v5.544h-6.156v-5.544h-1.674Zm18.09.234a5.1,5.1,0,0,0,4.05-1.89L-31-2.7a4.01,4.01,0,0,1-3.06,1.476c-2.52,0-4.1-2.088-4.1-5.418,0-3.294,1.656-5.346,4.158-5.346a3.6,3.6,0,0,1,2.7,1.26l.9-1.08a4.879,4.879,0,0,0-3.618-1.638c-3.348,0-5.85,2.592-5.85,6.858C-39.87-2.3-37.4.234-34.128.234ZM-27.63,0h1.674V-5.6h2.376l3.2,5.6h1.89L-21.87-5.778a3.579,3.579,0,0,0,2.988-3.708c0-2.754-1.926-3.726-4.608-3.726h-4.14Zm1.674-6.948v-4.9h2.214c2.07,0,3.2.612,3.2,2.358,0,1.71-1.134,2.538-3.2,2.538ZM-3.4-13.1l-1.656-.576a10.325,10.325,0,0,1-.36,1.332A20.137,20.137,0,0,1-7.866-7.434c-1.422-1.1-3.51-2.574-5.058-3.564l-.936,1.134A56.313,56.313,0,0,1-8.784-6.228,19.985,19.985,0,0,1-15.93-.576L-14.688.558A22.932,22.932,0,0,0-7.632-5.256a40.144,40.144,0,0,1,4.248,4.14L-2.25-2.358A45.046,45.046,0,0,0-6.7-6.48,25.074,25.074,0,0,0-4-11.79,9.713,9.713,0,0,1-3.4-13.1ZM4.77-.648,6.12.486a14.981,14.981,0,0,0,6.372-5.544,18.468,18.468,0,0,0,2.466-6.426c.072-.324.216-.954.36-1.422l-1.8-.252a7.81,7.81,0,0,1-.144,1.476,14.847,14.847,0,0,1-2.25,5.868A13.826,13.826,0,0,1,4.77-.648Zm-1.1-12.294-1.422.72a48.372,48.372,0,0,1,3.006,5.2L6.7-7.83C6.048-9,4.464-11.772,3.672-12.942Zm23.04,2.574-1.314.45a33.93,33.93,0,0,1,1.4,3.906l1.332-.468C27.9-7.272,27.018-9.648,26.712-10.368ZM33.228-9.36,31.68-9.846A12.343,12.343,0,0,1,29.2-3.69,12.12,12.12,0,0,1,23.346.144L24.534,1.35A13.716,13.716,0,0,0,30.4-2.934,14.108,14.108,0,0,0,32.958-8.46C33.03-8.694,33.1-8.982,33.228-9.36ZM22.536-9.468,21.2-8.946a32.2,32.2,0,0,1,1.6,4.05l1.368-.5C23.832-6.336,22.9-8.694,22.536-9.468Zm25.29-3.492-.99.45a17.864,17.864,0,0,1,1.6,2.736l1.026-.468A27.122,27.122,0,0,0,47.826-12.96ZM50-13.86l-.99.468a17.511,17.511,0,0,1,1.674,2.7l1.008-.5A24.309,24.309,0,0,0,50-13.86Zm-8.5,12.51A19.711,19.711,0,0,1,41.4.774h1.728C43.074.2,43.02-.774,43.02-1.35V-7.272a46.129,46.129,0,0,1,7.056,2.88l.63-1.53a61.144,61.144,0,0,0-7.686-2.97v-2.934a16.626,16.626,0,0,1,.126-1.872H41.364a11.361,11.361,0,0,1,.144,1.872Z" transform="translate(787 1646)" fill="#fff"/>
    </g>
  </g>
</svg>
