<svg xmlns="http://www.w3.org/2000/svg" xmlns:xlink="http://www.w3.org/1999/xlink" width="340" height="481" viewBox="0 0 340 481">
  <defs>
    <clipPath id="clip-path">
      <path id="Rectangle_47" data-name="Rectangle 47" d="M50,0H340a0,0,0,0,1,0,0V404a0,0,0,0,1,0,0H0a0,0,0,0,1,0,0V50A50,50,0,0,1,50,0Z" transform="translate(0)" fill="#f1fbfc"/>
    </clipPath>
  </defs>
  <g id="Group_371" data-name="Group 371" transform="translate(-18 -8878)">
    <path id="Rectangle_24" data-name="Rectangle 24" d="M50,0H340a0,0,0,0,1,0,0V403a0,0,0,0,1,0,0H0a0,0,0,0,1,0,0V50A50,50,0,0,1,50,0Z" transform="translate(18 8878)" fill="#f1fbfc"/>
    <g id="Mask_Group_1" data-name="Mask Group 1" transform="translate(18 8878)" opacity="0.1" clip-path="url(#clip-path)">
      <g id="Group_45" data-name="Group 45" transform="translate(169.976 24.305)">
        <path id="Path_286" data-name="Path 286" d="M937.928,11633.686l545.858-147.97v57.348Z" transform="translate(-937.928 -11251.398)" fill="#01abab"/>
        <path id="Path_287" data-name="Path 287" d="M937.928,11585.764l551.489-277.882-40.2-69.063Z" transform="translate(-937.928 -11204.319)" fill="#01abab"/>
        <path id="Path_288" data-name="Path 288" d="M1195.937,11229.778l-258.009,354.646,333.094-342.151Z" transform="translate(-937.928 -11202.594)" fill="#01abab"/>
        <path id="Path_289" data-name="Path 289" d="M1052,11145.006l-113.032,432.172,188.644-424.57Z" transform="translate(-938.127 -11196.188)" fill="#01abab"/>
      </g>
      <g id="Group_46" data-name="Group 46" transform="translate(-381.514 24.305)">
        <path id="Path_286-2" data-name="Path 286" d="M1483.786,11633.686l-545.858-147.97v57.348Z" transform="translate(-932.296 -11251.398)" fill="#01abab"/>
        <path id="Path_287-2" data-name="Path 287" d="M1489.417,11585.764l-551.489-277.882,40.2-69.063Z" transform="translate(-937.928 -11204.319)" fill="#01abab"/>
        <path id="Path_288-2" data-name="Path 288" d="M1013.013,11229.778l258.009,354.646-333.094-342.151Z" transform="translate(-719.533 -11202.594)" fill="#01abab"/>
        <path id="Path_289-2" data-name="Path 289" d="M988.959,11143.135l121.345,434.043-171.337-380.99Z" transform="translate(-559.657 -11196.188)" fill="#01abab"/>
      </g>
      <path id="Path_290" data-name="Path 290" d="M2534.629,11408.4c-.633-5.557,30.837-454.395,30.837-454.395h-60Z" transform="translate(-2365.492 -11001.813)" fill="#01abab"/>
    </g>
    <rect id="Rectangle_46" data-name="Rectangle 46" width="340" height="78" transform="translate(18 9281)" fill="#d7f2f3"/>
    <path id="Path_711" data-name="Path 711" d="M-81.577-19.4A7.354,7.354,0,0,0-81-17.893a3.647,3.647,0,0,0,2.668,1.972,17.4,17.4,0,0,0,2.7-.435,3.561,3.561,0,0,1,.754,2.03c.029.522.029,1.508,0,2.7a68.511,68.511,0,0,1-7.366.87,3.815,3.815,0,0,1-2.291-.957l-.348.145a4.258,4.258,0,0,0,.145,1.74c.464,1.16,1.769,2.407,2.755,2.407.841,0,1.479-.522,3.1-1.044a30.776,30.776,0,0,1,3.973-.957c-.029,2.088-.058,4.263-.029,5.51C-74.849-1.305-73.776,0-69.281,0a28.979,28.979,0,0,0,5.916-.493c.9-.232,1.537-.609,1.537-1.508,0-.841-1.16-1.8-3.074-1.8a19.015,19.015,0,0,1-4.727.58c-2.117,0-2.581-.464-2.639-1.74-.058-1.044,0-3.016.116-4.9a46.183,46.183,0,0,1,5.771-.522c1.682,0,3.828.406,4.988.377a1.206,1.206,0,0,0,1.247-1.363c0-1.276-2.61-2.088-3.712-2.088-.406,0-1.1.319-2.7.609-1.131.174-3.19.522-5.423.841a12.171,12.171,0,0,1,.2-1.392c.145-.609.58-.928.58-1.508,0-.493-.928-1.276-2.349-1.769,2.494-.29,6.264-.725,7.6-.9,1.363-.2,1.8-.725,1.8-1.363,0-.841-1.479-1.711-3.422-1.711-.406,0-1.653.667-4.06,1.16a46.36,46.36,0,0,1-7.134.87,3.75,3.75,0,0,1-2.465-.957Zm46.313,3.19c0-1.073-2.349-2.059-3.973-2.059a16.068,16.068,0,0,1-3.074,1.131,35.507,35.507,0,0,1-5.742.638,4.965,4.965,0,0,1-3.219-1.392l-.406.232a7.429,7.429,0,0,0,.87,2.2A3.846,3.846,0,0,0-48.314-13.6c1.334,0,7.946-.9,11.658-1.218A1.369,1.369,0,0,0-35.264-16.211ZM-55.535-5.452c.377.9,2.059,2.784,3.219,2.784a17.856,17.856,0,0,0,3.248-.87A41.381,41.381,0,0,1-39.73-4.669c4.2,0,6.583.986,7.714.986a1.317,1.317,0,0,0,1.363-1.392c0-1.189-2.871-3.016-4.379-3.016a21.07,21.07,0,0,1-2.523.522c-4.031.319-13.195,1.305-15.08,1.305A3.813,3.813,0,0,1-55.419-7.6l-.435.174A4.5,4.5,0,0,0-55.535-5.452Zm46.98-11.31a27.978,27.978,0,0,1-3.364,5.974,36.141,36.141,0,0,0-6.641-2.465,37.867,37.867,0,0,0,3.1-3.451,2.276,2.276,0,0,0,1.1.551,5.943,5.943,0,0,0,1.624-.377,21.619,21.619,0,0,1,3.8-.783C-8.555-17.313-8.41-17.168-8.555-16.762Zm-10.266-5.713c.928.522,1.624,1.189,1.624,1.74,0,1.856-4.524,8.5-8.99,12.267l.377.493a27.786,27.786,0,0,0,6.67-4.7,18.455,18.455,0,0,1,5.684,3.857A40.249,40.249,0,0,1-25.868,1.218l.319.551A33.364,33.364,0,0,0-11.629-6.67c1.682,2.175,2.059,3.161,3.306,3.1A1.619,1.619,0,0,0-6.7-5.365c-.058-1.421-1.189-2.7-2.668-3.828a46.824,46.824,0,0,0,4.2-6.235c.377-.7,1.566-1.073,1.566-1.8,0-1.189-2.726-2.929-3.567-2.929-.667,0-1.16.725-1.885.957a39.591,39.591,0,0,1-5.162.812c.261-.377.522-.754.754-1.131.493-.754.87-.9.87-1.508,0-.754-2.2-1.943-4.147-2.03a5.922,5.922,0,0,0-2.03.174ZM2.465-13.2a4.714,4.714,0,0,0,.087,2.2C3.074-9.57,4.872-7.685,6-7.685c1.1,0,1.537-.7,3.625-.9,2.233-.261,8.729-.667,10.933-.667,2.03,0,3.045.087,4.2.087,1.218,0,1.914-.406,1.914-1.247,0-1.247-1.508-2.146-3.248-2.146-.7,0-2,.232-3.944.406-1.769.145-10.527.725-13.63.725-1.537,0-2.03-.783-2.9-1.943ZM35.293-.435v-4.93h5.684v4.93Zm5.394-5.742H35.438L32.132-7.511V2.552h.435c1.305,0,2.726-.667,2.726-.957V.406h5.684V2.2h.551a5.775,5.775,0,0,0,2.7-.754V-4.814a2.059,2.059,0,0,0,1.189-.609L42.195-7.83ZM50.2-21.025c.783-.116.986-.406,1.073-.812l-4.147-.406V-20.1l-2.581-2.494-1.537,1.508H39.44V-23.49c.754-.116.986-.406,1.044-.812l-4.321-.348v3.567H32.915a5.506,5.506,0,0,0-.522-1.218h-.377a2.836,2.836,0,0,1-1.3,2.378c-2.117,1.247-.7,3.683,1.189,2.755,1.131-.522,1.479-1.711,1.247-3.074H43.181c-.116.754-.29,1.6-.406,2.175l-.406-.29L40.8-16.443h-1.45V-18.27c.667-.116.9-.377.957-.754L36.163-19.4v2.958H31.117l.232.812h4.814v2.61H31.2l.232.841h4.727v2.871H29.986l.232.812h15.4c.406,0,.725-.145.783-.464-1.131-.957-2.929-2.291-2.929-2.291L41.847-9.309H39.353V-12.18h5.22c.406,0,.667-.145.754-.464-1.044-.928-2.755-2.233-2.755-2.233l-1.508,1.856H39.353v-2.61h5.1c.406,0,.725-.145.812-.464-.638-.58-1.537-1.247-2.146-1.711a21.138,21.138,0,0,0,3.016-1.885,1.72,1.72,0,0,0,.986-.29V-3.77h.551c1.189,0,2.523-.609,2.523-.9ZM52.693-24.3V-1.537c0,.377-.145.522-.638.522-.609,0-3.509-.174-3.509-.174v.406a3.679,3.679,0,0,1,2.465,1.1,4.161,4.161,0,0,1,.667,2.32c3.741-.319,4.234-1.624,4.234-3.915V-23.055c.7-.116.986-.406,1.044-.841Zm16.994,14.21H63.771c.348-1.856.667-3.915.841-5.307h4.93v1.624h.551a5.439,5.439,0,0,0,2.755-.783v-6.815a2.264,2.264,0,0,0,1.247-.609l-3.306-2.465-1.537,1.682H60.03l.261.841h9.251v5.713H65.308l-3.625-1.45c-.29,2.494-1.073,6.931-1.769,10.121,1.769.406,2.581.29,3.422-.145.087-.464.2-1.015.29-1.6h6.293c-.435,4.147-1.218,7.337-2.175,8.033a1.852,1.852,0,0,1-1.16.29c-.754,0-3.48-.2-5.162-.348L61.393-.9a8.158,8.158,0,0,1,3.6,1.276,2.572,2.572,0,0,1,.725,2.175,6.4,6.4,0,0,0,4.205-1.073C71.63.261,72.7-3.48,73.225-8.729a2.1,2.1,0,0,0,1.247-.493l-3.045-2.523Zm10.034-14.3V2.523h.638c1.334,0,2.784-.812,2.784-1.189v-24.36c.841-.116,1.073-.464,1.131-.9Zm-200.535,44.6c1.015.174,2.175.116,2.494.725a28.035,28.035,0,0,1,1.16,4.292,61.614,61.614,0,0,1-6.119,1.218c-.667,0-1.073-.522-1.537-.986l-.493.232a2.737,2.737,0,0,0,.464,1.276,4.013,4.013,0,0,0,2.262,1.334c.522,0,.7-.319,1.508-.58,1.131-.348,2.668-.754,4.234-1.1.261,1.131.638,2.987,1.015,4.872a89.461,89.461,0,0,1-8.758,1.943c-.435,0-.87-.29-1.624-.957l-.493.319a4.046,4.046,0,0,0,.551,1.392,3.909,3.909,0,0,0,2.291,1.276c.638,0,.928-.435,2-.812,1.537-.551,4.234-1.3,6.293-1.827.29,1.45.522,2.813.7,3.828.29,1.624.493,3.422.638,3.915.174.754.841,1.653,1.45,1.653.58,0,.783-.464.783-.9a12.374,12.374,0,0,0-.551-2.726c-.29-1.131-.812-3.422-1.421-6.148a60.514,60.514,0,0,1,8.816-1.6c.754-.058.928-.435.928-.812,0-.638-1.189-1.1-2.494-1.015-.261.029-.406.174-1.218.406-.986.319-4.06,1.131-6.351,1.653-.319-1.537-.667-3.19-1.015-4.843,1.769-.406,4.524-.986,6.119-1.305.725-.145,1.16-.406,1.16-.9,0-.7-1.334-.957-2.175-.9-.261.029-.725.348-1.943.754-1.044.319-2.2.638-3.451.957-.232-1.218-.377-1.943-.493-2.871-.087-.9.348-1.1.319-1.653-.029-.609-1.624-1.3-2.871-1.3a8.63,8.63,0,0,0-2.262.58Zm28.855,5.626c.957.116,1.537.261,1.8.841a27.369,27.369,0,0,1,1.218,3.886A37.937,37.937,0,0,1-93.9,31.633c-.638-.029-1.015-.551-1.392-.957l-.348.174a5.858,5.858,0,0,0,.2,1.276A3.014,3.014,0,0,0-93.38,33.6c.493,0,.812-.493,1.653-.812.493-.174,1.856-.638,3.1-1.015.7,2.61,1.711,7.047,2.059,9.193.145.928.58,1.624,1.363,1.624.638,0,.9-.377.9-1.044a8.979,8.979,0,0,0-.551-2.03c-.464-1.537-1.479-5.249-2.233-8.178,2.117-.609,5.162-1.508,6.177-1.711.29-.058.406-.029.261.29a25.827,25.827,0,0,1-3.364,4.959l.348.319a31.86,31.86,0,0,0,4.843-4.5c.377-.377,1.16-.435,1.16-.87a3.187,3.187,0,0,0-2.233-2c-.319,0-.667.464-1.16.609-.9.29-4.263,1.189-6.322,1.711-.261-1.073-.493-2.233-.551-2.7-.058-.609.116-.957.087-1.421,0-.493-1.479-1.015-2.436-1.015a6.221,6.221,0,0,0-1.769.377ZM-66.526,21.8a19.526,19.526,0,0,1,5.046,4.379c.754.9,1.131,1.218,1.6,1.218a.99.99,0,0,0,1.015-1.073c0-2.233-4-4.2-7.308-5.133Zm2.871,15.979c-.928,0-1.856-.928-2.726-1.885l-.464.29a6.206,6.206,0,0,0,.609,1.885c.58.87,2.32,2.233,3.451,2.233.638,0,.957-.725,1.537-1.073,6.351-4.06,11.745-8.7,15.225-14.877l-.667-.435C-50.808,30.1-61.422,37.781-63.655,37.781Zm41.963-10.063a3.3,3.3,0,0,0,3.277-3.306,3.292,3.292,0,0,0-3.277-3.277A3.3,3.3,0,0,0-25,24.412,3.3,3.3,0,0,0-21.692,27.718Zm0-5.626a2.327,2.327,0,0,1,2.32,2.32,2.315,2.315,0,0,1-2.32,2.349,2.321,2.321,0,0,1-2.349-2.349A2.333,2.333,0,0,1-21.692,22.092ZM-41.035,32.358a4.047,4.047,0,0,0,2.494,1.392c.812,0,1.218-.609,1.943-1.508,1.073-1.334,3.335-4.263,4.234-5.307.464-.522.783-.667,1.1-.667.377,0,.725.2,1.276.725,2.2,2.2,6.9,7.163,8.729,8.932,1.943,1.856,3.364,3.045,4.176,3.045a.816.816,0,0,0,.87-.9,2.474,2.474,0,0,0-1.16-1.972c-3.6-2.407-8.033-6.641-11.687-10.3a3.024,3.024,0,0,0-2.291-1.131,2.72,2.72,0,0,0-1.885,1.073c-.986.986-3.451,3.8-4.785,5.017-.58.522-.957.783-1.363.783A3.4,3.4,0,0,1-41.238,30.5l-.464.406A3.717,3.717,0,0,0-41.035,32.358Zm29.754-3.451a5.146,5.146,0,0,0,.261,1.624c.406.986,1.769,2.407,2.581,2.407.841,0,1.16-.435,2.813-.609,2.175-.261,10.324-.7,12.151-.7,1.769,0,2.784.058,3.8.058.986,0,1.276-.319,1.276-.841,0-.783-1.305-1.276-2.407-1.276-.754,0-1.566.174-3.509.319-1.334.058-11.484.725-14.065.725-1.218,0-1.682-.9-2.32-1.885ZM19.894,21.8a19.526,19.526,0,0,1,5.046,4.379c.754.9,1.131,1.218,1.6,1.218a.99.99,0,0,0,1.015-1.073c0-2.233-4-4.2-7.308-5.133Zm2.871,15.979c-.928,0-1.856-.928-2.726-1.885l-.464.29a6.206,6.206,0,0,0,.609,1.885c.58.87,2.32,2.233,3.451,2.233.638,0,.957-.725,1.537-1.073,6.351-4.06,11.745-8.7,15.225-14.877l-.667-.435C35.612,30.1,25,37.781,22.765,37.781Zm44.805-16.7a29.323,29.323,0,0,1-1.305,2.842l.377.232A17.923,17.923,0,0,0,69.919,21.4c.58-.029.9-.058,1.073-.261l-2.2-2.146L67.57,20.236h-8.9V17.8c.7-.116.986-.406,1.044-.812l-2.987-.29v3.538H48.749a9.117,9.117,0,0,0-.319-1.6l-.522.029a4.631,4.631,0,0,1-2.175,4.437,1.36,1.36,0,0,0-.783,1.624c.348.667,1.421.667,2.175.145a4.425,4.425,0,0,0,1.682-3.8Zm1.972,13.775c.406,0,.7-.145.783-.464-.986-.9-2.523-2.059-2.523-2.059L66.41,34.011h-8.5a14.869,14.869,0,0,0,.667-3.6h8.41c.406,0,.725-.145.812-.435-.986-.841-2.494-1.972-2.494-1.972l-1.334,1.6H58.609a7.6,7.6,0,0,0,.029-.812V26.355H67.28c.406,0,.7-.145.783-.464-.928-.812-2.407-1.914-2.407-1.914l-1.305,1.508H58.638V23.542c.7-.116.928-.406.986-.754l-2.9-.319v3.016H47.85l.232.87h8.642V29.6H48.169l.232.812h8.265a14.594,14.594,0,0,1-.638,3.6H45.066l.232.841H55.709c-1.392,3.277-4.466,6-11.02,7.859l.174.551c7.772-1.711,11.252-4.727,12.76-8.41h.928c1.885,4.611,5.539,7.047,10.875,8.439a2.215,2.215,0,0,1,1.653-1.74l.029-.348c-5.307-.783-9.744-2.7-11.919-6.351Zm14.674-7.859a16.33,16.33,0,0,0,4.031-4.466H99.383c.406,0,.667-.145.754-.464-.957-.928-2.552-2.146-2.552-2.146l-1.363,1.74H88.769a25.164,25.164,0,0,0,1.624-3.451c.609.029.986-.2,1.1-.551l-2.987-.928a24.451,24.451,0,0,1-4.7,9.947ZM99.383,38.129h-.377a8.425,8.425,0,0,1-.841,2.552c-.145.174-.319.232-.7.261-.435.058-1.769.087-3.422.087H90.393c-1.421,0-1.653-.232-1.653-.87V30.676l3.132-1.131v9.367h.348c.609,0,1.334-.406,1.334-.638V28.936l3.451-1.247c-.029,4.872-.145,6.7-.522,7.134-.145.145-.319.174-.667.174-.406,0-1.218-.058-1.769-.087V35.4a2.271,2.271,0,0,1,1.218.493,1.831,1.831,0,0,1,.319,1.218,2.85,2.85,0,0,0,2.059-.725c.783-.783,1.015-2.7,1.044-8.526.58-.087.9-.174,1.073-.406l-2.088-1.682-.957,1.044-.116.058-3.045,1.1V24.5c.725-.116.957-.406,1.044-.812l-2.726-.29v5.191L88.74,29.719V26.442c.638-.087.9-.377.957-.754l-2.639-.319v4.959l-3.364,1.218c.058-.9.087-1.856.116-2.9a1.67,1.67,0,0,0,1.16-.464l-2.146-1.769L81.751,27.6h-2.9c.087-1.45.116-2.929.145-4.408H85.2c.377,0,.7-.145.754-.435-.928-.928-2.465-2.175-2.465-2.175l-1.363,1.769H80.272V17.945c.638-.116.87-.377.928-.754l-2.842-.29v5.452H73.4l.2.841h3.364c-.058,6.757-.029,14.007-3.944,19.546l.493.464c3.886-4.06,4.959-9.309,5.307-14.79h3.219c-.232,7.192-.725,11.252-1.537,12.035a1.233,1.233,0,0,1-1.015.319c-.58,0-2.2-.145-3.19-.232l-.029.522a5.3,5.3,0,0,1,2.2.7,1.6,1.6,0,0,1,.435,1.3,3.674,3.674,0,0,0,2.842-1.073c1.044-1.073,1.653-4.234,1.943-10.237l.464.58,2.9-1.044v9.251c0,1.624.638,2.117,3.161,2.117h3.77c5.336,0,6.38-.29,6.38-1.16,0-.377-.232-.58-.9-.783Zm17.2-6.844V23.629h8.439v7.656Zm-10.382,0V23.629h8.439v7.656Zm19.633-9.715-1.1,1.218H116.58V17.829c.754-.116.986-.406,1.044-.812l-2.987-.348v6.119H106.4l-2.088-.986V34.881h.29c.812,0,1.6-.435,1.6-.638V32.155h8.439V43.262h.377c.725,0,1.566-.493,1.566-.783V32.155h8.439v2.407h.319a2.713,2.713,0,0,0,1.653-.609V24.006a2.16,2.16,0,0,0,1.218-.58Z" transform="translate(188 9034)" fill="#01abab"/>
    <path id="Path_712" data-name="Path 712" d="M-144.742-15.238h-5.472v1.14h5.472Zm.7,2.489H-151.2v1.159h7.163Zm-1.9,8.778V-.779h-3.173V-3.971ZM-144.7-5.13h-5.643V1.235h1.235V.361h4.408Zm-5.605-1.406h5.624v-1.14h-5.624Zm0-2.527h5.624v-1.121h-5.624Zm16.53,4.522h-4.484v-2.7h3.819V-8.512h-3.819v-2.47h4.218v-1.311h-2.489c.513-.855,1.121-2.109,1.653-3.192l-1.387-.437a22.979,22.979,0,0,1-1.444,3.363l.684.266h-3.819l.684-.285a12.886,12.886,0,0,0-1.482-3.211l-1.14.418a13.554,13.554,0,0,1,1.368,3.078H-143.6v1.311h3.971v2.47h-3.61v1.273h3.61v2.7h-4.56v1.292h4.56V1.444h1.368V-3.249h4.484Zm7.239-10.26-1.919-.019a10.028,10.028,0,0,1,.152,1.938c0,2-.19,6.8-.19,9.614,0,3.1,1.881,4.237,4.617,4.237a9.55,9.55,0,0,0,7.942-4.2l-1.083-1.292c-1.368,1.976-3.325,3.933-6.8,3.933-1.805,0-3.116-.741-3.116-2.831,0-2.831.133-7.315.228-9.462A16.358,16.358,0,0,1-126.54-14.8Zm25.916.779-1.406-1.254A9,9,0,0,1-103.113-14c-1.292,1.311-4.18,3.591-5.605,4.788-1.71,1.444-1.938,2.261-.133,3.762,1.767,1.463,4.655,3.933,5.985,5.3.475.456.912.931,1.311,1.387l1.349-1.254c-2.014-2.014-5.377-4.731-7.106-6.137-1.216-1.026-1.2-1.33-.057-2.3,1.406-1.178,4.142-3.344,5.434-4.484C-101.612-13.205-101.023-13.7-100.624-14.022Zm14.1,11.742c0-.931,1.007-1.539,2.432-1.539a6.466,6.466,0,0,1,1.938.3c.019.247.019.475.019.665,0,1.254-.475,2.071-2.071,2.071C-85.576-.779-86.526-1.311-86.526-2.28Zm5.757-12.35h-1.71c.038.323.076.836.076,1.159v2.356c-.589.019-1.2.038-1.786.038-1.14,0-2.147-.057-3.23-.152V-9.8c1.121.076,2.109.133,3.192.133.608,0,1.216-.019,1.824-.038.019,1.558.133,3.42.19,4.883A8.713,8.713,0,0,0-83.98-5c-2.489,0-3.914,1.273-3.914,2.869,0,1.71,1.406,2.717,3.952,2.717,2.565,0,3.287-1.5,3.287-3.059v-.4a15.457,15.457,0,0,1,2.869,2.2l.836-1.273a12.524,12.524,0,0,0-3.762-2.451c-.076-1.6-.209-3.5-.228-5.415,1.14-.076,2.242-.19,3.287-.361v-1.463a32.083,32.083,0,0,1-3.287.437c.019-.893.038-1.786.057-2.3Q-80.854-14.06-80.769-14.63Zm-9.386.114-1.672-.133a11.4,11.4,0,0,1-.114,1.349,56.533,56.533,0,0,0-.874,8,22.949,22.949,0,0,0,.722,6l1.33-.095C-90.782.4-90.8.133-90.8-.057a3.4,3.4,0,0,1,.076-.855c.19-.931.893-2.869,1.349-4.2l-.779-.608c-.323.779-.779,1.938-1.083,2.793a17.823,17.823,0,0,1-.19-2.641,47.109,47.109,0,0,1,.95-7.657A9.88,9.88,0,0,1-90.155-14.516Zm19.342,15.58,1.292-1.1a35.662,35.662,0,0,0-4.256-4.218l-1.235,1.083A31.654,31.654,0,0,1-70.813,1.064ZM-43.054-9.253h-2.223v-3.211h2.223Zm0,4.5h-2.223V-8h2.223ZM-52-8h2.109V-4.75H-52Zm5.51,0V-4.75h-2.2V-8Zm-2.2-1.254v-3.211h2.2v3.211ZM-52-12.464h2.109v3.211H-52Zm-1.273,3.211h-2.641V-8h2.641V-4.75h-2.337v1.273H-39.33V-4.75h-2.394V-8h2.66V-9.253h-2.66v-3.211h1.957v-1.254H-51.756A13.836,13.836,0,0,0-50.749-15.5l-1.349-.4a13.443,13.443,0,0,1-4.047,4.959,6.915,6.915,0,0,1,1.159.931,15.884,15.884,0,0,0,1.71-1.691ZM-54.72,1.463a8.885,8.885,0,0,0,2.337-3.819l-1.311-.323A8.306,8.306,0,0,1-56.05.912ZM-50.407-2.2a22.973,22.973,0,0,1,.4,3.477l1.349-.19a23.009,23.009,0,0,0-.456-3.42Zm3.838.019A22.532,22.532,0,0,1-45.41,1.292l1.368-.285a18.37,18.37,0,0,0-1.216-3.439Zm3.857-.133a22.4,22.4,0,0,1,2.47,3.8l1.406-.513A23.271,23.271,0,0,0-41.42-2.755Zm18.221-9.918a14.646,14.646,0,0,0-2.983-2.318l-.722.95a15.7,15.7,0,0,1,2.983,2.451ZM-25.308-7.7A14.779,14.779,0,0,0-28.5-9.823l-.665.988a14.221,14.221,0,0,1,3.154,2.28ZM-30.8-14.763a35.1,35.1,0,0,1-1.254,4.275l.912.3a38.878,38.878,0,0,0,1.558-4.275Zm-3.952,4.237a17.265,17.265,0,0,0-1.121-4.161l-1.026.247a18.346,18.346,0,0,1,1.026,4.218Zm2.071,2.3h3.1v-1.33h-3.1v-6.27h-1.311v6.27h-3.04v1.33h2.66a19.539,19.539,0,0,1-2.964,5.909A8.518,8.518,0,0,1-36.613-.95a21.79,21.79,0,0,0,2.622-5.415V1.444h1.311v-7.79C-32-5.282-31.1-3.819-30.761-3.116l.931-1.1c-.418-.646-2.318-3.154-2.85-3.743Zm12.958,3.895-.209-1.292-2.242.4V-15.884H-23.5V-4.978L-29.621-3.9l.228,1.311,5.89-1.064V1.444h1.33V-3.9ZM-9.348-14.953h-1.786A11.518,11.518,0,0,1-11-13.376c0,.684-.038,1.33-.076,1.938h-3.344a19.886,19.886,0,0,1-2.166-.114v1.615a20.274,20.274,0,0,1,2.185-.076h3.192c-.513,3.914-1.881,6.289-3.762,8A9.365,9.365,0,0,1-16.929-.608L-15.542.513c3.173-2.185,5.149-5.073,5.833-10.526h5.32c0,2.033-.247,6.707-.969,8.151a1.029,1.029,0,0,1-1.1.627,23.116,23.116,0,0,1-2.831-.209L-9.1.133c.988.057,2.09.133,3.059.133A1.972,1.972,0,0,0-4.009-.893c.855-1.824,1.083-7.353,1.159-9.177a5.943,5.943,0,0,1,.1-.931l-1.064-.532a6.848,6.848,0,0,1-1.216.1H-9.557c.038-.627.076-1.273.1-1.957C-9.443-13.851-9.4-14.516-9.348-14.953Zm19.627-.266H8.455a10.659,10.659,0,0,1,.095,1.425v1.767h-4.2A16.833,16.833,0,0,1,2.584-12.1a12.719,12.719,0,0,1,.057,1.463V-7.3c0,.361-.019.874-.057,1.216H4.237a7.333,7.333,0,0,1-.076-1.14v-3.4H14.782a14,14,0,0,1-1.805,5.548A10.131,10.131,0,0,1,7.828-1.254a10.119,10.119,0,0,1-1.976.532L7.087.7a12.074,12.074,0,0,0,7.524-5.377,17.71,17.71,0,0,0,1.862-5.719c.076-.361.19-.855.285-1.14l-1.026-.646a3.735,3.735,0,0,1-1.311.152H10.165v-1.767A8.487,8.487,0,0,1,10.279-15.219Zm13.034,1.292L22.23-12.768A39.46,39.46,0,0,1,26.961-8.8l1.2-1.2A41.6,41.6,0,0,0,23.313-13.927ZM21.679-1.2,22.686.361a20.826,20.826,0,0,0,7.467-2.945,18.983,18.983,0,0,0,6.384-6.764l-.912-1.615a17.9,17.9,0,0,1-6.346,6.992A19.618,19.618,0,0,1,21.679-1.2ZM43.814-2.451c0,1.881.646,2.793,4.18,2.793a40.848,40.848,0,0,0,5.966-.38l.076-1.634a30.521,30.521,0,0,1-5.928.551c-2.261,0-2.755-.418-2.755-1.729V-8.512C48.716-9.2,52.212-9.9,52.535-9.956a17.89,17.89,0,0,1-3.382,4.522l1.33.8a28.921,28.921,0,0,0,3.895-5.529c.133-.247.323-.57.456-.76L53.713-11.8a3.848,3.848,0,0,1-1.007.342c-.8.171-4.123.855-7.353,1.482v-2.964a10.832,10.832,0,0,1,.133-1.748H43.681a10.67,10.67,0,0,1,.133,1.748V-9.69c-2.014.38-3.819.7-4.674.817L39.425-7.3c.779-.171,2.47-.513,4.389-.912Zm27.93-11.97H69.958a13.631,13.631,0,0,1,.1,1.653v3c0,3.591-.228,5.13-1.577,6.707A8.71,8.71,0,0,1,63.935-.532L65.17.779A10.148,10.148,0,0,0,69.692-2c1.368-1.634,2-3.135,2-7.7v-3.078C71.687-13.414,71.706-13.946,71.744-14.421Zm-8.816.152H61.2c.038.361.076,1.026.076,1.368v6.327a12.452,12.452,0,0,1-.1,1.463h1.748c-.038-.342-.076-.969-.076-1.444V-12.9C62.852-13.357,62.89-13.908,62.928-14.269Zm17.385.342L79.23-12.768A39.46,39.46,0,0,1,83.961-8.8l1.2-1.2A41.6,41.6,0,0,0,80.313-13.927ZM78.679-1.2,79.686.361a20.826,20.826,0,0,0,7.467-2.945,18.983,18.983,0,0,0,6.384-6.764l-.912-1.615a17.9,17.9,0,0,1-6.346,6.992A19.618,19.618,0,0,1,78.679-1.2Zm30.856-14-1.007.437a21.489,21.489,0,0,1,1.539,2.622l1.026-.456A26.928,26.928,0,0,0,109.535-15.2Zm2.09-.76-1.007.437a19.746,19.746,0,0,1,1.577,2.6l1.026-.456A27.185,27.185,0,0,0,111.625-15.96Zm-7.2,1.672-1.748-.589a7.046,7.046,0,0,1-.589,1.52,15.914,15.914,0,0,1-5.966,6.422l1.311.969a18.334,18.334,0,0,0,4.826-4.674h6.4a15.427,15.427,0,0,1-3.021,5.928A15.217,15.217,0,0,1,98.04.057l1.387,1.254a16.912,16.912,0,0,0,7.562-5.168,18.584,18.584,0,0,0,3.363-6.555,5.97,5.97,0,0,1,.437-1.007l-1.254-.76a3.638,3.638,0,0,1-1.235.171h-5.149c.152-.266.3-.532.437-.8C103.778-13.148,104.12-13.794,104.424-14.288Zm15.143.912v4.218h-2.755v-4.218Zm-2.755,9.842V-7.923h2.755v4.389ZM120.9-14.649H115.52V-.722h1.292V-2.261H120.9Zm1.558,10.64a14.655,14.655,0,0,1,2.413,3.344l1.2-.76a13.433,13.433,0,0,0-2.47-3.23Zm9.8-4.712V-9.975h-4.9v-2.413h4.085v-1.254h-4.085V-15.9H125.97v2.261h-3.952v1.254h3.952v2.413H121.2v1.254h7.277v2.147H121.3V-5.32h7.182V-.247c0,.285-.1.361-.418.38-.3.019-1.349.019-2.527-.019a4.314,4.314,0,0,1,.456,1.311,10.871,10.871,0,0,0,3.078-.228c.57-.209.779-.627.779-1.425V-5.32h2.2V-6.574h-2.2V-8.721Zm9.4-4.1v1.52a44.66,44.66,0,0,0,7.809,0v-1.539A32.507,32.507,0,0,1,141.664-12.825Zm.741,7.733-1.368-.133a10.211,10.211,0,0,0-.323,2.242c0,1.786,1.425,2.85,4.617,2.85a25.748,25.748,0,0,0,4.75-.4l-.038-1.6a20.96,20.96,0,0,1-4.712.494c-2.584,0-3.211-.836-3.211-1.71A6.635,6.635,0,0,1,142.4-5.092Zm-4.37-9.2-1.691-.152a8.314,8.314,0,0,1-.133,1.349,53.444,53.444,0,0,0-.855,7.619,23.923,23.923,0,0,0,.7,6.1l1.368-.095c-.019-.19-.038-.456-.057-.665a3.668,3.668,0,0,1,.1-.855,38.781,38.781,0,0,1,1.349-4.256l-.8-.608c-.323.779-.779,1.919-1.1,2.774a20.839,20.839,0,0,1-.171-2.66,44.12,44.12,0,0,1,.95-7.277C137.769-13.357,137.94-13.965,138.035-14.288ZM-68.191,15.819h-1.691a10.019,10.019,0,0,1,.095,1.349c0,.342-.019,1.178-.019,2.166-.532.038-1.026.057-1.463.057a17.581,17.581,0,0,1-2.432-.152l.038,1.444a20.871,20.871,0,0,0,2.432.1c.4,0,.874-.019,1.406-.057-.019.836-.019,1.729-.019,2.489v1.083C-72.029,25.224-74,26.877-74,28.454c0,1.691,2.47,3.154,3.952,3.154,1.026,0,1.672-.57,1.672-2.337,0-.817-.038-2.508-.076-4.123a12.446,12.446,0,0,1,4.142-.741c1.805,0,3.268.874,3.268,2.489,0,1.748-1.52,2.641-3.192,2.964a9.717,9.717,0,0,1-2.223.133l.532,1.539a14.408,14.408,0,0,0,2.356-.266c2.6-.627,4.047-2.09,4.047-4.389,0-2.28-1.995-3.781-4.769-3.781a14.369,14.369,0,0,0-4.18.7v-.665c0-.76.019-1.672.038-2.565a34.881,34.881,0,0,0,3.99-.665l-.038-1.482a25.553,25.553,0,0,1-3.914.76c.019-.855.057-1.6.076-2.052A12.188,12.188,0,0,1-68.191,15.819Zm5.89,2.109-.684,1.14a24.1,24.1,0,0,1,4.256,2.85l.779-1.216A34.536,34.536,0,0,0-62.3,17.928Zm-10.222,10.45c0-.855,1.159-1.957,2.717-2.679.019,1.387.057,2.679.057,3.363,0,.627-.266.931-.7.931C-71.193,29.993-72.523,29.252-72.523,28.378Zm22.8-11.324v1.6h-4.085v-1.6Zm-4.085,4.37V19.695h4.085v1.729Zm5.434,1.14v-6.65h-6.821V32.463h1.387v-9.9Zm3.021,2.888v3.135h-4.465V25.452Zm1.311,4.332V24.255H-51.11v6.669h1.292v-1.14Zm-1.292-8.341V19.695h4.218v1.748Zm4.218-4.408V18.65h-4.218V17.035Zm1.425-1.121h-6.992v6.65h5.567v7.98c0,.361-.114.475-.456.475-.38.019-1.615.038-2.85-.019a6.83,6.83,0,0,1,.494,1.444,12.437,12.437,0,0,0,3.4-.247c.608-.247.836-.722.836-1.653Zm15.561,10.26v4.237h-8.721V26.174Zm-10.108,6.289h1.387v-.779h8.721v.779h1.444V24.9H-34.238Zm.988-11.191v1.254h9.519V21.272Zm3.914-6.118A21.342,21.342,0,0,1-37.3,22.146a5.136,5.136,0,0,1,.874,1.121,23.4,23.4,0,0,0,7.885-6.745A25.411,25.411,0,0,0-20.5,23.153a6.45,6.45,0,0,1,.931-1.216,22.57,22.57,0,0,1-8.341-6.783Zm24.4,1.2H-6.555a10.746,10.746,0,0,1,.1,1.425v2.717c-2.033.171-4.237.38-6.1.551.019-1.007.019-1.938.019-2.565,0-.589.038-1.1.076-1.539h-1.653A11.539,11.539,0,0,1-14,18.555c0,.323,0,1.368-.019,2.641-.912.076-1.672.152-2.147.19a18.536,18.536,0,0,1-1.976.114l.171,1.558c.513-.076,1.33-.19,1.919-.266.494-.057,1.2-.133,2.033-.228,0,1.9,0,3.914.019,4.731.1,3.021.513,4.028,4.9,4.028,1.919,0,4.237-.171,5.51-.3l.057-1.615a36.106,36.106,0,0,1-5.643.456c-3.287,0-3.325-.722-3.382-2.774-.019-.741-.019-2.717,0-4.674,1.9-.19,4.123-.418,6.08-.57-.038,1.2-.114,2.489-.209,3.116-.057.437-.266.513-.722.513a9.831,9.831,0,0,1-1.9-.247l-.038,1.311A18.824,18.824,0,0,0-6.84,26.8c.874,0,1.292-.247,1.463-1.083a28.388,28.388,0,0,0,.266-3.971c.836-.057,1.558-.095,2.128-.114.475,0,1.2-.019,1.5,0V20.151c-.456.019-.988.057-1.482.095-.627.038-1.349.076-2.109.133.019-.836.019-1.786.038-2.66C-5.016,17.32-5,16.674-4.94,16.351ZM17.9,17.909V16.5H1.121v1.406H8.379V32.425h1.5V22.431a43.317,43.317,0,0,1,6,3.781l.988-1.273a46.943,46.943,0,0,0-6.745-3.933l-.247.285V17.909Zm11.058-.38c.133.437.323,1.007.551,1.71a39.7,39.7,0,0,1-7.5-.228l.038,1.52a48.816,48.816,0,0,0,7.98.038,25.38,25.38,0,0,0,2.3,4.332c-.684-.076-2.09-.19-3.154-.285l-.114,1.273a42.945,42.945,0,0,1,4.579.513l.779-1.064c-.285-.323-.57-.646-.836-1.007a20.216,20.216,0,0,1-2.128-3.914,28.248,28.248,0,0,0,3.933-.779l-.171-1.482a24.4,24.4,0,0,1-4.237.931,22.7,22.7,0,0,1-.874-3.249l-1.615.209C28.652,16.541,28.823,17.13,28.956,17.529Zm-4.028,7.543-1.482-.342a7.407,7.407,0,0,0-.912,3.154c0,2.584,2.28,3.9,5.89,3.914a27.594,27.594,0,0,0,4.9-.418l.076-1.52a21.179,21.179,0,0,1-4.9.475c-2.812-.019-4.465-.817-4.465-2.622A4.888,4.888,0,0,1,24.928,25.072Zm17.309-7.334L40.394,17.7a8.571,8.571,0,0,1,.133,1.691c0,1.1.038,3.42.209,5.073.513,4.921,2.242,6.707,4.047,6.707,1.273,0,2.432-1.1,3.572-4.332l-1.2-1.349c-.494,1.9-1.387,3.876-2.356,3.876-1.349,0-2.28-2.109-2.584-5.282-.133-1.577-.152-3.306-.133-4.5A14.466,14.466,0,0,1,42.237,17.738Zm9.9.532-1.482.513c1.824,2.223,2.964,6.118,3.306,9.557l1.52-.627A20.419,20.419,0,0,0,52.136,18.27Zm8.55,8.094a2.9,2.9,0,1,0,2.907,2.888A2.9,2.9,0,0,0,60.686,26.364Zm0,4.826a1.929,1.929,0,1,1,1.938-1.938A1.93,1.93,0,0,1,60.686,31.19Z" transform="translate(188 9313)" fill="#01abab"/>
    <g id="Group_44" data-name="Group 44" transform="translate(30.285 9105.19)">
      <circle id="Ellipse_5" data-name="Ellipse 5" cx="69.5" cy="69.5" r="69.5" transform="translate(-0.286 -0.19)" fill="#01abab"/>
      <path id="Path_713" data-name="Path 713" d="M-6.408-18.1v1.92H-17.424V-18.1ZM-17.424-13.44v-2.04H-6.408v2.04Zm0,.672H-6.408v1.008h.24a2.092,2.092,0,0,0,1.32-.48v-5.544a1.968,1.968,0,0,0,1.032-.48L-5.76-19.752l-.888.96H-17.28l-1.68-.744v8.016h.216c.648,0,1.32-.36,1.32-.528Zm3.216,4.728h-4.08v-2.112h4.08Zm-4.08,3.624h4.08v1.9c-1.416.24-2.808.48-4.08.672Zm4.08-.7h-4.08V-7.32h4.08Zm12.624-5.04c.336,0,.528-.12.6-.384C-1.752-11.28-3.1-12.312-3.1-12.312l-1.128,1.464H-22.968l.168.7h3v8.544c-1.344.216-2.472.384-3.168.456l.96,1.968A.833.833,0,0,0-21.456.24c3.1-.888,5.472-1.632,7.248-2.232V1.872h.24c.792,0,1.272-.36,1.272-.48V-10.152Zm-3.48,2.76a15.176,15.176,0,0,1-2.016,4.1,10.588,10.588,0,0,1-2.832-4.1Zm1.032-1.7-1.032.984H-12.1l.216.72h1.464A13.1,13.1,0,0,0-7.848-2.328a14.763,14.763,0,0,1-4.392,3.48l.216.36a15.49,15.49,0,0,0,4.968-3,13.779,13.779,0,0,0,4.824,2.9A1.765,1.765,0,0,1-.816.072l.048-.264a15.641,15.641,0,0,1-5.3-2.28A14.86,14.86,0,0,0-3.216-7.224c.528-.024.768-.072.936-.312Zm26.4-3.24c.36,0,.576-.12.624-.384-.888-.816-2.352-1.968-2.352-1.968l-1.32,1.656H12.408c.192-1.968.216-4.008.264-6.072.552-.1.744-.336.816-.7l-2.568-.264c0,2.448,0,4.8-.192,7.032H1.2l.216.7h9.24C10.032-6.984,7.968-2.3.96,1.44l.264.432C9.456-1.752,11.664-6.72,12.336-12.312c.7,4.8,2.616,10.536,9.288,14.208A1.667,1.667,0,0,1,23.28.576l.048-.264C16.2-2.952,13.656-7.8,12.792-12.336Zm-79.7,37.7-.741-.4a10.905,10.905,0,0,1,3.369-4.84,7.61,7.61,0,0,1,4.56-1.4,6.393,6.393,0,0,1,3.886,1.078,4.558,4.558,0,0,1,2.179,3.639,5.914,5.914,0,0,1-1.112,3.3,16.612,16.612,0,0,1-3.9,3.729l.539-.022a6.975,6.975,0,0,1,3.38.887A6.2,6.2,0,0,1-42.6,34.085a8.847,8.847,0,0,1,.943,4.032,9.981,9.981,0,0,1-3.178,7.423,11.14,11.14,0,0,1-8.1,3.088,10.9,10.9,0,0,1-5.5-1.078,1.635,1.635,0,0,1-.966-1.415A1.166,1.166,0,0,1-59,45.282a1.347,1.347,0,0,1,.977-.382,3.192,3.192,0,0,1,1.8.809A7.592,7.592,0,0,0-51.9,47.618a6.55,6.55,0,0,0,4.941-2.347A8.412,8.412,0,0,0-44.8,39.353a7.789,7.789,0,0,0-1.449-4.863,4.438,4.438,0,0,0-3.672-1.9,5.369,5.369,0,0,0-3.459,1.572l-.539-.9q1.123-.966,2.021-1.64A17.509,17.509,0,0,0-47.807,27.7a4.5,4.5,0,0,0,.966-2.448,4.023,4.023,0,0,0-1.258-3,4.533,4.533,0,0,0-3.3-1.224Q-54.77,21.024-57.331,25.359Zm34.747-3.3q-2.505.2-4.049.2-1.141,0-2.416-.067-.693-.045-.828-.045a16.8,16.8,0,0,0-2.93.112.28.28,0,0,0-.112.225q-.068.358-.592,8a8.333,8.333,0,0,1,1.949-.73,11.657,11.657,0,0,1,2.487-.213,5.791,5.791,0,0,1,1.523.135,16.428,16.428,0,0,1,3.069,1.26,8.157,8.157,0,0,1,2.117,1.844,10.541,10.541,0,0,1,1.512,3.036,9.238,9.238,0,0,1,.493,3.013,10.155,10.155,0,0,1-.483,3.182,8.876,8.876,0,0,1-1.2,2.462,10.259,10.259,0,0,1-2.134,2.058,10.263,10.263,0,0,1-3.335,1.63,13.291,13.291,0,0,1-2.572.585l-3.257-.292a8.312,8.312,0,0,1-2.358-.73,3.7,3.7,0,0,1-1.348-.977,1.315,1.315,0,0,1-.2-.764,1.14,1.14,0,0,1,.505-.786,1.866,1.866,0,0,1,1.247-.427,1.677,1.677,0,0,1,.741.2l1.774,1.146a7.515,7.515,0,0,0,1.5,1.011,3.146,3.146,0,0,0,.674.157q1.3.18,1.415.18a6.209,6.209,0,0,0,1.685-.4,5.88,5.88,0,0,0,2.2-1.383A8.731,8.731,0,0,0-23.763,43.2a7.463,7.463,0,0,0,.73-3.318A7.419,7.419,0,0,0-25.077,34.5,6.6,6.6,0,0,0-30,32.39a6.44,6.44,0,0,0-2.37.427,3.316,3.316,0,0,0-1.471.943l-.337.135a1.193,1.193,0,0,1-.382.112l-.292-.067a4.054,4.054,0,0,1-.067-.606q0-.174.045-.608a16.79,16.79,0,0,0,.173-2.279,9.314,9.314,0,0,1,.243-2.122l-.055-1.077a11.167,11.167,0,0,0,.164-1.6q.069-5.185.441-5.951a.548.548,0,0,1,.539-.359,4.746,4.746,0,0,1,.517.045l.135.022,2.853-.022q1.932.112,2.853.112a15.821,15.821,0,0,0,3.392-.292,1.767,1.767,0,0,1,.966-.584,4.782,4.782,0,0,1,.494.045l.067.27-.18.943-.112,1.5A4.835,4.835,0,0,1-22.584,22.058Zm8.838,26.728a3.409,3.409,0,0,1,.246-.434q.141-.211.364-.586.082-.129.874-1.318t1.085-1.67q5.242-8.883,7.588-12.059l.117-.012q.55.035.62.035L-7.977,40.77l-2.333,3.855-2.7,4.137h-.082q-.059,0-.563.023ZM-11.2,36.82a4.4,4.4,0,0,1-.932,2.947,2.7,2.7,0,0,1-2.08,1.1,2.664,2.664,0,0,1-2.068-1.049,4.286,4.286,0,0,1-.9-2.877,6.115,6.115,0,0,1,.457-2.367,3.175,3.175,0,0,1,1.055-1.336,2.508,2.508,0,0,1,1.512-.516,2.526,2.526,0,0,1,1.541.539,3.589,3.589,0,0,1,1.143,1.605A5.713,5.713,0,0,1-11.2,36.82Zm-1.312.223a16.6,16.6,0,0,0-.094-2.262,2.277,2.277,0,0,0-.562-1.266,1.382,1.382,0,0,0-.984-.375,1.4,1.4,0,0,0-1.23.674,7.286,7.286,0,0,0-.445,3.275,5.305,5.305,0,0,0,.457,2.707,1.358,1.358,0,0,0,1.148.656,1.368,1.368,0,0,0,1.2-.562A5.411,5.411,0,0,0-12.515,37.043ZM.9,44.145a4.364,4.364,0,0,1-.936,2.941,2.719,2.719,0,0,1-2.082,1.09,2.663,2.663,0,0,1-2.058-1.049,4.254,4.254,0,0,1-.9-2.865,6.022,6.022,0,0,1,.468-2.379,3.141,3.141,0,0,1,1.041-1.33,2.482,2.482,0,0,1,1.509-.521,2.542,2.542,0,0,1,1.544.539A3.492,3.492,0,0,1,.622,42.188,5.445,5.445,0,0,1,.9,44.145Zm-1.312.211a14.7,14.7,0,0,0-.105-2.25,2.262,2.262,0,0,0-.56-1.271,1.386,1.386,0,0,0-.981-.369,1.4,1.4,0,0,0-1.22.668,7.18,7.18,0,0,0-.45,3.27,5.355,5.355,0,0,0,.455,2.719,1.362,1.362,0,0,0,1.156.656,1.35,1.35,0,0,0,1.179-.562A5.356,5.356,0,0,0-.41,44.355Zm12.8,4.149c4.428,0,8.82-3.168,8.82-9.684,0-6.552-4.464-9.828-8.82-9.828-4.464,0-8.856,3.276-8.856,9.828C3.536,45.336,7.928,48.5,12.392,48.5Zm0-1.44c-3.636,0-5.8-2.844-5.8-8.244,0-5.364,2.16-8.388,5.8-8.388,3.6,0,5.8,3.024,5.8,8.388C18.188,44.22,15.992,47.064,12.392,47.064ZM38.888,29.5H30.536c-.108-4.1.5-6.3,1.476-7.74a4.835,4.835,0,0,1,1.728-1.692l1.044.828a4.332,4.332,0,0,0,2.7,1.116A1.835,1.835,0,0,0,39.536,20.5c-.4-1.3-1.8-1.908-3.564-1.908a7.059,7.059,0,0,0-5.292,2.34c-1.692,1.764-2.52,4.1-2.772,8.46l-3.492.432v1.332h3.456v8.64c0,2.2-.036,4.392-.072,6.588l-3.348.468V48h9.9V46.848L30.68,46.38c-.036-2.2-.072-4.392-.072-6.588v-8.64H39.68v8.64c0,2.2-.036,4.392-.072,6.588l-3.348.468V48h9.9V46.848l-3.672-.468c-.036-2.2-.072-4.392-.072-6.588v-8.64H48V29.5H42.38c-.144-4.212.468-6.408,1.4-7.848a4.541,4.541,0,0,1,1.692-1.62l1.044.864a4.381,4.381,0,0,0,2.7,1.116A1.835,1.835,0,0,0,51.272,20.5c-.4-1.3-1.836-1.908-3.564-1.908a6.936,6.936,0,0,0-5.256,2.34c-1.728,1.8-2.484,4.248-2.736,8.46ZM55.7,48.468a2.213,2.213,0,0,0,2.232-2.2,2.214,2.214,0,0,0-4.428,0A2.2,2.2,0,0,0,55.7,48.468Zm0-27.36c-1.116,0-1.836.648-1.836,2.088,0,1.62.4,5.148.864,10.512l.432,6.336h1.116l.432-6.336c.468-5.364.864-8.892.864-10.512C57.572,21.756,56.888,21.108,55.7,21.108Z" transform="translate(67.715 44.81)" fill="#fff"/>
    </g>
    <rect id="Rectangle_48" data-name="Rectangle 48" width="4.42" height="5.1" transform="translate(25.39 9007.633) rotate(-41)" fill="#01abab"/>
    <rect id="Rectangle_60" data-name="Rectangle 60" width="4.42" height="5.1" transform="translate(339.995 9105.034) rotate(-139)" fill="#01abab"/>
    <rect id="Rectangle_50" data-name="Rectangle 50" width="4.42" height="5.1" transform="translate(70.625 8963.295) rotate(6)" fill="#13cf51"/>
    <rect id="Rectangle_59" data-name="Rectangle 59" width="4.42" height="5.1" transform="matrix(-0.995, 0.105, -0.105, -0.995, 278.646, 8889.957)" fill="#13cf51"/>
    <rect id="Rectangle_51" data-name="Rectangle 51" width="4.42" height="5.1" transform="translate(47.822 9095.539) rotate(16)" fill="#8989e1"/>
    <rect id="Rectangle_57" data-name="Rectangle 57" width="4.42" height="5.1" transform="translate(339.486 8993.781) rotate(164)" fill="#8989e1"/>
    <rect id="Rectangle_54" data-name="Rectangle 54" width="4.42" height="5.1" transform="translate(145.131 9086.004) rotate(16)" fill="#37dae6"/>
    <rect id="Rectangle_55" data-name="Rectangle 55" width="4.42" height="5.1" transform="translate(320.827 8901.025) rotate(164)" fill="#37dae6"/>
    <rect id="Rectangle_52" data-name="Rectangle 52" width="4.42" height="5.1" transform="matrix(0.423, -0.906, 0.906, 0.423, 48.826, 8900.129)" fill="#c86cda"/>
    <rect id="Rectangle_58" data-name="Rectangle 58" width="4.42" height="5.1" transform="translate(197.752 9111.161) rotate(-115)" fill="#c86cda"/>
    <rect id="Rectangle_49" data-name="Rectangle 49" width="4.42" height="5.1" transform="translate(77.926 9018.258) rotate(11)" fill="#e1ab42"/>
    <rect id="Rectangle_62" data-name="Rectangle 62" width="4.42" height="5.1" transform="translate(293.191 8946.408) rotate(11)" fill="#e1ab42"/>
    <rect id="Rectangle_61" data-name="Rectangle 61" width="4.42" height="5.1" transform="translate(168.739 8896.576) rotate(169)" fill="#e1ab42"/>
    <rect id="Rectangle_53" data-name="Rectangle 53" width="4.42" height="5.1" transform="matrix(0.839, 0.545, -0.545, 0.839, 92.535, 8884.885)" fill="#dcdc41"/>
    <rect id="Rectangle_56" data-name="Rectangle 56" width="4.42" height="5.1" transform="matrix(-0.839, 0.545, -0.545, -0.839, 297.53, 9012.385)" fill="#dcdc41"/>
    <g id="Layer_2" data-name="Layer 2" transform="translate(100.33 8915.273)">
      <g id="Group_118" data-name="Group 118" transform="translate(8.67 -5)">
        <g id="Group_115" data-name="Group 115" transform="translate(1.009 58.655)">
          <path id="Path_421" data-name="Path 421" d="M5.405,189.233a2.12,2.12,0,0,1,2.156,2.237v2.949H6.82V191.47a1.468,1.468,0,0,0-1.444-1.5,1.508,1.508,0,0,0-1.5,1.534v2.907H3.13V189.3h.741v.754a1.741,1.741,0,0,1,1.534-.825Z" transform="translate(-3.13 -186.89)" fill="#01abab"/>
          <path id="Path_422" data-name="Path 422" d="M23.855,189.311h.722v5.114h-.722v-.967a2.456,2.456,0,0,1-1.9,1.038,2.629,2.629,0,0,1-.071-5.256,2.285,2.285,0,0,1,1.972.944Zm-1.982,4.463a1.907,1.907,0,1,0-1.85-1.911A1.874,1.874,0,0,0,21.873,193.774Z" transform="translate(-14.116 -186.897)" fill="#01abab"/>
          <path id="Path_423" data-name="Path 423" d="M41.872,184.39v.741H40.815V189.5h-.741v-4.373H39.2v-.741h.873v-2.41h.741v2.41Z" transform="translate(-27.576 -181.977)" fill="#01abab"/>
          <path id="Path_424" data-name="Path 424" d="M54.783,189.46h.741v5.114h-.741v-.722a1.654,1.654,0,0,1-1.547.793,2.164,2.164,0,0,1-2.156-2.237V189.46h.741v2.949a1.468,1.468,0,0,0,1.444,1.5c1.515,0,1.515-1.618,1.515-1.618V189.46Z" transform="translate(-35.627 -187.046)" fill="#01abab"/>
          <path id="Path_425" data-name="Path 425" d="M71.9,189.24H72l-.406.764a2.163,2.163,0,0,0-1.618,1.566v2.858H69.23v-5.114h.741v.864a2.384,2.384,0,0,1,1.934-.935Z" transform="translate(-47.928 -186.897)" fill="#01abab"/>
          <path id="Path_426" data-name="Path 426" d="M84.155,189.311h.722v5.114h-.722v-.967a2.456,2.456,0,0,1-1.9,1.038,2.629,2.629,0,0,1-.071-5.256,2.285,2.285,0,0,1,1.972.944Zm-1.982,4.463a1.907,1.907,0,1,0-1.85-1.911A1.874,1.874,0,0,0,82.173,193.774Z" transform="translate(-54.984 -186.897)" fill="#01abab"/>
          <path id="Path_427" data-name="Path 427" d="M100.991,189.5h-.741V181.98h.741Z" transform="translate(-68.952 -181.977)" fill="#01abab"/>
          <path id="Path_428" data-name="Path 428" d="M119.565,189.311h.722v5.114h-.722v-.967a2.456,2.456,0,0,1-1.9,1.038,2.629,2.629,0,0,1-.071-5.256,2.285,2.285,0,0,1,1.972.944Zm-1.982,4.463a1.907,1.907,0,1,0-1.85-1.911A1.874,1.874,0,0,0,117.583,193.774Z" transform="translate(-78.982 -186.897)" fill="#01abab"/>
          <path id="Path_429" data-name="Path 429" d="M139.315,189.324h.722V194a2.684,2.684,0,0,1-5.185,1.08l.693-.213a1.729,1.729,0,0,0,1.831,1.2,1.83,1.83,0,0,0,1.943-2.024V193.5a2.285,2.285,0,0,1-2.024,1.018,2.629,2.629,0,0,1-.013-5.256,2.516,2.516,0,0,1,2.033,1.028v-.957Zm-2.033,4.463a1.906,1.906,0,1,0-1.882-1.9A1.888,1.888,0,0,0,137.282,193.788Z" transform="translate(-92.306 -186.911)" fill="#01abab"/>
          <path id="Path_430" data-name="Path 430" d="M158.82,193.075l.528.5a3.183,3.183,0,0,1-2.127.915,2.575,2.575,0,0,1-2.572-2.585,2.512,2.512,0,1,1,5.014,0v.306h-4.251a1.84,1.84,0,0,0,1.811,1.547,2.214,2.214,0,0,0,1.6-.68Zm-1.627-3.152a1.707,1.707,0,0,0-1.779,1.586H158.9A1.644,1.644,0,0,0,157.193,189.923Z" transform="translate(-105.82 -186.89)" fill="#01abab"/>
          <path id="Path_431" data-name="Path 431" d="M174.371,183.433h-.751V181.98h.751Zm0,6.071h-.751V184.39h.751Z" transform="translate(-118.677 -181.977)" fill="#01abab"/>
          <path id="Path_432" data-name="Path 432" d="M181.645,189.233a2.12,2.12,0,0,1,2.156,2.237v2.949h-.741V191.47a1.468,1.468,0,0,0-1.444-1.5,1.508,1.508,0,0,0-1.505,1.534v2.907h-.741V189.3h.741v.754a1.741,1.741,0,0,1,1.534-.825Z" transform="translate(-122.574 -186.89)" fill="#01abab"/>
          <path id="Path_433" data-name="Path 433" d="M200.2,189.324h.722V194a2.684,2.684,0,0,1-5.185,1.08l.693-.213a1.729,1.729,0,0,0,1.831,1.2,1.83,1.83,0,0,0,1.943-2.024V193.5a2.286,2.286,0,0,1-2.024,1.018,2.629,2.629,0,0,1-.013-5.256,2.516,2.516,0,0,1,2.033,1.028v-.957Zm-2.033,4.463a1.906,1.906,0,1,0-1.882-1.9A1.888,1.888,0,0,0,198.162,193.788Z" transform="translate(-133.567 -186.911)" fill="#01abab"/>
          <path id="Path_434" data-name="Path 434" d="M228.3,184.3a2.633,2.633,0,0,1,.023,5.266,2.573,2.573,0,0,1-2.033-1.067v1h-.722V181.97h.722v3.387a2.361,2.361,0,0,1,2.014-1.057Zm.019,4.547a1.911,1.911,0,1,0-1.892-1.911A1.9,1.9,0,0,0,228.322,188.847Z" transform="translate(-153.885 -181.97)" fill="#01abab"/>
          <path id="Path_435" data-name="Path 435" d="M248.72,193.075l.529.5a3.184,3.184,0,0,1-2.127.915,2.575,2.575,0,0,1-2.572-2.585,2.512,2.512,0,1,1,5.014,0v.306h-4.251a1.84,1.84,0,0,0,1.811,1.547,2.214,2.214,0,0,0,1.6-.68Zm-1.628-3.152a1.707,1.707,0,0,0-1.779,1.586H248.8A1.644,1.644,0,0,0,247.093,189.923Z" transform="translate(-166.749 -186.89)" fill="#01abab"/>
          <path id="Path_436" data-name="Path 436" d="M267.1,189.311h.722v5.114H267.1v-.967a2.456,2.456,0,0,1-1.9,1.038,2.629,2.629,0,0,1-.071-5.256,2.285,2.285,0,0,1,1.972.944Zm-1.982,4.463a1.907,1.907,0,1,0-1.85-1.911A1.874,1.874,0,0,0,265.113,193.774Z" transform="translate(-178.968 -186.897)" fill="#01abab"/>
          <path id="Path_437" data-name="Path 437" d="M286.883,189.46h.741v5.114h-.741v-.722a1.654,1.654,0,0,1-1.547.793,2.164,2.164,0,0,1-2.156-2.237V189.46h.741v2.949a1.468,1.468,0,0,0,1.444,1.5c1.515,0,1.515-1.618,1.515-1.618V189.46Z" transform="translate(-192.93 -187.046)" fill="#01abab"/>
          <path id="Path_438" data-name="Path 438" d="M303.252,184.39v.741h-1.057V189.5h-.741v-4.373h-.874v-.741h.874v-2.41h.741v2.41Z" transform="translate(-204.722 -181.977)" fill="#01abab"/>
          <path id="Path_439" data-name="Path 439" d="M315.185,189.46h.8l-3.368,7.506h-.8l1.077-2.4-2.014-5.1h.8l1.637,4.16,1.86-4.16Z" transform="translate(-211.703 -187.046)" fill="#01abab"/>
        </g>
        <g id="Group_116" data-name="Group 116" transform="translate(106.766 58.021)">
          <path id="Path_440" data-name="Path 440" d="M344.055,184.847a2.317,2.317,0,0,0-.551.757,30.374,30.374,0,0,1-1.718,3.19c.654.532,2.433,1.882,2.433,3.455a1.2,1.2,0,0,1-1.083,1.228c-.512,0-.715-.306-1.247-1.041-.451-.612-1.228-1.718-1.35-1.859a16.858,16.858,0,0,1-9.159,6.316l-.08-.164a25.123,25.123,0,0,0,7.889-7.605,22.292,22.292,0,0,0-4.5-3,13.526,13.526,0,0,1,5.337,1.573,19.61,19.61,0,0,0,1.718-4.128c0-.7-1.144-1.105-1.473-1.205a2.48,2.48,0,0,1,1.37-.429c1.412,0,3,1.573,3,2.208,0,.226-.142.329-.593.715Z" transform="translate(-331.3 -181.308)" fill="#01abab"/>
          <path id="Path_441" data-name="Path 441" d="M397.157,186.175a1.838,1.838,0,0,0-.857.409,30.809,30.809,0,0,1-3.864,2.7l-.122-.1a17.665,17.665,0,0,0,2.249-3.841c-1.7.47-3.516,1.063-5.253,1.634-.042.551-.142,2.494-.142,4.212,0,1.35.142,1.943,2.188,1.943a15.632,15.632,0,0,0,3.271-.409,2.946,2.946,0,0,1,.612-.081,3.387,3.387,0,0,1,1.737.49.82.82,0,0,1,.287.654c0,1.041-1.614,1.247-3.967,1.247-5.927,0-5.907-1.167-5.785-7.483a20.355,20.355,0,0,0-2.965,1.37,1.247,1.247,0,0,1-.635.226c-.8,0-1.982-1.35-1.982-2.575a3.03,3.03,0,0,1,.2-1.125c.512.9.9,1.473,1.882,1.473a20.158,20.158,0,0,0,3.535-.757,27.312,27.312,0,0,0-.2-4.518c-.287-.635-1.289-.8-1.8-.88A2.864,2.864,0,0,1,387.37,180c.635,0,2.7.39,2.7,1.186,0,.1-.245.941-.245.96a28.282,28.282,0,0,0-.409,3.5c1.737-.49,5.111-1.431,5.233-1.511.2-.122.574-.39.819-.574a.381.381,0,0,1,.245-.081,8.2,8.2,0,0,1,1.921,1.247c.287.225.574.429.574.777,0,.39-.1.429-1.044.673Z" transform="translate(-365.614 -180)" fill="#01abab"/>
          <path id="Path_442" data-name="Path 442" d="M444.85,186.874c-.08.367-.428,2.881-.532,3.435a9.392,9.392,0,0,1-5.375,7.074l-.123-.123a14.061,14.061,0,0,0,3.967-10.322c0-1.289-.348-1.389-1.676-1.8a3.668,3.668,0,0,1,1.614-.574c.654,0,2.411.654,2.411,1.37,0,.164-.264.8-.287.941Zm5.888,7.606c-.39.306-2.066,1.615-2.391,1.9-.39.306-.47.325-.551.325-.512,0-1.553-1.8-1.553-2.288a12.224,12.224,0,0,1,.325-1.205c.1-.574.2-3.29.2-4.782a21.143,21.143,0,0,0-.267-4.231c-.287-.512-1.144-.7-1.534-.8a2.588,2.588,0,0,1,1.411-.593c.715,0,2.72.735,2.72,1.492a12.281,12.281,0,0,1-.367,1.228c-.184.88-.429,6.316-.429,7.583,0,.164.042.306.183.306.777,0,4.866-2.923,7.441-6.133l.142.122a15.876,15.876,0,0,1-5.333,7.074Z" transform="translate(-404.17 -181.904)" fill="#01abab"/>
        </g>
        <g id="Group_117" data-name="Group 117" transform="translate(0 0)">
          <path id="Path_443" data-name="Path 443" d="M12.874,7.865l.777-.983c.155-.19.206-.226.277-.226.1,0,.19.087.329.206l1.121.964a.385.385,0,0,1,.155.277c0,.155-.139.171-.258.171H7.364l.844.242c.155.052.345.1.345.329,0,.171-.087.226-.4.432a4.778,4.778,0,0,1-.206,1.292h4.773l.654-.86c.155-.19.206-.226.277-.226.052,0,.1,0,.345.206l1.051.844a.386.386,0,0,1,.19.277c0,.155-.155.174-.258.174H8.363c.983,1.689,3.551,3.084,6.465,3.084.226,0,.4,0,.844-.035v.139a2.888,2.888,0,0,0-1.6,1.724,7.577,7.577,0,0,1-6.12-4.911H7.831C6.4,14.913,3.161,15.519.3,15.725v-.139c3.084-.6,5.411-2.707,5.946-4.6H2.156A10.211,10.211,0,0,0,.293,11.1L0,10.466c1.051.1,2.275.1,2.465.1H6.342A7.566,7.566,0,0,0,6.6,8.809a3.416,3.416,0,0,0-.052-.535H2.291a10.211,10.211,0,0,0-1.863.119L.151,7.756c1.051.1,2.259.1,2.446.1H6.629V5.774H3.838a10.211,10.211,0,0,0-1.863.119L1.7,5.255c1.051.1,2.259.1,2.446.1H6.626V3.685H2.884a10.725,10.725,0,0,0-1.863.1L.744,3.167c1.034.087,2.259.1,2.446.1h5.2A7.708,7.708,0,0,0,9.481-.04L11.324,1.1c.139.087.226.139.226.309,0,.226-.155.258-.587.345-.674.516-.828.622-2.188,1.518h3.361l.741-.931c.139-.171.174-.206.258-.206.122,0,.226.1.329.19l1,.9c.087.087.174.171.174.277,0,.155-.155.19-.277.19H8.086V5.358h2.672l.535-.725c.1-.155.155-.226.258-.226.087,0,.119.035.329.19l.931.741a.325.325,0,0,1,.174.258c0,.155-.139.171-.258.171H8.089V7.852h4.773ZM3.239.3C5.221.543,6.374,1.491,6.374,2.4a.781.781,0,0,1-.777.86c-.483,0-.6-.258-.983-1A4.92,4.92,0,0,0,3.184.437L3.236.3Z" transform="translate(0 0.04)" fill="#01abab"/>
          <path id="Path_444" data-name="Path 444" d="M59.9,7.986H54.623c.016.809-.016,2.362-.087,3.239.5-.38,2.465-2.069,2.759-3.052l1.257.947a.386.386,0,0,1,.19.277c0,.242-.361.258-.757.258a12.655,12.655,0,0,1-3.464,1.792,8.266,8.266,0,0,1-2.311,5.462l-.119-.052c1.189-1.586,1.189-5.93,1.189-6.861a16.979,16.979,0,0,0-.242-3.12l1.76.69h1.76a8.886,8.886,0,0,0,.674-2.636c0-.155-.016-.4-.035-.706l1.724.725c.226.087.329.155.329.329,0,.139-.016.226-.6.412A24.3,24.3,0,0,1,56.9,7.571h1.344l.516-.587q.19-.206.258-.206c.122,0,.277.139.329.174l.638.567c.016.016.174.174.174.277,0,.155-.139.19-.258.19ZM59.76,3.935H54.8a8.886,8.886,0,0,0-1.863.119l-.293-.638c1.051.1,2.275.1,2.465.1h.638a4.849,4.849,0,0,0-.432-2.24l1.776.448c.38.1.4.19.4.329,0,.119,0,.171-.4.432V3.523h.967l.464-.6c.155-.206.206-.206.258-.206.087,0,.139.035.309.171l.757.6a.325.325,0,0,1,.174.258c0,.171-.139.19-.258.19Zm-.4,9.426A11.69,11.69,0,0,1,53.795,16.1v-.119A16.5,16.5,0,0,0,57.6,13.207a10.1,10.1,0,0,0,1.154-1.363l1.173.947a.267.267,0,0,1,.119.242c0,.258-.1.277-.69.329Zm-4.138-6.1c-.5,0-.654-.258-.809-1.051a5.681,5.681,0,0,0-.567-1.724l.052-.1c.6.171,2.12.844,2.12,2.033a.761.761,0,0,1-.793.844Zm3.809,4.067a10.211,10.211,0,0,1-4.515,2.137v-.087c2.208-1.4,3.687-2.913,3.861-3.551l1.121.9a.612.612,0,0,1,.19.329c0,.206-.226.242-.654.277Zm8.479-8.221H64.291a11.838,11.838,0,0,1-1.55,2.275h2.275l.587-.535c.1-.1.19-.19.293-.19a.673.673,0,0,1,.345.19l.725.551c.122.087.174.139.174.242,0,.139-.016.226-.464.638.016.432,0,.516.016,1.241.035,1.379.122,4.119.139,5.256a.819.819,0,0,1-.88.9c-.619,0-.638-.242-.638-.587H61.8a.469.469,0,0,1-.035.258l1.205,1.034a.45.45,0,0,1,.171.293c0,.206-.087.206-.741.19a12.463,12.463,0,0,1-5.153,1.879l-.016-.119A15.764,15.764,0,0,0,61.5,13.639a1.13,1.13,0,0,1-.57.155c-.535,0-.535-.226-.535-.432,0-.86.052-5.085.052-6.049a15.758,15.758,0,0,0-.174-2.723l1.7.793h.432a20.817,20.817,0,0,0,.1-2.275h-.4a8.391,8.391,0,0,0-1.863.119l-.277-.638c.809.068,1.621.1,2.446.1h3.052l.587-.777c.155-.19.206-.226.277-.226.087,0,.155.068.309.19l.967.777c.052.052.171.139.171.258,0,.174-.171.19-.277.19ZM65.306,5.795H61.774V7.777h3.532Zm0,2.394H61.774v1.982h3.532Zm0,2.394H61.774v2.085h3.532Zm1.534,6.223c-.483,0-.654-.258-1.225-1.086a12.675,12.675,0,0,0-1.895-2.05l.068-.087c2.414.38,3.774,1.518,3.774,2.517a.678.678,0,0,1-.725.706Z" transform="translate(-35.303 -0.855)" fill="#01abab"/>
          <path id="Path_445" data-name="Path 445" d="M107.138,24a1.518,1.518,0,1,1,1.518-1.518A1.51,1.51,0,0,1,107.138,24Z" transform="translate(-71.582 -14.192)" fill="#01abab"/>
          <path id="Path_446" data-name="Path 446" d="M124.481,2.314l.638-.412a.74.74,0,0,1,.309-.119.248.248,0,0,1,.206.119l.809.983a.709.709,0,0,1,.155.345c0,.309-.5.4-.741.448a21.715,21.715,0,0,1-3.084,3.774,9.768,9.768,0,0,1-4.447,2.585l-.035-.1a20.421,20.421,0,0,0,3.98-3.654c-.174,0-.4,0-.725-.483a7.556,7.556,0,0,0-1.431-1.74l.035-.139c1.1.052,2.636.277,2.842,1.4a13.035,13.035,0,0,0,1.482-2.585h-1.7a9.789,9.789,0,0,0-1.863.119l-.277-.638c.809.068,1.637.1,2.446.1h1.4Zm.809,9.168c-.432,3.706-2.465,4.844-5.672,5.43l-.068-.174c3.532-1.257,4-3.136,4.257-5.256h-1.673a10.725,10.725,0,0,0-1.863.1l-.277-.622c1.034.087,2.259.1,2.446.1h1.415c0-.052.1-1.308.087-2.414a7.629,7.629,0,0,0-1.328.1l-.277-.638c1.034.1,2.259.1,2.446.1h2.656l.809-.931c.171-.19.19-.206.258-.206.087,0,.174.052.329.171l1.138.947c.087.068.174.139.174.258,0,.155-.139.174-.258.174H128.37c0,.4.035,2.085.035,2.43h1.412l.741-1.018c.068-.087.155-.226.258-.226.087,0,.119.035.329.19l1.292,1.018a.363.363,0,0,1,.171.258c0,.155-.155.19-.277.19H128.4c.016.516-.016,2.862.068,3.239.068.329.087.432,1.879.432,1.292,0,1.447-.309,1.586-.587a20.7,20.7,0,0,0,.86-2.362h.155c.016,1.447.035,1.946.293,2.378.052.087.413.4.413.483a1.9,1.9,0,0,1-.638.983c-.4.38-.9.535-2.62.535-2.946,0-3.31-.4-3.377-1.7C127,14.461,127,12,127,11.476H125.28Zm1.724-.413V8.641h-1.637a22.582,22.582,0,0,1-.035,2.43Zm5.343-6.826c.206.174.242.258.242.309,0,.242-.206.258-.757.242-.258.119-1.4.57-2.1.844a9.147,9.147,0,0,0,5.24,2.224V8a3.325,3.325,0,0,0-1.792,1.55,9.39,9.39,0,0,1-4.032-3,11.44,11.44,0,0,1-2.707-4.879l.19-.068A8.019,8.019,0,0,0,128,3.813a6.168,6.168,0,0,0,1.379-2.533l1.4,1.07c.171.119.242.171.242.309,0,.206-.242.258-.361.258a.66.66,0,0,1-.242-.035,17.43,17.43,0,0,1-2.153,1.257,13.815,13.815,0,0,0,1.154,1.205,5.129,5.129,0,0,0,1.518-2.24l1.431,1.138Z" transform="translate(-80.169 -0.855)" fill="#01abab"/>
          <path id="Path_447" data-name="Path 447" d="M176.115,6.965a10.256,10.256,0,0,0-1.827.309l-.361-.587c.947-.035,2.207-.139,2.446-.174l2.965-.329.036-2.655a27.408,27.408,0,0,1-4.876.464c-.741,0-1.225-.035-1.637-.052V3.787a56.481,56.481,0,0,0,9.652-2.311c1.518-.483,1.637-.622,1.947-.967l1.308,1.257c.122.119.19.19.19.277,0,.242-.226.242-.293.242-.087,0-.464-.052-.551-.052-1.018.242-2.224.516-2.929.674-.38.087-1.07.242-1.344.293l-.068,2.826,3.119-.329.535-.947c.139-.242.171-.309.293-.309a.7.7,0,0,1,.329.171l1.138.777c.119.087.206.139.206.277,0,.119-.119.155-.242.174l-5.395.6c-.036,1.173-.052,2.465-.068,3.5l4.534-.516.69-1.07c.087-.139.155-.258.258-.258a.571.571,0,0,1,.329.155l1.205.86c.119.087.19.155.19.277,0,.139-.155.171-.242.19l-6.98.777c-.016.622-.052,3.1-.052,3.567,0,.38.068.516.345.6.258.068,2.1.087,2.517.087,2.275,0,2.43-.206,2.759-.983a6.736,6.736,0,0,0,.567-1.946h.139a12.062,12.062,0,0,0,.551,2.121,3.752,3.752,0,0,1,.483.777,1.577,1.577,0,0,1-.793.967,12.537,12.537,0,0,1-3.98.448c-3.377,0-4-.293-4-2,0-.258.052-2.929.068-3.48l-4.222.464a9.6,9.6,0,0,0-1.843.329l-.345-.587c.983-.035,2.275-.155,2.446-.171l3.964-.448c0-.551.052-3,.052-3.5l-3.207.361Z" transform="translate(-117.153 -0.333)" fill="#01abab"/>
        </g>
        <path id="Path_448" data-name="Path 448" d="M32,64.33a10.684,10.684,0,0,0-8.756,4.57A10.669,10.669,0,0,0,7.67,66.8v-.416H3.8V96.869H7.667V75.02a6.822,6.822,0,0,1,13.645,0v21.85h3.867V75.02a6.822,6.822,0,0,1,13.645,0v21.85h3.867V75.02A10.7,10.7,0,0,0,32,64.33Z" transform="translate(-2.575 -43.586)" fill="#01abab"/>
        <path id="Path_449" data-name="Path 449" d="M151.755,93.717a17.124,17.124,0,1,1,12.111-29.233l.876.931L143.379,86.891a14.837,14.837,0,0,0,8.376,3,13.207,13.207,0,0,0,9.4-3.893,7.281,7.281,0,0,0,1.041-1.17l3.838,1.337a26.174,26.174,0,0,1-2.172,2.543,17.007,17.007,0,0,1-12.107,5.014Zm0-30.422a13.3,13.3,0,0,0-13.3,13.293,12.477,12.477,0,0,0,2.365,7.783l18.633-18.624a12.321,12.321,0,0,0-7.7-2.456Z" transform="translate(-91.244 -40.292)" fill="#01abab"/>
        <path id="Path_450" data-name="Path 450" d="M248.15,58.9l-.322-.006a11.479,11.479,0,0,1-9.977-7.264l3.487-1.528a7.81,7.81,0,0,0,6.655,4.924,6.956,6.956,0,0,0,3.178-13.055l-9.3-5.092A16.1,16.1,0,0,1,233.5,22.75a14.66,14.66,0,0,1,29.055-2.775l.267,1.386L259.01,22.7l-.251-2a10.794,10.794,0,0,0-21.392,2.043,12.228,12.228,0,0,0,6.358,10.731l9.3,5.092a10.824,10.824,0,0,1-4.876,20.312h0Z" transform="translate(-158.251 -5.47)" fill="#01abab"/>
        <path id="Path_451" data-name="Path 451" d="M357.611,11.967V8.1H332.4V58.9h25.211V55.035H336.267v-19.6h21.344V31.567H336.267v-19.6Z" transform="translate(-225.279 -5.477)" fill="#01abab"/>
        <path id="Path_452" data-name="Path 452" d="M443.69,58.217H420.88V54.35h18.943V7.09h3.867Z" transform="translate(-285.245 -4.792)" fill="#01abab"/>
      </g>
    </g>
  </g>
</svg>
