<svg xmlns="http://www.w3.org/2000/svg" width="323" height="197" viewBox="0 0 323 197">
  <g id="Group_391" data-name="Group 391" transform="translate(-469 -8450.999)">
    <g id="Group_61" data-name="Group 61" transform="translate(480.29 8575.577)">
      <ellipse id="Ellipse_8" data-name="Ellipse 8" cx="42" cy="41.5" rx="42" ry="41.5" transform="translate(-11.29 -10.578)" fill="#ccc"/>
      <path id="Path_710" data-name="Path 710" d="M-10.62-8.208a2.994,2.994,0,0,1,1.188,1.5c.828.516,1.38-1.152-1.08-1.608Zm3.648,5.016c.012-.156.012-.3.012-.456V-5.232h1.836v2.04Zm5.9,1.488h-.144C-1.344-1.068-1.488-.42-1.56-.24A.259.259,0,0,1-1.8-.1c-.156,0-.528.012-1.008.012H-3.864c-.444,0-.492-.072-.492-.276V-2.844h2.94c.168,0,.276-.06.312-.192C-1.512-3.408-2.136-3.9-2.136-3.9l-.564.708H-4.356v-2.04h1.272a.287.287,0,0,0,.312-.192c-.36-.336-.936-.8-.936-.8l-.5.66H-9.228A8.479,8.479,0,0,0-6.384-8.82c.288-.012.42-.036.516-.156l-.876-.78-.54.492h-2.964l.108.348H-7.3A9.322,9.322,0,0,1-11.532-4.6l.108.168A9.6,9.6,0,0,0-9.24-5.556l.1.324h1.4v1.6c0,.144-.012.3-.012.444H-10.92l.108.348H-7.8C-7.98-1.536-8.724-.3-11.076.732l.108.192C-7.992.012-7.2-1.44-7.008-2.844h1.884V-.18c0,.612.2.816,1.116.816h1.176C-1.056.636-.684.5-.684.156c0-.168-.072-.264-.348-.348Zm-.516-6.912a13.3,13.3,0,0,1-1.6,1.608A7.639,7.639,0,0,1-4.2-7.956,12.1,12.1,0,0,0-2.328-9.144c.264.072.36.036.444-.084l-1-.6A13.07,13.07,0,0,1-4.392-8.172a6.691,6.691,0,0,1-1.116-1.9l-.2.12A8.38,8.38,0,0,0-1.1-4.7.908.908,0,0,1-.36-5.352l.024-.132A9.473,9.473,0,0,1-2.928-6.816,12.787,12.787,0,0,0-1.02-7.92c.252.06.36.012.444-.1ZM11.292-3.792a.275.275,0,0,0,.276-.228c-.48-.348-1.3-.816-1.3-.816L9.7-3.96l-3.84.444V-5.724l4.476-.564a.3.3,0,0,0,.276-.24c-.48-.324-1.272-.792-1.272-.792l-.552.864-2.928.372v-2.16A34.518,34.518,0,0,0,9.42-9.156c.3.12.528.108.636,0l-.948-.8A34.648,34.648,0,0,1,.96-7.764l.048.24a38.331,38.331,0,0,0,4.056-.564v2.112L.972-5.46l.132.324,3.96-.492V-3.42L.48-2.88l.132.336L5.064-3.06V-.48c0,.828.372,1.032,1.548,1.032H8.376C10.9.552,11.4.432,11.4.024c0-.168-.1-.276-.408-.372l-.036-1.944H10.8A15.07,15.07,0,0,1,10.356-.42a.36.36,0,0,1-.336.2C9.768-.192,9.2-.18,8.4-.18H6.684c-.708,0-.828-.12-.828-.456v-2.52ZM-28.188,8.324c.432.252.7.42.7.744A10.441,10.441,0,0,1-29.076,12.1a16.827,16.827,0,0,0-3.1-1.572l-.168.276a20.759,20.759,0,0,1,2.808,1.908,17.162,17.162,0,0,1-4.992,4.2l.156.24a13.684,13.684,0,0,0,5.4-3.96c1.56,1.392,1.632,2.184,2.112,2.184.276,0,.408-.216.408-.492-.012-.624-1.128-1.692-2.016-2.364.744-1.008,1.416-2.22,1.656-2.616.2-.372.48-.408.48-.636,0-.312-.42-.756-.84-.972a2.371,2.371,0,0,0-.936-.192Zm13.9,1.908c.168-.4.516-.456.516-.708,0-.324-.684-.96-1.2-1.044a3.455,3.455,0,0,0-.78-.024l-.1.264c.864.288.912.468.816.84A13.757,13.757,0,0,1-21.312,17.1l.192.264A13.2,13.2,0,0,0-14.292,10.232Zm-6.252.48c.528.78.7,1.38,1.068,1.368.252,0,.42-.228.42-.528-.024-.876-1.368-1.968-2.592-2.544l-.18.24A8.382,8.382,0,0,1-20.544,10.712Zm16.068,2.832a15.93,15.93,0,0,0,2.328-1.98c.276-.276.624-.312.624-.564,0-.288-.816-.936-1.164-.936-.18,0-.264.216-.612.312-.708.2-2.232.624-3.264.924.048-.78.1-1.452.144-1.8s.288-.5.288-.78S-6.912,8-7.344,8a2.887,2.887,0,0,0-.888.156l.012.228c.588.084.948.156.972.456.036.48,0,1.68-.024,2.664a20.215,20.215,0,0,1-2.892.744c-.3,0-.492-.24-.732-.6l-.192.072a1.352,1.352,0,0,0,.072.636,1.9,1.9,0,0,0,1.092.828c.336,0,.348-.168.78-.36.5-.216,1.284-.492,1.86-.684-.024.792-.06,1.98-.036,2.808.024,1.584.744,1.692,2.628,1.692a14.776,14.776,0,0,0,2.388-.2c.324-.048.552-.156.552-.372,0-.312-.48-.456-.8-.456a11.927,11.927,0,0,1-2.5.264c-1.464,0-1.584-.1-1.608-1.08-.012-.708.024-1.836.072-2.892,1.08-.36,2.916-.948,3.576-1.056.168-.024.216.06.132.2a12.376,12.376,0,0,1-1.8,2.292Zm6.84-2.088c.12.288.648.78.936.78.264,0,.432-.216.8-.3.816-.168,3.444-.552,4.416-.648.156-.024.192.048.144.192a11.481,11.481,0,0,1-5.532,5.8l.168.276a10.8,10.8,0,0,0,6.1-5.46c.144-.3.612-.432.612-.66,0-.3-.732-.912-1.092-.912-.2,0-.312.18-.648.228-.84.12-4.332.576-5.04.576-.348,0-.552-.276-.8-.648l-.228.108A2.9,2.9,0,0,0,2.364,11.456ZM8.736,8.528c0-.288-.408-.456-.924-.456-.252,0-.408.192-1.116.348A8.733,8.733,0,0,1,4.74,8.7a1.867,1.867,0,0,1-1.152-.48l-.18.156c.4.636.732.972,1.344.972a21.319,21.319,0,0,0,3.456-.456C8.592,8.8,8.736,8.7,8.736,8.528Zm10.9,1.5a1.343,1.343,0,0,1,.288.4c.1.2.06.3-.144.456a16.8,16.8,0,0,1-4.008,1.956c.048-1.152.108-2.412.168-2.928.036-.372.264-.42.264-.648,0-.288-.7-.744-1.188-.768a3.121,3.121,0,0,0-.852.156l.012.216c.624.084.888.156.936.492.06.564-.084,4.512-.072,5.58.012,1.692.324,2.052,2.472,2.052a15.42,15.42,0,0,0,3.564-.288c.228-.084.4-.192.4-.432,0-.276-.36-.408-.924-.408a15.916,15.916,0,0,1-3.12.384c-1.44,0-1.7-.084-1.7-1.26,0-.312.012-.948.036-1.668a27.742,27.742,0,0,0,4.524-1.764c.456-.24.768-.312.768-.552a1.609,1.609,0,0,0-.672-.924,1.375,1.375,0,0,0-.564-.2Zm2.448-.144A.889.889,0,0,1,21.18,9a.894.894,0,1,1,1.788,0A.886.886,0,0,1,22.08,9.884Zm0-2.172A1.284,1.284,0,1,0,23.364,9,1.3,1.3,0,0,0,22.08,7.712ZM24.792,12a2.129,2.129,0,0,0,.108.672c.168.408.732,1,1.068,1s.48-.18,1.164-.252c.9-.108,4.272-.288,5.028-.288.732,0,1.152.024,1.572.024s.528-.132.528-.348c0-.324-.54-.528-1-.528-.312,0-.648.072-1.452.132-.552.024-4.752.3-5.82.3-.5,0-.7-.372-.96-.78Z" transform="translate(30.71 28.422)" fill="#707070"/>
    </g>
    <g id="Group_360" data-name="Group 360" transform="translate(513.29 8492.577)">
      <ellipse id="Ellipse_8-2" data-name="Ellipse 8" cx="42" cy="41.5" rx="42" ry="41.5" transform="translate(-11.29 -10.578)" fill="#ccc"/>
      <path id="Path_709" data-name="Path 709" d="M-15.276-6.876a19.816,19.816,0,0,0,1.128-2.556c.276.012.42-.084.468-.216l-1.248-.4a20.908,20.908,0,0,1-2.628,6l.168.12a11.093,11.093,0,0,0,1.428-1.8V.924h.144A.836.836,0,0,0-15.192.66V-6.48c.216-.036.324-.108.36-.228Zm8.436,4.6H-7A8.908,8.908,0,0,1-7.464-.492c-.072.12-.144.168-.348.192-.276.036-.924.048-1.824.048h-1.92c-.8,0-.936-.144-.936-.516V-5.58l1.752-.612V-1.26h.156c.276,0,.6-.18.6-.288V-6.456l1.992-.7C-8.028-4.7-8.1-3.468-8.34-3.216c-.072.084-.156.108-.336.108-.2,0-.8-.048-1.14-.084l-.012.2a2,2,0,0,1,.816.276.729.729,0,0,1,.168.552,1.6,1.6,0,0,0,1.068-.384c.384-.42.5-1.692.528-4.5a.75.75,0,0,0,.48-.192l-.912-.732-.444.48-.048.012-1.812.636v-2.6c.312-.036.42-.156.444-.324l-1.2-.144v3.336l-1.752.612v-2.52c.276-.036.4-.168.408-.324l-1.188-.144v3.264l-1.584.552.24.3,1.344-.468V-.6c0,.864.408,1.08,1.668,1.08H-9.66C-6.936.48-6.4.372-6.4-.072c0-.168-.1-.24-.42-.348ZM.336-2.736V-4.62H3.072v1.884ZM-3.072-4.62H-.456v1.884H-3.072ZM-.456-6.792v1.824H-3.072V-6.792Zm3.528,0v1.824H.336V-6.792ZM4.14-2.736H3.852v-3.84a1.118,1.118,0,0,0,.624-.288l-1.1-.828-.444.54H.336v-1.56H4.98c.168,0,.288-.06.324-.192-.432-.4-1.1-.9-1.1-.9l-.588.732H-5.232l.108.36H-.456v1.56H-2.928l-.924-.4v4.812H-5.568l.1.348h1.62V.936h.12c.4,0,.66-.2.66-.288V-2.388H3.072V-.36c0,.2-.072.288-.324.288-.3,0-1.788-.12-1.788-.12V0A2.97,2.97,0,0,1,2.172.336a.746.746,0,0,1,.3.588C3.72.792,3.852.384,3.852-.252V-2.388H5.328c.156,0,.276-.06.3-.18-.36-.36-.972-.864-.972-.864ZM15.768.072H12.384V-3.42h3.7c.168,0,.288-.06.312-.18-.432-.384-1.116-.912-1.116-.912l-.624.756H12.384V-6.8H16.5c.168,0,.288-.06.324-.192a13.358,13.358,0,0,0-1.116-.9l-.612.744H12.384V-9.564c.288-.048.384-.168.42-.336l-1.248-.144v2.892H9.06A14.422,14.422,0,0,0,9.9-9c.264.012.42-.1.468-.24l-1.26-.4a15.656,15.656,0,0,1-2.664,5.5l.156.12A10.642,10.642,0,0,0,8.856-6.8h2.7v3.048H7.86l.1.336h3.6V.072H6.516l.1.36H17.22c.168,0,.276-.06.312-.192C17.1-.168,16.392-.7,16.392-.7ZM-14.244,16.76h-7.68v-8.5h8.676c.18,0,.288-.06.324-.192C-13.344,7.688-14,7.2-14,7.2l-.576.708h-7.188l-.936-.4V17.936h.12c.4,0,.66-.192.66-.264V17.12h9.132c.168,0,.264-.06.3-.192-.42-.4-1.128-.936-1.128-.936Zm.852-4.272c.168,0,.3-.06.324-.192-.4-.372-1.044-.864-1.044-.864l-.552.7h-2.388c.06-.54.072-1.116.084-1.764h2.88c.168,0,.288-.06.324-.192-.408-.384-1.02-.852-1.02-.852l-.552.684h-3.756a5.948,5.948,0,0,0,.54-.936.436.436,0,0,0,.456-.2l-1.152-.42a8.6,8.6,0,0,1-1.86,3.3l.156.144a6.389,6.389,0,0,0,1.608-1.524H-17.8c-.012.648-.012,1.224-.072,1.764h-3.444l.1.36h3.3c-.228,1.536-.984,2.628-3.444,3.456l.144.2c2.352-.624,3.384-1.488,3.852-2.688A8.391,8.391,0,0,1-14.6,15.9c1.008.468,1.164-1.608-2.676-2.664a4.51,4.51,0,0,0,.168-.744ZM-11.424,9.2a4.848,4.848,0,0,1,.612,2.268c.684.708,1.512-.912-.444-2.34Zm4.476,6.24A8.228,8.228,0,0,1-9.54,17.516l.12.168a8.324,8.324,0,0,0,2.964-1.6c.264.084.372.036.456-.072Zm3.2.288A7.7,7.7,0,0,1-1.5,17.54c.876.384,1.116-1.284-2.148-1.956Zm-2.928-1.26V13.46H-2.94v1.008Zm-2.22-5.952h3.336a8.147,8.147,0,0,1-.468,1.236H-8.64l.1.36h2.328A7.2,7.2,0,0,1-7.032,11.3c.108-.3-.168-.792-1.272-.924l-.12.1a2.283,2.283,0,0,1,.756,1,.459.459,0,0,0,.456.048,7.321,7.321,0,0,1-1.728,1.4c.036-.492.048-.972.048-1.428Zm4.728,1.6a5.83,5.83,0,0,0,1.188,1.632l-.048.048h-3.5l-.132-.06a7.405,7.405,0,0,0,1.284-1.62Zm-2.508,2.04H-2.94V13.1H-6.672Zm4.68-1.992a8.872,8.872,0,0,1-.792.984,4.609,4.609,0,0,1-1.068-1.032H-.924c.156,0,.288-.06.312-.192C-.984,9.572-1.56,9.1-1.56,9.1l-.528.648h-3.1a7.231,7.231,0,0,0,.348-.768c.3.012.384-.06.444-.2l-.972-.264H-.792c.168,0,.276-.06.312-.192-.384-.36-1.02-.852-1.02-.852l-.552.7h-2.9V7.376c.276-.048.384-.156.4-.312l-1.164-.12V8.168H-8.736l-.9-.432V11.5c0,.324,0,.636-.012.96-.876.528-1.68,1-2.04,1.164l.5.936a.415.415,0,0,0,.18-.336c.516-.5.972-.972,1.332-1.344A7.627,7.627,0,0,1-11.5,17.768l.168.132a6.446,6.446,0,0,0,2.364-4.716,7.178,7.178,0,0,0,1.56-.84V15.32h.12c.36,0,.612-.168.612-.24V14.8h1.488v2.028c0,.144-.06.2-.264.2S-6.8,16.952-6.8,16.952v.18a2.135,2.135,0,0,1,.972.276.753.753,0,0,1,.228.54c1.044-.12,1.188-.516,1.188-1.1V14.8H-2.94v.408h.108a.955.955,0,0,0,.624-.24v-2.6A6.579,6.579,0,0,0-.984,13a.8.8,0,0,1,.612-.624l.012-.132a7.035,7.035,0,0,1-2.184-.936,6.968,6.968,0,0,0,1.116-.54c.168.048.276.024.324-.06ZM1.38,8.792a2.994,2.994,0,0,1,1.188,1.5c.828.516,1.38-1.152-1.08-1.608Zm3.648,5.016c.012-.156.012-.3.012-.456V11.768H6.876v2.04Zm5.9,1.488h-.144c-.132.636-.276,1.284-.348,1.464a.259.259,0,0,1-.24.144c-.156,0-.528.012-1.008.012H8.136c-.444,0-.492-.072-.492-.276V14.156h2.94c.168,0,.276-.06.312-.192-.408-.372-1.032-.864-1.032-.864l-.564.708H7.644v-2.04H8.916a.287.287,0,0,0,.312-.192c-.36-.336-.936-.8-.936-.8l-.5.66H2.772A8.479,8.479,0,0,0,5.616,8.18c.288-.012.42-.036.516-.156l-.876-.78-.54.492H1.752l.108.348H4.7A9.322,9.322,0,0,1,.468,12.4l.108.168A9.6,9.6,0,0,0,2.76,11.444l.1.324h1.4v1.6c0,.144-.012.3-.012.444H1.08l.108.348H4.2C4.02,15.464,3.276,16.7.924,17.732l.108.192c2.976-.912,3.768-2.364,3.96-3.768H6.876V16.82c0,.612.2.816,1.116.816H9.168c1.776,0,2.148-.132,2.148-.48,0-.168-.072-.264-.348-.348Zm-.516-6.912a13.3,13.3,0,0,1-1.6,1.608A7.639,7.639,0,0,1,7.8,9.044,12.1,12.1,0,0,0,9.672,7.856c.264.072.36.036.444-.084l-1-.6A13.07,13.07,0,0,1,7.608,8.828a6.691,6.691,0,0,1-1.116-1.9l-.2.12A8.38,8.38,0,0,0,10.9,12.3a.908.908,0,0,1,.744-.648l.024-.132a9.473,9.473,0,0,1-2.592-1.332,12.787,12.787,0,0,0,1.908-1.1c.252.06.36.012.444-.1Zm12.876,4.824a.275.275,0,0,0,.276-.228c-.48-.348-1.3-.816-1.3-.816l-.576.876-3.84.444V11.276l4.476-.564a.3.3,0,0,0,.276-.24c-.48-.324-1.272-.792-1.272-.792l-.552.864-2.928.372V8.756a34.518,34.518,0,0,0,3.564-.912c.3.12.528.108.636,0l-.948-.8a34.648,34.648,0,0,1-8.148,2.2l.048.24a38.331,38.331,0,0,0,4.056-.564v2.112l-4.092.516.132.324,3.96-.492V13.58l-4.584.54.132.336,4.452-.516v2.58c0,.828.372,1.032,1.548,1.032h1.764c2.52,0,3.024-.12,3.024-.528,0-.168-.1-.276-.408-.372l-.036-1.944H22.8a15.07,15.07,0,0,1-.444,1.872.36.36,0,0,1-.336.2c-.252.024-.816.036-1.62.036H18.684c-.708,0-.828-.12-.828-.456v-2.52Z" transform="translate(30.71 28.422)" fill="#707070"/>
    </g>
    <g id="Group_361" data-name="Group 361" transform="translate(599.29 8455.577)">
      <ellipse id="Ellipse_8-3" data-name="Ellipse 8" cx="42" cy="41.5" rx="42" ry="41.5" transform="translate(-11.29 -4.578)" fill="#ccc"/>
      <path id="Path_708" data-name="Path 708" d="M-16.128-3.444-14.76-7.6l1.38,4.152Zm4.776,2.892-2.82-8.28h-.672L-17.616-.576l-1.08.144V0h2.88V-.432l-1.26-.156.78-2.364h3.084l.792,2.388-1.32.132V0h3.468V-.432ZM-1.9-4.164H-5.208v.432l1.4.108c.024.816.036,1.644.036,2.436v.5A4.179,4.179,0,0,1-5.4-.348c-2.088,0-3.384-1.512-3.384-4.02,0-2.544,1.38-4.044,3.348-4.044a3.037,3.037,0,0,1,1.62.432L-3.552-6.4h.672L-2.928-8.28a4.73,4.73,0,0,0-2.616-.672A4.328,4.328,0,0,0-9.96-4.38,4.287,4.287,0,0,0-5.58.192a5.629,5.629,0,0,0,2.82-.78v-.588c0-.876.012-1.68.036-2.472l.828-.084Zm2.724.72L2.2-7.6l1.38,4.152ZM5.6-.552l-2.82-8.28H2.112L-.66-.576l-1.08.144V0H1.14V-.432L-.12-.588.66-2.952H3.744L4.536-.564l-1.32.132V0H6.684V-.432Zm5.076-7.98V-7.6h.12c.324,0,.636-.108.636-.2v-.732h2.676v.9h.132c.36-.012.636-.144.636-.216v-.684h3.084c.168,0,.288-.06.312-.192-.384-.372-1.02-.852-1.02-.852l-.552.684H14.88v-.756c.3-.036.4-.156.408-.324l-1.176-.12v1.2H11.436v-.756c.3-.036.408-.156.432-.324l-1.188-.12v1.2H7.332l.06.36Zm6.252.924c-.468.516-1.3,1.38-1.872,1.884l.12.12c.7-.348,1.7-.888,2.232-1.236.24.072.36.048.42-.036ZM15-5.088A7.124,7.124,0,0,1,17.184-3.5c.9.312,1.02-1.392-2.076-1.716Zm-6.888,2a.406.406,0,0,0,.2-.3c1.02-.636,1.8-1.152,2.316-1.5l-.06-.168c-1.248.48-2.52.936-3.084,1.1ZM7.944-7.272a5.815,5.815,0,0,1,1.728,1.74c.852.42,1.212-1.26-1.62-1.86Zm3.612,2.16H14.04v1.224H11.556Zm2.484-1.5v1.14H11.556v-1.14ZM17.8-2.172c.168,0,.288-.06.324-.192-.432-.348-1.068-.828-1.068-.828l-.588.66H13.176V-3.54h.864v.48h.12a1.021,1.021,0,0,0,.648-.276V-6.48a.888.888,0,0,0,.48-.228l-.936-.732-.42.468H12.588c.192-.2.42-.456.576-.636.24,0,.4-.1.432-.264l-1.164-.24c-.06.324-.18.8-.264,1.14h-.552L10.8-7.344V-3h.12c.312,0,.636-.18.636-.264V-3.54h.84v1.008H7.524l.108.36h3.84A10.945,10.945,0,0,1,7.2.564l.1.2A11.148,11.148,0,0,0,12.4-1.98v2.9h.132c.4,0,.648-.192.648-.252V-2.172h.12A8.467,8.467,0,0,0,17.736.72.887.887,0,0,1,18.42.036L18.432-.1a10.67,10.67,0,0,1-4.788-2.076Z" transform="translate(30.71 36.422)" fill="#707070"/>
    </g>
    <g id="Group_362" data-name="Group 362" transform="translate(697.29 8492.577)">
      <ellipse id="Ellipse_8-4" data-name="Ellipse 8" cx="42" cy="41.5" rx="42" ry="41.5" transform="translate(-11.29 -10.578)" fill="#ccc"/>
      <path id="Path_707" data-name="Path 707" d="M-2.136-6.564v1.236H-4.764V-6.564Zm-2.628,4.5V-3.312h2.628v1.248Zm2.628-1.6H-4.764V-4.968h2.628ZM-7.32-8.172h3.036c-.024.456-.036.888-.048,1.248H-4.62l-.888-.384V-.936h.12c.384,0,.624-.168.624-.24V-1.7h2.628v.516H-2a.794.794,0,0,0,.624-.24V-6.5A.666.666,0,0,0-.9-6.72L-1.776-7.4l-.4.48H-3.66c.036-.372.072-.8.108-1.248h2.8c.168,0,.276-.06.312-.192-.384-.348-1.02-.852-1.02-.852L-2-8.508H-3.528l.084-1.1c.24-.048.384-.168.4-.336l-1.2-.1c0,.468-.012,1.008-.036,1.536H-7.416ZM-8.976-6.936h1.5c.168,0,.276-.06.312-.192-.348-.348-.948-.852-.948-.852l-.516.7h-.348V-9.576c.312-.048.4-.156.432-.336l-1.188-.144v2.772h-1.752l.084.348h1.524a13.075,13.075,0,0,1-1.74,4.908l.168.168a9.7,9.7,0,0,0,1.716-2.8V.9h.168c.264,0,.588-.168.588-.276v-6.2a5.566,5.566,0,0,1,.912,1.692c.672.528,1.3-.852-.912-1.944ZM-1.824-.192h-4.7V-6.24c.288-.036.384-.156.42-.3l-1.164-.132V.876h.144c.276,0,.6-.168.6-.288V.156H-.564c.18,0,.288-.06.324-.192C-.624-.408-1.272-.9-1.272-.9Zm13.116-3.6a.275.275,0,0,0,.276-.228c-.48-.348-1.3-.816-1.3-.816L9.7-3.96l-3.84.444V-5.724l4.476-.564a.3.3,0,0,0,.276-.24c-.48-.324-1.272-.792-1.272-.792l-.552.864-2.928.372v-2.16A34.518,34.518,0,0,0,9.42-9.156c.3.12.528.108.636,0l-.948-.8A34.648,34.648,0,0,1,.96-7.764l.048.24a38.331,38.331,0,0,0,4.056-.564v2.112L.972-5.46l.132.324,3.96-.492V-3.42L.48-2.88l.132.336L5.064-3.06V-.48c0,.828.372,1.032,1.548,1.032H8.376C10.9.552,11.4.432,11.4.024c0-.168-.1-.276-.408-.372l-.036-1.944H10.8A15.07,15.07,0,0,1,10.356-.42a.36.36,0,0,1-.336.2C9.768-.192,9.2-.18,8.4-.18H6.684c-.708,0-.828-.12-.828-.456v-2.52Z" transform="translate(30.71 36.422)" fill="#707070"/>
    </g>
    <g id="Group_363" data-name="Group 363" transform="translate(719.29 8575.577)">
      <ellipse id="Ellipse_8-5" data-name="Ellipse 8" cx="42" cy="41.5" rx="42" ry="41.5" transform="translate(-11.29 -10.578)" fill="#ccc"/>
      <path id="Path_706" data-name="Path 706" d="M-14.34-1.776V-3.024h4.752v1.248Zm4.752-2.8v1.188H-14.34V-4.572Zm-.12-.36H-14.28l-.84-.384V.9h.132c.336,0,.648-.18.648-.276V-1.428h4.752V-.252c0,.168-.06.252-.3.252-.276,0-1.56-.1-1.56-.1V.1A2.466,2.466,0,0,1-10.38.384a.72.72,0,0,1,.276.54c1.152-.12,1.3-.492,1.3-1.1V-4.428a.985.985,0,0,0,.5-.228l-1.008-.756ZM-8.316-8.6h-3.3V-9.612c.288-.036.408-.156.432-.324l-1.224-.132V-8.6H-17.28l.1.336h3.828a14.519,14.519,0,0,1-.8,1.62c-.96.024-1.764.024-2.292.024l.468,1.044a.5.5,0,0,0,.324-.252c2.832-.264,4.908-.492,6.456-.684a3.728,3.728,0,0,1,.816,1.068C-7.4-4.98-7.2-7.116-10.86-7.92l-.108.132A8.663,8.663,0,0,1-9.5-6.78c-1.524.048-2.976.1-4.188.12a16.426,16.426,0,0,0,1.344-1.608H-7.02c.168,0,.288-.06.312-.192-.4-.36-1.044-.864-1.044-.864ZM5.292-3.792a.275.275,0,0,0,.276-.228c-.48-.348-1.3-.816-1.3-.816L3.7-3.96l-3.84.444V-5.724l4.476-.564a.3.3,0,0,0,.276-.24c-.48-.324-1.272-.792-1.272-.792l-.552.864-2.928.372v-2.16A34.518,34.518,0,0,0,3.42-9.156c.3.12.528.108.636,0l-.948-.8a34.648,34.648,0,0,1-8.148,2.2l.048.24A38.331,38.331,0,0,0-.936-8.088v2.112l-4.092.516.132.324,3.96-.492V-3.42l-4.584.54.132.336L-.936-3.06V-.48C-.936.348-.564.552.612.552H2.376C4.9.552,5.4.432,5.4.024c0-.168-.1-.276-.408-.372L4.956-2.292H4.8A15.07,15.07,0,0,1,4.356-.42a.36.36,0,0,1-.336.2C3.768-.192,3.2-.18,2.4-.18H.684c-.708,0-.828-.12-.828-.456v-2.52ZM8.472-2.22a6.475,6.475,0,0,0,.036-.672v-.816h3.084V-2.22Zm3.12-1.836H8.508v-.6c.276-.048.36-.156.4-.312l-1.152-.12V-2.9A4.675,4.675,0,0,1,6.468.768l.144.156a3.807,3.807,0,0,0,1.812-2.8h3.168V.912h.144c.288,0,.612-.168.612-.252V-4.632c.3-.048.408-.168.432-.336L11.592-5.1Zm-.408-4.3A4.79,4.79,0,0,1,10.008-6.9a4.307,4.307,0,0,1-1.68-1.452ZM12.2-8.7H10.26v-.9c.288-.048.408-.156.42-.324L9.5-10.056V-8.7H6.516l.084.348H8.052A4.637,4.637,0,0,0,9.516-6.516a10.509,10.509,0,0,1-3.18,1.392l.084.192a11.268,11.268,0,0,0,3.588-1.26,9.285,9.285,0,0,0,3.048,1.008.822.822,0,0,1,.624-.684V-6a11.9,11.9,0,0,1-3.024-.624A5.394,5.394,0,0,0,12.18-8.352h1.272a.277.277,0,0,0,.3-.18c-.372-.372-1.008-.876-1.008-.876Zm2.592.144c.3-.036.408-.156.444-.324L14.076-9v7.512h.144c.264,0,.576-.144.576-.264Zm1.4-1.272V-.276c0,.18-.06.252-.264.252-.24,0-1.368-.1-1.368-.1v.2a1.852,1.852,0,0,1,.948.288.828.828,0,0,1,.252.564c1.056-.108,1.188-.5,1.188-1.14v-9.18c.288-.036.408-.144.444-.312Z" transform="translate(30.71 36.422)" fill="#707070"/>
    </g>
  </g>
</svg>
