<svg xmlns="http://www.w3.org/2000/svg" xmlns:xlink="http://www.w3.org/1999/xlink" width="337.78" height="255.243" viewBox="0 0 337.78 255.243">
  <defs>
    <linearGradient id="linear-gradient" x1="0.249" y1="0.174" x2="0.903" y2="0.837" gradientUnits="objectBoundingBox">
      <stop offset="0" stop-opacity="0.169"/>
      <stop offset="1" stop-opacity="0"/>
    </linearGradient>
  </defs>
  <g id="Group_75" data-name="Group 75" transform="translate(-681.537 -3663.084)">
    <line id="Line_7" data-name="Line 7" x2="243.119" transform="translate(735.528 3673.282)" fill="none" stroke="#ccc" stroke-width="1" stroke-dasharray="2"/>
    <line id="Line_8" data-name="Line 8" x2="243.119" transform="translate(735.528 3783.786)" fill="none" stroke="#ccc" stroke-width="1" stroke-dasharray="2"/>
    <path id="Path_713" data-name="Path 713" d="M4.413,12.13a2.38,2.38,0,0,0,2.4-2.52A2.092,2.092,0,0,0,4.6,7.28a2.132,2.132,0,0,0-1.09.29l.18-2.12h2.77V4.66H2.893L2.663,8.1l.49.3a2,2,0,0,1,1.22-.43,1.483,1.483,0,0,1,1.52,1.67,1.584,1.584,0,0,1-1.56,1.73,2.411,2.411,0,0,1-1.8-.81l-.45.6A3.114,3.114,0,0,0,4.413,12.13Zm5.72,0c1.39,0,2.28-1.27,2.28-3.82s-.89-3.78-2.28-3.78-2.29,1.23-2.29,3.78S8.733,12.13,10.133,12.13Zm0-.73c-.84,0-1.4-.93-1.4-3.09,0-2.14.56-3.05,1.4-3.05s1.39.91,1.39,3.05C11.523,10.47,10.963,11.4,10.133,11.4Zm4.82-2.24c1.01,0,1.67-.85,1.67-2.33s-.66-2.3-1.67-2.3-1.66.83-1.66,2.3S13.953,9.16,14.953,9.16Zm0-.57c-.57,0-.97-.59-.97-1.76s.4-1.74.97-1.74.98.57.98,1.74S15.533,8.59,14.953,8.59Zm.22,3.54h.61l4.05-7.6h-.62Zm4.89,0c1,0,1.66-.84,1.66-2.32s-.66-2.3-1.66-2.3-1.67.83-1.67,2.3S19.063,12.13,20.063,12.13Zm0-.56c-.58,0-.97-.59-.97-1.76s.39-1.74.97-1.74.97.57.97,1.74S20.633,11.57,20.063,11.57Z" transform="translate(698.576 3667.967)" fill="#707070"/>
    <path id="Path_712" data-name="Path 712" d="M2.243,12h4.61v-.79H4.823c-.37,0-.82.04-1.2.07,1.72-1.63,2.87-3.12,2.87-4.58a2.011,2.011,0,0,0-2.13-2.17A2.8,2.8,0,0,0,2.2,5.61l.53.52a2.053,2.053,0,0,1,1.52-.85A1.289,1.289,0,0,1,5.6,6.73c0,1.26-1.06,2.72-3.36,4.73Zm7.72.13a2.38,2.38,0,0,0,2.4-2.52,2.092,2.092,0,0,0-2.21-2.33,2.132,2.132,0,0,0-1.09.29l.18-2.12h2.77V4.66H8.443L8.213,8.1l.49.3a2,2,0,0,1,1.22-.43,1.483,1.483,0,0,1,1.52,1.67,1.584,1.584,0,0,1-1.56,1.73,2.411,2.411,0,0,1-1.8-.81l-.45.6A3.114,3.114,0,0,0,9.963,12.13Zm4.99-2.97c1.01,0,1.67-.85,1.67-2.33s-.66-2.3-1.67-2.3-1.66.83-1.66,2.3S13.953,9.16,14.953,9.16Zm0-.57c-.57,0-.97-.59-.97-1.76s.4-1.74.97-1.74.98.57.98,1.74S15.533,8.59,14.953,8.59Zm.22,3.54h.61l4.05-7.6h-.62Zm4.89,0c1,0,1.66-.84,1.66-2.32s-.66-2.3-1.66-2.3-1.67.83-1.67,2.3S19.063,12.13,20.063,12.13Zm0-.56c-.58,0-.97-.59-.97-1.76s.39-1.74.97-1.74.97.57.97,1.74S20.633,11.57,20.063,11.57Z" transform="translate(698.576 3778.693)" fill="#707070"/>
    <path id="Path_711" data-name="Path 711" d="M4.481,4.328C4.4,5.912,4.4,11.636-.463,14.12a3.037,3.037,0,0,1,.72.684,9.938,9.938,0,0,0,4.8-6.936c.576,2.4,1.9,5.472,4.992,6.936a2.69,2.69,0,0,1,.66-.732C6.2,12.008,5.549,6.464,5.441,4.88c.012-.2.012-.4.024-.552ZM4.349,20.2a10.273,10.273,0,0,1-.888,1.584l.6.288c.312-.4.72-1,1.068-1.548ZM1.577,21.78A5.985,5.985,0,0,0,.8,20.244l-.672.276a6.134,6.134,0,0,1,.744,1.572Zm5.256,1.212H8.921A13.138,13.138,0,0,1,7.865,26.82a16.51,16.51,0,0,1-1.044-3.792ZM3.557,27.06A3.85,3.85,0,0,1,2.8,28.668c-.468-.228-.948-.444-1.428-.636.156-.312.336-.636.5-.972Zm7.008-4.068v-.84H7.085c.168-.66.324-1.356.444-2.064l-.912-.132a11.791,11.791,0,0,1-1.956,5.376,4.593,4.593,0,0,1,.72.612,7.828,7.828,0,0,0,.876-1.5,16.251,16.251,0,0,0,1.08,3.312,6.607,6.607,0,0,1-2.4,2.184,12.086,12.086,0,0,0-1.38-.876,4.924,4.924,0,0,0,.852-2H5.453v-.744h-3.2c.144-.288.276-.576.408-.84l-.2-.048h.516V23.64c.576.432,1.332,1.008,1.644,1.3l.492-.636c-.324-.24-1.62-1.056-2.136-1.356v-.06H5.405v-.732H2.969v-2.2H2.141v2.2H-.319v.732H1.9A6.54,6.54,0,0,1-.451,24.792a3.026,3.026,0,0,1,.492.672,7.8,7.8,0,0,0,2.1-1.764v1.656l-.312-.072c-.144.324-.312.672-.492,1.032H-.391v.744H.965C.641,27.684.317,28.3.053,28.752l.768.276.192-.336c.4.168.792.36,1.176.552a6.1,6.1,0,0,1-2.556.936,1.833,1.833,0,0,1,.408.732,6.7,6.7,0,0,0,2.928-1.248,11.788,11.788,0,0,1,1.4.948l.276-.288a3.838,3.838,0,0,1,.384.624,7.909,7.909,0,0,0,2.784-2.3,6.45,6.45,0,0,0,2.244,2.268,2.872,2.872,0,0,1,.612-.756A5.906,5.906,0,0,1,8.357,27.8a13.953,13.953,0,0,0,1.488-4.812ZM2.105,40.5H4.793v-.852H2.105V36.028h-.9V45.4c-.588.132-1.14.24-1.608.324l.288.924c1.476-.348,3.492-.828,5.376-1.3L5.177,44.5c-1.02.24-2.088.492-3.072.708Zm5.16,5.3c-.576,0-.672-.12-.672-.78V41.164a25.368,25.368,0,0,0,3.612-1.848l-.66-.756A16.823,16.823,0,0,1,6.593,40.3V36.028h-.9v8.988c0,1.3.312,1.644,1.476,1.644h2c1.14,0,1.38-.672,1.5-2.628a2.408,2.408,0,0,1-.84-.384c-.072,1.728-.156,2.16-.708,2.16Zm3.168,12.724A17.911,17.911,0,0,0,7.7,56.888l-.624.5a15.96,15.96,0,0,1,2.7,1.7Zm-1.284-4.08A13.663,13.663,0,0,1,7.3,55.964l.636.384A15.322,15.322,0,0,0,9.929,54.86ZM3.1,55.16l-.444.528A16.752,16.752,0,0,1,4.4,56.972c-.336.36-.672.7-.984,1-.324.012-.636.024-.9.036l.12.756c1.152-.084,2.676-.18,4.2-.288a6.093,6.093,0,0,1,.348.672l.684-.36a9.745,9.745,0,0,0-1.512-2.16l-.648.288a11.421,11.421,0,0,1,.708.912l-2.064.108a29.78,29.78,0,0,0,2.508-2.76l-.708-.336a20.073,20.073,0,0,1-1.26,1.584c-.252-.216-.576-.456-.912-.7a17.5,17.5,0,0,0,1.2-1.488l-.312-.12h5.22v-.8H5.5V51.968H4.613v1.344H.137v.8H4.3a12.452,12.452,0,0,1-.864,1.26Zm-.444.744A10.33,10.33,0,0,0,.749,54.62l-.6.492a11.108,11.108,0,0,1,1.884,1.332Zm.084,1.116c-1.116.468-2.244.948-3.012,1.224l.444.72c.8-.348,1.788-.828,2.736-1.272ZM5.5,58.76H4.613v.924H-.223v.828H4.613v2.436H5.5V60.512h4.92v-.828H5.5Z" transform="translate(682 3667.967)" fill="#707070"/>
    <path id="Path_710" data-name="Path 710" d="M-6.924-4.812h1.752V-3.8H-6.924Zm-2.544-.732V-7.02h1.68v1.476Zm2.544-3.192h1.752v1H-6.924Zm1.752,3.192H-6.924V-7.02h1.752Zm2.6-1.476v1.476H-4.32V-7.02ZM-7.536-2.664a8.353,8.353,0,0,1,2.16,1.452l.6-.54A7.86,7.86,0,0,0-6.684-3.024H-.7V-3.8H-4.32V-4.812H-1.7V-7.74H-4.32v-1H-.852V-9.5H-11.1v.768h3.312v1H-10.3v2.928h2.508V-3.8h-3.5v.78h4.176ZM-10.728.54a3.859,3.859,0,0,0,1.62-2.46L-9.9-2.208A3.336,3.336,0,0,1-11.46,0Zm3.972-.624c-.612,0-.72-.048-.72-.336V-2.148H-8.34v1.74C-8.34.48-8.052.72-6.816.72h2.244C-3.624.72-3.36.408-3.24-.912a2.012,2.012,0,0,1-.792-.324C-4.08-.216-4.164-.084-4.656-.084Zm3.276-1.8A8.605,8.605,0,0,1-1.3.48l.756-.5a8.38,8.38,0,0,0-2.232-2.3ZM3.78-9.852A13.271,13.271,0,0,1,.3-5.016a5.955,5.955,0,0,1,.54.9A14.317,14.317,0,0,0,2.4-5.808v6.7h.9V-7.068a16.115,16.115,0,0,0,1.332-2.5ZM7.524-.1c-.66,0-.792-.144-.792-.816v-3.48a28.239,28.239,0,0,0,4.224-2.616l-.636-.768A21,21,0,0,1,6.732-5.292V-9.756h-.9V-.924C5.832.384,6.216.744,7.464.744h2.46c1.236,0,1.5-.684,1.644-2.628a2.864,2.864,0,0,1-.852-.384C10.632-.528,10.524-.1,9.864-.1Z" transform="translate(718.524 3917.367)" fill="#707070"/>
    <path id="Path_709" data-name="Path 709" d="M-.876-8.3v-.888H-11.124V-8.3h5.3a13.922,13.922,0,0,1-5.6,5.232,6.137,6.137,0,0,1,.6.78A15.388,15.388,0,0,0-6.48-5.784V.888h.948V-6.984c.3-.444.588-.876.852-1.32Zm-4.416,2.58A26.777,26.777,0,0,1-1.248-2.46l.708-.684A27.389,27.389,0,0,0-4.632-6.3ZM4.644-7.968A3.494,3.494,0,0,1,2.76-4.6a2.814,2.814,0,0,1,.648.6,4.163,4.163,0,0,0,2.076-3.96v-.072H7.14V-5.4c0,.132-.036.168-.192.18s-.672,0-1.272-.012a3.28,3.28,0,0,1,.252.78A5.856,5.856,0,0,0,7.6-4.572C7.932-4.716,8-4.944,8-5.388v-2.64h3.24v-.816h-4.8v-1.188h-.9v1.188H.8v.816h3.84Zm3.984.924A13.769,13.769,0,0,1,10.7-4.668l.744-.468A13.808,13.808,0,0,0,9.312-7.452ZM2.6-7.4A5.61,5.61,0,0,1,.588-5.3a6.44,6.44,0,0,1,.612.528A7.236,7.236,0,0,0,3.444-7.164ZM4.248-3.012H8.184a6.611,6.611,0,0,1-2.112,1.68,6,6,0,0,1-1.9-1.608Zm4.68-.78-.168.036H5.04a8.772,8.772,0,0,0,.624-.732L4.7-4.656A8.449,8.449,0,0,1,.9-1.968a2.676,2.676,0,0,1,.564.648A11.825,11.825,0,0,0,3.552-2.472,7.171,7.171,0,0,0,5.184-.924,18.2,18.2,0,0,1,.6.168a2.273,2.273,0,0,1,.432.78,17.875,17.875,0,0,0,5-1.368A13.861,13.861,0,0,0,10.98.936,2.929,2.929,0,0,1,11.5.12,15.217,15.217,0,0,1,6.96-.9,6.99,6.99,0,0,0,9.516-3.4Z" transform="translate(780.716 3917.367)" fill="#707070"/>
    <path id="Path_708" data-name="Path 708" d="M-22.452-4.68H-21.2v1.092h-1.248Zm0-1.716H-21.2v1.08h-1.248Zm3.18,1.08h-1.272V-6.4h1.272Zm0,1.728h-1.272V-4.68h1.272Zm5.256-5.064a6.227,6.227,0,0,1-1.452,2.088A6.433,6.433,0,0,1-16.86-8.652Zm-4.272,7.488v-.792h-2.184v-.96h1.908V-4.692a3.584,3.584,0,0,1,.42.66A8.86,8.86,0,0,0-15.468-5.46a7.338,7.338,0,0,0,2.58,1.392,3.662,3.662,0,0,1,.552-.732,6.916,6.916,0,0,1-2.5-1.212,7.462,7.462,0,0,0,1.92-3.24l-.552-.228-.156.036h-4.524v.792h1.188l-.66.18A7.714,7.714,0,0,0-16.08-6.036a7.963,7.963,0,0,1-2.484,1.26V-7.068h-1.908V-7.98h2.088v-.768h-2.088v-1.3h-.792v1.3H-23.34v.768h2.076v.912h-1.872v4.152h1.872v.96h-2.22v.792h2.22v2.1h.792v-2.1Zm3.252-1.1h2.028v-.768h-2.028V-4.584h-.888v1.548h-2v.768h2V-.192h-2.748v.8h6.2v-.8h-2.568ZM-.72-8.04v-.816H-5.2v-1.176h-.912v1.176h-4.4v3.432c0,1.728-.084,4.152-1.068,5.856a3.45,3.45,0,0,1,.732.5c1.032-1.812,1.176-4.512,1.176-6.36V-8.04ZM-3.6-5.964V-4.7H-6.5v-1.26Zm.864,1.98v-1.98H-.8V-6.7H-2.736V-7.74H-3.6V-6.7H-6.5V-7.74h-.852V-6.7H-9.264v.732h1.908v1.98ZM-2.928-2.5A5.515,5.515,0,0,1-4.956-.972,5.375,5.375,0,0,1-6.9-2.5Zm.744-.768-.156.036H-9.12V-2.5h1.848l-.48.18A6.038,6.038,0,0,0-5.868-.6a16.278,16.278,0,0,1-3.7.768,3.084,3.084,0,0,1,.372.744A16.253,16.253,0,0,0-4.968-.12,13.688,13.688,0,0,0-1.02.936,2.645,2.645,0,0,1-.5.18,15.259,15.259,0,0,1-4.032-.576,5.927,5.927,0,0,0-1.62-2.964ZM6.984-7.008H9.636a11.822,11.822,0,0,1-1.3,4.02,13.639,13.639,0,0,1-1.368-4Zm4.524,0V-7.86H7.3a16.879,16.879,0,0,0,.54-2l-.924-.168A11.175,11.175,0,0,1,4.92-5.2V-8.988H.876v.828h3.18v2.352H.876v3.816c0,1.02.3,1.272,1.356,1.272H4.08C5-.72,5.256-1.1,5.364-2.616a2.439,2.439,0,0,1-.8-.348c-.036,1.212-.108,1.4-.552,1.4H2.316c-.492,0-.588-.06-.588-.444V-4.992H4.056v.456H4.92v-.4c.216.144.5.348.648.456a8.8,8.8,0,0,0,.84-1.284A14.223,14.223,0,0,0,7.776-2.172,7.37,7.37,0,0,1,4.332.168a4.633,4.633,0,0,1,.54.792A8.458,8.458,0,0,0,8.28-1.4,6.986,6.986,0,0,0,11.016.9,3.88,3.88,0,0,1,11.64.144a6.541,6.541,0,0,1-2.8-2.3,12.585,12.585,0,0,0,1.692-4.848ZM20.844-1.62v1.4H15.2v-1.4ZM14.328.912H15.2V.5h5.64V.876h.912V-2.34H14.328ZM17.52-5.04v1.272H15.576L16-3.9a4.413,4.413,0,0,0-.7-1.14Zm3.12,0a9.071,9.071,0,0,1-.72,1.176l.42.1H18.42V-5.04Zm.144,1.272a9.2,9.2,0,0,0,.756-1.1l-.732-.168H23.04v-.684H18.42v-.828h3.516v-.672H18.42v-.8h4.26v-.684h-2.4c.228-.312.48-.72.732-1.128l-.912-.216a12.356,12.356,0,0,1-.732,1.344H16.452l.132-.048a4.989,4.989,0,0,0-.792-1.272L15-9.792a6.069,6.069,0,0,1,.66,1.08h-2.3v.684H17.52v.8H14.076v.672H17.52v.828H13.032v.684h2.1l-.66.18a5.068,5.068,0,0,1,.636,1.092H12.672v.72h10.68v-.72Z" transform="translate(843.727 3917.367)" fill="#707070"/>
    <path id="Path_707" data-name="Path 707" d="M-23.568-3.852v-3.18h3.444v3.18Zm-4.356,0v-3.18h3.432v3.18Zm4.356-4.056v-2.136h-.924v2.136H-28.8v5.676h.876v-.744h3.432V.912h.924V-2.976h3.444v.684h.912V-7.908Zm8.376-.372a7.842,7.842,0,0,1,.516,1.356l.78-.288a4.981,4.981,0,0,0-.42-1.068h2.172v-.756h-3.12a7.454,7.454,0,0,0,.372-.84l-.84-.216a7.8,7.8,0,0,1-1.824,2.784,5.662,5.662,0,0,1,.732.516A7.686,7.686,0,0,0-15.7-8.28Zm-.1,6.744A8.7,8.7,0,0,1-13.272.3l.684-.564A8.486,8.486,0,0,0-14.64-2.04Zm8.712-2.352v-.78h-4.992V-5.736H-7.7v-.756h-3.864V-7.32h-.192a6.787,6.787,0,0,0,.744-.96h.816a5.508,5.508,0,0,1,.84,1.428l.768-.336a6.287,6.287,0,0,0-.66-1.092H-6.7v-.756h-3.888a7.723,7.723,0,0,0,.36-.864l-.852-.192A6.112,6.112,0,0,1-12.792-7.5c.072.048.2.12.324.2v.8h-3.744v.756h3.744v1.068h-4.92v.78h7.356v1.056H-17v.78h6.972V-.144c0,.168-.048.216-.264.216-.216.024-.924.024-1.74,0a3.121,3.121,0,0,1,.324.84A7.782,7.782,0,0,0-9.66.768c.408-.144.528-.372.528-.9v-1.92h2.244v-.78H-9.132V-3.888ZM5.28-8.04v-.816H.8v-1.176H-.108v1.176h-4.4v3.432C-4.512-3.7-4.6-1.272-5.58.432a3.45,3.45,0,0,1,.732.5c1.032-1.812,1.176-4.512,1.176-6.36V-8.04ZM2.4-5.964V-4.7H-.5v-1.26Zm.864,1.98v-1.98H5.2V-6.7H3.264V-7.74H2.4V-6.7H-.5V-7.74h-.852V-6.7H-3.264v.732h1.908v1.98ZM3.072-2.5A5.515,5.515,0,0,1,1.044-.972,5.375,5.375,0,0,1-.9-2.5Zm.744-.768-.156.036H-3.12V-2.5h1.848l-.48.18A6.038,6.038,0,0,0,.132-.6a16.278,16.278,0,0,1-3.7.768,3.084,3.084,0,0,1,.372.744A16.253,16.253,0,0,0,1.032-.12,13.688,13.688,0,0,0,4.98.936,2.645,2.645,0,0,1,5.5.18,15.259,15.259,0,0,1,1.968-.576,5.927,5.927,0,0,0,4.38-2.964Zm9.168-3.744h2.652a11.822,11.822,0,0,1-1.3,4.02,13.639,13.639,0,0,1-1.368-4Zm4.524,0V-7.86H13.3a16.879,16.879,0,0,0,.54-2l-.924-.168A11.175,11.175,0,0,1,10.92-5.2V-8.988H6.876v.828h3.18v2.352H6.876v3.816c0,1.02.3,1.272,1.356,1.272H10.08c.924,0,1.176-.384,1.284-1.9a2.439,2.439,0,0,1-.8-.348c-.036,1.212-.108,1.4-.552,1.4H8.316c-.492,0-.588-.06-.588-.444V-4.992h2.328v.456h.864v-.4c.216.144.5.348.648.456a8.8,8.8,0,0,0,.84-1.284,14.223,14.223,0,0,0,1.368,3.588A7.37,7.37,0,0,1,10.332.168a4.633,4.633,0,0,1,.54.792A8.458,8.458,0,0,0,14.28-1.4,6.986,6.986,0,0,0,17.016.9,3.88,3.88,0,0,1,17.64.144a6.541,6.541,0,0,1-2.8-2.3,12.585,12.585,0,0,0,1.692-4.848ZM26.844-1.62v1.4H21.2v-1.4ZM20.328.912H21.2V.5h5.64V.876h.912V-2.34H20.328ZM23.52-5.04v1.272H21.576L22-3.9a4.413,4.413,0,0,0-.7-1.14Zm3.12,0a9.071,9.071,0,0,1-.72,1.176l.42.1H24.42V-5.04Zm.144,1.272a9.2,9.2,0,0,0,.756-1.1l-.732-.168H29.04v-.684H24.42v-.828h3.516v-.672H24.42v-.8h4.26v-.684h-2.4c.228-.312.48-.72.732-1.128l-.912-.216a12.356,12.356,0,0,1-.732,1.344H22.452l.132-.048a4.989,4.989,0,0,0-.792-1.272L21-9.792a6.069,6.069,0,0,1,.66,1.08h-2.3v.684H23.52v.8H20.076v.672H23.52v.828H19.032v.684h2.1l-.66.18a5.068,5.068,0,0,1,.636,1.092H18.672v.72h10.68v-.72Z" transform="translate(909.278 3917.367)" fill="#707070"/>
    <path id="Path_706" data-name="Path 706" d="M-20.52-7.464h.864v-.888h3.228v.888h.876v-.888h2.784v-.792h-2.784v-.888h-.876v.888h-3.228v-.888h-.864v.888h-2.724v.792h2.724Zm2.184,2.292v-1.08h2.724a14.929,14.929,0,0,1-1.56,1.08ZM-14.712-1.8h-5.34v-.936h5.34Zm-5.34,1.632V-1.176h5.34V-.168Zm7.344-4.212v-.792h-3.024A14.213,14.213,0,0,0-13.368-7.26l-.72-.42A13.714,13.714,0,0,1-15.432-6.4v-.612h-2.9v-.876h-.876v.876H-22.26v.756h3.048v1.08h-4.044v.792h4.668a25.562,25.562,0,0,1-4.968,1.824,3.892,3.892,0,0,1,.492.756c.708-.216,1.428-.444,2.136-.7V.912h.876V.54h5.34V.912h.876V-3.444h-4.872c.6-.288,1.2-.6,1.764-.936Zm5.5,4V-3.336h4.92V-.384ZM-4.236-8.04A9.723,9.723,0,0,1-6.4-5.232,15.514,15.514,0,0,0-8.664-7.164a9.742,9.742,0,0,0,.852-.876Zm2.844,3.888H-6.3A11.322,11.322,0,0,0-3.024-8.58l-.588-.312-.168.048H-7.164c.252-.348.48-.7.684-1.032l-1-.2a10.1,10.1,0,0,1-4.032,3.9,3.044,3.044,0,0,1,.624.684A12.978,12.978,0,0,0-9.312-6.588a14.941,14.941,0,0,1,2.2,1.968,13.379,13.379,0,0,1-4.452,2.3,2.711,2.711,0,0,1,.528.78A15.069,15.069,0,0,0-8.088-2.88V.912h.876V.432h4.92v.5h.9ZM6.984-7.008H9.636a11.822,11.822,0,0,1-1.3,4.02,13.639,13.639,0,0,1-1.368-4Zm4.524,0V-7.86H7.3a16.879,16.879,0,0,0,.54-2l-.924-.168A11.175,11.175,0,0,1,4.92-5.2V-8.988H.876v.828h3.18v2.352H.876v3.816c0,1.02.3,1.272,1.356,1.272H4.08C5-.72,5.256-1.1,5.364-2.616a2.439,2.439,0,0,1-.8-.348c-.036,1.212-.108,1.4-.552,1.4H2.316c-.492,0-.588-.06-.588-.444V-4.992H4.056v.456H4.92v-.4c.216.144.5.348.648.456a8.8,8.8,0,0,0,.84-1.284A14.223,14.223,0,0,0,7.776-2.172,7.37,7.37,0,0,1,4.332.168a4.633,4.633,0,0,1,.54.792A8.458,8.458,0,0,0,8.28-1.4,6.986,6.986,0,0,0,11.016.9,3.88,3.88,0,0,1,11.64.144a6.541,6.541,0,0,1-2.8-2.3,12.585,12.585,0,0,0,1.692-4.848ZM20.844-1.62v1.4H15.2v-1.4ZM14.328.912H15.2V.5h5.64V.876h.912V-2.34H14.328ZM17.52-5.04v1.272H15.576L16-3.9a4.413,4.413,0,0,0-.7-1.14Zm3.12,0a9.071,9.071,0,0,1-.72,1.176l.42.1H18.42V-5.04Zm.144,1.272a9.2,9.2,0,0,0,.756-1.1l-.732-.168H23.04v-.684H18.42v-.828h3.516v-.672H18.42v-.8h4.26v-.684h-2.4c.228-.312.48-.72.732-1.128l-.912-.216a12.356,12.356,0,0,1-.732,1.344H16.452l.132-.048a4.989,4.989,0,0,0-.792-1.272L15-9.792a6.069,6.069,0,0,1,.66,1.08h-2.3v.684H17.52v.8H14.076v.672H17.52v.828H13.032v.684h2.1l-.66.18a5.068,5.068,0,0,1,.636,1.092H12.672v.72h10.68v-.72Z" transform="translate(976.931 3917.367)" fill="#707070"/>
    <g id="Group_85" data-name="Group 85" transform="translate(954.818 3738.352)">
      <path id="Path_279" data-name="Path 279" d="M39.659,3.532,64.527,9.254,59.412,16.5.091,8.669Z" transform="translate(-0.028 147.416)" fill="url(#linear-gradient)"/>
      <g id="Group_84" data-name="Group 84" transform="translate(0 137)">
        <path id="Path_278" data-name="Path 278" d="M0,110H16.576v6.648H0Z" transform="translate(0 -97.542)" fill="#ebebeb"/>
        <path id="Path_276" data-name="Path 276" d="M0,107.63l6.586-5.293V116.15L0,121.443Z" transform="translate(16.576 -102.337)" fill="#ccc"/>
        <path id="Path_275" data-name="Path 275" d="M6.586,1.337H23.162L16.576,6.63H0Z" transform="translate(0 5.829)" fill="#f5f5f5"/>
      </g>
      <g id="Group_26" data-name="Group 26" transform="translate(16.437 0)">
        <path id="Path_278-2" data-name="Path 278" d="M0-180H16.576V-29.187H0Z" transform="translate(0 185.293)" fill="#01abab"/>
        <path id="Path_276-2" data-name="Path 276" d="M0-39.37l6.586-5.293V106.113L0,111.406Z" transform="translate(16.576 44.7)" fill="#077f7f"/>
        <path id="Path_275-2" data-name="Path 275" d="M6.586,1.337H23.162L16.576,6.63H0Z" transform="translate(0 -1.337)" fill="#26d7d7"/>
      </g>
    </g>
    <g id="Group_83" data-name="Group 83" transform="translate(891.967 3663.084)">
      <path id="Path_280" data-name="Path 280" d="M39.659,3.532,64.527,9.254,59.412,16.5.091,8.669Z" transform="translate(-0.091 222.684)" fill="url(#linear-gradient)"/>
      <g id="Group_82" data-name="Group 82" transform="translate(0 185.661)">
        <path id="Path_278-3" data-name="Path 278" d="M0,60H16.576v40.42H0Z" transform="translate(0 -54.707)" fill="#ebebeb"/>
        <path id="Path_276-3" data-name="Path 276" d="M0,77.63l6.586-5.293v34.534L0,112.164Z" transform="translate(16.576 -66.45)" fill="#ccc"/>
        <path id="Path_275-3" data-name="Path 275" d="M6.586,1.337H23.162L16.576,6.63H0Z" transform="translate(0 -1.337)" fill="#f5f5f5"/>
      </g>
      <g id="Group_27" data-name="Group 27" transform="translate(16.374 0)">
        <path id="Path_278-4" data-name="Path 278" d="M0-130H16.576V95.92H0Z" transform="translate(0 135.454)" fill="#01abab"/>
        <path id="Path_276-4" data-name="Path 276" d="M0-237.37l6.586-5.293V-16.582L0-11.289Z" transform="translate(16.576 242.663)" fill="#077f7f"/>
        <path id="Path_275-4" data-name="Path 275" d="M6.586,1.337H23.162L16.576,6.63H0Z" transform="translate(0 -1.175)" fill="#26d7d7"/>
      </g>
    </g>
    <g id="Group_81" data-name="Group 81" transform="translate(828.424 3677.58)">
      <path id="Path_281" data-name="Path 281" d="M39.659,3.532,64.527,9.254,59.412,16.5.091,8.669Z" transform="translate(-0.091 208.188)" fill="url(#linear-gradient)"/>
      <g id="Group_32" data-name="Group 32" transform="translate(0 0)">
        <path id="Path_278-5" data-name="Path 278" d="M0-160H16.576V51.585H0Z" transform="translate(0 165.293)" fill="#ebebeb"/>
        <path id="Path_276-5" data-name="Path 276" d="M0-187.37l6.586-5.293V18.706L0,24Z" transform="translate(16.576 192.879)" fill="#ccc"/>
        <path id="Path_275-5" data-name="Path 275" d="M6.586,1.337H23.162L16.576,6.63H0Z" transform="translate(0 -1.337)" fill="#f5f5f5"/>
      </g>
      <g id="Group_28" data-name="Group 28" transform="translate(16.787 162.832)">
        <path id="Path_278-6" data-name="Path 278" d="M0,80H16.576v48.753H0Z" transform="translate(0 -74.707)" fill="#01abab"/>
        <path id="Path_276-6" data-name="Path 276" d="M0,45.63l6.586-5.293V89.043L0,94.336Z" transform="translate(16.576 -40.29)" fill="#077f7f"/>
        <path id="Path_275-6" data-name="Path 275" d="M6.586,1.337H23.162L16.576,6.63H0Z" transform="translate(0 -1.337)" fill="#26d7d7"/>
      </g>
    </g>
    <g id="Group_80" data-name="Group 80" transform="translate(765.572 3711.18)">
      <path id="Path_282" data-name="Path 282" d="M39.659,3.532,64.527,9.254,59.412,16.5.091,8.669Z" transform="translate(-0.091 174.588)" fill="url(#linear-gradient)"/>
      <g id="Group_33" data-name="Group 33" transform="translate(0 0)">
        <path id="Path_278-7" data-name="Path 278" d="M0-120H16.576V57.963H0Z" transform="translate(0 125.315)" fill="#ebebeb"/>
        <path id="Path_276-7" data-name="Path 276" d="M0-134.37l6.586-5.293V38.321L0,43.614Z" transform="translate(16.576 139.663)" fill="#ccc"/>
        <path id="Path_275-7" data-name="Path 275" d="M6.586,1.337H23.162L16.576,6.63H0Z" transform="translate(0 -1.315)" fill="#f5f5f5"/>
      </g>
      <g id="Group_29" data-name="Group 29" transform="translate(16.509 159.922)">
        <path id="Path_278-8" data-name="Path 278" d="M0,100H16.576v17.889H0Z" transform="translate(0 -94.533)" fill="#01abab"/>
        <path id="Path_276-8" data-name="Path 276" d="M0,103.63l6.586-5.293V116.4L0,121.693Z" transform="translate(16.576 -98.337)" fill="#077f7f"/>
        <path id="Path_275-8" data-name="Path 275" d="M6.586,1.337H23.162L16.576,6.63H0Z" transform="translate(0 -1.162)" fill="#26d7d7"/>
      </g>
    </g>
    <g id="Group_79" data-name="Group 79" transform="translate(702.72 3882.406)">
      <path id="Path_283" data-name="Path 283" d="M23.356,3.1,64.527,9.013l-5.116,7.244L.091,8.428Z" transform="translate(-0.091 3.603)" fill="url(#linear-gradient)"/>
      <g id="Group_31" data-name="Group 31" transform="translate(0 0)">
        <path id="Path_278-9" data-name="Path 278" d="M0,90H16.576v6.647H0Z" transform="translate(0 -84.595)" fill="#ebebeb"/>
        <path id="Path_276-9" data-name="Path 276" d="M0,134.748l6.586-5.293v6.759L0,141.507Z" transform="translate(16.576 -129.455)" fill="#ccc"/>
        <path id="Path_275-9" data-name="Path 275" d="M6.586,1.337H23.162L16.576,6.63H0Z" transform="translate(0 -1.337)" fill="#f5f5f5"/>
      </g>
    </g>
  </g>
</svg>
