<svg xmlns="http://www.w3.org/2000/svg" width="39.76" height="45.25" viewBox="0 0 39.76 45.25">
  <path id="Path_739" data-name="Path 739" d="M-11.36.44A7.686,7.686,0,0,0-5.32-2.44c2.8-3.2,3.4-7.4,3.4-10.88,0-3.44-.6-7.72-3.4-10.92a7.744,7.744,0,0,0-6.04-2.88,7.744,7.744,0,0,0-6.04,2.88c-2.8,3.2-3.4,7.48-3.4,10.92,0,3.48.6,7.68,3.4,10.88A7.686,7.686,0,0,0-11.36.44Zm0-23.96a4.274,4.274,0,0,1,3.6,2.2c1.48,2.2,1.84,5.64,1.84,7.96,0,2.36-.36,5.76-1.84,8a4.274,4.274,0,0,1-3.6,2.2,4.274,4.274,0,0,1-3.6-2.2c-1.48-2.24-1.84-5.64-1.84-8,0-2.32.36-5.76,1.84-7.96A4.274,4.274,0,0,1-11.36-23.52Zm18,3.64a4.664,4.664,0,0,1,1.12-2.56,3.867,3.867,0,0,1,2.96-1.08,3.936,3.936,0,0,1,2.84,1,3.655,3.655,0,0,1,1.04,2.68A3.971,3.971,0,0,1,13.56-17a4.662,4.662,0,0,1-3.4,1.16H9.6v3.44h.8a4.744,4.744,0,0,1,3.44,1.2,4.228,4.228,0,0,1,1.2,3.16,5.043,5.043,0,0,1-1.4,3.76,4.837,4.837,0,0,1-3.12,1.12,4.554,4.554,0,0,1-3.24-1.2A5.19,5.19,0,0,1,5.84-7.24H1.92A9.75,9.75,0,0,0,4.2-1.8,7.7,7.7,0,0,0,10.16.44a8.9,8.9,0,0,0,6.52-2.32,8.32,8.32,0,0,0,2.28-5.96,7.4,7.4,0,0,0-1.12-4.12,5.487,5.487,0,0,0-2.64-2.12,6.2,6.2,0,0,0,2.4-2.24,6.449,6.449,0,0,0,.92-3.52,6.923,6.923,0,0,0-1.92-5.08,7.383,7.383,0,0,0-5.76-2.2A8.062,8.062,0,0,0,5-25.08a7.856,7.856,0,0,0-2.28,5.2ZM-14.27,11.33h-3.34V18h1.02V14.94h2.24v-.96h-2.24V12.29h2.32Zm4.84,0h-3.68V18h3.68v-.96h-2.66v-2.1h2.58v-.96h-2.58V12.29h2.66ZM-3.49,18h1.1l-3.16-7.06L-8.87,18h1.1l.73-1.61h2.85Zm-3.13-2.57,1.03-2.26.99,2.26Zm8.05-3.14v-.96H-2.65v.96h1.53V18H-.1V12.29Zm.9-.96v4.29a2.469,2.469,0,0,0,.62,1.73,2.432,2.432,0,0,0,1.85.78,2.432,2.432,0,0,0,1.85-.78,2.469,2.469,0,0,0,.62-1.73V11.33H6.25v4.02a2.331,2.331,0,0,1-.21,1.15,1.459,1.459,0,0,1-2.48,0,2.331,2.331,0,0,1-.21-1.15V11.33Zm6.54,0V18H9.89V15.27h.18L11.98,18h1.23l-2.08-2.85a1.829,1.829,0,0,0,1.48-1.86,1.861,1.861,0,0,0-.79-1.57,2.987,2.987,0,0,0-1.76-.39Zm1.02.94h.35c.5,0,1.39.09,1.39,1.03,0,1.06-1.14,1.09-1.42,1.09H9.89Zm8-.94H14.21V18h3.68v-.96H15.23v-2.1h2.58v-.96H15.23V12.29h2.66Z" transform="translate(20.8 27.12)" fill="#006385"/>
</svg>
