<svg xmlns="http://www.w3.org/2000/svg" width="36.95" height="45.25" viewBox="0 0 36.95 45.25">
  <path id="Path_737" data-name="Path 737" d="M-9.62.44A7.686,7.686,0,0,0-3.58-2.44c2.8-3.2,3.4-7.4,3.4-10.88,0-3.44-.6-7.72-3.4-10.92a7.744,7.744,0,0,0-6.04-2.88,7.744,7.744,0,0,0-6.04,2.88c-2.8,3.2-3.4,7.48-3.4,10.92,0,3.48.6,7.68,3.4,10.88A7.686,7.686,0,0,0-9.62.44Zm0-23.96a4.274,4.274,0,0,1,3.6,2.2c1.48,2.2,1.84,5.64,1.84,7.96,0,2.36-.36,5.76-1.84,8a4.274,4.274,0,0,1-3.6,2.2,4.274,4.274,0,0,1-3.6-2.2c-1.48-2.24-1.84-5.64-1.84-8,0-2.32.36-5.76,1.84-7.96A4.274,4.274,0,0,1-9.62-23.52ZM8.26,0h4.08V-26.68H5.86L3.62-22.92H8.26ZM-14.27,11.33h-3.34V18h1.02V14.94h2.24v-.96h-2.24V12.29h2.32Zm4.84,0h-3.68V18h3.68v-.96h-2.66v-2.1h2.58v-.96h-2.58V12.29h2.66ZM-3.49,18h1.1l-3.16-7.06L-8.87,18h1.1l.73-1.61h2.85Zm-3.13-2.57,1.03-2.26.99,2.26Zm8.05-3.14v-.96H-2.65v.96h1.53V18H-.1V12.29Zm.9-.96v4.29a2.469,2.469,0,0,0,.62,1.73,2.432,2.432,0,0,0,1.85.78,2.432,2.432,0,0,0,1.85-.78,2.469,2.469,0,0,0,.62-1.73V11.33H6.25v4.02a2.331,2.331,0,0,1-.21,1.15,1.459,1.459,0,0,1-2.48,0,2.331,2.331,0,0,1-.21-1.15V11.33Zm6.54,0V18H9.89V15.27h.18L11.98,18h1.23l-2.08-2.85a1.829,1.829,0,0,0,1.48-1.86,1.861,1.861,0,0,0-.79-1.57,2.987,2.987,0,0,0-1.76-.39Zm1.02.94h.35c.5,0,1.39.09,1.39,1.03,0,1.06-1.14,1.09-1.42,1.09H9.89Zm8-.94H14.21V18h3.68v-.96H15.23v-2.1h2.58v-.96H15.23V12.29h2.66Z" transform="translate(19.06 27.12)" fill="#006385"/>
</svg>
