<svg xmlns="http://www.w3.org/2000/svg" xmlns:xlink="http://www.w3.org/1999/xlink" width="282" height="282" viewBox="0 0 282 282">
  <defs>
    <filter id="Ellipse_26" x="0" y="0" width="282" height="282" filterUnits="userSpaceOnUse">
      <feOffset dy="3" input="SourceAlpha"/>
      <feGaussianBlur stdDeviation="3" result="blur"/>
      <feFlood flood-color="#01abab" flood-opacity="0.161"/>
      <feComposite operator="in" in2="blur"/>
      <feComposite in="SourceGraphic"/>
    </filter>
  </defs>
  <g id="Group_150" data-name="Group 150" transform="translate(9.262 6)">
    <g transform="matrix(1, 0, 0, 1, -9.26, -6)" filter="url(#Ellipse_26)">
      <circle id="Ellipse_26-2" data-name="Ellipse 26" cx="132" cy="132" r="132" transform="translate(9 6)" fill="#fff"/>
    </g>
    <path id="Path_712" data-name="Path 712" d="M-97.9-12.675l.625,1.45c1.625-.6,8.25-3.5,12.6-3.5,3.6,0,5.725,2.25,5.725,5.025,0,5.55-6.15,7.55-12.55,7.75l.55,1.35C-83.9-1.05-77.6-3.5-77.6-9.675c0-3.95-3.125-6.225-7.05-6.225-3.65,0-8.45,1.825-10.675,2.55C-96.3-13.075-97-12.85-97.9-12.675Zm37.175-3.175.9-.775a41.674,41.674,0,0,0-3.7-3.175l-.9.7A40.973,40.973,0,0,1-60.725-15.85ZM-69.35-17.7l-1.325.55A15.953,15.953,0,0,1-69.6-15.575c.425.675.975,1.75,1.625,3.05-1.375.625-2.575,1.175-3.425,1.5a13.793,13.793,0,0,1-1.8.6l.675,1.375c1.2-.525,3.025-1.45,5.05-2.425.375.75.75,1.575,1.125,2.4A77.358,77.358,0,0,1-62.925,1.1L-61.55.7c-.875-2.7-2.225-6.95-3.7-10.275-.375-.8-.75-1.625-1.125-2.4,3-1.4,6.3-2.675,8.65-2.675,2.775,0,4,1.55,4,3.175,0,1.775-1,3.575-4.25,3.575a8.316,8.316,0,0,1-3.6-.825l-.025,1.3a10.641,10.641,0,0,0,3.65.7c3.95,0,5.45-2.175,5.45-4.7,0-2.625-1.95-4.35-5.2-4.35-2.625,0-6.175,1.425-9.175,2.75-.6-1.2-1.175-2.3-1.65-3.15C-68.775-16.65-69.15-17.325-69.35-17.7Zm41.775,8.975c0-4.825-3.6-8.85-9.275-8.85-5.9,0-10.6,4.6-10.6,9.85,0,4.075,2.175,6.325,4.075,6.325,2.075,0,3.975-2.375,5.5-7.55A45.466,45.466,0,0,0-36.4-16.425a7.525,7.525,0,0,1,7.575,7.65c0,4.7-3.55,7.15-6.75,7.85a15.451,15.451,0,0,1-2.025.25L-36.875.55C-31.15-.125-27.575-3.475-27.575-8.725Zm-18.65.9c0-3.775,3.375-8.125,8.55-8.575A39.366,39.366,0,0,1-39.1-9.25c-1.4,4.725-2.975,6.45-4.2,6.45S-46.225-4.3-46.225-7.825ZM-13.575-19.6l-1.4-.05c0,.225-.025.625-.05,1.025-.05.575-.15,1.375-.25,2.275-.7.025-1.4.025-2.075.025a29.5,29.5,0,0,1-3.85-.3l.05,1.275c.925.075,2.875.175,3.8.175.625,0,1.275,0,1.95-.025-.125,1.225-.225,2.625-.3,4C-19.1-9.65-22-6.4-22-3.175A2.556,2.556,0,0,0-19.3-.35a8.323,8.323,0,0,0,4.425-1.625c.15.6.325,1.175.475,1.675l1.2-.375a21.043,21.043,0,0,1-.6-2.1A21.334,21.334,0,0,0-8.125-11.2C-5.4-10.575-3.9-8.625-3.9-6.475c0,3.7-3.3,5.95-7.625,6.425l.725,1.1C-5.2.125-2.65-2.8-2.65-6.4c0-2.675-1.825-5.025-5.1-5.775.075-.2.15-.425.225-.65.125-.325.25-.725.375-1l-1.35-.35a6.519,6.519,0,0,1-.2,1.05l-.225.75c-.375-.025-.775-.05-1.175-.05a15.182,15.182,0,0,0-4.475.775c.075-1.25.175-2.475.275-3.6a78.768,78.768,0,0,0,9.1-.95l-.025-1.25A58.018,58.018,0,0,1-14.15-16.4c.1-.9.225-1.65.325-2.225A4.236,4.236,0,0,1-13.575-19.6ZM-14.65-8.875c0-.525,0-1.05.025-1.6A13.155,13.155,0,0,1-10.05-11.4c.275,0,.525,0,.8.025a18.568,18.568,0,0,1-4.85,7.3A24.157,24.157,0,0,1-14.65-8.875ZM-20.75-3.3c0-2.475,2.225-5.25,5-6.675-.025.375-.025.75-.025,1.125a30.758,30.758,0,0,0,.625,5.625,6.825,6.825,0,0,1-4,1.625A1.491,1.491,0,0,1-20.75-3.3ZM8.8-2.45a2.08,2.08,0,0,1,2.275-1.8A3.872,3.872,0,0,1,14.95-.475a13.952,13.952,0,0,1-2.35.2C10.375-.275,8.8-1.075,8.8-2.45ZM6.225-18.05,6.25-16.7c.525-.05.95-.075,1.45-.125,1.3-.05,7.2-.325,8.575-.375-1.3,1.125-4.725,4.075-6.125,5.225C8.7-10.75,5.375-8,3.125-6.1l.95.925c3.45-3.35,5.55-4.925,9.9-4.925,3.45,0,5.875,2.025,5.875,4.575,0,2.375-1.45,3.975-3.75,4.75a4.833,4.833,0,0,0-5-4.475c-2.125,0-3.475,1.35-3.475,2.875,0,1.825,1.75,3.25,5.125,3.25C17.6.875,21.1-1.45,21.1-5.5c0-3.225-2.825-5.625-6.925-5.625a12.474,12.474,0,0,0-4.125.65c2.15-1.825,6.025-5.15,7.175-6.1.425-.35.875-.675,1.25-.95l-.9-.975a6.249,6.249,0,0,1-1.025.175C15.275-18.2,8.975-18,7.7-18,7.3-18,6.7-18,6.225-18.05Zm42.05,5.7a46.577,46.577,0,0,0-6.3-3.75c.125-.35.25-.7.35-1.075h6.1v-1.1H42.55a18.8,18.8,0,0,0,.3-2.55H41.6a17.882,17.882,0,0,1-.3,2.55H35.625v1.1H41.05c-.725,2.45-2.325,3.85-5.95,4.675a3.794,3.794,0,0,1,.675.925c2.975-.725,4.7-1.85,5.725-3.55a38.344,38.344,0,0,1,5.925,3.65ZM27.6-6.825A18.392,18.392,0,0,1,25.875-.8a5.292,5.292,0,0,1,1,.475,23.252,23.252,0,0,0,1.825-6.3Zm4.95.225A17.044,17.044,0,0,1,33.875-2L34.9-2.275a18.373,18.373,0,0,0-1.4-4.6Zm-.65-5.9a22.112,22.112,0,0,1,1.35,2.4c-1.575.075-3.075.15-4.45.225a82.792,82.792,0,0,0,5.225-7.675l-1.075-.5c-.75,1.425-1.8,3.175-2.9,4.85a18.693,18.693,0,0,0-1.675-2,45.837,45.837,0,0,0,2.875-5.175l-1.075-.45A36.3,36.3,0,0,1,27.7-15.9c-.3-.3-.575-.575-.875-.825l-.7.725A22,22,0,0,1,29.4-12.275c-.625.9-1.25,1.75-1.825,2.45L25.85-9.75l.125,1.125C27.2-8.675,28.65-8.75,30.2-8.85V1.8h1.1V-8.9l2.425-.15a12.222,12.222,0,0,1,.625,1.7l1.025-.475a22.077,22.077,0,0,0-2.525-5.05Zm9.875,5.575v3.8H37.75v-3.8Zm1.1,4.85v-5.85h-6.2v7.5H37.75v-1.65Zm5.9-9H35.05v1.1h10.6V.35c0,.3-.1.425-.475.425-.4.025-1.675.05-3.25,0a8.915,8.915,0,0,1,.425,1.1A15.144,15.144,0,0,0,46,1.65c.625-.15.8-.5.8-1.3V-9.975h1.975ZM73.3-19.8H63.45v.975H73.3Zm-.85,6.75v-4.425H64.1V-13h1.1v-3.575h6.125v3.525ZM66.725-15.5a11.316,11.316,0,0,1,2.05,2.275l.725-.65a9.326,9.326,0,0,0-2.075-2.175Zm-4.7-4.3H52.2v.975h9.825Zm-.65,6.75v-4.425h-8.15V-13h1.1v-3.575H60.25v3.525Zm-5.6-2.475a10.279,10.279,0,0,1,1.9,2.3l.75-.625a10.47,10.47,0,0,0-1.875-2.2ZM54.25-8.675h4.825v2.25h-4.85c.025-.525.025-1.025.025-1.475ZM59.075-11.3v1.675H54.25V-11.3ZM65.25-9.625H60.2V-11.3h5.05Zm6.125.95v2.25H66.35v-2.25ZM60.2-6.425v-2.25h5.05v2.25ZM67.125.55C65.925.55,65.7.4,65.7-.175v-1.9a40.29,40.29,0,0,0,7-1.75l-.925-.75A34.652,34.652,0,0,1,65.7-2.95V-5.5h6.825V-9.625H66.35V-11.3h6.825v-.975h-9.9V-13.8h-1.1v1.525h-9.05v4.35c0,2.7-.275,6.4-2.125,9.15a3.776,3.776,0,0,1,.975.675A15.72,15.72,0,0,0,54.15-5.5h2.425V.3C55.6.4,54.7.475,53.925.55l.15,1.05C56.575,1.325,60.15.9,63.6.475V-.5c-2.025.225-4.05.475-5.875.675V-2.5H63.3v-.95H57.725V-5.5H64.55V-.2c0,1.45.525,1.75,2.55,1.75h4.675c1.625,0,2.025-.6,2.15-3.1A3.762,3.762,0,0,1,72.9-2C72.825.225,72.65.55,71.675.55Zm18.85-20.225-1.45-.15A18.265,18.265,0,0,1,83.65-15.4a27.019,27.019,0,0,1-3.1.15,24.4,24.4,0,0,1-2.925-.15l.1,1.25c.85.025,1.925.05,2.8.05.9,0,1.825-.025,2.725-.1a34.545,34.545,0,0,1-5.5,9.675l1.275.675a43.921,43.921,0,0,0,5.525-10.5,32.92,32.92,0,0,0,4.675-.925l-.05-1.25a25.4,25.4,0,0,1-4.25,1C85.35-17,85.725-18.7,85.975-19.675ZM84.55-2.3c0-1.3,1.425-2.275,3.475-2.275a10.223,10.223,0,0,1,2.925.45c.025.55.025,1.075.025,1.5C90.975-1.3,90.2-.1,87.9-.1S84.55-.975,84.55-2.3ZM91.9-12H90.625c.05,1.925.2,4.55.275,6.725a11.763,11.763,0,0,0-2.875-.35c-2.425,0-4.65,1.2-4.65,3.425,0,2.325,2.1,3.275,4.65,3.275,2.8,0,4.1-1.525,4.1-3.325,0-.4,0-.9-.025-1.475a16.412,16.412,0,0,1,4.45,2.95l.7-1.1a16.931,16.931,0,0,0-5.2-3.075c-.075-1.7-.175-3.6-.2-4.65C91.825-10.4,91.85-10.975,91.9-12Zm5.4.275.75-1.05A34.112,34.112,0,0,0,92.4-16.05l-.625.95A28.637,28.637,0,0,1,97.3-11.725Z" transform="translate(131.738 150)" fill="#01abab"/>
    <path id="Path_711" data-name="Path 711" d="M-66.322-5.106A50.361,50.361,0,0,1-59.366,2.22l3.108-2.442a53.084,53.084,0,0,0-7.1-6.956Zm20.868-12.913v-3.515H-60.772c.333-3.367.37-6.66.407-9.509H-64.1c-.037,2.812,0,6.1-.37,9.509h-13.5v3.515h13.024C-66.285-10.989-69.8-4-79.05.037a10.526,10.526,0,0,1,2.627,2.849C-67.247-1.369-63.362-8.547-61.7-15.873-58.885-7.252-54.334-.592-47.082,2.96A16.609,16.609,0,0,1-44.529-.222c-7.1-3.071-11.8-9.731-14.245-17.8ZM-34.5-26.085l-4.514-.074a18.93,18.93,0,0,1,.3,3.478c0,2.22.037,6.66.407,9.916,1,9.731,4.44,13.283,8.177,13.283,2.7,0,5-2.183,7.326-8.51l-2.923-3.441c-.851,3.367-2.479,7.4-4.329,7.4-2.479,0-4-3.922-4.551-9.731a82.84,82.84,0,0,1-.259-8.325A30.287,30.287,0,0,1-34.5-26.085Zm18.944.925-3.663,1.221c3.737,4.44,5.846,12.654,6.475,19.018L-8.935-6.4C-9.416-12.4-12.154-20.868-15.558-25.16Zm42.106,5.143c-2.627,2.146-7.807,3.774-12.21,4.477a9.856,9.856,0,0,1,1.628,2.405c4.625-.888,9.953-2.627,12.876-5.032Zm-1.11-5.439c-2.331,1.813-6.7,3.441-10.286,4.255a9.841,9.841,0,0,1,1.7,2.146c3.7-.925,8.177-2.627,10.767-4.662Zm-1.369-5.328c-2,1.961-5.957,3.589-9.361,4.366a14.468,14.468,0,0,1,1.665,2.22C20-25.086,24.106-26.825,26.4-29.082ZM2.683-16.28c.37-.7.814-1.517,1.221-2.331H9.195l-1.443.629c.407.407.851.888,1.258,1.369Zm-5.92.3.3,2.368c3.7-.259,8.658-.592,13.542-1a16.067,16.067,0,0,1,1.036,1.554l2.627-1.184a38.208,38.208,0,0,0-3.626-4.366h3.848V-20.72H2.35v-1.258H12.414v-1.739H2.35v-1.258H12.377v-1.739H2.35v-1.258H13.191v-1.961H-.61v9.213H-3.755v2.109H.759c-.333.851-.7,1.739-1.073,2.479ZM18.963-5a16.9,16.9,0,0,1-4.7,2.738A17.75,17.75,0,0,1,9.047-5Zm2.886-2.368-.592.111H7.937A21.344,21.344,0,0,0,9.01-9.287H28.361v-2.59H10.12c.148-.407.3-.851.444-1.258l-3.441-.74c-.185.666-.407,1.332-.629,2H-4.051v2.59h9.4A22.094,22.094,0,0,1-5.05.74,19.345,19.345,0,0,1-2.423,2.96,24.494,24.494,0,0,0,6.087-4.4a17.846,17.846,0,0,0,4.588,3.33A51.192,51.192,0,0,1,2.868.37,10.876,10.876,0,0,1,4.533,3,48.853,48.853,0,0,0,14.412.555a51.007,51.007,0,0,0,12.58,2.368A13.247,13.247,0,0,1,28.8.148,61.609,61.609,0,0,1,18.112-1.184a16.56,16.56,0,0,0,5.624-4.921Zm25.53-18.019.037,3.774a94.3,94.3,0,0,0,15.5,0v-3.774A68.183,68.183,0,0,1,47.379-25.382ZM49.488-9.99l-3.33-.3a18.74,18.74,0,0,0-.629,4.551c0,3.589,2.886,5.772,9.176,5.772A50.765,50.765,0,0,0,64.066-.7l-.074-3.959a39.732,39.732,0,0,1-9.213,1c-4.477,0-5.772-1.369-5.772-3.034A12.854,12.854,0,0,1,49.488-9.99ZM40.941-28.046l-4.107-.37a26.9,26.9,0,0,1-.333,3.071c-.407,2.96-1.591,9.25-1.591,14.763A47.018,47.018,0,0,0,36.279,1.369l3.367-.222c-.037-.444-.074-1-.074-1.369a7.233,7.233,0,0,1,.185-1.7c.37-1.85,1.665-5.809,2.627-8.621l-1.85-1.48c-.592,1.369-1.332,3.182-1.961,4.7a36.509,36.509,0,0,1-.222-3.959,88.733,88.733,0,0,1,1.813-13.949A26.535,26.535,0,0,1,40.941-28.046ZM72.576-8.7h2.849l.592-14.8.148-4.4H71.873l.111,4.4ZM73.982.481a2.84,2.84,0,0,0,2.886-2.96,2.881,2.881,0,0,0-2.886-3.034A2.845,2.845,0,0,0,71.17-2.479,2.8,2.8,0,0,0,73.982.481Z" transform="translate(131.738 207)" fill="#01abab"/>
    <g id="Layer_2" data-name="Layer 2" transform="translate(97.738 46.981)">
      <path id="Path_457" data-name="Path 457" d="M6.609,50.94s-.311-6.074.931-9.979,3.844-6.074,4.4-7.811a17.136,17.136,0,0,0,.495-4.48s7.872,3.983,22.129,4.169,20.27-1.3,20.27-1.3-.311.745.495,2.171,3.224,4.464,4.587,8.926.495,7.5.495,9.112c0,1.131,1.86,1.426,2.479-.125s5.7-15.808,3.967-21.509-5.02-7.13-5.02-7.13,1.985-6.074,6.012-8.183c0,0-4.4-3.347-6.632-3.472a3.3,3.3,0,0,1,2.046-.559s-2.974-4.712-12.15-5.579c0,0,1.115-1.735,4.278-1.551,0,0-5.206-2.666-15.374-1.487,0,0,1.612-1.551,2.913-1.551,0,0-7.377-.681-12.645,1.426A3.283,3.283,0,0,1,32.454-.02S7.907.475,9.022,22.173A8.972,8.972,0,0,0,.466,28.686C-1.58,35.379,3.379,49.078,4.185,51.248s2.461,1.737,2.418-.311Z" transform="translate(0.025 0.02)" fill="#01abab"/>
    </g>
  </g>
</svg>
