<svg xmlns="http://www.w3.org/2000/svg" xmlns:xlink="http://www.w3.org/1999/xlink" width="547.132" height="3.919" viewBox="0 0 547.132 3.919">
  <defs>
    <clipPath id="clip-path">
      <rect width="547.132" height="3.919" fill="none"/>
    </clipPath>
  </defs>
  <g id="Repeat_Grid_11" data-name="Repeat Grid 11" clip-path="url(#clip-path)">
    <g transform="translate(-687.5 -9484.589)">
      <path id="Path_292" data-name="Path 292" d="M687.5,9485.089c4.592,0,2.71,2.919,8.235,2.919s4.02-2.919,8.9-2.919" fill="none" stroke="#01abab" stroke-width="1"/>
    </g>
    <g transform="translate(-670.5 -9484.589)">
      <path id="Path_292-2" data-name="Path 292" d="M687.5,9485.089c4.592,0,2.71,2.919,8.235,2.919s4.02-2.919,8.9-2.919" fill="none" stroke="#01abab" stroke-width="1"/>
    </g>
    <g transform="translate(-653.5 -9484.589)">
      <path id="Path_292-3" data-name="Path 292" d="M687.5,9485.089c4.592,0,2.71,2.919,8.235,2.919s4.02-2.919,8.9-2.919" fill="none" stroke="#01abab" stroke-width="1"/>
    </g>
    <g transform="translate(-636.5 -9484.589)">
      <path id="Path_292-4" data-name="Path 292" d="M687.5,9485.089c4.592,0,2.71,2.919,8.235,2.919s4.02-2.919,8.9-2.919" fill="none" stroke="#01abab" stroke-width="1"/>
    </g>
    <g transform="translate(-619.5 -9484.589)">
      <path id="Path_292-5" data-name="Path 292" d="M687.5,9485.089c4.592,0,2.71,2.919,8.235,2.919s4.02-2.919,8.9-2.919" fill="none" stroke="#01abab" stroke-width="1"/>
    </g>
    <g transform="translate(-602.5 -9484.589)">
      <path id="Path_292-6" data-name="Path 292" d="M687.5,9485.089c4.592,0,2.71,2.919,8.235,2.919s4.02-2.919,8.9-2.919" fill="none" stroke="#01abab" stroke-width="1"/>
    </g>
    <g transform="translate(-585.5 -9484.589)">
      <path id="Path_292-7" data-name="Path 292" d="M687.5,9485.089c4.592,0,2.71,2.919,8.235,2.919s4.02-2.919,8.9-2.919" fill="none" stroke="#01abab" stroke-width="1"/>
    </g>
    <g transform="translate(-568.5 -9484.589)">
      <path id="Path_292-8" data-name="Path 292" d="M687.5,9485.089c4.592,0,2.71,2.919,8.235,2.919s4.02-2.919,8.9-2.919" fill="none" stroke="#01abab" stroke-width="1"/>
    </g>
    <g transform="translate(-551.5 -9484.589)">
      <path id="Path_292-9" data-name="Path 292" d="M687.5,9485.089c4.592,0,2.71,2.919,8.235,2.919s4.02-2.919,8.9-2.919" fill="none" stroke="#01abab" stroke-width="1"/>
    </g>
    <g transform="translate(-534.5 -9484.589)">
      <path id="Path_292-10" data-name="Path 292" d="M687.5,9485.089c4.592,0,2.71,2.919,8.235,2.919s4.02-2.919,8.9-2.919" fill="none" stroke="#01abab" stroke-width="1"/>
    </g>
    <g transform="translate(-517.5 -9484.589)">
      <path id="Path_292-11" data-name="Path 292" d="M687.5,9485.089c4.592,0,2.71,2.919,8.235,2.919s4.02-2.919,8.9-2.919" fill="none" stroke="#01abab" stroke-width="1"/>
    </g>
    <g transform="translate(-500.5 -9484.589)">
      <path id="Path_292-12" data-name="Path 292" d="M687.5,9485.089c4.592,0,2.71,2.919,8.235,2.919s4.02-2.919,8.9-2.919" fill="none" stroke="#01abab" stroke-width="1"/>
    </g>
    <g transform="translate(-483.5 -9484.589)">
      <path id="Path_292-13" data-name="Path 292" d="M687.5,9485.089c4.592,0,2.71,2.919,8.235,2.919s4.02-2.919,8.9-2.919" fill="none" stroke="#01abab" stroke-width="1"/>
    </g>
    <g transform="translate(-466.5 -9484.589)">
      <path id="Path_292-14" data-name="Path 292" d="M687.5,9485.089c4.592,0,2.71,2.919,8.235,2.919s4.02-2.919,8.9-2.919" fill="none" stroke="#01abab" stroke-width="1"/>
    </g>
    <g transform="translate(-449.5 -9484.589)">
      <path id="Path_292-15" data-name="Path 292" d="M687.5,9485.089c4.592,0,2.71,2.919,8.235,2.919s4.02-2.919,8.9-2.919" fill="none" stroke="#01abab" stroke-width="1"/>
    </g>
    <g transform="translate(-432.5 -9484.589)">
      <path id="Path_292-16" data-name="Path 292" d="M687.5,9485.089c4.592,0,2.71,2.919,8.235,2.919s4.02-2.919,8.9-2.919" fill="none" stroke="#01abab" stroke-width="1"/>
    </g>
    <g transform="translate(-415.5 -9484.589)">
      <path id="Path_292-17" data-name="Path 292" d="M687.5,9485.089c4.592,0,2.71,2.919,8.235,2.919s4.02-2.919,8.9-2.919" fill="none" stroke="#01abab" stroke-width="1"/>
    </g>
    <g transform="translate(-398.5 -9484.589)">
      <path id="Path_292-18" data-name="Path 292" d="M687.5,9485.089c4.592,0,2.71,2.919,8.235,2.919s4.02-2.919,8.9-2.919" fill="none" stroke="#01abab" stroke-width="1"/>
    </g>
    <g transform="translate(-381.5 -9484.589)">
      <path id="Path_292-19" data-name="Path 292" d="M687.5,9485.089c4.592,0,2.71,2.919,8.235,2.919s4.02-2.919,8.9-2.919" fill="none" stroke="#01abab" stroke-width="1"/>
    </g>
    <g transform="translate(-364.5 -9484.589)">
      <path id="Path_292-20" data-name="Path 292" d="M687.5,9485.089c4.592,0,2.71,2.919,8.235,2.919s4.02-2.919,8.9-2.919" fill="none" stroke="#01abab" stroke-width="1"/>
    </g>
    <g transform="translate(-347.5 -9484.589)">
      <path id="Path_292-21" data-name="Path 292" d="M687.5,9485.089c4.592,0,2.71,2.919,8.235,2.919s4.02-2.919,8.9-2.919" fill="none" stroke="#01abab" stroke-width="1"/>
    </g>
    <g transform="translate(-330.5 -9484.589)">
      <path id="Path_292-22" data-name="Path 292" d="M687.5,9485.089c4.592,0,2.71,2.919,8.235,2.919s4.02-2.919,8.9-2.919" fill="none" stroke="#01abab" stroke-width="1"/>
    </g>
    <g transform="translate(-313.5 -9484.589)">
      <path id="Path_292-23" data-name="Path 292" d="M687.5,9485.089c4.592,0,2.71,2.919,8.235,2.919s4.02-2.919,8.9-2.919" fill="none" stroke="#01abab" stroke-width="1"/>
    </g>
    <g transform="translate(-296.5 -9484.589)">
      <path id="Path_292-24" data-name="Path 292" d="M687.5,9485.089c4.592,0,2.71,2.919,8.235,2.919s4.02-2.919,8.9-2.919" fill="none" stroke="#01abab" stroke-width="1"/>
    </g>
    <g transform="translate(-279.5 -9484.589)">
      <path id="Path_292-25" data-name="Path 292" d="M687.5,9485.089c4.592,0,2.71,2.919,8.235,2.919s4.02-2.919,8.9-2.919" fill="none" stroke="#01abab" stroke-width="1"/>
    </g>
    <g transform="translate(-262.5 -9484.589)">
      <path id="Path_292-26" data-name="Path 292" d="M687.5,9485.089c4.592,0,2.71,2.919,8.235,2.919s4.02-2.919,8.9-2.919" fill="none" stroke="#01abab" stroke-width="1"/>
    </g>
    <g transform="translate(-245.5 -9484.589)">
      <path id="Path_292-27" data-name="Path 292" d="M687.5,9485.089c4.592,0,2.71,2.919,8.235,2.919s4.02-2.919,8.9-2.919" fill="none" stroke="#01abab" stroke-width="1"/>
    </g>
    <g transform="translate(-228.5 -9484.589)">
      <path id="Path_292-28" data-name="Path 292" d="M687.5,9485.089c4.592,0,2.71,2.919,8.235,2.919s4.02-2.919,8.9-2.919" fill="none" stroke="#01abab" stroke-width="1"/>
    </g>
    <g transform="translate(-211.5 -9484.589)">
      <path id="Path_292-29" data-name="Path 292" d="M687.5,9485.089c4.592,0,2.71,2.919,8.235,2.919s4.02-2.919,8.9-2.919" fill="none" stroke="#01abab" stroke-width="1"/>
    </g>
    <g transform="translate(-194.5 -9484.589)">
      <path id="Path_292-30" data-name="Path 292" d="M687.5,9485.089c4.592,0,2.71,2.919,8.235,2.919s4.02-2.919,8.9-2.919" fill="none" stroke="#01abab" stroke-width="1"/>
    </g>
    <g transform="translate(-177.5 -9484.589)">
      <path id="Path_292-31" data-name="Path 292" d="M687.5,9485.089c4.592,0,2.71,2.919,8.235,2.919s4.02-2.919,8.9-2.919" fill="none" stroke="#01abab" stroke-width="1"/>
    </g>
    <g transform="translate(-160.5 -9484.589)">
      <path id="Path_292-32" data-name="Path 292" d="M687.5,9485.089c4.592,0,2.71,2.919,8.235,2.919s4.02-2.919,8.9-2.919" fill="none" stroke="#01abab" stroke-width="1"/>
    </g>
    <g transform="translate(-143.5 -9484.589)">
      <path id="Path_292-33" data-name="Path 292" d="M687.5,9485.089c4.592,0,2.71,2.919,8.235,2.919s4.02-2.919,8.9-2.919" fill="none" stroke="#01abab" stroke-width="1"/>
    </g>
  </g>
</svg>
