<svg id="Component_22_1" data-name="Component 22 – 1" xmlns="http://www.w3.org/2000/svg" width="328.963" height="78.513" viewBox="0 0 328.963 78.513">
  <path id="Path_512" data-name="Path 512" d="M-39.15-14.46h16.23v3.48H-39.15Zm15.03,0h3.78v.945a5.132,5.132,0,0,1-.03.615q-.12,3.39-.27,5.835T-20.985-3A17.763,17.763,0,0,1-21.45-.42a4.039,4.039,0,0,1-.66,1.44,3.691,3.691,0,0,1-1.245,1.02,5.305,5.305,0,0,1-1.515.42,14.147,14.147,0,0,1-1.98.135q-1.23.015-2.58-.045A7.023,7.023,0,0,0-29.79.705,7.566,7.566,0,0,0-30.6-1.08q1.26.09,2.34.12t1.62.03A2.638,2.638,0,0,0-25.95-1a1.262,1.262,0,0,0,.54-.345,3.7,3.7,0,0,0,.585-1.725q.225-1.335.405-3.96t.3-6.8ZM-35.79-25.11l3.9,1.14a34.672,34.672,0,0,1-2.655,5.04,36.559,36.559,0,0,1-3.33,4.47,27.185,27.185,0,0,1-3.7,3.54q-.33-.39-.9-.945t-1.155-1.1a12.285,12.285,0,0,0-1.035-.87,22.486,22.486,0,0,0,3.555-3.015,26.017,26.017,0,0,0,3.075-3.87A23.1,23.1,0,0,0-35.79-25.11Zm11.43-.06a25.643,25.643,0,0,0,1.74,2.94,33.818,33.818,0,0,0,2.235,2.925q1.215,1.425,2.49,2.685a25.289,25.289,0,0,0,2.5,2.19,10.226,10.226,0,0,0-1.065.945q-.585.585-1.11,1.185a13.778,13.778,0,0,0-.885,1.11q-1.26-1.17-2.55-2.625t-2.535-3.09Q-24.78-18.54-25.89-20.3T-27.9-23.76Zm-9.45,11.73h3.93a43.48,43.48,0,0,1-.69,4.92,17.26,17.26,0,0,1-1.575,4.53,12.849,12.849,0,0,1-3.15,3.885A17.588,17.588,0,0,1-40.71,2.88a6.874,6.874,0,0,0-.6-1.11q-.39-.6-.84-1.185a8.264,8.264,0,0,0-.9-1.005,14.716,14.716,0,0,0,4.8-2.385,10.165,10.165,0,0,0,2.67-3.12A12.3,12.3,0,0,0-34.335-9.54Q-33.99-11.46-33.81-13.44ZM-4.5-20.31l3.33-1.59A29.763,29.763,0,0,1,.72-19.53Q1.65-18.24,2.385-17A20.318,20.318,0,0,1,3.57-14.7L.03-12.81a17.034,17.034,0,0,0-1.08-2.355Q-1.77-16.5-2.67-17.85A28.091,28.091,0,0,0-4.5-20.31ZM-14.22-4.56q1.53-.51,3.555-1.29T-6.4-7.53q2.235-.9,4.425-1.8l.84,3.51q-2.01.9-4.08,1.8T-9.285-2.28l-3.7,1.56ZM3.36-7.23,6.12-9.78q1.02,1.08,2.2,2.31t2.34,2.5Q11.82-3.69,12.81-2.505A21.274,21.274,0,0,1,14.43-.33l-3.09,3A19.815,19.815,0,0,0,9.825.405Q8.88-.84,7.785-2.16T5.535-4.785Q4.38-6.09,3.36-7.23ZM7.44-23.76l3.99.36a67.732,67.732,0,0,1-1.56,9.2,31.575,31.575,0,0,1-2.73,7.29,21.154,21.154,0,0,1-4.305,5.6A22.971,22.971,0,0,1-3.45,2.73q-.27-.39-.78-.99T-5.31.525A9.744,9.744,0,0,0-6.33-.45,20.772,20.772,0,0,0-.285-3.9,17.147,17.147,0,0,0,3.72-8.835a26.219,26.219,0,0,0,2.43-6.57A60.594,60.594,0,0,0,7.44-23.76Zm-18.27.12,3.78-.15.69,19.5-3.78.15ZM28.11-12.15l2.73-1.95q.99.87,2.115,1.92t2.235,2.145q1.11,1.1,2.07,2.115t1.62,1.86L35.91-3.72q-.6-.84-1.515-1.89t-1.98-2.205q-1.065-1.155-2.19-2.25T28.11-12.15Zm.06-13.35h3.72v7.2a25.752,25.752,0,0,1-.2,3.105,19.139,19.139,0,0,1-.69,3.24,15.086,15.086,0,0,1-1.41,3.21,14.692,14.692,0,0,1-2.34,3A18.05,18.05,0,0,1,23.79-3.09a10.053,10.053,0,0,0-.72-.9q-.45-.51-.945-1a8.293,8.293,0,0,0-.945-.825,14.093,14.093,0,0,0,3.24-2.19,10.8,10.8,0,0,0,2.04-2.505,11.021,11.021,0,0,0,1.11-2.655,15.977,15.977,0,0,0,.48-2.655q.12-1.3.12-2.475Zm-10.5,5.01H40.44v3.51H21.27V2.76h-3.6Zm21.21,0h3.57V-1.41A5.792,5.792,0,0,1,42.09.855,2.415,2.415,0,0,1,40.77,2.1a7.049,7.049,0,0,1-2.37.525q-1.44.1-3.45.105a7.147,7.147,0,0,0-.255-1.17Q34.5.9,34.26.27a8.291,8.291,0,0,0-.51-1.11q.9.03,1.8.045t1.6.015h.975a1.073,1.073,0,0,0,.585-.165.658.658,0,0,0,.165-.525Z" transform="translate(286.513 67.5)" fill="#fff"/>
  <g id="clock01" transform="translate(0 0)">
    <path id="Path_200" data-name="Path 200" d="M70.252,20.658a3.271,3.271,0,0,0-1.52,4.369A32.381,32.381,0,0,1,71.97,39.256,32.714,32.714,0,1,1,39.257,6.543,32.32,32.32,0,0,1,59.565,13.6a3.271,3.271,0,1,0,4.071-5.121A39.262,39.262,0,1,0,78.513,39.256,38.855,38.855,0,0,0,74.62,22.178a3.268,3.268,0,0,0-4.369-1.52Zm0,0" fill="#fff"/>
    <path id="Path_201" data-name="Path 201" d="M179.271,64A3.273,3.273,0,0,0,176,67.271v22.9a3.273,3.273,0,0,0,3.271,3.271h16.357a3.271,3.271,0,0,0,0-6.543H182.543V67.271A3.273,3.273,0,0,0,179.271,64Zm0,0" transform="translate(-140.015 -50.915)" fill="#fff"/>
  </g>
  <path id="Path_511" data-name="Path 511" d="M-33.81,0V-58.88l6.44,6.44H-46.69V-64.4h27.784V0ZM21.114,1.1A30.531,30.531,0,0,1,5.8-2.576,24.465,24.465,0,0,1-4.186-13.34q-3.5-7.084-3.5-17.48,0-11.132,4.186-18.86A28.6,28.6,0,0,1,8.1-61.456,35.011,35.011,0,0,1,25.162-65.5a42.854,42.854,0,0,1,9.844,1.1,25.484,25.484,0,0,1,8.1,3.312L37.582-50.14a16.366,16.366,0,0,0-5.7-2.53,28.564,28.564,0,0,0-6.348-.69q-8.372,0-13.248,5.06t-4.876,15q0,1.656.046,3.68a20.306,20.306,0,0,0,.506,4.048L3.818-29.44a19.067,19.067,0,0,1,4.508-6.026,18.391,18.391,0,0,1,6.578-3.68,27.1,27.1,0,0,1,8.418-1.242A24.754,24.754,0,0,1,34.546-37.9,20.207,20.207,0,0,1,42.5-30.912a18.7,18.7,0,0,1,2.99,10.58A19.8,19.8,0,0,1,42.228-8.97a21.577,21.577,0,0,1-8.74,7.452A28.291,28.291,0,0,1,21.114,1.1Zm-.828-11.132a12.9,12.9,0,0,0,5.566-1.15,8.843,8.843,0,0,0,3.818-3.358,9.347,9.347,0,0,0,1.38-5.06,8.89,8.89,0,0,0-2.99-7.038A11.636,11.636,0,0,0,20.1-29.256a12.8,12.8,0,0,0-5.8,1.242,9.848,9.848,0,0,0-3.91,3.4A8.9,8.9,0,0,0,8.97-19.6a8.95,8.95,0,0,0,1.38,4.922,9.51,9.51,0,0,0,3.864,3.4A13.477,13.477,0,0,0,20.286-10.028Z" transform="translate(164.013 72)" fill="#f2e724"/>
</svg>
