<svg xmlns="http://www.w3.org/2000/svg" width="146" height="230" viewBox="0 0 146 230">
  <g id="Group_767" data-name="Group 767" transform="translate(-1623 -5758.064)">
    <path id="Path_206" data-name="Path 206" d="M0,0H146V230H0Z" transform="translate(1623 5758.064)" fill="none"/>
    <path id="Path_494" data-name="Path 494" d="M-9.08-9.8H9.12v1.96H-9.08ZM-3.9-3.74H3.86v1.72H-3.9Zm0,3.06H3.86V1.18H-3.9Zm-3.44-12H7.36v1.9H-7.34ZM-8-15.58H8.02v1.9H-8ZM2.72-12.06A13.112,13.112,0,0,0,4.33-9.07,12.48,12.48,0,0,0,6.69-6.58,11.938,11.938,0,0,0,9.66-4.84a5.265,5.265,0,0,0-.57.58q-.31.36-.58.73t-.47.69A12.888,12.888,0,0,1,4.89-4.93,14.856,14.856,0,0,1,2.4-7.85,18.7,18.7,0,0,1,.58-11.44ZM-5.36-6.82H5.4V1.7H2.92V-4.96H-3V1.78H-5.36ZM-1.78-17l2.46.2a25.683,25.683,0,0,1-.75,4.19A17.883,17.883,0,0,1-1.64-8.66,15.337,15.337,0,0,1-4.23-5.19,15.765,15.765,0,0,1-8.04-2.4a4.132,4.132,0,0,0-.41-.67q-.27-.37-.57-.71a3.529,3.529,0,0,0-.58-.54A13.986,13.986,0,0,0-6.07-6.77,12.849,12.849,0,0,0-3.72-9.83,14.783,14.783,0,0,0-2.36-13.3,20.36,20.36,0,0,0-1.78-17Z" transform="translate(1696 5889.564)" fill="#fff"/>
    <g id="Group_565" data-name="Group 565" transform="translate(10 -33)">
      <path id="Path_496" data-name="Path 496" d="M-3.54-1.77H9.87V1.5H-3.54ZM-5.07-22.53H5.58v3.18H-5.07Zm.81-3.12,4.05.78a34.8,34.8,0,0,1-2.955,4.245,33.15,33.15,0,0,1-3.78,3.93A30.757,30.757,0,0,1-11.76-13.23a7.3,7.3,0,0,0-.72-.975q-.45-.525-.93-1.035a6.3,6.3,0,0,0-.9-.81,26.477,26.477,0,0,0,4.425-2.91A23.862,23.862,0,0,0-6.54-22.275,20.466,20.466,0,0,0-4.26-25.65Zm8.7,3.12H5.1l.6-.18,2.49,1.29a27.4,27.4,0,0,1-3.405,6.405,29.86,29.86,0,0,1-4.77,5.2A33.739,33.739,0,0,1-5.79-5.79a40.6,40.6,0,0,1-6.48,2.85,8.414,8.414,0,0,0-.57-1.11q-.36-.6-.75-1.17a6.732,6.732,0,0,0-.78-.96A31.525,31.525,0,0,0-8.325-8.565a31.551,31.551,0,0,0,5.43-3.555A26.768,26.768,0,0,0,1.5-16.635,20.447,20.447,0,0,0,4.44-21.93ZM-9-15.96l2.7-2.31q1.05.72,2.2,1.62t2.19,1.815A15.034,15.034,0,0,1-.21-13.11l-2.91,2.58a14.855,14.855,0,0,0-1.56-1.755q-.99-.975-2.13-1.935T-9-15.96ZM8.22-10.89h3.72V2.7H8.22Zm-10.23,0H10.02v3.24H-2.01V2.67H-5.64V-8.25l2.76-2.64Z" transform="translate(1719 6005)" fill="#fff"/>
      <path id="Path_495" data-name="Path 495" d="M-28.215-13.23v-9.81L1.485-63h15.3l-29.07,39.96-7.11-2.07h49.59v11.88ZM5.715,0V-13.23l.45-11.88V-36.9h13.77V0Z" transform="translate(1665 6007)" fill="#f2e724"/>
    </g>
    <g id="sakura01" transform="translate(921.869 5230.9)">
      <path id="Path_213" data-name="Path 213" d="M773.467,585.874s-1.575,13.808-16.836,15.262l-2.18-5.572-5.935-1.453c.121,0-2.059-11.991,9.569-18.411" transform="translate(1.759 6.887)" fill="none" stroke="#fff" stroke-linecap="round" stroke-linejoin="round" stroke-miterlimit="10" stroke-width="2"/>
      <path id="Path_214" data-name="Path 214" d="M783.335,574.6a17.968,17.968,0,0,1,9.327,20.712l-6.056.363-3.27,5.208c0-.121-12.112-1.7-14.535-14.777" transform="translate(6.063 6.654)" fill="none" stroke="#fff" stroke-linecap="round" stroke-linejoin="round" stroke-miterlimit="10" stroke-width="2"/>
      <path id="Path_215" data-name="Path 215" d="M775.1,561.54s9.448-10.3,22.65-2.423l-1.453,5.814,3.876,4.724a18.069,18.069,0,0,1-18.532,9.205" transform="translate(7.394 2.757)" fill="none" stroke="#fff" stroke-linecap="round" stroke-linejoin="round" stroke-miterlimit="10" stroke-width="2"/>
      <path id="Path_216" data-name="Path 216" d="M760.458,565.387s-6.9-12.113,4.6-22.287l5.087,3.27,5.693-2.3a18.126,18.126,0,0,1,3.149,20.591" transform="translate(3.867)" fill="none" stroke="#fff" stroke-linecap="round" stroke-linejoin="round" stroke-miterlimit="10" stroke-width="2"/>
      <path id="Path_217" data-name="Path 217" d="M759.843,579.985A17.991,17.991,0,0,1,740.1,568.72l4.6-3.876-.363-6.056c.121.121,10.78-5.572,20.47,3.513" transform="translate(0 2.965)" fill="none" stroke="#fff" stroke-linecap="round" stroke-linejoin="round" stroke-miterlimit="10" stroke-width="2"/>
      <g id="Group_607" data-name="Group 607" transform="translate(764.325 573.745)">
        <circle id="Ellipse_81" data-name="Ellipse 81" cx="1.453" cy="1.453" r="1.453" fill="#fff"/>
        <path id="Path_218" data-name="Path 218" d="M762,570.327l4.845.969-4.6-1.7Z" transform="translate(-759.699 -568.147)" fill="#fff"/>
      </g>
      <g id="Group_608" data-name="Group 608" transform="translate(773.167 568.052)">
        <circle id="Ellipse_82" data-name="Ellipse 82" cx="1.332" cy="1.332" r="1.332" fill="#fff"/>
        <path id="Path_219" data-name="Path 219" d="M768.2,565.5l.363,4.361.242-4.361Z" transform="translate(-767.231 -563.32)" fill="#fff"/>
      </g>
      <g id="Group_609" data-name="Group 609" transform="translate(768.685 579.922)">
        <circle id="Ellipse_83" data-name="Ellipse 83" cx="1.332" cy="1.332" r="1.332" transform="translate(0 3.028)" fill="#fff"/>
        <path id="Path_220" data-name="Path 220" d="M765.585,577.255l2.3-3.755-2.786,3.391Z" transform="translate(-763.404 -573.5)" fill="#fff"/>
      </g>
      <g id="Group_610" data-name="Group 610" transform="translate(769.389 570.572)">
        <path id="Path_221" data-name="Path 221" d="M765.152,565.8a.977.977,0,1,1-.848,1.09A.943.943,0,0,1,765.152,565.8Z" transform="translate(-764.281 -565.781)" fill="#fff"/>
        <path id="Path_222" data-name="Path 222" d="M765.3,567.406l2.18,2.423-1.575-3.028Z" transform="translate(-764.065 -565.565)" fill="#fff"/>
      </g>
      <g id="Group_611" data-name="Group 611" transform="translate(774.257 580.528)">
        <circle id="Ellipse_84" data-name="Ellipse 84" cx="0.969" cy="0.969" r="0.969" transform="translate(0 3.028)" fill="#fff"/>
        <path id="Path_223" data-name="Path 223" d="M769.548,577.27l-.727-3.27-.121,3.391Z" transform="translate(-768.215 -574)" fill="#fff"/>
      </g>
      <g id="Group_612" data-name="Group 612" transform="translate(767.111 578.468)">
        <circle id="Ellipse_85" data-name="Ellipse 85" cx="0.969" cy="0.969" r="0.969" transform="translate(0 0.485)" fill="#fff"/>
        <path id="Path_224" data-name="Path 224" d="M763.863,573.753l2.907-1.453-3.27.727Z" transform="translate(-762.168 -572.3)" fill="#fff"/>
      </g>
      <g id="Group_613" data-name="Group 613" transform="translate(778.012 573.381)">
        <circle id="Ellipse_86" data-name="Ellipse 86" cx="1.453" cy="1.453" r="1.453" transform="translate(4.239)" fill="#fff"/>
        <path id="Path_225" data-name="Path 225" d="M776,569.2l-4.6,1.817,4.845-1.09Z" transform="translate(-771.4 -567.868)" fill="#fff"/>
      </g>
      <g id="Group_614" data-name="Group 614" transform="translate(776.68 580.043)">
        <circle id="Ellipse_87" data-name="Ellipse 87" cx="1.332" cy="1.332" r="1.332" transform="translate(2.18 3.755)" fill="#fff"/>
        <path id="Path_226" data-name="Path 226" d="M773.691,577.6l-3.391-4,2.786,4.482Z" transform="translate(-770.3 -573.6)" fill="#fff"/>
      </g>
      <g id="Group_615" data-name="Group 615" transform="translate(778.133 578.953)">
        <circle id="Ellipse_88" data-name="Ellipse 88" cx="0.969" cy="0.969" r="0.969" transform="translate(2.665 0.484)" fill="#fff"/>
        <path id="Path_227" data-name="Path 227" d="M774.649,573.548,771.5,572.7l2.907,1.575Z" transform="translate(-771.5 -572.7)" fill="#fff"/>
      </g>
      <g id="Group_616" data-name="Group 616" transform="translate(776.922 570.474)">
        <path id="Path_228" data-name="Path 228" d="M771.884,565.821a.977.977,0,1,1-.363,1.332A.974.974,0,0,1,771.884,565.821Z" transform="translate(-770.31 -565.7)" fill="#fff"/>
        <path id="Path_229" data-name="Path 229" d="M771.953,566.8l-1.454,3.028,2.18-2.665Z" transform="translate(-770.5 -565.468)" fill="#fff"/>
      </g>
    </g>
  </g>
</svg>
