<svg xmlns="http://www.w3.org/2000/svg" width="64.17" height="153.136" viewBox="0 0 64.17 153.136">
  <g id="Group_764" data-name="Group 764" transform="translate(-870.35 -4314.864)">
    <path id="Path_479" data-name="Path 479" d="M-22.416-17.88H-1.44v1.7H-22.416Zm9.432-2.256h1.848V1.92h-1.848ZM-13.56-6.408l1.512.672a17.732,17.732,0,0,1-1.968,2.208A24.675,24.675,0,0,1-16.428-1.5,25.38,25.38,0,0,1-19.08.216a25.967,25.967,0,0,1-2.688,1.32q-.144-.216-.36-.5t-.444-.564a2.9,2.9,0,0,0-.444-.444,22.436,22.436,0,0,0,2.652-1.14,24.741,24.741,0,0,0,2.628-1.536,21.762,21.762,0,0,0,2.352-1.812A13.6,13.6,0,0,0-13.56-6.408Zm3.024.024A14.329,14.329,0,0,0-8.652-4.428a22.436,22.436,0,0,0,2.388,1.8A26.072,26.072,0,0,0-3.6-1.092,19.776,19.776,0,0,0-.912.024Q-1.1.216-1.344.492t-.456.564q-.216.288-.384.528A22.44,22.44,0,0,1-4.884.276a26.972,26.972,0,0,1-2.688-1.74A24.343,24.343,0,0,1-10.008-3.5,19.4,19.4,0,0,1-12-5.712ZM-18.576-9.1v2.328H-5.232V-9.1Zm0-3.624v2.28H-5.232v-2.28Zm-1.752-1.44H-3.384v8.832H-20.328Zm21.864.1h7.08v1.8H1.536ZM13.56-19.7h1.872V-1.9A2.174,2.174,0,0,0,15.66-.66a1.339,1.339,0,0,0,1.02.276h3.528a.94.94,0,0,0,.852-.432,3.914,3.914,0,0,0,.408-1.524q.132-1.092.2-3.084a3.958,3.958,0,0,0,.54.36,6.181,6.181,0,0,0,.612.3,5.5,5.5,0,0,0,.552.2,23.659,23.659,0,0,1-.36,3.492A3.414,3.414,0,0,1,22.14.8a2.55,2.55,0,0,1-1.788.564H16.488a4.375,4.375,0,0,1-1.764-.288,1.685,1.685,0,0,1-.9-1.008A5.985,5.985,0,0,1,13.56-1.92Zm-5.832-.024H9.576V1.7H7.728Zm13.656,3.7,1.344,1.584q-1.1.84-2.448,1.716t-2.772,1.7q-1.428.828-2.8,1.572a3.828,3.828,0,0,0-.324-.72,6.808,6.808,0,0,0-.42-.672q1.344-.744,2.7-1.632t2.592-1.8A22.8,22.8,0,0,0,21.384-16.032ZM.816-2.928q.984-.336,2.244-.8t2.688-1.02q1.428-.552,2.844-1.1l.336,1.608q-1.872.816-3.8,1.632T1.632-1.152Z" transform="translate(905 4335)" fill="#fff"/>
    <path id="Path_480" data-name="Path 480" d="M-22.05,0V-57.6l6.3,6.3h-18.9V-63H-7.47V0Z" transform="translate(905 4468)" fill="#f2e724"/>
    <path id="Path_481" data-name="Path 481" d="M-2.52-24.78H1.62q-.06,1.26-.21,3.24t-.555,4.4A39.616,39.616,0,0,1-.36-12.09,29.929,29.929,0,0,1-2.565-6.825,25.138,25.138,0,0,1-6.1-1.815a23,23,0,0,1-5.2,4.245A9.715,9.715,0,0,0-12.615.96,15.189,15.189,0,0,0-14.34-.45,20.924,20.924,0,0,0-9.3-4.29,21.59,21.59,0,0,0-5.97-8.835a23.874,23.874,0,0,0,1.98-4.8A33.476,33.476,0,0,0-3-18.21a38.17,38.17,0,0,0,.36-3.87Q-2.58-23.79-2.52-24.78Zm3.99.81q.03.57.12,1.8t.36,2.94a33.273,33.273,0,0,0,.825,3.7,29.972,29.972,0,0,0,1.485,4.1A25.517,25.517,0,0,0,6.57-7.32,19.762,19.762,0,0,0,9.915-3.6a20.254,20.254,0,0,0,4.6,2.97,9.656,9.656,0,0,0-1.6,1.47A11.232,11.232,0,0,0,11.73,2.43,20.534,20.534,0,0,1,6.915-.855a22.031,22.031,0,0,1-3.51-4.14A28.093,28.093,0,0,1,.99-9.54,34.847,34.847,0,0,1-.555-14.085,42.287,42.287,0,0,1-1.44-18.24q-.3-1.92-.4-3.33t-.165-2.04Z" transform="translate(920 4464)" fill="#fff"/>
  </g>
</svg>
