<svg xmlns="http://www.w3.org/2000/svg" width="146" height="230" viewBox="0 0 146 230">
  <g id="Group_770" data-name="Group 770" transform="translate(-1622 -5758)">
    <path id="Path_206" data-name="Path 206" d="M0,0H146V230H0Z" transform="translate(1622 5758)" fill="none"/>
    <path id="Path_503" data-name="Path 503" d="M-2.58-17.12l2.36.84a21.977,21.977,0,0,1-2.04,2.8,24.848,24.848,0,0,1-2.45,2.5,23.524,23.524,0,0,1-2.59,2,6.694,6.694,0,0,0-.58-.59q-.36-.33-.72-.65a5.363,5.363,0,0,0-.64-.5,17.633,17.633,0,0,0,2.57-1.72,18.479,18.479,0,0,0,2.31-2.2A14.465,14.465,0,0,0-2.58-17.12Zm6.56,1.84h.48l.42-.12,1.68.98A14.7,14.7,0,0,1,4-10.63,18.012,18.012,0,0,1,.47-7.71,25.056,25.056,0,0,1-3.75-5.57,33.313,33.313,0,0,1-8.38-4.12a6.538,6.538,0,0,0-.32-.74q-.2-.4-.43-.8a3.668,3.668,0,0,0-.47-.66A28.1,28.1,0,0,0-5.3-7.5,22.991,22.991,0,0,0-1.38-9.34a15.746,15.746,0,0,0,3.2-2.48,10.834,10.834,0,0,0,2.16-3.1Zm-7.24,1.62a11.835,11.835,0,0,0,2.25,2.31A17.786,17.786,0,0,0,2.02-9.43,26.163,26.163,0,0,0,5.64-7.94,30.058,30.058,0,0,0,9.66-6.92a5.915,5.915,0,0,0-.55.65q-.29.39-.56.8a6.146,6.146,0,0,0-.43.75A27.368,27.368,0,0,1,4.03-5.89,23.906,23.906,0,0,1,.35-7.63,20.875,20.875,0,0,1-2.82-9.89,18.285,18.285,0,0,1-5.4-12.64Zm.12,9.02,1.3-1.76q1,.24,2.08.61t2.07.77a18.745,18.745,0,0,1,1.71.78L2.7-2.32a14.686,14.686,0,0,0-1.69-.85Q.02-3.6-1.06-3.99T-3.14-4.64ZM-6.44-.58l1.42-2.08q1.4.18,2.89.44t2.97.57q1.48.31,2.82.65T6.1-.32L4.74,1.96Q3.72,1.6,2.38,1.23T-.46.53Q-1.96.2-3.49-.09T-6.44-.58Zm3.76-14.7H4.44v2.14h-8.6Z" transform="translate(1696 5889.564)" fill="#fff"/>
    <g id="Group_565" data-name="Group 565" transform="translate(10 -33)">
      <path id="Path_505" data-name="Path 505" d="M-3.54-1.77H9.87V1.5H-3.54ZM-5.07-22.53H5.58v3.18H-5.07Zm.81-3.12,4.05.78a34.8,34.8,0,0,1-2.955,4.245,33.15,33.15,0,0,1-3.78,3.93A30.757,30.757,0,0,1-11.76-13.23a7.3,7.3,0,0,0-.72-.975q-.45-.525-.93-1.035a6.3,6.3,0,0,0-.9-.81,26.477,26.477,0,0,0,4.425-2.91A23.862,23.862,0,0,0-6.54-22.275,20.466,20.466,0,0,0-4.26-25.65Zm8.7,3.12H5.1l.6-.18,2.49,1.29a27.4,27.4,0,0,1-3.405,6.405,29.86,29.86,0,0,1-4.77,5.2A33.739,33.739,0,0,1-5.79-5.79a40.6,40.6,0,0,1-6.48,2.85,8.414,8.414,0,0,0-.57-1.11q-.36-.6-.75-1.17a6.732,6.732,0,0,0-.78-.96A31.525,31.525,0,0,0-8.325-8.565a31.551,31.551,0,0,0,5.43-3.555A26.768,26.768,0,0,0,1.5-16.635,20.447,20.447,0,0,0,4.44-21.93ZM-9-15.96l2.7-2.31q1.05.72,2.2,1.62t2.19,1.815A15.034,15.034,0,0,1-.21-13.11l-2.91,2.58a14.855,14.855,0,0,0-1.56-1.755q-.99-.975-2.13-1.935T-9-15.96ZM8.22-10.89h3.72V2.7H8.22Zm-10.23,0H10.02v3.24H-2.01V2.67H-5.64V-8.25l2.76-2.64Z" transform="translate(1719 6005)" fill="#fff"/>
      <path id="Path_504" data-name="Path 504" d="M3.015,1.08A29.867,29.867,0,0,1-11.97-2.52a23.934,23.934,0,0,1-9.765-10.53q-3.42-6.93-3.42-17.1,0-10.89,4.095-18.45A27.982,27.982,0,0,1-9.72-60.12a34.25,34.25,0,0,1,16.7-3.96A41.922,41.922,0,0,1,16.6-63a24.931,24.931,0,0,1,7.92,3.24l-5.4,10.71a16.01,16.01,0,0,0-5.58-2.475,27.943,27.943,0,0,0-6.21-.675q-8.19,0-12.96,4.95T-10.4-32.58q0,1.62.045,3.6a19.865,19.865,0,0,0,.5,3.96l-4.05-3.78a18.653,18.653,0,0,1,4.41-5.895A17.992,17.992,0,0,1-3.06-38.3,26.507,26.507,0,0,1,5.175-39.51a24.216,24.216,0,0,1,10.98,2.43,19.767,19.767,0,0,1,7.785,6.84,18.289,18.289,0,0,1,2.925,10.35A19.365,19.365,0,0,1,23.67-8.775a21.108,21.108,0,0,1-8.55,7.29A27.676,27.676,0,0,1,3.015,1.08ZM2.205-9.81A12.618,12.618,0,0,0,7.65-10.935a8.651,8.651,0,0,0,3.735-3.285,9.143,9.143,0,0,0,1.35-4.95A8.7,8.7,0,0,0,9.81-26.055,11.383,11.383,0,0,0,2.025-28.62a12.527,12.527,0,0,0-5.67,1.215,9.634,9.634,0,0,0-3.825,3.33,8.7,8.7,0,0,0-1.4,4.9,8.756,8.756,0,0,0,1.35,4.815,9.3,9.3,0,0,0,3.78,3.33A13.184,13.184,0,0,0,2.205-9.81Z" transform="translate(1665 6007)" fill="#f2e724"/>
    </g>
    <path id="ac_unit_FILL0_wght400_GRAD0_opsz48" d="M113.4-807.786v-17.6l-13.45,13.45-3.881-3.791L113.4-833.061v-8.124h-8.124L88.3-824.215l-3.972-3.7L97.6-841.185H80V-846.6H97.6l-13.54-13.54,3.881-3.881L105.275-846.6H113.4v-8.214l-16.97-16.97,3.791-3.972L113.4-862.488V-880h5.416v17.512l13.54-13.54,3.791,3.881-17.331,17.331v8.214h8.214l17.061-17.06,3.881,3.791L134.7-846.6h17.512v5.416H134.7l13.36,13.45-3.7,3.881-17.331-17.331h-8.214v8.124l17.331,17.422-3.7,3.881-13.63-13.63v17.6Z" transform="translate(1580 6651)" fill="#fff"/>
  </g>
</svg>
