<svg xmlns="http://www.w3.org/2000/svg" width="85" height="146" viewBox="0 0 85 146">
  <g id="Group_636" data-name="Group 636" transform="translate(-1464 -4618)">
    <rect id="Rectangle_1994" data-name="Rectangle 1994" width="85" height="146" transform="translate(1464 4618)" fill="none"/>
    <path id="Icon_map-baseball" data-name="Icon map-baseball" d="M35.2,16.331a4.341,4.341,0,0,0,4.129-4.517A4.341,4.341,0,0,0,35.2,7.3a4.343,4.343,0,0,0-4.134,4.518A4.342,4.342,0,0,0,35.2,16.331ZM46.657,55.778,40.8,36V20.4c0-2.119-2.407-2.4-2.407-2.4H30.518A12.394,12.394,0,0,0,28.8,19.2l-3.875,1.776L20.14,15.655a2.067,2.067,0,0,0-3.083-.349,2.57,2.57,0,0,0-.208,3.4l6.1,6.666a2.17,2.17,0,0,0,1.633.8c.475,0-.23-.169.137-.443L28.8,24V36L22.589,55.74c-.451,1.786,1.094,3.624,2.737,4.1a3.341,3.341,0,0,0,4.043-2.372l5.516-17.736,5.546,17.777a3.191,3.191,0,0,0,3.907,2.371,3.477,3.477,0,0,0,2.318-4.105ZM15.764,20.969a.518.518,0,0,0,.78,0l.073-.067a.653.653,0,0,0,0-.859L15.424,18.7a.533.533,0,0,0-.794-.006l-.06.073a.636.636,0,0,0-.012.853l1.207,1.345ZM27.19,5.8,20.14,14.14l.856.953,7.866-7.416,5.23-5.27a1.491,1.491,0,0,0,.341-.947A1.4,1.4,0,0,0,33.127,0a1.272,1.272,0,0,0-.9.367L27.19,5.8Z" transform="translate(1474.601 4633)" fill="#fff"/>
    <path id="Path_487" data-name="Path 487" d="M-34.656-3.7h21.384v1.632H-34.656Zm9.672-3.1h1.8V1.872h-1.8Zm-5.16-2.784v2.112H-17.9V-9.576Zm0-3.432v2.064H-17.9v-2.064Zm-1.728-1.44H-16.08v8.424H-31.872Zm2.856-5.712h1.752V-14.9h-1.752Zm8.232,0h1.752V-14.9h-1.752Zm-13.728,1.776h21.1v1.632h-21.1ZM-8.76-13.44v2.664h7.32V-13.44Zm0-4.032v2.616h7.32v-2.616Zm-1.512-1.488H.12v9.672H-10.272ZM-10.3-6.576H.12v1.632H-10.3Zm-.792,5.808q1.464-.168,3.372-.42l4.08-.54L.72-2.3.744-.72Q-1.32-.408-3.42-.1t-4,.6q-1.9.288-3.432.5Zm12-18.144H9.648v1.632H.912Zm-.288,7.7h9.384V-9.48H.624Zm8.28-7.7h.432l.36-.1,1.2.792A21.654,21.654,0,0,1,9.444-16.3,22.478,22.478,0,0,1,7.7-14.448,19.365,19.365,0,0,1,5.88-12.912a3.167,3.167,0,0,0-.48-.564,7,7,0,0,0-.528-.468,13.581,13.581,0,0,0,1.524-1.4q.756-.8,1.428-1.656A12.692,12.692,0,0,0,8.9-18.576Zm-7.056,4.2L3-15.816a21.878,21.878,0,0,1,2.16,1.248q1.1.72,2.064,1.464a16.915,16.915,0,0,1,1.584,1.368L7.632-10.464a12.922,12.922,0,0,0-1.56-1.44q-.96-.768-2.052-1.512A20.162,20.162,0,0,0,1.848-14.712Zm7.632,3.5h.264l.312-.072,1.224.336q-.456,1.488-.984,3.06A22.264,22.264,0,0,1,9.24-5.232L7.752-5.64q.312-.672.624-1.56t.6-1.848q.288-.96.5-1.848Zm-4.992.864h1.8V-.264a2.8,2.8,0,0,1-.2,1.176,1.407,1.407,0,0,1-.756.672,4.876,4.876,0,0,1-1.488.264Q2.9,1.9,1.536,1.9A4.963,4.963,0,0,0,1.32,1,6.574,6.574,0,0,0,.96.1q1.08.048,1.92.06T4.008.144a.633.633,0,0,0,.384-.12.468.468,0,0,0,.1-.336Zm-10.344-8.04H-4.32V-9.96h.1v8.88H-5.952V-9.96h.1Zm18.96.264h7.8v1.68H13.1Zm7.344,2.232H35.16v1.656H20.448ZM13.392-11.4h7.152v1.7H13.392Zm-.624,8.52q1.032-.288,2.364-.708t2.82-.912q1.488-.492,3-.972l.24,1.584q-2.064.72-4.164,1.44t-3.756,1.3Zm13.92-17.3h1.728V-.36A2.733,2.733,0,0,1,28.188.888a1.562,1.562,0,0,1-.708.672,4.588,4.588,0,0,1-1.392.276q-.864.06-2.3.06a2.291,2.291,0,0,0-.132-.54q-.108-.3-.24-.624a4.126,4.126,0,0,0-.276-.564q1.056.024,1.884.024h1.116a.765.765,0,0,0,.42-.132.527.527,0,0,0,.132-.42Zm-7.608,18q1.2-.672,2.9-1.74T25.416-6.1l.552,1.488Q24.48-3.528,22.92-2.472t-2.88,1.9Zm1.944-9.864,1.416-.624q.528.648,1.068,1.44t.984,1.548a7.845,7.845,0,0,1,.66,1.38l-1.464.72a9.712,9.712,0,0,0-.648-1.38q-.432-.78-.96-1.584T21.024-12.048Zm12.24-.888,1.584.864q-.528.744-1.116,1.548T32.544-8.976q-.6.744-1.128,1.32L30.144-8.4q.5-.6,1.092-1.38t1.116-1.62Q32.88-12.24,33.264-12.936Zm-3.24-6.024.984-.984q.648.36,1.332.816t1.272.912a7.216,7.216,0,0,1,.972.888l-1.056,1.1a11.542,11.542,0,0,0-1.56-1.4A18.828,18.828,0,0,0,30.024-18.96ZM16.08-17.424h1.752v13.9l-1.752.336Zm12.264,3.5a34.593,34.593,0,0,0,.9,4.272A16.466,16.466,0,0,0,30.612-6.24a13.14,13.14,0,0,0,2.016,2.76A16.277,16.277,0,0,0,35.5-1.128a3.968,3.968,0,0,0-.636.636,4.717,4.717,0,0,0-.516.756,18.574,18.574,0,0,1-3.012-2.64A14.216,14.216,0,0,1,29.22-5.424,20.049,20.049,0,0,1,27.792-9.1a34.182,34.182,0,0,1-.936-4.536Z" transform="translate(1506 4756.898)" fill="#fff"/>
  </g>
</svg>
