<svg xmlns="http://www.w3.org/2000/svg" width="146" height="230" viewBox="0 0 146 230">
  <g id="Group_769" data-name="Group 769" transform="translate(-1617 -5758)">
    <path id="Path_206" data-name="Path 206" d="M0,0H146V230H0Z" transform="translate(1617 5758)" fill="none"/>
    <path id="Path_500" data-name="Path 500" d="M2.74-16.94H4.96q-.02,2.64-.08,4.99t-.31,4.4a18.032,18.032,0,0,1-.86,3.79A11.27,11.27,0,0,1,2.04-.63,10.11,10.11,0,0,1-.74,1.82,5.624,5.624,0,0,0-1.43.86,5.113,5.113,0,0,0-2.3.04,8.891,8.891,0,0,0,.25-2.11,9.174,9.174,0,0,0,1.74-4.88a15.947,15.947,0,0,0,.72-3.4q.2-1.86.24-4.02T2.74-16.94ZM4.62-9.72a26.016,26.016,0,0,0,.91,4.05A12.049,12.049,0,0,0,7.11-2.38,7.224,7.224,0,0,0,9.6-.14a6.009,6.009,0,0,0-.82.88,8.351,8.351,0,0,0-.68.98A8.968,8.968,0,0,1,5.39-.94,13.9,13.9,0,0,1,3.69-4.7,34.6,34.6,0,0,1,2.68-9.42Zm2.26-2.86,2.36.54q-.32.96-.69,1.93T7.8-8.26q-.38.88-.72,1.56l-2-.54q.32-.72.67-1.65t.65-1.9Q6.7-11.76,6.88-12.58Zm-7.2.02,2.06.28a16.44,16.44,0,0,1-.13,2.04,13.308,13.308,0,0,1-.4,1.99A8.873,8.873,0,0,1,.54-6.54l-2.06-.82A6.175,6.175,0,0,0-.91-8.83a14.911,14.911,0,0,0,.4-1.84A17.282,17.282,0,0,0-.32-12.56Zm-5.72-2.6h2.32V1.8H-6.04Zm-3.18,3.84h8v2.2h-8Zm3.14.9,1.5.68q-.32,1.08-.74,2.26t-.93,2.32q-.51,1.14-1.08,2.14A14.141,14.141,0,0,1-8.5-1.26a7.716,7.716,0,0,0-.33-.81q-.21-.45-.43-.88A6.779,6.779,0,0,0-9.7-3.7,12.233,12.233,0,0,0-8.26-5.65,23.646,23.646,0,0,0-6.98-8.06,17.141,17.141,0,0,0-6.08-10.42Zm3.5-6.46,1.5,1.9a20.03,20.03,0,0,1-2.35.7q-1.27.3-2.59.53t-2.56.39a5.051,5.051,0,0,0-.26-.95,6.422,6.422,0,0,0-.4-.91q1.18-.18,2.4-.43t2.32-.56A15.907,15.907,0,0,0-2.58-16.88ZM-3.72-8.84q.18.16.55.55t.78.84q.41.45.76.84t.49.57L-2.48-4.08a7.7,7.7,0,0,0-.46-.89q-.3-.51-.63-1.06t-.64-1.03q-.31-.48-.55-.78Z" transform="translate(1696 5889.564)" fill="#fff"/>
    <g id="Group_565" data-name="Group 565" transform="translate(10 -33)">
      <path id="Path_502" data-name="Path 502" d="M-3.54-1.77H9.87V1.5H-3.54ZM-5.07-22.53H5.58v3.18H-5.07Zm.81-3.12,4.05.78a34.8,34.8,0,0,1-2.955,4.245,33.15,33.15,0,0,1-3.78,3.93A30.757,30.757,0,0,1-11.76-13.23a7.3,7.3,0,0,0-.72-.975q-.45-.525-.93-1.035a6.3,6.3,0,0,0-.9-.81,26.477,26.477,0,0,0,4.425-2.91A23.862,23.862,0,0,0-6.54-22.275,20.466,20.466,0,0,0-4.26-25.65Zm8.7,3.12H5.1l.6-.18,2.49,1.29a27.4,27.4,0,0,1-3.405,6.405,29.86,29.86,0,0,1-4.77,5.2A33.739,33.739,0,0,1-5.79-5.79a40.6,40.6,0,0,1-6.48,2.85,8.414,8.414,0,0,0-.57-1.11q-.36-.6-.75-1.17a6.732,6.732,0,0,0-.78-.96A31.525,31.525,0,0,0-8.325-8.565a31.551,31.551,0,0,0,5.43-3.555A26.768,26.768,0,0,0,1.5-16.635,20.447,20.447,0,0,0,4.44-21.93ZM-9-15.96l2.7-2.31q1.05.72,2.2,1.62t2.19,1.815A15.034,15.034,0,0,1-.21-13.11l-2.91,2.58a14.855,14.855,0,0,0-1.56-1.755q-.99-.975-2.13-1.935T-9-15.96ZM8.22-10.89h3.72V2.7H8.22Zm-10.23,0H10.02v3.24H-2.01V2.67H-5.64V-8.25l2.76-2.64Z" transform="translate(1719 6005)" fill="#fff"/>
      <path id="Path_501" data-name="Path 501" d="M-28.215-13.23v-9.81L1.485-63h15.3l-29.07,39.96-7.11-2.07h49.59v11.88ZM5.715,0V-13.23l.45-11.88V-36.9h13.77V0Z" transform="translate(1665 6007)" fill="#f2e724"/>
    </g>
    <g id="autumn-leaf-svgrepo-com" transform="translate(1546 5775.063)">
      <path id="Path_230" data-name="Path 230" d="M42.578,23.426s-2.079,3.071-2.96,0S35.887,9.709,34.734,8.941L33.578,8.17s-.216,4.174-1.646,3.623S19.978,5.648,19.1,4.443l-.879-1.1s.984,9.224-1.427,7.248c0,0,3.085,7.68-7.131,8.448A27.105,27.105,0,0,0,22.278,32.2s3.182,4.942-2.63,4.166c0,0-8.126-1.095-9.216-2.084,0,0-4.29,8.343-10.432,8.67,0,0,7.361,4.169,6.477,11.519,0,0,14.155.114,13.612,2.306a32.336,32.336,0,0,1-1.538,4.437S31.6,58.642,33.578,55.136c0,0,2.741,2.744,2.968,5.374,0,0,7.464-1.646,6.8-6.364a10.931,10.931,0,0,1,3.955,7.07l1.535-1.039a19.58,19.58,0,0,0-4.058-8.223s-1.433-3.625,2.187-1.754c0,0,8.551,2.852,15.8-2.309,0,0-8-2.628-8.332-5.482,0,0,14.95-9.218,15.59-15.36,0,0-5.388.549-8.237-1.754,0,0-3.628-1.1,1.092-13.279,0,0-3.4,2.007-4.49-10.078,0,0-8.456,12.93-12.522,8.542C45.865,10.476,42.032,18.924,42.578,23.426Z" transform="translate(101 0)" fill="#fff"/>
    </g>
  </g>
</svg>
