<svg id="Component_27_1" data-name="Component 27 – 1" xmlns="http://www.w3.org/2000/svg" width="362" height="209" viewBox="0 0 362 209">
  <rect id="Rectangle_1996" data-name="Rectangle 1996" width="362" height="209" fill="none"/>
  <text id="日" transform="translate(307 136)" fill="#fff" font-size="30" font-family="NotoSansJP-Bold, Noto Sans JP" font-weight="700"><tspan x="-15" y="0">日</tspan></text>
  <text id="_2022年実績" data-name="2022年実績" transform="translate(307 199)" fill="#fff" font-size="18" font-family="NotoSansJP-Regular, Noto Sans JP"><tspan x="-46.98" y="0">2022年実績</tspan></text>
  <path id="single_bed_FILL0_wght400_GRAD0_opsz48" d="M173.058-683.829h-4.122l-2.679-10.882H160v-29.108a8.4,8.4,0,0,1,2.312-5.978,7.689,7.689,0,0,1,5.849-2.455H171.7v-19.587a7.859,7.859,0,0,1,2.4-5.764,7.859,7.859,0,0,1,5.764-2.4h47.2a7.859,7.859,0,0,1,5.764,2.4,7.859,7.859,0,0,1,2.4,5.764v19.587h3.673a7.859,7.859,0,0,1,5.764,2.4,7.859,7.859,0,0,1,2.4,5.764v29.38H240.8L238.1-683.829h-4.14l-2.691-10.882h-55.36Zm34.549-48.423h19.451v-19.587H207.607Zm-27.748,0h19.587v-19.587H179.859Zm-11.7,29.38h70.73v-21.219h-70.73Zm70.73,0h0Z" transform="translate(-149.553 826)" fill="#fff"/>
  <text id="_109" data-name="109" transform="translate(211 136)" fill="#f2e724" font-size="92" font-family="Montserrat-Bold, Montserrat" font-weight="700"><tspan x="-78.568" y="0">109</tspan></text>
</svg>
