<svg xmlns="http://www.w3.org/2000/svg" width="131" height="146" viewBox="0 0 131 146">
  <g id="Group_635" data-name="Group 635" transform="translate(-1250 -4618)">
    <rect id="Rectangle_1993" data-name="Rectangle 1993" width="131" height="146" transform="translate(1250 4618)" fill="none"/>
    <path id="Icon_ionic-md-football" data-name="Icon ionic-md-football" d="M30,5.625A24.375,24.375,0,1,0,54.375,30,24.4,24.4,0,0,0,30,5.625ZM14.883,27.914l4.594,2.1,2,7.84-1.828,3.434-6.7-.082a20.467,20.467,0,0,1-3.223-8.824ZM40.348,41.285,38.52,37.852l2-7.852,4.582-2.086,5.156,4.465A20.318,20.318,0,0,1,47.039,41.2Zm3.8-17.133-5.109,2.3L31.875,20.4V14.871l5.613-3.82a20.9,20.9,0,0,1,8.859,6.773ZM22.418,11.063l5.59,3.809V20.4l-7.148,6.035-5.039-2.3-2.191-6.281A20.3,20.3,0,0,1,22.418,11.063Zm3.176,38.859c-.082-.023-.152-.035-.234-.059l-2.4-6.457,1.723-3.445H35.32l1.758,3.551-2.32,6.316c-.117.023-.234.059-.352.082a29.545,29.545,0,0,1-4.734.48A19.871,19.871,0,0,1,25.594,49.922Z" transform="translate(1284.375 4632.375)" fill="#fff"/>
    <path id="Path_486" data-name="Path 486" d="M-39.336-15.96a4.12,4.12,0,0,0-.2.552q-.084.288-.156.648-.192.96-.5,2.1t-.756,2.352a20.534,20.534,0,0,1-1.032,2.352A13.8,13.8,0,0,1-43.272-5.9,21.458,21.458,0,0,1-45.72-3.3a16.6,16.6,0,0,1-3.072,2.172A21.248,21.248,0,0,1-52.728.528l-1.632-1.8a20.661,20.661,0,0,0,4.068-1.452A14.7,14.7,0,0,0-47.28-4.68,15.919,15.919,0,0,0-45-7.056a11.754,11.754,0,0,0,1.5-2.472,21.672,21.672,0,0,0,1.056-2.8,18.154,18.154,0,0,0,.588-2.556H-54.12q-.72,0-1.32.024t-1.08.048V-16.92q.336.024.744.072t.84.06q.432.012.816.012h12.048q.264,0,.6-.012A2.8,2.8,0,0,0-40.8-16.9Zm14.928,2.136q.168.36.432,1.068t.564,1.5q.3.792.54,1.5t.36,1.116l-1.776.624q-.1-.408-.324-1.1t-.516-1.5q-.288-.8-.576-1.5l-.456-1.1Zm8.688,1.344q-.12.36-.2.66t-.156.54a23.964,23.964,0,0,1-1.3,3.852,15.609,15.609,0,0,1-2.112,3.516A16.7,16.7,0,0,1-23.22-.384,19.834,19.834,0,0,1-27.312,1.8L-28.9.192A18.361,18.361,0,0,0-26.076-.96a16.184,16.184,0,0,0,2.712-1.728A13.939,13.939,0,0,0-21.1-4.92,13.664,13.664,0,0,0-19.548-7.3a16.765,16.765,0,0,0,1.14-2.808,16.375,16.375,0,0,0,.624-3.024Zm-14.256-.144q.192.408.48,1.1T-28.884-10q.324.828.624,1.584t.468,1.212l-1.824.672q-.144-.456-.42-1.236t-.612-1.62q-.336-.84-.636-1.536t-.468-1.008ZM-3.912-2.112V-16.08q0-.5-.048-1.224A12.264,12.264,0,0,0-4.1-18.576h2.352q-.048.528-.108,1.248t-.06,1.248v5.028q0,1.476.012,2.928T-1.9-5.412v3.3q0,.384.012.888t.06,1.02q.048.516.072.924H-4.08A11.679,11.679,0,0,0-3.948-.648Q-3.912-1.44-3.912-2.112Zm1.584-10.176q1.176.36,2.6.852t2.916,1.044q1.488.552,2.82,1.116T8.328-8.208l-.816,2.04Q6.48-6.744,5.184-7.308T2.532-8.424q-1.356-.552-2.616-1t-2.244-.732ZM29.28-11.016a26.756,26.756,0,0,1-.3,4.248A10.521,10.521,0,0,1,27.912-3.48a8.608,8.608,0,0,1-2.1,2.556,14.219,14.219,0,0,1-3.4,2.028L20.808-.408a17.254,17.254,0,0,0,2.88-1.416,7.086,7.086,0,0,0,2.04-1.92,8.2,8.2,0,0,0,1.224-2.88,18.813,18.813,0,0,0,.408-4.248V-16.7q0-.72-.048-1.26t-.072-.708H29.4q-.024.168-.072.708T29.28-16.7Zm-8.64-7.512q-.024.168-.072.648t-.048,1.1v8.784q0,.432.024.9t.048.816q.024.348.024.468H18.5q0-.12.024-.456t.048-.8q.024-.468.024-.924v-8.784q0-.408-.024-.876t-.072-.876Zm-7.032,4.656q.12.024.492.06t.9.072q.528.036,1.008.036H31.92q.792,0,1.368-.048l.84-.072v2.04q-.216-.024-.816-.048t-1.392-.024H16.008q-.5,0-1.008.012t-.876.036q-.372.024-.516.024ZM48.576-.5a4.567,4.567,0,0,0,.108-.636,6.876,6.876,0,0,0,.036-.708V-16.224q0-.7-.048-1.164T48.6-18h2.208q0,.144-.048.624t-.048,1.152V-2.376a17.6,17.6,0,0,0,2.4-1.392A19.6,19.6,0,0,0,55.6-5.784a15.262,15.262,0,0,0,2.124-2.5l1.128,1.632a19.11,19.11,0,0,1-2.412,2.664A24.54,24.54,0,0,1,53.568-1.7a24.367,24.367,0,0,1-2.9,1.7q-.288.168-.492.312t-.324.24ZM37.584-.624A10.5,10.5,0,0,0,40.152-3.24,12.3,12.3,0,0,0,41.76-6.528a10.882,10.882,0,0,0,.408-2.04q.144-1.224.216-2.6t.084-2.688q.012-1.308.012-2.316a8.417,8.417,0,0,0-.048-.948q-.048-.42-.12-.8H44.52q-.024.144-.048.42t-.048.612q-.024.336-.024.7,0,1.008-.024,2.364T44.268-11q-.084,1.476-.216,2.8A12.131,12.131,0,0,1,43.656-6a12.752,12.752,0,0,1-1.644,3.624A13.6,13.6,0,0,1,39.384.6Z" transform="translate(1315 4756.898)" fill="#fff"/>
  </g>
</svg>
