<svg xmlns="http://www.w3.org/2000/svg" width="111" height="146" viewBox="0 0 111 146">
  <g id="Group_632" data-name="Group 632" transform="translate(-687 -4618)">
    <rect id="Rectangle_1990" data-name="Rectangle 1990" width="111" height="146" transform="translate(687 4618)" fill="none"/>
    <path id="Icon_map-casino" data-name="Icon map-casino" d="M58.8,12.587a3,3,0,1,0-3.6,0V31.2H44.4v9.6h12v-.356A4.793,4.793,0,0,0,59.4,36a4.742,4.742,0,0,0-.6-2.279V12.587ZM7.2,20.4a20.888,20.888,0,0,0,3.6,0s-4.819,3.2-4.819,7.2H12s.007-6.665,3.6-10.8l-1.2-1.2a5.8,5.8,0,0,1-4.8,0,11.958,11.958,0,0,0-4.8,1.2V15.6H3.6v7.2H4.8a2.351,2.351,0,0,1,2.4-2.4Zm16.8,0a20.888,20.888,0,0,0,3.6,0s-4.819,3.2-4.819,7.2H28.8s.007-6.665,3.6-10.8l-1.2-1.2a5.8,5.8,0,0,1-4.8,0,11.958,11.958,0,0,0-4.8,1.2V15.6H20.4v7.2h1.2A2.351,2.351,0,0,1,24,20.4Zm21.6-12V6H31.056A5.389,5.389,0,0,0,20.544,6H6V8.4H0V57.6H52.8V8.4ZM19.2,13.2H33.6V30H19.2V13.2Zm-16.8,0H16.8V30H2.4ZM45.6,51.6H6V43.2H45.6v8.4ZM50.4,30H36V13.2H50.4V30Zm-9.6-9.6a20.888,20.888,0,0,0,3.6,0s-4.819,3.2-4.819,7.2H45.6s.007-6.665,3.6-10.8L48,15.6a5.8,5.8,0,0,1-4.8,0,11.958,11.958,0,0,0-4.8,1.2V15.6H37.2v7.2h1.2a2.351,2.351,0,0,1,2.4-2.4Z" transform="translate(712 4633.201)" fill="#fff"/>
    <path id="Path_483" data-name="Path 483" d="M-29.208-16.728a1.544,1.544,0,0,0,.456,1.116,1.512,1.512,0,0,0,1.128.468,1.524,1.524,0,0,0,1.116-.468,1.524,1.524,0,0,0,.468-1.116,1.551,1.551,0,0,0-.468-1.14,1.524,1.524,0,0,0-1.116-.468,1.512,1.512,0,0,0-1.128.468A1.572,1.572,0,0,0-29.208-16.728Zm-1.1,0a2.625,2.625,0,0,1,.36-1.356,2.793,2.793,0,0,1,.972-.984,2.56,2.56,0,0,1,1.356-.372,2.579,2.579,0,0,1,1.344.372,2.761,2.761,0,0,1,.984.984,2.625,2.625,0,0,1,.36,1.356,2.562,2.562,0,0,1-.36,1.344,2.794,2.794,0,0,1-.984.972,2.579,2.579,0,0,1-1.344.372,2.56,2.56,0,0,1-1.356-.372,2.826,2.826,0,0,1-.972-.972A2.562,2.562,0,0,1-30.312-16.728Zm-12.456,9.5q.384-.936.756-2.04t.7-2.292q.324-1.188.564-2.352a19.97,19.97,0,0,0,.336-2.22l2.136.456a4.5,4.5,0,0,1-.144.564q-.1.3-.168.612t-.12.576q-.12.552-.336,1.44t-.5,1.944q-.288,1.056-.624,2.124t-.72,1.98q-.432,1.1-1,2.268T-43.1-1.9q-.648,1.1-1.32,2.064L-46.464-.7a28.347,28.347,0,0,0,2.1-3.276A34.307,34.307,0,0,0-42.768-7.224Zm11.808-.912q-.36-.936-.792-1.968t-.912-2.076q-.48-1.044-.924-1.968a15.936,15.936,0,0,0-.852-1.572l1.944-.648q.36.624.8,1.536t.924,1.944q.48,1.032.936,2.088t.84,2.016q.36.888.768,1.98t.8,2.208q.4,1.116.732,2.16t.576,1.86l-2.136.7q-.288-1.224-.732-2.652t-.948-2.88Q-30.432-6.864-30.96-8.136Zm10.944-8.544q.912.024,2.316.012t2.94-.12q1.536-.108,2.808-.252.816-.12,1.716-.276t1.752-.348q.852-.192,1.572-.384a8,8,0,0,0,1.152-.384l1.272,1.656q-.408.1-.744.192t-.6.168q-.7.168-1.62.36t-1.944.372q-1.02.18-2,.3-1.32.192-2.8.288t-2.868.132q-1.392.036-2.472.06ZM-18.672-.336a11.973,11.973,0,0,0,3.42-2.3,8.509,8.509,0,0,0,2.028-3.216,12.837,12.837,0,0,0,.672-4.344s0-.228,0-.684,0-1.088,0-1.9,0-1.764,0-2.868l1.944-.264v5.688a16.059,16.059,0,0,1-.612,4.6,10.319,10.319,0,0,1-1.968,3.684A13.24,13.24,0,0,1-16.776.984Zm-3.216-10.632.984.06q.576.036,1.128.036H-3.984q.264,0,.612-.012t.7-.036q.348-.024.588-.048v1.992q-.384-.048-.888-.072t-.96-.024H-19.728q-.576,0-1.14.024t-1.02.072ZM5.448-17.592q.648.432,1.488,1.068T8.652-15.18q.876.708,1.644,1.38t1.272,1.176l-1.512,1.512Q9.6-11.568,8.88-12.24T7.3-13.644q-.864-.732-1.7-1.392T4.08-16.128ZM3.384-1.512a24.692,24.692,0,0,0,3.852-.864,23.953,23.953,0,0,0,3.18-1.248,28.648,28.648,0,0,0,2.568-1.392,20.707,20.707,0,0,0,3.408-2.652,23.875,23.875,0,0,0,2.736-3.108A19.309,19.309,0,0,0,21-13.848l1.152,2.04a22.559,22.559,0,0,1-2.016,3.024,25.872,25.872,0,0,1-2.712,2.952,22.229,22.229,0,0,1-3.336,2.568q-1.2.744-2.628,1.464A25.577,25.577,0,0,1,8.34-.492,24.493,24.493,0,0,1,4.656.456ZM28.128-16.464q.6.072,1.32.108t1.3.036H42.576q.432,0,.924-.012t.852-.036q-.024.408-.048.924t-.024.948V-2.112q0,.648.036,1.344t.06.984h-2.16q.024-.288.036-.876T42.264-1.9V-14.4h-11.5q-.672,0-1.452.024t-1.188.048ZM27.816-3.216q.456.048,1.188.1t1.476.048H43.344v1.944H30.528q-.72,0-1.476.024t-1.236.072Z" transform="translate(742 4756.898)" fill="#fff"/>
  </g>
</svg>
