<svg id="Component_25_2" data-name="Component 25 – 2" xmlns="http://www.w3.org/2000/svg" width="411.312" height="157.456" viewBox="0 0 411.312 157.456">
  <path id="Path_508" data-name="Path 508" d="M-188.64-15.24v1.7h12.048v-1.7Zm0-2.88v1.68h12.048v-1.68Zm-1.728-1.272h15.576v7.128h-15.576Zm-2.88,8.472h21.168v1.512h-21.168Zm10.68,3h8.52v1.464h-8.52Zm-7.536.144h5.9v1.368h-5.9Zm0,3.048h5.9v1.344h-5.9Zm10.032-1.848A11.31,11.31,0,0,0-176.8-2.124,13.03,13.03,0,0,0-171.528.5q-.168.168-.384.42t-.4.5a4.96,4.96,0,0,0-.3.468,13.647,13.647,0,0,1-5.436-3.012,13.722,13.722,0,0,1-3.468-5.028ZM-174.6-7.92h.336l.312-.072,1.1.456A13.28,13.28,0,0,1-175.1-3.264a14.785,14.785,0,0,1-3.36,3.084,16.741,16.741,0,0,1-3.984,1.956,5.131,5.131,0,0,0-.444-.744,3.989,3.989,0,0,0-.564-.672,13.942,13.942,0,0,0,2.82-1.152,14.85,14.85,0,0,0,2.568-1.752,12.1,12.1,0,0,0,2.088-2.292,10.239,10.239,0,0,0,1.38-2.8Zm-18.864,6.864q1.176-.12,2.676-.264t3.18-.336l3.36-.384.024,1.488q-2.448.312-4.824.6t-4.248.5Zm8.328-9.384h1.728V1.92h-1.728Zm-6.024.048h1.656V-.648h-1.656Zm27.168-9.864,1.824.48a29.271,29.271,0,0,1-1.572,3.42,25.809,25.809,0,0,1-1.956,3.1,19.567,19.567,0,0,1-2.184,2.508q-.168-.144-.444-.372t-.576-.444a4.04,4.04,0,0,0-.54-.336,16.749,16.749,0,0,0,2.172-2.316,20.64,20.64,0,0,0,1.86-2.856A22.036,22.036,0,0,0-163.992-20.256Zm-.36,3h15.48v1.728H-165.24Zm-1.176,5.424h16.1v1.7h-14.3v5.664h-1.8Zm-3.96,6.48h21.744v1.728h-21.744Zm11.136-10.992h1.848V1.92h-1.848Zm22.776-3.792h1.848V-7.944a2.881,2.881,0,0,1-.228,1.284,1.418,1.418,0,0,1-.852.66,5.924,5.924,0,0,1-1.608.276q-1.008.06-2.52.06a4.308,4.308,0,0,0-.24-.912,4.847,4.847,0,0,0-.432-.912h3.5a.658.658,0,0,0,.42-.1.512.512,0,0,0,.108-.384Zm5.208,3.624,1.632-.84q1.056,1.2,2.088,2.616t1.872,2.808a18.919,18.919,0,0,1,1.3,2.5l-1.8.984a16.488,16.488,0,0,0-1.224-2.508q-.816-1.4-1.824-2.868T-130.368-16.512Zm1.584,6.552,1.872.576a16.225,16.225,0,0,1-2.208,4.44,13.857,13.857,0,0,1-3.324,3.264A18.054,18.054,0,0,1-137.016.576a34.713,34.713,0,0,1-5.952,1.392,4.7,4.7,0,0,0-.4-.912,5.99,5.99,0,0,0-.564-.864A32.683,32.683,0,0,0-138.264-1a17.366,17.366,0,0,0,4.32-1.992,12.02,12.02,0,0,0,3.12-2.94A14.459,14.459,0,0,0-128.784-9.96Zm-12.1-7.152,1.968.48a31.592,31.592,0,0,1-1.392,2.988,32.456,32.456,0,0,1-1.776,2.976,16.737,16.737,0,0,1-2.04,2.508q-.216-.168-.492-.372t-.576-.4a5.992,5.992,0,0,0-.54-.312,15.693,15.693,0,0,0,1.992-2.34,22.736,22.736,0,0,0,1.668-2.772A21.905,21.905,0,0,0-140.88-17.112Zm27.816,2.928q1.032.1,2.016.144t2.064.048q2.16,0,4.3-.168a34.449,34.449,0,0,0,3.96-.528v1.848q-1.92.312-4.044.456t-4.26.168q-1.032,0-2-.048t-2.028-.12Zm8.4-4.3q-.048.36-.084.72t-.06.72q-.024.432-.048,1.1t-.024,1.428v1.476q0,1.368.048,2.736t.12,2.664q.072,1.3.132,2.436t.06,2.076a5.01,5.01,0,0,1-.2,1.416A3.378,3.378,0,0,1-105.4-.456a3.193,3.193,0,0,1-1.272.876,5.39,5.39,0,0,1-2,.324,6.36,6.36,0,0,1-3.708-.912,2.922,2.922,0,0,1-1.284-2.52,3.1,3.1,0,0,1,.588-1.836,3.946,3.946,0,0,1,1.68-1.308,6.642,6.642,0,0,1,2.676-.48,10.762,10.762,0,0,1,2.82.348,12,12,0,0,1,2.376.912,14.164,14.164,0,0,1,2,1.248q.912.684,1.68,1.356L-100.9-.84A21.531,21.531,0,0,0-103.4-2.928a11.568,11.568,0,0,0-2.6-1.392,8.067,8.067,0,0,0-2.856-.5,4.091,4.091,0,0,0-2.22.54,1.613,1.613,0,0,0-.852,1.4,1.553,1.553,0,0,0,.816,1.4,4.046,4.046,0,0,0,2.112.492,3.138,3.138,0,0,0,1.6-.336,1.826,1.826,0,0,0,.792-.912,3.711,3.711,0,0,0,.228-1.368q0-.648-.048-1.752t-.12-2.412q-.072-1.308-.12-2.676t-.048-2.568v-4.008q0-.312-.024-.732t-.072-.732Zm-11.856.144q-.072.192-.156.492t-.144.612q-.06.312-.108.528-.144.672-.3,1.6t-.324,1.992q-.168,1.068-.3,2.16t-.2,2.1q-.072,1.008-.072,1.824,0,.864.06,1.656t.18,1.68q.192-.552.432-1.176t.492-1.248q.252-.624.444-1.1l.984.768q-.288.816-.636,1.836t-.648,1.944a14.112,14.112,0,0,0-.42,1.524q-.048.24-.084.552a2.4,2.4,0,0,0-.012.528q0,.168.012.408t.036.432l-1.68.12A26.156,26.156,0,0,1-119.6-2.34,31.02,31.02,0,0,1-119.88-6.7q0-1.344.132-2.8t.312-2.844q.18-1.392.36-2.556t.3-1.908q.048-.408.1-.864a8.067,8.067,0,0,0,.048-.84ZM-96.528,0V-1.824h3.936V-14.952h-3.144v-1.392a13.351,13.351,0,0,0,2.052-.528,10.117,10.117,0,0,0,1.6-.72h1.68V-1.824h3.528V0ZM-78.6.312a6.73,6.73,0,0,1-2.9-.6A4.854,4.854,0,0,1-83.5-1.944a4.2,4.2,0,0,1-.72-2.424,4.733,4.733,0,0,1,.468-2.124,5.5,5.5,0,0,1,1.212-1.632A7.789,7.789,0,0,1-81-9.24v-.1A6.881,6.881,0,0,1-82.668-11a4.014,4.014,0,0,1-.708-2.388,4.253,4.253,0,0,1,.636-2.34,4.405,4.405,0,0,1,1.728-1.56,5.281,5.281,0,0,1,2.46-.564,5.261,5.261,0,0,1,2.592.6A4.168,4.168,0,0,1-74.3-15.624a4.843,4.843,0,0,1,.576,2.4A4.117,4.117,0,0,1-74.1-11.5a6.442,6.442,0,0,1-.9,1.452,7.863,7.863,0,0,1-1.056,1.068v.12a7.852,7.852,0,0,1,1.44,1.044,4.783,4.783,0,0,1,1.092,1.488,4.819,4.819,0,0,1,.42,2.1,4.1,4.1,0,0,1-.684,2.292,4.672,4.672,0,0,1-1.92,1.644A6.552,6.552,0,0,1-78.6.312Zm1.2-9.864a5.8,5.8,0,0,0,1.344-1.692A4.068,4.068,0,0,0-75.6-13.1a3.494,3.494,0,0,0-.348-1.584,2.74,2.74,0,0,0-1.02-1.116,2.973,2.973,0,0,0-1.608-.42,2.777,2.777,0,0,0-2.016.768,2.742,2.742,0,0,0-.792,2.064,2.7,2.7,0,0,0,.564,1.74,4.716,4.716,0,0,0,1.476,1.2A18.129,18.129,0,0,0-77.4-9.552ZM-78.576-1.32A3.9,3.9,0,0,0-76.788-1.7,2.9,2.9,0,0,0-75.612-2.76a2.837,2.837,0,0,0,.42-1.536,2.894,2.894,0,0,0-.384-1.524A3.959,3.959,0,0,0-76.6-6.936,7.88,7.88,0,0,0-78.072-7.8q-.84-.384-1.776-.744a5.852,5.852,0,0,0-1.74,1.692,4.023,4.023,0,0,0-.684,2.292,2.99,2.99,0,0,0,.48,1.656A3.261,3.261,0,0,0-80.46-1.74,4.2,4.2,0,0,0-78.576-1.32Zm20.448-12.6h1.656A29.2,29.2,0,0,0-56-9.468a30.873,30.873,0,0,0,.984,3.924,20.614,20.614,0,0,0,1.284,3.132A9.188,9.188,0,0,0-52.344-.348a1.9,1.9,0,0,0,1.272.732q.408,0,.588-.84a18.78,18.78,0,0,0,.276-2.664,3.991,3.991,0,0,0,.648.468,4.184,4.184,0,0,0,.72.348A13.834,13.834,0,0,1-49.26.288,2.633,2.633,0,0,1-50,1.608a1.811,1.811,0,0,1-1.188.384A2.87,2.87,0,0,1-53.1,1.14a9.474,9.474,0,0,1-1.812-2.364A20.325,20.325,0,0,1-56.46-4.74a31.808,31.808,0,0,1-1.128-4.344A32.641,32.641,0,0,1-58.128-13.92Zm3.024.912,1.032-.816a17.285,17.285,0,0,1,1.68,1.08,11.293,11.293,0,0,1,1.344,1.1l-1.08.936a9.78,9.78,0,0,0-1.308-1.152Q-54.288-12.5-55.1-13.008Zm-5.712,7.9,1.2-.456a16.284,16.284,0,0,1,1.092,1.86,9.351,9.351,0,0,1,.708,1.74l-1.272.552a12.253,12.253,0,0,0-.7-1.8A16.237,16.237,0,0,0-60.816-5.112Zm8.544-3.816,1.608.36A19.785,19.785,0,0,1-53.952-2.4a18.831,18.831,0,0,1-4.9,4.344,4.873,4.873,0,0,0-.336-.408q-.216-.24-.456-.48a4.165,4.165,0,0,0-.432-.384,15.783,15.783,0,0,0,4.764-3.936A17.08,17.08,0,0,0-52.272-8.928ZM-65.64-5.568l1.392.288A15.931,15.931,0,0,1-65.2-2.772a12.336,12.336,0,0,1-1.236,2.1,4.3,4.3,0,0,0-.564-.4q-.372-.228-.612-.372a9.361,9.361,0,0,0,1.152-1.908A14.543,14.543,0,0,0-65.64-5.568Zm-2.568-5.856h18.7v1.488h-18.7Zm1.752,3.264h7.968v1.416h-7.968Zm-4.08-6.984h21.144v1.512H-70.536Zm10.968-3.336H-51.7v1.368h-7.872Zm-9.6,7.056h1.656v4.08q0,1.032-.084,2.244a19.465,19.465,0,0,1-.336,2.472,14,14,0,0,1-.72,2.436,9.736,9.736,0,0,1-1.188,2.16,3.072,3.072,0,0,0-.4-.372q-.252-.2-.516-.4a2.708,2.708,0,0,0-.48-.288,8.242,8.242,0,0,0,1.368-2.676,14.893,14.893,0,0,0,.564-2.9q.132-1.452.132-2.676Zm8.616-8.736h1.776v5.76h-1.776Zm-6.1,1.08h1.7v4.848h-1.7ZM-63.216-7.3H-61.7V-.1a2.794,2.794,0,0,1-.12.912.947.947,0,0,1-.528.528,3.1,3.1,0,0,1-.984.216q-.6.048-1.392.048a5.585,5.585,0,0,0-.216-.732q-.144-.4-.288-.708.624.024,1.092.024A5.427,5.427,0,0,0-63.5.168q.192,0,.24-.06a.332.332,0,0,0,.048-.2Zm17.112-8.5q.672-.024,1.236-.06t.9-.06q.576-.072,1.668-.18t2.508-.24q1.416-.132,3.048-.276l3.288-.288q1.32-.12,2.5-.2t2.184-.144q1.008-.06,1.8-.084v1.92q-.672,0-1.536.024t-1.7.1a7.064,7.064,0,0,0-1.464.264,6.99,6.99,0,0,0-2.292,1.236,8.566,8.566,0,0,0-1.74,1.908A9.008,9.008,0,0,0-36.8-9.648a7.248,7.248,0,0,0-.372,2.232A5.78,5.78,0,0,0-36.7-4.98a5.161,5.161,0,0,0,1.308,1.764A7.2,7.2,0,0,0-33.5-2.04a10.755,10.755,0,0,0,2.244.684A14.044,14.044,0,0,0-28.9-1.1l-.7,1.992A13.5,13.5,0,0,1-32.28.516,12.023,12.023,0,0,1-34.848-.42a8.644,8.644,0,0,1-2.184-1.548,6.94,6.94,0,0,1-1.512-2.184A7,7,0,0,1-39.1-7.008a8.986,8.986,0,0,1,.66-3.468,10.266,10.266,0,0,1,1.692-2.8,8.619,8.619,0,0,1,2.136-1.848q-.768.1-1.908.216t-2.436.252q-1.3.132-2.6.3t-2.436.324q-1.128.156-1.9.324Zm15.672,3.336q.264.384.636.972t.732,1.2a10.822,10.822,0,0,1,.6,1.164l-1.224.576q-.408-.888-.912-1.764a16.657,16.657,0,0,0-1.056-1.62Zm2.616-1.008q.288.384.672.96t.756,1.188q.372.612.66,1.164l-1.248.6q-.432-.888-.948-1.752t-1.068-1.608Zm9.288-5.232h6.792v1.824h-6.792Zm5.88,0h1.824q0,1.056.1,2.5a25.811,25.811,0,0,0,.408,3.084A21.935,21.935,0,0,0-9.36-9.7a18.882,18.882,0,0,0,1.752,3.54,19.19,19.19,0,0,0,2.772,3.42A20.177,20.177,0,0,0-.792.312Q-.984.48-1.284.756a6.214,6.214,0,0,0-.552.576q-.252.3-.42.516A20.845,20.845,0,0,1-6.372-1.38,19.781,19.781,0,0,1-9.228-5.064a21.808,21.808,0,0,1-1.824-3.852,25.842,25.842,0,0,1-1.032-3.744,28.346,28.346,0,0,1-.456-3.372Q-12.648-17.592-12.648-18.7Zm-.7,4.7,2.04.36a33.531,33.531,0,0,1-2.244,6.576,21.764,21.764,0,0,1-3.336,5.148,18.693,18.693,0,0,1-4.62,3.78,3.247,3.247,0,0,0-.444-.456q-.3-.264-.624-.54t-.564-.444a16.744,16.744,0,0,0,6.36-5.724A25.512,25.512,0,0,0-13.344-13.992ZM9.72-.528H23.3V1.224H9.72Zm.96-11.784h12.1v1.728H10.68Zm5.136-7.656h1.848V.312H15.816Zm-14.5,4.32H9.288v1.656H1.32ZM5.112-8.472l1.8-2.112V1.92h-1.8Zm0-11.688h1.8v5.328h-1.8ZM6.744-10.128q.312.216.912.72t1.3,1.092q.7.588,1.272,1.092t.816.744l-1.1,1.464q-.312-.384-.864-.96t-1.188-1.2Q7.248-7.8,6.672-8.34t-.96-.852Zm1.872-5.52H9l.336-.072,1.008.672a19.975,19.975,0,0,1-2.328,4.212A25.68,25.68,0,0,1,4.86-7.2,25.118,25.118,0,0,1,1.44-4.44a4.407,4.407,0,0,0-.264-.576q-.168-.312-.348-.6A3.857,3.857,0,0,0,.5-6.072,19.163,19.163,0,0,0,3.72-8.484,22.652,22.652,0,0,0,6.612-11.7a15.042,15.042,0,0,0,2-3.588ZM32.16-18.7q-.1.6-.144,1.212t-.072,1.212q-.048,1.008-.1,2.5t-.1,3.156Q31.7-8.952,31.68-7.3T31.656-4.32a3.893,3.893,0,0,0,.5,2.112A2.767,2.767,0,0,0,33.552-1.08a5.741,5.741,0,0,0,2.04.336,9.71,9.71,0,0,0,2.952-.42A8.9,8.9,0,0,0,40.9-2.292a10.4,10.4,0,0,0,1.836-1.6,17.9,17.9,0,0,0,1.452-1.824L45.552-4.08a16.111,16.111,0,0,1-1.524,1.788A12.2,12.2,0,0,1,41.9-.576a11.586,11.586,0,0,1-2.82,1.3,11.8,11.8,0,0,1-3.564.5A8.094,8.094,0,0,1,32.5.7a4.242,4.242,0,0,1-2.064-1.7,5.773,5.773,0,0,1-.744-3.12q0-1.08.024-2.388t.072-2.7q.048-1.392.072-2.724T29.9-14.4q.024-1.128.024-1.872,0-.672-.048-1.3a11.31,11.31,0,0,0-.144-1.152ZM49.056,0V-1.3A54.429,54.429,0,0,0,53.6-5.712,17.534,17.534,0,0,0,56.256-9.42a7.211,7.211,0,0,0,.864-3.228,4.433,4.433,0,0,0-.348-1.8A2.685,2.685,0,0,0,55.7-15.684a3.423,3.423,0,0,0-1.824-.444,3.718,3.718,0,0,0-2,.576,6.617,6.617,0,0,0-1.644,1.464L48.96-15.336a9.163,9.163,0,0,1,2.28-1.872,5.779,5.779,0,0,1,2.9-.7,5.508,5.508,0,0,1,2.724.636,4.473,4.473,0,0,1,1.776,1.8,5.594,5.594,0,0,1,.636,2.724A8.071,8.071,0,0,1,58.4-9.192a18.3,18.3,0,0,1-2.424,3.66,43.463,43.463,0,0,1-3.612,3.8q.7-.048,1.452-.108t1.428-.06H60.12V0ZM67.608.312A7.878,7.878,0,0,1,65.2-.024a7.133,7.133,0,0,1-1.824-.864,10.557,10.557,0,0,1-1.4-1.128l1.1-1.44a9.283,9.283,0,0,0,1.116.948,5.4,5.4,0,0,0,1.4.72,5.453,5.453,0,0,0,1.8.276,3.632,3.632,0,0,0,1.884-.5,3.627,3.627,0,0,0,1.356-1.44,4.591,4.591,0,0,0,.5-2.208,4.142,4.142,0,0,0-1-2.94,3.454,3.454,0,0,0-2.652-1.068,3.989,3.989,0,0,0-1.512.264,8.419,8.419,0,0,0-1.416.768l-1.176-.744.576-8.208H72.5v1.872H65.88l-.456,5.088a5.215,5.215,0,0,1,1.212-.516,5.243,5.243,0,0,1,1.428-.18,5.972,5.972,0,0,1,2.664.588A4.462,4.462,0,0,1,72.648-8.9a6.327,6.327,0,0,1,.72,3.192,6.107,6.107,0,0,1-.828,3.264A5.616,5.616,0,0,1,70.392-.4,5.807,5.807,0,0,1,67.608.312Zm20.9-14.232h1.656a29.2,29.2,0,0,0,.468,4.452,30.873,30.873,0,0,0,.984,3.924A20.615,20.615,0,0,0,92.9-2.412,9.187,9.187,0,0,0,94.3-.348a1.9,1.9,0,0,0,1.272.732q.408,0,.588-.84a18.78,18.78,0,0,0,.276-2.664,3.991,3.991,0,0,0,.648.468,4.184,4.184,0,0,0,.72.348A13.834,13.834,0,0,1,97.38.288a2.633,2.633,0,0,1-.744,1.32,1.811,1.811,0,0,1-1.188.384A2.87,2.87,0,0,1,93.54,1.14a9.474,9.474,0,0,1-1.812-2.364A20.326,20.326,0,0,1,90.18-4.74a31.808,31.808,0,0,1-1.128-4.344A32.642,32.642,0,0,1,88.512-13.92Zm3.024.912,1.032-.816a17.284,17.284,0,0,1,1.68,1.08,11.294,11.294,0,0,1,1.344,1.1l-1.08.936A9.779,9.779,0,0,0,93.2-11.856Q92.352-12.5,91.536-13.008Zm-5.712,7.9,1.2-.456a16.285,16.285,0,0,1,1.092,1.86,9.35,9.35,0,0,1,.708,1.74l-1.272.552a12.254,12.254,0,0,0-.7-1.8A16.236,16.236,0,0,0,85.824-5.112Zm8.544-3.816,1.608.36A19.785,19.785,0,0,1,92.688-2.4a18.831,18.831,0,0,1-4.9,4.344,4.874,4.874,0,0,0-.336-.408Q87.24,1.3,87,1.056a4.164,4.164,0,0,0-.432-.384,15.783,15.783,0,0,0,4.764-3.936A17.08,17.08,0,0,0,94.368-8.928ZM81-5.568l1.392.288a15.931,15.931,0,0,1-.948,2.508,12.336,12.336,0,0,1-1.236,2.1,4.3,4.3,0,0,0-.564-.4q-.372-.228-.612-.372a9.361,9.361,0,0,0,1.152-1.908A14.543,14.543,0,0,0,81-5.568Zm-2.568-5.856h18.7v1.488h-18.7ZM80.184-8.16h7.968v1.416H80.184ZM76.1-15.144H97.248v1.512H76.1ZM87.072-18.48h7.872v1.368H87.072Zm-9.6,7.056h1.656v4.08q0,1.032-.084,2.244a19.465,19.465,0,0,1-.336,2.472,14,14,0,0,1-.72,2.436A9.736,9.736,0,0,1,76.8,1.968a3.072,3.072,0,0,0-.4-.372q-.252-.2-.516-.4a2.708,2.708,0,0,0-.48-.288,8.242,8.242,0,0,0,1.368-2.676,14.893,14.893,0,0,0,.564-2.9q.132-1.452.132-2.676Zm8.616-8.736h1.776v5.76H86.088Zm-6.1,1.08h1.7v4.848h-1.7ZM83.424-7.3h1.512V-.1a2.794,2.794,0,0,1-.12.912.947.947,0,0,1-.528.528,3.1,3.1,0,0,1-.984.216q-.6.048-1.392.048A5.585,5.585,0,0,0,81.7.876q-.144-.4-.288-.708.624.024,1.092.024a5.427,5.427,0,0,0,.636-.024q.192,0,.24-.06a.332.332,0,0,0,.048-.2Zm17.112-8.5q.672-.024,1.236-.06t.9-.06q.576-.072,1.668-.18t2.508-.24q1.416-.132,3.048-.276l3.288-.288q1.32-.12,2.5-.2t2.184-.144q1.008-.06,1.8-.084v1.92q-.672,0-1.536.024t-1.7.1a7.064,7.064,0,0,0-1.464.264,6.99,6.99,0,0,0-2.292,1.236,8.565,8.565,0,0,0-1.74,1.908,9.008,9.008,0,0,0-1.092,2.232,7.248,7.248,0,0,0-.372,2.232,5.78,5.78,0,0,0,.48,2.436,5.161,5.161,0,0,0,1.308,1.764,7.2,7.2,0,0,0,1.884,1.176,10.755,10.755,0,0,0,2.244.684,14.044,14.044,0,0,0,2.364.252l-.7,1.992A13.5,13.5,0,0,1,114.36.516a12.023,12.023,0,0,1-2.568-.936,8.644,8.644,0,0,1-2.184-1.548A6.94,6.94,0,0,1,108.1-4.152a7,7,0,0,1-.552-2.856,8.986,8.986,0,0,1,.66-3.468,10.266,10.266,0,0,1,1.692-2.8,8.619,8.619,0,0,1,2.136-1.848q-.768.1-1.908.216t-2.436.252q-1.3.132-2.6.3t-2.436.324q-1.128.156-1.9.324Zm15.672,3.336q.264.384.636.972t.732,1.2a10.821,10.821,0,0,1,.6,1.164l-1.224.576q-.408-.888-.912-1.764a16.659,16.659,0,0,0-1.056-1.62Zm2.616-1.008q.288.384.672.96t.756,1.188q.372.612.66,1.164l-1.248.6q-.432-.888-.948-1.752t-1.068-1.608Zm14.88-6.7h1.824v3.192H133.7Zm-8.976,2.136H144.7v4.776h-1.824v-3.12H126.5v3.12h-1.776Zm3.072,4.08h13.536v1.584H127.8Zm3.168,3.576,1.344-.84a11.131,11.131,0,0,1,2.58,2.628,11.087,11.087,0,0,1,1.464,2.94,9.476,9.476,0,0,1,.468,2.844,6.561,6.561,0,0,1-.408,2.4,3.434,3.434,0,0,1-1.128,1.572,3.662,3.662,0,0,1-1.176.624,5.124,5.124,0,0,1-1.416.168q-.432.024-.972,0l-1.116-.048a4.852,4.852,0,0,0-.144-.864,2.983,2.983,0,0,0-.36-.864q.672.048,1.26.084t1,.036a4.23,4.23,0,0,0,.876-.084,1.69,1.69,0,0,0,.756-.4,2.168,2.168,0,0,0,.792-1.176,5.6,5.6,0,0,0,.228-1.908,7.986,7.986,0,0,0-.468-2.34,9.728,9.728,0,0,0-1.308-2.472A11.19,11.19,0,0,0,130.968-10.368Zm3.576-3.216,1.512.624a15.48,15.48,0,0,1-2.988,2.208,29.294,29.294,0,0,1-3.7,1.8q-1.956.792-3.828,1.344-.1-.168-.264-.444t-.36-.552q-.192-.276-.336-.444,1.848-.456,3.732-1.116a24.662,24.662,0,0,0,3.516-1.536A12.89,12.89,0,0,0,134.544-13.584Zm-1.68,4.56,1.2.84a18.859,18.859,0,0,1-2.424,1.668q-1.44.852-3,1.584T125.688-3.7a5.962,5.962,0,0,0-.408-.72,5.255,5.255,0,0,0-.528-.7Q125.76-5.4,126.9-5.82a23.943,23.943,0,0,0,2.244-.96q1.1-.54,2.076-1.116A13.218,13.218,0,0,0,132.864-9.024Zm1.776,2.472,1.248.936a18.33,18.33,0,0,1-2.232,1.872q-1.3.936-2.784,1.8a32.961,32.961,0,0,1-3.036,1.56A31.93,31.93,0,0,1,124.848.792q-.168-.312-.42-.756a3.407,3.407,0,0,0-.54-.732,23.3,23.3,0,0,0,2.964-1.02q1.524-.636,2.988-1.416a24.963,24.963,0,0,0,2.7-1.656A15.129,15.129,0,0,0,134.64-6.552Zm2.208-6.792a23.188,23.188,0,0,0,1.836,5.04A16.181,16.181,0,0,0,141.6-4.2a11.943,11.943,0,0,0,4.008,2.688,4.657,4.657,0,0,0-.432.444q-.24.276-.456.564a6.271,6.271,0,0,0-.36.528,12.78,12.78,0,0,1-4.116-3,17.639,17.639,0,0,1-2.964-4.476,30.078,30.078,0,0,1-1.944-5.556Zm6.144,1.776,1.392,1.2q-.816.648-1.788,1.344T140.64-7.716q-.984.612-1.824,1.068l-1.152-1.1q.84-.48,1.812-1.128t1.908-1.368Q142.32-10.968,142.992-11.568Zm14.688-7.416q-.144.72-.372,1.692a14.658,14.658,0,0,1-.732,2.2,20.018,20.018,0,0,1-1.068,2.232,16.489,16.489,0,0,1-1.356,2.088,5.138,5.138,0,0,1,1.032-.492,6.626,6.626,0,0,1,1.188-.3,7.253,7.253,0,0,1,1.116-.1,3.609,3.609,0,0,1,2.352.78,2.752,2.752,0,0,1,.96,2.268v1.164q0,.708.012,1.488t.036,1.524q.024.744.024,1.3h-1.848q.024-.48.048-1.128t.036-1.368q.012-.72,0-1.368t-.012-1.1a1.834,1.834,0,0,0-.636-1.548,2.531,2.531,0,0,0-1.6-.492,5.356,5.356,0,0,0-2.22.492,6.882,6.882,0,0,0-1.908,1.26,12.192,12.192,0,0,0-1.044,1.14q-.516.636-1.14,1.356L148.92-7.1a32.5,32.5,0,0,0,2.88-3.144,22.655,22.655,0,0,0,1.872-2.724A19.117,19.117,0,0,0,154.8-15.24a15.962,15.962,0,0,0,.624-2.028,10.921,10.921,0,0,0,.288-1.884Zm-8.208,2.592q.96.12,2.088.192t1.968.072q1.608,0,3.456-.084t3.732-.252q1.884-.168,3.588-.48l-.024,1.776q-1.248.216-2.664.348t-2.88.216q-1.464.084-2.82.12t-2.508.036q-.5,0-1.164-.012t-1.38-.048q-.72-.036-1.392-.084Zm18.336,5.808a6.3,6.3,0,0,0-.684.2q-.372.132-.744.276t-.708.288q-1.248.48-2.9,1.176t-3.384,1.608a15.186,15.186,0,0,0-2.112,1.26,6.6,6.6,0,0,0-1.44,1.368,2.534,2.534,0,0,0-.528,1.548,1.832,1.832,0,0,0,.324,1.128,2.012,2.012,0,0,0,.924.66,5.24,5.24,0,0,0,1.38.3q.78.072,1.716.072,1.392,0,3.18-.156t3.372-.42l-.048,1.92q-.912.12-2.052.216t-2.3.156q-1.164.06-2.22.06a14.348,14.348,0,0,1-3.108-.312,4.671,4.671,0,0,1-2.244-1.1,2.951,2.951,0,0,1-.84-2.256,3.983,3.983,0,0,1,.5-1.98,6.217,6.217,0,0,1,1.356-1.644,14.113,14.113,0,0,1,1.884-1.38q1.032-.636,2.112-1.164,1.152-.624,2.172-1.08t1.932-.84q.912-.384,1.7-.768l1.008-.456q.48-.216.96-.48Zm12.624-7.488H193.08V-16.7H180.432Zm-.552,5.736h13.728v1.368H179.88Zm-.1,8.9H193.7v1.368h-13.92Zm1.272-11.832H192.7v1.32h-11.64Zm2.28-4.872h1.608v8.352h-1.608Zm5.184,0h1.632v8.352H188.52ZM185.9-11.76h1.584V-3H185.9Zm4.7,2.184h1.656V.048a2.365,2.365,0,0,1-.18,1.032,1.287,1.287,0,0,1-.66.576,4,4,0,0,1-1.332.216q-.852.024-2.148.024a7.525,7.525,0,0,0-.216-.732,4.906,4.906,0,0,0-.312-.732q.96.024,1.74.024h1A.686.686,0,0,0,190.5.348a.36.36,0,0,0,.108-.3Zm-9.288,0H191.3v1.368h-8.352V1.944H181.32Zm.864,3.1h9.1v1.248h-9.1Zm-8.376,2.856,1.632.36A14.438,14.438,0,0,1,174.312-.4a12.611,12.611,0,0,1-1.536,2.34,2.891,2.891,0,0,0-.408-.324q-.264-.18-.516-.36a2.724,2.724,0,0,0-.468-.276A9.185,9.185,0,0,0,172.836-1.1,11.965,11.965,0,0,0,173.808-3.624Zm3.024.576,1.368-.6q.576.864,1.152,1.908a11.859,11.859,0,0,1,.84,1.812l-1.416.7q-.192-.5-.5-1.176t-.684-1.356Q177.216-2.448,176.832-3.048Zm-2.616-10.224v3.1h3.6v-3.1Zm0,4.512v3.144h3.6V-8.76Zm0-9v3.072h3.6V-17.76Zm-1.584-1.488h6.792v15.12h-6.792Zm27.48.552H206.9v1.824h-6.792Zm5.88,0h1.824q0,1.056.1,2.5a25.809,25.809,0,0,0,.408,3.084,21.935,21.935,0,0,0,.96,3.42,18.881,18.881,0,0,0,1.752,3.54,19.19,19.19,0,0,0,2.772,3.42A20.178,20.178,0,0,0,217.848.312q-.192.168-.492.444a6.214,6.214,0,0,0-.552.576q-.252.3-.42.516a20.845,20.845,0,0,1-4.116-3.228,19.781,19.781,0,0,1-2.856-3.684,21.81,21.81,0,0,1-1.824-3.852,25.844,25.844,0,0,1-1.032-3.744,28.342,28.342,0,0,1-.456-3.372Q205.992-17.592,205.992-18.7Zm-.7,4.7,2.04.36a33.531,33.531,0,0,1-2.244,6.576,21.764,21.764,0,0,1-3.336,5.148,18.693,18.693,0,0,1-4.62,3.78,3.247,3.247,0,0,0-.444-.456q-.3-.264-.624-.54T195.5.432a16.744,16.744,0,0,0,6.36-5.724A25.512,25.512,0,0,0,205.3-13.992Z" transform="translate(193.464 155.464)" fill="#fff"/>
  <path id="Path_507" data-name="Path 507" d="M-46.794,1.1a30.531,30.531,0,0,1-15.318-3.68A24.465,24.465,0,0,1-72.094-13.34q-3.5-7.084-3.5-17.48,0-11.132,4.186-18.86A28.6,28.6,0,0,1-59.812-61.456,35.011,35.011,0,0,1-42.746-65.5,42.854,42.854,0,0,1-32.9-64.4a25.485,25.485,0,0,1,8.1,3.312l-5.52,10.948a16.366,16.366,0,0,0-5.7-2.53,28.564,28.564,0,0,0-6.348-.69q-8.372,0-13.248,5.06t-4.876,15q0,1.656.046,3.68a20.306,20.306,0,0,0,.506,4.048l-4.14-3.864a19.067,19.067,0,0,1,4.508-6.026A18.391,18.391,0,0,1-53-39.146a27.1,27.1,0,0,1,8.418-1.242A24.754,24.754,0,0,1-33.362-37.9,20.207,20.207,0,0,1-25.4-30.912a18.7,18.7,0,0,1,2.99,10.58A19.8,19.8,0,0,1-25.68-8.97a21.577,21.577,0,0,1-8.74,7.452A28.291,28.291,0,0,1-46.794,1.1Zm-.828-11.132a12.9,12.9,0,0,0,5.566-1.15,8.843,8.843,0,0,0,3.818-3.358,9.347,9.347,0,0,0,1.38-5.06,8.89,8.89,0,0,0-2.99-7.038,11.636,11.636,0,0,0-7.958-2.622,12.8,12.8,0,0,0-5.8,1.242,9.848,9.848,0,0,0-3.91,3.4A8.9,8.9,0,0,0-58.938-19.6a8.95,8.95,0,0,0,1.38,4.922,9.51,9.51,0,0,0,3.864,3.4A13.477,13.477,0,0,0-47.622-10.028ZM-22.69,9.2,7.67-77.464H20.458L-9.9,9.2ZM25.376,0V-39.04l4.27,4.27H16.837V-42.7H35.258V0ZM61.794.732a20.243,20.243,0,0,1-10.157-2.44,16.222,16.222,0,0,1-6.618-7.137A26.044,26.044,0,0,1,42.7-20.435,25.951,25.951,0,0,1,45.476-32.94a18.966,18.966,0,0,1,7.686-7.808,23.214,23.214,0,0,1,11.316-2.684A28.414,28.414,0,0,1,71-42.7a16.9,16.9,0,0,1,5.368,2.2l-3.66,7.259a10.852,10.852,0,0,0-3.782-1.678,18.939,18.939,0,0,0-4.209-.457,11.628,11.628,0,0,0-8.784,3.355Q52.7-28.67,52.7-22.082q0,1.1.03,2.44a13.464,13.464,0,0,0,.336,2.684L50.326-19.52a12.643,12.643,0,0,1,2.989-4,12.194,12.194,0,0,1,4.361-2.44,17.965,17.965,0,0,1,5.582-.824A16.413,16.413,0,0,1,70.7-25.132,13.4,13.4,0,0,1,75.976-20.5a12.4,12.4,0,0,1,1.983,7.015,13.125,13.125,0,0,1-2.165,7.534A14.306,14.306,0,0,1,70-1.007,18.758,18.758,0,0,1,61.794.732Zm-.549-7.381a8.553,8.553,0,0,0,3.69-.763,5.863,5.863,0,0,0,2.532-2.227,6.2,6.2,0,0,0,.915-3.355A5.9,5.9,0,0,0,66.4-17.66,7.715,7.715,0,0,0,61.123-19.4a8.49,8.49,0,0,0-3.843.823,6.529,6.529,0,0,0-2.592,2.257,5.9,5.9,0,0,0-.945,3.325,5.934,5.934,0,0,0,.915,3.264,6.305,6.305,0,0,0,2.562,2.257A8.936,8.936,0,0,0,61.245-6.649Z" transform="translate(227.964 77.464)" fill="#f2e724"/>
  <path id="Path_506" data-name="Path 506" d="M-3.54-1.77H9.87V1.5H-3.54ZM-5.07-22.53H5.58v3.18H-5.07Zm.81-3.12,4.05.78a34.8,34.8,0,0,1-2.955,4.245,33.15,33.15,0,0,1-3.78,3.93A30.757,30.757,0,0,1-11.76-13.23a7.3,7.3,0,0,0-.72-.975q-.45-.525-.93-1.035a6.3,6.3,0,0,0-.9-.81,26.477,26.477,0,0,0,4.425-2.91A23.862,23.862,0,0,0-6.54-22.275,20.466,20.466,0,0,0-4.26-25.65Zm8.7,3.12H5.1l.6-.18,2.49,1.29a27.4,27.4,0,0,1-3.405,6.405,29.86,29.86,0,0,1-4.77,5.2A33.739,33.739,0,0,1-5.79-5.79a40.6,40.6,0,0,1-6.48,2.85,8.414,8.414,0,0,0-.57-1.11q-.36-.6-.75-1.17a6.732,6.732,0,0,0-.78-.96A31.525,31.525,0,0,0-8.325-8.565a31.551,31.551,0,0,0,5.43-3.555A26.768,26.768,0,0,0,1.5-16.635,20.447,20.447,0,0,0,4.44-21.93ZM-9-15.96l2.7-2.31q1.05.72,2.2,1.62t2.19,1.815A15.034,15.034,0,0,1-.21-13.11l-2.91,2.58a14.855,14.855,0,0,0-1.56-1.755q-.99-.975-2.13-1.935T-9-15.96ZM8.22-10.89h3.72V2.7H8.22Zm-10.23,0H10.02v3.24H-2.01V2.67H-5.64V-8.25l2.76-2.64Z" transform="translate(346.964 74.464)" fill="#fff"/>
  <g id="home05" transform="translate(25.691 11.464)">
    <path id="Path_198" data-name="Path 198" d="M293.274,241H275.429v13.235h17.845V241Zm-4.016,9.219h-9.812v-5.2h9.812Z" transform="translate(-238.554 -208.734)" fill="#fff"/>
    <path id="Path_199" data-name="Path 199" d="M63.173,55.313V30.563l5.374,3.1V19.788L34.274,0,22.454,6.824V0H9.219V14.466L0,19.788V33.666l5.374-3.1v24.75H0V68.548H68.548V55.313ZM13.235,4.016h5.2V9.143l-5.2,3ZM4.017,22.107,34.274,4.638,64.531,22.107v4.6L34.274,9.24,4.017,26.709Zm5.374,6.137L34.274,13.878,59.157,28.244V55.313H31.673V32.266H13.828V55.313H9.391ZM27.656,55.313H17.845V36.282h9.812Zm36.875,9.219H4.016v-5.2H64.531Z" fill="#fff"/>
  </g>
</svg>
