<svg xmlns="http://www.w3.org/2000/svg" width="227.875" height="13.869" viewBox="0 0 227.875 13.869">
  <g id="b" transform="translate(0.05 0.049)">
    <g id="c" transform="translate(-0.05 -0.048)">
      <g id="Group_698" data-name="Group 698">
        <path id="Path_346" data-name="Path 346" d="M568.089,13.9l-.019.157.014-.043C568.089,13.968,568.1,13.878,568.089,13.9Z" transform="translate(-340.218 -7.281)" fill="#f0110a"/>
        <path id="Path_347" data-name="Path 347" d="M568.026,13.653c0-.123,0-.128-.028-.028,0-.033.01-.076.01-.1a3,3,0,0,0-.047.351c.024-.152.019-.085.043-.266.01-.019,0,.052,0,.109,0-.038,0,.033.019-.062Z" transform="translate(-340.161 -7.084)" fill="#f0110a"/>
        <path id="Path_348" data-name="Path 348" d="M565.92,12.235v0Z" transform="translate(-339.088 -6.406)" fill="#f0110a"/>
        <path id="Path_349" data-name="Path 349" d="M566.8,12.77c0,.052,0,.038,0,.052V12.77Z" transform="translate(-339.549 -6.69)" fill="#f0110a"/>
        <path id="Path_350" data-name="Path 350" d="M567.8,14.253s0-.024.009-.043a.048.048,0,0,1,0,.014v.024Z" transform="translate(-340.077 -7.447)" fill="#f0110a"/>
        <path id="Path_351" data-name="Path 351" d="M567.185,12.582h0s0-.038.009-.062l-.014.062Z" transform="translate(-339.751 -6.558)" fill="#f0110a"/>
        <path id="Path_352" data-name="Path 352" d="M558.95,12.381h0a.375.375,0,0,1,.009-.081Z" transform="translate(-335.424 -6.443)" fill="#f0110a"/>
        <path id="Path_353" data-name="Path 353" d="M563.288,12.1a2.217,2.217,0,0,0,.029-.285A2.517,2.517,0,0,0,563.288,12.1Z" transform="translate(-337.704 -6.19)" fill="#f0110a"/>
        <path id="Path_354" data-name="Path 354" d="M564.825,12.312s0-.028,0-.009v.014S564.825,12.289,564.825,12.312Z" transform="translate(-338.51 -6.441)" fill="#f0110a"/>
        <path id="Path_355" data-name="Path 355" d="M564.6,12.31v.028h0Z" transform="translate(-338.394 -6.448)" fill="#f0110a"/>
        <path id="Path_356" data-name="Path 356" d="M559.837,13.7a.988.988,0,0,1,0-.119C559.833,13.675,559.814,13.708,559.837,13.7Z" transform="translate(-335.885 -7.116)" fill="#f0110a"/>
        <path id="Path_357" data-name="Path 357" d="M567.789,14.2h0V14.14a.106.106,0,0,1-.01.057Z" transform="translate(-340.066 -7.41)" fill="#f0110a"/>
        <path id="Path_358" data-name="Path 358" d="M564.445,14.415V14.32a.093.093,0,0,1,0,.033v.057Z" transform="translate(-338.31 -7.505)" fill="#f0110a"/>
        <path id="Path_359" data-name="Path 359" d="M563.135,12.459v-.047s-.014.109-.019.133c-.019.1-.009-.047-.009-.09l.009-.028c.019-.27-.038.038-.052.024l.028-.194-.033.161a.715.715,0,0,1,.024-.19c0-.1-.019.066-.014-.043v-.033l-.019.057a.685.685,0,0,1,.014-.109c-.01-.114-.047.142-.043,0V12.08a2.365,2.365,0,0,0-.052.313l.024-.356-.019.142a.277.277,0,0,1,0-.076c-.019.1,0,.062-.019.157,0-.133-.043.057-.024-.171-.014.109,0,.085-.019.161.019-.247-.024.043-.024-.076.019-.128.024-.057.019-.176-.028.213-.019-.047-.033-.009a.424.424,0,0,1-.014.09.889.889,0,0,0,.014-.09.9.9,0,0,1,.01-.095s-.019.123-.024.185c-.01.033-.024,0-.038.038a.7.7,0,0,0-.033-.161v-.028c-.019.171-.033.138-.047.171a1.385,1.385,0,0,1,.028-.19h-.014a.425.425,0,0,1-.024.1l.014-.128s-.047.147-.057.062a3.185,3.185,0,0,1-.047.417,1.537,1.537,0,0,1,.024-.2c0,.009-.014.052-.014.024l.019-.109c0-.047-.014.09-.019.081.009-.095,0-.066.009-.142,0-.009,0,.038.009,0a.833.833,0,0,1-.009-.147.625.625,0,0,1-.019.138c-.019,0,0-.114,0-.161-.01.066-.014,0-.028.138v-.1c-.014.062-.038.014-.047.161v.009h0c-.043.142-.047-.081-.081-.024v-.047c-.019.052-.033.028-.057.128,0,0,0-.085,0-.142-.014.033-.024.085-.033.009.019-.081,0-.071.019-.057-.01-.043-.01-.119-.038.009.019-.119,0-.152-.01-.119v.085s-.014,0-.019,0l.019-.157c-.014-.194-.09.318-.085,0-.019.109.01.081-.01.209a2.437,2.437,0,0,1-.01-.251c-.009-.09-.043.228-.057.166a.931.931,0,0,1-.038.256.97.97,0,0,1,.019-.28v.033a.326.326,0,0,0,.014-.1l-.01.057c0-.057-.024-.052-.009-.147a.23.23,0,0,0-.009.123c-.01-.085-.029,0-.043-.062a.413.413,0,0,1,0,.095c-.024-.071-.024.1-.047.128,0-.085.024-.2,0-.133a.84.84,0,0,1,.024-.194c-.028.1-.028-.076-.033-.095l.014-.043c-.009.028-.014.024-.019.024v.114a.1.1,0,0,1-.01-.066c-.014.071-.014.185-.038.285,0-.057-.028.057-.014-.09.019.052.014-.152.033-.171,0,.019-.01.014-.014,0a.081.081,0,0,1,0-.038c-.01-.133-.028.166-.052.161a.444.444,0,0,0,0-.142.811.811,0,0,1-.024.2c-.009-.066-.019.047-.028.038v.033c0,.085-.014.071-.024.095,0-.066.014-.043.014-.071-.028.147-.009-.157-.038-.057,0-.057.014-.157.014-.194-.028.109-.009-.119-.038-.028a.537.537,0,0,1-.028.194l.038-.076-.038.161s.028-.071.028-.047a.569.569,0,0,0-.019.157c0-.171-.033.095-.038-.019l.028-.28c-.009-.128-.052.138-.076.066v.047c-.009.109-.014.014-.028.057a1.488,1.488,0,0,0,.009-.185c0,.071-.019-.009-.043.176V11.71c-.019-.052-.052.261-.071.228a2.077,2.077,0,0,1,.038-.237c-.009,0-.014-.019-.019.047,0-.057-.033.123-.033.033a1.071,1.071,0,0,1-.024.128v-.047c0,.047-.019.062-.024.166,0-.294-.066.014-.062-.237a.183.183,0,0,1-.057.062c0-.028,0-.047,0-.038-.01-.09-.038.266-.052.166,0-.152.019-.081.019-.138.028-.308-.033.038-.028-.142v-.019c0-.1-.033.114-.052.09a.242.242,0,0,1,0-.047.634.634,0,0,1-.085.247,1.156,1.156,0,0,0,.024-.185c-.009.014-.019.194-.038.228a2.56,2.56,0,0,1,0-.256h.019c.009-.176-.019,0-.028-.033l.009-.071c-.028.024-.047.209-.071.19V11.9c-.038.18,0-.1-.033.028l.014-.185a2.158,2.158,0,0,1-.071.209c.024-.138.052-.2.071-.285-.01,0-.033.009-.047.1,0-.019.014-.062.014-.033-.028.147-.047.213-.066.209.038-.36-.038-.095-.024-.379-.047.128-.062-.062-.1-.047-.014.285-.014,0-.038.294-.01.019-.014.009-.014,0h0l-.01-.176c0-.085.014-.062.019-.128-.019-.024,0-.123,0-.2-.01.1-.024.147-.029.1v.133c-.043.152,0-.247-.038-.095l.019-.09c-.019.052-.052-.009-.09.223a.541.541,0,0,1,.014-.133c-.029-.038-.1.237-.114.095l.01-.071s-.024.133-.024.062a.63.63,0,0,1,.009-.076c0,.024-.028.123-.033.081l.014-.081c-.024-.095-.071.19-.1.232a.807.807,0,0,0-.01-.313v-.028c-.033-.028-.081.166-.123.242,0-.228-.066-.1-.09-.232a1.536,1.536,0,0,1-.024.18c0-.043-.038.142-.019-.047h0c.014-.185-.01-.138-.024-.142l-.028.247c0-.365-.1.123-.09-.2-.014.062-.024.062-.038.123l.014-.133c-.019-.038-.028-.052-.062-.024l.014-.095s-.062.384-.076.389l.014-.2c-.028,0-.038-.176-.085,0a.4.4,0,0,1,.014-.095c-.014,0-.038-.142-.062.133.019-.18-.028-.019-.052.057l.014-.133a.919.919,0,0,1-.057.256.382.382,0,0,1,0-.076c-.01-.019-.024.119-.033.057l.014-.085a.425.425,0,0,0-.033.133c-.014.052-.024-.038-.014-.157-.01.071-.028.171-.033.133a.254.254,0,0,1,.014-.085c-.014-.09-.052.147-.057.019,0-.043,0-.066,0-.081.019,0,.033.014.033.024.014-.123,0-.142.028-.308-.024.09-.062.285-.071.228v-.057l-.009.019c0-.019,0-.033-.009-.038.009-.1-.014-.057-.019-.062-.014.133-.019.109-.024.223,0-.009,0-.014.01-.019a.037.037,0,0,1,0-.014v.009a.049.049,0,0,1,.019,0c-.014.066-.024.123-.028.047-.014.085-.024.171-.033.213.01-.185,0-.289,0-.4a.532.532,0,0,0-.1.289c-.009.033,0-.071,0-.114a.322.322,0,0,0,.014-.057c-.019.062-.043.019-.062.194-.01-.081.024-.161,0-.133l.009-.052c-.019-.285-.119.436-.138.076v.062c-.043-.161-.138.138-.171-.119-.01-.052-.024.057-.043.142l.01-.142-.033.161c-.038.119,0-.356-.062-.128v.095s-.047.052-.033-.057c0,.019-.014.1-.014.047l.01-.076-.038.123c-.014-.057.033-.294,0-.313a1.3,1.3,0,0,0-.057.266.422.422,0,0,1,0,.123l-.014.038a3.6,3.6,0,0,0-.043.6l.033-.133v.109h-.019c0,.1.014.019.024-.043a.942.942,0,0,0,0,.119l.038-.209c0,.085-.024.171-.019.218a2.452,2.452,0,0,1,.033-.256c0,.1-.014.18,0,.1a.319.319,0,0,1-.019.119c.014-.066.028-.028.043-.142,0,.123.033-.028.01.18a1.1,1.1,0,0,1,.043-.171c-.043.247.029.019,0,.285.033-.223.052-.095.081-.218,0,.019-.01.052-.01.043a.851.851,0,0,1,.01.133,3,3,0,0,1,.062-.337,3.366,3.366,0,0,1-.043.389c.014-.152.038-.147.047-.27,0,.109,0,.052,0,.209.024-.232.014-.038.038-.18,0,.114-.019.218,0,.147a.634.634,0,0,1-.024.152,1.578,1.578,0,0,0,.038-.27c.024-.047,0,.128,0,.218.019-.043.043-.2.052-.194a.235.235,0,0,1-.01.076c.028-.138.038,0,.071-.176v.043c0-.085.014-.176.024-.237.009,0,.024-.109.014,0,0,0-.01.043-.014.076l.014-.047c-.01.166-.014.057-.028.176.019-.052.052-.185.062-.138-.014.161-.033.052-.033.194l-.014-.062c-.009.256-.009-.019-.024.251.019.047.033-.081.052-.028.014-.09.009-.133.024-.218.052-.157-.014.408.033.194.019-.1.043-.308.047-.2l-.024.18s.038-.261.052-.133c-.009.071-.024.057-.024.081,0,.147.024-.1.033-.1l-.014.161c.029-.024.066-.138.095-.161,0,.047-.014.1-.014.147.043-.076.071.028.095.128l.028-.138a.8.8,0,0,1,0,.09c.009.052.009-.085.024-.142.009-.009,0,.081-.01.123.033-.114.09-.247.1-.095l-.01.043c.014.057.052-.28.052-.152v.024c.029.066.085-.057.1.157.028-.2.033.095.062-.185a2.125,2.125,0,0,0,.019.285c.01.014.028-.171.043-.2l-.014.147.029-.152L560,12.6l.014-.038V12.45c.024-.066.029.1.024.18l.052-.119a.531.531,0,0,1-.024.114c.033-.147-.014.152.019.019a.826.826,0,0,1,.014-.114c0,.09.019.09.043.057l-.014.1c.024.028.062-.043.095-.038a1.081,1.081,0,0,1,.024-.237l-.014.157c.014-.095,0-.057.019-.176a.811.811,0,0,1-.024.223l.019-.052c0,.047-.01.071-.014.128.014-.095.01.157.033-.009v.047c.028,0,.047-.047.071-.052a1.541,1.541,0,0,1,.038-.209c.014.043.024.152.047.142.024-.066.014-.114.033-.19-.01.119.014.114-.01.2.028-.019.038-.019.081-.114a.838.838,0,0,1,0-.114c.009-.019.009.052,0,.109v.014c.052-.176.052.36.1.114v.014l.043-.128a.735.735,0,0,0-.014.166c.057-.2.052.033.095-.095-.014.36.081-.019.085.213v-.085c.024-.081.01.047.014.071a.822.822,0,0,1,.009-.123c.076-.095.123.138.18.218.024.024.057-.432.066-.228l-.024.157c.066-.18.1.019.161-.138a.3.3,0,0,1-.014.081c0,.114.038.009.047-.085,0,.009,0,.085,0,.133,0,.066.038-.142.033-.028a.08.08,0,0,1-.01.043c.014-.052.028.019.038-.114.01.066.043-.057.047.024.024-.147.024.071.047-.133-.024.213.014.176.038.076-.01.066,0,.066-.01.157.014,0,.028-.038.038-.152,0,.256.071-.2.047.128a1.279,1.279,0,0,1,.133-.232c-.024.213-.043.019-.062.242.043-.085.081-.266.109-.209a.7.7,0,0,1-.019.128c.043-.085.062.024.1-.085a.2.2,0,0,1-.014.057s.009.033.019-.066l-.01.024a2.867,2.867,0,0,1,.062-.365c-.038.275.024.071-.028.422a.752.752,0,0,0,.019-.128.976.976,0,0,1-.01.133c.024-.052.028-.157.047-.152,0,.047-.009.066-.019.119.019-.09.038-.18.047-.138s0,.066-.009.062c.028-.009.071-.237.09-.147a1.588,1.588,0,0,0-.014.247l.024-.052v-.085s.043-.123.047-.062l-.019.071.028-.028-.01-.066c.024-.09.019-.223.033-.171,0,.019.014,0,.01.109.014-.057.024-.114.033-.066s-.024.194-.024.232c.024-.147.038-.038.062-.194,0,.038-.014.128-.019.147l.019-.119c0,.038,0,.057,0,.133.019.024.014-.223.028-.123a.1.1,0,0,1-.01.047c.019.052.052-.071.066-.009-.009.18-.024.043-.033.19.033-.028.085-.2.109-.161v-.019c.024-.251,0,.128.033.009,0,.019-.019.138-.014.109.014.043.047-.057.085-.133l-.01.066c0,.057.028.038.038.066a.724.724,0,0,0,.024-.147c0,.37.095-.19.1.119l-.014.057.038-.057c.009-.109,0-.066,0-.152.01-.066.024-.114.033-.114a1.044,1.044,0,0,0-.019.237c0-.033.01-.071.01-.1,0,.194.024-.218.033-.085v.057c0-.028.019-.1.028-.085-.01.128-.014.057-.024.161.014,0,.047-.237.047-.109-.009.033-.014.033-.024.071,0,.147,0,.114.01.138h0l.014.066v-.043c.047-.327.038-.057.081-.27a1.411,1.411,0,0,0-.033.261,1.066,1.066,0,0,1,0,.123c.024-.114.01.09.038-.076a.411.411,0,0,1,0,.119.876.876,0,0,0,.014-.138c.033-.157.029.194.076-.019.033-.085.052-.242.085-.318a.777.777,0,0,1-.024.166c0,.071.014.057.033,0a.953.953,0,0,0-.009.128c.009-.009.024-.166.029-.1s-.019.133-.029.185a1.693,1.693,0,0,1,.052-.166.973.973,0,0,1-.028.171.491.491,0,0,0,.057-.194Zm-3.567-.171h0Zm.019,0c0-.047.009-.095.014-.09a.627.627,0,0,0,0,.095S559.591,12.284,559.586,12.284Zm.043-.882a.058.058,0,0,0-.009.014v.014a.294.294,0,0,1,0-.066c.01-.019,0,.009,0,.033Z" transform="translate(-335.321 -5.886)" fill="#f0110a"/>
        <path id="Path_360" data-name="Path 360" d="M565.98,13.68Z" transform="translate(-339.12 -7.168)" fill="#f0110a"/>
        <path id="Path_361" data-name="Path 361" d="M560.95,11.987v0Z" transform="translate(-336.476 -6.276)" fill="#f0110a"/>
        <path id="Path_362" data-name="Path 362" d="M560.53,11.865v0h0Z" transform="translate(-336.255 -6.211)" fill="#f0110a"/>
        <path id="Path_363" data-name="Path 363" d="M566.81,12.92v0h0Z" transform="translate(-339.556 -6.769)" fill="#f0110a"/>
        <path id="Path_364" data-name="Path 364" d="M561.445,14.053l0-.033-.01.028Z" transform="translate(-336.733 -7.347)" fill="#f0110a"/>
        <path id="Path_365" data-name="Path 365" d="M567.38,14.087s0-.043,0-.057h0v.057Z" transform="translate(-339.856 -7.352)" fill="#f0110a"/>
        <path id="Path_366" data-name="Path 366" d="M565.305,14.28h0C565.3,14.313,565.305,14.3,565.305,14.28Z" transform="translate(-338.763 -7.484)" fill="#f0110a"/>
        <path id="Path_367" data-name="Path 367" d="M565.964,13.68a.617.617,0,0,1-.014.062C565.95,13.751,565.959,13.756,565.964,13.68Z" transform="translate(-339.104 -7.168)" fill="#f0110a"/>
        <path id="Path_368" data-name="Path 368" d="M564.6,14.54Z" transform="translate(-338.394 -7.62)" fill="#f0110a"/>
        <path id="Path_369" data-name="Path 369" d="M565.92,13.8c0,.028.009.024.014,0S565.929,13.772,565.92,13.8Z" transform="translate(-339.088 -7.222)" fill="#f0110a"/>
        <path id="Path_370" data-name="Path 370" d="M567.92,14.345v0h0Z" transform="translate(-340.14 -7.515)" fill="#f0110a"/>
        <path id="Path_371" data-name="Path 371" d="M567.949,14.2l-.009.033S567.945,14.238,567.949,14.2Z" transform="translate(-340.15 -7.442)" fill="#f0110a"/>
        <path id="Path_372" data-name="Path 372" d="M567.71,14.187s0,.1.014.076v-.038C567.719,14.3,567.724,14.107,567.71,14.187Z" transform="translate(-340.029 -7.424)" fill="#f0110a"/>
        <path id="Path_373" data-name="Path 373" d="M567.643,12.686c-.01-.157,0,.114-.033.09l.014.043c0-.052,0-.123.014-.133Z" transform="translate(-339.977 -6.62)" fill="#f0110a"/>
        <path id="Path_374" data-name="Path 374" d="M567.507,12.55a.26.26,0,0,0-.01.1A.252.252,0,0,0,567.507,12.55Z" transform="translate(-339.917 -6.574)" fill="#f0110a"/>
        <path id="Path_375" data-name="Path 375" d="M566.54,12.539l.014-.119S566.549,12.467,566.54,12.539Z" transform="translate(-339.414 -6.506)" fill="#f0110a"/>
        <path id="Path_376" data-name="Path 376" d="M566.22,13.928V14l.014-.114Z" transform="translate(-339.246 -7.279)" fill="#f0110a"/>
        <path id="Path_377" data-name="Path 377" d="M566.289,12.11l-.019.043.009-.028Z" transform="translate(-339.272 -6.343)" fill="#f0110a"/>
        <path id="Path_378" data-name="Path 378" d="M564.654,12.061l-.014.147C564.649,12.179,564.668,12.013,564.654,12.061Z" transform="translate(-338.415 -6.312)" fill="#f0110a"/>
        <path id="Path_379" data-name="Path 379" d="M563.914,12.223c0-.076,0-.123-.014-.052C563.9,12.181,563.909,12.242,563.914,12.223Z" transform="translate(-338.026 -6.357)" fill="#f0110a"/>
        <path id="Path_380" data-name="Path 380" d="M561.894,11.49l-.014.038,0,.009Z" transform="translate(-336.965 -6.017)" fill="#f0110a"/>
        <path id="Path_381" data-name="Path 381" d="M555.244,12.867l-.014.157.014-.043C555.249,12.938,555.254,12.848,555.244,12.867Z" transform="translate(-333.469 -6.74)" fill="#f0110a"/>
        <path id="Path_382" data-name="Path 382" d="M555.128,12.6a.732.732,0,0,1,0-.1,2,2,0,0,0-.033.351c.019-.152.019-.085.038-.266.01-.019.014.052.01.109,0-.038.014.033.024-.062,0-.123-.019-.128-.038-.028Z" transform="translate(-333.4 -6.548)" fill="#f0110a"/>
        <path id="Path_383" data-name="Path 383" d="M552.08,11.252s0,.009,0,.009S552.085,11.238,552.08,11.252Z" transform="translate(-331.813 -5.888)" fill="#f0110a"/>
        <path id="Path_384" data-name="Path 384" d="M553.35,11.77c0,.052,0,.038.01.052Z" transform="translate(-332.481 -6.164)" fill="#f0110a"/>
        <path id="Path_385" data-name="Path 385" d="M554.88,13.233s0-.024.01-.043c0,0,0,.014-.01.014v.024Z" transform="translate(-333.285 -6.911)" fill="#f0110a"/>
        <path id="Path_386" data-name="Path 386" d="M553.89,11.572h0a.205.205,0,0,1,.01-.062Z" transform="translate(-332.764 -6.027)" fill="#f0110a"/>
        <path id="Path_387" data-name="Path 387" d="M542.425,11.581h0a.413.413,0,0,1,0-.081l-.009.081Z" transform="translate(-326.735 -6.022)" fill="#f0110a"/>
        <path id="Path_388" data-name="Path 388" d="M548.464,10.91c.01.119-.038.152-.019.285A1.68,1.68,0,0,0,548.464,10.91Z" transform="translate(-329.9 -5.712)" fill="#f0110a"/>
        <path id="Path_389" data-name="Path 389" d="M550.579,11.362s0-.028-.009-.009v.014s0-.028.009,0Z" transform="translate(-331.019 -5.941)" fill="#f0110a"/>
        <path id="Path_390" data-name="Path 390" d="M550.26,11.37V11.4h0V11.37Z" transform="translate(-330.856 -5.954)" fill="#f0110a"/>
        <path id="Path_391" data-name="Path 391" d="M543.786,12.869V12.75C543.786,12.845,543.758,12.878,543.786,12.869Z" transform="translate(-327.446 -6.679)" fill="#f0110a"/>
        <path id="Path_392" data-name="Path 392" d="M554.865,13.177h0V13.12a.106.106,0,0,1-.01.057Z" transform="translate(-333.274 -6.874)" fill="#f0110a"/>
        <path id="Path_393" data-name="Path 393" d="M550.224,13.485a.383.383,0,0,0-.009-.095.092.092,0,0,1,0,.033l.014.057Z" transform="translate(-330.83 -7.016)" fill="#f0110a"/>
        <path id="Path_394" data-name="Path 394" d="M545.17,11.137v0Z" transform="translate(-328.181 -5.83)" fill="#f0110a"/>
        <path id="Path_395" data-name="Path 395" d="M548.4,11.645c-.019.1-.019-.047-.019-.09l.014-.028c0-.27-.047.043-.071.024l.019-.194-.033.161a.753.753,0,0,1,.014-.19c-.01-.1-.019.071-.029-.038v-.033l-.019.057c0-.043,0-.138.014-.109-.024-.114-.052.147-.057,0V11.19c-.038.066-.009.142-.047.313v-.356l-.014.142a.164.164,0,0,1,0-.076c-.019.1,0,.062-.014.157-.014-.133-.057.057-.047-.171-.014.109.014.085-.01.161.01-.247-.028.043-.038-.076.014-.128.024-.057.014-.176-.024.213-.033-.047-.052-.009a.239.239,0,0,1-.014.09.367.367,0,0,1,.014-.09V11s-.014.123-.019.185c-.014.033-.033,0-.052.038,0-.057-.043-.095-.062-.161v-.028c-.014.176-.033.138-.052.176a.927.927,0,0,1,.024-.19h-.019a.276.276,0,0,1-.024.1l.01-.128s-.052.152-.076.062a2.661,2.661,0,0,1-.028.417,1.064,1.064,0,0,1,.019-.2c0,.009-.014.052-.014.024l.019-.109c-.009-.047-.014.09-.024.081a1.4,1.4,0,0,0,0-.142c0-.009,0,.038.014,0a.4.4,0,0,1-.024-.147.441.441,0,0,1-.014.138c-.024,0,0-.114-.01-.161-.01.066-.019,0-.028.138a.707.707,0,0,1,0-.1c-.014.062-.057.014-.052.166v.009h0c-.047.142-.076-.076-.114-.019V11.1c-.024.052-.047.028-.071.128a.542.542,0,0,1,0-.142c-.019.033-.024.085-.043.009.024-.081,0-.071.019-.057-.019-.043-.019-.119-.052.009.014-.119-.009-.152-.019-.119l.01.085s-.024,0-.033,0l.014-.157c-.033-.194-.1.323-.119,0-.019.109.019.081,0,.209a1.941,1.941,0,0,1-.033-.251c-.024-.09-.038.228-.066.166a.76.76,0,0,1-.028.256.788.788,0,0,1,0-.28s0,.014,0,.033a.175.175,0,0,0,.014-.1v.057c-.014-.057-.043-.052-.028-.147a.157.157,0,0,0,0,.123c-.024-.081-.043,0-.066-.062v.095c-.038-.071-.024.1-.052.128-.01-.085.019-.2-.014-.133a.439.439,0,0,1,.014-.194c-.033.109-.043-.076-.057-.095l.014-.043c-.01.028-.014.024-.024.024v.114a.1.1,0,0,1-.01-.066c-.014.071,0,.185-.024.289-.01-.057-.033.062-.028-.09.028.052,0-.152.033-.171,0,.019-.014.014-.019,0s0-.033,0-.038c-.024-.133-.024.166-.057.161.01-.085,0-.161,0-.142a.488.488,0,0,1-.019.2c-.019-.066-.024.047-.038.038l.01.033c-.01.085-.019.071-.033.1,0-.066.014-.043.014-.071-.024.147-.028-.157-.057-.057-.01-.057.01-.157,0-.2-.033.109-.019-.119-.052-.028a.659.659,0,0,1-.019.194l.047-.076-.038.161s.033-.071.038-.052a.429.429,0,0,0-.014.157c-.01-.171-.043.095-.057-.019l.014-.28c-.024-.128-.062.142-.1.066l.009.047c-.009.109-.024.014-.043.057,0-.095,0-.128,0-.185,0,.071-.029-.009-.043.18l-.009-.123c-.028-.052-.052.266-.081.232a1.168,1.168,0,0,1,.029-.242c-.009,0-.019-.019-.024.047,0-.057-.038.123-.043.033,0,.043-.014.138-.024.128v-.047a.782.782,0,0,0-.019.166c-.014-.294-.09.014-.1-.237a.237.237,0,0,1-.076.066c0-.028,0-.047,0-.038-.024-.09-.033.266-.062.171-.009-.152.024-.081.014-.138.014-.308-.043.038-.052-.142V10.82c0-.1-.043.114-.066.09v-.047a.528.528,0,0,1-.095.247,1.152,1.152,0,0,0,.019-.185c-.014.019-.009.194-.033.228a2.505,2.505,0,0,1-.014-.256h.024c0-.176-.028,0-.038-.033v-.076c-.028.024-.043.209-.076.194v.057c-.028.185-.009-.1-.038.033v-.185a1.038,1.038,0,0,1-.076.213,1.541,1.541,0,0,1,.076-.289c-.014,0-.047.009-.057.1,0-.019.014-.062.019-.033-.024.147-.047.218-.076.213.024-.36-.062-.095-.066-.379-.052.133-.09-.062-.142-.043,0,.285-.014.009-.029.3-.014.019-.019.014-.019,0h0l-.028-.176c0-.085.014-.062.019-.128-.028-.024,0-.123-.019-.2,0,.1-.019.147-.033.109l.014.133c-.047.152-.019-.247-.066-.095l.019-.09c-.024.052-.071,0-.1.228a.561.561,0,0,1,.01-.133c-.047-.038-.119.242-.147.095l.01-.071s-.024.133-.028.062c0-.028.01-.071,0-.076,0,.024-.028.123-.038.081l.014-.081c-.043-.095-.081.19-.123.237a.573.573,0,0,0-.038-.313v-.028c-.052-.028-.1.166-.152.247-.019-.228-.1-.1-.142-.232a.74.74,0,0,1-.019.185c-.01-.043-.038.142-.028-.047h0c0-.185-.024-.138-.043-.142l-.019.251c-.029-.365-.138.128-.142-.2-.014.062-.028.062-.043.123l.01-.133c-.028-.038-.047-.052-.09-.024l.014-.095a3.141,3.141,0,0,1-.071.394v-.2c-.033,0-.066-.176-.114,0a.25.25,0,0,1,.014-.095c-.019,0-.066-.138-.071.138.009-.18-.038-.019-.066.057l.009-.133a.847.847,0,0,1-.057.261v-.076c-.014-.019-.019.123-.038.057l.014-.085a.491.491,0,0,0-.038.133c-.014.052-.038-.033-.033-.157,0,.071-.024.171-.033.133a.273.273,0,0,1,.009-.085c-.028-.09-.062.152-.076.019v-.081c.028,0,.047.014.047.024a1.506,1.506,0,0,1,.014-.313c-.024.09-.066.289-.081.228v-.057s0,0-.01.019a.1.1,0,0,0-.014-.038c0-.1-.024-.057-.033-.062a2.013,2.013,0,0,0-.014.223c0-.009,0-.014.009-.019a.037.037,0,0,1,0-.014v.009l.028-.009c-.014.066-.024.123-.033.047-.009.085-.024.171-.028.213,0-.185-.028-.289-.024-.4a.437.437,0,0,0-.119.294c-.009.033,0-.071-.009-.114,0-.024.014-.019.019-.057-.024.062-.057.024-.071.194-.019-.081.024-.161-.014-.133l.009-.052c-.047-.285-.133.441-.185.076,0,.024,0,.033,0,.062-.076-.161-.175.138-.247-.114-.019-.052-.028.062-.047.142v-.142l-.029.166c-.043.119-.038-.356-.095-.128v.095s-.052.052-.043-.057c0,.019-.009.1-.014.047v-.076l-.043.128c-.028-.057.019-.3-.019-.313a.879.879,0,0,0-.052.266.268.268,0,0,1,.01.123l-.019.038a2.893,2.893,0,0,0-.009.6l.033-.133v.109h-.019c0,.109.019.019.028-.043v.119l.038-.209a1.168,1.168,0,0,0,0,.218c.019-.095,0-.194.024-.256,0,.1,0,.18.019.1a.345.345,0,0,1-.014.119c.014-.066.033-.028.047-.142,0,.123.043-.028.033.18a.732.732,0,0,1,.043-.171c-.033.247.043.019.024.285.028-.223.062-.095.095-.218,0,.019-.009.052-.009.043a.617.617,0,0,1,.024.133,2.4,2.4,0,0,1,.057-.342,3.4,3.4,0,0,1-.028.389c.01-.152.043-.147.043-.275a1.251,1.251,0,0,1,.009.209c.014-.232.014-.038.038-.18.014.114,0,.218.019.147a.382.382,0,0,1-.019.152c.024,0,.019-.171.033-.27.033-.047,0,.128.009.218.019-.047.043-.2.057-.2v.076c.028-.138.057,0,.085-.176v.043c0-.09,0-.176.01-.242.009,0,.024-.109.024,0a.293.293,0,0,0-.014.076l.014-.047c0,.166-.019.057-.024.176.024-.052.057-.185.071-.138,0,.161-.043.052-.028.194l-.024-.062c0,.256-.014-.019-.009.256.033.047.043-.081.071-.033.014-.09,0-.133.019-.223.057-.157.014.408.062.194.014-.1.028-.308.047-.2l-.019.18c.033.019.033-.261.062-.138-.009.071-.028.057-.024.081.014.147.024-.1.038-.1V11.7c.028-.024.076-.138.114-.166a.768.768,0,0,0-.01.147c.052-.076.1.024.142.123l.024-.138v.09c.014.052,0-.09.019-.142.01-.009.01.081,0,.123.038-.114.1-.247.133-.1l-.01.043c.024.057.047-.285.062-.152v.024c.047.062.119-.062.152.152.019-.2.052.09.071-.185a1.226,1.226,0,0,0,.052.285c.01.014.028-.176.043-.2l-.01.147.028-.152v.176l.019-.038a.551.551,0,0,1,0-.109c.024-.066.047.1.047.18l.062-.119a.315.315,0,0,1-.024.114c.038-.147,0,.152.028.019a1,1,0,0,1,.01-.119c.01.09.038.09.062.057l-.009.1c.038.028.085-.043.128-.038a.619.619,0,0,1,.014-.237v.157c.01-.095-.014-.057.01-.176a.767.767,0,0,1-.01.228l.024-.052c0,.047-.009.071-.014.128.014-.095.024.157.047-.009v.047c.043,0,.066-.047.1-.052a1.036,1.036,0,0,1,.038-.209c.024.043.047.152.081.142a1.141,1.141,0,0,0,.028-.19c0,.123.028.114,0,.2.038-.019.047-.024.1-.119a.454.454,0,0,1,0-.114c.009-.019.019.052.014.109v.014c.062-.18.1.36.157.109v.014l.047-.128a.5.5,0,0,0,0,.166c.057-.2.076.033.123-.1.009.36.109-.019.138.213v-.085c.019-.081.014.047.019.066a.527.527,0,0,1,0-.123c.095-.095.18.133.27.213.033.024.043-.436.076-.232l-.019.157c.081-.185.138.014.213-.142a.3.3,0,0,1-.014.081c.009.114.052.009.057-.085a.591.591,0,0,1,0,.133c.01.066.043-.142.043-.028a.119.119,0,0,1-.01.047c.014-.052.043.014.043-.114.024.062.052-.057.066.024.019-.147.038.071.057-.133-.014.213.033.176.057.076-.009.066.009.066,0,.157.019,0,.038-.043.038-.152.019.256.081-.2.081.128a1,1,0,0,1,.166-.237c-.014.213-.057.019-.066.242.052-.085.085-.266.128-.213a.323.323,0,0,1-.019.128c.052-.085.085.024.133-.09a.112.112,0,0,1-.014.057c.01,0,.019.033.024-.066l-.009.024a2.286,2.286,0,0,1,.052-.365c-.028.28.038.071,0,.422a.741.741,0,0,0,.019-.128.314.314,0,0,1,0,.133c.033-.052.029-.157.052-.152a1.143,1.143,0,0,1-.014.119c.019-.09.038-.18.057-.142,0,.028,0,.066-.009.066.038-.014.076-.242.114-.152-.024.2.01.066,0,.247l.024-.052V11.7s.038-.123.052-.066l-.019.071.038-.033-.019-.066c.024-.09.01-.223.033-.176,0,.019.019,0,.024.109h0c.014-.057.028-.114.038-.071s-.014.194-.014.232c.019-.147.047-.038.071-.194,0,.038-.009.128-.009.147l.014-.119a.4.4,0,0,1,0,.133c.028.024,0-.223.033-.128a.1.1,0,0,1-.009.047c.028.052.066-.071.095-.014,0,.18-.029.043-.029.194.043-.028.1-.209.142-.166v-.019c.014-.251.019.128.047.009a.666.666,0,0,0-.01.109c.028.043.062-.057.109-.138l-.009.066c.014.057.043.038.057.066a.552.552,0,0,0,.019-.147c.038.37.119-.19.152.119a.127.127,0,0,0-.014.057l.047-.057a1.4,1.4,0,0,0,0-.152c.009-.066.024-.114.033-.114a.569.569,0,0,0,0,.237c0-.033,0-.071,0-.1.009.194.014-.218.038-.085v.057c.009-.028.024-.1.033-.085,0,.128-.014.057-.024.161.019,0,.047-.237.057-.109-.009.033-.019.033-.028.071.009.152.014.114.024.138h0l.024.066v-.043c.033-.327.043-.057.081-.27a.925.925,0,0,0-.019.261.539.539,0,0,1,.01.123c.019-.114.019.09.047-.076a.341.341,0,0,1,0,.123c.019-.033,0-.081,0-.138.038-.157.052.194.1-.019.038-.085.052-.242.09-.318a.623.623,0,0,1-.019.166c.014.071.028.057.047,0a1.156,1.156,0,0,0,0,.128c.014-.009.019-.166.033-.1,0,.052-.014.133-.024.185.019-.043.038-.128.057-.166a.782.782,0,0,1-.024.176.36.36,0,0,0,.062-.2l-.009-.047a.75.75,0,0,1-.009.133ZM543.444,10.6v.014a.291.291,0,0,1,0-.066c.01-.019.01.009.01.033a.035.035,0,0,0-.014.014Zm0,.878h0Zm.028,0a.222.222,0,0,1,.01-.09.8.8,0,0,0,.01.095.029.029,0,0,0-.019,0Z" transform="translate(-326.72 -5.47)" fill="#f0110a"/>
        <path id="Path_396" data-name="Path 396" d="M544.57,11.015v0h0Z" transform="translate(-327.865 -5.765)" fill="#f0110a"/>
        <path id="Path_397" data-name="Path 397" d="M553.39,11.92v0h0Z" transform="translate(-332.502 -6.243)" fill="#f0110a"/>
        <path id="Path_398" data-name="Path 398" d="M546.035,13.183V13.15l0,.028Z" transform="translate(-328.633 -6.89)" fill="#f0110a"/>
        <path id="Path_399" data-name="Path 399" d="M554.27,13.077a.3.3,0,0,1,0-.057h0v.057Z" transform="translate(-332.964 -6.821)" fill="#f0110a"/>
        <path id="Path_400" data-name="Path 400" d="M551.415,13.32v0C551.406,13.348,551.415,13.339,551.415,13.32Z" transform="translate(-331.461 -6.979)" fill="#f0110a"/>
        <path id="Path_401" data-name="Path 401" d="M552.284,12.71c0,.024-.01.047-.014.062S552.284,12.786,552.284,12.71Z" transform="translate(-331.913 -6.658)" fill="#f0110a"/>
        <path id="Path_402" data-name="Path 402" d="M550.455,13.6Z" transform="translate(-330.956 -7.126)" fill="#f0110a"/>
        <path id="Path_403" data-name="Path 403" d="M552.22,12.816c0,.028.014.024.019,0S552.229,12.792,552.22,12.816Z" transform="translate(-331.887 -6.707)" fill="#f0110a"/>
        <path id="Path_404" data-name="Path 404" d="M555.04,13.3v-.009h0Z" transform="translate(-333.369 -6.958)" fill="#f0110a"/>
        <path id="Path_405" data-name="Path 405" d="M555.069,13.18l-.009.033S555.069,13.218,555.069,13.18Z" transform="translate(-333.379 -6.905)" fill="#f0110a"/>
        <path id="Path_406" data-name="Path 406" d="M554.73,13.177s.014.1.028.076v-.038C554.754,13.287,554.744,13.1,554.73,13.177Z" transform="translate(-333.206 -6.893)" fill="#f0110a"/>
        <path id="Path_407" data-name="Path 407" d="M554.543,11.676c-.028-.157,0,.114-.033.095l.028.038c0-.052,0-.123.01-.133Z" transform="translate(-333.09 -6.089)" fill="#f0110a"/>
        <path id="Path_408" data-name="Path 408" d="M554.327,11.54a.158.158,0,0,0,0,.1C554.342,11.621,554.323,11.568,554.327,11.54Z" transform="translate(-332.988 -6.043)" fill="#f0110a"/>
        <path id="Path_409" data-name="Path 409" d="M552.98,11.543l.01-.123A1.1,1.1,0,0,1,552.98,11.543Z" transform="translate(-332.286 -5.98)" fill="#f0110a"/>
        <path id="Path_410" data-name="Path 410" d="M552.655,13.024l.014-.114-.019.038Z" transform="translate(-332.113 -6.763)" fill="#f0110a"/>
        <path id="Path_411" data-name="Path 411" d="M552.584,11.12l-.024.043.019-.024Z" transform="translate(-332.065 -5.822)" fill="#f0110a"/>
        <path id="Path_412" data-name="Path 412" d="M550.33,11.112v.152C550.335,11.236,550.344,11.07,550.33,11.112Z" transform="translate(-330.893 -5.815)" fill="#f0110a"/>
        <path id="Path_413" data-name="Path 413" d="M549.314,11.293c0-.076-.009-.123-.024-.052C549.3,11.251,549.309,11.312,549.314,11.293Z" transform="translate(-330.346 -5.868)" fill="#f0110a"/>
        <path id="Path_414" data-name="Path 414" d="M546.439,10.61l-.019.043.009.009Z" transform="translate(-328.838 -5.554)" fill="#f0110a"/>
        <path id="Path_415" data-name="Path 415" d="M466.217,4.552a.192.192,0,0,0,.047-.062C466.222,4.514,466.207,4.533,466.217,4.552Z" transform="translate(-293.012 -2.337)" fill="#f0110a"/>
        <path id="Path_416" data-name="Path 416" d="M423.66,2.484l.237-.024A.582.582,0,0,0,423.66,2.484Z" transform="translate(-253.751 -1.27)" fill="#f0110a"/>
        <path id="Path_417" data-name="Path 417" d="M491.668,6.1l-.028.014c.185.009.441.024.849.052l-.821-.062Z" transform="translate(-300.041 -3.184)" fill="#f0110a"/>
        <path id="Path_418" data-name="Path 418" d="M332.78.305h.27A2.517,2.517,0,0,0,332.78.305Z" transform="translate(-199.317 -0.135)" fill="#f0110a"/>
        <path id="Path_419" data-name="Path 419" d="M386.272,1.41a1.623,1.623,0,0,1-.342.038A.677.677,0,0,0,386.272,1.41Z" transform="translate(-231.161 -0.718)" fill="#f0110a"/>
        <path id="Path_420" data-name="Path 420" d="M504.661,9.424l-.341-.1C504.32,9.358,504.443,9.405,504.661,9.424Z" transform="translate(-306.707 -4.876)" fill="#f0110a"/>
        <path id="Path_421" data-name="Path 421" d="M530.875,9.934a.074.074,0,0,0-.033-.024C530.823,9.919,530.842,9.924,530.875,9.934Z" transform="translate(-320.645 -5.186)" fill="#f0110a"/>
        <path id="Path_422" data-name="Path 422" d="M520.476,8.73c-.1,0-.223.014-.346.024C520.277,8.754,520.462,8.768,520.476,8.73Z" transform="translate(-315.018 -4.566)" fill="#f0110a"/>
        <path id="Path_423" data-name="Path 423" d="M519.78,8.794l.166-.014C519.856,8.78,519.78,8.78,519.78,8.794Z" transform="translate(-314.834 -4.592)" fill="#f0110a"/>
        <path id="Path_424" data-name="Path 424" d="M2.83,26.68a5.015,5.015,0,0,0-.93.342Z" transform="translate(-0.975 -14.002)" fill="#f0110a"/>
        <path id="Path_425" data-name="Path 425" d="M250.457,1.278l.076-.038C250.462,1.254,250.448,1.268,250.457,1.278Z" transform="translate(-149.99 -0.629)" fill="#f0110a"/>
        <path id="Path_426" data-name="Path 426" d="M490.137,9.409c-.361.071-1.081-.066-1.077.019C489.435,9.428,489.966,9.523,490.137,9.409Z" transform="translate(-298.685 -4.918)" fill="#f0110a"/>
        <path id="Path_427" data-name="Path 427" d="M233.052,8.93l-.232.014A2.044,2.044,0,0,0,233.052,8.93Z" transform="translate(-139.438 -4.671)" fill="#f0110a"/>
        <path id="Path_428" data-name="Path 428" d="M3.625,28.384c-.028-.009-.062-.014-.095-.024a1.122,1.122,0,0,1-.19.071l.289-.047Z" transform="translate(-1.732 -14.885)" fill="#f0110a"/>
        <path id="Path_429" data-name="Path 429" d="M164.78,5.214h.014l.081-.024Z" transform="translate(-98.676 -2.705)" fill="#f0110a"/>
        <path id="Path_430" data-name="Path 430" d="M160.22,5.147l.455-.057A1.542,1.542,0,0,0,160.22,5.147Z" transform="translate(-95.961 -2.653)" fill="#f0110a"/>
        <path id="Path_431" data-name="Path 431" d="M1.306,27.4l-.536.209C.964,27.547,1.14,27.471,1.306,27.4Z" transform="translate(-0.381 -14.38)" fill="#f0110a"/>
        <path id="Path_432" data-name="Path 432" d="M111.35,9.563l.213-.033A1.456,1.456,0,0,0,111.35,9.563Z" transform="translate(-51.57 -4.987)" fill="#f0110a"/>
        <path id="Path_433" data-name="Path 433" d="M390.1,1.558l.19.024S390.3,1.549,390.1,1.558Z" transform="translate(-233.643 -0.795)" fill="#f0110a"/>
        <path id="Path_434" data-name="Path 434" d="M356.2,6.1h0v0Z" transform="translate(-213.32 -3.184)" fill="#f0110a"/>
        <path id="Path_435" data-name="Path 435" d="M356.21,5.984a3.174,3.174,0,0,0,.854-.1A2.69,2.69,0,0,0,356.21,5.984Z" transform="translate(-213.408 -3.067)" fill="#f0110a"/>
        <path id="Path_436" data-name="Path 436" d="M388.639,6.779V6.77a.01.01,0,0,0-.009.009Z" transform="translate(-232.744 -3.536)" fill="#f0110a"/>
        <path id="Path_437" data-name="Path 437" d="M380.97,6.64a1.078,1.078,0,0,0,.232.043A1.28,1.28,0,0,0,380.97,6.64Z" transform="translate(-228.179 -3.467)" fill="#f0110a"/>
        <path id="Path_438" data-name="Path 438" d="M334.43,6.45Z" transform="translate(-200.281 -3.368)" fill="#f0110a"/>
        <path id="Path_439" data-name="Path 439" d="M104.663,9.99c-.024.019-.033.033-.033.047A.08.08,0,0,0,104.663,9.99Z" transform="translate(-48.462 -5.228)" fill="#f0110a"/>
        <path id="Path_440" data-name="Path 440" d="M363.868,6.42s-.033.024-.028.038A.086.086,0,0,0,363.868,6.42Z" transform="translate(-217.897 -3.352)" fill="#f0110a"/>
        <path id="Path_441" data-name="Path 441" d="M212.381,5.059a2.989,2.989,0,0,0,1.632.024c-1.314-.294-.917-.062-2.152-.37-.175.057-.155.247-.9.128.473-.066-.028-.109-.159-.147.139.119-.52.014-.751.047-.2-.1.461-.228-.3-.313l-.155.247c-.294-.057.135-.18-.5-.157.345-.114-.1-.213.762-.209a5.69,5.69,0,0,0-2.363.081c.083-.009.091-.047.171-.057a2.837,2.837,0,0,1-.715.038c-.52-.085.417-.095.286-.171l-.846-.038s-.02-.014-.02-.019a.866.866,0,0,1-.512-.033,4.989,4.989,0,0,0,.528-.2l-.9.128c.1-.081-.727-.185-.091-.213l-1.314-.038-.1-.18c-.318.014-.326.047.048.09-.449-.066-2.005.194-1.755-.133-1.036.085-1.41.009-2.661.024.969-.1-1.1-.261-.072-.28-.592-.109-.727.071-1.2.076-.437-.1-.234-.256.242-.294l-.564.047.012-.033-.488.071c-.512-.119-.1-.18-.635-.232l-.123.147-.357-.109c.131.076-.183.09-.572.081l.008-.033H195.4c.469-.066-.429-.052-.21-.152-.4-.028-.409-.028-1.136-.043l.123.114c-.949.038-.032-.157-.8-.209l.044.123c-1.1-.266-1.874.009-2.684-.166.469,0,.353-.147.345-.114a22.353,22.353,0,0,0-2.581.014c-.258-.19-.322-.247-1.064-.365-.544-.019-.623-.009-.806.085-.524-.1-1.513-.024-1.537-.157-.127.095-.473-.038-.766.038l-.06-.052.04.123c-.925-.3-1.581.095-2.514-.171l.163-.028-.4.033c-.06-.057.1-.081.123-.152l-1.843-.09.361.1a4.391,4.391,0,0,1-1.092.014c.743-.152-.612-.028-.727-.171l.4-.033q-.54-.009-.5.114c-.7.019-.473-.247-1.124-.142l.461.024c.135.076-.2.161-.508.147-.071-.019-.29-.081-.056-.09-.552.028-1.378-.066-1.624-.024-.3-.047-.2-.128-.036-.157-1.183.062-.532-.043-1.716.019l.02-.066-.409.066-.576-.166.206.095a7.02,7.02,0,0,1-1.084-.019l.183-.095a21.4,21.4,0,0,0-2.3-.109c-.071-.019.091-.047.175-.062-.969.123-.723-.209-1.7-.047.06-.033-.044-.076-.008-.1l-.441.052.036-.138-.365.19-.27-.152-.175.062c-.465-.28-1.136-.1-1.775-.327l.107.176c-1.636.308-3.713-.356-5.683-.218l.036-.138-.814.147c-.433-.114.262-.114.127-.185-.87.062-.365.194-1.374.218-.516-.1.183-.1.425-.142a22.159,22.159,0,0,1-3.01.019c-.016.019-.056.043-.024.052-.631.052-1.461-.024-2.156-.024.02-.062.191-.071.365-.081a2.865,2.865,0,0,0-.806,0l.262-.114a7.105,7.105,0,0,1-1.68-.081c.064.052.036.157-.425.142-.25-.213-1.255.066-1.993-.057A4.8,4.8,0,0,1,149.029.5,2.935,2.935,0,0,0,148,.591l.1-.081L146.377.6c-.254-.213-1.624,0-1.505-.147-.616-.019.516.1-.262.114-.206-.09-.7.033-.671-.1l.083-.014h-.544l.345-.128c-.469.024-.814.152-.838.251a7.107,7.107,0,0,1-1.275-.157l.167-.028c-1.247.033-2.061-.4-3.042-.19-.071-.019-.064-.052.087-.052l-.77-.019.183-.1L137.06.164,137.076.1c-.842-.024-2.156.019-3.24.047L134,.112c-1.179.114-1.14-.062-2.005.019A.227.227,0,0,1,132.085.1h-.778l.171-.062c-.576.152-1.648-.185-1.291-.062a4.734,4.734,0,0,0-.985.232c-.85.014-.206-.085-.735-.142a12.28,12.28,0,0,1-1.553.057l.016-.071c-.389.014-.631.066-1.171.076L125.922.1c-.882.147-1.1-.194-1.795.109-.369-.052-1.072,0-1.04-.142-1.1.095-1.954.142-3.046.2-.179-.223-.234.014-.9-.109l.052.119c-1.545.033-3.32-.289-5.023-.176l-.048-.119-.338.142c-1.835-.009-4.209.009-5.671.047a9.906,9.906,0,0,1-1.966.218l.079-.019a40.776,40.776,0,0,1-4.17.161c.087-.052-.056-.085.107-.123a3.286,3.286,0,0,1-1.156.033l.365.081a2.221,2.221,0,0,1-1.211-.052L99.518.62C99.474.61,99.406.591,99.4.572l-.115.066L98.934.487a5.685,5.685,0,0,0-1.283.261c-.064-.052-.671-.076-.2-.119-.79,0-1.584.009-2.375.038L95.447.7c.048.119-.663.228-1.032.194C94.9.781,94.45.724,94.24.648c-.322.081.282.095.115.166a5.9,5.9,0,0,1-1.477.142L93.12.895c-.548.071-.81-.128-1.35-.09-.484.123-.846.047-.739.251-.7.076-.274-.128-.5-.138a3.269,3.269,0,0,1-1.445,0c-.377.323-1.9-.014-2.037.247l-.584-.119c-.016.071-.127.228-.592.28-.445-.052-.342-.176-.48-.242l-.286.27c-1.279-.076-2.756-.024-4.261.033-.755.024-1.513.052-2.264.076s-1.481.057-2.18.052c-1.243.142-2.8.375-4.257.441l.159-.043-1.445.033,1.056.043a8.054,8.054,0,0,1-.862.138,44.171,44.171,0,0,0-5.655.3c-1.247.384-.854-.2-2.053.1.1-.033.139-.081.23-.114-1.3.194-2,.332-3.3.621.131-.3-.846.085-.739-.076l-.1.128c-.294-.043-.977,0-.886-.1l-.564.2-.056-.114a10.234,10.234,0,0,1-2.812.109c-.937.18-2.152.327-3.431.455s-2.617.218-3.8.346a8.2,8.2,0,0,1-1.557.3l-.588-.076a6.911,6.911,0,0,1-1.632.327c0-.019.02-.033.056-.043a8.034,8.034,0,0,0-1.6.28c-.54.057-1.072.062-1.064-.047-.187.18-1.271.071-1.271.071l-1.366.142c-.437.047-.969.1-1.588.166l-2.077.27c-1.533.209-3.336.451-5.309.721-.985.138-2.013.285-3.07.436-1.052.18-2.136.36-3.232.545C19.19,7.8,14.576,8.74,10.6,9.708A57.209,57.209,0,0,0,1.479,12.6c-.23.185-.917.455-.619.517-.532.2-.83.081-.909.228.758-.152-.159.365.592.289L.089,13.8c-.075.109.608-.285.524-.1L.7,13.441a1.762,1.762,0,0,1,.739-.047A2.539,2.539,0,0,1,2.8,12.748l-.23.076c.679-.2.445.028.592.024l-.151.038.6-.038c-.449.033-1.136.4-.762.289.822-.152-.222,0,.385-.185.377-.1.29.038.286.109l.679-.18c0,.1-.453.109-.155.142l.838-.323c.2.213.913-.356,1.342-.213-.608.213.071.071-.016.18.5-.138,1-.247,1.509-.365.151,0-.385.166-.159.1.3,0,.457-.166.612-.2.143.043,1.132-.256,1.116-.076,1.044-.114.4-.313,1.37-.427.143.076-.758.194-.314.2l.989-.261a.825.825,0,0,1-.544.27,26.563,26.563,0,0,1,3.439-.323,16.426,16.426,0,0,0,3.236-.46c.361.057-.238.133-.473.261,1.759-.522,2.542-.209,4.062-.479l.016-.1c2.16-.033,4.686-.683,7.1-.92l-.294-.028a9.393,9.393,0,0,1,1.243-.337c.068.043-.262.261.429.119-.147-.014-.445-.009-.365-.076,1.048-.014,2.657-.2,4.432-.417s3.713-.512,5.421-.631c2.3-.313,4.7-.569,7.088-.821,1.2-.128,2.387-.251,3.562-.379,1.179-.1,2.339-.213,3.471-.337-.691.076-.413-.209.111-.2,1.453.294,2.462-.308,3.935-.152,1.314-.194,2.565-.256,3.792-.337a28.816,28.816,0,0,0,3.649-.432l.056.119a3.817,3.817,0,0,0,.85-.1l-.008.033c.913-.019,2.009-.223,2.534-.2l.028-.138c.54-.052.286.085.838-.033l-.012.071.639-.176c-.052.242,1.529-.09,1.966-.014a30.781,30.781,0,0,1,3.086-.318,16,16,0,0,0,2.339.019c1.612-.166,3.927-.3,5.988-.36L82.9,4.618l.536-.038c-.008.033.068.047-.016.071.425.157,1.239-.114,1.676-.028-.278-.128-.377,0-.683.009-.445-.052-.028-.223.572-.176l-.012.033.405-.1c.052.119.421.157.473.275,1.771-.114,2.966-.384,4.8-.413-.183.142,1.31-.1.953.157,1.1-.142-.187-.18.31-.37.306-.009.627-.09.683-.009-.143.062.254.133,0,.166l.731-.052c.071.014-.091.057-.171.076,1.489-.2,2.653,0,3.987-.157.1-.085-.532-.009-.437-.1,1.346-.209,1.2.119,2.45-.033l-.258.123a2.73,2.73,0,0,1,1.251-.123c.119.138-.564.128-.886.2.461,0,1.62-.076,1.263-.19a3.271,3.271,0,0,1,1.048.085c.008-.033-.516-.081-.195-.152.751.057,1.906.024,2.819.009-.008.033.056.085-.02.1.731-.2.659.109,1.668.043,2.7-.123,6.195-.4,8.871-.417A8.957,8.957,0,0,1,117,3.356l.091.242.711-.081c.29.071-.548.047-.036.138l.266-.152c.056.085,1.831.047.635.228l2.764-.014c.612,0,.357-.2,1.032-.147.139.071-.242.052-.187.138,2.029.171,2.343-.484,4.237-.384l-.159.033c.322-.066.933-.062.941-.095-.242-.242-.338.133-.917,0,.052-.2.719-.114.683-.27a4.478,4.478,0,0,0,1.088-.062c.659.123,1.6.028,2.1.185a5.052,5.052,0,0,1,1.378-.285c.5.157-.119.157.56.209l.107-.119c.556.014.469.047.449.1.592,0,.492-.166,1.239-.095l-.417.119a14.126,14.126,0,0,1,1.541-.024c-.016.066-.326.066-.548.047.417.176.711-.081.937-.062-.064-.052-.6-.071-.334-.19.381.019.81-.166,1.08-.028l-.417.119a4.092,4.092,0,0,1,1.334-.109c-.048.009-.024.038-.044.062a9.7,9.7,0,0,1,2.18.028l-.163.028c.345-.033.532-.138.719-.128-.484-.076-.353-.109-.4-.223.639.209.981-.213,2.029-.081-.016.066-.27.147-.56.071a2.036,2.036,0,0,1-1.044.451c.4-.043.866-.062.766.024l.127-.185c.242,0,.429.014.612.014.1-.119-.484-.2.071-.27.627-.052.334.2.433.114.866-.062.361-.194,1.191-.123a1.055,1.055,0,0,1-.318.024c.6.085,1.465-.009,1.64.218a.376.376,0,0,1-.334.095l.008-.033c-.608.142.373-.009.361.128A4.281,4.281,0,0,1,145.594,3l-.119-.142c1.263-.394-.071.275,1.175.237.79-.081-.3-.043.187-.133a7.7,7.7,0,0,0,1.513.109c.218.057.659.138.695.294a10.023,10.023,0,0,0,1.712-.057c-.81-.142-.81.152-1.755-.066l.266-.147c.655.019,1.5-.047,1.95.019-.091-.033-.131-.071-.071-.1a14.642,14.642,0,0,1,2.117-.128c.119.142-.413.109-.8.114a9.725,9.725,0,0,0,1.525.076c.048.123-.612-.019-.719.1l1.009-.024v.024c.147-.2.766.028,1.386-.024a7.682,7.682,0,0,0,2.5-.394c.218.057.278.109.187.161-.357-.095-.294-.024-.421.028.492-.014,1.076.213.8.294.786-.047-.282-.109.2-.166l1.072.028c-.123-.1-.5-.133.056-.2a10.625,10.625,0,0,1,1.307.033c-.091.047.191.166-.27.142a2.032,2.032,0,0,0,.937-.024c-.667-.119,1.1-.052.6-.228l.667.119c-.151-.009-.171.062-.4.033.187.166.548-.024.782-.033a5.271,5.271,0,0,1,.9.138,1.758,1.758,0,0,1,.826.1c.318-.019.028-.1.119-.147l1.068.052c.056.09.139.332-.024.36.409-.066.151-.251.762-.223-.353.157.806.157.294.342a6.859,6.859,0,0,0,1.9.142c.345-.123-.6-.095-.556-.232,1.549,0,1.652-.37,2.788-.261l-.294-.047a4.209,4.209,0,0,0,1.048-.138c-.2.161.794.484,1.958.489.1-.081-.647-.185-.453-.313h.774c.056.019-.032.043-.131.062.695-.033,1.283.266,1.489.076l.7.275-.274-.119a6.251,6.251,0,0,1,1.036-.1,3.394,3.394,0,0,1,1.513.142c-.135-.076-.477-.247.151-.251-.016.275,1.307.147,1.283.289.254,0,.7.109.731,0l-.048.171c.068-.237.985-.194,1.688-.213-.171.318.774,0,1.076.308.139-.218,1.251-.043,1.382-.228.544.009.48.213.616.289l.254-.071a18.446,18.446,0,0,0,1.886.294l.568-.161.206.1c.091-.043.56-.047.274-.138l.3.028c.032-.213.429-.033,1.04-.09.139.043.1.09-.032.114.3.019.171.119.334.2-.214-.066,1.108-.323.29-.465-.052-.09.425-.128.723-.071l.175.2.365-.18a6.466,6.466,0,0,1,1.04.176c-.385-.009-.874.323.127.37a7.187,7.187,0,0,0-1.06.114c.206.019.31.043-.016.1.782-.014.266-.1,1.04-.085-.048.171.167.237.838.332l-.5-.152a.261.261,0,0,1,.1-.043c-.191-.028-.242-.057-.282-.128.151.009.905-.161,1.029-.052-.766-.308,1.366-.133.874-.318.091-.043.631-.024.683.062-.651.095.48.223.369.337.242-.038-.5-.157-.175-.2a3.03,3.03,0,0,1,.878.194l-.163.024.592.109c.1-.081-.572-.176-.02-.19.143.043.695.028.675.095-.266.1-.083.27-.552.275.389.009,1.624.057,1.132-.128l.461.033c-.286-.09-1.1-.266-.167-.237l-.008.033.651-.095.278.1c-.008-.043.1-.076.338-.062.06.057.286.085.266.157.695.028.643-.062.735-.1.389.009.532.052.345.142a14.942,14.942,0,0,1,1.819.19c.715-.038-.143-.043.274-.138.6.332,2.347.247,3.507.27-.294-.27.27-.033.512-.218-.024.081,1.04.247.1.261l.619.009c.417.166-1.029.052-.4.285a10.967,10.967,0,0,1,1.978-.09c-.282.171.631-.028.421.166a2.438,2.438,0,0,1-.631.028l.143.043c1.521.138.449-.194,1.255-.275.929.028.727.185.774.275a3.011,3.011,0,0,0,.858,0c-.572.081-1.04-.176-.774-.275Z" transform="translate(0.05 0.048)" fill="#f0110a"/>
        <path id="Path_442" data-name="Path 442" d="M388.18,6.88l.669-.071-.441-.028c0,.028-.024.066-.228.095Z" transform="translate(-232.544 -3.541)" fill="#f0110a"/>
        <path id="Path_443" data-name="Path 443" d="M345.267,6.1a1.263,1.263,0,0,0-.157.038C345.219,6.133,345.252,6.114,345.267,6.1Z" transform="translate(-206.692 -3.184)" fill="#f0110a"/>
        <path id="Path_444" data-name="Path 444" d="M334.565,6.55c.365-.033.038-.066-.138-.1C334.418,6.478,334.427,6.512,334.565,6.55Z" transform="translate(-200.305 -3.368)" fill="#f0110a"/>
        <path id="Path_445" data-name="Path 445" d="M414.369,6.617c.1-.024.128-.038.114-.057C414.407,6.569,414.359,6.588,414.369,6.617Z" transform="translate(-248.171 -3.425)" fill="#f0110a"/>
        <path id="Path_446" data-name="Path 446" d="M483.548,9.028,483.42,9S483.491,9.019,483.548,9.028Z" transform="translate(-295.72 -4.708)" fill="#f0110a"/>
        <path id="Path_447" data-name="Path 447" d="M479.1,8.426a1.893,1.893,0,0,0,.37,0C479.38,8.421,479.266,8.421,479.1,8.426Z" transform="translate(-298.951 -4.404)" fill="#f0110a"/>
        <path id="Path_448" data-name="Path 448" d="M397.466,6.29a1.337,1.337,0,0,0-.346.038A1.175,1.175,0,0,0,397.466,6.29Z" transform="translate(-237.865 -3.283)" fill="#f0110a"/>
        <path id="Path_449" data-name="Path 449" d="M477.785,8.418l-.455-.038a.06.06,0,0,0-.009.028l.465.009Z" transform="translate(-298.116 -4.382)" fill="#f0110a"/>
        <path id="Path_450" data-name="Path 450" d="M484.264,9.1c-.18-.014-.422-.024-.574-.043A1.936,1.936,0,0,0,484.264,9.1Z" transform="translate(-295.862 -4.74)" fill="#f0110a"/>
        <path id="Path_451" data-name="Path 451" d="M439.716,6.94h-.047C439.308,6.992,439.535,6.973,439.716,6.94Z" transform="translate(-263.225 -3.625)" fill="#f0110a"/>
        <path id="Path_452" data-name="Path 452" d="M473.854,8.749l-.062-.009-.133.033.194-.024Z" transform="translate(-296.448 -4.571)" fill="#f0110a"/>
        <path id="Path_453" data-name="Path 453" d="M488.808,9.46a1.1,1.1,0,0,0-.228.014l.261.028c-.024-.019-.028-.033-.028-.043Z" transform="translate(-298.433 -4.95)" fill="#f0110a"/>
        <path id="Path_454" data-name="Path 454" d="M454.407,7.7c.133-.047.18-.081.185-.109C454.44,7.59,454.34,7.609,454.407,7.7Z" transform="translate(-272.151 -3.967)" fill="#f0110a"/>
      </g>
    </g>
  </g>
</svg>
