<svg id="Component_15_1" data-name="Component 15 – 1" xmlns="http://www.w3.org/2000/svg" width="160.526" height="463.433" viewBox="0 0 160.526 463.433">
  <g id="Layer_1" data-name="Layer 1" transform="translate(-0.022 0.021)">
    <path id="Path_458" data-name="Path 458" d="M145.209,220.08c-.644.709-1.418,1.225-1.418,1.74-.064,9.8,0,19.528,0,29.453-4,3.351-8.056,6.638-12.5,10.312-1.16-.9-2.449-2-3.931-3.094-3.867,2.191-2.578,9.087-8.507,9.6,1.1,5.156,3.351,9.861,3.158,15.145-.193,5.414,0,10.827-.064,16.241a20.307,20.307,0,0,0,4.125,12.89c3.8,4.769,5.285,10.505,6.38,15.854,1.225,5.929,2.127,12.052,3.674,17.917a105.3,105.3,0,0,0,5.156,14.05c3.48,8.378,4.447,17.594,8.378,25.908.9,1.869.322,4.576.064,6.9-.193,1.611-1.611,3.287-1.353,4.769.516,2.771,2.127,5.285,2.771,8.056.516,2.385,2.642,4.447,1.676,7.025-1.1,2.9-2.514,5.671-4.06,9.216,3.029,4.834,6.574,10.505,9.732,15.468.709,4.64,1.353,8.507,2.062,13.083-4.64,6.638-12.181,5.414-19.012,5.543-2.771-1.8-5.414-3.48-8.765-5.607-.9-3.609-2-8.056-3.158-12.7h-3.351c-2.191-2.127-4-3.931-5.8-5.671v-6.058c-4.576-4.9-6.445-10.763-7.734-17.079-2.642-12.761-4.576-25.65-8.443-38.218-2.9-9.345-6.058-18.626-8.572-28.164a197.01,197.01,0,0,1-4.7-20.495,102.915,102.915,0,0,0-7.669-26.1c-2.32-5.091-3.351-10.505-4.64-15.854-1.16-4.834-.773-10.376-5.349-14.243-.644,2-1.289,3.867-2.127,6.316,2.449,3.931,2.062,8.829.838,13.276-1.1,4-1.418,7.6,0,11.536a14.12,14.12,0,0,1,.58,4.383c.064,4.64-.516,9.345.129,13.921,2.9,21.912.773,43.889,1.547,65.8.064,2.642,1.1,5.22,1.418,7.863.258,2.127-.387,4.382,1.353,6.187-2.32,1.74-1.225,4.254-1.225,6.445,0,4.125-.9,8.378,1.031,12.31C74.252,417.743,76.7,422,75.67,425.67c-2.32,2.449-4.64,4.9-7.154,7.476-1.547-.451-3.094-.9-4.963-1.418-.967,1.547-2.9,3.287-3.094,5.285-.709,6.638-4.834,9.732-10.505,11.665-.451.129-.709.709-1.1,1.1q-14.372.322-19.463-10.7c2.642-8.121,8.378-14.243,13.921-21.139.773-1.933-1.031-4.834,1.289-7.412.9-1.031.9-3.8.193-5.156-2.062-3.867-1.225-7.863-1.418-11.794-.064-1.8-1.1-3.351-1.353-4.834-1.225-6.445-3.416-12.761-3.416-19.528s-2.32-13.728-1.1-20.172c1.547-8.121.387-16.177,1.289-24.1.387-3.416-1.547-6.251-1.611-9.409a20.934,20.934,0,0,0-1.547-8.636,21.24,21.24,0,0,1-1.8-7.8c-.064-2.578-1.353-5.091-1.547-7.863-.258-3.222-1.676-6.38-2.513-9.281-5.671-.838-10.505-1.611-15.6-2.385-1.16,9.087,1.869,16.95,3.545,25.07,1.547,7.412,4.834,14.5,3.674,23.2-1.353.451-3.158,1.418-4.963,1.418-1.482,0-2.965-1.225-4.9-2.127,4-5.349,0-10.312.773-15.274-2.771-2.449-1.225-5.736-1.482-8.636-.644-6.7-.644-13.534-1.8-20.172-.451-2.32-1.547-4.7-1.289-7.154a26.042,26.042,0,0,0-6.187-19.915v-6.509c1.225-.838,2.642-1.74,4.7-3.158-.322-1.933-.773-4.511-1.289-7.476.193-.258.709-1.1,1.353-2.127-1.74-4-3.351-8.249-5.478-12.245-1.225-2.256-.9-4.189-.193-7.412,2.385,4.382,4.254,7.927,6.38,11.987.838-6.96,8.829-3.738,11.536-9.281-.258-.9-.709-2.449-1.225-4.382.516-.516,1.418-1.353,1.8-1.8.322-2.9,1.482-5.671.644-7.476-1.1-2.32.258-3.867.193-5.8-.129-3.094,2.256-3.48,4.511-4.383v-5.027c-2.385-1.225-4.7-2.385-6.9-3.48-1.418-3.867-1.16-7.476.967-10.183,2.836-3.609.451-7.476,2-10.827.967-2.578,2-5.22,3.158-8.378H14.637c-.709-1.353-1.225-2.385-1.74-3.48-4-8.7-7.283-17.466-6.9-27.326q.387-9.667,0-19.335C5.743,100.334,7.87,93.5,11.221,86.8a11.366,11.366,0,0,1,8.056-6.445c6.38-1.676,12.7-3.738,16.821-9.152,5.156-.838,8.378-3.931,8.507-8.7,0-2.385.838-4.834-.967-7.347-1.1-1.547-.516-4.382-.773-7.218a5.908,5.908,0,0,1-1.1.709l-4.06-3.867c-1.547-2.578,1.031-6.445-3.609-9.538,2-1.16,3.351-1.933,4.318-2.513,0-4.382.322-7.992-.064-11.536-.451-3.674,1.225-6.832,2.256-9.925a11.245,11.245,0,0,1,6.123-6.832C52.146,1.793,57.366-.463,63.424.052c2.771,1.482,5.543,2.9,8.765,4.576h5.929C79.6,6.175,81.534,7.593,82.63,9.591c1.16,2,3.48,4.382,2.127,6.7-2.642,4.511.193,9.861-3.287,13.921,1.482.58,2.385.9,3.222,1.289.644,5.671.387,11.15-2.062,16.5l-1.74-1.74c-1.418,3.867-2.771,7.54-3.931,10.7,1.482,4.318,4.769,3.094,7.089,3.48,1.482,2.385,2.9,4.576,5.091,8.121,6.638,2.127,14.436,5.285,22.493,7.089,7.218,1.676,9.925,6.96,11.6,12.632,1.031,3.609,2.707,7.476,1.933,11.665-.258,1.289,1.031,2.707,1.031,4.125,0,3.48-.129,6.9-.387,10.376a16.354,16.354,0,0,1-.773,2.771,2.127,2.127,0,0,0,0,1.547c3.158,4.447.064,9.861,2.385,14.5.644,1.225,1.16,3.287.58,4.254-2.127,3.738-1.031,8.185-2.9,11.987a22.305,22.305,0,0,0-1.611,6.251c-.644,4.06-3.674,6.316-6.251,9.023v12.374a21.283,21.283,0,0,0-6.187,7.347c.58,2.256,1.16,4.511,1.869,7.089-2.449.129-4.189.258-6.509.387a7.367,7.367,0,0,1,1.031,1.676c.967,3.8.773,5.156-1.031,9.152.644,1.289,1.289,2.513,2.191,4.189a5.116,5.116,0,0,0,1.676.193c4.125-.644,8.249-1.353,11.987-1.933l4.06,4.06V215.5l2.578,2.578a72.894,72.894,0,0,1,8.378.064,60.409,60.409,0,0,1,7.927,1.933Z" transform="translate(0 0)" fill="#2c4298"/>
  </g>
  <ellipse id="Ellipse_92" data-name="Ellipse 92" cx="75.5" cy="22" rx="75.5" ry="22" transform="translate(9.526 419.433)" fill="#2c4298" opacity="0.2"/>
</svg>
