<svg xmlns="http://www.w3.org/2000/svg" width="736.841" height="220.658" viewBox="0 0 736.841 220.658">
  <g id="Group_743" data-name="Group 743" transform="translate(-524.554 -10103.619)">
    <g id="Group_740" data-name="Group 740" transform="translate(-2372.459 420.568) rotate(-13)">
      <path id="Path_462" data-name="Path 462" d="M10.33-26.119,7.391-29.059l-.5-2.268,1.428-2.268,1.848-.672q2.771.168,62.9-1.764h1.848l1.6.672a31.252,31.252,0,0,1,1.428,5.207l-.924,2.184a14.118,14.118,0,0,1-4.871.924ZM134.459,8.23a18.371,18.371,0,0,1-2.52-9.49l.252-.924-.252-1.092q.252-3.275.924-7.307l-.42-4.535h-1.176a4.405,4.405,0,0,1-2.436.84,7.077,7.077,0,0,1-1.176-.168l-1.848-.672-.672-.924h-.924l-.42-3.191.672-.84a81.861,81.861,0,0,1,5.837-6.551q3.233-3.275,3.989-4.115l2.184-2.1q1.176-1.512,3.863-5.627l-1.6-.252-8.4.672q-.84-.336-3.191-1.6a2.947,2.947,0,0,1-1.176-2.436,3.986,3.986,0,0,1,.084-.924l.672-1.6,8.9-2.268,1.092.168a20.515,20.515,0,0,0,.672-4.283l-.42-1.764-1.176-.252a9.714,9.714,0,0,1-6.131-1.344,4.36,4.36,0,0,1-1.344-3.191l.672-1.6,2.939-1.176,5.963-.84a35.2,35.2,0,0,1,2.436-9.322,18.673,18.673,0,0,1,3.443-.924l1.6.924a10.373,10.373,0,0,1,1.932,6.215l-.084,1.26-.252.924a1.86,1.86,0,0,0,2.016.672l5.711-.252,3.191,1.6.924.672.672-.672a9.68,9.68,0,0,1,1.6-3.611A4.662,4.662,0,0,1,164.525-65l2.268.84,1.344,3.7a41.488,41.488,0,0,1-3.443,7.727l-1.6.672q-1.512,3.023-2.436,4.535h5.207l.924-.252,2.268.42.924-.168a2.887,2.887,0,0,1,2.436,1.092l1.176,2.771-.42,1.344a14.445,14.445,0,0,1-8.23,2.688l-1.344-.168a44.329,44.329,0,0,0-7.055.84,6.816,6.816,0,0,0-6.131,2.771l-2.52,3.611-.672.924A55,55,0,0,1,159.57-33.09q1.764,0,2.6.084a7.676,7.676,0,0,0,3.191,1.512l.924,3.863a16.025,16.025,0,0,0-2.016,5.963l-.084,6.383.084,6.3L164.021-.84a10.1,10.1,0,0,1,.168,1.512,6.385,6.385,0,0,1-1.092,3.7l-1.092.5-2.52,1.344-1.6-.252a43.5,43.5,0,0,1-10.078,1.176,15.282,15.282,0,0,0-9.49,3.191ZM103.721,4.367a64.694,64.694,0,0,1-1.89-8.1q-.714-4.241-1.3-10.036l.252-1.344q-.672-4.115-.924-7.475l.5-2.016-1.176-.924-7.307,1.764-3.611-1.6-.924-3.107q2.184-2.939,5.039-6.383a42.163,42.163,0,0,0,4.535-7.727l-6.131-4.535a7.374,7.374,0,0,1-2.939-5.459l.672-1.764a57.989,57.989,0,0,0,11.17-14.529l3.863-1.176L106.24-68.7a6.889,6.889,0,0,1,1.6,3.7q-1.848,2.436-3.611,4.619a14.927,14.927,0,0,1-.924,1.26q-.42.5-.672.84a44.741,44.741,0,0,0-4.787,7.055l2.939,2.771,1.6.252,6.8-6.887,1.848-.42,3.443,1.176.672,2.688a59.777,59.777,0,0,1-3.191,5.711A60.985,60.985,0,0,0,102.8-35.525l.756.672,7.895-1.176.252-2.016-.252-1.764a1.779,1.779,0,0,1,1.428-1.848l2.268-.672a7.445,7.445,0,0,1,5.207,3.191l1.344,2.016a6.031,6.031,0,0,1,2.771,2.268l.42,2.016,1.344.672a9.311,9.311,0,0,1,1.848,4.115,6.383,6.383,0,0,1-3.359,2.939,59.773,59.773,0,0,0-10.078-4.283L111.279-28.3l-1.848.672-.42,2.771.42,2.52L110.355-21a9.981,9.981,0,0,1,5.459,1.344,50.989,50.989,0,0,1,5.207,9.49l.924.756a4.7,4.7,0,0,1,1.932,3.863l-.084.84-.5.924-2.687.672h-1.428a14.093,14.093,0,0,1-6.3-3.359l-2.268-2.52v3.191a71.6,71.6,0,0,1,2.016,9.742l-.672,1.848a22.743,22.743,0,0,1-3.443,1.092A7.621,7.621,0,0,1,103.721,4.367Zm44.428-51.734,5.627-6.971-3.191.084-3.191-.084a4.567,4.567,0,0,0-1.008,2.939,10.3,10.3,0,0,0,.168,1.344v2.016l.168,1.176ZM154.279-23.1l-1.176-.84-10.918,2.688-.672,2.52a46.44,46.44,0,0,0,6.047.42,29.393,29.393,0,0,1,6.047.672A21.133,21.133,0,0,0,154.279-23.1ZM92.635,3.947a9.15,9.15,0,0,1-4.367-2.52,14.206,14.206,0,0,1-1.092-4.7,16.7,16.7,0,0,0,.084-1.932,15.422,15.422,0,0,0-.084-1.932,11.72,11.72,0,0,1,2.436-7.307,5.006,5.006,0,0,1,3.443-.672l1.344.672,1.344,2.52V-1.008l.252.84a4,4,0,0,1-.924,2.52l-1.764.924Zm61.393-6.383a18.679,18.679,0,0,0,.252-4.7l-.5-2.268-2.268-.756-1.092.252a57.941,57.941,0,0,0-8.65-.672l-.5,9.574,1.176.42,11.338-.924Zm33.09,1.6-2.52-6.3q-1.848-6.215-2.729-10.5a88.686,88.686,0,0,1-1.386-10.414q0-14.109,1.848-22.088a53.289,53.289,0,0,1,2.016-6.887,5.211,5.211,0,0,1,3.863-1.008l1.68.756a5.223,5.223,0,0,1,1.932,3.359q-.588,4.535-1.512,8.9-.84,4.283-1.008,15.537l.168,2.016a79.4,79.4,0,0,0,1.554,10.75,20.442,20.442,0,0,0,3.905,7.895l1.428.42a14.547,14.547,0,0,1,1.008,5.291,17.177,17.177,0,0,1-.336,2.855l-.42,1.176A5.4,5.4,0,0,1,192.66,2.6,13.778,13.778,0,0,1,187.117-.84ZM211.3-47.871l-.5-1.428,1.008-2.184a74.306,74.306,0,0,1,11.674-3.653A80.153,80.153,0,0,1,236-57.025a2.356,2.356,0,0,0,1.848,1.092,2.763,2.763,0,0,0,.84-.168l1.68,3.359.336,2.268a6.607,6.607,0,0,1-4.031,2.184l-2.436-.252A111.589,111.589,0,0,0,216.26-44.6Zm8.146,45.184A16.365,16.365,0,0,1,212.9-9.07a17.786,17.786,0,0,1-3.359-7.307l.924-.5a7.066,7.066,0,0,1,3.191-1.512,11.362,11.362,0,0,1,4.535,4.367,71.461,71.461,0,0,0,5.627,4.535,12.335,12.335,0,0,0,5.459,1.008,17.7,17.7,0,0,0,2.016-.084A67.056,67.056,0,0,0,238.432-11l1.26-.5,4.619,1.68.756,2.184A6.6,6.6,0,0,1,240.7-2.52a50.191,50.191,0,0,1-5.753,1.6,32.22,32.22,0,0,1-6.257.5Q227.01-.42,226-.5,223.818-1.176,219.451-2.687Zm66.264,5.543a4.231,4.231,0,0,1-.924-2.687l.672-1.6A15.592,15.592,0,0,1,291.594-3.7a4.266,4.266,0,0,0,1.092-2.687,4.721,4.721,0,0,0-.168-1.092l-1.6-.672L290-7.979h-1.764a8.363,8.363,0,0,1-4.871-1.512,4.4,4.4,0,0,1-.84-3.443l2.016-2.016q3.023-.756,7.055-1.344v-2.016a6.621,6.621,0,0,1-4.787-1.344l-1.6-1.848-.672-1.512a18.669,18.669,0,0,1-4.115-4.535,31.294,31.294,0,0,1-.672-8.566,12.488,12.488,0,0,1,2.016-5.375,20.314,20.314,0,0,1,6.467-2.939l.924.252,2.436-.672.756-2.016-.756-.924a37.865,37.865,0,0,1-7.727.924l-1.848-.672-2.771-1.176a4.681,4.681,0,0,1-.672-3.107l2.268-1.6a75.415,75.415,0,0,1,10.75-2.687l.924-3.611-1.344-.5-1.344.252-4.115-.42-.924-.5-1.428-1.344L283.2-64.92l.672-.672,4.115-.924a20.62,20.62,0,0,0,5.963.5,14.712,14.712,0,0,1,3.191-.42,13.888,13.888,0,0,1,1.848.168l.924-.252a7.376,7.376,0,0,0,3.611.924l2.52.42a3.71,3.71,0,0,1,.672,2.939L304.7-60.217h-.924l-3.7-.672q-.252,1.26-.924,3.443l.756,2.184q4.115,0,12.346-.168l1.092-.672,1.428,1.092a9.311,9.311,0,0,1,4.115,1.848l1.344,1.512-2.771,4.115a31.312,31.312,0,0,1-5.039-.756l-1.344.5q-.84-.084-2.6-.084A20.317,20.317,0,0,0,301-46.7l-.252.924.756,1.6,2.939.42,5.711-.42a7.61,7.61,0,0,1,4.787,2.688l.252,2.436A38.616,38.616,0,0,0,312-28.639a63.15,63.15,0,0,1,12.094-2.52,13.429,13.429,0,0,0,.924-4.955l-.252-1.344.5-1.092,1.344-7.475,2.771-.42a5.735,5.735,0,0,1,5.459,2.688l.5,2.688a40.439,40.439,0,0,0-.756,8.818,16.179,16.179,0,0,0,6.131,1.092,13.334,13.334,0,0,1,6.047,1.344l1.344,1.344,1.6.5,1.428,2.436a42.375,42.375,0,0,0-1.848,9.49l.252,1.092q-1.764,5.879-2.855,9.028A36.616,36.616,0,0,1,343.748.42,9.514,9.514,0,0,1,339.3,1.512a10.464,10.464,0,0,1-2.184-.252l-2.939-2.687V-3.443a31.072,31.072,0,0,0,5.711-13.521l-.252-1.344a42.982,42.982,0,0,0,.756-5.207,10.15,10.15,0,0,0-4.031-.756,13.571,13.571,0,0,0-1.764.084l-1.092.5q-1.26,3.443-3.443,10.33A31.2,31.2,0,0,1,325.02-3.7L320.9-1.68l-1.344-.42-.924.252-2.1-.672-.924-2.52a32.987,32.987,0,0,0,3.443-6.887q1.26-3.527,3.023-9.742a3.224,3.224,0,0,0-2.352-.5l-1.6.252a16.632,16.632,0,0,1-5.459-1.344L311.5-24.355l-.42-2.268-1.68,2.352L306.963-21A13.718,13.718,0,0,1,301.5-18.98l-.252.924,3.191.168,1.848-.168a17.765,17.765,0,0,1,3.863,1.344l.924,1.764-.672,2.688q-4.031,1.092-9.154,2.939L301-7.979l.252.924L301-6.131l2.771.84,1.6-.42h1.6l2.52,1.344.252,2.016a2.233,2.233,0,0,0-.756,2.016A44.962,44.962,0,0,1,290,4.871,13.026,13.026,0,0,1,285.715,2.855ZM270.6,6.047,268.75,4.619a17.44,17.44,0,0,1-2.52-10.33q-.252-2.52-.672-4.955l.252-1.344-.252-.924.252-1.344a40.865,40.865,0,0,1-.5-6.383,55.047,55.047,0,0,0-.42-6.467,11.53,11.53,0,0,1-.336-2.268,9.44,9.44,0,0,1,.336-2.184h-.924l-.924.924a1.316,1.316,0,0,1-1.176,1.512l-.84,1.176h-1.176l-.924-.672-.924.672a8.929,8.929,0,0,1-2.939-4.787,298.1,298.1,0,0,1,17.553-28.807,4.814,4.814,0,0,1,2.184-.5,2.947,2.947,0,0,1,.84.084l2.771,1.344.42,2.52q-1.176,2.6-3.023,6.215-1.764,3.191-3.191,6.383a27.584,27.584,0,0,1,1.68,9.658l-.5,1.764.672,3.443a37.229,37.229,0,0,0-.5,6.131,21.259,21.259,0,0,0,.084,2.184q.42,3.947.924,11.674l-.252.924,1.176,6.3a26.282,26.282,0,0,1,.84,6.551l-1.764,2.688-1.428.252-.924-.252Zm18.98-41.236h2.016l.756-1.344-1.176-.42L288.4-35.861Zm12.766-.672-.84-1.092-.252,1.512Zm91.039-8.482-.252-1.092q-3.107-3.359-23.432-6.3-1.512.168-2.1.168a9.768,9.768,0,0,1-4.7-1.176,4.214,4.214,0,0,1-1.6-3.359l1.764-1.68,6.383-1.68q14.613.84,19.484,2.352a49.569,49.569,0,0,1,9.238,4.115l2.352,1.6,2.436,2.1.336,2.184a3.192,3.192,0,0,1-1.344,2.52,19.214,19.214,0,0,1-4.787,1.512ZM367.852-3.359l-2.016-1.764L362.9-7.559a26.9,26.9,0,0,1-5.375-12.514l1.6-1.68a3.5,3.5,0,0,1,2.436-1.344,3.033,3.033,0,0,1,1.764.672h1.512l1.512,1.68a27.861,27.861,0,0,0,6.131,10.33,15.5,15.5,0,0,0,5.459,2.855,31.344,31.344,0,0,0,7.979.84,59.363,59.363,0,0,0,6.383-.336q5.459-1.6,10.5-2.771l1.764.84,1.176,1.512q-1.26,3.107-2.771,4.031a43.815,43.815,0,0,1-6.8,2.478A58.841,58.841,0,0,1,387.672.588a37.354,37.354,0,0,1-4.283.252,27.955,27.955,0,0,1-5.963-.588A21.121,21.121,0,0,1,367.852-3.359Zm79.869-50.727-2.1-2.184-.756-2.352,1.512-1.092.924-.756,2.1.168,36.7-2.771a14.794,14.794,0,0,1,4.535,1.932l1.008,3.947-2.184,2.268-1.176-.084q-3.611.588-38.129,2.268ZM459.814,2.52l1.932-2.771.756-1.26q4.451-1.344,8.356-6.131a31.227,31.227,0,0,0,5.753-11.086,19.767,19.767,0,0,0,1.176-6.551,18.885,18.885,0,0,0-.756-5.291,11.23,11.23,0,0,0-7.895-4.535,74.8,74.8,0,0,0-11.758,3.443,10.946,10.946,0,0,1-6.887,2.855l-3.611-2.771-.168-1.6,3.443-2.939a45.823,45.823,0,0,1,5.963-3.233,82.919,82.919,0,0,1,9.658-3.149,30.454,30.454,0,0,1,7.559.588,14.938,14.938,0,0,1,9.49,6.551,20.289,20.289,0,0,1,3.107,11A35.293,35.293,0,0,1,484-12.556a35.394,35.394,0,0,1-4.955,9.112q-2.771,3.7-9.49,8.566a18.827,18.827,0,0,1-4.031.5,6.516,6.516,0,0,1-3.947-1.008Zm94.65-18.9-.5-.924-2.268-.42a15.826,15.826,0,0,1-1.008-4.619q-.168-2.436-.168-6.719v-4.283l.252-9.322.5-11.506a26.227,26.227,0,0,1,2.268-10.162l1.092-.5,3.7-.168,2.52,2.016q-.336,7.139-.588,10.918-.336,4.619-.336,10.33,0,2.688.252,5.627a3.429,3.429,0,0,0-.672,2.771,26.608,26.608,0,0,1,.336,4.367,24,24,0,0,1-2.855,11.422Zm.924,25.111-4.619-1.6a11.893,11.893,0,0,1-3.863-9.07l1.344-3.611a8.127,8.127,0,0,1,4.787-1.764A10.133,10.133,0,0,1,559-5.543l.672,2.268L561.1.168V3.107l-1.848,5.207h-2.52Z" transform="translate(698 10302)" fill="#f0110a" stroke="#fff" stroke-width="3"/>
      <path id="Path_461" data-name="Path 461" d="M10.33-26.119,7.391-29.059l-.5-2.268,1.428-2.268,1.848-.672q2.771.168,62.9-1.764h1.848l1.6.672a31.252,31.252,0,0,1,1.428,5.207l-.924,2.184a14.118,14.118,0,0,1-4.871.924ZM134.459,8.23a18.371,18.371,0,0,1-2.52-9.49l.252-.924-.252-1.092q.252-3.275.924-7.307l-.42-4.535h-1.176a4.405,4.405,0,0,1-2.436.84,7.077,7.077,0,0,1-1.176-.168l-1.848-.672-.672-.924h-.924l-.42-3.191.672-.84a81.861,81.861,0,0,1,5.837-6.551q3.233-3.275,3.989-4.115l2.184-2.1q1.176-1.512,3.863-5.627l-1.6-.252-8.4.672q-.84-.336-3.191-1.6a2.947,2.947,0,0,1-1.176-2.436,3.986,3.986,0,0,1,.084-.924l.672-1.6,8.9-2.268,1.092.168a20.515,20.515,0,0,0,.672-4.283l-.42-1.764-1.176-.252a9.714,9.714,0,0,1-6.131-1.344,4.36,4.36,0,0,1-1.344-3.191l.672-1.6,2.939-1.176,5.963-.84a35.2,35.2,0,0,1,2.436-9.322,18.673,18.673,0,0,1,3.443-.924l1.6.924a10.373,10.373,0,0,1,1.932,6.215l-.084,1.26-.252.924a1.86,1.86,0,0,0,2.016.672l5.711-.252,3.191,1.6.924.672.672-.672a9.68,9.68,0,0,1,1.6-3.611A4.662,4.662,0,0,1,164.525-65l2.268.84,1.344,3.7a41.488,41.488,0,0,1-3.443,7.727l-1.6.672q-1.512,3.023-2.436,4.535h5.207l.924-.252,2.268.42.924-.168a2.887,2.887,0,0,1,2.436,1.092l1.176,2.771-.42,1.344a14.445,14.445,0,0,1-8.23,2.688l-1.344-.168a44.329,44.329,0,0,0-7.055.84,6.816,6.816,0,0,0-6.131,2.771l-2.52,3.611-.672.924A55,55,0,0,1,159.57-33.09q1.764,0,2.6.084a7.676,7.676,0,0,0,3.191,1.512l.924,3.863a16.025,16.025,0,0,0-2.016,5.963l-.084,6.383.084,6.3L164.021-.84a10.1,10.1,0,0,1,.168,1.512,6.385,6.385,0,0,1-1.092,3.7l-1.092.5-2.52,1.344-1.6-.252a43.5,43.5,0,0,1-10.078,1.176,15.282,15.282,0,0,0-9.49,3.191ZM103.721,4.367a64.694,64.694,0,0,1-1.89-8.1q-.714-4.241-1.3-10.036l.252-1.344q-.672-4.115-.924-7.475l.5-2.016-1.176-.924-7.307,1.764-3.611-1.6-.924-3.107q2.184-2.939,5.039-6.383a42.163,42.163,0,0,0,4.535-7.727l-6.131-4.535a7.374,7.374,0,0,1-2.939-5.459l.672-1.764a57.989,57.989,0,0,0,11.17-14.529l3.863-1.176L106.24-68.7a6.889,6.889,0,0,1,1.6,3.7q-1.848,2.436-3.611,4.619a14.927,14.927,0,0,1-.924,1.26q-.42.5-.672.84a44.741,44.741,0,0,0-4.787,7.055l2.939,2.771,1.6.252,6.8-6.887,1.848-.42,3.443,1.176.672,2.688a59.777,59.777,0,0,1-3.191,5.711A60.985,60.985,0,0,0,102.8-35.525l.756.672,7.895-1.176.252-2.016-.252-1.764a1.779,1.779,0,0,1,1.428-1.848l2.268-.672a7.445,7.445,0,0,1,5.207,3.191l1.344,2.016a6.031,6.031,0,0,1,2.771,2.268l.42,2.016,1.344.672a9.311,9.311,0,0,1,1.848,4.115,6.383,6.383,0,0,1-3.359,2.939,59.773,59.773,0,0,0-10.078-4.283L111.279-28.3l-1.848.672-.42,2.771.42,2.52L110.355-21a9.981,9.981,0,0,1,5.459,1.344,50.989,50.989,0,0,1,5.207,9.49l.924.756a4.7,4.7,0,0,1,1.932,3.863l-.084.84-.5.924-2.687.672h-1.428a14.093,14.093,0,0,1-6.3-3.359l-2.268-2.52v3.191a71.6,71.6,0,0,1,2.016,9.742l-.672,1.848a22.743,22.743,0,0,1-3.443,1.092A7.621,7.621,0,0,1,103.721,4.367Zm44.428-51.734,5.627-6.971-3.191.084-3.191-.084a4.567,4.567,0,0,0-1.008,2.939,10.3,10.3,0,0,0,.168,1.344v2.016l.168,1.176ZM154.279-23.1l-1.176-.84-10.918,2.688-.672,2.52a46.44,46.44,0,0,0,6.047.42,29.393,29.393,0,0,1,6.047.672A21.133,21.133,0,0,0,154.279-23.1ZM92.635,3.947a9.15,9.15,0,0,1-4.367-2.52,14.206,14.206,0,0,1-1.092-4.7,16.7,16.7,0,0,0,.084-1.932,15.422,15.422,0,0,0-.084-1.932,11.72,11.72,0,0,1,2.436-7.307,5.006,5.006,0,0,1,3.443-.672l1.344.672,1.344,2.52V-1.008l.252.84a4,4,0,0,1-.924,2.52l-1.764.924Zm61.393-6.383a18.679,18.679,0,0,0,.252-4.7l-.5-2.268-2.268-.756-1.092.252a57.941,57.941,0,0,0-8.65-.672l-.5,9.574,1.176.42,11.338-.924Zm33.09,1.6-2.52-6.3q-1.848-6.215-2.729-10.5a88.686,88.686,0,0,1-1.386-10.414q0-14.109,1.848-22.088a53.289,53.289,0,0,1,2.016-6.887,5.211,5.211,0,0,1,3.863-1.008l1.68.756a5.223,5.223,0,0,1,1.932,3.359q-.588,4.535-1.512,8.9-.84,4.283-1.008,15.537l.168,2.016a79.4,79.4,0,0,0,1.554,10.75,20.442,20.442,0,0,0,3.905,7.895l1.428.42a14.547,14.547,0,0,1,1.008,5.291,17.177,17.177,0,0,1-.336,2.855l-.42,1.176A5.4,5.4,0,0,1,192.66,2.6,13.778,13.778,0,0,1,187.117-.84ZM211.3-47.871l-.5-1.428,1.008-2.184a74.306,74.306,0,0,1,11.674-3.653A80.153,80.153,0,0,1,236-57.025a2.356,2.356,0,0,0,1.848,1.092,2.763,2.763,0,0,0,.84-.168l1.68,3.359.336,2.268a6.607,6.607,0,0,1-4.031,2.184l-2.436-.252A111.589,111.589,0,0,0,216.26-44.6Zm8.146,45.184A16.365,16.365,0,0,1,212.9-9.07a17.786,17.786,0,0,1-3.359-7.307l.924-.5a7.066,7.066,0,0,1,3.191-1.512,11.362,11.362,0,0,1,4.535,4.367,71.461,71.461,0,0,0,5.627,4.535,12.335,12.335,0,0,0,5.459,1.008,17.7,17.7,0,0,0,2.016-.084A67.056,67.056,0,0,0,238.432-11l1.26-.5,4.619,1.68.756,2.184A6.6,6.6,0,0,1,240.7-2.52a50.191,50.191,0,0,1-5.753,1.6,32.22,32.22,0,0,1-6.257.5Q227.01-.42,226-.5,223.818-1.176,219.451-2.687Zm66.264,5.543a4.231,4.231,0,0,1-.924-2.687l.672-1.6A15.592,15.592,0,0,1,291.594-3.7a4.266,4.266,0,0,0,1.092-2.687,4.721,4.721,0,0,0-.168-1.092l-1.6-.672L290-7.979h-1.764a8.363,8.363,0,0,1-4.871-1.512,4.4,4.4,0,0,1-.84-3.443l2.016-2.016q3.023-.756,7.055-1.344v-2.016a6.621,6.621,0,0,1-4.787-1.344l-1.6-1.848-.672-1.512a18.669,18.669,0,0,1-4.115-4.535,31.294,31.294,0,0,1-.672-8.566,12.488,12.488,0,0,1,2.016-5.375,20.314,20.314,0,0,1,6.467-2.939l.924.252,2.436-.672.756-2.016-.756-.924a37.865,37.865,0,0,1-7.727.924l-1.848-.672-2.771-1.176a4.681,4.681,0,0,1-.672-3.107l2.268-1.6a75.415,75.415,0,0,1,10.75-2.687l.924-3.611-1.344-.5-1.344.252-4.115-.42-.924-.5-1.428-1.344L283.2-64.92l.672-.672,4.115-.924a20.62,20.62,0,0,0,5.963.5,14.712,14.712,0,0,1,3.191-.42,13.888,13.888,0,0,1,1.848.168l.924-.252a7.376,7.376,0,0,0,3.611.924l2.52.42a3.71,3.71,0,0,1,.672,2.939L304.7-60.217h-.924l-3.7-.672q-.252,1.26-.924,3.443l.756,2.184q4.115,0,12.346-.168l1.092-.672,1.428,1.092a9.311,9.311,0,0,1,4.115,1.848l1.344,1.512-2.771,4.115a31.312,31.312,0,0,1-5.039-.756l-1.344.5q-.84-.084-2.6-.084A20.317,20.317,0,0,0,301-46.7l-.252.924.756,1.6,2.939.42,5.711-.42a7.61,7.61,0,0,1,4.787,2.688l.252,2.436A38.616,38.616,0,0,0,312-28.639a63.15,63.15,0,0,1,12.094-2.52,13.429,13.429,0,0,0,.924-4.955l-.252-1.344.5-1.092,1.344-7.475,2.771-.42a5.735,5.735,0,0,1,5.459,2.688l.5,2.688a40.439,40.439,0,0,0-.756,8.818,16.179,16.179,0,0,0,6.131,1.092,13.334,13.334,0,0,1,6.047,1.344l1.344,1.344,1.6.5,1.428,2.436a42.375,42.375,0,0,0-1.848,9.49l.252,1.092q-1.764,5.879-2.855,9.028A36.616,36.616,0,0,1,343.748.42,9.514,9.514,0,0,1,339.3,1.512a10.464,10.464,0,0,1-2.184-.252l-2.939-2.687V-3.443a31.072,31.072,0,0,0,5.711-13.521l-.252-1.344a42.982,42.982,0,0,0,.756-5.207,10.15,10.15,0,0,0-4.031-.756,13.571,13.571,0,0,0-1.764.084l-1.092.5q-1.26,3.443-3.443,10.33A31.2,31.2,0,0,1,325.02-3.7L320.9-1.68l-1.344-.42-.924.252-2.1-.672-.924-2.52a32.987,32.987,0,0,0,3.443-6.887q1.26-3.527,3.023-9.742a3.224,3.224,0,0,0-2.352-.5l-1.6.252a16.632,16.632,0,0,1-5.459-1.344L311.5-24.355l-.42-2.268-1.68,2.352L306.963-21A13.718,13.718,0,0,1,301.5-18.98l-.252.924,3.191.168,1.848-.168a17.765,17.765,0,0,1,3.863,1.344l.924,1.764-.672,2.688q-4.031,1.092-9.154,2.939L301-7.979l.252.924L301-6.131l2.771.84,1.6-.42h1.6l2.52,1.344.252,2.016a2.233,2.233,0,0,0-.756,2.016A44.962,44.962,0,0,1,290,4.871,13.026,13.026,0,0,1,285.715,2.855ZM270.6,6.047,268.75,4.619a17.44,17.44,0,0,1-2.52-10.33q-.252-2.52-.672-4.955l.252-1.344-.252-.924.252-1.344a40.865,40.865,0,0,1-.5-6.383,55.047,55.047,0,0,0-.42-6.467,11.53,11.53,0,0,1-.336-2.268,9.44,9.44,0,0,1,.336-2.184h-.924l-.924.924a1.316,1.316,0,0,1-1.176,1.512l-.84,1.176h-1.176l-.924-.672-.924.672a8.929,8.929,0,0,1-2.939-4.787,298.1,298.1,0,0,1,17.553-28.807,4.814,4.814,0,0,1,2.184-.5,2.947,2.947,0,0,1,.84.084l2.771,1.344.42,2.52q-1.176,2.6-3.023,6.215-1.764,3.191-3.191,6.383a27.584,27.584,0,0,1,1.68,9.658l-.5,1.764.672,3.443a37.229,37.229,0,0,0-.5,6.131,21.259,21.259,0,0,0,.084,2.184q.42,3.947.924,11.674l-.252.924,1.176,6.3a26.282,26.282,0,0,1,.84,6.551l-1.764,2.688-1.428.252-.924-.252Zm18.98-41.236h2.016l.756-1.344-1.176-.42L288.4-35.861Zm12.766-.672-.84-1.092-.252,1.512Zm91.039-8.482-.252-1.092q-3.107-3.359-23.432-6.3-1.512.168-2.1.168a9.768,9.768,0,0,1-4.7-1.176,4.214,4.214,0,0,1-1.6-3.359l1.764-1.68,6.383-1.68q14.613.84,19.484,2.352a49.569,49.569,0,0,1,9.238,4.115l2.352,1.6,2.436,2.1.336,2.184a3.192,3.192,0,0,1-1.344,2.52,19.214,19.214,0,0,1-4.787,1.512ZM367.852-3.359l-2.016-1.764L362.9-7.559a26.9,26.9,0,0,1-5.375-12.514l1.6-1.68a3.5,3.5,0,0,1,2.436-1.344,3.033,3.033,0,0,1,1.764.672h1.512l1.512,1.68a27.861,27.861,0,0,0,6.131,10.33,15.5,15.5,0,0,0,5.459,2.855,31.344,31.344,0,0,0,7.979.84,59.363,59.363,0,0,0,6.383-.336q5.459-1.6,10.5-2.771l1.764.84,1.176,1.512q-1.26,3.107-2.771,4.031a43.815,43.815,0,0,1-6.8,2.478A58.841,58.841,0,0,1,387.672.588a37.354,37.354,0,0,1-4.283.252,27.955,27.955,0,0,1-5.963-.588A21.121,21.121,0,0,1,367.852-3.359Zm79.869-50.727-2.1-2.184-.756-2.352,1.512-1.092.924-.756,2.1.168,36.7-2.771a14.794,14.794,0,0,1,4.535,1.932l1.008,3.947-2.184,2.268-1.176-.084q-3.611.588-38.129,2.268ZM459.814,2.52l1.932-2.771.756-1.26q4.451-1.344,8.356-6.131a31.227,31.227,0,0,0,5.753-11.086,19.767,19.767,0,0,0,1.176-6.551,18.885,18.885,0,0,0-.756-5.291,11.23,11.23,0,0,0-7.895-4.535,74.8,74.8,0,0,0-11.758,3.443,10.946,10.946,0,0,1-6.887,2.855l-3.611-2.771-.168-1.6,3.443-2.939a45.823,45.823,0,0,1,5.963-3.233,82.919,82.919,0,0,1,9.658-3.149,30.454,30.454,0,0,1,7.559.588,14.938,14.938,0,0,1,9.49,6.551,20.289,20.289,0,0,1,3.107,11A35.293,35.293,0,0,1,484-12.556a35.394,35.394,0,0,1-4.955,9.112q-2.771,3.7-9.49,8.566a18.827,18.827,0,0,1-4.031.5,6.516,6.516,0,0,1-3.947-1.008Zm94.65-18.9-.5-.924-2.268-.42a15.826,15.826,0,0,1-1.008-4.619q-.168-2.436-.168-6.719v-4.283l.252-9.322.5-11.506a26.227,26.227,0,0,1,2.268-10.162l1.092-.5,3.7-.168,2.52,2.016q-.336,7.139-.588,10.918-.336,4.619-.336,10.33,0,2.688.252,5.627a3.429,3.429,0,0,0-.672,2.771,26.608,26.608,0,0,1,.336,4.367,24,24,0,0,1-2.855,11.422Zm.924,25.111-4.619-1.6a11.893,11.893,0,0,1-3.863-9.07l1.344-3.611a8.127,8.127,0,0,1,4.787-1.764A10.133,10.133,0,0,1,559-5.543l.672,2.268L561.1.168V3.107l-1.848,5.207h-2.52Z" transform="translate(698 10302)" fill="#f0110a"/>
    </g>
    <g id="Group_741" data-name="Group 741" transform="translate(524.948 10262.028)">
      <line id="Line_164" data-name="Line 164" y1="21.138" x2="77.614" transform="translate(0 20.788)" fill="none" stroke="#f0110a" stroke-miterlimit="10" stroke-width="3"/>
      <line id="Line_165" data-name="Line 165" x2="27.376" y2="9.011" transform="translate(46.082)" fill="none" stroke="#f0110a" stroke-miterlimit="10" stroke-width="3"/>
      <line id="Line_166" data-name="Line 166" x1="42.617" y2="27.026" transform="translate(40.885 33.956)" fill="none" stroke="#f0110a" stroke-miterlimit="10" stroke-width="3"/>
    </g>
    <g id="Group_742" data-name="Group 742" transform="translate(1177.498 10104.886)">
      <line id="Line_167" data-name="Line 167" x1="77.614" y2="21.138" transform="translate(5.889 19.056)" fill="none" stroke="#f0110a" stroke-miterlimit="10" stroke-width="3"/>
      <line id="Line_168" data-name="Line 168" x1="27.376" y1="9.011" transform="translate(10.045 51.971)" fill="none" stroke="#f0110a" stroke-miterlimit="10" stroke-width="3"/>
      <line id="Line_169" data-name="Line 169" y1="27.026" x2="42.617" fill="none" stroke="#f0110a" stroke-miterlimit="10" stroke-width="3"/>
    </g>
  </g>
</svg>
