<svg id="Q" xmlns="http://www.w3.org/2000/svg" width="31" height="31" viewBox="0 0 31 31">
  <circle id="Ellipse_36" data-name="Ellipse 36" cx="15.5" cy="15.5" r="15.5" fill="#0d68ac"/>
  <path id="Path_349" data-name="Path 349" d="M12.979-1.816A9.446,9.446,0,0,0,15.293-.605L14.229,1.436A6.592,6.592,0,0,1,12.949.9Q12.813.83,11.025-.371A7.69,7.69,0,0,1,7.91.244,6.839,6.839,0,0,1,2.739-1.7,7.552,7.552,0,0,1,.869-7.158a7.543,7.543,0,0,1,1.875-5.454,6.731,6.731,0,0,1,5.088-1.948,6.661,6.661,0,0,1,5.049,1.948,7.567,7.567,0,0,1,1.865,5.454A9.422,9.422,0,0,1,14.229-3.9,6.784,6.784,0,0,1,12.979-1.816ZM10.654-3.447a4.323,4.323,0,0,0,.835-1.582,7.418,7.418,0,0,0,.278-2.129,5.426,5.426,0,0,0-1.094-3.706A3.653,3.653,0,0,0,7.813-12.09a3.661,3.661,0,0,0-2.866,1.23,5.412,5.412,0,0,0-1.1,3.7A5.538,5.538,0,0,0,4.946-3.4,3.545,3.545,0,0,0,7.725-2.158a3.391,3.391,0,0,0,1.182-.205,8.361,8.361,0,0,0-1.787-.9l.811-1.65A9.819,9.819,0,0,1,10.654-3.447Z" transform="translate(8 23)" fill="#fff"/>
</svg>
