<svg xmlns="http://www.w3.org/2000/svg" width="280" height="280" viewBox="0 0 280 280">
  <g id="Group_64" data-name="Group 64" transform="translate(-360 -2243)">
    <rect id="Rectangle_6" data-name="Rectangle 6" width="280" height="280" rx="20" transform="translate(360 2243)" fill="#fff"/>
    <g id="Group_36" data-name="Group 36" transform="translate(0 -3)">
      <g id="Ellipse_5" data-name="Ellipse 5" transform="translate(470 2251)" fill="#fff" stroke="#fff" stroke-width="1">
        <circle cx="30" cy="30" r="30" stroke="none"/>
        <circle cx="30" cy="30" r="29.5" fill="none"/>
      </g>
      <path id="Path_350" data-name="Path 350" d="M-13.53-11.22q0-5.19,1.875-8.13t6.225-2.94q4.35,0,6.225,2.94T2.67-11.22Q2.67-6,.8-3.03T-5.43-.06q-4.35,0-6.225-2.97T-13.53-11.22Zm12.06,0a20.639,20.639,0,0,0-.285-3.735,5.033,5.033,0,0,0-1.14-2.475,3.218,3.218,0,0,0-2.535-.96,3.218,3.218,0,0,0-2.535.96A5.033,5.033,0,0,0-9.1-14.955,20.639,20.639,0,0,0-9.39-11.22,22.739,22.739,0,0,0-9.12-7.4a4.8,4.8,0,0,0,1.14,2.49,3.3,3.3,0,0,0,2.55.945,3.3,3.3,0,0,0,2.55-.945A4.8,4.8,0,0,0-1.74-7.4,22.739,22.739,0,0,0-1.47-11.22ZM5.34-18v-3.87h7.23V0H8.25V-18Z" transform="translate(500 2292)" fill="#0d68ac"/>
    </g>
    <g id="Layer_2" data-name="Layer 2" transform="translate(404.52 2328.188)">
      <g id="Group_21" data-name="Group 21" transform="translate(1)">
        <path id="Path_28" data-name="Path 28" d="M220.771,134.826s-25.531-15.678-25.887-15.756-22.224,23.977-22.224,23.977l40.194,46.279h7.917V134.835Z" transform="translate(-23.639 -15.703)" fill="#81b5dc"/>
        <path id="Path_29" data-name="Path 29" d="M56.263,82.26l.477-1.771L45.863,16.3,9.81,19.963,20.688,85.22Z" transform="translate(-2.162 -2.15)" fill="#81b5dc"/>
        <path id="Path_30" data-name="Path 30" d="M61.576,197.368c-.356-.234-4.966-17.258-4.966-17.258l-38.77,5.434,1.181,11.824H61.576Z" transform="translate(-3.221 -23.753)" fill="#81b5dc"/>
        <path id="Path_31" data-name="Path 31" d="M88.26,14.142l-2.179-5.1-5.521.495,4.176-3.646L82.557.8l4.757,2.847L91.49,0,90.248,5.4l4.757,2.839-5.513.495Z" transform="translate(-11.493)" fill="#0d68ac"/>
        <path id="Path_32" data-name="Path 32" d="M221.046,134.74s-26.3-16.407-26.512-16.121-22.424,24.794-22.424,24.794l40.984,45.568" transform="translate(-23.566 -15.643)" fill="none" stroke="#2a5d83" stroke-linecap="round" stroke-linejoin="round" stroke-width="2"/>
        <path id="Path_33" data-name="Path 33" d="M179.4,110.83S147.51,85.177,145.939,83.675s-5.808-5.947-6.954-6.876-13.256-6.52-17.623-8.525-10.391-4.94-11.39-5.66-3.794-1.215-6.233-1.788S92.2,56.668,87.975,55.453s-9.6-5.66-11.824-6.381S71.42,48.065,73.069,53.8s8.238,11.32,12.11,13.109,9.532,1.788,12.9,3.941,10.817,8.238,13.968,10.174" transform="translate(-10.435 -6.421)" fill="none" stroke="#2a5d83" stroke-linecap="round" stroke-linejoin="round" stroke-width="2"/>
        <path id="Path_34" data-name="Path 34" d="M119.185,83.46s-2.005,6.589-1.719,10.747" transform="translate(-16.356 -11.007)" fill="none" stroke="#2a5d83" stroke-linecap="round" stroke-linejoin="round" stroke-width="2"/>
        <path id="Path_35" data-name="Path 35" d="M137.925,97c-2.075.069-5.808.642-8.386.642s-9.671-1.076-11.034-1.146-4.87-.069-6.589.573-11.32,2.726-13.109,3.368-4.08,2.8-1.866,5.087,6.806,4.08,10.817,4.3,10.817.721,13.829,1.146,9.6,5.877,15.687,7.023a24.044,24.044,0,0,0,12.11-1.363" transform="translate(-13.533 -12.722)" fill="none" stroke="#2a5d83" stroke-linecap="round" stroke-linejoin="round" stroke-width="2"/>
        <path id="Path_36" data-name="Path 36" d="M153.79,121.61s18.4,19.446,18.3,19.559" transform="translate(-21.15 -16.038)" fill="none" stroke="#2a5d83" stroke-linecap="round" stroke-linejoin="round" stroke-width="2"/>
        <path id="Path_37" data-name="Path 37" d="M126.041,113.36a41.142,41.142,0,0,1-1.311,6.433" transform="translate(-17.318 -14.95)" fill="none" stroke="#2a5d83" stroke-linecap="round" stroke-linejoin="round" stroke-width="2"/>
        <path id="Path_38" data-name="Path 38" d="M116.65,112.85a13.521,13.521,0,0,1,.4,8.525" transform="translate(-16.252 -14.883)" fill="none" stroke="#2a5d83" stroke-linecap="round" stroke-linejoin="round" stroke-width="2"/>
        <path id="Path_39" data-name="Path 39" d="M109.507,82.836c-1.936-.434-8.673-1.649-11.181-1.363s-4.011,1.432-5.157,3.941a82.907,82.907,0,0,1-4.653,8.525c-1.146,1.719-2.8,3.794-2.648,5.591s1.146,2.361,2.005,3.585,4.653,9.245,4.731,10.174-.4,4.3,2.735,3.507,4.783-5.66,3.993-10.244" transform="translate(-12.192 -10.739)" fill="none" stroke="#2a5d83" stroke-linecap="round" stroke-linejoin="round" stroke-width="2"/>
        <path id="Path_40" data-name="Path 40" d="M104.21,110.87a34.334,34.334,0,0,0,2.413,8.673c1.8,3.872,3.038,7.093,9.254,8.169s7.8.286,8.942-.642,1.363-3.368-.642-5.226-3.941-2.648-7.952-3.507" transform="translate(-14.612 -14.622)" fill="none" stroke="#2a5d83" stroke-linecap="round" stroke-linejoin="round" stroke-width="2"/>
        <path id="Path_41" data-name="Path 41" d="M99.47,99.531l4.115-5.591s7.014,1.5,11.233,1.293" transform="translate(-13.987 -12.389)" fill="none" stroke="#2a5d83" stroke-linecap="round" stroke-linejoin="round" stroke-width="2"/>
        <line id="Line_5" data-name="Line 5" x2="0.451" y2="2.656" transform="translate(89.147 78.903)" fill="none" stroke="#2a5d83" stroke-linecap="round" stroke-linejoin="round" stroke-width="2"/>
        <path id="Path_42" data-name="Path 42" d="M61.035,197.123l-4.3-16.763L17.69,185.942l.859,11.468" transform="translate(-3.201 -23.786)" fill="none" stroke="#2a5d83" stroke-linecap="round" stroke-linejoin="round" stroke-width="2"/>
        <path id="Path_43" data-name="Path 43" d="M18.71,170.19s-.286-15.4-.642-19.915-.434-9.6-1.293-12.9-2.726-5.851-6.3-12.848-5.157-10.148-5.226-16.815S5.462,99.4,4.1,95.957,2.884,87.5,2.953,84.49a15.189,15.189,0,0,0-.859-6.45c-.79-2.37-1.58-4.445-.721-6.589s2.648-2.361,5.591-.929S11.478,74.8,12.98,82.51s1.771,12.822,2.778,14.576c3.1,5.391,6.181,5.261,13.421,13.708s12.249,20.3,12.327,23.509" transform="translate(-1 -9.18)" fill="none" stroke="#2a5d83" stroke-linecap="round" stroke-linejoin="round" stroke-width="2"/>
        <path id="Path_44" data-name="Path 44" d="M63.33,69.62c4.653.122,6.172.122,8,.625s4.184,1.649,1.467,4.08-7.813,4.228-7.813,4.228" transform="translate(-9.22 -9.181)" fill="none" stroke="#2a5d83" stroke-linecap="round" stroke-linejoin="round" stroke-width="2"/>
        <path id="Path_45" data-name="Path 45" d="M65.149,80.58s.859.148,3.151.356,3.012.286,4.584,3.655,1.788,5.157,0,10.747-4.367,9.671-8.1,2.439S67.076,84.3,67.076,84.3" transform="translate(-9.251 -10.627)" fill="none" stroke="#2a5d83" stroke-linecap="round" stroke-linejoin="round" stroke-width="2"/>
        <path id="Path_46" data-name="Path 46" d="M73.922,94.77a5.064,5.064,0,0,1,0,4.87c-1.267,2.361-1.91,4.08-3.412,6.737s-2.075,4.228-3.585,6.233-4.3,2.865-4.87-2.509-.174-8.968,2.309-10.86" transform="translate(-9.022 -12.498)" fill="none" stroke="#2a5d83" stroke-linecap="round" stroke-linejoin="round" stroke-width="2"/>
        <path id="Path_47" data-name="Path 47" d="M74.353,100.38a8.2,8.2,0,0,1-.738,3.881c-.946,2.205-2.17,3.281-3.238,6.146s-1.58,5.3-4.8,7.24-4.584,1.233-5.226-3,1.276-5.886,1.276-5.886" transform="translate(-8.81 -13.238)" fill="none" stroke="#2a5d83" stroke-linecap="round" stroke-linejoin="round" stroke-width="2"/>
        <path id="Path_48" data-name="Path 48" d="M62.652,122.01c1.146,5.591,1.432,12.18-.721,18.343s-3.368,7.093-3.585,9.245a93.406,93.406,0,0,0-.642,12.249c.217,4.011,1.215,10.817,1.215,10.817" transform="translate(-8.473 -16.091)" fill="none" stroke="#2a5d83" stroke-linecap="round" stroke-linejoin="round" stroke-width="2"/>
        <line id="Line_6" data-name="Line 6" y1="3.221" x2="30.671" transform="translate(21.789 91.969)" fill="none" stroke="#2a5d83" stroke-linecap="round" stroke-linejoin="round" stroke-width="2"/>
        <line id="Line_7" data-name="Line 7" x1="33.518" y2="3.525" transform="translate(19.289 89.581)" fill="none" stroke="#2a5d83" stroke-linecap="round" stroke-linejoin="round" stroke-width="2"/>
        <path id="Path_49" data-name="Path 49" d="M19.537,92.356,6.706,15.849A1.988,1.988,0,0,1,8.477,13.54l36.53-3.481a2.045,2.045,0,0,1,2.214,1.693l10.93,64.328" transform="translate(-1.749 -1.325)" fill="none" stroke="#2a5d83" stroke-linecap="round" stroke-linejoin="round" stroke-width="2"/>
        <path id="Path_50" data-name="Path 50" d="M56.494,79.38,45.747,16.12,9.85,19.844,21.1,85.327l35.176-2.969" transform="translate(-2.168 -2.126)" fill="none" stroke="#2a5d83" stroke-linecap="round" stroke-linejoin="round" stroke-width="2"/>
        <ellipse id="Ellipse_6" data-name="Ellipse 6" cx="3.438" cy="3.151" rx="3.438" ry="3.151" transform="translate(34.334 83.279)" fill="none" stroke="#2a5d83" stroke-linecap="round" stroke-linejoin="round" stroke-width="2"/>
        <path id="Path_51" data-name="Path 51" d="M5.924,14.71C4.561,15.5,3.484,16,4.2,20.3s8.673,51.011,8.673,51.011" transform="translate(-1.393 -1.94)" fill="none" stroke="#2a5d83" stroke-linecap="round" stroke-linejoin="round" stroke-width="2"/>
        <rect id="Rectangle_24" data-name="Rectangle 24" width="10.305" height="1.502" rx="0.751" transform="translate(20.158 13.025) rotate(-5.35)" fill="none" stroke="#2a5d83" stroke-linecap="round" stroke-linejoin="round" stroke-width="2"/>
        <line id="Line_8" data-name="Line 8" y1="12.761" x2="10.643" transform="translate(60.238 12.892)" fill="none" stroke="#2a5d83" stroke-linecap="round" stroke-linejoin="round" stroke-width="2"/>
      </g>
    </g>
  </g>
</svg>
