<svg xmlns="http://www.w3.org/2000/svg" width="280" height="280" viewBox="0 0 280 280">
  <g id="Group_67" data-name="Group 67" transform="translate(-360 -2243)">
    <rect id="Rectangle_6" data-name="Rectangle 6" width="280" height="280" rx="20" transform="translate(360 2243)" fill="#fff"/>
    <g id="Group_36" data-name="Group 36" transform="translate(0 -3)">
      <g id="Ellipse_5" data-name="Ellipse 5" transform="translate(470 2251)" fill="#fff" stroke="#fff" stroke-width="1">
        <circle cx="30" cy="30" r="30" stroke="none"/>
        <circle cx="30" cy="30" r="29.5" fill="none"/>
      </g>
      <path id="Path_353" data-name="Path 353" d="M-18.015-11.22q0-5.19,1.875-8.13t6.225-2.94q4.35,0,6.225,2.94t1.875,8.13q0,5.22-1.875,8.19T-9.915-.06q-4.35,0-6.225-2.97T-18.015-11.22Zm12.06,0a20.639,20.639,0,0,0-.285-3.735A5.033,5.033,0,0,0-7.38-17.43a3.218,3.218,0,0,0-2.535-.96,3.218,3.218,0,0,0-2.535.96,5.033,5.033,0,0,0-1.14,2.475,20.639,20.639,0,0,0-.285,3.735A22.739,22.739,0,0,0-13.6-7.4a4.8,4.8,0,0,0,1.14,2.49,3.3,3.3,0,0,0,2.55.945,3.3,3.3,0,0,0,2.55-.945A4.8,4.8,0,0,0-6.225-7.4,22.739,22.739,0,0,0-5.955-11.22Zm7.14,6.96v-3.3l9.81-14.04h4.89V-7.92h2.64v3.66h-2.64V0h-4.2V-4.26ZM11.955-17.1,5.8-7.92h6.15Z" transform="translate(500 2292)" fill="#0d68ac"/>
    </g>
    <g id="Layer_2" data-name="Layer 2" transform="translate(403.473 2310.198)">
      <g id="Group_22" data-name="Group 22" transform="translate(1 0.99)">
        <path id="Path_52" data-name="Path 52" d="M67.086,194.936H152.6l2-10.685a64.721,64.721,0,0,0,14.247,2.448c8.9.667,15.59-1.781,17.59-6.9s2.229-8.638.9-14.561-8.9-34.227-13.361-46.351-7.571-18.38-9.8-20.933-4.009-3.019-8.238-4.676-13.581-4.009-13.581-4.009-2.676-7.885-4.9-10.781a19.193,19.193,0,0,0-6.238-4.752l-2.676,4.086s1.333,4.419,0,11.457-10.247,20.076-10.247,20.076l-16.038.9L98.247,93.387,97.8,79.835A63.3,63.3,0,0,1,92.457,74L84.886,87.91s-12.466,1.9-16.7,5.371-8.685,8.99-9.571,12.9-6.9,22.5-6.9,21.78S41.021,98.158,41.021,98.158L13.85,107.815s13.581,49.275,16.257,54.617,6.676,16.923,18.257,15.59,17.818-13.7,17.818-13.7l.9,30.637Z" transform="translate(-1.612 -4.456)" fill="#81b5dc"/>
        <path id="Path_53" data-name="Path 53" d="M157.288,144.7V112.83H100.061L98.28,186.561l57.227,2,1.781-6.9s10.685,1.114,10.466-13.581a33.271,33.271,0,0,0-10.466-23.38Z" transform="translate(-5.635 -6.319)" fill="#fff"/>
        <path id="Path_54" data-name="Path 54" d="M118.14,92.17l-4.8,5.038v13h9.7l-2.009-7.962,2.009-3.828Z" transform="translate(-6.353 -5.335)" fill="#0d68ac"/>
        <path id="Path_55" data-name="Path 55" d="M90.889,43.414s-4.676-2.229-1.781-4.457,6.009-4.371,12.028-1.857c0,0,6.238-.562,13.809-1.133S126.526,37.1,126.526,37.1a7.95,7.95,0,0,1,7.571-2.848,13.957,13.957,0,0,1,8.238,4.533s2.9.676,2.448-2.362a5.553,5.553,0,0,0-2.9-4.152s.667-22.894-20.266-28.6c0,0-.448-1.914-7.571-2.133s-7.124,1.048-7.124,1.048l-.9,2.3S89.67,10.634,88.165,33.261c0,0-12.19,10.162,2.724,10.152Z" transform="translate(-4.93 -1.015)" fill="#e6eff7"/>
        <ellipse id="Ellipse_7" data-name="Ellipse 7" cx="5.847" cy="3.114" rx="5.847" ry="3.114" transform="translate(103.806 22.799)" fill="#fff"/>
        <path id="Path_56" data-name="Path 56" d="M97.057,33.27c-7.2,1.333-13.733,5.571-13.438,8.838s4.524,2.448,4.524,2.448" transform="translate(-4.936 -2.528)" fill="none" stroke="#2a5d83" stroke-linecap="round" stroke-linejoin="round" stroke-width="2"/>
        <line id="Line_9" data-name="Line 9" y2="18.561" transform="translate(87.816 37.494)" fill="none" stroke="#2a5d83" stroke-linecap="round" stroke-linejoin="round" stroke-width="2"/>
        <line id="Line_10" data-name="Line 10" y2="6.228" transform="translate(84.692 40.17)" fill="none" stroke="#2a5d83" stroke-linecap="round" stroke-linejoin="round" stroke-width="2"/>
        <path id="Path_57" data-name="Path 57" d="M108.95,66.55h16.1s-1.038,9.133-7.724,9.5-8.39-9.5-8.39-9.5Z" transform="translate(-6.143 -4.114)" fill="none" stroke="#2a5d83" stroke-linecap="round" stroke-linejoin="round" stroke-width="2"/>
        <path id="Path_58" data-name="Path 58" d="M116.283,45.21c-.152.21-2.943,9.047-2.943,9.047l3.876,4.076" transform="translate(-6.353 -3.097)" fill="none" stroke="#2a5d83" stroke-linecap="round" stroke-linejoin="round" stroke-width="2"/>
        <circle id="Ellipse_8" data-name="Ellipse 8" cx="1.352" cy="1.352" r="1.352" transform="translate(98.092 40.58)" fill="none" stroke="#2a5d83" stroke-linecap="round" stroke-linejoin="round" stroke-width="2"/>
        <circle id="Ellipse_9" data-name="Ellipse 9" cx="1.352" cy="1.352" r="1.352" transform="translate(120.311 40.58)" fill="none" stroke="#2a5d83" stroke-linecap="round" stroke-linejoin="round" stroke-width="2"/>
        <path id="Path_59" data-name="Path 59" d="M86.733,46.44c-1.629,3.19-3.857,8.533,4.524,12.771" transform="translate(-5.012 -3.156)" fill="none" stroke="#2a5d83" stroke-linecap="round" stroke-linejoin="round" stroke-width="2"/>
        <path id="Path_60" data-name="Path 60" d="M88.06,34.569s-.59-23.675,18.409-29.989" transform="translate(-5.148 -1.161)" fill="none" stroke="#2a5d83" stroke-linecap="round" stroke-linejoin="round" stroke-width="2"/>
        <path id="Path_61" data-name="Path 61" d="M141.611,42.487c-.076-.667.152-2.7-3.038-4.333s-5.771-2.276-10.009-.267a112.85,112.85,0,0,0-13.219-.59c-8.762,0-13.8,1.629-13.8,1.629-4.228-2-6.609-1.114-9.8.524s-2.6,2.371-2.676,3.048" transform="translate(-5.197 -2.688)" fill="none" stroke="#2a5d83" stroke-linecap="round" stroke-linejoin="round" stroke-width="2"/>
        <line id="Line_11" data-name="Line 11" x2="0.733" y2="22.79" transform="translate(131.015 35.342)" fill="none" stroke="#2a5d83" stroke-linecap="round" stroke-linejoin="round" stroke-width="2"/>
        <line id="Line_12" data-name="Line 12" x1="0.124" y2="8.838" transform="translate(135.472 36.865)" fill="none" stroke="#2a5d83" stroke-linecap="round" stroke-linejoin="round" stroke-width="2"/>
        <path id="Path_62" data-name="Path 62" d="M141.612,43.48s-2.9,17.218-5.638,25.685-9.562,13.209-20.628,13.209S97.47,77.622,94.718,69.165,89.08,44.147,89.08,44.147" transform="translate(-5.197 -3.015)" fill="none" stroke="#2a5d83" stroke-linecap="round" stroke-linejoin="round" stroke-width="2"/>
        <path id="Path_63" data-name="Path 63" d="M146.274,46.44c1.629,3.19,3.857,8.533-4.524,12.771" transform="translate(-7.707 -3.156)" fill="none" stroke="#2a5d83" stroke-linecap="round" stroke-linejoin="round" stroke-width="2"/>
        <path id="Path_64" data-name="Path 64" d="M144.329,34.569s.59-23.675-18.409-29.989" transform="translate(-6.952 -1.161)" fill="none" stroke="#2a5d83" stroke-linecap="round" stroke-linejoin="round" stroke-width="2"/>
        <path id="Path_65" data-name="Path 65" d="M127.58,23.713,124.094,2.257a25.956,25.956,0,0,0-16.019,0L104.59,23.713" transform="translate(-5.936 -0.99)" fill="none" stroke="#2a5d83" stroke-linecap="round" stroke-linejoin="round" stroke-width="2"/>
        <path id="Path_66" data-name="Path 66" d="M109.594,84.71l7.762,6.238s-10.314,10.543-10.619,10.619-5.266-7.047-5.266-7.047" transform="translate(-5.787 -4.979)" fill="none" stroke="#2a5d83" stroke-linecap="round" stroke-linejoin="round" stroke-width="2"/>
        <path id="Path_67" data-name="Path 67" d="M100.783,80.794V92.641L88.317,104.107,87.05,91.86l6.866-16.923,2.267-.667" transform="translate(-5.1 -4.482)" fill="none" stroke="#2a5d83" stroke-linecap="round" stroke-linejoin="round" stroke-width="2"/>
        <path id="Path_68" data-name="Path 68" d="M124.007,84.32l-5.857,6.609,7.943,10.609" transform="translate(-6.582 -4.961)" fill="none" stroke="#2a5d83" stroke-linecap="round" stroke-linejoin="round" stroke-width="2"/>
        <path id="Path_69" data-name="Path 69" d="M112.39,97.11l1.924,4.9-1.409,9.352" transform="translate(-6.308 -5.57)" fill="none" stroke="#2a5d83" stroke-linecap="round" stroke-linejoin="round" stroke-width="2"/>
        <line id="Line_13" data-name="Line 13" x2="3.857" y2="13.066" transform="translate(97.092 92.349)" fill="none" stroke="#2a5d83" stroke-linecap="round" stroke-linejoin="round" stroke-width="2"/>
        <path id="Path_70" data-name="Path 70" d="M123.06,110.427S131.374,95.36,133.079,91.2s1.067-7.79.752-13.619" transform="translate(-6.816 -4.64)" fill="none" stroke="#2a5d83" stroke-linecap="round" stroke-linejoin="round" stroke-width="2"/>
        <path id="Path_71" data-name="Path 71" d="M135.513,110.231l4.3-6.162L133.97,92.937l10.438,9.2s5.076-8.238,5.3-8.333-3.562-9.333-5.3-13.123a15.124,15.124,0,0,0-6.8-7.2" transform="translate(-7.336 -4.444)" fill="none" stroke="#2a5d83" stroke-linecap="round" stroke-linejoin="round" stroke-width="2"/>
        <circle id="Ellipse_11" data-name="Ellipse 11" cx="1.095" cy="1.095" r="1.095" transform="translate(125.405 98.844)" fill="none" stroke="#2a5d83" stroke-linecap="round" stroke-linejoin="round" stroke-width="2"/>
        <path id="Path_72" data-name="Path 72" d="M122.945,98.73l-2.3,3.352,1.152,8.981" transform="translate(-6.701 -5.647)" fill="none" stroke="#2a5d83" stroke-linecap="round" stroke-linejoin="round" stroke-width="2"/>
        <line id="Line_14" data-name="Line 14" x2="5.114" transform="translate(108.006 96.435)" fill="none" stroke="#2a5d83" stroke-linecap="round" stroke-linejoin="round" stroke-width="2"/>
        <path id="Path_73" data-name="Path 73" d="M137.32,31.94c6.533.3,14.514,4.381,7.114,10.019" transform="translate(-7.496 -2.465)" fill="none" stroke="#2a5d83" stroke-linecap="round" stroke-linejoin="round" stroke-width="2"/>
        <path id="Path_74" data-name="Path 74" d="M149.4,88.69c4.228,1.7,10.619,3.828,14.847,5.847s7.124,5.1,9.8,10.581,6.086,9.333,12.4,32.713,8.981,33.551,6.752,40.827-8.981,9.057-21.009,7.495" transform="translate(-8.071 -5.169)" fill="none" stroke="#2a5d83" stroke-linecap="round" stroke-linejoin="round" stroke-width="2"/>
        <path id="Path_75" data-name="Path 75" d="M161.09,186.879c.219,0,5.943,2.152,8.466,2.3s5.79.152,7.647-3.114,4.086-6.238,3.79-13.809-7.647-16.771-7.647-16.771" transform="translate(-8.628 -8.352)" fill="none" stroke="#2a5d83" stroke-linecap="round" stroke-linejoin="round" stroke-width="2"/>
        <line id="Line_15" data-name="Line 15" x2="10.714" y2="0.448" transform="translate(161.671 146.167)" fill="none" stroke="#2a5d83" stroke-linecap="round" stroke-linejoin="round" stroke-width="2"/>
        <circle id="Ellipse_12" data-name="Ellipse 12" cx="1.114" cy="1.114" r="1.114" transform="translate(161.966 176.08)" fill="none" stroke="#2a5d83" stroke-linecap="round" stroke-linejoin="round" stroke-width="2"/>
        <path id="Path_76" data-name="Path 76" d="M159.61,182.965c2.3.962,5.2,2.076,6.828,0s4.381-4.9,4.086-16.847-8.162-16.257-10.466-18.038" transform="translate(-8.558 -7.999)" fill="none" stroke="#2a5d83" stroke-linecap="round" stroke-linejoin="round" stroke-width="2"/>
        <path id="Path_77" data-name="Path 77" d="M163.054,154.757s-7.047-2.448-8.162-2.819a14.931,14.931,0,0,0-4.086-.743c-1.638-.076-7.114-.152-8.676,0s-4.438,2.743.971,5.571" transform="translate(-7.621 -8.143)" fill="none" stroke="#2a5d83" stroke-linecap="round" stroke-linejoin="round" stroke-width="2"/>
        <path id="Path_78" data-name="Path 78" d="M158.623,159.889s-5.866-1.486-7.79-1.7-6.3-.819-8.752-.3-6.39,3.267,1.476,5.714" transform="translate(-7.571 -8.456)" fill="none" stroke="#2a5d83" stroke-linecap="round" stroke-linejoin="round" stroke-width="2"/>
        <path id="Path_79" data-name="Path 79" d="M158.023,165.852c-.219,0-8.466-1.562-11.657-1.562s-8.238,3.343,0,6.676" transform="translate(-7.713 -8.771)" fill="none" stroke="#2a5d83" stroke-linecap="round" stroke-linejoin="round" stroke-width="2"/>
        <path id="Path_80" data-name="Path 80" d="M158.919,171.753s-6.457-.743-9.352,0-7.276,4.086-1.933,5.2a73.358,73.358,0,0,0,11.285,1.267" transform="translate(-7.867 -9.111)" fill="none" stroke="#2a5d83" stroke-linecap="round" stroke-linejoin="round" stroke-width="2"/>
        <path id="Path_81" data-name="Path 81" d="M156.72,150.339s.819-37.265,0-37.265-57.75-.3-57.75,0V187.2h57.75V175.729" transform="translate(-5.668 -6.325)" fill="none" stroke="#2a5d83" stroke-linecap="round" stroke-linejoin="round" stroke-width="2"/>
        <path id="Path_82" data-name="Path 82" d="M114.95,113.63v8.981s27.332-.371,26.952,0,0-8.981,0-8.981" transform="translate(-6.43 -6.357)" fill="none" stroke="#2a5d83" stroke-linecap="round" stroke-linejoin="round" stroke-width="2"/>
        <circle id="Ellipse_13" data-name="Ellipse 13" cx="0.61" cy="0.61" r="0.61" transform="translate(113.13 111.282)" fill="none" stroke="#2a5d83" stroke-linecap="round" stroke-linejoin="round" stroke-width="2"/>
        <circle id="Ellipse_14" data-name="Ellipse 14" cx="0.61" cy="0.61" r="0.61" transform="translate(129.339 111.282)" fill="none" stroke="#2a5d83" stroke-linecap="round" stroke-linejoin="round" stroke-width="2"/>
        <circle id="Ellipse_15" data-name="Ellipse 15" cx="0.819" cy="0.819" r="0.819" transform="translate(164.195 113.796)" fill="none" stroke="#2a5d83" stroke-linecap="round" stroke-linejoin="round" stroke-width="2"/>
        <path id="Path_83" data-name="Path 83" d="M177.755,114.72c-.219,0-11.285,1.7-11.285,1.7l6.028,28.656L187.7,143" transform="translate(-8.885 -6.409)" fill="none" stroke="#2a5d83" stroke-linecap="round" stroke-linejoin="round" stroke-width="2"/>
        <line id="Line_16" data-name="Line 16" y1="2.305" x2="12.838" transform="translate(160.185 117.434)" fill="none" stroke="#2a5d83" stroke-linecap="round" stroke-linejoin="round" stroke-width="2"/>
        <line id="Line_17" data-name="Line 17" x1="0.362" y1="8.085" transform="translate(151.052 181.499)" fill="none" stroke="#2a5d83" stroke-linecap="round" stroke-linejoin="round" stroke-width="2"/>
        <line id="Line_18" data-name="Line 18" y1="7.943" transform="translate(110.568 182.013)" fill="none" stroke="#2a5d83" stroke-linecap="round" stroke-linejoin="round" stroke-width="2"/>
        <line id="Line_19" data-name="Line 19" x2="2.524" y2="60.941" transform="translate(63.017 128.643)" fill="none" stroke="#2a5d83" stroke-linecap="round" stroke-linejoin="round" stroke-width="2"/>
        <path id="Path_84" data-name="Path 84" d="M65.211,166.725c-3.857,6.314-8.685,12.695-16.847,12.695s-15.219-5.866-18.933-18.561S13.47,109.051,13.47,109.051l28.285-8.981,11.952,40.084" transform="translate(-1.594 -5.711)" fill="none" stroke="#2a5d83" stroke-linecap="round" stroke-linejoin="round" stroke-width="2"/>
        <line id="Line_20" data-name="Line 20" y1="9.209" x2="26.713" transform="translate(16.038 104.597)" fill="none" stroke="#2a5d83" stroke-linecap="round" stroke-linejoin="round" stroke-width="2"/>
        <circle id="Ellipse_16" data-name="Ellipse 16" cx="0.848" cy="0.848" r="0.848" transform="translate(18.752 106.292)" fill="none" stroke="#2a5d83" stroke-linecap="round" stroke-linejoin="round" stroke-width="2"/>
        <path id="Path_85" data-name="Path 85" d="M53.69,128.637c2.228-8.647,5.638-19.856,8.314-25.428S67.423,94.372,73.213,92a81.438,81.438,0,0,1,13.438-3.79" transform="translate(-3.511 -5.146)" fill="none" stroke="#2a5d83" stroke-linecap="round" stroke-linejoin="round" stroke-width="2"/>
        <path id="Path_86" data-name="Path 86" d="M40.55,98.57s2.267-2.448,4.267-4.457,2.743-3.79,3.562-6.828.667-6.676,1.038-7.943a50.9,50.9,0,0,1,3.048-6.9c.971-1.7,1.629-3.79-1.629-3.638s-5.5.819-6.676,4.152a30.345,30.345,0,0,0-1.486,6.238s-3.419,2.3-3.714,5.266" transform="translate(-2.809 -4.221)" fill="none" stroke="#2a5d83" stroke-linecap="round" stroke-linejoin="round" stroke-width="2"/>
        <path id="Path_87" data-name="Path 87" d="M40.446,79.138a21.649,21.649,0,0,1-2.933-.819l-.743-4.3a35.736,35.736,0,0,1,2.448-4.238,4.578,4.578,0,0,1,1.7-.667l2.371,2.676" transform="translate(-2.704 -4.236)" fill="none" stroke="#2a5d83" stroke-linecap="round" stroke-linejoin="round" stroke-width="2"/>
        <path id="Path_88" data-name="Path 88" d="M46.629,67.661A28.3,28.3,0,0,1,44.1,63.738c-.371-1.038-1.409-1.486-2.9-1.629s-1.629-.59-3.048-.371-2.076.371-2.743,1.267-2.371,3.19-2.371,3.19-3.562-11.638-4.3-13.98-1.933-5.609-2.971-6.39-3.724-2.486-3.314,2.562S24.286,63,24.286,63" transform="translate(-2.02 -3.083)" fill="none" stroke="#2a5d83" stroke-linecap="round" stroke-linejoin="round" stroke-width="2"/>
        <path id="Path_89" data-name="Path 89" d="M26.676,70s-3.99-7.352-6.114-11.057A42.291,42.291,0,0,0,14.8,51c-1.486-1.562-4.228-1.409-2.371,3.857s9.485,19,9.485,19" transform="translate(-1.515 -3.332)" fill="none" stroke="#2a5d83" stroke-linecap="round" stroke-linejoin="round" stroke-width="2"/>
        <path id="Path_90" data-name="Path 90" d="M21.97,76.575s6.086-5.419,8.838-6.9" transform="translate(-1.999 -4.263)" fill="none" stroke="#2a5d83" stroke-linecap="round" stroke-linejoin="round" stroke-width="2"/>
        <path id="Path_91" data-name="Path 91" d="M19.934,72.863S11.277,66.52,8.973,65.111s-6.609-1.276-2.3,3.486A140.12,140.12,0,0,0,17.43,78.93c.667.59.743,1.1,1.114,2.9s1.629,5.047,2.6,9.2a73.787,73.787,0,0,0,2.676,8.533v3.7" transform="translate(-1.183 -4.008)" fill="none" stroke="#2a5d83" stroke-linecap="round" stroke-linejoin="round" stroke-width="2"/>
        <path id="Path_92" data-name="Path 92" d="M26.6,81.98s7.371,6.847,7.162,13.438" transform="translate(-2.22 -4.849)" fill="none" stroke="#2a5d83" stroke-linecap="round" stroke-linejoin="round" stroke-width="2"/>
        <line id="Line_21" data-name="Line 21" x1="2.628" y2="7.724" transform="translate(18.752 21.314)" fill="none" stroke="#2a5d83" stroke-linecap="round" stroke-linejoin="round" stroke-width="2"/>
        <line id="Line_22" data-name="Line 22" x2="2.448" y2="6.676" transform="translate(9.428 22.799)" fill="none" stroke="#2a5d83" stroke-linecap="round" stroke-linejoin="round" stroke-width="2"/>
        <line id="Line_23" data-name="Line 23" x2="7.124" y2="2.819" transform="translate(0 30.742)" fill="none" stroke="#2a5d83" stroke-linecap="round" stroke-linejoin="round" stroke-width="2"/>
        <path id="Path_93" data-name="Path 93" d="M96.794,126.72H78.08v24.009H96.794" transform="translate(-4.673 -6.981)" fill="none" stroke="#2a5d83" stroke-linecap="round" stroke-linejoin="round" stroke-width="2"/>
        <line id="Line_24" data-name="Line 24" x2="18.714" transform="translate(73.407 128.205)" fill="none" stroke="#2a5d83" stroke-linecap="round" stroke-linejoin="round" stroke-width="2"/>
      </g>
    </g>
  </g>
</svg>
