<svg xmlns="http://www.w3.org/2000/svg" width="262.89" height="86.85" viewBox="0 0 262.89 86.85">
  <path id="Path_351" data-name="Path 351" d="M-97.47-43.74c0,1.44,0,1.44-.09,3.15h-16.83a82.53,82.53,0,0,1-8.37-.27v10.98a58.85,58.85,0,0,1,8.37-.36h16.2c-.18,1.26-.27,1.89-.54,3.33h-22.05a69.5,69.5,0,0,1-10.08-.45v12.24c3.78-.36,7.11-.54,10.89-.54h16.47A28.2,28.2,0,0,1-116.19-7.2c-4.68,1.62-8.64,2.43-16.29,3.06a38.268,38.268,0,0,1,6.3,13.05c9.81-1.62,15.93-3.6,22.41-7.38A35.97,35.97,0,0,0-90.99-10.35,44.255,44.255,0,0,0-74.25,2.61c6.39,2.97,11.16,4.41,20.97,6.3,1.53-5.58,2.61-7.83,6.12-13.5-11.61-1.44-18.36-3.06-23.76-5.49a25.149,25.149,0,0,1-8.19-5.58h18.99a104.81,104.81,0,0,1,11.07.54V-27.36a73.851,73.851,0,0,1-10.35.45H-84.87c.18-1.35.18-1.62.36-3.33h18.54a60.367,60.367,0,0,1,8.46.36V-40.86a82.237,82.237,0,0,1-8.46.27h-18c.09-1.53.09-1.53.09-3.15h17.37a59.678,59.678,0,0,1,8.37.36V-48.6h8.64a58.11,58.11,0,0,1-.36-7.02v-7.74a66.671,66.671,0,0,1,.36-7.02c-2.97.27-5.85.36-10.8.36H-83.52v-.72a33.2,33.2,0,0,1,.45-5.76H-98.19a37.721,37.721,0,0,1,.36,5.85v.63H-119.7c-4.95,0-7.92-.09-10.8-.36.27,3.06.36,4.95.36,7.29v7.38a39.169,39.169,0,0,1-.45,7.11h8.73v5.22a53.512,53.512,0,0,1,8.19-.36Zm34.38-14.4v3.87h-20.7c0-1.26,0-1.35.09-3.87Zm-34.38,0c.09,1.44.09,1.89.09,3.87h-19.53v-3.87Zm55.89,31.23c2.16-.36,2.16-.36,11.52-.9V-3.15A72.824,72.824,0,0,1-30.6,8.19h12.42a71.447,71.447,0,0,1-.54-11.34V-28.62c1.89-.18,1.89-.18,4.23-.45.18,1.17.18,1.53.45,3.15l7.47-2.52A85.557,85.557,0,0,0-10.26-41.4c1.17-.09,4.41-.18,8.19-.18H34.2a74.4,74.4,0,0,1,8.37.36v-9.81a71.394,71.394,0,0,1-8.37.36H22.05v-2.25H31.5a69.184,69.184,0,0,1,7.11.18v-7.92c-2.16.18-3.96.27-7.11.27H22.05v-2.25H32.76a49.409,49.409,0,0,1,7.83.36v-9.63a73.081,73.081,0,0,1-8.46.36H22.05a17.366,17.366,0,0,1,.45-4.86H8.64a18.157,18.157,0,0,1,.45,4.86H-.27a74.082,74.082,0,0,1-8.46-.36v9l-9.54-4.77c-1.35,3.42-1.35,3.42-7.74,14.76-.9-1.26-1.17-1.62-1.98-2.79a97.844,97.844,0,0,0,6.75-12.78,38.732,38.732,0,0,1,2.52-4.86l-11.16-4.32a55.677,55.677,0,0,1-5.04,12.96l-2.16-2.52-5.94,11.07A87.564,87.564,0,0,1-32.94-42.3c-.63.99-.63.99-2.07,2.97h-1.26a31.147,31.147,0,0,1-6.39-.36ZM9.09-62.64v2.25H.18c-3.06,0-5.04-.09-7.2-.27v7.92c1.89-.09,3.42-.18,7.2-.18H9.09v2.25H-2.25a61.062,61.062,0,0,1-8.55-.36v8.1a36.354,36.354,0,0,0-1.98-4.77l-5.85,1.8a109.414,109.414,0,0,0,6.48-9.81c3.06-5.22,3.06-5.22,4.14-6.66a58.286,58.286,0,0,1,7.02-.27ZM-18.99-45.36c1.17,2.97,1.35,3.33,1.98,5.31-2.34.18-4.32.36-6.03.36C-21.78-41.4-21.33-41.94-18.99-45.36ZM3.06-5.4C-1.71-2.61-6.3-1.35-15.21-.72A41.055,41.055,0,0,1-9.18,8.91C1.53,7.29,6.3,5.4,13.77-.36L6.48-5.4H22.77L16.65-.36c6.84,5.22,11.16,7.11,21.33,9.54A47.115,47.115,0,0,1,44.19-1.35c-7.83-.81-11.7-1.71-16.38-4.05h3.24c2.7,0,2.7,0,7.29.18-.27-2.79-.36-5.67-.36-8.91V-31.05a79.736,79.736,0,0,1,.36-8.37,74.478,74.478,0,0,1-7.47.18H.72c-4.5,0-4.86,0-7.11-.09a67.087,67.087,0,0,1,.18,6.93v18.72c0,2.88-.09,6.57-.18,8.46C-1.8-5.4-1.8-5.4.81-5.4ZM6.48-31.77H25.29v2.25H6.48Zm0,8.19H25.29v2.25H6.48Zm0,8.1H25.29v2.34H6.48ZM-40.23-25.2c-.36,11.07-1.08,17.46-2.79,24.57l8.64,4.95c1.71-8.46,2.25-14.31,2.61-28.17Zm22.95,1.8A154.742,154.742,0,0,1-15.84-3.06l7.65-1.62c-.27-5.76-1.08-14.58-1.89-19.98ZM94.41-60.93a34.658,34.658,0,0,1,5.94.27V-73.62a53.631,53.631,0,0,1-8.82.45H80.01a55.107,55.107,0,0,1-8.73-.45v.9l-11.61-4.5c-2.25,13.77-7.29,25.65-14.13,33.66,1.98,5.13,2.88,8.46,4.23,16.2a54.059,54.059,0,0,0,4.14-5.49c-.09,2.61-.09,4.59-.09,8.1V-2.52a97.58,97.58,0,0,1-.54,10.44H66.96a97.706,97.706,0,0,1-.45-10.53V-30.6a75.866,75.866,0,0,1,5.13,10.53,57.712,57.712,0,0,0,4.59-6.3,69.834,69.834,0,0,1,6.03,6.84A52.307,52.307,0,0,1,66.69-1.98,40.316,40.316,0,0,1,76.05,8.73C83.25,2.25,87.93-3.33,91.62-9.72c5.13-9.09,7.65-17.91,9.72-34.47.27-2.07.36-2.88.63-4.32l-4.41-6.3a51.95,51.95,0,0,1-6.12.27H87.39a61.539,61.539,0,0,0,.99-6.39Zm-27.9,7.38c.54-1.53.72-1.98,1.17-3.15a28.189,28.189,0,0,0,1.26-3.6c.72-2.16,1.71-5.31,1.98-6.66a6.15,6.15,0,0,1,.36-1.17v7.47a45.22,45.22,0,0,1,4.86-.27,54.455,54.455,0,0,1-9.63,25.74ZM89.37-42.57a55.385,55.385,0,0,1-1.98,10.44,69.922,69.922,0,0,0-5.31-5.4c1.08-2.43,1.26-3.06,1.98-5.04Zm25.02,28.53a55.9,55.9,0,0,1-.27-6.21V-63.18a53.015,53.015,0,0,1,.27-6.12H101.88c.18,2.43.27,3.78.27,6.12v43.02a40.7,40.7,0,0,1-.36,6.12Zm15.57-52.74a52.839,52.839,0,0,1,.45-8.37H117.09a55.676,55.676,0,0,1,.45,8.37V-7.47c0,2.07-.63,2.43-3.6,2.43-2.7,0-7.92-.18-11.07-.45a42.4,42.4,0,0,1,3.24,12.78c2.25.09,3.96.09,5.13.09,2.97,0,7.11-.18,9.45-.45,3.06-.27,4.5-.81,6.03-1.89,2.34-1.71,3.24-4.41,3.24-9.45Z" transform="translate(132.48 77.67)" fill="#0d68ac"/>
</svg>
