<svg xmlns="http://www.w3.org/2000/svg" width="1200" height="304.369" viewBox="0 0 1200 304.369">
  <g id="Group_63" data-name="Group 63" transform="translate(-2901 -2717.631)">
    <g id="Group_61" data-name="Group 61" transform="translate(-2.836)">
      <path id="Path_350" data-name="Path 350" d="M337.491-30.24h.756c.189,0,.693,0,1.449.063,5.292.189,8.946.315,10.836.315,1.26,0,2.142,0,3.591-.063.063,2.2.063,3.087.126,5.229.126,2.961.126,3.276.189,5.04a18.461,18.461,0,0,0-3.654-.378c-3.969,0-7.308.882-9.7,2.583a11.1,11.1,0,0,0-4.788,9.261c0,7.308,5.481,11.718,14.742,11.718,8.064,0,13.545-3.591,13.545-8.946v-.5a31.945,31.945,0,0,1,7.5,5.985l3.969-10.71a8.094,8.094,0,0,1-1.2-.756,50.6,50.6,0,0,0-10.143-5.733c-.441-7.245-.5-8.5-.567-13.419,3.15-.378,5.985-.756,7.938-1.2a17.083,17.083,0,0,1,2.331-.378l-.378-10.017a58.718,58.718,0,0,1-10.017,1.953,73.6,73.6,0,0,1,.5-11.025l-10.9.063a17.332,17.332,0,0,1,.315,3.528v8.19c-2.142.063-3.213.063-4.536.063a56.236,56.236,0,0,1-11.781-1.008ZM354.69-9.2c0,2.52-1.386,3.654-4.41,3.654-2.52,0-4.158-1.071-4.158-2.709,0-1.764,1.764-2.9,4.662-2.9a10.121,10.121,0,0,1,3.843.756ZM323.631-51.471v.315a39.458,39.458,0,0,1-.756,5.481c-1.953,11.025-2.52,16.569-2.52,25.452a123.312,123.312,0,0,0,1.386,19.089c.441,3.843.441,3.843.5,4.977L332.892,3.4c-.126-1.386-.189-2.205-.189-2.52,0-8,.693-13.1,2.646-19.215L330.5-19.971a114.83,114.83,0,0,1,3.024-24.444,35.759,35.759,0,0,1,1.827-6.237ZM379.512-9.324A81.6,81.6,0,0,1,394.38,5.67l8-8.127a80.638,80.638,0,0,0-15.372-14.112ZM872.55-24.885A35.7,35.7,0,0,0,867.7-33.39l-5.985,2.457a42.21,42.21,0,0,1,4.725,8.82Zm7.749-3.339a38.545,38.545,0,0,0-4.851-8.127l-5.922,2.394a41.268,41.268,0,0,1,4.725,8.442Zm-57.015-6.3a48.683,48.683,0,0,1,5.418-.819L850.5-37.3a25.78,25.78,0,0,0-6.174,5.355A21.567,21.567,0,0,0,838.971-17.7c0,8,3.843,13.8,11.277,17.262,4.032,1.827,8.757,2.9,15.939,3.528,1.134.126,1.449.189,2.331.315l1.449-11.97c-.882.063-1.26.063-1.89.063-4.1,0-9.45-1.008-12.033-2.268-3.591-1.7-5.292-4.158-5.292-7.749,0-5.166,3.717-10.521,10.017-14.364A29.528,29.528,0,0,1,875.2-37.3a9.581,9.581,0,0,1,1.764.126l-.567-11.4c-1.134.252-1.7.315-6.93.5-19.215.693-23.814.945-33.642,1.575-6.867.441-9.135.567-10.773.567-.5,0-1.323,0-2.394-.063Zm319.032,23.877,1.134-1.386c.819-.945.819-.945,2.205-2.52,2.394-2.646,6.3-7.56,8.757-10.9,4.284-5.859,4.347-5.922,5.355-5.922.945,0,1.449.441,3.528,2.9,11.529,13.86,16.443,19.152,24.948,26.9,1.071,1.008,1.449,1.323,2.268,2.142l5.544-12.348a28.515,28.515,0,0,1-5.355-4.032,179.426,179.426,0,0,1-17.514-18.018c-4.914-5.985-4.914-5.985-6.426-7.371a10.035,10.035,0,0,0-7.056-2.961,10.312,10.312,0,0,0-6.993,2.835c-1.449,1.323-1.7,1.638-5.8,6.8-5.544,7.056-9.009,10.836-11.592,12.789ZM361.641,50.012h.765c.714,0,1.071,0,1.785.051,2.193.051,2.193.051,4.386.051h1.632c-.2.357-.2.357-.969,1.632-.765,1.224-2.8,4.182-3.927,5.559-1.632,1.989-3.774,4.08,1.071,11.73a32.4,32.4,0,0,1,4.9-5.151c3.57-3.111,7.089-4.9,9.69-4.9a2.107,2.107,0,0,1,2.04,1.275c-2.04.918-2.55,1.122-3.774,1.734a22.465,22.465,0,0,0-7.344,5.457,9.487,9.487,0,0,0-2.5,6.426,8.2,8.2,0,0,0,4.029,7.242c2.754,1.632,6.375,2.346,12.138,2.346a100.653,100.653,0,0,0,12.291-.765,32.94,32.94,0,0,1,4.539-.459l-.561-9.18a48.3,48.3,0,0,1-16.32,2.55c-4.947,0-6.834-.765-6.834-2.7A3.519,3.519,0,0,1,380,70.31a11.575,11.575,0,0,1,3.57-2.142l.459-.2a41.859,41.859,0,0,1-.255,5.406l8.313-.255a31.641,31.641,0,0,1-.2-4.386c0-2.244,0-2.295-.051-3.672a84.35,84.35,0,0,1,13.005-3.468l-3.111-8.058a21.384,21.384,0,0,1-4.08,1.53c-1.632.51-3.009.969-3.162,1.02-2.7.918-2.7.918-3.57,1.224-1.02-3.315-3.57-4.947-7.8-4.947a15.049,15.049,0,0,0-6.477,1.53,27.631,27.631,0,0,0,2.448-3.774c5.2-.153,11.577-.51,15.2-.867q2.219-.229,4.59-.459l-.306-8.109a74.752,74.752,0,0,1-12.9,1.632c-2.6.153-2.6.153-3.111.2.051-.1.357-.918,1.02-2.4a14.825,14.825,0,0,1,1.071-2.4l-9.333-.714a18.456,18.456,0,0,1-1.581,5.661H372.3c-5.3,0-8.364-.2-10.557-.714ZM553.35,59.855a28.9,28.9,0,0,0-3.927-6.885l-4.845,1.989A34.173,34.173,0,0,1,548.4,62.1Zm6.273-2.7a31.2,31.2,0,0,0-3.927-6.579L550.9,52.511a33.406,33.406,0,0,1,3.825,6.834Zm-46.155-5.1a39.409,39.409,0,0,1,4.386-.663L535.5,49.808a20.869,20.869,0,0,0-5,4.335,17.459,17.459,0,0,0-4.335,11.526c0,6.477,3.111,11.169,9.129,13.974,3.264,1.479,7.089,2.346,12.9,2.856.918.1,1.173.153,1.887.255l1.173-9.69c-.714.051-1.02.051-1.53.051a26.725,26.725,0,0,1-9.741-1.836c-2.907-1.377-4.284-3.366-4.284-6.273,0-4.182,3.009-8.517,8.109-11.628a23.9,23.9,0,0,1,11.679-3.57,7.755,7.755,0,0,1,1.428.1l-.459-9.231c-.918.2-1.377.255-5.61.408-15.555.561-19.278.765-27.234,1.275-5.559.357-7.4.459-8.721.459-.408,0-1.071,0-1.938-.051Zm54.315-.969c1.173-.051,1.53-.051,3.825-.1a107.858,107.858,0,0,0,13.311-.561c.612,1.377,1.02,2.295,1.173,2.7a130.091,130.091,0,0,1-13.923.714,43.526,43.526,0,0,1-5.253-.2l.357,7.548a38.152,38.152,0,0,1,4.437-.255c7.344-.2,13.209-.561,17.544-1.122,1.02,1.632,1.785,2.856,2.346,3.621a33.812,33.812,0,0,0-7.038-.612A27.375,27.375,0,0,0,573.648,64.7a9.35,9.35,0,0,0-6.069,8.415,9.517,9.517,0,0,0,1.887,5.61c2.5,3.213,7.7,4.845,15.453,4.845a65.515,65.515,0,0,0,14.28-1.581,33.418,33.418,0,0,1,3.57-.714L601.6,72.656c-4.08,1.938-10.353,3.162-16.218,3.162-5.406,0-8.058-.918-8.058-2.805,0-2.142,3.111-3.315,8.772-3.315,4.437,0,7.7.663,10.71,2.244l7.5-3.876a57.872,57.872,0,0,1-6.528-9.384c.663-.153,3.009-.561,3.06-.561,5.1-1.071,5.1-1.071,6.273-1.224l-.765-7.5c-2.346.867-4.794,1.428-11.883,2.7-.2-.357-.765-1.683-1.173-2.652,5.1-.816,5.151-.867,8.109-1.479,2.8-.561,2.8-.561,3.774-.765l-.714-7.446a95.182,95.182,0,0,1-13.821,2.856,23.013,23.013,0,0,1-1.581-5.3l-8.925,1.071c.459.918,1.071,2.295,2.142,5.1-2.3.2-6.222.357-9.129.357a49.225,49.225,0,0,1-5.814-.255Zm53.754-3.213c1.02-.1,1.989-.2,3.366-.255,7.191-.357,9.231-.459,11.934-.765-6.324,6.273-17.085,14.637-21.777,16.83l4.743,7.752a37.926,37.926,0,0,1,4.9-3.825,29.328,29.328,0,0,1,15.708-4.692c5.661,0,9.129,2.193,9.129,5.763,0,2.6-1.275,4.335-4.029,5.559a11.734,11.734,0,0,0-11.475-7.956c-5.916,0-10.149,3.417-10.149,8.16,0,5.661,5.253,9.078,13.872,9.078a27.722,27.722,0,0,0,13.515-3.213c4.641-2.754,7.038-6.834,7.038-11.985a11.321,11.321,0,0,0-3.723-8.823c-2.7-2.346-6.12-3.468-10.914-3.468a24.4,24.4,0,0,0-6.987.918c3.417-2.5,4.335-3.264,7.038-5.559,6.885-5.916,6.885-5.916,8.211-6.681l-4.182-6.171a10.28,10.28,0,0,1-3.876.714c-5.151.408-10.812.612-15.351.612a57.074,57.074,0,0,1-7.344-.357Zm16.371,28.662a7.741,7.741,0,0,1-1.683.153c-2.754,0-4.386-.867-4.386-2.244a1.756,1.756,0,0,1,1.989-1.683C635.817,72.758,637.245,74.084,637.908,76.532Zm26.316-4.08A66.059,66.059,0,0,1,676.26,84.59l6.477-6.579a65.277,65.277,0,0,0-12.444-11.424Zm450.126-12.6a28.9,28.9,0,0,0-3.927-6.885l-4.845,1.989a34.169,34.169,0,0,1,3.825,7.14Zm6.273-2.7a31.2,31.2,0,0,0-3.927-6.579l-4.794,1.938a33.412,33.412,0,0,1,3.825,6.834Zm-46.155-5.1a39.409,39.409,0,0,1,4.386-.663l17.646-1.581a20.87,20.87,0,0,0-5,4.335,17.459,17.459,0,0,0-4.335,11.526c0,6.477,3.111,11.169,9.129,13.974,3.264,1.479,7.089,2.346,12.9,2.856.918.1,1.173.153,1.887.255l1.173-9.69c-.714.051-1.02.051-1.53.051a26.725,26.725,0,0,1-9.741-1.836c-2.907-1.377-4.284-3.366-4.284-6.273,0-4.182,3.009-8.517,8.109-11.628a23.9,23.9,0,0,1,11.679-3.57,7.757,7.757,0,0,1,1.428.1l-.459-9.231c-.918.2-1.377.255-5.61.408-15.555.561-19.278.765-27.234,1.275-5.559.357-7.395.459-8.721.459-.408,0-1.071,0-1.938-.051Zm50.49-.2c3.927-.561,12.24-1.02,22.8-1.326a8.294,8.294,0,0,1,.051,1.224v1.581a11.518,11.518,0,0,0-3.978-.561c-7.038,0-11.832,3.978-11.832,9.792,0,5.457,4.182,9.333,10.1,9.333a9.309,9.309,0,0,0,6.834-2.4,8.449,8.449,0,0,1-3.774,4.029c-2.448,1.53-5.355,2.346-10.506,3.111a22.969,22.969,0,0,1,4.845,8.058,41.219,41.219,0,0,0,10.251-4.131c5.457-3.417,8.415-8.415,8.415-14.127a16.22,16.22,0,0,0-2.04-8.517V50.369c2.04-.051,2.4-.051,5.1-.051a84.98,84.98,0,0,1,9.18.255l-.051-8.364c-2.04.2-5.814.306-14.28.357a34.525,34.525,0,0,1,.255-5.2H1147.3a28.7,28.7,0,0,1,.357,5.406c-4.743.153-18.462.51-19.839.51-1.275,0-1.836-.051-3.111-.153Zm19.482,7.344c2.04,0,3.366,1.071,3.366,2.652,0,1.734-1.683,3.06-3.876,3.06-1.938,0-3.366-1.173-3.366-2.754C1140.564,60.416,1142.2,59.192,1144.44,59.192Zm35.853,6.12a9.69,9.69,0,1,0,9.69,9.69A9.686,9.686,0,0,0,1180.293,65.312Zm0,5.253A4.437,4.437,0,1,1,1175.856,75" transform="translate(2905 2772.357)" fill="#101010" stroke="rgba(0,0,0,0)" stroke-width="1"/>
      <path id="Path_351" data-name="Path 351" d="M10.71-33.894c2.205-.189,5.04-.315,9.7-.315H42.021c5.1,0,6.741.063,10.332.315V-45.423a80.775,80.775,0,0,1-10.458.441H20.538a66.424,66.424,0,0,1-9.828-.441ZM4.347-2.331a97.888,97.888,0,0,1,10.332-.315H47.628a103.124,103.124,0,0,1,10.962.315V-14.112c-2.9.441-4.851.5-11.151.5H14.868a67.127,67.127,0,0,1-10.521-.5ZM105.525-7.245c.882-5.67,1.89-12.474,2.457-16.7.819-6.174.819-6.174,1.638-7.749l-4.788-3.969a7.053,7.053,0,0,1-3.591.693H86a58.054,58.054,0,0,1-8.442-.378v9.576c2.079-.189,3.969-.252,8.19-.252h12.1c-.882,8.253-1.2,10.332-2.709,18.774H79.569a55.5,55.5,0,0,1-8.442-.378V1.953C73.4,1.764,75.474,1.7,79.569,1.7h29.484c3.213,0,6.237.063,8.316.252V-7.623a71.889,71.889,0,0,1-8.253.378Zm24-10.71c3.843-.315,5.922-.378,12.978-.378h29.988a121.6,121.6,0,0,1,12.978.378V-30.114a103.368,103.368,0,0,1-12.915.567H142.443a89.273,89.273,0,0,1-12.915-.567ZM213.7-39.942v-4.851a45.326,45.326,0,0,1,.252-6.426H202.419a42.464,42.464,0,0,1,.378,6.678v4.6h-2.142a55.448,55.448,0,0,1-9.072-.441V-29.61a74.668,74.668,0,0,1,8.883-.315H202.8V-23a46.806,46.806,0,0,1-.378,6.615h11.529a56.515,56.515,0,0,1-.252-6.489v-7.056h13.293c-.063,3.591-.063,4.032-.126,5.166-.5,7.056-2.331,11.151-6.615,14.553-2.835,2.268-6.048,3.717-12.159,5.544a30.777,30.777,0,0,1,6.867,9.639C221.319,2.583,224.6.819,228-2.142c5.544-4.788,8.379-10.521,9.324-19.026.252-2.394.315-3.78.441-8.757h2.772c4.1,0,5.859.063,8.883.315V-40.383a55.448,55.448,0,0,1-9.072.441h-2.457c.063-9.324.063-9.324.315-11.214h-11.34a46.54,46.54,0,0,1,.315,7.056v4.158Zm41.769-4.1a81.883,81.883,0,0,1,7.056,20.1l10.9-3.339c-2.583-9.072-4.284-13.482-7.56-19.593Zm16.947-3.024a92.433,92.433,0,0,1,6.993,19.4L290.241-31c-2.331-8-4.473-13.482-7.5-18.837Zm26.712-1.323a36.865,36.865,0,0,1-.819,7.119c-2.142,11.088-5.859,18.4-12.6,24.759A48.619,48.619,0,0,1,267.5-5.607a32.047,32.047,0,0,1,7.749,10.08c10.521-5.1,17.451-10.4,22.995-17.514,5.418-7.056,9.135-15.624,11.4-26.523a36.884,36.884,0,0,1,1.449-5.985Zm177.6,11.34v-1.575a28.245,28.245,0,0,0,3.528-3.717h2.205a29.906,29.906,0,0,1,2.268,4.851l9.261-1.449c-.693-1.386-.882-1.764-1.827-3.4h3.339a41.3,41.3,0,0,1,6.3.315v-8.631a46.3,46.3,0,0,1-6.8.315H485.1c.63-1.323.63-1.323,1.2-2.646l-9.513-1.26c-.693,3.087-1.7,4.977-4.473,8v-4.473a26.984,26.984,0,0,1-5.859.378h-6.678c.441-1.008.63-1.449,1.2-2.646l-9.45-1.323c-1.323,4.347-4.221,7.812-9.135,11.151a33,33,0,0,1,4.977,5.292l.567.819c-1.512-.063-2.2-.063-3.276-.189a31.252,31.252,0,0,1,.189,4.158v5.229a26.23,26.23,0,0,1-.252,4.158h8V-2.079a69.271,69.271,0,0,1-.315,7.749h9.639V3.4H485.6V5.67h9.576A53.02,53.02,0,0,1,494.865,0V-7.434a39.934,39.934,0,0,1,.252-4.788c-1.386.126-2.583.189-4.536.189H461.916v-2.016h25.956c1.512,0,2.835.063,4.158.126-.126-1.386-.189-2.772-.189-5.04v-4.725h8.694a24.631,24.631,0,0,1-.252-4.221v-5.355a26.781,26.781,0,0,1,.189-3.969c-1.764.126-3.024.189-7.182.189Zm-20.1-5.355a27.569,27.569,0,0,1,1.638,4.725l8.82-1.7A27.072,27.072,0,0,0,465.57-42.4h3.4c.63,0,1.008,0,1.827.063.819.693.945.882,2.079,1.953h-5.67a13.384,13.384,0,0,1,.126,2.457v.882H449.379a30.77,30.77,0,0,0,5.355-5.355Zm34.4,14.112a33.022,33.022,0,0,1-3.591.126H456.624c-1.071,0-1.575,0-2.583-.063v-1.89h36.981Zm-29.106,6.174h20.6v2.142h-20.6Zm0,16.443h23.625v2.2H461.916Zm78.687,1.2H531.09a44.813,44.813,0,0,1-6.741-.315V4.473a57.435,57.435,0,0,1,8.064-.378h24.759a52.947,52.947,0,0,1,7.938.378V-4.788a49.044,49.044,0,0,1-7.182.315h-8.442V-8.127h6.8a50.841,50.841,0,0,1,7.056.315v-9.009a48.51,48.51,0,0,1-7.182.315h-6.678v-3.15h7.245c3.717,0,4.284,0,6.174.126a68.754,68.754,0,0,1-.315-8.82V-42.588c0-4.221.126-7.371.315-9.324a54.529,54.529,0,0,1-8.316.315H536.571a84.168,84.168,0,0,1-8.883-.315A75.122,75.122,0,0,1,528-43.029v15.12c0,4.347-.063,6.678-.252,8.442,1.7-.126,3.024-.189,7.245-.189H540.6v3.15h-5.859a51.725,51.725,0,0,1-6.93-.252v8.883a56.175,56.175,0,0,1,6.993-.252h5.8Zm0-38.493v3.717H536.76v-3.717Zm8.883,0h3.843v3.717h-3.843ZM540.6-31.878v3.906H536.76v-3.906Zm8.883,0h3.843v3.906h-3.843ZM512.19-42.21v9.828h-.567a31.96,31.96,0,0,1-4.6-.252v8.883a30.853,30.853,0,0,1,4.41-.252h.756v12.348a41.483,41.483,0,0,1-6.741,2.079l2.2,9.891c.882-.441.945-.441,1.386-.63,8.694-3.591,12.411-5.229,17.451-7.749l-.063-9.387c-2.268,1.134-2.9,1.386-4.977,2.268V-24h.378c1.386,0,2.394.063,3.843.189v-8.82a25.142,25.142,0,0,1-3.843.252h-.378V-42.21h.819a34.184,34.184,0,0,1,4.347.252v-9.261a49.582,49.582,0,0,1-5.985.315h-8.316a52.362,52.362,0,0,1-6.048-.315v9.261a38.012,38.012,0,0,1,4.41-.252Zm85.239,22.05V-4.6h-1.89c-.189-3.906-.567-8.442-1.134-12.915l-5.985.945a104.026,104.026,0,0,1,1.134,15.183l3.213-.5v6.3a55.957,55.957,0,0,1,6.93-.378H621.18a59.281,59.281,0,0,1,6.993.378V-4.914a12.57,12.57,0,0,1-2.835.315h-.567V-44.982c0-2.52.063-4.347.252-6.8a56.8,56.8,0,0,1-6.363.315H603.54c-2.2,0-4.158-.063-6.363-.252.189,2.268.252,4.284.252,6.489V-24A92.779,92.779,0,0,0,593.9-34.965L587.853-32.7l.567-.882c1.512-2.268,2.331-3.465,2.961-4.41.882-1.386,1.575-2.394,1.953-3.024a26.113,26.113,0,0,1,1.764-2.646l-7.308-4.1c-.945,2.457-2.772,5.733-6.048,11.025-.756-.945-.945-1.26-1.7-2.142a115.61,115.61,0,0,0,5.985-10.521,13.365,13.365,0,0,1,.945-1.764l-8.253-2.961a41.262,41.262,0,0,1-3.969,9.261c-.63-.63-1.071-1.134-2.079-2.142l-4.032,7.938a74.888,74.888,0,0,1,8.253,9.765c-.567.819-.756,1.071-1.386,1.89h-1.512a26.666,26.666,0,0,1-4.725-.252l.882,8.946c1.323-.252,1.323-.252,6.111-.5a17.179,17.179,0,0,0,2.331-.189V-1.071a40.726,40.726,0,0,1-.378,6.993h9.261a39.432,39.432,0,0,1-.378-6.993v-18.9c1.512-.126,1.89-.126,4.1-.378.189,1.008.252,1.323.5,2.457Zm-9.765-12.222c.693,2.142,1.2,3.654,1.449,4.41-3.087.252-3.087.252-4.914.378C585.963-29.862,586.278-30.366,587.664-32.382ZM606.5-42.714h9.009v6.93H606.5Zm0,15.183h9.009v7.119H606.5Zm0,15.372h9.009V-4.6H606.5ZM570.78-17.451c-.126,7.623-.756,12.285-2.331,16.884l6.363,3.276a79.6,79.6,0,0,0,2.331-19.341Zm73.395-9.765a58.214,58.214,0,0,1,5.859-.252h22.932a52.851,52.851,0,0,1,6.048.252v-3.465a67.193,67.193,0,0,0,8.505,4.1,35.33,35.33,0,0,1,4.41-9.891,52.368,52.368,0,0,1-14.8-6.993c-5.1-3.339-8.064-6.048-10.773-9.891H656.082c-2.646,3.906-5.607,6.741-10.458,10.143a50.007,50.007,0,0,1-14.616,7.182,33.706,33.706,0,0,1,4.725,9.261,61.266,61.266,0,0,0,8.442-4.032Zm8.316-8.946a44.72,44.72,0,0,0,8.883-8.694,48.935,48.935,0,0,0,9.261,8.694Zm-3.654,41.58V2.835H674.1V5.418h10.143a42.054,42.054,0,0,1-.378-6.993V-17.2a47.557,47.557,0,0,1,.315-6.678c-1.512.126-3.339.189-6.111.189H644.8c-2.772,0-4.6-.063-6.048-.189a62.317,62.317,0,0,1,.315,6.678V-1.638a53.253,53.253,0,0,1-.378,7.056Zm0-20.349H674.1v9.009H648.837Zm57.834-27.216a63.191,63.191,0,0,1-8.631-.378v9.639a84.839,84.839,0,0,1,8.82-.252h12.222v8.946H708.309a53.582,53.582,0,0,1-7.119-.315v9.513a72.047,72.047,0,0,1,8-.315h9.891V-5.166H705.537a81.239,81.239,0,0,1-9.828-.441V4.284a89.777,89.777,0,0,1,10.206-.441h37.926a87,87,0,0,1,9.513.441V-5.607a92.324,92.324,0,0,1-9.828.441H729.1V-15.309h11.34a55.345,55.345,0,0,1,7.119.315v-9.513a67.456,67.456,0,0,1-7.434.315H729.1v-8.946H742.14c4.221,0,6.174.063,8.694.252v-9.639a84.445,84.445,0,0,1-8.757.378H730.989l4.914-5.481a113.753,113.753,0,0,0-17.577-6.741l-6.8,6.489A97.574,97.574,0,0,1,726.2-42.147Zm57.96,3.654a31.416,31.416,0,0,1-5.229-.315v8.631a32.414,32.414,0,0,1,3.906-.252h2.835v5.166a33.63,33.63,0,0,1-8.064,3.717l3.276,8.757a60.1,60.1,0,0,0,9.324-5.607,10.91,10.91,0,0,0,4.347,3.465c3.339,1.386,6.174,1.7,14.931,1.7H796.7v1.512H767.655a56.567,56.567,0,0,1-8.379-.378v8.127a61.561,61.561,0,0,1,8.631-.378h5.985L769.545-1.26A46.263,46.263,0,0,1,778.3,6.489L785.8.441a73.635,73.635,0,0,0-5.985-4.788H796.7v1.512c0,1.134-.378,1.386-2.142,1.386a49.555,49.555,0,0,1-7.056-.567,24.584,24.584,0,0,1,2.583,8.127c2.52.063,4.032.063,4.788.063,4.662,0,7.245-.315,8.757-1.134A5.093,5.093,0,0,0,806.274.063v-4.41h1.638a61.027,61.027,0,0,1,8.631.378V-12.1a57.023,57.023,0,0,1-8.442.378h-1.827v-1.575c6.363-.063,6.363-.063,9.072-.126a20.723,20.723,0,0,1,2.079-7.371c-6.426.441-13.293.567-24.759.567-8.064,0-10.836-.189-13.1-.819a6.188,6.188,0,0,1-4.473-3.591v-8a46.133,46.133,0,0,1,.252-6.111,37.281,37.281,0,0,1-4.788.252h-1.134l6.111-6.552v2.772c1.386-.126,3.276-.189,6.3-.189h8.064a11.285,11.285,0,0,1-.756,1.512h-5.292c-2.646,0-4.347-.063-5.607-.126a34.927,34.927,0,0,1,.189,4.284V-25.83a33.277,33.277,0,0,1-.189,4.158c1.89-.063,2.268-.063,5.544-.063h24c2.961,0,3.024,0,4.914.063a39.6,39.6,0,0,1-.189-4.41v-10.71a40.255,40.255,0,0,1,.189-4.284c-1.2.063-2.835.126-5.292.126h-8.379c.378-.693.5-.882.819-1.512h9.828c3.024,0,4.914.063,6.3.189v-7.182a49.557,49.557,0,0,1-6.3.252H807.66c.315-.5.315-.5.819-1.386.756-1.386.756-1.386,1.071-1.89l-9.639-1.386a19.524,19.524,0,0,1-2.205,4.662h-5.355c-.693-1.386-1.764-3.465-2.583-4.788l-9.639,1.449A28.233,28.233,0,0,1,782.46-49.2H781.2a39.208,39.208,0,0,1-5.67-.252v3.906A64.512,64.512,0,0,0,765.2-53.424l-6.363,6.174a62.134,62.134,0,0,1,10.521,8.757ZM787.5-37.107h15.876v1.827H787.5Zm0,4.725h15.876v1.827H787.5Zm0,4.725h15.876v1.827H787.5Zm142.065-4.41v-.567a24.493,24.493,0,0,1,.315-4.725h-8.757a45.04,45.04,0,0,1,.252,5.166v2.016l-2.772.693v-2.331a19.836,19.836,0,0,1,.189-2.52h-3.654a50.877,50.877,0,0,0,2.772-4.536h18.9a59.31,59.31,0,0,1,6.111.252v-9.324a48.063,48.063,0,0,1-6.615.378H922.068a16.716,16.716,0,0,0,.693-1.638,29.341,29.341,0,0,1,1.386-2.961l-9.891-1.7c-.567,3.213-3.087,8.883-5.544,12.537v-4.536a32.033,32.033,0,0,1-5.8.315h-1.134v-2.394a29.547,29.547,0,0,1,.315-5.292H891.891a41.478,41.478,0,0,1,.315,5.355v2.331h-2.268a30.872,30.872,0,0,1-6.048-.378v9.387a20.947,20.947,0,0,1,4.536-.315c-.189,20.979-1.134,26.523-5.859,34.965a42.212,42.212,0,0,1,6.615,8.379,30.151,30.151,0,0,0,4.284-8.946,31.2,31.2,0,0,1,1.386,7.749h1.89a21.781,21.781,0,0,0,5.355-.441c2.205-.63,3.4-1.953,4.1-4.536,1.008-3.717,1.449-10.773,1.575-24.507l1.071,6.174a6.626,6.626,0,0,1,1.323-.378V-1.449c0,2.9.63,4.284,2.52,5.355,2.079,1.134,4.536,1.386,13.482,1.386,9.072,0,11.907-.441,13.86-2.142,2.205-1.89,3.024-4.6,3.528-11.277a34.894,34.894,0,0,1-8.316-2.079c5.355-.693,5.922-2.772,6.174-21.042,0-.819.063-2.205.063-3.906a22.646,22.646,0,0,1-2.457.756,17.3,17.3,0,0,1-1.7.441,18.847,18.847,0,0,1-2.142.567Zm0,14.49a25.242,25.242,0,0,1,1.7,7.56c2.142-.063,2.52-.063,3.528-.126-.063,3.906-.252,5.166-.945,5.8-.756.756-1.827.882-9.2.882-2.961,0-4.473-.126-5.292-.5-.567-.252-.756-.756-.756-1.89V-20.475l2.772-.693v8.694a40.181,40.181,0,0,1-.189,5.166h8.568a34.359,34.359,0,0,1-.189-5.229Zm0-5.607L932.841-24v.882a32.562,32.562,0,0,1-.252,4.347c-.189.693-.567.882-1.638.882a7.7,7.7,0,0,1-1.386-.189Zm-32.319-8.694.063-4.977h8.064a32.817,32.817,0,0,1,4.662,4.221c.063,1.071.126,1.827.126,2.772v2.331c-.882.252-.945.252-2.394.567,0-2.961,0-2.961.126-5.1-1.575.126-2.961.189-5.1.189Zm2.394,8.631a124.235,124.235,0,0,1-1.134,17.325c-.378,2.016-.693,2.331-2.394,2.331a14.445,14.445,0,0,1-2.205-.252c1.512-5.166,2.331-10.332,2.961-19.4Zm71.253-16.38V-8.253H957.1a87.69,87.69,0,0,1-9.828-.441V1.7a92.651,92.651,0,0,1,9.639-.441H996.03a86.035,86.035,0,0,1,9.7.441v-10.4a85.587,85.587,0,0,1-9.639.441H981.225V-39.627h12.6a76.227,76.227,0,0,1,8.946.378V-49.455a71.818,71.818,0,0,1-9.009.378H959.49a81.735,81.735,0,0,1-9.135-.378v10.206a75.468,75.468,0,0,1,9.009-.378Zm51.849,12.222a58.671,58.671,0,0,1,5.922-.252H1050.4a54.51,54.51,0,0,1,5.985.252V-31a58.61,58.61,0,0,0,9.387,4.6,42.177,42.177,0,0,1,4.41-9.954,54.421,54.421,0,0,1-15.057-6.993,37.036,37.036,0,0,1-10.647-9.7h-10.206c-2.709,3.969-5.607,6.741-10.584,10.206a48.011,48.011,0,0,1-14.49,6.93,41.19,41.19,0,0,1,4.725,9.261,57.286,57.286,0,0,0,8.82-4.284Zm7.938-8.757a43.991,43.991,0,0,0,8.883-8.379,46.546,46.546,0,0,0,8.82,8.379Zm-3.087,20.916a76.283,76.283,0,0,1-5.481,10.269c-3.717.126-3.717.126-4.41.126-1.386,0-2.52-.063-4.158-.189l1.2,10.521c1.575-.252,3.339-.441,5.544-.63,2.646-.126,19.656-1.575,23.814-2.016,3.465-.315,3.465-.315,10.773-1.134,1.512,2.394,1.512,2.394,2.961,4.662l8.694-5.355a138.2,138.2,0,0,0-13.293-16.254h6.237a64.565,64.565,0,0,1,7.623.378v-9.639c-2.268.189-4.6.315-7.623.315h-39.564c-2.9,0-5.481-.126-7.686-.315v9.639a65.724,65.724,0,0,1,7.686-.378Zm23.436,0-7.434,2.961c2.709,2.9,3.591,3.906,5.355,6.048-6.552.567-6.552.567-15.75.945a79.241,79.241,0,0,0,5.481-9.954Zm40.257-1.512a29.324,29.324,0,0,0,7.623,6.489,44.382,44.382,0,0,1,4.725-9.009,30.7,30.7,0,0,1-10.08-7.56,51.887,51.887,0,0,0,5.67-10.269,21.521,21.521,0,0,1,1.449-2.961l-4.095-4.347a22.407,22.407,0,0,1-3.654.189h-1.7v-4.6a27.194,27.194,0,0,1,.315-4.851h-10.017a29.492,29.492,0,0,1,.378,4.788v4.662h-2.835a32.979,32.979,0,0,1-4.851-.252v9.324a42.555,42.555,0,0,1,5.481-.252h8.883a27.762,27.762,0,0,1-6.552,8.757,37.926,37.926,0,0,1-9.828,7.182,35.281,35.281,0,0,1,4.032,9.45,43.98,43.98,0,0,0,5.607-3.969V-1.2a48.077,48.077,0,0,1-.378,6.93h10.08a61.791,61.791,0,0,1-.252-6.678Zm27.783-11.655h4.977c2.2,0,4.158.126,6.237.315v-9.765a41.385,41.385,0,0,1-6.237.315h-4.977v-8.505a51.572,51.572,0,0,1,.378-7.434h-10.773a54.864,54.864,0,0,1,.441,7.434v8.505h-3.276a41.485,41.485,0,0,1-6.174-.315V-28.1c2.016-.189,4.032-.315,6.174-.315h3.276V-5.355h-5.229a67.745,67.745,0,0,1-7.56-.315V4.221a72.2,72.2,0,0,1,7.371-.378h20.475c2.457,0,4.977.126,7.623.378V-5.67a66.726,66.726,0,0,1-7.686.315h-5.04ZM20.961,47.921v25.4H9.792a70.986,70.986,0,0,1-7.956-.357v8.415a75,75,0,0,1,7.8-.357H41.31a69.648,69.648,0,0,1,7.854.357V72.962a69.284,69.284,0,0,1-7.8.357H29.325v-25.4h10.2a61.71,61.71,0,0,1,7.242.306V39.965a58.139,58.139,0,0,1-7.293.306H11.73a66.167,66.167,0,0,1-7.4-.306v8.262a61.094,61.094,0,0,1,7.293-.306ZM72.624,64.547H58.293a35.394,35.394,0,0,1-5.508-.255v5.763A35.7,35.7,0,0,1,58.4,69.8H72.624v1.53H60.537a39.022,39.022,0,0,1-4.845-.153V76.43a48.614,48.614,0,0,1,5.1-.2H72.624V77.5c0,.918-.306,1.071-1.887,1.071-1.785,0-3.621-.153-6.324-.408a21.727,21.727,0,0,1,1.938,6.426c1.938.1,3.366.153,4.743.153,7.65,0,8.976-.969,8.976-6.579V76.226H89.4v1.989h7.7a43.847,43.847,0,0,1-.255-5.763V70a24.655,24.655,0,0,1,3.57.255V64.037a17.127,17.127,0,0,1-3.57.306V62.762A36.261,36.261,0,0,1,97,58.07a41.1,41.1,0,0,1-5.2.153H80.07V56.795H91.749c1.581,0,2.856.051,4.029.153a32.6,32.6,0,0,1-.153-3.468V50.114c0-1.632.051-2.5.153-3.672-1.224.1-2.295.153-4.386.153H80.07V45.116H93.789a53.739,53.739,0,0,1,6.12.255V38.894a55.418,55.418,0,0,1-6.63.306H80.07a12.474,12.474,0,0,1,.306-2.55H72.318a11.627,11.627,0,0,1,.306,2.55h-12.9a55.788,55.788,0,0,1-6.681-.306v6.477a54.016,54.016,0,0,1,6.222-.255H72.624v1.479H61.761c-2.091,0-3.162-.051-4.59-.153.1,1.224.153,2.244.153,3.672V53.48a34.687,34.687,0,0,1-.153,3.468c1.275-.1,2.6-.153,4.437-.153H72.624v1.428H60.537a36.747,36.747,0,0,1-4.743-.2V63.17c1.377-.1,2.907-.153,4.641-.153H72.624Zm7.446,0v-1.53H89.4v1.53Zm0,5.253H89.4v1.53H80.07ZM72.624,50.93v1.53H64.668V50.93Zm7.446,0h8.211v1.53H80.07Zm52.734-2.5a8.547,8.547,0,0,1,4.284,1.785c2.958,2.244,4.488,5.712,4.488,10.047,0,5.457-2.193,9.741-6.12,11.832-2.754,1.428-5.916,2.244-10.71,2.6a25.058,25.058,0,0,1,4.335,8.364c7.14-1.122,11.169-2.754,14.637-5.865C148,73.37,150.5,67.352,150.5,60.722c0-5.763-1.734-10.71-5-14.178-3.774-3.978-9.792-6.273-16.626-6.273-7.5,0-13.974,2.6-18.462,7.5a22.672,22.672,0,0,0-5.865,15.555c0,9.333,4.794,15.861,11.628,15.861,4.641,0,8.058-2.856,11.016-9.384C129.948,63.782,131.682,57.2,132.8,48.431Zm-8.823.1a66.123,66.123,0,0,1-3.825,15.555c-1.53,3.876-2.856,5.661-4.131,5.661-1.785,0-3.162-2.856-3.162-6.477a16.5,16.5,0,0,1,5.559-12.138A10.2,10.2,0,0,1,123.981,48.533Zm44.268,19.941c-1.224,5.406-5,8.007-13.719,9.588a29.021,29.021,0,0,1,4.131,6.987c8.211-2.142,13.26-5.61,16.014-11.016a14.594,14.594,0,0,0,1.683-5.559h3.06v10.4c0,4.641,1.326,5.3,10.761,5.3,6.324,0,8.517-.357,9.945-1.53,1.683-1.428,2.3-3.672,2.754-9.945a30.489,30.489,0,0,1-7.293-2.805c-.051,3.111-.306,5.763-.612,6.324-.408.663-1.326.867-4.437.867-2.856,0-3.315-.2-3.315-1.377V68.474h4.284a50.169,50.169,0,0,1,5.355.2,39.592,39.592,0,0,1-.255-5.559V43.892a43.216,43.216,0,0,1,.255-5.865,47.927,47.927,0,0,1-5.3.2H165.8a47.486,47.486,0,0,1-5.253-.2,55.87,55.87,0,0,1,.255,5.865V63.119a53.656,53.656,0,0,1-.255,5.559,46.189,46.189,0,0,1,5.3-.2Zm.051-23.766h20.706V46.85H168.3Zm0,7.65h20.706v2.193H168.3Zm0,7.7h20.706v2.193H168.3ZM229.551,76.94a26.6,26.6,0,0,1-8.67,2.4,24.708,24.708,0,0,1,3.315,5.712c5.61-1.326,8.16-2.5,12.036-5.457l-3.213-2.652h8.721l-3.111,2.652c3.876,2.907,6.528,4.08,12.138,5.457a32.7,32.7,0,0,1,3.621-6.12,31.3,31.3,0,0,1-8.721-1.989h1.122c1.53,0,2.04,0,4.131.1a31.081,31.081,0,0,1-.2-4.437V61.589a28.651,28.651,0,0,1,.2-4.284,40.494,40.494,0,0,1-4.233.1h-18.1c-2.295,0-2.958,0-3.978-.051a38.02,38.02,0,0,1,.1,3.927v1.938a23.592,23.592,0,0,1-5.406-6.477h.459a11.444,11.444,0,0,1,2.8.2V49.5a24.491,24.491,0,0,1-2.652.255H219.2V44.4c2.091-.663,2.958-.918,4.335-1.428a1.184,1.184,0,0,1,.51-.2v1.785a40.24,40.24,0,0,1,4.641-.2h5.355v1.275h-5.355c-1.785,0-2.7-.051-3.978-.153v4.386a27.283,27.283,0,0,1,3.978-.153h5.355v1.377h-6.171a37.816,37.816,0,0,1-4.539-.2v5.508a39.485,39.485,0,0,1,4.539-.2h20.706a42.746,42.746,0,0,1,4.743.2V50.879a39.361,39.361,0,0,1-4.743.2h-7.293V49.706H247.1a27.315,27.315,0,0,1,4.029.153V45.473c-1.326.1-2.193.153-4.029.153h-5.814V44.351h6.171a40.626,40.626,0,0,1,4.692.2V39.149a40.539,40.539,0,0,1-5.3.255h-5.559a9.806,9.806,0,0,1,.255-2.8h-7.752a10.246,10.246,0,0,1,.255,2.8H229.3a38.333,38.333,0,0,1-5.253-.255v3.315l-3.876-6.171c-2.346,1.428-8.211,2.958-14.586,3.825a38.93,38.93,0,0,1,2.5,6.783c1.836-.306,2.55-.459,3.774-.714v3.57h-2.091a19.193,19.193,0,0,1-3.621-.306V57a16.964,16.964,0,0,1,3.417-.255h1.785a28.564,28.564,0,0,1-6.324,11.628,29.459,29.459,0,0,1,3.111,7.65,25.057,25.057,0,0,0,3.876-7.14c-.1,1.632-.153,2.907-.153,4.845v4.794a53.8,53.8,0,0,1-.306,6.12h7.9a47,47,0,0,1-.255-6.171V69.6c0-1.53-.051-2.958-.153-4.131a24.25,24.25,0,0,0,3.111,4.335,35.424,35.424,0,0,1,2.55-5.865V72.6a40.528,40.528,0,0,1-.2,4.437c1.479-.051,2.652-.1,4.182-.1ZM231.9,61.691h11.577v1.377H231.9Zm0,4.692h11.577v1.326H231.9Zm0,4.59h11.577v1.479H231.9ZM288.66,57.764A43.062,43.062,0,0,1,278.1,58.937h-1.071c.2-1.683.255-2.091.357-2.754a21.456,21.456,0,0,0,.357-2.5,75.931,75.931,0,0,0,8.364-.357c2.5-.2,2.5-.2,3.672-.306l.306-8.466a49.625,49.625,0,0,1-11.067,1.275c.714-4.692.918-5.814,1.479-7.446l-9.435-.765v.714a44.944,44.944,0,0,1-.765,7.293,42.565,42.565,0,0,1-9.231-1.734l-.561,7.9c.765.153,1.071.2,1.836.357a68.471,68.471,0,0,0,7.038,1.173c-.408,2.856-.663,4.59-.714,5.1-4.641-.561-6.528-.918-8.874-1.785l-.612,8.16a12.515,12.515,0,0,1,2.193.306,55.977,55.977,0,0,0,6.579,1.02c-.1,1.53-.153,2.652-.153,3.774,0,4.182,1.122,7.191,3.57,9.486,2.907,2.652,7.038,4.029,12.291,4.029,5,0,9.231-1.224,12.393-3.621a12.687,12.687,0,0,0,5.2-10.1c0-4.182-1.275-7.6-4.233-11.424a26.532,26.532,0,0,1-8.415,1.632Zm-.051,2.754c2.5,2.754,3.774,5.508,3.774,8.109,0,4.08-3.315,6.528-8.874,6.528A8,8,0,0,1,278,73.472a5.491,5.491,0,0,1-1.581-4.386c0-.816.051-1.785.1-2.448,1.428.051,1.785.051,2.3.051a67.442,67.442,0,0,0,8.007-.51c1.071-.153,1.122-.153,1.632-.2Zm27.438-22.695v.408a25.2,25.2,0,0,1-.2,2.805,147.13,147.13,0,0,0-1.173,18.615c0,1.428.051,4.488.153,6.477v1.02a5.9,5.9,0,0,1-.051.867l8.568-.1a26.244,26.244,0,0,1,.2-4.182A21.635,21.635,0,0,1,329.2,51.9c1.887-2.04,3.621-2.958,5.508-2.958,3.621,0,5.661,3.519,5.661,9.894,0,11.016-5.916,15.81-20.553,16.677a30.222,30.222,0,0,1,4.08,8.721,52.4,52.4,0,0,0,6.018-1.173,30.684,30.684,0,0,0,11.628-5.3q7.8-6.12,7.8-18.666c0-5.967-1.377-10.608-4.233-14.178a12.051,12.051,0,0,0-9.231-4.641c-5.457,0-9.588,2.856-12.9,8.823a68.381,68.381,0,0,1,2.091-10.914ZM445.23,74.186a40.982,40.982,0,0,0,8.619,10.1,43.727,43.727,0,0,1,4.539-8.262,32.1,32.1,0,0,1-9.231-10.965,89.149,89.149,0,0,0,8.262-6.987L451.911,52A23.447,23.447,0,0,1,446.4,57.56a38.6,38.6,0,0,1-1.02-7.293h5.3c2.5,0,4.386.1,6.273.255v-7.7a51.171,51.171,0,0,1-6.273.306h-7.446V40.169a21.231,21.231,0,0,1,.2-3.366h-8.517a21.11,21.11,0,0,1,.2,3.417v2.907h-6.069c-2.346,0-3.366-.051-4.845-.153,1.173-3.468,1.479-4.437,1.581-4.692l-8.16-2.04a34.226,34.226,0,0,1-1.785,6.732c-1.938,5.355-4.233,9.333-7.191,12.291a44.93,44.93,0,0,1,2.652,9.333,20.163,20.163,0,0,0,2.5-3.111c-.051,2.7-.1,4.335-.1,5V78.827a47.623,47.623,0,0,1-.306,5.865h8.16a47.124,47.124,0,0,1-.306-5.865V65.516a39.338,39.338,0,0,1,2.958,4.845,40.223,40.223,0,0,0,4.029-3.519v9.129a27.3,27.3,0,0,1-5.151.459l1.02,8.058c1.02-.255,1.632-.357,2.907-.612a180.967,180.967,0,0,0,18.207-4.131ZM435.8,57.662a35.417,35.417,0,0,0,2.7-5.049c.816,7.956,2.448,13.668,5.814,19.941-5.049,1.326-5.049,1.326-8.517,2.04Zm-3.876-7.4A34.365,34.365,0,0,1,421.26,62.66V50.267a27.606,27.606,0,0,0,2.091-4.743v4.947c1.887-.153,3.162-.2,5.712-.2Zm51.918-5.253c.918-.051,1.071-.051,2.7-.051h5.61c-.255.714-.51,1.326-.918,2.3h-2.295a41.586,41.586,0,0,1-4.182-.1c.1,1.275.153,2.193.153,4.794V69.8c0,2.6-.051,3.264-.153,4.692,1.071-.051,1.989-.1,3.672-.1h.408a19.462,19.462,0,0,1-7.956,4.539,21.592,21.592,0,0,1,4.335,5.967,27.612,27.612,0,0,0,10.149-7.191,32.323,32.323,0,0,0,9.486,7.089,23.315,23.315,0,0,1,4.59-5.916,23.125,23.125,0,0,1-7.8-4.488h.714c1.326,0,2.6.051,4.386.153-.1-1.632-.153-3.621-.153-5.712V52.052c0-1.836.051-3.621.153-4.9-1.275.1-2.193.1-5.355.1h-2.5a23.9,23.9,0,0,0,.918-2.3h2.244a57.567,57.567,0,0,1,6.018.2v-7.4a42.115,42.115,0,0,1-6.018.255H489.039a42.184,42.184,0,0,1-5.814-.306v2.652a26.041,26.041,0,0,1-3.264.1h-3.417v-.306a16.023,16.023,0,0,1,.2-3.213H469a20.336,20.336,0,0,1,.255,3.519H466.8a42.623,42.623,0,0,1-5.967-.255v7.5a58.337,58.337,0,0,1,5.967-.2h2.448v2.04H467.16a42.941,42.941,0,0,1-5.151-.153,37.659,37.659,0,0,1,.2,4.59v7.038a42.633,42.633,0,0,1-.2,4.947,34.267,34.267,0,0,1,4.284-.153h1.173a28.061,28.061,0,0,1-7.8,8.67,23.419,23.419,0,0,1,3.57,7.242,29.772,29.772,0,0,0,6.069-7.9c-.051,1.428-.051,2.193-.051,3.621v2.244a29.247,29.247,0,0,1-.306,4.794H476.8a26.855,26.855,0,0,1-.255-4.845V77.195a37.65,37.65,0,0,0-.2-4.182,26.322,26.322,0,0,0,4.743,5.3,33.524,33.524,0,0,1,3.723-6.885,26.914,26.914,0,0,1-6.681-5.61H479.4a36.507,36.507,0,0,1,3.876.153c-.1-1.122-.1-2.04-.1-4.131V53.48a39.808,39.808,0,0,1,.1-4.08,39.183,39.183,0,0,1-4.029.153h-2.7v-2.04h3.366a35.645,35.645,0,0,1,3.927.153ZM498.882,74.39l-3.519,3.162-3.825-3.162ZM469.71,55.571V59.8h-1.887V55.571Zm6.222,0h1.989V59.8h-1.989Zm16.218-2.652h7.14v1.938h-7.14Zm0,6.834h7.14v1.989h-7.14Zm0,6.834h7.14v1.938h-7.14Zm236.232-7.956h5.712a32.163,32.163,0,0,1,5.151.255V50.93a32.163,32.163,0,0,1-5.151.255h-5.712v-7.4a40.919,40.919,0,0,1,.306-6.375h-8.721a40.917,40.917,0,0,1,.306,6.375V75.512a22.784,22.784,0,0,1-4.794.612l1.224,8.517c.765-.2,2.5-.714,3.366-.918,7.752-1.887,12.75-3.315,19.176-5.457l-.051-7.446c-4.284,1.275-6.783,1.938-10.812,2.907Zm19.941,2.448a104.307,104.307,0,0,0,13.821-8.16c.867-.714,1.224-.918,1.683-1.275l-5.253-6.528c-1.734,2.091-5.712,5.049-10.251,7.6V43.892a40.139,40.139,0,0,1,.306-6.375h-8.517a39.754,39.754,0,0,1,.306,6.375V77.909c0,3.213.714,4.692,2.55,5.457,1.428.612,3.417.816,7.752.816,5.763,0,8.058-.408,9.69-1.734,2.244-1.887,2.856-4.59,3.264-14.382a24.186,24.186,0,0,1-7.7-2.958v1.938c0,5.049-.255,8.211-.765,8.925-.408.663-1.377.867-3.723.867-2.652,0-3.162-.2-3.162-1.173Zm38.352,17.136A25.635,25.635,0,0,1,790.857,85a32.586,32.586,0,0,0,10.251-7.446,37.141,37.141,0,0,0,10.3,7.344,24.471,24.471,0,0,1,3.978-7.7c-4.488-1.734-6.936-3.162-9.741-5.763a34.845,34.845,0,0,0,3.672-8.874c.714.714,1.02,1.02,2.04,1.989a23.035,23.035,0,0,1,4.08-6.936,29.484,29.484,0,0,1-7.4-9.18h1.122a43.16,43.16,0,0,1,5.253.255v-7.6a36.651,36.651,0,0,1-5.2.255h-3.978V39.965a21,21,0,0,1,.2-3.468h-8.262a24.823,24.823,0,0,1,.2,3.621v1.224h-2.091a33.092,33.092,0,0,1-5.049-.255v7.548a36,36,0,0,1,3.672-.2,26.235,26.235,0,0,1-4.845,7.7V54.143c0-3.213,0-3.876.1-5.151a35.407,35.407,0,0,1-4.029.1h-2.8V47.258h2.04a37.684,37.684,0,0,1,4.845.153V40.526a29.419,29.419,0,0,1-4.845.255h-2.04v-.408a20.149,20.149,0,0,1,.306-3.774h-7.7a22.182,22.182,0,0,1,.306,3.774v.408h-3.162a30.447,30.447,0,0,1-4.947-.255v6.936a42.629,42.629,0,0,1,4.947-.2h3.162v1.836h-1.734a48.919,48.919,0,0,1-5.3-.153,56.859,56.859,0,0,1,.2,5.814v8.772c0,2.754-.051,4.488-.2,6.375,1.989-.1,2.856-.1,5.355-.1h1.683v1.785h-3.468a30.449,30.449,0,0,1-4.947-.255v7.14a31.623,31.623,0,0,1,4.947-.255h3.468V79.9a33.184,33.184,0,0,1-.306,4.743h7.65a38.377,38.377,0,0,1-.255-4.386v-2.04h4.335Zm3.366-6.885a24.509,24.509,0,0,1-4.131.255h-3.57V69.8h2.55a41.1,41.1,0,0,1,4.284.1c-.051-1.683-.1-3.264-.1-5.916v-2.55a30.643,30.643,0,0,1,2.04,3.366q1.071-1.147,1.377-1.53a39,39,0,0,0,3.978,8.415,27.718,27.718,0,0,1-6.426,4.9Zm6.018-12.546a46.175,46.175,0,0,0,4.386-7.905l-4.539-2.448H806l-4.233,2.5a38.724,38.724,0,0,0,4.488,7.956l-3.162-1.02a27.6,27.6,0,0,1-2.193,7.293,25.491,25.491,0,0,1-2.55-7.191Zm-14.586,5.559v-2.55h2.142v2.55Zm0-7.4v-2.4h2.142v2.4Zm-5.406-2.4v2.4h-2.142v-2.4Zm0,7.242v2.55h-2.142v-2.55Zm76.3-7.752H854.2c1.938,0,2.805.051,3.672.1V51.287a34.234,34.234,0,0,0,5.355,2.805,36.615,36.615,0,0,1,3.315-7.191,31.187,31.187,0,0,1-7.65-3.723c-3.264-2.193-5.1-4.029-6.477-6.477h-7.65a20.055,20.055,0,0,1-5.967,7.242,35.017,35.017,0,0,1-4.641,3.111V45.065a10.374,10.374,0,0,1-2.295.2h-.918V41.954a37.387,37.387,0,0,1,.306-5.355h-8.058a36.9,36.9,0,0,1,.306,5.355v3.315h-1.734a13.972,13.972,0,0,1-3.315-.255v7.6a14.236,14.236,0,0,1,3.315-.255h1.224a34.494,34.494,0,0,1-5.814,13.617,38.827,38.827,0,0,1,2.805,8.619,31.521,31.521,0,0,0,3.723-8.16c-.1,1.632-.153,3.825-.153,5v6.732a61.347,61.347,0,0,1-.306,6.579h8.007a60,60,0,0,1-.306-6.579V67.25c0-2.244-.051-3.774-.1-5.151a18.068,18.068,0,0,0,2.4,4.488,45.662,45.662,0,0,1,2.193-6.12v7.4c0,1.224,0,1.887-.1,3.366a40.811,40.811,0,0,1,4.641-.2h3.162c-2.652,3.774-5.253,5.253-11.118,6.324a24.345,24.345,0,0,1,3.876,7.344C842.724,82.6,846.243,80,849.15,75a20.533,20.533,0,0,0,5.916,5.967,26.233,26.233,0,0,0,7.956,3.825,30.427,30.427,0,0,1,3.417-7.9,20.42,20.42,0,0,1-12.189-5.865h4.08a41.772,41.772,0,0,1,4.692.2,34.967,34.967,0,0,1-.2-3.927V60.008c0-1.428.051-2.5.2-4.284a33.215,33.215,0,0,1-4.335.2h-6.324Zm-6.936,0v1.887h-5.916a41.059,41.059,0,0,1-4.233-.1c.1,1.02.1,1.785.153,3.162a19.8,19.8,0,0,1-4.233-6.63h.765a10.016,10.016,0,0,1,2.193.2v-2.55a34.36,34.36,0,0,1,2.091,4.131,46.079,46.079,0,0,0,4.284-2.652v2.652a34.6,34.6,0,0,1,3.672-.1Zm-.051,7.752c-.1,1.581-.153,2.142-.255,3.366h-2.958V61.793Zm10.4,0v3.366h-3.723c.1-1.479.153-1.938.2-3.366ZM845.274,47.411a24.394,24.394,0,0,0,3.468-4.335,21.618,21.618,0,0,0,3.825,4.335Zm66.606,6.528a42.578,42.578,0,0,1,4.9.255v-7.8a36.869,36.869,0,0,1-4.9.306V43.382a54.26,54.26,0,0,1,.306-6.63h-8.364a54.838,54.838,0,0,1,.306,6.63V46.7h-7.5a46.46,46.46,0,0,1-6.069-.306v7.854a57.406,57.406,0,0,1,6.171-.306h7.4V75.563c0,.969-.561,1.275-2.4,1.275-1.785,0-4.437-.2-7.191-.51a30.947,30.947,0,0,1,1.836,7.854c2.04.1,3.009.153,4.233.153,4.539,0,6.834-.255,8.313-.867,2.04-.867,2.958-2.7,2.958-6.222ZM870.621,43.433c1.326-.1,2.448-.153,4.641-.153h8.517c2.244,0,3.264.051,4.641.153V37.466a36.988,36.988,0,0,1-4.641.2h-8.517a36.989,36.989,0,0,1-4.641-.2Zm-1.836,8.262a31.81,31.81,0,0,1,4.131-.2h12.648a25.1,25.1,0,0,1,4.029.153V44.861a39.426,39.426,0,0,1-4.131.153H872.916a22.739,22.739,0,0,1-4.131-.255Zm1.887,7.191a25.892,25.892,0,0,1,3.06-.1h11.781a23.589,23.589,0,0,1,2.907.1V53.123a21.493,21.493,0,0,1-2.907.1H873.732a25.443,25.443,0,0,1-3.06-.1Zm0,7.293a24.489,24.489,0,0,1,2.958-.1h11.73a25.89,25.89,0,0,1,3.06.1V60.416a22.773,22.773,0,0,1-2.958.1h-11.73a25.443,25.443,0,0,1-3.06-.1Zm6.936,18.513V82.6h3.774v1.377h7.344c-.1-1.275-.153-2.346-.153-3.978V71.075a32.914,32.914,0,0,1,.153-3.417,15.621,15.621,0,0,1-3.162.153H873.987a35.213,35.213,0,0,1-3.774-.1,27.574,27.574,0,0,1,.2,3.774v8.211c0,1.632-.1,3.417-.255,5Zm-.153-11.271h3.978v3.162h-3.978ZM889.542,59.4a54.68,54.68,0,0,1,5.916,13.056l7.089-3.978a65.16,65.16,0,0,0-6.528-12.546Zm48.45-11.73V43.739a36.7,36.7,0,0,1,.2-5.2h-9.333a34.373,34.373,0,0,1,.306,5.406v3.723h-1.734a44.886,44.886,0,0,1-7.344-.357V56.03a60.446,60.446,0,0,1,7.191-.255h1.887v5.61a37.884,37.884,0,0,1-.306,5.355H938.2a45.761,45.761,0,0,1-.2-5.253V55.775h10.761c-.051,2.907-.051,3.264-.1,4.182-.408,5.712-1.887,9.027-5.355,11.781-2.3,1.836-4.9,3.009-9.843,4.488a24.915,24.915,0,0,1,5.559,7.8c5.151-1.938,7.8-3.366,10.557-5.763,4.488-3.876,6.783-8.517,7.548-15.4.2-1.938.255-3.06.357-7.089h2.244c3.315,0,4.743.051,7.191.255V47.309a44.886,44.886,0,0,1-7.344.357h-1.989c.051-7.548.051-7.548.255-9.078h-9.18a37.677,37.677,0,0,1,.255,5.712v3.366Zm69.207-9.945c-1.479,2.55-4.9,6.018-9.282,9.333-8.211,6.324-16.014,10.149-27.081,13.26a27.384,27.384,0,0,1,4.9,8.211,86.81,86.81,0,0,0,16.677-7.548V75.053a69.292,69.292,0,0,1-.306,8.211H1002a72.887,72.887,0,0,1-.306-8.262V55.367a85.484,85.484,0,0,0,11.781-10.251,18.253,18.253,0,0,1,1.989-1.887Zm34.935,45.288a74.789,74.789,0,0,1-.306-7.8V61.946a12.248,12.248,0,0,0,2.3,1.02,94.536,94.536,0,0,1,16.065,8.874l4.845-8.67a108.171,108.171,0,0,0-23.2-10.608V45.575a65.95,65.95,0,0,1,.255-7.446h-9.843a48.245,48.245,0,0,1,.357,7.4V75.206a72.794,72.794,0,0,1-.306,7.8Z" transform="translate(2905 2772)" fill="#0d68ac"/>
    </g>
    <g id="Group_62" data-name="Group 62" transform="translate(2541 1630)">
      <rect id="Rectangle_22" data-name="Rectangle 22" width="1200" height="135" transform="translate(360 1257)" fill="#0d68ac"/>
      <path id="Path_349" data-name="Path 349" d="M-486.09-51.7a125.963,125.963,0,0,1,15.4.66V-69.52a144.762,144.762,0,0,1-15.51.66h-25.08V-72.6c.22-14.3.22-14.3.88-18.59h-20.13a64.245,64.245,0,0,1,.77,11.77c0,3.63,0,6.16-.11,10.56h-23.65a135.629,135.629,0,0,1-15.4-.66v18.48c4.4-.55,7.26-.66,15.51-.66h22.11c-1.54,10.67-5.28,18.81-12.1,26.29-7.37,8.25-15.84,13.75-28.93,18.81A75.522,75.522,0,0,1-561.66,9.9a96.665,96.665,0,0,0,11.44-5.83,83.646,83.646,0,0,0,18.7-15.73,69.307,69.307,0,0,0,12.54-19.91A77.214,77.214,0,0,0-501.71-7.04,93.863,93.863,0,0,0-477.18,9.9a71.818,71.818,0,0,1,11-17.71c-12.21-4.84-20.9-10.34-28.49-17.93A67.393,67.393,0,0,1-510.73-51.7Zm58.63,24.97c1.87,4.07,2.64,8.03,2.86,14.41,3.63,0,5.83-.55,7.81-1.87,2.64-1.87,3.52-4.4,3.52-10.56V-67.1a71.645,71.645,0,0,1,.22-8.36,52.552,52.552,0,0,1-6.82.33h-6.16v-8.8a59.285,59.285,0,0,1,.66-9.57h-17.27a61.232,61.232,0,0,1,.66,9.57v8.8h-4.51c-3.85,0-6.27-.11-8.58-.33.22,2.31.22,4.29.22,9.46v43.12c0,4.07-.11,7.81-.44,11.66h12.1c-.22-3.41-.33-5.61-.33-10.67V-59.95h2.97V.55a48.254,48.254,0,0,1-.66,9.57h14.3a62.988,62.988,0,0,1-.55-9.68Zm0-33.22h3.08v31.13q0,1.32-1.65,1.32a8.552,8.552,0,0,1-1.43-.11Zm13.64-16.61A97.811,97.811,0,0,1-403.04-77h39.6a98.712,98.712,0,0,1,10.89.44V-91.63a77.794,77.794,0,0,1-10.89.55h-39.6a77.075,77.075,0,0,1-10.78-.55Zm5.61,21.89a54.5,54.5,0,0,1-.44,7.81c3.08-.22,6.49-.33,11.11-.33h29.7c5.06,0,8.03.11,11,.33a44.268,44.268,0,0,1-.55-7.81V-66.11a43.01,43.01,0,0,1,.55-7.7c-3.3.22-6.05.33-10.67.33h-30.03c-5.28,0-7.59-.11-11.11-.33a54.5,54.5,0,0,1,.44,7.81Zm15.84-7.92h18.7v4.29h-18.7Zm-18.04,59.4a118.288,118.288,0,0,1-.55,13.2h16.06V6.05h25.3v3.96h16.28a118.855,118.855,0,0,1-.55-13.42V-32.23a112.454,112.454,0,0,1,.55-11.88,116.155,116.155,0,0,1-11.99.44h-33.66a113.806,113.806,0,0,1-11.88-.44c.33,3.85.44,6.93.44,11.88Zm14.85-27.06h6.71v5.06h-6.71Zm20.02,0h6.93v5.06h-6.93ZM-395.56-13.2h6.71v5.5h-6.71Zm20.02-.11h6.93v5.5h-6.93Zm62.26-79.31a73.454,73.454,0,0,1-1.65,13.09,37.793,37.793,0,0,0-.99,4.62c-2.2.11-2.75.11-3.96.11a89.924,89.924,0,0,1-16.06-1.1v17.6h4.29c2.53.11,2.53.11,5.06.11h6.16c-4.95,15.51-12.54,31.13-20.35,41.58l17.93,9.79a44.465,44.465,0,0,1,2.09-4.29c4.29-8.58,5.28-10.56,7.59-15.62a226.16,226.16,0,0,0,11.99-31.9c2.75-.22,8.8-.77,11.77-1.1,5.5-.66,5.5-.66,8.14-.88l-.33-17.82c-3.52,1.1-8.25,1.87-15.29,2.64.55-2.53.77-3.52,1.32-6.16,1.32-6.82,1.43-6.82,2.09-8.8Zm76.23,26.84c-10.23-5.94-19.25-9.9-33.11-14.85l-9.13,15.18a155.636,155.636,0,0,1,34.21,15.84Zm-.99,50.38c-3.3-2.64-5.06-4.07-5.39-4.29a80.562,80.562,0,0,0-16.94-9.79,97.957,97.957,0,0,1-.88-12.76,51.113,51.113,0,0,1,1.21-12.43l-18.15-.77c-.44,4.95-.66,8.47-.66,12.98,0,2.53.11,4.62.44,8.8a45.024,45.024,0,0,0-7.7-.66c-15.29,0-25.96,8.91-25.96,21.67A19.212,19.212,0,0,0-306.57.99c4.51,4.62,11.99,7.26,20.79,7.26s16.5-2.53,20.79-6.82c2.97-3.08,4.29-6.27,4.62-11.44A58.909,58.909,0,0,1-246.18,1.98Zm-40.04-1.87a11.2,11.2,0,0,1,.22,2.42c0,4.62-2.86,7.04-8.36,7.04-4.73,0-7.81-2.09-7.81-5.28,0-3.41,3.3-5.61,8.47-5.61A19.121,19.121,0,0,1-278.08-17.27Zm119.46-23.21a37.544,37.544,0,0,1,.22-4.07c-.99.11-3.41.22-5.06.22h-12.21c-3.41,0-5.83-.11-7.04-.22.11,1.32.22,4.29.22,7.15v25.41a55.442,55.442,0,0,1-.33,6.71h10.56V-9.13h10.01A92.072,92.072,0,0,1-174.57.44,55.553,55.553,0,0,1-162.25,11,78.014,78.014,0,0,0-146.63-3.85c4.73,9.35,8.8,13.09,14.08,13.09,7.81,0,11.66-7.92,12.43-25.63a49.339,49.339,0,0,1-10.89-6.93,78.474,78.474,0,0,1-.88,10.45,13.091,13.091,0,0,0-.33,1.87c0,.77-.22,1.32-.44,1.32a.384.384,0,0,1-.11-.22,3.661,3.661,0,0,1-.33-.66,49.659,49.659,0,0,1-3.96-8.03c3.96-7.26,4.62-8.8,8.47-18.81a143.047,143.047,0,0,0,4.95-14.63c.66-2.2.88-3.19,1.43-4.62l-15.18-5.5c0,4.29-1.76,11.88-4.51,20.13-.88-9.68-1.1-14.19-1.43-25.3h7.81c5.72,0,8.03.11,11.55.33V-83.05c-1.21.11-1.54.22-2.42.33a74.263,74.263,0,0,0-4.73-11.88l-11,3.41a65.329,65.329,0,0,1,3.52,8.69h-4.95c.11-6.38.22-8.14.77-11.11H-159.5a67.278,67.278,0,0,1,.66,11.11h-30.03c-3.3,0-7.48-.11-9.9-.33-3.74-3.96-7.15-6.71-13.31-10.89L-224.29-82.5a77.393,77.393,0,0,1,16.83,14.96l7.7-7.59c.22,2.75.22,5.06.22,9.24,0,4.62,0,8.14-.11,12.65-4.84-4.51-8.25-7.04-15.73-11.66l-10.89,11.99c10.34,7.15,11,7.7,17.27,13.53l9.24-11c-.44,18.15-.77,24.64-1.43,29.81A53.333,53.333,0,0,1-208.12-.33a56.663,56.663,0,0,1,13.53,10.78c6.05-10.78,8.58-21.23,9.35-39.05,0-2.09.22-8.8.33-20.13h27.5c.99,12.43,2.31,20.46,4.62,28.82a61.975,61.975,0,0,1-5.83,7.26V-40.48ZM-184.8-62.59v-4.73h26.18c.11,2.64.11,2.64.22,4.73Zm11.77,30.91h5.06v9.13h-5.06Zm-42.13-4.51c-3.19,15.73-7.15,27.5-11,33.11L-212.3,9.13a14.691,14.691,0,0,1,.77-1.98c.66-1.65.66-1.65,1.32-3.52.22-.66.44-1.43.77-2.2,3.08-9.13,3.63-11.22,6.71-27.39ZM-102.85-1.87a96.832,96.832,0,0,1-.55,10.45h15.95V3.85h11V7.04h15.29c-.11-2.64-.22-3.96-.22-4.18V1.65a43.742,43.742,0,0,1,6.6,9.24C-46.53,6.6-41.47,2.86-34.32-4.4c7.26,7.15,12.54,10.78,21.89,15.18A57.117,57.117,0,0,1-3.74-3.63c-7.59-2.64-12.32-5.06-16.61-8.47h1.32c6.05.11,6.05.11,6.27.22,2.2.11,2.2.11,3.08.11-.22-4.29-.33-7.15-.33-12.21V-62.37c0-3.85.11-5.61.33-9.57-2.09.33-3.3.33-11.55.33h-4.4a41.165,41.165,0,0,0,1.98-4.62h4.62c9.13.11,9.13.11,10.01.22a11.845,11.845,0,0,0,2.42.22V-91.74a88.174,88.174,0,0,1-12.43.55H-46.75a85.757,85.757,0,0,1-12.43-.55v6.16c-1.76.11-4.18.11-7.26.11h-7.7v-.77a29.537,29.537,0,0,1,.44-6.6H-90.97a58.566,58.566,0,0,1,.44,6.27v1.1h-9.02a70.938,70.938,0,0,1-8.69-.33c.22,4.62.33,6.16.33,7.92v6.82c0,.55-.11,4.07-.11,4.4-.22,2.64-.22,2.64-.33,3.41H-97.9a47.131,47.131,0,0,1-12.98,10.67,45.032,45.032,0,0,1,7.92,12.1,54.835,54.835,0,0,0,5.5-4.07,53.082,53.082,0,0,0,4.29,4.51,61.33,61.33,0,0,1-18.26,6.38c3.41,4.4,4.73,7.48,5.94,13.64,1.21-.44,1.54-.55,2.64-.88Zm13.09-24.64a63.452,63.452,0,0,0,8.58-5.17A77.423,77.423,0,0,0-69.3-26.51ZM-34.21-5.94l-7.81-6.16h15.18ZM-88.44-53.68h11.33a38.42,38.42,0,0,1-5.5,6.05,25.241,25.241,0,0,1-6.05-5.72Zm24.86-9.68h5.61c-.22-1.65-.22-2.64-.22-8.36V-75.9c1.87-.11,8.14-.33,11.44-.33h7.04c-.66,1.76-.88,2.09-1.98,4.62h-5.5c-6.82,0-7.04,0-8.91-.22.11,3.74.22,7.15.22,10.34v22.88a60.287,60.287,0,0,1-14.19-3.08A81.869,81.869,0,0,0-60.5-55c.88-1.32,1.1-1.76,1.98-2.97Zm-8.58-2.09h-8.69l.88-1.76.88-1.65-14.19-2.2v-.99h21.12Zm10.78,47.19c0-4.51,0-4.51.11-5.94l1.98.55c.88-6.6,1.54-8.8,3.41-12.76V-22c0,1.65-.11,8.03-.22,10.12h1.98a44.538,44.538,0,0,1,6.16-.22A42.364,42.364,0,0,1-61.38-3.08Zm-25.96,3.85h10.67v6.05H-87.34Zm47.08-45.1h14.52v4.18H-40.26Zm0,14.85h14.52v4.29H-40.26Zm0,15.29h14.52v4.29H-40.26ZM69.41-81.29A65,65,0,0,1,79.2-66.66l11-5.06a68.072,68.072,0,0,0-9.79-14.41Zm14.3-6.05a73.769,73.769,0,0,1,9.57,14.3l10.67-5.17a62.833,62.833,0,0,0-9.68-13.86ZM77.77-62.81a72.8,72.8,0,0,1,8.25,16.28,124.3,124.3,0,0,1,7.04,24.42l18.04-8.58c-3.74-15.4-9.13-27.94-17.16-39.6ZM8.69-47.52a132.625,132.625,0,0,1,17.16-3.19C21.45-33.22,12.21-11.44,5.17-1.98L23.32,7.59c.66-1.65.88-2.2,1.76-4.07,6.38-13.75,8.14-18.15,11.66-28.27a229.157,229.157,0,0,0,7.81-27.39,39.94,39.94,0,0,1,4.4-.22c3.85,0,5.39.44,6.6,1.87,1.43,1.54,2.09,4.18,2.09,8.8,0,8.47-1.32,19.58-2.97,24.42-1.21,3.52-2.64,4.95-4.95,4.95-3.19,0-8.8-1.43-15.07-3.96A52.222,52.222,0,0,1,36.3-3.08a49.94,49.94,0,0,1-.33,6.38C43.45,5.39,48.4,6.16,53.46,6.16a21.009,21.009,0,0,0,8.58-1.54,18.194,18.194,0,0,0,7.04-6.49c4.4-7.7,6.93-21.89,6.93-39.05,0-12.43-2.2-19.14-7.81-23.65-3.74-2.97-8.8-4.4-15.62-4.4a36.491,36.491,0,0,0-4.73.22c.44-2.64,1.21-6.82,2.09-11.88,1.1-6.38,1.1-6.38,1.76-8.58L31.79-91.08v1.87c0,3.74-.77,10.23-2.53,21.67-7.15.99-17.71,1.87-21.23,1.87a3.789,3.789,0,0,1-.99-.11Zm155.43-5.94c0,1.76,0,1.76-.11,3.85H143.44a100.87,100.87,0,0,1-10.23-.33v13.42a71.927,71.927,0,0,1,10.23-.44h19.8c-.22,1.54-.33,2.31-.66,4.07H135.63a84.949,84.949,0,0,1-12.32-.55v14.96c4.62-.44,8.69-.66,13.31-.66h20.13c-4.07,4.73-8.58,7.81-15.51,10.34-5.72,1.98-10.56,2.97-19.91,3.74a46.772,46.772,0,0,1,7.7,15.95c11.99-1.98,19.47-4.4,27.39-9.02a43.963,43.963,0,0,0,15.62-14.52A54.09,54.09,0,0,0,192.5,3.19c7.81,3.63,13.64,5.39,25.63,7.7,1.87-6.82,3.19-9.57,7.48-16.5-14.19-1.76-22.44-3.74-29.04-6.71a30.738,30.738,0,0,1-10.01-6.82h23.21a128.1,128.1,0,0,1,13.53.66V-33.44a90.263,90.263,0,0,1-12.65.55H179.52c.22-1.65.22-1.98.44-4.07h22.66a73.782,73.782,0,0,1,10.34.44V-49.94a100.511,100.511,0,0,1-10.34.33h-22c.11-1.87.11-1.87.11-3.85h21.23a72.94,72.94,0,0,1,10.23.44V-59.4h10.56a71.027,71.027,0,0,1-.44-8.58v-9.46a81.492,81.492,0,0,1,.44-8.58c-3.63.33-7.15.44-13.2.44H181.17v-.88a40.579,40.579,0,0,1,.55-7.04H163.24a46.1,46.1,0,0,1,.44,7.15v.77H136.95c-6.05,0-9.68-.11-13.2-.44.33,3.74.44,6.05.44,8.91v9.02a47.873,47.873,0,0,1-.55,8.69h10.67v6.38a65.4,65.4,0,0,1,10.01-.44Zm42.02-17.6v4.73h-25.3c0-1.54,0-1.65.11-4.73Zm-42.02,0c.11,1.76.11,2.31.11,4.73H140.36v-4.73ZM306.13-26.62V.11c0,7.37,2.86,9.02,15.62,9.02,9.35,0,13.09-.77,15.51-3.3s3.3-6.38,4.29-19.25a48.071,48.071,0,0,1-13.64-5.94c-.11,6.6-.44,11.88-.99,12.76-.22.44-1.21.77-2.42.77-1.76,0-2.31-.33-2.31-1.43V-26.62h3.08l2.86-.11c2.09.22,3.41.22,4.07.33a28,28,0,0,1,3.41.11,115.412,115.412,0,0,1-.55-12.32V-79.97a93.461,93.461,0,0,1,.44-11,89.559,89.559,0,0,1-10.67.44H289.3a80.56,80.56,0,0,1-10.67-.44c.22,3.19.22,4.73.22,11V-37.4c0,4.07-.11,7.48-.22,11.11,4.07-.22,6.71-.33,8.03-.33-.55,6.27-1.98,10.12-5.28,13.53-4.07,4.29-11.44,7.92-21.12,10.45a45.506,45.506,0,0,1,8.91,14.08c17.16-5.61,26.95-13.86,31.24-26.07,1.32-3.85,1.76-6.16,2.31-11.99ZM294.91-76.89h23.98v4.73H294.91Zm0,16.17h23.98v4.62H294.91Zm0,16.06h23.98v4.62H294.91ZM249.48-73.7v17.38h-1.76a55.8,55.8,0,0,1-8.03-.44v15.4a55.292,55.292,0,0,1,7.59-.44h2.2v19.58a105.275,105.275,0,0,1-12.98,3.19l3.85,17.49c1.54-.55,2.31-.88,4.4-1.54a244.544,244.544,0,0,0,31.9-13.2l-.33-15.51c-5.28,2.2-6.6,2.75-10.56,4.29V-41.8h2.2c2.2,0,4.4.11,6.82.33V-56.65a52.551,52.551,0,0,1-6.82.33h-2.2V-73.7h1.43a76.918,76.918,0,0,1,9.13.44V-89.32a76.63,76.63,0,0,1-10.56.55H249.04a76.63,76.63,0,0,1-10.56-.55v16.06c4.29-.33,5.94-.44,9.46-.44Zm177.43-.22v63.47c0,2.97-.88,3.63-5.06,3.63a153.585,153.585,0,0,1-15.62-.99c2.2,4.51,3.63,9.79,4.4,16.83,4.95.11,7.26.22,10.56.22,19.03,0,22.77-2.53,22.77-15.62V-73.81c4.62.11,7.26.22,11.33.55V-90.31c-5.06.44-9.79.66-15.4.66H369.6c-5.94,0-10.34-.22-15.18-.66v17.05c5.5-.44,10.12-.66,15.4-.66ZM416.9-56.54a74.3,74.3,0,0,1,.44-9.57,98.21,98.21,0,0,1-10.67.44H374.44a84.9,84.9,0,0,1-10.23-.44,78.308,78.308,0,0,1,.55,10.67v34.65A93.214,93.214,0,0,1,364.1-9.9h17.05v-8.14h25.96c2.53,0,7.37.22,10.23.44a94.3,94.3,0,0,1-.44-9.57ZM381.04-50.6h19.47v17.49H381.04Zm98.56-7.04a64.211,64.211,0,0,1-7.04-.22c.22,3.3.33,6.27.33,10.01V-2.86a90.969,90.969,0,0,1-.66,12.98h17.38a115.37,115.37,0,0,1-.55-12.98v-9.02h12.98v4.95c0,.88-.99,1.32-2.75,1.32a32.713,32.713,0,0,1-6.16-.66,58.154,58.154,0,0,1,3.19,15.29c2.64.11,4.84.11,6.27.11,6.71,0,10.89-1.32,13.2-4.07,1.54-1.98,2.2-4.51,2.2-9.02V-47.52a87.79,87.79,0,0,1,.44-10.45c-2.31.22-3.52.22-6.82.33l11-6.49v9.79c0,4.62,1.65,6.93,5.83,8.25,3.08.88,6.6,1.21,14.19,1.21,14.52,0,19.8-.77,22.99-3.3,3.08-2.64,4.07-6.27,4.95-18.26a57.5,57.5,0,0,1-15.51-3.96c-.11,6.16-.33,8.58-.99,9.35-1.1,1.1-3.3,1.43-8.91,1.43-5.39,0-6.16-.33-6.16-2.64v-4.07a158.087,158.087,0,0,0,27.5-10.12c1.87-.88,2.64-1.21,4.62-1.98L559.79-92.62a45.146,45.146,0,0,1-10.34,6.38A58.174,58.174,0,0,1,539-81.95V-84.7a55,55,0,0,1,.44-8.36H522.17a70.864,70.864,0,0,1,.44,9.24v13.31A130.577,130.577,0,0,0,511.5-89.76l-12.43,5.83c2.09,3.96,2.75,5.17,3.63,6.93-4.07.44-6.05.55-10.34.88,3.08-5.39,5.17-9.35,6.49-12.1a25.91,25.91,0,0,1,2.09-3.96L483.12-94.6a69.8,69.8,0,0,1-7.59,19.14h-2.09c-1.54,0-3.85-.11-5.72-.22l1.54,16.72a58.936,58.936,0,0,1,7.26-.77c11.66-.88,24.2-2.2,32.34-3.52.66,1.76.88,2.31,2.09,5.61H479.6Zm9.35,13.31h13.09v4.29H488.95Zm0,16.17h13.09v4.4H488.95ZM539-33.22a57.136,57.136,0,0,1,.44-8.69H522.17a75.1,75.1,0,0,1,.44,9.68V-1.21c0,3.96.99,6.05,3.63,7.7,2.86,1.65,7.26,2.31,17.05,2.31,14.52,0,19.58-.88,22.88-3.96,3.41-3.08,4.4-6.6,5.17-19.47a57.1,57.1,0,0,1-15.73-4.51c-.11,7.26-.33,10.01-.99,11.11-.88,1.32-3.08,1.76-8.25,1.76-5.83,0-7.37-.66-7.37-2.97v-7.15c12.1-3.08,19.14-5.5,32.89-11.66L560.23-41.69c-5.94,4.29-12.43,7.26-21.23,9.9Z" transform="translate(960.33 1365.6)" fill="#fff"/>
    </g>
  </g>
</svg>
