<svg xmlns="http://www.w3.org/2000/svg" width="1191.267" height="248.48" viewBox="0 0 1191.267 248.48">
  <g id="Group_64" data-name="Group 64" transform="translate(-2971.323 -4081.316)">
    <path id="Path_353" data-name="Path 353" d="M337.491-30.24h.756c.189,0,.693,0,1.449.063,5.292.189,8.946.315,10.836.315,1.26,0,2.142,0,3.591-.063.063,2.2.063,3.087.126,5.229.126,2.961.126,3.276.189,5.04a18.461,18.461,0,0,0-3.654-.378c-3.969,0-7.308.882-9.7,2.583a11.1,11.1,0,0,0-4.788,9.261c0,7.308,5.481,11.718,14.742,11.718,8.064,0,13.545-3.591,13.545-8.946v-.5a31.945,31.945,0,0,1,7.5,5.985l3.969-10.71a8.094,8.094,0,0,1-1.2-.756,50.6,50.6,0,0,0-10.143-5.733c-.441-7.245-.5-8.5-.567-13.419,3.15-.378,5.985-.756,7.938-1.2a17.083,17.083,0,0,1,2.331-.378l-.378-10.017a58.718,58.718,0,0,1-10.017,1.953,73.6,73.6,0,0,1,.5-11.025l-10.9.063a17.332,17.332,0,0,1,.315,3.528v8.19c-2.142.063-3.213.063-4.536.063a56.236,56.236,0,0,1-11.781-1.008ZM354.69-9.2c0,2.52-1.386,3.654-4.41,3.654-2.52,0-4.158-1.071-4.158-2.709,0-1.764,1.764-2.9,4.662-2.9a10.121,10.121,0,0,1,3.843.756ZM323.631-51.471v.315a39.458,39.458,0,0,1-.756,5.481c-1.953,11.025-2.52,16.569-2.52,25.452a123.312,123.312,0,0,0,1.386,19.089c.441,3.843.441,3.843.5,4.977L332.892,3.4c-.126-1.386-.189-2.205-.189-2.52,0-8,.693-13.1,2.646-19.215L330.5-19.971a114.83,114.83,0,0,1,3.024-24.444,35.759,35.759,0,0,1,1.827-6.237Zm819.63.5a51.848,51.848,0,0,1-.945,6.741,136.264,136.264,0,0,0-2.394,24.255A133.106,133.106,0,0,0,1141.56-.063a25.316,25.316,0,0,1,.315,3.339l10.836-.5a17.627,17.627,0,0,1-.189-3.087,62.162,62.162,0,0,1,2.457-17.64l-4.851-1.638c.441-11.466,2.331-23.247,4.788-30.429Zm16.506,16.38c.882.063,1.323.063,1.827.126a103.951,103.951,0,0,0,10.836.5c4.347,0,8.946-.252,13.293-.693,3.465-.378,4.095-.441,4.662-.441l-.441-10.773c-4.221,1.071-10.4,1.575-18.774,1.575a52.621,52.621,0,0,1-11.214-.945Zm3.717,8.379c-1.7,2.457-2.079,3.087-2.961,4.536a19.743,19.743,0,0,0-3.024,9.828,11.67,11.67,0,0,0,5.8,10.017C1166.571,0,1170.477.819,1176.336.819a77.147,77.147,0,0,0,10.9-.819c3.717-.567,3.717-.567,5.355-.756l-.63-11.151a46.821,46.821,0,0,1-15.687,2.583c-5.355,0-8.19-1.575-8.19-4.473,0-2.268,1.323-4.977,4.221-8.694ZM137.214,42.907a29.589,29.589,0,0,1,.315,4.788c0,2.457-.126,8.442-.252,14.805-.315,12.663-.315,12.663-.315,14.3,0,8.82,1.2,12.852,4.788,16.317,3.4,3.213,8.19,4.788,14.616,4.788,8.253,0,14.805-2.709,19.782-8.127,3.465-3.843,5.544-8.442,7.938-17.892-4.032-1.638-6.111-2.961-10.773-6.615a47.873,47.873,0,0,1-2.52,11.4c-2.457,6.8-7.5,10.647-13.986,10.647-3.465,0-6.174-1.134-7.371-3.024-1.071-1.7-1.323-3.591-1.323-9.891,0-10.521.756-27.342,1.449-31.311Zm88.83,6.552A71.178,71.178,0,0,1,215.712,51.1c.567-3.213.945-5.04,1.008-5.418a19.916,19.916,0,0,1,.819-3.654l-11.781-.882v.945a60.761,60.761,0,0,1-1.071,9.45h-1.2a65.567,65.567,0,0,1-9.576-.63l-.189,10.269a12.7,12.7,0,0,1,1.449-.063h.63c2.709.126,4.032.189,6.048.189h1.008c-2.331,11.655-6.426,24.192-10.584,32.256l11.592,4.221c.441-1.512.441-1.512,1.449-4.536,2.709-8.127,3.087-9.513,4.662-15.057,1.764-6.552,2.9-11.214,3.969-17.136,1.953-.126,2.709-.189,5.733-.5l.63,8.946a84.554,84.554,0,0,1,17.7-1.575,56.774,56.774,0,0,1,8.253.441l-.189-10.647c-1.323-.063-2.646-.063-3.087-.063a107.108,107.108,0,0,0-16.695.945Zm-6.678,23.436c-3.465,5.04-4.914,8.568-4.914,12.222q0,11.907,18.522,11.907a77.167,77.167,0,0,0,12.285-1.008c1.512-.189,2.079-.252,3.339-.378l-.756-11.025a47.41,47.41,0,0,1-14.868,2.457c-5.292,0-7.875-1.386-7.875-4.284,0-1.953,1.008-4.032,3.4-6.867ZM605.178,47.443a37.23,37.23,0,0,1,5.607,8.379l6.3-2.9a38.988,38.988,0,0,0-5.607-8.253Zm8.19-3.465a42.249,42.249,0,0,1,5.481,8.19l6.111-2.961a35.989,35.989,0,0,0-5.544-7.938Zm-3.4,14.049a41.693,41.693,0,0,1,4.725,9.324,71.19,71.19,0,0,1,4.032,13.986l10.332-4.914a66.091,66.091,0,0,0-9.828-22.68ZM570.4,66.784a75.959,75.959,0,0,1,9.828-1.827c-2.52,10.017-7.812,22.491-11.844,27.909l10.4,5.481c.378-.945.5-1.26,1.008-2.331a140.159,140.159,0,0,0,6.678-16.191,131.23,131.23,0,0,0,4.473-15.687,22.875,22.875,0,0,1,2.52-.126c2.2,0,3.087.252,3.78,1.071.819.882,1.2,2.394,1.2,5.04,0,4.851-.756,11.214-1.7,13.986-.693,2.016-1.512,2.835-2.835,2.835a27.2,27.2,0,0,1-8.631-2.268,29.909,29.909,0,0,1,.945,7.56,28.6,28.6,0,0,1-.189,3.654,35.568,35.568,0,0,0,10.017,1.638,12.033,12.033,0,0,0,4.914-.882,10.421,10.421,0,0,0,4.032-3.717c2.52-4.41,3.969-12.537,3.969-22.365,0-7.119-1.26-10.962-4.473-13.545-2.142-1.7-5.04-2.52-8.946-2.52a20.9,20.9,0,0,0-2.709.126c.252-1.512.693-3.906,1.2-6.8a31.278,31.278,0,0,1,1.008-4.914l-11.4-1.071v1.071a98.624,98.624,0,0,1-1.449,12.411c-4.095.567-10.143,1.071-12.159,1.071a2.17,2.17,0,0,1-.567-.063ZM767.214,42.907a29.588,29.588,0,0,1,.315,4.788c0,2.457-.126,8.442-.252,14.805-.315,12.663-.315,12.663-.315,14.3,0,8.82,1.2,12.852,4.788,16.317,3.4,3.213,8.19,4.788,14.616,4.788,8.253,0,14.8-2.709,19.782-8.127,3.465-3.843,5.544-8.442,7.938-17.892-4.032-1.638-6.111-2.961-10.773-6.615a47.877,47.877,0,0,1-2.52,11.4c-2.457,6.8-7.5,10.647-13.986,10.647-3.465,0-6.174-1.134-7.371-3.024-1.071-1.7-1.323-3.591-1.323-9.891,0-10.521.756-27.342,1.449-31.311Zm88.83,6.552A71.178,71.178,0,0,1,845.712,51.1c.567-3.213.945-5.04,1.008-5.418a19.918,19.918,0,0,1,.819-3.654l-11.781-.882v.945a60.764,60.764,0,0,1-1.071,9.45h-1.2a65.567,65.567,0,0,1-9.576-.63l-.189,10.269a12.7,12.7,0,0,1,1.449-.063h.63c2.709.126,4.032.189,6.048.189h1.008c-2.331,11.655-6.426,24.192-10.584,32.256l11.592,4.221c.441-1.512.441-1.512,1.449-4.536,2.709-8.127,3.087-9.513,4.662-15.057,1.764-6.552,2.9-11.214,3.969-17.136,1.953-.126,2.709-.189,5.733-.5l.63,8.946a84.555,84.555,0,0,1,17.7-1.575,56.775,56.775,0,0,1,8.253.441l-.189-10.647c-1.323-.063-2.646-.063-3.087-.063a107.108,107.108,0,0,0-16.7.945Zm-6.678,23.436c-3.465,5.04-4.914,8.568-4.914,12.222q0,11.907,18.522,11.907a77.168,77.168,0,0,0,12.285-1.008c1.512-.189,2.079-.252,3.339-.378l-.756-11.025a47.409,47.409,0,0,1-14.868,2.457c-5.292,0-7.875-1.386-7.875-4.284,0-1.953,1.008-4.032,3.4-6.867ZM353.178,141.443a37.229,37.229,0,0,1,5.607,8.379l6.3-2.9a38.987,38.987,0,0,0-5.607-8.253Zm8.19-3.465a42.251,42.251,0,0,1,5.481,8.19l6.111-2.961a35.986,35.986,0,0,0-5.544-7.938Zm-3.4,14.049a41.694,41.694,0,0,1,4.725,9.324,71.187,71.187,0,0,1,4.032,13.986l10.332-4.914a66.091,66.091,0,0,0-9.828-22.68ZM318.4,160.784a75.958,75.958,0,0,1,9.828-1.827c-2.52,10.017-7.812,22.491-11.844,27.909l10.4,5.481c.378-.945.5-1.26,1.008-2.331a140.165,140.165,0,0,0,6.678-16.191,131.246,131.246,0,0,0,4.473-15.687,22.873,22.873,0,0,1,2.52-.126c2.205,0,3.087.252,3.78,1.071.819.882,1.2,2.394,1.2,5.04,0,4.851-.756,11.214-1.7,13.986-.693,2.016-1.512,2.835-2.835,2.835a27.2,27.2,0,0,1-8.631-2.268,29.908,29.908,0,0,1,.945,7.56,28.6,28.6,0,0,1-.189,3.654,35.567,35.567,0,0,0,10.017,1.638,12.032,12.032,0,0,0,4.914-.882,10.42,10.42,0,0,0,4.032-3.717c2.52-4.41,3.969-12.537,3.969-22.365,0-7.119-1.26-10.962-4.473-13.545-2.142-1.7-5.04-2.52-8.946-2.52a20.9,20.9,0,0,0-2.709.126c.252-1.512.693-3.906,1.2-6.8a31.278,31.278,0,0,1,1.008-4.914l-11.4-1.071v1.071a98.619,98.619,0,0,1-1.449,12.411c-4.1.567-10.143,1.071-12.159,1.071a2.169,2.169,0,0,1-.567-.063Zm78.372-15.309c-.756.063-1.323.063-2.457.063v-4.284a32.142,32.142,0,0,1,.378-6.426H384.8a42.134,42.134,0,0,1,.315,6.426v4.284h-.945a26.075,26.075,0,0,1-4.032-.252v9.135a25.689,25.689,0,0,1,3.843-.252h1.134v9.576a45.056,45.056,0,0,1-5.733.756l1.512,9.513a42.856,42.856,0,0,1,4.221-1.008v9.7c0,1.638-.252,2.016-1.449,2.016-.819,0-2.394-.126-4.032-.315a42.382,42.382,0,0,1,1.764,8.946,38.706,38.706,0,0,0,4.1.252c3.465,0,5.355-.315,6.426-1.071,1.764-1.134,2.394-3.024,2.394-6.867V170.3l2.646-.945-.063-8.442c-1.323.378-1.7.5-2.583.756v-7.5a19.973,19.973,0,0,1,2.835.126v-3.087c1.26-.126,2.772-.189,4.41-.189h32.571c1.953,0,3.213.063,4.977.189V142.2a36.641,36.641,0,0,1-4.977.252h-4.221A53.019,53.019,0,0,0,433,136.592l-9.7-2.016a31.96,31.96,0,0,1-3.528,7.875h-4.536a42.522,42.522,0,0,0-4.1-7.875l-9.387,1.953a28.524,28.524,0,0,1,3.276,5.922h-3.465a34.26,34.26,0,0,1-4.788-.252Zm8.883,35.028h4.6v3.717c0,.819-.441,1.134-1.638,1.134-.315,0-1.008-.063-1.638-.126a25.3,25.3,0,0,1,1.449,8.064,12.817,12.817,0,0,0,1.386.063c6.3,0,7.875-1.26,7.875-6.489V158.831a46.017,46.017,0,0,1,.252-5.859,42.863,42.863,0,0,1-5.607.252h-9.45a32.364,32.364,0,0,1-4.977-.189c.126,2.835.189,3.465.189,5.607V188a43.2,43.2,0,0,1-.252,5.733h8.064a43.482,43.482,0,0,1-.252-5.607Zm0-6.615v-3.339h4.6v3.339Zm0-9.954v-3.4h4.6v3.4Zm13.86-9.2a43.8,43.8,0,0,1,.252,5.292v15.624a46.034,46.034,0,0,1-.252,5.418h7.623c-.126-1.512-.189-3.024-.189-5.355V159.9c0-2.268.063-3.528.189-5.166Zm17.514,4.536a31.357,31.357,0,0,1,.378-6.489h-8.631a63.657,63.657,0,0,1,.252,6.8V183.4c0,1.323-.5,1.575-2.709,1.575a39.643,39.643,0,0,1-5.355-.378,26.889,26.889,0,0,1,1.953,8.694c2.2.126,3.087.189,4.1.189,7.938,0,10.017-1.638,10.017-7.875Zm13.545,7.686a46.492,46.492,0,0,1,7.875-2.205c7.056-1.575,12.285-2.331,16.506-2.331,5.733,0,9.072,2.331,9.072,6.3a8.909,8.909,0,0,1-.756,3.717c-1.26,2.9-4.725,5.481-9.009,6.8a50.008,50.008,0,0,1-15.309,2.079A27.815,27.815,0,0,1,462.8,191.4c8.82-1.008,9.954-1.2,14.3-2.52,11.214-3.4,17.451-10.584,17.451-20.223,0-5.04-1.827-9.2-5.229-11.907s-7.623-3.906-13.8-3.906c-5.1,0-11.088.756-19.782,2.52-5.04.945-5.04.945-7.245,1.2ZM505.323,153.6a37.39,37.39,0,0,1,5.418-.819l21.8-1.953a25.78,25.78,0,0,0-6.174,5.355,21.567,21.567,0,0,0-5.355,14.238c0,8,3.843,13.8,11.277,17.262,4.032,1.827,8.757,2.835,15.939,3.528a19.083,19.083,0,0,1,2.331.315l1.449-12.033a10.88,10.88,0,0,1-1.89.126c-4.1,0-9.45-1.008-12.033-2.268-3.591-1.7-5.292-4.158-5.292-7.749,0-5.166,3.717-10.521,10.017-14.364a29.529,29.529,0,0,1,14.427-4.41,9.581,9.581,0,0,1,1.764.126l-.567-11.4c-1.134.252-1.7.315-6.93.5-19.215.693-23.814.945-33.642,1.575-6.867.441-9.135.567-10.773.567-.5,0-1.323,0-2.394-.063Zm63.5-13.356a44.206,44.206,0,0,1,.252,4.473c.126,8.757.378,14.049.693,18.459.819,10.017,2.52,16.317,5.8,20.979,2.457,3.591,5.481,5.418,9.009,5.418,3.843,0,7.245-2.268,9.576-6.426a53.179,53.179,0,0,0,4.788-12.159,39.855,39.855,0,0,1-8.757-7.938,64,64,0,0,1-3.276,10.9c-.63,1.638-1.323,2.457-2.016,2.457-2.646,0-4.662-10.647-4.662-24.759a78.58,78.58,0,0,1,.693-11.4Zm31.563,6.678c7.812,9.891,12.159,22.3,12.852,36.414l11.277-4.158c-1.764-15.246-6.363-26.775-14.553-36.666Zm32.823,4.347h1.071c.189,0,.819,0,1.7.063,2.331.126,2.331.126,4.725.189,7.245.315,8.316.378,11.718.378.567,0,1.2,0,2.646-.063v1.512c.063,1.512.063,1.512.063,1.638v.945c-1.953.063-2.9.063-4.221.063a97.249,97.249,0,0,1-15.5-1.008l-.126,9.387c1.89,0,2.2.063,4.977.189,3.591.189,6.489.252,10.143.252.945,0,3.528-.063,4.851-.063,0,.315.063,1.575.126,3.717h-1.953a31.826,31.826,0,0,0-11.214,1.7c-5.04,1.89-7.938,5.67-7.938,10.269,0,7.308,5.859,11.529,16.191,11.529,6.867,0,11.655-1.764,13.734-4.977a10.945,10.945,0,0,0,1.512-6.363,32.68,32.68,0,0,1,8.946,5.607,33.392,33.392,0,0,1,4.284,4.032l5.985-10.143c-1.008-.63-1.449-.882-2.394-1.512a62.768,62.768,0,0,0-8.442-5.229,36.091,36.091,0,0,0-8.631-3.4c-.126-2.646-.126-2.646-.189-5.544,3.465-.126,9.513-.567,12.348-.882,2.709-.252,2.709-.252,4.032-.315l-.252-9.639a99.677,99.677,0,0,1-16.254,1.89v-3.969a123.63,123.63,0,0,0,12.663-1.071c3.339-.441,3.717-.441,5.544-.567l-.315-9.639c-3.654,1.008-9.513,1.7-17.892,2.2a39.173,39.173,0,0,1,.5-6.552H654.57a44.011,44.011,0,0,1,.378,6.867c-1.89.063-2.709.063-3.465.063-7.938,0-14.427-.441-18.144-1.323Zm22.176,26.586s.063.693.063,1.071c0,2.835-1.512,4.032-5.04,4.032-3.15,0-4.914-.945-4.914-2.52,0-1.953,2.205-3.024,6.048-3.024A13.6,13.6,0,0,1,655.389,177.857ZM693.5,153.224c4.851-.693,15.12-1.26,28.161-1.638a10.253,10.253,0,0,1,.063,1.512v1.953a14.228,14.228,0,0,0-4.914-.693c-8.694,0-14.616,4.914-14.616,12.1,0,6.741,5.166,11.529,12.474,11.529a11.5,11.5,0,0,0,8.442-2.961A10.437,10.437,0,0,1,718.452,180c-3.024,1.89-6.615,2.9-12.978,3.843a28.374,28.374,0,0,1,5.985,9.954c5.985-1.764,9.576-3.213,12.663-5.1,6.741-4.221,10.4-10.395,10.4-17.451A20.037,20.037,0,0,0,732,160.721V151.4c2.52-.063,2.961-.063,6.3-.063a104.972,104.972,0,0,1,11.34.315l-.063-10.332c-2.52.252-7.182.378-17.64.441a42.643,42.643,0,0,1,.315-6.426H721.1a35.464,35.464,0,0,1,.441,6.678c-5.859.189-22.806.63-24.507.63-1.575,0-2.268-.063-3.843-.189ZM717.57,162.3c2.52,0,4.158,1.323,4.158,3.276,0,2.142-2.079,3.78-4.788,3.78-2.394,0-4.158-1.449-4.158-3.4C712.782,163.808,714.8,162.3,717.57,162.3Zm44.289,7.56a11.97,11.97,0,1,0,11.97,11.97A11.965,11.965,0,0,0,761.859,169.856Zm0,6.489a5.481,5.481,0,1,1-5.481,5.481A5.485,5.485,0,0,1,761.859,176.345Z" transform="translate(2970 4136)" fill="#101010"/>
    <path id="Path_352" data-name="Path 352" d="M10.71-33.894c2.205-.189,5.04-.315,9.7-.315H42.021c5.1,0,6.741.063,10.332.315V-45.423a80.775,80.775,0,0,1-10.458.441H20.538a66.424,66.424,0,0,1-9.828-.441ZM4.347-2.331a97.888,97.888,0,0,1,10.332-.315H47.628a103.124,103.124,0,0,1,10.962.315V-14.112c-2.9.441-4.851.5-11.151.5H14.868a67.127,67.127,0,0,1-10.521-.5ZM105.525-7.245c.882-5.67,1.89-12.474,2.457-16.7.819-6.174.819-6.174,1.638-7.749l-4.788-3.969a7.053,7.053,0,0,1-3.591.693H86a58.054,58.054,0,0,1-8.442-.378v9.576c2.079-.189,3.969-.252,8.19-.252h12.1c-.882,8.253-1.2,10.332-2.709,18.774H79.569a55.5,55.5,0,0,1-8.442-.378V1.953C73.4,1.764,75.474,1.7,79.569,1.7h29.484c3.213,0,6.237.063,8.316.252V-7.623a71.889,71.889,0,0,1-8.253.378Zm24-10.71c3.843-.315,5.922-.378,12.978-.378h29.988a121.6,121.6,0,0,1,12.978.378V-30.114a103.368,103.368,0,0,1-12.915.567H142.443a89.273,89.273,0,0,1-12.915-.567ZM213.7-39.942v-4.851a45.326,45.326,0,0,1,.252-6.426H202.419a42.464,42.464,0,0,1,.378,6.678v4.6h-2.142a55.448,55.448,0,0,1-9.072-.441V-29.61a74.668,74.668,0,0,1,8.883-.315H202.8V-23a46.806,46.806,0,0,1-.378,6.615h11.529a56.515,56.515,0,0,1-.252-6.489v-7.056h13.293c-.063,3.591-.063,4.032-.126,5.166-.5,7.056-2.331,11.151-6.615,14.553-2.835,2.268-6.048,3.717-12.159,5.544a30.777,30.777,0,0,1,6.867,9.639C221.319,2.583,224.6.819,228-2.142c5.544-4.788,8.379-10.521,9.324-19.026.252-2.394.315-3.78.441-8.757h2.772c4.1,0,5.859.063,8.883.315V-40.383a55.448,55.448,0,0,1-9.072.441h-2.457c.063-9.324.063-9.324.315-11.214h-11.34a46.54,46.54,0,0,1,.315,7.056v4.158Zm41.769-4.1a81.883,81.883,0,0,1,7.056,20.1l10.9-3.339c-2.583-9.072-4.284-13.482-7.56-19.593Zm16.947-3.024a92.433,92.433,0,0,1,6.993,19.4L290.241-31c-2.331-8-4.473-13.482-7.5-18.837Zm26.712-1.323a36.865,36.865,0,0,1-.819,7.119c-2.142,11.088-5.859,18.4-12.6,24.759A48.619,48.619,0,0,1,267.5-5.607a32.047,32.047,0,0,1,7.749,10.08c10.521-5.1,17.451-10.4,22.995-17.514,5.418-7.056,9.135-15.624,11.4-26.523a36.884,36.884,0,0,1,1.449-5.985Zm122.787,11.34a43.729,43.729,0,0,1-4.032,6.111,69.286,69.286,0,0,1-9.828,9.954A97.734,97.734,0,0,0,397.152-31l-8.631,6.048a93.925,93.925,0,0,1,12.663,12.537A106.206,106.206,0,0,1,413.343,4.032l9.45-7.371c-3.024-4.1-4.788-6.363-7.5-9.576,8.316-6.993,13.482-13.23,19.971-24.129,1.575-2.646,1.89-3.087,2.9-4.032l-6.048-6.8a11.969,11.969,0,0,1-4.347.63l-34.524.063a79.252,79.252,0,0,1-10.395-.5V-36.6c2.772-.252,4.977-.315,10.206-.315Zm24.822-2.835a67.284,67.284,0,0,1,17.136,13.293l7.434-9.828c-5.292-4.788-9.387-7.686-17.325-12.348Zm3.906,42.336c1.7-.5,2.079-.567,4.536-1.134,11.718-2.709,17.7-5.04,24.507-9.45,8.82-5.67,14.8-13.1,20.538-25.515-4.725-3.465-6.174-4.725-9.261-8.442a58,58,0,0,1-6.174,12.348,37.884,37.884,0,0,1-18.459,15.561,63.216,63.216,0,0,1-18.963,4.536ZM514.08-42.336a78.029,78.029,0,0,1,18.081,9.009l5.607-9.639a106.515,106.515,0,0,0-18.081-8.253Zm-4.914,15.561a72.333,72.333,0,0,1,18.018,9.765l5.355-9.891a86.482,86.482,0,0,0-17.577-8.883Zm4.977,30.429a44.063,44.063,0,0,1,4.473-1.008A83.05,83.05,0,0,0,530.082-.126c10.143-3.213,17.955-8.127,24.318-15.435,4.032-4.536,6.615-8.883,9.828-16.443-3.591-2.205-5.418-3.843-9.2-7.812a49.137,49.137,0,0,1-6.93,13.86,38.09,38.09,0,0,1-17.64,13.545,63.212,63.212,0,0,1-19.467,4.158Zm93.87-1.89V4.536h9.954c-.189-2.079-.315-4.914-.315-7.812V-32.634c0-1.953.063-4.284.126-5.859-1.7.126-2.646.189-5.67.189H586.341a48.879,48.879,0,0,1-7.812-.441v9.324a56.093,56.093,0,0,1,7.812-.315h21.672v6.93H588.357c-2.961,0-5.166-.126-7.938-.378v9.135c2.016-.189,4.095-.252,7.938-.252h19.656v7.434h-22.3a44.957,44.957,0,0,1-7.812-.441V2.016c2.016-.189,4.284-.252,7.812-.252Zm27.72-41.643a67.283,67.283,0,0,1,17.136,13.293l7.434-9.828c-5.292-4.788-9.387-7.686-17.325-12.348Zm3.906,42.336c1.7-.5,2.079-.567,4.536-1.134,11.718-2.709,17.7-5.04,24.507-9.45,8.82-5.67,14.8-13.1,20.538-25.515-4.725-3.465-6.174-4.725-9.261-8.442a58,58,0,0,1-6.174,12.348,37.884,37.884,0,0,1-18.459,15.561,63.216,63.216,0,0,1-18.963,4.536ZM743.778-29.61a72.143,72.143,0,0,1,8.82.378V-39.816a82.911,82.911,0,0,1-8.883.378H729.351V-41.58c.126-8.19.126-8.19.5-10.647H718.326a36.8,36.8,0,0,1,.441,6.741c0,2.079,0,3.528-.063,6.048H705.159a77.679,77.679,0,0,1-8.82-.378v10.584a62.392,62.392,0,0,1,8.883-.378h12.663a26.735,26.735,0,0,1-6.93,15.057c-4.221,4.725-9.072,7.875-16.569,10.773A43.256,43.256,0,0,1,700.5,5.67a55.36,55.36,0,0,0,6.552-3.339,47.9,47.9,0,0,0,10.71-9.009,39.692,39.692,0,0,0,7.182-11.4,44.222,44.222,0,0,0,9.891,14.049,53.757,53.757,0,0,0,14.049,9.7,41.131,41.131,0,0,1,6.3-10.143c-6.993-2.772-11.97-5.922-16.317-10.269a38.6,38.6,0,0,1-9.2-14.868Zm34.587,8a43.933,43.933,0,0,1,5.1.252v-9.324a42,42,0,0,1-5.922.315h-1.512c.063-2.52.126-3.654.189-6.237h1.7a43.932,43.932,0,0,1,5.1.252v-9.072a42.546,42.546,0,0,1-5.922.315h-.819c.063-5.418.063-6.111.252-8h-9.954a43.2,43.2,0,0,1,.441,6.741v1.26h-1.638a42.939,42.939,0,0,1-5.985-.315v9.072c2.142-.189,3.591-.252,5.418-.252h2.142c-.063,3.843-.063,5.922-.063,6.237h-2.394a42.39,42.39,0,0,1-5.985-.315v9.387a62.538,62.538,0,0,1,6.426-.315h1.323c-1.071,8.064-3.843,13.419-9.2,17.7a47.794,47.794,0,0,1,6.741,7.875A34.762,34.762,0,0,0,773.451-11.4,30.743,30.743,0,0,0,780-3.339a50.345,50.345,0,0,1,5.1-8.568,34.108,34.108,0,0,1-9.072-9.7Zm21.042,6.93V.378c0,3.843,1.7,4.914,7.749,4.914,5.607,0,8.064-.819,9.2-2.961.882-1.638,1.26-4.6,1.449-11.214a20.19,20.19,0,0,1-6.93-3.339,61.581,61.581,0,0,1-.252,7.434c-.063.693-.5,1.008-1.386,1.008-.693,0-.945-.252-.945-.882V-14.679h.441c2.52.126,2.52.126,2.961.126h1.26a14.949,14.949,0,0,1,1.512.063c-.189-2.583-.252-3.591-.252-6.174V-45.423a51.658,51.658,0,0,1,.252-6.237c-1.512.126-2.583.189-6.111.189H790.965c-3.4,0-4.725-.063-6.111-.189a54.063,54.063,0,0,1,.189,6.174v24.7c0,2.583,0,3.843-.126,6.3q3.213-.189,3.969-.189C788-7.875,784.728-3.843,777.42-.5a34.692,34.692,0,0,1,6.8,7.056c6.552-3.78,9.954-7.749,11.907-13.8.693-2.079.882-3.213,1.386-7.434ZM794.052-43.6h11.025v2.772H794.052Zm0,9.2h11.025v2.709H794.052Zm0,9.135h11.025v2.835H794.052Zm46.809-17.7a16.625,16.625,0,0,1-3.213.252H836.7v-4.158a43.5,43.5,0,0,1,.315-6.552h-9.891a44.626,44.626,0,0,1,.378,6.552v4.158H825.93a20.247,20.247,0,0,1-4.536-.315v9.387a24.207,24.207,0,0,1,4.41-.315h1.071a42.561,42.561,0,0,1-6.93,16.443,55.114,55.114,0,0,1,3.087,10.773,30.657,30.657,0,0,0,4.662-9.765c0,.819-.063,2.835-.126,6.048v8.379a61.254,61.254,0,0,1-.441,8.127h9.954a74.133,74.133,0,0,1-.378-8.127V-15.372c0-2.268-.063-4.284-.189-6.489a21.8,21.8,0,0,0,2.709,5.229c1.953-5.166,2.016-5.292,3.465-7.686v2.268a48.411,48.411,0,0,1-.189,4.977c1.89-.126,3.4-.189,5.229-.189h6.993v2.079h-8.127A60.191,60.191,0,0,1,840.1-15.5V-6.8a61.233,61.233,0,0,1,6.363-.315h4.851c-2.709,2.646-7.308,4.284-14.238,5.1a30.34,30.34,0,0,1,4.536,8.19c8.568-2.016,13.734-4.662,17.451-9.072,4.473,4.914,10.017,7.749,17.829,9.135a40.191,40.191,0,0,1,3.654-9.009c-6.615-.441-11.655-1.953-14.364-4.347h6.993a53.534,53.534,0,0,1,6.615.378v-8.82a42.186,42.186,0,0,1-6.8.378h-9.135l.126-2.079h7.749c1.953,0,3.528.063,5.418.189a39.725,39.725,0,0,1-.252-5.166V-34.083a40.156,40.156,0,0,1,.252-5.229c-1.512.126-3.213.189-5.481.189V-41.58h1.575a62.412,62.412,0,0,1,6.489.252v-8.5a43.587,43.587,0,0,1-6.489.315h-1.575v-.441a13.6,13.6,0,0,1,.252-3.4h-9.639a13.364,13.364,0,0,1,.315,3.339v.5h-5.607v-.441a13.346,13.346,0,0,1,.252-3.4H847.6a13.364,13.364,0,0,1,.315,3.339v.5h-1.638a51.976,51.976,0,0,1-5.418-.252Zm.126,1.512c1.008-.063,2.457-.126,5.292-.126h1.638v2.457c-2.079,0-3.843-.063-5.418-.189.126,1.575.189,3.15.189,5.1v9.45c-3.15-3.339-3.969-4.662-5.859-9.2h1.008a27.223,27.223,0,0,1,3.15.189ZM862.6-41.58v2.457h-5.607V-41.58Zm-11.025,8.631H867.7v2.016H851.571Zm0,7.371H867.7V-23.5H851.571Zm91.287-24.381a51.16,51.16,0,0,1-7.749.378H922.32l1.575-3.087-9.7-1.512a26.415,26.415,0,0,1-6.237,10.521h-7.434c1.008-2.772,1.134-3.024,1.7-4.851.756-2.142.756-2.142,1.071-2.961l-9.954-2.52a40.091,40.091,0,0,1-1.827,7.434c-2.205,6.552-5.166,11.844-8.883,15.75a55.011,55.011,0,0,1,3.528,11.214,22.174,22.174,0,0,0,2.772-4.1c-.063,1.827-.063,3.276-.063,5.8V-1.575a71.9,71.9,0,0,1-.378,7.308H898a73.665,73.665,0,0,1-.315-7.371V-36.729c1.2-2.772,1.449-3.339,2.016-4.725,0,1.26.063,2.331.063,4.095v27.09a40.993,40.993,0,0,1-.315,6.552h8.82c-.126-1.2-.189-2.835-.189-6.363v-9.009a26.178,26.178,0,0,1,3.276,5.544A46.462,46.462,0,0,0,924.4-18.837c1.2-.693,1.7-1.071,4.347-2.9l-6.111-3.843c-2.961,2.646-7.5,4.473-14.553,5.922v-9.387a36.534,36.534,0,0,1,2.772,6.489,56.383,56.383,0,0,0,12.537-4.662c5.1,3.087,9.891,4.914,17.325,6.678a34.292,34.292,0,0,1,3.465-9.2A46.8,46.8,0,0,1,931.455-32.7a28.7,28.7,0,0,0,6.741-8.442,42.046,42.046,0,0,1,4.662.252ZM908.082-37.485a28.355,28.355,0,0,1,2.9,3.087c1.134-.945,1.575-1.386,2.268-2.016a36.21,36.21,0,0,0,3.087,3.654,49,49,0,0,1-8.253,2.331Zm20.16-3.654a19.651,19.651,0,0,1-4.284,4.284,27.26,27.26,0,0,1-4.536-4.284Zm8.631,25.263a25.28,25.28,0,0,1-6.174,5.8c-6.363,4.473-14.868,7.308-25.263,8.568A23.73,23.73,0,0,1,909.909,6.3a80.162,80.162,0,0,0,12.726-3.339,52.263,52.263,0,0,0,12.915-6.8,59.073,59.073,0,0,0,6.111-5.04c1.008-.882,1.575-1.449,2.331-2.016Zm-7.056-5.166a16.668,16.668,0,0,1-4.41,3.717c-4.473,3.024-10.08,5.1-17.2,6.363A23.584,23.584,0,0,1,912.114-4.6c8.127-1.953,13.608-4.347,18.9-8.253.819-.567,2.583-2.016,5.355-4.221Zm40.257,1.449v6.363q1.04-.095,5.1-.189h25.452a36.893,36.893,0,0,1,5.1.252v-7.245c-1.26.126-2.142.189-4.095.252.693-1.449.756-1.638,1.26-2.835l-7.434-1.26a24.411,24.411,0,0,1-1.575,4.095h-1.953v-4.41h8.757a37.056,37.056,0,0,1,5.04.252v-7.371a39.719,39.719,0,0,1-5.166.252h-8.631V-33.2h6.174a49.536,49.536,0,0,1,5.1.189v-6.111a46.271,46.271,0,0,1-5.1.189h-6.174v-1.827h8.253a45.7,45.7,0,0,1,5.04.189V-47.88a35.327,35.327,0,0,1-5.04.252h-.693c.693-1.2,1.26-2.268,2.205-4.221l-9.261-1.827a36.265,36.265,0,0,1-2.646,6.048h-4.032a44.718,44.718,0,0,0-3.15-5.922l-8.883,1.89a23.975,23.975,0,0,1,2.394,4.032h-.567a34.5,34.5,0,0,1-4.914-.252v3.843l-6.363-3.4c-1.008,2.457-1.008,2.457-5.481,9.828-.5-.756-.693-.945-1.26-1.7,1.638-2.646,4.158-7.245,5.607-10.143a12.687,12.687,0,0,1,1.008-1.953l-7.875-2.9a39.255,39.255,0,0,1-3.78,8.568L951.048-47.5l-4.284,7.875a61.728,61.728,0,0,1,7.182,9.2q-1.89,2.646-2.079,2.835c-1.008.063-1.323.063-1.512.063a16.635,16.635,0,0,1-3.4-.252l.693,8.883a18.082,18.082,0,0,1,3.654-.378c1.449-.063,2.457-.063,4.41-.189v18.4a51.615,51.615,0,0,1-.315,6.93H963.9a39.053,39.053,0,0,1-.378-6.93V-20.034l2.772-.315c.126.882.189,1.134.315,2.016Zm3.024-4.914,2.016-.063h8.127v4.41h-1.89a31.8,31.8,0,0,0-1.638-4.032l-6.741,1.134a24.127,24.127,0,0,1,1.071,2.9c-1.323,0-1.953,0-2.709-.063-.756-3.15-.756-3.15-1.008-4.221,1.008-.063,1.134-.063,1.386-.063Zm10.143-6.93h-8.127a30.991,30.991,0,0,1-5.1-.252v6.174a69.319,69.319,0,0,0-2.709-8.19l-3.276,1.071c1.134-1.575,1.323-1.827,2.079-2.961,1.071-1.575,1.827-2.583,2.079-3.024,1.7-2.2,1.7-2.2,2.457-3.339v1.386a33.7,33.7,0,0,1,4.914-.189h7.686v1.827h-6.174a47.877,47.877,0,0,1-5.1-.189v6.111a49.538,49.538,0,0,1,5.1-.189h6.174Zm-19.908-.252c.5,1.512.693,2.142,1.134,3.654-2.52.126-2.52.126-4.095.189C961.38-29.106,961.758-29.547,963.333-31.689ZM948.465-17.577A68.957,68.957,0,0,1,946.638-.126L952.56,3.15c1.26-6.3,1.638-10.4,1.953-19.656Zm16.065.945a109.36,109.36,0,0,1,.756,13.167v2.457l4.977-1.2a110.575,110.575,0,0,0-1.449-15.372ZM980.784,5.733V3.528h13.608V5.733h9.45a43.3,43.3,0,0,1-.315-6.111V-6.426a48.164,48.164,0,0,1,.252-5.418,37.433,37.433,0,0,1-5.544.189H976.878a45.067,45.067,0,0,1-5.418-.189c.126,1.386.189,3.15.189,5.418V-.378a40.563,40.563,0,0,1-.315,6.111Zm0-11.025h13.608v2.457H980.784Zm53.109-34.335V-8.253h-13.8a87.69,87.69,0,0,1-9.828-.441V1.7a92.651,92.651,0,0,1,9.639-.441h39.123a86.037,86.037,0,0,1,9.7.441v-10.4a85.589,85.589,0,0,1-9.639.441h-14.868V-39.627h12.6a76.229,76.229,0,0,1,8.946.378V-49.455a71.818,71.818,0,0,1-9.009.378H1022.49a81.735,81.735,0,0,1-9.135-.378v10.206a75.468,75.468,0,0,1,9.009-.378Zm63.819,20.538h-17.7a43.723,43.723,0,0,1-6.8-.315v7.119a44.105,44.105,0,0,1,6.93-.315h17.577v1.89h-14.931a48.2,48.2,0,0,1-5.985-.189V-4.41a60.051,60.051,0,0,1,6.3-.252h14.616v1.575c0,1.134-.378,1.323-2.331,1.323-2.2,0-4.473-.189-7.812-.5a26.842,26.842,0,0,1,2.394,7.938c2.394.126,4.158.189,5.859.189,9.45,0,11.088-1.2,11.088-8.127V-4.662h11.529V-2.2h9.513a54.149,54.149,0,0,1-.315-7.119v-3.024a30.456,30.456,0,0,1,4.41.315v-7.686a21.156,21.156,0,0,1-4.41.378v-1.953a44.772,44.772,0,0,1,.189-5.8,50.777,50.777,0,0,1-6.426.189h-14.49v-1.764h14.427c1.953,0,3.528.063,4.977.189a40.273,40.273,0,0,1-.189-4.284v-4.158c0-2.016.063-3.087.189-4.536-1.512.126-2.835.189-5.418.189H1106.91v-1.827h16.947a66.382,66.382,0,0,1,7.56.315v-8a68.457,68.457,0,0,1-8.19.378H1106.91a15.412,15.412,0,0,1,.378-3.15h-9.954a14.357,14.357,0,0,1,.378,3.15h-15.939a68.914,68.914,0,0,1-8.253-.378v8a66.723,66.723,0,0,1,7.686-.315h16.506v1.827h-13.419c-2.583,0-3.906-.063-5.67-.189.126,1.512.189,2.772.189,4.536v4.158a42.855,42.855,0,0,1-.189,4.284c1.575-.126,3.213-.189,5.481-.189h13.608V-26.9h-14.931a45.394,45.394,0,0,1-5.859-.252v6.363c1.7-.126,3.591-.189,5.733-.189h15.057Zm9.2,0v-1.89h11.529v1.89Zm0,6.489h11.529v1.89H1106.91Zm-9.2-23.31v1.89h-9.828v-1.89Zm9.2,0h10.143v1.89H1106.91ZM25.2,67.1a37.612,37.612,0,0,1,6.111-.315H55a41.294,41.294,0,0,1,6.3.315V59.854a39.8,39.8,0,0,1-6.3.315H46.872V58.342h6.3a35.154,35.154,0,0,1,4.221.126,2.17,2.17,0,0,1,.567.063V52.609a28.185,28.185,0,0,1-4.6.189H46.872V51.034H53.8a56.018,56.018,0,0,1,6.174.252V44.041a49.713,49.713,0,0,1-6.678.378H46.872a18.252,18.252,0,0,1,.315-3.843H37.548a14.184,14.184,0,0,1,.378,3.843h-4.6a51.462,51.462,0,0,1-6.867-.378v2.142l-4.914-2.016a59.947,59.947,0,0,1-2.268,12.474V46.12a40.821,40.821,0,0,1,.252-5.733H10.206a43.982,43.982,0,0,1,.315,5.8V60.988H7.5A26.181,26.181,0,0,1,2.709,60.8V70a24.612,24.612,0,0,1,4.977-.315H9.639C8.064,74.785,4.6,80.77,1.575,83.6a35.614,35.614,0,0,1,3.717,9.45,30.845,30.845,0,0,0,5.481-9.576c-.189,3.213-.189,3.213-.189,5.418v4.347a45.225,45.225,0,0,1-.378,6.552h9.45a36.425,36.425,0,0,1-.378-6.552V85.621c0-1.386-.126-4.221-.189-5.607a22.022,22.022,0,0,0,4.788,7.245,57.8,57.8,0,0,1,3.15-8.757,35.467,35.467,0,0,1-7.623-8.82h.882A25.853,25.853,0,0,1,25.2,70Zm-.189-6.237c-.819.063-2.646.126-4.725.126H19.278V56.83l4.914,2.457a57.763,57.763,0,0,0,2.268-8,48.015,48.015,0,0,1,6.111-.252h5.355V52.8H32.634a35.112,35.112,0,0,1-4.914-.189v5.922a46.764,46.764,0,0,1,4.788-.189h5.418v1.827H31.311a32.951,32.951,0,0,1-6.3-.315ZM36.162,89.338H49.329v1.323c0,1.134-.378,1.386-2.331,1.386a37.812,37.812,0,0,1-4.977-.441,25.89,25.89,0,0,1,1.89,7.749c3.024.126,3.213.126,4.095.126,8.127,0,10.269-1.512,10.269-7.308V74.47a51.652,51.652,0,0,1,.252-6.237c-1.386.126-3.024.189-5.607.189H31.374a40.588,40.588,0,0,1-4.221-.126c.126,1.764.189,3.339.189,5.229V92.236a53.968,53.968,0,0,1-.378,7.56h9.513a65.711,65.711,0,0,1-.315-7.56Zm0-5.544V81.9H49.329v1.89Zm0-7.308V74.659H49.329v1.827ZM1.638,46.057A94.386,94.386,0,0,1,4.725,59.476l5.607-2.583A87.822,87.822,0,0,0,7.56,43.726ZM80.7,70.69a64.915,64.915,0,0,1,.252-7.182,28.507,28.507,0,0,1-4.851.315H70.245a31.2,31.2,0,0,1-5.1-.315v9.639a21.732,21.732,0,0,1,3.78-.315h2.646V84.55a33.392,33.392,0,0,1-7.686,4.662l4.536,9.765a48.16,48.16,0,0,0,7.749-6.111,15.167,15.167,0,0,0,8.946,4.914,101.429,101.429,0,0,0,15.309.882c10.71,0,15.561-.063,22.428-.315a48.752,48.752,0,0,1,2.268-10.269,191.221,191.221,0,0,1-21.861,1.449c-2.709,0-12.033-.252-13.671-.378-3.024-.252-4.1-.5-5.859-1.386h9.324a34.945,34.945,0,0,1-.378-6.993V78.691H97.9v1.827a48.855,48.855,0,0,1-.378,7.056h9.513a49.737,49.737,0,0,1-.315-7.056V78.691h5.733v1.26c0,1.2-.126,1.323-1.134,1.323a23.52,23.52,0,0,1-2.709-.189,27.258,27.258,0,0,1,1.512,6.489h2.142c3.591,0,5.859-.315,7.056-.945,1.7-.945,2.268-2.205,2.268-5.481V60.421a57.32,57.32,0,0,1,.252-6.741,49.61,49.61,0,0,1-5.985.252h-2.9a65.424,65.424,0,0,0,6.363-5.166,24.763,24.763,0,0,1,2.961-2.457l-4.662-5.04a46.329,46.329,0,0,1-7.938.378H90.909a70.574,70.574,0,0,1-8.379-.378v8.883a48.11,48.11,0,0,1,6.678-.315h2.9L88.578,51.79a37.582,37.582,0,0,1,3.654,2.142H90.468a72.437,72.437,0,0,1-7.245-.252,65.213,65.213,0,0,1,.315,7.5V80.77a60.172,60.172,0,0,1-.315,6.741,6.38,6.38,0,0,1-2.52-2.646Zm26.019-9.639h5.733v2.583h-5.733Zm-8.82,0v2.583H92.673V61.051Zm-5.229,8.631H97.9v2.646H92.673Zm19.782,2.646h-5.733V69.682h5.733Zm-5.481-22.491a36.108,36.108,0,0,1-4.347,3.465c-1.89-1.512-2.646-2.142-4.473-3.465ZM64.2,47.695a66,66,0,0,1,11.592,12.1L83.1,52.42A73.6,73.6,0,0,0,71.316,40.828ZM312.228,63.382a81.739,81.739,0,0,1-10.836.5H265.671a90.472,90.472,0,0,1-10.9-.5V74.344a104.355,104.355,0,0,1,10.9-.5h35.721a101.578,101.578,0,0,1,10.836.5Zm61.11-5.733a21.37,21.37,0,0,1-3.213.189h-1.134c.63-2.205,1.575-6.426,2.205-9.576.819-4.347.819-4.347,1.26-6.174a51.465,51.465,0,0,1-6.048.252H349.02a63.1,63.1,0,0,1-8.127-.378V49.4l-5.859-3.276c-.945,2.394-1.89,4.158-5.8,10.647-.441-.567-.63-.882-1.449-1.827a69.448,69.448,0,0,0,3.969-6.741,56,56,0,0,1,2.961-5.481l-8.253-3.024a45.848,45.848,0,0,1-3.969,9.261l-1.953-2.079-4.032,7.938A72.136,72.136,0,0,1,324.45,64.2c-.756,1.071-.819,1.2-1.512,2.142H320.8a28.157,28.157,0,0,1-3.717-.189l.882,8.946a11.754,11.754,0,0,1,2.835-.315c1.449-.126,2.079-.126,5.67-.378V92.8a40.726,40.726,0,0,1-.378,6.993h9.261a39.432,39.432,0,0,1-.378-6.993V73.777c1.512-.126,1.512-.126,3.906-.315.189.945.189.945.315,1.89l5.67-2.268a62.151,62.151,0,0,1-2.457,9.828c-.189-1.89-.5-4.032-1.008-6.8l-5.292,1.2a72.934,72.934,0,0,1,1.2,11.025l3.024-.819a25.88,25.88,0,0,1-4.032,5.733,31.35,31.35,0,0,1,7.371,6.93,39.418,39.418,0,0,0,4.6-7.686,32.191,32.191,0,0,1,5.04,7.56,44.1,44.1,0,0,0,10.332-7.686,44.239,44.239,0,0,0,8.694,7.5,46.8,46.8,0,0,1,4.914-9.7,45.029,45.029,0,0,1-7.686-5.67,46.011,46.011,0,0,0,3.465-7.875c.756-2.52,2.331-8.946,2.9-12.159.378-1.89.378-1.89.693-3.339Zm-26.9-6.678a137.621,137.621,0,0,1-1.26,19.971,81.387,81.387,0,0,0-4.158-12.348l-5.67,2.331c1.26-1.89,1.512-2.268,3.4-5.166,2.2-3.465,2.2-3.465,2.961-4.6a35.273,35.273,0,0,1,3.78-.189ZM353.3,75.6a42.354,42.354,0,0,0,4.41,9.009,32.209,32.209,0,0,1-8.694,6.111A62.849,62.849,0,0,0,353.3,75.6Zm12.915-9.072a35.279,35.279,0,0,1-3.087,10.332A45.682,45.682,0,0,1,358.155,66.6a19.135,19.135,0,0,1,2.2-.063Zm-4.788-15.561a130.245,130.245,0,0,1-3.591,14.742c-1.386-4.536-1.953-7.182-2.961-14.742ZM335.1,61.24a29.927,29.927,0,0,1,1.764,4.6c-1.827.126-2.583.189-5.292.315C332.7,64.642,333.207,63.949,335.1,61.24ZM318.654,76.423c-.189,7.5-.819,12.348-2.2,16.821l6.363,3.276a86.77,86.77,0,0,0,2.142-19.278ZM412.965,52.8h-7.623a24.854,24.854,0,0,1-5.355-.252v6.8c1.7-.126,2.2-.126,4.914-.126h8.064v2.331h-5.922a35.636,35.636,0,0,1-4.284-.189V68.3a22.5,22.5,0,0,1,3.717-.189h6.489v2.268H406.98c-1.953,0-3.276-.063-4.788-.189v7.119a37.922,37.922,0,0,1,4.788-.252h5.985v2.268h-7.434a41.407,41.407,0,0,1-5.229-.252v7.56a50.7,50.7,0,0,1,5.229-.189h7.434v3.15c-8.82-.378-12.1-1.323-16-4.6,2.709-6.174,3.906-11.718,4.347-20.664.126-1.386.126-2.016.252-3.528a24.243,24.243,0,0,1-4.1.126h-4.6c2.2-2.9,4.41-5.922,5.859-8.253,1.953-3.087,2.457-3.843,2.961-4.6L397.53,42.34a23.819,23.819,0,0,1-4.473.252h-7.875a34.9,34.9,0,0,1-4.6-.252v9.072a32.572,32.572,0,0,1,4.284-.252h4.473a54.211,54.211,0,0,1-8,10.143v8.253a31.214,31.214,0,0,1,4.473-.252H392.3a31.891,31.891,0,0,1-1.827,7.749,38.171,38.171,0,0,1-2.835-6.426l-7.434,4.41a65.841,65.841,0,0,0,5.985,9.7,36.18,36.18,0,0,1-7.182,6.93,29.561,29.561,0,0,1,5.985,8.505,40.922,40.922,0,0,0,7.623-7.875,25.42,25.42,0,0,0,9.2,4.725c3.969,1.2,9.576,1.638,19.845,1.638,2.457,0,11.97-.063,16.317-.126a37.294,37.294,0,0,1,2.079-9.639c-6.111.5-8.946.63-18.018.693V86.44h11.088c2.142,0,3.78.063,5.355.189v-7.56a38.641,38.641,0,0,1-5.355.252H422.037V77.053h9.513c2.079,0,3.591.063,4.977.189V70.186c-1.512.126-2.835.189-4.977.189h-9.513V68.107h9.513c1.575,0,2.583.063,4.347.189a26.841,26.841,0,0,1-.252-3.969V59.98a31.612,31.612,0,0,1,3.654.315V51.6a16.116,16.116,0,0,1-3.654.315v-4.41a24.557,24.557,0,0,1,.252-4.032,43.161,43.161,0,0,1-4.977.252h-8.883a12.747,12.747,0,0,1,.378-3.528H412.65a15.31,15.31,0,0,1,.315,3.528h-5.544a40.144,40.144,0,0,1-5.04-.252v7.182c1.2-.126,2.961-.189,4.41-.189h6.174Zm9.072,0V50.467h4.725V52.8Zm0,6.426h4.725v2.331h-4.725Zm65.583-4.1,6.426-1.575c-.567-.882-.693-1.134-1.26-1.953h2.457a46.681,46.681,0,0,1,6.552.315v-8.5a50.841,50.841,0,0,1-7.056.315h-9.765c.567-1.26.567-1.26,1.134-2.583l-9.513-1.26a17.2,17.2,0,0,1-4.347,8.316V43.348a36.271,36.271,0,0,1-6.048.315h-6.426c1.008-2.079,1.008-2.079,1.2-2.52l-9.45-1.26c-1.2,4.158-4.347,8.19-9.2,11.718a39.968,39.968,0,0,1,3.843,4.158l-.315-.063v7.686a35.751,35.751,0,0,1,5.1-.252h1.575v4.032c-3.4.315-5.607.5-6.867.5-.441,0-1.2-.063-2.079-.063l1.512,8.568,11.781-1.89a74.844,74.844,0,0,0,9.576-1.953c1.26,1.134,1.26,1.134,1.7,1.512h-1.26a17.436,17.436,0,0,1,.252,3.4h-15.75a66.138,66.138,0,0,1-7.749-.378v8.442a66.983,66.983,0,0,1,7.875-.378h8.757c-5.481,3.087-10.71,4.851-18.27,6.237a32.669,32.669,0,0,1,4.977,8.568,52.93,52.93,0,0,0,12.159-4.914,36.127,36.127,0,0,0,8.127-5.859,15.42,15.42,0,0,1-.126,1.953v3.843a29.366,29.366,0,0,1-.378,5.04h10.458a21.158,21.158,0,0,1-.378-5.04V92.614c-.063-.756-.063-1.26-.063-1.449a13.19,13.19,0,0,0-.063-1.512l-.063-.756a40.422,40.422,0,0,0,10.017,6.867,56.859,56.859,0,0,0,11.214,4.1,41.666,41.666,0,0,1,4.788-9.072c-7.938-1.071-13.545-2.835-18.585-5.859h9.45a68.921,68.921,0,0,1,7.938.378V76.864a73.7,73.7,0,0,1-7.938.378h-16.7a12.431,12.431,0,0,1,.315-3.4h-3.087a14.06,14.06,0,0,0,2.961-4.914,32.814,32.814,0,0,1,3.465,5.8l4.662-3.591c.189,3.213,1.827,4.1,7.749,4.1,5.229,0,7.245-.819,8.316-3.465.63-1.638.882-3.654.945-8.631a25.033,25.033,0,0,1-6.3-2.583,49.82,49.82,0,0,1-.189,5.481c-.126,1.008-.315,1.2-1.26,1.2-.819,0-.882-.063-.882-1.071V60.421a43.184,43.184,0,0,1,.252-5.481c-1.449.126-2.772.189-4.662.189Zm-21.1,10.143c-2.205.441-2.9.567-5.166.882V63.13h2.016c1.575,0,2.583.063,4.284.189v-7.56a32.469,32.469,0,0,1-5.166.189H451.017a32.586,32.586,0,0,0,3.906-4.41h1.512a26.687,26.687,0,0,1,1.827,4.032l8.946-1.323c-.693-1.26-.945-1.764-1.512-2.709h3.969a36.9,36.9,0,0,1,4.221,3.591c-2.331,0-3.024-.063-4.095-.126a25.533,25.533,0,0,1,.189,3.276c0,5.418-.882,8.064-3.339,10.458Zm11.277-10.143a27.724,27.724,0,0,0,2.835-3.528h2.709a25.825,25.825,0,0,1,1.764,3.528Zm7.371,13.356a61.107,61.107,0,0,0-4.1-5.355L477.981,65.4a15.052,15.052,0,0,0,.252-3.024h6.93Zm44.793-10.4H517.419a98.28,98.28,0,0,1-10.521-.441v10.4c3.4-.315,6.678-.441,10.521-.441h12.537V87.889H518.679a64.7,64.7,0,0,1-8.757-.378V97.717a86.729,86.729,0,0,1,8.946-.378h33.39a72.142,72.142,0,0,1,8.82.378V87.511a67.917,67.917,0,0,1-8.883.378H540.54V67.6h14.049a93.5,93.5,0,0,1,9.765.441v-10.4c-3.4.315-6.489.441-10.143.441H540.54V49.081a66.553,66.553,0,0,1,.378-7.812h-11.34a64.652,64.652,0,0,1,.378,7.749Zm122.85,24.129a17.386,17.386,0,0,1-3.15-.252v8.19a20.446,20.446,0,0,1,3.15-.189v1.26a60.025,60.025,0,0,1-.378,8.568h9.261a75.132,75.132,0,0,1-.252-8.568v-1.26h17.388V91.48c0,1.008-.441,1.2-2.52,1.2a28.822,28.822,0,0,1-4.158-.378,21.177,21.177,0,0,1,1.575,7.119c2.016.063,2.961.126,4.158.126,7.938,0,9.576-1.134,9.576-6.615V89.968a23.341,23.341,0,0,1,3.339.252V81.9a17.575,17.575,0,0,1-3.339.252V73.9a54.5,54.5,0,0,1,.252-5.985,41.649,41.649,0,0,1-5.607.252h-7.686V66.406h10.521a51.859,51.859,0,0,1,5.733.252V59.413a51.185,51.185,0,0,1-5.67.315h-2.961V57.9h2.142a25.49,25.49,0,0,1,4.221.189V52.231c-1.26.126-3.15.252-4.284.252h-2.079v-1.89h2.835a35.327,35.327,0,0,1,5.04.252V44.1a46.051,46.051,0,0,1-5.04.315h-2.835a11.1,11.1,0,0,1,.378-3.654H672.84a11.7,11.7,0,0,1,.378,3.654h-6.111a10.662,10.662,0,0,1,.378-3.654h-9.576a10.881,10.881,0,0,1,.378,3.654h-1.575A29.283,29.283,0,0,1,651.8,44.1v6.741a40.146,40.146,0,0,1,5.04-.252h1.449v1.89h-1.134a30.154,30.154,0,0,1-4.284-.252V58.09a34.921,34.921,0,0,1,4.284-.189h1.134v1.827h-2.142a31.38,31.38,0,0,1-4.851-.252V50.971a18.279,18.279,0,0,1-3.4.252h-.63V46.939a46.678,46.678,0,0,1,.315-6.552h-9.765a44.626,44.626,0,0,1,.378,6.552v4.284h-1.827a16.357,16.357,0,0,1-4.032-.315v9.135a16.99,16.99,0,0,1,4.032-.315h1.26a41.322,41.322,0,0,1-7.056,16.947A62.3,62.3,0,0,1,634.662,86a33.154,33.154,0,0,0,3.78-8.568c-.126,1.953-.189,4.347-.189,6.678v7.623a60.624,60.624,0,0,1-.441,8.127h9.828a73.332,73.332,0,0,1-.378-8.127V78.565c-.063-3.465-.126-5.544-.189-6.174a20.628,20.628,0,0,0,2.52,4.6,41.121,41.121,0,0,1,3.15-6.489c.063,1.134.063,1.7.063,2.961Zm8.631.882V80.833h4.725V83.1Zm0-7.056V73.9h4.725v2.142ZM673.848,83.1V80.833h4.977V83.1Zm0-7.056V73.9h4.977v2.142Zm-8.379-9.639V68.17h-7.875c-1.953,0-3.4-.063-4.788-.126A7.466,7.466,0,0,1,651.42,66.6c1.26-.126,3.276-.189,5.229-.189ZM651.1,66.154a22.357,22.357,0,0,1-3.339-6.426,23.278,23.278,0,0,1,3.339.189Zm16-6.426V57.9h6.111v1.827Zm0-7.245v-1.89h6.111v1.89Zm72.513,2.646,6.426-1.575c-.567-.882-.693-1.134-1.26-1.953h2.457a46.68,46.68,0,0,1,6.552.315v-8.5a50.84,50.84,0,0,1-7.056.315h-9.765c.567-1.26.567-1.26,1.134-2.583l-9.513-1.26a17.2,17.2,0,0,1-4.347,8.316V43.348a36.271,36.271,0,0,1-6.048.315h-6.426c1.008-2.079,1.008-2.079,1.2-2.52l-9.45-1.26c-1.2,4.158-4.347,8.19-9.2,11.718a39.972,39.972,0,0,1,3.843,4.158l-.315-.063v7.686a35.75,35.75,0,0,1,5.1-.252h1.575v4.032c-3.4.315-5.607.5-6.867.5-.441,0-1.2-.063-2.079-.063l1.512,8.568,11.781-1.89a74.844,74.844,0,0,0,9.576-1.953c1.26,1.134,1.26,1.134,1.7,1.512h-1.26a17.434,17.434,0,0,1,.252,3.4H703.4a66.138,66.138,0,0,1-7.749-.378v8.442a66.983,66.983,0,0,1,7.875-.378h8.757c-5.481,3.087-10.71,4.851-18.27,6.237a32.669,32.669,0,0,1,4.977,8.568,52.929,52.929,0,0,0,12.159-4.914,36.126,36.126,0,0,0,8.127-5.859,15.43,15.43,0,0,1-.126,1.953v3.843a29.372,29.372,0,0,1-.378,5.04h10.458a21.161,21.161,0,0,1-.378-5.04V92.614c-.063-.756-.063-1.26-.063-1.449a13.19,13.19,0,0,0-.063-1.512l-.063-.756a40.422,40.422,0,0,0,10.017,6.867,56.859,56.859,0,0,0,11.214,4.1,41.667,41.667,0,0,1,4.788-9.072c-7.938-1.071-13.545-2.835-18.585-5.859h9.45a68.921,68.921,0,0,1,7.938.378V76.864a73.7,73.7,0,0,1-7.938.378h-16.7a12.432,12.432,0,0,1,.315-3.4h-3.087a14.059,14.059,0,0,0,2.961-4.914,32.812,32.812,0,0,1,3.465,5.8l4.662-3.591c.189,3.213,1.827,4.1,7.749,4.1,5.229,0,7.245-.819,8.316-3.465.63-1.638.882-3.654.945-8.631a25.034,25.034,0,0,1-6.3-2.583,49.833,49.833,0,0,1-.189,5.481c-.126,1.008-.315,1.2-1.26,1.2-.819,0-.882-.063-.882-1.071V60.421a43.178,43.178,0,0,1,.252-5.481c-1.449.126-2.772.189-4.662.189Zm-21.1,10.143c-2.205.441-2.9.567-5.166.882V63.13h2.016c1.575,0,2.583.063,4.284.189v-7.56a32.469,32.469,0,0,1-5.166.189H703.017a32.589,32.589,0,0,0,3.906-4.41h1.512a26.69,26.69,0,0,1,1.827,4.032l8.946-1.323c-.693-1.26-.945-1.764-1.512-2.709h3.969a36.9,36.9,0,0,1,4.221,3.591c-2.331,0-3.024-.063-4.095-.126a25.533,25.533,0,0,1,.189,3.276c0,5.418-.882,8.064-3.339,10.458Zm11.277-10.143a27.718,27.718,0,0,0,2.835-3.528h2.709a25.821,25.821,0,0,1,1.764,3.528Zm7.371,13.356a61.12,61.12,0,0,0-4.1-5.355L729.981,65.4a15.056,15.056,0,0,0,.252-3.024h6.93ZM906.7,54.058V49.207a45.323,45.323,0,0,1,.252-6.426H895.419a42.462,42.462,0,0,1,.378,6.678v4.6h-2.142a55.448,55.448,0,0,1-9.072-.441V64.39a74.667,74.667,0,0,1,8.883-.315H895.8V71a46.8,46.8,0,0,1-.378,6.615h11.529a56.507,56.507,0,0,1-.252-6.489V64.075h13.293c-.063,3.591-.063,4.032-.126,5.166-.5,7.056-2.331,11.151-6.615,14.553-2.835,2.268-6.048,3.717-12.159,5.544a30.776,30.776,0,0,1,6.867,9.639c6.363-2.394,9.639-4.158,13.041-7.119,5.544-4.788,8.379-10.521,9.324-19.026.252-2.394.315-3.78.441-8.757h2.772c4.1,0,5.859.063,8.883.315V53.617a55.448,55.448,0,0,1-9.072.441h-2.457c.063-9.324.063-9.324.315-11.214h-11.34a46.537,46.537,0,0,1,.315,7.056v4.158Zm85.491-12.285c-1.827,3.15-6.048,7.434-11.466,11.529-10.143,7.812-19.782,12.537-33.453,16.38a33.828,33.828,0,0,1,6.048,10.143,107.234,107.234,0,0,0,20.6-9.324V87.889a85.6,85.6,0,0,1-.378,10.143h12.222a90.039,90.039,0,0,1-.378-10.206V63.571a105.6,105.6,0,0,0,14.553-12.663,22.551,22.551,0,0,1,2.457-2.331Zm43.155,55.944a92.357,92.357,0,0,1-.378-9.639V71.7a15.131,15.131,0,0,0,2.835,1.26,116.78,116.78,0,0,1,19.845,10.962l5.985-10.71a133.628,133.628,0,0,0-28.665-13.1V51.475a81.439,81.439,0,0,1,.315-9.2H1023.12a59.6,59.6,0,0,1,.441,9.135V88.078a89.914,89.914,0,0,1-.378,9.639ZM26.838,179.432A84.666,84.666,0,0,0,44.793,159.02a116.615,116.615,0,0,1,8,24.633l9.2-4.788a138.808,138.808,0,0,0-9.009-24.633l-7.308,3.4A116.77,116.77,0,0,0,51.6,146.861c1.89-3.717,1.89-3.717,2.835-5.544l-9.954-3.906a42.45,42.45,0,0,1-3.591,9.261,79.063,79.063,0,0,1-14.049,20.034V154.8c0-2.394.126-4.347.315-6.489H16.884a59.836,59.836,0,0,1,.315,6.867v19.908A76.1,76.1,0,0,1,1.323,184.22a34.166,34.166,0,0,1,6.363,8.442,102.467,102.467,0,0,0,9.576-5.985c.63,5.1,3.276,6.3,13.923,6.3,7.245,0,11.34-.5,13.419-1.7,3.339-1.89,4.536-5.733,5.355-17.136a38.654,38.654,0,0,1-9.261-3.213c-.063,5.607-.378,8.82-1.008,10.836-.693,1.953-1.953,2.394-6.93,2.394-4.914,0-5.922-.252-5.922-1.575ZM16.506,141.506c8.568,3.339,13.923,6.048,18.27,9.2l5.607-8.568a103.421,103.421,0,0,0-18.018-8.127Zm-10.08,11.4c-.945,9.387-2.331,15.435-4.914,21.8l8.694,4.158c2.583-6.93,3.843-12.978,4.977-23.94ZM73.962,166.58a58.064,58.064,0,0,1-7.623-.315v8.568a63.823,63.823,0,0,1,7.623-.378h4.851c-1.7,1.953-2.709,3.024-5.481,5.733,5.859,1.26,7.5,1.638,14.112,3.339-4.347,1.2-9.45,1.7-16.191,1.7-.819,0-2.142,0-4.284-.063a33.411,33.411,0,0,1,3.591,8.442c13.419-.63,21.8-2.394,29.169-6.237a153.542,153.542,0,0,1,16.38,6.8l5.733-7.812a151.722,151.722,0,0,0-14.49-5.04,26.792,26.792,0,0,0,4.41-6.867h4.158a62.681,62.681,0,0,1,7.56.378v-8.568a54.109,54.109,0,0,1-7.56.315H95.067c.315-.567.315-.567.5-.945.252-.378.5-.945.882-1.575h16.065a63.6,63.6,0,0,1,7.119.252c-.126-1.638-.189-3.4-.189-6.867v-3.717a63.31,63.31,0,0,1,.252-6.93,72.245,72.245,0,0,1-7.308.252H105.9v-2.457h10.143c2.961,0,5.229.126,7.56.315v-8.757a67.485,67.485,0,0,1-8.442.378H74.907a74.8,74.8,0,0,1-8.442-.378v8.757c2.331-.189,4.662-.315,7.623-.315h9.765v2.457H77.364c-3.15,0-5.1-.063-7.182-.252a69.258,69.258,0,0,1,.252,6.993v3.78a65.389,65.389,0,0,1-.252,6.741c2.142-.189,4.1-.252,7.308-.252H86c-.63,1.26-.819,1.512-1.386,2.52Zm26.964,7.875a15.7,15.7,0,0,1-3.4,4.1c-2.142-.63-2.142-.63-9.639-2.268.819-.882,1.071-1.134,1.638-1.827ZM92.8,144.593h4.158v2.457H92.8Zm-8.946,8.82v4.347h-4.1v-4.347Zm8.946,0h4.158v4.347H92.8Zm13.1,0h4.284v4.347H105.9Zm37.548-18.459a42.071,42.071,0,0,1-.945,7.5,21.651,21.651,0,0,0-.567,2.646c-1.26.063-1.575.063-2.268.063a51.5,51.5,0,0,1-9.2-.63v10.08h2.457c1.449.063,1.449.063,2.9.063h3.528c-2.835,8.883-7.182,17.829-11.655,23.814l10.269,5.607a25.47,25.47,0,0,1,1.2-2.457c2.457-4.914,3.024-6.048,4.347-8.946a129.524,129.524,0,0,0,6.867-18.27c1.575-.126,5.04-.441,6.741-.63,3.15-.378,3.15-.378,4.662-.5l-.189-10.206a48.489,48.489,0,0,1-8.757,1.512c.315-1.449.441-2.016.756-3.528a27.536,27.536,0,0,1,1.2-5.04Zm43.659,15.372a105.115,105.115,0,0,0-18.963-8.5l-5.229,8.694a89.136,89.136,0,0,1,19.593,9.072Zm-.567,28.854c-1.89-1.512-2.9-2.331-3.087-2.457a46.141,46.141,0,0,0-9.7-5.607,56.1,56.1,0,0,1-.5-7.308,29.274,29.274,0,0,1,.693-7.119l-10.395-.441c-.252,2.835-.378,4.851-.378,7.434,0,1.449.063,2.646.252,5.04a25.786,25.786,0,0,0-4.41-.378c-8.757,0-14.868,5.1-14.868,12.411a11,11,0,0,0,3.15,7.812c2.583,2.646,6.867,4.158,11.907,4.158s9.45-1.449,11.907-3.906a9.314,9.314,0,0,0,2.646-6.552,33.739,33.739,0,0,1,8.127,6.867Zm-22.932-1.071a6.411,6.411,0,0,1,.126,1.386c0,2.646-1.638,4.032-4.788,4.032-2.709,0-4.473-1.2-4.473-3.024,0-1.953,1.89-3.213,4.851-3.213A10.951,10.951,0,0,1,163.611,178.109Zm56.952-6.426h6.678a45.954,45.954,0,0,0,2.9,9.135,36.29,36.29,0,0,1-13.1,5.355,27.531,27.531,0,0,1,4.788,7.749,51.613,51.613,0,0,0,12.285-6.552c2.9,3.654,5.481,5.733,7.686,6.174q.189,0,2.079.189a9.019,9.019,0,0,0,1.323-.252,4.8,4.8,0,0,0,3.024-2.394c1.2-1.953,1.89-4.473,2.52-9.009a16.463,16.463,0,0,1-5.922-4.6c.882-1.008,1.2-1.512,2.268-2.961l-5.607-2.835h1.89c1.953,0,4.788.126,6.552.315v-8.757a25.606,25.606,0,0,1-5.166.315,19.33,19.33,0,0,0-1.512-3.024c.945-.126,1.008-.126,2.331-.252.126.819.189,1.134.378,2.268l5.04-1.449a61.033,61.033,0,0,0-2.646-9.954l-4.725,1.2c.441,1.2.567,1.512.882,2.583-1.26.063-2.142.063-4.1.126a86.681,86.681,0,0,0,9.513-10.08l-5.355-3.591a47.373,47.373,0,0,1-3.465,4.914q-.378-.472-1.134-1.323a67.824,67.824,0,0,0,5.355-7.119l-6.489-3.591a24.566,24.566,0,0,1-3.528,5.985L234.3,139.3l-1.071,1.323v-2.457a22.987,22.987,0,0,1,.252-3.717h-9.2c.252,1.7.252,1.7.567,8.946l-2.9-1.827a34.741,34.741,0,0,1-3.339,5.04,12.475,12.475,0,0,0-1.071-1.323,55.1,55.1,0,0,0,5.229-7.875l-6.489-3.339a28.541,28.541,0,0,1-3.4,6.174l-1.071-1.071-4.914,5.04c.5.5.693.63,1.134,1.071-.882.063-1.26.063-1.827.063h-.819V141a39.068,39.068,0,0,1,.315-6.552H196.56a64.238,64.238,0,0,1,.315,6.552v4.347H195.3a16.008,16.008,0,0,1-4.1-.315v9.072a26.409,26.409,0,0,1,4.1-.315h1.071a40.7,40.7,0,0,1-6.615,16.632,64.815,64.815,0,0,1,3.654,9.954,34.9,34.9,0,0,0,3.78-9.2c-.189,3.339-.252,6.237-.252,7.371v7.308c0,3.465-.126,6.174-.315,8.127H205.7a51.634,51.634,0,0,1-.252-6.489,27.932,27.932,0,0,1,6.174,5.922,29.628,29.628,0,0,0,7.371-12.663,15.241,15.241,0,0,0,4.158,3.465,36.307,36.307,0,0,1,3.78-7.245,17.584,17.584,0,0,1-6.363-4.662Zm13.8-8.127c-.063-.315-.126-1.071-.252-2.331,1.89-.063,2.079-.126,3.087-.189a24.875,24.875,0,0,1,1.2,2.52Zm-.756-9.072c-.189-2.9-.189-4.1-.252-6.93,1.575,1.7,1.89,2.079,3.339,3.843C235.872,152.342,235.494,152.657,233.6,154.484Zm-28.161,31.374-.063-15.624q-.095-5.386-.189-6.048a22.132,22.132,0,0,0,2.52,4.662c.882-2.268,1.134-2.961,1.7-4.347v7.371c.819-.063.819-.063,3.15-.189-.567,6.993-2.52,11.214-7.119,15.435Zm16.443-33.012c.252,1.134.315,1.449.5,2.331-2.142.252-2.457.315-3.906.378a74.6,74.6,0,0,0,6.111-6.8c.126-.126.252-.315.5-.63.063,1.827.126,2.709.126,3.843Zm3.969,8.757c.126.945.126,1.008.189,1.953H214.011a21.184,21.184,0,0,1-4.1-.189,8.669,8.669,0,0,1,.5-1.071c2.772-.315,5.355-.63,7.686-.882,1.512-.126,2.961-.315,5.1-.693.063.63.126,1.134.189,1.638Zm18.837,16.065c-.5,5.1-.882,6.552-1.827,6.552-.441,0-1.071-.567-2.331-2.079A46.593,46.593,0,0,0,244.692,177.668Zm-4.725-5.985a20.721,20.721,0,0,1-3.024,3.969,29.617,29.617,0,0,1-1.2-3.969ZM209.6,159.9a18.458,18.458,0,0,1-3.906-6.111h.693a16.137,16.137,0,0,1,2.457.189,2.609,2.609,0,0,1,.63.063v-7.182c1.449,1.575,2.079,2.331,4.6,5.481-1.071,1.2-1.071,1.2-3.15,3.4h-.567a9.8,9.8,0,0,1-1.26-.063Zm50.9-4.914a36.777,36.777,0,0,1-4.032-.126c.126,1.89.189,3.591.189,5.733v25.767a52.1,52.1,0,0,1-.378,7.434h9.954a66.069,66.069,0,0,1-.315-7.434V181.2h7.434v2.835c0,.5-.567.756-1.575.756a18.736,18.736,0,0,1-3.528-.378,33.305,33.305,0,0,1,1.827,8.757c1.512.063,2.772.063,3.591.063,3.843,0,6.237-.756,7.56-2.331.882-1.134,1.26-2.583,1.26-5.166V160.784a50.284,50.284,0,0,1,.252-5.985c-1.323.126-2.016.126-3.906.189l6.3-3.717v5.607c0,2.646.945,3.969,3.339,4.725,1.764.5,3.78.693,8.127.693,8.316,0,11.34-.441,13.167-1.89,1.764-1.512,2.331-3.591,2.835-10.458a32.934,32.934,0,0,1-8.883-2.268c-.063,3.528-.189,4.914-.567,5.355-.63.63-1.89.819-5.1.819-3.087,0-3.528-.189-3.528-1.512v-2.331a90.541,90.541,0,0,0,15.75-5.8c1.071-.5,1.512-.693,2.646-1.134l-6.489-8.127a25.858,25.858,0,0,1-5.922,3.654,33.318,33.318,0,0,1-5.985,2.457V139.49a31.5,31.5,0,0,1,.252-4.788h-9.891a40.583,40.583,0,0,1,.252,5.292v7.623a74.787,74.787,0,0,0-6.363-11.025l-7.119,3.339c1.2,2.268,1.575,2.961,2.079,3.969-2.331.252-3.465.315-5.922.5,1.764-3.087,2.961-5.355,3.717-6.93a14.84,14.84,0,0,1,1.2-2.268l-10.206-1.386a39.978,39.978,0,0,1-4.347,10.962h-1.2c-.882,0-2.2-.063-3.276-.126l.882,9.576a33.757,33.757,0,0,1,4.158-.441c6.678-.5,13.86-1.26,18.522-2.016.378,1.008.5,1.323,1.2,3.213H260.505Zm5.355,7.623h7.5v2.457h-7.5Zm0,9.261h7.5v2.52h-7.5Zm28.665-2.9a32.725,32.725,0,0,1,.252-4.977h-9.891a43.01,43.01,0,0,1,.252,5.544v17.766c0,2.268.567,3.465,2.079,4.41,1.638.945,4.158,1.323,9.765,1.323,8.316,0,11.214-.5,13.1-2.268,1.953-1.764,2.52-3.78,2.961-11.151a32.7,32.7,0,0,1-9.009-2.583c-.063,4.158-.189,5.733-.567,6.363-.5.756-1.764,1.008-4.725,1.008-3.339,0-4.221-.378-4.221-1.7v-4.095a98.8,98.8,0,0,0,18.837-6.678l-6.678-7.812a38.889,38.889,0,0,1-12.159,5.67Zm21.861,17.892C327.159,191.4,320.418,181.448,316.386,186.866Z" transform="translate(2970 4135.622)" fill="#0d68ac"/>
  </g>
</svg>
