<svg xmlns="http://www.w3.org/2000/svg" width="375" height="913" viewBox="0 0 375 913">
  <path id="Subtraction_4" data-name="Subtraction 4" d="M768,913H393V9.352c.584-.231,6.082-2.313,19.48-4.45,8.233-1.313,17.782-2.384,28.382-3.183,13.251-1,28.188-1.575,44.4-1.709C486.123,0,486.912,0,487.606,0c8.348,0,16.5.36,24.928,1.1,7.508.659,15.077,1.609,23.14,2.9,14.96,2.4,29.383,5.668,43.332,8.825l.022.005.013,0c14.1,3.191,28.68,6.49,43.9,8.929,8.207,1.313,15.924,2.278,23.593,2.948,8.617.753,16.964,1.119,25.519,1.119a367.636,367.636,0,0,0,45.227-2.575A213.079,213.079,0,0,0,746.9,17.593a109.025,109.025,0,0,0,16.186-5.666A38.465,38.465,0,0,0,768,9.355Z" transform="translate(-393)" fill="#bb1c21"/>
</svg>
