<svg xmlns="http://www.w3.org/2000/svg" width="1224.44" height="455.456" viewBox="0 0 1224.44 455.456">
  <g id="Group_443" data-name="Group 443" transform="translate(-335.56 -4845.124)">
    <path id="Path_524" data-name="Path 524" d="M10,11.2A1.5,1.5,0,1,0,8.5,9.7,1.511,1.511,0,0,0,10,11.2Zm0,3.62L3.4,8.22l-.58.58,6.6,6.6L2.8,22.02l.58.58L10,15.98l6.6,6.6.58-.58-6.6-6.6,6.6-6.6-.58-.58Zm-4.2.58a1.5,1.5,0,1,0-1.5,1.5A1.511,1.511,0,0,0,5.8,15.4Zm8.4,0a1.5,1.5,0,1,0,1.5-1.5A1.511,1.511,0,0,0,14.2,15.4ZM10,19.6a1.5,1.5,0,1,0,1.5,1.5A1.511,1.511,0,0,0,10,19.6ZM25.56,6.32a22.457,22.457,0,0,1-5.04,7.88,12.145,12.145,0,0,1,.84,1.44,21.612,21.612,0,0,0,2.14-2.56v11.4h1.42V10.9a29.71,29.71,0,0,0,2.04-4.16Zm3.46,2.22h7.42V12.2H29.02Zm10,8.82V16h-5.6V13.52h4.5V7.2H27.62v6.32h4.32V16h-5.8v1.36h4.94a14.814,14.814,0,0,1-5.52,5.12,7.325,7.325,0,0,1,1.04,1.18,16.715,16.715,0,0,0,5.34-5.32v6.2h1.48V18.28a18.42,18.42,0,0,0,5.06,5.42,6.738,6.738,0,0,1,1.06-1.18,15.583,15.583,0,0,1-5.26-5.16Zm8.34-10.4H41.9v1.2h5.46Zm.7,2.66H40.84v1.22h7.22Zm-.68,2.76h-5.6v1.18h5.6Zm-5.6,3.9h5.6V15.1h-5.6Zm4.38,2.76v3.32H43.04V19.04Zm1.3-1.22H41.74V24.5h1.3v-.9h4.42Zm7.34,4.6V15.78h3.96v-1.4H54.8V8.88h4.08V7.5H48.72V8.88h4.64V22.42h-2.4V12.48h-1.4v9.94h-1.5v1.42H59.2V22.42Zm9.34-6.06h3.62v2H64.14Zm3.62-6.12V12H64.14V10.24ZM64.14,13.2h3.62v1.96H64.14Zm6.46,5.16H69.14V10.24H70.6V8.9H69.14V6.5H67.76V8.9H64.14V6.5H62.78V8.9H61.1v1.34h1.68v8.12H60.84V19.7H70.6Zm-7,1.76a10.433,10.433,0,0,1-2.74,3.56,9.194,9.194,0,0,1,1.2.86,13.22,13.22,0,0,0,2.96-4.04Zm2.84.62a15.7,15.7,0,0,1,2.06,3.04l1.2-.7a14.816,14.816,0,0,0-2.1-2.96Zm6.5-4.28c.02-.68.04-1.36.04-1.98V13.14h4.08v3.32Zm4.12-7.84V11.8H72.98V8.62ZM78.5,7.26H71.58v7.22c0,2.86-.16,6.66-1.82,9.3a3.811,3.811,0,0,1,1.18.86,15.658,15.658,0,0,0,1.9-6.84h4.22v4.8c0,.32-.12.42-.42.42-.28.02-1.28.02-2.34,0a6.046,6.046,0,0,1,.46,1.44,8.865,8.865,0,0,0,2.98-.28c.54-.24.76-.68.76-1.56Zm9.16,1.02V9.94H83.34V8.28ZM83.34,12.8V11.04h4.32V12.8Zm5.74,1.14V7.12H81.86V24.54h1.48V13.94ZM92.3,16.6v1.84H87.6V16.6Zm-4.7,4.9V19.56h4.7V21.5Zm6.08,1.18V15.44H86.26v8.24H87.6v-1Zm-1.4-9.86V11.04h4.48v1.78Zm4.48-4.54V9.94H92.28V8.28Zm1.5-1.16h-7.4v6.84h5.9v8.58c0,.36-.12.48-.46.48-.36.02-1.58.04-2.8-.02a5.478,5.478,0,0,1,.52,1.52,11.384,11.384,0,0,0,3.36-.26c.66-.26.88-.76.88-1.7ZM109.12,9.5v1.6a47.011,47.011,0,0,0,8.22,0V9.48A34.218,34.218,0,0,1,109.12,9.5Zm.78,8.14-1.44-.14a10.749,10.749,0,0,0-.34,2.36c0,1.88,1.5,3,4.86,3a27.1,27.1,0,0,0,5-.42l-.04-1.68a22.063,22.063,0,0,1-4.96.52c-2.72,0-3.38-.88-3.38-1.8A6.984,6.984,0,0,1,109.9,17.64Zm-4.6-9.68-1.78-.16a8.752,8.752,0,0,1-.14,1.42,56.256,56.256,0,0,0-.9,8.02,25.182,25.182,0,0,0,.74,6.42l1.44-.1c-.02-.2-.04-.48-.06-.7a3.86,3.86,0,0,1,.1-.9,40.817,40.817,0,0,1,1.42-4.48l-.84-.64c-.34.82-.82,2.02-1.16,2.92a21.935,21.935,0,0,1-.18-2.8,46.44,46.44,0,0,1,1-7.66C105.02,8.94,105.2,8.3,105.3,7.96Zm16.16,4.6.74,1.76c1.58-.64,6.68-2.82,9.96-2.82,2.7,0,4.26,1.64,4.26,3.74,0,4.1-4.68,5.68-9.92,5.82l.72,1.66c6.16-.34,10.94-2.66,10.94-7.44,0-3.36-2.64-5.28-5.96-5.28-2.92,0-6.84,1.44-8.54,1.98A19.955,19.955,0,0,1,121.46,12.56Zm23-3.52L142.52,9a9.022,9.022,0,0,1,.14,1.78c0,1.16.04,3.6.22,5.34.54,5.18,2.36,7.06,4.26,7.06,1.34,0,2.56-1.16,3.76-4.56l-1.26-1.42c-.52,2-1.46,4.08-2.48,4.08-1.42,0-2.4-2.22-2.72-5.56-.14-1.66-.16-3.48-.14-4.74A15.227,15.227,0,0,1,144.46,9.04Zm10.42.56-1.56.54c1.92,2.34,3.12,6.44,3.48,10.06l1.6-.66A21.494,21.494,0,0,0,154.88,9.6Zm6.22.12.18,1.74c2.16-.46,7.26-.94,9.4-1.18a8.124,8.124,0,0,0-3.74,6.76c0,4.46,4.22,6.44,7.92,6.58l.58-1.66c-3.26-.12-6.9-1.36-6.9-5.28a7.035,7.035,0,0,1,4.58-6.32,16.752,16.752,0,0,1,3.92-.32V8.44c-1.34.06-3.22.16-5.4.36-3.68.3-7.46.68-8.76.82C162.5,9.66,161.86,9.7,161.1,9.72ZM187.92,20.6c0-.98,1.06-1.62,2.56-1.62a6.806,6.806,0,0,1,2.04.32c.02.26.02.5.02.7,0,1.32-.5,2.18-2.18,2.18C188.92,22.18,187.92,21.62,187.92,20.6Zm6.06-13h-1.8c.04.34.08.88.08,1.22V11.3c-.62.02-1.26.04-1.88.04-1.2,0-2.26-.06-3.4-.16v1.5c1.18.08,2.22.14,3.36.14.64,0,1.28-.02,1.92-.04.02,1.64.14,3.6.2,5.14a9.172,9.172,0,0,0-1.86-.18c-2.62,0-4.12,1.34-4.12,3.02,0,1.8,1.48,2.86,4.16,2.86,2.7,0,3.46-1.58,3.46-3.22v-.42a16.271,16.271,0,0,1,3.02,2.32l.88-1.34a13.183,13.183,0,0,0-3.96-2.58c-.08-1.68-.22-3.68-.24-5.7,1.2-.08,2.36-.2,3.46-.38V10.76a33.771,33.771,0,0,1-3.46.46c.02-.94.04-1.88.06-2.42Q193.89,8.2,193.98,7.6Zm-9.88.12-1.76-.14A12,12,0,0,1,182.22,9a59.51,59.51,0,0,0-.92,8.42,24.157,24.157,0,0,0,.76,6.32l1.4-.1c-.02-.22-.04-.5-.04-.7a3.583,3.583,0,0,1,.08-.9c.2-.98.94-3.02,1.42-4.42l-.82-.64c-.34.82-.82,2.04-1.14,2.94a18.761,18.761,0,0,1-.2-2.78,49.589,49.589,0,0,1,1-8.06A10.4,10.4,0,0,1,184.1,7.72Zm20.36,16.4,1.36-1.16a37.54,37.54,0,0,0-4.48-4.44l-1.3,1.14A33.321,33.321,0,0,1,204.46,24.12Zm22.76-17.1h-1.78a10.547,10.547,0,0,1,.1,1.42c0,.36-.02,1.24-.02,2.28-.56.04-1.08.06-1.54.06a18.507,18.507,0,0,1-2.56-.16l.04,1.52a21.969,21.969,0,0,0,2.56.1c.42,0,.92-.02,1.48-.06-.02.88-.02,1.82-.02,2.62v1.14c-2.3.98-4.38,2.72-4.38,4.38,0,1.78,2.6,3.32,4.16,3.32,1.08,0,1.76-.6,1.76-2.46,0-.86-.04-2.64-.08-4.34a13.1,13.1,0,0,1,4.36-.78c1.9,0,3.44.92,3.44,2.62,0,1.84-1.6,2.78-3.36,3.12a10.228,10.228,0,0,1-2.34.14l.56,1.62a15.166,15.166,0,0,0,2.48-.28c2.74-.66,4.26-2.2,4.26-4.62,0-2.4-2.1-3.98-5.02-3.98a15.126,15.126,0,0,0-4.4.74v-.7c0-.8.02-1.76.04-2.7a36.717,36.717,0,0,0,4.2-.7l-.04-1.56a26.9,26.9,0,0,1-4.12.8c.02-.9.06-1.68.08-2.16A12.832,12.832,0,0,1,227.22,7.02Zm6.2,2.22-.72,1.2a25.37,25.37,0,0,1,4.48,3l.82-1.28A36.353,36.353,0,0,0,233.42,9.24Zm-10.76,11c0-.9,1.22-2.06,2.86-2.82.02,1.46.06,2.82.06,3.54,0,.66-.28.98-.74.98C224.06,21.94,222.66,21.16,222.66,20.24Zm19.8-4.36c.18-.9.34-1.88.5-2.82h6.02V7.1H241V8.5h6.52v3.16h-5.84c-.28,2.02-.76,4.66-1.16,6.32l1.46.24c.06-.3.14-.62.22-.96h5.26c-.26,3.6-.6,5.14-1.08,5.56a1.161,1.161,0,0,1-.88.22c-.5,0-1.82-.02-3.14-.14a3.369,3.369,0,0,1,.52,1.52,29.108,29.108,0,0,0,3.16.04,1.928,1.928,0,0,0,1.58-.64c.72-.68,1.06-2.54,1.42-7.26.02-.2.04-.68.04-.68Zm11.98-9.4V24.52h1.48V6.48Zm10.68,2.1a12.726,12.726,0,0,0-3.34-2.08l-.82,1.08a13.929,13.929,0,0,1,3.28,2.18Zm-1.02,5.16a14.979,14.979,0,0,0-3.44-1.98l-.84,1.1a14.582,14.582,0,0,1,3.42,2.1Zm-.86,3.2a55.641,55.641,0,0,1-3.14,6.44l1.34.88c.98-1.88,2.14-4.34,3-6.46Zm11.12-4.02v1.9h-3.7v-1.9Zm-7.24,0h2.24V16h6.36V12.92h2.36V11.7h-2.36V10.1h-1.36v1.6h-3.7V10.1h-1.3v1.6h-2.24V9.56h10.82V8.28h-5.2v-2h-1.48v2H265.7v5.36c0,3-.18,7.18-2.18,10.12a5.038,5.038,0,0,1,1.24.72c2.06-3.08,2.36-7.64,2.36-10.84Zm7.98,5.44a8.244,8.244,0,0,1-2.6,2.66,7.8,7.8,0,0,1-2.34-2.66Zm1.04-1.28-.26.06h-8.24v1.22h2.12l-.94.28a10.11,10.11,0,0,0,2.48,3.1,16.582,16.582,0,0,1-4.66,1.54,4.905,4.905,0,0,1,.72,1.2,18.326,18.326,0,0,0,5.1-1.88,14.713,14.713,0,0,0,4.94,1.9,4.943,4.943,0,0,1,.9-1.22,14.638,14.638,0,0,1-4.6-1.5,9.821,9.821,0,0,0,3.34-4.3Zm9.66-9.66-2.02-.02a10.556,10.556,0,0,1,.16,2.04c0,2.1-.2,7.16-.2,10.12,0,3.26,1.98,4.46,4.86,4.46a10.052,10.052,0,0,0,8.36-4.42l-1.14-1.36c-1.44,2.08-3.5,4.14-7.16,4.14-1.9,0-3.28-.78-3.28-2.98,0-2.98.14-7.7.24-9.96A17.229,17.229,0,0,1,285.8,7.42Zm18.3,14.12V15.96h9.92v5.58ZM314.02,9.1v5.4H304.1V9.1ZM302.6,7.64V24.3h1.5V23h9.92v1.22h1.56V7.64Zm25.26-.36-1.8-.12a6.86,6.86,0,0,1-.02,1.42c-.04.58-.12,1.3-.22,2.1a19.831,19.831,0,0,1-4.38-.74l-.08,1.46a27.584,27.584,0,0,0,4.3.7c-.16,1.18-.32,2.44-.44,3.62a17.848,17.848,0,0,1-4.26-.82l-.08,1.54a19.766,19.766,0,0,0,4.18.72c-.1.94-.16,1.74-.16,2.3,0,3.28,2.18,4.46,4.9,4.46,3.96,0,6.6-1.8,6.6-4.78a6.563,6.563,0,0,0-2.04-4.62l-1.76.36a5.548,5.548,0,0,1,2.18,4.08c0,2.06-1.94,3.4-4.98,3.4-2.28,0-3.36-1.2-3.36-3.14,0-.48.04-1.18.12-1.98h.72a36.227,36.227,0,0,0,3.92-.2l.04-1.52a29.413,29.413,0,0,1-4.16.26h-.38c.14-1.18.3-2.44.44-3.62h.14c1.62,0,2.78-.06,4.06-.18l.04-1.5a26.97,26.97,0,0,1-4.06.26c.12-.84.22-1.54.28-2.06A11.164,11.164,0,0,1,327.86,7.28Zm17.94.14-2.02-.02a10.556,10.556,0,0,1,.16,2.04c0,2.1-.2,7.16-.2,10.12,0,3.26,1.98,4.46,4.86,4.46a10.052,10.052,0,0,0,8.36-4.42l-1.14-1.36c-1.44,2.08-3.5,4.14-7.16,4.14-1.9,0-3.28-.78-3.28-2.98,0-2.98.14-7.7.24-9.96A17.229,17.229,0,0,1,345.8,7.42Zm27.28.82L371.6,6.92a9.472,9.472,0,0,1-1.14,1.34c-1.36,1.38-4.4,3.78-5.9,5.04-1.8,1.52-2.04,2.38-.14,3.96,1.86,1.54,4.9,4.14,6.3,5.58.5.48.96.98,1.38,1.46l1.42-1.32c-2.12-2.12-5.66-4.98-7.48-6.46-1.28-1.08-1.26-1.4-.06-2.42,1.48-1.24,4.36-3.52,5.72-4.72C372.04,9.1,372.66,8.58,373.08,8.24ZM387.92,20.6c0-.98,1.06-1.62,2.56-1.62a6.806,6.806,0,0,1,2.04.32c.02.26.02.5.02.7,0,1.32-.5,2.18-2.18,2.18C388.92,22.18,387.92,21.62,387.92,20.6Zm6.06-13h-1.8c.04.34.08.88.08,1.22V11.3c-.62.02-1.26.04-1.88.04-1.2,0-2.26-.06-3.4-.16v1.5c1.18.08,2.22.14,3.36.14.64,0,1.28-.02,1.92-.04.02,1.64.14,3.6.2,5.14a9.171,9.171,0,0,0-1.86-.18c-2.62,0-4.12,1.34-4.12,3.02,0,1.8,1.48,2.86,4.16,2.86,2.7,0,3.46-1.58,3.46-3.22v-.42a16.271,16.271,0,0,1,3.02,2.32l.88-1.34a13.183,13.183,0,0,0-3.96-2.58c-.08-1.68-.22-3.68-.24-5.7,1.2-.08,2.36-.2,3.46-.38V10.76a33.772,33.772,0,0,1-3.46.46c.02-.94.04-1.88.06-2.42Q393.89,8.2,393.98,7.6Zm-9.88.12-1.76-.14A12,12,0,0,1,382.22,9a59.507,59.507,0,0,0-.92,8.42,24.157,24.157,0,0,0,.76,6.32l1.4-.1c-.02-.22-.04-.5-.04-.7a3.582,3.582,0,0,1,.08-.9c.2-.98.94-3.02,1.42-4.42l-.82-.64c-.34.82-.82,2.04-1.14,2.94a18.763,18.763,0,0,1-.2-2.78,49.586,49.586,0,0,1,1-8.06A10.4,10.4,0,0,1,384.1,7.72ZM405,10.8h-2.98V8.26H405Zm0,3.72h-2.98V11.96H405Zm0,3.78h-2.98V15.7H405Zm1.34-11.28h-5.62v12.5h5.62ZM401.7,19.94a8.773,8.773,0,0,1-2,3.8,10.067,10.067,0,0,1,1.12.8,11.977,11.977,0,0,0,2.22-4.3Zm2.5.48a16.658,16.658,0,0,1,1.6,3.14l1.18-.56a16.828,16.828,0,0,0-1.66-3.08Zm8.82-.32V18.6h2.56v1.5Zm-3.76-1.5h2.44v1.5h-2.44Zm2.44-2.46v1.42h-2.44V16.14Zm3.88,0v1.42h-2.56V16.14Zm-4.68-4.72h2.96v1.32H410.9Zm0-2.3h2.96v1.2H410.9Zm7.24,10.98h-1.2V15.02h-3.92V13.86h5.04V12.74H415.2V11.42h2.12v-1.1H415.2V9.12h2.44V8H415.2V6.28h-1.34V8H410.9V6.28h-1.32V8h-2.42V9.12h2.42v1.2h-1.9v1.1h1.9v1.32H406.7v1.12h5v1.16h-3.78V20.1h-1.3v1.14h1.3v3.3h1.34v-3.3h6.32v1.74c0,.26-.1.32-.34.34-.28,0-1.24,0-2.28-.02a4.775,4.775,0,0,1,.42,1.2,10.346,10.346,0,0,0,2.9-.2c.5-.22.66-.6.66-1.32V21.24h1.2ZM423.6,7.48V8.96h4.92c.04.76.12,1.64.26,2.56l-.88-.14c-1.22,5.6-3.68,9.62-8.1,11.92a9.734,9.734,0,0,1,1.34,1.18c3.98-2.34,6.5-5.98,7.98-11.16a17.259,17.259,0,0,0,7.94,11.14,7.068,7.068,0,0,1,1.2-1.24c-7.84-4.66-8.3-12.2-8.3-15.74Zm20.5,14.06V15.96h9.92v5.58ZM454.02,9.1v5.4H444.1V9.1ZM442.6,7.64V24.3h1.5V23h9.92v1.22h1.56V7.64ZM463.12,20.7c0-1.1,1.18-1.82,3.24-1.82a9.183,9.183,0,0,1,1.96.2c0,.52.02.96.02,1.28,0,1.38-.72,2.06-2.18,2.06C464.24,22.42,463.12,21.8,463.12,20.7Zm6.7-13.4h-1.9a10.07,10.07,0,0,1,.16,1.98c.02.86.02,2.5.02,3.66,0,1.2.08,3.04.16,4.66a11.936,11.936,0,0,0-1.7-.12c-3.46,0-5.04,1.48-5.04,3.28,0,2.28,2.04,3.16,4.8,3.16,2.66,0,3.66-1.4,3.66-3.04,0-.36-.02-.82-.04-1.34a14.2,14.2,0,0,1,5.2,3.32l.96-1.52a15.863,15.863,0,0,0-6.22-3.4c-.1-1.74-.2-3.68-.2-5v-.16c1.64-.02,4.2-.14,5.98-.32l-.06-1.5c-1.8.22-4.34.32-5.92.36,0-.78-.02-1.5,0-2.04C469.7,8.68,469.76,7.72,469.82,7.3Zm15.56-.08-1.76-.06c-.04.54-.08,1.12-.16,1.72a52.852,52.852,0,0,0-.62,6.46,24.355,24.355,0,0,0,.22,3.18l1.54-.12a9.322,9.322,0,0,1-.04-2.46c.24-2.62,2.56-6.26,5.06-6.26,2.1,0,3.18,2.28,3.18,5.44,0,5.02-3.4,6.8-7.74,7.44L486,24c4.96-.9,8.44-3.34,8.44-8.9,0-4.2-1.9-6.86-4.56-6.86-2.54,0-4.62,2.5-5.44,4.54A37.133,37.133,0,0,1,485.38,7.22Zm20.9,1.04V9.88H501.9V8.26Zm-4.38,4.4V10.94h4.38v1.72Zm5.78,1.14V7.12h-7.24V24.54h1.46V13.8Zm-.56,4.64V16.28h2.8v2.16Zm6.84,1.26V18.44h-2.72V16.28h2.28V15.06h-9.86v1.22h2.16v2.16h-2.54V19.7h2.5a5.033,5.033,0,0,1-2.36,3.84,5.207,5.207,0,0,1,.98.88,6.415,6.415,0,0,0,2.68-4.72h2.84v4.46h1.32V19.7Zm-3.1-7.02V10.94h4.54v1.74Zm4.54-4.42V9.88h-4.54V8.26Zm1.46-1.14h-7.42v6.7h5.96v8.76c0,.32-.1.44-.42.44-.3.02-1.38.02-2.48-.02a4.912,4.912,0,0,1,.48,1.48,9.289,9.289,0,0,0,3.1-.26c.58-.26.78-.74.78-1.62ZM527.2,14.6c2.36-.14,5.7-.4,8.94-.64a11.025,11.025,0,0,1,.6,1.42l1.28-.72a22.19,22.19,0,0,0-3.22-5.32l-1.18.6a23.864,23.864,0,0,1,1.82,2.72c-1.86.12-3.72.24-5.36.34.84-1.86,1.76-4.36,2.46-6.4l-1.62-.34a50.625,50.625,0,0,1-2.3,6.82l-1.58.08Zm-1.78-2.84a23.3,23.3,0,0,1-1.52,6.58c-.76-.54-1.58-1.04-2.34-1.48.4-1.56.84-3.32,1.26-5.1Zm.62-1.42-.26.04h-2.66c.32-1.38.62-2.74.86-3.96l-1.42-.16c-.24,1.24-.52,2.66-.84,4.12h-2.18v1.38h1.88c-.58,2.48-1.18,4.94-1.68,6.64l1.24.66.24-.86c.68.42,1.4.92,2.06,1.42a8.79,8.79,0,0,1-3.62,3.76,6.6,6.6,0,0,1,.92,1.2,10.893,10.893,0,0,0,3.86-4.04,15.28,15.28,0,0,1,2.06,2.02l.9-1.18a14.647,14.647,0,0,0-2.32-2.16,26.379,26.379,0,0,0,1.86-8.7Zm9.36,7.5V22.3h-5.58V17.84Zm-7,6.7h1.42v-.9h5.58v.82h1.48V16.48H528.4Zm17-17.12-2.02-.02a10.556,10.556,0,0,1,.16,2.04c0,2.1-.2,7.16-.2,10.12,0,3.26,1.98,4.46,4.86,4.46a10.052,10.052,0,0,0,8.36-4.42l-1.14-1.36c-1.44,2.08-3.5,4.14-7.16,4.14-1.9,0-3.28-.78-3.28-2.98,0-2.98.14-7.7.24-9.96A17.229,17.229,0,0,1,545.4,7.42Zm18.66,16.7,1.36-1.16a37.538,37.538,0,0,0-4.48-4.44l-1.3,1.14A33.32,33.32,0,0,1,564.06,24.12Zm24.4-16.74H579.9V8.72h8.56Zm-1.94,4.78v3.48h-4.48V12.16ZM587.96,17V10.8h-7.34v5.38c0,2.26-.14,5.3-1.5,7.46a7.29,7.29,0,0,1,1.14.9c1.38-2.08,1.72-5.12,1.78-7.54Zm9.88-3.98h-7.1V9.82a35.107,35.107,0,0,0,6.7-2.2l-1.32-1.1a25.835,25.835,0,0,1-5.66,2.02l-1.18-.3v5.3c0,3.02-.28,7-3.04,9.94a3.762,3.762,0,0,1,1.1,1c2.7-2.88,3.3-6.9,3.38-10.02h3.44V24.52h1.48V14.46h2.2Zm3.92-3.06h13.62v2.92h1.52V8.56h-7.56V6.28H607.8V8.56h-7.5v4.32h1.46Zm7.58,8.5h5.92V17.08h-5.92V13.76h5.1v-1.4H602.86v1.4h4.96v8.38a6.007,6.007,0,0,1-3.68-3.86,25.24,25.24,0,0,0,.48-2.66l-1.52-.14c-.44,3.58-1.52,6.42-3.74,8.14a7.764,7.764,0,0,1,1.22,1,10.957,10.957,0,0,0,2.98-4.46c1.82,3.38,4.8,4.1,8.94,4.1h4.64a4.383,4.383,0,0,1,.56-1.5c-.96.02-4.4.02-5.12.02a18.258,18.258,0,0,1-3.24-.24ZM636.76,16a7.247,7.247,0,0,0-7.66-7.36c-4.88,0-8.74,3.8-8.74,8.14,0,3.3,1.78,5.34,3.56,5.34,1.86,0,3.44-2.1,4.66-6.22a39.344,39.344,0,0,0,1.2-5.76,5.569,5.569,0,0,1,5.34,5.8c0,3.46-2.52,5.36-5.08,5.94a15.108,15.108,0,0,1-1.72.26l.94,1.48C634,23,636.76,20.2,636.76,16Zm-14.84.64a6.976,6.976,0,0,1,6.2-6.48,32.681,32.681,0,0,1-1.12,5.4c-1.02,3.38-2.08,4.72-3.02,4.72C623.08,20.28,621.92,19.16,621.92,16.64Zm20.82-.28h3.62v2h-3.62Zm3.62-6.12V12h-3.62V10.24Zm-3.62,2.96h3.62v1.96h-3.62Zm6.46,5.16h-1.46V10.24h1.46V8.9h-1.46V6.5h-1.38V8.9h-3.62V6.5h-1.36V8.9H639.7v1.34h1.68v8.12h-1.94V19.7h9.76Zm-7,1.76a10.433,10.433,0,0,1-2.74,3.56,9.193,9.193,0,0,1,1.2.86,13.221,13.221,0,0,0,2.96-4.04Zm2.84.62a15.7,15.7,0,0,1,2.06,3.04l1.2-.7a14.814,14.814,0,0,0-2.1-2.96Zm6.5-4.28c.02-.68.04-1.36.04-1.98V13.14h4.08v3.32Zm4.12-7.84V11.8h-4.08V8.62Zm1.44-1.36h-6.92v7.22c0,2.86-.16,6.66-1.82,9.3a3.811,3.811,0,0,1,1.18.86,15.658,15.658,0,0,0,1.9-6.84h4.22v4.8c0,.32-.12.42-.42.42-.28.02-1.28.02-2.34,0a6.046,6.046,0,0,1,.46,1.44,8.865,8.865,0,0,0,2.98-.28c.54-.24.76-.68.76-1.56Zm9.16,1.02V9.94h-4.32V8.28Zm-4.32,4.52V11.04h4.32V12.8Zm5.74,1.14V7.12h-7.22V24.54h1.48V13.94Zm3.22,2.66v1.84h-4.7V16.6Zm-4.7,4.9V19.56h4.7V21.5Zm6.08,1.18V15.44h-7.42v8.24h1.34v-1Zm-1.4-9.86V11.04h4.48v1.78Zm4.48-4.54V9.94h-4.48V8.28Zm1.5-1.16h-7.4v6.84h5.9v8.58c0,.36-.12.48-.46.48-.36.02-1.58.04-2.8-.02a5.479,5.479,0,0,1,.52,1.52,11.384,11.384,0,0,0,3.36-.26c.66-.26.88-.76.88-1.7ZM692.5,15.4a13.288,13.288,0,0,0,3.98,9.52l1.2-.62a12.506,12.506,0,0,1,0-17.8l-1.2-.62A13.288,13.288,0,0,0,692.5,15.4Zm11.32,7.86a4.761,4.761,0,0,0,4.8-5.04c0-3.22-1.98-4.66-4.42-4.66a4.263,4.263,0,0,0-2.18.58l.36-4.24h5.54V8.32h-7.14l-.46,6.88.98.6a3.989,3.989,0,0,1,2.44-.86c1.84,0,3.04,1.24,3.04,3.34a3.169,3.169,0,0,1-3.12,3.46,4.823,4.823,0,0,1-3.6-1.62l-.9,1.2A6.228,6.228,0,0,0,703.82,23.26Zm11.66-4.74V14.56h4.48v3.96Zm13.22,0h-7.24V14.56h5.86v-1.4h-5.86V10.12h6.32V8.68H715.86c.32-.68.64-1.4.92-2.1l-1.5-.36a16.925,16.925,0,0,1-4.5,6.9,9.2,9.2,0,0,1,1.28.94,18.479,18.479,0,0,0,3.04-3.94h4.86v3.04H714v5.36h-3.28v1.44h9.24v4.58h1.5V19.96h7.24Zm6.12,2.38c0-.92,1.04-1.66,2.94-1.66a8.87,8.87,0,0,1,1.94.2c0,.52.02,1,.02,1.34,0,1.38-.98,1.74-2.12,1.74C735.62,22.52,734.82,21.82,734.82,20.9Zm6.34-13.78h-1.7a10.981,10.981,0,0,1,.08,1.2V9.74h-.92a36.339,36.339,0,0,1-5.12-.44l.02,1.48c1.26.14,3.72.34,5.12.34h.88v2.8h-1.08a37,37,0,0,1-5.04-.38l.02,1.5c1.44.16,3.64.28,5,.28h1.14c.02.86.06,1.82.08,2.72a11.454,11.454,0,0,0-1.68-.12c-2.88,0-4.62,1.24-4.62,3.06,0,1.92,1.56,2.94,4.44,2.94,2.6,0,3.52-1.42,3.52-2.8,0-.32-.02-.74-.04-1.24a14.746,14.746,0,0,1,4.84,3.02l.92-1.42a15.916,15.916,0,0,0-5.84-3.12c-.04-.96-.1-2.04-.14-3.08,1.9-.06,3.66-.22,5.54-.46l.02-1.5a49.768,49.768,0,0,1-5.58.54v-2.8c1.92-.1,3.82-.28,5.4-.46l.02-1.46a49.728,49.728,0,0,1-5.42.54c0-.52.02-.96.02-1.22A10,10,0,0,1,741.16,7.12Zm19.7,11.1-1.5-.14a12.5,12.5,0,0,0-.3,2.36c0,1.98,1.72,2.94,4.88,2.94a26.588,26.588,0,0,0,3.86-.28l.06-1.62a19.25,19.25,0,0,1-3.9.4c-2.86,0-3.38-.92-3.38-1.86A7.072,7.072,0,0,1,760.86,18.22Zm-2.3-10.96-1.92-.16a8,8,0,0,1-.06,1.66c-.06.4-.16,1.04-.3,1.74-.78.06-1.5.1-2.16.1a18.118,18.118,0,0,1-2.4-.14l.06,1.56c.72.04,1.44.08,2.32.08.56,0,1.18-.02,1.84-.06-.16.72-.34,1.48-.52,2.14a43.61,43.61,0,0,1-3.36,8.94l1.76.6a61.293,61.293,0,0,0,3.12-9.16c.24-.88.46-1.8.64-2.68a38.4,38.4,0,0,0,4.16-.68V9.62a29.61,29.61,0,0,1-3.84.72c.12-.54.22-1.06.3-1.48C758.28,8.46,758.44,7.7,758.56,7.26Zm1.88,6.1v1.48a32.866,32.866,0,0,1,3.72-.2,25.288,25.288,0,0,1,3.36.24l.04-1.52a32.011,32.011,0,0,0-3.46-.18C762.82,13.18,761.5,13.26,760.44,13.36Zm18.18,7.24c0-.98,1.06-1.62,2.56-1.62a6.806,6.806,0,0,1,2.04.32c.02.26.02.5.02.7,0,1.32-.5,2.18-2.18,2.18C779.62,22.18,778.62,21.62,778.62,20.6Zm6.06-13h-1.8c.04.34.08.88.08,1.22V11.3c-.62.02-1.26.04-1.88.04-1.2,0-2.26-.06-3.4-.16v1.5c1.18.08,2.22.14,3.36.14.64,0,1.28-.02,1.92-.04.02,1.64.14,3.6.2,5.14a9.172,9.172,0,0,0-1.86-.18c-2.62,0-4.12,1.34-4.12,3.02,0,1.8,1.48,2.86,4.16,2.86,2.7,0,3.46-1.58,3.46-3.22v-.42a16.27,16.27,0,0,1,3.02,2.32l.88-1.34a13.183,13.183,0,0,0-3.96-2.58c-.08-1.68-.22-3.68-.24-5.7,1.2-.08,2.36-.2,3.46-.38V10.76a33.771,33.771,0,0,1-3.46.46c.02-.94.04-1.88.06-2.42Q784.59,8.2,784.68,7.6Zm-9.88.12-1.76-.14A11.99,11.99,0,0,1,772.92,9a59.517,59.517,0,0,0-.92,8.42,24.156,24.156,0,0,0,.76,6.32l1.4-.1c-.02-.22-.04-.5-.04-.7a3.585,3.585,0,0,1,.08-.9c.2-.98.94-3.02,1.42-4.42l-.82-.64c-.34.82-.82,2.04-1.14,2.94a18.759,18.759,0,0,1-.2-2.78,49.586,49.586,0,0,1,1-8.06A10.4,10.4,0,0,1,774.8,7.72ZM791.46,23h8.04V21.48h-2.94V8.32h-1.4a8.832,8.832,0,0,1-3.04,1.06v1.16h2.6V21.48h-3.26Zm14.9.26c2.78,0,4.56-2.54,4.56-7.64,0-5.08-1.78-7.56-4.56-7.56-2.8,0-4.58,2.46-4.58,7.56S803.56,23.26,806.36,23.26Zm0-1.46c-1.68,0-2.8-1.86-2.8-6.18,0-4.28,1.12-6.1,2.8-6.1,1.66,0,2.78,1.82,2.78,6.1C809.14,19.94,808.02,21.8,806.36,21.8Zm11.32-3.28V14.56h4.48v3.96Zm13.22,0h-7.24V14.56h5.86v-1.4h-5.86V10.12h6.32V8.68H818.06c.32-.68.64-1.4.92-2.1l-1.5-.36a16.925,16.925,0,0,1-4.5,6.9,9.2,9.2,0,0,1,1.28.94,18.479,18.479,0,0,0,3.04-3.94h4.86v3.04H816.2v5.36h-3.28v1.44h9.24v4.58h1.5V19.96h7.24ZM838,15.4a13.288,13.288,0,0,0-3.98-9.52l-1.2.62a12.506,12.506,0,0,1,0,17.8l1.2.62A13.288,13.288,0,0,0,838,15.4Zm32.06.6a7.247,7.247,0,0,0-7.66-7.36c-4.88,0-8.74,3.8-8.74,8.14,0,3.3,1.78,5.34,3.56,5.34,1.86,0,3.44-2.1,4.66-6.22a39.344,39.344,0,0,0,1.2-5.76,5.569,5.569,0,0,1,5.34,5.8c0,3.46-2.52,5.36-5.08,5.94a15.108,15.108,0,0,1-1.72.26l.94,1.48C867.3,23,870.06,20.2,870.06,16Zm-14.84.64a6.976,6.976,0,0,1,6.2-6.48,32.681,32.681,0,0,1-1.12,5.4c-1.02,3.38-2.08,4.72-3.02,4.72C856.38,20.28,855.22,19.16,855.22,16.64Zm34.42-.6V14.58h-7V11.1h8.02V9.64h-8.02V6.26H881.1V9.64h-7.88V11.1h7.88v3.48h-6.86v1.46h5.98a19.514,19.514,0,0,1-7.52,6.1,9.217,9.217,0,0,1,1.08,1.26,21.985,21.985,0,0,0,7.32-6.36v7.48h1.54V16.94a22.97,22.97,0,0,0,7.4,6.44,7,7,0,0,1,1.1-1.3,20.435,20.435,0,0,1-7.56-6.04Zm7.36,5.5V15.96h9.92v5.58ZM906.92,9.1v5.4H897V9.1ZM895.5,7.64V24.3H897V23h9.92v1.22h1.56V7.64ZM917.02,20.9c0-.92,1.04-1.66,2.94-1.66a8.87,8.87,0,0,1,1.94.2c0,.52.02,1,.02,1.34,0,1.38-.98,1.74-2.12,1.74C917.82,22.52,917.02,21.82,917.02,20.9Zm6.34-13.78h-1.7a10.981,10.981,0,0,1,.08,1.2V9.74h-.92a36.339,36.339,0,0,1-5.12-.44l.02,1.48c1.26.14,3.72.34,5.12.34h.88v2.8h-1.08a37,37,0,0,1-5.04-.38l.02,1.5c1.44.16,3.64.28,5,.28h1.14c.02.86.06,1.82.08,2.72a11.454,11.454,0,0,0-1.68-.12c-2.88,0-4.62,1.24-4.62,3.06,0,1.92,1.56,2.94,4.44,2.94,2.6,0,3.52-1.42,3.52-2.8,0-.32-.02-.74-.04-1.24a14.745,14.745,0,0,1,4.84,3.02l.92-1.42a15.916,15.916,0,0,0-5.84-3.12c-.04-.96-.1-2.04-.14-3.08,1.9-.06,3.66-.22,5.54-.46l.02-1.5a49.768,49.768,0,0,1-5.58.54v-2.8c1.92-.1,3.82-.28,5.4-.46l.02-1.46a49.728,49.728,0,0,1-5.42.54c0-.52.02-.96.02-1.22A10,10,0,0,1,923.36,7.12Zm10.12,2.72.18,1.74c2.16-.46,7.26-.94,9.4-1.18a8.124,8.124,0,0,0-3.74,6.76c0,4.46,4.22,6.44,7.92,6.58l.58-1.66c-3.26-.12-6.9-1.36-6.9-5.26a7.039,7.039,0,0,1,4.58-6.34,16.752,16.752,0,0,1,3.92-.32V8.56c-1.34.06-3.22.18-5.4.36-3.68.3-7.46.68-8.76.82C934.88,9.78,934.24,9.82,933.48,9.84Zm13.06,2.78-1.02.44a18.571,18.571,0,0,1,1.64,2.82l1.02-.48A23.75,23.75,0,0,0,946.54,12.62Zm2.18-.84-.98.46a18.541,18.541,0,0,1,1.68,2.8l1.04-.5A26.422,26.422,0,0,0,948.72,11.78Zm9.34-4.34-1.58.66a67.029,67.029,0,0,0,2.9,6.16c-2.14,1.5-3.46,3.12-3.46,5.18,0,3,2.72,4.12,6.48,4.12a39.372,39.372,0,0,0,6.32-.5V21.28a29.759,29.759,0,0,1-6.4.68c-3.16,0-4.74-1.04-4.74-2.7,0-1.52,1.12-2.84,2.98-4.04a66.446,66.446,0,0,1,6.08-3.32c.58-.3,1.08-.56,1.54-.84l-.88-1.42a10.927,10.927,0,0,1-1.42.94c-1.1.6-3.26,1.66-5.14,2.8A43.074,43.074,0,0,1,958.06,7.44Zm22.26-.32-1.76-.16a16.594,16.594,0,0,1-.62,3.46c-.78.06-1.54.1-2.26.1a18.865,18.865,0,0,1-2.44-.14l.1,1.5c.76.04,1.6.06,2.34.06.58,0,1.18-.02,1.78-.06a29.6,29.6,0,0,1-4.28,7.48l1.54.8a35.374,35.374,0,0,0,4.36-8.44,27.124,27.124,0,0,0,3.64-.74l-.04-1.5a19.328,19.328,0,0,1-3.14.74C979.86,9.06,980.14,7.84,980.32,7.12ZM979.22,21c0-.92,1-1.6,2.46-1.6a6.934,6.934,0,0,1,2.06.3c.02.34.02.64.02.9,0,1.1-.56,1.98-2.22,1.98C979.98,22.58,979.22,21.94,979.22,21Zm5.82-7.7h-1.56c.04,1.42.14,3.4.22,5.04a8.926,8.926,0,0,0-1.96-.2c-2.26,0-4,1.16-4,3,0,1.98,1.8,2.88,4,2.88,2.48,0,3.5-1.3,3.5-2.9,0-.24,0-.52-.02-.84a14.948,14.948,0,0,1,3.24,2.3l.86-1.36a13.722,13.722,0,0,0-4.16-2.48c-.04-1.24-.12-2.54-.14-3.28C985,14.74,985,14.12,985.04,13.3Zm4,.54.9-1.32a30.21,30.21,0,0,0-4.66-2.66l-.82,1.22A23.42,23.42,0,0,1,989.04,13.84Zm9.04-6.62-1.76-.06c-.04.54-.08,1.12-.16,1.72a52.852,52.852,0,0,0-.62,6.46,24.349,24.349,0,0,0,.22,3.18l1.54-.12a9.321,9.321,0,0,1-.04-2.46c.24-2.62,2.56-6.26,5.06-6.26,2.1,0,3.18,2.28,3.18,5.44,0,5.02-3.4,6.8-7.74,7.44L998.7,24c4.96-.9,8.44-3.34,8.44-8.9,0-4.2-1.9-6.86-4.56-6.86-2.54,0-4.62,2.5-5.44,4.54A37.125,37.125,0,0,1,998.08,7.22Zm18.34,13.68c0-.92,1.04-1.66,2.94-1.66a8.87,8.87,0,0,1,1.94.2c0,.52.02,1,.02,1.34,0,1.38-.98,1.74-2.12,1.74C1017.22,22.52,1016.42,21.82,1016.42,20.9Zm6.34-13.78h-1.7a10.981,10.981,0,0,1,.08,1.2V9.74h-.92a36.339,36.339,0,0,1-5.12-.44l.02,1.48c1.26.14,3.72.34,5.12.34h.88v2.8h-1.08a37,37,0,0,1-5.04-.38l.02,1.5c1.44.16,3.64.28,5,.28h1.14c.02.86.06,1.82.08,2.72a11.454,11.454,0,0,0-1.68-.12c-2.88,0-4.62,1.24-4.62,3.06,0,1.92,1.56,2.94,4.44,2.94,2.6,0,3.52-1.42,3.52-2.8,0-.32-.02-.74-.04-1.24a14.745,14.745,0,0,1,4.84,3.02l.92-1.42a15.916,15.916,0,0,0-5.84-3.12c-.04-.96-.1-2.04-.14-3.08,1.9-.06,3.66-.22,5.54-.46l.02-1.5a49.767,49.767,0,0,1-5.58.54v-2.8c1.92-.1,3.82-.28,5.4-.46l.02-1.46a49.729,49.729,0,0,1-5.42.54c0-.52.02-.96.02-1.22A10,10,0,0,1,1022.76,7.12Zm21.08.04h-1.82c.02.16.1.74.12,1.26.02.28.04.76.04,1.32-2.98.04-6.74.16-8.96.2l.04,1.54c2.5-.18,5.9-.32,8.94-.34.02.7.02,1.42.02,2.02a4,4,0,0,0-1.34-.22,3.491,3.491,0,0,0-3.52,3.48,3.184,3.184,0,0,0,3.28,3.34,2.817,2.817,0,0,0,1.74-.54c-.8,1.82-2.64,2.94-5.3,3.54l1.34,1.32c4.66-1.4,5.98-4.4,5.98-7.1a4.859,4.859,0,0,0-.64-2.56c-.02-.92-.04-2.16-.04-3.3h.28c2.92,0,4.74.04,5.86.1l.02-1.48c-.96,0-3.42-.02-5.86-.02h-.3c0-.54.02-1,.02-1.3C1043.76,8.16,1043.8,7.38,1043.84,7.16Zm-4.98,9.24a2.038,2.038,0,0,1,2.02-2.12,1.793,1.793,0,0,1,1.78,1.26c.18,1.9-.58,2.84-1.76,2.84A1.926,1.926,0,0,1,1038.86,16.4Zm14.32,1.72a3.05,3.05,0,1,0,3.06,3.04A3.052,3.052,0,0,0,1053.18,18.12Zm0,5.08a2.03,2.03,0,1,1,2.04-2.04A2.032,2.032,0,0,1,1053.18,23.2ZM10,37.2a1.5,1.5,0,1,0-1.5-1.5A1.511,1.511,0,0,0,10,37.2Zm0,3.62-6.6-6.6-.58.58,6.6,6.6L2.8,48.02l.58.58L10,41.98l6.6,6.6.58-.58-6.6-6.6,6.6-6.6-.58-.58Zm-4.2.58a1.5,1.5,0,1,0-1.5,1.5A1.511,1.511,0,0,0,5.8,41.4Zm8.4,0a1.5,1.5,0,1,0,1.5-1.5A1.511,1.511,0,0,0,14.2,41.4ZM10,45.6a1.5,1.5,0,1,0,1.5,1.5A1.511,1.511,0,0,0,10,45.6ZM28.22,33.02H26.44a10.546,10.546,0,0,1,.1,1.42c0,.36-.02,1.24-.02,2.28-.56.04-1.08.06-1.54.06a18.507,18.507,0,0,1-2.56-.16l.04,1.52a21.969,21.969,0,0,0,2.56.1c.42,0,.92-.02,1.48-.06-.02.88-.02,1.82-.02,2.62v1.14c-2.3.98-4.38,2.72-4.38,4.38,0,1.78,2.6,3.32,4.16,3.32,1.08,0,1.76-.6,1.76-2.46,0-.86-.04-2.64-.08-4.34a13.1,13.1,0,0,1,4.36-.78c1.9,0,3.44.92,3.44,2.62,0,1.84-1.6,2.78-3.36,3.12a10.228,10.228,0,0,1-2.34.14l.56,1.62a15.166,15.166,0,0,0,2.48-.28c2.74-.66,4.26-2.2,4.26-4.62,0-2.4-2.1-3.98-5.02-3.98a15.126,15.126,0,0,0-4.4.74v-.7c0-.8.02-1.76.04-2.7a36.716,36.716,0,0,0,4.2-.7l-.04-1.56a26.9,26.9,0,0,1-4.12.8c.02-.9.06-1.68.08-2.16A12.83,12.83,0,0,1,28.22,33.02Zm6.2,2.22-.72,1.2a25.37,25.37,0,0,1,4.48,3L39,38.16A36.353,36.353,0,0,0,34.42,35.24Zm-10.76,11c0-.9,1.22-2.06,2.86-2.82.02,1.46.06,2.82.06,3.54,0,.66-.28.98-.74.98C25.06,47.94,23.66,47.16,23.66,46.24ZM50.7,43.62V40.6h5.6v3.02Zm-6.94,0V40.6h5.42v3.02Zm5.42-7.3v2.9H43.76v-2.9Zm7.12,0v2.9H50.7v-2.9ZM50.7,34.9V32.26H49.18V34.9H42.3V46.2h1.46V45.06h5.42V50.5H50.7V45.06h5.6V46.1h1.5V34.9Zm17.42-1.62v1.4h3.64c.1.88.2,1.72.34,2.54l-.64-.1c-.8,4.08-2.48,7.2-5.4,9.06a8.721,8.721,0,0,1,1.16,1.1,14.29,14.29,0,0,0,5.3-8.1c.9,3.64,2.52,6.46,5.32,8.1a6.9,6.9,0,0,1,1.18-1.12c-4-2.06-5.56-6.78-6.04-12.88Zm-2.28,2.56a15.219,15.219,0,0,0-3.48-3.08l-1.1.9a13.8,13.8,0,0,1,3.4,3.16Zm-.56,4.26H61.04v1.4h2.78v5.06a33.4,33.4,0,0,1-3.04,2.28l.8,1.5c1.06-.86,2.06-1.72,3.02-2.56,1.28,1.54,3.06,2.26,5.66,2.36,2.2.08,6.3.04,8.48-.04a6.767,6.767,0,0,1,.48-1.52c-2.34.16-6.78.22-8.96.14-2.3-.1-4.04-.78-4.98-2.24Zm19.18-5.76.08,1.62c.48-.04,1.04-.1,1.48-.12.92-.06,3.36-.16,4.16-.2-.62,1.24-1.38,2.98-2.08,4.56-3.94.1-6.66,2.36-6.66,5.3a2.549,2.549,0,0,0,2.6,2.74,2.815,2.815,0,0,0,2.52-1.38,43.252,43.252,0,0,0,2.52-5.24,14.38,14.38,0,0,1,5.72,1.84,8.581,8.581,0,0,1-5.24,5.64l1.32,1.1a9.438,9.438,0,0,0,5.26-5.94,20.873,20.873,0,0,1,2.08,1.58l.74-1.72a26.138,26.138,0,0,0-2.42-1.54,26.823,26.823,0,0,0,.42-3.86l-1.62-.18c.04.56.02,1.24,0,1.84-.04.48-.08.98-.16,1.48a18,18,0,0,0-5.5-1.6c.84-1.86,1.72-3.9,2.28-4.8a8.385,8.385,0,0,1,.52-.66l-1-.82a4.133,4.133,0,0,1-1,.22c-.84.06-3.46.2-4.52.2C85.56,34.4,84.98,34.38,84.46,34.34ZM82.9,45.3c0-1.72,1.66-3.48,4.58-3.7a26.7,26.7,0,0,1-2.18,4.36,1.441,1.441,0,0,1-1.2.7A1.225,1.225,0,0,1,82.9,45.3Zm26.02,1.3c0-.98,1.06-1.62,2.56-1.62a6.806,6.806,0,0,1,2.04.32c.02.26.02.5.02.7,0,1.32-.5,2.18-2.18,2.18C109.92,48.18,108.92,47.62,108.92,46.6Zm6.06-13h-1.8c.04.34.08.88.08,1.22V37.3c-.62.02-1.26.04-1.88.04-1.2,0-2.26-.06-3.4-.16v1.5c1.18.08,2.22.14,3.36.14.64,0,1.28-.02,1.92-.04.02,1.64.14,3.6.2,5.14a9.172,9.172,0,0,0-1.86-.18c-2.62,0-4.12,1.34-4.12,3.02,0,1.8,1.48,2.86,4.16,2.86,2.7,0,3.46-1.58,3.46-3.22v-.42a16.27,16.27,0,0,1,3.02,2.32l.88-1.34a13.183,13.183,0,0,0-3.96-2.58c-.08-1.68-.22-3.68-.24-5.7,1.2-.08,2.36-.2,3.46-.38V36.76a33.772,33.772,0,0,1-3.46.46c.02-.94.04-1.88.06-2.42Q114.89,34.2,114.98,33.6Zm-9.88.12-1.76-.14a12,12,0,0,1-.12,1.42,59.509,59.509,0,0,0-.92,8.42,24.157,24.157,0,0,0,.76,6.32l1.4-.1c-.02-.22-.04-.5-.04-.7a3.583,3.583,0,0,1,.08-.9c.2-.98.94-3.02,1.42-4.42l-.82-.64c-.34.82-.82,2.04-1.14,2.94a18.761,18.761,0,0,1-.2-2.78,49.589,49.589,0,0,1,1-8.06A10.4,10.4,0,0,1,105.1,33.72Zm23.12-.7h-1.78a10.547,10.547,0,0,1,.1,1.42c0,.36-.02,1.24-.02,2.28-.56.04-1.08.06-1.54.06a18.507,18.507,0,0,1-2.56-.16l.04,1.52a21.969,21.969,0,0,0,2.56.1c.42,0,.92-.02,1.48-.06-.02.88-.02,1.82-.02,2.62v1.14c-2.3.98-4.38,2.72-4.38,4.38,0,1.78,2.6,3.32,4.16,3.32,1.08,0,1.76-.6,1.76-2.46,0-.86-.04-2.64-.08-4.34a13.1,13.1,0,0,1,4.36-.78c1.9,0,3.44.92,3.44,2.62,0,1.84-1.6,2.78-3.36,3.12a10.228,10.228,0,0,1-2.34.14l.56,1.62a15.166,15.166,0,0,0,2.48-.28c2.74-.66,4.26-2.2,4.26-4.62,0-2.4-2.1-3.98-5.02-3.98a15.126,15.126,0,0,0-4.4.74v-.7c0-.8.02-1.76.04-2.7a36.717,36.717,0,0,0,4.2-.7l-.04-1.56a26.9,26.9,0,0,1-4.12.8c.02-.9.06-1.68.08-2.16A12.832,12.832,0,0,1,128.22,33.02Zm6.2,2.22-.72,1.2a25.37,25.37,0,0,1,4.48,3l.82-1.28A36.353,36.353,0,0,0,134.42,35.24Zm-10.76,11c0-.9,1.22-2.06,2.86-2.82.02,1.46.06,2.82.06,3.54,0,.66-.28.98-.74.98C125.06,47.94,123.66,47.16,123.66,46.24Zm19.8-4.36c.18-.9.34-1.88.5-2.82h6.02V33.1H142v1.4h6.52v3.16h-5.84c-.28,2.02-.76,4.66-1.16,6.32l1.46.24c.06-.3.14-.62.22-.96h5.26c-.26,3.6-.6,5.14-1.08,5.56a1.161,1.161,0,0,1-.88.22c-.5,0-1.82-.02-3.14-.14a3.369,3.369,0,0,1,.52,1.52,29.107,29.107,0,0,0,3.16.04,1.928,1.928,0,0,0,1.58-.64c.72-.68,1.06-2.54,1.42-7.26.02-.2.04-.68.04-.68Zm11.98-9.4V50.52h1.48V32.48Zm10.68,2.1a12.726,12.726,0,0,0-3.34-2.08l-.82,1.08a13.93,13.93,0,0,1,3.28,2.18Zm-1.02,5.16a14.978,14.978,0,0,0-3.44-1.98l-.84,1.1a14.583,14.583,0,0,1,3.42,2.1Zm-.86,3.2a55.638,55.638,0,0,1-3.14,6.44l1.34.88c.98-1.88,2.14-4.34,3-6.46Zm11.12-4.02v1.9h-3.7v-1.9Zm-7.24,0h2.24V42h6.36V38.92h2.36V37.7h-2.36V36.1h-1.36v1.6h-3.7V36.1h-1.3v1.6h-2.24V35.56h10.82V34.28h-5.2v-2h-1.48v2H166.7v5.36c0,3-.18,7.18-2.18,10.12a5.038,5.038,0,0,1,1.24.72c2.06-3.08,2.36-7.64,2.36-10.84Zm7.98,5.44a8.244,8.244,0,0,1-2.6,2.66,7.8,7.8,0,0,1-2.34-2.66Zm1.04-1.28-.26.06h-8.24v1.22h2.12l-.94.28a10.11,10.11,0,0,0,2.48,3.1,16.583,16.583,0,0,1-4.66,1.54,4.905,4.905,0,0,1,.72,1.2,18.326,18.326,0,0,0,5.1-1.88,14.713,14.713,0,0,0,4.94,1.9,4.943,4.943,0,0,1,.9-1.22,14.638,14.638,0,0,1-4.6-1.5,9.821,9.821,0,0,0,3.34-4.3Zm9.66-9.66-2.02-.02a10.556,10.556,0,0,1,.16,2.04c0,2.1-.2,7.16-.2,10.12,0,3.26,1.98,4.46,4.86,4.46a10.052,10.052,0,0,0,8.36-4.42l-1.14-1.36c-1.44,2.08-3.5,4.14-7.16,4.14-1.9,0-3.28-.78-3.28-2.98,0-2.98.14-7.7.24-9.96A17.219,17.219,0,0,1,186.8,33.42Zm18.66,16.7,1.36-1.16a37.54,37.54,0,0,0-4.48-4.44l-1.3,1.14A33.321,33.321,0,0,1,205.46,50.12ZM226,36.8h-2.98V34.26H226Zm0,3.72h-2.98V37.96H226Zm0,3.78h-2.98V41.7H226Zm1.34-11.28h-5.62v12.5h5.62ZM222.7,45.94a8.772,8.772,0,0,1-2,3.8,10.062,10.062,0,0,1,1.12.8,11.976,11.976,0,0,0,2.22-4.3Zm2.5.48a16.657,16.657,0,0,1,1.6,3.14l1.18-.56a16.828,16.828,0,0,0-1.66-3.08Zm8.82-.32V44.6h2.56v1.5Zm-3.76-1.5h2.44v1.5h-2.44Zm2.44-2.46v1.42h-2.44V42.14Zm3.88,0v1.42h-2.56V42.14Zm-4.68-4.72h2.96v1.32H231.9Zm0-2.3h2.96v1.2H231.9Zm7.24,10.98h-1.2V41.02h-3.92V39.86h5.04V38.74H236.2V37.42h2.12v-1.1H236.2v-1.2h2.44V34H236.2V32.28h-1.34V34H231.9V32.28h-1.32V34h-2.42v1.12h2.42v1.2h-1.9v1.1h1.9v1.32H227.7v1.12h5v1.16h-3.78V46.1h-1.3v1.14h1.3v3.3h1.34v-3.3h6.32v1.74c0,.26-.1.32-.34.34-.28,0-1.24,0-2.28-.02a4.776,4.776,0,0,1,.42,1.2,10.346,10.346,0,0,0,2.9-.2c.5-.22.66-.6.66-1.32V47.24h1.2Zm5.46-12.62v1.48h4.92c.04.76.12,1.64.26,2.56l-.88-.14c-1.22,5.6-3.68,9.62-8.1,11.92a9.734,9.734,0,0,1,1.34,1.18c3.98-2.34,6.5-5.98,7.98-11.16a17.259,17.259,0,0,0,7.94,11.14,7.068,7.068,0,0,1,1.2-1.24c-7.84-4.66-8.3-12.2-8.3-15.74Zm20.5,14.06V41.96h9.92v5.58Zm9.92-12.44v5.4H265.1V35.1ZM263.6,33.64V50.3h1.5V49h9.92v1.22h1.56V33.64ZM284.12,46.7c0-1.1,1.18-1.82,3.24-1.82a9.183,9.183,0,0,1,1.96.2c0,.52.02.96.02,1.28,0,1.38-.72,2.06-2.18,2.06C285.24,48.42,284.12,47.8,284.12,46.7Zm6.7-13.4h-1.9a10.07,10.07,0,0,1,.16,1.98c.02.86.02,2.5.02,3.66,0,1.2.08,3.04.16,4.66a11.936,11.936,0,0,0-1.7-.12c-3.46,0-5.04,1.48-5.04,3.28,0,2.28,2.04,3.16,4.8,3.16,2.66,0,3.66-1.4,3.66-3.04,0-.36-.02-.82-.04-1.34a14.2,14.2,0,0,1,5.2,3.32l.96-1.52a15.863,15.863,0,0,0-6.22-3.4c-.1-1.74-.2-3.68-.2-5v-.16c1.64-.02,4.2-.14,5.98-.32l-.06-1.5c-1.8.22-4.34.32-5.92.36,0-.78-.02-1.5,0-2.04C290.7,34.68,290.76,33.72,290.82,33.3Zm15.56-.08-1.76-.06c-.04.54-.08,1.12-.16,1.72a52.852,52.852,0,0,0-.62,6.46,24.355,24.355,0,0,0,.22,3.18l1.54-.12a9.322,9.322,0,0,1-.04-2.46c.24-2.62,2.56-6.26,5.06-6.26,2.1,0,3.18,2.28,3.18,5.44,0,5.02-3.4,6.8-7.74,7.44L307,50c4.96-.9,8.44-3.34,8.44-8.9,0-4.2-1.9-6.86-4.56-6.86-2.54,0-4.62,2.5-5.44,4.54A37.133,37.133,0,0,1,306.38,33.22Zm28.74-.48a24.749,24.749,0,0,1-2.42,4.56l1.3.52a43.568,43.568,0,0,0,2.68-4.52Zm-8.8,4.48a20.6,20.6,0,0,0-2.38-4.42l-1.34.54a22.226,22.226,0,0,1,2.3,4.48Zm12.18,6.16h-8.2V40.16h7.04V38.7H330.3V32.28h-1.52V38.7h-6.76v1.46h6.76v3.22h-8.04v1.46h8.04v5.64h1.52V44.84h8.2Zm6.88,1.14V40.56h4.48v3.96Zm13.22,0h-7.24V40.56h5.86v-1.4h-5.86V36.12h6.32V34.68H345.76c.32-.68.64-1.4.92-2.1l-1.5-.36a16.925,16.925,0,0,1-4.5,6.9,9.2,9.2,0,0,1,1.28.94A18.478,18.478,0,0,0,345,36.12h4.86v3.04H343.9v5.36h-3.28v1.44h9.24v4.58h1.5V45.96h7.24Zm12.8-5a18.936,18.936,0,0,0-3.16-4.78l-1.32.66A19.645,19.645,0,0,1,370,40.28Zm-2.84,3.88c-1.32.56-2.66,1.14-3.94,1.68l-.3-11.8-1.52.06.34,12.36c-1.04.44-1.98.82-2.76,1.12l.54,1.54c2.2-.96,5.22-2.28,7.98-3.54Zm10.38,5.92a51.18,51.18,0,0,0-4.92-5.5c1.4-2.68,2.16-6.08,2.64-10.36l-1.62-.16c-.88,8.64-3,13.48-9.86,16a8.591,8.591,0,0,1,1.18,1.28,14.437,14.437,0,0,0,6.86-5.4,49.146,49.146,0,0,1,4.48,5.28ZM397.6,35.68h-7.24V32.26h-1.48v3.42h-7.24V50.56h1.46V37.14h5.76a9,9,0,0,1-5.24,8.26,6.2,6.2,0,0,1,1.06,1.12,10.672,10.672,0,0,0,4.86-5.36,49.57,49.57,0,0,1,4.86,5.1l1.22-.96a59.8,59.8,0,0,0-5.64-5.56,13.742,13.742,0,0,0,.36-2.6h5.8v11.4c0,.36-.12.48-.48.5-.42.02-1.78.02-3.18-.04a5.515,5.515,0,0,1,.5,1.5,13.291,13.291,0,0,0,3.72-.26c.68-.24.9-.72.9-1.68Zm11.12-.18v1.6a47.011,47.011,0,0,0,8.22,0V35.48A34.218,34.218,0,0,1,408.72,35.5Zm.78,8.14-1.44-.14a10.749,10.749,0,0,0-.34,2.36c0,1.88,1.5,3,4.86,3a27.1,27.1,0,0,0,5-.42l-.04-1.68a22.063,22.063,0,0,1-4.96.52c-2.72,0-3.38-.88-3.38-1.8A6.985,6.985,0,0,1,409.5,43.64Zm-4.6-9.68-1.78-.16a8.754,8.754,0,0,1-.14,1.42,56.257,56.257,0,0,0-.9,8.02,25.182,25.182,0,0,0,.74,6.42l1.44-.1c-.02-.2-.04-.48-.06-.7a3.859,3.859,0,0,1,.1-.9,40.818,40.818,0,0,1,1.42-4.48l-.84-.64c-.34.82-.82,2.02-1.16,2.92a21.936,21.936,0,0,1-.18-2.8,46.44,46.44,0,0,1,1-7.66C404.62,34.94,404.8,34.3,404.9,33.96Zm22.92-.94h-1.78a10.547,10.547,0,0,1,.1,1.42c0,.36-.02,1.24-.02,2.28-.56.04-1.08.06-1.54.06a18.506,18.506,0,0,1-2.56-.16l.04,1.52a21.969,21.969,0,0,0,2.56.1c.42,0,.92-.02,1.48-.06-.02.88-.02,1.82-.02,2.62v1.14c-2.3.98-4.38,2.72-4.38,4.38,0,1.78,2.6,3.32,4.16,3.32,1.08,0,1.76-.6,1.76-2.46,0-.86-.04-2.64-.08-4.34a13.1,13.1,0,0,1,4.36-.78c1.9,0,3.44.92,3.44,2.62,0,1.84-1.6,2.78-3.36,3.12a10.228,10.228,0,0,1-2.34.14l.56,1.62a15.166,15.166,0,0,0,2.48-.28c2.74-.66,4.26-2.2,4.26-4.62,0-2.4-2.1-3.98-5.02-3.98a15.125,15.125,0,0,0-4.4.74v-.7c0-.8.02-1.76.04-2.7a36.715,36.715,0,0,0,4.2-.7l-.04-1.56a26.9,26.9,0,0,1-4.12.8c.02-.9.06-1.68.08-2.16A12.836,12.836,0,0,1,427.82,33.02Zm6.2,2.22-.72,1.2a25.369,25.369,0,0,1,4.48,3l.82-1.28A36.355,36.355,0,0,0,434.02,35.24Zm-10.76,11c0-.9,1.22-2.06,2.86-2.82.02,1.46.06,2.82.06,3.54,0,.66-.28.98-.74.98C424.66,47.94,423.26,47.16,423.26,46.24Zm27.04-2.62V40.6h5.6v3.02Zm-6.94,0V40.6h5.42v3.02Zm5.42-7.3v2.9h-5.42v-2.9Zm7.12,0v2.9h-5.6v-2.9Zm-5.6-1.42V32.26h-1.52V34.9H441.9V46.2h1.46V45.06h5.42V50.5h1.52V45.06h5.6V46.1h1.5V34.9Zm17.42-1.62v1.4h3.64c.1.88.2,1.72.34,2.54l-.64-.1c-.8,4.08-2.48,7.2-5.4,9.06a8.721,8.721,0,0,1,1.16,1.1,14.29,14.29,0,0,0,5.3-8.1c.9,3.64,2.52,6.46,5.32,8.1a6.9,6.9,0,0,1,1.18-1.12c-4-2.06-5.56-6.78-6.04-12.88Zm-2.28,2.56a15.218,15.218,0,0,0-3.48-3.08l-1.1.9a13.8,13.8,0,0,1,3.4,3.16Zm-.56,4.26h-4.24v1.4h2.78v5.06a33.4,33.4,0,0,1-3.04,2.28l.8,1.5c1.06-.86,2.06-1.72,3.02-2.56,1.28,1.54,3.06,2.26,5.66,2.36,2.2.08,6.3.04,8.48-.04a6.767,6.767,0,0,1,.48-1.52c-2.34.16-6.78.22-8.96.14-2.3-.1-4.04-.78-4.98-2.24Zm19.18-5.76.08,1.62c.48-.04,1.04-.1,1.48-.12.92-.06,3.36-.16,4.16-.2-.62,1.24-1.38,2.98-2.08,4.56-3.94.1-6.66,2.36-6.66,5.3a2.549,2.549,0,0,0,2.6,2.74,2.815,2.815,0,0,0,2.52-1.38,43.251,43.251,0,0,0,2.52-5.24,14.38,14.38,0,0,1,5.72,1.84,8.581,8.581,0,0,1-5.24,5.64l1.32,1.1a9.438,9.438,0,0,0,5.26-5.94,20.874,20.874,0,0,1,2.08,1.58l.74-1.72a26.136,26.136,0,0,0-2.42-1.54,26.824,26.824,0,0,0,.42-3.86l-1.62-.18c.04.56.02,1.24,0,1.84-.04.48-.08.98-.16,1.48a18,18,0,0,0-5.5-1.6c.84-1.86,1.72-3.9,2.28-4.8a8.379,8.379,0,0,1,.52-.66l-1-.82a4.133,4.133,0,0,1-1,.22c-.84.06-3.46.2-4.52.2C485.16,34.4,484.58,34.38,484.06,34.34ZM482.5,45.3c0-1.72,1.66-3.48,4.58-3.7a26.7,26.7,0,0,1-2.18,4.36,1.441,1.441,0,0,1-1.2.7A1.225,1.225,0,0,1,482.5,45.3Zm31.18-11.06-1.48-1.32a9.468,9.468,0,0,1-1.14,1.34c-1.36,1.38-4.4,3.78-5.9,5.04-1.8,1.52-2.04,2.38-.14,3.96,1.86,1.54,4.9,4.14,6.3,5.58.5.48.96.98,1.38,1.46l1.42-1.32c-2.12-2.12-5.66-4.98-7.48-6.46-1.28-1.08-1.26-1.4-.06-2.42,1.48-1.24,4.36-3.52,5.72-4.72C512.64,35.1,513.26,34.58,513.68,34.24ZM530.16,44.5l-1.5-.14a11.218,11.218,0,0,0-.3,2.36c0,1.98,1.72,2.96,4.88,2.96a26.345,26.345,0,0,0,3.86-.3l.06-1.62a19.25,19.25,0,0,1-3.9.4c-2.86,0-3.38-.92-3.38-1.86A7.072,7.072,0,0,1,530.16,44.5Zm-2.3-10.94-1.92-.16a7.852,7.852,0,0,1-.06,1.64c-.06.4-.16,1.04-.3,1.74-.78.06-1.5.1-2.16.1a18.118,18.118,0,0,1-2.4-.14l.06,1.56c.72.04,1.44.08,2.32.08.56,0,1.18-.02,1.84-.06-.16.72-.34,1.48-.52,2.14a43.61,43.61,0,0,1-3.36,8.94l1.76.6a60.529,60.529,0,0,0,3.12-9.16c.24-.88.44-1.8.64-2.68a38.407,38.407,0,0,0,4.16-.68V35.92a33.419,33.419,0,0,1-3.84.7c.1-.54.22-1.04.3-1.48C527.58,34.74,527.74,33.98,527.86,33.56Zm1.88,6.08v1.5a32.87,32.87,0,0,1,3.72-.22,25.286,25.286,0,0,1,3.36.24l.04-1.52a32.013,32.013,0,0,0-3.46-.18C532.12,39.46,530.8,39.54,529.74,39.64Zm4.96-5.48-1.06.46a22.846,22.846,0,0,1,1.62,2.78l1.08-.48A22.3,22.3,0,0,0,534.7,34.16Zm2.2-.82-1.04.46a21.267,21.267,0,0,1,1.66,2.78l1.08-.48A25.721,25.721,0,0,0,536.9,33.34Zm13.18,1.48c.14.46.34,1.06.58,1.8a41.791,41.791,0,0,1-7.9-.24l.04,1.6a51.385,51.385,0,0,0,8.4.04,26.718,26.718,0,0,0,2.42,4.56c-.72-.08-2.2-.2-3.32-.3l-.12,1.34a45.206,45.206,0,0,1,4.82.54l.82-1.12c-.3-.34-.6-.68-.88-1.06a21.277,21.277,0,0,1-2.24-4.12,29.733,29.733,0,0,0,4.14-.82l-.18-1.56a25.688,25.688,0,0,1-4.46.98,23.905,23.905,0,0,1-.92-3.42l-1.7.22C549.76,33.78,549.94,34.4,550.08,34.82Zm-4.24,7.94-1.56-.36a7.8,7.8,0,0,0-.96,3.32c0,2.72,2.4,4.1,6.2,4.12a29.047,29.047,0,0,0,5.16-.44l.08-1.6a22.293,22.293,0,0,1-5.16.5c-2.96-.02-4.7-.86-4.7-2.76A5.146,5.146,0,0,1,545.84,42.76Zm18.22-7.72L562.12,35a9.022,9.022,0,0,1,.14,1.78c0,1.16.04,3.6.22,5.34.54,5.18,2.36,7.06,4.26,7.06,1.34,0,2.56-1.16,3.76-4.56l-1.26-1.42c-.52,2-1.46,4.08-2.48,4.08-1.42,0-2.4-2.22-2.72-5.56-.14-1.66-.16-3.48-.14-4.74A15.224,15.224,0,0,1,564.06,35.04Zm10.42.56-1.56.54c1.92,2.34,3.12,6.44,3.48,10.06l1.6-.66A21.5,21.5,0,0,0,574.48,35.6Zm9,8.52a3.05,3.05,0,1,0,3.06,3.04A3.051,3.051,0,0,0,583.48,44.12Zm0,5.08a2.03,2.03,0,1,1,2.04-2.04A2.032,2.032,0,0,1,583.48,49.2Z" transform="translate(360 5250)" fill="#d4d4d4"/>
    <path id="Path_493" data-name="Path 493" d="M0,324.285V0" transform="translate(359.5 4890.5)" fill="none" stroke="#f4f4f4" stroke-width="1"/>
    <line id="Line_154" data-name="Line 154" x1="1200.5" transform="translate(359.5 5213.5)" fill="none" stroke="#f4f4f4" stroke-width="1"/>
    <g id="Group_426" data-name="Group 426" transform="translate(-2 -101.5)">
      <line id="Line_155" data-name="Line 155" y1="10" transform="translate(361.5 5305)" fill="none" stroke="#f4f4f4" stroke-width="1"/>
      <path id="Path_522" data-name="Path 522" d="M10.008,19.208c2.224,0,3.648-2.032,3.648-6.112,0-4.064-1.424-6.048-3.648-6.048-2.24,0-3.664,1.968-3.664,6.048S7.768,19.208,10.008,19.208Zm0-1.168c-1.344,0-2.24-1.488-2.24-4.944,0-3.424.9-4.88,2.24-4.88,1.328,0,2.224,1.456,2.224,4.88C12.232,16.552,11.336,18.04,10.008,18.04Z" transform="translate(352.5 5315)" fill="#fff" stroke="#fff" stroke-width="1"/>
    </g>
    <g id="Group_426-2" data-name="Group 426" transform="translate(105 -101.5)">
      <line id="Line_155-2" data-name="Line 155" y1="10" transform="translate(361.5 5305)" fill="none" stroke="#f4f4f4" stroke-width="1"/>
      <path id="Path_521" data-name="Path 521" d="M6.968,19H13.4V17.784H11.048V7.256H9.928A7.065,7.065,0,0,1,7.5,8.1v.928h2.08v8.752H6.968Z" transform="translate(352.5 5315)" fill="#fff" stroke="#fff" stroke-width="1"/>
    </g>
    <g id="Group_426-3" data-name="Group 426" transform="translate(212 -101.5)">
      <line id="Line_155-3" data-name="Line 155" y1="10" transform="translate(361.5 5305)" fill="none" stroke="#f4f4f4" stroke-width="1"/>
      <path id="Path_520" data-name="Path 520" d="M6.264,19H13.64V17.736H10.392c-.592,0-1.312.064-1.92.112,2.752-2.608,4.592-4.992,4.592-7.328A3.218,3.218,0,0,0,9.656,7.048,4.486,4.486,0,0,0,6.2,8.776l.848.832A3.284,3.284,0,0,1,9.48,8.248a2.062,2.062,0,0,1,2.16,2.32c0,2.016-1.7,4.352-5.376,7.568Z" transform="translate(352.5 5315)" fill="#fff" stroke="#fff" stroke-width="1"/>
    </g>
    <g id="Group_426-4" data-name="Group 426" transform="translate(319 -101.5)">
      <line id="Line_155-4" data-name="Line 155" y1="10" transform="translate(361.5 5305)" fill="none" stroke="#f4f4f4" stroke-width="1"/>
      <path id="Path_523" data-name="Path 523" d="M9.784,19.208c2.08,0,3.76-1.248,3.76-3.344a3.017,3.017,0,0,0-2.48-2.976v-.064a2.929,2.929,0,0,0,2.08-2.832c0-1.856-1.44-2.944-3.408-2.944a4.7,4.7,0,0,0-3.28,1.408l.784.928A3.424,3.424,0,0,1,9.672,8.248,1.8,1.8,0,0,1,11.656,10.1c0,1.264-.832,2.24-3.248,2.24v1.12c2.7,0,3.648.944,3.648,2.336a2.163,2.163,0,0,1-2.384,2.192A3.877,3.877,0,0,1,6.76,16.648l-.736.96A4.855,4.855,0,0,0,9.784,19.208Z" transform="translate(352.5 5315)" fill="#fff" stroke="#fff" stroke-width="1"/>
    </g>
    <g id="Group_426-5" data-name="Group 426" transform="translate(426 -101.5)">
      <line id="Line_155-5" data-name="Line 155" y1="10" transform="translate(361.5 5305)" fill="none" stroke="#f4f4f4" stroke-width="1"/>
      <path id="Path_519" data-name="Path 519" d="M7.4,14.6l2.672-4c.336-.576.656-1.152.944-1.728h.064C11.048,9.48,11,10.424,11,11v3.6ZM11,19h1.376V15.768h1.552V14.6H12.376V7.256H10.76L5.88,14.808v.96H11Z" transform="translate(352.5 5315)" fill="#fff" stroke="#fff" stroke-width="1"/>
    </g>
    <g id="Group_426-6" data-name="Group 426" transform="translate(533 -101.5)">
      <line id="Line_155-6" data-name="Line 155" y1="10" transform="translate(361.5 5305)" fill="none" stroke="#f4f4f4" stroke-width="1"/>
      <path id="Path_518" data-name="Path 518" d="M9.736,19.208a3.809,3.809,0,0,0,3.84-4.032c0-2.576-1.584-3.728-3.536-3.728a3.411,3.411,0,0,0-1.744.464L8.584,8.52h4.432V7.256H7.3l-.368,5.5.784.48a3.191,3.191,0,0,1,1.952-.688A2.373,2.373,0,0,1,12.1,15.224a2.535,2.535,0,0,1-2.5,2.768,3.858,3.858,0,0,1-2.88-1.3l-.72.96A4.982,4.982,0,0,0,9.736,19.208Z" transform="translate(352.5 5315)" fill="#fff" stroke="#fff" stroke-width="1"/>
    </g>
    <g id="Group_426-7" data-name="Group 426" transform="translate(640 -101.5)">
      <line id="Line_155-7" data-name="Line 155" y1="10" transform="translate(361.5 5305)" fill="none" stroke="#f4f4f4" stroke-width="1"/>
      <path id="Path_517" data-name="Path 517" d="M10.248,12.808c1.424,0,2.128,1.008,2.128,2.592,0,1.6-.88,2.672-2,2.672-1.472,0-2.352-1.328-2.528-3.76A3.032,3.032,0,0,1,10.248,12.808Zm.128,6.4a3.522,3.522,0,0,0,3.36-3.808c0-2.448-1.264-3.68-3.248-3.68a3.648,3.648,0,0,0-2.672,1.424C7.88,9.5,9.24,8.264,10.84,8.264a2.48,2.48,0,0,1,1.888.9l.8-.912a3.6,3.6,0,0,0-2.736-1.2c-2.272,0-4.336,1.76-4.336,6.352C6.456,17.272,8.12,19.208,10.376,19.208Z" transform="translate(352.5 5315)" fill="#fff" stroke="#fff" stroke-width="1"/>
    </g>
    <g id="Group_426-8" data-name="Group 426" transform="translate(747 -101.5)">
      <line id="Line_155-8" data-name="Line 155" y1="10" transform="translate(361.5 5305)" fill="none" stroke="#f4f4f4" stroke-width="1"/>
      <path id="Path_516" data-name="Path 516" d="M8.728,19h1.52c.176-4.592.688-7.328,3.44-10.848v-.9H6.344V8.52h5.68C9.736,11.72,8.92,14.552,8.728,19Z" transform="translate(352.5 5315)" fill="#fff" stroke="#fff" stroke-width="1"/>
    </g>
    <g id="Group_426-9" data-name="Group 426" transform="translate(854 -101.5)">
      <line id="Line_155-9" data-name="Line 155" y1="10" transform="translate(361.5 5305)" fill="none" stroke="#f4f4f4" stroke-width="1"/>
      <path id="Path_515" data-name="Path 515" d="M10.024,19.208c2.208,0,3.68-1.328,3.68-3.04A3.422,3.422,0,0,0,11.72,13.1v-.08a3.846,3.846,0,0,0,1.568-2.832A2.966,2.966,0,0,0,10.072,7.1a2.984,2.984,0,0,0-3.216,2.976,3.261,3.261,0,0,0,1.584,2.7v.08a3.757,3.757,0,0,0-2.16,3.232C6.28,17.9,7.864,19.208,10.024,19.208Zm.8-6.576c-1.376-.544-2.64-1.152-2.64-2.56a1.806,1.806,0,0,1,1.872-1.9,1.944,1.944,0,0,1,1.984,2.1A3.146,3.146,0,0,1,10.824,12.632Zm-.768,5.488a2.249,2.249,0,0,1-2.448-2.16,3.188,3.188,0,0,1,1.6-2.656c1.664.672,3.1,1.264,3.1,2.832A2.032,2.032,0,0,1,10.056,18.12Z" transform="translate(352.5 5315)" fill="#fff" stroke="#fff" stroke-width="1"/>
    </g>
    <g id="Group_426-10" data-name="Group 426" transform="translate(961 -101.5)">
      <line id="Line_155-10" data-name="Line 155" y1="10" transform="translate(361.5 5305)" fill="none" stroke="#f4f4f4" stroke-width="1"/>
      <path id="Path_514" data-name="Path 514" d="M7.64,10.856c0-1.6.864-2.656,1.984-2.656,1.5,0,2.4,1.28,2.56,3.7a3.074,3.074,0,0,1-2.448,1.568C8.344,13.464,7.64,12.44,7.64,10.856ZM9.3,19.208c2.208,0,4.256-1.824,4.256-6.576,0-3.728-1.68-5.584-3.936-5.584a3.522,3.522,0,0,0-3.36,3.808c0,2.432,1.28,3.7,3.232,3.7a3.649,3.649,0,0,0,2.7-1.44c-.112,3.632-1.424,4.88-2.944,4.88A2.587,2.587,0,0,1,7.3,17.1l-.816.912A3.732,3.732,0,0,0,9.3,19.208Z" transform="translate(352.5 5315)" fill="#fff" stroke="#fff" stroke-width="1"/>
    </g>
    <g id="Group_426-11" data-name="Group 426" transform="translate(1068 -101.5)">
      <line id="Line_155-11" data-name="Line 155" y1="10" transform="translate(361.5 5305)" fill="none" stroke="#f4f4f4" stroke-width="1"/>
      <path id="Path_513" data-name="Path 513" d="M2.528,19H8.96V17.784H6.608V7.256H5.488A7.065,7.065,0,0,1,3.056,8.1v.928h2.08v8.752H2.528Zm11.92.208c2.224,0,3.648-2.032,3.648-6.112,0-4.064-1.424-6.048-3.648-6.048-2.24,0-3.664,1.968-3.664,6.048S12.208,19.208,14.448,19.208Zm0-1.168c-1.344,0-2.24-1.488-2.24-4.944,0-3.424.9-4.88,2.24-4.88,1.328,0,2.224,1.456,2.224,4.88C16.672,16.552,15.776,18.04,14.448,18.04Z" transform="translate(352.5 5315)" fill="#fff" stroke="#fff" stroke-width="1"/>
    </g>
    <g id="Group_430" data-name="Group 430" transform="translate(-0.5 145)">
      <g id="Group_427" data-name="Group 427" opacity="0.67">
        <rect id="Rectangle_174" data-name="Rectangle 174" width="1160" height="80" transform="translate(360 4964)" fill="#fff"/>
        <path id="Polygon_7" data-name="Polygon 7" d="M75.75,0,101,40,75.75,80H25.25L0,40,25.25,0Z" transform="translate(1459 4964)" fill="#fff"/>
      </g>
      <g id="Group_428" data-name="Group 428">
        <rect id="Rectangle_174-2" data-name="Rectangle 174" width="1029.282" height="80" transform="translate(360 4964)" fill="#6e6e6e"/>
        <path id="Polygon_7-2" data-name="Polygon 7" d="M75.75,0,101,40,75.75,80H25.25L0,40,25.25,0Z" transform="translate(1328.282 4964)" fill="#6e6e6e"/>
      </g>
      <g id="Group_429" data-name="Group 429">
        <rect id="Rectangle_174-3" data-name="Rectangle 174" width="174" height="80" transform="translate(360 4964)" fill="#a6b7c9"/>
        <path id="Polygon_7-3" data-name="Polygon 7" d="M75.75,0,101,40,75.75,80H25.25L0,40,25.25,0Z" transform="translate(473 4964)" fill="#a6b7c9"/>
      </g>
      <path id="Path_512" data-name="Path 512" d="M49.96,7.352,48.488,6.84a9.178,9.178,0,0,1-.32,1.184,17.9,17.9,0,0,1-2.176,4.368c-1.264-.976-3.12-2.288-4.5-3.168l-.832,1.008a50.057,50.057,0,0,1,4.512,3.232,17.764,17.764,0,0,1-6.352,5.024l1.1,1.008A20.384,20.384,0,0,0,46.2,14.328a35.684,35.684,0,0,1,3.776,3.68l1.008-1.1a40.041,40.041,0,0,0-3.952-3.664,22.288,22.288,0,0,0,2.4-4.72A8.634,8.634,0,0,1,49.96,7.352Zm4.672,4.72V13.64c.5-.048,1.344-.08,2.224-.08H65.64c.72,0,1.392.064,1.712.08V12.072c-.352.032-.928.08-1.728.08H56.856C55.96,12.152,55.112,12.1,54.632,12.072Zm22.5-5.664h-1.5a9.7,9.7,0,0,1,.112,1.328c0,.576-.032,1.12-.064,1.632H72.856a16.746,16.746,0,0,1-1.824-.1v1.36a17.073,17.073,0,0,1,1.84-.064H75.56A10.288,10.288,0,0,1,72.392,17.3a7.886,7.886,0,0,1-1.648,1.184l1.168.944c2.672-1.84,4.336-4.272,4.912-8.864H81.3c0,1.712-.208,5.648-.816,6.864a.866.866,0,0,1-.928.528,19.466,19.466,0,0,1-2.384-.176l.16,1.328c.832.048,1.76.112,2.576.112a1.661,1.661,0,0,0,1.712-.976c.72-1.536.912-6.192.976-7.728a5,5,0,0,1,.08-.784l-.9-.448a5.766,5.766,0,0,1-1.024.08H76.952c.032-.528.064-1.072.08-1.648C77.048,7.336,77.08,6.776,77.128,6.408Zm9.5,5.664V13.64c.5-.048,1.344-.08,2.224-.08H97.64c.72,0,1.392.064,1.712.08V12.072c-.352.032-.928.08-1.728.08H88.856C87.96,12.152,87.112,12.1,86.632,12.072Zm18.816-6.416a17.965,17.965,0,0,1-4.032,6.3,9.715,9.715,0,0,1,.672,1.152,17.29,17.29,0,0,0,1.712-2.048v9.12h1.136V9.32a23.768,23.768,0,0,0,1.632-3.328Zm2.768,1.776h5.936V10.36h-5.936Zm8,7.056V13.4h-4.48V11.416h3.6V6.36H107.1v5.056h3.456V13.4h-4.64v1.088h3.952a11.851,11.851,0,0,1-4.416,4.1,5.86,5.86,0,0,1,.832.944,13.372,13.372,0,0,0,4.272-4.256v4.96h1.184V15.224a14.736,14.736,0,0,0,4.048,4.336,5.391,5.391,0,0,1,.848-.944,12.467,12.467,0,0,1-4.208-4.128Zm6.672-8.32H118.52v.96h4.368Zm.56,2.128h-5.776v.976h5.776ZM122.9,10.5h-4.48v.944h4.48Zm-4.48,3.12h4.48V12.68h-4.48Zm3.5,2.208v2.656h-2.5V15.832Zm1.04-.976h-4.576V20.2h1.04v-.72h3.536Zm5.872,3.68V13.224h3.168V12.1H128.84V7.7H132.1V6.6h-8.128V7.7h3.712V18.536h-1.92V10.584h-1.12v7.952h-1.2v1.136h8.912V18.536ZM32.832,52h10.68V49.144H40.176V34.216H37.56a11.08,11.08,0,0,1-4.128,1.512v2.184h3.216V49.144H32.832ZM52.68,46.24V42.592h4.152V46.24Zm15.312,0H59.784V42.592H66.12V39.928H59.784V37.072h6.888v-2.76H53.112a15.322,15.322,0,0,0,.792-1.968L51,31.6a18.508,18.508,0,0,1-5.04,7.992,22.088,22.088,0,0,1,2.472,1.848A21.568,21.568,0,0,0,51.7,37.072h5.136v2.856H49.824V46.24H46.032v2.736h10.8v5.136h2.952V48.976h8.208Zm13.5-6.528-.336.1H70.5V41.68h9.872a14.535,14.535,0,0,1-3.36,5.632,15.189,15.189,0,0,1-3.056-5.536l-1.9.544a19.381,19.381,0,0,0,3.424,6.368A18.134,18.134,0,0,1,69.464,51.6a7.48,7.48,0,0,1,1.264,1.856,18.4,18.4,0,0,0,6.176-3.3,15.216,15.216,0,0,0,6.256,3.248A9.593,9.593,0,0,1,84.5,51.584a14.922,14.922,0,0,1-6.032-2.88,18.578,18.578,0,0,0,4.416-8.336ZM92.584,49.92c0-.608.608-.992,1.52-.992a4.94,4.94,0,0,1,1.28.176v.288c0,.944-.336,1.456-1.312,1.456C93.224,50.848,92.584,50.576,92.584,49.92Zm4.752-10.448H95.048a6.8,6.8,0,0,1,.112,1.056c0,.336.016.992.016,1.776-.368.016-.752.016-1.12.016a26.66,26.66,0,0,1-2.8-.144v1.9c.944.064,1.856.1,2.8.1.368,0,.752,0,1.136-.016.016,1.136.08,2.3.112,3.3a7.118,7.118,0,0,0-1.04-.064c-2.176,0-3.552,1.12-3.552,2.736,0,1.68,1.376,2.608,3.584,2.608,2.16,0,3.024-1.088,3.12-2.624a16.783,16.783,0,0,1,1.952,1.616l1.1-1.68a10.472,10.472,0,0,0-3.1-2.064c-.064-1.088-.144-2.368-.176-3.92.88-.064,1.712-.16,2.48-.272v-2a21.922,21.922,0,0,1-2.48.368c.016-.7.032-1.3.048-1.648A10.02,10.02,0,0,1,97.336,39.472Zm-7.808.176-2.208-.192a15.264,15.264,0,0,1-.16,1.568A50.67,50.67,0,0,0,86.5,47.7a18.793,18.793,0,0,0,.64,5.12l1.808-.144c-.016-.224-.032-.5-.032-.656a4.466,4.466,0,0,1,.08-.752c.192-.864.7-2.5,1.152-3.808l-.976-.8c-.24.544-.512,1.088-.72,1.648a7.562,7.562,0,0,1-.064-1.04,42.71,42.71,0,0,1,.768-6.192A10.388,10.388,0,0,1,89.528,39.648ZM102.032,52h11.9V49.024H110.1c-.84,0-2.016.1-2.9.192,3.24-3.168,5.9-6.624,5.9-9.84A5.21,5.21,0,0,0,107.5,33.9a7.129,7.129,0,0,0-5.64,2.688l1.92,1.92a4.647,4.647,0,0,1,3.264-1.824c1.7,0,2.664,1.08,2.664,2.88,0,2.736-2.856,6.072-7.68,10.392Zm20.784-5.76V42.592h4.152V46.24Zm15.312,0H129.92V42.592h6.336V39.928H129.92V37.072h6.888v-2.76h-13.56a15.322,15.322,0,0,0,.792-1.968l-2.9-.744a18.508,18.508,0,0,1-5.04,7.992,22.088,22.088,0,0,1,2.472,1.848,21.569,21.569,0,0,0,3.264-4.368h5.136v2.856H119.96V46.24h-3.792v2.736h10.8v5.136h2.952V48.976h8.208Z" transform="translate(371 4973)"/>
      <path id="Path_511" data-name="Path 511" d="M12.108,5.79A18.983,18.983,0,0,1,7.86,12.522a14.308,14.308,0,0,1,1.152,2.2,20.513,20.513,0,0,0,1.368-1.6V22.53h2.034V9.984a30.1,30.1,0,0,0,1.674-3.546Zm4.374,2.628h5.274V10.83H16.482Zm8.3,7.866V14.34H20.136V12.72H23.9V6.528h-9.45V12.72h3.528v1.62H13.26v1.944h3.69a12.931,12.931,0,0,1-4.338,3.888,8.839,8.839,0,0,1,1.476,1.71,14.434,14.434,0,0,0,3.888-3.87v4.554h2.16V17.922a14.863,14.863,0,0,0,3.654,4,9.113,9.113,0,0,1,1.512-1.71,13.546,13.546,0,0,1-4.122-3.924Zm7.344-9.972H27.048v1.62h5.076ZM30.414,18.1v2.052H28.686V18.1ZM32.25,16.41H26.886v6.138h1.8v-.7H32.25Zm-5.31-.918h5.184v-1.62H26.94Zm5.184-4.122H26.94v1.6h5.184Zm-6.03-.882h6.678V8.8H26.094Zm13.3,9.45V14.97H42.51V12.954H39.4V8.706h3.2V6.672H33.33V8.706h3.96V19.938H35.922V11.406h-2v8.532h-1.1v2H42.942v-2Zm5.382-3.654a13.087,13.087,0,0,1-.954,4.176,10.581,10.581,0,0,1,1.638.774,16.642,16.642,0,0,0,1.08-4.644Zm3.906.324a21.3,21.3,0,0,1,1.044,3.348l1.584-.576A19.846,19.846,0,0,0,50.2,16.14Zm2.934,3.258a30.01,30.01,0,0,1,6.768,2.862l1.242-1.674a35.563,35.563,0,0,0-6.768-2.7Zm1.944-3.2a16.271,16.271,0,0,1,3.69,2.106l1.242-1.494a18.462,18.462,0,0,0-3.726-1.962ZM57.324,9.3a11.156,11.156,0,0,1-1.566,2.034A12.539,12.539,0,0,1,54.192,9.3Zm1.458-1.908-.324.072h-3.2c.252-.45.468-.918.666-1.368l-2.088-.342a12.279,12.279,0,0,1-3.906,5.166A5.99,5.99,0,0,1,51.4,12.306,14.544,14.544,0,0,0,53,10.758a14.809,14.809,0,0,0,1.368,1.8,14.531,14.531,0,0,1-3.33,1.908,18.006,18.006,0,0,0-1.314-2.9l-1.422.594c.216.4.432.846.63,1.3l-1.728.072c1.134-1.458,2.376-3.276,3.366-4.842l-1.746-.81a32.642,32.642,0,0,1-1.6,2.916c-.18-.216-.378-.468-.612-.72.648-1.008,1.368-2.394,2.016-3.618l-1.854-.684A22.819,22.819,0,0,1,45.462,8.9c-.144-.126-.288-.252-.414-.36L44.022,10a17.663,17.663,0,0,1,2.124,2.448c-.288.414-.576.81-.846,1.152l-1.3.054.18,1.854,2.61-.162v7.236h1.854V15.222l.918-.072c.09.324.162.63.216.882l1.314-.594a5.447,5.447,0,0,1,.63.972,16.324,16.324,0,0,0,4.05-2.448A13.992,13.992,0,0,0,59.862,16.5a8.9,8.9,0,0,1,1.35-1.746,13.336,13.336,0,0,1-4-2.124,14.117,14.117,0,0,0,2.9-4.5Zm17.37-.522-.522.144H63.354V9.12h10.44a20.663,20.663,0,0,1-3.114,2.754H69.474v8.154c0,.306-.126.4-.522.4-.414.018-1.89.018-3.15-.054a9.079,9.079,0,0,1,.846,2.2,12.647,12.647,0,0,0,3.906-.36c.882-.324,1.188-.9,1.188-2.142v-6.39a27.579,27.579,0,0,0,6.084-5.562Zm7.38-1.1A15.04,15.04,0,0,1,80,9.336,16.38,16.38,0,0,1,81.12,10.9a22.129,22.129,0,0,0,4.3-4.392Zm.324,3.834a15.354,15.354,0,0,1-4.014,4.626,13,13,0,0,1,1.116,2,15.936,15.936,0,0,0,1.4-1.332v7.7h2V12.486a24.12,24.12,0,0,0,1.368-2.178Zm5.256,7.056H92.6a8.015,8.015,0,0,1-1.728,1.764,8.219,8.219,0,0,1-1.782-1.746Zm4.95-1.674-.342.072H90.462c.252-.342.486-.7.7-1.062,1.17-.036,2.394-.072,3.582-.126a10.393,10.393,0,0,1,.594,1.188l1.8-1.008A17.747,17.747,0,0,0,94.4,10.11l-1.656.918c.306.36.612.738.9,1.152l-3.222.054a57.524,57.524,0,0,0,4.41-4.176l-1.89-1.044a32.3,32.3,0,0,1-2.9,3.186,13.535,13.535,0,0,0-1.026-.9c.756-.756,1.638-1.728,2.412-2.646L89.58,5.7a19.637,19.637,0,0,1-1.926,2.592c-.342-.234-.684-.45-.99-.648L85.386,9.03a20.476,20.476,0,0,1,3.168,2.556c-.252.234-.522.468-.774.684-1.026.018-1.962.018-2.772.018l.18,1.89,3.6-.108a11.619,11.619,0,0,1-4.014,3.33,12.476,12.476,0,0,1,1.386,1.584,17.413,17.413,0,0,0,1.62-1.116A9.8,9.8,0,0,0,89.2,19.434a15.562,15.562,0,0,1-4.428,1.4A6.962,6.962,0,0,1,85.8,22.656a17.592,17.592,0,0,0,5.094-1.926,14.581,14.581,0,0,0,4.968,1.89,8,8,0,0,1,1.278-1.836,16.151,16.151,0,0,1-4.482-1.314,9.832,9.832,0,0,0,2.736-3.888ZM16.032,44.66c0-.684.684-1.116,1.71-1.116a5.557,5.557,0,0,1,1.44.2v.324c0,1.062-.378,1.638-1.476,1.638C16.752,45.7,16.032,45.4,16.032,44.66Zm5.346-11.754H18.8a7.644,7.644,0,0,1,.126,1.188c0,.378.018,1.116.018,2-.414.018-.846.018-1.26.018a29.992,29.992,0,0,1-3.15-.162V38.09c1.062.072,2.088.108,3.15.108.414,0,.846,0,1.278-.018.018,1.278.09,2.592.126,3.708a8.008,8.008,0,0,0-1.17-.072c-2.448,0-4,1.26-4,3.078,0,1.89,1.548,2.934,4.032,2.934,2.43,0,3.4-1.224,3.51-2.952a18.881,18.881,0,0,1,2.2,1.818l1.242-1.89a11.781,11.781,0,0,0-3.492-2.322c-.072-1.224-.162-2.664-.2-4.41.99-.072,1.926-.18,2.79-.306v-2.25a24.662,24.662,0,0,1-2.79.414c.018-.792.036-1.458.054-1.854A11.272,11.272,0,0,1,21.378,32.906Zm-8.784.2-2.484-.216a17.17,17.17,0,0,1-.18,1.764,57,57,0,0,0-.738,7.506,21.142,21.142,0,0,0,.72,5.76l2.034-.162c-.018-.252-.036-.558-.036-.738a5.023,5.023,0,0,1,.09-.846c.216-.972.792-2.808,1.3-4.284l-1.1-.9c-.27.612-.576,1.224-.81,1.854a8.508,8.508,0,0,1-.072-1.17,48.049,48.049,0,0,1,.864-6.966A11.687,11.687,0,0,1,12.594,33.1Zm25.812,7.272h-6.5V39.224h6.5Zm-6.5,2.952v-1.17h6.5v1.17Zm10.6-7.4V33.914H33.726c.216-.558.4-1.116.576-1.674l-2.214-.5a17.958,17.958,0,0,1-.7,2.178H26.544V35.93h3.942A13.979,13.979,0,0,1,26,41.186a12.064,12.064,0,0,1,1.4,1.638,13.193,13.193,0,0,0,2.376-2.106v7.83h2.124V45.11h6.5v1.08c0,.252-.108.342-.414.36-.306,0-1.35,0-2.268-.054a8.884,8.884,0,0,1,.648,2.07,7.928,7.928,0,0,0,3.186-.36c.738-.324.936-.9.936-1.962V37.352H32.16a15.049,15.049,0,0,0,.72-1.422Zm16.236-.342v.684h-7.9v-.684Zm-1.782,2.52H52.572v-.756h4.392Zm-7.938-.99h1.692v2.07h8.19v-2.07h1.746V34.112H58.728c.36-.468.792-1.026,1.224-1.638l-2.034-.558a14.1,14.1,0,0,1-.99,2.034l.468.162H55.92V31.88H53.832v2.232H52.356l.576-.216a9.482,9.482,0,0,0-1.1-1.962l-1.62.558a8.793,8.793,0,0,1,.864,1.62H49.134c.252-.558.486-1.116.7-1.656L47.8,31.808a19.131,19.131,0,0,1-4.086,6.75,13.559,13.559,0,0,1,1.134,2.214,16.54,16.54,0,0,0,1.224-1.44v9.2h2.034V36.164c.324-.594.63-1.206.918-1.8Zm2.826,6.966h5.9V44.7h-5.9Zm0-1.6h5.9v.63h-5.9Zm0-1.566h5.9v.612h-5.9Zm7.938,4.932V39.782H49.926v6.066h2.358a20.331,20.331,0,0,1-3.834,1.314,7.235,7.235,0,0,1,1.188,1.4,16.2,16.2,0,0,0,4.518-1.836l-1.26-.882h3.546L55.4,46.874A22.647,22.647,0,0,1,59.43,48.6l1.656-1.26a27.758,27.758,0,0,0-3.816-1.494ZM65.3,31.808a20.385,20.385,0,0,1-3.564,6.948,16.829,16.829,0,0,1,1.026,2.3,14.39,14.39,0,0,0,1.134-1.512v9h2.034V35.8c.5-1.116.954-2.286,1.332-3.4Zm3.492,4.968a10.284,10.284,0,0,1,1.062.864A9.918,9.918,0,0,0,70.9,36.56a11.931,11.931,0,0,0,1.332,1.386,13.675,13.675,0,0,1-3.438,1.332Zm6.318-1.494a7.013,7.013,0,0,1-1.44,1.656,8.464,8.464,0,0,1-1.728-1.656Zm3.582,0V33.554H72.84a12.669,12.669,0,0,0,.576-1.35l-1.926-.45a10.943,10.943,0,0,1-2.7,4.194V34.04H66.936V45.56H68.79V39.692a7.859,7.859,0,0,1,.936,1.3,15.52,15.52,0,0,0,4.1-1.854,13.588,13.588,0,0,0,4.284,1.71,8.627,8.627,0,0,1,1.152-1.71,13.962,13.962,0,0,1-3.924-1.206,9.759,9.759,0,0,0,2-2.646Zm-3.006,6.372c-1.188,1.188-3.528,2.088-5.778,2.556a6.535,6.535,0,0,1,1.044,1.332,13.111,13.111,0,0,0,6.264-3.258ZM73.92,40.016a10.8,10.8,0,0,1-4.14,1.944,5.559,5.559,0,0,1,1.134,1.224,11.644,11.644,0,0,0,4.572-2.52Zm3.06,3.672c-1.548,1.692-4.662,2.664-7.974,3.114a7.461,7.461,0,0,1,1.08,1.692c3.672-.666,6.858-1.872,8.73-4.068Zm8.982-.738c-.576.2-1.17.378-1.764.558v-3.6h1.62V37.946H84.2V34.778h1.926v-2h-5.94v2h1.98v3.168H80.346v1.962h1.818v4.23c-.828.234-1.566.432-2.2.594l.486,2.178c1.728-.558,3.888-1.242,5.868-1.944Zm2.772-5.436h1.854v1.548H88.734Zm0-3.186h1.854V35.84H88.734ZM94.17,35.84H92.388V34.328H94.17Zm0,3.222H92.388V37.514H94.17Zm-1.584,7v-1.71H96.4V42.428H92.586V40.88H96.2V32.51h-9.4v8.37h3.6v1.548H86.682v1.926h3.726v1.71H85.44v1.944H97.014V46.064Z" transform="translate(1429.5 4975)"/>
      <path id="Path_510" data-name="Path 510" d="M46.248,42h16.02V37.716h-5V15.324H53.34a16.619,16.619,0,0,1-6.192,2.268v3.276h4.824V37.716H46.248Zm28.872.5c5.436,0,9-4.752,9-13.932s-3.564-13.716-9-13.716-9.036,4.5-9.036,13.716C66.084,37.752,69.684,42.5,75.12,42.5Zm0-4.14c-2.3,0-4.032-2.3-4.032-9.792,0-7.452,1.728-9.612,4.032-9.612s4,2.16,4,9.612C79.116,36.06,77.424,38.364,75.12,38.364ZM93.384,36.24V32.592h4.152V36.24Zm15.312,0h-8.208V32.592h6.336V29.928h-6.336V27.072h6.888v-2.76H93.816a15.321,15.321,0,0,0,.792-1.968L91.7,21.6a18.508,18.508,0,0,1-5.04,7.992,22.088,22.088,0,0,1,2.472,1.848A21.569,21.569,0,0,0,92.4,27.072h5.136v2.856H90.528V36.24H86.736v2.736h10.8v5.136h2.952V38.976H108.7Zm7.152-14.52a25.31,25.31,0,0,1-5.664,8.976,19.078,19.078,0,0,1,1.536,2.928,27.352,27.352,0,0,0,1.824-2.136V44.04h2.712V27.312a40.131,40.131,0,0,0,2.232-4.728Zm5.832,3.5h7.032V28.44H121.68Zm11.064,10.488V33.12h-6.192V30.96h5.016V22.7h-12.6V30.96h4.7v2.16h-6.288v2.592h4.92A17.241,17.241,0,0,1,116.52,40.9a11.786,11.786,0,0,1,1.968,2.28,19.246,19.246,0,0,0,5.184-5.16v6.072h2.88V37.9a19.818,19.818,0,0,0,4.872,5.328,12.15,12.15,0,0,1,2.016-2.28,18.062,18.062,0,0,1-5.5-5.232Zm9.792-13.3h-6.768v2.16h6.768Zm-2.28,15.72v2.736h-2.3V38.136ZM142.7,35.88h-7.152v8.184h2.4v-.936H142.7Zm-7.08-1.224h6.912V32.5h-6.912Zm6.912-5.5h-6.912V31.3h6.912Zm-8.04-1.176h8.9V25.728h-8.9Zm17.736,12.6V33.96h4.152V31.272h-4.152V25.608H156.5V22.9h-12.36v2.712h5.28V40.584H147.6V29.208h-2.664V40.584h-1.464v2.664H156.96V40.584ZM177,24.408a1.38,1.38,0,1,1,1.392,1.368A1.393,1.393,0,0,1,177,24.408Zm-1.488,0a2.658,2.658,0,0,0,.048.456,10.355,10.355,0,0,1-1.368.1H163.08a26.722,26.722,0,0,1-2.856-.192v3.384c.6-.048,1.752-.1,2.856-.1h11.16a15.082,15.082,0,0,1-2.808,6.768,15.733,15.733,0,0,1-9.408,5.64l2.616,2.88a19.276,19.276,0,0,0,9.648-6.648c2.016-2.664,3.048-6.384,3.6-8.736.072-.216.12-.456.192-.72a1.368,1.368,0,0,0,.312.024,2.868,2.868,0,1,0-2.88-2.856Zm11.544-.816v3.1c.7-.048,1.728-.072,2.5-.072h9.192c.864,0,1.992.024,2.64.072v-3.1a22.628,22.628,0,0,1-2.592.12h-9.24A20.231,20.231,0,0,1,187.056,23.592Zm16.344,6.96-2.136-1.32a5.063,5.063,0,0,1-1.752.24h-11.88c-.744,0-1.776-.072-2.784-.144v3.12c1.008-.1,2.208-.12,2.784-.12h11.592a10.412,10.412,0,0,1-2.472,4.152,16.188,16.188,0,0,1-8.3,4.2l2.376,2.712a17.972,17.972,0,0,0,8.568-5.184,17.248,17.248,0,0,0,3.552-6.648A8.891,8.891,0,0,1,203.4,30.552Zm8.088-6.792-2.256,2.4a49.9,49.9,0,0,1,6,5.184l2.448-2.5A48.472,48.472,0,0,0,211.488,23.76Zm-3,15.984,2.016,3.168a25.991,25.991,0,0,0,8.9-3.384,25.52,25.52,0,0,0,8.88-8.88l-1.872-3.384A22.6,22.6,0,0,1,217.68,36.6,24.736,24.736,0,0,1,208.488,39.744Z" transform="translate(824.5 4975)" fill="#fff"/>
    </g>
    <g id="Group_430-2" data-name="Group 430" transform="translate(-0.5 45)">
      <g id="Group_427-2" data-name="Group 427" opacity="0.67">
        <rect id="Rectangle_174-4" data-name="Rectangle 174" width="1160" height="80" transform="translate(360 4964)" fill="#fff"/>
        <path id="Polygon_7-4" data-name="Polygon 7" d="M75.75,0,101,40,75.75,80H25.25L0,40,25.25,0Z" transform="translate(1459 4964)" fill="#fff"/>
      </g>
      <g id="Group_428-2" data-name="Group 428">
        <rect id="Rectangle_174-5" data-name="Rectangle 174" width="495" height="80" transform="translate(360 4964)" fill="#6e6e6e"/>
        <path id="Polygon_7-5" data-name="Polygon 7" d="M75.75,0,101,40,75.75,80H25.25L0,40,25.25,0Z" transform="translate(794 4964)" fill="#6e6e6e"/>
      </g>
      <g id="Group_429-2" data-name="Group 429">
        <rect id="Rectangle_174-6" data-name="Rectangle 174" width="174" height="80" transform="translate(360 4964)" fill="#a6b7c9"/>
        <path id="Polygon_7-6" data-name="Polygon 7" d="M75.75,0,101,40,75.75,80H25.25L0,40,25.25,0Z" transform="translate(473 4964)" fill="#a6b7c9"/>
      </g>
      <path id="Path_509" data-name="Path 509" d="M49.96,7.352,48.488,6.84a9.178,9.178,0,0,1-.32,1.184,17.9,17.9,0,0,1-2.176,4.368c-1.264-.976-3.12-2.288-4.5-3.168l-.832,1.008a50.057,50.057,0,0,1,4.512,3.232,17.764,17.764,0,0,1-6.352,5.024l1.1,1.008A20.384,20.384,0,0,0,46.2,14.328a35.684,35.684,0,0,1,3.776,3.68l1.008-1.1a40.041,40.041,0,0,0-3.952-3.664,22.288,22.288,0,0,0,2.4-4.72A8.634,8.634,0,0,1,49.96,7.352Zm4.672,4.72V13.64c.5-.048,1.344-.08,2.224-.08H65.64c.72,0,1.392.064,1.712.08V12.072c-.352.032-.928.08-1.728.08H56.856C55.96,12.152,55.112,12.1,54.632,12.072Zm22.5-5.664h-1.5a9.7,9.7,0,0,1,.112,1.328c0,.576-.032,1.12-.064,1.632H72.856a16.746,16.746,0,0,1-1.824-.1v1.36a17.073,17.073,0,0,1,1.84-.064H75.56A10.288,10.288,0,0,1,72.392,17.3a7.886,7.886,0,0,1-1.648,1.184l1.168.944c2.672-1.84,4.336-4.272,4.912-8.864H81.3c0,1.712-.208,5.648-.816,6.864a.866.866,0,0,1-.928.528,19.466,19.466,0,0,1-2.384-.176l.16,1.328c.832.048,1.76.112,2.576.112a1.661,1.661,0,0,0,1.712-.976c.72-1.536.912-6.192.976-7.728a5,5,0,0,1,.08-.784l-.9-.448a5.766,5.766,0,0,1-1.024.08H76.952c.032-.528.064-1.072.08-1.648C77.048,7.336,77.08,6.776,77.128,6.408Zm9.5,5.664V13.64c.5-.048,1.344-.08,2.224-.08H97.64c.72,0,1.392.064,1.712.08V12.072c-.352.032-.928.08-1.728.08H88.856C87.96,12.152,87.112,12.1,86.632,12.072Zm18.816-6.416a17.965,17.965,0,0,1-4.032,6.3,9.715,9.715,0,0,1,.672,1.152,17.29,17.29,0,0,0,1.712-2.048v9.12h1.136V9.32a23.768,23.768,0,0,0,1.632-3.328Zm2.768,1.776h5.936V10.36h-5.936Zm8,7.056V13.4h-4.48V11.416h3.6V6.36H107.1v5.056h3.456V13.4h-4.64v1.088h3.952a11.851,11.851,0,0,1-4.416,4.1,5.86,5.86,0,0,1,.832.944,13.372,13.372,0,0,0,4.272-4.256v4.96h1.184V15.224a14.736,14.736,0,0,0,4.048,4.336,5.391,5.391,0,0,1,.848-.944,12.467,12.467,0,0,1-4.208-4.128Zm6.672-8.32H118.52v.96h4.368Zm.56,2.128h-5.776v.976h5.776ZM122.9,10.5h-4.48v.944h4.48Zm-4.48,3.12h4.48V12.68h-4.48Zm3.5,2.208v2.656h-2.5V15.832Zm1.04-.976h-4.576V20.2h1.04v-.72h3.536Zm5.872,3.68V13.224h3.168V12.1H128.84V7.7H132.1V6.6h-8.128V7.7h3.712V18.536h-1.92V10.584h-1.12v7.952h-1.2v1.136h8.912V18.536ZM32.832,52h10.68V49.144H40.176V34.216H37.56a11.08,11.08,0,0,1-4.128,1.512v2.184h3.216V49.144H32.832ZM52.68,46.24V42.592h4.152V46.24Zm15.312,0H59.784V42.592H66.12V39.928H59.784V37.072h6.888v-2.76H53.112a15.322,15.322,0,0,0,.792-1.968L51,31.6a18.508,18.508,0,0,1-5.04,7.992,22.088,22.088,0,0,1,2.472,1.848A21.568,21.568,0,0,0,51.7,37.072h5.136v2.856H49.824V46.24H46.032v2.736h10.8v5.136h2.952V48.976h8.208Zm13.5-6.528-.336.1H70.5V41.68h9.872a14.535,14.535,0,0,1-3.36,5.632,15.189,15.189,0,0,1-3.056-5.536l-1.9.544a19.381,19.381,0,0,0,3.424,6.368A18.134,18.134,0,0,1,69.464,51.6a7.48,7.48,0,0,1,1.264,1.856,18.4,18.4,0,0,0,6.176-3.3,15.216,15.216,0,0,0,6.256,3.248A9.593,9.593,0,0,1,84.5,51.584a14.922,14.922,0,0,1-6.032-2.88,18.578,18.578,0,0,0,4.416-8.336ZM92.584,49.92c0-.608.608-.992,1.52-.992a4.94,4.94,0,0,1,1.28.176v.288c0,.944-.336,1.456-1.312,1.456C93.224,50.848,92.584,50.576,92.584,49.92Zm4.752-10.448H95.048a6.8,6.8,0,0,1,.112,1.056c0,.336.016.992.016,1.776-.368.016-.752.016-1.12.016a26.66,26.66,0,0,1-2.8-.144v1.9c.944.064,1.856.1,2.8.1.368,0,.752,0,1.136-.016.016,1.136.08,2.3.112,3.3a7.118,7.118,0,0,0-1.04-.064c-2.176,0-3.552,1.12-3.552,2.736,0,1.68,1.376,2.608,3.584,2.608,2.16,0,3.024-1.088,3.12-2.624a16.783,16.783,0,0,1,1.952,1.616l1.1-1.68a10.472,10.472,0,0,0-3.1-2.064c-.064-1.088-.144-2.368-.176-3.92.88-.064,1.712-.16,2.48-.272v-2a21.922,21.922,0,0,1-2.48.368c.016-.7.032-1.3.048-1.648A10.02,10.02,0,0,1,97.336,39.472Zm-7.808.176-2.208-.192a15.264,15.264,0,0,1-.16,1.568A50.67,50.67,0,0,0,86.5,47.7a18.793,18.793,0,0,0,.64,5.12l1.808-.144c-.016-.224-.032-.5-.032-.656a4.466,4.466,0,0,1,.08-.752c.192-.864.7-2.5,1.152-3.808l-.976-.8c-.24.544-.512,1.088-.72,1.648a7.562,7.562,0,0,1-.064-1.04,42.71,42.71,0,0,1,.768-6.192A10.388,10.388,0,0,1,89.528,39.648ZM102.032,52h11.9V49.024H110.1c-.84,0-2.016.1-2.9.192,3.24-3.168,5.9-6.624,5.9-9.84A5.21,5.21,0,0,0,107.5,33.9a7.129,7.129,0,0,0-5.64,2.688l1.92,1.92a4.647,4.647,0,0,1,3.264-1.824c1.7,0,2.664,1.08,2.664,2.88,0,2.736-2.856,6.072-7.68,10.392Zm20.784-5.76V42.592h4.152V46.24Zm15.312,0H129.92V42.592h6.336V39.928H129.92V37.072h6.888v-2.76h-13.56a15.322,15.322,0,0,0,.792-1.968l-2.9-.744a18.508,18.508,0,0,1-5.04,7.992,22.088,22.088,0,0,1,2.472,1.848,21.569,21.569,0,0,0,3.264-4.368h5.136v2.856H119.96V46.24h-3.792v2.736h10.8v5.136h2.952V48.976h8.208Z" transform="translate(371 4973)"/>
      <path id="Path_508" data-name="Path 508" d="M22.644,7.72A25.31,25.31,0,0,1,16.98,16.7a19.078,19.078,0,0,1,1.536,2.928,27.351,27.351,0,0,0,1.824-2.136V30.04h2.712V13.312a40.129,40.129,0,0,0,2.232-4.728Zm5.832,3.5h7.032V14.44H28.476ZM39.54,21.712V19.12H33.348V16.96h5.016V8.7h-12.6V16.96h4.7v2.16H24.18v2.592H29.1A17.241,17.241,0,0,1,23.316,26.9a11.786,11.786,0,0,1,1.968,2.28,19.246,19.246,0,0,0,5.184-5.16v6.072h2.88V23.9a19.818,19.818,0,0,0,4.872,5.328,12.15,12.15,0,0,1,2.016-2.28,18.062,18.062,0,0,1-5.5-5.232Zm9.792-13.3H42.564v2.16h6.768Zm-2.28,15.72v2.736h-2.3V24.136ZM49.5,21.88H42.348v8.184h2.4v-.936H49.5Zm-7.08-1.224h6.912V18.5H42.42Zm6.912-5.5H42.42V17.3h6.912Zm-8.04-1.176h8.9V11.728h-8.9Zm17.736,12.6V19.96H63.18V17.272H59.028V11.608H63.3V8.9H50.94v2.712h5.28V26.584H54.4V15.208H51.732V26.584H50.268v2.664H63.756V26.584ZM66.2,21.712a17.45,17.45,0,0,1-1.272,5.568,14.107,14.107,0,0,1,2.184,1.032,22.189,22.189,0,0,0,1.44-6.192Zm5.208.432A28.4,28.4,0,0,1,72.8,26.608l2.112-.768a26.461,26.461,0,0,0-1.488-4.32Zm3.912,4.344A40.014,40.014,0,0,1,84.348,30.3L86,28.072a47.417,47.417,0,0,0-9.024-3.6Zm2.592-4.272a21.694,21.694,0,0,1,4.92,2.808l1.656-1.992a24.616,24.616,0,0,0-4.968-2.616ZM82.932,12.4a14.874,14.874,0,0,1-2.088,2.712A16.719,16.719,0,0,1,78.756,12.4Zm1.944-2.544-.432.1H80.172c.336-.6.624-1.224.888-1.824l-2.784-.456a16.373,16.373,0,0,1-5.208,6.888,7.986,7.986,0,0,1,1.968,1.848,19.393,19.393,0,0,0,2.136-2.064A19.746,19.746,0,0,0,79,16.744a19.374,19.374,0,0,1-4.44,2.544A24.008,24.008,0,0,0,72.8,15.424l-1.9.792c.288.528.576,1.128.84,1.728l-2.3.1c1.512-1.944,3.168-4.368,4.488-6.456L71.6,10.5a43.526,43.526,0,0,1-2.136,3.888c-.24-.288-.5-.624-.816-.96.864-1.344,1.824-3.192,2.688-4.824L68.868,7.7a30.423,30.423,0,0,1-1.752,4.176c-.192-.168-.384-.336-.552-.48L65.2,13.336A23.551,23.551,0,0,1,68.028,16.6c-.384.552-.768,1.08-1.128,1.536l-1.728.072.24,2.472,3.48-.216v9.648h2.472V20.3l1.224-.1c.12.432.216.84.288,1.176l1.752-.792a7.263,7.263,0,0,1,.84,1.3,21.765,21.765,0,0,0,5.4-3.264A18.656,18.656,0,0,0,86.316,22a11.861,11.861,0,0,1,1.8-2.328,17.781,17.781,0,0,1-5.328-2.832,18.823,18.823,0,0,0,3.864-6Zm23.16-.7-.7.192H90.972V12.16h13.92a27.551,27.551,0,0,1-4.152,3.672H99.132V26.7c0,.408-.168.528-.7.528-.552.024-2.52.024-4.2-.072a12.106,12.106,0,0,1,1.128,2.928,16.863,16.863,0,0,0,5.208-.48c1.176-.432,1.584-1.2,1.584-2.856v-8.52a36.772,36.772,0,0,0,8.112-7.416Zm9.84-1.464a20.053,20.053,0,0,1-4.7,4.752,21.839,21.839,0,0,1,1.488,2.088A29.506,29.506,0,0,0,120.4,8.68Zm.432,5.112a20.472,20.472,0,0,1-5.352,6.168,17.335,17.335,0,0,1,1.488,2.664,21.248,21.248,0,0,0,1.872-1.776V30.136h2.664V16.648a32.161,32.161,0,0,0,1.824-2.9Zm7.008,9.408h4.656a10.687,10.687,0,0,1-2.3,2.352,10.958,10.958,0,0,1-2.376-2.328Zm6.6-2.232-.456.1h-4.344c.336-.456.648-.936.936-1.416,1.56-.048,3.192-.1,4.776-.168a13.853,13.853,0,0,1,.792,1.584l2.4-1.344a23.663,23.663,0,0,0-3.648-5.256L130.164,14.7c.408.48.816.984,1.2,1.536l-4.3.072a76.7,76.7,0,0,0,5.88-5.568l-2.52-1.392a43.064,43.064,0,0,1-3.864,4.248,18.046,18.046,0,0,0-1.368-1.2c1.008-1.008,2.184-2.3,3.216-3.528L125.94,7.6a26.183,26.183,0,0,1-2.568,3.456c-.456-.312-.912-.6-1.32-.864l-1.7,1.848a27.3,27.3,0,0,1,4.224,3.408c-.336.312-.7.624-1.032.912-1.368.024-2.616.024-3.7.024l.24,2.52,4.8-.144a15.492,15.492,0,0,1-5.352,4.44,16.633,16.633,0,0,1,1.848,2.112,23.216,23.216,0,0,0,2.16-1.488,13.074,13.074,0,0,0,1.9,2.088,20.749,20.749,0,0,1-5.9,1.872,9.282,9.282,0,0,1,1.368,2.424,23.456,23.456,0,0,0,6.792-2.568,19.441,19.441,0,0,0,6.624,2.52,10.671,10.671,0,0,1,1.7-2.448,21.535,21.535,0,0,1-5.976-1.752,13.109,13.109,0,0,0,3.648-5.184Zm15.96,4.9c0-.912.912-1.488,2.28-1.488a7.41,7.41,0,0,1,1.92.264v.432c0,1.416-.5,2.184-1.968,2.184C148.836,26.272,147.876,25.864,147.876,24.88ZM155,9.208h-3.432a10.192,10.192,0,0,1,.168,1.584c0,.5.024,1.488.024,2.664-.552.024-1.128.024-1.68.024a39.99,39.99,0,0,1-4.2-.216V16.12c1.416.1,2.784.144,4.2.144.552,0,1.128,0,1.7-.024.024,1.7.12,3.456.168,4.944a10.677,10.677,0,0,0-1.56-.1c-3.264,0-5.328,1.68-5.328,4.1,0,2.52,2.064,3.912,5.376,3.912,3.24,0,4.536-1.632,4.68-3.936a25.173,25.173,0,0,1,2.928,2.424l1.656-2.52a15.707,15.707,0,0,0-4.656-3.1c-.1-1.632-.216-3.552-.264-5.88,1.32-.1,2.568-.24,3.72-.408v-3a32.883,32.883,0,0,1-3.72.552c.024-1.056.048-1.944.072-2.472A15.032,15.032,0,0,1,155,9.208Zm-11.712.264-3.312-.288a22.9,22.9,0,0,1-.24,2.352,76,76,0,0,0-.984,10.008,28.189,28.189,0,0,0,.96,7.68l2.712-.216c-.024-.336-.048-.744-.048-.984a6.7,6.7,0,0,1,.12-1.128c.288-1.3,1.056-3.744,1.728-5.712l-1.464-1.2c-.36.816-.768,1.632-1.08,2.472a11.343,11.343,0,0,1-.1-1.56,64.066,64.066,0,0,1,1.152-9.288A15.582,15.582,0,0,1,143.292,9.472Zm34.416,9.7h-8.664V17.632h8.664ZM169.044,23.1v-1.56h8.664V23.1ZM183.18,13.24V10.552H171.468c.288-.744.528-1.488.768-2.232l-2.952-.672a23.944,23.944,0,0,1-.936,2.9h-6.456V13.24h5.256a18.638,18.638,0,0,1-5.976,7.008,16.085,16.085,0,0,1,1.872,2.184,17.591,17.591,0,0,0,3.168-2.808v10.44h2.832V25.48h8.664v1.44c0,.336-.144.456-.552.48-.408,0-1.8,0-3.024-.072a11.845,11.845,0,0,1,.864,2.76,10.571,10.571,0,0,0,4.248-.48c.984-.432,1.248-1.2,1.248-2.616V15.136H169.38a20.065,20.065,0,0,0,.96-1.9Zm21.648-.456V13.7H194.292v-.912Zm-2.376,3.36H196.6V15.136h5.856Zm-10.584-1.32h2.256v2.76h10.92v-2.76h2.328V10.816H204.8c.48-.624,1.056-1.368,1.632-2.184l-2.712-.744A18.8,18.8,0,0,1,202.4,10.6l.624.216H201.06V7.84h-2.784v2.976h-1.968l.768-.288a12.642,12.642,0,0,0-1.464-2.616l-2.16.744a11.724,11.724,0,0,1,1.152,2.16h-2.592c.336-.744.648-1.488.936-2.208l-2.712-.864a25.507,25.507,0,0,1-5.448,9A18.079,18.079,0,0,1,186.3,19.7a22.053,22.053,0,0,0,1.632-1.92V30.04h2.712V13.552c.432-.792.84-1.608,1.224-2.4Zm3.768,9.288h7.872v.816h-7.872Zm0-2.136h7.872v.84h-7.872Zm0-2.088h7.872V20.7h-7.872Zm10.584,6.576V18.376H193.068v8.088h3.144a27.109,27.109,0,0,1-5.112,1.752,9.647,9.647,0,0,1,1.584,1.872,21.6,21.6,0,0,0,6.024-2.448l-1.68-1.176h4.728l-1.392,1.368a30.2,30.2,0,0,1,5.376,2.3l2.208-1.68a37.01,37.01,0,0,0-5.088-1.992Zm7.344-18.72a27.179,27.179,0,0,1-4.752,9.264,22.437,22.437,0,0,1,1.368,3.072,19.184,19.184,0,0,0,1.512-2.016v12H214.4V13.072c.672-1.488,1.272-3.048,1.776-4.536Zm4.656,6.624a13.713,13.713,0,0,1,1.416,1.152,13.224,13.224,0,0,0,1.392-1.44,15.908,15.908,0,0,0,1.776,1.848A18.233,18.233,0,0,1,218.22,17.7Zm8.424-1.992a9.351,9.351,0,0,1-1.92,2.208,11.286,11.286,0,0,1-2.3-2.208Zm4.776,0v-2.3h-7.8a16.89,16.89,0,0,0,.768-1.8l-2.568-.6a14.59,14.59,0,0,1-3.6,5.592V10.72h-2.472V26.08h2.472V18.256a10.48,10.48,0,0,1,1.248,1.728,20.694,20.694,0,0,0,5.472-2.472,18.118,18.118,0,0,0,5.712,2.28,11.5,11.5,0,0,1,1.536-2.28,18.616,18.616,0,0,1-5.232-1.608,13.012,13.012,0,0,0,2.664-3.528Zm-4.008,8.5c-1.584,1.584-4.7,2.784-7.7,3.408a8.714,8.714,0,0,1,1.392,1.776c3.264-.84,6.456-2.28,8.352-4.344Zm-2.352-2.184a14.4,14.4,0,0,1-5.52,2.592,7.413,7.413,0,0,1,1.512,1.632,15.526,15.526,0,0,0,6.1-3.36Zm4.08,4.9c-2.064,2.256-6.216,3.552-10.632,4.152a9.947,9.947,0,0,1,1.44,2.256c4.9-.888,9.144-2.5,11.64-5.424Zm11.976-.984c-.768.264-1.56.5-2.352.744v-4.8h2.16V15.928h-2.16V11.7h2.568V9.04h-7.92V11.7h2.64v4.224h-2.424v2.616h2.424v5.64c-1.1.312-2.088.576-2.928.792l.648,2.9c2.3-.744,5.184-1.656,7.824-2.592Zm3.7-7.248h2.472v2.064h-2.472Zm0-4.248h2.472V13.12h-2.472Zm7.248,2.016h-2.376V11.1h2.376Zm0,4.3h-2.376V15.352h2.376Zm-2.112,9.336v-2.28h5.088V21.9h-5.088V19.84h4.824V8.68H242.244V19.84h4.8V21.9h-4.968v2.568h4.968v2.28H240.42v2.592h15.432V26.752Z" transform="translate(1097.5 4985)"/>
      <path id="Path_507" data-name="Path 507" d="M63.834,42.5a9,9,0,0,0,9.324-9.36c0-5.8-3.744-8.46-8.208-8.46a7,7,0,0,0-3.2.756l.5-5.652h9.684V15.324H57.678l-.72,12.96,2.412,1.584a6.374,6.374,0,0,1,4-1.4c2.7,0,4.5,1.728,4.5,4.824,0,3.132-1.944,4.9-4.716,4.9a8.281,8.281,0,0,1-5.868-2.7l-2.448,3.384A12.142,12.142,0,0,0,63.834,42.5ZM82.782,36.24V32.592h4.152V36.24Zm15.312,0H89.886V32.592h6.336V29.928H89.886V27.072h6.888v-2.76H83.214a15.322,15.322,0,0,0,.792-1.968L81.1,21.6a18.508,18.508,0,0,1-5.04,7.992,22.088,22.088,0,0,1,2.472,1.848A21.569,21.569,0,0,0,81.8,27.072h5.136v2.856H79.926V36.24H76.134v2.736h10.8v5.136h2.952V38.976h8.208Zm7.152-14.52A25.31,25.31,0,0,1,99.582,30.7a19.078,19.078,0,0,1,1.536,2.928,27.35,27.35,0,0,0,1.824-2.136V44.04h2.712V27.312a40.128,40.128,0,0,0,2.232-4.728Zm5.832,3.5h7.032V28.44h-7.032Zm11.064,10.488V33.12H115.95V30.96h5.016V22.7h-12.6V30.96h4.7v2.16h-6.288v2.592h4.92a17.241,17.241,0,0,1-5.784,5.184,11.786,11.786,0,0,1,1.968,2.28,19.246,19.246,0,0,0,5.184-5.16v6.072h2.88V37.9a19.818,19.818,0,0,0,4.872,5.328,12.15,12.15,0,0,1,2.016-2.28,18.062,18.062,0,0,1-5.5-5.232Zm9.792-13.3h-6.768v2.16h6.768Zm-2.28,15.72v2.736h-2.3V38.136ZM132.1,35.88H124.95v8.184h2.4v-.936H132.1Zm-7.08-1.224h6.912V32.5h-6.912Zm6.912-5.5h-6.912V31.3h6.912Zm-8.04-1.176h8.9V25.728h-8.9Zm17.736,12.6V33.96h4.152V31.272H141.63V25.608H145.9V22.9h-12.36v2.712h5.28V40.584H137V29.208h-2.664V40.584H132.87v2.664h13.488V40.584ZM166.4,24.408a1.38,1.38,0,1,1,1.392,1.368A1.393,1.393,0,0,1,166.4,24.408Zm-1.488,0a2.658,2.658,0,0,0,.048.456,10.355,10.355,0,0,1-1.368.1H152.478a26.722,26.722,0,0,1-2.856-.192v3.384c.6-.048,1.752-.1,2.856-.1h11.16a15.082,15.082,0,0,1-2.808,6.768,15.733,15.733,0,0,1-9.408,5.64l2.616,2.88a19.276,19.276,0,0,0,9.648-6.648c2.016-2.664,3.048-6.384,3.6-8.736.072-.216.12-.456.192-.72a1.368,1.368,0,0,0,.312.024,2.868,2.868,0,1,0-2.88-2.856Zm11.544-.816v3.1c.7-.048,1.728-.072,2.5-.072h9.192c.864,0,1.992.024,2.64.072v-3.1a22.627,22.627,0,0,1-2.592.12h-9.24A20.231,20.231,0,0,1,176.454,23.592Zm16.344,6.96-2.136-1.32a5.063,5.063,0,0,1-1.752.24H177.03c-.744,0-1.776-.072-2.784-.144v3.12c1.008-.1,2.208-.12,2.784-.12h11.592a10.412,10.412,0,0,1-2.472,4.152,16.188,16.188,0,0,1-8.3,4.2l2.376,2.712a17.972,17.972,0,0,0,8.568-5.184,17.248,17.248,0,0,0,3.552-6.648A8.891,8.891,0,0,1,192.8,30.552Zm8.088-6.792-2.256,2.4a49.9,49.9,0,0,1,6,5.184l2.448-2.5A48.472,48.472,0,0,0,200.886,23.76Zm-3,15.984,2.016,3.168a25.991,25.991,0,0,0,8.9-3.384,25.52,25.52,0,0,0,8.88-8.88l-1.872-3.384a22.6,22.6,0,0,1-8.736,9.336A24.736,24.736,0,0,1,197.886,39.744Z" transform="translate(598.5 4973)" fill="#fff"/>
    </g>
    <g id="Group_430-3" data-name="Group 430" transform="translate(-0.5 -55)">
      <g id="Group_427-3" data-name="Group 427" opacity="0.67">
        <rect id="Rectangle_174-7" data-name="Rectangle 174" width="1160" height="80" transform="translate(360 4964)" fill="#fff"/>
        <path id="Polygon_7-7" data-name="Polygon 7" d="M75.75,0,101,40,75.75,80H25.25L0,40,25.25,0Z" transform="translate(1459 4964)" fill="#fff"/>
      </g>
      <g id="Group_429-3" data-name="Group 429">
        <rect id="Rectangle_174-8" data-name="Rectangle 174" width="174" height="80" transform="translate(360 4964)" fill="#a6b7c9"/>
        <path id="Polygon_7-8" data-name="Polygon 7" d="M75.75,0,101,40,75.75,80H25.25L0,40,25.25,0Z" transform="translate(473 4964)" fill="#a6b7c9"/>
      </g>
      <path id="Path_506" data-name="Path 506" d="M49.96,7.352,48.488,6.84a9.178,9.178,0,0,1-.32,1.184,17.9,17.9,0,0,1-2.176,4.368c-1.264-.976-3.12-2.288-4.5-3.168l-.832,1.008a50.057,50.057,0,0,1,4.512,3.232,17.764,17.764,0,0,1-6.352,5.024l1.1,1.008A20.384,20.384,0,0,0,46.2,14.328a35.684,35.684,0,0,1,3.776,3.68l1.008-1.1a40.041,40.041,0,0,0-3.952-3.664,22.288,22.288,0,0,0,2.4-4.72A8.634,8.634,0,0,1,49.96,7.352Zm4.672,4.72V13.64c.5-.048,1.344-.08,2.224-.08H65.64c.72,0,1.392.064,1.712.08V12.072c-.352.032-.928.08-1.728.08H56.856C55.96,12.152,55.112,12.1,54.632,12.072Zm22.5-5.664h-1.5a9.7,9.7,0,0,1,.112,1.328c0,.576-.032,1.12-.064,1.632H72.856a16.746,16.746,0,0,1-1.824-.1v1.36a17.073,17.073,0,0,1,1.84-.064H75.56A10.288,10.288,0,0,1,72.392,17.3a7.886,7.886,0,0,1-1.648,1.184l1.168.944c2.672-1.84,4.336-4.272,4.912-8.864H81.3c0,1.712-.208,5.648-.816,6.864a.866.866,0,0,1-.928.528,19.466,19.466,0,0,1-2.384-.176l.16,1.328c.832.048,1.76.112,2.576.112a1.661,1.661,0,0,0,1.712-.976c.72-1.536.912-6.192.976-7.728a5,5,0,0,1,.08-.784l-.9-.448a5.766,5.766,0,0,1-1.024.08H76.952c.032-.528.064-1.072.08-1.648C77.048,7.336,77.08,6.776,77.128,6.408Zm9.5,5.664V13.64c.5-.048,1.344-.08,2.224-.08H97.64c.72,0,1.392.064,1.712.08V12.072c-.352.032-.928.08-1.728.08H88.856C87.96,12.152,87.112,12.1,86.632,12.072Zm18.816-6.416a17.965,17.965,0,0,1-4.032,6.3,9.715,9.715,0,0,1,.672,1.152,17.29,17.29,0,0,0,1.712-2.048v9.12h1.136V9.32a23.768,23.768,0,0,0,1.632-3.328Zm2.768,1.776h5.936V10.36h-5.936Zm8,7.056V13.4h-4.48V11.416h3.6V6.36H107.1v5.056h3.456V13.4h-4.64v1.088h3.952a11.851,11.851,0,0,1-4.416,4.1,5.86,5.86,0,0,1,.832.944,13.372,13.372,0,0,0,4.272-4.256v4.96h1.184V15.224a14.736,14.736,0,0,0,4.048,4.336,5.391,5.391,0,0,1,.848-.944,12.467,12.467,0,0,1-4.208-4.128Zm6.672-8.32H118.52v.96h4.368Zm.56,2.128h-5.776v.976h5.776ZM122.9,10.5h-4.48v.944h4.48Zm-4.48,3.12h4.48V12.68h-4.48Zm3.5,2.208v2.656h-2.5V15.832Zm1.04-.976h-4.576V20.2h1.04v-.72h3.536Zm5.872,3.68V13.224h3.168V12.1H128.84V7.7H132.1V6.6h-8.128V7.7h3.712V18.536h-1.92V10.584h-1.12v7.952h-1.2v1.136h8.912V18.536ZM32.832,52h10.68V49.144H40.176V34.216H37.56a11.08,11.08,0,0,1-4.128,1.512v2.184h3.216V49.144H32.832ZM52.68,46.24V42.592h4.152V46.24Zm15.312,0H59.784V42.592H66.12V39.928H59.784V37.072h6.888v-2.76H53.112a15.322,15.322,0,0,0,.792-1.968L51,31.6a18.508,18.508,0,0,1-5.04,7.992,22.088,22.088,0,0,1,2.472,1.848A21.568,21.568,0,0,0,51.7,37.072h5.136v2.856H49.824V46.24H46.032v2.736h10.8v5.136h2.952V48.976h8.208Zm13.5-6.528-.336.1H70.5V41.68h9.872a14.535,14.535,0,0,1-3.36,5.632,15.189,15.189,0,0,1-3.056-5.536l-1.9.544a19.381,19.381,0,0,0,3.424,6.368A18.134,18.134,0,0,1,69.464,51.6a7.48,7.48,0,0,1,1.264,1.856,18.4,18.4,0,0,0,6.176-3.3,15.216,15.216,0,0,0,6.256,3.248A9.593,9.593,0,0,1,84.5,51.584a14.922,14.922,0,0,1-6.032-2.88,18.578,18.578,0,0,0,4.416-8.336ZM92.584,49.92c0-.608.608-.992,1.52-.992a4.94,4.94,0,0,1,1.28.176v.288c0,.944-.336,1.456-1.312,1.456C93.224,50.848,92.584,50.576,92.584,49.92Zm4.752-10.448H95.048a6.8,6.8,0,0,1,.112,1.056c0,.336.016.992.016,1.776-.368.016-.752.016-1.12.016a26.66,26.66,0,0,1-2.8-.144v1.9c.944.064,1.856.1,2.8.1.368,0,.752,0,1.136-.016.016,1.136.08,2.3.112,3.3a7.118,7.118,0,0,0-1.04-.064c-2.176,0-3.552,1.12-3.552,2.736,0,1.68,1.376,2.608,3.584,2.608,2.16,0,3.024-1.088,3.12-2.624a16.783,16.783,0,0,1,1.952,1.616l1.1-1.68a10.472,10.472,0,0,0-3.1-2.064c-.064-1.088-.144-2.368-.176-3.92.88-.064,1.712-.16,2.48-.272v-2a21.922,21.922,0,0,1-2.48.368c.016-.7.032-1.3.048-1.648A10.02,10.02,0,0,1,97.336,39.472Zm-7.808.176-2.208-.192a15.264,15.264,0,0,1-.16,1.568A50.67,50.67,0,0,0,86.5,47.7a18.793,18.793,0,0,0,.64,5.12l1.808-.144c-.016-.224-.032-.5-.032-.656a4.466,4.466,0,0,1,.08-.752c.192-.864.7-2.5,1.152-3.808l-.976-.8c-.24.544-.512,1.088-.72,1.648a7.562,7.562,0,0,1-.064-1.04,42.71,42.71,0,0,1,.768-6.192A10.388,10.388,0,0,1,89.528,39.648ZM102.032,52h11.9V49.024H110.1c-.84,0-2.016.1-2.9.192,3.24-3.168,5.9-6.624,5.9-9.84A5.21,5.21,0,0,0,107.5,33.9a7.129,7.129,0,0,0-5.64,2.688l1.92,1.92a4.647,4.647,0,0,1,3.264-1.824c1.7,0,2.664,1.08,2.664,2.88,0,2.736-2.856,6.072-7.68,10.392Zm20.784-5.76V42.592h4.152V46.24Zm15.312,0H129.92V42.592h6.336V39.928H129.92V37.072h6.888v-2.76h-13.56a15.322,15.322,0,0,0,.792-1.968l-2.9-.744a18.508,18.508,0,0,1-5.04,7.992,22.088,22.088,0,0,1,2.472,1.848,21.569,21.569,0,0,0,3.264-4.368h5.136v2.856H119.96V46.24h-3.792v2.736h10.8v5.136h2.952V48.976h8.208Z" transform="translate(371 4973)"/>
      <path id="Path_505" data-name="Path 505" d="M73.232,10.36,69.656,9.112a14.968,14.968,0,0,1-.576,2.208,24.888,24.888,0,0,1-2.664,5.712c-1.944-1.44-4.464-3.168-6.384-4.344l-2.04,2.448a65.985,65.985,0,0,1,6.48,4.56,26.411,26.411,0,0,1-9.12,7.08L58.04,29.2a30,30,0,0,0,8.928-7.416,48.326,48.326,0,0,1,5.328,5.3l2.472-2.736a62.844,62.844,0,0,0-5.76-5.3,36.247,36.247,0,0,0,3.216-6.528C72.464,11.968,72.92,10.912,73.232,10.36Zm5.976,6.528v3.768c.888-.072,2.5-.12,3.864-.12H95.96c1.008,0,2.232.1,2.808.12V16.888c-.624.048-1.68.144-2.808.144H83.072C81.824,17.032,80.072,16.96,79.208,16.888Zm34.56-8.136H110.24a17.762,17.762,0,0,1,.168,2.208c0,.72-.024,1.416-.048,2.088h-3.432c-.912,0-2.16-.072-3.168-.168v3.144c1.032-.1,2.352-.1,3.168-.1H110.1a14.114,14.114,0,0,1-3.96,8.544,14.3,14.3,0,0,1-3.144,2.352l2.784,2.256c4.3-3.048,6.576-6.816,7.464-13.152h5.4c0,2.592-.312,7.392-1.008,8.9a1.277,1.277,0,0,1-1.368.84,19.864,19.864,0,0,1-3.36-.336l.384,3.216c1.152.1,2.592.192,3.96.192a2.955,2.955,0,0,0,3.1-1.848c1.032-2.448,1.32-9.144,1.416-11.736a9.813,9.813,0,0,1,.168-1.272L119.84,12.88a11.155,11.155,0,0,1-1.8.168h-4.512c.048-.7.072-1.416.1-2.16C113.648,10.312,113.7,9.3,113.768,8.752Zm13.44,8.136v3.768c.888-.072,2.5-.12,3.864-.12H143.96c1.008,0,2.232.1,2.808.12V16.888c-.624.048-1.68.144-2.808.144H131.072C129.824,17.032,128.072,16.96,127.208,16.888ZM155.144,7.72A25.31,25.31,0,0,1,149.48,16.7a19.077,19.077,0,0,1,1.536,2.928,27.35,27.35,0,0,0,1.824-2.136V30.04h2.712V13.312a40.128,40.128,0,0,0,2.232-4.728Zm5.832,3.5h7.032V14.44h-7.032ZM172.04,21.712V19.12h-6.192V16.96h5.016V8.7h-12.6V16.96h4.7v2.16H156.68v2.592h4.92a17.241,17.241,0,0,1-5.784,5.184,11.785,11.785,0,0,1,1.968,2.28,19.246,19.246,0,0,0,5.184-5.16v6.072h2.88V23.9a19.818,19.818,0,0,0,4.872,5.328,12.15,12.15,0,0,1,2.016-2.28,18.062,18.062,0,0,1-5.5-5.232Zm9.792-13.3h-6.768v2.16h6.768Zm-2.28,15.72v2.736h-2.3V24.136ZM182,21.88h-7.152v8.184h2.4v-.936H182Zm-7.08-1.224h6.912V18.5H174.92Zm6.912-5.5H174.92V17.3h6.912Zm-8.04-1.176h8.9V11.728h-8.9Zm17.736,12.6V19.96h4.152V17.272h-4.152V11.608H195.8V8.9H183.44v2.712h5.28V26.584H186.9V15.208h-2.664V26.584h-1.464v2.664h13.488V26.584Zm7.176-4.872a17.45,17.45,0,0,1-1.272,5.568,14.107,14.107,0,0,1,2.184,1.032,22.19,22.19,0,0,0,1.44-6.192Zm5.208.432a28.4,28.4,0,0,1,1.392,4.464l2.112-.768a26.459,26.459,0,0,0-1.488-4.32Zm3.912,4.344a40.014,40.014,0,0,1,9.024,3.816l1.656-2.232a47.417,47.417,0,0,0-9.024-3.6Zm2.592-4.272a21.694,21.694,0,0,1,4.92,2.808l1.656-1.992a24.615,24.615,0,0,0-4.968-2.616Zm5.016-9.816a14.874,14.874,0,0,1-2.088,2.712,16.719,16.719,0,0,1-2.088-2.712Zm1.944-2.544-.432.1h-4.272c.336-.6.624-1.224.888-1.824l-2.784-.456a16.373,16.373,0,0,1-5.208,6.888,7.986,7.986,0,0,1,1.968,1.848,19.392,19.392,0,0,0,2.136-2.064,19.746,19.746,0,0,0,1.824,2.4,19.374,19.374,0,0,1-4.44,2.544,24.008,24.008,0,0,0-1.752-3.864l-1.9.792c.288.528.576,1.128.84,1.728l-2.3.1c1.512-1.944,3.168-4.368,4.488-6.456L204.1,10.5a43.526,43.526,0,0,1-2.136,3.888c-.24-.288-.5-.624-.816-.96.864-1.344,1.824-3.192,2.688-4.824L201.368,7.7a30.423,30.423,0,0,1-1.752,4.176c-.192-.168-.384-.336-.552-.48L197.7,13.336a23.552,23.552,0,0,1,2.832,3.264c-.384.552-.768,1.08-1.128,1.536l-1.728.072.24,2.472,3.48-.216v9.648h2.472V20.3l1.224-.1c.12.432.216.84.288,1.176l1.752-.792a7.262,7.262,0,0,1,.84,1.3,21.765,21.765,0,0,0,5.4-3.264A18.656,18.656,0,0,0,218.816,22a11.861,11.861,0,0,1,1.8-2.328,17.781,17.781,0,0,1-5.328-2.832,18.823,18.823,0,0,0,3.864-6Zm23.16-.7-.7.192H223.472V12.16h13.92a27.551,27.551,0,0,1-4.152,3.672h-1.608V26.7c0,.408-.168.528-.7.528-.552.024-2.52.024-4.2-.072a12.105,12.105,0,0,1,1.128,2.928,16.863,16.863,0,0,0,5.208-.48c1.176-.432,1.584-1.2,1.584-2.856v-8.52a36.772,36.772,0,0,0,8.112-7.416Zm9.84-1.464a20.053,20.053,0,0,1-4.7,4.752,21.839,21.839,0,0,1,1.488,2.088A29.505,29.505,0,0,0,252.9,8.68Zm.432,5.112a20.472,20.472,0,0,1-5.352,6.168,17.335,17.335,0,0,1,1.488,2.664,21.248,21.248,0,0,0,1.872-1.776V30.136h2.664V16.648a32.158,32.158,0,0,0,1.824-2.9Zm7.008,9.408h4.656a10.686,10.686,0,0,1-2.3,2.352,10.959,10.959,0,0,1-2.376-2.328Zm6.6-2.232-.456.1h-4.344c.336-.456.648-.936.936-1.416,1.56-.048,3.192-.1,4.776-.168a13.853,13.853,0,0,1,.792,1.584l2.4-1.344a23.663,23.663,0,0,0-3.648-5.256L262.664,14.7c.408.48.816.984,1.2,1.536l-4.3.072a76.695,76.695,0,0,0,5.88-5.568l-2.52-1.392a43.061,43.061,0,0,1-3.864,4.248,18.046,18.046,0,0,0-1.368-1.2c1.008-1.008,2.184-2.3,3.216-3.528L258.44,7.6a26.18,26.18,0,0,1-2.568,3.456c-.456-.312-.912-.6-1.32-.864l-1.7,1.848a27.3,27.3,0,0,1,4.224,3.408c-.336.312-.7.624-1.032.912-1.368.024-2.616.024-3.7.024l.24,2.52,4.8-.144a15.492,15.492,0,0,1-5.352,4.44,16.634,16.634,0,0,1,1.848,2.112,23.216,23.216,0,0,0,2.16-1.488,13.073,13.073,0,0,0,1.9,2.088,20.749,20.749,0,0,1-5.9,1.872,9.282,9.282,0,0,1,1.368,2.424,23.455,23.455,0,0,0,6.792-2.568,19.441,19.441,0,0,0,6.624,2.52,10.672,10.672,0,0,1,1.7-2.448,21.535,21.535,0,0,1-5.976-1.752,13.11,13.11,0,0,0,3.648-5.184Zm15.96,4.9c0-.912.912-1.488,2.28-1.488a7.409,7.409,0,0,1,1.92.264v.432c0,1.416-.5,2.184-1.968,2.184C281.336,26.272,280.376,25.864,280.376,24.88ZM287.5,9.208h-3.432a10.19,10.19,0,0,1,.168,1.584c0,.5.024,1.488.024,2.664-.552.024-1.128.024-1.68.024a39.991,39.991,0,0,1-4.2-.216V16.12c1.416.1,2.784.144,4.2.144.552,0,1.128,0,1.7-.024.024,1.7.12,3.456.168,4.944a10.677,10.677,0,0,0-1.56-.1c-3.264,0-5.328,1.68-5.328,4.1,0,2.52,2.064,3.912,5.376,3.912,3.24,0,4.536-1.632,4.68-3.936a25.172,25.172,0,0,1,2.928,2.424l1.656-2.52a15.707,15.707,0,0,0-4.656-3.1c-.1-1.632-.216-3.552-.264-5.88,1.32-.1,2.568-.24,3.72-.408v-3a32.883,32.883,0,0,1-3.72.552c.024-1.056.048-1.944.072-2.472A15.036,15.036,0,0,1,287.5,9.208Zm-11.712.264-3.312-.288a22.9,22.9,0,0,1-.24,2.352,76.011,76.011,0,0,0-.984,10.008,28.189,28.189,0,0,0,.96,7.68l2.712-.216c-.024-.336-.048-.744-.048-.984A6.7,6.7,0,0,1,275,26.9c.288-1.3,1.056-3.744,1.728-5.712l-1.464-1.2c-.36.816-.768,1.632-1.08,2.472a11.346,11.346,0,0,1-.1-1.56,64.068,64.068,0,0,1,1.152-9.288A15.588,15.588,0,0,1,275.792,9.472Zm34.416,9.7h-8.664V17.632h8.664ZM301.544,23.1v-1.56h8.664V23.1ZM315.68,13.24V10.552H303.968c.288-.744.528-1.488.768-2.232l-2.952-.672a23.942,23.942,0,0,1-.936,2.9h-6.456V13.24h5.256a18.638,18.638,0,0,1-5.976,7.008,16.086,16.086,0,0,1,1.872,2.184,17.59,17.59,0,0,0,3.168-2.808v10.44h2.832V25.48h8.664v1.44c0,.336-.144.456-.552.48-.408,0-1.8,0-3.024-.072a11.845,11.845,0,0,1,.864,2.76,10.571,10.571,0,0,0,4.248-.48c.984-.432,1.248-1.2,1.248-2.616V15.136H301.88a20.068,20.068,0,0,0,.96-1.9Zm21.648-.456V13.7H326.792v-.912Zm-2.376,3.36H329.1V15.136h5.856Zm-10.584-1.32h2.256v2.76h10.92v-2.76h2.328V10.816H337.3c.48-.624,1.056-1.368,1.632-2.184l-2.712-.744A18.8,18.8,0,0,1,334.9,10.6l.624.216H333.56V7.84h-2.784v2.976h-1.968l.768-.288a12.642,12.642,0,0,0-1.464-2.616l-2.16.744a11.724,11.724,0,0,1,1.152,2.16h-2.592c.336-.744.648-1.488.936-2.208l-2.712-.864a25.507,25.507,0,0,1-5.448,9A18.076,18.076,0,0,1,318.8,19.7a22.056,22.056,0,0,0,1.632-1.92V30.04h2.712V13.552c.432-.792.84-1.608,1.224-2.4Zm3.768,9.288h7.872v.816h-7.872Zm0-2.136h7.872v.84h-7.872Zm0-2.088h7.872V20.7h-7.872Zm10.584,6.576V18.376H325.568v8.088h3.144a27.109,27.109,0,0,1-5.112,1.752,9.647,9.647,0,0,1,1.584,1.872,21.6,21.6,0,0,0,6.024-2.448l-1.68-1.176h4.728l-1.392,1.368a30.2,30.2,0,0,1,5.376,2.3l2.208-1.68a37.011,37.011,0,0,0-5.088-1.992Zm7.344-18.72a27.18,27.18,0,0,1-4.752,9.264,22.438,22.438,0,0,1,1.368,3.072,19.182,19.182,0,0,0,1.512-2.016v12H346.9V13.072c.672-1.488,1.272-3.048,1.776-4.536Zm4.656,6.624a13.713,13.713,0,0,1,1.416,1.152,13.224,13.224,0,0,0,1.392-1.44,15.905,15.905,0,0,0,1.776,1.848A18.234,18.234,0,0,1,350.72,17.7Zm8.424-1.992a9.351,9.351,0,0,1-1.92,2.208,11.285,11.285,0,0,1-2.3-2.208Zm4.776,0v-2.3h-7.8a16.893,16.893,0,0,0,.768-1.8l-2.568-.6a14.591,14.591,0,0,1-3.6,5.592V10.72h-2.472V26.08h2.472V18.256a10.477,10.477,0,0,1,1.248,1.728,20.693,20.693,0,0,0,5.472-2.472,18.117,18.117,0,0,0,5.712,2.28,11.5,11.5,0,0,1,1.536-2.28,18.616,18.616,0,0,1-5.232-1.608,13.012,13.012,0,0,0,2.664-3.528Zm-4.008,8.5c-1.584,1.584-4.7,2.784-7.7,3.408a8.714,8.714,0,0,1,1.392,1.776c3.264-.84,6.456-2.28,8.352-4.344Zm-2.352-2.184a14.4,14.4,0,0,1-5.52,2.592,7.413,7.413,0,0,1,1.512,1.632,15.526,15.526,0,0,0,6.1-3.36Zm4.08,4.9c-2.064,2.256-6.216,3.552-10.632,4.152a9.948,9.948,0,0,1,1.44,2.256c4.9-.888,9.144-2.5,11.64-5.424Zm11.976-.984c-.768.264-1.56.5-2.352.744v-4.8h2.16V15.928h-2.16V11.7h2.568V9.04h-7.92V11.7h2.64v4.224h-2.424v2.616h2.424v5.64c-1.1.312-2.088.576-2.928.792l.648,2.9c2.3-.744,5.184-1.656,7.824-2.592Zm3.7-7.248h2.472v2.064h-2.472Zm0-4.248h2.472V13.12h-2.472Zm7.248,2.016h-2.376V11.1h2.376Zm0,4.3h-2.376V15.352h2.376Zm-2.112,9.336v-2.28h5.088V21.9h-5.088V19.84h4.824V8.68H374.744V19.84h4.8V21.9h-4.968v2.568h4.968v2.28H372.92v2.592h15.432V26.752Z" transform="translate(840.5 4986)"/>
    </g>
    <path id="Path_504" data-name="Path 504" d="M2.768,13.3c.144-.72.272-1.5.4-2.256H7.984V6.28H1.6V7.4H6.816V9.928H2.144c-.224,1.616-.608,3.728-.928,5.056l1.168.192c.048-.24.112-.5.176-.768H6.768c-.208,2.88-.48,4.112-.864,4.448a.929.929,0,0,1-.7.176c-.4,0-1.456-.016-2.512-.112A2.7,2.7,0,0,1,3.1,20.136a23.286,23.286,0,0,0,2.528.032A1.543,1.543,0,0,0,6.9,19.656c.576-.544.848-2.032,1.136-5.808.016-.16.032-.544.032-.544Zm9.584-7.52V20.216h1.184V5.784ZM20.9,7.464A10.181,10.181,0,0,0,18.224,5.8l-.656.864a11.144,11.144,0,0,1,2.624,1.744Zm-.816,4.128a11.982,11.982,0,0,0-2.752-1.584l-.672.88a11.666,11.666,0,0,1,2.736,1.68Zm-.688,2.56A44.51,44.51,0,0,1,16.88,19.3l1.072.7c.784-1.5,1.712-3.472,2.4-5.168Zm8.9-3.216v1.52h-2.96v-1.52Zm-5.792,0h1.792V13.4h5.088V10.936h1.888V9.96H29.376V8.68H28.288V9.96h-2.96V8.68h-1.04V9.96H22.5V8.248h8.656V7.224h-4.16v-1.6H25.808v1.6H21.36v4.288c0,2.4-.144,5.744-1.744,8.1a4.03,4.03,0,0,1,.992.576c1.648-2.464,1.888-6.112,1.888-8.672Zm6.384,4.352a6.6,6.6,0,0,1-2.08,2.128,6.238,6.238,0,0,1-1.872-2.128Zm.832-1.024-.208.048H22.912v.976h1.7l-.752.224a8.088,8.088,0,0,0,1.984,2.48,13.266,13.266,0,0,1-3.728,1.232,3.924,3.924,0,0,1,.576.96,14.661,14.661,0,0,0,4.08-1.5A11.77,11.77,0,0,0,30.72,20.2a3.954,3.954,0,0,1,.72-.976,11.71,11.71,0,0,1-3.68-1.2,7.857,7.857,0,0,0,2.672-3.44Zm6.368,3.568V13.368h7.936v4.464ZM44.016,7.88V12.2H36.08V7.88ZM34.88,6.712V20.04h1.2V19h7.936v.976h1.248V6.712ZM4.8,33.24H2.416V31.208H4.8Zm0,2.976H2.416V34.168H4.8Zm0,3.024H2.416V37.16H4.8Zm1.072-9.024h-4.5v10h4.5ZM2.16,40.552a7.018,7.018,0,0,1-1.6,3.04,8.05,8.05,0,0,1,.9.64,9.581,9.581,0,0,0,1.776-3.44Zm2,.384a13.326,13.326,0,0,1,1.28,2.512L6.384,43a13.462,13.462,0,0,0-1.328-2.464Zm7.056-.256v-1.2h2.048v1.2Zm-3.008-1.2H10.16v1.2H8.208Zm1.952-1.968v1.136H8.208V37.512Zm3.1,0v1.136H11.216V37.512ZM9.52,33.736h2.368v1.056H9.52Zm0-1.84h2.368v.96H9.52Zm5.792,8.784h-.96V36.616H11.216v-.928h4.032v-.9H12.96V33.736h1.7v-.88h-1.7V31.9h1.952V31H12.96V29.624H11.888V31H9.52V29.624H8.464V31H6.528v.9H8.464v.96H6.944v.88h1.52v1.056H6.16v.9h4v.928H7.136V40.68H6.1v.912h1.04v2.64H8.208v-2.64h5.056v1.392c0,.208-.08.256-.272.272-.224,0-.992,0-1.824-.016a3.821,3.821,0,0,1,.336.96,8.277,8.277,0,0,0,2.32-.16c.4-.176.528-.48.528-1.056V41.592h.96Zm4.368-10.1v1.184h3.936c.032.608.1,1.312.208,2.048l-.7-.112c-.976,4.48-2.944,7.7-6.48,9.536a7.787,7.787,0,0,1,1.072.944c3.184-1.872,5.2-4.784,6.384-8.928a13.807,13.807,0,0,0,6.352,8.912,5.654,5.654,0,0,1,.96-.992c-6.272-3.728-6.64-9.76-6.64-12.592Zm16.4,11.248V37.368h7.936v4.464Zm7.936-9.952V36.2H36.08V31.88ZM34.88,30.712V44.04h1.2V43h7.936v.976h1.248V30.712Z" transform="translate(335 4839.5)" fill="#fff"/>
  </g>
</svg>
