<svg id="b" xmlns="http://www.w3.org/2000/svg" width="62.173" height="49.216" viewBox="0 0 62.173 49.216">
  <g id="c" transform="translate(1 1)">
    <g id="Group_273" data-name="Group 273">
      <g id="Group_271" data-name="Group 271" transform="translate(18.327)">
        <path id="Path_176" data-name="Path 176" d="M27.2,28.9a17.664,17.664,0,0,1,2.658-5.246A30.348,30.348,0,0,1,34.335,18.2" transform="translate(-27.2 -6.169)" fill="none" stroke="#bb1c21" stroke-linecap="round" stroke-linejoin="round" stroke-width="2"/>
        <path id="Path_177" data-name="Path 177" d="M69.719,18.2a42.116,42.116,0,0,1,4.267,5.456c3.008,4.267,5.176,10.213-.28,14.2-5.456,3.917-9.513,5.176-17.7,5.176H54.4" transform="translate(-35.374 -6.169)" fill="none" stroke="#bb1c21" stroke-linecap="round" stroke-linejoin="round" stroke-width="2"/>
        <path id="Path_178" data-name="Path 178" d="M64.4,9.184a23.223,23.223,0,0,0-8.534-4.337V3.238A2.254,2.254,0,0,0,53.63,1a2.21,2.21,0,0,0-2.238,2.238v.979h-2.1V3.238a2.238,2.238,0,0,0-4.477,0V4.917a20.47,20.47,0,0,0-8.534,4.337,2.2,2.2,0,0,0-.21,3.078,2.285,2.285,0,0,0,3.148.21,17.748,17.748,0,0,1,22.244,0,2.257,2.257,0,0,0,1.469.56,2.351,2.351,0,0,0,1.679-.769,2.362,2.362,0,0,0-.21-3.148Z" transform="translate(-29.707 -1)" fill="none" stroke="#bb1c21" stroke-linecap="round" stroke-linejoin="round" stroke-width="2"/>
      </g>
      <g id="Group_272" data-name="Group 272" transform="translate(0 22.734)">
        <path id="Path_179" data-name="Path 179" d="M4.777,33.5H34.436a3.762,3.762,0,0,1,3.777,3.777V54.205a3.762,3.762,0,0,1-3.777,3.777H4.777A3.762,3.762,0,0,1,1,54.205V37.277A3.762,3.762,0,0,1,4.777,33.5Z" transform="translate(-1 -33.5)" fill="none" stroke="#bb1c21" stroke-linecap="round" stroke-linejoin="round" stroke-width="2"/>
        <line id="Line_110" data-name="Line 110" x2="36.234" transform="translate(0.07 5.876)" fill="none" stroke="#bb1c21" stroke-linecap="round" stroke-linejoin="round" stroke-width="2"/>
        <path id="Path_180" data-name="Path 180" d="M8.369,48.8h2.518a1.478,1.478,0,0,1,1.469,1.469v1.4a1.478,1.478,0,0,1-1.469,1.469H8.369A1.478,1.478,0,0,1,6.9,51.668v-1.4A1.478,1.478,0,0,1,8.369,48.8Z" transform="translate(-2.773 -38.098)" fill="none" stroke="#bb1c21" stroke-linecap="round" stroke-linejoin="round" stroke-width="2"/>
      </g>
    </g>
  </g>
</svg>
