<svg xmlns="http://www.w3.org/2000/svg" width="97.939" height="189.078" viewBox="0 0 97.939 189.078">
  <g id="b" transform="translate(0.001 0.009)">
    <g id="c" transform="translate(-0.001 -0.009)">
      <g id="Group_148" data-name="Group 148">
        <path id="Path_81" data-name="Path 81" d="M19.47,47.026c-.909-1.924-4.71-7.355-5.224-15.478S24.761.391,50.046,0s36.635,18.7,38.7,34.571.581,20.061-.648,23.8-7.936,11.8-14.77,15.285-13.22,5.291-28.511,5.03-26.38-2.712-29.347-11.1-.387-12,.9-14.062,4.583-3.36,3.093-6.513Z" transform="translate(-4.679 0.009)" fill="#b2b2b2"/>
        <path id="Path_82" data-name="Path 82" d="M65.4,114.638l-1.423,7.135H76.8l-1.049-7.883Z" transform="translate(-21.239 -37.802)" fill="#f9dacd"/>
        <path id="Path_83" data-name="Path 83" d="M33.92,46.093S55.4,35.5,69.072,20.28" transform="translate(-11.26 -6.727)" fill="none" stroke="#8b8d8e" stroke-linecap="round" stroke-linejoin="round" stroke-width="1.3"/>
        <path id="Path_84" data-name="Path 84" d="M51.59,46.919s24-11.1,30.248-22.379" transform="translate(-17.126 -8.141)" fill="none" stroke="#8b8d8e" stroke-linecap="round" stroke-linejoin="round" stroke-width="1.3"/>
        <path id="Path_85" data-name="Path 85" d="M29.752,61.9a28.2,28.2,0,0,0,.214-3.7,2.356,2.356,0,0,1,2.4-2.4c1.59-.127,34.27-1.55,45.192-15.011a31.85,31.85,0,0,1,6.106,19.005,8.987,8.987,0,0,1,3.053-.728c1.416,0,4.3,1.2,3.567,6.146S87.5,74.021,81.13,73.159a36.572,36.572,0,0,1-5.117,9.807c-3.44,4.516-8.985,8.043-18.832,8.384S43.079,88,39.726,85.03s-6.453-8.384-6.453-8.384-2.752-.561-4.857-1.2-4.69-3.227-4.943-7.4.949-6.533,3.053-6.881a3.883,3.883,0,0,1,3.227.728Z" transform="translate(-7.78 -13.532)" fill="#f9dacd"/>
        <path id="Path_86" data-name="Path 86" d="M50.158,75.364a5.469,5.469,0,0,1,2.879-5.945c3.04-1.71,6.767.174,7.148,2.238" transform="translate(-16.616 -22.818)" fill="none" stroke="#725c3d" stroke-linecap="round" stroke-miterlimit="10" stroke-width="1.3"/>
        <path id="Path_87" data-name="Path 87" d="M50.47,69.95a2.4,2.4,0,0,0,.775,1.523" transform="translate(-16.754 -23.216)" fill="none" stroke="#725c3d" stroke-linecap="round" stroke-miterlimit="10" stroke-width="1.3"/>
        <path id="Path_88" data-name="Path 88" d="M48.99,71.81a3.879,3.879,0,0,0,.989,1.5" transform="translate(-16.263 -23.833)" fill="none" stroke="#725c3d" stroke-linecap="round" stroke-miterlimit="10" stroke-width="1.3"/>
        <path id="Path_89" data-name="Path 89" d="M84.65,68.467A5.31,5.31,0,0,1,91.4,65.842c4.857,1.59,3.955,5.378,3.955,5.378" transform="translate(-28.101 -21.733)" fill="none" stroke="#725c3d" stroke-linecap="round" stroke-miterlimit="10" stroke-width="1.3"/>
        <path id="Path_90" data-name="Path 90" d="M97.817,61.77a7.788,7.788,0,0,1-1.737,3.18" transform="translate(-31.895 -20.5)" fill="none" stroke="#725c3d" stroke-linecap="round" stroke-miterlimit="10" stroke-width="1.3"/>
        <path id="Path_91" data-name="Path 91" d="M99.85,64.15a7.036,7.036,0,0,1-1.87,2.325" transform="translate(-32.526 -21.29)" fill="none" stroke="#725c3d" stroke-linecap="round" stroke-miterlimit="10" stroke-width="1.3"/>
        <path id="Path_92" data-name="Path 92" d="M79.36,83.72s-3.654.862-2.325,3.654" transform="translate(-25.476 -27.787)" fill="none" stroke="#725c3d" stroke-linecap="round" stroke-miterlimit="10" stroke-width="1.3"/>
        <path id="Path_93" data-name="Path 93" d="M60.24,96.27s2.378,4.342,10.328,4.342,10.02-4.342,10.02-4.342" transform="translate(-19.997 -31.953)" fill="none" stroke="#725c3d" stroke-linecap="round" stroke-miterlimit="10" stroke-width="1.3"/>
        <line id="Line_80" data-name="Line 80" x2="1.643" y2="3.013" transform="translate(60.29 62.34)" fill="none" stroke="#725c3d" stroke-linecap="round" stroke-miterlimit="10" stroke-width="1.3"/>
        <path id="Path_94" data-name="Path 94" d="M60.494,90.93s-3.193,2.752-2.866,8.3" transform="translate(-19.122 -30.18)" fill="none" stroke="#725c3d" stroke-linecap="round" stroke-miterlimit="10" stroke-width="1.3"/>
        <path id="Path_95" data-name="Path 95" d="M45.181,130.165v-5.5H70l.822,6.881,6.006,1.55,4.816,19.694-.862,72.982-54.01.514,5.678-93.023s9.372-2.579,12.726-3.093Z" transform="translate(-8.886 -41.378)" fill="#8970d0"/>
        <path id="Path_96" data-name="Path 96" d="M27.522,135.15S17,138.63,15.665,139.192s-4.436,2.365-4.436,2.365a18.221,18.221,0,0,0-2.579,1.336c-.862.608-3.955,3.267-5.117,9.76s-.775,12-1.336,20.856S-.04,198.967,0,205.5s.3,13.715,6.019,16.687l-1.677,9.727,29.026,2.024a65.954,65.954,0,0,0,3.567-15.578c.688-8-1.2-27.349-2.966-40.676s-6.453-42.527-6.453-42.527Z" transform="translate(0.001 -44.86)" fill="#f2bd66"/>
        <path id="Path_97" data-name="Path 97" d="M101.255,136.96c-.214-.047,1.677,9.205,2.064,19.567s-1.162,40.549-2.278,53.923-1.076,14.8,0,24.089l18.919-.9L118.584,212s.862,2.238,4.3,2.325,7.355-.989,7.054-5.718-3.7-40.763-4.088-45.88-2.665-12.813-5.244-15.565-4.73-2.839-4.73-2.839-9.6-6.286-14.623-7.355Z" transform="translate(-33.269 -45.461)" fill="#f2bd66"/>
        <path id="Path_98" data-name="Path 98" d="M127.751,183.24c-.04.127-.3,27.049-.3,27.049" transform="translate(-42.309 -60.824)" fill="#f2bd66" stroke="#bc9153" stroke-miterlimit="10" stroke-width="1.3"/>
        <path id="Path_99" data-name="Path 99" d="M123.064,224.558c-7.028-6.754-20.816-18.6-20.816-18.6l-8.9,9.847s11.5,14.864,17.228,21.951" transform="translate(-30.989 -68.367)" fill="#f2bd66" stroke="#bc9153" stroke-miterlimit="10" stroke-width="1.3"/>
        <path id="Path_100" data-name="Path 100" d="M119.13,247c1.43,1.77,2.5,3.06,2.939,3.507,2.191,2.238,8.557,4.429,12.258,1.029a10.466,10.466,0,0,0,.775-14.149,47.753,47.753,0,0,0-3.48-3.594" transform="translate(-39.547 -77.606)" fill="#f2bd66"/>
        <path id="Path_101" data-name="Path 101" d="M80.527,205.66a10.883,10.883,0,0,1-3.741-2.365c-1.937-1.8-3.741-4.556-3.48-5.845s.681-2.839-.027-2.926-1.1.949-1.436,2.452a7.431,7.431,0,0,1-3.053,3.741,19.413,19.413,0,0,1-3.313,1.249,9.588,9.588,0,0,0-3.18,2.625,24.234,24.234,0,0,0-2.4,3.267l-8.771-8.6s1.637-3.053,2.752-5.418,5.03-10.835,7.221-13.027a15.423,15.423,0,0,1,7.141-3.955c2.5-.688,4-1.59,6.794-.261a17.975,17.975,0,0,1,7.442,7.609c1.289,2.879,5.418,12.639,5.418,12.639l-7.355,8.818Z" transform="translate(-16.97 -58.394)" fill="#f9dacd"/>
        <path id="Path_102" data-name="Path 102" d="M81.2,195.26a3.03,3.03,0,0,0-2.238-.194,46.6,46.6,0,0,0-4.6,2.365c-.862.428-3.053.3-2.579-1.249s1.289-2.665,4.255-3.374a38.8,38.8,0,0,1,7.609-.929c.815.04,1.55.04.949-.815A6.635,6.635,0,0,0,80.728,189a11.231,11.231,0,0,0-4.69.9c-1.289.561-3.354,1.249-4.088.775s-.862-1.289.341-2.191a13.08,13.08,0,0,1,7.355-2.492c2.966.127,5.077.474,5.678.214s1.717-.728.514-1.5a38.65,38.65,0,0,0-6.366-2.278,5.585,5.585,0,0,0-2.625.428c-.648.254-1.891.775-3.44,1.5s-2.712.514-3.267.04-.775-1.717.949-2.665,7.442-3.013,7.442-3.013" transform="translate(-23.15 -59.324)" fill="#f9dacd" stroke="#f09e92" stroke-miterlimit="10" stroke-width="1.3"/>
        <path id="Path_103" data-name="Path 103" d="M23.248,167.4l.775,42.4,12.639-14.623,10.114,9.847a141.331,141.331,0,0,1-10.628,16.3c-6.019,7.829-15.739,17.456-26.487,11.61" transform="translate(-3.206 -55.566)" fill="#f2bd66" stroke="#bc9153" stroke-miterlimit="10" stroke-width="1.3"/>
        <ellipse id="Ellipse_22" data-name="Ellipse 22" cx="6.006" cy="4.356" rx="6.006" ry="4.356" transform="translate(25.553 53.749)" fill="#f9c8c2"/>
        <ellipse id="Ellipse_23" data-name="Ellipse 23" cx="6.006" cy="4.356" rx="6.006" ry="4.356" transform="translate(60.651 53.054)" fill="#f9c8c2"/>
      </g>
    </g>
  </g>
</svg>
