<svg xmlns="http://www.w3.org/2000/svg" width="111.905" height="187.248" viewBox="0 0 111.905 187.248">
  <g id="b" transform="translate(0.004 -0.113)">
    <g id="c" transform="translate(-0.004 0.9)">
      <g id="Group_145" data-name="Group 145">
        <path id="Path_43" data-name="Path 43" d="M75.1,133.789c-4.765-1.276-4-3.148-4.935-8.68-.936-5.446,0-8.509,0-8.509l-8.85,1.276-8.85-1.276s.936,3.063,0,8.509-.17,7.318-4.935,8.68S34,137.958,34,137.958l1.276,16.678H87.439l1.276-16.678C88.63,137.958,79.865,135.15,75.1,133.789Z" transform="translate(-5.065 -18.147)" fill="#f9dacd"/>
        <path id="Path_44" data-name="Path 44" d="M64.238,99.891h6.807s-.6,4.935,5.786,10.126c6.3,5.191,13.019,4.765,16.763,1.872,3.829-2.893,3.319-10.977.34-14.551-2.893-3.574-10.3-6.893-10.3-6.893S99.382,79.383,101.509,59.9,94.7,16.754,71.386,9.777s-40.079,8.084-40.079,8.084A40.3,40.3,0,0,0,14.714,43.9c-3.234,17.87-1.617,19.146,4.425,31.74C25.18,88.148,53.261,99.976,53.261,99.976l10.977-.085Z" transform="translate(-1.946 -1.948)" fill="#e46666"/>
        <path id="Path_45" data-name="Path 45" d="M112.585,79.766c-1.276,3.489-4.935,6.042-6.467,5.871-2.468-.17-3.319-4.17-2.383-8.084.936-3.829,3.659-6.552,6.127-5.871C113.18,72.533,113.946,76.021,112.585,79.766Z" transform="translate(-15.405 -11.435)" fill="#f9dacd"/>
        <path id="Path_46" data-name="Path 46" d="M17.794,79.769c1.276,3.489,4.935,6.042,6.467,5.871,2.468-.17,3.319-4.17,2.383-8.084s-3.659-6.467-6.127-5.871C17.2,72.536,16.518,76.025,17.794,79.769Z" transform="translate(-2.559 -11.439)" fill="#f9dacd"/>
        <path id="Path_47" data-name="Path 47" d="M96.07,51.359c0,28.932-16.934,52.333-36.335,52.333S23.4,80.205,23.4,51.359,39.653,16.3,59.735,16.3,96.07,22.427,96.07,51.359Z" transform="translate(-3.485 -3.196)" fill="#f9dacd"/>
        <path id="Path_48" data-name="Path 48" d="M36.6,62.845s4.935-6.807,16.253-4.34" transform="translate(-5.452 -9.407)" fill="none" stroke="#725c3d" stroke-linecap="round" stroke-miterlimit="10" stroke-width="1.3"/>
        <path id="Path_49" data-name="Path 49" d="M65.589,81.9s-5.276,2.978,0,4.85" transform="translate(-9.424 -12.974)" fill="none" stroke="#725c3d" stroke-linecap="round" stroke-miterlimit="10" stroke-width="1.3"/>
        <path id="Path_50" data-name="Path 50" d="M36.647,32.827s-4.17,22.039-16.593,27.485c0,0-1.872-12.253,0-23.316S30.691,11.383,60.984,12.49,99.532,34.274,98.6,48.825s-2.127,14.04-2.127,14.04S46.774,51.377,36.647,32.827Z" transform="translate(-2.862 -2.619)" fill="#e46666"/>
        <g id="Group_142" data-name="Group 142" transform="translate(28.935 119.897)">
          <path id="Path_51" data-name="Path 51" d="M34.585,143.155c0-.085-.085-.17-.085-.255C34.5,142.985,34.585,143.07,34.585,143.155Z" transform="translate(-34.074 -141.964)"/>
          <path id="Path_52" data-name="Path 52" d="M34,141.8a7.1,7.1,0,0,0,1.7,4.255c-.681-2.383-1.021-3.829-1.021-3.829L34,141.8Z" transform="translate(-33.999 -141.8)" fill="#8c6c47"/>
        </g>
        <g id="Group_143" data-name="Group 143" transform="translate(81.863 119.897)">
          <path id="Path_53" data-name="Path 53" d="M97.6,143.14c0-.085.085-.255.085-.34C97.685,142.97,97.6,143.055,97.6,143.14Z" transform="translate(-96.409 -141.949)"/>
          <path id="Path_54" data-name="Path 54" d="M97.9,141.8l-.681.425s-.34,1.447-1.021,3.829a7.263,7.263,0,0,0,1.7-4.255Z" transform="translate(-96.2 -141.8)" fill="#8c6c47"/>
        </g>
        <path id="Path_55" data-name="Path 55" d="M61.613,154.2c-16.508-.17-23.06-4.17-25.613-7.4a107.7,107.7,0,0,0,8.169,21.444c4.425,8.084,12.509,11.232,16.338,12.339v.511s.425-.085,1.021-.255l1.021.255v-.511c3.829-1.106,12-4.255,16.338-12.339A107.7,107.7,0,0,0,87.056,146.8C84.673,150.034,78.036,154.033,61.613,154.2Z" transform="translate(-5.363 -22.649)" fill="#f09e92"/>
        <path id="Path_56" data-name="Path 56" d="M107.658,160.629c-1.447-7.318-2.893-11.317-9.19-14.636s-14.381-6.807-14.381-6.807S73.2,164.543,66.047,171.606c-5.361,5.276-8.509,6.212-9.786,6.3-1.191-.17-4.34-1.021-9.786-6.3-7.233-7.063-18.04-32.506-18.04-32.506s-8.084,3.489-14.381,6.807-7.744,7.318-9.19,14.636S.1,200.282.1,200.282H111.828c.085,0-2.723-32.421-4.17-39.654Z" transform="translate(-0.011 -21.501)" fill="#f9c8c2"/>
        <line id="Line_73" data-name="Line 73" y2="24.932" transform="translate(15.49 146.191)" fill="none" stroke="#f2aca0" stroke-miterlimit="10" stroke-width="1.3"/>
        <line id="Line_74" data-name="Line 74" y2="24.932" transform="translate(98.457 146.191)" fill="none" stroke="#f2aca0" stroke-miterlimit="10" stroke-width="1.3"/>
        <path id="Path_57" data-name="Path 57" d="M54.9,98.4s15.317.6,19.572,0c0,0-4.765,9.19-10.041,9.19S54.9,98.4,54.9,98.4Z" transform="translate(-8.18 -15.434)" fill="none" stroke="#725c3d" stroke-linecap="round" stroke-miterlimit="10" stroke-width="1.3"/>
        <path id="Path_58" data-name="Path 58" d="M75,76.542A5.281,5.281,0,0,1,80.616,72.8,6.237,6.237,0,0,1,86.4,76.542" transform="translate(-11.176 -11.616)" fill="none" stroke="#725c3d" stroke-linecap="round" stroke-miterlimit="10" stroke-width="1.3"/>
        <path id="Path_59" data-name="Path 59" d="M43,76.544A5.893,5.893,0,0,1,48.361,72.8c4.084-.085,5.786,3.744,5.786,3.744" transform="translate(-6.406 -11.618)" fill="none" stroke="#725c3d" stroke-linecap="round" stroke-miterlimit="10" stroke-width="1.3"/>
        <path id="Path_60" data-name="Path 60" d="M41.5,166.243s4.34-10.041,5.531-12.509c1.191-2.383,1.447-3.319,3.914-5.446s4.084-3.4,5.871-3.489,6.3,1.447,8.254,2.3,5.106,2.893,6.467,5.7,10.977,14.3,10.977,14.3-2.3,2.808-4,4.68-3.829,4.425-3.829,4.425-1.957-1.787-2.978-2.808-7.829-3.063-10.211-4.51c-1.447-.936-4-4.935-4-4.935l-2.127-.34s1.106,4.255-.425,7.063a11.729,11.729,0,0,1-4.255,4.255c-.6.511-1.276,1.021-1.276,1.021l-7.914-9.7Z" transform="translate(-6.183 -22.35)" fill="#f9dacd"/>
        <g id="Group_144" data-name="Group 144" transform="translate(35.317 122.535)">
          <path id="Path_61" data-name="Path 61" d="M74.676,175.663c-.6-.511-1.872-1.787-2.723-2.553-.6-.6-2.553-1.361-4.85-2.212a27.347,27.347,0,0,1-5.361-2.383c-1.361-.851-3.914-4.765-3.914-4.85l-.085-.17-2.893-.511.17.511s1.021,4.084-.425,6.807a9.589,9.589,0,0,1-3.489,3.659,4.718,4.718,0,0,0-.681.511,6.205,6.205,0,0,1-.936.766L42,166.218c.6-1.447,4.34-10.126,5.446-12.253a7.907,7.907,0,0,1,.425-.851,10.531,10.531,0,0,1,3.4-4.51c2.553-2.127,4.084-3.319,5.616-3.4h.085c1.787,0,6.127,1.447,8,2.212,1.7.681,4.935,2.723,6.3,5.531,1.361,2.723,9.445,12.339,10.892,14.04-.6.681-2.383,2.893-3.829,4.425-1.447,1.7-3.063,3.574-3.659,4.255Z" transform="translate(-41.575 -144.945)" fill="#f9dacd"/>
          <path id="Path_62" data-name="Path 62" d="M56.9,145.581c1.532,0,5.786,1.361,7.914,2.212,1.617.681,4.765,2.638,6.127,5.361,1.276,2.638,8.85,11.658,10.722,13.87-.681.851-2.3,2.808-3.659,4.17-1.191,1.361-2.638,2.978-3.4,3.829-.681-.6-1.7-1.617-2.383-2.3-.6-.6-2.3-1.276-5.021-2.3a43.688,43.688,0,0,1-5.361-2.3c-1.021-.681-3.063-3.659-3.829-4.765l-.17-.255-.34-.085-2.127-.34-1.106-.17.255,1.106s1.021,4-.34,6.552a9.808,9.808,0,0,1-3.4,3.574,1.555,1.555,0,0,0-.681.511,4.722,4.722,0,0,1-.681.511L42.181,166c.851-1.872,4.255-9.956,5.276-12a7.911,7.911,0,0,1,.425-.851,10.078,10.078,0,0,1,3.319-4.34c2.468-2.042,3.914-3.234,5.446-3.319l.255.085m-.085-.681h-.085c-1.787.085-3.319,1.362-5.871,3.489s-2.723,3.063-3.914,5.446S41.5,166.258,41.5,166.258l7.914,9.616a9.977,9.977,0,0,0,1.276-1.021c.511-.511,2.723-1.361,4.255-4.255s.425-7.063.425-7.063l2.127.34s2.553,4,4,4.935c2.383,1.532,9.19,3.489,10.211,4.51s2.978,2.808,2.978,2.808,2.127-2.468,3.829-4.425c1.787-1.872,4-4.68,4-4.68S72.9,155.707,71.538,152.9s-4.6-4.935-6.467-5.7c-1.957-.851-6.382-2.3-8.254-2.3Z" transform="translate(-41.5 -144.9)" fill="#f09e92"/>
        </g>
        <path id="Path_63" data-name="Path 63" d="M58.982,147s5.7,1.872,7.233,2.978,1.447,1.872.936,2.468a3.139,3.139,0,0,1-3.489.425c-1.532-.681-3.659-1.957-4.255-2.212a5.248,5.248,0,0,0-3.063.34c-1.361.425-4.255,1.276-4.85,1.787s-1.276,1.787.766,2.042a19.788,19.788,0,0,0,4.51,0c1.447-.085,2.723-.425,4.255.17s3.659,1.532,4.425,2.553.255,1.7-1.191,1.787a10.137,10.137,0,0,1-3.744-.851,6.785,6.785,0,0,0-2.723-.766,10.667,10.667,0,0,0-3.489.6,5.455,5.455,0,0,0-1.787,1.447c-.255.425-.255.851,1.447.936a50.4,50.4,0,0,1,5.957.6,8.411,8.411,0,0,1,4.51,1.787c1.021.936,2.042,2.553,1.447,3.063a2.82,2.82,0,0,1-2.893.255c-1.106-.511-2.468-1.872-3.574-2.042" transform="translate(-7.582 -22.678)" fill="#f9dacd" stroke="#f09e92" stroke-miterlimit="10" stroke-width="1.3"/>
        <path id="Path_64" data-name="Path 64" d="M35.313,168.9S10.3,189.833,7.062,192.131c-3.148,2.3-9.445,10.892-6.127,16.763s10.977,3.489,14.891-.681c3.914-4.084,28.591-28.762,28.591-28.762L35.313,168.9Z" transform="translate(0.004 -25.943)" fill="#f9c8c2"/>
        <path id="Path_65" data-name="Path 65" d="M88.235,169.6s25.273,20.252,28.421,22.55,9.445,10.892,6.127,16.763-10.977,3.489-14.891-.681c-3.914-4.085-28.591-28.762-28.591-28.762l8.935-9.871Z" transform="translate(-11.817 -26.047)" fill="#f9c8c2"/>
        <path id="Path_66" data-name="Path 66" d="M89.8,169.6s16.849,13.53,24.762,19.742" transform="translate(-13.383 -26.047)" fill="none" stroke="#f2aca0" stroke-miterlimit="10" stroke-width="1.3"/>
        <path id="Path_67" data-name="Path 67" d="M104.743,206.813C96.914,198.9,79.3,181.2,79.3,181.2" transform="translate(-11.817 -27.776)" fill="none" stroke="#f2aca0" stroke-miterlimit="10" stroke-width="1.3"/>
        <path id="Path_68" data-name="Path 68" d="M36.362,169.6S19.514,183.13,11.6,189.342" transform="translate(-1.726 -26.047)" fill="none" stroke="#f2aca0" stroke-miterlimit="10" stroke-width="1.3"/>
        <path id="Path_69" data-name="Path 69" d="M21.3,206.813C29.129,198.9,46.743,181.2,46.743,181.2" transform="translate(-3.172 -27.776)" fill="none" stroke="#f2aca0" stroke-miterlimit="10" stroke-width="1.3"/>
        <line id="Line_75" data-name="Line 75" x1="3.234" y2="13.104" transform="translate(92.585)" fill="none" stroke="#e46666" stroke-linecap="round" stroke-miterlimit="10" stroke-width="1.3"/>
        <line id="Line_76" data-name="Line 76" x1="11.488" y2="10.892" transform="translate(94.202 5.446)" fill="none" stroke="#e46666" stroke-linecap="round" stroke-miterlimit="10" stroke-width="1.3"/>
        <line id="Line_77" data-name="Line 77" y1="2.978" x2="14.381" transform="translate(95.819 16.593)" fill="none" stroke="#e46666" stroke-linecap="round" stroke-miterlimit="10" stroke-width="1.3"/>
      </g>
      <ellipse id="Ellipse_16" data-name="Ellipse 16" cx="6.467" cy="4.68" rx="6.467" ry="4.68" transform="translate(30.127 69.181)" fill="#f9c8c2"/>
      <ellipse id="Ellipse_17" data-name="Ellipse 17" cx="6.467" cy="4.68" rx="6.467" ry="4.68" transform="translate(68.334 70.202)" fill="#f9c8c2"/>
    </g>
  </g>
</svg>
