<svg xmlns="http://www.w3.org/2000/svg" width="122.03" height="178" viewBox="0 0 122.03 178">
  <g id="_7075_paint" data-name="7075_paint" transform="translate(0 0)">
    <path id="Path_201" data-name="Path 201" d="M74.728,117.059c.545-.186,9.491-4.37,9.679-4.438,2.828-1.021,2.717-2.84,3.074-4.874a39.014,39.014,0,0,0,.564-4.561,26.409,26.409,0,0,1-6.587-5.793,30.081,30.081,0,0,1-5.53-10.16l-.583.118A3.659,3.659,0,0,1,72.028,86.3,9.73,9.73,0,0,1,69.512,83a15.314,15.314,0,0,1-1.562-8.118,5.115,5.115,0,0,1,.536-2.057,3.616,3.616,0,0,1,2.6-1.728,3.828,3.828,0,0,1,3.063.9l.662.414C77.2,69.718,87.467,58.393,94.454,52.478c.041.595,1.62,6.044,1.972,6.225.632.326,9.2-6.4,10.417-7.39.262.02.525.037.786.064a15.541,15.541,0,0,1,10.872,6.26,34.9,34.9,0,0,1,6.7,15.674l.81-.476a3.826,3.826,0,0,1,3.063-.9,3.614,3.614,0,0,1,2.6,1.728,5.106,5.106,0,0,1,.535,2.056,15.314,15.314,0,0,1-1.562,8.118,9.729,9.729,0,0,1-2.517,3.3,2.936,2.936,0,0,1-2.943.688l-.589-.139c-.242.9-.509,1.646-.642,2.049-.791,2.148-4.886,9.263-10.227,12.851a41.09,41.09,0,0,0,.586,5.152c.356,2.035.245,3.855,3.073,4.874.187.068,8.21,3.885,8.5,4,0,0-10.265,11.549-26.4,11.549A32.7,32.7,0,0,1,74.728,117.059Z" transform="translate(-37.463 -28.312)" fill="#fce0cd"/>
    <path id="Path_202" data-name="Path 202" d="M71.372,22.8a25.375,25.375,0,0,1,7.466-10.982c-.5.022-2.885.233-2.971-.092s4.244-5.478,10.588-7.341a28.326,28.326,0,0,1,9.5-1.434c-.71-.349-3.152-1.23-3.48-1.771C94,.129,97.292-.039,99.143.007c7.75.191,18.126,3.911,20.769,10.167a22.217,22.217,0,0,0,2.894,2.415c3.455,1.183,7.165,6.656,8.332,10.393,1.828,5.85,1.978,15.8.052,20.955a3.536,3.536,0,0,0-1.008-.308,3.826,3.826,0,0,0-3.063.9l-.81.476a34.9,34.9,0,0,0-6.7-15.674,15.549,15.549,0,0,0-10.872-6.26c-.26-.026-.524-.045-.786-.064-1.219.989-9.784,7.716-10.417,7.389-.352-.179-1.931-5.63-1.972-6.225C88.576,30.081,78.307,41.407,75.92,44.094l-.662-.414a3.828,3.828,0,0,0-3.063-.9c-.09.013-.176.03-.263.049-2.379-1.434-2.522-12.333-1.156-18C70.94,24.153,71.139,23.474,71.372,22.8Z" transform="translate(-38.572 0)" fill="#645d5c"/>
    <path id="Path_203" data-name="Path 203" d="M95.876,195.472c-3.215-1.338-6.27-2.671-9.548-4.069-3.707,3.035-14,6.056-21.579,6.038-8.317-.021-17.225-3.127-21.865-6.222-5.752,2.1-12.993,4.784-18.1,7.676-5.385,2.907-8.4,7.924-10.255,13.016-5.35,14.654-9.168,28.105-11.423,43.327-1.082,7.3-1.586,15.361,3.467,21.334a13.746,13.746,0,0,0,7.6,4.654c4.991,1.027,9.909-1.09,13.936-4.015-.019.217-.036.409-.054.583-.031.3-.22,2.335-.35,4.634,18.364,0,59.056-.045,72.578-.045-.067-1.838-.147-3.492-.179-4.172a6.962,6.962,0,0,0-.031-.722c-.036-.359-.076-.816-.121-1.345a17.183,17.183,0,0,0,8.951,3.5c5.343.35,10.041-3.474,11.766-8.544s1.87-11.345,1.3-16.67c-.737-8.976-4.563-28.652-6.146-33.686a85.994,85.994,0,0,0-4.679-12.516,17.954,17.954,0,0,0-5.257-6.98,36.98,36.98,0,0,0-8.228-5.036Q96.759,195.84,95.876,195.472Z" transform="translate(-1.323 -105.506)" fill="#fff"/>
    <path id="Path_204" data-name="Path 204" d="M57.444,394.4q6.46,0,12.92,0l15.763-.011,16.549-.013,15.051-.012q5.669,0,11.338,0h1.022a1.076,1.076,0,0,0,0-2.152q-5.367,0-10.733,0l-14.642.011-16.482.013-16.047.011q-6.7,0-13.4.006H57.444a1.076,1.076,0,0,0,0,2.152Z" transform="translate(-31.122 -216.398)" fill="#d9d9d9"/>
    <path id="Path_205" data-name="Path 205" d="M58.622,386.953c.1-1.743.256-3.479.4-5.218a1.08,1.08,0,0,0-1.076-1.076,1.1,1.1,0,0,0-1.076,1.076c-.147,1.739-.3,3.475-.4,5.218a1.083,1.083,0,0,0,1.076,1.076A1.1,1.1,0,0,0,58.622,386.953Z" transform="translate(-31.158 -210.03)" fill="#d9d9d9"/>
    <path id="Path_206" data-name="Path 206" d="M48.008,243.727c1.118,8.857,2.319,17.7,3.407,26.564q.424,3.451.837,6.907a1.109,1.109,0,0,0,1.076,1.076A1.083,1.083,0,0,0,54.4,277.2c-1.086-9.144-2.179-18.291-3.431-27.413-.277-2.017-.559-4.034-.814-6.058a1.11,1.11,0,0,0-1.076-1.076,1.082,1.082,0,0,0-1.076,1.076Z" transform="translate(-26.488 -133.883)" fill="#d9d9d9"/>
    <path id="Path_207" data-name="Path 207" d="M217.65,379.357c.176,2.076.254,4.156.33,6.238a1.076,1.076,0,0,0,2.152,0c-.076-2.082-.154-4.162-.33-6.238a1.076,1.076,0,0,0-2.152,0Z" transform="translate(-120.089 -208.718)" fill="#d9d9d9"/>
    <path id="Path_208" data-name="Path 208" d="M219.4,270.08q1.022-8.171,2.1-16.335.941-7.206,1.887-14.411c.166-1.275.339-2.55.493-3.827a1.082,1.082,0,0,0-1.076-1.076,1.1,1.1,0,0,0-1.076,1.076c-.369,3.089-.8,6.172-1.2,9.257q-1.073,8.185-2.135,16.373-.577,4.471-1.139,8.944a1.082,1.082,0,0,0,1.076,1.076,1.1,1.1,0,0,0,1.076-1.076Z" transform="translate(-119.87 -129.348)" fill="#d9d9d9"/>
    <path id="Path_209" data-name="Path 209" d="M60.224,282.689c1.45-1.517,4.393-4.214,5.082-6.2,1.095-3.157,1.569-4.141,2.638-6.9a11.427,11.427,0,0,1,2.207-4.058,8.16,8.16,0,0,1,2.749-1.9,5.411,5.411,0,0,1,2.979-1.883c.747-.822,3.694-1.536,4.582-1.619a4.927,4.927,0,0,1,1.233.018,52.87,52.87,0,0,0,7.323-3.084c1.68-.883,3.036-1.891,4.868-1.4a2.76,2.76,0,0,1,1.366,1.083,2.622,2.622,0,0,1-.927,3.015c-3.186,2.926-5.589,3.669-7.871,4.879.073.116.15.238.233.368a10.931,10.931,0,0,1,1.425,2.74,16.521,16.521,0,0,1,.376,4.992,33.442,33.442,0,0,1-.745,4.079,2.42,2.42,0,0,1-1.044,1.521c-.512,3.191-2.551,5.388-6.387,7.239A34.957,34.957,0,0,1,75.931,287c-2.942,2.51-4.258,5.54-5.693,7.71" transform="translate(-33.229 -140.992)" fill="#fce0cd"/>
    <path id="Path_210" data-name="Path 210" d="M102.514,276.77a15.056,15.056,0,0,1,3.146,4.608c.917,2.177.4,4.555-.185,6.746a1.077,1.077,0,0,0,2.075.572c.693-2.58,1.207-5.387.162-7.947a17.272,17.272,0,0,0-3.676-5.5c-.975-.986-2.5.535-1.524,1.521Z" transform="translate(-56.39 -151.693)" fill="#f9cbac"/>
    <path id="Path_211" data-name="Path 211" d="M93.52,284.223a15.562,15.562,0,0,1,2.616,3.691,4.04,4.04,0,0,1,.186,2.1,29.253,29.253,0,0,1-.532,2.887,1.1,1.1,0,0,0,.751,1.324,1.087,1.087,0,0,0,1.324-.752c.4-1.958,1.109-4.258.316-6.2a17.116,17.116,0,0,0-3.14-4.569,1.077,1.077,0,1,0-1.524,1.521Z" transform="translate(-51.43 -155.81)" fill="#f9cbac"/>
    <path id="Path_212" data-name="Path 212" d="M115.141,269.572a10.921,10.921,0,0,0-1.784-2.2,1.12,1.12,0,0,0-.762-.314,1.093,1.093,0,0,0-.762.314,1.081,1.081,0,0,0-.314.762,1.1,1.1,0,0,0,.314.762,9.777,9.777,0,0,1,1.012,1.094l-.168-.218a10.439,10.439,0,0,1,.6.893,1.126,1.126,0,0,0,.643.493,1.1,1.1,0,0,0,.829-.108,1.089,1.089,0,0,0,.493-.643,1.1,1.1,0,0,0-.108-.829Z" transform="translate(-61.531 -147.347)" fill="#f9cbac"/>
    <path id="Path_213" data-name="Path 213" d="M85.52,292a6.456,6.456,0,0,1,1.587,2.954c.114.983-.126,2.307.469,3.349a3.088,3.088,0,0,0,2.851,1.345,3.609,3.609,0,0,0,2.832-1.672H91.4c.788,1.214,1.81,2.18,3.362,2.037a4.2,4.2,0,0,0,3.3-2.651L96.1,297.1a2.936,2.936,0,0,0,2.38,1.809,1.1,1.1,0,0,0,1.324-.753,1.085,1.085,0,0,0-.751-1.323c-.152-.029-.812-.126-.877-.306-.283-.777-1.544-1.172-1.966-.257-.3.64-.739,1.466-1.512,1.591-.722.117-1.057-.389-1.438-.976a1.09,1.09,0,0,0-1.858,0,1.434,1.434,0,0,1-1.379.606c-.777-.117-.748-.712-.767-1.427a7.032,7.032,0,0,0-.377-2.659,12.151,12.151,0,0,0-1.838-2.931,1.083,1.083,0,0,0-1.524,0,1.1,1.1,0,0,0,0,1.521Z" transform="translate(-47.015 -160.098)" fill="#f9cbac"/>
    <path id="Path_214" data-name="Path 214" d="M158.956,299.575l11.73-10.879c-2.582-3.12-1.752-7.111-4.005-10.734-1.551-2.494-2.682-4.664-5.218-6.146l-2.107-1.327-1.34,5.43c-4.749-2.651-10.186-6.1-11.19-6.67-1.374-.775-3.33-1.165-4.52-.345a2.432,2.432,0,0,0-.274,3.61c-2.381-1.46-4.038-1.273-4.622.374-.532,1.5.045,2.79,3.323,4.712a1.9,1.9,0,0,0-2.972,1.643c-.115,1.268.7,1.91,2.044,2.995-.573-.743-1.939.5-2.077,1.429a3.138,3.138,0,0,0,.746,2.5,38.164,38.164,0,0,0,8.517,7.62,43.866,43.866,0,0,0,11.906,5.409" transform="translate(-75.722 -148.117)" fill="#fce0cd"/>
    <path id="Path_215" data-name="Path 215" d="M4.277,0H42.1a4.276,4.276,0,0,1,4.276,4.276V21.427A4.276,4.276,0,0,1,42.1,25.7H4.276A4.276,4.276,0,0,1,0,21.427V4.277A4.277,4.277,0,0,1,4.277,0Z" transform="translate(54.986 143.746) rotate(-81.753)" fill="#a0a0a0"/>
    <path id="Path_216" data-name="Path 216" d="M149.987,229.536l-3.333-.485a1.182,1.182,0,0,0-.829.108,1.076,1.076,0,0,0-.386,1.472,1.035,1.035,0,0,0,.643.493l3.333.485a1.184,1.184,0,0,0,.829-.108,1.076,1.076,0,0,0,.386-1.472A1.036,1.036,0,0,0,149.987,229.536Z" transform="translate(-80.166 -126.362)" fill="#645d5c"/>
    <path id="Path_217" data-name="Path 217" d="M158.97,299.213A42.4,42.4,0,0,1,138.851,286.2a3.448,3.448,0,0,1-1.05-2.52c.138-.928,1.5-2.172,2.077-1.429-1.281-1.21-2.116-1.789-1.988-3.055a2,2,0,0,1,3.057-1.5c-2.978-2-3.941-3.576-3.464-4.79.734-1.868,2.241-1.834,4.622-.374a2.432,2.432,0,0,1,.274-3.61c1.189-.823,2.984-.39,4.336.423,3.512,2.114,9.027,5.353,13.522,8.046l2.331,1.351" transform="translate(-75.792 -148.135)" fill="#fce0cd"/>
    <path id="Path_218" data-name="Path 218" d="M162.547,284.931c-4.479-2.7-8.858-5.579-13.239-8.433-.755-.493-1.513-.982-2.26-1.486-1.15-.778-2.228,1.086-1.086,1.858,4.079,2.756,8.254,5.379,12.416,8,1.023.646,2.047,1.291,3.083,1.915a1.077,1.077,0,0,0,1.086-1.858Z" transform="translate(-80.267 -151.636)" fill="#f9cbac"/>
    <path id="Path_219" data-name="Path 219" d="M156.086,294.142c-4.27-2.654-8.464-5.432-12.651-8.213-1.156-.768-2.235,1.094-1.086,1.858,4.188,2.779,8.382,5.558,12.651,8.214C156.18,296.733,157.261,294.873,156.086,294.142Z" transform="translate(-78.271 -157.662)" fill="#f9cbac"/>
    <path id="Path_220" data-name="Path 220" d="M151.588,303.644a73.928,73.928,0,0,1-9.445-6.738,1.107,1.107,0,0,0-1.522,0,1.084,1.084,0,0,0,0,1.521,77.4,77.4,0,0,0,9.88,7.074,1.076,1.076,0,0,0,1.086-1.858Z" transform="translate(-77.417 -163.652)" fill="#f9cbac"/>
    <path id="Path_221" data-name="Path 221" d="M185.619,193.318c2.728,1.171,5.455,2.347,8.2,3.482a36.437,36.437,0,0,1,6.656,3.559,20.9,20.9,0,0,1,5.271,4.731,32.056,32.056,0,0,1,3.566,6.9,86.093,86.093,0,0,1,3.864,11.749c.817,3.309,1.5,6.652,2.152,10a190.318,190.318,0,0,1,3.4,22.6,47.246,47.246,0,0,1-.061,7.947,25.875,25.875,0,0,1-1.617,7.271c-1.528,3.729-5.063,6.833-9.194,7.075-5.188.3-9.548-3.036-13.291-6.2a130.236,130.236,0,0,1-11.26-10.958q-1.04-1.121-2.071-2.251v1.521c4.1-3.942,8.414-7.672,12.645-11.475q1.692-1.521,3.37-3.056h-1.521c3.919,3.432,7.521,7.211,11.269,10.825,1,.961,2.52-.558,1.521-1.521-3.748-3.614-7.351-7.393-11.269-10.825a1.1,1.1,0,0,0-1.521,0c-4.291,3.945-8.686,7.771-12.986,11.7-1.019.932-2.034,1.871-3.03,2.828a1.1,1.1,0,0,0,0,1.521c3.416,3.725,6.875,7.41,10.612,10.818a68.792,68.792,0,0,0,6.907,5.683,19.372,19.372,0,0,0,6.988,3.215,12.476,12.476,0,0,0,7.111-.41,13.22,13.22,0,0,0,5.4-3.882c3.286-3.963,4.075-9.428,4.258-14.42a74.8,74.8,0,0,0-.915-12.827c-.556-4.063-1.243-8.109-1.985-12.142-.7-3.79-1.445-7.572-2.3-11.329a96.868,96.868,0,0,0-3.01-10.305,74.065,74.065,0,0,0-3.344-8.058,18.836,18.836,0,0,0-4.553-6.074,36.272,36.272,0,0,0-6.169-4.258c-2.516-1.384-5.217-2.385-7.854-3.509q-2.08-.886-4.157-1.782a1.112,1.112,0,0,0-1.472.386,1.084,1.084,0,0,0,.386,1.472Z" transform="translate(-98.989 -105.564)" fill="#d9d9d9"/>
    <path id="Path_222" data-name="Path 222" d="M10.927,258.714c4.5-4.236,9.068-8.391,13.564-12.627H22.97c3.733,3.915,7.537,7.76,11.3,11.643q1.467,1.513,2.923,3.035a11.325,11.325,0,0,1,1.441,1.6c.354.552.125,1.014-.2,1.524a20.362,20.362,0,0,1-2.013,2.472c-.807.9-1.644,1.785-2.493,2.653-3.438,3.516-7.017,7.116-11.461,9.341a15.534,15.534,0,0,1-7.639,1.793,11.907,11.907,0,0,1-6.977-2.765c-3.869-3.22-5.483-8.061-5.676-12.963-.211-5.359.819-10.764,1.793-16.01a222.524,222.524,0,0,1,9.548-34.436,41.116,41.116,0,0,1,2.969-6.858,20.871,20.871,0,0,1,4.582-5.562,30.373,30.373,0,0,1,6.692-3.908c2.566-1.21,5.194-2.284,7.839-3.307q1.93-.746,3.872-1.46a1.105,1.105,0,0,0,.751-1.324A1.085,1.085,0,0,0,38.9,190.8a110.953,110.953,0,0,0-16.3,7.089c-4.621,2.615-7.752,6.989-9.772,11.808-1.165,2.779-2.1,5.666-3.069,8.517q-1.5,4.423-2.841,8.9C5.162,233,3.652,238.963,2.441,244.986q-.941,4.678-1.646,9.4A62.226,62.226,0,0,0,0,262.5c-.094,5.346,1.083,10.751,4.711,14.845a14.959,14.959,0,0,0,6.779,4.4,14.934,14.934,0,0,0,8.486-.1c5.25-1.541,9.416-5.17,13.258-8.9,1.838-1.785,3.644-3.612,5.316-5.553a11.468,11.468,0,0,0,2.215-3.155c.644-1.673-.345-2.992-1.451-4.153-3.855-4.047-7.793-8.013-11.678-12.03q-1.581-1.634-3.15-3.28a1.094,1.094,0,0,0-1.521,0c-4.5,4.235-9.068,8.391-13.564,12.626-1.01.952.514,2.471,1.521,1.522Z" transform="translate(0 -105.256)" fill="#d9d9d9"/>
    <path id="Path_223" data-name="Path 223" d="M127.816,143.073c1.438,1.407,3.72,1.81,5.648,1.809s4.214-.4,5.648-1.809c.992-.97-.53-2.491-1.521-1.521-.045.045-.276.241-.153.144s-.186.125-.257.169c-.126.078-.257.15-.39.216-.09.045-.179.09-.272.128.14-.06-.045.015-.1.035a8.61,8.61,0,0,1-2.958.488,8.438,8.438,0,0,1-2.908-.468,4.376,4.376,0,0,1-.81-.4c-.108-.066-.209-.14-.314-.212.264.182-.033-.038-.1-.1-.99-.97-2.513.551-1.521,1.521Z" transform="translate(-70.345 -77.93)" fill="#8c7c72"/>
    <path id="Path_224" data-name="Path 224" d="M139.323,119.751a23.349,23.349,0,0,1,.55,2.517l-.039-.286a1.525,1.525,0,0,1,.009.347l.039-.286a.851.851,0,0,1-.039.156l.108-.257a.628.628,0,0,1-.055.1l.169-.217a.519.519,0,0,1-.082.081l.218-.168a1.6,1.6,0,0,1-.2.105l.257-.108a1.444,1.444,0,0,1-.336.1l.286-.039a1.3,1.3,0,0,1-.314,0l.286.039c-.119-.017-.236-.045-.355-.061a1.187,1.187,0,0,0-.829.108,1.076,1.076,0,0,0-.386,1.472,1.031,1.031,0,0,0,.643.493c.251.034.5.1.752.11a2.365,2.365,0,0,0,1.083-.254,1.517,1.517,0,0,0,.853-1,2.6,2.6,0,0,0-.012-1.107c-.137-.811-.325-1.614-.533-2.41a1.076,1.076,0,1,0-2.075.572Z" transform="translate(-76.399 -65.322)" fill="#8c7c72"/>
    <path id="Path_225" data-name="Path 225" d="M110.285,103.863c-.414,1.345-.144,4.438,2.4,4.7,3.368-.02,3.547-3.761,2.413-5.52C114.174,101.605,111.445,101.006,110.285,103.863Z" transform="translate(-60.763 -56.192)" fill="#8c7c72"/>
    <path id="Path_226" data-name="Path 226" d="M163.4,103.863c.414,1.345.144,4.438-2.4,4.7-3.368-.02-3.547-3.761-2.414-5.52C159.506,101.605,162.235,101.006,163.4,103.863Z" transform="translate(-87.151 -56.192)" fill="#8c7c72"/>
  </g>
</svg>
