<svg xmlns="http://www.w3.org/2000/svg" width="166.532" height="189.648" viewBox="0 0 166.532 189.648">
  <g id="b" transform="translate(0.001 0.002)">
    <g id="c" transform="translate(-0.001 -0.002)">
      <g id="Group_152" data-name="Group 152">
        <path id="Path_142" data-name="Path 142" d="M289.4,202.417l2.195-5.648s-.159-4.729-.675-8.313-1.548-7.037,0-8.6a22.083,22.083,0,0,1,4.4-3.073s8.563-10.462,9.753-11.318,3.329-1.077,1.985,1.5-4.758,7.882-4.758,7.882a5.975,5.975,0,0,1,4.043.788c1.826,1.219,3.487,3.709,4.2,4.219s.635,3.09.159,4.519a6.782,6.782,0,0,1-1.826,2.58s1.35.646-1.747,4.588-7.689,5.574-8.086,6.294-4.48,6.221-4.48,6.221Z" transform="translate(-144.54 -74.819)" fill="#f9ddd0"/>
        <path id="Path_143" data-name="Path 143" d="M37.624,274.74c-.238.215-3.357,4.644-5.342,6.079s-1.985,2.075-4.758,3.079a47.185,47.185,0,0,1-11.653,2.291c-3.567.142-11.574,1.077-13.161,1.219s-4.043.862-1.826,2.722,3.964,3.153,10.621,3.153,10.939.646,12.129.646,1.429.646,1.429,2.365a7.081,7.081,0,0,1-1.27,4.009c-.635.93,0,3.295,1.588,1.435a73.418,73.418,0,0,0,5.631-7.593,42.237,42.237,0,0,0,2.3-4.372c1.27-2.722.079-.357.079-.357s5.506-5.9,9.152-9.844l-4.922-4.831Z" transform="translate(0.001 -124.69)" fill="#f9ddd0"/>
        <path id="Path_144" data-name="Path 144" d="M162.076,145.379c-3.833-1.043-3.249-2.557-4.009-6.969a16.127,16.127,0,0,1,0-6.85l-7.111,1.026-7.111-1.026a16.127,16.127,0,0,1,0,6.85c-.754,4.412-.176,5.92-4.009,6.969s-10.916,3.368-10.916,3.368l1.032,13.473h42l1.032-13.473s-7.083-2.325-10.916-3.368Z" transform="translate(-65.744 -59.558)" fill="#fadfd3"/>
        <path id="Path_145" data-name="Path 145" d="M145.068,74.136h5.461s-.448,3.947,4.656,8.132,10.468,3.833,13.536,1.508,2.654-8.829.3-11.732-8.273-5.574-8.273-5.574,12.657-8.943,14.4-24.622S169.689,7.122,150.88,1.491s-32.3,6.487-32.3,6.487a32.279,32.279,0,0,0-13.343,20.981c-2.557,14.4-1.276,15.447,3.6,25.552s27.525,19.626,27.525,19.626h8.71Z" transform="translate(-54.928 0.002)" fill="#e46666"/>
        <g id="Group_150" data-name="Group 150" transform="translate(51.634 42.358)">
          <path id="Path_146" data-name="Path 146" d="M220.37,83.656c-1,2.841-3.952,4.837-5.183,4.769-2.019-.108-2.682-3.38-1.928-6.487s2.954-5.245,4.916-4.769C220.818,77.816,221.431,80.64,220.37,83.656Z" transform="translate(-153.82 -77.103)" fill="#f9dacd"/>
          <path id="Path_147" data-name="Path 147" d="M109.163,83.656c1,2.841,3.952,4.837,5.183,4.769,2.019-.108,2.682-3.38,1.928-6.487s-2.954-5.245-4.916-4.769C108.715,77.816,108.1,80.64,109.163,83.656Z" transform="translate(-108.67 -77.103)" fill="#f9dacd"/>
        </g>
        <path id="Path_148" data-name="Path 148" d="M174.712,38.441c0,23.289-13.643,42.166-29.266,42.166S116.18,61.73,116.18,38.441s13.1-28.211,29.266-28.211S174.712,15.152,174.712,38.441Z" transform="translate(-60.264 -4.428)" fill="#f9dacd"/>
        <ellipse id="Ellipse_26" data-name="Ellipse 26" cx="2.206" cy="2.818" rx="2.206" ry="2.818" transform="translate(73.924 41.204)" fill="#333"/>
        <path id="Path_149" data-name="Path 149" d="M142.36,76.67a14.739,14.739,0,0,0,3.658,1.832" transform="translate(-70.165 -34.483)" fill="#fff" stroke="#333" stroke-linecap="round" stroke-miterlimit="10" stroke-width="1.3"/>
        <ellipse id="Ellipse_27" data-name="Ellipse 27" cx="2.206" cy="2.818" rx="2.206" ry="2.818" transform="translate(92.775 41.204)" fill="#333"/>
        <path id="Path_150" data-name="Path 150" d="M191.5,76.67A14.739,14.739,0,0,1,187.84,78.5" transform="translate(-92.58 -34.483)" fill="#fff" stroke="#333" stroke-linecap="round" stroke-miterlimit="10" stroke-width="1.3"/>
        <path id="Path_151" data-name="Path 151" d="M132.12,64.572s4.009-5.461,13.065-3.482" transform="translate(-65.549 -26.26)" fill="none" stroke="#333" stroke-linecap="round" stroke-miterlimit="10" stroke-width="1.3"/>
        <path id="Path_152" data-name="Path 152" d="M166.211,89.57s-4.242,2.382,0,3.89" transform="translate(-80.896 -40.301)" fill="none" stroke="#333" stroke-linecap="round" stroke-miterlimit="10" stroke-width="1.3"/>
        <path id="Path_153" data-name="Path 153" d="M155.87,106.63s7.258,6.969,14.341.346" transform="translate(-77.405 -47.971)" fill="none" stroke="#333" stroke-linecap="round" stroke-miterlimit="10" stroke-width="1.3"/>
        <path id="Path_154" data-name="Path 154" d="M125.2,21.937s-3.368,17.772-13.354,22.183a68.655,68.655,0,0,1,0-18.815c1.508-8.943,8.6-20.675,32.986-19.745S175.9,23.1,175.143,34.826s-1.73,11.347-1.73,11.347S133.334,36.919,125.2,21.937Z" transform="translate(-58.099 -2.384)" fill="#e46666"/>
        <g id="Group_151" data-name="Group 151" transform="translate(63.18 88.583)">
          <path id="Path_155" data-name="Path 155" d="M128.929,161.87a5.459,5.459,0,0,0,1.372,3.408c-.522-1.883-.794-3.062-.794-3.062Z" transform="translate(-128.928 -161.87)" fill="#f1a69a"/>
          <path id="Path_156" data-name="Path 156" d="M205.592,161.87l-.578.346s-.272,1.179-.794,3.062A5.459,5.459,0,0,0,205.592,161.87Z" transform="translate(-161.525 -161.87)" fill="#f1a69a"/>
          <path id="Path_157" data-name="Path 157" d="M152.018,173.874c-13.275-.136-18.565-3.357-20.658-5.994a87.579,87.579,0,0,0,6.612,17.261c3.538,6.51,10.111,9.062,13.2,9.935v.4s.312-.051.845-.181c.533.125.845.181.845.181v-.4c3.09-.873,9.663-3.425,13.2-9.935a87.58,87.58,0,0,0,6.612-17.261c-2.092,2.637-7.383,5.858-20.658,5.994Z" transform="translate(-129.981 -164.472)" fill="#f1a69a"/>
        </g>
        <ellipse id="Ellipse_28" data-name="Ellipse 28" cx="4.576" cy="2.818" rx="4.576" ry="2.818" transform="translate(93.399 48.149)" fill="#f9c8c2"/>
        <ellipse id="Ellipse_29" data-name="Ellipse 29" cx="4.576" cy="2.818" rx="4.576" ry="2.818" transform="translate(66.756 48.149)" fill="#f9c8c2"/>
        <path id="Path_158" data-name="Path 158" d="M221.63,191.589s13.2,21.208,17.159,26.8a81.125,81.125,0,0,0,8.96,10.462c1.111,1.145,2.376,1.5,4.44-.646s15.061-19.632,15.061-19.632l-8.324-4.8s-5.79,7.309-8.483,14.114c-11.177-20.488-27.429-45.28-27.429-45.28L221.63,191.6Z" transform="translate(-115.2 -78.797)" fill="#f9c8c2"/>
        <path id="Path_159" data-name="Path 159" d="M90.956,169.606s-2.773.714-4.6,7.95-3.17,14.687-5.472,22.5-3.567,10.6-6.26,14.829S64.48,228.7,64.48,228.7l6.975,6.232s3.8-5.444,8.166-10.746S93.06,197.408,93.06,197.408l-2.1-27.809Z" transform="translate(-32.392 -77.674)" fill="#f9c8c2"/>
        <path id="Path_160" data-name="Path 160" d="M163.05,224.077c-.164-11.7,7.706-58.089,7.706-58.089s-7.321-4.332-11.982-4.718c0,0-9.152,26.079-21.338,29.306C125.25,187.349,116.1,161.27,116.1,161.27c-4.661.386-11.982,4.718-11.982,4.718s7.865,46.385,7.706,58.089-14.142,40.04-14.142,40.04v1.094h79.513v-1.094s-13.978-28.336-14.142-40.04Z" transform="translate(-52.322 -75.564)" fill="#fdf7ea"/>
      </g>
    </g>
  </g>
</svg>
