<svg xmlns="http://www.w3.org/2000/svg" width="338" height="327.786" viewBox="0 0 338 327.786">
  <g id="Group_368" data-name="Group 368" transform="translate(20092 -7700.214)">
    <text id="購入発注依頼" transform="translate(-20034 7882)" fill="#fff" font-size="12" font-family="NotoSansJP-Regular, Noto Sans JP"><tspan x="0" y="0">購入発注依頼</tspan></text>
    <text id="設置_メンテナンス_管理" data-name="設置・
メンテナンス・
管理" transform="translate(-19895 7865)" fill="#fff" font-size="12" font-family="NotoSansJP-Regular, Noto Sans JP"><tspan x="0" y="0">設置・</tspan><tspan x="0" y="17">メンテナンス・</tspan><tspan x="0" y="34">管理</tspan></text>
    <text id="神奈川給湯器_交換センター" data-name="神奈川給湯器
交換センター" transform="translate(-19928 8010)" fill="#fff" font-size="10" font-family="NotoSansJP-Regular, Noto Sans JP"><tspan x="-30" y="0">神奈川給湯器</tspan><tspan x="-30" y="15">交換センター</tspan></text>
    <g id="Layer_2" data-name="Layer 2" transform="translate(-19943 7945.758)">
      <rect id="Rectangle_48" data-name="Rectangle 48" width="30.931" height="40.973" rx="2.95" transform="translate(0 0)" fill="none" stroke="#fff" stroke-linecap="round" stroke-linejoin="round" stroke-width="2"/>
      <rect id="Rectangle_49" data-name="Rectangle 49" width="19.477" height="3.438" rx="1.719" transform="translate(5.731 6.21)" fill="none" stroke="#fff" stroke-linecap="round" stroke-linejoin="round" stroke-width="2"/>
      <g id="Group_64" data-name="Group 64" transform="translate(4.162 36.79)">
        <line id="Line_23" data-name="Line 23" x2="5.021" fill="none" stroke="#fff" stroke-linecap="round" stroke-linejoin="round" stroke-width="2"/>
        <line id="Line_24" data-name="Line 24" x2="5.021" transform="translate(8.281)" fill="none" stroke="#fff" stroke-linecap="round" stroke-linejoin="round" stroke-width="2"/>
        <line id="Line_25" data-name="Line 25" x2="5.021" transform="translate(17.586)" fill="none" stroke="#fff" stroke-linecap="round" stroke-linejoin="round" stroke-width="2"/>
      </g>
      <g id="Group_65" data-name="Group 65" transform="translate(5.079 41.052)">
        <line id="Line_26" data-name="Line 26" y1="2.801" fill="none" stroke="#fff" stroke-linecap="round" stroke-linejoin="round" stroke-width="2"/>
        <line id="Line_27" data-name="Line 27" y1="2.801" transform="translate(6.927)" fill="none" stroke="#fff" stroke-linecap="round" stroke-linejoin="round" stroke-width="2"/>
        <line id="Line_28" data-name="Line 28" y1="2.801" transform="translate(13.846)" fill="none" stroke="#fff" stroke-linecap="round" stroke-linejoin="round" stroke-width="2"/>
        <line id="Line_29" data-name="Line 29" y1="2.801" transform="translate(20.766)" fill="none" stroke="#fff" stroke-linecap="round" stroke-linejoin="round" stroke-width="2"/>
      </g>
    </g>
    <text id="お客様" transform="translate(-19943 7832.358)" fill="#fff" font-size="10" font-family="NotoSansJP-Regular, Noto Sans JP"><tspan x="0" y="0">お客様</tspan></text>
    <g id="Group_103" data-name="Group 103" transform="translate(-20043.488 7795.737)">
      <g id="Group_101" data-name="Group 101" transform="translate(190.541 0)">
        <path id="Path_25" data-name="Path 25" d="M241.645,195.078a105.3,105.3,0,0,0,.69-160.561" transform="translate(-237.127 -29.703)" fill="none" stroke="#fff" stroke-width="2"/>
        <path id="Polygon_5" data-name="Polygon 5" d="M2.507,0,5.014,5.731H0Z" transform="matrix(0.616, -0.788, 0.788, 0.616, 0, 3.951)" fill="#fff"/>
      </g>
      <g id="Group_102" data-name="Group 102" transform="translate(0 0)">
        <path id="Path_25-2" data-name="Path 25" d="M279.148,34.517a105.3,105.3,0,0,0-.69,160.561" transform="translate(-241.645 -34.517)" fill="none" stroke="#fff" stroke-width="2"/>
        <path id="Polygon_5-2" data-name="Polygon 5" d="M2.507,0,5.014,5.731H0Z" transform="matrix(-0.616, 0.788, -0.788, -0.616, 42.021, 161.423)" fill="#fff"/>
      </g>
    </g>
    <g id="Group_205" data-name="Group 205" transform="translate(-20092.512 7703.642)">
      <g id="Union_2" data-name="Union 2" transform="translate(116.512 64.358) rotate(180)" fill="none">
        <path d="M20.024,64a10,10,0,0,1-10-10V15.818L0,7.08H10.457A10,10,0,0,1,20.024,0H106a10,10,0,0,1,10,10V54a10,10,0,0,1-10,10Z" stroke="none"/>
        <path d="M 106.0002059936523 62.99990463256836 C 110.962760925293 62.99990463256836 115.0000991821289 58.96256637573242 115.0000991821289 53.99999618530273 L 115.0000991821289 9.999904632568359 C 115.0000991821289 5.03733491897583 110.962760925293 0.999996542930603 106.0002059936523 0.999996542930603 L 20.02409553527832 0.999996542930603 C 18.05648040771484 0.999996542930603 16.18783378601074 1.623258113861084 14.62015724182129 2.802396535873413 C 13.10275745391846 3.943719625473022 11.96403408050537 5.566519737243652 11.41377258300781 7.3718581199646 L 11.19783401489258 8.080304145812988 L 2.66918158531189 8.080304145812988 L 11.02420330047607 15.36288928985596 L 11.02420330047607 53.99999618530273 C 11.02420330047607 58.96256637573242 15.06154155731201 62.99990463256836 20.02409553527832 62.99990463256836 L 106.0002059936523 62.99990463256836 M 106.0002059936523 63.99990463256836 L 20.02409553527832 63.99990463256836 C 14.50169563293457 63.99990463256836 10.02420330047607 59.5233039855957 10.02420330047607 53.99999618530273 L 10.02420330047607 15.81781196594238 L 3.437218310864409e-06 7.080304145812988 L 10.45721912384033 7.080304145812988 C 11.70643424987793 2.981842756271362 15.51726531982422 -3.437218310864409e-06 20.02409553527832 -3.437218310864409e-06 L 106.0002059936523 -3.437218310864409e-06 C 111.5226058959961 -3.437218310864409e-06 116.0000991821289 4.477504253387451 116.0000991821289 9.999904632568359 L 116.0000991821289 53.99999618530273 C 116.0000991821289 59.5233039855957 111.5226058959961 63.99990463256836 106.0002059936523 63.99990463256836 Z" stroke="none" fill="#fff"/>
      </g>
      <text id="設置も工事も_修理も管理も_何から何まで" data-name="設置も工事も
修理も管理も
何から何まで" transform="translate(23.011 6.447)" fill="#fff" font-size="10" font-family="NotoSansJP-Regular, Noto Sans JP"><tspan x="0" y="12">設置も工事も</tspan><tspan x="0" y="27">修理も管理も</tspan><tspan x="0" y="42">何から何まで</tspan></text>
    </g>
    <g id="Group_206" data-name="Group 206" transform="translate(-19870.488 7703.642)">
      <g id="Union_6" data-name="Union 6" transform="translate(0.487 0.358)" fill="none">
        <path d="M20.024,64a10,10,0,0,1-9.567-7.079H0l10.024-8.738V10a10,10,0,0,1,10-10H106a10,10,0,0,1,10,10V54a10,10,0,0,1-10,10Z" stroke="none"/>
        <path d="M 106.0002059936523 62.99990463256836 C 110.962760925293 62.99990463256836 115.0000991821289 58.96256637573242 115.0000991821289 53.99999618530273 L 115.0000991821289 9.999904632568359 C 115.0000991821289 5.03733491897583 110.962760925293 0.999996542930603 106.0002059936523 0.999996542930603 L 20.02409553527832 0.999996542930603 C 15.06154155731201 0.999996542930603 11.02420330047607 5.03733491897583 11.02420330047607 9.999904632568359 L 11.02420330047607 48.63708877563477 L 2.66899299621582 55.92050552368164 L 11.19794178009033 55.92050552368164 L 11.41391086578369 56.62887191772461 C 11.96431159973145 58.43407440185547 13.10306453704834 60.05670547485352 14.62043380737305 61.19784164428711 C 16.18803405761719 62.37676620483398 18.05658721923828 62.99990463256836 20.02409553527832 62.99990463256836 L 106.0002059936523 62.99990463256836 M 106.0002059936523 63.99990463256836 L 20.02409553527832 63.99990463256836 C 15.51760387420654 63.99990463256836 11.70691108703613 61.01874923706055 10.45738792419434 56.92050552368164 L 3.437218310864409e-06 56.92050552368164 L 10.02420330047607 48.18219757080078 L 10.02420330047607 9.999904632568359 C 10.02420330047607 4.477504253387451 14.50169563293457 -3.437218310864409e-06 20.02409553527832 -3.437218310864409e-06 L 106.0002059936523 -3.437218310864409e-06 C 111.5226058959961 -3.437218310864409e-06 116.0000991821289 4.477504253387451 116.0000991821289 9.999904632568359 L 116.0000991821289 53.99999618530273 C 116.0000991821289 59.5233039855957 111.5226058959961 63.99990463256836 106.0002059936523 63.99990463256836 Z" stroke="none" fill="#fff"/>
      </g>
      <text id="神奈川給湯器交換センターさんに安心してお任せ_" data-name="神奈川給湯器交換センターさんに安心してお任せ！" transform="translate(18.625 6.805)" fill="#fff" font-size="10" font-family="NotoSansJP-Regular, Noto Sans JP"><tspan x="0" y="12">神奈川給湯器交換セ</tspan><tspan x="0" y="27">ンターさんに安心し</tspan><tspan x="0" y="42">てお任せ！</tspan></text>
    </g>
    <g id="b" transform="translate(-19981 7700.214)">
      <g id="c" transform="translate(0 0)">
        <g id="Group_211" data-name="Group 211">
          <path id="Path_70" data-name="Path 70" d="M289.4,186.523l1.265-3.257s-.092-2.727-.389-4.793-.893-4.058,0-4.96a12.733,12.733,0,0,1,2.537-1.772s4.937-6.033,5.624-6.526,1.919-.621,1.144.866-2.743,4.545-2.743,4.545a3.445,3.445,0,0,1,2.331.454,23.126,23.126,0,0,1,2.423,2.433c.412.294.366,1.782.092,2.606a3.911,3.911,0,0,1-1.053,1.488s.778.373-1.007,2.645-4.434,3.214-4.663,3.629-2.583,3.587-2.583,3.587l-2.979-.945Z" transform="translate(-194.773 -110.965)" fill="#f9ddd0"/>
          <path id="Path_71" data-name="Path 71" d="M21.694,274.74a23.961,23.961,0,0,1-3.08,3.505c-1.144.827-1.144,1.2-2.743,1.775a27.208,27.208,0,0,1-6.719,1.321c-2.057.082-6.674.621-7.589.7s-2.331.5-1.053,1.569,2.286,1.818,6.124,1.818,6.307.373,6.994.373.824.373.824,1.363a4.083,4.083,0,0,1-.732,2.312c-.366.536,0,1.9.916.827a42.334,42.334,0,0,0,3.247-4.378,24.354,24.354,0,0,0,1.324-2.521c.732-1.569.046-.206.046-.206s3.175-3.4,5.277-5.676l-2.838-2.786Z" transform="translate(0.001 -184.906)" fill="#f9ddd0"/>
          <path id="Path_72" data-name="Path 72" d="M148.038,139.528c-2.21-.6-1.874-1.475-2.312-4.019a9.3,9.3,0,0,1,0-3.95l-4.1.592-4.1-.592a9.3,9.3,0,0,1,0,3.95c-.435,2.544-.1,3.414-2.312,4.019s-6.294,1.942-6.294,1.942l.6,7.769h24.219l.6-7.769s-4.084-1.341-6.294-1.942Z" transform="translate(-86.766 -88.542)" fill="#fadfd3"/>
          <path id="Path_73" data-name="Path 73" d="M127.659,42.748h3.149s-.258,2.276,2.684,4.689,6.036,2.21,7.8.87,1.53-5.091.173-6.765-4.771-3.214-4.771-3.214,7.3-5.156,8.305-14.2S141.857,4.106,131.011.859A20.434,20.434,0,0,0,112.386,4.6a18.613,18.613,0,0,0-7.694,12.1c-1.475,8.305-.736,8.907,2.076,14.734S122.64,42.748,122.64,42.748h5.022Z" transform="translate(-69.961 0.002)" fill="#e46666"/>
          <g id="Group_209" data-name="Group 209" transform="translate(35.533 25.211)">
            <path id="Path_74" data-name="Path 74" d="M217.232,80.882c-.575,1.638-2.279,2.789-2.989,2.75-1.164-.062-1.547-1.949-1.112-3.741s1.7-3.025,2.835-2.75C217.49,77.514,217.843,79.142,217.232,80.882Z" transform="translate(-178.858 -77.103)" fill="#f9dacd"/>
            <path id="Path_75" data-name="Path 75" d="M108.955,80.882c.575,1.638,2.279,2.789,2.989,2.75,1.164-.062,1.547-1.949,1.112-3.741s-1.7-3.025-2.835-2.75C108.7,77.514,108.343,79.142,108.955,80.882Z" transform="translate(-108.67 -77.103)" fill="#f9dacd"/>
          </g>
          <path id="Path_76" data-name="Path 76" d="M149.93,26.5c0,13.429-7.867,24.314-16.875,24.314S116.18,39.926,116.18,26.5s7.556-16.267,16.875-16.267S149.93,13.068,149.93,26.5Z" transform="translate(-78.191 -6.884)" fill="#f9dacd"/>
          <ellipse id="Ellipse_21" data-name="Ellipse 21" cx="1.272" cy="1.625" rx="1.272" ry="1.625" transform="translate(47.687 24.501)" fill="#333"/>
          <path id="Path_77" data-name="Path 77" d="M142.36,76.67a8.5,8.5,0,0,0,2.109,1.056" transform="translate(-95.811 -51.6)" fill="#fff" stroke="#333" stroke-linecap="round" stroke-miterlimit="10" stroke-width="1.3"/>
          <ellipse id="Ellipse_22" data-name="Ellipse 22" cx="1.272" cy="1.625" rx="1.272" ry="1.625" transform="translate(59.847 24.501)" fill="#333"/>
          <path id="Path_78" data-name="Path 78" d="M189.949,76.67a8.5,8.5,0,0,1-2.109,1.056" transform="translate(-126.42 -51.6)" fill="#fff" stroke="#333" stroke-linecap="round" stroke-miterlimit="10" stroke-width="1.3"/>
          <path id="Path_79" data-name="Path 79" d="M132.12,62.915s2.312-3.149,7.534-2.008" transform="translate(-88.919 -40.824)" fill="none" stroke="#333" stroke-linecap="round" stroke-miterlimit="10" stroke-width="1.3"/>
          <path id="Path_80" data-name="Path 80" d="M165.413,89.57s-2.446,1.373,0,2.243" transform="translate(-110.595 -60.282)" fill="none" stroke="#333" stroke-linecap="round" stroke-miterlimit="10" stroke-width="1.3"/>
          <path id="Path_81" data-name="Path 81" d="M155.87,106.63s4.185,4.019,8.269.2" transform="translate(-104.904 -71.764)" fill="none" stroke="#333" stroke-linecap="round" stroke-miterlimit="10" stroke-width="1.3"/>
          <path id="Path_82" data-name="Path 82" d="M119.265,14.981s-1.942,10.247-7.7,12.791a39.588,39.588,0,0,1,0-10.849c.87-5.156,4.957-11.922,19.02-11.385S148.5,15.652,148.061,22.414s-1,6.543-1,6.543S123.953,23.62,119.265,14.981Z" transform="translate(-74.825 -3.707)" fill="#e46666"/>
          <g id="Group_210" data-name="Group 210" transform="translate(42.157 52.928)">
            <path id="Path_83" data-name="Path 83" d="M128.928,161.87a3.148,3.148,0,0,0,.791,1.965c-.3-1.086-.458-1.766-.458-1.766Z" transform="translate(-128.928 -161.87)" fill="#f1a69a"/>
            <path id="Path_84" data-name="Path 84" d="M205.011,161.87l-.334.2s-.157.68-.458,1.766A3.148,3.148,0,0,0,205.011,161.87Z" transform="translate(-179.601 -161.87)" fill="#f1a69a"/>
            <path id="Path_85" data-name="Path 85" d="M143.272,171.336c-7.655-.078-10.705-1.936-11.912-3.456a50.5,50.5,0,0,0,3.813,9.953,12.516,12.516,0,0,0,7.612,5.729v.229s.18-.029.487-.1c.307.072.487.1.487.1v-.229a12.516,12.516,0,0,0,7.612-5.729,50.5,50.5,0,0,0,3.813-9.953C153.977,169.4,150.926,171.258,143.272,171.336Z" transform="translate(-130.565 -165.915)" fill="#f1a69a"/>
          </g>
          <ellipse id="Ellipse_23" data-name="Ellipse 23" cx="2.639" cy="1.625" rx="2.639" ry="1.625" transform="translate(60.442 28.631)" fill="#f9c8c2"/>
          <ellipse id="Ellipse_24" data-name="Ellipse 24" cx="2.639" cy="1.625" rx="2.639" ry="1.625" transform="translate(43.201 28.631)" fill="#f9c8c2"/>
          <path id="Path_86" data-name="Path 86" d="M221.63,183.554s7.609,12.229,9.894,15.453a46.78,46.78,0,0,0,5.166,6.033c.641.66,1.37.866,2.56-.373s8.684-11.32,8.684-11.32l-4.8-2.766a39,39,0,0,0-4.892,8.138c-6.445-11.814-15.816-26.109-15.816-26.109l-.8,10.947Z" transform="translate(-149.162 -116.17)" fill="#f9c8c2"/>
          <path id="Path_87" data-name="Path 87" d="M79.747,169.6s-1.6.412-2.652,4.584-1.828,8.469-3.155,12.971-2.057,6.114-3.61,8.55-5.85,7.972-5.85,7.972l4.022,3.593s2.194-3.139,4.708-6.2,7.749-15.443,7.749-15.443L79.747,169.6Z" transform="translate(-43.396 -114.144)" fill="#f9c8c2"/>
          <path id="Path_88" data-name="Path 88" d="M135.374,197.486c-.095-6.749,4.444-33.5,4.444-33.5s-4.221-2.5-6.909-2.72c0,0-5.277,15.038-12.3,16.9-7.027-1.86-12.3-16.9-12.3-16.9-2.688.222-6.909,2.72-6.909,2.72s4.535,26.747,4.444,33.5-8.155,23.088-8.155,23.088v.631h45.849v-.631S135.469,204.235,135.374,197.486Z" transform="translate(-65.741 -108.538)" fill="#fdf7ea"/>
        </g>
      </g>
    </g>
  </g>
</svg>
