<svg xmlns="http://www.w3.org/2000/svg" width="646.88" height="349.979" viewBox="0 0 646.88 349.979">
  <g id="Group_449" data-name="Group 449" transform="translate(-160 -3724)">
    <g id="Group_443" data-name="Group 443">
      <g id="Group_442" data-name="Group 442">
        <g id="Group_1" data-name="Group 1" transform="translate(288.254 3543.431)">
          <path id="Path_1" data-name="Path 1" d="M457.118,347.291q4.863-4.339,9.688-8.721c8.21.7,16.444,1,24.65,1.733-.371,7.843-.647,15.7-.952,23.552a1.874,1.874,0,0,1-.61,1.583c-3.007,2.672-5.94,5.424-9,8.026.221-6.382.352-12.769.774-19.142-4.621,3.01-8.952,6.472-13.451,9.67-4.795,3.5-9.608,6.979-14.389,10.492a16.072,16.072,0,0,0-3.542,2.94c-2.674,1.188-4.781,3.325-7.23,4.894-5.142,3.771-10.27,7.58-15.482,11.252-14.1.07-28.206-.085-42.3-.042-7.235,6.218-14.206,12.769-21.347,19.1a5.143,5.143,0,0,1-2.083,1.4c-.047-2.865,0-5.73-.019-8.59,7.23-6.5,14.431-13.046,21.694-19.513q21.3.141,42.6.2c12.2-8.932,24.533-17.677,36.67-26.684l.047.122c4.673-3.555,9.51-6.89,14.22-10.393.094-.15.272-.456.366-.611C470.639,348.226,463.888,347.634,457.118,347.291Z" transform="translate(0)" fill="#fff"/>
          <path id="Path_2" data-name="Path 2" d="M571.154,437.266c6.307-1.005,13.032-.629,18.879,2.113,2.334,1.193,4.922,3.071,5.175,5.9.319,3.034-2.357,5.189-4.748,6.481-5.147,2.621-11.116,3.161-16.8,2.682-4.414-.526-9.04-1.634-12.44-4.659-1.893-1.639-2.691-4.654-1.155-6.791C562.6,439.431,567.069,438.083,571.154,437.266Z" transform="translate(-104.847 -51.752)" fill="#fff"/>
          <path id="Path_3" data-name="Path 3" d="M560.958,475.645a5.445,5.445,0,0,1-1.414-5.715c2.4,4.128,7.345,5.687,11.755,6.551a34.149,34.149,0,0,0,16.865-1.343,12.709,12.709,0,0,0,6.744-5.067c1.122,2.663-.643,5.443-2.879,6.838-5.344,3.607-12.121,4.119-18.377,3.668C569.134,480.051,564.325,478.9,560.958,475.645Z" transform="translate(-104.846 -69.261)" fill="#fff"/>
          <path id="Path_4" data-name="Path 4" d="M562.06,495.312c-2-1.39-3.673-4.175-2.419-6.556,2.019,3.616,6.241,5.11,10.031,6.063a32.854,32.854,0,0,0,19.786-1.554,12.809,12.809,0,0,0,5.565-4.574,5.845,5.845,0,0,1-1.888,6.021c-4.194,3.555-9.914,4.5-15.244,4.724C572.416,499.454,566.606,498.576,562.06,495.312Z" transform="translate(-104.821 -79.153)" fill="#fff"/>
          <path id="Path_5" data-name="Path 5" d="M477.982,490.784c5.706-.132,11.8.615,16.616,3.926,2.174,1.442,3.8,4.316,2.635,6.894-1.423,2.851-4.461,4.363-7.317,5.415a33.85,33.85,0,0,1-20.551.019c-2.869-1.052-5.95-2.564-7.354-5.448-1.136-2.334.211-5.03,2.118-6.495C468.054,492.052,473.14,491.108,477.982,490.784Z" transform="translate(-52.984 -80.22)" fill="#fff"/>
          <path id="Path_6" data-name="Path 6" d="M559.537,507.04c1.883,3.372,5.64,5.034,9.2,6a34.459,34.459,0,0,0,18.165-.319c3.165-.982,6.307-2.663,8.092-5.565a5.708,5.708,0,0,1-2.17,6.284c-4.307,3.433-10.045,4.316-15.4,4.452-5.194-.094-10.726-.85-15.047-3.959l.033.2c-1.094-1.085-2.428-2.076-2.9-3.607A6.057,6.057,0,0,1,559.537,507.04Z" transform="translate(-104.848 -88.828)" fill="#fff"/>
          <path id="Path_7" data-name="Path 7" d="M497.209,523.9c1.315,2.87-.8,5.847-3.231,7.284-5.528,3.419-12.328,3.87-18.649,3.3-4.128-.559-8.425-1.667-11.633-4.466a5.743,5.743,0,0,1-1.874-6.082c2.508,4.076,7.387,5.692,11.849,6.523a33.619,33.619,0,0,0,17.766-1.7C493.738,527.723,496.133,526.3,497.209,523.9Z" transform="translate(-52.97 -97.717)" fill="#fff"/>
          <path id="Path_8" data-name="Path 8" d="M380.991,526.641a32.129,32.129,0,0,1,16.029,1.987c2.611,1.16,5.481,2.963,6.054,5.992.427,2.616-1.559,4.786-3.6,6.091-3.9,2.489-8.6,3.3-13.145,3.546-5.236.1-10.684-.667-15.268-3.339-2.005-1.24-4.1-3.208-3.9-5.776-.042-2.066,1.507-3.719,3.076-4.856A23.608,23.608,0,0,1,380.991,526.641Z" transform="translate(-2.826 -98.992)" fill="#fff"/>
          <path id="Path_9" data-name="Path 9" d="M562.541,532.84c-2.282-1.414-4.114-4.245-2.987-6.96,2.156,3.644,6.4,5.246,10.323,6.166a34.079,34.079,0,0,0,18.142-1.01c2.682-.991,5.382-2.531,6.8-5.114,1.1,2.151-.127,4.734-1.883,6.138-3.79,3.123-8.839,4.128-13.615,4.485C573.572,536.78,567.453,536.052,562.541,532.84Z" transform="translate(-104.823 -98.762)" fill="#fff"/>
          <path id="Path_10" data-name="Path 10" d="M461.836,542.56c2.851,4.546,8.482,6.068,13.478,6.763,5.8.6,11.91.141,17.212-2.466a11.845,11.845,0,0,0,4.814-4.246,5.633,5.633,0,0,1-1.93,6.086c-3.766,3.259-8.923,4.217-13.746,4.616-5.664.221-11.67-.5-16.559-3.574C462.7,548.285,460.855,545.434,461.836,542.56Z" transform="translate(-52.971 -107.556)" fill="#fff"/>
          <path id="Path_11" data-name="Path 11" d="M559.4,544.6c.892.423,1.212,1.479,1.991,2.066,3.649,3.109,8.533,4.123,13.178,4.6a33.128,33.128,0,0,0,13.291-1.639c2.8-1.024,5.6-2.588,7.11-5.269a5.381,5.381,0,0,1-.4,4.339,14.309,14.309,0,0,1-3.01,3.109l.07-.239c-5.974,3.658-13.413,4.086-20.194,3.086-4.09-.77-8.505-2.085-11.173-5.5A5.6,5.6,0,0,1,559.4,544.6Z" transform="translate(-104.858 -108.505)" fill="#fff"/>
          <path id="Path_12" data-name="Path 12" d="M369.153,565.724a5.5,5.5,0,0,1-1.733-6.035c2.057,3.644,6.251,5.213,10.1,6.166a34.174,34.174,0,0,0,18.029-.845c2.884-1,5.711-2.63,7.289-5.34.977,2.766-.719,5.579-3.043,7.021-5.063,3.283-11.342,4.015-17.245,3.691C377.822,569.955,372.844,568.9,369.153,565.724Z" transform="translate(-2.809 -116.457)" fill="#fff"/>
          <path id="Path_13" data-name="Path 13" d="M462.037,561a9.033,9.033,0,0,0,4.49,4.269c4.025,2.1,8.622,2.714,13.107,2.86,4.48-.141,9.064-.77,13.089-2.865a9.335,9.335,0,0,0,4.5-4.246c1.183,2.517-.376,5.307-2.475,6.763-4.621,3.316-10.524,4.109-16.08,4.058-5.067-.178-10.4-1.151-14.507-4.307C462.2,566.063,460.891,563.372,462.037,561Z" transform="translate(-52.993 -117.163)" fill="#fff"/>
          <path id="Path_14" data-name="Path 14" d="M562.454,568.718c-2.32-1.423-3.935-4.269-2.935-6.988,2.32,4.029,7.091,5.589,11.384,6.457,6.058,1,12.506.747,18.226-1.658a11.869,11.869,0,0,0,5.786-4.743,5.45,5.45,0,0,1-1.724,5.978c-3.522,3.128-8.359,4.17-12.915,4.659C574.2,572.8,567.648,572.165,562.454,568.718Z" transform="translate(-104.826 -117.55)" fill="#fff"/>
          <path id="Path_15" data-name="Path 15" d="M398.738,582.147a10.445,10.445,0,0,0,4.062-3.907c1.075,2.729-.643,5.481-2.893,6.955-4.645,3.1-10.426,3.907-15.9,3.837-5.326-.315-11.173-1.249-15.169-5.1a5.8,5.8,0,0,1-1.6-5.457c.967.592,1.39,1.738,2.325,2.376,4.325,3.372,10,4.241,15.333,4.429C389.637,585.181,394.544,584.51,398.738,582.147Z" transform="translate(-2.812 -126.306)" fill="#fff"/>
          <path id="Path_16" data-name="Path 16" d="M562.389,586.165c-2.245-1.494-3.926-4.231-2.879-6.965,1.794,3.217,5.34,4.847,8.726,5.842a32.914,32.914,0,0,0,21.025-1.1,13.4,13.4,0,0,0,5.762-4.631,5.793,5.793,0,0,1-1.709,5.8c-4.17,3.724-10,4.687-15.4,4.908C572.556,590.011,566.916,589.217,562.389,586.165Z" transform="translate(-104.812 -126.816)" fill="#fff"/>
          <path id="Path_17" data-name="Path 17" d="M491.919,584.329a11.252,11.252,0,0,0,5.358-4.579c1.188,2.86-.869,5.546-3.057,7.171l-.028-.117c-5.382,3.508-12.154,4.076-18.4,3.532-4.062-.5-8.256-1.5-11.544-4.062-1.893-1.428-3.25-3.879-2.442-6.274,3.283,4.335,8.824,5.978,14,6.551C481.239,587.02,486.9,586.616,491.919,584.329Z" transform="translate(-52.969 -127.107)" fill="#fff"/>
          <path id="Path_18" data-name="Path 18" d="M370.38,603.84c-2.329-1.432-4.048-4.25-2.977-7.007,2.517,4.264,7.688,5.762,12.262,6.584,5.9.8,12.126.451,17.635-1.972a11.042,11.042,0,0,0,5.448-4.645c.972,2.362-.249,4.959-2.16,6.429-3.654,2.86-8.369,3.9-12.9,4.288C381.773,607.822,375.447,607.146,370.38,603.84Z" transform="translate(-2.791 -136.15)" fill="#fff"/>
          <path id="Path_19" data-name="Path 19" d="M562.441,603.675c-2.282-1.437-3.959-4.255-2.912-6.965,2.494,4.255,7.646,5.781,12.21,6.58,6.237.888,12.9.47,18.607-2.381a10.846,10.846,0,0,0,4.56-4.175,5.606,5.606,0,0,1-1.963,6.232c-3.935,3.212-9.158,4.175-14.089,4.513C573.215,607.634,567.227,606.868,562.441,603.675Z" transform="translate(-104.822 -136.102)" fill="#fff"/>
          <path id="Path_20" data-name="Path 20" d="M464.418,604.927c-2.08-1.456-3.508-4.2-2.433-6.7,1.691,3.287,5.33,4.87,8.7,5.861a33.8,33.8,0,0,0,18.785-.282c3.076-.991,6.246-2.62,7.829-5.579.977,2.466-.333,5.194-2.4,6.641-4.372,3.226-9.994,4.081-15.3,4.2C474.336,608.942,468.781,608.083,464.418,604.927Z" transform="translate(-52.997 -136.909)" fill="#fff"/>
        </g>
        <path id="Path_502" data-name="Path 502" d="M17.32-9.5l-.44.16H13.72l.48-.78c-.46-.22-1.06-.44-1.72-.7a32.974,32.974,0,0,0,4.62-3.8l-1.7-1.34-.54.14H2.9v2.18h9.66a20.818,20.818,0,0,1-2.54,1.88c-1.12-.42-2.24-.8-3.14-1.12L5.7-11.08c1.28.48,2.9,1.12,4.38,1.74H.98v2.26h7.9V-.94c0,.3-.12.38-.5.4-.4,0-1.88,0-3.06-.04A8.1,8.1,0,0,1,6.18,1.7a12.5,12.5,0,0,0,3.94-.36C11.08,1,11.36.4,11.36-.86V-7.08h4.22a25.28,25.28,0,0,1-1.56,2.46l2.04,1.18a26.64,26.64,0,0,0,3.2-5.22Zm15,1.26H36v1.2H32.32Zm0-2.9H36v1.16H32.32Zm0-2.92H36v1.16H32.32ZM28.12-4.4a29.8,29.8,0,0,1,2.64,2.78l1.72-1.44c-.48-.56-1.34-1.4-2.12-2.12h7.92V-15.94H30.16V-5.36l-.4-.36ZM24.3-4.94h2.26V-9.12c.72.66,1.46,1.38,1.92,1.88l1.24-1.9a38.3,38.3,0,0,0-3.16-2.2v-.74h2.82V-14.1H26.56v-2.82H24.3v2.82H21.02v2.02h2.9a11.928,11.928,0,0,1-3.4,4.46,8.461,8.461,0,0,1,1.52,1.64,11.5,11.5,0,0,0,2.26-2.9ZM22.84.64a19.549,19.549,0,0,0,1.68-4.36L22.4-4.56A13.683,13.683,0,0,1,20.66-.44Zm6.04-1.4c-1.08,0-1.28-.08-1.28-.68v-2.7H25.24V-1.4c0,2.08.7,2.74,3.42,2.74h3.6c2.2,0,2.86-.7,3.16-3.56a5.778,5.778,0,0,1-2.14-.84c-.12,2.02-.26,2.3-1.2,2.3Zm5.98-3.1c.78,1.34,1.88,3.1,2.36,4.16L39.44-.84c-.54-1.04-1.7-2.74-2.5-3.98ZM49.72-16.04l-2.64-.22a11.119,11.119,0,0,1-.4,2.3h-.96a26.023,26.023,0,0,1-3.52-.24v2.34c1.1.08,2.56.12,3.38.12h.26a19.628,19.628,0,0,1-4.42,5.52l2.14,1.6a23.027,23.027,0,0,1,1.86-2.2A4.872,4.872,0,0,1,48.54-8.2a1.539,1.539,0,0,1,1.4.68c-2.28,1.18-4.68,2.78-4.68,5.34,0,2.58,2.32,3.34,5.46,3.34A50.031,50.031,0,0,0,56.38.82l.08-2.58a32.718,32.718,0,0,1-5.68.56c-1.96,0-2.9-.3-2.9-1.4,0-1,.8-1.78,2.3-2.64-.02.88-.04,1.84-.1,2.44h2.4c-.02-.92-.06-2.4-.08-3.52,1.22-.56,2.36-1,3.26-1.36.68-.26,1.74-.66,2.38-.84l-1-2.32c-.74.38-1.44.7-2.22,1.04-.82.36-1.66.7-2.7,1.18a2.708,2.708,0,0,0-2.66-1.54,6.777,6.777,0,0,0-2.26.4,13.964,13.964,0,0,0,1.14-2.04,59.578,59.578,0,0,0,6.52-.5l.02-2.32a50.633,50.633,0,0,1-5.66.58A19.134,19.134,0,0,0,49.72-16.04ZM66.8-4.66h2.64V-6.72H66.8V-8.9h2.88v-.92a13.253,13.253,0,0,1,1.24,1,7.492,7.492,0,0,0,3.36-5.4H76.4a7.324,7.324,0,0,1-.42,2.78.74.74,0,0,1-.58.2,14.078,14.078,0,0,1-1.62-.08,4.715,4.715,0,0,1,.58,2,15.075,15.075,0,0,0,2.22-.04,1.946,1.946,0,0,0,1.34-.68c.48-.56.66-2.02.8-5.34.02-.28.02-.82.02-.82H69.92v1.98h2.14a5.363,5.363,0,0,1-2.38,3.72V-11H66.5v-1.84h2.84V-14.9H66.5v-2.02H64.3v2.02H61.38v2.06H64.3V-11H60.92v2.1h3.76v5.98a6.028,6.028,0,0,1-1.12-2.12c.04-.88.08-1.8.08-2.72L61.56-7.9c-.02,3.4-.18,6.62-1.18,8.6a13.25,13.25,0,0,1,1.9,1.04A14.513,14.513,0,0,0,63.2-1.5c1.58,2.24,3.96,2.74,7.68,2.74h7.76a9.479,9.479,0,0,1,.9-2.36c-1.8.1-7.14.1-8.66.08A13.326,13.326,0,0,1,66.8-1.5Zm5.84-1.98H75.9v2.48H72.64ZM70.42-2.28h7.84V-8.56H70.42ZM86.24-16.22l-.38,2.32c2.38.4,6.12.84,8.22,1l.32-2.34C92.32-15.38,88.48-15.8,86.24-16.22ZM95.1-9.86l-1.46-1.66a6.41,6.41,0,0,1-1.14.22c-1.66.22-6.2.42-7.14.42a17.7,17.7,0,0,1-1.92-.06l.24,2.76c.42-.06,1.02-.16,1.72-.22,1.14-.1,3.54-.32,4.94-.36-1.82,1.92-5.92,6-6.94,7.04-.54.52-1.02.94-1.38,1.24l2.36,1.66c1.38-1.76,2.88-3.4,3.56-4.1a2.123,2.123,0,0,1,1.32-.8c.4,0,.84.26,1.06.96.14.5.38,1.44.58,2.04C91.4.58,92.42,1,94.32,1A29.208,29.208,0,0,0,98.24.7l.16-2.62a20.626,20.626,0,0,1-3.92.36,1.272,1.272,0,0,1-1.4-.94c-.18-.52-.4-1.28-.58-1.82a1.9,1.9,0,0,0-1.2-1.36,2.2,2.2,0,0,0-.76-.14c.48-.52,2.34-2.24,3.26-3.02C94.16-9.14,94.58-9.5,95.1-9.86Zm12.1,7.5c0-.5.48-.96,1.24-.96,1.08,0,1.82.84,1.94,2.14a10.441,10.441,0,0,1-1.16.06C108.02-1.12,107.2-1.62,107.2-2.36Zm-3.4-12.88.08,2.6c.46-.06,1.1-.12,1.64-.16,1.06-.06,3.82-.18,4.84-.2-.98.86-3.06,2.54-4.18,3.46-1.18.98-3.6,3.02-5.02,4.16l1.82,1.88c2.14-2.44,4.14-4.06,7.2-4.06,2.36,0,4.16,1.22,4.16,3.02a2.9,2.9,0,0,1-1.66,2.72,4,4,0,0,0-4.26-3.42,3.351,3.351,0,0,0-3.58,3.12c0,2,2.1,3.28,4.88,3.28,4.84,0,7.24-2.5,7.24-5.66,0-2.92-2.58-5.04-5.98-5.04a7.813,7.813,0,0,0-1.9.22c1.26-1,3.36-2.76,4.44-3.52.46-.34.94-.62,1.4-.92l-1.3-1.78a8.738,8.738,0,0,1-1.52.22c-1.14.1-5.42.18-6.48.18A13.879,13.879,0,0,1,103.8-15.24Zm19.82-1.64a22.649,22.649,0,0,1-3.96,7.72A18.7,18.7,0,0,1,120.8-6.6a15.989,15.989,0,0,0,1.26-1.68v10h2.26V-12.44c.56-1.24,1.06-2.54,1.48-3.78Zm3.88,5.52a11.429,11.429,0,0,1,1.18.96,11.021,11.021,0,0,0,1.16-1.2,13.258,13.258,0,0,0,1.48,1.54,15.2,15.2,0,0,1-3.82,1.48Zm7.02-1.66a7.792,7.792,0,0,1-1.6,1.84A9.4,9.4,0,0,1,131-13.02Zm3.98,0v-1.92H132a14.073,14.073,0,0,0,.64-1.5l-2.14-.5a12.158,12.158,0,0,1-3,4.66V-14.4h-2.06V-1.6h2.06V-8.12a8.733,8.733,0,0,1,1.04,1.44,17.245,17.245,0,0,0,4.56-2.06,15.1,15.1,0,0,0,4.76,1.9,9.586,9.586,0,0,1,1.28-1.9,15.513,15.513,0,0,1-4.36-1.34A10.844,10.844,0,0,0,137-13.02Zm-3.34,7.08c-1.32,1.32-3.92,2.32-6.42,2.84a7.262,7.262,0,0,1,1.16,1.48,14.568,14.568,0,0,0,6.96-3.62ZM133.2-7.76a12,12,0,0,1-4.6,2.16,6.177,6.177,0,0,1,1.26,1.36,12.938,12.938,0,0,0,5.08-2.8Zm3.4,4.08c-1.72,1.88-5.18,2.96-8.86,3.46a8.29,8.29,0,0,1,1.2,1.88c4.08-.74,7.62-2.08,9.7-4.52Zm9.98-.82c-.64.22-1.3.42-1.96.62v-4h1.8v-2.18h-1.8v-3.52h2.14V-15.8h-6.6v2.22h2.2v3.52h-2.02v2.18h2.02v4.7c-.92.26-1.74.48-2.44.66l.54,2.42c1.92-.62,4.32-1.38,6.52-2.16Zm3.08-6.04h2.06v1.72h-2.06Zm0-3.54h2.06v1.68h-2.06Zm6.04,1.68h-1.98v-1.68h1.98Zm0,3.58h-1.98v-1.72h1.98Zm-1.76,7.78v-1.9h4.24V-5.08h-4.24V-6.8h4.02v-9.3H147.52v9.3h4v1.72h-4.14v2.14h4.14v1.9H146V1.12h12.86V-1.04Zm24.42-12.54a18.065,18.065,0,0,0-2.88-3.22l-1.78,1.1a17.017,17.017,0,0,1,2.74,3.36Zm-13.26-3.2a20.9,20.9,0,0,1-5.46,7.8,15.275,15.275,0,0,1,1.32,2.42,18.845,18.845,0,0,0,2.08-2.24V1.7h2.48V-12.36a31.774,31.774,0,0,0,1.86-3.68ZM178.66-9.6l-.34-2.24-5.7.74c-.14-1.7-.22-3.58-.26-5.54h-2.42c.06,2.1.18,4.06.32,5.86l-4.04.54.34,2.3,3.94-.54c.72,6.1,2.3,9.86,5.68,10.18,1.12.06,2.2-.86,2.7-4.72a8.183,8.183,0,0,1-1.94-1.36c-.16,2.22-.4,3.22-.86,3.18-1.6-.2-2.66-3.16-3.22-7.6Z" transform="translate(628 4040.679)" fill="#fff"/>
      </g>
      <g id="Group_424" data-name="Group 424" transform="translate(108.207 -473.189)">
        <path id="Path_22" data-name="Path 22" d="M-12642.582-3699.807l8.572,8.572-8.572,8.573" transform="translate(13140.302 8122.603)" fill="none" stroke="#fff" stroke-linecap="round" stroke-linejoin="round" stroke-width="2"/>
        <line id="Line_30" data-name="Line 30" x2="26.5" transform="translate(479.792 4431.368)" fill="none" stroke="#fff" stroke-linecap="round" stroke-width="2"/>
      </g>
      <g id="Group_441" data-name="Group 441">
        <path id="Path_501" data-name="Path 501" d="M-92.8-15.94a31.029,31.029,0,0,1-1.12,4.7l1.52.42c.52-1.18,1.1-3.08,1.62-4.7Zm-3.54,4.72a18.169,18.169,0,0,0-1.04-4.6l-1.66.42a19.823,19.823,0,0,1,.92,4.64Zm5.24,6.56a40.747,40.747,0,0,0-2.84-3.12V-8.1h2.7v-2.22h-2.7v-6.6h-2.2v6.6h-2.88V-8.1h2.34a19.086,19.086,0,0,1-2.66,5.18,15.923,15.923,0,0,1,1.1,2.46,18.985,18.985,0,0,0,2.1-4.42V1.7h2.2V-5.18a22.427,22.427,0,0,1,1.4,2.38Zm3.08.78h3.48V-.84h-3.48Zm3.48-10.08v2.9h-3.48v-2.9Zm0,7.96h-3.48V-8.94h3.48Zm2.4,5.16V-16.16H-90.3V-.84h-1.84v2.2h11.48V-.84Zm11.06-6.88h1.9v1.06h-1.9Zm-4.08-1.82v-1.8h1.8v1.8Zm4.08-4.68h1.9v1.08h-1.9Zm1.9,4.68h-1.9v-1.8h1.9Zm4.2-1.8v1.8h-1.9v-1.8Zm-7.66,7.32a13.364,13.364,0,0,1,3.36,2.34l1.62-1.36a12.034,12.034,0,0,0-2.24-1.6h8.82V-6.66h-5.8V-7.72h4.22v-5.42h-4.22v-1.08h5.54V-16.2H-78.58v1.98h5.22v1.08h-3.98v5.42h3.98v1.06H-78.9v2.02h7.02Zm-4.6,5.22a8.252,8.252,0,0,0,2.46-4.06l-2.14-.84A6.609,6.609,0,0,1-79.28-.22Zm6.52-1.88c-.86,0-1.02-.06-1.02-.56v-2.1H-74.1V-1.2c0,2,.56,2.64,3.12,2.64h3.04c1.86,0,2.52-.54,2.8-2.76a6.275,6.275,0,0,1-2.12-.84c-.08,1.3-.22,1.48-.9,1.48Zm4.44-2.12A14.366,14.366,0,0,1-62.8,1.14l2.08-1.32A13.94,13.94,0,0,0-64.38-4Zm15.72-13.3-2.76-.28a16.819,16.819,0,0,1-.54,3.34c-.62.06-1.22.08-1.82.08a25.266,25.266,0,0,1-2.66-.14l.18,2.32c.86.06,1.68.08,2.5.08.34,0,.68,0,1.04-.02A31.511,31.511,0,0,1-58.7-3.66l2.42,1.24A36.852,36.852,0,0,0-52-10.98a34.7,34.7,0,0,0,3.5-.7L-48.58-14a24.519,24.519,0,0,1-2.7.64C-50.98-14.44-50.72-15.46-50.56-16.1ZM-51.6-2.26c0-.7.74-1.22,1.9-1.22a7.185,7.185,0,0,1,1.62.2v.4c0,1.1-.42,1.86-1.8,1.86C-50.98-1.02-51.6-1.52-51.6-2.26Zm5.72-7.62h-2.5c.04,1.22.14,3,.22,4.48-.46-.04-.9-.08-1.38-.08-2.78,0-4.42,1.5-4.42,3.46,0,2.2,1.96,3.3,4.44,3.3,2.84,0,3.86-1.44,3.86-3.3v-.2a16.955,16.955,0,0,1,2.7,2.14l1.34-2.14a13.079,13.079,0,0,0-4.14-2.56c-.04-1-.1-1.96-.12-2.54C-45.9-8.2-45.94-9.04-45.88-9.88Zm3.44,1.06,1.42-2.1a34.451,34.451,0,0,0-4.94-2.72l-1.28,1.98A28.866,28.866,0,0,1-42.44-8.82ZM-28.7-2.04V-12.38h6.72v-2.48H-37.96v2.48h6.54V-2.04h-7.62V.36h18.18v-2.4Zm23.44-.84h-3.6v-.94h3.6ZM-8.86-6.5h3.6v.86h-3.6Zm-5.56-3.98v-.96h3.14v.96Zm8.8-.96v.96H-8.86v-.96Zm4.86,5.8H-2.84V-8.1H-8.86v-.88h5.68v-3.96H-8.86v-.82h7.64v-1.88H-8.86v-1.3h-2.42v1.3h-7.46v1.88h7.46v.82H-16.7v3.96h5.42v.88H-17.2v1.6h5.92v.86H-19.2v1.82h7.92v.94h-6.08v1.72h6.08v.62c0,.36-.12.48-.5.5-.32,0-1.5,0-2.46-.04a7.332,7.332,0,0,1,.78,1.88,10.533,10.533,0,0,0,3.54-.34c.78-.34,1.06-.82,1.06-2v-.62h3.6v.82h2.42V-3.82H-.76ZM10.8-15.02H7.12V-16.8H4.82v1.78H1.16v2.06H10.8ZM7.82-3.94V-1.3H4.08V-3.94ZM1.88,1.76h2.2v-1H7.82v.92h2.32V-6H1.88ZM7.64-12.9a20.943,20.943,0,0,1-.82,3.02l1.62.42H3.2L5.08-9.9a10.07,10.07,0,0,0-.82-2.92l-1.94.4a12.615,12.615,0,0,1,.7,2.96H.74V-7.3H11.02V-9.46H8.7c.34-.78.76-1.86,1.18-2.96Zm10-2.98-.36.08H11.64V1.74h2.32v-15.3h2.42c-.48,1.52-1.12,3.56-1.7,4.98A5.744,5.744,0,0,1,16.72-4.5c0,.68-.12,1.14-.48,1.36a1.683,1.683,0,0,1-.74.16A11.064,11.064,0,0,1,14.38-3a5.3,5.3,0,0,1,.58,2.32,10.347,10.347,0,0,0,1.6-.04,3.364,3.364,0,0,0,1.36-.5C18.68-1.76,19-2.74,19-4.2a6.385,6.385,0,0,0-2-4.68c.8-1.7,1.68-4,2.38-5.92Zm15.86,4.7h-7v-2.7h7Zm2.42-4.98H24.2v7.24H35.92ZM26.68-4.98v3.44H23.7V-4.98ZM21.46,1.74H23.7v-1h2.98v.9h2.38v-8.9h-7.6ZM33.04-1.54V-4.98h3.18v3.44ZM30.76-7.26v9h2.28v-1h3.18v.92h2.4V-7.26Zm18.96-8.78-2.64-.22a11.119,11.119,0,0,1-.4,2.3h-.96a26.023,26.023,0,0,1-3.52-.24v2.34c1.1.08,2.56.12,3.38.12h.26a19.628,19.628,0,0,1-4.42,5.52l2.14,1.6a23.027,23.027,0,0,1,1.86-2.2A4.872,4.872,0,0,1,48.54-8.2a1.539,1.539,0,0,1,1.4.68c-2.28,1.18-4.68,2.78-4.68,5.34,0,2.58,2.32,3.34,5.46,3.34A50.031,50.031,0,0,0,56.38.82l.08-2.58a32.718,32.718,0,0,1-5.68.56c-1.96,0-2.9-.3-2.9-1.4,0-1,.8-1.78,2.3-2.64-.02.88-.04,1.84-.1,2.44h2.4c-.02-.92-.06-2.4-.08-3.52,1.22-.56,2.36-1,3.26-1.36.68-.26,1.74-.66,2.38-.84l-1-2.32c-.74.38-1.44.7-2.22,1.04-.82.36-1.66.7-2.7,1.18a2.708,2.708,0,0,0-2.66-1.54,6.777,6.777,0,0,0-2.26.4,13.964,13.964,0,0,0,1.14-2.04,59.578,59.578,0,0,0,6.52-.5l.02-2.32a50.633,50.633,0,0,1-5.66.58A19.134,19.134,0,0,0,49.72-16.04ZM69.22-7.5V-9.48h2.46V-7.5Zm7.3-1.98V-7.5H74.04V-9.48Zm2.28,3.9v-5.84H74.04v-1.4h5.3v-2.16h-5.3V-16.8H71.68v1.82H66.8c.18-.44.36-.86.54-1.28l-2.2-.72A21.229,21.229,0,0,1,60.3-9.52a15.739,15.739,0,0,1,1.26,2.44A22.088,22.088,0,0,0,63.2-8.96V1.78h2.26V-12.36c.44-.76.84-1.52,1.2-2.3v1.84h5.02v1.4h-4.6v5.84h4.46A6.5,6.5,0,0,1,70.8-3.3a8.245,8.245,0,0,1-1.86-2.06L67-4.76a11.521,11.521,0,0,0,2.46,2.98A9.225,9.225,0,0,1,65.82-.24,13.064,13.064,0,0,1,67.3,1.74,10.255,10.255,0,0,0,71.4-.4a18.361,18.361,0,0,0,6.84,2.1A9.825,9.825,0,0,1,79.66-.42,20.054,20.054,0,0,1,72.82-2.1a9.46,9.46,0,0,0,1.1-3.48Zm12.6-.76V-8.8h4.22v2.46Zm-6.22,0c.04-.74.06-1.46.06-2.1V-8.8H89v2.46Zm3.82-7v2.32H85.24v-2.32Zm6.62,2.32H91.4v-2.32h4.22Zm2.36-4.58H82.88v7.14c0,2.8-.18,6.36-2.36,8.76A8.785,8.785,0,0,1,82.4,1.84,11.453,11.453,0,0,0,84.92-4.1H89V1.48h2.4V-4.1h4.22v3c0,.36-.14.48-.52.48-.36,0-1.68.02-2.8-.04a8.992,8.992,0,0,1,.76,2.28A9.288,9.288,0,0,0,96.9,1.2c.8-.36,1.08-1,1.08-2.28ZM-30.84,23.3h-7.9V20.96h6.72V18.68h-6.72V16.06A47.121,47.121,0,0,0-32.66,15l-1.72-1.98a74.268,74.268,0,0,1-13.58,1.6,7.964,7.964,0,0,1,.6,2.1c1.96-.08,4.06-.2,6.14-.38v2.34h-6.54v2.28h6.54V23.3h-7.9v2.32h7.9v3.22c0,.4-.18.54-.64.56-.44,0-2.12,0-3.6-.06a9.227,9.227,0,0,1,.98,2.36,13.6,13.6,0,0,0,4.44-.4c.94-.38,1.3-1,1.3-2.42V25.62h7.9Zm6.36,1.04c.76-.24,1.54-.48,2.3-.72l-.32-2.18-1.98.54V18.96h1.82v-2.2h-1.82v-3.7h-2.34v3.7h-2.3v2.2h2.3V22.6c-1,.26-1.92.48-2.68.64l.56,2.44,2.12-.64v4.12c0,.28-.1.36-.36.38-.26,0-1.08,0-1.84-.04a10.325,10.325,0,0,1,.64,2.18,6.755,6.755,0,0,0,3.04-.42c.66-.36.86-.94.86-2.12Zm9.92-1.84a12.88,12.88,0,0,1-1.52,3.58A12.107,12.107,0,0,1-18.1,22.5Zm1.18-2.2-.4.08h-4.24c.06-.68.1-1.36.14-2.06h7.02v-2.2h-6.96c.02-1,.04-2.02.04-3.04h-2.3c0,1.02,0,2.04-.02,3.04h-2.34v2.2h2.28c-.2,4.74-.98,9-4.32,11.66a6.633,6.633,0,0,1,1.68,1.66,12.253,12.253,0,0,0,3.84-6.12,14.335,14.335,0,0,0,1.48,2.32,8.977,8.977,0,0,1-3.04,1.98,8.64,8.64,0,0,1,1.36,1.9,11.8,11.8,0,0,0,3.24-2.22,11.989,11.989,0,0,0,3.96,2.26,9.036,9.036,0,0,1,1.52-2.04,11.392,11.392,0,0,1-4-2,17.171,17.171,0,0,0,2.48-7Zm6.3-.46.14,2.36a74.379,74.379,0,0,0,8.7.02c.32.68.7,1.38,1.12,2.08-.6-.06-1.68-.16-2.52-.24l-.2,1.9c1.46.16,3.62.42,4.74.64l1.22-1.84a6.1,6.1,0,0,1-.9-1.02,18.2,18.2,0,0,1-1.04-1.78,26.8,26.8,0,0,0,3.2-.62l-.4-2.36a25.821,25.821,0,0,1-3.82.8c-.12-.32-.24-.62-.34-.9-.1-.3-.2-.62-.3-.94A29.156,29.156,0,0,0,6.2,17.2l-.32-2.3a22.987,22.987,0,0,1-3.94.86q-.21-1.02-.36-2.1l-2.68.3c.24.7.44,1.34.64,1.98a41.6,41.6,0,0,1-6.26-.3l.14,2.3a46.761,46.761,0,0,0,6.74.18c.12.34.24.72.4,1.18.08.22.16.46.26.7A51.251,51.251,0,0,1-7.08,19.84Zm3.84,4.64L-5.72,24a6.642,6.642,0,0,0-.86,3.22c.04,2.86,2.52,4.04,6.52,4.04a30.718,30.718,0,0,0,4.86-.38l.14-2.54a26.323,26.323,0,0,1-5.02.44c-2.64,0-4.04-.6-4.04-2.08A3.754,3.754,0,0,1-3.24,24.48ZM21.3,27.96V17.62h6.72V15.14H12.04v2.48h6.54V27.96H10.96v2.4H29.14v-2.4Zm23.44-.84h-3.6v-.94h3.6Zm-3.6-3.62h3.6v.86h-3.6Zm-5.56-3.98v-.96h3.14v.96Zm8.8-.96v.96H41.14v-.96Zm4.86,5.8H47.16V21.9H41.14v-.88h5.68V17.06H41.14v-.82h7.64V14.36H41.14v-1.3H38.72v1.3H31.26v1.88h7.46v.82H33.3v3.96h5.42v.88H32.8v1.6h5.92v.86H30.8v1.82h7.92v.94H32.64v1.72h6.08v.62c0,.36-.12.48-.5.5-.32,0-1.5,0-2.46-.04a7.332,7.332,0,0,1,.78,1.88,10.533,10.533,0,0,0,3.54-.34c.78-.34,1.06-.82,1.06-2v-.62h3.6v.82h2.42V26.18h2.08Z" transform="translate(473 4042.179)" fill="#fff"/>
        <g id="Group_4" data-name="Group 4" transform="translate(350.883 3836.303)">
          <g id="Group_1-2" data-name="Group 1" transform="translate(52.116 33.448)">
            <path id="Path_1-2" data-name="Path 1" d="M65.538,34.956a1.573,1.573,0,0,1,.912-1.494c5.4,0,10.8-.044,16.2.022.169.107.513.32.686.426a6.56,6.56,0,0,1,.221,2.42c.008,2.917-.019,5.836.014,8.753a32,32,0,0,0,4.49-2.013c2.769-1.311,5.509-2.682,8.281-3.99q4.8-2.306,9.595-4.632a8.136,8.136,0,0,1,1.874-.795,9.055,9.055,0,0,1,1.846.8c3.2,1.543,6.388,3.108,9.6,4.629,4.291,2.062,8.57,4.149,12.861,6.205.8.4,1.622.773,2.425,1.183,1.909.882,3.794,1.824,5.694,2.728q6.174,3,12.358,5.984,5.26,2.487,10.477,5.072c.087.09.262.276.35.366.128,2.829.022,5.664.057,8.5-.038,1.969.079,3.941-.074,5.907a1.572,1.572,0,0,1-1.54.587c-2.335-.849-4.588-1.934-6.945-2.72q-.033,3.351,0,6.708a19.81,19.81,0,0,1,7.224,2.065,16.338,16.338,0,0,1,8.161,9.6,22.526,22.526,0,0,1,.6,6.8c-.025,1.734.066,3.474-.071,5.206A9.167,9.167,0,0,1,173.7,104.8c2.633,2.513,1.759,6.978-.628,9.351a8.729,8.729,0,0,1-3.329,1.819,18.733,18.733,0,0,1-1.292,3.938,21.965,21.965,0,0,1-3.373,5.121v.628c.546,1.139.808,2.387,1.273,3.561,2.917.636,5.768,1.549,8.617,2.431,2.941.923,5.856,1.928,8.748,2.993,3.616,1.428,6.85,4.673,7.044,8.729.041,6.842.011,13.683.025,20.522a2.758,2.758,0,0,1-2.95,2.668q-22.872,0-45.744.014c.169.508.71.669,1.128.923,1.254.625,2.442,1.371,3.682,2.021,1.344.806,2.914,1.377,3.87,2.687a6.452,6.452,0,0,1,.29,7.4,13.013,13.013,0,0,1-1.783,1.729,6.405,6.405,0,0,1-6.579.1c-4.449-2.453-8.882-4.932-13.331-7.38-.882-.511-1.789-.972-2.663-1.5-1.663-.877-3.291-1.811-4.935-2.72-1.666-.912-3.316-1.849-4.968-2.78a11.117,11.117,0,0,1-8.688.658,16.957,16.957,0,0,1-2.2-1.15c-17.58-.014-35.161.019-52.741-.016-1.12-.055-1.355-1.57-.686-2.289A3.688,3.688,0,0,1,53.731,164c2.693-.019,5.391.041,8.084-.03-.156-5.115-.071-10.236-.158-15.352-.213-10.119-.175-20.243-.339-30.362-.087-6.915-.186-13.828-.18-20.743-.147-8.237-.257-16.48-.262-24.722-2.409.849-4.736,1.92-7.128,2.81a1.581,1.581,0,0,1-1.581-.582c-.09-4.337-.005-8.68-.044-13.017a2.511,2.511,0,0,1,.363-1.767c2.545-1.2,5.058-2.455,7.6-3.668,1.74-.792,3.414-1.756,5.206-2.417a1.289,1.289,0,0,0,.249-.879Q65.54,44.112,65.538,34.956ZM68.136,36c-.068,6.265.008,12.536-.036,18.8a1.136,1.136,0,0,1-.776,1.123c-2.562,1.273-5.156,2.477-7.718,3.75-1.06.483-2.081,1.046-3.157,1.491a10.123,10.123,0,0,1-1.732.795c-.076,3.49-.033,6.984-.025,10.474,2.537-.877,4.938-2.122,7.513-2.881.281.109.563.221.847.328a6.61,6.61,0,0,1,.371,3.048q.09,6.559.09,13.12.229,12.421.265,24.848c.142,9.371.281,18.741.284,28.112.183,8.335.227,16.676.287,25.012q19.427-.041,38.859.008c-.1-.254-.2-.505-.3-.754-.268-.456-.5-.929-.746-1.393-1.183-3.225-.929-7.254,1.426-9.881.456.022,1.011-.175,1.344.251,1.194,1.177,2.286,2.455,3.449,3.66a3.768,3.768,0,0,0,5.391-.265,3.835,3.835,0,0,0,.06-4.6c-1.139-1.213-2.259-2.444-3.389-3.662-.44-.352-.352-.92-.352-1.415.243-.221.486-.442.735-.658A12.336,12.336,0,0,1,116,144.09c-.1-3.6,2.352-6.713,5.257-8.573,2.286-1.559,5.025-2.133,7.587-3.07,3.8-1.15,7.606-2.305,11.468-3.245.475-1.4,1.079-2.761,1.42-4.192a20.22,20.22,0,0,1-4.176-7.068,14.155,14.155,0,0,1-.505-1.939,8.356,8.356,0,0,1-2.311-1.041,7.226,7.226,0,0,1-2.352-9.518,5.878,5.878,0,0,1,3.49-2.171c-.005-2.748-.027-5.492.016-8.237a14.684,14.684,0,0,1,4.233-9.966,18.2,18.2,0,0,1,12.206-5.476c.057-3.116-.025-6.232.049-9.346a1.655,1.655,0,0,1,1.568-.535c2.343.825,4.607,1.874,6.94,2.728,0-3.5.035-6.992-.011-10.488a7.56,7.56,0,0,1-1.2-.494q-7.075-3.441-14.169-6.844c-2.261-1.106-4.539-2.182-6.806-3.286s-4.539-2.207-6.814-3.3c-5.3-2.524-10.58-5.107-15.871-7.658-.295-.139-.587-.279-.879-.415-2.169-1.041-4.337-2.081-6.5-3.141-.36-.12-.732-.481-1.131-.268C100.5,39.921,93.5,43.319,86.483,46.689c-1.188.584-2.392,1.131-3.575,1.726a1.583,1.583,0,0,1-1.726-.262,8.538,8.538,0,0,1-.2-1.723c.019-3.1.005-6.192.011-9.289-.076-.35.161-.912-.238-1.109C76.547,35.991,72.342,36.062,68.136,36Zm79.777,47.025c-4.474,1.559-8.308,5.318-9.245,10.056a51.019,51.019,0,0,0-.218,7.2,37.845,37.845,0,0,1,3.941-2.737,22.563,22.563,0,0,1,22.461.265c1.248.669,2.27,1.666,3.46,2.423-.12-3.105.426-6.375-.863-9.308a14.019,14.019,0,0,0-7.915-7.62A16.746,16.746,0,0,0,147.912,83.021ZM149.6,97.576a19.561,19.561,0,0,0-10.425,5.64,11.858,11.858,0,0,0-.576,1.09,2.537,2.537,0,0,0,1.715,2.652c1.109.481,2.2-.279,2.944-1.043a14.965,14.965,0,0,1,20.568.292,2.719,2.719,0,0,0,3.026.65,2.508,2.508,0,0,0,.89-3.469,18.96,18.96,0,0,0-5.847-4.277A19.814,19.814,0,0,0,149.6,97.576Zm-2.174,8.48a11.824,11.824,0,0,0-2.928,2.229,4.994,4.994,0,0,1-8.289-2.436,3.435,3.435,0,0,0-1.767,1.125c-1.292,2.657.612,6.344,3.641,6.525.959.022,1.363.959,1.4,1.792a17.106,17.106,0,0,0,8.133,11.261,12.936,12.936,0,0,0,6.033,1.42,12.542,12.542,0,0,0,6.9-2.286,17,17,0,0,0,6.364-8.95c.325-.97.421-2,.833-2.947,1.243-.481,2.753-.505,3.627-1.671l.126-.008a5.416,5.416,0,0,0,1.191-3.922A2.615,2.615,0,0,0,170.554,106a5.235,5.235,0,0,1-2.327,2.969,5.325,5.325,0,0,1-5.509-.29,13.818,13.818,0,0,0-4.1-3A12.591,12.591,0,0,0,147.429,106.056Zm-4.81,24.534c1.415,1.1,2.81,2.218,4.17,3.378l.134-.005c2.117,1.811,4.269,3.6,6.506,5.257,1.068-.688,2.032-1.543,3.04-2.321,2.081-1.658,4.225-3.236,6.3-4.913.467-.374.942-.74,1.426-1.092-.4-1.169-.792-2.341-1.163-3.52-.074-.027-.218-.082-.29-.112a15.516,15.516,0,0,1-9.051,3.264,15.135,15.135,0,0,1-9.846-3.48A35.494,35.494,0,0,0,142.62,130.59Zm-5.61,2.169c-1.819.481-3.63.994-5.424,1.557a1.593,1.593,0,0,0,.191.9c1.4,3.094,2.764,6.2,4.149,9.3.352.844.751,1.666,1.079,2.521,5.034.036,10.067-.027,15.1.033-.019-1.863,0-3.725-.016-5.588-3.916-3.141-7.868-6.252-11.719-9.472A24.853,24.853,0,0,0,137.01,132.758Zm28.527.339c-3.619,2.783-7.172,5.648-10.829,8.382-.057,1.863-.008,3.725-.041,5.588q7.235-.053,14.47,0c1.147-3.938,2.283-7.879,3.381-11.834.139-.505.29-1.008.429-1.513-2.035-.6-4.058-1.275-6.131-1.734C166.4,132.371,165.982,132.753,165.537,133.1Zm9.7,1.748a12.51,12.51,0,0,1-.538,2.2c-1.024,3.572-2.073,7.137-3.073,10.714a4.08,4.08,0,0,0-.246,1.352c0,4.965.011,9.933-.005,14.9,5.615-.046,11.23.014,16.846-.03.025-6.68-.014-13.358-.019-20.038.033-2.854-2.062-5.29-4.526-6.489-2.567-1.15-5.3-1.876-7.912-2.9C175.634,134.627,175.369,134.771,175.238,134.845Zm-52.468,2.761c-2.376,1.478-4.389,3.974-4.258,6.91a11.5,11.5,0,0,1,4.3,2.464,10.678,10.678,0,0,1,2.622,10.651c2.308,1.286,4.632,2.545,6.929,3.851a33.786,33.786,0,0,0,3.067,1.57c0-4.468.008-8.939-.005-13.407-.4-.8-.762-1.622-1.112-2.447-.453-1.013-.888-2.037-1.382-3.034-.959-2.286-2.016-4.525-3-6.8-.317-.724-.623-1.45-.964-2.163A22.4,22.4,0,0,0,122.77,137.606Zm-9.026,9.316c.172.3.363.593.56.882.186.18.374.361.563.546a6.6,6.6,0,0,1,2.259,5.389,6.164,6.164,0,0,1-3.406,5.118,6.47,6.47,0,0,1-5.367.1,10.878,10.878,0,0,1-1.207-.7,17.088,17.088,0,0,1-2.324-2.483l-.472-.033a7.968,7.968,0,0,0,1.775,7.631c.434.382.871.765,1.325,1.128a8.2,8.2,0,0,0,6.142,1.049,14.749,14.749,0,0,0,2.756-1.234c.836-.224,1.543.505,2.264.822,6.478,3.608,12.976,7.183,19.457,10.785,1.469.8,2.909,1.663,4.4,2.428,1.248.691,2.589,1.712,4.1,1.314a3.631,3.631,0,0,0,2.84-2.633,3.669,3.669,0,0,0-1.813-4.173c-2.939-1.658-5.907-3.261-8.852-4.913q-7.645-4.244-15.308-8.461a1.507,1.507,0,0,1-.639-2.2,7.725,7.725,0,0,0-9.048-10.362Zm24.25,2.668c-.035,4.81-.022,9.616-.005,14.426,10.269-.046,20.538,0,30.807-.025.046-4.793-.022-9.586.033-14.377C158.55,149.6,148.27,149.656,137.993,149.591Z" transform="translate(-52.116 -33.448)" fill="#fff"/>
          </g>
          <g id="Group_2" data-name="Group 2" transform="translate(87.345 59.284)">
            <path id="Path_2-2" data-name="Path 2" d="M196.686,128.307a4.366,4.366,0,0,1,4.373.765c1.2.975,1.467,2.581,1.863,3.988.849.052,1.7.15,2.54.27a14.916,14.916,0,0,1,1.581-2.789A4.333,4.333,0,0,1,211.9,129.5c1.557.767,3.408,1.546,3.938,3.376.634,1.808-.292,3.561-1.2,5.08.038.123.115.369.15.492a7.373,7.373,0,0,1,1.234,1.51c1.139-.038,2.144-.737,3.3-.7a4.1,4.1,0,0,1,3.914,2.281c.759,1.824,1.469,3.966.445,5.842-.94,1.6-2.808,2.043-4.465,2.491-.074.841-.178,1.682-.262,2.524a10.574,10.574,0,0,1,3.351,2.144,4.51,4.51,0,0,1,.459,4.263c-.795,1.628-1.658,3.559-3.589,4.048-1.852.544-3.51-.549-5.069-1.368a14.812,14.812,0,0,1-1.871,1.562c.437,1.625,1.229,3.384.445,5.039a4.82,4.82,0,0,1-3.611,2.655,4.519,4.519,0,0,1-4.8-.617c-1.229-.953-1.461-2.581-1.874-3.979-.855-.079-1.71-.186-2.565-.257-.707,1.527-1.469,3.354-3.228,3.892a4.444,4.444,0,0,1-3.835-.41,9.463,9.463,0,0,1-2.5-1.652,4.423,4.423,0,0,1-.822-4.023,29.188,29.188,0,0,1,1.316-2.652c-.584-.554-1.019-1.262-1.611-1.794a15.454,15.454,0,0,0-2.373.609,4.279,4.279,0,0,1-4.76-2.281c-.388-1.366-1.092-2.72-.879-4.179a4.209,4.209,0,0,1,2.961-3.477c.661-.216,1.33-.418,2.013-.571.063-.852.169-1.7.243-2.551a13.159,13.159,0,0,1-2.917-1.742,4.4,4.4,0,0,1-1.114-4.037,21.611,21.611,0,0,1,1.237-2.589,4.091,4.091,0,0,1,3.794-2.174c1.431-.169,2.507.97,3.8,1.322a12.69,12.69,0,0,0,1.8-1.341c.137-1.024-.62-1.966-.647-3a4.2,4.2,0,0,1,1.641-3.8A9.011,9.011,0,0,1,196.686,128.307Zm-1.248,3.157a1.811,1.811,0,0,0-.546,1.464c.2,1.431.975,2.728,1.065,4.181-.7.888-1.819,1.292-2.584,2.117-.645.549-1.232,1.573-2.226,1.3-1.226-.429-2.248-1.322-3.493-1.7a1.619,1.619,0,0,0-1.783.841c-.47.939-1.251,1.824-1.057,2.952.186.251.371.508.563.759.134.071.4.208.535.276,1.079.672,2.409,1.032,3.228,2.048-.243,1.721-.421,3.466-.557,5.184-1.163,1.221-3.171.95-4.515,1.936l-.339.576a6.708,6.708,0,0,0,.945,3.542,1.884,1.884,0,0,0,1.338.451c1.305-.254,2.529-.885,3.854-1.03.776.016,1.082.781,1.467,1.319a13.408,13.408,0,0,0,2.218,2.469c.489,2.16-2.584,3.766-1.368,5.91a15.1,15.1,0,0,0,2.488,1.349,1.862,1.862,0,0,0,1.775-.492c.519-1.024,1.076-2.027,1.6-3.048a1.273,1.273,0,0,1,1.554-.669c1.464.35,2.977.281,4.457.494l.38.478c.344,1.013.636,2.046.959,3.067a1.7,1.7,0,0,0,1.333,1.333,7.291,7.291,0,0,0,2.644-.631A1.613,1.613,0,0,0,210.415,166c-.268-1.174-.822-2.283-.991-3.477-.044-.978,1-1.267,1.614-1.778.863-.563,1.472-1.437,2.3-2.027,1.245-.317,2.237.729,3.3,1.2.836.653,2.354.737,2.84-.377.432-.912,1.292-1.805.991-2.89-.15-.7-.838-1.011-1.393-1.336-.754-.344-1.483-.74-2.21-1.139-.516-.188-.645-.814-.625-1.3a18.372,18.372,0,0,0,.388-3.845,1.174,1.174,0,0,1,.576-1.172c1.308-.587,2.789-.716,4.039-1.437l.35-.576a6.23,6.23,0,0,0-.541-2.862,1.628,1.628,0,0,0-1.45-1.177c-1.426.082-2.707.975-4.146.961-.789.063-1.051-.748-1.426-1.267a22.084,22.084,0,0,0-2.22-2.491c-.519-1.945,1.988-3.294,1.6-5.257-.066-.366-.388-.6-.6-.879-.617-.29-1.207-.639-1.819-.937a1.662,1.662,0,0,0-2.122.429c-.655,1.071-1.123,2.253-1.813,3.3-.844.817-2.048.03-3.053.03-.972-.29-2.308.391-3.007-.544-.71-1.311-.683-2.966-1.611-4.162C198.171,130.107,196.678,131.1,195.438,131.464Z" transform="translate(-181.106 -128.047)" fill="#fff"/>
          </g>
          <g id="Group_3" data-name="Group 3" transform="translate(101.008 72.942)">
            <path id="Path_3-2" data-name="Path 3" d="M235.751,178.709a8.541,8.541,0,0,1,6.227-.128,8.07,8.07,0,0,1,4.116,3.837,7.93,7.93,0,0,1-1.215,8.852,8.871,8.871,0,0,1-2.655,1.95,7.972,7.972,0,0,1-9.327-2.245,8.023,8.023,0,0,1,.382-10.482A10.365,10.365,0,0,1,235.751,178.709Zm.956,2.453a5.432,5.432,0,0,0-2.925,3.657,5.528,5.528,0,0,0,1.617,5.031,5.655,5.655,0,0,0,4.788,1.355,5.5,5.5,0,0,0,4.108-4.416,5.665,5.665,0,0,0-1.464-4.654A5.526,5.526,0,0,0,236.707,181.161Z" transform="translate(-231.13 -178.055)" fill="#fff"/>
          </g>
        </g>
      </g>
      <g id="Group_438" data-name="Group 438" transform="translate(-151.793 -473.189)">
        <path id="Path_22-2" data-name="Path 22" d="M-12642.582-3699.807l8.572,8.572-8.572,8.573" transform="translate(13140.302 8122.603)" fill="none" stroke="#fff" stroke-linecap="round" stroke-linejoin="round" stroke-width="2"/>
        <line id="Line_30-2" data-name="Line 30" x2="26.5" transform="translate(479.792 4431.368)" fill="none" stroke="#fff" stroke-linecap="round" stroke-width="2"/>
      </g>
      <g id="Group_440" data-name="Group 440">
        <path id="Path_500" data-name="Path 500" d="M8.72-16.24H5.96a16.1,16.1,0,0,1,.14,1.76c0,.34,0,.92-.02,1.62-.4.02-.8.04-1.16.04a22.177,22.177,0,0,1-2.76-.16l.04,2.42a24.52,24.52,0,0,0,2.8.1c.32,0,.68-.02,1.06-.04v1.68c0,.46,0,.94.02,1.42C3.62-6.34,1.62-4.52,1.62-2.78c0,2.12,2.74,3.8,4.68,3.8,1.32,0,2.2-.66,2.2-3.14,0-.68-.04-2.24-.08-3.82a13.484,13.484,0,0,1,3.76-.56c1.74,0,2.94.8,2.94,2.16,0,1.46-1.28,2.26-2.9,2.56a15.4,15.4,0,0,1-2.46.14L10.68.94A18.312,18.312,0,0,0,13.3.62c3.18-.8,4.42-2.58,4.42-4.94,0-2.76-2.42-4.36-5.5-4.36a16.572,16.572,0,0,0-3.84.52V-8.9c0-.58,0-1.2.02-1.8,1.3-.16,2.68-.36,3.82-.62l-.06-2.48a24.494,24.494,0,0,1-3.68.72c.02-.5.04-.98.06-1.42C8.58-15.02,8.66-15.88,8.72-16.24Zm5.7,2.16-1.1,1.94a31.821,31.821,0,0,1,4.82,2.92l1.2-2.04A41.793,41.793,0,0,0,14.42-14.08ZM4.08-2.88c0-.7.82-1.52,2.04-2.18.04,1.08.06,2,.06,2.5,0,.68-.28.84-.64.84C5.02-1.72,4.08-2.26,4.08-2.88ZM26.82-4.5A23.84,23.84,0,0,0,29.9-5.84,21.722,21.722,0,0,0,33.32-4.5ZM26.7-.84v-1.7h6.66v1.7Zm.96-9.24H32.1a11.5,11.5,0,0,1-2.2,1.72A11.564,11.564,0,0,1,27.56-10Zm6.46-1.88-.4.1H29.36c.22-.28.44-.56.64-.84l-2.22-.44h8.36v2.22h2.44V-15.3H31.16v-1.62H28.72v1.62h-7.3v4.38h2.34v-2.22h3.68a11.626,11.626,0,0,1-5.62,4.02A6.655,6.655,0,0,1,23.4-7.36,19.936,19.936,0,0,0,25.84-8.7a16.263,16.263,0,0,0,1.8,1.5,28.446,28.446,0,0,1-7.02,1.98,7.9,7.9,0,0,1,1.1,2.12c.9-.18,1.78-.38,2.66-.62V1.74H26.7V1.12h6.66V1.7h2.46V-3.86c.66.12,1.34.24,2.04.34a11.659,11.659,0,0,1,1.5-2.3,30.516,30.516,0,0,1-7.08-1.5A12.793,12.793,0,0,0,35.72-11Zm13.72,5.7C47.5-6.8,46.06-9,45.52-9.74v-.88h2v-2.2h-2v-4.12H43.36v4.12h-2.4v2.2h2.22a20,20,0,0,1-2.68,6.7,11.411,11.411,0,0,1,1.04,2.1,16.872,16.872,0,0,0,1.82-3.94V1.72h2.16V-6.9c.44.86.86,1.76,1.1,2.34Zm3.62,2.48C49.76-2.9,48-2,46.82-1.46l1.02,2c1.28-.7,2.84-1.58,4.24-2.4Zm-3.5-2.18a14.019,14.019,0,0,1,1.9,2.56l1.7-1.2a13.7,13.7,0,0,0-1.98-2.42Zm9.38-1.12A15.742,15.742,0,0,1,55.4-4.92a10.856,10.856,0,0,1-.82-1.76v-.78h4.66V-9.4H54.58v-.88h3.88v-1.78H54.58v-.8h4.3v-1.86H56.94c.32-.5.68-1.1,1.04-1.7l-2.36-.54c-.2.64-.6,1.56-.9,2.24H52.24a11.063,11.063,0,0,0-1.14-2.2l-1.88.64A11.354,11.354,0,0,1,50-14.72H47.96v1.86h4.32v.8H48.5v1.78h3.78v.88h-4.7v1.94h4.7V-.64c0,.24-.08.34-.32.34s-1.02,0-1.7-.04a7.4,7.4,0,0,1,.64,2.12,6.523,6.523,0,0,0,2.84-.4c.64-.36.84-.92.84-2V-2.7A9.486,9.486,0,0,0,58.12.82a8.852,8.852,0,0,1,1.5-1.92A8.359,8.359,0,0,1,56.5-3.36a32.192,32.192,0,0,0,2.64-2.46Z" transform="translate(204 4042.179)" fill="#fff"/>
        <g id="b" transform="translate(159.998 3864.644)">
          <g id="c" transform="translate(0.002 -0.001)">
            <g id="Group_199" data-name="Group 199">
              <path id="Path_47" data-name="Path 47" d="M156.08,118.321,157.8,113.9s-.124-3.706-.527-6.506-1.211-5.509,0-6.736a17.146,17.146,0,0,1,3.442-2.4s6.7-8.194,7.634-8.869,2.611-.84,1.548,1.178-3.722,6.168-3.722,6.168a4.69,4.69,0,0,1,3.171.618c1.425.955,2.734,2.907,3.294,3.3s.494,2.421.124,3.541a5.309,5.309,0,0,1-1.425,2.018s1.054.5-1.367,3.591-6.02,4.365-6.333,4.933-3.508,4.875-3.508,4.875l-4.044-1.285Z" transform="translate(-27.545 -15.692)" fill="#f9ddd0"/>
              <path id="Path_48" data-name="Path 48" d="M29.466,148.17c-.189.165-2.635,3.64-4.184,4.76s-1.548,1.631-3.722,2.413a37.348,37.348,0,0,1-9.125,1.8c-2.792.115-9.067.84-10.311.955s-3.171.675-1.425,2.133S3.8,162.7,9.018,162.7s8.565.5,9.5.5,1.12.5,1.12,1.853a5.528,5.528,0,0,1-1,3.146c-.5.733,0,2.578,1.244,1.12a57.391,57.391,0,0,0,4.406-5.946,34.231,34.231,0,0,0,1.8-3.426c1-2.133.066-.28.066-.28s4.315-4.628,7.165-7.708l-3.854-3.78Z" transform="translate(-0.002 -26.147)" fill="#f9ddd0"/>
              <path id="Path_49" data-name="Path 49" d="M95.5,81.769c-3-.815-2.545-2-3.138-5.46a12.6,12.6,0,0,1,0-5.369l-5.567.8-5.567-.8a12.6,12.6,0,0,1,0,5.369c-.593,3.459-.14,4.636-3.138,5.46S69.54,84.4,69.54,84.4l.807,10.549h32.9l.807-10.549s-5.551-1.82-8.548-2.635Z" transform="translate(-12.273 -12.518)" fill="#fadfd3"/>
              <path id="Path_50" data-name="Path 50" d="M88.26,58.067h4.274s-.346,3.1,3.648,6.366,8.2,3,10.6,1.186,2.075-6.909.239-9.191-6.481-4.365-6.481-4.365,9.915-7,11.282-19.287-4.274-27.2-19.007-31.607a27.75,27.75,0,0,0-25.3,5.081A25.284,25.284,0,0,0,57.064,22.68c-2,11.282-1,12.1,2.816,20.012s21.56,15.375,21.56,15.375Z" transform="translate(-9.894 0.001)" fill="#e46666"/>
              <g id="Group_197" data-name="Group 197" transform="translate(48.265 34.255)">
                <path id="Path_51" data-name="Path 51" d="M120.655,46.721c-.782,2.224-3.1,3.788-4.06,3.739-1.581-.082-2.1-2.652-1.515-5.081s2.314-4.109,3.854-3.731c2.075.511,2.553,2.718,1.721,5.081Z" transform="translate(-68.534 -41.595)" fill="#f9dacd"/>
                <path id="Path_52" data-name="Path 52" d="M59,46.721c.782,2.224,3.1,3.788,4.06,3.739,1.581-.082,2.1-2.652,1.515-5.081s-2.314-4.109-3.854-3.731c-2.075.511-2.553,2.718-1.721,5.081Z" transform="translate(-58.609 -41.595)" fill="#f9dacd"/>
              </g>
              <path id="Path_53" data-name="Path 53" d="M108.5,27.615c0,18.241-10.689,33.023-22.919,33.023S62.66,45.848,62.66,27.615,72.921,5.52,85.579,5.52,108.5,9.374,108.5,27.615Z" transform="translate(-11.059 -0.973)" fill="#f9dacd"/>
              <ellipse id="Ellipse_16" data-name="Ellipse 16" cx="1.729" cy="2.207" rx="1.729" ry="2.207" transform="translate(64.769 33.28)" fill="#101010"/>
              <path id="Path_54" data-name="Path 54" d="M76.77,41.35a11.429,11.429,0,0,0,2.866,1.433" transform="translate(-13.549 -7.296)" fill="#fff" stroke="#101010" stroke-linecap="round" stroke-miterlimit="10" stroke-width="1.3"/>
              <ellipse id="Ellipse_17" data-name="Ellipse 17" cx="1.729" cy="2.207" rx="1.729" ry="2.207" transform="translate(81.289 33.28)" fill="#101010"/>
              <path id="Path_55" data-name="Path 55" d="M104.166,41.35a11.429,11.429,0,0,1-2.866,1.433" transform="translate(-17.878 -7.296)" fill="#fff" stroke="#101010" stroke-linecap="round" stroke-miterlimit="10" stroke-width="1.3"/>
              <path id="Path_56" data-name="Path 56" d="M71.25,35.773s3.138-4.274,10.236-2.726" transform="translate(-12.575 -5.772)" fill="none" stroke="#101010" stroke-linecap="round" stroke-miterlimit="10" stroke-width="1.3"/>
              <path id="Path_57" data-name="Path 57" d="M90.094,48.31s-3.319,1.861,0,3.047" transform="translate(-15.64 -8.525)" fill="none" stroke="#101010" stroke-linecap="round" stroke-miterlimit="10" stroke-width="1.16"/>
              <path id="Path_58" data-name="Path 58" d="M70.936,15.844S68.3,29.761,60.477,33.22a53.551,53.551,0,0,1,0-14.733c1.186-7,6.728-16.191,25.834-15.466s24.335,13.736,23.742,22.919-1.351,8.886-1.351,8.886S77.31,27.579,70.944,15.844Z" transform="translate(-10.581 -0.525)" fill="#e46666"/>
              <g id="Group_198" data-name="Group 198" transform="translate(57.258 71.895)">
                <path id="Path_59" data-name="Path 59" d="M69.53,87.3a4.279,4.279,0,0,0,1.079,2.668c-.412-1.474-.618-2.4-.618-2.4l-.453-.272Z" transform="translate(-69.529 -87.3)" fill="#f1a69a"/>
                <path id="Path_60" data-name="Path 60" d="M111.211,87.3l-.453.272s-.214.922-.618,2.4a4.279,4.279,0,0,0,1.079-2.668Z" transform="translate(-76.696 -87.3)" fill="#f1a69a"/>
                <path id="Path_61" data-name="Path 61" d="M87.022,95.234c-10.393-.107-14.544-2.627-16.182-4.694a68.494,68.494,0,0,0,5.18,13.522c2.767,5.1,7.914,7.1,10.335,7.782v.313s.247-.041.667-.14c.42.1.667.14.667.14v-.313c2.421-.684,7.568-2.685,10.335-7.782A68.494,68.494,0,0,0,103.2,90.54C101.566,92.607,97.423,95.127,87.022,95.234Z" transform="translate(-69.76 -87.872)" fill="#f1a69a"/>
              </g>
              <ellipse id="Ellipse_18" data-name="Ellipse 18" cx="3.582" cy="2.207" rx="3.582" ry="2.207" transform="translate(82.104 38.888)" fill="#f9c8c2"/>
              <ellipse id="Ellipse_19" data-name="Ellipse 19" cx="3.582" cy="2.207" rx="3.582" ry="2.207" transform="translate(58.675 38.888)" fill="#f9c8c2"/>
              <path id="Path_62" data-name="Path 62" d="M119.528,107.955s10.335,16.611,13.44,20.992a63.208,63.208,0,0,0,7.016,8.194c.873.9,1.861,1.178,3.475-.5s11.8-15.375,11.8-15.375l-6.522-3.764a53.256,53.256,0,0,0-6.646,11.052C133.339,112.5,120.607,93.09,120.607,93.09l-1.087,14.865Z" transform="translate(-21.093 -16.427)" fill="#f9c8c2"/>
              <path id="Path_63" data-name="Path 63" d="M55.506,91.468s-2.174.56-3.6,6.226-2.487,11.5-4.282,17.615-2.792,8.3-4.908,11.612S34.77,137.75,34.77,137.75l5.46,4.884s2.981-4.266,6.4-8.416,10.525-20.975,10.525-20.975L55.506,91.46Z" transform="translate(-6.137 -16.139)" fill="#f9c8c2"/>
              <path id="Path_64" data-name="Path 64" d="M106.975,136.168c-.148-9.166,2.94-45.5,2.94-45.5s-5.732-3.393-9.38-3.7c0,0-7.165,20.423-16.718,22.952C74.273,107.394,67.1,86.97,67.1,86.97c-3.648.3-9.38,3.7-9.38,3.7s3.088,36.334,2.94,45.5-7.98,31.36-7.98,31.36v.856h62.275v-.856S107.123,145.333,106.975,136.168Z" transform="translate(-9.298 -15.347)" fill="#fcfce4"/>
              <ellipse id="Ellipse_20" data-name="Ellipse 20" cx="1.713" cy="2.495" rx="1.713" ry="2.495" transform="translate(72.98 47.033)" fill="none" stroke="#101010" stroke-linecap="round" stroke-miterlimit="10" stroke-width="1.3"/>
            </g>
          </g>
        </g>
      </g>
    </g>
    <g id="Group_208" data-name="Group 208" transform="translate(-1244.727 119.5)">
      <g id="Union_6" data-name="Union 6" transform="translate(1515.64 3604.5)" fill="none">
        <path d="M36.137,96.746V10a10,10,0,0,1,10-10H408.173a10,10,0,0,1,10,10V99.357a10,10,0,0,1-10,10H46.316L13.959,132.865Z" stroke="none"/>
        <path d="M 17.44781494140625 129.0944519042969 L 45.99086380004883 108.3572006225586 L 408.1734008789062 108.3572006225586 C 413.1359558105469 108.3572006225586 417.1733093261719 104.3198547363281 417.1733093261719 99.3572998046875 L 417.1733093261719 9.99990177154541 C 417.1733093261719 5.037352085113525 413.1359558105469 1.000001907348633 408.1734008789062 1.000001907348633 L 46.13761138916016 1.000001907348633 C 41.174560546875 1.000001907348633 37.13681030273438 5.037352085113525 37.13681030273438 9.99990177154541 L 37.13681030273438 97.02864837646484 L 36.989013671875 97.26940155029297 L 17.44781494140625 129.0944519042969 M 13.95901203155518 132.8652038574219 L 36.13681030273438 96.74615478515625 L 36.13681030273438 9.99990177154541 C 36.13681030273438 4.47750186920166 40.61431121826172 1.928710844367743e-06 46.13761138916016 1.928710844367743e-06 L 408.1734008789062 1.928710844367743e-06 C 413.6967163085938 1.928710844367743e-06 418.1733093261719 4.47750186920166 418.1733093261719 9.99990177154541 L 418.1733093261719 99.3572998046875 C 418.1733093261719 104.8805999755859 413.6967163085938 109.3572006225586 408.1734008789062 109.3572006225586 L 46.31576156616211 109.3572006225586 L 13.95901203155518 132.8652038574219 Z" stroke="none" fill="#fff"/>
      </g>
      <path id="Path_499" data-name="Path 499" d="M1.88,17.6a14.373,14.373,0,0,1-1.3,4.76,5.2,5.2,0,0,1,1.16.56,17.6,17.6,0,0,0,1.42-5.08ZM6,17.82a19.612,19.612,0,0,1,1.22,3.66l1.14-.38a18.542,18.542,0,0,0-1.28-3.64Zm-.52-4.68a15.249,15.249,0,0,1,.94,1.8l-2.96.12A68.622,68.622,0,0,0,7.44,9.1L6.18,8.54a40.733,40.733,0,0,1-2.02,3.58A16.062,16.062,0,0,0,3,10.82C3.74,9.7,4.58,8.12,5.26,6.8l-1.3-.52A25.292,25.292,0,0,1,2.16,10c-.2-.18-.38-.36-.58-.52l-.76.98A18.629,18.629,0,0,1,3.4,13.28c-.44.66-.9,1.3-1.32,1.84l-1.32.06L.88,16.5c.92-.06,2-.12,3.14-.18v8.24H5.34V16.24l1.58-.1a9.306,9.306,0,0,1,.36,1.16l1.12-.5a15.836,15.836,0,0,0-1.88-4.08Zm10.9,4.76v4.14H10.64V17.9Zm-7.1,6.6h1.36V23.36h5.74v1.06H17.8V16.56H9.28Zm.84-11.7v1.38h6.62V12.8Zm2.36-6.34a20.035,20.035,0,0,1-5.34,6.48,5.487,5.487,0,0,1,.88,1.26,22.712,22.712,0,0,0,5.26-6.22,28.3,28.3,0,0,0,5.36,6.1,10.8,10.8,0,0,1,.92-1.36,24.227,24.227,0,0,1-5.62-6.26ZM35.98,9.6H29.26V8.08h6.72Zm0,2.62H29.26V10.66h6.72Zm1.44-5.28H27.86v6.4h9.56ZM26.08,8.58a12.881,12.881,0,0,0-3.4-2.14l-.84,1.08a14.16,14.16,0,0,1,3.38,2.24Zm-.98,5.16a14.282,14.282,0,0,0-3.44-1.98l-.84,1.1a14.583,14.583,0,0,1,3.42,2.1Zm-.6,3.22a56.773,56.773,0,0,1-3.24,6.38l1.32.92c1.02-1.86,2.18-4.32,3.06-6.42Zm14.64-1.14V14.58H26v1.24h2.82a12.674,12.674,0,0,1-3.64,3.92,6.871,6.871,0,0,1,1.06.92,14.918,14.918,0,0,0,2.3-2.22h1.94A13.655,13.655,0,0,1,26.24,23a8.1,8.1,0,0,1,1.04.96,16.7,16.7,0,0,0,4.68-5.52h1.98a11.77,11.77,0,0,1-3.66,5.22,10.213,10.213,0,0,1,1.12.84,14.561,14.561,0,0,0,3.92-6.06h1.66c-.24,3.04-.5,4.24-.82,4.58-.16.2-.32.22-.62.22a15.253,15.253,0,0,1-1.66-.08,3.235,3.235,0,0,1,.36,1.28,13.057,13.057,0,0,0,1.96.02,1.606,1.606,0,0,0,1.14-.52c.5-.58.8-2.1,1.08-6.08.04-.22.06-.62.06-.62H29.46a14.9,14.9,0,0,0,.86-1.42Zm17.06-4.4H52.46V8.36H56.2Zm1.4-4.28H51.12v5.48H57.6Zm-5.36,15.4V19.36h3.64v3.18Zm-4.56,0H44.1V19.36h3.58Zm-.16-11.12h-3.7V8.36h3.7Zm11.4,4.06V14.14H49.58a11.349,11.349,0,0,0,.9-1.6l-1.44-.46-.12.26V7.14H42.48v5.48h6.3a8.418,8.418,0,0,1-1.02,1.52H41.12v1.34h5.34a16.961,16.961,0,0,1-5.84,3.14,6.092,6.092,0,0,1,.92,1.12,13.245,13.245,0,0,0,1.24-.48v5.3H44.1v-.74h3.58v.68h1.38V18.1h-3.9a14.567,14.567,0,0,0,3.34-2.62h3.02a12.384,12.384,0,0,0,3.22,2.62H50.92v6.46h1.32v-.74h3.64v.68h1.38V19.3c.42.16.86.3,1.28.42a6.714,6.714,0,0,1,.94-1.2,14.384,14.384,0,0,1-6.1-3.04ZM69.2,7.18l-1.64-.14a10.245,10.245,0,0,1-.5,2.5c-.44.02-.9.02-1.32.02a29.273,29.273,0,0,1-3.38-.22v1.5c1.1.08,2.42.12,3.28.12h.88a21.1,21.1,0,0,1-4.62,6.12l1.36,1A26.421,26.421,0,0,1,65.08,16a5.265,5.265,0,0,1,3.44-1.46,1.669,1.669,0,0,1,1.82,1.24C68,17,65.62,18.48,65.62,20.84c0,2.44,2.3,3.06,5.16,3.06a46.983,46.983,0,0,0,5.48-.36l.04-1.6a35.614,35.614,0,0,1-5.46.48c-2.06,0-3.62-.24-3.62-1.8,0-1.32,1.3-2.38,3.16-3.36,0,1.06-.02,2.36-.06,3.12h1.54c-.02-.98-.04-2.68-.06-3.84,1.52-.72,2.94-1.3,4.06-1.72a17.415,17.415,0,0,1,1.78-.64l-.66-1.5c-.56.3-1.04.52-1.64.78-1.04.48-2.26.96-3.62,1.62a2.582,2.582,0,0,0-2.68-1.8,5.726,5.726,0,0,0-2.78.74,15.879,15.879,0,0,0,1.8-3.1,57.851,57.851,0,0,0,6.64-.56l.02-1.48a49.187,49.187,0,0,1-6.1.62A20.417,20.417,0,0,0,69.2,7.18ZM85.62,8.6a11.994,11.994,0,0,0-3.04-2.12L81.7,7.54a12.413,12.413,0,0,1,3.02,2.2Zm-.76,5.14a13.834,13.834,0,0,0-3.16-1.98l-.84,1.08a13.437,13.437,0,0,1,3.12,2.1ZM84,17.16a58.976,58.976,0,0,1-2.76,6.34l1.34.8c.86-1.84,1.86-4.28,2.6-6.36Zm4.58,1.56V17.46h4.34V16.22H89.66V14.7h1.82a7.9,7.9,0,0,1,1,1.02,13.455,13.455,0,0,0,.94-1.86,25.1,25.1,0,0,0,1.48,5.62,10.2,10.2,0,0,1-3.44,4.08c.28-.56.38-1.76.5-4.28.02-.2.02-.56.02-.56ZM87.28,12H90.8v1.6H87.28Zm0-2.6H90.8v1.56H87.28Zm9.58,2.06a29.721,29.721,0,0,1-1.3,6.46,28.03,28.03,0,0,1-1.4-6.24l.06-.22Zm2.32,0V10.08h-4.6c.26-1.16.46-2.36.64-3.6L93.8,6.26a25.878,25.878,0,0,1-1.72,7.2V8.28h-2.7c.22-.56.44-1.18.68-1.8L88.5,6.26a16.157,16.157,0,0,1-.54,2.02h-1.9V14.7h2.22v1.52H85.14v1.24h2.18v.72a6.389,6.389,0,0,1-2.82,5.6,7.236,7.236,0,0,1,1.02.86,6.974,6.974,0,0,0,2.94-4.7h2.16c-.1,2-.22,2.76-.42,3.02-.1.14-.26.16-.52.16a14.829,14.829,0,0,1-1.62-.08,2.88,2.88,0,0,1,.36,1.22,14.439,14.439,0,0,0,1.88,0,1.345,1.345,0,0,0,1.02-.48.435.435,0,0,0,.1-.16,5.925,5.925,0,0,1,1.02.96A11.766,11.766,0,0,0,95.6,21a11.006,11.006,0,0,0,2.84,3.5,9.136,9.136,0,0,1,.94-1.16,10.167,10.167,0,0,1-3.08-3.72,27.351,27.351,0,0,0,1.92-8.16Zm4.1-1.7h13.5v2.88h1.54V8.38h-7.6V6.26h-1.54V8.38h-7.4v4.26h1.5Zm10.22,5.52a9.171,9.171,0,0,1-2.78,4.68c-1.56-.58-3.14-1.12-4.62-1.56.54-.96,1.12-2.04,1.68-3.12Zm5.32,0v-1.4H108.5c.5-1,1-1.98,1.42-2.88l-1.52-.34c-.46.98-1.02,2.08-1.58,3.22H101.2v1.4h4.88c-.92,1.76-1.88,3.48-2.64,4.74l1.52.4c.16-.26.32-.54.5-.84,1.26.38,2.6.86,3.92,1.38a19.71,19.71,0,0,1-7.72,2.26,6.053,6.053,0,0,1,.9,1.34,19.6,19.6,0,0,0,8.42-2.96,35.811,35.811,0,0,1,5.8,2.96l1.08-1.24a38.81,38.81,0,0,0-5.62-2.76,11.5,11.5,0,0,0,2.96-5.28Zm6.3-8.96a22.1,22.1,0,0,1-4.66,7.78,11.521,11.521,0,0,1,.82,1.4,20.505,20.505,0,0,0,1.86-2.32V24.5h1.42V10.88a32.314,32.314,0,0,0,1.92-4.14Zm8.6,6.56h-2.28V9.62h2.28Zm3.62,8.7h-2.32V14.22h2.32Zm-9.42-7.36h2.22v7.36h-2.22Zm5.8,0v7.36h-2.28V14.22Zm5.22-4.6V8.28H126.3V9.62h3.74v3.26h-3.48V24.2h1.36V22.9h9.42v1.18h1.44V12.88h-3.64V9.62Zm11.3,7.62a18.648,18.648,0,0,0,3.26-2.26,14.532,14.532,0,0,0,3.36,2.26Zm.38,5.12V18.52h5.58v3.84Zm.86-12.66h4.36a12.488,12.488,0,0,1-2.36,3.4,13.179,13.179,0,0,1-2.24-3.04Zm5.3-1.36-.26.06h-4.28c.3-.58.58-1.16.82-1.76l-1.44-.4a15.188,15.188,0,0,1-3.54,5.4v-1.1H145.5V6.26h-1.42v4.28H141.1v1.38h2.82a21.647,21.647,0,0,1-3.28,7.54,6.742,6.742,0,0,1,.78,1.32,21.229,21.229,0,0,0,2.66-5.72V24.5h1.42V14.52c.62.86,1.32,1.92,1.64,2.5l.88-1.16c-.38-.48-1.94-2.4-2.52-3.04v-.9h2.28c-.16.14-.34.28-.5.42a8.2,8.2,0,0,1,1.18,1,15.474,15.474,0,0,0,1.96-2.12,15.357,15.357,0,0,0,2.08,2.8,16.55,16.55,0,0,1-5.66,3.16,4.189,4.189,0,0,1,.84,1.2,15.506,15.506,0,0,0,1.58-.66v6.82h1.36v-.88h5.58v.8h1.4V17.58c.3.12.62.24.94.36a5.706,5.706,0,0,1,.92-1.24,14.155,14.155,0,0,1-4.98-2.68,14.112,14.112,0,0,0,3.22-5.24Zm4.8,1.5.18,1.74c2.16-.46,7.26-.94,9.4-1.18a8.124,8.124,0,0,0-3.74,6.76c0,4.46,4.22,6.44,7.92,6.58l.58-1.66c-3.26-.12-6.9-1.36-6.9-5.26a7.039,7.039,0,0,1,4.58-6.34,16.752,16.752,0,0,1,3.92-.32V8.56c-1.34.06-3.22.18-5.4.36-3.68.3-7.46.68-8.76.82C162.98,9.78,162.34,9.82,161.58,9.84Zm13.06,2.78-1.02.44a18.565,18.565,0,0,1,1.64,2.82l1.02-.48A23.737,23.737,0,0,0,174.64,12.62Zm2.18-.84-.98.46a18.536,18.536,0,0,1,1.68,2.8l1.04-.5A26.414,26.414,0,0,0,176.82,11.78ZM186,10.8h-2.98V8.26H186Zm0,3.72h-2.98V11.96H186Zm0,3.78h-2.98V15.7H186Zm1.34-11.28h-5.62v12.5h5.62ZM182.7,19.94a8.772,8.772,0,0,1-2,3.8,10.063,10.063,0,0,1,1.12.8,11.976,11.976,0,0,0,2.22-4.3Zm2.5.48a16.657,16.657,0,0,1,1.6,3.14l1.18-.56a16.828,16.828,0,0,0-1.66-3.08Zm8.82-.32V18.6h2.56v1.5Zm-3.76-1.5h2.44v1.5h-2.44Zm2.44-2.46v1.42h-2.44V16.14Zm3.88,0v1.42h-2.56V16.14Zm-4.68-4.72h2.96v1.32H191.9Zm0-2.3h2.96v1.2H191.9Zm7.24,10.98h-1.2V15.02h-3.92V13.86h5.04V12.74H196.2V11.42h2.12v-1.1H196.2V9.12h2.44V8H196.2V6.28h-1.34V8H191.9V6.28h-1.32V8h-2.42V9.12h2.42v1.2h-1.9v1.1h1.9v1.32H187.7v1.12h5v1.16h-3.78V20.1h-1.3v1.14h1.3v3.3h1.34v-3.3h6.32v1.74c0,.26-.1.32-.34.34-.28,0-1.24,0-2.28-.02a4.776,4.776,0,0,1,.42,1.2,10.346,10.346,0,0,0,2.9-.2c.5-.22.66-.6.66-1.32V21.24h1.2ZM204.6,7.48V8.96h4.92c.04.76.12,1.64.26,2.56l-.88-.14c-1.22,5.6-3.68,9.62-8.1,11.92a9.734,9.734,0,0,1,1.34,1.18c3.98-2.34,6.5-5.98,7.98-11.16a17.259,17.259,0,0,0,7.94,11.14,7.067,7.067,0,0,1,1.2-1.24c-7.84-4.66-8.3-12.2-8.3-15.74Zm16.98,2.36.18,1.74c2.16-.46,7.26-.94,9.4-1.18a8.124,8.124,0,0,0-3.74,6.76c0,4.46,4.22,6.44,7.92,6.58l.58-1.66c-3.26-.12-6.9-1.36-6.9-5.26a7.039,7.039,0,0,1,4.58-6.34,16.752,16.752,0,0,1,3.92-.32V8.56c-1.34.06-3.22.18-5.4.36-3.68.3-7.46.68-8.76.82C222.98,9.78,222.34,9.82,221.58,9.84Zm13.06,2.78-1.02.44a18.565,18.565,0,0,1,1.64,2.82l1.02-.48A23.737,23.737,0,0,0,234.64,12.62Zm2.18-.84-.98.46a18.536,18.536,0,0,1,1.68,2.8l1.04-.5A26.414,26.414,0,0,0,236.82,11.78Zm13.22-2.74a4.668,4.668,0,0,0,.14.5,40.072,40.072,0,0,1-6.6-.24l.1,1.46a47.924,47.924,0,0,0,6.88.14q.24.72.54,1.56c.12.34.26.68.4,1.04a44.833,44.833,0,0,1-8.3-.1l.08,1.5a58.194,58.194,0,0,0,8.8-.04,21.157,21.157,0,0,0,1.56,2.88c-.64-.08-1.94-.22-3-.34l-.14,1.22a37.058,37.058,0,0,1,4.38.64l.82-1.22a6.008,6.008,0,0,1-.74-.86,19.866,19.866,0,0,1-1.4-2.48,31.184,31.184,0,0,0,3.62-.72l-.24-1.5a22.1,22.1,0,0,1-4,.86c-.16-.4-.32-.82-.46-1.2-.14-.42-.3-.88-.44-1.38a29.122,29.122,0,0,0,3.94-.8l-.22-1.44a22.255,22.255,0,0,1-4.1.9,15.211,15.211,0,0,1-.48-2.38l-1.7.22C249.68,7.82,249.88,8.44,250.04,9.04ZM246.1,17.7l-1.56-.32a5.809,5.809,0,0,0-.78,2.86c.02,2.56,2.22,3.72,6.14,3.72a30.417,30.417,0,0,0,4.68-.34l.06-1.6a22.647,22.647,0,0,1-4.76.42c-3.14,0-4.62-.82-4.62-2.48A3.876,3.876,0,0,1,246.1,17.7Zm25.06.52-1.5-.14a12.5,12.5,0,0,0-.3,2.36c0,1.98,1.72,2.94,4.88,2.94a26.589,26.589,0,0,0,3.86-.28l.06-1.62a19.251,19.251,0,0,1-3.9.4c-2.86,0-3.38-.92-3.38-1.86A7.072,7.072,0,0,1,271.16,18.22Zm-2.3-10.96-1.92-.16a8,8,0,0,1-.06,1.66c-.06.4-.16,1.04-.3,1.74-.78.06-1.5.1-2.16.1a18.119,18.119,0,0,1-2.4-.14l.06,1.56c.72.04,1.44.08,2.32.08.56,0,1.18-.02,1.84-.06-.16.72-.34,1.48-.52,2.14a43.61,43.61,0,0,1-3.36,8.94l1.76.6a61.293,61.293,0,0,0,3.12-9.16c.24-.88.46-1.8.64-2.68a38.407,38.407,0,0,0,4.16-.68V9.62a29.611,29.611,0,0,1-3.84.72c.12-.54.22-1.06.3-1.48C268.58,8.46,268.74,7.7,268.86,7.26Zm1.88,6.1v1.48a32.866,32.866,0,0,1,3.72-.2,25.288,25.288,0,0,1,3.36.24l.04-1.52a32.012,32.012,0,0,0-3.46-.18C273.12,13.18,271.8,13.26,270.74,13.36Zm17.74-5.9-1.84-.18a22.327,22.327,0,0,1-.52,4.36c-1.22.1-2.38.2-3.04.22-.64.02-1.16.02-1.8,0l.18,1.72c.5-.08,1.34-.18,1.8-.24.52-.06,1.48-.16,2.54-.26-.68,2.68-2.18,7.24-4.22,9.96l1.62.66a40.82,40.82,0,0,0,4.22-10.78c.86-.08,1.66-.14,2.14-.14,1.28,0,2.12.34,2.12,2.16a16.9,16.9,0,0,1-.94,6.12,1.668,1.668,0,0,1-1.76,1.04,9.737,9.737,0,0,1-2.44-.42l.26,1.68a12.117,12.117,0,0,0,2.36.28,2.815,2.815,0,0,0,2.92-1.66c.82-1.66,1.16-4.84,1.16-7.22,0-2.72-1.46-3.4-3.26-3.4-.48,0-1.3.06-2.24.14.22-1.08.4-2.26.52-2.84C288.32,8.26,288.4,7.84,288.48,7.46Zm6.88,2.32-1.46.66a23.463,23.463,0,0,1,3.58,7.18l1.54-.74A34.118,34.118,0,0,0,295.36,9.78Zm.24-2.9-1.08.44a24.485,24.485,0,0,1,1.62,2.78l1.1-.48A28.341,28.341,0,0,0,295.6,6.88Zm2.2-.82-1.06.46a22.427,22.427,0,0,1,1.66,2.76l1.08-.48A28.862,28.862,0,0,0,297.8,6.06Zm7.26,18.06,1.36-1.16a37.541,37.541,0,0,0-4.48-4.44l-1.3,1.14A33.322,33.322,0,0,1,305.06,24.12Zm22.18-16.7a32.034,32.034,0,0,1-1.36,4.5l1,.32c.54-1.14,1.16-2.98,1.68-4.5Zm-4.06,4.44a17.776,17.776,0,0,0-1.16-4.4l-1.1.28a18.519,18.519,0,0,1,1.1,4.42Zm5.1,6.64c-.44-.62-2.28-2.94-2.96-3.72v-.44h3v-1.4h-3V6.3h-1.4v6.64H320.8v1.4h2.8a20.1,20.1,0,0,1-3.1,6.22,7.049,7.049,0,0,1,.76,1.44,22.807,22.807,0,0,0,2.66-5.42v7.94h1.4V16.48c.74,1.08,1.64,2.5,2,3.2Zm2.58.24h4.7v3.9h-4.7Zm4.7-10.28v3.76h-4.7V8.46Zm0,8.92h-4.7v-3.8h4.7Zm1.46,5.26V7.08h-7.6V22.64h-2.16v1.4h11.46v-1.4ZM8.46,43.98h2.92v1.68H8.46ZM4.22,42.76V40.3h2.8v2.46Zm4.24-5.32h2.92V39.1H8.46Zm2.92,5.32H8.46V40.3h2.92Zm4.34-2.46v2.46H12.8V40.3ZM7.44,47.56a13.922,13.922,0,0,1,3.6,2.42l1-.9a13.1,13.1,0,0,0-3.18-2.12h9.98v-1.3H12.8V43.98h4.36V39.1H12.8V37.44h5.78V36.16H1.5v1.28H7.02V39.1H2.84v4.88H7.02v1.68H1.18v1.3H8.14ZM2.12,52.9a6.432,6.432,0,0,0,2.7-4.1L3.5,48.32A5.56,5.56,0,0,1,.9,52Zm6.62-1.04c-1.02,0-1.2-.08-1.2-.56V48.42H6.1v2.9c0,1.48.48,1.88,2.54,1.88h3.74c1.58,0,2.02-.52,2.22-2.72a3.354,3.354,0,0,1-1.32-.54c-.08,1.7-.22,1.92-1.04,1.92Zm5.46-3a14.342,14.342,0,0,1,3.64,3.94l1.26-.84a13.967,13.967,0,0,0-3.72-3.84ZM29.02,36.12l-1.76-.16a16.591,16.591,0,0,1-.62,3.46c-.78.06-1.54.1-2.26.1a18.865,18.865,0,0,1-2.44-.14l.1,1.5c.76.04,1.6.06,2.34.06.58,0,1.18-.02,1.78-.06a29.6,29.6,0,0,1-4.28,7.48l1.54.8a35.374,35.374,0,0,0,4.36-8.44,27.124,27.124,0,0,0,3.64-.74l-.04-1.5a19.329,19.329,0,0,1-3.14.74C28.56,38.06,28.84,36.84,29.02,36.12ZM27.92,50c0-.92,1-1.6,2.46-1.6a6.934,6.934,0,0,1,2.06.3c.02.34.02.64.02.9,0,1.1-.56,1.98-2.22,1.98C28.68,51.58,27.92,50.94,27.92,50Zm5.82-7.7H32.18c.04,1.42.14,3.4.22,5.04a8.925,8.925,0,0,0-1.96-.2c-2.26,0-4,1.16-4,3,0,1.98,1.8,2.88,4,2.88,2.48,0,3.5-1.3,3.5-2.9,0-.24,0-.52-.02-.84a14.949,14.949,0,0,1,3.24,2.3l.86-1.36a13.722,13.722,0,0,0-4.16-2.48c-.04-1.24-.12-2.54-.14-3.28C33.7,43.74,33.7,43.12,33.74,42.3Zm4,.54.9-1.32a30.21,30.21,0,0,0-4.66-2.66l-.82,1.22A23.42,23.42,0,0,1,37.74,42.84Zm13.02,7.68V39.04h7.18V37.52H42.14v1.52h7V50.52H41.1V52H58.94V50.52Zm24.72-1.16h-4.8v-1.5h4.8Zm-4.8-4.08h4.8v1.4h-4.8ZM64.9,41.74V40.3h4.3v1.44ZM75.16,40.3v1.44H70.68V40.3Zm3.86,6.38H76.96v-2.5H70.68v-1.4h5.96V39.26H70.68V38.1h7.96V36.88H70.68v-1.6H69.2v1.6H61.4V38.1h7.8v1.16H63.48v3.52H69.2v1.4H62.92v1.1H69.2v1.4H61.02v1.18H69.2v1.5H62.74V50.5H69.2v1.38c0,.34-.12.46-.5.48-.34,0-1.54.02-2.74-.02a4.932,4.932,0,0,1,.52,1.26,11.942,11.942,0,0,0,3.32-.24c.6-.22.88-.56.88-1.48V50.5h4.8v.9h1.48V47.86h2.06Zm9.46-10.22-1.84-.18a22.329,22.329,0,0,1-.52,4.36c-1.22.1-2.38.2-3.04.22-.64.02-1.16.02-1.8,0l.18,1.72c.5-.08,1.34-.18,1.8-.24.52-.06,1.48-.16,2.54-.26-.68,2.68-2.18,7.24-4.22,9.96l1.62.66a40.818,40.818,0,0,0,4.22-10.78c.86-.08,1.66-.14,2.14-.14,1.28,0,2.12.34,2.12,2.16a16.9,16.9,0,0,1-.94,6.12,1.668,1.668,0,0,1-1.76,1.04,9.737,9.737,0,0,1-2.44-.42l.26,1.68a12.117,12.117,0,0,0,2.36.28,2.815,2.815,0,0,0,2.92-1.66c.82-1.66,1.16-4.84,1.16-7.22,0-2.72-1.46-3.4-3.26-3.4-.48,0-1.3.06-2.24.14.22-1.08.4-2.26.52-2.84C88.32,37.26,88.4,36.84,88.48,36.46Zm6.88,2.32-1.46.66a23.463,23.463,0,0,1,3.58,7.18l1.54-.74A34.119,34.119,0,0,0,95.36,38.78Zm.24-2.9-1.08.44a24.482,24.482,0,0,1,1.62,2.78l1.1-.48A28.345,28.345,0,0,0,95.6,35.88Zm2.2-.82-1.06.46a22.426,22.426,0,0,1,1.66,2.76l1.08-.48A28.866,28.866,0,0,0,97.8,35.06Zm9.66,12.8a13.249,13.249,0,0,1-3.88,3.94,7.918,7.918,0,0,1,1.22.88,17.265,17.265,0,0,0,4.06-4.42Zm-.06-4.06h8.26v1.84H107.4Zm0-2.94h8.26v1.82H107.4Zm9.78,5.96V39.68h-5.5c.22-.6.44-1.3.64-1.96h6.48V36.38H102.68V42.1c0,3.14-.16,7.5-1.92,10.62a5.414,5.414,0,0,1,1.28.76c1.84-3.26,2.1-8.06,2.1-11.36v-4.4h6.44a18.438,18.438,0,0,1-.46,1.96h-4.18v7.14h4.84V51.9c0,.24-.08.34-.38.34-.3.02-1.34.02-2.5-.02a5.622,5.622,0,0,1,.46,1.3,10.759,10.759,0,0,0,3.1-.22c.6-.2.76-.6.76-1.38v-5.1Zm-3.24,1.68a21.2,21.2,0,0,1,4,4.1l1.2-.82a22.687,22.687,0,0,0-4.06-4Zm21.78-5.56V41.6h-5.24c.1-.98.14-2.02.18-3.14h-1.38c-.04,1.12-.08,2.18-.18,3.14h-4.82v1.34h4.64c-.5,2.88-1.68,4.92-4.88,6.14a3.717,3.717,0,0,1,.88,1.14,7.851,7.851,0,0,0,5.1-5.82A8.356,8.356,0,0,0,135,50.14a4.912,4.912,0,0,1,.92-1.2c-2.74-.94-4.28-3.02-5-6ZM123.18,51.2V37.62h13.64V51.2Zm-1.48-15V53.52h1.48v-.9h13.64v.9h1.52V36.2Zm19.88,2.64.18,1.74c2.16-.46,7.26-.94,9.4-1.18a8.124,8.124,0,0,0-3.74,6.76c0,4.46,4.22,6.44,7.92,6.58l.58-1.66c-3.26-.12-6.9-1.36-6.9-5.26a7.039,7.039,0,0,1,4.58-6.34,16.752,16.752,0,0,1,3.92-.32v-1.6c-1.34.06-3.22.18-5.4.36-3.68.3-7.46.68-8.76.82C142.98,38.78,142.34,38.82,141.58,38.84Zm13.06,2.78-1.02.44a18.565,18.565,0,0,1,1.64,2.82l1.02-.48A23.737,23.737,0,0,0,154.64,41.62Zm2.18-.84-.98.46a18.536,18.536,0,0,1,1.68,2.8l1.04-.5A26.414,26.414,0,0,0,156.82,40.78ZM176,38.62l-1.02-.78a5.477,5.477,0,0,1-1.5.16h-7.72c-.6,0-1.74-.08-2.02-.12V39.7c.22-.02,1.32-.1,2.02-.1h7.8a17.6,17.6,0,0,1-3.32,5.56A22.87,22.87,0,0,1,162,51.1l1.28,1.34a25.354,25.354,0,0,0,7.8-5.84,46.178,46.178,0,0,1,5.5,5.94l1.4-1.2a55.479,55.479,0,0,0-5.84-5.98,25.312,25.312,0,0,0,3.36-5.86A5.737,5.737,0,0,1,176,38.62ZM195.3,36l-1.06.46a22.621,22.621,0,0,1,1.62,2.76l1.08-.48A28.344,28.344,0,0,0,195.3,36Zm2.2-.8-1.06.46a20.787,20.787,0,0,1,1.66,2.74l1.08-.48A28.614,28.614,0,0,0,197.5,35.2Zm-7.58,1.76-1.84-.62a7.417,7.417,0,0,1-.62,1.6,16.752,16.752,0,0,1-6.28,6.76l1.38,1.02a19.3,19.3,0,0,0,5.08-4.92h6.74a16.239,16.239,0,0,1-3.18,6.24,16.018,16.018,0,0,1-8,5.02l1.46,1.32a17.8,17.8,0,0,0,7.96-5.44,19.563,19.563,0,0,0,3.54-6.9,6.285,6.285,0,0,1,.46-1.06l-1.32-.8a3.83,3.83,0,0,1-1.3.18h-5.42c.16-.28.32-.56.46-.84C189.24,38.16,189.6,37.48,189.92,36.96Zm19.2,1.54v1.6a47.011,47.011,0,0,0,8.22,0V38.48A34.218,34.218,0,0,1,209.12,38.5Zm.78,8.14-1.44-.14a10.749,10.749,0,0,0-.34,2.36c0,1.88,1.5,3,4.86,3a27.1,27.1,0,0,0,5-.42l-.04-1.68a22.063,22.063,0,0,1-4.96.52c-2.72,0-3.38-.88-3.38-1.8A6.984,6.984,0,0,1,209.9,46.64Zm-4.6-9.68-1.78-.16a8.752,8.752,0,0,1-.14,1.42,56.255,56.255,0,0,0-.9,8.02,25.182,25.182,0,0,0,.74,6.42l1.44-.1c-.02-.2-.04-.48-.06-.7a3.86,3.86,0,0,1,.1-.9,40.822,40.822,0,0,1,1.42-4.48l-.84-.64c-.34.82-.82,2.02-1.16,2.92a21.936,21.936,0,0,1-.18-2.8,46.44,46.44,0,0,1,1-7.66C205.02,37.94,205.2,37.3,205.3,36.96Zm21.92,3.34-.22.06h-5.84v1.48h5.2a13.644,13.644,0,0,1-5.68,8.58,6,6,0,0,1,1.18,1.18c2.92-1.98,5.34-5.68,6.34-10.92Zm10-1.8a37.944,37.944,0,0,1-4.74,4.96,24.417,24.417,0,0,1-1.68-4.52V35.32h-1.54v16.1c0,.4-.14.52-.54.54-.4,0-1.68.02-3.12-.04a5.921,5.921,0,0,1,.6,1.62,12.015,12.015,0,0,0,3.66-.3c.66-.28.94-.76.94-1.82V42.84c1.58,4.1,3.98,7.46,7.44,9.16a5.623,5.623,0,0,1,1.12-1.34,13.671,13.671,0,0,1-6.26-6.02,48.9,48.9,0,0,0,5.46-5.18Zm8.54-.98a33.566,33.566,0,0,0-3.22-2.06l-.88,1.04c1.04.66,2.5,1.6,3.2,2.18Zm-.62,5.24c-.78-.5-2.34-1.36-3.46-1.9l-.82,1.04a34.829,34.829,0,0,1,3.42,2.08Zm-1.3,3.34a54.588,54.588,0,0,1-2.76,6.4l1.34.78c.88-1.84,1.88-4.28,2.62-6.38Zm5.78,3.86a20.725,20.725,0,0,1,1.88,1.7l.68-.76a16.543,16.543,0,0,0-1.9-1.6Zm.04-2.76a18.049,18.049,0,0,1,1.9,1.56l.64-.8a20.685,20.685,0,0,0-1.88-1.46Zm7.02,3.52c-.46-.42-1.3-1.08-1.94-1.56l-.64.68A18.473,18.473,0,0,1,256,51.5Zm.1-2.76c-.46-.4-1.3-1.04-1.94-1.48l-.62.68a16.548,16.548,0,0,1,1.92,1.58Zm-.02-10.74v1.92h-8.9V37.22Zm2.08,5.82V41.82H247.86V40.4h10.32V35.98H246.46v5.76c0,3.24-.18,7.72-2.22,10.9a5.039,5.039,0,0,1,1.18.78c1.88-2.94,2.34-7.12,2.42-10.38h4.72v1.52h-4.54v8.96h1.24v-7.8h3.3V53.4h1.26V45.72h3.42v6.5c0,.22-.08.28-.3.28-.2,0-.94.02-1.74-.02a4.505,4.505,0,0,1,.38,1.06,6.631,6.631,0,0,0,2.34-.2c.46-.18.58-.48.58-1.12V44.56h-4.68V43.04Zm7.02-5.44c0,.22-.04.96-.1,1.9-1.04.18-2.22.3-2.88.34-.48.02-.86.04-1.3.02l.16,1.64c1.26-.18,3.02-.42,3.92-.54-.04.64-.1,1.32-.14,1.98-1,1.56-3.32,4.68-4.44,6.08l1.02,1.38c.96-1.36,2.28-3.26,3.26-4.74,0,.32-.02.6-.02.8-.04,2.18-.04,3.2-.06,5.12,0,.32-.02.82-.06,1.18h1.74c-.04-.36-.08-.86-.1-1.22-.1-1.78-.08-3-.08-4.82,0-.72.02-1.52.06-2.36,1.84-1.96,4.26-3.84,5.88-3.84a1.438,1.438,0,0,1,1.62,1.64c0,1.96-.76,5.24-.76,7.46,0,1.66.9,2.52,2.22,2.52a5.186,5.186,0,0,0,3.68-1.66l-.26-1.72a4.425,4.425,0,0,1-3.02,1.66c-.72,0-1.04-.56-1.04-1.22,0-2.04.74-5.48.74-7.48a2.481,2.481,0,0,0-2.78-2.68c-2.02,0-4.6,1.94-6.16,3.38.04-.4.06-.78.1-1.16.3-.5.64-1.04.9-1.4l-.58-.7c-.04.02-.08.02-.12.04.14-1.4.3-2.52.4-3.02l-1.88-.06A9.56,9.56,0,0,1,265.86,37.6Zm19.8,15.52,1.36-1.16a37.541,37.541,0,0,0-4.48-4.44l-1.3,1.14A33.322,33.322,0,0,1,285.66,53.12Zm32.36-10.54-.3.12H313.6l.34-.52c-.56-.3-1.34-.68-2.16-1.04a32,32,0,0,0,5.2-4.06l-1.08-.82-.34.08H303.22v1.38h10.9a23.2,23.2,0,0,1-3.8,2.74c-1.22-.54-2.52-1.08-3.62-1.52l-.76,1.1c1.78.76,4.06,1.8,5.76,2.66H301.34v1.42h8.24v7.52c0,.3-.12.38-.48.4-.4.02-1.74.04-3.12-.02a8.552,8.552,0,0,1,.56,1.44,14.41,14.41,0,0,0,3.6-.24c.7-.22.94-.64.94-1.56V44.12h5.68a21.836,21.836,0,0,1-2.34,3.12l1.2.76a27.815,27.815,0,0,0,3.58-4.86Zm18.76-3.18h-4.96V37.54h4.96Zm0,3.02h-4.96V40.56h4.96Zm0,3.06h-4.96v-1.9h4.96Zm1.42-9.16h-7.76V46.7h7.76ZM328.5,47.3a34.5,34.5,0,0,1,2.72,2.94l1.08-.88a32.619,32.619,0,0,0-2.76-2.82Zm-6,5.18a16.757,16.757,0,0,0,1.88-4.22l-1.3-.5a14.472,14.472,0,0,1-1.88,4.06Zm3.92-5.58V42.04c.88.74,2,1.72,2.52,2.22l.8-1.2c-.52-.4-2.56-1.92-3.32-2.4V39.54h3.16v-1.3h-3.16V35.32H325v2.92h-3.64v1.3h3.38a13.036,13.036,0,0,1-3.82,5.14,5.985,5.985,0,0,1,.96,1.04A14.066,14.066,0,0,0,325,41.64V46.9Zm2.3,4.86c-1.16,0-1.36-.1-1.36-.62V47.98H325.9v3.18c0,1.54.56,1.94,2.72,1.94h4.14c1.8,0,2.26-.6,2.46-3.1a3.7,3.7,0,0,1-1.36-.56c-.08,2.04-.24,2.32-1.2,2.32Zm6.78-3.82a46,46,0,0,1,2.3,4.1l1.38-.68c-.5-1.02-1.58-2.74-2.4-4ZM9.2,65.18l-1.64-.14a10.245,10.245,0,0,1-.5,2.5c-.44.02-.9.02-1.32.02a29.273,29.273,0,0,1-3.38-.22v1.5c1.1.08,2.42.12,3.28.12h.88A21.1,21.1,0,0,1,1.9,75.08l1.36,1A26.421,26.421,0,0,1,5.08,74a5.265,5.265,0,0,1,3.44-1.46,1.669,1.669,0,0,1,1.82,1.24C8,75,5.62,76.48,5.62,78.84c0,2.44,2.3,3.06,5.16,3.06a46.984,46.984,0,0,0,5.48-.36l.04-1.6a35.614,35.614,0,0,1-5.46.48c-2.06,0-3.62-.24-3.62-1.8,0-1.32,1.3-2.38,3.16-3.36,0,1.06-.02,2.36-.06,3.12h1.54c-.02-.98-.04-2.68-.06-3.84,1.52-.72,2.94-1.3,4.06-1.72a17.414,17.414,0,0,1,1.78-.64l-.66-1.5c-.56.3-1.04.52-1.64.78-1.04.48-2.26.96-3.62,1.62a2.582,2.582,0,0,0-2.68-1.8,5.726,5.726,0,0,0-2.78.74,15.879,15.879,0,0,0,1.8-3.1,57.851,57.851,0,0,0,6.64-.56l.02-1.48a49.186,49.186,0,0,1-6.1.62A20.418,20.418,0,0,0,9.2,65.18ZM26.3,75.94h3.1V74.62H26.3V71.78h3.14a6.027,6.027,0,0,1,.8.7,7.624,7.624,0,0,0,3.78-6.1h3.06c-.14,2.6-.32,3.62-.58,3.92a.632.632,0,0,1-.6.18c-.3,0-1.08,0-1.9-.08a3.638,3.638,0,0,1,.38,1.28,15.53,15.53,0,0,0,2.18,0,1.564,1.564,0,0,0,1.16-.5c.44-.5.62-1.9.8-5.46.02-.2.02-.62.02-.62H29.8v1.28h2.78a5.99,5.99,0,0,1-3,4.94v-.86H26.06V68h3.12V66.68H26.06v-2.4H24.68v2.4H21.5V68h3.18v2.46H21.12v1.32h3.84v7.34a6.6,6.6,0,0,1-1.72-2.98c.06-.9.1-1.86.12-2.84L22,73.22c-.04,3.5-.24,6.62-1.38,8.62a9.208,9.208,0,0,1,1.18.72,11.9,11.9,0,0,0,1.18-3.92c1.46,2.72,3.82,3.38,8.08,3.38H38.7a4.842,4.842,0,0,1,.62-1.48c-1.24.06-7.32.06-8.3.04a12.978,12.978,0,0,1-4.72-.64Zm5.56-1.92h4.76V77.7H31.86Zm-1.4,4.92h7.62V72.78H30.46ZM46.24,65.22l-.26,1.46c2.44.44,5.94.9,7.94,1.08l.22-1.48A66.27,66.27,0,0,1,46.24,65.22Zm8.3,5.72-.96-1.08a4.287,4.287,0,0,1-.96.22c-1.5.18-6.16.5-7.3.52a14.929,14.929,0,0,1-1.7-.04l.14,1.76c.44-.08.96-.14,1.62-.2,1.22-.1,4.58-.38,6.16-.48-1.98,1.98-7.42,7.42-8.22,8.24-.4.38-.76.68-1,.9l1.52,1.06a55.028,55.028,0,0,1,4.06-4.46,2.133,2.133,0,0,1,1.48-.72,1.325,1.325,0,0,1,1.22,1.06c.18.58.48,1.76.68,2.36.42,1.32,1.42,1.7,3.02,1.7a29.863,29.863,0,0,0,3.76-.3l.1-1.68a17.253,17.253,0,0,1-3.78.4c-1.02,0-1.5-.32-1.74-1.08-.2-.66-.48-1.66-.66-2.24a1.82,1.82,0,0,0-1.52-1.44,3.461,3.461,0,0,0-.78-.04c.74-.76,3-2.86,3.76-3.56A11.623,11.623,0,0,1,54.54,70.94ZM66.72,78.9a1.461,1.461,0,0,1,1.6-1.28A2.727,2.727,0,0,1,71,80.34a10.269,10.269,0,0,1-1.62.12C67.82,80.46,66.72,79.86,66.72,78.9ZM64.16,66.26l.06,1.66c.42-.06.88-.1,1.32-.12,1.06-.06,5.06-.24,6.12-.28-1.02.9-3.52,3-4.64,3.92-1.16.98-3.72,3.12-5.38,4.48l1.14,1.18c2.54-2.58,4.32-4,7.66-4,2.6,0,4.48,1.48,4.48,3.44a3.513,3.513,0,0,1-2.5,3.42,3.872,3.872,0,0,0-4.08-3.54,2.809,2.809,0,0,0-3.08,2.6c0,1.66,1.66,2.84,4.38,2.84,4.24,0,6.88-2.08,6.88-5.3,0-2.7-2.38-4.7-5.7-4.7a8.463,8.463,0,0,0-2.78.42c1.56-1.3,4.28-3.62,5.28-4.38.36-.3.76-.56,1.12-.82l-.92-1.16a4.716,4.716,0,0,1-1.08.16c-1.06.1-5.82.26-6.86.26A11.925,11.925,0,0,1,64.16,66.26ZM84.1,64.38a23.335,23.335,0,0,1-4.28,8.12,7.828,7.828,0,0,1,.78,1.52,21.865,21.865,0,0,0,1.9-2.68V82.52h1.44V68.62a36.084,36.084,0,0,0,1.54-3.86Zm6.34,3.28h4.72a8.885,8.885,0,0,1-2.3,2.66,9.337,9.337,0,0,1-2.46-2.6Zm7.88,0V66.44H91.16a17.178,17.178,0,0,0,.88-1.84l-1.34-.34a13.906,13.906,0,0,1-3.76,5.42V66.64h-1.3V79.22h1.3V69.86a9.186,9.186,0,0,1,1,.8,14.662,14.662,0,0,0,1.74-1.9,10.839,10.839,0,0,0,2.14,2.3,16.987,16.987,0,0,1-4.84,2,7.886,7.886,0,0,1,.9,1.16,18.633,18.633,0,0,0,5.06-2.34,15.257,15.257,0,0,0,5.2,2.16,7.067,7.067,0,0,1,.82-1.2A15.24,15.24,0,0,1,94,71.06a10.759,10.759,0,0,0,2.72-3.4Zm-3.1,7.54c-1.34,1.4-3.96,2.52-6.48,3.12a4.545,4.545,0,0,1,.78.98,15.162,15.162,0,0,0,6.84-3.64Zm-1.9-1.92a12.326,12.326,0,0,1-4.84,2.5,6.891,6.891,0,0,1,.84.88,13.352,13.352,0,0,0,5.14-2.92Zm3.76,4.1c-1.78,2.02-5.4,3.28-9.42,3.88a5.032,5.032,0,0,1,.78,1.18c4.22-.74,7.94-2.16,9.92-4.52Zm9.38-.4-2.18.72V72.74h2V71.36h-2V67.02h2.3v-1.4h-6.2v1.4h2.48v4.34H100.6v1.38h2.26v5.4c-1.02.34-1.94.62-2.68.84l.34,1.5c1.78-.58,4.06-1.36,6.2-2.08Zm2.46-6.74h3.04v2.54h-3.04Zm0-3.76h3.04V69h-3.04ZM116.3,69h-3.06V66.48h3.06Zm0,3.78h-3.06V70.24h3.06Zm-2.94,7.74V77.78h4.66V76.42h-4.66V74.08h4.36v-8.9H107.56v8.9h4.3v2.34h-4.54v1.36h4.54v2.74h-6.08v1.36h12.88V80.52ZM138.02,67.9a21.106,21.106,0,0,0-3.3-3.2l-1.08.72a21.34,21.34,0,0,1,3.22,3.28Zm-12.34-3.4a22.42,22.42,0,0,1-5.78,8.12,9.773,9.773,0,0,1,.86,1.44,22.665,22.665,0,0,0,2.68-2.94V82.5h1.5V68.98a26.959,26.959,0,0,0,2.14-4.04Zm12.72,6.44-.2-1.4-5.98.76c-.2-1.76-.32-3.7-.38-5.72h-1.48c.08,2.08.22,4.06.38,5.92l-4.84.6.2,1.4,4.8-.6c.76,6.24,2.36,10.38,5.64,10.62,1.04.06,1.84-.98,2.28-4.4a6.05,6.05,0,0,1-1.24-.78c-.2,2.3-.52,3.48-1.1,3.44-2.14-.2-3.44-3.78-4.12-9.08Zm9.48-5.48-1.84-.18a22.328,22.328,0,0,1-.52,4.36c-1.22.1-2.38.2-3.04.22-.64.02-1.16.02-1.8,0l.18,1.72c.5-.08,1.34-.18,1.8-.24.52-.06,1.48-.16,2.54-.26-.68,2.68-2.18,7.24-4.22,9.96l1.62.66a40.818,40.818,0,0,0,4.22-10.78c.86-.08,1.66-.14,2.14-.14,1.28,0,2.12.34,2.12,2.16a16.9,16.9,0,0,1-.94,6.12,1.668,1.668,0,0,1-1.76,1.04,9.737,9.737,0,0,1-2.44-.42l.26,1.68a12.117,12.117,0,0,0,2.36.28,2.815,2.815,0,0,0,2.92-1.66c.82-1.66,1.16-4.84,1.16-7.22,0-2.72-1.46-3.4-3.26-3.4-.48,0-1.3.06-2.24.14.22-1.08.4-2.26.52-2.84C147.72,66.26,147.8,65.84,147.88,65.46Zm6.88,2.32-1.46.66a23.463,23.463,0,0,1,3.58,7.18l1.54-.74A34.119,34.119,0,0,0,154.76,67.78Zm.24-2.9-1.08.44a24.483,24.483,0,0,1,1.62,2.78l1.1-.48A28.345,28.345,0,0,0,155,64.88Zm2.2-.82-1.06.46a22.425,22.425,0,0,1,1.66,2.76l1.08-.48A28.861,28.861,0,0,0,157.2,64.06Zm17.76,3.54v2.7h-6.64V67.6Zm.8,7.1v3.1h-7.44V74.7Zm-8.86,4.38h10.3V73.44h-8.88v-1.9h8.08v-5.2h-4.64c.26-.56.54-1.22.78-1.86l-1.68-.28a18.063,18.063,0,0,1-.64,2.14H166.9Zm-1.66-11.24a15.219,15.219,0,0,0-3.48-3.08l-1.1.9a13.8,13.8,0,0,1,3.4,3.16Zm-.56,4.26h-4.24v1.4h2.78v5.06a33.4,33.4,0,0,1-3.04,2.28l.8,1.5c1.06-.86,2.06-1.72,3.02-2.56,1.28,1.54,3.06,2.26,5.66,2.36,2.2.08,6.3.04,8.48-.04a6.767,6.767,0,0,1,.48-1.52c-2.34.16-6.78.22-8.96.14-2.3-.1-4.04-.78-4.98-2.24Zm24.52-4.08h-4.42c.02-1.14.04-2.3.04-3.48h-1.46c0,1.18,0,2.34-.02,3.48h-2.8v1.46h2.76c-.16,5-.76,9.42-3.24,12.04a4.578,4.578,0,0,1,1.12,1.02c2.7-2.92,3.38-7.7,3.56-13.06h3.02c-.14,7.66-.32,10.38-.78,10.94a.58.58,0,0,1-.66.32c-.36,0-1.22,0-2.14-.08a3.8,3.8,0,0,1,.44,1.5,12.65,12.65,0,0,0,2.34-.02,1.589,1.589,0,0,0,1.32-.76c.62-.86.76-3.76.92-12.6Zm3.04,11.32V68.18h3.88V79.34Zm-1.4-12.6V82.22h1.4V80.76h3.88v1.32h1.48V66.74Zm10.14,1.1.18,1.74c2.16-.46,7.26-.94,9.4-1.18a8.124,8.124,0,0,0-3.74,6.76c0,4.46,4.22,6.44,7.92,6.58l.58-1.66c-3.26-.12-6.9-1.36-6.9-5.26A7.039,7.039,0,0,1,213,68.48a16.752,16.752,0,0,1,3.92-.32v-1.6c-1.34.06-3.22.18-5.4.36-3.68.3-7.46.68-8.76.82C202.38,67.78,201.74,67.82,200.98,67.84Zm13.06,2.78-1.02.44a18.565,18.565,0,0,1,1.64,2.82l1.02-.48A23.737,23.737,0,0,0,214.04,70.62Zm2.18-.84-.98.46a18.536,18.536,0,0,1,1.68,2.8l1.04-.5A26.415,26.415,0,0,0,216.22,69.78Zm10.7-4.82h-5.68v1.2h5.68Zm.72,2.62h-7.4V68.8h7.4Zm-.68,2.7h-5.8v1.18h5.8Zm-5.8,3.84h5.8v-1.2h-5.8Zm4.54,2.7v3.36h-3.26V76.82Zm1.28-1.22h-5.84v6.7h1.3v-.92h4.54Zm3.48,2.12V76.28h5.42v1.44Zm5.42-3.92v1.42h-5.42V73.8Zm1.4-1.14h-8.2v9.82h1.38v-3.7h5.42v2.16c0,.24-.06.3-.3.32-.26,0-1.08.02-1.98-.02a3.545,3.545,0,0,1,.42,1.22,8.59,8.59,0,0,0,2.6-.2c.52-.22.66-.58.66-1.3Zm-3.56-2.3V69.04h4.04v-1.1h-4.04v-1.2h4.34V65.62h-4.34V64.26H232.3v1.36h-4.22v1.12h4.22v1.2h-3.7v1.1h3.7v1.32h-4.72V71.5H238.5V70.36Zm13.22,5.2c-2.44,1.4-5.02,2.84-6.72,3.72l.9,1.32c1.78-1,4.14-2.4,6.28-3.72Zm-.72-1.72a17.615,17.615,0,0,0-3.24-3.62l-1.14.76a17.344,17.344,0,0,1,3.18,3.72ZM252,65.28a23.455,23.455,0,0,1,3.64,2.34l.94-1.04a24.1,24.1,0,0,0-3.7-2.24Zm3.96,4.58a29.76,29.76,0,0,1-3.68,4,20.755,20.755,0,0,1-2.16-4.62v-.2h8V67.62h-8v-3.3h-1.5v3.3h-7.86v1.42h7.86V80.5c0,.4-.14.5-.52.52s-1.68.02-3.06-.02a7.24,7.24,0,0,1,.54,1.56,12.786,12.786,0,0,0,3.6-.28c.68-.26.94-.72.94-1.78V72.62c1.72,3.74,4.22,6.84,7.5,8.44a5.581,5.581,0,0,1,1.08-1.3,13.844,13.844,0,0,1-5.68-4.78,42.013,42.013,0,0,0,4.22-4.22Zm13.92-3.04c.14.46.34,1.06.58,1.8a41.791,41.791,0,0,1-7.9-.24l.04,1.6a51.385,51.385,0,0,0,8.4.04,26.715,26.715,0,0,0,2.42,4.56c-.72-.08-2.2-.2-3.32-.3l-.12,1.34a45.2,45.2,0,0,1,4.82.54l.82-1.12c-.3-.34-.6-.68-.88-1.06a21.28,21.28,0,0,1-2.24-4.12,29.735,29.735,0,0,0,4.14-.82l-.18-1.56a25.687,25.687,0,0,1-4.46.98,23.9,23.9,0,0,1-.92-3.42l-1.7.22C269.56,65.78,269.74,66.4,269.88,66.82Zm-4.24,7.94-1.56-.36a7.8,7.8,0,0,0-.96,3.32c0,2.72,2.4,4.1,6.2,4.12a29.046,29.046,0,0,0,5.16-.44l.08-1.6a22.294,22.294,0,0,1-5.16.5c-2.96-.02-4.7-.86-4.7-2.76A5.146,5.146,0,0,1,265.64,74.76Zm19.62-8.16c0,.22-.04.96-.1,1.9-1.04.18-2.22.3-2.88.34-.48.02-.86.04-1.3.02l.16,1.64c1.26-.18,3.02-.42,3.92-.54-.04.64-.1,1.32-.14,1.98-1,1.56-3.32,4.68-4.44,6.08l1.02,1.38c.96-1.36,2.28-3.26,3.26-4.74,0,.32-.02.6-.02.8-.04,2.18-.04,3.2-.06,5.12,0,.32-.02.82-.06,1.18h1.74c-.04-.36-.08-.86-.1-1.22-.1-1.78-.08-3-.08-4.82,0-.72.02-1.52.06-2.36,1.84-1.96,4.26-3.84,5.88-3.84a1.438,1.438,0,0,1,1.62,1.64c0,1.96-.76,5.24-.76,7.46,0,1.66.9,2.52,2.22,2.52a5.186,5.186,0,0,0,3.68-1.66l-.26-1.72a4.425,4.425,0,0,1-3.02,1.66c-.72,0-1.04-.56-1.04-1.22,0-2.04.74-5.48.74-7.48a2.481,2.481,0,0,0-2.78-2.68c-2.02,0-4.6,1.94-6.16,3.38.04-.4.06-.78.1-1.16.3-.5.64-1.04.9-1.4l-.58-.7c-.04.02-.08.02-.12.04.14-1.4.3-2.52.4-3.02l-1.88-.06A9.56,9.56,0,0,1,285.26,66.6Zm25.3,9.62-1.5-.14a12.5,12.5,0,0,0-.3,2.36c0,1.98,1.72,2.94,4.88,2.94a26.588,26.588,0,0,0,3.86-.28l.06-1.62a19.251,19.251,0,0,1-3.9.4c-2.86,0-3.38-.92-3.38-1.86A7.072,7.072,0,0,1,310.56,76.22Zm-2.3-10.96-1.92-.16a8,8,0,0,1-.06,1.66c-.06.4-.16,1.04-.3,1.74-.78.06-1.5.1-2.16.1a18.118,18.118,0,0,1-2.4-.14l.06,1.56c.72.04,1.44.08,2.32.08.56,0,1.18-.02,1.84-.06-.16.72-.34,1.48-.52,2.14a43.61,43.61,0,0,1-3.36,8.94l1.76.6a61.293,61.293,0,0,0,3.12-9.16c.24-.88.46-1.8.64-2.68a38.406,38.406,0,0,0,4.16-.68V67.62a29.609,29.609,0,0,1-3.84.72c.12-.54.22-1.06.3-1.48C307.98,66.46,308.14,65.7,308.26,65.26Zm1.88,6.1v1.48a32.866,32.866,0,0,1,3.72-.2,25.288,25.288,0,0,1,3.36.24l.04-1.52a32.013,32.013,0,0,0-3.46-.18C312.52,71.18,311.2,71.26,310.14,71.36Zm13.14,4.76a3.05,3.05,0,1,0,3.06,3.04A3.052,3.052,0,0,0,323.28,76.12Zm0,5.08a2.03,2.03,0,1,1,2.04-2.04A2.032,2.032,0,0,1,323.28,81.2Z" transform="translate(1571.814 3615.679)" fill="#fff"/>
    </g>
  </g>
</svg>
