<svg xmlns="http://www.w3.org/2000/svg" width="610" height="472.434" viewBox="0 0 610 472.434">
  <g id="treasonl_img" transform="translate(-175 -3700.566)">
    <g id="Group_208" data-name="Group 208" transform="translate(-931.641 96.5)">
      <g id="Union_6" data-name="Union 6" transform="translate(1515.64 3604.5)" fill="none">
        <path d="M24,90a10,10,0,0,1-10-9.956H0L14,67.756V10A10,10,0,0,1,24,0H152a10,10,0,0,1,10,10V80a10,10,0,0,1-10,10Z" stroke="none"/>
        <path d="M 152.0001068115234 89 C 156.9626617431641 89 161 84.96266937255859 161 80.00010681152344 L 161 9.999896049499512 C 161 5.037333488464355 156.9626617431641 1 152.0001068115234 1 L 23.9993953704834 1 C 19.03683280944824 1 14.9995002746582 5.037333488464355 14.9995002746582 9.999896049499512 L 14.9995002746582 68.20868682861328 L 2.655130386352539 79.04420471191406 L 14.9952917098999 79.04420471191406 L 14.99964618682861 80.03985595703125 C 15.0100622177124 82.43521118164062 15.9509162902832 84.68570709228516 17.64885330200195 86.37679290771484 C 19.34729194641113 88.06839752197266 21.60262489318848 89 23.9993953704834 89 L 152.0001068115234 89 M 152.0001068115234 90 L 23.9993953704834 90 C 18.4918327331543 90 14.02360439300537 85.546142578125 13.99964618682861 80.04420471191406 L 1.4210854715202e-14 80.04420471191406 L 13.9995002746582 67.75585174560547 L 13.9995002746582 9.999896049499512 C 13.9995002746582 4.477499961853027 18.47699928283691 7.105427357601002e-15 23.9993953704834 7.105427357601002e-15 L 152.0001068115234 7.105427357601002e-15 C 157.5225067138672 7.105427357601002e-15 162 4.477499961853027 162 9.999896049499512 L 162 80.00010681152344 C 162 85.52249908447266 157.5225067138672 90 152.0001068115234 90 Z" stroke="none" fill="#fff"/>
      </g>
      <text id="どこの業者で_工事したのか_把握しきれない_" data-name="どこの業者で
工事したのか
把握しきれない…" transform="translate(1541.641 3614)" fill="#fff" font-size="16" font-family="NotoSansJP-Regular, Noto Sans JP"><tspan x="0" y="19">どこの業者で</tspan><tspan x="0" y="43">工事したのか</tspan><tspan x="0" y="67">把握しきれない…</tspan></text>
    </g>
    <g id="b" transform="translate(406.998 3700.567)">
      <g id="c" transform="translate(0.002 -0.001)">
        <g id="Group_199" data-name="Group 199">
          <path id="Path_47" data-name="Path 47" d="M156.08,118.321,157.8,113.9s-.124-3.706-.527-6.506-1.211-5.509,0-6.736a17.146,17.146,0,0,1,3.442-2.4s6.7-8.194,7.634-8.869,2.611-.84,1.548,1.178-3.722,6.168-3.722,6.168a4.69,4.69,0,0,1,3.171.618c1.425.955,2.734,2.907,3.294,3.3s.494,2.421.124,3.541a5.309,5.309,0,0,1-1.425,2.018s1.054.5-1.367,3.591-6.02,4.365-6.333,4.933-3.508,4.875-3.508,4.875l-4.044-1.285Z" transform="translate(-27.545 -15.692)" fill="#f9ddd0"/>
          <path id="Path_48" data-name="Path 48" d="M29.466,148.17c-.189.165-2.635,3.64-4.184,4.76s-1.548,1.631-3.722,2.413a37.348,37.348,0,0,1-9.125,1.8c-2.792.115-9.067.84-10.311.955s-3.171.675-1.425,2.133S3.8,162.7,9.018,162.7s8.565.5,9.5.5,1.12.5,1.12,1.853a5.528,5.528,0,0,1-1,3.146c-.5.733,0,2.578,1.244,1.12a57.391,57.391,0,0,0,4.406-5.946,34.231,34.231,0,0,0,1.8-3.426c1-2.133.066-.28.066-.28s4.315-4.628,7.165-7.708l-3.854-3.78Z" transform="translate(-0.002 -26.147)" fill="#f9ddd0"/>
          <path id="Path_49" data-name="Path 49" d="M95.5,81.769c-3-.815-2.545-2-3.138-5.46a12.6,12.6,0,0,1,0-5.369l-5.567.8-5.567-.8a12.6,12.6,0,0,1,0,5.369c-.593,3.459-.14,4.636-3.138,5.46S69.54,84.4,69.54,84.4l.807,10.549h32.9l.807-10.549s-5.551-1.82-8.548-2.635Z" transform="translate(-12.273 -12.518)" fill="#fadfd3"/>
          <path id="Path_50" data-name="Path 50" d="M88.26,58.067h4.274s-.346,3.1,3.648,6.366,8.2,3,10.6,1.186,2.075-6.909.239-9.191-6.481-4.365-6.481-4.365,9.915-7,11.282-19.287-4.274-27.2-19.007-31.607a27.75,27.75,0,0,0-25.3,5.081A25.284,25.284,0,0,0,57.064,22.68c-2,11.282-1,12.1,2.816,20.012s21.56,15.375,21.56,15.375Z" transform="translate(-9.894 0.001)" fill="#e46666"/>
          <g id="Group_197" data-name="Group 197" transform="translate(48.265 34.255)">
            <path id="Path_51" data-name="Path 51" d="M120.655,46.721c-.782,2.224-3.1,3.788-4.06,3.739-1.581-.082-2.1-2.652-1.515-5.081s2.314-4.109,3.854-3.731c2.075.511,2.553,2.718,1.721,5.081Z" transform="translate(-68.534 -41.595)" fill="#f9dacd"/>
            <path id="Path_52" data-name="Path 52" d="M59,46.721c.782,2.224,3.1,3.788,4.06,3.739,1.581-.082,2.1-2.652,1.515-5.081s-2.314-4.109-3.854-3.731c-2.075.511-2.553,2.718-1.721,5.081Z" transform="translate(-58.609 -41.595)" fill="#f9dacd"/>
          </g>
          <path id="Path_53" data-name="Path 53" d="M108.5,27.615c0,18.241-10.689,33.023-22.919,33.023S62.66,45.848,62.66,27.615,72.921,5.52,85.579,5.52,108.5,9.374,108.5,27.615Z" transform="translate(-11.059 -0.973)" fill="#f9dacd"/>
          <ellipse id="Ellipse_16" data-name="Ellipse 16" cx="1.729" cy="2.207" rx="1.729" ry="2.207" transform="translate(64.769 33.28)" fill="#101010"/>
          <path id="Path_54" data-name="Path 54" d="M76.77,41.35a11.429,11.429,0,0,0,2.866,1.433" transform="translate(-13.549 -7.296)" fill="#fff" stroke="#101010" stroke-linecap="round" stroke-miterlimit="10" stroke-width="1.3"/>
          <ellipse id="Ellipse_17" data-name="Ellipse 17" cx="1.729" cy="2.207" rx="1.729" ry="2.207" transform="translate(81.289 33.28)" fill="#101010"/>
          <path id="Path_55" data-name="Path 55" d="M104.166,41.35a11.429,11.429,0,0,1-2.866,1.433" transform="translate(-17.878 -7.296)" fill="#fff" stroke="#101010" stroke-linecap="round" stroke-miterlimit="10" stroke-width="1.3"/>
          <path id="Path_56" data-name="Path 56" d="M71.25,35.773s3.138-4.274,10.236-2.726" transform="translate(-12.575 -5.772)" fill="none" stroke="#101010" stroke-linecap="round" stroke-miterlimit="10" stroke-width="1.3"/>
          <path id="Path_57" data-name="Path 57" d="M90.094,48.31s-3.319,1.861,0,3.047" transform="translate(-15.64 -8.525)" fill="none" stroke="#101010" stroke-linecap="round" stroke-miterlimit="10" stroke-width="1.16"/>
          <path id="Path_58" data-name="Path 58" d="M70.936,15.844S68.3,29.761,60.477,33.22a53.551,53.551,0,0,1,0-14.733c1.186-7,6.728-16.191,25.834-15.466s24.335,13.736,23.742,22.919-1.351,8.886-1.351,8.886S77.31,27.579,70.944,15.844Z" transform="translate(-10.581 -0.525)" fill="#e46666"/>
          <g id="Group_198" data-name="Group 198" transform="translate(57.258 71.895)">
            <path id="Path_59" data-name="Path 59" d="M69.53,87.3a4.279,4.279,0,0,0,1.079,2.668c-.412-1.474-.618-2.4-.618-2.4l-.453-.272Z" transform="translate(-69.529 -87.3)" fill="#f1a69a"/>
            <path id="Path_60" data-name="Path 60" d="M111.211,87.3l-.453.272s-.214.922-.618,2.4a4.279,4.279,0,0,0,1.079-2.668Z" transform="translate(-76.696 -87.3)" fill="#f1a69a"/>
            <path id="Path_61" data-name="Path 61" d="M87.022,95.234c-10.393-.107-14.544-2.627-16.182-4.694a68.494,68.494,0,0,0,5.18,13.522c2.767,5.1,7.914,7.1,10.335,7.782v.313s.247-.041.667-.14c.42.1.667.14.667.14v-.313c2.421-.684,7.568-2.685,10.335-7.782A68.494,68.494,0,0,0,103.2,90.54C101.566,92.607,97.423,95.127,87.022,95.234Z" transform="translate(-69.76 -87.872)" fill="#f1a69a"/>
          </g>
          <ellipse id="Ellipse_18" data-name="Ellipse 18" cx="3.582" cy="2.207" rx="3.582" ry="2.207" transform="translate(82.104 38.888)" fill="#f9c8c2"/>
          <ellipse id="Ellipse_19" data-name="Ellipse 19" cx="3.582" cy="2.207" rx="3.582" ry="2.207" transform="translate(58.675 38.888)" fill="#f9c8c2"/>
          <path id="Path_62" data-name="Path 62" d="M119.528,107.955s10.335,16.611,13.44,20.992a63.208,63.208,0,0,0,7.016,8.194c.873.9,1.861,1.178,3.475-.5s11.8-15.375,11.8-15.375l-6.522-3.764a53.256,53.256,0,0,0-6.646,11.052C133.339,112.5,120.607,93.09,120.607,93.09l-1.087,14.865Z" transform="translate(-21.093 -16.427)" fill="#f9c8c2"/>
          <path id="Path_63" data-name="Path 63" d="M55.506,91.468s-2.174.56-3.6,6.226-2.487,11.5-4.282,17.615-2.792,8.3-4.908,11.612S34.77,137.75,34.77,137.75l5.46,4.884s2.981-4.266,6.4-8.416,10.525-20.975,10.525-20.975L55.506,91.46Z" transform="translate(-6.137 -16.139)" fill="#f9c8c2"/>
          <path id="Path_64" data-name="Path 64" d="M106.975,136.168c-.148-9.166,2.94-45.5,2.94-45.5s-5.732-3.393-9.38-3.7c0,0-7.165,20.423-16.718,22.952C74.273,107.394,67.1,86.97,67.1,86.97c-3.648.3-9.38,3.7-9.38,3.7s3.088,36.334,2.94,45.5-7.98,31.36-7.98,31.36v.856h62.275v-.856S107.123,145.333,106.975,136.168Z" transform="translate(-9.298 -15.347)" fill="#fcfce4"/>
          <ellipse id="Ellipse_20" data-name="Ellipse 20" cx="1.713" cy="2.495" rx="1.713" ry="2.495" transform="translate(72.98 47.033)" fill="none" stroke="#101010" stroke-linecap="round" stroke-miterlimit="10" stroke-width="1.3"/>
        </g>
      </g>
    </g>
    <g id="Group_207" data-name="Group 207" transform="translate(-393.023 -301)">
      <g id="Union_2" data-name="Union 2" transform="translate(790 4092) rotate(180)" fill="none">
        <path d="M23.978,90a10,10,0,0,1-10-10V22.244l-14-12.288h14A10,10,0,0,1,23.978,0h128a10,10,0,0,1,10,10V80a10,10,0,0,1-10,10Z" stroke="none"/>
        <path d="M 151.9785003662109 89 C 156.9410705566406 89 160.9783935546875 84.96266937255859 160.9783935546875 80.00010681152344 L 160.9783935546875 9.999896049499512 C 160.9783935546875 5.037333488464355 156.9410705566406 1 151.9785003662109 1 L 23.97779655456543 1 C 21.58102607727051 1 19.32569313049316 1.931604146957397 17.62725448608398 3.623208284378052 C 15.92931747436523 5.314291477203369 14.98846340179443 7.564791679382324 14.97804737091064 9.960145950317383 L 14.97369289398193 10.95579147338867 L 2.63353157043457 10.95579147338867 L 14.97790145874023 21.79131317138672 L 14.97790145874023 80.00010681152344 C 14.97790145874023 84.96266937255859 19.01523399353027 89 23.97779655456543 89 L 151.9785003662109 89 M 151.9785003662109 90 L 23.97779655456543 90 C 18.45540046691895 90 13.97790145874023 85.52249908447266 13.97790145874023 80.00010681152344 L 13.97790145874023 22.2441463470459 L -0.02159881591796875 9.955791473388672 L 13.97804737091064 9.955791473388672 C 14.0020055770874 4.453854084014893 18.47023391723633 7.105427357601002e-15 23.97779655456543 7.105427357601002e-15 L 151.9785003662109 7.105427357601002e-15 C 157.5009002685547 7.105427357601002e-15 161.9783935546875 4.477499961853027 161.9783935546875 9.999896049499512 L 161.9783935546875 80.00010681152344 C 161.9783935546875 85.52249908447266 157.5009002685547 90 151.9785003662109 90 Z" stroke="none" fill="#fff"/>
      </g>
      <text id="修理はどこに_頼んだら_良いかしら_" data-name="修理はどこに
頼んだら
良いかしら？" transform="translate(646 4011)" fill="#fff" font-size="16" font-family="NotoSansJP-Regular, Noto Sans JP"><tspan x="0" y="19">修理はどこに</tspan><tspan x="0" y="43">頼んだら</tspan><tspan x="0" y="67">良いかしら？</tspan></text>
    </g>
    <g id="Group_94" data-name="Group 94" transform="translate(-467 -4)">
      <g id="Union_2-2" data-name="Union 2" transform="translate(770 4082.002) rotate(180)" fill="none">
        <path d="M10,80A10,10,0,0,1,0,70V23A10,10,0,0,1,10,13V0L21.411,13H118a10,10,0,0,1,10,10V70a10,10,0,0,1-10,10Z" stroke="none"/>
        <path d="M 117.9999008178711 79.00189971923828 C 122.9624710083008 79.00189971923828 126.9998016357422 74.96456909179688 126.9998016357422 70.00199890136719 L 126.9998016357422 23.00220108032227 C 126.9998016357422 18.03963279724121 122.9624710083008 14.00230026245117 117.9999008178711 14.00230026245117 L 20.95776748657227 14.00230026245117 L 10.99990081787109 2.657068252563477 L 10.99990081787109 14.00230026245117 L 9.999900817871094 14.00230026245117 C 5.037333965301514 14.00230026245117 1.000000834465027 18.03963279724121 1.000000834465027 23.00220108032227 L 1.000000834465027 70.00199890136719 C 1.000000834465027 74.96456909179688 5.037333965301514 79.00189971923828 9.999900817871094 79.00189971923828 L 117.9999008178711 79.00189971923828 M 117.9999008178711 80.00189971923828 L 9.999900817871094 80.00189971923828 C 4.477500915527344 80.00189971923828 8.178710686479462e-07 75.52439880371094 8.178710686479462e-07 70.00199890136719 L 8.178710686479462e-07 23.00220108032227 C 8.178710686479462e-07 17.47890090942383 4.477500915527344 13.00230026245117 9.999900817871094 13.00230026245117 L 9.999900817871094 0.001800128142349422 L 21.41061782836914 13.00230026245117 L 117.9999008178711 13.00230026245117 C 123.5232009887695 13.00230026245117 127.9998016357422 17.47890090942383 127.9998016357422 23.00220108032227 L 127.9998016357422 70.00199890136719 C 127.9998016357422 75.52439880371094 123.5232009887695 80.00189971923828 117.9999008178711 80.00189971923828 Z" stroke="none" fill="#fff"/>
      </g>
      <text id="修理は対応していません" transform="translate(655 4011)" fill="#fff" font-size="16" font-family="NotoSansJP-Regular, Noto Sans JP"><tspan x="0" y="19">修理は対応し</tspan><tspan x="0" y="43">ていません</tspan></text>
    </g>
    <g id="Group_226" data-name="Group 226" transform="translate(-23.188)">
      <text id="修理_" data-name="修理!!" transform="translate(483 3955)" fill="#fff" font-size="16" font-family="NotoSansJP-Regular, Noto Sans JP"><tspan x="0" y="0">修理!!</tspan></text>
      <text id="_" data-name="?" transform="translate(442 4057)" fill="#fff" font-size="16" font-family="NotoSansJP-Regular, Noto Sans JP"><tspan x="0" y="0">?</tspan></text>
      <text id="_2" data-name="?" transform="translate(551 4057)" fill="#fff" font-size="16" font-family="NotoSansJP-Regular, Noto Sans JP"><tspan x="0" y="0">?</tspan></text>
      <g id="arrow" transform="translate(553.25 3862.542) rotate(60)">
        <line id="Line_38" data-name="Line 38" x2="186" transform="translate(0 3.5)" fill="none" stroke="#fff" stroke-width="2"/>
        <path id="Polygon_4" data-name="Polygon 4" d="M3.5,0,7,8H0Z" transform="translate(193.5) rotate(90)" fill="#fff"/>
      </g>
      <g id="arrow-2" data-name="arrow" transform="translate(459 3866.042) rotate(120)">
        <line id="Line_38-2" data-name="Line 38" x2="186" transform="translate(0 3.5)" fill="none" stroke="#fff" stroke-width="2"/>
        <path id="Polygon_4-2" data-name="Polygon 4" d="M3.5,0,7,8H0Z" transform="translate(193.5) rotate(90)" fill="#fff"/>
      </g>
      <g id="Group_92" data-name="Group 92" transform="translate(-125 -586)">
        <g id="arrow-3" data-name="arrow" transform="translate(614.771 4559.5) rotate(120)">
          <line id="Line_38-3" data-name="Line 38" x2="61.918" y2="0.661" transform="translate(0 2.84)" fill="none" stroke="#fff" stroke-width="2"/>
          <path id="Polygon_4-3" data-name="Polygon 4" d="M3.5,0,7,8H0Z" transform="translate(69.418) rotate(90)" fill="#fff"/>
        </g>
        <g id="arrow-4" data-name="arrow" transform="translate(649.063 4556) rotate(60)">
          <line id="Line_38-4" data-name="Line 38" x2="61.918" y2="0.661" transform="translate(0 2.84)" fill="none" stroke="#fff" stroke-width="2"/>
          <path id="Polygon_4-4" data-name="Polygon 4" d="M3.5,0,7,8H0Z" transform="translate(69.418) rotate(90)" fill="#fff"/>
        </g>
      </g>
      <line id="Line_39" data-name="Line 39" y2="42" transform="translate(503.5 3885.5)" fill="none" stroke="#fff" stroke-width="2"/>
      <g id="arrow-5" data-name="arrow" transform="translate(407 4127)">
        <line id="Line_38-5" data-name="Line 38" x2="186" transform="translate(0 3.5)" fill="none" stroke="#fff" stroke-width="2"/>
        <path id="Polygon_4-5" data-name="Polygon 4" d="M3.5,0,7,8H0Z" transform="translate(193.5) rotate(90)" fill="#fff"/>
      </g>
    </g>
    <text id="依頼" transform="translate(464 4163)" fill="#fff" font-size="16" font-family="NotoSansJP-Regular, Noto Sans JP"><tspan x="0" y="0">依頼</tspan></text>
    <text id="購入発注依頼" transform="translate(275 3926)" fill="#fff" font-size="16" font-family="NotoSansJP-Regular, Noto Sans JP"><tspan x="0" y="0">購入発注依頼</tspan></text>
    <text id="設置" transform="translate(618 3926)" fill="#fff" font-size="16" font-family="NotoSansJP-Regular, Noto Sans JP"><tspan x="0" y="0">設置</tspan></text>
    <g id="Group_78" data-name="Group 78" transform="translate(-178 330)">
      <text id="施工会社" transform="translate(790 3836)" fill="#fff" font-size="16" font-family="NotoSansJP-Regular, Noto Sans JP"><tspan x="0" y="0">施工会社</tspan></text>
      <g id="Layer_2" data-name="Layer 2" transform="translate(802 3758)">
        <g id="Group_60" data-name="Group 60">
          <path id="Path_8" data-name="Path 8" d="M4.23,43.82V1H35.25V43.82" fill="none" stroke="#fff" stroke-linecap="round" stroke-linejoin="round" stroke-width="2"/>
          <line id="Line_12" data-name="Line 12" x2="37.46" transform="translate(1 43.73)" fill="none" stroke="#fff" stroke-linecap="round" stroke-linejoin="round" stroke-width="2"/>
          <path id="Path_9" data-name="Path 9" d="M15.72,43.64V34.99h8.57v8.78" fill="none" stroke="#fff" stroke-linecap="round" stroke-linejoin="round" stroke-width="2"/>
          <line id="Line_13" data-name="Line 13" y2="4.06" transform="translate(13.98 12.1)" fill="none" stroke="#fff" stroke-linecap="round" stroke-linejoin="round" stroke-width="2"/>
          <line id="Line_14" data-name="Line 14" y2="4.06" transform="translate(19.74 12.1)" fill="none" stroke="#fff" stroke-linecap="round" stroke-linejoin="round" stroke-width="2"/>
          <line id="Line_15" data-name="Line 15" y2="4.06" transform="translate(25.51 12.1)" fill="none" stroke="#fff" stroke-linecap="round" stroke-linejoin="round" stroke-width="2"/>
          <line id="Line_16" data-name="Line 16" y2="4.06" transform="translate(13.98 20.66)" fill="none" stroke="#fff" stroke-linecap="round" stroke-linejoin="round" stroke-width="2"/>
          <line id="Line_17" data-name="Line 17" y2="4.06" transform="translate(19.74 20.66)" fill="none" stroke="#fff" stroke-linecap="round" stroke-linejoin="round" stroke-width="2"/>
          <line id="Line_18" data-name="Line 18" y2="4.06" transform="translate(25.51 20.66)" fill="none" stroke="#fff" stroke-linecap="round" stroke-linejoin="round" stroke-width="2"/>
        </g>
      </g>
    </g>
    <g id="Group_77" data-name="Group 77" transform="translate(-124 330)">
      <text id="販売会社" transform="translate(408 3838)" fill="#fff" font-size="16" font-family="NotoSansJP-Regular, Noto Sans JP"><tspan x="0" y="0">販売会社</tspan></text>
      <g id="Layer_2-2" data-name="Layer 2" transform="translate(418.004 3758.99)">
        <g id="Group_62" data-name="Group 62">
          <path id="Path_16" data-name="Path 16" d="M3.33,20.28V40.96H40.2V20.28" fill="none" stroke="#fff" stroke-linecap="round" stroke-linejoin="round" stroke-width="2"/>
          <path id="Path_17" data-name="Path 17" d="M28.73,1.82V14.99a6.9,6.9,0,0,1-6.9,6.9H21.7a6.9,6.9,0,0,1-6.9-6.9V1.52" fill="none" stroke="#fff" stroke-linecap="round" stroke-linejoin="round" stroke-width="2"/>
          <path id="Path_18" data-name="Path 18" d="M28.73,14.99a6.9,6.9,0,0,0,6.9,6.9h0a6.9,6.9,0,0,0,6.31-9.68L37,1.01H6.53L1.59,12.2A6.9,6.9,0,0,0,7.9,21.88h0a6.9,6.9,0,0,0,6.9-6.9" fill="none" stroke="#fff" stroke-linecap="round" stroke-linejoin="round" stroke-width="2"/>
          <path id="Path_19" data-name="Path 19" d="M25.89,40.6V31.73a4.464,4.464,0,0,1,4.46-4.46h0a4.464,4.464,0,0,1,4.46,4.46V40.6" fill="none" stroke="#fff" stroke-linecap="round" stroke-linejoin="round" stroke-width="2"/>
        </g>
      </g>
    </g>
    <text id="お客様" transform="translate(456 3876)" fill="#fff" font-size="16" font-family="NotoSansJP-Regular, Noto Sans JP"><tspan x="0" y="0">お客様</tspan></text>
    <g id="Group_95" data-name="Group 95" transform="translate(15 -8)">
      <g id="Union_2-3" data-name="Union 2" transform="translate(642 4002)" fill="none">
        <path d="M10,67A10,10,0,0,1,0,57V10A10,10,0,0,1,10,0H118a10,10,0,0,1,10,10V57a10,10,0,0,1-10,10H21.411L10,80Z" stroke="none"/>
        <path d="M 10.99990081787109 77.34496307373047 L 20.95775032043457 66.00049591064453 L 117.9999008178711 66.00049591064453 C 122.9624710083008 66.00049591064453 126.9998016357422 61.96274948120117 126.9998016357422 56.99969863891602 L 126.9998016357422 9.999899864196777 C 126.9998016357422 5.037333011627197 122.9624710083008 0.9999995827674866 117.9999008178711 0.9999995827674866 L 9.999900817871094 0.9999995827674866 C 5.037333965301514 0.9999995827674866 1.000000834465027 5.037333011627197 1.000000834465027 9.999899864196777 L 1.000000834465027 56.99969863891602 C 1.000000834465027 61.96274948120117 5.037333965301514 66.00049591064453 9.999900817871094 66.00049591064453 L 10.99990081787109 66.00049591064453 L 10.99990081787109 77.34496307373047 M 9.999900817871094 80.00009918212891 L 9.999900817871094 67.00049591064453 C 4.477500915527344 67.00049591064453 8.178710686479462e-07 62.52299880981445 8.178710686479462e-07 56.99969863891602 L 8.178710686479462e-07 9.999899864196777 C 8.178710686479462e-07 4.477499485015869 4.477500915527344 -4.089355343239731e-07 9.999900817871094 -4.089355343239731e-07 L 117.9999008178711 -4.089355343239731e-07 C 123.5232009887695 -4.089355343239731e-07 127.9998016357422 4.477499485015869 127.9998016357422 9.999899864196777 L 127.9998016357422 56.99969863891602 C 127.9998016357422 62.52299880981445 123.5232009887695 67.00049591064453 117.9999008178711 67.00049591064453 L 21.41056823730469 67.00049591064453 L 9.999900817871094 80.00009918212891 Z" stroke="none" fill="#fff"/>
      </g>
      <text id="販売会社に聞いてください" transform="translate(655 4011)" fill="#fff" font-size="16" font-family="NotoSansJP-Regular, Noto Sans JP"><tspan x="0" y="19">販売会社に聞</tspan><tspan x="0" y="43">いてください</tspan></text>
    </g>
  </g>
</svg>
