<svg xmlns="http://www.w3.org/2000/svg" width="138.876" height="26.778" viewBox="0 0 138.876 26.778">
  <path id="Path_4" data-name="Path 4" d="M127.488,14.8l10.539-3.388a1.225,1.225,0,0,0,.822-1.421,7.772,7.772,0,0,0-7.971-6.442,8.507,8.507,0,0,0-8.781,8.612c0,4.91,3.885,8.575,9.038,8.575a11.752,11.752,0,0,0,6.516-2.047,1.225,1.225,0,0,0,.453-1.458l-.333-.853a1.226,1.226,0,0,0-1.827-.567,8.5,8.5,0,0,1-4.771,1.581,5.108,5.108,0,0,1-3.945-1.659l0,0a.579.579,0,0,1,.264-.927Zm-.527-3.195a.63.63,0,0,1-.812-.726.018.018,0,0,1,0-.007,4.843,4.843,0,0,1,4.764-4.017,4.109,4.109,0,0,1,3.312,1.531.609.609,0,0,1-.292.953L126.961,11.6ZM21.174,3.516A8.155,8.155,0,0,0,15.7,5.453a1.092,1.092,0,0,1-1.513-.062A6.624,6.624,0,0,0,9.235,3.516,7.344,7.344,0,0,0,4.623,4.978.578.578,0,0,1,3.7,4.655c-.007-.03-.032-.133-.04-.155a1.225,1.225,0,0,0-1.147-.8H1.225A1.224,1.224,0,0,0,0,4.928V19.246a1.223,1.223,0,0,0,1.224,1.224H2.7a1.223,1.223,0,0,0,1.224-1.224V11.96c0-3.328,1.759-5.023,4.366-5.023,2.388,0,3.77,1.445,3.77,4.427v7.881a1.223,1.223,0,0,0,1.224,1.224h1.479a1.223,1.223,0,0,0,1.224-1.224V11.96c0-3.328,1.791-5.023,4.366-5.023,2.387,0,3.77,1.445,3.77,4.427v7.881a1.223,1.223,0,0,0,1.224,1.224h1.478a1.223,1.223,0,0,0,1.224-1.224V10.862c0-5.055-2.827-7.346-6.879-7.346Zm18.339,0c-5.152,0-8.922,3.548-8.922,8.571s3.77,8.6,8.922,8.6,8.954-3.579,8.954-8.6-3.738-8.571-8.954-8.571Zm0,13.814a4.877,4.877,0,0,1-4.963-5.243,4.986,4.986,0,1,1,9.958,0A4.884,4.884,0,0,1,39.512,17.33ZM61.125,3.516A7.882,7.882,0,0,0,56.3,4.959a.639.639,0,0,1-1-.336c-.009-.029-.028-.1-.036-.123a1.225,1.225,0,0,0-1.147-.8h-1.29a1.223,1.223,0,0,0-1.224,1.224V19.246a1.223,1.223,0,0,0,1.224,1.224h1.478a1.223,1.223,0,0,0,1.224-1.224V11.993c0-3.359,1.885-5.055,4.681-5.055,2.513,0,3.99,1.445,3.99,4.427v7.881a1.223,1.223,0,0,0,1.224,1.224H66.9a1.223,1.223,0,0,0,1.224-1.224V10.862c0-5.055-2.984-7.346-7.005-7.346ZM80.6,18.109a1.348,1.348,0,0,0-1.622-.8,4.084,4.084,0,0,1-1.106.147c-1.508,0-2.325-.88-2.325-2.512V8.194A1.223,1.223,0,0,1,76.768,6.97h2.044a1.223,1.223,0,0,0,1.224-1.224V5.053a1.223,1.223,0,0,0-1.224-1.224H76.768a1.223,1.223,0,0,1-1.224-1.224V1.223A1.223,1.223,0,0,0,74.321,0H72.841a1.223,1.223,0,0,0-1.224,1.224V15.038c0,3.7,2.1,5.651,5.78,5.651a7.052,7.052,0,0,0,2.748-.528,1.218,1.218,0,0,0,.643-1.566ZM90.812,3.516a12.73,12.73,0,0,0-6.1,1.415,1.22,1.22,0,0,0-.473,1.644l.375.7a1.227,1.227,0,0,0,1.66.5,8.859,8.859,0,0,1,4.063-.985c2.21,0,3.537.843,4,2.33,0,.013.008.025.011.039a1.222,1.222,0,0,1-1.19,1.524H90.183c-5.089,0-6.974,2.2-6.974,4.992s2.419,5.023,6.251,5.023a6.789,6.789,0,0,0,4.481-1.358.527.527,0,0,1,.85.275.006.006,0,0,0,0,0,1.225,1.225,0,0,0,1.169.859H97.22a1.223,1.223,0,0,0,1.224-1.224v-8.6c0-4.835-2.8-7.127-7.633-7.127Zm3.707,11.5a1.678,1.678,0,0,1-.331.877,4.432,4.432,0,0,1-3.91,1.935c-2.01,0-3.2-.911-3.2-2.324,0-1.225.723-2.23,3.392-2.23h2.828A1.223,1.223,0,0,1,94.518,14.5v.517ZM118.364,3.7h-1.291a1.226,1.226,0,0,0-1.178.887v0a.661.661,0,0,1-1.046.377,7.792,7.792,0,0,0-4.811-1.456c-4.806,0-8.482,3.2-8.482,8.069s3.676,8.131,8.482,8.131a7.79,7.79,0,0,0,4.739-1.43.549.549,0,0,1,.876.459v0c-.121,3.135-1.769,4.7-5.333,4.7a10.779,10.779,0,0,1-5.2-1.329,1.222,1.222,0,0,0-1.655.438l-.485.813a1.266,1.266,0,0,0,.452,1.746,14.664,14.664,0,0,0,7.108,1.659c5.875,0,9.048-2.763,9.048-8.853v-13A1.223,1.223,0,0,0,118.364,3.7Zm-7.729,12.683c-2.984,0-5.121-1.947-5.121-4.8s2.137-4.741,5.121-4.741,5.089,1.915,5.089,4.741A4.763,4.763,0,0,1,110.635,16.387Z" fill="#1f3134" fill-rule="evenodd"/>
</svg>
