<svg xmlns="http://www.w3.org/2000/svg" width="751.5" height="361" viewBox="0 0 751.5 361">
  <g id="Group_87" data-name="Group 87" transform="translate(-547.5 -4454)">
    <rect id="Rectangle_48" data-name="Rectangle 48" width="50" height="168" transform="translate(566 4613)" fill="#a9cd36"/>
    <rect id="Rectangle_49" data-name="Rectangle 49" width="50" height="131" transform="translate(694 4650)" fill="#a9cd36"/>
    <rect id="Rectangle_50" data-name="Rectangle 50" width="50" height="154" transform="translate(822 4627)" fill="#a9cd36"/>
    <rect id="Rectangle_51" data-name="Rectangle 51" width="50" height="160" transform="translate(951 4621)" fill="#a9cd36"/>
    <rect id="Rectangle_52" data-name="Rectangle 52" width="50" height="207" transform="translate(1079 4574)" fill="#a9cd36"/>
    <rect id="Rectangle_53" data-name="Rectangle 53" width="50" height="243" transform="translate(1207 4538)" fill="#a9cd36"/>
    <text id="_2018" data-name="2018" transform="translate(573 4810)" fill="#1a1a1a" font-size="18" font-family="SegoeUI, Segoe UI"><tspan x="0" y="0">2018</tspan></text>
    <text id="_4_568" data-name="4,568" transform="translate(573 4596)" fill="#999" font-size="18" font-family="SegoeUI-Bold, Segoe UI" font-weight="700"><tspan x="0" y="0">4,568</tspan></text>
    <text id="_4_452" data-name="4,452" transform="translate(701 4633)" fill="#999" font-size="18" font-family="SegoeUI-Bold, Segoe UI" font-weight="700"><tspan x="0" y="0">4,452</tspan></text>
    <text id="_4_453" data-name="4,453" transform="translate(829 4621)" fill="#999" font-size="18" font-family="SegoeUI-Bold, Segoe UI" font-weight="700"><tspan x="0" y="0">4,453</tspan></text>
    <text id="_5_016" data-name="5,016" transform="translate(957 4610)" fill="#999" font-size="18" font-family="SegoeUI-Bold, Segoe UI" font-weight="700"><tspan x="0" y="0">5,016</tspan></text>
    <text id="_6_613" data-name="6,613" transform="translate(1085 4557)" fill="#999" font-size="18" font-family="SegoeUI-Bold, Segoe UI" font-weight="700"><tspan x="0" y="0">6,613</tspan></text>
    <text id="_2019" data-name="2019" transform="translate(701 4810)" fill="#1a1a1a" font-size="18" font-family="SegoeUI, Segoe UI"><tspan x="0" y="0">2019</tspan></text>
    <text id="_2020" data-name="2020" transform="translate(829 4810)" fill="#1a1a1a" font-size="18" font-family="SegoeUI, Segoe UI"><tspan x="0" y="0">2020</tspan></text>
    <text id="_2021" data-name="2021" transform="translate(956 4810)" fill="#1a1a1a" font-size="18" font-family="SegoeUI, Segoe UI"><tspan x="0" y="0">2021</tspan></text>
    <text id="_2022" data-name="2022" transform="translate(1084 4810)" fill="#1a1a1a" font-size="18" font-family="SegoeUI, Segoe UI"><tspan x="0" y="0">2022</tspan></text>
    <text id="_2023" data-name="2023" transform="translate(1212 4810)" fill="#1a1a1a" font-size="18" font-family="SegoeUI, Segoe UI"><tspan x="0" y="0">2023</tspan></text>
    <text id="_9_310" data-name="9,310" transform="translate(1180 4504)" fill="#1a1a1a" font-size="46" font-family="SegoeUI-Bold, Segoe UI" font-weight="700"><tspan x="0" y="0">9,310</tspan></text>
    <path id="Path_95" data-name="Path 95" d="M5703.723,5105.649l260.1,5.337,136.808-17.792,130.844-43.234,140.6-59.336" transform="translate(-5121.157 -466)" fill="none" stroke="#ccc" stroke-width="4"/>
    <line id="Line_14" data-name="Line 14" x2="738" transform="translate(547.5 4781.5)" fill="none" stroke="#ccc" stroke-width="1"/>
  </g>
</svg>
