<svg xmlns="http://www.w3.org/2000/svg" width="14.07" height="29.215" viewBox="0 0 14.07 29.215">
  <path id="Path_405" data-name="Path 405" d="M6.855,11.045H8.34V16.61a1.992,1.992,0,0,1-.173.922A1.039,1.039,0,0,1,7.53,18a4.663,4.663,0,0,1-1.163.188q-.7.037-1.673.037a3.821,3.821,0,0,0-.218-.7,5.364,5.364,0,0,0-.322-.675q.495.015.975.022t.848.007H6.5a.545.545,0,0,0,.285-.075.276.276,0,0,0,.075-.225ZM2.19,5.165h9.36V6.47H2.19Zm8.82,0h.375l.33-.09,1.02.81q-.63.63-1.41,1.275T9.7,8.382q-.84.578-1.62,1.012a3.252,3.252,0,0,0-.263-.322L7.5,8.72a3.79,3.79,0,0,0-.285-.285,13.509,13.509,0,0,0,1.41-.877A16.942,16.942,0,0,0,10,6.485a8.356,8.356,0,0,0,1.012-1.02ZM.75,9.995H13.185v1.35H.75Zm3.51-1.71.735-1.05q.63.24,1.38.533t1.508.607q.757.315,1.44.608t1.163.532L9.72,10.73q-.465-.24-1.117-.547t-1.41-.645q-.758-.338-1.515-.66T4.26,8.285Zm8.445,1.71h.27l.255-.105,1.155.51q-.555,1.02-1.23,2.048a13.813,13.813,0,0,1-1.335,1.747l-1.2-.7q.345-.42.728-.96t.735-1.133q.352-.592.623-1.147ZM7.56,26.925l1.14-.57q.42.525.825,1.132t.727,1.208a8.993,8.993,0,0,1,.5,1.08l-1.245.66a6.857,6.857,0,0,0-.465-1.087q-.315-.608-.7-1.245A13.763,13.763,0,0,0,7.56,26.925Zm.255-3.945H13.4v1.335H7.815Zm4.98,0H14.16s0,.045,0,.135,0,.19,0,.3,0,.2,0,.255q-.09,2.505-.188,4.253t-.217,2.88a12.834,12.834,0,0,1-.285,1.77,2.571,2.571,0,0,1-.39.923,1.567,1.567,0,0,1-.593.51,2.826,2.826,0,0,1-.757.195,9.017,9.017,0,0,1-1.02.045q-.645,0-1.32-.03a3.237,3.237,0,0,0-.465-1.425q.735.06,1.358.075t.908.015a1.148,1.148,0,0,0,.375-.053.6.6,0,0,0,.27-.2,1.758,1.758,0,0,0,.337-.8,13.956,13.956,0,0,0,.255-1.7q.112-1.1.2-2.79T12.8,23.28Zm-4.62-2.655,1.455.33a17.239,17.239,0,0,1-.75,2.138,18.574,18.574,0,0,1-.975,1.972,11.512,11.512,0,0,1-1.095,1.6,4.417,4.417,0,0,0-.368-.285q-.232-.165-.48-.322t-.412-.248A8.726,8.726,0,0,0,6.63,24.06a12.9,12.9,0,0,0,.885-1.785A17.2,17.2,0,0,0,8.175,20.325Zm-5.34.015,1.26.465q-.3.555-.622,1.162T2.828,23.13a10.4,10.4,0,0,1-.623.96l-.96-.405a11.834,11.834,0,0,0,.577-1.035q.292-.585.563-1.192T2.835,20.34Zm1.8,1.74,1.23.51q-.54.855-1.178,1.792T3.4,26.2A18.085,18.085,0,0,1,2.16,27.7l-.885-.45q.435-.51.9-1.147t.915-1.343q.45-.7.848-1.4T4.635,22.08ZM.5,23.67l.69-.96q.405.345.833.765t.78.825a4.679,4.679,0,0,1,.547.75l-.735,1.1a5.614,5.614,0,0,0-.54-.8q-.345-.435-.758-.877T.5,23.67Zm3.72,1.95,1.02-.435a11.938,11.938,0,0,1,.608,1.042q.292.563.518,1.1a6.889,6.889,0,0,1,.33.96L5.6,28.8a7.793,7.793,0,0,0-.323-.967q-.217-.547-.495-1.132T4.215,25.62ZM.465,27q1.035-.03,2.468-.09l2.933-.12L5.85,27.93l-2.79.18q-1.38.09-2.475.15ZM4.53,29.28,5.6,28.935q.315.69.6,1.493A10.649,10.649,0,0,1,6.6,31.815l-1.14.39a11.465,11.465,0,0,0-.368-1.41A15.887,15.887,0,0,0,4.53,29.28Zm-3.315-.255,1.2.21a17.471,17.471,0,0,1-.4,2.1A9.5,9.5,0,0,1,1.41,33.09q-.12-.075-.315-.18t-.413-.2a3.134,3.134,0,0,0-.368-.143A6.862,6.862,0,0,0,.893,30.93,16.47,16.47,0,0,0,1.215,29.025ZM2.955,27.6h1.26v6.69H2.955Z" transform="translate(-0.315 -5.075)" fill="#5a4941"/>
</svg>
