<svg id="Component_9_1" data-name="Component 9 – 1" xmlns="http://www.w3.org/2000/svg" width="12.03" height="59.11" viewBox="0 0 12.03 59.11">
  <path id="Path_407" data-name="Path 407" d="M12.36,6.035q-.12.225-.285.592t-.255.622q-.285.735-.683,1.605t-.9,1.747a13.454,13.454,0,0,1-1.132,1.673,19.868,19.868,0,0,1-1.59,1.845A20.139,20.139,0,0,1,5.49,15.935a17.156,17.156,0,0,1-2.565,1.65L1.605,16.4a15.794,15.794,0,0,0,3.578-2.28A19.043,19.043,0,0,0,7.83,11.33a12.834,12.834,0,0,0,1.5-2.378,23.15,23.15,0,0,0,.96-2.3q.09-.255.18-.608t.15-.622ZM4.29,7.655q.57.36,1.208.795t1.29.885q.652.45,1.238.885t1.02.8q1.17.93,2.272,1.92t2,1.965l-1.2,1.32a26.68,26.68,0,0,0-1.973-2.055Q9.135,13.22,8,12.26q-.4-.345-.938-.765T5.9,10.625q-.623-.45-1.283-.908T3.3,8.855Zm-1.665,15.4q.375.03.8.052t.795.022h6.33q.435,0,.847-.022t.713-.052v1.71q-.3-.03-.735-.037t-.825-.008H4.23q-.405,0-.825.008t-.78.037Zm-1.29,7.38.855.06q.435.03.855.03h8.82q.36,0,.75-.022t.75-.068V32.25q-.36-.045-.773-.06t-.728-.015H3.045q-.42,0-.862.022t-.848.053ZM11.19,41.86q-.03.12-.06.27t-.06.27q-.03.315-.113.892T10.77,44.56q-.105.69-.21,1.372t-.187,1.253q-.083.57-.142.885h-1.6q.045-.27.127-.787t.188-1.148q.105-.63.195-1.275t.158-1.178a7.01,7.01,0,0,0,.068-.818H4.905q-.33,0-.682.015l-.653.03V41.35q.195.015.428.038t.472.03q.24.008.42.007H9.15q.135,0,.315-.015t.345-.045a1.361,1.361,0,0,0,.24-.06ZM2.175,47.485q.3.03.645.052t.7.023H11.58q.255,0,.645-.015t.66-.045v1.53q-.15-.015-.382-.022T12.03,49H3.525q-.36,0-.66.007t-.69.022Z" transform="translate(-1.335 -5.42)" fill="#5a4941"/>
  <path id="Path_406" data-name="Path 406" d="M1.455,10.31l.623.038q.367.022.8.038t.817.015h8.16q.54,0,.975-.038t.7-.052v1.86l-.72-.045q-.465-.03-.96-.03H3.69q-.615,0-1.23.023t-1,.052Z" transform="translate(16.665 45.58) rotate(90)" fill="#5a4941"/>
</svg>
