<svg xmlns="http://www.w3.org/2000/svg" width="164.962" height="372.776" viewBox="0 0 164.962 372.776">
  <g id="sticker1" transform="translate(56.316) rotate(9)">
    <path id="Rectangle_44" data-name="Rectangle 44" d="M4,4V356H106V4H4M0,0H110V360H0Z" fill="#a44f3b"/>
    <path id="Rectangle_45" data-name="Rectangle 45" d="M1,1V339H89V1H1M0,0H90V340H0Z" transform="translate(10 10)" fill="#a44f3b"/>
    <path id="Line_102" data-name="Line 102" d="M61,.5H0v-1H61Z" transform="translate(24.5 52.5)" fill="#a44f3b"/>
    <g id="Group_174" data-name="Group 174" transform="translate(114.3 50)">
      <path id="Path_261" data-name="Path 261" d="M.291,2.407c.344.82,1.878,2.539,2.936,2.539a16.285,16.285,0,0,0,2.962-.794,37.745,37.745,0,0,1,8.517-1.032c3.835,0,6,.9,7.036.9a1.2,1.2,0,0,0,1.243-1.27C22.985,1.666,20.366,0,18.991,0a19.212,19.212,0,0,1-2.3.476C13.013.767,4.655,1.666,2.936,1.666A3.478,3.478,0,0,1,.4.45L0,.608A4.1,4.1,0,0,0,.291,2.407Z" transform="translate(-57.468 267.015) rotate(90)" fill="#a44f3b"/>
      <path id="Path_262" data-name="Path 262" d="M23.964,9.113a60.964,60.964,0,0,1-3.394,8.28l.351.234a31.485,31.485,0,0,0,6.5-6.086c.644.088,1.024-.146,1.17-.5ZM5.677,9.64A18.2,18.2,0,0,1,8.75,16.545c3.277,2.6,6.174-4.126-2.838-7.081ZM25.4,17.393,23.73,19.237H18.317V8.85c.79-.117,1.024-.41,1.083-.819l-4.564-.38V19.237h-9.3l.234.849H24.023v5.442H6.38l.263.849h17.38v5.559H5.121l.263.819H24.023v2.077h.556a4.672,4.672,0,0,0,2.955-1.083V20.729a2.03,2.03,0,0,0,1.258-.673Zm.966,27.416c-.146.79-.351,1.726-.5,2.4l-.527-.439L23.7,48.934H13.724l.234.819H27.534a.737.737,0,0,0,.79-.468c-.614-.585-1.492-1.317-2.136-1.814a23.712,23.712,0,0,0,3.394-2.048c.614-.029.907-.088,1.141-.322L27.8,42.322,26.159,43.99H22.3v-3.1c.7-.117.966-.38.995-.761l-4.3-.351V43.99H15.508a9.3,9.3,0,0,0-.644-2.077h-.439a4.387,4.387,0,0,1-1.4,3.511A1.729,1.729,0,0,0,12,47.588a1.616,1.616,0,0,0,2.516.527,3.808,3.808,0,0,0,1.112-3.306ZM10.885,40.186,9.218,41.824H7.579L4.068,40.479V67.192h.585A2.936,2.936,0,0,0,7.17,66.2V42.644H9.452a69.148,69.148,0,0,1-1.375,7.373,10.976,10.976,0,0,1,1.639,6.027c0,.878-.176,1.375-.527,1.609A.92.92,0,0,1,8.6,57.8H7.228v.38a2.038,2.038,0,0,1,1.17.673,7.034,7.034,0,0,1,.322,2.458c3.014-.059,3.979-1.639,3.979-4.447a8.681,8.681,0,0,0-3.891-6.905A53.106,53.106,0,0,0,12.7,43.521a1.766,1.766,0,0,0,1.287-.41Zm18.843,18.9h-.351a29.5,29.5,0,0,1-1.17,3.833c-.146.293-.263.351-.527.351A9.8,9.8,0,0,1,26.6,63.3H25.4c-.556,0-.644-.117-.644-.5V54.2H29.64c.41,0,.731-.146.819-.468-1.141-1.083-3.072-2.663-3.072-2.663l-1.7,2.311H12.465l.234.819h3.365c-.117,5.735-1.317,9.626-7.081,12.581l.146.351c7.783-2.107,10.036-6.2,10.387-12.932h2.077v9.48c0,2.107.38,2.75,2.809,2.75h1.873c3.394,0,4.447-.7,4.447-1.99a1.285,1.285,0,0,0-.907-1.346ZM15.567,77.911a14.087,14.087,0,0,1-1.317,5.267c-.936,2.019-3.511,6.057-5.15,6.057-1.229,0-2.224-2.165-2.224-4.477A9.025,9.025,0,0,1,9.51,78.5a11.317,11.317,0,0,1,5.15-3.1A4.308,4.308,0,0,1,15.567,77.911ZM15.274,95.32c9.831-.41,13.693-5.15,13.693-10.68,0-6.086-4.769-10.767-11.5-10.767A13.141,13.141,0,0,0,8.574,77a11.827,11.827,0,0,0-4.3,8.69c0,3.8,2.165,7.4,4.506,7.4,3.57,0,6.847-5.325,8.163-9.041a15.436,15.436,0,0,0,.966-5.208,6.063,6.063,0,0,0-1.931-3.716,7.882,7.882,0,0,1,1.17-.088c4.74,0,8.193,3.453,8.193,8.836,0,5.062-2.78,9.129-10.182,10.884Zm-1.843,5.306c-.029,9.3.263,18.755-10.445,26.567l.322.41c11-5.267,13.108-12.757,13.635-20.276.731,9.334,2.926,16.209,10.3,20.13a3.948,3.948,0,0,1,3.248-3.423l.059-.351c-10.007-3.687-12.757-10.5-13.371-21.769.761-.088,1.024-.38,1.083-.819ZM28.7,135.248c.439,0,.761-.146.849-.468-1.4-1.2-3.511-2.75-3.511-2.75l-1.931,2.4H12.524q.527-.834,1.053-1.756c.644.059,1.053-.146,1.2-.527L10.066,130.3A31.211,31.211,0,0,1,2.81,142.446l.322.293a23.482,23.482,0,0,0,8.836-7.49ZM10.154,138l.234.848H26.6c.41,0,.731-.146.819-.468-1.258-1.112-3.336-2.633-3.336-2.633L22.267,138Zm-3.921,7.4a37.309,37.309,0,0,1,5.823,4.564,28.052,28.052,0,0,1-9.217,7.549l.2.322a28.3,28.3,0,0,0,10.884-5.881,19.444,19.444,0,0,1,3.043,4.564c2.75,2.048,5.676-2.311-.644-6.934a24.673,24.673,0,0,0,2.955-4.067c.7.117.995-.088,1.141-.41l-4.33-1.99a25.022,25.022,0,0,1-2.516,4.769,39.662,39.662,0,0,0-7.168-2.838Zm23.875,5.12-.293-.029a17.081,17.081,0,0,1-.995,2.663c-.146.322-.322.351-.644.176-2.311-1.434-3.043-6.525-2.955-10.358a2.2,2.2,0,0,0,1.17-.468l-3.423-2.633-1.756,1.9H6.263l.263.849H21.594c.176,6.027,1.083,11.7,4.8,14.22,1.2.966,3.014,1.58,4.008.38.5-.644.293-1.58-.527-2.838ZM18.9,167.511c.995.614,1.931,1.287,1.931,2.224,0,.907-1.229,3.687-3.1,6.583a40.935,40.935,0,0,0-8.28-3.189l-.322.585a49.55,49.55,0,0,1,6.876,4.974,44.289,44.289,0,0,1-12,10.972l.322.527a32.188,32.188,0,0,0,13.9-9.451c2.809,2.867,3.306,5.062,4.974,5.062a1.809,1.809,0,0,0,1.873-2.019c-.059-1.99-2.341-4.272-4.623-5.852,1.521-2.136,2.867-4.447,3.482-5.5.585-.936,1.375-1.053,1.375-1.756,0-1.2-1.726-2.663-3.189-3.248a9.876,9.876,0,0,0-3.043-.38Zm6.057,35.764c0-1.083-2.37-2.077-4.008-2.077a16.21,16.21,0,0,1-3.1,1.141,35.825,35.825,0,0,1-5.793.644,5.009,5.009,0,0,1-3.248-1.4l-.41.234a7.5,7.5,0,0,0,.878,2.224,3.88,3.88,0,0,0,2.516,1.873c1.346,0,8.017-.907,11.762-1.229A1.381,1.381,0,0,0,24.959,203.275ZM4.507,214.13c.38.907,2.077,2.809,3.248,2.809a18.016,18.016,0,0,0,3.277-.878,41.751,41.751,0,0,1,9.421-1.141c4.243,0,6.642.995,7.783.995a1.328,1.328,0,0,0,1.375-1.4c0-1.2-2.9-3.043-4.418-3.043a21.26,21.26,0,0,1-2.546.527c-4.067.322-13.313,1.317-15.215,1.317a3.847,3.847,0,0,1-2.809-1.346l-.439.176A4.539,4.539,0,0,0,4.507,214.13ZM20.161,245.3c.644-2.107,1.434-4.828,1.785-5.881.176-.614,1.141-.966,1.141-1.756,0-.936-2.926-2.37-3.716-2.37-.468,0-1.083.731-1.521.819a33.629,33.629,0,0,1-5.3.673,3.683,3.683,0,0,1-2.194-.995l-.263.117a3.466,3.466,0,0,0,.293,1.58c.41.966,1.551,2.136,2.428,2.136a5,5,0,0,0,1.58-.527,20.275,20.275,0,0,1,3.8-1.024c.234,0,.351.088.351.293-.088.644-.731,4.535-1.317,7.227-3.16.293-6.847.614-7.9.614a3.407,3.407,0,0,1-2.311-.936l-.263.088a3.975,3.975,0,0,0,.234,1.609c.322.761,1.7,2.194,2.633,2.194a18.911,18.911,0,0,0,2.78-.761,28.268,28.268,0,0,1,6.583-.849c3.365,0,5.793.849,6.759.849a1.153,1.153,0,0,0,1.17-1.229c0-.966-2.341-2.4-3.6-2.4a21.04,21.04,0,0,1-2.077.439Z" transform="translate(-77.81 4)" fill="#a44f3b"/>
    </g>
    <text id="おすすめ" transform="translate(24 38)" fill="#a44f3b" font-size="15" font-family="NotoSerifJP-Bold, Noto Serif JP" font-weight="700"><tspan x="0" y="0">おすすめ</tspan></text>
  </g>
</svg>
