<svg xmlns="http://www.w3.org/2000/svg" width="375.371" height="675.63" viewBox="0 0 375.371 675.63">
  <g id="グループ_112" data-name="グループ 112" transform="translate(-144.138 -2179.392)">
    <g id="グループ_112-2" data-name="グループ 112" transform="translate(35 2322)">
      <g id="グループ_108" data-name="グループ 108" transform="translate(0 404.035)">
        <g id="グループ_111" data-name="グループ 111" transform="translate(0 0)">
          <path id="パス_32" data-name="パス 32" d="M145.7,197.738c-17.055,1.654,11.649-.987-36.566,0V68.75l41.079,1.028C150.217,138.276,145.662,187.715,145.7,197.738Z" transform="translate(0 -69.778)" fill="#fff"/>
          <path id="パス_33" data-name="パス 33" d="M600.958,198.365c-24.776.728-113.729-.416-147,0,1.766-21.935-.79-102.211-.79-128.583H603.82C603.82,107.128,601.422,183.546,600.958,198.365Z" transform="translate(-303.387 -69.776)" fill="#fff"/>
          <path id="パス_35" data-name="パス 35" d="M486.2,198.365c-24.776.728,1.026-.416-32.239,0,1.766-21.935-.79-102.211-.79-128.583H486.2C486.2,107.128,486.622,183.324,486.2,198.365Z" transform="translate(-1.88 -69.776)" fill="#fff"/>
          <path id="パス_34" data-name="パス 34" d="M1058.386,198.6c-40.833.642-93.455-.846-145.682,0-.48-27.026-1.332-128.821-1.332-128.821h150.217Z" transform="translate(-610.942 -69.778)" fill="#fff"/>
        </g>
      </g>
      <path id="長方形_97" data-name="長方形 97" d="M0-60H375V487.106H0Z" transform="translate(109.477 -82.608)" fill="#fff"/>
    </g>
  </g>
</svg>
