<svg xmlns="http://www.w3.org/2000/svg" width="1258.69" height="150.317" viewBox="0 0 1258.69 150.317">
  <path id="Path_14746" data-name="Path 14746" d="M105.623-42.593,94.927-7.449h-55.2L114.6-133.7v-8.977H9.741L7.64-101.8H19.291l9.932-33.425H80.029L4.775-9.168V0H115.364l.573-42.593ZM242.57-39.537h-10.7L223.088-7.449H180.113c-.382-19.864-.382-40.11-.382-61.311v-.573H205.9l2.674,20.246h9.55V-97.41h-9.55l-2.865,21.2H179.731c0-20.246,0-39.919.382-59.019h38.773l8.786,30.56H238.75l.191-38.009H129.689v6.494l17.19,1.528c.573,19.673.573,39.346.573,59.21v8.4c0,19.864,0,39.537-.573,58.828l-17.19,1.719V0H242.952ZM307.7-74.49c0-21.965,0-41.638.573-60.929h10.887c19.291,0,29.414,10.314,29.414,29.223,0,17.381-8.213,31.706-29.605,31.706ZM379.517-7.449l-6.3-31.515c-3.247-18.909-9.741-29.414-34.762-32.852,29.987-4.584,40.683-19.291,40.683-34.953,0-22.729-18.336-35.908-51.952-35.908h-68.76v6.494l17.19,1.528c.573,19.673.573,39.346.573,59.21v8.4c0,19.864,0,39.537-.573,58.828l-17.19,1.719V0h67.423V-6.494L308.274-8.213c-.573-19.482-.573-39.155-.573-59.21h9.359c14.707,0,19.291,7.64,21.965,23.3l5.539,26.358c1.91,15.471,11.651,20.628,29.223,20.628A83.116,83.116,0,0,0,396.516,0V-6.494Zm56.154-63.985c0-38.964,10.5-67.805,34-67.805,23.3,0,34,28.841,34,67.805,0,39.346-10.7,68-34,68C446.176-3.438,435.671-32.088,435.671-71.434Zm34-75.063c-35.717,0-67.8,25.785-67.8,75.063,0,49.851,31.9,75.254,67.8,75.254,36.1,0,67.614-25.594,67.614-75.254C537.283-120.9,505.577-146.5,469.669-146.5ZM667.163-15.662c-4.966,4.2-8.213,6.112-12.988,6.112-7.64,0-12.606-4.393-12.606-14.707v-72.2h23.684v-7.831H641.569l.382-30.751H622.278l-9.932,30.56-17,1.91v6.112h15.471v48.9c0,8.022-.191,13.561-.191,20.819-.191,21.2,10.314,29.987,29.8,29.987,14.707,0,24.257-5.539,29.987-15.853ZM730,3.247c32.47,0,54.244-21.774,54.244-55.963S760.18-107.533,730-107.533c-29.987,0-54.053,21.01-54.053,54.817C675.949-19.1,697.341,3.247,730,3.247Zm0-6.685c-13.752,0-21.392-15.662-21.392-48.9,0-33.425,7.64-48.514,21.392-48.514s21.2,15.089,21.2,48.514C751.2-19.1,743.754-3.438,730-3.438Zm150.126-68c0-38.964,10.505-67.805,34-67.805,23.3,0,34,28.841,34,67.805,0,39.346-10.7,68-34,68C890.633-3.438,880.128-32.088,880.128-71.434Zm34-75.063c-35.717,0-67.8,25.785-67.8,75.063,0,49.851,31.9,75.254,67.8,75.254,36.1,0,67.614-25.594,67.614-75.254C981.74-120.9,950.034-146.5,914.126-146.5Zm223.661,3.82h-52.716v6.494l25.4,2.674.955,90.916L1039.04-142.677H993.009v6.494l13.561,1.528,3.629,5.348L1009.053-9.168,991.481-6.494V0h53.1V-6.494l-25.594-2.865-1.146-109.061L1102.07.382h16.808l1.337-134.082,17.572-2.483Zm125.3,103.14h-10.7L1243.6-7.449h-42.975c-.382-19.864-.382-40.11-.382-61.311v-.573h26.167l2.674,20.246h9.55V-97.41h-9.55l-2.865,21.2h-25.976c0-20.246,0-39.919.382-59.019H1239.4l8.786,30.56h11.078l.191-38.009H1150.2v6.494l17.19,1.528c.573,19.673.573,39.346.573,59.21v8.4c0,19.864,0,39.537-.573,58.828L1150.2-6.494V0h113.263Z" transform="translate(-4.775 146.497)" fill="#fff"/>
</svg>
