<svg xmlns="http://www.w3.org/2000/svg" width="481.493" height="112.87" viewBox="0 0 481.493 112.87">
    <g id="Group_306" data-name="Group 306" transform="translate(1365 5682.579)">
        <path id="Path_3377" data-name="Path 3377" d="M0,0H76L91.493,44.992,76,90H0" transform="translate(-1365 -5682.579)" fill="#f6f4e8"/>
        <path id="Path_3377-2" data-name="Path 3377" d="M0,0H76L91.493,44.992,76,90H0L15.369,45.088Z" transform="translate(-1287 -5682.579)" fill="#f6f4e8"/>
        <path id="Path_3377-3" data-name="Path 3377" d="M0,0H76L91.493,44.992,76,90H0L15.369,45.088Z" transform="translate(-1209 -5682.579)" fill="#f6f4e8"/>
        <path id="Path_3377-4" data-name="Path 3377" d="M0,0H76L91.493,44.992,76,90H0L15.369,45.088Z" transform="translate(-1131 -5682.579)" fill="#f6f4e8"/>
        <path id="Path_3377-5" data-name="Path 3377" d="M0,0H76L91.493,44.992,76,90H0L15.369,45.088Z" transform="translate(-1053 -5682.579)" fill="#f6f4e8"/>
        <path id="Path_3377-6" data-name="Path 3377" d="M0,0H76L91.493,44.992,76,90H0L15.369,45.088Z" transform="translate(-975 -5682.579)" fill="#f6f4e8"/>
        <text  transform="translate(-1323 -5607)" fill="#202020" font-size="12" font-family="YuGothic-Bold, Yu Gothic" font-weight="700" letter-spacing="-0.1em"><tspan x="-33" y="0">お問い合わせ</tspan></text>
        <text data-name="01" transform="translate(-1323 -5669.623)" fill="#202020" font-size="10" font-family="Montserrat-Bold, Montserrat" font-weight="700"><tspan x="-5.335" y="0">01</tspan></text>
        <text data-name="ご要望ヒアリング" transform="translate(-1245 -5615)" fill="#202020" font-size="12" font-family="YuGothic-Bold, Yu Gothic" font-weight="700" letter-spacing="-0.05em"><tspan x="-17.4" y="0">ご要望</tspan><tspan x="-28.8" y="16">ヒアリング</tspan></text>
        <text id="_02" data-name="02" transform="translate(-1245 -5669.623)" fill="#202020" font-size="10" font-family="Montserrat-Bold, Montserrat" font-weight="700"><tspan x="-6.325" y="0">02</tspan></text>
        <text data-name="商品選定仕様確定" transform="translate(-1167 -5615)" fill="#202020" font-size="12" font-family="YuGothic-Bold, Yu Gothic" font-weight="700" letter-spacing="-0.05em"><tspan x="-23.1" y="0">商品選定</tspan><tspan x="-23.1" y="16">仕様確定</tspan></text>
        <text id="_03" data-name="03" transform="translate(-1167 -5669.623)" fill="#202020" font-size="10" font-family="Montserrat-Bold, Montserrat" font-weight="700"><tspan x="-6.305" y="0">03</tspan></text>
        <text id="サンプル_作成" data-name="サンプル作成" transform="translate(-1089 -5615)" fill="#202020" font-size="12" font-family="YuGothic-Bold, Yu Gothic" font-weight="700" letter-spacing="-0.05em"><tspan x="-23.1" y="0">サンプル</tspan><tspan x="-11.7" y="16">作成</tspan></text>
        <text id="_04" data-name="04" transform="translate(-1089 -5669.623)" fill="#202020" font-size="10" font-family="Montserrat-Bold, Montserrat" font-weight="700"><tspan x="-6.84" y="0">04</tspan></text>
        <text id="生産管理" transform="translate(-1011 -5607)" fill="#202020" font-size="12" font-family="YuGothic-Bold, Yu Gothic" font-weight="700" letter-spacing="-0.05em"><tspan x="-23.1" y="0">生産管理</tspan></text>
        <text id="_05" data-name="05" transform="translate(-1011 -5669.623)" fill="#202020" font-size="10" font-family="Montserrat-Bold, Montserrat" font-weight="700"><tspan x="-6.37" y="0">05</tspan></text>
        <text id="納品" transform="translate(-933 -5607)" fill="#202020" font-size="12" font-family="YuGothic-Bold, Yu Gothic" font-weight="700" letter-spacing="-0.05em"><tspan x="-11.7" y="0">納品</tspan></text>
        <text id="_06" data-name="06" transform="translate(-933 -5669.623)" fill="#202020" font-size="10" font-family="Montserrat-Bold, Montserrat" font-weight="700"><tspan x="-6.58" y="0">06</tspan></text>
        <rect id="Rectangle_131" data-name="Rectangle 131" width="151.963" height="20.292" transform="translate(-1365 -5590)" fill="#f6f4e8"/>
        <text id="約2_3日" data-name="約2~3日" transform="translate(-1289 -5576)" fill="#202020" font-size="12" font-family="YuGothic-Bold, Yu Gothic" font-weight="700"><tspan x="-23.186" y="0">約2~3日</tspan></text>
        <rect id="Rectangle_131-2" data-name="Rectangle 131" width="155.285" height="20.292" transform="translate(-1211 -5590)" fill="#f6f4e8"/>
        <text id="約1_2ヶ月" data-name="約1~2ヶ月" transform="translate(-1133 -5576)" fill="#202020" font-size="12" font-family="YuGothic-Bold, Yu Gothic" font-weight="700"><tspan x="-29.186" y="0">約1~2ヶ月</tspan></text>
        <rect id="Rectangle_131-3" data-name="Rectangle 131" width="155.443" height="20.292" transform="translate(-1054 -5590)" fill="#f6f4e8"/>
        <text id="約3_4ヶ月" data-name="約3~4ヶ月" transform="translate(-976 -5576)" fill="#202020" font-size="12" font-family="YuGothic-Bold, Yu Gothic" font-weight="700"><tspan x="-29.186" y="0">約3~4ヶ月</tspan></text>
        <path id="Icon_awesome-user-tie" data-name="Icon awesome-user-tie" d="M10.1,11.546A5.773,5.773,0,1,0,4.33,5.773,5.772,5.772,0,0,0,10.1,11.546Zm4.321,1.47-2.156,8.632-1.443-6.134,1.443-2.526H7.938l1.443,2.526L7.938,21.648,5.782,13.016A6.051,6.051,0,0,0,0,19.05v1.876a2.165,2.165,0,0,0,2.165,2.165H18.04A2.165,2.165,0,0,0,20.2,20.926V19.05a6.051,6.051,0,0,0-5.782-6.034Z" transform="translate(-1255 -5659)" fill="#9a2327"/>
        <path id="Icon_awesome-clipboard-list" data-name="Icon awesome-clipboard-list" d="M15.154,2.886H11.546a2.886,2.886,0,1,0-5.773,0H2.165A2.165,2.165,0,0,0,0,5.051V20.926a2.165,2.165,0,0,0,2.165,2.165H15.154a2.165,2.165,0,0,0,2.165-2.165V5.051A2.165,2.165,0,0,0,15.154,2.886ZM4.33,19.122A1.082,1.082,0,1,1,5.412,18.04,1.08,1.08,0,0,1,4.33,19.122Zm0-4.33A1.082,1.082,0,1,1,5.412,13.71,1.08,1.08,0,0,1,4.33,14.793Zm0-4.33A1.082,1.082,0,1,1,5.412,9.381,1.08,1.08,0,0,1,4.33,10.463ZM8.659,1.8A1.082,1.082,0,1,1,7.577,2.886,1.08,1.08,0,0,1,8.659,1.8Zm5.773,16.6a.362.362,0,0,1-.361.361H7.577a.362.362,0,0,1-.361-.361v-.722a.362.362,0,0,1,.361-.361h6.494a.362.362,0,0,1,.361.361Zm0-4.33a.362.362,0,0,1-.361.361H7.577a.362.362,0,0,1-.361-.361V13.35a.362.362,0,0,1,.361-.361h6.494a.362.362,0,0,1,.361.361Zm0-4.33a.362.362,0,0,1-.361.361H7.577a.362.362,0,0,1-.361-.361V9.02a.362.362,0,0,1,.361-.361h6.494a.362.362,0,0,1,.361.361Z" transform="translate(-1176 -5659)" fill="#9a2327"/>
        <g id="Group_307" data-name="Group 307" transform="translate(28.478 201.533)">
        <path id="Path_3359" data-name="Path 3359" d="M71.909,0H82.783a.815.815,0,0,1,.809.809V10.858a.815.815,0,0,1-.809.809H71.909a.815.815,0,0,1-.809-.809V.809A.815.815,0,0,1,71.909,0Z" transform="translate(-1033.719 -5857.533)" fill="#9a2327"/>
        <path id="Path_3360" data-name="Path 3360" d="M9.606,26.887V18.564a.756.756,0,0,0-.764-.764H4.337a.775.775,0,0,0-.6.29L0,22.7v6.124a.756.756,0,0,0,.764.764H3.146a2.718,2.718,0,0,1,2.169-1.1,2.676,2.676,0,0,1,2.169,1.1H16.31a2.718,2.718,0,0,1,2.169-1.1,2.676,2.676,0,0,1,2.169,1.1h1.97a.743.743,0,0,0,.733-.733v-.473a.724.724,0,0,0-.733-.733H10.369a.766.766,0,0,1-.764-.764Zm-2.779-2.81H2.841a.886.886,0,0,1-.886-.886v-.229a.977.977,0,0,1,.2-.565l2.107-2.611a.883.883,0,0,1,.687-.336H6.811a.886.886,0,0,1,.886.886v2.841a.868.868,0,0,1-.87.9Z" transform="translate(-973.478 -5872.615)" fill="#9a2327"/>
        <circle id="Ellipse_15" data-name="Ellipse 15" cx="1.909" cy="1.909" r="1.909" transform="translate(-970.102 -5843.315)" fill="#9a2327"/>
        <circle id="Ellipse_16" data-name="Ellipse 16" cx="1.909" cy="1.909" r="1.909" transform="translate(-956.893 -5843.315)" fill="#9a2327"/>
        </g>
        <g id="Group_306-2" data-name="Group 306" transform="translate(17.435 201.432)">
        <path id="Path_3361" data-name="Path 3361" d="M55.647,2.484,51.383,0,42.068,5.427l4.263,2.484Z" transform="translate(-1157.714 -5860.432)" fill="#9a2327"/>
        <path id="Path_3362" data-name="Path 3362" d="M161.763,64.3l-9.315,5.427,3.475,2.025,9.315-5.427Z" transform="translate(-1262.254 -5921.335)" fill="#9a2327"/>
        <path id="Path_3363" data-name="Path 3363" d="M233.131,134.034v10.854l9.31-5.424V128.61Z" transform="translate(-1338.669 -5982.238)" fill="#9a2327"/>
        <path id="Path_3364" data-name="Path 3364" d="M27.169,139.464l9.31,5.424V134.034l-9.31-5.424Z" transform="translate(-1143.604 -5982.238)" fill="#9a2327"/>
        </g>
        <path id="Subtraction_2" data-name="Subtraction 2" d="M21.942,20.442H1.079A1.089,1.089,0,0,1,0,19.346V1.1A1.089,1.089,0,0,1,1.079,0H6.115A1.089,1.089,0,0,1,7.194,1.1v8.957l6.255-4.039a1.06,1.06,0,0,1,.576-.173,1.091,1.091,0,0,1,1.083,1.1v3.115l6.255-4.039a1.061,1.061,0,0,1,.576-.173,1.091,1.091,0,0,1,1.083,1.1V19.346A1.089,1.089,0,0,1,21.942,20.442Zm-6.835-7.357V16.33h3.2V13.085Zm-7.673,0V16.33h3.2V13.085Z" transform="translate(-1023 -5657)" fill="#9a2327"/>
        <path id="Icon_zocial-email" data-name="Icon zocial-email" d="M.072,18.958V5.515q0-.023.07-.443L8.054,11.84.165,19.425a1.978,1.978,0,0,1-.093-.467Zm1.05-14.82a1.006,1.006,0,0,1,.4-.07H22.827a1.322,1.322,0,0,1,.42.07l-7.935,6.791-1.05.84-2.077,1.7-2.077-1.7-1.05-.84Zm.023,16.2L9.1,12.7l3.081,2.5,3.081-2.5,7.958,7.632a1.121,1.121,0,0,1-.4.07H1.519a1.057,1.057,0,0,1-.373-.07Zm15.17-8.5L24.2,5.072a1.393,1.393,0,0,1,.07.443V18.958a1.789,1.789,0,0,1-.07.467Z" transform="translate(-1335.072 -5659.068)" fill="#9a2327"/>
    </g>
</svg>