<svg xmlns="http://www.w3.org/2000/svg" width="481.493" height="112.87" viewBox="0 0 481.493 112.87">
  <g data-idr="Group_321" data-name="Group 321" transform="translate(1365 5682.579)">
    <path data-idr="Path_3377" data-name="Path 3377" d="M0,0H66L81.493,44.992,66,90H0" transform="translate(-1365 -5682.579)" fill="#f6f4e8"/>
    <path data-idr="Path_3377-2" data-name="Path 3377" d="M0,0H86l15.493,44.992L86,90H0L15.369,45.088Z" transform="translate(-1297 -5682.579)" fill="#f6f4e8"/>
    <path data-idr="Path_3377-3" data-name="Path 3377" d="M0,0H96l15.493,44.992L96,90H0L15.369,45.088Z" transform="translate(-1209 -5682.579)" fill="#f6f4e8"/>
    <path data-idr="Path_3377-4" data-name="Path 3377" d="M10,0H86l15.493,44.992L86,90H10L25.369,45.088Z" transform="translate(-1121 -5682.579)" fill="#f6f4e8"/>
    <path data-idr="Path_3377-5" data-name="Path 3377" d="M10,0H76L91.493,44.992,76,90H10L25.369,45.088Z" transform="translate(-1043 -5682.579)" fill="#f6f4e8"/>
    <path data-idr="Path_3377-6" data-name="Path 3377" d="M10,0H76L91.493,44.992,76,90H10L25.369,45.088Z" transform="translate(-975 -5682.579)" fill="#f6f4e8"/>
    <path data-idr="Path_3441" data-name="Path 3441" d="M-18.281-1.031q.047-.516.047-4.453a7.252,7.252,0,0,1-.562.656,2,2,0,0,0-.844-.516,3.944,3.944,0,0,0,.961-1.078A10.488,10.488,0,0,0-17.766-8.2,10.525,10.525,0,0,0-17.2-9.891l1.078.469a1.251,1.251,0,0,0-.234.328q-.094.188-.516,1.078H-12.7A16.035,16.035,0,0,0-12.8-6.094L-12.891.047a.863.863,0,0,1-.281.7,3.4,3.4,0,0,1-1.359.422A2.851,2.851,0,0,0-15.094.141a2.447,2.447,0,0,0,1.1-.094.491.491,0,0,0,.258-.469l.094-6.891h-3.516A7.972,7.972,0,0,1-17.906-6h3.188q-.047.891-.047,2.391t.047,2.578Zm-1.359-2.016q-.047.656-.047,1.922t.047,1.969h-.937V0h-1.875V.984h-.937q.047-.656.047-2.062,0-1.453-.047-1.969Zm.328-4.266q-.7-.047-2.109-.047t-2.156.047v-.8q.75.047,2.156.047,1.453,0,2.109-.047ZM-20.578-.7V-2.3h-1.875V-.7Zm4.969-1.031v-1.5h-1.781v1.5Zm-4.172-3.891q-.75-.047-1.828-.047-1.031,0-1.641.047v-.844q.609.047,1.641.047t1.828-.047Zm0,1.641q-.7-.047-1.687-.047-.937,0-1.781.047v-.8q.8.047,1.781.047,1.031,0,1.688-.047Zm4.172.047V-5.25h-1.781v1.313ZM-21.469-8.2a5.2,5.2,0,0,0-.8-1.359,4.161,4.161,0,0,0,.75-.375,8.45,8.45,0,0,1,.891,1.266Q-21.094-8.391-21.469-8.2Zm16.031.047q0-.562-.047-1.219H-.844Q-.891-8.25-.891-7.922V.188q0,.562-.68.8a5.5,5.5,0,0,1-1.477.281A1.729,1.729,0,0,0-3.375.047a4.593,4.593,0,0,0,1.1.047q.445-.047.445-.609V-5.484H-5.484q.047-.984.047-2.062Zm-5.484.281a11.363,11.363,0,0,0-.094-1.5h4.453q-.047.469-.047,1.172v1.266q0,.75.047,1.453h-3.469V-.656q0,.422.047,1.781h-1.031q.094-1.453.094-1.875ZM-8.25-.8q.047-.75.047-1.266V-3.328q0-.609-.047-1.172h4.5Q-3.8-3.375-3.8-3.187v1.125q0,.281.047,1.266Zm3.563-.844V-3.7H-7.312v2.063Zm2.859-6.187v-.8H-4.5v.8Zm0,1.594v-.8H-4.5v.8ZM-7.547-7.828v-.8h-2.484v.8Zm0,1.594v-.8h-2.484v.8ZM9.609,1.172V.188H6.656v.984H5.813q.047-.7.047-2.016T5.813-2.906h4.734a8.605,8.605,0,0,0-.141,1.922,12.494,12.494,0,0,0,.141,2.156ZM4.219-2.953q-.047.563-.047,1.875,0,1.266.047,1.969H3.328V.047h-1.5v.984H.844A16.163,16.163,0,0,0,.938-1.031q0-1.406-.047-1.922Zm5.2-3.984a1.28,1.28,0,0,0-.141.656,2.813,2.813,0,0,0,.867,1.758,2.672,2.672,0,0,0,1.383.68,1.527,1.527,0,0,0-.609.8,3.976,3.976,0,0,1-1.453-.961,3.5,3.5,0,0,1-.7-1.43,4.8,4.8,0,0,1-.633,1.266A4.638,4.638,0,0,1,6.7-3a1.606,1.606,0,0,0-.656-.7A2.956,2.956,0,0,0,7.8-5.2a5.025,5.025,0,0,0,.586-1.922ZM7.969-7.5a13.627,13.627,0,0,1-.8,1.453,2.25,2.25,0,0,0-.844-.469,6,6,0,0,0,.914-1.453,6.667,6.667,0,0,0,.586-1.875q.469.188,1.031.422A3.07,3.07,0,0,0,8.25-8.156h3.188a18.772,18.772,0,0,0-.469,1.875,3.432,3.432,0,0,0-.891-.187L10.406-7.5ZM9.609-.469V-2.2H6.656V-.469Zm-5.016-6.8q-.75-.047-1.969-.047T.656-7.266v-.75q.75.047,1.969.047t1.969-.047ZM3.375-.609V-2.25H1.828V-.609Zm.8-4.969q-.656-.047-1.547-.047-.844,0-1.641.047v-.8q.8.047,1.688.047t1.5-.047Zm0,1.641q-.609-.047-1.5-.047T.984-3.937v-.75q.8.047,1.688.047.937,0,1.5-.047ZM6.281-5.859A1.363,1.363,0,0,0,6.8-5.2q-.234.234-.75.844T5.2-3.328a4.383,4.383,0,0,0-.7-.656,5.777,5.777,0,0,0,.867-.727A7.551,7.551,0,0,0,6.281-5.859ZM5.672-9.094a17.264,17.264,0,0,1,.891,1.5,4.926,4.926,0,0,0-.75.469,8.842,8.842,0,0,0-.8-1.5Q5.3-8.812,5.672-9.094ZM2.625-8.25a8.955,8.955,0,0,0-.656-1.125A7.721,7.721,0,0,1,2.625-9.8a12.778,12.778,0,0,1,.7,1.078ZM17.719-1.031q.047-.516.047-4.453a7.252,7.252,0,0,1-.562.656,2,2,0,0,0-.844-.516,3.944,3.944,0,0,0,.961-1.078A10.488,10.488,0,0,0,18.234-8.2,10.525,10.525,0,0,0,18.8-9.891l1.078.469a1.251,1.251,0,0,0-.234.328q-.094.188-.516,1.078H23.3A16.035,16.035,0,0,0,23.2-6.094L23.109.047a.863.863,0,0,1-.281.7,3.4,3.4,0,0,1-1.359.422A2.851,2.851,0,0,0,20.906.141a2.447,2.447,0,0,0,1.1-.094.491.491,0,0,0,.258-.469l.094-6.891H18.844A7.972,7.972,0,0,1,18.094-6h3.188q-.047.891-.047,2.391t.047,2.578ZM16.359-3.047q-.047.656-.047,1.922T16.359.844h-.937V0H13.547V.984h-.937q.047-.656.047-2.062,0-1.453-.047-1.969Zm.328-4.266q-.7-.047-2.109-.047t-2.156.047v-.8q.75.047,2.156.047,1.453,0,2.109-.047ZM15.422-.7V-2.3H13.547V-.7Zm4.969-1.031v-1.5H18.609v1.5ZM16.219-5.625q-.75-.047-1.828-.047-1.031,0-1.641.047v-.844q.609.047,1.641.047t1.828-.047Zm0,1.641q-.7-.047-1.687-.047-.937,0-1.781.047v-.8q.8.047,1.781.047,1.031,0,1.688-.047Zm4.172.047V-5.25H18.609v1.313ZM14.531-8.2a5.2,5.2,0,0,0-.8-1.359,4.161,4.161,0,0,0,.75-.375,8.45,8.45,0,0,1,.891,1.266Q14.906-8.391,14.531-8.2Z" transform="translate(-1324 -5607)" fill="#4e443b"/>
    <path data-idr="Path_3430" data-name="Path 3430" d="M-4.211-3.819a7.336,7.336,0,0,0,.22,2.054.887.887,0,0,0,.9.712.874.874,0,0,0,.894-.712,7.6,7.6,0,0,0,.212-2.054A7.517,7.517,0,0,0-2.194-5.9a.867.867,0,0,0-.894-.677.879.879,0,0,0-.9.677A7.254,7.254,0,0,0-4.211-3.819Zm1.123-4.023A2.2,2.2,0,0,1-1-6.794,6.061,6.061,0,0,1-.4-3.819,6.028,6.028,0,0,1-1-.849,2.2,2.2,0,0,1-3.088.193,2.2,2.2,0,0,1-5.175-.849a6.028,6.028,0,0,1-.6-2.97,6.061,6.061,0,0,1,.6-2.976A2.2,2.2,0,0,1-3.088-7.842ZM.763-5.371V-6.413a6.751,6.751,0,0,0,1.013-.1,1.427,1.427,0,0,0,.75-.408,1.345,1.345,0,0,0,.3-.559,1.285,1.285,0,0,0,.059-.312H4.163V0H2.594V-5.371Z" transform="translate(-1324 -5669.623)" fill="#4e443b"/>
    <path data-idr="Path_3440" data-name="Path 3440" d="M-13.444-3.937q.656,0,1.547-.047v.8q-.891-.047-1.547-.047h-3.234a3.141,3.141,0,0,0-.328.844H-12.6q-.047.609-.047,1.078V.094q0,.563-.281.727a4.752,4.752,0,0,1-1.219.352,2.327,2.327,0,0,0-.422-.984,2.3,2.3,0,0,0,.891-.094q.141-.094.141-.469V-1.687h-1.828V.7h-.891V-1.687H-17.9V.7h-.891V-1.687h-1.781V1.078h-.891q.047-.656.047-1.406v-.75q0-.609-.047-1.312h3.609a8.495,8.495,0,0,0,.234-.844h-2.953q-.8,0-1.547.047v-.8q.7.047,1.5.047Zm-.844-5.578q.7,0,1.594-.047v.8q-.891-.047-1.594-.047h-2.3v.8H-11.9v2.2h-.891v-1.5h-3.8V-6q0,.8.047,1.453h-.984q.047-.609.047-1.406V-7.312h-3.844v1.5h-.937q0-.516.023-1.031a10.15,10.15,0,0,0-.023-1.172h4.781v-.8h-2.3q-.7,0-1.406.047v-.8q.7.047,1.359.047Zm-4.172,4.922h-2.3V-5.25h2.3Zm.047-1.312h-2.2v-.656h2.2Zm4.688-.047h-2.2v-.656h2.2Zm.047,1.266h-2.2v-.656h2.2Zm2.869-2.859q.75.047,1.594.047h2.906q0-1.359-.047-2.109h1.031q-.047.75-.047,2.109h3.328q.656,0,1.453-.047V-6.7q-.844-.047-1.453-.047H-5.372a4.4,4.4,0,0,0,.445,1.594,8.162,8.162,0,0,0,.82,1.406A10.039,10.039,0,0,0-2.184-5.906a4.09,4.09,0,0,0,.937.75A16.526,16.526,0,0,0-3.731-3.094a8.9,8.9,0,0,0,1.477,1.5,5.136,5.136,0,0,0,1.9.984,2.356,2.356,0,0,0-.937.891A9.989,9.989,0,0,1-3.38-1.289,9.776,9.776,0,0,1-5.372-4.453V-.281a.863.863,0,0,1-.445.938,4.491,4.491,0,0,1-1.43.328A3.423,3.423,0,0,0-7.669-.047a4.539,4.539,0,0,0,1.1-.023q.3-.07.258-.492V-3.141Q-8.184-1.687-9-1.031T-10.341.094q-.422-.469-.8-.844A17.359,17.359,0,0,0-9.45-1.758,37.967,37.967,0,0,0-6.309-4.219V-6.75H-9.216q-.844,0-1.594.047ZM-9.4-5.953q1.031.844,1.922,1.594l-.8.7A11.319,11.319,0,0,0-10.153-5.3Zm6.141-3.609A10.758,10.758,0,0,1-1.762-8.3a5.711,5.711,0,0,0-.7.609,14.313,14.313,0,0,0-1.5-1.359A8.331,8.331,0,0,1-3.262-9.562ZM9.872-5.906q-.047.516-.047,1.5t.047,1.641H8.747V-.609a2.077,2.077,0,0,0,.07.68q.07.164.563.188A.755.755,0,0,0,10.036.07a2.131,2.131,0,0,0,.211-1.008,2.08,2.08,0,0,0,.891.375A2.782,2.782,0,0,1,10.645.773a.913.913,0,0,1-.656.188,7.594,7.594,0,0,0-.844,0A2.067,2.067,0,0,1,8.278.82Q7.856.656,7.9-.234V-2.766H7.2A4.592,4.592,0,0,1,6.661-.375,5.134,5.134,0,0,1,5.184,1.172a2.467,2.467,0,0,0-.7-.7A2.643,2.643,0,0,0,5.934-.8,4.161,4.161,0,0,0,6.4-2.766H5.559q.047-.656.047-1.594a9.917,9.917,0,0,0-.094-1.547ZM3.966-2.953a10.4,10.4,0,0,0-.094,1.781A15.651,15.651,0,0,0,3.966.844H3.075v-.8H1.388V.984H.45A16.163,16.163,0,0,0,.544-1.078Q.544-2.484.5-2.953Zm5.063-.469V-5.25H6.356v1.828ZM8.888-9.562A3.951,3.951,0,0,0,9.778-7.57a4.027,4.027,0,0,0,1.5,1.148,2.365,2.365,0,0,0-.609.8A4.7,4.7,0,0,1,8.958-7.242a5.758,5.758,0,0,1-.867-2.227A3.276,3.276,0,0,0,8.888-9.562Zm-1.219.516A2.167,2.167,0,0,0,6.9-8.2q-.445.7-.844,1.289a12.21,12.21,0,0,1-1.2,1.43,2.58,2.58,0,0,0-.656-.75A4.751,4.751,0,0,0,5.7-7.781a7.154,7.154,0,0,0,.891-1.875ZM4.294-7.219q-.609-.047-2.016-.047-1.359,0-2.062.047v-.8q.7.047,2.063.047,1.406,0,2.016-.047ZM3.075-.609V-2.3H1.388V-.609Zm.8-4.969q-.656-.047-1.687-.047T.544-5.578v-.75q.609.047,1.641.047,1.078,0,1.688-.047Zm0,1.641q-.469-.047-1.5-.047-.984,0-1.734.047v-.75q.75.047,1.688.047.984,0,1.547-.047ZM2.231-8.25Q1.9-8.812,1.575-9.328L2.231-9.8a5.684,5.684,0,0,1,.75,1.078A4.926,4.926,0,0,1,2.231-8.25Zm19.7-1.078q-.047.891-.047,2.063v6.75q.047.891-.3,1.148a4.149,4.149,0,0,1-1.57.445,3.329,3.329,0,0,0-.469-1.125A4.791,4.791,0,0,0,20.662-.07q.328-.07.281-.492V-3.047H18.178a9.544,9.544,0,0,1-1.594,4.359A3.017,3.017,0,0,0,15.6.7q1.828-1.828,1.688-5.953V-7.219q0-1.125-.047-2.109Zm-6,.375q-.047.984-.047,2.109v3.375q0,1.125.047,2.016h-.891v-.7H13.069V-.844h-.937q.047-.8.047-2.062V-6.891q0-1.125-.047-2.062Zm5.016,2.391V-8.531H18.225v1.969Zm0,2.719V-5.766H18.225v1.922ZM15.037-3V-5.3H13.069V-3Zm0-3.047V-8.156H13.069v2.109ZM-7.575,17.125V12.109h-2.484a8.608,8.608,0,0,0-1.078.047v-.75a6.432,6.432,0,0,0,.8.047v-3.8a4.763,4.763,0,0,0-.75.047v-.75Q-10.434,7-9.919,7h2.859q.328,0,.844-.047V7.7a4.067,4.067,0,0,0-.562-.047v9.469ZM-4.9,8.219q-.562,0-1.172.047v-.75q.609.047,1.172.047h1.172a6.119,6.119,0,0,0,.094-1.172,7.448,7.448,0,0,0,.938.141,2.25,2.25,0,0,0-.281,1.031h1.734q.422,0,.938-.047v.75q-.516-.047-.938-.047H-3.075a5.934,5.934,0,0,0-.141.891H-.591q-.047.609-.047,1.313,0,.656.047,1.313h-5.25q.047-.7.047-1.359,0-.7-.047-1.266h1.875q.094-.469.141-.891Zm-2.953,7.875q-.656.141-1.453.3a10.332,10.332,0,0,0-1.547.445A5.235,5.235,0,0,0-11.044,16a6.572,6.572,0,0,0,.7-.047,4.59,4.59,0,0,0,.75-.141v-.937q-.422,0-.984.047v-.75q.563.047.984.047v-.8q-.328,0-1.078.047v-.7q.656.047,1.125.047h.609q.469,0,.984-.047v.7q-.516-.047-.891-.047v.8q.375,0,.891-.047v.75q-.516-.047-.891-.047v.8a8.2,8.2,0,0,0,.938-.187Zm3.75-2.109a8.072,8.072,0,0,0-.047.891v.8a.443.443,0,0,0,.375.469H-2.7q.469,0,.516-1.125a3.141,3.141,0,0,0,.844.328q-.234,1.406-.891,1.406H-4.059q-.844,0-.844-.937v-.937a6.62,6.62,0,0,0-.047-.891Zm2.578-1.594q.516,0,1.078-.047v.75q-.563-.047-1.031-.047H-4.762q-.562,0-1.266.047v-.75q.7.047,1.266.047Zm-6.047-1.828H-9.544v.891h1.969Zm0-2.016V7.656H-9.544v.891Zm0,1.453V9.156H-9.544V10Zm2.484,4.453q-.187.422-.375.961t-.375,1.008a7.807,7.807,0,0,0-.75-.328,6.673,6.673,0,0,0,.445-.984q.164-.469.3-.984A2.828,2.828,0,0,0-5.091,14.453Zm4.219-.516q.234.469.75,1.688-.422.188-.75.328-.187-.516-.328-.914t-.328-.82Zm-2.438,1.125a12.812,12.812,0,0,0-.375-1.406,3.055,3.055,0,0,0,.7-.234l.422,1.406A4.245,4.245,0,0,0-3.309,15.063Zm.469-3.984V9.766h-.7v1.313Zm-1.453,0V9.766H-5v1.313Zm2.859,0V9.766h-.656v1.313Zm6.1-4.219q.8,0,1.359-.047v.8a6.041,6.041,0,0,0-.75-.047v6.328q.516-.141,1.172-.328v.8q-.609.141-1.172.281,0,1.828.047,2.672H4.387q.047-.7.047-2.484a16.344,16.344,0,0,0-2.062.563,13.805,13.805,0,0,0-1.594.656L.4,14.969l1.031-.187V7.563q-.375,0-.938.047v-.8q.609.047,1.641.047Zm.984,9.375a5.12,5.12,0,0,0,1.1-.914,11.644,11.644,0,0,0,1.1-1.477,8.349,8.349,0,0,1-.914-2.672,31.519,31.519,0,0,1-.3-3.141H6.262v-.8q.938.047,1.688.047h2.625a26.562,26.562,0,0,1-.539,3.8,9.754,9.754,0,0,1-1.1,2.766,4.867,4.867,0,0,0,1.008,1.219,7.915,7.915,0,0,0,1.383.984,3.218,3.218,0,0,0-.8.8,8.976,8.976,0,0,1-2.109-2.2,10,10,0,0,1-1.922,2.3A2.8,2.8,0,0,0,5.653,16.234Zm1.828-8.2q.141,1.875.258,2.813A8.308,8.308,0,0,0,8.372,13a10.4,10.4,0,0,0,.961-2.883q.211-1.336.258-2.086Zm-3.047,1.5V7.563H2.278V9.531ZM2.278,14.594q1.125-.234,2.156-.469v-1.5H2.278Zm2.156-2.719V10.234H2.278v1.641Z" transform="translate(-1246 -5615)" fill="#4e443b"/>
    <path data-idr="Path_3431" data-name="Path 3431" d="M-4.211-3.819a7.336,7.336,0,0,0,.22,2.054.887.887,0,0,0,.9.712.874.874,0,0,0,.894-.712,7.6,7.6,0,0,0,.212-2.054A7.517,7.517,0,0,0-2.194-5.9a.867.867,0,0,0-.894-.677.879.879,0,0,0-.9.677A7.254,7.254,0,0,0-4.211-3.819Zm1.123-4.023A2.2,2.2,0,0,1-1-6.794,6.061,6.061,0,0,1-.4-3.819,6.028,6.028,0,0,1-1-.849,2.2,2.2,0,0,1-3.088.193,2.2,2.2,0,0,1-5.175-.849a6.028,6.028,0,0,1-.6-2.97,6.061,6.061,0,0,1,.6-2.976A2.2,2.2,0,0,1-3.088-7.842ZM.344,0A3.66,3.66,0,0,1,.7-1.531,4.328,4.328,0,0,1,2.25-3.18,11.344,11.344,0,0,0,3.62-4.265,1.6,1.6,0,0,0,4.1-5.382,1.238,1.238,0,0,0,3.824-6.2a.965.965,0,0,0-.784-.328.956.956,0,0,0-.951.521,2.584,2.584,0,0,0-.172.956H.43A3.759,3.759,0,0,1,.79-6.66,2.244,2.244,0,0,1,2.967-7.826a2.763,2.763,0,0,1,1.968.685,2.367,2.367,0,0,1,.731,1.813A2.451,2.451,0,0,1,5.15-3.792,5.142,5.142,0,0,1,4.036-2.8l-.613.435q-.576.408-.788.591a1.731,1.731,0,0,0-.357.424h3.4V0Z" transform="translate(-1246 -5669.623)" fill="#4e443b"/>
    <path data-idr="Path_3439" data-name="Path 3439" d="M-17.194-9.8a8.443,8.443,0,0,1,.75,1.313h2.672q.937,0,1.875-.047v.844q-.938-.047-1.875-.047h-5.391a13.183,13.183,0,0,1,1.078,1.219,3.481,3.481,0,0,0-.7.422h2.531q.281-.75.563-1.594a7.391,7.391,0,0,0,1.078.328,7.911,7.911,0,0,0-.75,1.266h2.625q-.047.563-.047,1.547V.094a.813.813,0,0,1-.516.8,5.6,5.6,0,0,1-1.406.375A2.069,2.069,0,0,0-15.084.234,2.638,2.638,0,0,0-13.912.141a.5.5,0,0,0,.234-.469V-5.437h-6.844V1.125h-.937q.047-1.219.047-1.734V-4.641q0-.469-.047-1.453h2.578a4.538,4.538,0,0,0-1.078-1.172,3.446,3.446,0,0,0,.7-.469h-1.078q-1.078,0-1.875.047v-.844q.8.047,1.828.047h2.906a2.645,2.645,0,0,0-.609-.984A7.49,7.49,0,0,0-17.194-9.8Zm-1.031,4.828a10.218,10.218,0,0,0,.891.563,5.566,5.566,0,0,0-1.359,1.266h3.563q-.047.609-.047,1.313t.047,1.406h-3.656q.047-.7.047-1.359,0-.7-.047-1.266-.328.281-.656.516a1.535,1.535,0,0,0-.7-.516A7.789,7.789,0,0,0-18.225-4.969Zm2.156,3.844V-2.437H-17.9v1.313Zm.047-3.891a17.725,17.725,0,0,1,2.109,1.547,2.207,2.207,0,0,0-.7.609,9.835,9.835,0,0,0-1.969-1.547A2.113,2.113,0,0,0-16.022-5.016ZM-2.512-9.141q-.047.844-.047,1.922,0,1.031.047,1.828H-8.934a16.291,16.291,0,0,0,.094-1.875,16.291,16.291,0,0,0-.094-1.875ZM-.731-4.312q-.047.844-.047,2.578,0,1.688.047,2.391h-.891V0H-4.294V.8h-.891q.047-.8.047-2.531t-.047-2.578ZM-7.2.75V0H-9.731V.8h-.891q.047-.8.047-2.531,0-1.781-.047-2.578h4.313A20.535,20.535,0,0,0-6.4-2.062q0,1.406.094,2.813Zm3.8-6.937V-8.344H-8v2.156ZM-1.622-.844V-3.469H-4.294V-.844Zm-5.578,0V-3.469H-9.731V-.844ZM2.325-5.766q-.047.891-.047,1.594v3.094a6.826,6.826,0,0,0,4.43,1.2,25.97,25.97,0,0,0,4.57-.258A2.905,2.905,0,0,0,11.044.984q-2.016.047-3.445.023A15.609,15.609,0,0,1,5.231.82,11.869,11.869,0,0,1,3.708.469,5.992,5.992,0,0,1,2.583-.023q-.539-.3-.867,0A6.735,6.735,0,0,0,.872,1.031a4.383,4.383,0,0,0-.7-.656Q.731-.141,1.481-.891V-5.062q-.656,0-1.312.047v-.8Q.825-5.766,2.325-5.766Zm2.859.8a3.538,3.538,0,0,1-.047-.656h.844v.656h1.5v-.656h.891a5.376,5.376,0,0,0-.047.656q.891,0,1.594-.047v.656q-.656-.047-1.594-.047v.984q1.453,0,2.3-.047v.7q-.844-.047-1.406-.047H4.481q-.7,0-1.453.047v-.7q.75.047,2.156.047v-.984q-.844,0-1.547.047v-.656Q4.341-4.969,5.184-4.969ZM9.778-9.656q-.047,1.078,0,2.109H7.856v.422a.388.388,0,0,0,.4.445A4.225,4.225,0,0,0,9.028-6.7q.375-.047.516-.562a3.578,3.578,0,0,0,.891.328,2.275,2.275,0,0,1-.539.75,1.26,1.26,0,0,1-.68.141H7.9q-.891,0-.891-.8V-8.109q0-.7-.047-1.547ZM6.638-6.891a3.018,3.018,0,0,1-.539.82.847.847,0,0,1-.492.117H4.388q-.75,0-.75-.7v-1.5q0-.75-.047-1.5H6.263q-.047,1.125,0,2.109H4.481v.563q0,.469.281.469h.563q.328,0,.469-.609A2.075,2.075,0,0,0,6.638-6.891ZM6.028-1.969q-1.219.7-2.484,1.359-.234-.375-.422-.656A11.008,11.008,0,0,0,5.513-2.625,6.56,6.56,0,0,0,6.028-1.969Zm1.734-.609a19.211,19.211,0,0,1,2.25,1.359,6.557,6.557,0,0,0-.516.75q-.75-.609-2.109-1.547Q7.622-2.344,7.763-2.578ZM1.434-9.562A24.649,24.649,0,0,1,2.794-7.5a2.864,2.864,0,0,0-.75.516A11.161,11.161,0,0,0,.825-9,2.113,2.113,0,0,1,1.434-9.562ZM7.481-3.422v-.984h-1.5v.984ZM8.934-8.156v-.891H7.856v.891Zm-3.516,0v-.891H4.481v.891ZM17.194-3.891A12.863,12.863,0,0,0,15.6-3.8v-.8q.75.047,3.188.047v-.844q-1.734,0-2.531.047v-.7q.8.047,2.531.047v-.844H15.928q.047-.656.047-1.359t-.047-1.266H22.3a7.425,7.425,0,0,0-.094,1.219q0,.656.047,1.406H19.584V-6q1.781,0,2.484-.047v.7q-.656-.047-2.484-.047v.844q2.156,0,2.953-.047v.8a12.465,12.465,0,0,0-1.547-.094h-.516q.375.188.844.375a2.207,2.207,0,0,0-.609.7q.75,0,1.5-.047v.7Q21.366-2.2,19.584-2.2v1.031q2.062,0,2.859-.047v.75a27.96,27.96,0,0,0-2.859-.094q0,.422.047,1.641h-.891q.047-1.031.047-1.641-2.2,0-3.094.094v-.75q.891.047,3.094.047V-2.2q-1.922,0-2.812.047v-.7q.891.047,1.641.047a2.8,2.8,0,0,0-.422-.8,2.67,2.67,0,0,0,.75-.281ZM14.006.094q.094,1.078-1.641,1.078a2.737,2.737,0,0,0-.281-.984,4.508,4.508,0,0,0,.891.07q.234-.023.188-.539V-3.141a4.063,4.063,0,0,0-1.312.656,6.02,6.02,0,0,1-.328-.984,11.278,11.278,0,0,0,1.641-.422V-6.609q-.844,0-1.594.047v-.75q.75.047,1.594.047V-8.344q0-.8-.047-1.5h.938q-.047.7-.047,1.547v1.031q.7,0,1.453-.047v.75q-.7-.047-1.453-.047v2.484a10.592,10.592,0,0,0,1.219-.562,4.59,4.59,0,0,0,.141.75,11.932,11.932,0,0,0-1.359.516Zm4.078-3.984q.188.516.375,1.078h1.406q.234-.516.469-1.078Zm1.547-3.562V-8.859H18.6v1.406Zm-1.828,0V-8.859H16.772v1.406Zm3.656,0V-8.859H20.428v1.406ZM-18.834,16.516a3.6,3.6,0,0,0,1.5-1.031,3.719,3.719,0,0,0,.82-1.547,3.943,3.943,0,0,0,.164-1.266h-1.078q.047-.516.047-1.359V8.781q0-1.266-.047-2.109h4.922q-.047.7-.047,1.922v2.3q0,1.031.047,1.781h-1.312v2.766q0,.656.422.656h.469a.366.366,0,0,0,.445-.352,5,5,0,0,0,.07-.867,1.987,1.987,0,0,0,.938.328,5.564,5.564,0,0,1-.258,1.2.727.727,0,0,1-.773.445h-1.219a.829.829,0,0,1-.937-.937V12.672h-.844a6.392,6.392,0,0,1-.187,1.453,4.843,4.843,0,0,1-.656,1.523,6.366,6.366,0,0,1-1.641,1.57A2.672,2.672,0,0,0-18.834,16.516Zm-3.8-.234A6.868,6.868,0,0,0-21.6,15.2a6.555,6.555,0,0,0,.867-1.477,4.534,4.534,0,0,0,.352-1.8h-.562q-.7,0-1.359.047v-.844q.656.047,1.266.047h.75V9.25q-.8,0-1.641.047V8.453q.844.047,1.641.047V7.891q0-.937-.047-1.734.516.047.984.047A12.158,12.158,0,0,0-19.444,7.8v.7q.891,0,1.5-.047V9.3q-.562-.047-1.5-.047v1.922q.891,0,1.734-.047v.844q-.8-.047-1.734-.047-.047.563-.141,1.172.984.844,2.016,1.875a5.153,5.153,0,0,0-.75.7,11.273,11.273,0,0,0-1.5-1.734,16.086,16.086,0,0,1-.844,1.5,12.144,12.144,0,0,1-1.078,1.406A2.4,2.4,0,0,0-22.631,16.281Zm9.234-4.359V10.844h-3.187v1.078Zm0-1.828V9.063h-3.187v1.031Zm0-1.781V7.422h-3.187v.891Zm9.337-1.453a8.756,8.756,0,0,0-.609.984h3.516a10.124,10.124,0,0,1-.773,1.711,9.462,9.462,0,0,1-1.055,1.477,6.434,6.434,0,0,0,1.43.68,6.132,6.132,0,0,0,1.383.352A2.7,2.7,0,0,0-.684,13q-.609-.234-1.406-.586A7.88,7.88,0,0,1-3.637,11.5a9.187,9.187,0,0,1-1.43.867,17.159,17.159,0,0,1-1.8.727,1.958,1.958,0,0,0-.516-.7,9.783,9.783,0,0,0,1.8-.609,6.151,6.151,0,0,0,1.336-.8A9.017,9.017,0,0,1-5.466,9.3q-.281.422-.844,1.172A3.043,3.043,0,0,0-7.059,10a7.175,7.175,0,0,0,1.2-1.641,10,10,0,0,0,.82-1.922A3.125,3.125,0,0,0-4.059,6.859Zm2.813,6.047q-.047.563-.047,2.016t.047,2.156h-.984v-.75H-5.137v.8h-.984q.047-.75.047-2.156,0-1.453-.047-2.062ZM-8.231,6.438q-.047.609-.047,1.172V8.828q.891,0,1.313-.047v.844q-.422-.047-1.312-.047v1.313a4.345,4.345,0,0,0,.563-.422,15.02,15.02,0,0,1,.8,1.406q-.375.234-.7.469-.375-.8-.656-1.266v4.406q0,1.031.047,1.688h-.937q.047-.656.047-1.687V11.453a31.692,31.692,0,0,1-1.406,2.953,2.535,2.535,0,0,0-.7-.562,14.939,14.939,0,0,0,1.219-2.3,12.039,12.039,0,0,0,.656-1.969q-.656,0-1.453.047V8.781q.844.047,1.688.047V7.609q0-.516-.047-1.172Zm6,9.188V13.609H-5.137v2.016Zm-1.406-5.109A6.49,6.49,0,0,0-2.372,8.547H-5.044A6.6,6.6,0,0,0-3.637,10.516ZM7.528,9.344q.281-.281.609-.562.422.516.984,1.125a3.373,3.373,0,0,1-.516.422h.563q.609,0,1.547-.047v.8q-.75-.047-1.547-.047H8.559V12.3q1.406,0,2.109-.047V13q-.8-.047-2.109-.047v1.266a17.571,17.571,0,0,0,2.062-.094v.75q-.7-.047-2.062-.047v1.266H9.5q.8,0,1.641-.047v.7Q10.294,16.7,9.5,16.7H6.122v.563H5.231q.094-1.219.094-2.25V12.3l-.469.75q-.328-.469-.656-.891a5.77,5.77,0,0,0,.8-.914,9.508,9.508,0,0,0,.891-1.5A7.767,7.767,0,0,0,6.5,8.031H5.325V9.578H4.481V7.328H6.638a5.672,5.672,0,0,0,.047-1.219q.563.141,1.078.234a4.289,4.289,0,0,0-.328.984H10.9a8.072,8.072,0,0,0-.047.891q0,.422.047,1.172h-.844V8.031H7.294a12.287,12.287,0,0,1-.8,2.3H8.372A8.277,8.277,0,0,0,7.528,9.344ZM3.4,7.047A7.635,7.635,0,0,0,4.247,7v.8q-.562-.047-.984-.047H2.653q-.328,1.406-.7,2.672H4.106q-.047.8-.047,1.547v2.813q0,.844.047,1.406H3.263v-.844H2.091v1.594H1.247q.047-1.219.047-1.969v-3a10.267,10.267,0,0,1-.469,1.078,4.243,4.243,0,0,0-.75-.75,16.619,16.619,0,0,0,1.2-2.484A16.289,16.289,0,0,0,1.809,7.75H.45V7q.656.047,1.078.047Zm-.141,7.641V11.125H2.091v3.563Zm4.5-.469V12.953H6.122v1.266Zm0-1.922V11.031H6.122V12.3Zm0,3.8V14.828H6.122v1.266Zm11.212-5.953q.891,0,1.828-.047v.891q-.844-.047-2.016-.047H17.756v1.875h1.969q.516,0,1.453-.047v.891q-.937-.047-1.5-.047H17.756v2.2a21.549,21.549,0,0,0,4.688-.047,3.329,3.329,0,0,0-.469,1.125q-1.875,0-3.094-.047a9.129,9.129,0,0,1-2.062-.281,4.737,4.737,0,0,1-1.5-.7A6.854,6.854,0,0,1,14.1,14.734a10.374,10.374,0,0,1-1.734,2.344,2.554,2.554,0,0,0-.937-.609,6.237,6.237,0,0,0,1.922-2.437,7.139,7.139,0,0,0,.656-2.156,3.669,3.669,0,0,0,1.125.422,2.8,2.8,0,0,0-.3.586q-.164.4-.4,1.008a6.442,6.442,0,0,0,.984.961,4.163,4.163,0,0,0,1.406.773V10.938h-1.5q-.8,0-1.594.047v-.891q.8.047,1.875.047Zm2.906-2.156q-.047.656-.047.984t.047.891H20.9V8.734H13.4V9.859h-.984a6.853,6.853,0,0,0,.047-.844q0-.469-.047-1.031ZM16.069,6.531a2.856,2.856,0,0,0,.844-.469,7.862,7.862,0,0,1,.938,1.406,6.35,6.35,0,0,0-.937.469A4.651,4.651,0,0,0,16.069,6.531Z" transform="translate(-1153 -5615)" fill="#4e443b"/>
    <path data-idr="Path_3432" data-name="Path 3432" d="M-4.211-3.819a7.336,7.336,0,0,0,.22,2.054.887.887,0,0,0,.9.712.874.874,0,0,0,.894-.712,7.6,7.6,0,0,0,.212-2.054A7.517,7.517,0,0,0-2.194-5.9a.867.867,0,0,0-.894-.677.879.879,0,0,0-.9.677A7.254,7.254,0,0,0-4.211-3.819Zm1.123-4.023A2.2,2.2,0,0,1-1-6.794,6.061,6.061,0,0,1-.4-3.819,6.028,6.028,0,0,1-1-.849,2.2,2.2,0,0,1-3.088.193,2.2,2.2,0,0,1-5.175-.849a6.028,6.028,0,0,1-.6-2.97,6.061,6.061,0,0,1,.6-2.976A2.2,2.2,0,0,1-3.088-7.842ZM1.794-2.39a1.754,1.754,0,0,0,.15.773,1.028,1.028,0,0,0,1.013.564,1.121,1.121,0,0,0,.785-.309,1.149,1.149,0,0,0,.335-.889,1,1,0,0,0-.621-1.026,3.144,3.144,0,0,0-1.114-.145v-1.1A2.879,2.879,0,0,0,3.38-4.662a.9.9,0,0,0,.508-.913,1.022,1.022,0,0,0-.26-.725A.949.949,0,0,0,2.9-6.58a.924.924,0,0,0-.8.344,1.461,1.461,0,0,0-.244.918H.43a3.847,3.847,0,0,1,.2-1.1,2.479,2.479,0,0,1,.59-.843,2.056,2.056,0,0,1,.714-.419,3.085,3.085,0,0,1,1.014-.145,2.7,2.7,0,0,1,1.8.577A1.924,1.924,0,0,1,5.43-5.7a1.713,1.713,0,0,1-.408,1.16,1.394,1.394,0,0,1-.537.4,1.1,1.1,0,0,1,.6.36,1.922,1.922,0,0,1,.585,1.482A2.5,2.5,0,0,1,4.988-.556,2.606,2.606,0,0,1,2.962.193a2.45,2.45,0,0,1-2.3-1.08A3.207,3.207,0,0,1,.29-2.39Z" transform="translate(-1153 -5669.623)" fill="#4e443b"/>
    <path data-idr="Path_3438" data-name="Path 3438" d="M-15.037-3.281a1.4,1.4,0,0,0-.422-.352q-.281-.164-.609-.352a2.465,2.465,0,0,0,.375-.609h-1.172q-.8,0-1.406.047V-5.3q.609.047,1.359.047h1.5v-.891H-16.3q-.656,0-1.312.047v-.75q.609.047,1.266.047h.938v-.8h-1.219q-.75,0-1.359.047V-8.3q.656.047,1.359.047h.469q-.141-.187-.328-.445t-.469-.586a6.852,6.852,0,0,0,.7-.469q.281.328.469.563t.422.563q-.328.234-.562.375h1.5a4.7,4.7,0,0,1,.258-.609,4.363,4.363,0,0,0,.3-.984q.422.188.984.375-.234.375-.375.633t-.281.586h.328q.609,0,1.313-.047v.75q-.7-.047-1.312-.047h-1.406v.8h1.031q.516,0,1.219-.047v.75q-.7-.047-1.219-.047h-1.031v.891h1.688q.609,0,1.219-.047v.75q-.656-.047-1.219-.047h-2.531q.234.141.539.328t.633.375a5.751,5.751,0,0,0-.516.609h.234a5.686,5.686,0,0,0-.047.7,1.686,1.686,0,0,0,.469.609,4.352,4.352,0,0,0,.68-.633,5.829,5.829,0,0,0,.586-.82,8.041,8.041,0,0,0,.75.656,3.607,3.607,0,0,0-.727.586q-.4.4-.773.727a4.171,4.171,0,0,0,.8.773,4.761,4.761,0,0,0,1.266.633,2.4,2.4,0,0,0-.562.891,9.35,9.35,0,0,1-1.5-1.1A6.386,6.386,0,0,1-14.616-1.5V.234q0,.563-.352.7a5.44,5.44,0,0,1-1.289.234A3.959,3.959,0,0,0-16.584.047q1.125.234,1.125-.187V-2.625h-.7q-.7,0-1.359.047v-.75q.656.047,1.359.047Zm-5.578,4.359q.047-.891.047-2.25V-4.594a8.679,8.679,0,0,1-.68,1.758,5.069,5.069,0,0,1-.727,1.148q-.375-.328-.75-.609.234-.281.516-.68a6.462,6.462,0,0,0,.539-.937,12.593,12.593,0,0,0,.492-1.2,6.612,6.612,0,0,0,.328-1.453h-.187q-.562,0-1.172.047v-.8q.609.047,1.125.047h.516v-.891q0-.844-.047-1.5h.938q-.047.563-.047,1.453v.938q.609,0,1.219-.047v.8q-.609-.047-.984-.047h-.234v1.453q.234-.141.656-.375.188.422.375.8t.375.8a6.423,6.423,0,0,0-.8.422,9.913,9.913,0,0,0-.609-1.406v3.7q0,1.359.047,2.25Zm4.781-3.094A4.846,4.846,0,0,1-16.772,0a5.656,5.656,0,0,1-1.547,1.125,2.938,2.938,0,0,0-.562-.75A4.328,4.328,0,0,0-17.592-.3a2.331,2.331,0,0,0,.727-1.055h-.516q-.516,0-1.078.047v-.75q.516.047,1.078.047ZM-2.512-9.141q-.047.844-.047,1.922,0,1.031.047,1.828H-8.934a16.291,16.291,0,0,0,.094-1.875,16.291,16.291,0,0,0-.094-1.875ZM-.731-4.312q-.047.844-.047,2.578,0,1.688.047,2.391h-.891V0H-4.294V.8h-.891q.047-.8.047-2.531t-.047-2.578ZM-7.2.75V0H-9.731V.8h-.891q.047-.8.047-2.531,0-1.781-.047-2.578h4.313A20.535,20.535,0,0,0-6.4-2.062q0,1.406.094,2.813Zm3.8-6.937V-8.344H-8v2.156ZM-1.622-.844V-3.469H-4.294V-.844Zm-5.578,0V-3.469H-9.731V-.844ZM1.528-7.687a8.343,8.343,0,0,0-.75-.375,9.14,9.14,0,0,0,.586-.844,7.324,7.324,0,0,0,.445-.844q.328.141.8.375a1.486,1.486,0,0,0-.422.563H3.4q0-.469-.047-1.125h.891Q4.2-9.281,4.2-8.812h.656q.656,0,1.359-.047v.7Q5.559-8.2,4.856-8.2H4.2v.7H5.466q.469,0,1.219-.047v.7q-.75-.047-1.219-.047H4.2v.609H6.45q-.094.609-.164,1.125A1.024,1.024,0,0,1,6-4.477a2.6,2.6,0,0,1-.961.3,2.67,2.67,0,0,0-.281-.75,2.706,2.706,0,0,0,.68-.117q.164-.07.164-.633H4.2v2.063H3.4V-5.672H2v1.594H1.153v-2.2H3.4v-.609H1.856q-.7,0-1.172.047v-.7q.609.047,1.172.047H3.4v-.7H1.856Q1.716-7.969,1.528-7.687ZM3.263.563a.7.7,0,0,0,.328-.609V-.8A23.2,23.2,0,0,1,.778.469a2.575,2.575,0,0,0-.609-.75Q.919-.469,1.6-.7a15.308,15.308,0,0,0,1.523-.633A9.191,9.191,0,0,0,4.716-2.3H2.278Q1.2-2.3.638-2.25v-.8Q1.434-3,2.278-3H9.4q.75,0,1.594-.047v.8Q10.2-2.3,9.45-2.3H5.888a11.573,11.573,0,0,1-1.5,1.078V.141q.656-.281,1.406-.609a5.629,5.629,0,0,0,.188.8A8.643,8.643,0,0,1,5.114.68a13.67,13.67,0,0,0-1.43.633Q3.45.938,3.263.563ZM6.122-2.2A14.837,14.837,0,0,0,7.856-.891,6.221,6.221,0,0,0,8.841-2.2q.375.234.844.516A9.015,9.015,0,0,0,8.513-.469a8.394,8.394,0,0,0,2.766.7,2.613,2.613,0,0,0-.422.891A11.419,11.419,0,0,1,8.817.539a7.243,7.243,0,0,1-1.57-.867q-.7-.516-1.687-1.406A3.725,3.725,0,0,0,6.122-2.2ZM10.2-9.562q-.047.563-.047,1.547v3.141a.8.8,0,0,1-.375.8A3.755,3.755,0,0,1,8.606-3.8a3.033,3.033,0,0,0-.328-.937,4.988,4.988,0,0,0,.867-.047q.211-.047.211-.469v-3q0-.656-.047-1.312Zm-1.969.891q-.047.656-.047,1.125v1.078q0,.656.047,1.219H7.341q.047-.609.047-1.219V-7.5q0-.562-.047-1.172ZM5.747-3.094q-.141-.422-.328-.891.328-.141.75-.328a7.785,7.785,0,0,1,.422.891A3.657,3.657,0,0,0,5.747-3.094ZM18.741-9.469a4.67,4.67,0,0,0-1.031,1.781H20.8q1.031,0,1.641-.047v.844q-.609-.047-1.641-.047H18.647v1.828h1.922q.8,0,1.313-.047v.891q-.609-.047-1.312-.047H18.647V-2.2h2.016q.938,0,1.547-.047v.891q-.609-.047-1.5-.047H18.647v.891q0,1.313.047,1.781h-.984q.047-.516.047-1.406v-6.8h-.469a22.7,22.7,0,0,1-1.359,2.109,3.008,3.008,0,0,0-.891-.609A9.115,9.115,0,0,0,16.4-7.312a12.31,12.31,0,0,0,1.125-2.625A7.862,7.862,0,0,0,18.741-9.469Zm-3.281.188a5.584,5.584,0,0,0-1.078,2.016v6q0,1.5.047,2.391H13.35Q13.4.281,13.4-1.219V-5.625A16.621,16.621,0,0,1,12.131-3.8a3.839,3.839,0,0,0-.656-.8,12.394,12.394,0,0,0,1.477-2.18,13.029,13.029,0,0,0,1.289-3.117A7.375,7.375,0,0,0,15.459-9.281Z" transform="translate(-1065 -5607)" fill="#4e443b"/>
    <path data-idr="Path_3433" data-name="Path 3433" d="M-4.211-3.819a7.336,7.336,0,0,0,.22,2.054.887.887,0,0,0,.9.712.874.874,0,0,0,.894-.712,7.6,7.6,0,0,0,.212-2.054A7.517,7.517,0,0,0-2.194-5.9a.867.867,0,0,0-.894-.677.879.879,0,0,0-.9.677A7.254,7.254,0,0,0-4.211-3.819Zm1.123-4.023A2.2,2.2,0,0,1-1-6.794,6.061,6.061,0,0,1-.4-3.819,6.028,6.028,0,0,1-1-.849,2.2,2.2,0,0,1-3.088.193,2.2,2.2,0,0,1-5.175-.849a6.028,6.028,0,0,1-.6-2.97,6.061,6.061,0,0,1,.6-2.976A2.2,2.2,0,0,1-3.088-7.842ZM5.752-1.676H4.872V0h-1.5V-1.676H.29V-3.013L3.153-7.74H4.872v4.866h.881Zm-2.379-1.2V-6.228L1.429-2.874Z" transform="translate(-1065 -5669.623)" fill="#4e443b"/>
    <path data-idr="Path_3437" data-name="Path 3437" d="M-3.122-7.922q.844,0,2.156-.094v.844q-1.172-.047-2.625-.047v1.125q1.266,0,2.156-.047V-5.3q-.891-.047-2.156-.047v1.219q1.266,0,2.2-.047v.844q-.938-.047-2.2-.047V-2.2h.75q.984,0,2.063-.047v.844q-1.078-.047-2.063-.047H-6.4v.844h-.891q.047-.75.047-2.016v-3.8Q-7.669-5.766-8-5.3q-.328-.328-.609-.656a8.437,8.437,0,0,0,1.078-1.57,7.559,7.559,0,0,0,.8-2.086,7.915,7.915,0,0,0,1.125.375,14.044,14.044,0,0,0-.75,1.313Zm-8.109,1.969q.656.047,2.2.047-.047.609-.047,1.688v3.047Q-7.762,0-4.692.047A29.457,29.457,0,0,0-.122-.141,5.283,5.283,0,0,0-.45,1.031q-1.969,0-3.352-.023A18.1,18.1,0,0,1-6.122.844,8.842,8.842,0,0,1-7.669.492,5.34,5.34,0,0,1-8.794-.047q-.516-.328-.844-.023A8.538,8.538,0,0,0-10.528.984q-.375-.375-.7-.656.7-.656,1.313-1.266V-5.109q-.7,0-1.313.047Zm6.75,1.828V-5.344H-6.4v1.219Zm0,1.922V-3.375H-6.4V-2.2ZM-9.4-7.078a18.952,18.952,0,0,0-1.172-2.016,5.81,5.81,0,0,1,.7-.516q.891,1.266,1.359,1.969A4.41,4.41,0,0,0-9.4-7.078Zm4.922.984V-7.219H-6.4v1.125Zm.7-3.8q.422,1.031.563,1.453a4.226,4.226,0,0,0-.891.281,12.857,12.857,0,0,0-.516-1.406A5.278,5.278,0,0,1-3.778-9.891ZM9.637-5.812q.891,0,1.641-.047v.938q-.75-.047-1.594-.047H9.028V.141a.721.721,0,0,1-.352.773,5.2,5.2,0,0,1-1.57.352A2.6,2.6,0,0,0,6.591.141a6.933,6.933,0,0,0,1.125.07q.328-.023.375-.492V-4.969H6.216q-.891,0-1.687.047v-.937q.844.047,1.688.047ZM4.012-6.375a1.588,1.588,0,0,0-.633.609q-.211.375-.586.938V-.609q0,.609.047,1.875H1.856Q1.9-.141,1.9-.844v-3A7.394,7.394,0,0,1,.778-2.437q-.328-.469-.609-.8A11.377,11.377,0,0,0,1.856-5.2q.609-.937,1.078-1.781Q3.4-6.7,4.012-6.375ZM8.841-9q.8,0,1.641-.047v.891Q9.637-8.2,8.747-8.2H7.012q-1.031,0-1.781.047v-.891Q5.981-9,7.012-9Zm-5.25-.234q-.375.047-.984,1.008A15.543,15.543,0,0,1,.919-6.094a6.555,6.555,0,0,0-.609-.7A12.214,12.214,0,0,0,1.669-8.414a8.743,8.743,0,0,0,.891-1.523A12.25,12.25,0,0,1,3.591-9.234ZM-19.584,7.281a2.755,2.755,0,0,0-.469.82q-.187.492-.375.961h2.813V7.422q0-.609-.047-1.172h1.078q-.047.516-.047,1.172V9.063h2.063q.75,0,1.688-.047v.938q-.891-.047-1.687-.047h-2.062v2.109h1.453q.656,0,1.594-.047v.938q-.891-.047-1.594-.047h-1.453v2.813h2.813q.75,0,1.734-.047v.891q-.938-.047-1.734-.047h-6.75q-.8,0-1.641.047v-.891q.891.047,1.641.047h2.953V12.859H-19.35q-.656,0-1.359.047v-.937q.7.047,1.359.047h1.734V9.906h-3.141a14.1,14.1,0,0,1-.844,1.688,4.276,4.276,0,0,0-1.125-.328,7.477,7.477,0,0,0,1.1-1.8,10.047,10.047,0,0,0,.82-2.648Zm12.853,4.734a6.6,6.6,0,0,0-.562.844h1.828q0-.516-.047-1.219h.938q-.047.563-.047,1.219H-2.7q.516,0,1.172-.047v.8q-.656-.047-1.172-.047H-4.622v.984h1.453q.516,0,1.031-.047v.8q-.516-.047-1.031-.047H-4.622v1.125h3q.469,0,1.219-.047v.8q-.75-.047-1.172-.047H-7.95q-.844,0-1.547.047v-.8q.75.047,1.547.047h2.484V15.25H-6.684q-.328,0-1.031.047v-.8q.609.047,1.031.047h1.219v-.984h-2.2a11.1,11.1,0,0,0-.75,1.125q-.375-.234-.75-.422A7.77,7.77,0,0,0-8.3,13.141a7.986,7.986,0,0,0,.68-1.453Q-7.247,11.828-6.731,12.016ZM-2.7,10.7a17,17,0,0,0,1.781-.094v.844q-.844-.047-1.687-.047H-9.216q0,1.031-.047,1.875a11.032,11.032,0,0,1-.187,1.547,11.893,11.893,0,0,1-.328,1.289q-.187.586-.375,1.1a2.647,2.647,0,0,0-1.031-.328,3.669,3.669,0,0,0,.469-.844,8.47,8.47,0,0,0,.328-1.008,10.8,10.8,0,0,0,.188-2.016q.047-1.477,0-2.32Zm.234-3.281q.656,0,1.312-.047v.844q-.7-.047-1.359-.047H-8.794q-.8,0-1.406.047V7.375q.609.047,1.406.047Zm-.7,1.406a3.078,3.078,0,0,0-.727.211q-.4.164-.727.3,1.406.422,2.109.656a2.984,2.984,0,0,0-.516.563q-.469-.187-1.031-.375t-1.359-.422a9.448,9.448,0,0,1-1.43.445q-.727.164-1.664.352a2.574,2.574,0,0,0-.422-.7,6.928,6.928,0,0,0,1.359-.141l1.406-.281q-.422-.141-.914-.328a8.422,8.422,0,0,0-1.1-.328,5.356,5.356,0,0,1,.469-.516q.609.188,1.125.375t1.172.422a4.566,4.566,0,0,0,.8-.352q.375-.211.75-.445Q-3.591,8.5-3.169,8.828ZM-5.559,6.016a11.04,11.04,0,0,0,.422,1.078,5.794,5.794,0,0,0-.891.281A5.415,5.415,0,0,0-6.45,6.344Q-5.981,6.156-5.559,6.016Zm7.087,2.3a8.343,8.343,0,0,0-.75-.375,9.14,9.14,0,0,0,.586-.844,7.324,7.324,0,0,0,.445-.844q.328.141.8.375a1.486,1.486,0,0,0-.422.563H3.4q0-.469-.047-1.125h.891Q4.2,6.719,4.2,7.188h.656q.656,0,1.359-.047v.7Q5.559,7.8,4.856,7.8H4.2v.7H5.466q.469,0,1.219-.047v.7q-.75-.047-1.219-.047H4.2v.609H6.45q-.094.609-.164,1.125a1.024,1.024,0,0,1-.281.68,2.6,2.6,0,0,1-.961.3,2.67,2.67,0,0,0-.281-.75,2.706,2.706,0,0,0,.68-.117q.164-.07.164-.633H4.2v2.063H3.4V10.328H2v1.594H1.153v-2.2H3.4V9.109H1.856q-.7,0-1.172.047v-.7q.609.047,1.172.047H3.4V7.8H1.856Q1.716,8.031,1.528,8.313Zm1.734,8.25a.7.7,0,0,0,.328-.609V15.2A23.2,23.2,0,0,1,.778,16.469a2.575,2.575,0,0,0-.609-.75q.75-.187,1.43-.422a15.308,15.308,0,0,0,1.523-.633A9.191,9.191,0,0,0,4.716,13.7H2.278Q1.2,13.7.638,13.75v-.8q.8.047,1.641.047H9.4q.75,0,1.594-.047v.8Q10.2,13.7,9.45,13.7H5.888a11.573,11.573,0,0,1-1.5,1.078v1.359q.656-.281,1.406-.609a5.629,5.629,0,0,0,.188.8,8.643,8.643,0,0,1-.867.352,13.67,13.67,0,0,0-1.43.633Q3.45,16.938,3.263,16.563ZM6.122,13.8a14.837,14.837,0,0,0,1.734,1.313A6.221,6.221,0,0,0,8.841,13.8q.375.234.844.516a9.015,9.015,0,0,0-1.172,1.219,8.394,8.394,0,0,0,2.766.7,2.613,2.613,0,0,0-.422.891,11.419,11.419,0,0,1-2.039-.586,7.243,7.243,0,0,1-1.57-.867q-.7-.516-1.687-1.406A3.725,3.725,0,0,0,6.122,13.8ZM10.2,6.438q-.047.563-.047,1.547v3.141a.8.8,0,0,1-.375.8,3.755,3.755,0,0,1-1.172.281,3.033,3.033,0,0,0-.328-.937,4.988,4.988,0,0,0,.867-.047q.211-.047.211-.469v-3q0-.656-.047-1.312Zm-1.969.891q-.047.656-.047,1.125V9.531q0,.656.047,1.219H7.341q.047-.609.047-1.219V8.5q0-.562-.047-1.172ZM5.747,12.906q-.141-.422-.328-.891.328-.141.75-.328a7.785,7.785,0,0,1,.422.891A3.657,3.657,0,0,0,5.747,12.906ZM22.022,6.672q-.047,1.031-.047,1.875,0,.8.047,1.594h-5.25q.047-.891.047-1.687t-.047-1.781ZM11.85,6.953q.8-.094,1.8-.3a7.9,7.9,0,0,0,1.711-.539,7.4,7.4,0,0,0,.656,1.031,2,2,0,0,0-.68.023q-.352.07-.773.117v2.3q.656,0,1.406-.047v.891q-.75-.047-1.406-.047V14.5q0,1.031.047,2.766h-.937q.047-1.734.047-2.719V12.391a21.551,21.551,0,0,1-1.453,2.484,4.831,4.831,0,0,0-.75-.844,8.034,8.034,0,0,0,1.172-1.5,10.094,10.094,0,0,0,.938-2.156q-1.172,0-1.734.047V9.531q.8.047,1.172.047h.656V7.469q-.609.141-1.547.281A6.075,6.075,0,0,0,11.85,6.953Zm8.813,4.359q.75,0,1.594-.047v.844q-.844-.047-1.594-.047h-.891v1.5h.516q.7,0,1.641-.047v.891q-.937-.047-1.5-.047h-.656V16H20.9q.844,0,1.781-.047v.891q-.75-.047-1.781-.047H17.756a14.6,14.6,0,0,0-1.781.094v-.937q.75.047,1.781.047h1.125V14.359h-.656a9.957,9.957,0,0,0-1.406.094v-.937q.656.047,1.406.047h.656v-1.5h-.75q-.844,0-1.594.047v-.844q.75.047,1.594.047ZM20.991,9.3V7.469H17.662V9.3Zm-5.578,2.2q.469.7.984,1.641-.281.188-.75.563a10.181,10.181,0,0,0-.937-1.687A8.331,8.331,0,0,1,15.412,11.5Z" transform="translate(-992 -5615)" fill="#4e443b"/>
    <path data-idr="Path_3434" data-name="Path 3434" d="M-4.211-3.819a7.336,7.336,0,0,0,.22,2.054.887.887,0,0,0,.9.712.874.874,0,0,0,.894-.712,7.6,7.6,0,0,0,.212-2.054A7.517,7.517,0,0,0-2.194-5.9a.867.867,0,0,0-.894-.677.879.879,0,0,0-.9.677A7.254,7.254,0,0,0-4.211-3.819Zm1.123-4.023A2.2,2.2,0,0,1-1-6.794,6.061,6.061,0,0,1-.4-3.819,6.028,6.028,0,0,1-1-.849,2.2,2.2,0,0,1-3.088.193,2.2,2.2,0,0,1-5.175-.849a6.028,6.028,0,0,1-.6-2.97,6.061,6.061,0,0,1,.6-2.976A2.2,2.2,0,0,1-3.088-7.842Zm4.9,5.758a1.479,1.479,0,0,0,.348.771.985.985,0,0,0,.75.271,1.011,1.011,0,0,0,.865-.4,1.642,1.642,0,0,0,.3-1.007A1.753,1.753,0,0,0,3.8-3.456a.975.975,0,0,0-.868-.411,1.49,1.49,0,0,0-.482.07.959.959,0,0,0-.541.478L.534-3.384l.547-4.3H5.366v1.3H2.185l-.279,1.7a3.194,3.194,0,0,1,.552-.306,2.336,2.336,0,0,1,.81-.124,2.431,2.431,0,0,1,1.684.65,2.419,2.419,0,0,1,.719,1.891A2.968,2.968,0,0,1,4.98-.645,2.516,2.516,0,0,1,2.909.2a2.749,2.749,0,0,1-1.824-.6A2.317,2.317,0,0,1,.29-2.084Z" transform="translate(-992 -5669.623)" fill="#4e443b"/>
    <path data-idr="Path_3436" data-name="Path 3436" d="M-17.194-9.8a8.443,8.443,0,0,1,.75,1.313h2.672q.937,0,1.875-.047v.844q-.938-.047-1.875-.047h-5.391a13.183,13.183,0,0,1,1.078,1.219,3.481,3.481,0,0,0-.7.422h2.531q.281-.75.563-1.594a7.391,7.391,0,0,0,1.078.328,7.911,7.911,0,0,0-.75,1.266h2.625q-.047.563-.047,1.547V.094a.813.813,0,0,1-.516.8,5.6,5.6,0,0,1-1.406.375A2.069,2.069,0,0,0-15.084.234,2.638,2.638,0,0,0-13.912.141a.5.5,0,0,0,.234-.469V-5.437h-6.844V1.125h-.937q.047-1.219.047-1.734V-4.641q0-.469-.047-1.453h2.578a4.538,4.538,0,0,0-1.078-1.172,3.446,3.446,0,0,0,.7-.469h-1.078q-1.078,0-1.875.047v-.844q.8.047,1.828.047h2.906a2.645,2.645,0,0,0-.609-.984A7.49,7.49,0,0,0-17.194-9.8Zm-1.031,4.828a10.218,10.218,0,0,0,.891.563,5.566,5.566,0,0,0-1.359,1.266h3.563q-.047.609-.047,1.313t.047,1.406h-3.656q.047-.7.047-1.359,0-.7-.047-1.266-.328.281-.656.516a1.535,1.535,0,0,0-.7-.516A7.789,7.789,0,0,0-18.225-4.969Zm2.156,3.844V-2.437H-17.9v1.313Zm.047-3.891a17.725,17.725,0,0,1,2.109,1.547,2.207,2.207,0,0,0-.7.609,9.835,9.835,0,0,0-1.969-1.547A2.113,2.113,0,0,0-16.022-5.016ZM-2.512-9.141q-.047.844-.047,1.922,0,1.031.047,1.828H-8.934a16.291,16.291,0,0,0,.094-1.875,16.291,16.291,0,0,0-.094-1.875ZM-.731-4.312q-.047.844-.047,2.578,0,1.688.047,2.391h-.891V0H-4.294V.8h-.891q.047-.8.047-2.531t-.047-2.578ZM-7.2.75V0H-9.731V.8h-.891q.047-.8.047-2.531,0-1.781-.047-2.578h4.313A20.535,20.535,0,0,0-6.4-2.062q0,1.406.094,2.813Zm3.8-6.937V-8.344H-8v2.156ZM-1.622-.844V-3.469H-4.294V-.844Zm-5.578,0V-3.469H-9.731V-.844ZM4.059-4.875A9.163,9.163,0,0,0,5.7-2.156,8.471,8.471,0,0,0,7.622-5.109a9.883,9.883,0,0,0,.938.609,20.708,20.708,0,0,1-2.2,2.953,8.861,8.861,0,0,0,4.594,1.5,3.248,3.248,0,0,0-.562,1.078A10.507,10.507,0,0,1,5.606-.984,12.345,12.345,0,0,1,.919,1.125,2.673,2.673,0,0,0,.4.094,8.41,8.41,0,0,0,4.9-1.594,10.837,10.837,0,0,1,3.169-4.406,4.6,4.6,0,0,0,4.059-4.875ZM2.044-6.984q-.7,0-1.359.047v-.937L2-7.781H9.309l1.547-.094v.984L9.309-6.984Zm2.391.8q-.656.609-2.812,2.438A2.926,2.926,0,0,0,.731-4.5,7.008,7.008,0,0,0,2.348-5.672a9.876,9.876,0,0,0,1.1-1.219Q3.919-6.562,4.434-6.187Zm3.375-.7q.234.188,1.078.82t1.641,1.2a5.559,5.559,0,0,0-.891.8A14.883,14.883,0,0,0,7.013-6.187,8.543,8.543,0,0,1,7.809-6.891ZM5.794-9.937q.469,1.078.7,1.734-.656.188-1.125.328-.281-.8-.7-1.734Q5.231-9.8,5.794-9.937ZM13.35-.984Q13.4-1.547,13.4-3T13.35-5.25h7.594q-.047.516-.047,2.109t.047,2.156ZM18.366-9.75a7.325,7.325,0,0,0-.141,1.594,9.192,9.192,0,0,0,1.125-.492,4.842,4.842,0,0,0,1.266-.914,3.553,3.553,0,0,0,.984.75,10.481,10.481,0,0,0-1.477.633,18.031,18.031,0,0,1-1.9.82v.7q0,.516.516.469h2.016q.516,0,.656-.234a2.67,2.67,0,0,0,.234-.891,2.227,2.227,0,0,0,.984.469q-.422,1.078-.773,1.2a2.145,2.145,0,0,1-.68.117H18.366q-1.031,0-1.031-.609v-.937q-.891.328-1.5.563-.281-.422-.516-.8.75-.141,2.016-.516,0-1.266-.047-1.922Zm-2.531.375A7.024,7.024,0,0,0,14.8-8.3v1.828q0,.328.047.938H13.819q.047-.609.047-.937v-.937a12.2,12.2,0,0,1-1.453,1.313,4.613,4.613,0,0,0-.656-.7,8.3,8.3,0,0,0,1.781-1.336,4.993,4.993,0,0,0,1.219-1.8A3.145,3.145,0,0,0,15.834-9.375ZM14.287-4.594v.609h5.719v-.609Zm0,1.219v.563h5.719v-.562Zm0,1.172v.563h5.719V-2.2ZM15.975-.047q-1.922.844-3,1.359a2.612,2.612,0,0,0-.516-.844,8.658,8.658,0,0,0,1.664-.633,8.7,8.7,0,0,0,1.289-.727A2.214,2.214,0,0,0,15.975-.047Zm2.813-.844q.75.375,1.477.727a9.938,9.938,0,0,1,1.148.633,8,8,0,0,0-.562.8q-.609-.375-1.172-.68t-1.359-.68A5.977,5.977,0,0,0,18.787-.891Z" transform="translate(-924 -5607)" fill="#4e443b"/>
    <path data-idr="Path_3435" data-name="Path 3435" d="M-4.211-3.819a7.336,7.336,0,0,0,.22,2.054.887.887,0,0,0,.9.712.874.874,0,0,0,.894-.712,7.6,7.6,0,0,0,.212-2.054A7.517,7.517,0,0,0-2.194-5.9a.867.867,0,0,0-.894-.677.879.879,0,0,0-.9.677A7.254,7.254,0,0,0-4.211-3.819Zm1.123-4.023A2.2,2.2,0,0,1-1-6.794,6.061,6.061,0,0,1-.4-3.819,6.028,6.028,0,0,1-1-.849,2.2,2.2,0,0,1-3.088.193,2.2,2.2,0,0,1-5.175-.849a6.028,6.028,0,0,1-.6-2.97,6.061,6.061,0,0,1,.6-2.976A2.2,2.2,0,0,1-3.088-7.842ZM1.88-2.465a1.527,1.527,0,0,0,.338,1.026,1.079,1.079,0,0,0,.859.4.954.954,0,0,0,.8-.384,1.6,1.6,0,0,0,.293-1A1.491,1.491,0,0,0,3.84-3.467a1.066,1.066,0,0,0-.816-.363,1.09,1.09,0,0,0-.693.236A1.338,1.338,0,0,0,1.88-2.465ZM4.034-5.828a.781.781,0,0,0-.145-.414.841.841,0,0,0-.747-.365,1.1,1.1,0,0,0-1.063.838A5.2,5.2,0,0,0,1.842-4.4,1.718,1.718,0,0,1,2.5-4.9a2.229,2.229,0,0,1,.859-.156,2.233,2.233,0,0,1,1.7.7,2.518,2.518,0,0,1,.663,1.8,3.037,3.037,0,0,1-.65,1.923A2.4,2.4,0,0,1,3.056.2a2.324,2.324,0,0,1-2.17-1.23A5.015,5.015,0,0,1,.344-3.507a11.284,11.284,0,0,1,.075-1.45A4.435,4.435,0,0,1,.94-6.612a2.666,2.666,0,0,1,.873-.908A2.354,2.354,0,0,1,3.1-7.863a2.557,2.557,0,0,1,1.729.556,2.114,2.114,0,0,1,.725,1.48Z" transform="translate(-924 -5669.623)" fill="#4e443b"/>
    <rect data-idr="Rectangle_131" data-name="Rectangle 131" width="151.963" height="20.292" transform="translate(-1365 -5590)" fill="#f6f4e8"/>
    <path data-idr="Path_3442" data-name="Path 3442" d="M-12.8-9.375a2.873,2.873,0,0,0-.422.727q-.187.445-.469,1.055h3.844q-.047.938-.07,2.109t-.07,2.859a18.089,18.089,0,0,1-.187,2.461,1.066,1.066,0,0,1-.844.938q-.7.164-1.594.3a4.878,4.878,0,0,0-.281-1.266,2.976,2.976,0,0,0,1.617-.07q.258-.211.3-1.289t.094-2.508q.047-1.43.047-2.836h-3.094q-.422.984-1.078,2.3a4.353,4.353,0,0,0-.937-.516,8.656,8.656,0,0,0,1.289-2.367,16.7,16.7,0,0,0,.727-2.32Q-13.359-9.562-12.8-9.375Zm-3.375,6.469q-1.172.188-1.992.328a16.865,16.865,0,0,0-1.664.375,7.821,7.821,0,0,0-.375-.984,1.828,1.828,0,0,0,.984-.586,14.61,14.61,0,0,0,1.359-1.852q-.562.047-1.008.094a5.708,5.708,0,0,0-1.055.234q-.187-.469-.422-.937.422-.094.984-1.125a12.231,12.231,0,0,0,.984-2.531,9.4,9.4,0,0,0,1.125.422,8.073,8.073,0,0,0-.82,1.406,16.846,16.846,0,0,1-1.008,1.781,14.465,14.465,0,0,0,1.594-.094,14.136,14.136,0,0,0,1.031-1.969,2.718,2.718,0,0,0,.984.516q-.422.563-1.266,1.922a25.153,25.153,0,0,1-1.875,2.625q.844-.094,2.2-.281-.234-.375-.422-.7a4.984,4.984,0,0,0,.844-.375q.469.938.938,2.156-.469.188-.844.375A7.588,7.588,0,0,1-16.172-2.906Zm3-2.344q.7,1.313,1.266,2.625A7.785,7.785,0,0,0-12.8-2.2a10.281,10.281,0,0,0-1.266-2.625A3.318,3.318,0,0,0-13.172-5.25Zm-7.453,6a12.427,12.427,0,0,0,.75-2.437q.516.094,1.031.141A7.453,7.453,0,0,0-19.2-.539,13.031,13.031,0,0,1-19.734.938,4.1,4.1,0,0,0-20.625.75Zm3.141-2.531q.328,1.219.609,2.3A5.345,5.345,0,0,0-17.812.8a9.191,9.191,0,0,0-.562-2.344A4,4,0,0,0-17.484-1.781Zm1.734-.141q.422,1.078.8,2.25-.516.141-.891.281a9.569,9.569,0,0,0-.75-2.2A4.209,4.209,0,0,0-15.75-1.922ZM-8.437-.469a1.868,1.868,0,0,1,.656-1.266A15.638,15.638,0,0,0-6.234-3.492,9.465,9.465,0,0,0-5.016-5.344,2.121,2.121,0,0,0-4.8-6.469a1.2,1.2,0,0,0-.445-.773A1.151,1.151,0,0,0-6.117-7.5a1.863,1.863,0,0,0-.937.375,2.025,2.025,0,0,0-.68.984l-.891-.141a3.512,3.512,0,0,1,.961-1.57,2.3,2.3,0,0,1,1.383-.539,2.981,2.981,0,0,1,.844.023,2.173,2.173,0,0,1,.773.328,1.907,1.907,0,0,1,.656.773A2.253,2.253,0,0,1-3.82-6.023a4.082,4.082,0,0,1-.727,1.734A33.608,33.608,0,0,1-7.078-1.125H-3.7v.844H-8.437ZM2.578-3.984H-2.766v-.75H2.578ZM3.469-2.3l.844-.141A2.277,2.277,0,0,0,4.922-1.43a1.4,1.4,0,0,0,1.055.375A1.265,1.265,0,0,0,6.984-1.57,1.6,1.6,0,0,0,7.313-2.7,1.315,1.315,0,0,0,6.82-3.68a3.033,3.033,0,0,0-1.43-.492v-.609A2.373,2.373,0,0,0,6.82-5.3a1.314,1.314,0,0,0,.4-1.1,1.133,1.133,0,0,0-.609-.984,1.389,1.389,0,0,0-1.2-.07A1.954,1.954,0,0,0,4.406-6.141l-.844-.141a4.052,4.052,0,0,1,.773-1.406,1.994,1.994,0,0,1,1.336-.656,2.668,2.668,0,0,1,1.477.211,1.741,1.741,0,0,1,.891.938,2.181,2.181,0,0,1,.07,1.383A2.245,2.245,0,0,1,7.031-4.5a2.151,2.151,0,0,1,1.008.844A2.2,2.2,0,0,1,8.273-2.18,2.174,2.174,0,0,1,7.453-.7a2.378,2.378,0,0,1-1.594.539A2.469,2.469,0,0,1,4.313-.727,2.533,2.533,0,0,1,3.469-2.3ZM17.391-9.187q.844,0,1.688-.047v.984Q18.234-8.3,17.391-8.3H15.469v2.531h3q.891,0,1.594-.047v.984q-.656-.047-1.547-.047H15.609a8.631,8.631,0,0,0,1.875,3.047A6.327,6.327,0,0,0,20.625-.094a2.261,2.261,0,0,0-.8.938A7.909,7.909,0,0,1,17.156-.773a9.013,9.013,0,0,1-2.109-3.164,6.7,6.7,0,0,1-1.781,3.07,10.524,10.524,0,0,1-3.047,1.945,2.088,2.088,0,0,0-.8-.891,8.2,8.2,0,0,0,2.859-1.57,6.394,6.394,0,0,0,2.109-3.492H11.813q-1.031,0-1.734.047v-.984q.75.047,1.734.047h2.719V-8.3H12.563q-.984,0-1.687.047v-.984q.75.047,1.688.047Z" transform="translate(-1289 -5576)" fill="#4e443b"/>
    <path data-idr="Path_3384" data-name="Path 3384" d="M0,0H176V20.292H0Z" transform="translate(-1211 -5590)" fill="#f6f4e8"/>
    <path data-idr="Path_3443" data-name="Path 3443" d="M-18.8-9.375a2.873,2.873,0,0,0-.422.727q-.187.445-.469,1.055h3.844q-.047.938-.07,2.109t-.07,2.859a18.089,18.089,0,0,1-.187,2.461,1.066,1.066,0,0,1-.844.938q-.7.164-1.594.3a4.878,4.878,0,0,0-.281-1.266,2.976,2.976,0,0,0,1.617-.07q.258-.211.3-1.289t.094-2.508q.047-1.43.047-2.836h-3.094q-.422.984-1.078,2.3a4.352,4.352,0,0,0-.937-.516,8.656,8.656,0,0,0,1.289-2.367,16.7,16.7,0,0,0,.727-2.32Q-19.359-9.562-18.8-9.375Zm-3.375,6.469q-1.172.188-1.992.328a16.865,16.865,0,0,0-1.664.375,7.821,7.821,0,0,0-.375-.984,1.828,1.828,0,0,0,.984-.586,14.61,14.61,0,0,0,1.359-1.852q-.562.047-1.008.094a5.708,5.708,0,0,0-1.055.234q-.187-.469-.422-.937.422-.094.984-1.125a12.231,12.231,0,0,0,.984-2.531,9.4,9.4,0,0,0,1.125.422,8.073,8.073,0,0,0-.82,1.406,16.846,16.846,0,0,1-1.008,1.781,14.465,14.465,0,0,0,1.594-.094,14.136,14.136,0,0,0,1.031-1.969,2.718,2.718,0,0,0,.984.516q-.422.563-1.266,1.922a25.153,25.153,0,0,1-1.875,2.625q.844-.094,2.2-.281-.234-.375-.422-.7a4.984,4.984,0,0,0,.844-.375q.469.938.938,2.156-.469.188-.844.375A7.588,7.588,0,0,1-22.172-2.906Zm3-2.344q.7,1.313,1.266,2.625A7.785,7.785,0,0,0-18.8-2.2a10.281,10.281,0,0,0-1.266-2.625A3.318,3.318,0,0,0-19.172-5.25Zm-7.453,6a12.427,12.427,0,0,0,.75-2.437q.516.094,1.031.141A7.453,7.453,0,0,0-25.2-.539,13.031,13.031,0,0,1-25.734.938,4.1,4.1,0,0,0-26.625.75Zm3.141-2.531q.328,1.219.609,2.3A5.345,5.345,0,0,0-23.812.8a9.191,9.191,0,0,0-.562-2.344A4,4,0,0,0-23.484-1.781Zm1.734-.141q.422,1.078.8,2.25-.516.141-.891.281a9.569,9.569,0,0,0-.75-2.2A4.209,4.209,0,0,0-21.75-1.922Zm9.375-4.828a8,8,0,0,1-1.547,1.172v-.891A7.328,7.328,0,0,0-12-8.344h.563V-.281h-.937Zm8.953,2.766H-8.766v-.75h5.344Zm.984,3.516a1.868,1.868,0,0,1,.656-1.266A15.638,15.638,0,0,0-.234-3.492,9.465,9.465,0,0,0,.984-5.344,2.121,2.121,0,0,0,1.2-6.469,1.2,1.2,0,0,0,.75-7.242,1.151,1.151,0,0,0-.117-7.5a1.863,1.863,0,0,0-.937.375,2.025,2.025,0,0,0-.68.984l-.891-.141a3.512,3.512,0,0,1,.961-1.57A2.3,2.3,0,0,1-.281-8.391a2.981,2.981,0,0,1,.844.023,2.173,2.173,0,0,1,.773.328,1.907,1.907,0,0,1,.656.773A2.253,2.253,0,0,1,2.18-6.023a4.082,4.082,0,0,1-.727,1.734A33.608,33.608,0,0,1-1.078-1.125H2.3v.844H-2.437Zm16.5-8.719q-.047,1.078-.047,2.156v6q0,1.031.047,2.063h-.891V.516H8.344v.609H7.453Q7.5.047,7.5-.984V-7.031q0-1.078-.047-2.156ZM13.172-.234v-8.2H8.344v8.2Zm-.516-5.578q-.375-.047-1.5-.047V-4.5h1.172v3.141H9.141V-4.5h1.219V-5.859q-1.219,0-1.641.047v-.8q.422.047,1.641.047a12.31,12.31,0,0,0-.047-1.312H11.2a10.777,10.777,0,0,0-.047,1.313q.984,0,1.5-.047Zm-7.5,6.938Q5.2.7,5.25-.891V-5.484a15.667,15.667,0,0,1-.937,1.547q-.375-.328-.8-.656A10.223,10.223,0,0,0,4.734-6.562,9.871,9.871,0,0,0,5.813-9.75a7.817,7.817,0,0,0,1.125.375,18.717,18.717,0,0,0-.844,2.2V-.891a12.62,12.62,0,0,0,.094,2.016Zm6.375-3.187V-3.8H9.891v1.734ZM24.844-9.047q-.094,1.125-.094,2.016V-.375q0,.891-.469,1.078a7.12,7.12,0,0,1-1.828.281,2.876,2.876,0,0,0-.422-1.078,10.38,10.38,0,0,0,1.43,0q.4-.047.4-.656V-3H18.469a8.705,8.705,0,0,1-.75,2.578,5.156,5.156,0,0,1-1.031,1.5A2.212,2.212,0,0,0,15.75.609a4.935,4.935,0,0,0,1.2-1.57,5.866,5.866,0,0,0,.563-1.8,15.164,15.164,0,0,0,.117-1.969V-6.8q0-1.031-.047-2.25Zm-.984,2.672V-8.344H18.516v1.969Zm0,2.625V-5.672H18.516V-3.75Z" transform="translate(-1123 -5576)" fill="#4e443b"/>
    <path data-idr="Path_3383" data-name="Path 3383" d="M10,0H144.443V20.292H10Z" transform="translate(-1043 -5590)" fill="#f6f4e8"/>
    <path data-idr="Path_3444" data-name="Path 3444" d="M-18.8-9.375a2.873,2.873,0,0,0-.422.727q-.187.445-.469,1.055h3.844q-.047.938-.07,2.109t-.07,2.859a18.089,18.089,0,0,1-.187,2.461,1.066,1.066,0,0,1-.844.938q-.7.164-1.594.3a4.878,4.878,0,0,0-.281-1.266,2.976,2.976,0,0,0,1.617-.07q.258-.211.3-1.289t.094-2.508q.047-1.43.047-2.836h-3.094q-.422.984-1.078,2.3a4.352,4.352,0,0,0-.937-.516,8.656,8.656,0,0,0,1.289-2.367,16.7,16.7,0,0,0,.727-2.32Q-19.359-9.562-18.8-9.375Zm-3.375,6.469q-1.172.188-1.992.328a16.865,16.865,0,0,0-1.664.375,7.821,7.821,0,0,0-.375-.984,1.828,1.828,0,0,0,.984-.586,14.61,14.61,0,0,0,1.359-1.852q-.562.047-1.008.094a5.708,5.708,0,0,0-1.055.234q-.187-.469-.422-.937.422-.094.984-1.125a12.231,12.231,0,0,0,.984-2.531,9.4,9.4,0,0,0,1.125.422,8.073,8.073,0,0,0-.82,1.406,16.846,16.846,0,0,1-1.008,1.781,14.465,14.465,0,0,0,1.594-.094,14.136,14.136,0,0,0,1.031-1.969,2.718,2.718,0,0,0,.984.516q-.422.563-1.266,1.922a25.153,25.153,0,0,1-1.875,2.625q.844-.094,2.2-.281-.234-.375-.422-.7a4.984,4.984,0,0,0,.844-.375q.469.938.938,2.156-.469.188-.844.375A7.588,7.588,0,0,1-22.172-2.906Zm3-2.344q.7,1.313,1.266,2.625A7.785,7.785,0,0,0-18.8-2.2a10.281,10.281,0,0,0-1.266-2.625A3.318,3.318,0,0,0-19.172-5.25Zm-7.453,6a12.427,12.427,0,0,0,.75-2.437q.516.094,1.031.141A7.453,7.453,0,0,0-25.2-.539,13.031,13.031,0,0,1-25.734.938,4.1,4.1,0,0,0-26.625.75Zm3.141-2.531q.328,1.219.609,2.3A5.345,5.345,0,0,0-23.812.8a9.191,9.191,0,0,0-.562-2.344A4,4,0,0,0-23.484-1.781Zm1.734-.141q.422,1.078.8,2.25-.516.141-.891.281a9.569,9.569,0,0,0-.75-2.2A4.209,4.209,0,0,0-21.75-1.922Zm7.219-.375.844-.141a2.277,2.277,0,0,0,.609,1.008,1.4,1.4,0,0,0,1.055.375,1.265,1.265,0,0,0,1.008-.516A1.6,1.6,0,0,0-10.687-2.7a1.315,1.315,0,0,0-.492-.984,3.033,3.033,0,0,0-1.43-.492v-.609A2.373,2.373,0,0,0-11.18-5.3a1.314,1.314,0,0,0,.4-1.1,1.133,1.133,0,0,0-.609-.984,1.389,1.389,0,0,0-1.2-.07,1.954,1.954,0,0,0-1.008,1.313l-.844-.141a4.052,4.052,0,0,1,.773-1.406,1.994,1.994,0,0,1,1.336-.656,2.668,2.668,0,0,1,1.477.211,1.741,1.741,0,0,1,.891.938,2.181,2.181,0,0,1,.07,1.383A2.245,2.245,0,0,1-10.969-4.5a2.151,2.151,0,0,1,1.008.844A2.2,2.2,0,0,1-9.727-2.18,2.174,2.174,0,0,1-10.547-.7a2.378,2.378,0,0,1-1.594.539,2.469,2.469,0,0,1-1.547-.562A2.533,2.533,0,0,1-14.531-2.3ZM-3.422-3.984H-8.766v-.75h5.344ZM.75-2.062H-2.859v-.8l3.8-5.484h.7v5.484H2.766v.8H1.641V-.281H.75Zm0-.8v-3.7l-2.625,3.7ZM14.063-9.187q-.047,1.078-.047,2.156v6q0,1.031.047,2.063h-.891V.516H8.344v.609H7.453Q7.5.047,7.5-.984V-7.031q0-1.078-.047-2.156ZM13.172-.234v-8.2H8.344v8.2Zm-.516-5.578q-.375-.047-1.5-.047V-4.5h1.172v3.141H9.141V-4.5h1.219V-5.859q-1.219,0-1.641.047v-.8q.422.047,1.641.047a12.31,12.31,0,0,0-.047-1.312H11.2a10.777,10.777,0,0,0-.047,1.313q.984,0,1.5-.047Zm-7.5,6.938Q5.2.7,5.25-.891V-5.484a15.667,15.667,0,0,1-.937,1.547q-.375-.328-.8-.656A10.223,10.223,0,0,0,4.734-6.562,9.871,9.871,0,0,0,5.813-9.75a7.817,7.817,0,0,0,1.125.375,18.717,18.717,0,0,0-.844,2.2V-.891a12.62,12.62,0,0,0,.094,2.016Zm6.375-3.187V-3.8H9.891v1.734ZM24.844-9.047q-.094,1.125-.094,2.016V-.375q0,.891-.469,1.078a7.12,7.12,0,0,1-1.828.281,2.876,2.876,0,0,0-.422-1.078,10.38,10.38,0,0,0,1.43,0q.4-.047.4-.656V-3H18.469a8.705,8.705,0,0,1-.75,2.578,5.156,5.156,0,0,1-1.031,1.5A2.212,2.212,0,0,0,15.75.609a4.935,4.935,0,0,0,1.2-1.57,5.866,5.866,0,0,0,.563-1.8,15.164,15.164,0,0,0,.117-1.969V-6.8q0-1.031-.047-2.25Zm-.984,2.672V-8.344H18.516v1.969Zm0,2.625V-5.672H18.516V-3.75Z" transform="translate(-966 -5576)" fill="#4e443b"/>
    <path data-idr="Icon_awesome-user-tie" data-name="Icon awesome-user-tie" d="M10.1,11.546A5.773,5.773,0,1,0,4.33,5.773,5.772,5.772,0,0,0,10.1,11.546Zm4.321,1.47-2.156,8.632-1.443-6.134,1.443-2.526H7.938l1.443,2.526L7.938,21.648,5.782,13.016A6.051,6.051,0,0,0,0,19.05v1.876a2.165,2.165,0,0,0,2.165,2.165H18.04A2.165,2.165,0,0,0,20.2,20.926V19.05a6.051,6.051,0,0,0-5.782-6.034Z" transform="translate(-1256 -5659)" fill="#9a2327"/>
    <path data-idr="Icon_awesome-clipboard-list" data-name="Icon awesome-clipboard-list" d="M15.154,2.886H11.546a2.886,2.886,0,1,0-5.773,0H2.165A2.165,2.165,0,0,0,0,5.051V20.926a2.165,2.165,0,0,0,2.165,2.165H15.154a2.165,2.165,0,0,0,2.165-2.165V5.051A2.165,2.165,0,0,0,15.154,2.886ZM4.33,19.122A1.082,1.082,0,1,1,5.412,18.04,1.08,1.08,0,0,1,4.33,19.122Zm0-4.33A1.082,1.082,0,1,1,5.412,13.71,1.08,1.08,0,0,1,4.33,14.793Zm0-4.33A1.082,1.082,0,1,1,5.412,9.381,1.08,1.08,0,0,1,4.33,10.463ZM8.659,1.8A1.082,1.082,0,1,1,7.577,2.886,1.08,1.08,0,0,1,8.659,1.8Zm5.773,16.6a.362.362,0,0,1-.361.361H7.577a.362.362,0,0,1-.361-.361v-.722a.362.362,0,0,1,.361-.361h6.494a.362.362,0,0,1,.361.361Zm0-4.33a.362.362,0,0,1-.361.361H7.577a.362.362,0,0,1-.361-.361V13.35a.362.362,0,0,1,.361-.361h6.494a.362.362,0,0,1,.361.361Zm0-4.33a.362.362,0,0,1-.361.361H7.577a.362.362,0,0,1-.361-.361V9.02a.362.362,0,0,1,.361-.361h6.494a.362.362,0,0,1,.361.361Z" transform="translate(-1162 -5659)" fill="#9a2327"/>
    <g data-idr="Group_307" data-name="Group 307" transform="translate(37.478 201.533)">
      <path data-idr="Path_3359" data-name="Path 3359" d="M71.909,0H82.783a.815.815,0,0,1,.809.809V10.858a.815.815,0,0,1-.809.809H71.909a.815.815,0,0,1-.809-.809V.809A.815.815,0,0,1,71.909,0Z" transform="translate(-1033.719 -5857.533)" fill="#9a2327"/>
      <path data-idr="Path_3360" data-name="Path 3360" d="M9.606,26.887V18.564a.756.756,0,0,0-.764-.764H4.337a.775.775,0,0,0-.6.29L0,22.7v6.124a.756.756,0,0,0,.764.764H3.146a2.718,2.718,0,0,1,2.169-1.1,2.676,2.676,0,0,1,2.169,1.1H16.31a2.718,2.718,0,0,1,2.169-1.1,2.676,2.676,0,0,1,2.169,1.1h1.97a.743.743,0,0,0,.733-.733v-.473a.724.724,0,0,0-.733-.733H10.369a.766.766,0,0,1-.764-.764Zm-2.779-2.81H2.841a.886.886,0,0,1-.886-.886v-.229a.977.977,0,0,1,.2-.565l2.107-2.611a.883.883,0,0,1,.687-.336H6.811a.886.886,0,0,1,.886.886v2.841a.868.868,0,0,1-.87.9Z" transform="translate(-973.478 -5872.615)" fill="#9a2327"/>
      <circle data-idr="Ellipse_15" data-name="Ellipse 15" cx="1.909" cy="1.909" r="1.909" transform="translate(-970.102 -5843.315)" fill="#9a2327"/>
      <circle data-idr="Ellipse_16" data-name="Ellipse 16" cx="1.909" cy="1.909" r="1.909" transform="translate(-956.893 -5843.315)" fill="#9a2327"/>
    </g>
    <g data-idr="Group_306" data-name="Group 306" transform="translate(41.435 201.432)">
      <path data-idr="Path_3361" data-name="Path 3361" d="M55.647,2.484,51.383,0,42.068,5.427l4.263,2.484Z" transform="translate(-1157.714 -5860.432)" fill="#9a2327"/>
      <path data-idr="Path_3362" data-name="Path 3362" d="M161.763,64.3l-9.315,5.427,3.475,2.025,9.315-5.427Z" transform="translate(-1262.254 -5921.335)" fill="#9a2327"/>
      <path data-idr="Path_3363" data-name="Path 3363" d="M233.131,134.034v10.854l9.31-5.424V128.61Z" transform="translate(-1338.669 -5982.238)" fill="#9a2327"/>
      <path data-idr="Path_3364" data-name="Path 3364" d="M27.169,139.464l9.31,5.424V134.034l-9.31-5.424Z" transform="translate(-1143.604 -5982.238)" fill="#9a2327"/>
    </g>
    <path data-idr="Subtraction_2" data-name="Subtraction 2" d="M21.942,20.442H1.079A1.089,1.089,0,0,1,0,19.346V1.1A1.089,1.089,0,0,1,1.079,0H6.115A1.089,1.089,0,0,1,7.194,1.1v8.957l6.255-4.039a1.06,1.06,0,0,1,.576-.173,1.091,1.091,0,0,1,1.083,1.1v3.115l6.255-4.039a1.061,1.061,0,0,1,.576-.173,1.091,1.091,0,0,1,1.083,1.1V19.346A1.089,1.089,0,0,1,21.942,20.442Zm-6.835-7.357V16.33h3.2V13.085Zm-7.673,0V16.33h3.2V13.085Z" transform="translate(-1004 -5657)" fill="#9a2327"/>
    <path data-idr="Icon_zocial-email" data-name="Icon zocial-email" d="M.072,18.958V5.515q0-.023.07-.443L8.054,11.84.165,19.425a1.978,1.978,0,0,1-.093-.467Zm1.05-14.82a1.006,1.006,0,0,1,.4-.07H22.827a1.322,1.322,0,0,1,.42.07l-7.935,6.791-1.05.84-2.077,1.7-2.077-1.7-1.05-.84Zm.023,16.2L9.1,12.7l3.081,2.5,3.081-2.5,7.958,7.632a1.121,1.121,0,0,1-.4.07H1.519a1.057,1.057,0,0,1-.373-.07Zm15.17-8.5L24.2,5.072a1.393,1.393,0,0,1,.07.443V18.958a1.789,1.789,0,0,1-.07.467Z" transform="translate(-1336.072 -5659.068)" fill="#9a2327"/>
  </g>
</svg>
