<svg xmlns="http://www.w3.org/2000/svg" width="481.493" height="112.87" viewBox="0 0 481.493 112.87">
  <g data-idr="Group_324" data-name="Group 324" transform="translate(1365 5682.579)">
    <path data-idr="Path_3377" data-name="Path 3377" d="M0,0H66L81.493,44.992,66,90H0" transform="translate(-1365 -5682.579)" fill="#f6f4e8"/>
    <path data-idr="Path_3377-2" data-name="Path 3377" d="M0,0H86l15.493,44.992L86,90H0L15.369,45.088Z" transform="translate(-1297 -5682.579)" fill="#f6f4e8"/>
    <path data-idr="Path_3377-3" data-name="Path 3377" d="M0,0H96l15.493,44.992L96,90H0L15.369,45.088Z" transform="translate(-1209 -5682.579)" fill="#f6f4e8"/>
    <path data-idr="Path_3377-4" data-name="Path 3377" d="M10,0H86l15.493,44.992L86,90H10L25.369,45.088Z" transform="translate(-1121 -5682.579)" fill="#f6f4e8"/>
    <path data-idr="Path_3377-5" data-name="Path 3377" d="M10,0H76L91.493,44.992,76,90H10L25.369,45.088Z" transform="translate(-1043 -5682.579)" fill="#f6f4e8"/>
    <path data-idr="Path_3377-6" data-name="Path 3377" d="M10,0H76L91.493,44.992,76,90H10L25.369,45.088Z" transform="translate(-975 -5682.579)" fill="#f6f4e8"/>
    <path data-idr="Path_3385" data-name="Path 3385" d="M-28.068-9.588h-1.068a6.328,6.328,0,0,1,.06.852c0,.216-.012.744-.012,1.368-.336.024-.648.036-.924.036a11.1,11.1,0,0,1-1.536-.1l.024.912a13.181,13.181,0,0,0,1.536.06c.252,0,.552-.012.888-.036-.012.528-.012,1.092-.012,1.572v.684c-1.38.588-2.628,1.632-2.628,2.628,0,1.068,1.56,1.992,2.5,1.992.648,0,1.056-.36,1.056-1.476,0-.516-.024-1.584-.048-2.6a7.861,7.861,0,0,1,2.616-.468c1.14,0,2.064.552,2.064,1.572,0,1.1-.96,1.668-2.016,1.872a6.137,6.137,0,0,1-1.4.084l.336.972A9.1,9.1,0,0,0-25.152.168c1.644-.4,2.556-1.32,2.556-2.772s-1.26-2.388-3.012-2.388a9.075,9.075,0,0,0-2.64.444v-.42c0-.48.012-1.056.024-1.62a22.03,22.03,0,0,0,2.52-.42l-.024-.936a16.138,16.138,0,0,1-2.472.48c.012-.54.036-1.008.048-1.3A7.7,7.7,0,0,1-28.068-9.588Zm3.72,1.332-.432.72a15.222,15.222,0,0,1,2.688,1.8L-21.6-6.5A21.812,21.812,0,0,0-24.348-8.256Zm-6.456,6.6c0-.54.732-1.236,1.716-1.692.012.876.036,1.692.036,2.124,0,.4-.168.588-.444.588C-29.964-.636-30.8-1.1-30.8-1.656Zm13.2-7.152V-7.8h-2.58V-8.808Zm-2.58,2.76V-7.14h2.58v1.092Zm3.432.72v-4.2H-21.06V.924h.876V-5.328ZM-14.844-3.5v1.98h-2.82V-3.5Zm.828,2.736V-4.26H-18.48V-.048h.816v-.72Zm-.816-5.268v-1.1h2.664v1.1Zm2.664-2.784V-7.8h-2.664V-8.82Zm.9-.708h-4.416v4.2h3.516v5.04c0,.228-.072.3-.288.3-.24.012-1.02.024-1.8-.012a4.314,4.314,0,0,1,.312.912A7.855,7.855,0,0,0-11.8.756c.384-.156.528-.456.528-1.044Zm2.544,1.152L-9.888-8.4A5.413,5.413,0,0,1-9.8-7.332c0,.7.024,2.16.132,3.2C-9.348-1.02-8.256.108-7.116.108c.8,0,1.536-.7,2.256-2.736l-.756-.852c-.312,1.2-.876,2.448-1.488,2.448-.852,0-1.44-1.332-1.632-3.336-.084-1-.1-2.088-.084-2.844A9.137,9.137,0,0,1-8.724-8.376Zm6.252.336-.936.324A12.158,12.158,0,0,1-1.32-1.68l.96-.4A12.9,12.9,0,0,0-2.472-8.04ZM8.16-3.048V-.372H2.652V-3.048ZM1.776.924h.876V.432H8.16V.924h.912V-3.852h-7.3ZM2.4-6.144v.792H8.412v-.792Zm2.472-3.864A13.479,13.479,0,0,1-.156-5.592,3.244,3.244,0,0,1,.4-4.884a14.777,14.777,0,0,0,4.98-4.26,16.049,16.049,0,0,0,5.076,4.188,4.074,4.074,0,0,1,.588-.768,14.255,14.255,0,0,1-5.268-4.284ZM13.716-8.64c0,.132-.024.576-.06,1.14-.624.1-1.332.18-1.728.2-.288.012-.516.024-.78.012l.1,1C12-6.4,13.044-6.54,13.6-6.612c-.036.384-.06.78-.084,1.164-.6.948-1.98,2.82-2.652,3.66l.6.828c.576-.816,1.368-1.956,1.956-2.844,0,.192-.012.36-.012.48-.024,1.308-.024,1.92-.036,3.072a6.652,6.652,0,0,1-.036.708h1.044c-.024-.216-.048-.516-.06-.732-.06-1.068-.048-1.8-.048-2.892,0-.432.012-.912.036-1.416A5.594,5.594,0,0,1,18.06-6.3a2.194,2.194,0,0,1,2.316,2.136c.012,2.064-1.812,3.012-3.84,3.3l.444.9c2.616-.5,4.38-1.764,4.368-4.176A3.032,3.032,0,0,0,18.2-7.176a6.065,6.065,0,0,0-3.828,1.512c.012-.264.036-.528.06-.78.18-.3.384-.624.54-.84l-.36-.42c-.024.012-.036.012-.06.024.084-.84.18-1.512.24-1.812l-1.128-.036A5.735,5.735,0,0,1,13.716-8.64ZM29.88-9.252H28.86a6.787,6.787,0,0,1,.06.9v1.716c-1.284.108-2.676.24-3.852.348.012-.636.012-1.224.012-1.62,0-.372.024-.7.048-.972H24.084a7.288,7.288,0,0,1,.072,1.02c0,.2,0,.864-.012,1.668-.576.048-1.056.1-1.356.12A11.707,11.707,0,0,1,21.54-6l.108.984c.324-.048.84-.12,1.212-.168.312-.036.756-.084,1.284-.144,0,1.2,0,2.472.012,2.988C24.216-.432,24.48.2,27.252.2,28.464.2,29.928.1,30.732.012l.036-1.02A22.8,22.8,0,0,1,27.2-.72c-2.076,0-2.1-.456-2.136-1.752-.012-.468-.012-1.716,0-2.952,1.2-.12,2.6-.264,3.84-.36-.024.756-.072,1.572-.132,1.968-.036.276-.168.324-.456.324a6.209,6.209,0,0,1-1.2-.156L27.1-2.82a11.889,11.889,0,0,0,1.584.168c.552,0,.816-.156.924-.684a17.929,17.929,0,0,0,.168-2.508c.528-.036.984-.06,1.344-.072.3,0,.756-.012.948,0v-.936c-.288.012-.624.036-.936.06-.4.024-.852.048-1.332.084.012-.528.012-1.128.024-1.68C29.832-8.64,29.844-9.048,29.88-9.252Z" transform="translate(-1329 -5608)" fill="#4e443b"/>
    <path data-idr="Path_3394" data-name="Path 3394" d="M-4.211-3.819a7.336,7.336,0,0,0,.22,2.054.887.887,0,0,0,.9.712.874.874,0,0,0,.894-.712,7.6,7.6,0,0,0,.212-2.054A7.517,7.517,0,0,0-2.194-5.9a.867.867,0,0,0-.894-.677.879.879,0,0,0-.9.677A7.254,7.254,0,0,0-4.211-3.819Zm1.123-4.023A2.2,2.2,0,0,1-1-6.794,6.061,6.061,0,0,1-.4-3.819,6.028,6.028,0,0,1-1-.849,2.2,2.2,0,0,1-3.088.193,2.2,2.2,0,0,1-5.175-.849a6.028,6.028,0,0,1-.6-2.97,6.061,6.061,0,0,1,.6-2.976A2.2,2.2,0,0,1-3.088-7.842ZM.763-5.371V-6.413a6.751,6.751,0,0,0,1.013-.1,1.427,1.427,0,0,0,.75-.408,1.345,1.345,0,0,0,.3-.559,1.285,1.285,0,0,0,.059-.312H4.163V0H2.594V-5.371Z" transform="translate(-1324 -5669.623)" fill="#4e443b"/>
    <path data-idr="Path_3386" data-name="Path 3386" d="M-14.8-8.292v.972c.948.084,1.968.132,3.18.132,1.1,0,2.412-.084,3.228-.144v-.984a31.557,31.557,0,0,1-3.24.168A29.994,29.994,0,0,1-14.8-8.292Zm.48,4.836-.972-.1a6.773,6.773,0,0,0-.252,1.668c0,1.512,1.416,2.316,3.852,2.316A16.915,16.915,0,0,0-7.6.012L-7.608-1.02a15.108,15.108,0,0,1-4.1.468c-1.92,0-2.844-.624-2.844-1.548A4.255,4.255,0,0,1-14.316-3.456Zm6.264-6.18L-8.7-9.36a12.525,12.525,0,0,1,.984,1.68l.648-.3A18.813,18.813,0,0,0-8.052-9.636Zm1.32-.48-.636.276a11.018,11.018,0,0,1,1,1.656l.66-.288A17.489,17.489,0,0,0-6.732-10.116Zm8.8,7.332A4.281,4.281,0,0,1,.468-1.14c-.9-.216-1.848-.42-2.8-.6.24-.324.492-.684.744-1.044Zm-5.76-4.2h1.812v1.62H-3.7Zm2.664-1.74H.9v1.008H-1.032Zm4.776,1.74v1.62H1.752v-1.62Zm-4.776,1.62v-1.62H.9v1.62Zm6.456,2.58v-.744h-6.5c.24-.348.468-.7.672-1.02l-.324-.084H4.62V-7.716H1.752V-8.724H5.124v-.792H-5.124v.792h3.24v1.008H-4.536v3.084H-1.38c-.216.348-.468.72-.72,1.1H-5.412v.744h2.8c-.456.636-.9,1.26-1.272,1.728l.84.288.252-.324q1.1.216,2.16.468A16.557,16.557,0,0,1-5.244.132,2.337,2.337,0,0,1-4.908.9,14.748,14.748,0,0,0,.636-.312,32.364,32.364,0,0,1,4.512.936l.54-.72C4.128-.132,2.9-.516,1.536-.876A4.935,4.935,0,0,0,3.048-2.784ZM15.672-8.952l-.036.84H13.128c.024-.276.048-.552.06-.84Zm-2.76,2.3c.06-.264.108-.552.144-.84h2.556c-.024.312-.036.6-.06.84ZM15.492-6a1.915,1.915,0,0,1-.228.912.345.345,0,0,1-.36.144,10.763,10.763,0,0,1-1.08-.048,1.848,1.848,0,0,1,.2.708,10.622,10.622,0,0,0,1.248,0,.879.879,0,0,0,.7-.324c.3-.372.42-1.476.528-4.644.012-.12.012-.372.012-.372H12.4c-.06,2.328-.24,4.068-1.6,5.04A1.9,1.9,0,0,1,11.328-4a3.838,3.838,0,0,0,1.416-2ZM6.8-6.012c0,.936.252,1.272,1.236,1.272h2.04a4.257,4.257,0,0,0,.984-.072c-.024-.192-.072-.54-.084-.768a5.406,5.406,0,0,1-.912.072H8.028C7.7-5.508,7.62-5.64,7.62-6V-8.016h4.008v-.768H9.216v-1.248h-.84v1.248H5.9v.768h.9ZM11.832-.12V-1.164h3.552V-1.9H11.832V-2.928H15.96v-.756H6.924v.756h4.02V-1.9H7.44v.732h3.5V-.12H6.12V.636H16.692V-.12Zm-36.8,6.892h-1.116a5.844,5.844,0,0,1,.072.972v6.6c0,.972.516,1.392,1.428,1.56a12.779,12.779,0,0,0,1.932.12,33.551,33.551,0,0,0,4.152-.252V14.68a19.72,19.72,0,0,1-4.1.384,11.594,11.594,0,0,1-1.6-.1c-.576-.12-.84-.276-.84-.888V11.44A48.519,48.519,0,0,0-20,9.832c.36-.132.792-.324,1.14-.468l-.42-.972a8.068,8.068,0,0,1-1.056.552,33.725,33.725,0,0,1-4.7,1.512V7.744A7.843,7.843,0,0,1-24.972,6.772ZM-6.228,7.888l-.588-.564a5.926,5.926,0,0,1-.84.072h-6.888a10.183,10.183,0,0,1-1.368-.108V8.38a13.409,13.409,0,0,1,1.368-.072H-7.7A8.152,8.152,0,0,1-10.332,11l.792.636A11.57,11.57,0,0,0-6.552,8.32C-6.468,8.188-6.312,8.008-6.228,7.888Zm-4.788,1.584H-12.1a7.214,7.214,0,0,1,.048.864c0,2-.264,3.708-2.124,4.848a4.133,4.133,0,0,1-1.08.54l.888.72C-11.3,14.92-11.016,12.724-11.016,9.472ZM3.312,6.892H2.184a8.609,8.609,0,0,1,.06,1.044v1.9c0,2.268-.144,3.24-1,4.236a5.5,5.5,0,0,1-2.868,1.6l.78.828A6.41,6.41,0,0,0,2.016,14.74c.864-1.032,1.26-1.98,1.26-4.86V7.936C3.276,7.528,3.288,7.192,3.312,6.892Zm-5.568.1H-3.348c.024.228.048.648.048.864v4a7.865,7.865,0,0,1-.06.924h1.1c-.024-.216-.048-.612-.048-.912V7.852C-2.3,7.564-2.28,7.216-2.256,6.988ZM8.124,7.2l-.684.732a24.922,24.922,0,0,1,2.988,2.508l.756-.756A26.277,26.277,0,0,0,8.124,7.2Zm-1.032,8.04.636.984a13.153,13.153,0,0,0,4.716-1.86A11.989,11.989,0,0,0,16.476,10.1L15.9,9.076a11.3,11.3,0,0,1-4.008,4.416A12.39,12.39,0,0,1,7.092,15.244ZM25.98,6.4l-.636.276a13.572,13.572,0,0,1,.972,1.656l.648-.288A17.007,17.007,0,0,0,25.98,6.4Zm1.32-.48-.636.276a12.472,12.472,0,0,1,1,1.644l.648-.288A17.17,17.17,0,0,0,27.3,5.92ZM22.752,6.976l-1.1-.372a4.45,4.45,0,0,1-.372.96,10.051,10.051,0,0,1-3.768,4.056l.828.612A11.579,11.579,0,0,0,21.384,9.28h4.044a9.744,9.744,0,0,1-1.908,3.744,9.611,9.611,0,0,1-4.8,3.012l.876.792a10.682,10.682,0,0,0,4.776-3.264A11.737,11.737,0,0,0,26.5,9.424a3.771,3.771,0,0,1,.276-.636l-.792-.48a2.3,2.3,0,0,1-.78.108H21.948c.1-.168.192-.336.276-.5C22.344,7.7,22.56,7.288,22.752,6.976Z" transform="translate(-1246 -5616)" fill="#4e443b"/>
    <path data-idr="Path_3395" data-name="Path 3395" d="M-4.211-3.819a7.336,7.336,0,0,0,.22,2.054.887.887,0,0,0,.9.712.874.874,0,0,0,.894-.712,7.6,7.6,0,0,0,.212-2.054A7.517,7.517,0,0,0-2.194-5.9a.867.867,0,0,0-.894-.677.879.879,0,0,0-.9.677A7.254,7.254,0,0,0-4.211-3.819Zm1.123-4.023A2.2,2.2,0,0,1-1-6.794,6.061,6.061,0,0,1-.4-3.819,6.028,6.028,0,0,1-1-.849,2.2,2.2,0,0,1-3.088.193,2.2,2.2,0,0,1-5.175-.849a6.028,6.028,0,0,1-.6-2.97,6.061,6.061,0,0,1,.6-2.976A2.2,2.2,0,0,1-3.088-7.842ZM.344,0A3.66,3.66,0,0,1,.7-1.531,4.328,4.328,0,0,1,2.25-3.18,11.344,11.344,0,0,0,3.62-4.265,1.6,1.6,0,0,0,4.1-5.382,1.238,1.238,0,0,0,3.824-6.2a.965.965,0,0,0-.784-.328.956.956,0,0,0-.951.521,2.584,2.584,0,0,0-.172.956H.43A3.759,3.759,0,0,1,.79-6.66,2.244,2.244,0,0,1,2.967-7.826a2.763,2.763,0,0,1,1.968.685,2.367,2.367,0,0,1,.731,1.813A2.451,2.451,0,0,1,5.15-3.792,5.142,5.142,0,0,1,4.036-2.8l-.613.435q-.576.408-.788.591a1.731,1.731,0,0,0-.357.424h3.4V0Z" transform="translate(-1246 -5669.623)" fill="#4e443b"/>
    <path data-idr="Path_3387" data-name="Path 3387" d="M-15.6-2.6v1.536h-2.916V-2.6Zm.816,2.232V-3.3h-4.524V.36h.792V-.372ZM-18.42-6.828a6.614,6.614,0,0,0-.564-1.26h3.744a11.2,11.2,0,0,1-.624,1.26Zm6.48-1.26V-8.9h-4.752v-1.128h-.9V-8.9h-4.644v.816h2.292a9.007,9.007,0,0,1,.564,1.26h-2.352V.9h.84V-6.048h2.148c-.12,1.116-.552,1.668-2.064,1.98a2.16,2.16,0,0,1,.432.624c1.752-.42,2.292-1.164,2.436-2.6h1.428v1.2c0,.744.2.936,1.044.936h1.236c.636,0,.852-.24.936-1.2a1.778,1.778,0,0,1-.684-.276c-.036.708-.084.792-.348.792h-1.044c-.3,0-.348-.024-.348-.264V-6.048h2.508V-.192c0,.192-.06.252-.264.252s-.936.024-1.716-.012a3.09,3.09,0,0,1,.3.864,7.729,7.729,0,0,0,2.04-.144c.384-.144.5-.432.5-.96V-6.828H-14.88c.216-.36.456-.8.684-1.26Zm8.64,1.68H-8.064V-8.676H-3.3Zm.9-3.12H-8.928v3.972H-2.4Zm-4.908,6.1V-.588H-9.816V-3.432ZM-10.668.924h.852V.276h2.508v.54h.876V-4.3h-4.236ZM-4.26-.588V-3.432h2.724V-.588ZM-5.124-4.3V.924h.864V.276h2.724V.84H-.66V-4.3ZM9.756-8.172h-2.3v1.248c0,.72.252.9,1.14.9H10.2c.636,0,.864-.216.948-1.02a2.16,2.16,0,0,1-.66-.252c-.036.564-.1.636-.384.636H8.676c-.4,0-.468-.048-.468-.276v-.612h2.34V-9.576H7.224v.624H9.756Zm-3.864,0H3.54v1.248c0,.72.228.9,1.116.9H6.144c.612,0,.84-.2.924-.984a1.683,1.683,0,0,1-.66-.252c-.036.528-.1.6-.384.6h-1.3c-.384,0-.444-.048-.444-.264v-.624H6.648V-9.576H3.324v.624H5.892ZM6.084-4.32H8.052v1.14H6.084Zm4.992,1.14H8.9V-4.32h1.8V-5H8.9v-.864H8.052V-5H6.084v-.864H5.256V-5H3.48v.684H5.256v1.14H3.1v.7h7.98ZM10.9-.888a14.688,14.688,0,0,0-2.424-1.44l-.636.4A11.6,11.6,0,0,1,10.032-.5ZM5.652-2.352A7.925,7.925,0,0,1,3.42-1.092a4.3,4.3,0,0,1,.66.564A10.314,10.314,0,0,0,6.444-2.076ZM2.868-7.764A8.235,8.235,0,0,0,1.032-9.756L.348-9.3A8.216,8.216,0,0,1,2.124-7.26ZM2.592-5.34H.288v.84H1.764v3.1A17.769,17.769,0,0,1,.144-.024L.612.8C1.188.276,1.728-.228,2.232-.756A4.2,4.2,0,0,0,5.652.684C7.008.732,9.6.708,10.956.648a3.016,3.016,0,0,1,.288-.84C9.78-.1,6.984-.06,5.628-.12A3.509,3.509,0,0,1,2.592-1.488ZM13-7.824h8.172v1.752h.912V-8.664H17.544v-1.368H16.62v1.368h-4.5v2.592H13Zm4.548,5.1H21.1v-.828H17.544V-5.544H20.6v-.84H13.656v.84h2.976V-.516a3.6,3.6,0,0,1-2.208-2.316,15.147,15.147,0,0,0,.288-1.6L13.8-4.512C13.536-2.364,12.888-.66,11.556.372a4.658,4.658,0,0,1,.732.6A6.574,6.574,0,0,0,14.076-1.7C15.168.324,16.956.756,19.44.756h2.784a2.63,2.63,0,0,1,.336-.9c-.576.012-2.64.012-3.072.012a10.955,10.955,0,0,1-1.944-.144ZM-19.512,5.992a13.588,13.588,0,0,1-3.264,4.884,3.956,3.956,0,0,1,.54.864,11.623,11.623,0,0,0,1.4-1.608V16.9h.876V8.824a19.065,19.065,0,0,0,1.3-2.568Zm7.944,4.62V9.748H-15v-3.6h-.9v3.6h-3.408v.864H-15.9v4.956h-3.12v.864h7.248v-.864H-15V10.612ZM-7.1,12.256c-.2-.324-1.1-1.68-1.44-2.124V9.376h1.368V8.548H-8.544V5.956H-9.36V8.548h-1.68v.828h1.584a13.025,13.025,0,0,1-1.824,4.5,4.978,4.978,0,0,1,.456.768A12.53,12.53,0,0,0-9.36,11.3v5.6h.816V11.188c.36.6.78,1.344.948,1.728Zm2.424,1.656c-1.092.6-2.22,1.212-2.976,1.6l.42.744c.816-.456,1.836-1.044,2.8-1.608ZM-6.792,12.3a8.7,8.7,0,0,1,1.2,1.608l.648-.456A8.4,8.4,0,0,0-6.18,11.908Zm4.74,1.668A16.1,16.1,0,0,0-.42,12.34l-.684-.48A12.335,12.335,0,0,1-2.58,13.468a7.408,7.408,0,0,1-.72-1.56v-.48H-.276v-.756H-3.3V9.748H-.708v-.7H-3.3V8.2H-.444V7.468H-2.028c.228-.36.492-.828.744-1.272l-.876-.252a10.444,10.444,0,0,1-.7,1.488l.108.036H-4.836l.216-.084A6.375,6.375,0,0,0-5.34,6l-.7.228a8.954,8.954,0,0,1,.6,1.236h-1.5V8.2h2.772v.852H-6.588v.7h2.424v.924H-7.188v.756h3.024v4.488c0,.156-.036.2-.192.2s-.672.012-1.2,0a2.916,2.916,0,0,1,.252.816,4.487,4.487,0,0,0,1.6-.156c.312-.144.408-.384.408-.864V13.6A6.306,6.306,0,0,0-.636,16.408a3.794,3.794,0,0,1,.576-.72,5.269,5.269,0,0,1-2.376-2Zm8.316.408h1.62v1.248H6.264Zm1.62-2.664H6.264V10.492h1.62Zm0,1.968H6.264V12.412h1.62Zm-4.392.984H1.944V11.02H3.492Zm7.68.96H8.724V14.38h1.884v-.7H8.724V12.412h1.884v-.7H8.724V10.492H10.8V9.736H8.9c.18-.372.384-.8.576-1.212l-.84-.2A12.466,12.466,0,0,1,8.1,9.736H6.636A11.427,11.427,0,0,0,7.608,7.96h2.7V9.22h.8V7.18H7.92c.12-.336.228-.7.336-1.056L7.4,5.956a10.407,10.407,0,0,1-.4,1.224h-2.4V9.22h.78V7.96H6.672a8.31,8.31,0,0,1-2.424,3.108v-.816H2.028a22.247,22.247,0,0,0,.54-2.664H4.584V6.772H.372v.816H1.728A13.1,13.1,0,0,1,.036,12.856a5.457,5.457,0,0,1,.5.828,7.774,7.774,0,0,0,.672-1.164v3.864h.732v-.936h2.3V11.224a5.723,5.723,0,0,1,.54.564c.216-.18.432-.36.636-.564v5.688h.84V16.4h4.908ZM13,8.176h8.172V9.928h.912V7.336H17.544V5.968H16.62V7.336h-4.5V9.928H13Zm4.548,5.1H21.1v-.828H17.544V10.456H20.6v-.84H13.656v.84h2.976v5.028a3.6,3.6,0,0,1-2.208-2.316,15.147,15.147,0,0,0,.288-1.6l-.912-.084c-.264,2.148-.912,3.852-2.244,4.884a4.658,4.658,0,0,1,.732.6A6.574,6.574,0,0,0,14.076,14.3c1.092,2.028,2.88,2.46,5.364,2.46h2.784a2.63,2.63,0,0,1,.336-.9c-.576.012-2.64.012-3.072.012a10.955,10.955,0,0,1-1.944-.144Z" transform="translate(-1153 -5616)" fill="#4e443b"/>
    <path data-idr="Path_3396" data-name="Path 3396" d="M-4.211-3.819a7.336,7.336,0,0,0,.22,2.054.887.887,0,0,0,.9.712.874.874,0,0,0,.894-.712,7.6,7.6,0,0,0,.212-2.054A7.517,7.517,0,0,0-2.194-5.9a.867.867,0,0,0-.894-.677.879.879,0,0,0-.9.677A7.254,7.254,0,0,0-4.211-3.819Zm1.123-4.023A2.2,2.2,0,0,1-1-6.794,6.061,6.061,0,0,1-.4-3.819,6.028,6.028,0,0,1-1-.849,2.2,2.2,0,0,1-3.088.193,2.2,2.2,0,0,1-5.175-.849a6.028,6.028,0,0,1-.6-2.97,6.061,6.061,0,0,1,.6-2.976A2.2,2.2,0,0,1-3.088-7.842ZM1.794-2.39a1.754,1.754,0,0,0,.15.773,1.028,1.028,0,0,0,1.013.564,1.121,1.121,0,0,0,.785-.309,1.149,1.149,0,0,0,.335-.889,1,1,0,0,0-.621-1.026,3.144,3.144,0,0,0-1.114-.145v-1.1A2.879,2.879,0,0,0,3.38-4.662a.9.9,0,0,0,.508-.913,1.022,1.022,0,0,0-.26-.725A.949.949,0,0,0,2.9-6.58a.924.924,0,0,0-.8.344,1.461,1.461,0,0,0-.244.918H.43a3.847,3.847,0,0,1,.2-1.1,2.479,2.479,0,0,1,.59-.843,2.056,2.056,0,0,1,.714-.419,3.085,3.085,0,0,1,1.014-.145,2.7,2.7,0,0,1,1.8.577A1.924,1.924,0,0,1,5.43-5.7a1.713,1.713,0,0,1-.408,1.16,1.394,1.394,0,0,1-.537.4,1.1,1.1,0,0,1,.6.36,1.922,1.922,0,0,1,.585,1.482A2.5,2.5,0,0,1,4.988-.556,2.606,2.606,0,0,1,2.962.193a2.45,2.45,0,0,1-2.3-1.08A3.207,3.207,0,0,1,.29-2.39Z" transform="translate(-1153 -5669.623)" fill="#4e443b"/>
    <path data-idr="Path_3388" data-name="Path 3388" d="M-14.28-5.508V-5.94h1.32c.528,0,.972.024,1.1.036V-6.912a8.823,8.823,0,0,1-1.1.06h-1.32v-1.5a9.1,9.1,0,0,1,.06-.984H-15.3a6.69,6.69,0,0,1,.06.984v1.5h-3.42V-8.388a7.407,7.407,0,0,1,.06-.876h-1.068a7.411,7.411,0,0,1,.048.876v1.536h-1.3a8.8,8.8,0,0,1-1.2-.084v1.044c.144-.012.684-.048,1.2-.048h1.3V-4c0,.456-.036.972-.048,1.092h1.056c-.012-.12-.048-.648-.048-1.092V-5.94h3.42v.5c0,3.36-1.092,4.392-3.276,5.232l.8.756C-14.964-.672-14.28-2.316-14.28-5.508ZM-8.8-8.8l-.684.732A24.922,24.922,0,0,1-6.492-5.556l.756-.756A26.277,26.277,0,0,0-8.8-8.8ZM-9.828-.756l.636.984a13.153,13.153,0,0,0,4.716-1.86A11.989,11.989,0,0,0-.444-5.9l-.576-1.02A11.3,11.3,0,0,1-5.028-2.508,12.391,12.391,0,0,1-9.828-.756ZM9.18-8.616a.8.8,0,0,1,.792-.8.8.8,0,0,1,.8.8.8.8,0,0,1-.8.792A.8.8,0,0,1,9.18-8.616Zm-.552,0a1.352,1.352,0,0,0,.06.384c-.144.012-.276.012-.384.012H2.28A9.261,9.261,0,0,1,1.08-8.3v1.068c.312-.012.72-.036,1.2-.036H8.412A8.981,8.981,0,0,1,6.84-3.36,7.9,7.9,0,0,1,2.16-.48l.816.9A9.087,9.087,0,0,0,7.7-2.784,11.723,11.723,0,0,0,9.492-7.212a.619.619,0,0,0,.024-.132,1.451,1.451,0,0,0,.456.072,1.352,1.352,0,0,0,1.356-1.344A1.362,1.362,0,0,0,9.972-9.972,1.352,1.352,0,0,0,8.628-8.616Zm8.58,8.364.636.528A2.568,2.568,0,0,1,18.252,0a11.93,11.93,0,0,0,4.092-3.324L21.78-4.14a9.22,9.22,0,0,1-3.5,2.952V-8.112A7.426,7.426,0,0,1,18.324-9h-1.1a5.7,5.7,0,0,1,.072.888V-.924A2.857,2.857,0,0,1,17.208-.252Zm-5.5-.06.9.612A6.707,6.707,0,0,0,14.748-3a26.25,26.25,0,0,0,.372-5.1c0-.36.048-.72.06-.864h-1.1a4.421,4.421,0,0,1,.084.876,21.422,21.422,0,0,1-.36,4.824A5.7,5.7,0,0,1,11.712-.312ZM-8.256,6a13.359,13.359,0,0,1-2.964,4.764,4.482,4.482,0,0,1,.516.888,11.9,11.9,0,0,0,1.188-1.428V16.9h.888V8.848A18.569,18.569,0,0,0-7.4,6.28ZM-.2,8.812V7.96H-5.2c.24-.528.468-1.068.66-1.62l-.852-.228a12.713,12.713,0,0,1-2.64,4.6,5.835,5.835,0,0,1,.7.6,13.151,13.151,0,0,0,1.7-2.5H-4.8v8.1h.9v-2.9H-.312v-.84H-3.9V11.356H-.48v-.828H-3.9V8.812ZM7.74,6.556A12.284,12.284,0,0,1,9.864,8l.552-.612A11.446,11.446,0,0,0,8.268,6.016Zm1.7,3.24a11.883,11.883,0,0,1-1.536,3.24,21.644,21.644,0,0,1-.66-4.164h3.816V8H7.188c-.036-.648-.048-1.32-.048-2.016H6.216c.012.684.024,1.356.072,2.016h-5v3.348A9.313,9.313,0,0,1,.192,16.408a3.55,3.55,0,0,1,.744.6c1.08-1.56,1.26-3.972,1.26-5.652v-.1H4.38c-.048,2.064-.108,2.82-.276,3-.072.108-.192.132-.36.132-.2,0-.72-.012-1.272-.06a1.854,1.854,0,0,1,.252.84,13.846,13.846,0,0,0,1.428,0,.928.928,0,0,0,.72-.348c.252-.312.324-1.32.384-4.008v-.384H2.2V8.872h4.14a23.6,23.6,0,0,0,.876,5.052,9.576,9.576,0,0,1-2.76,2.22,5.023,5.023,0,0,1,.648.708A10.729,10.729,0,0,0,7.572,14.86c.552,1.236,1.272,1.968,2.2,1.968S11,16.24,11.172,14.2a2.109,2.109,0,0,1-.768-.48c-.084,1.6-.228,2.22-.564,2.22-.612,0-1.164-.684-1.608-1.86a13.531,13.531,0,0,0,2.112-4.056Z" transform="translate(-1065 -5616)" fill="#4e443b"/>
    <path data-idr="Path_3397" data-name="Path 3397" d="M-4.211-3.819a7.336,7.336,0,0,0,.22,2.054.887.887,0,0,0,.9.712.874.874,0,0,0,.894-.712,7.6,7.6,0,0,0,.212-2.054A7.517,7.517,0,0,0-2.194-5.9a.867.867,0,0,0-.894-.677.879.879,0,0,0-.9.677A7.254,7.254,0,0,0-4.211-3.819Zm1.123-4.023A2.2,2.2,0,0,1-1-6.794,6.061,6.061,0,0,1-.4-3.819,6.028,6.028,0,0,1-1-.849,2.2,2.2,0,0,1-3.088.193,2.2,2.2,0,0,1-5.175-.849a6.028,6.028,0,0,1-.6-2.97,6.061,6.061,0,0,1,.6-2.976A2.2,2.2,0,0,1-3.088-7.842ZM5.752-1.676H4.872V0h-1.5V-1.676H.29V-3.013L3.153-7.74H4.872v4.866h.881Zm-2.379-1.2V-6.228L1.429-2.874Z" transform="translate(-1065 -5669.623)" fill="#4e443b"/>
    <path data-idr="Path_3389" data-name="Path 3389" d="M-16.62-.324V-3.372h3.852v-.864H-16.62V-6.852h4.3v-.876h-4.3v-2.3h-.912v2.3h-2.436a16.472,16.472,0,0,0,.672-1.92l-.9-.192a10.939,10.939,0,0,1-2.22,4.416A5.975,5.975,0,0,1-21.6-4.9a10.767,10.767,0,0,0,1.248-1.956h2.82v2.616H-21.1v.864h3.564V-.324h-4.86V.54H-11.76V-.324Zm12.3-1.3h2.868v-.72H-4.32V-3.6h3.18v-.72H-4.32V-5.388h-.888V-4.32h-1.86a6.617,6.617,0,0,0,.4-.9l-.8-.192a6.309,6.309,0,0,1-1.536,2.5,4.9,4.9,0,0,1,.7.432A7.771,7.771,0,0,0-7.464-3.6h2.256v1.26H-7.92v.72h2.712V-.108H-8.94V.66H-.42V-.108h-3.9ZM-3.636-8.2a13.941,13.941,0,0,1-.648,1.572l.42.144h-3.66l.54-.156a5.14,5.14,0,0,0-.66-1.56Zm.12,1.716c.276-.444.6-1.044.9-1.608L-3.06-8.2H-.972v-.768H-5.256v-1.08h-.876v1.08h-4.212V-8.2H-7.86l-.612.168A6.6,6.6,0,0,1-7.836-6.48h-2.328v1.86A9.354,9.354,0,0,1-11.256.336,3.89,3.89,0,0,1-10.572.9a10.614,10.614,0,0,0,1.26-5.52V-5.688H-.36V-6.48ZM8.916-1.344V-.18H3.288V-1.344ZM8.148-4.56v1.02H3.288V-4.56Zm-4.86,1.7H9.024V-5.244H2.448V.924h.84V.516H8.916V.9h.876V-2.04h-6.5Zm7.86-6.276H7.08a6.3,6.3,0,0,0,.372-.756l-.852-.2A5.632,5.632,0,0,1,5.544-8.436v-.7H2.4a5.973,5.973,0,0,0,.348-.744l-.828-.216A6.575,6.575,0,0,1,.192-7.6a5.511,5.511,0,0,1,.732.48A8.182,8.182,0,0,0,1.956-8.388h.516a7.563,7.563,0,0,1,.564,1.224l.792-.24a5.446,5.446,0,0,0-.468-.984H5.5a4.807,4.807,0,0,1-.744.66,4.356,4.356,0,0,1,.492.276V-6.7H.72v2.244h.84V-5.988H9.9v1.536h.864V-6.7H6.1v-.936h-.18a8.351,8.351,0,0,0,.672-.756h.96a5.573,5.573,0,0,1,.8,1.26L9.168-7.4a5.969,5.969,0,0,0-.648-.984h2.628Zm4.188,6.72-1.308.432V-4.956h1.2v-.828h-1.2v-2.6h1.38v-.84h-3.72v.84h1.488v2.6H11.82v.828h1.356v3.24c-.612.2-1.164.372-1.608.5l.2.9c1.068-.348,2.436-.816,3.72-1.248Zm1.476-4.044h1.824v1.524H16.812Zm0-2.256h1.824V-7.2H16.812ZM21.24-7.2H19.4V-8.712H21.24Zm0,2.268H19.4V-6.456H21.24ZM19.476-.288V-1.932h2.8v-.816h-2.8v-1.4h2.616v-5.34H16v5.34h2.58v1.4H15.852v.816h2.724V-.288H14.928V.528h7.728V-.288Z" transform="translate(-992 -5608)" fill="#4e443b"/>
    <path data-idr="Path_3398" data-name="Path 3398" d="M-4.211-3.819a7.336,7.336,0,0,0,.22,2.054.887.887,0,0,0,.9.712.874.874,0,0,0,.894-.712,7.6,7.6,0,0,0,.212-2.054A7.517,7.517,0,0,0-2.194-5.9a.867.867,0,0,0-.894-.677.879.879,0,0,0-.9.677A7.254,7.254,0,0,0-4.211-3.819Zm1.123-4.023A2.2,2.2,0,0,1-1-6.794,6.061,6.061,0,0,1-.4-3.819,6.028,6.028,0,0,1-1-.849,2.2,2.2,0,0,1-3.088.193,2.2,2.2,0,0,1-5.175-.849a6.028,6.028,0,0,1-.6-2.97,6.061,6.061,0,0,1,.6-2.976A2.2,2.2,0,0,1-3.088-7.842Zm4.9,5.758a1.479,1.479,0,0,0,.348.771.985.985,0,0,0,.75.271,1.011,1.011,0,0,0,.865-.4,1.642,1.642,0,0,0,.3-1.007A1.753,1.753,0,0,0,3.8-3.456a.975.975,0,0,0-.868-.411,1.49,1.49,0,0,0-.482.07.959.959,0,0,0-.541.478L.534-3.384l.547-4.3H5.366v1.3H2.185l-.279,1.7a3.194,3.194,0,0,1,.552-.306,2.336,2.336,0,0,1,.81-.124,2.431,2.431,0,0,1,1.684.65,2.419,2.419,0,0,1,.719,1.891A2.968,2.968,0,0,1,4.98-.645,2.516,2.516,0,0,1,2.909.2a2.749,2.749,0,0,1-1.824-.6A2.317,2.317,0,0,1,.29-2.084Z" transform="translate(-992 -5669.623)" fill="#4e443b"/>
    <path data-idr="Path_3390" data-name="Path 3390" d="M-10.572-3.24a8.624,8.624,0,0,1-.78,2.856,3.117,3.117,0,0,1,.7.336A10.561,10.561,0,0,0-9.8-3.1Zm2.472.132a11.767,11.767,0,0,1,.732,2.2l.684-.228a11.125,11.125,0,0,0-.768-2.184Zm-.312-2.808a9.15,9.15,0,0,1,.564,1.08l-1.776.072A41.174,41.174,0,0,0-7.236-8.34l-.756-.336A24.44,24.44,0,0,1-9.2-6.528a9.637,9.637,0,0,0-.7-.78c.444-.672.948-1.62,1.356-2.412l-.78-.312A15.175,15.175,0,0,1-10.4-7.8c-.12-.108-.228-.216-.348-.312l-.456.588A11.177,11.177,0,0,1-9.66-5.832c-.264.4-.54.78-.792,1.1l-.792.036.072.792c.552-.036,1.2-.072,1.884-.108V.936H-8.5V-4.056l.948-.06a5.584,5.584,0,0,1,.216.7l.672-.3A9.5,9.5,0,0,0-7.788-6.168ZM-5.8-6.972h1.788c-.18,1.9-.624,3.492-1.788,4.5ZM-.528-7.8H-3.12c.048-.72.072-1.464.084-2.244h-.84c-.012.78-.024,1.524-.072,2.244h-2.64V.9H-5.8V-2.364a2.334,2.334,0,0,1,.516.516A5.6,5.6,0,0,0-3.564-4.764,26.213,26.213,0,0,1-2-1.956l.66-.564a27.911,27.911,0,0,0-1.98-3.324c.06-.372.108-.744.144-1.128h1.848V-.108c0,.168-.048.216-.2.216S-2.22.12-2.772.1A3.057,3.057,0,0,1-2.5.924,4.374,4.374,0,0,0-.924.768c.3-.132.4-.4.4-.864ZM8.1-6.408H3.336V-8.676H8.1ZM9-9.528H2.472v3.972H9Zm-4.908,6.1V-.588H1.584V-3.432ZM.732.924h.852V.276H4.092v.54h.876V-4.3H.732ZM7.14-.588V-3.432H9.864V-.588ZM6.276-4.3V.924H7.14V.276H9.864V.84h.876V-4.3Z" transform="translate(-924 -5608)" fill="#4e443b"/>
    <path data-idr="Path_3399" data-name="Path 3399" d="M-4.211-3.819a7.336,7.336,0,0,0,.22,2.054.887.887,0,0,0,.9.712.874.874,0,0,0,.894-.712,7.6,7.6,0,0,0,.212-2.054A7.517,7.517,0,0,0-2.194-5.9a.867.867,0,0,0-.894-.677.879.879,0,0,0-.9.677A7.254,7.254,0,0,0-4.211-3.819Zm1.123-4.023A2.2,2.2,0,0,1-1-6.794,6.061,6.061,0,0,1-.4-3.819,6.028,6.028,0,0,1-1-.849,2.2,2.2,0,0,1-3.088.193,2.2,2.2,0,0,1-5.175-.849a6.028,6.028,0,0,1-.6-2.97,6.061,6.061,0,0,1,.6-2.976A2.2,2.2,0,0,1-3.088-7.842ZM1.88-2.465a1.527,1.527,0,0,0,.338,1.026,1.079,1.079,0,0,0,.859.4.954.954,0,0,0,.8-.384,1.6,1.6,0,0,0,.293-1A1.491,1.491,0,0,0,3.84-3.467a1.066,1.066,0,0,0-.816-.363,1.09,1.09,0,0,0-.693.236A1.338,1.338,0,0,0,1.88-2.465ZM4.034-5.828a.781.781,0,0,0-.145-.414.841.841,0,0,0-.747-.365,1.1,1.1,0,0,0-1.063.838A5.2,5.2,0,0,0,1.842-4.4,1.718,1.718,0,0,1,2.5-4.9a2.229,2.229,0,0,1,.859-.156,2.233,2.233,0,0,1,1.7.7,2.518,2.518,0,0,1,.663,1.8,3.037,3.037,0,0,1-.65,1.923A2.4,2.4,0,0,1,3.056.2a2.324,2.324,0,0,1-2.17-1.23A5.015,5.015,0,0,1,.344-3.507a11.284,11.284,0,0,1,.075-1.45A4.435,4.435,0,0,1,.94-6.612a2.666,2.666,0,0,1,.873-.908A2.354,2.354,0,0,1,3.1-7.863a2.557,2.557,0,0,1,1.729.556,2.114,2.114,0,0,1,.725,1.48Z" transform="translate(-924 -5669.623)" fill="#4e443b"/>
    <rect data-idr="Rectangle_131" data-name="Rectangle 131" width="151.963" height="20.292" transform="translate(-1365 -5590)" fill="#f6f4e8"/>
    <path data-idr="Path_3393" data-name="Path 3393" d="M-20.862-3.24a8.624,8.624,0,0,1-.78,2.856,3.117,3.117,0,0,1,.7.336A10.561,10.561,0,0,0-20.094-3.1Zm2.6.168A11.951,11.951,0,0,1-17.49-.744l.708-.24a10.4,10.4,0,0,0-.8-2.3Zm-.3-2.844a11.221,11.221,0,0,1,.588,1.068c-.66.024-1.32.06-1.92.084A38.757,38.757,0,0,0-17.406-8.34l-.768-.336c-.336.648-.792,1.428-1.284,2.184a8.445,8.445,0,0,0-.732-.828,21.592,21.592,0,0,0,1.368-2.412l-.792-.3A16.379,16.379,0,0,1-20.682-7.8c-.12-.108-.24-.216-.36-.312l-.456.588a10.9,10.9,0,0,1,1.572,1.716,11.784,11.784,0,0,1-.8,1.068c-.276.012-.552.024-.792.024l.072.8,1.956-.1V.936h.8V-4.056l1.044-.06a4.14,4.14,0,0,1,.228.684l.708-.336A10.257,10.257,0,0,0-17.9-6.2Zm7.8-1.968h-4.4A15.242,15.242,0,0,0-14.43-9.84l-.9-.2a10.55,10.55,0,0,1-2.136,4.152,6.328,6.328,0,0,1,.78.528,9.5,9.5,0,0,0,1.116-1.68h3.936c-.18,4.68-.384,6.5-.78,6.912a.589.589,0,0,1-.516.18c-.3,0-1.032,0-1.836-.072a2.042,2.042,0,0,1,.288.876A14.037,14.037,0,0,0-12.63.876a1.234,1.234,0,0,0,1-.48c.492-.588.66-2.448.876-7.824Zm-2.688,5.328a12.134,12.134,0,0,0-1.68-2.736l-.72.348a12.849,12.849,0,0,1,1.62,2.8ZM-9.462,0H-3.93V-.948H-6.366c-.444,0-.984.048-1.44.084,2.064-1.956,3.444-3.744,3.444-5.5a2.413,2.413,0,0,0-2.556-2.6,3.364,3.364,0,0,0-2.592,1.3l.636.624A2.463,2.463,0,0,1-7.05-8.064a1.546,1.546,0,0,1,1.62,1.74C-5.43-4.812-6.7-3.06-9.462-.648ZM1.182-3.444a2.023,2.023,0,0,0,1.668-1.2l-.624-.444c-.3.576-.636.816-1.02.816C.45-4.272-.114-5.4-1.17-5.4A2.024,2.024,0,0,0-2.85-4.2l.612.432c.312-.576.648-.816,1.032-.816C-.45-4.584.126-3.444,1.182-3.444ZM6.5.156a2.561,2.561,0,0,0,2.82-2.508,2.263,2.263,0,0,0-1.86-2.232v-.048a2.2,2.2,0,0,0,1.56-2.124A2.26,2.26,0,0,0,6.462-8.964,3.522,3.522,0,0,0,4-7.908l.588.7a2.568,2.568,0,0,1,1.824-.852A1.35,1.35,0,0,1,7.9-6.672c0,.948-.624,1.68-2.436,1.68v.84C7.494-4.152,8.2-3.444,8.2-2.4A1.622,1.622,0,0,1,6.414-.756,2.908,2.908,0,0,1,4.23-1.764l-.552.72A3.641,3.641,0,0,0,6.5.156ZM13.05-.876V-4.224H19V-.876ZM19-8.34V-5.1H13.05V-8.34ZM12.15-9.216v10h.9V0H19V.732h.936V-9.216Z" transform="translate(-1289 -5576)" fill="#4e443b"/>
    <path data-idr="Path_3384" data-name="Path 3384" d="M0,0H176V20.292H0Z" transform="translate(-1211 -5590)" fill="#f6f4e8"/>
    <path data-idr="Path_3392" data-name="Path 3392" d="M-26.862-3.24a8.624,8.624,0,0,1-.78,2.856,3.117,3.117,0,0,1,.7.336A10.561,10.561,0,0,0-26.094-3.1Zm2.6.168A11.951,11.951,0,0,1-23.49-.744l.708-.24a10.4,10.4,0,0,0-.8-2.3Zm-.3-2.844a11.221,11.221,0,0,1,.588,1.068c-.66.024-1.32.06-1.92.084A38.757,38.757,0,0,0-23.406-8.34l-.768-.336c-.336.648-.792,1.428-1.284,2.184a8.445,8.445,0,0,0-.732-.828,21.592,21.592,0,0,0,1.368-2.412l-.792-.3A16.379,16.379,0,0,1-26.682-7.8c-.12-.108-.24-.216-.36-.312l-.456.588a10.9,10.9,0,0,1,1.572,1.716,11.784,11.784,0,0,1-.8,1.068c-.276.012-.552.024-.792.024l.072.8,1.956-.1V.936h.8V-4.056l1.044-.06a4.14,4.14,0,0,1,.228.684l.708-.336A10.257,10.257,0,0,0-23.9-6.2Zm7.8-1.968h-4.4A15.242,15.242,0,0,0-20.43-9.84l-.9-.2a10.55,10.55,0,0,1-2.136,4.152,6.328,6.328,0,0,1,.78.528,9.5,9.5,0,0,0,1.116-1.68h3.936c-.18,4.68-.384,6.5-.78,6.912a.589.589,0,0,1-.516.18c-.3,0-1.032,0-1.836-.072a2.042,2.042,0,0,1,.288.876A14.037,14.037,0,0,0-18.63.876a1.234,1.234,0,0,0,1-.48c.492-.588.66-2.448.876-7.824Zm-2.688,5.328a12.134,12.134,0,0,0-1.68-2.736l-.72.348a12.849,12.849,0,0,1,1.62,2.8ZM-14.934,0h4.824V-.912h-1.764v-7.9h-.84a5.3,5.3,0,0,1-1.824.636v.7h1.56V-.912h-1.956ZM-4.818-3.444a2.023,2.023,0,0,0,1.668-1.2l-.624-.444c-.3.576-.636.816-1.02.816C-5.55-4.272-6.114-5.4-7.17-5.4A2.024,2.024,0,0,0-8.85-4.2l.612.432c.312-.576.648-.816,1.032-.816C-6.45-4.584-5.874-3.444-4.818-3.444ZM-2.142,0H3.39V-.948H.954C.51-.948-.03-.9-.486-.864,1.578-2.82,2.958-4.608,2.958-6.36A2.413,2.413,0,0,0,.4-8.964a3.364,3.364,0,0,0-2.592,1.3l.636.624A2.463,2.463,0,0,1,.27-8.064a1.546,1.546,0,0,1,1.62,1.74C1.89-4.812.618-3.06-2.142-.648ZM9.15-7.116,8.082-7.344a4.606,4.606,0,0,1-.132.708A5.867,5.867,0,0,1,7.3-5.1,8.058,8.058,0,0,1,5.49-3.012l.876.516a9.594,9.594,0,0,0,1.68-2.088h2.568A5.736,5.736,0,0,1,8.49-.2a5.888,5.888,0,0,1-.948.552L8.49.972c1.776-1.08,2.856-2.784,3.048-5.556H13.3c.24,0,.624.012.936.036V-5.5a6.433,6.433,0,0,1-.936.06H8.49c.168-.36.324-.756.432-1.056A5.748,5.748,0,0,1,9.15-7.116ZM19.266-3.672A15.066,15.066,0,0,0,19.4-5.688h5.484v2.016Zm5.616-4.86V-6.54H19.4V-8.532Zm.924-.876H18.5v3.672c0,1.908-.192,4.344-2.1,6.024a3.377,3.377,0,0,1,.66.648A6.769,6.769,0,0,0,19.122-2.8h5.76V-.4c0,.264-.1.348-.372.36s-1.236.012-2.232-.024a4.256,4.256,0,0,1,.372.924A9.649,9.649,0,0,0,25.182.7c.444-.144.624-.456.624-1.08Z" transform="translate(-1123 -5576)" fill="#4e443b"/>
    <path data-idr="Path_3383" data-name="Path 3383" d="M10,0H144.443V20.292H10Z" transform="translate(-1043 -5590)" fill="#f6f4e8"/>
    <path data-idr="Path_3391" data-name="Path 3391" d="M-26.862-3.24a8.624,8.624,0,0,1-.78,2.856,3.117,3.117,0,0,1,.7.336A10.561,10.561,0,0,0-26.094-3.1Zm2.6.168A11.951,11.951,0,0,1-23.49-.744l.708-.24a10.4,10.4,0,0,0-.8-2.3Zm-.3-2.844a11.221,11.221,0,0,1,.588,1.068c-.66.024-1.32.06-1.92.084A38.757,38.757,0,0,0-23.406-8.34l-.768-.336c-.336.648-.792,1.428-1.284,2.184a8.445,8.445,0,0,0-.732-.828,21.592,21.592,0,0,0,1.368-2.412l-.792-.3A16.379,16.379,0,0,1-26.682-7.8c-.12-.108-.24-.216-.36-.312l-.456.588a10.9,10.9,0,0,1,1.572,1.716,11.784,11.784,0,0,1-.8,1.068c-.276.012-.552.024-.792.024l.072.8,1.956-.1V.936h.8V-4.056l1.044-.06a4.14,4.14,0,0,1,.228.684l.708-.336A10.257,10.257,0,0,0-23.9-6.2Zm7.8-1.968h-4.4A15.242,15.242,0,0,0-20.43-9.84l-.9-.2a10.55,10.55,0,0,1-2.136,4.152,6.328,6.328,0,0,1,.78.528,9.5,9.5,0,0,0,1.116-1.68h3.936c-.18,4.68-.384,6.5-.78,6.912a.589.589,0,0,1-.516.18c-.3,0-1.032,0-1.836-.072a2.042,2.042,0,0,1,.288.876A14.037,14.037,0,0,0-18.63.876a1.234,1.234,0,0,0,1-.48c.492-.588.66-2.448.876-7.824Zm-2.688,5.328a12.134,12.134,0,0,0-1.68-2.736l-.72.348a12.849,12.849,0,0,1,1.62,2.8ZM-12.822.156A2.561,2.561,0,0,0-10-2.352a2.263,2.263,0,0,0-1.86-2.232v-.048A2.2,2.2,0,0,0-10.3-6.756a2.26,2.26,0,0,0-2.556-2.208,3.522,3.522,0,0,0-2.46,1.056l.588.7a2.568,2.568,0,0,1,1.824-.852,1.35,1.35,0,0,1,1.488,1.392c0,.948-.624,1.68-2.436,1.68v.84c2.028,0,2.736.708,2.736,1.752A1.622,1.622,0,0,1-12.906-.756,2.908,2.908,0,0,1-15.09-1.764l-.552.72A3.641,3.641,0,0,0-12.822.156Zm8-3.6a2.023,2.023,0,0,0,1.668-1.2l-.624-.444c-.3.576-.636.816-1.02.816C-5.55-4.272-6.114-5.4-7.17-5.4A2.024,2.024,0,0,0-8.85-4.2l.612.432c.312-.576.648-.816,1.032-.816C-6.45-4.584-5.874-3.444-4.818-3.444ZM-1.29-3.3l2-3c.252-.432.492-.864.708-1.3H1.47c-.024.456-.06,1.164-.06,1.6v2.7ZM1.41,0H2.442V-2.424H3.606V-3.3H2.442V-8.808H1.23L-2.43-3.144v.72H1.41ZM9.15-7.116,8.082-7.344a4.606,4.606,0,0,1-.132.708A5.867,5.867,0,0,1,7.3-5.1,8.058,8.058,0,0,1,5.49-3.012l.876.516a9.594,9.594,0,0,0,1.68-2.088h2.568A5.736,5.736,0,0,1,8.49-.2a5.888,5.888,0,0,1-.948.552L8.49.972c1.776-1.08,2.856-2.784,3.048-5.556H13.3c.24,0,.624.012.936.036V-5.5a6.433,6.433,0,0,1-.936.06H8.49c.168-.36.324-.756.432-1.056A5.748,5.748,0,0,1,9.15-7.116ZM19.266-3.672A15.066,15.066,0,0,0,19.4-5.688h5.484v2.016Zm5.616-4.86V-6.54H19.4V-8.532Zm.924-.876H18.5v3.672c0,1.908-.192,4.344-2.1,6.024a3.377,3.377,0,0,1,.66.648A6.769,6.769,0,0,0,19.122-2.8h5.76V-.4c0,.264-.1.348-.372.36s-1.236.012-2.232-.024a4.256,4.256,0,0,1,.372.924A9.649,9.649,0,0,0,25.182.7c.444-.144.624-.456.624-1.08Z" transform="translate(-966 -5576)" fill="#4e443b"/>
    <path data-idr="Icon_awesome-user-tie" data-name="Icon awesome-user-tie" d="M10.1,11.546A5.773,5.773,0,1,0,4.33,5.773,5.772,5.772,0,0,0,10.1,11.546Zm4.321,1.47-2.156,8.632-1.443-6.134,1.443-2.526H7.938l1.443,2.526L7.938,21.648,5.782,13.016A6.051,6.051,0,0,0,0,19.05v1.876a2.165,2.165,0,0,0,2.165,2.165H18.04A2.165,2.165,0,0,0,20.2,20.926V19.05a6.051,6.051,0,0,0-5.782-6.034Z" transform="translate(-1256 -5659)" fill="#9a2327"/>
    <path data-idr="Icon_awesome-clipboard-list" data-name="Icon awesome-clipboard-list" d="M15.154,2.886H11.546a2.886,2.886,0,1,0-5.773,0H2.165A2.165,2.165,0,0,0,0,5.051V20.926a2.165,2.165,0,0,0,2.165,2.165H15.154a2.165,2.165,0,0,0,2.165-2.165V5.051A2.165,2.165,0,0,0,15.154,2.886ZM4.33,19.122A1.082,1.082,0,1,1,5.412,18.04,1.08,1.08,0,0,1,4.33,19.122Zm0-4.33A1.082,1.082,0,1,1,5.412,13.71,1.08,1.08,0,0,1,4.33,14.793Zm0-4.33A1.082,1.082,0,1,1,5.412,9.381,1.08,1.08,0,0,1,4.33,10.463ZM8.659,1.8A1.082,1.082,0,1,1,7.577,2.886,1.08,1.08,0,0,1,8.659,1.8Zm5.773,16.6a.362.362,0,0,1-.361.361H7.577a.362.362,0,0,1-.361-.361v-.722a.362.362,0,0,1,.361-.361h6.494a.362.362,0,0,1,.361.361Zm0-4.33a.362.362,0,0,1-.361.361H7.577a.362.362,0,0,1-.361-.361V13.35a.362.362,0,0,1,.361-.361h6.494a.362.362,0,0,1,.361.361Zm0-4.33a.362.362,0,0,1-.361.361H7.577a.362.362,0,0,1-.361-.361V9.02a.362.362,0,0,1,.361-.361h6.494a.362.362,0,0,1,.361.361Z" transform="translate(-1162 -5659)" fill="#9a2327"/>
    <g data-idr="Group_307" data-name="Group 307" transform="translate(37.478 201.533)">
      <path data-idr="Path_3359" data-name="Path 3359" d="M71.909,0H82.783a.815.815,0,0,1,.809.809V10.858a.815.815,0,0,1-.809.809H71.909a.815.815,0,0,1-.809-.809V.809A.815.815,0,0,1,71.909,0Z" transform="translate(-1033.719 -5857.533)" fill="#9a2327"/>
      <path data-idr="Path_3360" data-name="Path 3360" d="M9.606,26.887V18.564a.756.756,0,0,0-.764-.764H4.337a.775.775,0,0,0-.6.29L0,22.7v6.124a.756.756,0,0,0,.764.764H3.146a2.718,2.718,0,0,1,2.169-1.1,2.676,2.676,0,0,1,2.169,1.1H16.31a2.718,2.718,0,0,1,2.169-1.1,2.676,2.676,0,0,1,2.169,1.1h1.97a.743.743,0,0,0,.733-.733v-.473a.724.724,0,0,0-.733-.733H10.369a.766.766,0,0,1-.764-.764Zm-2.779-2.81H2.841a.886.886,0,0,1-.886-.886v-.229a.977.977,0,0,1,.2-.565l2.107-2.611a.883.883,0,0,1,.687-.336H6.811a.886.886,0,0,1,.886.886v2.841a.868.868,0,0,1-.87.9Z" transform="translate(-973.478 -5872.615)" fill="#9a2327"/>
      <circle data-idr="Ellipse_15" data-name="Ellipse 15" cx="1.909" cy="1.909" r="1.909" transform="translate(-970.102 -5843.315)" fill="#9a2327"/>
      <circle data-idr="Ellipse_16" data-name="Ellipse 16" cx="1.909" cy="1.909" r="1.909" transform="translate(-956.893 -5843.315)" fill="#9a2327"/>
    </g>
    <g data-idr="Group_306" data-name="Group 306" transform="translate(41.435 201.432)">
      <path data-idr="Path_3361" data-name="Path 3361" d="M55.647,2.484,51.383,0,42.068,5.427l4.263,2.484Z" transform="translate(-1157.714 -5860.432)" fill="#9a2327"/>
      <path data-idr="Path_3362" data-name="Path 3362" d="M161.763,64.3l-9.315,5.427,3.475,2.025,9.315-5.427Z" transform="translate(-1262.254 -5921.335)" fill="#9a2327"/>
      <path data-idr="Path_3363" data-name="Path 3363" d="M233.131,134.034v10.854l9.31-5.424V128.61Z" transform="translate(-1338.669 -5982.238)" fill="#9a2327"/>
      <path data-idr="Path_3364" data-name="Path 3364" d="M27.169,139.464l9.31,5.424V134.034l-9.31-5.424Z" transform="translate(-1143.604 -5982.238)" fill="#9a2327"/>
    </g>
    <path data-idr="Subtraction_2" data-name="Subtraction 2" d="M21.942,20.442H1.079A1.089,1.089,0,0,1,0,19.346V1.1A1.089,1.089,0,0,1,1.079,0H6.115A1.089,1.089,0,0,1,7.194,1.1v8.957l6.255-4.039a1.06,1.06,0,0,1,.576-.173,1.091,1.091,0,0,1,1.083,1.1v3.115l6.255-4.039a1.061,1.061,0,0,1,.576-.173,1.091,1.091,0,0,1,1.083,1.1V19.346A1.089,1.089,0,0,1,21.942,20.442Zm-6.835-7.357V16.33h3.2V13.085Zm-7.673,0V16.33h3.2V13.085Z" transform="translate(-1004 -5657)" fill="#9a2327"/>
    <path data-idr="Icon_zocial-email" data-name="Icon zocial-email" d="M.072,18.958V5.515q0-.023.07-.443L8.054,11.84.165,19.425a1.978,1.978,0,0,1-.093-.467Zm1.05-14.82a1.006,1.006,0,0,1,.4-.07H22.827a1.322,1.322,0,0,1,.42.07l-7.935,6.791-1.05.84-2.077,1.7-2.077-1.7-1.05-.84Zm.023,16.2L9.1,12.7l3.081,2.5,3.081-2.5,7.958,7.632a1.121,1.121,0,0,1-.4.07H1.519a1.057,1.057,0,0,1-.373-.07Zm15.17-8.5L24.2,5.072a1.393,1.393,0,0,1,.07.443V18.958a1.789,1.789,0,0,1-.07.467Z" transform="translate(-1336.072 -5659.068)" fill="#9a2327"/>
  </g>
</svg>
