<svg xmlns="http://www.w3.org/2000/svg" width="481.493" height="112.87" viewBox="0 0 481.493 112.87">
  <g data-idr="Group_319" data-name="Group 319" transform="translate(1365 5682.579)">
    <path data-idr="Path_3377" data-name="Path 3377" d="M0,0H66L81.493,44.992,66,90H0" transform="translate(-1365 -5682.579)" fill="#f6f4e8"/>
    <path data-idr="Path_3377-2" data-name="Path 3377" d="M0,0H86l15.493,44.992L86,90H0L15.369,45.088Z" transform="translate(-1297 -5682.579)" fill="#f6f4e8"/>
    <path data-idr="Path_3377-3" data-name="Path 3377" d="M0,0H96l15.493,44.992L96,90H0L15.369,45.088Z" transform="translate(-1209 -5682.579)" fill="#f6f4e8"/>
    <path data-idr="Path_3377-4" data-name="Path 3377" d="M10,0H86l15.493,44.992L86,90H10L25.369,45.088Z" transform="translate(-1121 -5682.579)" fill="#f6f4e8"/>
    <path data-idr="Path_3377-5" data-name="Path 3377" d="M10,0H76L91.493,44.992,76,90H10L25.369,45.088Z" transform="translate(-1043 -5682.579)" fill="#f6f4e8"/>
    <path data-idr="Path_3377-6" data-name="Path 3377" d="M10,0H76L91.493,44.992,76,90H10L25.369,45.088Z" transform="translate(-975 -5682.579)" fill="#f6f4e8"/>
    <path data-idr="Path_3471" data-name="Path 3471" d="M-9.48-5.807V-9.838H-2.52v4.031Zm6.094-3.252H-8.613v2.484h5.227ZM-6.357-1.395V-3.721h-4.887V-4.5H-.756v.779H-5.5v2.326ZM-9.586.7V-2.689h.873V-.082h6.469V.7ZM9.4,1.055v-11.3h.873v11.3ZM4.594-4a3.081,3.081,0,0,1-2.127-.768A2.48,2.48,0,0,1,1.605-6.7a2.479,2.479,0,0,1,.855-1.916,3.061,3.061,0,0,1,2.133-.773,3.051,3.051,0,0,1,2.13.779A2.481,2.481,0,0,1,7.582-6.7a2.485,2.485,0,0,1-.855,1.937A3.082,3.082,0,0,1,4.594-4Zm0-4.617a2.139,2.139,0,0,0-1.488.539,1.772,1.772,0,0,0-.6,1.377A1.757,1.757,0,0,0,3.12-5.312a2.161,2.161,0,0,0,1.474.536,2.16,2.16,0,0,0,1.488-.536,1.768,1.768,0,0,0,.6-1.386,1.767,1.767,0,0,0-.6-1.383A2.161,2.161,0,0,0,4.594-8.613ZM.861-1,.779-1.752q1.512,0,4.222-.059t3.6-.135l.053.756q-.92.076-3.63.135T.861-1Z" transform="translate(-1324 -5609)" fill="#4e443b"/>
    <path data-idr="Path_3460" data-name="Path 3460" d="M-4.211-3.819a7.336,7.336,0,0,0,.22,2.054.887.887,0,0,0,.9.712.874.874,0,0,0,.894-.712,7.6,7.6,0,0,0,.212-2.054A7.517,7.517,0,0,0-2.194-5.9a.867.867,0,0,0-.894-.677.879.879,0,0,0-.9.677A7.254,7.254,0,0,0-4.211-3.819Zm1.123-4.023A2.2,2.2,0,0,1-1-6.794,6.061,6.061,0,0,1-.4-3.819,6.028,6.028,0,0,1-1-.849,2.2,2.2,0,0,1-3.088.193,2.2,2.2,0,0,1-5.175-.849a6.028,6.028,0,0,1-.6-2.97,6.061,6.061,0,0,1,.6-2.976A2.2,2.2,0,0,1-3.088-7.842ZM.763-5.371V-6.413a6.751,6.751,0,0,0,1.013-.1,1.427,1.427,0,0,0,.75-.408,1.345,1.345,0,0,0,.3-.559,1.285,1.285,0,0,0,.059-.312H4.163V0H2.594V-5.371Z" transform="translate(-1324 -5669.623)" fill="#4e443b"/>
    <path data-idr="Path_3470" data-name="Path 3470" d="M-13.69,1.055v-11.3h.873v11.3Zm-5.016-11.279h.873v1.5h2.941v.779h-6.744v-.779h2.93Zm.416,7.318a3.015,3.015,0,0,1-2.01-.633,1.963,1.963,0,0,1-.75-1.559,1.949,1.949,0,0,1,.762-1.55,3.052,3.052,0,0,1,2.021-.636,3.052,3.052,0,0,1,2.021.636,1.949,1.949,0,0,1,.762,1.55,1.946,1.946,0,0,1-.771,1.556A3.1,3.1,0,0,1-18.289-2.906Zm.023-3.633a2.194,2.194,0,0,0-1.395.41A1.261,1.261,0,0,0-20.182-5.1a1.269,1.269,0,0,0,.519,1.037,2.192,2.192,0,0,0,1.4.41,2.2,2.2,0,0,0,1.4-.413A1.266,1.266,0,0,0-16.344-5.1a1.261,1.261,0,0,0-.524-1.028A2.2,2.2,0,0,0-18.266-6.539ZM-22.1-.8l-.105-.779h.686q5.713,0,7.137-.111l.035.756Q-16.356-.8-22.1-.8ZM-2.091-6.334v2.6h-.873v-6.516h.873v3.135H-.386v.779Zm-8.18,1.9v-5.2h5.121v5.2Zm4.26-4.424h-3.4v3.645h3.4ZM-5.542.891A5.1,5.1,0,0,1-8.275.278a1.825,1.825,0,0,1-.964-1.585,1.812,1.812,0,0,1,.961-1.579,5.139,5.139,0,0,1,2.736-.606,5.12,5.12,0,0,1,2.736.606A1.814,1.814,0,0,1-1.85-1.307,1.826,1.826,0,0,1-2.808.278,5.083,5.083,0,0,1-5.542.891Zm0-3.639a4.179,4.179,0,0,0-2.051.407A1.19,1.19,0,0,0-8.3-1.307,1.187,1.187,0,0,0-7.59-.27a4.208,4.208,0,0,0,2.048.4A4.237,4.237,0,0,0-3.5-.267a1.185,1.185,0,0,0,.715-1.04,1.187,1.187,0,0,0-.709-1.037A4.2,4.2,0,0,0-5.542-2.748ZM9.251-4.875v5.93H8.378v-11.3h.873v4.594h1.957v.779ZM6.72-1.811A9.29,9.29,0,0,1,4.95-3.63a6.473,6.473,0,0,1-1.061-1.9,6.907,6.907,0,0,1-1.055,2A9.041,9.041,0,0,1,1.083-1.67L.409-2.256A7.068,7.068,0,0,0,2.618-4.649a5.949,5.949,0,0,0,.826-2.968V-9.469h.873v1.811a5.608,5.608,0,0,0,.817,2.871A6.8,6.8,0,0,0,7.335-2.5Zm5.218-6.264v-.768h2.906v-1.465h.873v1.465h2.906v.768Zm8.771,2.221V-3.4h-.873v-6.85h.873v3.6H22.3v.8ZM15.3-3.686a3.424,3.424,0,0,1-2.045-.536,1.647,1.647,0,0,1-.738-1.392,1.662,1.662,0,0,1,.747-1.4,3.426,3.426,0,0,1,2.048-.542,3.426,3.426,0,0,1,2.048.542,1.662,1.662,0,0,1,.747,1.4,1.646,1.646,0,0,1-.747,1.386A3.448,3.448,0,0,1,15.3-3.686Zm.012-3.129a2.587,2.587,0,0,0-1.421.334,1,1,0,0,0-.513.867.984.984,0,0,0,.51.855,2.621,2.621,0,0,0,1.424.328,2.622,2.622,0,0,0,1.424-.328.984.984,0,0,0,.51-.855,1,1,0,0,0-.513-.867A2.587,2.587,0,0,0,15.313-6.814Zm1.9,7.787A5.582,5.582,0,0,1,14.484.431a1.654,1.654,0,0,1-.946-1.485,1.642,1.642,0,0,1,.943-1.479,5.631,5.631,0,0,1,2.736-.536,5.672,5.672,0,0,1,2.742.533A1.64,1.64,0,0,1,20.9-1.055,1.651,1.651,0,0,1,19.954.434,5.625,5.625,0,0,1,17.217.973Zm0-3.3q-2.748,0-2.748,1.271T17.217.229q2.766,0,2.766-1.283T17.217-2.326ZM-8.23,17.055V5.752h.873v11.3ZM-16.4,8.342V7.551h3v-1.8h.873v1.8h3.018v.791Zm3.434,5.906a2.94,2.94,0,0,1-2.051-.721,2.313,2.313,0,0,1-.8-1.787,2.325,2.325,0,0,1,.8-1.8,2.957,2.957,0,0,1,2.063-.721,2.944,2.944,0,0,1,2.054.724,2.337,2.337,0,0,1,.8,1.808,2.286,2.286,0,0,1-.8,1.787A3,3,0,0,1-12.97,14.248Zm.012-4.283a2.014,2.014,0,0,0-1.43.524,1.653,1.653,0,0,0-.562,1.251,1.634,1.634,0,0,0,.565,1.242,2.023,2.023,0,0,0,1.427.521,2.032,2.032,0,0,0,1.438-.524,1.637,1.637,0,0,0,.565-1.239,1.652,1.652,0,0,0-.565-1.248A2.026,2.026,0,0,0-12.959,9.965Zm14.048.744A4.19,4.19,0,0,1,.214,13.29a2.508,2.508,0,0,1-1.978.9,2.5,2.5,0,0,1-2.08-1.028,4.511,4.511,0,0,1-.791-2.815,4.528,4.528,0,0,1,.782-2.821A2.5,2.5,0,0,1-1.764,6.508a2.488,2.488,0,0,1,1.975.9A4.132,4.132,0,0,1,1.078,9.93H3.17V5.752h.873v11.3H3.17V10.709ZM-1.764,7.287a1.674,1.674,0,0,0-1.456.826,3.992,3.992,0,0,0-.548,2.232,3.96,3.96,0,0,0,.557,2.232,1.679,1.679,0,0,0,1.447.832,1.679,1.679,0,0,0,1.441-.844A3.94,3.94,0,0,0,.24,10.346,3.975,3.975,0,0,0-.311,8.113,1.676,1.676,0,0,0-1.764,7.287Zm16.439,5.244V5.752h.879v6.779Zm-1.166-.926a14.066,14.066,0,0,1-1.793.176q-.891.029-4.359.029V8.57h4.189V7H7.357V6.232h5.051V9.326H8.218v1.705q2.871,0,3.706-.032a10.037,10.037,0,0,0,1.456-.149Zm-1.559,5.332a5.415,5.415,0,0,1-2.742-.568,1.69,1.69,0,0,1,0-3.044,5.438,5.438,0,0,1,2.742-.565,5.392,5.392,0,0,1,2.742.571,1.684,1.684,0,0,1,0,3.035A5.389,5.389,0,0,1,11.951,16.938Zm0-3.434a4.674,4.674,0,0,0-2.065.36A1.037,1.037,0,0,0,9.9,15.833a4.686,4.686,0,0,0,2.054.36A4.607,4.607,0,0,0,14,15.83a1.038,1.038,0,0,0,.012-1.963A4.6,4.6,0,0,0,11.951,13.5Z" transform="translate(-1246 -5617)" fill="#4e443b"/>
    <path data-idr="Path_3461" data-name="Path 3461" d="M-4.211-3.819a7.336,7.336,0,0,0,.22,2.054.887.887,0,0,0,.9.712.874.874,0,0,0,.894-.712,7.6,7.6,0,0,0,.212-2.054A7.517,7.517,0,0,0-2.194-5.9a.867.867,0,0,0-.894-.677.879.879,0,0,0-.9.677A7.254,7.254,0,0,0-4.211-3.819Zm1.123-4.023A2.2,2.2,0,0,1-1-6.794,6.061,6.061,0,0,1-.4-3.819,6.028,6.028,0,0,1-1-.849,2.2,2.2,0,0,1-3.088.193,2.2,2.2,0,0,1-5.175-.849a6.028,6.028,0,0,1-.6-2.97,6.061,6.061,0,0,1,.6-2.976A2.2,2.2,0,0,1-3.088-7.842ZM.344,0A3.66,3.66,0,0,1,.7-1.531,4.328,4.328,0,0,1,2.25-3.18,11.344,11.344,0,0,0,3.62-4.265,1.6,1.6,0,0,0,4.1-5.382,1.238,1.238,0,0,0,3.824-6.2a.965.965,0,0,0-.784-.328.956.956,0,0,0-.951.521,2.584,2.584,0,0,0-.172.956H.43A3.759,3.759,0,0,1,.79-6.66,2.244,2.244,0,0,1,2.967-7.826a2.763,2.763,0,0,1,1.968.685,2.367,2.367,0,0,1,.731,1.813A2.451,2.451,0,0,1,5.15-3.792,5.142,5.142,0,0,1,4.036-2.8l-.613.435q-.576.408-.788.591a1.731,1.731,0,0,0-.357.424h3.4V0Z" transform="translate(-1246 -5669.623)" fill="#4e443b"/>
    <path data-idr="Path_3469" data-name="Path 3469" d="M-13.491-6.357v2.625h-.873v-6.516h.873v3.094h1.705v.8Zm-2.854,2.016A7.315,7.315,0,0,1-17.891-5.5,5.045,5.045,0,0,1-19-6.9a5.48,5.48,0,0,1-1.084,1.556,6.759,6.759,0,0,1-1.611,1.292l-.639-.6a5.6,5.6,0,0,0,2.068-1.711,3.81,3.81,0,0,0,.826-2.309V-9.861h.838v1.184a3.415,3.415,0,0,0,.835,2.168,5.09,5.09,0,0,0,2,1.529Zm-.639,5.3A5.057,5.057,0,0,1-19.7.349a1.826,1.826,0,0,1-.958-1.585A1.815,1.815,0,0,1-19.7-2.812a5.079,5.079,0,0,1,2.719-.609,5.112,5.112,0,0,1,2.725.606A1.812,1.812,0,0,1-13.3-1.236,1.824,1.824,0,0,1-14.255.352,5.09,5.09,0,0,1-16.983.961Zm0-3.639a4.236,4.236,0,0,0-2.03.4,1.182,1.182,0,0,0-.718,1.043A1.189,1.189,0,0,0-19.01-.182a4.239,4.239,0,0,0,2.027.4,4.258,4.258,0,0,0,2.045-.4,1.191,1.191,0,0,0,.721-1.052,1.185,1.185,0,0,0-.721-1.04A4.258,4.258,0,0,0-16.983-2.678Zm7.322-6.5v-.779h7.922v.779ZM-9.8-5.965v-.756h1.688L-8.22-8.771h.861l.123,2.051h3.07l.123-2.051h.861l-.105,2.051H-1.6v.756ZM-9.216.721V-2.865h3.07V-4.178h-4.8v-.779H-.456v.779h-4.8v1.313h3.07V.721Zm6.17-2.807H-8.354V-.047h5.309Zm11.892.094V-6.85H6.2v-.785H8.846v-2.613H9.72v8.256ZM6.591-3.879A7.522,7.522,0,0,1,5.006-5.206,6.059,6.059,0,0,1,3.948-6.686a6.852,6.852,0,0,1-1.131,1.72,6.089,6.089,0,0,1-1.582,1.38L.6-4.189A5.539,5.539,0,0,0,2.65-6a4.194,4.194,0,0,0,.841-2.429V-9.879h.855v1.453A3.725,3.725,0,0,0,5.22-6.161,5.369,5.369,0,0,0,7.177-4.512ZM2.759.686V-2.906h.879V-.082h6.381V.686ZM20.375-3.721V-6.926H17.739v-.779h2.637v-2.543h.879v6.527ZM17.95-4.365a7.118,7.118,0,0,1-1.541-1.166,5.083,5.083,0,0,1-1.084-1.406,5.985,5.985,0,0,1-1.113,1.579,6.594,6.594,0,0,1-1.576,1.28l-.621-.6a5.42,5.42,0,0,0,2.033-1.682,3.817,3.817,0,0,0,.82-2.314v-.287H12.383v-.779H18.2v.779H15.717v.287a3.381,3.381,0,0,0,.85,2.168A5.056,5.056,0,0,0,18.541-5ZM17.786.891A5.1,5.1,0,0,1,15.052.278a1.825,1.825,0,0,1-.964-1.585,1.812,1.812,0,0,1,.961-1.579,5.139,5.139,0,0,1,2.736-.606,5.139,5.139,0,0,1,2.736.606,1.812,1.812,0,0,1,.961,1.579A1.825,1.825,0,0,1,20.519.278,5.1,5.1,0,0,1,17.786.891Zm0-3.639a4.179,4.179,0,0,0-2.051.407,1.19,1.19,0,0,0-.709,1.034A1.187,1.187,0,0,0,15.738-.27a4.208,4.208,0,0,0,2.048.4,4.237,4.237,0,0,0,2.045-.4,1.185,1.185,0,0,0,.715-1.04,1.187,1.187,0,0,0-.709-1.037A4.2,4.2,0,0,0,17.786-2.748ZM-13.549,11.125v5.93h-.873V5.752h.873v4.594h1.957v.779Zm-2.531,3.064a9.29,9.29,0,0,1-1.77-1.819,6.473,6.473,0,0,1-1.061-1.9,6.907,6.907,0,0,1-1.055,2,9.041,9.041,0,0,1-1.752,1.86l-.674-.586a7.068,7.068,0,0,0,2.209-2.394,5.949,5.949,0,0,0,.826-2.968V6.531h.873V8.342a5.608,5.608,0,0,0,.817,2.871,6.8,6.8,0,0,0,2.2,2.291Zm13.99-3.457v1.547h-.873V5.752h.873V7.434H-.386V8.2H-2.091V9.965H-.386v.768Zm-5.578.768a2.853,2.853,0,0,1-2.065-.771,2.583,2.583,0,0,1-.8-1.942A2.576,2.576,0,0,1-9.74,6.854a2.855,2.855,0,0,1,2.071-.768,2.892,2.892,0,0,1,2.08.765,2.56,2.56,0,0,1,.8,1.937,2.569,2.569,0,0,1-.806,1.948A2.894,2.894,0,0,1-7.669,11.5Zm0-4.67a1.955,1.955,0,0,0-1.441.548,1.9,1.9,0,0,0-.551,1.409,1.917,1.917,0,0,0,.551,1.421,1.955,1.955,0,0,0,1.441.548,1.967,1.967,0,0,0,1.45-.551,1.914,1.914,0,0,0,.554-1.418,1.9,1.9,0,0,0-.554-1.4A1.961,1.961,0,0,0-7.669,6.83Zm2.1,10.1a4.988,4.988,0,0,1-2.7-.606,1.864,1.864,0,0,1-.94-1.638,1.853,1.853,0,0,1,.938-1.629,5,5,0,0,1,2.7-.6,5.013,5.013,0,0,1,2.713.6,1.856,1.856,0,0,1,.932,1.629,1.868,1.868,0,0,1-.935,1.635A4.977,4.977,0,0,1-5.565,16.926Zm0-3.732a4.064,4.064,0,0,0-2.01.4,1.217,1.217,0,0,0-.691,1.087,1.228,1.228,0,0,0,.688,1.1,4.037,4.037,0,0,0,2.013.4,4.062,4.062,0,0,0,2.024-.407,1.229,1.229,0,0,0,.694-1.093,1.218,1.218,0,0,0-.7-1.084A4.089,4.089,0,0,0-5.565,13.193ZM.843,7.6V6.83h2.9V5.658H4.61V6.83H7.5V7.6Zm8.637,2.953v2.7H8.618v-7.5h.861v4.02h1.693v.779Zm-1.57,2.314q-2.754.182-7.383.182l-.082-.756q1.775,0,3.287-.035v-.9a3.311,3.311,0,0,1-1.758-.533,1.373,1.373,0,0,1-.6-1.143,1.405,1.405,0,0,1,.744-1.245,3.918,3.918,0,0,1,2.063-.46,3.805,3.805,0,0,1,2.039.475,1.413,1.413,0,0,1,.756,1.23,1.372,1.372,0,0,1-.621,1.154,3.3,3.3,0,0,1-1.752.521v.891q1.992-.023,3.264-.105ZM4.177,8.693a3.1,3.1,0,0,0-1.453.27.759.759,0,0,0,.023,1.43,3.125,3.125,0,0,0,1.43.27A3.117,3.117,0,0,0,5.6,10.4a.764.764,0,0,0,.023-1.433A3.064,3.064,0,0,0,4.177,8.693Zm4.441,8.361V14.594H2.2v-.768H9.479v3.229Zm11.757-4.775V9.074H17.739V8.295h2.637V5.752h.879v6.527Zm-2.426-.645a7.118,7.118,0,0,1-1.541-1.166,5.083,5.083,0,0,1-1.084-1.406,5.985,5.985,0,0,1-1.113,1.579,6.594,6.594,0,0,1-1.576,1.28l-.621-.6a5.42,5.42,0,0,0,2.033-1.682,3.817,3.817,0,0,0,.82-2.314V7.035H12.383V6.256H18.2v.779H15.717v.287a3.381,3.381,0,0,0,.85,2.168A5.056,5.056,0,0,0,18.541,11Zm-.164,5.256a5.1,5.1,0,0,1-2.733-.612,1.782,1.782,0,0,1,0-3.164,5.139,5.139,0,0,1,2.736-.606,5.139,5.139,0,0,1,2.736.606,1.782,1.782,0,0,1,0,3.164A5.1,5.1,0,0,1,17.786,16.891Zm0-3.639a4.179,4.179,0,0,0-2.051.407,1.11,1.11,0,0,0,0,2.071,4.208,4.208,0,0,0,2.048.4,4.237,4.237,0,0,0,2.045-.4,1.114,1.114,0,0,0,.006-2.077A4.2,4.2,0,0,0,17.786,13.252Z" transform="translate(-1153 -5617)" fill="#4e443b"/>
    <path data-idr="Path_3462" data-name="Path 3462" d="M-4.211-3.819a7.336,7.336,0,0,0,.22,2.054.887.887,0,0,0,.9.712.874.874,0,0,0,.894-.712,7.6,7.6,0,0,0,.212-2.054A7.517,7.517,0,0,0-2.194-5.9a.867.867,0,0,0-.894-.677.879.879,0,0,0-.9.677A7.254,7.254,0,0,0-4.211-3.819Zm1.123-4.023A2.2,2.2,0,0,1-1-6.794,6.061,6.061,0,0,1-.4-3.819,6.028,6.028,0,0,1-1-.849,2.2,2.2,0,0,1-3.088.193,2.2,2.2,0,0,1-5.175-.849a6.028,6.028,0,0,1-.6-2.97,6.061,6.061,0,0,1,.6-2.976A2.2,2.2,0,0,1-3.088-7.842ZM1.794-2.39a1.754,1.754,0,0,0,.15.773,1.028,1.028,0,0,0,1.013.564,1.121,1.121,0,0,0,.785-.309,1.149,1.149,0,0,0,.335-.889,1,1,0,0,0-.621-1.026,3.144,3.144,0,0,0-1.114-.145v-1.1A2.879,2.879,0,0,0,3.38-4.662a.9.9,0,0,0,.508-.913,1.022,1.022,0,0,0-.26-.725A.949.949,0,0,0,2.9-6.58a.924.924,0,0,0-.8.344,1.461,1.461,0,0,0-.244.918H.43a3.847,3.847,0,0,1,.2-1.1,2.479,2.479,0,0,1,.59-.843,2.056,2.056,0,0,1,.714-.419,3.085,3.085,0,0,1,1.014-.145,2.7,2.7,0,0,1,1.8.577A1.924,1.924,0,0,1,5.43-5.7a1.713,1.713,0,0,1-.408,1.16,1.394,1.394,0,0,1-.537.4,1.1,1.1,0,0,1,.6.36,1.922,1.922,0,0,1,.585,1.482A2.5,2.5,0,0,1,4.988-.556,2.606,2.606,0,0,1,2.962.193a2.45,2.45,0,0,1-2.3-1.08A3.207,3.207,0,0,1,.29-2.39Z" transform="translate(-1153 -5669.623)" fill="#4e443b"/>
    <path data-idr="Path_3468" data-name="Path 3468" d="M-13.62-3.973V-6.445h-1.318v2.473h-.879V-10.02h.879v2.783h1.318v-3.012h.873v6.275Zm-3.48-.539a5.5,5.5,0,0,1-1.324-1.131,5.052,5.052,0,0,1-.92-1.342,4.763,4.763,0,0,1-.882,1.477,5.714,5.714,0,0,1-1.409,1.283l-.627-.586a4.719,4.719,0,0,0,1.781-1.617,3.977,3.977,0,0,0,.691-2.227v-1.2h.855v1.2a3.477,3.477,0,0,0,.709,2.063,4.246,4.246,0,0,0,1.688,1.43ZM-19.825.744v-4.09h7.078V.744Zm6.217-3.322h-5.35V-.023h5.35ZM-9.661-9.24V-10h7.922v.756ZM-9.8-6.311v-.756h1.688L-8.22-8.83h.861l.123,1.764h3.07l.123-1.764h.861l-.105,1.764H-1.6v.756Zm-1.143,1.787V-5.3H-.456v.779Zm1.729,5.3V-1.775h6.17v-1h-6.17v-.768h7.031v2.52h-6.17V0h6.469V.779Zm18.361.275v-11.3h.873v11.3ZM7.095.709V-5.578H5.126v-.779H7.095V-10.02h.861V.709Zm-1.553-2.3A8.112,8.112,0,0,1,3.421-5.127a6.563,6.563,0,0,1-.853,1.9A8.964,8.964,0,0,1,1.153-1.441L.468-1.992A5.9,5.9,0,0,0,2.231-4.216,6.572,6.572,0,0,0,3-7.189V-8.484H.889v-.779H6v.779H3.866v1.307a6.322,6.322,0,0,0,.688,2.813A6.623,6.623,0,0,0,6.2-2.162ZM20.709-6.357v2.648h-.873v-6.539h.873v3.094h1.705v.8ZM17.832-4.395A5.953,5.953,0,0,1,15.2-6.961a5.6,5.6,0,0,1-1.078,1.544,6.808,6.808,0,0,1-1.617,1.3l-.627-.592a5.8,5.8,0,0,0,2.08-1.705,3.645,3.645,0,0,0,.8-2.221v-.334h-2.5v-.779H18.1v.779H15.6v.334a3.216,3.216,0,0,0,.817,2.1A5.229,5.229,0,0,0,18.43-5.051Zm2,5.449V-2.291H13.461v-.791h7.248V1.055Z" transform="translate(-1065 -5609)" fill="#4e443b"/>
    <path data-idr="Path_3463" data-name="Path 3463" d="M-4.211-3.819a7.336,7.336,0,0,0,.22,2.054.887.887,0,0,0,.9.712.874.874,0,0,0,.894-.712,7.6,7.6,0,0,0,.212-2.054A7.517,7.517,0,0,0-2.194-5.9a.867.867,0,0,0-.894-.677.879.879,0,0,0-.9.677A7.254,7.254,0,0,0-4.211-3.819Zm1.123-4.023A2.2,2.2,0,0,1-1-6.794,6.061,6.061,0,0,1-.4-3.819,6.028,6.028,0,0,1-1-.849,2.2,2.2,0,0,1-3.088.193,2.2,2.2,0,0,1-5.175-.849a6.028,6.028,0,0,1-.6-2.97,6.061,6.061,0,0,1,.6-2.976A2.2,2.2,0,0,1-3.088-7.842ZM5.752-1.676H4.872V0h-1.5V-1.676H.29V-3.013L3.153-7.74H4.872v4.866h.881Zm-2.379-1.2V-6.228L1.429-2.874Z" transform="translate(-1065 -5669.623)" fill="#4e443b"/>
    <path data-idr="Path_3467" data-name="Path 3467" d="M-13.743-3.662v-2.83h-1.318v2.531h-.873V-10.02h.873v2.771h1.318v-3h.879v6.586Zm-3.475-.85a5.5,5.5,0,0,1-1.324-1.131,5.052,5.052,0,0,1-.92-1.342,4.681,4.681,0,0,1-.888,1.491,5.673,5.673,0,0,1-1.409,1.269l-.621-.586a4.77,4.77,0,0,0,1.8-1.644,3.982,3.982,0,0,0,.683-2.2v-1.2h.838v1.2a3.463,3.463,0,0,0,.712,2.065,4.253,4.253,0,0,0,1.7,1.427Zm.656,5.373a5.374,5.374,0,0,1-2.774-.6,1.78,1.78,0,0,1-.993-1.556,1.786,1.786,0,0,1,.993-1.559,5.352,5.352,0,0,1,2.774-.6,5.379,5.379,0,0,1,2.786.6,1.786,1.786,0,0,1,.993,1.559A1.78,1.78,0,0,1-13.775.261,5.4,5.4,0,0,1-16.561.861Zm0-3.574a4.472,4.472,0,0,0-2.106.4A1.172,1.172,0,0,0-19.4-1.295a1.164,1.164,0,0,0,.741,1.017,4.535,4.535,0,0,0,2.1.4,4.586,4.586,0,0,0,2.1-.393,1.161,1.161,0,0,0,.747-1.02,1.17,1.17,0,0,0-.744-1.02A4.525,4.525,0,0,0-16.561-2.713Zm14.47-3.229v3.914h-.873v-8.221h.873v3.527H-.386v.779ZM-4.956-3.9A6.693,6.693,0,0,1-6.491-5.121,5.544,5.544,0,0,1-7.6-6.609a5.473,5.473,0,0,1-1.1,1.655,6.47,6.47,0,0,1-1.6,1.345l-.639-.6A5.437,5.437,0,0,0-8.9-5.95a4.134,4.134,0,0,0,.864-2.4V-9.8H-7.2V-8.35a3.609,3.609,0,0,0,.85,2.238A5.025,5.025,0,0,0-4.37-4.535ZM-8.929.662V-2.865h.891v2.73h6.322v.8ZM9.432-5.279v3.457H8.554v-8.426h.879V-6.07h1.693v.791ZM6.96-9.48a36.711,36.711,0,0,1-.182,3.949l-.85-.059A31.141,31.141,0,0,0,6.087-8.7H1.335V-9.48Zm.768,5.6q-.791.064-3.337.129T.468-3.686L.386-4.465q1.5,0,2.783-.035V-7.008h.873v2.5q2.186-.029,3.639-.123ZM2.378.674V-2.59h.873V-.105h6.48V.674Zm17.88.381v-11.3h.873v11.3ZM12.705-1.383V-5.865h4.3V-8.473h-4.3v-.779h5.174v4.143H13.584v2.947a35.107,35.107,0,0,0,5.385-.24l.1.756A45.66,45.66,0,0,1,12.705-1.383Z" transform="translate(-992 -5609)" fill="#4e443b"/>
    <path data-idr="Path_3464" data-name="Path 3464" d="M-4.211-3.819a7.336,7.336,0,0,0,.22,2.054.887.887,0,0,0,.9.712.874.874,0,0,0,.894-.712,7.6,7.6,0,0,0,.212-2.054A7.517,7.517,0,0,0-2.194-5.9a.867.867,0,0,0-.894-.677.879.879,0,0,0-.9.677A7.254,7.254,0,0,0-4.211-3.819Zm1.123-4.023A2.2,2.2,0,0,1-1-6.794,6.061,6.061,0,0,1-.4-3.819,6.028,6.028,0,0,1-1-.849,2.2,2.2,0,0,1-3.088.193,2.2,2.2,0,0,1-5.175-.849a6.028,6.028,0,0,1-.6-2.97,6.061,6.061,0,0,1,.6-2.976A2.2,2.2,0,0,1-3.088-7.842Zm4.9,5.758a1.479,1.479,0,0,0,.348.771.985.985,0,0,0,.75.271,1.011,1.011,0,0,0,.865-.4,1.642,1.642,0,0,0,.3-1.007A1.753,1.753,0,0,0,3.8-3.456a.975.975,0,0,0-.868-.411,1.49,1.49,0,0,0-.482.07.959.959,0,0,0-.541.478L.534-3.384l.547-4.3H5.366v1.3H2.185l-.279,1.7a3.194,3.194,0,0,1,.552-.306,2.336,2.336,0,0,1,.81-.124,2.431,2.431,0,0,1,1.684.65,2.419,2.419,0,0,1,.719,1.891A2.968,2.968,0,0,1,4.98-.645,2.516,2.516,0,0,1,2.909.2a2.749,2.749,0,0,1-1.824-.6A2.317,2.317,0,0,1,.29-2.084Z" transform="translate(-992 -5669.623)" fill="#4e443b"/>
    <path data-idr="Path_3466" data-name="Path 3466" d="M-2.091-6.768v2.291h-.873v-5.771h.873v2.7H-.386v.779ZM-3.708-5.35a38.953,38.953,0,0,1-6.275.275V-9.85h.873v4h.773a29.007,29.007,0,0,0,4.523-.24ZM-8.952.791V-3.861h.861V-2.2h5.139V-3.861h.861V.791Zm6-2.221H-8.091V.012h5.139ZM1.739-9.182v-.779H9.661v.779ZM1.6-5.965v-.756H3.286L3.18-8.771h.861l.123,2.051h3.07l.123-2.051H8.22L8.114-6.721H9.8v.756ZM2.184.721V-2.865h3.07V-4.178H.456v-.779H10.944v.779h-4.8v1.313h3.07V.721Zm6.17-2.807H3.046V-.047H8.354Z" transform="translate(-924 -5609)" fill="#4e443b"/>
    <path data-idr="Path_3465" data-name="Path 3465" d="M-4.211-3.819a7.336,7.336,0,0,0,.22,2.054.887.887,0,0,0,.9.712.874.874,0,0,0,.894-.712,7.6,7.6,0,0,0,.212-2.054A7.517,7.517,0,0,0-2.194-5.9a.867.867,0,0,0-.894-.677.879.879,0,0,0-.9.677A7.254,7.254,0,0,0-4.211-3.819Zm1.123-4.023A2.2,2.2,0,0,1-1-6.794,6.061,6.061,0,0,1-.4-3.819,6.028,6.028,0,0,1-1-.849,2.2,2.2,0,0,1-3.088.193,2.2,2.2,0,0,1-5.175-.849a6.028,6.028,0,0,1-.6-2.97,6.061,6.061,0,0,1,.6-2.976A2.2,2.2,0,0,1-3.088-7.842ZM1.88-2.465a1.527,1.527,0,0,0,.338,1.026,1.079,1.079,0,0,0,.859.4.954.954,0,0,0,.8-.384,1.6,1.6,0,0,0,.293-1A1.491,1.491,0,0,0,3.84-3.467a1.066,1.066,0,0,0-.816-.363,1.09,1.09,0,0,0-.693.236A1.338,1.338,0,0,0,1.88-2.465ZM4.034-5.828a.781.781,0,0,0-.145-.414.841.841,0,0,0-.747-.365,1.1,1.1,0,0,0-1.063.838A5.2,5.2,0,0,0,1.842-4.4,1.718,1.718,0,0,1,2.5-4.9a2.229,2.229,0,0,1,.859-.156,2.233,2.233,0,0,1,1.7.7,2.518,2.518,0,0,1,.663,1.8,3.037,3.037,0,0,1-.65,1.923A2.4,2.4,0,0,1,3.056.2a2.324,2.324,0,0,1-2.17-1.23A5.015,5.015,0,0,1,.344-3.507a11.284,11.284,0,0,1,.075-1.45A4.435,4.435,0,0,1,.94-6.612a2.666,2.666,0,0,1,.873-.908A2.354,2.354,0,0,1,3.1-7.863a2.557,2.557,0,0,1,1.729.556,2.114,2.114,0,0,1,.725,1.48Z" transform="translate(-924 -5669.623)" fill="#4e443b"/>
    <rect data-idr="Rectangle_131" data-name="Rectangle 131" width="151.963" height="20.292" transform="translate(-1365 -5590)" fill="#f6f4e8"/>
    <path data-idr="Path_3472" data-name="Path 3472" d="M-13.2-5.3v1.365h-.873v-6.311h.873V-8.6H-11.5v.768H-13.2V-6.07H-11.5V-5.3Zm-5.578.814a2.844,2.844,0,0,1-2.062-.776,2.6,2.6,0,0,1-.8-1.948,2.591,2.591,0,0,1,.8-1.939,2.845,2.845,0,0,1,2.068-.773,2.882,2.882,0,0,1,2.077.771A2.574,2.574,0,0,1-15.9-7.213a2.583,2.583,0,0,1-.809,1.954A2.884,2.884,0,0,1-18.782-4.488Zm0-4.693a1.946,1.946,0,0,0-1.438.554,1.916,1.916,0,0,0-.554,1.415,1.917,1.917,0,0,0,.551,1.421,1.955,1.955,0,0,0,1.441.548,1.967,1.967,0,0,0,1.45-.551,1.914,1.914,0,0,0,.554-1.418,1.921,1.921,0,0,0-.554-1.409A1.95,1.95,0,0,0-18.782-9.182Zm4.705,10.236V-2.531h-6.375v-.779H-13.2V1.055Zm7.986-7.377a1.6,1.6,0,0,0-.457-1.213,1.676,1.676,0,0,0-1.213-.439A2.332,2.332,0,0,0-8.839-7.7a3.374,3.374,0,0,0-.973.765V-7.939a2.956,2.956,0,0,1,2.168-.826,2.493,2.493,0,0,1,1.784.639A2.256,2.256,0,0,1-5.183-6.4a3.036,3.036,0,0,1-.434,1.632A5.386,5.386,0,0,1-7.093-3.328,14.248,14.248,0,0,0-8.461-2.279,2.41,2.41,0,0,0-9-1.6a1.719,1.719,0,0,0-.155.759h4.184V0h-5.174V-.422a3.321,3.321,0,0,1,.2-1.21,3.012,3.012,0,0,1,.656-.979A10.258,10.258,0,0,1-7.819-3.791,5.21,5.21,0,0,0-6.492-5.007,2.248,2.248,0,0,0-6.091-6.322ZM2.956-4.5A2.122,2.122,0,0,1,2.47-3.132a1.537,1.537,0,0,1-1.189.478A2.921,2.921,0,0,1-.313-3.322a1.83,1.83,0,0,0-.961-.4q-.855,0-.879,1.066h-.785a2.017,2.017,0,0,1,.483-1.362,1.553,1.553,0,0,1,1.187-.483,2.559,2.559,0,0,1,1.412.539,2.559,2.559,0,0,0,1.189.545.718.718,0,0,0,.6-.3A1.311,1.311,0,0,0,2.171-4.5ZM4.983-1.348a3.135,3.135,0,0,0,1.992.7A2.214,2.214,0,0,0,8.432-1.1a1.519,1.519,0,0,0,.554-1.236q0-1.729-2.432-1.729H5.839v-.791h.68q2.162,0,2.162-1.617,0-1.494-1.646-1.494a2.74,2.74,0,0,0-1.717.627v-.932a3.722,3.722,0,0,1,1.951-.492,2.519,2.519,0,0,1,1.7.568A1.857,1.857,0,0,1,9.63-6.715,2.127,2.127,0,0,1,7.9-4.518V-4.5a2.272,2.272,0,0,1,1.485.65A1.944,1.944,0,0,1,9.94-2.437,2.313,2.313,0,0,1,9.088-.557a3.29,3.29,0,0,1-2.165.7A3.59,3.59,0,0,1,4.983-.316ZM20.089-4.43v-5.818h.891V-4.43Zm-4.74-.4a2.927,2.927,0,0,1-2.071-.735,2.44,2.44,0,0,1-.794-1.872,2.415,2.415,0,0,1,.794-1.86,2.941,2.941,0,0,1,2.071-.729A2.947,2.947,0,0,1,17.42-9.3a2.409,2.409,0,0,1,.8,1.857,2.43,2.43,0,0,1-.8,1.869A2.936,2.936,0,0,1,15.349-4.834Zm0-4.441a2.05,2.05,0,0,0-1.453.5,1.733,1.733,0,0,0-.539,1.333A1.778,1.778,0,0,0,13.9-6.091a2.021,2.021,0,0,0,1.453.513A2.022,2.022,0,0,0,16.8-6.091a1.778,1.778,0,0,0,.539-1.351A1.733,1.733,0,0,0,16.8-8.774,2.05,2.05,0,0,0,15.349-9.275ZM14.007.791V-1.945h6.105V-3.023H14.007V-3.8h6.973v2.613H14.868v1.2H21.29V.791Z" transform="translate(-1289 -5576)" fill="#4e443b"/>
    <path data-idr="Path_3384" data-name="Path 3384" d="M0,0H176V20.292H0Z" transform="translate(-1211 -5590)" fill="#f6f4e8"/>
    <path data-idr="Path_3473" data-name="Path 3473" d="M-19.2-5.3v1.365h-.873v-6.311h.873V-8.6H-17.5v.768H-19.2V-6.07H-17.5V-5.3Zm-5.578.814a2.844,2.844,0,0,1-2.062-.776,2.6,2.6,0,0,1-.8-1.948,2.591,2.591,0,0,1,.8-1.939,2.845,2.845,0,0,1,2.068-.773,2.882,2.882,0,0,1,2.077.771A2.574,2.574,0,0,1-21.9-7.213a2.583,2.583,0,0,1-.809,1.954A2.884,2.884,0,0,1-24.782-4.488Zm0-4.693a1.946,1.946,0,0,0-1.438.554,1.916,1.916,0,0,0-.554,1.415,1.917,1.917,0,0,0,.551,1.421,1.955,1.955,0,0,0,1.441.548,1.967,1.967,0,0,0,1.45-.551,1.914,1.914,0,0,0,.554-1.418,1.921,1.921,0,0,0-.554-1.409A1.95,1.95,0,0,0-24.782-9.182Zm4.705,10.236V-2.531h-6.375v-.779H-19.2V1.055ZM-12.63,0h-.932V-7.447a3.619,3.619,0,0,1-.879.583,5.144,5.144,0,0,1-1.113.437v-1a6.531,6.531,0,0,0,1.383-.592A6.36,6.36,0,0,0-13-8.812h.375Zm9.586-4.5A2.122,2.122,0,0,1-3.53-3.132a1.537,1.537,0,0,1-1.189.478,2.921,2.921,0,0,1-1.594-.668,1.83,1.83,0,0,0-.961-.4q-.855,0-.879,1.066h-.785a2.017,2.017,0,0,1,.483-1.362,1.553,1.553,0,0,1,1.187-.483,2.559,2.559,0,0,1,1.412.539,2.559,2.559,0,0,0,1.189.545.718.718,0,0,0,.6-.3A1.311,1.311,0,0,0-3.829-4.5ZM2.927-6.322A1.6,1.6,0,0,0,2.47-7.535a1.676,1.676,0,0,0-1.213-.439A2.332,2.332,0,0,0,.179-7.7a3.374,3.374,0,0,0-.973.765V-7.939a2.956,2.956,0,0,1,2.168-.826,2.493,2.493,0,0,1,1.784.639A2.256,2.256,0,0,1,3.835-6.4,3.036,3.036,0,0,1,3.4-4.772,5.386,5.386,0,0,1,1.925-3.328,14.248,14.248,0,0,0,.557-2.279,2.41,2.41,0,0,0,.018-1.6a1.719,1.719,0,0,0-.155.759H4.046V0H-1.128V-.422a3.321,3.321,0,0,1,.2-1.21A3.012,3.012,0,0,1-.275-2.61,10.258,10.258,0,0,1,1.2-3.791,5.21,5.21,0,0,0,2.525-5.007,2.248,2.248,0,0,0,2.927-6.322ZM14.259,1.055V-4.559H12.853V.709h-.861V-10.02h.861v4.682h1.406v-4.91h.873v11.3ZM10.585-9.264A9.315,9.315,0,0,1,6.337-1.646l-.7-.6A7.628,7.628,0,0,0,8.358-4.828,7.4,7.4,0,0,0,9.659-8.5H6.313v-.768ZM26.159-3.539v-.445h-2.4v-.721h2.4v-5.543h.879v6.709ZM21.671-6.586a3.819,3.819,0,0,1-2.062-.48,1.494,1.494,0,0,1-.756-1.324,1.485,1.485,0,0,1,.762-1.321,3.844,3.844,0,0,1,2.057-.478,3.878,3.878,0,0,1,2.06.475A1.482,1.482,0,0,1,24.5-8.391a1.489,1.489,0,0,1-.759,1.33A3.873,3.873,0,0,1,21.671-6.586Zm0-2.895a2.879,2.879,0,0,0-1.418.3.891.891,0,0,0-.521.794.894.894,0,0,0,.524.8,2.882,2.882,0,0,0,1.415.3A2.956,2.956,0,0,0,23.1-7.588a.891.891,0,0,0,.53-.8.89.89,0,0,0-.527-.794A2.928,2.928,0,0,0,21.671-9.48Zm3.627,4.1q-2.221.146-3.193.158v1.635h-.861v-1.6l-3.205.111L17.9-5.854q2.613,0,7.336-.252ZM19.755.838v-2.35h6.428V-2.3H19.755V-3.07H27.05V-.779H20.616V.07h6.732V.838Z" transform="translate(-1123 -5576)" fill="#4e443b"/>
    <path data-idr="Path_3383" data-name="Path 3383" d="M10,0H144.443V20.292H10Z" transform="translate(-1043 -5590)" fill="#f6f4e8"/>
    <path data-idr="Path_3474" data-name="Path 3474" d="M-19.2-5.3v1.365h-.873v-6.311h.873V-8.6H-17.5v.768H-19.2V-6.07H-17.5V-5.3Zm-5.578.814a2.844,2.844,0,0,1-2.062-.776,2.6,2.6,0,0,1-.8-1.948,2.591,2.591,0,0,1,.8-1.939,2.845,2.845,0,0,1,2.068-.773,2.882,2.882,0,0,1,2.077.771A2.574,2.574,0,0,1-21.9-7.213a2.583,2.583,0,0,1-.809,1.954A2.884,2.884,0,0,1-24.782-4.488Zm0-4.693a1.946,1.946,0,0,0-1.438.554,1.916,1.916,0,0,0-.554,1.415,1.917,1.917,0,0,0,.551,1.421,1.955,1.955,0,0,0,1.441.548,1.967,1.967,0,0,0,1.45-.551,1.914,1.914,0,0,0,.554-1.418,1.921,1.921,0,0,0-.554-1.409A1.95,1.95,0,0,0-24.782-9.182Zm4.705,10.236V-2.531h-6.375v-.779H-19.2V1.055Zm4.043-2.4a3.135,3.135,0,0,0,1.992.7A2.214,2.214,0,0,0-12.586-1.1a1.519,1.519,0,0,0,.554-1.236q0-1.729-2.432-1.729h-.715v-.791h.68q2.162,0,2.162-1.617,0-1.494-1.646-1.494a2.74,2.74,0,0,0-1.717.627v-.932a3.722,3.722,0,0,1,1.951-.492,2.519,2.519,0,0,1,1.7.568,1.857,1.857,0,0,1,.665,1.482,2.127,2.127,0,0,1-1.729,2.2V-4.5a2.272,2.272,0,0,1,1.485.65,1.944,1.944,0,0,1,.554,1.412A2.313,2.313,0,0,1-11.93-.557a3.29,3.29,0,0,1-2.165.7,3.59,3.59,0,0,1-1.939-.463ZM-3.044-4.5A2.122,2.122,0,0,1-3.53-3.132a1.537,1.537,0,0,1-1.189.478,2.921,2.921,0,0,1-1.594-.668,1.83,1.83,0,0,0-.961-.4q-.855,0-.879,1.066h-.785a2.017,2.017,0,0,1,.483-1.362,1.553,1.553,0,0,1,1.187-.483,2.559,2.559,0,0,1,1.412.539,2.559,2.559,0,0,0,1.189.545.718.718,0,0,0,.6-.3A1.311,1.311,0,0,0-3.829-4.5ZM3.272-8.625v5.7H4.409v.844H3.272V0h-.92V-2.086H-1.7v-.791A32.046,32.046,0,0,0,.633-5.83,18.134,18.134,0,0,0,2.276-8.625Zm-3.9,5.7H2.353V-7.184A26.423,26.423,0,0,1,0-3.715ZM14.259,1.055V-4.559H12.853V.709h-.861V-10.02h.861v4.682h1.406v-4.91h.873v11.3ZM10.585-9.264A9.315,9.315,0,0,1,6.337-1.646l-.7-.6A7.628,7.628,0,0,0,8.358-4.828,7.4,7.4,0,0,0,9.659-8.5H6.313v-.768ZM26.159-3.539v-.445h-2.4v-.721h2.4v-5.543h.879v6.709ZM21.671-6.586a3.819,3.819,0,0,1-2.062-.48,1.494,1.494,0,0,1-.756-1.324,1.485,1.485,0,0,1,.762-1.321,3.844,3.844,0,0,1,2.057-.478,3.878,3.878,0,0,1,2.06.475A1.482,1.482,0,0,1,24.5-8.391a1.489,1.489,0,0,1-.759,1.33A3.873,3.873,0,0,1,21.671-6.586Zm0-2.895a2.879,2.879,0,0,0-1.418.3.891.891,0,0,0-.521.794.894.894,0,0,0,.524.8,2.882,2.882,0,0,0,1.415.3A2.956,2.956,0,0,0,23.1-7.588a.891.891,0,0,0,.53-.8.89.89,0,0,0-.527-.794A2.928,2.928,0,0,0,21.671-9.48Zm3.627,4.1q-2.221.146-3.193.158v1.635h-.861v-1.6l-3.205.111L17.9-5.854q2.613,0,7.336-.252ZM19.755.838v-2.35h6.428V-2.3H19.755V-3.07H27.05V-.779H20.616V.07h6.732V.838Z" transform="translate(-966 -5576)" fill="#4e443b"/>
    <path data-idr="Icon_awesome-user-tie" data-name="Icon awesome-user-tie" d="M10.1,11.546A5.773,5.773,0,1,0,4.33,5.773,5.772,5.772,0,0,0,10.1,11.546Zm4.321,1.47-2.156,8.632-1.443-6.134,1.443-2.526H7.938l1.443,2.526L7.938,21.648,5.782,13.016A6.051,6.051,0,0,0,0,19.05v1.876a2.165,2.165,0,0,0,2.165,2.165H18.04A2.165,2.165,0,0,0,20.2,20.926V19.05a6.051,6.051,0,0,0-5.782-6.034Z" transform="translate(-1256 -5659)" fill="#9a2327"/>
    <path data-idr="Icon_awesome-clipboard-list" data-name="Icon awesome-clipboard-list" d="M15.154,2.886H11.546a2.886,2.886,0,1,0-5.773,0H2.165A2.165,2.165,0,0,0,0,5.051V20.926a2.165,2.165,0,0,0,2.165,2.165H15.154a2.165,2.165,0,0,0,2.165-2.165V5.051A2.165,2.165,0,0,0,15.154,2.886ZM4.33,19.122A1.082,1.082,0,1,1,5.412,18.04,1.08,1.08,0,0,1,4.33,19.122Zm0-4.33A1.082,1.082,0,1,1,5.412,13.71,1.08,1.08,0,0,1,4.33,14.793Zm0-4.33A1.082,1.082,0,1,1,5.412,9.381,1.08,1.08,0,0,1,4.33,10.463ZM8.659,1.8A1.082,1.082,0,1,1,7.577,2.886,1.08,1.08,0,0,1,8.659,1.8Zm5.773,16.6a.362.362,0,0,1-.361.361H7.577a.362.362,0,0,1-.361-.361v-.722a.362.362,0,0,1,.361-.361h6.494a.362.362,0,0,1,.361.361Zm0-4.33a.362.362,0,0,1-.361.361H7.577a.362.362,0,0,1-.361-.361V13.35a.362.362,0,0,1,.361-.361h6.494a.362.362,0,0,1,.361.361Zm0-4.33a.362.362,0,0,1-.361.361H7.577a.362.362,0,0,1-.361-.361V9.02a.362.362,0,0,1,.361-.361h6.494a.362.362,0,0,1,.361.361Z" transform="translate(-1162 -5659)" fill="#9a2327"/>
    <g data-idr="Group_307" data-name="Group 307" transform="translate(37.478 201.533)">
      <path data-idr="Path_3359" data-name="Path 3359" d="M71.909,0H82.783a.815.815,0,0,1,.809.809V10.858a.815.815,0,0,1-.809.809H71.909a.815.815,0,0,1-.809-.809V.809A.815.815,0,0,1,71.909,0Z" transform="translate(-1033.719 -5857.533)" fill="#9a2327"/>
      <path data-idr="Path_3360" data-name="Path 3360" d="M9.606,26.887V18.564a.756.756,0,0,0-.764-.764H4.337a.775.775,0,0,0-.6.29L0,22.7v6.124a.756.756,0,0,0,.764.764H3.146a2.718,2.718,0,0,1,2.169-1.1,2.676,2.676,0,0,1,2.169,1.1H16.31a2.718,2.718,0,0,1,2.169-1.1,2.676,2.676,0,0,1,2.169,1.1h1.97a.743.743,0,0,0,.733-.733v-.473a.724.724,0,0,0-.733-.733H10.369a.766.766,0,0,1-.764-.764Zm-2.779-2.81H2.841a.886.886,0,0,1-.886-.886v-.229a.977.977,0,0,1,.2-.565l2.107-2.611a.883.883,0,0,1,.687-.336H6.811a.886.886,0,0,1,.886.886v2.841a.868.868,0,0,1-.87.9Z" transform="translate(-973.478 -5872.615)" fill="#9a2327"/>
      <circle data-idr="Ellipse_15" data-name="Ellipse 15" cx="1.909" cy="1.909" r="1.909" transform="translate(-970.102 -5843.315)" fill="#9a2327"/>
      <circle data-idr="Ellipse_16" data-name="Ellipse 16" cx="1.909" cy="1.909" r="1.909" transform="translate(-956.893 -5843.315)" fill="#9a2327"/>
    </g>
    <g data-idr="Group_306" data-name="Group 306" transform="translate(41.435 201.432)">
      <path data-idr="Path_3361" data-name="Path 3361" d="M55.647,2.484,51.383,0,42.068,5.427l4.263,2.484Z" transform="translate(-1157.714 -5860.432)" fill="#9a2327"/>
      <path data-idr="Path_3362" data-name="Path 3362" d="M161.763,64.3l-9.315,5.427,3.475,2.025,9.315-5.427Z" transform="translate(-1262.254 -5921.335)" fill="#9a2327"/>
      <path data-idr="Path_3363" data-name="Path 3363" d="M233.131,134.034v10.854l9.31-5.424V128.61Z" transform="translate(-1338.669 -5982.238)" fill="#9a2327"/>
      <path data-idr="Path_3364" data-name="Path 3364" d="M27.169,139.464l9.31,5.424V134.034l-9.31-5.424Z" transform="translate(-1143.604 -5982.238)" fill="#9a2327"/>
    </g>
    <path data-idr="Subtraction_2" data-name="Subtraction 2" d="M21.942,20.442H1.079A1.089,1.089,0,0,1,0,19.346V1.1A1.089,1.089,0,0,1,1.079,0H6.115A1.089,1.089,0,0,1,7.194,1.1v8.957l6.255-4.039a1.06,1.06,0,0,1,.576-.173,1.091,1.091,0,0,1,1.083,1.1v3.115l6.255-4.039a1.061,1.061,0,0,1,.576-.173,1.091,1.091,0,0,1,1.083,1.1V19.346A1.089,1.089,0,0,1,21.942,20.442Zm-6.835-7.357V16.33h3.2V13.085Zm-7.673,0V16.33h3.2V13.085Z" transform="translate(-1004 -5657)" fill="#9a2327"/>
    <path data-idr="Icon_zocial-email" data-name="Icon zocial-email" d="M.072,18.958V5.515q0-.023.07-.443L8.054,11.84.165,19.425a1.978,1.978,0,0,1-.093-.467Zm1.05-14.82a1.006,1.006,0,0,1,.4-.07H22.827a1.322,1.322,0,0,1,.42.07l-7.935,6.791-1.05.84-2.077,1.7-2.077-1.7-1.05-.84Zm.023,16.2L9.1,12.7l3.081,2.5,3.081-2.5,7.958,7.632a1.121,1.121,0,0,1-.4.07H1.519a1.057,1.057,0,0,1-.373-.07Zm15.17-8.5L24.2,5.072a1.393,1.393,0,0,1,.07.443V18.958a1.789,1.789,0,0,1-.07.467Z" transform="translate(-1336.072 -5659.068)" fill="#9a2327"/>
  </g>
</svg>
