<svg id="Component_5_1" data-name="Component 5 – 1" xmlns="http://www.w3.org/2000/svg" width="119.283" height="73.265" viewBox="0 0 119.283 73.265">
  <g id="Green_Logo_White_Text" data-name="Green Logo_White Text" transform="translate(-84.29 46.101)">
    <path id="Path_2" data-name="Path 2" d="M144.744,21.924a4.393,4.393,0,0,1,4.5,3.183l2.483-.87a6.95,6.95,0,0,0-6.981-4.774c-4.393,0-7.533,3.2-7.533,7.83,0,4.647,3.077,7.809,7.384,7.809a5.755,5.755,0,0,0,5.05-2.419v2.164h2.313V26.613h-6.514v2.334h4.032c-.318,2.483-2.164,3.841-4.732,3.841-2.971,0-4.817-2.249-4.817-5.5S141.731,21.924,144.744,21.924Z" transform="translate(-52.921 -8)" fill="#fff"/>
    <path id="Path_3" data-name="Path 3" d="M194.439,20.4h-11.31v2.44H187.5V35.462h2.567V22.836h4.371Z" transform="translate(-83.192 -8.616)" fill="#fff"/>
    <path id="Path_4" data-name="Path 4" d="M220.2,27.313c0-3.247,2.122-5.39,5.071-5.39s5.072,2.143,5.072,5.39-2.122,5.39-5.072,5.39S220.2,30.56,220.2,27.313Zm-2.716,0a7.788,7.788,0,1,0,15.575,0,7.788,7.788,0,1,0-15.575,0Z" transform="translate(-105.842 -8)" fill="#fff"/>
    <path id="Path_5" data-name="Path 5" d="M292.294,24.025h.042l3.374,11.437h2.758l4.69-15.066h-2.822l-3.183,11.437h-.042L293.758,20.4h-2.822l-3.353,11.437h-.042L284.379,20.4h-2.907l4.69,15.066h2.758Z" transform="translate(-148.026 -8.616)" fill="#fff"/>
    <path id="Path_6" data-name="Path 6" d="M350.939,20.8a1.5,1.5,0,0,0,1.57-1.549,1.581,1.581,0,1,0-3.162,0A1.5,1.5,0,0,0,350.939,20.8Zm-1.273,12.859h2.525V22.643h-2.525Z" transform="translate(-192.773 -6.81)" fill="#fff"/>
    <path id="Path_7" data-name="Path 7" d="M374.5,34.349V32.291h-9.145v2.186h5.963l-6.047,6.769V43.3h9.315V41.118h-6.153Z" transform="translate(-203.27 -16.458)" fill="#fff"/>
    <path id="Path_8" data-name="Path 8" d="M404.471,37.654v.679a2.72,2.72,0,0,1-3.034,2.758c-1.337,0-1.91-.53-1.91-1.379,0-.743.4-1.294,2.016-1.57Zm-3.544,5.411a4.952,4.952,0,0,0,3.841-1.464,2.373,2.373,0,0,0,2.291,1.337,3.443,3.443,0,0,0,.807-.085V40.816a1.245,1.245,0,0,1-.212.021.647.647,0,0,1-.721-.743V35.66c0-2.525-1.528-4.116-4.753-4.116-3.119,0-4.477,1.57-4.817,3.353l2.419.4c.17-1.061.955-1.676,2.334-1.676,1.507,0,2.356.637,2.356,1.973v.149l-3.183.467c-2.907.424-4.223,1.655-4.223,3.522C397.065,41.622,398.253,43.065,400.927,43.065Z" transform="translate(-224.232 -15.965)" fill="#fff"/>
    <path id="Path_9" data-name="Path 9" d="M441.24,32s-.255-.021-.36-.021a3.492,3.492,0,0,0-3.247,1.634V32.085H435.3V43.1h2.525V37.369c0-2.122,1.061-3.056,2.843-3.056a4.7,4.7,0,0,1,.573.042Z" transform="translate(-249.438 -16.252)" fill="#fff"/>
    <path id="Path_10" data-name="Path 10" d="M463.2,24.25a4.065,4.065,0,0,0-3.522-1.7c-3.247,0-5.093,2.61-5.093,5.772,0,3.14,1.846,5.75,5.093,5.75a4.12,4.12,0,0,0,3.713-1.825v1.57h2.334V17.905H463.2Zm.106,4.074c0,1.973-1.167,3.522-3.1,3.522-1.91,0-3.1-1.549-3.1-3.522,0-2.016,1.188-3.544,3.1-3.544C462.142,24.78,463.309,26.308,463.309,28.324Z" transform="translate(-262.154 -6.974)" fill="#fff"/>
  </g>
  <path id="Path_11" data-name="Path 11" d="M53.26,1.86l-7.7,21.9-7.5-21c-1.715.053-3.432.085-5.209.085-1.747,0-3.462-.032-5.179-.053L20.139,23.77,12.418,1.84A121.745,121.745,0,0,1,0,.011L19.573,49.294l.136.353.2-.385c.89-1.511,10.074-18.6,10.074-18.6l.053-.168a4.213,4.213,0,0,1,.993-.591c2.072-.867,2.217-1.088.659-.867a4.419,4.419,0,0,0-1.443.508l1.747-7.134L27.63,14.3,38.9,23.36s-.334,4.756.5,4.756c.774,0,.419,2.125.355,3.213a9.021,9.021,0,0,1-.993-.644,2.69,2.69,0,0,1-.774-.982,7.644,7.644,0,0,0,.555,1.458,7.423,7.423,0,0,0,1.464,1.511c.638,2.093,2.3,6.849,3.849,11.213a6.881,6.881,0,0,0-.806-.444,34.831,34.831,0,0,1-4.981-3.995,16.632,16.632,0,0,0,2.27,3.128,40.337,40.337,0,0,0,4.289,3.519l.032.032c.47,1.311.91,2.569,1.3,3.636L65.731,0A123.707,123.707,0,0,1,53.26,1.86Z" transform="translate(27)" fill="#fff" fill-rule="evenodd"/>
</svg>
