<svg xmlns="http://www.w3.org/2000/svg" width="375.002" height="2719.284" viewBox="0 0 375.002 2719.284">
  <path id="Subtraction_2" data-name="Subtraction 2" d="M187.5,3100a377.182,377.182,0,0,1-68.847-6.848,530.886,530.886,0,0,1-60.058-15.067c-18.154-5.658-33.121-11.316-42.481-15.066-10-4.008-15.868-6.735-16.113-6.849V390.067H0l0,0c.581-.23,6.062-2.307,19.475-4.447,8.233-1.313,17.782-2.384,28.383-3.184,13.249-1,28.187-1.574,44.4-1.709.832-.006,1.622-.01,2.346-.01,8.344,0,16.5.36,24.929,1.1,7.514.66,15.083,1.61,23.139,2.9,14.968,2.405,29.4,5.671,43.354,8.83l.013,0c14.1,3.191,28.679,6.49,43.9,8.928,8.2,1.313,15.916,2.277,23.592,2.948,8.624.753,16.971,1.119,25.518,1.119a367.661,367.661,0,0,0,45.228-2.575,213.157,213.157,0,0,0,29.623-5.666,109.084,109.084,0,0,0,16.185-5.665A38.131,38.131,0,0,0,375,390.07H375l0,2666.1-.024.012c-1.048.485-6.749,3.094-16.089,6.837-9.358,3.75-24.325,9.407-42.48,15.066a530.933,530.933,0,0,1-60.059,15.067A377.192,377.192,0,0,1,187.5,3100Z" transform="translate(0 -380.715)" fill="#bb1c21"/>
</svg>
