<svg id="Layer_2" data-name="Layer 2" xmlns="http://www.w3.org/2000/svg" xmlns:xlink="http://www.w3.org/1999/xlink" width="1920" height="87.553" viewBox="0 0 1920 87.553">
  <defs>
    <clipPath id="clip-path">
      <rect width="1920" height="87.553" fill="none"/>
    </clipPath>
  </defs>
  <g id="Layer_2-2" data-name="Layer 2" clip-path="url(#clip-path)">
    <g id="Layer_2-3" data-name="Layer 2">
      <path id="Path_89" data-name="Path 89" d="M375.35,39.148V77.991h23.125V69.73a3.237,3.237,0,1,1,6.474,0v8.261h7.134V31.91L375.35,39.148Zm13.958,26.97h-6.15V61.211h6.15Zm0-12.676h-6.15V48.548h6.15Zm15.641,6.487h-5.192V53.4h5.192Z" transform="translate(110.644 9.406)" fill="#dfdccd"/>
      <path id="Path_90" data-name="Path 90" d="M359.235,19.39v8.222H332.77v54.07h13.88V76.749A6.753,6.753,0,0,1,353.4,69.99a6.764,6.764,0,0,1,6.746,6.759v4.933H374.63V19.39H359.235ZM345.459,67.051H339.7V61.289h5.762Zm0-12.533H339.7V48.743h5.762Zm0-12.546H339.7V36.209h5.762Zm11.031,25.08h-5.762V61.289h5.762Zm0-12.533h-5.762V48.743h5.762Zm0-12.546h-5.762V36.209h5.762Zm11.031,25.08H361.76V61.289h5.762Zm0-12.533H361.76V48.743h5.762Zm0-12.546H361.76V36.209h5.762Z" transform="translate(98.093 5.716)" fill="#dfdccd"/>
      <path id="Path_91" data-name="Path 91" d="M326.437,61.164a6.78,6.78,0,0,0-2.719-5.425,5.619,5.619,0,1,0-8.209,0,6.781,6.781,0,0,0,3.457,12.184V73.9h1.295V67.923a6.807,6.807,0,0,0,6.176-6.759Z" transform="translate(92.203 13.648)" fill="#dfdccd"/>
      <path id="Path_92" data-name="Path 92" d="M235.857,61.164a6.78,6.78,0,0,0-2.719-5.425,5.619,5.619,0,1,0-8.209,0,6.781,6.781,0,0,0,3.457,12.184V73.9h1.295V67.923a6.807,6.807,0,0,0,6.176-6.759Z" transform="translate(65.502 13.648)" fill="#dfdccd"/>
      <path id="Path_93" data-name="Path 93" d="M141.547,61.164a6.78,6.78,0,0,0-2.719-5.425,5.619,5.619,0,1,0-8.209,0,6.781,6.781,0,0,0,3.457,12.184V73.9h1.295V67.923a6.807,6.807,0,0,0,6.176-6.759Z" transform="translate(37.702 13.648)" fill="#dfdccd"/>
      <path id="Path_94" data-name="Path 94" d="M124.8,61.164a6.78,6.78,0,0,0-2.719-5.425,5.619,5.619,0,1,0-8.209,0,6.781,6.781,0,0,0,3.457,12.184V73.9h1.295V67.923a6.807,6.807,0,0,0,6.176-6.759Z" transform="translate(32.764 13.648)" fill="#dfdccd"/>
      <path id="Path_95" data-name="Path 95" d="M67.557,61.164a6.78,6.78,0,0,0-2.719-5.425,5.619,5.619,0,1,0-8.209,0,6.781,6.781,0,0,0,3.457,12.184V73.9h1.295V67.923a6.807,6.807,0,0,0,6.176-6.759Z" transform="translate(15.891 13.648)" fill="#dfdccd"/>
      <path id="Path_96" data-name="Path 96" d="M50.817,61.164A6.78,6.78,0,0,0,48.1,55.739a5.619,5.619,0,1,0-8.209,0,6.781,6.781,0,0,0,3.457,12.184V73.9h1.295V67.923a6.807,6.807,0,0,0,6.176-6.759Z" transform="translate(10.957 13.648)" fill="#dfdccd"/>
      <path id="Path_97" data-name="Path 97" d="M340.044,10.779a4.59,4.59,0,0,0-5.995-4.415h-.363a4.641,4.641,0,0,0-4.221-2.719,4.561,4.561,0,0,0-2.421.7,5.016,5.016,0,0,0-9.931,1c0,.142.026.285.039.427a4.858,4.858,0,0,0,.906,9.633H335.68a4.637,4.637,0,0,0,4.363-4.622Z" transform="translate(92.321 0.097)" fill="none" stroke="#dfdccd" stroke-width="1"/>
      <path id="Path_98" data-name="Path 98" d="M263.034,15.219a4.59,4.59,0,0,0-5.995-4.415h-.363a4.641,4.641,0,0,0-4.221-2.719,4.561,4.561,0,0,0-2.421.7,5.016,5.016,0,0,0-9.931,1c0,.142.026.285.039.427a4.858,4.858,0,0,0,.906,9.633H258.67A4.637,4.637,0,0,0,263.034,15.219Z" transform="translate(69.62 1.406)" fill="none" stroke="#dfdccd" stroke-width="1"/>
      <path id="Path_99" data-name="Path 99" d="M138.44,15.219a4.59,4.59,0,0,1,5.995-4.415h.363a4.641,4.641,0,0,1,4.221-2.719,4.561,4.561,0,0,1,2.421.7,5.016,5.016,0,0,1,9.931,1c0,.142-.026.285-.039.427a4.858,4.858,0,0,1-.906,9.633H142.8A4.637,4.637,0,0,1,138.44,15.219Z" transform="translate(40.809 1.406)" fill="none" stroke="#dfdccd" stroke-width="1"/>
      <path id="Path_100" data-name="Path 100" d="M52.643,10.449a4.59,4.59,0,0,1,5.995-4.415H59a4.641,4.641,0,0,1,4.221-2.719,4.561,4.561,0,0,1,2.421.7,5.009,5.009,0,0,1,9.918,1c0,.142-.026.285-.039.427a4.858,4.858,0,0,1-.906,9.633H56.993a4.637,4.637,0,0,1-4.363-4.622Z" transform="translate(15.514)" fill="none" stroke="#dfdccd" stroke-width="1"/>
      <path id="Path_101" data-name="Path 101" d="M296.455,44.29,281.19,56.4V74.342h6.189V62.7h6.306v11.64h18.049V56.4ZM299.6,59h-5.464V53.535H299.6Zm6.2,8.921h-5.218V62.7H305.8Z" transform="translate(82.888 13.056)" fill="#dfdccd"/>
      <path id="Path_102" data-name="Path 102" d="M259.857,34.77V52.107H240.85V77.148h26.634V65.508H273.5v11.64h8.973V34.77Zm-5.593,29.275h-4.972V59.073h4.972Zm18.179-13.129h-4.959V45.944h4.959Z" transform="translate(70.997 10.249)" fill="#dfdccd"/>
      <path id="Path_103" data-name="Path 103" d="M226.517,38.32H180.954L178.17,51.061h5.27V76.1h26.18V64.462h6.331V76.1H224.7V51.061h4.6L226.517,38.32ZM194.989,68.048H191.4V64.462h3.587Zm0-7.665H191.4V56.8h3.587Zm7.536,7.665h-3.587V64.462h3.587Zm0-7.665h-3.587V56.8h3.587Z" transform="translate(52.52 11.296)" fill="#dfdccd"/>
      <path id="Path_104" data-name="Path 104" d="M162.766,44.38,147.76,56.8V74.315h17.868V66.663a3.658,3.658,0,0,1,7.315,0v7.652h4.687V56.8L162.766,44.38Zm-3.535,23.669h-5.36V62.675h5.36Zm6.849-9.452h-5.36V53.223h5.36Z" transform="translate(43.556 13.082)" fill="#dfdccd"/>
      <path id="Path_105" data-name="Path 105" d="M111.953,40.918h-.984V31.79H99.51v9.128H73.032L69.64,52.468h4.752V78.026H98.034v-11.3h5.322v11.3h7.238V52.468h4.752l-3.392-11.549ZM85.035,61.725H79.946V57.88h5.088Zm9.788,0H89.735V57.88h5.088Zm9.788,0h-5.1V57.88h5.1Z" transform="translate(20.528 9.371)" fill="#dfdccd"/>
      <path id="Path_106" data-name="Path 106" d="M35.567,18.28H5.852L0,28.871V82.009H11.925V70.317H29.987V82.009h11.42V28.871L35.567,18.28ZM33.794,63.986H8.105v-6.15H33.794v6.15Zm0-10.488H8.105V47.361H33.794V53.5Zm0-10.475H8.105v-6.15H33.794v6.15Z" transform="translate(0 5.388)" fill="#dfdccd"/>
    </g>
    <g id="Layer_2-4" data-name="Layer 2" transform="translate(543)">
      <path id="Path_89-2" data-name="Path 89" d="M375.35,39.148V77.991h23.125V69.73a3.237,3.237,0,1,1,6.474,0v8.261h7.134V31.91L375.35,39.148Zm13.958,26.97h-6.15V61.211h6.15Zm0-12.676h-6.15V48.548h6.15Zm15.641,6.487h-5.192V53.4h5.192Z" transform="translate(110.644 9.406)" fill="#dfdccd"/>
      <path id="Path_90-2" data-name="Path 90" d="M359.235,19.39v8.222H332.77v54.07h13.88V76.749A6.753,6.753,0,0,1,353.4,69.99a6.764,6.764,0,0,1,6.746,6.759v4.933H374.63V19.39H359.235ZM345.459,67.051H339.7V61.289h5.762Zm0-12.533H339.7V48.743h5.762Zm0-12.546H339.7V36.209h5.762Zm11.031,25.08h-5.762V61.289h5.762Zm0-12.533h-5.762V48.743h5.762Zm0-12.546h-5.762V36.209h5.762Zm11.031,25.08H361.76V61.289h5.762Zm0-12.533H361.76V48.743h5.762Zm0-12.546H361.76V36.209h5.762Z" transform="translate(98.093 5.716)" fill="#dfdccd"/>
      <path id="Path_91-2" data-name="Path 91" d="M326.437,61.164a6.78,6.78,0,0,0-2.719-5.425,5.619,5.619,0,1,0-8.209,0,6.781,6.781,0,0,0,3.457,12.184V73.9h1.295V67.923a6.807,6.807,0,0,0,6.176-6.759Z" transform="translate(92.203 13.648)" fill="#dfdccd"/>
      <path id="Path_92-2" data-name="Path 92" d="M235.857,61.164a6.78,6.78,0,0,0-2.719-5.425,5.619,5.619,0,1,0-8.209,0,6.781,6.781,0,0,0,3.457,12.184V73.9h1.295V67.923a6.807,6.807,0,0,0,6.176-6.759Z" transform="translate(65.502 13.648)" fill="#dfdccd"/>
      <path id="Path_93-2" data-name="Path 93" d="M141.547,61.164a6.78,6.78,0,0,0-2.719-5.425,5.619,5.619,0,1,0-8.209,0,6.781,6.781,0,0,0,3.457,12.184V73.9h1.295V67.923a6.807,6.807,0,0,0,6.176-6.759Z" transform="translate(37.702 13.648)" fill="#dfdccd"/>
      <path id="Path_94-2" data-name="Path 94" d="M124.8,61.164a6.78,6.78,0,0,0-2.719-5.425,5.619,5.619,0,1,0-8.209,0,6.781,6.781,0,0,0,3.457,12.184V73.9h1.295V67.923a6.807,6.807,0,0,0,6.176-6.759Z" transform="translate(32.764 13.648)" fill="#dfdccd"/>
      <path id="Path_95-2" data-name="Path 95" d="M67.557,61.164a6.78,6.78,0,0,0-2.719-5.425,5.619,5.619,0,1,0-8.209,0,6.781,6.781,0,0,0,3.457,12.184V73.9h1.295V67.923a6.807,6.807,0,0,0,6.176-6.759Z" transform="translate(15.891 13.648)" fill="#dfdccd"/>
      <path id="Path_96-2" data-name="Path 96" d="M50.817,61.164A6.78,6.78,0,0,0,48.1,55.739a5.619,5.619,0,1,0-8.209,0,6.781,6.781,0,0,0,3.457,12.184V73.9h1.295V67.923a6.807,6.807,0,0,0,6.176-6.759Z" transform="translate(10.957 13.648)" fill="#dfdccd"/>
      <path id="Path_97-2" data-name="Path 97" d="M340.044,10.779a4.59,4.59,0,0,0-5.995-4.415h-.363a4.641,4.641,0,0,0-4.221-2.719,4.561,4.561,0,0,0-2.421.7,5.016,5.016,0,0,0-9.931,1c0,.142.026.285.039.427a4.858,4.858,0,0,0,.906,9.633H335.68a4.637,4.637,0,0,0,4.363-4.622Z" transform="translate(92.321 0.097)" fill="none" stroke="#dfdccd" stroke-width="1"/>
      <path id="Path_98-2" data-name="Path 98" d="M263.034,15.219a4.59,4.59,0,0,0-5.995-4.415h-.363a4.641,4.641,0,0,0-4.221-2.719,4.561,4.561,0,0,0-2.421.7,5.016,5.016,0,0,0-9.931,1c0,.142.026.285.039.427a4.858,4.858,0,0,0,.906,9.633H258.67A4.637,4.637,0,0,0,263.034,15.219Z" transform="translate(69.62 1.406)" fill="none" stroke="#dfdccd" stroke-width="1"/>
      <path id="Path_99-2" data-name="Path 99" d="M138.44,15.219a4.59,4.59,0,0,1,5.995-4.415h.363a4.641,4.641,0,0,1,4.221-2.719,4.561,4.561,0,0,1,2.421.7,5.016,5.016,0,0,1,9.931,1c0,.142-.026.285-.039.427a4.858,4.858,0,0,1-.906,9.633H142.8A4.637,4.637,0,0,1,138.44,15.219Z" transform="translate(40.809 1.406)" fill="none" stroke="#dfdccd" stroke-width="1"/>
      <path id="Path_100-2" data-name="Path 100" d="M52.643,10.449a4.59,4.59,0,0,1,5.995-4.415H59a4.641,4.641,0,0,1,4.221-2.719,4.561,4.561,0,0,1,2.421.7,5.009,5.009,0,0,1,9.918,1c0,.142-.026.285-.039.427a4.858,4.858,0,0,1-.906,9.633H56.993a4.637,4.637,0,0,1-4.363-4.622Z" transform="translate(15.514)" fill="none" stroke="#dfdccd" stroke-width="1"/>
      <path id="Path_101-2" data-name="Path 101" d="M296.455,44.29,281.19,56.4V74.342h6.189V62.7h6.306v11.64h18.049V56.4ZM299.6,59h-5.464V53.535H299.6Zm6.2,8.921h-5.218V62.7H305.8Z" transform="translate(82.888 13.056)" fill="#dfdccd"/>
      <path id="Path_102-2" data-name="Path 102" d="M259.857,34.77V52.107H240.85V77.148h26.634V65.508H273.5v11.64h8.973V34.77Zm-5.593,29.275h-4.972V59.073h4.972Zm18.179-13.129h-4.959V45.944h4.959Z" transform="translate(70.997 10.249)" fill="#dfdccd"/>
      <path id="Path_103-2" data-name="Path 103" d="M226.517,38.32H180.954L178.17,51.061h5.27V76.1h26.18V64.462h6.331V76.1H224.7V51.061h4.6L226.517,38.32ZM194.989,68.048H191.4V64.462h3.587Zm0-7.665H191.4V56.8h3.587Zm7.536,7.665h-3.587V64.462h3.587Zm0-7.665h-3.587V56.8h3.587Z" transform="translate(52.52 11.296)" fill="#dfdccd"/>
      <path id="Path_104-2" data-name="Path 104" d="M162.766,44.38,147.76,56.8V74.315h17.868V66.663a3.658,3.658,0,0,1,7.315,0v7.652h4.687V56.8L162.766,44.38Zm-3.535,23.669h-5.36V62.675h5.36Zm6.849-9.452h-5.36V53.223h5.36Z" transform="translate(43.556 13.082)" fill="#dfdccd"/>
      <path id="Path_105-2" data-name="Path 105" d="M111.953,40.918h-.984V31.79H99.51v9.128H73.032L69.64,52.468h4.752V78.026H98.034v-11.3h5.322v11.3h7.238V52.468h4.752l-3.392-11.549ZM85.035,61.725H79.946V57.88h5.088Zm9.788,0H89.735V57.88h5.088Zm9.788,0h-5.1V57.88h5.1Z" transform="translate(20.528 9.371)" fill="#dfdccd"/>
      <path id="Path_106-2" data-name="Path 106" d="M35.567,18.28H5.852L0,28.871V82.009H11.925V70.317H29.987V82.009h11.42V28.871L35.567,18.28ZM33.794,63.986H8.105v-6.15H33.794v6.15Zm0-10.488H8.105V47.361H33.794V53.5Zm0-10.475H8.105v-6.15H33.794v6.15Z" transform="translate(0 5.388)" fill="#dfdccd"/>
    </g>
    <g id="Layer_2-5" data-name="Layer 2" transform="translate(1086)">
      <path id="Path_89-3" data-name="Path 89" d="M375.35,39.148V77.991h23.125V69.73a3.237,3.237,0,1,1,6.474,0v8.261h7.134V31.91L375.35,39.148Zm13.958,26.97h-6.15V61.211h6.15Zm0-12.676h-6.15V48.548h6.15Zm15.641,6.487h-5.192V53.4h5.192Z" transform="translate(110.644 9.406)" fill="#dfdccd"/>
      <path id="Path_90-3" data-name="Path 90" d="M359.235,19.39v8.222H332.77v54.07h13.88V76.749A6.753,6.753,0,0,1,353.4,69.99a6.764,6.764,0,0,1,6.746,6.759v4.933H374.63V19.39H359.235ZM345.459,67.051H339.7V61.289h5.762Zm0-12.533H339.7V48.743h5.762Zm0-12.546H339.7V36.209h5.762Zm11.031,25.08h-5.762V61.289h5.762Zm0-12.533h-5.762V48.743h5.762Zm0-12.546h-5.762V36.209h5.762Zm11.031,25.08H361.76V61.289h5.762Zm0-12.533H361.76V48.743h5.762Zm0-12.546H361.76V36.209h5.762Z" transform="translate(98.093 5.716)" fill="#dfdccd"/>
      <path id="Path_91-3" data-name="Path 91" d="M326.437,61.164a6.78,6.78,0,0,0-2.719-5.425,5.619,5.619,0,1,0-8.209,0,6.781,6.781,0,0,0,3.457,12.184V73.9h1.295V67.923a6.807,6.807,0,0,0,6.176-6.759Z" transform="translate(92.203 13.648)" fill="#dfdccd"/>
      <path id="Path_92-3" data-name="Path 92" d="M235.857,61.164a6.78,6.78,0,0,0-2.719-5.425,5.619,5.619,0,1,0-8.209,0,6.781,6.781,0,0,0,3.457,12.184V73.9h1.295V67.923a6.807,6.807,0,0,0,6.176-6.759Z" transform="translate(65.502 13.648)" fill="#dfdccd"/>
      <path id="Path_93-3" data-name="Path 93" d="M141.547,61.164a6.78,6.78,0,0,0-2.719-5.425,5.619,5.619,0,1,0-8.209,0,6.781,6.781,0,0,0,3.457,12.184V73.9h1.295V67.923a6.807,6.807,0,0,0,6.176-6.759Z" transform="translate(37.702 13.648)" fill="#dfdccd"/>
      <path id="Path_94-3" data-name="Path 94" d="M124.8,61.164a6.78,6.78,0,0,0-2.719-5.425,5.619,5.619,0,1,0-8.209,0,6.781,6.781,0,0,0,3.457,12.184V73.9h1.295V67.923a6.807,6.807,0,0,0,6.176-6.759Z" transform="translate(32.764 13.648)" fill="#dfdccd"/>
      <path id="Path_95-3" data-name="Path 95" d="M67.557,61.164a6.78,6.78,0,0,0-2.719-5.425,5.619,5.619,0,1,0-8.209,0,6.781,6.781,0,0,0,3.457,12.184V73.9h1.295V67.923a6.807,6.807,0,0,0,6.176-6.759Z" transform="translate(15.891 13.648)" fill="#dfdccd"/>
      <path id="Path_96-3" data-name="Path 96" d="M50.817,61.164A6.78,6.78,0,0,0,48.1,55.739a5.619,5.619,0,1,0-8.209,0,6.781,6.781,0,0,0,3.457,12.184V73.9h1.295V67.923a6.807,6.807,0,0,0,6.176-6.759Z" transform="translate(10.957 13.648)" fill="#dfdccd"/>
      <path id="Path_97-3" data-name="Path 97" d="M340.044,10.779a4.59,4.59,0,0,0-5.995-4.415h-.363a4.641,4.641,0,0,0-4.221-2.719,4.561,4.561,0,0,0-2.421.7,5.016,5.016,0,0,0-9.931,1c0,.142.026.285.039.427a4.858,4.858,0,0,0,.906,9.633H335.68a4.637,4.637,0,0,0,4.363-4.622Z" transform="translate(92.321 0.097)" fill="none" stroke="#dfdccd" stroke-width="1"/>
      <path id="Path_98-3" data-name="Path 98" d="M263.034,15.219a4.59,4.59,0,0,0-5.995-4.415h-.363a4.641,4.641,0,0,0-4.221-2.719,4.561,4.561,0,0,0-2.421.7,5.016,5.016,0,0,0-9.931,1c0,.142.026.285.039.427a4.858,4.858,0,0,0,.906,9.633H258.67A4.637,4.637,0,0,0,263.034,15.219Z" transform="translate(69.62 1.406)" fill="none" stroke="#dfdccd" stroke-width="1"/>
      <path id="Path_99-3" data-name="Path 99" d="M138.44,15.219a4.59,4.59,0,0,1,5.995-4.415h.363a4.641,4.641,0,0,1,4.221-2.719,4.561,4.561,0,0,1,2.421.7,5.016,5.016,0,0,1,9.931,1c0,.142-.026.285-.039.427a4.858,4.858,0,0,1-.906,9.633H142.8A4.637,4.637,0,0,1,138.44,15.219Z" transform="translate(40.809 1.406)" fill="none" stroke="#dfdccd" stroke-width="1"/>
      <path id="Path_100-3" data-name="Path 100" d="M52.643,10.449a4.59,4.59,0,0,1,5.995-4.415H59a4.641,4.641,0,0,1,4.221-2.719,4.561,4.561,0,0,1,2.421.7,5.009,5.009,0,0,1,9.918,1c0,.142-.026.285-.039.427a4.858,4.858,0,0,1-.906,9.633H56.993a4.637,4.637,0,0,1-4.363-4.622Z" transform="translate(15.514)" fill="none" stroke="#dfdccd" stroke-width="1"/>
      <path id="Path_101-3" data-name="Path 101" d="M296.455,44.29,281.19,56.4V74.342h6.189V62.7h6.306v11.64h18.049V56.4ZM299.6,59h-5.464V53.535H299.6Zm6.2,8.921h-5.218V62.7H305.8Z" transform="translate(82.888 13.056)" fill="#dfdccd"/>
      <path id="Path_102-3" data-name="Path 102" d="M259.857,34.77V52.107H240.85V77.148h26.634V65.508H273.5v11.64h8.973V34.77Zm-5.593,29.275h-4.972V59.073h4.972Zm18.179-13.129h-4.959V45.944h4.959Z" transform="translate(70.997 10.249)" fill="#dfdccd"/>
      <path id="Path_103-3" data-name="Path 103" d="M226.517,38.32H180.954L178.17,51.061h5.27V76.1h26.18V64.462h6.331V76.1H224.7V51.061h4.6L226.517,38.32ZM194.989,68.048H191.4V64.462h3.587Zm0-7.665H191.4V56.8h3.587Zm7.536,7.665h-3.587V64.462h3.587Zm0-7.665h-3.587V56.8h3.587Z" transform="translate(52.52 11.296)" fill="#dfdccd"/>
      <path id="Path_104-3" data-name="Path 104" d="M162.766,44.38,147.76,56.8V74.315h17.868V66.663a3.658,3.658,0,0,1,7.315,0v7.652h4.687V56.8L162.766,44.38Zm-3.535,23.669h-5.36V62.675h5.36Zm6.849-9.452h-5.36V53.223h5.36Z" transform="translate(43.556 13.082)" fill="#dfdccd"/>
      <path id="Path_105-3" data-name="Path 105" d="M111.953,40.918h-.984V31.79H99.51v9.128H73.032L69.64,52.468h4.752V78.026H98.034v-11.3h5.322v11.3h7.238V52.468h4.752l-3.392-11.549ZM85.035,61.725H79.946V57.88h5.088Zm9.788,0H89.735V57.88h5.088Zm9.788,0h-5.1V57.88h5.1Z" transform="translate(20.528 9.371)" fill="#dfdccd"/>
      <path id="Path_106-3" data-name="Path 106" d="M35.567,18.28H5.852L0,28.871V82.009H11.925V70.317H29.987V82.009h11.42V28.871L35.567,18.28ZM33.794,63.986H8.105v-6.15H33.794v6.15Zm0-10.488H8.105V47.361H33.794V53.5Zm0-10.475H8.105v-6.15H33.794v6.15Z" transform="translate(0 5.388)" fill="#dfdccd"/>
    </g>
    <g id="Layer_2-6" data-name="Layer 2" transform="translate(1629)">
      <path id="Path_89-4" data-name="Path 89" d="M375.35,39.148V77.991h23.125V69.73a3.237,3.237,0,1,1,6.474,0v8.261h7.134V31.91L375.35,39.148Zm13.958,26.97h-6.15V61.211h6.15Zm0-12.676h-6.15V48.548h6.15Zm15.641,6.487h-5.192V53.4h5.192Z" transform="translate(110.644 9.406)" fill="#dfdccd"/>
      <path id="Path_90-4" data-name="Path 90" d="M359.235,19.39v8.222H332.77v54.07h13.88V76.749A6.753,6.753,0,0,1,353.4,69.99a6.764,6.764,0,0,1,6.746,6.759v4.933H374.63V19.39H359.235ZM345.459,67.051H339.7V61.289h5.762Zm0-12.533H339.7V48.743h5.762Zm0-12.546H339.7V36.209h5.762Zm11.031,25.08h-5.762V61.289h5.762Zm0-12.533h-5.762V48.743h5.762Zm0-12.546h-5.762V36.209h5.762Zm11.031,25.08H361.76V61.289h5.762Zm0-12.533H361.76V48.743h5.762Zm0-12.546H361.76V36.209h5.762Z" transform="translate(98.093 5.716)" fill="#dfdccd"/>
      <path id="Path_91-4" data-name="Path 91" d="M326.437,61.164a6.78,6.78,0,0,0-2.719-5.425,5.619,5.619,0,1,0-8.209,0,6.781,6.781,0,0,0,3.457,12.184V73.9h1.295V67.923a6.807,6.807,0,0,0,6.176-6.759Z" transform="translate(92.203 13.648)" fill="#dfdccd"/>
      <path id="Path_92-4" data-name="Path 92" d="M235.857,61.164a6.78,6.78,0,0,0-2.719-5.425,5.619,5.619,0,1,0-8.209,0,6.781,6.781,0,0,0,3.457,12.184V73.9h1.295V67.923a6.807,6.807,0,0,0,6.176-6.759Z" transform="translate(65.502 13.648)" fill="#dfdccd"/>
      <path id="Path_93-4" data-name="Path 93" d="M141.547,61.164a6.78,6.78,0,0,0-2.719-5.425,5.619,5.619,0,1,0-8.209,0,6.781,6.781,0,0,0,3.457,12.184V73.9h1.295V67.923a6.807,6.807,0,0,0,6.176-6.759Z" transform="translate(37.702 13.648)" fill="#dfdccd"/>
      <path id="Path_94-4" data-name="Path 94" d="M124.8,61.164a6.78,6.78,0,0,0-2.719-5.425,5.619,5.619,0,1,0-8.209,0,6.781,6.781,0,0,0,3.457,12.184V73.9h1.295V67.923a6.807,6.807,0,0,0,6.176-6.759Z" transform="translate(32.764 13.648)" fill="#dfdccd"/>
      <path id="Path_95-4" data-name="Path 95" d="M67.557,61.164a6.78,6.78,0,0,0-2.719-5.425,5.619,5.619,0,1,0-8.209,0,6.781,6.781,0,0,0,3.457,12.184V73.9h1.295V67.923a6.807,6.807,0,0,0,6.176-6.759Z" transform="translate(15.891 13.648)" fill="#dfdccd"/>
      <path id="Path_96-4" data-name="Path 96" d="M50.817,61.164A6.78,6.78,0,0,0,48.1,55.739a5.619,5.619,0,1,0-8.209,0,6.781,6.781,0,0,0,3.457,12.184V73.9h1.295V67.923a6.807,6.807,0,0,0,6.176-6.759Z" transform="translate(10.957 13.648)" fill="#dfdccd"/>
      <path id="Path_97-4" data-name="Path 97" d="M340.044,10.779a4.59,4.59,0,0,0-5.995-4.415h-.363a4.641,4.641,0,0,0-4.221-2.719,4.561,4.561,0,0,0-2.421.7,5.016,5.016,0,0,0-9.931,1c0,.142.026.285.039.427a4.858,4.858,0,0,0,.906,9.633H335.68a4.637,4.637,0,0,0,4.363-4.622Z" transform="translate(92.321 0.097)" fill="none" stroke="#dfdccd" stroke-width="1"/>
      <path id="Path_98-4" data-name="Path 98" d="M263.034,15.219a4.59,4.59,0,0,0-5.995-4.415h-.363a4.641,4.641,0,0,0-4.221-2.719,4.561,4.561,0,0,0-2.421.7,5.016,5.016,0,0,0-9.931,1c0,.142.026.285.039.427a4.858,4.858,0,0,0,.906,9.633H258.67A4.637,4.637,0,0,0,263.034,15.219Z" transform="translate(69.62 1.406)" fill="none" stroke="#dfdccd" stroke-width="1"/>
      <path id="Path_99-4" data-name="Path 99" d="M138.44,15.219a4.59,4.59,0,0,1,5.995-4.415h.363a4.641,4.641,0,0,1,4.221-2.719,4.561,4.561,0,0,1,2.421.7,5.016,5.016,0,0,1,9.931,1c0,.142-.026.285-.039.427a4.858,4.858,0,0,1-.906,9.633H142.8A4.637,4.637,0,0,1,138.44,15.219Z" transform="translate(40.809 1.406)" fill="none" stroke="#dfdccd" stroke-width="1"/>
      <path id="Path_100-4" data-name="Path 100" d="M52.643,10.449a4.59,4.59,0,0,1,5.995-4.415H59a4.641,4.641,0,0,1,4.221-2.719,4.561,4.561,0,0,1,2.421.7,5.009,5.009,0,0,1,9.918,1c0,.142-.026.285-.039.427a4.858,4.858,0,0,1-.906,9.633H56.993a4.637,4.637,0,0,1-4.363-4.622Z" transform="translate(15.514)" fill="none" stroke="#dfdccd" stroke-width="1"/>
      <path id="Path_101-4" data-name="Path 101" d="M296.455,44.29,281.19,56.4V74.342h6.189V62.7h6.306v11.64h18.049V56.4ZM299.6,59h-5.464V53.535H299.6Zm6.2,8.921h-5.218V62.7H305.8Z" transform="translate(82.888 13.056)" fill="#dfdccd"/>
      <path id="Path_102-4" data-name="Path 102" d="M259.857,34.77V52.107H240.85V77.148h26.634V65.508H273.5v11.64h8.973V34.77Zm-5.593,29.275h-4.972V59.073h4.972Zm18.179-13.129h-4.959V45.944h4.959Z" transform="translate(70.997 10.249)" fill="#dfdccd"/>
      <path id="Path_103-4" data-name="Path 103" d="M226.517,38.32H180.954L178.17,51.061h5.27V76.1h26.18V64.462h6.331V76.1H224.7V51.061h4.6L226.517,38.32ZM194.989,68.048H191.4V64.462h3.587Zm0-7.665H191.4V56.8h3.587Zm7.536,7.665h-3.587V64.462h3.587Zm0-7.665h-3.587V56.8h3.587Z" transform="translate(52.52 11.296)" fill="#dfdccd"/>
      <path id="Path_104-4" data-name="Path 104" d="M162.766,44.38,147.76,56.8V74.315h17.868V66.663a3.658,3.658,0,0,1,7.315,0v7.652h4.687V56.8L162.766,44.38Zm-3.535,23.669h-5.36V62.675h5.36Zm6.849-9.452h-5.36V53.223h5.36Z" transform="translate(43.556 13.082)" fill="#dfdccd"/>
      <path id="Path_105-4" data-name="Path 105" d="M111.953,40.918h-.984V31.79H99.51v9.128H73.032L69.64,52.468h4.752V78.026H98.034v-11.3h5.322v11.3h7.238V52.468h4.752l-3.392-11.549ZM85.035,61.725H79.946V57.88h5.088Zm9.788,0H89.735V57.88h5.088Zm9.788,0h-5.1V57.88h5.1Z" transform="translate(20.528 9.371)" fill="#dfdccd"/>
      <path id="Path_106-4" data-name="Path 106" d="M35.567,18.28H5.852L0,28.871V82.009H11.925V70.317H29.987V82.009h11.42V28.871L35.567,18.28ZM33.794,63.986H8.105v-6.15H33.794v6.15Zm0-10.488H8.105V47.361H33.794V53.5Zm0-10.475H8.105v-6.15H33.794v6.15Z" transform="translate(0 5.388)" fill="#dfdccd"/>
    </g>
  </g>
</svg>
