<svg xmlns="http://www.w3.org/2000/svg" width="62.455" height="62.187" viewBox="0 0 62.455 62.187">
  <g id="Layer_2" data-name="Layer 2" transform="translate(0 0.187)">
    <g id="Group_129" data-name="Group 129">
      <path id="Path_27" data-name="Path 27" d="M11.86,8.88v5.59H6.27L1,9.19,6.59,3.61Z" fill="none" stroke="#bb1c21" stroke-linecap="round" stroke-linejoin="round" stroke-width="2"/>
      <line id="Line_46" data-name="Line 46" x1="14.07" y1="14.07" transform="translate(11.86 14.47)" fill="none" stroke="#bb1c21" stroke-linecap="round" stroke-linejoin="round" stroke-width="2"/>
      <line id="Line_47" data-name="Line 47" x2="6.9" y2="6.9" transform="translate(33.56 36.17)" fill="none" stroke="#bb1c21" stroke-linecap="round" stroke-linejoin="round" stroke-width="2"/>
      <line id="Line_48" data-name="Line 48" y1="10.79" x2="10.79" transform="translate(35.07 37.68)" fill="none" stroke="#bb1c21" stroke-linecap="round" stroke-linejoin="round" stroke-width="2"/>
      <path id="Path_28" data-name="Path 28" d="M37.24,47.38,49.3,59.44a5.335,5.335,0,0,0,7.54,0h0a5.335,5.335,0,0,0,0-7.54L44.78,39.84" fill="none" stroke="#bb1c21" stroke-linecap="round" stroke-linejoin="round" stroke-width="2"/>
      <path id="Path_29" data-name="Path 29" d="M32.35,22.85,2.88,52.32a5.022,5.022,0,0,0,0,7.1h0a5.022,5.022,0,0,0,7.1,0L39.13,30.27" fill="none" stroke="#bb1c21" stroke-linecap="round" stroke-linejoin="round" stroke-width="2"/>
      <path id="Path_30" data-name="Path 30" d="M53.38,18.58l-8.22-1.05L44.11,9.31l7.33-7.33a15.258,15.258,0,1,0,9.09,9.45Z" fill="none" stroke="#bb1c21" stroke-linecap="round" stroke-linejoin="round" stroke-width="2"/>
    </g>
  </g>
</svg>
