<svg xmlns="http://www.w3.org/2000/svg" width="61.99" height="56.74" viewBox="0 0 61.99 56.74">
  <g id="Layer_2" data-name="Layer 2" transform="translate(0 -0.02)">
    <g id="Group_277" data-name="Group 277">
      <circle id="Ellipse_32" data-name="Ellipse 32" cx="10.13" cy="10.13" r="10.13" transform="translate(10.47 20.75)" fill="none" stroke="#bb1c21" stroke-linecap="round" stroke-linejoin="round" stroke-width="2"/>
      <path id="Path_181" data-name="Path 181" d="M40.19,26.7,38.2,21.32l-3.99.41a16.272,16.272,0,0,0-3.44-3.72l.72-3.94-5.21-2.4-2.53,3.11a16.461,16.461,0,0,0-5.06-.2l-2.28-3.29-5.38,1.99.41,3.99a16.272,16.272,0,0,0-3.72,3.44l-3.94-.72L1.38,25.2l3.11,2.53a16.461,16.461,0,0,0-.2,5.06L1,35.07l1.99,5.38,3.99-.41a16.272,16.272,0,0,0,3.44,3.72L9.7,47.7l5.21,2.4,2.53-3.11a16.461,16.461,0,0,0,5.06.2l2.28,3.29,5.38-1.99-.41-3.99a16.272,16.272,0,0,0,3.72-3.44l3.94.72,2.4-5.21L36.7,34.04a16.461,16.461,0,0,0,.2-5.06l3.29-2.28Z" fill="none" stroke="#bb1c21" stroke-linecap="round" stroke-linejoin="round" stroke-width="2"/>
      <path id="Path_182" data-name="Path 182" d="M37.18,16.42a7.636,7.636,0,1,1,6.8,8.39" fill="none" stroke="#bb1c21" stroke-linecap="round" stroke-linejoin="round" stroke-width="2"/>
      <path id="Path_183" data-name="Path 183" d="M53.05,28.07a13.306,13.306,0,0,0,2.91-3.04l3.3.4,1.73-4.44-2.7-1.94a13.538,13.538,0,0,0-.09-4.21l2.62-2.05L58.9,8.42l-3.29.54a13.306,13.306,0,0,0-3.04-2.91l.4-3.3L48.53,1.02l-1.94,2.7a13.538,13.538,0,0,0-4.21.09L40.33,1.19,35.96,3.11,36.5,6.4a13.306,13.306,0,0,0-2.91,3.04l-3.3-.4" fill="none" stroke="#bb1c21" stroke-linecap="round" stroke-linejoin="round" stroke-width="2"/>
      <circle id="Ellipse_33" data-name="Ellipse 33" cx="4.56" cy="4.56" r="4.56" transform="translate(41.26 38.39)" fill="none" stroke="#bb1c21" stroke-linecap="round" stroke-linejoin="round" stroke-width="2"/>
      <path id="Path_184" data-name="Path 184" d="M34.67,49.9l2.59-.42a10.675,10.675,0,0,0,2.4,2.3l-.32,2.61,3.51,1.37,1.53-2.13a10.582,10.582,0,0,0,3.32-.07l1.62,2.07,3.45-1.51-.42-2.59a10.675,10.675,0,0,0,2.3-2.4l2.61.32,1.37-3.51L56.5,44.41a10.582,10.582,0,0,0-.07-3.32l2.07-1.62-1.51-3.45-2.59.42a10.675,10.675,0,0,0-2.4-2.3l.32-2.61-3.51-1.37-1.53,2.13a10.582,10.582,0,0,0-3.32.07l-1.62-2.07" fill="none" stroke="#bb1c21" stroke-linecap="round" stroke-linejoin="round" stroke-width="2"/>
    </g>
  </g>
</svg>
