<svg xmlns="http://www.w3.org/2000/svg" width="63.421" height="63.419" viewBox="0 0 63.421 63.419">
  <g id="Layer_2" data-name="Layer 2" transform="translate(0.194 0.195)">
    <g id="Group_269" data-name="Group 269" transform="translate(0.999 0.974)">
      <path id="Path_166" data-name="Path 166" d="M34.39,39.95l-19.2,19.2a7.973,7.973,0,0,1-11.27,0h0a7.973,7.973,0,0,1,0-11.27l19.2-19.2" transform="translate(-0.999 -0.974)" fill="none" stroke="#bb1c21" stroke-linecap="round" stroke-linejoin="round" stroke-width="2"/>
      <line id="Line_108" data-name="Line 108" y1="13.25" x2="13.26" transform="translate(2.911 44.926)" fill="none" stroke="#bb1c21" stroke-linecap="round" stroke-linejoin="round" stroke-width="2"/>
      <line id="Line_109" data-name="Line 109" y1="12.6" x2="12.61" transform="translate(33.262 15.226)" fill="none" stroke="#bb1c21" stroke-linecap="round" stroke-linejoin="round" stroke-width="2"/>
      <path id="Path_167" data-name="Path 167" d="M47.04,16.03l9.49-1.39L61.58,3.72,60.46,2.6,59.35,1.49,48.42,6.54Z" transform="translate(-0.998 -0.974)" fill="none" stroke="#bb1c21" stroke-linecap="round" stroke-linejoin="round" stroke-width="2"/>
      <path id="Path_168" data-name="Path 168" d="M45.35,39.89,23.13,17.67A11.641,11.641,0,0,0,20.87,4.4,11.486,11.486,0,0,0,7.97,1.98l7.74,7.74-.44,5.55-5.55.44L1.98,7.97A11.646,11.646,0,0,0,4.4,20.88a11.78,11.78,0,0,0,13.27,2.26L39.89,45.36a11.641,11.641,0,0,0,2.26,13.27,11.5,11.5,0,0,0,12.91,2.42l-7.74-7.74.44-5.55,5.55-.44,7.74,7.74a11.643,11.643,0,0,0-2.42-12.91,11.8,11.8,0,0,0-13.27-2.26Z" transform="translate(-0.999 -0.974)" fill="none" stroke="#bb1c21" stroke-linecap="round" stroke-linejoin="round" stroke-width="2"/>
    </g>
  </g>
</svg>
