<svg xmlns="http://www.w3.org/2000/svg" width="351.432" height="186" viewBox="0 0 351.432 186">
  <g id="Group_402" data-name="Group 402" transform="translate(21869 -9144.674)">
    <g id="Group_382" data-name="Group 382" transform="translate(-71.473 12.674)">
      <text id="お客様" transform="translate(-21488.811 9148)" fill="#fff" font-size="14" font-family="NotoSansJP-Bold, Noto Sans JP" font-weight="700"><tspan x="-21" y="0">お客様</tspan></text>
      <g id="Group_224" data-name="Group 224" transform="translate(-22983.811 3860)">
        <rect id="Rectangle_111" data-name="Rectangle 111" width="70" height="70" transform="translate(1460 5388)" fill="#fff"/>
        <text id="価格が_安い_" data-name="価格が
安い!!" transform="translate(1495 5418)" fill="#bb1c21" font-size="16" font-family="HiraKakuStd-W8, Hiragino Kaku Gothic Std"><tspan x="-24" y="0">価格が</tspan><tspan x="-21.808" y="24">安い!!</tspan></text>
      </g>
      <g id="b" transform="translate(-21531.809 9157.851)">
        <g id="c" transform="translate(-0.001 -0.002)">
          <g id="Group_211" data-name="Group 211">
            <path id="Path_70" data-name="Path 70" d="M289.4,182.2l1.013-2.606s-.073-2.182-.311-3.836-.714-3.247,0-3.969a10.189,10.189,0,0,1,2.03-1.418s3.951-4.827,4.5-5.222,1.536-.5.916.693-2.2,3.637-2.2,3.637a2.757,2.757,0,0,1,1.865.364,18.51,18.51,0,0,1,1.939,1.947c.33.235.293,1.426.073,2.085a3.13,3.13,0,0,1-.842,1.19s.623.3-.806,2.117-3.548,2.572-3.731,2.9-2.067,2.87-2.067,2.87L289.4,182.2Z" transform="translate(-213.683 -121.738)" fill="#f9ddd0"/>
            <path id="Path_71" data-name="Path 71" d="M17.358,274.74a19.174,19.174,0,0,1-2.465,2.8,6.3,6.3,0,0,1-2.2,1.421,21.769,21.769,0,0,1-5.377,1.057c-1.646.065-5.34.5-6.073.563s-1.865.4-.842,1.256,1.829,1.455,4.9,1.455,5.047.3,5.6.3.659.3.659,1.091a3.267,3.267,0,0,1-.586,1.85c-.293.429,0,1.52.733.662a33.868,33.868,0,0,0,2.6-3.5,19.488,19.488,0,0,0,1.06-2.017c.586-1.256.037-.165.037-.165s2.54-2.724,4.223-4.542l-2.271-2.229Z" transform="translate(0.001 -202.858)" fill="#f9ddd0"/>
            <path id="Path_72" data-name="Path 72" d="M144.218,137.936c-1.769-.481-1.5-1.18-1.85-3.215a7.441,7.441,0,0,1,0-3.161l-3.281.474-3.281-.474a7.441,7.441,0,0,1,0,3.161c-.348,2.036-.081,2.731-1.85,3.215s-5.036,1.554-5.036,1.554l.476,6.216h19.379l.476-6.216s-3.268-1.073-5.036-1.554Z" transform="translate(-95.19 -97.139)" fill="#fadfd3"/>
            <path id="Path_73" data-name="Path 73" d="M122.921,34.2h2.52s-.207,1.821,2.148,3.752,4.83,1.769,6.245.7,1.224-4.074.139-5.413a13.1,13.1,0,0,0-3.817-2.572s5.84-4.126,6.645-11.36S134.282,3.285,125.6.687A16.35,16.35,0,0,0,110.7,3.68a14.893,14.893,0,0,0-6.156,9.68c-1.18,6.645-.589,7.127,1.661,11.789s12.7,9.055,12.7,9.055h4.019Z" transform="translate(-76.753 0.002)" fill="#e46666"/>
            <g id="Group_209" data-name="Group 209" transform="translate(28.432 20.173)">
              <path id="Path_74" data-name="Path 74" d="M216.378,80.127a3.411,3.411,0,0,1-2.391,2.2c-.931-.05-1.238-1.559-.89-2.993s1.363-2.42,2.268-2.2C216.584,77.432,216.867,78.735,216.378,80.127Z" transform="translate(-185.672 -77.103)" fill="#f9dacd"/>
              <path id="Path_75" data-name="Path 75" d="M108.9,80.127a3.411,3.411,0,0,0,2.391,2.2c.931-.05,1.238-1.559.89-2.993s-1.363-2.42-2.268-2.2C108.691,77.432,108.408,78.735,108.9,80.127Z" transform="translate(-108.67 -77.103)" fill="#f9dacd"/>
            </g>
            <path id="Path_76" data-name="Path 76" d="M143.186,23.246c0,10.745-6.295,19.455-13.5,19.455s-13.5-8.71-13.5-19.455,6.046-13.016,13.5-13.016,13.5,2.271,13.5,13.016Z" transform="translate(-85.783 -7.553)" fill="#f9dacd"/>
            <ellipse id="Ellipse_21" data-name="Ellipse 21" cx="1.018" cy="1.3" rx="1.018" ry="1.3" transform="translate(38.157 19.605)" fill="#333"/>
            <path id="Path_77" data-name="Path 77" d="M142.36,76.67a6.8,6.8,0,0,0,1.688.845" transform="translate(-105.114 -56.61)" fill="#fff" stroke="#333" stroke-linecap="round" stroke-miterlimit="10" stroke-width="1"/>
            <ellipse id="Ellipse_22" data-name="Ellipse 22" cx="1.018" cy="1.3" rx="1.018" ry="1.3" transform="translate(47.887 19.605)" fill="#333"/>
            <path id="Path_78" data-name="Path 78" d="M189.528,76.67a6.8,6.8,0,0,1-1.688.845" transform="translate(-138.694 -56.61)" fill="#fff" stroke="#333" stroke-linecap="round" stroke-miterlimit="10" stroke-width="1"/>
            <path id="Path_79" data-name="Path 79" d="M132.12,62.464s1.85-2.52,6.028-1.606" transform="translate(-97.553 -44.787)" fill="none" stroke="#333" stroke-linecap="round" stroke-miterlimit="10" stroke-width="1"/>
            <path id="Path_80" data-name="Path 80" d="M165.2,89.57s-1.957,1.1,0,1.795" transform="translate(-121.332 -66.135)" fill="none" stroke="#333" stroke-linecap="round" stroke-miterlimit="10" stroke-width="1"/>
            <path id="Path_81" data-name="Path 81" d="M155.87,106.63s3.349,3.215,6.617.16" transform="translate(-115.089 -78.732)" fill="none" stroke="#333" stroke-linecap="round" stroke-miterlimit="10" stroke-width="1"/>
            <path id="Path_82" data-name="Path 82" d="M117.649,13.088s-1.554,8.2-6.161,10.235a31.677,31.677,0,0,1,0-8.681c.7-4.126,3.966-9.539,15.219-9.11s14.335,8.092,13.984,13.5-.8,5.235-.8,5.235S121.4,20,117.649,13.088Z" transform="translate(-82.09 -4.067)" fill="#e46666"/>
            <g id="Group_210" data-name="Group 210" transform="translate(33.732 42.351)">
              <path id="Path_83" data-name="Path 83" d="M128.928,161.87a2.519,2.519,0,0,0,.633,1.572c-.241-.869-.366-1.413-.366-1.413Z" transform="translate(-128.928 -161.87)" fill="#f1a69a"/>
              <path id="Path_84" data-name="Path 84" d="M204.853,161.87l-.267.16s-.126.544-.366,1.413A2.519,2.519,0,0,0,204.853,161.87Z" transform="translate(-184.521 -161.87)" fill="#f1a69a"/>
              <path id="Path_85" data-name="Path 85" d="M140.891,170.645c-6.125-.063-8.566-1.549-9.531-2.765a40.408,40.408,0,0,0,3.051,7.964,10.015,10.015,0,0,0,6.091,4.584v.183s.144-.024.39-.084c.246.058.39.084.39.084v-.183a10.015,10.015,0,0,0,6.091-4.584,40.406,40.406,0,0,0,3.051-7.964C149.457,169.1,147.016,170.583,140.891,170.645Z" transform="translate(-130.724 -166.308)" fill="#f1a69a"/>
            </g>
            <ellipse id="Ellipse_23" data-name="Ellipse 23" cx="2.111" cy="1.3" rx="2.111" ry="1.3" transform="translate(48.363 22.909)" fill="#f9c8c2"/>
            <ellipse id="Ellipse_24" data-name="Ellipse 24" cx="2.111" cy="1.3" rx="2.111" ry="1.3" transform="translate(34.567 22.909)" fill="#f9c8c2"/>
            <path id="Path_86" data-name="Path 86" d="M221.63,181.367s6.088,9.785,7.917,12.365a37.428,37.428,0,0,0,4.134,4.827c.513.528,1.1.693,2.049-.3s6.949-9.058,6.949-9.058l-3.841-2.213a31.206,31.206,0,0,0-3.914,6.512c-5.157-9.453-12.655-20.891-12.655-20.891l-.638,8.759Z" transform="translate(-163.644 -127.449)" fill="#f9c8c2"/>
            <path id="Path_87" data-name="Path 87" d="M76.7,169.6s-1.279.33-2.122,3.668-1.463,6.776-2.525,10.379a22.317,22.317,0,0,1-2.888,6.842c-1.243,1.949-4.681,6.379-4.681,6.379l3.218,2.875s1.756-2.512,3.768-4.958,6.2-12.357,6.2-12.357L76.7,169.6Z" transform="translate(-47.61 -125.227)" fill="#f9c8c2"/>
            <path id="Path_88" data-name="Path 88" d="M127.841,190.248c-.076-5.4,3.556-26.8,3.556-26.8s-3.378-2-5.528-2.177c0,0-4.223,12.033-9.845,13.521-5.622-1.489-9.845-13.521-9.845-13.521-2.151.178-5.528,2.177-5.528,2.177s3.629,21.4,3.556,26.8-6.525,18.474-6.525,18.474v.5h36.686v-.5S127.917,195.649,127.841,190.248Z" transform="translate(-72.123 -119.076)" fill="#fdf7ea"/>
          </g>
        </g>
      </g>
    </g>
    <g id="Group_384" data-name="Group 384">
      <g id="Group_376" data-name="Group 376" transform="translate(-22229 4801)">
        <g id="Ellipse_8" data-name="Ellipse 8" transform="translate(360 4376.349)" fill="none" stroke="#fff" stroke-width="1" opacity="0.1">
          <circle cx="44.863" cy="44.863" r="44.863" stroke="none"/>
          <circle cx="44.863" cy="44.863" r="44.363" fill="none"/>
        </g>
        <text id="メーカー" transform="translate(405 4493)" fill="#fff" font-size="14" font-family="NotoSansJP-Bold, Noto Sans JP" font-weight="700"><tspan x="-28" y="0">メーカー</tspan></text>
      </g>
      <g id="Layer_2" data-name="Layer 2" transform="translate(-21843 9201.339)">
        <g id="Group_59" data-name="Group 59" transform="translate(1 1)">
          <path id="Path_7" data-name="Path 7" d="M1,37.471H36.726V14.257L24.9,24.307V14.6L10.069,25.441,9.375,1h-6.4Z" transform="translate(-1 -1)" fill="none" stroke="#fff" stroke-linecap="round" stroke-linejoin="round" stroke-width="2"/>
          <line id="Line_9" data-name="Line 9" x2="3.299" transform="translate(10.253 29.077)" fill="none" stroke="#fff" stroke-linecap="round" stroke-linejoin="round" stroke-width="2"/>
          <line id="Line_10" data-name="Line 10" x2="3.308" transform="translate(18.476 29.077)" fill="none" stroke="#fff" stroke-linecap="round" stroke-linejoin="round" stroke-width="2"/>
          <line id="Line_11" data-name="Line 11" x2="3.308" transform="translate(26.708 29.077)" fill="none" stroke="#fff" stroke-linecap="round" stroke-linejoin="round" stroke-width="2"/>
        </g>
      </g>
    </g>
    <g id="Group_383" data-name="Group 383">
      <g id="Group_380" data-name="Group 380" transform="translate(-22062 4801.456)">
        <g id="Ellipse_8-2" data-name="Ellipse 8" transform="translate(360 4376.349)" fill="none" stroke="#fff" stroke-width="1" opacity="0.1">
          <circle cx="44.863" cy="44.863" r="44.863" stroke="none"/>
          <circle cx="44.863" cy="44.863" r="44.363" fill="none"/>
        </g>
        <text id="神奈川給湯器_交換センター" data-name="神奈川給湯器
交換センター" transform="translate(405 4493)" fill="#fff" font-size="14" font-family="NotoSansJP-Bold, Noto Sans JP" font-weight="700"><tspan x="-42" y="0">神奈川給湯器</tspan><tspan x="-42" y="20">交換センター</tspan></text>
      </g>
      <g id="Layer_2-2" data-name="Layer 2" transform="translate(-21674 9201.924)">
        <rect id="Rectangle_48" data-name="Rectangle 48" width="30.223" height="40.037" rx="2.95" transform="translate(1 1)" fill="none" stroke="#fff" stroke-linecap="round" stroke-linejoin="round" stroke-width="2"/>
        <rect id="Rectangle_49" data-name="Rectangle 49" width="19.031" height="3.36" rx="1.68" transform="translate(6.6 7.068)" fill="none" stroke="#fff" stroke-linecap="round" stroke-linejoin="round" stroke-width="2"/>
        <g id="Group_64" data-name="Group 64" transform="translate(5.067 36.949)">
          <line id="Line_23" data-name="Line 23" x2="4.907" fill="none" stroke="#fff" stroke-linecap="round" stroke-linejoin="round" stroke-width="2"/>
          <line id="Line_24" data-name="Line 24" x2="4.907" transform="translate(8.091)" fill="none" stroke="#fff" stroke-linecap="round" stroke-linejoin="round" stroke-width="2"/>
          <line id="Line_25" data-name="Line 25" x2="4.907" transform="translate(17.184)" fill="none" stroke="#fff" stroke-linecap="round" stroke-linejoin="round" stroke-width="2"/>
        </g>
        <g id="Group_65" data-name="Group 65" transform="translate(5.963 41.114)">
          <line id="Line_26" data-name="Line 26" y1="2.737" fill="none" stroke="#fff" stroke-linecap="round" stroke-linejoin="round" stroke-width="2"/>
          <line id="Line_27" data-name="Line 27" y1="2.737" transform="translate(6.768)" fill="none" stroke="#fff" stroke-linecap="round" stroke-linejoin="round" stroke-width="2"/>
          <line id="Line_28" data-name="Line 28" y1="2.737" transform="translate(13.53)" fill="none" stroke="#fff" stroke-linecap="round" stroke-linejoin="round" stroke-width="2"/>
          <line id="Line_29" data-name="Line 29" y1="2.737" transform="translate(20.291)" fill="none" stroke="#fff" stroke-linecap="round" stroke-linejoin="round" stroke-width="2"/>
        </g>
      </g>
    </g>
    <g id="Group_218" data-name="Group 218" transform="translate(-22732.023 3902.348)">
      <text id="コストカット_" data-name="コストカット！" transform="translate(992.413 5289)" fill="#fff" font-size="12" font-family="HiraKakuStd-W8, Hiragino Kaku Gothic Std"><tspan x="-41.82" y="0">コストカット！</tspan></text>
      <g id="Group_213" data-name="Group 213" transform="translate(16586.055 10497.744)">
        <path id="Path_66" data-name="Path 66" d="M-15636.3-5204.044l-9.049-18.7-2.871,1.781Z" transform="translate(0.001)" fill="#fff"/>
        <path id="Path_67" data-name="Path 67" d="M-15648.222-5204.044l9.049-18.7,2.871,1.781Z" transform="translate(93.237)" fill="#fff"/>
      </g>
    </g>
    <g id="Group_379" data-name="Group 379" transform="translate(-22200.271 4793.204)">
      <path id="Path_22" data-name="Path 22" d="M-12642.582-3699.807l4.363,4.363-4.363,4.364" transform="translate(13131.99 8122.603)" fill="none" stroke="#fff" stroke-linecap="round" stroke-linejoin="round" stroke-width="1"/>
      <line id="Line_30" data-name="Line 30" x2="62.001" transform="translate(431.771 4427.16)" fill="none" stroke="#fff" stroke-linecap="round" stroke-width="1"/>
    </g>
    <g id="Group_381" data-name="Group 381" transform="translate(-22088.566 4793.204)">
      <path id="Path_22-2" data-name="Path 22" d="M-12642.582-3699.807l4.363,4.363-4.363,4.364" transform="translate(13131.99 8122.603)" fill="none" stroke="#fff" stroke-linecap="round" stroke-linejoin="round" stroke-width="1"/>
      <line id="Line_30-2" data-name="Line 30" x2="12.979" transform="translate(480.792 4427.159)" fill="none" stroke="#fff" stroke-linecap="round" stroke-width="1"/>
    </g>
  </g>
</svg>
