<svg xmlns="http://www.w3.org/2000/svg" width="829.412" height="192.586" viewBox="0 0 829.412 192.586">
  <g id="Component_11_1" data-name="Component 11 – 1" transform="translate(0 2)">
    <g id="Group_91" data-name="Group 91" transform="translate(29.191 -24.558)">
      <path id="Path_259" data-name="Path 259" d="M-289.393-95.942a162.876,162.876,0,0,1,18.788-1.078h6.16v78.54a176.732,176.732,0,0,1-1.232,23.254h33.572a178.246,178.246,0,0,1-1.232-23.254v-80.7a239.086,239.086,0,0,1,1.078-24.794c-6.16.616-8.162.616-19.1.616h-19.558c-8.932,0-12.936-.154-18.48-1.078Zm135.982,69.608h-31.108V4.62h17.71c-.462,5.7-1.54,8.008-4.312,10.472-3.08,2.464-6.16,3.7-12.166,4.62l6.776,11.7c7.392-1.694,11.088-3.542,15.4-7.546,5.082-4.62,7.7-11.242,7.7-19.25Zm29.722-69.608A162.876,162.876,0,0,1-104.9-97.02h6.16v78.54A176.729,176.729,0,0,1-99.973,4.774H-66.4A178.245,178.245,0,0,1-67.633-18.48v-80.7a239.088,239.088,0,0,1,1.078-24.794c-6.16.616-8.162.616-19.1.616h-19.558c-8.932,0-12.936-.154-18.48-1.078ZM32.775,7.546c19.558,0,35.728-8.624,44.968-24.024,5.852-9.7,9.7-26.642,9.7-42.812a102.435,102.435,0,0,0-6.006-35.42A48.5,48.5,0,0,0,70.2-111.8c-9.394-9.24-22.484-14.322-37.422-14.322-19.4,0-35.42,8.624-44.814,24.332-5.852,9.7-9.7,26.488-9.7,42.658A102.188,102.188,0,0,0-15.735-23.87,48.5,48.5,0,0,0-4.493-6.776C4.9,2.618,17.683,7.546,32.775,7.546Zm0-107.646c14.938,0,22.946,13.86,22.946,40.194,0,27.412-7.7,41.272-22.792,41.272-15.246,0-23.1-14.168-23.1-41.734C9.829-85.47,18.3-100.1,32.775-100.1ZM151.817,7.546c19.558,0,35.728-8.624,44.968-24.024,5.852-9.7,9.7-26.642,9.7-42.812a102.435,102.435,0,0,0-6.006-35.42A48.5,48.5,0,0,0,189.239-111.8c-9.394-9.24-22.484-14.322-37.422-14.322-19.4,0-35.42,8.624-44.814,24.332-5.852,9.7-9.7,26.488-9.7,42.658a102.188,102.188,0,0,0,6.006,35.266A48.5,48.5,0,0,0,114.549-6.776C123.943,2.618,136.725,7.546,151.817,7.546Zm0-107.646c14.938,0,22.946,13.86,22.946,40.194,0,27.412-7.7,41.272-22.792,41.272-15.246,0-23.1-14.168-23.1-41.734C128.871-85.47,137.341-100.1,151.817-100.1Zm82.6,72.8h54.5V-8.8c0,1.8-.8,2.2-4.7,2.2-3,0-7.5-.3-14.1-.9a49.6,49.6,0,0,1,4.6,14.8c4.7.1,8.8.2,11.5.2,5.2,0,9-.3,11.2-1,4.5-1.3,6.9-5.1,6.9-10.9V-69a94.325,94.325,0,0,1,.5-12.6,117.225,117.225,0,0,1-12.6.4h-60.6c-6.5,0-9.4-.1-13.1-.4a96.641,96.641,0,0,1,.4,10.3V-4.8a98.433,98.433,0,0,1-.7,13.1h16.7c-.4-2.6-.5-6-.5-12.6Zm19.2-14.2h-19.2V-66.7h19.2Zm15.1,0V-66.7h20.2v25.2Z" transform="translate(462.584 172.67)" fill="#bb1c21"/>
      <path id="Path_258" data-name="Path 258" d="M53.175-16.2v9.9c0,1.35-.45,1.65-2.55,1.65a89.619,89.619,0,0,1-11.7-.975,44,44,0,0,1,3.15,11.7c3.6.15,6.3.225,8.55.225,6.075,0,8.925-.525,11.025-1.95,2.325-1.575,3.3-4.2,3.3-9.075v-47.85a64.178,64.178,0,0,1,.375-9.225,72.87,72.87,0,0,1-9.45.375H22.05a90.847,90.847,0,0,1-9.825-.375,104.559,104.559,0,0,1,.45,11.625c0,20.475-.75,29.25-3,35.925A28.073,28.073,0,0,1,2.55-2.55,38.1,38.1,0,0,1,12.075,7.2C18.3-.225,21.525-7.05,23.025-16.2Zm-29.1-10.275c.225-2.85.3-4.2.45-7.275h28.65v7.275Zm.525-17.55V-50.55H53.175v6.525ZM128.1-39.15a91.815,91.815,0,0,1-11.625,18.6c-2.175-1.725-3.45-2.625-4.95-3.75-2.175-1.5-2.175-1.5-3.3-2.325L99.375-18.6A131.52,131.52,0,0,1,114.3-6.6,128.271,128.271,0,0,1,125.25,5.025l8.925-8.85c-3.3-3.675-5.25-5.625-8.775-9a148.505,148.505,0,0,0,14.925-23.85c.45-.825.675-1.35.75-1.5a18.011,18.011,0,0,0,.9-1.8A11.215,11.215,0,0,1,143.1-42.15l-6.975-8.025a55.807,55.807,0,0,1-8.625.375H112.95c.975-2.4.975-2.475,1.2-3.15a38.217,38.217,0,0,1,2.55-5.7l-13.275-3.375c-.375,4.275-2.7,10.2-6.75,17.475-4.95,8.925-9.15,14.175-18.3,22.8A52.411,52.411,0,0,1,88.8-14.175C97.275-22.95,101.25-28.2,107.7-39.15ZM19.992,29.962a38.414,38.414,0,0,1-5.576.884c.306-1.734.51-2.72.544-2.924A10.749,10.749,0,0,1,15.4,25.95l-6.358-.476v.51a32.792,32.792,0,0,1-.578,5.1H7.82a35.386,35.386,0,0,1-5.168-.34l-.1,5.542a6.852,6.852,0,0,1,.782-.034h.34c1.462.068,2.176.1,3.264.1H7.48A72.61,72.61,0,0,1,1.768,53.762L8.024,56.04c.238-.816.238-.816.782-2.448,1.462-4.386,1.666-5.134,2.516-8.126.952-3.536,1.564-6.052,2.142-9.248,1.054-.068,1.462-.1,3.094-.272l.34,4.828a45.632,45.632,0,0,1,9.554-.85,30.64,30.64,0,0,1,4.454.238l-.1-5.746c-.714-.034-1.428-.034-1.666-.034a57.8,57.8,0,0,0-9.01.51Zm-3.6,12.648c-1.87,2.72-2.652,4.624-2.652,6.6q0,6.426,10,6.426a41.646,41.646,0,0,0,6.63-.544c.816-.1,1.122-.136,1.8-.2l-.408-5.95a25.586,25.586,0,0,1-8.024,1.326c-2.856,0-4.25-.748-4.25-2.312,0-1.054.544-2.176,1.836-3.706Zm22.78.034a25.09,25.09,0,0,1,4.25-1.19A42.3,42.3,0,0,1,52.326,40.2c3.094,0,4.9,1.258,4.9,3.4a4.808,4.808,0,0,1-.408,2.006c-.68,1.564-2.55,2.958-4.862,3.672A26.989,26.989,0,0,1,43.69,50.4a15.011,15.011,0,0,1,2.074,5.44c4.76-.544,5.372-.646,7.718-1.36C59.534,52.64,62.9,48.764,62.9,43.562a7.9,7.9,0,0,0-2.822-6.426c-1.836-1.462-4.114-2.108-7.446-2.108a54.215,54.215,0,0,0-10.676,1.36c-2.72.51-2.72.51-3.91.646ZM87.992,29.962a38.414,38.414,0,0,1-5.576.884c.306-1.734.51-2.72.544-2.924A10.748,10.748,0,0,1,83.4,25.95l-6.358-.476v.51a32.791,32.791,0,0,1-.578,5.1H75.82a35.386,35.386,0,0,1-5.168-.34l-.1,5.542a6.852,6.852,0,0,1,.782-.034h.34c1.462.068,2.176.1,3.264.1h.544a72.61,72.61,0,0,1-5.712,17.408l6.256,2.278c.238-.816.238-.816.782-2.448,1.462-4.386,1.666-5.134,2.516-8.126.952-3.536,1.564-6.052,2.142-9.248,1.054-.068,1.462-.1,3.094-.272l.34,4.828a45.632,45.632,0,0,1,9.554-.85,30.64,30.64,0,0,1,4.454.238l-.1-5.746c-.714-.034-1.428-.034-1.666-.034a57.8,57.8,0,0,0-9.01.51Zm-3.6,12.648c-1.87,2.72-2.652,4.624-2.652,6.6q0,6.426,10,6.426a41.646,41.646,0,0,0,6.63-.544c.816-.1,1.122-.136,1.8-.2l-.408-5.95a25.586,25.586,0,0,1-8.024,1.326c-2.856,0-4.25-.748-4.25-2.312,0-1.054.544-2.176,1.836-3.706Zm38.148-9.656a5.7,5.7,0,0,1,2.856,1.19,8,8,0,0,1,2.992,6.7c0,3.638-1.462,6.494-4.08,7.888a17.683,17.683,0,0,1-7.14,1.734,16.7,16.7,0,0,1,2.89,5.576c4.76-.748,7.446-1.836,9.758-3.91a14.631,14.631,0,0,0,4.522-10.982A13.519,13.519,0,0,0,131,31.7c-2.516-2.652-6.528-4.182-11.084-4.182a16.256,16.256,0,0,0-12.308,5,15.115,15.115,0,0,0-3.91,10.37c0,6.222,3.2,10.574,7.752,10.574,3.094,0,5.372-1.9,7.344-6.256A47.63,47.63,0,0,0,122.536,32.954Zm-5.882.068a44.083,44.083,0,0,1-2.55,10.37c-1.02,2.584-1.9,3.774-2.754,3.774-1.19,0-2.108-1.9-2.108-4.318a11,11,0,0,1,3.706-8.092A6.8,6.8,0,0,1,116.654,33.022Z" transform="translate(-0.416 126.67)" fill="#bb1c21"/>
      <path id="Path_257" data-name="Path 257" d="M-35.1,2.415A15.925,15.925,0,0,1-37.49-2.139a16.458,16.458,0,0,1-.736-4.991,15.9,15.9,0,0,1,.782-5.083,15.173,15.173,0,0,1,2.392-4.577l-2.438-1.564A18.507,18.507,0,0,0-40.365-12.9a17.994,17.994,0,0,0-.9,5.727A17.5,17.5,0,0,0-39.928-.322a19.045,19.045,0,0,0,2.438,4.37Zm4.991-15.778h-1.472a9.68,9.68,0,0,1-1.84-.115v2.438a9.533,9.533,0,0,1,1.84-.115h1.15a19.347,19.347,0,0,1-1.334,3.2,16.352,16.352,0,0,1-2.162,3.151,8.281,8.281,0,0,1,1.173,2.392,14.8,14.8,0,0,0,2.783-5.29c-.046.575-.138,2.392-.138,2.829V-.9a22.819,22.819,0,0,1-.138,2.829h2.668A18.319,18.319,0,0,1-27.715-.9V-5.5c0-.736-.069-2.07-.138-2.622a11.863,11.863,0,0,0,1.771,3.036,14.227,14.227,0,0,1,.828-1.794l.207-.414a10.621,10.621,0,0,1-2.438-3.542,1.988,1.988,0,0,1-.161-.322H-27a10.1,10.1,0,0,1,1.61.092v-2.392a9.735,9.735,0,0,1-1.61.092h-.713v-3.082a21.892,21.892,0,0,0,2.162-.782c.345-.161.368-.184.6-.276l-1.426-2a5.1,5.1,0,0,1-.989.529A21.051,21.051,0,0,1-33.4-17.526a6.574,6.574,0,0,1,.9,2.116c1.2-.184,1.61-.253,2.392-.414Zm7.176-1.357a14.894,14.894,0,0,1-1.84-.092c.046.529.069,1.127.069,1.679v4.14c0,.644-.023,1.2-.069,1.725a14.748,14.748,0,0,1,1.817-.092h.345c0,3.68-1.38,6.026-4.347,7.383a6.609,6.609,0,0,1,1.7,2.024,8.182,8.182,0,0,0,4-4.209,13.884,13.884,0,0,0,1.081-5.2h1.449V-.276c0,1.518.552,1.955,2.53,1.955,2.162,0,2.9-.161,3.335-.782.414-.552.552-1.265.713-3.772A6.5,6.5,0,0,1-14.306-3.91C-14.352-.736-14.4-.621-15.341-.621c-.874,0-.989-.046-.989-.483V-7.36h1.035a16.336,16.336,0,0,1,1.909.092,12.655,12.655,0,0,1-.092-1.7V-13.2a11.264,11.264,0,0,1,.092-1.61,15.835,15.835,0,0,1-1.909.092h-.713A31.877,31.877,0,0,0-14.1-18.561l-2.553-.828a19.231,19.231,0,0,1-1.863,4.669Zm.529,2.208h6.463v2.9H-22.4Zm2.392-3.335a20.089,20.089,0,0,0-1.909-3.565l-2.231,1.035a15.355,15.355,0,0,1,1.886,3.542Zm21.5-.322a16.931,16.931,0,0,1-.437,3.2A14.913,14.913,0,0,1-1.495-7.5,12.363,12.363,0,0,1-4.531-4.554a13.127,13.127,0,0,1,1.817,2A14.688,14.688,0,0,0,.391-5.7,13.523,13.523,0,0,0,2.9-11.316,16.267,16.267,0,0,0,5.474-5.865a16.6,16.6,0,0,0,3.68,3.588,11.044,11.044,0,0,1,1.518-2.415A13.794,13.794,0,0,1,5.612-10.6a15.783,15.783,0,0,1-1.518-6.67c0-.391,0-.713.046-1.242a10.88,10.88,0,0,1-1.679.092H-.828a10.2,10.2,0,0,1-1.909-.115v2.484a11.638,11.638,0,0,1,1.909-.115Zm-11.569-1.1a23.646,23.646,0,0,1,3.956,4.347l1.909-1.863A28.408,28.408,0,0,0-8.234-19Zm-.345,9.108A8.478,8.478,0,0,1-8.855-8.28h1.4v4.945a14.634,14.634,0,0,1-3.427,2.254l1.127,2.622.345-.276c.161-.138.3-.253.69-.552A20.857,20.857,0,0,0-6.348-1.334,5.479,5.479,0,0,0-3.427.828c1.2.391,3.059.529,6.831.529,1.587,0,4.922-.069,6.969-.138a12.571,12.571,0,0,1,.69-2.737,63.4,63.4,0,0,1-8.533.483c-3.956,0-5.152-.161-6.256-.851A2.885,2.885,0,0,1-5.037-3.358V-8.165a23.657,23.657,0,0,1,.092-2.53,9.968,9.968,0,0,1-1.748.115H-8.579a10.286,10.286,0,0,1-1.84-.115ZM14.49,4.048a20.16,20.16,0,0,0,2.461-4.37,17.817,17.817,0,0,0,1.311-6.854,18.656,18.656,0,0,0-.874-5.727,19.21,19.21,0,0,0-2.9-5.451L12.052-16.79a15.173,15.173,0,0,1,2.392,4.577,15.9,15.9,0,0,1,.782,5.083,16.458,16.458,0,0,1-.736,4.991A15.925,15.925,0,0,1,12.1,2.415ZM23.6-6.992c1.449-1.564,2.507-2.116,4-2.116,1.219,0,1.932.276,3.956,1.564a11.754,11.754,0,0,0,3.151,1.7,6.543,6.543,0,0,0,2.024.322A6.459,6.459,0,0,0,40.71-6.831,10.043,10.043,0,0,0,42.9-9.062l-1.84-1.84a6.165,6.165,0,0,1-2.392,2.093,4.546,4.546,0,0,1-1.7.437,7.8,7.8,0,0,1-4.071-1.61A16.51,16.51,0,0,0,30.8-11.247a6.454,6.454,0,0,0-2.967-.69,6.554,6.554,0,0,0-3.772,1.2,7.909,7.909,0,0,0-2.277,2.047Z" transform="translate(723.584 76.67)" fill="#bb1c21"/>
    </g>
    <line id="Line_106" data-name="Line 106" x2="829.412" fill="none" stroke="#bb1c21" stroke-width="4"/>
    <line id="Line_107" data-name="Line 107" x2="829.412" transform="translate(0 188.586)" fill="none" stroke="#bb1c21" stroke-width="4"/>
  </g>
</svg>
