<svg xmlns="http://www.w3.org/2000/svg" xmlns:xlink="http://www.w3.org/1999/xlink" width="264" height="264" viewBox="0 0 264 264">
  <defs>
    <linearGradient id="linear-gradient" x1="0.5" x2="0.5" y2="1" gradientUnits="objectBoundingBox">
      <stop offset="0" stop-color="#fedb87"/>
      <stop offset="0.312" stop-color="#b7813e"/>
      <stop offset="0.463" stop-color="#f9d581"/>
      <stop offset="0.594" stop-color="#a06426"/>
      <stop offset="1" stop-color="#eee3b5"/>
    </linearGradient>
    <filter id="Ellipse_1" x="0" y="0" width="264" height="264" filterUnits="userSpaceOnUse">
      <feOffset dy="3" input="SourceAlpha"/>
      <feGaussianBlur stdDeviation="5" result="blur"/>
      <feFlood flood-opacity="0.161"/>
      <feComposite operator="in" in2="blur"/>
      <feComposite in="SourceGraphic"/>
    </filter>
    <linearGradient id="linear-gradient-2" x1="0.5" x2="0.5" y2="1" gradientUnits="objectBoundingBox">
      <stop offset="0" stop-color="#bb1c21"/>
      <stop offset="1" stop-color="#8b191c"/>
    </linearGradient>
    <linearGradient id="linear-gradient-3" x1="0.5" x2="0.5" y2="1" gradientUnits="objectBoundingBox">
      <stop offset="0" stop-color="#fedb87"/>
      <stop offset="1" stop-color="#a06426"/>
    </linearGradient>
  </defs>
  <g id="Group_412" data-name="Group 412" transform="translate(15054 7322)">
    <g transform="matrix(1, 0, 0, 1, -15054, -7322)" filter="url(#Ellipse_1)">
      <circle id="Ellipse_1-2" data-name="Ellipse 1" cx="117" cy="117" r="117" transform="translate(15 12)" fill="url(#linear-gradient)"/>
    </g>
    <circle id="Ellipse_12" data-name="Ellipse 12" cx="110" cy="110" r="110" transform="translate(-15032 -7303)" fill="url(#linear-gradient-2)"/>
    <path id="Path_265" data-name="Path 265" d="M-55.176-7.32a65.5,65.5,0,0,1-3.1,7.7l2.568,1.44a78.213,78.213,0,0,0,2.832-7.68Zm1.9-4.32a14.363,14.363,0,0,0-3.768-2.136l-1.56,2.088a15.625,15.625,0,0,1,3.672,2.352Zm4.848,6.576v-1.08h4.56V-8.376l.048.072a12.686,12.686,0,0,0,.744-1.272,31.815,31.815,0,0,0,1.368,5.184,11.909,11.909,0,0,1-3.24,4.2,36.533,36.533,0,0,0,.288-3.984c.024-.288.048-.888.048-.888Zm1.248-4.872h1.968c.456.48,1.008,1.1,1.3,1.488h-3.264Zm-2.9-3.168h3.216v1.2h-3.216Zm0-2.976h3.216v1.128h-3.216Zm10.44,2.664a37.131,37.131,0,0,1-.912,5.688,38.237,38.237,0,0,1-1.1-5.376l.1-.312Zm3.5,0v-2.568H-40.9c.288-1.272.528-2.616.72-3.936l-2.64-.408a31.842,31.842,0,0,1-1.656,7.392v-5.112h-2.856c.24-.624.48-1.32.7-2.016l-3-.264a20.111,20.111,0,0,1-.456,2.28h-2.28v.192a16.292,16.292,0,0,0-3.72-2.256l-1.632,2.088a15,15,0,0,1,3.7,2.472l1.656-2.256v7.872h2.52v1.488h-3.264v2.3h2.3v.576A7.027,7.027,0,0,1-54.12.648,14.042,14.042,0,0,1-52.248,2.28,8.144,8.144,0,0,0-48.72-2.808h1.536a5.8,5.8,0,0,1-.36,2.376.689.689,0,0,1-.6.216,12.981,12.981,0,0,1-1.464-.072,5.962,5.962,0,0,1,.624,2.232,10.184,10.184,0,0,0,2.208-.072,1.936,1.936,0,0,0,1.368-.72,1.309,1.309,0,0,0,.24-.408A14.2,14.2,0,0,1-43.7,2.136,14.028,14.028,0,0,0-40.44-1.536a12.077,12.077,0,0,0,2.856,3.6A10.653,10.653,0,0,1-35.856-.168a11.119,11.119,0,0,1-3.288-3.984,35.354,35.354,0,0,0,2.016-9.264Zm5.5-2.136H-16.2v3h3.048v-5.64H-21.96v-2.136h-3.024v2.136h-8.568v5.64h2.9Zm10.632,6.816a9.522,9.522,0,0,1-2.52,4.44c-1.584-.576-3.144-1.1-4.608-1.512.5-.936,1.032-1.92,1.536-2.928Zm7.3,0v-2.688H-24.264c.5-1.008.984-1.992,1.416-2.928l-3-.624c-.48,1.1-1.056,2.328-1.68,3.552h-6.528v2.688h5.16c-1.032,1.944-2.04,3.768-2.9,5.16l2.976.816.456-.792c1.008.336,2.04.72,3.1,1.1A25.157,25.157,0,0,1-33.528-.5,11.655,11.655,0,0,1-31.9,2.088c4.032-.576,7.3-1.512,9.84-3.216a41.217,41.217,0,0,1,6.1,3.168l2.28-2.328a44.111,44.111,0,0,0-6-2.9A14.564,14.564,0,0,0-16.7-8.736ZM7.872-18.624H4.248a16.931,16.931,0,0,1,.144,2.4v4.56c0,3.744-.312,5.544-1.968,7.344A10.858,10.858,0,0,1-3.336-1.3l2.5,2.64A14.131,14.131,0,0,0,4.992-2.112c1.776-1.968,2.784-4.2,2.784-9.36v-4.752C7.776-17.184,7.824-17.952,7.872-18.624Zm-11.136.192H-6.72a17.041,17.041,0,0,1,.1,1.848V-8.5c0,.72-.1,1.656-.12,2.112h3.48c-.048-.552-.072-1.488-.072-2.088v-8.112C-3.336-17.352-3.312-17.88-3.264-18.432Zm18.072,7.32v3.768c.888-.072,2.5-.12,3.864-.12H31.56c1.008,0,2.232.1,2.808.12v-3.768c-.624.048-1.68.144-2.808.144H18.672C17.424-10.968,15.672-11.04,14.808-11.112Zm40.608-5.16-1.968-1.464a8.6,8.6,0,0,1-2.472.312H42.5a26.813,26.813,0,0,1-2.832-.168v3.408c.5-.024,1.824-.168,2.832-.168H50.64a18.6,18.6,0,0,1-3.576,5.88,26.9,26.9,0,0,1-9.84,6.888L39.7,1.008A31.614,31.614,0,0,0,48.72-5.736a54.729,54.729,0,0,1,6.048,6.792L57.5-1.32a67.469,67.469,0,0,0-6.7-6.864,35.286,35.286,0,0,0,3.768-6.6A11.34,11.34,0,0,1,55.416-16.272Z" transform="translate(-14922 -7220)" fill="#fff"/>
    <path id="Path_264" data-name="Path 264" d="M-54.34-8.84h3.44v-2.18h-3.44V-14a26,26,0,0,0,3.38-1.04l-1.68-1.84a33.775,33.775,0,0,1-8.04,2.06A7.462,7.462,0,0,1-60-12.96c1.08-.14,2.22-.32,3.36-.54v2.48h-3.8v2.18h3.34a19.373,19.373,0,0,1-3.8,5.76A13.386,13.386,0,0,1-59.7-.76a19.9,19.9,0,0,0,3.06-4.7V1.7h2.3V-5.2c.8.82,1.64,1.72,2.12,2.34l1.38-2.04c-.54-.42-2.52-2.12-3.5-2.86Zm6.7-5.68h-2.32V-3.34h2.32Zm2.4-2.04V-1.18c0,.36-.16.48-.54.5-.42,0-1.7,0-3-.06a9.128,9.128,0,0,1,.82,2.46,9.848,9.848,0,0,0,3.98-.46c.82-.38,1.1-1.04,1.1-2.42v-15.4ZM-35.18-7.1l-.36-1.48c-1.84.72-3.76,1.46-5.02,1.86l1.12,1.92c1.08-.48,2.4-1.1,3.66-1.72l.24,1.38c1.92-.14,4.36-.32,6.78-.54a7.743,7.743,0,0,1,.42,1l1.8-.8a8.262,8.262,0,0,0-.68-1.44,22.065,22.065,0,0,1,3.18,2.18l1.72-1.42A25.415,25.415,0,0,0-26.5-8.72l-1.22.98c-.32-.48-.68-.96-1-1.38l-1.68.7c.24.34.5.7.72,1.08l-2.06.1a48.626,48.626,0,0,0,3.72-3.9L-29.88-12c-.5.72-1.14,1.52-1.82,2.34-.3-.24-.64-.48-1-.74.58-.68,1.24-1.5,1.86-2.3l-.44-.16H-23v-2.12h-7.22v-1.94h-2.44v1.94H-39.7v2.12h6.54c-.28.5-.62,1.06-.94,1.54l-.48-.28-.92,1.1a19.942,19.942,0,0,0-2.88-1.9l-1.58,1.3a15.759,15.759,0,0,1,3,2.2l1.46-1.24a27.51,27.51,0,0,1,2.52,1.88c-.38.38-.76.76-1.14,1.12Zm9.24-2.02a29.512,29.512,0,0,0,3.08-2.46l-2.12-1.02a18.17,18.17,0,0,1-2.7,2.54ZM-30.22-5.3h-2.44v1.28h-7.68v2.2h7.68V1.74h2.44V-1.82h7.84v-2.2h-7.84ZM-18.92,0H-5.57V-3.57H-9.74V-22.23h-3.27a13.849,13.849,0,0,1-5.16,1.89v2.73h4.02V-3.57h-4.77ZM1.15.42A2.763,2.763,0,0,0,3.91-2.46,2.745,2.745,0,0,0,1.15-5.34,2.739,2.739,0,0,0-1.58-2.46,2.757,2.757,0,0,0,1.15.42ZM7.33,0H22.21V-3.72h-4.8c-1.05,0-2.52.12-3.63.24,4.05-3.96,7.38-8.28,7.38-12.3,0-4.14-2.79-6.84-6.99-6.84-3.03,0-5.01,1.17-7.05,3.36l2.4,2.4a5.808,5.808,0,0,1,4.08-2.28c2.13,0,3.33,1.35,3.33,3.6,0,3.42-3.57,7.59-9.6,12.99ZM29.29,0h4.47c.36-8.7,1.05-13.23,6.21-19.53v-2.7H25.21v3.72H35.2C30.97-12.63,29.68-7.71,29.29,0ZM45.98-5.88c2.14,0,3.62-1.76,3.62-4.74s-1.48-4.68-3.62-4.68c-2.12,0-3.62,1.7-3.62,4.68S43.86-5.88,45.98-5.88Zm0-1.68c-.86,0-1.54-.88-1.54-3.06s.68-3.02,1.54-3.02c.88,0,1.56.84,1.56,3.02S46.86-7.56,45.98-7.56ZM56.8.1c2.12,0,3.62-1.76,3.62-4.72,0-2.98-1.5-4.7-3.62-4.7s-3.64,1.72-3.64,4.7C53.16-1.66,54.68.1,56.8.1Zm0-1.66c-.88,0-1.56-.9-1.56-3.06,0-2.2.68-3.02,1.56-3.02s1.54.82,1.54,3.02C58.34-2.46,57.68-1.56,56.8-1.56ZM46.48.1h1.74l8.1-15.4H54.56Z" transform="translate(-14922 -7119)" fill="#fff" stroke="rgba(0,0,0,0)" stroke-width="1"/>
    <path id="Path_263" data-name="Path 263" d="M-75.68-23.28a25.035,25.035,0,0,1-1,2.6h-6.8l.48-.08a16.949,16.949,0,0,0-1.04-2.52Zm13.8,18.16V-9.84H-77.16v-1.12H-65.4v-4.12H-77.16V-16.2H-63.6v-4.48h-7.2c.48-.8,1-1.68,1.56-2.6H-62V-28h-4.6c.88-1.28,1.88-2.88,2.92-4.6L-69.8-34a32.472,32.472,0,0,1-2.24,5.64l1.2.36h-2.64v-6.24h-5.48V-28h-1.92v-6.24h-5.4V-28h-2.88l1.8-.64a30.251,30.251,0,0,0-2.84-5.52l-5,1.68A41.778,41.778,0,0,1-93.04-28h-4.8v4.72h7.68a24.933,24.933,0,0,1,.96,2.6h-7v4.48h13.28v1.12H-94.24v4.12h11.32v1.12h-15v4.72h10.24A41.714,41.714,0,0,1-99.24-1.4a26.471,26.471,0,0,1,3.72,4.84,38.2,38.2,0,0,0,12.6-5.8V3.8h5.76V-2.56a31.7,31.7,0,0,0,12.52,6,25.49,25.49,0,0,1,3.92-5.28,38.905,38.905,0,0,1-11.4-3.28Zm13.2-16.72h5.76v2.08h-5.76Zm0-6.32h5.76v2.04h-5.76Zm17.44,2.04h-5.8v-2.04h5.8Zm-5.8,6.36v-2.08h5.8v2.08Zm11.88,4.64V-32.8H-54.48v17.68h5.36a29.084,29.084,0,0,1-9.84,4.88,27.071,27.071,0,0,1,3.84,4.76,29.892,29.892,0,0,0,6.48-3.28v.72c0,2.36-.88,5.48-7.36,7.36a22.183,22.183,0,0,1,3.96,4.76c8.16-2.8,9.4-8.04,9.4-11.88v-2.92H-46a27.527,27.527,0,0,0,4.24-4.4h3.88a26.579,26.579,0,0,0,4.24,4.52h-3.12V3.64h6.08V-8.44a25.84,25.84,0,0,0,6,2.84,23.364,23.364,0,0,1,3.88-4.96,27.269,27.269,0,0,1-10.04-4.56ZM7.48-28.32H-7.8v-.96H7.48Zm0,4.4H-7.8v-1H7.48Zm5.84-9H-13.36v12.64H13.32ZM9.96-9.44a16.1,16.1,0,0,1-1.84,2.8,14.719,14.719,0,0,1-1.96-2.8ZM-9.8-3.56V-4.84h4.12V-3.8Zm0-6.28h4.12v1.08H-9.8Zm4.12-4.88v.96H-9.8v-.96Zm19,.76-.96.16H.6v4.36H4.32L1.28-8.6A24.877,24.877,0,0,0,4.52-3.32,19,19,0,0,1-.12-.88V-14.72H18v-4.56H-18.04v4.56h2.96V-3.28c-1.2.08-2.32.12-3.32.16l.36,4.96c3.48-.28,7.92-.6,12.36-.92V3.8H-.12V.16a20.8,20.8,0,0,1,2.4,3.72A26.578,26.578,0,0,0,8.48.44a22.439,22.439,0,0,0,6.96,3.32,19.7,19.7,0,0,1,3.4-4.52,22.6,22.6,0,0,1-6.52-2.52,24.717,24.717,0,0,0,4.6-9.36ZM28.68-25.64H51.16v4.6H57.4V-31H43v-3.24H36.76V-31h-14v9.96h5.92Zm16.2,11.6a14.936,14.936,0,0,1-3.44,6.28C39.08-8.6,36.8-9.36,34.68-10c.68-1.28,1.4-2.64,2.12-4.04Zm13.08,0v-5.48H39.48c.72-1.48,1.44-2.96,2.08-4.36L35.4-25.16c-.76,1.8-1.68,3.68-2.6,5.64H22.12v5.48H30C28.4-11,26.76-8.12,25.4-5.88l6.16,1.64.6-1.04c1.16.36,2.32.8,3.48,1.24A43.544,43.544,0,0,1,22.96-1.52,24.009,24.009,0,0,1,26.2,3.8c6.6-.92,12-2.4,16.16-5.08a66.07,66.07,0,0,1,9.4,4.92l4.76-4.72A73.3,73.3,0,0,0,47.2-5.56a25.038,25.038,0,0,0,4.44-8.48Zm33.52-4.8h-5.4V-20.2h5.4Zm0,5.2h-5.4v-1.4h5.4Zm0,5.16h-5.4V-9.84h5.4ZM84.2-24.28H80.72V-4.4H97.08V-24.28H89.6l.24-1.6h8.6V-30.8H90.4c.12-1.04.2-2.08.28-3.08l-5.8-.28c-.04,1.08-.08,2.2-.16,3.36H74.84v4.92h9.52ZM68.88-34.04A40.935,40.935,0,0,1,60.2-19.52a39.556,39.556,0,0,1,3.04,6.12c.64-.72,1.32-1.48,1.96-2.28V3.76h5.52V-24.28a71.306,71.306,0,0,0,3.64-8.04ZM98.64-2.92H78.92V-21.76H73.56V3.8h5.36V2.04H98.64Z" transform="translate(-14922 -7164)" fill="#dec548"/>
    <path id="Icon_awesome-calculator" data-name="Icon awesome-calculator" d="M17.34,0H2.081A2.133,2.133,0,0,0,0,2.081V20.114A2.133,2.133,0,0,0,2.081,22.2H17.34a2.133,2.133,0,0,0,2.081-2.081V2.081A2.133,2.133,0,0,0,17.34,0ZM5.549,18.866a.6.6,0,0,1-.555.555H3.329a.6.6,0,0,1-.555-.555V17.2a.6.6,0,0,1,.555-.555H4.994a.6.6,0,0,1,.555.555Zm0-5.549a.6.6,0,0,1-.555.555H3.329a.6.6,0,0,1-.555-.555V11.652a.6.6,0,0,1,.555-.555H4.994a.6.6,0,0,1,.555.555ZM11.1,18.866a.6.6,0,0,1-.555.555H8.878a.6.6,0,0,1-.555-.555V17.2a.6.6,0,0,1,.555-.555h1.665a.6.6,0,0,1,.555.555Zm0-5.549a.6.6,0,0,1-.555.555H8.878a.6.6,0,0,1-.555-.555V11.652a.6.6,0,0,1,.555-.555h1.665a.6.6,0,0,1,.555.555Zm5.549,5.549a.6.6,0,0,1-.555.555H14.427a.6.6,0,0,1-.555-.555V11.652a.6.6,0,0,1,.555-.555h1.665a.6.6,0,0,1,.555.555Zm0-11.1a.6.6,0,0,1-.555.555H3.329a.6.6,0,0,1-.555-.555V3.329a.6.6,0,0,1,.555-.555H16.092a.6.6,0,0,1,.555.555Z" transform="translate(-14932.403 -7277.501)" fill="url(#linear-gradient-3)"/>
  </g>
</svg>
