<svg xmlns="http://www.w3.org/2000/svg" width="79.608" height="79.608" viewBox="0 0 79.608 79.608">
  <g id="Group_362" data-name="Group 362" transform="matrix(0.966, 0.259, -0.259, 0.966, 12457.947, 10168.482)">
    <circle id="Ellipse_28" data-name="Ellipse 28" cx="32.5" cy="32.5" r="32.5" transform="translate(-14649 -6602)" fill="#bb1c21"/>
    <path id="Path_247" data-name="Path 247" d="M14.13-3.864A2.075,2.075,0,0,0,16.206-6.18,2.075,2.075,0,0,0,14.13-8.5,2.09,2.09,0,0,0,12.042-6.18,2.09,2.09,0,0,0,14.13-3.864ZM13.4,0h1.428l5.736-8.4H19.134Zm.732-4.848c-.516,0-.876-.444-.876-1.332s.36-1.332.876-1.332.876.432.876,1.332S14.658-4.848,14.13-4.848ZM19.83.1A2.09,2.09,0,0,0,21.918-2.22,2.09,2.09,0,0,0,19.83-4.536,2.088,2.088,0,0,0,17.754-2.22,2.088,2.088,0,0,0,19.83.1Zm0-.984c-.516,0-.876-.432-.876-1.332s.36-1.332.876-1.332.876.444.876,1.332S20.358-.888,19.83-.888Zm-27.5,17.032a4.347,4.347,0,0,0,4.6-4.344,4.347,4.347,0,0,0-4.6-4.344,4.347,4.347,0,0,0-4.6,4.344A4.347,4.347,0,0,0-7.668,16.144Zm0-1.656A2.562,2.562,0,0,1-10.3,11.8,2.562,2.562,0,0,1-7.668,9.112,2.562,2.562,0,0,1-5.04,11.8,2.562,2.562,0,0,1-7.668,14.488ZM4.74,9.16V7.6H-1.608V16H.336V12.94H4.224V11.38H.336V9.16Zm7.668,0V7.6H6.06V16H8V12.94h3.888V11.38H8V9.16Z" transform="translate(-14616 -6567)" fill="#fff"/>
    <path id="Path_246" data-name="Path 246" d="M-3.636-8.832a3.9,3.9,0,0,0,1.968-3.456c0-2.952-2.64-4.8-6.5-4.8-3.816,0-6.456,1.848-6.456,4.8a3.881,3.881,0,0,0,1.944,3.456,4.271,4.271,0,0,0-2.544,3.96c0,3.168,2.808,5.16,7.056,5.16,4.272,0,7.1-1.992,7.1-5.16A4.255,4.255,0,0,0-3.636-8.832Zm-4.536-5.4c1.584,0,2.64.792,2.64,2.112,0,1.272-1.032,2.064-2.64,2.064-1.584,0-2.592-.792-2.592-2.064C-10.764-13.44-9.732-14.232-8.172-14.232Zm0,11.664c-1.92,0-3.12-.936-3.12-2.424s1.2-2.4,3.12-2.4C-6.228-7.392-5-6.48-5-4.992S-6.228-2.568-8.172-2.568ZM7.908.288c4.152,0,7.2-3.144,7.2-8.688s-3.048-8.688-7.2-8.688c-4.128,0-7.2,3.144-7.2,8.688S3.78.288,7.908.288ZM7.908-3C5.988-3,4.644-4.584,4.644-8.4s1.344-5.4,3.264-5.4c1.944,0,3.288,1.584,3.288,5.4S9.852-3,7.908-3Z" transform="translate(-14621.231 -6567.206)" fill="#ffea2c"/>
  </g>
</svg>
