<svg xmlns="http://www.w3.org/2000/svg" width="576" height="461.786" viewBox="0 0 576 461.786">
  <g id="treasonr_img" transform="translate(-1167 -3696.214)">
    <g id="Group_206" data-name="Group 206" transform="translate(44.359 96.5)">
      <g id="Union_6" data-name="Union 6" transform="translate(1515.64 3604.5)" fill="none">
        <path d="M24,90a10,10,0,0,1-10-9.956H0L14,67.756V10A10,10,0,0,1,24,0H152a10,10,0,0,1,10,10V80a10,10,0,0,1-10,10Z" stroke="none"/>
        <path d="M 152.0001068115234 89 C 156.9626617431641 89 161 84.96266937255859 161 80.00010681152344 L 161 9.999896049499512 C 161 5.037333488464355 156.9626617431641 1 152.0001068115234 1 L 23.9993953704834 1 C 19.03683280944824 1 14.9995002746582 5.037333488464355 14.9995002746582 9.999896049499512 L 14.9995002746582 68.20868682861328 L 2.655130386352539 79.04420471191406 L 14.9952917098999 79.04420471191406 L 14.99964618682861 80.03985595703125 C 15.0100622177124 82.43521118164062 15.9509162902832 84.68570709228516 17.64885330200195 86.37679290771484 C 19.34729194641113 88.06839752197266 21.60262489318848 89 23.9993953704834 89 L 152.0001068115234 89 M 152.0001068115234 90 L 23.9993953704834 90 C 18.4918327331543 90 14.02360439300537 85.546142578125 13.99964618682861 80.04420471191406 L 1.4210854715202e-14 80.04420471191406 L 13.9995002746582 67.75585174560547 L 13.9995002746582 9.999896049499512 C 13.9995002746582 4.477499961853027 18.47699928283691 7.105427357601002e-15 23.9993953704834 7.105427357601002e-15 L 152.0001068115234 7.105427357601002e-15 C 157.5225067138672 7.105427357601002e-15 162 4.477499961853027 162 9.999896049499512 L 162 80.00010681152344 C 162 85.52249908447266 157.5225067138672 90 152.0001068115234 90 Z" stroke="none" fill="#fff"/>
      </g>
      <text id="神奈川給湯器交換センターさんに安心してお任せ_" data-name="神奈川給湯器交換センターさんに安心してお任せ！" transform="translate(1541.641 3614)" fill="#fff" font-size="16" font-family="NotoSansJP-Regular, Noto Sans JP"><tspan x="0" y="19">神奈川給湯器交換</tspan><tspan x="0" y="43">センターさんに安</tspan><tspan x="0" y="67">心してお任せ！</tspan></text>
    </g>
    <g id="b" transform="translate(1365.002 3696.216)">
      <g id="c" transform="translate(-0.001 -0.002)">
        <g id="Group_211" data-name="Group 211">
          <path id="Path_70" data-name="Path 70" d="M289.4,195.1l1.767-4.546s-.128-3.807-.543-6.692-1.246-5.665,0-6.925a17.776,17.776,0,0,1,3.542-2.474s6.893-8.422,7.851-9.111,2.679-.867,1.6,1.21-3.83,6.345-3.83,6.345a4.81,4.81,0,0,1,3.255.634c1.47.981,2.807,2.985,3.382,3.4s.511,2.488.128,3.638a5.46,5.46,0,0,1-1.47,2.077s1.086.52-1.406,3.693-6.19,4.487-6.509,5.067-3.606,5.007-3.606,5.007L289.4,195.1Z" transform="translate(-157.298 -89.615)" fill="#f9ddd0"/>
          <path id="Path_71" data-name="Path 71" d="M30.286,274.74c-.192.173-2.7,3.738-4.3,4.893s-1.6,1.671-3.83,2.479a37.983,37.983,0,0,1-9.38,1.844c-2.871.114-9.317.867-10.595.981s-3.255.694-1.47,2.191,3.191,2.538,8.55,2.538,8.805.52,9.764.52,1.15.52,1.15,1.9a5.7,5.7,0,0,1-1.022,3.227c-.511.749,0,2.652,1.278,1.155a59.1,59.1,0,0,0,4.533-6.112,34,34,0,0,0,1.849-3.519c1.022-2.191.064-.288.064-.288s4.432-4.752,7.367-7.924l-3.962-3.889Z" transform="translate(0.001 -149.329)" fill="#f9ddd0"/>
          <path id="Path_72" data-name="Path 72" d="M155.61,142.684c-3.086-.84-2.616-2.059-3.227-5.61a12.981,12.981,0,0,1,0-5.514l-5.724.826-5.724-.826a12.982,12.982,0,0,1,0,5.514c-.607,3.551-.142,4.766-3.227,5.61s-8.787,2.711-8.787,2.711l.831,10.846h33.811l.831-10.846s-5.7-1.872-8.787-2.711Z" transform="translate(-70.072 -71.506)" fill="#fadfd3"/>
          <path id="Path_73" data-name="Path 73" d="M137.049,59.678h4.4s-.361,3.177,3.748,6.546,8.426,3.086,10.9,1.214,2.136-7.107.242-9.444-6.66-4.487-6.66-4.487,10.188-7.2,11.594-19.82S156.869,5.732,141.728,1.2a28.526,28.526,0,0,0-26,5.222,25.984,25.984,0,0,0-10.741,16.889c-2.059,11.594-1.027,12.434,2.9,20.568s22.157,15.8,22.157,15.8h7.011Z" transform="translate(-56.5 0.002)" fill="#e46666"/>
          <g id="Group_209" data-name="Group 209" transform="translate(49.605 35.196)">
            <path id="Path_74" data-name="Path 74" d="M218.925,82.378c-.8,2.287-3.182,3.894-4.172,3.839-1.625-.087-2.159-2.721-1.552-5.222s2.378-4.222,3.958-3.839C219.285,77.677,219.778,79.95,218.925,82.378Z" transform="translate(-165.354 -77.103)" fill="#f9dacd"/>
            <path id="Path_75" data-name="Path 75" d="M109.067,82.378c.8,2.287,3.182,3.894,4.172,3.839,1.625-.087,2.159-2.721,1.552-5.222s-2.378-4.222-3.958-3.839C108.707,77.677,108.214,79.95,109.067,82.378Z" transform="translate(-108.67 -77.103)" fill="#f9dacd"/>
          </g>
          <path id="Path_76" data-name="Path 76" d="M163.3,32.939c0,18.747-10.983,33.943-23.558,33.943s-23.558-15.2-23.558-33.943S126.729,10.23,139.738,10.23,163.3,14.192,163.3,32.939Z" transform="translate(-63.147 -5.56)" fill="#f9dacd"/>
          <ellipse id="Ellipse_21" data-name="Ellipse 21" cx="1.776" cy="2.269" rx="1.776" ry="2.269" transform="translate(66.572 34.204)" fill="#333"/>
          <path id="Path_77" data-name="Path 77" d="M142.36,76.67a11.864,11.864,0,0,0,2.944,1.474" transform="translate(-77.377 -41.672)" fill="#fff" stroke="#333" stroke-linecap="round" stroke-miterlimit="10" stroke-width="1.3"/>
          <ellipse id="Ellipse_22" data-name="Ellipse 22" cx="1.776" cy="2.269" rx="1.776" ry="2.269" transform="translate(83.548 34.204)" fill="#333"/>
          <path id="Path_78" data-name="Path 78" d="M190.784,76.67a11.865,11.865,0,0,1-2.944,1.474" transform="translate(-102.096 -41.672)" fill="#fff" stroke="#333" stroke-linecap="round" stroke-miterlimit="10" stroke-width="1.3"/>
          <path id="Path_79" data-name="Path 79" d="M132.12,63.809s3.227-4.4,10.517-2.8" transform="translate(-71.811 -32.969)" fill="none" stroke="#333" stroke-linecap="round" stroke-miterlimit="10" stroke-width="1.3"/>
          <path id="Path_80" data-name="Path 80" d="M165.843,89.57s-3.414,1.917,0,3.131" transform="translate(-89.316 -48.683)" fill="none" stroke="#333" stroke-linecap="round" stroke-miterlimit="10" stroke-width="1.3"/>
          <path id="Path_81" data-name="Path 81" d="M155.87,106.63s5.843,5.61,11.544.278" transform="translate(-84.72 -57.956)" fill="none" stroke="#333" stroke-linecap="round" stroke-miterlimit="10" stroke-width="1.3"/>
          <path id="Path_82" data-name="Path 82" d="M122.467,18.733s-2.711,14.306-10.75,17.857a55.266,55.266,0,0,1,0-15.146c1.214-7.2,6.92-16.643,26.553-15.894s25.01,14.119,24.4,23.558-1.392,9.134-1.392,9.134S129.013,30.793,122.467,18.733Z" transform="translate(-60.428 -2.993)" fill="#e46666"/>
          <g id="Group_210" data-name="Group 210" transform="translate(58.852 73.889)">
            <path id="Path_83" data-name="Path 83" d="M128.929,161.87a4.395,4.395,0,0,0,1.1,2.743c-.42-1.515-.639-2.465-.639-2.465Z" transform="translate(-128.928 -161.87)" fill="#f1a69a"/>
            <path id="Path_84" data-name="Path 84" d="M205.325,161.87l-.466.278s-.219.949-.639,2.465A4.394,4.394,0,0,0,205.325,161.87Z" transform="translate(-169.851 -161.87)" fill="#f1a69a"/>
            <path id="Path_85" data-name="Path 85" d="M147.989,172.7c-10.686-.11-14.945-2.7-16.629-4.825a70.5,70.5,0,0,0,5.322,13.895c2.848,5.24,8.139,7.294,10.627,8v.32s.251-.041.68-.146c.429.1.68.146.68.146v-.32c2.488-.7,7.778-2.757,10.627-8a70.5,70.5,0,0,0,5.322-13.895C162.934,170,158.675,172.6,147.989,172.7Z" transform="translate(-130.25 -165.137)" fill="#f1a69a"/>
          </g>
          <ellipse id="Ellipse_23" data-name="Ellipse 23" cx="3.684" cy="2.269" rx="3.684" ry="2.269" transform="translate(84.379 39.969)" fill="#f9c8c2"/>
          <ellipse id="Ellipse_24" data-name="Ellipse 24" cx="3.684" cy="2.269" rx="3.684" ry="2.269" transform="translate(60.309 39.969)" fill="#f9c8c2"/>
          <path id="Path_86" data-name="Path 86" d="M221.63,187.888s10.622,17.072,13.813,21.573a65.306,65.306,0,0,0,7.212,8.422c.895.922,1.913,1.21,3.574-.52s12.124-15.8,12.124-15.8l-6.7-3.862a54.446,54.446,0,0,0-6.829,11.361c-9-16.492-22.079-36.449-22.079-36.449l-1.114,15.283Z" transform="translate(-120.462 -93.818)" fill="#f9c8c2"/>
          <path id="Path_87" data-name="Path 87" d="M85.792,169.6s-2.232.575-3.7,6.4-2.552,11.823-4.4,18.108-2.871,8.536-5.039,11.937-8.166,11.129-8.166,11.129l5.615,5.017s3.063-4.382,6.573-8.65,10.818-21.559,10.818-21.559L85.792,169.6Z" transform="translate(-35.046 -92.182)" fill="#f9c8c2"/>
          <path id="Path_88" data-name="Path 88" d="M150.3,211.828c-.132-9.422,6.2-46.761,6.2-46.761s-5.893-3.487-9.645-3.8c0,0-7.367,20.993-17.177,23.59-9.81-2.6-17.177-23.59-17.177-23.59-3.752.31-9.645,3.8-9.645,3.8s6.331,37.339,6.2,46.761S97.68,244.06,97.68,244.06v.881h64.006v-.881S150.434,221.25,150.3,211.828Z" transform="translate(-53.092 -87.655)" fill="#fdf7ea"/>
        </g>
      </g>
    </g>
    <g id="Group_205" data-name="Group 205" transform="translate(568.977 -301)">
      <g id="Union_2" data-name="Union 2" transform="translate(790 4092) rotate(180)" fill="none">
        <path d="M23.978,90a10,10,0,0,1-10-10V22.244l-14-12.288h14A10,10,0,0,1,23.978,0h128a10,10,0,0,1,10,10V80a10,10,0,0,1-10,10Z" stroke="none"/>
        <path d="M 151.9785003662109 89 C 156.9410705566406 89 160.9783935546875 84.96266937255859 160.9783935546875 80.00010681152344 L 160.9783935546875 9.999896049499512 C 160.9783935546875 5.037333488464355 156.9410705566406 1 151.9785003662109 1 L 23.97779655456543 1 C 21.58102607727051 1 19.32569313049316 1.931604146957397 17.62725448608398 3.623208284378052 C 15.92931747436523 5.314291477203369 14.98846340179443 7.564791679382324 14.97804737091064 9.960145950317383 L 14.97369289398193 10.95579147338867 L 2.63353157043457 10.95579147338867 L 14.97790145874023 21.79131317138672 L 14.97790145874023 80.00010681152344 C 14.97790145874023 84.96266937255859 19.01523399353027 89 23.97779655456543 89 L 151.9785003662109 89 M 151.9785003662109 90 L 23.97779655456543 90 C 18.45540046691895 90 13.97790145874023 85.52249908447266 13.97790145874023 80.00010681152344 L 13.97790145874023 22.2441463470459 L -0.02159881591796875 9.955791473388672 L 13.97804737091064 9.955791473388672 C 14.0020055770874 4.453854084014893 18.47023391723633 7.105427357601002e-15 23.97779655456543 7.105427357601002e-15 L 151.9785003662109 7.105427357601002e-15 C 157.5009002685547 7.105427357601002e-15 161.9783935546875 4.477499961853027 161.9783935546875 9.999896049499512 L 161.9783935546875 80.00010681152344 C 161.9783935546875 85.52249908447266 157.5009002685547 90 151.9785003662109 90 Z" stroke="none" fill="#fff"/>
      </g>
      <text id="設置も工事も_修理も管理も_何から何まで" data-name="設置も工事も
修理も管理も
何から何まで" transform="translate(646 4011)" fill="#fff" font-size="16" font-family="NotoSansJP-Regular, Noto Sans JP"><tspan x="0" y="19">設置も工事も</tspan><tspan x="0" y="43">修理も管理も</tspan><tspan x="0" y="67">何から何まで</tspan></text>
    </g>
    <text id="購入発注依頼" transform="translate(1167 3951)" fill="#fff" font-size="16" font-family="NotoSansJP-Regular, Noto Sans JP"><tspan x="0" y="0">購入発注依頼</tspan></text>
    <g id="Group_103" data-name="Group 103" transform="translate(-83.838 -51)">
      <g id="Group_101" data-name="Group 101" transform="translate(1627.838 3880.566)">
        <path id="Path_25" data-name="Path 25" d="M241.645,258.664a147.008,147.008,0,0,0,.963-224.147" transform="translate(-235.338 -27.797)" fill="none" stroke="#fff" stroke-width="2"/>
        <path id="Polygon_5" data-name="Polygon 5" d="M3.5,0,7,8H0Z" transform="matrix(0.616, -0.788, 0.788, 0.616, 0, 5.516)" fill="#fff"/>
      </g>
      <g id="Group_102" data-name="Group 102" transform="translate(1361.838 3880.566)">
        <path id="Path_25-2" data-name="Path 25" d="M294,34.517a147.008,147.008,0,0,0-.963,224.147" transform="translate(-241.645 -34.518)" fill="none" stroke="#fff" stroke-width="2"/>
        <path id="Polygon_5-2" data-name="Polygon 5" d="M3.5,0,7,8H0Z" transform="matrix(-0.616, 0.788, -0.788, -0.616, 58.662, 225.351)" fill="#fff"/>
      </g>
    </g>
    <text id="神奈川給湯器_交換センター" data-name="神奈川給湯器
交換センター" transform="translate(1440 4129)" fill="#fff" font-size="16" font-family="NotoSansJP-Regular, Noto Sans JP"><tspan x="-48" y="0">神奈川給湯器</tspan><tspan x="-48" y="24">交換センター</tspan></text>
    <g id="Layer_2" data-name="Layer 2" transform="translate(1417 4038)">
      <rect id="Rectangle_48" data-name="Rectangle 48" width="43.18" height="57.2" rx="2.95" transform="translate(1 1)" fill="none" stroke="#fff" stroke-linecap="round" stroke-linejoin="round" stroke-width="2"/>
      <rect id="Rectangle_49" data-name="Rectangle 49" width="27.19" height="4.8" rx="2.4" transform="translate(9 9.67)" fill="none" stroke="#fff" stroke-linecap="round" stroke-linejoin="round" stroke-width="2"/>
      <g id="Group_64" data-name="Group 64">
        <line id="Line_23" data-name="Line 23" x2="7.01" transform="translate(6.81 52.36)" fill="none" stroke="#fff" stroke-linecap="round" stroke-linejoin="round" stroke-width="2"/>
        <line id="Line_24" data-name="Line 24" x2="7.01" transform="translate(18.37 52.36)" fill="none" stroke="#fff" stroke-linecap="round" stroke-linejoin="round" stroke-width="2"/>
        <line id="Line_25" data-name="Line 25" x2="7.01" transform="translate(31.36 52.36)" fill="none" stroke="#fff" stroke-linecap="round" stroke-linejoin="round" stroke-width="2"/>
      </g>
      <g id="Group_65" data-name="Group 65">
        <line id="Line_26" data-name="Line 26" y1="3.91" transform="translate(8.09 58.31)" fill="none" stroke="#fff" stroke-linecap="round" stroke-linejoin="round" stroke-width="2"/>
        <line id="Line_27" data-name="Line 27" y1="3.91" transform="translate(17.76 58.31)" fill="none" stroke="#fff" stroke-linecap="round" stroke-linejoin="round" stroke-width="2"/>
        <line id="Line_28" data-name="Line 28" y1="3.91" transform="translate(27.42 58.31)" fill="none" stroke="#fff" stroke-linecap="round" stroke-linejoin="round" stroke-width="2"/>
        <line id="Line_29" data-name="Line 29" y1="3.91" transform="translate(37.08 58.31)" fill="none" stroke="#fff" stroke-linecap="round" stroke-linejoin="round" stroke-width="2"/>
      </g>
    </g>
    <text id="設置_メンテナンス_管理" data-name="設置・
メンテナンス・
管理" transform="translate(1631 3927)" fill="#fff" font-size="16" font-family="NotoSansJP-Regular, Noto Sans JP"><tspan x="0" y="0">設置・</tspan><tspan x="0" y="24">メンテナンス・</tspan><tspan x="0" y="48">管理</tspan></text>
    <text id="お客様" transform="translate(1416 3881.542)" fill="#fff" font-size="16" font-family="NotoSansJP-Regular, Noto Sans JP"><tspan x="0" y="0">お客様</tspan></text>
  </g>
</svg>
