<svg xmlns="http://www.w3.org/2000/svg" width="26" height="25.994" viewBox="0 0 26 25.994">
  <path id="Icon_awesome-instagram" data-name="Icon awesome-instagram" d="M13,7.576a6.665,6.665,0,1,0,6.665,6.665A6.654,6.654,0,0,0,13,7.576Zm0,11a4.333,4.333,0,1,1,4.333-4.333A4.341,4.341,0,0,1,13,18.573ZM21.492,7.3a1.554,1.554,0,1,1-1.554-1.554A1.551,1.551,0,0,1,21.492,7.3Zm4.414,1.578a7.693,7.693,0,0,0-2.1-5.447,7.743,7.743,0,0,0-5.447-2.1c-2.146-.122-8.579-.122-10.725,0A7.732,7.732,0,0,0,2.188,3.428a7.718,7.718,0,0,0-2.1,5.447c-.122,2.146-.122,8.579,0,10.725a7.693,7.693,0,0,0,2.1,5.447,7.753,7.753,0,0,0,5.447,2.1c2.146.122,8.579.122,10.725,0a7.693,7.693,0,0,0,5.447-2.1,7.743,7.743,0,0,0,2.1-5.447C26.028,17.454,26.028,11.027,25.906,8.881ZM23.133,21.9a4.387,4.387,0,0,1-2.471,2.471c-1.711.679-5.771.522-7.662.522s-5.957.151-7.662-.522A4.387,4.387,0,0,1,2.867,21.9c-.679-1.711-.522-5.771-.522-7.662s-.151-5.957.522-7.662A4.387,4.387,0,0,1,5.338,4.107c1.711-.679,5.771-.522,7.662-.522s5.957-.151,7.662.522a4.387,4.387,0,0,1,2.471,2.471c.679,1.711.522,5.771.522,7.662S23.812,20.2,23.133,21.9Z" transform="translate(0.003 -1.243)" fill="#303030"/>
</svg>
