<svg id="Component_10_1" data-name="Component 10 – 1" xmlns="http://www.w3.org/2000/svg" width="884.64" height="71.2" viewBox="0 0 884.64 71.2">
  <g id="Group_55" data-name="Group 55" transform="translate(412.691 11.103)">
    <line id="Line_2" data-name="Line 2" x2="55" y2="55" transform="translate(-0.411 -0.103)" fill="none" stroke="#fff" stroke-width="10"/>
    <line id="Line_3" data-name="Line 3" x1="55" y2="55" transform="translate(-0.411 -0.103)" fill="none" stroke="#fff" stroke-width="10"/>
  </g>
  <path id="Path_12903" data-name="Path 12903" d="M35.44-62.88l-7.2-.48a27.444,27.444,0,0,1-.08,5.68c-.16,2.32-.48,5.2-.88,8.4A79.322,79.322,0,0,1,9.76-52.24L9.44-46.4a110.334,110.334,0,0,0,17.2,2.8c-.64,4.72-1.28,9.76-1.76,14.48A71.394,71.394,0,0,1,7.84-32.4l-.32,6.16a79.066,79.066,0,0,0,16.72,2.88c-.4,3.76-.64,6.96-.64,9.2,0,13.12,8.72,17.84,19.6,17.84,15.84,0,26.4-7.2,26.4-19.12,0-6.88-2.64-12.4-8.16-18.48L54.4-32.48c5.84,4.96,8.72,10.96,8.72,16.32,0,8.24-7.76,13.6-19.92,13.6-9.12,0-13.44-4.8-13.44-12.56,0-1.92.16-4.72.48-7.92h2.88a144.908,144.908,0,0,0,15.68-.8l.16-6.08a117.654,117.654,0,0,1-16.64,1.04H30.8c.56-4.72,1.2-9.76,1.76-14.48h.56c6.48,0,11.12-.24,16.24-.72l.16-6a107.879,107.879,0,0,1-16.24,1.04c.48-3.36.88-6.16,1.12-8.24A44.65,44.65,0,0,1,35.44-62.88ZM152.64-28c0-16.24-11.92-29.44-30.64-29.44-19.52,0-34.96,15.2-34.96,32.56,0,13.2,7.12,21.36,14.24,21.36,7.44,0,13.76-8.4,18.64-24.88a157.369,157.369,0,0,0,4.8-23.04c13.6,1.12,21.36,11.12,21.36,23.2C146.08-14.4,136-6.8,125.76-4.48a60.43,60.43,0,0,1-6.88,1.04l3.76,5.92C141.6,0,152.64-11.2,152.64-28ZM93.28-25.44c0-10.88,9.44-24,24.8-25.92a130.71,130.71,0,0,1-4.48,21.6c-4.08,13.52-8.32,18.88-12.08,18.88C97.92-10.88,93.28-15.36,93.28-25.44Zm71.44-14.88,2.96,6.96c6.32-2.48,26.72-11.28,39.84-11.28,10.8,0,16.96,6.64,16.96,15.04,0,16.32-18.64,22.72-39.52,23.28l2.8,6.64c24.64-1.44,43.76-10.64,43.76-29.84,0-13.44-10.56-21.12-23.84-21.12-11.68,0-27.36,5.84-34.16,8C170.48-41.76,167.6-40.88,164.72-40.32ZM220.48-62.8l-4.24,1.84a88.125,88.125,0,0,1,6.48,11.2l4.4-1.92A110.273,110.273,0,0,0,220.48-62.8Zm8.8-3.2-4.16,1.84a89.705,89.705,0,0,1,6.64,11.04l4.32-1.92A90.709,90.709,0,0,0,229.28-66Zm67.04,6.96-5.92-5.28a37.878,37.878,0,0,1-4.56,5.36c-5.44,5.52-17.6,15.12-23.6,20.16-7.2,6.08-8.16,9.52-.56,15.84,7.44,6.16,19.6,16.56,25.2,22.32,2,1.92,3.84,3.92,5.52,5.84l5.68-5.28C289.6-8.56,275.44-20,268.16-25.92c-5.12-4.32-5.04-5.6-.24-9.68,5.92-4.96,17.44-14.08,22.88-18.88C292.16-55.6,294.64-57.68,296.32-59.04Zm50.8-4.08-7.04-.24c-.16,2.16-.32,4.48-.64,6.88-.96,6.48-2.48,18.24-2.48,25.84a97.425,97.425,0,0,0,.88,12.72L344-18.4a37.288,37.288,0,0,1-.16-9.84c.96-10.48,10.24-25.04,20.24-25.04,8.4,0,12.72,9.12,12.72,21.76,0,20.08-13.6,27.2-30.96,29.76L349.6,4C369.44.4,383.36-9.36,383.36-31.6c0-16.8-7.6-27.44-18.24-27.44-10.16,0-18.48,10-21.76,18.16A148.524,148.524,0,0,1,347.12-63.12Z" transform="translate(501.28 66)" fill="#fff"/>
  <path id="Path_12902" data-name="Path 12902" d="M58.72-59.12,52.4-57.36c.56,2.08,1.2,4,1.84,5.92,5.2,29.68-1.6,48.96-20,48.96-8.16,0-15.6-3.84-15.6-15.12,0-16.4,12.16-30.48,17.28-34.16a33.181,33.181,0,0,1,4.24-1.44l-1.84-5.68c-4.72,1.76-18.24,3.68-25.36,4a37.363,37.363,0,0,1-4.24,0l.48,6.72c1.6-.24,2.96-.48,4.48-.64,2.88-.4,9.52-1.2,13.6-1.84-7.12,7.92-14.96,19.44-14.96,34.4C12.32-3.04,21.52,4,34.08,4,56.24,4,62.32-15.2,60.64-35.36A65.654,65.654,0,0,0,71.52-19.6l4.16-5.68C63.84-35.84,60.4-49.44,58.72-59.12Zm43.52-3.12L95.92-59.6a268.114,268.114,0,0,0,11.6,24.64c-8.56,6-13.84,12.48-13.84,20.72,0,12,10.88,16.48,25.92,16.48a157.486,157.486,0,0,0,25.28-2V-6.88c-6.24,1.6-16.88,2.72-25.6,2.72-12.64,0-18.96-4.16-18.96-10.8,0-6.08,4.48-11.36,11.92-16.16,7.84-5.2,18.88-10.48,24.32-13.28,2.32-1.2,4.32-2.24,6.16-3.36l-3.52-5.68a43.7,43.7,0,0,1-5.68,3.76c-4.4,2.4-13.04,6.64-20.56,11.2A172.277,172.277,0,0,1,102.24-62.24Zm56.88,21.92,2.96,6.96c6.32-2.48,26.72-11.28,39.84-11.28,10.8,0,16.96,6.64,16.96,15.04,0,16.32-18.64,22.72-39.52,23.28l2.8,6.64c24.64-1.44,43.76-10.64,43.76-29.84,0-13.44-10.56-21.12-23.84-21.12-11.68,0-27.36,5.84-34.16,8C164.88-41.76,162-40.88,159.12-40.32ZM214.88-62.8l-4.24,1.84a88.125,88.125,0,0,1,6.48,11.2l4.4-1.92A110.273,110.273,0,0,0,214.88-62.8Zm8.8-3.2-4.16,1.84a89.705,89.705,0,0,1,6.64,11.04l4.32-1.92A90.709,90.709,0,0,0,223.68-66Zm67.04,6.96-5.92-5.28a37.878,37.878,0,0,1-4.56,5.36c-5.44,5.52-17.6,15.12-23.6,20.16-7.2,6.08-8.16,9.52-.56,15.84,7.44,6.16,19.6,16.56,25.2,22.32,2,1.92,3.84,3.92,5.52,5.84l5.68-5.28C284-8.56,269.84-20,262.56-25.92c-5.12-4.32-5.04-5.6-.24-9.68,5.92-4.96,17.44-14.08,22.88-18.88C286.56-55.6,289.04-57.68,290.72-59.04Zm50.8-4.08-7.04-.24c-.16,2.16-.32,4.48-.64,6.88-.96,6.48-2.48,18.24-2.48,25.84a97.425,97.425,0,0,0,.88,12.72l6.16-.48a37.288,37.288,0,0,1-.16-9.84c.96-10.48,10.24-25.04,20.24-25.04,8.4,0,12.72,9.12,12.72,21.76,0,20.08-13.6,27.2-30.96,29.76L344,4C363.84.4,377.76-9.36,377.76-31.6c0-16.8-7.6-27.44-18.24-27.44-10.16,0-18.48,10-21.76,18.16A148.524,148.524,0,0,1,341.52-63.12Z" transform="translate(-8.72 66)" fill="#fff"/>
</svg>
