<svg xmlns="http://www.w3.org/2000/svg" width="32" height="30.475" viewBox="0 0 32 30.475">
  <path id="Icon_simple-line" data-name="Icon simple-line" d="M25.82,13.151a.841.841,0,0,1,0,1.681H23.48v1.5h2.34a.839.839,0,1,1,0,1.679H22.639a.841.841,0,0,1-.836-.839V10.811a.842.842,0,0,1,.84-.84h3.181a.84.84,0,0,1,0,1.68H23.48v1.5h2.34Zm-5.14,4.021a.839.839,0,0,1-.576.795.861.861,0,0,1-.265.041.824.824,0,0,1-.68-.333L15.9,13.252v3.92a.838.838,0,1,1-1.676,0V10.811a.836.836,0,0,1,.573-.793.776.776,0,0,1,.259-.044.862.862,0,0,1,.66.339L19,14.752V10.811a.84.84,0,1,1,1.68,0v6.361Zm-7.655,0a.839.839,0,1,1-1.677,0V10.811a.839.839,0,1,1,1.677,0v6.361Zm-3.288.839H6.556a.845.845,0,0,1-.84-.839V10.811a.84.84,0,1,1,1.68,0v5.521H9.737a.839.839,0,0,1,0,1.679M32,13.752C32,6.591,24.82.763,16,.763S0,6.591,0,13.752c0,6.415,5.693,11.789,13.38,12.811.521.109,1.231.344,1.411.787a3.257,3.257,0,0,1,.051,1.44l-.219,1.36c-.06.4-.32,1.581,1.4.86s9.221-5.437,12.581-9.3A11.5,11.5,0,0,0,32,13.752" transform="translate(0 -0.763)" fill="#222"/>
</svg>
