<svg xmlns="http://www.w3.org/2000/svg" width="82" height="146" viewBox="0 0 82 146">
  <g id="Group_634" data-name="Group 634" transform="translate(-1080.999 -4618)">
    <rect id="Rectangle_1995" data-name="Rectangle 1995" width="82" height="146" transform="translate(1080.999 4618)" fill="none"/>
    <text id="バイク" transform="translate(1122 4756.898)" fill="#fff" font-size="24" font-family="NotoSansJP-Regular, Noto Sans JP"><tspan x="-35.76" y="0">バイク</tspan></text>
    <path id="Icon_awesome-motorcycle" data-name="Icon awesome-motorcycle" d="M50.575,17.121a12.476,12.476,0,0,0-4.181.68L43.15,12.388h8.125a2.361,2.361,0,0,0,2.366-2.366V6.866A2.361,2.361,0,0,0,51.275,4.5H46.808a2.367,2.367,0,0,0-1.755.779l-3.7,4.112L39.107,5.644A2.383,2.383,0,0,0,37.076,4.5H29.187A1.582,1.582,0,0,0,27.61,6.078V7.655a1.582,1.582,0,0,0,1.578,1.578h6.547l1.893,3.155H22.473c-1.745-2.278-4.427-3.944-9.85-3.944H7.15A2.4,2.4,0,0,0,4.734,10.86,2.363,2.363,0,0,0,7.1,13.177h5.522a5.221,5.221,0,0,1,4.713,2.445l-1.114,2.021A12.621,12.621,0,1,0,24.849,32.9h8.3a2.368,2.368,0,0,0,2.366-2.475A14.936,14.936,0,0,1,41.059,18.1l1.233,2.051a12.624,12.624,0,1,0,8.283-3.027ZM12.622,37.631a7.888,7.888,0,1,1,0-15.777,7.336,7.336,0,0,1,1.233.1L9.763,29.387a2.369,2.369,0,0,0,2.071,3.51H19.85A7.91,7.91,0,0,1,12.622,37.631Zm45.742-7.454A7.889,7.889,0,0,1,42.6,29.742a7.824,7.824,0,0,1,2.179-5.433l4.871,8.125a1.584,1.584,0,0,0,2.169.542l1.351-.809A1.584,1.584,0,0,0,53.71,30l-4.792-7.977a7.552,7.552,0,0,1,1.568-.158,7.887,7.887,0,0,1,7.878,8.312Z" transform="translate(1090.002 4639.5)" fill="#fff"/>
  </g>
</svg>
