<svg xmlns="http://www.w3.org/2000/svg" width="146" height="239" viewBox="0 0 146 239">
  <g id="Group_770" data-name="Group 770" transform="translate(-1622 -5758)">
    <path id="Path_206" data-name="Path 206" d="M0,0H146V230H0Z" transform="translate(1622 5758)" fill="none"/>
    <text id="冬" transform="translate(1696 5889.564)" fill="#fff" font-size="20" font-family="NotoSansJP-Bold, Noto Sans JP" font-weight="700"><tspan x="-10" y="0">冬</tspan></text>
    <g id="Group_565" data-name="Group 565" transform="translate(10 -33)">
      <text id="名" transform="translate(1719 6005)" fill="#fff" font-size="30" font-family="NotoSansJP-Bold, Noto Sans JP" font-weight="700"><tspan x="-15" y="0">名</tspan></text>
      <text id="_6" data-name="6" transform="translate(1665 6007)" fill="#f2e724" font-size="90" font-family="Montserrat-Bold, Montserrat" font-weight="700"><tspan x="-28.665" y="0">6</tspan></text>
    </g>
    <path id="ac_unit_FILL0_wght400_GRAD0_opsz48" d="M113.4-807.786v-17.6l-13.45,13.45-3.881-3.791L113.4-833.061v-8.124h-8.124L88.3-824.215l-3.972-3.7L97.6-841.185H80V-846.6H97.6l-13.54-13.54,3.881-3.881L105.275-846.6H113.4v-8.214l-16.97-16.97,3.791-3.972L113.4-862.488V-880h5.416v17.512l13.54-13.54,3.791,3.881-17.331,17.331v8.214h8.214l17.061-17.06,3.881,3.791L134.7-846.6h17.512v5.416H134.7l13.36,13.45-3.7,3.881-17.331-17.331h-8.214v8.124l17.331,17.422-3.7,3.881-13.63-13.63v17.6Z" transform="translate(1580 6651)" fill="#fff"/>
  </g>
</svg>
