<svg xmlns="http://www.w3.org/2000/svg" width="85" height="146" viewBox="0 0 85 146">
  <g id="Group_636" data-name="Group 636" transform="translate(-1464 -4618)">
    <rect id="Rectangle_1994" data-name="Rectangle 1994" width="85" height="146" transform="translate(1464 4618)" fill="none"/>
    <path id="Icon_map-baseball" data-name="Icon map-baseball" d="M35.2,16.331a4.341,4.341,0,0,0,4.129-4.517A4.341,4.341,0,0,0,35.2,7.3a4.343,4.343,0,0,0-4.134,4.518A4.342,4.342,0,0,0,35.2,16.331ZM46.657,55.778,40.8,36V20.4c0-2.119-2.407-2.4-2.407-2.4H30.518A12.394,12.394,0,0,0,28.8,19.2l-3.875,1.776L20.14,15.655a2.067,2.067,0,0,0-3.083-.349,2.57,2.57,0,0,0-.208,3.4l6.1,6.666a2.17,2.17,0,0,0,1.633.8c.475,0-.23-.169.137-.443L28.8,24V36L22.589,55.74c-.451,1.786,1.094,3.624,2.737,4.1a3.341,3.341,0,0,0,4.043-2.372l5.516-17.736,5.546,17.777a3.191,3.191,0,0,0,3.907,2.371,3.477,3.477,0,0,0,2.318-4.105ZM15.764,20.969a.518.518,0,0,0,.78,0l.073-.067a.653.653,0,0,0,0-.859L15.424,18.7a.533.533,0,0,0-.794-.006l-.06.073a.636.636,0,0,0-.012.853l1.207,1.345ZM27.19,5.8,20.14,14.14l.856.953,7.866-7.416,5.23-5.27a1.491,1.491,0,0,0,.341-.947A1.4,1.4,0,0,0,33.127,0a1.272,1.272,0,0,0-.9.367L27.19,5.8Z" transform="translate(1474.601 4633)" fill="#fff"/>
    <text id="草野球" transform="translate(1506 4756.898)" fill="#fff" font-size="24" font-family="NotoSansJP-Regular, Noto Sans JP"><tspan x="-36" y="0">草野球</tspan></text>
  </g>
</svg>
