<svg xmlns="http://www.w3.org/2000/svg" width="146" height="238.936" viewBox="0 0 146 238.936">
  <g id="Group_767" data-name="Group 767" transform="translate(-1623 -5758.064)">
    <path id="Path_206" data-name="Path 206" d="M0,0H146V230H0Z" transform="translate(1623 5758.064)" fill="none"/>
    <text id="春" transform="translate(1696 5889.564)" fill="#fff" font-size="20" font-family="NotoSansJP-Bold, Noto Sans JP" font-weight="700"><tspan x="-10" y="0">春</tspan></text>
    <g id="Group_565" data-name="Group 565" transform="translate(10 -33)">
      <text id="名" transform="translate(1719 6005)" fill="#fff" font-size="30" font-family="NotoSansJP-Bold, Noto Sans JP" font-weight="700"><tspan x="-15" y="0">名</tspan></text>
      <text id="_4" data-name="4" transform="translate(1665 6007)" fill="#f2e724" font-size="90" font-family="Montserrat-Bold, Montserrat" font-weight="700"><tspan x="-31.005" y="0">4</tspan></text>
    </g>
    <g id="sakura01" transform="translate(921.869 5230.9)">
      <path id="Path_213" data-name="Path 213" d="M773.467,585.874s-1.575,13.808-16.836,15.262l-2.18-5.572-5.935-1.453c.121,0-2.059-11.991,9.569-18.411" transform="translate(1.759 6.887)" fill="none" stroke="#fff" stroke-linecap="round" stroke-linejoin="round" stroke-miterlimit="10" stroke-width="2"/>
      <path id="Path_214" data-name="Path 214" d="M783.335,574.6a17.968,17.968,0,0,1,9.327,20.712l-6.056.363-3.27,5.208c0-.121-12.112-1.7-14.535-14.777" transform="translate(6.063 6.654)" fill="none" stroke="#fff" stroke-linecap="round" stroke-linejoin="round" stroke-miterlimit="10" stroke-width="2"/>
      <path id="Path_215" data-name="Path 215" d="M775.1,561.54s9.448-10.3,22.65-2.423l-1.453,5.814,3.876,4.724a18.069,18.069,0,0,1-18.532,9.205" transform="translate(7.394 2.757)" fill="none" stroke="#fff" stroke-linecap="round" stroke-linejoin="round" stroke-miterlimit="10" stroke-width="2"/>
      <path id="Path_216" data-name="Path 216" d="M760.458,565.387s-6.9-12.113,4.6-22.287l5.087,3.27,5.693-2.3a18.126,18.126,0,0,1,3.149,20.591" transform="translate(3.867)" fill="none" stroke="#fff" stroke-linecap="round" stroke-linejoin="round" stroke-miterlimit="10" stroke-width="2"/>
      <path id="Path_217" data-name="Path 217" d="M759.843,579.985A17.991,17.991,0,0,1,740.1,568.72l4.6-3.876-.363-6.056c.121.121,10.78-5.572,20.47,3.513" transform="translate(0 2.965)" fill="none" stroke="#fff" stroke-linecap="round" stroke-linejoin="round" stroke-miterlimit="10" stroke-width="2"/>
      <g id="Group_607" data-name="Group 607" transform="translate(764.325 573.745)">
        <circle id="Ellipse_81" data-name="Ellipse 81" cx="1.453" cy="1.453" r="1.453" fill="#fff"/>
        <path id="Path_218" data-name="Path 218" d="M762,570.327l4.845.969-4.6-1.7Z" transform="translate(-759.699 -568.147)" fill="#fff"/>
      </g>
      <g id="Group_608" data-name="Group 608" transform="translate(773.167 568.052)">
        <circle id="Ellipse_82" data-name="Ellipse 82" cx="1.332" cy="1.332" r="1.332" fill="#fff"/>
        <path id="Path_219" data-name="Path 219" d="M768.2,565.5l.363,4.361.242-4.361Z" transform="translate(-767.231 -563.32)" fill="#fff"/>
      </g>
      <g id="Group_609" data-name="Group 609" transform="translate(768.685 579.922)">
        <circle id="Ellipse_83" data-name="Ellipse 83" cx="1.332" cy="1.332" r="1.332" transform="translate(0 3.028)" fill="#fff"/>
        <path id="Path_220" data-name="Path 220" d="M765.585,577.255l2.3-3.755-2.786,3.391Z" transform="translate(-763.404 -573.5)" fill="#fff"/>
      </g>
      <g id="Group_610" data-name="Group 610" transform="translate(769.389 570.572)">
        <path id="Path_221" data-name="Path 221" d="M765.152,565.8a.977.977,0,1,1-.848,1.09A.943.943,0,0,1,765.152,565.8Z" transform="translate(-764.281 -565.781)" fill="#fff"/>
        <path id="Path_222" data-name="Path 222" d="M765.3,567.406l2.18,2.423-1.575-3.028Z" transform="translate(-764.065 -565.565)" fill="#fff"/>
      </g>
      <g id="Group_611" data-name="Group 611" transform="translate(774.257 580.528)">
        <circle id="Ellipse_84" data-name="Ellipse 84" cx="0.969" cy="0.969" r="0.969" transform="translate(0 3.028)" fill="#fff"/>
        <path id="Path_223" data-name="Path 223" d="M769.548,577.27l-.727-3.27-.121,3.391Z" transform="translate(-768.215 -574)" fill="#fff"/>
      </g>
      <g id="Group_612" data-name="Group 612" transform="translate(767.111 578.468)">
        <circle id="Ellipse_85" data-name="Ellipse 85" cx="0.969" cy="0.969" r="0.969" transform="translate(0 0.485)" fill="#fff"/>
        <path id="Path_224" data-name="Path 224" d="M763.863,573.753l2.907-1.453-3.27.727Z" transform="translate(-762.168 -572.3)" fill="#fff"/>
      </g>
      <g id="Group_613" data-name="Group 613" transform="translate(778.012 573.381)">
        <circle id="Ellipse_86" data-name="Ellipse 86" cx="1.453" cy="1.453" r="1.453" transform="translate(4.239)" fill="#fff"/>
        <path id="Path_225" data-name="Path 225" d="M776,569.2l-4.6,1.817,4.845-1.09Z" transform="translate(-771.4 -567.868)" fill="#fff"/>
      </g>
      <g id="Group_614" data-name="Group 614" transform="translate(776.68 580.043)">
        <circle id="Ellipse_87" data-name="Ellipse 87" cx="1.332" cy="1.332" r="1.332" transform="translate(2.18 3.755)" fill="#fff"/>
        <path id="Path_226" data-name="Path 226" d="M773.691,577.6l-3.391-4,2.786,4.482Z" transform="translate(-770.3 -573.6)" fill="#fff"/>
      </g>
      <g id="Group_615" data-name="Group 615" transform="translate(778.133 578.953)">
        <circle id="Ellipse_88" data-name="Ellipse 88" cx="0.969" cy="0.969" r="0.969" transform="translate(2.665 0.484)" fill="#fff"/>
        <path id="Path_227" data-name="Path 227" d="M774.649,573.548,771.5,572.7l2.907,1.575Z" transform="translate(-771.5 -572.7)" fill="#fff"/>
      </g>
      <g id="Group_616" data-name="Group 616" transform="translate(776.922 570.474)">
        <path id="Path_228" data-name="Path 228" d="M771.884,565.821a.977.977,0,1,1-.363,1.332A.974.974,0,0,1,771.884,565.821Z" transform="translate(-770.31 -565.7)" fill="#fff"/>
        <path id="Path_229" data-name="Path 229" d="M771.953,566.8l-1.454,3.028,2.18-2.665Z" transform="translate(-770.5 -565.468)" fill="#fff"/>
      </g>
    </g>
  </g>
</svg>
