<svg id="Component_26_1" data-name="Component 26 – 1" xmlns="http://www.w3.org/2000/svg" width="278.512" height="112" viewBox="0 0 278.512 112">
  <text id="分" transform="translate(263.512 88.023)" fill="#fff" font-size="30" font-family="NotoSansJP-Bold, Noto Sans JP" font-weight="700"><tspan x="-15" y="0">分</tspan></text>
  <text id="_5" data-name="5" transform="translate(208.512 89)" fill="#f2e724" font-size="92" font-family="Montserrat-Bold, Montserrat" font-weight="700"><tspan x="-27.37" y="0">5</tspan></text>
  <path id="Icon_map-bus-station" data-name="Icon map-bus-station" d="M62.846,39.038H12.832a2.709,2.709,0,0,1-2.657-2.677,3.481,3.481,0,0,1,.092-.722l2.662-18.586c.226-1.207,1.314-1.445,2.615-1.445h44.6c1.292,0,2.388.217,2.612,1.42l2.662,18.925a2.762,2.762,0,0,1,.094.587,2.566,2.566,0,0,1-2.663,2.5Zm-2,20.845a4.97,4.97,0,1,1,5.086-4.98A5.033,5.033,0,0,1,60.846,59.883Zm-46.08,0a4.97,4.97,0,1,1,5.1-4.98A5.029,5.029,0,0,1,14.765,59.883ZM23.544,4.674h31.24V9.36H23.544A2.343,2.343,0,0,1,23.544,4.674Zm44.051,7.17c-.912-4.394-3.577-6.164-7.924-7.932S45.276.038,37.713.038c-7.6,0-17.7,2.113-22.047,3.874S8.7,7.45,7.794,11.844L4.8,36.3V70.278H9.486V73.4c0,6.248,7.81,6.248,7.81,0V70.278h39.05V73.4c0,6.248,9.372,6.248,9.372,0V70.278H70.4V36.3Z" transform="translate(-4.8 17.961)" fill="#fff"/>
</svg>
