<svg id="Component_25_2" data-name="Component 25 – 2" xmlns="http://www.w3.org/2000/svg" width="438" height="174" viewBox="0 0 438 174">
  <text id="_最年少は18歳で入社し25歳で家を購入" data-name="　最年少は18歳で入社し25歳で家を購入" transform="translate(219 167)" fill="#fff" font-size="24" font-family="NotoSansJP-Regular, Noto Sans JP"><tspan x="-218.64" y="0">　最年少は18歳で入社し25歳で家を購入</tspan></text>
  <text id="_6_16" data-name="6/16" transform="translate(253.5 89)" fill="#f2e724" font-size="92" font-family="Montserrat-Bold, Montserrat" font-weight="700"><tspan x="-79.178" y="0">6/</tspan><tspan y="0" font-size="61">16</tspan></text>
  <text id="名" transform="translate(372.5 86)" fill="#fff" font-size="30" font-family="NotoSansJP-Bold, Noto Sans JP" font-weight="700"><tspan x="-15" y="0">名</tspan></text>
  <g id="home05" transform="translate(51.227 23)">
    <path id="Path_198" data-name="Path 198" d="M293.274,241H275.429v13.235h17.845V241Zm-4.016,9.219h-9.812v-5.2h9.812Z" transform="translate(-238.554 -208.734)" fill="#fff"/>
    <path id="Path_199" data-name="Path 199" d="M63.173,55.313V30.563l5.374,3.1V19.788L34.274,0,22.454,6.824V0H9.219V14.466L0,19.788V33.666l5.374-3.1v24.75H0V68.548H68.548V55.313ZM13.235,4.016h5.2V9.143l-5.2,3ZM4.017,22.107,34.274,4.638,64.531,22.107v4.6L34.274,9.24,4.017,26.709Zm5.374,6.137L34.274,13.878,59.157,28.244V55.313H31.673V32.266H13.828V55.313H9.391ZM27.656,55.313H17.845V36.282h9.812Zm36.875,9.219H4.016v-5.2H64.531Z" fill="#fff"/>
  </g>
</svg>
