<svg id="graph_shape06" xmlns="http://www.w3.org/2000/svg" width="358.414" height="192.964" viewBox="0 0 358.414 192.964">
  <text id="_13:3" data-name="13:3" transform="translate(179 97)" fill="#f2e724" font-size="100" font-family="Montserrat-Bold, Montserrat" font-weight="700"><tspan x="-91.9" y="0">13:3</tspan></text>
  <g id="Group_560" data-name="Group 560" transform="translate(-1026.646 -4106)">
    <g id="Group_558" data-name="Group 558" transform="translate(1311.561 4257.625)">
      <g id="Icon_ionic-ios-woman" data-name="Icon ionic-ios-woman" transform="translate(0 0)">
        <path id="Path_180" data-name="Path 180" d="M28.6,46.227a1.906,1.906,0,0,1-1.378-.568,2.21,2.21,0,0,1-.611-1.6V33.774h-1.2V44.057a2.166,2.166,0,0,1-.637,1.611,2.04,2.04,0,0,1-2.808,0,2.15,2.15,0,0,1-.637-1.611V33.774H17.55l3.832-14.693H20.8l-2.1,7.786A1.958,1.958,0,0,1,16.853,28.4h0a1.832,1.832,0,0,1-1.464-.749,2.324,2.324,0,0,1-.31-2.058l2.5-8.965a4.708,4.708,0,0,1,4.194-3.385h8.475a4.913,4.913,0,0,1,4.177,3.35l.009.034,2.5,8.983a2.346,2.346,0,0,1-.336,2.067,1.844,1.844,0,0,1-1.455.741A1.958,1.958,0,0,1,33.3,26.858v-.017l-2.093-7.76h-.663l3.919,14.693H30.581V44.057a2.21,2.21,0,0,1-.611,1.6A1.886,1.886,0,0,1,28.6,46.227Z" transform="translate(-14.971 -4.888)" fill="#fff"/>
        <path id="Path_181" data-name="Path 181" d="M28.625,9.661a3.844,3.844,0,0,1-3.781-3.893,3.782,3.782,0,1,1,7.562,0A3.844,3.844,0,0,1,28.625,9.661Z" transform="translate(-17.588 -1.875)" fill="#fff"/>
      </g>
      <g id="Icon_ionic-ios-woman-2" data-name="Icon ionic-ios-woman" transform="translate(25.722 0)">
        <path id="Path_180-2" data-name="Path 180" d="M28.6,46.227a1.906,1.906,0,0,1-1.378-.568,2.21,2.21,0,0,1-.611-1.6V33.774h-1.2V44.057a2.166,2.166,0,0,1-.637,1.611,2.04,2.04,0,0,1-2.808,0,2.15,2.15,0,0,1-.637-1.611V33.774H17.55l3.832-14.693H20.8l-2.1,7.786A1.958,1.958,0,0,1,16.853,28.4h0a1.832,1.832,0,0,1-1.464-.749,2.324,2.324,0,0,1-.31-2.058l2.5-8.965a4.708,4.708,0,0,1,4.194-3.385h8.475a4.913,4.913,0,0,1,4.177,3.35l.009.034,2.5,8.983a2.346,2.346,0,0,1-.336,2.067,1.844,1.844,0,0,1-1.455.741A1.958,1.958,0,0,1,33.3,26.858v-.017l-2.093-7.76h-.663l3.919,14.693H30.581V44.057a2.21,2.21,0,0,1-.611,1.6A1.886,1.886,0,0,1,28.6,46.227Z" transform="translate(-14.971 -4.888)" fill="#fff"/>
        <path id="Path_181-2" data-name="Path 181" d="M28.625,9.661a3.844,3.844,0,0,1-3.781-3.893,3.782,3.782,0,1,1,7.562,0A3.844,3.844,0,0,1,28.625,9.661Z" transform="translate(-17.588 -1.875)" fill="#fff"/>
      </g>
      <g id="Icon_ionic-ios-woman-3" data-name="Icon ionic-ios-woman" transform="translate(51.444 0)">
        <path id="Path_180-3" data-name="Path 180" d="M28.6,46.227a1.906,1.906,0,0,1-1.378-.568,2.21,2.21,0,0,1-.611-1.6V33.774h-1.2V44.057a2.166,2.166,0,0,1-.637,1.611,2.04,2.04,0,0,1-2.808,0,2.15,2.15,0,0,1-.637-1.611V33.774H17.55l3.832-14.693H20.8l-2.1,7.786A1.958,1.958,0,0,1,16.853,28.4h0a1.832,1.832,0,0,1-1.464-.749,2.324,2.324,0,0,1-.31-2.058l2.5-8.965a4.708,4.708,0,0,1,4.194-3.385h8.475a4.913,4.913,0,0,1,4.177,3.35l.009.034,2.5,8.983a2.346,2.346,0,0,1-.336,2.067,1.844,1.844,0,0,1-1.455.741A1.958,1.958,0,0,1,33.3,26.858v-.017l-2.093-7.76h-.663l3.919,14.693H30.581V44.057a2.21,2.21,0,0,1-.611,1.6A1.886,1.886,0,0,1,28.6,46.227Z" transform="translate(-14.971 -4.888)" fill="#fff"/>
        <path id="Path_181-3" data-name="Path 181" d="M28.625,9.661a3.844,3.844,0,0,1-3.781-3.893,3.782,3.782,0,1,1,7.562,0A3.844,3.844,0,0,1,28.625,9.661Z" transform="translate(-17.588 -1.875)" fill="#fff"/>
      </g>
    </g>
    <g id="Group_557" data-name="Group 557" transform="translate(1026.646 4257.625)">
      <g id="Icon_ionic-ios-man" data-name="Icon ionic-ios-man" transform="translate(0 0)">
        <path id="Path_182" data-name="Path 182" d="M28.545,9.678h-.017a3.9,3.9,0,1,1,3.919-3.9,3.911,3.911,0,0,1-3.9,3.9Z" transform="translate(-18.753 -1.875)" fill="#fff"/>
        <path id="Path_183" data-name="Path 183" d="M23.462,46.29a2.353,2.353,0,0,1-2.325-2.618l.086-23.908h-.861v9.043a2.089,2.089,0,0,1-.551,1.576,1.83,1.83,0,0,1-2.618,0,2.075,2.075,0,0,1-.551-1.576V18.334a4.975,4.975,0,0,1,1.189-3.307,4.4,4.4,0,0,1,3.359-1.55H31.721a4.378,4.378,0,0,1,3.359,1.559,4.953,4.953,0,0,1,1.189,3.3V28.806a2.042,2.042,0,0,1-.568,1.576,1.936,1.936,0,0,1-2.67,0,2.042,2.042,0,0,1-.568-1.576V19.764h-.775V43.671a2.386,2.386,0,1,1-4.754.052V31.562H25.9V43.7A2.45,2.45,0,0,1,23.462,46.29Z" transform="translate(-16.641 -4.95)" fill="#fff"/>
      </g>
      <g id="Icon_ionic-ios-man-2" data-name="Icon ionic-ios-man" transform="translate(22.782 0)">
        <path id="Path_182-2" data-name="Path 182" d="M28.545,9.678h-.017a3.9,3.9,0,1,1,3.919-3.9,3.911,3.911,0,0,1-3.9,3.9Z" transform="translate(-18.753 -1.875)" fill="#fff"/>
        <path id="Path_183-2" data-name="Path 183" d="M23.462,46.29a2.353,2.353,0,0,1-2.325-2.618l.086-23.908h-.861v9.043a2.089,2.089,0,0,1-.551,1.576,1.83,1.83,0,0,1-2.618,0,2.075,2.075,0,0,1-.551-1.576V18.334a4.975,4.975,0,0,1,1.189-3.307,4.4,4.4,0,0,1,3.359-1.55H31.721a4.378,4.378,0,0,1,3.359,1.559,4.953,4.953,0,0,1,1.189,3.3V28.806a2.042,2.042,0,0,1-.568,1.576,1.936,1.936,0,0,1-2.67,0,2.042,2.042,0,0,1-.568-1.576V19.764h-.775V43.671a2.386,2.386,0,1,1-4.754.052V31.562H25.9V43.7A2.45,2.45,0,0,1,23.462,46.29Z" transform="translate(-16.641 -4.95)" fill="#fff"/>
      </g>
      <g id="Icon_ionic-ios-man-3" data-name="Icon ionic-ios-man" transform="translate(45.565 0)">
        <path id="Path_182-3" data-name="Path 182" d="M28.545,9.678h-.017a3.9,3.9,0,1,1,3.919-3.9,3.911,3.911,0,0,1-3.9,3.9Z" transform="translate(-18.753 -1.875)" fill="#fff"/>
        <path id="Path_183-3" data-name="Path 183" d="M23.462,46.29a2.353,2.353,0,0,1-2.325-2.618l.086-23.908h-.861v9.043a2.089,2.089,0,0,1-.551,1.576,1.83,1.83,0,0,1-2.618,0,2.075,2.075,0,0,1-.551-1.576V18.334a4.975,4.975,0,0,1,1.189-3.307,4.4,4.4,0,0,1,3.359-1.55H31.721a4.378,4.378,0,0,1,3.359,1.559,4.953,4.953,0,0,1,1.189,3.3V28.806a2.042,2.042,0,0,1-.568,1.576,1.936,1.936,0,0,1-2.67,0,2.042,2.042,0,0,1-.568-1.576V19.764h-.775V43.671a2.386,2.386,0,1,1-4.754.052V31.562H25.9V43.7A2.45,2.45,0,0,1,23.462,46.29Z" transform="translate(-16.641 -4.95)" fill="#fff"/>
      </g>
      <g id="Icon_ionic-ios-man-4" data-name="Icon ionic-ios-man" transform="translate(68.347 0)">
        <path id="Path_182-4" data-name="Path 182" d="M28.545,9.678h-.017a3.9,3.9,0,1,1,3.919-3.9,3.911,3.911,0,0,1-3.9,3.9Z" transform="translate(-18.753 -1.875)" fill="#fff"/>
        <path id="Path_183-4" data-name="Path 183" d="M23.462,46.29a2.353,2.353,0,0,1-2.325-2.618l.086-23.908h-.861v9.043a2.089,2.089,0,0,1-.551,1.576,1.83,1.83,0,0,1-2.618,0,2.075,2.075,0,0,1-.551-1.576V18.334a4.975,4.975,0,0,1,1.189-3.307,4.4,4.4,0,0,1,3.359-1.55H31.721a4.378,4.378,0,0,1,3.359,1.559,4.953,4.953,0,0,1,1.189,3.3V28.806a2.042,2.042,0,0,1-.568,1.576,1.936,1.936,0,0,1-2.67,0,2.042,2.042,0,0,1-.568-1.576V19.764h-.775V43.671a2.386,2.386,0,1,1-4.754.052V31.562H25.9V43.7A2.45,2.45,0,0,1,23.462,46.29Z" transform="translate(-16.641 -4.95)" fill="#fff"/>
      </g>
      <g id="Icon_ionic-ios-man-5" data-name="Icon ionic-ios-man" transform="translate(91.13 0)">
        <path id="Path_182-5" data-name="Path 182" d="M28.545,9.678h-.017a3.9,3.9,0,1,1,3.919-3.9,3.911,3.911,0,0,1-3.9,3.9Z" transform="translate(-18.753 -1.875)" fill="#fff"/>
        <path id="Path_183-5" data-name="Path 183" d="M23.462,46.29a2.353,2.353,0,0,1-2.325-2.618l.086-23.908h-.861v9.043a2.089,2.089,0,0,1-.551,1.576,1.83,1.83,0,0,1-2.618,0,2.075,2.075,0,0,1-.551-1.576V18.334a4.975,4.975,0,0,1,1.189-3.307,4.4,4.4,0,0,1,3.359-1.55H31.721a4.378,4.378,0,0,1,3.359,1.559,4.953,4.953,0,0,1,1.189,3.3V28.806a2.042,2.042,0,0,1-.568,1.576,1.936,1.936,0,0,1-2.67,0,2.042,2.042,0,0,1-.568-1.576V19.764h-.775V43.671a2.386,2.386,0,1,1-4.754.052V31.562H25.9V43.7A2.45,2.45,0,0,1,23.462,46.29Z" transform="translate(-16.641 -4.95)" fill="#fff"/>
      </g>
      <g id="Icon_ionic-ios-man-6" data-name="Icon ionic-ios-man" transform="translate(113.912 0)">
        <path id="Path_182-6" data-name="Path 182" d="M28.545,9.678h-.017a3.9,3.9,0,1,1,3.919-3.9,3.911,3.911,0,0,1-3.9,3.9Z" transform="translate(-18.753 -1.875)" fill="#fff"/>
        <path id="Path_183-6" data-name="Path 183" d="M23.462,46.29a2.353,2.353,0,0,1-2.325-2.618l.086-23.908h-.861v9.043a2.089,2.089,0,0,1-.551,1.576,1.83,1.83,0,0,1-2.618,0,2.075,2.075,0,0,1-.551-1.576V18.334a4.975,4.975,0,0,1,1.189-3.307,4.4,4.4,0,0,1,3.359-1.55H31.721a4.378,4.378,0,0,1,3.359,1.559,4.953,4.953,0,0,1,1.189,3.3V28.806a2.042,2.042,0,0,1-.568,1.576,1.936,1.936,0,0,1-2.67,0,2.042,2.042,0,0,1-.568-1.576V19.764h-.775V43.671a2.386,2.386,0,1,1-4.754.052V31.562H25.9V43.7A2.45,2.45,0,0,1,23.462,46.29Z" transform="translate(-16.641 -4.95)" fill="#fff"/>
      </g>
      <g id="Icon_ionic-ios-man-7" data-name="Icon ionic-ios-man" transform="translate(136.695 0)">
        <path id="Path_182-7" data-name="Path 182" d="M28.545,9.678h-.017a3.9,3.9,0,1,1,3.919-3.9,3.911,3.911,0,0,1-3.9,3.9Z" transform="translate(-18.753 -1.875)" fill="#fff"/>
        <path id="Path_183-7" data-name="Path 183" d="M23.462,46.29a2.353,2.353,0,0,1-2.325-2.618l.086-23.908h-.861v9.043a2.089,2.089,0,0,1-.551,1.576,1.83,1.83,0,0,1-2.618,0,2.075,2.075,0,0,1-.551-1.576V18.334a4.975,4.975,0,0,1,1.189-3.307,4.4,4.4,0,0,1,3.359-1.55H31.721a4.378,4.378,0,0,1,3.359,1.559,4.953,4.953,0,0,1,1.189,3.3V28.806a2.042,2.042,0,0,1-.568,1.576,1.936,1.936,0,0,1-2.67,0,2.042,2.042,0,0,1-.568-1.576V19.764h-.775V43.671a2.386,2.386,0,1,1-4.754.052V31.562H25.9V43.7A2.45,2.45,0,0,1,23.462,46.29Z" transform="translate(-16.641 -4.95)" fill="#fff"/>
      </g>
      <g id="Icon_ionic-ios-man-8" data-name="Icon ionic-ios-man" transform="translate(159.477 0)">
        <path id="Path_182-8" data-name="Path 182" d="M28.545,9.678h-.017a3.9,3.9,0,1,1,3.919-3.9,3.911,3.911,0,0,1-3.9,3.9Z" transform="translate(-18.753 -1.875)" fill="#fff"/>
        <path id="Path_183-8" data-name="Path 183" d="M23.462,46.29a2.353,2.353,0,0,1-2.325-2.618l.086-23.908h-.861v9.043a2.089,2.089,0,0,1-.551,1.576,1.83,1.83,0,0,1-2.618,0,2.075,2.075,0,0,1-.551-1.576V18.334a4.975,4.975,0,0,1,1.189-3.307,4.4,4.4,0,0,1,3.359-1.55H31.721a4.378,4.378,0,0,1,3.359,1.559,4.953,4.953,0,0,1,1.189,3.3V28.806a2.042,2.042,0,0,1-.568,1.576,1.936,1.936,0,0,1-2.67,0,2.042,2.042,0,0,1-.568-1.576V19.764h-.775V43.671a2.386,2.386,0,1,1-4.754.052V31.562H25.9V43.7A2.45,2.45,0,0,1,23.462,46.29Z" transform="translate(-16.641 -4.95)" fill="#fff"/>
      </g>
      <g id="Icon_ionic-ios-man-9" data-name="Icon ionic-ios-man" transform="translate(182.26 0)">
        <path id="Path_182-9" data-name="Path 182" d="M28.545,9.678h-.017a3.9,3.9,0,1,1,3.919-3.9,3.911,3.911,0,0,1-3.9,3.9Z" transform="translate(-18.753 -1.875)" fill="#fff"/>
        <path id="Path_183-9" data-name="Path 183" d="M23.462,46.29a2.353,2.353,0,0,1-2.325-2.618l.086-23.908h-.861v9.043a2.089,2.089,0,0,1-.551,1.576,1.83,1.83,0,0,1-2.618,0,2.075,2.075,0,0,1-.551-1.576V18.334a4.975,4.975,0,0,1,1.189-3.307,4.4,4.4,0,0,1,3.359-1.55H31.721a4.378,4.378,0,0,1,3.359,1.559,4.953,4.953,0,0,1,1.189,3.3V28.806a2.042,2.042,0,0,1-.568,1.576,1.936,1.936,0,0,1-2.67,0,2.042,2.042,0,0,1-.568-1.576V19.764h-.775V43.671a2.386,2.386,0,1,1-4.754.052V31.562H25.9V43.7A2.45,2.45,0,0,1,23.462,46.29Z" transform="translate(-16.641 -4.95)" fill="#fff"/>
      </g>
      <g id="Icon_ionic-ios-man-10" data-name="Icon ionic-ios-man" transform="translate(205.042 0)">
        <path id="Path_182-10" data-name="Path 182" d="M28.545,9.678h-.017a3.9,3.9,0,1,1,3.919-3.9,3.911,3.911,0,0,1-3.9,3.9Z" transform="translate(-18.753 -1.875)" fill="#fff"/>
        <path id="Path_183-10" data-name="Path 183" d="M23.462,46.29a2.353,2.353,0,0,1-2.325-2.618l.086-23.908h-.861v9.043a2.089,2.089,0,0,1-.551,1.576,1.83,1.83,0,0,1-2.618,0,2.075,2.075,0,0,1-.551-1.576V18.334a4.975,4.975,0,0,1,1.189-3.307,4.4,4.4,0,0,1,3.359-1.55H31.721a4.378,4.378,0,0,1,3.359,1.559,4.953,4.953,0,0,1,1.189,3.3V28.806a2.042,2.042,0,0,1-.568,1.576,1.936,1.936,0,0,1-2.67,0,2.042,2.042,0,0,1-.568-1.576V19.764h-.775V43.671a2.386,2.386,0,1,1-4.754.052V31.562H25.9V43.7A2.45,2.45,0,0,1,23.462,46.29Z" transform="translate(-16.641 -4.95)" fill="#fff"/>
      </g>
      <g id="Icon_ionic-ios-man-11" data-name="Icon ionic-ios-man" transform="translate(227.825 0)">
        <path id="Path_182-11" data-name="Path 182" d="M28.545,9.678h-.017a3.9,3.9,0,1,1,3.919-3.9,3.911,3.911,0,0,1-3.9,3.9Z" transform="translate(-18.753 -1.875)" fill="#fff"/>
        <path id="Path_183-11" data-name="Path 183" d="M23.462,46.29a2.353,2.353,0,0,1-2.325-2.618l.086-23.908h-.861v9.043a2.089,2.089,0,0,1-.551,1.576,1.83,1.83,0,0,1-2.618,0,2.075,2.075,0,0,1-.551-1.576V18.334a4.975,4.975,0,0,1,1.189-3.307,4.4,4.4,0,0,1,3.359-1.55H31.721a4.378,4.378,0,0,1,3.359,1.559,4.953,4.953,0,0,1,1.189,3.3V28.806a2.042,2.042,0,0,1-.568,1.576,1.936,1.936,0,0,1-2.67,0,2.042,2.042,0,0,1-.568-1.576V19.764h-.775V43.671a2.386,2.386,0,1,1-4.754.052V31.562H25.9V43.7A2.45,2.45,0,0,1,23.462,46.29Z" transform="translate(-16.641 -4.95)" fill="#fff"/>
      </g>
      <g id="Icon_ionic-ios-man-12" data-name="Icon ionic-ios-man" transform="translate(250.607 0)">
        <path id="Path_182-12" data-name="Path 182" d="M28.545,9.678h-.017a3.9,3.9,0,1,1,3.919-3.9,3.911,3.911,0,0,1-3.9,3.9Z" transform="translate(-18.753 -1.875)" fill="#fff"/>
        <path id="Path_183-12" data-name="Path 183" d="M23.462,46.29a2.353,2.353,0,0,1-2.325-2.618l.086-23.908h-.861v9.043a2.089,2.089,0,0,1-.551,1.576,1.83,1.83,0,0,1-2.618,0,2.075,2.075,0,0,1-.551-1.576V18.334a4.975,4.975,0,0,1,1.189-3.307,4.4,4.4,0,0,1,3.359-1.55H31.721a4.378,4.378,0,0,1,3.359,1.559,4.953,4.953,0,0,1,1.189,3.3V28.806a2.042,2.042,0,0,1-.568,1.576,1.936,1.936,0,0,1-2.67,0,2.042,2.042,0,0,1-.568-1.576V19.764h-.775V43.671a2.386,2.386,0,1,1-4.754.052V31.562H25.9V43.7A2.45,2.45,0,0,1,23.462,46.29Z" transform="translate(-16.641 -4.95)" fill="#fff"/>
      </g>
    </g>
  </g>
</svg>
