<svg xmlns="http://www.w3.org/2000/svg" width="131" height="146" viewBox="0 0 131 146">
  <g id="Group_635" data-name="Group 635" transform="translate(-1250 -4618)">
    <rect id="Rectangle_1993" data-name="Rectangle 1993" width="131" height="146" transform="translate(1250 4618)" fill="none"/>
    <path id="Icon_ionic-md-football" data-name="Icon ionic-md-football" d="M30,5.625A24.375,24.375,0,1,0,54.375,30,24.4,24.4,0,0,0,30,5.625ZM14.883,27.914l4.594,2.1,2,7.84-1.828,3.434-6.7-.082a20.467,20.467,0,0,1-3.223-8.824ZM40.348,41.285,38.52,37.852l2-7.852,4.582-2.086,5.156,4.465A20.318,20.318,0,0,1,47.039,41.2Zm3.8-17.133-5.109,2.3L31.875,20.4V14.871l5.613-3.82a20.9,20.9,0,0,1,8.859,6.773ZM22.418,11.063l5.59,3.809V20.4l-7.148,6.035-5.039-2.3-2.191-6.281A20.3,20.3,0,0,1,22.418,11.063Zm3.176,38.859c-.082-.023-.152-.035-.234-.059l-2.4-6.457,1.723-3.445H35.32l1.758,3.551-2.32,6.316c-.117.023-.234.059-.352.082a29.545,29.545,0,0,1-4.734.48A19.871,19.871,0,0,1,25.594,49.922Z" transform="translate(1284.375 4632.375)" fill="#fff"/>
    <text id="フットサル" transform="translate(1315 4756.898)" fill="#fff" font-size="24" font-family="NotoSansJP-Regular, Noto Sans JP"><tspan x="-60" y="0">フットサル</tspan></text>
  </g>
</svg>
