<svg id="Layer_3" xmlns="http://www.w3.org/2000/svg" width="281.183" height="209.339" viewBox="0 0 281.183 209.339">
  <g id="Group_287" data-name="Group 287">
    <path id="Path_559" data-name="Path 559" d="M139.14,0l-6.08,22.389h-9.226l-6.625,24.335-2.689,9.888h18.435l2.672-9.876h46.1l6.625-24.347L194.446,0Z" transform="translate(86.736)" fill="#fff"/>
    <path id="Path_560" data-name="Path 560" d="M141,102.163H59.376l-6.8,25.01h59.232L108.942,137.7l-1.44,5.262L102.494,161.4h36.852l5.025-18.435h17.117L156.462,161.4H176.3l5.114-18.435,1.458-5.271,2.935-10.527,6.923-25.01,17.52-63.2H158.2Z" transform="translate(39.819 29.498)" fill="#fff"/>
    <path id="Path_561" data-name="Path 561" d="M0,127.065H14.48l5.025-18.435H5.008Z" transform="translate(0 82.273)" fill="#fff"/>
    <path id="Path_562" data-name="Path 562" d="M52.278,100.411,47.27,118.847H93.348l5.008-18.435L99.8,95.14H53.726Z" transform="translate(35.801 72.057)" fill="#fff"/>
    <path id="Path_563" data-name="Path 563" d="M23.2,74.922,16.4,99.93H29.932l-2.869,10.525-1.44,5.271-5.008,18.435H58.789l5.025-18.435,1.423-5.271L68.12,99.928l6.8-25.01Z" transform="translate(12.421 56.74)" fill="#fff"/>
  </g>
</svg>
