<svg id="graph_shape04" xmlns="http://www.w3.org/2000/svg" width="385" height="137" viewBox="0 0 385 137">
  <text id="_6_16" data-name="6/16" transform="translate(234 109)" fill="#f2e724" font-size="113" font-family="Montserrat-Bold, Montserrat" font-weight="700"><tspan x="-97.291" y="0">6/</tspan><tspan y="0" font-size="75">16</tspan></text>
  <text id="名" transform="translate(370 103)" fill="#fff" font-size="30" font-family="NotoSansJP-Bold, Noto Sans JP" font-weight="700"><tspan x="-15" y="0">名</tspan></text>
  <g id="ranking_fill2" transform="translate(-2.268 32)">
    <path id="Path_209" data-name="Path 209" d="M42.825,54.777a7.775,7.775,0,0,1,6.985-4.03c3.081-.036,4.637-1.606,4.687-4.694a7.76,7.76,0,0,1,4.023-6.971c2.648-1.58,3.222-3.706,1.714-6.4a7.777,7.777,0,0,1,0-8.061c1.508-2.684.938-4.806-1.714-6.387A7.782,7.782,0,0,1,54.5,11.244c-.051-3.074-1.606-4.644-4.687-4.68a7.788,7.788,0,0,1-6.985-4.03Q40.454-1.439,36.435.82a7.777,7.777,0,0,1-8.061,0Q24.342-1.437,21.98,2.533A7.769,7.769,0,0,1,15,6.564c-3.074.036-4.637,1.606-4.68,4.68a7.814,7.814,0,0,1-4.03,6.993c-2.648,1.58-3.229,3.7-1.714,6.387a7.746,7.746,0,0,1,0,8.061q-2.273,4.038,1.714,6.4a7.773,7.773,0,0,1,4.03,6.971c.043,3.085,1.606,4.658,4.68,4.694a7.775,7.775,0,0,1,6.985,4.03q2.371,3.973,6.39,1.707a7.842,7.842,0,0,1,8.061,0Q40.462,58.751,42.825,54.777ZM32.412,45.514A16.861,16.861,0,1,1,49.269,28.65,16.862,16.862,0,0,1,32.412,45.514Z" transform="translate(3.867 0)" fill="#fff"/>
    <path id="Path_210" data-name="Path 210" d="M18.6,15.839c-3.24,0-3.673-1.508-3.673-1.508L2.268,39.2l10.146-1.14,5.611,8.443S29.716,22.114,29.716,22.276C23.657,22.125,26.068,16,18.6,15.839Z" transform="translate(0 37.379)" fill="#fff"/>
    <path id="Path_211" data-name="Path 211" d="M28.369,14.6c-9.244.967-7.364,3.262-9.479,5.044a6.507,6.507,0,0,1-5.47,2.086L27.69,46.285,31.2,37.192l9.98,1.3Z" transform="translate(29.087 38.083)" fill="#fff"/>
    <path id="Path_212" data-name="Path 212" d="M23.484,12.073,19.955,4.929l-3.532,7.144-7.9,1.155L14.232,18.8l-1.346,7.873,7.068-3.713,7.068,3.713L25.677,18.8l5.708-5.567Z" transform="translate(16.317 12.856)" fill="#fff"/>
  </g>
</svg>
