<svg xmlns="http://www.w3.org/2000/svg" width="157" height="146" viewBox="0 0 157 146">
  <g id="Group_633" data-name="Group 633" transform="translate(-855 -4619)">
    <rect id="Rectangle_1991" data-name="Rectangle 1991" width="157" height="146" transform="translate(855 4619)" fill="none"/>
    <g id="family" transform="translate(883.004 4505.27)">
      <g id="Group_549" data-name="Group 549" transform="translate(9.996 126.732)">
        <path id="Path_192" data-name="Path 192" d="M158.376-384.043a6.713,6.713,0,0,0-5.006,6.509,6.709,6.709,0,0,0,8.446,6.493,6.761,6.761,0,0,0,4.9-7.579A6.75,6.75,0,0,0,158.376-384.043Z" transform="translate(-141.766 384.268)" fill="#fff"/>
        <path id="Path_193" data-name="Path 193" d="M685.737-383.7a7.305,7.305,0,0,0-4.479,3.6,6.727,6.727,0,0,0,6.463,9.686,6.762,6.762,0,0,0,5.827-4.247,8.007,8.007,0,0,0,0-4.9,7.018,7.018,0,0,0-3.89-3.844A8.709,8.709,0,0,0,685.737-383.7Z" transform="translate(-626.29 383.843)" fill="#fff"/>
        <path id="Path_194" data-name="Path 194" d="M22.886-203.54a7.176,7.176,0,0,0-5.3,3.471c-1.348,1.953-7.454,14.46-7.579,15.514a2.826,2.826,0,0,0,1.255,2.526,2.764,2.764,0,0,0,3.068-.046c.589-.418.945-1.038,3.921-6.788l3.271-6.308L21.6-177.55c.078,17.42.078,17.637.388,18.179a4.349,4.349,0,0,0,.991,1.008,2.194,2.194,0,0,0,1.643.465,2.2,2.2,0,0,0,1.643-.465,4.232,4.232,0,0,0,1.023-1.147l.356-.681V-178.6l.666.047.651.046.078,9.3c.093,10.259.031,9.795,1.069,10.663a3.031,3.031,0,0,0,4.525-.775l.372-.589.046-17.667.046-17.668,2.48,5.021,2.464,5.037.589-.991a9.545,9.545,0,0,1,2.883-3.131,6.587,6.587,0,0,0,.682-.356c.078-.062-3.239-7.129-4-8.509-1.628-2.929-3.131-4.448-5.114-5.114-.759-.263-1.457-.295-5.967-.341C26.311-203.649,23.49-203.618,22.886-203.54Z" transform="translate(-9.996 218.256)" fill="#fff"/>
        <path id="Path_195" data-name="Path 195" d="M577.348-203.9c-2.5.295-4.231,1.689-6.075,4.882-.682,1.162-4.293,8.663-4.293,8.9a2.05,2.05,0,0,0,.713.449,7.985,7.985,0,0,1,2.805,2.7,7.248,7.248,0,0,0,.6.9c.015,0,1.131-2.092,2.465-4.65,1.348-2.573,2.464-4.65,2.48-4.618.031.031-.6,3.254-1.395,7.176l-1.442,7.113.93,1.86a9.166,9.166,0,0,1,1.008,2.634,3.476,3.476,0,0,1-1.581,3.456l-.62.356h3.177v12.027l.4.806a2.975,2.975,0,0,0,3.425,1.6,3.064,3.064,0,0,0,1.906-1.581c.295-.558.31-.945.31-6.727v-6.122h1.38l.046,6.23.046,6.246.372.589a3.007,3.007,0,0,0,5.285-.217c.294-.558.31-.945.31-6.727v-6.122h2.324c2.108,0,2.324-.031,2.324-.264,0-.155-1.008-5.192-2.248-11.189s-2.232-10.926-2.2-10.957,1.488,2.712,3.239,6.107c2.9,5.61,3.239,6.2,3.828,6.617a2.745,2.745,0,0,0,4.03-1.038,2.575,2.575,0,0,0,.031-2.4c-.744-1.86-6.571-13.483-7.315-14.537A7.047,7.047,0,0,0,588.2-203.9C586.678-204.075,578.852-204.075,577.348-203.9Z" transform="translate(-521.9 218.62)" fill="#fff"/>
        <path id="Path_196" data-name="Path 196" d="M448.189-134.886a4.469,4.469,0,0,0-3.007,5.114,4.5,4.5,0,0,0,7.5,2.371,4.488,4.488,0,0,0-1.845-7.563A3.9,3.9,0,0,0,448.189-134.886Z" transform="translate(-409.881 155.321)" fill="#fff"/>
        <path id="Path_197" data-name="Path 197" d="M358.057-14.167a5.171,5.171,0,0,0-2.479,1.6C354.57-11.455,350.03-2.311,350.03-1.4a1.829,1.829,0,0,0,3.007,1.379,30.344,30.344,0,0,0,2.541-4.448L357.67-8.5V2.942c0,9.329.046,11.531.217,11.933a1.981,1.981,0,0,0,3.658.2c.295-.62.31-.93.31-6.649v-6h.775V8.49c0,5.347.031,6.122.264,6.6a2.042,2.042,0,0,0,3.658-.031c.139-.217.2-3.518.263-11.856l.078-11.546.681,1.318C370.643-1.057,371.185-.1,371.6.152a1.961,1.961,0,0,0,2.557-.573c.527-.821.372-1.333-1.906-6.014-2.758-5.687-3.348-6.556-5.037-7.454-.6-.325-.837-.341-4.665-.372C360.336-14.275,358.321-14.229,358.057-14.167Z" transform="translate(-322.509 44.21)" fill="#fff"/>
      </g>
    </g>
    <text id="家族との時間" transform="translate(933 4756.898)" fill="#fff" font-size="24" font-family="NotoSansJP-Regular, Noto Sans JP"><tspan x="-71.88" y="0">家族との時間</tspan></text>
  </g>
</svg>
