<svg xmlns="http://www.w3.org/2000/svg" width="111" height="146" viewBox="0 0 111 146">
  <g id="Group_632" data-name="Group 632" transform="translate(-687 -4618)">
    <rect id="Rectangle_1990" data-name="Rectangle 1990" width="111" height="146" transform="translate(687 4618)" fill="none"/>
    <path id="Icon_map-casino" data-name="Icon map-casino" d="M58.8,12.587a3,3,0,1,0-3.6,0V31.2H44.4v9.6h12v-.356A4.793,4.793,0,0,0,59.4,36a4.742,4.742,0,0,0-.6-2.279V12.587ZM7.2,20.4a20.888,20.888,0,0,0,3.6,0s-4.819,3.2-4.819,7.2H12s.007-6.665,3.6-10.8l-1.2-1.2a5.8,5.8,0,0,1-4.8,0,11.958,11.958,0,0,0-4.8,1.2V15.6H3.6v7.2H4.8a2.351,2.351,0,0,1,2.4-2.4Zm16.8,0a20.888,20.888,0,0,0,3.6,0s-4.819,3.2-4.819,7.2H28.8s.007-6.665,3.6-10.8l-1.2-1.2a5.8,5.8,0,0,1-4.8,0,11.958,11.958,0,0,0-4.8,1.2V15.6H20.4v7.2h1.2A2.351,2.351,0,0,1,24,20.4Zm21.6-12V6H31.056A5.389,5.389,0,0,0,20.544,6H6V8.4H0V57.6H52.8V8.4ZM19.2,13.2H33.6V30H19.2V13.2Zm-16.8,0H16.8V30H2.4ZM45.6,51.6H6V43.2H45.6v8.4ZM50.4,30H36V13.2H50.4V30Zm-9.6-9.6a20.888,20.888,0,0,0,3.6,0s-4.819,3.2-4.819,7.2H45.6s.007-6.665,3.6-10.8L48,15.6a5.8,5.8,0,0,1-4.8,0,11.958,11.958,0,0,0-4.8,1.2V15.6H37.2v7.2h1.2a2.351,2.351,0,0,1,2.4-2.4Z" transform="translate(712 4633.201)" fill="#fff"/>
    <text id="パチンコ" transform="translate(742 4756.898)" fill="#fff" font-size="24" font-family="NotoSansJP-Regular, Noto Sans JP"><tspan x="-48" y="0">パチンコ</tspan></text>
  </g>
</svg>
