<svg xmlns="http://www.w3.org/2000/svg" width="146" height="239" viewBox="0 0 146 239">
  <g id="Group_769" data-name="Group 769" transform="translate(-1617 -5758)">
    <path id="Path_206" data-name="Path 206" d="M0,0H146V230H0Z" transform="translate(1617 5758)" fill="none"/>
    <text id="秋" transform="translate(1696 5889.564)" fill="#fff" font-size="20" font-family="NotoSansJP-Bold, Noto Sans JP" font-weight="700"><tspan x="-10" y="0">秋</tspan></text>
    <g id="Group_565" data-name="Group 565" transform="translate(10 -33)">
      <text id="名" transform="translate(1719 6005)" fill="#fff" font-size="30" font-family="NotoSansJP-Bold, Noto Sans JP" font-weight="700"><tspan x="-15" y="0">名</tspan></text>
      <text id="_4" data-name="4" transform="translate(1665 6007)" fill="#f2e724" font-size="90" font-family="Montserrat-Bold, Montserrat" font-weight="700"><tspan x="-31.005" y="0">4</tspan></text>
    </g>
    <g id="autumn-leaf-svgrepo-com" transform="translate(1546 5775.063)">
      <path id="Path_230" data-name="Path 230" d="M42.578,23.426s-2.079,3.071-2.96,0S35.887,9.709,34.734,8.941L33.578,8.17s-.216,4.174-1.646,3.623S19.978,5.648,19.1,4.443l-.879-1.1s.984,9.224-1.427,7.248c0,0,3.085,7.68-7.131,8.448A27.105,27.105,0,0,0,22.278,32.2s3.182,4.942-2.63,4.166c0,0-8.126-1.095-9.216-2.084,0,0-4.29,8.343-10.432,8.67,0,0,7.361,4.169,6.477,11.519,0,0,14.155.114,13.612,2.306a32.336,32.336,0,0,1-1.538,4.437S31.6,58.642,33.578,55.136c0,0,2.741,2.744,2.968,5.374,0,0,7.464-1.646,6.8-6.364a10.931,10.931,0,0,1,3.955,7.07l1.535-1.039a19.58,19.58,0,0,0-4.058-8.223s-1.433-3.625,2.187-1.754c0,0,8.551,2.852,15.8-2.309,0,0-8-2.628-8.332-5.482,0,0,14.95-9.218,15.59-15.36,0,0-5.388.549-8.237-1.754,0,0-3.628-1.1,1.092-13.279,0,0-3.4,2.007-4.49-10.078,0,0-8.456,12.93-12.522,8.542C45.865,10.476,42.032,18.924,42.578,23.426Z" transform="translate(101 0)" fill="#fff"/>
    </g>
  </g>
</svg>
