<svg xmlns="http://www.w3.org/2000/svg" width="90" height="146" viewBox="0 0 90 146">
  <g id="Group_631" data-name="Group 631" transform="translate(-503 -4618)">
    <rect id="Rectangle_1992" data-name="Rectangle 1992" width="90" height="146" transform="translate(503 4618)" fill="none"/>
    <path id="Icon_awesome-ship" data-name="Icon awesome-ship" d="M58.2,43.669l8.2-8.2a3.752,3.752,0,0,0-1.5-6.222L60,27.668V11.25A3.75,3.75,0,0,0,56.25,7.5h-7.5V2.813A2.812,2.812,0,0,0,45.938,0H29.063A2.812,2.812,0,0,0,26.25,2.813V7.5h-7.5A3.75,3.75,0,0,0,15,11.25V27.668l-4.9,1.574a3.752,3.752,0,0,0-1.5,6.222l8.2,8.2C14.745,48.784,10.03,52.5,2.813,52.5A2.812,2.812,0,0,0,0,55.313v1.875A2.812,2.812,0,0,0,2.813,60c7.151,0,12.6-2.415,16.788-6.96A11.267,11.267,0,0,0,30,60H45a11.267,11.267,0,0,0,10.4-6.96C59.589,57.584,65.035,60,72.188,60A2.812,2.812,0,0,0,75,57.188V55.313A2.812,2.812,0,0,0,72.188,52.5C65.061,52.5,60.288,48.867,58.2,43.669ZM22.5,15h30V25.258L38.647,20.8a3.749,3.749,0,0,0-2.295,0L22.5,25.258Z" transform="translate(509 4633)" fill="#fff"/>
    <text id="船釣り" transform="translate(547 4756.898)" fill="#fff" font-size="24" font-family="NotoSansJP-Regular, Noto Sans JP"><tspan x="-36" y="0">船釣り</tspan></text>
  </g>
</svg>
