<svg xmlns="http://www.w3.org/2000/svg" width="146" height="239" viewBox="0 0 146 239">
  <g id="Group_768" data-name="Group 768" transform="translate(-1623 -5758)">
    <path id="Path_206" data-name="Path 206" d="M0,0H146V230H0Z" transform="translate(1623 5758)" fill="none"/>
    <text id="夏" transform="translate(1696 5889.564)" fill="#fff" font-size="20" font-family="NotoSansJP-Bold, Noto Sans JP" font-weight="700"><tspan x="-10" y="0">夏</tspan></text>
    <g id="Group_565" data-name="Group 565" transform="translate(10 -33)">
      <text id="名" transform="translate(1719 6005)" fill="#fff" font-size="30" font-family="NotoSansJP-Bold, Noto Sans JP" font-weight="700"><tspan x="-15" y="0">名</tspan></text>
      <text id="_2" data-name="2" transform="translate(1665 6007)" fill="#f2e724" font-size="90" font-family="Montserrat-Bold, Montserrat" font-weight="700"><tspan x="-26.55" y="0">2</tspan></text>
    </g>
    <path id="light_mode_FILL0_wght400_GRAD0_opsz48" d="M79.7-867.645a12.237,12.237,0,0,0,8.958-3.68,12.131,12.131,0,0,0,3.7-8.937,12.237,12.237,0,0,0-3.68-8.958,12.131,12.131,0,0,0-8.936-3.7,12.237,12.237,0,0,0-8.958,3.68,12.131,12.131,0,0,0-3.7,8.936,12.237,12.237,0,0,0,3.68,8.958A12.131,12.131,0,0,0,79.7-867.645Zm.021,5.416a17.4,17.4,0,0,1-12.773-5.281,17.4,17.4,0,0,1-5.281-12.773,17.4,17.4,0,0,1,5.281-12.773,17.4,17.4,0,0,1,12.773-5.281,17.4,17.4,0,0,1,12.773,5.281,17.4,17.4,0,0,1,5.281,12.773A17.4,17.4,0,0,1,92.49-867.51,17.4,17.4,0,0,1,79.718-862.229Zm-37.01-15.345a2.613,2.613,0,0,1-1.929-.783A2.644,2.644,0,0,1,40-880.3a2.591,2.591,0,0,1,.779-1.925,2.64,2.64,0,0,1,1.929-.767h9.027a2.612,2.612,0,0,1,1.929.783,2.643,2.643,0,0,1,.779,1.941,2.591,2.591,0,0,1-.779,1.925,2.64,2.64,0,0,1-1.929.767Zm64.992,0a2.613,2.613,0,0,1-1.929-.783,2.644,2.644,0,0,1-.779-1.941,2.591,2.591,0,0,1,.779-1.925,2.64,2.64,0,0,1,1.929-.767h9.027a2.612,2.612,0,0,1,1.929.783,2.644,2.644,0,0,1,.779,1.941,2.591,2.591,0,0,1-.779,1.925,2.64,2.64,0,0,1-1.929.767Zm-28-27.983a2.591,2.591,0,0,1-1.925-.779,2.64,2.64,0,0,1-.767-1.929v-9.027a2.613,2.613,0,0,1,.783-1.929A2.644,2.644,0,0,1,79.733-920a2.591,2.591,0,0,1,1.925.779,2.64,2.64,0,0,1,.767,1.929v9.027a2.613,2.613,0,0,1-.783,1.929A2.644,2.644,0,0,1,79.7-905.557Zm0,64.992a2.591,2.591,0,0,1-1.925-.778,2.641,2.641,0,0,1-.767-1.93V-852.3a2.612,2.612,0,0,1,.783-1.929,2.644,2.644,0,0,1,1.941-.779,2.591,2.591,0,0,1,1.925.779,2.64,2.64,0,0,1,.767,1.929v9.027a2.613,2.613,0,0,1-.783,1.93A2.644,2.644,0,0,1,79.7-840.565Zm-21.648-57.59-5.145-5.055a2.546,2.546,0,0,1-.779-1.95,2.9,2.9,0,0,1,.77-1.941,2.644,2.644,0,0,1,1.941-.8,2.659,2.659,0,0,1,1.95.812l5.055,5.145a2.764,2.764,0,0,1,.722,1.9,2.6,2.6,0,0,1-.722,1.85,2.428,2.428,0,0,1-1.85.767A2.822,2.822,0,0,1,58.053-898.155Zm44.592,44.682-5.055-5.145a2.808,2.808,0,0,1-.722-1.929,2.488,2.488,0,0,1,.767-1.862,2.454,2.454,0,0,1,1.85-.812,2.6,2.6,0,0,1,1.9.812l5.145,5.055a2.546,2.546,0,0,1,.779,1.95,2.9,2.9,0,0,1-.77,1.941,2.644,2.644,0,0,1-1.941.8A2.66,2.66,0,0,1,102.645-853.473ZM97.59-898.155a2.6,2.6,0,0,1-.812-1.9,2.6,2.6,0,0,1,.812-1.9l5.055-5.145a2.546,2.546,0,0,1,1.95-.779,2.9,2.9,0,0,1,1.941.77,2.644,2.644,0,0,1,.8,1.941,2.66,2.66,0,0,1-.812,1.95l-5.145,5.055a2.49,2.49,0,0,1-1.838.722A2.9,2.9,0,0,1,97.59-898.155ZM52.9-853.464a2.644,2.644,0,0,1-.8-1.941,2.659,2.659,0,0,1,.812-1.95l5.145-5.055a2.55,2.55,0,0,1,1.887-.812,2.5,2.5,0,0,1,1.869.812,2.547,2.547,0,0,1,.848,1.9,2.6,2.6,0,0,1-.812,1.9l-5.055,5.145a2.546,2.546,0,0,1-1.95.779A2.9,2.9,0,0,1,52.9-853.464ZM79.718-880.282Z" transform="translate(1616 6687)" fill="#fff"/>
  </g>
</svg>
