<svg id="Component_17_1" data-name="Component 17 – 1" xmlns="http://www.w3.org/2000/svg" width="417.362" height="234" viewBox="0 0 417.362 234">
  <rect id="Rectangle_1988" data-name="Rectangle 1988" width="417" height="234" transform="translate(0.273)" fill="none"/>
  <g id="compayn1" transform="translate(131.259 -9.5)">
    <path id="Path_86" data-name="Path 86" d="M61,55.779V53.874h41.015v1.906H61m29.57-2.864H85.8l-.019-24.5-5.7-4.111L66.722,30.031v22.89H61V51.015h3.817V29.073L80.078,22.4l7.628,5.722V51.01H90.57ZM69.544,33l6.717-2.966v3.817l-6.675,2.864L69.544,33Zm6.717,5.615v3.817l-6.675,1.906-.042-3.6Zm-6.675,9.539,6.675-1.906v4.769H69.586Zm22.89-33.382V52.921h2.859V18.147Zm-12.4,12.4V52.916h2.859V29.073Zm21.937,25.749H97.245V17.628l-4.769-5.722-18.12,7.633V22.4l-1.911,1.9V18.581L93.429,10l5.722,7.628V51.01h2.864Z" fill="#fff"/>
  </g>
  <g id="Group_536" data-name="Group 536" transform="translate(326.273 25.121)">
    <path id="Path_124" data-name="Path 124" d="M129.437,6.793c3.688.331,6.384,4.1,6.384,4.1s-3.282,3.237-6.969,2.907-6.384-4.1-6.384-4.1,3.277-3.235,6.969-2.907" transform="translate(-122.468 -0.267)" fill="#fff"/>
    <path id="Path_125" data-name="Path 125" d="M138.658,7.742c1.3,3.592,5.536,5.265,5.536,5.265s2.118-4.15.819-7.742S139.476,0,139.476,0s-2.118,4.15-.819,7.742" transform="translate(-123.092 0)" fill="#fff"/>
    <path id="Path_126" data-name="Path 126" d="M140.351,17.357c3.058-2.162,7.45-1.008,7.45-1.008s-.567,4.659-3.625,6.822-7.45,1.008-7.45,1.008.567-4.659,3.625-6.822" transform="translate(-123.032 -0.634)" fill="#fff"/>
    <path id="Path_127" data-name="Path 127" d="M152.991,12.789c.771,3.753,4.716,6.062,4.716,6.062s2.695-3.777,1.924-7.528-4.718-6.062-4.718-6.062-2.693,3.775-1.922,7.528" transform="translate(-123.67 -0.208)" fill="#fff"/>
    <path id="Path_128" data-name="Path 128" d="M153.267,22.6c3.335-1.664,7.511.156,7.511.156s-1.23,4.516-4.566,6.181-7.512-.151-7.512-.151,1.23-4.52,4.566-6.185" transform="translate(-123.506 -0.867)" fill="#fff"/>
    <path id="Path_129" data-name="Path 129" d="M166.21,19.616c.231,3.83,3.807,6.714,3.807,6.714s3.2-3.325,2.969-7.154-3.808-6.714-3.808-6.714-3.2,3.325-2.968,7.154" transform="translate(-124.2 -0.493)" fill="#fff"/>
    <path id="Path_130" data-name="Path 130" d="M165.094,29.392c3.533-1.14,7.409,1.3,7.409,1.3s-1.857,4.284-5.393,5.424-7.407-1.3-7.407-1.3,1.857-4.283,5.392-5.424" transform="translate(-123.943 -1.153)" fill="#fff"/>
    <path id="Path_131" data-name="Path 131" d="M177.576,28.082c-.307,3.824,2.826,7.217,2.826,7.217s3.631-2.808,3.938-6.632-2.826-7.215-2.826-7.215-3.631,2.807-3.939,6.632" transform="translate(-124.649 -0.85)" fill="#fff"/>
    <path id="Path_132" data-name="Path 132" d="M175.11,37.61c3.657-.6,7.148,2.4,7.148,2.4s-2.438,3.959-6.095,4.554-7.148-2.4-7.148-2.4,2.438-3.959,6.095-4.554" transform="translate(-124.311 -1.487)" fill="#fff"/>
    <path id="Path_133" data-name="Path 133" d="M187.526,38.03c-.838,3.738,1.786,7.565,1.786,7.565s3.987-2.233,4.825-5.971-1.788-7.565-1.788-7.565-3.985,2.232-4.823,5.97" transform="translate(-125.038 -1.27)" fill="#fff"/>
    <path id="Path_134" data-name="Path 134" d="M183.771,47.1c3.7-.039,6.737,3.447,6.737,3.447s-2.966,3.55-6.667,3.59S177.1,50.69,177.1,50.69s2.966-3.551,6.667-3.591" transform="translate(-124.632 -1.865)" fill="#fff"/>
    <path id="Path_135" data-name="Path 135" d="M195.876,49.3c-1.355,3.571.7,7.754.7,7.754s4.258-1.606,5.613-5.176-.7-7.754-.7-7.754-4.259,1.606-5.613,5.176" transform="translate(-125.357 -1.748)" fill="#fff"/>
    <path id="Path_136" data-name="Path 136" d="M190.914,57.72c3.668.52,6.18,4.428,6.18,4.428s-3.433,3.065-7.1,2.544-6.183-4.43-6.183-4.43,3.433-3.065,7.1-2.544" transform="translate(-124.897 -2.284)" fill="#fff"/>
    <path id="Path_137" data-name="Path 137" d="M202.432,61.729c-1.85,3.324-.41,7.776-.41,7.776s4.44-.935,6.29-4.258.41-7.777.41-7.777-4.44.935-6.29,4.259" transform="translate(-125.598 -2.276)" fill="#fff"/>
    <path id="Path_138" data-name="Path 138" d="M196.356,69.294c3.556,1.077,5.48,5.327,5.48,5.327s-3.833,2.5-7.385,1.427-5.48-5.327-5.48-5.327,3.833-2.5,7.385-1.427" transform="translate(-125.102 -2.734)" fill="#fff"/>
    <path id="Path_139" data-name="Path 139" d="M206.986,75.14c-2.312,3-1.533,7.624-1.533,7.624s4.526-.232,6.836-3.23,1.533-7.624,1.533-7.624-4.524.232-6.836,3.23" transform="translate(-125.75 -2.849)" fill="#fff"/>
    <path id="Path_140" data-name="Path 140" d="M199.927,81.651c3.356,1.619,4.644,6.122,4.644,6.122s-4.153,1.878-7.509.259-4.644-6.122-4.644-6.122,4.153-1.878,7.509-.259" transform="translate(-125.238 -3.208)" fill="#fff"/>
    <path id="Path_141" data-name="Path 141" d="M209.331,89.351c-2.724,2.6-2.639,7.292-2.639,7.292s4.506.486,7.232-2.11,2.638-7.292,2.638-7.292-4.506-.486-7.232,2.11" transform="translate(-125.804 -3.454)" fill="#fff"/>
    <path id="Path_142" data-name="Path 142" d="M201.451,94.639c3.078,2.131,3.689,6.785,3.689,6.785s-4.381,1.2-7.459-.933-3.688-6.785-3.688-6.785,4.38-1.2,7.459.933" transform="translate(-125.3 -3.699)" fill="#fff"/>
    <path id="Path_143" data-name="Path 143" d="M209.395,104.148c-3.078,2.131-3.689,6.785-3.689,6.785s4.38,1.2,7.459-.933,3.688-6.785,3.688-6.785-4.38-1.2-7.459.933" transform="translate(-125.765 -4.076)" fill="#fff"/>
    <path id="Path_144" data-name="Path 144" d="M200.881,108.077c2.723,2.6,2.639,7.292,2.639,7.292s-4.506.486-7.232-2.11-2.638-7.292-2.638-7.292,4.506-.486,7.232,2.11" transform="translate(-125.287 -4.196)" fill="#fff"/>
    <path id="Path_145" data-name="Path 145" d="M207.311,118.626c-3.355,1.619-4.644,6.122-4.644,6.122s4.153,1.878,7.509.259,4.644-6.122,4.644-6.122-4.152-1.878-7.509-.259" transform="translate(-125.644 -4.673)" fill="#fff"/>
    <path id="Path_146" data-name="Path 146" d="M198.36,121.114c2.312,3,1.533,7.624,1.533,7.624s-4.526-.232-6.836-3.23-1.533-7.624-1.533-7.624,4.524.232,6.836,3.23" transform="translate(-125.198 -4.671)" fill="#fff"/>
    <path id="Path_147" data-name="Path 147" d="M203.32,133.92c-3.556,1.077-5.48,5.327-5.48,5.327s3.833,2.5,7.385,1.427,5.48-5.327,5.48-5.327-3.833-2.5-7.385-1.427" transform="translate(-125.454 -5.296)" fill="#fff"/>
    <path id="Path_148" data-name="Path 148" d="M194.135,134.94c1.85,3.324.41,7.776.41,7.776s-4.44-.935-6.29-4.258-.41-7.777-.41-7.777,4.44.935,6.29,4.259" transform="translate(-125.037 -5.177)" fill="#fff"/>
    <path id="Path_149" data-name="Path 149" d="M197.559,148.293c-3.668.521-6.18,4.429-6.18,4.429s3.433,3.065,7.1,2.544,6.18-4.428,6.18-4.428-3.433-3.065-7.1-2.544" transform="translate(-125.197 -5.872)" fill="#fff"/>
    <path id="Path_150" data-name="Path 150" d="M188.335,147.852c1.355,3.571-.7,7.754-.7,7.754s-4.258-1.606-5.613-5.176.7-7.754.7-7.754,4.258,1.606,5.613,5.176" transform="translate(-124.807 -5.652)" fill="#fff"/>
    <path id="Path_151" data-name="Path 151" d="M190.16,161c-3.7-.039-6.737,3.447-6.737,3.447s2.966,3.55,6.667,3.591,6.737-3.447,6.737-3.447-2.966-3.551-6.667-3.59" transform="translate(-124.882 -6.378)" fill="#fff"/>
    <path id="Path_152" data-name="Path 152" d="M181.092,159.137c.838,3.738-1.788,7.565-1.788,7.565s-3.985-2.233-4.824-5.971,1.788-7.565,1.788-7.565,3.987,2.232,4.825,5.97" transform="translate(-124.522 -6.067)" fill="#fff"/>
    <path id="Path_153" data-name="Path 153" d="M181.267,172.075c-3.657-.6-7.148,2.4-7.148,2.4s2.438,3.959,6.095,4.554,7.148-2.4,7.148-2.4-2.438-3.959-6.095-4.554" transform="translate(-124.513 -6.814)" fill="#fff"/>
    <path id="Path_154" data-name="Path 154" d="M172.536,168.839c.307,3.824-2.826,7.217-2.826,7.217s-3.631-2.808-3.938-6.632,2.826-7.217,2.826-7.217,3.631,2.808,3.939,6.632" transform="translate(-124.182 -6.426)" fill="#fff"/>
    <path id="Path_155" data-name="Path 155" d="M171.03,181.583c-3.534-1.14-7.409,1.3-7.409,1.3s1.857,4.284,5.393,5.424,7.407-1.3,7.407-1.3-1.857-4.283-5.392-5.424" transform="translate(-124.098 -7.181)" fill="#fff"/>
    <path id="Path_156" data-name="Path 156" d="M162.816,177.051c-.232,3.83-3.808,6.714-3.808,6.714s-3.2-3.325-2.968-7.155,3.807-6.714,3.807-6.714,3.2,3.325,2.969,7.155" transform="translate(-123.796 -6.731)" fill="#fff"/>
    <path id="Path_157" data-name="Path 157" d="M148.823,184.1l-.875-2.081C180.72,168.252,201.9,135.662,201.9,98.989c0-44.658-32.13-82.808-74.738-88.741l.121-.867c43.714,6.089,76.874,43.829,76.874,89.609,0,37.584-21.718,70.992-55.331,85.109" transform="translate(-122.654 -0.372)" fill="#fff"/>
  </g>
  <g id="Group_537" data-name="Group 537" transform="translate(0 25)">
    <path id="Path_124-2" data-name="Path 124" d="M128.852,6.793c-3.688.331-6.384,4.1-6.384,4.1s3.282,3.237,6.969,2.907,6.384-4.1,6.384-4.1-3.277-3.235-6.969-2.907" transform="translate(-44.733 -0.267)" fill="#fff"/>
    <path id="Path_125-2" data-name="Path 125" d="M145.012,7.742c-1.3,3.592-5.536,5.265-5.536,5.265s-2.118-4.15-.819-7.742S144.194,0,144.194,0s2.118,4.15.819,7.742" transform="translate(-69.489 0)" fill="#fff"/>
    <path id="Path_126-2" data-name="Path 126" d="M144.176,17.357c-3.058-2.162-7.45-1.008-7.45-1.008s.567,4.659,3.625,6.822,7.45,1.008,7.45,1.008-.567-4.659-3.625-6.822" transform="translate(-70.405 -0.634)" fill="#fff"/>
    <path id="Path_127-2" data-name="Path 127" d="M159.631,12.789c-.771,3.753-4.716,6.062-4.716,6.062s-2.695-3.777-1.924-7.528,4.718-6.062,4.718-6.062,2.693,3.775,1.922,7.528" transform="translate(-97.864 -0.208)" fill="#fff"/>
    <path id="Path_128-2" data-name="Path 128" d="M156.211,22.6c-3.335-1.664-7.511.156-7.511.156s1.23,4.516,4.566,6.181,7.512-.151,7.512-.151-1.23-4.52-4.566-6.185" transform="translate(-94.883 -0.867)" fill="#fff"/>
    <path id="Path_129-2" data-name="Path 129" d="M172.986,19.616c-.231,3.83-3.807,6.714-3.807,6.714s-3.2-3.325-2.969-7.154,3.808-6.714,3.808-6.714,3.2,3.325,2.968,7.154" transform="translate(-123.907 -0.493)" fill="#fff"/>
    <path id="Path_130-2" data-name="Path 130" d="M167.112,29.392c-3.533-1.14-7.409,1.3-7.409,1.3s1.857,4.284,5.393,5.424,7.407-1.3,7.407-1.3-1.857-4.283-5.392-5.424" transform="translate(-117.174 -1.153)" fill="#fff"/>
    <path id="Path_131-2" data-name="Path 131" d="M184.341,28.082c.307,3.824-2.826,7.217-2.826,7.217s-3.631-2.808-3.938-6.632,2.826-7.215,2.826-7.215,3.631,2.807,3.939,6.632" transform="translate(-146.179 -0.85)" fill="#fff"/>
    <path id="Path_132-2" data-name="Path 132" d="M176.163,37.61c-3.657-.6-7.148,2.4-7.148,2.4s2.438,3.959,6.095,4.554,7.148-2.4,7.148-2.4-2.438-3.959-6.095-4.554" transform="translate(-135.873 -1.487)" fill="#fff"/>
    <path id="Path_133-2" data-name="Path 133" d="M194.137,38.03c.838,3.738-1.786,7.565-1.786,7.565s-3.987-2.233-4.825-5.971,1.788-7.565,1.788-7.565,3.985,2.232,4.823,5.97" transform="translate(-165.536 -1.27)" fill="#fff"/>
    <path id="Path_134-2" data-name="Path 134" d="M183.841,47.1c-3.7-.039-6.737,3.447-6.737,3.447s2.966,3.55,6.667,3.59,6.737-3.446,6.737-3.446-2.966-3.551-6.667-3.591" transform="translate(-151.891 -1.865)" fill="#fff"/>
    <path id="Path_135-2" data-name="Path 135" d="M202.195,49.3c1.355,3.571-.7,7.754-.7,7.754s-4.258-1.606-5.613-5.176.7-7.754.7-7.754,4.258,1.606,5.613,5.176" transform="translate(-181.626 -1.748)" fill="#fff"/>
    <path id="Path_136-2" data-name="Path 136" d="M189.99,57.72c-3.668.52-6.18,4.428-6.18,4.428s3.433,3.065,7.1,2.544,6.183-4.43,6.183-4.43-3.433-3.065-7.1-2.544" transform="translate(-164.918 -2.284)" fill="#fff"/>
    <path id="Path_137-2" data-name="Path 137" d="M208.312,61.729c1.85,3.324.41,7.776.41,7.776s-4.44-.935-6.29-4.258-.41-7.777-.41-7.777,4.44.935,6.29,4.259" transform="translate(-194.058 -2.276)" fill="#fff"/>
    <path id="Path_138-2" data-name="Path 138" d="M194.451,69.294c-3.556,1.077-5.48,5.327-5.48,5.327s3.833,2.5,7.385,1.427,5.48-5.327,5.48-5.327-3.833-2.5-7.385-1.427" transform="translate(-174.617 -2.734)" fill="#fff"/>
    <path id="Path_139-2" data-name="Path 139" d="M212.288,75.14c2.312,3,1.533,7.624,1.533,7.624s-4.526-.232-6.836-3.23-1.533-7.624-1.533-7.624,4.524.232,6.836,3.23" transform="translate(-202.435 -2.849)" fill="#fff"/>
    <path id="Path_140-2" data-name="Path 140" d="M197.062,81.651c-3.356,1.619-4.644,6.122-4.644,6.122s4.153,1.878,7.509.259,4.644-6.122,4.644-6.122-4.153-1.878-7.509-.259" transform="translate(-180.661 -3.208)" fill="#fff"/>
    <path id="Path_141-2" data-name="Path 141" d="M213.924,89.351c2.724,2.6,2.639,7.292,2.639,7.292s-4.506.486-7.232-2.11-2.638-7.292-2.638-7.292,4.506-.486,7.232,2.11" transform="translate(-206.362 -3.454)" fill="#fff"/>
    <path id="Path_142-2" data-name="Path 142" d="M197.681,94.639c-3.078,2.131-3.689,6.785-3.689,6.785s4.381,1.2,7.459-.933,3.688-6.785,3.688-6.785-4.38-1.2-7.459.933" transform="translate(-182.742 -3.699)" fill="#fff"/>
    <path id="Path_143-2" data-name="Path 143" d="M213.165,104.148c3.078,2.131,3.689,6.785,3.689,6.785s-4.38,1.2-7.459-.933-3.688-6.785-3.688-6.785,4.38-1.2,7.459.933" transform="translate(-205.706 -4.076)" fill="#fff"/>
    <path id="Path_144-2" data-name="Path 144" d="M196.288,108.077c-2.723,2.6-2.639,7.292-2.639,7.292s4.506.486,7.232-2.11,2.638-7.292,2.638-7.292-4.506-.486-7.232,2.11" transform="translate(-180.792 -4.196)" fill="#fff"/>
    <path id="Path_145-2" data-name="Path 145" d="M210.176,118.626c3.355,1.619,4.644,6.122,4.644,6.122s-4.153,1.878-7.509.259-4.644-6.122-4.644-6.122,4.152-1.878,7.509-.259" transform="translate(-200.754 -4.673)" fill="#fff"/>
    <path id="Path_146-2" data-name="Path 146" d="M193.057,121.114c-2.312,3-1.533,7.624-1.533,7.624s4.526-.232,6.836-3.23,1.533-7.624,1.533-7.624-4.524.232-6.836,3.23" transform="translate(-175.13 -4.671)" fill="#fff"/>
    <path id="Path_147-2" data-name="Path 147" d="M205.225,133.92c3.556,1.077,5.48,5.327,5.48,5.327s-3.833,2.5-7.385,1.427-5.48-5.327-5.48-5.327,3.833-2.5,7.385-1.427" transform="translate(-192.003 -5.296)" fill="#fff"/>
    <path id="Path_148-2" data-name="Path 148" d="M188.255,134.94c-1.85,3.324-.41,7.776-.41,7.776s4.44-.935,6.29-4.258.41-7.777.41-7.777-4.44.935-6.29,4.259" transform="translate(-166.264 -5.177)" fill="#fff"/>
    <path id="Path_149-2" data-name="Path 149" d="M198.48,148.293c3.668.521,6.18,4.429,6.18,4.429s-3.433,3.065-7.1,2.544-6.18-4.428-6.18-4.428,3.433-3.065,7.1-2.544" transform="translate(-179.753 -5.872)" fill="#fff"/>
    <path id="Path_150-2" data-name="Path 150" d="M182.017,147.852c-1.355,3.571.7,7.754.7,7.754s4.258-1.606,5.613-5.176-.7-7.754-.7-7.754-4.258,1.606-5.613,5.176" transform="translate(-154.456 -5.652)" fill="#fff"/>
    <path id="Path_151-2" data-name="Path 151" d="M190.09,161c3.7-.039,6.737,3.447,6.737,3.447s-2.966,3.55-6.667,3.591-6.737-3.447-6.737-3.447,2.966-3.551,6.667-3.59" transform="translate(-164.28 -6.378)" fill="#fff"/>
    <path id="Path_152-2" data-name="Path 152" d="M174.479,159.137c-.838,3.738,1.788,7.565,1.788,7.565s3.985-2.233,4.824-5.971-1.788-7.565-1.788-7.565-3.987,2.232-4.825,5.97" transform="translate(-139.96 -6.067)" fill="#fff"/>
    <path id="Path_153-2" data-name="Path 153" d="M180.214,172.075c3.657-.6,7.148,2.4,7.148,2.4s-2.438,3.959-6.095,4.554-7.148-2.4-7.148-2.4,2.438-3.959,6.095-4.554" transform="translate(-145.879 -6.814)" fill="#fff"/>
    <path id="Path_154-2" data-name="Path 154" d="M165.771,168.839c-.307,3.824,2.826,7.217,2.826,7.217s3.631-2.808,3.938-6.632-2.826-7.217-2.826-7.217-3.631,2.808-3.939,6.632" transform="translate(-123.037 -6.426)" fill="#fff"/>
    <path id="Path_155-2" data-name="Path 155" d="M169.012,181.583c3.534-1.14,7.409,1.3,7.409,1.3s-1.857,4.284-5.393,5.424-7.407-1.3-7.407-1.3,1.857-4.283,5.392-5.424" transform="translate(-124.855 -7.181)" fill="#fff"/>
    <path id="Path_156-2" data-name="Path 156" d="M156.04,177.051c.231,3.83,3.808,6.714,3.808,6.714s3.2-3.325,2.968-7.155-3.807-6.714-3.807-6.714-3.2,3.325-2.969,7.155" transform="translate(-103.971 -6.731)" fill="#fff"/>
    <path id="Path_157-2" data-name="Path 157" d="M182.488,184.1l.875-2.081c-32.772-13.764-53.948-46.355-53.948-83.028,0-44.658,32.13-82.808,74.738-88.741l-.121-.867C160.318,15.47,127.158,53.21,127.158,98.99c0,37.584,21.718,70.992,55.331,85.109" transform="translate(-117.568 -0.372)" fill="#fff"/>
  </g>
</svg>
