<svg xmlns="http://www.w3.org/2000/svg" width="139.732" height="728.382" viewBox="0 0 139.732 728.382">
  <path id="Path_6" data-name="Path 6" d="M-1.737,0,58.479-135.1h30.88L149.768,0h-32.81L67.55-119.274H79.9L30.3,0ZM28.371-28.95l8.3-23.739h69.48l8.492,23.739ZM163.857,0V-135.1h66.006q25.476,0,38.311,9.65t12.834,25.476A32.448,32.448,0,0,1,275.8-81.543,34.128,34.128,0,0,1,261.515-69.48a48.643,48.643,0,0,1-20.844,4.246l3.667-7.913A57.7,57.7,0,0,1,266.919-69a33.942,33.942,0,0,1,15.344,12.256q5.5,8.106,5.5,19.879,0,17.37-13.7,27.117T233.723,0ZM194.93-23.546h36.477q12.159,0,18.431-3.957t6.273-12.641q0-8.492-6.273-12.642t-18.431-4.149H192.614V-79.709H226q11.387,0,17.467-3.957t6.079-12.062q0-7.913-6.079-11.869T226-111.554H194.93ZM377.122,2.316A82.159,82.159,0,0,1,347.5-2.9a70.1,70.1,0,0,1-23.546-14.668,66.932,66.932,0,0,1-15.44-22.2,69.356,69.356,0,0,1-5.5-27.792,69.356,69.356,0,0,1,5.5-27.792,66.269,66.269,0,0,1,15.536-22.195,71.391,71.391,0,0,1,23.546-14.668,80.835,80.835,0,0,1,29.336-5.211,80.616,80.616,0,0,1,29.432,5.211,70.527,70.527,0,0,1,23.353,14.668,68.442,68.442,0,0,1,15.536,22.1,68.128,68.128,0,0,1,5.6,27.888,69,69,0,0,1-5.6,27.889,66.821,66.821,0,0,1-15.536,22.2A71.345,71.345,0,0,1,406.362-2.9,80.067,80.067,0,0,1,377.122,2.316Zm-.193-26.634a44.061,44.061,0,0,0,16.694-3.088,40.03,40.03,0,0,0,13.413-8.878,40.546,40.546,0,0,0,8.975-13.7A46.647,46.647,0,0,0,419.2-67.55a46.647,46.647,0,0,0-3.185-17.563,41.289,41.289,0,0,0-8.878-13.7,38.79,38.79,0,0,0-13.414-8.878,44.8,44.8,0,0,0-16.791-3.088,44.061,44.061,0,0,0-16.695,3.088,40.029,40.029,0,0,0-13.413,8.878,40.547,40.547,0,0,0-8.975,13.7,46.647,46.647,0,0,0-3.185,17.563,46.856,46.856,0,0,0,3.185,17.466,41.065,41.065,0,0,0,8.878,13.8,38.79,38.79,0,0,0,13.414,8.878A44.8,44.8,0,0,0,376.929-24.318ZM534.417,2.316q-28.757,0-44.969-16.019T473.236-59.444V-135.1H504.5v74.5q0,19.3,7.913,27.792t22.2,8.492q14.282,0,22.2-8.492T564.718-60.6v-74.5H595.6v75.656q0,29.722-16.212,45.741T534.417,2.316ZM652.147,0V-109.624H608.915V-135.1h117.73v25.476H683.413V0Z" transform="translate(2.316 1.737) rotate(90)" fill="#fff"/>
</svg>
