<svg xmlns="http://www.w3.org/2000/svg" width="1868.14" height="122.325" viewBox="0 0 1868.14 122.325">
  <path id="Path_6" data-name="Path 6" d="M-930.753,0V-85.215h23.345q13.11,0,22.482,4.6A32.581,32.581,0,0,1-870.435-66.7q5.118,9.315,5.118,23.69t-5.06,23.92a33.185,33.185,0,0,1-14.26,14.318Q-893.838,0-906.488,0Zm17.02-13.8h5.175A30.42,30.42,0,0,0-894.7-16.733a19.613,19.613,0,0,0,8.912-9.43q3.105-6.5,3.1-16.848t-3.1-16.618a19.172,19.172,0,0,0-8.912-9.085,31.468,31.468,0,0,0-13.858-2.818h-5.175ZM-848.643,0V-85.215H-820.7a53.105,53.105,0,0,1,16.962,2.53,24.352,24.352,0,0,1,11.96,8.338q4.427,5.807,4.427,15.928,0,9.66-4.427,15.928a26.1,26.1,0,0,1-11.845,9.257,44.1,44.1,0,0,1-16.617,2.99h-11.385V0Zm17.02-43.7h10.235q8.74,0,13.053-3.68t4.313-11.04q0-7.36-4.543-10.292t-13.4-2.933h-9.66Zm83.145,45.31a45.089,45.089,0,0,1-16.675-3.22,43.528,43.528,0,0,1-14.375-9.2l9.775-11.73A36.278,36.278,0,0,0-759.46-15.7a27.728,27.728,0,0,0,11.327,2.587q6.67,0,10.12-2.645a8.517,8.517,0,0,0,3.45-7.13A7.477,7.477,0,0,0-736.23-28a15.447,15.447,0,0,0-4.542-3.392,70.8,70.8,0,0,0-6.67-2.99l-11.27-4.945a37.585,37.585,0,0,1-8.223-4.658,24.014,24.014,0,0,1-6.555-7.417A21.047,21.047,0,0,1-776.078-62.1a21.6,21.6,0,0,1,3.795-12.535,26.63,26.63,0,0,1,10.465-8.8,33.979,33.979,0,0,1,15.18-3.277,38.153,38.153,0,0,1,14.605,2.875,35.894,35.894,0,0,1,12.19,8.165l-8.625,10.58a33.614,33.614,0,0,0-8.4-5.175,24.96,24.96,0,0,0-9.775-1.84q-5.52,0-8.8,2.357a7.677,7.677,0,0,0-3.277,6.613,6.929,6.929,0,0,0,1.84,4.945,16.151,16.151,0,0,0,4.83,3.393q2.99,1.438,6.555,2.932l11.155,4.485a34.963,34.963,0,0,1,9.027,5.175,21.7,21.7,0,0,1,5.98,7.475A23.994,23.994,0,0,1-717.2-24.15a23.3,23.3,0,0,1-3.738,12.765,26.828,26.828,0,0,1-10.7,9.43Q-738.588,1.61-748.478,1.61Zm93.38-60.95a10.655,10.655,0,0,1-7.763-3.1,10.23,10.23,0,0,1-3.162-7.59,10.454,10.454,0,0,1,3.162-7.877A10.761,10.761,0,0,1-655.1-80.96a10.761,10.761,0,0,1,7.763,3.048,10.454,10.454,0,0,1,3.162,7.877,10.23,10.23,0,0,1-3.162,7.59A10.655,10.655,0,0,1-655.1-59.34Zm0,54.855A10.655,10.655,0,0,1-662.86-7.59a10.23,10.23,0,0,1-3.162-7.59,10.454,10.454,0,0,1,3.162-7.878,10.761,10.761,0,0,1,7.763-3.048,10.761,10.761,0,0,1,7.763,3.048,10.454,10.454,0,0,1,3.162,7.878,10.23,10.23,0,0,1-3.162,7.59A10.655,10.655,0,0,1-655.1-4.485ZM-587.133,0V-85.215h23.345q13.11,0,22.482,4.6A32.581,32.581,0,0,1-526.815-66.7q5.118,9.315,5.118,23.69t-5.06,23.92a33.185,33.185,0,0,1-14.26,14.318Q-550.218,0-562.868,0Zm17.02-13.8h5.175a30.42,30.42,0,0,0,13.858-2.932,19.613,19.613,0,0,0,8.912-9.43q3.105-6.5,3.1-16.848t-3.1-16.618a19.172,19.172,0,0,0-8.912-9.085,31.468,31.468,0,0,0-13.858-2.818h-5.175ZM-506.4,0V-64.4h16.9V0Zm8.51-74.865a10.022,10.022,0,0,1-7.13-2.472,8.763,8.763,0,0,1-2.645-6.728,8.805,8.805,0,0,1,2.645-6.67,9.885,9.885,0,0,1,7.13-2.53,9.98,9.98,0,0,1,7.015,2.53,8.618,8.618,0,0,1,2.76,6.67,8.576,8.576,0,0,1-2.76,6.728A10.118,10.118,0,0,1-497.893-74.865Zm49.1,102.81a48.715,48.715,0,0,1-13.685-1.783,21.416,21.416,0,0,1-9.6-5.4,12.91,12.91,0,0,1-3.508-9.373,13.214,13.214,0,0,1,2.3-7.475,18.221,18.221,0,0,1,6.9-5.865V-2.53a13.487,13.487,0,0,1-4.2-4.255,12.3,12.3,0,0,1-1.668-6.67,11.844,11.844,0,0,1,2.128-6.727,20.384,20.384,0,0,1,5-5.233v-.46a22.749,22.749,0,0,1-5.98-6.785,19.157,19.157,0,0,1-2.645-10.12,21.71,21.71,0,0,1,3.622-12.765,22.653,22.653,0,0,1,9.6-7.82,30.928,30.928,0,0,1,12.65-2.645,29.257,29.257,0,0,1,5.348.46,34.117,34.117,0,0,1,4.542,1.15h23.115v12.42h-10.925a14.669,14.669,0,0,1,2.07,4.255,18.121,18.121,0,0,1,.805,5.52,21.031,21.031,0,0,1-3.335,12.133,20.272,20.272,0,0,1-8.97,7.3,31.811,31.811,0,0,1-12.65,2.415,21.823,21.823,0,0,1-3.91-.4,36.406,36.406,0,0,1-4.37-1.093,11.177,11.177,0,0,0-2.013,2.358,6.194,6.194,0,0,0-.747,3.278,4.258,4.258,0,0,0,2.242,3.8q2.243,1.38,7.878,1.38h11.04q11.615,0,17.825,3.852t6.21,12.248a17.608,17.608,0,0,1-4.312,11.672,29.416,29.416,0,0,1-12.19,8.165A51.384,51.384,0,0,1-448.788,27.945Zm.92-58.765a9.863,9.863,0,0,0,5.175-1.38,9.814,9.814,0,0,0,3.68-4.083,14.141,14.141,0,0,0,1.38-6.5,13.433,13.433,0,0,0-1.38-6.382,9.565,9.565,0,0,0-3.68-3.91,10.193,10.193,0,0,0-5.175-1.322,9.971,9.971,0,0,0-5.06,1.322,9.2,9.2,0,0,0-3.622,3.91,13.92,13.92,0,0,0-1.323,6.382,14.658,14.658,0,0,0,1.323,6.5,9.45,9.45,0,0,0,3.622,4.083A9.651,9.651,0,0,0-447.868-30.82Zm1.61,47.955a26.032,26.032,0,0,0,8.568-1.265A14.825,14.825,0,0,0-432,12.535a6.376,6.376,0,0,0,2.07-4.6,4.6,4.6,0,0,0-2.76-4.658,20.5,20.5,0,0,0-7.935-1.207h-7.935q-2.875,0-4.945-.173a24.5,24.5,0,0,1-3.91-.632,11.376,11.376,0,0,0-3.163,3.623,8.553,8.553,0,0,0-.977,3.968q0,3.91,4.14,6.1T-446.258,17.135ZM-402.788,0V-64.4h16.9V0Zm8.51-74.865a10.022,10.022,0,0,1-7.13-2.472,8.763,8.763,0,0,1-2.645-6.728,8.805,8.805,0,0,1,2.645-6.67,9.885,9.885,0,0,1,7.13-2.53,9.98,9.98,0,0,1,7.015,2.53,8.618,8.618,0,0,1,2.76,6.67,8.576,8.576,0,0,1-2.76,6.728A10.118,10.118,0,0,1-394.278-74.865ZM-344.253,1.61q-7.59,0-12.3-3.048a17.042,17.042,0,0,1-6.785-8.453,34.928,34.928,0,0,1-2.07-12.535V-51.06H-374.5V-63.6l10.005-.8,1.955-17.365h13.915V-64.4h15.985v13.34h-15.985v28.52q0,5.52,2.3,8.165a8.219,8.219,0,0,0,6.555,2.645,12.926,12.926,0,0,0,3.335-.46q1.725-.46,2.99-.92l2.875,12.305q-2.645.8-6.038,1.61A33.216,33.216,0,0,1-344.253,1.61Zm37.26,0A19.643,19.643,0,0,1-316.94-.863a17.1,17.1,0,0,1-6.67-6.843,20.494,20.494,0,0,1-2.358-9.89q0-10.235,8.855-15.927t28.175-7.763a16.16,16.16,0,0,0-1.15-5.692,8.51,8.51,0,0,0-3.392-3.968,11.825,11.825,0,0,0-6.383-1.495,23.937,23.937,0,0,0-8.855,1.725,56.6,56.6,0,0,0-8.855,4.485l-5.98-11.27a57.4,57.4,0,0,1,8.05-4.255,60.169,60.169,0,0,1,8.97-3.048,39.246,39.246,0,0,1,9.775-1.207q8.165,0,13.685,3.22a19.886,19.886,0,0,1,8.28,9.545q2.76,6.325,2.76,15.64V0h-13.8l-1.15-6.9h-.575a41.182,41.182,0,0,1-8.97,6.1A23.073,23.073,0,0,1-306.993,1.61Zm5.635-13.225a12.913,12.913,0,0,0,6.5-1.667,28.305,28.305,0,0,0,5.923-4.658V-30.82a54.723,54.723,0,0,0-12.42,2.645,15.421,15.421,0,0,0-6.555,4.082,8,8,0,0,0-1.955,5.233q0,3.795,2.358,5.52A10.17,10.17,0,0,0-301.358-11.615ZM-238.8,1.61q-5.98,0-9.43-2.473a13.858,13.858,0,0,1-5-6.9,31.083,31.083,0,0,1-1.552-10.293V-91.77h16.9v74.405q0,2.875,1.092,4.025a3.132,3.132,0,0,0,2.242,1.15,8.406,8.406,0,0,0,1.035-.057q.46-.058,1.265-.172l2.07,12.535a24.85,24.85,0,0,1-3.623,1.035A23.915,23.915,0,0,1-238.8,1.61ZM-191.073,0V-85.215h27.945a53.105,53.105,0,0,1,16.962,2.53,24.352,24.352,0,0,1,11.96,8.338q4.428,5.807,4.428,15.928,0,9.66-4.428,15.928a26.1,26.1,0,0,1-11.845,9.257,44.1,44.1,0,0,1-16.618,2.99h-11.385V0Zm17.02-43.7h10.235q8.74,0,13.052-3.68t4.313-11.04q0-7.36-4.542-10.292t-13.4-2.933h-9.66ZM-115.748,0V-64.4h13.8l1.265,11.385h.345a28.363,28.363,0,0,1,8.395-9.66,17.222,17.222,0,0,1,9.89-3.335,19.562,19.562,0,0,1,4.428.4,20.325,20.325,0,0,1,3.048.977l-2.76,14.6q-1.84-.46-3.278-.747a18.952,18.952,0,0,0-3.622-.288A13.634,13.634,0,0,0-92-48.185q-4.083,2.875-6.842,9.775V0Zm75.21,1.61A30.086,30.086,0,0,1-55.66-2.415,30.677,30.677,0,0,1-67.1-13.973q-4.37-7.532-4.37-18.227t4.37-18.228A30.677,30.677,0,0,1-55.66-61.985,30.086,30.086,0,0,1-40.538-66.01a29.9,29.9,0,0,1,11.615,2.3,30.894,30.894,0,0,1,9.89,6.612,30.882,30.882,0,0,1,6.9,10.58A38,38,0,0,1-9.6-32.2q0,10.7-4.37,18.227A30.677,30.677,0,0,1-25.415-2.415,30.086,30.086,0,0,1-40.538,1.61Zm0-13.8a11.4,11.4,0,0,0,7.417-2.473,15.015,15.015,0,0,0,4.6-6.957A32.4,32.4,0,0,0-26.968-32.2,32.4,32.4,0,0,0-28.52-42.78a15.015,15.015,0,0,0-4.6-6.958,11.4,11.4,0,0,0-7.417-2.472,11.4,11.4,0,0,0-7.418,2.472,15.015,15.015,0,0,0-4.6,6.958A32.4,32.4,0,0,0-54.108-32.2a32.4,32.4,0,0,0,1.552,10.58,15.015,15.015,0,0,0,4.6,6.957A11.4,11.4,0,0,0-40.538-12.19ZM6.267,0V-69.575A31.232,31.232,0,0,1,8.51-81.65a18.348,18.348,0,0,1,7.13-8.568q4.887-3.162,12.937-3.162a32.463,32.463,0,0,1,7.015.69,41.666,41.666,0,0,1,5.29,1.495l-3.105,12.65a16.185,16.185,0,0,0-6.9-1.495,7.168,7.168,0,0,0-5.75,2.415q-2.07,2.415-2.07,7.7V0Zm-8.74-51.06V-63.6l9.66-.8H35.362v13.34ZM72.278,1.61A32.818,32.818,0,0,1,56.063-2.415,29.794,29.794,0,0,1,44.505-14.03q-4.312-7.59-4.312-18.17a37.663,37.663,0,0,1,2.472-14.03A32.014,32.014,0,0,1,49.45-56.868a30.722,30.722,0,0,1,9.66-6.785,27.229,27.229,0,0,1,11.1-2.358q8.855,0,14.835,3.968A24.626,24.626,0,0,1,94.07-51.118,39.35,39.35,0,0,1,97.118-35.19a41.2,41.2,0,0,1-.23,4.428,22.688,22.688,0,0,1-.575,3.392H56.638a20.094,20.094,0,0,0,3.1,8.74,15.2,15.2,0,0,0,6.21,5.347A20.055,20.055,0,0,0,74.578-11.5a24.243,24.243,0,0,0,7.36-1.093,31.927,31.927,0,0,0,7.015-3.278L94.7-5.52A42.438,42.438,0,0,1,84.123-.345,37.241,37.241,0,0,1,72.278,1.61ZM56.293-38.755H82.628q0-6.44-2.933-10.293T70.438-52.9a13.537,13.537,0,0,0-6.325,1.552,13.464,13.464,0,0,0-5.06,4.715A19.345,19.345,0,0,0,56.293-38.755ZM129.433,1.61A36.346,36.346,0,0,1,116.38-.92a41.72,41.72,0,0,1-11.443-6.44l7.705-10.7a44.394,44.394,0,0,0,8.452,5.117,21.121,21.121,0,0,0,8.8,1.9q4.83,0,7.072-1.9a6.109,6.109,0,0,0,2.242-4.887,5.17,5.17,0,0,0-1.955-4.083,19.6,19.6,0,0,0-5.06-2.99q-3.1-1.322-6.44-2.587a61.432,61.432,0,0,1-7.993-3.91,21.331,21.331,0,0,1-6.613-5.923,14.9,14.9,0,0,1-2.645-9.028,17.755,17.755,0,0,1,2.99-10.178,20.227,20.227,0,0,1,8.338-6.958,29.471,29.471,0,0,1,12.707-2.53A30.574,30.574,0,0,1,145.015-63.6a42.878,42.878,0,0,1,9.372,5.52L146.8-47.84a36.575,36.575,0,0,0-6.842-4.025A17.09,17.09,0,0,0,133-53.36q-4.485,0-6.555,1.725a5.563,5.563,0,0,0-2.07,4.485A4.974,4.974,0,0,0,126.1-43.3a15.117,15.117,0,0,0,4.715,2.7q2.99,1.15,6.325,2.415a61.156,61.156,0,0,1,6.383,2.7,29.472,29.472,0,0,1,5.807,3.737,15.978,15.978,0,0,1,4.2,5.347,17.218,17.218,0,0,1,1.553,7.648,18.93,18.93,0,0,1-2.932,10.293,19.99,19.99,0,0,1-8.625,7.36A32.742,32.742,0,0,1,129.433,1.61Zm56.925,0A36.346,36.346,0,0,1,173.305-.92a41.72,41.72,0,0,1-11.442-6.44l7.705-10.7a44.394,44.394,0,0,0,8.452,5.117,21.121,21.121,0,0,0,8.8,1.9q4.83,0,7.072-1.9a6.109,6.109,0,0,0,2.242-4.887,5.17,5.17,0,0,0-1.955-4.083,19.6,19.6,0,0,0-5.06-2.99q-3.1-1.322-6.44-2.587a61.433,61.433,0,0,1-7.993-3.91,21.331,21.331,0,0,1-6.613-5.923,14.9,14.9,0,0,1-2.645-9.028,17.755,17.755,0,0,1,2.99-10.178,20.226,20.226,0,0,1,8.338-6.958,29.471,29.471,0,0,1,12.707-2.53A30.574,30.574,0,0,1,201.94-63.6a42.878,42.878,0,0,1,9.372,5.52l-7.59,10.235a36.575,36.575,0,0,0-6.842-4.025,17.09,17.09,0,0,0-6.958-1.495q-4.485,0-6.555,1.725a5.563,5.563,0,0,0-2.07,4.485,4.974,4.974,0,0,0,1.725,3.853,15.117,15.117,0,0,0,4.715,2.7q2.99,1.15,6.325,2.415a61.156,61.156,0,0,1,6.383,2.7,29.472,29.472,0,0,1,5.807,3.737,15.978,15.978,0,0,1,4.2,5.347A17.218,17.218,0,0,1,212-18.745,18.93,18.93,0,0,1,209.07-8.453a19.99,19.99,0,0,1-8.625,7.36A32.742,32.742,0,0,1,186.358,1.61ZM224.883,0V-64.4h16.9V0Zm8.51-74.865a10.023,10.023,0,0,1-7.13-2.472,8.763,8.763,0,0,1-2.645-6.728,8.805,8.805,0,0,1,2.645-6.67,9.885,9.885,0,0,1,7.13-2.53,9.98,9.98,0,0,1,7.015,2.53,8.618,8.618,0,0,1,2.76,6.67,8.576,8.576,0,0,1-2.76,6.728A10.118,10.118,0,0,1,233.393-74.865ZM286.753,1.61A30.086,30.086,0,0,1,271.63-2.415a30.677,30.677,0,0,1-11.443-11.558q-4.37-7.532-4.37-18.227t4.37-18.228A30.677,30.677,0,0,1,271.63-61.985a30.086,30.086,0,0,1,15.122-4.025,29.9,29.9,0,0,1,11.615,2.3,30.894,30.894,0,0,1,9.89,6.612,30.882,30.882,0,0,1,6.9,10.58,38,38,0,0,1,2.53,14.318q0,10.7-4.37,18.227A30.677,30.677,0,0,1,301.875-2.415,30.086,30.086,0,0,1,286.753,1.61Zm0-13.8a11.4,11.4,0,0,0,7.418-2.473,15.015,15.015,0,0,0,4.6-6.957,32.4,32.4,0,0,0,1.552-10.58,32.4,32.4,0,0,0-1.552-10.58,15.015,15.015,0,0,0-4.6-6.958,11.4,11.4,0,0,0-7.418-2.472,11.4,11.4,0,0,0-7.417,2.472,15.015,15.015,0,0,0-4.6,6.958,32.4,32.4,0,0,0-1.553,10.58,32.4,32.4,0,0,0,1.553,10.58,15.015,15.015,0,0,0,4.6,6.957A11.4,11.4,0,0,0,286.753-12.19ZM331.833,0V-64.4h13.8l1.265,8.51h.345a49.234,49.234,0,0,1,9.315-7.13,22.4,22.4,0,0,1,11.615-2.99q10.465,0,15.18,6.842t4.715,19.033V0h-16.9V-38.065q0-7.475-2.128-10.465t-6.957-2.99a12.6,12.6,0,0,0-6.843,1.84,38.528,38.528,0,0,0-6.5,5.4V0ZM421.3,1.61a19.643,19.643,0,0,1-9.948-2.473,17.1,17.1,0,0,1-6.67-6.843,20.494,20.494,0,0,1-2.358-9.89q0-10.235,8.855-15.927t28.175-7.763a16.16,16.16,0,0,0-1.15-5.692,8.51,8.51,0,0,0-3.392-3.968,11.825,11.825,0,0,0-6.383-1.495,23.937,23.937,0,0,0-8.855,1.725,56.6,56.6,0,0,0-8.855,4.485l-5.98-11.27a57.4,57.4,0,0,1,8.05-4.255,60.169,60.169,0,0,1,8.97-3.048,39.246,39.246,0,0,1,9.775-1.207q8.165,0,13.685,3.22a19.886,19.886,0,0,1,8.28,9.545q2.76,6.325,2.76,15.64V0h-13.8l-1.15-6.9h-.575a41.182,41.182,0,0,1-8.97,6.1A23.073,23.073,0,0,1,421.3,1.61Zm5.635-13.225a12.913,12.913,0,0,0,6.5-1.667,28.305,28.305,0,0,0,5.923-4.658V-30.82a54.723,54.723,0,0,0-12.42,2.645,15.421,15.421,0,0,0-6.555,4.082,8,8,0,0,0-1.955,5.233q0,3.795,2.358,5.52A10.17,10.17,0,0,0,426.938-11.615ZM489.5,1.61q-5.98,0-9.43-2.473a13.858,13.858,0,0,1-5-6.9,31.083,31.083,0,0,1-1.553-10.293V-91.77h16.9v74.405q0,2.875,1.092,4.025a3.133,3.133,0,0,0,2.243,1.15,8.4,8.4,0,0,0,1.035-.057q.46-.058,1.265-.172L498.122.115A24.849,24.849,0,0,1,494.5,1.15,23.915,23.915,0,0,1,489.5,1.61Zm73.14,0a45.089,45.089,0,0,1-16.675-3.22,43.528,43.528,0,0,1-14.375-9.2l9.775-11.73A36.278,36.278,0,0,0,551.655-15.7a27.728,27.728,0,0,0,11.327,2.587q6.67,0,10.12-2.645a8.517,8.517,0,0,0,3.45-7.13A7.477,7.477,0,0,0,574.885-28a15.447,15.447,0,0,0-4.542-3.392,70.8,70.8,0,0,0-6.67-2.99L552.4-39.33a37.585,37.585,0,0,1-8.223-4.658,24.014,24.014,0,0,1-6.555-7.417A21.047,21.047,0,0,1,535.037-62.1a21.6,21.6,0,0,1,3.795-12.535,26.63,26.63,0,0,1,10.465-8.8,33.979,33.979,0,0,1,15.18-3.277,38.153,38.153,0,0,1,14.605,2.875,35.894,35.894,0,0,1,12.19,8.165l-8.625,10.58a33.614,33.614,0,0,0-8.4-5.175,24.96,24.96,0,0,0-9.775-1.84q-5.52,0-8.8,2.357a7.677,7.677,0,0,0-3.277,6.613,6.929,6.929,0,0,0,1.84,4.945,16.151,16.151,0,0,0,4.83,3.393q2.99,1.438,6.555,2.932l11.155,4.485a34.963,34.963,0,0,1,9.027,5.175,21.7,21.7,0,0,1,5.98,7.475,23.994,23.994,0,0,1,2.128,10.58,23.3,23.3,0,0,1-3.738,12.765,26.828,26.828,0,0,1-10.7,9.43Q572.527,1.61,562.637,1.61Zm73.025,0a32.818,32.818,0,0,1-16.215-4.025A29.794,29.794,0,0,1,607.89-14.03q-4.312-7.59-4.312-18.17a37.664,37.664,0,0,1,2.472-14.03,32.015,32.015,0,0,1,6.785-10.638,30.722,30.722,0,0,1,9.66-6.785,27.229,27.229,0,0,1,11.1-2.358q8.855,0,14.835,3.968a24.626,24.626,0,0,1,9.027,10.925A39.35,39.35,0,0,1,660.5-35.19a41.2,41.2,0,0,1-.23,4.428,22.679,22.679,0,0,1-.575,3.392H620.022a20.1,20.1,0,0,0,3.1,8.74,15.2,15.2,0,0,0,6.21,5.347,20.055,20.055,0,0,0,8.625,1.783,24.243,24.243,0,0,0,7.36-1.093,31.927,31.927,0,0,0,7.015-3.278l5.75,10.35a42.439,42.439,0,0,1-10.58,5.175A37.241,37.241,0,0,1,635.662,1.61ZM619.677-38.755h26.335q0-6.44-2.932-10.293T633.822-52.9a13.537,13.537,0,0,0-6.325,1.552,13.464,13.464,0,0,0-5.06,4.715A19.345,19.345,0,0,0,619.677-38.755ZM674.418,0V-64.4h13.8l1.265,11.385h.345a28.363,28.363,0,0,1,8.4-9.66,17.221,17.221,0,0,1,9.89-3.335,19.562,19.562,0,0,1,4.427.4,20.325,20.325,0,0,1,3.047.977l-2.76,14.6q-1.84-.46-3.277-.747a18.953,18.953,0,0,0-3.623-.288,13.634,13.634,0,0,0-7.762,2.875q-4.083,2.875-6.843,9.775V0ZM740.2,0,718.233-64.4h17.02l9.315,32.085q1.38,4.83,2.7,9.718t2.587,9.832h.575Q751.7-17.71,753.02-22.6t2.587-9.718l9.43-32.085h16.215L759.748,0Zm51.75,0V-64.4h16.9V0Zm8.51-74.865a10.022,10.022,0,0,1-7.13-2.472,8.763,8.763,0,0,1-2.645-6.728,8.805,8.805,0,0,1,2.645-6.67,9.885,9.885,0,0,1,7.13-2.53,9.98,9.98,0,0,1,7.015,2.53,8.618,8.618,0,0,1,2.76,6.67,8.576,8.576,0,0,1-2.76,6.728A10.118,10.118,0,0,1,800.458-74.865ZM854.278,1.61a31.945,31.945,0,0,1-15.985-4.025,28.959,28.959,0,0,1-11.27-11.558q-4.14-7.532-4.14-18.227t4.542-18.228A30.932,30.932,0,0,1,839.5-61.985a34,34,0,0,1,16.273-4.025A26.176,26.176,0,0,1,866.353-64a30.047,30.047,0,0,1,8.165,5.232l-8.05,10.7a17.266,17.266,0,0,0-4.715-3.105,12.714,12.714,0,0,0-5.06-1.035,15.372,15.372,0,0,0-8.682,2.472,15.914,15.914,0,0,0-5.75,6.958,25.666,25.666,0,0,0-2.013,10.58,25.666,25.666,0,0,0,2.013,10.58,16.219,16.219,0,0,0,5.635,6.957,14.243,14.243,0,0,0,8.222,2.473,15.669,15.669,0,0,0,6.67-1.495,27.04,27.04,0,0,0,5.865-3.68l6.67,11.155A30.037,30.037,0,0,1,865.145-.288,33.641,33.641,0,0,1,854.278,1.61Zm57.27,0a32.818,32.818,0,0,1-16.215-4.025A29.794,29.794,0,0,1,883.775-14.03q-4.312-7.59-4.312-18.17a37.664,37.664,0,0,1,2.472-14.03,32.015,32.015,0,0,1,6.785-10.638,30.722,30.722,0,0,1,9.66-6.785,27.229,27.229,0,0,1,11.1-2.358q8.855,0,14.835,3.968a24.626,24.626,0,0,1,9.027,10.925,39.35,39.35,0,0,1,3.047,15.928,41.2,41.2,0,0,1-.23,4.428,22.679,22.679,0,0,1-.575,3.392H895.907a20.1,20.1,0,0,0,3.1,8.74,15.2,15.2,0,0,0,6.21,5.347,20.055,20.055,0,0,0,8.625,1.783,24.243,24.243,0,0,0,7.36-1.093,31.927,31.927,0,0,0,7.015-3.278l5.75,10.35a42.439,42.439,0,0,1-10.58,5.175A37.241,37.241,0,0,1,911.547,1.61ZM895.562-38.755H921.9q0-6.44-2.932-10.293T909.707-52.9a13.537,13.537,0,0,0-6.325,1.552,13.464,13.464,0,0,0-5.06,4.715A19.345,19.345,0,0,0,895.562-38.755Z" transform="translate(931.253 93.88)" fill="#fff" stroke="#257481" stroke-width="1"/>
</svg>
