<svg id="Group_462" data-name="Group 462" xmlns="http://www.w3.org/2000/svg" width="118.258" height="118.402" viewBox="0 0 118.258 118.402">
  <path id="Path_234" data-name="Path 234" d="M11.28,47.371a2.3,2.3,0,0,1-1.062.613,1.991,1.991,0,0,1-1.183-.078l.4-1.01a1.455,1.455,0,0,0,1.027-.086,1.974,1.974,0,0,0,.855-2.15,1.185,1.185,0,0,0-.717-.734,1.038,1.038,0,0,0-.768-.035,1.568,1.568,0,0,0-.622.423c-.181.2-.4.466-.656.812a8.4,8.4,0,0,1-.829,1.01,1.962,1.962,0,0,1-.881.509,1.863,1.863,0,0,1-1.2-.112,2,2,0,0,1-.932-.717,2.159,2.159,0,0,1-.38-1.131,3.248,3.248,0,0,1,.242-1.356,2.845,2.845,0,0,1,1.166-1.476,2.038,2.038,0,0,1,1.649-.207L6.98,42.691a1.194,1.194,0,0,0-.907.147,1.668,1.668,0,0,0-.717.9,1.573,1.573,0,0,0-.069,1.1A1.137,1.137,0,0,0,6,45.549a.988.988,0,0,0,.734.026,1.53,1.53,0,0,0,.6-.406,8.612,8.612,0,0,0,.656-.812,9.173,9.173,0,0,1,.846-1.01,2.09,2.09,0,0,1,.889-.518,1.858,1.858,0,0,1,1.217.112,2.009,2.009,0,0,1,.889.673,2.15,2.15,0,0,1,.432,1.131,3.045,3.045,0,0,1-.216,1.425,3.327,3.327,0,0,1-.76,1.191Z" transform="translate(-0.591 -5.677)" fill="#4b4a48"/>
  <path id="Path_235" data-name="Path 235" d="M9.449,37A3.759,3.759,0,0,1,8.94,35.06a3.9,3.9,0,0,1,.57-1.969,3.96,3.96,0,0,1,1.675-1.6A3.522,3.522,0,0,1,13.4,31.2l-.63,1.053a2.454,2.454,0,0,0-1.416.25,2.65,2.65,0,0,0-1.079,1.062,2.848,2.848,0,0,0-.423,1.459,2.694,2.694,0,0,0,.406,1.433,3.453,3.453,0,0,0,1.226,1.157,3.412,3.412,0,0,0,1.589.518,2.679,2.679,0,0,0,1.45-.319,2.792,2.792,0,0,0,1.079-1.071,2.762,2.762,0,0,0,.432-1.45,2.4,2.4,0,0,0-.449-1.364l.63-1.053A3.522,3.522,0,0,1,17,34.956a4.269,4.269,0,0,1-2.072,3.669,3.694,3.694,0,0,1-1.943.483,4.049,4.049,0,0,1-2.029-.613,4.044,4.044,0,0,1-1.5-1.5Z" transform="translate(-1.221 -4.253)" fill="#4b4a48"/>
  <path id="Path_236" data-name="Path 236" d="M23.024,27.958,19.38,27.3l-.8.941,2.435,2.072-.665.777L14.39,26.024,16.022,24.1a3.4,3.4,0,0,1,1.2-.95,2.09,2.09,0,0,1,1.217-.164,2.266,2.266,0,0,1,1.6,3.41l3.773.63-.794.932Zm-5.068-.242.976-1.148a1.668,1.668,0,0,0,.492-1.217,1.46,1.46,0,0,0-.561-1.027,1.4,1.4,0,0,0-1.088-.389,1.793,1.793,0,0,0-1.105.708l-.976,1.148,2.253,1.917Z" transform="translate(-1.966 -3.135)" fill="#4b4a48"/>
  <path id="Path_237" data-name="Path 237" d="M27.463,22.93a3.7,3.7,0,0,1-2-.181A4.327,4.327,0,0,1,22.809,19.6a3.676,3.676,0,0,1,.173-2A4.158,4.158,0,0,1,26.03,15.03a3.67,3.67,0,0,1,1.994.181,4.081,4.081,0,0,1,1.727,1.252,4.145,4.145,0,0,1,.932,1.917,3.646,3.646,0,0,1-.173,1.994,3.942,3.942,0,0,1-1.2,1.675,4,4,0,0,1-1.848.889Zm2.167-2.806a2.654,2.654,0,0,0,.086-1.494,3.4,3.4,0,0,0-.768-1.494A3.449,3.449,0,0,0,27.6,16.118a2.672,2.672,0,0,0-1.485-.164,2.859,2.859,0,0,0-1.381.665,2.893,2.893,0,0,0-.889,1.243,2.728,2.728,0,0,0-.086,1.494,3.47,3.47,0,0,0,.768,1.5,3.421,3.421,0,0,0,1.338,1.01,2.706,2.706,0,0,0,1.494.173,2.82,2.82,0,0,0,1.373-.656,2.872,2.872,0,0,0,.881-1.243Z" transform="translate(-3.107 -2.044)" fill="#4b4a48"/>
  <path id="Path_238" data-name="Path 238" d="M35.756,16.456l2.34-1.433.432.708-3.2,1.969L31.24,11.025l.872-.535,3.652,5.966Z" transform="translate(-4.268 -1.432)" fill="#4b4a48"/>
  <path id="Path_239" data-name="Path 239" d="M41.764,13.139l2.478-1.157.354.751-3.41,1.6L37.87,7.242l.924-.432,2.961,6.337Z" transform="translate(-5.173 -0.929)" fill="#4b4a48"/>
  <path id="Path_240" data-name="Path 240" d="M47.6,12.559a.686.686,0,0,1-.363-.4.644.644,0,0,1,.026-.535.686.686,0,0,1,.4-.363.676.676,0,0,1,.518.026.7.7,0,0,1,.354.4.678.678,0,0,1-.017.535.666.666,0,0,1-.38.354.678.678,0,0,1-.535-.017Z" transform="translate(-6.446 -1.532)" fill="#4b4a48"/>
  <path id="Path_241" data-name="Path 241" d="M56.8,8.761a2.25,2.25,0,0,1-1.071-.6A1.872,1.872,0,0,1,55.2,7.112l1.071-.181a1.408,1.408,0,0,0,.6.837,1.6,1.6,0,0,0,1.209.181,1.7,1.7,0,0,0,1.079-.544,1.142,1.142,0,0,0,.259-.993,1.12,1.12,0,0,0-.363-.682,1.468,1.468,0,0,0-.682-.319c-.259-.052-.6-.1-1.036-.147a8.49,8.49,0,0,1-1.286-.2,2.024,2.024,0,0,1-.889-.492,1.846,1.846,0,0,1-.518-1.088,2,2,0,0,1,.138-1.174,2.173,2.173,0,0,1,.777-.907,3.14,3.14,0,0,1,1.3-.483,2.817,2.817,0,0,1,1.865.25,2.039,2.039,0,0,1,1.019,1.312l-1.105.181a1.2,1.2,0,0,0-.6-.7,1.647,1.647,0,0,0-1.14-.155,1.567,1.567,0,0,0-.976.5,1.126,1.126,0,0,0-.25.976,1.006,1.006,0,0,0,.354.648,1.71,1.71,0,0,0,.656.311q.376.078,1.036.155a8.338,8.338,0,0,1,1.3.216,2.072,2.072,0,0,1,.9.5,1.9,1.9,0,0,1,.527,1.105,2.137,2.137,0,0,1-.121,1.114,2.253,2.253,0,0,1-.751.958,2.98,2.98,0,0,1-1.33.535,3.363,3.363,0,0,1-1.416-.043Z" transform="translate(-7.459 -0.118)" fill="#4b4a48"/>
  <path id="Path_242" data-name="Path 242" d="M64.4,2A3.783,3.783,0,0,1,65.783.552,3.921,3.921,0,0,1,67.752,0,4.035,4.035,0,0,1,70,.578a3.534,3.534,0,0,1,1.425,1.727L70.2,2.322a2.417,2.417,0,0,0-.958-1.071A2.685,2.685,0,0,0,67.769.9,2.9,2.9,0,0,0,66.3,1.3a2.621,2.621,0,0,0-1,1.1,3.462,3.462,0,0,0-.345,1.649,3.444,3.444,0,0,0,.4,1.623,2.614,2.614,0,0,0,1.036,1.062,2.834,2.834,0,0,0,1.476.354,2.8,2.8,0,0,0,1.459-.4,2.417,2.417,0,0,0,.924-1.1l1.226-.017A3.472,3.472,0,0,1,70.109,7.33a4.118,4.118,0,0,1-2.228.648A3.952,3.952,0,0,1,65.9,7.5a3.715,3.715,0,0,1-1.433-1.4,4.163,4.163,0,0,1-.553-2.046,4.082,4.082,0,0,1,.483-2.072Z" transform="translate(-8.731 0.001)" fill="#4b4a48"/>
  <path id="Path_243" data-name="Path 243" d="M79.457,8.952,78.144,5.49l-1.217-.2L76.4,8.443l-1.01-.164L76.668.56l2.5.414a3.24,3.24,0,0,1,1.425.544,2.139,2.139,0,0,1,.768.958,2.186,2.186,0,0,1,.1,1.209,2.287,2.287,0,0,1-.691,1.33,2.3,2.3,0,0,1-1.511.578l1.4,3.557-1.209-.2Zm-2.4-4.472,1.485.25a1.725,1.725,0,0,0,1.3-.2,1.441,1.441,0,0,0,.587-1.01A1.406,1.406,0,0,0,80.2,2.39a1.767,1.767,0,0,0-1.174-.578l-1.485-.25-.483,2.927Z" transform="translate(-10.299 -0.075)" fill="#4b4a48"/>
  <path id="Path_244" data-name="Path 244" d="M85.812,10.158a3.711,3.711,0,0,1-.872-1.813,4.062,4.062,0,0,1,.181-2.115,4.16,4.16,0,0,1,1.166-1.779,3.656,3.656,0,0,1,1.8-.881,4.061,4.061,0,0,1,2.046.164,3.961,3.961,0,0,1,1.718,1.14,3.719,3.719,0,0,1,.872,1.8,4.122,4.122,0,0,1-.19,2.124,4.058,4.058,0,0,1-1.166,1.779,3.77,3.77,0,0,1-1.8.881,3.907,3.907,0,0,1-2.055-.173,3.967,3.967,0,0,1-1.71-1.131Zm3.523.414a2.641,2.641,0,0,0,1.33-.691,3.4,3.4,0,0,0,.889-1.425,3.383,3.383,0,0,0,.181-1.675,2.68,2.68,0,0,0-.613-1.356,2.894,2.894,0,0,0-1.278-.846,2.829,2.829,0,0,0-1.528-.121,2.712,2.712,0,0,0-1.33.691,3.482,3.482,0,0,0-.9,1.433,3.364,3.364,0,0,0-.181,1.675,2.648,2.648,0,0,0,.622,1.364,2.915,2.915,0,0,0,1.269.846,2.877,2.877,0,0,0,1.52.121Z" transform="translate(-11.595 -0.478)" fill="#4b4a48"/>
  <path id="Path_245" data-name="Path 245" d="M95.805,13.775l2.426,1.278-.389.734L94.51,14.034,98.154,7.11l.907.475-3.255,6.19Z" transform="translate(-12.911 -0.97)" fill="#4b4a48"/>
  <path id="Path_246" data-name="Path 246" d="M101.652,17.253l2.262,1.537-.466.691-3.108-2.115,4.395-6.475.846.57-3.928,5.785Z" transform="translate(-13.708 -1.487)" fill="#4b4a48"/>
  <path id="Path_247" data-name="Path 247" d="M105.719,21.959a.68.68,0,0,1,.155-.509.664.664,0,0,1,.466-.25.68.68,0,0,1,.509.155.636.636,0,0,1,.242.458.663.663,0,0,1-.164.509.707.707,0,0,1-.466.259.654.654,0,0,1-.5-.147.664.664,0,0,1-.25-.466Z" transform="translate(-14.441 -2.895)" fill="#4b4a48"/>
  <path id="Path_248" data-name="Path 248" d="M112.964,28.028a2.38,2.38,0,0,1-.043-1.226,1.915,1.915,0,0,1,.63-1l.708.829a1.494,1.494,0,0,0-.414.95,1.6,1.6,0,0,0,.466,1.131,1.686,1.686,0,0,0,1.019.639,1.145,1.145,0,0,0,.984-.285,1.065,1.065,0,0,0,.4-.665,1.568,1.568,0,0,0-.078-.743c-.086-.25-.224-.57-.406-.967a8.1,8.1,0,0,1-.492-1.209,2.029,2.029,0,0,1-.035-1.019,1.853,1.853,0,0,1,.673-1,1.981,1.981,0,0,1,1.071-.483,2.1,2.1,0,0,1,1.174.2,3.191,3.191,0,0,1,1.079.855,2.849,2.849,0,0,1,.751,1.727,2.01,2.01,0,0,1-.6,1.545l-.725-.855a1.22,1.22,0,0,0,.3-.872,1.663,1.663,0,0,0-.449-1.062,1.566,1.566,0,0,0-.932-.578,1.128,1.128,0,0,0-.967.294.972.972,0,0,0-.371.63,1.694,1.694,0,0,0,.069.717,8.614,8.614,0,0,0,.4.967,8.607,8.607,0,0,1,.483,1.226,2.067,2.067,0,0,1,.035,1.027,1.921,1.921,0,0,1-.673,1.019,2.011,2.011,0,0,1-1.019.466,2.306,2.306,0,0,1-1.209-.155,3.033,3.033,0,0,1-1.148-.863,3.407,3.407,0,0,1-.691-1.235Z" transform="translate(-15.418 -3.136)" fill="#4b4a48"/>
  <path id="Path_249" data-name="Path 249" d="M122.8,31.2a3.738,3.738,0,0,1,1.951.475,3.872,3.872,0,0,1,1.459,1.433,4.018,4.018,0,0,1,.622,2.236,3.525,3.525,0,0,1-.786,2.1l-.63-1.053a2.45,2.45,0,0,0,.449-1.364,2.673,2.673,0,0,0-.423-1.45,2.85,2.85,0,0,0-1.088-1.062,2.679,2.679,0,0,0-1.45-.319,3.8,3.8,0,0,0-2.806,1.684,2.694,2.694,0,0,0-.406,1.433,2.779,2.779,0,0,0,.432,1.459,2.705,2.705,0,0,0,1.079,1.062,2.425,2.425,0,0,0,1.407.25l.63,1.045a3.471,3.471,0,0,1-2.2-.3,4.118,4.118,0,0,1-1.675-1.6,3.882,3.882,0,0,1-.578-1.96,3.7,3.7,0,0,1,.492-1.943,4.326,4.326,0,0,1,3.523-2.115Z" transform="translate(-16.228 -4.261)" fill="#4b4a48"/>
  <path id="Path_250" data-name="Path 250" d="M124.272,47.573l2.3-2.9-.449-1.148-2.979,1.166-.371-.95,7.287-2.849.924,2.348a3.425,3.425,0,0,1,.268,1.5,2.111,2.111,0,0,1-.432,1.148,2.427,2.427,0,0,1-2.478.794,2.24,2.24,0,0,1-1.269-1L124.73,48.7l-.449-1.14Zm2.607-4.351.553,1.4a1.685,1.685,0,0,0,.837,1.01,1.5,1.5,0,0,0,1.174-.009,1.4,1.4,0,0,0,.855-.777,1.766,1.766,0,0,0-.1-1.3l-.553-1.4-2.763,1.079Z" transform="translate(-16.772 -5.585)" fill="#4b4a48"/>
  <path id="Path_251" data-name="Path 251" d="M126.679,53.724a3.709,3.709,0,0,1,1.105-1.675,4,4,0,0,1,1.908-.924,4.093,4.093,0,0,1,2.124.095,3.759,3.759,0,0,1,1.684,1.105,3.917,3.917,0,0,1,.9,1.839,4.057,4.057,0,0,1-.095,2.063A3.685,3.685,0,0,1,133.2,57.9a4.149,4.149,0,0,1-1.917.924,4.081,4.081,0,0,1-2.124-.086,3.67,3.67,0,0,1-1.675-1.1,4.152,4.152,0,0,1-.812-3.9Zm1.442,3.238a2.688,2.688,0,0,0,1.278.794,3.442,3.442,0,0,0,1.684.035,3.553,3.553,0,0,0,1.537-.7,2.736,2.736,0,0,0,.855-1.226,3.05,3.05,0,0,0-.6-2.9,2.688,2.688,0,0,0-1.269-.786,3.442,3.442,0,0,0-1.684-.035,3.565,3.565,0,0,0-1.528.7,2.59,2.59,0,0,0-.855,1.235,2.908,2.908,0,0,0-.078,1.52,2.867,2.867,0,0,0,.673,1.364Z" transform="translate(-17.28 -6.97)" fill="#4b4a48"/>
  <path id="Path_252" data-name="Path 252" d="M128.619,64.429l.147,2.737-.829.043-.207-3.756,7.814-.423.052,1.019-6.985.38Z" transform="translate(-17.449 -8.61)" fill="#4b4a48"/>
  <path id="Path_253" data-name="Path 253" d="M128.664,71.252l-.155,2.737-.829-.043.207-3.756,7.814.44-.06,1.019-6.985-.389Z" transform="translate(-17.443 -9.588)" fill="#4b4a48"/>
  <path id="Path_254" data-name="Path 254" d="M127.487,76.678a.694.694,0,0,1,.518-.13.686.686,0,0,1,.587.786.614.614,0,0,1-.268.44.7.7,0,0,1-1.105-.648.679.679,0,0,1,.268-.458Z" transform="translate(-17.379 -10.455)" fill="#4b4a48"/>
  <path id="Path_255" data-name="Path 255" d="M125.33,86.272a2.326,2.326,0,0,1,1.036-.665,1.98,1.98,0,0,1,1.183.026l-.354,1.027a1.417,1.417,0,0,0-1.027.13,1.642,1.642,0,0,0-.734.976,1.72,1.72,0,0,0-.026,1.209,1.166,1.166,0,0,0,.751.7,1.069,1.069,0,0,0,.768,0,1.521,1.521,0,0,0,.6-.449,9.97,9.97,0,0,0,.622-.846,7.928,7.928,0,0,1,.786-1.045,2.066,2.066,0,0,1,.855-.553,1.905,1.905,0,0,1,1.209.06,2.009,2.009,0,0,1,.967.673,2.12,2.12,0,0,1,.432,1.114,3.194,3.194,0,0,1-.181,1.364,2.834,2.834,0,0,1-1.105,1.528,2.029,2.029,0,0,1-1.64.276l.363-1.062a1.2,1.2,0,0,0,.9-.19,1.7,1.7,0,0,0,.682-.932,1.6,1.6,0,0,0,.026-1.1,1.131,1.131,0,0,0-.743-.682,1.022,1.022,0,0,0-.734,0,1.568,1.568,0,0,0-.578.432c-.164.19-.371.475-.622.837a9.389,9.389,0,0,1-.8,1.045,2.113,2.113,0,0,1-.863.561,1.818,1.818,0,0,1-1.217-.06,2.111,2.111,0,0,1-.924-.63,2.259,2.259,0,0,1-.483-1.114,3.022,3.022,0,0,1,.155-1.433,3.346,3.346,0,0,1,.708-1.226Z" transform="translate(-17.001 -11.683)" fill="#4b4a48"/>
  <path id="Path_256" data-name="Path 256" d="M127.6,96.291a3.845,3.845,0,0,1,.6,1.917,3.887,3.887,0,0,1-.483,1.986,4.019,4.019,0,0,1-1.606,1.675,3.541,3.541,0,0,1-2.2.4l.578-1.079a2.4,2.4,0,0,0,1.4-.311,2.722,2.722,0,0,0,1.027-1.105,2.877,2.877,0,0,0,.363-1.476,2.685,2.685,0,0,0-.466-1.416,3.408,3.408,0,0,0-1.269-1.105,3.513,3.513,0,0,0-1.615-.449,2.6,2.6,0,0,0-1.442.389,2.812,2.812,0,0,0-1.036,1.114,2.78,2.78,0,0,0-.363,1.468,2.428,2.428,0,0,0,.509,1.338l-.578,1.079a3.492,3.492,0,0,1-.863-2.046,4,4,0,0,1,.518-2.253,3.893,3.893,0,0,1,1.39-1.5,3.715,3.715,0,0,1,1.917-.57,4.063,4.063,0,0,1,2.055.518,4.142,4.142,0,0,1,1.571,1.433Z" transform="translate(-16.412 -12.887)" fill="#4b4a48"/>
  <path id="Path_257" data-name="Path 257" d="M114.233,105.926l3.669.492.76-.976-2.53-1.96.622-.8,6.182,4.8-1.545,1.994a3.412,3.412,0,0,1-1.157,1,2.1,2.1,0,0,1-1.209.216,2.42,2.42,0,0,1-1.951-1.727,2.242,2.242,0,0,1,.207-1.606l-3.79-.458.751-.967Zm5.077.017-.924,1.191a1.731,1.731,0,0,0-.44,1.235,1.466,1.466,0,0,0,.613,1,1.4,1.4,0,0,0,1.105.337,1.79,1.79,0,0,0,1.071-.751l.924-1.191-2.34-1.813Z" transform="translate(-15.504 -14.026)" fill="#4b4a48"/>
  <path id="Path_258" data-name="Path 258" d="M110.239,111.145a3.8,3.8,0,0,1,2.012.086,4.148,4.148,0,0,1,1.779,1.166,4.037,4.037,0,0,1,1.01,1.874,3.786,3.786,0,0,1-.078,2.012A3.9,3.9,0,0,1,113.848,118a4.014,4.014,0,0,1-1.813.976,3.763,3.763,0,0,1-2-.086,4.017,4.017,0,0,1-1.779-1.174,4.14,4.14,0,0,1-1.019-1.874,3.754,3.754,0,0,1,.078-2,4.13,4.13,0,0,1,2.927-2.694Zm-2.038,2.9a2.77,2.77,0,0,0-.026,1.5,3.522,3.522,0,0,0,.829,1.459,3.456,3.456,0,0,0,1.39.958,2.743,2.743,0,0,0,1.485.1,2.8,2.8,0,0,0,1.347-.725,2.854,2.854,0,0,0,.829-1.286,2.738,2.738,0,0,0,.026-1.494,3.438,3.438,0,0,0-.837-1.468,3.375,3.375,0,0,0-1.39-.95,2.611,2.611,0,0,0-1.494-.1,2.931,2.931,0,0,0-1.347.717,2.828,2.828,0,0,0-.829,1.278Z" transform="translate(-14.636 -15.169)" fill="#4b4a48"/>
  <path id="Path_259" data-name="Path 259" d="M102.347,118.111l-2.271,1.537-.466-.691,3.117-2.107,4.377,6.484-.846.57Z" transform="translate(-13.608 -15.962)" fill="#4b4a48"/>
  <path id="Path_260" data-name="Path 260" d="M96.565,121.649l-2.426,1.269-.389-.734,3.333-1.744,3.626,6.933-.907.475-3.238-6.2Z" transform="translate(-12.807 -16.453)" fill="#4b4a48"/>
  <path id="Path_261" data-name="Path 261" d="M91.659,123.432a.707.707,0,0,1,.371.915.684.684,0,0,1-.38.38.673.673,0,0,1-.518,0,.7.7,0,0,1-.371-.38.644.644,0,0,1,0-.535.666.666,0,0,1,.363-.371.644.644,0,0,1,.535,0Z" transform="translate(-12.391 -16.854)" fill="#4b4a48"/>
  <path id="Path_262" data-name="Path 262" d="M81.88,126.608a2.31,2.31,0,0,1,1.1.544,1.949,1.949,0,0,1,.587,1.027L82.5,128.4a1.429,1.429,0,0,0-.639-.812,1.646,1.646,0,0,0-1.217-.13,1.736,1.736,0,0,0-1.053.6,1.181,1.181,0,0,0-.216,1,1.051,1.051,0,0,0,.4.665,1.53,1.53,0,0,0,.691.285c.259.043.613.078,1.045.1a8.607,8.607,0,0,1,1.3.138,2,2,0,0,1,.915.458,1.852,1.852,0,0,1,.561,1.071,2,2,0,0,1-.086,1.174,2.123,2.123,0,0,1-.734.932,3.147,3.147,0,0,1-1.269.544,2.822,2.822,0,0,1-1.874-.164,2.041,2.041,0,0,1-1.079-1.261l1.1-.233a1.206,1.206,0,0,0,.622.673,1.687,1.687,0,0,0,1.148.1,1.561,1.561,0,0,0,.95-.544,1.162,1.162,0,0,0,.207-.993.985.985,0,0,0-.38-.63,1.517,1.517,0,0,0-.665-.276,9.843,9.843,0,0,0-1.036-.1,9.833,9.833,0,0,1-1.3-.155,2.071,2.071,0,0,1-.924-.458,1.879,1.879,0,0,1-.57-1.079,2.131,2.131,0,0,1,.069-1.114,2.211,2.211,0,0,1,.708-.984,2.983,2.983,0,0,1,1.3-.6,3.412,3.412,0,0,1,1.416-.017Z" transform="translate(-10.702 -17.285)" fill="#4b4a48"/>
  <path id="Path_263" data-name="Path 263" d="M74.231,133.767a3.748,3.748,0,0,1-1.347,1.494,3.909,3.909,0,0,1-1.96.6,4.084,4.084,0,0,1-2.262-.518,3.514,3.514,0,0,1-1.468-1.684l1.226-.052a2.507,2.507,0,0,0,.984,1.045,2.743,2.743,0,0,0,1.476.319,2.846,2.846,0,0,0,1.45-.449A2.638,2.638,0,0,0,73.3,133.4a3.833,3.833,0,0,0-.147-3.272,2.628,2.628,0,0,0-1.071-1.036,2.954,2.954,0,0,0-1.485-.319,2.768,2.768,0,0,0-1.45.44,2.456,2.456,0,0,0-.889,1.122l-1.226.052a3.565,3.565,0,0,1,1.312-1.8,3.978,3.978,0,0,1,2.2-.708,3.849,3.849,0,0,1,2,.423,3.7,3.7,0,0,1,1.468,1.356,4.37,4.37,0,0,1,.181,4.11Z" transform="translate(-9.157 -17.468)" fill="#4b4a48"/>
  <path id="Path_264" data-name="Path 264" d="M59.214,127.337l1.468,3.4,1.226.147.38-3.177,1.01.121-.941,7.77-2.5-.3a3.31,3.31,0,0,1-1.45-.484,2.175,2.175,0,0,1-.812-.924,2.251,2.251,0,0,1-.164-1.209,2.335,2.335,0,0,1,.63-1.356,2.28,2.28,0,0,1,1.485-.648l-1.554-3.488,1.217.147Zm2.59,4.36-1.494-.181a1.68,1.68,0,0,0-1.286.259,1.461,1.461,0,0,0-.544,1.036,1.421,1.421,0,0,0,.276,1.122,1.8,1.8,0,0,0,1.2.527l1.494.181L61.8,131.7Z" transform="translate(-7.843 -17.375)" fill="#4b4a48"/>
  <path id="Path_265" data-name="Path 265" d="M52.506,126.494a3.822,3.822,0,0,1,.958,1.77,4.059,4.059,0,0,1-.086,2.124,4.014,4.014,0,0,1-1.088,1.822,3.752,3.752,0,0,1-1.77.958,4.135,4.135,0,0,1-3.816-1.14,3.744,3.744,0,0,1-.95-1.761,4.4,4.4,0,0,1,1.174-3.954,3.685,3.685,0,0,1,1.761-.958,4.15,4.15,0,0,1,3.825,1.131Zm-3.531-.259a2.743,2.743,0,0,0-1.3.751,3.533,3.533,0,0,0-.829,1.468,3.452,3.452,0,0,0-.112,1.684,2.643,2.643,0,0,0,.673,1.33,2.809,2.809,0,0,0,1.312.786,2.985,2.985,0,0,0,1.528.06,2.73,2.73,0,0,0,1.3-.743,3.479,3.479,0,0,0,.829-1.468,3.306,3.306,0,0,0,.1-1.675,2.616,2.616,0,0,0-.682-1.338,3.025,3.025,0,0,0-2.823-.837Z" transform="translate(-6.237 -17.11)" fill="#4b4a48"/>
  <path id="Path_266" data-name="Path 266" d="M42.939,123.227l-2.478-1.166.354-.751,3.4,1.6-3.333,7.08-.924-.432Z" transform="translate(-5.459 -16.571)" fill="#4b4a48"/>
  <path id="Path_267" data-name="Path 267" d="M36.829,120.031,34.5,118.6l.432-.708,3.2,1.969-4.1,6.657-.872-.535,3.669-5.957Z" transform="translate(-4.53 -16.104)" fill="#4b4a48"/>
  <path id="Path_268" data-name="Path 268" d="M33.163,116.629a.694.694,0,0,1-.13.518.659.659,0,0,1-.458.276.694.694,0,0,1-.518-.13.651.651,0,0,1-.259-.449.679.679,0,0,1,.138-.509.66.66,0,0,1,.449-.276.648.648,0,0,1,.5.121.659.659,0,0,1,.276.458Z" transform="translate(-4.343 -15.853)" fill="#4b4a48"/>
  <path id="Path_269" data-name="Path 269" d="M24.671,109.967a2.312,2.312,0,0,1,.095,1.226,1.958,1.958,0,0,1-.578,1.027l-.743-.794a1.468,1.468,0,0,0,.371-.967,1.651,1.651,0,0,0-.518-1.105,1.72,1.72,0,0,0-1.053-.6,1.184,1.184,0,0,0-.976.328,1.052,1.052,0,0,0-.363.673,1.587,1.587,0,0,0,.1.743,10.474,10.474,0,0,0,.449.95A8.708,8.708,0,0,1,22,112.635a2.015,2.015,0,0,1,.078,1.019,1.9,1.9,0,0,1-.622,1.036,2.021,2.021,0,0,1-1.053.535,2.1,2.1,0,0,1-1.183-.147,3.121,3.121,0,0,1-1.114-.812,2.786,2.786,0,0,1-.82-1.692A2.012,2.012,0,0,1,17.824,111l.76.82a1.247,1.247,0,0,0-.259.881,1.671,1.671,0,0,0,.5,1.036,1.575,1.575,0,0,0,.95.535,1.112,1.112,0,0,0,.95-.337.988.988,0,0,0,.345-.648,1.483,1.483,0,0,0-.1-.717c-.095-.242-.242-.553-.44-.95a8.583,8.583,0,0,1-.535-1.2,2.057,2.057,0,0,1-.078-1.027,1.863,1.863,0,0,1,.63-1.045,2.029,2.029,0,0,1,.993-.509,2.18,2.18,0,0,1,1.209.1,3.067,3.067,0,0,1,1.183.812,3.37,3.37,0,0,1,.743,1.2Z" transform="translate(-2.361 -14.726)" fill="#4b4a48"/>
  <path id="Path_270" data-name="Path 270" d="M14.613,107.129a3.673,3.673,0,0,1-1.969-.389,3.984,3.984,0,0,1-1.528-1.364,4.042,4.042,0,0,1-.717-2.2,3.586,3.586,0,0,1,.691-2.124l.673,1.019a2.387,2.387,0,0,0-.389,1.381,2.63,2.63,0,0,0,.492,1.433A2.9,2.9,0,0,0,13,105.9a2.642,2.642,0,0,0,1.468.25,3.5,3.5,0,0,0,1.58-.6,3.415,3.415,0,0,0,1.157-1.209,2.72,2.72,0,0,0,.337-1.45,2.8,2.8,0,0,0-.492-1.433,2.7,2.7,0,0,0-1.122-1.01,2.464,2.464,0,0,0-1.425-.181l-.673-1.019a3.442,3.442,0,0,1,2.21.207,4.029,4.029,0,0,1,1.744,1.528,3.939,3.939,0,0,1,.665,1.934,3.7,3.7,0,0,1-.406,1.96,4.353,4.353,0,0,1-3.428,2.271Z" transform="translate(-1.421 -13.546)" fill="#4b4a48"/>
  <path id="Path_271" data-name="Path 271" d="M12.349,90.835l-2.167,3,.5,1.131,2.927-1.3.414.932L6.875,97.785,5.848,95.48a3.24,3.24,0,0,1-.328-1.494,2.063,2.063,0,0,1,.38-1.166,2.266,2.266,0,0,1,.958-.751,2.358,2.358,0,0,1,1.494-.155,2.289,2.289,0,0,1,1.312.941l2.2-3.125.492,1.114ZM9.931,95.3l-.613-1.373a1.716,1.716,0,0,0-.881-.976,1.492,1.492,0,0,0-1.166.06,1.4,1.4,0,0,0-.82.812,1.789,1.789,0,0,0,.155,1.3L7.22,96.49l2.711-1.2Z" transform="translate(-0.754 -12.257)" fill="#4b4a48"/>
  <path id="Path_272" data-name="Path 272" d="M9.744,84.806a3.678,3.678,0,0,1-1.036,1.727,4.093,4.093,0,0,1-1.865,1.01,4.027,4.027,0,0,1-2.124,0,3.72,3.72,0,0,1-1.727-1.027,4.027,4.027,0,0,1-.984-1.8,3.981,3.981,0,0,1,0-2.063,3.707,3.707,0,0,1,1.027-1.718,4.115,4.115,0,0,1,1.874-1.01,4.059,4.059,0,0,1,2.133,0,3.822,3.822,0,0,1,1.727,1.019,3.875,3.875,0,0,1,.984,1.813,4.042,4.042,0,0,1,0,2.055ZM8.156,81.637A2.711,2.711,0,0,0,6.843,80.9a3.49,3.49,0,0,0-1.684.035,3.446,3.446,0,0,0-1.5.768,2.687,2.687,0,0,0-.794,1.261A3.077,3.077,0,0,0,3.6,85.833a2.67,2.67,0,0,0,1.3.725,3.393,3.393,0,0,0,1.684-.043,3.417,3.417,0,0,0,1.494-.768,2.7,2.7,0,0,0,.8-1.269,2.868,2.868,0,0,0,0-1.528,2.9,2.9,0,0,0-.734-1.338Z" transform="translate(-0.256 -10.899)" fill="#4b4a48"/>
  <path id="Path_273" data-name="Path 273" d="M7.379,74.776l-.268-2.728.829-.078.371,3.738-7.788.768-.1-1.019,6.959-.691Z" transform="translate(-0.057 -9.831)" fill="#4b4a48"/>
  <path id="Path_274" data-name="Path 274" d="M7.011,68.027l.043-2.737.829.017-.06,3.756L0,68.933l.017-1.019,6.993.112Z" transform="translate(0 -8.918)" fill="#4b4a48"/>
  <path id="Path_275" data-name="Path 275" d="M8.99,62.918a.7.7,0,0,1-.984-.095.691.691,0,0,1,.1-.967.724.724,0,0,1,.984.095.651.651,0,0,1,.155.492.682.682,0,0,1-.25.475Z" transform="translate(-1.073 -8.429)" fill="#4b4a48"/>
</svg>
