<svg id="Component_8_1" data-name="Component 8 – 1" xmlns="http://www.w3.org/2000/svg" width="56.674" height="9.561" viewBox="0 0 56.674 9.561">
  <path id="Path_84" data-name="Path 84" d="M15.312,31l.017.035L15.347,31c1.1-2.355,4.372-3.251,4.372-5.789a2.3,2.3,0,0,0-4.389-.86,2.3,2.3,0,0,0-4.389.86C10.94,27.739,14.208,28.634,15.312,31Z" transform="translate(-10.94 -22.221)" fill="#db0b18"/>
  <path id="Path_85" data-name="Path 85" d="M35.3,12.941a7.427,7.427,0,0,1,1.312,2.781,7.588,7.588,0,0,1,3.6-4.78,9.607,9.607,0,0,1-2.312-2.277A9.761,9.761,0,0,1,36.608,6.17,9.64,9.64,0,0,1,35.3,8.725,9.353,9.353,0,0,1,33.01,10.95a7.584,7.584,0,0,1,2.286,2Z" transform="translate(-0.01 -6.17)" fill="#db0b18"/>
  <path id="Path_86" data-name="Path 86" d="M25.271,18.285a2.17,2.17,0,0,0,.339-.461,7.966,7.966,0,0,1-.634,1.391,8.763,8.763,0,0,1-1.712,2.112,8.676,8.676,0,0,1,2.59-.374,8.849,8.849,0,0,1,2.5.374,8.064,8.064,0,0,1-1.782-2.155,7.533,7.533,0,0,1-.6-1.391,2.169,2.169,0,1,0,1.912-3.216,2.168,2.168,0,1,0-4.172,0,2.175,2.175,0,1,0,1.556,3.711Z" transform="translate(-4.555 -11.805)" fill="#fff"/>
  <path id="Path_87" data-name="Path 87" d="M47.458,6.719a6.121,6.121,0,0,1-.548,1.243,6.88,6.88,0,0,1-1.3,1.6,6.806,6.806,0,0,1,1.956-.287,6.416,6.416,0,0,1,1.886.287,6.158,6.158,0,0,1-1.347-1.625A5.554,5.554,0,0,1,47.6,6.692a2.261,2.261,0,0,0,4.268-.947c0-2.5-3.225-3.381-4.32-5.71L47.527,0,47.51.035c-1.086,2.329-4.32,3.207-4.32,5.71a2.263,2.263,0,0,0,4.259.973Z" transform="translate(4.81 0)" fill="#fff"/>
</svg>
