<svg id="Twitter2" xmlns="http://www.w3.org/2000/svg" width="20.074" height="20.074" viewBox="0 0 20.074 20.074">
  <g id="post-twitter">
    <path id="Path_473" data-name="Path 473" d="M18.067,0H2.007A2.013,2.013,0,0,0,0,2.007V18.067a2.013,2.013,0,0,0,2.007,2.007H18.067a2.013,2.013,0,0,0,2.007-2.007V2.007A2.013,2.013,0,0,0,18.067,0ZM15.758,7.327c-.1,4.617-3.011,7.829-7.427,8.03a7.306,7.306,0,0,1-4.316-1.2,5.328,5.328,0,0,0,3.914-1.1A2.711,2.711,0,0,1,5.42,11.141a4.049,4.049,0,0,0,1.1,0,2.734,2.734,0,0,1-2.108-2.71,2.023,2.023,0,0,0,1.1.3,2.968,2.968,0,0,1-.8-3.613,7.954,7.954,0,0,0,5.52,2.81c-.7-2.81,3.112-4.316,4.617-2.409a6.762,6.762,0,0,0,1.706-.6,2.838,2.838,0,0,1-1.1,1.506,5.754,5.754,0,0,0,1.405-.4C16.762,6.524,16.26,6.926,15.758,7.327Z" fill="#3daeff"/>
  </g>
</svg>
