<svg id="Layer_2" data-name="Layer 2" xmlns="http://www.w3.org/2000/svg" width="20.398" height="20.398" viewBox="0 0 20.398 20.398">
  <g id="LINE_LOGO" data-name="LINE LOGO">
    <path id="Path_472" data-name="Path 472" d="M4.6,0H15.8a4.6,4.6,0,0,1,4.6,4.6V15.8a4.6,4.6,0,0,1-4.6,4.6H4.6A4.6,4.6,0,0,1,0,15.8V4.6A4.6,4.6,0,0,1,4.6,0Z" fill="#06c755"/>
    <path id="Path_468" data-name="Path 468" d="M66.882,63.859c0-3.043-3.051-5.519-6.8-5.519s-6.8,2.476-6.8,5.519c0,2.728,2.422,5.014,5.687,5.445.222.048.523.146.6.335a1.393,1.393,0,0,1,.022.615s-.08.48-.1.582c-.03.172-.137.673.589.367a21.929,21.929,0,0,0,5.343-3.949h0A4.913,4.913,0,0,0,66.882,63.859Z" transform="translate(-49.884 -54.621)" fill="#fff"/>
    <path id="Path_469" data-name="Path 469" d="M201.2,125.162h-1.912a.127.127,0,0,1-.127-.127h0v-2.967h0a.127.127,0,0,1,.127-.127H201.2a.127.127,0,0,1,.127.127v.483a.127.127,0,0,1-.127.127h-1.3v.5h1.3a.127.127,0,0,1,.127.127v.487a.127.127,0,0,1-.127.127h-1.3v.5h1.3a.127.127,0,0,1,.127.127v.482a.127.127,0,0,1-.127.132Z" transform="translate(-186.465 -114.167)" fill="#06c755"/>
    <path id="Path_470" data-name="Path 470" d="M90.358,125.153a.127.127,0,0,0,.127-.127v-.482a.127.127,0,0,0-.127-.127h-1.3v-2.359a.127.127,0,0,0-.127-.127h-.484a.127.127,0,0,0-.127.127v2.966h0a.127.127,0,0,0,.127.127H90.36Z" transform="translate(-82.69 -114.158)" fill="#06c755"/>
    <rect id="Rectangle_68" data-name="Rectangle 68" width="0.742" height="3.228" rx="0.371" transform="translate(8.206 7.767)" fill="#06c755"/>
    <path id="Path_471" data-name="Path 471" d="M150.452,121.85h-.482a.127.127,0,0,0-.127.127v1.763l-1.358-1.834a.076.076,0,0,0-.011-.013h0l-.008-.008h0l-.007-.006h0l-.007-.005h0l-.007,0h-.54a.127.127,0,0,0-.127.127v2.968a.127.127,0,0,0,.127.127h.483a.127.127,0,0,0,.127-.127v-1.78l1.36,1.836a.128.128,0,0,0,.033.033h0l.008.005h0l.006,0h.02a.155.155,0,0,0,.034,0h.479a.127.127,0,0,0,.127-.127v-2.96a.127.127,0,0,0-.127-.13Z" transform="translate(-138.35 -114.083)" fill="#06c755"/>
  </g>
</svg>
