<svg id="KakaoTalk_logo" xmlns="http://www.w3.org/2000/svg" width="20.309" height="20.31" viewBox="0 0 20.309 20.31">
  <path id="Path_459" data-name="Path 459" d="M20.309,18.723a1.587,1.587,0,0,1-1.587,1.587H1.587A1.587,1.587,0,0,1,0,18.723V1.587A1.587,1.587,0,0,1,1.587,0H18.723a1.587,1.587,0,0,1,1.587,1.587Z" fill="#ffe812"/>
  <path id="Path_460" data-name="Path 460" d="M32.251,36C27.694,36,24,38.913,24,42.505a6.344,6.344,0,0,0,3.867,5.512c-.126.436-.812,2.8-.839,2.99,0,0-.016.14.074.193a.249.249,0,0,0,.2.012c.26-.036,3.01-1.968,3.486-2.3a10.453,10.453,0,0,0,1.465.1c4.557,0,8.251-2.912,8.251-6.505S36.807,36,32.251,36Z" transform="translate(-22.096 -33.144)"/>
  <path id="Path_461" data-name="Path 461" d="M50.936,97.715a.466.466,0,0,1-.476-.455V94.432h-.743a.466.466,0,1,1,0-.932h2.437a.466.466,0,1,1,0,.932h-.743V97.26A.466.466,0,0,1,50.936,97.715Zm4.174-.006a.391.391,0,0,1-.4-.21l-.236-.617H53.026l-.236.617a.39.39,0,0,1-.4.21.726.726,0,0,1-.3-.066c-.131-.061-.257-.227-.113-.676l1.139-3a.663.663,0,0,1,1.269,0l1.138,3c.145.45.019.617-.112.677a.728.728,0,0,1-.3.066h0Zm-.882-1.67-.475-1.351-.475,1.351h.951Zm2.063,1.607a.447.447,0,0,1-.456-.436V93.976a.486.486,0,0,1,.972,0v2.8h1.012a.437.437,0,1,1,0,.873Zm2.644.063a.476.476,0,0,1-.476-.476V93.976a.476.476,0,0,1,.952,0V95l1.328-1.328A.37.37,0,0,1,61,93.565a.482.482,0,0,1,.468.442.371.371,0,0,1-.105.29l-1.085,1.085,1.172,1.552a.476.476,0,0,1-.76.573l-1.116-1.479-.165.165v1.039A.477.477,0,0,1,58.935,97.708Z" transform="translate(-45.343 -86.082)" fill="#ffe812"/>
</svg>
