<svg id="b" xmlns="http://www.w3.org/2000/svg" width="48.686" height="62.613" viewBox="0 0 48.686 62.613">
  <g id="c" transform="translate(1 1)">
    <path id="Path_1950" data-name="Path 1950" d="M36.5,9.9h6.277a4.9,4.9,0,0,1,4.9,4.806V56.88a4.918,4.918,0,0,1-4.9,4.9H5.806A4.836,4.836,0,0,1,1,56.88V14.706A4.814,4.814,0,0,1,5.806,9.9h6.669" transform="translate(-1 -1.171)" fill="none" stroke="#fe6148" stroke-linecap="round" stroke-linejoin="round" stroke-width="2"/>
    <path id="Path_1951" data-name="Path 1951" d="M8.3,25.256l3.531,3.531L17.716,23" transform="translate(-1.14 -1.423)" fill="none" stroke="#fe6148" stroke-linecap="round" stroke-linejoin="round" stroke-width="2"/>
    <path id="Path_1952" data-name="Path 1952" d="M8.3,37.656l3.531,3.629L17.716,35.4" transform="translate(-1.14 -1.661)" fill="none" stroke="#fe6148" stroke-linecap="round" stroke-linejoin="round" stroke-width="2"/>
    <path id="Path_1953" data-name="Path 1953" d="M8.3,50.154l3.531,3.531L17.716,47.8" transform="translate(-1.14 -1.899)" fill="none" stroke="#fe6148" stroke-linecap="round" stroke-linejoin="round" stroke-width="2"/>
    <line id="Line_3" data-name="Line 3" x2="16.673" transform="translate(21.381 26.089)" fill="none" stroke="#fe6148" stroke-linecap="round" stroke-linejoin="round" stroke-width="2"/>
    <line id="Line_4" data-name="Line 4" x2="16.673" transform="translate(21.381 37.662)" fill="none" stroke="#fe6148" stroke-linecap="round" stroke-linejoin="round" stroke-width="2"/>
    <line id="Line_5" data-name="Line 5" x2="16.673" transform="translate(21.381 49.236)" fill="none" stroke="#fe6148" stroke-linecap="round" stroke-linejoin="round" stroke-width="2"/>
    <path id="Path_1954" data-name="Path 1954" d="M30.37,6.787A5.8,5.8,0,0,0,24.583,1,5.862,5.862,0,0,0,18.8,6.787H13.5V15.81H35.764V6.787Z" transform="translate(-1.24 -1)" fill="none" stroke="#fe6148" stroke-linecap="round" stroke-linejoin="round" stroke-width="2"/>
  </g>
</svg>
