<svg xmlns="http://www.w3.org/2000/svg" width="62" height="62.77" viewBox="0 0 62 62.77">
  <g id="Group_1226" data-name="Group 1226" transform="translate(-17892.999 17667.731)">
    <g id="Group_1224" data-name="Group 1224" transform="translate(17893 -17668)">
      <path id="Path_1992" data-name="Path 1992" d="M14.91,62.03V59.21L2.21,46.17A4.28,4.28,0,0,1,1,43.14l.31-23.46a3.193,3.193,0,0,1,3.2-3.15h0A3.2,3.2,0,0,1,7.7,19.54l.86,14.31" fill="none" stroke="#fe6148" stroke-linecap="round" stroke-linejoin="round" stroke-width="2"/>
      <path id="Path_1993" data-name="Path 1993" d="M16.36,47.73,8.01,39.34a3.186,3.186,0,0,1,.09-4.58h0a3.2,3.2,0,0,1,4.36.02l4.29,4.08a4.082,4.082,0,0,0,2.42,1.11l2.03.21a3.245,3.245,0,0,1,1.94.9l7.22,6.98a2.064,2.064,0,0,1,.64,1.5V62.04" fill="none" stroke="#fe6148" stroke-linecap="round" stroke-linejoin="round" stroke-width="2"/>
      <path id="Path_1994" data-name="Path 1994" d="M47.09,62.03V59.21l12.7-13.04A4.28,4.28,0,0,0,61,43.14l-.31-23.46a3.193,3.193,0,0,0-3.2-3.15h0a3.2,3.2,0,0,0-3.19,3.01l-.86,14.31" fill="none" stroke="#fe6148" stroke-linecap="round" stroke-linejoin="round" stroke-width="2"/>
      <path id="Path_1995" data-name="Path 1995" d="M45.64,47.73l8.35-8.39a3.186,3.186,0,0,0-.09-4.58h0a3.2,3.2,0,0,0-4.36.02l-4.29,4.08a4.082,4.082,0,0,1-2.42,1.11l-2.03.21a3.245,3.245,0,0,0-1.94.9l-7.22,6.98a2.064,2.064,0,0,0-.64,1.5V62.04" fill="none" stroke="#fe6148" stroke-linecap="round" stroke-linejoin="round" stroke-width="2"/>
    </g>
    <g id="Layer_2" data-name="Layer 2" transform="translate(17906 -17678.02)">
      <g id="Group_1225" data-name="Group 1225" transform="translate(1 11.29)">
        <circle id="Ellipse_12" data-name="Ellipse 12" cx="8.788" cy="8.788" r="8.788" transform="translate(8.215 8.207)" fill="none" stroke="#fe6148" stroke-linecap="round" stroke-linejoin="round" stroke-width="2"/>
        <path id="Path_2000" data-name="Path 2000" d="M35,24.658l-1.726-4.667-3.461.356a14.116,14.116,0,0,0-2.984-3.227l.625-3.418-4.52-2.082-2.195,2.7a14.28,14.28,0,0,0-4.39-.174L14.368,11.29,9.7,13.016l.356,3.461A14.116,14.116,0,0,0,6.83,19.462l-3.418-.625L1.33,23.357l2.7,2.195a14.28,14.28,0,0,0-.174,4.39L1,31.92l1.726,4.667,3.461-.356a14.116,14.116,0,0,0,2.984,3.227l-.625,3.418,4.52,2.082,2.195-2.7a14.28,14.28,0,0,0,4.39.174l1.978,2.854L26.3,43.562,25.941,40.1a14.116,14.116,0,0,0,3.227-2.984l3.418.625,2.082-4.52-2.7-2.195a14.28,14.28,0,0,0,.174-4.39L35,24.658Z" transform="translate(-1 -11.29)" fill="none" stroke="#fe6148" stroke-linecap="round" stroke-linejoin="round" stroke-width="2"/>
      </g>
    </g>
  </g>
</svg>
