<svg id="youtube" xmlns="http://www.w3.org/2000/svg" width="21.333" height="15" viewBox="0 0 21.333 15">
  <path id="Icon_awesome-youtube" data-name="Icon awesome-youtube" d="M21.471,4.847a2.681,2.681,0,0,0-1.886-1.9C17.921,2.5,11.25,2.5,11.25,2.5s-6.671,0-8.335.449a2.681,2.681,0,0,0-1.886,1.9,28.12,28.12,0,0,0-.446,5.168,28.12,28.12,0,0,0,.446,5.168,2.641,2.641,0,0,0,1.886,1.868c1.664.449,8.335.449,8.335.449s6.671,0,8.335-.449a2.641,2.641,0,0,0,1.886-1.868,28.12,28.12,0,0,0,.446-5.168,28.12,28.12,0,0,0-.446-5.168Zm-12.4,8.34V6.843l5.576,3.172L9.068,13.187Z" transform="translate(-0.583 -2.5)" fill="#404040"/>
</svg>
