<svg xmlns="http://www.w3.org/2000/svg" width="229.064" height="231.167" viewBox="0 0 229.064 231.167">
  <g id="Layer_1" data-name="Layer 1" transform="translate(-0.001 -0.01)">
    <g id="Group_1255" data-name="Group 1255">
      <path id="Path_2501" data-name="Path 2501" d="M84.83,175.45c19.5,11.26,19.6,29.51.22,40.77-19.36,11.25-50.87,11.25-70.36-.01s-19.6-29.5-.24-40.76,50.89-11.25,70.37,0Z" opacity="0.2"/>
      <path id="Path_2502" data-name="Path 2502" d="M77.46,94.65a7.418,7.418,0,0,1,6.88-3.99A5.79,5.79,0,0,1,77.46,94.65Z" fill="#131c24"/>
      <g id="Group_1249" data-name="Group 1249">
        <path id="Path_2503" data-name="Path 2503" d="M82.5,88.63s4.33,5.5,4.73,6.96,2.21,7.59-.81,11.8c-1.63,2.27-2.57-.89-3.03-5.01-.21-1.87.04-3.3-2.44-5.29a21.382,21.382,0,0,1-4.57-5.88c-.76-1.53,6.12-2.58,6.12-2.58Z" fill="#efb185"/>
        <path id="Path_2504" data-name="Path 2504" d="M76.47,91.54c.77,1.52,2.97,4.16,3.32,6.42.43,2.73,3.39,2.56,3.6,4.43.36,3.21,1.09,5.87,2.1,5.79-.46-2.42,2.35-4.27-.71-9.88a40.11,40.11,0,0,0-6.89-8.01c-1.24.59-1.7.65-1.41,1.25Z" fill="#e6a376"/>
        <path id="Path_2505" data-name="Path 2505" d="M78.19,90.25s.92,7.83,1.56,10.16,2.03,3.7,2.32,3.18-1.19-7.52,1.35-7.35c1.35.09-4.86-4.91-5.24-5.99Z" fill="#efb185"/>
      </g>
      <path id="Path_2506" data-name="Path 2506" d="M59.19,27.06s7.87-1.83,11.14,13.8,3.26,21.72,5.57,27.08,8.45,22.72,8.45,22.72-4.98.26-6.88,3.99c0,0-12.9-21.46-15.45-30.91S51.01,31.38,59.2,27.05Z" fill="#131c24"/>
      <path id="Path_2507" data-name="Path 2507" d="M75.89,67.94c-2.3-5.36-2.3-11.45-5.57-27.08-1.78-8.5-4.92-11.83-7.41-13.11-7.43,4.91.76,27.15,3.25,36.42,1.91,7.07,9.37,21.51,13.04,28.38a9.082,9.082,0,0,1,5.13-1.89S78.19,73.3,75.88,67.94Z" fill="#1d2833"/>
      <path id="Path_2508" data-name="Path 2508" d="M51.33,178.23s-2.09,4.88,0,6.13,2.37,2.65,5.71,2.37,2.86.84,4.01,2.09,12.99,6.41,15.22,3.91-4.04-5.45-6.27-6.91-7.52-7.3-7.66-8.98-11.01,1.39-11.01,1.39Z" fill="#111114"/>
      <path id="Path_2509" data-name="Path 2509" d="M51.33,184.36c2.09,1.25,2.37,2.65,5.71,2.37s2.86.84,4.01,2.09,12.99,6.41,15.22,3.91c.76-.86.53-1.77-.19-2.65-.82.15-1.97.36-3.47.62-3.48.61-7.98-3.41-9.7-4.89-1.74-1.5-3.92-.92-6.91-1.42s-2.57-5.06-2.57-5.06l-2.22-.77c-.41,1.08-1.65,4.75.13,5.82Z" fill="#0a0a0a"/>
      <path id="Path_2510" data-name="Path 2510" d="M30.2,194.07s-.88,5.76,1.34,8.88,7.09,8.52,9.19,8.28,2.44-1.2,2.44-1.2a21.073,21.073,0,0,0-.66-9.36,30.28,30.28,0,0,1-1.66-6.6H30.21Z" fill="#111114"/>
      <path id="Path_2511" data-name="Path 2511" d="M31.54,202.95c1.94,2.74,5.95,7.25,8.31,8.13-3.12-4.02,1.56-3.19-1.96-5.1-4.84-2.62-1.74-4.81-3.9-5.43s-.58-5.95-.58-5.95l-1.17-.53H30.2s-.88,5.76,1.34,8.88Z" fill="#0a0a0a"/>
      <path id="Path_2512" data-name="Path 2512" d="M55.84,100.27s9.95-1.08,13.27-8.45a241.222,241.222,0,0,1-1.1,35.1c-2.01,18.85-3.67,52.01-3.67,52.01s-6.45,6.07-13.1,0c0,0-1.86-21.89,0-34.03,0,0-1.25-21.24.83-31.86s3.77-12.78,3.77-12.78Z" fill="#131c24"/>
      <path id="Path_2513" data-name="Path 2513" d="M64.34,178.94s1.66-33.16,3.67-52.01a241.222,241.222,0,0,0,1.1-35.1c-2.44,5.39-8.42,7.41-11.45,8.11.24,7.2.91,28.41.81,35.46-.11,6.71-1.42,34.5-1.97,46.17,4.43.59,7.84-2.62,7.84-2.62Z" fill="#2a3d4c"/>
      <path id="Path_2514" data-name="Path 2514" d="M32.46,99.13s-.97,11.03-1.17,28.16-1.46,23.59-1.87,26.22-1.87,31.3-1.04,39.66c0,0,5.4,8.36,13.92,0,0,0,1.46-29.39,2.91-36.08s9.6-39.19,12.88-50.85c1.45-5.15,1.8-7.11,1.8-7.11s-14.35,10.32-27.44,0Z" fill="#1d2833"/>
      <path id="Path_2515" data-name="Path 2515" d="M42.3,193.17s1.46-29.39,2.91-36.08,9.6-39.19,12.88-50.85a27.263,27.263,0,0,1,4.82-9.12s-9.42,6.61-17.57,6.6c-.37,2.51-3.82,26.51-4.63,37-.8,10.41-7.92,46.99-6.01,56.17,2.1.06,4.66-.83,7.6-3.72Z" fill="#2a3d4c"/>
      <path id="Path_2516" data-name="Path 2516" d="M41.82,30.72S27.16,39.55,26.87,40.75c-.31,1.19-4.04,4.29,2.54,17.25,0,0,8.58,13.97,5.82,28.75a91.3,91.3,0,0,1-3.25,13.09s7.46,9.53,25.93,1.21c3.73-1.68,9.79-7.36,11.44-11.7a99.216,99.216,0,0,1-1.31-26.92C69.38,47.77,69.4,28.87,61,26.95c0,0-2.28-2.37-19.18,3.76Z" fill="#bad1de"/>
      <path id="Path_2517" data-name="Path 2517" d="M70.2,92.28s-3.39-11.09-1.61-29.05c1.57-15.82.81-34.35-7.59-36.26,0,0-.97-1.01-6.34,0l-.82.62s12.32,11.75,9.08,33.43c-1.91,12.71-3.05,21.58-1.19,36.89.48,3.97,7.36-2.67,8.48-5.62Z" fill="#1c2933"/>
      <path id="Path_2518" data-name="Path 2518" d="M54.87,101.77c9.27-26.74,1.59-40.17-1.56-45.69s-5.24-17.23-5.24-17.23l-9.12-1.52-5.36,8.86s18.91,62.4,21.28,55.58Z" fill="#89b7c9"/>
      <path id="Path_2519" data-name="Path 2519" d="M26.86,40.76c-.31,1.19-4.04,4.29,2.54,17.25,0,0,7.36,13.95,5.09,28.66-.98,6.32-.82,6.74-2.82,12.18-1.19,3.24,4.04,6.9,9.8,8.07,7.23,1.46,12.54-.88,13.39-5.14,3.58-18.09,2.81-30.05-1.66-39.09C46.66,49.5,40.83,32.1,40.83,32.1l1.54-1.57c-.19.07-.37.13-.57.2,0,0-14.66,8.83-14.95,10.03Z" fill="#1d2833"/>
      <path id="Path_2520" data-name="Path 2520" d="M37.18,33.81l-.79,3.08s9.78,18.24,17.56,29.38c6.82,9.75.23,36.27.23,36.27-.35-32.59-9.9-43.62-14.09-49.39-11.86-16.31-2.92-19.34-2.92-19.34h0Z" fill="#131c24"/>
      <path id="Path_2521" data-name="Path 2521" d="M37.04,44.23a62.072,62.072,0,0,0,3.81,6.9c.61.87,3.07,4.81,3.64,5.69,14.36,21.97,10.21,21.4,9.76,46.64,0,0,4.03-10.18,3.35-27.37a33.782,33.782,0,0,0-3.64-13.62A193.3,193.3,0,0,1,40.84,32.09l.31-.31c-.2-.3-.31-.46-.31-.46-.74.45-1.83,1.12-3.09,1.9-2.03,1.87-3.79,5.29-.71,11.01Z" fill="#2b3d4b"/>
      <path id="Path_2522" data-name="Path 2522" d="M63.28,61.58c-1.16,4.74-1.67,8.34-2.25,11.71.45,4.96.3,12.23.62,16.06.57-9.31,4.69-18.57,6.35-32.14,2.87-23.41-8.21-28.66-8.21-28.66l.07,9.76c2.16,5.96,5.82,13.37,3.41,23.27Z" fill="#131c24"/>
      <path id="Path_2523" data-name="Path 2523" d="M62.27,62.22a150.44,150.44,0,0,0-1.59,18.06c0,10.74,1.14,20.18,1.04,17.61-1.01-25.92,5.27-29.18,5.77-46.76.03-1.23.4-7.44-1.89-12.98-3.25-7.86-7.04-11.24-8.31-11.57-.14.01-.29.03-.44.05L53.84,29.3A39.774,39.774,0,0,1,62.27,62.22Z" fill="#2b3d4b"/>
      <path id="Path_2524" data-name="Path 2524" d="M46.83,25.7s11.46,5.03,7.13,13.71l5.41,2.49s4.06-14.95-12.54-16.21Z" fill="#feffff"/>
      <path id="Path_2525" data-name="Path 2525" d="M39.32,20.33s5.15,6.73,1.81,11.76c-1.88,2.81,3.42,8.78,11.67,7.69,0,0,3.63-1.16,3.16-2.48-1.07-2.99.03-4.79,1.19-7.22s-17.82-9.75-17.82-9.75Z" fill="#efb185"/>
      <path id="Path_2526" data-name="Path 2526" d="M41.13,32.09a2.141,2.141,0,0,0-.37,1.13c2.88-3.38,8.83-4.04,8.83-4.04l-8.48-8.14c-.31-.13-.58-.23-.82-.33l-.18.79c1.29,2.15,3.52,6.85,1.03,10.59Z" fill="#dd9569"/>
      <path id="Path_2527" data-name="Path 2527" d="M55.95,37.3c-1.11-4.78.03-4.79,1.19-7.22.31-.66-.89-1.7-2.79-2.85a5.646,5.646,0,0,0-1.24,1.61c-2.85,5.17-2.56,9.03-2.02,11.06a8.467,8.467,0,0,0,1.72-.13c.97-.22,3.5-1,3.16-2.48Z" fill="#f2b78f"/>
      <g id="Group_1250" data-name="Group 1250">
        <path id="Path_2528" data-name="Path 2528" d="M37.32,16.49s2.68,9.2,9.41,12.99c5.96,3.36,12.76,5.35,13.5-1.53.59-5.48,2.27-19.42-2.7-21.85-6.4-3.12-8.96-7.36-15.9-4.23,0,0-7.86,4.31-4.31,14.63Z" fill="#efb185"/>
        <path id="Path_2529" data-name="Path 2529" d="M37.32,16.49A21.014,21.014,0,0,0,46.71,29.6a26.623,26.623,0,0,0,5.59,2.48c-3.14-1.99-3.5-2.65-6.02-5.19s3.34-1.91-1.1-8.55c-1.51-2.26,5.3.31,6.77.18,8.75-.85,7.74-5.82,7.76-7.95a14.976,14.976,0,0,0-.92-2.55l-.93-1.54c-.11-.14-.22-.28-.33-.4a29.436,29.436,0,0,0-3.06-2.93c-3.75.35-14.41,1.33-14.61,1.41-.15.05-1.8,2.67-3.34,5.16a14.219,14.219,0,0,0,.81,6.76Z" fill="#e6a376"/>
        <path id="Path_2530" data-name="Path 2530" d="M41.81,25.27s-7.57-6.01-5.76-15.54A10.939,10.939,0,0,1,45.11.54c3.96-.76,11.02-.63,14.63,7.21,1.13,2.45,1.51,7.57-8.54,5.7-1.44-.28-5.23-.5-6.47.8s-1.22,3.55-.46,5.41c.68,1.64-.78,1.91-1.01,1.58s-2.46-4.98-4.12-2.99c-1.49,1.8,2.46,6.72,2.66,7.03Z" fill="#341c09"/>
        <path id="Path_2531" data-name="Path 2531" d="M41.81,25.27c-.2-.31-4.15-5.23-2.66-7.03,1.66-1.99,3.89,2.65,4.12,2.99s1.69.06,1.01-1.58c-.77-1.86-.78-4.11.46-5.41,1.12-1.18,4.46-.86,6.47-.8-1.71-.93-5.01-1.08-6.35-3.72-1.81-3.54-4.13-5.1-6.24-5.59a11.269,11.269,0,0,0-2.55,5.58c-1.81,9.53,5.76,15.54,5.76,15.54Z" fill="#221101"/>
      </g>
      <path id="Path_2532" data-name="Path 2532" d="M42.11,29.71a14.419,14.419,0,0,0,11.85,9.7l-2.24,6.77S34.21,38.9,42.11,29.71Z" fill="#feffff"/>
      <path id="Path_2533" data-name="Path 2533" d="M26.86,40.76c-.31,1.19-4.04,4.29,2.54,17.25,0,0,7.36,13.95,5.09,28.66-.98,6.32-.82,6.74-2.82,12.18-1.14,3.13,3.7,6.65,9.23,7.94,2.7-7.91,3.56-10.15,4.32-18.65,1.03-11.65-.95-21.02-11.2-31.91-9.02-9.57-5.8-13.77-6.18-16.44-.57.45-.93.79-.97.98Z" fill="#131c24"/>
      <path id="Path_2534" data-name="Path 2534" d="M64.11,5.71s-1.64,10.51-13.33,8.06c0,0-5.83-1.12-8.52-6.27-.57-1.1-2.03-2.89-3.98-2.94,0,0,2.74-4.55,10.67-4.55,3.73,0,7.84,3.33,8.82,3.86s3.46,2.78,6.33,1.85Z" fill="#341c09"/>
      <g id="Group_1252" data-name="Group 1252">
        <path id="Path_2535" data-name="Path 2535" d="M45.45,155.41l-.06-19.8L15.31,118.14l.06,19.8a2.977,2.977,0,0,0,1.26,2.76L46.7,158.18a3.027,3.027,0,0,1-1.26-2.77Z" fill="#45210c"/>
        <path id="Path_2536" data-name="Path 2536" d="M49.69,128.17c2.38-1.38,4.32-.28,4.33,2.47l.06,19.8a9.512,9.512,0,0,1-4.3,7.45c-2.38,1.38-4.32.27-4.32-2.47l-.06-19.8a9.452,9.452,0,0,1,4.3-7.44Z" fill="#8b4e29"/>
        <path id="Path_2537" data-name="Path 2537" d="M49.69,128.17c2.38-1.38,4.32-.28,4.33,2.47l.06,19.8a9.512,9.512,0,0,1-4.3,7.45c-2.38,1.38-4.32.27-4.32-2.47l-.06-19.8a9.452,9.452,0,0,1,4.3-7.44Z" fill="#8b4e29"/>
        <path id="Path_2538" data-name="Path 2538" d="M49.92,129.73a7.4,7.4,0,0,0-3.35,5.82v1.63l6.74-4.06v-1.46c0-2.13-1.52-3-3.38-1.93Z" fill="#673112"/>
        <path id="Path_2539" data-name="Path 2539" d="M49.92,129.73a5.683,5.683,0,0,0-1.03.83l4.41,2.4v-1.3C53.3,129.53,51.78,128.66,49.92,129.73Z" fill="#45210c"/>
        <path id="Path_2540" data-name="Path 2540" d="M22.69,110.39a.144.144,0,0,1-.03-.02c-.07-.04-.14-.07-.22-.11l-.22-.08c-.05-.01-.1-.03-.16-.04h-.02c-.02,0-.04-.01-.06-.01l-.26-.03h-.29c-.03,0-.06.01-.09.01h-.07a.415.415,0,0,0-.16.02c-.12.02-.25.05-.38.08a1.425,1.425,0,0,1-.16.05c-.06.02-.11.04-.16.06a1.458,1.458,0,0,0-.19.07,4.895,4.895,0,0,0-.61.3,7.091,7.091,0,0,0-1.44,1.12c-.07.07-.14.14-.2.21a.234.234,0,0,0-.07.07c-.07.07-.14.15-.21.22-.11.14-.23.28-.34.43-.1.13-.2.25-.29.38s-.17.25-.25.38a3.132,3.132,0,0,0-.22.36c-.07.12-.14.24-.2.36s-.13.25-.19.37-.11.25-.17.38-.1.26-.15.38c-.05.14-.1.28-.15.41-.02.07-.05.15-.07.23a.109.109,0,0,1-.01.05.983.983,0,0,0-.05.16c-.04.17-.09.33-.13.5-.04.2-.07.4-.1.6a8.287,8.287,0,0,0-.06.85v12.28l30.12,17.76-.03-12.56a7.654,7.654,0,0,1,.33-2.12v-.02a9.286,9.286,0,0,1,.9-2.08c.01,0,.01-.02.02-.03a9.736,9.736,0,0,1,1.32-1.79.3.3,0,0,0,.08-.08,7.431,7.431,0,0,1,1.64-1.32,4.622,4.622,0,0,1,.79-.37c.06-.01.11-.04.17-.05a3.107,3.107,0,0,1,.69-.16h.08a2.644,2.644,0,0,1,.69.04.1.1,0,0,0,.03.01,1.9,1.9,0,0,1,.63.23L22.7,110.42Z" fill="#673112"/>
        <g id="Group_1251" data-name="Group 1251">
          <path id="Path_2541" data-name="Path 2541" d="M31.51,137.46l.57-.34-.01,4.65-.58.34Z" fill="#bb732c"/>
          <path id="Path_2542" data-name="Path 2542" d="M26.46,134.54l.58-.33,5.04,2.91-.57.34Z" fill="#fbc868"/>
          <path id="Path_2543" data-name="Path 2543" d="M31.51,137.46l-.02,4.65-5.04-2.92.01-4.65Z" fill="#f4cd57"/>
        </g>
        <path id="Path_2544" data-name="Path 2544" d="M22.66,110.37c-.07-.04-.14-.07-.22-.11l-.22-.08c-.05-.01-.1-.03-.16-.04h-.02c-.02,0-.04-.01-.06-.01l-.26-.03h-.29c-.03,0-.06.01-.09.01h-.07a.415.415,0,0,0-.16.02c-.12.02-.25.05-.38.08a1.425,1.425,0,0,1-.16.05c-.06.02-.11.04-.16.06a1.458,1.458,0,0,0-.19.07,4.895,4.895,0,0,0-.61.3,7.091,7.091,0,0,0-1.44,1.12c-.07.07-.14.14-.2.21a.234.234,0,0,0-.07.07c-.07.07-.14.15-.21.22-.11.14-.23.28-.34.43-.1.13-.2.25-.29.38s-.17.25-.25.38a3.132,3.132,0,0,0-.22.36c-.07.12-.14.24-.2.36s-.13.25-.19.37-.11.25-.17.38-.1.26-.15.38c-.05.14-.1.28-.15.41-.02.07-.05.15-.07.23a.109.109,0,0,1-.01.05.983.983,0,0,0-.05.16c-.04.17-.09.33-.13.5-.04.2-.07.4-.1.6a8.287,8.287,0,0,0-.06.85v11.88c6.99-14.31,31.51-3.81,36.47-2.44a1.858,1.858,0,0,1,.33.04.1.1,0,0,0,.03.01,1.9,1.9,0,0,1,.63.23L22.7,110.4a.144.144,0,0,1-.03-.02Z" fill="#773717"/>
        <path id="Path_2545" data-name="Path 2545" d="M29.52,115.71l1.25-.73-.01,2.53-1.25.73Z" fill="#45210c"/>
        <path id="Path_2546" data-name="Path 2546" d="M38.47,119.42l-.01,1.46v2.53l1.25-.73.01-2.53v-1.46Z" fill="#4f260e"/>
        <path id="Path_2547" data-name="Path 2547" d="M38.57,118.02l-7.8-4.49-1.15-.68-1.26.73,1.17.67,7.79,4.5,1.15.67,1.25-.73Z" fill="#592a10"/>
        <path id="Path_2548" data-name="Path 2548" d="M38.47,119.42l-.01,1.46v2.53l-1.16-.67.01-2.53-7.79-4.5-.01,2.53-1.15-.67v-3.99l1.17.67,7.79,4.5Z" fill="#673112"/>
        <path id="Path_2549" data-name="Path 2549" d="M49.77,157.88a9.47,9.47,0,0,0,4.3-7.45l-.03-10.11c-1.38,4.62-4.11,11.43-8.6,13.45v1.64c.01,2.74,1.95,3.85,4.33,2.47Z" fill="#773717"/>
      </g>
      <path id="Path_2550" data-name="Path 2550" d="M25.95,106.73s-1.23,10.77,3.56,13.33c5.57,2.97,7.18,3.16,7.26,1.69s-4.39-7.52-2.06-7.52c1.41,0,1.46,2.51,1.95,3.51s1.68,1.91,1.27-2.79c-.31-3.48-3.49-7.31-4.69-9.27s-7.29,1.04-7.29,1.04Z" fill="#efb185"/>
      <path id="Path_2551" data-name="Path 2551" d="M27.84,39.78s9.43,4.89,8.79,12.45c0,0-4.39,23.48-3.74,26.82s1.93,21.87,1.46,27.12c0,0-6.17,3.72-9.49-.69,0,0-4.86-28.43-4.01-37.69s2.26-24.5,7-28.02Z" fill="#192833"/>
      <path id="Path_2552" data-name="Path 2552" d="M39.72,118.69l-4.42-2.55.19,1.56,2.98,1.72Z" fill="#592a10"/>
      <path id="Path_2553" data-name="Path 2553" d="M20.84,67.8c-.85,9.26,4.01,37.69,4.01,37.69a5.292,5.292,0,0,0,4.34,2.16c-.9-6.64-5.15-22.97-5.81-32.35-1.9-27.06,1.18-26.53,5.2-36.08h0c-8.31,5.63-6.89,19.32-7.74,28.58Z" fill="#2a3d4c"/>
      <path id="Path_2554" data-name="Path 2554" d="M126.81,72.69s-5.49-2.39-6.02-3.84-2.72-1.17-1.92.49a8.964,8.964,0,0,0,2.48,2.88s-6.78-1.94-6.69-4.09-2.49,4.96.03,7.32,4.84,5.43,13.16,2.78c0,0,.9-3.29-1.04-5.55Z" fill="#f1b287"/>
      <g id="Group_1253" data-name="Group 1253">
        <path id="Path_2555" data-name="Path 2555" d="M153.28,34.53s-3.4-6.08-4.59-7-6.13-4.94-11.15-3.77c-2.72.63-.17,2.7,3.44,4.69,1.64.9,3.04,1.22,3.93,4.26a21.374,21.374,0,0,0,3.66,6.45c1.11,1.28,4.71-4.63,4.71-4.63Z" fill="#efb185"/>
        <path id="Path_2556" data-name="Path 2556" d="M148.31,38.95c-1.11-1.28-2.68-4.31-4.63-5.5-2.34-1.44-1.06-4.09-2.69-4.99-2.81-1.56-4.98-3.24-4.52-4.14,2.04,1.35,4.82-.53,8.8,4.43a40.458,40.458,0,0,1,4.72,9.39c-1.01.91-1.24,1.31-1.68.82Z" fill="#e6a376"/>
        <path id="Path_2557" data-name="Path 2557" d="M150.15,37.87s-6.85-3.84-8.74-5.32-2.62-3.28-2.03-3.35,6.45,3.97,7.27,1.57c.43-1.28,2.65,6.33,3.51,7.1Z" fill="#efb185"/>
      </g>
      <path id="Path_2558" data-name="Path 2558" d="M205.27,46.28s2.83,8.23-8.45,9.72-32.61,1.77-37.01-2.11C155.43,50,147.52,37.9,147.52,37.9s5.61-.44,5.76-5.23l14.86,12.85s35.28-5.03,37.13.76Z" fill="#304047"/>
      <path id="Path_2559" data-name="Path 2559" d="M205.27,46.28c-1.86-5.8-37.13-.76-37.13-.76L153.28,32.67a4.732,4.732,0,0,1-1.85,3.73c2.6,3.8,7.4,10.54,10.47,13.27,4.38,3.88,25.72,3.61,37,2.11,3.28-.43,5.35-1.44,6.66-2.65a7.774,7.774,0,0,0-.28-2.86Z" fill="#354751"/>
      <path id="Path_2560" data-name="Path 2560" d="M216.16,187.93c17.13,9.89,17.22,25.93.19,35.83-17.01,9.89-44.7,9.89-61.83,0s-17.22-25.93-.2-35.82,44.72-9.89,61.84,0Z" opacity="0.2"/>
      <path id="Path_2561" data-name="Path 2561" d="M188.41,188.74s-4.12.62-3.12,2.99,5.74,6,6.36,7.5,4.5,6.86,5.75,6.37c1.25-.51,4.49.24,4.12-5.87S193.9,188.49,188.41,188.74Z" fill="#111114"/>
      <path id="Path_2562" data-name="Path 2562" d="M180.54,211.21s2,5.87-2.99,7.24-3.5-1.75-14.36.99-12.12-2.86-11.87-4.12,7.49-3.5,9.86-4.12,6.87-1.75,6.87-1.75h12.88l-.39,1.75Z" fill="#111114"/>
      <path id="Path_2563" data-name="Path 2563" d="M201.06,108.15s.07,35.46.07,39.45,4.46,35.45,1.78,49.19c0,0-7.73,7.75-14.57,0,0,0-2.19-39.38-4.16-48.27s-1.31-36.08-1.31-36.08l18.2-4.29Z" fill="#24323d"/>
      <path id="Path_2564" data-name="Path 2564" d="M187.5,113.19s-1.76,22.89-3.58,45.59c0,0-1.14,45.06-2.21,51.55,0,0-14.53,3.61-15.98-3.24,0,0,.36-39.65,0-47.94s-1.22-31.4,2.06-44.74,19.71-1.22,19.71-1.22Z" fill="#2b3c4b"/>
      <path id="Path_2565" data-name="Path 2565" d="M181.72,210.33c1.07-6.49,2.21-51.55,2.21-51.55,1.22-15.28,2.42-30.64,3.07-39.05l-8.98,2.21s-6.47,16.98-5.48,42.45c.77,19.72,1.09,39.11,1.19,46.89a36.514,36.514,0,0,0,7.99-.95Z" fill="#314656"/>
      <path id="Path_2566" data-name="Path 2566" d="M202.91,196.79c2.68-13.74-1.78-45.2-1.78-49.19s-.06-36.13-.06-39.19l-7.81,6s-2.48,25.35,0,39.78c2.26,13.14.8,38.71,1.9,46.04,4.31,0,7.75-3.44,7.75-3.44Z" fill="#2a3944"/>
      <path id="Path_2567" data-name="Path 2567" d="M203.24,43.76s7.49,3.74,3.24,16.48-7.24,20.98-6.99,25.72,1.99,20.73,3,23.97c0,0,1.25,10.49-22.73,16.74,0,0-19.73,1.99-16.48-10.99s4.5-33.97,3.99-38.96-3.49-14.99,8.99-21.73,18.98-11.74,26.98-11.24Z" fill="#354751"/>
      <path id="Path_2568" data-name="Path 2568" d="M167.27,76.73c.51,4.99-.75,25.97-3.99,38.96-2.25,9,6.54,10.8,12.14,11.05,1.8-5.8-1.24-16.14,2.93-28.79,5.14-15.64,4.42-25.97,1.66-34.3-1.79-5.41-5.03-5.55-7.34-6.31-8.26,6.54-5.84,14.93-5.4,19.38Z" fill="#304047"/>
      <path id="Path_2569" data-name="Path 2569" d="M202.49,109.94c-1.01-3.25-2.75-19.23-3-23.97s2.86-12.95,6.99-25.72c3.92-12.07-.67-15.23-3.24-16.48-1.32,6.24-22.96,8.9-22.44,13.07.58,4.64,6.36,8.99,6.7,17.32s-.74,20.64-2.2,26.8c-1.27,5.35-.64,18.29.57,23.86,17.65-6.26,16.62-14.87,16.62-14.87Z" fill="#3b5059"/>
      <g id="Group_1254" data-name="Group 1254">
        <path id="Path_2570" data-name="Path 2570" d="M194.37,37.47s-.79,6.65,1.49,10.82c2.08,3.78-13.61,7.23-13.97,3.73a15.045,15.045,0,0,0-.82-12.9c-1.98-3.55,13.31-1.65,13.31-1.65Z" fill="#efb185"/>
        <path id="Path_2571" data-name="Path 2571" d="M195.77,48.52c-1.7-3.09-1.7-7.57-1.57-9.65l-11.45,5.68v.03c.42.1,8.15,2.06,9.82,7.62C194.93,51.24,196.53,49.9,195.77,48.52Z" fill="#dd9569"/>
        <path id="Path_2572" data-name="Path 2572" d="M177.86,19.79s-2.44,6.05-1.95,11.25c.52,5.6-.31,6.73.04,9.22.15,1.06.23,2.68,1.27,3.67,1.73,1.67,5.29,2.29,10.12.52,5.84-2.13,11.99-10.16,9.49-17.38s-10.18-13.16-18.97-7.27Z" fill="#efb185"/>
        <path id="Path_2573" data-name="Path 2573" d="M196.56,34.87c-2.34-6.5-8.15-14.28-8.1-14.7.03-.25-1.9-1.46-4.09-2.76a13.1,13.1,0,0,0-6.52,2.37,31.213,31.213,0,0,0-1.22,3.89c1.39,1.56,4.23,3.33,4.66,4.65a16.966,16.966,0,0,1-.49,9.91c-.93,2.08,2.82,5.13,2.03,6.97a.543.543,0,0,0-.02.25,16.341,16.341,0,0,0,4.52-1.01,16.912,16.912,0,0,0,9.23-9.58Z" fill="#e6a376"/>
        <path id="Path_2574" data-name="Path 2574" d="M176.13,17.32A7.462,7.462,0,0,0,180.39,25c3.07,1.5,2.8,6.44,2.65,7.36s-1.05,5.09-.67,5.62c.72,1.03,3.11-2.18,4.26-1.96,2.89.56,1.77,3.26-.87,6.11-2.8,3,4.58,4.25,7.99,1.76,1.82-1.32,2.48-2.11,4.86-6.86,3.47-6.91,3.65-15.2-4.52-19.63s-12.88,1.93-17.95-.08Z" fill="#221101"/>
        <path id="Path_2575" data-name="Path 2575" d="M193.74,43.89c1.82-1.32,2.48-2.11,4.86-6.86,3.47-6.91,3.65-15.2-4.52-19.63s-12.88,1.93-17.95-.08a7.572,7.572,0,0,0,.04,2.09c2.59.42,9.67,1.81,11.5,4.86,2.25,3.74,4.74,2.54,4.56,7.2-.18,4.49.98,10.37-6.56,12.9,2.81,2.01,6.75.49,8.08-.47Z" fill="#341c09"/>
      </g>
      <path id="Path_2576" data-name="Path 2576" d="M182.77,49.95l-5.11,4.3s15.9,4.56,20.56-3.24c.66-1.1-.14-4.8-2.91-5.49,0,0-.54,6.35-12.54,4.43Z" fill="#def0f9"/>
      <path id="Path_2577" data-name="Path 2577" d="M177.05,57.53s6.34,5.5-2.37,12.2-24,17.3-29.54,16.18-20.47-6.07-20.47-6.07,4.06-3.7,1.87-7.77l20.25,2.28s25.9-20.77,30.25-16.82Z" fill="#354751"/>
      <path id="Path_2578" data-name="Path 2578" d="M177.05,57.53c-4.35-3.95-30.25,16.82-30.25,16.82l-20.25-2.28a5.207,5.207,0,0,1,.64,2.58c6.58,1.42,18.79,3.91,21.62,3.53,3.45-.46,24.79-15.01,29.83-18.48a7.513,7.513,0,0,0-1.58-2.17Z" fill="#304047"/>
    </g>
  </g>
</svg>
