<svg id="Group_73" data-name="Group 73" xmlns="http://www.w3.org/2000/svg" width="131.668" height="92.579" viewBox="0 0 131.668 92.579">
  <rect id="Rectangle_28" data-name="Rectangle 28" width="69.225" height="62.4" transform="translate(36.231 15.113)" fill="#fff"/>
  <path id="Icon_awesome-youtube" data-name="Icon awesome-youtube" d="M129.966,18.985A16.544,16.544,0,0,0,118.326,7.269C108.057,4.5,66.884,4.5,66.884,4.5S25.71,4.5,15.442,7.269A16.545,16.545,0,0,0,3.8,18.985C1.05,29.32,1.05,50.883,1.05,50.883s0,21.563,2.751,31.9A16.3,16.3,0,0,0,15.442,94.31c10.268,2.769,51.442,2.769,51.442,2.769s41.173,0,51.442-2.769A16.3,16.3,0,0,0,129.966,82.78c2.751-10.335,2.751-31.9,2.751-31.9s0-21.563-2.751-31.9ZM53.418,70.46V31.306L87.831,50.883,53.418,70.46Z" transform="translate(-1.05 -4.5)" fill="#06f"/>
</svg>
