<svg xmlns="http://www.w3.org/2000/svg" width="115.632" height="153.16" viewBox="0 0 115.632 153.16">
  <g id="Group_766" data-name="Group 766" transform="translate(-835.304 -4314.84)">
    <path id="Path_493" data-name="Path 493" d="M-57.7-15.864h19.344v11.28H-40.2v-9.528H-55.9v9.648h-1.8Zm.96,8.136H-39.12v1.776H-56.736Zm7.728-12.432h1.9V1.9h-1.9Zm18.816,4.8h12.336v1.608H-30.192Zm.672,5.04h11.088v1.56H-29.52ZM-30.528-4.7h13.176v1.536H-30.528Zm5.544-10.152h1.7V-3.864h-1.7Zm3.192,7.176,1.176-.648a14.064,14.064,0,0,1,1.38,1.32,11.218,11.218,0,0,1,1.068,1.32l-1.248.744A11.533,11.533,0,0,0-20.448-6.3,14.773,14.773,0,0,0-21.792-7.68Zm-12.144-11.4h19.872v21h-1.9V-17.4H-32.112V1.92h-1.824Zm.96,18.12H-15.1V.72h-17.88ZM0-11.664a2.524,2.524,0,0,1,1.3.336,2.493,2.493,0,0,1,.912.912,2.524,2.524,0,0,1,.336,1.3,2.543,2.543,0,0,1-.336,1.284,2.466,2.466,0,0,1-.912.924A2.524,2.524,0,0,1,0-6.576a2.543,2.543,0,0,1-1.284-.336,2.44,2.44,0,0,1-.924-.924A2.543,2.543,0,0,1-2.544-9.12a2.524,2.524,0,0,1,.336-1.3,2.466,2.466,0,0,1,.924-.912A2.543,2.543,0,0,1,0-11.664Zm14.16-6.288H33.912V1.032H32.04V-16.224H15.984V1.224H14.16Zm.96,15.72H33.048V-.48H15.12ZM25.392-16.8h1.752v7.632q0,.744.192.84a1.672,1.672,0,0,0,.648.1h1.1a4.469,4.469,0,0,0,.468-.024q.228-.024.348-.048a.741.741,0,0,0,.216-.2.98.98,0,0,0,.144-.4,3.811,3.811,0,0,0,.084-.84q.012-.576.036-1.368a3.771,3.771,0,0,0,.66.42,6.087,6.087,0,0,0,.732.324q-.024.744-.084,1.488a4.612,4.612,0,0,1-.18,1.08,1.458,1.458,0,0,1-.324.516,1.873,1.873,0,0,1-.492.348,2.308,2.308,0,0,1-.684.168,7.088,7.088,0,0,1-.8.048H27.576a4.031,4.031,0,0,1-.852-.1,1.676,1.676,0,0,1-.732-.336,1.13,1.13,0,0,1-.468-.648,5.889,5.889,0,0,1-.132-1.512Zm-4.9-.072h1.752a40.858,40.858,0,0,1-.492,4.908A11.617,11.617,0,0,1,20.4-8.04a7.8,7.8,0,0,1-2.928,2.832,2.89,2.89,0,0,0-.492-.7,6.5,6.5,0,0,0-.636-.624,6.754,6.754,0,0,0,2.592-2.484,9.87,9.87,0,0,0,1.164-3.48A40.077,40.077,0,0,0,20.5-16.872ZM41.808-15.36H54.144v1.608H41.808Zm.672,5.04H53.568v1.56H42.48ZM41.472-4.7H54.648v1.536H41.472Zm5.544-10.152h1.7V-3.864h-1.7ZM50.208-7.68l1.176-.648a14.064,14.064,0,0,1,1.38,1.32,11.218,11.218,0,0,1,1.068,1.32l-1.248.744A11.533,11.533,0,0,0,51.552-6.3,14.773,14.773,0,0,0,50.208-7.68ZM38.064-19.08H57.936v21h-1.9V-17.4H39.888V1.92H38.064Zm.96,18.12H56.9V.72H39.024Z" transform="translate(893 4335)" fill="#fff"/>
    <path id="Path_492" data-name="Path 492" d="M-22.05,0V-57.6l6.3,6.3h-18.9V-63H-7.47V0Z" transform="translate(905 4468)" fill="#f2e724"/>
    <path id="Path_491" data-name="Path 491" d="M-2.52-24.78H1.62q-.06,1.26-.21,3.24t-.555,4.4A39.616,39.616,0,0,1-.36-12.09,29.929,29.929,0,0,1-2.565-6.825,25.138,25.138,0,0,1-6.1-1.815a23,23,0,0,1-5.2,4.245A9.715,9.715,0,0,0-12.615.96,15.189,15.189,0,0,0-14.34-.45,20.924,20.924,0,0,0-9.3-4.29,21.59,21.59,0,0,0-5.97-8.835a23.874,23.874,0,0,0,1.98-4.8A33.476,33.476,0,0,0-3-18.21a38.17,38.17,0,0,0,.36-3.87Q-2.58-23.79-2.52-24.78Zm3.99.81q.03.57.12,1.8t.36,2.94a33.273,33.273,0,0,0,.825,3.7,29.972,29.972,0,0,0,1.485,4.1A25.517,25.517,0,0,0,6.57-7.32,19.762,19.762,0,0,0,9.915-3.6a20.254,20.254,0,0,0,4.6,2.97,9.656,9.656,0,0,0-1.6,1.47A11.232,11.232,0,0,0,11.73,2.43,20.534,20.534,0,0,1,6.915-.855a22.031,22.031,0,0,1-3.51-4.14A28.093,28.093,0,0,1,.99-9.54,34.847,34.847,0,0,1-.555-14.085,42.287,42.287,0,0,1-1.44-18.24q-.3-1.92-.4-3.33t-.165-2.04Z" transform="translate(920 4464)" fill="#fff"/>
  </g>
</svg>
