<svg xmlns="http://www.w3.org/2000/svg" width="126.18" height="153.136" viewBox="0 0 126.18 153.136">
  <g id="Group_765" data-name="Group 765" transform="translate(-808.34 -4314.864)">
    <path id="Path_490" data-name="Path 490" d="M-17.88-8.592H-6.12v1.344H-17.88Zm-.384,3.24H-5.736v1.368H-18.264Zm5.232-2.616h1.656v2.4a7.055,7.055,0,0,1-.2,1.644,4.886,4.886,0,0,1-.816,1.7A6.468,6.468,0,0,1-14.22-.6,13.641,13.641,0,0,1-17.448.792a6.281,6.281,0,0,0-.468-.624A3.582,3.582,0,0,0-18.5-.408a11.976,11.976,0,0,0,2.952-1.164,5.867,5.867,0,0,0,1.644-1.356A3.709,3.709,0,0,0-13.2-4.32a5.459,5.459,0,0,0,.168-1.272ZM-11.4-4.776A6.215,6.215,0,0,0-9.3-2.112,8.861,8.861,0,0,0-5.736-.6,4.7,4.7,0,0,0-6.3.036a5.613,5.613,0,0,0-.468.708A9.692,9.692,0,0,1-10.536-1.2a7.778,7.778,0,0,1-2.256-3.288Zm-4.968-5.808,1.392-.432a9.251,9.251,0,0,1,.8,1.224,6.791,6.791,0,0,1,.54,1.2l-1.512.48a7.9,7.9,0,0,0-.468-1.224A6.393,6.393,0,0,0-16.368-10.584Zm7.008-.48,1.632.5q-.432.7-.876,1.38t-.8,1.188l-1.2-.456Q-10.3-9-9.924-9.756A11.916,11.916,0,0,0-9.36-11.064Zm-11.592-4.848h6.744v1.248h-6.744Zm11.04,0H-3.12v1.248H-9.912Zm6.12-3.216h1.776V-.24A3.128,3.128,0,0,1-2.2.936a1.314,1.314,0,0,1-.66.672A3.462,3.462,0,0,1-4.1,1.872q-.792.048-1.92.048a5.434,5.434,0,0,0-.2-.864A6.863,6.863,0,0,0-6.552.192q.792.024,1.464.024H-4.2A.491.491,0,0,0-3.876.1.515.515,0,0,0-3.792-.24Zm-16.992,0h7.68v7.776h-7.68v-1.32h5.976v-5.112h-5.976Zm17.856,0v1.344H-9.264v5.136h6.336V-11.3h-8.04v-7.824Zm-18.936,0h1.776V1.944h-1.776ZM1.584-17.88H22.56v1.7H1.584Zm9.432-2.256h1.848V1.92H11.016ZM10.44-6.408l1.512.672A17.732,17.732,0,0,1,9.984-3.528,24.675,24.675,0,0,1,7.572-1.5,25.38,25.38,0,0,1,4.92.216a25.967,25.967,0,0,1-2.688,1.32q-.144-.216-.36-.5T1.428.468A2.9,2.9,0,0,0,.984.024a22.436,22.436,0,0,0,2.652-1.14A24.741,24.741,0,0,0,6.264-2.652,21.762,21.762,0,0,0,8.616-4.464,13.6,13.6,0,0,0,10.44-6.408Zm3.024.024a14.329,14.329,0,0,0,1.884,1.956,22.436,22.436,0,0,0,2.388,1.8A26.072,26.072,0,0,0,20.4-1.092,19.776,19.776,0,0,0,23.088.024q-.192.192-.432.468t-.456.564q-.216.288-.384.528a22.44,22.44,0,0,1-2.7-1.308,26.972,26.972,0,0,1-2.688-1.74A24.343,24.343,0,0,1,13.992-3.5,19.4,19.4,0,0,1,12-5.712ZM5.424-9.1v2.328H18.768V-9.1Zm0-3.624v2.28H18.768v-2.28ZM3.672-14.16H20.616v8.832H3.672Z" transform="translate(872 4335)" fill="#fff"/>
    <path id="Path_489" data-name="Path 489" d="M-84.06,0V-57.6l6.3,6.3h-18.9V-63h27.18V0Zm24.84-13.23v-9.81L-29.52-63h15.3L-43.29-23.04l-7.11-2.07H-.81v11.88ZM-25.29,0V-13.23l.45-11.88V-36.9h13.77V0Z" transform="translate(905 4468)" fill="#f2e724"/>
    <path id="Path_488" data-name="Path 488" d="M-2.52-24.78H1.62q-.06,1.26-.21,3.24t-.555,4.4A39.616,39.616,0,0,1-.36-12.09,29.929,29.929,0,0,1-2.565-6.825,25.138,25.138,0,0,1-6.1-1.815a23,23,0,0,1-5.2,4.245A9.715,9.715,0,0,0-12.615.96,15.189,15.189,0,0,0-14.34-.45,20.924,20.924,0,0,0-9.3-4.29,21.59,21.59,0,0,0-5.97-8.835a23.874,23.874,0,0,0,1.98-4.8A33.476,33.476,0,0,0-3-18.21a38.17,38.17,0,0,0,.36-3.87Q-2.58-23.79-2.52-24.78Zm3.99.81q.03.57.12,1.8t.36,2.94a33.273,33.273,0,0,0,.825,3.7,29.972,29.972,0,0,0,1.485,4.1A25.517,25.517,0,0,0,6.57-7.32,19.762,19.762,0,0,0,9.915-3.6a20.254,20.254,0,0,0,4.6,2.97,9.656,9.656,0,0,0-1.6,1.47A11.232,11.232,0,0,0,11.73,2.43,20.534,20.534,0,0,1,6.915-.855a22.031,22.031,0,0,1-3.51-4.14A28.093,28.093,0,0,1,.99-9.54,34.847,34.847,0,0,1-.555-14.085,42.287,42.287,0,0,1-1.44-18.24q-.3-1.92-.4-3.33t-.165-2.04Z" transform="translate(920 4464)" fill="#fff"/>
  </g>
</svg>
