<svg xmlns="http://www.w3.org/2000/svg" width="146" height="230" viewBox="0 0 146 230">
  <g id="Group_768" data-name="Group 768" transform="translate(-1623 -5758)">
    <path id="Path_206" data-name="Path 206" d="M0,0H146V230H0Z" transform="translate(1623 5758)" fill="none"/>
    <path id="Path_497" data-name="Path 497" d="M-8.58-16.2H8.6v1.94H-8.58Zm5.5,12.08A8.235,8.235,0,0,0-.13-2.08,18.877,18.877,0,0,0,4.18-.86a40.249,40.249,0,0,0,5.38.52A6.362,6.362,0,0,0,8.83.69q-.37.63-.61,1.11a34.011,34.011,0,0,1-5.51-.79A17.607,17.607,0,0,1-1.75-.65,11.185,11.185,0,0,1-5.06-3.38Zm6.86-.92h.48l.4-.1,1.52.94a9.9,9.9,0,0,1-2.6,2.56A14.941,14.941,0,0,1,.06.1,27.987,27.987,0,0,1-4.09,1.18q-2.19.4-4.49.62A6.685,6.685,0,0,0-8.95.81a6.2,6.2,0,0,0-.51-.93q2.1-.12,4.13-.42a25.553,25.553,0,0,0,3.81-.85A14.079,14.079,0,0,0,1.63-2.77,6.848,6.848,0,0,0,3.78-4.74ZM-2.94-6.48-.56-6A12.622,12.622,0,0,1-3.57-3.38,20.161,20.161,0,0,1-7.88-1.4a4.407,4.407,0,0,0-.38-.61,7.791,7.791,0,0,0-.51-.63,2.8,2.8,0,0,0-.51-.46A17.042,17.042,0,0,0-5.34-4.6,8.263,8.263,0,0,0-2.94-6.48Zm1.56-8.68,2.8-.06a14.44,14.44,0,0,1-.48,1.46q-.26.66-.48,1.18l-2.26-.14q.12-.56.25-1.23A10.483,10.483,0,0,0-1.38-15.16ZM-4.5-10.04v.78H4.46v-.78Zm0,2.12v.8H4.46v-.8Zm0-4.24v.78H4.46v-.78ZM-6.82-13.5H6.9v7.72H-6.82Zm4.04,8.46H4.64v1.62H-4.4Z" transform="translate(1696 5889.564)" fill="#fff"/>
    <g id="Group_565" data-name="Group 565" transform="translate(10 -33)">
      <path id="Path_499" data-name="Path 499" d="M-3.54-1.77H9.87V1.5H-3.54ZM-5.07-22.53H5.58v3.18H-5.07Zm.81-3.12,4.05.78a34.8,34.8,0,0,1-2.955,4.245,33.15,33.15,0,0,1-3.78,3.93A30.757,30.757,0,0,1-11.76-13.23a7.3,7.3,0,0,0-.72-.975q-.45-.525-.93-1.035a6.3,6.3,0,0,0-.9-.81,26.477,26.477,0,0,0,4.425-2.91A23.862,23.862,0,0,0-6.54-22.275,20.466,20.466,0,0,0-4.26-25.65Zm8.7,3.12H5.1l.6-.18,2.49,1.29a27.4,27.4,0,0,1-3.405,6.405,29.86,29.86,0,0,1-4.77,5.2A33.739,33.739,0,0,1-5.79-5.79a40.6,40.6,0,0,1-6.48,2.85,8.414,8.414,0,0,0-.57-1.11q-.36-.6-.75-1.17a6.732,6.732,0,0,0-.78-.96A31.525,31.525,0,0,0-8.325-8.565a31.551,31.551,0,0,0,5.43-3.555A26.768,26.768,0,0,0,1.5-16.635,20.447,20.447,0,0,0,4.44-21.93ZM-9-15.96l2.7-2.31q1.05.72,2.2,1.62t2.19,1.815A15.034,15.034,0,0,1-.21-13.11l-2.91,2.58a14.855,14.855,0,0,0-1.56-1.755q-.99-.975-2.13-1.935T-9-15.96ZM8.22-10.89h3.72V2.7H8.22Zm-10.23,0H10.02v3.24H-2.01V2.67H-5.64V-8.25l2.76-2.64Z" transform="translate(1719 6005)" fill="#fff"/>
      <path id="Path_498" data-name="Path 498" d="M-23.58,0V-9.45L.72-32.4a25.512,25.512,0,0,0,4.23-4.68A14.469,14.469,0,0,0,6.8-40.86a11.394,11.394,0,0,0,.495-3.15,6.961,6.961,0,0,0-2.565-5.8Q2.16-51.84-2.79-51.84a17.555,17.555,0,0,0-7.335,1.53,14.263,14.263,0,0,0-5.715,4.77l-10.62-6.84a24.838,24.838,0,0,1,10.08-8.55A33.771,33.771,0,0,1-1.44-64.08a30.531,30.531,0,0,1,12.285,2.3,19.069,19.069,0,0,1,8.19,6.435,16.713,16.713,0,0,1,2.925,9.9,24.611,24.611,0,0,1-.765,6.075,20.055,20.055,0,0,1-3.06,6.345,48.415,48.415,0,0,1-6.7,7.47L-8.73-6.57l-2.79-5.31H24.03V0Z" transform="translate(1665 6007)" fill="#f2e724"/>
    </g>
    <path id="light_mode_FILL0_wght400_GRAD0_opsz48" d="M79.7-867.645a12.237,12.237,0,0,0,8.958-3.68,12.131,12.131,0,0,0,3.7-8.937,12.237,12.237,0,0,0-3.68-8.958,12.131,12.131,0,0,0-8.936-3.7,12.237,12.237,0,0,0-8.958,3.68,12.131,12.131,0,0,0-3.7,8.936,12.237,12.237,0,0,0,3.68,8.958A12.131,12.131,0,0,0,79.7-867.645Zm.021,5.416a17.4,17.4,0,0,1-12.773-5.281,17.4,17.4,0,0,1-5.281-12.773,17.4,17.4,0,0,1,5.281-12.773,17.4,17.4,0,0,1,12.773-5.281,17.4,17.4,0,0,1,12.773,5.281,17.4,17.4,0,0,1,5.281,12.773A17.4,17.4,0,0,1,92.49-867.51,17.4,17.4,0,0,1,79.718-862.229Zm-37.01-15.345a2.613,2.613,0,0,1-1.929-.783A2.644,2.644,0,0,1,40-880.3a2.591,2.591,0,0,1,.779-1.925,2.64,2.64,0,0,1,1.929-.767h9.027a2.612,2.612,0,0,1,1.929.783,2.643,2.643,0,0,1,.779,1.941,2.591,2.591,0,0,1-.779,1.925,2.64,2.64,0,0,1-1.929.767Zm64.992,0a2.613,2.613,0,0,1-1.929-.783,2.644,2.644,0,0,1-.779-1.941,2.591,2.591,0,0,1,.779-1.925,2.64,2.64,0,0,1,1.929-.767h9.027a2.612,2.612,0,0,1,1.929.783,2.644,2.644,0,0,1,.779,1.941,2.591,2.591,0,0,1-.779,1.925,2.64,2.64,0,0,1-1.929.767Zm-28-27.983a2.591,2.591,0,0,1-1.925-.779,2.64,2.64,0,0,1-.767-1.929v-9.027a2.613,2.613,0,0,1,.783-1.929A2.644,2.644,0,0,1,79.733-920a2.591,2.591,0,0,1,1.925.779,2.64,2.64,0,0,1,.767,1.929v9.027a2.613,2.613,0,0,1-.783,1.929A2.644,2.644,0,0,1,79.7-905.557Zm0,64.992a2.591,2.591,0,0,1-1.925-.778,2.641,2.641,0,0,1-.767-1.93V-852.3a2.612,2.612,0,0,1,.783-1.929,2.644,2.644,0,0,1,1.941-.779,2.591,2.591,0,0,1,1.925.779,2.64,2.64,0,0,1,.767,1.929v9.027a2.613,2.613,0,0,1-.783,1.93A2.644,2.644,0,0,1,79.7-840.565Zm-21.648-57.59-5.145-5.055a2.546,2.546,0,0,1-.779-1.95,2.9,2.9,0,0,1,.77-1.941,2.644,2.644,0,0,1,1.941-.8,2.659,2.659,0,0,1,1.95.812l5.055,5.145a2.764,2.764,0,0,1,.722,1.9,2.6,2.6,0,0,1-.722,1.85,2.428,2.428,0,0,1-1.85.767A2.822,2.822,0,0,1,58.053-898.155Zm44.592,44.682-5.055-5.145a2.808,2.808,0,0,1-.722-1.929,2.488,2.488,0,0,1,.767-1.862,2.454,2.454,0,0,1,1.85-.812,2.6,2.6,0,0,1,1.9.812l5.145,5.055a2.546,2.546,0,0,1,.779,1.95,2.9,2.9,0,0,1-.77,1.941,2.644,2.644,0,0,1-1.941.8A2.66,2.66,0,0,1,102.645-853.473ZM97.59-898.155a2.6,2.6,0,0,1-.812-1.9,2.6,2.6,0,0,1,.812-1.9l5.055-5.145a2.546,2.546,0,0,1,1.95-.779,2.9,2.9,0,0,1,1.941.77,2.644,2.644,0,0,1,.8,1.941,2.66,2.66,0,0,1-.812,1.95l-5.145,5.055a2.49,2.49,0,0,1-1.838.722A2.9,2.9,0,0,1,97.59-898.155ZM52.9-853.464a2.644,2.644,0,0,1-.8-1.941,2.659,2.659,0,0,1,.812-1.95l5.145-5.055a2.55,2.55,0,0,1,1.887-.812,2.5,2.5,0,0,1,1.869.812,2.547,2.547,0,0,1,.848,1.9,2.6,2.6,0,0,1-.812,1.9l-5.055,5.145a2.546,2.546,0,0,1-1.95.779A2.9,2.9,0,0,1,52.9-853.464ZM79.718-880.282Z" transform="translate(1616 6687)" fill="#fff"/>
  </g>
</svg>
