<svg xmlns="http://www.w3.org/2000/svg" width="686.518" height="250.614" viewBox="0 0 686.518 250.614">
  <g id="Group_626" data-name="Group 626" transform="translate(-624.681 -3942.5)">
    <g id="Group_555" data-name="Group 555" transform="translate(-226.193 -506.078)">
      <path id="Path_478" data-name="Path 478" d="M-2.6-1.3H7.238V1.1H-2.6ZM-3.718-16.522h7.81v2.332h-7.81Zm.594-2.288,2.97.572a25.518,25.518,0,0,1-2.167,3.113,24.31,24.31,0,0,1-2.772,2.882A22.555,22.555,0,0,1-8.624-9.7a5.357,5.357,0,0,0-.528-.715q-.33-.385-.682-.759a4.62,4.62,0,0,0-.66-.594A19.417,19.417,0,0,0-7.249-13.9,17.5,17.5,0,0,0-4.8-16.335,15.008,15.008,0,0,0-3.124-18.81Zm6.38,2.288H3.74l.44-.132,1.826.946a20.1,20.1,0,0,1-2.5,4.7,21.9,21.9,0,0,1-3.5,3.817A24.742,24.742,0,0,1-4.246-4.246,29.771,29.771,0,0,1-9-2.156a6.17,6.17,0,0,0-.418-.814q-.264-.44-.55-.858a4.937,4.937,0,0,0-.572-.7A23.119,23.119,0,0,0-6.1-6.281,23.138,23.138,0,0,0-2.123-8.888,19.63,19.63,0,0,0,1.1-12.2a15,15,0,0,0,2.156-3.883ZM-6.6-11.7-4.62-13.4Q-3.85-12.87-3-12.21T-1.4-10.879A11.025,11.025,0,0,1-.154-9.614L-2.288-7.722A10.893,10.893,0,0,0-3.432-9.009q-.726-.715-1.562-1.419T-6.6-11.7ZM6.028-7.986H8.756V1.98H6.028Zm-7.5,0H7.348V-5.61H-1.474V1.958H-4.136V-6.05l2.024-1.936Z" transform="translate(942 4680)" fill="#fff"/>
      <path id="Path_468" data-name="Path 468" d="M-13.158,0V-8.64q0-.54.036-1.287t.054-1.287h-.072l-.513,1.026q-.261.522-.549,1.026l-2.592,3.978H-9.54v1.62H-18.9V-4.95l5.274-8.316h2.412V0Zm9.306.252A3.534,3.534,0,0,1-6.12-.522a4.91,4.91,0,0,1-1.5-2.313,11.919,11.919,0,0,1-.531-3.843,11.668,11.668,0,0,1,.531-3.816,4.73,4.73,0,0,1,1.5-2.259A3.616,3.616,0,0,1-3.852-13.5a3.514,3.514,0,0,1,2.25.756A4.856,4.856,0,0,1-.117-10.485,11.585,11.585,0,0,1,.414-6.678,11.919,11.919,0,0,1-.117-2.835,4.98,4.98,0,0,1-1.6-.522,3.462,3.462,0,0,1-3.852.252Zm0-1.656a1.637,1.637,0,0,0,1.188-.522,3.58,3.58,0,0,0,.81-1.683,13.191,13.191,0,0,0,.288-3.069A12.834,12.834,0,0,0-1.854-9.72a3.423,3.423,0,0,0-.81-1.638,1.665,1.665,0,0,0-1.188-.5,1.665,1.665,0,0,0-1.188.5A3.479,3.479,0,0,0-5.859-9.72a12.459,12.459,0,0,0-.3,3.042,12.805,12.805,0,0,0,.3,3.069A3.638,3.638,0,0,0-5.04-1.926,1.637,1.637,0,0,0-3.852-1.4Zm11.07-7.65,11.07-1.44.234,1.62L7.452-7.434Zm6.912-5.058,1.26-.81q.522.414,1.062.936t1.008,1.035a6.742,6.742,0,0,1,.738.945l-1.35.882a7.268,7.268,0,0,0-.7-.936q-.45-.522-.972-1.071A12.036,12.036,0,0,0,14.13-14.112ZM6.66-15.03l1.62.522A24.45,24.45,0,0,1,6.7-11.367,26.4,26.4,0,0,1,4.707-8.478,20.658,20.658,0,0,1,2.52-6.1q-.09-.2-.261-.522T1.89-7.272q-.2-.324-.342-.522A16.532,16.532,0,0,0,3.51-9.81a20.966,20.966,0,0,0,1.764-2.484A19.522,19.522,0,0,0,6.66-15.03ZM4.7-10.062,6.426-11.79l.018.018V1.476H4.7Zm6.264-4.86h1.71q.072,2.97.342,5.535a36.754,36.754,0,0,0,.729,4.518A10.549,10.549,0,0,0,14.9-1.791,2.34,2.34,0,0,0,16.524-.54q.342.018.558-.738a12.067,12.067,0,0,0,.324-2.286,5.394,5.394,0,0,0,.441.351,6.4,6.4,0,0,0,.54.351q.279.162.423.234a11.443,11.443,0,0,1-.54,2.547,2.927,2.927,0,0,1-.765,1.251,1.361,1.361,0,0,1-.927.324A3.553,3.553,0,0,1,14.436.567,6.444,6.444,0,0,1,12.915-1.7,17.352,17.352,0,0,1,11.9-5.157a42.3,42.3,0,0,1-.612-4.473Q11.07-12.1,10.962-14.922Z" transform="translate(872 4665)" fill="#fff"/>
      <path id="Path_477" data-name="Path 477" d="M-1.107.648A29.531,29.531,0,0,1-8.91-.405a20.908,20.908,0,0,1-6.615-3l3.456-6.7A17.763,17.763,0,0,0-7.074-7.614,18.562,18.562,0,0,0-1.323-6.7a9.053,9.053,0,0,0,5.184-1.3,4.143,4.143,0,0,0,1.89-3.618A4.565,4.565,0,0,0,5-14.2,4.759,4.759,0,0,0,2.322-15.93a18.983,18.983,0,0,0-5.373-.594h-9.666L-10.773-37.8H12.285v7.02H-7.641l4.536-4L-4.455-19.6l-4.536-4H-1a22.342,22.342,0,0,1,9.045,1.539,10.608,10.608,0,0,1,5,4.185,11.544,11.544,0,0,1,1.566,5.994A11.943,11.943,0,0,1,12.933-5.7a12.087,12.087,0,0,1-5.157,4.59A19.707,19.707,0,0,1-1.107.648Z" transform="translate(914 4680)" fill="#f2e724"/>
    </g>
    <g id="Group_553" data-name="Group 553" transform="translate(143.443 -518.5)">
      <path id="Path_476" data-name="Path 476" d="M-2.6-1.3H7.238V1.1H-2.6ZM-3.718-16.522h7.81v2.332h-7.81Zm.594-2.288,2.97.572a25.518,25.518,0,0,1-2.167,3.113,24.31,24.31,0,0,1-2.772,2.882A22.555,22.555,0,0,1-8.624-9.7a5.357,5.357,0,0,0-.528-.715q-.33-.385-.682-.759a4.62,4.62,0,0,0-.66-.594A19.417,19.417,0,0,0-7.249-13.9,17.5,17.5,0,0,0-4.8-16.335,15.008,15.008,0,0,0-3.124-18.81Zm6.38,2.288H3.74l.44-.132,1.826.946a20.1,20.1,0,0,1-2.5,4.7,21.9,21.9,0,0,1-3.5,3.817A24.742,24.742,0,0,1-4.246-4.246,29.771,29.771,0,0,1-9-2.156a6.17,6.17,0,0,0-.418-.814q-.264-.44-.55-.858a4.937,4.937,0,0,0-.572-.7A23.119,23.119,0,0,0-6.1-6.281,23.138,23.138,0,0,0-2.123-8.888,19.63,19.63,0,0,0,1.1-12.2a15,15,0,0,0,2.156-3.883ZM-6.6-11.7-4.62-13.4Q-3.85-12.87-3-12.21T-1.4-10.879A11.025,11.025,0,0,1-.154-9.614L-2.288-7.722A10.893,10.893,0,0,0-3.432-9.009q-.726-.715-1.562-1.419T-6.6-11.7ZM6.028-7.986H8.756V1.98H6.028Zm-7.5,0H7.348V-5.61H-1.474V1.958H-4.136V-6.05l2.024-1.936Z" transform="translate(1159 4515)" fill="#fff"/>
      <path id="Path_470" data-name="Path 470" d="M-18.468,0V-1.206A43.455,43.455,0,0,0-15.192-4.4a13.6,13.6,0,0,0,1.971-2.691,5,5,0,0,0,.657-2.322,3.109,3.109,0,0,0-.243-1.269,1.817,1.817,0,0,0-.738-.846,2.4,2.4,0,0,0-1.251-.3,2.549,2.549,0,0,0-1.422.423,5.841,5.841,0,0,0-1.188,1.035l-1.17-1.152a6.99,6.99,0,0,1,1.791-1.458,4.6,4.6,0,0,1,2.259-.522,4.3,4.3,0,0,1,2.106.5,3.485,3.485,0,0,1,1.4,1.386,4.25,4.25,0,0,1,.495,2.1,5.905,5.905,0,0,1-.63,2.583,13,13,0,0,1-1.728,2.628,32.7,32.7,0,0,1-2.5,2.673q.522-.054,1.107-.1t1.053-.045H-9.9V0ZM-3.852.252A3.534,3.534,0,0,1-6.12-.522a4.91,4.91,0,0,1-1.5-2.313,11.919,11.919,0,0,1-.531-3.843,11.668,11.668,0,0,1,.531-3.816,4.73,4.73,0,0,1,1.5-2.259A3.616,3.616,0,0,1-3.852-13.5a3.514,3.514,0,0,1,2.25.756A4.856,4.856,0,0,1-.117-10.485,11.585,11.585,0,0,1,.414-6.678,11.919,11.919,0,0,1-.117-2.835,4.98,4.98,0,0,1-1.6-.522,3.462,3.462,0,0,1-3.852.252Zm0-1.656a1.637,1.637,0,0,0,1.188-.522,3.58,3.58,0,0,0,.81-1.683,13.191,13.191,0,0,0,.288-3.069A12.834,12.834,0,0,0-1.854-9.72a3.423,3.423,0,0,0-.81-1.638,1.665,1.665,0,0,0-1.188-.5,1.665,1.665,0,0,0-1.188.5A3.479,3.479,0,0,0-5.859-9.72a12.459,12.459,0,0,0-.3,3.042,12.805,12.805,0,0,0,.3,3.069A3.638,3.638,0,0,0-5.04-1.926,1.637,1.637,0,0,0-3.852-1.4Zm11.07-7.65,11.07-1.44.234,1.62L7.452-7.434Zm6.912-5.058,1.26-.81q.522.414,1.062.936t1.008,1.035a6.742,6.742,0,0,1,.738.945l-1.35.882a7.268,7.268,0,0,0-.7-.936q-.45-.522-.972-1.071A12.036,12.036,0,0,0,14.13-14.112ZM6.66-15.03l1.62.522A24.45,24.45,0,0,1,6.7-11.367,26.4,26.4,0,0,1,4.707-8.478,20.658,20.658,0,0,1,2.52-6.1q-.09-.2-.261-.522T1.89-7.272q-.2-.324-.342-.522A16.532,16.532,0,0,0,3.51-9.81a20.966,20.966,0,0,0,1.764-2.484A19.522,19.522,0,0,0,6.66-15.03ZM4.7-10.062,6.426-11.79l.018.018V1.476H4.7Zm6.264-4.86h1.71q.072,2.97.342,5.535a36.754,36.754,0,0,0,.729,4.518A10.549,10.549,0,0,0,14.9-1.791,2.34,2.34,0,0,0,16.524-.54q.342.018.558-.738a12.067,12.067,0,0,0,.324-2.286,5.394,5.394,0,0,0,.441.351,6.4,6.4,0,0,0,.54.351q.279.162.423.234a11.443,11.443,0,0,1-.54,2.547,2.927,2.927,0,0,1-.765,1.251,1.361,1.361,0,0,1-.927.324A3.553,3.553,0,0,1,14.436.567,6.444,6.444,0,0,1,12.915-1.7,17.352,17.352,0,0,1,11.9-5.157a42.3,42.3,0,0,1-.612-4.473Q11.07-12.1,10.962-14.922Z" transform="translate(1082 4500)" fill="#fff"/>
      <path id="Path_475" data-name="Path 475" d="M-16.929-7.938v-5.886L.891-37.8h9.18L-7.371-13.824l-4.266-1.242H18.117v7.128ZM3.429,0V-7.938l.27-7.128V-22.14h8.262V0Z" transform="translate(1128 4515)" fill="#f2e724"/>
    </g>
    <g id="Group_554" data-name="Group 554" transform="translate(109.183 -436.855)">
      <path id="Path_474" data-name="Path 474" d="M-2.6-1.3H7.238V1.1H-2.6ZM-3.718-16.522h7.81v2.332h-7.81Zm.594-2.288,2.97.572a25.518,25.518,0,0,1-2.167,3.113,24.31,24.31,0,0,1-2.772,2.882A22.555,22.555,0,0,1-8.624-9.7a5.357,5.357,0,0,0-.528-.715q-.33-.385-.682-.759a4.62,4.62,0,0,0-.66-.594A19.417,19.417,0,0,0-7.249-13.9,17.5,17.5,0,0,0-4.8-16.335,15.008,15.008,0,0,0-3.124-18.81Zm6.38,2.288H3.74l.44-.132,1.826.946a20.1,20.1,0,0,1-2.5,4.7,21.9,21.9,0,0,1-3.5,3.817A24.742,24.742,0,0,1-4.246-4.246,29.771,29.771,0,0,1-9-2.156a6.17,6.17,0,0,0-.418-.814q-.264-.44-.55-.858a4.937,4.937,0,0,0-.572-.7A23.119,23.119,0,0,0-6.1-6.281,23.138,23.138,0,0,0-2.123-8.888,19.63,19.63,0,0,0,1.1-12.2a15,15,0,0,0,2.156-3.883ZM-6.6-11.7-4.62-13.4Q-3.85-12.87-3-12.21T-1.4-10.879A11.025,11.025,0,0,1-.154-9.614L-2.288-7.722A10.893,10.893,0,0,0-3.432-9.009q-.726-.715-1.562-1.419T-6.6-11.7ZM6.028-7.986H8.756V1.98H6.028Zm-7.5,0H7.348V-5.61H-1.474V1.958H-4.136V-6.05l2.024-1.936Z" transform="translate(1167 4622)" fill="#fff"/>
      <path id="Path_469" data-name="Path 469" d="M-14.436.252A6.152,6.152,0,0,1-16.281,0a5.225,5.225,0,0,1-1.413-.675,6.391,6.391,0,0,1-1.062-.909l1.008-1.332A6.71,6.71,0,0,0-16.4-1.908a3.531,3.531,0,0,0,1.782.432A3.075,3.075,0,0,0-13.3-1.737a2.047,2.047,0,0,0,.873-.747,2.138,2.138,0,0,0,.315-1.188,2.3,2.3,0,0,0-.351-1.269,2.234,2.234,0,0,0-1.206-.846,7.408,7.408,0,0,0-2.349-.3V-7.632a5.742,5.742,0,0,0,2.061-.3,2.182,2.182,0,0,0,1.08-.819,2.161,2.161,0,0,0,.333-1.188,1.81,1.81,0,0,0-.54-1.377,2.081,2.081,0,0,0-1.494-.513,3.081,3.081,0,0,0-1.413.333,5.061,5.061,0,0,0-1.233.891l-1.08-1.3a6.986,6.986,0,0,1,1.728-1.161,4.8,4.8,0,0,1,2.07-.441A5.171,5.171,0,0,1-12.4-13.1a3.342,3.342,0,0,1,1.44,1.161,3.184,3.184,0,0,1,.522,1.854,3.026,3.026,0,0,1-.621,1.926,3.751,3.751,0,0,1-1.665,1.188v.072a4.19,4.19,0,0,1,1.377.639,3.17,3.17,0,0,1,.981,1.125,3.312,3.312,0,0,1,.36,1.566,3.453,3.453,0,0,1-.6,2.043A3.909,3.909,0,0,1-12.222-.207,5.279,5.279,0,0,1-14.436.252Zm10.584,0A3.534,3.534,0,0,1-6.12-.522a4.91,4.91,0,0,1-1.5-2.313,11.919,11.919,0,0,1-.531-3.843,11.668,11.668,0,0,1,.531-3.816,4.73,4.73,0,0,1,1.5-2.259A3.616,3.616,0,0,1-3.852-13.5a3.514,3.514,0,0,1,2.25.756A4.856,4.856,0,0,1-.117-10.485,11.585,11.585,0,0,1,.414-6.678,11.919,11.919,0,0,1-.117-2.835,4.98,4.98,0,0,1-1.6-.522,3.462,3.462,0,0,1-3.852.252Zm0-1.656a1.637,1.637,0,0,0,1.188-.522,3.58,3.58,0,0,0,.81-1.683,13.191,13.191,0,0,0,.288-3.069A12.834,12.834,0,0,0-1.854-9.72a3.423,3.423,0,0,0-.81-1.638,1.665,1.665,0,0,0-1.188-.5,1.665,1.665,0,0,0-1.188.5A3.479,3.479,0,0,0-5.859-9.72a12.459,12.459,0,0,0-.3,3.042,12.805,12.805,0,0,0,.3,3.069A3.638,3.638,0,0,0-5.04-1.926,1.637,1.637,0,0,0-3.852-1.4Zm11.07-7.65,11.07-1.44.234,1.62L7.452-7.434Zm6.912-5.058,1.26-.81q.522.414,1.062.936t1.008,1.035a6.742,6.742,0,0,1,.738.945l-1.35.882a7.268,7.268,0,0,0-.7-.936q-.45-.522-.972-1.071A12.036,12.036,0,0,0,14.13-14.112ZM6.66-15.03l1.62.522A24.45,24.45,0,0,1,6.7-11.367,26.4,26.4,0,0,1,4.707-8.478,20.658,20.658,0,0,1,2.52-6.1q-.09-.2-.261-.522T1.89-7.272q-.2-.324-.342-.522A16.532,16.532,0,0,0,3.51-9.81a20.966,20.966,0,0,0,1.764-2.484A19.522,19.522,0,0,0,6.66-15.03ZM4.7-10.062,6.426-11.79l.018.018V1.476H4.7Zm6.264-4.86h1.71q.072,2.97.342,5.535a36.754,36.754,0,0,0,.729,4.518A10.549,10.549,0,0,0,14.9-1.791,2.34,2.34,0,0,0,16.524-.54q.342.018.558-.738a12.067,12.067,0,0,0,.324-2.286,5.394,5.394,0,0,0,.441.351,6.4,6.4,0,0,0,.54.351q.279.162.423.234a11.443,11.443,0,0,1-.54,2.547,2.927,2.927,0,0,1-.765,1.251,1.361,1.361,0,0,1-.927.324A3.553,3.553,0,0,1,14.436.567,6.444,6.444,0,0,1,12.915-1.7,17.352,17.352,0,0,1,11.9-5.157a42.3,42.3,0,0,1-.612-4.473Q11.07-12.1,10.962-14.922Z" transform="translate(1099 4607)" fill="#fff"/>
      <path id="Path_473" data-name="Path 473" d="M-2.646,0V-34.56l3.78,3.78h-11.34V-37.8H6.1V0Z" transform="translate(1143 4622)" fill="#f2e724"/>
    </g>
    <g id="Group_552" data-name="Group 552" transform="translate(-214.545 -555)">
      <path id="Path_472" data-name="Path 472" d="M-2.6-1.3H7.238V1.1H-2.6ZM-3.718-16.522h7.81v2.332h-7.81Zm.594-2.288,2.97.572a25.518,25.518,0,0,1-2.167,3.113,24.31,24.31,0,0,1-2.772,2.882A22.555,22.555,0,0,1-8.624-9.7a5.357,5.357,0,0,0-.528-.715q-.33-.385-.682-.759a4.62,4.62,0,0,0-.66-.594A19.417,19.417,0,0,0-7.249-13.9,17.5,17.5,0,0,0-4.8-16.335,15.008,15.008,0,0,0-3.124-18.81Zm6.38,2.288H3.74l.44-.132,1.826.946a20.1,20.1,0,0,1-2.5,4.7,21.9,21.9,0,0,1-3.5,3.817A24.742,24.742,0,0,1-4.246-4.246,29.771,29.771,0,0,1-9-2.156a6.17,6.17,0,0,0-.418-.814q-.264-.44-.55-.858a4.937,4.937,0,0,0-.572-.7A23.119,23.119,0,0,0-6.1-6.281,23.138,23.138,0,0,0-2.123-8.888,19.63,19.63,0,0,0,1.1-12.2a15,15,0,0,0,2.156-3.883ZM-6.6-11.7-4.62-13.4Q-3.85-12.87-3-12.21T-1.4-10.879A11.025,11.025,0,0,1-.154-9.614L-2.288-7.722A10.893,10.893,0,0,0-3.432-9.009q-.726-.715-1.562-1.419T-6.6-11.7ZM6.028-7.986H8.756V1.98H6.028Zm-7.5,0H7.348V-5.61H-1.474V1.958H-4.136V-6.05l2.024-1.936Z" transform="translate(935 4567)" fill="#fff"/>
      <path id="Path_467" data-name="Path 467" d="M-14.436.252A6.175,6.175,0,0,1-16.272,0a5.366,5.366,0,0,1-1.422-.666,8.107,8.107,0,0,1-1.08-.864l.99-1.35a6.178,6.178,0,0,0,.828.693,4.145,4.145,0,0,0,1.017.513,3.832,3.832,0,0,0,1.269.2,2.677,2.677,0,0,0,1.332-.333,2.361,2.361,0,0,0,.936-.972A3.18,3.18,0,0,0-12.06-4.3a2.788,2.788,0,0,0-.693-2.016,2.42,2.42,0,0,0-1.827-.72,2.907,2.907,0,0,0-1.08.18,5.964,5.964,0,0,0-1.026.558l-1.026-.666.4-6.3H-10.6V-11.5h-4.914l-.306,3.384a4.651,4.651,0,0,1,.864-.333A3.645,3.645,0,0,1-14-8.568a4.558,4.558,0,0,1,2.034.45,3.392,3.392,0,0,1,1.458,1.377,4.694,4.694,0,0,1,.54,2.385,4.706,4.706,0,0,1-.63,2.493A4.231,4.231,0,0,1-12.249-.288,4.593,4.593,0,0,1-14.436.252Zm10.584,0A3.534,3.534,0,0,1-6.12-.522a4.91,4.91,0,0,1-1.5-2.313,11.919,11.919,0,0,1-.531-3.843,11.668,11.668,0,0,1,.531-3.816,4.73,4.73,0,0,1,1.5-2.259A3.616,3.616,0,0,1-3.852-13.5a3.514,3.514,0,0,1,2.25.756A4.856,4.856,0,0,1-.117-10.485,11.585,11.585,0,0,1,.414-6.678,11.919,11.919,0,0,1-.117-2.835,4.98,4.98,0,0,1-1.6-.522,3.462,3.462,0,0,1-3.852.252Zm0-1.656a1.637,1.637,0,0,0,1.188-.522,3.58,3.58,0,0,0,.81-1.683,13.191,13.191,0,0,0,.288-3.069A12.834,12.834,0,0,0-1.854-9.72a3.423,3.423,0,0,0-.81-1.638,1.665,1.665,0,0,0-1.188-.5,1.665,1.665,0,0,0-1.188.5A3.479,3.479,0,0,0-5.859-9.72a12.459,12.459,0,0,0-.3,3.042,12.805,12.805,0,0,0,.3,3.069A3.638,3.638,0,0,0-5.04-1.926,1.637,1.637,0,0,0-3.852-1.4Zm11.07-7.65,11.07-1.44.234,1.62L7.452-7.434Zm6.912-5.058,1.26-.81q.522.414,1.062.936t1.008,1.035a6.742,6.742,0,0,1,.738.945l-1.35.882a7.268,7.268,0,0,0-.7-.936q-.45-.522-.972-1.071A12.036,12.036,0,0,0,14.13-14.112ZM6.66-15.03l1.62.522A24.45,24.45,0,0,1,6.7-11.367,26.4,26.4,0,0,1,4.707-8.478,20.658,20.658,0,0,1,2.52-6.1q-.09-.2-.261-.522T1.89-7.272q-.2-.324-.342-.522A16.532,16.532,0,0,0,3.51-9.81a20.966,20.966,0,0,0,1.764-2.484A19.522,19.522,0,0,0,6.66-15.03ZM4.7-10.062,6.426-11.79l.018.018V1.476H4.7Zm6.264-4.86h1.71q.072,2.97.342,5.535a36.754,36.754,0,0,0,.729,4.518A10.549,10.549,0,0,0,14.9-1.791,2.34,2.34,0,0,0,16.524-.54q.342.018.558-.738a12.067,12.067,0,0,0,.324-2.286,5.394,5.394,0,0,0,.441.351,6.4,6.4,0,0,0,.54.351q.279.162.423.234a11.443,11.443,0,0,1-.54,2.547,2.927,2.927,0,0,1-.765,1.251,1.361,1.361,0,0,1-.927.324A3.553,3.553,0,0,1,14.436.567,6.444,6.444,0,0,1,12.915-1.7,17.352,17.352,0,0,1,11.9-5.157a42.3,42.3,0,0,1-.612-4.473Q11.07-12.1,10.962-14.922Z" transform="translate(858 4552)" fill="#fff"/>
      <path id="Path_471" data-name="Path 471" d="M-16.929-7.938v-5.886L.891-37.8h9.18L-7.371-13.824l-4.266-1.242H18.117v7.128ZM3.429,0V-7.938l.27-7.128V-22.14h8.262V0Z" transform="translate(904 4567)" fill="#f2e724"/>
    </g>
    <path id="Path_231" data-name="Path 231" d="M-7782.183-13235.222l50.405,50.405h69.369" transform="translate(8837.184 17346.145)" fill="none" stroke="#fff" stroke-width="1"/>
    <path id="Path_232" data-name="Path 232" d="M-7795.016-13409l38.727-38.727h81.048" transform="translate(8858.572 17421.5)" fill="none" stroke="#fff" stroke-width="1"/>
    <path id="Path_233" data-name="Path 233" d="M-8040.768-13396.347l-29.944-29.943h-70.795" transform="translate(8887.769 17414.789)" fill="none" stroke="#fff" stroke-width="1"/>
    <path id="Path_234" data-name="Path 234" d="M-8011.324-13195.3l-22.6,22.595h-75.791" transform="translate(8858.324 17333.922)" fill="none" stroke="#fff" stroke-width="1"/>
    <g id="Group_624" data-name="Group 624">
      <g id="Group_551" data-name="Group 551" transform="translate(-6.545 -507)">
        <g id="Layer_2" data-name="Layer 2" transform="translate(843 4451)">
          <g id="Group_550" data-name="Group 550">
            <path id="Path_202" data-name="Path 202" d="M150,123.807h.008L271.95,145.317A123.941,123.941,0,0,0,150,0Z" transform="translate(-26.193)" fill="#fff" stroke="#2c4298" stroke-width="3"/>
            <path id="Path_203" data-name="Path 203" d="M124.292,150h-.008L2.73,173.631a123.833,123.833,0,0,0,216.4,55.961L124.292,150Z" transform="translate(-0.477 -26.193)" fill="#fff" stroke="#2c4298" stroke-width="3"/>
            <path id="Path_204" data-name="Path 204" d="M123.807,0A123.914,123.914,0,0,0,2.253,147.438l121.554-23.631Z" fill="#fff" stroke="#2c4298" stroke-width="3"/>
            <path id="Path_205" data-name="Path 205" d="M150.01,150l94.836,79.591a123.394,123.394,0,0,0,27.106-58.082Z" transform="translate(-26.195 -26.193)" fill="#fff" stroke="#2c4298" stroke-width="3"/>
          </g>
        </g>
        <circle id="Ellipse_79" data-name="Ellipse 79" cx="79.5" cy="79.5" r="79.5" transform="translate(887.807 4495.807)" fill="#2c4298"/>
      </g>
      <path id="Path_466" data-name="Path 466" d="M-37.56-25.62l3.69.96a37.981,37.981,0,0,1-1.905,4.35,33.485,33.485,0,0,1-2.37,3.945A23.852,23.852,0,0,1-40.77-13.2q-.36-.3-.93-.765t-1.155-.885q-.585-.42-1.035-.69a16.814,16.814,0,0,0,2.58-2.775,24.261,24.261,0,0,0,2.16-3.48A25.765,25.765,0,0,0-37.56-25.62Zm.66,3.42h19.08v3.48H-38.64Zm-2.13,7.11h20.49v3.36H-35.43v6.3h-3.6ZM-43.8-7.2h27.6v3.45H-43.8Zm13.59-13.2h3.72V2.7h-3.72ZM-4.8-15.36l18.24-2.43.51,3.39L-4.29-11.91ZM6.48-23.58l2.7-1.68q.78.69,1.62,1.56t1.56,1.725A11.494,11.494,0,0,1,13.5-20.4l-2.91,1.83a10.7,10.7,0,0,0-1.05-1.575q-.69-.885-1.485-1.785T6.48-23.58ZM-6.48-25.23l3.45,1.11a47.25,47.25,0,0,1-2.685,5.31,46.465,46.465,0,0,1-3.33,4.95A32.477,32.477,0,0,1-12.72-9.81a8.212,8.212,0,0,0-.51-1.14q-.36-.69-.765-1.38t-.735-1.14a23.59,23.59,0,0,0,3.18-3.27A36.762,36.762,0,0,0-8.7-20.805,30.006,30.006,0,0,0-6.48-25.23Zm-3.09,8.61,3.66-3.69.06.06V2.64H-9.57ZM.81-25.02H4.47q.06,4.8.435,8.955A59.476,59.476,0,0,0,5.97-8.76a18.843,18.843,0,0,0,1.71,5A3.416,3.416,0,0,0,10.05-1.74q.51.03.81-1.14a22.762,22.762,0,0,0,.48-3.66,6.3,6.3,0,0,0,.9.78q.57.42,1.14.765t.9.525A18.75,18.75,0,0,1,13.245,0,4.81,4.81,0,0,1,11.82,2.115a2.442,2.442,0,0,1-1.62.5A6.324,6.324,0,0,1,6.54,1.05,10.39,10.39,0,0,1,3.975-2.7,28,28,0,0,1,2.3-8.43a67.837,67.837,0,0,1-.975-7.515Q.99-20.13.81-25.02Zm31.38,3.18h3.48V-4.86H32.19Zm7.08-3.03h3.57V-1.68A6.175,6.175,0,0,1,42.465.75,2.6,2.6,0,0,1,41.16,2.04a7.652,7.652,0,0,1-2.43.555q-1.5.135-3.57.135a6.6,6.6,0,0,0-.27-1.215Q34.68.84,34.425.165A8.5,8.5,0,0,0,33.9-.99q1.47.03,2.79.045t1.77.015a.942.942,0,0,0,.615-.165.735.735,0,0,0,.195-.585ZM21.54-11.16h6.9v3.15h-6.9Zm5.31,0h3.33l-.015.255q-.015.255-.015.57v.495Q30-6.21,29.82-3.915a29.525,29.525,0,0,1-.435,3.51A4.41,4.41,0,0,1,28.71,1.35a2.65,2.65,0,0,1-.99.81,4.46,4.46,0,0,1-1.26.33,14.059,14.059,0,0,1-1.59.12q-.99.03-2.04-.03a6.484,6.484,0,0,0-.3-1.605A6.451,6.451,0,0,0,21.87-.54q.93.09,1.755.12t1.215.03A1.773,1.773,0,0,0,25.4-.465,1.024,1.024,0,0,0,25.83-.78a2.971,2.971,0,0,0,.45-1.335q.18-1.035.33-3.09t.24-5.415Zm-6.06-9.75v4.11h5.64v-4.11Zm-3.27-3.18H29.91v10.47H17.52Zm3.06,9.51h3.51q-.12,2.37-.39,4.785a30.962,30.962,0,0,1-.885,4.68,18.509,18.509,0,0,1-1.74,4.26A13.128,13.128,0,0,1,18.12,2.7a8.578,8.578,0,0,0-1.08-1.41A7.981,7.981,0,0,0,15.69.09a9.814,9.814,0,0,0,2.55-3,15.258,15.258,0,0,0,1.41-3.66,26.361,26.361,0,0,0,.66-3.99Q20.49-12.6,20.58-14.58ZM-23.04,28.44h7.56v3.51h-7.56Zm-2.19-8.58h3.75V44.19l-3.75.87Zm-3.78,23.46q1.8-.3,4.08-.735t4.8-.96l4.98-1.035.33,3.51q-2.25.51-4.59,1.05t-4.53,1q-2.19.465-4.05.885Zm25.2-17.25,2.49,3.15q-1.53.81-3.24,1.575T-8.025,32.25q-1.755.69-3.405,1.29a8.848,8.848,0,0,0-.51-1.455,10.5,10.5,0,0,0-.72-1.4q1.56-.63,3.165-1.4t3.075-1.6Q-4.95,26.85-3.81,26.07Zm-9.96-6.21h3.72v21.9a3.623,3.623,0,0,0,.225,1.65q.225.33,1.065.33h3.27a.983.983,0,0,0,.885-.435,3.88,3.88,0,0,0,.42-1.545q.135-1.11.225-3.15a11.422,11.422,0,0,0,1.635.9A11.807,11.807,0,0,0-.6,40.17a20.526,20.526,0,0,1-.63,4.11,4.235,4.235,0,0,1-1.365,2.265,4.118,4.118,0,0,1-2.565.705H-9.3a6.259,6.259,0,0,1-2.715-.48,2.693,2.693,0,0,1-1.365-1.695,11.369,11.369,0,0,1-.39-3.345Zm26.82-.33h3.72v4.2H13.05Zm0,17.55h3.72V47.7H13.05ZM1.47,39H28.59v3.33H1.47Zm.99-16.56h25.2v3.27H2.46Zm22.17,3.63,3.21,1.53q-1.14,1.05-2.37,2.025t-2.25,1.7l-2.64-1.41q.69-.51,1.425-1.17t1.44-1.365A16.13,16.13,0,0,0,24.63,26.07ZM12.78,24.78l3.03,1.14q-.9,1.17-1.845,2.34T12.24,30.24l-2.25-.99q.48-.63.99-1.41t.99-1.59Q12.45,25.44,12.78,24.78Zm4.5,2.19,2.79,1.29q-1.23,1.44-2.7,2.985t-2.94,2.94q-1.47,1.4-2.79,2.445l-2.1-1.17q1.32-1.11,2.745-2.565T15.03,29.88Q16.35,28.32,17.28,26.97ZM8.49,29.58l1.68-2.04q.87.51,1.86,1.17t1.89,1.305A14.131,14.131,0,0,1,15.39,31.2l-1.77,2.34a14.807,14.807,0,0,0-1.41-1.275q-.87-.7-1.86-1.41T8.49,29.58Zm-.27,4.8,3.42-.135q1.92-.075,4.08-.18t4.35-.195l-.03,2.55-5.97.48q-2.97.24-5.34.39Zm8.25-2.01,2.55-1.08q.66.84,1.305,1.815T21.51,35.04a9.058,9.058,0,0,1,.78,1.74l-2.7,1.23a11.282,11.282,0,0,0-.735-1.755q-.495-.975-1.11-2.01A17.507,17.507,0,0,0,16.47,32.37ZM1.14,34.92q1.44-.45,3.465-1.23T8.73,32.13l.63,2.64q-1.62.81-3.345,1.62T2.85,37.83Zm.9-6.63,2.4-1.92q.78.42,1.665.975t1.68,1.125a12.849,12.849,0,0,1,1.3,1.05L6.57,31.65a10.961,10.961,0,0,0-1.215-1.08q-.765-.6-1.635-1.2T2.04,28.29Zm17.88,5.58,2.46-1.98q1.02.51,2.22,1.2t2.28,1.4q1.08.705,1.8,1.275l-2.61,2.19a13.719,13.719,0,0,0-1.68-1.32q-1.05-.72-2.22-1.47A24.462,24.462,0,0,0,19.92,33.87Z" transform="translate(960.455 4058)" fill="#fff"/>
    </g>
  </g>
</svg>
