<svg xmlns="http://www.w3.org/2000/svg" width="82" height="146" viewBox="0 0 82 146">
  <g id="Group_634" data-name="Group 634" transform="translate(-1080.999 -4618)">
    <rect id="Rectangle_1995" data-name="Rectangle 1995" width="82" height="146" transform="translate(1080.999 4618)" fill="none"/>
    <path id="Path_485" data-name="Path 485" d="M-17.4-18.7a11.8,11.8,0,0,1,.672,1q.36.588.708,1.188t.588,1.1l-1.3.576q-.36-.744-.912-1.692t-1.032-1.644Zm2.64-.96a11.943,11.943,0,0,1,.708,1.032q.372.6.732,1.188a11.347,11.347,0,0,1,.576,1.044l-1.3.576q-.384-.792-.924-1.716a14.137,14.137,0,0,0-1.068-1.6ZM-30.528-7.224q.384-.936.756-2.04t.7-2.292q.324-1.188.564-2.352a19.971,19.971,0,0,0,.336-2.22l2.136.456a4.5,4.5,0,0,1-.144.564q-.1.3-.168.612t-.12.576q-.12.552-.336,1.44t-.5,1.944q-.288,1.056-.624,2.124t-.72,1.98q-.432,1.1-1,2.268T-30.864-1.9q-.648,1.1-1.32,2.064L-34.224-.7a28.347,28.347,0,0,0,2.1-3.276A34.306,34.306,0,0,0-30.528-7.224Zm11.808-.912q-.36-.936-.792-1.968t-.912-2.076q-.48-1.044-.924-1.968A15.936,15.936,0,0,0-22.2-15.72l1.944-.648q.36.624.8,1.536t.924,1.944q.48,1.032.936,2.088t.84,2.016q.36.888.768,1.98t.8,2.208q.4,1.116.732,2.16t.576,1.86l-2.136.7Q-16.3-1.1-16.74-2.532t-.948-2.88Q-18.192-6.864-18.72-8.136ZM-9.7-8.664A39.282,39.282,0,0,0-3.888-10.7a38.124,38.124,0,0,0,4.68-2.448q1.248-.792,2.436-1.716A29.287,29.287,0,0,0,5.472-16.8a23.573,23.573,0,0,0,1.872-1.992L8.952-17.3q-1.008,1.08-2.184,2.112t-2.484,1.98q-1.308.948-2.724,1.836-1.32.792-2.976,1.632T-4.944-8.16q-1.872.744-3.792,1.368Zm10.1-3.48,2.064-.624V-1.824q0,.456.012.96t.048.936a6.3,6.3,0,0,0,.084.672H.264Q.288.5.324.072t.06-.936q.024-.5.024-.96ZM32.688-15a2.893,2.893,0,0,0-.312.612q-.144.372-.24.66a19.571,19.571,0,0,1-.912,2.628,25.436,25.436,0,0,1-1.44,2.88,19.677,19.677,0,0,1-1.92,2.748,20.731,20.731,0,0,1-3.9,3.636,23.424,23.424,0,0,1-5.652,2.892L16.584-.5a21.39,21.39,0,0,0,3.96-1.572,19.206,19.206,0,0,0,3.144-2.052,18.545,18.545,0,0,0,2.472-2.4,17.52,17.52,0,0,0,1.716-2.424A21.078,21.078,0,0,0,29.208-11.6,14.758,14.758,0,0,0,30-14.016H21.1l.768-1.728H29.52a6.119,6.119,0,0,0,.888-.06,2.533,2.533,0,0,0,.672-.18Zm-8.04-3.648q-.312.48-.6,1.02t-.456.876a28.973,28.973,0,0,1-1.8,2.844A23.486,23.486,0,0,1,19.224-10.9a22.416,22.416,0,0,1-3.432,2.784L14.136-9.36a17.671,17.671,0,0,0,2.784-1.992,20.345,20.345,0,0,0,2.148-2.184,21.1,21.1,0,0,0,1.572-2.112,16.175,16.175,0,0,0,1.032-1.824,6.083,6.083,0,0,0,.42-.876,6.135,6.135,0,0,0,.324-1.02Z" transform="translate(1122 4756.898)" fill="#fff"/>
    <path id="Icon_awesome-motorcycle" data-name="Icon awesome-motorcycle" d="M50.575,17.121a12.476,12.476,0,0,0-4.181.68L43.15,12.388h8.125a2.361,2.361,0,0,0,2.366-2.366V6.866A2.361,2.361,0,0,0,51.275,4.5H46.808a2.367,2.367,0,0,0-1.755.779l-3.7,4.112L39.107,5.644A2.383,2.383,0,0,0,37.076,4.5H29.187A1.582,1.582,0,0,0,27.61,6.078V7.655a1.582,1.582,0,0,0,1.578,1.578h6.547l1.893,3.155H22.473c-1.745-2.278-4.427-3.944-9.85-3.944H7.15A2.4,2.4,0,0,0,4.734,10.86,2.363,2.363,0,0,0,7.1,13.177h5.522a5.221,5.221,0,0,1,4.713,2.445l-1.114,2.021A12.621,12.621,0,1,0,24.849,32.9h8.3a2.368,2.368,0,0,0,2.366-2.475A14.936,14.936,0,0,1,41.059,18.1l1.233,2.051a12.624,12.624,0,1,0,8.283-3.027ZM12.622,37.631a7.888,7.888,0,1,1,0-15.777,7.336,7.336,0,0,1,1.233.1L9.763,29.387a2.369,2.369,0,0,0,2.071,3.51H19.85A7.91,7.91,0,0,1,12.622,37.631Zm45.742-7.454A7.889,7.889,0,0,1,42.6,29.742a7.824,7.824,0,0,1,2.179-5.433l4.871,8.125a1.584,1.584,0,0,0,2.169.542l1.351-.809A1.584,1.584,0,0,0,53.71,30l-4.792-7.977a7.552,7.552,0,0,1,1.568-.158,7.887,7.887,0,0,1,7.878,8.312Z" transform="translate(1090.002 4639.5)" fill="#fff"/>
  </g>
</svg>
