<svg id="Component_26_1" data-name="Component 26 – 1" xmlns="http://www.w3.org/2000/svg" width="278.123" height="78.049" viewBox="0 0 278.123 78.049">
  <path id="Path_510" data-name="Path 510" d="M-9.15-14.46H7.08v3.48H-9.15Zm15.03,0H9.66v.945a5.131,5.131,0,0,1-.03.615q-.12,3.39-.27,5.835T9.015-3A17.762,17.762,0,0,1,8.55-.42a4.039,4.039,0,0,1-.66,1.44A3.691,3.691,0,0,1,6.645,2.04a5.305,5.305,0,0,1-1.515.42A14.147,14.147,0,0,1,3.15,2.6Q1.92,2.61.57,2.55A7.023,7.023,0,0,0,.21.705,7.566,7.566,0,0,0-.6-1.08q1.26.09,2.34.12t1.62.03A2.638,2.638,0,0,0,4.05-1a1.262,1.262,0,0,0,.54-.345,3.7,3.7,0,0,0,.585-1.725Q5.4-4.41,5.58-7.035t.3-6.8ZM-5.79-25.11l3.9,1.14a34.672,34.672,0,0,1-2.655,5.04,36.558,36.558,0,0,1-3.33,4.47,27.185,27.185,0,0,1-3.705,3.54q-.33-.39-.9-.945t-1.155-1.1a12.285,12.285,0,0,0-1.035-.87,22.486,22.486,0,0,0,3.555-3.015,26.017,26.017,0,0,0,3.075-3.87A23.1,23.1,0,0,0-5.79-25.11Zm11.43-.06a25.643,25.643,0,0,0,1.74,2.94,33.818,33.818,0,0,0,2.235,2.925q1.215,1.425,2.49,2.685a25.289,25.289,0,0,0,2.5,2.19,10.226,10.226,0,0,0-1.065.945q-.585.585-1.11,1.185a13.778,13.778,0,0,0-.885,1.11Q10.29-12.36,9-13.815t-2.535-3.09Q5.22-18.54,4.11-20.3T2.1-23.76ZM-3.81-13.44H.12A43.48,43.48,0,0,1-.57-8.52,17.26,17.26,0,0,1-2.145-3.99,12.849,12.849,0,0,1-5.3-.105,17.588,17.588,0,0,1-10.71,2.88a6.874,6.874,0,0,0-.6-1.11q-.39-.6-.84-1.185a8.264,8.264,0,0,0-.9-1.005,14.716,14.716,0,0,0,4.8-2.385,10.165,10.165,0,0,0,2.67-3.12A12.3,12.3,0,0,0-4.335-9.54Q-3.99-11.46-3.81-13.44Z" transform="translate(263.513 70.024)" fill="#fff"/>
  <path id="Path_509" data-name="Path 509" d="M-1.886,1.1A50.311,50.311,0,0,1-15.18-.69,35.622,35.622,0,0,1-26.45-5.8L-20.562-17.2a30.262,30.262,0,0,0,8.51,4.232,31.623,31.623,0,0,0,9.8,1.564q5.612,0,8.832-2.208A7.059,7.059,0,0,0,9.8-19.78,7.777,7.777,0,0,0,8.51-24.2,8.107,8.107,0,0,0,3.956-27.14,32.341,32.341,0,0,0-5.2-28.152H-21.666L-18.354-64.4H20.93v11.96H-13.018l7.728-6.808L-7.59-33.4-15.318-40.2H-1.7q9.568,0,15.41,2.622a18.073,18.073,0,0,1,8.51,7.13A19.667,19.667,0,0,1,24.886-20.24,20.347,20.347,0,0,1,22.034-9.706a20.593,20.593,0,0,1-8.786,7.82Q7.314,1.1-1.886,1.1Z" transform="translate(208.512 71.001)" fill="#f2e724"/>
  <path id="Icon_map-bus-station" data-name="Icon map-bus-station" d="M62.846,39.038H12.832a2.709,2.709,0,0,1-2.657-2.677,3.481,3.481,0,0,1,.092-.722l2.662-18.586c.226-1.207,1.314-1.445,2.615-1.445h44.6c1.292,0,2.388.217,2.612,1.42l2.662,18.925a2.762,2.762,0,0,1,.094.587,2.566,2.566,0,0,1-2.663,2.5Zm-2,20.845a4.97,4.97,0,1,1,5.086-4.98A5.033,5.033,0,0,1,60.846,59.883Zm-46.08,0a4.97,4.97,0,1,1,5.1-4.98A5.029,5.029,0,0,1,14.765,59.883ZM23.544,4.674h31.24V9.36H23.544A2.343,2.343,0,0,1,23.544,4.674Zm44.051,7.17c-.912-4.394-3.577-6.164-7.924-7.932S45.276.038,37.713.038c-7.6,0-17.7,2.113-22.047,3.874S8.7,7.45,7.794,11.844L4.8,36.3V70.278H9.486V73.4c0,6.248,7.81,6.248,7.81,0V70.278h39.05V73.4c0,6.248,9.372,6.248,9.372,0V70.278H70.4V36.3Z" transform="translate(-4.8 -0.038)" fill="#fff"/>
</svg>
