<svg id="graph_shape04" xmlns="http://www.w3.org/2000/svg" width="381.94" height="106.446" viewBox="0 0 381.94 106.446">
  <path id="Path_464" data-name="Path 464" d="M-57.515,1.356a37.5,37.5,0,0,1-18.815-4.52A30.05,30.05,0,0,1-88.59-16.385q-4.294-8.7-4.294-21.47,0-13.673,5.142-23.165A35.133,35.133,0,0,1-73.5-75.484a43,43,0,0,1,20.962-4.972A52.635,52.635,0,0,1-40.452-79.1a31.3,31.3,0,0,1,9.944,4.068l-6.78,13.447a20.1,20.1,0,0,0-7.006-3.108,35.084,35.084,0,0,0-7.8-.848q-10.283,0-16.272,6.215t-5.989,18.419q0,2.034.056,4.52a24.941,24.941,0,0,0,.622,4.972l-5.085-4.746a23.42,23.42,0,0,1,5.537-7.4,22.59,22.59,0,0,1,8.079-4.52A33.28,33.28,0,0,1-54.8-49.607a30.4,30.4,0,0,1,13.786,3.051,24.819,24.819,0,0,1,9.774,8.588,22.963,22.963,0,0,1,3.673,13,24.314,24.314,0,0,1-4.012,13.956A26.5,26.5,0,0,1-42.316-1.865,34.748,34.748,0,0,1-57.515,1.356Zm-1.017-13.673A15.843,15.843,0,0,0-51.7-13.73a10.862,10.862,0,0,0,4.69-4.124,11.48,11.48,0,0,0,1.695-6.215,10.919,10.919,0,0,0-3.672-8.645q-3.673-3.22-9.775-3.22a15.728,15.728,0,0,0-7.119,1.526,12.1,12.1,0,0,0-4.8,4.181,10.928,10.928,0,0,0-1.752,6.158,10.993,10.993,0,0,0,1.695,6.046,11.681,11.681,0,0,0,4.746,4.181A16.553,16.553,0,0,0-58.532-12.317ZM-27.909,11.3,9.381-95.146H25.088L-12.2,11.3ZM31.141,0V-48l5.25,5.25H20.641V-52.5h22.65V0ZM75.916.9a24.889,24.889,0,0,1-12.488-3,19.945,19.945,0,0,1-8.137-8.775,32.021,32.021,0,0,1-2.85-14.25q0-9.075,3.413-15.375a23.318,23.318,0,0,1,9.45-9.6,28.541,28.541,0,0,1,13.913-3.3,34.935,34.935,0,0,1,8.025.9,20.775,20.775,0,0,1,6.6,2.7l-4.5,8.925a13.342,13.342,0,0,0-4.65-2.063,23.286,23.286,0,0,0-5.175-.562q-6.825,0-10.8,4.125T64.741-27.15q0,1.35.037,3a16.554,16.554,0,0,0,.413,3.3L61.816-24a15.544,15.544,0,0,1,3.675-4.912,14.993,14.993,0,0,1,5.363-3,22.089,22.089,0,0,1,6.862-1.012,20.18,20.18,0,0,1,9.15,2.025,16.473,16.473,0,0,1,6.487,5.7,15.241,15.241,0,0,1,2.438,8.625,16.138,16.138,0,0,1-2.662,9.263A17.59,17.59,0,0,1,86-1.237,23.063,23.063,0,0,1,75.916.9Zm-.675-9.075a10.515,10.515,0,0,0,4.537-.937,7.209,7.209,0,0,0,3.113-2.738,7.619,7.619,0,0,0,1.125-4.125,7.247,7.247,0,0,0-2.437-5.738,9.486,9.486,0,0,0-6.488-2.138,10.439,10.439,0,0,0-4.725,1.013,8.028,8.028,0,0,0-3.188,2.775,7.253,7.253,0,0,0-1.162,4.088,7.3,7.3,0,0,0,1.125,4.013,7.753,7.753,0,0,0,3.15,2.775A10.986,10.986,0,0,0,75.241-8.175Z" transform="translate(234 95.146)" fill="#f2e724"/>
  <path id="Path_463" data-name="Path 463" d="M-3.54-1.77H9.87V1.5H-3.54ZM-5.07-22.53H5.58v3.18H-5.07Zm.81-3.12,4.05.78a34.8,34.8,0,0,1-2.955,4.245,33.15,33.15,0,0,1-3.78,3.93A30.757,30.757,0,0,1-11.76-13.23a7.3,7.3,0,0,0-.72-.975q-.45-.525-.93-1.035a6.3,6.3,0,0,0-.9-.81,26.477,26.477,0,0,0,4.425-2.91A23.862,23.862,0,0,0-6.54-22.275,20.466,20.466,0,0,0-4.26-25.65Zm8.7,3.12H5.1l.6-.18,2.49,1.29a27.4,27.4,0,0,1-3.405,6.405,29.86,29.86,0,0,1-4.77,5.2A33.739,33.739,0,0,1-5.79-5.79a40.6,40.6,0,0,1-6.48,2.85,8.414,8.414,0,0,0-.57-1.11q-.36-.6-.75-1.17a6.732,6.732,0,0,0-.78-.96A31.525,31.525,0,0,0-8.325-8.565a31.551,31.551,0,0,0,5.43-3.555A26.768,26.768,0,0,0,1.5-16.635,20.447,20.447,0,0,0,4.44-21.93ZM-9-15.96l2.7-2.31q1.05.72,2.2,1.62t2.19,1.815A15.034,15.034,0,0,1-.21-13.11l-2.91,2.58a14.855,14.855,0,0,0-1.56-1.755q-.99-.975-2.13-1.935T-9-15.96ZM8.22-10.89h3.72V2.7H8.22Zm-10.23,0H10.02v3.24H-2.01V2.67H-5.64V-8.25l2.76-2.64Z" transform="translate(370 89.146)" fill="#fff"/>
  <g id="ranking_fill2" transform="translate(-2.268 18.146)">
    <path id="Path_209" data-name="Path 209" d="M42.825,54.777a7.775,7.775,0,0,1,6.985-4.03c3.081-.036,4.637-1.606,4.687-4.694a7.76,7.76,0,0,1,4.023-6.971c2.648-1.58,3.222-3.706,1.714-6.4a7.777,7.777,0,0,1,0-8.061c1.508-2.684.938-4.806-1.714-6.387A7.782,7.782,0,0,1,54.5,11.244c-.051-3.074-1.606-4.644-4.687-4.68a7.788,7.788,0,0,1-6.985-4.03Q40.454-1.439,36.435.82a7.777,7.777,0,0,1-8.061,0Q24.342-1.437,21.98,2.533A7.769,7.769,0,0,1,15,6.564c-3.074.036-4.637,1.606-4.68,4.68a7.814,7.814,0,0,1-4.03,6.993c-2.648,1.58-3.229,3.7-1.714,6.387a7.746,7.746,0,0,1,0,8.061q-2.273,4.038,1.714,6.4a7.773,7.773,0,0,1,4.03,6.971c.043,3.085,1.606,4.658,4.68,4.694a7.775,7.775,0,0,1,6.985,4.03q2.371,3.973,6.39,1.707a7.842,7.842,0,0,1,8.061,0Q40.462,58.751,42.825,54.777ZM32.412,45.514A16.861,16.861,0,1,1,49.269,28.65,16.862,16.862,0,0,1,32.412,45.514Z" transform="translate(3.867 0)" fill="#fff"/>
    <path id="Path_210" data-name="Path 210" d="M18.6,15.839c-3.24,0-3.673-1.508-3.673-1.508L2.268,39.2l10.146-1.14,5.611,8.443S29.716,22.114,29.716,22.276C23.657,22.125,26.068,16,18.6,15.839Z" transform="translate(0 37.379)" fill="#fff"/>
    <path id="Path_211" data-name="Path 211" d="M28.369,14.6c-9.244.967-7.364,3.262-9.479,5.044a6.507,6.507,0,0,1-5.47,2.086L27.69,46.285,31.2,37.192l9.98,1.3Z" transform="translate(29.087 38.083)" fill="#fff"/>
    <path id="Path_212" data-name="Path 212" d="M23.484,12.073,19.955,4.929l-3.532,7.144-7.9,1.155L14.232,18.8l-1.346,7.873,7.068-3.713,7.068,3.713L25.677,18.8l5.708-5.567Z" transform="translate(16.317 12.856)" fill="#fff"/>
  </g>
</svg>
