<svg xmlns="http://www.w3.org/2000/svg" width="90" height="146" viewBox="0 0 90 146">
  <g id="Group_631" data-name="Group 631" transform="translate(-503 -4618)">
    <rect id="Rectangle_1992" data-name="Rectangle 1992" width="90" height="146" transform="translate(503 4618)" fill="none"/>
    <path id="Icon_awesome-ship" data-name="Icon awesome-ship" d="M58.2,43.669l8.2-8.2a3.752,3.752,0,0,0-1.5-6.222L60,27.668V11.25A3.75,3.75,0,0,0,56.25,7.5h-7.5V2.813A2.812,2.812,0,0,0,45.938,0H29.063A2.812,2.812,0,0,0,26.25,2.813V7.5h-7.5A3.75,3.75,0,0,0,15,11.25V27.668l-4.9,1.574a3.752,3.752,0,0,0-1.5,6.222l8.2,8.2C14.745,48.784,10.03,52.5,2.813,52.5A2.812,2.812,0,0,0,0,55.313v1.875A2.812,2.812,0,0,0,2.813,60c7.151,0,12.6-2.415,16.788-6.96A11.267,11.267,0,0,0,30,60H45a11.267,11.267,0,0,0,10.4-6.96C59.589,57.584,65.035,60,72.188,60A2.812,2.812,0,0,0,75,57.188V55.313A2.812,2.812,0,0,0,72.188,52.5C65.061,52.5,60.288,48.867,58.2,43.669ZM22.5,15h30V25.258L38.647,20.8a3.749,3.749,0,0,0-2.295,0L22.5,25.258Z" transform="translate(509 4633)" fill="#fff"/>
    <path id="Path_482" data-name="Path 482" d="M-22.68-.84H-15.1V.792H-22.68Zm-.744-7.824h9.312V1.776h-1.752v-8.76H-21.72V1.9h-1.7ZM-30.24-7.32h1.176v5.376H-30.24Zm3-9.6h1.632V-.072A2.983,2.983,0,0,1-25.764,1a1.143,1.143,0,0,1-.612.612,2.945,2.945,0,0,1-1.1.264q-.672.048-1.728.048-.072-.312-.216-.8a5.033,5.033,0,0,0-.312-.828q.744.024,1.332.024h.78a.339.339,0,0,0,.384-.384Zm-6.168,0h1.56v8.712q0,1.176-.072,2.52t-.264,2.712a17,17,0,0,1-.588,2.652A8.757,8.757,0,0,1-33.84,1.968a1.757,1.757,0,0,0-.372-.312q-.252-.168-.516-.324t-.456-.252a9.915,9.915,0,0,0,1.2-2.916,18.434,18.434,0,0,0,.48-3.252q.1-1.656.1-3.12Zm-1.728,7.656q1.32-.1,3.036-.24t3.648-.324q1.932-.18,3.9-.348V-8.64q-1.872.168-3.756.36t-3.588.36q-1.7.168-3.072.312Zm4.272-4.68,1.128-.456a9.159,9.159,0,0,1,.876,1.644,9.353,9.353,0,0,1,.516,1.572l-1.248.5a7.215,7.215,0,0,0-.456-1.584A11.7,11.7,0,0,0-30.864-13.944Zm.552-6.24,1.92.384q-.336.984-.732,1.968t-.732,1.68l-1.44-.36q.264-.768.552-1.824T-30.312-20.184Zm8.52.288,1.728.408a38.8,38.8,0,0,1-1.188,5.556,15.269,15.269,0,0,1-2.1,4.524,3.242,3.242,0,0,0-.372-.36q-.228-.192-.48-.384a3.951,3.951,0,0,0-.468-.312A12.6,12.6,0,0,0-23.3-13.128a22.115,22.115,0,0,0,.948-3.252A34.588,34.588,0,0,0-21.792-19.9Zm5.352-.048a32.93,32.93,0,0,0,.864,3.5,20.415,20.415,0,0,0,1.248,3.168A10.223,10.223,0,0,0-12.744-10.9a3.554,3.554,0,0,0-.468.384,5.9,5.9,0,0,0-.48.516q-.228.276-.4.516a12.449,12.449,0,0,1-1.656-2.712,24.745,24.745,0,0,1-1.3-3.516q-.552-1.908-.912-3.852ZM-32.664-16.92h6.12v1.56h-6.12ZM1.008-9.84l1.416-.768A18.363,18.363,0,0,1,3.756-8.772q.636,1,1.128,1.968A9.529,9.529,0,0,1,5.592-5.04L4.056-4.2a10.866,10.866,0,0,0-.684-1.776q-.468-.984-1.08-2A16.852,16.852,0,0,0,1.008-9.84Zm8.016-6.1H10.8l-.012.18q-.012.18-.012.408V-15q-.168,4.08-.36,6.9t-.4,4.644A18.632,18.632,0,0,1,9.528-.612,3.784,3.784,0,0,1,8.856.84a2.054,2.054,0,0,1-.84.72,3.955,3.955,0,0,1-1.08.264,11.11,11.11,0,0,1-1.548.048Q4.44,1.848,3.408,1.8A4.458,4.458,0,0,0,3.24.876a3,3,0,0,0-.408-.9Q3.96.072,4.908.1T6.264.12A2.021,2.021,0,0,0,6.84.048a.882.882,0,0,0,.432-.312A2.983,2.983,0,0,0,7.86-1.572,21.271,21.271,0,0,0,8.316-4.32Q8.52-6.1,8.7-8.868t.324-6.66Zm-6.7-4.272,1.8.36a29.49,29.49,0,0,1-1.788,5.22,17.8,17.8,0,0,1-2.532,4.14,2.413,2.413,0,0,0-.432-.372q-.288-.2-.588-.42a4.041,4.041,0,0,0-.54-.336A13.526,13.526,0,0,0,.72-15.408,25.253,25.253,0,0,0,2.328-20.208Zm-11.592,6.1H-1.9v1.56H-9.264ZM-10.656-9.96H-1.08v1.608h-9.576Zm.624,3.216,1.3-.336a19.979,19.979,0,0,1,.672,2.292A18.215,18.215,0,0,1-7.68-2.664l-1.368.36A19.355,19.355,0,0,0-9.42-4.452Q-9.7-5.688-10.032-6.744Zm-.912,6.336Q-9.672-.624-7.992-.9T-4.4-1.512Q-2.5-1.848-.6-2.16L-.5-.552Q-2.3-.24-4.116.1T-7.584.732q-1.656.3-3.024.54Zm8.232-6.864,1.488.408q-.336,1.08-.732,2.244t-.732,1.98L-3.96-3a14,14,0,0,0,.468-1.332q.228-.756.444-1.536T-2.712-7.272Zm-3.768-6.12h1.608V-.768L-6.48-.456Zm8.688-2.544h7.44v1.728H1.44ZM-6.576-20.16h.96v.384h.552v.5q-.5.936-1.248,2.088a23.524,23.524,0,0,1-1.74,2.34,18.092,18.092,0,0,1-2.292,2.268,1.631,1.631,0,0,0-.312-.408l-.432-.432a1.631,1.631,0,0,0-.408-.312,16.76,16.76,0,0,0,2.124-2.064,18.67,18.67,0,0,0,1.656-2.232A15.661,15.661,0,0,0-6.576-20.16Zm.288,0h1.344q.792.7,1.644,1.524t1.6,1.644A13.594,13.594,0,0,1-.5-15.5l-1.248,1.3A18.35,18.35,0,0,0-2.88-15.7q-.7-.84-1.488-1.692a17.949,17.949,0,0,0-1.56-1.5h-.36Zm26.424,1.224q-.192.672-.372,1.548t-.336,1.824q-.156.948-.264,1.812t-.156,1.488a11.994,11.994,0,0,1,1.008-1.872A9.41,9.41,0,0,1,21.5-15.9a7.883,7.883,0,0,1,1.884-1.308,4.787,4.787,0,0,1,2.148-.5A4.371,4.371,0,0,1,28.38-16.7a6.571,6.571,0,0,1,1.932,2.856,12.386,12.386,0,0,1,.7,4.368,11.5,11.5,0,0,1-.744,4.332A8.726,8.726,0,0,1,28.176-2.04a10.714,10.714,0,0,1-3.2,2.064A18.362,18.362,0,0,1,20.88,1.2L19.752-.528A19.977,19.977,0,0,0,23.388-1.4a9.869,9.869,0,0,0,2.964-1.608,6.867,6.867,0,0,0,1.98-2.6,9.378,9.378,0,0,0,.708-3.84,12.018,12.018,0,0,0-.432-3.372,5.318,5.318,0,0,0-1.272-2.316,2.864,2.864,0,0,0-2.112-.84,3.719,3.719,0,0,0-2.16.72A8.284,8.284,0,0,0,21.18-13.4a10.871,10.871,0,0,0-1.38,2.448,9.143,9.143,0,0,0-.648,2.484A8.845,8.845,0,0,0,19.068-7.1,14.328,14.328,0,0,0,19.2-5.52l-1.848.144q-.1-.672-.18-1.656t-.084-2.16q0-.84.084-1.884t.192-2.112q.108-1.068.24-2.052t.228-1.7q.072-.552.12-1.068t.072-1Z" transform="translate(547 4756.898)" fill="#fff"/>
  </g>
</svg>
