<svg xmlns="http://www.w3.org/2000/svg" width="157" height="146" viewBox="0 0 157 146">
  <g id="Group_633" data-name="Group 633" transform="translate(-855 -4619)">
    <rect id="Rectangle_1991" data-name="Rectangle 1991" width="157" height="146" transform="translate(855 4619)" fill="none"/>
    <g id="family" transform="translate(883.004 4505.27)">
      <g id="Group_549" data-name="Group 549" transform="translate(9.996 126.732)">
        <path id="Path_192" data-name="Path 192" d="M158.376-384.043a6.713,6.713,0,0,0-5.006,6.509,6.709,6.709,0,0,0,8.446,6.493,6.761,6.761,0,0,0,4.9-7.579A6.75,6.75,0,0,0,158.376-384.043Z" transform="translate(-141.766 384.268)" fill="#fff"/>
        <path id="Path_193" data-name="Path 193" d="M685.737-383.7a7.305,7.305,0,0,0-4.479,3.6,6.727,6.727,0,0,0,6.463,9.686,6.762,6.762,0,0,0,5.827-4.247,8.007,8.007,0,0,0,0-4.9,7.018,7.018,0,0,0-3.89-3.844A8.709,8.709,0,0,0,685.737-383.7Z" transform="translate(-626.29 383.843)" fill="#fff"/>
        <path id="Path_194" data-name="Path 194" d="M22.886-203.54a7.176,7.176,0,0,0-5.3,3.471c-1.348,1.953-7.454,14.46-7.579,15.514a2.826,2.826,0,0,0,1.255,2.526,2.764,2.764,0,0,0,3.068-.046c.589-.418.945-1.038,3.921-6.788l3.271-6.308L21.6-177.55c.078,17.42.078,17.637.388,18.179a4.349,4.349,0,0,0,.991,1.008,2.194,2.194,0,0,0,1.643.465,2.2,2.2,0,0,0,1.643-.465,4.232,4.232,0,0,0,1.023-1.147l.356-.681V-178.6l.666.047.651.046.078,9.3c.093,10.259.031,9.795,1.069,10.663a3.031,3.031,0,0,0,4.525-.775l.372-.589.046-17.667.046-17.668,2.48,5.021,2.464,5.037.589-.991a9.545,9.545,0,0,1,2.883-3.131,6.587,6.587,0,0,0,.682-.356c.078-.062-3.239-7.129-4-8.509-1.628-2.929-3.131-4.448-5.114-5.114-.759-.263-1.457-.295-5.967-.341C26.311-203.649,23.49-203.618,22.886-203.54Z" transform="translate(-9.996 218.256)" fill="#fff"/>
        <path id="Path_195" data-name="Path 195" d="M577.348-203.9c-2.5.295-4.231,1.689-6.075,4.882-.682,1.162-4.293,8.663-4.293,8.9a2.05,2.05,0,0,0,.713.449,7.985,7.985,0,0,1,2.805,2.7,7.248,7.248,0,0,0,.6.9c.015,0,1.131-2.092,2.465-4.65,1.348-2.573,2.464-4.65,2.48-4.618.031.031-.6,3.254-1.395,7.176l-1.442,7.113.93,1.86a9.166,9.166,0,0,1,1.008,2.634,3.476,3.476,0,0,1-1.581,3.456l-.62.356h3.177v12.027l.4.806a2.975,2.975,0,0,0,3.425,1.6,3.064,3.064,0,0,0,1.906-1.581c.295-.558.31-.945.31-6.727v-6.122h1.38l.046,6.23.046,6.246.372.589a3.007,3.007,0,0,0,5.285-.217c.294-.558.31-.945.31-6.727v-6.122h2.324c2.108,0,2.324-.031,2.324-.264,0-.155-1.008-5.192-2.248-11.189s-2.232-10.926-2.2-10.957,1.488,2.712,3.239,6.107c2.9,5.61,3.239,6.2,3.828,6.617a2.745,2.745,0,0,0,4.03-1.038,2.575,2.575,0,0,0,.031-2.4c-.744-1.86-6.571-13.483-7.315-14.537A7.047,7.047,0,0,0,588.2-203.9C586.678-204.075,578.852-204.075,577.348-203.9Z" transform="translate(-521.9 218.62)" fill="#fff"/>
        <path id="Path_196" data-name="Path 196" d="M448.189-134.886a4.469,4.469,0,0,0-3.007,5.114,4.5,4.5,0,0,0,7.5,2.371,4.488,4.488,0,0,0-1.845-7.563A3.9,3.9,0,0,0,448.189-134.886Z" transform="translate(-409.881 155.321)" fill="#fff"/>
        <path id="Path_197" data-name="Path 197" d="M358.057-14.167a5.171,5.171,0,0,0-2.479,1.6C354.57-11.455,350.03-2.311,350.03-1.4a1.829,1.829,0,0,0,3.007,1.379,30.344,30.344,0,0,0,2.541-4.448L357.67-8.5V2.942c0,9.329.046,11.531.217,11.933a1.981,1.981,0,0,0,3.658.2c.295-.62.31-.93.31-6.649v-6h.775V8.49c0,5.347.031,6.122.264,6.6a2.042,2.042,0,0,0,3.658-.031c.139-.217.2-3.518.263-11.856l.078-11.546.681,1.318C370.643-1.057,371.185-.1,371.6.152a1.961,1.961,0,0,0,2.557-.573c.527-.821.372-1.333-1.906-6.014-2.758-5.687-3.348-6.556-5.037-7.454-.6-.325-.837-.341-4.665-.372C360.336-14.275,358.321-14.229,358.057-14.167Z" transform="translate(-322.509 44.21)" fill="#fff"/>
      </g>
    </g>
    <path id="Path_484" data-name="Path 484" d="M-60.816-20.16h1.824v3.192h-1.824Zm-8.976,2.136h19.968v4.776h-1.824v-3.12H-68.016v3.12h-1.776Zm3.072,4.08h13.536v1.584H-66.72Zm3.168,3.576,1.344-.84a11.131,11.131,0,0,1,2.58,2.628,11.087,11.087,0,0,1,1.464,2.94A9.476,9.476,0,0,1-57.7-2.8,6.561,6.561,0,0,1-58.1-.4a3.434,3.434,0,0,1-1.128,1.572,3.663,3.663,0,0,1-1.176.624,5.124,5.124,0,0,1-1.416.168q-.432.024-.972,0l-1.116-.048a4.852,4.852,0,0,0-.144-.864,2.983,2.983,0,0,0-.36-.864q.672.048,1.26.084t1,.036a4.229,4.229,0,0,0,.876-.084,1.69,1.69,0,0,0,.756-.4,2.168,2.168,0,0,0,.792-1.176,5.6,5.6,0,0,0,.228-1.908,7.986,7.986,0,0,0-.468-2.34,9.728,9.728,0,0,0-1.308-2.472A11.19,11.19,0,0,0-63.552-10.368Zm3.576-3.216,1.512.624a15.48,15.48,0,0,1-2.988,2.208,29.3,29.3,0,0,1-3.7,1.8q-1.956.792-3.828,1.344-.1-.168-.264-.444T-69.6-8.6q-.192-.276-.336-.444,1.848-.456,3.732-1.116A24.662,24.662,0,0,0-62.688-11.7,12.89,12.89,0,0,0-59.976-13.584Zm-1.68,4.56,1.2.84A18.86,18.86,0,0,1-62.88-6.516q-1.44.852-3,1.584T-68.832-3.7a5.962,5.962,0,0,0-.408-.72,5.255,5.255,0,0,0-.528-.7Q-68.76-5.4-67.62-5.82a23.942,23.942,0,0,0,2.244-.96q1.1-.54,2.076-1.116A13.218,13.218,0,0,0-61.656-9.024Zm1.776,2.472,1.248.936a18.329,18.329,0,0,1-2.232,1.872q-1.3.936-2.784,1.8a32.961,32.961,0,0,1-3.036,1.56A31.93,31.93,0,0,1-69.672.792q-.168-.312-.42-.756a3.407,3.407,0,0,0-.54-.732,23.3,23.3,0,0,0,2.964-1.02q1.524-.636,2.988-1.416a24.963,24.963,0,0,0,2.7-1.656A15.129,15.129,0,0,0-59.88-6.552Zm2.208-6.792A23.189,23.189,0,0,0-55.836-8.3,16.182,16.182,0,0,0-52.92-4.2a11.943,11.943,0,0,0,4.008,2.688,4.657,4.657,0,0,0-.432.444q-.24.276-.456.564a6.271,6.271,0,0,0-.36.528,12.78,12.78,0,0,1-4.116-3A17.639,17.639,0,0,1-57.24-7.452a30.078,30.078,0,0,1-1.944-5.556Zm6.144,1.776,1.392,1.2q-.816.648-1.788,1.344T-53.88-7.716q-.984.612-1.824,1.068l-1.152-1.1q.84-.48,1.812-1.128t1.908-1.368Q-52.2-10.968-51.528-11.568Zm16.536-5.424h9.912v1.632h-9.912Zm.672-3.216,1.632.384a22.866,22.866,0,0,1-1.668,4.272A17.352,17.352,0,0,1-36.624-12.1a2.083,2.083,0,0,0-.408-.348q-.264-.18-.54-.372a3.076,3.076,0,0,0-.492-.288,13.832,13.832,0,0,0,2.2-3.18A20.957,20.957,0,0,0-34.32-20.208Zm.1,8.04h8.76v1.584h-8.76Zm-2.64,5.136h11.808v1.656H-36.864Zm2.9-7.776,1.656.36A24.306,24.306,0,0,1-33.588-10.8,14.874,14.874,0,0,1-35.28-7.848q-.168-.12-.432-.3T-36.24-8.5a3.742,3.742,0,0,0-.48-.264,11.346,11.346,0,0,0,1.656-2.748A19.735,19.735,0,0,0-33.96-14.808Zm-12.864-1.344h9.84v1.7h-9.84Zm3.456,5.088H-38.9v1.632h-4.464Zm.912-9.048h1.728v4.464h-1.728Zm-1.656,4.944h1.7q-.048,2.448-.18,4.9t-.468,4.68A22.847,22.847,0,0,1-44.064-1.44a11.981,11.981,0,0,1-1.8,3.384,3.034,3.034,0,0,0-.588-.66,4.067,4.067,0,0,0-.756-.54A9.726,9.726,0,0,0-45.552-2.34a21.959,21.959,0,0,0,.9-3.9q.3-2.112.408-4.38T-44.112-15.168Zm4.7,4.1h1.7s0,.048,0,.144,0,.212,0,.348a1.727,1.727,0,0,1-.024.324q-.12,2.928-.24,4.968t-.264,3.336A16.127,16.127,0,0,1-38.556.072,2.617,2.617,0,0,1-39,1.1a1.848,1.848,0,0,1-.636.564,2.858,2.858,0,0,1-.828.228,8.729,8.729,0,0,1-1.032.048q-.648,0-1.368-.048a4.864,4.864,0,0,0-.144-.84A3.218,3.218,0,0,0-43.32.24q.672.048,1.248.06t.84.012A1.026,1.026,0,0,0-40.8.276.664.664,0,0,0-40.488,0a3.356,3.356,0,0,0,.456-1.4q.192-1.092.348-3.336t.276-5.988ZM-29.856-6A11.579,11.579,0,0,0-27.84-2.028,7.955,7.955,0,0,0-24.48.5a5.107,5.107,0,0,0-.636.66,6.678,6.678,0,0,0-.54.732A8.887,8.887,0,0,1-29.124-1.08a14.391,14.391,0,0,1-2.1-4.536Zm-1.872-5.3h1.7v3.456a14.967,14.967,0,0,1-.2,2.388A8.9,8.9,0,0,1-31.08-2.9,9.677,9.677,0,0,1-33-.36a12.754,12.754,0,0,1-3.408,2.28,8.086,8.086,0,0,0-.528-.636A4.538,4.538,0,0,0-37.56.7a12.179,12.179,0,0,0,3.216-2.028A7.856,7.856,0,0,0-32.6-3.564a7.393,7.393,0,0,0,.72-2.256,14.908,14.908,0,0,0,.156-2.052Zm27.384-3.024q-.408.264-.864.5t-.984.5q-.6.336-1.488.768t-1.9.96q-1.008.528-2.016,1.1t-1.9,1.152a10.635,10.635,0,0,0-2.628,2.28,4.069,4.069,0,0,0-.948,2.568,2.668,2.668,0,0,0,1.428,2.364,8.281,8.281,0,0,0,4.26.876q1.32,0,2.736-.108t2.724-.3q1.308-.192,2.22-.408V.072q-.888.168-2.1.3T-8.4.588q-1.392.084-2.88.084A16.343,16.343,0,0,1-14.4.4a8.394,8.394,0,0,1-2.46-.852A4.253,4.253,0,0,1-18.48-1.98a4.333,4.333,0,0,1-.576-2.292A5.418,5.418,0,0,1-18.5-6.708,7.857,7.857,0,0,1-16.92-8.832a16.561,16.561,0,0,1,2.448-1.944q.912-.624,1.956-1.212t2.052-1.14q1.008-.552,1.884-1.008L-7.1-14.9l.912-.564a7.535,7.535,0,0,0,.792-.564Zm-12.144-4.344q.552,1.536,1.188,3t1.3,2.736q.66,1.272,1.212,2.256l-1.656.984q-.6-.984-1.272-2.328t-1.344-2.856q-.672-1.512-1.32-3Zm29.9,2.28q-.24,1.872-.612,3.912a36.654,36.654,0,0,1-.948,3.96,22.185,22.185,0,0,1-1.6,4.128A8.2,8.2,0,0,1,8.376-1.9a3.26,3.26,0,0,1-2.112.84,3.279,3.279,0,0,1-2.04-.768,5.489,5.489,0,0,1-1.608-2.22,8.615,8.615,0,0,1-.624-3.42,8.814,8.814,0,0,1,.8-3.72,10.014,10.014,0,0,1,2.232-3.108A10.776,10.776,0,0,1,8.376-16.44a10.655,10.655,0,0,1,4.1-.792,9.917,9.917,0,0,1,3.8.7,8.639,8.639,0,0,1,2.892,1.908,8.489,8.489,0,0,1,1.848,2.808,9,9,0,0,1,.648,3.42A8.982,8.982,0,0,1,20.6-3.96,8.323,8.323,0,0,1,17.532-.84,12.657,12.657,0,0,1,12.672.744L11.544-1.032q.576-.072,1.1-.144t.96-.168a9.5,9.5,0,0,0,2.244-.828,7.682,7.682,0,0,0,1.956-1.44A6.643,6.643,0,0,0,19.188-5.7,7.02,7.02,0,0,0,19.7-8.472a7.589,7.589,0,0,0-.48-2.724,6.42,6.42,0,0,0-1.416-2.22,6.685,6.685,0,0,0-2.28-1.512,8.03,8.03,0,0,0-3.072-.552,8.571,8.571,0,0,0-3.564.72A8.615,8.615,0,0,0,6.18-12.876a8.649,8.649,0,0,0-1.716,2.544,6.743,6.743,0,0,0-.6,2.7,6.647,6.647,0,0,0,.4,2.484A3.486,3.486,0,0,0,5.22-3.72a1.783,1.783,0,0,0,1.116.456,1.753,1.753,0,0,0,1.176-.564A6.487,6.487,0,0,0,8.736-5.652,21.125,21.125,0,0,0,9.96-8.928a35.224,35.224,0,0,0,.9-3.672q.372-1.944.54-3.816ZM33.984-17.3H46.008V-15.7H33.984Zm-1.008,4.656h14.04v1.632H32.976ZM33.1-8.3h13.68V-6.7H33.1Zm5.928-11.88H40.8v8.544H39.024Zm3.168,8.9h1.776V-.216A2.647,2.647,0,0,1,43.752.972a1.288,1.288,0,0,1-.768.612,5.15,5.15,0,0,1-1.512.264q-.936.048-2.4.048a4.142,4.142,0,0,0-.228-.852,6.755,6.755,0,0,0-.372-.852q1.1.024,2.016.036t1.2-.012a.609.609,0,0,0,.4-.1.472.472,0,0,0,.108-.36ZM34.56-5.016,36-5.856q.6.6,1.224,1.344t1.14,1.464a7.516,7.516,0,0,1,.78,1.32l-1.536.936a8.778,8.778,0,0,0-.756-1.332q-.492-.732-1.092-1.488T34.56-5.016ZM26.568-18.6h6V-2.808h-6V-4.44h4.3v-12.5h-4.3Zm.072,6.984h5.016v1.632H26.64ZM25.7-18.6h1.68V-.84H25.7ZM56.232-5.448H63.5v1.392H56.232Zm-.1-3.624H64.32v8.76H56.136V-1.728h6.5V-7.656h-6.5Zm-.768,0H57V.912H55.368Zm-4.44-6.648H57.6v1.32H50.928Zm11.064,0h6.816v1.32H61.992Zm6.048-3.408h1.824V-.456a3.131,3.131,0,0,1-.228,1.32,1.465,1.465,0,0,1-.828.72,4.794,4.794,0,0,1-1.572.288q-1,.048-2.484.048-.048-.264-.144-.6T64.38.648q-.132-.336-.252-.576.72.024,1.4.024h1.956a.684.684,0,0,0,.432-.144.606.606,0,0,0,.12-.432Zm-16.968,0h7.68V-10.9h-7.68v-1.368h6v-5.472h-6Zm17.88,0v1.392H62.64v5.5h6.312v1.392H60.936v-8.28Zm-18.912,0h1.8V1.944h-1.8Z" transform="translate(933 4756.898)" fill="#fff"/>
  </g>
</svg>
