<svg id="Component_14_1" data-name="Component 14 – 1" xmlns="http://www.w3.org/2000/svg" width="192.576" height="452.035" viewBox="0 0 192.576 452.035">
  <g id="Layer_1" data-name="Layer 1" transform="translate(0.02)">
    <path id="Path_457" data-name="Path 457" d="M78.987,66.892c-2.551-5.484-.574-10.9-1.658-16.643-1.4-.574-3.188-1.212-5.42-2.1-.319-.638-1.02-1.913-1.913-3.7-.7-2.423,1.53-5.994-1.467-8.672,3.316-3.061,3.443-7.078,2.933-10.968C70.187,14.986,75.1,5.548,87.213,1.339a20.51,20.51,0,0,1,14.6,0c3.571,2.423,6.44,4.272,9.182,6.249,1.722,1.275,4.464,2.614,4.655,4.209.446,3.125,3.826,6.122.956,9.693A5.012,5.012,0,0,0,115.972,25c1.084,6.823-1.339,13.327-1.849,20.023-.446,5.229-3.316,10.266-5.739,15.113v6.887c.638.574,1.722,2.1,3,2.359,4.017.7,7.333,3.252,11.351,4.145A79.911,79.911,0,0,1,139.948,79.9c4.91,2.423,6.5,7.907,7.971,12.626a68.043,68.043,0,0,1,3.061,17.791c.128,6.7,2.232,12.881,3.7,19.194.255,1.148,1.148,2.3,1.02,3.38-.7,7.716,0,12.562,4.081,20.023,2.742,5.1,4.527,10.266,3.635,16.069a16.3,16.3,0,0,1-1.212,3.188c2.933,1.913,5.484-1.212,8.162-.829,3.252.446,5.611-1.594,8.545-1.785,2.806-.191,5.548-1.148,8.226-1.785,1.02,2.232,1.785,3.954,2.487,5.484-6.951,2.614-13.519,5.038-20.533,7.652.765,1.594,1.4,2.806,2.041,4.209-.446.765-.957,1.53-1.4,2.232.446.574.956,1.148,1.658,2.1-2.806,3.635-5.675,7.333-8.29,10.777h-5.356c-5.1-2.806-9.246-5.165-13.646-7.588H138.1c-1.594,1.722-3.316,3.571-4.783,5.1.383,3.252.829,6.313,1.02,9.438.191,3.061,0,6.122,0,9.756,6.377-.319,12.435.957,17.663,4.591.893,3.635,1.722,7.078,2.933,11.988,1.4-4.591.383-7.971.893-11.223a39.668,39.668,0,0,1,2.742-9.82l.574,9.182h.829c.319-1.53.638-3.061,1.084-5.356,2.742,6.759-2.041,12.371-.51,18.046,2.614,3.061,5.165,6.058,7.461,8.736a66.539,66.539,0,0,0-2.933,7.716c-1.212,4.91-1.785,9.948-3.252,14.73-.829,2.678-2.87,4.974-4.336,7.461-.765,2.742.893,5.739-1.148,8.609-1.658,2.359-.574,5.548-1.658,8.417-1.148,3.125-.829,7.142-1.785,10.713a61.157,61.157,0,0,0-1.339,6.249c-.574,3.954-1.212,8.29,1.084,12.371,1.977,3.443,1.977,7.588,1.594,11.223,2.678,3.7,4.719,7.078,1.658,11.478a3.99,3.99,0,0,0,0,3.7c2.423,2.933,1.148,6.249,1.4,9.374.574,6.887,1.02,13.837,1.594,20.788a5.51,5.51,0,0,0,.446,1.339c.829,2.168,2.041,4.336,2.487,6.568.446,2.168.064,4.527.064,7.142,3.061,1.785,6.185,3.571,9.182,5.293,0,1.4.446,2.806-.064,3.316-2.806,3.061-1.275,5.867.064,8.736a56.4,56.4,0,0,1,3.252,7.843c3.635,3.7,6.44,8.864,12.817,8.8,2.678,2.551,5.293,5.165,5.42,10.075a37.018,37.018,0,0,1-24.678,6.5c-5.994-1.212-8.927-6.058-12.371-10.2-4.783-.191-9.182-1.977-13.9-2.1-2.614-.064-5.1-3.188-7.588-4.91,1.4-3.061,2.423-4.846.574-7.907a32.019,32.019,0,0,1-4.846-17.855,4.99,4.99,0,0,0-.319-2.168c-3.061-5.739-4.591-11.861-6.185-18.11-1.4-5.484-2.742-11.1-4.017-16.579-2.3-9.756-4.4-19.513-7.588-29.014-.957-2.933-1.02-6.185-1.53-9.246-1.467-8.29-3.443-16.516-4.91-24.805a40.831,40.831,0,0,0-3.061-9.437,32.052,32.052,0,0,1-3-16.324c.319-2.806-1.02-4.974-3.252-7.652-1.084,2.168-2.87,3.954-2.742,5.675.319,4.591-1.148,8.8-2.232,12.945-1.084,4.017-1.977,8.226-3.7,12.179-1.339,3.061-1.849,6.823-2.933,10.2a16.564,16.564,0,0,0-.064,8.1c1.084,5.42,1.275,5.356-.191,11.924a26.677,26.677,0,0,0-.128,4.527c-.128,3.252.765,7.078-.7,9.629-1.722,3,.893,6.632-2.232,9.119-.765.574-.128,2.933-.128,4.464,0,13.774-.128,27.547,0,41.257,0,5.484-1.594,10.458-2.87,15.623-.893,3.571-3.061,6.058-4.974,8.672a12.863,12.863,0,0,0-2.87,9.629c-1.594.957-3,1.849-4.591,2.806v9.182c-1.275.957-2.742,2.041-5.038,3.762-6.313,1.148-14.029,3.188-20.788.446-5.739-4.464-1.913-8.991-1.913-13.327,0-5.038,3.38-7.907,6.249-10.84-.957-6.058-5.93-10.522-4.719-15.75,1.849-4.336,3.762-7.4,7.588-8.481,0-.255.191-.574.128-.7-.765-1.275-1.53-2.487-2.87-4.527.574-1.594-1.275-4.209.829-6.823.765-.956.446-2.87.51-4.336,0-6.122-.191-12.243.064-18.365a63.282,63.282,0,0,1,2.742-15.687,14.914,14.914,0,0,0,.255-4.464c0-5.1.128-10.2,0-15.3-.255-11.287,2.614-22.446,1.53-33.8,2.678-5.675,1.084-11.669,1.658-17.6h-3v11.1L46.4,288.8c-3.826.893-7.78-.51-10.9-3.125-3.571-3.061-7.461-4.017-11.988-4.464-6.823-.7-13.2-3.125-17.855-8.417-1.849-2.1-2.933-4.91-4.145-7.014-.51-3.188-.957-5.994-1.53-9.5,2.359-2.87.51-7.014,1.02-10.011,1.275-2.678,2.232-4.527,3.125-6.5a31.764,31.764,0,0,1,13.008-15.177c3.38-1.977,6.249-4.783,9.82-7.525A10.177,10.177,0,0,0,33.2,215.15c3.38-2.423,7.716-3.38,12.116-5.165,0-.574.191-1.785.255-3,1.913-.893,3.826-1.785,5.484-2.551.7-4.719,1.4-9.31,2.232-14.6-6.632-1.785-13.2-3.571-20.023-5.42-4.591-6.7-7.652-14.22-5.994-22.446a105.962,105.962,0,0,0,1.4-15.432c0-.829.957-1.594,1.658-2.742-3.7-4.591-1.467-8.864,1.339-13.455-.383-4.209,1.084-9.055-1.913-13.646,3.571-6.951,7.716-13.646,10.522-20.852,2.1-5.548,6.122-8.1,10.84-10.585,6.951-3.635,14.092-7.014,20.278-11.924,2.678-2.1,5.229-4.464,7.461-6.377Zm60.961,87.743h-.829v18.174a31.075,31.075,0,0,0-4.655,11.924c5.675-1.339,6.568-7.014,10.266-9.438-.956-1.849-1.722-3.316-2.87-5.42a62.072,62.072,0,0,0-.064-7.652A65.694,65.694,0,0,0,139.949,154.635Zm-85.193,5.1c-.383-3.762.446-7.588-.893-12.881-1.467,6.44-2.551,11.287-3.7,16.324,1.722,1.084,3.571,2.168,5.484,3.38.765-1.084,1.594-2.232,2.423-3.38-1.339-1.4-2.359-2.487-3.316-3.507Z" transform="translate(0 0)" fill="#2c4298"/>
  </g>
  <ellipse id="Ellipse_93" data-name="Ellipse 93" cx="76.5" cy="22" rx="76.5" ry="22" transform="translate(28.577 408.035)" fill="#2c4298" opacity="0.2"/>
</svg>
