<svg id="Component_16_1" data-name="Component 16 – 1" xmlns="http://www.w3.org/2000/svg" width="191" height="472.505" viewBox="0 0 191 472.505">
  <ellipse id="Ellipse_91" data-name="Ellipse 91" cx="87" cy="22" rx="87" ry="22" transform="translate(17 428.505)" fill="#2c4298" opacity="0.2"/>
  <g id="People">
    <path id="Path_460" data-name="Path 460" d="M164.419,100.953a2.057,2.057,0,0,0-2.234-2.72c-2.987,0-57.607-5.2-57.607-5.2s-3.959-8.889-9.4-10.637c-5.44-1.724-6.679-4.444-11.366-4.444s-9.4-2.477-11.876-2.72-7.674-2.477-8.913-4.954c0,0-.219-.631,1.141-2.356,1.36-1.749,6.339-7.456,6.824-9.447s3.716-15.155,3.716-19.5,1.36-4.1,1.749-7.456c.364-3.352,1.87-14.28-1.239-19.623s-5.1-5.95-6.46-6.946S65.89,1.841,64.772,1.476a37.706,37.706,0,0,0-9.18-1.481c-2.866.121-6.46,0-6.946.364s-.874,2.113-2.234,2.356a15.669,15.669,0,0,0-5.95,2.72c-1.6,1.36-3.983,2.72-4.226,3.837s-1,.753-1.239,2.234-1.239,3.352-1.36,5.343-.753,7.82-.631,9.69.874,1.6.121,1.87c-.753.243-2.477,0-2.6,1.117s1.749,10.686,2.234,12.41c.486,1.749,4.347,4.712,4.59,5.586s-.364,7.7-.243,11.172S35.24,69.988,32.156,71.98s-2.477,3.109-3.109,3.109-1-.753-1.6-.121-9.69,7.577-14.28,9.18S8.21,86.746,7.7,87.62c-.486.874-3.109.874-4.347,3.109S.632,93.594.122,100.3c-.486,6.7.631,20.23,1.87,28.051S4.469,140.637,4.98,141.39c.486.753.753.486,1.117,1.239s7.82,15.276,18.628,32.641c0,0,.874,11.172,3.473,17s3.716,6.217,4.347,8.33,1.6,6.072,1,6.582c-.631.486-1.991,1.36-1,2.234a4.753,4.753,0,0,1,1.239,4.226,4.891,4.891,0,0,0-.121,2.234c0,.753-3.983,14.645-4.833,17.268-.874,2.6-2.6,16-2.72,17.632-.121,1.6,5.464,13.77,5.95,15.4,0,0,.826,15.592,1.821,22.878s1.311,23.509,1.991,36.089c.656,12.58,2.987,16.223,2.307,20.206-.656,3.983-.34,18.215.656,23.509s.656,17.219.656,25.816.34,20.862-.656,26.812,0,14.888,3.643,16.223,3.643,2.987,1.991,3.983a36.842,36.842,0,0,0-4.639,3.983s2.647,1.651,1.651,1.651-2.987-.146-4.639,4.153-1.336,8.112,1,8.112h25.5s3.643-1.992,3.643-3.327,0-4.153,1.336-5.464c1.336-1.336,3.983-3.57,3.643-4.566a8.284,8.284,0,0,1-.34-4.274c.34-1.991,5.95-2.963,4.954-5.61s-3.643-15.883-4.3-19.526,3.983-8.6-3.3-29.459c0,0,.656-11.585-.34-18.215s2.647-6.946-1.336-20.862c0,0,4.3-10.929,2.987-15.883,0,0,2.987-12.24,4.954-24.165,1.991-11.925,6.946-27.468,7.942-28.464s7.942,8.937,10.273,11.585c2.307,2.647,2.307,6.29,2.647,8.6s5.95,15.568,7.286,21.858c1.311,6.29,2.987,15.568,5.634,18.53,2.647,2.987,2.307,2.987,2.307,4.639s1,5.95.656,8.6a19.733,19.733,0,0,0,.34,7.626c.656,3.3,0,3.3,0,7.286s1.336,4.3.656,6.63c-.656,2.307.656,13.236,4.3,27.468s2.307,17.219,3.3,20.522,3.3,4.639,3.643,6.63.34,5.294.656,6.946,0,0,.34,1.651-1.336,3.3-1,4.954,2.987,6.63,2.647,9.617-.34,6.63,1.336,6.63h55.276s10.589-4.469,5.95-10.1-12.24-1.069-14.572-1.749c-2.307-.656-4.639-3.692-7.626-5a13.35,13.35,0,0,1-6.29-5.659c-1-1.991-.656-5.319-2.647-6.97s-3.3-1-3.643-1.991,5.634-5.95,4.954-10.273c-.656-4.3-11.585-71.523-16.879-84.1s-1.991-46.023-2.987-52.653.656-20.522-3.983-34.754c0,0-7.942-23.145-8.306-25.865a25.8,25.8,0,0,0-2.234-7.189c-.364-.364.486-6.46-.631-7.942s-4.1-2.477-4.226-3.473,2.72-4.469-2.356-8.695c0,0-2.113-8.816-2.866-12.532s-2.6-5.829-2.72-6.582,3.23-.486,3.983-1.239,5.586-4.1,6.582-4.712c1-.631,3.109-1.36,4.226-2.113s1.481-1.481,2.356-1.481,3.983.243,4.59-1,.364-3.594-.121-3.983c-.486-.364,3.837-.753,3.837-.753s.753,2.72,1.749,2.234a10.182,10.182,0,0,0,2.6-2.72c.243-.364,1.481-.121,2.477-1.87s19.648-55.494,19.648-55.494Z" transform="translate(-0.006 0.013)" fill="#2c4298"/>
  </g>
</svg>
