<svg id="Component_13_1" data-name="Component 13 – 1" xmlns="http://www.w3.org/2000/svg" width="1721" height="393" viewBox="0 0 1721 393">
  <path id="Path_461" data-name="Path 461" d="M109.55,4.2A199.885,199.885,0,0,1,53.2-3.675Q26.25-11.55,9.8-24.15l19.25-42.7Q44.8-55.65,66.325-48.475A136.985,136.985,0,0,0,109.9-41.3q16.8,0,27.125-3.325T152.25-53.9a20.863,20.863,0,0,0,4.9-13.65,18.462,18.462,0,0,0-7.7-15.575q-7.7-5.775-20.3-9.45t-27.825-7Q86.1-102.9,70.875-107.8A128.788,128.788,0,0,1,43.05-120.4a61.92,61.92,0,0,1-20.475-20.3Q14.7-153.3,14.7-172.9a68.36,68.36,0,0,1,11.375-38.325q11.375-17.325,34.3-27.65T117.95-249.2a192.62,192.62,0,0,1,45.5,5.425A131.115,131.115,0,0,1,203-227.5l-17.5,43.05a148.929,148.929,0,0,0-34.3-14.525,126.17,126.17,0,0,0-33.6-4.725q-16.45,0-26.95,3.85T75.6-189.875A23.131,23.131,0,0,0,71.05-175.7a18.129,18.129,0,0,0,7.7,15.225q7.7,5.775,20.3,9.275t27.825,7q15.225,3.5,30.45,8.05A117.729,117.729,0,0,1,185.15-123.9a61.92,61.92,0,0,1,20.475,20.3Q213.5-91,213.5-71.75a66.232,66.232,0,0,1-11.55,37.8Q190.4-16.8,167.475-6.3T109.55,4.2ZM304.5-146.3H422.45v44.1H304.5Zm4.2,100.8H442.05V0H252.35V-245H437.5v45.5H308.7ZM487.2,0V-245H593.25q32.9,0,56.7,10.675T686.7-203.7q12.95,19.95,12.95,47.6,0,27.3-12.95,47.075T649.95-78.75q-23.8,10.5-56.7,10.5H518.7L543.9-93.1V0ZM642.95,0,581.7-88.9h60.55L704.2,0ZM543.9-86.8l-25.2-26.6h71.4q26.25,0,39.2-11.375T642.25-156.1q0-20.3-12.95-31.5t-39.2-11.2H518.7l25.2-26.95ZM817.95,0,712.25-245H773.5L865.9-28H829.85l93.8-217H980L873.95,0ZM1000.3,0V-245H1057V0Zm232.05,4.2a146.631,146.631,0,0,1-52.675-9.275A123.732,123.732,0,0,1,1137.5-31.5a122.629,122.629,0,0,1-27.825-40.25q-9.975-23.1-9.975-50.75t9.975-50.75a121.379,121.379,0,0,1,28-40.25,126.011,126.011,0,0,1,42.175-26.425Q1204-249.2,1232.7-249.2q31.85,0,57.575,11.025A112.167,112.167,0,0,1,1333.5-205.8l-36.4,33.6a85.185,85.185,0,0,0-28-21.525,78.571,78.571,0,0,0-33.6-7.175,85.936,85.936,0,0,0-31.5,5.6,71.408,71.408,0,0,0-24.85,16.1,73.53,73.53,0,0,0-16.275,24.85,84.6,84.6,0,0,0-5.775,31.85,84.6,84.6,0,0,0,5.775,31.85A73.529,73.529,0,0,0,1179.15-65.8,71.408,71.408,0,0,0,1204-49.7a85.936,85.936,0,0,0,31.5,5.6,78.571,78.571,0,0,0,33.6-7.175q15.4-7.175,28-21.875l36.4,33.6A113.759,113.759,0,0,1,1290.275-7Q1264.55,4.2,1232.35,4.2ZM1423.8-146.3h117.95v44.1H1423.8ZM1428-45.5h133.35V0h-189.7V-245H1556.8v45.5H1428Z" transform="translate(72 319)" fill="none" stroke="#fff" stroke-width="1" opacity="0.4"/>
  <rect id="Rectangle_1988" data-name="Rectangle 1988" width="1721" height="393" fill="none"/>
</svg>
