<svg id="Group_194" data-name="Group 194" xmlns="http://www.w3.org/2000/svg" width="61.685" height="79" viewBox="0 0 61.685 79">
  <g id="Group_191" data-name="Group 191" transform="translate(12.843 65.855)">
    <path id="Path_278" data-name="Path 278" d="M135.65,197.331v-.076a1.531,1.531,0,0,0,.344-.1.767.767,0,0,0,.271-.192.29.29,0,0,0,.055-.127,1.884,1.884,0,0,0,.031-.192c.007-.076.014-.151.014-.234s0-.161,0-.24,0-.161,0-.282,0-.247.007-.388,0-.285,0-.433v-2.137q0-.134-.01-.247a1.171,1.171,0,0,0-.034-.206.352.352,0,0,0-.065-.144.61.61,0,0,0-.254-.182,1.58,1.58,0,0,0-.343-.079V192h2.212v.076a1.74,1.74,0,0,0-.333.082.487.487,0,0,0-.275.237.667.667,0,0,0-.069.319c0,.127-.007.251-.01.364s0,.244,0,.368,0,.244,0,.368v2.48c0,.144,0,.282.007.416a.537.537,0,0,0,.065.282.549.549,0,0,0,.282.192,1.519,1.519,0,0,0,.347.082v.076H135.65Z" transform="translate(-101.898 -191.904)" fill="#5a4941"/>
    <path id="Path_279" data-name="Path 279" d="M41.763,197.351v-.082a1.216,1.216,0,0,0,.532-.134.642.642,0,0,0,.289-.275.838.838,0,0,0,.065-.24c.014-.1.024-.192.031-.292.01-.326.014-.635.014-.931v-3.012c-.161.364-.313.7-.447,1.006l-.4.9c-.134.292-.268.587-.4.893s-.285.639-.447,1c-.024.048-.058.127-.1.234s-.089.213-.134.326-.086.213-.127.3-.065.151-.076.182h-.045c-.158-.364-.316-.728-.471-1.089s-.306-.708-.453-1.041-.285-.646-.416-.934-.244-.55-.347-.776-.189-.416-.254-.57-.113-.258-.137-.309c0,.326,0,.611,0,.862s0,.495-.007.738,0,.5,0,.773v.948c0,.234.007.433.021.6a1.156,1.156,0,0,0,.11.429.634.634,0,0,0,.271.275,1.541,1.541,0,0,0,.5.144v.076H37.39v-.076a1.344,1.344,0,0,0,.423-.151.673.673,0,0,0,.258-.278,1.408,1.408,0,0,0,.141-.44,4.069,4.069,0,0,0,.052-.639q.015-.319.021-.752c0-.289.007-.6.007-.927v-.931c0-.1,0-.22-.007-.364a.65.65,0,0,0-.089-.337.642.642,0,0,0-.192-.2.812.812,0,0,0-.237-.106c-.082-.021-.155-.038-.213-.048v-.076h1.577l1.769,4.026c.216-.467.429-.934.635-1.4s.392-.883.56-1.257.3-.687.405-.934.165-.392.182-.433h1.577v.076a.793.793,0,0,0-.464.127.616.616,0,0,0-.22.282,1.472,1.472,0,0,0-.058.392q-.015.268-.021.526c0,.237-.007.467-.007.687V195.6c0,.261,0,.539.007.828a2.7,2.7,0,0,0,.017.285.758.758,0,0,0,.062.227.366.366,0,0,0,.055.069.712.712,0,0,0,.137.117.9.9,0,0,0,.223.11,1.036,1.036,0,0,0,.309.055v.076H41.759Z" transform="translate(-37.39 -191.924)" fill="#5a4941"/>
    <path id="Path_280" data-name="Path 280" d="M81.547,197.3c-.045-.045-.076-.079-.1-.1a.882.882,0,0,1-.065-.079c-.024-.031-.055-.072-.093-.13s-.1-.141-.175-.254c-.093-.137-.175-.261-.247-.374s-.144-.22-.22-.33-.155-.22-.24-.33-.189-.237-.306-.374a3.145,3.145,0,0,0-.323-.319.78.78,0,0,0-.368-.186,1.08,1.08,0,0,0-.213-.031,1.685,1.685,0,0,1-.172-.007v.835c0,.237,0,.436.007.6s.01.292.014.405a.515.515,0,0,0,.082.282.618.618,0,0,0,.23.2,1.023,1.023,0,0,0,.474.113v.076H77.47v-.076a1.977,1.977,0,0,0,.354-.089.577.577,0,0,0,.268-.179.348.348,0,0,0,.058-.134,1.5,1.5,0,0,0,.034-.2c.007-.076.014-.151.017-.237s.007-.165.007-.244,0-.161,0-.282,0-.247.007-.388,0-.285,0-.433v-1.872c0-.089,0-.179,0-.271s-.007-.179-.014-.258a1.372,1.372,0,0,0-.038-.223.353.353,0,0,0-.069-.144.574.574,0,0,0-.247-.158,2.136,2.136,0,0,0-.337-.069v-.076h.3c.168,0,.357,0,.57,0s.423,0,.635,0h.519c.33,0,.625.01.879.031a1.779,1.779,0,0,1,.7.2,1.429,1.429,0,0,1,.526.464,1.269,1.269,0,0,1,.2.735,1.184,1.184,0,0,1-.1.491,1.251,1.251,0,0,1-.268.385,1.716,1.716,0,0,1-.388.285,2.981,2.981,0,0,1-.467.2v.021a1.015,1.015,0,0,1,.244.192,2.808,2.808,0,0,1,.23.282c.127.189.268.388.419.608l.4.577a2.3,2.3,0,0,0,.532.563,1.44,1.44,0,0,0,.608.23v.076H81.544Zm-.732-4.61a1.3,1.3,0,0,0-.539-.46,1.531,1.531,0,0,0-.374-.117,2.273,2.273,0,0,0-.412-.038c-.1,0-.189,0-.251.007s-.113.01-.148.014c0,.031-.01.055-.014.079a.488.488,0,0,0-.01.086c0,.034,0,.082-.007.144s-.007.148-.01.261c0,.172-.01.368-.01.584s0,.426,0,.629v.814c.2,0,.392-.01.567-.027a2.306,2.306,0,0,0,.508-.107,1.353,1.353,0,0,0,.405-.2,1.141,1.141,0,0,0,.436-.629,1.425,1.425,0,0,0,.052-.385,1.193,1.193,0,0,0-.185-.66Z" transform="translate(-63.703 -191.871)" fill="#5a4941"/>
    <path id="Path_281" data-name="Path 281" d="M100.777,192.226a.659.659,0,0,0-.247.319.967.967,0,0,0-.041.172c-.014.079-.024.172-.034.275s-.017.213-.021.33-.007.23-.007.343c0,.213-.01.45-.017.711s-.017.556-.027.886c0,.093-.01.213-.017.354a2.464,2.464,0,0,1-.069.453,2.148,2.148,0,0,1-.189.481,1.457,1.457,0,0,1-.368.436,1.743,1.743,0,0,1-.608.309,3.145,3.145,0,0,1-.91.113,3.186,3.186,0,0,1-.9-.11,1.809,1.809,0,0,1-.6-.3,1.477,1.477,0,0,1-.368-.416,2.039,2.039,0,0,1-.192-.443,2.119,2.119,0,0,1-.076-.4c-.007-.12-.01-.21-.01-.271,0-.137,0-.319,0-.539s0-.467,0-.738v-1.25q0-.134-.01-.247a1.172,1.172,0,0,0-.034-.206.352.352,0,0,0-.065-.144.61.61,0,0,0-.254-.182,1.58,1.58,0,0,0-.343-.079v-.076h2.205v.076a2.149,2.149,0,0,0-.223.045.7.7,0,0,0-.213.093.5.5,0,0,0-.161.175.618.618,0,0,0-.076.282c0,.127-.01.24-.01.34s0,.2,0,.289v1.474c0,.113,0,.223,0,.33s0,.22,0,.337a2.341,2.341,0,0,0,.117.714,1.654,1.654,0,0,0,.309.546,1.307,1.307,0,0,0,.488.347,1.723,1.723,0,0,0,.66.124,2.275,2.275,0,0,0,.714-.1,1.359,1.359,0,0,0,.488-.268,1.3,1.3,0,0,0,.309-.392,2,2,0,0,0,.172-.474,3.651,3.651,0,0,0,.076-.515c.014-.175.017-.347.017-.515v-1.257c0-.1,0-.2,0-.3s-.007-.2-.01-.3-.014-.182-.021-.261a.754.754,0,0,0-.045-.2.686.686,0,0,0-.254-.337,1.234,1.234,0,0,0-.536-.182v-.076h1.834v.076a1.052,1.052,0,0,0-.433.141Z" transform="translate(-75.454 -191.91)" fill="#5a4941"/>
    <path id="Path_282" data-name="Path 282" d="M120.478,192.213a.651.651,0,0,0-.254.319,1.185,1.185,0,0,0-.065.412q-.015.3-.031.639c-.01.213-.017.464-.027.752s-.01.6-.01.927v.474c0,.172,0,.35,0,.529s0,.357,0,.536v.481a.074.074,0,0,1-.017.048.071.071,0,0,1-.055.017.2.2,0,0,1-.134-.076q-.629-.727-1.147-1.333c-.347-.405-.673-.79-.989-1.158s-.622-.725-.921-1.075-.618-.711-.955-1.089v3.122c0,.251.007.477.017.68a1.255,1.255,0,0,0,.093.45.537.537,0,0,0,.254.254,1.566,1.566,0,0,0,.477.124v.076H114.9v-.076a1.349,1.349,0,0,0,.354-.093.585.585,0,0,0,.282-.234,1.032,1.032,0,0,0,.134-.46c.021-.2.034-.443.045-.725q.015-.319.021-.752c0-.289.007-.6.007-.927v-.9c0-.1,0-.22-.007-.364a.813.813,0,0,0-.1-.35.647.647,0,0,0-.192-.213.726.726,0,0,0-.24-.11,2.409,2.409,0,0,0-.247-.048v-.076h1.5l3.507,4.1v-2.514c0-.2,0-.385-.007-.567a1.352,1.352,0,0,0-.065-.426.68.68,0,0,0-.261-.337,1.3,1.3,0,0,0-.543-.182v-.076h1.834v.076a1.1,1.1,0,0,0-.44.141Z" transform="translate(-88.276 -191.897)" fill="#5a4941"/>
    <path id="Path_283" data-name="Path 283" d="M50.417,215.9a2.561,2.561,0,0,0-.289-.666,2.392,2.392,0,0,0-.453-.539,2.124,2.124,0,0,0-.591-.364,1.844,1.844,0,0,0-.7-.134,1.784,1.784,0,0,0-.91.23,2.063,2.063,0,0,0-.67.608,2.912,2.912,0,0,0-.416.855,3.378,3.378,0,0,0-.144.979,3.274,3.274,0,0,0,.151,1,2.447,2.447,0,0,0,.433.811,2.042,2.042,0,0,0,.68.543,1.952,1.952,0,0,0,.886.2,1.862,1.862,0,0,0,.721-.141,2.132,2.132,0,0,0,.6-.371,2.188,2.188,0,0,0,.443-.529,1.977,1.977,0,0,0,.247-.618h.089l-.021,1.628h-.089a2.091,2.091,0,0,0-.185-.23q-.1-.1-.134-.1a.71.71,0,0,0-.134.079,2.187,2.187,0,0,1-.34.172,3.085,3.085,0,0,1-.539.161,3.353,3.353,0,0,1-.732.069,3.72,3.72,0,0,1-1.243-.2,2.688,2.688,0,0,1-.945-.556,2.426,2.426,0,0,1-.594-.859,2.86,2.86,0,0,1-.206-1.1c0-.089.007-.189.017-.3a3.285,3.285,0,0,1,.065-.364,2.754,2.754,0,0,1,.134-.4,2.648,2.648,0,0,1,.22-.426,2.6,2.6,0,0,1,.385-.481,2.374,2.374,0,0,1,.539-.4,2.9,2.9,0,0,1,.7-.278,3.471,3.471,0,0,1,.879-.1,3.241,3.241,0,0,1,.776.082,3.553,3.553,0,0,1,.556.179,2.125,2.125,0,0,1,.34.179.635.635,0,0,0,.134.082c.01,0,.027-.01.055-.034a.9.9,0,0,0,.089-.082c.031-.031.065-.069.1-.11s.065-.086.1-.13H50.5v1.656l-.089.007Z" transform="translate(-42.603 -206.393)" fill="#5a4941"/>
    <path id="Path_284" data-name="Path 284" d="M68.751,219.721H64v-.076a2.074,2.074,0,0,0,.368-.1.687.687,0,0,0,.285-.185.386.386,0,0,0,.062-.131,1.3,1.3,0,0,0,.041-.2c.01-.076.017-.151.027-.234a1.9,1.9,0,0,0,.01-.24c0-.069,0-.161,0-.282s0-.247.007-.388,0-.285,0-.433v-2.123q0-.134-.01-.247a1.081,1.081,0,0,0-.034-.2.413.413,0,0,0-.065-.141.662.662,0,0,0-.278-.192,1.439,1.439,0,0,0-.368-.089v-.076h2.36v.076c-.065.01-.141.024-.23.045a.925.925,0,0,0-.251.1.589.589,0,0,0-.2.189.57.57,0,0,0-.093.323c0,.172-.01.33-.01.474s0,.285-.007.423,0,.282,0,.429v1.346c0,.127,0,.261,0,.395s0,.289,0,.453.01.309.017.45a.655.655,0,0,0,.079.319.357.357,0,0,0,.117.076,1.229,1.229,0,0,0,.213.062c.082.017.175.031.275.045a2.127,2.127,0,0,0,.3.017c.038,0,.1,0,.189,0s.182-.007.285-.014.21-.017.319-.034a1.859,1.859,0,0,0,.289-.058,1.76,1.76,0,0,0,.491-.213,1.6,1.6,0,0,0,.337-.306,1.941,1.941,0,0,0,.237-.378c.065-.137.127-.278.186-.426l.076.021-.275,1.525Z" transform="translate(-54.86 -206.603)" fill="#5a4941"/>
    <path id="Path_285" data-name="Path 285" d="M80.81,219.721v-.076a1.532,1.532,0,0,0,.344-.1.766.766,0,0,0,.271-.192.291.291,0,0,0,.055-.127,1.892,1.892,0,0,0,.031-.192c.007-.076.014-.151.014-.234s0-.161,0-.24,0-.161,0-.282,0-.247.007-.388,0-.285,0-.433v-2.137q0-.134-.01-.247a1.173,1.173,0,0,0-.034-.206.352.352,0,0,0-.065-.144.61.61,0,0,0-.254-.182,1.58,1.58,0,0,0-.343-.079v-.076h2.212v.076a1.742,1.742,0,0,0-.333.082.487.487,0,0,0-.275.237.667.667,0,0,0-.069.319c0,.127-.007.251-.01.364s0,.244,0,.368,0,.244,0,.368v2.48c0,.144,0,.282.007.416a.536.536,0,0,0,.065.282.549.549,0,0,0,.282.192,1.52,1.52,0,0,0,.347.082v.076H80.81Z" transform="translate(-65.896 -206.603)" fill="#5a4941"/>
    <path id="Path_286" data-name="Path 286" d="M94.638,214.6a.651.651,0,0,0-.254.319,1.187,1.187,0,0,0-.065.412q-.015.3-.031.639c-.01.213-.017.464-.027.752s-.01.6-.01.927v.474c0,.172,0,.35,0,.529s0,.357,0,.536v.481a.074.074,0,0,1-.017.048.071.071,0,0,1-.055.017.2.2,0,0,1-.134-.076q-.629-.727-1.147-1.333c-.347-.405-.673-.79-.989-1.158s-.622-.725-.921-1.075-.618-.711-.955-1.089v3.122c0,.251.007.477.017.68a1.254,1.254,0,0,0,.093.45.537.537,0,0,0,.254.254,1.564,1.564,0,0,0,.477.124v.076H89.06v-.076a1.347,1.347,0,0,0,.354-.093.585.585,0,0,0,.282-.234,1.032,1.032,0,0,0,.134-.46c.021-.2.034-.443.045-.725q.015-.319.021-.752c0-.289.007-.6.007-.927v-.9c0-.1,0-.22-.007-.364a.813.813,0,0,0-.1-.35.646.646,0,0,0-.192-.213.726.726,0,0,0-.24-.11,2.4,2.4,0,0,0-.247-.048v-.076h1.5l3.507,4.1v-2.514c0-.2,0-.385-.007-.567a1.351,1.351,0,0,0-.065-.426.679.679,0,0,0-.261-.337,1.3,1.3,0,0,0-.543-.182v-.076h1.834v.076a1.1,1.1,0,0,0-.44.141Z" transform="translate(-71.312 -206.596)" fill="#5a4941"/>
    <path id="Path_287" data-name="Path 287" d="M109.32,219.721v-.076a1.533,1.533,0,0,0,.344-.1.766.766,0,0,0,.271-.192.29.29,0,0,0,.055-.127,1.888,1.888,0,0,0,.031-.192c.007-.076.014-.151.014-.234s0-.161,0-.24,0-.161,0-.282,0-.247.007-.388,0-.285,0-.433v-2.137q0-.134-.01-.247a1.171,1.171,0,0,0-.034-.206.352.352,0,0,0-.065-.144.61.61,0,0,0-.254-.182,1.58,1.58,0,0,0-.344-.079v-.076h2.212v.076a1.743,1.743,0,0,0-.333.082.487.487,0,0,0-.275.237.667.667,0,0,0-.069.319c0,.127-.007.251-.01.364s0,.244,0,.368,0,.244,0,.368v2.48c0,.144,0,.282.007.416a.536.536,0,0,0,.065.282.549.549,0,0,0,.282.192,1.519,1.519,0,0,0,.347.082v.076H109.32Z" transform="translate(-84.613 -206.603)" fill="#5a4941"/>
    <path id="Path_288" data-name="Path 288" d="M124.247,215.9a2.56,2.56,0,0,0-.289-.666,2.392,2.392,0,0,0-.453-.539,2.124,2.124,0,0,0-.591-.364,1.844,1.844,0,0,0-.7-.134,1.784,1.784,0,0,0-.91.23,2.063,2.063,0,0,0-.67.608,2.912,2.912,0,0,0-.416.855,3.377,3.377,0,0,0-.144.979,3.274,3.274,0,0,0,.151,1,2.447,2.447,0,0,0,.433.811,2.042,2.042,0,0,0,.68.543,1.952,1.952,0,0,0,.886.2,1.862,1.862,0,0,0,.721-.141,2.132,2.132,0,0,0,.6-.371,2.187,2.187,0,0,0,.443-.529,1.977,1.977,0,0,0,.247-.618h.089l-.021,1.628h-.089a2.089,2.089,0,0,0-.186-.23q-.1-.1-.134-.1a.71.71,0,0,0-.134.079,2.186,2.186,0,0,1-.34.172,3.085,3.085,0,0,1-.539.161,3.353,3.353,0,0,1-.732.069,3.72,3.72,0,0,1-1.243-.2,2.688,2.688,0,0,1-.945-.556,2.426,2.426,0,0,1-.594-.859,2.86,2.86,0,0,1-.206-1.1c0-.089.007-.189.017-.3a3.287,3.287,0,0,1,.065-.364,2.751,2.751,0,0,1,.134-.4,2.648,2.648,0,0,1,.22-.426,2.6,2.6,0,0,1,.385-.481,2.374,2.374,0,0,1,.539-.4,2.9,2.9,0,0,1,.7-.278,3.471,3.471,0,0,1,.879-.1,3.241,3.241,0,0,1,.776.082,3.553,3.553,0,0,1,.556.179,2.125,2.125,0,0,1,.34.179.634.634,0,0,0,.134.082c.01,0,.027-.01.055-.034a.9.9,0,0,0,.089-.082c.031-.031.065-.069.1-.11s.065-.086.1-.13h.082v1.656l-.089.007Z" transform="translate(-91.073 -206.393)" fill="#5a4941"/>
    <path id="Path_289" data-name="Path 289" d="M62.647,195.1q.113.289.206.556c.065.179.12.34.172.484s.089.268.113.371a.953.953,0,0,1,.041.22.236.236,0,0,1-.069.172.5.5,0,0,1-.161.1.945.945,0,0,1-.179.052.765.765,0,0,1-.106.014v.076h2.161v-.089a.765.765,0,0,1-.3-.065.792.792,0,0,1-.21-.137.9.9,0,0,1-.137-.151.553.553,0,0,1-.065-.1c-.058-.127-.113-.244-.158-.343a4.008,4.008,0,0,1-.151-.381c-.117-.309-.237-.625-.354-.945s-.24-.646-.368-.989-.258-.694-.4-1.061-.285-.756-.436-1.164H62.2c-.021.034-.048.079-.086.134a1.763,1.763,0,0,1-.137.172,1.546,1.546,0,0,1-.189.172,1.264,1.264,0,0,1-.24.141l.076.161c-.117.275-.244.574-.378.893s-.268.635-.4.948-.268.618-.4.914-.244.56-.347.79a5.293,5.293,0,0,1-.289.57,1.647,1.647,0,0,1-.172.244.632.632,0,0,1-.158.11.794.794,0,0,1-.33.1v.082h1.577v-.076c-.065-.01-.131-.021-.2-.034a.9.9,0,0,1-.2-.058.452.452,0,0,1-.151-.1.215.215,0,0,1-.058-.158,1.883,1.883,0,0,1,.155-.563l.206-.515c.069-.172.141-.35.213-.536l.065-.155c.117-.292.227-.56.33-.811s.192-.471.278-.67.155-.364.21-.5.1-.24.131-.3c.045.11.1.247.165.419s.141.357.223.563.165.419.251.639.172.443.254.666l.058.155Z" transform="translate(-51.676 -191.72)" fill="#5a4941"/>
  </g>
  <g id="Group_193" data-name="Group 193">
    <path id="Path_290" data-name="Path 290" d="M66.437,58.76l-3.493,2.205L59.45,58.76l2.205,3.493L59.45,65.747l3.493-2.205,3.493,2.205-2.205-3.493ZM66,59.2l-1.862,2.951L63.05,61.058Zm-6.114,0,2.951,1.862-1.089,1.089Zm0,6.114,1.862-2.951,1.089,1.089Zm1.944-3.057,1.113-1.113,1.113,1.113-1.113,1.113ZM66,65.31,63.05,63.449l1.089-1.089Z" transform="translate(-39.029 -38.576)" fill="#5a4941"/>
    <path id="Path_291" data-name="Path 291" d="M86.777,58.76l-3.493,2.205L79.79,58.76,82,62.253,79.79,65.747l3.493-2.205,3.493,2.205-2.205-3.493Zm-.436.436-1.862,2.951L83.39,61.058Zm-6.114,0,2.951,1.862-1.089,1.089Zm0,6.114,1.862-2.951,1.089,1.089Zm1.944-3.057,1.113-1.113L84.4,62.253l-1.113,1.113Zm4.17,3.057L83.39,63.449l1.089-1.089Z" transform="translate(-52.383 -38.576)" fill="#5a4941"/>
    <path id="Path_292" data-name="Path 292" d="M46.107,58.76l-3.493,2.205L39.12,58.76l2.205,3.493L39.12,65.747l3.493-2.205,3.493,2.205L43.9,62.253Zm-.436.436-1.862,2.951L42.72,61.058Zm-6.114,0,2.951,1.862-1.089,1.089Zm0,6.114,1.862-2.951,1.089,1.089ZM41.5,62.253l1.113-1.113,1.113,1.113-1.113,1.113Zm4.17,3.057L42.72,63.449l1.089-1.089Z" transform="translate(-25.683 -38.576)" fill="#5a4941"/>
    <path id="Path_293" data-name="Path 293" d="M25.767,58.76l-3.493,2.205L18.78,58.76l2.205,3.493L18.78,65.747l3.493-2.205,3.493,2.205-2.205-3.493,2.205-3.493Zm-.436.436-1.862,2.951L22.38,61.058Zm-6.114,0,2.951,1.862-1.089,1.089Zm0,6.114,1.862-2.951,1.089,1.089Zm1.944-3.057,1.113-1.113,1.113,1.113-1.113,1.113Zm4.17,3.057L22.38,63.449l1.089-1.089Z" transform="translate(-12.329 -38.576)" fill="#5a4941"/>
    <path id="Path_294" data-name="Path 294" d="M107.117,58.76l-3.493,2.205L100.13,58.76l2.205,3.493-2.205,3.493,3.493-2.205,3.493,2.205-2.205-3.493Zm-.436.436-1.862,2.951-1.089-1.089Zm-6.114,0,2.951,1.862-1.089,1.089Zm0,6.114,1.862-2.951,1.089,1.089Zm1.944-3.057,1.113-1.113,1.113,1.113-1.113,1.113Zm4.17,3.057-2.951-1.862,1.089-1.089Z" transform="translate(-65.736 -38.576)" fill="#5a4941"/>
    <path id="Path_295" data-name="Path 295" d="M127.457,58.76l-3.493,2.205L120.47,58.76l2.205,3.493-2.205,3.493,3.493-2.205,3.493,2.205-2.205-3.493Zm-.436.436-1.862,2.951-1.089-1.089Zm-6.114,0,2.951,1.862-1.089,1.089Zm0,6.114,1.862-2.951,1.089,1.089Zm1.944-3.057,1.113-1.113,1.113,1.113-1.113,1.113Zm4.17,3.057-2.951-1.862,1.089-1.089Z" transform="translate(-79.089 -38.576)" fill="#5a4941"/>
    <path id="Path_296" data-name="Path 296" d="M144.3,60.965,140.81,58.76l2.205,3.493-2.205,3.493,3.493-2.205,3.493,2.205-2.205-3.493L147.8,58.76ZM141.246,59.2l2.951,1.862-1.089,1.089Zm0,6.114,1.862-2.951,1.089,1.089Zm1.944-3.057L144.3,61.14l1.113,1.113L144.3,63.366Zm4.17,3.057-2.951-1.862L145.5,62.36ZM145.5,62.143l-1.089-1.089,2.951-1.862Z" transform="translate(-92.443 -38.576)" fill="#5a4941"/>
    <path id="Path_297" data-name="Path 297" d="M66.437,38.38l-3.493,2.205L59.45,38.38l2.205,3.493L59.45,45.367l3.493-2.205,3.493,2.205-2.205-3.493ZM66,38.816l-1.862,2.951L63.05,40.678Zm-6.114,0,2.951,1.862-1.089,1.089Zm0,6.114,1.862-2.951,1.089,1.089Zm1.944-3.057,1.113-1.113,1.113,1.113-1.113,1.113ZM66,44.93,63.05,43.069l1.089-1.089Z" transform="translate(-39.029 -25.197)" fill="#5a4941"/>
    <path id="Path_298" data-name="Path 298" d="M86.777,38.38l-3.493,2.205L79.79,38.38,82,41.873,79.79,45.367l3.493-2.205,3.493,2.205-2.205-3.493Zm-.436.436-1.862,2.951L83.39,40.678Zm-6.114,0,2.951,1.862-1.089,1.089Zm0,6.114,1.862-2.951,1.089,1.089Zm1.944-3.057,1.113-1.113L84.4,41.873l-1.113,1.113Zm4.17,3.057L83.39,43.069l1.089-1.089Z" transform="translate(-52.383 -25.197)" fill="#5a4941"/>
    <path id="Path_299" data-name="Path 299" d="M46.107,38.38l-3.493,2.205L39.12,38.38l2.205,3.493L39.12,45.367l3.493-2.205,3.493,2.205L43.9,41.873Zm-.436.436-1.862,2.951L42.72,40.678Zm-6.114,0,2.951,1.862-1.089,1.089Zm0,6.114,1.862-2.951,1.089,1.089ZM41.5,41.873l1.113-1.113,1.113,1.113-1.113,1.113Zm4.17,3.057L42.72,43.069l1.089-1.089Z" transform="translate(-25.683 -25.197)" fill="#5a4941"/>
    <path id="Path_300" data-name="Path 300" d="M25.767,38.38l-3.493,2.205L18.78,38.38l2.205,3.493L18.78,45.367l3.493-2.205,3.493,2.205-2.205-3.493,2.205-3.493Zm-.436.436-1.862,2.951L22.38,40.678Zm-6.114,0,2.951,1.862-1.089,1.089Zm0,6.114,1.862-2.951,1.089,1.089Zm1.944-3.057,1.113-1.113,1.113,1.113-1.113,1.113Zm4.17,3.057L22.38,43.069l1.089-1.089Z" transform="translate(-12.329 -25.197)" fill="#5a4941"/>
    <path id="Path_301" data-name="Path 301" d="M107.117,38.38l-3.493,2.205L100.13,38.38l2.205,3.493-2.205,3.493,3.493-2.205,3.493,2.205-2.205-3.493Zm-.436.436-1.862,2.951-1.089-1.089Zm-6.114,0,2.951,1.862-1.089,1.089Zm0,6.114,1.862-2.951,1.089,1.089Zm1.944-3.057,1.113-1.113,1.113,1.113-1.113,1.113Zm4.17,3.057-2.951-1.862,1.089-1.089Z" transform="translate(-65.736 -25.197)" fill="#5a4941"/>
    <path id="Path_302" data-name="Path 302" d="M127.457,38.38l-3.493,2.205L120.47,38.38l2.205,3.493-2.205,3.493,3.493-2.205,3.493,2.205-2.205-3.493Zm-.436.436-1.862,2.951-1.089-1.089Zm-6.114,0,2.951,1.862-1.089,1.089Zm0,6.114,1.862-2.951,1.089,1.089Zm1.944-3.057,1.113-1.113,1.113,1.113-1.113,1.113Zm4.17,3.057-2.951-1.862,1.089-1.089Z" transform="translate(-79.089 -25.197)" fill="#5a4941"/>
    <path id="Path_303" data-name="Path 303" d="M147.8,38.38,144.3,40.585,140.81,38.38l2.205,3.493-2.205,3.493,3.493-2.205,3.493,2.205-2.205-3.493Zm-.436.436L145.5,41.767l-1.089-1.089Zm-6.114,0,2.951,1.862-1.089,1.089Zm0,6.114,1.862-2.951,1.089,1.089Zm1.944-3.057L144.3,40.76l1.113,1.113L144.3,42.986Zm4.17,3.057-2.951-1.862L145.5,41.98Z" transform="translate(-92.443 -25.197)" fill="#5a4941"/>
    <path id="Path_304" data-name="Path 304" d="M59.09,25.027l3.493-2.205,3.493,2.205-2.205-3.493,2.205-3.493-3.493,2.205L59.09,18.04,61.3,21.533Zm.436-.436,1.862-2.951,1.089,1.089Zm6.114,0L62.69,22.729l1.089-1.089Zm0-6.114-1.862,2.951L62.69,20.338ZM63.7,21.533l-1.113,1.113L61.47,21.533l1.113-1.113Zm-4.17-3.057,2.951,1.862-1.089,1.089Z" transform="translate(-38.793 -11.843)" fill="#5a4941"/>
    <path id="Path_305" data-name="Path 305" d="M79.43,25.027l3.493-2.205,3.493,2.205-2.205-3.493,2.205-3.493-3.493,2.205L79.43,18.04l2.205,3.493Zm.436-.436,1.862-2.951,1.089,1.089Zm6.114,0L83.03,22.729l1.089-1.089Zm0-6.114-1.862,2.951L83.03,20.338Zm-1.944,3.057-1.113,1.113L81.81,21.533l1.113-1.113Zm-4.17-3.057,2.951,1.862-1.089,1.089Z" transform="translate(-52.146 -11.843)" fill="#5a4941"/>
    <path id="Path_306" data-name="Path 306" d="M38.75,25.027l3.493-2.205,3.493,2.205-2.205-3.493,2.205-3.493-3.493,2.205L38.75,18.04l2.205,3.493Zm.436-.436,1.862-2.951,1.089,1.089Zm6.114,0L42.35,22.729l1.089-1.089Zm0-6.114-1.862,2.951L42.35,20.338Zm-1.944,3.057-1.113,1.113L41.13,21.533l1.113-1.113Zm-4.17-3.057,2.951,1.862-1.089,1.089Z" transform="translate(-25.44 -11.843)" fill="#5a4941"/>
    <path id="Path_307" data-name="Path 307" d="M99.77,25.027l3.493-2.205,3.493,2.205-2.205-3.493,2.205-3.493-3.493,2.205L99.77,18.04l2.205,3.493Zm.436-.436,1.862-2.951,1.089,1.089Zm6.114,0-2.951-1.862,1.089-1.089Zm0-6.114-1.862,2.951-1.089-1.089Zm-1.944,3.057-1.113,1.113-1.113-1.113,1.113-1.113Zm-4.17-3.057,2.951,1.862-1.089,1.089Z" transform="translate(-65.5 -11.843)" fill="#5a4941"/>
    <path id="Path_308" data-name="Path 308" d="M120.11,25.027l3.493-2.205,3.493,2.205-2.205-3.493L127.1,18.04,123.6,20.245,120.11,18.04l2.205,3.493Zm.436-.436,1.862-2.951,1.089,1.089Zm6.114,0-2.951-1.862L124.8,21.64Zm0-6.114L124.8,21.427l-1.089-1.089Zm-1.944,3.057L123.6,22.646l-1.113-1.113L123.6,20.42Zm-4.17-3.057,2.951,1.862-1.089,1.089Z" transform="translate(-78.853 -11.843)" fill="#5a4941"/>
    <path id="Path_309" data-name="Path 309" d="M66.437,79.14l-3.493,2.205L59.45,79.14l2.205,3.493L59.45,86.127l3.493-2.205,3.493,2.205-2.205-3.493ZM66,79.576l-1.862,2.951L63.05,81.438Zm-6.114,0,2.951,1.862-1.089,1.089Zm0,6.114,1.862-2.951,1.089,1.089Zm1.944-3.057,1.113-1.113,1.113,1.113-1.113,1.113ZM66,85.69,63.05,83.829l1.089-1.089Z" transform="translate(-39.029 -51.956)" fill="#5a4941"/>
    <path id="Path_310" data-name="Path 310" d="M86.777,79.14l-3.493,2.205L79.79,79.14,82,82.633,79.79,86.127l3.493-2.205,3.493,2.205-2.205-3.493Zm-.436.436-1.862,2.951L83.39,81.438Zm-6.114,0,2.951,1.862-1.089,1.089Zm0,6.114,1.862-2.951,1.089,1.089Zm1.944-3.057,1.113-1.113L84.4,82.633l-1.113,1.113Zm4.17,3.057L83.39,83.829l1.089-1.089Z" transform="translate(-52.383 -51.956)" fill="#5a4941"/>
    <path id="Path_311" data-name="Path 311" d="M46.107,79.14l-3.493,2.205L39.12,79.14l2.205,3.493L39.12,86.127l3.493-2.205,3.493,2.205L43.9,82.633Zm-.436.436-1.862,2.951L42.72,81.438Zm-6.114,0,2.951,1.862-1.089,1.089Zm0,6.114,1.862-2.951,1.089,1.089ZM41.5,82.633l1.113-1.113,1.113,1.113-1.113,1.113Zm4.17,3.057L42.72,83.829l1.089-1.089Z" transform="translate(-25.683 -51.956)" fill="#5a4941"/>
    <path id="Path_312" data-name="Path 312" d="M25.767,79.14l-3.493,2.205L18.78,79.14l2.205,3.493L18.78,86.127l3.493-2.205,3.493,2.205-2.205-3.493,2.205-3.493Zm-.436.436-1.862,2.951L22.38,81.438Zm-6.114,0,2.951,1.862-1.089,1.089Zm0,6.114,1.862-2.951,1.089,1.089Zm1.944-3.057,1.113-1.113,1.113,1.113-1.113,1.113Zm4.17,3.057L22.38,83.829l1.089-1.089Z" transform="translate(-12.329 -51.956)" fill="#5a4941"/>
    <path id="Path_313" data-name="Path 313" d="M107.117,79.14l-3.493,2.205L100.13,79.14l2.205,3.493-2.205,3.493,3.493-2.205,3.493,2.205-2.205-3.493Zm-.436.436-1.862,2.951-1.089-1.089Zm-6.114,0,2.951,1.862-1.089,1.089Zm0,6.114,1.862-2.951,1.089,1.089Zm1.944-3.057,1.113-1.113,1.113,1.113-1.113,1.113Zm4.17,3.057-2.951-1.862,1.089-1.089Z" transform="translate(-65.736 -51.956)" fill="#5a4941"/>
    <path id="Path_314" data-name="Path 314" d="M127.457,79.14l-3.493,2.205L120.47,79.14l2.205,3.493-2.205,3.493,3.493-2.205,3.493,2.205-2.205-3.493Zm-.436.436-1.862,2.951-1.089-1.089Zm-6.114,0,2.951,1.862-1.089,1.089Zm0,6.114,1.862-2.951,1.089,1.089Zm1.944-3.057,1.113-1.113,1.113,1.113-1.113,1.113Zm4.17,3.057-2.951-1.862,1.089-1.089Z" transform="translate(-79.089 -51.956)" fill="#5a4941"/>
    <path id="Path_315" data-name="Path 315" d="M144.3,81.335,140.81,79.13l2.205,3.493-2.205,3.493,3.493-2.205,3.493,2.205-2.205-3.493L147.8,79.13Zm-3.057-1.769,2.951,1.862-1.089,1.089Zm0,6.114,1.862-2.951,1.089,1.089Zm1.944-3.057L144.3,81.51l1.113,1.113L144.3,83.736Zm4.17,3.057-2.951-1.862L145.5,82.73ZM145.5,82.513l-1.089-1.089,2.951-1.862Z" transform="translate(-92.443 -51.949)" fill="#5a4941"/>
    <path id="Path_316" data-name="Path 316" d="M66.437,99.52l-3.493,2.205L59.45,99.52l2.205,3.493-2.205,3.493,3.493-2.205,3.493,2.205-2.205-3.493ZM66,99.956l-1.862,2.951-1.089-1.089Zm-6.114,0,2.951,1.862-1.089,1.089Zm0,6.114,1.862-2.951,1.089,1.089Zm1.944-3.057,1.113-1.113,1.113,1.113-1.113,1.113ZM66,106.07l-2.951-1.862,1.089-1.089Z" transform="translate(-39.029 -65.336)" fill="#5a4941"/>
    <path id="Path_317" data-name="Path 317" d="M86.777,99.52l-3.493,2.205L79.79,99.52,82,103.013l-2.205,3.493,3.493-2.205,3.493,2.205-2.205-3.493Zm-.436.436-1.862,2.951-1.089-1.089Zm-6.114,0,2.951,1.862-1.089,1.089Zm0,6.114,1.862-2.951,1.089,1.089Zm1.944-3.057,1.113-1.113,1.113,1.113-1.113,1.113Zm4.17,3.057-2.951-1.862,1.089-1.089Z" transform="translate(-52.383 -65.336)" fill="#5a4941"/>
    <path id="Path_318" data-name="Path 318" d="M46.107,99.52l-3.493,2.205L39.12,99.52l2.205,3.493-2.205,3.493,3.493-2.205,3.493,2.205L43.9,103.013Zm-.436.436-1.862,2.951-1.089-1.089Zm-6.114,0,2.951,1.862-1.089,1.089Zm0,6.114,1.862-2.951,1.089,1.089Zm1.944-3.057,1.113-1.113,1.113,1.113-1.113,1.113Zm4.17,3.057-2.951-1.862,1.089-1.089Z" transform="translate(-25.683 -65.336)" fill="#5a4941"/>
    <path id="Path_319" data-name="Path 319" d="M25.767,99.52l-3.493,2.205L18.78,99.52l2.205,3.493-2.205,3.493,3.493-2.205,3.493,2.205-2.205-3.493,2.205-3.493Zm-.436.436-1.862,2.951-1.089-1.089Zm-6.114,0,2.951,1.862-1.089,1.089Zm0,6.114,1.862-2.951,1.089,1.089Zm1.944-3.057,1.113-1.113,1.113,1.113-1.113,1.113Zm4.17,3.057-2.951-1.862,1.089-1.089Z" transform="translate(-12.329 -65.336)" fill="#5a4941"/>
    <path id="Path_320" data-name="Path 320" d="M107.117,99.52l-3.493,2.205L100.13,99.52l2.205,3.493-2.205,3.493,3.493-2.205,3.493,2.205-2.205-3.493Zm-.436.436-1.862,2.951-1.089-1.089Zm-6.114,0,2.951,1.862-1.089,1.089Zm0,6.114,1.862-2.951,1.089,1.089Zm1.944-3.057,1.113-1.113,1.113,1.113-1.113,1.113Zm4.17,3.057-2.951-1.862,1.089-1.089Z" transform="translate(-65.736 -65.336)" fill="#5a4941"/>
    <path id="Path_321" data-name="Path 321" d="M127.457,99.52l-3.493,2.205L120.47,99.52l2.205,3.493-2.205,3.493,3.493-2.205,3.493,2.205-2.205-3.493Zm-.436.436-1.862,2.951-1.089-1.089Zm-6.114,0,2.951,1.862-1.089,1.089Zm0,6.114,1.862-2.951,1.089,1.089Zm1.944-3.057,1.113-1.113,1.113,1.113-1.113,1.113Zm4.17,3.057-2.951-1.862,1.089-1.089Z" transform="translate(-79.089 -65.336)" fill="#5a4941"/>
    <path id="Path_322" data-name="Path 322" d="M144.3,101.715,140.81,99.51,143.015,103,140.81,106.5l3.493-2.205L147.8,106.5,145.591,103,147.8,99.51Zm-3.057-1.769,2.951,1.862-1.089,1.089Zm0,6.114,1.862-2.951L144.2,104.2ZM143.19,103l1.113-1.113L145.416,103l-1.113,1.113Zm4.17,3.057L144.41,104.2l1.089-1.089Zm-1.862-3.167L144.41,101.8l2.951-1.862Z" transform="translate(-92.443 -65.329)" fill="#5a4941"/>
    <path id="Path_323" data-name="Path 323" d="M66.437,119.89,62.943,122.1,59.45,119.89l2.205,3.493-2.205,3.493,3.493-2.205,3.493,2.205-2.205-3.493Zm-.436.436-1.862,2.951-1.089-1.089L66,120.326Zm-6.114,0,2.951,1.862-1.089,1.089-1.862-2.951Zm0,6.114,1.862-2.951,1.089,1.089Zm1.944-3.057,1.113-1.113,1.113,1.113L62.943,124.5ZM66,126.44l-2.951-1.862,1.089-1.089Z" transform="translate(-39.029 -78.709)" fill="#5a4941"/>
    <path id="Path_324" data-name="Path 324" d="M86.777,119.89,83.283,122.1,79.79,119.89,82,123.383l-2.205,3.493,3.493-2.205,3.493,2.205-2.205-3.493Zm-.436.436-1.862,2.951-1.089-1.089,2.951-1.862Zm-6.114,0,2.951,1.862-1.089,1.089-1.862-2.951Zm0,6.114,1.862-2.951,1.089,1.089Zm1.944-3.057,1.113-1.113,1.113,1.113L83.283,124.5Zm4.17,3.057-2.951-1.862,1.089-1.089Z" transform="translate(-52.383 -78.709)" fill="#5a4941"/>
    <path id="Path_325" data-name="Path 325" d="M46.107,119.89,42.613,122.1,39.12,119.89l2.205,3.493-2.205,3.493,3.493-2.205,3.493,2.205L43.9,123.383Zm-.436.436-1.862,2.951-1.089-1.089,2.951-1.862Zm-6.114,0,2.951,1.862-1.089,1.089-1.862-2.951Zm0,6.114,1.862-2.951,1.089,1.089Zm1.944-3.057,1.113-1.113,1.113,1.113L42.613,124.5Zm4.17,3.057-2.951-1.862,1.089-1.089Z" transform="translate(-25.683 -78.709)" fill="#5a4941"/>
    <path id="Path_326" data-name="Path 326" d="M25.767,119.89,22.273,122.1,18.78,119.89l2.205,3.493-2.205,3.493,3.493-2.205,3.493,2.205-2.205-3.493,2.205-3.493Zm-.436.436-1.862,2.951-1.089-1.089,2.951-1.862Zm-6.114,0,2.951,1.862-1.089,1.089-1.862-2.951Zm0,6.114,1.862-2.951,1.089,1.089Zm1.944-3.057,1.113-1.113,1.113,1.113L22.273,124.5Zm4.17,3.057-2.951-1.862,1.089-1.089Z" transform="translate(-12.329 -78.709)" fill="#5a4941"/>
    <path id="Path_327" data-name="Path 327" d="M107.117,119.89l-3.493,2.205-3.493-2.205,2.205,3.493-2.205,3.493,3.493-2.205,3.493,2.205-2.205-3.493Zm-.436.436-1.862,2.951-1.089-1.089,2.951-1.862Zm-6.114,0,2.951,1.862-1.089,1.089-1.862-2.951Zm0,6.114,1.862-2.951,1.089,1.089Zm1.944-3.057,1.113-1.113,1.113,1.113-1.113,1.113Zm4.17,3.057-2.951-1.862,1.089-1.089Z" transform="translate(-65.736 -78.709)" fill="#5a4941"/>
    <path id="Path_328" data-name="Path 328" d="M127.457,119.89l-3.493,2.205-3.493-2.205,2.205,3.493-2.205,3.493,3.493-2.205,3.493,2.205-2.205-3.493Zm-.436.436-1.862,2.951-1.089-1.089,2.951-1.862Zm-6.114,0,2.951,1.862-1.089,1.089-1.862-2.951Zm0,6.114,1.862-2.951,1.089,1.089Zm1.944-3.057,1.113-1.113,1.113,1.113-1.113,1.113Zm4.17,3.057-2.951-1.862,1.089-1.089Z" transform="translate(-79.089 -78.709)" fill="#5a4941"/>
    <path id="Path_329" data-name="Path 329" d="M144.3,122.1l-3.493-2.205,2.205,3.493-2.205,3.493,3.493-2.205,3.493,2.205-2.205-3.493,2.205-3.493Zm-3.057-1.769,2.951,1.862-1.089,1.089-1.862-2.951Zm0,6.114,1.862-2.951,1.089,1.089Zm1.944-3.057,1.113-1.113,1.113,1.113L144.3,124.5Zm4.17,3.057-2.951-1.862,1.089-1.089Zm-1.862-3.167-1.089-1.089,2.951-1.862Z" transform="translate(-92.443 -78.709)" fill="#5a4941"/>
    <path id="Path_330" data-name="Path 330" d="M66.437,140.27l-3.493,2.205L59.45,140.27l2.205,3.493-2.205,3.493,3.493-2.205,3.493,2.205-2.205-3.493Zm-.436.436-1.862,2.951-1.089-1.089Zm-6.114,0,2.951,1.862-1.089,1.089Zm0,6.114,1.862-2.951,1.089,1.089Zm1.944-3.057,1.113-1.113,1.113,1.113-1.113,1.113ZM66,146.82l-2.951-1.862,1.089-1.089Z" transform="translate(-39.029 -92.088)" fill="#5a4941"/>
    <path id="Path_331" data-name="Path 331" d="M86.777,140.27l-3.493,2.205L79.79,140.27,82,143.763l-2.205,3.493,3.493-2.205,3.493,2.205-2.205-3.493Zm-.436.436-1.862,2.951-1.089-1.089Zm-6.114,0,2.951,1.862-1.089,1.089Zm0,6.114,1.862-2.951,1.089,1.089Zm1.944-3.057,1.113-1.113,1.113,1.113-1.113,1.113Zm4.17,3.057-2.951-1.862,1.089-1.089Z" transform="translate(-52.383 -92.088)" fill="#5a4941"/>
    <path id="Path_332" data-name="Path 332" d="M46.107,140.27l-3.493,2.205L39.12,140.27l2.205,3.493-2.205,3.493,3.493-2.205,3.493,2.205L43.9,143.763Zm-.436.436-1.862,2.951-1.089-1.089Zm-6.114,0,2.951,1.862-1.089,1.089Zm0,6.114,1.862-2.951,1.089,1.089Zm1.944-3.057,1.113-1.113,1.113,1.113-1.113,1.113Zm4.17,3.057-2.951-1.862,1.089-1.089Z" transform="translate(-25.683 -92.088)" fill="#5a4941"/>
    <path id="Path_333" data-name="Path 333" d="M107.117,140.27l-3.493,2.205-3.493-2.205,2.205,3.493-2.205,3.493,3.493-2.205,3.493,2.205-2.205-3.493Zm-.436.436-1.862,2.951-1.089-1.089Zm-6.114,0,2.951,1.862-1.089,1.089Zm0,6.114,1.862-2.951,1.089,1.089Zm1.944-3.057,1.113-1.113,1.113,1.113-1.113,1.113Zm4.17,3.057-2.951-1.862,1.089-1.089Z" transform="translate(-65.736 -92.088)" fill="#5a4941"/>
    <path id="Path_334" data-name="Path 334" d="M127.457,140.27l-3.493,2.205-3.493-2.205,2.205,3.493-2.205,3.493,3.493-2.205,3.493,2.205-2.205-3.493Zm-.436.436-1.862,2.951-1.089-1.089Zm-6.114,0,2.951,1.862-1.089,1.089Zm0,6.114,1.862-2.951,1.089,1.089Zm1.944-3.057,1.113-1.113,1.113,1.113-1.113,1.113Zm4.17,3.057-2.951-1.862,1.089-1.089Z" transform="translate(-79.089 -92.088)" fill="#5a4941"/>
    <g id="Group_192" data-name="Group 192">
      <path id="Path_335" data-name="Path 335" d="M52.647,9.034A30.839,30.839,0,1,0,9.034,52.647,30.842,30.842,0,1,0,52.651,9.03ZM48.216,48.216A24.575,24.575,0,0,1,13.462,13.461a24.592,24.592,0,0,1,39.921,7.574H23.739V27.3H55.162a25.146,25.146,0,0,1,.254,3.535,24.421,24.421,0,0,1-7.2,17.377Z" fill="#5a4941"/>
      <rect id="Rectangle_148" data-name="Rectangle 148" width="31.718" height="6.265" transform="translate(13.578 34.373)" fill="#5a4941"/>
    </g>
  </g>
</svg>
