<svg xmlns="http://www.w3.org/2000/svg" width="14.593" height="14.62" viewBox="0 0 14.593 14.62">
  <path id="Icon_feather-phone" data-name="Icon feather-phone" d="M14.667,11.28v2a1.333,1.333,0,0,1-1.453,1.333A13.193,13.193,0,0,1,7.46,12.567a13,13,0,0,1-4-4,13.193,13.193,0,0,1-2.047-5.78A1.333,1.333,0,0,1,2.74,1.333h2A1.333,1.333,0,0,1,6.073,2.48,8.56,8.56,0,0,0,6.54,4.353a1.333,1.333,0,0,1-.3,1.407l-.847.847a10.667,10.667,0,0,0,4,4l.847-.847a1.333,1.333,0,0,1,1.407-.3,8.56,8.56,0,0,0,1.873.467,1.333,1.333,0,0,1,1.147,1.353Z" transform="translate(-0.741 -0.667)" fill="none" stroke="#e8536a" stroke-linecap="round" stroke-linejoin="round" stroke-width="1.333"/>
</svg>
