<svg xmlns="http://www.w3.org/2000/svg" width="73" height="28" viewBox="0 0 73 28">
  <g id="Amazon_logo" transform="translate(-0.364 5.754)">
    <rect id="Rectangle_137" data-name="Rectangle 137" width="73" height="28" transform="translate(0.364 -5.754)" fill="none"/>
    <path id="path8" d="M119.811,119.185a27.567,27.567,0,0,1-15.548,4.753,28.135,28.135,0,0,1-18.994-7.248c-.394-.356-.041-.841.432-.564a38.228,38.228,0,0,0,19,5.04,37.788,37.788,0,0,0,14.5-2.964c.712-.3,1.307.466.611.983" transform="translate(-74.554 -101.885)" fill="#fea724"/>
    <path id="path10" d="M350.06,111.646c-.535-.687-3.553-.324-4.908-.164-.413.05-.476-.309-.1-.567,2.4-1.692,6.347-1.2,6.807-.636s-.12,4.523-2.378,6.41c-.346.29-.677.135-.523-.249.507-1.266,1.644-4.1,1.106-4.794" transform="translate(-303.055 -96.346)" fill="#fea724"/>
    <path id="path12" d="M345.429,4.98V3.336a.406.406,0,0,1,.416-.416h7.361a.41.41,0,0,1,.425.416V4.744a2.316,2.316,0,0,1-.554,1.033l-3.815,5.446a8.128,8.128,0,0,1,4.2.9.749.749,0,0,1,.391.639v1.755c0,.239-.265.52-.542.375a8.48,8.48,0,0,0-7.777.013c-.255.139-.523-.139-.523-.378V12.861a1.988,1.988,0,0,1,.271-1.131L349.7,5.393h-3.846a.407.407,0,0,1-.425-.413" transform="translate(-303.237 -2.353)" fill="#fff"/>
    <path id="path14" d="M105.669,13.694h-2.24a.423.423,0,0,1-.4-.381V1.819a.42.42,0,0,1,.432-.413h2.088a.422.422,0,0,1,.406.384v1.5H106a3.078,3.078,0,0,1,5.856,0,3.307,3.307,0,0,1,5.686-.873c.709.967.564,2.372.564,3.6l0,7.254a.423.423,0,0,1-.432.416H115.43a.426.426,0,0,1-.4-.416V7.186a14.388,14.388,0,0,0-.063-2.155,1.166,1.166,0,0,0-1.317-.989,1.488,1.488,0,0,0-1.339.942,6.958,6.958,0,0,0-.208,2.2v6.092a.423.423,0,0,1-.432.416h-2.236a.423.423,0,0,1-.4-.416l0-6.092c0-1.282.211-3.169-1.38-3.169-1.61,0-1.547,1.84-1.547,3.169v6.092a.423.423,0,0,1-.432.416" transform="translate(-90.33 -0.807)" fill="#fff"/>
    <path id="path16" d="M432.607,1.164c3.323,0,5.122,2.854,5.122,6.483,0,3.506-1.988,6.287-5.122,6.287-3.263,0-5.04-2.854-5.04-6.41,0-3.578,1.8-6.36,5.04-6.36m.019,2.347c-1.651,0-1.755,2.249-1.755,3.651s-.022,4.4,1.736,4.4c1.736,0,1.818-2.419,1.818-3.893a10.627,10.627,0,0,0-.334-3.049,1.4,1.4,0,0,0-1.465-1.112" transform="translate(-375.875 -0.807)" fill="#fff"/>
    <path id="path18" d="M528.7,13.694h-2.23a.426.426,0,0,1-.4-.416l0-11.5a.424.424,0,0,1,.432-.375h2.076a.428.428,0,0,1,.4.321V3.485h.041c.627-1.572,1.506-2.321,3.052-2.321a2.939,2.939,0,0,1,2.614,1.354,7.305,7.305,0,0,1,.586,3.578v7.235a.43.43,0,0,1-.432.362h-2.246a.424.424,0,0,1-.4-.362V7.088c0-1.257.145-3.1-1.4-3.1a1.464,1.464,0,0,0-1.295.92,5.087,5.087,0,0,0-.356,2.177v6.19a.431.431,0,0,1-.438.416" transform="translate(-462.538 -0.807)" fill="#fff"/>
    <path id="use28" d="M6.963,7.4V6.911c-1.619,0-3.329.346-3.329,2.255,0,.967.5,1.622,1.361,1.622a1.816,1.816,0,0,0,1.55-1.017A4.381,4.381,0,0,0,6.963,7.4m2.258,5.459a.468.468,0,0,1-.529.054,5.514,5.514,0,0,1-1.285-1.493,4.431,4.431,0,0,1-3.692,1.629A3.178,3.178,0,0,1,.364,9.554a3.805,3.805,0,0,1,2.388-3.66,15.518,15.518,0,0,1,4.211-.778v-.29A2.882,2.882,0,0,0,6.692,3.2a1.5,1.5,0,0,0-1.257-.583,1.707,1.707,0,0,0-1.8,1.345.469.469,0,0,1-.387.409L1.073,4.142a.4.4,0,0,1-.334-.469C1.24,1.04,3.618.246,5.747.246A5.078,5.078,0,0,1,9.121,1.361c1.09,1.017.986,2.375.986,3.852V8.7a3.063,3.063,0,0,0,.844,2.076.421.421,0,0,1-.006.6c-.457.381-1.269,1.09-1.717,1.487l-.006-.006" transform="translate(29.36)" fill="#fff"/>
    <path id="path30" d="M6.963,7.4V6.911c-1.619,0-3.329.346-3.329,2.255,0,.967.5,1.622,1.361,1.622a1.816,1.816,0,0,0,1.55-1.017A4.381,4.381,0,0,0,6.963,7.4m2.258,5.459a.468.468,0,0,1-.529.054,5.514,5.514,0,0,1-1.285-1.493,4.431,4.431,0,0,1-3.692,1.629A3.178,3.178,0,0,1,.364,9.554a3.805,3.805,0,0,1,2.388-3.66,15.518,15.518,0,0,1,4.211-.778v-.29A2.882,2.882,0,0,0,6.692,3.2a1.5,1.5,0,0,0-1.257-.583,1.707,1.707,0,0,0-1.8,1.345.469.469,0,0,1-.387.409L1.073,4.142a.4.4,0,0,1-.334-.469C1.24,1.04,3.618.246,5.747.246A5.078,5.078,0,0,1,9.121,1.361c1.09,1.017.986,2.375.986,3.852V8.7a3.063,3.063,0,0,0,.844,2.076.421.421,0,0,1-.006.6c-.457.381-1.269,1.09-1.717,1.487l-.006-.006" fill="#fff"/>
  </g>
</svg>
