<svg xmlns="http://www.w3.org/2000/svg" width="21.313" height="21.313" viewBox="0 0 21.313 21.313">
  <path id="Icon_awesome-question-circle" data-name="Icon awesome-question-circle" d="M21.656,11A10.656,10.656,0,1,1,11,.344,10.656,10.656,0,0,1,21.656,11ZM11.286,3.867a5.566,5.566,0,0,0-5.008,2.74.516.516,0,0,0,.117.7L7.886,8.436A.515.515,0,0,0,8.6,8.345c.768-.974,1.294-1.538,2.462-1.538.878,0,1.964.565,1.964,1.416,0,.644-.531.974-1.4,1.46-1.011.567-2.348,1.272-2.348,3.036v.172a.516.516,0,0,0,.516.516H12.2a.516.516,0,0,0,.516-.516v-.057c0-1.223,3.574-1.274,3.574-4.583C16.293,5.758,13.708,3.867,11.286,3.867ZM11,14.523A1.977,1.977,0,1,0,12.977,16.5,1.979,1.979,0,0,0,11,14.523Z" transform="translate(-0.344 -0.344)" fill="#e579d3"/>
</svg>
