<svg xmlns="http://www.w3.org/2000/svg" width="31.414" height="31.414" viewBox="0 0 31.414 31.414">
  <path id="Icon_awesome-facebook-square" data-name="Icon awesome-facebook-square" d="M28.048,1.25H3.366A3.366,3.366,0,0,0,0,4.616V29.3a3.366,3.366,0,0,0,3.366,3.366H12.99V21.984H8.572V16.957H12.99V13.126c0-4.358,2.594-6.765,6.568-6.765a26.763,26.763,0,0,1,3.893.339v4.277H21.258a2.514,2.514,0,0,0-2.834,2.716v3.264h4.823l-.771,5.027H18.424v10.68h9.624A3.366,3.366,0,0,0,31.414,29.3V4.616A3.366,3.366,0,0,0,28.048,1.25Z" transform="translate(0 -1.25)" fill="#4b4a48"/>
</svg>
