<svg xmlns="http://www.w3.org/2000/svg" width="151.45" height="70.738" viewBox="0 0 151.45 70.738">
  <g id="Group_194" data-name="Group 194" transform="translate(1.5 1.5)">
    <line id="Line_21" data-name="Line 21" x2="58.165" transform="translate(0 5.509)" fill="none" stroke="#7eb6ae" stroke-linecap="round" stroke-linejoin="round" stroke-width="3"/>
    <line id="Line_22" data-name="Line 22" y2="12.629" transform="translate(29.089)" fill="none" stroke="#7eb6ae" stroke-linecap="round" stroke-linejoin="round" stroke-width="3"/>
    <rect id="Rectangle_101" data-name="Rectangle 101" width="10.301" height="19.682" rx="3.81" transform="translate(23.932 12.697)" fill="none" stroke="#7eb6ae" stroke-linecap="round" stroke-linejoin="round" stroke-width="3"/>
    <path id="Path_72" data-name="Path 72" d="M62.894,23.749H43.5a5.124,5.124,0,0,1-5.157-5.09h0A5.133,5.133,0,0,1,43.5,13.57H80.952a5.124,5.124,0,0,1,5.157,5.09h0a5.133,5.133,0,0,1-5.157,5.09H72.532" transform="translate(12.204 3.445)" fill="none" stroke="#7eb6ae" stroke-linecap="round" stroke-linejoin="round" stroke-width="3"/>
    <path id="Path_73" data-name="Path 73" d="M45.13,21.09V32.934a5.156,5.156,0,0,0,5.157,5.157H69.251a5.156,5.156,0,0,0,5.157-5.157V21.09" transform="translate(14.605 6.104)" fill="none" stroke="#7eb6ae" stroke-linecap="round" stroke-linejoin="round" stroke-width="3"/>
    <line id="Line_23" data-name="Line 23" x2="10.694" transform="translate(98.394 67.681)" fill="none" stroke="#7eb6ae" stroke-linecap="round" stroke-linejoin="round" stroke-width="3"/>
    <line id="Line_24" data-name="Line 24" x2="15.824" transform="translate(34.409 22.28)" fill="none" stroke="#7eb6ae" stroke-linecap="round" stroke-linejoin="round" stroke-width="3"/>
    <line id="Line_25" data-name="Line 25" x1="58.165" transform="translate(90.286 5.509)" fill="none" stroke="#7eb6ae" stroke-linecap="round" stroke-linejoin="round" stroke-width="3"/>
    <line id="Line_26" data-name="Line 26" y2="12.629" transform="translate(119.361)" fill="none" stroke="#7eb6ae" stroke-linecap="round" stroke-linejoin="round" stroke-width="3"/>
    <rect id="Rectangle_102" data-name="Rectangle 102" width="10.301" height="19.682" rx="3.81" transform="translate(124.519 32.378) rotate(180)" fill="none" stroke="#7eb6ae" stroke-linecap="round" stroke-linejoin="round" stroke-width="3"/>
    <line id="Line_27" data-name="Line 27" x1="15.824" transform="translate(98.218 22.28)" fill="none" stroke="#7eb6ae" stroke-linecap="round" stroke-linejoin="round" stroke-width="3"/>
    <path id="Path_74" data-name="Path 74" d="M67.58,29.77c4.332,1.5,6.037,2.423,7.54,7.675s5.32,20.805,5.32,20.805" transform="translate(22.543 9.173)" fill="none" stroke="#7eb6ae" stroke-linecap="round" stroke-linejoin="round" stroke-width="3"/>
    <line id="Line_28" data-name="Line 28" x1="10.694" transform="translate(40.04 67.681)" fill="none" stroke="#7eb6ae" stroke-linecap="round" stroke-linejoin="round" stroke-width="3"/>
    <path id="Path_75" data-name="Path 75" d="M47.949,29.77c-4.332,1.5-6.037,2.423-7.54,7.675S35.09,58.25,35.09,58.25" transform="translate(11.055 9.173)" fill="none" stroke="#7eb6ae" stroke-linecap="round" stroke-linejoin="round" stroke-width="3"/>
  </g>
</svg>
