<svg xmlns="http://www.w3.org/2000/svg" width="20.27" height="20.266" viewBox="0 0 20.27 20.266">
  <path id="Icon_awesome-instagram" data-name="Icon awesome-instagram" d="M10.135,6.18a5.2,5.2,0,1,0,5.2,5.2A5.188,5.188,0,0,0,10.135,6.18Zm0,8.574a3.378,3.378,0,1,1,3.378-3.378A3.384,3.384,0,0,1,10.135,14.754Zm6.62-8.786a1.212,1.212,0,1,1-1.212-1.212A1.209,1.209,0,0,1,16.755,5.968ZM20.2,7.2a6,6,0,0,0-1.637-4.246,6.037,6.037,0,0,0-4.246-1.637c-1.673-.095-6.688-.095-8.361,0A6.028,6.028,0,0,0,1.705,2.947,6.017,6.017,0,0,0,.068,7.193c-.095,1.673-.095,6.688,0,8.361A6,6,0,0,0,1.705,19.8a6.045,6.045,0,0,0,4.246,1.637c1.673.095,6.688.095,8.361,0A6,6,0,0,0,18.559,19.8,6.037,6.037,0,0,0,20.2,15.555C20.291,13.881,20.291,8.871,20.2,7.2ZM18.035,17.35a3.42,3.42,0,0,1-1.926,1.926c-1.334.529-4.5.407-5.974.407s-4.644.118-5.974-.407A3.42,3.42,0,0,1,2.234,17.35c-.529-1.334-.407-4.5-.407-5.974S1.71,6.732,2.234,5.4A3.42,3.42,0,0,1,4.161,3.476c1.334-.529,4.5-.407,5.974-.407s4.644-.118,5.974.407A3.42,3.42,0,0,1,18.035,5.4c.529,1.334.407,4.5.407,5.974S18.564,16.02,18.035,17.35Z" transform="translate(0.003 -1.243)" fill="#454545"/>
</svg>
