<svg xmlns="http://www.w3.org/2000/svg" width="764.764" height="812.542" viewBox="0 0 764.764 812.542">
  <g id="japan-map" transform="translate(0 0.064)">
    <path id="path2460" d="M336.138,583.651l-7.385-3.258V590.53l-1.665,2.9h-3.765l-5.43,4.344V600.3h-9.051l-4.562-3.765v-3.476l-2.317-3.4,6.516-7.82V574.6h-4.2l-2.172,1.448h-5.068l-16.074,1.81,2.679,2.172v2.9h2.172l-3.765,4.706v2.027l2.534,1.81L282.2,594.15h-1.81v4.344l11.078,8.544,4.127,1.448v1.81h-2.317l-.217,1.593h2.172v4.2l11.947,5.575h3.837v2.172h3.041l6.734-8.327,8.327-17.378,6.155-2.534v-4.344l-2.172-1.448,3.041-2.534v-3.62" transform="translate(12.711 26.049)" fill="#9cdfd6" stroke="#fff" stroke-linecap="round" stroke-linejoin="bevel" stroke-width="1"/>
    <path id="path3367" d="M67.07,670.1l-3.789,5.063v3.267L67.2,680l1.307-1.078V670.1Zm9.6,6.141-3.234,2.679H69.651l-1.862,2.319v12.152l-1.829,1.47v3.822l5.292,4.7v7.742l-3.1,5.651H65.959L63.8,714.4l-2.319,1.666,1.96,2.907,2.156,5.194,10.715,2.189,2.319,4.573h3.985l3.855-2.189V725.83L81.9,722.008v-7.023H80.071v-2.548L85,706.067v-4.475l-1.8-3.854V696.3l7.611-7.023h2.156V680l-4.933-2.319H84.808l-1.96,2.189H79.712ZM50.116,690.158,49.038,691.6l1.927,2.907h3.985l-2.515-4.345Zm-4.7,6.5-4.7,4.932v2.156l3.626-.719,3.953-6.37Z" transform="translate(1.845 30.379)" fill="#9cdfd6" stroke="#fff" stroke-linecap="round" stroke-linejoin="bevel" stroke-width="1"/>
    <path id="path2702" d="M121.263,646.451h3.62V645h4.127v4.924h8.182v-2.9h6.879V652.1l-6.734,5.937H135.02v4.344h1.448v3.258h-2.245l-12.309,28.818v6.661h1.448l-1.81,8.182a33.11,33.11,0,0,0-6.951,13.395l-.072.145-4.562-1.81-1.955-3.4,2.534-6.372-6.879-2.9-2.751-7.241H98.745l-2.679-1.593v-2.9h1.81v-3.476l-7.6-7.313v-4.634H101.5l2.9-2.317h2.9v-3.258l-1.81-2.027,2.679-2.534V668.39l-3.62-2.027v-6.155l2.172-2.317h1.81l10.571-14.119,2.172,2.679" transform="translate(4.092 29.185)" fill="#9cdfd6" stroke="#fff" stroke-linecap="round" stroke-linejoin="bevel" stroke-width="1"/>
    <path id="path3592" d="M108.684,625.3l7.6,7.82,3.475,11.585-10.571,14.119h-1.81l-2.172,2.317V667.3l3.62,2.027V672l-2.679,2.534,1.81,2.028v3.258h-2.9l-2.9,2.317H90.944l-4.924-2.317H82.763l-1.955,2.172H77.694l-3.041-3.62v-3.258l4.851-3.258v-2.534l4.2-4.706v-4.344l4.344-3.475v-1.81H81.17v-1.81l5.937-3.62v-4.706l-3.041-1.81v-2.317l-4.2-3.62,4.924-2.027,4.489-6.662h4.2l7.6,4.127h5.792v-5.43l1.81-1.81" transform="translate(3.384 28.348)" fill="#9cdfd6" stroke="#fff" stroke-linecap="round" stroke-linejoin="bevel" stroke-width="1"/>
    <path id="path3594" d="M78.835,658.359v-3.62l-2.9,3.113H73.767l-3.62,2.824v3.693l2.027,1.086h4.489l3.62-5.286-1.448-1.81m-10.282,9.63L69.06,656.4H63.63l-5.575,7.241V666.9l3.4,2.317H57.476V672.7l2.172,3.041,6.154-7.748h2.751" transform="translate(2.606 29.682)" fill="#9cdfd6" stroke="#fff" stroke-linecap="round" stroke-linejoin="bevel" stroke-width="1"/>
    <path id="path6853" d="M91.606,684.232v4.639H89.418l-7.579,7.023v1.437l1.8,3.855h5.423l4.149,2.515v1.96l-1.96,4.573H89.058l-1.8-3.136H84.354v4.214H87.98v4.835l1.078,1.829,1.437.359v9.049H89.058v2.385l-5.423,5.782,2.156,3.038,1.6-2.287h3.5l9.049-5.815v-2.516h6.86v-1.829L104.64,721.8h-2.025v-2.156L105,716.017h4.345l2.515-6.37L105,706.74l-2.744-7.219h-2.189l-2.679-1.6v-2.907h1.8v-3.463Zm7.219,66.314v2.907L95.232,757.8v6.5l-5.586,5.651v1.6l1.437,1.666v2.907l3.4-.392,2.025-1.633v-5.945l5.815-10.878v-6.729h-3.5Zm-24.761,19.4-5.651,3.038v3.985l2.907,3.855,6.37.131,3.626-3.985v-3.626l-3.626-3.4Z" transform="translate(3.101 31.019)" fill="#9cdfd6" stroke="#fff" stroke-linecap="round" stroke-linejoin="bevel" stroke-width="1"/>
    <path id="path7744" d="M91.528,614.22l9.413,6.155V633.19l-7.6-4.127h-4.2l-4.489,6.661-4.924,2.027v-6.878l-3.62-4.779A125.87,125.87,0,0,0,88.776,614.22h2.751" transform="translate(3.45 27.846)" fill="#9cdfd6" stroke="#fff" stroke-linecap="round" stroke-linejoin="bevel" stroke-width="1"/>
    <path id="path1669" d="M460.2,441.939l4.561,1.448v4.562l2.317,1.448-2.172,1.593V459.9l4.2,1.448v2.172l-3.476,6.661v3.837l3.62,3.62h6.154l3.838,2.534-3.476,1.448H470.7L456.223,477.2l-4.489,4.417v3.765h-3.258l-5.792,4.561h-3.113l-1.666,4.344-3.62-2.752v-2.9l-1.448-1.448v-8.327l2.027-1.448v-2.679l-2.389-3.62h-6.661l-2.751-3.258v-3.62l2.027-2.9,3.982-3.258V455.7h3.765l3.113-1.81v-1.955H442.1l2.172-4.2h3.258v-7.6l6.3-4.344,4.562,6.154h1.81" transform="translate(19.179 19.756)" fill="#9cdfd6" stroke="#fff" stroke-linecap="round" stroke-linejoin="bevel" stroke-width="1"/>
    <path id="path1629" d="M59.934,603.741l-2.319,4.573H54.348v2.548h3.757v3.953H54.479l-1.927-2.156H48.7l-2.319-1.437-1.437-1.666V612.3h-3.5l-5.194,9.408h3.4l3.822-3.463v-2.189L47.1,613.9v4.345L44.94,620.76l5.945,3.985h3.1v3.985l.065.065,6.435,2.319,1.47,1.6V638.5l1.96,2.025V643.2H60.849v-2.319H55.426v-7.938H53.4v-2.418H49.775v2.025l-2.515,1.96,1.8,2.189v4.7l1.829,2.025H53.63l2.319,4.345-3.985,7.611h2.875l6.893-8.2h6.533V645.75h4.312v3.985l-3.953,2.744v1.6l3.1,2.025h3.038v-1.829h2.548l4.181-4.345v-3.463l-3.267-4.7H74.242l-1.8,1.437H70.061l-1.437-1.8,3.822-2.548h1.6v-2.319l-2.679-5.064v-3.626l3.267-1.666,1.927-2.679,3.626,3.2a126.148,126.148,0,0,0,12.675-11.891h-8.33L72.8,608.674v-3.038L68.46,607.6v2.156H65.716v-2.874l-3.038-3.136H59.934Zm-36,10.943V617l3.267.359v-2.679Zm-3.1,4.345,2.515,2.319v-2.319Zm4.541,3.266-2.156,3.986-2.025,2.156v3.985H18.284l1.437,2.907v3.626l1.47,2.875,2.025-3.463V633.5h3.4v-3.626l-3.038,2.189v-3.855h1.8Zm-11.2,14.243v2.777l-3.136-1.666v2.744l2.417,2.515,2.319-3.1v-3.267Zm-12.9,3.626V645.1l1.666,2.156L.416,650.161H4.532L6.2,652.349v-3.626H9.464v1.8H12.7V648l-2.515-2.548v-2.907l-2.025-2.025-1.47,2.189H4.009Z" transform="translate(0.019 27.37)" fill="#9cdfd6" stroke="#fff" stroke-linecap="round" stroke-linejoin="bevel" stroke-width="1"/>
    <path id="path1635" fill="#48b8a6" stroke="#9cdfd6" stroke-linejoin="bevel" stroke-width="1"/>
    <path id="path3402" d="M87.108,589.024l-2.9,3.765V595.9l-3.258,2.9v2.534l-1.81,1.81H75.305l-1.81-2.752h-1.81l-2.679,2.9v6.01l11.73,6.154H91.814l9.413,6.155v-5.648L103.254,614l-6.589-6.154v-3.62l6.154-10.716.579-3.765-2.9-3.838H95.434L92.9,589.024H87.107" transform="translate(3.128 26.562)" fill="#9cdfd6" stroke="#fff" stroke-linecap="round" stroke-linejoin="bevel" stroke-width="1"/>
    <path id="path5163" d="M108.906,599.319l2.172,3.837a26.033,26.033,0,0,1,12.671,5.213v5.286h1.81v4.127l-3.258,3.258h-3.113l-12.309-2.9-11.44-10.281v-3.62l6.155-10.716.579-3.765,6.734-3.476-1.448,4.345,1.448,8.689" transform="translate(4.327 26.579)" fill="#9cdfd6" stroke="#fff" stroke-linecap="round" stroke-linejoin="bevel" stroke-width="1"/>
    <path id="path6051" d="M139.61,606.355v8.327l-5.068,4.489H130.2l-1.81,2.39,2.679,3.4h7.82v1.665h7.241l-3.837,4.707,3.62,2.534v1.955h4.562v1.81H147v4.924h5.43l-4.851,6.661-3.982,2.389v-2.534h-6.879v2.9h-8.182v-4.924H124.4V648.5h-3.62l-2.172-2.679-3.475-11.585-7.6-7.82-1.81,1.81v5.43H99.931V615.189l2.027-1.955,4.851,4.127,12.309,2.9h3.113L125.491,617v-4.127h-1.81v-5.286h2.172l3.62-5.068,3.041-1.593h2.751l4.344,5.43" transform="translate(4.53 27.243)" fill="#9cdfd6" stroke="#fff" stroke-linecap="round" stroke-linejoin="bevel" stroke-width="1"/>
    <path id="path9579" d="M52.814,586.713l-3.258,2.172v4.344l2.9,2.751,3.258-2.9v-3.258l-2.9-3.113" transform="translate(2.247 26.598)" fill="#9cdfd6" stroke="#fff" stroke-linecap="round" stroke-linejoin="bevel" stroke-width="1"/>
    <path id="path10467" d="M42.679,544.542,38.5,546.568v4.116l.588,2.908H36.309v5.782l-.653,1.111,5,3.234v-7.383L43.2,553.46h2.156v-5.1l1.829-2.025v-1.8Zm-9.963,18.1-1.96,5.423v5.815l2.679,1.437,6.011-9.931Z" transform="translate(1.394 24.687)" fill="#9cdfd6" stroke="#fff" stroke-linecap="round" stroke-linejoin="bevel" stroke-width="1"/>
    <path id="path11358" d="M218.735,614.406l-13.757,8.834-4.2,11.223-5.937,6.879h-3.114v7.6l-2.679,2.027v1.81l2.9,1.448v2.9h-2.751l-2.172-3.258h-7.385l-4.562-1.81v-3.475h2.9V645.9l-1.448-3.476-2.172-9.775h4.344l7.458-6.154v-8.834h6.517q4.562-12.019,13.4-18.319h6.661l3.258,1.665,2.389-3.258,8.616-.362,8.689,3.258,1.81-1.448H240.6v6.155l5.575,2.9v3.982l1.81,3.258h3.258q-4.851,4.2-5.72,15.423l-14.336-14.7-12.454-1.81" transform="translate(7.904 27.083)" fill="#9cdfd6" stroke="#fff" stroke-linecap="round" stroke-linejoin="bevel" stroke-width="1"/>
    <path id="path12246" d="M257.007,582.45H244.481l-7.241,5.213-3.041-2.9-10.716,4.417-2.317,2.317v6.879h3.765l8.689,3.258,1.81-1.448h3.113v6.154l5.575,2.9v3.983l1.81,3.258h3.258q4.634-6.517,14.554-12.526l4.127-1.81-3.62-2.172,2.027-2.172v-1.955l-2.027-3.475h-2.172v-6.3l2.751-2.9L262.8,580.64h-5.792v1.81" transform="translate(10.027 26.323)" fill="#9cdfd6" stroke="#fff" stroke-linecap="round" stroke-linejoin="bevel" stroke-width="1"/>
    <path id="path13134" d="M248.855,562.292l-2.156,2.189h-2.548l.359,2.385H246.7l1.6,1.8h4.9v-6.37ZM232,569.773l-2.385,2.156v2.189l-7.252,5.423-4.345-2.026,1.666,4.7v5.292l-2.679,2.385H223.8l10.715-4.443,3.038,2.908,7.252-5.194h12.544v-1.829l-7.611-3.463V575.2L248.3,574.02h-3.626l-.719-3.4-3.136,3.1h-2.875Z" transform="translate(9.838 25.491)" fill="#9cdfd6" stroke="#fff" stroke-linecap="round" stroke-linejoin="bevel" stroke-width="1"/>
    <path id="path14025" d="M207.112,599.908q-8.834,6.3-13.395,18.319H187.2v8.833l-7.458,6.154H175.4l2.172,9.775,1.448,3.476h-7.385l-5.286-7.6,3.258-2.534-1.955-5.648h3.4v-2.317l-2.534-2.534,2.751-1.665H166.2v-6.154l-2.172-2.317-7.241,4.489-1.665,2.028h-5.286l3.62-4.562h4.2l23.17-16.653v-7.024h2.317l2.027-6.01,7.385-5.068,6.879,9.775h5.648l11.947-1.448,2.751-2.462h6.806l-2.317,2.317v6.878l-4.851.362-2.389,3.258-3.258-1.665h-6.661" transform="translate(6.793 26.425)" fill="#9cdfd6" stroke="#fff" stroke-linecap="round" stroke-linejoin="bevel" stroke-width="1"/>
    <path id="path14913" d="M278.39,567.123l2.172-4.489-2.172-1.3-10.354,10.354v2.534l-2.9,1.955v3.114l2.027,3.258h4.489l1.81-2.172H276l1.448-2.172-2.9-2.39V570.6l3.837-3.475" transform="translate(12.02 25.448)" fill="#9cdfd6" stroke="#fff" stroke-linecap="round" stroke-linejoin="bevel" stroke-width="1"/>
    <path id="path15801" d="M143.583,566.2l-2.027-2.679v-11.44h-4.2l-13.54,13.395h-4.2V562.8h-3.041v1.593h-4.924l-2.9-1.448v3.62h-4.489v5.648h1.955v3.4l-3.041,2.9,1.955,3.114v6.661l4.127-3.765h3.693l3.982,4.127h5.575l2.389-3.041h2.317v2.317h2.9v-3.041L136.849,578v-3.837h4.489l3.548-3.331-1.3-1.376V566.2" transform="translate(4.678 25.029)" fill="#9cdfd6" stroke="#fff" stroke-linecap="round" stroke-linejoin="bevel" stroke-width="1"/>
    <path id="path1689" d="M144.8,571.162l-1.231-1.376-3.548,3.331h-4.489v3.837l-6.734,6.879,3.113,2.9,4.489-2.389h5.792v6.372h2.389l2.534-2.172,8.689,6.3,5.068-5.792v-9.2l-6.879-10.5-3.62,1.81H144.8" transform="translate(5.839 25.811)" fill="#9cdfd6" stroke="#fff" stroke-linecap="round" stroke-linejoin="bevel" stroke-width="1"/>
    <path id="path2577" d="M183.489,543.856l-6.517,3.258H164.3L159.45,551.1l-1.665,8.327-1.955,1.81v2.317l-2.751,2.172v4.924l6.879,10.5,1.81-6.372,7.023-5.286,3.838,2.39v1.955l3.4,4.561h6.879l6.154-5.648H196.3v-3.62l-4.344-8.834-7.241-3.475v-2.9l3.258-3.4-4.489-6.661" transform="translate(6.94 24.656)" fill="#9cdfd6" stroke="#fff" stroke-linecap="round" stroke-linejoin="bevel" stroke-width="1"/>
    <path id="path3465" d="M199.177,534.07l-1.665-1.448h-7.241l-8.109,9.2v2.607l4.489,6.661-3.258,3.4v2.9l7.241,3.476,4.344,8.834v3.62h2.969v-2.172h5.792l1.448-2.317h1.593V571.5h2.9l6.372-5.069v-3.982l-6.01-16.436v-8.544l-5.648-5.141-1.448,1.738h-3.765" transform="translate(8.258 24.133)" fill="#9cdfd6" stroke="#fff" stroke-linecap="round" stroke-linejoin="bevel" stroke-width="1"/>
    <path id="path4353" d="M216.893,529.24l-6.3,5.937-4.489.073,2.824,2.534v8.544l6.01,16.436v3.982h5.43l7.385-5.575V554.8l-5.937-6.154V537.639l-4.924-8.4" transform="translate(9.344 23.993)" fill="#9cdfd6" stroke="#fff" stroke-linecap="round" stroke-linejoin="bevel" stroke-width="1"/>
    <path id="path5241" d="M250.206,543.15l-4.127,1.665-24.98-.579v3.62l5.937,6.155v6.372l-3.693,2.824v3.114h3.548v2.389h2.534l4.851-1.665,4.924-5.937h4.489l7.82-7.6-1.3-4.924V543.15" transform="translate(10.023 24.624)" fill="#9cdfd6" stroke="#fff" stroke-linecap="round" stroke-linejoin="bevel" stroke-width="1"/>
    <path id="path6129" d="M255.656,530.2v5.213l-5.286,5.43V544.1l-4.127,1.665-24.98-.579V537.8l-4.924-8.4,6.372-6.082h15.205l1.376-1.3,3.837,1.086,5.648,7.1h6.879" transform="translate(9.808 23.665)" fill="#9cdfd6" stroke="#fff" stroke-linecap="round" stroke-linejoin="bevel" stroke-width="1"/>
    <path id="path7017" d="M278.563,533.1l4.779,7.1,3.4,1.665-3.765,20.418-13.974-9.558h-3.4v1.448h-4.344V552h-4.924l-2.172,2.172h-4.127l-1.3-4.924v-8.689l5.286-5.431v-5.213l5.43-3.476v2.172l6.3-.362,2.534,2.534h10.354l-.072,2.317" transform="translate(11.276 23.866)" fill="#9cdfd6" stroke="#fff" stroke-linecap="round" stroke-linejoin="bevel" stroke-width="1"/>
    <path id="path7905" d="M182.045,526.378l1.955,9.2v9.268l-6.517,3.258H164.812l-4.851,3.982-1.665,8.327-1.955,1.81v2.317l-2.751,2.172v4.924l-3.62,1.81h-5.575l-2.534-2.751v-3.258l-2.027-2.679v-11.44h3.475l15.35-14.481,7.965-5.575h2.172l1.665-1.665V530l3.4-4.706,4.344-2.172,3.838,3.258" transform="translate(6.339 23.715)" fill="#9cdfd6" stroke="#fff" stroke-linecap="round" stroke-linejoin="bevel" stroke-width="1"/>
    <path id="path8793" d="M204.858,515.471h4.489l2.172,5.286v3.982l-8.327,10.5h-3.765l-1.665-1.448h-7.241l-8.109,9.2v-6.661l-1.955-9.2-3.838-3.258,5.575-4.562v-2.39l-1.955-2.534h5.43l3.982-3.62h6.3l6.155-5.213,2.534,3.258h6.734l-2.9,2.172h-5.43l-1.81,1.593h-6.155l-2.751,3.476h3.258l3.476-2.027h3.62l2.172,1.448" transform="translate(8.007 22.919)" fill="#9cdfd6" stroke="#fff" stroke-linecap="round" stroke-linejoin="bevel" stroke-width="1"/>
    <path id="path9681" d="M226.388,512.313l-4.489-1.448H216.83l-2.389,4.127h-1.955l-3.982-3.041h-2.389l1.955,3.4,2.172,5.285v3.982l-6.879,8.761,2.824,2.607,4.489-.073L223.347,523.9h15.205l2.679-2.534v-3.259l-3.982-5.792H226.388" transform="translate(9.219 23.16)" fill="#9cdfd6" stroke="#fff" stroke-linecap="round" stroke-linejoin="bevel" stroke-width="1"/>
    <path id="path10569" d="M209.343,467.667l-3.626,4.345v3.822l3.5,2.189,2.319.523,3.463-2.189V472.24ZM198.694,479.46l-1.437.523v3.332l1.437,1.372Zm1.6.359v6.3l3.985-3.757Zm-4.475.653-1.47.457V483.8l1.47,1.372Zm2.515,5.651-1.078,1.078v.588h3.267Z" transform="translate(8.811 21.202)" fill="#9cdfd6" stroke="#fff" stroke-linecap="round" stroke-linejoin="bevel" stroke-width="1"/>
    <path id="path11460" d="M257.381,512.572l2.9,7.82v7.023l-5.43,3.476h-6.879l-5.648-7.1-3.838-1.086,1.3-1.231V518.22l-3.982-5.792,2.751-1.81,3.62,2.172,1.81-1.448h4.706L254.485,507h2.9v5.575" transform="translate(10.69 22.985)" fill="#9cdfd6" stroke="#fff" stroke-linecap="round" stroke-linejoin="bevel" stroke-width="1"/>
    <path id="path12348" d="M275.72,513.192l4.706,2.172h3.982l1.81,2.679-7.6,6.154-.145,7.6H268.118l-2.534-2.534-6.3.362v-9.2l-2.9-7.82v-5.575l4.489-2.027,2.172,1.448H275.72v6.734" transform="translate(11.623 22.894)" fill="#9cdfd6" stroke="#fff" stroke-linecap="round" stroke-linejoin="bevel" stroke-width="1"/>
    <path id="path13236" d="M309.86,522.978v10.137l-7.385,13.612h-3.982l-5.068-4.344H285.6l-3.4-1.666-4.779-7.1.072-2.317.145-7.6,7.6-6.154,4.2,5.648h2.317l7.965-5.286,10.137,5.068" transform="translate(12.577 23.463)" fill="#9cdfd6" stroke="#fff" stroke-linecap="round" stroke-linejoin="bevel" stroke-width="1"/>
    <path id="path14124" d="M288.778,511.021l5.069,4.706L300,509.573l2.172,3.258-2.389,2.027v3.765l-7.965,5.285H289.5l-6.01-8.327H279.51L274.8,513.41v-6.734h3.113l5.575-5.213h3.258v-1.3h5.792l1.665,4.2-5.43,6.661" transform="translate(12.458 22.674)" fill="#9cdfd6" stroke="#fff" stroke-linecap="round" stroke-linejoin="bevel" stroke-width="1"/>
    <path id="path15012" d="M302.151,545.5h-3.982l-5.069-4.345h-7.82l-3.915,20.719,8.327-4.851,4.857-.3,3.4,3.62v3.041h4.924l2.9-11.73v-3.838l-3.62-2.317" transform="translate(12.756 24.533)" fill="#9cdfd6" stroke="#fff" stroke-linecap="round" stroke-linejoin="bevel" stroke-width="1"/>
    <path id="path15900" d="M303.015,562.416h-4.924v3.113l-5.068,5.575-12.092,7.24,16.074-1.81,4.706-7.747,1.3-6.372" transform="translate(12.736 25.497)" fill="#9cdfd6" stroke="#fff" stroke-linecap="round" stroke-linejoin="bevel" stroke-width="1"/>
    <path id="path22124" d="M330.488,565.685h-5.937v-7.1l-1.665-1.448h-8.834l-3.837-1.448-4.489,7.241v3.258l1.81,1.81v14.843l-6.516,7.82,2.317,3.4v3.475l4.562,3.765h9.051v-2.534l5.43-4.344h3.765l1.665-2.9.145-14.264h-2.317v-4.924h1.955l4.344-2.9-1.448-3.765" transform="translate(13.646 25.192)" fill="#9cdfd6" stroke="#fff" stroke-linecap="round" stroke-linejoin="bevel" stroke-width="1"/>
    <path id="path23012" d="M313.762,522.726h-5.068v10.137l-7.385,13.612,3.62,2.317,5.213,8.327,3.838,1.448h8.833l1.665,1.448v-2.9l.507-4.344h-1.448l-7.023-3.765-1.665-4.2v-8.689h1.81V525.839l-2.9-3.113" transform="translate(13.66 23.697)" fill="#9cdfd6" stroke="#fff" stroke-linecap="round" stroke-linejoin="bevel" stroke-width="1"/>
    <path id="path23921" d="M307.684,575.789l.2-7.44-1.736-1.971.042-3.342,4.179-6.811-4.913-7.726-.3,3.236-2.874,10.728-1.191,6.559-4.682,8.141,4.907.118,2.324-1.6,3.947.212" transform="translate(13.438 24.866)" fill="#9cdfd6" stroke="#fff" stroke-linecap="round" stroke-linejoin="bevel" stroke-width="1"/>
    <path id="path30926" d="M325.138,515.616l-8.11,5.937h-3.113v1.81h-5.068L298.71,518.3V514.53L301.1,512.5l1.81,2.172h3.4v1.81h5.068l-1.955-3.041V512h2.534l1.81,2.172,2.317-2.389v-3.4H319.2v1.593h5.937v5.648" transform="translate(13.542 23.047)" fill="#9cdfd6" stroke="#fff" stroke-linecap="round" stroke-linejoin="bevel" stroke-width="1"/>
    <path id="path31814" d="M356.3,492.887l3.837,4.344v2.679l-3.62,2.39H339.137l-4.272,5.43H330.3v4.706l-6.154,4.706v-5.648H321.18V504.11h2.969v4.127h3.258v-7.023l-4.924-3.62v-8.544l7.6-12.454,4.706-2.172,3.475,3.258v3.765l3.982,2.172h4.127l4.2,2.9h5.72v6.372" transform="translate(14.561 21.508)" fill="#9cdfd6" stroke="#fff" stroke-linecap="round" stroke-linejoin="bevel" stroke-width="1"/>
    <path id="path1781" d="M361.358,445.607v3.475l-3.838,5.793V463.2h1.81v3.765l-2.317,1.81v7.6l1.955,1.448v4.561l-3.331,5.575h-5.72l-4.2-2.9h-4.127l-3.982-2.172v-3.765l-3.475-3.258,2.245-2.172v-1.448h3.041l5.792-8.327,6.01-7.241,5.793-13.4,4.344,2.317" transform="translate(15.148 20.096)" fill="#9cdfd6" stroke="#fff" stroke-linecap="round" stroke-linejoin="bevel" stroke-width="1"/>
    <path id="path2669" d="M371.51,425.208l-4.272,5.43-3.982-2.679-2.389,5.937v2.389l4.2,1.81,3.765-2.9v7.385h-4.344l-3.91,4.344-4.344-2.317v-3.258l-2.389-2.9V433.39l-1.3-.724v-4.924h1.448v-5.575l6.517-3.982h6.01l6.879-5.069h6.878l2.172,2.172v2.534h-4.2v3.693l-3.4,3.693H371.51m-7.675,9.775v-2.172h3.982l-1.448,2.172h-2.534" transform="translate(15.982 18.729)" fill="#9cdfd6" stroke="#fff" stroke-linecap="round" stroke-linejoin="bevel" stroke-width="1"/>
    <path id="path3557" d="M391.992,440.683h3.4l3.113,6.372v14.119l-7.1,11.73h-2.9l-4.851-2.9H373.021l-5.286,5.286-1.81,4.127h-2.751v-3.765h-3.62l-2.534,1.593-1.014-.724v-7.6l2.317-1.81v-3.765h-1.81V455.02l3.837-5.793v-3.475l3.91-4.344H368.6v2.027l-2.172,1.448v3.041l6.01,4.923h5.575l5.648-3.62v-5.286l8.327-3.258" transform="translate(16.139 19.978)" fill="#9cdfd6" stroke="#fff" stroke-linecap="round" stroke-linejoin="bevel" stroke-width="1"/>
    <path id="path4445" d="M471.562,359.714l-3.113,7.6-1.955,11.8-5.068,9.2-13.612,6.155-7.023,6.734-2.534,8.327-7.458,13.4-13.54,9.413v2.172h-6.879l-5.792,5.213-10.861,4.706,3.113,6.372v5.068l2.824-3.113v-4.489H406.9l2.172,3.258h9.413l8.182-9.992H430.8l2.751,1.81v4.2l2.172,2.317v5.648h7.6l2.172-4.2h3.258v-7.6l6.3-4.344,4.562,6.154h1.81v-6.3l-2.027-7.458h-1.81v-6.516l1.81-.362v-7.313l1.81-1.159h4.706l2.172-2.172h6.879v-6.517l4.924-6.734-4.924-5.792,2.534-5.937v-8.544l2.534-2.679h3.62l3.258-2.534-4.344-5.286h-2.534v-5.575l-8.471-4.924" transform="translate(17.849 16.308)" fill="#9cdfd6" stroke="#fff" stroke-linecap="round" stroke-linejoin="bevel" stroke-width="1"/>
    <path id="path5333" d="M424.349,380.652v4.2h4.344l1.448,1.448-2.9,5.937-4.344,4.2-4.706,3.041h-3.837V397.3l3.258-2.534,2.027-3.982-1.81-2.534-2.39,2.172v-7.385l7.458-9.268,2.534-2.317h2.172V374.5l-3.258,6.154" transform="translate(18.785 16.84)" fill="#9cdfd6" stroke="#fff" stroke-linecap="round" stroke-linejoin="bevel" stroke-width="1"/>
    <path id="path6236" d="M330.107,548.7H325.4l-1.448,3.041-.507,4.345v9.992h5.937l1.448,3.765L333,561.374v-8.689l-2.9-3.982" transform="translate(14.663 24.875)" fill="#9cdfd6" stroke="#fff" stroke-linecap="round" stroke-linejoin="bevel" stroke-width="1"/>
    <path id="path7124" d="M349.183,530.932l-1.955-2.027h-3.113l-2.534,2.751v7.6L334.7,549.4H330l2.9,3.982v8.689l-2.172,8.471-4.344,2.9H324.42v4.924h2.317l-.145,4.127,7.385,3.258v1.81l11.8-5.937,5.575-2.027,4.344-5.068V569.09l-9.775-6.661v-3.4h-1.593v-2.751l7.241-10.137,3.041-6.516-3.765-4.562h-1.665v-4.127" transform="translate(14.707 23.978)" fill="#9cdfd6" stroke="#fff" stroke-linecap="round" stroke-linejoin="bevel" stroke-width="1"/>
    <path id="path8012" d="M358.694,567.322h-4.2v5.431l-4.344,5.068h3.982V581.3h5.286V575.5l1.955-2.389v-3.041h-2.679v-2.751" transform="translate(15.874 25.719)" fill="#9cdfd6" stroke="#fff" stroke-linecap="round" stroke-linejoin="bevel" stroke-width="1"/>
    <path id="path8900" d="M377.228,528.01H367.091V523.3H360l-6.154,2.534v2.679l-2.317,1.665.072,7.458,1.883,2.317h5.286v1.81l-1.665,1.448v6.155h1.81v6.879l3.62,2.534V548.646l4.562-6.878,3.62-2.172v-3.113l6.517-8.471" transform="translate(15.936 23.724)" fill="#9cdfd6" stroke="#fff" stroke-linecap="round" stroke-linejoin="bevel" stroke-width="1"/>
    <path id="path9788" d="M390.067,527.393V532.1h5.286v-2.027h3.765l1.81,2.172V535l-8.833,15.567-5.068,2.317v7.24l-17.233,5.648h-4.706v-2.027l3.838-3.4h5.213l6.155-2.9v-2.9l-1.448-1.665h-5.213v1.448h-6.879l-4.706-3.4v-2.534l4.562-6.879,3.62-2.172v-3.114l6.517-8.471,8.109,3.765,5.213-4.127" transform="translate(16.413 23.909)" fill="#9cdfd6" stroke="#fff" stroke-linecap="round" stroke-linejoin="bevel" stroke-width="1"/>
    <path id="path10676" d="M412.7,523.057l-12.888,9.413v2.751l-8.834,15.567-5.068,2.317v7.241l3.041-5.937h3.113l-2.172,3.62,3.4,2.679H408.5l9.413,3.475v-5.43l2.389-2.534h-3.475l-2.172-7.458v-2.317h1.3V530.659l-3.258-2.9v-4.706" transform="translate(17.495 23.713)" fill="#9cdfd6" stroke="#fff" stroke-linecap="round" stroke-linejoin="bevel" stroke-width="1"/>
    <path id="path11564" d="M452.2,524.417l-7.458-3.982v1.448l-7.965,1.81-3.041-2.9H431.2v10.716l-2.534,1.81h-2.751l-5.213-7.6h-3.62V520.29h1.593V515l-3.4-6.154-3.765,14.843V528.4l3.258,2.9V547.08h-1.3V549.4l2.172,7.458h3.475l4.851-9.63,5.575-4.127v-2.389l5.286-4.127h7.241l3.62,2.9,5.575-6.516-1.593-1.81v-2.9l2.534-3.837" transform="translate(18.656 23.069)" fill="#9cdfd6" stroke="#fff" stroke-linecap="round" stroke-linejoin="bevel" stroke-width="1"/>
    <path id="path12452" d="M450.076,531.982,444.5,538.5v2.172h-5.286v15.567h-1.593v2.9l4.127,3.765h3.475l4.127-4.127,4.706-9.992h1.81v-5.068L453.7,541.54V535.6l-3.62-3.62" transform="translate(19.839 24.117)" fill="#9cdfd6" stroke="#fff" stroke-linecap="round" stroke-linejoin="bevel" stroke-width="1"/>
    <path id="path13340" d="M455.116,513.3l-11.8,7.241,7.458,3.982-2.534,3.838v2.9l5.213,5.431,2.027-2.172v-3.258l9.63-6.372h6.661l3.113,2.389,2.172,5.068V535.6h1.593v-5.068l3.475-2.172V526.7h-3.838v-5.068h-2.317l-8.182-8.472-12.671-6.516V513.3" transform="translate(20.098 22.968)" fill="#9cdfd6" stroke="#fff" stroke-linecap="round" stroke-linejoin="bevel" stroke-width="1"/>
    <path id="path14228" d="M438.079,495.4l-2.534,2.679h-2.679v-2.172h-5.648l-3.4-3.765H422.15l-2.172,5.213H417.3l-2.172,4.344v7.965l3.4,6.155v5.286h-1.593v5.43h3.62l5.213,7.6h2.751l2.534-1.81V521.615h2.534l3.041,2.9,7.965-1.81v-1.448l11.8-7.241v-6.661l-7.458-3.258-4.344-6.372-6.517-2.317" transform="translate(18.82 22.311)" fill="#9cdfd6" stroke="#fff" stroke-linecap="round" stroke-linejoin="bevel" stroke-width="1"/>
    <path id="path15116" d="M488.869,495.493v9.63l1.086,1.81v3.4h-6.01v3.982l-5.213,3.838v4.851h-2.317l-8.182-8.471L448.1,504.761l-4.344-6.372-6.517-2.317v-3.62l1.665-4.344h3.113l5.792-4.561h3.258v-3.765l4.489-4.417,14.481,4.417h5.068l3.476-1.448,7.747,17.16h2.534" transform="translate(19.822 21.55)" fill="#9cdfd6" stroke="#fff" stroke-linecap="round" stroke-linejoin="bevel" stroke-width="1"/>
    <path id="path16004" d="M499.665,534.327l-8.11,5.43v3.982L488.08,547h-3.62l-3.258-5.793h4.562l-2.751-2.9,1.448-2.9-1.81-1.448v-3.62l3.113-1.738v2.1H491.7v-1.448h6.734l7.6,3.113-6.372,1.955" transform="translate(21.815 23.964)" fill="#9cdfd6" stroke="#fff" stroke-linecap="round" stroke-linejoin="bevel" stroke-width="1"/>
    <path id="path16892" d="M504.378,511.194l-3.114,1.521h-5.5L487.87,519.3v1.665l-4.924,3.765v3.113H485.7v4.127h5.937v-1.448h6.734l7.6,3.114,3.113-2.9,1.086-3.258v-4.562h-1.448v-4.851l3.765-7.1,4.562-4.127-5.286-3.475H508l-3.62,7.82" transform="translate(21.894 22.82)" fill="#9cdfd6" stroke="#fff" stroke-linecap="round" stroke-linejoin="bevel" stroke-width="1"/>
    <path id="path17780" d="M476.8,478.4l7.747,17.16h2.534v9.63L488.17,507h3.258l5.43,4.706V513.3l-.8.652h5.5l3.113-1.521,3.62-7.82h3.765l5.286,3.476,4.706-3.113h7.386V502.8L513,494.838h-6.734l-11.223-5.068-3.258-3.258v-7.023l-7.385-4.924-7.6,3.837" transform="translate(21.616 21.514)" fill="#9cdfd6" stroke="#fff" stroke-linecap="round" stroke-linejoin="bevel" stroke-width="1"/>
    <path id="path18668" d="M515.394,440.6l-4.508,3.4H505.1l-3.985-3.332v2.973H502.2V465.2l-3.985,5.227-3.234-.359L484.1,476.211l7.383,4.933v7.023l3.267,3.267,11.2,5.063h6.762l14.537,7.023-12.381-21.527v-8.3l1.96-1.6v-7.971A43.444,43.444,0,0,1,525,447.268v-2.907l-5.423-3.757h-4.181Zm-11.009,42.14,4.475,2.515,4.214,8.2-4.7-1.307L499.812,488v-2.025l4.573,2.548,1.96-2.319-2.058-1.8Zm8.1.719,5.782,9.408.229,2.907-2.189-1.829-3.822-6.5Z" transform="translate(21.946 19.975)" fill="#9cdfd6" stroke="#fff" stroke-linecap="round" stroke-linejoin="bevel" stroke-width="1"/>
    <path id="path21305" d="M330.572,506.354v4.7l-14.243,10.617h-3.136V523.5l2.907,3.1V536.9h-1.8v8.689l1.666,4.182,7.023,3.789h1.437l1.437-3.038h9.441l6.86-10.159v-7.579l-2.515-5.1,2.744-4.541v-5.586l-2.254-3.528-2.319-.1-.229-3.757-2.45-3.822h-4.573Zm.392,9.767V518.8l4.181,6.141v2.907l-4.7,2.156-5.292,4.345v2.026h-3.757l-3.626,7.971V538.2l1.829-3.5v-2.875l5.063-5.586.131-6.141Z" transform="translate(14.198 22.955)" fill="#9cdfd6" stroke="#fff" stroke-linecap="round" stroke-linejoin="bevel" stroke-width="1"/>
    <path id="path23942" d="M364.88,494.437l-5.792-5.792h-3.476v3.62l3.838,4.344v2.679l-3.62,2.389H338.452l-4.272,5.43,2.462,3.837.217,3.765,2.317.073,2.245,3.548v5.575l-2.751,4.562,2.534,5.068,2.534-2.751h3.113l1.955,2.027v4.127h1.665l1.883,2.245-.072-7.458,2.317-1.665v-2.679l6.155-2.534h7.1v4.706h10.137l8.109,3.765,5.213-4.127,2.172-2.389,1.448-4.489v-6.372h-3.475l-1.81-2.679v-5.648l-4.2-2.9-8.978,4.344h-5.648l-2.317-1.955,3.765-3.837v-6.661l-1.593-2.172H364.88" transform="translate(15.15 22.153)" fill="#9cdfd6" stroke="#fff" stroke-linecap="round" stroke-linejoin="bevel" stroke-width="1"/>
    <path id="path24830" d="M391.555,477.175v-5.648h-2.9l-4.851-2.9H373.164l-5.286,5.286-1.81,4.127h-2.751v-3.765H359.7l-2.534,1.593.941.724v4.562l-3.331,5.575v2.752h3.475l5.793,5.792h5.792l1.593,2.172v6.661l-3.765,3.838,2.317,1.955h5.648l8.978-4.344-4.127-2.9v-1.593l2.9-3.475h3.62l5.648-8.327-3.765-5.213,2.679-6.879" transform="translate(16.083 21.245)" fill="#9cdfd6" stroke="#fff" stroke-linecap="round" stroke-linejoin="bevel" stroke-width="1"/>
    <path id="path25718" d="M427.336,437.917l-8.182,9.992h-9.413l-2.172-3.258h-7.241v4.489l-2.824,3.113V461.3l-7.1,11.73v5.648l-2.679,6.879,3.765,5.213-5.648,8.327h-3.62l-2.9,3.475v1.593l8.327,5.792v5.648l1.81,2.679h3.476v6.372l-1.448,4.489-2.172,2.389v4.706h5.286v-2.027h3.765l1.81,2.172,12.888-9.413,3.765-14.843v-7.965l2.172-4.344h2.679l2.172-5.213h1.665l3.4,3.765h5.648v2.172h2.679l2.534-2.679v-3.62l-3.62-2.751v-2.9l-1.448-1.448v-8.327l2.027-1.448V474.7l-2.389-3.62H427.7l-2.752-3.258V464.2l2.027-2.9,3.982-3.258v-2.389h3.765l3.113-1.81v-1.955h-1.448v-5.648l-2.172-2.317v-4.2l-2.751-1.81h-4.127" transform="translate(17.197 19.853)" fill="#9cdfd6" stroke="#fff" stroke-linecap="round" stroke-linejoin="bevel" stroke-width="1"/>
    <path id="path26606" d="M494.925,431.8q2.679,1.231,5.286,2.389l1.81,3.982v5.937h1.086v21.577l-3.982,5.213-3.258-.362L477.4,480.529l-3.838-2.534h-6.154l-3.62-3.62v-3.838l3.475-6.661V461.7l-4.2-1.448v-8.906l2.172-1.593-2.317-1.448v-4.562l16.436-9.2h2.027l4.344-4.562h3.041l6.154,1.81" transform="translate(20.986 19.493)" fill="#9cdfd6" stroke="#fff" stroke-linecap="round" stroke-linejoin="bevel" stroke-width="1"/>
    <path id="path27494" d="M519.837,201.736V207.3l-2.9,3.847v4.842l-2.534,3.485V225.4h6.155l6.7-1.81,3.982-5.566,2.9,2.9.226,11.675-4.525,8.327-2.308-3.213-3.575.09-.226-2.263-3.711-3.394-2.806,3.077v3.8l1.72-.136v1.946l-2.761,2.76-2.625-.045a67.8,67.8,0,0,1-3.8-18.011l-3.394-3.8-2.172,3.394-2.987.045-5.295-6.562.226,7.2-2.4,2.263,3.711,5.657-3.168,10.5L489.02,247.8l-6.245.045.136,3.032-4.48,3.575.045,2.67,4.028,3.847.045,5.023,7.557.045,2.172-2.082,6.788-.136,2.534,2.263,7.784-.136.5-.362-.5.407,3.258,2.534,1.81,7.376v6.879l3.032,7.965h2.308v.226l.091-.045v15.748l-4.933,9.775V325.5l3.484,4.706V344.1l-5.973,6.652,2.172,9.051-1.991,4.344v4.209l1.629,1.81v1.584l-5.43,12.671.543,7.331h0l-1.584,1.629h-2.9l-1.629,1.81v6.517h-.045l-4.571,7.6-1.946,1.81H492.5l-9.956-3.077h-5.385l-4.933,6.7v6.517h-6.879l-2.172,2.172h-4.706l-1.81,1.177v7.331l-1.81.362v6.517h1.81l2.036,7.422v6.336l4.571,1.448,16.427-9.232h2.036l4.344-4.525h3.032l6.154,1.81,2.625,1.131h.045l2.67,1.222,1.81,3.982V451.4l3.982,3.3h5.793l4.48-3.394h4.209l5.431,3.756-.045-4.842h5.25v-9.051l2.9-7.1V418.5l-1.448-6.652L528.255,397.5v-7.965l-.045-.045,3.077-7.6,3.032-3.258v-4.344h4.571v-3.032h6.516l4.887,4.48v3.62l2.534-1.81h2.534l-4.344-6.516v-5.2h1.991v-1.448l-1.629-1.674v-3.756h-2.534v-2.036l2.9-1.946v-4.706l4.525-4.344v-4.933l1.629-1.946h2.9l4.163-2.172v-4.706l3.8-4.254-1.674-1.81v-2.4l2.534-1.81h-3.258l2.172-5.792h1.81v-2.9l2.172-2.534v-3.032l-2.172-2.76h-3.394v-3.982h2.172v-8.463l-2.4-2.76v-4.706h-2.534l-2.67-2.534v-2.9h1.448v-2.308l-2.9-2.036v-4.706l-7.467-9.549-.045.091-3.349-3.847h-3.258l-4.887-10.137-.045-5.43-1.629-5.385-.226-8.689,1.81-2.263V214.181h1.313v-6.154h-1.991l-3.62,3.484h-5.611l-1.991-3.62-5.431-2.4-3.8-3.756Z" transform="translate(20.621 9.146)" fill="#9cdfd6" stroke="#fff" stroke-linecap="round" stroke-linejoin="bevel" stroke-width="1"/>
    <path id="path29270" d="M491.944,261.088l-2.036,2.308h-8.1l3.032,3.258v10.861l-5.747,10.227h-5.973v4.978l2.308,2.036h2.76v-2.172h5.43l2.308,3.032L487.6,305.98v5.2l-2.76,11.087-4.118,3.62V335.3l-1.539,6.29-1.448,7.467-9.549,11.223v3.756l8.462,4.933v5.566h2.534l4.344,5.295-3.258,2.534h-3.62l-2.534,2.67v8.553l-2.534,5.928,4.933,5.792h5.34l10,3.123h4.208l1.946-1.81,4.571-7.6V392.5l1.584-1.81h2.9l1.674-1.584-.588-7.331,5.43-12.671v-1.584l-1.584-1.81v-4.208l1.946-4.344-2.172-9.051,6.019-6.652V327.475l-3.485-4.706v-9.051l4.933-9.775V288.014h-2.4l-3.032-7.965v-6.879l-1.81-7.376-3.258-2.534h-7.965l-1.81-2.172h-7.014Z" transform="translate(21.225 11.836)" fill="#9cdfd6" stroke="#fff" stroke-linecap="round" stroke-linejoin="bevel" stroke-width="1"/>
    <g id="g36333" transform="translate(545.513 264.364)">
      <path id="path36339" fill="#9cdfd6" stroke="#fff" stroke-linejoin="bevel" stroke-width="1"/>
    </g>
    <path id="path3370" d="M518.873,261.641h-2.656l-1.027-1.572,1.064-1.572,3.709,1.2Z" transform="translate(23.356 11.719)" fill="#9cdfd6" stroke="#fff" stroke-linejoin="bevel" stroke-width="1"/>
    <path id="path2340" d="M518.447,172.087c7.055-5.062,18.989-27.555,39.433-12.962.8,1.411,2.44,2.458,6.308,2.552,4.834,5.926,8.785,7.441,12.761,9.077,5.845,3.773,13.013,5.736,18.858,7.02,6.282,1.38,6.732,6.718,12.577,9.187,2.811-.771-1.414-5.008,2.126-5.825,1.962-.949.958-10.115-1.708-12.577,2-5.619,9.221-18.924,13.4-23.8,4.483-5.227,17.819-17.419,25.292-17.432,16.936-.275,11.39,4.786,17.085,2.151-7.073-9.105,12.462-10.859,1.612-5.293,1.77,2.507,5.1.862,7.279,1.318,4.936-5.353,1.841-10.476,7.538-7.672,1.234-1.03-.219-6.062,11.756-3.787-3.857-6.324,11.744-8.891,9.044-12.944-8.21.582-8.76,7.445-13.848,6.836-2.459-.235-4.793,2.254-8.1-14.023,3.914.335,9.852-1.626-3.3-3.613-7.629-2.195-2.914-19.553.925-22.455,2.54-7.467,4.11-14.214,2.456-15.313-1.962,1.7-8.337,12-13.084,16.07-4.667,4-3.588,8.158-7.166,8.42-12.492,2.049-18.617-1.884-20.629-8.45-6.519-.413,2.576,1-1.929-.235,1.273,2.195-4.19,11.136-3-.109-1.126-2.605-.17.217-5.426-.719-2.239,6.011-15.422-.259-9.307-2.269-11.458-2.2-20.172-12.529-28.248-15.565C578.908,37.651,569.11,21.84,554.9,7.177c-2.876-3.83-6.205-6.45-10.4-6.761.827,5.034-6.605,1.762-11.012,14.779,6.872,18,10.955,27.184,8.745,33.916a16.932,16.932,0,0,1-3.486,13.923c-2.957,3.5,2.738,12.313.308,17.853,6.509-3.892,3.8,9.314-4.384,6.745-9.874,6.048-6.067,6.311-6.913,8.888.852,2.3.969,6.073,3.011,5.994-4.411,2.251,3.048,6.084,1.133,14.728-7.43,9.459-6.671,10.3-14.4,7.312,1.285-6-5.105-.016-9.347-.3-1.478-1.376-8.916-6.81-11.689-8.829-1.694.214,1.154,3.619-5.272,2.4-4.626,8.43,2.856,8.412,7.525,17.629-2.874,1.274-6.472,1.852-8.382,12.146-4.029.359-2.258-4.854-6.052-2.659.754,8.282-8.394,5.864-12.784,11.516,4.624,16.318-4.72,13.277-.877,19.723,2.129,3.256,5.035-.742,5.339,6.018,5.858,2.223,7.851,5.379,9.309,9.428,1.132,3.956-.9,6.59-1.969,9.384-4.371,7.117-2.836,13.391-1.17,19.646,8.213-2.551,9.316,3.3,8.186.471-1.119-10.7,10.015,1.443,7.642-16.282,3.975-.008,7.09-1.714,6.686-7.85l4.821,4.343c5.2-1.775,8.57.124,11.594,2.708a54.534,54.534,0,0,0,6.557-8.238l-8.668-4.833c-1.767-4.487-6.911-7.045-11.645-9.837l-5.426,1.376c-3.451-2.654-5.915-6.294-11.384-6.93.528-3.506,1.5-19.616,10.515-16.848,8.477-5.612,7.516,2.933,11.159,4.572,2.058,3.392,3.831,10.479,6.281,8.773Z" transform="translate(21.292 0.019)" fill="#9cdfd6" stroke="#fff" stroke-linecap="round" stroke-linejoin="bevel" stroke-width="1"/>
    <g id="g2342" transform="translate(596.112 136.76)">
      <path id="path2346" fill="#48b8a6" stroke="#9cdfd6" stroke-linejoin="bevel" stroke-width="1"/>
    </g>
    <path id="path3241" d="M694.34,50.138c1.454-4.613,1.446-9.325,5.9-11.8,3.142.273,3.7,2.269,4.258,4.263,16.681,1.755,7.371-4.668,12.568-2.665-3.173,11.625-3.29-1.022-9.8,11.056-9.39-1.055-7.568,7.747-13.067,7.344-2.82,3.971-.114,9.1-4.418,7.451.044,9.512-3.417,5.416-5.755,7.807-4.413.182-.99,10.1-2.336,12.318-.7-2.642-2.3-3.946-5.644-2.63l-1.717-5.606c2.925-6.054,5.786-5.529,12.072-12.694-.045-1.4,1.133-6.047,3.6-8.218.647-3.214,1.914-3.5,4.338-6.628Z" transform="translate(30.571 1.738)" fill="#9cdfd6" stroke="#9cdfd6" stroke-linecap="round" stroke-linejoin="bevel" stroke-width="1"/>
    <path id="path5015" d="M723.246,70.789c1.183-.349,2.871-3.419,4.793-3.419,2.059.508,1.537,3.223,3.941,4.375-2.131-.513-5.032,2.919-5.385,3.628-2.57,1.871-4.585,6.912-7.741.609a6.778,6.778,0,0,1-.453-2.653c0-1.688,3.4-1.819,4.845-2.54Z" transform="translate(32.568 3.054)" fill="#9cdfd6" stroke="#9cdfd6" stroke-width="1" fill-rule="evenodd"/>
    <path id="path4249" d="M522.59,20.3c-1.253,2.211-12.522.744-5.383-6.507C521.918,13.252,523.364,16.7,522.59,20.3Z" transform="translate(23.341 0.623)" fill="#9cdfd6" stroke="#9cdfd6" stroke-width="1" fill-rule="evenodd"/>
    <path id="path5136" d="M511.815,12.577c-1.254,2.211-4.918-9.009-.094-8.822C513.788,6.681,513.249,11.617,511.815,12.577Z" transform="translate(23.089 0.17)" fill="#9cdfd6" stroke="#9cdfd6" stroke-width="1" fill-rule="evenodd"/>
    <path id="path9953" d="M702.461,92.3c1.183-.349-2.75-4.246-.828-4.246,2.059.508,5.008-.91,4.933.738-.555.684-.429,1.538.236,2.471-2.824,2.25-3.364-.788-4.1,3.915-1.5.512-3.134,1.541-3.1-.007.04-1.688,1.42-2.15,2.861-2.871Z" transform="translate(31.716 3.988)" fill="#9cdfd6" stroke="#9cdfd6" stroke-width="1" fill-rule="evenodd"/>
    <path id="path10840" d="M697.308,95.308c-2.241.678-4.044-.774-3.511-2.322C697.854,91.948,697.116,94.629,697.308,95.308Z" transform="translate(31.449 4.205)" fill="#9cdfd6" stroke="#9cdfd6" stroke-width="1" fill-rule="evenodd"/>
    <path id="path10842" d="M711.432,83.89c-1.5.264-3.548.053-3.015-1.5C710.077,80.364,711.9,82.632,711.432,83.89Z" transform="translate(32.112 3.699)" fill="#9cdfd6" stroke="#9cdfd6" stroke-width="1" fill-rule="evenodd"/>
    <path id="path7264" d="M456.625,170.689c2.059.508,3.641-2.739,6.045-1.586,1.137,2.905-3.292.349-1.761,8.654-2.57,1.871-1.546,3.171-4.469,1.427C454.951,175.408,456.243,173.377,456.625,170.689Z" transform="translate(20.661 7.655)" fill="#9cdfd6" stroke="#9cdfd6" stroke-width="1" fill-rule="evenodd"/>
  </g>
</svg>
