<svg xmlns="http://www.w3.org/2000/svg" width="24.697" height="17.365" viewBox="0 0 24.697 17.365">
  <path id="Icon_awesome-youtube" data-name="Icon awesome-youtube" d="M24.764,5.217a3.1,3.1,0,0,0-2.183-2.2C20.655,2.5,12.932,2.5,12.932,2.5s-7.723,0-9.649.519A3.1,3.1,0,0,0,1.1,5.217,32.553,32.553,0,0,0,.583,11.2,32.553,32.553,0,0,0,1.1,17.183a3.057,3.057,0,0,0,2.183,2.163c1.926.519,9.649.519,9.649.519s7.723,0,9.649-.519a3.057,3.057,0,0,0,2.183-2.163A32.553,32.553,0,0,0,25.28,11.2a32.553,32.553,0,0,0-.516-5.983ZM10.406,14.872V7.528L16.861,11.2l-6.455,3.672Z" transform="translate(-0.583 -2.5)" fill="#454545"/>
</svg>
