<svg id="blancpain-logo" xmlns="http://www.w3.org/2000/svg" width="163.45" height="42.559" viewBox="0 0 163.45 42.559">
  <path id="Path_393" data-name="Path 393" d="M92.819,28.774,92.8,30.7c-2.514,1.839-4.427,1.839-7.245,1.839a8.438,8.438,0,0,1-6.825-3.45A6.156,6.156,0,0,1,80.155,20.8a10.434,10.434,0,0,1,8.515-1.951c1.168.488,2.74.975,3.228.524a1.034,1.034,0,0,0,.413-.75l.47.061v4.662H92c-1.987-5.028-9.71-4.179-9.71,2.677,0,7.117,7.514,5.762,10.529,2.748m36.571-9.8h8.8v.609c-2.657,0-2.431,1.146-2.431,1.835v8.707c0,1.193.6,1.558,2.479,1.558v.677h-8.894V31.73c1.652,0,2.518-.094,2.518-1.789V21.18c0-1.688-2.061-1.6-2.425-1.6Zm-98.109,0H21.71v.765c2.821,0,2.574,1.447,2.574,1.447l.08,8.6c0,1.287,0,2.011-2.669,2.011v.559h14.33l.9-4.77-1.055-.216c-.486,2.416-2.573,3.781-3.538,3.781H29.756a1.141,1.141,0,0,1-1.286-1.286V21.18c0-.482,0-1.367,2.736-1.367ZM53.766,30.105c.483.724.766,1.529,2.1,1.529l0,.721H47.494l0-.642c1.689,0,2.654-.16,1.765-1.608L48.3,28.416H43.4s-.163.406-.806,1.774-.32,1.524,1.527,1.524v.642H38.65v-.616a1.526,1.526,0,0,0,1.529-.91L45.8,18.968h1.214S53.284,29.381,53.766,30.105ZM43.879,27.3H47.5l-1.929-3.384Zm82.439,2.809c.476.724.763,1.529,2.093,1.529l0,.721h-8.365l0-.642c1.692,0,2.655-.16,1.767-1.608l-.962-1.689h-4.9s-.167.406-.81,1.774-.318,1.524,1.527,1.524v.642H111.2v-.616a1.526,1.526,0,0,0,1.529-.91l5.626-11.862h1.209S125.834,29.381,126.318,30.105ZM116.432,27.3h3.614l-1.929-3.384ZM71.158,20.859c0-1.106-1.249-1.127-2.048-1.127V19.17H74.9c0,.241-.059.5-.7.5a1.2,1.2,0,0,0-1.3,1.189v11.5h-.811L60.907,22.707v7.078c0,1.669.7,1.906,2.308,1.906l-.018.664h-6.24v-.683c2.1,0,2.172-.44,2.172-1.888V20.778a6.983,6.983,0,0,0-2-1.045V19.17h5.83l8.2,7.239Zm35.515-1.891s5.068-.2,5.068,3.257c0,3.919-3.62,4.283-8.866,4.283v3.6s-.6,1.567,2.352,1.567v.683H96.538v-.683c1.571,0,2.294-.341,2.294-1.567V21.18c0-.362,0-1.367-2.294-1.367v-.845Zm-3.819,1.327v4.664c4.346,0,4.505-.707,4.505-2.575,0-2.249-1.128-2.088-4.505-2.088m57.941,12.387h-.721L144.865,19.17V29.785c0,1.124,1.213,1.608,2.66,1.608l.076.962h-7.08l-.075-.882c2.492,0,2.488-1.127,2.488-1.688l0-11.5c0-2.092-2.652-1.931-2.652-1.931V15.308h7.078l11.58,10.213-.078-7.717c0-1.532-2.9-1.369-2.9-1.369l.077-1.088h7.4v1.006c-2.172,0-2.656.724-2.656,1.531ZM12.045,15.629c5.549,0,6.456,2.975,6.456,3.941s.481,2.534-3.682,4.1c4.281.905,4.645,2.894,4.645,4.342s-.663,4.341-5.307,4.341H0v-.683c1.69,0,2.755-.522,2.755-1.567V18.3c0-1.689-.421-1.869-2.755-1.869v-.806Zm-3.5,1.77v5.609c3.376,0,5.127-1.086,5.127-3.138C13.674,18.241,11.922,16.435,8.546,17.4Zm0,7.4v6.055c4.283.663,6.032-.907,6.032-2.956,0-1.63-.724-3.742-6.032-3.1M80.249,0H77.035V.67h1.153V7.886H77.1l-.3.669h3.454ZM71.576,9.645h2.246l.424.608v2.728h-1.64V10.5h-.787Zm3.578-.059v.971h3.4l-2.123,2.424H78.37L80.675,10.5v-.91Zm6.553,1.063c0-1.277.667-1.245,1.515-1.245h3.638c1.394,0,1.094,1.7.547,1.7.547.365.668,2.064-.728,2.064H83.163a1.3,1.3,0,0,1-1.516-1.336H83.1c0,.3.244.366.789.366s2.244.3,2.244-.654H84.559v-.547h1.575c0-.678-.061-.741-2.3-.741-.485,0-.729.151-.729.4Zm8.609.3v-.726h4.189V9.492H88.8v1.933h4.068c.546,0,.541.984-.007.984H88.619s-.741.922,2.353.862,3.9-.381,3.9-1.413c0-.789-.368-.909-1.277-.909ZM86.316,0c4.3.184,3.943,3.881,1.276,4.247a2.155,2.155,0,0,1,2.245,2c0,2.606-2.368,2.3-8.251,2.3V0Zm-2,.851V3.58c1.883,0,2.425-.606,2.425-1.272S86.255.547,84.312.851ZM84.254,4.61V7.825c1.88,0,2.91,0,2.91-1.64S85.041,4.61,84.254,4.61M3,42.445,1.139,38.393v3.218a.967.967,0,0,0,.1.553.518.518,0,0,0,.415.152h.17v.13H.144v-.13h.17a.489.489,0,0,0,.434-.188,1.071,1.071,0,0,0,.078-.517V38.464A1.093,1.093,0,0,0,.755,38a.394.394,0,0,0-.185-.171.95.95,0,0,0-.426-.071v-.129H1.508L3.254,41.4l1.719-3.767H6.338v.129H6.17a.493.493,0,0,0-.435.184,1.079,1.079,0,0,0-.079.519v3.147a.941.941,0,0,0,.1.553.516.516,0,0,0,.414.152h.167v.13H4.292v-.13h.171a.482.482,0,0,0,.433-.188,1.074,1.074,0,0,0,.078-.517V38.393L3.115,42.445Z" fill="#254558"/>
  <path id="Path_394" data-name="Path 394" d="M13.564,56.4H11.7l-.327.76a1.173,1.173,0,0,0-.12.42.252.252,0,0,0,.1.193.908.908,0,0,0,.454.11v.13H10.3v-.13a.764.764,0,0,0,.389-.142,2.145,2.145,0,0,0,.4-.69L12.78,53.09H12.9L14.581,57.1a1.868,1.868,0,0,0,.366.626.768.768,0,0,0,.461.163v.13h-1.9v-.13a.708.708,0,0,0,.388-.1.252.252,0,0,0,.1-.2,1.459,1.459,0,0,0-.141-.495Zm-.1-.265L12.648,54.2l-.838,1.943Z" transform="translate(-3.019 -15.57)" fill="#254558" fill-rule="evenodd"/>
  <path id="Path_395" data-name="Path 395" d="M18.538,53.248h1.307l2.944,3.609V54.08a.954.954,0,0,0-.1-.553.528.528,0,0,0-.415-.15h-.167v-.129h1.676v.129h-.17a.5.5,0,0,0-.434.184,1.075,1.075,0,0,0-.078.519v4.06h-.128L19.8,54.263v2.965a.978.978,0,0,0,.1.553.526.526,0,0,0,.416.152h.168v.13H18.8v-.13h.166a.492.492,0,0,0,.437-.188,1.045,1.045,0,0,0,.078-.517v-3.35a2.017,2.017,0,0,0-.319-.322,1.153,1.153,0,0,0-.317-.146,1.053,1.053,0,0,0-.313-.033Zm9.546.129v-.129h1.7v.129h-.181a.487.487,0,0,0-.435.24,1.063,1.063,0,0,0-.076.51V56.08a3.441,3.441,0,0,1-.144,1.127,1.44,1.44,0,0,1-.565.686,2.016,2.016,0,0,1-1.143.283,2.165,2.165,0,0,1-1.2-.272,1.49,1.49,0,0,1-.58-.738,4.1,4.1,0,0,1-.113-1.183V54.1a.933.933,0,0,0-.124-.582.5.5,0,0,0-.394-.138h-.182v-.129h2.081v.129h-.184a.479.479,0,0,0-.426.19,1.051,1.051,0,0,0-.088.53v2.1a4.769,4.769,0,0,0,.049.644,1.429,1.429,0,0,0,.187.565,1.023,1.023,0,0,0,.388.331,1.328,1.328,0,0,0,.625.134,1.726,1.726,0,0,0,.845-.207,1.079,1.079,0,0,0,.508-.527,3,3,0,0,0,.138-1.087V54.1a.993.993,0,0,0-.1-.565.524.524,0,0,0-.411-.155Zm4,.133V55.4h.876a.628.628,0,0,0,.44-.131.883.883,0,0,0,.189-.529h.131v1.63h-.131a.946.946,0,0,0-.076-.411.445.445,0,0,0-.192-.2.79.79,0,0,0-.361-.066h-.878V57.21a1.6,1.6,0,0,0,.047.483.335.335,0,0,0,.148.153.673.673,0,0,0,.327.086h.174v.13H30.711v-.13h.171a.507.507,0,0,0,.432-.178,1.048,1.048,0,0,0,.087-.544V54.1a1.616,1.616,0,0,0-.047-.481.324.324,0,0,0-.146-.155.671.671,0,0,0-.326-.085h-.171v-.13h3.582l.046,1.057h-.122A1.456,1.456,0,0,0,34,53.81a.718.718,0,0,0-.3-.232,1.641,1.641,0,0,0-.553-.069Z" transform="translate(-5.437 -15.616)" fill="#254558"/>
  <path id="Path_396" data-name="Path 396" d="M45.7,56.4H43.836l-.327.76a1.22,1.22,0,0,0-.12.42.251.251,0,0,0,.1.193.9.9,0,0,0,.454.11v.13H42.43v-.13a.767.767,0,0,0,.39-.142,2.1,2.1,0,0,0,.4-.69l1.7-3.963h.124L46.716,57.1a1.907,1.907,0,0,0,.365.626.77.77,0,0,0,.461.163v.13h-1.9v-.13a.705.705,0,0,0,.387-.1.249.249,0,0,0,.1-.2,1.459,1.459,0,0,0-.141-.495Zm-.1-.265L44.783,54.2l-.837,1.943Z" transform="translate(-12.444 -15.57)" fill="#254558" fill-rule="evenodd"/>
  <path id="Path_397" data-name="Path 397" d="M55.3,53.09l.108,1.635H55.3a2.078,2.078,0,0,0-.631-1.057,1.534,1.534,0,0,0-.98-.324,1.577,1.577,0,0,0-.866.247,1.6,1.6,0,0,0-.61.774,3.433,3.433,0,0,0-.221,1.324,2.821,2.821,0,0,0,.21,1.133,1.577,1.577,0,0,0,.629.734,1.822,1.822,0,0,0,.962.258,1.668,1.668,0,0,0,.829-.2,2.793,2.793,0,0,0,.787-.8l.11.073a2.546,2.546,0,0,1-.844.941,2.377,2.377,0,0,1-3-.59,2.542,2.542,0,0,1-.491-1.555,2.753,2.753,0,0,1,.324-1.324,2.334,2.334,0,0,1,.888-.936,2.409,2.409,0,0,1,1.239-.333,2.274,2.274,0,0,1,1.031.254.529.529,0,0,0,.212.078.225.225,0,0,0,.167-.069.53.53,0,0,0,.132-.264Zm5.406.112.053,1.128h-.134a1.34,1.34,0,0,0-.107-.426.678.678,0,0,0-.3-.3.986.986,0,0,0-.478-.1h-.678v3.68a.985.985,0,0,0,.095.553.531.531,0,0,0,.417.152h.166v.13H57.7v-.13h.172A.485.485,0,0,0,58.3,57.7a1.053,1.053,0,0,0,.078-.517V53.5h-.578a1.759,1.759,0,0,0-.48.048.666.666,0,0,0-.315.262,1.033,1.033,0,0,0-.158.518h-.134l.057-1.128Zm4.431.129V53.2h1.7v.129h-.18a.49.49,0,0,0-.437.24,1.085,1.085,0,0,0-.075.51v1.953A3.457,3.457,0,0,1,66,57.16a1.426,1.426,0,0,1-.565.686,2.012,2.012,0,0,1-1.143.283,2.168,2.168,0,0,1-1.2-.272,1.491,1.491,0,0,1-.578-.738,4.007,4.007,0,0,1-.114-1.183V54.051a.939.939,0,0,0-.124-.582.5.5,0,0,0-.394-.138h-.181V53.2h2.081v.129H63.6a.475.475,0,0,0-.425.19,1.035,1.035,0,0,0-.088.53v2.1a4.887,4.887,0,0,0,.049.644,1.417,1.417,0,0,0,.188.565,1,1,0,0,0,.388.331,1.323,1.323,0,0,0,.625.134,1.728,1.728,0,0,0,.845-.207,1.087,1.087,0,0,0,.509-.527A3.017,3.017,0,0,0,65.831,56V54.051a1.012,1.012,0,0,0-.1-.565.529.529,0,0,0-.413-.155Z" transform="translate(-15.01 -15.57)" fill="#254558"/>
  <path id="Path_398" data-name="Path 398" d="M79.448,58.062H78.162l-1.628-2.252c-.123,0-.221.007-.3.007h-.1l-.11-.007v1.4a.985.985,0,0,0,.1.563.5.5,0,0,0,.406.159h.185v.13H74.658v-.13h.18a.483.483,0,0,0,.438-.2,1.142,1.142,0,0,0,.073-.519V54.1a.981.981,0,0,0-.1-.565.524.524,0,0,0-.411-.155h-.18v-.129h1.753a4.007,4.007,0,0,1,1.129.113,1.261,1.261,0,0,1,.618.41,1.062,1.062,0,0,1,.256.715,1.122,1.122,0,0,1-.291.77,1.631,1.631,0,0,1-.895.461l1,1.382a2.41,2.41,0,0,0,.587.629,1.412,1.412,0,0,0,.638.2Zm-3.421-2.476c.046,0,.083,0,.117,0h.083a1.548,1.548,0,0,0,1.036-.3.954.954,0,0,0,.351-.76.979.979,0,0,0-.283-.731,1,1,0,0,0-.746-.286,3.216,3.216,0,0,0-.558.067Z" transform="translate(-21.896 -15.617)" fill="#254558" fill-rule="evenodd"/>
  <path id="Path_399" data-name="Path 399" d="M83.956,53.51v1.9h1.057a.871.871,0,0,0,.551-.123.811.811,0,0,0,.207-.575h.13v1.674h-.13a1.815,1.815,0,0,0-.1-.449.461.461,0,0,0-.209-.2,1.087,1.087,0,0,0-.448-.071H83.956v1.585a1.485,1.485,0,0,0,.028.392.227.227,0,0,0,.1.109.6.6,0,0,0,.27.042h.817a2.131,2.131,0,0,0,.593-.059.9.9,0,0,0,.355-.223,2.645,2.645,0,0,0,.449-.662h.143L86.3,58.062H82.585v-.13h.172a.719.719,0,0,0,.322-.08.3.3,0,0,0,.152-.173,1.593,1.593,0,0,0,.042-.465v-3.13a1.028,1.028,0,0,0-.091-.564.543.543,0,0,0-.425-.143h-.172v-.129H86.3l.055,1.053h-.14a1.7,1.7,0,0,0-.167-.523.565.565,0,0,0-.266-.217,1.693,1.693,0,0,0-.5-.051Z" transform="translate(-24.221 -15.617)" fill="#254558"/>
  <path id="Path_400" data-name="Path 400" d="M93.468,58.062v-.13h.181a.48.48,0,0,0,.433-.2,1.116,1.116,0,0,0,.078-.524V54.1a1.006,1.006,0,0,0-.1-.565.528.528,0,0,0-.412-.155h-.182v-.129h1.96a4.251,4.251,0,0,1,1.642.245,1.94,1.94,0,0,1,.9.816,2.5,2.5,0,0,1,.346,1.319,2.417,2.417,0,0,1-.611,1.681,2.691,2.691,0,0,1-2.088.753Zm1.373-.351a3.509,3.509,0,0,0,.757.1,1.8,1.8,0,0,0,1.368-.58,2.547,2.547,0,0,0,0-3.141,1.83,1.83,0,0,0-1.4-.577,2.991,2.991,0,0,0-.728.1Z" transform="translate(-27.412 -15.617)" fill="#254558" fill-rule="evenodd"/>
  <path id="Path_401" data-name="Path 401" d="M103.335,53.51v1.9h1.058a.866.866,0,0,0,.55-.123.8.8,0,0,0,.206-.575h.133v1.674h-.133a1.836,1.836,0,0,0-.1-.449.459.459,0,0,0-.208-.2,1.094,1.094,0,0,0-.448-.071h-1.058v1.585a1.571,1.571,0,0,0,.028.392.233.233,0,0,0,.1.109.593.593,0,0,0,.271.042h.816a2.127,2.127,0,0,0,.594-.059.884.884,0,0,0,.355-.223,2.683,2.683,0,0,0,.45-.662h.143l-.417,1.206h-3.71v-.13h.17a.71.71,0,0,0,.322-.08.313.313,0,0,0,.154-.173,1.671,1.671,0,0,0,.04-.465v-3.13a1.026,1.026,0,0,0-.092-.564.538.538,0,0,0-.424-.143h-.171v-.129h3.71l.054,1.053h-.139a1.686,1.686,0,0,0-.166-.523.569.569,0,0,0-.266-.217,1.7,1.7,0,0,0-.5-.051Zm7.69,1.97h2.237V54.1a1.525,1.525,0,0,0-.046-.486.309.309,0,0,0-.149-.155.669.669,0,0,0-.325-.085h-.169v-.129h2.062v.129h-.172a.674.674,0,0,0-.324.083.306.306,0,0,0-.155.175,1.757,1.757,0,0,0-.037.467V57.21a1.6,1.6,0,0,0,.046.483.315.315,0,0,0,.146.153.656.656,0,0,0,.325.086h.172v.13h-2.062v-.13h.169a.508.508,0,0,0,.432-.178,1.021,1.021,0,0,0,.088-.544V55.743h-2.237V57.21a1.618,1.618,0,0,0,.046.483.333.333,0,0,0,.149.153.652.652,0,0,0,.324.086h.174v.13h-2.061v-.13h.17a.514.514,0,0,0,.434-.178,1.087,1.087,0,0,0,.085-.544V54.1a1.582,1.582,0,0,0-.047-.485.322.322,0,0,0-.146-.155.681.681,0,0,0-.325-.085h-.17v-.129h2.061v.129h-.174a.676.676,0,0,0-.324.083.307.307,0,0,0-.153.175,1.633,1.633,0,0,0-.042.467Z" transform="translate(-29.905 -15.617)" fill="#254558"/>
  <path id="Path_402" data-name="Path 402" d="M124.483,56.4H122.62l-.328.76a1.184,1.184,0,0,0-.119.42.247.247,0,0,0,.1.193.92.92,0,0,0,.454.11v.13h-1.514v-.13a.77.77,0,0,0,.389-.142,2.124,2.124,0,0,0,.4-.69l1.7-3.963h.123L125.5,57.1a1.88,1.88,0,0,0,.366.626.769.769,0,0,0,.463.163v.13h-1.9v-.13a.694.694,0,0,0,.386-.1.254.254,0,0,0,.105-.2,1.448,1.448,0,0,0-.144-.495Zm-.1-.265-.821-1.943-.836,1.943Z" transform="translate(-35.55 -15.57)" fill="#254558" fill-rule="evenodd"/>
  <path id="Path_403" data-name="Path 403" d="M133.078,53.377v-.129h1.706v.129H134.6a.492.492,0,0,0-.438.24,1.087,1.087,0,0,0-.074.51V56.08a3.519,3.519,0,0,1-.144,1.127,1.407,1.407,0,0,1-.568.686,2,2,0,0,1-1.141.283,2.157,2.157,0,0,1-1.2-.272,1.487,1.487,0,0,1-.58-.738,4.025,4.025,0,0,1-.115-1.183V54.1a.95.95,0,0,0-.123-.582.5.5,0,0,0-.394-.138h-.182v-.129h2.083v.129h-.184a.476.476,0,0,0-.428.19,1.035,1.035,0,0,0-.088.53v2.1a5.012,5.012,0,0,0,.049.644,1.385,1.385,0,0,0,.188.565,1,1,0,0,0,.388.331,1.32,1.32,0,0,0,.625.134,1.743,1.743,0,0,0,.846-.207,1.1,1.1,0,0,0,.509-.527,3.069,3.069,0,0,0,.135-1.087V54.1a1.031,1.031,0,0,0-.1-.565.533.533,0,0,0-.413-.155Zm6.719-.129.052,1.128h-.133a1.412,1.412,0,0,0-.105-.426.71.71,0,0,0-.3-.3.984.984,0,0,0-.48-.1h-.678v3.68a.956.956,0,0,0,.1.553.519.519,0,0,0,.415.152h.165v.13h-2.04v-.13h.167a.5.5,0,0,0,.437-.188,1.1,1.1,0,0,0,.078-.517v-3.68h-.58a1.762,1.762,0,0,0-.48.048.666.666,0,0,0-.315.262,1.006,1.006,0,0,0-.158.518h-.136l.057-1.128Zm2.482.262v1.9h1.059a.858.858,0,0,0,.548-.123.8.8,0,0,0,.208-.575h.13v1.674h-.13a1.883,1.883,0,0,0-.1-.449.482.482,0,0,0-.208-.2,1.106,1.106,0,0,0-.448-.071h-1.059v1.585a1.28,1.28,0,0,0,.03.392.223.223,0,0,0,.1.109.59.59,0,0,0,.269.042h.817a2.118,2.118,0,0,0,.593-.059.92.92,0,0,0,.357-.223,2.646,2.646,0,0,0,.449-.662h.141l-.414,1.206H140.91v-.13h.17a.72.72,0,0,0,.322-.08.308.308,0,0,0,.153-.173,1.636,1.636,0,0,0,.041-.465v-3.13a1.019,1.019,0,0,0-.092-.564.538.538,0,0,0-.424-.143h-.17v-.129h3.71l.054,1.053h-.138a1.586,1.586,0,0,0-.168-.523.572.572,0,0,0-.266-.217,1.688,1.688,0,0,0-.5-.051Zm7.837,1.97h2.237V54.1a1.8,1.8,0,0,0-.042-.486.338.338,0,0,0-.151-.155.671.671,0,0,0-.322-.085h-.173v-.129h2.06v.129h-.17a.677.677,0,0,0-.325.083.311.311,0,0,0-.154.175,1.65,1.65,0,0,0-.041.467V57.21a1.506,1.506,0,0,0,.048.483.332.332,0,0,0,.143.153.671.671,0,0,0,.328.086h.17v.13h-2.06v-.13h.173a.51.51,0,0,0,.429-.178,1.045,1.045,0,0,0,.086-.544V55.743h-2.237V57.21a1.7,1.7,0,0,0,.046.483.349.349,0,0,0,.152.153.64.64,0,0,0,.321.086h.176v.13h-2.064v-.13h.17a.515.515,0,0,0,.435-.178,1.082,1.082,0,0,0,.086-.544V54.1a1.5,1.5,0,0,0-.049-.485.331.331,0,0,0-.143-.155.7.7,0,0,0-.329-.085h-.17v-.129h2.064v.129h-.177a.664.664,0,0,0-.32.083.322.322,0,0,0-.155.175,1.633,1.633,0,0,0-.042.467Z" transform="translate(-38.023 -15.617)" fill="#254558"/>
  <path id="Path_404" data-name="Path 404" d="M167.724,53.09a2.184,2.184,0,0,1,1.625.714,2.478,2.478,0,0,1,.687,1.773,2.545,2.545,0,0,1-.691,1.823,2.318,2.318,0,0,1-3.35.018,2.534,2.534,0,0,1-.676-1.83,2.437,2.437,0,0,1,.782-1.871A2.3,2.3,0,0,1,167.724,53.09Zm-.069.259a1.271,1.271,0,0,0-1.035.479,2.71,2.71,0,0,0-.486,1.746,2.862,2.862,0,0,0,.5,1.816,1.25,1.25,0,0,0,1.022.485,1.394,1.394,0,0,0,1.119-.531,2.564,2.564,0,0,0,.445-1.668,2.919,2.919,0,0,0-.488-1.845,1.315,1.315,0,0,0-1.08-.483m8.3,4.667h-1.286l-1.63-2.252c-.122,0-.219.007-.293.007h-.1l-.107-.007v1.4a.98.98,0,0,0,.1.563.5.5,0,0,0,.4.159h.188v.13h-2.064v-.13h.182a.482.482,0,0,0,.436-.2,1.113,1.113,0,0,0,.075-.519V54.051a.994.994,0,0,0-.1-.565.53.53,0,0,0-.412-.155h-.182V53.2h1.753a4.029,4.029,0,0,1,1.131.113,1.265,1.265,0,0,1,.618.41,1.062,1.062,0,0,1,.255.715,1.122,1.122,0,0,1-.291.77,1.633,1.633,0,0,1-.9.461l1,1.382a2.484,2.484,0,0,0,.587.629,1.421,1.421,0,0,0,.639.2Zm-3.418-2.476c.044,0,.083,0,.113,0h.083a1.558,1.558,0,0,0,1.038-.3.959.959,0,0,0,.349-.76.986.986,0,0,0-.282-.731,1.009,1.009,0,0,0-.746-.286,3.2,3.2,0,0,0-.556.067Z" transform="translate(-48.485 -15.57)" fill="#254558" fill-rule="evenodd"/>
  <path id="Path_405" data-name="Path 405" d="M185.543,56.731l.115.023-.411,1.308h-3.729v-.13h.184a.477.477,0,0,0,.432-.2,1.091,1.091,0,0,0,.077-.523V54.1a.974.974,0,0,0-.1-.565.514.514,0,0,0-.408-.155h-.184v-.129h2.18v.129a1.335,1.335,0,0,0-.539.071.429.429,0,0,0-.211.19,1.591,1.591,0,0,0-.054.542v3.026a1.019,1.019,0,0,0,.054.4.27.27,0,0,0,.131.11,2.459,2.459,0,0,0,.558.035h.348a2.564,2.564,0,0,0,.778-.079,1,1,0,0,0,.407-.287,2.455,2.455,0,0,0,.373-.657" transform="translate(-53.236 -15.617)" fill="#254558"/>
  <path id="Path_406" data-name="Path 406" d="M191.395,53.09a2.172,2.172,0,0,1,1.622.714,2.451,2.451,0,0,1,.689,1.773,2.545,2.545,0,0,1-.691,1.823,2.317,2.317,0,0,1-3.349.018,2.541,2.541,0,0,1-.676-1.83,2.432,2.432,0,0,1,.782-1.871,2.3,2.3,0,0,1,1.623-.628Zm-.067.259a1.278,1.278,0,0,0-1.039.479,2.718,2.718,0,0,0-.488,1.746,2.863,2.863,0,0,0,.505,1.816,1.252,1.252,0,0,0,1.023.485,1.4,1.4,0,0,0,1.119-.531,2.568,2.568,0,0,0,.443-1.668,2.937,2.937,0,0,0-.485-1.845,1.316,1.316,0,0,0-1.079-.483" transform="translate(-55.427 -15.57)" fill="#254558" fill-rule="evenodd"/>
  <path id="Path_407" data-name="Path 407" d="M201.66,53.09l.124,1.52h-.124a2.059,2.059,0,0,0-.488-.856,1.512,1.512,0,0,0-1.105-.416,1.573,1.573,0,0,0-1.4.728,2.617,2.617,0,0,0-.4,1.463,2.921,2.921,0,0,0,.266,1.258,1.89,1.89,0,0,0,.7.834,1.675,1.675,0,0,0,.886.264,2.007,2.007,0,0,0,.518-.067,2.267,2.267,0,0,0,.478-.2V56.225a1.17,1.17,0,0,0-.058-.471.367.367,0,0,0-.168-.172.989.989,0,0,0-.408-.06v-.136h1.866v.136h-.09a.394.394,0,0,0-.379.187,1.247,1.247,0,0,0-.072.517V57.7a3.262,3.262,0,0,1-1.69.428,2.572,2.572,0,0,1-2.121-.895,2.387,2.387,0,0,1-.541-1.548,2.55,2.55,0,0,1,.3-1.218,2.583,2.583,0,0,1,.992-1.065A2.426,2.426,0,0,1,200,53.09a2.4,2.4,0,0,1,.477.042,4.036,4.036,0,0,1,.61.187,1,1,0,0,0,.267.077.15.15,0,0,0,.114-.061.489.489,0,0,0,.059-.246Zm3.036.374v1.9h1.059a.87.87,0,0,0,.548-.123.793.793,0,0,0,.207-.575h.133v1.674h-.133a1.739,1.739,0,0,0-.1-.449.444.444,0,0,0-.209-.2,1.084,1.084,0,0,0-.445-.071H204.7v1.585a1.52,1.52,0,0,0,.028.392.233.233,0,0,0,.1.109.586.586,0,0,0,.269.042h.816a2.129,2.129,0,0,0,.594-.059.863.863,0,0,0,.355-.223,2.8,2.8,0,0,0,.453-.662h.142l-.417,1.206h-3.71v-.13h.168a.721.721,0,0,0,.326-.08.3.3,0,0,0,.151-.173,1.593,1.593,0,0,0,.042-.465v-3.13a1.039,1.039,0,0,0-.092-.564.545.545,0,0,0-.428-.143h-.169V53.2h3.711l.054,1.053h-.138a1.759,1.759,0,0,0-.167-.523.563.563,0,0,0-.266-.217,1.7,1.7,0,0,0-.5-.051Z" transform="translate(-57.91 -15.57)" fill="#254558"/>
  <path id="Path_408" data-name="Path 408" d="M217.832,58.062h-1.288l-1.625-2.252c-.122,0-.22.007-.3.007h-.1c-.034,0-.075-.006-.109-.007v1.4a1,1,0,0,0,.1.563.5.5,0,0,0,.406.159h.187v.13H213.04v-.13h.183a.475.475,0,0,0,.435-.2,1.056,1.056,0,0,0,.078-.519V54.1a.96.96,0,0,0-.1-.565.524.524,0,0,0-.411-.155h-.183v-.129H214.8a4.011,4.011,0,0,1,1.129.113,1.257,1.257,0,0,1,.617.41,1.063,1.063,0,0,1,.257.715,1.123,1.123,0,0,1-.292.77,1.633,1.633,0,0,1-.9.461l1,1.382a2.363,2.363,0,0,0,.584.629,1.435,1.435,0,0,0,.639.2Zm-3.419-2.476c.045,0,.083,0,.115,0h.081a1.566,1.566,0,0,0,1.042-.3.961.961,0,0,0,.349-.76.989.989,0,0,0-.283-.731,1.011,1.011,0,0,0-.748-.286,3.18,3.18,0,0,0-.556.067Z" transform="translate(-62.481 -15.617)" fill="#254558" fill-rule="evenodd"/>
  <path id="Path_409" data-name="Path 409" d="M223.08,57.932v.13h-2.066v-.13h.173a.509.509,0,0,0,.431-.178,1.074,1.074,0,0,0,.086-.544V54.1a1.567,1.567,0,0,0-.047-.481.327.327,0,0,0-.145-.155.7.7,0,0,0-.326-.085h-.173v-.129h2.066v.129h-.175a.507.507,0,0,0-.432.175,1.044,1.044,0,0,0-.088.546V57.21a1.7,1.7,0,0,0,.046.483.337.337,0,0,0,.149.153.645.645,0,0,0,.325.086ZM225.5,53.51v1.9h1.055a.863.863,0,0,0,.551-.123.8.8,0,0,0,.207-.575h.131v1.674h-.131a1.847,1.847,0,0,0-.1-.449.472.472,0,0,0-.208-.2,1.1,1.1,0,0,0-.451-.071H225.5v1.585a1.641,1.641,0,0,0,.026.392.225.225,0,0,0,.1.109.591.591,0,0,0,.27.042h.816a2.1,2.1,0,0,0,.591-.059.883.883,0,0,0,.357-.223,2.721,2.721,0,0,0,.451-.662h.141l-.413,1.206h-3.714v-.13h.17a.717.717,0,0,0,.324-.08.313.313,0,0,0,.153-.173,1.567,1.567,0,0,0,.042-.465v-3.13a1.032,1.032,0,0,0-.092-.564.546.546,0,0,0-.428-.143h-.17v-.129h3.714L227.9,54.3h-.135a1.671,1.671,0,0,0-.169-.523.574.574,0,0,0-.267-.217,1.669,1.669,0,0,0-.5-.051Z" transform="translate(-64.819 -15.617)" fill="#254558"/>
</svg>
