<svg xmlns="http://www.w3.org/2000/svg" width="81.355" height="50.865" viewBox="0 0 81.355 50.865">
  <g id="breguet" transform="translate(-8.504 -36.016)">
    <path id="Path_411" data-name="Path 411" d="M30.749,94.462c-4.812,7.311-10.81,9.373-15.059,9.373-4.061,0-7.186-1.749-7.186-4.812,0-3.686,4.874-7.186,9.123-7.186,2,0,3.749,1.25,3.749,3.062,0,1.687-1.562,4.311-5.623,4.311a7.813,7.813,0,0,1-2.749-.5,15.434,15.434,0,0,0,2.437.25c3.437,0,5-2.062,5-3.937a2.862,2.862,0,0,0-3-2.874c-4.124,0-7.686,3.25-7.686,6.811,0,3.187,3.374,4.624,5.936,4.624,2.5,0,7.5-.562,12.747-8.247,3.249-4.687,7.56-9.5,14-11C37,86.4,35.31,87.464,30.749,94.462Z" transform="translate(0 -25.954)" fill="#254558" fill-rule="evenodd"/>
    <path id="Path_412" data-name="Path 412" d="M37.53,101.631c1.812.063,4.5-1.938,4.5-3.687a1.366,1.366,0,0,0-1.437-1.374,6.2,6.2,0,0,0-5.748,5.311,2.853,2.853,0,0,0,3,2.749c3.5,0,8.123-4.124,8.123-7.373,0-1.812-.937-1.875-1.624-1.875-.5,0-.75.125-.75.313,0,.25.375.375.562.375,2.312,0,6.436-3.562,6.436-6.624A2.237,2.237,0,0,0,48.028,87.2c-3.624,0-5.873,2.937-8.061,5.936-2.124,2.938-6.124,6.812-10.81,7.937,4.812-1.75,8-5.312,10.247-8.436,2.187-2.937,5.686-6,9.373-6,1.125,0,3.124.625,3.124,2.749,0,3.062-5.248,6.936-7.561,6.936-1,0-1.125-.375-1.125-.625,0-.437.937-.812,1.687-.812a2.393,2.393,0,0,1,2.562,2.374c0,2.812-4.624,7.685-9.873,7.685-1.875,0-3.5-1.187-3.5-2.811,0-2.375,3.187-5.874,6.811-5.874a1.761,1.761,0,0,1,1.874,1.5c0,1.5-2.312,4.061-5.248,3.874Zm47.927-1.313c-.063,0-.125.063-.188.125-2.125,2.125-4.124,3.687-5.311,3.687-.813,0-1.125-.25-1.125-1.249a1.728,1.728,0,0,1,.062-.562c2.249-.062,5.436-1.562,5.436-3.187,0-.312-.187-.812-1.061-.812-1.375,0-3.5,1.374-4.812,2.812-2.125,2.437-3.75,3.061-4.124,3.061s-.875-.25.125-1.625l3.061-4.124h-1.5l-1.5,2c-2,2.687-3.561,3.812-4.374,3.812-.437,0-.937-.312.063-1.687l3.125-4.124H71.772c-1.687,2.249-2.562,3.187-6.624,5.561l4.125-5.561h-1.5l-.625.937c-.125-.875-.687-1.125-1.562-1.125-1.5,0-3.374,1.187-4.562,2.5-1.874,2-3.937,3.5-5.061,3.5-.687,0-1-.187-1-1.062a3.684,3.684,0,0,1,.125-.874c2.374,0,5-2.062,5-3.187,0-.312-.187-.749-1.062-.749-1.562,0-4.061,1.749-5.061,3.437-1.125-.562-.687-2.125,1.25-3.374H53.4l-3.937,4.186c1.125-1.561,2.062-2.937,2.062-3.437a.8.8,0,0,0-.874-.812c-.75,0-3.249,1.625-4.437,3.061a12.708,12.708,0,0,1,4.124-2.687c.375,0,.25.375.062.626l-3.937,5.248h1.562l4.624-4.874a2.061,2.061,0,0,0,1.187,2.312,2.211,2.211,0,0,0-.375,1.187,1.644,1.644,0,0,0,1.812,1.5c1.187,0,2.874-1,4.5-2.374a2.331,2.331,0,0,0-.25,1,1.394,1.394,0,0,0,1.437,1.374,6.323,6.323,0,0,0,3.437-1.5l-1.312,1.938c-.25.125-.5.313-.813.437-4.687,2.624-8.373,4.936-8.373,6.811,0,.625.375,1.062,1.187,1.062,2.062,0,5.249-3,8.748-7.748l.875-1.125a21.3,21.3,0,0,0,5.124-3.561l-.562.749c-1.562,2.125,0,2.749.687,2.749A5.156,5.156,0,0,0,72.9,102.88a1.181,1.181,0,0,0,1.125,1.687c.937,0,2.374-1,3.561-2.062a1.664,1.664,0,0,0-.187.749,1.443,1.443,0,0,0,1.562,1.562,7.041,7.041,0,0,0,3.374-1.437,24.47,24.47,0,0,0,2.187-1.749l-2.062,3h1.375l9.56-13.81c-.563.564-4.125,5.625-7.936,9.5Zm-2.875-1.562c.688,0,.625.375.625.562,0,1.188-2.312,2.687-4.249,2.749a4.822,4.822,0,0,1,3.624-3.312Zm-24.369,0a.623.623,0,0,1,.687.688c0,1.437-2.5,2.561-3.75,2.624C55.65,100.132,57.4,98.756,58.213,98.756Zm3.624,5.312c-.437,0-.812-.062-.812-1,0-1.937,2.249-4.374,3.937-4.374,1.125,0,1.249.75,1.249,1.125C66.21,102.068,63.149,104.068,61.836,104.068Zm-.749,4c-1.937,2.749-4.374,5.248-5.873,5.248-.375,0-.687-.125-.687-.562,0-1.937,3.812-4.562,7.873-6.873.125-.062.188-.062.313-.125Z" transform="translate(-11.092 -27.187)" fill="#254558" fill-rule="evenodd"/>
    <path id="Path_413" data-name="Path 413" d="M111.21,69.446H96.9l.562-.813c.312.313.5.375,1.561.375,1,.063,12.185.375,12.185.375C111.335,69.384,111.335,69.446,111.21,69.446Zm4.749,2.187c-.5.374-1.875,2.561-4.5,2.561a1.347,1.347,0,0,1-1.5-1.374c0-2.187,3.25-3.874,5.623-3.874,1.125,0,3.124.187,3.124,2.749,0,3.374-3.186,5.623-6.373,5.623-2.187,0-3.5-.875-6.061-.875-3.124,0-4.249,1.5-4.624,2.438.187-.437,1.312-1.875,4.187-1.875,2,0,3.686.937,5.748.937,3.374,0,8-3.062,8-6.311,0-1.687-1-3.062-3.5-3.062-3.062,0-6.811,2.312-6.811,4.562,0,.562.5,1.5,2.061,1.5C113.71,74.632,115.584,72.132,115.96,71.633Zm-30.118,11c0-.687-.313-.562-.313-.625h2.062a1.773,1.773,0,0,1,1.874,1.812A1.839,1.839,0,0,1,87.591,85.5H85.528s.313.062.313-.625Zm1.25-.5h-.25c-.125,0-.188.062-.188.125V85c0,.188.063.375.25.375h.312a1.46,1.46,0,0,0,1.375-1.625A1.526,1.526,0,0,0,87.091,82.13Zm6.31,1.187a1.239,1.239,0,0,1,2.062.937,1.332,1.332,0,0,1-1.374,1.312.942.942,0,0,1-.688-.25v1.062c0,.562.188.5.25.5H92.4s.25.062.25-.5V83.692c0-.437-.25-.437-.312-.437L93.4,83Zm0,1.75a.417.417,0,0,0,.437.313c.437,0,.75-.375.75-1.062s-.375-1.062-.688-1.062a.772.772,0,0,0-.5.25v1.561Zm6.249-.125c0,.625.25.5.25.562H98.651c.062-.062.25.062.25-.562V83.63c0-.437-.187-.437-.25-.437l1-.25Zm-.437-2.624c.187,0,.375-.125.375-.25s-.187-.25-.375-.25-.375.125-.375.25S99.025,82.318,99.213,82.318Zm-1,2.812a.22.22,0,0,0,.25.25l-.936.125v-.312a1.137,1.137,0,0,1-.875.374c-.936,0-.874-.687-.874-1.061v-.937c0-.562-.188-.5-.25-.5h1v1.687c0,.562.313.625.375.625A.7.7,0,0,0,97.527,85V83.63c0-.625-.25-.562-.25-.562h.937V85.13ZM92.34,84.005H90.4v.125c0,.874.5,1.187.937,1.187a1.235,1.235,0,0,0,.812-.375,1.258,1.258,0,0,1-1.187.75,1.372,1.372,0,0,1-1.374-1.313,1.586,1.586,0,0,1,1.5-1.437A1.194,1.194,0,0,1,92.34,84.005Zm-1.25-.875c-.437,0-.562.437-.625.749h1.249A.7.7,0,0,0,91.09,83.13Zm11.123,1.749c0,.437-.437.813-1.125.813a1.322,1.322,0,0,1-.874-.25V85a.888.888,0,0,0,.812.562c.313,0,.562-.187.562-.437s-.313-.375-.687-.562c-.313-.125-.813-.25-.813-.813,0-.437.437-.749,1.125-.749a1.615,1.615,0,0,1,.813.187v.437a1.035,1.035,0,0,0-.875-.5.418.418,0,0,0-.437.375c0,.25.188.374.688.562.125.062.812.249.812.811Zm2.312.749c.062-.062.188-.062.188-.5V82.5c0-.5-.188-.5-.25-.562l1-.25V85.13c0,.437.187.437.25.5h-1.187Zm5.187-.062a29.438,29.438,0,0,1,2.124-3.749h-2.249a.4.4,0,0,1-.312-.125l-.375.875a.71.71,0,0,1,.5-.187h1.625c-.125.187-.625,1.125-1.187,2-.375.625-.562,1-.688,1.187h.563Zm-2.875,0a39.735,39.735,0,0,1,2.125-3.749h-2.187a.457.457,0,0,1-.374-.125l-.313.875a.568.568,0,0,1,.437-.187h1.625c-.125.187-.625,1.125-1.125,2-.437.625-.625,1-.75,1.187ZM112.4,85.5c.5,0,.937-.437.937-1.187,0-.5-.313-1.125-.875-1.125a1.066,1.066,0,0,0-.812.437l.313-1.812h1.5a.767.767,0,0,0,.437-.125l-.375.688h-1.437l-.188.874a1.688,1.688,0,0,1,.937-.312,1.306,1.306,0,0,1,1.312,1.249,1.558,1.558,0,0,1-1.687,1.437,2.577,2.577,0,0,1-1-.187l-.063-.5a1.156,1.156,0,0,0,1,.562Zm-5.873-49.488-.562.25-4.5,4.312a1.6,1.6,0,0,0-1.187-.25,1.914,1.914,0,0,0-1.313,2.249,2.311,2.311,0,0,0,.313.687l-13.872,14a2.857,2.857,0,0,0-2.624-.937,2.691,2.691,0,0,0-1.5.937l-9.623-7.5a2.6,2.6,0,0,0,.187-1.562,2.123,2.123,0,0,0-2.437-1.937,1.937,1.937,0,0,0-.812.375l-4.249-3-.5-.062.187.562,3.749,3.749a2.536,2.536,0,0,0,0,1.187,2.123,2.123,0,0,0,2.437,1.937,2.252,2.252,0,0,0,.937-.5c.125-.187.187-.187.25-.125,0,0,3.562,3.124,4.812,4.187s3.25,2.624,3.624,2.937a9.647,9.647,0,0,0,.875.75,3.771,3.771,0,0,0-.125,1.874,2.926,2.926,0,1,0,5.686-1.187,2.948,2.948,0,0,0-.375-.937L99.588,43.7a1.575,1.575,0,0,0,1.375.375,1.778,1.778,0,0,0,1.312-2.187.9.9,0,0,0-.125-.437l4.187-4.874.187-.562ZM69.782,49.95a1.374,1.374,0,0,1-1.5-1.249,1.558,1.558,0,0,1,1-1.812,1.375,1.375,0,0,1,1.5,1.25A1.5,1.5,0,0,1,69.782,49.95Zm14.5,10.872A1.265,1.265,0,0,1,82.842,59.7a1.325,1.325,0,0,1,.936-1.562A1.235,1.235,0,0,1,85.216,59.2,1.4,1.4,0,0,1,84.279,60.823Zm16.809-17.558a1.106,1.106,0,0,1-1.249-1,1.2,1.2,0,0,1,.812-1.437,1.107,1.107,0,0,1,1.25,1A1.2,1.2,0,0,1,101.088,43.264Z" transform="translate(-29.724)" fill="#254558" fill-rule="evenodd"/>
    <path id="Path_414" data-name="Path 414" d="M106.619,86.547a.9.9,0,0,0,.625-1.062.874.874,0,0,0-.937-.75.9.9,0,0,0-.625,1.062C105.807,86.3,106.181,86.672,106.619,86.547Z" transform="translate(-52.188 -26.162)" fill="#254558" fill-rule="evenodd"/>
  </g>
</svg>
