<svg xmlns="http://www.w3.org/2000/svg" width="177.825" height="17.715" viewBox="0 0 177.825 17.715">
  <g id="bvlgari" transform="translate(-149.4 -175.4)">
    <path id="Path_131" data-name="Path 131" d="M327.19,191.379l.035.531h-5.74v-.531c1.559,0,1.382-.461,1.382-2.374V178.341a6.678,6.678,0,0,0-.071-1.665c-.177-.673-.461-.709-1.417-.744v-.5l5.811-.035v.531c-1.523,0-1.488.5-1.488,2.409v10.665c0,1.772-.071,2.374,1.488,2.374Zm-17.148.709c-6.129,0-5.7-.921-6.661-2.409-1.134-1.772-2.126-4.287-4.252-4.287-.567.035-2.445,0-2.764,0-.992,0-1.559.035-2.161,0v4.854c.035,1.134.6,1.24,1.559,1.24v.6h-5.846v-.6c.779.035,1.453.035,1.453-.85v-13c0-1.2-.425-1.488-1.453-1.488v-.531h7.44a31.759,31.759,0,0,1,5.35.177c2.586.567,4.181,1.913,4.216,4.074,0,2.126-1.063,4-5.173,4.783,2.728.319,2.976,1.488,4.039,3.33,1.134,2.02,1.594,3.578,4.216,3.543,0,.142.035.425.035.567Zm-15.873-8.326c2.126-.035,5.244.142,7.122-.354a3.191,3.191,0,0,0,2.516-3.33A2.62,2.62,0,0,0,302,177.42c-1.842-.886-5.385-.567-7.83-.567v6.909Zm-20.231,4.145h-9.814l-.957,1.7a3.751,3.751,0,0,0-.567,1.311c.035.815.425.886,1.346.85l-.035.531h-5.067v-.461c1.134-.035,1.311-.39,1.63-.957.283-.531.531-.921,1.134-2.09l6.8-12.932h2.161l7.192,13.074c1.275,2.374,1.2,2.764,2.657,2.764v.638h-6.094v-.6c1.382-.071,1.594-.531.815-1.807l-1.2-2.02Zm-.85-1.842-4.145-7.759-3.933,7.759Zm-21.294-.85c-1.665.035-1.807.106-1.736,1.736l.035,2.374c-.709,1.594-3.118,2.657-4.925,3.118a18.025,18.025,0,0,1-4.393.6c-3.756,0-6.767-.85-8.964-2.728a7.571,7.571,0,0,1-2.941-5.669,7.773,7.773,0,0,1,3.4-6.448,13.12,13.12,0,0,1,8.468-2.586,20.316,20.316,0,0,1,4.075.5,14.448,14.448,0,0,1,3.685,1.417l.85,3.685-.531.213a8.978,8.978,0,0,0-3.33-3.4,10,10,0,0,0-4.571-1.134,9.721,9.721,0,0,0-5.315,1.559,7.277,7.277,0,0,0-3.472,5.846,6.853,6.853,0,0,0,3.047,5.669,10.012,10.012,0,0,0,5.669,1.594,12.158,12.158,0,0,0,3.72-.709,4.949,4.949,0,0,0,2.657-1.949l.035-1.417c0-.5.106-1.736-.283-2.02a2.685,2.685,0,0,0-1.488-.248v-.567h6.342l-.035.567ZM211.9,176.25v.531c-.709.035-.85-.035-1.134.213-.177.177-.319.425-.319,1.2v12.755h7.724a4.309,4.309,0,0,0,3.862-1.807l.531.213-1.7,3.4h-14.7v-.531c.992-.035,1.417-.213,1.417-1.276V178.943c0-.921,0-1.417-.248-1.736s-.461-.39-1.276-.39v-.531l5.846-.035Zm-30.435.106v.6c-.921,0-1.63.213-1.169,1.276.177.461.5.992.886,1.736l5.456,10.275c.673-1.63,6.129-11.869,6.271-12.578.142-.886-1.24-.709-1.275-.709v-.567l4.925-.035v.6c-.39,0-.957-.106-1.169.177-.354.461-1.24,2.3-2.445,4.641-1.807,3.543-4.145,8.22-5.6,11.09h-2.374l-7.015-13.286a8.954,8.954,0,0,0-1.417-2.409,2.022,2.022,0,0,0-1.134-.213v-.6Zm-18.459,7.759a11.553,11.553,0,0,1,3.4.992c.85.5,1.807,1.169,1.807,3.4a3.756,3.756,0,0,1-1.736,3.26c-1.63,1.275-5.633,1.346-8.078,1.346h-8.893v-.567c.744.035.957-.035,1.275-.39a5.755,5.755,0,0,0,.142-2.161V178.978c0-1.027-.035-1.346-.39-1.63s-.567-.248-1.134-.248l.035-.531c5.74.035,8.078-.035,11.55-.035,2.338.106,5.385.992,5.385,3.826a3.425,3.425,0,0,1-1.24,2.693,5.179,5.179,0,0,1-2.126,1.063Zm-9.283-.425h3.862c1.63,0,3.791-.035,5-1.027a3.146,3.146,0,0,0,.992-2.055,2.092,2.092,0,0,0-1.24-2.09c-1.027-.638-3.189-.531-5.031-.531h-3.614l.035,5.7Zm0,7.582h4.641c3.33,0,6.732-.177,6.732-2.905a2.881,2.881,0,0,0-1.24-2.268c-1.346-.992-3.366-.992-6.307-.957-1.276.035-2.586,0-3.826,0v6.129Z" fill="#254558" fill-rule="evenodd"/>
  </g>
</svg>
