<svg xmlns="http://www.w3.org/2000/svg" width="157.672" height="45.617" viewBox="0 0 157.672 45.617">
  <g id="franck-muller" transform="translate(-314 -175)">
    <path id="Path_66" data-name="Path 66" d="M320.3,210.764l-.182-.182,1-.639-5.93-9.488-1,.639-.182-.182,8.029-5.018,1.642,2.555-.182.091a2.937,2.937,0,0,0-2.007-1.277,4.125,4.125,0,0,0-2.555.821,5.411,5.411,0,0,0-.547.365,1.26,1.26,0,0,0-.365.274l2.828,4.47c.182-.091.274-.182.456-.274s.274-.182.365-.182a2.932,2.932,0,0,0,1.277-1.369,2.7,2.7,0,0,0-.365-1.733l.182-.091,2.463,3.832-.182.091c-.456-.639-.912-1.095-1.46-1.095a2.757,2.757,0,0,0-1.916.639c-.182.091-.274.182-.365.182-.091.091-.182.091-.274.182l3.011,4.744.912-.547.182.274-4.835,2.92Zm8.12-18.247,2.463,4.653c.091,0,.091,0,.182-.091.091,0,.182-.091.274-.182a3.121,3.121,0,0,0,1.368-1.277,3.287,3.287,0,0,0-.456-1.825,5.106,5.106,0,0,0-1.551-1.916,2.317,2.317,0,0,0-1.825.274c-.091.091-.182.091-.274.182s-.091.182-.182.182Zm1.46,12.317,5.018-2.646-.091-.274-1,.547-2.646-4.927c.091-.091.182-.091.274-.182s.182-.091.365-.182a2.321,2.321,0,0,1,1.46-.456c.365.091.639.365.912.912l.821,1.46a2.868,2.868,0,0,0,1.642,1.642,2.484,2.484,0,0,0,2.1-.182,3.219,3.219,0,0,0,1-.821,2.588,2.588,0,0,0,.365-1.186h-.274a1.719,1.719,0,0,1-.182.73q-.137.274-.274.274a.277.277,0,0,1-.365,0,5.409,5.409,0,0,1-.365-.547l-.821-1.551a3.844,3.844,0,0,0-.821-1.277,1.419,1.419,0,0,0-.73-.547,2.054,2.054,0,0,0-1.095-.091c-.456.091-1,.274-1.916.547a5.128,5.128,0,0,0,1.825-1.916,2.41,2.41,0,0,0-.091-2.1,2.223,2.223,0,0,0-2.007-1.369,8.135,8.135,0,0,0-3.741,1.277l-4.744,2.555.091.274,1-.547,5.292,9.945-1,.547v.091ZM341.1,194.342l2.555-1.095-2.828-3.1.274,4.2Zm-.547,4.653-.091-.274h.091a.712.712,0,0,0,.365-.365.988.988,0,0,0,.091-.547l-1-11.587,1.186-.547,8.3,9.215.547-.274.091.274-4.47,1.916-.091-.274.73-.274-2.555-2.737-2.737,1.095.274,2.372c0,.182.091.274.091.365s0,.182.091.182c.091.182.182.365.365.365a1.379,1.379,0,0,0,.73-.182l.091-.091.182.274-2.281,1.095Zm6.66-15.327,1.551,1.095,2.646,7.846a2.944,2.944,0,0,1,.182,1.095,1.314,1.314,0,0,1-.639.547.318.318,0,0,0-.182.091h-.091l.091.274,2.737-.912-.091-.274c-.091,0-.091,0-.182.091-.091,0-.091.091-.182.091-.365.091-.639.091-.73,0a1.951,1.951,0,0,1-.547-.912l-2.555-7.39,9.306,6.751,1.825-.639-3.284-9.58a2.945,2.945,0,0,1-.182-1.095.934.934,0,0,1,.547-.456.319.319,0,0,0,.182-.091c.091,0,.091,0,.182-.091l-.091-.274-2.737.912.091.274a.089.089,0,0,0,.091-.091c.091,0,.091-.091.182-.091a.975.975,0,0,1,.73,0,1.951,1.951,0,0,1,.547.912l2.19,6.386-8.3-6.021-3.832,1.369.091.274.456-.091Zm25.272,1.095.274-.091.73,3.649-.182.091a2,2,0,0,0-.274-.456.549.549,0,0,0-.365-.091s-.365.182-1.095.639a6.126,6.126,0,0,1-2.1.912,4.816,4.816,0,0,1-2.281,0,8.368,8.368,0,0,1-2.1-.821,5.984,5.984,0,0,1-1.733-1.642,6.307,6.307,0,0,1-.912-2.281,5.94,5.94,0,0,1,.091-2.828,6.561,6.561,0,0,1,1.186-2.555,6.387,6.387,0,0,1,1.46-1.277,8.244,8.244,0,0,1,1.916-.73,5.2,5.2,0,0,1,2.372,0,6.577,6.577,0,0,0,1.277.182c.182,0,.274-.091.274-.182a.684.684,0,0,0,.091-.456l.274-.091.73,3.741-.182.091a6.359,6.359,0,0,0-1.825-2.555,2.963,2.963,0,0,0-2.463-.547,2.566,2.566,0,0,0-1,.456,3.148,3.148,0,0,0-.73.821,4.42,4.42,0,0,0-.274,1.642,21.553,21.553,0,0,0,.456,3.193,29.939,29.939,0,0,0,.73,3.193,4.767,4.767,0,0,0,.639,1.369,2.852,2.852,0,0,0,1,.821,2.347,2.347,0,0,0,1.369.091,3.088,3.088,0,0,0,2.281-1.46,6.456,6.456,0,0,0,.365-2.828Zm3.284,3.193v-.274l1.095-.091-1.186-11.131-1.186.091v-.274l5.657-.547V176l-1.095.091.547,5.292,3.832-4.47c.182-.182.274-.274.274-.456.091-.091.091-.182.091-.365s-.091-.274-.274-.365a1.353,1.353,0,0,0-.639-.091H382.7v-.274L386.44,175v.274h-.091a3.065,3.065,0,0,0-1.277.456,11.847,11.847,0,0,0-1.277,1.095l-2.007,2.281,5.474,7.39.912-.091v.274l-5.657.639v-.274l1-.091-3.741-5.383-.182.182.547,5.565,1.095-.091v.274l-5.474.456Zm21.9-1v-.274h.182a1.719,1.719,0,0,0,.73-.182,1.468,1.468,0,0,0,.274-1l1-9.853-1-.091v-.274l4.379.456,1.916,7.664,3.193-7.116,4.653.456v.274l-1.095-.091-1.186,11.222,1.095.091v.274l-5.657-.639v-.274l1.095.091,1.095-10.766L403.41,187.59l-.639-.091-2.737-11.131-1,9.123a1.834,1.834,0,0,0,.091,1.095c.091.182.365.274.639.365h.274v.274l-2.372-.274Zm17.7-1.551L417,178.193l-1-.182.091-.274,5.018,1.186-.091.274-.821-.182-1.825,8.029a8.5,8.5,0,0,0-.182,1.277,1.778,1.778,0,0,0,.091.73,1.822,1.822,0,0,0,.73.912,2.725,2.725,0,0,0,1.277.547,2.634,2.634,0,0,0,2.281-.365,4.775,4.775,0,0,0,1.277-2.737l1.368-5.839a2.149,2.149,0,0,0,0-1.095.9.9,0,0,0-.639-.456c-.091,0-.182,0-.182-.091H424.3l.091-.274,2.555.547-.091.274h-.182a.523.523,0,0,0-.639.182,2.765,2.765,0,0,0-.456.912l-1.369,5.93c-.365,1.642-.912,2.646-1.733,3.1a4.5,4.5,0,0,1-3.376.182,7.157,7.157,0,0,1-2.372-.912,3.221,3.221,0,0,1-1.369-1.551,2.429,2.429,0,0,1-.274-1.095,8.794,8.794,0,0,1,.274-1.825Zm10.492,6.934,9.215,3.376,1.186-3.284-.182-.091a3.391,3.391,0,0,1-4.927,1.733,3.585,3.585,0,0,0-.547-.182c-.182-.091-.274-.091-.365-.182l3.832-10.492,1.095.365.091-.274-5.292-1.916-.091.274,1.095.365-3.832,10.583-1.095-.365-.182.091Zm10.857,4.106.091-.274,1,.456,4.562-10.31-1-.456.091-.274,5.2,2.281-.091.274-1-.456L441,197.9c.091.091.274.091.365.182a3.036,3.036,0,0,0,.547.274,4.443,4.443,0,0,0,2.92.456,3.864,3.864,0,0,0,2.1-1.825l.182.091-1.46,3.193-8.941-3.832Zm10.218,4.744,8.667,4.653,1.642-3.1-.182-.091a4.165,4.165,0,0,1-2.281,1.642,4.48,4.48,0,0,1-2.828-.639c-.182-.091-.274-.182-.456-.274s-.274-.182-.456-.274l2.646-4.927a.335.335,0,0,0,.274.091c.091.091.274.091.365.182.821.456,1.369.912,1.46,1.369a2.317,2.317,0,0,1-.274,1.825l.182.091,2.19-4.014-.182-.091c-.456.639-.821,1.095-1.277,1.186a2.653,2.653,0,0,1-1.825-.456.692.692,0,0,0-.365-.182c-.182-.091-.274-.182-.456-.274l2.463-4.653c.091.091.274.091.365.182a4.448,4.448,0,0,0,.639.274,3.989,3.989,0,0,1,2.007,1.825,3.085,3.085,0,0,1-.091,2.372l.182.091,1.46-2.646-8.394-4.47-.091.274,1,.547-5.2,9.762-1-.547-.182.274Zm20.528-1.46-2.92,4.471c.091,0,.091.091.182.091s.182.091.274.182a2.516,2.516,0,0,0,1.733.547q.684-.137,1.368-1.369a4.642,4.642,0,0,0,.912-2.281,2.322,2.322,0,0,0-1.095-1.46c-.091-.091-.182-.091-.274-.182Zm-10.036,7.116.182-.182,1,.639,6.113-9.4-1-.639.182-.182L468.46,200a8.481,8.481,0,0,1,2.92,2.646,2.235,2.235,0,0,1-.182,2.463,2.523,2.523,0,0,1-1.825,1.186,4.091,4.091,0,0,1-2.555-.639l1.369,1.369a2.464,2.464,0,0,1,.456,1,1.644,1.644,0,0,1-.091.912,6.848,6.848,0,0,1-.73,1.277l-.912,1.46a1.587,1.587,0,0,0-.274.639c0,.091.091.182.182.274a.684.684,0,0,0,.456.091,2.321,2.321,0,0,0,.639-.182l.091.274a2.525,2.525,0,0,1-1.186.274,2.421,2.421,0,0,1-1.277-.456,2.281,2.281,0,0,1-1.186-1.733,3.963,3.963,0,0,1,.639-2.281l.912-1.369c.274-.456.456-.912.274-1.186a2.958,2.958,0,0,0-1.095-1.095c-.182-.091-.274-.182-.365-.182-.091-.091-.182-.091-.274-.182l-3.1,4.744,1,.639-.182.182-4.744-3.284Z" fill="#254558" fill-rule="evenodd"/>
    <path id="Path_67" data-name="Path 67" d="M378.385,220.913v2.007a4.91,4.91,0,0,1-1.825.912,7.114,7.114,0,0,1-2.007.274,4.687,4.687,0,0,1-3.376-1.277,4.468,4.468,0,0,1-1.277-3.284,7.09,7.09,0,0,1,.182-1.46,3.2,3.2,0,0,1,.547-1.277,3.981,3.981,0,0,1,1.551-1.46,4.334,4.334,0,0,1,2.19-.547,3.7,3.7,0,0,1,1.733.365c.091,0,.091,0,.091.091.091,0,.091.091.182.091a1.542,1.542,0,0,0,.456.182.335.335,0,0,0,.274-.091c.091-.091.182-.182.182-.274h.182v2.828h-.182a6.09,6.09,0,0,0-.912-2.19,2.285,2.285,0,0,0-1.642-.73,1.639,1.639,0,0,0-1.642,1,10.642,10.642,0,0,0-.456,3.649,8.968,8.968,0,0,0,.456,3.284,1.482,1.482,0,0,0,1.46.912,1.244,1.244,0,0,0,1.095-.456,2.462,2.462,0,0,0,.365-1.369v-1.277h-.73v-.182h3.649v.182l-.547.091Zm1.733,3.011v-.182h.912v-8.485h-.912v-.182h7.116v2.281h-.182a2.377,2.377,0,0,0-.821-1.642,3.834,3.834,0,0,0-2.007-.456h-.912v3.923h.73a1.894,1.894,0,0,0,1.369-.365,1.654,1.654,0,0,0,.456-1.277h.182V221h-.182a1.654,1.654,0,0,0-.456-1.277,2.157,2.157,0,0,0-1.46-.365H383.4v4.2h.821a3.389,3.389,0,0,0,2.1-.547,2.7,2.7,0,0,0,.912-1.825h.182v2.555h-7.3v.182Zm9.032-8.667h-.274v-.274h3.011l4.47,6.3v-5.109a1.822,1.822,0,0,0-.182-.821c-.091-.182-.274-.182-.547-.182h-.274v-.182h2.19v.182h-.274a.771.771,0,0,0-.547.182c-.091.091-.091.365-.091.821v7.664h-1.46l-4.927-7.116v5.839a1.542,1.542,0,0,0,.182.821.771.771,0,0,0,.547.182h.274v.182h-2.19v-.182h.274a.771.771,0,0,0,.547-.182,1.822,1.822,0,0,0,.182-.821v-6.2l-.912-1.095Zm9.58,8.667v-.182h.821v-8.485h-.821v-.182h7.116v2.281h-.182a2.378,2.378,0,0,0-.821-1.642,3.834,3.834,0,0,0-2.007-.456h-.912v3.923h.73a1.894,1.894,0,0,0,1.369-.365,2.089,2.089,0,0,0,.456-1.277h.182V221h0a1.654,1.654,0,0,0-.456-1.277,2.157,2.157,0,0,0-1.46-.365H402.2v4.2h.821a3.389,3.389,0,0,0,2.1-.547,3.143,3.143,0,0,0,.912-1.825h.182v2.555H398.73v.182Zm12.773,0h-.821l-3.1-8.576h-.456v-.274h3.649v.274h-.639l2.007,5.748,1.551-4.835c0-.091.091-.182.091-.274v-.274c0-.091-.091-.182-.182-.274a.684.684,0,0,0-.456-.091h-.091v-.274h1.916v.274h-.182a.789.789,0,0,0-.547.274,3.218,3.218,0,0,0-.456,1.095l-2.281,7.208Zm4.014,0v-.182h.912v-8.485h-.912v-.182h7.116v2.281h-.182a2.377,2.377,0,0,0-.821-1.642,3.834,3.834,0,0,0-2.007-.456h-.912v3.923h.73a1.894,1.894,0,0,0,1.369-.365,1.654,1.654,0,0,0,.456-1.277h.182V221h-.182a1.654,1.654,0,0,0-.456-1.277,2.157,2.157,0,0,0-1.46-.365H418.8v4.2h.821a3.389,3.389,0,0,0,2.1-.547,2.7,2.7,0,0,0,.912-1.825h.182v2.555h-7.3Z" transform="translate(-4.9 -3.489)" fill="#254558" fill-rule="evenodd"/>
  </g>
</svg>
