<svg xmlns="http://www.w3.org/2000/svg" width="197.299" height="41.785" viewBox="0 0 197.299 41.785">
  <path id="girard-perregaux" d="M381.245,193.567v-.836s-.251,0-.334-.084a.975.975,0,0,1-.5-.5c0-.167-.084-6.017,0-6.268.084-.418.167-.836.5-1,.167-.084.334-.084.334-.167a2.74,2.74,0,0,0,0-.836h-5.014v.836a2.29,2.29,0,0,1,.585.334c.334.167.418.752.418,1.254v5.683H375.98a7.312,7.312,0,0,1-6.686-5.181c-.084-.251-.167-.585-.251-.836a16.231,16.231,0,0,1-.167-2.006c.084-2.591,1.5-5.348,4.178-5.933a4.652,4.652,0,0,1,4.262,1,1.667,1.667,0,0,1,.334,1.671,2.689,2.689,0,0,1-.334.585l.251.251a2.576,2.576,0,0,0,.585.418l2.591-3.092a14.116,14.116,0,0,0-1.17-1.17,9.684,9.684,0,0,0-5.933-2.089,14.341,14.341,0,0,0-2.006.334,8.849,8.849,0,0,0-6.017,8.19,10.01,10.01,0,0,0,1.839,6.017c1.922,2.674,5.181,3.928,8.608,4.095a29.586,29.586,0,0,0,3.844-.167,5.572,5.572,0,0,1,1.337-.5Zm2.006-.836v.836h5.181v-.836s-.334-.084-.585-.167c-.418-.167-.5-.836-.5-1.337V188.72s3.677-1.254,4.6-1.671a4.429,4.429,0,0,0,1.254-.669,13.054,13.054,0,0,0,1.588-1.086,5.89,5.89,0,0,0,1.421-6.6,4.93,4.93,0,0,0-1.839-2.089,5.585,5.585,0,0,0-2.591-.836,8.593,8.593,0,0,0-1.5-.084h-7.187v.919s.418.167.585.251a1.479,1.479,0,0,1,.418.669c0,.084.084,3.593.084,4.095,0,1.5.084,9.109,0,9.694a1.242,1.242,0,0,1-.5,1.086.9.9,0,0,1-.418.334Zm4.178-6.184-.084-8.608h2.674a3.781,3.781,0,0,1,2.173.752,3.423,3.423,0,0,1,.669,4.429,7.774,7.774,0,0,1-3.259,2.591c-.752.334-2.173.836-2.173.836Zm-91.509,30.336v-.752a1.7,1.7,0,0,0-.418-.084.834.834,0,0,1-.334-.418c0-.167-.084-4.429,0-4.847a1.5,1.5,0,0,1,.251-.919,5.12,5.12,0,0,1,.5-.334v-.669h-4.095v.752l.334.167c.418.251.5.752.5,1.421v4.346h-1.254a5.966,5.966,0,0,1-4.513-2.758,7.021,7.021,0,0,1,.084-7.02,3.76,3.76,0,0,1,4.6-1.588,2.191,2.191,0,0,1,1.337,1.086,1.234,1.234,0,0,1,.084.752c-.084.251-.334.752-.334.752l.585.5,2.089-2.591s-.5-.585-.836-.919a6.967,6.967,0,0,0-3.176-1.5,6.125,6.125,0,0,0-6.853,2.925,8.128,8.128,0,0,0,1.421,10.112c1.671,1.5,3.677,1.922,6.1,2.089.334,0,1.922-.084,2.256-.084a14.358,14.358,0,0,1,1.671-.418Zm143.907,0v-.752h-.251c-.167,0-.418-.251-.5-.585v-4.68c0-.418.084-1,.5-1.17.167-.084.251,0,.251-.167v-.585l-4.095-.084v.669s.418.167.5.334a1.332,1.332,0,0,1,.334,1v4.6h-1.337a6.137,6.137,0,0,1-4.095-2.256c-1.671-2.256-1.839-5.85,0-7.939a3.758,3.758,0,0,1,3.092-1.421c1.421.084,2.841.752,2.758,2.006a.632.632,0,0,1-.084.334c-.084.167-.251.418-.251.418l.669.5,2.089-2.507a1.443,1.443,0,0,0-.251-.334,6.437,6.437,0,0,0-3.092-1.922,6.631,6.631,0,0,0-7.939,3.008,7.743,7.743,0,0,0-.669,5.933,7.9,7.9,0,0,0,6.6,5.683,11.373,11.373,0,0,0,1.755.167c.334,0,2.674-.084,2.925-.084.5-.084,1.086-.167,1.086-.167Zm26.575,0v-.752a3.939,3.939,0,0,1-.418-.167c-.418-.251-.418-.752-.418-1.337,0-.752-.084-9.945-.084-10.446,0-.418.084-.919.5-1.086a.833.833,0,0,1,.334-.084v-.752H462.14v.669c0,.167.167.084.5.251.251.167.334.669.418,1,.084.919,0,10.78,0,10.78h-1.922a4.113,4.113,0,0,1-3.844-3.677,10.546,10.546,0,0,1,1.17-6.1,8.4,8.4,0,0,1,1.5-2.006,3.935,3.935,0,0,1,.418-.167v-.752h-4.095v.669a1.7,1.7,0,0,0,.418.084.9.9,0,0,1,.334.418v.084l-.084.084c-.585,1.254-1.588,3.426-1.671,3.761a8.09,8.09,0,0,0-.084,5.933,5.341,5.341,0,0,0,4.931,3.51c.919.084,6.268.084,6.268.084Zm.836-.752v.752h4.346v-.752a3.288,3.288,0,0,1-.5-.167c-.418-.167-.418-.5-.251-.836s2.758-4.262,2.758-4.262,1.922,3.009,2.674,4.262c.251.334.334.669,0,.919-.084,0-.084,0-.167.084-.251,0-.334,0-.334.084v.669h4.847v-.669c0-.167-.167-.084-.418-.251-.084-.084-.334-.251-.418-.418-.084-.084-.084-.084-.084-.167l-4.178-6.518,3.593-5.432c0-.084.084-.084.084-.167a1.82,1.82,0,0,1,.669-.418h.251v-.752h-4.346v.752a3.287,3.287,0,0,1,.5.167c.585.167.084,1-.167,1.5l-1.755,2.758-2.089-3.343c0-.084-.084-.084-.084-.167a1.632,1.632,0,0,1-.084-.585c0-.084.084-.084.084-.167.084-.084.418-.084.5-.167v-.669h-4.847v.752a3.937,3.937,0,0,1,.418.167c.334.084.669.585.919.919.5.669,3.259,5.181,3.259,5.181s-3.928,5.933-4.178,6.268l-.585.585a1.013,1.013,0,0,0-.418.084Zm-170.315,0v.752h4.262v-.752a3.939,3.939,0,0,1-.418-.167c-.251-.084-.334-.334-.418-.669V203.847a.9.9,0,0,1,.251-.585c.167-.084.585-.251.585-.251v-.752h-4.178v.752a3.288,3.288,0,0,1,.5.167,1.032,1.032,0,0,1,.334.669c0,.251.084,10.78.084,11.2a1.013,1.013,0,0,1-.585,1,1.462,1.462,0,0,1-.418.084Zm5.265.752h4.262v-.752a3.939,3.939,0,0,1-.418-.167c-.334-.167-.418-.669-.418-1-.084-1.086,0-4.346,0-4.346H307.7l3.51,6.268h3.343v-.752h-.167c-.334,0-.669-.5-.919-.752-.5-.752-3.009-5.1-3.009-5.1l.752-.251a4.076,4.076,0,0,0,2.089-5.014,4,4,0,0,0-3.761-2.674h-7.354v.752a1.9,1.9,0,0,0,.334.084.628.628,0,0,1,.418.585c0,.167.084,1.5.084,2.34,0,3.343.084,8.357,0,9.026a.969.969,0,0,1-.334.836,2.781,2.781,0,0,0-.5.251v.669Zm16.38,0v-.752c-.084-.084-.334-.084-.418-.167-.334-.167-.334-.585-.251-1,.167-.585,1.17-3.343,1.17-3.343h4.763l1.337,3.51v.167c.084.334,0,.669-.334.752a1.7,1.7,0,0,0-.418.084v.752h4.429V216.3c0-.167-.084-.167-.334-.251a1.007,1.007,0,0,1-.418-.418c0-.084-.084-.084-.084-.167L323,202.342h-2.674s-4.513,12.7-4.6,13.037a2.011,2.011,0,0,1-.5.669,1.118,1.118,0,0,1-.418.084v.752Zm10.7-.752v.752h4.262v-.752a1.412,1.412,0,0,1-.418-.167,1.125,1.125,0,0,1-.418-.752v-4.6H334.7l3.593,6.268h3.343v-.752a1.7,1.7,0,0,0-.418-.084,2.216,2.216,0,0,1-.5-.418c-.084-.084-.084-.084-.084-.167l-3.092-5.181a7.1,7.1,0,0,1,.752-.251,3.854,3.854,0,0,0,2.256-3.426,4.018,4.018,0,0,0-.836-2.758,4.448,4.448,0,0,0-2.674-1.421c-.334,0-.669-.084-1-.084-1.254-.084-6.686,0-6.686,0v.669l.5.251c.167.084.251.251.334.585v.167c0,3.677.084,10.53.084,10.948s-.084.919-.418,1.086a2.04,2.04,0,0,0-.585.084ZM343.3,204.1l.084,10.948v.167a.758.758,0,0,1-.5.752c-.084.084-.418.084-.418.084v.752h5.6a7.529,7.529,0,0,0,5.265-1.839,6.123,6.123,0,0,0,1.337-1.755,7.678,7.678,0,0,0-6.686-10.948c-1-.084-5.432-.084-5.432-.084v.669a5.562,5.562,0,0,0,.585.251,1.319,1.319,0,0,1,.418.669c-.251.251-.251.251-.251.334Zm32.843,12.034v.752h11.031v-3.092h-.836a4.121,4.121,0,0,1-.334.752c-.167.418-.669.5-1.17.585H379.49v-5.6h3.928a1.032,1.032,0,0,1,.669.334.882.882,0,0,1,.167.418v.167h.919v-3.593h-.836s-.167.418-.251.585c-.251.418-.919.418-1.5.418H379.49v-3.844h5.348a.8.8,0,0,1,.669.669,3.288,3.288,0,0,1,.167.5h.919v-2.925h-10.53v.752a3.937,3.937,0,0,1,.418.167.846.846,0,0,1,.334.585c.167.418.084,11.616.084,11.7a.846.846,0,0,1-.334.585,3.617,3.617,0,0,0-.418.084Zm12.034,0v.752h4.262v-.752a3.29,3.29,0,0,1-.5-.167c-.167-.084-.251-.251-.334-.585v-.167l-.084-4.6h2.089l3.51,6.268h3.343v-.669h-.334c-.084,0-.334-.251-.5-.334-.084-.084-.084-.084-.084-.167l-3.176-5.265s.669-.251,1.17-.5a3.783,3.783,0,0,0,1.839-2.841c.334-2.34-1-4.095-3.51-4.513-.251,0-.5-.084-.752-.084H388.1v.669c0,.084,0,.084.084.084.334.167.5.167.669.5,0,.084.084.167.084.251.084.585.167,11.115,0,11.7a.865.865,0,0,1-.418.585.259.259,0,0,0-.334-.167Zm13.622.084v.669h4.262v-.669l-.5-.251c-.167-.084-.251-.334-.334-.669v-4.68h2.006l3.51,6.268h3.343v-.752a1.7,1.7,0,0,0-.418-.084,4.082,4.082,0,0,1-1.254-1.588c-.836-1.588-2.424-4.178-2.424-4.178a4.964,4.964,0,0,0,1-.418A4.137,4.137,0,0,0,413,206.27a3.773,3.773,0,0,0-4.095-3.928H401.72v.669c0,.084.418.167.585.334a.949.949,0,0,1,.251.669c0,.334,0,2.256.084,3.677,0,1.922,0,7.772-.084,7.939a.6.6,0,0,1-.334.5c-.167-.084-.418.084-.418.084Zm13.455-.084v.752h11.031v-3.092h-.919a3.932,3.932,0,0,1-.167.418c-.251.669-.752.836-1.5.836h-5.014v-5.6s2.34-.084,3.426,0c.5,0,1.17.084,1.337.669a1.7,1.7,0,0,0,.084.418h.919v-3.677h-1a1.7,1.7,0,0,0-.084.418,1.134,1.134,0,0,1-1.086.585c-.752.084-3.677,0-3.677,0V204.1h5.348a1.118,1.118,0,0,1,.669.585,3.4,3.4,0,0,1,.167.585h.836v-2.925H415.174v.752a3.937,3.937,0,0,1,.418.167c.251.084.334.334.418.585,0,.084.084,3.51.084,4.095-.084,1.5.084,5.516,0,7.02a1.221,1.221,0,0,1-.334,1,3.286,3.286,0,0,1-.5.167Zm25.238.752a1.737,1.737,0,0,1,0-.669c0-.084.251-.084.418-.251.167-.084.251-.334.418-.5.167-.334,4.68-13.2,4.68-13.2h2.758s4.178,11.365,4.847,12.953c.167.334.251.669.585.752a.413.413,0,0,0,.251.084v.669h-4.429v-.752a.833.833,0,0,0,.334-.084c.418-.084.5-.418.5-.752,0-.167-1.421-3.761-1.421-3.761h-4.68s-1.086,2.925-1.254,3.343c-.084.5-.084.919.418,1.086.251.084.334.084.334.251v.585H440.5v.251Zm-76.215,0h4.262v-.752a.413.413,0,0,1-.251-.084.9.9,0,0,1-.585-.919,19.755,19.755,0,0,1,0-2.256s3.259-1.086,3.928-1.421c2.006-.919,3.426-2.256,3.677-4.429a5.153,5.153,0,0,0-.167-1.922c-.585-1.922-2.256-2.674-4.262-2.841H364.2v.752a1.292,1.292,0,0,1,.5.251,1.68,1.68,0,0,1,.334.669c0,.167.084,11.115.084,11.365a1.208,1.208,0,0,1-.167.585,1.823,1.823,0,0,1-.418.334.307.307,0,0,0-.251.084v.585Zm-58.666-8.023v-4.847h2.424c1.5.084,2.758.752,2.925,2.173.167,1.755-1,2.507-2.591,2.674-.919.084-2.758,0-2.758,0Zm26.993,0v-4.847s2.423,0,3.008.084a2.428,2.428,0,0,1,2.34,2.173c.167,1.755-1,2.507-2.507,2.591-.752.084-2.841,0-2.841,0Zm13.371,6.268-.084-11.115h.836a9.419,9.419,0,0,1,1.5.251,2.185,2.185,0,0,1,.669.251,6.116,6.116,0,0,1,3.426,7.1,4.028,4.028,0,0,1-1.254,2.34,6.605,6.605,0,0,1-3.844,1.254,9.567,9.567,0,0,0-1.254-.084Zm21.645-4.011v-7.1h2.089a2.742,2.742,0,0,1,2.925,2.591c.084,1.588-1.086,2.758-2.591,3.51-.919.418-2.424,1-2.424,1Zm23.9-2.256v-4.847h2.089c1.839,0,3.343.752,3.176,2.758a2.26,2.26,0,0,1-2.173,2.089Zm13.622,0V204.1s1.5-.084,2.34-.084c1.671,0,2.925.669,3.009,2.34a2.046,2.046,0,0,1-1.839,2.34,2.314,2.314,0,0,1-.752.084,17.105,17.105,0,0,1-2.758.084Zm43.623,1-1.839-4.847-1.671,4.847Zm-125.689,0h-3.51l1.755-4.847,1.755,4.847Zm39.111,2.925v-2.006h-4.429v2.006Z" transform="translate(-283.311 -175.6)" fill="#254558" fill-rule="evenodd"/>
</svg>
