<svg xmlns="http://www.w3.org/2000/svg" width="94.483" height="50.354" viewBox="0 0 94.483 50.354">
  <g id="Hublot_logo" transform="translate(-710.101 -788.176)">
    <g id="Group_214" data-name="Group 214" transform="translate(710.101 788.176)">
      <path id="Path_415" data-name="Path 415" d="M720.7,813.586v5.639h-7.628v-5.643H710.1v15.15h2.968v-6.407H720.7v6.407h2.947V813.586Zm0,0" transform="translate(-710.101 -778.798)" fill="#254558"/>
      <path id="Path_416" data-name="Path 416" d="M734.141,813.585v7.905c0,2.3-.238,4.734-4,4.734s-4.034-2.385-4.034-4.734v-7.905h-2.951v8.094c0,3.611,1.009,7.471,6.985,7.471s6.981-3.915,6.981-7.471v-8.094Zm0,0" transform="translate(-705.283 -778.796)" fill="#254558"/>
      <path id="Path_417" data-name="Path 417" d="M749.2,813.585v15.141h10.222v-3.064h-7.258V813.585Zm0,0" transform="translate(-695.671 -778.796)" fill="#254558"/>
      <path id="Path_418" data-name="Path 418" d="M765.451,813.268a7.961,7.961,0,1,0,8.119,7.962,7.957,7.957,0,0,0-8.119-7.962m0,13a5.043,5.043,0,1,1,5.141-5.041,5.039,5.039,0,0,1-5.141,5.041" transform="translate(-692.667 -778.914)" fill="#254558"/>
      <path id="Path_419" data-name="Path 419" d="M770.072,813.585v3.081h4.762V828.73h2.97V816.666h4.643v-3.081Zm0,0" transform="translate(-687.964 -778.796)" fill="#254558"/>
      <path id="Path_420" data-name="Path 420" d="M747.8,820.788a3.714,3.714,0,0,0,1.44-3.021c0-1.258-.509-4.183-5.217-4.183H736.24v15.145h8.277c3.332,0,5.245-1.683,5.245-4.607a3.732,3.732,0,0,0-1.962-3.334m-3.922-4.428c1.651,0,2.16.6,2.16,1.6s-.441,1.707-2.1,1.707h-4.753v-3.3Zm.458,9.605h-5.149v-3.8h5.168c1.53,0,2.194.6,2.194,1.957,0,1.017-.417,1.847-2.211,1.847" transform="translate(-700.453 -778.797)" fill="#254558"/>
      <path id="Path_421" data-name="Path 421" d="M761.323,788.178H758.5c0,5.13-1.3,7.456-3.99,9.069v-9.071h-4.353v10.966c-.811.285-1.685.579-2.621.9-.523.179-1.032.359-1.524.534v-12.4h-4.354V802.4c-4.4,2.232-6.786,5.321-6.786,12.29H737.7c0-4.76,1.166-7.119,3.958-8.877v8.881h4.354V803.805c.74-.276,1.524-.553,2.379-.845.6-.207,1.191-.407,1.766-.607V814.69h4.353V800.634c4.145-2,6.817-5.005,6.817-12.456" transform="translate(-700.959 -788.176)" fill="#254558"/>
    </g>
  </g>
</svg>
