<svg xmlns="http://www.w3.org/2000/svg" width="107.79" height="41.312" viewBox="0 0 107.79 41.312">
  <g id="iwc" transform="translate(-334.6 -175.085)">
    <path id="Path_25" data-name="Path 25" d="M334.6,214.634a7.062,7.062,0,0,0,3.3-.991c.661-.578,1.074-1.982,1.074-4.378V181.677c0-2.23-.33-3.634-1.074-4.3a6.112,6.112,0,0,0-3.3-1.074V175.4h14.785v.909a5.491,5.491,0,0,0-3.3,1.074c-.661.578-1.074,2.065-1.074,4.3v27.588c0,2.4.33,3.8,1.074,4.378a8.7,8.7,0,0,0,3.3.991v.909H334.6v-.909Z" transform="translate(0 -0.055)" fill="#254558" fill-rule="evenodd"/>
    <path id="Path_26" data-name="Path 26" d="M370.185,175.465v.909a10.677,10.677,0,0,0-2.4.413,1.974,1.974,0,0,0-1.322,1.817,11.8,11.8,0,0,0,.578,2.643l8.012,23.21,7.764-18.832-1.9-6.03c-.5-1.322-.743-2.23-1.817-2.643a6.1,6.1,0,0,0-2.808-.661V175.3l14.7.083v.909a9.624,9.624,0,0,0-2.478.33,2.144,2.144,0,0,0-1.322,2.23,4.145,4.145,0,0,0,.165.991c.083.248.248.826.578,1.652l7.847,22.3,7.351-20.071a31.527,31.527,0,0,0,.909-3.139,8.588,8.588,0,0,0,.165-1.239c0-1.156-.165-2.148-1.239-2.561a8.288,8.288,0,0,0-2.643-.5v-.909H412.97v.909a14.95,14.95,0,0,0-3.469.909,5.3,5.3,0,0,0-2.23,2.974l-6.69,18.337-2.726,7.1-3.717,9.912h-.909l-9.086-25.688-10.82,25.77h-.909s-12.142-35.847-12.968-37.169c-.991-1.652-2.23-2.065-4.047-2.148v-.909l14.785.083Z" transform="translate(-3.62 -0.037)" fill="#254558" fill-rule="evenodd"/>
    <path id="Path_27" data-name="Path 27" d="M448.918,175.923c2.065.661,4.047,1.735,4.3,1.735a2.392,2.392,0,0,0,1.9-.165c.5-.33.578-1.239.743-1.9h.909l.5,12.142h-1.239a16.111,16.111,0,0,0-2.643-5.864,13.192,13.192,0,0,0-10.242-4.625c-3.965,0-6.938,1.817-9.746,5.369-2.065,2.726-3.221,7.682-3.221,13.463,0,5.286,1.487,9.994,3.552,12.637a11.837,11.837,0,0,0,9.829,4.956,15.055,15.055,0,0,0,8.095-1.9,15.666,15.666,0,0,0,5.121-5.121l.991.578a18.887,18.887,0,0,1-5.121,6.195c-2.974,2.4-6.69,2.974-10.407,2.974-6.03,0-10.9-2.065-14.372-6.112a20.975,20.975,0,0,1-4.956-14.207,21.415,21.415,0,0,1,5.2-14.62,18.419,18.419,0,0,1,14.289-6.36,21.779,21.779,0,0,1,6.525.826Z" transform="translate(-15.366 0)" fill="#254558" fill-rule="evenodd"/>
  </g>
</svg>
