<svg xmlns="http://www.w3.org/2000/svg" width="179.493" height="44.62" viewBox="0 0 179.493 44.62">
  <g id="jaeger-lecoultre" transform="translate(-301.789 -175.3)">
    <path id="Path_175" data-name="Path 175" d="M415.4,188.169a32.249,32.249,0,0,1-10.814,2.77h0V179.232h4.558l-2.681-3.932h-5.094l-1.072,1.519-1.072-1.519h-5.094l-2.681,3.932h4.558V190.94h0a32.248,32.248,0,0,1-10.814-2.77h0l-3.4,4.647h0a47.608,47.608,0,0,0,4.558,1.7h0l1.072-1.7h0a42.936,42.936,0,0,0,12.78,1.966,39.142,39.142,0,0,0,12.78-1.966h0l1.072,1.7h0a47.613,47.613,0,0,0,4.558-1.7h0l-3.217-4.647Zm-15.372,5.63a41.084,41.084,0,0,1-12.69-2.055h0l-1.072,1.609h0a13.078,13.078,0,0,1-2.86-1.072h0l2.234-3.128h0a36.8,36.8,0,0,0,11.35,2.681h0V178.339H393.15l1.609-2.234h4.2l1.162,1.7-.089,16Zm13.495-1.966a41.084,41.084,0,0,1-12.69,2.056h0v-16l1.162-1.7h4.2l1.609,2.234h-3.843v13.495h0a36.8,36.8,0,0,0,11.35-2.681h0l2.234,3.128h0a13.076,13.076,0,0,1-2.86,1.072h0l-1.162-1.609Z" transform="translate(-8.505)" fill="#254558" fill-rule="evenodd"/>
    <path id="Path_176" data-name="Path 176" d="M477.5,208.9a19.055,19.055,0,0,0-4.558,4.29h-1.7s-.447.089-.447-.447h0v-4.379h0s-.089-.447.357-.447h1.251s.357-.089.626.536h0l.179.357h0s.089.447.626.268c0,0,.536.089.357-.536-.179-.536,0-.089,0-.089h0l-.715-2.234h0a.446.446,0,0,0-.447-.268h-.357s-.357,0-.268.447c0,0,.089.447-.447.447h-.715s-.357.089-.357-.626h0v-1.251h0s-.089-.357.447-.357h2.592s.626-.179.983.626h0l.179.447h0s0,.447.626.268c0,0,.626.089.447-.536h0l-.447-1.43h0s0-.357-.447-.357h-7.507s-.447-.089-.447.357h0v.268h0s-.089.268.447.357c0,0,.536,0,.536.715h0l-.089,7.15h0s0,.626-.447.8c0,0-.447-.179-.536.357,0,0-.179.447.447.447h3.575s.626,0,.268.357a12.03,12.03,0,0,1-3.754,3.575,9.592,9.592,0,0,1-4.379,1.072H318.69s-3.039.268-4.647-1.341h0l-2.413-2.681h0s-.179-.357.179-.447c0,0,2.949-.536,4.022-2.592a9.3,9.3,0,0,0,1.162-4.915h0v-6.7h0s-.089-.447.536-.536h.626s.268.089.268-.447h0v-.268h0s.179-.357-.357-.357H312.7s-.357-.089-.447.357h0v.357h0s-.179.447.447.447h.447s.715-.089.626.715h0v8.133h0s.357,4.29-3.485,4.826c0,0-2.5-3.664-4.022-4.558,0,0-2.145-1.7-3.932-.089,0,0-1.7,1.877.894,4.111a11.1,11.1,0,0,0,6.7,1.966s2.234,3.307,2.681,3.932a10.209,10.209,0,0,0,2.949,2.5c1.341.536,1.609.894,6.256.894h138.7s3.575.268,5.63-.983a12.039,12.039,0,0,0,3.485-2.86h0l3.664-4.379h0s3.754.089,5.72-1.251c0,0,2.055-1.072,2.234-2.77.268-1.519-1.341-2.413-3.754-1.251Zm-171.411,4.558c-1.609-.715-1.162-1.787-1.162-1.787.357-.8,1.43-.268,1.43-.268,1.341.536,2.77,2.681,2.77,2.681a5.1,5.1,0,0,1-3.039-.626Zm171.411-.8a7.4,7.4,0,0,1-3.4.626,14.494,14.494,0,0,1,1.787-1.966c1.162-.983,1.966-.536,1.966-.536,1.072.894-.357,1.877-.357,1.877Z" transform="translate(0 -2.497)" fill="#254558" fill-rule="evenodd"/>
    <path id="Path_177" data-name="Path 177" d="M330.585,214.22s0-.268-.357-.357c0,0-.447,0-.715-.715h0l-2.86-8.49h0s0-.357-.447-.357h-2.324a.626.626,0,0,0-.536.447h0l-3.217,8.579h0s0,.536-1.072.536a.35.35,0,0,0-.357.447h0v.268h0s-.089.357.447.357h2.77s.357,0,.357-.268h0V214.4h0s.089-.357-.357-.447a.618.618,0,0,1-.536-.8h0l.447-.894h4.558l.447,1.072h0s.179.536-.179.626c0,0-.536,0-.536.268h0v.357h0s-.179.357.536.357h3.575s.447.089.447-.357h0l-.089-.357ZM325.669,211h-2.86c-.715,0-.357-.715-.357-.715h0l1.519-3.932h0c.268-.626.626,0,.626,0h0l1.251,3.843h0c.268,1.072-.179.8-.179.8Z" transform="translate(-1.796 -3.083)" fill="#254558" fill-rule="evenodd"/>
    <path id="Path_178" data-name="Path 178" d="M406.117,213.762h-1.7s-.447.089-.447-.447h0v-4.379h0s-.089-.447.357-.447h1.251s.357-.089.626.536h0l.179.357h0s.089.447.626.268c0,0,.536.089.357-.536-.179-.536,0-.089,0-.089h0l-.715-2.234h0a.446.446,0,0,0-.447-.268h-.357s-.357,0-.268.447c0,0,.089.447-.447.447h-.715s-.357.089-.357-.626h0V205.54h0s-.089-.357.447-.357H407.1s.626-.179.983.626h0l.179.447h0s0,.447.626.268c0,0,.626.089.447-.536h0l-.447-1.43h0s0-.357-.447-.357h-7.507s-.447-.089-.447.357h0v.268h0s-.089.268.447.357c0,0,.536,0,.536.715h0l-.089,7.15h0s0,.626-.447.8c0,0-.447-.179-.536.357,0,0-.179.447.447.447h7.507s.268.089.447-.268h0l.626-1.519h0s.268-.447-.268-.447h-.447s-.268-.089-.357.268h0l-.268.447h0s-.089.447-.8.447h0l-1.162.179Z" transform="translate(-10.48 -3.071)" fill="#254558" fill-rule="evenodd"/>
    <path id="Path_179" data-name="Path 179" d="M338.806,213.762h-1.7s-.447.089-.447-.447h0v-4.379h0s-.089-.447.357-.447h1.251s.357-.089.626.536h0l.179.357h0s.089.447.626.268c0,0,.536.089.357-.536-.179-.536,0-.089,0-.089h0l-.715-2.234h0a.446.446,0,0,0-.447-.268h-.357s-.357,0-.268.447c0,0,.089.447-.447.447h-.715s-.447.089-.447-.626h0V205.54h0s-.089-.357.447-.357H339.7s.626-.179.983.626h0l.179.447h0s0,.447.626.268c0,0,.626.089.447-.536h0l-.447-1.43h0s0-.357-.447-.357h-7.507s-.447-.089-.447.357h0v.268h0s-.089.268.447.357c0,0,.536,0,.536.715h0l-.089,7.15h0s0,.626-.447.8c0,0-.447-.179-.536.357,0,0-.179.447.447.447h7.507s.268.089.447-.268h0l.626-1.519h0s.268-.447-.268-.447h-.447s-.268-.089-.357.268h0l-.268.447h0s-.089.447-.8.447h0l-1.073.179Z" transform="translate(-3.315 -3.071)" fill="#254558" fill-rule="evenodd"/>
    <path id="Path_180" data-name="Path 180" d="M362.817,213.862h-1.7s-.447.089-.447-.447h0v-4.379h0s-.089-.447.357-.447h1.251s.357-.089.626.536h0l.179.357h0s.089.447.626.268c0,0,.536.089.357-.536-.179-.536,0-.089,0-.089h0l-.715-2.234h0a.446.446,0,0,0-.447-.268h-.357s-.357,0-.268.447c0,0,.089.447-.447.447h-.715s-.357.089-.357-.626h0V205.64h0s-.089-.357.447-.357H363.8s.626-.179.983.626h0l.179.447h0s0,.447.626.268c0,0,.626.089.447-.536h0l-.447-1.43h0s0-.357-.447-.357h-7.507s-.447-.089-.447.357h0v.268h0s-.089.268.447.357c0,0,.536,0,.536.715h0l-.089,7.15h0s0,.626-.447.8c0,0-.447-.179-.536.357,0,0-.179.447.447.447h7.507s.268.089.447-.268h0l.626-1.519h0s.268-.447-.268-.447h-.447s-.268-.089-.357.268h0l-.268.447h0s-.089.447-.8.447h0l-1.162.179Z" transform="translate(-5.877 -3.082)" fill="#254558" fill-rule="evenodd"/>
    <path id="Path_181" data-name="Path 181" d="M349.481,204.1a5.312,5.312,0,0,0-5.183,5.362c-.357,5.452,5,5.541,5,5.541a6.239,6.239,0,0,0,4.111-1.341.965.965,0,0,0,.357-.715h0l.089-.983h0s-.268-.8.715-.8a.35.35,0,0,0,.357-.357h0v-.179h0s0-.357-.536-.357h-3.843s-.447-.089-.447.268h0v.268h0s0,.357.447.357a.809.809,0,0,1,.894.894,2.024,2.024,0,0,1-2.145,2.234c-2.324,0-2.324-2.145-2.324-5-.089-2.77.8-4.111,2.681-4.111a3.04,3.04,0,0,1,2.77,1.877.416.416,0,0,0,.536.268h0l.447-.179h0s.268.089.179-.357h0l-.626-2.055h0a.266.266,0,0,0-.357-.268s-.179,0-.357.268c0,0,.089.536-.894.179.089-.268-.715-.8-1.877-.8Z" transform="translate(-4.517 -3.062)" fill="#254558" fill-rule="evenodd"/>
    <path id="Path_182" data-name="Path 182" d="M380.516,214.33s.089-.268-.447-.268h-.179s-.626.089-1.162-.8c0,0-1.43-2.681-2.324-3.217,0,0-.268-.179,0-.268a5.046,5.046,0,0,0,1.877-.894s.8-.357.8-1.966c0,0,.179-2.413-3.307-2.413h-6.345s-.447-.089-.447.357h0v.268h0s-.089.268.447.357c0,0,.536,0,.536.715h0l-.089,7.15h0s.089.8-.536.8c0,0-.536-.089-.447.447,0,0-.179.536.536.536h3.485s.536.089.536-.268h0v-.357h0s0-.357-.447-.357a.6.6,0,0,1-.536-.626h0v-2.949h0s-.089-.357.357-.357h.715a1.407,1.407,0,0,1,1.341.8h0l1.519,2.949h0a2.282,2.282,0,0,0,1.787,1.251h1.966s.268.089.268-.357h0l.089-.536Zm-5.809-5.362H372.83c-.089,0-.357-.089-.357-.626h0v-2.681h0s-.089-.357.447-.357h0l2.145.089h0s1.7,0,1.7,1.609c0,1.43-.8,1.966-2.056,1.966Z" transform="translate(-7.132 -3.103)" fill="#254558" fill-rule="evenodd"/>
    <path id="Path_183" data-name="Path 183" d="M484.916,214.33s.089-.268-.447-.268h-.179s-.626.089-1.162-.8c0,0-1.43-2.681-2.324-3.217,0,0-.268-.179,0-.268a5.046,5.046,0,0,0,1.877-.894s.8-.357.8-1.966c0,0,.179-2.413-3.307-2.413h-6.345s-.447-.089-.447.357h0v.268h0s-.089.268.447.357c0,0,.536,0,.536.715h0l-.089,7.15h0s.089.8-.536.8c0,0-.536-.089-.447.447,0,0-.179.536.536.536h3.485s.536.089.536-.268h0v-.357h0s0-.357-.447-.357a.6.6,0,0,1-.536-.626h0v-2.949h0s-.089-.357.357-.357h.715a1.407,1.407,0,0,1,1.341.8h0l1.519,2.949h0a2.282,2.282,0,0,0,1.787,1.251h1.966s.268.089.268-.357h0l.089-.536Zm-5.809-5.362H477.23c-.089,0-.357-.089-.357-.626h0v-2.681h0s-.089-.357.447-.357h0l2.145.089h0s1.7,0,1.7,1.609c0,1.43-.8,1.966-2.055,1.966Z" transform="translate(-18.23 -3.103)" fill="#254558" fill-rule="evenodd"/>
    <path id="Path_184" data-name="Path 184" d="M387.258,210.987a.422.422,0,0,0,.447-.447h0v-.894h0a.422.422,0,0,0-.447-.447h-4.111a.422.422,0,0,0-.447.447h0v.894h0a.422.422,0,0,0,.447.447h4.111Z" transform="translate(-8.601 -3.604)" fill="#254558" fill-rule="evenodd"/>
    <path id="Path_185" data-name="Path 185" d="M390.367,204.168a.263.263,0,0,0-.268.268h0v.357h0s-.089.357.447.268a.7.7,0,0,1,.8.715h0v7.328h0s.089.536-.536.536c0,0-.447,0-.447.268h0v.447h0a.35.35,0,0,0,.357.357h6.792s.268.089.447-.447h0l.715-1.519h0s.179-.447-.268-.447h-.447a.391.391,0,0,0-.357.268h0l-.268.447h0a.874.874,0,0,1-.894.447h-2.056s-.626.089-.626-.447h0V205.6h0s-.089-.715.536-.715h.268s.268,0,.268-.357h0v-.268h0s.089-.357-.357-.357h0l-4.111.268Z" transform="translate(-9.387 -3.04)" fill="#254558" fill-rule="evenodd"/>
    <path id="Path_186" data-name="Path 186" d="M453.567,204.168a.263.263,0,0,0-.268.268h0v.357h0s-.089.357.447.268a.7.7,0,0,1,.8.715h0v7.328h0s.089.536-.536.536c0,0-.447,0-.447.268h0v.447h0a.35.35,0,0,0,.357.357h6.792s.268.089.447-.447h0l.715-1.519h0s.179-.447-.268-.447h-.536a.391.391,0,0,0-.357.268h0l-.268.447h0a.874.874,0,0,1-.894.447H457.5s-.626.089-.626-.447h0V205.6h0s-.089-.715.536-.715h.268s.268,0,.268-.357h0v-.268h0s.089-.357-.357-.357h0l-4.022.268Z" transform="translate(-16.106 -3.04)" fill="#254558" fill-rule="evenodd"/>
    <path id="Path_187" data-name="Path 187" d="M418.492,198.8s-6.7-.357-6.792,7.954c0,0-.268,7.239,6.613,7.6a5.761,5.761,0,0,0,3.039-.8s.447-.179.536.179a.532.532,0,0,0,.626.447.525.525,0,0,0,.536-.536h0l.894-2.86h0s.179-.447-.268-.447h-.357a.553.553,0,0,0-.447.357,5.9,5.9,0,0,1-1.072,1.609,3.929,3.929,0,0,1-3.128,1.072s-4.022.089-3.843-6.524c0,0-.357-6.881,4.022-6.792a4.188,4.188,0,0,1,3.575,2.056.725.725,0,0,0,.626.447h.447s.357,0,.268-.536h0l-.715-2.592h0s-.089-.357-.357-.357h-.536a.277.277,0,0,0-.179.357s.089.357-.089.447c0,0-.089.179-.447,0,.089-.179-1.072-.983-2.949-1.072Z" transform="translate(-11.684 -2.498)" fill="#254558" fill-rule="evenodd"/>
    <path id="Path_188" data-name="Path 188" d="M430,212.4Z" transform="translate(-13.629 -3.944)" fill="#254558" fill-rule="evenodd"/>
    <path id="Path_189" data-name="Path 189" d="M437.446,209.473c-.089-5.362-5.273-5.273-5.273-5.273s-5.183,0-5.273,5.273c0,0-.089,5.273,5.273,5.452,5.362-.268,5.273-5.452,5.273-5.452Zm-2.86,2.234c-.447,2.592-2.5,2.234-2.5,2.234s-1.966.357-2.5-2.234c-.447-2.413-.089-.357,0-.089a12.3,12.3,0,0,1,.089-4.915,2.483,2.483,0,0,1,4.647,0,12.3,12.3,0,0,1,.089,4.915c.268-.357.626-2.413.179.089Z" transform="translate(-13.3 -3.072)" fill="#254558" fill-rule="evenodd"/>
    <path id="Path_190" data-name="Path 190" d="M435.592,212.4Z" transform="translate(-14.217 -3.944)" fill="#254558" fill-rule="evenodd"/>
    <path id="Path_191" data-name="Path 191" d="M440.257,204.2s-.357,0-.357.268h0v.357h0s0,.357.447.357h.268s.447-.089.447.715h0v5.362h0a4.1,4.1,0,0,0,4.379,3.754s4.29.268,4.111-3.843h0v-5.362h0a.523.523,0,0,1,.536-.626h.179a.263.263,0,0,0,.268-.268h0v-.268h0s.089-.357-.268-.357h-2.5s-.357,0-.357.268h0v.268h0s-.089.357.357.357c0,0,.715-.089.715.8h0v5.183h0s.268,2.77-2.234,2.77c0,0-2.77.447-2.77-2.86h0v-5.273h0s.089-.626.626-.626h.179s.268,0,.268-.357h0v-.268h0s.089-.357-.268-.357h-4.022Z" transform="translate(-14.682 -3.072)" fill="#254558" fill-rule="evenodd"/>
    <path id="Path_192" data-name="Path 192" d="M461.968,204.2a.577.577,0,0,0-.447.268h0l-.626,1.609h0s-.179.357.268.357h.536s.179.089.357-.268h0l.357-.715h0a.67.67,0,0,1,.536-.268h1.519s.447-.089.447.536h0v7.6h0s.089.536-.268.536h-.357a.263.263,0,0,0-.268.268h0v.357h0s-.089.268.268.268h3.932s.268.089.268-.268h0v-.268h0s.089-.357-.268-.357h-.447s-.447.089-.447-.715h0v-7.328h0s-.179-.536.447-.536H469.3s.268-.089.536.357h0l.357.626h0a.616.616,0,0,0,.447.268h.447s.357,0,.179-.357h0l-.626-1.609h0s0-.268-.536-.268h0l-8.133-.089Z" transform="translate(-16.91 -3.072)" fill="#254558" fill-rule="evenodd"/>
  </g>
</svg>
