<svg xmlns="http://www.w3.org/2000/svg" width="38.111" height="36.296" viewBox="0 0 38.111 36.296">
  <path id="Icon_simple-line" data-name="Icon simple-line" d="M30.751,15.469a1,1,0,0,1,0,2H27.964v1.786h2.787a1,1,0,1,1,0,2H26.962a1,1,0,0,1-1-1V12.682a1,1,0,0,1,1-1h3.789a1,1,0,0,1,0,2H27.964v1.786h2.787Zm-6.122,4.789a1,1,0,0,1-.686.946,1.026,1.026,0,0,1-.316.049.982.982,0,0,1-.81-.4L18.938,15.59v4.669a1,1,0,1,1-2,0V12.682a1,1,0,0,1,.683-.945.924.924,0,0,1,.308-.052,1.027,1.027,0,0,1,.786.4l3.91,5.288V12.682a1,1,0,1,1,2,0v7.576Zm-9.117,0a1,1,0,1,1-2,0V12.682a1,1,0,1,1,2,0v7.576Zm-3.916,1H7.808a1.006,1.006,0,0,1-1-1V12.682a1,1,0,1,1,2,0v6.576H11.6a1,1,0,0,1,0,2m26.514-5.072c0-8.529-8.551-15.47-19.056-15.47S0,7.656,0,16.185c0,7.64,6.781,14.041,15.935,15.257.621.13,1.466.41,1.68.937a3.879,3.879,0,0,1,.06,1.715l-.26,1.62c-.071.478-.381,1.883,1.666,1.024s10.982-6.476,14.984-11.076a13.693,13.693,0,0,0,4.046-9.477" transform="translate(0 -0.715)" fill="#fff"/>
</svg>
