<svg id="officine-panerai" xmlns="http://www.w3.org/2000/svg" width="173.977" height="43.892" viewBox="0 0 173.977 43.892">
  <g id="Group_87" data-name="Group 87" transform="translate(0 0)">
    <path id="Path_10" data-name="Path 10" d="M164.065,135.205c-4.268,0-7.615,1-10.126,3.013a8.6,8.6,0,0,0,0,13.682c2.511,2.008,5.858,3.012,10.126,3.012,4.226,0,7.615-1,10.084-3.012a8.536,8.536,0,0,0,0-13.682C171.68,136.21,168.291,135.205,164.065,135.205Zm-9.791,9.875a7.026,7.026,0,0,1,2.3-5.313,12.531,12.531,0,0,1,14.938,0,7.236,7.236,0,0,1,0,10.585c-1.8,1.632-4.268,2.427-7.447,2.427-3.223,0-5.691-.795-7.49-2.427A7,7,0,0,1,154.274,145.08Z" transform="translate(-150.55 -135.205)" fill="#254558"/>
  </g>
  <g id="Group_88" data-name="Group 88" transform="translate(31.59 0.46)">
    <path id="Path_11" data-name="Path 11" d="M261.665,146.748v-2.092H248.737v-5.984h14.728V136.58H244.971v18.787h3.766v-8.619h12.928Z" transform="translate(-244.971 -136.58)" fill="#254558"/>
  </g>
  <g id="Group_89" data-name="Group 89" transform="translate(54.226 0.46)">
    <path id="Path_12" data-name="Path 12" d="M329.364,146.748v-2.092H316.393v-5.984h14.77V136.58H312.627v18.787h3.766v-8.619h12.971Z" transform="translate(-312.627 -136.58)" fill="#254558"/>
  </g>
  <g id="Group_90" data-name="Group 90" transform="translate(77.071 0.46)">
    <path id="Path_13" data-name="Path 13" d="M384.633,136.581h-3.724v18.787h3.724Z" transform="translate(-380.909 -136.581)" fill="#254558"/>
  </g>
  <g id="Group_91" data-name="Group 91" transform="translate(85.774 0)">
    <path id="Path_14" data-name="Path 14" d="M428.094,141.315h3.766a6.664,6.664,0,0,0-3.934-4.561,16.939,16.939,0,0,0-7.7-1.548c-4.184,0-7.49.963-9.917,2.929a9,9,0,0,0-.167,13.934c2.3,1.883,5.565,2.845,9.791,2.845a15.853,15.853,0,0,0,8.494-2.008,7.705,7.705,0,0,0,3.724-5.524h-3.766a5.352,5.352,0,0,1-2.344,3.85,9.77,9.77,0,0,1-5.816,1.548c-3.18,0-5.607-.753-7.322-2.3a7.22,7.22,0,0,1-2.26-5.565,6.837,6.837,0,0,1,2.26-5.272c1.716-1.548,4.142-2.343,7.322-2.343a11.105,11.105,0,0,1,5.1,1.046A4.694,4.694,0,0,1,428.094,141.315Z" transform="translate(-406.922 -135.206)" fill="#254558"/>
  </g>
  <g id="Group_92" data-name="Group 92" transform="translate(115.817 0.46)">
    <path id="Path_15" data-name="Path 15" d="M500.482,136.581h-3.766v18.787h3.766Z" transform="translate(-496.716 -136.581)" fill="#254558"/>
  </g>
  <g id="Group_93" data-name="Group 93" transform="translate(125.817 0.46)">
    <path id="Path_16" data-name="Path 16" d="M549.074,136.581h-3.557v15.23h-.084l-14.812-15.23h-4.017v18.787h3.556V140.305h.083l14.729,15.063h4.1V136.581Z" transform="translate(-526.605 -136.581)" fill="#254558"/>
  </g>
  <g id="Group_94" data-name="Group 94" transform="translate(154.395 0.46)">
    <path id="Path_17" data-name="Path 17" d="M630.433,146.748v-2.092H615.747v-5.984h15.732V136.58H612.023v18.787H631.6v-2.092H615.747v-6.527h14.687Z" transform="translate(-612.023 -136.58)" fill="#254558"/>
  </g>
  <g id="Group_95" data-name="Group 95" transform="translate(0.251 25.105)">
    <path id="Path_18" data-name="Path 18" d="M163.685,210.241H151.3v18.787h3.766v-7.7h8.62a11.169,11.169,0,0,0,6.4-1.464,4.861,4.861,0,0,0,0-8.159C168.622,210.7,166.447,210.241,163.685,210.241Zm-8.619,2.092h7.322c4.1,0,6.151,1.13,6.151,3.473,0,2.3-2.05,3.43-6.151,3.43h-7.322Z" transform="translate(-151.3 -210.241)" fill="#254558"/>
  </g>
  <g id="Group_96" data-name="Group 96" transform="translate(22.218 25.105)">
    <path id="Path_19" data-name="Path 19" d="M232.1,210.241h-4.143l-11,18.787h3.849l3.18-5.649h11.925l3.1,5.649h4.1Zm-2.176,2.218h.084l4.687,8.787h-9.54Z" transform="translate(-216.957 -210.241)" fill="#254558"/>
  </g>
  <g id="Group_97" data-name="Group 97" transform="translate(53.766 25.105)">
    <path id="Path_20" data-name="Path 20" d="M314.81,213.924h.083l14.728,15.1h4.1V210.241h-3.556v15.23h-.084l-14.854-15.23h-3.975v18.787h3.557Z" transform="translate(-311.253 -210.241)" fill="#254558"/>
  </g>
  <g id="Group_98" data-name="Group 98" transform="translate(84.938 25.105)">
    <path id="Path_21" data-name="Path 21" d="M423.878,212.333v-2.092H404.422v18.787H424v-2.134H408.188v-6.486h14.644v-2.092H408.188v-5.984h15.69Z" transform="translate(-404.422 -210.241)" fill="#254558"/>
  </g>
  <g id="Group_99" data-name="Group 99" transform="translate(111.716 25.105)">
    <path id="Path_22" data-name="Path 22" d="M505.13,218.15a4.282,4.282,0,0,0,1.171-2.971,4.076,4.076,0,0,0-2.3-3.6,12.261,12.261,0,0,0-6.277-1.339H484.46v18.787h3.766v-8.034h9.121a5.283,5.283,0,0,1,3.6,1,4.532,4.532,0,0,1,1.13,2.385,20.03,20.03,0,0,1,.335,2.72,2.523,2.523,0,0,0,.67,1.925h4.226a3.769,3.769,0,0,1-1.339-2.385l-.335-2.8a4.5,4.5,0,0,0-1-2.469,4.731,4.731,0,0,0-3.221-1.38v-.084A6.76,6.76,0,0,0,505.13,218.15Zm-7.573-5.816a6.572,6.572,0,0,1,3.808.921,2.571,2.571,0,0,1,1.171,2.259c0,2.26-2.175,3.348-6.485,3.348h-7.825v-6.527Z" transform="translate(-484.46 -210.241)" fill="#254558"/>
  </g>
  <g id="Group_100" data-name="Group 100" transform="translate(138.077 25.105)">
    <path id="Path_23" data-name="Path 23" d="M578.4,210.241h-4.142l-11,18.787H567.1l3.18-5.649h11.883l3.1,5.649H589.4Zm-2.175,2.218h.083l4.687,8.787h-9.54Z" transform="translate(-563.249 -210.241)" fill="#254558"/>
  </g>
  <g id="Group_101" data-name="Group 101" transform="translate(169.792 25.105)">
    <path id="Path_24" data-name="Path 24" d="M661.81,210.241h-3.766v18.787h3.766Z" transform="translate(-658.044 -210.241)" fill="#254558"/>
  </g>
</svg>
