<svg xmlns="http://www.w3.org/2000/svg" width="103.2" height="49.9" viewBox="0 0 103.2 49.9">
  <g id="patek-philippe" transform="translate(-348.8 -174.9)">
    <path id="Path_156" data-name="Path 156" d="M348.8,210.4v-12h4.1a2.543,2.543,0,0,1,1.7.4,3.744,3.744,0,0,1,1.3,1.2,3.686,3.686,0,0,1,.5,1.7,3.371,3.371,0,0,1-.5,1.7,2.94,2.94,0,0,1-1,1.2,2.01,2.01,0,0,1-.8.4,3.553,3.553,0,0,1-1,.2h-2.9v5.2h-1.4Zm1.4-6.5H353a2.934,2.934,0,0,0,1-.3,2.361,2.361,0,0,0,.8-.9,1.644,1.644,0,0,0,.2-1,3,3,0,0,0-.4-1,1.575,1.575,0,0,0-.7-.7,1.344,1.344,0,0,0-.9-.2.31.31,0,0,0-.2-.1h-2.5l-.1,4.2Z" fill="#254558" fill-rule="evenodd"/>
    <path id="Path_157" data-name="Path 157" d="M354.7,210.4l4.8-12.2h1.3l5,12.2H364l-1.2-3.1h-5.5l-1.2,3.1Zm3.2-4.4h4.4l-2.2-5.5-2.2,5.5Z" fill="#254558" fill-rule="evenodd"/>
    <path id="Path_158" data-name="Path 158" d="M366.8,210.4V199.7l-3.6-.1v-1.4H372l-.1,1.4h-3.6v10.8Z" fill="#254558" fill-rule="evenodd"/>
    <path id="Path_159" data-name="Path 159" d="M373,210.4V198.2h6.8l-.8,1.4h-4.5v3.9h4.3v1.3h-4.3v4.3h4.6l.8,1.3Z" fill="#254558" fill-rule="evenodd"/>
    <path id="Path_160" data-name="Path 160" d="M381.7,220.9v-1h4v3.2l-.7.7a3.328,3.328,0,0,1-1,.6,3.545,3.545,0,0,1-1.1.3,3.749,3.749,0,0,1-1.1.1,6.579,6.579,0,0,1-1.5-.4,2.407,2.407,0,0,1-.8-.6,2.016,2.016,0,0,1-.7-.9,4.383,4.383,0,0,1-.7-1.9l-.1-.7a3.787,3.787,0,0,1,0-1.5,6.561,6.561,0,0,1,.8-2.1,5.706,5.706,0,0,1,1.4-1.3,1.072,1.072,0,0,1,.6-.2,2.745,2.745,0,0,1,1.3-.2,7.72,7.72,0,0,1,1.5.2,6.375,6.375,0,0,1,1.4.8,1.048,1.048,0,0,1,.3.4l.4.4-.7.6-.2-.2a4,4,0,0,0-1.2-1,1.854,1.854,0,0,0-.7-.2h-.7a3.255,3.255,0,0,0-1.4.4c-.2.2-.4.3-.6.5a2.506,2.506,0,0,0-.4.7,3,3,0,0,0-.4,1l-.1.6v1.2l.1.6.2.6.3.9c.2.3.5.6.8,1a2.994,2.994,0,0,0,1,.4,1.672,1.672,0,0,0,1.2.1,2.1,2.1,0,0,0,1.1-.4l.6-.3.2-.2v-1.9l-3.1-.3Z" fill="#254558" fill-rule="evenodd"/>
    <path id="Path_161" data-name="Path 161" d="M380.8,210.4V198.2h1.5v5.5l4.9-5.5h1.9l-3.7,4.2,4.1,8h-1.8l-3.4-6.7-2,2.2v4.5Z" fill="#254558" fill-rule="evenodd"/>
    <path id="Path_162" data-name="Path 162" d="M387,224.8v-9.4h5.3l-.5,1h-3.5v3h3.3v1h-3.3v3.3h3.5l.5,1.1Z" fill="#254558" fill-rule="evenodd"/>
    <path id="Path_163" data-name="Path 163" d="M401.3,191.3h-.2l-.1.1-.1.1v.3h0l.1.1v.2l.1.1.1.1v.1l.1.2h0v.4h.1v.3l-.1.1v.4h0v.1h-.1v.1l-.1.2-.2.1v.1l-.2.2h-.1l-.1.1-.2.2-.2-.2v-.1h-.2l-.1-.2-.1-.1v-.1l-.1-.1-.1-.2v-.1l-.1-.1v-.3l-.1-.1v-.2l.1-.1h0v-.3l.1-.1v-.1l.1-.1.1-.4.1-.1v-.4h0l-.1-.1v-.1h-.2l-.1.1h-.1l-.1.1-.5.3-.1.1h-.2l-.1.1h-.1l-.1.1h-.5l-.1-.1h-.1l-.2-.1h-.1l-.1-.1-.1-.1-.1-.1-.1-.1-.1-.1v-1l.1-.1v-.1l.1-.1.1-.1v-.1h.1v-.2l.8-.7.4-.5.1-.1.1-.1.1-.1V188l.2-.4h.1v-.2l.1-.1h0l.1.1.1.1v.1l.1.1v.1l-.1.2h0v.1l-.1.2-.1.1-.3.7-.2.4v.2l-.1.2h0v.1l.1.1v.2h.1l.1.1.1.1h.6l.2-.1h.1l.1-.1h0l.1-.1.1-.1h0l.1-.2h0l.1-.2v-4.4h-4.6v.1h-.1l-.1.1-.1.1h-.1l-.1.1h0l-.1.1-.1.2v.1h-.1v.5l.1.2h.1l.1.1v.1l.1.1h.7V187h.1l.1-.1.4-.1.2-.2.2-.1h.1l.1-.1h.8v.4h-.5l-.1.1-.1.1-.5.4-.7.5-.5.5h-.1l-.1.2h-.1v.1l-.2.1h-1.2l-.1-.1-.1-.1-.1-.1-.1-.1-.2-.1V188h0v-.8h0l.2-.3.1-.1.3-.4.1-.1.1-.2h0v-.4h-.2l-.1-.1h-.1l-.2.1h-.1l-.4.1-.1.1h0l-.1.1h-.2l-.1.1h-.4l-.1-.1h-.2l-.2-.1-.1-.1h-.1v-.1H391l-.2-.2-.1-.1v-.1h-.2l-.1-.3.2-.2.3-.3.1-.1h.1l.1-.2.1-.1h.4l.2-.1h.4l.1.1h.2l.4.2.1.1.1.1h.6l.1-.2h0v-.2h0V184l-.1-.2-.1-.1-.1-.1-.1-.3-.1-.1v-.1l-.1-.1-.1-.1v-.2l-.1-.1v-.3l.1-.1V182l.1-.1.1-.1.1-.1v-.1l.1-.1.1-.1h.2l.1-.1h.2l.1-.1h.2l.1.1h.2l.2.1h.3l.1.1v.1l.1.1.2.1.1.1.7.7.1.1.1.2.3.1.1.2h.1l.1.1h.5v.1l.1.1v.2h-.1l-.1.1h-.3v-.1h-.2l-.3-.1h-.1l-.2-.1-.4-.2-.4-.3h-.7l-.2.1-.1.1v.1l-.1.1v.7h.1v.2l.2.1.1.1h.1l.2.1h4.7v-4.4h0l-.1-.1v-.2h-.1v-.1l-.1-.1-.1-.1v-.1h-.2l-.1-.1h-.1l-.2-.1H399l-.1.1h-.1l-.2.1h-.1l-.1.2v.1h0l-.1.1v.1l.1.1v.1h0v.1l.1.1v.1l.2.6.2.5.1.2.1.1v.3h0l-.1.2-.1.1v.1l-.1-.1-.1-.1v-.3l-.1-.1-.1-.2-.1-.2-.1-.2h-.1l-.2-.3-.6-.7-.4-.5-.1-.1-.1-.2-.1-.1-.1-.1v-.3h0v-.6l.1-.2h.1v-.1l.2-.1v-.2h.1l.1-.1h.2v-.1h.3l.1-.1.1.1h.3l.1.1h.1l.1.1.2.1.2.3h.3l.1.1.1.1h.3v-.1h0l.1-.1h.1v-.2l-.1-.1v-.1h0l-.1-.1v-.2l-.1-.2-.2-.3v-.2l-.1-.1v-.4l.1-.1v-.1l.1-.1V176l.1-.2.1-.1v-.1l.1-.1.1-.1.1-.1.1-.1.3-.3.1.2.2.1.2.1v.2l.1.1.1.1.1.1.1.2h0v.2l.1.2h0v.5l-.1.2v.3l-.1.1v.1l-.2.3h0l-.1.1v.2l.1.1h0v.1l.1.1h.1l.1.1.1-.1h.2l.1-.1.1-.1h.1l.4-.4h.3l.1-.1h.7l.2.1h0l.2.1.1.1.1.1v.1h.1v.2l.1.1v.1l.1.2v.1l-.1.1v.2h0v.1l-.1.1h0l-.1.2v.2h-.1l-.1.2-.2.1-.1.2-.3.3-.3.3-.2.3-.2.1-.1.2-.2.3-.1.1-.1.1v.1h0v.2l-.1.1h-.1l-.1-.1v-.2h0v-.4h0l.1-.1.2-.7.3-.4.1-.1v-.3h0v-.6l-.1-.1h0l-.1-.1H402v-.1h-.4l-.2.1h-.1v.1h-.1l-.1.1-.2.2v.2l-.1.1v.1h0v4.5l3.7-.1h.9l.1-.1h.1l.1-.1.1-.2.1-.1h0V184l.1-.1v-.2h0v-.4h-.1V183H405l-.2.1-.4.2-.6.3h-.1l-.1.1H403l-.1-.1v-.2l.1-.1h.3l.2-.1h.1l.4-.3.5-.5.6-.6.5-.3.1-.1h.1l.1-.1h.1l.2-.1h.6l.1.1h.2v.1h.1l.2.1.1.1v.2h0l.1.1v.1l.1.1v.6l-.1.1v.1l-.1.1v.2l-.4.4v.1h0l-.1.1-.1.1v.3l.1.1.1.1v.1h.3l.1-.1h0l.4-.2h0l.2-.1h.4l.1-.1h.4v.1h.4l.1.1.1.1.2.1v.1h.2l.1.1.1.2.2.2-.2.3-.1.1-.1.1-.1.1-.1.1h-.1l-.1.1-.2.1h0l-.2.1H409l-.1.1h-.3V186h-.4v-.1H408l-.1-.1h0l-.1-.1-.3-.1h-.4l-.1.1h-.1l-.1.1v.3h.1l.1.2.1.1.1.2.2.2.1.2v.4l.1.1v.3l-.1.1v.3l-.1.2h-.1l-.1.1-.1.1-.1.1-.1.1h-1.1l-.1-.1-.1-.1-.1-.1-.1-.1h-.2l-.6-.7-.6-.5-.1-.2-.3-.2h0l-.4-.2-.2-.1-.1-.1.1-.1h.1l.1-.1h.1l.1.1h.2l.1.1h.2l.2.1.6.3.2.2h.2l.1.1h.3l.2-.1h0l.2-.1v-.1l.1-.1v-.1l.1-.1v-.2l-.1-.1v-.1l-.1-.1v-.3h-.1l-.1-.1-.1-.1h-.1l-.1-.1h-.2l-.1-.1h-4.3v3.9h0v.3l.1.3v.3l.1.1.1.1h.2v.1l.1.1h.7l.1-.1.1-.1h.1v-.1l.1-.1v-.2h0v-.2l-.1-.1v-.3l-.2-.3-.2-.6-.2-.4-.1-.1v-.4l.1-.1.1-.1.1-.1v.1l.1.1v.3l.1.1v.1l.2.2v.2l.2.1.1.2.5.6.5.7h.1l.1.1.1.1v.2h0l.1.1v.1l.1.2h0v.7l-.1.1h0l-.1.1v.2l-.2.1h-.1l-.1.1-.1.1h-.1l-.2.1h-.4l-.1-.1h-.1l-.2-.1h0l-.1-.1h-.2l-.1-.1-.4-.3-.1-.1-.1-.1Z" fill="#254558" fill-rule="evenodd"/>
    <path id="Path_164" data-name="Path 164" d="M393.6,224.8l-.1-9.4h1.8l3.9,7.3v-7.3h1.2v9.4h-1.5l-4.2-8v8Z" fill="#254558" fill-rule="evenodd"/>
    <path id="Path_165" data-name="Path 165" d="M394,210.5l-.1-12.1h4.2a4.711,4.711,0,0,1,1.7.4,2.541,2.541,0,0,1,1.2,1.3,4.924,4.924,0,0,1,.6,1.7,3.371,3.371,0,0,1-.5,1.7,3.46,3.46,0,0,1-1,1.1,2.01,2.01,0,0,1-.8.4,1.8,1.8,0,0,1-1,.2h-2.9v5.2l-1.4.1Zm1.4-6.6h2.8a1.929,1.929,0,0,0,1-.3,1.779,1.779,0,0,0,.7-.8,1.389,1.389,0,0,0,.2-1.1,1.93,1.93,0,0,0-.3-1,1.575,1.575,0,0,0-.7-.7,1.344,1.344,0,0,0-.9-.2h-2.8v4.1Z" fill="#254558" fill-rule="evenodd"/>
    <path id="Path_166" data-name="Path 166" d="M402,224.8v-9.4h5.9l2.8,7.7,2.6-7.7h1.3l-3.2,9.2h-1.3l-3.1-8.2h-3.8v2.9h3.2v1.1h-3.2v3.3h3.6l.6,1.1Z" fill="#254558" fill-rule="evenodd"/>
    <path id="Path_167" data-name="Path 167" d="M402.6,210.5V198.2h1.5v5.1h5.5l-.1-5.1H411v12.3h-1.5l.1-5.8h-5.5v5.8Z" fill="#254558" fill-rule="evenodd"/>
    <path id="Path_168" data-name="Path 168" d="M413.1,210.5V198.3h1.5v12.2Z" fill="#254558" fill-rule="evenodd"/>
    <path id="Path_169" data-name="Path 169" d="M415,224.8v-9.4h5.3l-.6,1h-3.5v2.9h3.3v1h-3.3v3.4h3.7l.5,1Z" fill="#254558" fill-rule="evenodd"/>
    <path id="Path_170" data-name="Path 170" d="M416.4,210.5l-.1-12.3h1.6v10.7h5.3v1.6Z" fill="#254558" fill-rule="evenodd"/>
    <path id="Path_171" data-name="Path 171" d="M424.2,210.5V198.2h1.5v12.3Z" fill="#254558" fill-rule="evenodd"/>
    <path id="Path_172" data-name="Path 172" d="M427.4,210.5V198.3h4.1a3.371,3.371,0,0,1,1.7.5,3.039,3.039,0,0,1,1.3,1.2,3.686,3.686,0,0,1,.5,1.7,4.711,4.711,0,0,1-.4,1.7,4,4,0,0,1-1,1.2c-.3.2-.6.2-.9.4a2.958,2.958,0,0,1-1,.2h-2.8v5.4l-1.5-.1Zm1.5-6.7h2.7a2.934,2.934,0,0,0,1-.3,2.361,2.361,0,0,0,.8-.9,1.8,1.8,0,0,0,.2-1,3.545,3.545,0,0,0-.3-1.1,3.736,3.736,0,0,0-.7-.6,2.935,2.935,0,0,0-1-.3h-2.7v4.2Z" fill="#254558" fill-rule="evenodd"/>
    <path id="Path_173" data-name="Path 173" d="M436.2,210.5V198.3h4.2a3.371,3.371,0,0,1,1.7.5,3.039,3.039,0,0,1,1.3,1.2,3.686,3.686,0,0,1,.5,1.7,3.287,3.287,0,0,1-.4,1.7,2.94,2.94,0,0,1-1,1.2c-.2.2-.6.2-.8.4a3.6,3.6,0,0,1-1.1.2h-2.8v5.4l-1.6-.1Zm1.5-6.7h2.7a3.545,3.545,0,0,0,1.1-.3,1.6,1.6,0,0,0,.7-.9,1.8,1.8,0,0,0,.2-1,2.016,2.016,0,0,0-.3-1.1c-.2-.2-.4-.5-.7-.6a3.178,3.178,0,0,0-.9-.3h-2.8v4.2Z" fill="#254558" fill-rule="evenodd"/>
    <path id="Path_174" data-name="Path 174" d="M445.1,210.5V198.2h6.7l-.6,1.4h-4.6v3.7h3.8v1.4h-3.8v4.2h4.7l.7,1.6Z" fill="#254558" fill-rule="evenodd"/>
  </g>
</svg>
