<svg xmlns="http://www.w3.org/2000/svg" width="38.111" height="38.111" viewBox="0 0 38.111 38.111">
  <path id="Icon_awesome-phone-alt" data-name="Icon awesome-phone-alt" d="M37.024,26.931l-8.337-3.573a1.786,1.786,0,0,0-2.084.514l-3.692,4.511A27.591,27.591,0,0,1,9.721,15.193L14.232,11.5a1.782,1.782,0,0,0,.514-2.084L11.173,1.08A1.8,1.8,0,0,0,9.126.045L1.385,1.832A1.786,1.786,0,0,0,0,3.573,34.535,34.535,0,0,0,34.538,38.112a1.786,1.786,0,0,0,1.742-1.385l1.786-7.741a1.808,1.808,0,0,0-1.043-2.054Z" transform="translate(0 0)" fill="#fff"/>
</svg>
