<svg xmlns="http://www.w3.org/2000/svg" width="75.709" height="75.521" viewBox="0 0 75.709 75.521">
  <g id="Layer_2" data-name="Layer 2" transform="translate(0.018 -0.011)">
    <g id="Capa_1" data-name="Capa 1" transform="translate(-0.018 0.01)">
      <path id="Path_451" data-name="Path 451" d="M102.255,449.335a3.377,3.377,0,0,0-3.7.469,2.77,2.77,0,0,1-1.288.349c-1.022.133-2.925.384-3.132,2.523a7.3,7.3,0,0,0,.206,2.642,2.564,2.564,0,0,0,2.4,1.909h.108a2.662,2.662,0,0,0,2.5-1.752.625.625,0,0,1,.1-.2h.033c3.008,0,4.946-1.242,4.946-3.164A3.157,3.157,0,0,0,102.255,449.335Zm-2.765,3.689a2.348,2.348,0,0,0-2.249,1.678.4.4,0,0,1-.4.278.33.33,0,0,1-.327-.265,5.16,5.16,0,0,1-.133-1.823c.028-.3.034-.359,1.183-.51a4.218,4.218,0,0,0,2.585-.988,1.305,1.305,0,0,1,1.244.018c.531.22.8.56.8.689C102.188,452.6,100.954,453.024,99.49,453.024Z" transform="translate(-80.182 -382.613)" fill="#254558"/>
      <path id="Path_452" data-name="Path 452" d="M105.31,140.366a4.368,4.368,0,0,0-2.629,4.3,1.118,1.118,0,0,0,.027.243c.021.1,2.11,9.917-2.558,14.587a14.919,14.919,0,0,1-8.6,4.171,6.993,6.993,0,0,0-5.053,3.28l-1.755,2.87a3.747,3.747,0,0,1-3.663,1.774A13.291,13.291,0,0,1,76.4,170.17a6.315,6.315,0,0,0-6.239.148L64.189,173.9a3.049,3.049,0,0,0,2.629,5.471,20.752,20.752,0,0,1,6.2-1.365,5.491,5.491,0,0,0-1.516,2.972,3.593,3.593,0,0,0,1.142,2.99,2.83,2.83,0,0,0,2.046.9h.2c1.224-.09,2.441-.969,3.719-2.685a1.554,1.554,0,0,1,1.2-.639,1.6,1.6,0,0,1,1.267.54,5.128,5.128,0,0,0,3.813,2,4.145,4.145,0,0,0,3.853-2.738,5.619,5.619,0,0,0,.361-3.031,55.485,55.485,0,0,0,6.679.1c6.261-.313,10.184-1.863,11.661-4.606a12.228,12.228,0,0,0,1.381-7.779,11.474,11.474,0,0,1,.858-6.38c.408-.92.775-1.774,1.109-2.6a1.124,1.124,0,0,0-.633-1.47h0a1.124,1.124,0,0,0-1.449.622c-.325.8-.682,1.627-1.081,2.529a13.692,13.692,0,0,0-1.044,7.475,10.084,10.084,0,0,1-1.119,6.533c-1.045,1.941-4.514,3.158-9.759,3.425a54.572,54.572,0,0,1-8.252-.266,1.127,1.127,0,0,0-1.249.945,1.156,1.156,0,0,0,.33.979,2.771,2.771,0,0,1,.139,2.662,1.925,1.925,0,0,1-1.774,1.35,3.047,3.047,0,0,1-2.134-1.245,3.833,3.833,0,0,0-5.947.253c-1.192,1.6-1.891,1.774-2.07,1.785-.069,0-.231.018-.491-.242a1.355,1.355,0,0,1-.5-1.158c.13-1.239,1.9-2.648,2.514-3.045a1.124,1.124,0,0,0,.444-1.331,1.161,1.161,0,0,0-.747-.7c-3.207-1.044-7.584.248-9.907,1.113a.8.8,0,0,1-.695-1.437l5.971-3.583a4.054,4.054,0,0,1,4.007-.1,15.607,15.607,0,0,0,5.471,1.674,6,6,0,0,0,5.867-2.833l1.755-2.872a4.754,4.754,0,0,1,3.436-2.218,17.144,17.144,0,0,0,9.883-4.809c5.28-5.28,3.462-15.21,3.191-16.53a2.112,2.112,0,0,1,1.241-2.11,4.25,4.25,0,0,1,4.321,1.255c.818.818,1.412,2.888-.186,8.079a1.125,1.125,0,1,0,2.148.665c1.573-5.128,1.449-8.514-.373-10.336A6.493,6.493,0,0,0,105.31,140.366Z" transform="translate(-53.441 -119.301)" fill="#254558"/>
      <path id="Path_453" data-name="Path 453" d="M369.658,12.557a13.152,13.152,0,0,0-4.834-4.674c-1.582-.868-2.026-2.274-2.551-3.9a17.637,17.637,0,0,0-.727-1.987,3.4,3.4,0,0,0-6.447.866c-.464,2.792-1.724,7.6-4.962,8.442-2.218.574-3.677,1.646-4.344,3.187a6.007,6.007,0,0,0,.339,4.822,1.119,1.119,0,0,0,.986.583h.062a1.131,1.131,0,0,0,.98-.7,4.408,4.408,0,0,1,2.353-2.323,4.451,4.451,0,0,1,3.7.868l2.113,1.344A4.822,4.822,0,0,0,362.4,18.4h0a6.627,6.627,0,0,1,4.983-1.937,2.534,2.534,0,0,0,2.3-1.255A2.561,2.561,0,0,0,369.658,12.557Zm-1.909,1.514a.277.277,0,0,1-.26.148,8.824,8.824,0,0,0-6.71,2.631h0a2.571,2.571,0,0,1-3.244.345l-2.109-1.349a7.554,7.554,0,0,0-4.035-1.357,5.167,5.167,0,0,0-1.578.245,5.5,5.5,0,0,0-2.134,1.3,2.418,2.418,0,0,1,.182-.664,3.91,3.91,0,0,1,2.839-1.893c2.339-.606,5.394-2.88,6.617-10.252a1.152,1.152,0,0,1,2.185-.3,15.584,15.584,0,0,1,.634,1.734c.584,1.822,1.245,3.887,3.608,5.187a10.917,10.917,0,0,1,4.007,3.889.309.309,0,0,1,0,.328Z" transform="translate(-294.334 -0.01)" fill="#254558"/>
      <path id="Path_454" data-name="Path 454" d="M12.032,405.39a1.119,1.119,0,0,0-1.644-.1h0a1.13,1.13,0,0,0-.09,1.526c.219.271.423.546.6.819,1.1,1.653-.971,5.415-2.94,7.384-.138.136-.552.552-1.386.037A3.363,3.363,0,0,1,5.2,411.332c.739-2.218-.855-3.515-1.907-4.378-.466-.382-1.047-.856-1.06-1.136,0-.059.018-.392.714-1.088a3.3,3.3,0,0,1,4.14-.618,1.124,1.124,0,0,0,.974-2.026,5.485,5.485,0,0,0-6.706,1.056A3.781,3.781,0,0,0-.015,405.93,4.011,4.011,0,0,0,1.866,408.7c1.121.917,1.414,1.282,1.2,1.922a5.661,5.661,0,0,0,2.329,6.355,3.686,3.686,0,0,0,1.934.591,3.105,3.105,0,0,0,2.218-.945,15.718,15.718,0,0,0,3.155-4.647c.97-2.255.994-4.185.065-5.579A10.829,10.829,0,0,0,12.032,405.39Z" transform="translate(0.018 -342.044)" fill="#254558"/>
    </g>
  </g>
</svg>
