<svg xmlns="http://www.w3.org/2000/svg" width="82.929" height="81.055" viewBox="0 0 82.929 81.055">
  <g id="Layer_2-2" transform="translate(0.116)">
    <g id="Group_244" data-name="Group 244" transform="translate(1 1)">
      <path id="Path_436" data-name="Path 436" d="M26.261,30.724a15.514,15.514,0,1,1,12.907-.142" transform="translate(3.657 -1)" fill="none" stroke="#254558" stroke-linecap="round" stroke-linejoin="round" stroke-width="2"/>
      <path id="Path_437" data-name="Path 437" d="M20.79,26.3a20.128,20.128,0,0,1,11.074-3.02,19.859,19.859,0,0,1,10.661,2.749" transform="translate(4.753 5.476)" fill="none" stroke="#254558" stroke-linecap="round" stroke-linejoin="round" stroke-width="2"/>
      <path id="Path_438" data-name="Path 438" d="M45.4,32.131c5.7,4.582,9.628-.219,10.971-2.026.942-1.265.749-7.538.555-11.19a2.419,2.419,0,0,0-2.852-2.246c-3.5.62-9.357,2.065-10.7,4.866C41.425,25.6,41.941,29.356,45.4,32.131Z" transform="translate(10.99 3.543)" fill="none" stroke="#254558" stroke-linecap="round" stroke-linejoin="round" stroke-width="2"/>
      <path id="Path_439" data-name="Path 439" d="M39.85,19.03a18.891,18.891,0,0,1,4.9.826" transform="translate(10.293 4.241)" fill="none" stroke="#254558" stroke-linecap="round" stroke-linejoin="round" stroke-width="2"/>
      <path id="Path_440" data-name="Path 440" d="M67.33,28.014s4.517,5.343,5.937,9.693l4.04.516a2.686,2.686,0,0,1,2.336,2.762l-.271,7.047a2.681,2.681,0,0,1-2.117,2.517l-5.782,1.226A31.3,31.3,0,0,1,59.5,62.075L57.262,74.1H48.989L47.04,66.36l-15.333.219L31.036,74.1h-8.57l-1.433-9.319S7.881,55.841,8.474,41.476,19.523,21.47,19.523,21.47" transform="translate(1.167 4.95)" fill="none" stroke="#254558" stroke-linecap="round" stroke-linejoin="round" stroke-width="2"/>
      <path id="Path_441" data-name="Path 441" d="M54.227,34.03a2.837,2.837,0,1,1-5.627,0" transform="translate(12.836 8.601)" fill="none" stroke="#254558" stroke-linecap="round" stroke-linejoin="round" stroke-width="2"/>
      <path id="Path_442" data-name="Path 442" d="M10.1,36.687s-4.543.542-6.35-1.149c-.981-.916-2.065-3.575-1.02-4.7s3.782.052,4.685,1.717S7.015,41.294,1,42.043" transform="translate(-1 7.545)" fill="none" stroke="#254558" stroke-linecap="round" stroke-linejoin="round" stroke-width="2"/>
    </g>
  </g>
</svg>
