<svg xmlns="http://www.w3.org/2000/svg" width="69.555" height="70.148" viewBox="0 0 69.555 70.148">
  <g id="certificate" transform="translate(-1.57 -2.115)">
    <path id="Path_459" data-name="Path 459" d="M18.9,72.261a6.455,6.455,0,0,1-6.452-6.443V14.725a1,1,0,0,1,2,0V65.818a4.449,4.449,0,1,0,8.9,0V61.039a1,1,0,0,1,1-1h39.7V8.578A4.454,4.454,0,0,0,59.6,4.129H7.478a1,1,0,1,1,0-2H59.6a6.46,6.46,0,0,1,6.453,6.453V61.039a1,1,0,0,1-1,1h-39.7v3.777A6.456,6.456,0,0,1,18.9,72.261Z" transform="translate(0.01 0)" fill="#254558"/>
    <path id="Path_460" data-name="Path 460" d="M64.651,72.149H18.876a1,1,0,1,1,0-2,4.449,4.449,0,0,0,4.449-4.439V60.927a1,1,0,0,1,1-1H70.091a1,1,0,0,1,1,1v4.779A6.449,6.449,0,0,1,64.651,72.149Zm-41.1-2h41.1a4.443,4.443,0,0,0,4.438-4.439V61.929H25.329v3.777a6.413,6.413,0,0,1-1.78,4.439Z" transform="translate(0.032 0.114)" fill="#254558"/>
    <path id="Path_461" data-name="Path 461" d="M33.032,54.237a1,1,0,0,1-.888-.536l-1.465-2.79-3,.959a1,1,0,0,1-1.227-1.349l4.275-10.013a1,1,0,1,1,1.844.787l-3.416,8,1.714-.547a1,1,0,0,1,1.193.488l.874,1.664L36.6,42.282a1,1,0,1,1,1.844.784L33.953,53.627a1,1,0,0,1-.88.609Z" transform="translate(0.049 0.075)" fill="#254558"/>
    <path id="Path_462" data-name="Path 462" d="M44.3,54.237h-.041a1,1,0,0,1-.882-.609L38.9,43.062a1,1,0,0,1,1.846-.784L44.4,50.9l.873-1.662a1,1,0,0,1,1.192-.488l1.712.547-3.412-7.977a1,1,0,1,1,1.842-.789l4.271,9.994a1,1,0,0,1-1.225,1.349l-3-.959L45.191,53.7a1,1,0,0,1-.888.536Z" transform="translate(0.074 0.075)" fill="#254558"/>
    <path id="Path_463" data-name="Path 463" d="M38.688,44.241a2.443,2.443,0,0,1-1.5-.517l-1.6-1.243a.471.471,0,0,0-.331-.088l-2,.279a2.437,2.437,0,0,1-2.605-1.5L29.888,39.3a.45.45,0,0,0-.244-.25l-1.873-.758a2.441,2.441,0,0,1-1.5-2.605l.278-2a.435.435,0,0,0-.089-.332l-1.243-1.6a2.442,2.442,0,0,1,0-3.006l1.241-1.6a.442.442,0,0,0,.09-.333l-.278-2a2.441,2.441,0,0,1,1.5-2.605l1.874-.759a.437.437,0,0,0,.243-.243l.759-1.874a2.439,2.439,0,0,1,2.605-1.5l2,.279a.439.439,0,0,0,.333-.09l1.6-1.242a2.446,2.446,0,0,1,3.006,0L41.79,18a.439.439,0,0,0,.333.089l2-.279a2.441,2.441,0,0,1,2.605,1.5l.758,1.874a.445.445,0,0,0,.245.244l1.873.758a2.444,2.444,0,0,1,1.5,2.605l-.279,2a.449.449,0,0,0,.089.332l1.242,1.6a2.439,2.439,0,0,1,0,3.006l-1.243,1.6a.451.451,0,0,0-.088.332l.279,2a2.444,2.444,0,0,1-1.5,2.605l-1.878.765a.449.449,0,0,0-.245.244l-.757,1.873a2.444,2.444,0,0,1-2.605,1.5l-2-.279a.453.453,0,0,0-.333.089l-1.6,1.242a2.44,2.44,0,0,1-1.5.523Zm-3.376-3.857a2.467,2.467,0,0,1,1.5.514l1.6,1.244a.444.444,0,0,0,.543,0l1.6-1.243a2.461,2.461,0,0,1,1.84-.492l2,.278a.429.429,0,0,0,.471-.272l.758-1.874a2.459,2.459,0,0,1,1.351-1.35l1.874-.758a.442.442,0,0,0,.272-.471l-.278-2a2.457,2.457,0,0,1,.49-1.837l1.244-1.6a.441.441,0,0,0,0-.542l-1.242-1.6a2.457,2.457,0,0,1-.494-1.832l.278-2a.442.442,0,0,0-.272-.471l-1.874-.759a2.456,2.456,0,0,1-1.35-1.349l-.759-1.874a.438.438,0,0,0-.471-.273l-2,.279a2.455,2.455,0,0,1-1.838-.492l-1.6-1.243a.441.441,0,0,0-.543,0l-1.6,1.242a2.476,2.476,0,0,1-1.838.493l-2-.279a.444.444,0,0,0-.471.273l-.759,1.874a2.457,2.457,0,0,1-1.349,1.349l-1.874.758a.444.444,0,0,0-.273.471l.279,2a2.454,2.454,0,0,1-.494,1.839l-1.232,1.6a.441.441,0,0,0,0,.543l1.243,1.6a2.458,2.458,0,0,1,.492,1.838l-.279,2a.442.442,0,0,0,.273.471L30.4,37.2a2.46,2.46,0,0,1,1.349,1.349l.759,1.875a.444.444,0,0,0,.47.272l2-.278A2.475,2.475,0,0,1,35.312,40.385Z" transform="translate(0.046 0.028)" fill="#254558"/>
    <path id="Path_464" data-name="Path 464" d="M38.688,44.241a2.443,2.443,0,0,1-1.5-.517l-1.6-1.243a.471.471,0,0,0-.331-.088l-2,.279a2.437,2.437,0,0,1-2.605-1.5L29.888,39.3a.45.45,0,0,0-.244-.25l-1.873-.758a2.441,2.441,0,0,1-1.5-2.605l.278-2a.435.435,0,0,0-.089-.332l-1.243-1.6a2.442,2.442,0,0,1,0-3.006l1.241-1.6a.442.442,0,0,0,.09-.333l-.278-2a2.441,2.441,0,0,1,1.5-2.605l1.874-.759a.437.437,0,0,0,.243-.243l.759-1.874a2.439,2.439,0,0,1,2.605-1.5l2,.279a.439.439,0,0,0,.333-.09l1.6-1.242a2.446,2.446,0,0,1,3.006,0L41.79,18a.439.439,0,0,0,.333.089l2-.279a2.441,2.441,0,0,1,2.605,1.5l.758,1.874a.445.445,0,0,0,.245.244l1.873.758a2.444,2.444,0,0,1,1.5,2.605l-.279,2a.449.449,0,0,0,.089.332l1.242,1.6a2.439,2.439,0,0,1,0,3.006l-1.243,1.6a.451.451,0,0,0-.088.332l.279,2a2.444,2.444,0,0,1-1.5,2.605l-1.878.765a.449.449,0,0,0-.245.244l-.757,1.873a2.444,2.444,0,0,1-2.605,1.5l-2-.279a.453.453,0,0,0-.333.089l-1.6,1.242a2.44,2.44,0,0,1-1.5.523Zm-3.376-3.857a2.467,2.467,0,0,1,1.5.514l1.6,1.244a.444.444,0,0,0,.543,0l1.6-1.243a2.461,2.461,0,0,1,1.84-.492l2,.278a.429.429,0,0,0,.471-.272l.758-1.874a2.459,2.459,0,0,1,1.351-1.35l1.874-.758a.442.442,0,0,0,.272-.471l-.278-2a2.457,2.457,0,0,1,.49-1.837l1.244-1.6a.441.441,0,0,0,0-.542l-1.242-1.6a2.457,2.457,0,0,1-.494-1.832l.278-2a.442.442,0,0,0-.272-.471l-1.874-.759a2.456,2.456,0,0,1-1.35-1.349l-.759-1.874a.438.438,0,0,0-.471-.273l-2,.279a2.455,2.455,0,0,1-1.838-.492l-1.6-1.243a.441.441,0,0,0-.543,0l-1.6,1.242a2.476,2.476,0,0,1-1.838.493l-2-.279a.444.444,0,0,0-.471.273l-.759,1.874a2.457,2.457,0,0,1-1.349,1.349l-1.874.758a.444.444,0,0,0-.273.471l.279,2a2.454,2.454,0,0,1-.494,1.839l-1.232,1.6a.441.441,0,0,0,0,.543l1.243,1.6a2.458,2.458,0,0,1,.492,1.838l-.279,2a.442.442,0,0,0,.273.471L30.4,37.2a2.46,2.46,0,0,1,1.349,1.349l.759,1.875a.444.444,0,0,0,.47.272l2-.278A2.475,2.475,0,0,1,35.312,40.385Z" transform="translate(0.046 0.028)" fill="#254558"/>
    <path id="Path_465" data-name="Path 465" d="M35.118,36.705a1,1,0,0,1-.987-1.171l.589-3.439-2.5-2.436a1,1,0,0,1,.555-1.7l3.453-.5,1.544-3.128a1.043,1.043,0,0,1,1.8,0l1.547,3.122,3.452.5a1,1,0,0,1,.556,1.709l-2.5,2.436.589,3.439a1,1,0,0,1-1.453,1.056l-3.089-1.623L35.581,36.59a1,1,0,0,1-.463.115Zm3.554-3.873a1,1,0,0,1,.466.115l1.758.925-.336-1.957a1,1,0,0,1,.288-.887l1.423-1.386-1.965-.286a1,1,0,0,1-.754-.548l-.88-1.782-.879,1.782a1,1,0,0,1-.754.549l-1.965.286L36.5,31.03a1,1,0,0,1,.288.887l-.335,1.958,1.756-.925a1.015,1.015,0,0,1,.467-.117Z" transform="translate(0.06 0.043)" fill="#254558"/>
    <path id="Path_466" data-name="Path 466" d="M13.472,15.727H2.572a1,1,0,0,1-1-1V8.568a6.452,6.452,0,1,1,12.9,0v6.157a1,1,0,0,1-1,1Zm-9.9-2h8.9V8.568a4.449,4.449,0,1,0-8.9,0Z" transform="translate(0 0)" fill="#254558"/>
  </g>
</svg>
