<svg xmlns="http://www.w3.org/2000/svg" width="82.865" height="75.788" viewBox="0 0 82.865 75.788">
  <g id="Layer_2" data-name="Layer 2" transform="translate(0 -0.02)">
    <g id="Group_261" data-name="Group 261" transform="translate(1 1.02)">
      <circle id="Ellipse_6" data-name="Ellipse 6" cx="13.655" cy="13.655" r="13.655" transform="translate(12.765 26.596)" fill="none" stroke="#254558" stroke-linecap="round" stroke-linejoin="round" stroke-width="2"/>
      <path id="Path_455" data-name="Path 455" d="M53.827,32.062,51.145,24.81l-5.378.553a21.934,21.934,0,0,0-4.637-5.014l.971-5.311L35.077,11.8l-3.41,4.192a22.189,22.189,0,0,0-6.821-.27L21.772,11.29,14.52,13.972l.553,5.378a21.934,21.934,0,0,0-5.014,4.637l-5.311-.971L1.512,30.04,5.7,33.451a22.189,22.189,0,0,0-.27,6.821L1,43.345,3.682,50.6l5.378-.553A21.934,21.934,0,0,0,13.7,55.059l-.971,5.311,7.023,3.235,3.41-4.192a22.189,22.189,0,0,0,6.821.27l3.073,4.435,7.252-2.682-.553-5.378a21.935,21.935,0,0,0,5.014-4.637l5.311.971,3.235-7.023-4.192-3.41a22.189,22.189,0,0,0,.27-6.821l4.435-3.073Z" transform="translate(-1 2.554)" fill="none" stroke="#254558" stroke-linecap="round" stroke-linejoin="round" stroke-width="2"/>
      <path id="Path_456" data-name="Path 456" d="M37.18,18.8a10.294,10.294,0,1,1,9.166,11.31" transform="translate(11.59 1.958)" fill="none" stroke="#254558" stroke-linecap="round" stroke-linejoin="round" stroke-width="2"/>
      <path id="Path_457" data-name="Path 457" d="M60.97,37.483a17.936,17.936,0,0,0,3.923-4.1l4.448.539,2.332-5.985-3.64-2.615a18.249,18.249,0,0,0-.121-5.675l3.532-2.763L68.856,11l-4.435.728a17.936,17.936,0,0,0-4.1-3.923l.539-4.448L54.877,1.02,52.262,4.66a18.249,18.249,0,0,0-5.675.121L43.824,1.249,37.933,3.837l.728,4.435a17.936,17.936,0,0,0-3.923,4.1l-4.448-.539" transform="translate(9.192 -1.02)" fill="none" stroke="#254558" stroke-linecap="round" stroke-linejoin="round" stroke-width="2"/>
      <circle id="Ellipse_7" data-name="Ellipse 7" cx="6.147" cy="6.147" r="6.147" transform="translate(54.27 50.374)" fill="none" stroke="#254558" stroke-linecap="round" stroke-linejoin="round" stroke-width="2"/>
      <path id="Path_458" data-name="Path 458" d="M34.67,56.769l3.491-.566A14.389,14.389,0,0,0,41.4,59.3l-.431,3.518L45.7,64.668,47.759,61.8a14.264,14.264,0,0,0,4.475-.094l2.184,2.79,4.651-2.035L58.5,58.966a14.389,14.389,0,0,0,3.1-3.235l3.518.431,1.847-4.731L64.1,49.369A14.265,14.265,0,0,0,64,44.893l2.79-2.184-2.035-4.651-3.491.566a14.389,14.389,0,0,0-3.235-3.1l.431-3.518L53.73,30.16l-2.062,2.871a14.265,14.265,0,0,0-4.475.094l-2.184-2.79" transform="translate(10.716 9.12)" fill="none" stroke="#254558" stroke-linecap="round" stroke-linejoin="round" stroke-width="2"/>
    </g>
  </g>
</svg>
