<svg xmlns="http://www.w3.org/2000/svg" width="139.638" height="10.864" viewBox="0 0 139.638 10.864">
  <path id="Richard_Mille_Logo" d="M7.637,4c0,.506-.135.725-.589.725H3.4V1.456H7.047c.437,0,.589.22.589.691Zm3.55,6.857a3.607,3.607,0,0,1-.841-1.39L9.033,6.152A1.65,1.65,0,0,0,10.7,4.374V2.081a1.862,1.862,0,0,0-2.087-2H.041a4.4,4.4,0,0,1,.2,1.373V9.471a4.552,4.552,0,0,1-.2,1.39H3.6a4.549,4.549,0,0,1-.2-1.39V6.1H5.753L7.6,10.86Zm1.676,0a4.542,4.542,0,0,0,.2-1.388V1.463a4.443,4.443,0,0,0-.2-1.38h3.558a4.441,4.441,0,0,0-.2,1.38V9.472a4.544,4.544,0,0,0,.2,1.388Zm14.126,0H20.7a1.9,1.9,0,0,1-2.114-2.116V2.2A1.9,1.9,0,0,1,20.7.083h6.291l.269,1.626a3.863,3.863,0,0,0-1.531-.253H22.31c-.353,0-.572.136-.572.574V8.916c0,.438.218.574.572.574h3.416a3.862,3.862,0,0,0,1.531-.254Zm9.6,0a4.536,4.536,0,0,0,.2-1.39V6.1H32.525v3.37a4.535,4.535,0,0,0,.2,1.39h-3.56a4.55,4.55,0,0,0,.2-1.39V1.463a4.443,4.443,0,0,0-.2-1.38h3.56a4.439,4.439,0,0,0-.2,1.38V4.728h4.265V1.463a4.429,4.429,0,0,0-.2-1.38h3.559a4.443,4.443,0,0,0-.2,1.38V9.471a4.552,4.552,0,0,0,.2,1.39Zm12.45-4.438H45.4l1.8-4.08Zm5.587,4.438a5,5,0,0,1-.842-1.386L49.509.083H45.992l.454.709-3.9,8.683a9.509,9.509,0,0,1-.825,1.386h2.07a3.889,3.889,0,0,1,.252-1.386L44.764,7.8h4.9L50.4,9.475a3.065,3.065,0,0,1,.286,1.11.786.786,0,0,1-.033.276ZM63.787,4c0,.506-.134.725-.589.725H59.548V1.456H63.2c.438,0,.589.22.589.691Zm3.551,6.857a3.609,3.609,0,0,1-.842-1.39L65.183,6.152a1.65,1.65,0,0,0,1.666-1.778V2.081a1.862,1.862,0,0,0-2.087-2H56.191a4.4,4.4,0,0,1,.2,1.373V9.471a4.551,4.551,0,0,1-.2,1.39H59.75a4.55,4.55,0,0,1-.2-1.39V6.1H61.9l1.85,4.759Zm9.386-1.945c0,.44-.22.575-.574.575H72.37V1.456l3.779-.016c.354,0,.574.135.574.574Zm3.155-.17V2.184a1.887,1.887,0,0,0-2.114-2.1h-8.75a4.3,4.3,0,0,1,.2,1.357v8.05a4.4,4.4,0,0,1-.2,1.373h8.75a1.9,1.9,0,0,0,2.114-2.118Zm17.266,2.031a4.552,4.552,0,0,0,.2-1.388V1.548h-.034l-3.686,9.229H91.439L87.821,1.548h-.034V9.389a4.512,4.512,0,0,0,.2,1.388h-1.86a4.522,4.522,0,0,0,.2-1.388V1.38a4.418,4.418,0,0,0-.2-1.38h4.249l3.079,7.824L96.589,0h4.022a4.41,4.41,0,0,0-.2,1.38V9.389a4.542,4.542,0,0,0,.2,1.388Zm6,0a4.552,4.552,0,0,0,.2-1.388V1.38a4.453,4.453,0,0,0-.2-1.38H106.7a4.427,4.427,0,0,0-.2,1.38V9.389a4.53,4.53,0,0,0,.2,1.388Zm14.934,0h-8.826a4.365,4.365,0,0,0,.2-1.373V1.383a4.426,4.426,0,0,0-.2-1.383h3.56a4.427,4.427,0,0,0-.2,1.383V9.407h4.157a4.224,4.224,0,0,0,1.582-.253Zm10.668,0h-8.826a4.382,4.382,0,0,0,.2-1.373V1.383a4.444,4.444,0,0,0-.2-1.383h3.558a4.456,4.456,0,0,0-.2,1.383V9.407h4.156a4.223,4.223,0,0,0,1.582-.253Zm10.667,0h-8.825a4.405,4.405,0,0,0,.2-1.373V1.373a4.407,4.407,0,0,0-.2-1.373h8.825l.269,1.626a4.227,4.227,0,0,0-1.581-.253h-4.157V4.645h3.718a4.125,4.125,0,0,0,1.5-.253v1.88a4.112,4.112,0,0,0-1.5-.255h-3.718V9.406H138.1a4.207,4.207,0,0,0,1.581-.255Z" transform="translate(-0.041)" fill="#254558"/>
</svg>
