<svg xmlns="http://www.w3.org/2000/svg" width="221.5" height="50" viewBox="0 0 221.5 50">
  <g id="vacheron-constantin" transform="translate(-289.6 -161.3)">
    <path id="Path_240" data-name="Path 240" d="M294.5,208.2l-3.2-13.5h-1.7l4.1,16.1h1.5l4.2-16.1h-1.6Z" fill="#254558" fill-rule="evenodd"/>
    <path id="Path_241" data-name="Path 241" d="M308.5,210.8h1.7l-4.3-16.1h-1.7l-4.5,16.1h1.7l1.3-4.9h4.5l1.3,4.9Zm-5.3-6.7,1.8-6.7,1.7,6.7Z" fill="#254558" fill-rule="evenodd"/>
    <path id="Path_242" data-name="Path 242" d="M321.4,204.7c-.4,3.4-2.2,4.7-3.9,4.7-2.8,0-4.3-2.8-4.3-6.8a8.892,8.892,0,0,1,1-4.6,3.87,3.87,0,0,1,3.3-2,3.572,3.572,0,0,1,3.1,1.9,5.124,5.124,0,0,1,.7,1.8l1.6-.5c-.3-1.1-1.3-4.9-5.4-4.9s-6,3.9-6,8.5c0,4.5,1.9,8.5,5.8,8.5,3.5,0,5.4-3.2,5.9-6.2l-1.8-.4Z" fill="#254558" fill-rule="evenodd"/>
    <path id="Path_243" data-name="Path 243" d="M333.6,210.8h1.6V194.7h-1.6v6.9h-6.5v-6.9h-1.6v16.1h1.6v-7.3h6.5Z" fill="#254558" fill-rule="evenodd"/>
    <path id="Path_244" data-name="Path 244" d="M346.4,203.5v-1.9h-5.8v-5h6.7v-1.9H339v16.1h8.5v-1.9h-6.9v-5.4Z" fill="#254558" fill-rule="evenodd"/>
    <path id="Path_245" data-name="Path 245" d="M355.1,204l3.2,6.8h1.9l-3.3-7c.6-.1,2.8-.7,2.8-4.4a5.489,5.489,0,0,0-1.2-3.7c-.9-1-1.9-1-3.6-1h-4.4v16.1h1.6V204Zm-3.1-7.5h3.1a2.685,2.685,0,0,1,2.3.7,3.345,3.345,0,0,1,.7,2.3,2.472,2.472,0,0,1-1.5,2.6,3.645,3.645,0,0,1-1.5.2H352v-5.8Z" fill="#254558" fill-rule="evenodd"/>
    <path id="Path_246" data-name="Path 246" d="M374.2,202.6c0-5.2-2.6-8.3-6-8.3-3,0-6,2.5-6,8.5,0,5,2.3,8.5,6,8.5,3.9-.1,6-3.9,6-8.7Zm-1.7,0c0,3.3-1,6.9-4.3,6.9-3.1,0-4.3-3.4-4.3-6.7,0-3.6,1.3-6.7,4.3-6.7,2.8-.1,4.3,2.6,4.3,6.5Z" fill="#254558" fill-rule="evenodd"/>
    <path id="Path_247" data-name="Path 247" d="M385.1,194.7l.1,12.9-6.5-12.9h-1.5v16.1h1.5l-.1-13.1,6.5,13.1h1.5V194.7Z" fill="#254558" fill-rule="evenodd"/>
    <path id="Path_248" data-name="Path 248" d="M406.5,204.5c-.4,3.3-2.1,4.7-3.9,4.7-2.7,0-4.2-2.8-4.2-6.7a8.316,8.316,0,0,1,1-4.5,3.843,3.843,0,0,1,3.2-2,3.7,3.7,0,0,1,3.1,1.8,8.275,8.275,0,0,1,.7,1.8l1.6-.4c-.3-1.1-1.3-4.8-5.3-4.8s-5.9,3.8-5.9,8.3c0,4.4,1.9,8.3,5.7,8.3,3.4,0,5.3-3.1,5.8-6.1l-1.8-.4Z" fill="#254558" fill-rule="evenodd"/>
    <path id="Path_249" data-name="Path 249" d="M422.7,202.4c0-5.1-2.6-8.1-5.9-8.1-2.9,0-5.9,2.4-5.9,8.3,0,4.9,2.3,8.3,5.8,8.3,3.9,0,6-3.7,6-8.5Zm-1.7,0c0,3.2-1,6.8-4.2,6.8-3,0-4.2-3.3-4.2-6.6,0-3.6,1.3-6.6,4.2-6.6,2.7,0,4.2,2.6,4.2,6.4Z" fill="#254558" fill-rule="evenodd"/>
    <path id="Path_250" data-name="Path 250" d="M434.2,194.7l.1,12.6L428,194.7h-1.5v15.8H428l-.2-12.9,6.4,12.9h1.4V194.7Z" fill="#254558" fill-rule="evenodd"/>
    <path id="Path_251" data-name="Path 251" d="M445,203.4a2.463,2.463,0,0,1,2.2,2.6,2.871,2.871,0,0,1-2.9,3.2,3.013,3.013,0,0,1-2.4-1.1,4.553,4.553,0,0,1-.9-3l-1.7.3c.3,5.2,3.9,5.4,4.9,5.4a4.726,4.726,0,0,0,3.2-1.1,5.2,5.2,0,0,0,1.5-3.8,4.257,4.257,0,0,0-2-3.9,8.425,8.425,0,0,0-1.8-.7l-1.3-.4c-1-.3-2.3-.7-2.3-2.5a2.385,2.385,0,0,1,2.6-2.5,2.931,2.931,0,0,1,2.1.8,3.533,3.533,0,0,1,.9,2.6l1.6-.1a5.55,5.55,0,0,0-1.5-3.7,4.1,4.1,0,0,0-3.1-1.2,3.784,3.784,0,0,0-3.1,1.3,4.789,4.789,0,0,0-1.1,3.1c0,3.3,2.5,4,4.2,4.5l.9.2Z" fill="#254558" fill-rule="evenodd"/>
    <path id="Path_252" data-name="Path 252" d="M459.5,196.5v-1.8h-8.6v1.8h3.5v14H456v-14Z" fill="#254558" fill-rule="evenodd"/>
    <path id="Path_253" data-name="Path 253" d="M468.2,210.5h1.6l-4.3-15.8H464l-4.4,15.8h1.7l1.3-4.8h4.5l1.1,4.8Zm-5.2-6.6,1.8-6.6,1.7,6.6Z" fill="#254558" fill-rule="evenodd"/>
    <path id="Path_254" data-name="Path 254" d="M480.4,194.7l.1,12.6-6.3-12.6h-1.5v15.8h1.5l-.2-12.9,6.4,12.9h1.4V194.7Z" fill="#254558" fill-rule="evenodd"/>
    <path id="Path_255" data-name="Path 255" d="M493.2,196.5v-1.8h-8.5v1.8h3.5v14h1.5v-14Z" fill="#254558" fill-rule="evenodd"/>
    <path id="Path_256" data-name="Path 256" d="M495.9,194.7v15.8h1.6V194.7Z" fill="#254558" fill-rule="evenodd"/>
    <path id="Path_257" data-name="Path 257" d="M509.7,194.7l.1,12.6-6.4-12.6H502v15.8h1.4l-.1-12.9,6.4,12.9h1.4V194.7Z" fill="#254558" fill-rule="evenodd"/>
    <path id="Path_258" data-name="Path 258" d="M390.1,168.5a13.733,13.733,0,0,1,.8,4.9,13.191,13.191,0,0,1-1.2,5.3s7.3-3.4,9.6-4c1.6-.4,1,.1,1,.1a45.076,45.076,0,0,1-2.2,7c-1.1,2.6-1.8,4.1-1.8,4.1s3.8-1.8,5.5-1.8,5,1.5,5,1.5-3.7-9.1-3.7-9.9c.1-.8-.2-.9-.2-.9s8.5,2.4,10.2,3c.1,0-1.1-2.7-1.1-4.8a15.664,15.664,0,0,1,1.1-4.8s-8.4,3.6-9.5,3.6c-1.2,0-.4-2,.5-4.7a28.905,28.905,0,0,1,2.9-5.8,28.226,28.226,0,0,1-5.4,1.3,25.675,25.675,0,0,1-4.7-.9s2.7,7,3,8.3c.4,1.3.1,1.8.1,1.8a31.132,31.132,0,0,1-6.6-1.9,10.125,10.125,0,0,0-3.3-1.4Z" fill="#254558" fill-rule="evenodd"/>
  </g>
</svg>
