<svg xmlns="http://www.w3.org/2000/svg" width="129" height="47" style="position: absolute; left: 0px; top: 0px; width: 100%; height: 100%; overflow: visible; z-index: -1; box-shadow: none;"><defs><path x="0px" y="0px" fill="transparent" id="m-304435-border" stroke="transparent" stroke-width="0" stroke-linejoin="square" stroke-linecap="butt" stroke-dasharray="" width="129" height="47" d="M 0 0 A 0 0 0 0 1 0 0 L 129 0 A 0 0 0 0 1 129 0L 129 47 A 0 0 0 0 1 129 47L 0 47 A 0 0 0 0 1 0 47 Z"></path><clipPath id="m-304435-clip"><use xlink:href="#m-304435-border" style="pointer-events: none;"></use></clipPath></defs><g id="m-304435-group"><path id="m-304435-shape" fill="transparent" d="M 0 0 A 0 0 0 0 1 0 0 L 129 0 A 0 0 0 0 1 129 0L 129 47 A 0 0 0 0 1 129 47L 0 47 A 0 0 0 0 1 0 47 Z" style="overflow: visible;"></path><image x="0px" y="0px" clip-path="url(#m-304435-clip)" xlink:href="https://c.bannerflow.net/io/api/image/optimize?u=https%3A%2F%2Fc.bannerflow.net%2Faccounts%2Fkashxa%2F627e0997a1019b939ceda861%2Fimages%2Fd8bf01c7-3c00-4809-8a29-ec5f30f68921.png&amp;w=155&amp;h=56&amp;q=99&amp;f=webp&amp;rt=contain" src="https://c.bannerflow.net/io/api/image/optimize?u=https%3A%2F%2Fc.bannerflow.net%2Faccounts%2Fkashxa%2F627e0997a1019b939ceda861%2Fimages%2Fd8bf01c7-3c00-4809-8a29-ec5f30f68921.png&amp;w=155&amp;h=56&amp;q=99&amp;f=webp&amp;rt=contain" width="129" height="47" preserveAspectRatio="xMidYMid meet"></image><use xlink:href="#m-304435-border" style="pointer-events: none;"></use></g></svg>