<svg id="Component_13_1" data-name="Component 13 – 1" xmlns="http://www.w3.org/2000/svg" width="40" height="40" viewBox="0 0 40 40">
  <rect id="Rectangle_181" data-name="Rectangle 181" width="40" height="40" fill="none"/>
  <g id="header-reserve" transform="translate(5.429 3.79)">
    <path id="Path_121" data-name="Path 121" d="M10.1,30.8H4.99A3.487,3.487,0,0,1,1.5,27.31V4.99A3.487,3.487,0,0,1,4.99,1.5H20.92a3.487,3.487,0,0,1,3.49,3.49v7.7" fill="none" stroke="#c4a376" stroke-linecap="round" stroke-linejoin="round" stroke-width="2"/>
    <line id="Line_52" data-name="Line 52" x2="13.07" transform="translate(6.56 8.87)" fill="none" stroke="#c4a376" stroke-linecap="round" stroke-linejoin="round" stroke-width="2"/>
    <line id="Line_53" data-name="Line 53" x2="13.07" transform="translate(6.56 13.83)" fill="none" stroke="#c4a376" stroke-linecap="round" stroke-linejoin="round" stroke-width="2"/>
    <line id="Line_54" data-name="Line 54" x2="7.72" transform="translate(6.56 18.78)" fill="none" stroke="#c4a376" stroke-linecap="round" stroke-linejoin="round" stroke-width="2"/>
    <path id="Path_122" data-name="Path 122" d="M20.04,29.64l-4.87,1.28,1.28-4.87,6.87-6.87a2.529,2.529,0,0,1,3.58,0h0a2.529,2.529,0,0,1,0,3.58l-6.87,6.87Z" fill="none" stroke="#c4a376" stroke-linecap="round" stroke-linejoin="round" stroke-width="2"/>
    <line id="Line_55" data-name="Line 55" x2="3.58" y2="3.58" transform="translate(22.33 20.18)" fill="none" stroke="#c4a376" stroke-linecap="round" stroke-linejoin="round" stroke-width="2"/>
  </g>
</svg>
