<svg xmlns="http://www.w3.org/2000/svg" xmlns:xlink="http://www.w3.org/1999/xlink" width="205.666" height="62.609" viewBox="0 0 205.666 62.609">
  <defs>
    <linearGradient id="linear-gradient" x1="-0.257" y1="0.379" x2="3.175" y2="0.942" gradientUnits="objectBoundingBox">
      <stop offset="0" stop-color="#9c815b"/>
      <stop offset="0.4" stop-color="#c4a376"/>
      <stop offset="0.62" stop-color="#c4a376"/>
      <stop offset="1" stop-color="#8e7652"/>
    </linearGradient>
    <linearGradient id="linear-gradient-2" x1="0.161" y1="0.283" x2="1.656" y2="1.426" xlink:href="#linear-gradient"/>
    <linearGradient id="linear-gradient-3" x1="-0.678" y1="0.117" x2="1.532" y2="0.821" xlink:href="#linear-gradient"/>
    <linearGradient id="linear-gradient-4" x1="-1.276" y1="0.022" x2="1.128" y2="0.707" xlink:href="#linear-gradient"/>
    <linearGradient id="linear-gradient-5" x1="-0.273" y1="-0.183" x2="1.205" y2="1.272" xlink:href="#linear-gradient"/>
    <linearGradient id="linear-gradient-6" x1="0.168" y1="0.418" x2="0.873" y2="0.864" xlink:href="#linear-gradient"/>
  </defs>
  <g id="Group_406" data-name="Group 406" transform="translate(15292.104 17871)">
    <g id="Group_404" data-name="Group 404" transform="translate(1 -1.373)">
      <g id="Group_402" data-name="Group 402" transform="translate(-15185 -17856.627)">
        <path id="Path_30" data-name="Path 30" d="M8.6,99.7l2.337.064a.29.29,0,0,1,.3.3,1.676,1.676,0,0,1-.17.616v5.162h8.645v.956h-8.6a13.579,13.579,0,0,0,8.815,11.747l-.807.977c-6.755-2.676-8.5-6.712-9.155-8.284a16.49,16.49,0,0,1-9.219,8.39L0,118.733c3.7-1.912,8.157-5.056,8.709-11.938H.3v-.956H8.752v-4.418A8.191,8.191,0,0,0,8.6,99.7Z" transform="translate(0 -99.7)" fill="#231f20"/>
        <path id="Path_31" data-name="Path 31" d="M18.037,100.981l-2.8,6.118a7.537,7.537,0,0,1,2.549,5.417,3.041,3.041,0,0,1-.807,2.124,2.037,2.037,0,0,1-1.614.531H14l-.51-1.211a4.843,4.843,0,0,0,1,.149c1.041,0,1.062-1.062,1.062-1.721a8.056,8.056,0,0,0-2.039-5.289l2.252-6.033H13.3V118.93H11.24V100.11h6.8v.871Zm11.556,17.864a13.22,13.22,0,0,1-4.4-2.783,14.2,14.2,0,0,1-5.2,2.91l-.892-.743a12.812,12.812,0,0,0,5.034-3.356,15.4,15.4,0,0,1-2.783-7.562l2.1-.595a13.418,13.418,0,0,0,1.657,6.776c1.4-2.379,1.678-6.224,1.763-7.307H20.926c-.149,7.456-1.742,10.09-4.716,12.66l-.892-.595c2.974-3,3.335-5.544,3.335-10.855V100.11H30.018v.956H20.926v4.185h8.327a20.924,20.924,0,0,1-1.891,7.987A7.941,7.941,0,0,1,26.194,115a10.282,10.282,0,0,0,4.163,2.953l-.765.892Z" transform="translate(12.636 -99.24)" fill="#231f20"/>
        <path id="Path_32" data-name="Path 32" d="M32.539,100.11v17.822H28.163v1.02H26.23v-18.82h6.309Zm-1.869,5.438v-4.482H28.163v4.482Zm-2.507.935v4.609H30.67v-4.609Zm0,5.544v4.949H30.67v-4.949Zm16.739-1.4c.127.127.212.191.212.34,0,.17-.34.3-.595.34a26.214,26.214,0,0,1-3.5,2,12.95,12.95,0,0,0,4.185,4.461l-.722.828c-5.247-3.25-6.394-6.542-6.776-9.771H36.129v7.031c2.124-.765,2.485-.913,3.08-1.19l-.106,1.19a35.958,35.958,0,0,1-5.14,2.464c-.106.191-.255.34-.361.34-.149,0-.234-.127-.319-.3l-.68-1.487a4.865,4.865,0,0,0,1.4-.3V100.11h9.729v8.709h-3.8a9.389,9.389,0,0,0,.637,3.484,10.026,10.026,0,0,0,2.931-2.91l1.4,1.232Zm-3.356-6.67v-2.889H36.129v2.889Zm-5.417.956v2.953h5.417v-2.953Z" transform="translate(29.486 -99.24)" fill="#231f20"/>
        <path id="Path_33" data-name="Path 33" d="M42.678,106.624a13.231,13.231,0,0,0,2.931,5.1l-.595.786a14.245,14.245,0,0,1-2.337-2.592V119.3H40.511v-8.73a16.681,16.681,0,0,1-3.5,4.27l-.616-.7a17.632,17.632,0,0,0,4.015-8.051H36.836v-.935h3.675v-3.1c-1.572.127-2.676.149-3.335.149l-.446-1c1.3,0,5.778-.319,7.541-1.487l1.168,1.444a.558.558,0,0,1,.149.3c0,.106-.064.17-.212.17a1.289,1.289,0,0,1-.467-.127c-1.126.212-1.891.3-2.23.34v3.314h2.676v.935H42.678Zm13.68,3.42.3.892-2.868.892V119.3H51.663v-6.8l-6.2,1.954-.34-.935,6.542-2.039V101.016a4.962,4.962,0,0,0-.106-1.275l2.145.085c.149,0,.319,0,.319.191a.959.959,0,0,1-.234.467v10.345Zm-7.35.637a20.422,20.422,0,0,0-2.868-3.951l.595-.828a18.544,18.544,0,0,1,3.632,2.931Zm.276-5.119a19.789,19.789,0,0,0-2.74-3.611l.531-.743a14.771,14.771,0,0,1,3.632,2.655Z" transform="translate(40.908 -99.683)" fill="#231f20"/>
      </g>
      <g id="Group_403" data-name="Group 403" transform="translate(-15176.346 -17827.547)">
        <path id="Path_34" data-name="Path 34" d="M55.336,103.29c-.671,0-1.592,0-2.547.069v-.568c.387.06,2.082.077,2.547.077-.009-.611-.009-.671-.017-1.17-1.1.026-2.082.043-2.779.1v-.568c.533.077,2.211.052,2.77.043,0-.766,0-1.093-.017-1.316l.86.086c.1.009.163.026.163.077a1.254,1.254,0,0,1-.06.163c-.026.095-.034.809-.034.981a22.05,22.05,0,0,0,2.366-.138v.551c-.6,0-1.729.009-2.375.017,0,.482.009.843.009,1.162,1.23-.026,1.747-.06,2.254-.112v.568c-.516-.034-1.841-.034-2.237-.034,0,.284.026.981.043,1.48a6.767,6.767,0,0,1,2.521,1.282l-.551.826a5.588,5.588,0,0,0-1.945-1.437c0,.095.017.344.017.447,0,.964-.49,1.514-1.712,1.514-.972,0-2.048-.361-2.048-1.248,0-1.179,1.54-1.609,2.8-1.514Zm-.379,1.841c-.783,0-1.54.413-1.54,1.015,0,.413.4.731,1.007.731.49,0,.783-.172.895-.542a3.983,3.983,0,0,0,.052-1.179A2.7,2.7,0,0,0,54.958,105.131Z" transform="translate(-52.54 -99.881)" fill="#231f20"/>
        <path id="Path_35" data-name="Path 35" d="M62.32,105.974a7.5,7.5,0,0,0,2.065-2.125l.379.37a14.134,14.134,0,0,1-1.8,2.607Zm1.97.559a3.26,3.26,0,0,0,1.015.163c.706,0,1.308-.25,1.308-1.248a3.565,3.565,0,0,0-1.919-2.865l.361-.413c1.514.964,2.573,2.022,2.573,3.356,0,1.532-1.3,1.661-1.97,1.661-.387,0-.826-.017-1.2-.043l-.163-.611Zm.508-6.453a13.042,13.042,0,0,1,2.65.688l-.542.886a5.713,5.713,0,0,0-2.34-1.144Zm3.777,3.476a6.717,6.717,0,0,1,1.695,2.323l-.912.49a5.225,5.225,0,0,0-1.162-2.53l.379-.284Zm.069-2.082A5.785,5.785,0,0,1,69.6,102.5l-.525.344a4.119,4.119,0,0,0-.783-1.136Zm.852-.353a5.99,5.99,0,0,1,.921.886l-.516.353a4.65,4.65,0,0,0-.757-.989Z" transform="translate(-53.906 -99.9)" fill="#231f20"/>
        <path id="Path_36" data-name="Path 36" d="M78.015,101.909c-.551,0-.938.009-1.781.052-.869,2.607-1.351,4.207-1.661,5.266l-.964-.293c.077-.181.138-.327.275-.706.043-.1.172-.516,1.377-4.225-.336.017-1.041.052-1.712.138v-.585c.232.009.439.017.869.017H75.4c.181-.551.465-1.471.533-1.7l.783.267c.138.043.181.077.181.12s-.086.138-.112.163a10.856,10.856,0,0,0-.413,1.1c.749-.052,1.162-.095,1.643-.163v.559Zm-.912,3.51a1.14,1.14,0,0,0-.206.645c0,.688.912.688,1.308.688a8.547,8.547,0,0,0,2.3-.25l.043.86c-.7.034-1.471.034-1.566.034-1.282,0-2.71,0-2.71-1.213a1.57,1.57,0,0,1,.344-.964Zm.533-3.037a18.3,18.3,0,0,1,3.132.258l-.163.878a7.9,7.9,0,0,0-3.046-.645Z" transform="translate(-55.474 -99.87)" fill="#231f20"/>
        <path id="Path_37" data-name="Path 37" d="M88.341,106.7a2.661,2.661,0,0,0,2.34-2.977A2.4,2.4,0,0,0,88.35,101.1a15.245,15.245,0,0,1-.706,4.328c-.318.809-.723,1.394-1.5,1.394-1.11,0-1.927-1.2-1.927-2.512a3.779,3.779,0,0,1,3.966-3.726c1.824,0,3.493.929,3.493,3.2a3.371,3.371,0,0,1-3.183,3.39l-.155-.473Zm-3.278-2.237c0,1.308.542,1.833,1.024,1.833.284,0,.49-.447.533-.542a13.769,13.769,0,0,0,.8-4.629,3.14,3.14,0,0,0-2.357,3.338Z" transform="translate(-56.963 -99.968)" fill="#231f20"/>
        <path id="Path_38" data-name="Path 38" d="M95.46,103.7a4.242,4.242,0,0,0,2.168-2.771,4.806,4.806,0,0,0,.215-.938l.946.267c.069.017.146.043.146.077s-.138.189-.155.232c-.1.275-.293.749-.327.826h1.876c.275,0,1.144-.034,1.4-.077l.465.473c-.086.215-.387,1.334-.473,1.583-1.187,3.467-3.889,3.88-5.7,4.035l-.095-.473c1.23-.112,4.5-.49,5.145-5.076H98.2a5.321,5.321,0,0,1-2.478,2.246Z" transform="translate(-58.532 -99.886)" fill="#231f20"/>
        <path id="Path_39" data-name="Path 39" d="M107.324,100.818c0-.06-.026-.5-.034-.645l.921.06c.043,0,.155.009.155.06,0,.034-.112.2-.1.241v2.848c0,.207.017,1.153.034,1.385h-1c0-.138.026-1.248.026-1.394Zm1.058,6.2c2.727-.447,2.813-1.988,2.813-5.042a13.113,13.113,0,0,0-.1-1.85l.981.06s.129.017.129.06a2.07,2.07,0,0,1-.069.215c-.017.077,0,1.945,0,2.314,0,3.313-.8,4.242-3.536,4.715l-.215-.473Z" transform="translate(-60.183 -99.907)" fill="#231f20"/>
        <path id="Path_40" data-name="Path 40" d="M123.973,106.719c-.551-.034-1.162-.043-1.368-.043h-4.612c-.095,0-.8.009-1.334.043V106.1c.361.026,1.265.043,1.342.043h4.6a11.894,11.894,0,0,0,1.368-.052v.628Zm-.68-5.042c-.293-.026-1.162-.052-1.368-.052h-3.149c-.361,0-1.032.026-1.377.052v-.637c.327.026,1.041.052,1.377.052h3.14c.336,0,1.041-.026,1.377-.052Z" transform="translate(-61.491 -100.032)" fill="#231f20"/>
        <path id="Path_41" data-name="Path 41" d="M128.856,102.673a7.1,7.1,0,0,1,1.291,1.884l-.74.344a5.1,5.1,0,0,0-.886-2.022l.336-.206Zm5.059-.353c.1.017.146.034.146.069s-.077.2-.086.232c-.43,3.467-2.117,4.517-4.078,5.145l-.2-.353c.766-.163,3.424-1.213,3.45-5.214Zm-3.08,0a7.027,7.027,0,0,1,1.179,1.635l-.757.293a5.088,5.088,0,0,0-.757-1.738l.336-.189Z" transform="translate(-63.147 -100.194)" fill="#231f20"/>
        <path id="Path_42" data-name="Path 42" d="M138.66,103.7a4.242,4.242,0,0,0,2.168-2.771,4.8,4.8,0,0,0,.215-.938l.946.267c.069.017.146.043.146.077s-.138.189-.155.232c-.1.275-.293.749-.327.826h1.876c.275,0,1.144-.034,1.4-.077l.465.473c-.086.215-.387,1.334-.473,1.583-1.187,3.467-3.889,3.88-5.7,4.035l-.095-.473c1.23-.112,4.5-.49,5.145-5.076H141.4a5.32,5.32,0,0,1-2.478,2.246l-.267-.4Z" transform="translate(-64.562 -99.886)" fill="#231f20"/>
      </g>
    </g>
    <g id="Group_405" data-name="Group 405">
      <g id="Group_42" data-name="Group 42" transform="translate(-15285.605 -17819.959)">
        <path id="Path_25" data-name="Path 25" d="M29.829,74.48c1.919,3.091,3.9,5.99,6.051,9.067.843-1.282,4.194-6.017,6.264-9.067h.274c.63,4.208,1.055,7.8,1.727,11.561a6.859,6.859,0,0,0-.994-.082,6.94,6.94,0,0,0-.994.082c-.295-2.947-.589-5.674-1.035-8.491h-.041c-1.919,2.748-3.858,5.441-5.524,8.409h-.192c-1.645-2.728-3.584-5.558-5.421-8.409H29.9c-.4,2.714-.994,6.627-1.014,8.491a3.372,3.372,0,0,0-1.48,0c.74-3.632,1.583-8.08,2.049-11.561h.356Z" transform="translate(-27.41 -74.48)" fill="#231f20"/>
        <path id="Path_26" data-name="Path 26" d="M58.1,79.032c0-1.412-.082-2.844-.171-4.242,1.268.048,2.508.082,3.776.082s2.508-.034,3.755-.082a2,2,0,0,0,0,.987c-1.775-.1-2.8-.212-5.544-.212-.021.706-.082,1.282-.082,2.09,0,.857.021,1.761.021,2.172,2.488,0,3.879-.082,5.126-.164a2.139,2.139,0,0,0-.062.507,2.028,2.028,0,0,0,.062.493c-1.453-.117-4.112-.151-5.126-.151-.021.4-.021.809-.021,2.385,0,1.247.021,2.056.041,2.467a49.214,49.214,0,0,0,5.695-.212,2.182,2.182,0,0,0-.062.507,1.961,1.961,0,0,0,.062.48c-1.247-.048-2.508-.082-3.8-.082s-2.549.034-3.838.082c.082-1.432.171-2.865.171-4.276v-2.83Z" transform="translate(-37.015 -74.578)" fill="#231f20"/>
        <path id="Path_27" data-name="Path 27" d="M75.331,79.053c0-1.412-.082-2.844-.171-4.263a7.781,7.781,0,0,0,1.035.082,7.872,7.872,0,0,0,1.035-.082c-.082,1.412-.171,2.844-.171,4.263,0,2.762.041,4.7.062,6.318a54.394,54.394,0,0,0,5.818-.212,1.236,1.236,0,0,0,0,.987c-1.288-.048-2.6-.082-3.879-.082s-2.6.034-3.9.082c.082-1.412.171-2.844.171-4.263v-2.83Z" transform="translate(-42.437 -74.578)" fill="#231f20"/>
        <path id="Path_28" data-name="Path 28" d="M92.561,79.053c0-1.412-.082-2.844-.171-4.263a7.781,7.781,0,0,0,1.035.082,7.872,7.872,0,0,0,1.035-.082c-.082,1.412-.171,2.844-.171,4.263v2.83c0,1.412.082,2.844.171,4.263a7.781,7.781,0,0,0-1.035-.082,7.871,7.871,0,0,0-1.035.082c.082-1.412.171-2.844.171-4.263Z" transform="translate(-47.859 -74.578)" fill="#231f20"/>
        <path id="Path_29" data-name="Path 29" d="M107.544,74.48c2.07,3.817,5.229,9.807,6.346,11.561a7.628,7.628,0,0,0-2.234,0,43.709,43.709,0,0,0-2.172-4.406c-.9-.014-1.837-.034-2.762-.034-.863,0-1.706.014-2.57.034a39.793,39.793,0,0,0-2.049,4.406,3.752,3.752,0,0,0-1.562,0c2.255-3.851,4.448-7.682,6.6-11.561h.4Zm-.7,2.22-2.3,4.18c.74,0,1.542.034,2.275.034.781,0,1.583-.014,2.364-.034Z" transform="translate(-50.424 -74.48)" fill="#231f20"/>
      </g>
      <g id="Group_401" data-name="Group 401">
        <g id="Group_399" data-name="Group 399">
          <path id="Path_43" data-name="Path 43" d="M117.575,19.269c-3.536-4.187-3.084-10.1-.062-12.945l.288-.274.336.212a5.405,5.405,0,0,1,2.392,4.448l-.4.062a6.028,6.028,0,0,0-2.214-3.406,8.9,8.9,0,0,0-.021,11.4l-.322.493Z" transform="translate(-15340.606 -17872.904)" fill="url(#linear-gradient)"/>
          <path id="Path_44" data-name="Path 44" d="M119.05,25.345c-5.078,2.07-10.56-.185-12.329-3.94l-.171-.363.308-.254a5.388,5.388,0,0,1,4.968-.9l-.062.4a6,6,0,0,0-3.92,1.055,8.891,8.891,0,0,0,10.835,3.543Z" transform="translate(-15337.921 -17877.176)" fill="url(#linear-gradient-2)"/>
          <path id="Path_45" data-name="Path 45" d="M125.288,23.01c.4,5.462-3.44,9.985-7.559,10.506l-.4.048-.144-.37a5.387,5.387,0,0,1,.685-5l.356.178a6.026,6.026,0,0,0-.206,4.057,8.894,8.894,0,0,0,6.723-9.21l.548-.206Z" transform="translate(-15341.165 -17878.24)" fill="url(#linear-gradient-3)"/>
          <path id="Path_46" data-name="Path 46" d="M125.8,17.33c5.318,1.309,8.436,6.36,7.655,10.437l-.075.391-.4.027a5.424,5.424,0,0,1-4.55-2.193l.281-.281a6,6,0,0,0,3.8,1.453,8.9,8.9,0,0,0-6.682-9.238l-.027-.589Z" transform="translate(-15343.979 -17876.453)" fill="url(#linear-gradient-4)"/>
          <path id="Path_47" data-name="Path 47" d="M119.35,16.5c2.892-4.653,8.655-6.058,12.294-4.057l.35.192-.1.384a5.4,5.4,0,0,1-3.5,3.646l-.178-.356a5.984,5.984,0,0,0,2.549-3.159,8.89,8.89,0,0,0-10.848,3.5l-.569-.158Z" transform="translate(-15341.949 -17874.637)" fill="url(#linear-gradient-5)"/>
        </g>
        <g id="Group_400" data-name="Group 400">
          <path id="Path_48" data-name="Path 48" d="M19.087,44.606a1.3,1.3,0,0,1-.569-.178c-1-.528-.548-1.672.021-3.125,1.748-4.42,5.469-12.308,9.073-19.929C31.834,12.438,36.193,3.2,36.987.336L38.111.5A174.106,174.106,0,0,1,29.47,22.245c-2.371,5.023-4.8,10.163-6.668,14.33.171-.254.343-.514.514-.774,5.578-8.34,14-20.95,21.114-27.659C52.886.171,55.607-.727,57.087.39c1.528,1.151,1.377,4.208-4.338,15.392-5.4,10.567-6.86,15.741-6.6,16.742.535-.1,3.221-1.843,9.882-9.437,8.751-9.971,10.334-10.177,11.5-9.409,1.412.932,1.1,3.221-4.537,14.981-1.638,3.413-2.056,5.633-1.631,5.743,3.886,1.007,13.151-4.372,22.307-13.535l.644.761C78.1,27.844,64.8,38.247,60.7,35.341c-2.371-1.679-.247-6.113.452-7.566,3.015-6.3,5.4-11.465,5.715-13.13-.973.644-3.982,3.776-9.272,9.807-8.333,9.491-10.746,9.944-12.1,9.019-.9-.61-3.015-2.049,5.448-18.62C56.053,4.845,56.635,1.59,56.484,1.11h0c-.487,0-3.207,1.542-10.622,8.532C38.92,16.194,30.237,29.187,25.05,36.951c-4.153,6.216-5.119,7.662-5.942,7.662Z" transform="translate(-15310.031 -17871)" fill="url(#linear-gradient-6)"/>
        </g>
      </g>
    </g>
  </g>
</svg>
