<svg xmlns="http://www.w3.org/2000/svg" xmlns:xlink="http://www.w3.org/1999/xlink" width="205.104" height="44.613" viewBox="0 0 205.104 44.613">
  <defs>
    <linearGradient id="linear-gradient" x1="-0.257" y1="0.379" x2="3.175" y2="0.942" gradientUnits="objectBoundingBox">
      <stop offset="0" stop-color="#9c815b"/>
      <stop offset="0.4" stop-color="#c4a376"/>
      <stop offset="0.62" stop-color="#c4a376"/>
      <stop offset="1" stop-color="#8e7652"/>
    </linearGradient>
    <linearGradient id="linear-gradient-2" x1="0.161" y1="0.283" x2="1.656" y2="1.426" xlink:href="#linear-gradient"/>
    <linearGradient id="linear-gradient-3" x1="-0.678" y1="0.117" x2="1.532" y2="0.821" xlink:href="#linear-gradient"/>
    <linearGradient id="linear-gradient-4" x1="-1.276" y1="0.022" x2="1.128" y2="0.707" xlink:href="#linear-gradient"/>
    <linearGradient id="linear-gradient-5" x1="-0.273" y1="-0.183" x2="1.205" y2="1.272" xlink:href="#linear-gradient"/>
    <linearGradient id="linear-gradient-6" x1="0.168" y1="0.418" x2="0.873" y2="0.864" xlink:href="#linear-gradient"/>
  </defs>
  <g id="レイヤー_1" data-name="レイヤー 1" transform="translate(-12.286 0)">
    <g id="Group_46" data-name="Group 46" transform="translate(0 0)">
      <g id="Group_44" data-name="Group 44" transform="translate(117 10.452)">
        <g id="Group_42" data-name="Group 42" transform="translate(18.784)">
          <path id="Path_25" data-name="Path 25" d="M29.829,74.48c1.919,3.091,3.9,5.99,6.051,9.067.843-1.282,4.194-6.017,6.264-9.067h.274c.63,4.208,1.055,7.8,1.727,11.561a6.859,6.859,0,0,0-.994-.082,6.94,6.94,0,0,0-.994.082c-.295-2.947-.589-5.674-1.035-8.491h-.041c-1.919,2.748-3.858,5.441-5.524,8.409h-.192c-1.645-2.728-3.584-5.558-5.421-8.409H29.9c-.4,2.714-.994,6.627-1.014,8.491a3.372,3.372,0,0,0-1.48,0c.74-3.632,1.583-8.08,2.049-11.561h.356Z" transform="translate(-27.41 -74.48)" fill="#231f20"/>
          <path id="Path_26" data-name="Path 26" d="M58.1,79.032c0-1.412-.082-2.844-.171-4.242,1.268.048,2.508.082,3.776.082s2.508-.034,3.755-.082a2,2,0,0,0,0,.987c-1.775-.1-2.8-.212-5.544-.212-.021.706-.082,1.282-.082,2.09,0,.857.021,1.761.021,2.172,2.488,0,3.879-.082,5.126-.164a2.139,2.139,0,0,0-.062.507,2.028,2.028,0,0,0,.062.493c-1.453-.117-4.112-.151-5.126-.151-.021.4-.021.809-.021,2.385,0,1.247.021,2.056.041,2.467a49.214,49.214,0,0,0,5.695-.212,2.182,2.182,0,0,0-.062.507,1.961,1.961,0,0,0,.062.48c-1.247-.048-2.508-.082-3.8-.082s-2.549.034-3.838.082c.082-1.432.171-2.865.171-4.276v-2.83Z" transform="translate(-37.015 -74.578)" fill="#231f20"/>
          <path id="Path_27" data-name="Path 27" d="M75.331,79.053c0-1.412-.082-2.844-.171-4.263a7.781,7.781,0,0,0,1.035.082,7.872,7.872,0,0,0,1.035-.082c-.082,1.412-.171,2.844-.171,4.263,0,2.762.041,4.7.062,6.318a54.394,54.394,0,0,0,5.818-.212,1.236,1.236,0,0,0,0,.987c-1.288-.048-2.6-.082-3.879-.082s-2.6.034-3.9.082c.082-1.412.171-2.844.171-4.263v-2.83Z" transform="translate(-42.437 -74.578)" fill="#231f20"/>
          <path id="Path_28" data-name="Path 28" d="M92.561,79.053c0-1.412-.082-2.844-.171-4.263a7.781,7.781,0,0,0,1.035.082,7.872,7.872,0,0,0,1.035-.082c-.082,1.412-.171,2.844-.171,4.263v2.83c0,1.412.082,2.844.171,4.263a7.781,7.781,0,0,0-1.035-.082,7.871,7.871,0,0,0-1.035.082c.082-1.412.171-2.844.171-4.263Z" transform="translate(-47.859 -74.578)" fill="#231f20"/>
          <path id="Path_29" data-name="Path 29" d="M107.544,74.48c2.07,3.817,5.229,9.807,6.346,11.561a7.628,7.628,0,0,0-2.234,0,43.709,43.709,0,0,0-2.172-4.406c-.9-.014-1.837-.034-2.762-.034-.863,0-1.706.014-2.57.034a39.793,39.793,0,0,0-2.049,4.406,3.752,3.752,0,0,0-1.562,0c2.255-3.851,4.448-7.682,6.6-11.561h.4Zm-.7,2.22-2.3,4.18c.74,0,1.542.034,2.275.034.781,0,1.583-.014,2.364-.034Z" transform="translate(-50.424 -74.48)" fill="#231f20"/>
        </g>
        <g id="Group_43" data-name="Group 43" transform="translate(0 17.283)">
          <path id="Path_30" data-name="Path 30" d="M2.775,99.7l.754.021a.094.094,0,0,1,.1.1.541.541,0,0,1-.055.2v1.665H6.36v.308H3.584a4.381,4.381,0,0,0,2.844,3.79l-.26.315a4.74,4.74,0,0,1-2.954-2.673A5.32,5.32,0,0,1,.24,106.128L0,105.84a4.58,4.58,0,0,0,2.81-3.851H.1v-.308H2.823v-1.425a2.643,2.643,0,0,0-.048-.555Z" transform="translate(0 -99.7)" fill="#231f20"/>
          <path id="Path_31" data-name="Path 31" d="M13.433,100.391l-.9,1.974a2.432,2.432,0,0,1,.822,1.748.981.981,0,0,1-.26.685.657.657,0,0,1-.521.171h-.439l-.164-.391a1.563,1.563,0,0,0,.322.048c.336,0,.343-.343.343-.555a2.6,2.6,0,0,0-.658-1.706l.726-1.946H11.9v5.763H11.24V100.11h2.193v.281Zm3.728,5.763a4.265,4.265,0,0,1-1.419-.9,4.581,4.581,0,0,1-1.679.939l-.288-.24a4.133,4.133,0,0,0,1.624-1.083,4.968,4.968,0,0,1-.9-2.44l.678-.192a4.329,4.329,0,0,0,.535,2.186,6.133,6.133,0,0,0,.569-2.357H14.365c-.048,2.405-.562,3.255-1.521,4.084l-.288-.192c.959-.966,1.076-1.789,1.076-3.5V100.11H17.3v.308H14.365v1.35h2.686a6.75,6.75,0,0,1-.61,2.577,2.562,2.562,0,0,1-.377.569,3.317,3.317,0,0,0,1.343.953l-.247.288Z" transform="translate(-3.537 -99.829)" fill="#231f20"/>
          <path id="Path_32" data-name="Path 32" d="M28.265,100.11v5.75H26.854v.329H26.23v-6.072h2.035Zm-.6,1.754v-1.446h-.809v1.446Zm-.809.3v1.487h.809v-1.487Zm0,1.789v1.6h.809v-1.6Zm5.4-.452c.041.041.069.062.069.11s-.11.1-.192.11a8.457,8.457,0,0,1-1.131.644,4.178,4.178,0,0,0,1.35,1.439l-.233.267a3.953,3.953,0,0,1-2.186-3.152h-.507v2.268c.685-.247.8-.295.994-.384l-.034.384a11.6,11.6,0,0,1-1.658.795c-.034.062-.082.11-.117.11s-.075-.041-.1-.1l-.219-.48a1.57,1.57,0,0,0,.452-.1V100.11h3.139v2.81H30.65a3.029,3.029,0,0,0,.206,1.124,3.235,3.235,0,0,0,.946-.939l.452.4Zm-1.083-2.152v-.932H29.424v.932Zm-1.748.308v.953h1.748v-.953Z" transform="translate(-8.255 -99.829)" fill="#231f20"/>
          <path id="Path_33" data-name="Path 33" d="M38.418,101.947a4.269,4.269,0,0,0,.946,1.645l-.192.254a4.6,4.6,0,0,1-.754-.836v3.029h-.7v-2.817a5.382,5.382,0,0,1-1.131,1.377l-.2-.226a5.688,5.688,0,0,0,1.3-2.6H36.534v-.3h1.186v-1c-.507.041-.863.048-1.076.048L36.5,100.2a6.055,6.055,0,0,0,2.433-.48l.377.466a.18.18,0,0,1,.048.1c0,.034-.021.055-.069.055a.416.416,0,0,1-.151-.041c-.363.069-.61.1-.72.11v1.069h.863v.3h-.863Zm4.413,1.1.1.288-.925.288v2.412h-.685v-2.193l-2,.63-.11-.3,2.111-.658v-3.379a1.6,1.6,0,0,0-.034-.411l.692.027c.048,0,.1,0,.1.062a.309.309,0,0,1-.075.151V103.3Zm-2.371.206a6.589,6.589,0,0,0-.925-1.275l.192-.267a5.983,5.983,0,0,1,1.172.946Zm.089-1.652a6.384,6.384,0,0,0-.884-1.165l.171-.24a4.765,4.765,0,0,1,1.172.857Z" transform="translate(-11.452 -99.706)" fill="#231f20"/>
          <path id="Path_34" data-name="Path 34" d="M54.767,102.612c-.535,0-1.268,0-2.028.055v-.452c.308.048,1.658.062,2.028.062-.007-.487-.007-.535-.014-.932-.877.021-1.658.034-2.214.082v-.452c.425.062,1.761.041,2.207.034,0-.61,0-.87-.014-1.049l.685.069c.082.007.13.021.13.062a1,1,0,0,1-.048.13c-.021.075-.027.644-.027.781a17.561,17.561,0,0,0,1.885-.11v.439c-.48,0-1.377.007-1.891.014,0,.384.007.672.007.925.98-.021,1.391-.048,1.8-.089v.452c-.411-.027-1.467-.027-1.782-.027,0,.226.021.781.034,1.179a5.39,5.39,0,0,1,2.008,1.021l-.439.658a4.451,4.451,0,0,0-1.549-1.144c0,.075.014.274.014.356,0,.768-.391,1.206-1.364,1.206-.774,0-1.631-.288-1.631-.994,0-.939,1.227-1.282,2.227-1.206Zm-.3,1.467c-.624,0-1.227.329-1.227.809,0,.329.322.583.8.583.391,0,.624-.137.713-.432a3.173,3.173,0,0,0,.041-.939A2.151,2.151,0,0,0,54.466,104.079Z" transform="translate(-16.534 -99.782)" fill="#231f20"/>
          <path id="Path_35" data-name="Path 35" d="M62.32,104.774a5.973,5.973,0,0,0,1.645-1.693l.3.295a11.257,11.257,0,0,1-1.432,2.076l-.514-.678Zm1.569.445a2.6,2.6,0,0,0,.809.13c.562,0,1.042-.2,1.042-.994a2.84,2.84,0,0,0-1.528-2.282l.288-.329c1.206.768,2.049,1.61,2.049,2.673,0,1.22-1.035,1.323-1.569,1.323-.308,0-.658-.014-.959-.034l-.13-.487Zm.4-5.14a10.389,10.389,0,0,1,2.111.548l-.432.706a4.55,4.55,0,0,0-1.864-.911Zm3.008,2.769a5.35,5.35,0,0,1,1.35,1.85l-.726.391A4.162,4.162,0,0,0,67,103.075l.3-.226Zm.055-1.658a4.608,4.608,0,0,1,.761.816l-.418.274a3.281,3.281,0,0,0-.624-.9Zm.678-.281a4.772,4.772,0,0,1,.733.706l-.411.281a3.7,3.7,0,0,0-.6-.788Z" transform="translate(-19.612 -99.82)" fill="#231f20"/>
          <path id="Path_36" data-name="Path 36" d="M77.107,101.494c-.439,0-.747.007-1.419.041-.692,2.076-1.076,3.351-1.323,4.194L73.6,105.5c.062-.144.11-.26.219-.562.034-.082.137-.411,1.1-3.365-.267.014-.829.041-1.364.11v-.466c.185.007.35.014.692.014h.781c.144-.439.37-1.172.425-1.357l.624.212c.11.034.144.062.144.1s-.069.11-.089.13a8.646,8.646,0,0,0-.329.877c.6-.041.925-.075,1.309-.13v.445Zm-.726,2.8a.908.908,0,0,0-.164.514c0,.548.726.548,1.042.548a6.808,6.808,0,0,0,1.83-.2l.034.685c-.555.027-1.172.027-1.247.027-1.021,0-2.159,0-2.159-.966a1.25,1.25,0,0,1,.274-.768Zm.425-2.419a14.573,14.573,0,0,1,2.495.206l-.13.7a6.29,6.29,0,0,0-2.426-.514Z" transform="translate(-23.146 -99.753)" fill="#231f20"/>
          <path id="Path_37" data-name="Path 37" d="M87.5,105.452a2.119,2.119,0,0,0,1.864-2.371,1.91,1.91,0,0,0-1.857-2.09,12.142,12.142,0,0,1-.562,3.447c-.254.644-.576,1.11-1.192,1.11-.884,0-1.535-.953-1.535-2a3.01,3.01,0,0,1,3.159-2.967,2.483,2.483,0,0,1,2.782,2.549,2.685,2.685,0,0,1-2.536,2.7l-.123-.377Zm-2.611-1.782c0,1.042.432,1.46.816,1.46.226,0,.391-.356.425-.432a10.967,10.967,0,0,0,.637-3.687,2.5,2.5,0,0,0-1.878,2.659Z" transform="translate(-26.504 -99.977)" fill="#231f20"/>
          <path id="Path_38" data-name="Path 38" d="M95.46,102.944a3.379,3.379,0,0,0,1.727-2.207,3.829,3.829,0,0,0,.171-.747l.754.212c.055.014.117.034.117.062s-.11.151-.123.185c-.082.219-.233.6-.26.658h1.494c.219,0,.911-.027,1.117-.062l.37.377c-.069.171-.308,1.062-.377,1.261-.946,2.762-3.1,3.091-4.544,3.214l-.075-.377c.98-.089,3.584-.391,4.1-4.043H97.646a4.238,4.238,0,0,1-1.974,1.789l-.212-.322Z" transform="translate(-30.041 -99.791)" fill="#231f20"/>
          <path id="Path_39" data-name="Path 39" d="M107.317,100.678c0-.048-.021-.4-.027-.514l.733.048c.034,0,.123.007.123.048s-.089.158-.082.192v2.268c0,.164.014.918.027,1.1H107.3c0-.11.021-.994.021-1.11v-2.035Zm.843,4.941c2.172-.356,2.241-1.583,2.241-4.016a10.445,10.445,0,0,0-.082-1.473l.781.048s.1.014.1.048a1.65,1.65,0,0,1-.055.171c-.014.062,0,1.549,0,1.843,0,2.638-.637,3.379-2.817,3.755l-.171-.377Z" transform="translate(-33.764 -99.835)" fill="#231f20"/>
          <path id="Path_40" data-name="Path 40" d="M122.485,105.563c-.439-.027-.925-.034-1.09-.034h-3.673c-.075,0-.637.007-1.062.034v-.493c.288.021,1.007.034,1.069.034H121.4a9.474,9.474,0,0,0,1.09-.041v.5Zm-.541-4.016c-.233-.021-.925-.041-1.09-.041h-2.508c-.288,0-.822.021-1.1.041v-.507c.26.021.829.041,1.1.041h2.5c.267,0,.829-.021,1.1-.041Z" transform="translate(-36.713 -100.122)" fill="#231f20"/>
          <path id="Path_41" data-name="Path 41" d="M128.787,102.577a5.651,5.651,0,0,1,1.028,1.5l-.589.274a4.061,4.061,0,0,0-.706-1.61l.267-.164Zm4.03-.281c.082.014.117.027.117.055s-.062.158-.069.185c-.343,2.762-1.686,3.6-3.248,4.1l-.158-.281c.61-.13,2.727-.966,2.748-4.153Zm-2.453,0a5.6,5.6,0,0,1,.939,1.3l-.6.233a4.053,4.053,0,0,0-.6-1.384l.267-.151Z" transform="translate(-40.445 -100.487)" fill="#231f20"/>
          <path id="Path_42" data-name="Path 42" d="M138.66,102.944a3.379,3.379,0,0,0,1.727-2.207,3.827,3.827,0,0,0,.171-.747l.754.212c.055.014.117.034.117.062s-.11.151-.123.185c-.082.219-.233.6-.26.658h1.494c.219,0,.911-.027,1.117-.062l.37.377c-.069.171-.308,1.062-.377,1.261-.946,2.762-3.1,3.091-4.544,3.214l-.075-.377c.98-.089,3.584-.391,4.1-4.043h-2.282a4.238,4.238,0,0,1-1.974,1.789l-.212-.322Z" transform="translate(-43.636 -99.791)" fill="#231f20"/>
        </g>
      </g>
      <g id="Group_45" data-name="Group 45" transform="translate(73.019 4.146)">
        <path id="Path_43" data-name="Path 43" d="M117.575,19.269c-3.536-4.187-3.084-10.1-.062-12.945l.288-.274.336.212a5.405,5.405,0,0,1,2.392,4.448l-.4.062a6.028,6.028,0,0,0-2.214-3.406,8.9,8.9,0,0,0-.021,11.4l-.322.493Z" transform="translate(-109.235 -6.05)" fill="url(#linear-gradient)"/>
        <path id="Path_44" data-name="Path 44" d="M119.05,25.345c-5.078,2.07-10.56-.185-12.329-3.94l-.171-.363.308-.254a5.388,5.388,0,0,1,4.968-.9l-.062.4a6,6,0,0,0-3.92,1.055,8.891,8.891,0,0,0,10.835,3.543Z" transform="translate(-106.55 -10.323)" fill="url(#linear-gradient-2)"/>
        <path id="Path_45" data-name="Path 45" d="M125.288,23.01c.4,5.462-3.44,9.985-7.559,10.506l-.4.048-.144-.37a5.387,5.387,0,0,1,.685-5l.356.178a6.026,6.026,0,0,0-.206,4.057,8.894,8.894,0,0,0,6.723-9.21l.548-.206Z" transform="translate(-109.794 -11.387)" fill="url(#linear-gradient-3)"/>
        <path id="Path_46" data-name="Path 46" d="M125.8,17.33c5.318,1.309,8.436,6.36,7.655,10.437l-.075.391-.4.027a5.424,5.424,0,0,1-4.55-2.193l.281-.281a6,6,0,0,0,3.8,1.453,8.9,8.9,0,0,0-6.682-9.238l-.027-.589Z" transform="translate(-112.608 -9.6)" fill="url(#linear-gradient-4)"/>
        <path id="Path_47" data-name="Path 47" d="M119.35,16.5c2.892-4.653,8.655-6.058,12.294-4.057l.35.192-.1.384a5.4,5.4,0,0,1-3.5,3.646l-.178-.356a5.984,5.984,0,0,0,2.549-3.159,8.89,8.89,0,0,0-10.848,3.5l-.569-.158Z" transform="translate(-110.578 -7.783)" fill="url(#linear-gradient-5)"/>
      </g>
      <path id="Path_48" data-name="Path 48" d="M19.087,44.606a1.3,1.3,0,0,1-.569-.178c-1-.528-.548-1.672.021-3.125,1.748-4.42,5.469-12.308,9.073-19.929C31.834,12.438,36.193,3.2,36.987.336L38.111.5A174.106,174.106,0,0,1,29.47,22.245c-2.371,5.023-4.8,10.163-6.668,14.33.171-.254.343-.514.514-.774,5.578-8.34,14-20.95,21.114-27.659C52.886.171,55.607-.727,57.087.39c1.528,1.151,1.377,4.208-4.338,15.392-5.4,10.567-6.86,15.741-6.6,16.742.535-.1,3.221-1.843,9.882-9.437,8.751-9.971,10.334-10.177,11.5-9.409,1.412.932,1.1,3.221-4.537,14.981-1.638,3.413-2.056,5.633-1.631,5.743,3.886,1.007,13.151-4.372,22.307-13.535l.644.761C78.1,27.844,64.8,38.247,60.7,35.341c-2.371-1.679-.247-6.113.452-7.566,3.015-6.3,5.4-11.465,5.715-13.13-.973.644-3.982,3.776-9.272,9.807-8.333,9.491-10.746,9.944-12.1,9.019-.9-.61-3.015-2.049,5.448-18.62C56.053,4.845,56.635,1.59,56.484,1.11h0c-.487,0-3.207,1.542-10.622,8.532C38.92,16.194,30.237,29.187,25.05,36.951c-4.153,6.216-5.119,7.662-5.942,7.662Z" transform="translate(-5.642 0)" fill="url(#linear-gradient-6)"/>
    </g>
  </g>
</svg>
