<svg xmlns="http://www.w3.org/2000/svg" width="60" height="81" viewBox="0 0 60 81">
  <g id="Group_310" data-name="Group 310" transform="translate(-160 -8642)">
    <text id="_" data-name="  " transform="translate(190 8720)" fill="#202020" font-size="10" font-family="YuGothic-Regular, Yu Gothic"><tspan x="-2.852" y="0" xml:space="preserve">  </tspan></text>
    <circle id="Ellipse_18" data-name="Ellipse 18" cx="30" cy="30" r="30" transform="translate(160 8642)" fill="#f1ebd3"/>
    <path id="Icon_simple-line" data-name="Icon simple-line" d="M28,14.291a.912.912,0,0,1,0,1.823H25.462v1.627H28a.91.91,0,1,1,0,1.82H24.55a.912.912,0,0,1-.907-.909v-6.9a.914.914,0,0,1,.911-.911H28a.911.911,0,0,1,0,1.822H25.462v1.627H28Zm-5.574,4.361a.91.91,0,0,1-.625.862.934.934,0,0,1-.288.045.894.894,0,0,1-.737-.361l-3.532-4.8v4.251a.909.909,0,1,1-1.817,0v-6.9a.906.906,0,0,1,.622-.86.841.841,0,0,1,.281-.048.935.935,0,0,1,.716.367l3.56,4.815V11.754a.911.911,0,0,1,1.822,0v6.9Zm-8.3,0a.909.909,0,0,1-1.819,0v-6.9a.909.909,0,1,1,1.819,0Zm-3.566.909H7.109a.916.916,0,0,1-.911-.909v-6.9a.911.911,0,0,1,1.822,0v5.987h2.539a.91.91,0,0,1,0,1.82M34.7,14.943C34.7,7.178,26.915.858,17.351.858S0,7.178,0,14.943C0,21.9,6.174,27.727,14.509,28.835c.565.119,1.335.373,1.53.853a3.532,3.532,0,0,1,.055,1.561l-.237,1.475c-.065.435-.347,1.715,1.517.933s10-5.9,13.643-10.085A12.467,12.467,0,0,0,34.7,14.943" transform="translate(173 8656.143)" fill="#9a2327"/>
  </g>
</svg>
