<svg xmlns="http://www.w3.org/2000/svg" width="647.343" height="179.262" viewBox="0 0 647.343 179.262">
  <g id="Group_407" data-name="Group 407" transform="translate(-1082.003 -403.533)">
    <path id="Path_123" data-name="Path 123" d="M42.241-40.439A66.488,66.488,0,0,1,38-23.263,48.87,48.87,0,0,1,30.67-11.251Q20.86.641,3.684,5.806q-.2.04-.44-.22A.794.794,0,0,1,3,5.045a.269.269,0,0,1,.12-.24Q21.941-5.325,29.509-23.062a67.328,67.328,0,0,0,4.6-19.5H12.292a70.5,70.5,0,0,0-7.447.48l-.921-3a62.174,62.174,0,0,0,8.528.641H34.273q.641-7.247.641-15.175,0-3.163-.32-7.607a77.415,77.415,0,0,1,9.81,1.682q1.8.561,1.8,1.682T43.362-61.5a166.088,166.088,0,0,1-.721,17.057h20.9q4.845-6.326,5.886-6.326.8,0,5.926,4.444,2.522,2.2,2.522,2.923,0,.841-1.041.841H43.442Q47.406-25.825,58.737-15.5A54,54,0,0,0,79.317-3.924a.4.4,0,0,1,.28.44.555.555,0,0,1-.36.6,9.508,9.508,0,0,0-5.726,6.566q-.48,1.642-1.241,1.642-1.6,0-5.085-2.442A57.787,57.787,0,0,1,53.893-9.689Q44.724-21.861,42.241-40.439ZM112.534-18.1v6.526l.16,14.454q0,3.363-4.524,3.363-3.363,0-3.363-2.963.521-17.057.521-45.444,0-18.979-.48-25.145,3.523,1.4,8.528,3.764H121.7q2.883-3.443,3.8-3.443.841,0,4.484,3.443,1.882,1.762,1.882,2.6,0,1.361-2.522,2.162A91.453,91.453,0,0,1,117.138-40.76q6.767,5.565,9.009,9.89a20.569,20.569,0,0,1,1.962,9.489q0,5.686-2.883,8.448a8.717,8.717,0,0,1-6.446,2.282q-1.121,0-1.441-.44a4.572,4.572,0,0,1-.48-1.682,7.692,7.692,0,0,0-1.241-3.644A6.274,6.274,0,0,0,112.534-18.1Zm0-1.161q5.886.24,6.286.24a2.345,2.345,0,0,0,1.722-.561q.921-1.041.921-4.765a44.247,44.247,0,0,0-1.441-8.929,53.447,53.447,0,0,0-4.524-7.167q5.325-12.292,6.646-21.221h-9.609Zm43.122,9.569Q145.406.961,128.87,5.646q-.6.12-.6-.8a.312.312,0,0,1,.12-.28q15.095-7.928,23.5-19.739-5.565-9.489-8.448-25.024h-2.4a98.118,98.118,0,0,1-3.363,21.821A41.662,41.662,0,0,1,130.391-4.2a42.981,42.981,0,0,1-10.61,9.81.446.446,0,0,1-.2.04q-.681,0-.681-.641a.355.355,0,0,1,.04-.16,48.427,48.427,0,0,0,12.612-24.784q2.042-10.65,2.042-32.312,0-5.646-.561-14.014a67.695,67.695,0,0,1,9.249,4.765h21.5q4.484-5.245,5.405-5.245t5.565,3.6q2.362,1.882,2.362,2.723,0,.8-1.2.8H141.442V-57.5q0,9.289-.32,15.415h20.42q3.724-4.244,4.6-4.244.8,0,4.845,3.443,1.882,1.562,1.882,2.6,0,.961-2.562,2.362A62.155,62.155,0,0,1,159.9-14.774,42.694,42.694,0,0,0,179.359-3.764q.24.04.24.36a.655.655,0,0,1-.4.681A7.053,7.053,0,0,0,176.276-.6a22.179,22.179,0,0,0-1.842,4.364q-.48,1.481-1.241,1.481-1.081,0-4.484-2.482A59.479,59.479,0,0,1,155.656-9.689ZM145.086-40.2q3.844,12.252,10.05,19.939A60.682,60.682,0,0,0,162.062-40.2ZM219.924-52.89l13.805,38.212L245.262-52.89h22.714v.738q-7.462,0-9.84.987a1.87,1.87,0,0,0-.984.659,7.012,7.012,0,0,0-.41,2.961v42.12a8.129,8.129,0,0,0,.328,3.043q.164.329,1.189.7a16.563,16.563,0,0,0,3.567.617q2.542.247,6.15.247V0H236.324V-.82q2.952,0,5.453-.247a14.807,14.807,0,0,0,3.444-.616,2.154,2.154,0,0,0,1.107-.7,8.524,8.524,0,0,0,.328-3.039l-.082-44.68q0-1.4-.327-1.4t-.737,1.23L230.538,0h-1.8L211.065-50.269l-.653-1.227q-.246,0-.246,1.394v34.358q0,9.1,2.419,12.013T221.728-.82V0H198.522V-.82q5.74,0,8.118-2.962t2.378-10.035v-25.42q0-7.239-2.214-10.077t-8.282-2.838v-.82Zm74.128,36q0,8.818,2.091,12.773A6.779,6.779,0,0,0,302.5-.164a11.632,11.632,0,0,0,7.954-3.053,12.781,12.781,0,0,0,4.182-10.067h.656A13.656,13.656,0,0,1,311.354-3.2Q307.418.738,300.858.738a14.387,14.387,0,0,1-10-4.182,16.7,16.7,0,0,1-5.33-12.874q0-8.61,5.248-14.022A14.162,14.162,0,0,1,301.1-35.014,12.883,12.883,0,0,1,309.96-31.9q5.166,4.592,5.166,15.006Zm14.1-.984q0-7.951-1.418-12.135t-4.58-4.183a6.391,6.391,0,0,0-6.281,3.976q-1.824,3.976-1.824,12.342Zm41.9,13.935a5.79,5.79,0,0,0,.246,2.136,1.7,1.7,0,0,0,.738.492,27.668,27.668,0,0,0,7.134.575V0H334.232V-.738q2.378,0,4.3-.165a13.446,13.446,0,0,0,3.321-.658q.492-.411.492-2.386v-43.93a3.994,3.994,0,0,0-.492-2.3,2.183,2.183,0,0,0-.984-.823,31.534,31.534,0,0,0-6.56-.411v-.738l15.744-1.394Zm42.23-31.073V-3.951a5.822,5.822,0,0,0,.246,2.142,1.7,1.7,0,0,0,.738.495,27.608,27.608,0,0,0,7.134.577V0H376.462V-.738q2.378,0,4.3-.165a13.379,13.379,0,0,0,3.321-.661q.492-.413.492-2.4V-29.576a3.731,3.731,0,0,0-.328-1.983,2.456,2.456,0,0,0-1.066-.992,32.676,32.676,0,0,0-6.724-.413V-33.7Zm-4.3-18.532a4.39,4.39,0,0,1,3.251,1.312,4.471,4.471,0,0,1,1.3,3.28,4.471,4.471,0,0,1-1.3,3.28,4.39,4.39,0,0,1-3.251,1.312,4.39,4.39,0,0,1-3.251-1.312,4.471,4.471,0,0,1-1.3-3.28,4.471,4.471,0,0,1,1.3-3.28A4.39,4.39,0,0,1,387.983-53.546ZM440.258-8.98V-19.94a4.232,4.232,0,0,1-2.911,1.607q-1.927.288-3.731.536a6.173,6.173,0,0,0-3.772,2.637A12.445,12.445,0,0,0,428.2-8.24q0,4.779.943,6.468A3.182,3.182,0,0,0,432.14-.082a7.638,7.638,0,0,0,5.617-2.6A8.748,8.748,0,0,0,440.258-8.98Zm.246-14.832v-4.779q0-3.3-1.047-4.449t-4.509-1.154A10.714,10.714,0,0,0,430-33.106a5.333,5.333,0,0,0-2.783,2.93,3.45,3.45,0,0,1,.82-.082,3.108,3.108,0,0,1,2.542,1.23,4.344,4.344,0,0,1,.984,2.788,3.839,3.839,0,0,1-1.242,2.952,4.135,4.135,0,0,1-2.9,1.148,3.261,3.261,0,0,1-1.905-.574,4.588,4.588,0,0,1-2.4-3.936,8.425,8.425,0,0,1,.492-2.624q1.148-3.2,5.74-4.674a21.367,21.367,0,0,1,6.642-1.066q6.068,0,9.184,2.291a6.166,6.166,0,0,1,2.788,5.153V-9.492a41.7,41.7,0,0,0,.246,6.054q.574,2.782,2.952,2.782a2.843,2.843,0,0,0,2.87-2.2,21.048,21.048,0,0,0,.738-6.359q0-1.14-.041-2.282t-.041-2.364V-14.6h.984v3.608q0,1.722.082,3.28,0,4.756-1.154,6.4-1.484,2.05-6.018,2.05A9.222,9.222,0,0,1,443.307-.48a7.46,7.46,0,0,1-2.721-4.957A9.47,9.47,0,0,1,435.42-.074a15.24,15.24,0,0,1-5.494.812A10.785,10.785,0,0,1,423.94-.9a7.412,7.412,0,0,1-3.526-6.733,9.6,9.6,0,0,1,3.43-7.471,14.224,14.224,0,0,1,8.33-3.366q4.9-.411,6.615-1.314T440.5-23.812ZM532.327-16.5q1.121,1.481,2.322,2.8,6.326,7.167,17.057,10.73a.414.414,0,0,1,.24.4.655.655,0,0,1-.4.681A8.677,8.677,0,0,0,548.022.4a20.911,20.911,0,0,0-2.8,4.2,1.19,1.19,0,0,1-1.041.8,6.518,6.518,0,0,1-2.4-1.481,45.411,45.411,0,0,1-10.57-12.452Q525.52-17.9,523.4-32.472h-5.766V-5.565Q524.68-7.127,528.8-8.488a.115.115,0,0,1,.08-.04q.4,0,.4.6a.468.468,0,0,1-.16.4A107.972,107.972,0,0,1,507.583,4q-.36,3.043-1.722,3.043-.841,0-1.642-1.762-.681-1.6-2.723-7.647a5.718,5.718,0,0,1-3.163.721q-2.883,0-2.883-2.2V-5.405h-8.809V-.32q0,3.043-4.324,3.043-3.2,0-3.2-2.643l.32-47.046q0-11.331-.32-19.459a79.336,79.336,0,0,1,8.368,4h7.047q2.963-3.6,3.884-3.6.841,0,4.484,2.6,1.882,1.481,1.882,2.322,0,.881-2.122,2.6V-4.765a3.183,3.183,0,0,1-.4,1.642q2.683-.24,6.446-.721l1.562-.24v-30.83q0-17.617-.32-31.831,4,1.8,8.408,4.324H535.77q3.4-3.844,4.284-3.844T544.5-63.3q1.8,1.682,1.8,2.442,0,.961-2.242,2.522v5.926l.28,19.379q0,2.8-4.124,2.963,6.006,3.563,7.087,4.324,1.041.8,1.041,1.4,0,1.161-2.362,1.161a8.13,8.13,0,0,1-1.722-.2A126.573,126.573,0,0,1,532.327-16.5Zm-1.4-2.042a56.848,56.848,0,0,0,5.445-6.727,32.472,32.472,0,0,0,3.043-4.8q-2.8-.28-2.8-2.242v-.16H525.12A56.828,56.828,0,0,0,530.926-18.538Zm5.686-15.815V-46.726H517.633v12.372Zm0-14.254V-60.539H517.633v11.932Zm-41.16,41.32V-25.745h-8.809V-7.287Zm0-20.34V-43.282h-8.809v15.655Zm0-17.537V-60.539h-8.809v15.375Zm92.194,15.815a73.841,73.841,0,0,1-7.087,10.73,92.182,92.182,0,0,1-7.447,7.688.355.355,0,0,1-.16.04.879.879,0,0,1-.561-.32.692.692,0,0,1-.24-.48.356.356,0,0,1,.04-.16A105.576,105.576,0,0,0,586.6-42.722h-7.487a25.99,25.99,0,0,0-4.4.48l-.921-3a24.291,24.291,0,0,0,5.325.641h8.208V-57.576q-5.045.721-12.172,1.081-.52,0-.521-.721a.247.247,0,0,1,.2-.28,95.444,95.444,0,0,0,19.059-7.287,30.343,30.343,0,0,0,5.726-3.684q7.207,4.965,7.207,6.526,0,1.081-1.642,1.081a8.065,8.065,0,0,1-2.282-.48q-5.045,1.642-8.448,2.482V-44.6h2.8q3.6-4.685,4.484-4.685t4.765,3.443q1.642,1.4,1.642,2.322,0,.8-1.081.8H594.452v6.406q12.372,3.043,12.372,9.409a4.231,4.231,0,0,1-1.321,3.163,3.4,3.4,0,0,1-2.522,1.121,2.261,2.261,0,0,1-1.842-.721,6.775,6.775,0,0,1-1.041-2.242q-2.2-6.366-5.646-9.329v5.806l.08,32.872q0,3.2-4.564,3.2-3.2,0-3.2-2.562,0-.761.44-14.534Q587.6-21.821,587.645-29.349Zm50.009,7.127,1.4-.24q2.723-6.006,3.6-6.006,1.081,0,5.726,2.883,1.962,1.2,1.962,2.122,0,.8-.881.921L637.734-20.18q.04,8.929.2,16.376.12,5.485.12,7.007,0,3.443-4.845,3.443-3.6,0-3.6-2.963,0-2.242.04-8.809.08-7.968.12-13.493l-21.141,4.2a28.647,28.647,0,0,0-5.726,1.722l-1.4-2.963a31.994,31.994,0,0,0,6.286-.6l21.981-4.324q.08-7.527.08-29.949,0-10.01-.48-17.057a60.791,60.791,0,0,1,9.089,1.241q1.922.561,1.922,1.481,0,1.2-2.723,2.282ZM625.682-48.848a4.249,4.249,0,0,1-1.4,3.283,3.889,3.889,0,0,1-2.8,1.121,2.652,2.652,0,0,1-2.282-.921,22.1,22.1,0,0,1-1.962-4.244,17.694,17.694,0,0,0-5.646-7.527.381.381,0,0,1-.16-.32q0-.36.4-.36h.08Q625.682-55.935,625.682-48.848ZM622.4-31.07a4.709,4.709,0,0,1-1.321,3.483,3.866,3.866,0,0,1-2.843,1.161q-2.322,0-3.363-2.883a23.164,23.164,0,0,0-2.923-5.405,29.185,29.185,0,0,0-4.364-4.164.257.257,0,0,1-.16-.24q0-.4.48-.4Q622.4-38.277,622.4-31.07Z" transform="translate(1079 472)" fill="#231f20"/>
    <path id="Path_124" data-name="Path 124" d="M17.982-28.134q-1.819.105-4.034.105A7.371,7.371,0,0,1,6.8-32.353a2.1,2.1,0,0,1-.264-.712.419.419,0,0,1,.475-.475q.185,0,.5.316,1.793,1.951,6.7,1.951a82.933,82.933,0,0,0,11.074-1.239v-5.3q0-2.215-.5-2.689a3.232,3.232,0,0,0-1.5-.659,11.863,11.863,0,0,0-1.266-.211q-.316,0-.316-.369t.659-1.028a2.9,2.9,0,0,1,2.162-.923,8.3,8.3,0,0,1,4.166,1.345q2.32,1.371,2.32,2.769a2.183,2.183,0,0,1-.765,1.5,3.39,3.39,0,0,0-1.028,2.057q-.026.448-.158,1.688-.079.765-.105,1.266,2.558-.4,5.3-.976a12.766,12.766,0,0,0,3.059-.976,5.356,5.356,0,0,1,2.663-.527,4.438,4.438,0,0,1,2.821.976,2.345,2.345,0,0,1,1.055,1.793,1.69,1.69,0,0,1-.817,1.661,9.282,9.282,0,0,1-2.742.554q-7.172.633-11.5,1.239-.053,1.872-.053,3.955t.053,4.14a24.76,24.76,0,0,0,4.667-1.134q.554-.237.554-.633a3.675,3.675,0,0,0-.343-1.107,15.464,15.464,0,0,0-1.187-2.057.656.656,0,0,1-.079-.29.21.21,0,0,1,.237-.237.723.723,0,0,1,.422.185,34.588,34.588,0,0,0,2.953,1.978,3.266,3.266,0,0,0,1.608.5h.4q2.531,0,2.531,1.951A1.642,1.642,0,0,1,39.63-20.7a11.934,11.934,0,0,1-1.978.9A42.552,42.552,0,0,1,28.9-17.613q.026,1.714.527,8.385A40.519,40.519,0,0,1,40.342-4.482q3.243,1.925,3.243,4.271A2.491,2.491,0,0,1,42.952,1.5a1.825,1.825,0,0,1-1.424.659,3.072,3.072,0,0,1-2-.87q-5.59-4.931-9.7-6.539v.712q0,7.33-8.437,7.33A11.407,11.407,0,0,1,14.528.949a5.652,5.652,0,0,1-2.584-4.693q0-2.479,2.689-4.324a12.811,12.811,0,0,1,5.142-1.608,18.379,18.379,0,0,1,2.689-.158q1.318,0,3.085.105,0-3.955-.158-7.436-1.4.105-4.377.105-7.726,0-7.726-4.482a6.833,6.833,0,0,1,2.057-4.482A20.33,20.33,0,0,1,17.982-28.134Zm2.215.053a9.942,9.942,0,0,0-3.085,2.268,4.994,4.994,0,0,0-1.5,2.979q0,2.373,4.324,2.373a49.191,49.191,0,0,0,5.405-.343q0-5.115-.053-7.989-1.055.132-2.637.369ZM25.6-6.486a21.737,21.737,0,0,0-4.983-.659q-.633,0-1.213.053A10.634,10.634,0,0,0,15.24-6.064,2.615,2.615,0,0,0,13.9-3.85a2.636,2.636,0,0,0,1.714,2.426,10.534,10.534,0,0,0,4.641.712q3.138,0,4.482-1.5Q25.6-3.217,25.6-6.486Zm82.83-31.852a10.206,10.206,0,0,1,4.482,1.9,4.194,4.194,0,0,1,2,3.217,1.933,1.933,0,0,1-.5,1.345,1.663,1.663,0,0,1-1.292.554,2.049,2.049,0,0,1-1.819-1.239,21.977,21.977,0,0,0-3.4-4.746q-.606-.606-.606-.712a.316.316,0,0,1,.264-.316,1.65,1.65,0,0,1,.448-.053A1.226,1.226,0,0,1,108.432-38.338Zm4.324-3.4a11.6,11.6,0,0,1,5.115,1.688q1.951,1.239,1.951,2.742a2.123,2.123,0,0,1-.554,1.529,1.518,1.518,0,0,1-1.107.475,2.223,2.223,0,0,1-2-1.187,15.067,15.067,0,0,0-3.771-4.245q-.659-.475-.659-.633a.345.345,0,0,1,.158-.343,1.062,1.062,0,0,1,.422-.079A3.165,3.165,0,0,1,112.757-41.739ZM99.969-15.293a29.792,29.792,0,0,1,3.454,4.641A8.564,8.564,0,0,1,104.5-6.539a6.157,6.157,0,0,1-2.716,5.01,7.976,7.976,0,0,1-4.9,1.688,3.327,3.327,0,0,1-2.373-.817,12.97,12.97,0,0,0-2.769-2.109q-5.774-2.637-6.3-2.848Q83.858-4.271,81.485-1.9,80.641,0,79.27,0a4.948,4.948,0,0,1-3.612-1.846Q73.5-4.219,73.5-5.985a6.293,6.293,0,0,1,.316-1.951q.264-.817.87-.817.237,0,.422.369.079.158.976,1.424.87,1.134,1.635,1.134a7.949,7.949,0,0,0,3.349-1.4q.527-.343,5.669-3.56,2.4-1.556,8.411-4.72-2.083-2.769-3.006-4.271a8.1,8.1,0,0,1-1.187-4.43,8.219,8.219,0,0,1,1.793-4.614,47.066,47.066,0,0,1,3.8-4.509,11.024,11.024,0,0,1-6.434-6.2,6.465,6.465,0,0,1-.369-2.373q0-.712.554-.712.185,0,.9,1.081,1.714,2.373,5.854,3.612a23.759,23.759,0,0,1,5.511,2.109,4.168,4.168,0,0,1,2.32,3.718,1.729,1.729,0,0,1-.738,1.45,2.489,2.489,0,0,1-1.477.448l-2.9-.158A8.005,8.005,0,0,0,95.2-28.767q-2.188,1.529-2.188,3.375a5.786,5.786,0,0,0,1.081,3.19,51.608,51.608,0,0,0,4.456,5.353,26.025,26.025,0,0,1,7.515-1.292,24.212,24.212,0,0,1,6.381.712,12.549,12.549,0,0,1,6.038,3.454,7.528,7.528,0,0,1,2.32,5.168,3.945,3.945,0,0,1-1,2.874,2.382,2.382,0,0,1-1.687.738,3.3,3.3,0,0,1-1.951-.712,4.546,4.546,0,0,0-2.531-.844q-1.292-.053-4.588-.053-1.028,0-1.028-.448,0-.211,1.081-.633,3.27-1.292,4.456-1.9a1.537,1.537,0,0,0,.976-1.45,2.616,2.616,0,0,0-.58-1.45,7.824,7.824,0,0,0-3.48-2.479,14.819,14.819,0,0,0-5.326-.976A16.565,16.565,0,0,0,99.969-15.293Zm-3.533,1.424a78.287,78.287,0,0,0-9.861,7.33,49.853,49.853,0,0,0,5.3,1.424,26.574,26.574,0,0,0,4.324.422,3.764,3.764,0,0,0,2.531-.791,2.124,2.124,0,0,0,.765-1.635Q99.494-9.914,96.435-13.869ZM177-23.6q-.659-.053-1.45-.053a15.346,15.346,0,0,0-2,.132,18.7,18.7,0,0,0-6.144,2.083.888.888,0,0,1-.5.158.419.419,0,0,1-.475-.475,1.419,1.419,0,0,1,.369-.712,18.918,18.918,0,0,1,4.983-3.3,16.857,16.857,0,0,1,6.855-1.292,13.24,13.24,0,0,1,5.985,1.187,2.8,2.8,0,0,1,1.846,2.637,1.479,1.479,0,0,1-.633,1.239,2.049,2.049,0,0,1-1.266.4,9,9,0,0,1-2.109-.29,11.414,11.414,0,0,0-1.978-.158q-2.215,0-7.62,3.085a1.455,1.455,0,0,1-.817.264q-.211,0-.211-.369Q171.83-19.09,177-23.6Zm-8.859,10.362-.316,1.134a10.271,10.271,0,0,0-.475,3.3,4.28,4.28,0,0,0,2.268,3.85,11.474,11.474,0,0,0,5.933,1.292,21.176,21.176,0,0,0,5.458-.448,9.126,9.126,0,0,1,2.795-.369,5.648,5.648,0,0,1,2.716.712A2.458,2.458,0,0,1,187.861-1.5q0,1.819-2.927,2.32A42.887,42.887,0,0,1,179,1.081,26.709,26.709,0,0,1,171.83.158a9.128,9.128,0,0,1-5.036-3.243,7.236,7.236,0,0,1-1.45-4.43,10.788,10.788,0,0,1,1.5-5.221q.5-.923.976-.923Q168.138-13.658,168.138-13.236Zm-1.45-20.514a3.688,3.688,0,0,1,2.162-.87,5.524,5.524,0,0,1,2.426.475,1.829,1.829,0,0,1,1.187,1.635q0,1.318-1.661,1.951-2.531,1-8.965,2.742-.5,1.318-1.925,5.194-1.4,3.955-1.872,5.168Q156.484-13.184,152-1.767,150.894.976,148.864.976a2.233,2.233,0,0,1-1.556-.817,2.578,2.578,0,0,1-.606-1.925,11.324,11.324,0,0,1,1.45-3.8,191.8,191.8,0,0,0,9.624-21.542,37.8,37.8,0,0,1-5.88.738,7.755,7.755,0,0,1-3.032-.475,6.612,6.612,0,0,1-2.162-1.635,4.317,4.317,0,0,1-1.45-2.795q0-.475.264-.475a2.3,2.3,0,0,1,.923.475,7.732,7.732,0,0,0,4.43,1.4,34.948,34.948,0,0,0,8.253-1.292,35.611,35.611,0,0,0,1.688-7.066,1.883,1.883,0,0,0-1.134-1.9,13.456,13.456,0,0,0-2-.633q-.58-.185-.58-.448,0-.5.765-.9a5.132,5.132,0,0,1,2.531-.659,8.255,8.255,0,0,1,2.927.659,9.986,9.986,0,0,1,2.61,1.5,2.015,2.015,0,0,1,.817,1.5,2.293,2.293,0,0,1-.765,1.635,6.53,6.53,0,0,0-1.266,1.925q-.343.738-1.318,3.349A11.743,11.743,0,0,0,166.688-33.75Zm69.725-1.134a6.658,6.658,0,0,1,2,4.43,20.057,20.057,0,0,1-1.187,5.722,37.826,37.826,0,0,1-3.4,7.778,42.894,42.894,0,0,1-6.012,9.018,6.006,6.006,0,0,1-4.482,2.215,5.275,5.275,0,0,1-4.087-2.109q-2.979-3.3-2.979-9.835a15.714,15.714,0,0,1,2.32-8.2,21.453,21.453,0,0,1,7.3-7.567,24.3,24.3,0,0,1,13.052-3.507q8.042,0,13.395,4.219a16.677,16.677,0,0,1,6.328,13.711A14.292,14.292,0,0,1,253.71-7.884a24.963,24.963,0,0,1-8.016,4.8A35.765,35.765,0,0,1,234.62-1.028q-1.187,0-1.187-.554,0-.448,1.028-.686,8.728-1.925,13.9-7.066a16.679,16.679,0,0,0,3.823-5.854,19.437,19.437,0,0,0,1.028-6.7q0-6.855-4.746-10.151a16.984,16.984,0,0,0-8.648-2.927q-.554-.026-1.318-.026A16.818,16.818,0,0,0,236.413-34.884Zm-1.793.316a17.056,17.056,0,0,0-9.334,4.324A17.094,17.094,0,0,0,220.7-23.6a13.594,13.594,0,0,0-.923,5.115,11.042,11.042,0,0,0,1.345,5.827q1.16,1.793,2.4,1.793,1.292,0,3.718-3.454a57.5,57.5,0,0,0,7.251-13.236,13.037,13.037,0,0,0,1.134-4.588A2.771,2.771,0,0,0,234.62-34.567Zm88.71,1.793a3.108,3.108,0,0,1,1.371,2.162,1.924,1.924,0,0,1-1.4,1.819,4.606,4.606,0,0,0-1.687,1.846,95.4,95.4,0,0,1-12.472,16.189A47.157,47.157,0,0,1,291.663,1.028a4.274,4.274,0,0,1-1.266.316q-.527,0-.527-.475,0-.369.923-.976a69.307,69.307,0,0,0,15.768-13.843,75.057,75.057,0,0,0,10.626-16.295,2.12,2.12,0,0,0,.158-.554q0-.211-.264-.211-.765.105-2.5.448-2.057.422-2.953.58-.4.079-1.819.4a5.175,5.175,0,0,1-1.107.158,8.366,8.366,0,0,1-2.953-.923A60.707,60.707,0,0,1,299.31-23.1a51.984,51.984,0,0,1-7.831,5.985,4.831,4.831,0,0,1-1.714.817q-.659,0-.659-.606a13.254,13.254,0,0,1,2.057-2.268A75.4,75.4,0,0,0,297.86-27q2.188-2.9,4.351-6.434Q304-36.36,304-37.6q0-1.081-1.925-2.109-.659-.343-.659-.633t.554-.58a2.63,2.63,0,0,1,1.239-.29,10.525,10.525,0,0,1,5.273,1.951q2,1.213,2,2.531a2.106,2.106,0,0,1-1.187,1.688,14.218,14.218,0,0,0-2.215,2.689,3.6,3.6,0,0,0,.817.053,39.812,39.812,0,0,0,4.192-.58q2.294-.4,4.324-.87a2.347,2.347,0,0,0,1.134-.633,2.133,2.133,0,0,1,1.424-.765Q320.746-35.147,323.33-32.774Zm44.888,1.345a20.461,20.461,0,0,0-.264-4.482q-.4-1-2.663-2.057-.58-.29-.58-.527,0-.343.606-.606a3.8,3.8,0,0,1,1.714-.422,9.339,9.339,0,0,1,4.061,1.45q2.795,1.529,2.795,3.138a2.305,2.305,0,0,1-.633,1.5,3.849,3.849,0,0,0-.4,1.846q-.237,6.645-.316,15.451,0,2.32-1.9,2.32-1.318,0-2.4-1.951a6.281,6.281,0,0,1-.712-3.032,5.068,5.068,0,0,1,.264-1.556,13.352,13.352,0,0,0,.264-2.479Q368.218-25.919,368.218-31.43Zm15.188-4.957a9.983,9.983,0,0,0-.185-2.373,1.665,1.665,0,0,0-.738-1.028,8.5,8.5,0,0,0-2.637-1.028q-.606-.132-.606-.4,0-.369.87-1.028a2.834,2.834,0,0,1,1.608-.475,11.207,11.207,0,0,1,4.641,1.134q3.032,1.371,3.032,2.874a2.128,2.128,0,0,1-.659,1.556q-.58.606-.58,2.979,0,13.078-1.345,18.563A19.379,19.379,0,0,1,381.4-5.722Q375.6,0,365.265,2.215a7.689,7.689,0,0,1-1.028.158q-.712,0-.712-.475,0-.369.765-.659,11.443-4.008,15.979-12.472a29.252,29.252,0,0,0,2.927-11.944Q383.405-26.262,383.405-36.387Zm71.123,4.14a4.537,4.537,0,0,1,2.162-.58,6.647,6.647,0,0,1,3.718,1.187,2.766,2.766,0,0,1,1.187,2.479q0,1.5-2.215,1.635-10.679.606-10.916.633-5.089.422-8.147.923-.105,0-.844.132a5.04,5.04,0,0,1-.606.079q-2.03,0-4.377-3.243a4,4,0,0,1-.87-2.373q0-.976.448-.976a1.467,1.467,0,0,1,.738.422,12.508,12.508,0,0,0,1.477,1.028,5.008,5.008,0,0,0,1.688.765,11.389,11.389,0,0,0,1.872.105q1.345,0,5.669-.422,3.428-.316,6.75-.87A6.923,6.923,0,0,0,454.528-32.247Zm-20.25,25.5a4.54,4.54,0,0,1-1.793.475q-1.925,0-4.43-2.795a5.074,5.074,0,0,1-1.5-3.138q0-1.239.527-1.239a3.5,3.5,0,0,1,1.134.712,9.427,9.427,0,0,0,2.136,1.292,5.31,5.31,0,0,0,1.819.264q.9,0,3.085-.237,2.742-.316,3.349-.369,9.07-.87,17.666-1.345a15.005,15.005,0,0,0,4.482-.686,6.149,6.149,0,0,1,2.584-.554,7.371,7.371,0,0,1,3.507,1.134,3.739,3.739,0,0,1,2.268,3.349,1.562,1.562,0,0,1-1.74,1.793,7.877,7.877,0,0,1-1.345-.105q-2.109-.5-3.3-.659a72.484,72.484,0,0,0-7.778-.316,109.284,109.284,0,0,0-14.08.976A24.533,24.533,0,0,0,434.278-6.75Zm79.745-21.226a2.186,2.186,0,0,1-.448-.765.326.326,0,0,1,.369-.369,3.217,3.217,0,0,1,1.028.316,11.536,11.536,0,0,1,4.008,2.716,5.4,5.4,0,0,1,1.582,3.665,2.893,2.893,0,0,1-.738,2.057,2.228,2.228,0,0,1-1.714.712,1.87,1.87,0,0,1-1.661-.659,3.137,3.137,0,0,1-.422-1.5,20.653,20.653,0,0,0-.765-3.533A11.613,11.613,0,0,0,514.023-27.976ZM527.576-25.6a1.721,1.721,0,0,0-.58-1.134,5.786,5.786,0,0,0-1.687-1.134.316.316,0,0,1-.264-.316q0-.264.422-.5a3.428,3.428,0,0,1,1.688-.369,8.394,8.394,0,0,1,4.034,1.556q2.268,1.477,2.268,2.769,0,.738-1.187,1.556a3.2,3.2,0,0,0-1.134,1.477,51.2,51.2,0,0,1-8.912,12.63,41.121,41.121,0,0,1-13.5,9.519,2.124,2.124,0,0,1-.923.264q-.422,0-.422-.58a.786.786,0,0,1,.422-.606,61.5,61.5,0,0,0,13.078-12.577,46.5,46.5,0,0,0,5.985-10.389A6.989,6.989,0,0,0,527.576-25.6ZM504.5-25.813a1.752,1.752,0,0,1-.369-.712.326.326,0,0,1,.369-.369,3.556,3.556,0,0,1,.817.211,13.97,13.97,0,0,1,4.43,2.663,4.789,4.789,0,0,1,1.608,3.4,2.308,2.308,0,0,1-2.637,2.584q-1.582,0-1.951-2.057a12.743,12.743,0,0,0-.976-3.243A11.284,11.284,0,0,0,504.5-25.813Zm99.626-6.961a3.108,3.108,0,0,1,1.371,2.162,1.924,1.924,0,0,1-1.4,1.819,4.606,4.606,0,0,0-1.687,1.846,95.4,95.4,0,0,1-12.472,16.189A47.157,47.157,0,0,1,572.463,1.028a4.274,4.274,0,0,1-1.266.316q-.527,0-.527-.475,0-.369.923-.976a69.307,69.307,0,0,0,15.768-13.843,75.057,75.057,0,0,0,10.626-16.295,2.12,2.12,0,0,0,.158-.554q0-.211-.264-.211-.765.105-2.5.448-2.057.422-2.953.58-.4.079-1.819.4a5.175,5.175,0,0,1-1.107.158,8.366,8.366,0,0,1-2.953-.923A60.707,60.707,0,0,1,580.11-23.1a51.984,51.984,0,0,1-7.831,5.985,4.831,4.831,0,0,1-1.714.817q-.659,0-.659-.606a13.254,13.254,0,0,1,2.057-2.268A75.4,75.4,0,0,0,578.66-27q2.188-2.9,4.351-6.434Q584.8-36.36,584.8-37.6q0-1.081-1.925-2.109-.659-.343-.659-.633t.554-.58a2.63,2.63,0,0,1,1.239-.29,10.525,10.525,0,0,1,5.273,1.951q2,1.213,2,2.531a2.106,2.106,0,0,1-1.187,1.688,14.218,14.218,0,0,0-2.215,2.689,3.6,3.6,0,0,0,.817.053,39.812,39.812,0,0,0,4.192-.58q2.294-.4,4.324-.87a2.347,2.347,0,0,0,1.134-.633,2.133,2.133,0,0,1,1.424-.765Q601.546-35.147,604.13-32.774Z" transform="translate(1097 580)" fill="#231f20"/>
  </g>
</svg>
