<svg xmlns="http://www.w3.org/2000/svg" width="120" height="120" viewBox="0 0 120 120">
  <g id="Group_18" data-name="Group 18" transform="translate(-1800 -7164)">
    <g id="Group_16" data-name="Group 16" transform="translate(-20 -19)">
      <path id="Rectangle_29" data-name="Rectangle 29" d="M120,0h0a0,0,0,0,1,0,0V120a0,0,0,0,1,0,0H0a0,0,0,0,1,0,0v0A120,120,0,0,1,120,0Z" transform="translate(1820 7183)" fill="#ee782e"/>
      <path id="Path_57" data-name="Path 57" d="M3.727-6.211H5.219q1.547,0,1.547-1.406T5.219-9.023H3.727ZM9.555-7.617A3.615,3.615,0,0,1,9.3-6.27a3.489,3.489,0,0,1-.738,1.137,3.38,3.38,0,0,1-1.3.8,5.34,5.34,0,0,1-1.848.3h-1.7V0H.992V-11.234h4.43a4.31,4.31,0,0,1,3.063,1A3.419,3.419,0,0,1,9.555-7.617Zm1.992,6.473a4.838,4.838,0,0,1-1.125-3.332A4.794,4.794,0,0,1,11.547-7.8a3.617,3.617,0,0,1,2.813-1.258,3.435,3.435,0,0,1,1.66.383,2.817,2.817,0,0,1,1.09,1.008V-8.93h2.742V0H17.109V-1.266a2.87,2.87,0,0,1-1.1,1.008,3.458,3.458,0,0,1-1.664.383A3.586,3.586,0,0,1,11.547-1.145Zm5-1.7a2.241,2.241,0,0,0,.563-1.613,2.256,2.256,0,0,0-.562-1.617,1.83,1.83,0,0,0-1.383-.594,1.858,1.858,0,0,0-1.383.586,2.209,2.209,0,0,0-.57,1.609,2.251,2.251,0,0,0,.57,1.621,1.841,1.841,0,0,0,1.383.6A1.836,1.836,0,0,0,16.547-2.848Zm4.734-1.629A4.794,4.794,0,0,1,22.406-7.8a3.617,3.617,0,0,1,2.813-1.258,3.464,3.464,0,0,1,1.66.383,2.746,2.746,0,0,1,1.09,1.008V-8.93h2.742V-.016a5.2,5.2,0,0,1-.27,1.7,4.194,4.194,0,0,1-.8,1.4,3.6,3.6,0,0,1-1.4.965,5.3,5.3,0,0,1-2,.352,5.182,5.182,0,0,1-3.211-.934A3.536,3.536,0,0,1,21.617.93h2.7a1.316,1.316,0,0,0,.613.8,2.212,2.212,0,0,0,1.184.3,1.854,1.854,0,0,0,1.348-.488,2.092,2.092,0,0,0,.5-1.559V-1.281a2.929,2.929,0,0,1-1.1,1.016,3.368,3.368,0,0,1-1.648.391A3.662,3.662,0,0,1,23.68-.2a3.8,3.8,0,0,1-1.25-.914,4.253,4.253,0,0,1-.84-1.457A5.66,5.66,0,0,1,21.281-4.477Zm6.125,1.629a2.241,2.241,0,0,0,.563-1.613,2.256,2.256,0,0,0-.562-1.617,1.83,1.83,0,0,0-1.383-.594,1.858,1.858,0,0,0-1.383.586,2.209,2.209,0,0,0-.57,1.609,2.251,2.251,0,0,0,.57,1.621,1.841,1.841,0,0,0,1.383.6A1.836,1.836,0,0,0,27.406-2.848Zm9.219-4.02a1.713,1.713,0,0,0-1.156.4,1.814,1.814,0,0,0-.586,1.137H38.3a1.4,1.4,0,0,0-.484-1.125A1.776,1.776,0,0,0,36.625-6.867ZM40.9-2.961A3.9,3.9,0,0,1,39.422-.742a4.436,4.436,0,0,1-2.766.867,4.828,4.828,0,0,1-2.332-.551,3.958,3.958,0,0,1-1.6-1.6,4.934,4.934,0,0,1-.582-2.437,4.516,4.516,0,0,1,1.25-3.348,4.424,4.424,0,0,1,3.266-1.246,4.39,4.39,0,0,1,3.211,1.211A4.325,4.325,0,0,1,41.1-4.609a7.154,7.154,0,0,1-.047.8H34.867A1.89,1.89,0,0,0,35.4-2.527a1.635,1.635,0,0,0,1.16.434,1.452,1.452,0,0,0,1.422-.867ZM46.359-3.1V-6.656H45.273V-8.93h1.086V-11.1h2.734V-8.93h1.8v2.273h-1.8V-3.07a.748.748,0,0,0,.191.574.945.945,0,0,0,.645.176h.977V0H49.516Q46.359,0,46.359-3.1ZM60.543-6.9a4.76,4.76,0,0,1,.613,2.438,4.692,4.692,0,0,1-.621,2.434,4.14,4.14,0,0,1-1.68,1.6,5.059,5.059,0,0,1-2.371.551,4.966,4.966,0,0,1-2.355-.551,4.063,4.063,0,0,1-1.648-1.6,4.787,4.787,0,0,1-.605-2.434A4.737,4.737,0,0,1,52.492-6.9,4.12,4.12,0,0,1,54.16-8.5a5,5,0,0,1,2.355-.551,5.013,5.013,0,0,1,2.363.551A4.1,4.1,0,0,1,60.543-6.9ZM54.664-4.461a2.378,2.378,0,0,0,.516,1.648,1.683,1.683,0,0,0,1.3.57,1.787,1.787,0,0,0,1.34-.574,2.282,2.282,0,0,0,.551-1.645,2.325,2.325,0,0,0-.539-1.652,1.741,1.741,0,0,0-1.32-.574,1.727,1.727,0,0,0-1.324.57A2.356,2.356,0,0,0,54.664-4.461Zm10.68-3.2a2.87,2.87,0,0,1,1.1-1.008,3.424,3.424,0,0,1,1.648-.383A3.617,3.617,0,0,1,70.906-7.8a4.794,4.794,0,0,1,1.125,3.32,5.66,5.66,0,0,1-.309,1.9,4.253,4.253,0,0,1-.84,1.457,3.8,3.8,0,0,1-1.25.914,3.662,3.662,0,0,1-1.539.328,3.407,3.407,0,0,1-1.641-.383,2.981,2.981,0,0,1-1.109-.992V4.258H62.609V-8.93h2.734Zm3.332,4.809a2.242,2.242,0,0,0,.574-1.621,2.2,2.2,0,0,0-.574-1.609,1.88,1.88,0,0,0-1.395-.586,1.846,1.846,0,0,0-1.383.594,2.237,2.237,0,0,0-.57,1.617,2.223,2.223,0,0,0,.57,1.613,1.852,1.852,0,0,0,1.383.59A1.862,1.862,0,0,0,68.676-2.855Z" transform="translate(1844 7281)" fill="#fff"/>
      <g id="Group_15" data-name="Group 15" transform="translate(-215.616 -2)">
        <path id="Path_4" data-name="Path 4" d="M2088.616,7244.378l6.772-6.772,6.772,6.772" fill="none" stroke="#fff" stroke-width="2"/>
        <line id="Line_4" data-name="Line 4" y1="16" transform="translate(2095.388 7237.5)" fill="none" stroke="#fff" stroke-width="2"/>
      </g>
    </g>
  </g>
</svg>
