<svg xmlns="http://www.w3.org/2000/svg" width="90.068" height="91.949" viewBox="0 0 90.068 91.949">
  <g id="Polygon_5" data-name="Polygon 5" transform="matrix(0.602, 0.799, -0.799, 0.602, 48.084, 0)" fill="none">
    <path d="M27.96,11.948a8,8,0,0,1,13.844,0l21,36.249a8,8,0,0,1-6.922,12.01h-42A8,8,0,0,1,6.958,48.2Z" stroke="none"/>
    <path d="M 34.88187408447266 12.95827865600586 C 34.36199951171875 12.95827865600586 33.06837463378906 13.10405349731445 32.28606033325195 14.45436859130859 L 11.28478622436523 50.70315551757812 C 10.50042343139648 52.05699157714844 11.02111053466797 53.25351715087891 11.28138732910156 53.70510482788086 C 11.54166030883789 54.15670394897461 12.31594848632812 55.20706939697266 13.88058471679688 55.20706939697266 L 55.88314819335938 55.20706939697266 C 57.44779968261719 55.20706939697266 58.22208786010742 54.15670394897461 58.48236083984375 53.70510482788086 C 58.74263763427734 53.25351715087891 59.26332473754883 52.05699157714844 58.47895050048828 50.70315551757812 L 37.4776725769043 14.45436859130859 C 36.69536209106445 13.10405349731445 35.40173721313477 12.95827865600586 34.88187408447266 12.95827865600586 M 34.88187789916992 7.958286285400391 C 37.57248687744141 7.958286285400391 40.26309204101562 9.288131713867188 41.80402374267578 11.94783020019531 L 62.8052978515625 48.19661712646484 C 65.89524841308594 53.52994155883789 62.04692459106445 60.20706939697266 55.88314819335938 60.20706939697266 L 13.88058471679688 60.20706939697266 C 7.716823577880859 60.20706939697266 3.868499755859375 53.52994155883789 6.95843505859375 48.19661712646484 L 27.95971298217773 11.94783020019531 C 29.50064849853516 9.288135528564453 32.19126510620117 7.958286285400391 34.88187789916992 7.958286285400391 Z" stroke="none" fill="#fdf0e8"/>
  </g>
</svg>
