<svg xmlns="http://www.w3.org/2000/svg" width="21.276" height="23.52" viewBox="0 0 21.276 23.52">
  <g id="company3" transform="translate(-24.424)">
    <path id="Path_53" data-name="Path 53" d="M43.3,20.255h-.008V.754A.754.754,0,0,0,42.534,0H27.589a.754.754,0,0,0-.754.754v19.5H24.424v3.257h0v.008H45.7V20.255ZM40.757,7.66h-1.9V3.968h1.9Zm0,5.186h-1.9V9.154h1.9Zm-1.9,3.568V14.884h1.9v1.529h-1.9ZM36.644,3.968V7.66H33.48V3.968h3.164ZM33.48,12.846V9.154h3.164v3.691H33.48Zm3.164,2.038v6.631H33.48V14.884Zm-7.277,1.529V14.884h1.9v1.529h-1.9Zm1.9-3.568h-1.9V9.154h1.9v3.691Zm0-5.186h-1.9V3.968h1.9V7.66Z" transform="translate(0)" fill="#ee782e"/>
  </g>
</svg>
