<svg id="b" xmlns="http://www.w3.org/2000/svg" width="54.744" height="62.615" viewBox="0 0 54.744 62.615">
  <g id="c" transform="translate(1 1)">
    <g id="Group_1213" data-name="Group 1213">
      <path id="Path_1971" data-name="Path 1971" d="M6.873,1h41a5.816,5.816,0,0,1,5.873,5.873V55.741a5.816,5.816,0,0,1-5.873,5.873h-41A5.816,5.816,0,0,1,1,55.741V6.873A5.816,5.816,0,0,1,6.873,1Z" transform="translate(-1 -1)" fill="none" stroke="#fe6148" stroke-miterlimit="10" stroke-width="2"/>
      <path id="Path_1972" data-name="Path 1972" d="M10.877,7.2H41.654a3.911,3.911,0,0,1,3.876,3.877v7.4a3.911,3.911,0,0,1-3.876,3.877H10.877A3.911,3.911,0,0,1,7,18.477v-7.4A3.911,3.911,0,0,1,10.877,7.2Z" transform="translate(0.048 0.083)" fill="none" stroke="#fe6148" stroke-miterlimit="10" stroke-width="2"/>
      <rect id="Rectangle_34" data-name="Rectangle 34" width="7.753" height="7.753" transform="translate(7.283 29.955)" fill="none" stroke="#fe6148" stroke-miterlimit="10" stroke-width="2"/>
      <rect id="Rectangle_35" data-name="Rectangle 35" width="7.753" height="7.753" transform="translate(22.437 29.955)" fill="none" stroke="#fe6148" stroke-miterlimit="10" stroke-width="2"/>
      <rect id="Rectangle_36" data-name="Rectangle 36" width="7.753" height="7.753" transform="translate(7.283 45.226)" fill="none" stroke="#fe6148" stroke-miterlimit="10" stroke-width="2"/>
      <rect id="Rectangle_37" data-name="Rectangle 37" width="7.753" height="7.753" transform="translate(22.437 45.226)" fill="none" stroke="#fe6148" stroke-miterlimit="10" stroke-width="2"/>
      <rect id="Rectangle_38" data-name="Rectangle 38" width="7.636" height="22.907" transform="translate(37.59 30.072)" fill="none" stroke="#fe6148" stroke-miterlimit="10" stroke-width="2"/>
    </g>
  </g>
</svg>
