<svg xmlns="http://www.w3.org/2000/svg" width="30.112" height="24.457" viewBox="0 0 30.112 24.457">
  <path id="Icon_awesome-twitter" data-name="Icon awesome-twitter" d="M27.017,7.973c.019.267.019.535.019.8,0,8.159-6.21,17.559-17.559,17.559A17.44,17.44,0,0,1,0,23.564a12.767,12.767,0,0,0,1.49.076A12.36,12.36,0,0,0,9.152,21a6.182,6.182,0,0,1-5.77-4.28,7.783,7.783,0,0,0,1.166.1,6.527,6.527,0,0,0,1.624-.21,6.172,6.172,0,0,1-4.949-6.057v-.076a6.215,6.215,0,0,0,2.79.783A6.181,6.181,0,0,1,2.1,3.005,17.542,17.542,0,0,0,14.827,9.464a6.967,6.967,0,0,1-.153-1.414A6.177,6.177,0,0,1,25.355,3.827a12.151,12.151,0,0,0,3.917-1.49,6.155,6.155,0,0,1-2.713,3.4,12.372,12.372,0,0,0,3.554-.955,13.266,13.266,0,0,1-3.1,3.191Z" transform="translate(0 -1.878)" fill="#404040"/>
</svg>
