<?xml version="1.0" encoding="utf-8"?>
<!-- Generator: Adobe Illustrator 28.1.0, SVG Export Plug-In . SVG Version: 6.00 Build 0)  -->
<svg version="1.1" id="Logo_00000158727625646119494500000015711314265259652764_"
	 xmlns="http://www.w3.org/2000/svg" xmlns:xlink="http://www.w3.org/1999/xlink" x="0px" y="0px" viewBox="0 0 700 700"
	 style="enable-background:new 0 0 700 700;" xml:space="preserve">
<style type="text/css">
	.st0{fill:#0866FF;}
	.st1{fill:#FFFFFF;}
</style>
<g id="Logo">
	<path id="Initiator" class="st0" d="M700,350C700,156.7,543.3,0,350,0S0,156.7,0,350c0,164.1,113,301.9,265.4,339.7V457h-72.2V350
		h72.2v-46.1c0-119.1,53.9-174.3,170.9-174.3c22.2,0,60.4,4.3,76.1,8.7v97c-8.3-0.9-22.6-1.3-40.4-1.3c-57.4,0-79.6,21.7-79.6,78.3
		V350h114.3l-19.6,107h-94.7v240.5C565.7,676.5,700,528.9,700,350z"/>
	<path id="F" class="st1" d="M487.1,457l19.6-107H392.4v-37.8c0-56.5,22.2-78.3,79.6-78.3c17.8,0,32.2,0.4,40.4,1.3v-97
		c-15.7-4.3-53.9-8.7-76.1-8.7c-117,0-170.9,55.2-170.9,174.3V350h-72.2v107h72.2v232.7c27.1,6.7,55.4,10.3,84.6,10.3
		c14.4,0,28.5-0.9,42.4-2.6V457H487.1z"/>
</g>
</svg>
