<svg xmlns="http://www.w3.org/2000/svg" width="50.03" height="50.047" viewBox="0 0 50.03 50.047">
  <g id="Group_44" data-name="Group 44" transform="translate(7748 8797.676)">
    <path id="Path_6" data-name="Path 6" d="M9.367,7.776a22.748,22.748,0,0,1,29.716,0l1.6-1.6a25,25,0,0,0-32.91,0Z" transform="translate(-7747.201 -8797.676)" fill="#fff"/>
    <path id="Path_7" data-name="Path 7" d="M39.929,7.77l-1.6,1.6a22.8,22.8,0,0,1,0,29.715l1.6,1.6a25.051,25.051,0,0,0,0-32.909" transform="translate(-7744.061 -8796.877)" fill="#fff"/>
    <path id="Path_8" data-name="Path 8" d="M38.6,37.843c-.282.244-.03,1.019-.322,1.248a22.755,22.755,0,0,1-27.963.023c-.3-.236-.158-.923-.449-1.176l-2.6,2.6c.28.245,1.127-.078,1.417.154a25.006,25.006,0,0,0,31.165.026c.3-.24,1.049-.036,1.341-.291Z" transform="translate(-7747.253 -8793.786)" fill="#fff"/>
    <path id="Path_9" data-name="Path 9" d="M7.776,39.083a22.748,22.748,0,0,1,0-29.716l-1.6-1.6a25,25,0,0,0,0,32.91Z" transform="translate(-7748 -8796.877)" fill="#fff"/>
    <path id="Path_10" data-name="Path 10" d="M16.634,31.444l7.933-19.638L32.5,31.444l6.438-18.371h3.917l-1.4,1.214L32.5,38.858,24.567,19.122,16.634,38.858l-8.892-24.4L6.279,13.073H10.2Z" transform="translate(-7747.355 -8796.463)" fill="#fff"/>
  </g>
</svg>
