<svg xmlns="http://www.w3.org/2000/svg" xmlns:xlink="http://www.w3.org/1999/xlink" width="174.939" height="47.353" viewBox="0 0 174.939 47.353">
  <defs>
    <clipPath id="clip-path">
      <rect id="Rectangle_1" data-name="Rectangle 1" width="174.939" height="47.353" fill="none"/>
    </clipPath>
  </defs>
  <g id="Group_3" data-name="Group 3" transform="translate(0 0)">
    <path id="Path_1" data-name="Path 1" d="M65.759,28.694l8.166-14.823,8.165,14.823,6.626-13.866h3.046L82.089,34.289l-8.165-14.9-8.166,14.9-9.67-19.461h3.045Z" transform="translate(2.435 0.602)" fill="#767676"/>
    <path id="Path_2" data-name="Path 2" d="M93.9,14.789h14.07V16.7H96.71v5.5h10.96v1.915H96.71v7.263h11.26v1.915H93.9Z" transform="translate(4.076 0.642)" fill="#767676"/>
    <path id="Path_3" data-name="Path 3" d="M115.706,28.078l-3.045,5.251h-3.079l11.645-19.386,11.344,19.386H129.46l-2.978-5.251Zm5.455-9.326-4.317,7.411h8.533Z" transform="translate(4.757 0.605)" fill="#767676"/>
    <g id="Group_2" data-name="Group 2" transform="translate(0 0)">
      <g id="Group_1" data-name="Group 1" clip-path="url(#clip-path)">
        <path id="Path_4" data-name="Path 4" d="M136.911,33.292H134.1v-18.5h5.621c4.785,0,9.236.933,9.236,5.1,0,2.847-2.443,4.859-6.325,5.1l8.032,8.3h-3.447l-7.629-8.123h-2.676Zm0-9.938h2.843c3.179,0,6.392-.442,6.392-3.314,0-3.043-3.046-3.337-6.425-3.337h-2.81Z" transform="translate(5.821 0.642)" fill="#767676"/>
        <path id="Path_5" data-name="Path 5" d="M154.175,14.789h14.071V16.7h-11.26v5.5h10.959v1.915H156.986v7.263h11.26v1.915H154.175Z" transform="translate(6.692 0.642)" fill="#767676"/>
        <path id="Path_6" data-name="Path 6" d="M9.281,7.357a21.524,21.524,0,0,1,28.117,0l1.511-1.511a23.654,23.654,0,0,0-31.138,0Z" transform="translate(0.337 0)" fill="#767676"/>
        <path id="Path_7" data-name="Path 7" d="M39.843,7.77,38.332,9.281a21.572,21.572,0,0,1,0,28.116l1.511,1.511a23.7,23.7,0,0,0,0-31.137" transform="translate(1.664 0.338)" fill="#767676"/>
        <path id="Path_8" data-name="Path 8" d="M36.909,37.843c-.267.231-.028.964-.3,1.181a21.53,21.53,0,0,1-26.458.022c-.286-.223-.149-.873-.425-1.112L7.261,40.4c.265.232,1.066-.074,1.341.146a23.66,23.66,0,0,0,29.488.025c.285-.227.992-.034,1.269-.275Z" transform="translate(0.315 1.643)" fill="#df1f1c"/>
        <path id="Path_9" data-name="Path 9" d="M7.357,37.4a21.524,21.524,0,0,1,0-28.117L5.846,7.77a23.654,23.654,0,0,0,0,31.138Z" transform="translate(0 0.338)" fill="#767676"/>
        <path id="Path_10" data-name="Path 10" d="M16.077,30.387l7.506-18.581,7.506,18.581L37.181,13h3.706l-1.325,1.149L31.089,37.4,23.583,18.728,16.077,37.4,7.664,14.316,6.279,13H9.985Z" transform="translate(0.273 0.513)" fill="#df1f1c"/>
      </g>
    </g>
  </g>
</svg>
