<svg xmlns="http://www.w3.org/2000/svg" width="376.51" height="376.638" viewBox="0 0 376.51 376.638">
  <g id="Group_17" data-name="Group 17" transform="translate(-468.531 -1416)">
    <path id="Path_6" data-name="Path 6" d="M19.787,58.517a171.2,171.2,0,0,1,223.636,0L255.44,46.5a188.144,188.144,0,0,0-247.67,0Z" transform="translate(525.245 1416)" fill="#f4f4f4"/>
    <path id="Path_7" data-name="Path 7" d="M50.349,7.77,38.332,19.787c55.247,64.061,55.247,159.575,0,223.628l12.017,12.017c61.828-70.708,61.828-176.945,0-247.662" transform="translate(748.32 1472.714)" fill="#f4f4f4"/>
    <path id="Path_8" data-name="Path 8" d="M243.08,37.843c-2.125,1.834-.224,7.668-2.423,9.395A169.986,169.986,0,0,1,135.325,83.463,170,170,0,0,1,30.216,47.412c-2.274-1.776-1.187-6.946-3.378-8.847L7.261,58.151c2.108,1.842,8.482-.589,10.664,1.162a186.836,186.836,0,0,0,117.4,41.105A186.821,186.821,0,0,0,252.467,59.512c2.266-1.809,7.892-.274,10.092-2.191Z" transform="translate(521.53 1692.22)" fill="#f4f4f4"/>
    <path id="Path_9" data-name="Path 9" d="M58.517,243.423a171.2,171.2,0,0,1,0-223.636L46.5,7.77a188.144,188.144,0,0,0,0,247.67Z" transform="translate(468.531 1472.714)" fill="#f4f4f4"/>
    <path id="Path_10" data-name="Path 10" d="M84.208,159.6l59.7-147.791,59.7,147.791,48.45-138.255h29.478L271,30.479,203.615,215.391l-59.7-148.529-59.7,148.529L17.292,31.773,6.279,21.342H35.758Z" transform="translate(514.363 1502.172)" fill="#f4f4f4"/>
  </g>
</svg>
