<svg xmlns="http://www.w3.org/2000/svg" width="1201" height="414" viewBox="0 0 1201 414">
  <g id="Group_40" data-name="Group 40" transform="translate(-360 -2528)">
    <g id="Group_33" data-name="Group 33" transform="translate(0 92)">
      <path id="Path_31" data-name="Path 31" d="M0,0H222V70H0Z" transform="translate(849 2436)" fill="#f9f1eb"/>
      <path id="Path_30" data-name="Path 30" d="M-47.568-10.48a16.885,16.885,0,0,0-2.64-2.56l-.864.576A17.072,17.072,0,0,1-48.5-9.84ZM-57.44-13.2a17.936,17.936,0,0,1-4.624,6.5,7.818,7.818,0,0,1,.688,1.152A18.132,18.132,0,0,0-59.232-7.9V1.2h1.2V-9.616a21.567,21.567,0,0,0,1.712-3.232Zm10.176,5.152-.16-1.12-4.784.608c-.16-1.408-.256-2.96-.3-4.576H-53.7c.064,1.664.176,3.248.3,4.736l-3.872.48.16,1.12,3.84-.48c.608,4.992,1.888,8.3,4.512,8.5.832.048,1.472-.784,1.824-3.52a4.84,4.84,0,0,1-.992-.624c-.16,1.84-.416,2.784-.88,2.752-1.712-.16-2.752-3.024-3.3-7.264ZM-32.9-5.728A23.283,23.283,0,0,1-35.92-3.456a10.791,10.791,0,0,1-1.344-2.8h5.728V-7.3H-37.9v-1.44h5.216v-.976H-37.9v-1.312h5.824v-1.04H-37.9v-1.328h-1.184v1.328h-5.728v1.04h5.728v1.312H-44.1v.976h5.008V-7.3h-6.32v1.04h5.536a17.575,17.575,0,0,1-6.064,3.1,7.64,7.64,0,0,1,.768.976,20.5,20.5,0,0,0,3.216-1.408V-.4c-.832.208-1.6.384-2.24.528l.384,1.088c1.9-.48,4.624-1.152,7.136-1.824L-36.8-1.664c-1.328.336-2.688.672-3.952.976V-4.3a14.377,14.377,0,0,0,2.368-1.872c1.12,3.616,3.168,6.192,6.576,7.344A3.814,3.814,0,0,1-31.04.128a8.693,8.693,0,0,1-4.3-2.816,28.807,28.807,0,0,0,3.392-2.3Zm8.736-3.424h-3.12V-11.28h3.12Zm-3.12,4.368h3.12v1.968c-1.072.16-2.144.32-3.12.448Zm3.12-1.088h-3.12V-8.1h3.12Zm2.272-5.408v-1.1h-7.76v1.1H-28.4v9.072c-.576.08-1.1.144-1.552.192l.208,1.2c1.52-.256,3.568-.56,5.584-.9v2.9h1.152V-11.28Zm5.536.032-.224.048h-5.712v1.168H-16.9A17.554,17.554,0,0,1-18.88-4.048a20.608,20.608,0,0,1-1.968-5.92l-1.136.208A22.283,22.283,0,0,0-19.6-2.928,9.761,9.761,0,0,1-22.96.032a4.57,4.57,0,0,1,.784.96,11.419,11.419,0,0,0,3.264-2.848,10.009,10.009,0,0,0,3.184,2.9A4.958,4.958,0,0,1-14.88.064a8.887,8.887,0,0,1-3.3-2.976,19.459,19.459,0,0,0,2.592-8.112Zm3.36,6.928a12.5,12.5,0,0,1-.976,3.808A4.8,4.8,0,0,1-13.1-.1a14.549,14.549,0,0,0,1.088-4.048Zm3.088.208a10.707,10.707,0,0,1,.736,2.9l.9-.256a11.639,11.639,0,0,0-.8-2.9Zm-.288-3.872c.224.432.448.912.64,1.392L-11.7-6.48a48.766,48.766,0,0,0,3.072-4.656l-.976-.432a32.7,32.7,0,0,1-1.616,2.88A13.062,13.062,0,0,0-12.048-9.7c.56-.88,1.248-2.192,1.792-3.3l-1.024-.384a23.118,23.118,0,0,1-1.408,3.024c-.16-.16-.336-.336-.5-.48l-.64.736a13.884,13.884,0,0,1,2,2.336c-.32.5-.64.944-.944,1.344-.416.016-.816.032-1.168.048l.1,1.072c.72-.048,1.552-.1,2.432-.16V1.216h1.04V-5.52l1.184-.064a6.422,6.422,0,0,1,.272,1.008L-8-4.96A13.371,13.371,0,0,0-9.36-8.3ZM-.128-5.872h-3.1v-1.5H-4.32v1.5H-7.28v5.52h1.072V-4.864H-4.32V1.2h1.088V-4.864H-1.2v3.248c0,.16-.048.208-.176.208-.176.016-.656.016-1.248,0A3.035,3.035,0,0,1-2.272-.4,4.448,4.448,0,0,0-.592-.576c.368-.192.464-.512.464-1.008ZM-2.112-10.9a17.363,17.363,0,0,1-.8,2H-4.736a10,10,0,0,0-.656-2Zm.352,2c.3-.576.624-1.3.912-2H.528V-11.92H-3.184v-1.472H-4.368v1.472H-8.032V-10.9H-6.4l-.128.032A10.924,10.924,0,0,1-5.872-8.9H-8.144V-6.16h1.072V-7.888H-.416V-6.16H.7V-8.9Zm11.7-2.816h3.12v2.656c0,.912.08,1.184.336,1.392a1.672,1.672,0,0,0,.976.288h.9a2.333,2.333,0,0,0,.832-.16.858.858,0,0,0,.5-.528,7.683,7.683,0,0,0,.176-1.552,2.725,2.725,0,0,1-.912-.464,9.629,9.629,0,0,1-.08,1.3.548.548,0,0,1-.192.352,1.249,1.249,0,0,1-.384.048h-.576a.513.513,0,0,1-.288-.064c-.08-.064-.1-.24-.1-.56v-3.76H8.8v1.856a3.8,3.8,0,0,1-1.872,3.5,4.744,4.744,0,0,1,.944.72A4.737,4.737,0,0,0,9.936-10.9ZM5.7-13.376a12.749,12.749,0,0,1-3.52,3.392,6.159,6.159,0,0,1,.624.96,15.046,15.046,0,0,0,4.016-3.9Zm.528,3.136A15.014,15.014,0,0,1,1.952-5.712a8.342,8.342,0,0,1,.7,1.088,20.413,20.413,0,0,0,1.9-1.712V1.2H5.712V-7.632A17,17,0,0,0,7.3-9.84ZM14.08-5.312a9.566,9.566,0,0,1-2.4,3.024A8.409,8.409,0,0,1,9.52-5.312Zm.832-1.136-.24.048h-7.2v1.088H9.28l-.848.256A10.426,10.426,0,0,0,10.752-1.6,13.164,13.164,0,0,1,6.576.24a5.189,5.189,0,0,1,.656,1.008A14.743,14.743,0,0,0,11.664-.816a11.616,11.616,0,0,0,4.592,2.048,5,5,0,0,1,.768-1.04,11.59,11.59,0,0,1-4.4-1.744A10.383,10.383,0,0,0,15.7-6.08ZM21.3,2.864h1.072L27.152-12.7H26.1ZM37.008.208a4.534,4.534,0,0,0,3.6-1.68L39.792-2.4a3.565,3.565,0,0,1-2.72,1.312c-2.24,0-3.648-1.856-3.648-4.816,0-2.928,1.472-4.752,3.7-4.752a3.2,3.2,0,0,1,2.4,1.12l.8-.96A4.337,4.337,0,0,0,37.1-11.952c-2.976,0-5.2,2.3-5.2,6.1C31.9-2.048,34.1.208,37.008.208ZM42.784,0h6.944V-1.264H44.272V-5.536H48.72V-6.8H44.272v-3.68h5.28v-1.264H42.784ZM56.528.208c2.944,0,5.008-2.352,5.008-6.112s-2.064-6.048-5.008-6.048S51.52-9.664,51.52-5.9,53.584.208,56.528.208Zm0-1.3c-2.112,0-3.488-1.888-3.488-4.816,0-2.944,1.376-4.752,3.488-4.752,2.1,0,3.488,1.808,3.488,4.752C60.016-2.976,58.624-1.088,56.528-1.088Z" transform="translate(960 2478)" fill="#333"/>
    </g>
    <g id="Group_29" data-name="Group 29" transform="translate(-10 -89)">
      <g id="Path_33" data-name="Path 33" transform="translate(370 2796)" fill="#f9f1eb">
        <path d="M 221.5 79.5 L 0.5 79.5 L 0.5 0.5 L 221.5 0.5 L 221.5 79.5 Z" stroke="none"/>
        <path d="M 1 1 L 1 79 L 221 79 L 221 1 L 1 1 M 0 0 L 222 0 L 222 80 L 0 80 L 0 0 Z" stroke="none" fill="#ccc"/>
      </g>
      <path id="Path_32" data-name="Path 32" d="M-56.5-10.144-57.5-10.96a3.37,3.37,0,0,1-1.04.128H-68.08a12.3,12.3,0,0,1-1.632-.128v1.44c.32-.032,1.008-.1,1.632-.1h9.408a19.622,19.622,0,0,1-4.992,5.552c-1.088-.976-2.4-2.048-2.992-2.48L-67.7-5.7a37.754,37.754,0,0,1,3.664,3.152A38.383,38.383,0,0,1-61.152.72l1.168-.928c-.64-.784-1.776-1.984-2.736-2.944a25.045,25.045,0,0,0,5.824-6.5A4.532,4.532,0,0,1-56.5-10.144Zm2.768,3.216V-5.36c.5-.048,1.344-.08,2.224-.08h8.784c.72,0,1.392.064,1.712.08V-6.928c-.352.032-.928.08-1.728.08H-51.5C-52.4-6.848-53.248-6.9-53.728-6.928Zm20.96-5.44-1.536-.3a6.009,6.009,0,0,1-.24,1.28,10.813,10.813,0,0,1-.912,2.24A11.948,11.948,0,0,1-38.3-5.712l1.264.752a12.841,12.841,0,0,0,2.672-3.424h4.1c-.224,4.064-1.952,6.16-3.52,7.344a5.14,5.14,0,0,1-1.3.736l1.36.928c2.752-1.76,4.544-4.432,4.8-9.008h2.7c.368,0,.992.016,1.5.048V-9.712a12.493,12.493,0,0,1-1.5.08h-7.552c.256-.576.448-1.152.608-1.616C-33.056-11.584-32.9-12-32.768-12.368Zm12.528.528v1.328c.4-.032.928-.048,1.456-.048h6.464c.464,0,1.024.016,1.488.048V-11.84a11.805,11.805,0,0,1-1.488.1H-18.8A13.309,13.309,0,0,1-20.24-11.84Zm-1.92,4.016V-6.5c.448-.032.912-.032,1.392-.032h4.8A7.746,7.746,0,0,1-16.9-2.56,6.623,6.623,0,0,1-19.92-.112l1.184.88A7.808,7.808,0,0,0-15.584-2.16a9.685,9.685,0,0,0,.944-4.368h4.352c.384,0,.9.016,1.248.032V-7.824a8.577,8.577,0,0,1-1.248.08h-10.48A12.79,12.79,0,0,1-22.16-7.824Zm15.472,3.7.608,1.184A30.031,30.031,0,0,0-1.072-5.056v4.9c0,.5-.032,1.152-.064,1.408H.336A8.433,8.433,0,0,1,.256-.16v-5.7A19.823,19.823,0,0,0,3.872-8.848l-.992-.96A15.811,15.811,0,0,1-.928-6.544,21.808,21.808,0,0,1-6.688-4.128Zm17.68-7.6-.912.976a33.23,33.23,0,0,1,3.984,3.344l1.008-1.008A35.036,35.036,0,0,0,10.992-11.728ZM9.616-1.008,10.464.3a17.538,17.538,0,0,0,6.288-2.48,15.986,15.986,0,0,0,5.376-5.7l-.768-1.36a15.072,15.072,0,0,1-5.344,5.888A16.521,16.521,0,0,1,9.616-1.008ZM35.6-12.8l-.848.368a18.1,18.1,0,0,1,1.3,2.208l.864-.384A22.677,22.677,0,0,0,35.6-12.8Zm1.76-.64-.848.368A16.629,16.629,0,0,1,37.84-10.88l.864-.384A22.893,22.893,0,0,0,37.36-13.44ZM31.3-12.032l-1.472-.5a5.934,5.934,0,0,1-.5,1.28A13.4,13.4,0,0,1,24.3-5.84l1.1.816A15.439,15.439,0,0,0,29.472-8.96h5.392A12.991,12.991,0,0,1,32.32-3.968,12.814,12.814,0,0,1,25.92.048L27.088,1.1a14.242,14.242,0,0,0,6.368-4.352,15.65,15.65,0,0,0,2.832-5.52,5.027,5.027,0,0,1,.368-.848l-1.056-.64a3.064,3.064,0,0,1-1.04.144H30.224c.128-.224.256-.448.368-.672C30.752-11.072,31.04-11.616,31.3-12.032Zm20.448,9.92H47.9v-1.2h3.84ZM47.9-5.376h3.84v1.12H47.9ZM43.28-8.208V-9.36h3.44v1.152ZM51.488-9.36v1.152H47.9V-9.36Zm3.088,5.1H52.928v-2H47.9v-1.12h4.768v-2.816H47.9v-.928h6.368V-12.1H47.9v-1.28H46.72v1.28H40.48v.976h6.24v.928H42.144v2.816H46.72v1.12H41.7v.88H46.72v1.12H40.176v.944H46.72v1.2H41.552V-1.2H46.72V-.1c0,.272-.1.368-.4.384-.272,0-1.232.016-2.192-.016a3.945,3.945,0,0,1,.416,1.008A9.553,9.553,0,0,0,47.2,1.088c.48-.176.7-.448.7-1.184V-1.2h3.84v.72h1.184V-3.312h1.648Zm11.168-5.28a14.628,14.628,0,0,1-.816,1.664l.16.048h-3.76l.512-.112a6.779,6.779,0,0,0-.8-1.6Zm4.592,6.96V-3.584H63.92V-4.768h5.008V-5.68H63.92V-6.848h5.792v-.976H66.08c.32-.48.672-1.1.992-1.712h3.2V-10.56h-2.48a22.373,22.373,0,0,0,1.408-2.3l-1.216-.32a18.153,18.153,0,0,1-1.216,2.432l.592.192H65.424v-2.832H64.3v2.832H62.4v-2.832H61.3v2.832H59.328l.816-.3a11.029,11.029,0,0,0-1.36-2.352l-1.008.336a12.472,12.472,0,0,1,1.264,2.32H56.5v1.024h3.9l-.56.112a6.718,6.718,0,0,1,.784,1.6H57.136v.976h5.616V-5.68H57.936v.912h4.816v1.184h-6.32v1.008h5.232A15.42,15.42,0,0,1,56.016-.048,5.1,5.1,0,0,1,56.784.96a16.079,16.079,0,0,0,5.968-3.152V1.216H63.92V-2.272a15.1,15.1,0,0,0,6.016,3.28,4.278,4.278,0,0,1,.8-1.056,14.639,14.639,0,0,1-5.712-2.528ZM-1.056,21.152V19.968H-7.392V16.624H-8.624v3.344h-6.288v1.184H-9.36a15.269,15.269,0,0,1-6.1,6.592,4.805,4.805,0,0,1,.848.96A16.664,16.664,0,0,0-8.624,22.16v4.9h-3.12V28.24h3.12v2.976h1.232V28.24h3.04V27.056h-3.04v-4.9a15.778,15.778,0,0,0,6,6.528,4.222,4.222,0,0,1,.88-1.04,14.341,14.341,0,0,1-6.144-6.5ZM8.72,18.384H5.472V16.672H4.336v1.712h-3.2v1.04H8.72Zm-1.968,4.24c.336-.7.72-1.76,1.056-2.688l-1.12-.272a21.65,21.65,0,0,1-.9,2.72ZM3.84,22.336a9.475,9.475,0,0,0-.736-2.56l-.992.208a11.061,11.061,0,0,1,.7,2.592ZM6.9,26.3v2.944h-4V26.3Zm-5.1,4.928H2.9v-.944h4v.848H8.048V25.248H1.792ZM.72,23.856H8.944V22.768H.72ZM14.48,17.5l-.192.048h-4.7V31.216h1.152V18.672H13.76c-.5,1.28-1.2,3.008-1.856,4.352,1.616,1.392,2.064,2.576,2.064,3.584,0,.576-.1,1.056-.432,1.264a1.621,1.621,0,0,1-.688.176,8.822,8.822,0,0,1-1.264-.032A2.766,2.766,0,0,1,11.92,29.2a9.874,9.874,0,0,0,1.392-.032,2.292,2.292,0,0,0,1.04-.352,2.338,2.338,0,0,0,.784-2.08,5.172,5.172,0,0,0-2.016-3.872c.752-1.456,1.568-3.3,2.224-4.8Z" transform="translate(481 2828)" fill="#333"/>
    </g>
    <g id="Group_34" data-name="Group 34" transform="translate(18 66)">
      <path id="Path_41" data-name="Path 41" d="M0,0H160V80H0Z" transform="translate(373 2796)" fill="#f9f1eb"/>
      <path id="Path_40" data-name="Path 40" d="M-38.752-.432h-8.5V-2.608h8.5ZM-46.144-7.7h6.16v1.84h-6.16Zm7.312,2.768v-3.7h-8.432v3.7H-44c-.1.416-.24.88-.352,1.28h-4.016v4.88h1.12V.624h8.5v.592h1.168V-3.648h-5.632c.176-.4.352-.832.512-1.28Zm-.144-5.936a24.767,24.767,0,0,0,1.552-1.968l-1.232-.416a15.422,15.422,0,0,1-1.632,2.384H-43.2l.784-.3a10.622,10.622,0,0,0-1.248-2.24l-1.04.352a11.881,11.881,0,0,1,1.184,2.192h-3.12l.48-.224a9.942,9.942,0,0,0-1.488-2.08l-1.008.448a13.033,13.033,0,0,1,1.3,1.856h-2.256v3.12h1.1v-2.1H-37.6v2.1h1.136v-3.12Zm14.224,1.328a14.627,14.627,0,0,1-.816,1.664l.16.048h-3.76l.512-.112a6.779,6.779,0,0,0-.8-1.6Zm4.592,6.96V-3.584h-6.416V-4.768h5.008V-5.68h-5.008V-6.848h5.792v-.976h-3.632c.32-.48.672-1.1.992-1.712h3.2V-10.56H-22.7a22.373,22.373,0,0,0,1.408-2.3l-1.216-.32a18.152,18.152,0,0,1-1.216,2.432l.592.192h-1.936v-2.832h-1.12v2.832h-1.9v-2.832h-1.1v2.832h-1.968l.816-.3a11.028,11.028,0,0,0-1.36-2.352l-1.008.336a12.472,12.472,0,0,1,1.264,2.32H-34v1.024h3.9l-.56.112a6.718,6.718,0,0,1,.784,1.6H-33.36v.976h5.616V-5.68H-32.56v.912h4.816v1.184h-6.32v1.008h5.232A15.42,15.42,0,0,1-34.48-.048,5.1,5.1,0,0,1-33.712.96a16.079,16.079,0,0,0,5.968-3.152V1.216h1.168V-2.272a15.1,15.1,0,0,0,6.016,3.28,4.278,4.278,0,0,1,.8-1.056,14.639,14.639,0,0,1-5.712-2.528Zm8.288-10.848a18.917,18.917,0,0,1-6.672,6.4,3.994,3.994,0,0,1,.752.928,20.872,20.872,0,0,0,6.592-6.16A22,22,0,0,0-4.48-6.192,6.945,6.945,0,0,1-3.7-7.216a20.018,20.018,0,0,1-6.976-6.208Zm1.44,9.12H-5.84V-5.376h-4.592V-9.1h-1.232V-.336h-3.024V-6.224h-1.184V-.336h-2v1.1h13.52v-1.1h-6.08ZM10.288-.912H-.512v-8.72H-1.664V1.216H-.512V.224h10.8v.944H11.44v-10.8H10.288ZM7.616-6.368H5.328v-2.08H7.616Zm0,3.056H5.328v-2.1H7.616Zm-5.6-2.1H4.288v2.1H2.016Zm0-3.04H4.288v2.08H2.016ZM-2.16-12.336v1.1H4.208v1.776h-3.2V-2.3H8.656V-9.456H5.392v-1.776h6.5v-1.1Zm15.2,15.2h1.072L18.9-12.7H17.84ZM34.3-10.048V-11.2h-6.1v-2.176H26.976V-11.2H21.232v4.24c0,2.224-.128,5.344-1.552,7.536a4.058,4.058,0,0,1,1.008.656c1.488-2.3,1.728-5.792,1.728-8.192v-3.088ZM34.544.7a28.122,28.122,0,0,0-3.632-5.792l-1.056.48a29.3,29.3,0,0,1,2.256,3.36c-2.224.112-4.5.224-6.48.32a79.669,79.669,0,0,0,2.624-7.808l-1.328-.3A59.243,59.243,0,0,1,24.416-.88c-.7.016-1.36.048-1.936.064L22.608.4C25.2.256,29.024.048,32.7-.192A15.2,15.2,0,0,1,33.36,1.28ZM40.832-5.84H38.064l.56-.16a7.767,7.767,0,0,0-.736-2.112h3.12a18.212,18.212,0,0,1-.784,2.1Zm-.848-4.88H42.32v-1.024H39.984V-13.36h-1.12v1.616H36.432v1.024h2.432v1.584H35.856v1.024h1.9l-.784.208a8.842,8.842,0,0,1,.672,2.064H36.08V-4.8h2.784v1.728H36.24v1.008h2.624V1.184h1.12V-2.064h2.544V-3.072H39.984V-4.8h2.752V-5.84H41.152c.272-.56.592-1.328.88-2.064l-.768-.208h1.664V-9.136H39.984Zm4.544,4.448h.144a15.827,15.827,0,0,0,2.064,4.528A8.773,8.773,0,0,1,44.528.4Zm4.208,0A13.2,13.2,0,0,1,47.36-2.736a14.107,14.107,0,0,1-1.68-3.536Zm.544-1.04-.208.048H44.528v-4.3h4.016V-9.6c0,.192-.064.24-.32.256a20.545,20.545,0,0,1-2.064,0,3.417,3.417,0,0,1,.368,1.024,9.453,9.453,0,0,0,2.5-.176c.512-.176.624-.5.624-1.088v-3.072H43.44V1.232h1.088V.464a4.289,4.289,0,0,1,.752.784A9.368,9.368,0,0,0,47.424-.816a8.847,8.847,0,0,0,2.368,2.032,5.279,5.279,0,0,1,.816-.96A8.012,8.012,0,0,1,48.08-1.776,14.73,14.73,0,0,0,50.016-7.04ZM-50.4,23.616l-1.536.448V20.912h1.552V19.824h-1.552v-3.2h-1.152v3.2h-2.144v1.088h2.144V24.4c-.912.272-1.76.512-2.416.672l.272,1.152,2.144-.656v4.208c0,.24-.064.3-.272.3-.208.016-.864.016-1.584-.016a4.846,4.846,0,0,1,.352,1.136,5.357,5.357,0,0,0,2.112-.208c.4-.208.544-.544.544-1.216v-4.56l1.68-.528Zm2.48,3.456h2.608V29.3H-47.92Zm2.608-4.24H-47.92V20.688h2.608Zm0,3.2H-47.92V23.856h2.608Zm4.624,3.264h-3.536V27.072h2.88v-1.04h-2.88V23.856h2.88V22.832h-2.88V20.688h3.264V19.616h-3.184c.384-.816.816-1.792,1.168-2.672l-1.248-.288a22.318,22.318,0,0,1-1.088,2.96H-47.76a22.365,22.365,0,0,0,1.024-2.736l-1.136-.288a14.125,14.125,0,0,1-3.168,5.9,8.7,8.7,0,0,1,.8.992,11.612,11.612,0,0,0,1.184-1.52V31.2h1.136v-.816h7.232Zm10.72-7.5h-2.784V20.128h2.784Zm0,2.688h-2.784V22.8h2.784Zm0,2.72h-2.784V25.472h2.784ZM-33.9,28.24h8.9V27.2h-3.824V25.472h3.12V24.48h-3.12V22.8h3.152V21.792h-3.152V20.128h3.552V19.1h-3.392c.336-.64.672-1.392.976-2.064l-1.264-.272a17.8,17.8,0,0,1-.9,2.336H-32.4a14.715,14.715,0,0,0,1.072-2.128l-1.168-.32a12.483,12.483,0,0,1-3.728,5.12,8.175,8.175,0,0,1,.912.912,13.375,13.375,0,0,0,1.408-1.44Zm-1.664-8.624a11.962,11.962,0,0,0-2.576-2.608l-.912.672a11.82,11.82,0,0,1,2.528,2.672Zm-.48,3.264H-39.2V24h2.032v4.1a26.336,26.336,0,0,1-2.208,1.84l.624,1.136c.784-.688,1.52-1.36,2.224-2.048.992,1.248,2.432,1.808,4.528,1.888,1.792.08,5.168.048,6.96-.032a4.355,4.355,0,0,1,.384-1.168c-1.92.128-5.6.176-7.36.1-1.872-.064-3.28-.608-4.032-1.792ZM-19.1,27.936c0,1.584.544,2.352,3.52,2.352a34.4,34.4,0,0,0,5.024-.32l.064-1.376a25.7,25.7,0,0,1-4.992.464c-1.9,0-2.32-.352-2.32-1.456V22.832c2.832-.576,5.776-1.168,6.048-1.216a15.065,15.065,0,0,1-2.848,3.808l1.12.672a24.354,24.354,0,0,0,3.28-4.656c.112-.208.272-.48.384-.64l-.944-.736a3.24,3.24,0,0,1-.848.288c-.672.144-3.472.72-6.192,1.248V19.1a9.122,9.122,0,0,1,.112-1.472h-1.52A8.985,8.985,0,0,1-19.1,19.1V21.84c-1.7.32-3.216.592-3.936.688l.24,1.328c.656-.144,2.08-.432,3.7-.768ZM.592,17.568-.9,17.088a5.479,5.479,0,0,1-.5,1.264A13.19,13.19,0,0,1-6.416,23.76l1.1.832a16.22,16.22,0,0,0,4.064-3.936H4.16A13.154,13.154,0,0,1,1.6,25.648a12.944,12.944,0,0,1-6.384,4.016l1.152,1.04a14.028,14.028,0,0,0,6.368-4.352,15.519,15.519,0,0,0,2.848-5.5A5.028,5.028,0,0,1,5.952,20L4.88,19.344a2.678,2.678,0,0,1-1.04.16H-.5a7.191,7.191,0,0,0,.384-.672A12.1,12.1,0,0,1,.592,17.568Zm12.224.144-.72,1.072c.944.544,2.672,1.7,3.44,2.272l.752-1.088C15.6,19.456,13.76,18.24,12.816,17.712Zm-2.4,11.44.736,1.3a19.918,19.918,0,0,0,5.312-1.984,18.644,18.644,0,0,0,6.144-5.728l-.768-1.312a16.318,16.318,0,0,1-6.064,5.856A17,17,0,0,1,10.416,29.152Zm-.016-7.84L9.7,22.4a35.07,35.07,0,0,1,3.488,2.192l.736-1.12C13.216,22.96,11.344,21.824,10.4,21.312Zm17.168-.1v1.248c.288-.016,1.216-.048,1.632-.048h5.936v2.656H29.344c-.544,0-1.12-.032-1.424-.048v1.232c.32-.016.88-.032,1.44-.032h5.776v2.848H28.688a12.18,12.18,0,0,1-1.312-.064v1.28c.256,0,.816-.032,1.328-.032h6.432c0,.256,0,.5-.016.64h1.264c-.016-.224-.032-.608-.032-.864V22.064c0-.3,0-.64.016-.816-.208.016-.624.032-.976.032H29.2C28.784,21.28,27.872,21.248,27.568,21.216Zm16.064-2.944-.912.976A33.23,33.23,0,0,1,46.7,22.592l1.008-1.008A35.036,35.036,0,0,0,43.632,18.272Zm-1.376,10.72L43.1,30.3a17.538,17.538,0,0,0,6.288-2.48,15.986,15.986,0,0,0,5.376-5.7L54,20.768a15.072,15.072,0,0,1-5.344,5.888A16.521,16.521,0,0,1,42.256,28.992Z" transform="translate(453 2828)" fill="#333"/>
    </g>
    <g id="Group_35" data-name="Group 35" transform="translate(256.5 65.5)">
      <path id="Path_43" data-name="Path 43" d="M0,0H160V80H0Z" transform="translate(373 2796)" fill="#f9f1eb"/>
      <path id="Path_42" data-name="Path 42" d="M-61.1-11.36v1.28c.432-.032.9-.048,1.44-.048h2.128v3.392h-3.12c-.416,0-1.072-.048-1.5-.08v1.344c.448-.032,1.1-.064,1.5-.064h3.12V-1.92c0,1.312.768,2.16,3.184,2.16,1.52,0,3.056-.064,4.3-.16l.08-1.344a35.364,35.364,0,0,1-4.208.224c-1.472,0-2.032-.48-2.032-1.28V-5.536h5.424a11.842,11.842,0,0,1,1.3.048V-6.8c-.352.032-.992.064-1.328.064h-5.392v-3.392h4.16c.56,0,.928.032,1.312.048v-1.28c-.352.032-.8.064-1.312.064h-7.616C-60.208-11.3-60.672-11.328-61.1-11.36Zm25.344-1.1-.848.352a18.284,18.284,0,0,1,1.3,2.224l.864-.384A18.464,18.464,0,0,0-35.76-12.464ZM-34-13.1l-.848.352a15.24,15.24,0,0,1,1.328,2.208l.864-.384A18.6,18.6,0,0,0-34-13.1ZM-44.512-4.816A21.016,21.016,0,0,1-46.976-.464l1.36.576a23.2,23.2,0,0,0,2.352-4.4A35.084,35.084,0,0,0-41.808-9.3c.064-.336.192-.8.288-1.152l-1.424-.3A24.389,24.389,0,0,1-44.512-4.816Zm7.872-.608A47.946,47.946,0,0,1-34.832.08l1.424-.464c-.416-1.44-1.264-3.888-1.92-5.472a51.724,51.724,0,0,0-2.336-5.056l-1.3.432A40.917,40.917,0,0,1-36.64-5.424Zm6.016-.352.64,1.248a31.6,31.6,0,0,0,6.1-2.608v5.92A14.842,14.842,0,0,1-23.984.5h1.568a12.074,12.074,0,0,1-.1-1.712V-7.968a26.176,26.176,0,0,0,4.32-3.568l-1.072-.992a19.064,19.064,0,0,1-4.368,3.76A26.449,26.449,0,0,1-30.624-5.776ZM-7.616-.336l.848.7A3.424,3.424,0,0,1-6.224,0,15.906,15.906,0,0,0-.768-4.432L-1.52-5.52A12.294,12.294,0,0,1-6.192-1.584v-9.232A9.9,9.9,0,0,1-6.128-12H-7.6a7.594,7.594,0,0,1,.1,1.184v9.584A3.81,3.81,0,0,1-7.616-.336Zm-7.328-.08,1.2.816A8.942,8.942,0,0,0-10.9-4a35,35,0,0,0,.5-6.8c0-.48.064-.96.08-1.152h-1.472a5.894,5.894,0,0,1,.112,1.168,28.562,28.562,0,0,1-.48,6.432A7.594,7.594,0,0,1-14.944-.416ZM4.9-2.064C4.9-.48,5.44.288,8.416.288a34.4,34.4,0,0,0,5.024-.32L13.5-1.408a25.7,25.7,0,0,1-4.992.464c-1.9,0-2.32-.352-2.32-1.456V-7.168c2.832-.576,5.776-1.168,6.048-1.216A15.065,15.065,0,0,1,9.392-4.576l1.12.672a24.354,24.354,0,0,0,3.28-4.656c.112-.208.272-.48.384-.64l-.944-.736a3.24,3.24,0,0,1-.848.288c-.672.144-3.472.72-6.192,1.248v-2.5A9.122,9.122,0,0,1,6.3-12.368H4.784A8.985,8.985,0,0,1,4.9-10.9V-8.16c-1.7.32-3.216.592-3.936.688L1.2-6.144c.656-.144,2.08-.432,3.7-.768ZM17.632-6.928V-5.36c.5-.048,1.344-.08,2.224-.08H28.64c.72,0,1.392.064,1.712.08V-6.928c-.352.032-.928.08-1.728.08H19.856C18.96-6.848,18.112-6.9,17.632-6.928ZM40.384-.336l.848.7A3.423,3.423,0,0,1,41.776,0a15.906,15.906,0,0,0,5.456-4.432L46.48-5.52a12.294,12.294,0,0,1-4.672,3.936v-9.232A9.9,9.9,0,0,1,41.872-12H40.4a7.594,7.594,0,0,1,.1,1.184v9.584A3.81,3.81,0,0,1,40.384-.336Zm-7.328-.08,1.2.816A8.942,8.942,0,0,0,37.1-4a35,35,0,0,0,.5-6.8c0-.48.064-.96.08-1.152H36.208a5.894,5.894,0,0,1,.112,1.168,28.562,28.562,0,0,1-.48,6.432A7.594,7.594,0,0,1,33.056-.416ZM60.8-10.7l-.816-.624a4.381,4.381,0,0,1-1.2.128H52.608c-.48,0-1.392-.064-1.616-.1V-9.84c.176-.016,1.056-.08,1.616-.08h6.24a14.079,14.079,0,0,1-2.656,4.448A18.3,18.3,0,0,1,49.6-.72L50.624.352a20.284,20.284,0,0,0,6.24-4.672,36.942,36.942,0,0,1,4.4,4.752l1.12-.96a44.384,44.384,0,0,0-4.672-4.784A20.25,20.25,0,0,0,60.4-10,4.59,4.59,0,0,1,60.8-10.7Zm-95.9,38.64c0,1.584.544,2.352,3.52,2.352a34.4,34.4,0,0,0,5.024-.32l.064-1.376a25.7,25.7,0,0,1-4.992.464c-1.9,0-2.32-.352-2.32-1.456V22.832c2.832-.576,5.776-1.168,6.048-1.216a15.065,15.065,0,0,1-2.848,3.808l1.12.672a24.354,24.354,0,0,0,3.28-4.656c.112-.208.272-.48.384-.64l-.944-.736a3.24,3.24,0,0,1-.848.288c-.672.144-3.472.72-6.192,1.248V19.1a9.121,9.121,0,0,1,.112-1.472h-1.52A8.985,8.985,0,0,1-35.1,19.1V21.84c-1.7.32-3.216.592-3.936.688l.24,1.328c.656-.144,2.08-.432,3.7-.768Zm19.7-10.368-1.488-.48a5.479,5.479,0,0,1-.5,1.264,13.19,13.19,0,0,1-5.024,5.408l1.1.832a16.22,16.22,0,0,0,4.064-3.936h5.408a13.154,13.154,0,0,1-2.56,4.992,12.944,12.944,0,0,1-6.384,4.016l1.152,1.04a14.028,14.028,0,0,0,6.368-4.352,15.519,15.519,0,0,0,2.848-5.5A5.028,5.028,0,0,1-10.048,20l-1.072-.656a2.678,2.678,0,0,1-1.04.16H-16.5a7.19,7.19,0,0,0,.384-.672A12.1,12.1,0,0,1-15.408,17.568Zm12.224.144-.72,1.072c.944.544,2.672,1.7,3.44,2.272l.752-1.088C-.4,19.456-2.24,18.24-3.184,17.712Zm-2.4,11.44.736,1.3A19.918,19.918,0,0,0,.464,28.464a18.644,18.644,0,0,0,6.144-5.728L5.84,21.424A16.318,16.318,0,0,1-.224,27.28,17,17,0,0,1-5.584,29.152Zm-.016-7.84L-6.3,22.4a35.07,35.07,0,0,1,3.488,2.192l.736-1.12C-2.784,22.96-4.656,21.824-5.6,21.312Zm17.168-.1v1.248c.288-.016,1.216-.048,1.632-.048h5.936v2.656H13.344c-.544,0-1.12-.032-1.424-.048v1.232c.32-.016.88-.032,1.44-.032h5.776v2.848H12.688a12.18,12.18,0,0,1-1.312-.064v1.28c.256,0,.816-.032,1.328-.032h6.432c0,.256,0,.5-.016.64h1.264c-.016-.224-.032-.608-.032-.864V22.064c0-.3,0-.64.016-.816-.208.016-.624.032-.976.032H13.2C12.784,21.28,11.872,21.248,11.568,21.216Zm16.064-2.944-.912.976A33.23,33.23,0,0,1,30.7,22.592l1.008-1.008A35.036,35.036,0,0,0,27.632,18.272Zm-1.376,10.72L27.1,30.3a17.538,17.538,0,0,0,6.288-2.48,15.986,15.986,0,0,0,5.376-5.7L38,20.768a15.072,15.072,0,0,1-5.344,5.888A16.521,16.521,0,0,1,26.256,28.992Z" transform="translate(453 2828)" fill="#333"/>
    </g>
    <g id="Group_36" data-name="Group 36" transform="translate(431.5 65.5)">
      <path id="Path_45" data-name="Path 45" d="M0,0H160V80H0Z" transform="translate(373 2796)" fill="#f9f1eb"/>
      <path id="Path_44" data-name="Path 44" d="M-64.256-12.9c-.112,2.112-.112,9.744-6.592,13.056a4.049,4.049,0,0,1,.96.912c4.048-2.192,5.7-6.048,6.4-9.248.768,3.2,2.528,7.3,6.656,9.248A3.587,3.587,0,0,1-55.952.1c-6.016-2.752-6.88-10.144-7.024-12.256.016-.272.016-.528.032-.736ZM-47.984-5.44c-.4-.464-2-2.336-2.592-2.976v-.416H-48.4V-9.968h-2.176v-3.424H-51.76v3.424h-2.656v1.136h2.48A15.991,15.991,0,0,1-54.96-2.816,5.264,5.264,0,0,1-54.3-1.7,16.481,16.481,0,0,0-51.76-6.48V1.2h1.184V-6.976c.656.864,1.488,1.984,1.84,2.56Zm7.824-4.512h-1.648V-13.36h-1.216v3.408h-4.768v1.136h4.352a17.584,17.584,0,0,1-5.28,6.544,5.364,5.364,0,0,1,.848.96A19.48,19.48,0,0,0-43.024-7.2V-.384c0,.288-.112.368-.4.384-.3,0-1.328.016-2.368-.016A5.277,5.277,0,0,1-45.36,1.2,9.255,9.255,0,0,0-42.544.96c.528-.176.736-.544.736-1.36V-8.816h1.648Zm3.472-1.024v1.424c.368-.016,1.168-.048,1.76-.048h7.664v7.552H-35.12a16.894,16.894,0,0,1-1.776-.1V-.688c.432-.032,1.152-.064,1.808-.064h7.824c-.016.384-.016.72-.032.9h1.44c-.016-.256-.064-.976-.064-1.552V-9.664c0-.384.032-.88.048-1.248-.32.016-.8.032-1.184.032h-7.888A16.146,16.146,0,0,1-36.688-10.976Zm14.88,4.048V-5.36c.5-.048,1.344-.08,2.224-.08H-10.8c.72,0,1.392.064,1.712.08V-6.928c-.352.032-.928.08-1.728.08h-8.768C-20.48-6.848-21.328-6.9-21.808-6.928ZM-4.192-11.7v1.328c.416-.032.944-.048,1.472-.048H2.8c.464,0,1.024.016,1.488.048V-11.7a11.616,11.616,0,0,1-1.488.1H-2.736A13.9,13.9,0,0,1-4.192-11.7ZM-6.08-7.68v1.328c.432-.032.9-.032,1.376-.032H.1A7.668,7.668,0,0,1-.832-2.416,6.623,6.623,0,0,1-3.856.032l1.184.88A7.887,7.887,0,0,0,.48-2a9.806,9.806,0,0,0,.944-4.384H5.776c.384,0,.9.016,1.248.032V-7.68a8.577,8.577,0,0,1-1.248.08H-4.7A12.261,12.261,0,0,1-6.08-7.68Zm11.2-5.312-.848.352a18.285,18.285,0,0,1,1.3,2.224l.864-.384A18.463,18.463,0,0,0,5.12-12.992Zm1.76-.64-.848.352A15.24,15.24,0,0,1,7.36-11.072l.864-.384A21.043,21.043,0,0,0,6.88-13.632Zm2.512,9.5L10-2.944a30.031,30.031,0,0,0,5.008-2.112v4.9c0,.5-.032,1.152-.064,1.408h1.472a8.433,8.433,0,0,1-.08-1.408v-5.7a19.823,19.823,0,0,0,3.616-2.992l-.992-.96a15.811,15.811,0,0,1-3.808,3.264A21.808,21.808,0,0,1,9.392-4.128Zm22.9-8.688H30.816a9.55,9.55,0,0,1,.08,1.408v1.024H27.76c-.528,0-1.424-.016-1.936-.08V-9.12c.5-.032,1.408-.064,1.968-.064h6.64a13.412,13.412,0,0,1-3.248,2.928,19.972,19.972,0,0,1-6.48,2.72l.768,1.184A25.405,25.405,0,0,0,30.88-4.576c0,1.088-.016,2.56-.016,3.488,0,.56-.048,1.3-.1,1.76h1.456c-.032-.5-.08-1.2-.08-1.76,0-1.072.016-2.992.016-4.3A19.677,19.677,0,0,0,35.776-8.72c.256-.288.608-.656.9-.96l-.832-.8a3.852,3.852,0,0,1-1.008.1h-2.64v-1.024A9.424,9.424,0,0,1,32.288-12.816ZM37.424-2.144l.832-1.088A36.225,36.225,0,0,0,34.4-5.552l-.832.944A28.071,28.071,0,0,1,37.424-2.144Zm3.648-4.784V-5.36c.5-.048,1.344-.08,2.224-.08H52.08c.72,0,1.392.064,1.712.08V-6.928c-.352.032-.928.08-1.728.08H43.3C42.4-6.848,41.552-6.9,41.072-6.928ZM64.016-12.56l-1.456-.464a5.778,5.778,0,0,1-.512,1.264,14.662,14.662,0,0,1-5.136,5.568l1.072.832a17.454,17.454,0,0,0,4.24-4.24h5.408a13.367,13.367,0,0,1-2.176,4.432c-1.12-.784-2.32-1.552-3.376-2.16l-.864.88c1.024.64,2.24,1.472,3.392,2.3A14.036,14.036,0,0,1,58.416-.288L59.568.7a15.183,15.183,0,0,0,6.1-4.064c.656.528,1.264,1.024,1.744,1.456l.944-1.1c-.512-.416-1.152-.912-1.824-1.408a16.105,16.105,0,0,0,2.5-4.976,5.251,5.251,0,0,1,.384-.864l-1.056-.64a3.189,3.189,0,0,1-1.056.16H62.96a5.366,5.366,0,0,0,.336-.576C63.456-11.6,63.744-12.144,64.016-12.56Zm-99.12,40.5c0,1.584.544,2.352,3.52,2.352a34.4,34.4,0,0,0,5.024-.32l.064-1.376a25.7,25.7,0,0,1-4.992.464c-1.9,0-2.32-.352-2.32-1.456V22.832c2.832-.576,5.776-1.168,6.048-1.216a15.065,15.065,0,0,1-2.848,3.808l1.12.672a24.354,24.354,0,0,0,3.28-4.656c.112-.208.272-.48.384-.64l-.944-.736a3.24,3.24,0,0,1-.848.288c-.672.144-3.472.72-6.192,1.248V19.1a9.121,9.121,0,0,1,.112-1.472h-1.52A8.985,8.985,0,0,1-35.1,19.1V21.84c-1.7.32-3.216.592-3.936.688l.24,1.328c.656-.144,2.08-.432,3.7-.768Zm19.7-10.368-1.488-.48a5.479,5.479,0,0,1-.5,1.264,13.19,13.19,0,0,1-5.024,5.408l1.1.832a16.22,16.22,0,0,0,4.064-3.936h5.408a13.154,13.154,0,0,1-2.56,4.992,12.944,12.944,0,0,1-6.384,4.016l1.152,1.04a14.028,14.028,0,0,0,6.368-4.352,15.519,15.519,0,0,0,2.848-5.5A5.028,5.028,0,0,1-10.048,20l-1.072-.656a2.678,2.678,0,0,1-1.04.16H-16.5a7.19,7.19,0,0,0,.384-.672A12.1,12.1,0,0,1-15.408,17.568Zm12.224.144-.72,1.072c.944.544,2.672,1.7,3.44,2.272l.752-1.088C-.4,19.456-2.24,18.24-3.184,17.712Zm-2.4,11.44.736,1.3A19.918,19.918,0,0,0,.464,28.464a18.644,18.644,0,0,0,6.144-5.728L5.84,21.424A16.318,16.318,0,0,1-.224,27.28,17,17,0,0,1-5.584,29.152Zm-.016-7.84L-6.3,22.4a35.07,35.07,0,0,1,3.488,2.192l.736-1.12C-2.784,22.96-4.656,21.824-5.6,21.312Zm17.168-.1v1.248c.288-.016,1.216-.048,1.632-.048h5.936v2.656H13.344c-.544,0-1.12-.032-1.424-.048v1.232c.32-.016.88-.032,1.44-.032h5.776v2.848H12.688a12.18,12.18,0,0,1-1.312-.064v1.28c.256,0,.816-.032,1.328-.032h6.432c0,.256,0,.5-.016.64h1.264c-.016-.224-.032-.608-.032-.864V22.064c0-.3,0-.64.016-.816-.208.016-.624.032-.976.032H13.2C12.784,21.28,11.872,21.248,11.568,21.216Zm16.064-2.944-.912.976A33.23,33.23,0,0,1,30.7,22.592l1.008-1.008A35.036,35.036,0,0,0,27.632,18.272Zm-1.376,10.72L27.1,30.3a17.538,17.538,0,0,0,6.288-2.48,15.986,15.986,0,0,0,5.376-5.7L38,20.768a15.072,15.072,0,0,1-5.344,5.888A16.521,16.521,0,0,1,26.256,28.992Z" transform="translate(453 2828)" fill="#333"/>
    </g>
    <g id="Group_37" data-name="Group 37" transform="translate(622.5 65.5)">
      <path id="Path_47" data-name="Path 47" d="M0,0H160V80H0Z" transform="translate(373 2796)" fill="#f9f1eb"/>
      <path id="Path_46" data-name="Path 46" d="M-25.856-11.808v1.232h-3.5v-1.232Zm-3.5,3.376V-9.76h3.5v1.328Zm4.624.88V-12.7h-5.792V1.232h1.168V-7.552Zm2.544-.848V-9.76h3.632V-8.4Zm3.632-3.408v1.232h-3.632v-1.232Zm1.168-.9h-5.936v5.168h4.768V-.208c0,.224-.064.3-.272.3-.192.016-.816.016-1.488-.016a3.9,3.9,0,0,1,.464-.528,4.993,4.993,0,0,1-3.5-2.24h3.52V-3.6h-3.776V-4.848h3.5v-.9H-22c.256-.384.544-.848.816-1.28l-1.072-.352a11.482,11.482,0,0,1-.768,1.632H-25.1a5.106,5.106,0,0,0-.864-1.6l-.928.3a5.444,5.444,0,0,1,.72,1.3h-1.712v.9h3.216V-3.6H-28.16v.912h3.312c-.32.832-1.2,1.744-3.456,2.368a4.59,4.59,0,0,1,.7.8c2.128-.656,3.136-1.552,3.6-2.448a5.7,5.7,0,0,0,3.472,2.4,1.7,1.7,0,0,1,.16-.272,3.973,3.973,0,0,1,.32,1.056,5.684,5.684,0,0,0,2.1-.208c.432-.208.56-.56.56-1.2Zm5.04,6.64H-8.64v1.552h-3.712Zm0-2.4H-8.64v1.52h-3.712Zm8.848,0v1.52H-7.44v-1.52Zm0,3.952H-7.44V-6.064H-3.5Zm1.2.928V-9.408H-7.44v-1.344h6.416v-1.12H-7.44v-1.5h-1.2v1.5H-14.9v1.12H-8.64v1.344H-13.5v5.824h3.872A15.442,15.442,0,0,1-15.3-.016a4.894,4.894,0,0,1,.832.992A16.758,16.758,0,0,0-8.64-3.088v4.3h1.2V-3.136A16.955,16.955,0,0,0-1.488,1.008,3.963,3.963,0,0,1-.656-.016,15.47,15.47,0,0,1-6.432-3.584ZM3.68-11.04A10.038,10.038,0,0,1,4.4-9.168l1.024-.416a8,8,0,0,0-.576-1.456H7.776V-12H3.584A10.769,10.769,0,0,0,4.1-13.168l-1.12-.288a9.865,9.865,0,0,1-2.4,3.744,7.931,7.931,0,0,1,.976.64,11.752,11.752,0,0,0,1.5-1.968ZM7.424-5.408v1.472H3.488c.112-.48.24-.976.352-1.472ZM8.56-8.032h4v1.616h-4Zm0,4.1V-5.408h5.168V-9.04H2.112v1.008H7.424v1.616H2.9C2.64-5.168,2.224-3.568,1.9-2.544l1.152.176c.048-.16.1-.352.16-.544H6.368A15.44,15.44,0,0,1,.752.016,5.267,5.267,0,0,1,1.5.96a15.77,15.77,0,0,0,5.92-3.5v3.76H8.56V-2.912h4.816a4.694,4.694,0,0,1-.56,2.288c-.128.112-.288.112-.56.112-.288,0-1.04,0-1.824-.064a2.385,2.385,0,0,1,.32,1.088c.832.032,1.6.032,2.016,0A1.338,1.338,0,0,0,13.776.128c.4-.4.624-1.376.848-3.584.016-.176.032-.48.032-.48ZM9.824-12a11.018,11.018,0,0,0,.544-1.168l-1.136-.288A8.465,8.465,0,0,1,6.64-9.824a6.107,6.107,0,0,1,.96.688,10.233,10.233,0,0,0,1.648-1.9h1.136a8.257,8.257,0,0,1,1.136,1.9l1.04-.416a7.954,7.954,0,0,0-.912-1.488H15.2V-12Zm6.944,5.12v1.3H31.3v-1.3ZM-35.1,27.936c0,1.584.544,2.352,3.52,2.352a34.4,34.4,0,0,0,5.024-.32l.064-1.376a25.7,25.7,0,0,1-4.992.464c-1.9,0-2.32-.352-2.32-1.456V22.832c2.832-.576,5.776-1.168,6.048-1.216a15.065,15.065,0,0,1-2.848,3.808l1.12.672a24.354,24.354,0,0,0,3.28-4.656c.112-.208.272-.48.384-.64l-.944-.736a3.24,3.24,0,0,1-.848.288c-.672.144-3.472.72-6.192,1.248V19.1a9.121,9.121,0,0,1,.112-1.472h-1.52A8.985,8.985,0,0,1-35.1,19.1V21.84c-1.7.32-3.216.592-3.936.688l.24,1.328c.656-.144,2.08-.432,3.7-.768Zm19.7-10.368-1.488-.48a5.479,5.479,0,0,1-.5,1.264,13.19,13.19,0,0,1-5.024,5.408l1.1.832a16.22,16.22,0,0,0,4.064-3.936h5.408a13.154,13.154,0,0,1-2.56,4.992,12.944,12.944,0,0,1-6.384,4.016l1.152,1.04a14.028,14.028,0,0,0,6.368-4.352,15.519,15.519,0,0,0,2.848-5.5A5.028,5.028,0,0,1-10.048,20l-1.072-.656a2.678,2.678,0,0,1-1.04.16H-16.5a7.19,7.19,0,0,0,.384-.672A12.1,12.1,0,0,1-15.408,17.568Zm12.224.144-.72,1.072c.944.544,2.672,1.7,3.44,2.272l.752-1.088C-.4,19.456-2.24,18.24-3.184,17.712Zm-2.4,11.44.736,1.3A19.918,19.918,0,0,0,.464,28.464a18.644,18.644,0,0,0,6.144-5.728L5.84,21.424A16.318,16.318,0,0,1-.224,27.28,17,17,0,0,1-5.584,29.152Zm-.016-7.84L-6.3,22.4a35.07,35.07,0,0,1,3.488,2.192l.736-1.12C-2.784,22.96-4.656,21.824-5.6,21.312Zm17.168-.1v1.248c.288-.016,1.216-.048,1.632-.048h5.936v2.656H13.344c-.544,0-1.12-.032-1.424-.048v1.232c.32-.016.88-.032,1.44-.032h5.776v2.848H12.688a12.18,12.18,0,0,1-1.312-.064v1.28c.256,0,.816-.032,1.328-.032h6.432c0,.256,0,.5-.016.64h1.264c-.016-.224-.032-.608-.032-.864V22.064c0-.3,0-.64.016-.816-.208.016-.624.032-.976.032H13.2C12.784,21.28,11.872,21.248,11.568,21.216Zm16.064-2.944-.912.976A33.23,33.23,0,0,1,30.7,22.592l1.008-1.008A35.036,35.036,0,0,0,27.632,18.272Zm-1.376,10.72L27.1,30.3a17.538,17.538,0,0,0,6.288-2.48,15.986,15.986,0,0,0,5.376-5.7L38,20.768a15.072,15.072,0,0,1-5.344,5.888A16.521,16.521,0,0,1,26.256,28.992Z" transform="translate(453 2828)" fill="#333"/>
    </g>
    <g id="Group_38" data-name="Group 38" transform="translate(797.5 65.5)">
      <path id="Path_49" data-name="Path 49" d="M0,0H160V80H0Z" transform="translate(373 2796)" fill="#f9f1eb"/>
      <path id="Path_48" data-name="Path 48" d="M-25.856-11.808v1.232h-3.5v-1.232Zm-3.5,3.376V-9.76h3.5v1.328Zm4.624.88V-12.7h-5.792V1.232h1.168V-7.552Zm2.544-.848V-9.76h3.632V-8.4Zm3.632-3.408v1.232h-3.632v-1.232Zm1.168-.9h-5.936v5.168h4.768V-.208c0,.224-.064.3-.272.3-.192.016-.816.016-1.488-.016a3.9,3.9,0,0,1,.464-.528,4.993,4.993,0,0,1-3.5-2.24h3.52V-3.6h-3.776V-4.848h3.5v-.9H-22c.256-.384.544-.848.816-1.28l-1.072-.352a11.482,11.482,0,0,1-.768,1.632H-25.1a5.106,5.106,0,0,0-.864-1.6l-.928.3a5.444,5.444,0,0,1,.72,1.3h-1.712v.9h3.216V-3.6H-28.16v.912h3.312c-.32.832-1.2,1.744-3.456,2.368a4.59,4.59,0,0,1,.7.8c2.128-.656,3.136-1.552,3.6-2.448a5.7,5.7,0,0,0,3.472,2.4,1.7,1.7,0,0,1,.16-.272,3.973,3.973,0,0,1,.32,1.056,5.684,5.684,0,0,0,2.1-.208c.432-.208.56-.56.56-1.2Zm5.04,6.64H-8.64v1.552h-3.712Zm0-2.4H-8.64v1.52h-3.712Zm8.848,0v1.52H-7.44v-1.52Zm0,3.952H-7.44V-6.064H-3.5Zm1.2.928V-9.408H-7.44v-1.344h6.416v-1.12H-7.44v-1.5h-1.2v1.5H-14.9v1.12H-8.64v1.344H-13.5v5.824h3.872A15.442,15.442,0,0,1-15.3-.016a4.894,4.894,0,0,1,.832.992A16.758,16.758,0,0,0-8.64-3.088v4.3h1.2V-3.136A16.955,16.955,0,0,0-1.488,1.008,3.963,3.963,0,0,1-.656-.016,15.47,15.47,0,0,1-6.432-3.584ZM3.68-11.04A10.038,10.038,0,0,1,4.4-9.168l1.024-.416a8,8,0,0,0-.576-1.456H7.776V-12H3.584A10.769,10.769,0,0,0,4.1-13.168l-1.12-.288a9.865,9.865,0,0,1-2.4,3.744,7.931,7.931,0,0,1,.976.64,11.752,11.752,0,0,0,1.5-1.968ZM7.424-5.408v1.472H3.488c.112-.48.24-.976.352-1.472ZM8.56-8.032h4v1.616h-4Zm0,4.1V-5.408h5.168V-9.04H2.112v1.008H7.424v1.616H2.9C2.64-5.168,2.224-3.568,1.9-2.544l1.152.176c.048-.16.1-.352.16-.544H6.368A15.44,15.44,0,0,1,.752.016,5.267,5.267,0,0,1,1.5.96a15.77,15.77,0,0,0,5.92-3.5v3.76H8.56V-2.912h4.816a4.694,4.694,0,0,1-.56,2.288c-.128.112-.288.112-.56.112-.288,0-1.04,0-1.824-.064a2.385,2.385,0,0,1,.32,1.088c.832.032,1.6.032,2.016,0A1.338,1.338,0,0,0,13.776.128c.4-.4.624-1.376.848-3.584.016-.176.032-.48.032-.48ZM9.824-12a11.018,11.018,0,0,0,.544-1.168l-1.136-.288A8.465,8.465,0,0,1,6.64-9.824a6.107,6.107,0,0,1,.96.688,10.233,10.233,0,0,0,1.648-1.9h1.136a8.257,8.257,0,0,1,1.136,1.9l1.04-.416a7.954,7.954,0,0,0-.912-1.488H15.2V-12Zm8.48.912v1.264H29.712v-1.264ZM16.96-1.664v1.3h14.1v-1.3ZM-35.1,27.936c0,1.584.544,2.352,3.52,2.352a34.4,34.4,0,0,0,5.024-.32l.064-1.376a25.7,25.7,0,0,1-4.992.464c-1.9,0-2.32-.352-2.32-1.456V22.832c2.832-.576,5.776-1.168,6.048-1.216a15.065,15.065,0,0,1-2.848,3.808l1.12.672a24.354,24.354,0,0,0,3.28-4.656c.112-.208.272-.48.384-.64l-.944-.736a3.24,3.24,0,0,1-.848.288c-.672.144-3.472.72-6.192,1.248V19.1a9.121,9.121,0,0,1,.112-1.472h-1.52A8.985,8.985,0,0,1-35.1,19.1V21.84c-1.7.32-3.216.592-3.936.688l.24,1.328c.656-.144,2.08-.432,3.7-.768Zm19.7-10.368-1.488-.48a5.479,5.479,0,0,1-.5,1.264,13.19,13.19,0,0,1-5.024,5.408l1.1.832a16.22,16.22,0,0,0,4.064-3.936h5.408a13.154,13.154,0,0,1-2.56,4.992,12.944,12.944,0,0,1-6.384,4.016l1.152,1.04a14.028,14.028,0,0,0,6.368-4.352,15.519,15.519,0,0,0,2.848-5.5A5.028,5.028,0,0,1-10.048,20l-1.072-.656a2.678,2.678,0,0,1-1.04.16H-16.5a7.19,7.19,0,0,0,.384-.672A12.1,12.1,0,0,1-15.408,17.568Zm12.224.144-.72,1.072c.944.544,2.672,1.7,3.44,2.272l.752-1.088C-.4,19.456-2.24,18.24-3.184,17.712Zm-2.4,11.44.736,1.3A19.918,19.918,0,0,0,.464,28.464a18.644,18.644,0,0,0,6.144-5.728L5.84,21.424A16.318,16.318,0,0,1-.224,27.28,17,17,0,0,1-5.584,29.152Zm-.016-7.84L-6.3,22.4a35.07,35.07,0,0,1,3.488,2.192l.736-1.12C-2.784,22.96-4.656,21.824-5.6,21.312Zm17.168-.1v1.248c.288-.016,1.216-.048,1.632-.048h5.936v2.656H13.344c-.544,0-1.12-.032-1.424-.048v1.232c.32-.016.88-.032,1.44-.032h5.776v2.848H12.688a12.18,12.18,0,0,1-1.312-.064v1.28c.256,0,.816-.032,1.328-.032h6.432c0,.256,0,.5-.016.64h1.264c-.016-.224-.032-.608-.032-.864V22.064c0-.3,0-.64.016-.816-.208.016-.624.032-.976.032H13.2C12.784,21.28,11.872,21.248,11.568,21.216Zm16.064-2.944-.912.976A33.23,33.23,0,0,1,30.7,22.592l1.008-1.008A35.036,35.036,0,0,0,27.632,18.272Zm-1.376,10.72L27.1,30.3a17.538,17.538,0,0,0,6.288-2.48,15.986,15.986,0,0,0,5.376-5.7L38,20.768a15.072,15.072,0,0,1-5.344,5.888A16.521,16.521,0,0,1,26.256,28.992Z" transform="translate(453 2828)" fill="#333"/>
    </g>
    <g id="Group_39" data-name="Group 39" transform="translate(996 66)">
      <path id="Path_51" data-name="Path 51" d="M0,0H160V80H0Z" transform="translate(373 2796)" fill="#f9f1eb"/>
      <path id="Path_50" data-name="Path 50" d="M-35.984-12.992l-.848.352a18.285,18.285,0,0,1,1.3,2.224l.864-.384A20.889,20.889,0,0,0-35.984-12.992Zm1.76-.64-.848.352a16.821,16.821,0,0,1,1.328,2.208l.864-.384A21.043,21.043,0,0,0-34.224-13.632Zm-7.808,2.592c.048.192.176.832.352,1.7-1.5.24-2.9.448-3.52.512-.512.048-.944.08-1.344.112l.288,1.424c.464-.112.848-.192,1.28-.272.624-.112,2.016-.336,3.536-.576.192.992.416,2.128.624,3.216-1.824.288-3.568.56-4.368.672-.416.064-1.024.128-1.408.144L-46.3-2.7c.352-.1.8-.192,1.424-.3.768-.144,2.48-.416,4.3-.72.3,1.584.544,2.88.608,3.232.112.464.16.96.24,1.5l1.472-.272c-.16-.464-.288-1.008-.4-1.456-.08-.368-.336-1.648-.656-3.216,1.568-.256,3.072-.5,3.952-.624.592-.1,1.1-.192,1.44-.224l-.272-1.344c-.336.1-.8.192-1.408.32-.8.144-2.336.4-3.952.672-.208-1.088-.432-2.208-.624-3.2,1.52-.256,2.992-.48,3.712-.592.432-.064.912-.144,1.152-.16l-.256-1.344a11,11,0,0,1-1.152.256c-.672.128-2.144.384-3.7.64-.176-.912-.3-1.552-.32-1.728-.064-.352-.128-.816-.16-1.1l-1.424.24A8.922,8.922,0,0,1-42.032-11.04Zm24.928.224-.784-.752a7.9,7.9,0,0,1-1.12.1h-9.184a13.578,13.578,0,0,1-1.824-.144v1.456a17.878,17.878,0,0,1,1.824-.1h9.12a10.869,10.869,0,0,1-3.5,3.584l1.056.848a15.426,15.426,0,0,0,3.984-4.416C-17.424-10.416-17.216-10.656-17.1-10.816ZM-23.488-8.7h-1.44a9.619,9.619,0,0,1,.064,1.152c0,2.672-.352,4.944-2.832,6.464a5.511,5.511,0,0,1-1.44.72l1.184.96C-23.872-1.44-23.488-4.368-23.488-8.7ZM-4.48-7.344V-7.92h1.76c.7,0,1.3.032,1.472.048V-9.216a11.764,11.764,0,0,1-1.472.08H-4.48v-2a12.13,12.13,0,0,1,.08-1.312H-5.84a8.92,8.92,0,0,1,.08,1.312v2h-4.56v-2.048a9.876,9.876,0,0,1,.08-1.168h-1.424a9.881,9.881,0,0,1,.064,1.168v2.048h-1.728a11.73,11.73,0,0,1-1.6-.112v1.392c.192-.016.912-.064,1.6-.064H-11.6v2.592c0,.608-.048,1.3-.064,1.456h1.408c-.016-.16-.064-.864-.064-1.456V-7.92h4.56v.672c0,4.48-1.456,5.856-4.368,6.976L-9.056.736C-5.392-.9-4.48-3.088-4.48-7.344ZM12.1-13.3l-.88.368a19.682,19.682,0,0,1,1.168,1.92,3.476,3.476,0,0,1-.688.048H3.68a12.146,12.146,0,0,1-1.6-.112v1.424c.4-.016.96-.048,1.584-.048h8.192A12.173,12.173,0,0,1,9.76-4.48,10.586,10.586,0,0,1,3.52-.64L4.608.56a12.248,12.248,0,0,0,6.3-4.272,15.9,15.9,0,0,0,2.384-5.9,3.159,3.159,0,0,1,.24-.8l-.784-.5.608-.272C13.04-11.792,12.464-12.752,12.1-13.3Zm2.048-.416-.88.368a17.6,17.6,0,0,1,1.312,2.128l.88-.384A23.4,23.4,0,0,0,14.144-13.712ZM28.8-10.7l-.816-.624a4.381,4.381,0,0,1-1.2.128H20.608c-.48,0-1.392-.064-1.616-.1V-9.84c.176-.016,1.056-.08,1.616-.08h6.24a14.079,14.079,0,0,1-2.656,4.448A18.3,18.3,0,0,1,17.6-.72L18.624.352a20.284,20.284,0,0,0,6.24-4.672,36.942,36.942,0,0,1,4.4,4.752l1.12-.96a44.383,44.383,0,0,0-4.672-4.784A20.25,20.25,0,0,0,28.4-10,4.59,4.59,0,0,1,28.8-10.7Zm11.792-1.728-1.488-.48a5.479,5.479,0,0,1-.5,1.264A13.19,13.19,0,0,1,33.584-6.24l1.1.832a16.22,16.22,0,0,0,4.064-3.936H44.16A13.154,13.154,0,0,1,41.6-4.352,12.944,12.944,0,0,1,35.216-.336L36.368.7a14.028,14.028,0,0,0,6.368-4.352,15.519,15.519,0,0,0,2.848-5.5A5.028,5.028,0,0,1,45.952-10l-1.072-.656a2.678,2.678,0,0,1-1.04.16H39.5a7.19,7.19,0,0,0,.384-.672A12.1,12.1,0,0,1,40.592-12.432ZM-35.1,27.936c0,1.584.544,2.352,3.52,2.352a34.4,34.4,0,0,0,5.024-.32l.064-1.376a25.7,25.7,0,0,1-4.992.464c-1.9,0-2.32-.352-2.32-1.456V22.832c2.832-.576,5.776-1.168,6.048-1.216a15.065,15.065,0,0,1-2.848,3.808l1.12.672a24.354,24.354,0,0,0,3.28-4.656c.112-.208.272-.48.384-.64l-.944-.736a3.24,3.24,0,0,1-.848.288c-.672.144-3.472.72-6.192,1.248V19.1a9.121,9.121,0,0,1,.112-1.472h-1.52A8.985,8.985,0,0,1-35.1,19.1V21.84c-1.7.32-3.216.592-3.936.688l.24,1.328c.656-.144,2.08-.432,3.7-.768Zm19.7-10.368-1.488-.48a5.479,5.479,0,0,1-.5,1.264,13.19,13.19,0,0,1-5.024,5.408l1.1.832a16.22,16.22,0,0,0,4.064-3.936h5.408a13.154,13.154,0,0,1-2.56,4.992,12.944,12.944,0,0,1-6.384,4.016l1.152,1.04a14.028,14.028,0,0,0,6.368-4.352,15.519,15.519,0,0,0,2.848-5.5A5.028,5.028,0,0,1-10.048,20l-1.072-.656a2.678,2.678,0,0,1-1.04.16H-16.5a7.19,7.19,0,0,0,.384-.672A12.1,12.1,0,0,1-15.408,17.568Zm12.224.144-.72,1.072c.944.544,2.672,1.7,3.44,2.272l.752-1.088C-.4,19.456-2.24,18.24-3.184,17.712Zm-2.4,11.44.736,1.3A19.918,19.918,0,0,0,.464,28.464a18.644,18.644,0,0,0,6.144-5.728L5.84,21.424A16.318,16.318,0,0,1-.224,27.28,17,17,0,0,1-5.584,29.152Zm-.016-7.84L-6.3,22.4a35.07,35.07,0,0,1,3.488,2.192l.736-1.12C-2.784,22.96-4.656,21.824-5.6,21.312Zm17.168-.1v1.248c.288-.016,1.216-.048,1.632-.048h5.936v2.656H13.344c-.544,0-1.12-.032-1.424-.048v1.232c.32-.016.88-.032,1.44-.032h5.776v2.848H12.688a12.18,12.18,0,0,1-1.312-.064v1.28c.256,0,.816-.032,1.328-.032h6.432c0,.256,0,.5-.016.64h1.264c-.016-.224-.032-.608-.032-.864V22.064c0-.3,0-.64.016-.816-.208.016-.624.032-.976.032H13.2C12.784,21.28,11.872,21.248,11.568,21.216Zm16.064-2.944-.912.976A33.23,33.23,0,0,1,30.7,22.592l1.008-1.008A35.036,35.036,0,0,0,27.632,18.272Zm-1.376,10.72L27.1,30.3a17.538,17.538,0,0,0,6.288-2.48,15.986,15.986,0,0,0,5.376-5.7L38,20.768a15.072,15.072,0,0,1-5.344,5.888A16.521,16.521,0,0,1,26.256,28.992Z" transform="translate(453 2828)" fill="#333"/>
    </g>
    <g id="Group_30" data-name="Group 30" transform="translate(316 -89)">
      <path id="Path_35" data-name="Path 35" d="M0,0H222V80H0Z" transform="translate(370 2796)" fill="#f9f1eb"/>
      <path id="Path_34" data-name="Path 34" d="M-66.5-12.3h-1.488a7.792,7.792,0,0,1,.1,1.3v8.8c0,1.3.688,1.856,1.9,2.08a17.039,17.039,0,0,0,2.576.16A44.735,44.735,0,0,0-57.872-.3V-1.76a26.293,26.293,0,0,1-5.472.512,15.458,15.458,0,0,1-2.128-.128c-.768-.16-1.12-.368-1.12-1.184V-6.08a64.692,64.692,0,0,0,6.72-2.144c.48-.176,1.056-.432,1.52-.624l-.56-1.3a10.758,10.758,0,0,1-1.408.736,44.966,44.966,0,0,1-6.272,2.016v-3.616A10.458,10.458,0,0,1-66.5-12.3Zm22.688,4.688-.976-.464a2.747,2.747,0,0,1-.8.112h-4.864a10.924,10.924,0,0,1-1.264-.1V-6.72c.4-.016.816-.048,1.28-.048h5.088c-.048.912-.512,4.032-.752,5.376h-5.792c-.48,0-.944-.032-1.328-.064V-.128c.464-.032.832-.048,1.328-.048h8.768c.336,0,.928.016,1.216.032v-1.3c-.336.032-.912.048-1.264.048h-1.568c.224-1.472.688-4.64.816-5.728A3.559,3.559,0,0,1-43.808-7.616Zm5.84.688V-5.36c.5-.048,1.344-.08,2.224-.08h8.784c.72,0,1.392.064,1.712.08V-6.928c-.352.032-.928.08-1.728.08h-8.768C-36.64-6.848-37.488-6.9-37.968-6.928Zm29.232-3.216-1.008-.816a3.37,3.37,0,0,1-1.04.128H-20.32a12.3,12.3,0,0,1-1.632-.128v1.44c.32-.032,1.008-.1,1.632-.1h9.408A19.622,19.622,0,0,1-15.9-4.064c-1.088-.976-2.4-2.048-2.992-2.48l-1.04.848a37.754,37.754,0,0,1,3.664,3.152A38.382,38.382,0,0,1-13.392.72l1.168-.928C-12.864-.992-14-2.192-14.96-3.152a25.045,25.045,0,0,0,5.824-6.5A4.531,4.531,0,0,1-8.736-10.144Zm4.768-1.584-.912.976A33.23,33.23,0,0,1-.9-7.408L.112-8.416A35.036,35.036,0,0,0-3.968-11.728ZM-5.344-1.008-4.5.3a17.538,17.538,0,0,0,6.288-2.48,15.986,15.986,0,0,0,5.376-5.7L6.4-9.232A15.072,15.072,0,0,1,1.056-3.344,16.521,16.521,0,0,1-5.344-1.008Zm26.16-11.136h-1.5a11.478,11.478,0,0,1,.08,1.392v2.528c0,3.024-.192,4.32-1.328,5.648A7.335,7.335,0,0,1,14.24-.448l1.04,1.1A8.546,8.546,0,0,0,19.088-1.68c1.152-1.376,1.68-2.64,1.68-6.48v-2.592C20.768-11.3,20.784-11.744,20.816-12.144Zm-7.424.128H11.936c.032.3.064.864.064,1.152v5.328A10.487,10.487,0,0,1,11.92-4.3h1.472c-.032-.288-.064-.816-.064-1.216v-5.344C13.328-11.248,13.36-11.712,13.392-12.016ZM28.624-.576l1.2,1.008A13.316,13.316,0,0,0,35.488-4.5a16.416,16.416,0,0,0,2.192-5.712c.064-.288.192-.848.32-1.264L36.4-11.7a6.943,6.943,0,0,1-.128,1.312,13.2,13.2,0,0,1-2,5.216A12.29,12.29,0,0,1,28.624-.576ZM27.648-11.5l-1.264.64A43,43,0,0,1,29.056-6.24l1.28-.72C29.76-8,28.352-10.464,27.648-11.5ZM42.032-6.928V-5.36c.5-.048,1.344-.08,2.224-.08H53.04c.72,0,1.392.064,1.712.08V-6.928c-.352.032-.928.08-1.728.08H44.256C43.36-6.848,42.512-6.9,42.032-6.928ZM68.4-10.7l-.816-.624a4.381,4.381,0,0,1-1.2.128H60.208c-.48,0-1.392-.064-1.616-.1V-9.84c.176-.016,1.056-.08,1.616-.08h6.24a14.079,14.079,0,0,1-2.656,4.448A18.3,18.3,0,0,1,57.2-.72L58.224.352a20.284,20.284,0,0,0,6.24-4.672,36.942,36.942,0,0,1,4.4,4.752l1.12-.96a44.384,44.384,0,0,0-4.672-4.784A20.25,20.25,0,0,0,68-10,4.59,4.59,0,0,1,68.4-10.7ZM-84.768,19.024v1.424c.368-.016,1.168-.048,1.76-.048h7.664v7.552H-83.2a16.894,16.894,0,0,1-1.776-.1v1.456c.432-.032,1.152-.064,1.808-.064h7.824c-.016.384-.016.72-.032.9h1.44c-.016-.256-.064-.976-.064-1.552V20.336c0-.384.032-.88.048-1.248-.32.016-.8.032-1.184.032h-7.888A16.146,16.146,0,0,1-84.768,19.024Zm16.88-.752-.912.976a33.23,33.23,0,0,1,3.984,3.344l1.008-1.008A35.036,35.036,0,0,0-67.888,18.272Zm-1.376,10.72.848,1.312a17.538,17.538,0,0,0,6.288-2.48,15.986,15.986,0,0,0,5.376-5.7l-.768-1.36a15.072,15.072,0,0,1-5.344,5.888A16.521,16.521,0,0,1-69.264,28.992ZM-44,22.656V22.08h1.76c.7,0,1.3.032,1.472.048V20.784a11.764,11.764,0,0,1-1.472.08H-44v-2a12.131,12.131,0,0,1,.08-1.312h-1.44a8.92,8.92,0,0,1,.08,1.312v2h-4.56V18.816a9.875,9.875,0,0,1,.08-1.168h-1.424a9.881,9.881,0,0,1,.064,1.168v2.048h-1.728a11.73,11.73,0,0,1-1.6-.112v1.392c.192-.016.912-.064,1.6-.064h1.728v2.592c0,.608-.048,1.3-.064,1.456h1.408c-.016-.16-.064-.864-.064-1.456V22.08h4.56v.672c0,4.48-1.456,5.856-4.368,6.976l1.072,1.008C-44.912,29.1-44,26.912-44,22.656Zm12.864,7.008.848.7A3.423,3.423,0,0,1-29.744,30a15.906,15.906,0,0,0,5.456-4.432l-.752-1.088a12.294,12.294,0,0,1-4.672,3.936V19.184A9.9,9.9,0,0,1-29.648,18H-31.12a7.594,7.594,0,0,1,.1,1.184v9.584A3.81,3.81,0,0,1-31.136,29.664Zm-7.328-.08,1.2.816A8.942,8.942,0,0,0-34.416,26a35,35,0,0,0,.5-6.8c0-.48.064-.96.08-1.152h-1.472a5.894,5.894,0,0,1,.112,1.168,28.562,28.562,0,0,1-.48,6.432A7.594,7.594,0,0,1-38.464,29.584ZM-20.08,18.16v1.328c.4-.032.928-.048,1.456-.048h6.464c.464,0,1.024.016,1.488.048V18.16a11.805,11.805,0,0,1-1.488.1h-6.48A13.309,13.309,0,0,1-20.08,18.16ZM-22,22.176V23.5c.448-.032.912-.032,1.392-.032h4.8a7.746,7.746,0,0,1-.928,3.968,6.623,6.623,0,0,1-3.024,2.448l1.184.88a7.808,7.808,0,0,0,3.152-2.928,9.685,9.685,0,0,0,.944-4.368h4.352c.384,0,.9.016,1.248.032V22.176a8.577,8.577,0,0,1-1.248.08h-10.48A12.79,12.79,0,0,1-22,22.176Zm15.472,3.7.608,1.184A30.031,30.031,0,0,0-.912,24.944v4.9c0,.5-.032,1.152-.064,1.408H.5a8.433,8.433,0,0,1-.08-1.408v-5.7a19.823,19.823,0,0,0,3.616-2.992l-.992-.96A15.811,15.811,0,0,1-.768,23.456,21.808,21.808,0,0,1-6.528,25.872Zm17.68-7.6-.912.976a33.23,33.23,0,0,1,3.984,3.344l1.008-1.008A35.036,35.036,0,0,0,11.152,18.272ZM9.776,28.992l.848,1.312a17.538,17.538,0,0,0,6.288-2.48,15.986,15.986,0,0,0,5.376-5.7l-.768-1.36a15.072,15.072,0,0,1-5.344,5.888A16.521,16.521,0,0,1,9.776,28.992ZM35.76,17.2l-.848.368a18.1,18.1,0,0,1,1.3,2.208l.864-.384A22.677,22.677,0,0,0,35.76,17.2Zm1.76-.64-.848.368A16.629,16.629,0,0,1,38,19.12l.864-.384A22.893,22.893,0,0,0,37.52,16.56Zm-6.064,1.408-1.472-.5a5.934,5.934,0,0,1-.5,1.28,13.4,13.4,0,0,1-5.024,5.408l1.1.816a15.439,15.439,0,0,0,4.064-3.936h5.392a12.991,12.991,0,0,1-2.544,4.992,12.814,12.814,0,0,1-6.4,4.016L27.248,31.1a14.242,14.242,0,0,0,6.368-4.352,15.65,15.65,0,0,0,2.832-5.52,5.027,5.027,0,0,1,.368-.848l-1.056-.64a3.064,3.064,0,0,1-1.04.144H30.384c.128-.224.256-.448.368-.672C30.912,18.928,31.2,18.384,31.456,17.968ZM51.9,27.888h-3.84v-1.2H51.9Zm-3.84-3.264H51.9v1.12h-3.84ZM43.44,21.792V20.64h3.44v1.152Zm8.208-1.152v1.152H48.064V20.64Zm3.088,5.1H53.088v-2H48.064v-1.12h4.768V19.808H48.064V18.88h6.368V17.9H48.064v-1.28H46.88V17.9H40.64v.976h6.24v.928H42.3v2.816H46.88v1.12H41.856v.88H46.88v1.12H40.336v.944H46.88v1.2H41.712V28.8H46.88v1.1c0,.272-.1.368-.4.384-.272,0-1.232.016-2.192-.016A3.945,3.945,0,0,1,44.7,31.28a9.553,9.553,0,0,0,2.656-.192c.48-.176.7-.448.7-1.184V28.8H51.9v.72h1.184V26.688h1.648ZM65.9,20.464a14.628,14.628,0,0,1-.816,1.664l.16.048h-3.76L62,22.064a6.779,6.779,0,0,0-.8-1.6Zm4.592,6.96V26.416H64.08V25.232h5.008V24.32H64.08V23.152h5.792v-.976H66.24c.32-.48.672-1.1.992-1.712h3.2V19.44h-2.48a22.373,22.373,0,0,0,1.408-2.3l-1.216-.32a18.153,18.153,0,0,1-1.216,2.432l.592.192H65.584V16.608h-1.12V19.44h-1.9V16.608h-1.1V19.44H59.488l.816-.3a11.028,11.028,0,0,0-1.36-2.352l-1.008.336A12.472,12.472,0,0,1,59.2,19.44H56.656v1.024h3.9l-.56.112a6.718,6.718,0,0,1,.784,1.6H57.3v.976h5.616V24.32H58.1v.912h4.816v1.184h-6.32v1.008h5.232a15.42,15.42,0,0,1-5.648,2.528,5.1,5.1,0,0,1,.768,1.008,16.079,16.079,0,0,0,5.968-3.152v3.408H64.08V27.728a15.1,15.1,0,0,0,6.016,3.28,4.278,4.278,0,0,1,.8-1.056,14.639,14.639,0,0,1-5.712-2.528Zm9.744-9.04H76.992V16.672H75.856v1.712h-3.2v1.04H80.24Zm-1.968,4.24c.336-.7.72-1.76,1.056-2.688l-1.12-.272a21.65,21.65,0,0,1-.9,2.72Zm-2.912-.288a9.475,9.475,0,0,0-.736-2.56l-.992.208a11.061,11.061,0,0,1,.7,2.592ZM78.416,26.3v2.944h-4V26.3Zm-5.1,4.928h1.1v-.944h4v.848h1.152V25.248H73.312ZM72.24,23.856h8.224V22.768H72.24ZM86,17.5l-.192.048H81.1V31.216h1.152V18.672H85.28c-.5,1.28-1.2,3.008-1.856,4.352,1.616,1.392,2.064,2.576,2.064,3.584,0,.576-.1,1.056-.432,1.264a1.621,1.621,0,0,1-.688.176,8.822,8.822,0,0,1-1.264-.032A2.766,2.766,0,0,1,83.44,29.2a9.874,9.874,0,0,0,1.392-.032,2.292,2.292,0,0,0,1.04-.352,2.338,2.338,0,0,0,.784-2.08,5.172,5.172,0,0,0-2.016-3.872c.752-1.456,1.568-3.3,2.224-4.8Z" transform="translate(481 2828)" fill="#333"/>
    </g>
    <g id="Group_31" data-name="Group 31" transform="translate(682 -89)">
      <path id="Path_37" data-name="Path 37" d="M0,0H222V80H0Z" transform="translate(370 2796)" fill="#f9f1eb"/>
      <path id="Path_36" data-name="Path 36" d="M-86.464-5.776l.64,1.248a31.6,31.6,0,0,0,6.1-2.608v5.92A14.841,14.841,0,0,1-79.824.5h1.568a12.074,12.074,0,0,1-.1-1.712V-7.968a26.175,26.175,0,0,0,4.32-3.568l-1.072-.992a19.064,19.064,0,0,1-4.368,3.76A26.449,26.449,0,0,1-86.464-5.776Zm25.68-5.072-.912.384a17.709,17.709,0,0,1,1.488,2.576l.944-.432A27.763,27.763,0,0,0-60.784-10.848Zm2.048-.816-.9.416A16.616,16.616,0,0,1-58.1-8.72l.928-.448A20.287,20.287,0,0,0-58.736-11.664ZM-70.992-4.208l1.2,1.216c.24-.336.592-.832.912-1.232.736-.9,2.064-2.64,2.832-3.584.544-.656.848-.72,1.472-.112.672.656,2.16,2.24,3.088,3.3,1.024,1.168,2.432,2.8,3.568,4.176l1.1-1.168c-1.232-1.312-2.832-3.056-3.9-4.192-.944-1.008-2.3-2.432-3.28-3.36-1.088-1.024-1.84-.848-2.7.16-1.008,1.184-2.4,2.96-3.152,3.728C-70.288-4.848-70.576-4.56-70.992-4.208Zm18.784-7.52-.912.976a33.23,33.23,0,0,1,3.984,3.344l1.008-1.008A35.036,35.036,0,0,0-52.208-11.728Zm-1.376,10.72L-52.736.3a17.538,17.538,0,0,0,6.288-2.48,15.986,15.986,0,0,0,5.376-5.7l-.768-1.36a15.072,15.072,0,0,1-5.344,5.888A16.521,16.521,0,0,1-53.584-1.008Zm19.136-.4A14.1,14.1,0,0,1-34.56.48h1.552c-.064-.528-.1-1.392-.1-1.888,0-.464,0-2.88-.016-5.28a41.947,41.947,0,0,1,6.288,2.576l.544-1.36a51.139,51.139,0,0,0-6.832-2.64V-10.72c0-.48.064-1.168.112-1.664h-1.568a10.1,10.1,0,0,1,.128,1.664Zm23.488-10.08A1.069,1.069,0,0,1-9.9-12.56a1.072,1.072,0,0,1,1.072,1.072A1.069,1.069,0,0,1-9.9-10.432,1.065,1.065,0,0,1-10.96-11.488Zm-.736,0a1.8,1.8,0,0,0,.08.512c-.192.016-.368.016-.512.016H-20.16a12.348,12.348,0,0,1-1.6-.112v1.424c.416-.016.96-.048,1.6-.048h8.176a11.975,11.975,0,0,1-2.1,5.216A10.535,10.535,0,0,1-20.32-.64l1.088,1.2a12.116,12.116,0,0,0,6.3-4.272,15.631,15.631,0,0,0,2.384-5.9.826.826,0,0,0,.032-.176,1.934,1.934,0,0,0,.608.1A1.8,1.8,0,0,0-8.1-11.488,1.816,1.816,0,0,0-9.9-13.3,1.8,1.8,0,0,0-11.7-11.488Zm6.192.528c.032.384.032.88.032,1.248V-1.84C-5.472-1.28-5.5-.1-5.52.112h1.376C-4.16-.016-4.16-.4-4.176-.816H4.56c0,.432-.016.816-.016.928H5.92C5.9-.064,5.888-1.312,5.888-1.824V-9.712c0-.4,0-.848.032-1.248-.48.032-1.056.032-1.408.032H-4.08C-4.448-10.928-4.88-10.944-5.5-10.96Zm1.328,1.3H4.576v7.6H-4.176Zm15.232-1.7v1.28c.432-.032.9-.048,1.44-.048h2.128v3.392H11.5c-.416,0-1.072-.048-1.5-.08v1.344c.448-.032,1.1-.064,1.5-.064h3.12V-1.92c0,1.312.768,2.16,3.184,2.16,1.52,0,3.056-.064,4.3-.16l.08-1.344a35.364,35.364,0,0,1-4.208.224c-1.472,0-2.032-.48-2.032-1.28V-5.536h5.424a11.842,11.842,0,0,1,1.3.048V-6.8c-.352.032-.992.064-1.328.064H15.952v-3.392h4.16c.56,0,.928.032,1.312.048v-1.28c-.352.032-.8.064-1.312.064H12.5C11.952-11.3,11.488-11.328,11.056-11.36ZM25.792-6.928V-5.36c.5-.048,1.344-.08,2.224-.08H36.8c.72,0,1.392.064,1.712.08V-6.928c-.352.032-.928.08-1.728.08H28.016C27.12-6.848,26.272-6.9,25.792-6.928Zm18.864-5.36-.72,1.072c.944.544,2.672,1.7,3.44,2.272l.752-1.088C47.44-10.544,45.6-11.76,44.656-12.288Zm-2.4,11.44.736,1.3A19.918,19.918,0,0,0,48.3-1.536a18.644,18.644,0,0,0,6.144-5.728L53.68-8.576A16.318,16.318,0,0,1,47.616-2.72,17,17,0,0,1,42.256-.848Zm-.016-7.84-.7,1.088a35.07,35.07,0,0,1,3.488,2.192l.736-1.12C45.056-7.04,43.184-8.176,42.24-8.688Zm17.168-.1v1.248c.288-.016,1.216-.048,1.632-.048h5.936v2.656H61.184c-.544,0-1.12-.032-1.424-.048v1.232c.32-.016.88-.032,1.44-.032h5.776V-.928H60.528a12.18,12.18,0,0,1-1.312-.064V.288c.256,0,.816-.032,1.328-.032h6.432c0,.256,0,.5-.016.64h1.264c-.016-.224-.032-.608-.032-.864V-7.936c0-.3,0-.64.016-.816-.208.016-.624.032-.976.032H61.04C60.624-8.72,59.712-8.752,59.408-8.784Zm16.064-2.944-.912.976a33.23,33.23,0,0,1,3.984,3.344l1.008-1.008A35.036,35.036,0,0,0,75.472-11.728ZM74.1-1.008,74.944.3a17.538,17.538,0,0,0,6.288-2.48,15.986,15.986,0,0,0,5.376-5.7l-.768-1.36A15.072,15.072,0,0,1,80.5-3.344,16.521,16.521,0,0,1,74.1-1.008Zm-85.712,28.9h-3.84v-1.2h3.84Zm-3.84-3.264h3.84v1.12h-3.84Zm-4.624-2.832V20.64h3.44v1.152Zm8.208-1.152v1.152h-3.584V20.64Zm3.088,5.1h-1.648v-2h-5.024v-1.12h4.768V19.808h-4.768V18.88h6.368V17.9h-6.368v-1.28H-16.64V17.9h-6.24v.976h6.24v.928h-4.576v2.816h4.576v1.12h-5.024v.88h5.024v1.12h-6.544v.944h6.544v1.2h-5.168V28.8h5.168v1.1c0,.272-.1.368-.4.384-.272,0-1.232.016-2.192-.016a3.945,3.945,0,0,1,.416,1.008,9.553,9.553,0,0,0,2.656-.192c.48-.176.7-.448.7-1.184V28.8h3.84v.72h1.184V26.688h1.648Zm11.168-5.28a14.627,14.627,0,0,1-.816,1.664l.16.048h-3.76l.512-.112a6.779,6.779,0,0,0-.8-1.6Zm4.592,6.96V26.416H.56V25.232H5.568V24.32H.56V23.152H6.352v-.976H2.72c.32-.48.672-1.1.992-1.712h3.2V19.44H4.432a22.373,22.373,0,0,0,1.408-2.3l-1.216-.32a18.152,18.152,0,0,1-1.216,2.432L4,19.44H2.064V16.608H.944V19.44H-.96V16.608h-1.1V19.44H-4.032l.816-.3a11.028,11.028,0,0,0-1.36-2.352l-1.008.336A12.472,12.472,0,0,1-4.32,19.44H-6.864v1.024h3.9l-.56.112a6.718,6.718,0,0,1,.784,1.6H-6.224v.976H-.608V24.32H-5.424v.912H-.608v1.184h-6.32v1.008H-1.7a15.42,15.42,0,0,1-5.648,2.528,5.1,5.1,0,0,1,.768,1.008A16.079,16.079,0,0,0-.608,27.808v3.408H.56V27.728a15.1,15.1,0,0,0,6.016,3.28,4.278,4.278,0,0,1,.8-1.056,14.639,14.639,0,0,1-5.712-2.528Zm9.744-9.04H13.472V16.672H12.336v1.712h-3.2v1.04H16.72Zm-1.968,4.24c.336-.7.72-1.76,1.056-2.688l-1.12-.272a21.65,21.65,0,0,1-.9,2.72Zm-2.912-.288a9.475,9.475,0,0,0-.736-2.56l-.992.208a11.061,11.061,0,0,1,.7,2.592ZM14.9,26.3v2.944h-4V26.3Zm-5.1,4.928h1.1v-.944h4v.848h1.152V25.248H9.792ZM8.72,23.856h8.224V22.768H8.72ZM22.48,17.5l-.192.048h-4.7V31.216h1.152V18.672H21.76c-.5,1.28-1.2,3.008-1.856,4.352,1.616,1.392,2.064,2.576,2.064,3.584,0,.576-.1,1.056-.432,1.264a1.621,1.621,0,0,1-.688.176,8.822,8.822,0,0,1-1.264-.032A2.766,2.766,0,0,1,19.92,29.2a9.874,9.874,0,0,0,1.392-.032,2.292,2.292,0,0,0,1.04-.352,2.338,2.338,0,0,0,.784-2.08,5.172,5.172,0,0,0-2.016-3.872c.752-1.456,1.568-3.3,2.224-4.8Z" transform="translate(481 2828)" fill="#333"/>
    </g>
    <g id="Group_32" data-name="Group 32" transform="translate(968 -89)">
      <path id="Path_39" data-name="Path 39" d="M0,0H222V80H0Z" transform="translate(371 2796)" fill="#f9f1eb"/>
      <path id="Path_38" data-name="Path 38" d="M-87.744-10.816l-.784-.752a7.9,7.9,0,0,1-1.12.1h-9.184a13.578,13.578,0,0,1-1.824-.144v1.456a17.878,17.878,0,0,1,1.824-.1h9.12a10.869,10.869,0,0,1-3.5,3.584l1.056.848a15.426,15.426,0,0,0,3.984-4.416C-88.064-10.416-87.856-10.656-87.744-10.816ZM-94.128-8.7h-1.44A9.618,9.618,0,0,1-95.5-7.552c0,2.672-.352,4.944-2.832,6.464a5.511,5.511,0,0,1-1.44.72l1.184.96C-94.512-1.44-94.128-4.368-94.128-8.7Zm16.144-4.112H-79.52a8.976,8.976,0,0,1,.08,1.2v1.488h-3.536a14.175,14.175,0,0,1-1.488-.064,10.712,10.712,0,0,1,.048,1.232v2.816c0,.3-.016.736-.048,1.024h1.392a6.174,6.174,0,0,1-.064-.96V-8.944h8.944a11.785,11.785,0,0,1-1.52,4.672,8.532,8.532,0,0,1-4.336,3.216,8.521,8.521,0,0,1-1.664.448l1.04,1.2a10.168,10.168,0,0,0,6.336-4.528,14.913,14.913,0,0,0,1.568-4.816c.064-.3.16-.72.24-.96l-.864-.544a3.145,3.145,0,0,1-1.1.128H-78.08v-1.488A7.148,7.148,0,0,1-77.984-12.816ZM-65.248-1.408A14.1,14.1,0,0,1-65.36.48h1.552c-.064-.528-.1-1.392-.1-1.888,0-.464,0-2.88-.016-5.28a41.947,41.947,0,0,1,6.288,2.576l.544-1.36a51.139,51.139,0,0,0-6.832-2.64V-10.72c0-.48.064-1.168.112-1.664h-1.568a10.1,10.1,0,0,1,.128,1.664Zm21.1-10.112-.88.4A15.879,15.879,0,0,1-43.6-8.688l.912-.416A24.11,24.11,0,0,0-44.144-11.52Zm1.936-.8-.88.416A15.566,15.566,0,0,1-41.6-9.5l.9-.448A21.608,21.608,0,0,0-42.208-12.32ZM-49.76-1.2a17.52,17.52,0,0,1-.1,1.888h1.536c-.048-.512-.1-1.376-.1-1.888V-6.464A41,41,0,0,1-42.144-3.9l.56-1.36A54.35,54.35,0,0,0-48.416-7.9v-2.608a14.779,14.779,0,0,1,.112-1.664h-1.584a10.1,10.1,0,0,1,.128,1.664Zm26.016-9.616-.784-.752a7.9,7.9,0,0,1-1.12.1h-9.184a13.578,13.578,0,0,1-1.824-.144v1.456a17.878,17.878,0,0,1,1.824-.1h9.12a10.869,10.869,0,0,1-3.5,3.584l1.056.848a15.426,15.426,0,0,0,3.984-4.416C-24.064-10.416-23.856-10.656-23.744-10.816ZM-30.128-8.7h-1.44A9.619,9.619,0,0,1-31.5-7.552c0,2.672-.352,4.944-2.832,6.464a5.511,5.511,0,0,1-1.44.72l1.184.96C-30.512-1.44-30.128-4.368-30.128-8.7Zm11.92,5.632c0-1.024.816-1.744,1.824-2.416a29.421,29.421,0,0,0,3.312,3.312,3.628,3.628,0,0,1-2.544,1.2C-17.136-.976-18.208-1.744-18.208-3.072Zm1.376-6.112a1.557,1.557,0,0,1,1.6-1.728A1.311,1.311,0,0,1-13.9-9.52c0,1.088-.944,1.808-2.064,2.512A4.067,4.067,0,0,1-16.832-9.184ZM-9.3-.976a20.9,20.9,0,0,1-2-1.408A10.393,10.393,0,0,0-9.584-6.32h-1.344a7.157,7.157,0,0,1-1.3,3.152,32.508,32.508,0,0,1-3.1-3.008C-14-7.04-12.736-7.984-12.736-9.568a2.317,2.317,0,0,0-2.528-2.384A2.667,2.667,0,0,0-18.048-9.12,4.982,4.982,0,0,0-17.04-6.368c-1.3.816-2.512,1.76-2.512,3.36,0,1.936,1.488,3.2,3.824,3.2a4.78,4.78,0,0,0,3.584-1.536A16.6,16.6,0,0,0-9.984.208Zm17.552-9.84-.784-.752a7.9,7.9,0,0,1-1.12.1H-2.832a13.578,13.578,0,0,1-1.824-.144v1.456a17.878,17.878,0,0,1,1.824-.1h9.12a10.869,10.869,0,0,1-3.5,3.584l1.056.848A15.426,15.426,0,0,0,7.824-10.24C7.936-10.416,8.144-10.656,8.256-10.816ZM1.872-8.7H.432A9.619,9.619,0,0,1,.5-7.552C.5-4.88.144-2.608-2.336-1.088a5.511,5.511,0,0,1-1.44.72l1.184.96C1.488-1.44,1.872-4.368,1.872-8.7Zm15.28-3.728-1.488-.48a5.479,5.479,0,0,1-.5,1.264A13.19,13.19,0,0,1,10.144-6.24l1.1.832a16.22,16.22,0,0,0,4.064-3.936H20.72a13.154,13.154,0,0,1-2.56,4.992A12.944,12.944,0,0,1,11.776-.336L12.928.7A14.028,14.028,0,0,0,19.3-3.648a15.519,15.519,0,0,0,2.848-5.5A5.028,5.028,0,0,1,22.512-10l-1.072-.656a2.678,2.678,0,0,1-1.04.16H16.064a7.19,7.19,0,0,0,.384-.672A12.1,12.1,0,0,1,17.152-12.432ZM28-11.84v1.328c.4-.032.928-.048,1.456-.048H35.92c.464,0,1.024.016,1.488.048V-11.84a11.805,11.805,0,0,1-1.488.1H29.44A13.309,13.309,0,0,1,28-11.84ZM26.08-7.824V-6.5c.448-.032.912-.032,1.392-.032h4.8a7.746,7.746,0,0,1-.928,3.968A6.623,6.623,0,0,1,28.32-.112L29.5.768A7.808,7.808,0,0,0,32.656-2.16,9.685,9.685,0,0,0,33.6-6.528h4.352c.384,0,.9.016,1.248.032V-7.824a8.577,8.577,0,0,1-1.248.08H27.472A12.79,12.79,0,0,1,26.08-7.824Zm15.472,3.7.608,1.184a30.031,30.031,0,0,0,5.008-2.112v4.9c0,.5-.032,1.152-.064,1.408h1.472A8.433,8.433,0,0,1,48.5-.16v-5.7a19.823,19.823,0,0,0,3.616-2.992l-.992-.96a15.811,15.811,0,0,1-3.808,3.264A21.808,21.808,0,0,1,41.552-4.128Zm25.7-8.416-.848.368a18.285,18.285,0,0,1,1.3,2.224l.864-.4A24.8,24.8,0,0,0,67.248-12.544Zm1.76-.64-.848.368a16.819,16.819,0,0,1,1.328,2.208l.864-.4A22.9,22.9,0,0,0,69.008-13.184ZM60.064-12H58.576a8.672,8.672,0,0,1,.1,1.3v8.8c0,1.3.688,1.856,1.92,2.08a16.814,16.814,0,0,0,2.56.16A44.735,44.735,0,0,0,68.688,0V-1.456a26.186,26.186,0,0,1-5.472.512A15.206,15.206,0,0,1,61.1-1.072c-.784-.16-1.12-.368-1.12-1.184v-3.52a61.338,61.338,0,0,0,6.544-2.08c.48-.176,1.056-.432,1.5-.624l-.56-1.28a11.664,11.664,0,0,1-1.408.72,43.582,43.582,0,0,1-6.08,1.952V-10.7A10.625,10.625,0,0,1,60.064-12Zm14.976.16v1.328c.4-.032.928-.048,1.456-.048H82.96c.464,0,1.024.016,1.488.048V-11.84a11.805,11.805,0,0,1-1.488.1H76.48A13.309,13.309,0,0,1,75.04-11.84ZM73.12-7.824V-6.5c.448-.032.912-.032,1.392-.032h4.8a7.746,7.746,0,0,1-.928,3.968A6.623,6.623,0,0,1,75.36-.112l1.184.88A7.808,7.808,0,0,0,79.7-2.16a9.685,9.685,0,0,0,.944-4.368h4.352c.384,0,.9.016,1.248.032V-7.824a8.577,8.577,0,0,1-1.248.08H74.512A12.79,12.79,0,0,1,73.12-7.824Zm15.472,3.7L89.2-2.944a30.031,30.031,0,0,0,5.008-2.112v4.9c0,.5-.032,1.152-.064,1.408h1.472a8.434,8.434,0,0,1-.08-1.408v-5.7a19.823,19.823,0,0,0,3.616-2.992l-.992-.96a15.811,15.811,0,0,1-3.808,3.264A21.808,21.808,0,0,1,88.592-4.128ZM-11.616,27.888h-3.84v-1.2h3.84Zm-3.84-3.264h3.84v1.12h-3.84Zm-4.624-2.832V20.64h3.44v1.152Zm8.208-1.152v1.152h-3.584V20.64Zm3.088,5.1h-1.648v-2h-5.024v-1.12h4.768V19.808h-4.768V18.88h6.368V17.9h-6.368v-1.28H-16.64V17.9h-6.24v.976h6.24v.928h-4.576v2.816h4.576v1.12h-5.024v.88h5.024v1.12h-6.544v.944h6.544v1.2h-5.168V28.8h5.168v1.1c0,.272-.1.368-.4.384-.272,0-1.232.016-2.192-.016a3.945,3.945,0,0,1,.416,1.008,9.553,9.553,0,0,0,2.656-.192c.48-.176.7-.448.7-1.184V28.8h3.84v.72h1.184V26.688h1.648Zm11.168-5.28a14.627,14.627,0,0,1-.816,1.664l.16.048h-3.76l.512-.112a6.779,6.779,0,0,0-.8-1.6Zm4.592,6.96V26.416H.56V25.232H5.568V24.32H.56V23.152H6.352v-.976H2.72c.32-.48.672-1.1.992-1.712h3.2V19.44H4.432a22.373,22.373,0,0,0,1.408-2.3l-1.216-.32a18.152,18.152,0,0,1-1.216,2.432L4,19.44H2.064V16.608H.944V19.44H-.96V16.608h-1.1V19.44H-4.032l.816-.3a11.028,11.028,0,0,0-1.36-2.352l-1.008.336A12.472,12.472,0,0,1-4.32,19.44H-6.864v1.024h3.9l-.56.112a6.718,6.718,0,0,1,.784,1.6H-6.224v.976H-.608V24.32H-5.424v.912H-.608v1.184h-6.32v1.008H-1.7a15.42,15.42,0,0,1-5.648,2.528,5.1,5.1,0,0,1,.768,1.008A16.079,16.079,0,0,0-.608,27.808v3.408H.56V27.728a15.1,15.1,0,0,0,6.016,3.28,4.278,4.278,0,0,1,.8-1.056,14.639,14.639,0,0,1-5.712-2.528Zm9.744-9.04H13.472V16.672H12.336v1.712h-3.2v1.04H16.72Zm-1.968,4.24c.336-.7.72-1.76,1.056-2.688l-1.12-.272a21.65,21.65,0,0,1-.9,2.72Zm-2.912-.288a9.475,9.475,0,0,0-.736-2.56l-.992.208a11.061,11.061,0,0,1,.7,2.592ZM14.9,26.3v2.944h-4V26.3Zm-5.1,4.928h1.1v-.944h4v.848h1.152V25.248H9.792ZM8.72,23.856h8.224V22.768H8.72ZM22.48,17.5l-.192.048h-4.7V31.216h1.152V18.672H21.76c-.5,1.28-1.2,3.008-1.856,4.352,1.616,1.392,2.064,2.576,2.064,3.584,0,.576-.1,1.056-.432,1.264a1.621,1.621,0,0,1-.688.176,8.822,8.822,0,0,1-1.264-.032A2.766,2.766,0,0,1,19.92,29.2a9.874,9.874,0,0,0,1.392-.032,2.292,2.292,0,0,0,1.04-.352,2.338,2.338,0,0,0,.784-2.08,5.172,5.172,0,0,0-2.016-3.872c.752-1.456,1.568-3.3,2.224-4.8Z" transform="translate(481 2828)" fill="#333"/>
    </g>
    <path id="Path_55" data-name="Path 55" d="M0,0V75" transform="translate(471 2787)" fill="none" stroke="#707070" stroke-width="1" stroke-dasharray="2"/>
    <path id="Path_58" data-name="Path 58" d="M0,0V75" transform="translate(1449 2787)" fill="none" stroke="#707070" stroke-width="1" stroke-dasharray="2"/>
    <path id="Path_56" data-name="Path 56" d="M0,0V37" transform="translate(797.5 2787)" fill="none" stroke="#707070" stroke-width="1" stroke-dasharray="2"/>
    <path id="Path_57" data-name="Path 57" d="M0,0V37" transform="translate(1163.5 2787)" fill="none" stroke="#707070" stroke-width="1" stroke-dasharray="2"/>
    <path id="Path_54" data-name="Path 54" d="M0,0V55.378" transform="translate(1163.5 2653.5)" fill="none" stroke="#707070" stroke-width="1" stroke-dasharray="2"/>
    <path id="Path_53" data-name="Path 53" d="M0,0V55.378" transform="translate(797.5 2653.5)" fill="none" stroke="#707070" stroke-width="1" stroke-dasharray="2"/>
    <path id="Path_52" data-name="Path 52" d="M0,0V55.378" transform="translate(960.5 2598.122)" fill="none" stroke="#707070" stroke-width="1" stroke-dasharray="2"/>
    <path id="Path_22" data-name="Path 22" d="M-5042.407,3112.064v-37.755h175v37.755" transform="translate(5751.907 -250.309)" fill="none" stroke="#707070" stroke-width="1" stroke-dasharray="2"/>
    <path id="Path_29" data-name="Path 29" d="M-5042.408,3128.309v-54h978v54" transform="translate(5513.407 -421.309)" fill="none" stroke="#707070" stroke-width="1" stroke-dasharray="2"/>
    <path id="Path_28" data-name="Path 28" d="M-5042.407,3112.064v-37.755h175v37.755" transform="translate(6117.907 -250.309)" fill="none" stroke="#707070" stroke-width="1" stroke-dasharray="2"/>
  </g>
</svg>
