<svg xmlns="http://www.w3.org/2000/svg" width="107.001" height="30.002" viewBox="0 0 107.001 30.002">
  <g id="Union_4" data-name="Union 4" transform="translate(6947.001 -20187)" fill="#06f">
    <path d="M -6840.5 20216.501953125 L -6940.4990234375 20216.501953125 L -6940.4990234375 20207.14453125 L -6940.4990234375 20206.9140625 L -6940.67333984375 20206.765625 L -6946.232421875 20201.998046875 L -6940.673828125 20197.236328125 L -6940.4990234375 20197.087890625 L -6940.4990234375 20196.857421875 L -6940.4990234375 20187.5 L -6840.5 20187.5 L -6840.5 20216.501953125 Z" stroke="none"/>
    <path d="M -6841 20216.001953125 L -6841 20188 L -6939.9990234375 20188 L -6939.9990234375 20197.318359375 L -6940.3486328125 20197.6171875 L -6945.46435546875 20201.998046875 L -6939.9990234375 20206.685546875 L -6939.9990234375 20216.001953125 L -6841 20216.001953125 M -6840 20217.001953125 L -6940.9990234375 20217.001953125 L -6940.9990234375 20207.14453125 L -6947.0009765625 20201.998046875 L -6940.9990234375 20196.857421875 L -6940.9990234375 20187 L -6840 20187 L -6840 20217.001953125 Z" stroke="none" fill="#06f"/>
  </g>
</svg>
