<svg xmlns="http://www.w3.org/2000/svg" width="13.333" height="12" viewBox="0 0 13.333 12">
  <g id="Icon_material-photo-camera" data-name="Icon material-photo-camera" transform="translate(-1.333 -1.334)">
    <path id="Path_10" data-name="Path 10" d="M10.133,8A2.133,2.133,0,1,1,8,5.867,2.133,2.133,0,0,1,10.133,8Z" fill="#fff"/>
    <path id="Path_11" data-name="Path 11" d="M6,1.333,4.78,2.667H2.667A1.337,1.337,0,0,0,1.333,4v8a1.337,1.337,0,0,0,1.333,1.333H13.333A1.337,1.337,0,0,0,14.667,12V4a1.337,1.337,0,0,0-1.333-1.333H11.22L10,1.333Zm2,10A3.333,3.333,0,1,1,11.333,8,3.335,3.335,0,0,1,8,11.333Z" fill="#fff"/>
  </g>
</svg>
