<svg xmlns="http://www.w3.org/2000/svg" width="20" height="15" viewBox="0 0 20 15">
  <path id="Icon_awesome-car" data-name="Icon awesome-car" d="M19.531,6.875H17.192l-.65-1.625A4.353,4.353,0,0,0,12.48,2.5H7.52A4.354,4.354,0,0,0,3.457,5.25l-.65,1.625H.469a.469.469,0,0,0-.455.582l.234.938A.468.468,0,0,0,.7,8.75h.784a2.483,2.483,0,0,0-.862,1.875V12.5a2.48,2.48,0,0,0,.625,1.638V16.25A1.25,1.25,0,0,0,2.5,17.5H3.75A1.25,1.25,0,0,0,5,16.25V15H15v1.25a1.25,1.25,0,0,0,1.25,1.25H17.5a1.25,1.25,0,0,0,1.25-1.25V14.138a2.478,2.478,0,0,0,.625-1.638V10.625a2.484,2.484,0,0,0-.862-1.875H19.3a.468.468,0,0,0,.455-.355l.234-.937a.469.469,0,0,0-.455-.582Zm-13.752-.7A1.875,1.875,0,0,1,7.52,5H12.48a1.875,1.875,0,0,1,1.741,1.179L15,8.125H5l.779-1.946ZM3.75,12.492A1.179,1.179,0,0,1,2.5,11.246,1.179,1.179,0,0,1,3.75,10a2.4,2.4,0,0,1,1.875,1.869C5.625,12.617,4.5,12.492,3.75,12.492Zm12.5,0c-.75,0-1.875.125-1.875-.623A2.4,2.4,0,0,1,16.25,10a1.179,1.179,0,0,1,1.25,1.246A1.179,1.179,0,0,1,16.25,12.492Z" transform="translate(0 -2.5)" fill="#fff"/>
</svg>
