<svg xmlns="http://www.w3.org/2000/svg" width="11.752" height="13.71" viewBox="0 0 11.752 13.71">
  <path id="Icon_metro-file-pdf" data-name="Icon metro-file-pdf" d="M12.374,3.887a1.78,1.78,0,0,1,.367.581,1.766,1.766,0,0,1,.153.673v8.814a.731.731,0,0,1-.734.734H1.877a.731.731,0,0,1-.734-.734V1.714A.731.731,0,0,1,1.877.979H8.732a1.766,1.766,0,0,1,.673.153,1.78,1.78,0,0,1,.581.367ZM8.977,2.02V4.9h2.877a.836.836,0,0,0-.168-.314L9.291,2.188a.836.836,0,0,0-.314-.168ZM11.915,13.71V5.876H8.732A.731.731,0,0,1,8,5.141V1.959H2.122V13.71h9.793ZM7.982,9.173a5.821,5.821,0,0,0,.643.428,7.592,7.592,0,0,1,.9-.054q1.125,0,1.354.375a.37.37,0,0,1,.015.4.022.022,0,0,1-.008.015l-.015.015v.008q-.046.291-.543.291a3.156,3.156,0,0,1-.88-.153,5.579,5.579,0,0,1-.995-.406,13.777,13.777,0,0,0-3,.635q-1.171,2-1.852,2a.445.445,0,0,1-.214-.054L3.2,12.586l-.046-.038a.316.316,0,0,1-.046-.275,1.662,1.662,0,0,1,.428-.7,3.7,3.7,0,0,1,1.01-.738.112.112,0,0,1,.176.046.044.044,0,0,1,.015.031q.4-.65.819-1.507a11.677,11.677,0,0,0,.8-2,6.185,6.185,0,0,1-.233-1.22,2.975,2.975,0,0,1,.05-.975q.084-.306.321-.306h.168a.323.323,0,0,1,.268.115A.611.611,0,0,1,7,5.532a.166.166,0,0,1-.031.061.2.2,0,0,1,.008.061v.23a10.019,10.019,0,0,1-.107,1.469A3.871,3.871,0,0,0,7.982,9.173ZM3.576,12.318a3.378,3.378,0,0,0,1.048-1.209,4.361,4.361,0,0,0-.669.643A2.543,2.543,0,0,0,3.576,12.318ZM6.621,5.279a2.275,2.275,0,0,0-.015,1.01q.008-.054.054-.337,0-.023.054-.329a.172.172,0,0,1,.031-.061.022.022,0,0,1-.008-.015.016.016,0,0,0,0-.011.015.015,0,0,1,0-.011.44.44,0,0,0-.1-.275.022.022,0,0,1-.008.015v.015Zm-.949,5.057a11.222,11.222,0,0,1,2.173-.62,1.154,1.154,0,0,1-.1-.073,1.37,1.37,0,0,1-.122-.1,4.053,4.053,0,0,1-.972-1.347A10.224,10.224,0,0,1,6.016,9.7q-.23.428-.344.635Zm4.943-.122a1.831,1.831,0,0,0-1.071-.184,2.894,2.894,0,0,0,.949.214.742.742,0,0,0,.138-.008q0-.008-.015-.023Z" transform="translate(-1.143 -0.979)" fill="#999"/>
</svg>
