<svg xmlns="http://www.w3.org/2000/svg" width="445" height="49.169" viewBox="0 0 445 49.169">
  <g id="Group_6" data-name="Group 6" transform="translate(-160 -41)">
    <text id="名古屋近鉄タクシー株式会社" transform="translate(220 76)" fill="#06f" font-size="32" font-family="YuGothicUI-Bold, Yu Gothic UI" font-weight="700"><tspan x="0" y="0">名古屋近鉄タクシー株式会社</tspan></text>
    <g id="Layer_2-2" transform="translate(160 43)">
      <g id="Group_4" data-name="Group 4">
        <path id="Path_2" data-name="Path 2" d="M23.584,0A23.584,23.584,0,1,0,47.166,23.584,23.583,23.583,0,0,0,23.584,0ZM2.55,23.584A21.033,21.033,0,0,1,22.807,2.565l-10.309,12,.019-.009a14.279,14.279,0,0,0,.444,18.572L5.138,33.7A20.92,20.92,0,0,1,2.55,23.584Zm21.034-8.055a8.055,8.055,0,1,1-8.055,8.055,8.054,8.054,0,0,1,8.055-8.055Zm0,29.088A21.014,21.014,0,0,1,5.716,34.683l14.99,2.893.35.067c.062.011.122.021.185.03A14.286,14.286,0,0,0,37.128,28.12l4.349,6.521a21.009,21.009,0,0,1-17.892,9.976ZM37.113,19l-.056-.165c-.019-.054-.041-.109-.06-.163h0a14.3,14.3,0,0,0-16.43-9.053l3.381-7.068a21.039,21.039,0,0,1,18.1,31.1L37.113,19Z" fill="#06f"/>
        <path id="Path_3" data-name="Path 3" d="M83.971,91.05a7.08,7.08,0,1,0-7.081-7.079A7.079,7.079,0,0,0,83.971,91.05Zm6.046-7.575c.013.163.019.328.019.494a6.065,6.065,0,0,1-4.894,5.952.518.518,0,0,1-.62-.5V84.194a.515.515,0,0,1,.436-.509L89.425,83a.518.518,0,0,1,.592.474ZM78.669,81.02a6.066,6.066,0,0,1,10.607.006.515.515,0,0,1-.371.76l-4.834.743a.48.48,0,0,1-.157,0l-4.872-.749a.516.516,0,0,1-.371-.762Zm-.745,2.447a.519.519,0,0,1,.592-.474l4.295.661a.515.515,0,0,1,.436.509v5.22a.518.518,0,0,1-.635.5A6.066,6.066,0,0,1,77.9,83.971c0-.17.006-.337.021-.5Z" transform="translate(-60.387 -60.387)" fill="#06f"/>
      </g>
    </g>
  </g>
</svg>
