<svg xmlns="http://www.w3.org/2000/svg" width="36" height="36" viewBox="0 0 36 36">
  <path id="Icon_awesome-fax" data-name="Icon awesome-fax" d="M4.5,9H2.25A2.25,2.25,0,0,0,0,11.25v22.5A2.25,2.25,0,0,0,2.25,36H4.5a2.25,2.25,0,0,0,2.25-2.25V11.25A2.25,2.25,0,0,0,4.5,9Zm29.25,2.25V5.432a2.251,2.251,0,0,0-.659-1.591L29.909.659A2.25,2.25,0,0,0,28.318,0H11.25A2.25,2.25,0,0,0,9,2.25v31.5A2.25,2.25,0,0,0,11.25,36h22.5A2.25,2.25,0,0,0,36,33.75V13.5A2.25,2.25,0,0,0,33.75,11.25ZM20.25,30.375A1.125,1.125,0,0,1,19.125,31.5h-2.25a1.125,1.125,0,0,1-1.125-1.125v-2.25A1.125,1.125,0,0,1,16.875,27h2.25a1.125,1.125,0,0,1,1.125,1.125Zm0-9A1.125,1.125,0,0,1,19.125,22.5h-2.25a1.125,1.125,0,0,1-1.125-1.125v-2.25A1.125,1.125,0,0,1,16.875,18h2.25a1.125,1.125,0,0,1,1.125,1.125Zm9,9A1.125,1.125,0,0,1,28.125,31.5h-2.25a1.125,1.125,0,0,1-1.125-1.125v-2.25A1.125,1.125,0,0,1,25.875,27h2.25a1.125,1.125,0,0,1,1.125,1.125Zm0-9A1.125,1.125,0,0,1,28.125,22.5h-2.25a1.125,1.125,0,0,1-1.125-1.125v-2.25A1.125,1.125,0,0,1,25.875,18h2.25a1.125,1.125,0,0,1,1.125,1.125ZM30.375,13.5h-18V3.375H27v2.25A1.125,1.125,0,0,0,28.125,6.75h2.25Z" fill="#fff" opacity="0.5"/>
</svg>
