<svg xmlns="http://www.w3.org/2000/svg" width="481.493" height="112.87" viewBox="0 0 481.493 112.87">
  <g id="Group_308" data-name="Group 308" transform="translate(1365 5682.579)">
    <path id="Path_3377" data-name="Path 3377" d="M0,0H76L91.493,44.992,76,90H0" transform="translate(-1365 -5682.579)" fill="#f6f4e8"/>
    <path id="Path_3377-2" data-name="Path 3377" d="M0,0H76L91.493,44.992,76,90H0L15.369,45.088Z" transform="translate(-1287 -5682.579)" fill="#f6f4e8"/>
    <path id="Path_3377-3" data-name="Path 3377" d="M0,0H76L91.493,44.992,76,90H0L15.369,45.088Z" transform="translate(-1209 -5682.579)" fill="#f6f4e8"/>
    <path id="Path_3377-4" data-name="Path 3377" d="M0,0H76L91.493,44.992,76,90H0L15.369,45.088Z" transform="translate(-1131 -5682.579)" fill="#f6f4e8"/>
    <path id="Path_3377-5" data-name="Path 3377" d="M0,0H76L91.493,44.992,76,90H0L15.369,45.088Z" transform="translate(-1053 -5682.579)" fill="#f6f4e8"/>
    <path id="Path_3377-6" data-name="Path 3377" d="M0,0H76L91.493,44.992,76,90H0L15.369,45.088Z" transform="translate(-975 -5682.579)" fill="#f6f4e8"/>
    <path id="Path_3389" data-name="Path 3389" d="M-29.127-7.055l.012-1.371a4.56,4.56,0,0,0-.082-.967,6.778,6.778,0,0,1,1.424.211q.24.064.24.229a.433.433,0,0,1-.07.193,1.526,1.526,0,0,0-.17.469q-.035.346-.059,1a12.443,12.443,0,0,0,1.541-.439.239.239,0,0,1,.082-.018q.105,0,.123.123a6.043,6.043,0,0,1,.07.932.191.191,0,0,1-.158.193,16.137,16.137,0,0,1-1.717.457l-.023,1.74a7.228,7.228,0,0,1,2.953-.662,2.589,2.589,0,0,1,1.922.75,2.265,2.265,0,0,1,.633,1.646A2.286,2.286,0,0,1-23.191-.7a2.774,2.774,0,0,1-1.816.563,4.322,4.322,0,0,1-.984-.105A.336.336,0,0,1-26.256-.6a2.012,2.012,0,0,0-.363-1.014,4.828,4.828,0,0,0,1.5.211,1.312,1.312,0,0,0,.943-.34,1.178,1.178,0,0,0,.352-.9,1.133,1.133,0,0,0-.393-.937,1.429,1.429,0,0,0-.926-.275,6.2,6.2,0,0,0-2.748.82q.018.768.047,1.441.1,1.4.1,1.559a1.1,1.1,0,0,1-.018.258.2.2,0,0,1-.164.135A4.144,4.144,0,0,1-28.811.5q-.117.012-.293-.24a6.811,6.811,0,0,0-1.705-1.535,2.1,2.1,0,0,0-.381.264.291.291,0,0,1-.205.082.325.325,0,0,1-.264-.193,11.148,11.148,0,0,1-.551-1.113,4.283,4.283,0,0,0,1.1-.422q.545-.3,1.957-1.113V-5.818q-1.2.094-2.016.094a.257.257,0,0,1-.287-.252q-.047-.287-.135-1.043a6.457,6.457,0,0,0,.938.059Q-30.135-6.961-29.127-7.055Zm.035,4.547q-.762.516-1.172.814a11.818,11.818,0,0,0,1.125.539.251.251,0,0,0,.064.012q.059,0,.059-.07a.111.111,0,0,0-.006-.035q-.012-.182-.035-.645T-29.092-2.508Zm4.014-4.547a7.4,7.4,0,0,1,.551-.937q.094-.152.158-.152a.252.252,0,0,1,.047.006,5.768,5.768,0,0,1,2.543,1.465.212.212,0,0,1,.07.123.411.411,0,0,1-.047.117q-.1.152-.34.457-.264.34-.311.4-.029.041-.129.041t-.111-.041A5.628,5.628,0,0,0-25.078-7.055ZM-13.921-.469a7.482,7.482,0,0,0,.973.059.554.554,0,0,0,.41-.111.578.578,0,0,0,.082-.357V-5.508h-1.922l-1.318.023a.214.214,0,0,1-.129-.023.219.219,0,0,1-.018-.111l.023-1.078V-8.449l-.023-1.09q0-.1.029-.117a.236.236,0,0,1,.117-.018l1.318.023h1.729l1.318-.023q.1,0,.117.023a.219.219,0,0,1,.018.111l-.023,1.594v4.922l.047,2.385a2.323,2.323,0,0,1-.082.709.976.976,0,0,1-.264.4A1.16,1.16,0,0,1-12.1.727a6.589,6.589,0,0,1-1.084.064.666.666,0,0,1-.357-.053.814.814,0,0,1-.1-.316A3.342,3.342,0,0,0-13.921-.469Zm-.721-5.918h2.186V-7.2h-2.186Zm2.186-2.35h-2.186v.709h2.186Zm-5.52-.914,1.2-.023q.117,0,.117.135L-16.68-8.35v1.559l.023,1.172q0,.135-.117.135l-1.2-.023H-19.9v3.744l.023,2.555A.185.185,0,0,1-19.9.908.2.2,0,0,1-20,.926h-1.025a.176.176,0,0,1-.108-.021.191.191,0,0,1-.021-.114l.023-2.555v-5.2l-.023-2.578q0-.1.023-.117a.219.219,0,0,1,.111-.018l1.4.023Zm.117,3.264V-7.2H-19.9v.814Zm0-2.35H-19.9v.709h2.039Zm.445,8.52h-.873A.216.216,0,0,1-18.4-.234a.168.168,0,0,1-.018-.1l.023-1.957v-.867l-.023-1.266q0-.1.023-.117a.219.219,0,0,1,.111-.018l1.271.023h1.57l1.271-.023q.1,0,.117.023a.219.219,0,0,1,.018.111l-.023,1.037v.926l.023,1.875a.206.206,0,0,1-.021.12.191.191,0,0,1-.114.021h-.873a.214.214,0,0,1-.129-.023.236.236,0,0,1-.018-.117v-.4h-2.074v.65q0,.088-.021.1A.3.3,0,0,1-17.413-.217Zm.146-3.3V-2h2.074V-3.516Zm7.273-4.822a4.7,4.7,0,0,1,1.523.393q.193.088.193.217a.971.971,0,0,1-.1.334,4.419,4.419,0,0,0-.105,1.178A15.962,15.962,0,0,0-8.265-3.48q.311,1.764.984,1.764.3,0,.58-.422a6.663,6.663,0,0,0,.568-1.248,5.027,5.027,0,0,0,.768.926.339.339,0,0,1,.123.258.6.6,0,0,1-.035.188A3.388,3.388,0,0,1-6.226-.562a1.664,1.664,0,0,1-1.09.416,1.782,1.782,0,0,1-1.436-.914A5.332,5.332,0,0,1-9.56-3.275a21.066,21.066,0,0,1-.287-3.492A7.353,7.353,0,0,0-9.994-8.338Zm6.146,1.7q.592-.375.943-.551a.413.413,0,0,1,.135-.047.2.2,0,0,1,.129.07A7.1,7.1,0,0,1-1.087-5.174a7.3,7.3,0,0,1,.8,2.115.263.263,0,0,1,.012.07q0,.105-.141.193a4.458,4.458,0,0,1-.937.48.371.371,0,0,1-.105.018q-.117,0-.146-.152a9.6,9.6,0,0,0-.885-2.414A8.082,8.082,0,0,0-3.847-6.639ZM2.875.9H1.855Q1.761.9,1.744.873A.2.2,0,0,1,1.726.768L1.75-1.365V-2.4L1.726-3.855q0-.094.023-.111a.2.2,0,0,1,.105-.018L3.5-3.961H7.345l1.641-.023a.214.214,0,0,1,.129.023.2.2,0,0,1,.018.105L9.109-2.584v1.178L9.132.709Q9.132.8,9.1.82a.219.219,0,0,1-.111.018H7.972q-.1,0-.117-.023A.2.2,0,0,1,7.838.709v-.4H3.021V.768q0,.094-.029.111A.236.236,0,0,1,2.875.9Zm.146-3.768V-.779H7.838V-2.871Zm8.162-2.977a3.052,3.052,0,0,0-.5.914q-.1.311-.217.311a.739.739,0,0,1-.287-.105A13.26,13.26,0,0,1,7.832-6.07v.838q0,.094-.023.111A.183.183,0,0,1,7.7-5.1L6.349-5.127H4.486L3.132-5.1a.185.185,0,0,1-.117-.023A.2.2,0,0,1,3-5.232V-6.1A14.563,14.563,0,0,1,.777-4.682,1.382,1.382,0,0,1,.5-4.564q-.094,0-.229-.3a2.9,2.9,0,0,0-.562-.8A10.8,10.8,0,0,0,4.328-9.334a4.108,4.108,0,0,0,.469-.855q.873.135,1.26.229.217.07.217.193a.217.217,0,0,1-.117.182.48.48,0,0,0-.1.082A11.062,11.062,0,0,0,11.183-5.848ZM3.191-6.264q.287.023,1.295.023H6.349l1.23-.012a10.8,10.8,0,0,1-2.2-2.279A11.9,11.9,0,0,1,3.191-6.264ZM13.552-9.779a10.493,10.493,0,0,1,1.389.205q.258.07.258.252a.5.5,0,0,1-.041.17,2.113,2.113,0,0,0-.117.516q-.006.123-.029.486-.018.322-.035.592l.1-.035a.189.189,0,0,1,.082-.023q.135,0,.322.275a.791.791,0,0,1,.193.375q0,.1-.205.334-.357.457-.633.861V-5.4A5.406,5.406,0,0,1,18.28-6.8a2.848,2.848,0,0,1,2.273.955,3.069,3.069,0,0,1,.715,2.092q0,2.713-3.193,3.867a.452.452,0,0,1-.205.047.38.38,0,0,1-.311-.17A3.736,3.736,0,0,0,16.61-.8a6.134,6.134,0,0,0,2.414-1.189A2.327,2.327,0,0,0,19.839-3.8a1.837,1.837,0,0,0-.527-1.412,1.754,1.754,0,0,0-1.26-.445,3.587,3.587,0,0,0-1.687.445,8.634,8.634,0,0,0-1.529,1.09q.006.914.035,2.42Q14.9-.059,14.905.48q0,.146-.158.146Q14.22.674,13.68.674q-.135,0-.135-.129V.5q.018-1.383.064-3.709Q12.8-1.986,11.987-.826q-.1.117-.164.117a.215.215,0,0,1-.135-.07,9.088,9.088,0,0,1-.732-.721.162.162,0,0,1-.07-.135.2.2,0,0,1,.07-.141Q12.567-3.732,13.6-5.145q0-.627.012-.855-1.031.322-1.371.445a1.813,1.813,0,0,0-.258.141.342.342,0,0,1-.135.064q-.135,0-.24-.217a9.494,9.494,0,0,1-.48-1.055,7.1,7.1,0,0,0,.814-.123q.779-.176,1.705-.428.023-.516.023-1.564A4.54,4.54,0,0,0,13.552-9.779Zm14.9,3.129q.012-.6.012-1.687A5.334,5.334,0,0,0,28.3-9.709a10.121,10.121,0,0,1,1.459.24q.229.064.229.229a.556.556,0,0,1-.076.24,2.369,2.369,0,0,0-.123.539q-.023.744-.047,1.682,1.225-.094,2.344-.135.141,0,.141.123.012.393.012.568,0,.217-.012.416a.232.232,0,0,1-.029.146.277.277,0,0,1-.123.018q-1.125,0-2.391.1-.059,1.295-.146,1.846a1.41,1.41,0,0,1-1.57,1.336,5.827,5.827,0,0,1-.744-.035q-.24-.018-.24-.311a3.218,3.218,0,0,0-.264-1.084,3.8,3.8,0,0,0,1.02.146.565.565,0,0,0,.4-.117.676.676,0,0,0,.164-.4q.064-.5.088-1.277-1.488.111-2.93.34Q25.447-4,25.447-3.65q0,.768.029,1.26.059.785.434.99a3.271,3.271,0,0,0,1.371.188,21.146,21.146,0,0,0,3.105-.24h.07a.16.16,0,0,1,.17.158A5.284,5.284,0,0,1,30.7-.287q0,.193-.158.211a20.554,20.554,0,0,1-3.012.182,4.571,4.571,0,0,1-2.59-.516,2.092,2.092,0,0,1-.686-1.559q-.082-.908-.082-2.93-.727.1-1.453.258a3.972,3.972,0,0,0-.539.176.292.292,0,0,1-.129.035q-.111,0-.187-.164a4.245,4.245,0,0,1-.334-1.2,10.014,10.014,0,0,0,1.283-.123q.193-.023.686-.111t.674-.117V-7.43a6.113,6.113,0,0,0-.17-1.271,9.533,9.533,0,0,1,1.441.205q.252.047.252.252a.666.666,0,0,1-.076.252,1.776,1.776,0,0,0-.117.527q-.006.158-.012.574-.006.393-.012.58Q25.834-6.357,28.447-6.65Z" transform="translate(-1323 -5607)" fill="#202020"/>
    <path id="Path_3378" data-name="Path 3378" d="M-1.935.12c1.73,0,3-1.31,3-3.62s-1.27-3.62-3-3.62-3,1.31-3,3.62S-3.655.12-1.935.12Zm0-1.37c-.8,0-1.36-.66-1.36-2.25s.56-2.25,1.36-2.25,1.37.66,1.37,2.25S-1.125-1.25-1.935-1.25ZM1.475-7v1.3h1.4V0H4.5V-7Z" transform="translate(-1323 -5669.623)" fill="#202020"/>
    <path id="Path_3388" data-name="Path 3388" d="M-14.892-4.143q.463.234.926.48.094.053.094.117a.2.2,0,0,1-.035.1,1.675,1.675,0,0,0-.316.914q0,.615.744.879a6.631,6.631,0,0,0,2.1.246,15.243,15.243,0,0,0,3.252-.346.614.614,0,0,1,.105-.012.14.14,0,0,1,.146.123A6.793,6.793,0,0,1-7.679-.469q0,.018,0,.023,0,.123-.205.158A19.7,19.7,0,0,1-11.4,0q-4.131,0-4.131-2.426A3.322,3.322,0,0,1-14.892-4.143Zm.264-4.535a15.089,15.089,0,0,0,3.369.311q1.107,0,2.5-.105h.035a.135.135,0,0,1,.146.135,6.953,6.953,0,0,1,.105,1.02q0,.234-.205.252a7.429,7.429,0,0,0-2.936,1.189.515.515,0,0,1-.3.105.524.524,0,0,1-.252-.07,3.059,3.059,0,0,0-.838-.387q.979-.639,1.57-1a7.489,7.489,0,0,1-.873.035,11.554,11.554,0,0,1-2.209-.205.2.2,0,0,1-.158-.217Q-14.681-7.8-14.629-8.678Zm6-.574L-8-9.7a.11.11,0,0,1,.07-.029.19.19,0,0,1,.111.053A5.177,5.177,0,0,1-6.677-8.385a.15.15,0,0,1,.035.088.128.128,0,0,1-.07.1l-.5.375a.175.175,0,0,1-.094.035q-.053,0-.111-.076A6.02,6.02,0,0,0-8.629-9.252Zm1.1-.791.6-.434a.161.161,0,0,1,.082-.029.188.188,0,0,1,.1.053A4.644,4.644,0,0,1-5.605-9.217a.2.2,0,0,1,.035.1A.148.148,0,0,1-5.64-9l-.48.375a.182.182,0,0,1-.1.035.13.13,0,0,1-.105-.076A5.677,5.677,0,0,0-7.527-10.043Zm3.888,1.535-1.512.023a.185.185,0,0,1-.117-.023.2.2,0,0,1-.018-.105v-.855q0-.094.029-.111A.183.183,0,0,1-5.15-9.6l1.512.023H3.656L5.168-9.6a.185.185,0,0,1,.117.023.2.2,0,0,1,.018.105v.855q0,.094-.023.111a.219.219,0,0,1-.111.018L3.656-8.508H1.775v.85h.756L4.2-7.682q.1,0,.117.023a.219.219,0,0,1,.018.111l-.023.885v.979L4.33-4.8q0,.1-.023.117a.219.219,0,0,1-.111.018L2.531-4.687H-2.537l-1.67.023q-.094,0-.111-.023A.219.219,0,0,1-4.336-4.8l.023-.885v-.979l-.023-.885q0-.1.023-.117a.2.2,0,0,1,.105-.018l1.67.023h.662v-.85ZM3.117-5.6V-6.756H1.775V-5.6ZM.609-5.6V-6.756H-.709V-5.6Zm-3.721,0h1.236V-6.756H-3.111Zm2.4-2.057H.609v-.85H-.709ZM-3.785-2.666l-1.488.023q-.117,0-.117-.129v-.855a.1.1,0,0,1,.117-.117l1.488.023h1.922a4.672,4.672,0,0,0,.469-.949,8.536,8.536,0,0,1,1.172.182q.182.047.182.158a.229.229,0,0,1-.129.188,1.544,1.544,0,0,0-.352.422H3.8l1.488-.023a.1.1,0,0,1,.117.117v.855q0,.129-.117.129L3.8-2.666H2.719a6.233,6.233,0,0,1-1,1.43A26.147,26.147,0,0,1,4.617-.123q.094.041.094.094a.259.259,0,0,1-.07.135L4.055.791Q3.92.932,3.891.932A.2.2,0,0,1,3.8.9,18.365,18.365,0,0,0,.791-.422,10.168,10.168,0,0,1-4.236.943q-.158.012-.205.012A.254.254,0,0,1-4.646.879a1.022,1.022,0,0,1-.135-.27A2.651,2.651,0,0,0-5.2-.111,11.832,11.832,0,0,0-.721-.867q-.428-.111-1.523-.346-.012.012-.135.164A.278.278,0,0,1-2.6-.937.543.543,0,0,1-2.7-.949l-.867-.193q-.1-.023-.1-.088a.11.11,0,0,1,.029-.07l.287-.346a5.775,5.775,0,0,0,.445-.562l.334-.457Zm5.1,0h-2.5q-.229.34-.445.621Q-.48-1.828.428-1.6A4.72,4.72,0,0,0,1.318-2.666ZM16.5-9.527q-.023.2-.07,1a25.989,25.989,0,0,1-.316,3.064q-.211,1.143-.908,1.3a4.686,4.686,0,0,1-.9.07.9.9,0,0,1-.375-.047q-.07-.035-.094-.182a2.59,2.59,0,0,0-.252-.826,5.97,5.97,0,0,0,.715.047q.158,0,.3-.012.264-.035.387-.686H12.619a4.088,4.088,0,0,1-1.189,1.688.623.623,0,0,1-.287.17q-.088,0-.3-.193a1.974,1.974,0,0,0-.732-.451,3.269,3.269,0,0,0,.516-.352.338.338,0,0,1-.129.029,14.79,14.79,0,0,1-1.541.07A4.787,4.787,0,0,1,7.41-5q-.492-.2-.492-1.031V-7.752q-.281.006-.539.018L6.2-7.729q-.094,0-.111-.023a.2.2,0,0,1-.018-.105V-8.7q0-.094.023-.111A.263.263,0,0,1,6.2-8.824L7.6-8.812H8.23v-.346a4.708,4.708,0,0,0-.076-.85q.762.023,1.213.07.17.018.17.117a.91.91,0,0,1-.07.205A1.061,1.061,0,0,0,9.4-9.17v.357h.363l1.4-.012a.216.216,0,0,1,.117.018A.183.183,0,0,1,11.3-8.7v.844q0,.094-.023.111a.219.219,0,0,1-.111.018l-1.4-.023H8.1V-6.5q0,.416.182.492a2.163,2.163,0,0,0,.732.082,12.587,12.587,0,0,0,1.512-.088q.059-.006.094-.006a.087.087,0,0,1,.094.07.946.946,0,0,1,.018.234v.469a.579.579,0,0,1-.041.264,3.117,3.117,0,0,0,.943-1.441,8.4,8.4,0,0,0,.322-1.957q.029-.445.029-.768,0-.164-.006-.363,0-.146.117-.146l.973.023h2l1.283-.023Q16.5-9.662,16.5-9.527ZM15.185-7.236H12.953q-.047.4-.082.586h2.244Q15.185-7.148,15.185-7.236ZM15.3-8.678H13.064l-.023.592h2.221ZM7.644.662,6.156.686q-.117,0-.117-.129v-.8q0-.129.117-.129l1.488.023H10.72v-.768H9.173L7.515-1.09q-.094,0-.117-.029a.236.236,0,0,1-.018-.117v-.721q0-.094.029-.111a.183.183,0,0,1,.105-.018l1.658.023H10.72v-.756H8.464l-1.623.023q-.094,0-.111-.023a.2.2,0,0,1-.018-.105v-.75q0-.094.023-.111A.2.2,0,0,1,6.841-3.8l1.623.023h5.9L15.976-3.8a.2.2,0,0,1,.123.023.2.2,0,0,1,.018.105v.75a.176.176,0,0,1-.021.108.206.206,0,0,1-.12.021l-1.611-.023h-2.42v.756h1.7L15.3-2.086q.105,0,.123.023a.159.159,0,0,1,.023.105v.721q0,.105-.023.126a.223.223,0,0,1-.123.021l-1.658-.023h-1.7v.768h3.211l1.5-.023q.123,0,.123.129v.8q0,.129-.123.129l-1.5-.023ZM-24.71,10.539a25.265,25.265,0,0,0,2.988-1.166,4.308,4.308,0,0,0,1.283-.861,6.172,6.172,0,0,1,1,1.078.325.325,0,0,1,.094.217q0,.164-.2.217a7.918,7.918,0,0,0-1,.393A31.288,31.288,0,0,1-24.728,11.9V13.5a1.48,1.48,0,0,0,.094.633.489.489,0,0,0,.311.223,6.127,6.127,0,0,0,1.506.135,21.9,21.9,0,0,0,3.387-.281.541.541,0,0,1,.076-.006q.123,0,.141.176.07.668.07,1.043,0,.2-.252.217a28.8,28.8,0,0,1-3.562.217,6.139,6.139,0,0,1-2.285-.322q-.85-.357-.85-1.8V9.3a15.338,15.338,0,0,0-.117-2.2,9.986,9.986,0,0,1,1.512.24q.193.041.193.2a.508.508,0,0,1-.088.246,3.04,3.04,0,0,0-.117,1.078Zm8.617-3.275q1.143.082,2.438.082h5.145a2.956,2.956,0,0,0,.832-.07,1.484,1.484,0,0,1,.229-.088.4.4,0,0,1,.275.17,6.246,6.246,0,0,1,.721.756.341.341,0,0,1,.094.217.321.321,0,0,1-.17.252,1.569,1.569,0,0,0-.322.346,10.008,10.008,0,0,1-2.109,2.32.357.357,0,0,1-.252.105.453.453,0,0,1-.293-.117,2.9,2.9,0,0,0-1-.5A12.5,12.5,0,0,0-9.226,9.678a7.085,7.085,0,0,0,.873-1.037h-5.186q-.721,0-2.121.094a.194.194,0,0,1-.217-.182A11.523,11.523,0,0,1-16.093,7.264Zm.721,8.355A6.977,6.977,0,0,0-13.744,14.5a4.794,4.794,0,0,0,.879-1.172,6.018,6.018,0,0,0,.586-2.836A5.025,5.025,0,0,0-12.4,9.367a11.273,11.273,0,0,1,1.547.229.224.224,0,0,1,.205.229.48.48,0,0,1-.059.211,1.238,1.238,0,0,0-.111.492,7.77,7.77,0,0,1-.709,3.3,6.176,6.176,0,0,1-2.18,2.391.635.635,0,0,1-.34.117.336.336,0,0,1-.24-.111A3.5,3.5,0,0,0-15.373,15.619ZM-2.959,6.736a9.824,9.824,0,0,1,1.494.252q.205.053.205.193a.529.529,0,0,1-.053.182A3.191,3.191,0,0,0-1.441,8.5v2.426q0,.223.029,1.512,0,.24-.258.24h-.967q-.223,0-.223-.176v-.029l.035-1.635V8.488A8.96,8.96,0,0,0-2.959,6.736Zm.609,8.977A5.806,5.806,0,0,0,.574,13.961a5.085,5.085,0,0,0,.809-3.205V8.488a10.566,10.566,0,0,0-.135-1.957,7.764,7.764,0,0,1,1.564.264A.2.2,0,0,1,2.977,7a.383.383,0,0,1-.047.193A4.627,4.627,0,0,0,2.824,8.5v2.232a9.333,9.333,0,0,1-.258,2.4,4.366,4.366,0,0,1-.721,1.518,5.175,5.175,0,0,1-1.254,1.16,6.353,6.353,0,0,1-1.383.727.776.776,0,0,1-.252.059.4.4,0,0,1-.287-.146A4.049,4.049,0,0,0-2.35,15.713ZM7.005,8.523q.3-.363.838-.937a.218.218,0,0,1,.17-.094.377.377,0,0,1,.158.059,10.812,10.812,0,0,1,2.291,1.705.289.289,0,0,1,.105.17.262.262,0,0,1-.07.152q-.393.521-.744.9-.1.094-.146.094a.256.256,0,0,1-.152-.094A12.367,12.367,0,0,0,7.005,8.523Zm.264,5.988a8.811,8.811,0,0,0,1.623-.6q1.16-.6,1.928-1.107.674-.439,1.523-1.125a25.4,25.4,0,0,0,1.916-1.687,18.145,18.145,0,0,0,1.377-1.576,5.622,5.622,0,0,0,.334,1.4.631.631,0,0,1,.059.229.656.656,0,0,1-.193.363,18.492,18.492,0,0,1-2.76,2.543A27.65,27.65,0,0,1,9.455,15.3a4.7,4.7,0,0,0-.8.557.343.343,0,0,1-.217.117.3.3,0,0,1-.205-.129A7.913,7.913,0,0,1,7.269,14.512ZM22.577,8.33l2.156-.047a1.253,1.253,0,0,0,.6-.146.236.236,0,0,1,.152-.047.357.357,0,0,1,.193.07,5.448,5.448,0,0,1,.814.65.373.373,0,0,1,.158.275.34.34,0,0,1-.146.252,1.5,1.5,0,0,0-.393.516,16.817,16.817,0,0,1-2.379,3.709,15.427,15.427,0,0,1-1.893,1.787,12.7,12.7,0,0,1-1.752,1.2.36.36,0,0,1-.193.059.423.423,0,0,1-.275-.135,3.28,3.28,0,0,0-1.143-.551,17.426,17.426,0,0,0,2.385-1.535,14.512,14.512,0,0,0,1.611-1.523,12.9,12.9,0,0,0,1.266-1.629A16.327,16.327,0,0,0,24.7,9.455l-2.906.088A18.582,18.582,0,0,1,19.525,12a.362.362,0,0,1-.252.135.281.281,0,0,1-.176-.07,2.967,2.967,0,0,0-1.154-.516,14.993,14.993,0,0,0,3.229-3.562,6.019,6.019,0,0,0,.709-1.623A5.839,5.839,0,0,1,23.28,7a.223.223,0,0,1-.012.4,1.835,1.835,0,0,0-.3.322Q22.841,7.932,22.577,8.33Zm3.012-1.225.633-.445a.11.11,0,0,1,.07-.029.19.19,0,0,1,.111.053A5.06,5.06,0,0,1,27.54,7.967a.171.171,0,0,1,.035.088.13.13,0,0,1-.07.105l-.5.375a.175.175,0,0,1-.094.035.143.143,0,0,1-.111-.076A6.188,6.188,0,0,0,25.589,7.105Zm1.1-.791.6-.434a.157.157,0,0,1,.076-.029.188.188,0,0,1,.105.053,4.644,4.644,0,0,1,1.143,1.236.182.182,0,0,1,.035.1.148.148,0,0,1-.07.117l-.48.369a.166.166,0,0,1-.1.041.13.13,0,0,1-.105-.076A5.677,5.677,0,0,0,26.691,6.314Z" transform="translate(-1245 -5615)" fill="#202020"/>
    <path id="Path_3379" data-name="Path 3379" d="M-2.925.12c1.73,0,3-1.31,3-3.62s-1.27-3.62-3-3.62-3,1.31-3,3.62S-4.645.12-2.925.12Zm0-1.37c-.8,0-1.36-.66-1.36-2.25s.56-2.25,1.36-2.25,1.37.66,1.37,2.25S-2.115-1.25-2.925-1.25Zm5.95-.07,1.61-1.52a2.793,2.793,0,0,0,1.17-2.21c0-1.27-1.04-2.07-2.6-2.07a3.251,3.251,0,0,0-2.78,1.3l1.18.76a1.712,1.712,0,0,1,1.45-.7c.74,0,1.12.32,1.12.87,0,.34-.11.7-.73,1.29L.745-1.05V0h5.29V-1.32Z" transform="translate(-1245 -5669.623)" fill="#202020"/>
    <path id="Path_3387" data-name="Path 3387" d="M-14.7-.3q.486.041.756.041.381,0,.381-.34V-5.654h-2.133v.7q0,.3.07.346a.985.985,0,0,0,.4.047.818.818,0,0,0,.48-.094,1.394,1.394,0,0,0,.141-.779,2.152,2.152,0,0,0,.6.264.277.277,0,0,1,.275.293v.064a1.236,1.236,0,0,1-.434.984,1.072,1.072,0,0,1-.5.2,7.1,7.1,0,0,1-.791.029,2.106,2.106,0,0,1-1.055-.158.812.812,0,0,1-.275-.68V-5.654H-17.7a3.1,3.1,0,0,1-1.969,2.549.78.78,0,0,1-.264.094q-.141,0-.287-.264a2.324,2.324,0,0,0-.422-.48v3L-20.616.8q0,.094-.023.111a.2.2,0,0,1-.105.018h-1.02q-.1,0-.117-.023A.2.2,0,0,1-21.9.8l.023-1.611v-4.1L-21.9-6.539a.185.185,0,0,1,.023-.117.219.219,0,0,1,.111-.018l1.629.023h.721a4.464,4.464,0,0,0-.4-.779.171.171,0,0,1-.035-.088q0-.059.146-.105l.732-.229a.371.371,0,0,1,.105-.018q.1,0,.182.141a5.126,5.126,0,0,1,.527,1.078h2.08a5.986,5.986,0,0,0,.3-.7,1.918,1.918,0,0,0,.129-.516,9.276,9.276,0,0,1,1.166.264q.141.053.141.146a.27.27,0,0,1-.117.193A.672.672,0,0,0-14.651-7a3.215,3.215,0,0,1-.182.346h.768l1.629-.023q.1,0,.117.023a.219.219,0,0,1,.018.111l-.023,1.723v2.631l.035,1.811A1.229,1.229,0,0,1-12.612.6a2.35,2.35,0,0,1-1.359.287l-.135.006q-.176,0-.217-.064A.653.653,0,0,1-14.375.6,1.906,1.906,0,0,0-14.7-.3Zm-4.143-5.35h-1.8v1.8Q-18.987-4.354-18.84-5.654Zm.492,5.871h-.861q-.1,0-.117-.029A.236.236,0,0,1-19.344.07l.023-1.594v-.609l-.023-.949q0-.1.023-.117a.219.219,0,0,1,.111-.018l1.295.023h1.635l1.289-.023q.1,0,.117.023a.219.219,0,0,1,.018.111l-.023.779v.686l.023,1.512a.207.207,0,0,1-.021.117q-.021.023-.108.023h-.867q-.094,0-.111-.023a.258.258,0,0,1-.018-.117V-.357h-2.232V.07a.223.223,0,0,1-.021.123Q-18.254.217-18.348.217Zm.135-2.52v1.055h2.232V-2.3Zm-2.6-5.619-1.5.023q-.117,0-.117-.129v-.832q0-.129.117-.129l1.5.023h3v-.094a4.9,4.9,0,0,0-.082-1.037q.674.023,1.283.076.182.018.182.117,0,.018-.059.229a1.952,1.952,0,0,0-.059.615v.094h3.211l1.5-.023q.123,0,.123.129v.832q0,.129-.123.129l-1.5-.023ZM-4.03-9.586l1.605-.023q.1,0,.117.023a.2.2,0,0,1,.018.105l-.023,1.119v1.74l.023,1.1a.214.214,0,0,1-.023.129.219.219,0,0,1-.111.018L-4.03-5.4H-7.341l-1.594.023q-.1,0-.117-.029a.236.236,0,0,1-.018-.117l.023-1.1v-1.74L-9.069-9.48q0-.094.023-.111a.219.219,0,0,1,.111-.018l1.594.023ZM-7.809-8.432v1.881h4.26V-8.432ZM-4.147.914h-.937q-.123,0-.123-.135l.023-2.25V-2.59l-.023-1.559a.214.214,0,0,1,.023-.129.168.168,0,0,1,.1-.018l1.318.023h1.652L-.8-4.295q.094,0,.111.029a.236.236,0,0,1,.018.117L-.7-2.771v1.289l.023,2.2A.214.214,0,0,1-.7.85.2.2,0,0,1-.8.867h-.949q-.1,0-.117-.029A.236.236,0,0,1-1.886.721V.193H-4.018V.779q0,.1-.023.117A.2.2,0,0,1-4.147.914Zm.129-4.055V-.92h2.133V-3.141ZM-9.637.914h-.943q-.094,0-.114-.023a.223.223,0,0,1-.021-.123l.023-2.238V-2.59l-.023-1.57q0-.1.023-.117a.219.219,0,0,1,.111-.018l1.271.023h1.57l1.283-.023q.1,0,.117.023a.219.219,0,0,1,.018.111l-.023,1.365v1.266L-6.321.686A.185.185,0,0,1-6.345.8.2.2,0,0,1-6.45.82h-.937q-.123,0-.123-.135V.193H-9.5V.768A.214.214,0,0,1-9.526.9.219.219,0,0,1-9.637.914ZM-9.5-3.141V-.92h1.992V-3.141Zm14.687.727-1.658.023q-.094,0-.111-.029A.236.236,0,0,1,3.4-2.537v-.65q0-.094.023-.111a.2.2,0,0,1,.105-.018l1.658.023h.158v-.75L3.936-4.02q-.105,0-.123-.023a.216.216,0,0,1-.023-.123v-.65q0-.094.029-.111a.236.236,0,0,1,.117-.018l1.406.023a7.4,7.4,0,0,0-.076-.768q.721.041,1.1.082.193.023.193.123a.473.473,0,0,1-.07.182.834.834,0,0,0-.064.381H7.944a3.646,3.646,0,0,0-.07-.768q.738.041,1.09.082.193.023.193.135a.473.473,0,0,1-.07.182.685.685,0,0,0-.064.357v.023q.609-.006,1.055-.023.076,0,.234-.012h.082q.105,0,.123.023a.2.2,0,0,1,.018.105v.65a.222.222,0,0,1-.021.126.206.206,0,0,1-.12.021l-.176-.006q-.527-.012-1.2-.018v.75h.217L10.9-3.316q.094,0,.111.023a.2.2,0,0,1,.018.105v.65a.223.223,0,0,1-.021.123q-.021.023-.108.023L9.239-2.414H8.618a7.6,7.6,0,0,0,2.408.873,2.658,2.658,0,0,0-.428.627q-.152.3-.3.3a1.837,1.837,0,0,1-.281-.07A8.749,8.749,0,0,1,7.763-1.8Q7.7-1.846,7.7-1.881T7.8-2l.4-.41H5.882A6.26,6.26,0,0,1,6.491-2q.17.117.17.176,0,.094-.158.135a.961.961,0,0,0-.182.105q-.135.088-.2.123a7.431,7.431,0,0,1-1.477.721,1.375,1.375,0,0,1-.287.082q-.111,0-.34-.264a2.661,2.661,0,0,0-.551-.5,8.642,8.642,0,0,0,1.74-.662,2.582,2.582,0,0,0,.469-.322Zm1.236-.879H7.944v-.75H6.421ZM11.413-.621a1.714,1.714,0,0,0-.3.8q-.047.3-.117.346a.688.688,0,0,1-.328.059q-2.18.123-4.2.123A8.369,8.369,0,0,1,3.638.387,2.742,2.742,0,0,1,2.378-.7,13.387,13.387,0,0,1,1.259.322a2.39,2.39,0,0,0-.252.252Q.919.7.837.7.737.7.661.539a9.25,9.25,0,0,1-.492-1.1,4.77,4.77,0,0,0,.7-.4,6.122,6.122,0,0,0,.9-.744V-4.383H1.282l-.838.029q-.105,0-.129-.029A.236.236,0,0,1,.3-4.5v-.914q0-.094.029-.111a.236.236,0,0,1,.117-.018l.838.023h.674l.879-.023q.094,0,.111.023a.2.2,0,0,1,.018.105L2.94-4.248v2.643A1.858,1.858,0,0,0,4.054-.6a7.984,7.984,0,0,0,2.221.217Q9.011-.381,11.413-.621ZM9.526-8.812H8.413l-1.031.029a.214.214,0,0,1-.129-.023.219.219,0,0,1-.018-.111v-.639q0-.094.029-.111a.236.236,0,0,1,.117-.018l1.031.023H9.684l.85-.023q.1,0,.117.023a.219.219,0,0,1,.018.111l-.023.768v.5l.023.768q0,.117-.135.117l-.85-.023H8.471v.311a.658.658,0,0,0,.076.4,1.386,1.386,0,0,0,.645.082,1.249,1.249,0,0,0,.65-.094q.1-.088.117-.557a2.714,2.714,0,0,0,.8.275q.252.041.252.188a1.774,1.774,0,0,1-.023.223.825.825,0,0,1-.252.516,1.125,1.125,0,0,1-.6.205Q9.813-5.83,9.1-5.83a3.24,3.24,0,0,1-1.512-.193,1.21,1.21,0,0,1-.264-.914v-.65L7.3-8.068q0-.094.023-.111A.2.2,0,0,1,7.429-8.2l.8.023H9.526Zm-3.955,0H4.464l-1.043.029A.185.185,0,0,1,3.3-8.807a.219.219,0,0,1-.018-.111v-.639q0-.094.029-.111a.183.183,0,0,1,.105-.018l1.043.023H5.688l.85-.023a.214.214,0,0,1,.129.023.219.219,0,0,1,.018.111l-.023.768v.5l.023.768q0,.082-.023.1a.277.277,0,0,1-.123.018l-.85-.023H4.475v.3a.687.687,0,0,0,.076.416,1.245,1.245,0,0,0,.609.082,1.144,1.144,0,0,0,.662-.111,1.27,1.27,0,0,0,.082-.539,4.551,4.551,0,0,0,.791.287q.217.059.217.182a1.527,1.527,0,0,1-.023.205.919.919,0,0,1-.252.539,1.014,1.014,0,0,1-.551.193,9.378,9.378,0,0,1-.973.035,3.04,3.04,0,0,1-1.453-.193,1.135,1.135,0,0,1-.287-.914v-.65l-.023-.48q0-.094.029-.111A.236.236,0,0,1,3.5-8.2l.773.023h1.3ZM.6-8.953Q.544-9,.544-9.035t.117-.123L1.27-9.6a.423.423,0,0,1,.164-.082.182.182,0,0,1,.1.059A9.345,9.345,0,0,1,3.046-7.834a.183.183,0,0,1,.041.094q0,.053-.111.146l-.633.516A.315.315,0,0,1,2.184-7q-.059,0-.105-.082A9.169,9.169,0,0,0,.6-8.953ZM15.448-5.4l-1.617.023A.214.214,0,0,1,13.7-5.4a.219.219,0,0,1-.018-.111v-.879q0-.094.029-.111a.236.236,0,0,1,.117-.018l1.617.023h3.387l1.617-.023a.185.185,0,0,1,.117.023.2.2,0,0,1,.018.105v.879a.185.185,0,0,1-.023.117.219.219,0,0,1-.111.018L18.834-5.4h-1.02V-3.8H19.28l1.377-.023q.105,0,.123.023A.159.159,0,0,1,20.8-3.7v.879q0,.082-.023.1a.255.255,0,0,1-.123.018L19.28-2.725H17.815V-.674a20.938,20.938,0,0,0,2.314.105q.908,0,2.326-.105a3.376,3.376,0,0,0-.229.861q-.035.287-.105.34A.857.857,0,0,1,21.8.6q-.686.035-1.418.035A12.171,12.171,0,0,1,15.916.047a3.927,3.927,0,0,1-1.617-1.5A6.973,6.973,0,0,1,12.834.6Q12.647.8,12.571.8T12.33.574a2.6,2.6,0,0,0-.7-.621A5.615,5.615,0,0,0,13.8-3.838a7.325,7.325,0,0,0,.07-.768q.521.076,1.143.229.229.047.229.164a.393.393,0,0,1-.111.229,1.09,1.09,0,0,0-.158.375,8.473,8.473,0,0,1-.217.943,4.2,4.2,0,0,0,.768,1.107,2.86,2.86,0,0,0,1.037.609V-5.4Zm5.016-3.41,1.582-.023q.135,0,.135.117l-.023.627v.516l.023,1.318q0,.094-.029.111a.183.183,0,0,1-.105.018h-.984q-.094,0-.111-.023a.2.2,0,0,1-.018-.105V-7.705H13.338v1.453q0,.094-.029.111a.236.236,0,0,1-.117.018h-.973q-.094,0-.111-.023a.2.2,0,0,1-.018-.105l.023-1.318v-.41l-.023-.732q0-.117.129-.117l1.6.023h2.566v-.105a5.236,5.236,0,0,0-.088-1.143q.6,0,1.283.059.182.023.182.123a.776.776,0,0,1-.07.229,2.878,2.878,0,0,0-.047.721v.117ZM-17.329,16.346l-1.635.023q-.082,0-.1-.029a.219.219,0,0,1-.018-.111v-.943q0-.129.117-.129l1.635.023H-16.3V10.961h-1.225l-1.646.023q-.094,0-.111-.029a.236.236,0,0,1-.018-.117V9.9q0-.094.023-.111a.2.2,0,0,1,.105-.018l1.646.023H-16.3V7.926A13.9,13.9,0,0,0-16.379,6.1q.82.023,1.354.088.193.018.193.129a.706.706,0,0,1-.07.24A5.481,5.481,0,0,0-14.991,7.9v1.9h1.547l1.646-.023q.094,0,.111.023a.2.2,0,0,1,.018.105v.938a.214.214,0,0,1-.023.129.2.2,0,0,1-.105.018l-1.646-.023h-1.547V15.18h1.271l1.617-.023a.214.214,0,0,1,.129.023.2.2,0,0,1,.018.105v.943a.2.2,0,0,1-.023.123.277.277,0,0,1-.123.018l-1.617-.023Zm-5.426-5.52A10.929,10.929,0,0,0-20.37,6.76a3.353,3.353,0,0,0,.182-.838,8.529,8.529,0,0,1,1.2.381q.193.07.193.182a.315.315,0,0,1-.135.217,1.678,1.678,0,0,0-.229.469,15.319,15.319,0,0,1-.791,1.764V14.98l.023,1.822q0,.094-.029.117a.236.236,0,0,1-.117.018h-1.008a.2.2,0,0,1-.123-.023.219.219,0,0,1-.018-.111l.023-1.822v-2.76q0-.838.012-1.283-.363.516-.814,1.043-.129.141-.217.141t-.135-.205A3.22,3.22,0,0,0-22.754,10.826ZM-5.6,11.91l-1.629.023q-.1,0-.117-.023a.2.2,0,0,1-.018-.105v-.041a2.9,2.9,0,0,0-.322.627q-.094.217-.146.217t-.158-.193a7.007,7.007,0,0,1-.586-1.477q.006,2.021.053,4.242.006.5.023,1.242.012.34.012.381,0,.094-.029.117a.183.183,0,0,1-.105.018h-.949q-.094,0-.111-.029A.183.183,0,0,1-9.7,16.8q0-.018.012-.826.047-2.367.059-4.4A8.928,8.928,0,0,1-10.639,14q-.117.193-.182.193T-10.938,14a2.956,2.956,0,0,0-.422-.9A10.289,10.289,0,0,0-9.7,9.344h-.135l-1.1.023q-.094,0-.117-.029a.236.236,0,0,1-.018-.117V8.395a.214.214,0,0,1,.023-.129.219.219,0,0,1,.111-.018l1.1.023h.182V7.563a9.621,9.621,0,0,0-.1-1.605,11.59,11.59,0,0,1,1.166.082q.193.041.193.135a.568.568,0,0,1-.076.252,4.714,4.714,0,0,0-.07,1.125v.721l1-.023q.088,0,.105.029a.236.236,0,0,1,.018.117v.826a.214.214,0,0,1-.023.129.186.186,0,0,1-.1.018l-.973-.023a8.011,8.011,0,0,0,1.154,2.221v-.557q0-.094.023-.111a.219.219,0,0,1,.111-.018L-5.6,10.9h.891V10.17h-.557l-1.5.023q-.094,0-.111-.023a.2.2,0,0,1-.018-.105V9.32a.214.214,0,0,1,.023-.129.2.2,0,0,1,.105-.018l1.5.023h.557V8.477H-5.43L-7.018,8.5q-.129,0-.129-.117V7.609q0-.094.023-.111a.2.2,0,0,1,.105-.018L-5.77,7.5A8.6,8.6,0,0,0-6.309,6.5.2.2,0,0,1-6.345,6.4q0-.053.123-.111l.727-.275a.479.479,0,0,1,.117-.029q.041,0,.111.088a5.8,5.8,0,0,1,.574.984.234.234,0,0,1,.035.094q0,.053-.141.111l-.645.24h1.787q.328-.633.492-1.02a2.973,2.973,0,0,0,.141-.527,10.542,10.542,0,0,1,1.037.24q.193.059.193.164a.226.226,0,0,1-.123.182.535.535,0,0,0-.17.217q-.223.445-.41.744h.076l1.57-.023q.105,0,.123.023A.159.159,0,0,1-.7,7.609v.773q0,.082-.029.1A.236.236,0,0,1-.848,8.5l-1.57-.023H-3.573V9.2h.855l1.5-.023q.094,0,.111.029a.236.236,0,0,1,.018.117v.744q0,.094-.023.111a.2.2,0,0,1-.105.018l-1.5-.023h-.855V10.9h1.465l1.617-.023q.105,0,.123.023a.263.263,0,0,1,.012.105v.8a.2.2,0,0,1-.018.111.216.216,0,0,1-.117.018l-1.617-.023H-3.356a9.244,9.244,0,0,0,.768,1.318,7.882,7.882,0,0,0,.768-.721,1.826,1.826,0,0,0,.3-.416,6.9,6.9,0,0,1,.768.586.3.3,0,0,1,.135.205q0,.105-.158.152a1.218,1.218,0,0,0-.357.229q-.486.463-.814.732a8.308,8.308,0,0,0,1.9,1.418,2.645,2.645,0,0,0-.574.7q-.135.24-.205.24a.854.854,0,0,1-.264-.158,7.1,7.1,0,0,1-2.5-2.982q.006.516.035,1.459.018.662.018.926a1.183,1.183,0,0,1-.387,1.02,2.578,2.578,0,0,1-1.307.24.642.642,0,0,1-.363-.059.833.833,0,0,1-.105-.311,3.06,3.06,0,0,0-.316-.768q.492.047.855.047a.518.518,0,0,0,.369-.094.444.444,0,0,0,.076-.3v-.844a21.152,21.152,0,0,1-2.174,1.2,1.3,1.3,0,0,0-.375.234.22.22,0,0,1-.164.111q-.064,0-.135-.135-.217-.475-.416-1.014a4.719,4.719,0,0,0,.691-.24A20.878,20.878,0,0,0-4.71,13.375V11.91Zm-1.623.9q-.07-.047-.07-.088t.082-.129l.457-.451a.262.262,0,0,1,.146-.088.214.214,0,0,1,.105.041A4.778,4.778,0,0,1-5.483,13a.173.173,0,0,1,.047.1q0,.047-.082.129l-.469.539q-.1.1-.152.1t-.088-.064A5.011,5.011,0,0,0-7.223,12.807ZM9.315,7.287l1.617-.023q.1,0,.117.023a.2.2,0,0,1,.018.105l-.029.445v.34l.029,1.008q0,.094-.023.111a.219.219,0,0,1-.111.018h-.838a.185.185,0,0,1-.117-.023.2.2,0,0,1-.018-.105V8.295H7.429a10.947,10.947,0,0,1-.814,1.646H7.786q.059-.111.141-.293.088-.205.111-.258a3.435,3.435,0,0,0,.193-.738,9.893,9.893,0,0,1,.973.217q.205.07.205.182a.317.317,0,0,1-.123.205,1.17,1.17,0,0,0-.211.363l-.158.322H9.35l1.295-.023q.094,0,.111.023a.2.2,0,0,1,.018.105v.721q0,.1-.023.117a.2.2,0,0,1-.105.018L9.35,10.879H8.735v.908h.023l1.67-.023a.185.185,0,0,1,.117.023.2.2,0,0,1,.018.105v.65a.223.223,0,0,1-.021.123q-.021.023-.114.023l-1.693-.023v.885h.023l1.67-.023q.105,0,.123.023a.172.172,0,0,1,.023.111v.674q0,.082-.023.1a.255.255,0,0,1-.123.018L8.735,14.43v.955h.855l1.377-.023a.185.185,0,0,1,.117.023.2.2,0,0,1,.018.105v.75a.176.176,0,0,1-.021.108.191.191,0,0,1-.114.021l-1.377-.023H6.274V16.8q0,.094-.023.111a.2.2,0,0,1-.105.018H5.29q-.094,0-.111-.023a.2.2,0,0,1-.018-.105l.023-1.166V12.824q0-.328.023-.932l-.48.533a.2.2,0,0,1-.146.082q-.088,0-.117-.17a3.458,3.458,0,0,0-.363-.791v1.945l.023,2.01q0,.088-.023.105a.236.236,0,0,1-.117.018H3.216q-.135,0-.135-.123v-.451H2.155v.961a.176.176,0,0,1-.021.108.191.191,0,0,1-.114.021H1.206q-.094,0-.111-.023a.2.2,0,0,1-.018-.105L1.1,13.879V12.244l-.469.674q-.129.164-.205.164t-.117-.217A3.726,3.726,0,0,0-.013,11.8a7.734,7.734,0,0,0,1.764-4H1.663l-1.2.023q-.1,0-.117-.023A.2.2,0,0,1,.333,7.7V6.818q0-.094.023-.111a.219.219,0,0,1,.111-.018l1.2.023H3.034l1.2-.023a.2.2,0,0,1,.123.023.2.2,0,0,1,.018.105v.445q.264.023,1.588.023h.627a5.7,5.7,0,0,0,.252-1.365q.164.023,1.1.182.229.047.229.176a.437.437,0,0,1-.135.229,2.865,2.865,0,0,0-.234.686l-.041.094ZM3.034,7.8H2.9a12.128,12.128,0,0,1-.768,2.514H3.139l.838-.029a.214.214,0,0,1,.129.023.219.219,0,0,1,.018.111L4.1,11.441a8.4,8.4,0,0,0,2.15-3.146H5.278v.949a.185.185,0,0,1-.023.117.2.2,0,0,1-.105.018h-.82q-.094,0-.117-.029a.183.183,0,0,1-.018-.105l.029-1.031V7.826Zm.047,3.557H2.155v2.66h.926Zm3.193,4.025H7.68V14.43H6.274Zm0-3.6H7.68v-.908H6.274Zm0,1.764H7.68v-.885H6.274ZM15.448,10.6l-1.617.023A.214.214,0,0,1,13.7,10.6a.219.219,0,0,1-.018-.111V9.613q0-.094.029-.111a.236.236,0,0,1,.117-.018l1.617.023h3.387l1.617-.023a.185.185,0,0,1,.117.023.2.2,0,0,1,.018.105v.879a.185.185,0,0,1-.023.117.219.219,0,0,1-.111.018L18.834,10.6h-1.02V12.2H19.28l1.377-.023q.105,0,.123.023a.159.159,0,0,1,.023.105v.879q0,.082-.023.1a.255.255,0,0,1-.123.018l-1.377-.023H17.815v2.051a20.938,20.938,0,0,0,2.314.105q.908,0,2.326-.105a3.376,3.376,0,0,0-.229.861q-.035.287-.105.34a.857.857,0,0,1-.322.07q-.686.035-1.418.035a12.171,12.171,0,0,1-4.465-.586,3.927,3.927,0,0,1-1.617-1.5A6.973,6.973,0,0,1,12.834,16.6q-.187.205-.264.205t-.24-.229a2.6,2.6,0,0,0-.7-.621A5.615,5.615,0,0,0,13.8,12.162a7.325,7.325,0,0,0,.07-.768q.521.076,1.143.229.229.047.229.164a.393.393,0,0,1-.111.229,1.09,1.09,0,0,0-.158.375,8.473,8.473,0,0,1-.217.943,4.2,4.2,0,0,0,.768,1.107,2.86,2.86,0,0,0,1.037.609V10.6Zm5.016-3.41,1.582-.023q.135,0,.135.117l-.023.627V8.43l.023,1.318q0,.094-.029.111a.183.183,0,0,1-.105.018h-.984q-.094,0-.111-.023a.2.2,0,0,1-.018-.105V8.295H13.338V9.748q0,.094-.029.111a.236.236,0,0,1-.117.018h-.973q-.094,0-.111-.023a.2.2,0,0,1-.018-.105l.023-1.318V8.02l-.023-.732q0-.117.129-.117l1.6.023h2.566V7.088A5.236,5.236,0,0,0,16.3,5.945q.6,0,1.283.059.182.023.182.123a.776.776,0,0,1-.07.229,2.878,2.878,0,0,0-.047.721v.117Z" transform="translate(-1167 -5615)" fill="#202020"/>
    <path id="Path_3380" data-name="Path 3380" d="M-2.915.12c1.73,0,3-1.31,3-3.62s-1.27-3.62-3-3.62-3,1.31-3,3.62S-4.635.12-2.915.12Zm0-1.37c-.8,0-1.36-.66-1.36-2.25s.56-2.25,1.36-2.25,1.37.66,1.37,2.25S-2.105-1.25-2.915-1.25Zm6.96-2.9,1.58-1.8V-7H.725v1.3H3.7L2.265-4.07V-3h.74c.92,0,1.31.33,1.31.86,0,.57-.5.9-1.31.9a3.4,3.4,0,0,1-2-.63L.375-.63a4.813,4.813,0,0,0,2.67.75c1.99,0,2.9-1.08,2.9-2.26A1.989,1.989,0,0,0,4.045-4.15Z" transform="translate(-1167 -5669.623)" fill="#202020"/>
    <path id="Path_3386" data-name="Path 3386" d="M-14.393-6.779h.422q.984,0,1.811-.035h.029q.123,0,.141.193.018.229.018.469t-.018.475q-.018.193-.158.193H-12.2L-13.924-5.5h-.492a10.56,10.56,0,0,1-.3,2.244A5.821,5.821,0,0,1-15.342-1.8,5.646,5.646,0,0,1-18.172.434a1.138,1.138,0,0,1-.34.105A.349.349,0,0,1-18.735.4a3.2,3.2,0,0,0-1-.715A7.841,7.841,0,0,0-17.6-1.271a4.006,4.006,0,0,0,1.113-1.166A4.425,4.425,0,0,0-15.957-3.8a9.805,9.805,0,0,0,.17-1.693h-2.555v.434q0,1.354.035,1.986.012.152-.205.17t-.51.018q-.281,0-.521-.018-.217-.018-.217-.141v-.029q.064-1.02.064-1.963V-5.5h-.363q-1.043,0-1.98.059-.123,0-.141-.229-.035-.187-.082-1.16.838.059,2.2.059h.363v-.873A10.167,10.167,0,0,0-19.842-9.4a11.916,11.916,0,0,1,1.465.188q.182.035.182.17a.924.924,0,0,1-.07.252,4.283,4.283,0,0,0-.088,1.154v.873h2.578l.012-1.178q.006-.082.006-.246a7.174,7.174,0,0,0-.111-1.395,10.84,10.84,0,0,1,1.406.205q.217.047.217.188a.6.6,0,0,1-.053.217,3.783,3.783,0,0,0-.094,1.055Zm4.3-.7q.3-.363.838-.937a.218.218,0,0,1,.17-.094.377.377,0,0,1,.158.059A10.812,10.812,0,0,1-6.637-6.744a.289.289,0,0,1,.105.17.262.262,0,0,1-.07.152q-.393.521-.744.9-.1.094-.146.094a.256.256,0,0,1-.152-.094A12.367,12.367,0,0,0-10.095-7.477Zm.264,5.988a8.811,8.811,0,0,0,1.623-.6q1.16-.6,1.928-1.107.674-.439,1.523-1.125A25.4,25.4,0,0,0-2.841-6.006,18.146,18.146,0,0,0-1.464-7.582a5.622,5.622,0,0,0,.334,1.4.631.631,0,0,1,.059.229.656.656,0,0,1-.193.363,18.492,18.492,0,0,1-2.76,2.543A27.65,27.65,0,0,1-7.645-.7a4.7,4.7,0,0,0-.8.557.343.343,0,0,1-.217.117A.3.3,0,0,1-8.87-.152,7.913,7.913,0,0,1-9.831-1.488ZM1.042-8.221q.756.082,2.3.082H7.628a1.362,1.362,0,0,0,.662-.123.37.37,0,0,1,.205-.07.271.271,0,0,1,.2.082,4.282,4.282,0,0,1,.82.832.412.412,0,0,1,.094.234.333.333,0,0,1-.117.229,1.709,1.709,0,0,0-.281.475,14.246,14.246,0,0,1-2.326,3.9A13.307,13.307,0,0,1,3.479.281a.6.6,0,0,1-.328.105.414.414,0,0,1-.3-.135A3.541,3.541,0,0,0,1.739-.4,13.713,13.713,0,0,0,4.065-1.852,12.088,12.088,0,0,0,5.659-3.4,10.683,10.683,0,0,0,7.692-6.832H3.356q-.68,0-1.98.059-.188.012-.229-.24Q1.106-7.312,1.042-8.221Zm9.311-2.2a1.239,1.239,0,0,1,.961.422,1.23,1.23,0,0,1,.334.861,1.231,1.231,0,0,1-.428.961,1.25,1.25,0,0,1-.867.328,1.239,1.239,0,0,1-.961-.422,1.237,1.237,0,0,1-.334-.867,1.209,1.209,0,0,1,.428-.961A1.263,1.263,0,0,1,10.352-10.418Zm0,.574a.683.683,0,0,0-.533.229.7.7,0,0,0-.176.48.69.69,0,0,0,.229.539.688.688,0,0,0,.48.176.683.683,0,0,0,.533-.229.709.709,0,0,0,.176-.486.683.683,0,0,0-.229-.533A.688.688,0,0,0,10.352-9.844ZM18.33-2.531A12.528,12.528,0,0,0,20.036-3.65a11.588,11.588,0,0,0,2.1-2.039,3.4,3.4,0,0,0,.375,1.213.911.911,0,0,1,.07.205.477.477,0,0,1-.182.3A15.361,15.361,0,0,1,20.621-2.4,21.274,21.274,0,0,1,18.489-.955q-.17.111-.346.252a.389.389,0,0,1-.246.094A.545.545,0,0,1,17.645-.7a3.376,3.376,0,0,1-.721-.732.536.536,0,0,1-.105-.252.405.405,0,0,1,.047-.182,3.11,3.11,0,0,0,.07-.914V-6.539a11.55,11.55,0,0,0-.123-2.092,12.686,12.686,0,0,1,1.506.252q.217.053.217.205a.763.763,0,0,1-.094.3,4.335,4.335,0,0,0-.111,1.33ZM14.141-7.869a9.441,9.441,0,0,1,1.523.264q.193.053.193.217a.421.421,0,0,1-.035.152,1.828,1.828,0,0,0-.146.814,9.037,9.037,0,0,1-.65,3.527A6.1,6.1,0,0,1,13.321-.639a.562.562,0,0,1-.311.158.428.428,0,0,1-.229-.094,4.278,4.278,0,0,0-1.02-.5,6.172,6.172,0,0,0,1.992-2.391,5.925,5.925,0,0,0,.387-1.389,14.407,14.407,0,0,0,.117-2A3.967,3.967,0,0,0,14.141-7.869ZM-8.026,10.586A9.814,9.814,0,0,0-6.637,8.635a10.411,10.411,0,0,0,.809-1.793,4.405,4.405,0,0,0,.193-.914q.8.152,1.184.27.229.053.229.176a.288.288,0,0,1-.111.229,1.488,1.488,0,0,0-.311.586q-.187.51-.369.891H-1.88L-.4,8.055a.214.214,0,0,1,.129.023A.236.236,0,0,1-.251,8.2v.879A.2.2,0,0,1-.274,9.2.277.277,0,0,1-.4,9.215L-1.88,9.191H-3.837v1.43H-2.3l1.33-.023a.185.185,0,0,1,.117.023.2.2,0,0,1,.018.105v.879a.176.176,0,0,1-.021.108.191.191,0,0,1-.114.021l-1.33-.023H-3.837v1.471H-2.3l1.354-.023q.135,0,.135.117v.891a.207.207,0,0,1-.021.117q-.021.023-.114.023L-2.3,14.283H-3.837v.662l.023,1.869q0,.094-.029.117a.183.183,0,0,1-.105.018h-1.02q-.094,0-.111-.029a.183.183,0,0,1-.018-.105l.023-1.869V9.191h-.48a13.907,13.907,0,0,1-1.441,2.168q-.158.193-.229.193-.088,0-.229-.24A2.6,2.6,0,0,0-8.026,10.586Zm-3.24.123A10.855,10.855,0,0,0-8.829,6.76,4.8,4.8,0,0,0-8.612,5.9q.949.264,1.16.346.193.082.193.182a.293.293,0,0,1-.123.217,1.332,1.332,0,0,0-.264.5,17.03,17.03,0,0,1-.7,1.582V14.98l.023,1.822a.185.185,0,0,1-.023.117.219.219,0,0,1-.111.018h-1.02q-.094,0-.111-.023a.219.219,0,0,1-.018-.111l.023-1.822v-2.76q0-.457.023-1.512a12.174,12.174,0,0,1-.9,1.1q-.123.146-.205.146-.105,0-.152-.205A2.639,2.639,0,0,0-11.266,10.709Zm21.513,3.182a2.3,2.3,0,0,0,.674.463,1.364,1.364,0,0,1,.258.158.206.206,0,0,1,.059.152,2.063,2.063,0,0,1-.029.246q-.281,1.869-1.359,1.869-1.207,0-2.221-1.881A9.359,9.359,0,0,1,5.46,16.68a.906.906,0,0,1-.287.135q-.088,0-.252-.252a2.86,2.86,0,0,0-.615-.633,9.333,9.333,0,0,0,2.783-2.256A15.12,15.12,0,0,1,6.216,9.08h-3.7v1.541H4.247l1.02-.023q.146,0,.146.158-.012.176-.029.738-.018.387-.029.58a11.215,11.215,0,0,1-.275,2.232,1.357,1.357,0,0,1-1.395,1,6.117,6.117,0,0,1-.615-.023q-.217-.018-.264-.076a1,1,0,0,1-.082-.322,2.467,2.467,0,0,0-.287-.861,6.332,6.332,0,0,0,.984.094.539.539,0,0,0,.574-.434,10.031,10.031,0,0,0,.182-1.928H2.495a16.044,16.044,0,0,1-.217,2.1,9.163,9.163,0,0,1-.938,2.807q-.123.229-.2.229T.9,16.7a3.566,3.566,0,0,0-.744-.674,6.554,6.554,0,0,0,.932-2.654,20.484,20.484,0,0,0,.17-2.9L1.235,8.061q0-.105.029-.129a.236.236,0,0,1,.117-.018l1.605.023H6.18V7.686a14.448,14.448,0,0,0-.1-1.693q1.025.053,1.295.088.182.018.182.141a.67.67,0,0,1-.059.229,3.257,3.257,0,0,0-.064.832q0,.2.006.369v.287h1.8l1.594-.023q.094,0,.117.029a.219.219,0,0,1,.018.111v.92q0,.094-.023.111a.219.219,0,0,1-.111.018L9.239,9.08H7.475a15.151,15.151,0,0,0,.492,3.393,10.421,10.421,0,0,0,.721-1.406,6.192,6.192,0,0,0,.322-1.1,6.031,6.031,0,0,1,1.113.428q.182.088.182.193,0,.059-.17.252a2.178,2.178,0,0,0-.3.592,13.616,13.616,0,0,1-1.365,2.432A4.415,4.415,0,0,0,9.21,15.01q.328.352.545.352t.34-.369A5.744,5.744,0,0,0,10.247,13.891ZM9.134,6.1a5.506,5.506,0,0,1,1.031,1.008.2.2,0,0,1,.047.105q0,.059-.105.123l-.58.434a.477.477,0,0,1-.152.082q-.035,0-.1-.082A4.667,4.667,0,0,0,8.3,6.713q-.07-.07-.07-.111t.1-.105l.551-.387a.3.3,0,0,1,.141-.064A.212.212,0,0,1,9.134,6.1Z" transform="translate(-1089 -5615)" fill="#202020"/>
    <path id="Path_3381" data-name="Path 3381" d="M-3.45.12c1.73,0,3-1.31,3-3.62s-1.27-3.62-3-3.62-3,1.31-3,3.62S-5.17.12-3.45.12Zm0-1.37c-.8,0-1.36-.66-1.36-2.25s.56-2.25,1.36-2.25,1.37.66,1.37,2.25S-2.64-1.25-3.45-1.25ZM6.75-2.79H5.61V-4.1H4.08v1.31H2.2L5.26-7H3.56L.26-2.56v1.09H4.03V0H5.61V-1.47H6.75Z" transform="translate(-1089 -5669.623)" fill="#202020"/>
    <path id="Path_3385" data-name="Path 3385" d="M-20.715.357l-1.523.023a.185.185,0,0,1-.117-.023.2.2,0,0,1-.018-.105V-.762q0-.094.029-.111a.183.183,0,0,1,.105-.018l1.523.023H-17.7v-2.18h-1.318l-1.658.023q-.094,0-.111-.023a.2.2,0,0,1-.018-.105v-.979q0-.117.129-.117l1.658.023H-17.7V-6.275h-2.52A9.356,9.356,0,0,1-21.278-4.6q-.164.217-.229.217t-.264-.193a2.59,2.59,0,0,0-.756-.533A10.37,10.37,0,0,0-20.6-8.619a3.5,3.5,0,0,0,.17-.791q.428.076,1.166.287.217.059.217.182a.4.4,0,0,1-.123.217,1.343,1.343,0,0,0-.229.457l-.287.791h1.98V-8.1A14.054,14.054,0,0,0-17.8-9.926q.838.023,1.354.088.193.018.193.129a.646.646,0,0,1-.059.24,5.4,5.4,0,0,0-.088,1.33v.662h2.063l1.646-.023q.105,0,.123.023a.2.2,0,0,1,.018.105v.99q0,.094-.023.111a.236.236,0,0,1-.117.018l-1.646-.023H-16.4v2.051h1.5l1.658-.023q.129,0,.129.117v.979a.176.176,0,0,1-.021.108.176.176,0,0,1-.108.021L-14.9-3.047h-1.5v2.18h2.842l1.523-.023q.1,0,.117.023a.2.2,0,0,1,.018.105V.252a.176.176,0,0,1-.021.108.191.191,0,0,1-.114.021L-13.555.357Zm13.3.252L-9.052.633q-.105,0-.123-.029A.219.219,0,0,1-9.192.492v-.82a.176.176,0,0,1,.021-.108.206.206,0,0,1,.12-.021l1.635.023h2V-1.465h-.639L-7.6-1.441a.185.185,0,0,1-.117-.023.219.219,0,0,1-.018-.111v-.791q0-.094.029-.111A.183.183,0,0,1-7.6-2.5l1.547.023h.639v-.914H-7.37a9.212,9.212,0,0,1-.814,1.2q-.158.205-.217.205t-.182-.17a2.558,2.558,0,0,0-.609-.586L-9.3-1.98a8.509,8.509,0,0,1-.85,2.613q-.141.229-.205.229t-.193-.146A2.654,2.654,0,0,0-11.331,0a6,6,0,0,0,.873-2.355,16.827,16.827,0,0,0,.182-2.719L-10.3-6.732q0-.094.023-.111a.219.219,0,0,1,.111-.018l1.594.023h.891A7.919,7.919,0,0,0-8.225-7.91h-.334l-1.605.023a.214.214,0,0,1-.129-.023.2.2,0,0,1-.018-.105v-.8q0-.1.029-.123a.236.236,0,0,1,.117-.018l1.605.023H-6.18v-.105a5.1,5.1,0,0,0-.088-1.049q.592,0,1.248.064.193.018.193.117a.776.776,0,0,1-.07.229,1.836,1.836,0,0,0-.064.627v.117h2.391l1.623-.023q.094,0,.111.029a.219.219,0,0,1,.018.111v.8q0,.094-.023.111a.2.2,0,0,1-.105.018L-2.583-7.91h-.205a.8.8,0,0,0-.117.205,8,8,0,0,1-.48.867h1.26l1.582-.023q.123,0,.123.129v.8q0,.129-.123.129L-2.137-5.83H-9.075l.012.756a19.852,19.852,0,0,1-.129,2.25A6.067,6.067,0,0,0-7.815-4.945a2.635,2.635,0,0,0,.158-.621,7.834,7.834,0,0,1,1.037.252q.158.053.158.141a.226.226,0,0,1-.082.146,1.348,1.348,0,0,0-.229.428l-.07.182h1.43v-.129a5.314,5.314,0,0,0-.1-1.055q.639.018,1.248.07.193.018.193.117a.706.706,0,0,1-.07.24,2.19,2.19,0,0,0-.059.627v.129h1.283l1.559-.023q.094,0,.111.023a.2.2,0,0,1,.018.105v.82a.176.176,0,0,1-.021.108.176.176,0,0,1-.108.021l-1.559-.023H-4.2v.914h.85L-1.8-2.5a.185.185,0,0,1,.117.023.2.2,0,0,1,.018.105v.791a.191.191,0,0,1-.021.114.191.191,0,0,1-.114.021L-3.35-1.465H-4.2V-.434h1.951L-.6-.457q.094,0,.111.023a.2.2,0,0,1,.018.105v.82A.2.2,0,0,1-.5.615.2.2,0,0,1-.6.633L-2.249.609Zm3.3-8.52H-6.9a11.391,11.391,0,0,1,.469,1.072h1.8A9.264,9.264,0,0,0-4.118-7.91ZM7.065-5.256l1.617-.023q.1,0,.117.023a.219.219,0,0,1,.018.111l-.023.826v.6l.023.838q0,.123-.135.123L7.065-2.783H3.743v.656H7.727L9.456-2.15q.094,0,.111.029A.236.236,0,0,1,9.585-2L9.561-1.1v1l.023.891a.185.185,0,0,1-.023.117.2.2,0,0,1-.105.018H8.483A.185.185,0,0,1,8.366.9.219.219,0,0,1,8.348.791V.469H3.743V.814q0,.1-.023.117a.219.219,0,0,1-.111.018H2.659q-.094,0-.111-.023A.219.219,0,0,1,2.53.814L2.554-.568V-3.744l-.023-1.4q0-.1.023-.117a.2.2,0,0,1,.105-.018l1.705.023ZM8.348-1.213H3.743v.768H8.348ZM7.593-3.674v-.691H3.743v.691ZM8.905-6.756l1.617-.023q.1,0,.117.023a.219.219,0,0,1,.018.111l-.023.516v.416l.023,1.154a.191.191,0,0,1-.021.114.191.191,0,0,1-.114.021H9.579q-.1,0-.117-.029a.183.183,0,0,1-.018-.105V-5.807H1.979v1.248q0,.094-.029.117a.236.236,0,0,1-.117.018H.9q-.1,0-.117-.029a.183.183,0,0,1-.018-.105L.79-5.713v-.346L.766-6.645q0-.1.023-.117A.219.219,0,0,1,.9-6.779l1.617.023h2.5a5.493,5.493,0,0,0-.082-.8q.48,0,1.1.047L5.94-7.6a2.493,2.493,0,0,0-.65-.346l.217-.24L4.13-8.209a5.884,5.884,0,0,1,.346.732.321.321,0,0,1,.029.094q0,.053-.146.088l-.8.152a.665.665,0,0,1-.123.023q-.07,0-.105-.117a7.9,7.9,0,0,0-.369-.973H2.208a5.454,5.454,0,0,1-.879,1q-.211.193-.275.193T.8-7.236a2.818,2.818,0,0,0-.609-.5A5.68,5.68,0,0,0,1.68-9.551a2.592,2.592,0,0,0,.217-.562q.691.088,1.1.176.182.018.182.146a.218.218,0,0,1-.094.17.859.859,0,0,0-.205.287l-.088.164H4.077l1.406-.023q.105,0,.123.023a.159.159,0,0,1,.023.105v.732a5.375,5.375,0,0,0,.744-1.2,3.09,3.09,0,0,0,.205-.6q.621.082,1.025.176.193.035.193.146a.23.23,0,0,1-.094.17,1.421,1.421,0,0,0-.229.393l-.035.07H9.18L10.9-9.193q.094,0,.111.023a.2.2,0,0,1,.018.105v.75q0,.094-.023.111a.2.2,0,0,1-.105.018L9.18-8.209H8.975a4.762,4.762,0,0,1,.357.732.322.322,0,0,1,.029.094q0,.053-.146.088l-.779.141a.647.647,0,0,1-.123.018q-.07,0-.105-.111a8.649,8.649,0,0,0-.4-.961H6.925a4.885,4.885,0,0,1-.434.609.784.784,0,0,1-.182.17.182.182,0,0,1,.012.076.566.566,0,0,1-.07.188,1.087,1.087,0,0,0-.047.41ZM16.467.4,14.8.422A.185.185,0,0,1,14.68.4a.2.2,0,0,1-.018-.105V-.562a.176.176,0,0,1,.021-.108A.191.191,0,0,1,14.8-.691l1.67.023h1.822V-1.846h-.744L16-1.822q-.1,0-.117-.023a.2.2,0,0,1-.018-.105v-.832q0-.094.023-.111A.219.219,0,0,1,16-2.912l1.547.023h.744V-3.926H17.51L15.952-3.9a.214.214,0,0,1-.129-.023.153.153,0,0,1-.018-.094l.023-1.336v-2.66l-.023-1.307q0-.1.023-.117a.277.277,0,0,1,.123-.018l1.559.023h2.854l1.57-.023a.185.185,0,0,1,.117.023.219.219,0,0,1,.018.111l-.023,1.307v2.66l.023,1.336q0,.117-.135.117l-1.57-.023h-.873v1.037H20.4l1.553-.023q.094,0,.111.023a.2.2,0,0,1,.018.105v.832a.176.176,0,0,1-.021.108.176.176,0,0,1-.108.021L20.4-1.846h-.908V-.668h1.377l1.658-.023q.094,0,.111.023a.2.2,0,0,1,.018.105V.293A.176.176,0,0,1,22.634.4a.176.176,0,0,1-.108.021L20.868.4ZM20.9-4.934V-6.217H19.491v1.283Zm0-3.48H19.491V-7.2H20.9Zm-3.943,3.48h1.33V-6.217h-1.33Zm0-2.268h1.33V-8.414h-1.33ZM15.518-3.434q-.012.17-.012.369t.012.41q.006.117.006.17a.4.4,0,0,1-.044.223,1.089,1.089,0,0,1-.261.188,23.687,23.687,0,0,1-2.6,1.148,1.966,1.966,0,0,0-.369.182.326.326,0,0,1-.193.082q-.094,0-.158-.158-.135-.4-.3-1.125a9.05,9.05,0,0,0,1.131-.287l.346-.117V-4.957l-1.055.023a.185.185,0,0,1-.117-.023.2.2,0,0,1-.018-.105V-5.93a.2.2,0,0,1,.023-.123.219.219,0,0,1,.111-.018l1.055.023V-8.162h-.07l-1.131.029a.159.159,0,0,1-.105-.023.316.316,0,0,1-.012-.111v-.879a.2.2,0,0,1,.023-.123.153.153,0,0,1,.094-.018l1.131.023h1.248l1.125-.023q.1,0,.117.029a.219.219,0,0,1,.018.111v.879a.185.185,0,0,1-.023.117.219.219,0,0,1-.111.018L14.27-8.162v2.115l.961-.023q.088,0,.105.023a.343.343,0,0,1,.012.117v.867a.2.2,0,0,1-.018.111.168.168,0,0,1-.1.018l-.961-.023v2.139Q15.032-3.17,15.518-3.434Z" transform="translate(-1011 -5607)" fill="#202020"/>
    <path id="Path_3382" data-name="Path 3382" d="M-2.98.12c1.73,0,3-1.31,3-3.62s-1.27-3.62-3-3.62-3,1.31-3,3.62S-4.7.12-2.98.12Zm0-1.37c-.8,0-1.36-.66-1.36-2.25s.56-2.25,1.36-2.25,1.37.66,1.37,2.25S-2.17-1.25-2.98-1.25ZM3.21-4.37H2.64L2.75-5.7H5.67V-7H1.4L1.04-3.06H2.83c1.27,0,1.63.36,1.63.91,0,.57-.5.91-1.31.91a3.369,3.369,0,0,1-1.99-.63L.52-.63A4.837,4.837,0,0,0,3.19.12C5.19.12,6.1-.96,6.1-2.2S5.28-4.37,3.21-4.37Z" transform="translate(-1011 -5669.623)" fill="#202020"/>
    <path id="Path_3384" data-name="Path 3384" d="M-11.167-4.928a8.446,8.446,0,0,0,.885.047q.363-.48.674-.926a14.239,14.239,0,0,0-1.564-1.752.162.162,0,0,1-.059-.105.506.506,0,0,1,.088-.158l.451-.586q.082-.1.129-.1t.088.059l.287.3a11.576,11.576,0,0,0,.732-1.348,3.635,3.635,0,0,0,.217-.633,9.555,9.555,0,0,1,1,.428q.158.088.158.193a.186.186,0,0,1-.105.158.768.768,0,0,0-.229.287q-.715,1.225-1.049,1.693.48.574.492.6.41-.639.832-1.389a5.237,5.237,0,0,0,.334-.756q.855.363,1,.439t.141.17a.232.232,0,0,1-.129.193,2.054,2.054,0,0,0-.375.469A32.055,32.055,0,0,1-9.046-4.928q.434-.029,1.3-.1-.111-.311-.275-.709a.182.182,0,0,1-.023-.076q0-.064.141-.123l.539-.229A.27.27,0,0,1-7.259-6.2q.053,0,.094.117a10.352,10.352,0,0,1,.721,2.109V-5.83l-.023-1.934q0-.094.023-.111a.2.2,0,0,1,.105-.018l1.523.023h.639v-.914a7.806,7.806,0,0,0-.082-1.2q.316.012,1.2.088.182.018.182.129a.43.43,0,0,1-.029.141q-.035.1-.041.111a2.651,2.651,0,0,0-.059.732v.914h.768l1.529-.023q.094,0,.111.023a.2.2,0,0,1,.018.105l-.023,2v3.3L-.585-.516A1.338,1.338,0,0,1-.907.521a1,1,0,0,1-.521.246A7.47,7.47,0,0,1-2.542.832q-.3,0-.357-.059A.75.75,0,0,1-2.987.457a3.116,3.116,0,0,0-.3-.814q.6.047,1.1.047A.484.484,0,0,0-1.827-.4a.5.5,0,0,0,.076-.328V-2.965a5.955,5.955,0,0,0-.387.768Q-2.2-2-2.278-2T-2.483-2.2A7.37,7.37,0,0,1-3.538-4.945,9.831,9.831,0,0,1-4.516-2.15q-.111.205-.187.205t-.182-.205a4.012,4.012,0,0,0-.445-.738v1.9L-5.307.779a.214.214,0,0,1-.023.129.153.153,0,0,1-.094.018h-.914Q-6.432.926-6.45.9A.236.236,0,0,1-6.468.779l.023-1.9V-3.779a.251.251,0,0,1-.117.07l-.586.217a.594.594,0,0,1-.141.041q-.059,0-.076-.123L-7.5-4.113l-.68.07V-.756L-8.155.82q0,.094-.023.111A.219.219,0,0,1-8.29.949H-9.2q-.094,0-.111-.023A.2.2,0,0,1-9.333.82l.023-1.576V-3.932l-.926.07a1.151,1.151,0,0,0-.457.094.329.329,0,0,1-.176.047q-.117,0-.158-.193A10.061,10.061,0,0,1-11.167-4.928Zm9.416,1.7V-6.8H-3.046A6.976,6.976,0,0,0-1.751-3.229ZM-4.177-6.8H-5.331v3.744A7.5,7.5,0,0,0-4.177-6.8ZM-11.243-.334a6.627,6.627,0,0,0,.5-2.186q.029-.328.029-.551,0-.082-.006-.217a6.173,6.173,0,0,1,.926.193q.205.064.205.141a.305.305,0,0,1-.059.182,1.49,1.49,0,0,0-.1.445A15.971,15.971,0,0,1-10.136-.17q-.094.287-.158.287a.884.884,0,0,1-.275-.141A2.8,2.8,0,0,0-11.243-.334ZM-7.282-3.3a.431.431,0,0,1,.111-.023q.059,0,.094.117a14.4,14.4,0,0,1,.422,2.2q.006.059.006.082,0,.07-.152.123l-.592.182A.5.5,0,0,1-7.516-.6q-.076,0-.088-.135a13.517,13.517,0,0,0-.322-2.244.411.411,0,0,1-.012-.07q0-.076.141-.111ZM7.37-9.586l1.605-.023q.1,0,.117.023a.2.2,0,0,1,.018.105L9.087-8.361v1.74l.023,1.1a.214.214,0,0,1-.023.129.219.219,0,0,1-.111.018L7.37-5.4H4.059l-1.594.023q-.1,0-.117-.029a.236.236,0,0,1-.018-.117l.023-1.1v-1.74L2.331-9.48q0-.094.023-.111a.219.219,0,0,1,.111-.018l1.594.023ZM3.591-8.432v1.881H7.85V-8.432ZM7.253.914H6.315q-.123,0-.123-.135l.023-2.25V-2.59L6.192-4.148a.214.214,0,0,1,.023-.129.168.168,0,0,1,.1-.018l1.318.023H9.286L10.6-4.295q.094,0,.111.029a.236.236,0,0,1,.018.117L10.7-2.771v1.289l.023,2.2A.214.214,0,0,1,10.7.85.2.2,0,0,1,10.6.867H9.649q-.1,0-.117-.029A.236.236,0,0,1,9.514.721V.193H7.382V.779q0,.1-.023.117A.2.2,0,0,1,7.253.914Zm.129-4.055V-.92H9.514V-3.141ZM1.762.914H.819Q.725.914.7.891A.223.223,0,0,1,.684.768L.708-1.471V-2.59L.684-4.16q0-.1.023-.117a.219.219,0,0,1,.111-.018l1.271.023h1.57l1.283-.023q.1,0,.117.023a.219.219,0,0,1,.018.111L5.055-2.795v1.266L5.079.686A.185.185,0,0,1,5.055.8.2.2,0,0,1,4.95.82H4.012q-.123,0-.123-.135V.193H1.9V.768A.214.214,0,0,1,1.874.9.219.219,0,0,1,1.762.914ZM1.9-3.141V-.92H3.889V-3.141Z" transform="translate(-933 -5607)" fill="#202020"/>
    <path id="Path_3383" data-name="Path 3383" d="M-3.19.12c1.73,0,3-1.31,3-3.62s-1.27-3.62-3-3.62-3,1.31-3,3.62S-4.91.12-3.19.12Zm0-1.37c-.8,0-1.36-.66-1.36-2.25s.56-2.25,1.36-2.25,1.37.66,1.37,2.25S-2.38-1.25-3.19-1.25ZM3.97-4.39a2.363,2.363,0,0,0-1.73.62A1.859,1.859,0,0,1,4.21-5.8a2.305,2.305,0,0,1,1.31.35l.6-1.19a3.78,3.78,0,0,0-1.95-.48C2.06-7.12.6-5.77.6-3.35.6-1.09,1.8.12,3.73.12A2.406,2.406,0,0,0,6.38-2.21,2.22,2.22,0,0,0,3.97-4.39Zm-.33,3.3c-.78,0-1.23-.44-1.23-1.04A1.1,1.1,0,0,1,3.62-3.18,1.055,1.055,0,0,1,4.81-2.13,1.047,1.047,0,0,1,3.64-1.09Z" transform="translate(-933 -5669.623)" fill="#202020"/>
    <rect id="Rectangle_131" data-name="Rectangle 131" width="151.963" height="20.292" transform="translate(-1365 -5590)" fill="#f6f4e8"/>
    <path id="Path_3390" data-name="Path 3390" d="M-18.4-6.135a11.147,11.147,0,0,1,.891,2.174.494.494,0,0,1,.012.088q0,.105-.158.152l-.633.205a.419.419,0,0,1-.105.018q-.076,0-.1-.1l-.146-.545q-.275.041-.826.088v3.3l.023,1.57a.185.185,0,0,1-.023.117.2.2,0,0,1-.105.018h-.914q-.1,0-.117-.023a.219.219,0,0,1-.018-.111l.023-1.57V-3.961l-1.131.07a1.123,1.123,0,0,0-.439.1.365.365,0,0,1-.182.059q-.105,0-.146-.205-.088-.434-.164-1.008.439.029.738.029.117,0,.258-.006l.668-.908a16.848,16.848,0,0,0-1.617-1.752q-.07-.076-.07-.111a.477.477,0,0,1,.082-.152l.445-.592q.07-.105.117-.105t.111.07l.3.311a12.24,12.24,0,0,0,.645-1.207,4.024,4.024,0,0,0,.281-.744,9.457,9.457,0,0,1,1.043.439q.158.088.158.193,0,.07-.105.158a.812.812,0,0,0-.229.287q-.58.99-1.061,1.652l.527.6q.352-.551.809-1.33a6.171,6.171,0,0,0,.369-.832q.686.322,1.008.516.146.082.146.182a.208.208,0,0,1-.135.182,1.589,1.589,0,0,0-.393.492q-.867,1.371-1.828,2.6,1.008-.053,1.43-.082-.187-.463-.34-.756A.266.266,0,0,1-19.33-5.9q0-.053.152-.111l.551-.193a.5.5,0,0,1,.117-.023Q-18.451-6.229-18.4-6.135Zm.07-.07a7.544,7.544,0,0,0,1.717-2.9,5.7,5.7,0,0,0,.229-1.02q.6.111,1.166.252.252.076.252.193a.357.357,0,0,1-.117.24,1.448,1.448,0,0,0-.34.609q-.187.533-.275.732h2.268l1.207-.023q.146,0,.146.141-.023.34-.023,1a42.6,42.6,0,0,1-.346,6.012A2.378,2.378,0,0,1-13.066.445a1.753,1.753,0,0,1-1.2.4L-14.7.855q-.275,0-.475-.018A.6.6,0,0,1-15.5.762a1,1,0,0,1-.111-.328,3.167,3.167,0,0,0-.334-.914A11.08,11.08,0,0,0-14.6-.369h.176q.574,0,.768-1.037a36.316,36.316,0,0,0,.3-5.578h-2.865a7.54,7.54,0,0,1-.937,1.342q-.2.217-.264.217t-.252-.217A2.207,2.207,0,0,0-18.328-6.205ZM-16-5.326a11.106,11.106,0,0,1,1.365,2.291.227.227,0,0,1,.029.094q0,.064-.135.135l-.756.457a.257.257,0,0,1-.123.047q-.064,0-.105-.123A12.884,12.884,0,0,0-16.98-4.74a.259.259,0,0,1-.059-.117q0-.053.129-.123l.674-.381a.257.257,0,0,1,.123-.047Q-16.066-5.408-16-5.326Zm-6.65,5.039a9.2,9.2,0,0,0,.527-2.3,4.578,4.578,0,0,0,.029-.475q0-.082-.006-.2.8.105.926.129.205.035.205.146a.669.669,0,0,1-.07.182,1.463,1.463,0,0,0-.076.381,12.455,12.455,0,0,1-.457,2.3q-.07.264-.164.264A.646.646,0,0,1-22.008,0,2.066,2.066,0,0,0-22.646-.287Zm4.33-3.012a.372.372,0,0,1,.105-.023q.064,0,.111.129A17.53,17.53,0,0,1-17.49-.926a.494.494,0,0,1,.012.082q0,.088-.152.135l-.633.217a.464.464,0,0,1-.129.029q-.064,0-.088-.123a15.745,15.745,0,0,0-.545-2.309.373.373,0,0,1-.023-.1q0-.059.135-.1Zm7.77-3.457A2.806,2.806,0,0,1-9.521-8.719a2.83,2.83,0,0,1,1.8-.568,2.819,2.819,0,0,1,2.074.727,2.329,2.329,0,0,1,.662,1.74,2.827,2.827,0,0,1-.457,1.541A8.672,8.672,0,0,1-6.838-3.721,9.991,9.991,0,0,0-9.07-1.178h4.119v1.2h-5.678V-1.043a12.205,12.205,0,0,1,2.619-3.4A7.093,7.093,0,0,0-6.785-5.859a1.952,1.952,0,0,0,.24-.973,1.264,1.264,0,0,0-.369-.979A1.176,1.176,0,0,0-7.746-8.1q-1.189,0-1.3,1.658ZM2.965-4.582l.574.369a3.722,3.722,0,0,1-.955,1.336,1.541,1.541,0,0,1-.961.322A4.6,4.6,0,0,1-.17-3.088,4.052,4.052,0,0,0-1.693-3.58a1.537,1.537,0,0,0-1.26.914l-.586-.346q.691-1.67,1.869-1.67a4.524,4.524,0,0,1,1.693.492,5.033,5.033,0,0,0,1.611.533A1.235,1.235,0,0,0,2.4-3.9,2.549,2.549,0,0,0,2.965-4.582Zm1.928-2.73a2.513,2.513,0,0,1,1.09-1.535,3.09,3.09,0,0,1,1.682-.439,2.891,2.891,0,0,1,2.092.738,2.075,2.075,0,0,1,.656,1.564,2.028,2.028,0,0,1-.521,1.436,2.142,2.142,0,0,1-1.23.627v.082a2.419,2.419,0,0,1,1.494.879,2.3,2.3,0,0,1,.439,1.43A2.544,2.544,0,0,1,9.68-.469,3.033,3.033,0,0,1,7.664.193,2.7,2.7,0,0,1,4.752-1.834l1.471-.434a1.751,1.751,0,0,0,.545,1.031,1.372,1.372,0,0,0,.885.264,1.3,1.3,0,0,0,1.072-.463A1.664,1.664,0,0,0,9.059-2.52q0-1.658-1.775-1.658h-.7V-5.4h.633Q8.9-5.4,8.9-6.844a1.245,1.245,0,0,0-.387-1,1.278,1.278,0,0,0-.873-.287,1.161,1.161,0,0,0-.873.352,1.59,1.59,0,0,0-.4.908ZM14.549.756H13.477a.176.176,0,0,1-.108-.021.176.176,0,0,1-.021-.108l.023-4.271v-2.32L13.348-9.1a.2.2,0,0,1,.023-.123.219.219,0,0,1,.111-.018l1.652.023h4.119l1.658-.023q.094,0,.111.029a.219.219,0,0,1,.018.111l-.023,2.777v2.666L21.041.563q0,.1-.023.117A.2.2,0,0,1,20.912.7H19.846q-.1,0-.117-.023a.219.219,0,0,1-.018-.111V-.023H14.678v.65q0,.094-.023.111A.2.2,0,0,1,14.549.756Zm.129-1.969h5.033v-2.9H14.678Zm0-6.814v2.736h5.033V-8.027Z" transform="translate(-1289 -5576)" fill="#202020"/>
    <rect id="Rectangle_131-2" data-name="Rectangle 131" width="155.285" height="20.292" transform="translate(-1211 -5590)" fill="#f6f4e8"/>
    <path id="Path_3391" data-name="Path 3391" d="M-24.4-6.135a11.147,11.147,0,0,1,.891,2.174.494.494,0,0,1,.012.088q0,.105-.158.152l-.633.205a.419.419,0,0,1-.105.018q-.076,0-.1-.1l-.146-.545q-.275.041-.826.088v3.3l.023,1.57a.185.185,0,0,1-.023.117.2.2,0,0,1-.105.018h-.914q-.1,0-.117-.023a.219.219,0,0,1-.018-.111l.023-1.57V-3.961l-1.131.07a1.123,1.123,0,0,0-.439.1.365.365,0,0,1-.182.059q-.105,0-.146-.205-.088-.434-.164-1.008.439.029.738.029.117,0,.258-.006l.668-.908a16.848,16.848,0,0,0-1.617-1.752q-.07-.076-.07-.111a.477.477,0,0,1,.082-.152l.445-.592q.07-.105.117-.105t.111.07l.3.311a12.24,12.24,0,0,0,.645-1.207,4.024,4.024,0,0,0,.281-.744,9.457,9.457,0,0,1,1.043.439q.158.088.158.193,0,.07-.105.158a.812.812,0,0,0-.229.287q-.58.99-1.061,1.652l.527.6q.352-.551.809-1.33a6.171,6.171,0,0,0,.369-.832q.686.322,1.008.516.146.082.146.182a.208.208,0,0,1-.135.182,1.589,1.589,0,0,0-.393.492q-.867,1.371-1.828,2.6,1.008-.053,1.43-.082-.187-.463-.34-.756A.266.266,0,0,1-25.33-5.9q0-.053.152-.111l.551-.193a.5.5,0,0,1,.117-.023Q-24.451-6.229-24.4-6.135Zm.07-.07a7.544,7.544,0,0,0,1.717-2.9,5.7,5.7,0,0,0,.229-1.02q.6.111,1.166.252.252.076.252.193a.357.357,0,0,1-.117.24,1.448,1.448,0,0,0-.34.609q-.187.533-.275.732h2.268l1.207-.023q.146,0,.146.141-.023.34-.023,1a42.6,42.6,0,0,1-.346,6.012A2.378,2.378,0,0,1-19.066.445a1.753,1.753,0,0,1-1.2.4L-20.7.855q-.275,0-.475-.018A.6.6,0,0,1-21.5.762a1,1,0,0,1-.111-.328,3.167,3.167,0,0,0-.334-.914A11.08,11.08,0,0,0-20.6-.369h.176q.574,0,.768-1.037a36.316,36.316,0,0,0,.3-5.578h-2.865a7.54,7.54,0,0,1-.937,1.342q-.2.217-.264.217t-.252-.217A2.207,2.207,0,0,0-24.328-6.205ZM-22-5.326a11.106,11.106,0,0,1,1.365,2.291.227.227,0,0,1,.029.094q0,.064-.135.135l-.756.457a.257.257,0,0,1-.123.047q-.064,0-.105-.123A12.884,12.884,0,0,0-22.98-4.74a.259.259,0,0,1-.059-.117q0-.053.129-.123l.674-.381a.257.257,0,0,1,.123-.047Q-22.066-5.408-22-5.326Zm-6.65,5.039a9.2,9.2,0,0,0,.527-2.3,4.578,4.578,0,0,0,.029-.475q0-.082-.006-.2.8.105.926.129.205.035.205.146a.669.669,0,0,1-.07.182,1.463,1.463,0,0,0-.076.381,12.455,12.455,0,0,1-.457,2.3q-.07.264-.164.264A.646.646,0,0,1-28.008,0,2.066,2.066,0,0,0-28.646-.287Zm4.33-3.012a.372.372,0,0,1,.105-.023q.064,0,.111.129A17.53,17.53,0,0,1-23.49-.926a.494.494,0,0,1,.012.082q0,.088-.152.135l-.633.217a.464.464,0,0,1-.129.029q-.064,0-.088-.123a15.745,15.745,0,0,0-.545-2.309.373.373,0,0,1-.023-.1q0-.059.135-.1Zm11.449-5.895v8.051h1.705V.023H-16.1V-1.143h1.8V-7.67a6.61,6.61,0,0,1-1.693.814l-.24-1.26A6.784,6.784,0,0,0-14.1-9.193Zm9.832,4.611.574.369a3.722,3.722,0,0,1-.955,1.336,1.541,1.541,0,0,1-.961.322A4.6,4.6,0,0,1-6.17-3.088,4.052,4.052,0,0,0-7.693-3.58a1.537,1.537,0,0,0-1.26.914l-.586-.346q.691-1.67,1.869-1.67a4.524,4.524,0,0,1,1.693.492,5.033,5.033,0,0,0,1.611.533A1.235,1.235,0,0,0-3.6-3.9,2.549,2.549,0,0,0-3.035-4.582Zm1.98-2.174A2.806,2.806,0,0,1-.029-8.719a2.83,2.83,0,0,1,1.8-.568,2.819,2.819,0,0,1,2.074.727,2.329,2.329,0,0,1,.662,1.74,2.827,2.827,0,0,1-.457,1.541A8.672,8.672,0,0,1,2.654-3.721,9.991,9.991,0,0,0,.422-1.178H4.541v1.2H-1.137V-1.043a12.205,12.205,0,0,1,2.619-3.4A7.093,7.093,0,0,0,2.707-5.859a1.952,1.952,0,0,0,.24-.973,1.264,1.264,0,0,0-.369-.979A1.176,1.176,0,0,0,1.746-8.1Q.557-8.1.445-6.445ZM9.6-7.465a6.563,6.563,0,0,1,1.242.48.253.253,0,0,1,.146.217.263.263,0,0,1-.117.217.785.785,0,0,0-.281.357q-.229.51-.357.768h2.83q.311,0,1.852-.059.152,0,.17.24.006.205.006.4t-.006.4q-.018.193-.164.193h-.029l-1.705-.023h-.516A8.56,8.56,0,0,1,12.41-2.6a5.407,5.407,0,0,1-.48,1.166A5.813,5.813,0,0,1,10.119.592.431.431,0,0,1,9.9.674.63.63,0,0,1,9.65.592,3.994,3.994,0,0,0,8.6.135,5.847,5.847,0,0,0,10.729-1.9a5.466,5.466,0,0,0,.627-2.367H9.6a10.3,10.3,0,0,1-1.3,1.6.29.29,0,0,1-.187.105.465.465,0,0,1-.229-.082A3.164,3.164,0,0,0,6.949-3,12.5,12.5,0,0,0,8.373-4.646a10,10,0,0,0,.82-1.465A4.894,4.894,0,0,0,9.6-7.465ZM23.584-.539q.633.059,1.365.059A.373.373,0,0,0,25.371-.9V-3H21.082a6.764,6.764,0,0,1-.633,2.186A7.837,7.837,0,0,1,19.359.721q-.187.205-.252.205-.088,0-.281-.193A2.536,2.536,0,0,0,17.965.17a6.7,6.7,0,0,0,1.219-1.441,5.126,5.126,0,0,0,.6-1.816,19.378,19.378,0,0,0,.164-2.883V-7.74l-.023-1.629a.214.214,0,0,1,.023-.129.2.2,0,0,1,.105-.018l1.6.023h3.334l1.582-.023q.1,0,.117.029a.236.236,0,0,1,.018.117L26.678-7.74v4.717l.035,2.4A1.493,1.493,0,0,1,26.332.492a1.286,1.286,0,0,1-.7.287A9.834,9.834,0,0,1,24.34.838a.666.666,0,0,1-.357-.053.679.679,0,0,1-.088-.316A2.914,2.914,0,0,0,23.584-.539ZM21.205-4.166h4.166V-5.684H21.252Q21.229-4.658,21.205-4.166ZM25.371-8.3H21.252V-6.85h4.119Z" transform="translate(-1133 -5576)" fill="#202020"/>
    <rect id="Rectangle_131-3" data-name="Rectangle 131" width="155.443" height="20.292" transform="translate(-1054 -5590)" fill="#f6f4e8"/>
    <path id="Path_3392" data-name="Path 3392" d="M-24.4-6.135a11.147,11.147,0,0,1,.891,2.174.494.494,0,0,1,.012.088q0,.105-.158.152l-.633.205a.419.419,0,0,1-.105.018q-.076,0-.1-.1l-.146-.545q-.275.041-.826.088v3.3l.023,1.57a.185.185,0,0,1-.023.117.2.2,0,0,1-.105.018h-.914q-.1,0-.117-.023a.219.219,0,0,1-.018-.111l.023-1.57V-3.961l-1.131.07a1.123,1.123,0,0,0-.439.1.365.365,0,0,1-.182.059q-.105,0-.146-.205-.088-.434-.164-1.008.439.029.738.029.117,0,.258-.006l.668-.908a16.848,16.848,0,0,0-1.617-1.752q-.07-.076-.07-.111a.477.477,0,0,1,.082-.152l.445-.592q.07-.105.117-.105t.111.07l.3.311a12.24,12.24,0,0,0,.645-1.207,4.024,4.024,0,0,0,.281-.744,9.457,9.457,0,0,1,1.043.439q.158.088.158.193,0,.07-.105.158a.812.812,0,0,0-.229.287q-.58.99-1.061,1.652l.527.6q.352-.551.809-1.33a6.171,6.171,0,0,0,.369-.832q.686.322,1.008.516.146.082.146.182a.208.208,0,0,1-.135.182,1.589,1.589,0,0,0-.393.492q-.867,1.371-1.828,2.6,1.008-.053,1.43-.082-.187-.463-.34-.756A.266.266,0,0,1-25.33-5.9q0-.053.152-.111l.551-.193a.5.5,0,0,1,.117-.023Q-24.451-6.229-24.4-6.135Zm.07-.07a7.544,7.544,0,0,0,1.717-2.9,5.7,5.7,0,0,0,.229-1.02q.6.111,1.166.252.252.076.252.193a.357.357,0,0,1-.117.24,1.448,1.448,0,0,0-.34.609q-.187.533-.275.732h2.268l1.207-.023q.146,0,.146.141-.023.34-.023,1a42.6,42.6,0,0,1-.346,6.012A2.378,2.378,0,0,1-19.066.445a1.753,1.753,0,0,1-1.2.4L-20.7.855q-.275,0-.475-.018A.6.6,0,0,1-21.5.762a1,1,0,0,1-.111-.328,3.167,3.167,0,0,0-.334-.914A11.08,11.08,0,0,0-20.6-.369h.176q.574,0,.768-1.037a36.316,36.316,0,0,0,.3-5.578h-2.865a7.54,7.54,0,0,1-.937,1.342q-.2.217-.264.217t-.252-.217A2.207,2.207,0,0,0-24.328-6.205ZM-22-5.326a11.106,11.106,0,0,1,1.365,2.291.227.227,0,0,1,.029.094q0,.064-.135.135l-.756.457a.257.257,0,0,1-.123.047q-.064,0-.105-.123A12.884,12.884,0,0,0-22.98-4.74a.259.259,0,0,1-.059-.117q0-.053.129-.123l.674-.381a.257.257,0,0,1,.123-.047Q-22.066-5.408-22-5.326Zm-6.65,5.039a9.2,9.2,0,0,0,.527-2.3,4.578,4.578,0,0,0,.029-.475q0-.082-.006-.2.8.105.926.129.205.035.205.146a.669.669,0,0,1-.07.182,1.463,1.463,0,0,0-.076.381,12.455,12.455,0,0,1-.457,2.3q-.07.264-.164.264A.646.646,0,0,1-28.008,0,2.066,2.066,0,0,0-28.646-.287Zm4.33-3.012a.372.372,0,0,1,.105-.023q.064,0,.111.129A17.53,17.53,0,0,1-23.49-.926a.494.494,0,0,1,.012.082q0,.088-.152.135l-.633.217a.464.464,0,0,1-.129.029q-.064,0-.088-.123a15.745,15.745,0,0,0-.545-2.309.373.373,0,0,1-.023-.1q0-.059.135-.1ZM-16.6-7.312a2.513,2.513,0,0,1,1.09-1.535,3.09,3.09,0,0,1,1.682-.439,2.891,2.891,0,0,1,2.092.738,2.075,2.075,0,0,1,.656,1.564A2.028,2.028,0,0,1-11.6-5.549a2.142,2.142,0,0,1-1.23.627v.082a2.419,2.419,0,0,1,1.494.879,2.3,2.3,0,0,1,.439,1.43,2.544,2.544,0,0,1-.914,2.063,3.033,3.033,0,0,1-2.016.662A2.7,2.7,0,0,1-16.74-1.834l1.471-.434a1.751,1.751,0,0,0,.545,1.031,1.372,1.372,0,0,0,.885.264,1.3,1.3,0,0,0,1.072-.463,1.664,1.664,0,0,0,.334-1.084q0-1.658-1.775-1.658h-.7V-5.4h.633q1.682,0,1.682-1.441a1.245,1.245,0,0,0-.387-1,1.278,1.278,0,0,0-.873-.287,1.161,1.161,0,0,0-.873.352,1.59,1.59,0,0,0-.4.908Zm13.564,2.73.574.369a3.722,3.722,0,0,1-.955,1.336,1.541,1.541,0,0,1-.961.322A4.6,4.6,0,0,1-6.17-3.088,4.052,4.052,0,0,0-7.693-3.58a1.537,1.537,0,0,0-1.26.914l-.586-.346q.691-1.67,1.869-1.67a4.524,4.524,0,0,1,1.693.492,5.033,5.033,0,0,0,1.611.533A1.235,1.235,0,0,0-3.6-3.9,2.549,2.549,0,0,0-3.035-4.582ZM3.6-9.193v6.012H4.74v1.131H3.6V.023H2.215V-2.051H-1.277V-3.111L1.7-9.193ZM2.215-3.182V-5.2q0-.961.07-2.807H2.121q-.41,1.078-1.02,2.4L-.029-3.182ZM9.6-7.465a6.563,6.563,0,0,1,1.242.48.253.253,0,0,1,.146.217.263.263,0,0,1-.117.217.785.785,0,0,0-.281.357q-.229.51-.357.768h2.83q.311,0,1.852-.059.152,0,.17.24.006.205.006.4t-.006.4q-.018.193-.164.193h-.029l-1.705-.023h-.516A8.56,8.56,0,0,1,12.41-2.6a5.407,5.407,0,0,1-.48,1.166A5.813,5.813,0,0,1,10.119.592.431.431,0,0,1,9.9.674.63.63,0,0,1,9.65.592,3.994,3.994,0,0,0,8.6.135,5.847,5.847,0,0,0,10.729-1.9a5.466,5.466,0,0,0,.627-2.367H9.6a10.3,10.3,0,0,1-1.3,1.6.29.29,0,0,1-.187.105.465.465,0,0,1-.229-.082A3.164,3.164,0,0,0,6.949-3,12.5,12.5,0,0,0,8.373-4.646a10,10,0,0,0,.82-1.465A4.894,4.894,0,0,0,9.6-7.465ZM23.584-.539q.633.059,1.365.059A.373.373,0,0,0,25.371-.9V-3H21.082a6.764,6.764,0,0,1-.633,2.186A7.837,7.837,0,0,1,19.359.721q-.187.205-.252.205-.088,0-.281-.193A2.536,2.536,0,0,0,17.965.17a6.7,6.7,0,0,0,1.219-1.441,5.126,5.126,0,0,0,.6-1.816,19.378,19.378,0,0,0,.164-2.883V-7.74l-.023-1.629a.214.214,0,0,1,.023-.129.2.2,0,0,1,.105-.018l1.6.023h3.334l1.582-.023q.1,0,.117.029a.236.236,0,0,1,.018.117L26.678-7.74v4.717l.035,2.4A1.493,1.493,0,0,1,26.332.492a1.286,1.286,0,0,1-.7.287A9.834,9.834,0,0,1,24.34.838a.666.666,0,0,1-.357-.053.679.679,0,0,1-.088-.316A2.914,2.914,0,0,0,23.584-.539ZM21.205-4.166h4.166V-5.684H21.252Q21.229-4.658,21.205-4.166ZM25.371-8.3H21.252V-6.85h4.119Z" transform="translate(-976 -5576)" fill="#202020"/>
    <path id="Icon_awesome-user-tie" data-name="Icon awesome-user-tie" d="M10.1,11.546A5.773,5.773,0,1,0,4.33,5.773,5.772,5.772,0,0,0,10.1,11.546Zm4.321,1.47-2.156,8.632-1.443-6.134,1.443-2.526H7.938l1.443,2.526L7.938,21.648,5.782,13.016A6.051,6.051,0,0,0,0,19.05v1.876a2.165,2.165,0,0,0,2.165,2.165H18.04A2.165,2.165,0,0,0,20.2,20.926V19.05a6.051,6.051,0,0,0-5.782-6.034Z" transform="translate(-1255 -5659)" fill="#9a2327"/>
    <path id="Icon_awesome-clipboard-list" data-name="Icon awesome-clipboard-list" d="M15.154,2.886H11.546a2.886,2.886,0,1,0-5.773,0H2.165A2.165,2.165,0,0,0,0,5.051V20.926a2.165,2.165,0,0,0,2.165,2.165H15.154a2.165,2.165,0,0,0,2.165-2.165V5.051A2.165,2.165,0,0,0,15.154,2.886ZM4.33,19.122A1.082,1.082,0,1,1,5.412,18.04,1.08,1.08,0,0,1,4.33,19.122Zm0-4.33A1.082,1.082,0,1,1,5.412,13.71,1.08,1.08,0,0,1,4.33,14.793Zm0-4.33A1.082,1.082,0,1,1,5.412,9.381,1.08,1.08,0,0,1,4.33,10.463ZM8.659,1.8A1.082,1.082,0,1,1,7.577,2.886,1.08,1.08,0,0,1,8.659,1.8Zm5.773,16.6a.362.362,0,0,1-.361.361H7.577a.362.362,0,0,1-.361-.361v-.722a.362.362,0,0,1,.361-.361h6.494a.362.362,0,0,1,.361.361Zm0-4.33a.362.362,0,0,1-.361.361H7.577a.362.362,0,0,1-.361-.361V13.35a.362.362,0,0,1,.361-.361h6.494a.362.362,0,0,1,.361.361Zm0-4.33a.362.362,0,0,1-.361.361H7.577a.362.362,0,0,1-.361-.361V9.02a.362.362,0,0,1,.361-.361h6.494a.362.362,0,0,1,.361.361Z" transform="translate(-1176 -5659)" fill="#9a2327"/>
    <g id="Group_307" data-name="Group 307" transform="translate(28.478 201.533)">
      <path id="Path_3359" data-name="Path 3359" d="M71.909,0H82.783a.815.815,0,0,1,.809.809V10.858a.815.815,0,0,1-.809.809H71.909a.815.815,0,0,1-.809-.809V.809A.815.815,0,0,1,71.909,0Z" transform="translate(-1033.719 -5857.533)" fill="#9a2327"/>
      <path id="Path_3360" data-name="Path 3360" d="M9.606,26.887V18.564a.756.756,0,0,0-.764-.764H4.337a.775.775,0,0,0-.6.29L0,22.7v6.124a.756.756,0,0,0,.764.764H3.146a2.718,2.718,0,0,1,2.169-1.1,2.676,2.676,0,0,1,2.169,1.1H16.31a2.718,2.718,0,0,1,2.169-1.1,2.676,2.676,0,0,1,2.169,1.1h1.97a.743.743,0,0,0,.733-.733v-.473a.724.724,0,0,0-.733-.733H10.369a.766.766,0,0,1-.764-.764Zm-2.779-2.81H2.841a.886.886,0,0,1-.886-.886v-.229a.977.977,0,0,1,.2-.565l2.107-2.611a.883.883,0,0,1,.687-.336H6.811a.886.886,0,0,1,.886.886v2.841a.868.868,0,0,1-.87.9Z" transform="translate(-973.478 -5872.615)" fill="#9a2327"/>
      <circle id="Ellipse_15" data-name="Ellipse 15" cx="1.909" cy="1.909" r="1.909" transform="translate(-970.102 -5843.315)" fill="#9a2327"/>
      <circle id="Ellipse_16" data-name="Ellipse 16" cx="1.909" cy="1.909" r="1.909" transform="translate(-956.893 -5843.315)" fill="#9a2327"/>
    </g>
    <g id="Group_306" data-name="Group 306" transform="translate(17.435 201.432)">
      <path id="Path_3361" data-name="Path 3361" d="M55.647,2.484,51.383,0,42.068,5.427l4.263,2.484Z" transform="translate(-1157.714 -5860.432)" fill="#9a2327"/>
      <path id="Path_3362" data-name="Path 3362" d="M161.763,64.3l-9.315,5.427,3.475,2.025,9.315-5.427Z" transform="translate(-1262.254 -5921.335)" fill="#9a2327"/>
      <path id="Path_3363" data-name="Path 3363" d="M233.131,134.034v10.854l9.31-5.424V128.61Z" transform="translate(-1338.669 -5982.238)" fill="#9a2327"/>
      <path id="Path_3364" data-name="Path 3364" d="M27.169,139.464l9.31,5.424V134.034l-9.31-5.424Z" transform="translate(-1143.604 -5982.238)" fill="#9a2327"/>
    </g>
    <path id="Subtraction_2" data-name="Subtraction 2" d="M21.942,20.442H1.079A1.089,1.089,0,0,1,0,19.346V1.1A1.089,1.089,0,0,1,1.079,0H6.115A1.089,1.089,0,0,1,7.194,1.1v8.957l6.255-4.039a1.06,1.06,0,0,1,.576-.173,1.091,1.091,0,0,1,1.083,1.1v3.115l6.255-4.039a1.061,1.061,0,0,1,.576-.173,1.091,1.091,0,0,1,1.083,1.1V19.346A1.089,1.089,0,0,1,21.942,20.442Zm-6.835-7.357V16.33h3.2V13.085Zm-7.673,0V16.33h3.2V13.085Z" transform="translate(-1023 -5657)" fill="#9a2327"/>
    <path id="Icon_zocial-email" data-name="Icon zocial-email" d="M.072,18.958V5.515q0-.023.07-.443L8.054,11.84.165,19.425a1.978,1.978,0,0,1-.093-.467Zm1.05-14.82a1.006,1.006,0,0,1,.4-.07H22.827a1.322,1.322,0,0,1,.42.07l-7.935,6.791-1.05.84-2.077,1.7-2.077-1.7-1.05-.84Zm.023,16.2L9.1,12.7l3.081,2.5,3.081-2.5,7.958,7.632a1.121,1.121,0,0,1-.4.07H1.519a1.057,1.057,0,0,1-.373-.07Zm15.17-8.5L24.2,5.072a1.393,1.393,0,0,1,.07.443V18.958a1.789,1.789,0,0,1-.07.467Z" transform="translate(-1335.072 -5659.068)" fill="#9a2327"/>
  </g>
</svg>
