<svg xmlns="http://www.w3.org/2000/svg" width="60" height="81" viewBox="0 0 60 81">
  <g id="Group_308" data-name="Group 308" transform="translate(-160 -8642)">
    <text id="_" data-name="  " transform="translate(190 8720)" fill="#202020" font-size="10" font-family="YuGothic-Regular, Yu Gothic"><tspan x="-2.852" y="0" xml:space="preserve">  </tspan></text>
    <circle id="Ellipse_18" data-name="Ellipse 18" cx="30" cy="30" r="30" transform="translate(160 8642)" fill="#f1ebd3"/>
    <path id="Icon_awesome-instagram" data-name="Icon awesome-instagram" d="M15.188,9.637a7.787,7.787,0,1,0,7.787,7.787A7.775,7.775,0,0,0,15.188,9.637Zm0,12.85a5.063,5.063,0,1,1,5.063-5.063A5.072,5.072,0,0,1,15.188,22.487ZM25.111,9.318A1.816,1.816,0,1,1,23.294,7.5,1.812,1.812,0,0,1,25.111,9.318Zm5.158,1.843A8.988,8.988,0,0,0,27.815,4.8a9.048,9.048,0,0,0-6.364-2.453c-2.508-.142-10.024-.142-12.532,0A9.035,9.035,0,0,0,2.555,4.791,9.018,9.018,0,0,0,.1,11.155c-.142,2.508-.142,10.024,0,12.531A8.988,8.988,0,0,0,2.555,30.05,9.06,9.06,0,0,0,8.919,32.5c2.508.142,10.024.142,12.532,0a8.989,8.989,0,0,0,6.364-2.453,9.047,9.047,0,0,0,2.453-6.364c.142-2.508.142-10.017,0-12.524Zm-3.24,15.215a5.126,5.126,0,0,1-2.887,2.887c-2,.793-6.744.61-8.953.61s-6.961.176-8.953-.61a5.126,5.126,0,0,1-2.887-2.887c-.793-2-.61-6.743-.61-8.953s-.176-6.96.61-8.953A5.126,5.126,0,0,1,6.235,5.584c2-.793,6.744-.61,8.953-.61s6.961-.176,8.953.61a5.126,5.126,0,0,1,2.887,2.887c.793,2,.61,6.743.61,8.953S27.822,24.384,27.029,26.377Z" transform="translate(174.005 8655.762)" fill="#9a2327"/>
  </g>
</svg>
