<svg xmlns="http://www.w3.org/2000/svg" width="24.346" height="23" viewBox="0 0 24.346 23"><g transform="translate(0.514 0.514)"><path d="M37.191,5.371V6.733a1.291,1.291,0,1,1-2.581,0V4.289a1.291,1.291,0,0,1,2.581,0Z" transform="translate(-29.192 -3)" fill="#fff"/><path d="M94.94,5.371V6.733a1.29,1.29,0,1,1-2.58,0V4.289a1.29,1.29,0,1,1,2.58,0Z" transform="translate(-77.043 -3)" fill="#fff"/><path d="M26.317,48.46V60.239a2.4,2.4,0,0,1-2.4,2.4H5.4a2.4,2.4,0,0,1-2.4-2.4V48.46Z" transform="translate(-3 -40.668)" fill="#fff"/><path d="M26.317,19.23v3.022H3V19.23a2.4,2.4,0,0,1,2.4-2.4H8.418v1.363a1.291,1.291,0,0,0,2.581,0V16.83h7.318v1.363a1.29,1.29,0,1,0,2.58,0V16.83h3.02A2.4,2.4,0,0,1,26.317,19.23Z" transform="translate(-3 -14.459)" fill="#f3eee6"/></g><path d="M62.105,14.858H58.754a.514.514,0,1,1,0-1.028h3.351a.514.514,0,0,1,0,1.028Z" transform="translate(-48.257 -11.459)" fill="#444"/><path d="M21.432,34.459H2.914A2.917,2.917,0,0,1,0,31.545v-14.8A2.917,2.917,0,0,1,2.914,13.83H3.949a.514.514,0,1,1,0,1.028H2.914a1.888,1.888,0,0,0-1.886,1.886v14.8a1.888,1.888,0,0,0,1.886,1.886H21.432a1.888,1.888,0,0,0,1.886-1.886v-14.8a1.888,1.888,0,0,0-1.886-1.886H20.4a.514.514,0,1,1,0-1.028h1.035a2.917,2.917,0,0,1,2.914,2.914v14.8A2.917,2.917,0,0,1,21.432,34.459Z" transform="translate(0 -11.459)" fill="#444"/><path d="M23.831,46.5H.514a.514.514,0,1,1,0-1.028H23.831a.514.514,0,1,1,0,1.028Z" transform="translate(0 -37.676)" fill="#444"/><path d="M91.165,6.053a1.807,1.807,0,0,1-1.8-1.8V1.8a1.8,1.8,0,1,1,3.61,0V4.249a1.807,1.807,0,0,1-1.8,1.8Zm0-5.024a.777.777,0,0,0-.776.776V4.249a.776.776,0,1,0,1.553,0V1.8a.777.777,0,0,0-.776-.776Z" transform="translate(-74.043 0)" fill="#444"/><g transform="translate(3.829 11.258)"><path d="M24.755,66.708h-1.9a.514.514,0,1,1,0-1.028h1.9a.514.514,0,1,1,0,1.028Z" transform="translate(-22.34 -65.68)" fill="#444"/><path d="M51.505,66.708H49.6a.514.514,0,0,1,0-1.028h1.9a.514.514,0,1,1,0,1.028Z" transform="translate(-44.505 -65.68)" fill="#444"/><path d="M78.255,66.708h-1.9a.514.514,0,0,1,0-1.028h1.9a.514.514,0,0,1,0,1.028Z" transform="translate(-66.669 -65.68)" fill="#444"/><path d="M105.005,66.708h-1.9a.514.514,0,0,1,0-1.028h1.9a.514.514,0,1,1,0,1.028Z" transform="translate(-88.834 -65.68)" fill="#444"/><path d="M24.755,87.1h-1.9a.514.514,0,0,1,0-1.028h1.9a.514.514,0,0,1,0,1.028Z" transform="translate(-22.34 -82.575)" fill="#444"/><path d="M51.505,87.1H49.6a.514.514,0,0,1,0-1.028h1.9a.514.514,0,0,1,0,1.028Z" transform="translate(-44.505 -82.575)" fill="#444"/><path d="M78.255,87.1h-1.9a.514.514,0,0,1,0-1.028h1.9a.514.514,0,0,1,0,1.028Z" transform="translate(-66.669 -82.575)" fill="#444"/><path d="M105.005,87.1h-1.9a.514.514,0,0,1,0-1.028h1.9a.514.514,0,1,1,0,1.028Z" transform="translate(-88.834 -82.575)" fill="#444"/><path d="M24.755,107.488h-1.9a.514.514,0,0,1,0-1.028h1.9a.514.514,0,0,1,0,1.028Z" transform="translate(-22.34 -99.47)" fill="#444"/><path d="M51.505,107.488H49.6a.514.514,0,0,1,0-1.028h1.9a.514.514,0,0,1,0,1.028Z" transform="translate(-44.505 -99.47)" fill="#444"/><path d="M78.255,107.488h-1.9a.514.514,0,0,1,0-1.028h1.9a.514.514,0,0,1,0,1.028Z" transform="translate(-66.669 -99.47)" fill="#444"/><path d="M105.005,107.488h-1.9a.514.514,0,0,1,0-1.028h1.9a.514.514,0,1,1,0,1.028Z" transform="translate(-88.834 -99.47)" fill="#444"/></g><path d="M33.415,6.053a1.807,1.807,0,0,1-1.8-1.8V1.8a1.8,1.8,0,0,1,3.61,0V4.249a1.807,1.807,0,0,1-1.8,1.8Zm0-5.024a.777.777,0,0,0-.776.776V4.249a.776.776,0,0,0,1.553,0V1.8a.777.777,0,0,0-.777-.776Z" transform="translate(-26.192 0)" fill="#444"/></svg>