<svg xmlns="http://www.w3.org/2000/svg" width="16.988" height="22.98" viewBox="0 0 16.988 22.98">
  <g id="icon_map01" transform="translate(-5.634 0.25)">
    <g id="グループ_3225" data-name="グループ 3225" transform="translate(1.43)">
      <g id="グループ_3224" data-name="グループ 3224" transform="translate(4.455)">
        <path id="パス_3684" data-name="パス 3684" d="M19.439,22.48h0a1.987,1.987,0,0,1-1.875-1.3l-.786-2.125a14.635,14.635,0,0,0-3.263-5.072A8.159,8.159,0,0,1,11.2,7.894,8.32,8.32,0,0,1,19.421,0h.018a8.243,8.243,0,0,1,5.834,14.068,14.193,14.193,0,0,0-3.239,5.162l-.72,1.947a1.981,1.981,0,0,1-1.875,1.3Zm0-21.3h-.018a7.127,7.127,0,0,0-7.037,6.757,6.976,6.976,0,0,0,1.983,5.209,15.842,15.842,0,0,1,3.524,5.483l.786,2.125a.813.813,0,0,0,1.524,0l.72-1.947a15.29,15.29,0,0,1,3.513-5.584A7.055,7.055,0,0,0,19.439,1.185Z" transform="translate(-11.197)" fill="#fff" stroke="#fff" stroke-width="0.5"/>
        <path id="パス_3685" data-name="パス 3685" d="M22.106,15.113A4.316,4.316,0,1,1,26.423,10.8,4.319,4.319,0,0,1,22.106,15.113Zm0-7.448A3.132,3.132,0,1,0,25.238,10.8,3.135,3.135,0,0,0,22.106,7.665Z" transform="translate(-13.865 -2.622)" fill="none"/>
        <path id="パス_3686" data-name="パス 3686" d="M22.106,15.123a4.316,4.316,0,1,1,4.316-4.316A4.319,4.319,0,0,1,22.106,15.123Zm0-7.448a3.132,3.132,0,1,0,3.132,3.132A3.135,3.135,0,0,0,22.106,7.675Z" transform="translate(-13.865 -2.626)" fill="#fff" stroke="#fff" stroke-width="0.5"/>
      </g>
    </g>
  </g>
</svg>
