<svg xmlns="http://www.w3.org/2000/svg" width="27.73" height="27.729" viewBox="0 0 27.73 27.729"><path d="M22.8,19.075c.4-.347,6.84,3.405,6.36,4.63-.627,1.6-3.553,5.851-6.009,5.482-5.21-.782-9.729-4.137-12.858-7.264S3.808,14.276,3.026,9.065C2.656,6.609,6.9,3.684,8.507,3.056c1.225-.48,4.979,5.958,4.632,6.36-.884,1.024-2.508,1.934-2.54,2.428s1.392,3.234,3.964,5.806,5.311,4,5.806,3.964,1.4-1.655,2.428-2.54Z" transform="translate(-2.233 -2.253)" fill="#7c7c7c"/><path d="M21.285,27.734a2.438,2.438,0,0,1-.4-.03c-5.664-.852-10.38-4.557-13.34-7.516S.883,12.512.034,6.848C-.4,3.943,4.163.789,5.972.082c.556-.216,1.422-.136,3.24,2.434a25.092,25.092,0,0,1,1.69,2.76c.7,1.338.806,1.866.471,2.255A11.54,11.54,0,0,1,9.841,8.914a8.563,8.563,0,0,0-.85.733,17.138,17.138,0,0,0,3.789,5.311,17.138,17.138,0,0,0,5.311,3.789,8.563,8.563,0,0,0,.733-.85,11.709,11.709,0,0,1,1.383-1.535c.389-.335.914-.227,2.255.471a25.092,25.092,0,0,1,2.76,1.69c2.57,1.818,2.65,2.687,2.434,3.24-.677,1.727-3.582,5.968-6.37,5.968ZM6.368,1.318c-1.7.7-5.339,3.424-5.052,5.335.8,5.316,4.33,9.795,7.151,12.616s7.3,6.353,12.616,7.151c1.911.285,4.632-3.355,5.335-5.054a7.754,7.754,0,0,0-2.585-2.222,16.8,16.8,0,0,0-2.972-1.621A13.159,13.159,0,0,0,19.837,18.7c-.636.8-1.055,1.321-1.613,1.358-.925.065-3.965-1.792-6.362-4.189S7.611,10.434,7.673,9.511c.037-.558.562-.979,1.358-1.613a13.159,13.159,0,0,0,1.182-1.022A16.878,16.878,0,0,0,8.592,3.9,7.754,7.754,0,0,0,6.37,1.318Z" transform="translate(-0.005 -0.005)" fill="#444"/></svg>