<svg xmlns="http://www.w3.org/2000/svg" width="17.438" height="17.438" viewBox="0 0 17.438 17.438">
  <path id="Icon_awesome-phone-alt" data-name="Icon awesome-phone-alt" d="M16.94,12.323l-3.815-1.635a.817.817,0,0,0-.954.235l-1.689,2.064A12.624,12.624,0,0,1,4.448,6.952L6.512,5.263a.815.815,0,0,0,.235-.954L5.112.494A.823.823,0,0,0,4.176.021L.633.838a.817.817,0,0,0-.633.8,15.8,15.8,0,0,0,15.8,15.8.817.817,0,0,0,.8-.633l.817-3.542a.827.827,0,0,0-.477-.94Z" transform="translate(0 0)" fill="#fff"/>
</svg>
