<?xml version="1.0" encoding="UTF-8"?>
<svg id="Layer_2" data-name="Layer 2" xmlns="http://www.w3.org/2000/svg" viewBox="0 0 457.54 125.69">
  <defs>
    <style>
      .cls-1 {
        fill: #101010;
        stroke-width: 0px;
      }
    </style>
  </defs>
  <g id="Layer_2-2" data-name="Layer 2">
    <g>
      <g>
        <path class="cls-1" d="M173.74,53.02v8.19c0,2.61-1.47,5.07-4.78,5.07-.22,0-1.18-.15-2.65-.65l-16.12-6.52v2.1c0,3.55-2.65,5.36-5.52,5.36h-9.57c-3.24,0-5.45-2.17-5.45-5.36v-2.17l-6.11,2.54c-2.8,1.16-5.45,2.25-7.43,3.04-1.25.51-3.9,1.67-5.15,1.67-3.39,0-4.86-2.46-4.86-5.07v-8.26c0-2.32,1.25-3.84,2.8-4.71-.81-.94-1.33-2.32-1.33-3.84v-23.83c0-.65.15-1.38.37-2.1-1.1-.87-1.84-2.25-1.84-4.06v-6.59c0-2.68,1.91-5.43,5.45-5.43h18.99c.96-1.52,2.72-2.32,4.56-2.32h9.64c1.91,0,3.61.87,4.64,2.32h18.92c3.09,0,5.45,2.32,5.45,5.43v6.52c0,1.67-.66,3.19-1.84,4.13.22.65.37,1.38.37,2.1v23.76c0,1.59-.52,2.9-1.4,3.98,1.62.8,2.87,2.32,2.87,4.71ZM168.58,51.86l-17.74-5.65h15.31c1.18,0,1.84-.65,1.84-1.88v-23.32c0-1.23-.66-1.88-1.84-1.88h-20.17v-3.55h22.3c.74,0,1.25-.36,1.25-1.23v-6.52c0-.87-.52-1.23-1.25-1.23h-22.3v-1.16c0-.8-.44-1.23-1.25-1.23h-9.64c-.88,0-1.18.43-1.18,1.23v1.16h-22.38c-.81,0-1.18.36-1.18,1.23v6.59c0,.8.37,1.16,1.18,1.16h22.38v3.55h-20.24c-1.25,0-1.84.65-1.84,1.88v23.4c0,1.23.59,1.81,1.84,1.81h15.38l-17.89,5.65c-.59.15-.81.51-.81,1.09v8.26c0,.58.15.87.59.87.07,0,.29-.07.52-.15l22.45-9.2v8.48c0,.87.29,1.16,1.18,1.16h9.57c.88,0,1.33-.29,1.33-1.16v-8.4l22.38,9.13c.15.07.37.15.59.15.37,0,.59-.29.59-.87v-8.19c0-.58-.37-1.01-.96-1.16ZM123.02,26.29h10.89v3.4h-10.89v-3.4ZM123.02,35.64h10.89v3.4h-10.89v-3.4ZM145.99,26.29h10.82v3.4h-10.82v-3.4ZM145.99,35.64h10.82v3.4h-10.82v-3.4Z"/>
        <path class="cls-1" d="M220.48,47.88v13.25c0,3.12-2.28,5.36-5.45,5.36h-8.98c-3.17,0-5.45-2.25-5.45-5.29v-13.33h-.15l-3.83,14.41-.07.14c-.88,2.25-2.72,3.48-5.23,3.48h-9.27c-3.39,0-5.15-2.39-5.15-4.71,0-.8.22-1.45.29-1.81l3.97-12.46.07-.22c.07-.07.07-.14.15-.22-1.03-1.01-1.69-2.54-1.69-4.2v-21.01c0-.65.07-1.23.29-1.81-1.99-.8-3.24-2.61-3.24-4.93v-6.52c0-3.04,2.28-5.36,5.45-5.36h18.99c.88-1.59,2.65-2.68,4.78-2.68h9.35c2.06,0,3.83,1.09,4.71,2.68h18.92c3.09,0,5.45,2.32,5.45,5.36v6.52c0,2.32-1.33,4.13-3.24,4.93.15.58.22,1.23.22,1.81v20.93c0,1.74-.59,3.19-1.69,4.27.07.14.15.22.15.36l.15.22,3.75,12.31c.15.43.37,1.01.37,1.81,0,2.25-1.84,4.71-5.15,4.71h-9.35c-2.35,0-4.27-1.3-5.15-3.48l-.15-.36-3.68-14.2h-.15ZM238.96,6.88h-22.45v-1.52c0-.72-.37-1.23-1.18-1.23h-9.35c-.81,0-1.25.51-1.25,1.23v1.52h-22.52c-.81,0-1.18.36-1.18,1.16v6.52c0,.8.37,1.23,1.18,1.23h56.75c.74,0,1.25-.43,1.25-1.23v-6.52c0-.72-.51-1.16-1.25-1.16ZM195.46,47.52h-9.35c-.52,0-.96.29-1.18.87l-3.68,12.24c-.07.22-.15.43-.15.58,0,.36.29.58.96.58h9.27c.74,0,1.03-.22,1.32-.87l3.61-12.24c.07-.22.15-.29.15-.43,0-.43-.37-.72-.96-.72ZM235.28,19.48h-49.46c-1.32,0-1.91.58-1.91,1.81v21.01c0,1.23.66,1.74,1.91,1.74h18.99v17.17c0,.72.37,1.16,1.25,1.16h8.98c.81,0,1.25-.43,1.25-1.23v-17.09h18.99c1.25,0,1.91-.58,1.91-1.81v-20.93c0-1.23-.66-1.81-1.91-1.81ZM195.16,29.33h30.77v4.85h-30.77v-4.85ZM239.77,60.63l-3.53-12.1c-.22-.58-.66-.87-1.25-.87h-9.35c-.59,0-.81.22-.81.65,0,.14,0,.29.07.51l3.46,12.1c.22.65.66.87,1.25.87h9.35c.59,0,.96-.22.96-.58,0-.15-.07-.36-.15-.58Z"/>
        <path class="cls-1" d="M315.22,14.99v11.01c0,3.04-1.4,4.93-4.56,4.93,1.77.94,2.94,2.82,2.94,5.21v23.69c0,4.06-3.17,5.94-6.18,5.94h-25.69c-.96,0-1.84-.14-2.65-.51-.88.43-1.91.65-2.8.65h-3.53c-.66,0-1.32-.07-1.91-.22-.88.58-2.06.94-3.24.94h-6.11c-1.33,0-2.43-.36-3.39-.94-.52.15-1.18.22-1.77.22h-3.68c-3.53,0-5.45-2.54-5.45-5.43l.22-17.17c0-.72.15-1.38.29-1.88-.52-.94-.74-2.03-.74-3.26v-6.52c0-1.38.44-2.75,1.4-3.91l.74-.87c-1.33-1.01-2.13-2.61-2.13-4.71v-8.26c0-1.52.37-3.04,1.62-4.35l6.7-7.46c1.18-1.3,2.87-2.1,4.78-2.1h7.88c2.28,0,5.01,1.52,5.01,4.56,0,.29-.07,1.3-.88,2.54h4.56c.81,0,1.69.29,2.58.72l7.43-6.3c1.25-1.09,2.72-1.45,4.05-1.45h7.8c1.25,0,2.94.43,4.12,1.45l10.38,8.91c.74.65,2.21,2.03,2.21,4.56ZM276.95,24.26c-.15-.8-.59-1.16-1.4-1.16h-5.45c-.66,0-1.03.29-1.03.94l.22,6.81h-6.99l14.43-18.62c.15-.22.22-.36.22-.58s-.22-.36-.74-.36h-7.66c-.52,0-1.1.22-1.47.72l-2.8,3.4h-4.49l8.61-10.29c.22-.29.29-.51.29-.58,0-.29-.22-.43-.74-.43h-7.88c-.66,0-1.18.29-1.55.72l-6.77,7.46c-.44.43-.59.94-.59,1.59v8.26c0,1.23.66,1.81,1.91,1.81h3.9l-5.3,6.37c-.37.36-.51.8-.51,1.3v6.52c0,1.3.66,1.88,1.91,1.88h7.14v21.15c0,.87.29,1.23,1.25,1.23h6.11c.81,0,1.33-.36,1.33-1.23v-21.15h8.02c.66,0,.96-.29.96-.87v-.29l-.96-14.63ZM256.56,42.66h-3.68c-.81,0-1.18.36-1.18,1.16l-.22,16.73c0,.87.29,1.23,1.18,1.23h3.68c.74,0,1.18-.36,1.18-1.23l.29-16.66c0-.87-.44-1.23-1.25-1.23ZM276.06,42.66h-3.61c-.81,0-1.18.36-1.18,1.16l.15,16.73c0,.87.44,1.23,1.32,1.23h3.53c.81,0,1.33-.36,1.33-1.23l-.29-16.66c0-.87-.37-1.23-1.25-1.23ZM299.84,4.64c-.37-.22-.88-.43-1.32-.43h-7.8c-.52,0-1.03.22-1.33.43l-10.53,8.98c-.44.29-.66.8-.66,1.38v11.01c0,.51.15.72.37.72.15,0,.29-.07.59-.22l3.46-3.19v6.23c0,.87.44,1.23,1.25,1.23h20.83c.74,0,1.25-.36,1.25-1.23v-6.59l4.05,3.55c.22.15.37.22.59.22.29,0,.37-.22.37-.72v-11.01c0-.58-.22-1.09-.74-1.38l-10.38-8.98ZM307.49,34.26h-25.84c-1.18,0-1.77.58-1.77,1.81v23.76c0,1.3.59,1.81,1.84,1.81h25.69c1.25,0,1.91-.58,1.91-1.81v-23.69c0-1.23-.66-1.88-1.84-1.88ZM286.15,20.28l8.46-7.24,8.24,7.17h-16.49c-.07,0-.15.07-.22.07ZM290.27,44.26h8.91v7.46h-8.91v-7.46Z"/>
        <path class="cls-1" d="M324.06,35.93c.07-.43.22-1.01.59-1.59-1.18-.29-2.13-.58-2.5-.65-3.09-.8-3.9-3.62-3.9-5.21v-8.4c0-1.16.22-2.25.81-3.11-.66-1.01-.81-2.17-.81-2.97V5.5c0-.51.15-5.14,4.93-5.14.22,0,.88.07,1.77.29.37,0,.96.22,1.69.36,4.05,1.01,8.1,2.1,12.15,3.26.88-1.88,2.58-3.48,5.45-3.48h33.79c4.12,0,6.04,3.12,6.04,6.08v18.69c0,.51-.07.87-.15,1.3,1.18.94,1.77,2.39,1.77,3.98v4.92c0,1.09-.22,1.96-.59,2.68.29.8.52,1.74.52,2.61v19.41c0,3.26-2.28,6.01-6.11,6.01h-11.12c-1.18,0-2.28-.29-3.09-.8-.88.58-1.99.8-3.17.8h-6.18c-.96,0-1.91-.22-2.87-.8-.81.58-1.77.8-2.94.8h-5.89c-1.99,0-5-1.74-5-4.56,0-.22.07-1.23.81-2.61l1.4-2.39h-2.87l-1.18,5.22c-.74,3.11-2.87,4.49-5.45,4.49h-8.24c-2.8,0-5.3-1.59-5.3-4.92,0-.29,0-1.01.22-2.1l5.45-23.69ZM337.75,8.33l-14.13-3.69c-.07-.07-.29-.07-.44-.07-.52,0-.74.29-.74.94v8.47c0,.65.29,1.01.81,1.16l14.13,3.69c.15.07.29.07.44.07.52,0,.74-.29.74-1.01v-8.47c0-.51-.22-.94-.81-1.09ZM337.75,22.96l-14.13-3.69c-.15-.07-.37-.07-.52-.07-.44,0-.66.29-.66.87v8.4c0,.58.29,1.01.81,1.16l14.13,3.77c.15.07.37.07.52.07.44,0,.66-.36.66-1.09v-8.33c0-.58-.22-.94-.81-1.09ZM337.75,35.85h-8.54c-.59,0-1.03.36-1.1,1.01l-5.45,24.41c-.07.14-.07.29-.07.43,0,.51.37.72,1.1.72h8.24c.74,0,1.1-.22,1.18-.87l5.67-24.48v-.36c0-.51-.29-.87-1.03-.87ZM380.22,29.62h-38.42c-.88,0-1.25.43-1.25,1.23v4.92c0,.87.37,1.16,1.25,1.16h3.83l-9.05,15.43c-.15.22-.22.36-.22.51,0,.36.37.43.96.43h6.26c.51,0,1.1-.15,1.47-.72l3.39-5.94h3.17l-8.32,14.7c-.15.29-.22.43-.22.58,0,.29.29.43.81.43h6.26c.59,0,1.03-.22,1.33-.8l8.46-14.92h3.17l-7.8,14.63c-.15.29-.15.51-.15.58,0,.36.22.51.81.51h6.18c.59,0,1.1-.22,1.33-.8l7.66-14.92h1.25v8.4h-3.97c-.88,0-1.25.36-1.25,1.23v4.85c0,.8.37,1.23,1.25,1.23h11.12c1.25,0,1.84-.65,1.84-1.88v-19.41c0-1.23-.59-1.88-1.84-1.88h-27.24l1.33-2.25h26.65c.81,0,1.25-.29,1.25-1.16v-4.92c0-.8-.44-1.23-1.25-1.23ZM378.01,5h-33.79c-1.18,0-1.69.65-1.69,1.88v18.69c0,1.3.52,1.81,1.84,1.81h33.64c1.25,0,1.84-.58,1.84-1.81V6.88c0-1.23-.59-1.88-1.84-1.88ZM353.43,10.86h15.53v2.61h-15.53v-2.61ZM353.43,18.83h15.53v2.68h-15.53v-2.68Z"/>
        <path class="cls-1" d="M456.63,28.47v6.52c0,1.3-.37,2.39-1.03,3.26.59.8.88,1.81.88,2.97v8.4c0,1.59-.74,3.4-2.13,4.35v5.94c0,3.26-2.21,6.01-6.11,6.01h-22.45c-1.25,0-2.36-.29-3.31-.8-.88.51-1.99.8-3.24.8h-22.3c-3.31,0-6.18-2.17-6.18-5.94v-6.01c-1.33-1.01-2.06-2.82-2.06-4.13v-8.4c0-1.09.29-2.17.88-3.12-.66-.94-1.03-2.1-1.03-3.33v-6.52c0-1.52.59-3.04,1.84-4.13-.07-.43-.15-.8-.15-1.23V6.81c0-3.55,2.5-6.01,6.11-6.01h22.89c1.25,0,2.36.36,3.17.87.96-.51,2.06-.87,3.31-.87h23.11c3.53,0,6.11,2.54,6.11,6.08v16.15c0,.43-.07.87-.15,1.38,1.18,1.01,1.84,2.54,1.84,4.06ZM451.18,27.23h-22.97v-1.88c0-.22,0-.36-.07-.51h20.68c1.18,0,1.84-.58,1.84-1.81V6.88c0-1.23-.66-1.88-1.84-1.88h-23.11c-1.25,0-1.77.58-1.77,1.81v16.3c0,.43.15.72.22,1.01h-3.39c.22-.29.29-.58.29-1.09V6.88c0-1.23-.59-1.88-1.84-1.88h-22.89c-1.33,0-1.84.58-1.84,1.81v16.3c0,1.23.59,1.74,1.84,1.74h20.83c0,.15-.07.29-.07.51v1.88h-23.11c-.88,0-1.18.43-1.18,1.23v6.52c0,.8.29,1.23,1.18,1.23h9.64l-9.94,4.06c-.59.22-.74.58-.74,1.16v8.4c0,.58.07.87.44.87.15,0,.29-.07.59-.22l1.03-.51v10c0,1.23.66,1.81,1.91,1.81h22.3c1.18,0,1.84-.65,1.84-1.88v-16.01c0-1.23-.59-1.96-1.84-1.96h-8.39l11.48-5.36h.81l11.48,5.36h-8.83c-1.33,0-1.84.65-1.84,1.88v16.15c0,1.23.59,1.81,1.84,1.81h22.45c1.25,0,1.84-.65,1.84-1.88v-10.07l1.03.51c.29.14.52.14.59.14.44,0,.59-.29.59-.87v-8.4c0-.51-.29-.94-.88-1.16l-9.5-3.84h9.2c.88,0,1.25-.43,1.25-1.23v-6.52c0-.8-.37-1.23-1.18-1.23ZM405.03,12.46h5.59v5.07h-5.59v-5.07ZM405.33,49.47h5.59v4.92h-5.59v-4.92ZM434.03,49.47h5.82v4.92h-5.82v-4.92ZM434.4,12.46h5.82v5.07h-5.82v-5.07Z"/>
      </g>
      <path class="cls-1" d="M79.05,13.6c3.31,0,6,2.69,6,6v83.74c0,3.31-2.69,6-6,6h-1.47v4.19h-11.45v-4.19h-14.89v4.19h-11.45v-4.19h-14.89v4.19h-11.44v-4.19h-1.47c-3.31,0-6-2.69-6-6V19.61c0-3.32,2.69-6,6-6h67.05M21.14,33.88h48.78c.91,0,1.74-.37,2.34-.97.6-.6.97-1.43.97-2.34,0-1.83-1.48-3.31-3.31-3.31H21.14c-.91,0-1.74.37-2.34.97-.6.6-.97,1.43-.97,2.34,0,1.83,1.48,3.31,3.31,3.31M51.1,80.89h20.01c.54,0,1.03-.22,1.38-.57.35-.35.57-.84.57-1.38,0-1.08-.87-1.95-1.95-1.95h-20.01c-.54,0-1.03.22-1.38.57-.35.35-.57.84-.57,1.38,0,1.08.87,1.95,1.95,1.95M19.94,80.89h20.01c.54,0,1.03-.22,1.38-.57.35-.35.57-.84.57-1.38,0-1.08-.87-1.95-1.95-1.95h-20.01c-.54,0-1.03.22-1.38.57-.35.35-.57.84-.57,1.38,0,1.08.87,1.95,1.95,1.95M51.1,88.42h20.01c.54,0,1.03-.22,1.38-.57.35-.35.57-.84.57-1.38,0-1.08-.87-1.95-1.95-1.95h-20.01c-.54,0-1.03.22-1.38.57-.35.35-.57.84-.57,1.38,0,1.08.87,1.95,1.95,1.95M19.94,88.42h20.01c.54,0,1.03-.22,1.38-.57.35-.35.57-.84.57-1.38,0-1.08-.87-1.95-1.95-1.95h-20.01c-.54,0-1.03.22-1.38.57-.35.35-.57.84-.57,1.38,0,1.08.87,1.95,1.95,1.95M51.1,95.95h20.01c.54,0,1.03-.22,1.38-.57.35-.35.57-.84.57-1.38,0-1.08-.87-1.95-1.95-1.95h-20.01c-.54,0-1.03.22-1.38.57-.35.35-.57.84-.57,1.38,0,1.08.87,1.95,1.95,1.95M19.94,95.95h20.01c.54,0,1.03-.22,1.38-.57.35-.35.57-.84.57-1.38,0-1.08-.87-1.95-1.95-1.95h-20.01c-.54,0-1.03.22-1.38.57-.35.35-.57.84-.57,1.38,0,1.08.87,1.95,1.95,1.95M79.05,7.6H12C5.38,7.6,0,12.99,0,19.61v83.74c0,5.05,3.13,9.37,7.55,11.15.46,2.86,2.94,5.04,5.92,5.04h11.44c2.68,0,4.95-1.76,5.72-4.19h3.44c.77,2.43,3.04,4.19,5.72,4.19h11.45c2.68,0,4.95-1.76,5.72-4.19h3.44c.77,2.43,3.04,4.19,5.72,4.19h11.45c2.99,0,5.47-2.18,5.92-5.04,4.42-1.77,7.55-6.1,7.55-11.15V19.61c0-6.62-5.38-12-12-12h0Z"/>
      <g>
        <path class="cls-1" d="M134.74,91.83l2.94-1.96h-12.04l2.94,1.96c-1.01,1.09-2.02,2.12-3.03,3.08,1.64,2.68,3.62,5.09,5.93,7.23,2.37-2.18,4.39-4.67,6.07-7.46-.95-.9-1.88-1.85-2.8-2.85Z"/>
        <path class="cls-1" d="M103.22,72.01v53.68h56.49v-53.68h-56.49ZM148.77,120.15c-7.4-2.61-13.18-5.4-17.36-8.35-4.24,2.99-10.01,5.77-17.31,8.35l-5.36-6.91c6.76-1.8,12.31-4,16.64-6.58-2.06-2.05-3.98-4.36-5.79-6.91-1.49,1.06-3.07,2.08-4.74,3.08l-5.6-5.88c4.65-2.43,8.23-4.79,10.76-7.09h-9.58v-7.42h17.07v-4.9h8.16v4.9h16.88v7.42h-9.29c2.53,2.3,6.12,4.67,10.76,7.09l-5.55,5.88c-1.77-1.06-3.45-2.15-5.03-3.27-1.87,2.64-3.84,5.01-5.93,7.09,4.36,2.61,9.91,4.81,16.64,6.58l-5.41,6.91Z"/>
        <path class="cls-1" d="M192.19,92.43v6.53c.88-1.71,1.33-3.89,1.33-6.53h-1.33Z"/>
        <path class="cls-1" d="M198.69,85.2h-4.36c-.35.47-.7.92-1.04,1.35h4.17c.54-.56.95-1.01,1.23-1.35Z"/>
        <path class="cls-1" d="M203.91,96.49h.71v-4.06h-1.37v3.08c0,.65.22.98.66.98Z"/>
        <path class="cls-1" d="M192.19,102.7h-6.54v-10.12l-1.42-1.45v1.82h-3.27v4.15c1.04-.31,2.12-.67,3.22-1.07v7.61l-.09.05h10.15c.03-.4.08-1.01.14-1.82l-2.18-1.07v1.91Z"/>
        <path class="cls-1" d="M162.79,72.01v53.68h56.49v-53.68h-56.49ZM209.12,120.66c-4.74-1.43-8.33-3.76-10.76-7-2.31,3.3-6.05,5.63-11.24,7l-5.12-6.3c5.06-1.03,8.38-2.47,9.96-4.34h-8.01v-6.3c-.79.31-1.79.65-2.99,1.03v9.38c0,2.36-.44,4-1.33,4.9-.76.81-2.1,1.21-4.03,1.21h-4.41l-1.8-7.42h2.13c.73,0,1.19-.11,1.4-.33.21-.22.31-.7.31-1.45v-4.34c-1.42.28-2.62.5-3.6.65l-1.33-7.7c1.52-.19,3.16-.45,4.93-.79v-5.93h-3.94v-7.56h3.94v-7.56h7.73v7.56h3.27v.56c3.07-2.83,5.39-5.8,6.97-8.91l7.35,1.21c-.13.25-.32.64-.57,1.17h9.77v4.29c-.79,1.09-1.5,2.04-2.13,2.85h5.69v16.14h-6.69v-1.31h-2.09c-1.36,0-2.28-.23-2.75-.7-.57-.5-.85-1.51-.85-3.03v-5.23h-1.23c0,3.86-.49,6.89-1.47,9.1h5.6c-.03.5-.08,1.21-.14,2.15h11.29v6.35h-8.44c1.9,1.8,4.98,3.2,9.25,4.2l-4.65,6.44Z"/>
        <path class="cls-1" d="M222.35,72.01v53.68h56.49v-53.68h-56.49ZM246.99,95.61v10.96c0,1.46.43,2.39,1.28,2.8.54.25,1.61.37,3.22.37,5.15,0,10.92-.16,17.31-.47l.38,8.31c-5.94.34-11.92.51-17.92.51-4.65,0-7.86-.54-9.63-1.63-2.18-1.31-3.27-3.89-3.27-7.74v-12.46l-7.87.56-.57-8.54,8.44-.61v-8.07h8.63v7.46l24.28-1.68c-1.58,6.75-4.02,13.66-7.3,20.72l-8.58-2.05c1.52-2.64,2.91-5.75,4.17-9.33l-12.57.89Z"/>
        <path class="cls-1" d="M281.92,72.01v53.68h56.49v-53.68h-56.49ZM296.46,79.44c5.18,2.64,9.93,5.74,14.23,9.29l-5.78,6.67c-4.4-3.67-9.03-6.7-13.89-9.1l5.45-6.86ZM296.84,118.26l-4.79-7.93c12.96-4.04,23.58-10.87,31.87-20.48l5.41,7.56c-8.35,9.24-19.17,16.19-32.48,20.86Z"/>
        <path class="cls-1" d="M341.49,72.01v53.68h56.49v-53.68h-56.49ZM380.88,105.85c-4.49,5.54-10.64,10.08-18.45,13.62l-6.21-6.63c5.66-2.33,10.35-5.13,14.08-8.4-3.32-1.93-6.69-3.59-10.1-4.99l5.36-5.79c3.1,1.09,6.54,2.6,10.34,4.53,1.52-2.27,2.77-4.79,3.75-7.56h-14.08c-3.03,3.89-6.24,7.17-9.63,9.84l-7.07-4.81c6.32-5.19,11.24-11.01,14.75-17.45l8.82,1.96c-.57,1.03-1.15,2.02-1.76,2.99h19.92c-1.55,9.05-4.79,16.61-9.72,22.68Z"/>
        <path class="cls-1" d="M401.06,72.01v53.68h56.49v-53.68h-56.49ZM448.36,103.28h-38.13v-8.87h38.13v8.87Z"/>
      </g>
    </g>
  </g>
</svg>