<svg xmlns="http://www.w3.org/2000/svg" xmlns:xlink="http://www.w3.org/1999/xlink" width="264" height="264" viewBox="0 0 264 264">
  <defs>
    <linearGradient id="linear-gradient" x1="0.5" x2="0.5" y2="1" gradientUnits="objectBoundingBox">
      <stop offset="0" stop-color="#fedb87"/>
      <stop offset="0.312" stop-color="#b7813e"/>
      <stop offset="0.463" stop-color="#f9d581"/>
      <stop offset="0.594" stop-color="#a06426"/>
      <stop offset="1" stop-color="#eee3b5"/>
    </linearGradient>
    <filter id="Ellipse_1" x="0" y="0" width="264" height="264" filterUnits="userSpaceOnUse">
      <feOffset dy="3" input="SourceAlpha"/>
      <feGaussianBlur stdDeviation="5" result="blur"/>
      <feFlood flood-opacity="0.161"/>
      <feComposite operator="in" in2="blur"/>
      <feComposite in="SourceGraphic"/>
    </filter>
    <linearGradient id="linear-gradient-2" x1="0.5" x2="0.5" y2="1" gradientUnits="objectBoundingBox">
      <stop offset="0" stop-color="#bb1c21"/>
      <stop offset="1" stop-color="#8b191c"/>
    </linearGradient>
    <linearGradient id="linear-gradient-3" x1="0.5" x2="0.5" y2="1" gradientUnits="objectBoundingBox">
      <stop offset="0" stop-color="#fedb87"/>
      <stop offset="1" stop-color="#a06426"/>
    </linearGradient>
  </defs>
  <g id="Group_407" data-name="Group 407" transform="translate(15054 7322)">
    <g transform="matrix(1, 0, 0, 1, -15054, -7322)" filter="url(#Ellipse_1)">
      <circle id="Ellipse_1-2" data-name="Ellipse 1" cx="117" cy="117" r="117" transform="translate(15 12)" fill="url(#linear-gradient)"/>
    </g>
    <circle id="Ellipse_12" data-name="Ellipse 12" cx="110" cy="110" r="110" transform="translate(-15032 -7303)" fill="url(#linear-gradient-2)"/>
    <path id="Path_287" data-name="Path 287" d="M-17.76-8.736h4.224v1.464H-17.76Zm0-3.432h4.224v1.416H-17.76Zm11.592,0v1.416h-4.416v-1.416Zm0,4.9h-4.416V-8.736h4.416Zm2.9,2.136V-14.3h-7.32v-1.368h9.24v-2.664h-9.24V-20.3h-2.952v1.968H-22.56v2.664h9.024V-14.3H-20.52v9.168h4.848A21.707,21.707,0,0,1-23.232-.6a15.626,15.626,0,0,1,1.968,2.4,23.42,23.42,0,0,0,7.728-5.424V2.088h2.952V-3.744A23.787,23.787,0,0,0-2.712,1.848,12.57,12.57,0,0,1-.672-.624,22.882,22.882,0,0,1-8.424-5.136ZM22.56-18.024H13.44v-2.3H10.416v2.3h-9v2.712H22.56ZM4.8-5.04A14.65,14.65,0,0,1,.744-.432,20.747,20.747,0,0,1,3.072,1.224,21.755,21.755,0,0,0,7.728-4.1Zm2.208-6.12h9.984v2.736H7.008ZM20.016-5.976v-7.656H4.152v7.656h6.312v4.968c0,.312-.1.384-.528.408-.384.024-1.9,0-3.12-.048a11.461,11.461,0,0,1,.912,2.736,13.071,13.071,0,0,0,4.392-.432c1.056-.408,1.32-1.128,1.32-2.568V-5.976Zm-3.96,2.184A36.1,36.1,0,0,1,20.208,1.44L23.016.024A38,38,0,0,0,18.672-5.04Z" transform="translate(-14922 -7220)" fill="#fff"/>
    <path id="Path_288" data-name="Path 288" d="M-46.18-11.52V-13.1h12.24v1.58h-4.98v-1.14H-41.3v1.14ZM-31.2-3.16V-5.22h-7.9a6.79,6.79,0,0,0,.16-1.26h5.46V-8.4h-5.44V-9.6h5.84v-1.32h1.6v-4.26H-38.8v-1.74h-2.44v1.74h-7.3v4.26h1.78V-9.6h5.46v1.2h-5.14v1.92h5.12a9.166,9.166,0,0,1-.2,1.26H-48.7v2.06h6.02c-1.1,1.18-3.02,2.22-6.38,2.98a9.706,9.706,0,0,1,1.48,1.92c4.08-1.1,6.3-2.68,7.48-4.46,1.58,2.48,3.96,3.9,7.76,4.5A9.253,9.253,0,0,1-30.94-.3c-3.16-.34-5.4-1.26-6.82-2.86ZM-17.7-13.9h-3.54v1.38h3.54v.68h-4.52v1.48h11.44v-1.48h-4.54v-.68h3.68V-13.9h-3.68v-.68h4.16v-1.44h-4.16v-.9H-17.7v.9h-4.02v1.44h4.02ZM-28.66-5.24A14.577,14.577,0,0,1-29.68-.6a9.991,9.991,0,0,1,1.74.84,18.358,18.358,0,0,0,1.18-5.16Zm5.32-1.38a10.883,10.883,0,0,1,.28,1.08l1.78-.8A17.258,17.258,0,0,0-23-10.54l-1.7.68c.22.42.44.86.64,1.32l-1.86.12c1.26-1.6,2.62-3.58,3.72-5.26l-1.94-.9a32.243,32.243,0,0,1-1.8,3.24,10.06,10.06,0,0,0-.64-.78,45.027,45.027,0,0,0,2.26-4.08l-2.06-.72a24.542,24.542,0,0,1-1.44,3.46c-.16-.14-.32-.28-.46-.42l-1.16,1.6a18.406,18.406,0,0,1,2.28,2.8c-.3.42-.6.82-.9,1.18l-1.44.08.16,2.06,2.86-.2v8.1h2.04V-6.52Zm-.88,1.72a14.907,14.907,0,0,1,.92,3.6l1.76-.58A14.878,14.878,0,0,0-22.56-5.4Zm5.36,1.1H-14v.84h-4.86Zm0-2.22H-14v.86h-4.86Zm0-2.2H-14v.84h-4.86Zm7.12,6.74v-8.2h-9.24v8.2h1.74A15.553,15.553,0,0,1-23.18.34c.44.42,1.1,1.06,1.46,1.48A17.733,17.733,0,0,0-16.92-.6l-1.34-.88h3.64l-1.24.9a34.641,34.641,0,0,1,3.3,2.34L-10.48.64c-.8-.56-2.18-1.4-3.4-2.12ZM-3.4-15.94l-2.5,1.02c.9,2.12,1.86,4.26,2.78,5.96C-5.04-7.54-6.44-5.88-6.44-3.68-6.44-.24-3.42.86.56.86A37.143,37.143,0,0,0,6.98.36l.04-2.88a30.876,30.876,0,0,1-6.54.74c-2.78,0-4.16-.76-4.16-2.2,0-1.4,1.12-2.54,2.78-3.64a59.2,59.2,0,0,1,5.58-2.96c.74-.38,1.38-.72,1.98-1.08L5.28-13.98a12.5,12.5,0,0,1-1.86,1.22c-.94.54-2.68,1.4-4.32,2.36A47.507,47.507,0,0,1-3.4-15.94Zm31.04-.22H18.48v1.86h9.16ZM15.12-16.9A21.279,21.279,0,0,1,10.3-9.42,15.408,15.408,0,0,1,11.54-7,19.481,19.481,0,0,0,13.2-8.88V1.68h2.26v-14a32.435,32.435,0,0,0,1.86-3.86Zm10.76,14V-.94H20.12V-2.9ZM17.84,1.72h2.28V.92h5.76v.74h2.4v-6.4H17.84Zm.32-7.44h9.76V-7.58H18.16ZM28-10.42H18.16v1.84H28Zm-11.42-2.9v1.92h12.8v-1.92Zm16.4,3.6h1.3v1.9h-1.3Zm4.42,1.9H36.08v-1.9H37.4ZM39.42-3.4c-.38-.4-1.76-1.78-2.66-2.62h2.48V-11.5h-3v-1.28h3.08v-2.1H36.24v-2.04H34.12v2.04H30.94v2.1h3.18v1.28h-2.9v5.48h2.36a16.065,16.065,0,0,1-3.16,4.08,12.621,12.621,0,0,1,1,2.18,15.244,15.244,0,0,0,2.7-3.64V1.72h2.12V-4.06a23.956,23.956,0,0,1,1.8,2.48ZM41.9-2.18A12.268,12.268,0,0,1,37.88.28a13.723,13.723,0,0,1,1.54,1.5A14.529,14.529,0,0,0,43.8-.96Zm4.46-7.54H42.4v-1.24h3.96Zm0,2.88H42.4V-8.08h3.96Zm0,2.9H42.4V-5.18h3.96Zm2.24-8.78H45.08c.16-.44.32-.92.46-1.4h3.68v-2.04h-9.7v2.04h3.52c-.06.46-.14.94-.22,1.4H40.26V-2.18H48.6ZM44.72-.94a26.183,26.183,0,0,1,3.12,2.72L49.7.58a26.639,26.639,0,0,0-3.24-2.6Z" transform="translate(-14922 -7119)" fill="#fff" stroke="rgba(0,0,0,0)" stroke-width="1"/>
    <path id="Path_289" data-name="Path 289" d="M-69-11.4v-8.24h3.72v-5.48H-69V-33.6h-5.4v8.48h-4.4v5.48h4.4V-9.16c-1.92.72-3.64,1.4-5.04,1.88l2.32,5.84c3.8-1.76,8.44-4,12.68-6.2l-1.32-5.12Zm21-9.24c0,5.12,0,7.36-.08,7.84-.08.6-.28.72-.68.72-.32,0-.96,0-1.48-.04v-7.52ZM-55.2-2.08c-2.36,0-2.64-.28-2.64-2.72V-16.32l2.16-.96V-5.76h5.44v-6.28a17.743,17.743,0,0,1,1.16,4.72,9.638,9.638,0,0,0,4.4-.72c1.28-.64,1.92-1.76,2-3.72.12-1.68.2-5.84.2-13.56l.2-.92-4.04-1.44-1.04.68-.92.6h.04l-2,.84V-34.2h-5.44v11l-2.16.92v-7.96h-5.52v10.32l-3.76,1.6,2.16,5.12,1.6-.72V-4.8c0,6.2,1.64,7.88,7.6,7.88h7.84c4.96,0,6.64-1.96,7.32-7.72a16.55,16.55,0,0,1-5.04-2.08c-.36,3.84-.76,4.64-2.84,4.64Zm27.28-10.2-2.2,1.2v-8.2h2.72v-5.48h-2.72V-33.6h-5.4v8.84h-3.24v5.48h3.24v11c-1.36.72-2.6,1.32-3.64,1.76L-37-.68c3.36-1.88,7.28-4.24,10.8-6.48ZM-7-21.68A50.91,50.91,0,0,1-8.32-16.4c-.2-2.32-.36-4.76-.48-7.28h7.4v-5.24H-2.92l1.68-1.52a24.255,24.255,0,0,0-4.16-3.8l-3.24,2.8a26.352,26.352,0,0,1,2.68,2.52h-3c0-1.76,0-3.52.04-5.24h-5.52c0,1.72.04,3.48.08,5.24H-26.8v5.24h12.6A114.464,114.464,0,0,0-12.52-7.24c-.48.68-.96,1.32-1.44,1.96l-.36-3.2c-5,1.04-10.2,2.08-13.68,2.64l1.32,5.4c3.16-.76,6.96-1.72,10.72-2.68A22.553,22.553,0,0,1-19.88-.04,28.174,28.174,0,0,1-15.76,3.6,27.214,27.214,0,0,0-10.8-1.04c1.24,3,2.88,4.84,5.04,4.84,3.32,0,4.68-1.44,5.44-6.84a13.846,13.846,0,0,1-3.84-3.2c-.08,3.24-.4,4.6-.8,4.6-.72,0-1.4-1.88-2.04-4.92a51.268,51.268,0,0,0,5.16-14.2ZM-19.64-13.4h-1.84v-3.88h1.84Zm-6.04-8.24V-9H-15.2V-21.64ZM28.68-2.92h-5.8v-7.4H16.96v7.4H11.48V-8.64H6.88a67.685,67.685,0,0,0,7.24-2.56,13.18,13.18,0,0,0,4.28.52h6.56c3.92,0,5.36-1,5.96-4.96a14.786,14.786,0,0,1-4.56-1.72c-.2,1.92-.48,2.28-1.92,2.28H21.52a32.976,32.976,0,0,0,8.84-8.08L25.4-25.32a25.331,25.331,0,0,1-8.72,7.4v-4.56a19.64,19.64,0,0,1,3.2,1.96l2.84-3.68a20.876,20.876,0,0,0-4.16-2.16H31.48v3.64h5.96v-8.76H22.88v-2.68h-6v2.68H2.6v8.76H8.28v-3.64h6.44l-1.8,2.28c1.04.36,2.16.84,3.28,1.36H11.52v7.16A42.1,42.1,0,0,1,6.88-14a16.056,16.056,0,0,0,4.16-6.84L6.28-22.6A12.806,12.806,0,0,1,1.4-16.16l3.88,2.6c-1.44.4-2.88.72-4.36,1A31.033,31.033,0,0,1,4.08-7.88c.56-.12,1.08-.28,1.64-.44V3.8h5.76V2.44h17.2V3.8h5.84V-8.64H28.68Zm-.16-16.6a43.136,43.136,0,0,1,6.12,7.28l4.4-3.08a44.2,44.2,0,0,0-6.4-6.96Zm40.04,9.4v.88H56.16v-.88ZM56.16-1.28V-2.2h12.4v.92Zm12.4-4H56.16v-.88h12.4Zm9.36-10.04V-19.8h-15v-1.04H74.24v-4.12H62.92v-1.12H76.44v-4.44H70.16c.56-.68,1.24-1.44,1.92-2.28l-6.4-1.52a24.665,24.665,0,0,1-1.76,3.8h-7.6a13.493,13.493,0,0,0-2.36-3.8l-5.16,1.6a17.022,17.022,0,0,1,1.36,2.2H43.84v4.44H56.92v1.12H45.96v4.12H56.92v1.04H42.08v4.48h7.24a22.436,22.436,0,0,1-8.88,10.4A34.151,34.151,0,0,1,44.76-.56a28.285,28.285,0,0,0,5.6-5.36V3.76h5.8v-1h12.4v1h6.12V-14.16H55.2c.16-.4.32-.76.48-1.16Z" transform="translate(-14922 -7164)" fill="#dec548"/>
    <path id="Icon_awesome-map-marker-alt" data-name="Icon awesome-map-marker-alt" d="M7.468,21.747C1.169,12.616,0,11.679,0,8.323a8.323,8.323,0,0,1,16.646,0c0,3.356-1.169,4.293-7.468,13.424a1.041,1.041,0,0,1-1.711,0Zm.855-9.956A3.468,3.468,0,1,0,4.855,8.323,3.468,3.468,0,0,0,8.323,11.791Z" transform="translate(-14929.404 -7279.305)" fill="url(#linear-gradient-3)"/>
  </g>
</svg>
