<svg xmlns="http://www.w3.org/2000/svg" width="568.816" height="458.066" viewBox="0 0 568.816 458.066">
  <g id="reason02" transform="translate(-1167.56 -3696.214)">
    <g id="Group_205" data-name="Group 205" transform="translate(568.977 -301)">
      <g id="Union_2" data-name="Union 2" transform="translate(790 4092) rotate(180)" fill="none">
        <path d="M23.978,90a10,10,0,0,1-10-10V22.244l-14-12.288h14A10,10,0,0,1,23.978,0h128a10,10,0,0,1,10,10V80a10,10,0,0,1-10,10Z" stroke="none"/>
        <path d="M 151.9785003662109 89 C 156.9410705566406 89 160.9783935546875 84.96266937255859 160.9783935546875 80.00010681152344 L 160.9783935546875 9.999896049499512 C 160.9783935546875 5.037333488464355 156.9410705566406 1 151.9785003662109 1 L 23.97779655456543 1 C 21.58102607727051 1 19.32569313049316 1.931604146957397 17.62725448608398 3.623208284378052 C 15.92931747436523 5.314291477203369 14.98846340179443 7.564791679382324 14.97804737091064 9.960145950317383 L 14.97369289398193 10.95579147338867 L 2.63353157043457 10.95579147338867 L 14.97790145874023 21.79131317138672 L 14.97790145874023 80.00010681152344 C 14.97790145874023 84.96266937255859 19.01523399353027 89 23.97779655456543 89 L 151.9785003662109 89 M 151.9785003662109 90 L 23.97779655456543 90 C 18.45540046691895 90 13.97790145874023 85.52249908447266 13.97790145874023 80.00010681152344 L 13.97790145874023 22.2441463470459 L -0.02159881591796875 9.955791473388672 L 13.97804737091064 9.955791473388672 C 14.0020055770874 4.453854084014893 18.47023391723633 7.105427357601002e-15 23.97779655456543 7.105427357601002e-15 L 151.9785003662109 7.105427357601002e-15 C 157.5009002685547 7.105427357601002e-15 161.9783935546875 4.477499961853027 161.9783935546875 9.999896049499512 L 161.9783935546875 80.00010681152344 C 161.9783935546875 85.52249908447266 157.5009002685547 90 151.9785003662109 90 Z" stroke="none" fill="#fff"/>
      </g>
      <path id="Path_295" data-name="Path 295" d="M6.112,6.168H1.5v.96H6.112Zm.592,2.1H.672V9.24H6.7ZM5.1,15.656v2.688H2.432V15.656Zm1.04-.976H1.392v5.36h1.04V19.3H6.144ZM1.424,13.5H6.16v-.96H1.424Zm0-2.128H6.16v-.944H1.424ZM9.088,7.176h2.736v2.848c0,1.136.288,1.44,1.264,1.44h1.1c.848,0,1.136-.464,1.232-2.336a2.641,2.641,0,0,1-.992-.432c-.032,1.536-.1,1.744-.384,1.744h-.8c-.256,0-.3-.064-.3-.416V6.12H7.952V8.04a3.69,3.69,0,0,1-1.776,3.408,5.79,5.79,0,0,1,.864.784A4.689,4.689,0,0,0,9.088,8.056ZM13.7,12.44l-.208.048H6.912v1.088H12.96a8.52,8.52,0,0,1-2.1,3.12A8.954,8.954,0,0,1,8.8,13.608l-1.056.32a10.8,10.8,0,0,0,2.24,3.488,10.885,10.885,0,0,1-3.776,1.76,4.146,4.146,0,0,1,.64,1.04,12.245,12.245,0,0,0,4.016-1.984A10.9,10.9,0,0,0,14.672,20.2a5.1,5.1,0,0,1,.768-1.008,10.159,10.159,0,0,1-3.68-1.728,10.383,10.383,0,0,0,2.7-4.72Zm8.96-5.3h2.608V8.568H22.656Zm-1.1,1.424H19.008V7.144h2.544Zm4.816-1.424h2.688V8.568H26.368Zm2.048,6.64h-6.48V12.92h6.48Zm0,1.584h-6.48v-.88h6.48Zm0,1.616h-6.48v-.9h6.48Zm-7.584-4.8V17.7h8.72v-5.52H24.368c.048-.288.112-.592.16-.928H30.88v-.944H24.688c.048-.288.08-.592.128-.864h5.408V6.28H17.888V9.448h5.728c-.032.272-.064.576-.1.864H17.152v.944h6.224c-.048.32-.112.64-.16.928ZM31.28,18.6H19.216V12.424H18.032v7.808h1.184V19.56H31.28ZM39.088,6.424l-1.44-.1a5.489,5.489,0,0,1-.016,1.136c-.032.464-.1,1.04-.176,1.68a15.865,15.865,0,0,1-3.5-.592L33.888,9.72a22.067,22.067,0,0,0,3.44.56c-.128.944-.256,1.952-.352,2.9a14.279,14.279,0,0,1-3.408-.656L33.5,13.752a15.813,15.813,0,0,0,3.344.576c-.08.752-.128,1.392-.128,1.84,0,2.624,1.744,3.568,3.92,3.568,3.168,0,5.28-1.44,5.28-3.824a5.251,5.251,0,0,0-1.632-3.7L42.88,12.5a4.438,4.438,0,0,1,1.744,3.264c0,1.648-1.552,2.72-3.984,2.72-1.824,0-2.688-.96-2.688-2.512,0-.384.032-.944.1-1.584h.576a28.982,28.982,0,0,0,3.136-.16l.032-1.216a23.531,23.531,0,0,1-3.328.208h-.3c.112-.944.24-1.952.352-2.9h.112c1.3,0,2.224-.048,3.248-.144l.032-1.2a21.576,21.576,0,0,1-3.248.208c.1-.672.176-1.232.224-1.648A8.93,8.93,0,0,1,39.088,6.424Zm17.52,11.392V8.632h5.744V7.416H49.712V8.632h5.6v9.184H48.88V19H63.152V17.816Zm19.776-.928h-3.84v-1.2h3.84Zm-3.84-3.264h3.84v1.12h-3.84ZM67.92,10.792V9.64h3.44v1.152ZM76.128,9.64v1.152H72.544V9.64Zm3.088,5.1H77.568v-2H72.544v-1.12h4.768V8.808H72.544V7.88h6.368V6.9H72.544V5.624H71.36V6.9H65.12V7.88h6.24v.928H66.784v2.816H71.36v1.12H66.336v.88H71.36v1.12H64.816v.944H71.36v1.2H66.192V17.8H71.36v1.1c0,.272-.1.368-.4.384-.272,0-1.232.016-2.192-.016a3.945,3.945,0,0,1,.416,1.008,9.553,9.553,0,0,0,2.656-.192c.48-.176.7-.448.7-1.184V17.8h3.84v.72h1.184V15.688h1.648Zm7.872-8.32-1.44-.1a5.489,5.489,0,0,1-.016,1.136c-.032.464-.1,1.04-.176,1.68a15.864,15.864,0,0,1-3.5-.592L81.888,9.72a22.067,22.067,0,0,0,3.44.56c-.128.944-.256,1.952-.352,2.9a14.279,14.279,0,0,1-3.408-.656L81.5,13.752a15.813,15.813,0,0,0,3.344.576c-.08.752-.128,1.392-.128,1.84,0,2.624,1.744,3.568,3.92,3.568,3.168,0,5.28-1.44,5.28-3.824a5.251,5.251,0,0,0-1.632-3.7L90.88,12.5a4.438,4.438,0,0,1,1.744,3.264c0,1.648-1.552,2.72-3.984,2.72-1.824,0-2.688-.96-2.688-2.512,0-.384.032-.944.1-1.584h.576a28.982,28.982,0,0,0,3.136-.16l.032-1.216a23.531,23.531,0,0,1-3.328.208h-.3c.112-.944.24-1.952.352-2.9h.112c1.3,0,2.224-.048,3.248-.144l.032-1.2a21.576,21.576,0,0,1-3.248.208c.1-.672.176-1.232.224-1.648A8.931,8.931,0,0,1,87.088,6.424ZM3.76,29.7A18.668,18.668,0,0,1,.336,36.2,6.263,6.263,0,0,1,.96,37.416a17.492,17.492,0,0,0,1.52-2.144v8.944H3.632V33.1a28.867,28.867,0,0,0,1.232-3.088Zm5.072,2.624h3.776a7.108,7.108,0,0,1-1.84,2.128A7.469,7.469,0,0,1,8.8,32.376Zm6.3,0v-.976H9.408a13.741,13.741,0,0,0,.7-1.472L9.04,29.608a11.125,11.125,0,0,1-3.008,4.336V31.512H4.992V41.576h1.04V34.088a7.35,7.35,0,0,1,.8.64,11.729,11.729,0,0,0,1.392-1.52,8.671,8.671,0,0,0,1.712,1.84,13.59,13.59,0,0,1-3.872,1.6,6.309,6.309,0,0,1,.72.928A14.907,14.907,0,0,0,10.832,35.7a12.206,12.206,0,0,0,4.16,1.728,5.653,5.653,0,0,1,.656-.96,12.192,12.192,0,0,1-3.968-1.424,8.607,8.607,0,0,0,2.176-2.72Zm-2.48,6.032a11.314,11.314,0,0,1-5.184,2.5,3.636,3.636,0,0,1,.624.784,12.13,12.13,0,0,0,5.472-2.912Zm-1.52-1.536a9.861,9.861,0,0,1-3.872,2,5.513,5.513,0,0,1,.672.7,10.681,10.681,0,0,0,4.112-2.336Zm3.008,3.28c-1.424,1.616-4.32,2.624-7.536,3.1a4.026,4.026,0,0,1,.624.944c3.376-.592,6.352-1.728,7.936-3.616Zm7.5-.32L19.9,40.36V36.392h1.6v-1.1H19.9V31.816h1.84V30.7h-4.96v1.12h1.984v3.472H16.96v1.1h1.808v4.32c-.816.272-1.552.5-2.144.672l.272,1.2c1.424-.464,3.248-1.088,4.96-1.664Zm1.968-5.392h2.432v2.032H23.616Zm0-3.008h2.432V33.4H23.616Zm5.9,2.016H27.072V31.384H29.52Zm0,3.024H27.072V34.392H29.52Zm-2.352,6.192V40.424H30.9V39.336H27.168V37.464h3.488v-7.12H22.528v7.12h3.44v1.872H22.336v1.088h3.632v2.192H21.1V43.7h10.3V42.616Zm11.92-12.192-1.44-.1a5.489,5.489,0,0,1-.016,1.136c-.032.464-.1,1.04-.176,1.68a15.864,15.864,0,0,1-3.5-.592l-.064,1.168a22.067,22.067,0,0,0,3.44.56c-.128.944-.256,1.952-.352,2.9a14.279,14.279,0,0,1-3.408-.656L33.5,37.752a15.813,15.813,0,0,0,3.344.576c-.08.752-.128,1.392-.128,1.84,0,2.624,1.744,3.568,3.92,3.568,3.168,0,5.28-1.44,5.28-3.824a5.251,5.251,0,0,0-1.632-3.7L42.88,36.5a4.438,4.438,0,0,1,1.744,3.264c0,1.648-1.552,2.72-3.984,2.72-1.824,0-2.688-.96-2.688-2.512,0-.384.032-.944.1-1.584h.576a28.981,28.981,0,0,0,3.136-.16l.032-1.216a23.531,23.531,0,0,1-3.328.208h-.3c.112-.944.24-1.952.352-2.9h.112c1.3,0,2.224-.048,3.248-.144l.032-1.2a21.576,21.576,0,0,1-3.248.208c.1-.672.176-1.232.224-1.648A8.93,8.93,0,0,1,39.088,30.424Zm21.2,10.784V42.76h-7.5V41.208ZM59.264,36.92v1.36h-6.48V36.92Zm-6.48,2.272h7.648V36.008H51.664v8.224h1.12v-.544h7.5V44.2h1.168V40.28H52.784Zm10.48-8.368H57.84a8.4,8.4,0,0,0,.5-1.008L57.2,29.544a7.509,7.509,0,0,1-1.408,2.208v-.928H51.6a7.963,7.963,0,0,0,.464-.992l-1.1-.288a8.766,8.766,0,0,1-2.3,3.328,7.348,7.348,0,0,1,.976.64,10.909,10.909,0,0,0,1.376-1.7H51.7a10.084,10.084,0,0,1,.752,1.632l1.056-.32a7.262,7.262,0,0,0-.624-1.312h2.848a6.409,6.409,0,0,1-.992.88,5.808,5.808,0,0,1,.656.368v1.008H49.36v2.992h1.12V35.016H61.6v2.048h1.152V34.072H56.528V32.824h-.24a11.134,11.134,0,0,0,.9-1.008h1.28a7.431,7.431,0,0,1,1.072,1.68l1.088-.368a7.958,7.958,0,0,0-.864-1.312h3.5Zm6.384,8.96L67.9,40.36V36.392h1.6v-1.1H67.9V31.816h1.84V30.7h-4.96v1.12h1.984v3.472H64.96v1.1h1.808v4.32c-.816.272-1.552.5-2.144.672l.272,1.2c1.424-.464,3.248-1.088,4.96-1.664Zm1.968-5.392h2.432v2.032H71.616Zm0-3.008h2.432V33.4H71.616Zm5.9,2.016H75.072V31.384H77.52Zm0,3.024H75.072V34.392H77.52Zm-2.352,6.192V40.424H78.9V39.336H75.168V37.464h3.488v-7.12H70.528v7.12h3.44v1.872H70.336v1.088h3.632v2.192H69.1V43.7h10.3V42.616Zm11.92-12.192-1.44-.1a5.489,5.489,0,0,1-.016,1.136c-.032.464-.1,1.04-.176,1.68a15.864,15.864,0,0,1-3.5-.592l-.064,1.168a22.067,22.067,0,0,0,3.44.56c-.128.944-.256,1.952-.352,2.9a14.279,14.279,0,0,1-3.408-.656L81.5,37.752a15.813,15.813,0,0,0,3.344.576c-.08.752-.128,1.392-.128,1.84,0,2.624,1.744,3.568,3.92,3.568,3.168,0,5.28-1.44,5.28-3.824a5.251,5.251,0,0,0-1.632-3.7L90.88,36.5a4.438,4.438,0,0,1,1.744,3.264c0,1.648-1.552,2.72-3.984,2.72-1.824,0-2.688-.96-2.688-2.512,0-.384.032-.944.1-1.584h.576a28.981,28.981,0,0,0,3.136-.16l.032-1.216a23.531,23.531,0,0,1-3.328.208h-.3c.112-.944.24-1.952.352-2.9h.112c1.3,0,2.224-.048,3.248-.144l.032-1.2a21.576,21.576,0,0,1-3.248.208c.1-.672.176-1.232.224-1.648A8.931,8.931,0,0,1,87.088,30.424ZM4.3,53.624a18.343,18.343,0,0,1-3.632,6.3,7.578,7.578,0,0,1,.656,1.152,13.689,13.689,0,0,0,1.488-1.936V68.2H3.984V57.192a28.537,28.537,0,0,0,1.424-3.216Zm5.488,5.984v3.376H7.04V59.608Zm1.1,4.432V58.552H5.9v6.592H7.04v-1.1Zm4.448-8.88H5.44v1.152h7.568V66.584c0,.32-.112.4-.448.416-.352.016-1.52.032-2.8-.016a4.622,4.622,0,0,1,.432,1.216,12.672,12.672,0,0,0,3.2-.224c.56-.192.784-.544.784-1.392V56.312h1.168Zm7.664-.64-1.488-.16a16.717,16.717,0,0,1-.416,3.488c-.96.08-1.9.16-2.432.176a14.089,14.089,0,0,1-1.424,0l.128,1.392c.416-.064,1.072-.144,1.44-.192.416-.048,1.184-.144,2.032-.224a25.613,25.613,0,0,1-3.376,7.984l1.312.512a32.912,32.912,0,0,0,3.36-8.624c.7-.064,1.344-.112,1.728-.112,1.008,0,1.7.272,1.7,1.744a13.552,13.552,0,0,1-.768,4.9,1.322,1.322,0,0,1-1.392.816,7.785,7.785,0,0,1-1.968-.32l.208,1.328a8.7,8.7,0,0,0,1.888.24,2.253,2.253,0,0,0,2.336-1.344,15.2,15.2,0,0,0,.928-5.776c0-2.16-1.168-2.7-2.592-2.7-.384,0-1.056.048-1.808.112.176-.88.32-1.824.416-2.288C22.88,55.16,22.944,54.808,23.008,54.52Zm5.5,1.7-1.168.528a18.8,18.8,0,0,1,2.848,5.792l1.248-.592A28.457,28.457,0,0,0,28.512,56.216Zm8.848-1.76-.32,1.216c1.216.336,4.688,1.04,6.208,1.248l.3-1.232A43.7,43.7,0,0,1,37.36,54.456Zm-.352,2.912-1.344-.176a57.131,57.131,0,0,1-.816,6.5l1.184.288a2.527,2.527,0,0,1,.48-.8,6.271,6.271,0,0,1,4.96-2.144c1.632,0,2.816.912,2.816,2.192,0,2.192-2.464,3.648-7.52,3.024l.384,1.312c5.952.5,8.48-1.44,8.48-4.3,0-1.872-1.632-3.344-4.08-3.344a7.68,7.68,0,0,0-5.216,1.952C36.512,60.84,36.784,58.456,37.008,57.368Zm15.3-3.744a18.343,18.343,0,0,1-3.632,6.3,7.578,7.578,0,0,1,.656,1.152,13.689,13.689,0,0,0,1.488-1.936V68.2h1.168V57.192a28.538,28.538,0,0,0,1.424-3.216Zm5.488,5.984v3.376H55.04V59.608Zm1.1,4.432V58.552H53.9v6.592H55.04v-1.1Zm4.448-8.88h-9.9v1.152h7.568V66.584c0,.32-.112.4-.448.416-.352.016-1.52.032-2.8-.016a4.622,4.622,0,0,1,.432,1.216,12.672,12.672,0,0,0,3.2-.224c.56-.192.784-.544.784-1.392V56.312h1.168ZM68.1,65.32c0-.736.832-1.328,2.352-1.328a7.1,7.1,0,0,1,1.552.16c0,.416.016.8.016,1.072,0,1.1-.784,1.392-1.7,1.392C68.736,66.616,68.1,66.056,68.1,65.32ZM73.168,54.3h-1.36a8.782,8.782,0,0,1,.064.96v1.136h-.736a29.071,29.071,0,0,1-4.1-.352l.016,1.184c1.008.112,2.976.272,4.1.272h.7v2.24h-.864a29.6,29.6,0,0,1-4.032-.3l.016,1.2c1.152.128,2.912.224,4,.224h.912c.016.688.048,1.456.064,2.176a9.164,9.164,0,0,0-1.344-.1c-2.3,0-3.7.992-3.7,2.448,0,1.536,1.248,2.352,3.552,2.352,2.08,0,2.816-1.136,2.816-2.24,0-.256-.016-.592-.032-.992A11.8,11.8,0,0,1,77.12,66.92l.736-1.136a12.733,12.733,0,0,0-4.672-2.5c-.032-.768-.08-1.632-.112-2.464,1.52-.048,2.928-.176,4.432-.368l.016-1.2a39.814,39.814,0,0,1-4.464.432v-2.24c1.536-.08,3.056-.224,4.32-.368l.016-1.168a39.783,39.783,0,0,1-4.336.432c0-.416.016-.768.016-.976A8.009,8.009,0,0,1,73.168,54.3Zm8.1,2.176.144,1.392c1.728-.368,5.808-.752,7.52-.944a6.5,6.5,0,0,0-2.992,5.408c0,3.568,3.376,5.152,6.336,5.264l.464-1.328c-2.608-.1-5.52-1.088-5.52-4.208a5.631,5.631,0,0,1,3.664-5.072,13.4,13.4,0,0,1,3.136-.256v-1.28c-1.072.048-2.576.144-4.32.288-2.944.24-5.968.544-7.008.656C82.384,56.424,81.872,56.456,81.264,56.472ZM91.712,58.7l-.816.352A14.854,14.854,0,0,1,92.208,61.3l.816-.384A18.99,18.99,0,0,0,91.712,58.7Zm1.744-.672-.784.368a14.829,14.829,0,0,1,1.344,2.24l.832-.4A21.131,21.131,0,0,0,93.456,58.024Z" transform="translate(646 4011)" fill="#fff"/>
    </g>
    <g id="Group_206" data-name="Group 206" transform="translate(44.359 96.5)">
      <g id="Union_6" data-name="Union 6" transform="translate(1515.64 3604.5)" fill="none">
        <path d="M24,90a10,10,0,0,1-10-9.956H0L14,67.756V10A10,10,0,0,1,24,0H152a10,10,0,0,1,10,10V80a10,10,0,0,1-10,10Z" stroke="none"/>
        <path d="M 152.0001068115234 89 C 156.9626617431641 89 161 84.96266937255859 161 80.00010681152344 L 161 9.999896049499512 C 161 5.037333488464355 156.9626617431641 1 152.0001068115234 1 L 23.9993953704834 1 C 19.03683280944824 1 14.9995002746582 5.037333488464355 14.9995002746582 9.999896049499512 L 14.9995002746582 68.20868682861328 L 2.655130386352539 79.04420471191406 L 14.9952917098999 79.04420471191406 L 14.99964618682861 80.03985595703125 C 15.0100622177124 82.43521118164062 15.9509162902832 84.68570709228516 17.64885330200195 86.37679290771484 C 19.34729194641113 88.06839752197266 21.60262489318848 89 23.9993953704834 89 L 152.0001068115234 89 M 152.0001068115234 90 L 23.9993953704834 90 C 18.4918327331543 90 14.02360439300537 85.546142578125 13.99964618682861 80.04420471191406 L 1.4210854715202e-14 80.04420471191406 L 13.9995002746582 67.75585174560547 L 13.9995002746582 9.999896049499512 C 13.9995002746582 4.477499961853027 18.47699928283691 7.105427357601002e-15 23.9993953704834 7.105427357601002e-15 L 152.0001068115234 7.105427357601002e-15 C 157.5225067138672 7.105427357601002e-15 162 4.477499961853027 162 9.999896049499512 L 162 80.00010681152344 C 162 85.52249908447266 157.5225067138672 90 152.0001068115234 90 Z" stroke="none" fill="#fff"/>
      </g>
      <path id="Path_294" data-name="Path 294" d="M3.648,12.936H7.36v1.552H3.648Zm0-2.4H7.36v1.52H3.648Zm8.848,0v1.52H8.56v-1.52Zm0,3.952H8.56V12.936H12.5Zm1.2.928V9.592H8.56V8.248h6.416V7.128H8.56v-1.5H7.36v1.5H1.1v1.12H7.36V9.592H2.5v5.824H6.368A15.442,15.442,0,0,1,.7,18.984a4.894,4.894,0,0,1,.832.992A16.758,16.758,0,0,0,7.36,15.912v4.3h1.2V15.864a16.955,16.955,0,0,0,5.952,4.144,3.963,3.963,0,0,1,.832-1.024,15.47,15.47,0,0,1-5.776-3.568ZM30.944,7.464H24.576V5.608H23.344V7.464H17.088V8.6H30.944ZM19.7,15.688a10.214,10.214,0,0,1-2.9,3.232,9.629,9.629,0,0,1,.944.7,13.7,13.7,0,0,0,3.168-3.552Zm.528-4.592h7.648V13.72H20.224ZM29.1,14.76v-4.7H19.04v4.7h4.32v4.064c0,.224-.064.288-.368.288-.272.016-1.264.032-2.368,0a4.82,4.82,0,0,1,.4,1.1,11.237,11.237,0,0,0,2.848-.176c.544-.176.7-.512.7-1.2V14.76ZM26.96,16.216a24.506,24.506,0,0,1,2.96,3.52l1.152-.592a28.265,28.265,0,0,0-3.04-3.44ZM33.5,14.68a11.5,11.5,0,0,1-1.04,3.808,4.156,4.156,0,0,1,.928.448,14.081,14.081,0,0,0,1.136-4.064Zm3.3.176a15.689,15.689,0,0,1,.976,2.928l.912-.3a14.834,14.834,0,0,0-1.024-2.912Zm-.416-3.744a12.2,12.2,0,0,1,.752,1.44l-2.368.1A54.9,54.9,0,0,0,37.952,7.88l-1.008-.448A32.587,32.587,0,0,1,35.328,10.3a12.85,12.85,0,0,0-.928-1.04c.592-.9,1.264-2.16,1.808-3.216l-1.04-.416A20.234,20.234,0,0,1,33.728,8.6c-.16-.144-.3-.288-.464-.416l-.608.784a14.9,14.9,0,0,1,2.064,2.256c-.352.528-.72,1.04-1.056,1.472l-1.056.048.1,1.056c.736-.048,1.6-.1,2.512-.144v6.592h1.056V13.592l1.264-.08a7.445,7.445,0,0,1,.288.928l.9-.4a12.668,12.668,0,0,0-1.5-3.264ZM45.1,14.92v3.312H40.512V14.92Zm-5.68,5.28h1.088v-.912H45.1v.848H46.24V13.848H39.424Zm.672-9.36v1.1h5.3v-1.1Zm1.888-5.072a16.028,16.028,0,0,1-4.272,5.184,4.39,4.39,0,0,1,.7,1.008,18.17,18.17,0,0,0,4.208-4.976,22.641,22.641,0,0,0,4.288,4.88,8.641,8.641,0,0,1,.736-1.088,19.381,19.381,0,0,1-4.5-5.008Zm18.8,2.512H55.408V7.064h5.376Zm0,2.1H55.408V9.128h5.376Zm1.152-4.224H54.288v5.12h7.648ZM52.864,7.464a10.3,10.3,0,0,0-2.72-1.712l-.672.864a11.327,11.327,0,0,1,2.7,1.792Zm-.784,4.128a11.426,11.426,0,0,0-2.752-1.584l-.672.88a11.666,11.666,0,0,1,2.736,1.68Zm-.48,2.576a45.418,45.418,0,0,1-2.592,5.1l1.056.736c.816-1.488,1.744-3.456,2.448-5.136Zm11.712-.912v-.992H52.8v.992h2.256a10.14,10.14,0,0,1-2.912,3.136,5.5,5.5,0,0,1,.848.736,11.935,11.935,0,0,0,1.84-1.776h1.552A10.924,10.924,0,0,1,52.992,19a6.479,6.479,0,0,1,.832.768,13.359,13.359,0,0,0,3.744-4.416h1.584a9.416,9.416,0,0,1-2.928,4.176,8.17,8.17,0,0,1,.9.672,11.649,11.649,0,0,0,3.136-4.848h1.328c-.192,2.432-.4,3.392-.656,3.664-.128.16-.256.176-.5.176a12.2,12.2,0,0,1-1.328-.064,2.588,2.588,0,0,1,.288,1.024,10.445,10.445,0,0,0,1.568.016,1.284,1.284,0,0,0,.912-.416c.4-.464.64-1.68.864-4.864.032-.176.048-.5.048-.5H55.568a11.924,11.924,0,0,0,.688-1.136ZM76.96,9.736H73.968V7.288H76.96Zm1.12-3.424H72.9V10.7H78.08Zm-4.288,12.32V16.088H76.7v2.544Zm-3.648,0H67.28V16.088h2.864Zm-.128-8.9h-2.96V7.288h2.96Zm9.12,3.248V11.912H71.664a9.08,9.08,0,0,0,.72-1.28l-1.152-.368-.1.208V6.312H65.984V10.7h5.04a6.734,6.734,0,0,1-.816,1.216H64.9v1.072h4.272A13.569,13.569,0,0,1,64.5,15.5a4.873,4.873,0,0,1,.736.9,10.6,10.6,0,0,0,.992-.384v4.24H67.28v-.592h2.864V20.2h1.1V15.08h-3.12a11.653,11.653,0,0,0,2.672-2.1h2.416a9.907,9.907,0,0,0,2.576,2.1H72.736v5.168h1.056v-.592H76.7V20.2h1.1V16.04c.336.128.688.24,1.024.336a5.372,5.372,0,0,1,.752-.96,11.507,11.507,0,0,1-4.88-2.432Zm15.84-5.3H88.56v-2.1H87.376v2.1H81.04V8.84H94.976Zm-5.088,2.3a23.926,23.926,0,0,1,4.192,3.632l1.04-.816a24.887,24.887,0,0,0-4.288-3.536ZM85.12,9.336a13.083,13.083,0,0,1-4.208,3.5,6.835,6.835,0,0,1,.976.944A16.917,16.917,0,0,0,86.32,9.8ZM90.3,12.072a9.752,9.752,0,0,1-2.272,3.6,10.265,10.265,0,0,1-2.272-3.52l-1.136.352a12.5,12.5,0,0,0,2.5,3.968,15.544,15.544,0,0,1-6.432,2.688,4.74,4.74,0,0,1,.752,1.12A17.211,17.211,0,0,0,88,17.3a14.132,14.132,0,0,0,6.592,2.912,4.874,4.874,0,0,1,.784-1.12,13.756,13.756,0,0,1-6.448-2.624,11.192,11.192,0,0,0,2.608-4.048ZM107.04,7.8a13.2,13.2,0,0,1-.848,1.568h-3.056A10.074,10.074,0,0,0,104.352,7.8Zm2.464,4.224c-.032.1-.1.112-.32.112h-1.056c-.336,0-.368-.032-.368-.288v-1.5H109.5Zm-6.224-1.68h1.568a2.438,2.438,0,0,1-1.568,2.4Zm-1.712,3.1-.16-1.1c-.528.176-1.056.352-1.584.512V9.912h1.616a3.293,3.293,0,0,1,.528.528c.1-.08.208-.16.3-.256V14.6h1.008V12.76a2.078,2.078,0,0,1,.528.656,3.146,3.146,0,0,0,1.936-3.072h1.1v1.5c0,.9.224,1.1,1.168,1.1H109.5v1.616h1.04v-5.2H107.36a14.119,14.119,0,0,0,1.152-2.1l-.752-.5-.176.064h-2.672q.264-.528.48-1.056l-1.12-.176a9.151,9.151,0,0,1-2.736,3.824V8.824H99.824v-3.2h-1.1v3.2h-2V9.912h2v3.28c-.832.256-1.6.5-2.208.656l.3,1.152,1.9-.624V18.84c0,.24-.08.288-.272.288-.192.016-.816.016-1.5,0a4.753,4.753,0,0,1,.352,1.088,5.016,5.016,0,0,0,1.984-.208c.4-.192.544-.512.544-1.168V14.024Zm9.584,2.752V15.192h-4.48c.08-.448.128-.912.176-1.424H105.76c-.048.512-.1.992-.176,1.424h-4.208V16.2h3.936c-.544,1.584-1.744,2.576-4.5,3.136a3.179,3.179,0,0,1,.592.912c2.848-.656,4.192-1.776,4.848-3.472a6.113,6.113,0,0,0,4.416,3.392,3.851,3.851,0,0,1,.72-.976,5.5,5.5,0,0,1-4.256-2.992Zm5.744.736c0,1.584.544,2.352,3.52,2.352a34.4,34.4,0,0,0,5.024-.32l.064-1.376a25.7,25.7,0,0,1-4.992.464c-1.9,0-2.32-.352-2.32-1.456V11.832c2.832-.576,5.776-1.168,6.048-1.216a15.065,15.065,0,0,1-2.848,3.808l1.12.672a24.354,24.354,0,0,0,3.28-4.656c.112-.208.272-.48.384-.64l-.944-.736a3.24,3.24,0,0,1-.848.288c-.672.144-3.472.72-6.192,1.248V8.1a9.121,9.121,0,0,1,.112-1.472h-1.52A8.985,8.985,0,0,1,116.9,8.1V10.84c-1.7.32-3.216.592-3.936.688l.24,1.328c.656-.144,2.08-.432,3.7-.768ZM3.632,31.272l-.912.976A33.229,33.229,0,0,1,6.7,35.592l1.008-1.008A35.036,35.036,0,0,0,3.632,31.272ZM2.256,41.992,3.1,43.3a17.538,17.538,0,0,0,6.288-2.48,15.986,15.986,0,0,0,5.376-5.7L14,33.768a15.072,15.072,0,0,1-5.344,5.888A16.521,16.521,0,0,1,2.256,41.992ZM24.576,30.44l-1.456-.464a5.778,5.778,0,0,1-.512,1.264,14.662,14.662,0,0,1-5.136,5.568l1.072.832a17.454,17.454,0,0,0,4.24-4.24h5.408a13.367,13.367,0,0,1-2.176,4.432c-1.12-.784-2.32-1.552-3.376-2.16l-.864.88c1.024.64,2.24,1.472,3.392,2.3a14.036,14.036,0,0,1-6.192,3.856l1.152.992a15.183,15.183,0,0,0,6.1-4.064c.656.528,1.264,1.024,1.744,1.456l.944-1.1c-.512-.416-1.152-.912-1.824-1.408a16.105,16.105,0,0,0,2.5-4.976,5.251,5.251,0,0,1,.384-.864l-1.056-.64a3.189,3.189,0,0,1-1.056.16H23.52a5.366,5.366,0,0,0,.336-.576C24.016,31.4,24.3,30.856,24.576,30.44Zm9.056,5.632V37.64c.5-.048,1.344-.08,2.224-.08H44.64c.72,0,1.392.064,1.712.08V36.072c-.352.032-.928.08-1.728.08H35.856C34.96,36.152,34.112,36.1,33.632,36.072Zm22.752-4.416c.112.368.272.848.464,1.44a33.432,33.432,0,0,1-6.32-.192l.032,1.28a41.108,41.108,0,0,0,6.72.032,21.373,21.373,0,0,0,1.936,3.648c-.576-.064-1.76-.16-2.656-.24l-.1,1.072a36.165,36.165,0,0,1,3.856.432l.656-.9c-.24-.272-.48-.544-.7-.848a17.024,17.024,0,0,1-1.792-3.3,23.787,23.787,0,0,0,3.312-.656l-.144-1.248a20.551,20.551,0,0,1-3.568.784,19.117,19.117,0,0,1-.736-2.736l-1.36.176C56.128,30.824,56.272,31.32,56.384,31.656Zm-3.392,6.352-1.248-.288a6.238,6.238,0,0,0-.768,2.656c0,2.176,1.92,3.28,4.96,3.3a23.237,23.237,0,0,0,4.128-.352l.064-1.28a17.835,17.835,0,0,1-4.128.4c-2.368-.016-3.76-.688-3.76-2.208A4.116,4.116,0,0,1,52.992,38.008Zm19.76-6.88-1.408-.576c-.192.464-.4.864-.592,1.232a113.559,113.559,0,0,0-5.536,11.344l1.376.48a25.567,25.567,0,0,1,1.376-3.648c.624-1.248,1.824-2.56,3.12-2.56a1.079,1.079,0,0,1,1.168,1.12c.048.88.016,2.112.064,3.04a2.075,2.075,0,0,0,2.32,2.032c2.32,0,3.664-1.792,4.512-4.368L78.1,38.36c-.416,1.7-1.472,3.9-3.248,3.9a1.151,1.151,0,0,1-1.3-1.136c-.048-.784-.032-2.016-.064-2.96a1.805,1.805,0,0,0-1.872-1.936,3.522,3.522,0,0,0-2.384.992c.832-1.552,2.3-4.208,3.008-5.312C72.432,31.608,72.608,31.32,72.752,31.128ZM87.3,32.2v1.28a37.609,37.609,0,0,0,6.576,0v-1.3A27.374,27.374,0,0,1,87.3,32.2Zm.624,6.512L86.768,38.6a8.6,8.6,0,0,0-.272,1.888c0,1.5,1.2,2.4,3.888,2.4a21.683,21.683,0,0,0,4-.336l-.032-1.344a17.651,17.651,0,0,1-3.968.416c-2.176,0-2.7-.7-2.7-1.44A5.588,5.588,0,0,1,87.92,38.712Zm-3.68-7.744-1.424-.128a7,7,0,0,1-.112,1.136,45,45,0,0,0-.72,6.416,20.145,20.145,0,0,0,.592,5.136l1.152-.08c-.016-.16-.032-.384-.048-.56a3.088,3.088,0,0,1,.08-.72A32.654,32.654,0,0,1,84.9,38.584l-.672-.512c-.272.656-.656,1.616-.928,2.336a17.548,17.548,0,0,1-.144-2.24,37.153,37.153,0,0,1,.8-6.128C84.016,31.752,84.16,31.24,84.24,30.968Zm14.384,1.44h10.8v2.3h1.232V31.3h-6.08v-1.7h-1.232v1.7h-5.92v3.408h1.2Zm8.176,4.416a7.337,7.337,0,0,1-2.224,3.744c-1.248-.464-2.512-.9-3.7-1.248.432-.768.9-1.632,1.344-2.5Zm4.256,0V35.7H102.8c.4-.8.8-1.584,1.136-2.3l-1.216-.272c-.368.784-.816,1.664-1.264,2.576h-4.5v1.12h3.9c-.736,1.408-1.5,2.784-2.112,3.792l1.216.32c.128-.208.256-.432.4-.672,1.008.3,2.08.688,3.136,1.1a15.768,15.768,0,0,1-6.176,1.808,4.842,4.842,0,0,1,.72,1.072,15.682,15.682,0,0,0,6.736-2.368,28.649,28.649,0,0,1,4.64,2.368l.864-.992a31.048,31.048,0,0,0-4.5-2.208,9.2,9.2,0,0,0,2.368-4.224Zm12.464-1.488a17.736,17.736,0,0,1,2.88,5.936l1.168-.56a16.94,16.94,0,0,0-3.008-5.9Zm-9.28,0a12.069,12.069,0,0,1-1.808,5.76l1.072.656c1.136-1.536,1.632-4.048,1.888-6.192Zm2.784-4.736a24.233,24.233,0,0,1,5.472,2.768l.752-1.04a27.265,27.265,0,0,0-5.472-2.64Zm-.112,3.44v7.984c0,1.552.464,1.984,2.16,1.984h3.1c1.728,0,2.112-.88,2.272-3.888a2.971,2.971,0,0,1-1.1-.544c-.128,2.768-.272,3.344-1.232,3.344h-2.944c-.88,0-1.056-.144-1.056-.88v-8ZM5.44,54.536,3.824,54.52a8.444,8.444,0,0,1,.128,1.632c0,1.68-.16,5.728-.16,8.1,0,2.608,1.584,3.568,3.888,3.568a8.042,8.042,0,0,0,6.688-3.536l-.912-1.088A6.666,6.666,0,0,1,7.728,66.5C6.208,66.5,5.1,65.88,5.1,64.12c0-2.384.112-6.16.192-7.968A13.776,13.776,0,0,1,5.44,54.536Zm11.44,1.84.144,1.392c1.728-.368,5.808-.752,7.52-.944a6.5,6.5,0,0,0-2.992,5.408c0,3.568,3.376,5.152,6.336,5.264l.464-1.328c-2.608-.1-5.52-1.088-5.52-4.224A5.628,5.628,0,0,1,26.5,56.888a13.4,13.4,0,0,1,3.136-.256v-1.28c-1.072.048-2.576.128-4.32.288-2.944.24-5.968.544-7.008.656C18,56.328,17.488,56.36,16.88,56.376Zm20.736-2.16H36.192a8.437,8.437,0,0,1,.08,1.136c0,.288-.016.992-.016,1.824-.448.032-.864.048-1.232.048a14.805,14.805,0,0,1-2.048-.128l.032,1.216a17.576,17.576,0,0,0,2.048.08c.336,0,.736-.016,1.184-.048-.016.7-.016,1.456-.016,2.1v.912c-1.84.784-3.5,2.176-3.5,3.5,0,1.424,2.08,2.656,3.328,2.656.864,0,1.408-.48,1.408-1.968,0-.688-.032-2.112-.064-3.472a10.481,10.481,0,0,1,3.488-.624c1.52,0,2.752.736,2.752,2.1,0,1.472-1.28,2.224-2.688,2.5a8.183,8.183,0,0,1-1.872.112l.448,1.3a12.132,12.132,0,0,0,1.984-.224c2.192-.528,3.408-1.76,3.408-3.7,0-1.92-1.68-3.184-4.016-3.184a12.1,12.1,0,0,0-3.52.592v-.56c0-.64.016-1.408.032-2.16a29.374,29.374,0,0,0,3.36-.56l-.032-1.248a21.518,21.518,0,0,1-3.3.64c.016-.72.048-1.344.064-1.728A10.264,10.264,0,0,1,37.616,54.216Zm4.96,1.776-.576.96a20.3,20.3,0,0,1,3.584,2.4l.656-1.024A29.082,29.082,0,0,0,42.576,55.992Zm-8.608,8.8c0-.72.976-1.648,2.288-2.256.016,1.168.048,2.256.048,2.832,0,.528-.224.784-.592.784C35.088,66.152,33.968,65.528,33.968,64.792ZM51.776,53.624A17.752,17.752,0,0,1,47.44,60.1a5.312,5.312,0,0,1,.736,1.184,16.748,16.748,0,0,0,1.888-2.16v9.1h1.168V57.368a24.851,24.851,0,0,0,1.7-3.392Zm10.56,7.936V60.408H57.824V55.976A35.783,35.783,0,0,0,61.7,55l-.88-.992a46.841,46.841,0,0,1-8.368,1.728,4.775,4.775,0,0,1,.368,1.008c1.216-.144,2.544-.336,3.824-.56v4.224H51.92V61.56h4.72v4.912H52.528v1.152H62.1V66.472H57.824V61.56Zm12.544-6.9H73.52a9.05,9.05,0,0,1,.08,1.2v2.288c-1.712.144-3.568.32-5.136.464.016-.848.016-1.632.016-2.16,0-.5.032-.928.064-1.3H67.152a9.717,9.717,0,0,1,.1,1.36c0,.272,0,1.152-.016,2.224-.768.064-1.408.128-1.808.16a15.609,15.609,0,0,1-1.664.1l.144,1.312c.432-.064,1.12-.16,1.616-.224.416-.048,1.008-.112,1.712-.192,0,1.6,0,3.3.016,3.984.08,2.544.432,3.392,4.128,3.392,1.616,0,3.568-.144,4.64-.256l.048-1.36a30.405,30.405,0,0,1-4.752.384c-2.768,0-2.8-.608-2.848-2.336-.016-.624-.016-2.288,0-3.936,1.6-.16,3.472-.352,5.12-.48-.032,1.008-.1,2.1-.176,2.624-.048.368-.224.432-.608.432a8.279,8.279,0,0,1-1.6-.208l-.032,1.1a15.852,15.852,0,0,0,2.112.224c.736,0,1.088-.208,1.232-.912a23.905,23.905,0,0,0,.224-3.344c.7-.048,1.312-.08,1.792-.1.4,0,1.008-.016,1.264,0V57.864c-.384.016-.832.048-1.248.08-.528.032-1.136.064-1.776.112.016-.7.016-1.5.032-2.24C74.816,55.48,74.832,54.936,74.88,54.664Zm11.632,8.464h1.056l.32-6.208.032-1.888H86.16l.032,1.888Zm.528,3.952a1.009,1.009,0,0,0,1.024-1.056,1.025,1.025,0,1,0-2.048,0A1,1,0,0,0,87.04,67.08Z" transform="translate(1541.641 3614)" fill="#fff"/>
    </g>
    <path id="Path_293" data-name="Path 293" d="M6.112-12.832H1.5v.96H6.112Zm.592,2.1H.672v.976H6.7ZM5.1-3.344V-.656H2.432V-3.344Zm1.04-.976H1.392V1.04h1.04V.3H6.144ZM1.424-5.5H6.16v-.96H1.424Zm0-2.128H6.16v-.944H1.424Zm7.664-4.192h2.736v2.848c0,1.136.288,1.44,1.264,1.44h1.1c.848,0,1.136-.464,1.232-2.336a2.641,2.641,0,0,1-.992-.432c-.032,1.536-.1,1.744-.384,1.744h-.8c-.256,0-.3-.064-.3-.416v-3.9H7.952v1.92A3.69,3.69,0,0,1,6.176-7.552a5.79,5.79,0,0,1,.864.784,4.689,4.689,0,0,0,2.048-4.176ZM13.7-6.56l-.208.048H6.912v1.088H12.96a8.52,8.52,0,0,1-2.1,3.12A8.954,8.954,0,0,1,8.8-5.392l-1.056.32a10.8,10.8,0,0,0,2.24,3.488A10.885,10.885,0,0,1,6.208.176a4.146,4.146,0,0,1,.64,1.04A12.245,12.245,0,0,0,10.864-.768,10.9,10.9,0,0,0,14.672,1.2,5.1,5.1,0,0,1,15.44.192a10.159,10.159,0,0,1-3.68-1.728,10.383,10.383,0,0,0,2.7-4.72Zm8.96-5.3h2.608v1.424H22.656Zm-1.1,1.424H19.008v-1.424h2.544Zm4.816-1.424h2.688v1.424H26.368Zm2.048,6.64h-6.48V-6.08h6.48Zm0,1.584h-6.48v-.88h6.48Zm0,1.616h-6.48v-.9h6.48Zm-7.584-4.8V-1.3h8.72v-5.52H24.368c.048-.288.112-.592.16-.928H30.88v-.944H24.688c.048-.288.08-.592.128-.864h5.408V-12.72H17.888v3.168h5.728c-.032.272-.064.576-.1.864H17.152v.944h6.224c-.048.32-.112.64-.16.928ZM31.28-.4H19.216V-6.576H18.032V1.232h1.184V.56H31.28ZM40-7.776a1.687,1.687,0,0,0-1.7,1.7,1.687,1.687,0,0,0,1.7,1.7,1.687,1.687,0,0,0,1.7-1.7A1.687,1.687,0,0,0,40-7.776ZM12.96,12.352l-1.472-.512a9.178,9.178,0,0,1-.32,1.184,17.9,17.9,0,0,1-2.176,4.368c-1.264-.976-3.12-2.288-4.5-3.168l-.832,1.008a50.056,50.056,0,0,1,4.512,3.232,17.764,17.764,0,0,1-6.352,5.024l1.1,1.008A20.384,20.384,0,0,0,9.2,19.328a35.684,35.684,0,0,1,3.776,3.68l1.008-1.1a40.041,40.041,0,0,0-3.952-3.664,22.288,22.288,0,0,0,2.4-4.72A8.633,8.633,0,0,1,12.96,12.352Zm6.672-.08-.912.976A33.23,33.23,0,0,1,22.7,16.592l1.008-1.008A35.036,35.036,0,0,0,19.632,12.272Zm-1.376,10.72L19.1,24.3a17.538,17.538,0,0,0,6.288-2.48,15.986,15.986,0,0,0,5.376-5.7L30,14.768a15.072,15.072,0,0,1-5.344,5.888A16.521,16.521,0,0,1,18.256,22.992ZM35.44,12.16v1.328c.4-.032.928-.048,1.456-.048H43.36c.464,0,1.024.016,1.488.048V12.16a11.805,11.805,0,0,1-1.488.1H36.88A13.31,13.31,0,0,1,35.44,12.16Zm-1.92,4.016V17.5c.448-.032.912-.032,1.392-.032h4.8a7.746,7.746,0,0,1-.928,3.968,6.623,6.623,0,0,1-3.024,2.448l1.184.88A7.808,7.808,0,0,0,40.1,21.84a9.685,9.685,0,0,0,.944-4.368h4.352c.384,0,.9.016,1.248.032V16.176a8.577,8.577,0,0,1-1.248.08H34.912A12.79,12.79,0,0,1,33.52,16.176ZM55.76,13.2v2.16H51.04c-.56,0-1.152-.048-1.488-.08v1.376c.336-.032.928-.048,1.52-.048H55.76a7.13,7.13,0,0,1-4.336,7.072l1.248.928c3.232-1.888,4.416-4.48,4.432-8h4.24c.5,0,1.152.016,1.408.048V15.3c-.256.032-.864.064-1.392.064H57.1V13.216a14.825,14.825,0,0,1,.1-1.6H55.616A8.928,8.928,0,0,1,55.76,13.2Zm11.872-.928-.912.976A33.23,33.23,0,0,1,70.7,16.592l1.008-1.008A35.036,35.036,0,0,0,67.632,12.272Zm-1.376,10.72L67.1,24.3a17.538,17.538,0,0,0,6.288-2.48,15.986,15.986,0,0,0,5.376-5.7L78,14.768a15.072,15.072,0,0,1-5.344,5.888A16.521,16.521,0,0,1,66.256,22.992ZM92.48,13.3l-.816-.624a4.381,4.381,0,0,1-1.2.128H84.288c-.48,0-1.392-.064-1.616-.1V14.16c.176-.016,1.056-.08,1.616-.08h6.24a14.079,14.079,0,0,1-2.656,4.448A18.3,18.3,0,0,1,81.28,23.28L82.3,24.352a20.284,20.284,0,0,0,6.24-4.672,36.942,36.942,0,0,1,4.4,4.752l1.12-.96a44.384,44.384,0,0,0-4.672-4.784A20.25,20.25,0,0,0,92.08,14,4.59,4.59,0,0,1,92.48,13.3Zm11.2,2.928a1.7,1.7,0,1,0,1.7,1.7A1.687,1.687,0,0,0,103.68,16.224ZM12.288,46.208V47.76h-7.5V46.208ZM11.264,41.92v1.36H4.784V41.92Zm-6.48,2.272h7.648V41.008H3.664v8.224h1.12v-.544h7.5V49.2h1.168V45.28H4.784Zm10.48-8.368H9.84a8.4,8.4,0,0,0,.5-1.008L9.2,34.544a7.509,7.509,0,0,1-1.408,2.208v-.928H3.6a7.964,7.964,0,0,0,.464-.992l-1.1-.288a8.766,8.766,0,0,1-2.3,3.328,7.348,7.348,0,0,1,.976.64,10.91,10.91,0,0,0,1.376-1.7H3.7a10.084,10.084,0,0,1,.752,1.632l1.056-.32a7.262,7.262,0,0,0-.624-1.312H7.728a6.409,6.409,0,0,1-.992.88,5.808,5.808,0,0,1,.656.368v1.008H1.36v2.992H2.48V40.016H13.6v2.048h1.152V39.072H8.528V37.824h-.24a11.134,11.134,0,0,0,.9-1.008h1.28a7.431,7.431,0,0,1,1.072,1.68l1.088-.368a7.958,7.958,0,0,0-.864-1.312h3.5Zm6.384,8.96L19.9,45.36V41.392h1.6v-1.1H19.9V36.816h1.84V35.7h-4.96v1.12h1.984v3.472H16.96v1.1h1.808v4.32c-.816.272-1.552.5-2.144.672l.272,1.2c1.424-.464,3.248-1.088,4.96-1.664Zm1.968-5.392h2.432v2.032H23.616Zm0-3.008h2.432V38.4H23.616Zm5.9,2.016H27.072V36.384H29.52Zm0,3.024H27.072V39.392H29.52Zm-2.352,6.192V45.424H30.9V44.336H27.168V42.464h3.488v-7.12H22.528v7.12h3.44v1.872H22.336v1.088h3.632v2.192H21.1V48.7h10.3V47.616Z" transform="translate(1631 3927)" fill="#fff"/>
    <path id="Path_292" data-name="Path 292" d="M-36.352-6.064h3.712v1.552h-3.712Zm0-2.4h3.712v1.52h-3.712Zm8.848,0v1.52H-31.44v-1.52Zm0,3.952H-31.44V-6.064H-27.5Zm1.2.928V-9.408H-31.44v-1.344h6.416v-1.12H-31.44v-1.5h-1.2v1.5H-38.9v1.12h6.256v1.344H-37.5v5.824h3.872A15.442,15.442,0,0,1-39.3-.016a4.893,4.893,0,0,1,.832.992A16.758,16.758,0,0,0-32.64-3.088v4.3h1.2V-3.136a16.955,16.955,0,0,0,5.952,4.144,3.963,3.963,0,0,1,.832-1.024,15.47,15.47,0,0,1-5.776-3.568Zm17.248-7.952h-6.368v-1.856h-1.232v1.856h-6.256V-10.4H-9.056ZM-20.3-3.312A10.214,10.214,0,0,1-23.2-.08a9.629,9.629,0,0,1,.944.7,13.7,13.7,0,0,0,3.168-3.552Zm.528-4.592h7.648V-5.28h-7.648ZM-10.9-4.24v-4.7H-20.96v4.7h4.32V-.176c0,.224-.064.288-.368.288-.272.016-1.264.032-2.368,0a4.82,4.82,0,0,1,.4,1.1,11.237,11.237,0,0,0,2.848-.176c.544-.176.7-.512.7-1.2V-4.24ZM-13.04-2.784A24.506,24.506,0,0,1-10.08.736L-8.928.144a28.265,28.265,0,0,0-3.04-3.44ZM-6.5-4.32A11.5,11.5,0,0,1-7.536-.512a4.156,4.156,0,0,1,.928.448A14.081,14.081,0,0,0-5.472-4.128Zm3.3.176a15.689,15.689,0,0,1,.976,2.928l.912-.3A14.834,14.834,0,0,0-2.336-4.432Zm-.416-3.744a12.2,12.2,0,0,1,.752,1.44l-2.368.1A54.9,54.9,0,0,0-2.048-11.12l-1.008-.448A32.587,32.587,0,0,1-4.672-8.7,12.849,12.849,0,0,0-5.6-9.744c.592-.9,1.264-2.16,1.808-3.216l-1.04-.416A20.234,20.234,0,0,1-6.272-10.4c-.16-.144-.3-.288-.464-.416l-.608.784A14.9,14.9,0,0,1-5.28-7.776C-5.632-7.248-6-6.736-6.336-6.3l-1.056.048L-7.3-5.2c.736-.048,1.6-.1,2.512-.144V1.248h1.056V-5.408l1.264-.08a7.445,7.445,0,0,1,.288.928l.9-.4a12.669,12.669,0,0,0-1.5-3.264ZM5.1-4.08V-.768H.512V-4.08ZM-.576,1.2H.512V.288H5.1v.848H6.24V-5.152H-.576ZM.1-8.16v1.1h5.3v-1.1Zm1.888-5.072A16.028,16.028,0,0,1-2.288-8.048a4.39,4.39,0,0,1,.7,1.008,18.17,18.17,0,0,0,4.208-4.976,22.641,22.641,0,0,0,4.288,4.88,8.641,8.641,0,0,1,.736-1.088,19.381,19.381,0,0,1-4.5-5.008Zm18.8,2.512H15.408v-1.216h5.376Zm0,2.1H15.408V-9.872h5.376Zm1.152-4.224H14.288v5.12h7.648Zm-9.072,1.312a10.3,10.3,0,0,0-2.72-1.712l-.672.864a11.328,11.328,0,0,1,2.7,1.792ZM12.08-7.408A11.426,11.426,0,0,0,9.328-8.992l-.672.88a11.666,11.666,0,0,1,2.736,1.68ZM11.6-4.832A45.419,45.419,0,0,1,9.008.272l1.056.736c.816-1.488,1.744-3.456,2.448-5.136Zm11.712-.912v-.992H12.8v.992h2.256a10.14,10.14,0,0,1-2.912,3.136,5.5,5.5,0,0,1,.848.736,11.935,11.935,0,0,0,1.84-1.776h1.552A10.924,10.924,0,0,1,12.992,0a6.479,6.479,0,0,1,.832.768,13.359,13.359,0,0,0,3.744-4.416h1.584A9.416,9.416,0,0,1,16.224.528a8.17,8.17,0,0,1,.9.672,11.649,11.649,0,0,0,3.136-4.848h1.328c-.192,2.432-.4,3.392-.656,3.664-.128.16-.256.176-.5.176A12.2,12.2,0,0,1,19.1.128a2.588,2.588,0,0,1,.288,1.024,10.445,10.445,0,0,0,1.568.016,1.284,1.284,0,0,0,.912-.416c.4-.464.64-1.68.864-4.864.032-.176.048-.5.048-.5H15.568a11.924,11.924,0,0,0,.688-1.136ZM36.96-9.264H33.968v-2.448H36.96Zm1.12-3.424H32.9V-8.3H38.08ZM33.792-.368V-2.912H36.7V-.368Zm-3.648,0H27.28V-2.912h2.864Zm-.128-8.9h-2.96v-2.448h2.96Zm9.12,3.248V-7.088H31.664a9.079,9.079,0,0,0,.72-1.28l-1.152-.368-.1.208v-4.16H25.984V-8.3h5.04a6.734,6.734,0,0,1-.816,1.216H24.9v1.072h4.272A13.569,13.569,0,0,1,24.5-3.5a4.873,4.873,0,0,1,.736.9,10.6,10.6,0,0,0,.992-.384v4.24H27.28V.656h2.864V1.2h1.1V-3.92h-3.12a11.653,11.653,0,0,0,2.672-2.1h2.416a9.907,9.907,0,0,0,2.576,2.1H32.736V1.248h1.056V.656H36.7V1.2h1.1V-2.96c.336.128.688.24,1.024.336a5.372,5.372,0,0,1,.752-.96A11.507,11.507,0,0,1,34.7-6.016Zm-72.16,18.7H-39.44v-2.1h-1.184v2.1H-46.96V13.84h13.936Zm-5.088,2.3a23.926,23.926,0,0,1,4.192,3.632l1.04-.816a24.887,24.887,0,0,0-4.288-3.536Zm-4.768-.656a13.083,13.083,0,0,1-4.208,3.5,6.835,6.835,0,0,1,.976.944A16.917,16.917,0,0,0-41.68,14.8Zm5.184,2.736a9.753,9.753,0,0,1-2.272,3.6,10.265,10.265,0,0,1-2.272-3.52l-1.136.352a12.5,12.5,0,0,0,2.5,3.968,15.544,15.544,0,0,1-6.432,2.688,4.74,4.74,0,0,1,.752,1.12A17.211,17.211,0,0,0-40,22.3a14.132,14.132,0,0,0,6.592,2.912,4.874,4.874,0,0,1,.784-1.12,13.756,13.756,0,0,1-6.448-2.624,11.192,11.192,0,0,0,2.608-4.048ZM-20.96,12.8a13.205,13.205,0,0,1-.848,1.568h-3.056A10.074,10.074,0,0,0-23.648,12.8Zm2.464,4.224c-.032.1-.1.112-.32.112h-1.056c-.336,0-.368-.032-.368-.288v-1.5H-18.5Zm-6.224-1.68h1.568a2.438,2.438,0,0,1-1.568,2.4Zm-1.712,3.1-.16-1.1c-.528.176-1.056.352-1.584.512V14.912h1.616a3.292,3.292,0,0,1,.528.528c.1-.08.208-.16.3-.256V19.6h1.008V17.76a2.078,2.078,0,0,1,.528.656,3.146,3.146,0,0,0,1.936-3.072h1.1v1.5c0,.9.224,1.1,1.168,1.1H-18.5v1.616h1.04v-5.2H-20.64a14.118,14.118,0,0,0,1.152-2.1l-.752-.5-.176.064h-2.672q.264-.528.48-1.056l-1.12-.176a9.151,9.151,0,0,1-2.736,3.824v-.608h-1.712v-3.2h-1.1v3.2h-2v1.088h2v3.28c-.832.256-1.6.5-2.208.656l.3,1.152,1.9-.624V23.84c0,.24-.08.288-.272.288-.192.016-.816.016-1.5,0a4.753,4.753,0,0,1,.352,1.088,5.016,5.016,0,0,0,1.984-.208c.4-.192.544-.512.544-1.168V19.024Zm9.584,2.752V20.192h-4.48c.08-.448.128-.912.176-1.424H-22.24c-.048.512-.1.992-.176,1.424h-4.208V21.2h3.936c-.544,1.584-1.744,2.576-4.5,3.136a3.179,3.179,0,0,1,.592.912c2.848-.656,4.192-1.776,4.848-3.472a6.113,6.113,0,0,0,4.416,3.392,3.851,3.851,0,0,1,.72-.976A5.5,5.5,0,0,1-20.864,21.2Zm5.744.736c0,1.584.544,2.352,3.52,2.352a34.4,34.4,0,0,0,5.024-.32l.064-1.376a25.7,25.7,0,0,1-4.992.464c-1.9,0-2.32-.352-2.32-1.456V16.832c2.832-.576,5.776-1.168,6.048-1.216a15.065,15.065,0,0,1-2.848,3.808l1.12.672a24.354,24.354,0,0,0,3.28-4.656c.112-.208.272-.48.384-.64l-.944-.736a3.24,3.24,0,0,1-.848.288c-.672.144-3.472.72-6.192,1.248V13.1A9.122,9.122,0,0,1-9.7,11.632h-1.52A8.985,8.985,0,0,1-11.1,13.1V15.84c-1.7.32-3.216.592-3.936.688l.24,1.328c.656-.144,2.08-.432,3.7-.768ZM3.632,12.272l-.912.976A33.23,33.23,0,0,1,6.7,16.592l1.008-1.008A35.036,35.036,0,0,0,3.632,12.272ZM2.256,22.992,3.1,24.3a17.538,17.538,0,0,0,6.288-2.48,15.986,15.986,0,0,0,5.376-5.7L14,14.768a15.072,15.072,0,0,1-5.344,5.888A16.521,16.521,0,0,1,2.256,22.992ZM24.576,11.44l-1.456-.464a5.778,5.778,0,0,1-.512,1.264,14.662,14.662,0,0,1-5.136,5.568l1.072.832a17.454,17.454,0,0,0,4.24-4.24h5.408a13.367,13.367,0,0,1-2.176,4.432c-1.12-.784-2.32-1.552-3.376-2.16l-.864.88c1.024.64,2.24,1.472,3.392,2.3a14.036,14.036,0,0,1-6.192,3.856l1.152.992a15.183,15.183,0,0,0,6.1-4.064c.656.528,1.264,1.024,1.744,1.456l.944-1.1c-.512-.416-1.152-.912-1.824-1.408a16.105,16.105,0,0,0,2.5-4.976,5.251,5.251,0,0,1,.384-.864l-1.056-.64a3.189,3.189,0,0,1-1.056.16H23.52a5.366,5.366,0,0,0,.336-.576C24.016,12.4,24.3,11.856,24.576,11.44Zm9.056,5.632V18.64c.5-.048,1.344-.08,2.224-.08H44.64c.72,0,1.392.064,1.712.08V17.072c-.352.032-.928.08-1.728.08H35.856C34.96,17.152,34.112,17.1,33.632,17.072Z" transform="translate(1440 4129)" fill="#fff"/>
    <path id="Path_291" data-name="Path 291" d="M4.8-9.76H2.416v-2.032H4.8Zm0,2.976H2.416V-8.832H4.8Zm0,3.024H2.416V-5.84H4.8Zm1.072-9.024h-4.5v10h4.5ZM2.16-2.448A7.018,7.018,0,0,1,.56.592a8.05,8.05,0,0,1,.9.64,9.581,9.581,0,0,0,1.776-3.44Zm2,.384A13.326,13.326,0,0,1,5.44.448L6.384,0A13.462,13.462,0,0,0,5.056-2.464Zm7.056-.256v-1.2h2.048v1.2ZM8.208-3.52H10.16v1.2H8.208ZM10.16-5.488v1.136H8.208V-5.488Zm3.1,0v1.136H11.216V-5.488ZM9.52-9.264h2.368v1.056H9.52Zm0-1.84h2.368v.96H9.52ZM15.312-2.32h-.96V-6.384H11.216v-.928h4.032v-.9H12.96V-9.264h1.7v-.88h-1.7v-.96h1.952V-12H12.96v-1.376H11.888V-12H9.52v-1.376H8.464V-12H6.528v.9H8.464v.96H6.944v.88h1.52v1.056H6.16v.9h4v.928H7.136V-2.32H6.1v.912h1.04v2.64H8.208v-2.64h5.056V-.016c0,.208-.08.256-.272.272-.224,0-.992,0-1.824-.016a3.821,3.821,0,0,1,.336.96,8.277,8.277,0,0,0,2.32-.16c.4-.176.528-.48.528-1.056V-1.408h.96Zm4.368-10.1v1.184h3.936c.032.608.1,1.312.208,2.048l-.7-.112c-.976,4.48-2.944,7.7-6.48,9.536a7.787,7.787,0,0,1,1.072.944C20.9-.688,22.912-3.6,24.1-7.744a13.807,13.807,0,0,0,6.352,8.912,5.654,5.654,0,0,1,.96-.992c-6.272-3.728-6.64-9.76-6.64-12.592ZM41.3-4.24H38.512V-6.624H41.3Zm3.072-2.384v-.608A10.179,10.179,0,0,0,46.656-5.84a4.9,4.9,0,0,1,.816-.992A10.4,10.4,0,0,1,44.48-8.688a25.683,25.683,0,0,0,2.512-2.064l-.9-.64a19.681,19.681,0,0,1-2.288,2.064,12.823,12.823,0,0,1-1.04-1.232,21.212,21.212,0,0,0,2.352-2.016l-.9-.64a20.527,20.527,0,0,1-1.968,1.9,11.86,11.86,0,0,1-1.008-2.016l-1.024.3a13.788,13.788,0,0,0,3.568,5.3h-7.52a11.164,11.164,0,0,0,3.328-4.64l-.784-.384-.208.048h-4.56v1.056h3.968a11.208,11.208,0,0,1-1.488,2.112A22.249,22.249,0,0,0,34.592-11.1l-.736.624a16.96,16.96,0,0,1,1.92,1.68,11.066,11.066,0,0,1-3.248,2.08,6.436,6.436,0,0,1,.736.9,13.11,13.11,0,0,0,2.384-1.408v.608h1.68V-4.24h-3.68v1.1H37.2C36.912-1.808,36-.544,33.328.352a4.643,4.643,0,0,1,.752.944c3.136-1.088,4.08-2.72,4.336-4.432H41.3v2.56c0,1.312.352,1.664,1.7,1.664h2.1c1.168,0,1.5-.56,1.616-2.592A3.278,3.278,0,0,1,45.632-2c-.064,1.712-.144,2.032-.64,2.032H43.168c-.544,0-.64-.1-.64-.592V-3.136H46.32v-1.1H42.528V-6.624Zm8.9-4.96a11.346,11.346,0,0,0-3.04-1.68l-.64.88a11.04,11.04,0,0,1,2.992,1.776Zm-.848,4.1A13.468,13.468,0,0,0,49.3-8.96l-.624.9A13.856,13.856,0,0,1,51.76-6.48Zm-.128,2.576A47.744,47.744,0,0,1,49.264.208l.992.8c.944-1.488,2.064-3.456,2.9-5.136ZM58.72-.4V-4.272h3.7v-1.12h-3.7v-3.44h4.272v-1.12H59.12l.8-.976a16.524,16.524,0,0,0-3.7-2.5l-.768.9a15.209,15.209,0,0,1,3.6,2.576H53.408v1.12h4.1v3.44H54.016v1.12H57.5V-.4H52.88V.736H63.328V-.4Zm9.616-12.944a17.853,17.853,0,0,1-4.048,6.272A8.215,8.215,0,0,1,64.976-5.9a15.828,15.828,0,0,0,1.7-2.032v9.1h1.12V-9.648a24.1,24.1,0,0,0,1.632-3.36Zm10.048,5.52A24.8,24.8,0,0,1,75.632-5.44a27.332,27.332,0,0,1-.944-3.9H79.04v-1.12H74.5V-13.2H73.3v2.736H68.512v1.12h4.336A14.216,14.216,0,0,1,67.888-4.8a8.794,8.794,0,0,1,.816.976,16.241,16.241,0,0,0,1.968-1.44V-.592c-.736.16-1.408.3-1.968.416L69.072.976C70.816.56,73.264-.032,75.536-.576l-.1-1.088c-1.232.288-2.48.576-3.648.832V-6.288a15.8,15.8,0,0,0,1.936-2.336c.784,4.4,2.224,7.984,5.056,9.68a4.631,4.631,0,0,1,.848-.992,8.727,8.727,0,0,1-3.648-4.576,31.52,31.52,0,0,0,3.28-2.48Zm15.1.256H89.312V-9.12h4.176Zm0,2.4H89.312V-6.7h4.176Zm0,2.464H89.312V-4.272h4.176ZM88.24-10.032v8.256h6.384v-8.256H91.5c.144-.48.288-1.024.448-1.552h3.264v-1.04H87.552v1.04h3.12a12.665,12.665,0,0,1-.3,1.552Zm-6.128,1.92h1.6V-5.9h-1.6ZM86.32-5.9H84.656V-8.112H86.32Zm1.1,3.488c-.4-.4-2.128-2-2.7-2.464v-.08h2.56v-4.1H84.72V-10.5h2.7v-1.04h-2.7V-13.36H83.664v1.824H80.88v1.04h2.784v1.44h-2.48v4.1h2.192a12.852,12.852,0,0,1-2.9,3.952A6.671,6.671,0,0,1,81.04.048a13.523,13.523,0,0,0,2.624-3.616v4.8H84.72v-4.96c.7.736,1.616,1.712,2,2.224Zm2.208.944A9.036,9.036,0,0,1,86.464.448a9.335,9.335,0,0,1,.8.784A11.029,11.029,0,0,0,90.672-.88Zm2.336.64A17.894,17.894,0,0,1,94.64,1.28l.928-.64a17.944,17.944,0,0,0-2.72-2.032Z" transform="translate(1167 3951)" fill="#fff"/>
    <g id="Group_103" data-name="Group 103" transform="translate(-83.838 -51)">
      <g id="Group_101" data-name="Group 101" transform="translate(1627.838 3880.566)">
        <path id="Path_25" data-name="Path 25" d="M241.645,258.664a147.008,147.008,0,0,0,.963-224.147" transform="translate(-235.338 -27.797)" fill="none" stroke="#fff" stroke-width="2"/>
        <path id="Polygon_5" data-name="Polygon 5" d="M3.5,0,7,8H0Z" transform="matrix(0.616, -0.788, 0.788, 0.616, 0, 5.516)" fill="#fff"/>
      </g>
      <g id="Group_102" data-name="Group 102" transform="translate(1361.838 3880.566)">
        <path id="Path_25-2" data-name="Path 25" d="M294,34.517a147.008,147.008,0,0,0-.963,224.147" transform="translate(-241.645 -34.518)" fill="none" stroke="#fff" stroke-width="2"/>
        <path id="Polygon_5-2" data-name="Polygon 5" d="M3.5,0,7,8H0Z" transform="matrix(-0.616, 0.788, -0.788, -0.616, 58.662, 225.351)" fill="#fff"/>
      </g>
    </g>
    <path id="Path_290" data-name="Path 290" d="M6.576-12.784H5.152a8.437,8.437,0,0,1,.08,1.136c0,.288-.016.992-.016,1.824-.448.032-.864.048-1.232.048A14.805,14.805,0,0,1,1.936-9.9l.032,1.216a17.575,17.575,0,0,0,2.048.08c.336,0,.736-.016,1.184-.048-.016.7-.016,1.456-.016,2.1v.912c-1.84.784-3.5,2.176-3.5,3.5C1.68-.72,3.76.512,5.008.512c.864,0,1.408-.48,1.408-1.968,0-.688-.032-2.112-.064-3.472A10.481,10.481,0,0,1,9.84-5.552c1.52,0,2.752.736,2.752,2.1,0,1.472-1.28,2.224-2.688,2.5a8.182,8.182,0,0,1-1.872.112L8.48.448A12.133,12.133,0,0,0,10.464.224c2.192-.528,3.408-1.76,3.408-3.7,0-1.92-1.68-3.184-4.016-3.184a12.1,12.1,0,0,0-3.52.592v-.56c0-.64.016-1.408.032-2.16a29.373,29.373,0,0,0,3.36-.56L9.7-10.592a21.518,21.518,0,0,1-3.3.64c.016-.72.048-1.344.064-1.728A10.264,10.264,0,0,1,6.576-12.784Zm4.96,1.776-.576.96a20.3,20.3,0,0,1,3.584,2.4L15.2-8.672A29.083,29.083,0,0,0,11.536-11.008Zm-8.608,8.8c0-.72.976-1.648,2.288-2.256.016,1.168.048,2.256.048,2.832,0,.528-.224.784-.592.784C4.048-.848,2.928-1.472,2.928-2.208Zm15.5-8.64H29.5V-8.96h1.184v-2.992H24.56v-1.424h-1.2v1.424H17.3V-8.96h1.136Zm2.24,7.184a21.924,21.924,0,0,0,3.36-1.5,17.912,17.912,0,0,0,3.76,1.5Zm.112,3.312v-2.32h6.464v2.32Zm.88-8.1H26.48a10.554,10.554,0,0,1-2.432,2,9.077,9.077,0,0,1-2.432-1.936ZM27.5-9.44l-.208.048h-4.72a10.022,10.022,0,0,0,.736-.944l-1.28-.24a10.571,10.571,0,0,1-4.544,3.6,3.656,3.656,0,0,1,.8.848,13.559,13.559,0,0,0,2.5-1.568,10.637,10.637,0,0,0,2.16,1.872,22.942,22.942,0,0,1-6.32,2.1,3.965,3.965,0,0,1,.592,1.04c.8-.176,1.616-.384,2.432-.64V1.2h1.136V.672h6.464v.512h1.2V-3.488q1.056.264,2.16.432a4.83,4.83,0,0,1,.752-1.136,21.426,21.426,0,0,1-6.208-1.68A11.113,11.113,0,0,0,28.3-8.944ZM38.128-4.992c-.272-.432-1.472-2.24-1.92-2.832V-8.832h1.824v-1.1H36.208v-3.456H35.12v3.456H32.88v1.1h2.112a17.367,17.367,0,0,1-2.432,6,6.637,6.637,0,0,1,.608,1.024A16.706,16.706,0,0,0,35.12-6.272V1.2h1.088V-6.416c.48.8,1.04,1.792,1.264,2.3ZM41.36-2.784c-1.456.8-2.96,1.616-3.968,2.128l.56.992C39.04-.272,40.4-1.056,41.68-1.808ZM38.544-4.928a11.606,11.606,0,0,1,1.6,2.144l.864-.608A11.193,11.193,0,0,0,39.36-5.456ZM44.864-2.7A21.462,21.462,0,0,0,47.04-4.88l-.912-.64A16.447,16.447,0,0,1,44.16-3.376a9.877,9.877,0,0,1-.96-2.08V-6.1h4.032V-7.1H43.2V-8.336h3.456v-.928H43.2V-10.4h3.808v-.976H44.9c.3-.48.656-1.1.992-1.7l-1.168-.336a13.926,13.926,0,0,1-.928,1.984l.144.048H41.152l.288-.112a8.5,8.5,0,0,0-.96-1.84l-.928.3a11.939,11.939,0,0,1,.8,1.648h-2v.976h3.7v1.136H38.816v.928h3.232V-7.1H38.016V-6.1h4.032V-.112c0,.208-.048.272-.256.272-.208.016-.9.016-1.6,0a3.889,3.889,0,0,1,.336,1.088,5.983,5.983,0,0,0,2.128-.208c.416-.192.544-.512.544-1.152V-3.2A8.408,8.408,0,0,0,46.752.544a5.058,5.058,0,0,1,.768-.96,7.025,7.025,0,0,1-3.168-2.672Z" transform="translate(1416 3881.542)" fill="#fff"/>
    <g id="b" transform="translate(1365.002 3696.216)">
      <g id="c" transform="translate(-0.001 -0.002)">
        <g id="Group_211" data-name="Group 211">
          <path id="Path_70" data-name="Path 70" d="M289.4,195.1l1.767-4.546s-.128-3.807-.543-6.692-1.246-5.665,0-6.925a17.776,17.776,0,0,1,3.542-2.474s6.893-8.422,7.851-9.111,2.679-.867,1.6,1.21-3.83,6.345-3.83,6.345a4.81,4.81,0,0,1,3.255.634c1.47.981,2.807,2.985,3.382,3.4s.511,2.488.128,3.638a5.46,5.46,0,0,1-1.47,2.077s1.086.52-1.406,3.693-6.19,4.487-6.509,5.067-3.606,5.007-3.606,5.007L289.4,195.1Z" transform="translate(-157.298 -89.615)" fill="#f9ddd0"/>
          <path id="Path_71" data-name="Path 71" d="M30.286,274.74c-.192.173-2.7,3.738-4.3,4.893s-1.6,1.671-3.83,2.479a37.983,37.983,0,0,1-9.38,1.844c-2.871.114-9.317.867-10.595.981s-3.255.694-1.47,2.191,3.191,2.538,8.55,2.538,8.805.52,9.764.52,1.15.52,1.15,1.9a5.7,5.7,0,0,1-1.022,3.227c-.511.749,0,2.652,1.278,1.155a59.1,59.1,0,0,0,4.533-6.112,34,34,0,0,0,1.849-3.519c1.022-2.191.064-.288.064-.288s4.432-4.752,7.367-7.924l-3.962-3.889Z" transform="translate(0.001 -149.329)" fill="#f9ddd0"/>
          <path id="Path_72" data-name="Path 72" d="M155.61,142.684c-3.086-.84-2.616-2.059-3.227-5.61a12.981,12.981,0,0,1,0-5.514l-5.724.826-5.724-.826a12.982,12.982,0,0,1,0,5.514c-.607,3.551-.142,4.766-3.227,5.61s-8.787,2.711-8.787,2.711l.831,10.846h33.811l.831-10.846s-5.7-1.872-8.787-2.711Z" transform="translate(-70.072 -71.506)" fill="#fadfd3"/>
          <path id="Path_73" data-name="Path 73" d="M137.049,59.678h4.4s-.361,3.177,3.748,6.546,8.426,3.086,10.9,1.214,2.136-7.107.242-9.444-6.66-4.487-6.66-4.487,10.188-7.2,11.594-19.82S156.869,5.732,141.728,1.2a28.526,28.526,0,0,0-26,5.222,25.984,25.984,0,0,0-10.741,16.889c-2.059,11.594-1.027,12.434,2.9,20.568s22.157,15.8,22.157,15.8h7.011Z" transform="translate(-56.5 0.002)" fill="#e46666"/>
          <g id="Group_209" data-name="Group 209" transform="translate(49.605 35.196)">
            <path id="Path_74" data-name="Path 74" d="M218.925,82.378c-.8,2.287-3.182,3.894-4.172,3.839-1.625-.087-2.159-2.721-1.552-5.222s2.378-4.222,3.958-3.839C219.285,77.677,219.778,79.95,218.925,82.378Z" transform="translate(-165.354 -77.103)" fill="#f9dacd"/>
            <path id="Path_75" data-name="Path 75" d="M109.067,82.378c.8,2.287,3.182,3.894,4.172,3.839,1.625-.087,2.159-2.721,1.552-5.222s-2.378-4.222-3.958-3.839C108.707,77.677,108.214,79.95,109.067,82.378Z" transform="translate(-108.67 -77.103)" fill="#f9dacd"/>
          </g>
          <path id="Path_76" data-name="Path 76" d="M163.3,32.939c0,18.747-10.983,33.943-23.558,33.943s-23.558-15.2-23.558-33.943S126.729,10.23,139.738,10.23,163.3,14.192,163.3,32.939Z" transform="translate(-63.147 -5.56)" fill="#f9dacd"/>
          <ellipse id="Ellipse_21" data-name="Ellipse 21" cx="1.776" cy="2.269" rx="1.776" ry="2.269" transform="translate(66.572 34.204)" fill="#333"/>
          <path id="Path_77" data-name="Path 77" d="M142.36,76.67a11.864,11.864,0,0,0,2.944,1.474" transform="translate(-77.377 -41.672)" fill="#fff" stroke="#333" stroke-linecap="round" stroke-miterlimit="10" stroke-width="1.3"/>
          <ellipse id="Ellipse_22" data-name="Ellipse 22" cx="1.776" cy="2.269" rx="1.776" ry="2.269" transform="translate(83.548 34.204)" fill="#333"/>
          <path id="Path_78" data-name="Path 78" d="M190.784,76.67a11.865,11.865,0,0,1-2.944,1.474" transform="translate(-102.096 -41.672)" fill="#fff" stroke="#333" stroke-linecap="round" stroke-miterlimit="10" stroke-width="1.3"/>
          <path id="Path_79" data-name="Path 79" d="M132.12,63.809s3.227-4.4,10.517-2.8" transform="translate(-71.811 -32.969)" fill="none" stroke="#333" stroke-linecap="round" stroke-miterlimit="10" stroke-width="1.3"/>
          <path id="Path_80" data-name="Path 80" d="M165.843,89.57s-3.414,1.917,0,3.131" transform="translate(-89.316 -48.683)" fill="none" stroke="#333" stroke-linecap="round" stroke-miterlimit="10" stroke-width="1.3"/>
          <path id="Path_81" data-name="Path 81" d="M155.87,106.63s5.843,5.61,11.544.278" transform="translate(-84.72 -57.956)" fill="none" stroke="#333" stroke-linecap="round" stroke-miterlimit="10" stroke-width="1.3"/>
          <path id="Path_82" data-name="Path 82" d="M122.467,18.733s-2.711,14.306-10.75,17.857a55.266,55.266,0,0,1,0-15.146c1.214-7.2,6.92-16.643,26.553-15.894s25.01,14.119,24.4,23.558-1.392,9.134-1.392,9.134S129.013,30.793,122.467,18.733Z" transform="translate(-60.428 -2.993)" fill="#e46666"/>
          <g id="Group_210" data-name="Group 210" transform="translate(58.852 73.889)">
            <path id="Path_83" data-name="Path 83" d="M128.929,161.87a4.395,4.395,0,0,0,1.1,2.743c-.42-1.515-.639-2.465-.639-2.465Z" transform="translate(-128.928 -161.87)" fill="#f1a69a"/>
            <path id="Path_84" data-name="Path 84" d="M205.325,161.87l-.466.278s-.219.949-.639,2.465A4.394,4.394,0,0,0,205.325,161.87Z" transform="translate(-169.851 -161.87)" fill="#f1a69a"/>
            <path id="Path_85" data-name="Path 85" d="M147.989,172.7c-10.686-.11-14.945-2.7-16.629-4.825a70.5,70.5,0,0,0,5.322,13.895c2.848,5.24,8.139,7.294,10.627,8v.32s.251-.041.68-.146c.429.1.68.146.68.146v-.32c2.488-.7,7.778-2.757,10.627-8a70.5,70.5,0,0,0,5.322-13.895C162.934,170,158.675,172.6,147.989,172.7Z" transform="translate(-130.25 -165.137)" fill="#f1a69a"/>
          </g>
          <ellipse id="Ellipse_23" data-name="Ellipse 23" cx="3.684" cy="2.269" rx="3.684" ry="2.269" transform="translate(84.379 39.969)" fill="#f9c8c2"/>
          <ellipse id="Ellipse_24" data-name="Ellipse 24" cx="3.684" cy="2.269" rx="3.684" ry="2.269" transform="translate(60.309 39.969)" fill="#f9c8c2"/>
          <path id="Path_86" data-name="Path 86" d="M221.63,187.888s10.622,17.072,13.813,21.573a65.306,65.306,0,0,0,7.212,8.422c.895.922,1.913,1.21,3.574-.52s12.124-15.8,12.124-15.8l-6.7-3.862a54.446,54.446,0,0,0-6.829,11.361c-9-16.492-22.079-36.449-22.079-36.449l-1.114,15.283Z" transform="translate(-120.462 -93.818)" fill="#f9c8c2"/>
          <path id="Path_87" data-name="Path 87" d="M85.792,169.6s-2.232.575-3.7,6.4-2.552,11.823-4.4,18.108-2.871,8.536-5.039,11.937-8.166,11.129-8.166,11.129l5.615,5.017s3.063-4.382,6.573-8.65,10.818-21.559,10.818-21.559L85.792,169.6Z" transform="translate(-35.046 -92.182)" fill="#f9c8c2"/>
          <path id="Path_88" data-name="Path 88" d="M150.3,211.828c-.132-9.422,6.2-46.761,6.2-46.761s-5.893-3.487-9.645-3.8c0,0-7.367,20.993-17.177,23.59-9.81-2.6-17.177-23.59-17.177-23.59-3.752.31-9.645,3.8-9.645,3.8s6.331,37.339,6.2,46.761S97.68,244.06,97.68,244.06v.881h64.006v-.881S150.434,221.25,150.3,211.828Z" transform="translate(-53.092 -87.655)" fill="#fdf7ea"/>
        </g>
      </g>
    </g>
    <g id="Layer_2" data-name="Layer 2" transform="translate(1417 4038)">
      <rect id="Rectangle_48" data-name="Rectangle 48" width="43.18" height="57.2" rx="2.95" transform="translate(1 1)" fill="none" stroke="#fff" stroke-linecap="round" stroke-linejoin="round" stroke-width="2"/>
      <rect id="Rectangle_49" data-name="Rectangle 49" width="27.19" height="4.8" rx="2.4" transform="translate(9 9.67)" fill="none" stroke="#fff" stroke-linecap="round" stroke-linejoin="round" stroke-width="2"/>
      <g id="Group_64" data-name="Group 64">
        <line id="Line_23" data-name="Line 23" x2="7.01" transform="translate(6.81 52.36)" fill="none" stroke="#fff" stroke-linecap="round" stroke-linejoin="round" stroke-width="2"/>
        <line id="Line_24" data-name="Line 24" x2="7.01" transform="translate(18.37 52.36)" fill="none" stroke="#fff" stroke-linecap="round" stroke-linejoin="round" stroke-width="2"/>
        <line id="Line_25" data-name="Line 25" x2="7.01" transform="translate(31.36 52.36)" fill="none" stroke="#fff" stroke-linecap="round" stroke-linejoin="round" stroke-width="2"/>
      </g>
      <g id="Group_65" data-name="Group 65">
        <line id="Line_26" data-name="Line 26" y1="3.91" transform="translate(8.09 58.31)" fill="none" stroke="#fff" stroke-linecap="round" stroke-linejoin="round" stroke-width="2"/>
        <line id="Line_27" data-name="Line 27" y1="3.91" transform="translate(17.76 58.31)" fill="none" stroke="#fff" stroke-linecap="round" stroke-linejoin="round" stroke-width="2"/>
        <line id="Line_28" data-name="Line 28" y1="3.91" transform="translate(27.42 58.31)" fill="none" stroke="#fff" stroke-linecap="round" stroke-linejoin="round" stroke-width="2"/>
        <line id="Line_29" data-name="Line 29" y1="3.91" transform="translate(37.08 58.31)" fill="none" stroke="#fff" stroke-linecap="round" stroke-linejoin="round" stroke-width="2"/>
      </g>
    </g>
  </g>
</svg>
