<svg xmlns="http://www.w3.org/2000/svg" width="30" height="30" viewBox="0 0 30 30">
  <path id="Icon_awesome-fax" data-name="Icon awesome-fax" d="M3.75,7.5H1.875A1.875,1.875,0,0,0,0,9.375v18.75A1.875,1.875,0,0,0,1.875,30H3.75a1.875,1.875,0,0,0,1.875-1.875V9.375A1.875,1.875,0,0,0,3.75,7.5ZM28.125,9.375V4.526A1.876,1.876,0,0,0,27.576,3.2L24.924.549A1.875,1.875,0,0,0,23.6,0H9.375A1.875,1.875,0,0,0,7.5,1.875v26.25A1.875,1.875,0,0,0,9.375,30h18.75A1.875,1.875,0,0,0,30,28.125V11.25A1.875,1.875,0,0,0,28.125,9.375ZM16.875,25.313a.937.937,0,0,1-.937.938H14.063a.937.937,0,0,1-.937-.937V23.438a.937.937,0,0,1,.938-.937h1.875a.937.937,0,0,1,.938.938Zm0-7.5a.937.937,0,0,1-.937.938H14.063a.937.937,0,0,1-.937-.937V15.938A.937.937,0,0,1,14.063,15h1.875a.937.937,0,0,1,.938.938Zm7.5,7.5a.937.937,0,0,1-.937.938H21.563a.937.937,0,0,1-.937-.937V23.438a.937.937,0,0,1,.938-.937h1.875a.937.937,0,0,1,.938.938Zm0-7.5a.937.937,0,0,1-.937.938H21.563a.937.937,0,0,1-.937-.937V15.938A.937.937,0,0,1,21.563,15h1.875a.937.937,0,0,1,.938.938Zm.938-6.562h-15V2.813H22.5V4.688a.937.937,0,0,0,.938.938h1.875Z"/>
</svg>
