<svg xmlns="http://www.w3.org/2000/svg" width="666.731" height="53" viewBox="0 0 666.731 53">
  <g id="Group_441" data-name="Group 441" transform="translate(-627.95 -4761)">
    <rect id="Rectangle_179" data-name="Rectangle 179" width="241" height="53" transform="translate(899 4761)" fill="#fff"/>
    <path id="Path_502" data-name="Path 502" d="M30.623,11.981a42.391,42.391,0,0,1-5.07,11.973,89.4,89.4,0,0,0-9.2-6.123l-4.8,4.719a82.516,82.516,0,0,1,10.14,6.942,39.312,39.312,0,0,1-4.173,4.329A39.228,39.228,0,0,1,6.95,40.607,19.975,19.975,0,0,1,11.864,46.5c6.63-3.666,11.388-7.6,15.093-12.4a60.009,60.009,0,0,1,7.371,7.995l5.3-5.538a84.5,84.5,0,0,0-8.5-8.19,68.637,68.637,0,0,0,5.187-10.3,29.748,29.748,0,0,1,1.638-3.627Zm15.561,20.9c2.379-.195,3.666-.234,8.034-.234H72.782a75.273,75.273,0,0,1,8.034.234V25.358a63.99,63.99,0,0,1-8,.351H54.179a55.264,55.264,0,0,1-8-.351ZM92.2,18.611a30.435,30.435,0,0,1-5.421-.312l.039,6.669a39.911,39.911,0,0,1,5.265-.234h4.875a20.667,20.667,0,0,1-1.95,6.669c-1.95,3.939-4.953,6.708-10.14,9.438a22.544,22.544,0,0,1,5.07,5.928c7.917-5.226,11.622-10.3,13.338-18.174a33.435,33.435,0,0,0,.585-3.9h7.449a90.09,90.09,0,0,1-.741,10.881c-.507,3.393-.975,4.017-2.847,4.017a22.34,22.34,0,0,1-5.07-.78,19.2,19.2,0,0,1,1.326,6.864,45.677,45.677,0,0,0,5.109.312c4.329,0,6.2-1.248,7.332-4.875.78-2.574,1.365-9.087,1.638-17.433.039-1.794.117-2.106.546-2.886l-3.042-2.652a5.639,5.639,0,0,1-2.613.429h-8.5c.078-.936.078-.936.117-1.989A27.984,27.984,0,0,1,105,11.864l-7.332-.195a10.914,10.914,0,0,1,.117,1.95c0,1.209-.078,3.471-.195,4.992Zm31.98,14.274c2.379-.195,3.666-.234,8.034-.234h18.564a75.274,75.274,0,0,1,8.034.234V25.358a63.99,63.99,0,0,1-8,.351H132.179a55.264,55.264,0,0,1-8-.351Zm70,.624c1.287,0,2.886.078,4.446.234V27.776a45.652,45.652,0,0,1-4.641.234h-5.772v-2.3h4.8l2.3.039h.858a2.661,2.661,0,0,1,.468.039,36.239,36.239,0,0,1-.156-3.9V15.959a35.762,35.762,0,0,1,.156-4.056,33.971,33.971,0,0,1-4.368.195H178.94a29.5,29.5,0,0,1-4.329-.195,33.9,33.9,0,0,1,.156,3.666v6.24a39.118,39.118,0,0,1-.156,4.017c.9-.078,2.262-.117,3.744-.117h4.017v2.3H176.99c-1.911,0-3.276-.078-4.6-.195V33.7c1.4-.117,3.042-.2,4.6-.2h2.535a26.126,26.126,0,0,1-8.307,7.176V20.951a37.2,37.2,0,0,0,2.613-6.435,19.6,19.6,0,0,1,.7-2.145l-6.045-2.028a26.255,26.255,0,0,1-1.443,5.226,23.242,23.242,0,0,1-5.577,9.048,36.617,36.617,0,0,1,2.145,7.254,21.062,21.062,0,0,0,1.95-2.418c-.039.585-.039.585-.039,1.638,0,.351-.039,2.067-.039,2.262v9.672a33.854,33.854,0,0,1-.234,4.485h6.2a42.086,42.086,0,0,1-.234-4.485V41.114a19.951,19.951,0,0,1,3.276,5.265,28.736,28.736,0,0,0,3.783-3.042,25.331,25.331,0,0,0,4.173-5.187c-.039,1.131-.078,1.833-.078,2.028v3.978a26.607,26.607,0,0,1-.2,3.393h6.279a26.135,26.135,0,0,1-.234-3.393v-1.95c0-1.092-.039-3.12-.078-3.978a27.86,27.86,0,0,0,8.463,8.19,30.538,30.538,0,0,1,2.886-6.279,24.107,24.107,0,0,1-8.5-6.63ZM180.5,17.519h10.062v2.808H180.5ZM225.35,40.8h-2.145V26.762a35.7,35.7,0,0,1,.195-4.641h-5.928a37.576,37.576,0,0,1,.195,4.641V40.8c-.663-.039-1.092-.078-1.638-.156V46.73a38.429,38.429,0,0,1,4.758-.234h12.246a43.364,43.364,0,0,1,4.875.234V40.568a44.427,44.427,0,0,1-4.719.234h-2.106V31.286h2.223a25.306,25.306,0,0,1,3.861.195V25.475a24.688,24.688,0,0,1-3.861.195h-2.223V17.753h1.677a42.2,42.2,0,0,1,4.914.234V11.9a42,42,0,0,1-4.953.234H221.762a41.546,41.546,0,0,1-4.953-.234v6.084a42.932,42.932,0,0,1,4.953-.234h3.588ZM202.3,16.037c1.014-.078,1.872-.117,3.549-.117h5.928c1.755,0,2.457.039,3.549.117V11.474a27.5,27.5,0,0,1-3.549.156H205.85a27.5,27.5,0,0,1-3.549-.156Zm-1.17,6.279a23.2,23.2,0,0,1,3.159-.156h8.736a18.374,18.374,0,0,1,3.081.117V17.09a30.664,30.664,0,0,1-3.159.117H204.29a17.388,17.388,0,0,1-3.159-.195Zm1.287,5.5a18.449,18.449,0,0,1,2.34-.078h8.229a17.067,17.067,0,0,1,2.223.078V23.408a16.125,16.125,0,0,1-2.223.078h-8.229c-1.17,0-1.677-.039-2.34-.078Zm0,5.538a18.394,18.394,0,0,1,2.262-.078h8.19a18.119,18.119,0,0,1,2.34.078V28.946a16.151,16.151,0,0,1-2.262.078h-8.19a19.456,19.456,0,0,1-2.34-.078Zm5.109,14.157v-1.6h2.457v1.053h5.226a24.541,24.541,0,0,1-.078-2.847V37.058a21.373,21.373,0,0,1,.078-2.574,11.712,11.712,0,0,1-2.379.117h-7.878a28.839,28.839,0,0,1-2.886-.117,22.843,22.843,0,0,1,.156,2.925v6.318c0,1.209-.078,2.535-.2,3.783Zm-.117-8.7h2.574v2.535H207.41Zm35.139-17.745h.585c.546,0,.819,0,1.365.039,1.677.039,1.677.039,3.354.039H249.1c-.156.273-.156.273-.741,1.248-.585.936-2.145,3.2-3,4.251a26.778,26.778,0,0,1-4.134,4.056l4.953,4.914a24.775,24.775,0,0,1,3.744-3.939c2.73-2.379,5.421-3.744,7.41-3.744a1.611,1.611,0,0,1,1.56.975c-1.56.7-1.95.858-2.886,1.326a17.179,17.179,0,0,0-5.616,4.173,7.255,7.255,0,0,0-1.911,4.914,6.27,6.27,0,0,0,3.081,5.538c2.106,1.248,4.875,1.794,9.282,1.794a76.97,76.97,0,0,0,9.4-.585,25.191,25.191,0,0,1,3.471-.351l-.429-7.02a36.937,36.937,0,0,1-12.48,1.95c-3.783,0-5.226-.585-5.226-2.067a2.691,2.691,0,0,1,1.014-1.989,8.852,8.852,0,0,1,2.73-1.638l.351-.156a32.012,32.012,0,0,1-.2,4.134l6.357-.195a24.2,24.2,0,0,1-.156-3.354c0-1.716,0-1.755-.039-2.808a64.5,64.5,0,0,1,9.945-2.652L273.2,23.759a16.354,16.354,0,0,1-3.12,1.17c-1.248.39-2.3.741-2.418.78-2.067.7-2.067.7-2.73.936-.78-2.535-2.73-3.783-5.967-3.783a11.508,11.508,0,0,0-4.953,1.17,21.128,21.128,0,0,0,1.872-2.886c3.978-.117,8.853-.39,11.622-.663q1.7-.175,3.51-.351l-.234-6.2a57.164,57.164,0,0,1-9.867,1.248c-1.989.117-1.989.117-2.379.156.039-.078.273-.7.78-1.833a11.333,11.333,0,0,1,.819-1.833L253,11.123a14.113,14.113,0,0,1-1.209,4.329H250.7a37.939,37.939,0,0,1-8.073-.546Z" transform="translate(621 4764)" fill="#fff"/>
    <path id="Path_503" data-name="Path 503" d="M5.439,21.263H6.1c.117,0,.507,0,1.053.039,1.443.078,1.443.078,2.925.117,4.485.2,5.148.234,7.254.234.351,0,.741,0,1.638-.039v.936c.039.936.039.936.039,1.014v.585c-1.209.039-1.794.039-2.613.039A60.2,60.2,0,0,1,6.8,23.564l-.078,5.811c1.17,0,1.365.039,3.081.117,2.223.117,4.017.156,6.279.156.585,0,2.184-.039,3-.039,0,.195.039.975.078,2.3H17.958a19.7,19.7,0,0,0-6.942,1.053C7.9,34.133,6.1,36.473,6.1,39.32c0,4.524,3.627,7.137,10.023,7.137,4.251,0,7.215-1.092,8.5-3.081a6.776,6.776,0,0,0,.936-3.939A20.23,20.23,0,0,1,31.1,42.908a20.67,20.67,0,0,1,2.652,2.5l3.7-6.279c-.624-.39-.9-.546-1.482-.936a38.857,38.857,0,0,0-5.226-3.237,22.342,22.342,0,0,0-5.343-2.106c-.078-1.638-.078-1.638-.117-3.432,2.145-.078,5.889-.351,7.644-.546,1.677-.156,1.677-.156,2.5-.195l-.156-5.967a61.7,61.7,0,0,1-10.062,1.17V21.419a76.533,76.533,0,0,0,7.839-.663c2.067-.273,2.3-.273,3.432-.351l-.195-5.967A60.029,60.029,0,0,1,25.212,15.8a24.251,24.251,0,0,1,.312-4.056H18.66A27.244,27.244,0,0,1,18.894,16c-1.17.039-1.677.039-2.145.039a56.016,56.016,0,0,1-11.232-.819ZM19.167,37.721s.039.429.039.663c0,1.755-.936,2.5-3.12,2.5-1.95,0-3.042-.585-3.042-1.56,0-1.209,1.365-1.872,3.744-1.872A8.421,8.421,0,0,1,19.167,37.721ZM73.65,28.595a22.1,22.1,0,0,0-3-5.265l-3.705,1.521a26.13,26.13,0,0,1,2.925,5.46Zm4.8-2.067a23.86,23.86,0,0,0-3-5.031l-3.666,1.482A25.547,25.547,0,0,1,74.7,28.2Zm-35.3-3.9a30.138,30.138,0,0,1,3.354-.507L60,20.912a15.959,15.959,0,0,0-3.822,3.315,13.351,13.351,0,0,0-3.315,8.814c0,4.953,2.379,8.541,6.981,10.686a29.458,29.458,0,0,0,9.867,2.184c.7.078.9.117,1.443.195l.9-7.41c-.546.039-.78.039-1.17.039a20.437,20.437,0,0,1-7.449-1.4c-2.223-1.053-3.276-2.574-3.276-4.8,0-3.2,2.3-6.513,6.2-8.892a18.279,18.279,0,0,1,8.931-2.73,5.931,5.931,0,0,1,1.092.078l-.351-7.059a22.377,22.377,0,0,1-4.29.312c-11.895.429-14.742.585-20.826.975-4.251.273-5.655.351-6.669.351-.312,0-.819,0-1.482-.039Zm66.3,10.881v-5.46h3.354a26.175,26.175,0,0,1,3.315.156V22.589a19.6,19.6,0,0,1-3.315.195h-3.354V17.6c1.989-.312,5.811-1.092,7.605-1.521l-3.666-5.343c-1.209.7-3.588,1.287-8.19,1.989a71.041,71.041,0,0,1-10.959.858,19.983,19.983,0,0,1,1.677,5.538c3.471-.273,4.8-.39,7.722-.7V33.509H101.5V25.163a24.8,24.8,0,0,1,.156-3.627H95.685a26.582,26.582,0,0,1,.2,3.861v8.112a18.634,18.634,0,0,1-2.5-.156v5.655a21.232,21.232,0,0,1,3.861-.156h15.912a26.583,26.583,0,0,1,3.861.195V33.314a31.6,31.6,0,0,1-3.861.195ZM81.06,32.144c.273.468.429.741.546.975a31.031,31.031,0,0,0,2.964,5.109,22.291,22.291,0,0,1-4.329,4.017,19.273,19.273,0,0,1,3.705,5.265,27.907,27.907,0,0,0,4.563-4.8,14.156,14.156,0,0,0,6.2,3.12,75.232,75.232,0,0,0,13.416.9c1.248,0,5.967-.039,8.658-.039a25.848,25.848,0,0,1,1.248-6.084c-4.329.312-7.839.429-13.806.429-8.034,0-10.257-.468-13.065-2.847,1.911-4.173,2.574-7.41,3.081-14.937a23.082,23.082,0,0,1-2.535.117H88.782c1.248-1.6,2.067-2.691,2.886-3.939,1.638-2.535,2.5-3.861,2.613-3.978l-2.652-3.588a14.254,14.254,0,0,1-2.73.156H84.1a21.835,21.835,0,0,1-2.886-.156V17.48a20.562,20.562,0,0,1,2.652-.156H86.6A30.718,30.718,0,0,1,81.606,23.6v5.109c.741-.078,1.716-.117,2.691-.117h4.212a17.347,17.347,0,0,1-1.131,4.8,17.8,17.8,0,0,1-1.326-2.964c-.273-.741-.273-.741-.39-1.053Zm68.016,1.443h3.432a27.1,27.1,0,0,1,3.315.195v-5.5a24.944,24.944,0,0,1-3.9.195H131.37V27.191H148.1a26.847,26.847,0,0,1,3.354.156V23.135a25.209,25.209,0,0,1-3.393.156H131.37V22.082h16.692c.273,0,.78,0,1.521.039a5.239,5.239,0,0,0,.741.039c.663.039.741.039,1.131.078V18.065a24.928,24.928,0,0,1-3.354.156H131.37V16.973h16.653a42.993,42.993,0,0,1,4.875.156V11.747a38.967,38.967,0,0,1-4.953.195H129.732c-2.067,0-3.237-.039-4.485-.156a30.358,30.358,0,0,1,.156,3.861V28.478h-1.014a26.378,26.378,0,0,1-4.29-.195v5.5a33.3,33.3,0,0,1,4.173-.195H125.4v7.761a34.251,34.251,0,0,1-4.992.468l.819,5.928c.7-.156.858-.195,1.794-.351.858-.117,1.443-.234,1.833-.273,1.833-.273,2.3-.351,3.627-.585a89.678,89.678,0,0,0,10.374-2.379l-.039-3.783c4.1,3.666,8.424,5.772,15.132,7.293a20.093,20.093,0,0,1,2.73-6.006,31.324,31.324,0,0,1-8.814-2.262,42.422,42.422,0,0,0,4.446-3.276,5.36,5.36,0,0,1,.7-.585Zm-2.184,0a40.252,40.252,0,0,1-3.939,3.081,10.141,10.141,0,0,1-2.769-3.081Zm-13.065,0a17.754,17.754,0,0,0,3.744,5.577,55.94,55.94,0,0,1-6.24,1.287V33.587Z" transform="translate(1138 4764)" fill="#fff"/>
    <path id="Path_501" data-name="Path 501" d="M10.211,57.1c-1.794.117-2.457.156-2.886.156a6.067,6.067,0,0,1-.78-.039l1.17,5.694a11.8,11.8,0,0,1,1.677-.351c6.045-.858,7.059-1.014,10.3-1.638a31.214,31.214,0,0,1-.195,3.627H25.46a30.009,30.009,0,0,1-.195-3.588,16.6,16.6,0,0,1,1.716,3.432A31.321,31.321,0,0,0,32.87,61a31.454,31.454,0,0,0,7.956,3.588,21.838,21.838,0,0,1,2.535-5.538A25.739,25.739,0,0,1,37,57.295a28.473,28.473,0,0,0,3.861-5.5,12.99,12.99,0,0,1,.936-1.755l-2.769-3a18.37,18.37,0,0,1-2.886.156H29.4a23.645,23.645,0,0,1-3.276-.156V52.03a22.22,22.22,0,0,1,3.12-.156h.7l-4.017,1.638a21.731,21.731,0,0,0,2.73,3.822,21.114,21.114,0,0,1-3.393,1.6V46.024H38.33a34.357,34.357,0,0,1,4.563.195v-4.8a31.367,31.367,0,0,1-4.446.2H11.3a32.3,32.3,0,0,1-4.524-.2v4.8c1.092-.117,1.911-.156,3.432-.195Zm5.5-11.076h3.978v1.248H15.71Zm0,4.407h3.978V51.8H15.71Zm0,4.524h3.978v1.209q-2.866.351-3.978.468Zm19.071-3.081a12.544,12.544,0,0,1-2.145,2.574,12.023,12.023,0,0,1-1.989-2.574Zm4.368-19.5a28.8,28.8,0,0,1,.156-3.666,39.791,39.791,0,0,1-4.1.156H14.618a39.791,39.791,0,0,1-4.1-.156,30.4,30.4,0,0,1,.156,3.666v4.641a29.689,29.689,0,0,1-.156,3.627c1.131-.078,2.067-.117,3.861-.117H36.107c1.755.039,2.808.078,3.2.078a27.8,27.8,0,0,1-.156-3.588ZM16.373,32.3h17v1.17h-17Zm0,3.939h17v1.131h-17ZM74.834,50.587h3.432a27.1,27.1,0,0,1,3.315.195v-5.5a24.944,24.944,0,0,1-3.9.195H57.128V44.191H73.859a26.847,26.847,0,0,1,3.354.156V40.135a25.209,25.209,0,0,1-3.393.156H57.128V39.082H73.82c.273,0,.78,0,1.521.039a5.239,5.239,0,0,0,.741.039c.663.039.741.039,1.131.078V35.065a24.928,24.928,0,0,1-3.354.156H57.128V33.973H73.781a42.994,42.994,0,0,1,4.875.156V28.747a38.967,38.967,0,0,1-4.953.195H55.49c-2.067,0-3.237-.039-4.485-.156a30.358,30.358,0,0,1,.156,3.861V45.478H50.147a26.378,26.378,0,0,1-4.29-.195v5.5a33.3,33.3,0,0,1,4.173-.195h1.131v7.761a34.251,34.251,0,0,1-4.992.468l.819,5.928c.7-.156.858-.195,1.794-.351.858-.117,1.443-.234,1.833-.273,1.833-.273,2.3-.351,3.627-.585a89.678,89.678,0,0,0,10.374-2.379l-.039-3.783c4.1,3.666,8.424,5.772,15.132,7.293a20.093,20.093,0,0,1,2.73-6.006A31.324,31.324,0,0,1,73.625,56.4a42.422,42.422,0,0,0,4.446-3.276,5.36,5.36,0,0,1,.7-.585Zm-2.184,0a40.252,40.252,0,0,1-3.939,3.081,10.141,10.141,0,0,1-2.769-3.081Zm-13.065,0a17.754,17.754,0,0,0,3.744,5.577,55.941,55.941,0,0,1-6.24,1.287V50.587Zm31.4-23.229a57.113,57.113,0,0,1,6.588-.378h2.16V54.52a61.97,61.97,0,0,1-.432,8.154h11.772a62.5,62.5,0,0,1-.432-8.154v-28.3a83.837,83.837,0,0,1,.378-8.694,53.565,53.565,0,0,1-6.7.216H97.46a35.2,35.2,0,0,1-6.48-.378Zm54.864,36.288c6.858,0,12.528-3.024,15.768-8.424,2.052-3.4,3.4-9.342,3.4-15.012a35.919,35.919,0,0,0-2.106-12.42,17.005,17.005,0,0,0-3.942-5.994,18.363,18.363,0,0,0-13.122-5.022c-6.8,0-12.42,3.024-15.714,8.532-2.052,3.4-3.4,9.288-3.4,14.958a35.832,35.832,0,0,0,2.106,12.366,17.005,17.005,0,0,0,3.942,5.994A17.921,17.921,0,0,0,145.844,63.646Zm0-37.746c5.238,0,8.046,4.86,8.046,14.094,0,9.612-2.7,14.472-7.992,14.472-5.346,0-8.1-4.968-8.1-14.634C137.8,31.03,140.768,25.9,145.844,25.9Zm28.191,25.194h-.9a38.552,38.552,0,0,1-4.641-.234V56.9a39.009,39.009,0,0,1,4.641-.234h12.129V59.83a36.446,36.446,0,0,1-.234,4.836h6.513a30.543,30.543,0,0,1-.234-4.719V56.671h8.19a39.23,39.23,0,0,1,4.6.234V50.86a36.536,36.536,0,0,1-4.6.234h-8.19v-5.07h5.655c1.911,0,3.042.039,4.329.156V40.525c-1.287.117-2.457.156-4.524.156h-5.46V36.937h7.02a36.235,36.235,0,0,1,4.485.234V31.243a34.521,34.521,0,0,1-4.485.234H181.211c.273-.546.39-.819.585-1.248.429-1.014.468-1.092.819-1.794l-6.474-1.092a11.52,11.52,0,0,1-.975,2.808,23.8,23.8,0,0,1-7.41,9.048,17.676,17.676,0,0,1,3.9,5.148c1.092-1.014,1.443-1.365,2.379-2.34v9.087Zm5.811,0v-5.07h5.421v5.07Zm5.421-14.157v3.744h-8.619c-.624,0-.858,0-1.443-.039a35.826,35.826,0,0,0,2.886-3.705Zm48.36,10.92c0-1.482.039-2.418.117-3.315-1.053.078-1.911.117-3.393.117H220.133c-1.4,0-2.34-.039-3.393-.117.078.936.117,1.95.117,3.315V58.27c0,1.521-.039,2.925-.156,4.134h5.538V60.766h9.4a30.436,30.436,0,0,1,.585,3.354c2.3.078,2.418.078,2.925.078,5.928,0,7.1-.9,7.1-5.538V33.271c0-2.067.039-3.081.156-4.407a34.32,34.32,0,0,1-3.939.156h-8.5a33.792,33.792,0,0,1-3.978-.156c.078,1.17.117,2.145.117,3.588v7.1c0,2.028,0,2.379-.078,3.432.819-.039,2.145-.078,3.2-.078h7.254v14.82c0,.858-.078.9-2.184.9a5.807,5.807,0,0,1-.663-.039V47.857ZM231.56,33.115h4.914V34.48H231.56Zm0,4.563h4.914v1.4H231.56Zm-9.321,11.466h6.006V50.7h-6.006Zm0,5.46h6.006v1.6h-6.006Zm-8.112-11.739h6.9c1.17,0,2.34.039,3.2.078a33.742,33.742,0,0,1-.078-3.393v-7.1c0-1.521.039-2.418.117-3.588a31.726,31.726,0,0,1-3.978.156H212.1a34.757,34.757,0,0,1-3.939-.156,43.854,43.854,0,0,1,.156,4.485V59.128a40.388,40.388,0,0,1-.234,5.265h6.279a40.507,40.507,0,0,1-.234-5.226Zm0-9.75h4.641V34.48h-4.641Zm0,4.563h4.641v1.4h-4.641Z" transform="translate(894 4747)" fill="red"/>
  </g>
</svg>
