<svg xmlns="http://www.w3.org/2000/svg" width="346.915" height="266.384" viewBox="0 0 346.915 266.384">
  <g id="Group_446" data-name="Group 446" transform="translate(-201.44 -4781.41)">
    <path id="Path_512" data-name="Path 512" d="M7,7.74A1.05,1.05,0,1,0,5.95,6.69,1.058,1.058,0,0,0,7,7.74Zm0,2.534L2.38,5.654l-.406.406,4.62,4.62L1.96,15.314l.406.406L7,11.086l4.62,4.62.406-.406-4.62-4.62,4.62-4.62-.406-.406Zm-2.94.406a1.05,1.05,0,1,0-1.05,1.05A1.058,1.058,0,0,0,4.06,10.68Zm5.88,0a1.05,1.05,0,1,0,1.05-1.05A1.058,1.058,0,0,0,9.94,10.68ZM7,13.62a1.05,1.05,0,1,0,1.05,1.05A1.058,1.058,0,0,0,7,13.62Zm10.892-9.3A15.72,15.72,0,0,1,14.364,9.84a8.5,8.5,0,0,1,.588,1.008,15.129,15.129,0,0,0,1.5-1.792v7.98h.994V7.53a20.8,20.8,0,0,0,1.428-2.912Zm2.422,1.554h5.194V8.44H20.314Zm7,6.174V11.1h-3.92V9.364h3.15V4.94h-7.21V9.364h3.024V11.1H18.3v.952h3.458a10.37,10.37,0,0,1-3.864,3.584,5.127,5.127,0,0,1,.728.826,11.7,11.7,0,0,0,3.738-3.724v4.34h1.036V12.7a12.894,12.894,0,0,0,3.542,3.794,4.717,4.717,0,0,1,.742-.826A10.908,10.908,0,0,1,24,12.052Zm5.838-7.28H29.33v.84h3.822Zm.49,1.862H28.588v.854h5.054Zm-.476,1.932h-3.92v.826h3.92Zm-3.92,2.73h3.92V10.47h-3.92Zm3.066,1.932v2.324H30.128V13.228Zm.91-.854h-4V17.05h.91v-.63h3.094Zm5.138,3.22V10.946h2.772v-.98H38.36V6.116h2.856V5.15H34.1v.966h3.248v9.478h-1.68V8.636h-.98v6.958h-1.05v.994h7.8v-.994ZM44.9,11.352h2.534v1.4H44.9Zm2.534-4.284V8.3H44.9V7.068ZM44.9,9.14h2.534v1.372H44.9Zm4.522,3.612H48.4V7.068H49.42V6.13H48.4V4.45h-.966V6.13H44.9V4.45h-.952V6.13H42.77v.938h1.176v5.684H42.588v.938H49.42Zm-4.9,1.232A7.3,7.3,0,0,1,42.6,16.476a6.436,6.436,0,0,1,.84.6,9.254,9.254,0,0,0,2.072-2.828Zm1.988.434a10.991,10.991,0,0,1,1.442,2.128l.84-.49a10.371,10.371,0,0,0-1.47-2.072Zm4.55-3c.014-.476.028-.952.028-1.386V9.1h2.856v2.324Zm2.884-5.488V8.16H51.086V5.934Zm1.008-.952H50.106v5.054c0,2-.112,4.662-1.274,6.51a2.668,2.668,0,0,1,.826.6,10.96,10.96,0,0,0,1.33-4.788h2.954v3.36c0,.224-.084.294-.294.294s-.9.014-1.638,0a4.232,4.232,0,0,1,.322,1.008,6.206,6.206,0,0,0,2.086-.2c.378-.168.532-.476.532-1.092Zm6.412.714V6.858H58.338V5.7ZM58.338,8.86V7.628h3.024V8.86Zm4.018.8V4.884H57.3V17.078h1.036V9.658ZM64.61,11.52v1.288H61.32V11.52Zm-3.29,3.43V13.592h3.29V14.95Zm4.256.826V10.708H60.382v5.768h.938v-.7Zm-.98-6.9V7.628h3.136V8.874ZM67.732,5.7V6.858H64.6V5.7Zm1.05-.812H63.6V9.672h4.13v6.006c0,.252-.084.336-.322.336S66.3,16.042,65.45,16a3.834,3.834,0,0,1,.364,1.064,7.969,7.969,0,0,0,2.352-.182c.462-.182.616-.532.616-1.19Zm7.6,1.666V7.67a32.908,32.908,0,0,0,5.754,0V6.536A23.953,23.953,0,0,1,76.384,6.55Zm.546,5.7-1.008-.1a7.524,7.524,0,0,0-.238,1.652c0,1.316,1.05,2.1,3.4,2.1a18.972,18.972,0,0,0,3.5-.294l-.028-1.176a15.444,15.444,0,0,1-3.472.364c-1.9,0-2.366-.616-2.366-1.26A4.889,4.889,0,0,1,76.93,12.248ZM73.71,5.472,72.464,5.36a6.127,6.127,0,0,1-.1.994,39.379,39.379,0,0,0-.63,5.614,17.627,17.627,0,0,0,.518,4.494l1.008-.07c-.014-.14-.028-.336-.042-.49a2.7,2.7,0,0,1,.07-.63,28.573,28.573,0,0,1,.994-3.136l-.588-.448c-.238.574-.574,1.414-.812,2.044a15.355,15.355,0,0,1-.126-1.96,32.509,32.509,0,0,1,.7-5.362C73.514,6.158,73.64,5.71,73.71,5.472Zm11.312,3.22.518,1.232c1.106-.448,4.676-1.974,6.972-1.974,1.89,0,2.982,1.148,2.982,2.618,0,2.87-3.276,3.976-6.944,4.074l.5,1.162c4.312-.238,7.658-1.862,7.658-5.208,0-2.352-1.848-3.7-4.172-3.7a22.291,22.291,0,0,0-5.978,1.386A13.969,13.969,0,0,1,85.022,8.692Zm16.1-2.464L99.764,6.2a6.315,6.315,0,0,1,.1,1.246c0,.812.028,2.52.154,3.738.378,3.626,1.652,4.942,2.982,4.942.938,0,1.792-.812,2.632-3.192l-.882-.994c-.364,1.4-1.022,2.856-1.736,2.856-.994,0-1.68-1.554-1.9-3.892-.1-1.162-.112-2.436-.1-3.318A10.659,10.659,0,0,1,101.122,6.228Zm7.294.392L107.324,7a14.185,14.185,0,0,1,2.436,7.042l1.12-.462A15.046,15.046,0,0,0,108.416,6.62Zm4.354.084.126,1.218c1.512-.322,5.082-.658,6.58-.826a5.687,5.687,0,0,0-2.618,4.732c0,3.122,2.954,4.508,5.544,4.606l.406-1.162c-2.282-.084-4.83-.952-4.83-3.7a4.924,4.924,0,0,1,3.206-4.424,11.726,11.726,0,0,1,2.744-.224V5.808c-.938.042-2.254.112-3.78.252-2.576.21-5.222.476-6.132.574C113.75,6.662,113.3,6.69,112.77,6.7Zm18.774,7.616c0-.686.742-1.134,1.792-1.134a4.764,4.764,0,0,1,1.428.224c.014.182.014.35.014.49,0,.924-.35,1.526-1.526,1.526C132.244,15.426,131.544,15.034,131.544,14.32Zm4.242-9.1h-1.26c.028.238.056.616.056.854V7.81c-.434.014-.882.028-1.316.028-.84,0-1.582-.042-2.38-.112v1.05c.826.056,1.554.1,2.352.1.448,0,.9-.014,1.344-.028.014,1.148.1,2.52.14,3.6a6.42,6.42,0,0,0-1.3-.126c-1.834,0-2.884.938-2.884,2.114,0,1.26,1.036,2,2.912,2s2.422-1.106,2.422-2.254v-.294a11.39,11.39,0,0,1,2.114,1.624l.616-.938a9.228,9.228,0,0,0-2.772-1.806c-.056-1.176-.154-2.576-.168-3.99.84-.056,1.652-.14,2.422-.266V7.432a23.64,23.64,0,0,1-2.422.322c.014-.658.028-1.316.042-1.694Q135.723,5.64,135.786,5.22ZM128.87,5.3l-1.232-.1a8.4,8.4,0,0,1-.084.994,41.657,41.657,0,0,0-.644,5.894,16.91,16.91,0,0,0,.532,4.424l.98-.07c-.014-.154-.028-.35-.028-.49a2.509,2.509,0,0,1,.056-.63c.14-.686.658-2.114.994-3.094l-.574-.448c-.238.574-.574,1.428-.8,2.058a13.133,13.133,0,0,1-.14-1.946,34.712,34.712,0,0,1,.7-5.642A7.279,7.279,0,0,1,128.87,5.3Zm14.252,11.48.952-.812a26.277,26.277,0,0,0-3.136-3.108l-.91.8A23.325,23.325,0,0,1,143.122,16.784Zm15.932-11.97h-1.246a7.381,7.381,0,0,1,.07.994c0,.252-.014.868-.014,1.6-.392.028-.756.042-1.078.042a12.955,12.955,0,0,1-1.792-.112l.028,1.064a15.378,15.378,0,0,0,1.792.07c.294,0,.644-.014,1.036-.042-.014.616-.014,1.274-.014,1.834v.8c-1.61.686-3.066,1.9-3.066,3.066,0,1.246,1.82,2.324,2.912,2.324.756,0,1.232-.42,1.232-1.722,0-.6-.028-1.848-.056-3.038a9.171,9.171,0,0,1,3.052-.546c1.33,0,2.408.644,2.408,1.834,0,1.288-1.12,1.946-2.352,2.184a7.16,7.16,0,0,1-1.638.1l.392,1.134a10.616,10.616,0,0,0,1.736-.2c1.918-.462,2.982-1.54,2.982-3.234s-1.47-2.786-3.514-2.786a10.588,10.588,0,0,0-3.08.518V10.2c0-.56.014-1.232.028-1.89a25.7,25.7,0,0,0,2.94-.49l-.028-1.092a18.828,18.828,0,0,1-2.884.56c.014-.63.042-1.176.056-1.512A8.981,8.981,0,0,1,159.054,4.814Zm4.34,1.554-.5.84a17.759,17.759,0,0,1,3.136,2.1l.574-.9A25.448,25.448,0,0,0,163.394,6.368Zm-7.532,7.7c0-.63.854-1.442,2-1.974.014,1.022.042,1.974.042,2.478,0,.462-.2.686-.518.686C156.842,15.258,155.862,14.712,155.862,14.068Zm13.86-3.052c.126-.63.238-1.316.35-1.974h4.214V4.87H168.7v.98h4.564V8.062h-4.088c-.2,1.414-.532,3.262-.812,4.424l1.022.168c.042-.21.1-.434.154-.672h3.682c-.182,2.52-.42,3.6-.756,3.892a.813.813,0,0,1-.616.154c-.35,0-1.274-.014-2.2-.1a2.359,2.359,0,0,1,.364,1.064,20.375,20.375,0,0,0,2.212.028,1.35,1.35,0,0,0,1.106-.448c.5-.476.742-1.778.994-5.082.014-.14.028-.476.028-.476Zm8.386-6.58V17.064h1.036V4.436Zm7.476,1.47a8.908,8.908,0,0,0-2.338-1.456l-.574.756a9.751,9.751,0,0,1,2.3,1.526Zm-.714,3.612a10.485,10.485,0,0,0-2.408-1.386l-.588.77a10.208,10.208,0,0,1,2.394,1.47Zm-.6,2.24a38.948,38.948,0,0,1-2.2,4.508l.938.616c.686-1.316,1.5-3.038,2.1-4.522Zm7.784-2.814v1.33h-2.59V8.944Zm-5.068,0h1.568V11.1H193V8.944h1.652V8.09H193V6.97h-.952V8.09h-2.59V6.97h-.91V8.09h-1.568v-1.5h7.574V5.7h-3.64V4.3h-1.036V5.7H185.99V9.448c0,2.1-.126,5.026-1.526,7.084a3.526,3.526,0,0,1,.868.5c1.442-2.156,1.652-5.348,1.652-7.588Zm5.586,3.808a5.771,5.771,0,0,1-1.82,1.862,5.458,5.458,0,0,1-1.638-1.862Zm.728-.9-.182.042h-5.768v.854h1.484l-.658.2a7.077,7.077,0,0,0,1.736,2.17,11.608,11.608,0,0,1-3.262,1.078,3.434,3.434,0,0,1,.5.84,12.828,12.828,0,0,0,3.57-1.316,10.3,10.3,0,0,0,3.458,1.33,3.46,3.46,0,0,1,.63-.854,10.247,10.247,0,0,1-3.22-1.05,6.875,6.875,0,0,0,2.338-3.01Zm6.762-6.762-1.414-.014a7.389,7.389,0,0,1,.112,1.428c0,1.47-.14,5.012-.14,7.084,0,2.282,1.386,3.122,3.4,3.122a7.037,7.037,0,0,0,5.852-3.094l-.8-.952a5.833,5.833,0,0,1-5.012,2.9c-1.33,0-2.3-.546-2.3-2.086,0-2.086.1-5.39.168-6.972A12.054,12.054,0,0,1,200.06,5.094Zm12.81,9.884V11.072h6.944v3.906Zm6.944-8.708v3.78H212.87V6.27ZM211.82,5.248V16.91h1.05V16h6.944v.854h1.092V5.248ZM229.5,5l-1.26-.084a4.8,4.8,0,0,1-.014.994c-.028.406-.084.91-.154,1.47a13.882,13.882,0,0,1-3.066-.518l-.056,1.022a19.308,19.308,0,0,0,3.01.49c-.112.826-.224,1.708-.308,2.534a12.494,12.494,0,0,1-2.982-.574l-.056,1.078a13.837,13.837,0,0,0,2.926.5c-.07.658-.112,1.218-.112,1.61,0,2.3,1.526,3.122,3.43,3.122,2.772,0,4.62-1.26,4.62-3.346a4.594,4.594,0,0,0-1.428-3.234l-1.232.252a3.884,3.884,0,0,1,1.526,2.856c0,1.442-1.358,2.38-3.486,2.38a2.046,2.046,0,0,1-2.352-2.2c0-.336.028-.826.084-1.386h.5a25.359,25.359,0,0,0,2.744-.14l.028-1.064a20.59,20.59,0,0,1-2.912.182h-.266c.1-.826.21-1.708.308-2.534h.1c1.134,0,1.946-.042,2.842-.126l.028-1.05a18.879,18.879,0,0,1-2.842.182c.084-.588.154-1.078.2-1.442A7.814,7.814,0,0,1,229.5,5Zm12.558.1-1.414-.014a7.389,7.389,0,0,1,.112,1.428c0,1.47-.14,5.012-.14,7.084,0,2.282,1.386,3.122,3.4,3.122a7.037,7.037,0,0,0,5.852-3.094l-.8-.952a5.833,5.833,0,0,1-5.012,2.9c-1.33,0-2.3-.546-2.3-2.086,0-2.086.1-5.39.168-6.972A12.054,12.054,0,0,1,242.06,5.094Zm19.1.574-1.036-.924a6.629,6.629,0,0,1-.8.938c-.952.966-3.08,2.646-4.13,3.528-1.26,1.064-1.428,1.666-.1,2.772,1.3,1.078,3.43,2.9,4.41,3.906.35.336.672.686.966,1.022l.994-.924c-1.484-1.484-3.962-3.486-5.236-4.522-.9-.756-.882-.98-.042-1.694,1.036-.868,3.052-2.464,4-3.3C260.428,6.27,260.862,5.906,261.156,5.668Zm10.388,8.652c0-.686.742-1.134,1.792-1.134a4.764,4.764,0,0,1,1.428.224c.014.182.014.35.014.49,0,.924-.35,1.526-1.526,1.526C272.244,15.426,271.544,15.034,271.544,14.32Zm4.242-9.1h-1.26c.028.238.056.616.056.854V7.81c-.434.014-.882.028-1.316.028-.84,0-1.582-.042-2.38-.112v1.05c.826.056,1.554.1,2.352.1.448,0,.9-.014,1.344-.028.014,1.148.1,2.52.14,3.6a6.42,6.42,0,0,0-1.3-.126c-1.834,0-2.884.938-2.884,2.114,0,1.26,1.036,2,2.912,2s2.422-1.106,2.422-2.254v-.294a11.389,11.389,0,0,1,2.114,1.624l.616-.938a9.228,9.228,0,0,0-2.772-1.806c-.056-1.176-.154-2.576-.168-3.99.84-.056,1.652-.14,2.422-.266V7.432a23.641,23.641,0,0,1-2.422.322c.014-.658.028-1.316.042-1.694Q275.723,5.64,275.786,5.22ZM268.87,5.3l-1.232-.1a8.4,8.4,0,0,1-.084.994,41.655,41.655,0,0,0-.644,5.894,16.91,16.91,0,0,0,.532,4.424l.98-.07c-.014-.154-.028-.35-.028-.49a2.508,2.508,0,0,1,.056-.63c.14-.686.658-2.114.994-3.094l-.574-.448c-.238.574-.574,1.428-.8,2.058a13.134,13.134,0,0,1-.14-1.946,34.712,34.712,0,0,1,.7-5.642A7.276,7.276,0,0,1,268.87,5.3ZM283.5,7.46h-2.086V5.682H283.5Zm0,2.6h-2.086V8.272H283.5Zm0,2.646h-2.086V10.89H283.5Zm.938-7.9H280.5v8.75h3.934Zm-3.248,9.044a6.141,6.141,0,0,1-1.4,2.66,7.044,7.044,0,0,1,.784.56,8.383,8.383,0,0,0,1.554-3.01Zm1.75.336a11.662,11.662,0,0,1,1.12,2.2l.826-.392a11.781,11.781,0,0,0-1.162-2.156Zm6.174-.224V12.92h1.792v1.05Zm-2.632-1.05h1.708v1.05h-1.708ZM288.19,11.2v.994h-1.708V11.2Zm2.716,0v.994h-1.792V11.2Zm-3.276-3.3H289.7v.924H287.63Zm0-1.61H289.7v.84H287.63ZM292.7,13.97h-.84V10.414h-2.744V9.6h3.528V8.818h-2V7.894h1.484v-.77H290.64v-.84h1.708V5.5H290.64V4.3H289.7V5.5H287.63V4.3h-.924V5.5h-1.694v.784h1.694v.84h-1.33v.77h1.33v.924H284.69V9.6h3.5v.812h-2.646V13.97h-.91v.8h.91v2.31h.938v-2.31h4.424v1.218c0,.182-.07.224-.238.238-.2,0-.868,0-1.6-.014a3.344,3.344,0,0,1,.294.84,7.242,7.242,0,0,0,2.03-.14c.35-.154.462-.42.462-.924V14.768h.84Zm3.822-8.834V6.172h3.444c.028.532.084,1.148.182,1.792l-.616-.1c-.854,3.92-2.576,6.734-5.67,8.344a6.813,6.813,0,0,1,.938.826c2.786-1.638,4.55-4.186,5.586-7.812a12.081,12.081,0,0,0,5.558,7.8,4.947,4.947,0,0,1,.84-.868c-5.488-3.262-5.81-8.54-5.81-11.018ZM3.57,34.978V31.072h6.944v3.906Zm6.944-8.708v3.78H3.57V26.27ZM2.52,25.248V36.91H3.57V36h6.944v.854h1.092V25.248ZM16.884,34.39c0-.77.826-1.274,2.268-1.274a6.428,6.428,0,0,1,1.372.14c0,.364.014.672.014.9,0,.966-.5,1.442-1.526,1.442C17.668,35.594,16.884,35.16,16.884,34.39Zm4.69-9.38h-1.33a7.048,7.048,0,0,1,.112,1.386c.014.6.014,1.75.014,2.562,0,.84.056,2.128.112,3.262a8.355,8.355,0,0,0-1.19-.084c-2.422,0-3.528,1.036-3.528,2.3,0,1.6,1.428,2.212,3.36,2.212,1.862,0,2.562-.98,2.562-2.128,0-.252-.014-.574-.028-.938A9.939,9.939,0,0,1,25.3,35.9l.672-1.064a11.1,11.1,0,0,0-4.354-2.38c-.07-1.218-.14-2.576-.14-3.5v-.112c1.148-.014,2.94-.1,4.186-.224l-.042-1.05c-1.26.154-3.038.224-4.144.252,0-.546-.014-1.05,0-1.428C21.49,25.976,21.532,25.3,21.574,25.01Zm10.892-.056-1.232-.042c-.028.378-.056.784-.112,1.2a36.995,36.995,0,0,0-.434,4.522,17.049,17.049,0,0,0,.154,2.226l1.078-.084a6.525,6.525,0,0,1-.028-1.722c.168-1.834,1.792-4.382,3.542-4.382,1.47,0,2.226,1.6,2.226,3.808,0,3.514-2.38,4.76-5.418,5.208L32.9,36.7c3.472-.63,5.908-2.338,5.908-6.23,0-2.94-1.33-4.8-3.192-4.8-1.778,0-3.234,1.75-3.808,3.178A25.992,25.992,0,0,1,32.466,24.954Zm14.63.728v1.134H44.03V25.682Zm-3.066,3.08v-1.2H47.1v1.2Zm4.046.8V24.884H43.008V37.078H44.03V29.56Zm-.392,3.248V31.3h1.96v1.512Zm4.788.882v-.882h-1.9V31.3h1.6v-.854h-6.9V31.3h1.512v1.512H45v.882h1.75a3.523,3.523,0,0,1-1.652,2.688,3.645,3.645,0,0,1,.686.616,4.49,4.49,0,0,0,1.876-3.3h1.988v3.122h.924V33.69ZM50.3,28.776V27.558H53.48v1.218Zm3.178-3.094v1.134H50.3V25.682Zm1.022-.8H49.308v4.69H53.48v6.132c0,.224-.07.308-.294.308s-.966.014-1.736-.014a3.44,3.44,0,0,1,.336,1.036,6.5,6.5,0,0,0,2.17-.182c.406-.182.546-.518.546-1.134ZM61.74,30.12c1.652-.1,3.99-.28,6.258-.448a7.717,7.717,0,0,1,.42.994l.9-.5a15.534,15.534,0,0,0-2.254-3.724l-.826.42a16.7,16.7,0,0,1,1.274,1.9c-1.3.084-2.6.168-3.752.238.588-1.3,1.232-3.052,1.722-4.48l-1.134-.238a35.432,35.432,0,0,1-1.61,4.774l-1.106.056Zm-1.246-1.988a16.306,16.306,0,0,1-1.064,4.606c-.532-.378-1.106-.728-1.638-1.036.28-1.092.588-2.324.882-3.57Zm.434-.994-.182.028H58.884c.224-.966.434-1.918.6-2.772l-.994-.112c-.168.868-.364,1.862-.588,2.884H56.378v.966h1.316c-.406,1.736-.826,3.458-1.176,4.648l.868.462.168-.6c.476.294.98.644,1.442.994a6.153,6.153,0,0,1-2.534,2.632,4.62,4.62,0,0,1,.644.84,7.625,7.625,0,0,0,2.7-2.828,10.694,10.694,0,0,1,1.442,1.414l.63-.826a10.254,10.254,0,0,0-1.624-1.512,18.466,18.466,0,0,0,1.3-6.09Zm6.552,5.25V35.51H63.574V32.388Zm-4.9,4.69h.994v-.63H67.48v.574h1.036V31.436H62.58Zm11.9-11.984-1.414-.014a7.389,7.389,0,0,1,.112,1.428c0,1.47-.14,5.012-.14,7.084,0,2.282,1.386,3.122,3.4,3.122a7.037,7.037,0,0,0,5.852-3.094l-.8-.952a5.833,5.833,0,0,1-5.012,2.9c-1.33,0-2.3-.546-2.3-2.086,0-2.086.1-5.39.168-6.972A12.054,12.054,0,0,1,74.48,25.094Zm13.062,11.69.952-.812a26.278,26.278,0,0,0-3.136-3.108l-.91.8A23.324,23.324,0,0,1,87.542,36.784Zm17.08-11.718H98.63V26h5.992Zm-1.358,3.346v2.436h-3.136V28.412Zm1.008,3.388V27.46H99.134v3.766a10.16,10.16,0,0,1-1.05,5.222,5.1,5.1,0,0,1,.8.63,10.455,10.455,0,0,0,1.246-5.278Zm6.916-2.786h-4.97v-2.24a24.573,24.573,0,0,0,4.69-1.54l-.924-.77a18.083,18.083,0,0,1-3.962,1.414l-.826-.21v3.71c0,2.114-.2,4.9-2.128,6.958a2.633,2.633,0,0,1,.77.7c1.89-2.016,2.31-4.83,2.366-7.014h2.408v7.042h1.036V30.022h1.54Zm2.744-2.142h9.534v2.044h1.064V25.892h-5.292V24.3H118.16v1.6h-5.25v3.024h1.022Zm5.306,5.95h4.144v-.966h-4.144V29.532h3.57v-.98H114.7v.98h3.472V35.4a4.2,4.2,0,0,1-2.576-2.7,17.671,17.671,0,0,0,.336-1.862l-1.064-.1c-.308,2.506-1.064,4.494-2.618,5.7a5.435,5.435,0,0,1,.854.7,7.67,7.67,0,0,0,2.086-3.122c1.274,2.366,3.36,2.87,6.258,2.87H124.7a3.068,3.068,0,0,1,.392-1.05c-.672.014-3.08.014-3.584.014a12.781,12.781,0,0,1-2.268-.168ZM138.432,31.1a5.073,5.073,0,0,0-5.362-5.152,5.967,5.967,0,0,0-6.118,5.7c0,2.31,1.246,3.738,2.492,3.738,1.3,0,2.408-1.47,3.262-4.354a27.539,27.539,0,0,0,.84-4.032,3.9,3.9,0,0,1,3.738,4.06,4.228,4.228,0,0,1-3.556,4.158,10.575,10.575,0,0,1-1.2.182l.658,1.036C136.5,36,138.432,34.04,138.432,31.1Zm-10.388.448a4.883,4.883,0,0,1,4.34-4.536,22.876,22.876,0,0,1-.784,3.78c-.714,2.366-1.456,3.3-2.114,3.3C128.856,34.1,128.044,33.312,128.044,31.548Zm14.574-.2h2.534v1.4h-2.534Zm2.534-4.284V28.3h-2.534V27.068Zm-2.534,2.072h2.534v1.372h-2.534Zm4.522,3.612h-1.022V27.068h1.022V26.13h-1.022V24.45h-.966v1.68h-2.534V24.45h-.952v1.68H140.49v.938h1.176v5.684h-1.358v.938h6.832Zm-4.9,1.232a7.3,7.3,0,0,1-1.918,2.492,6.436,6.436,0,0,1,.84.6,9.254,9.254,0,0,0,2.072-2.828Zm1.988.434a10.991,10.991,0,0,1,1.442,2.128l.84-.49a10.371,10.371,0,0,0-1.47-2.072Zm4.55-3c.014-.476.028-.952.028-1.386V29.1h2.856v2.324Zm2.884-5.488V28.16h-2.856V25.934Zm1.008-.952h-4.844v5.054c0,2-.112,4.662-1.274,6.51a2.668,2.668,0,0,1,.826.6,10.96,10.96,0,0,0,1.33-4.788h2.954v3.36c0,.224-.084.294-.294.294s-.9.014-1.638,0a4.232,4.232,0,0,1,.322,1.008,6.206,6.206,0,0,0,2.086-.2c.378-.168.532-.476.532-1.092Zm6.412.714v1.162h-3.024V25.7Zm-3.024,3.164V27.628h3.024V28.86Zm4.018.8V24.884h-5.054V37.078h1.036v-7.42Zm2.254,1.862v1.288h-3.29V31.52Zm-3.29,3.43V33.592h3.29V34.95Zm4.256.826V30.708H158.1v5.768h.938v-.7Zm-.98-6.9V27.628h3.136v1.246Zm3.136-3.178v1.162h-3.136V25.7Zm1.05-.812h-5.18v4.788h4.13v6.006c0,.252-.084.336-.322.336s-1.106.028-1.96-.014a3.834,3.834,0,0,1,.364,1.064,7.969,7.969,0,0,0,2.352-.182c.462-.182.616-.532.616-1.19Zm10.948,5.8a9.3,9.3,0,0,0,2.786,6.664l.84-.434a8.755,8.755,0,0,1,0-12.46l-.84-.434A9.3,9.3,0,0,0,177.45,30.68Zm7.924,5.5a3.333,3.333,0,0,0,3.36-3.528,2.929,2.929,0,0,0-3.094-3.262,2.984,2.984,0,0,0-1.526.406l.252-2.968h3.878V25.724h-5l-.322,4.816.686.42a2.792,2.792,0,0,1,1.708-.6,2.077,2.077,0,0,1,2.128,2.338,2.218,2.218,0,0,1-2.184,2.422,3.376,3.376,0,0,1-2.52-1.134l-.63.84A4.36,4.36,0,0,0,185.374,36.182Zm8.162-3.318V30.092h3.136v2.772Zm9.254,0h-5.068V30.092h4.1v-.98h-4.1V26.984h4.424V25.976H193.8c.224-.476.448-.98.644-1.47l-1.05-.252a11.847,11.847,0,0,1-3.15,4.83,6.443,6.443,0,0,1,.9.658,12.935,12.935,0,0,0,2.128-2.758h3.4v2.128H192.5v3.752h-2.3v1.008h6.468v3.206h1.05V33.872h5.068Zm4.284,1.666c0-.644.728-1.162,2.058-1.162a6.209,6.209,0,0,1,1.358.14c0,.364.014.7.014.938,0,.966-.686,1.218-1.484,1.218C207.634,35.664,207.074,35.174,207.074,34.53Zm4.438-9.646h-1.19a7.683,7.683,0,0,1,.056.84v.994h-.644a25.437,25.437,0,0,1-3.584-.308l.014,1.036c.882.1,2.6.238,3.584.238h.616v1.96h-.756a25.9,25.9,0,0,1-3.528-.266l.014,1.05c1.008.112,2.548.2,3.5.2h.8c.014.6.042,1.274.056,1.9a8.018,8.018,0,0,0-1.176-.084c-2.016,0-3.234.868-3.234,2.142,0,1.344,1.092,2.058,3.108,2.058,1.82,0,2.464-.994,2.464-1.96,0-.224-.014-.518-.028-.868a10.322,10.322,0,0,1,3.388,2.114l.644-.994a11.141,11.141,0,0,0-4.088-2.184c-.028-.672-.07-1.428-.1-2.156,1.33-.042,2.562-.154,3.878-.322l.014-1.05a34.837,34.837,0,0,1-3.906.378v-1.96c1.344-.07,2.674-.2,3.78-.322l.014-1.022a34.81,34.81,0,0,1-3.794.378c0-.364.014-.672.014-.854A7.005,7.005,0,0,1,211.512,24.884Zm13.79,7.77-1.05-.1a8.751,8.751,0,0,0-.21,1.652c0,1.386,1.2,2.058,3.416,2.058a18.612,18.612,0,0,0,2.7-.2l.042-1.134a13.476,13.476,0,0,1-2.73.28c-2,0-2.366-.644-2.366-1.3A4.951,4.951,0,0,1,225.3,32.654Zm-1.61-7.672-1.344-.112a5.6,5.6,0,0,1-.042,1.162c-.042.28-.112.728-.21,1.218-.546.042-1.05.07-1.512.07a12.683,12.683,0,0,1-1.68-.1l.042,1.092c.5.028,1.008.056,1.624.056.392,0,.826-.014,1.288-.042-.112.5-.238,1.036-.364,1.5a30.527,30.527,0,0,1-2.352,6.258l1.232.42a42.906,42.906,0,0,0,2.184-6.412c.168-.616.322-1.26.448-1.876a26.884,26.884,0,0,0,2.912-.476V26.634a20.728,20.728,0,0,1-2.688.5c.084-.378.154-.742.21-1.036S223.608,25.29,223.692,24.982Zm1.316,4.27v1.036a23.005,23.005,0,0,1,2.6-.14,17.7,17.7,0,0,1,2.352.168l.028-1.064a22.409,22.409,0,0,0-2.422-.126C226.674,29.126,225.75,29.182,225.008,29.252Zm12.726,5.068c0-.686.742-1.134,1.792-1.134a4.764,4.764,0,0,1,1.428.224c.014.182.014.35.014.49,0,.924-.35,1.526-1.526,1.526C238.434,35.426,237.734,35.034,237.734,34.32Zm4.242-9.1h-1.26c.028.238.056.616.056.854V27.81c-.434.014-.882.028-1.316.028-.84,0-1.582-.042-2.38-.112v1.05c.826.056,1.554.1,2.352.1.448,0,.9-.014,1.344-.028.014,1.148.1,2.52.14,3.6a6.42,6.42,0,0,0-1.3-.126c-1.834,0-2.884.938-2.884,2.114,0,1.26,1.036,2,2.912,2s2.422-1.106,2.422-2.254v-.294a11.39,11.39,0,0,1,2.114,1.624l.616-.938a9.228,9.228,0,0,0-2.772-1.806c-.056-1.176-.154-2.576-.168-3.99.84-.056,1.652-.14,2.422-.266V27.432a23.641,23.641,0,0,1-2.422.322c.014-.658.028-1.316.042-1.694Q241.913,25.64,241.976,25.22Zm-6.916.084-1.232-.1a8.4,8.4,0,0,1-.084.994,41.658,41.658,0,0,0-.644,5.894,16.91,16.91,0,0,0,.532,4.424l.98-.07c-.014-.154-.028-.35-.028-.49a2.509,2.509,0,0,1,.056-.63c.14-.686.658-2.114.994-3.094l-.574-.448c-.238.574-.574,1.428-.8,2.058a13.132,13.132,0,0,1-.14-1.946,34.712,34.712,0,0,1,.7-5.642A7.279,7.279,0,0,1,235.06,25.3ZM246.722,36h5.628V34.936h-2.058V25.724h-.98a6.182,6.182,0,0,1-2.128.742v.812H249v7.658h-2.282Zm10.43.182c1.946,0,3.192-1.778,3.192-5.348s-1.246-5.292-3.192-5.292-3.206,1.722-3.206,5.292S255.192,36.182,257.152,36.182Zm0-1.022c-1.176,0-1.96-1.3-1.96-4.326,0-3,.784-4.27,1.96-4.27s1.946,1.274,1.946,4.27C259.1,33.858,258.314,35.16,257.152,35.16Zm7.924-2.3V30.092h3.136v2.772Zm9.254,0h-5.068V30.092h4.1v-.98h-4.1V26.984h4.424V25.976h-8.344c.224-.476.448-.98.644-1.47l-1.05-.252a11.848,11.848,0,0,1-3.15,4.83,6.445,6.445,0,0,1,.9.658,12.936,12.936,0,0,0,2.128-2.758h3.4v2.128H264.04v3.752h-2.3v1.008h6.468v3.206h1.05V33.872h5.068Zm4.97-2.184a9.3,9.3,0,0,0-2.786-6.664l-.84.434a8.755,8.755,0,0,1,0,12.46l.84.434A9.3,9.3,0,0,0,279.3,30.68Zm22.442.42a5.073,5.073,0,0,0-5.362-5.152,5.967,5.967,0,0,0-6.118,5.7c0,2.31,1.246,3.738,2.492,3.738,1.3,0,2.408-1.47,3.262-4.354a27.537,27.537,0,0,0,.84-4.032,3.9,3.9,0,0,1,3.738,4.06,4.228,4.228,0,0,1-3.556,4.158,10.574,10.574,0,0,1-1.2.182l.658,1.036C299.81,36,301.742,34.04,301.742,31.1Zm-10.388.448a4.883,4.883,0,0,1,4.34-4.536,22.873,22.873,0,0,1-.784,3.78c-.714,2.366-1.456,3.3-2.114,3.3C292.166,34.1,291.354,33.312,291.354,31.548Zm24.094-.42V30.106h-4.9V27.67h5.614V26.648h-5.614V24.282H309.47v2.366h-5.516V27.67h5.516v2.436h-4.8v1.022h4.186a13.66,13.66,0,0,1-5.264,4.27,6.453,6.453,0,0,1,.756.882,15.39,15.39,0,0,0,5.124-4.452v5.236h1.078V31.758a16.079,16.079,0,0,0,5.18,4.508,4.9,4.9,0,0,1,.77-.91,14.3,14.3,0,0,1-5.292-4.228ZM3.57,54.978V51.072h6.944v3.906Zm6.944-8.708v3.78H3.57V46.27ZM2.52,45.248V56.91H3.57V56h6.944v.854h1.092V45.248ZM17.584,54.53c0-.644.728-1.162,2.058-1.162a6.209,6.209,0,0,1,1.358.14c0,.364.014.7.014.938,0,.966-.686,1.218-1.484,1.218C18.144,55.664,17.584,55.174,17.584,54.53Zm4.438-9.646h-1.19a7.683,7.683,0,0,1,.056.84v.994h-.644a25.437,25.437,0,0,1-3.584-.308l.014,1.036c.882.1,2.6.238,3.584.238h.616v1.96h-.756a25.9,25.9,0,0,1-3.528-.266l.014,1.05c1.008.112,2.548.2,3.5.2h.8c.014.6.042,1.274.056,1.9a8.018,8.018,0,0,0-1.176-.084c-2.016,0-3.234.868-3.234,2.142,0,1.344,1.092,2.058,3.108,2.058,1.82,0,2.464-.994,2.464-1.96,0-.224-.014-.518-.028-.868A10.322,10.322,0,0,1,25.48,55.93l.644-.994a11.141,11.141,0,0,0-4.088-2.184c-.028-.672-.07-1.428-.1-2.156,1.33-.042,2.562-.154,3.878-.322l.014-1.05a34.838,34.838,0,0,1-3.906.378v-1.96c1.344-.07,2.674-.2,3.78-.322l.014-1.022a34.81,34.81,0,0,1-3.794.378c0-.364.014-.672.014-.854A7.008,7.008,0,0,1,22.022,44.884Zm7.084,1.9.126,1.218c1.512-.322,5.082-.658,6.58-.826a5.687,5.687,0,0,0-2.618,4.732c0,3.122,2.954,4.508,5.544,4.606l.406-1.162c-2.282-.084-4.83-.952-4.83-3.682a4.927,4.927,0,0,1,3.206-4.438,11.726,11.726,0,0,1,2.744-.224v-1.12c-.938.042-2.254.126-3.78.252-2.576.21-5.222.476-6.132.574C30.086,46.746,29.638,46.774,29.106,46.788Zm9.142,1.946-.714.308a13,13,0,0,1,1.148,1.974l.714-.336A16.616,16.616,0,0,0,38.248,48.734Zm1.526-.588-.686.322a12.976,12.976,0,0,1,1.176,1.96l.728-.35A18.491,18.491,0,0,0,39.774,48.146Zm6.538-3.038-1.106.462a46.919,46.919,0,0,0,2.03,4.312c-1.5,1.05-2.422,2.184-2.422,3.626,0,2.1,1.9,2.884,4.536,2.884a27.56,27.56,0,0,0,4.424-.35V54.8a20.831,20.831,0,0,1-4.48.476c-2.212,0-3.318-.728-3.318-1.89,0-1.064.784-1.988,2.086-2.828a46.509,46.509,0,0,1,4.256-2.324c.406-.21.756-.392,1.078-.588l-.616-.994a7.647,7.647,0,0,1-.994.658c-.77.42-2.282,1.162-3.6,1.96A30.149,30.149,0,0,1,46.312,45.108Zm15.582-.224-1.232-.112a11.613,11.613,0,0,1-.434,2.422c-.546.042-1.078.07-1.582.07a13.206,13.206,0,0,1-1.708-.1l.07,1.05c.532.028,1.12.042,1.638.042.406,0,.826-.014,1.246-.042a20.717,20.717,0,0,1-3,5.236l1.078.56A24.762,24.762,0,0,0,61.026,48.1a18.986,18.986,0,0,0,2.548-.518l-.028-1.05a13.53,13.53,0,0,1-2.2.518C61.572,46.242,61.768,45.388,61.894,44.884Zm-.77,9.716c0-.644.7-1.12,1.722-1.12a4.854,4.854,0,0,1,1.442.21c.014.238.014.448.014.63,0,.77-.392,1.386-1.554,1.386C61.656,55.706,61.124,55.258,61.124,54.6ZM65.2,49.21H64.106c.028.994.1,2.38.154,3.528a6.248,6.248,0,0,0-1.372-.14c-1.582,0-2.8.812-2.8,2.1,0,1.386,1.26,2.016,2.8,2.016,1.736,0,2.45-.91,2.45-2.03,0-.168,0-.364-.014-.588a10.464,10.464,0,0,1,2.268,1.61l.6-.952a9.605,9.605,0,0,0-2.912-1.736c-.028-.868-.084-1.778-.1-2.3S65.17,49.784,65.2,49.21Zm2.8.378.63-.924A21.147,21.147,0,0,0,65.366,46.8l-.574.854A16.394,16.394,0,0,1,68,49.588Zm6.328-4.634-1.232-.042c-.028.378-.056.784-.112,1.2a37,37,0,0,0-.434,4.522,17.049,17.049,0,0,0,.154,2.226l1.078-.084a6.525,6.525,0,0,1-.028-1.722c.168-1.834,1.792-4.382,3.542-4.382,1.47,0,2.226,1.6,2.226,3.808,0,3.514-2.38,4.76-5.418,5.208L74.76,56.7c3.472-.63,5.908-2.338,5.908-6.23,0-2.94-1.33-4.8-3.192-4.8-1.778,0-3.234,1.75-3.808,3.178A25.992,25.992,0,0,1,74.326,44.954ZM87.164,54.53c0-.644.728-1.162,2.058-1.162a6.209,6.209,0,0,1,1.358.14c0,.364.014.7.014.938,0,.966-.686,1.218-1.484,1.218C87.724,55.664,87.164,55.174,87.164,54.53ZM91.6,44.884h-1.19a7.683,7.683,0,0,1,.056.84v.994h-.644a25.437,25.437,0,0,1-3.584-.308l.014,1.036c.882.1,2.6.238,3.584.238h.616v1.96H89.7a25.9,25.9,0,0,1-3.528-.266l.014,1.05c1.008.112,2.548.2,3.5.2h.8c.014.6.042,1.274.056,1.9a8.018,8.018,0,0,0-1.176-.084c-2.016,0-3.234.868-3.234,2.142,0,1.344,1.092,2.058,3.108,2.058,1.82,0,2.464-.994,2.464-1.96,0-.224-.014-.518-.028-.868A10.322,10.322,0,0,1,95.06,55.93l.644-.994a11.141,11.141,0,0,0-4.088-2.184c-.028-.672-.07-1.428-.1-2.156,1.33-.042,2.562-.154,3.878-.322l.014-1.05A34.838,34.838,0,0,1,91.5,49.6v-1.96c1.344-.07,2.674-.2,3.78-.322L95.3,46.3a34.81,34.81,0,0,1-3.794.378c0-.364.014-.672.014-.854A7.008,7.008,0,0,1,91.6,44.884Zm14.756.028h-1.274c.014.112.07.518.084.882.014.2.028.532.028.924-2.086.028-4.718.112-6.272.14l.028,1.078c1.75-.126,4.13-.224,6.258-.238.014.49.014.994.014,1.414a2.8,2.8,0,0,0-.938-.154,2.444,2.444,0,0,0-2.464,2.436,2.229,2.229,0,0,0,2.3,2.338,1.972,1.972,0,0,0,1.218-.378c-.56,1.274-1.848,2.058-3.71,2.478l.938.924c3.262-.98,4.186-3.08,4.186-4.97a3.4,3.4,0,0,0-.448-1.792c-.014-.644-.028-1.512-.028-2.31h.2c2.044,0,3.318.028,4.1.07l.014-1.036c-.672,0-2.394-.014-4.1-.014h-.21c0-.378.014-.7.014-.91C106.3,45.612,106.33,45.066,106.358,44.912Zm-3.486,6.468a1.427,1.427,0,0,1,1.414-1.484,1.255,1.255,0,0,1,1.246.882c.126,1.33-.406,1.988-1.232,1.988A1.348,1.348,0,0,1,102.872,51.38Zm10.024,1.2a2.135,2.135,0,1,0,2.142,2.128A2.136,2.136,0,0,0,112.9,52.584Zm0,3.556a1.421,1.421,0,1,1,1.428-1.428A1.422,1.422,0,0,1,112.9,56.14ZM7,67.74a1.05,1.05,0,1,0-1.05-1.05A1.058,1.058,0,0,0,7,67.74Zm0,2.534-4.62-4.62-.406.406,4.62,4.62L1.96,75.314l.406.406L7,71.086l4.62,4.62.406-.406-4.62-4.62,4.62-4.62-.406-.406Zm-2.94.406a1.05,1.05,0,1,0-1.05,1.05A1.058,1.058,0,0,0,4.06,70.68Zm5.88,0a1.05,1.05,0,1,0,1.05-1.05A1.058,1.058,0,0,0,9.94,70.68ZM7,73.62a1.05,1.05,0,1,0,1.05,1.05A1.058,1.058,0,0,0,7,73.62Zm12.754-8.806H18.508a7.382,7.382,0,0,1,.07.994c0,.252-.014.868-.014,1.6-.392.028-.756.042-1.078.042a12.955,12.955,0,0,1-1.792-.112l.028,1.064a15.378,15.378,0,0,0,1.792.07c.294,0,.644-.014,1.036-.042-.014.616-.014,1.274-.014,1.834v.8c-1.61.686-3.066,1.9-3.066,3.066,0,1.246,1.82,2.324,2.912,2.324.756,0,1.232-.42,1.232-1.722,0-.6-.028-1.848-.056-3.038a9.171,9.171,0,0,1,3.052-.546c1.33,0,2.408.644,2.408,1.834,0,1.288-1.12,1.946-2.352,2.184a7.16,7.16,0,0,1-1.638.1l.392,1.134a10.616,10.616,0,0,0,1.736-.2c1.918-.462,2.982-1.54,2.982-3.234s-1.47-2.786-3.514-2.786a10.588,10.588,0,0,0-3.08.518V70.2c0-.56.014-1.232.028-1.89a25.7,25.7,0,0,0,2.94-.49l-.028-1.092a18.828,18.828,0,0,1-2.884.56c.014-.63.042-1.176.056-1.512A8.982,8.982,0,0,1,19.754,64.814Zm4.34,1.554-.5.84a17.759,17.759,0,0,1,3.136,2.1l.574-.9A25.447,25.447,0,0,0,24.094,66.368Zm-7.532,7.7c0-.63.854-1.442,2-1.974.014,1.022.042,1.974.042,2.478,0,.462-.2.686-.518.686C17.542,75.258,16.562,74.712,16.562,74.068ZM35.49,72.234V70.12h3.92v2.114Zm-4.858,0V70.12h3.794v2.114Zm3.794-5.11v2.03H30.632v-2.03Zm4.984,0v2.03H35.49v-2.03Zm-3.92-.994V64.282H34.426V66.13H29.61v7.91h1.022v-.8h3.794V77.05H35.49V73.242h3.92v.728h1.05V66.13ZM47.684,65v.98h2.548c.07.616.14,1.2.238,1.778l-.448-.07c-.56,2.856-1.736,5.04-3.78,6.342a6.105,6.105,0,0,1,.812.77,10,10,0,0,0,3.71-5.67c.63,2.548,1.764,4.522,3.724,5.67a4.827,4.827,0,0,1,.826-.784c-2.8-1.442-3.892-4.746-4.228-9.016Zm-1.6,1.792a10.653,10.653,0,0,0-2.436-2.156l-.77.63a9.659,9.659,0,0,1,2.38,2.212ZM45.7,69.77H42.728v.98h1.946v3.542a23.378,23.378,0,0,1-2.128,1.6l.56,1.05c.742-.6,1.442-1.2,2.114-1.792A4.989,4.989,0,0,0,49.182,76.8c1.54.056,4.41.028,5.936-.028a4.737,4.737,0,0,1,.336-1.064c-1.638.112-4.746.154-6.272.1A4.075,4.075,0,0,1,45.7,74.236Zm13.426-4.032.056,1.134c.336-.028.728-.07,1.036-.084.644-.042,2.352-.112,2.912-.14-.434.868-.966,2.086-1.456,3.192-2.758.07-4.662,1.652-4.662,3.71a1.784,1.784,0,0,0,1.82,1.918,1.97,1.97,0,0,0,1.764-.966,30.276,30.276,0,0,0,1.764-3.668,10.066,10.066,0,0,1,4,1.288,6.007,6.007,0,0,1-3.668,3.948l.924.77A6.606,6.606,0,0,0,67.3,72.682a14.61,14.61,0,0,1,1.456,1.106l.518-1.2a18.3,18.3,0,0,0-1.694-1.078,18.777,18.777,0,0,0,.294-2.7l-1.134-.126c.028.392.014.868,0,1.288-.028.336-.056.686-.112,1.036a12.6,12.6,0,0,0-3.85-1.12c.588-1.3,1.2-2.73,1.6-3.36a5.869,5.869,0,0,1,.364-.462l-.7-.574a2.893,2.893,0,0,1-.7.154c-.588.042-2.422.14-3.164.14C59.892,65.78,59.486,65.766,59.122,65.738ZM58.03,73.41c0-1.2,1.162-2.436,3.206-2.59a18.691,18.691,0,0,1-1.526,3.052,1.008,1.008,0,0,1-.84.49A.857.857,0,0,1,58.03,73.41Zm18.214.91c0-.686.742-1.134,1.792-1.134a4.764,4.764,0,0,1,1.428.224c.014.182.014.35.014.49,0,.924-.35,1.526-1.526,1.526C76.944,75.426,76.244,75.034,76.244,74.32Zm4.242-9.1h-1.26c.028.238.056.616.056.854V67.81c-.434.014-.882.028-1.316.028-.84,0-1.582-.042-2.38-.112v1.05c.826.056,1.554.1,2.352.1.448,0,.9-.014,1.344-.028.014,1.148.1,2.52.14,3.6a6.42,6.42,0,0,0-1.3-.126c-1.834,0-2.884.938-2.884,2.114,0,1.26,1.036,2,2.912,2s2.422-1.106,2.422-2.254v-.294a11.389,11.389,0,0,1,2.114,1.624l.616-.938a9.228,9.228,0,0,0-2.772-1.806c-.056-1.176-.154-2.576-.168-3.99.84-.056,1.652-.14,2.422-.266V67.432a23.64,23.64,0,0,1-2.422.322c.014-.658.028-1.316.042-1.694Q80.423,65.64,80.486,65.22ZM73.57,65.3l-1.232-.1a8.4,8.4,0,0,1-.084.994,41.657,41.657,0,0,0-.644,5.894,16.91,16.91,0,0,0,.532,4.424l.98-.07c-.014-.154-.028-.35-.028-.49a2.508,2.508,0,0,1,.056-.63c.14-.686.658-2.114.994-3.094l-.574-.448c-.238.574-.574,1.428-.8,2.058a13.133,13.133,0,0,1-.14-1.946,34.712,34.712,0,0,1,.7-5.642A7.28,7.28,0,0,1,73.57,65.3Zm16.184-.49H88.508a7.382,7.382,0,0,1,.07.994c0,.252-.014.868-.014,1.6-.392.028-.756.042-1.078.042a12.955,12.955,0,0,1-1.792-.112l.028,1.064a15.378,15.378,0,0,0,1.792.07c.294,0,.644-.014,1.036-.042-.014.616-.014,1.274-.014,1.834v.8c-1.61.686-3.066,1.9-3.066,3.066,0,1.246,1.82,2.324,2.912,2.324.756,0,1.232-.42,1.232-1.722,0-.6-.028-1.848-.056-3.038a9.171,9.171,0,0,1,3.052-.546c1.33,0,2.408.644,2.408,1.834,0,1.288-1.12,1.946-2.352,2.184a7.16,7.16,0,0,1-1.638.1l.392,1.134a10.616,10.616,0,0,0,1.736-.2c1.918-.462,2.982-1.54,2.982-3.234s-1.47-2.786-3.514-2.786a10.588,10.588,0,0,0-3.08.518V70.2c0-.56.014-1.232.028-1.89a25.7,25.7,0,0,0,2.94-.49l-.028-1.092a18.828,18.828,0,0,1-2.884.56c.014-.63.042-1.176.056-1.512A8.982,8.982,0,0,1,89.754,64.814Zm4.34,1.554-.5.84a17.759,17.759,0,0,1,3.136,2.1l.574-.9A25.448,25.448,0,0,0,94.094,66.368Zm-7.532,7.7c0-.63.854-1.442,2-1.974.014,1.022.042,1.974.042,2.478,0,.462-.2.686-.518.686C87.542,75.258,86.562,74.712,86.562,74.068Zm13.86-3.052c.126-.63.238-1.316.35-1.974h4.214V64.87H99.4v.98h4.564v2.212H99.876c-.2,1.414-.532,3.262-.812,4.424l1.022.168c.042-.21.1-.434.154-.672h3.682c-.182,2.52-.42,3.6-.756,3.892a.813.813,0,0,1-.616.154c-.35,0-1.274-.014-2.2-.1a2.358,2.358,0,0,1,.364,1.064,20.375,20.375,0,0,0,2.212.028,1.35,1.35,0,0,0,1.106-.448c.5-.476.742-1.778.994-5.082.014-.14.028-.476.028-.476Zm8.386-6.58V77.064h1.036V64.436Zm7.476,1.47a8.908,8.908,0,0,0-2.338-1.456l-.574.756a9.751,9.751,0,0,1,2.3,1.526Zm-.714,3.612a10.485,10.485,0,0,0-2.408-1.386l-.588.77a10.208,10.208,0,0,1,2.394,1.47Zm-.6,2.24a38.946,38.946,0,0,1-2.2,4.508l.938.616c.686-1.316,1.5-3.038,2.1-4.522Zm7.784-2.814v1.33h-2.59v-1.33Zm-5.068,0h1.568V71.1H123.7V68.944h1.652V68.09H123.7V66.97h-.952v1.12h-2.59V66.97h-.91v1.12h-1.568v-1.5h7.574v-.9h-3.64V64.3h-1.036v1.4H116.69v3.752c0,2.1-.126,5.026-1.526,7.084a3.526,3.526,0,0,1,.868.5c1.442-2.156,1.652-5.348,1.652-7.588Zm5.586,3.808a5.77,5.77,0,0,1-1.82,1.862,5.458,5.458,0,0,1-1.638-1.862Zm.728-.9-.182.042h-5.768v.854h1.484l-.658.2a7.077,7.077,0,0,0,1.736,2.17,11.608,11.608,0,0,1-3.262,1.078,3.433,3.433,0,0,1,.5.84,12.829,12.829,0,0,0,3.57-1.316,10.3,10.3,0,0,0,3.458,1.33,3.46,3.46,0,0,1,.63-.854,10.246,10.246,0,0,1-3.22-1.05,6.875,6.875,0,0,0,2.338-3.01Zm6.762-6.762-1.414-.014a7.389,7.389,0,0,1,.112,1.428c0,1.47-.14,5.012-.14,7.084,0,2.282,1.386,3.122,3.4,3.122a7.037,7.037,0,0,0,5.852-3.094l-.8-.952a5.833,5.833,0,0,1-5.012,2.9c-1.33,0-2.3-.546-2.3-2.086,0-2.086.1-5.39.168-6.972A12.054,12.054,0,0,1,130.76,65.094Zm13.062,11.69.952-.812a26.278,26.278,0,0,0-3.136-3.108l-.91.8A23.325,23.325,0,0,1,143.822,76.784ZM158.2,67.46h-2.086V65.682H158.2Zm0,2.6h-2.086V68.272H158.2Zm0,2.646h-2.086V70.89H158.2Zm.938-7.9H155.2v8.75h3.934Zm-3.248,9.044a6.141,6.141,0,0,1-1.4,2.66,7.044,7.044,0,0,1,.784.56,8.384,8.384,0,0,0,1.554-3.01Zm1.75.336a11.66,11.66,0,0,1,1.12,2.2l.826-.392a11.779,11.779,0,0,0-1.162-2.156Zm6.174-.224V72.92h1.792v1.05Zm-2.632-1.05h1.708v1.05h-1.708ZM162.89,71.2v.994h-1.708V71.2Zm2.716,0v.994h-1.792V71.2Zm-3.276-3.3H164.4v.924H162.33Zm0-1.61H164.4v.84H162.33ZM167.4,73.97h-.84V70.414h-2.744V69.6h3.528v-.784h-2v-.924h1.484v-.77H165.34v-.84h1.708V65.5H165.34V64.3H164.4v1.2H162.33V64.3h-.924v1.2h-1.694v.784h1.694v.84h-1.33v.77h1.33v.924H159.39V69.6h3.5v.812h-2.646V73.97h-.91v.8h.91v2.31h.938v-2.31h4.424v1.218c0,.182-.07.224-.238.238-.2,0-.868,0-1.6-.014a3.343,3.343,0,0,1,.294.84,7.242,7.242,0,0,0,2.03-.14c.35-.154.462-.42.462-.924V74.768h.84Zm3.822-8.834v1.036h3.444c.028.532.084,1.148.182,1.792l-.616-.1c-.854,3.92-2.576,6.734-5.67,8.344a6.813,6.813,0,0,1,.938.826c2.786-1.638,4.55-4.186,5.586-7.812a12.081,12.081,0,0,0,5.558,7.8,4.948,4.948,0,0,1,.84-.868c-5.488-3.262-5.81-8.54-5.81-11.018Zm14.35,9.842V71.072h6.944v3.906Zm6.944-8.708v3.78H185.57V66.27Zm-7.994-1.022V76.91h1.05V76h6.944v.854h1.092V65.248Zm14.364,9.142c0-.77.826-1.274,2.268-1.274a6.428,6.428,0,0,1,1.372.14c0,.364.014.672.014.9,0,.966-.5,1.442-1.526,1.442C199.668,75.594,198.884,75.16,198.884,74.39Zm4.69-9.38h-1.33a7.048,7.048,0,0,1,.112,1.386c.014.6.014,1.75.014,2.562,0,.84.056,2.128.112,3.262a8.355,8.355,0,0,0-1.19-.084c-2.422,0-3.528,1.036-3.528,2.3,0,1.6,1.428,2.212,3.36,2.212,1.862,0,2.562-.98,2.562-2.128,0-.252-.014-.574-.028-.938A9.939,9.939,0,0,1,207.3,75.9l.672-1.064a11.1,11.1,0,0,0-4.354-2.38c-.07-1.218-.14-2.576-.14-3.5v-.112c1.148-.014,2.94-.1,4.186-.224l-.042-1.05c-1.26.154-3.038.224-4.144.252,0-.546-.014-1.05,0-1.428C203.49,65.976,203.532,65.3,203.574,65.01Zm10.892-.056-1.232-.042c-.028.378-.056.784-.112,1.2a37,37,0,0,0-.434,4.522,17.051,17.051,0,0,0,.154,2.226l1.078-.084a6.526,6.526,0,0,1-.028-1.722c.168-1.834,1.792-4.382,3.542-4.382,1.47,0,2.226,1.6,2.226,3.808,0,3.514-2.38,4.76-5.418,5.208L214.9,76.7c3.472-.63,5.908-2.338,5.908-6.23,0-2.94-1.33-4.8-3.192-4.8-1.778,0-3.234,1.75-3.808,3.178A25.991,25.991,0,0,1,214.466,64.954Zm20.118-.336a17.326,17.326,0,0,1-1.694,3.192l.91.364a30.5,30.5,0,0,0,1.876-3.164Zm-6.16,3.136a14.418,14.418,0,0,0-1.666-3.094l-.938.378a15.56,15.56,0,0,1,1.61,3.136Zm8.526,4.312h-5.74V69.812h4.928V68.79H231.21V64.3h-1.064V68.79h-4.732v1.022h4.732v2.254h-5.628v1.022h5.628v3.948h1.064V73.088h5.74Zm4.816.8V70.092H244.9v2.772Zm9.254,0h-5.068V70.092h4.1v-.98h-4.1V66.984h4.424V65.976h-8.344c.224-.476.448-.98.644-1.47l-1.05-.252a11.847,11.847,0,0,1-3.15,4.83,6.443,6.443,0,0,1,.9.658,12.935,12.935,0,0,0,2.128-2.758h3.4v2.128H240.73v3.752h-2.3v1.008H244.9v3.206h1.05V73.872h5.068Zm8.96-3.5a13.255,13.255,0,0,0-2.212-3.346l-.924.462A13.751,13.751,0,0,1,259,69.9Zm-1.988,2.716c-.924.392-1.862.8-2.758,1.176l-.21-8.26-1.064.042.238,8.652c-.728.308-1.386.574-1.932.784l.378,1.078c1.54-.672,3.654-1.6,5.586-2.478Zm7.266,4.144a35.826,35.826,0,0,0-3.444-3.85,20.722,20.722,0,0,0,1.848-7.252l-1.134-.112c-.616,6.048-2.1,9.436-6.9,11.2a6.013,6.013,0,0,1,.826.9,10.106,10.106,0,0,0,4.8-3.78,34.4,34.4,0,0,1,3.136,3.7Zm13.062-9.548h-5.068V64.282h-1.036v2.394h-5.068V77.092h1.022V67.7H272.2a6.3,6.3,0,0,1-3.668,5.782,4.336,4.336,0,0,1,.742.784,7.47,7.47,0,0,0,3.4-3.752,34.7,34.7,0,0,1,3.4,3.57l.854-.672a41.852,41.852,0,0,0-3.948-3.892,9.62,9.62,0,0,0,.252-1.82h4.06v7.98c0,.252-.084.336-.336.35-.294.014-1.246.014-2.226-.028a3.86,3.86,0,0,1,.35,1.05,9.3,9.3,0,0,0,2.6-.182c.476-.168.63-.5.63-1.176Zm7.784-.126v1.12a32.908,32.908,0,0,0,5.754,0V66.536A23.952,23.952,0,0,1,286.1,66.55Zm.546,5.7-1.008-.1A7.525,7.525,0,0,0,285.4,73.8c0,1.316,1.05,2.1,3.4,2.1a18.972,18.972,0,0,0,3.5-.294l-.028-1.176a15.444,15.444,0,0,1-3.472.364c-1.9,0-2.366-.616-2.366-1.26A4.889,4.889,0,0,1,286.65,72.248Zm-3.22-6.776-1.246-.112a6.127,6.127,0,0,1-.1.994,39.379,39.379,0,0,0-.63,5.614,17.627,17.627,0,0,0,.518,4.494l1.008-.07c-.014-.14-.028-.336-.042-.49a2.7,2.7,0,0,1,.07-.63A28.57,28.57,0,0,1,284,72.136l-.588-.448c-.238.574-.574,1.414-.812,2.044a15.352,15.352,0,0,1-.126-1.96,32.506,32.506,0,0,1,.7-5.362C283.234,66.158,283.36,65.71,283.43,65.472Zm16.044-.658h-1.246a7.384,7.384,0,0,1,.07.994c0,.252-.014.868-.014,1.6-.392.028-.756.042-1.078.042a12.955,12.955,0,0,1-1.792-.112l.028,1.064a15.379,15.379,0,0,0,1.792.07c.294,0,.644-.014,1.036-.042-.014.616-.014,1.274-.014,1.834v.8c-1.61.686-3.066,1.9-3.066,3.066,0,1.246,1.82,2.324,2.912,2.324.756,0,1.232-.42,1.232-1.722,0-.6-.028-1.848-.056-3.038a9.17,9.17,0,0,1,3.052-.546c1.33,0,2.408.644,2.408,1.834,0,1.288-1.12,1.946-2.352,2.184a7.159,7.159,0,0,1-1.638.1l.392,1.134a10.617,10.617,0,0,0,1.736-.2c1.918-.462,2.982-1.54,2.982-3.234s-1.47-2.786-3.514-2.786a10.588,10.588,0,0,0-3.08.518V70.2c0-.56.014-1.232.028-1.89a25.7,25.7,0,0,0,2.94-.49l-.028-1.092a18.828,18.828,0,0,1-2.884.56c.014-.63.042-1.176.056-1.512A8.986,8.986,0,0,1,299.474,64.814Zm4.34,1.554-.5.84a17.759,17.759,0,0,1,3.136,2.1l.574-.9A25.444,25.444,0,0,0,303.814,66.368Zm-7.532,7.7c0-.63.854-1.442,2-1.974.014,1.022.042,1.974.042,2.478,0,.462-.2.686-.518.686C297.262,75.258,296.282,74.712,296.282,74.068ZM7.49,92.234V90.12h3.92v2.114Zm-4.858,0V90.12H6.426v2.114Zm3.794-5.11v2.03H2.632v-2.03Zm4.984,0v2.03H7.49v-2.03ZM7.49,86.13V84.282H6.426V86.13H1.61v7.91H2.632v-.8H6.426V97.05H7.49V93.242h3.92v.728h1.05V86.13ZM19.684,85v.98h2.548c.07.616.14,1.2.238,1.778l-.448-.07c-.56,2.856-1.736,5.04-3.78,6.342a6.105,6.105,0,0,1,.812.77,10,10,0,0,0,3.71-5.67c.63,2.548,1.764,4.522,3.724,5.67a4.827,4.827,0,0,1,.826-.784c-2.8-1.442-3.892-4.746-4.228-9.016Zm-1.6,1.792a10.653,10.653,0,0,0-2.436-2.156l-.77.63a9.659,9.659,0,0,1,2.38,2.212ZM17.7,89.77H14.728v.98h1.946v3.542a23.378,23.378,0,0,1-2.128,1.6l.56,1.05c.742-.6,1.442-1.2,2.114-1.792A4.989,4.989,0,0,0,21.182,96.8c1.54.056,4.41.028,5.936-.028a4.737,4.737,0,0,1,.336-1.064c-1.638.112-4.746.154-6.272.1A4.075,4.075,0,0,1,17.7,94.236Zm13.426-4.032.056,1.134c.336-.028.728-.07,1.036-.084.644-.042,2.352-.112,2.912-.14-.434.868-.966,2.086-1.456,3.192-2.758.07-4.662,1.652-4.662,3.71a1.784,1.784,0,0,0,1.82,1.918,1.97,1.97,0,0,0,1.764-.966,30.276,30.276,0,0,0,1.764-3.668,10.066,10.066,0,0,1,4,1.288,6.007,6.007,0,0,1-3.668,3.948l.924.77A6.606,6.606,0,0,0,39.3,92.682a14.61,14.61,0,0,1,1.456,1.106l.518-1.2a18.3,18.3,0,0,0-1.694-1.078,18.776,18.776,0,0,0,.294-2.7l-1.134-.126c.028.392.014.868,0,1.288-.028.336-.056.686-.112,1.036a12.6,12.6,0,0,0-3.85-1.12c.588-1.3,1.2-2.73,1.6-3.36a5.869,5.869,0,0,1,.364-.462l-.7-.574a2.893,2.893,0,0,1-.7.154c-.588.042-2.422.14-3.164.14C31.892,85.78,31.486,85.766,31.122,85.738ZM30.03,93.41c0-1.2,1.162-2.436,3.206-2.59a18.691,18.691,0,0,1-1.526,3.052,1.008,1.008,0,0,1-.84.49A.857.857,0,0,1,30.03,93.41Zm21.826-7.742-1.036-.924a6.629,6.629,0,0,1-.8.938c-.952.966-3.08,2.646-4.13,3.528-1.26,1.064-1.428,1.666-.1,2.772,1.3,1.078,3.43,2.9,4.41,3.906.35.336.672.686.966,1.022l.994-.924C50.68,94.5,48.2,92.5,46.928,91.464c-.9-.756-.882-.98-.042-1.694,1.036-.868,3.052-2.464,4-3.3C51.128,86.27,51.562,85.906,51.856,85.668ZM63.392,92.85l-1.05-.1a7.852,7.852,0,0,0-.21,1.652c0,1.386,1.2,2.072,3.416,2.072a18.441,18.441,0,0,0,2.7-.21l.042-1.134a13.475,13.475,0,0,1-2.73.28c-2,0-2.366-.644-2.366-1.3A4.95,4.95,0,0,1,63.392,92.85Zm-1.61-7.658-1.344-.112a5.493,5.493,0,0,1-.042,1.148c-.042.28-.112.728-.21,1.218-.546.042-1.05.07-1.512.07a12.683,12.683,0,0,1-1.68-.1l.042,1.092c.5.028,1.008.056,1.624.056.392,0,.826-.014,1.288-.042-.112.5-.238,1.036-.364,1.5a30.528,30.528,0,0,1-2.352,6.258l1.232.42a42.366,42.366,0,0,0,2.184-6.412c.168-.616.308-1.26.448-1.876a26.885,26.885,0,0,0,2.912-.476V86.844a23.394,23.394,0,0,1-2.688.49c.07-.378.154-.728.21-1.036C61.586,86.018,61.7,85.486,61.782,85.192ZM63.1,89.448V90.5a23.009,23.009,0,0,1,2.6-.154,17.7,17.7,0,0,1,2.352.168l.028-1.064a22.409,22.409,0,0,0-2.422-.126C64.764,89.322,63.84,89.378,63.1,89.448Zm3.472-3.836-.742.322a16,16,0,0,1,1.134,1.946l.756-.336A15.612,15.612,0,0,0,66.57,85.612Zm1.54-.574-.728.322a14.887,14.887,0,0,1,1.162,1.946l.756-.336A18.01,18.01,0,0,0,68.11,85.038Zm9.226,1.036c.1.322.238.742.406,1.26a29.253,29.253,0,0,1-5.53-.168l.028,1.12a35.97,35.97,0,0,0,5.88.028,18.7,18.7,0,0,0,1.694,3.192c-.5-.056-1.54-.14-2.324-.21l-.084.938a31.643,31.643,0,0,1,3.374.378l.574-.784c-.21-.238-.42-.476-.616-.742A14.9,14.9,0,0,1,79.17,88.2a20.814,20.814,0,0,0,2.9-.574l-.126-1.092a17.981,17.981,0,0,1-3.122.686,16.728,16.728,0,0,1-.644-2.394l-1.19.154C77.112,85.346,77.238,85.78,77.336,86.074Zm-2.968,5.558-1.092-.252A5.458,5.458,0,0,0,72.6,93.7c0,1.9,1.68,2.87,4.34,2.884a20.332,20.332,0,0,0,3.612-.308l.056-1.12A15.605,15.605,0,0,1,77,95.51c-2.072-.014-3.29-.6-3.29-1.932A3.6,3.6,0,0,1,74.368,91.632Zm12.754-5.4L85.764,86.2a6.315,6.315,0,0,1,.1,1.246c0,.812.028,2.52.154,3.738.378,3.626,1.652,4.942,2.982,4.942.938,0,1.792-.812,2.632-3.192l-.882-.994c-.364,1.4-1.022,2.856-1.736,2.856-.994,0-1.68-1.554-1.9-3.892-.1-1.162-.112-2.436-.1-3.318A10.659,10.659,0,0,1,87.122,86.228Zm7.294.392L93.324,87A14.185,14.185,0,0,1,95.76,94.04l1.12-.462A15.046,15.046,0,0,0,94.416,86.62Zm6.3,5.964a2.135,2.135,0,1,0,2.142,2.128A2.136,2.136,0,0,0,100.716,92.584Zm0,3.556a1.421,1.421,0,1,1,1.428-1.428A1.422,1.422,0,0,1,100.716,96.14Z" transform="translate(216.186 4950.744)" fill="#d4d4d4"/>
    <g id="Group_447" data-name="Group 447">
      <g id="Group_426" data-name="Group 426" transform="translate(-138.854 -372.14)">
        <line id="Line_155" data-name="Line 155" y1="10" transform="translate(354.5 5299)" fill="none" stroke="#f4f4f4" stroke-width="1"/>
        <text id="_0" data-name="0" transform="translate(351 5309)" fill="#fff" font-size="6" font-family="NotoSansJP-Regular, Noto Sans JP"><tspan x="-1.665" y="7">0</tspan></text>
      </g>
      <g id="Group_426-2" data-name="Group 426" transform="translate(-109.854 -372.14)">
        <line id="Line_155-2" data-name="Line 155" y1="10" transform="translate(354.5 5299)" fill="none" stroke="#f4f4f4" stroke-width="1"/>
        <text id="_1" data-name="1" transform="translate(351 5309)" fill="#fff" font-size="6" font-family="NotoSansJP-Regular, Noto Sans JP"><tspan x="-1.665" y="7">1</tspan></text>
      </g>
      <g id="Group_426-3" data-name="Group 426" transform="translate(-80.854 -372.14)">
        <line id="Line_155-3" data-name="Line 155" y1="10" transform="translate(354.5 5299)" fill="none" stroke="#f4f4f4" stroke-width="1"/>
        <text id="_2" data-name="2" transform="translate(351 5309)" fill="#fff" font-size="6" font-family="NotoSansJP-Regular, Noto Sans JP"><tspan x="-1.665" y="7">2</tspan></text>
      </g>
      <g id="Group_426-4" data-name="Group 426" transform="translate(-51.854 -372.14)">
        <line id="Line_155-4" data-name="Line 155" y1="10" transform="translate(354.5 5299)" fill="none" stroke="#f4f4f4" stroke-width="1"/>
        <text id="_3" data-name="3" transform="translate(351 5309)" fill="#fff" font-size="6" font-family="NotoSansJP-Regular, Noto Sans JP"><tspan x="-1.665" y="7">3</tspan></text>
      </g>
      <g id="Group_426-5" data-name="Group 426" transform="translate(-22.854 -372.14)">
        <line id="Line_155-5" data-name="Line 155" y1="10" transform="translate(354.5 5299)" fill="none" stroke="#f4f4f4" stroke-width="1"/>
        <text id="_4" data-name="4" transform="translate(351 5309)" fill="#fff" font-size="6" font-family="NotoSansJP-Regular, Noto Sans JP"><tspan x="-1.665" y="7">4</tspan></text>
      </g>
      <g id="Group_426-6" data-name="Group 426" transform="translate(6.146 -372.14)">
        <line id="Line_155-6" data-name="Line 155" y1="10" transform="translate(354.5 5299)" fill="none" stroke="#f4f4f4" stroke-width="1"/>
        <text id="_5" data-name="5" transform="translate(351 5309)" fill="#fff" font-size="6" font-family="NotoSansJP-Regular, Noto Sans JP"><tspan x="-1.665" y="7">5</tspan></text>
      </g>
      <g id="Group_426-7" data-name="Group 426" transform="translate(35.146 -372.14)">
        <line id="Line_155-7" data-name="Line 155" y1="10" transform="translate(354.5 5299)" fill="none" stroke="#f4f4f4" stroke-width="1"/>
        <text id="_6" data-name="6" transform="translate(351 5309)" fill="#fff" font-size="6" font-family="NotoSansJP-Regular, Noto Sans JP"><tspan x="-1.665" y="7">6</tspan></text>
      </g>
      <g id="Group_426-8" data-name="Group 426" transform="translate(64.146 -372.14)">
        <line id="Line_155-8" data-name="Line 155" y1="10" transform="translate(354.5 5299)" fill="none" stroke="#f4f4f4" stroke-width="1"/>
        <text id="_7" data-name="7" transform="translate(351 5309)" fill="#fff" font-size="6" font-family="NotoSansJP-Regular, Noto Sans JP"><tspan x="-1.665" y="7">7</tspan></text>
      </g>
      <g id="Group_426-9" data-name="Group 426" transform="translate(93.146 -372.14)">
        <line id="Line_155-9" data-name="Line 155" y1="10" transform="translate(354.5 5299)" fill="none" stroke="#f4f4f4" stroke-width="1"/>
        <text id="_8" data-name="8" transform="translate(351 5309)" fill="#fff" font-size="6" font-family="NotoSansJP-Regular, Noto Sans JP"><tspan x="-1.665" y="7">8</tspan></text>
      </g>
      <g id="Group_426-10" data-name="Group 426" transform="translate(122.146 -372.14)">
        <line id="Line_155-10" data-name="Line 155" y1="10" transform="translate(354.5 5299)" fill="none" stroke="#f4f4f4" stroke-width="1"/>
        <text id="_9" data-name="9" transform="translate(351 5309)" fill="#fff" font-size="6" font-family="NotoSansJP-Regular, Noto Sans JP"><tspan x="-1.665" y="7">9</tspan></text>
      </g>
      <g id="Group_426-11" data-name="Group 426" transform="translate(151.146 -372.14)">
        <line id="Line_155-11" data-name="Line 155" y1="10" transform="translate(354.5 5299)" fill="none" stroke="#f4f4f4" stroke-width="1"/>
        <text id="_10" data-name="10" transform="translate(351 5309)" fill="#fff" font-size="6" font-family="NotoSansJP-Regular, Noto Sans JP"><tspan x="-3.33" y="7">10</tspan></text>
      </g>
    </g>
    <g id="Group_430" data-name="Group 430" transform="translate(215.42 4894.156)">
      <g id="Group_427" data-name="Group 427" transform="translate(0 0)" opacity="0.67">
        <rect id="Rectangle_174" data-name="Rectangle 174" width="321.703" height="32.514" fill="#fff"/>
        <path id="Polygon_7" data-name="Polygon 7" d="M21.008,0l7,16.257-7,16.257H7L0,16.257,7,0Z" transform="translate(304.786)" fill="#fff"/>
      </g>
      <g id="Group_428" data-name="Group 428" transform="translate(0 0)">
        <rect id="Rectangle_174-2" data-name="Rectangle 174" width="267.403" height="32.514" fill="#6e6e6e"/>
        <path id="Polygon_7-2" data-name="Polygon 7" d="M21.008,0l7,16.257-7,16.257H7L0,16.257,7,0Z" transform="translate(250.486)" fill="#6e6e6e"/>
      </g>
      <g id="Group_429" data-name="Group 429" transform="translate(0 0)">
        <rect id="Rectangle_174-3" data-name="Rectangle 174" width="54.842" height="32.514" fill="#a6b7c9"/>
        <path id="Polygon_7-3" data-name="Polygon 7" d="M21.008,0l7,16.257-7,16.257H7L0,16.257,7,0Z" transform="translate(37.925)" fill="#a6b7c9"/>
      </g>
      <path id="Path_511" data-name="Path 511" d="M5.621,2.395A9.491,9.491,0,0,1,3.5,5.761a7.154,7.154,0,0,1,.576,1.1,10.256,10.256,0,0,0,.684-.8v4.707H5.774V4.492a15.048,15.048,0,0,0,.837-1.773ZM7.808,3.709h2.637V4.915H7.808Zm4.149,3.933V6.67H9.635V5.86h1.881v-3.1H6.791v3.1H8.555v.81H6.2v.972H8.042A6.465,6.465,0,0,1,5.873,9.586a4.42,4.42,0,0,1,.738.855A7.217,7.217,0,0,0,8.555,8.506v2.277h1.08V8.461a7.432,7.432,0,0,0,1.827,2,4.556,4.556,0,0,1,.756-.855,6.773,6.773,0,0,1-2.061-1.962Zm3.672-4.986H13.091v.81h2.538Zm-.855,5.895V9.577H13.91V8.551Zm.918-.846H13.01v3.069h.9v-.351h1.782Zm-2.655-.459h2.592v-.81H13.037Zm2.592-2.061H13.037v.8h2.592Zm-3.015-.441h3.339V3.9H12.614Zm6.651,4.725V6.985h1.557V5.977H19.265V3.853h1.6V2.836H16.232V3.853h1.98V9.469h-.684V5.2h-1V9.469H15.98v1h5.058v-1Zm2.691-1.827a6.544,6.544,0,0,1-.477,2.088,5.29,5.29,0,0,1,.819.387,8.321,8.321,0,0,0,.54-2.322Zm1.953.162a10.649,10.649,0,0,1,.522,1.674l.792-.288a9.923,9.923,0,0,0-.558-1.62Zm1.467,1.629a15.005,15.005,0,0,1,3.384,1.431l.621-.837A17.782,17.782,0,0,0,26,8.677Zm.972-1.6a8.135,8.135,0,0,1,1.845,1.053l.621-.747a9.231,9.231,0,0,0-1.863-.981ZM28.229,4.15a5.578,5.578,0,0,1-.783,1.017,6.269,6.269,0,0,1-.783-1.017Zm.729-.954-.162.036h-1.6c.126-.225.234-.459.333-.684l-1.044-.171A6.14,6.14,0,0,1,24.53,4.96a3,3,0,0,1,.738.693,7.272,7.272,0,0,0,.8-.774,7.4,7.4,0,0,0,.684.9,7.265,7.265,0,0,1-1.665.954,9,9,0,0,0-.657-1.449l-.711.3c.108.2.216.423.315.648l-.864.036c.567-.729,1.188-1.638,1.683-2.421l-.873-.405a16.321,16.321,0,0,1-.8,1.458c-.09-.108-.189-.234-.306-.36.324-.5.684-1.2,1.008-1.809l-.927-.342A11.409,11.409,0,0,1,22.3,3.952l-.207-.18-.513.729A8.832,8.832,0,0,1,22.64,5.725c-.144.207-.288.405-.423.576l-.648.027.09.927,1.305-.081v3.618h.927V7.111l.459-.036c.045.162.081.315.108.441l.657-.3a2.723,2.723,0,0,1,.315.486,8.162,8.162,0,0,0,2.025-1.224A7,7,0,0,0,29.5,7.75a4.448,4.448,0,0,1,.675-.873,6.668,6.668,0,0,1-2-1.062,7.059,7.059,0,0,0,1.449-2.25Zm8.685-.261-.261.072H31.244V4.06h5.22a10.332,10.332,0,0,1-1.557,1.377h-.6V9.514c0,.153-.063.2-.261.2s-.945.009-1.575-.027a4.54,4.54,0,0,1,.423,1.1,6.324,6.324,0,0,0,1.953-.18c.441-.162.594-.45.594-1.071V6.337A13.789,13.789,0,0,0,38.48,3.556Zm3.69-.549a7.52,7.52,0,0,1-1.764,1.782,8.19,8.19,0,0,1,.558.783,11.065,11.065,0,0,0,2.151-2.2ZM41.5,4.3a7.677,7.677,0,0,1-2.007,2.313,6.5,6.5,0,0,1,.558,1,7.968,7.968,0,0,0,.7-.666V10.8h1V5.743a12.06,12.06,0,0,0,.684-1.089Zm2.628,3.528h1.746a4.007,4.007,0,0,1-.864.882,4.109,4.109,0,0,1-.891-.873ZM46.6,6.994l-.171.036H44.8c.126-.171.243-.351.351-.531.585-.018,1.2-.036,1.791-.063a5.2,5.2,0,0,1,.3.594l.9-.5a8.874,8.874,0,0,0-1.368-1.971l-.828.459c.153.18.306.369.45.576l-1.611.027a28.762,28.762,0,0,0,2.2-2.088l-.945-.522A16.149,16.149,0,0,1,44.591,4.6a6.767,6.767,0,0,0-.513-.45c.378-.378.819-.864,1.206-1.323l-.927-.477a9.818,9.818,0,0,1-.963,1.3c-.171-.117-.342-.225-.495-.324l-.639.693a10.238,10.238,0,0,1,1.584,1.278c-.126.117-.261.234-.387.342-.513.009-.981.009-1.386.009l.09.945,1.8-.054A5.809,5.809,0,0,1,41.954,8.2a6.238,6.238,0,0,1,.693.792,8.706,8.706,0,0,0,.81-.558,4.9,4.9,0,0,0,.711.783,7.781,7.781,0,0,1-2.214.7,3.481,3.481,0,0,1,.513.909,8.8,8.8,0,0,0,2.547-.963,7.29,7.29,0,0,0,2.484.945,4,4,0,0,1,.639-.918A8.076,8.076,0,0,1,45.9,9.235a4.916,4.916,0,0,0,1.368-1.944ZM7.583,21.83c0-.342.342-.558.855-.558a2.779,2.779,0,0,1,.72.1v.162c0,.531-.189.819-.738.819C7.943,22.352,7.583,22.2,7.583,21.83Zm2.673-5.877H8.969a3.822,3.822,0,0,1,.063.594c0,.189.009.558.009,1-.207.009-.423.009-.63.009a15,15,0,0,1-1.575-.081v1.071c.531.036,1.044.054,1.575.054.207,0,.423,0,.639-.009.009.639.045,1.3.063,1.854a4,4,0,0,0-.585-.036c-1.224,0-2,.63-2,1.539,0,.945.774,1.467,2.016,1.467,1.215,0,1.7-.612,1.755-1.476a9.44,9.44,0,0,1,1.1.909l.621-.945a5.89,5.89,0,0,0-1.746-1.161c-.036-.612-.081-1.332-.1-2.2.5-.036.963-.09,1.4-.153V17.258a12.331,12.331,0,0,1-1.4.207c.009-.4.018-.729.027-.927A5.636,5.636,0,0,1,10.256,15.953Zm-4.392.1-1.242-.108a8.585,8.585,0,0,1-.09.882,28.5,28.5,0,0,0-.369,3.753,10.571,10.571,0,0,0,.36,2.88l1.017-.081c-.009-.126-.018-.279-.018-.369a2.512,2.512,0,0,1,.045-.423c.108-.486.4-1.4.648-2.142l-.549-.45c-.135.306-.288.612-.4.927a4.254,4.254,0,0,1-.036-.585,24.025,24.025,0,0,1,.432-3.483A5.844,5.844,0,0,1,5.864,16.052ZM18.77,19.688H15.521v-.576H18.77Zm-3.249,1.476v-.585H18.77v.585Zm5.3-3.7V16.457H16.43c.108-.279.2-.558.288-.837l-1.107-.252a8.979,8.979,0,0,1-.351,1.089H12.839v1.008H14.81a6.989,6.989,0,0,1-2.241,2.628,6.032,6.032,0,0,1,.7.819,6.6,6.6,0,0,0,1.188-1.053v3.915h1.062V22.055H18.77v.54c0,.126-.054.171-.207.18s-.675,0-1.134-.027a4.442,4.442,0,0,1,.324,1.035,3.964,3.964,0,0,0,1.593-.18c.369-.162.468-.45.468-.981V18.176H15.647a7.525,7.525,0,0,0,.36-.711Zm8.118-.171v.342H24.989v-.342Zm-.891,1.26h-2.2v-.378h2.2Zm-3.969-.5h.846v1.035h4.095V18.059h.873v-1.5h-.963c.18-.234.4-.513.612-.819l-1.017-.279a7.049,7.049,0,0,1-.495,1.017l.234.081h-.738V15.44H26.483v1.116h-.738l.288-.108a4.741,4.741,0,0,0-.549-.981l-.81.279a4.4,4.4,0,0,1,.432.81h-.972c.126-.279.243-.558.351-.828L23.468,15.4a9.565,9.565,0,0,1-2.043,3.375,6.78,6.78,0,0,1,.567,1.107,8.27,8.27,0,0,0,.612-.72v4.6h1.017V17.582c.162-.3.315-.6.459-.9Zm1.413,3.483h2.952v.306H25.493Zm0-.8h2.952v.315H25.493Zm0-.783h2.952v.306H25.493Zm3.969,2.466V19.391H24.53v3.033h1.179a10.166,10.166,0,0,1-1.917.657,3.618,3.618,0,0,1,.594.7,8.1,8.1,0,0,0,2.259-.918l-.63-.441h1.773l-.522.513a11.323,11.323,0,0,1,2.016.864l.828-.63a13.879,13.879,0,0,0-1.908-.747Zm2.754-7.02a10.192,10.192,0,0,1-1.782,3.474,8.414,8.414,0,0,1,.513,1.152,7.2,7.2,0,0,0,.567-.756v4.5h1.017V17.4c.252-.558.477-1.143.666-1.7Zm1.746,2.484a5.142,5.142,0,0,1,.531.432,4.959,4.959,0,0,0,.522-.54,5.966,5.966,0,0,0,.666.693,6.838,6.838,0,0,1-1.719.666Zm3.159-.747a3.507,3.507,0,0,1-.72.828,4.232,4.232,0,0,1-.864-.828Zm1.791,0v-.864H35.987a6.335,6.335,0,0,0,.288-.675l-.963-.225a5.471,5.471,0,0,1-1.35,2.1V16.52h-.927v5.76h.927V19.346a3.93,3.93,0,0,1,.468.648,7.76,7.76,0,0,0,2.052-.927,6.794,6.794,0,0,0,2.142.855,4.314,4.314,0,0,1,.576-.855,6.981,6.981,0,0,1-1.962-.6,4.88,4.88,0,0,0,1-1.323Zm-1.5,3.186A6.178,6.178,0,0,1,34.52,21.6a3.267,3.267,0,0,1,.522.666,6.556,6.556,0,0,0,3.132-1.629Zm-.882-.819a5.4,5.4,0,0,1-2.07.972,2.78,2.78,0,0,1,.567.612,5.822,5.822,0,0,0,2.286-1.26Zm1.53,1.836A6.889,6.889,0,0,1,34.07,22.9a3.73,3.73,0,0,1,.54.846,7.362,7.362,0,0,0,4.365-2.034Zm4.491-.369c-.288.1-.585.189-.882.279v-1.8h.81v-.981h-.81V16.889h.963v-1h-2.97v1h.99v1.584H39.74v.981h.909v2.115c-.414.117-.783.216-1.1.3l.243,1.089c.864-.279,1.944-.621,2.934-.972Zm1.386-2.718h.927v.774h-.927Zm0-1.593h.927v.756h-.927Zm2.718.756h-.891v-.756h.891Zm0,1.611h-.891v-.774h.891Zm-.792,3.5v-.855h1.908v-.963H45.86V19.94h1.809V15.755h-4.7V19.94h1.8v.774H42.908v.963h1.863v.855H42.287V23.5h5.787v-.972Z" transform="translate(276.497 3.658)"/>
      <path id="Path_510" data-name="Path 510" d="M2.388,19h7.12V17.1H7.284V7.144H5.54A7.386,7.386,0,0,1,2.788,8.152V9.608H4.932V17.1H2.388Zm12.832.224c2.416,0,4-2.112,4-6.192s-1.584-6.1-4-6.1-4.016,2-4.016,6.1C11.2,17.112,12.8,19.224,15.22,19.224Zm0-1.84c-1.024,0-1.792-1.024-1.792-4.352,0-3.312.768-4.272,1.792-4.272S17,9.72,17,13.032C17,16.36,16.244,17.384,15.22,17.384Zm8.544-1.264V14.3H25.84V16.12Zm7.656,0h-4.1V14.3h3.168V12.964H27.316V11.536H30.76v-1.38H23.98a7.661,7.661,0,0,0,.4-.984L22.924,8.8a9.254,9.254,0,0,1-2.52,4,11.044,11.044,0,0,1,1.236.924,10.784,10.784,0,0,0,1.632-2.184H25.84v1.428h-3.5V16.12h-1.9v1.368h5.4v2.568h1.476V17.488h4.1ZM35,8.86a12.655,12.655,0,0,1-2.832,4.488,9.539,9.539,0,0,1,.768,1.464,13.675,13.675,0,0,0,.912-1.068V20.02H35.2V11.656a20.064,20.064,0,0,0,1.116-2.364Zm2.916,1.752h3.516V12.22H37.912Zm5.532,5.244v-1.3h-3.1V13.48h2.508V9.352h-6.3V13.48h2.352v1.08H35.764v1.3h2.46a8.621,8.621,0,0,1-2.892,2.592,5.893,5.893,0,0,1,.984,1.14,9.623,9.623,0,0,0,2.592-2.58v3.036h1.44v-3.1a9.909,9.909,0,0,0,2.436,2.664,6.075,6.075,0,0,1,1.008-1.14,9.031,9.031,0,0,1-2.748-2.616Zm4.9-6.648H44.956v1.08H48.34Zm-1.14,7.86v1.368H46.048V17.068Zm1.224-1.128H44.848v4.092h1.2v-.468h2.376Zm-3.54-.612H48.34v-1.08H44.884ZM48.34,12.58H44.884v1.068H48.34Zm-4.02-.588h4.452V10.864H44.32Zm8.868,6.3V14.98h2.076V13.636H53.188V10.8h2.136V9.448h-6.18V10.8h2.64v7.488h-.912V12.6H49.54v5.688h-.732v1.332h6.744V18.292ZM65.572,10.2a.69.69,0,1,1,.7.684A.7.7,0,0,1,65.572,10.2Zm-.744,0a1.329,1.329,0,0,0,.024.228,5.178,5.178,0,0,1-.684.048H58.612a13.361,13.361,0,0,1-1.428-.1v1.692c.3-.024.876-.048,1.428-.048h5.58a7.541,7.541,0,0,1-1.4,3.384,7.867,7.867,0,0,1-4.7,2.82l1.308,1.44a9.638,9.638,0,0,0,4.824-3.324,12.114,12.114,0,0,0,1.8-4.368c.036-.108.06-.228.1-.36a.684.684,0,0,0,.156.012,1.434,1.434,0,1,0-1.44-1.428ZM70.6,9.8v1.548c.348-.024.864-.036,1.248-.036h4.6c.432,0,1,.012,1.32.036V9.8a11.314,11.314,0,0,1-1.3.06h-4.62A10.115,10.115,0,0,1,70.6,9.8Zm8.172,3.48-1.068-.66a2.531,2.531,0,0,1-.876.12h-5.94c-.372,0-.888-.036-1.392-.072v1.56c.5-.048,1.1-.06,1.392-.06h5.8a5.206,5.206,0,0,1-1.236,2.076,8.094,8.094,0,0,1-4.152,2.1L72.484,19.7A8.986,8.986,0,0,0,76.768,17.1a8.624,8.624,0,0,0,1.776-3.324A4.445,4.445,0,0,1,78.772,13.276Zm4.044-3.4-1.128,1.2a24.951,24.951,0,0,1,3,2.592l1.224-1.248A24.236,24.236,0,0,0,82.816,9.88Zm-1.5,7.992,1.008,1.584a13,13,0,0,0,4.452-1.692,12.76,12.76,0,0,0,4.44-4.44l-.936-1.692A11.3,11.3,0,0,1,85.912,16.3,12.368,12.368,0,0,1,81.316,17.872Z" transform="translate(115.937 0)" fill="#fff"/>
      <path id="Path_509" data-name="Path 509" d="M9.863,3.448,9.035,3.16a5.162,5.162,0,0,1-.18.666A10.069,10.069,0,0,1,7.631,6.283C6.92,5.734,5.876,5,5.1,4.5l-.468.567A28.157,28.157,0,0,1,7.172,6.886,9.992,9.992,0,0,1,3.6,9.712l.621.567A11.466,11.466,0,0,0,7.748,7.372a20.072,20.072,0,0,1,2.124,2.07l.567-.621A22.523,22.523,0,0,0,8.216,6.76,12.537,12.537,0,0,0,9.566,4.1,4.856,4.856,0,0,1,9.863,3.448ZM12.491,6.1v.882c.279-.027.756-.045,1.251-.045h4.941c.4,0,.783.036.963.045V6.1c-.2.018-.522.045-.972.045H13.742C13.238,6.148,12.761,6.121,12.491,6.1ZM25.145,2.917H24.3a5.456,5.456,0,0,1,.063.747c0,.324-.018.63-.036.918H22.742a9.42,9.42,0,0,1-1.026-.054v.765a9.6,9.6,0,0,1,1.035-.036h1.512a5.787,5.787,0,0,1-1.782,3.789,4.436,4.436,0,0,1-.927.666l.657.531a6.356,6.356,0,0,0,2.763-4.986h2.52a13.569,13.569,0,0,1-.459,3.861.487.487,0,0,1-.522.3,10.95,10.95,0,0,1-1.341-.1l.09.747c.468.027.99.063,1.449.063a.934.934,0,0,0,.963-.549,17.547,17.547,0,0,0,.549-4.347,2.815,2.815,0,0,1,.045-.441l-.5-.252a3.244,3.244,0,0,1-.576.045H25.046c.018-.3.036-.6.045-.927C25.1,3.439,25.118,3.124,25.145,2.917ZM30.491,6.1v.882c.279-.027.756-.045,1.251-.045h4.941c.4,0,.783.036.963.045V6.1c-.2.018-.522.045-.972.045H31.742C31.238,6.148,30.761,6.121,30.491,6.1ZM41.075,2.494A10.106,10.106,0,0,1,38.807,6.04a5.465,5.465,0,0,1,.378.648,9.725,9.725,0,0,0,.963-1.152v5.13h.639V4.555a13.37,13.37,0,0,0,.918-1.872Zm1.557,1h3.339V5.14H42.632Zm4.5,3.969V6.85h-2.52V5.734h2.025V2.89H42V5.734h1.944V6.85h-2.61v.612h2.223a6.666,6.666,0,0,1-2.484,2.3,3.3,3.3,0,0,1,.468.531,7.522,7.522,0,0,0,2.4-2.394v2.79h.666V7.876a8.289,8.289,0,0,0,2.277,2.439,3.032,3.032,0,0,1,.477-.531A7.013,7.013,0,0,1,45,7.462Zm3.753-4.68H48.428v.54h2.457Zm.315,1.2H47.951v.549H51.2Zm-.306,1.242h-2.52v.531h2.52Zm-2.52,1.755h2.52V6.445h-2.52Zm1.971,1.242V9.712h-1.4V8.218Zm.585-.549H48.356v3.006h.585v-.4H50.93Zm3.3,2.07V6.751h1.782v-.63H54.233V3.646h1.836V3.025H51.5v.621h2.088V9.739h-1.08V5.266h-.63V9.739H51.2v.639h5.013V9.739ZM2.489,24h5.34V22.572H6.161V15.108H4.853a5.54,5.54,0,0,1-2.064.756v1.092H4.4v5.616H2.489Zm9.924-2.88V19.3h2.076V21.12Zm7.656,0h-4.1V19.3h3.168V17.964H15.965V16.536h3.444v-1.38h-6.78a7.661,7.661,0,0,0,.4-.984L11.573,13.8a9.254,9.254,0,0,1-2.52,4,11.044,11.044,0,0,1,1.236.924,10.784,10.784,0,0,0,1.632-2.184h2.568v1.428h-3.5V21.12h-1.9v1.368h5.4v2.568h1.476V22.488h4.1ZM27.6,17.088l-.189.054H21.419v1.053h5.553a8.176,8.176,0,0,1-1.89,3.168,8.544,8.544,0,0,1-1.719-3.114l-1.071.306a10.9,10.9,0,0,0,1.926,3.582,10.2,10.2,0,0,1-3.384,1.638,4.207,4.207,0,0,1,.711,1.044,10.349,10.349,0,0,0,3.474-1.854,8.559,8.559,0,0,0,3.519,1.827,5.4,5.4,0,0,1,.756-1.026,8.393,8.393,0,0,1-3.393-1.62,10.45,10.45,0,0,0,2.484-4.689Zm6.237,5.742c0-.342.342-.558.855-.558a2.779,2.779,0,0,1,.72.1v.162c0,.531-.189.819-.738.819C34.2,23.352,33.839,23.2,33.839,22.83Zm2.673-5.877H35.225a3.822,3.822,0,0,1,.063.594c0,.189.009.558.009,1-.207.009-.423.009-.63.009a15,15,0,0,1-1.575-.081v1.071c.531.036,1.044.054,1.575.054.207,0,.423,0,.639-.009.009.639.045,1.3.063,1.854a4,4,0,0,0-.585-.036c-1.224,0-2,.63-2,1.539,0,.945.774,1.467,2.016,1.467,1.215,0,1.7-.612,1.755-1.476a9.44,9.44,0,0,1,1.1.909l.621-.945a5.89,5.89,0,0,0-1.746-1.161c-.036-.612-.081-1.332-.1-2.2.495-.036.963-.09,1.4-.153V18.258a12.331,12.331,0,0,1-1.4.207c.009-.4.018-.729.027-.927A5.637,5.637,0,0,1,36.512,16.953Zm-4.392.1-1.242-.108a8.586,8.586,0,0,1-.09.882,28.5,28.5,0,0,0-.369,3.753,10.571,10.571,0,0,0,.36,2.88l1.017-.081c-.009-.126-.018-.279-.018-.369a2.512,2.512,0,0,1,.045-.423c.108-.486.4-1.4.648-2.142l-.549-.45c-.135.306-.288.612-.4.927a4.254,4.254,0,0,1-.036-.585,24.025,24.025,0,0,1,.432-3.483A5.843,5.843,0,0,1,32.12,17.052ZM39.089,24h5.952V22.512h-1.92c-.42,0-1.008.048-1.452.1,1.62-1.584,2.952-3.312,2.952-4.92a2.6,2.6,0,0,0-2.8-2.736,3.565,3.565,0,0,0-2.82,1.344l.96.96a2.323,2.323,0,0,1,1.632-.912,1.268,1.268,0,0,1,1.332,1.44c0,1.368-1.428,3.036-3.84,5.2Zm10.392-2.88V19.3h2.076V21.12Zm7.656,0h-4.1V19.3H56.2V17.964H53.033V16.536h3.444v-1.38H49.7a7.66,7.66,0,0,0,.4-.984L48.641,13.8a9.254,9.254,0,0,1-2.52,4,11.044,11.044,0,0,1,1.236.924,10.784,10.784,0,0,0,1.632-2.184h2.568v1.428h-3.5V21.12h-1.9v1.368h5.4v2.568h1.476V22.488h4.1Z" transform="translate(0 2.286)"/>
    </g>
    <g id="Group_430-2" data-name="Group 430" transform="translate(215.42 4853.513)">
      <g id="Group_427-2" data-name="Group 427" transform="translate(0)" opacity="0.67">
        <rect id="Rectangle_174-4" data-name="Rectangle 174" width="321.703" height="32.514" fill="#fff"/>
        <path id="Polygon_7-4" data-name="Polygon 7" d="M21.008,0l7,16.257-7,16.257H7L0,16.257,7,0Z" transform="translate(304.786)" fill="#fff"/>
      </g>
      <g id="Group_428-2" data-name="Group 428" transform="translate(0)">
        <rect id="Rectangle_174-5" data-name="Rectangle 174" width="142.268" height="32.514" fill="#6e6e6e"/>
        <path id="Polygon_7-5" data-name="Polygon 7" d="M21.008,0l7,16.257-7,16.257H7L0,16.257,7,0Z" transform="translate(125.35)" fill="#6e6e6e"/>
      </g>
      <g id="Group_429-2" data-name="Group 429" transform="translate(0)">
        <rect id="Rectangle_174-6" data-name="Rectangle 174" width="54.842" height="32.514" fill="#a6b7c9"/>
        <path id="Polygon_7-6" data-name="Polygon 7" d="M21.008,0l7,16.257-7,16.257H7L0,16.257,7,0Z" transform="translate(37.925)" fill="#a6b7c9"/>
      </g>
      <path id="Path_508" data-name="Path 508" d="M12.572,3.86A12.655,12.655,0,0,1,9.74,8.348a9.539,9.539,0,0,1,.768,1.464,13.675,13.675,0,0,0,.912-1.068V15.02h1.356V6.656a20.064,20.064,0,0,0,1.116-2.364Zm2.916,1.752H19V7.22H15.488Zm5.532,5.244V9.56h-3.1V8.48h2.508V4.352h-6.3V8.48h2.352V9.56H13.34v1.3H15.8a8.621,8.621,0,0,1-2.892,2.592,5.893,5.893,0,0,1,.984,1.14,9.623,9.623,0,0,0,2.592-2.58v3.036h1.44v-3.1a9.909,9.909,0,0,0,2.436,2.664,6.075,6.075,0,0,1,1.008-1.14,9.031,9.031,0,0,1-2.748-2.616Zm4.9-6.648H22.532v1.08h3.384Zm-1.14,7.86v1.368H23.624V12.068ZM26,10.94H22.424v4.092h1.2v-.468H26Zm-3.54-.612h3.456V9.248H22.46ZM25.916,7.58H22.46V8.648h3.456ZM21.9,6.992h4.452V5.864H21.9Zm8.868,6.3V9.98H32.84V8.636H30.764V5.8H32.9V4.448H26.72V5.8h2.64v7.488h-.912V7.6H27.116v5.688h-.732v1.332h6.744V13.292Zm3.588-2.436a8.725,8.725,0,0,1-.636,2.784,7.053,7.053,0,0,1,1.092.516,11.1,11.1,0,0,0,.72-3.1Zm2.6.216a14.2,14.2,0,0,1,.7,2.232l1.056-.384a13.23,13.23,0,0,0-.744-2.16Zm1.956,2.172a20.007,20.007,0,0,1,4.512,1.908l.828-1.116a23.709,23.709,0,0,0-4.512-1.8Zm1.3-2.136a10.847,10.847,0,0,1,2.46,1.4l.828-1a12.308,12.308,0,0,0-2.484-1.308ZM42.716,6.2a7.437,7.437,0,0,1-1.044,1.356A8.359,8.359,0,0,1,40.628,6.2Zm.972-1.272-.216.048H41.336c.168-.3.312-.612.444-.912l-1.392-.228a8.186,8.186,0,0,1-2.6,3.444,3.993,3.993,0,0,1,.984.924,9.7,9.7,0,0,0,1.068-1.032,9.873,9.873,0,0,0,.912,1.2,9.687,9.687,0,0,1-2.22,1.272,12,12,0,0,0-.876-1.932l-.948.4c.144.264.288.564.42.864l-1.152.048c.756-.972,1.584-2.184,2.244-3.228l-1.164-.54A21.763,21.763,0,0,1,35.984,7.2c-.12-.144-.252-.312-.408-.48.432-.672.912-1.6,1.344-2.412l-1.236-.456a15.212,15.212,0,0,1-.876,2.088c-.1-.084-.192-.168-.276-.24l-.684.972A11.775,11.775,0,0,1,35.264,8.3c-.192.276-.384.54-.564.768l-.864.036.12,1.236,1.74-.108v4.824h1.236V10.148l.612-.048c.06.216.108.42.144.588l.876-.4a3.631,3.631,0,0,1,.42.648,10.882,10.882,0,0,0,2.7-1.632A9.328,9.328,0,0,0,44.408,11a5.931,5.931,0,0,1,.9-1.164A8.89,8.89,0,0,1,42.644,8.42a9.411,9.411,0,0,0,1.932-3Zm11.58-.348-.348.1H46.736v1.4H53.7A13.775,13.775,0,0,1,51.62,7.916h-.8v5.436c0,.2-.084.264-.348.264s-1.26.012-2.1-.036a6.053,6.053,0,0,1,.564,1.464,8.432,8.432,0,0,0,2.6-.24c.588-.216.792-.6.792-1.428V9.116a18.386,18.386,0,0,0,4.056-3.708Zm4.92-.732a10.027,10.027,0,0,1-2.352,2.376,10.919,10.919,0,0,1,.744,1.044A14.753,14.753,0,0,0,61.448,4.34ZM60.4,6.4a10.236,10.236,0,0,1-2.676,3.084,8.668,8.668,0,0,1,.744,1.332,10.624,10.624,0,0,0,.936-.888v5.136H60.74V8.324a16.081,16.081,0,0,0,.912-1.452Zm3.5,4.7h2.328a5.343,5.343,0,0,1-1.152,1.176A5.479,5.479,0,0,1,63.9,11.12Zm3.3-1.116-.228.048H64.808c.168-.228.324-.468.468-.708.78-.024,1.6-.048,2.388-.084a6.927,6.927,0,0,1,.4.792l1.2-.672A11.832,11.832,0,0,0,67.436,6.74l-1.1.612c.2.24.408.492.6.768l-2.148.036a38.349,38.349,0,0,0,2.94-2.784l-1.26-.7A21.532,21.532,0,0,1,64.532,6.8a9.022,9.022,0,0,0-.684-.6c.5-.5,1.092-1.152,1.608-1.764L64.22,3.8a13.091,13.091,0,0,1-1.284,1.728c-.228-.156-.456-.3-.66-.432l-.852.924a13.65,13.65,0,0,1,2.112,1.7c-.168.156-.348.312-.516.456-.684.012-1.308.012-1.848.012l.12,1.26,2.4-.072a7.746,7.746,0,0,1-2.676,2.22,8.317,8.317,0,0,1,.924,1.056,11.608,11.608,0,0,0,1.08-.744,6.537,6.537,0,0,0,.948,1.044,10.375,10.375,0,0,1-2.952.936A4.641,4.641,0,0,1,61.7,15.1a11.728,11.728,0,0,0,3.4-1.284,9.72,9.72,0,0,0,3.312,1.26,5.335,5.335,0,0,1,.852-1.224,10.768,10.768,0,0,1-2.988-.876A6.555,6.555,0,0,0,68.1,10.388Zm7.98,2.448c0-.456.456-.744,1.14-.744a3.7,3.7,0,0,1,.96.132v.216c0,.708-.252,1.092-.984,1.092C75.668,13.136,75.188,12.932,75.188,12.44ZM78.752,4.6H77.036a5.1,5.1,0,0,1,.084.792c0,.252.012.744.012,1.332-.276.012-.564.012-.84.012a20,20,0,0,1-2.1-.108V8.06c.708.048,1.392.072,2.1.072.276,0,.564,0,.852-.012.012.852.06,1.728.084,2.472a5.338,5.338,0,0,0-.78-.048c-1.632,0-2.664.84-2.664,2.052,0,1.26,1.032,1.956,2.688,1.956,1.62,0,2.268-.816,2.34-1.968A12.587,12.587,0,0,1,80.276,13.8l.828-1.26a7.854,7.854,0,0,0-2.328-1.548c-.048-.816-.108-1.776-.132-2.94.66-.048,1.284-.12,1.86-.2v-1.5a16.441,16.441,0,0,1-1.86.276c.012-.528.024-.972.036-1.236A7.516,7.516,0,0,1,78.752,4.6ZM72.9,4.736,71.24,4.592a11.448,11.448,0,0,1-.12,1.176,38,38,0,0,0-.492,5,14.1,14.1,0,0,0,.48,3.84l1.356-.108c-.012-.168-.024-.372-.024-.492a3.349,3.349,0,0,1,.06-.564c.144-.648.528-1.872.864-2.856l-.732-.6c-.18.408-.384.816-.54,1.236a5.672,5.672,0,0,1-.048-.78A32.033,32.033,0,0,1,72.62,5.8,7.791,7.791,0,0,1,72.9,4.736ZM90.1,9.584H85.772V8.816H90.1Zm-4.332,1.968v-.78H90.1v.78ZM92.84,6.62V5.276H86.984c.144-.372.264-.744.384-1.116l-1.476-.336a11.972,11.972,0,0,1-.468,1.452H82.2V6.62h2.628a9.319,9.319,0,0,1-2.988,3.5,8.043,8.043,0,0,1,.936,1.092,8.8,8.8,0,0,0,1.584-1.4v5.22h1.416V12.74H90.1v.72c0,.168-.072.228-.276.24s-.9,0-1.512-.036a5.923,5.923,0,0,1,.432,1.38,5.285,5.285,0,0,0,2.124-.24c.492-.216.624-.6.624-1.308V7.568H85.94a10.032,10.032,0,0,0,.48-.948Zm10.824-.228v.456H98.4V6.392Zm-1.188,1.68H99.548v-.5h2.928Zm-5.292-.66h1.128v1.38h5.46V7.412h1.164v-2h-1.284c.24-.312.528-.684.816-1.092l-1.356-.372a9.4,9.4,0,0,1-.66,1.356l.312.108h-.984V3.92h-1.392V5.408H99.4l.384-.144a6.321,6.321,0,0,0-.732-1.308l-1.08.372a5.862,5.862,0,0,1,.576,1.08h-1.3c.168-.372.324-.744.468-1.1l-1.356-.432a12.754,12.754,0,0,1-2.724,4.5A9.039,9.039,0,0,1,94.4,9.848a11.027,11.027,0,0,0,.816-.96V15.02h1.356V6.776c.216-.4.42-.8.612-1.2Zm1.884,4.644H103v.408H99.068Zm0-1.068H103v.42H99.068Zm0-1.044H103v.408H99.068Zm5.292,3.288V9.188H97.784v4.044h1.572a13.554,13.554,0,0,1-2.556.876,4.823,4.823,0,0,1,.792.936A10.8,10.8,0,0,0,100.6,13.82l-.84-.588h2.364l-.7.684a15.1,15.1,0,0,1,2.688,1.152l1.1-.84a18.505,18.505,0,0,0-2.544-1Zm3.672-9.36A13.59,13.59,0,0,1,105.656,8.5a11.218,11.218,0,0,1,.684,1.536,9.592,9.592,0,0,0,.756-1.008v6h1.356v-8.5c.336-.744.636-1.524.888-2.268Zm2.328,3.312a6.857,6.857,0,0,1,.708.576,6.612,6.612,0,0,0,.7-.72,7.954,7.954,0,0,0,.888.924,9.117,9.117,0,0,1-2.292.888Zm4.212-1a4.675,4.675,0,0,1-.96,1.1,5.643,5.643,0,0,1-1.152-1.1Zm2.388,0V5.036h-3.9a8.445,8.445,0,0,0,.384-.9l-1.284-.3a7.3,7.3,0,0,1-1.8,2.8V5.36h-1.236v7.68h1.236V9.128a5.24,5.24,0,0,1,.624.864,10.347,10.347,0,0,0,2.736-1.236,9.059,9.059,0,0,0,2.856,1.14,5.751,5.751,0,0,1,.768-1.14,9.308,9.308,0,0,1-2.616-.8,6.506,6.506,0,0,0,1.332-1.764Zm-2,4.248a8.237,8.237,0,0,1-3.852,1.7,4.357,4.357,0,0,1,.7.888,8.741,8.741,0,0,0,4.176-2.172ZM113.78,9.344a7.2,7.2,0,0,1-2.76,1.3,3.706,3.706,0,0,1,.756.816,7.763,7.763,0,0,0,3.048-1.68Zm2.04,2.448c-1.032,1.128-3.108,1.776-5.316,2.076a4.974,4.974,0,0,1,.72,1.128c2.448-.444,4.572-1.248,5.82-2.712Zm5.988-.492c-.384.132-.78.252-1.176.372v-2.4h1.08V7.964h-1.08V5.852h1.284V4.52h-3.96V5.852h1.32V7.964h-1.212V9.272h1.212v2.82c-.552.156-1.044.288-1.464.4l.324,1.452c1.152-.372,2.592-.828,3.912-1.3Zm1.848-3.624h1.236V8.708h-1.236Zm0-2.124h1.236V6.56h-1.236ZM127.28,6.56h-1.188V5.552h1.188Zm0,2.148h-1.188V7.676h1.188Zm-1.056,4.668v-1.14h2.544V10.952h-2.544V9.92h2.412V4.34h-6.264V9.92h2.4v1.032h-2.484v1.284h2.484v1.14H121.46v1.3h7.716v-1.3Z" transform="translate(159.335 6.445)"/>
      <path id="Path_507" data-name="Path 507" d="M4.7,19.224a4,4,0,0,0,4.144-4.16A3.438,3.438,0,0,0,5.2,11.3a3.11,3.11,0,0,0-1.424.336L4,9.128H8.3V7.144H1.968l-.32,5.76,1.072.7A2.833,2.833,0,0,1,4.5,12.984a1.916,1.916,0,0,1,2,2.144A1.988,1.988,0,0,1,4.4,17.3a3.68,3.68,0,0,1-2.608-1.2L.7,17.608A5.4,5.4,0,0,0,4.7,19.224Zm8.848-3.1V14.3h2.076V16.12Zm7.656,0H17.1V14.3h3.168V12.964H17.1V11.536h3.444v-1.38h-6.78a7.661,7.661,0,0,0,.4-.984L12.712,8.8a9.254,9.254,0,0,1-2.52,4,11.044,11.044,0,0,1,1.236.924,10.784,10.784,0,0,0,1.632-2.184h2.568v1.428h-3.5V16.12h-1.9v1.368h5.4v2.568H17.1V17.488h4.1Zm3.576-7.26a12.655,12.655,0,0,1-2.832,4.488,9.539,9.539,0,0,1,.768,1.464,13.675,13.675,0,0,0,.912-1.068V20.02h1.356V11.656A20.065,20.065,0,0,0,26.1,9.292ZM27.7,10.612h3.516V12.22H27.7Zm5.532,5.244v-1.3h-3.1V13.48h2.508V9.352h-6.3V13.48H28.7v1.08H25.552v1.3h2.46a8.621,8.621,0,0,1-2.892,2.592,5.893,5.893,0,0,1,.984,1.14,9.623,9.623,0,0,0,2.592-2.58v3.036h1.44v-3.1a9.909,9.909,0,0,0,2.436,2.664,6.075,6.075,0,0,1,1.008-1.14,9.031,9.031,0,0,1-2.748-2.616Zm4.9-6.648H34.744v1.08h3.384Zm-1.14,7.86v1.368H35.836V17.068Zm1.224-1.128H34.636v4.092h1.2v-.468h2.376Zm-3.54-.612h3.456v-1.08H34.672Zm3.456-2.748H34.672v1.068h3.456Zm-4.02-.588H38.56V10.864H34.108Zm8.868,6.3V14.98h2.076V13.636H42.976V10.8h2.136V9.448h-6.18V10.8h2.64v7.488H40.66V12.6H39.328v5.688H38.6v1.332H45.34V18.292ZM55.36,10.2a.69.69,0,1,1,.7.684A.7.7,0,0,1,55.36,10.2Zm-.744,0a1.329,1.329,0,0,0,.024.228,5.178,5.178,0,0,1-.684.048H48.4a13.361,13.361,0,0,1-1.428-.1v1.692c.3-.024.876-.048,1.428-.048h5.58a7.541,7.541,0,0,1-1.4,3.384,7.867,7.867,0,0,1-4.7,2.82l1.308,1.44A9.638,9.638,0,0,0,54,16.348a12.114,12.114,0,0,0,1.8-4.368c.036-.108.06-.228.1-.36a.684.684,0,0,0,.156.012,1.434,1.434,0,1,0-1.44-1.428ZM60.388,9.8v1.548c.348-.024.864-.036,1.248-.036h4.6c.432,0,1,.012,1.32.036V9.8a11.314,11.314,0,0,1-1.3.06h-4.62A10.115,10.115,0,0,1,60.388,9.8Zm8.172,3.48-1.068-.66a2.531,2.531,0,0,1-.876.12h-5.94c-.372,0-.888-.036-1.392-.072v1.56c.5-.048,1.1-.06,1.392-.06h5.8a5.206,5.206,0,0,1-1.236,2.076,8.094,8.094,0,0,1-4.152,2.1L62.272,19.7A8.986,8.986,0,0,0,66.556,17.1a8.624,8.624,0,0,0,1.776-3.324A4.445,4.445,0,0,1,68.56,13.276ZM72.6,9.88l-1.128,1.2a24.951,24.951,0,0,1,3,2.592L75.7,12.424A24.236,24.236,0,0,0,72.6,9.88Zm-1.5,7.992,1.008,1.584a13,13,0,0,0,4.452-1.692A12.76,12.76,0,0,0,81,13.324l-.936-1.692A11.3,11.3,0,0,1,75.7,16.3,12.368,12.368,0,0,1,71.1,17.872Z" transform="translate(67.937 2.96)" fill="#fff"/>
      <path id="Path_506" data-name="Path 506" d="M9.863,3.448,9.035,3.16a5.162,5.162,0,0,1-.18.666A10.069,10.069,0,0,1,7.631,6.283C6.92,5.734,5.876,5,5.1,4.5l-.468.567A28.157,28.157,0,0,1,7.172,6.886,9.992,9.992,0,0,1,3.6,9.712l.621.567A11.466,11.466,0,0,0,7.748,7.372a20.072,20.072,0,0,1,2.124,2.07l.567-.621A22.523,22.523,0,0,0,8.216,6.76,12.537,12.537,0,0,0,9.566,4.1,4.856,4.856,0,0,1,9.863,3.448ZM12.491,6.1v.882c.279-.027.756-.045,1.251-.045h4.941c.4,0,.783.036.963.045V6.1c-.2.018-.522.045-.972.045H13.742C13.238,6.148,12.761,6.121,12.491,6.1ZM25.145,2.917H24.3a5.456,5.456,0,0,1,.063.747c0,.324-.018.63-.036.918H22.742a9.42,9.42,0,0,1-1.026-.054v.765a9.6,9.6,0,0,1,1.035-.036h1.512a5.787,5.787,0,0,1-1.782,3.789,4.436,4.436,0,0,1-.927.666l.657.531a6.356,6.356,0,0,0,2.763-4.986h2.52a13.569,13.569,0,0,1-.459,3.861.487.487,0,0,1-.522.3,10.95,10.95,0,0,1-1.341-.1l.09.747c.468.027.99.063,1.449.063a.934.934,0,0,0,.963-.549,17.547,17.547,0,0,0,.549-4.347,2.815,2.815,0,0,1,.045-.441l-.5-.252a3.244,3.244,0,0,1-.576.045H25.046c.018-.3.036-.6.045-.927C25.1,3.439,25.118,3.124,25.145,2.917ZM30.491,6.1v.882c.279-.027.756-.045,1.251-.045h4.941c.4,0,.783.036.963.045V6.1c-.2.018-.522.045-.972.045H31.742C31.238,6.148,30.761,6.121,30.491,6.1ZM41.075,2.494A10.106,10.106,0,0,1,38.807,6.04a5.465,5.465,0,0,1,.378.648,9.725,9.725,0,0,0,.963-1.152v5.13h.639V4.555a13.37,13.37,0,0,0,.918-1.872Zm1.557,1h3.339V5.14H42.632Zm4.5,3.969V6.85h-2.52V5.734h2.025V2.89H42V5.734h1.944V6.85h-2.61v.612h2.223a6.666,6.666,0,0,1-2.484,2.3,3.3,3.3,0,0,1,.468.531,7.522,7.522,0,0,0,2.4-2.394v2.79h.666V7.876a8.289,8.289,0,0,0,2.277,2.439,3.032,3.032,0,0,1,.477-.531A7.013,7.013,0,0,1,45,7.462Zm3.753-4.68H48.428v.54h2.457Zm.315,1.2H47.951v.549H51.2Zm-.306,1.242h-2.52v.531h2.52Zm-2.52,1.755h2.52V6.445h-2.52Zm1.971,1.242V9.712h-1.4V8.218Zm.585-.549H48.356v3.006h.585v-.4H50.93Zm3.3,2.07V6.751h1.782v-.63H54.233V3.646h1.836V3.025H51.5v.621h2.088V9.739h-1.08V5.266h-.63V9.739H51.2v.639h5.013V9.739ZM2.489,24h5.34V22.572H6.161V15.108H4.853a5.54,5.54,0,0,1-2.064.756v1.092H4.4v5.616H2.489Zm9.924-2.88V19.3h2.076V21.12Zm7.656,0h-4.1V19.3h3.168V17.964H15.965V16.536h3.444v-1.38h-6.78a7.661,7.661,0,0,0,.4-.984L11.573,13.8a9.254,9.254,0,0,1-2.52,4,11.044,11.044,0,0,1,1.236.924,10.784,10.784,0,0,0,1.632-2.184h2.568v1.428h-3.5V21.12h-1.9v1.368h5.4v2.568h1.476V22.488h4.1ZM27.6,17.088l-.189.054H21.419v1.053h5.553a8.176,8.176,0,0,1-1.89,3.168,8.544,8.544,0,0,1-1.719-3.114l-1.071.306a10.9,10.9,0,0,0,1.926,3.582,10.2,10.2,0,0,1-3.384,1.638,4.207,4.207,0,0,1,.711,1.044,10.349,10.349,0,0,0,3.474-1.854,8.559,8.559,0,0,0,3.519,1.827,5.4,5.4,0,0,1,.756-1.026,8.393,8.393,0,0,1-3.393-1.62,10.45,10.45,0,0,0,2.484-4.689Zm6.237,5.742c0-.342.342-.558.855-.558a2.779,2.779,0,0,1,.72.1v.162c0,.531-.189.819-.738.819C34.2,23.352,33.839,23.2,33.839,22.83Zm2.673-5.877H35.225a3.822,3.822,0,0,1,.063.594c0,.189.009.558.009,1-.207.009-.423.009-.63.009a15,15,0,0,1-1.575-.081v1.071c.531.036,1.044.054,1.575.054.207,0,.423,0,.639-.009.009.639.045,1.3.063,1.854a4,4,0,0,0-.585-.036c-1.224,0-2,.63-2,1.539,0,.945.774,1.467,2.016,1.467,1.215,0,1.7-.612,1.755-1.476a9.44,9.44,0,0,1,1.1.909l.621-.945a5.89,5.89,0,0,0-1.746-1.161c-.036-.612-.081-1.332-.1-2.2.495-.036.963-.09,1.4-.153V18.258a12.331,12.331,0,0,1-1.4.207c.009-.4.018-.729.027-.927A5.637,5.637,0,0,1,36.512,16.953Zm-4.392.1-1.242-.108a8.586,8.586,0,0,1-.09.882,28.5,28.5,0,0,0-.369,3.753,10.571,10.571,0,0,0,.36,2.88l1.017-.081c-.009-.126-.018-.279-.018-.369a2.512,2.512,0,0,1,.045-.423c.108-.486.4-1.4.648-2.142l-.549-.45c-.135.306-.288.612-.4.927a4.254,4.254,0,0,1-.036-.585,24.025,24.025,0,0,1,.432-3.483A5.843,5.843,0,0,1,32.12,17.052ZM39.089,24h5.952V22.512h-1.92c-.42,0-1.008.048-1.452.1,1.62-1.584,2.952-3.312,2.952-4.92a2.6,2.6,0,0,0-2.8-2.736,3.565,3.565,0,0,0-2.82,1.344l.96.96a2.323,2.323,0,0,1,1.632-.912,1.268,1.268,0,0,1,1.332,1.44c0,1.368-1.428,3.036-3.84,5.2Zm10.392-2.88V19.3h2.076V21.12Zm7.656,0h-4.1V19.3H56.2V17.964H53.033V16.536h3.444v-1.38H49.7a7.66,7.66,0,0,0,.4-.984L48.641,13.8a9.254,9.254,0,0,1-2.52,4,11.044,11.044,0,0,1,1.236.924,10.784,10.784,0,0,0,1.632-2.184h2.568v1.428h-3.5V21.12h-1.9v1.368h5.4v2.568h1.476V22.488h4.1Z" transform="translate(0 2.929)"/>
    </g>
    <g id="Group_430-3" data-name="Group 430" transform="translate(215.42 4812.871)">
      <g id="Group_427-3" data-name="Group 427" transform="translate(0 0)" opacity="0.67">
        <rect id="Rectangle_174-7" data-name="Rectangle 174" width="321.703" height="32.514" fill="#fff"/>
        <path id="Polygon_7-7" data-name="Polygon 7" d="M21.008,0l7,16.257-7,16.257H7L0,16.257,7,0Z" transform="translate(304.786)" fill="#fff"/>
      </g>
      <g id="Group_429-3" data-name="Group 429" transform="translate(0 0)">
        <rect id="Rectangle_174-8" data-name="Rectangle 174" width="54.842" height="32.514" fill="#a6b7c9"/>
        <path id="Polygon_7-8" data-name="Polygon 7" d="M21.008,0l7,16.257-7,16.257H7L0,16.257,7,0Z" transform="translate(37.925)" fill="#a6b7c9"/>
      </g>
      <path id="Path_505" data-name="Path 505" d="M9.863,3.448,9.035,3.16a5.162,5.162,0,0,1-.18.666A10.069,10.069,0,0,1,7.631,6.283C6.92,5.734,5.876,5,5.1,4.5l-.468.567A28.157,28.157,0,0,1,7.172,6.886,9.992,9.992,0,0,1,3.6,9.712l.621.567A11.466,11.466,0,0,0,7.748,7.372a20.072,20.072,0,0,1,2.124,2.07l.567-.621A22.523,22.523,0,0,0,8.216,6.76,12.537,12.537,0,0,0,9.566,4.1,4.856,4.856,0,0,1,9.863,3.448ZM12.491,6.1v.882c.279-.027.756-.045,1.251-.045h4.941c.4,0,.783.036.963.045V6.1c-.2.018-.522.045-.972.045H13.742C13.238,6.148,12.761,6.121,12.491,6.1ZM25.145,2.917H24.3a5.456,5.456,0,0,1,.063.747c0,.324-.018.63-.036.918H22.742a9.42,9.42,0,0,1-1.026-.054v.765a9.6,9.6,0,0,1,1.035-.036h1.512a5.787,5.787,0,0,1-1.782,3.789,4.436,4.436,0,0,1-.927.666l.657.531a6.356,6.356,0,0,0,2.763-4.986h2.52a13.569,13.569,0,0,1-.459,3.861.487.487,0,0,1-.522.3,10.95,10.95,0,0,1-1.341-.1l.09.747c.468.027.99.063,1.449.063a.934.934,0,0,0,.963-.549,17.547,17.547,0,0,0,.549-4.347,2.815,2.815,0,0,1,.045-.441l-.5-.252a3.244,3.244,0,0,1-.576.045H25.046c.018-.3.036-.6.045-.927C25.1,3.439,25.118,3.124,25.145,2.917ZM30.491,6.1v.882c.279-.027.756-.045,1.251-.045h4.941c.4,0,.783.036.963.045V6.1c-.2.018-.522.045-.972.045H31.742C31.238,6.148,30.761,6.121,30.491,6.1ZM41.075,2.494A10.106,10.106,0,0,1,38.807,6.04a5.465,5.465,0,0,1,.378.648,9.725,9.725,0,0,0,.963-1.152v5.13h.639V4.555a13.37,13.37,0,0,0,.918-1.872Zm1.557,1h3.339V5.14H42.632Zm4.5,3.969V6.85h-2.52V5.734h2.025V2.89H42V5.734h1.944V6.85h-2.61v.612h2.223a6.666,6.666,0,0,1-2.484,2.3,3.3,3.3,0,0,1,.468.531,7.522,7.522,0,0,0,2.4-2.394v2.79h.666V7.876a8.289,8.289,0,0,0,2.277,2.439,3.032,3.032,0,0,1,.477-.531A7.013,7.013,0,0,1,45,7.462Zm3.753-4.68H48.428v.54h2.457Zm.315,1.2H47.951v.549H51.2Zm-.306,1.242h-2.52v.531h2.52Zm-2.52,1.755h2.52V6.445h-2.52Zm1.971,1.242V9.712h-1.4V8.218Zm.585-.549H48.356v3.006h.585v-.4H50.93Zm3.3,2.07V6.751h1.782v-.63H54.233V3.646h1.836V3.025H51.5v.621h2.088V9.739h-1.08V5.266h-.63V9.739H51.2v.639h5.013V9.739ZM2.489,24h5.34V22.572H6.161V15.108H4.853a5.54,5.54,0,0,1-2.064.756v1.092H4.4v5.616H2.489Zm9.924-2.88V19.3h2.076V21.12Zm7.656,0h-4.1V19.3h3.168V17.964H15.965V16.536h3.444v-1.38h-6.78a7.661,7.661,0,0,0,.4-.984L11.573,13.8a9.254,9.254,0,0,1-2.52,4,11.044,11.044,0,0,1,1.236.924,10.784,10.784,0,0,0,1.632-2.184h2.568v1.428h-3.5V21.12h-1.9v1.368h5.4v2.568h1.476V22.488h4.1ZM27.6,17.088l-.189.054H21.419v1.053h5.553a8.176,8.176,0,0,1-1.89,3.168,8.544,8.544,0,0,1-1.719-3.114l-1.071.306a10.9,10.9,0,0,0,1.926,3.582,10.2,10.2,0,0,1-3.384,1.638,4.207,4.207,0,0,1,.711,1.044,10.349,10.349,0,0,0,3.474-1.854,8.559,8.559,0,0,0,3.519,1.827,5.4,5.4,0,0,1,.756-1.026,8.393,8.393,0,0,1-3.393-1.62,10.45,10.45,0,0,0,2.484-4.689Zm6.237,5.742c0-.342.342-.558.855-.558a2.779,2.779,0,0,1,.72.1v.162c0,.531-.189.819-.738.819C34.2,23.352,33.839,23.2,33.839,22.83Zm2.673-5.877H35.225a3.822,3.822,0,0,1,.063.594c0,.189.009.558.009,1-.207.009-.423.009-.63.009a15,15,0,0,1-1.575-.081v1.071c.531.036,1.044.054,1.575.054.207,0,.423,0,.639-.009.009.639.045,1.3.063,1.854a4,4,0,0,0-.585-.036c-1.224,0-2,.63-2,1.539,0,.945.774,1.467,2.016,1.467,1.215,0,1.7-.612,1.755-1.476a9.44,9.44,0,0,1,1.1.909l.621-.945a5.89,5.89,0,0,0-1.746-1.161c-.036-.612-.081-1.332-.1-2.2.495-.036.963-.09,1.4-.153V18.258a12.331,12.331,0,0,1-1.4.207c.009-.4.018-.729.027-.927A5.637,5.637,0,0,1,36.512,16.953Zm-4.392.1-1.242-.108a8.586,8.586,0,0,1-.09.882,28.5,28.5,0,0,0-.369,3.753,10.571,10.571,0,0,0,.36,2.88l1.017-.081c-.009-.126-.018-.279-.018-.369a2.512,2.512,0,0,1,.045-.423c.108-.486.4-1.4.648-2.142l-.549-.45c-.135.306-.288.612-.4.927a4.254,4.254,0,0,1-.036-.585,24.025,24.025,0,0,1,.432-3.483A5.843,5.843,0,0,1,32.12,17.052ZM39.089,24h5.952V22.512h-1.92c-.42,0-1.008.048-1.452.1,1.62-1.584,2.952-3.312,2.952-4.92a2.6,2.6,0,0,0-2.8-2.736,3.565,3.565,0,0,0-2.82,1.344l.96.96a2.323,2.323,0,0,1,1.632-.912,1.268,1.268,0,0,1,1.332,1.44c0,1.368-1.428,3.036-3.84,5.2Zm10.392-2.88V19.3h2.076V21.12Zm7.656,0h-4.1V19.3H56.2V17.964H53.033V16.536h3.444v-1.38H49.7a7.66,7.66,0,0,0,.4-.984L48.641,13.8a9.254,9.254,0,0,1-2.52,4,11.044,11.044,0,0,1,1.236.924,10.784,10.784,0,0,0,1.632-2.184h2.568v1.428h-3.5V21.12h-1.9v1.368h5.4v2.568h1.476V22.488h4.1Z" transform="translate(0 3.571)"/>
      <path id="Path_504" data-name="Path 504" d="M22.116,5.18l-1.788-.624a7.484,7.484,0,0,1-.288,1.1,12.444,12.444,0,0,1-1.332,2.856c-.972-.72-2.232-1.584-3.192-2.172L14.5,7.568a32.993,32.993,0,0,1,3.24,2.28,13.205,13.205,0,0,1-4.56,3.54L14.52,14.6a15,15,0,0,0,4.464-3.708,24.163,24.163,0,0,1,2.664,2.652l1.236-1.368A31.421,31.421,0,0,0,20,9.524,18.123,18.123,0,0,0,21.612,6.26C21.732,5.984,21.96,5.456,22.116,5.18ZM25.1,8.444v1.884c.444-.036,1.248-.06,1.932-.06H33.48c.5,0,1.116.048,1.4.06V8.444c-.312.024-.84.072-1.4.072H27.036C26.412,8.516,25.536,8.48,25.1,8.444Zm17.28-4.068H40.62a8.881,8.881,0,0,1,.084,1.1c0,.36-.012.708-.024,1.044H38.964c-.456,0-1.08-.036-1.584-.084V8.012c.516-.048,1.176-.048,1.584-.048h1.584a7.057,7.057,0,0,1-1.98,4.272A7.151,7.151,0,0,1,37,13.412l1.392,1.128A8.714,8.714,0,0,0,42.12,7.964h2.7a16.423,16.423,0,0,1-.5,4.452.638.638,0,0,1-.684.42,9.932,9.932,0,0,1-1.68-.168l.192,1.608c.576.048,1.3.1,1.98.1a1.477,1.477,0,0,0,1.548-.924c.516-1.224.66-4.572.708-5.868a4.906,4.906,0,0,1,.084-.636l-1.044-.5a5.578,5.578,0,0,1-.9.084H42.264c.024-.348.036-.708.048-1.08C42.324,5.156,42.348,4.652,42.384,4.376ZM49.1,8.444v1.884c.444-.036,1.248-.06,1.932-.06H57.48c.5,0,1.116.048,1.4.06V8.444c-.312.024-.84.072-1.4.072H51.036C50.412,8.516,49.536,8.48,49.1,8.444ZM63.072,3.86A12.655,12.655,0,0,1,60.24,8.348a9.539,9.539,0,0,1,.768,1.464,13.675,13.675,0,0,0,.912-1.068V15.02h1.356V6.656a20.064,20.064,0,0,0,1.116-2.364Zm2.916,1.752H69.5V7.22H65.988Zm5.532,5.244V9.56h-3.1V8.48h2.508V4.352h-6.3V8.48h2.352V9.56H63.84v1.3H66.3a8.621,8.621,0,0,1-2.892,2.592,5.893,5.893,0,0,1,.984,1.14,9.623,9.623,0,0,0,2.592-2.58v3.036h1.44v-3.1a9.909,9.909,0,0,0,2.436,2.664,6.075,6.075,0,0,1,1.008-1.14,9.031,9.031,0,0,1-2.748-2.616Zm4.9-6.648H73.032v1.08h3.384Zm-1.14,7.86v1.368H74.124V12.068ZM76.5,10.94H72.924v4.092h1.2v-.468H76.5Zm-3.54-.612h3.456V9.248H72.96ZM76.416,7.58H72.96V8.648h3.456ZM72.4,6.992h4.452V5.864H72.4Zm8.868,6.3V9.98H83.34V8.636H81.264V5.8H83.4V4.448H77.22V5.8h2.64v7.488h-.912V7.6H77.616v5.688h-.732v1.332h6.744V13.292Zm3.588-2.436a8.725,8.725,0,0,1-.636,2.784,7.053,7.053,0,0,1,1.092.516,11.1,11.1,0,0,0,.72-3.1Zm2.6.216a14.2,14.2,0,0,1,.7,2.232l1.056-.384a13.23,13.23,0,0,0-.744-2.16Zm1.956,2.172a20.007,20.007,0,0,1,4.512,1.908l.828-1.116a23.709,23.709,0,0,0-4.512-1.8Zm1.3-2.136a10.847,10.847,0,0,1,2.46,1.4l.828-1a12.308,12.308,0,0,0-2.484-1.308ZM93.216,6.2a7.437,7.437,0,0,1-1.044,1.356A8.36,8.36,0,0,1,91.128,6.2Zm.972-1.272-.216.048H91.836c.168-.3.312-.612.444-.912l-1.392-.228a8.186,8.186,0,0,1-2.6,3.444,3.993,3.993,0,0,1,.984.924,9.7,9.7,0,0,0,1.068-1.032,9.873,9.873,0,0,0,.912,1.2,9.687,9.687,0,0,1-2.22,1.272,12,12,0,0,0-.876-1.932l-.948.4c.144.264.288.564.42.864l-1.152.048c.756-.972,1.584-2.184,2.244-3.228l-1.164-.54A21.763,21.763,0,0,1,86.484,7.2c-.12-.144-.252-.312-.408-.48.432-.672.912-1.6,1.344-2.412l-1.236-.456a15.212,15.212,0,0,1-.876,2.088c-.1-.084-.192-.168-.276-.24l-.684.972A11.776,11.776,0,0,1,85.764,8.3c-.192.276-.384.54-.564.768l-.864.036.12,1.236,1.74-.108v4.824h1.236V10.148l.612-.048c.06.216.108.42.144.588l.876-.4a3.631,3.631,0,0,1,.42.648,10.882,10.882,0,0,0,2.7-1.632A9.328,9.328,0,0,0,94.908,11a5.93,5.93,0,0,1,.9-1.164A8.891,8.891,0,0,1,93.144,8.42a9.411,9.411,0,0,0,1.932-3Zm11.58-.348-.348.1H97.236v1.4h6.96a13.776,13.776,0,0,1-2.076,1.836h-.8v5.436c0,.2-.084.264-.348.264s-1.26.012-2.1-.036a6.053,6.053,0,0,1,.564,1.464,8.432,8.432,0,0,0,2.6-.24c.588-.216.792-.6.792-1.428V9.116a18.386,18.386,0,0,0,4.056-3.708Zm4.92-.732a10.027,10.027,0,0,1-2.352,2.376,10.919,10.919,0,0,1,.744,1.044,14.753,14.753,0,0,0,2.868-2.928ZM110.9,6.4a10.236,10.236,0,0,1-2.676,3.084,8.668,8.668,0,0,1,.744,1.332,10.624,10.624,0,0,0,.936-.888v5.136h1.332V8.324a16.079,16.079,0,0,0,.912-1.452Zm3.5,4.7h2.328a5.343,5.343,0,0,1-1.152,1.176A5.479,5.479,0,0,1,114.4,11.12Zm3.3-1.116-.228.048h-2.172c.168-.228.324-.468.468-.708.78-.024,1.6-.048,2.388-.084a6.927,6.927,0,0,1,.4.792l1.2-.672a11.832,11.832,0,0,0-1.824-2.628l-1.1.612c.2.24.408.492.6.768l-2.148.036a38.349,38.349,0,0,0,2.94-2.784l-1.26-.7A21.532,21.532,0,0,1,115.032,6.8a9.022,9.022,0,0,0-.684-.6c.5-.5,1.092-1.152,1.608-1.764L114.72,3.8a13.091,13.091,0,0,1-1.284,1.728c-.228-.156-.456-.3-.66-.432l-.852.924a13.651,13.651,0,0,1,2.112,1.7c-.168.156-.348.312-.516.456-.684.012-1.308.012-1.848.012l.12,1.26,2.4-.072a7.746,7.746,0,0,1-2.676,2.22,8.317,8.317,0,0,1,.924,1.056,11.607,11.607,0,0,0,1.08-.744,6.537,6.537,0,0,0,.948,1.044,10.375,10.375,0,0,1-2.952.936A4.641,4.641,0,0,1,112.2,15.1a11.728,11.728,0,0,0,3.4-1.284,9.72,9.72,0,0,0,3.312,1.26,5.335,5.335,0,0,1,.852-1.224,10.768,10.768,0,0,1-2.988-.876,6.555,6.555,0,0,0,1.824-2.592Zm7.98,2.448c0-.456.456-.744,1.14-.744a3.7,3.7,0,0,1,.96.132v.216c0,.708-.252,1.092-.984,1.092C126.168,13.136,125.688,12.932,125.688,12.44ZM129.252,4.6h-1.716a5.1,5.1,0,0,1,.084.792c0,.252.012.744.012,1.332-.276.012-.564.012-.84.012a20,20,0,0,1-2.1-.108V8.06c.708.048,1.392.072,2.1.072.276,0,.564,0,.852-.012.012.852.06,1.728.084,2.472a5.338,5.338,0,0,0-.78-.048c-1.632,0-2.664.84-2.664,2.052,0,1.26,1.032,1.956,2.688,1.956,1.62,0,2.268-.816,2.34-1.968a12.586,12.586,0,0,1,1.464,1.212l.828-1.26a7.854,7.854,0,0,0-2.328-1.548c-.048-.816-.108-1.776-.132-2.94.66-.048,1.284-.12,1.86-.2v-1.5a16.442,16.442,0,0,1-1.86.276c.012-.528.024-.972.036-1.236A7.518,7.518,0,0,1,129.252,4.6Zm-5.856.132-1.656-.144a11.448,11.448,0,0,1-.12,1.176,38,38,0,0,0-.492,5,14.1,14.1,0,0,0,.48,3.84l1.356-.108c-.012-.168-.024-.372-.024-.492a3.349,3.349,0,0,1,.06-.564c.144-.648.528-1.872.864-2.856l-.732-.6c-.18.408-.384.816-.54,1.236a5.672,5.672,0,0,1-.048-.78A32.033,32.033,0,0,1,123.12,5.8,7.791,7.791,0,0,1,123.4,4.736ZM140.6,9.584h-4.332V8.816H140.6Zm-4.332,1.968v-.78H140.6v.78ZM143.34,6.62V5.276h-5.856c.144-.372.264-.744.384-1.116l-1.476-.336a11.971,11.971,0,0,1-.468,1.452H132.7V6.62h2.628a9.319,9.319,0,0,1-2.988,3.5,8.043,8.043,0,0,1,.936,1.092,8.8,8.8,0,0,0,1.584-1.4v5.22h1.416V12.74H140.6v.72c0,.168-.072.228-.276.24s-.9,0-1.512-.036a5.922,5.922,0,0,1,.432,1.38,5.285,5.285,0,0,0,2.124-.24c.492-.216.624-.6.624-1.308V7.568H136.44a10.034,10.034,0,0,0,.48-.948Zm10.824-.228v.456H148.9V6.392Zm-1.188,1.68h-2.928v-.5h2.928Zm-5.292-.66h1.128v1.38h5.46V7.412h1.164v-2h-1.284c.24-.312.528-.684.816-1.092l-1.356-.372a9.4,9.4,0,0,1-.66,1.356l.312.108h-.984V3.92h-1.392V5.408H149.9l.384-.144a6.321,6.321,0,0,0-.732-1.308l-1.08.372a5.862,5.862,0,0,1,.576,1.08h-1.3c.168-.372.324-.744.468-1.1l-1.356-.432a12.754,12.754,0,0,1-2.724,4.5,9.038,9.038,0,0,1,.756,1.476,11.028,11.028,0,0,0,.816-.96V15.02h1.356V6.776c.216-.4.42-.8.612-1.2Zm1.884,4.644H153.5v.408h-3.936Zm0-1.068H153.5v.42h-3.936Zm0-1.044H153.5v.408h-3.936Zm5.292,3.288V9.188h-6.576v4.044h1.572a13.554,13.554,0,0,1-2.556.876,4.824,4.824,0,0,1,.792.936A10.8,10.8,0,0,0,151.1,13.82l-.84-.588h2.364l-.7.684a15.1,15.1,0,0,1,2.688,1.152l1.1-.84a18.505,18.505,0,0,0-2.544-1Zm3.672-9.36A13.59,13.59,0,0,1,156.156,8.5a11.219,11.219,0,0,1,.684,1.536,9.591,9.591,0,0,0,.756-1.008v6h1.356v-8.5c.336-.744.636-1.524.888-2.268Zm2.328,3.312a6.856,6.856,0,0,1,.708.576,6.612,6.612,0,0,0,.7-.72,7.953,7.953,0,0,0,.888.924,9.117,9.117,0,0,1-2.292.888Zm4.212-1a4.676,4.676,0,0,1-.96,1.1,5.642,5.642,0,0,1-1.152-1.1Zm2.388,0V5.036h-3.9a8.446,8.446,0,0,0,.384-.9l-1.284-.3a7.3,7.3,0,0,1-1.8,2.8V5.36h-1.236v7.68h1.236V9.128a5.238,5.238,0,0,1,.624.864,10.347,10.347,0,0,0,2.736-1.236,9.059,9.059,0,0,0,2.856,1.14,5.751,5.751,0,0,1,.768-1.14,9.308,9.308,0,0,1-2.616-.8,6.506,6.506,0,0,0,1.332-1.764Zm-2,4.248a8.237,8.237,0,0,1-3.852,1.7,4.357,4.357,0,0,1,.7.888,8.741,8.741,0,0,0,4.176-2.172ZM164.28,9.344a7.2,7.2,0,0,1-2.76,1.3,3.706,3.706,0,0,1,.756.816,7.763,7.763,0,0,0,3.048-1.68Zm2.04,2.448c-1.032,1.128-3.108,1.776-5.316,2.076a4.974,4.974,0,0,1,.72,1.128c2.448-.444,4.572-1.248,5.82-2.712Zm5.988-.492c-.384.132-.78.252-1.176.372v-2.4h1.08V7.964h-1.08V5.852h1.284V4.52h-3.96V5.852h1.32V7.964h-1.212V9.272h1.212v2.82c-.552.156-1.044.288-1.464.4l.324,1.452c1.152-.372,2.592-.828,3.912-1.3Zm1.848-3.624h1.236V8.708h-1.236Zm0-2.124h1.236V6.56h-1.236ZM177.78,6.56h-1.188V5.552h1.188Zm0,2.148h-1.188V7.676h1.188Zm-1.056,4.668v-1.14h2.544V10.952h-2.544V9.92h2.412V4.34h-6.264V9.92h2.4v1.032h-2.484v1.284h2.484v1.14H171.96v1.3h7.716v-1.3Z" transform="translate(96.767 6.257)"/>
    </g>
    <path id="Path_493" data-name="Path 493" d="M0,131.8V0" transform="translate(215.42 4805.352)" fill="none" stroke="#f4f4f4" stroke-width="1"/>
    <line id="Line_154" data-name="Line 154" x1="332.935" transform="translate(215.42 4936.627)" fill="none" stroke="#f4f4f4" stroke-width="1"/>
    <path id="Path_503" data-name="Path 503" d="M1.557,6.8c.081-.405.153-.846.225-1.269H4.491V2.845H.9v.63H3.834V4.9H1.206c-.126.909-.342,2.1-.522,2.844l.657.108c.027-.135.063-.279.1-.432H3.807c-.117,1.62-.27,2.313-.486,2.5a.523.523,0,0,1-.4.1c-.225,0-.819-.009-1.413-.063a1.516,1.516,0,0,1,.234.684,13.1,13.1,0,0,0,1.422.018.868.868,0,0,0,.711-.288c.324-.306.477-1.143.639-3.267.009-.09.018-.306.018-.306Zm5.391-4.23v8.118h.666V2.566Zm4.806.945a5.727,5.727,0,0,0-1.5-.936l-.369.486a6.268,6.268,0,0,1,1.476.981ZM11.3,5.833a6.74,6.74,0,0,0-1.548-.891l-.378.5a6.562,6.562,0,0,1,1.539.945Zm-.387,1.44a25.037,25.037,0,0,1-1.413,2.9l.6.4c.441-.846.963-1.953,1.35-2.907Zm5-1.809v.855H14.247V5.464Zm-3.258,0h1.008V6.85h2.862V5.464h1.062V4.915H16.524v-.72h-.612v.72H14.247v-.72h-.585v.72H12.654V3.952h4.869V3.376h-2.34v-.9h-.666v.9h-2.5V5.788a8.33,8.33,0,0,1-.981,4.554,2.267,2.267,0,0,1,.558.324,9.225,9.225,0,0,0,1.062-4.878Zm3.591,2.448a3.71,3.71,0,0,1-1.17,1.2,3.509,3.509,0,0,1-1.053-1.2Zm.468-.576-.117.027H12.888v.549h.954l-.423.126a4.549,4.549,0,0,0,1.116,1.395,7.462,7.462,0,0,1-2.1.693,2.207,2.207,0,0,1,.324.54,8.247,8.247,0,0,0,2.3-.846,6.621,6.621,0,0,0,2.223.855,2.224,2.224,0,0,1,.405-.549,6.587,6.587,0,0,1-2.07-.675,4.419,4.419,0,0,0,1.5-1.935ZM20.3,9.343V6.832h4.464V9.343Zm4.464-5.6v2.43H20.3V3.745ZM19.62,3.088v7.5H20.3V10h4.464v.549h.7V3.088ZM2.7,17.51H1.359V16.367H2.7Zm0,1.674H1.359V18.032H2.7Zm0,1.7H1.359v-1.17H2.7Zm.6-5.076H.774v5.625H3.3ZM1.215,21.623a3.948,3.948,0,0,1-.9,1.71,4.528,4.528,0,0,1,.5.36,5.389,5.389,0,0,0,1-1.935Zm1.125.216a7.5,7.5,0,0,1,.72,1.413L3.591,23a7.572,7.572,0,0,0-.747-1.386Zm3.969-.144V21.02H7.461v.675ZM4.617,21.02h1.1v.675h-1.1Zm1.1-1.107v.639h-1.1v-.639Zm1.746,0v.639H6.309v-.639ZM5.355,17.789H6.687v.594H5.355Zm0-1.035H6.687v.54H5.355Zm3.258,4.941h-.54V19.409H6.309v-.522H8.577v-.5H7.29v-.594h.954v-.495H7.29v-.54h1.1v-.5H7.29v-.774h-.6v.774H5.355v-.774H4.761v.774H3.672v.5H4.761v.54H3.906v.495h.855v.594h-1.3v.5h2.25v.522h-1.7v2.286H3.429v.513h.585v1.485h.6V22.208H7.461v.783c0,.117-.045.144-.153.153-.126,0-.558,0-1.026-.009a2.149,2.149,0,0,1,.189.54,4.656,4.656,0,0,0,1.3-.09c.225-.1.3-.27.3-.594v-.783h.54Zm2.457-5.679v.666h2.214c.018.342.054.738.117,1.152l-.4-.063c-.549,2.52-1.656,4.329-3.645,5.364a4.38,4.38,0,0,1,.6.531,7.956,7.956,0,0,0,3.591-5.022,7.767,7.767,0,0,0,3.573,5.013,3.18,3.18,0,0,1,.54-.558,7.7,7.7,0,0,1-3.735-7.083ZM20.3,22.343V19.832h4.464v2.511Zm4.464-5.6v2.43H20.3v-2.43Zm-5.139-.657v7.5H20.3V23h4.464v.549h.7V16.088Z" transform="translate(201.125 4778.934)" fill="#fff"/>
  </g>
</svg>
