<svg xmlns="http://www.w3.org/2000/svg" width="338.082" height="186.204" viewBox="0 0 338.082 186.204">
  <g id="Group_448" data-name="Group 448" transform="translate(20699 -7118)">
    <g id="Group_367" data-name="Group 367" transform="translate(150.938 -702)">
      <g id="Group_208" data-name="Group 208" transform="translate(-20783 7820)">
        <g id="Union_6" data-name="Union 6" transform="translate(-5.938)" fill="none">
          <path d="M20.223,55.534a10.031,10.031,0,0,1-.259-2.27V10a10,10,0,0,1,10-10h205.85a10,10,0,0,1,10,10V53.264a10,10,0,0,1-10,10H29.965a9.954,9.954,0,0,1-5.184-1.446L6.8,69.674Z" stroke="none"/>
          <path d="M 10.92238998413086 66.78005981445312 L 24.85608673095703 60.69304275512695 L 25.29977416992188 60.96248245239258 C 26.70152473449707 61.81376266479492 28.31461715698242 62.26369857788086 29.96461868286133 62.26369857788086 L 235.8143920898438 62.26369857788086 C 240.7769622802734 62.26369857788086 244.8143005371094 58.22635650634766 244.8143005371094 53.2637939453125 L 244.8143005371094 9.999887466430664 C 244.8143005371094 5.037325382232666 240.7769622802734 1.000012636184692 235.8143920898438 1.000012636184692 L 29.96461868286133 1.000012636184692 C 25.00155639648438 1.000012636184692 20.96380615234375 5.037325382232666 20.96380615234375 9.999887466430664 L 20.96380615234375 53.2637939453125 C 20.96380615234375 53.95423126220703 21.04214859008789 54.64188766479492 21.1966495513916 55.30763626098633 L 21.31836891174316 55.83198165893555 L 10.92238998413086 66.78005981445312 M 6.794992923736572 69.67438507080078 L 20.22255516052246 55.53372955322266 C 20.05330467224121 54.80448150634766 19.96380615234375 54.04457473754883 19.96380615234375 53.2637939453125 L 19.96380615234375 9.999887466430664 C 19.96380615234375 4.477512836456299 24.44130516052246 1.266479466721648e-05 29.96461868286133 1.266479466721648e-05 L 235.8143920898438 1.266479466721648e-05 C 241.3368072509766 1.266479466721648e-05 245.8143005371094 4.477512836456299 245.8143005371094 9.999887466430664 L 245.8143005371094 53.2637939453125 C 245.8143005371094 58.78710556030273 241.3368072509766 63.26369857788086 235.8143920898438 63.26369857788086 L 29.96461868286133 63.26369857788086 C 28.06664848327637 63.26369857788086 26.29243087768555 62.73526382446289 24.78071212768555 61.81723022460938 L 6.794992923736572 69.67438507080078 Z" stroke="none" fill="#fff"/>
        </g>
        <path id="Path_507" data-name="Path 507" d="M1.128,10.76a8.624,8.624,0,0,1-.78,2.856,3.117,3.117,0,0,1,.7.336A10.561,10.561,0,0,0,1.9,10.9Zm2.472.132a11.767,11.767,0,0,1,.732,2.2l.684-.228a11.125,11.125,0,0,0-.768-2.184ZM3.288,8.084a9.149,9.149,0,0,1,.564,1.08l-1.776.072A41.174,41.174,0,0,0,4.464,5.66l-.756-.336A24.44,24.44,0,0,1,2.5,7.472a9.637,9.637,0,0,0-.7-.78c.444-.672.948-1.62,1.356-2.412l-.78-.312A15.175,15.175,0,0,1,1.3,6.2c-.12-.108-.228-.216-.348-.312l-.456.588A11.177,11.177,0,0,1,2.04,8.168c-.264.4-.54.78-.792,1.1l-.792.036.072.792c.552-.036,1.2-.072,1.884-.108v4.944H3.2V9.944l.948-.06a5.584,5.584,0,0,1,.216.7l.672-.3A9.5,9.5,0,0,0,3.912,7.832Zm6.54,2.856v2.484H6.384V10.94ZM5.568,14.9h.816v-.684H9.828v.636h.852V10.136H5.568Zm.5-7.02v.828h3.972V7.88Zm1.416-3.8a12.021,12.021,0,0,1-3.2,3.888,3.292,3.292,0,0,1,.528.756A13.627,13.627,0,0,0,7.968,4.988a16.981,16.981,0,0,0,3.216,3.66,6.481,6.481,0,0,1,.552-.816A14.536,14.536,0,0,1,8.364,4.076Zm14.1,1.884H17.556V5.048h4.032Zm0,1.572H17.556V6.6h4.032Zm.864-3.168H16.716V8.2h5.736Zm-6.8.984a7.728,7.728,0,0,0-2.04-1.284l-.5.648a8.5,8.5,0,0,1,2.028,1.344Zm-.588,3.1A8.569,8.569,0,0,0,13,7.256l-.5.66a8.75,8.75,0,0,1,2.052,1.26Zm-.36,1.932A34.064,34.064,0,0,1,12.756,14.2l.792.552c.612-1.116,1.308-2.592,1.836-3.852Zm8.784-.684V8.948H15.6v.744h1.692a7.6,7.6,0,0,1-2.184,2.352,4.122,4.122,0,0,1,.636.552,8.951,8.951,0,0,0,1.38-1.332h1.164A8.193,8.193,0,0,1,15.744,14a4.859,4.859,0,0,1,.624.576,10.019,10.019,0,0,0,2.808-3.312h1.188a7.062,7.062,0,0,1-2.2,3.132,6.127,6.127,0,0,1,.672.5,8.737,8.737,0,0,0,2.352-3.636h1c-.144,1.824-.3,2.544-.492,2.748-.1.12-.192.132-.372.132a9.152,9.152,0,0,1-1-.048,1.941,1.941,0,0,1,.216.768,7.834,7.834,0,0,0,1.176.012.963.963,0,0,0,.684-.312c.3-.348.48-1.26.648-3.648.024-.132.036-.372.036-.372H17.676a8.943,8.943,0,0,0,.516-.852ZM33.72,7.052H31.476V5.216H33.72Zm.84-2.568H30.672V7.772H34.56Zm-3.216,9.24V11.816h2.184v1.908Zm-2.736,0H26.46V11.816h2.148Zm-.1-6.672h-2.22V5.216h2.22Zm6.84,2.436v-.8h-5.6a6.809,6.809,0,0,0,.54-.96l-.864-.276-.072.156V4.484H25.488V7.772h3.78a5.051,5.051,0,0,1-.612.912H24.672v.8h3.2a10.176,10.176,0,0,1-3.5,1.884,3.655,3.655,0,0,1,.552.672,7.947,7.947,0,0,0,.744-.288v3.18h.792v-.444h2.148V14.9h.828V11.06H27.1a8.74,8.74,0,0,0,2-1.572h1.812a7.43,7.43,0,0,0,1.932,1.572H30.552v3.876h.792v-.444h2.184V14.9h.828V11.78c.252.1.516.18.768.252a4.029,4.029,0,0,1,.564-.72,8.63,8.63,0,0,1-3.66-1.824Zm6.168-4.98-.984-.084a6.147,6.147,0,0,1-.3,1.5c-.264.012-.54.012-.792.012A17.564,17.564,0,0,1,37.416,5.8v.9c.66.048,1.452.072,1.968.072h.528a12.659,12.659,0,0,1-2.772,3.672l.816.6A15.852,15.852,0,0,1,39.048,9.8a3.159,3.159,0,0,1,2.064-.876,1,1,0,0,1,1.092.744c-1.4.732-2.832,1.62-2.832,3.036,0,1.464,1.38,1.836,3.1,1.836a28.19,28.19,0,0,0,3.288-.216l.024-.96a21.368,21.368,0,0,1-3.276.288c-1.236,0-2.172-.144-2.172-1.08,0-.792.78-1.428,1.9-2.016,0,.636-.012,1.416-.036,1.872h.924c-.012-.588-.024-1.608-.036-2.3.912-.432,1.764-.78,2.436-1.032a10.449,10.449,0,0,1,1.068-.384l-.4-.9c-.336.18-.624.312-.984.468-.624.288-1.356.576-2.172.972a1.549,1.549,0,0,0-1.608-1.08,3.436,3.436,0,0,0-1.668.444,9.527,9.527,0,0,0,1.08-1.86,34.71,34.71,0,0,0,3.984-.336l.012-.888a29.512,29.512,0,0,1-3.66.372A12.25,12.25,0,0,0,41.52,4.508Zm9.852.852a7.2,7.2,0,0,0-1.824-1.272l-.528.636a7.448,7.448,0,0,1,1.812,1.32Zm-.456,3.084a8.3,8.3,0,0,0-1.9-1.188l-.5.648a8.062,8.062,0,0,1,1.872,1.26ZM50.4,10.5a35.386,35.386,0,0,1-1.656,3.8l.8.48c.516-1.1,1.116-2.568,1.56-3.816Zm2.748.936v-.756h2.6V9.932H53.8V9.02h1.092a4.74,4.74,0,0,1,.6.612,8.073,8.073,0,0,0,.564-1.116,15.062,15.062,0,0,0,.888,3.372,6.117,6.117,0,0,1-2.064,2.448,8.584,8.584,0,0,0,.3-2.568c.012-.12.012-.336.012-.336ZM52.368,7.4H54.48v.96H52.368Zm0-1.56H54.48v.936H52.368Zm5.748,1.236a17.833,17.833,0,0,1-.78,3.876,16.818,16.818,0,0,1-.84-3.744l.036-.132Zm1.392,0V6.248h-2.76c.156-.7.276-1.416.384-2.16l-.852-.132a15.526,15.526,0,0,1-1.032,4.32V5.168h-1.62c.132-.336.264-.708.408-1.08L53.1,3.956a9.694,9.694,0,0,1-.324,1.212h-1.14V9.02h1.332v.912H51.084v.744h1.308v.432a3.833,3.833,0,0,1-1.692,3.36,4.341,4.341,0,0,1,.612.516,4.185,4.185,0,0,0,1.764-2.82h1.3a4.573,4.573,0,0,1-.252,1.812c-.06.084-.156.1-.312.1a8.9,8.9,0,0,1-.972-.048,1.728,1.728,0,0,1,.216.732,8.663,8.663,0,0,0,1.128,0,.807.807,0,0,0,.612-.288.261.261,0,0,0,.06-.1,3.555,3.555,0,0,1,.612.576,7.059,7.059,0,0,0,1.9-2.148,6.6,6.6,0,0,0,1.7,2.1,5.481,5.481,0,0,1,.564-.7,6.1,6.1,0,0,1-1.848-2.232,16.41,16.41,0,0,0,1.152-4.9Zm2.46-1.02h8.1V7.784h.924V5.228h-4.56V3.956h-.924V5.228h-4.44V7.784h.9ZM68.1,9.368a5.5,5.5,0,0,1-1.668,2.808c-.936-.348-1.884-.672-2.772-.936.324-.576.672-1.224,1.008-1.872Zm3.192,0v-.84H65.1c.3-.6.6-1.188.852-1.728l-.912-.2c-.276.588-.612,1.248-.948,1.932H60.72v.84h2.928c-.552,1.056-1.128,2.088-1.584,2.844l.912.24c.1-.156.192-.324.3-.5.756.228,1.56.516,2.352.828A11.826,11.826,0,0,1,61,14.132a3.632,3.632,0,0,1,.54.8,11.761,11.761,0,0,0,5.052-1.776,21.487,21.487,0,0,1,3.48,1.776l.648-.744a23.286,23.286,0,0,0-3.372-1.656A6.9,6.9,0,0,0,69.12,9.368Zm3.78-5.376a13.259,13.259,0,0,1-2.8,4.668,6.913,6.913,0,0,1,.492.84,12.3,12.3,0,0,0,1.116-1.392V14.9h.852V6.728a19.388,19.388,0,0,0,1.152-2.484Zm5.16,3.936H78.864V5.972h1.368Zm2.172,5.22H81.012V8.732H82.4ZM76.752,8.732h1.332v4.416H76.752Zm3.48,0v4.416H78.864V8.732Zm3.132-2.76v-.8H75.78v.8h2.244V7.928H75.936V14.72h.816v-.78H82.4v.708h.864V7.928H81.084V5.972Zm6.78,4.572A11.189,11.189,0,0,0,92.1,9.188a8.719,8.719,0,0,0,2.016,1.356Zm.228,3.072v-2.3H93.72v2.3Zm.516-7.6H93.5a7.492,7.492,0,0,1-1.416,2.04,7.907,7.907,0,0,1-1.344-1.824Zm3.18-.816-.156.036H91.344c.18-.348.348-.7.492-1.056l-.864-.24a9.113,9.113,0,0,1-2.124,3.24v-.66H87.3V3.956h-.852V6.524H84.66v.828h1.692a12.988,12.988,0,0,1-1.968,4.524,4.045,4.045,0,0,1,.468.792,12.737,12.737,0,0,0,1.6-3.432V14.9H87.3V8.912c.372.516.792,1.152.984,1.5l.528-.7c-.228-.288-1.164-1.44-1.512-1.824v-.54h1.368c-.1.084-.2.168-.3.252a4.918,4.918,0,0,1,.708.6,9.285,9.285,0,0,0,1.176-1.272A9.214,9.214,0,0,0,91.5,8.612a9.93,9.93,0,0,1-3.4,1.9,2.514,2.514,0,0,1,.5.72,9.3,9.3,0,0,0,.948-.4v4.092h.816V14.4H93.72v.48h.84V10.748c.18.072.372.144.564.216a3.424,3.424,0,0,1,.552-.744,8.493,8.493,0,0,1-2.988-1.608A8.467,8.467,0,0,0,94.62,5.468Zm2.88.9.108,1.044c1.3-.276,4.356-.564,5.64-.708a4.874,4.874,0,0,0-2.244,4.056c0,2.676,2.532,3.864,4.752,3.948l.348-1c-1.956-.072-4.14-.816-4.14-3.156a4.224,4.224,0,0,1,2.748-3.8,10.051,10.051,0,0,1,2.352-.192v-.96c-.8.036-1.932.108-3.24.216-2.208.18-4.476.408-5.256.492C97.788,6.068,97.4,6.092,96.948,6.1Zm7.836,1.668-.612.264a11.14,11.14,0,0,1,.984,1.692l.612-.288A14.243,14.243,0,0,0,104.784,7.772Zm1.308-.5-.588.276a11.122,11.122,0,0,1,1.008,1.68l.624-.3A15.849,15.849,0,0,0,106.092,7.268ZM111.6,6.68h-1.788V5.156H111.6Zm0,2.232h-1.788V7.376H111.6Zm0,2.268h-1.788V9.62H111.6Zm.8-6.768h-3.372v7.5H112.4Zm-2.784,7.752a5.263,5.263,0,0,1-1.2,2.28,6.038,6.038,0,0,1,.672.48,7.186,7.186,0,0,0,1.332-2.58Zm1.5.288a9.995,9.995,0,0,1,.96,1.884l.708-.336a10.1,10.1,0,0,0-1-1.848Zm5.292-.192v-.9h1.536v.9Zm-2.256-.9h1.464v.9h-1.464Zm1.464-1.476v.852h-1.464V9.884Zm2.328,0v.852h-1.536V9.884ZM115.14,7.052h1.776v.792H115.14Zm0-1.38h1.776v.72H115.14Zm4.344,6.588h-.72V9.212h-2.352v-.7h3.024V7.844H117.72V7.052h1.272v-.66H117.72v-.72h1.464V5H117.72V3.968h-.8V5H115.14V3.968h-.792V5H112.9v.672h1.452v.72h-1.14v.66h1.14v.792H112.62v.672h3v.7h-2.268V12.26h-.78v.684h.78v1.98h.8v-1.98h3.792v1.044c0,.156-.06.192-.2.2-.168,0-.744,0-1.368-.012a2.865,2.865,0,0,1,.252.72,6.207,6.207,0,0,0,1.74-.12c.3-.132.4-.36.4-.792V12.944h.72Zm3.276-7.572v.888h2.952c.024.456.072.984.156,1.536l-.528-.084c-.732,3.36-2.208,5.772-4.86,7.152a5.84,5.84,0,0,1,.8.708,10.608,10.608,0,0,0,4.788-6.7,10.356,10.356,0,0,0,4.764,6.684,4.241,4.241,0,0,1,.72-.744,10.271,10.271,0,0,1-4.98-9.444ZM132.948,6.1l.108,1.044c1.3-.276,4.356-.564,5.64-.708a4.874,4.874,0,0,0-2.244,4.056c0,2.676,2.532,3.864,4.752,3.948l.348-1c-1.956-.072-4.14-.816-4.14-3.156a4.224,4.224,0,0,1,2.748-3.8,10.051,10.051,0,0,1,2.352-.192v-.96c-.8.036-1.932.108-3.24.216-2.208.18-4.476.408-5.256.492C133.788,6.068,133.4,6.092,132.948,6.1Zm7.836,1.668-.612.264a11.14,11.14,0,0,1,.984,1.692l.612-.288A14.243,14.243,0,0,0,140.784,7.772Zm1.308-.5-.588.276a11.121,11.121,0,0,1,1.008,1.68l.624-.3A15.847,15.847,0,0,0,142.092,7.268Zm7.932-1.644a2.8,2.8,0,0,0,.084.3,24.043,24.043,0,0,1-3.96-.144l.06.876a28.754,28.754,0,0,0,4.128.084q.144.432.324.936c.072.2.156.408.24.624a26.9,26.9,0,0,1-4.98-.06l.048.9a34.917,34.917,0,0,0,5.28-.024,12.694,12.694,0,0,0,.936,1.728c-.384-.048-1.164-.132-1.8-.2l-.084.732a22.234,22.234,0,0,1,2.628.384l.492-.732a3.605,3.605,0,0,1-.444-.516,11.92,11.92,0,0,1-.84-1.488,18.711,18.711,0,0,0,2.172-.432l-.144-.9a13.258,13.258,0,0,1-2.4.516c-.1-.24-.192-.492-.276-.72-.084-.252-.18-.528-.264-.828a17.473,17.473,0,0,0,2.364-.48l-.132-.864a13.353,13.353,0,0,1-2.46.54,9.125,9.125,0,0,1-.288-1.428l-1.02.132C149.808,4.892,149.928,5.264,150.024,5.624Zm-2.364,5.2-.936-.192a3.486,3.486,0,0,0-.468,1.716c.012,1.536,1.332,2.232,3.684,2.232a18.25,18.25,0,0,0,2.808-.2l.036-.96a13.588,13.588,0,0,1-2.856.252c-1.884,0-2.772-.492-2.772-1.488A2.326,2.326,0,0,1,147.66,10.82Zm15.036.312-.9-.084a7.5,7.5,0,0,0-.18,1.416c0,1.188,1.032,1.764,2.928,1.764a15.953,15.953,0,0,0,2.316-.168l.036-.972a11.55,11.55,0,0,1-2.34.24c-1.716,0-2.028-.552-2.028-1.116A4.243,4.243,0,0,1,162.7,11.132Zm-1.38-6.576-1.152-.1a4.8,4.8,0,0,1-.036,1c-.036.24-.1.624-.18,1.044-.468.036-.9.06-1.3.06a10.871,10.871,0,0,1-1.44-.084l.036.936c.432.024.864.048,1.392.048.336,0,.708-.012,1.1-.036-.1.432-.2.888-.312,1.284a26.167,26.167,0,0,1-2.016,5.364l1.056.36a36.776,36.776,0,0,0,1.872-5.5c.144-.528.276-1.08.384-1.608a23.044,23.044,0,0,0,2.5-.408V5.972a17.766,17.766,0,0,1-2.3.432c.072-.324.132-.636.18-.888S161.244,4.82,161.316,4.556Zm1.128,3.66V9.1a19.719,19.719,0,0,1,2.232-.12,15.172,15.172,0,0,1,2.016.144l.024-.912a19.207,19.207,0,0,0-2.076-.108C163.872,8.108,163.08,8.156,162.444,8.216Zm10.644-3.54-1.1-.108a13.4,13.4,0,0,1-.312,2.616c-.732.06-1.428.12-1.824.132s-.7.012-1.08,0l.108,1.032c.3-.048.8-.108,1.08-.144.312-.036.888-.1,1.524-.156a19.034,19.034,0,0,1-2.532,5.976l.972.4a24.491,24.491,0,0,0,2.532-6.468c.516-.048,1-.084,1.284-.084.768,0,1.272.2,1.272,1.3a10.139,10.139,0,0,1-.564,3.672,1,1,0,0,1-1.056.624,5.842,5.842,0,0,1-1.464-.252l.156,1.008a7.27,7.27,0,0,0,1.416.168,1.689,1.689,0,0,0,1.752-1,11.64,11.64,0,0,0,.7-4.332c0-1.632-.876-2.04-1.956-2.04-.288,0-.78.036-1.344.084.132-.648.24-1.356.312-1.7C172.992,5.156,173.04,4.9,173.088,4.676Zm4.128,1.392-.876.4a14.078,14.078,0,0,1,2.148,4.308l.924-.444A20.471,20.471,0,0,0,177.216,6.068Zm.144-1.74-.648.264a14.692,14.692,0,0,1,.972,1.668l.66-.288A17.006,17.006,0,0,0,177.36,4.328Zm1.32-.492-.636.276a13.455,13.455,0,0,1,1,1.656l.648-.288A17.316,17.316,0,0,0,178.68,3.836Zm4.356,10.836.816-.7a22.523,22.523,0,0,0-2.688-2.664l-.78.684A19.992,19.992,0,0,1,183.036,14.672Zm13.308-10.02a19.22,19.22,0,0,1-.816,2.7l.6.192c.324-.684.7-1.788,1.008-2.7Zm-2.436,2.664a10.665,10.665,0,0,0-.7-2.64l-.66.168a11.111,11.111,0,0,1,.66,2.652Zm3.06,3.984c-.264-.372-1.368-1.764-1.776-2.232V8.8h1.8v-.84h-1.8V3.98h-.84V7.964H192.48V8.8h1.68a12.061,12.061,0,0,1-1.86,3.732,4.229,4.229,0,0,1,.456.864,13.683,13.683,0,0,0,1.6-3.252v4.764h.84V10.088c.444.648.984,1.5,1.2,1.92Zm1.548.144h2.82v2.34h-2.82Zm2.82-6.168V7.532h-2.82V5.276Zm0,5.352h-2.82V8.348h2.82Zm.876,3.156V4.448h-4.56v9.336h-1.3v.84h6.876v-.84ZM5.076,26.188H6.828V27.2H5.076Zm-2.544-.732V23.98h1.68v1.476Zm2.544-3.192H6.828v1H5.076Zm1.752,3.192H5.076V23.98H6.828Zm2.6-1.476v1.476H7.68V23.98ZM4.464,28.336a8.353,8.353,0,0,1,2.16,1.452l.6-.54a7.86,7.86,0,0,0-1.908-1.272H11.3V27.2H7.68V26.188H10.3V23.26H7.68v-1h3.468V21.5H.9v.768H4.212v1H1.7v2.928H4.212V27.2H.708v.78H4.884Zm-3.192,3.2a3.859,3.859,0,0,0,1.62-2.46L2.1,28.792A3.336,3.336,0,0,1,.54,31Zm3.972-.624c-.612,0-.72-.048-.72-.336V28.852H3.66v1.74c0,.888.288,1.128,1.524,1.128H7.428c.948,0,1.212-.312,1.332-1.632a2.012,2.012,0,0,1-.792-.324c-.048,1.02-.132,1.152-.624,1.152Zm3.276-1.8A8.605,8.605,0,0,1,10.7,31.48l.756-.5a8.38,8.38,0,0,0-2.232-2.3Zm8.892-7.644-1.056-.1a9.954,9.954,0,0,1-.372,2.076c-.468.036-.924.06-1.356.06a11.319,11.319,0,0,1-1.464-.084l.06.9c.456.024.96.036,1.4.036.348,0,.708-.012,1.068-.036a17.758,17.758,0,0,1-2.568,4.488l.924.48a21.224,21.224,0,0,0,2.616-5.064,16.274,16.274,0,0,0,2.184-.444l-.024-.9a11.6,11.6,0,0,1-1.884.444C17.136,22.636,17.3,21.9,17.412,21.472Zm-.66,8.328c0-.552.6-.96,1.476-.96a4.16,4.16,0,0,1,1.236.18c.012.2.012.384.012.54,0,.66-.336,1.188-1.332,1.188C17.208,30.748,16.752,30.364,16.752,29.8Zm3.492-4.62h-.936c.024.852.084,2.04.132,3.024a5.355,5.355,0,0,0-1.176-.12c-1.356,0-2.4.7-2.4,1.8,0,1.188,1.08,1.728,2.4,1.728,1.488,0,2.1-.78,2.1-1.74,0-.144,0-.312-.012-.5a8.97,8.97,0,0,1,1.944,1.38l.516-.816a8.233,8.233,0,0,0-2.5-1.488c-.024-.744-.072-1.524-.084-1.968S20.22,25.672,20.244,25.18Zm2.4.324.54-.792a18.125,18.125,0,0,0-2.8-1.6l-.492.732A14.052,14.052,0,0,1,22.644,25.5Zm7.812,4.608V23.224h4.308v-.912h-9.48v.912h4.2v6.888H24.66V31h10.7v-.888Zm14.832-.7h-2.88v-.9h2.88Zm-2.88-2.448h2.88v.84h-2.88ZM38.94,24.844V23.98h2.58v.864ZM45.1,23.98v.864H42.408V23.98Zm2.316,3.828H46.176v-1.5H42.408v-.84h3.576V23.356H42.408v-.7h4.776v-.732H42.408v-.96H41.52v.96H36.84v.732h4.68v.7H38.088v2.112H41.52v.84H37.752v.66H41.52v.84H36.612v.708H41.52v.9H37.644V30.1H41.52v.828c0,.2-.072.276-.3.288-.2,0-.924.012-1.644-.012a2.959,2.959,0,0,1,.312.756,7.165,7.165,0,0,0,1.992-.144c.36-.132.528-.336.528-.888V30.1h2.88v.54h.888V28.516h1.236Zm5.676-6.132-1.1-.108a13.4,13.4,0,0,1-.312,2.616c-.732.06-1.428.12-1.824.132s-.7.012-1.08,0l.108,1.032c.3-.048.8-.108,1.08-.144.312-.036.888-.1,1.524-.156a19.034,19.034,0,0,1-2.532,5.976l.972.4a24.491,24.491,0,0,0,2.532-6.468c.516-.048,1-.084,1.284-.084.768,0,1.272.2,1.272,1.3a10.139,10.139,0,0,1-.564,3.672,1,1,0,0,1-1.056.624,5.842,5.842,0,0,1-1.464-.252l.156,1.008a7.27,7.27,0,0,0,1.416.168,1.689,1.689,0,0,0,1.752-1,11.64,11.64,0,0,0,.7-4.332c0-1.632-.876-2.04-1.956-2.04-.288,0-.78.036-1.344.084.132-.648.24-1.356.312-1.7C52.992,22.156,53.04,21.9,53.088,21.676Zm4.128,1.392-.876.4a14.078,14.078,0,0,1,2.148,4.308l.924-.444A20.472,20.472,0,0,0,57.216,23.068Zm.144-1.74-.648.264a14.689,14.689,0,0,1,.972,1.668l.66-.288A17.008,17.008,0,0,0,57.36,21.328Zm1.32-.492-.636.276a13.456,13.456,0,0,1,1,1.656l.648-.288A17.319,17.319,0,0,0,58.68,20.836Zm5.8,7.68a7.949,7.949,0,0,1-2.328,2.364,4.75,4.75,0,0,1,.732.528,10.359,10.359,0,0,0,2.436-2.652ZM64.44,26.08H69.4v1.1H64.44Zm0-1.764H69.4v1.092H64.44Zm5.868,3.576V23.608h-3.3c.132-.36.264-.78.384-1.176H71.28v-.8H61.608V25.06c0,1.884-.1,4.5-1.152,6.372a3.249,3.249,0,0,1,.768.456c1.1-1.956,1.26-4.836,1.26-6.816v-2.64h3.864a11.062,11.062,0,0,1-.276,1.176H63.564v4.284h2.9V30.94c0,.144-.048.2-.228.2s-.8.012-1.5-.012a3.373,3.373,0,0,1,.276.78,6.455,6.455,0,0,0,1.86-.132c.36-.12.456-.36.456-.828v-3.06ZM68.364,28.9a12.721,12.721,0,0,1,2.4,2.46l.72-.492a13.612,13.612,0,0,0-2.436-2.4Zm13.068-3.336v-.8H78.288c.06-.588.084-1.212.108-1.884h-.828c-.024.672-.048,1.308-.108,1.884H74.568v.8h2.784a4.26,4.26,0,0,1-2.928,3.684,2.23,2.23,0,0,1,.528.684,4.711,4.711,0,0,0,3.06-3.492A5.014,5.014,0,0,0,81,29.884a2.947,2.947,0,0,1,.552-.72,4.588,4.588,0,0,1-3-3.6ZM73.908,30.52V22.372h8.184V30.52Zm-.888-9V31.912h.888v-.54h8.184v.54H83V21.52ZM84.948,23.1l.108,1.044c1.3-.276,4.356-.564,5.64-.708A4.874,4.874,0,0,0,88.452,27.5c0,2.676,2.532,3.864,4.752,3.948l.348-1c-1.956-.072-4.14-.816-4.14-3.156a4.224,4.224,0,0,1,2.748-3.8,10.051,10.051,0,0,1,2.352-.192v-.96c-.8.036-1.932.108-3.24.216-2.208.18-4.476.408-5.256.492C85.788,23.068,85.4,23.092,84.948,23.1Zm7.836,1.668-.612.264a11.14,11.14,0,0,1,.984,1.692l.612-.288A14.243,14.243,0,0,0,92.784,24.772Zm1.308-.5-.588.276a11.123,11.123,0,0,1,1.008,1.68l.624-.3A15.849,15.849,0,0,0,94.092,24.268Zm11.508-1.3-.612-.468a3.286,3.286,0,0,1-.9.1H99.456c-.36,0-1.044-.048-1.212-.072V23.62c.132-.012.792-.06,1.212-.06h4.68a10.56,10.56,0,0,1-1.992,3.336A13.722,13.722,0,0,1,97.2,30.46l.768.8a15.213,15.213,0,0,0,4.68-3.5,27.707,27.707,0,0,1,3.3,3.564l.84-.72a33.288,33.288,0,0,0-3.5-3.588A15.187,15.187,0,0,0,105.3,23.5,3.442,3.442,0,0,1,105.6,22.972ZM117.18,21.4l-.636.276a13.572,13.572,0,0,1,.972,1.656l.648-.288A17.006,17.006,0,0,0,117.18,21.4Zm1.32-.48-.636.276a12.472,12.472,0,0,1,1,1.644l.648-.288A17.172,17.172,0,0,0,118.5,20.92Zm-4.548,1.056-1.1-.372a4.45,4.45,0,0,1-.372.96,10.051,10.051,0,0,1-3.768,4.056l.828.612a11.579,11.579,0,0,0,3.048-2.952h4.044a9.744,9.744,0,0,1-1.908,3.744,9.611,9.611,0,0,1-4.8,3.012l.876.792a10.681,10.681,0,0,0,4.776-3.264,11.737,11.737,0,0,0,2.124-4.14,3.77,3.77,0,0,1,.276-.636l-.792-.48a2.3,2.3,0,0,1-.78.108h-3.252c.1-.168.192-.336.276-.5C113.544,22.7,113.76,22.288,113.952,21.976Zm11.52.924v.96a28.207,28.207,0,0,0,4.932,0v-.972A20.531,20.531,0,0,1,125.472,22.9Zm.468,4.884-.864-.084a6.449,6.449,0,0,0-.2,1.416c0,1.128.9,1.8,2.916,1.8a16.262,16.262,0,0,0,3-.252l-.024-1.008a13.238,13.238,0,0,1-2.976.312c-1.632,0-2.028-.528-2.028-1.08A4.19,4.19,0,0,1,125.94,27.784Zm-2.76-5.808-1.068-.1a5.251,5.251,0,0,1-.084.852,33.754,33.754,0,0,0-.54,4.812,15.109,15.109,0,0,0,.444,3.852l.864-.06c-.012-.12-.024-.288-.036-.42a2.316,2.316,0,0,1,.06-.54,24.492,24.492,0,0,1,.852-2.688l-.5-.384c-.2.492-.492,1.212-.7,1.752a13.161,13.161,0,0,1-.108-1.68,27.865,27.865,0,0,1,.6-4.6C123.012,22.564,123.12,22.18,123.18,21.976Zm13.152,2-.132.036h-3.5V24.9h3.12a8.187,8.187,0,0,1-3.408,5.148,3.6,3.6,0,0,1,.708.708,9.933,9.933,0,0,0,3.8-6.552Zm6-1.08a22.768,22.768,0,0,1-2.844,2.976,14.649,14.649,0,0,1-1.008-2.712V20.992h-.924v9.66c0,.24-.084.312-.324.324s-1.008.012-1.872-.024a3.552,3.552,0,0,1,.36.972,7.209,7.209,0,0,0,2.2-.18c.4-.168.564-.456.564-1.092V25.5a9.688,9.688,0,0,0,4.464,5.5,3.374,3.374,0,0,1,.672-.8,8.2,8.2,0,0,1-3.756-3.612,29.343,29.343,0,0,0,3.276-3.108Zm5.124-.588a20.142,20.142,0,0,0-1.932-1.236L145,21.7c.624.4,1.5.96,1.92,1.308Zm-.372,3.144c-.468-.3-1.4-.816-2.076-1.14l-.492.624a20.9,20.9,0,0,1,2.052,1.248Zm-.78,2a32.75,32.75,0,0,1-1.656,3.84l.8.468c.528-1.1,1.128-2.568,1.572-3.828Zm3.468,2.316A12.434,12.434,0,0,1,150.9,30.8l.408-.456a9.926,9.926,0,0,0-1.14-.96Zm.024-1.656a10.831,10.831,0,0,1,1.14.936l.384-.48a12.414,12.414,0,0,0-1.128-.876Zm4.212,2.112c-.276-.252-.78-.648-1.164-.936l-.384.408a11.085,11.085,0,0,1,1.14,1Zm.06-1.656c-.276-.24-.78-.624-1.164-.888l-.372.408a9.928,9.928,0,0,1,1.152.948Zm-.012-6.444v1.152h-5.34V22.132Zm1.248,3.492v-.732h-6.588V24.04h6.192V21.388h-7.032v3.456c0,1.944-.108,4.632-1.332,6.54a3.023,3.023,0,0,1,.708.468,12.65,12.65,0,0,0,1.452-6.228h2.832v.912h-2.724v5.376h.744v-4.68h1.98V31.84h.756V27.232h2.052v3.9c0,.132-.048.168-.18.168s-.564.012-1.044-.012a2.7,2.7,0,0,1,.228.636,3.978,3.978,0,0,0,1.4-.12c.276-.108.348-.288.348-.672v-4.6h-2.808v-.912Zm4.212-3.264c0,.132-.024.576-.06,1.14-.624.108-1.332.18-1.728.2-.288.012-.516.024-.78.012l.1.984c.756-.108,1.812-.252,2.352-.324-.024.384-.06.792-.084,1.188-.6.936-1.992,2.808-2.664,3.648l.612.828c.576-.816,1.368-1.956,1.956-2.844,0,.192-.012.36-.012.48-.024,1.308-.024,1.92-.036,3.072,0,.192-.012.492-.036.708h1.044c-.024-.216-.048-.516-.06-.732-.06-1.068-.048-1.8-.048-2.892,0-.432.012-.912.036-1.416,1.1-1.176,2.556-2.3,3.528-2.3a.863.863,0,0,1,.972.984c0,1.176-.456,3.144-.456,4.476,0,1,.54,1.512,1.332,1.512a3.112,3.112,0,0,0,2.208-1l-.156-1.032a2.655,2.655,0,0,1-1.812,1c-.432,0-.624-.336-.624-.732,0-1.224.444-3.288.444-4.488a1.489,1.489,0,0,0-1.668-1.608c-1.212,0-2.76,1.164-3.7,2.028.024-.24.036-.468.06-.7.18-.3.384-.624.54-.84l-.348-.42c-.024.012-.048.012-.072.024.084-.84.18-1.512.24-1.812l-1.128-.036A5.735,5.735,0,0,1,159.516,22.36Zm11.88,9.312.816-.7a22.523,22.523,0,0,0-2.688-2.664l-.78.684A19.992,19.992,0,0,1,171.4,31.672Zm19.416-6.324-.18.072H188.16l.2-.312c-.336-.18-.8-.408-1.3-.624a19.2,19.2,0,0,0,3.12-2.436l-.648-.492-.2.048h-7.4v.828h6.54a13.92,13.92,0,0,1-2.28,1.644c-.732-.324-1.512-.648-2.172-.912l-.456.66c1.068.456,2.436,1.08,3.456,1.6H180.8v.852h4.944v4.512c0,.18-.072.228-.288.24-.24.012-1.044.024-1.872-.012a5.132,5.132,0,0,1,.336.864,8.646,8.646,0,0,0,2.16-.144c.42-.132.564-.384.564-.936V26.272h3.408a13.1,13.1,0,0,1-1.4,1.872l.72.456a16.689,16.689,0,0,0,2.148-2.916Zm11.256-1.908h-2.976V22.324h2.976Zm0,1.812h-2.976V24.136h2.976Zm0,1.836h-2.976v-1.14h2.976Zm.852-5.5h-4.656V27.82h4.656ZM197.1,28.18a20.7,20.7,0,0,1,1.632,1.764l.648-.528a19.572,19.572,0,0,0-1.656-1.692Zm-3.6,3.108a10.055,10.055,0,0,0,1.128-2.532l-.78-.3a8.683,8.683,0,0,1-1.128,2.436Zm2.352-3.348V25.024c.528.444,1.2,1.032,1.512,1.332l.48-.72c-.312-.24-1.536-1.152-1.992-1.44v-.672h1.9v-.78h-1.9V20.992H195v1.752h-2.184v.78h2.028a7.822,7.822,0,0,1-2.292,3.084,3.591,3.591,0,0,1,.576.624A8.44,8.44,0,0,0,195,24.784V27.94Zm1.38,2.916c-.7,0-.816-.06-.816-.372v-1.9h-.876V30.5c0,.924.336,1.164,1.632,1.164h2.484c1.08,0,1.356-.36,1.476-1.86a2.219,2.219,0,0,1-.816-.336c-.048,1.224-.144,1.392-.72,1.392Zm4.068-2.292a27.6,27.6,0,0,1,1.38,2.46l.828-.408c-.3-.612-.948-1.644-1.44-2.4ZM5.52,38.508l-.984-.084a6.147,6.147,0,0,1-.3,1.5c-.264.012-.54.012-.792.012A17.564,17.564,0,0,1,1.416,39.8v.9c.66.048,1.452.072,1.968.072h.528A12.659,12.659,0,0,1,1.14,44.448l.816.6A15.853,15.853,0,0,1,3.048,43.8a3.159,3.159,0,0,1,2.064-.876,1,1,0,0,1,1.092.744c-1.4.732-2.832,1.62-2.832,3.036,0,1.464,1.38,1.836,3.1,1.836a28.19,28.19,0,0,0,3.288-.216l.024-.96a21.368,21.368,0,0,1-3.276.288c-1.236,0-2.172-.144-2.172-1.08,0-.792.78-1.428,1.9-2.016,0,.636-.012,1.416-.036,1.872h.924c-.012-.588-.024-1.608-.036-2.3.912-.432,1.764-.78,2.436-1.032a10.449,10.449,0,0,1,1.068-.384l-.4-.9c-.336.18-.624.312-.984.468-.624.288-1.356.576-2.172.972a1.549,1.549,0,0,0-1.608-1.08,3.436,3.436,0,0,0-1.668.444,9.528,9.528,0,0,0,1.08-1.86,34.711,34.711,0,0,0,3.984-.336l.012-.888a29.512,29.512,0,0,1-3.66.372A12.251,12.251,0,0,0,5.52,38.508Zm10.26,6.456h1.86v-.792H15.78v-1.7h1.884a3.616,3.616,0,0,1,.48.42,4.574,4.574,0,0,0,2.268-3.66h1.836A5.712,5.712,0,0,1,21.9,41.58a.379.379,0,0,1-.36.108c-.18,0-.648,0-1.14-.048a2.183,2.183,0,0,1,.228.768,9.318,9.318,0,0,0,1.308,0,.938.938,0,0,0,.7-.3c.264-.3.372-1.14.48-3.276.012-.12.012-.372.012-.372H17.88v.768h1.668a3.594,3.594,0,0,1-1.8,2.964v-.516H15.636V40.2h1.872v-.792H15.636v-1.44h-.828v1.44H12.9V40.2h1.908v1.476H12.672v.792h2.3v4.4a3.961,3.961,0,0,1-1.032-1.788c.036-.54.06-1.116.072-1.7l-.816-.048c-.024,2.1-.144,3.972-.828,5.172a5.524,5.524,0,0,1,.708.432,7.137,7.137,0,0,0,.708-2.352c.876,1.632,2.292,2.028,4.848,2.028H23.22a2.905,2.905,0,0,1,.372-.888c-.744.036-4.392.036-4.98.024a7.787,7.787,0,0,1-2.832-.384Zm3.336-1.152h2.856V46.02H19.116Zm-.84,2.952h4.572v-3.7H18.276Zm9.468-8.232-.156.876c1.464.264,3.564.54,4.764.648l.132-.888A39.76,39.76,0,0,1,27.744,38.532Zm4.98,3.432-.576-.648a2.572,2.572,0,0,1-.576.132c-.9.108-3.7.3-4.38.312a8.957,8.957,0,0,1-1.02-.024l.084,1.056c.264-.048.576-.084.972-.12.732-.06,2.748-.228,3.7-.288-1.188,1.188-4.452,4.452-4.932,4.944-.24.228-.456.408-.6.54l.912.636a33.016,33.016,0,0,1,2.436-2.676,1.28,1.28,0,0,1,.888-.432.8.8,0,0,1,.732.636c.108.348.288,1.056.408,1.416.252.792.852,1.02,1.812,1.02a17.917,17.917,0,0,0,2.256-.18l.06-1.008a10.351,10.351,0,0,1-2.268.24c-.612,0-.9-.192-1.044-.648-.12-.4-.288-1-.4-1.344a1.092,1.092,0,0,0-.912-.864,2.077,2.077,0,0,0-.468-.024c.444-.456,1.8-1.716,2.256-2.136A6.974,6.974,0,0,1,32.724,41.964Zm7.308,4.776a.877.877,0,0,1,.96-.768A1.636,1.636,0,0,1,42.6,47.6a6.161,6.161,0,0,1-.972.072C40.692,47.676,40.032,47.316,40.032,46.74ZM38.5,39.156l.036,1c.252-.036.528-.06.792-.072.636-.036,3.036-.144,3.672-.168-.612.54-2.112,1.8-2.784,2.352-.7.588-2.232,1.872-3.228,2.688l.684.708c1.524-1.548,2.592-2.4,4.6-2.4,1.56,0,2.688.888,2.688,2.064a2.108,2.108,0,0,1-1.5,2.052A2.323,2.323,0,0,0,41,45.252a1.685,1.685,0,0,0-1.848,1.56c0,1,1,1.7,2.628,1.7,2.544,0,4.128-1.248,4.128-3.18,0-1.62-1.428-2.82-3.42-2.82a5.078,5.078,0,0,0-1.668.252c.936-.78,2.568-2.172,3.168-2.628.216-.18.456-.336.672-.492l-.552-.7a2.829,2.829,0,0,1-.648.1c-.636.06-3.492.156-4.116.156A7.154,7.154,0,0,1,38.5,39.156ZM50.46,38.028A14,14,0,0,1,47.892,42.9a4.7,4.7,0,0,1,.468.912A13.119,13.119,0,0,0,49.5,42.2v6.708h.864v-8.34a21.65,21.65,0,0,0,.924-2.316ZM54.264,40H57.1a5.331,5.331,0,0,1-1.38,1.6,5.6,5.6,0,0,1-1.476-1.56Zm4.728,0v-.732H54.7a10.305,10.305,0,0,0,.528-1.1l-.8-.2a8.344,8.344,0,0,1-2.256,3.252V39.384h-.78v7.548h.78V41.316a5.512,5.512,0,0,1,.6.48,8.8,8.8,0,0,0,1.044-1.14,6.5,6.5,0,0,0,1.284,1.38,10.192,10.192,0,0,1-2.9,1.2,4.731,4.731,0,0,1,.54.7,11.18,11.18,0,0,0,3.036-1.4,9.154,9.154,0,0,0,3.12,1.3,4.24,4.24,0,0,1,.492-.72A9.144,9.144,0,0,1,56.4,42.036,6.456,6.456,0,0,0,58.032,40Zm-1.86,4.524a8.485,8.485,0,0,1-3.888,1.872,2.727,2.727,0,0,1,.468.588,9.1,9.1,0,0,0,4.1-2.184Zm-1.14-1.152a7.4,7.4,0,0,1-2.9,1.5,4.135,4.135,0,0,1,.5.528,8.011,8.011,0,0,0,3.084-1.752Zm2.256,2.46C57.18,47.04,55.008,47.8,52.6,48.156a3.019,3.019,0,0,1,.468.708c2.532-.444,4.764-1.3,5.952-2.712Zm5.628-.24-1.308.432V43.044h1.2v-.828h-1.2v-2.6h1.38v-.84h-3.72v.84h1.488v2.6H60.36v.828h1.356v3.24c-.612.2-1.164.372-1.608.5l.2.9c1.068-.348,2.436-.816,3.72-1.248Zm1.476-4.044h1.824v1.524H65.352Zm0-2.256h1.824V40.8H65.352ZM69.78,40.8H67.944V39.288H69.78Zm0,2.268H67.944V41.544H69.78Zm-1.764,4.644V46.068h2.8v-.816h-2.8v-1.4h2.616v-5.34h-6.1v5.34h2.58v1.4H64.392v.816h2.724v1.644H63.468v.816H71.2v-.816Zm14.8-7.572a12.663,12.663,0,0,0-1.98-1.92l-.648.432a12.8,12.8,0,0,1,1.932,1.968Zm-7.4-2.04a13.452,13.452,0,0,1-3.468,4.872,5.864,5.864,0,0,1,.516.864,13.6,13.6,0,0,0,1.608-1.764V48.9h.9V40.788a16.175,16.175,0,0,0,1.284-2.424Zm7.632,3.864-.12-.84-3.588.456c-.12-1.056-.192-2.22-.228-3.432h-.888c.048,1.248.132,2.436.228,3.552l-2.9.36.12.84,2.88-.36c.456,3.744,1.416,6.228,3.384,6.372.624.036,1.1-.588,1.368-2.64a3.63,3.63,0,0,1-.744-.468c-.12,1.38-.312,2.088-.66,2.064-1.284-.12-2.064-2.268-2.472-5.448Zm5.688-3.288-1.1-.108a13.4,13.4,0,0,1-.312,2.616c-.732.06-1.428.12-1.824.132s-.7.012-1.08,0l.108,1.032c.3-.048.8-.108,1.08-.144.312-.036.888-.1,1.524-.156a19.034,19.034,0,0,1-2.532,5.976l.972.4a24.491,24.491,0,0,0,2.532-6.468c.516-.048,1-.084,1.284-.084.768,0,1.272.2,1.272,1.3a10.139,10.139,0,0,1-.564,3.672,1,1,0,0,1-1.056.624,5.842,5.842,0,0,1-1.464-.252l.156,1.008a7.27,7.27,0,0,0,1.416.168,1.689,1.689,0,0,0,1.752-1,11.64,11.64,0,0,0,.7-4.332c0-1.632-.876-2.04-1.956-2.04-.288,0-.78.036-1.344.084.132-.648.24-1.356.312-1.7C88.632,39.156,88.68,38.9,88.728,38.676Zm4.128,1.392-.876.4a14.078,14.078,0,0,1,2.148,4.308l.924-.444A20.472,20.472,0,0,0,92.856,40.068ZM93,38.328l-.648.264a14.688,14.688,0,0,1,.972,1.668l.66-.288A17.006,17.006,0,0,0,93,38.328Zm1.32-.492-.636.276a13.455,13.455,0,0,1,1,1.656l.648-.288A17.319,17.319,0,0,0,94.32,37.836Zm10.656,2.124v1.62h-3.984V39.96Zm.48,4.26v1.86h-4.464V44.22Zm-5.316,2.628h6.18V43.464h-5.328v-1.14h4.848V39.2h-2.784c.156-.336.324-.732.468-1.116l-1.008-.168a10.835,10.835,0,0,1-.384,1.284H100.14Zm-1-6.744a9.131,9.131,0,0,0-2.088-1.848l-.66.54a8.279,8.279,0,0,1,2.04,1.9Zm-.336,2.556H96.264v.84h1.668v3.036A20.038,20.038,0,0,1,96.108,47.9l.48.9c.636-.516,1.236-1.032,1.812-1.536a4.276,4.276,0,0,0,3.4,1.416c1.32.048,3.78.024,5.088-.024a4.06,4.06,0,0,1,.288-.912c-1.4.1-4.068.132-5.376.084a3.493,3.493,0,0,1-2.988-1.344Zm14.712-2.448h-2.652c.012-.684.024-1.38.024-2.088h-.876c0,.708,0,1.4-.012,2.088h-1.68v.876h1.656c-.1,3-.456,5.652-1.944,7.224a2.747,2.747,0,0,1,.672.612c1.62-1.752,2.028-4.62,2.136-7.836h1.812c-.084,4.6-.192,6.228-.468,6.564a.348.348,0,0,1-.4.192c-.216,0-.732,0-1.284-.048a2.278,2.278,0,0,1,.264.9,7.59,7.59,0,0,0,1.4-.012.953.953,0,0,0,.792-.456c.372-.516.456-2.256.552-7.56ZM115.344,47v-6.7h2.328V47Zm-.84-7.56v9.288h.84v-.876h2.328v.792h.888v-9.2Zm6.084.66.108,1.044c1.3-.276,4.356-.564,5.64-.708a4.874,4.874,0,0,0-2.244,4.056c0,2.676,2.532,3.864,4.752,3.948l.348-1c-1.956-.072-4.14-.816-4.14-3.156a4.224,4.224,0,0,1,2.748-3.8,10.051,10.051,0,0,1,2.352-.192v-.96c-.8.036-1.932.108-3.24.216-2.208.18-4.476.408-5.256.492C121.428,40.068,121.044,40.092,120.588,40.1Zm7.836,1.668-.612.264a11.14,11.14,0,0,1,.984,1.692l.612-.288A14.243,14.243,0,0,0,128.424,41.772Zm1.308-.5-.588.276a11.123,11.123,0,0,1,1.008,1.68l.624-.3A15.848,15.848,0,0,0,129.732,41.268Zm6.42-2.892h-3.408v.72h3.408Zm.432,1.572h-4.44v.732h4.44Zm-.408,1.62H132.7v.708h3.48Zm-3.48,2.3h3.48v-.72H132.7Zm2.724,1.62v2.016h-1.956V45.492Zm.768-.732h-3.5v4.02h.78v-.552h2.724Zm2.088,1.272v-.864h3.252v.864Zm3.252-2.352v.852h-3.252V43.68Zm.84-.684h-4.92v5.892h.828v-2.22h3.252v1.3c0,.144-.036.18-.18.192s-.648.012-1.188-.012a2.127,2.127,0,0,1,.252.732,5.154,5.154,0,0,0,1.56-.12c.312-.132.4-.348.4-.78Zm-2.136-1.38v-.792h2.424v-.66h-2.424v-.72h2.6v-.672h-2.6v-.816h-.852v.816h-2.532v.672h2.532v.72h-2.22v.66h2.22v.792h-2.832V42.3H143.1v-.684Zm7.932,3.12c-1.464.84-3.012,1.7-4.032,2.232l.54.792c1.068-.6,2.484-1.44,3.768-2.232Zm-.432-1.032a10.569,10.569,0,0,0-1.944-2.172l-.684.456a10.406,10.406,0,0,1,1.908,2.232Zm3.468-5.136a14.073,14.073,0,0,1,2.184,1.4l.564-.624A14.462,14.462,0,0,0,151.728,38Zm2.376,2.748a17.856,17.856,0,0,1-2.208,2.4,12.453,12.453,0,0,1-1.3-2.772v-.12h4.8v-.852h-4.8v-1.98h-.9v1.98h-4.716v.852h4.716V47.7c0,.24-.084.3-.312.312s-1.008.012-1.836-.012a4.344,4.344,0,0,1,.324.936,7.672,7.672,0,0,0,2.16-.168c.408-.156.564-.432.564-1.068V42.972a10.131,10.131,0,0,0,4.5,5.064,3.348,3.348,0,0,1,.648-.78,8.307,8.307,0,0,1-3.408-2.868,25.207,25.207,0,0,0,2.532-2.532Zm8.352-1.824c.084.276.2.636.348,1.08a25.074,25.074,0,0,1-4.74-.144l.024.96a30.832,30.832,0,0,0,5.04.024,16.029,16.029,0,0,0,1.452,2.736c-.432-.048-1.32-.12-1.992-.18l-.072.8a27.123,27.123,0,0,1,2.892.324l.492-.672c-.18-.2-.36-.408-.528-.636a12.768,12.768,0,0,1-1.344-2.472,17.84,17.84,0,0,0,2.484-.492l-.108-.936a15.413,15.413,0,0,1-2.676.588,14.34,14.34,0,0,1-.552-2.052l-1.02.132C161.736,38.868,161.844,39.24,161.928,39.492Zm-2.544,4.764-.936-.216a4.678,4.678,0,0,0-.576,1.992c0,1.632,1.44,2.46,3.72,2.472a17.428,17.428,0,0,0,3.1-.264l.048-.96a13.376,13.376,0,0,1-3.1.3c-1.776-.012-2.82-.516-2.82-1.656A3.087,3.087,0,0,1,159.384,44.256Zm11.772-4.9c0,.132-.024.576-.06,1.14-.624.108-1.332.18-1.728.2-.288.012-.516.024-.78.012l.1.984c.756-.108,1.812-.252,2.352-.324-.024.384-.06.792-.084,1.188-.6.936-1.992,2.808-2.664,3.648l.612.828c.576-.816,1.368-1.956,1.956-2.844,0,.192-.012.36-.012.48-.024,1.308-.024,1.92-.036,3.072,0,.192-.012.492-.036.708h1.044c-.024-.216-.048-.516-.06-.732-.06-1.068-.048-1.8-.048-2.892,0-.432.012-.912.036-1.416,1.1-1.176,2.556-2.3,3.528-2.3a.863.863,0,0,1,.972.984c0,1.176-.456,3.144-.456,4.476,0,1,.54,1.512,1.332,1.512a3.112,3.112,0,0,0,2.208-1l-.156-1.032a2.655,2.655,0,0,1-1.812,1c-.432,0-.624-.336-.624-.732,0-1.224.444-3.288.444-4.488a1.489,1.489,0,0,0-1.668-1.608c-1.212,0-2.76,1.164-3.7,2.028.024-.24.036-.468.06-.7.18-.3.384-.624.54-.84l-.348-.42c-.024.012-.048.012-.072.024.084-.84.18-1.512.24-1.812l-1.128-.036A5.735,5.735,0,0,1,171.156,39.36Zm15.18,5.772-.9-.084a7.5,7.5,0,0,0-.18,1.416c0,1.188,1.032,1.764,2.928,1.764a15.953,15.953,0,0,0,2.316-.168l.036-.972a11.55,11.55,0,0,1-2.34.24c-1.716,0-2.028-.552-2.028-1.116A4.243,4.243,0,0,1,186.336,45.132Zm-1.38-6.576-1.152-.1a4.8,4.8,0,0,1-.036,1c-.036.24-.1.624-.18,1.044-.468.036-.9.06-1.3.06a10.87,10.87,0,0,1-1.44-.084l.036.936c.432.024.864.048,1.392.048.336,0,.708-.012,1.1-.036-.1.432-.2.888-.312,1.284a26.167,26.167,0,0,1-2.016,5.364l1.056.36a36.776,36.776,0,0,0,1.872-5.5c.144-.528.276-1.08.384-1.608a23.044,23.044,0,0,0,2.5-.408v-.948a17.766,17.766,0,0,1-2.3.432c.072-.324.132-.636.18-.888S184.884,38.82,184.956,38.556Zm1.128,3.66V43.1a19.719,19.719,0,0,1,2.232-.12,15.173,15.173,0,0,1,2.016.144l.024-.912a19.208,19.208,0,0,0-2.076-.108C187.512,42.108,186.72,42.156,186.084,42.216Zm7.884,2.856A1.83,1.83,0,1,0,195.8,46.9,1.831,1.831,0,0,0,193.968,45.072Zm0,3.048a1.218,1.218,0,1,1,1.224-1.224A1.219,1.219,0,0,1,193.968,48.12Z" transform="translate(26.877 5.751)" fill="#fff"/>
      </g>
    </g>
    <g id="Group_439" data-name="Group 439" transform="translate(-160 326.931)">
      <g id="b" transform="translate(-20539.002 6862.297)">
        <g id="c" transform="translate(0.002 -0.001)">
          <g id="Group_199" data-name="Group 199">
            <path id="Path_47" data-name="Path 47" d="M156.08,103.832l.873-2.243s-.063-1.879-.267-3.3-.614-2.794,0-3.416a8.7,8.7,0,0,1,1.746-1.22s3.4-4.156,3.872-4.5,1.324-.426.785.6-1.888,3.128-1.888,3.128a2.378,2.378,0,0,1,1.608.313,16.549,16.549,0,0,1,1.671,1.675c.284.2.251,1.228.063,1.8a2.692,2.692,0,0,1-.723,1.023s.535.255-.693,1.821-3.053,2.214-3.212,2.5-1.779,2.472-1.779,2.472l-2.051-.652Z" transform="translate(-90.894 -51.784)" fill="#f9ddd0"/>
            <path id="Path_48" data-name="Path 48" d="M14.944,148.17a16.812,16.812,0,0,1-2.122,2.414,5.375,5.375,0,0,1-1.888,1.224,18.94,18.94,0,0,1-4.628.91c-1.416.058-4.6.426-5.229.484s-1.608.342-.723,1.082,1.575,1.253,4.218,1.253,4.344.255,4.82.255.568.255.568.94a2.8,2.8,0,0,1-.505,1.6c-.255.372,0,1.307.631.568a29.106,29.106,0,0,0,2.234-3.015,17.361,17.361,0,0,0,.915-1.737c.505-1.082.033-.142.033-.142s2.188-2.347,3.634-3.909l-1.955-1.917Z" transform="translate(-0.002 -86.287)" fill="#f9ddd0"/>
            <path id="Path_49" data-name="Path 49" d="M82.7,76.432c-1.52-.413-1.291-1.015-1.591-2.769a6.391,6.391,0,0,1,0-2.723l-2.823.405-2.823-.405a6.392,6.392,0,0,1,0,2.723c-.3,1.754-.071,2.351-1.591,2.769s-4.335,1.336-4.335,1.336l.409,5.35H86.634l.409-5.35s-2.815-.923-4.335-1.336Z" transform="translate(-40.497 -41.312)" fill="#fadfd3"/>
            <path id="Path_50" data-name="Path 50" d="M72.389,29.448h2.168s-.175,1.57,1.85,3.228,4.16,1.52,5.375.6,1.052-3.5.121-4.661A11.24,11.24,0,0,0,78.616,26.4a15.017,15.017,0,0,0,5.722-9.781C85.031,10.395,82.17,2.827,74.7.592a14.073,14.073,0,0,0-12.83,2.577,12.823,12.823,0,0,0-5.3,8.332C55.553,17.223,56.063,17.637,58,21.65s10.934,7.8,10.934,7.8Z" transform="translate(-32.646 0.001)" fill="#e46666"/>
            <g id="Group_197" data-name="Group 197" transform="translate(24.477 17.372)">
              <path id="Path_51" data-name="Path 51" d="M117.793,44.195a2.947,2.947,0,0,1-2.059,1.9c-.8-.042-1.065-1.345-.768-2.577s1.174-2.084,1.955-1.892c1.052.259,1.295,1.378.873,2.577Z" transform="translate(-91.359 -41.595)" fill="#f9dacd"/>
              <path id="Path_52" data-name="Path 52" d="M58.806,44.195a2.947,2.947,0,0,0,2.059,1.9c.8-.042,1.065-1.345.768-2.577s-1.174-2.084-1.955-1.892c-1.052.259-1.295,1.378-.873,2.577Z" transform="translate(-58.609 -41.595)" fill="#f9dacd"/>
            </g>
            <path id="Path_53" data-name="Path 53" d="M85.906,16.725c0,9.251-5.421,16.748-11.623,16.748S62.66,25.972,62.66,16.725,67.864,5.52,74.283,5.52,85.906,7.475,85.906,16.725Z" transform="translate(-36.491 -3.214)" fill="#f9dacd"/>
            <ellipse id="Ellipse_16" data-name="Ellipse 16" cx="0.877" cy="1.119" rx="0.877" ry="1.119" transform="translate(32.847 16.878)" fill="#101010"/>
            <path id="Path_54" data-name="Path 54" d="M76.77,41.35a5.8,5.8,0,0,0,1.453.727" transform="translate(-44.708 -24.08)" fill="#fff" stroke="#101010" stroke-linecap="round" stroke-miterlimit="10" stroke-width="1"/>
            <ellipse id="Ellipse_17" data-name="Ellipse 17" cx="0.877" cy="1.119" rx="0.877" ry="1.119" transform="translate(41.225 16.878)" fill="#101010"/>
            <path id="Path_55" data-name="Path 55" d="M102.753,41.35a5.8,5.8,0,0,1-1.453.727" transform="translate(-58.993 -24.08)" fill="#fff" stroke="#101010" stroke-linecap="round" stroke-miterlimit="10" stroke-width="1"/>
            <path id="Path_56" data-name="Path 56" d="M71.25,34.263s1.591-2.168,5.191-1.382" transform="translate(-41.493 -19.048)" fill="none" stroke="#101010" stroke-linecap="round" stroke-miterlimit="10" stroke-width="1"/>
            <path id="Path_57" data-name="Path 57" d="M89.367,48.31s-1.683.944,0,1.545" transform="translate(-51.608 -28.133)" fill="none" stroke="#101010" stroke-linecap="round" stroke-miterlimit="10" stroke-width="1"/>
            <path id="Path_58" data-name="Path 58" d="M65.521,9.5s-1.336,7.058-5.3,8.812a27.158,27.158,0,0,1,0-7.472c.6-3.55,3.412-8.211,13.1-7.843S85.66,9.968,85.36,14.625s-.685,4.506-.685,4.506S68.754,15.456,65.526,9.5Z" transform="translate(-34.913 -1.736)" fill="#e46666"/>
            <g id="Group_198" data-name="Group 198" transform="translate(29.038 36.461)">
              <path id="Path_59" data-name="Path 59" d="M69.529,87.3a2.17,2.17,0,0,0,.547,1.353c-.209-.748-.313-1.215-.313-1.215l-.23-.138Z" transform="translate(-69.529 -87.3)" fill="#f1a69a"/>
              <path id="Path_60" data-name="Path 60" d="M110.683,87.3l-.23.138s-.109.468-.313,1.215a2.17,2.17,0,0,0,.547-1.353Z" transform="translate(-93.179 -87.3)" fill="#f1a69a"/>
              <path id="Path_61" data-name="Path 61" d="M79.047,92.921c-5.271-.054-7.376-1.332-8.207-2.381A34.738,34.738,0,0,0,73.467,97.4a8.615,8.615,0,0,0,5.241,3.947v.159s.125-.021.338-.071c.213.05.338.071.338.071v-.159A8.615,8.615,0,0,0,84.627,97.4a34.736,34.736,0,0,0,2.627-6.858C86.422,91.588,84.322,92.866,79.047,92.921Z" transform="translate(-70.292 -89.187)" fill="#f1a69a"/>
            </g>
            <ellipse id="Ellipse_18" data-name="Ellipse 18" cx="1.817" cy="1.119" rx="1.817" ry="1.119" transform="translate(41.639 19.722)" fill="#f9c8c2"/>
            <ellipse id="Ellipse_19" data-name="Ellipse 19" cx="1.817" cy="1.119" rx="1.817" ry="1.119" transform="translate(29.757 19.722)" fill="#f9c8c2"/>
            <path id="Path_62" data-name="Path 62" d="M119.524,100.629s5.241,8.424,6.816,10.646a32.058,32.058,0,0,0,3.558,4.156c.443.455.944.6,1.762-.255s5.985-7.8,5.985-7.8l-3.308-1.909a27.008,27.008,0,0,0-3.37,5.6c-4.44-8.14-10.9-17.984-10.9-17.984l-.551,7.539Z" transform="translate(-69.603 -54.211)" fill="#f9c8c2"/>
            <path id="Path_63" data-name="Path 63" d="M45.286,91.464s-1.1.284-1.825,3.157-1.261,5.835-2.172,8.933a19.164,19.164,0,0,1-2.489,5.889c-1.069,1.679-4.03,5.492-4.03,5.492l2.769,2.477s1.512-2.163,3.245-4.268,5.338-10.637,5.338-10.637L45.286,91.46Z" transform="translate(-20.249 -53.261)" fill="#f9c8c2"/>
            <path id="Path_64" data-name="Path 64" d="M80.216,111.92c-.075-4.648,1.491-23.075,1.491-23.075A15.3,15.3,0,0,0,76.95,86.97s-3.634,10.358-8.478,11.64c-4.841-1.282-8.478-11.64-8.478-11.64a15.3,15.3,0,0,0-4.757,1.875s1.566,18.427,1.491,23.075-4.047,15.9-4.047,15.9v.434H84.263v-.434S80.291,116.569,80.216,111.92Z" transform="translate(-30.679 -50.647)" fill="#fcfce4"/>
            <ellipse id="Ellipse_20" data-name="Ellipse 20" cx="0.869" cy="1.265" rx="0.869" ry="1.265" transform="translate(37.011 23.852)" fill="none" stroke="#101010" stroke-linecap="round" stroke-miterlimit="10" stroke-width="1"/>
          </g>
        </g>
      </g>
      <g id="Group_1" data-name="Group 1" transform="translate(-20635.48 6533.568)">
        <path id="Path_1" data-name="Path 1" d="M410.822,343.05q2.5-2.229,4.982-4.48c4.222.359,8.456.516,12.676.89-.191,4.029-.333,8.065-.49,12.1a.963.963,0,0,1-.314.813c-1.547,1.373-3.054,2.787-4.63,4.123.113-3.279.181-6.56.4-9.834-2.376,1.546-4.6,3.325-6.917,4.967-2.466,1.8-4.941,3.585-7.4,5.39a8.264,8.264,0,0,0-1.822,1.51,29.646,29.646,0,0,0-3.718,2.514c-2.644,1.937-5.281,3.894-7.961,5.781-7.25.036-14.5-.043-21.754-.022-3.72,3.194-7.305,6.56-10.977,9.814a2.645,2.645,0,0,1-1.071.721c-.024-1.472,0-2.943-.01-4.413,3.718-3.341,7.421-6.7,11.156-10.024q10.951.072,21.906.1c6.273-4.589,12.615-9.081,18.857-13.708l.024.063c2.4-1.826,4.89-3.539,7.313-5.339.048-.077.14-.234.188-.314C417.775,343.53,414.3,343.226,410.822,343.05Z" transform="translate(0)" fill="#fff"/>
        <path id="Path_2" data-name="Path 2" d="M565.369,437.018a16.731,16.731,0,0,1,9.7,1.086c1.2.613,2.528,1.578,2.659,3.03.164,1.559-1.211,2.666-2.439,3.329a16.059,16.059,0,0,1-8.63,1.378,11.47,11.47,0,0,1-6.391-2.393,2.68,2.68,0,0,1-.594-3.489C560.976,438.131,563.27,437.438,565.369,437.018Z" transform="translate(-149.809 -74.499)" fill="#fff"/>
        <path id="Path_3" data-name="Path 3" d="M560.13,472.866a2.8,2.8,0,0,1-.726-2.936c1.235,2.121,3.773,2.922,6.039,3.366a17.543,17.543,0,0,0,8.664-.69,6.529,6.529,0,0,0,3.465-2.6,2.973,2.973,0,0,1-1.479,3.513c-2.745,1.853-6.227,2.116-9.44,1.884C564.331,475.129,561.86,474.538,560.13,472.866Z" transform="translate(-149.808 -99.668)" fill="#fff"/>
        <path id="Path_4" data-name="Path 4" d="M560.674,492.092c-1.025-.714-1.887-2.145-1.242-3.368,1.037,1.858,3.206,2.625,5.153,3.115a16.877,16.877,0,0,0,10.164-.8,6.581,6.581,0,0,0,2.859-2.35,3,3,0,0,1-.97,3.093c-2.154,1.826-5.093,2.314-7.831,2.427A13.764,13.764,0,0,1,560.674,492.092Z" transform="translate(-149.772 -113.902)" fill="#fff"/>
        <path id="Path_5" data-name="Path 5" d="M470.012,490.777c2.931-.068,6.06.316,8.536,2.017a2.983,2.983,0,0,1,1.353,3.542,6.4,6.4,0,0,1-3.759,2.782,17.389,17.389,0,0,1-10.557.01,6.345,6.345,0,0,1-3.778-2.8,2.831,2.831,0,0,1,1.088-3.337A12.843,12.843,0,0,1,470.012,490.777Z" transform="translate(-75.706 -115.48)" fill="#fff"/>
        <path id="Path_6" data-name="Path 6" d="M559.4,507.04c.967,1.732,2.9,2.586,4.726,3.081a17.7,17.7,0,0,0,9.332-.164,7.21,7.21,0,0,0,4.157-2.859,2.932,2.932,0,0,1-1.115,3.228c-2.212,1.764-5.161,2.217-7.913,2.287-2.668-.048-5.51-.437-7.73-2.034l.017.1a4.858,4.858,0,0,1-1.489-1.853A3.111,3.111,0,0,1,559.4,507.04Z" transform="translate(-149.81 -127.825)" fill="#fff"/>
        <path id="Path_7" data-name="Path 7" d="M479.877,523.9c.675,1.474-.413,3-1.66,3.742-2.84,1.756-6.333,1.988-9.58,1.7a11.215,11.215,0,0,1-5.976-2.294,2.95,2.95,0,0,1-.963-3.124c1.288,2.094,3.8,2.924,6.087,3.351a17.271,17.271,0,0,0,9.127-.873A5.5,5.5,0,0,0,479.877,523.9Z" transform="translate(-75.687 -140.618)" fill="#fff"/>
        <path id="Path_8" data-name="Path 8" d="M374.257,526.517a16.5,16.5,0,0,1,8.234,1.02c1.341.6,2.815,1.522,3.11,3.078.22,1.344-.8,2.458-1.85,3.129A13.845,13.845,0,0,1,377,535.566a14.947,14.947,0,0,1-7.843-1.715c-1.03-.637-2.106-1.648-2-2.967a3.224,3.224,0,0,1,1.58-2.495A12.129,12.129,0,0,1,374.257,526.517Z" transform="translate(-4.043 -142.503)" fill="#fff"/>
        <path id="Path_9" data-name="Path 9" d="M560.922,529.456c-1.173-.726-2.113-2.181-1.534-3.576,1.107,1.872,3.288,2.695,5.3,3.168a17.506,17.506,0,0,0,9.32-.519A6.284,6.284,0,0,0,577.5,525.9a2.674,2.674,0,0,1-.967,3.153,12.268,12.268,0,0,1-6.994,2.3A14.6,14.6,0,0,1,560.922,529.456Z" transform="translate(-149.774 -142.12)" fill="#fff"/>
        <path id="Path_10" data-name="Path 10" d="M461.706,542.56c1.464,2.335,4.357,3.117,6.924,3.474a16.263,16.263,0,0,0,8.842-1.267,6.085,6.085,0,0,0,2.473-2.181,2.894,2.894,0,0,1-.992,3.127c-1.935,1.674-4.584,2.167-7.062,2.372a14.839,14.839,0,0,1-8.507-1.836A3.258,3.258,0,0,1,461.706,542.56Z" transform="translate(-75.687 -154.776)" fill="#fff"/>
        <path id="Path_11" data-name="Path 11" d="M559.342,544.483c.458.217.622.76,1.023,1.062,1.875,1.6,4.384,2.118,6.77,2.364a17.017,17.017,0,0,0,6.828-.842,6.585,6.585,0,0,0,3.653-2.707,2.764,2.764,0,0,1-.207,2.229,7.352,7.352,0,0,1-1.546,1.6l.036-.123c-3.069,1.879-6.89,2.1-10.374,1.585-2.1-.4-4.369-1.071-5.74-2.827A2.88,2.88,0,0,1,559.342,544.483Z" transform="translate(-149.825 -156.141)" fill="#fff"/>
        <path id="Path_12" data-name="Path 12" d="M368.16,562.78a2.826,2.826,0,0,1-.89-3.1c1.057,1.872,3.211,2.678,5.189,3.168a17.554,17.554,0,0,0,9.262-.434,6.7,6.7,0,0,0,3.744-2.743,3.162,3.162,0,0,1-1.563,3.607,14.739,14.739,0,0,1-8.859,1.9A12.019,12.019,0,0,1,368.16,562.78Z" transform="translate(-4.018 -167.758)" fill="#fff"/>
        <path id="Path_13" data-name="Path 13" d="M461.829,561a4.641,4.641,0,0,0,2.306,2.193,16.13,16.13,0,0,0,13.457,0,4.8,4.8,0,0,0,2.314-2.181,2.908,2.908,0,0,1-1.271,3.474c-2.374,1.7-5.407,2.111-8.261,2.085a12.842,12.842,0,0,1-7.452-2.212A2.81,2.81,0,0,1,461.829,561Z" transform="translate(-75.719 -168.767)" fill="#fff"/>
        <path id="Path_14" data-name="Path 14" d="M560.88,565.32a3.1,3.1,0,0,1-1.508-3.59c1.192,2.07,3.643,2.871,5.848,3.317a17.094,17.094,0,0,0,9.363-.852,6.1,6.1,0,0,0,2.972-2.437,2.8,2.8,0,0,1-.885,3.071c-1.81,1.607-4.294,2.142-6.635,2.393C566.912,567.419,563.548,567.091,560.88,565.32Z" transform="translate(-149.778 -169.321)" fill="#fff"/>
        <path id="Path_15" data-name="Path 15" d="M383.361,580.247a5.366,5.366,0,0,0,2.087-2.007,3.078,3.078,0,0,1-1.486,3.573,14.3,14.3,0,0,1-8.169,1.971c-2.736-.162-5.74-.642-7.793-2.618a2.979,2.979,0,0,1-.823-2.8c.5.3.714.893,1.194,1.221,2.222,1.732,5.139,2.179,7.877,2.275A15.068,15.068,0,0,0,383.361,580.247Z" transform="translate(-4.023 -181.848)" fill="#fff"/>
        <path id="Path_16" data-name="Path 16" d="M560.834,582.778a3.1,3.1,0,0,1-1.479-3.578,7.176,7.176,0,0,0,4.483,3,16.909,16.909,0,0,0,10.8-.567,6.885,6.885,0,0,0,2.96-2.379,2.976,2.976,0,0,1-.878,2.977c-2.142,1.913-5.139,2.408-7.913,2.521A14.153,14.153,0,0,1,560.834,582.778Z" transform="translate(-149.758 -182.576)" fill="#fff"/>
        <path id="Path_17" data-name="Path 17" d="M477.158,582.1a5.78,5.78,0,0,0,2.753-2.352c.61,1.469-.446,2.849-1.571,3.684l-.014-.06c-2.765,1.8-6.244,2.094-9.455,1.814a11.858,11.858,0,0,1-5.93-2.087,2.983,2.983,0,0,1-1.255-3.223c1.686,2.227,4.533,3.071,7.194,3.365A16.517,16.517,0,0,0,477.158,582.1Z" transform="translate(-75.684 -182.993)" fill="#fff"/>
        <path id="Path_18" data-name="Path 18" d="M368.773,600.416a3.072,3.072,0,0,1-1.53-3.6c1.293,2.191,3.949,2.96,6.3,3.382a16.925,16.925,0,0,0,9.059-1.013,5.671,5.671,0,0,0,2.8-2.386,2.9,2.9,0,0,1-1.11,3.3,12.3,12.3,0,0,1-6.625,2.2C374.626,602.462,371.377,602.115,368.773,600.416Z" transform="translate(-3.993 -195.93)" fill="#fff"/>
        <path id="Path_19" data-name="Path 19" d="M560.87,600.288a3.082,3.082,0,0,1-1.5-3.578c1.281,2.186,3.928,2.97,6.273,3.38a16.327,16.327,0,0,0,9.559-1.223,5.573,5.573,0,0,0,2.343-2.145,2.88,2.88,0,0,1-1.008,3.2c-2.022,1.65-4.7,2.145-7.238,2.318A14.4,14.4,0,0,1,560.87,600.288Z" transform="translate(-149.773 -195.862)" fill="#fff"/>
        <path id="Path_20" data-name="Path 20" d="M463.056,601.67a2.938,2.938,0,0,1-1.25-3.44c.869,1.689,2.738,2.5,4.471,3.011a17.365,17.365,0,0,0,9.65-.145,6.647,6.647,0,0,0,4.022-2.866,2.968,2.968,0,0,1-1.235,3.411c-2.246,1.657-5.134,2.1-7.858,2.159A13.75,13.75,0,0,1,463.056,601.67Z" transform="translate(-75.725 -197.015)" fill="#fff"/>
      </g>
      <g id="Group_4" data-name="Group 4" transform="translate(-20456 6833.15)">
        <g id="Group_1-2" data-name="Group 1" transform="translate(52.116 33.448)">
          <path id="Path_1-2" data-name="Path 1" d="M58.742,34.192a.777.777,0,0,1,.45-.737c2.665,0,5.33-.022,8,.011l.338.21a3.238,3.238,0,0,1,.109,1.194c0,1.44-.009,2.881.007,4.321a15.8,15.8,0,0,0,2.216-.994c1.367-.647,2.719-1.324,4.088-1.97q2.37-1.138,4.736-2.286a4.016,4.016,0,0,1,.925-.392,4.469,4.469,0,0,1,.911.4c1.579.762,3.153,1.534,4.737,2.285,2.118,1.018,4.23,2.048,6.348,3.063.4.2.8.382,1.2.584.942.435,1.873.9,2.811,1.347q3.047,1.48,6.1,2.954,2.6,1.227,5.171,2.5l.173.181c.063,1.4.011,2.8.028,4.194-.019.972.039,1.945-.036,2.916a.776.776,0,0,1-.76.29c-1.153-.419-2.265-.954-3.428-1.343q-.016,1.654,0,3.311a9.778,9.778,0,0,1,3.566,1.019,8.065,8.065,0,0,1,4.028,4.739,11.119,11.119,0,0,1,.3,3.354c-.012.856.032,1.715-.035,2.57a4.525,4.525,0,0,1,1.418.756c1.3,1.24.868,3.444-.31,4.616a4.309,4.309,0,0,1-1.643.9,9.247,9.247,0,0,1-.638,1.944,10.842,10.842,0,0,1-1.665,2.528v.31c.27.562.4,1.178.628,1.758,1.44.314,2.847.764,4.253,1.2,1.452.456,2.89.952,4.318,1.478a5.2,5.2,0,0,1,3.477,4.309c.02,3.377.005,6.754.012,10.13a1.361,1.361,0,0,1-1.456,1.317q-11.29,0-22.58.007c.084.251.351.33.557.456.619.309,1.205.677,1.817,1a5.8,5.8,0,0,1,1.91,1.327,3.185,3.185,0,0,1,.143,3.653,6.422,6.422,0,0,1-.88.853,3.162,3.162,0,0,1-3.248.047c-2.2-1.211-4.384-2.435-6.58-3.643-.435-.252-.883-.48-1.314-.739-.821-.433-1.624-.894-2.436-1.343s-1.637-.913-2.452-1.372a5.487,5.487,0,0,1-4.288.325,8.369,8.369,0,0,1-1.084-.568c-8.678-.007-17.356.009-26.034-.008-.553-.027-.669-.775-.338-1.13a1.821,1.821,0,0,1,.613-.128c1.329-.009,2.661.02,3.99-.015-.077-2.525-.035-5.053-.078-7.578-.105-4.995-.086-9.992-.167-14.987-.043-3.413-.092-6.826-.089-10.239-.073-4.066-.127-8.135-.129-12.2-1.189.419-2.338.948-3.519,1.387a.78.78,0,0,1-.781-.287c-.044-2.141,0-4.284-.022-6.425a1.239,1.239,0,0,1,.179-.872c1.256-.59,2.5-1.212,3.749-1.811.859-.391,1.685-.867,2.57-1.193a.636.636,0,0,0,.123-.434Q58.742,38.712,58.742,34.192Zm1.282.514c-.034,3.093,0,6.188-.018,9.28a.561.561,0,0,1-.383.554c-1.265.628-2.545,1.223-3.81,1.851-.523.239-1.027.516-1.558.736a5,5,0,0,1-.855.392c-.038,1.723-.016,3.447-.012,5.17,1.252-.433,2.437-1.047,3.709-1.422.139.054.278.109.418.162a3.263,3.263,0,0,1,.183,1.5q.044,3.238.044,6.476.113,6.131.131,12.265c.07,4.625.139,9.251.14,13.876.09,4.114.112,8.232.142,12.346q9.589-.02,19.181,0c-.049-.125-.1-.249-.147-.372-.132-.225-.247-.458-.368-.688a4.905,4.905,0,0,1,.7-4.878c.225.011.5-.086.663.124.589.581,1.128,1.212,1.7,1.806a1.86,1.86,0,0,0,2.661-.131,1.893,1.893,0,0,0,.03-2.269c-.562-.6-1.115-1.207-1.673-1.808-.217-.174-.174-.454-.174-.7.12-.109.24-.218.363-.325a6.089,6.089,0,0,1,2.552-.6,5.116,5.116,0,0,1,2.6-4.232,16.255,16.255,0,0,1,3.745-1.515c1.877-.568,3.755-1.138,5.661-1.6.235-.689.533-1.363.7-2.069a9.981,9.981,0,0,1-2.061-3.489,6.987,6.987,0,0,1-.249-.957,4.125,4.125,0,0,1-1.141-.514,3.567,3.567,0,0,1-1.161-4.7,2.9,2.9,0,0,1,1.723-1.072c0-1.356-.013-2.711.008-4.066a7.248,7.248,0,0,1,2.09-4.919,8.986,8.986,0,0,1,6.025-2.7c.028-1.538-.012-3.076.024-4.613a.817.817,0,0,1,.774-.264c1.157.407,2.274.925,3.426,1.347,0-1.726.018-3.451-.005-5.177a3.732,3.732,0,0,1-.593-.244q-3.492-1.7-6.994-3.378c-1.116-.546-2.241-1.077-3.36-1.622s-2.241-1.089-3.364-1.627c-2.618-1.246-5.223-2.521-7.834-3.78l-.434-.2c-1.07-.514-2.141-1.027-3.207-1.55-.178-.059-.361-.237-.558-.132-3.462,1.664-6.917,3.341-10.379,5-.586.288-1.181.558-1.765.852a.781.781,0,0,1-.852-.129,4.215,4.215,0,0,1-.1-.851c.009-1.529,0-3.056.005-4.585-.038-.173.08-.45-.117-.547C64.176,34.7,62.1,34.738,60.024,34.706ZM99.4,57.918a6.9,6.9,0,0,0-4.563,4.964,25.188,25.188,0,0,0-.108,3.552,18.682,18.682,0,0,1,1.945-1.351,11.137,11.137,0,0,1,11.087.131c.616.33,1.12.822,1.708,1.2-.059-1.533.21-3.147-.426-4.594a6.92,6.92,0,0,0-3.907-3.761A8.266,8.266,0,0,0,99.4,57.918Zm.834,7.184a9.656,9.656,0,0,0-5.146,2.784,5.852,5.852,0,0,0-.284.538,1.252,1.252,0,0,0,.847,1.309,1.359,1.359,0,0,0,1.453-.515,7.387,7.387,0,0,1,10.153.144,1.342,1.342,0,0,0,1.494.321,1.238,1.238,0,0,0,.439-1.712,9.359,9.359,0,0,0-2.886-2.111A9.78,9.78,0,0,0,100.237,65.1Zm-1.073,4.186a5.837,5.837,0,0,0-1.445,1.1,2.465,2.465,0,0,1-4.092-1.2,1.7,1.7,0,0,0-.872.555,2.305,2.305,0,0,0,1.8,3.221c.473.011.673.473.69.884A8.444,8.444,0,0,0,99.257,79.4a6.386,6.386,0,0,0,2.978.7,6.191,6.191,0,0,0,3.405-1.128,8.39,8.39,0,0,0,3.141-4.418c.16-.479.208-.99.411-1.455.613-.237,1.359-.249,1.79-.825l.062,0a2.674,2.674,0,0,0,.588-1.936,1.291,1.291,0,0,0-1.054-1.077,2.584,2.584,0,0,1-1.149,1.465,2.628,2.628,0,0,1-2.719-.143,6.821,6.821,0,0,0-2.024-1.48A6.215,6.215,0,0,0,99.164,69.288ZM96.79,81.4c.7.541,1.387,1.095,2.059,1.668l.066,0c1.045.894,2.107,1.777,3.211,2.6.527-.34,1-.762,1.5-1.146,1.027-.818,2.086-1.6,3.107-2.425.231-.185.465-.365.7-.539-.2-.577-.391-1.155-.574-1.738-.036-.013-.108-.04-.143-.055a7.659,7.659,0,0,1-4.468,1.611,7.471,7.471,0,0,1-4.86-1.718A17.521,17.521,0,0,0,96.79,81.4Zm-2.769,1.07c-.9.237-1.792.491-2.677.768a.786.786,0,0,0,.094.446c.689,1.527,1.364,3.06,2.048,4.589.174.417.371.822.533,1.244,2.485.018,4.969-.013,7.454.016-.009-.919,0-1.839-.008-2.758-1.933-1.55-3.884-3.086-5.785-4.675A12.265,12.265,0,0,0,94.021,82.469Zm14.081.167c-1.786,1.374-3.54,2.788-5.345,4.137-.028.919,0,1.839-.02,2.758q3.571-.026,7.142,0c.566-1.944,1.127-3.889,1.669-5.841.069-.249.143-.5.212-.747-1-.3-2-.63-3.027-.856C108.528,82.277,108.322,82.466,108.1,82.636Zm4.789.863a6.174,6.174,0,0,1-.266,1.087c-.506,1.763-1.023,3.523-1.517,5.289a2.014,2.014,0,0,0-.121.667c0,2.451.005,4.9,0,7.355,2.772-.023,5.544.007,8.315-.015.012-3.3-.007-6.594-.009-9.891a3.716,3.716,0,0,0-2.234-3.2c-1.267-.568-2.617-.926-3.906-1.433Zm-25.9,1.363a4.006,4.006,0,0,0-2.1,3.411,5.675,5.675,0,0,1,2.121,1.216A5.271,5.271,0,0,1,88.3,94.746c1.139.635,2.286,1.256,3.42,1.9a16.671,16.671,0,0,0,1.514.775c0-2.206,0-4.412,0-6.618-.2-.4-.376-.8-.549-1.208-.224-.5-.438-1.006-.682-1.5-.473-1.128-.995-2.234-1.479-3.357-.156-.357-.307-.716-.476-1.068A11.057,11.057,0,0,0,86.991,84.861Zm-4.456,4.6c.085.148.179.293.276.435.092.089.185.178.278.27a3.258,3.258,0,0,1,1.115,2.66,3.042,3.042,0,0,1-1.681,2.526,3.194,3.194,0,0,1-2.649.05,5.367,5.367,0,0,1-.6-.348,8.436,8.436,0,0,1-1.147-1.225l-.233-.016a3.933,3.933,0,0,0,.876,3.767c.214.189.43.377.654.557a4.047,4.047,0,0,0,3.032.518,7.28,7.28,0,0,0,1.36-.609c.413-.111.762.249,1.118.406,3.2,1.781,6.4,3.546,9.6,5.324.725.4,1.436.821,2.17,1.2.616.341,1.278.845,2.024.648a1.792,1.792,0,0,0,1.4-1.3,1.811,1.811,0,0,0-.9-2.06c-1.451-.818-2.916-1.61-4.369-2.425Q91.1,97.74,87.318,95.659A.744.744,0,0,1,87,94.575a3.813,3.813,0,0,0-4.466-5.115Zm11.97,1.317c-.018,2.374-.011,4.747,0,7.121,5.069-.023,10.138,0,15.207-.012.023-2.366-.011-4.732.016-7.1C104.653,90.784,99.579,90.809,94.506,90.777Z" transform="translate(-52.116 -33.448)" fill="#fff"/>
        </g>
        <g id="Group_2" data-name="Group 2" transform="translate(69.506 46.201)">
          <path id="Path_2-2" data-name="Path 2" d="M188.8,128.175a2.155,2.155,0,0,1,2.158.377,3.576,3.576,0,0,1,.919,1.968c.419.026.837.074,1.254.133a7.362,7.362,0,0,1,.781-1.376,2.139,2.139,0,0,1,2.4-.512c.768.379,1.682.763,1.944,1.666a3.012,3.012,0,0,1-.59,2.508c.019.061.057.182.074.243a3.639,3.639,0,0,1,.609.746c.562-.019,1.058-.364,1.627-.345a2.026,2.026,0,0,1,1.932,1.126,3.334,3.334,0,0,1,.22,2.884,3.3,3.3,0,0,1-2.2,1.229c-.036.415-.088.83-.129,1.246a5.219,5.219,0,0,1,1.654,1.058,2.226,2.226,0,0,1,.226,2.1c-.392.8-.818,1.757-1.771,2a3.387,3.387,0,0,1-2.5-.675,7.312,7.312,0,0,1-.923.771,3.567,3.567,0,0,1,.22,2.487,2.379,2.379,0,0,1-1.782,1.31,2.23,2.23,0,0,1-2.369-.3,3.514,3.514,0,0,1-.925-1.964c-.422-.039-.844-.092-1.266-.127-.349.754-.725,1.656-1.593,1.921a2.194,2.194,0,0,1-1.893-.2,4.671,4.671,0,0,1-1.234-.816,2.183,2.183,0,0,1-.406-1.986,14.411,14.411,0,0,1,.65-1.309c-.288-.274-.5-.623-.8-.886a7.628,7.628,0,0,0-1.172.3,2.112,2.112,0,0,1-2.35-1.126,5,5,0,0,1-.434-2.063,2.078,2.078,0,0,1,1.461-1.716c.326-.106.657-.206.994-.282.031-.421.084-.84.12-1.259a6.5,6.5,0,0,1-1.44-.86,2.171,2.171,0,0,1-.55-1.993,10.668,10.668,0,0,1,.611-1.278,2.019,2.019,0,0,1,1.873-1.073c.706-.084,1.238.479,1.878.652a6.263,6.263,0,0,0,.89-.662c.067-.506-.306-.971-.32-1.482a2.073,2.073,0,0,1,.81-1.878A4.448,4.448,0,0,1,188.8,128.175Zm-.616,1.558a.894.894,0,0,0-.27.723c.1.706.481,1.347.526,2.064-.348.438-.9.638-1.275,1.045-.318.271-.608.777-1.1.64-.605-.212-1.109-.652-1.724-.841a.8.8,0,0,0-.88.415c-.232.464-.617.9-.522,1.457.092.124.183.251.278.375.066.035.2.1.264.136a5.638,5.638,0,0,1,1.593,1.011c-.12.849-.208,1.711-.275,2.559-.574.6-1.565.469-2.228.956l-.167.284a3.311,3.311,0,0,0,.466,1.749.93.93,0,0,0,.661.222c.644-.125,1.248-.437,1.9-.508.383.008.534.386.724.651a6.619,6.619,0,0,0,1.095,1.219c.241,1.066-1.275,1.859-.675,2.917a7.453,7.453,0,0,0,1.228.666.919.919,0,0,0,.876-.243c.256-.506.531-1,.791-1.5a.628.628,0,0,1,.767-.33c.723.173,1.469.139,2.2.244l.187.236c.17.5.314,1.01.473,1.514a.84.84,0,0,0,.658.658,3.6,3.6,0,0,0,1.3-.311.8.8,0,0,0,.514-.956c-.132-.58-.406-1.127-.489-1.716-.022-.483.492-.626.8-.878.426-.278.727-.709,1.135-1,.615-.156,1.1.36,1.627.592.413.322,1.162.364,1.4-.186.213-.45.638-.891.489-1.426-.074-.344-.414-.5-.688-.659-.372-.17-.732-.365-1.091-.562-.255-.093-.318-.4-.309-.642a9.069,9.069,0,0,0,.191-1.9.579.579,0,0,1,.284-.578,20.823,20.823,0,0,0,1.994-.709l.173-.284a3.076,3.076,0,0,0-.267-1.413.8.8,0,0,0-.716-.581c-.7.04-1.336.481-2.046.475-.39.031-.519-.369-.7-.626a10.9,10.9,0,0,0-1.1-1.23c-.256-.96.981-1.626.791-2.6-.032-.181-.191-.294-.294-.434-.3-.143-.6-.315-.9-.462a.821.821,0,0,0-1.047.212c-.324.528-.554,1.112-.9,1.631-.417.4-1.011.015-1.507.015-.48-.143-1.139.193-1.484-.268-.351-.647-.337-1.464-.8-2.055C189.53,129.064,188.792,129.554,188.18,129.734Z" transform="translate(-181.106 -128.047)" fill="#fff"/>
        </g>
        <g id="Group_3" data-name="Group 3" transform="translate(76.25 52.943)">
          <path id="Path_3-2" data-name="Path 3" d="M233.411,178.377a4.216,4.216,0,0,1,3.074-.063,3.983,3.983,0,0,1,2.032,1.894,3.914,3.914,0,0,1-.6,4.369,4.379,4.379,0,0,1-1.31.963,3.935,3.935,0,0,1-4.6-1.108,3.96,3.96,0,0,1,.189-5.174A5.117,5.117,0,0,1,233.411,178.377Zm.472,1.211a2.681,2.681,0,0,0-1.444,1.805,2.728,2.728,0,0,0,.8,2.483,2.791,2.791,0,0,0,2.363.669,2.715,2.715,0,0,0,2.028-2.18,2.8,2.8,0,0,0-.723-2.3A2.728,2.728,0,0,0,233.883,179.588Z" transform="translate(-231.13 -178.055)" fill="#fff"/>
        </g>
      </g>
      <path id="Path_506" data-name="Path 506" d="M6.1-11.368H4.172a11.267,11.267,0,0,1,.1,1.232c0,.238,0,.644-.014,1.134-.28.014-.56.028-.812.028a15.524,15.524,0,0,1-1.932-.112L1.54-7.392a17.164,17.164,0,0,0,1.96.07c.224,0,.476-.014.742-.028v1.176c0,.322,0,.658.014.994-1.722.742-3.122,2.016-3.122,3.234C1.134-.462,3.052.714,4.41.714c.924,0,1.54-.462,1.54-2.2,0-.476-.028-1.568-.056-2.674A9.439,9.439,0,0,1,8.526-4.55c1.218,0,2.058.56,2.058,1.512,0,1.022-.9,1.582-2.03,1.792a10.78,10.78,0,0,1-1.722.1L7.476.658A12.818,12.818,0,0,0,9.31.434C11.536-.126,12.4-1.372,12.4-3.024c0-1.932-1.694-3.052-3.85-3.052a11.6,11.6,0,0,0-2.688.364V-6.23c0-.406,0-.84.014-1.26.91-.112,1.876-.252,2.674-.434L8.512-9.66a17.146,17.146,0,0,1-2.576.5c.014-.35.028-.686.042-.994C6.006-10.514,6.062-11.116,6.1-11.368Zm3.99,1.512L9.324-8.5A22.275,22.275,0,0,1,12.7-6.454l.84-1.428A29.255,29.255,0,0,0,10.094-9.856ZM2.856-2.016c0-.49.574-1.064,1.428-1.526.028.756.042,1.4.042,1.75,0,.476-.2.588-.448.588C3.514-1.2,2.856-1.582,2.856-2.016ZM18.774-3.15a16.688,16.688,0,0,0,2.156-.938,15.205,15.205,0,0,0,2.394.938ZM18.69-.588v-1.19h4.662v1.19Zm.672-6.468H22.47a8.05,8.05,0,0,1-1.54,1.2A8.1,8.1,0,0,1,19.292-7Zm4.522-1.316-.28.07H20.552c.154-.2.308-.392.448-.588L19.446-9.2H25.3v1.554h1.708V-10.71H21.812v-1.134H20.1v1.134h-5.11v3.066h1.638V-9.2h2.576a8.138,8.138,0,0,1-3.934,2.814A4.658,4.658,0,0,1,16.38-5.152a13.955,13.955,0,0,0,1.708-.938,11.384,11.384,0,0,0,1.26,1.05,19.912,19.912,0,0,1-4.914,1.386A5.531,5.531,0,0,1,15.2-2.17c.63-.126,1.246-.266,1.862-.434V1.218H18.69V.784h4.662V1.19h1.722V-2.7c.462.084.938.168,1.428.238a8.161,8.161,0,0,1,1.05-1.61A21.361,21.361,0,0,1,22.6-5.124,8.955,8.955,0,0,0,25-7.7Zm9.6,3.99C33.25-4.76,32.242-6.3,31.864-6.818v-.616h1.4v-1.54h-1.4v-2.884H30.352v2.884h-1.68v1.54h1.554a14,14,0,0,1-1.876,4.69,7.988,7.988,0,0,1,.728,1.47,11.81,11.81,0,0,0,1.274-2.758V1.2h1.512V-4.83c.308.6.6,1.232.77,1.638Zm2.534,1.736C34.832-2.03,33.6-1.4,32.774-1.022l.714,1.4c.9-.49,1.988-1.106,2.968-1.68Zm-2.45-1.526A9.813,9.813,0,0,1,34.9-2.38l1.19-.84a9.59,9.59,0,0,0-1.386-1.694Zm6.566-.784A11.02,11.02,0,0,1,38.78-3.444a7.6,7.6,0,0,1-.574-1.232v-.546h3.262V-6.58H38.206V-7.2h2.716V-8.442H38.206V-9h3.01v-1.3H39.858c.224-.35.476-.77.728-1.19l-1.652-.378c-.14.448-.42,1.092-.63,1.568H36.568a7.744,7.744,0,0,0-.8-1.54l-1.316.448A7.948,7.948,0,0,1,35-10.3H33.572V-9H36.6v.56H33.95V-7.2H36.6v.616h-3.29v1.358H36.6V-.448c0,.168-.056.238-.224.238s-.714,0-1.19-.028a5.179,5.179,0,0,1,.448,1.484,4.566,4.566,0,0,0,1.988-.28c.448-.252.588-.644.588-1.4V-1.89A6.64,6.64,0,0,0,40.684.574,6.2,6.2,0,0,1,41.734-.77,5.851,5.851,0,0,1,39.55-2.352,22.535,22.535,0,0,0,41.4-4.074Z" transform="translate(-20523.104 6956.069)" fill="#fff"/>
      <path id="Path_505" data-name="Path 505" d="M-50.96-11.158a21.72,21.72,0,0,1-.784,3.29l1.064.294c.364-.826.77-2.156,1.134-3.29Zm-2.478,3.3a12.718,12.718,0,0,0-.728-3.22l-1.162.294a13.877,13.877,0,0,1,.644,3.248Zm3.668,4.592a28.523,28.523,0,0,0-1.988-2.184V-5.67h1.89V-7.224h-1.89v-4.62H-53.3v4.62h-2.016V-5.67h1.638a13.361,13.361,0,0,1-1.862,3.626,11.145,11.145,0,0,1,.77,1.722A13.29,13.29,0,0,0-53.3-3.416V1.19h1.54V-3.626a15.7,15.7,0,0,1,.98,1.666Zm2.156.546h2.436V-.588h-2.436Zm2.436-7.056v2.03h-2.436v-2.03Zm0,5.572h-2.436V-6.258h2.436ZM-43.5-.588V-11.312H-49.21V-.588H-50.5V.952h8.036V-.588ZM-35.756-5.4h1.33v.742h-1.33Zm-2.856-1.274v-1.26h1.26v1.26Zm2.856-3.276h1.33V-9.2h-1.33Zm1.33,3.276h-1.33v-1.26h1.33Zm2.94-1.26v1.26h-1.33v-1.26Zm-5.362,5.124A9.355,9.355,0,0,1-34.5-1.176l1.134-.952a8.424,8.424,0,0,0-1.568-1.12h6.174V-4.662h-4.06V-5.4h2.954V-9.2h-2.954v-.756h3.878V-11.34H-41.006v1.386h3.654V-9.2h-2.786V-5.4h2.786v.742H-41.23v1.414h4.914ZM-40.068.84A5.776,5.776,0,0,0-38.346-2l-1.5-.588A4.626,4.626,0,0,1-41.5-.154ZM-35.5-.476c-.6,0-.714-.042-.714-.392v-1.47H-37.87v1.5c0,1.4.392,1.848,2.184,1.848h2.128c1.3,0,1.764-.378,1.96-1.932a4.393,4.393,0,0,1-1.484-.588c-.056.91-.154,1.036-.63,1.036ZM-32.4-1.96A10.056,10.056,0,0,1-29.96.8L-28.5-.126A9.758,9.758,0,0,0-31.066-2.8Zm11-9.31-1.932-.2A11.773,11.773,0,0,1-23.7-9.128c-.434.042-.854.056-1.274.056a17.686,17.686,0,0,1-1.862-.1l.126,1.624c.6.042,1.176.056,1.75.056.238,0,.476,0,.728-.014A22.057,22.057,0,0,1-27.09-2.562l1.694.868a25.8,25.8,0,0,0,3-5.992,24.288,24.288,0,0,0,2.45-.49L-20.006-9.8a17.163,17.163,0,0,1-1.89.448C-21.686-10.108-21.5-10.822-21.392-11.27Zm-.728,9.688c0-.49.518-.854,1.33-.854a5.029,5.029,0,0,1,1.134.14v.28c0,.77-.294,1.3-1.26,1.3C-21.686-.714-22.12-1.064-22.12-1.582Zm4-5.334h-1.75c.028.854.1,2.1.154,3.136-.322-.028-.63-.056-.966-.056-1.946,0-3.094,1.05-3.094,2.422C-23.772.126-22.4.9-20.664.9c1.988,0,2.7-1.008,2.7-2.31v-.14a11.869,11.869,0,0,1,1.89,1.5l.938-1.5a9.155,9.155,0,0,0-2.9-1.792c-.028-.7-.07-1.372-.084-1.778C-18.13-5.74-18.158-6.328-18.116-6.916Zm2.408.742.994-1.47a24.116,24.116,0,0,0-3.458-1.9l-.9,1.386A20.206,20.206,0,0,1-15.708-6.174ZM-6.09-1.428V-8.666h4.7V-10.4H-12.572v1.736h4.578v7.238h-5.334V.252H-.6v-1.68Zm16.408-.588H7.8v-.658h2.52ZM7.8-4.55h2.52v.6H7.8ZM3.906-7.336v-.672H6.1v.672Zm6.16-.672v.672H7.8v-.672Zm3.4,4.06H12.012V-5.67H7.8v-.616h3.976V-9.058H7.8v-.574h5.348v-1.316H7.8v-.91H6.1v.91H.882v1.316H6.1v.574H2.31v2.772H6.1v.616H1.96v1.12H6.1v.6H.56v1.274H6.1v.658H1.848v1.2H6.1v.434c0,.252-.084.336-.35.35-.224,0-1.05,0-1.722-.028A5.132,5.132,0,0,1,4.578,1.26a7.373,7.373,0,0,0,2.478-.238C7.6.784,7.8.448,7.8-.378V-.812h2.52v.574h1.694V-2.674h1.456Zm8.092-6.566H18.984V-11.76h-1.61v1.246H14.812v1.442H21.56ZM19.474-2.758V-.91H16.856V-2.758Zm-4.158,3.99h1.54v-.7h2.618v.644H21.1V-4.2H15.316ZM19.348-9.03a14.66,14.66,0,0,1-.574,2.114l1.134.294H16.24l1.316-.308a7.049,7.049,0,0,0-.574-2.044l-1.358.28a8.831,8.831,0,0,1,.49,2.072h-1.6V-5.11h7.2V-6.622H20.09c.238-.546.532-1.3.826-2.072Zm7-2.086-.252.056H22.148V1.218h1.624V-9.492h1.694C25.13-8.428,24.682-7,24.276-6.006A4.021,4.021,0,0,1,25.7-3.15c0,.476-.084.8-.336.952a1.178,1.178,0,0,1-.518.112,7.745,7.745,0,0,1-.784-.014,3.711,3.711,0,0,1,.406,1.624A7.243,7.243,0,0,0,25.592-.5a2.355,2.355,0,0,0,.952-.35A2.374,2.374,0,0,0,27.3-2.94a4.469,4.469,0,0,0-1.4-3.276c.56-1.19,1.176-2.8,1.666-4.144Zm11.1,3.29h-4.9v-1.89h4.9Zm1.694-3.486h-8.2v5.068h8.2ZM32.676-3.486v2.408H30.59V-3.486Zm-3.654,4.7H30.59v-.7h2.086v.63h1.666v-6.23h-5.32Zm8.106-2.3V-3.486h2.226v2.408Zm-1.6-4v6.3h1.6v-.7h2.226v.644h1.68V-5.082ZM48.8-11.228l-1.848-.154a7.783,7.783,0,0,1-.28,1.61H46A18.216,18.216,0,0,1,43.54-9.94V-8.3c.77.056,1.792.084,2.366.084h.182a13.739,13.739,0,0,1-3.094,3.864l1.5,1.12a16.119,16.119,0,0,1,1.3-1.54,3.41,3.41,0,0,1,2.184-.966,1.077,1.077,0,0,1,.98.476c-1.6.826-3.276,1.946-3.276,3.738S47.306.812,49.5.812A35.022,35.022,0,0,0,53.466.574l.056-1.806a22.9,22.9,0,0,1-3.976.392c-1.372,0-2.03-.21-2.03-.98,0-.7.56-1.246,1.61-1.848-.014.616-.028,1.288-.07,1.708h1.68c-.014-.644-.042-1.68-.056-2.464.854-.392,1.652-.7,2.282-.952.476-.182,1.218-.462,1.666-.588l-.7-1.624c-.518.266-1.008.49-1.554.728-.574.252-1.162.49-1.89.826a1.9,1.9,0,0,0-1.862-1.078,4.744,4.744,0,0,0-1.582.28,9.775,9.775,0,0,0,.8-1.428A41.7,41.7,0,0,0,52.4-8.61l.014-1.624a35.444,35.444,0,0,1-3.962.406A13.394,13.394,0,0,0,48.8-11.228ZM-42.546,14.75V13.364h1.722V14.75Zm5.11-1.386V14.75h-1.736V13.364Zm1.6,2.73V12.006h-3.332v-.98h3.71V9.514h-3.71V8.24h-1.652V9.514H-44.24c.126-.308.252-.6.378-.9l-1.54-.5a14.861,14.861,0,0,1-3.388,5.222,11.017,11.017,0,0,1,.882,1.708,15.461,15.461,0,0,0,1.148-1.316v7.518h1.582v-9.9c.308-.532.588-1.064.84-1.61v1.288h3.514v.98h-3.22v4.088h3.122a4.55,4.55,0,0,1-.518,1.6,5.772,5.772,0,0,1-1.3-1.442l-1.358.42a8.064,8.064,0,0,0,1.722,2.086,6.457,6.457,0,0,1-2.548,1.078,9.145,9.145,0,0,1,1.036,1.386,7.179,7.179,0,0,0,2.87-1.5,12.853,12.853,0,0,0,4.788,1.47,6.877,6.877,0,0,1,.994-1.484,14.038,14.038,0,0,1-4.788-1.176,6.622,6.622,0,0,0,.77-2.436Zm8.82-.532V13.84h2.954v1.722Zm-4.354,0c.028-.518.042-1.022.042-1.47V13.84H-28.7v1.722Zm2.674-4.9v1.624h-2.632V10.662Zm4.634,1.624H-27.02V10.662h2.954Zm1.652-3.206h-10.57v5c0,1.96-.126,4.452-1.652,6.132a6.149,6.149,0,0,1,1.316,1.078,8.017,8.017,0,0,0,1.764-4.158H-28.7v3.906h1.68V17.13h2.954v2.1c0,.252-.1.336-.364.336s-1.176.014-1.96-.028a6.294,6.294,0,0,1,.532,1.6,6.5,6.5,0,0,0,2.688-.294c.56-.252.756-.7.756-1.6Zm14.826,6.23h-5.53V13.672h4.7v-1.6h-4.7V10.242A32.985,32.985,0,0,0-8.862,9.5l-1.2-1.386a51.987,51.987,0,0,1-9.506,1.12,5.575,5.575,0,0,1,.42,1.47c1.372-.056,2.842-.14,4.3-.266v1.638h-4.578v1.6h4.578V15.31h-5.53v1.624h5.53v2.254c0,.28-.126.378-.448.392s-1.484,0-2.52-.042a6.459,6.459,0,0,1,.686,1.652,9.522,9.522,0,0,0,3.108-.28c.658-.266.91-.7.91-1.694V16.934h5.53Zm4.452.728c.532-.168,1.078-.336,1.61-.5l-.224-1.526-1.386.378V12.272h1.274v-1.54H-3.136V8.142H-4.774v2.59h-1.61v1.54h1.61V14.82c-.7.182-1.344.336-1.876.448l.392,1.708,1.484-.448v2.884c0,.2-.07.252-.252.266s-.756,0-1.288-.028a7.227,7.227,0,0,1,.448,1.526,4.729,4.729,0,0,0,2.128-.294c.462-.252.6-.658.6-1.484ZM3.808,14.75a9.016,9.016,0,0,1-1.064,2.506A8.475,8.475,0,0,1,1.33,14.75Zm.826-1.54-.28.056H1.386c.042-.476.07-.952.1-1.442H6.4v-1.54H1.526c.014-.7.028-1.414.028-2.128H-.056c0,.714,0,1.428-.014,2.128H-1.708v1.54h1.6c-.14,3.318-.686,6.3-3.024,8.162A4.643,4.643,0,0,1-1.96,21.148,8.577,8.577,0,0,0,.728,16.864a10.034,10.034,0,0,0,1.036,1.624A6.284,6.284,0,0,1-.364,19.874,6.048,6.048,0,0,1,.588,21.2,8.261,8.261,0,0,0,2.856,19.65a8.392,8.392,0,0,0,2.772,1.582A6.325,6.325,0,0,1,6.692,19.8a7.974,7.974,0,0,1-2.8-1.4,12.02,12.02,0,0,0,1.736-4.9Zm4.41-.322.1,1.652a52.064,52.064,0,0,0,6.09.014c.224.476.49.966.784,1.456-.42-.042-1.176-.112-1.764-.168l-.14,1.33c1.022.112,2.534.294,3.318.448l.854-1.288a4.268,4.268,0,0,1-.63-.714,12.741,12.741,0,0,1-.728-1.246,18.76,18.76,0,0,0,2.24-.434l-.28-1.652a18.074,18.074,0,0,1-2.674.56c-.084-.224-.168-.434-.238-.63s-.14-.434-.21-.658a20.409,20.409,0,0,0,2.576-.518l-.224-1.61a16.091,16.091,0,0,1-2.758.6q-.147-.714-.252-1.47l-1.876.21c.168.49.308.938.448,1.386A29.122,29.122,0,0,1,9.3,9.948l.1,1.61a32.733,32.733,0,0,0,4.718.126c.084.238.168.5.28.826.056.154.112.322.182.49A35.876,35.876,0,0,1,9.044,12.888Zm2.688,3.248L10,15.8a4.649,4.649,0,0,0-.6,2.254c.028,2,1.764,2.828,4.564,2.828a21.5,21.5,0,0,0,3.4-.266l.1-1.778a18.426,18.426,0,0,1-3.514.308c-1.848,0-2.828-.42-2.828-1.456A2.628,2.628,0,0,1,11.732,16.136ZM28.91,18.572V11.334h4.7V9.6H22.428v1.736h4.578v7.238H21.672v1.68H34.4v-1.68Zm16.408-.588H42.8v-.658h2.52ZM42.8,15.45h2.52v.6H42.8Zm-3.892-2.786v-.672h2.2v.672Zm6.16-.672v.672H42.8v-.672Zm3.4,4.06H47.012V14.33H42.8v-.616h3.976V10.942H42.8v-.574h5.348V9.052H42.8v-.91H41.1v.91H35.882v1.316H41.1v.574H37.31v2.772H41.1v.616H36.96v1.12H41.1v.6H35.56v1.274H41.1v.658H36.848v1.2H41.1v.434c0,.252-.084.336-.35.35-.224,0-1.05,0-1.722-.028a5.132,5.132,0,0,1,.546,1.316,7.373,7.373,0,0,0,2.478-.238c.546-.238.742-.574.742-1.4v-.434h2.52v.574h1.694V17.326h1.456Z" transform="translate(-20369.5 6955.908)" fill="#fff"/>
      <path id="Path_504" data-name="Path 504" d="M-29.666-6.65l-.308.112h-2.212l.336-.546c-.322-.154-.742-.308-1.2-.49a23.082,23.082,0,0,0,3.234-2.66l-1.19-.938-.378.1H-39.76v1.526H-33a14.572,14.572,0,0,1-1.778,1.316c-.784-.294-1.568-.56-2.2-.784l-.826,1.26c.9.336,2.03.784,3.066,1.218H-41.1v1.582h5.53v4.3c0,.21-.084.266-.35.28s-1.316,0-2.142-.028a5.67,5.67,0,0,1,.6,1.6A8.748,8.748,0,0,0-34.706.938c.672-.238.868-.658.868-1.54V-4.956h2.954a17.7,17.7,0,0,1-1.092,1.722l1.428.826a18.648,18.648,0,0,0,2.24-3.654Zm10.5.882h2.576v.84h-2.576Zm0-2.03h2.576v.812h-2.576Zm0-2.044h2.576v.812h-2.576Zm-2.94,6.762a20.862,20.862,0,0,1,1.848,1.946l1.2-1.008c-.336-.392-.938-.98-1.484-1.484h5.544v-7.532h-5.684v7.406L-20.958-4Zm-2.674-.378H-23.2V-6.384c.5.462,1.022.966,1.344,1.316l.868-1.33A26.807,26.807,0,0,0-23.2-7.938v-.518h1.974V-9.87H-23.2v-1.974H-24.78V-9.87h-2.3v1.414h2.03a8.35,8.35,0,0,1-2.38,3.122,5.923,5.923,0,0,1,1.064,1.148,8.048,8.048,0,0,0,1.582-2.03ZM-25.8.448A13.684,13.684,0,0,0-24.626-2.6l-1.484-.588A9.578,9.578,0,0,1-27.328-.308Zm4.228-.98c-.756,0-.9-.056-.9-.476V-2.9h-1.652V-.98c0,1.456.49,1.918,2.394,1.918h2.52c1.54,0,2-.49,2.212-2.492a4.045,4.045,0,0,1-1.5-.588c-.084,1.414-.182,1.61-.84,1.61Zm4.186-2.17c.546.938,1.316,2.17,1.652,2.912l1.554-.8c-.378-.728-1.19-1.918-1.75-2.786Zm10.4-8.526-1.848-.154a7.783,7.783,0,0,1-.28,1.61h-.672A18.216,18.216,0,0,1-12.25-9.94V-8.3c.77.056,1.792.084,2.366.084H-9.7A13.739,13.739,0,0,1-12.8-4.354l1.5,1.12A16.119,16.119,0,0,1-10-4.774,3.41,3.41,0,0,1-7.812-5.74a1.077,1.077,0,0,1,.98.476c-1.6.826-3.276,1.946-3.276,3.738S-8.484.812-6.286.812A35.022,35.022,0,0,0-2.324.574l.056-1.806A22.9,22.9,0,0,1-6.244-.84c-1.372,0-2.03-.21-2.03-.98,0-.7.56-1.246,1.61-1.848-.014.616-.028,1.288-.07,1.708h1.68C-5.068-2.6-5.1-3.64-5.11-4.424c.854-.392,1.652-.7,2.282-.952.476-.182,1.218-.462,1.666-.588l-.7-1.624c-.518.266-1.008.49-1.554.728-.574.252-1.162.49-1.89.826A1.9,1.9,0,0,0-7.168-7.112a4.744,4.744,0,0,0-1.582.28,9.775,9.775,0,0,0,.8-1.428,41.7,41.7,0,0,0,4.564-.35l.014-1.624a35.444,35.444,0,0,1-3.962.406A13.394,13.394,0,0,0-6.986-11.228ZM4.97-3.262H6.818V-4.7H4.97V-6.23H6.986v-.644a9.278,9.278,0,0,1,.868.7,5.245,5.245,0,0,0,2.352-3.78H11.69A5.127,5.127,0,0,1,11.4-8.008a.518.518,0,0,1-.406.14,9.855,9.855,0,0,1-1.134-.056,3.3,3.3,0,0,1,.406,1.4,10.552,10.552,0,0,0,1.554-.028,1.362,1.362,0,0,0,.938-.476c.336-.392.462-1.414.56-3.738.014-.2.014-.574.014-.574H7.154v1.386h1.5a3.754,3.754,0,0,1-1.666,2.6V-7.7H4.76V-8.988H6.748V-10.43H4.76v-1.414H3.22v1.414H1.176v1.442H3.22V-7.7H.854v1.47H3.486v4.186A4.22,4.22,0,0,1,2.7-3.528c.028-.616.056-1.26.056-1.9L1.3-5.53C1.288-3.15,1.176-.9.476.49a9.275,9.275,0,0,1,1.33.728A10.159,10.159,0,0,0,2.45-1.05C3.556.518,5.222.868,7.826.868h5.432a6.635,6.635,0,0,1,.63-1.652c-1.26.07-5,.07-6.062.056A9.328,9.328,0,0,1,4.97-1.05ZM9.058-4.648H11.34v1.736H9.058ZM7.5-1.6h5.488v-4.4H7.5Zm11.074-9.758L18.312-9.73c1.666.28,4.284.588,5.754.7l.224-1.638C22.834-10.766,20.146-11.06,18.578-11.354ZM24.78-6.9,23.758-8.064a4.487,4.487,0,0,1-.8.154c-1.162.154-4.34.294-5,.294a12.391,12.391,0,0,1-1.344-.042l.168,1.932c.294-.042.714-.112,1.2-.154.8-.07,2.478-.224,3.458-.252C20.174-4.788,17.3-1.932,16.59-1.2c-.378.364-.714.658-.966.868L17.276.826c.966-1.232,2.016-2.38,2.492-2.87a1.486,1.486,0,0,1,.924-.56c.28,0,.588.182.742.672.1.35.266,1.008.406,1.428C22.19.406,22.9.7,24.234.7A20.445,20.445,0,0,0,26.978.49l.112-1.834a14.438,14.438,0,0,1-2.744.252.89.89,0,0,1-.98-.658c-.126-.364-.28-.9-.406-1.274a1.329,1.329,0,0,0-.84-.952,1.537,1.537,0,0,0-.532-.1c.336-.364,1.638-1.568,2.282-2.114C24.122-6.4,24.416-6.65,24.78-6.9Zm8.47,5.25c0-.35.336-.672.868-.672.756,0,1.274.588,1.358,1.5a7.309,7.309,0,0,1-.812.042C33.824-.784,33.25-1.134,33.25-1.652Zm-2.38-9.016.056,1.82c.322-.042.77-.084,1.148-.112.742-.042,2.674-.126,3.388-.14-.686.6-2.142,1.778-2.926,2.422-.826.686-2.52,2.114-3.514,2.912L30.3-2.45c1.5-1.708,2.9-2.842,5.04-2.842,1.652,0,2.912.854,2.912,2.114a2.029,2.029,0,0,1-1.162,1.9A2.8,2.8,0,0,0,34.1-3.668,2.346,2.346,0,0,0,31.6-1.484c0,1.4,1.47,2.3,3.416,2.3,3.388,0,5.068-1.75,5.068-3.962,0-2.044-1.806-3.528-4.186-3.528a5.469,5.469,0,0,0-1.33.154c.882-.7,2.352-1.932,3.108-2.464.322-.238.658-.434.98-.644l-.91-1.246a6.117,6.117,0,0,1-1.064.154c-.8.07-3.794.126-4.536.126A9.715,9.715,0,0,1,30.87-10.668ZM-18.046,8.184a15.855,15.855,0,0,1-2.772,5.4,13.089,13.089,0,0,1,.8,1.792,11.192,11.192,0,0,0,.882-1.176v7h1.582V11.292c.392-.868.742-1.778,1.036-2.646Zm2.716,3.864a8,8,0,0,1,.826.672,7.714,7.714,0,0,0,.812-.84,9.28,9.28,0,0,0,1.036,1.078,10.636,10.636,0,0,1-2.674,1.036Zm4.914-1.162a5.455,5.455,0,0,1-1.12,1.288,6.583,6.583,0,0,1-1.344-1.288Zm2.786,0V9.542h-4.55a9.853,9.853,0,0,0,.448-1.05l-1.5-.35a8.511,8.511,0,0,1-2.1,3.262V9.92h-1.442v8.96h1.442V14.316a6.113,6.113,0,0,1,.728,1.008,12.071,12.071,0,0,0,3.192-1.442,10.569,10.569,0,0,0,3.332,1.33,6.71,6.71,0,0,1,.9-1.33,10.859,10.859,0,0,1-3.052-.938A7.591,7.591,0,0,0-8.68,10.886Zm-2.338,4.956a9.61,9.61,0,0,1-4.494,1.988,5.083,5.083,0,0,1,.812,1.036,10.2,10.2,0,0,0,4.872-2.534Zm-1.372-1.274a8.4,8.4,0,0,1-3.22,1.512,4.324,4.324,0,0,1,.882.952,9.057,9.057,0,0,0,3.556-1.96Zm2.38,2.856c-1.2,1.316-3.626,2.072-6.2,2.422a5.8,5.8,0,0,1,.84,1.316c2.856-.518,5.334-1.456,6.79-3.164Zm6.986-.574c-.448.154-.91.294-1.372.434v-2.8h1.26V12.958h-1.26V10.494h1.5V8.94h-4.62v1.554h1.54v2.464H-6.342v1.526h1.414v3.29c-.644.182-1.218.336-1.708.462l.378,1.694c1.344-.434,3.024-.966,4.564-1.512ZM.182,12.622H1.624v1.2H.182Zm0-2.478H1.624V11.32H.182ZM4.41,11.32H3.024V10.144H4.41Zm0,2.506H3.024v-1.2H4.41ZM3.178,19.272v-1.33H6.146v-1.5H3.178v-1.2H5.992V8.73H-1.316v6.51h2.8v1.2h-2.9v1.5h2.9v1.33H-2.38v1.512h9V19.272Zm17.094-8.778A12.645,12.645,0,0,0,18.256,8.24l-1.246.77a11.912,11.912,0,0,1,1.918,2.352ZM10.99,8.254a14.633,14.633,0,0,1-3.822,5.46,10.693,10.693,0,0,1,.924,1.694A13.192,13.192,0,0,0,9.548,13.84v7.35h1.736V11.348a22.243,22.243,0,0,0,1.3-2.576Zm9.492,5.026-.238-1.568-3.99.518c-.1-1.19-.154-2.506-.182-3.878H14.378c.042,1.47.126,2.842.224,4.1l-2.828.378.238,1.61,2.758-.378c.5,4.27,1.61,6.9,3.976,7.126.784.042,1.54-.6,1.89-3.3a5.728,5.728,0,0,1-1.358-.952c-.112,1.554-.28,2.254-.6,2.226-1.12-.14-1.862-2.212-2.254-5.32Z" transform="translate(-20241 6956.069)" fill="#fff"/>
      <g id="Group_440" data-name="Group 440" transform="translate(-20927.27 2483.273)">
        <path id="Path_22" data-name="Path 22" d="M-12642.582-3699.807l4.363,4.363-4.363,4.364" transform="translate(13131.99 8122.603)" fill="none" stroke="#fff" stroke-linecap="round" stroke-linejoin="round" stroke-width="1"/>
        <line id="Line_30" data-name="Line 30" x2="12.979" transform="translate(480.792 4427.159)" fill="none" stroke="#fff" stroke-linecap="round" stroke-width="1"/>
      </g>
      <g id="Group_441" data-name="Group 441" transform="translate(-20786.293 2480.5)">
        <path id="Path_22-2" data-name="Path 22" d="M-12642.582-3699.807l4.363,4.363-4.363,4.364" transform="translate(13131.99 8122.603)" fill="none" stroke="#fff" stroke-linecap="round" stroke-linejoin="round" stroke-width="1"/>
        <line id="Line_30-2" data-name="Line 30" x2="12.979" transform="translate(480.792 4427.159)" fill="none" stroke="#fff" stroke-linecap="round" stroke-width="1"/>
      </g>
    </g>
  </g>
</svg>
