<svg xmlns="http://www.w3.org/2000/svg" width="320.17" height="150.909" viewBox="0 0 320.17 150.909">
  <g id="Group_437" data-name="Group 437" transform="translate(-368 -5531.745)">
    <path id="Path_494" data-name="Path 494" d="M44.777,0,0,32.38" transform="translate(404.223 5569.384)" fill="none" stroke="#fff" stroke-width="1" stroke-dasharray="3" opacity="0.33"/>
    <path id="Path_496" data-name="Path 496" d="M15.016,0,0,33.615" transform="translate(488.762 5569.384)" fill="none" stroke="#fff" stroke-width="1" stroke-dasharray="3" opacity="0.33"/>
    <path id="Path_497" data-name="Path 497" d="M0,0,48.173,32.38" transform="translate(602 5569.384)" fill="#fff" stroke="#fff" stroke-width="1" stroke-dasharray="3" opacity="0.33"/>
    <path id="Path_498" data-name="Path 498" d="M0,0,4.223,9.454,15.016,33.615" transform="translate(548.141 5569.384)" fill="none" stroke="#fff" stroke-width="1" stroke-dasharray="3" opacity="0.33"/>
    <g id="Group_434" data-name="Group 434" transform="translate(632.408 5599.501)">
      <g id="Path_502" data-name="Path 502" transform="translate(-0.408 0.243)" fill="none">
        <path d="M27,0A27,27,0,1,1,0,27,27,27,0,0,1,27,0Z" stroke="none"/>
        <path d="M 27 2 C 23.6241397857666 2 20.35031890869141 2.660720825195312 17.26948165893555 3.963798522949219 C 14.29273986816406 5.222858428955078 11.61893081665039 7.025730133056641 9.322330474853516 9.322330474853516 C 7.025730133056641 11.61893081665039 5.222858428955078 14.29273986816406 3.963798522949219 17.26948165893555 C 2.660720825195312 20.35031890869141 2 23.6241397857666 2 27 C 2 30.3758602142334 2.660720825195312 33.64968109130859 3.963798522949219 36.73052215576172 C 5.222858428955078 39.70726013183594 7.025730133056641 42.38106918334961 9.322330474853516 44.67766952514648 C 11.61893081665039 46.97426986694336 14.29273986816406 48.77714157104492 17.26948165893555 50.03620147705078 C 20.35031890869141 51.33927917480469 23.6241397857666 52 27 52 C 30.3758602142334 52 33.64968109130859 51.33927917480469 36.73052215576172 50.03620147705078 C 39.70726013183594 48.77714157104492 42.38106918334961 46.97426986694336 44.67766952514648 44.67766952514648 C 46.97426986694336 42.38106918334961 48.77714157104492 39.70726013183594 50.03620147705078 36.73052215576172 C 51.33927917480469 33.64968109130859 52 30.3758602142334 52 27 C 52 23.6241397857666 51.33927917480469 20.35031890869141 50.03620147705078 17.26948165893555 C 48.77714157104492 14.29273986816406 46.97426986694336 11.61893081665039 44.67766952514648 9.322330474853516 C 42.38106918334961 7.025730133056641 39.70726013183594 5.222858428955078 36.73052215576172 3.963798522949219 C 33.64968109130859 2.660720825195312 30.3758602142334 2 27 2 M 27 0 C 41.91168975830078 0 54 12.08831024169922 54 27 C 54 41.91168975830078 41.91168975830078 54 27 54 C 12.08831024169922 54 0 41.91168975830078 0 27 C 0 12.08831024169922 12.08831024169922 0 27 0 Z" stroke="none" fill="#fff"/>
      </g>
      <rect id="Rectangle_177" data-name="Rectangle 177" width="38" height="4" transform="translate(8.592 16.243)" fill="#fff"/>
      <rect id="Rectangle_178" data-name="Rectangle 178" width="12" height="6" transform="translate(21.592 35.243)" fill="#fff"/>
      <path id="Polygon_8" data-name="Polygon 8" d="M19,0,38,13H0Z" transform="translate(8.592 22.243)" fill="#fff"/>
      <path id="Path_520" data-name="Path 520" d="M13.11,3.56a11.325,11.325,0,0,1-1.98,3.86A9.35,9.35,0,0,1,11.7,8.7a7.994,7.994,0,0,0,.63-.84v5h1.13V5.78c.28-.62.53-1.27.74-1.89Zm1.94,2.76a5.714,5.714,0,0,1,.59.48,5.51,5.51,0,0,0,.58-.6,6.628,6.628,0,0,0,.74.77,7.6,7.6,0,0,1-1.91.74Zm3.51-.83a3.9,3.9,0,0,1-.8.92,4.7,4.7,0,0,1-.96-.92Zm1.99,0V4.53H17.3a7.038,7.038,0,0,0,.32-.75l-1.07-.25a6.079,6.079,0,0,1-1.5,2.33V4.8H14.02v6.4h1.03V7.94a4.366,4.366,0,0,1,.52.72,8.622,8.622,0,0,0,2.28-1.03,7.549,7.549,0,0,0,2.38.95,4.793,4.793,0,0,1,.64-.95,7.757,7.757,0,0,1-2.18-.67A5.422,5.422,0,0,0,19.8,5.49ZM18.88,9.03a6.864,6.864,0,0,1-3.21,1.42,3.631,3.631,0,0,1,.58.74,7.284,7.284,0,0,0,3.48-1.81Zm-.98-.91A6,6,0,0,1,15.6,9.2a3.089,3.089,0,0,1,.63.68,6.469,6.469,0,0,0,2.54-1.4Zm1.7,2.04c-.86.94-2.59,1.48-4.43,1.73a4.145,4.145,0,0,1,.6.94,8.18,8.18,0,0,0,4.85-2.26Zm4.99-.41c-.32.11-.65.21-.98.31v-2h.9V6.97h-.9V5.21h1.07V4.1h-3.3V5.21h1.1V6.97H21.47V8.06h1.01v2.35c-.46.13-.87.24-1.22.33l.27,1.21c.96-.31,2.16-.69,3.26-1.08Zm1.54-3.02h1.03v.86H26.13Zm0-1.77h1.03V5.8H26.13Zm3.02.84h-.99V4.96h.99Zm0,1.79h-.99V6.73h.99Zm-.88,3.89v-.95h2.12V9.46H28.27V8.6h2.01V3.95H25.06V8.6h2v.86H24.99v1.07h2.07v.95H24.3v1.08h6.43V11.48Zm5.63-1.22h4.3v.41H33.9Zm2.64-3.41v.66H34.72a2.027,2.027,0,0,0,.49-.66ZM33.32,5.76h1.02a1.226,1.226,0,0,1-.06.39H33.19Zm2.11-1.09h1.11v.4H35.43Zm3.28,0v.4H37.67v-.4ZM36.54,6.15H35.4l.03-.39h1.11Zm2.73.7a.61.61,0,0,1-.09.29.229.229,0,0,1-.21.07,2.951,2.951,0,0,1-.55-.03,2.09,2.09,0,0,1,.12.33h-.87V6.85ZM38.2,8.58H33.9V8.19h4.3Zm0,1.04H33.9v-.4h4.3Zm1.21,1.73V7.9c.06,0,.11-.01.15-.01a.891.891,0,0,0,.58-.24c.17-.18.23-.54.28-1.19.01-.11.02-.31.02-.31H37.67V5.76h2.12V3.97H37.67V3.54H36.54v.43H35.43V3.54H34.35v.43H32.08v.7h2.27v.4h-1.9a15.112,15.112,0,0,1-.63,1.8l1.08.07.03-.09h.88a4.849,4.849,0,0,1-2.37.74,4.622,4.622,0,0,1,.56.92c.27-.04.51-.08.74-.13v2.97H34.1a13.576,13.576,0,0,1-2.65.7,7.684,7.684,0,0,1,.86.85,12.78,12.78,0,0,0,3.12-1.19l-.79-.36h2.67l-.76.47a21.1,21.1,0,0,1,2.67,1.06l1.32-.57c-.63-.27-1.68-.65-2.64-.96ZM46.7,8.83V7.6h2.11V8.83Zm-3.11,0c.02-.37.03-.73.03-1.05V7.6H45.5V8.83Zm1.91-3.5V6.49H43.62V5.33Zm3.31,1.16H46.7V5.33h2.11ZM49.99,4.2H42.44V7.77c0,1.4-.09,3.18-1.18,4.38a4.393,4.393,0,0,1,.94.77,5.727,5.727,0,0,0,1.26-2.97H45.5v2.79h1.2V9.95h2.11v1.5c0,.18-.07.24-.26.24s-.84.01-1.4-.02a4.5,4.5,0,0,1,.38,1.14,4.644,4.644,0,0,0,1.92-.21c.4-.18.54-.5.54-1.14ZM60.27,8.48a3.808,3.808,0,0,0-4.04-3.9,4.443,4.443,0,0,0-4.59,4.28c0,1.69.92,2.91,2.03,2.91,1.09,0,1.95-1.24,2.55-3.26a20.223,20.223,0,0,0,.6-2.71,2.472,2.472,0,0,1,2.1,2.64,2.714,2.714,0,0,1-2.28,2.68,7.691,7.691,0,0,1-.93.16l.75,1.19C58.98,12.08,60.27,10.59,60.27,8.48Zm-7.35.25a3.148,3.148,0,0,1,2.54-2.9,15.01,15.01,0,0,1-.53,2.42c-.41,1.35-.8,1.98-1.22,1.98C53.32,10.23,52.92,9.74,52.92,8.73ZM11.32,23.18V19.72h3.53V18.51H11.32V15.65H10.04v7.53H6.46v1.2h9.09v-1.2Zm7.97-7.27-.17.05H16.76v8.91h1.11V17.02h.88c-.18.7-.41,1.6-.62,2.24a2.629,2.629,0,0,1,.74,1.76.681.681,0,0,1-.18.56.5.5,0,0,1-.29.09c-.13,0-.28,0-.47-.01a2.6,2.6,0,0,1,.27,1.06,5.044,5.044,0,0,0,.69-.02,1.284,1.284,0,0,0,.59-.23,1.437,1.437,0,0,0,.46-1.3,2.977,2.977,0,0,0-.77-2.04c.31-.78.65-1.88.93-2.75Zm2.24,2.85h2.32v.84H21.53ZM23.85,17v.79H21.53V17Zm.72,3.69a8.868,8.868,0,0,1-.9.99,6.989,6.989,0,0,1-.38-1.06h1.74V15.97H20.39V23.4c-.39.06-.74.12-1.04.16l.39,1.15c.94-.21,2.17-.46,3.32-.73l-.09-1.04c-.48.09-.97.18-1.44.26V20.62h.72c.45,1.95,1.23,3.44,2.7,4.22a4.224,4.224,0,0,1,.77-1.01,3.785,3.785,0,0,1-1.57-1.31,17.6,17.6,0,0,0,1.35-1.17Zm5.75.87v2H28.97l.82-.35a6.746,6.746,0,0,0-.92-1.65Zm-1.13-3.05a10.432,10.432,0,0,0,1.77-1.85,10.67,10.67,0,0,0,1.84,1.85Zm3.77,3.05a10.386,10.386,0,0,1-.95,1.73l.65.27H31.57v-2h3.08V20.54H31.57v-.99h1.91v-.52a12.639,12.639,0,0,0,1.52.95,5.586,5.586,0,0,1,.79-1.07,10.217,10.217,0,0,1-4.27-3.41H30.29a10.665,10.665,0,0,1-4.04,3.53,4.661,4.661,0,0,1,.74.96,12.78,12.78,0,0,0,1.49-.93v.49h1.84v.99H27.28v1.02h1.53l-.91.39a6.87,6.87,0,0,1,.83,1.61H26.78v1.02h8.46V23.56H32.98c.35-.42.74-1.03,1.12-1.58Zm11.22-2.45H42.2V18.5h1.98Zm0,1.43H42.2v-.61h1.98Zm0,1.46H42.2v-.62h1.98Zm-3.05-4.39v5.27H45.3V17.61H43.53c.08-.21.16-.44.24-.68H45.5V15.92H40.83v1.01h1.68c-.04.22-.08.46-.12.68Zm-3.71-.33h2.39v.69h.99V16.36H39.17v-.81H38.06v.81h-1.6v1.61h.96Zm1.8,6.09H38.01v-.92h1.21Zm-1.19-1.84a7.271,7.271,0,0,0,.84-.65c.3.23.6.45.85.65Zm1.2-2.66a4.274,4.274,0,0,1-.49.71l-.69-.45c.07-.09.14-.17.21-.26Zm1,3.08.02.02.67-.83a15.709,15.709,0,0,0-1.36-1,5.819,5.819,0,0,0,.99-1.8l-.67-.31-.18.05h-.93a3.947,3.947,0,0,0,.23-.46l-.97-.24a4.809,4.809,0,0,1-1.83,2.09,4.486,4.486,0,0,1,.75.69,4.58,4.58,0,0,0,.43-.34l.66.46a5.931,5.931,0,0,1-1.84,1.05,3.433,3.433,0,0,1,.6.85l.21-.09v2.59h1v-.4h2.22a7.053,7.053,0,0,1,.55.57,7.111,7.111,0,0,0,2.13-1.33l-.96-.6a5.667,5.667,0,0,1-1.72,1.1Zm3.12,1.56a11.019,11.019,0,0,1,1.56,1.37l.92-.61a12.589,12.589,0,0,0-1.62-1.3Zm7.37-7.56-1.38-.14a8.409,8.409,0,0,1-.27,1.67c-.31.03-.61.04-.91.04a12.633,12.633,0,0,1-1.33-.07l.09,1.16c.43.03.84.04,1.25.04.17,0,.34,0,.52-.01a15.755,15.755,0,0,1-2.04,3.53l1.21.62A18.426,18.426,0,0,0,50,18.51a17.349,17.349,0,0,0,1.75-.35L51.71,17a12.26,12.26,0,0,1-1.35.32C50.51,16.78,50.64,16.27,50.72,15.95Zm-.52,6.92c0-.35.37-.61.95-.61a3.592,3.592,0,0,1,.81.1v.2c0,.55-.21.93-.9.93C50.51,23.49,50.2,23.24,50.2,22.87Zm2.86-3.81H51.81c.02.61.07,1.5.11,2.24-.23-.02-.45-.04-.69-.04-1.39,0-2.21.75-2.21,1.73,0,1.1.98,1.65,2.22,1.65,1.42,0,1.93-.72,1.93-1.65v-.1a8.478,8.478,0,0,1,1.35,1.07l.67-1.07a6.539,6.539,0,0,0-2.07-1.28c-.02-.5-.05-.98-.06-1.27C53.05,19.9,53.03,19.48,53.06,19.06Zm1.72.53.71-1.05a17.225,17.225,0,0,0-2.47-1.36l-.64.99A14.433,14.433,0,0,1,54.78,19.59Zm4.93-3.52-1.61-.02a6.378,6.378,0,0,1,.13,1.35c0,.86-.1,3.49-.1,4.83,0,1.71,1.06,2.43,2.7,2.43a5.177,5.177,0,0,0,4.34-2.3l-.91-1.1a4,4,0,0,1-3.42,2.04,1.209,1.209,0,0,1-1.38-1.34c0-1.24.08-3.48.12-4.56C59.6,17,59.65,16.49,59.71,16.07Z" transform="translate(-9.408 58.243)" fill="#fff"/>
    </g>
    <g id="Group_435" data-name="Group 435" transform="translate(537.976 5596.803)">
      <path id="Path_519" data-name="Path 519" d="M18.236,35.047a12.761,12.761,0,0,1-3.669,4.2,7.1,7.1,0,0,1-3.889,1.033,6.772,6.772,0,0,1-5.6-2.725,8.88,8.88,0,0,1-1.824-5.647A8.487,8.487,0,0,1,5.69,25.6,7.075,7.075,0,0,1,10.9,23.49a7.537,7.537,0,0,1,4.5,1.384,12.891,12.891,0,0,1,3.34,3.845,11.486,11.486,0,0,1,3.516-4.2,7.1,7.1,0,0,1,3.889-1.033,6.923,6.923,0,0,1,5.779,2.637,9.066,9.066,0,0,1,1.78,5.779,8.352,8.352,0,0,1-2.483,6.262,7.323,7.323,0,0,1-5.3,2.109,7.375,7.375,0,0,1-4.526-1.34A12.24,12.24,0,0,1,18.236,35.047ZM16.742,32.5a17.725,17.725,0,0,0-3.384-5.12,4.21,4.21,0,0,0-2.9-1.055,4.187,4.187,0,0,0-3.45,1.67,6.159,6.159,0,0,0-1.187,3.911,6.15,6.15,0,0,0,1.626,4.482,4.445,4.445,0,0,0,3.318,1.406Q14.369,37.794,16.742,32.5Zm3.428-1.143a16.234,16.234,0,0,0,3.252,4.988,4.439,4.439,0,0,0,3.032,1.1,4.246,4.246,0,0,0,3.472-1.714,6,6,0,0,0,1.208-3.823A6.357,6.357,0,0,0,29.6,27.357a4.4,4.4,0,0,0-3.362-1.384,4.84,4.84,0,0,0-3.428,1.362A13.59,13.59,0,0,0,20.17,31.356Z" transform="translate(15.023 -1.06)" fill="#fff"/>
      <g id="Path_501" data-name="Path 501" transform="translate(6.023 2.94)" fill="none">
        <path d="M27,0A27,27,0,1,1,0,27,27,27,0,0,1,27,0Z" stroke="none"/>
        <path d="M 27 2 C 23.6241397857666 2 20.35031890869141 2.660720825195312 17.26948165893555 3.963798522949219 C 14.29273986816406 5.222858428955078 11.61893081665039 7.025730133056641 9.322330474853516 9.322330474853516 C 7.025730133056641 11.61893081665039 5.222858428955078 14.29273986816406 3.963798522949219 17.26948165893555 C 2.660720825195312 20.35031890869141 2 23.6241397857666 2 27 C 2 30.3758602142334 2.660720825195312 33.64968109130859 3.963798522949219 36.73052215576172 C 5.222858428955078 39.70726013183594 7.025730133056641 42.38106918334961 9.322330474853516 44.67766952514648 C 11.61893081665039 46.97426986694336 14.29273986816406 48.77714157104492 17.26948165893555 50.03620147705078 C 20.35031890869141 51.33927917480469 23.6241397857666 52 27 52 C 30.3758602142334 52 33.64968109130859 51.33927917480469 36.73052215576172 50.03620147705078 C 39.70726013183594 48.77714157104492 42.38106918334961 46.97426986694336 44.67766952514648 44.67766952514648 C 46.97426986694336 42.38106918334961 48.77714157104492 39.70726013183594 50.03620147705078 36.73052215576172 C 51.33927917480469 33.64968109130859 52 30.3758602142334 52 27 C 52 23.6241397857666 51.33927917480469 20.35031890869141 50.03620147705078 17.26948165893555 C 48.77714157104492 14.29273986816406 46.97426986694336 11.61893081665039 44.67766952514648 9.322330474853516 C 42.38106918334961 7.025730133056641 39.70726013183594 5.222858428955078 36.73052215576172 3.963798522949219 C 33.64968109130859 2.660720825195312 30.3758602142334 2 27 2 M 27 0 C 41.91168975830078 0 54 12.08831024169922 54 27 C 54 41.91168975830078 41.91168975830078 54 27 54 C 12.08831024169922 54 0 41.91168975830078 0 27 C 0 12.08831024169922 12.08831024169922 0 27 0 Z" stroke="none" fill="#fff"/>
      </g>
      <path id="Path_518" data-name="Path 518" d="M19.06,3.55A10.546,10.546,0,0,1,16.7,7.29a7.949,7.949,0,0,1,.64,1.22,11.4,11.4,0,0,0,.76-.89v5.23h1.13V5.88a16.72,16.72,0,0,0,.93-1.97Zm2.43,1.46h2.93V6.35H21.49ZM26.1,9.38V8.3H23.52V7.4h2.09V3.96H20.36V7.4h1.96v.9H19.7V9.38h2.05a7.184,7.184,0,0,1-2.41,2.16,4.911,4.911,0,0,1,.82.95,8.019,8.019,0,0,0,2.16-2.15v2.53h1.2V10.29a8.257,8.257,0,0,0,2.03,2.22,5.063,5.063,0,0,1,.84-.95A7.526,7.526,0,0,1,24.1,9.38Zm4.08-5.54H27.36v.9h2.82Zm-.95,6.55v1.14h-.96V10.39Zm1.02-.94H27.27v3.41h1v-.39h1.98ZM27.3,8.94h2.88v-.9H27.3Zm2.88-2.29H27.3v.89h2.88Zm-3.35-.49h3.71V5.22H26.83Zm7.39,5.25V8.65h1.73V7.53H34.22V5.17H36V4.04H30.85V5.17h2.2v6.24h-.76V6.67H31.18v4.74h-.61v1.11h5.62V11.41ZM38.8,8.78h1.24v.68H38.8Zm1.24-3.03v.58H38.8V5.75ZM38.8,7.24h1.24v.63H38.8Zm2.94,2.22h-.61V5.75h.68V4.71h-.68V3.65H40.04V4.71H38.8V3.65H37.73V4.71h-.78V5.75h.78V9.46h-.9V10.5h4.91Zm-3.67,1.11a4.627,4.627,0,0,1-1.32,1.62,6.713,6.713,0,0,1,.95.71,7.035,7.035,0,0,0,1.48-2ZM43.25,8.5c.01-.31.01-.6.01-.86V7.27H44.7V8.5ZM44.7,5.05V6.22H43.26V5.05Zm1.15-1.08h-3.7V7.64a10.65,10.65,0,0,1-.63,4.24,10.9,10.9,0,0,0-1.08-1.36l-.9.49a9.942,9.942,0,0,1,1.07,1.51l.83-.47c-.03.06-.07.11-.1.17a3.436,3.436,0,0,1,.94.67,8.207,8.207,0,0,0,.9-3.33H44.7v1.97c0,.16-.05.21-.2.21s-.62.01-1.05-.02a4.309,4.309,0,0,1,.34,1.13,3.437,3.437,0,0,0,1.6-.21c.35-.19.46-.5.46-1.09Zm4.18.8V5.3H48.49V4.77Zm-1.54,1.9V6.1h1.54v.57Zm2.65.85V3.91H47.31v8.96h1.18V7.52Zm1.82-.83V6.1h1.59v.59Zm1.59-1.92V5.3H52.96V4.77Zm-3.9,6.3v-.62H52.3v.62ZM52.3,9.6H50.65V9H52.3Zm3.45-5.69H51.83V7.54h2.72v3.91c0,.16-.06.22-.24.22-.13.01-.5.01-.89,0V8.13l-3.36-.01v.01h-.49v4.32h1.08v-.51h2.48a4.4,4.4,0,0,1,.26.93,4.321,4.321,0,0,0,1.83-.23c.4-.19.53-.54.53-1.18Zm6.36,4.67V6.43h2.26V8.58Zm-3.51,0V6.43h2.25V8.58Zm3.51-3.32V3.53H60.85V5.26H57.4V10.3h1.2V9.75h2.25v3.12h1.26V9.75h2.26v.5h1.25V5.26Zm9.13,5.44c0-.38.38-.62.95-.62a3.087,3.087,0,0,1,.8.11v.18c0,.59-.21.91-.82.91C71.64,11.28,71.24,11.11,71.24,10.7Zm2.97-6.53H72.78a4.246,4.246,0,0,1,.07.66c0,.21.01.62.01,1.11-.23.01-.47.01-.7.01a16.662,16.662,0,0,1-1.75-.09V7.05c.59.04,1.16.06,1.75.06.23,0,.47,0,.71-.01.01.71.05,1.44.07,2.06a4.449,4.449,0,0,0-.65-.04c-1.36,0-2.22.7-2.22,1.71,0,1.05.86,1.63,2.24,1.63,1.35,0,1.89-.68,1.95-1.64a10.489,10.489,0,0,1,1.22,1.01l.69-1.05a6.545,6.545,0,0,0-1.94-1.29c-.04-.68-.09-1.48-.11-2.45.55-.04,1.07-.1,1.55-.17V5.62a13.7,13.7,0,0,1-1.55.23c.01-.44.02-.81.03-1.03A6.263,6.263,0,0,1,74.21,4.17Zm-4.88.11-1.38-.12a9.537,9.537,0,0,1-.1.98,31.669,31.669,0,0,0-.41,4.17,11.745,11.745,0,0,0,.4,3.2l1.13-.09c-.01-.14-.02-.31-.02-.41a2.791,2.791,0,0,1,.05-.47c.12-.54.44-1.56.72-2.38l-.61-.5c-.15.34-.32.68-.45,1.03a4.726,4.726,0,0,1-.04-.65,26.694,26.694,0,0,1,.48-3.87A6.493,6.493,0,0,1,69.33,4.28ZM3.61,15.56a11.325,11.325,0,0,1-1.98,3.86A9.35,9.35,0,0,1,2.2,20.7a8,8,0,0,0,.63-.84v5H3.96V17.78c.28-.62.53-1.27.74-1.89Zm1.94,2.76a5.714,5.714,0,0,1,.59.48,5.51,5.51,0,0,0,.58-.6,6.628,6.628,0,0,0,.74.77,7.6,7.6,0,0,1-1.91.74Zm3.51-.83a3.9,3.9,0,0,1-.8.92,4.7,4.7,0,0,1-.96-.92Zm1.99,0v-.96H7.8a7.038,7.038,0,0,0,.32-.75l-1.07-.25a6.079,6.079,0,0,1-1.5,2.33V16.8H4.52v6.4H5.55V19.94a4.367,4.367,0,0,1,.52.72,8.622,8.622,0,0,0,2.28-1.03,7.549,7.549,0,0,0,2.38.95,4.793,4.793,0,0,1,.64-.95,7.757,7.757,0,0,1-2.18-.67,5.422,5.422,0,0,0,1.11-1.47ZM9.38,21.03a6.864,6.864,0,0,1-3.21,1.42,3.631,3.631,0,0,1,.58.74,7.284,7.284,0,0,0,3.48-1.81Zm-.98-.91A6,6,0,0,1,6.1,21.2a3.089,3.089,0,0,1,.63.68,6.469,6.469,0,0,0,2.54-1.4Zm1.7,2.04c-.86.94-2.59,1.48-4.43,1.73a4.145,4.145,0,0,1,.6.94,8.18,8.18,0,0,0,4.85-2.26Zm4.99-.41c-.32.11-.65.21-.98.31v-2h.9V18.97h-.9V17.21h1.07V16.1h-3.3v1.11h1.1v1.76H11.97v1.09h1.01v2.35c-.46.13-.87.24-1.22.33l.27,1.21c.96-.31,2.16-.69,3.26-1.08Zm1.54-3.02h1.03v.86H16.63Zm0-1.77h1.03v.84H16.63Zm3.02.84h-.99v-.84h.99Zm0,1.79h-.99v-.86h.99Zm-.88,3.89v-.95h2.12V21.46H18.77V20.6h2.01V15.95H15.56V20.6h2v.86H15.49v1.07h2.07v.95H14.8v1.08h6.43V23.48Zm8.54-2.45H25.55V19.3h1.76Zm-2.88-2.77v3.8h4.08v-3.8Zm-.96,4.96V17.08h6.01v6.14Zm-1.24-7.36v9h1.24v-.53h6.01v.53h1.3v-9Zm14.63,5.82v-.96c.06.06.1.11.14.15a6.343,6.343,0,0,0,.46-.72,10.587,10.587,0,0,0,.68,1.97,4.912,4.912,0,0,1-1.76,1.51,9.313,9.313,0,0,0-.83-.53,4.042,4.042,0,0,0,.53-1.42Zm-2.87,0h.97a3.041,3.041,0,0,1-.38.91c-.29-.14-.58-.26-.88-.38Zm5.38-3.25a10.7,10.7,0,0,1-.54,2.35,12.618,12.618,0,0,1-.61-2.35Zm1.79,0v-1.1H38.5c.13-.53.24-1.08.32-1.64l-1.2-.16a9.26,9.26,0,0,1-1.57,4.5,6.934,6.934,0,0,1,.81.69H34.48l.24-.48-.43-.09h.64V18.94c.39.31.81.66,1.03.87l.63-.82c-.22-.15-.93-.57-1.41-.84h1.64v-.94h-.95c.24-.31.55-.73.86-1.16l-1-.4a9.659,9.659,0,0,1-.67,1.27l.66.29h-.79V15.53H33.84v1.68H33l.64-.28a4.26,4.26,0,0,0-.6-1.24l-.86.36a5.327,5.327,0,0,1,.52,1.16h-.76v.94H33.5a5.312,5.312,0,0,1-1.76,1.25,3.6,3.6,0,0,1,.6.86,7.207,7.207,0,0,0,1.5-1.16v.96l-.22-.05c-.1.22-.22.46-.34.71H31.83v.96h.95c-.25.48-.5.93-.72,1.28l1.04.32.11-.19a5.766,5.766,0,0,1,.56.27,5.255,5.255,0,0,1-1.9.54,2.627,2.627,0,0,1,.47.98,6.135,6.135,0,0,0,2.46-.95,9.477,9.477,0,0,1,1.04.75l.45-.46a4.516,4.516,0,0,1,.38.68,6.5,6.5,0,0,0,2.11-1.64,5.428,5.428,0,0,0,1.68,1.59,4.592,4.592,0,0,1,.82-1.03,4.693,4.693,0,0,1-1.77-1.66,11.252,11.252,0,0,0,1.09-3.73Zm9.61,2.05a3.808,3.808,0,0,0-4.04-3.9,4.443,4.443,0,0,0-4.59,4.28c0,1.69.92,2.91,2.03,2.91,1.09,0,1.95-1.24,2.55-3.26a20.223,20.223,0,0,0,.6-2.71,2.472,2.472,0,0,1,2.1,2.64,2.714,2.714,0,0,1-2.28,2.68,7.692,7.692,0,0,1-.93.16l.75,1.19C49.48,24.08,50.77,22.59,50.77,20.48Zm-7.35.25a3.148,3.148,0,0,1,2.54-2.9,15.01,15.01,0,0,1-.53,2.42c-.41,1.35-.8,1.98-1.22,1.98C43.82,22.23,43.42,21.74,43.42,20.73Zm9.39-2.05c.11-.22.23-.47.34-.75h1.01v.75Zm2.48-.75h1.79V16.85H55.29V15.59H54.16v1.26h-.64a9.318,9.318,0,0,0,.23-.91l-1.09-.23a7.808,7.808,0,0,1-.92,2.59,9.244,9.244,0,0,1,.9.38h-.75v1.07h2.27v.73H52.28v3.59h1.06V21.54h.82v3.32h1.13V21.54h.88V23c0,.1-.03.12-.12.12a4.512,4.512,0,0,1-.62-.01,3.74,3.74,0,0,1,.29,1.01,2.18,2.18,0,0,0,1.16-.18c.29-.17.36-.45.36-.91V20.48H55.29v-.73h2.19V18.68H55.29Zm3.75-1.58H57.93v5.63h1.11Zm.68-.65v7.75c0,.17-.06.21-.22.22s-.69,0-1.2-.02a5.222,5.222,0,0,1,.35,1.2,4.1,4.1,0,0,0,1.72-.23c.36-.2.49-.52.49-1.16V15.7Zm5.07.21-.17.05H62.26v8.91h1.11V17.02h.88c-.18.7-.41,1.6-.62,2.24a2.629,2.629,0,0,1,.74,1.76.681.681,0,0,1-.18.56.5.5,0,0,1-.29.09c-.13,0-.28,0-.47-.01a2.6,2.6,0,0,1,.27,1.06,5.044,5.044,0,0,0,.69-.02,1.284,1.284,0,0,0,.59-.23,1.437,1.437,0,0,0,.46-1.3,2.977,2.977,0,0,0-.77-2.04c.31-.78.65-1.88.93-2.75Zm2.24,2.85h2.32v.84H67.03ZM69.35,17v.79H67.03V17Zm.72,3.69a8.868,8.868,0,0,1-.9.99,6.989,6.989,0,0,1-.38-1.06h1.74V15.97H65.89V23.4c-.39.06-.74.12-1.04.16l.39,1.15c.94-.21,2.17-.46,3.32-.73l-.09-1.04c-.48.09-.97.18-1.44.26V20.62h.72c.45,1.95,1.23,3.44,2.7,4.22a4.224,4.224,0,0,1,.77-1.01,3.785,3.785,0,0,1-1.57-1.31A17.6,17.6,0,0,0,71,21.35Zm6.15-4.74-1.38-.14a8.409,8.409,0,0,1-.27,1.67c-.31.03-.61.04-.91.04a12.633,12.633,0,0,1-1.33-.07l.09,1.16c.43.03.84.04,1.25.04.17,0,.34,0,.52-.01a15.755,15.755,0,0,1-2.04,3.53l1.21.62a18.426,18.426,0,0,0,2.14-4.28,17.349,17.349,0,0,0,1.75-.35L77.21,17a12.26,12.26,0,0,1-1.35.32C76.01,16.78,76.14,16.27,76.22,15.95Zm-.52,6.92c0-.35.37-.61.95-.61a3.592,3.592,0,0,1,.81.1v.2c0,.55-.21.93-.9.93C76.01,23.49,75.7,23.24,75.7,22.87Zm2.86-3.81H77.31c.02.61.07,1.5.11,2.24-.23-.02-.45-.04-.69-.04-1.39,0-2.21.75-2.21,1.73,0,1.1.98,1.65,2.22,1.65,1.42,0,1.93-.72,1.93-1.65v-.1a8.478,8.478,0,0,1,1.35,1.07l.67-1.07a6.539,6.539,0,0,0-2.07-1.28c-.02-.5-.05-.98-.06-1.27C78.55,19.9,78.53,19.48,78.56,19.06Zm1.72.53.71-1.05a17.225,17.225,0,0,0-2.47-1.36l-.64.99A14.433,14.433,0,0,1,80.28,19.59Zm4.93-3.52-1.61-.02a6.378,6.378,0,0,1,.13,1.35c0,.86-.1,3.49-.1,4.83,0,1.71,1.06,2.43,2.7,2.43a5.177,5.177,0,0,0,4.34-2.3l-.91-1.1a4,4,0,0,1-3.42,2.04,1.209,1.209,0,0,1-1.38-1.34c0-1.24.08-3.48.12-4.56C85.1,17,85.15,16.49,85.21,16.07Z" transform="translate(-12.977 60.94)" fill="#fff"/>
    </g>
    <g id="Group_433" data-name="Group 433" transform="translate(450.739 5594.104)">
      <g id="Ellipse_47" data-name="Ellipse 47" transform="translate(2.262 5.639)" fill="none" stroke="#fff" stroke-width="2">
        <circle cx="27" cy="27" r="27" stroke="none"/>
        <circle cx="27" cy="27" r="26" fill="none"/>
      </g>
      <path id="Path_517" data-name="Path 517" d="M30.025,17.491l-7.8,14.282h5.933v3.538H21.1v4.021h7.053V42.87H21.1V49h-5.01V42.87H8.821V39.332h7.273V35.311H8.821V31.773h6.042L7.217,17.491H12.71l5.076,10.854a22.514,22.514,0,0,1,.945,2.351h.088a21.728,21.728,0,0,1,.989-2.483l5.032-10.723Z" transform="translate(11.262 1.64)" fill="#fff"/>
      <path id="Path_516" data-name="Path 516" d="M6.11,3.56A11.325,11.325,0,0,1,4.13,7.42,9.35,9.35,0,0,1,4.7,8.7a7.994,7.994,0,0,0,.63-.84v5H6.46V5.78c.28-.62.53-1.27.74-1.89ZM8.05,6.32a5.714,5.714,0,0,1,.59.48,5.51,5.51,0,0,0,.58-.6,6.628,6.628,0,0,0,.74.77,7.6,7.6,0,0,1-1.91.74Zm3.51-.83a3.9,3.9,0,0,1-.8.92,4.7,4.7,0,0,1-.96-.92Zm1.99,0V4.53H10.3a7.038,7.038,0,0,0,.32-.75L9.55,3.53a6.079,6.079,0,0,1-1.5,2.33V4.8H7.02v6.4H8.05V7.94a4.366,4.366,0,0,1,.52.72,8.622,8.622,0,0,0,2.28-1.03,7.549,7.549,0,0,0,2.38.95,4.793,4.793,0,0,1,.64-.95,7.757,7.757,0,0,1-2.18-.67A5.422,5.422,0,0,0,12.8,5.49ZM11.88,9.03a6.864,6.864,0,0,1-3.21,1.42,3.631,3.631,0,0,1,.58.74,7.284,7.284,0,0,0,3.48-1.81Zm-.98-.91A6,6,0,0,1,8.6,9.2a3.089,3.089,0,0,1,.63.68,6.469,6.469,0,0,0,2.54-1.4Zm1.7,2.04c-.86.94-2.59,1.48-4.43,1.73a4.145,4.145,0,0,1,.6.94,8.18,8.18,0,0,0,4.85-2.26Zm4.99-.41c-.32.11-.65.21-.98.31v-2h.9V6.97h-.9V5.21h1.07V4.1h-3.3V5.21h1.1V6.97H14.47V8.06h1.01v2.35c-.46.13-.87.24-1.22.33l.27,1.21c.96-.31,2.16-.69,3.26-1.08Zm1.54-3.02h1.03v.86H19.13Zm0-1.77h1.03V5.8H19.13Zm3.02.84h-.99V4.96h.99Zm0,1.79h-.99V6.73h.99Zm-.88,3.89v-.95h2.12V9.46H21.27V8.6h2.01V3.95H18.06V8.6h2v.86H17.99v1.07h2.07v.95H17.3v1.08h6.43V11.48Zm7.21-6.47V6.29a26.839,26.839,0,0,0,4.3,0V5A20.563,20.563,0,0,1,28.48,5.01Zm.8,4.27-1.15-.11a6.109,6.109,0,0,0-.17,1.3c0,1.03.83,1.64,2.55,1.64a14.162,14.162,0,0,0,2.58-.19l-.02-1.35a11.821,11.821,0,0,1-2.51.26c-1.02,0-1.4-.27-1.4-.71A3.394,3.394,0,0,1,29.28,9.28ZM26.94,4.34l-1.4-.12c-.01.32-.07.7-.1.98a27.884,27.884,0,0,0-.42,3.96,12.783,12.783,0,0,0,.39,3.27l1.16-.08c-.01-.14-.02-.3-.02-.41a3.017,3.017,0,0,1,.05-.47c.11-.53.44-1.62.72-2.45l-.62-.49c-.14.33-.3.68-.45,1.02a4.825,4.825,0,0,1-.04-.65,26.523,26.523,0,0,1,.48-3.67C26.73,5.05,26.86,4.55,26.94,4.34ZM38.47,6.68H37.2v.94h3.52V6.68H39.53V5.65h1.05V4.72H39.53V3.54H38.47V4.72H37.41v.93h1.06ZM37.24,7.7l-.76.21V6.51h.77V5.42h-.77V3.54H35.42V5.42H34.4V6.51h1.02V8.2c-.45.11-.86.22-1.2.29l.26,1.14c.29-.08.61-.17.94-.26v2.26c0,.14-.05.18-.17.18s-.47,0-.83-.02a4.287,4.287,0,0,1,.3,1.08,2.475,2.475,0,0,0,1.36-.22c.31-.18.4-.47.4-1.02V9.05c.3-.09.61-.19.91-.28Zm2.27,3.35V10.02h1.14V9.07H39.51V7.89H38.46V9.07H37.3v.95h1.16v1.15c-.61.06-1.18.12-1.64.17l.16,1.02c1.06-.14,2.49-.32,3.83-.51l-.03-.94Zm4.32-2.78c-.27-.25-1.34-1.22-1.78-1.56V3.54h-1.1v9.33h1.1V7.99c.41.44.86.95,1.12,1.3ZM48.62,4.1l-1.49-.15a11.084,11.084,0,0,1-.21,2.12c-.51.04-.98.07-1.29.08a9.548,9.548,0,0,1-1.07,0l.12,1.36c.3-.05.83-.12,1.11-.17.19-.02.5-.06.86-.1a15.033,15.033,0,0,1-2.02,4.7l1.3.52A21.075,21.075,0,0,0,47.97,7.1c.28-.02.53-.04.69-.04.63,0,.97.11.97.91a7.96,7.96,0,0,1-.4,2.77.741.741,0,0,1-.75.43,5.859,5.859,0,0,1-1.23-.21l.22,1.32a6.469,6.469,0,0,0,1.2.14,1.6,1.6,0,0,0,1.64-.92,9.8,9.8,0,0,0,.57-3.67c0-1.44-.75-1.91-1.81-1.91-.21,0-.51.02-.84.04.07-.36.14-.73.21-1.03C48.49,4.68,48.56,4.36,48.62,4.1Zm3.44.94-1.19.51a11.5,11.5,0,0,1,1.68,3.8l1.27-.59A17.284,17.284,0,0,0,52.06,5.04Zm5.84,5.78c0-.25.24-.48.62-.48.54,0,.91.42.97,1.07a5.221,5.221,0,0,1-.58.03C58.31,11.44,57.9,11.19,57.9,10.82ZM56.2,4.38l.04,1.3c.23-.03.55-.06.82-.08.53-.03,1.91-.09,2.42-.1-.49.43-1.53,1.27-2.09,1.73-.59.49-1.8,1.51-2.51,2.08l.91.94c1.07-1.22,2.07-2.03,3.6-2.03,1.18,0,2.08.61,2.08,1.51a1.449,1.449,0,0,1-.83,1.36,2,2,0,0,0-2.13-1.71,1.676,1.676,0,0,0-1.79,1.56c0,1,1.05,1.64,2.44,1.64,2.42,0,3.62-1.25,3.62-2.83a2.711,2.711,0,0,0-2.99-2.52,3.906,3.906,0,0,0-.95.11c.63-.5,1.68-1.38,2.22-1.76.23-.17.47-.31.7-.46l-.65-.89a4.369,4.369,0,0,1-.76.11c-.57.05-2.71.09-3.24.09A6.939,6.939,0,0,1,56.2,4.38Zm10.7,5.88h4.3v.41H66.9Zm2.64-3.41v.66H67.72a2.027,2.027,0,0,0,.49-.66ZM66.32,5.76h1.02a1.226,1.226,0,0,1-.06.39H66.19Zm2.11-1.09h1.11v.4H68.43Zm3.28,0v.4H70.67v-.4ZM69.54,6.15H68.4l.03-.39h1.11Zm2.73.7a.61.61,0,0,1-.09.29.229.229,0,0,1-.21.07,2.951,2.951,0,0,1-.55-.03,2.089,2.089,0,0,1,.12.33h-.87V6.85ZM71.2,8.58H66.9V8.19h4.3Zm0,1.04H66.9v-.4h4.3Zm1.21,1.73V7.9c.06,0,.11-.01.15-.01a.891.891,0,0,0,.58-.24c.17-.18.23-.54.28-1.19.01-.11.02-.31.02-.31H70.67V5.76h2.12V3.97H70.67V3.54H69.54v.43H68.43V3.54H67.35v.43H65.08v.7h2.27v.4h-1.9a15.111,15.111,0,0,1-.63,1.8l1.08.07.03-.09h.88a4.849,4.849,0,0,1-2.37.74,4.622,4.622,0,0,1,.56.92c.27-.04.51-.08.74-.13v2.97H67.1a13.576,13.576,0,0,1-2.65.7,7.683,7.683,0,0,1,.86.85,12.78,12.78,0,0,0,3.12-1.19l-.79-.36h2.67l-.76.47a21.1,21.1,0,0,1,2.67,1.06l1.32-.57c-.63-.27-1.68-.65-2.64-.96ZM79.7,8.83V7.6h2.11V8.83Zm-3.11,0c.02-.37.03-.73.03-1.05V7.6H78.5V8.83Zm1.91-3.5V6.49H76.62V5.33Zm3.31,1.16H79.7V5.33h2.11ZM82.99,4.2H75.44V7.77c0,1.4-.09,3.18-1.18,4.38a4.392,4.392,0,0,1,.94.77,5.727,5.727,0,0,0,1.26-2.97H78.5v2.79h1.2V9.95h2.11v1.5c0,.18-.07.24-.26.24s-.84.01-1.4-.02a4.5,4.5,0,0,1,.38,1.14,4.644,4.644,0,0,0,1.92-.21c.4-.18.54-.5.54-1.14ZM18.27,20.48a3.808,3.808,0,0,0-4.04-3.9,4.443,4.443,0,0,0-4.59,4.28c0,1.69.92,2.91,2.03,2.91,1.09,0,1.95-1.24,2.55-3.26a20.223,20.223,0,0,0,.6-2.71,2.472,2.472,0,0,1,2.1,2.64,2.714,2.714,0,0,1-2.28,2.68,7.692,7.692,0,0,1-.93.16l.75,1.19C16.98,24.08,18.27,22.59,18.27,20.48Zm-7.35.25a3.148,3.148,0,0,1,2.54-2.9,15.01,15.01,0,0,1-.53,2.42c-.41,1.35-.8,1.98-1.22,1.98C11.32,22.23,10.92,21.74,10.92,20.73Zm10.74,2.53V22.22h4.75v1.04Zm4.75-3.17v1.03H21.66V20.09Zm0-2.13v1.03H21.66V17.96Zm-2.16-1.14c.16-.36.32-.75.47-1.15l-1.44-.16a11.318,11.318,0,0,1-.27,1.31H20.45v8.04h1.21v-.5h4.75v.49h1.27V16.82Zm8.71,6.68c-1.07,0-1.25-.09-1.25-.62V20.47h4.46v.57h1.27V16.1H30.35v1.22h5.82V19.3h-5.7v3.6c0,1.43.61,1.79,2.48,1.79h3.24c1.79,0,2.23-.52,2.45-2.43a4.542,4.542,0,0,1-1.21-.45c-.13,1.44-.27,1.69-1.27,1.69Zm8.92-1.91h4.36v.58H41.88Zm2.37-4.49a7.719,7.719,0,0,1-.56.72H41.71a7.4,7.4,0,0,0,.66-.72Zm1.99,2.21H41.88v-.57h4.36Zm0,1.42H41.88v-.56h4.36Zm1.24,2.37V17.82H45.11a9.389,9.389,0,0,0,.81-1.15l-.82-.53-.19.05H43.05c.09-.14.18-.27.26-.41l-1.29-.24a7.225,7.225,0,0,1-2.65,2.63,3.929,3.929,0,0,1,.88.85c.16-.11.31-.21.45-.32v4.4h1.5a11.624,11.624,0,0,1-2.76.89,10.119,10.119,0,0,1,.93.92,13.032,13.032,0,0,0,3.09-1.35l-1.02-.46h3.12l-.88.57a19.392,19.392,0,0,1,2.51,1.2l1.34-.6c-.65-.33-1.75-.8-2.72-1.17Zm9.34-4.37H54.31V17.27h2.51Zm0,2.62H54.31V19.84h2.51Zm1.19-5.18H53.17v6.28h4.84Zm-5.22,3.58-.98.25V18.53h1.05v-1.1H51.81V15.54H50.65v1.89H49.41v1.1h1.24v1.75c-.5.12-.98.23-1.37.31l.31,1.14,1.06-.28v2.08c0,.14-.05.19-.19.19s-.55,0-.94-.01a3.951,3.951,0,0,1,.33,1.08,3.22,3.22,0,0,0,1.52-.22c.33-.17.44-.46.44-1.04V21.15c.38-.1.75-.21,1.12-.31Zm-.31,3.68v1.11h6.14V23.43Zm11.24-7.48-1.38-.14a8.409,8.409,0,0,1-.27,1.67c-.31.03-.61.04-.91.04a12.633,12.633,0,0,1-1.33-.07l.09,1.16c.43.03.84.04,1.25.04.17,0,.34,0,.52-.01a15.755,15.755,0,0,1-2.04,3.53l1.21.62A18.426,18.426,0,0,0,63,18.51a17.349,17.349,0,0,0,1.75-.35L64.71,17a12.26,12.26,0,0,1-1.35.32C63.51,16.78,63.64,16.27,63.72,15.95Zm-.52,6.92c0-.35.37-.61.95-.61a3.592,3.592,0,0,1,.81.1v.2c0,.55-.21.93-.9.93C63.51,23.49,63.2,23.24,63.2,22.87Zm2.86-3.81H64.81c.02.61.07,1.5.11,2.24-.23-.02-.45-.04-.69-.04-1.39,0-2.21.75-2.21,1.73,0,1.1.98,1.65,2.22,1.65,1.42,0,1.93-.72,1.93-1.65v-.1a8.478,8.478,0,0,1,1.35,1.07l.67-1.07a6.539,6.539,0,0,0-2.07-1.28c-.02-.5-.05-.98-.06-1.27C66.05,19.9,66.03,19.48,66.06,19.06Zm1.72.53.71-1.05a17.225,17.225,0,0,0-2.47-1.36l-.64.99A14.433,14.433,0,0,1,67.78,19.59Zm4.93-3.52-1.61-.02a6.378,6.378,0,0,1,.13,1.35c0,.86-.1,3.49-.1,4.83,0,1.71,1.06,2.43,2.7,2.43a5.177,5.177,0,0,0,4.34-2.3l-.91-1.1a4,4,0,0,1-3.42,2.04,1.209,1.209,0,0,1-1.38-1.34c0-1.24.08-3.48.12-4.56C72.6,17,72.65,16.49,72.71,16.07Z" transform="translate(-14.738 63.64)" fill="#fff"/>
    </g>
    <g id="Group_432" data-name="Group 432" transform="translate(368 5596.803)">
      <g id="Path_500" data-name="Path 500" transform="translate(0 2.94)" fill="none">
        <path d="M27,0A27,27,0,1,1,0,27,27,27,0,0,1,27,0Z" stroke="none"/>
        <path d="M 27 2 C 23.6241397857666 2 20.35031890869141 2.660720825195312 17.26948165893555 3.963798522949219 C 14.29273986816406 5.222858428955078 11.61893081665039 7.025730133056641 9.322330474853516 9.322330474853516 C 7.025730133056641 11.61893081665039 5.222858428955078 14.29273986816406 3.963798522949219 17.26948165893555 C 2.660720825195312 20.35031890869141 2 23.6241397857666 2 27 C 2 30.3758602142334 2.660720825195312 33.64968109130859 3.963798522949219 36.73052215576172 C 5.222858428955078 39.70726013183594 7.025730133056641 42.38106918334961 9.322330474853516 44.67766952514648 C 11.61893081665039 46.97426986694336 14.29273986816406 48.77714157104492 17.26948165893555 50.03620147705078 C 20.35031890869141 51.33927917480469 23.6241397857666 52 27 52 C 30.3758602142334 52 33.64968109130859 51.33927917480469 36.73052215576172 50.03620147705078 C 39.70726013183594 48.77714157104492 42.38106918334961 46.97426986694336 44.67766952514648 44.67766952514648 C 46.97426986694336 42.38106918334961 48.77714157104492 39.70726013183594 50.03620147705078 36.73052215576172 C 51.33927917480469 33.64968109130859 52 30.3758602142334 52 27 C 52 23.6241397857666 51.33927917480469 20.35031890869141 50.03620147705078 17.26948165893555 C 48.77714157104492 14.29273986816406 46.97426986694336 11.61893081665039 44.67766952514648 9.322330474853516 C 42.38106918334961 7.025730133056641 39.70726013183594 5.222858428955078 36.73052215576172 3.963798522949219 C 33.64968109130859 2.660720825195312 30.3758602142334 2 27 2 M 27 0 C 41.91168975830078 0 54 12.08831024169922 54 27 C 54 41.91168975830078 41.91168975830078 54 27 54 C 12.08831024169922 54 0 41.91168975830078 0 27 C 0 12.08831024169922 12.08831024169922 0 27 0 Z" stroke="none" fill="#fff"/>
      </g>
      <path id="Path_515" data-name="Path 515" d="M16.861,14.367V43H12.33V19.914a14.434,14.434,0,0,1-2.646,1.494,21.815,21.815,0,0,1-3.232,1.084V18.625q1.133-.371,2.188-.781t2.08-.918q1.025-.508,2.07-1.133t2.158-1.426Zm14.883,29.1a7.821,7.821,0,0,1-6.826-3.574q-2.451-3.574-2.451-10.332,0-7.422,2.559-11.23a8.352,8.352,0,0,1,7.383-3.809q9.238,0,9.238,14.355,0,7.109-2.607,10.85A8.39,8.39,0,0,1,31.744,43.469Zm.449-25.332q-5.1,0-5.1,11.23,0,10.508,5,10.508,4.922,0,4.922-10.684Q37.018,18.137,32.193,18.137Z" transform="translate(3 0.94)" fill="#fff"/>
      <path id="Path_514" data-name="Path 514" d="M11.71,5.02H7.47V4.61h4.24Zm0,1.14H7.47V5.74h4.24ZM12.9,3.85H6.33V6.92H12.9Zm-.57,5.66a4.187,4.187,0,0,1-.68.98,3.872,3.872,0,0,1-.67-.98ZM7.03,10.7h1.3v.39c-.44.04-.88.07-1.3.1Zm0-1.24h1.3v.42H7.03Zm1.3-1.23v.4H7.03v-.4Zm4.7.33-.2.04H9.72v.91h.92l-.66.18a6.124,6.124,0,0,0,.91,1.48,5.134,5.134,0,0,1-1.42.72V8.23h4.58V7.29H5.16v.94h.78v3.04c-.31.03-.61.04-.87.06l.09,1.02c.88-.08,2.02-.18,3.17-.29v.81H9.47v-.81a4.42,4.42,0,0,1,.53.8,6.516,6.516,0,0,0,1.7-.93,5.6,5.6,0,0,0,1.86.93,4.926,4.926,0,0,1,.7-.93,5.591,5.591,0,0,1-1.76-.74,5.962,5.962,0,0,0,1.26-2.35Zm9.67.72a14.085,14.085,0,0,1-1.53,1.04,4.758,4.758,0,0,1-.79-1.04Zm.35,0h1.07V8.23H17.99V7.71H22.8V6.79H17.99v-.5H22.8V5.37H17.99V4.84h5.09V3.87H16.77V8.23H15.11V9.28h1.65v2.29c-.45.05-.86.11-1.22.15l.27,1.09c1.21-.18,2.86-.43,4.39-.68l-.05-1.05c-.72.11-1.46.22-2.16.32V9.28h1.15a5.875,5.875,0,0,0,4.42,3.6,5.283,5.283,0,0,1,.75-1.07,6.614,6.614,0,0,1-2.33-.86,16.838,16.838,0,0,0,1.84-1.13ZM25.43,12h4.45V10.81H28.49V4.59H27.4a4.616,4.616,0,0,1-1.72.63v.91h1.34v4.68H25.43Zm8.02.14c1.51,0,2.5-1.32,2.5-3.87s-.99-3.81-2.5-3.81-2.51,1.25-2.51,3.81S31.94,12.14,33.45,12.14Zm0-1.15c-.64,0-1.12-.64-1.12-2.72s.48-2.67,1.12-2.67,1.11.6,1.11,2.67S34.09,10.99,33.45,10.99ZM39.59,9.6V8.08h1.73V9.6Zm6.38,0H42.55V8.08h2.64V6.97H42.55V5.78h2.87V4.63H39.77a6.384,6.384,0,0,0,.33-.82L38.89,3.5a7.712,7.712,0,0,1-2.1,3.33,9.2,9.2,0,0,1,1.03.77,8.987,8.987,0,0,0,1.36-1.82h2.14V6.97H38.4V9.6H36.82v1.14h4.5v2.14h1.23V10.74h3.42Zm3.95-4.83V5.3H48.38V4.77Zm-1.54,1.9V6.1h1.54v.57Zm2.65.85V3.91H47.2v8.96h1.18V7.52Zm1.82-.83V6.1h1.59v.59Zm1.59-1.92V5.3H52.85V4.77Zm-3.9,6.3v-.62h1.65v.62ZM52.19,9.6H50.54V9h1.65Zm3.45-5.69H51.72V7.54h2.72v3.91c0,.16-.06.22-.24.22-.13.01-.5.01-.89,0V8.13l-3.36-.01v.01h-.49v4.32h1.08v-.51h2.48a4.4,4.4,0,0,1,.26.93,4.321,4.321,0,0,0,1.83-.23c.4-.19.53-.54.53-1.18ZM24.77,20.48a3.808,3.808,0,0,0-4.04-3.9,4.443,4.443,0,0,0-4.59,4.28c0,1.69.92,2.91,2.03,2.91,1.09,0,1.95-1.24,2.55-3.26a20.224,20.224,0,0,0,.6-2.71,2.472,2.472,0,0,1,2.1,2.64,2.714,2.714,0,0,1-2.28,2.68,7.692,7.692,0,0,1-.93.16l.75,1.19C23.48,24.08,24.77,22.59,24.77,20.48Zm-7.35.25a3.148,3.148,0,0,1,2.54-2.9,15.01,15.01,0,0,1-.53,2.42c-.41,1.35-.8,1.98-1.22,1.98C17.82,22.23,17.42,21.74,17.42,20.73Zm10.64-5.18a10.546,10.546,0,0,1-2.36,3.74,7.949,7.949,0,0,1,.64,1.22,11.4,11.4,0,0,0,.76-.89v5.23h1.13V17.88a16.72,16.72,0,0,0,.93-1.97Zm2.43,1.46h2.93v1.34H30.49Zm4.61,4.37V20.3H32.52v-.9h2.09V15.96H29.36V19.4h1.96v.9H28.7v1.08h2.05a7.184,7.184,0,0,1-2.41,2.16,4.911,4.911,0,0,1,.82.95,8.019,8.019,0,0,0,2.16-2.15v2.53h1.2V22.29a8.257,8.257,0,0,0,2.03,2.22,5.063,5.063,0,0,1,.84-.95,7.526,7.526,0,0,1-2.29-2.18Zm4.08-5.54H36.36v.9h2.82Zm-.95,6.55v1.14h-.96V22.39Zm1.02-.94H36.27v3.41h1v-.39h1.98Zm-2.95-.51h2.88v-.9H36.3Zm2.88-2.29H36.3v.89h2.88Zm-3.35-.49h3.71v-.94H35.83Zm7.39,5.25V20.65h1.73V19.53H43.22V17.17H45V16.04H39.85v1.13h2.2v6.24h-.76V18.67H40.18v4.74h-.61v1.11h5.62V23.41Z" transform="translate(0 60.94)" fill="#fff"/>
    </g>
    <g id="Group_436" data-name="Group 436" transform="translate(385.822 5532.624)">
      <path id="Path_513" data-name="Path 513" d="M3.17,20.22c.74-.06,1.3-.08,2.6-.08h5.66v.98a17.472,17.472,0,0,1-.16,2.5h4.12a14.02,14.02,0,0,1-.16-2.46v-1h.6a15.869,15.869,0,0,1,1.96.12V16.64a14.11,14.11,0,0,1-1.98.16h-.58V10.3a28.858,28.858,0,0,1,.16-3.32h-4.1A20.011,20.011,0,0,1,9.43,9.36L5.09,14.44c-1.02,1.2-1.02,1.2-1.92,2.2Zm8.28-3.38H7.41l2.92-3.56c.54-.68.84-1.08,1.24-1.64-.08.88-.12,1.98-.12,2.88Zm8.5-2.76a11.384,11.384,0,0,1,1.72-.64,26.164,26.164,0,0,1,7.7-1.42,3.851,3.851,0,0,1,2.96.96,2.608,2.608,0,0,1,.74,1.94,3.229,3.229,0,0,1-.64,2,6.1,6.1,0,0,1-3.44,2.24,19.784,19.784,0,0,1-5.7.7,12.325,12.325,0,0,1,1.42,3.62,20.379,20.379,0,0,0,7.5-1.74,7.627,7.627,0,0,0,4.68-6.9,5.941,5.941,0,0,0-2.46-4.96,8.546,8.546,0,0,0-4.96-1.26,34.652,34.652,0,0,0-7.64,1.06,18.832,18.832,0,0,1-2.64.46Zm30.36-3.46a3.352,3.352,0,0,1,1.68.7,4.706,4.706,0,0,1,1.76,3.94,4.96,4.96,0,0,1-2.4,4.64,10.4,10.4,0,0,1-4.2,1.02,9.827,9.827,0,0,1,1.7,3.28c2.8-.44,4.38-1.08,5.74-2.3a8.606,8.606,0,0,0,2.66-6.46,7.952,7.952,0,0,0-1.96-5.56,8.919,8.919,0,0,0-6.52-2.46,9.563,9.563,0,0,0-7.24,2.94,8.891,8.891,0,0,0-2.3,6.1c0,3.66,1.88,6.22,4.56,6.22,1.82,0,3.16-1.12,4.32-3.68A28.018,28.018,0,0,0,50.31,10.62Zm-3.46.04a25.931,25.931,0,0,1-1.5,6.1c-.6,1.52-1.12,2.22-1.62,2.22-.7,0-1.24-1.12-1.24-2.54a6.471,6.471,0,0,1,2.18-4.76A4,4,0,0,1,46.85,10.66Zm23.68.7a4.4,4.4,0,0,1-.26,1.14,7.549,7.549,0,0,0-.94-.04,10.564,10.564,0,0,0-1.94.18c.02-.42.02-.48.02-.6.02-.34.02-.34.04-.54,2-.08,5.04-.32,6.96-.6.46-.06.54-.06.86-.08l-.14-3.24a37.973,37.973,0,0,1-7.5,1,11.4,11.4,0,0,1,.32-2.1l-3.44-.14a5.114,5.114,0,0,1,.04.84c0,.22,0,.44-.02.64-.04.6-.04.6-.06.86l-.28.02h-.12a18.533,18.533,0,0,1-3.72-.3l.04,3.16c.28-.02.36-.02.64-.02.36,0,.68,0,.98.02,1.48.02,1.48.02,2.34.04-.02.86-.02,1.06-.02,1.74a7.815,7.815,0,0,0-2.78,1.82,6.544,6.544,0,0,0-2,4.64c0,2.5,1.5,4.08,3.86,4.08a7.141,7.141,0,0,0,4.64-2.08,10.8,10.8,0,0,1,1.12,2.64,12.185,12.185,0,0,0,4.04-.92,5.808,5.808,0,0,0,3.76-5.44,4.811,4.811,0,0,0-1.64-3.76,5.092,5.092,0,0,0-2.02-1.12,10.093,10.093,0,0,1,.42-1Zm-1.74,9.78a15.747,15.747,0,0,0,3.5-5.22,1.971,1.971,0,0,1,1.28,1.92,3.065,3.065,0,0,1-1.9,2.68A7.726,7.726,0,0,1,68.79,21.14Zm-4.42-4.46a22.741,22.741,0,0,0,.3,3.62,1.878,1.878,0,0,1-1.1.38c-.56,0-.86-.42-.86-1.16A3.465,3.465,0,0,1,64.37,16.68Zm3-1.38a5.2,5.2,0,0,1,1.58-.22,2.954,2.954,0,0,1,.42.02,13.01,13.01,0,0,1-1.88,3.08A24.516,24.516,0,0,1,67.37,15.3ZM84.63,6.28a57.036,57.036,0,0,1-2.14,6.68c-1.22,3.52-1.92,5.52-2.08,6.02a28.906,28.906,0,0,1-1.6,4.28l3.7,1.1a24.459,24.459,0,0,1,1.56-4.6c.78-1.68,1.74-2.6,2.66-2.6.62,0,.84.32.84,1.3v.34c-.02.86-.02,1.24-.02,1.42a3.882,3.882,0,0,0,.96,2.98,3.831,3.831,0,0,0,2.92,1.04,5.426,5.426,0,0,0,4.46-2.14,10.388,10.388,0,0,0,1.8-4.62,10.45,10.45,0,0,1-3.18-2,11.046,11.046,0,0,1-.82,3.7c-.48,1.1-1.06,1.62-1.86,1.62-.72,0-.96-.44-.96-1.84a11.343,11.343,0,0,0-.24-3.36,2.614,2.614,0,0,0-2.66-1.92,4.129,4.129,0,0,0-2.48.88A78.41,78.41,0,0,1,88.53,7.1Zm17.16.5a9.393,9.393,0,0,1,.1,1.52c0,.78-.04,2.68-.08,4.7-.1,4.02-.1,4.02-.1,4.54,0,2.8.38,4.08,1.52,5.18a6.456,6.456,0,0,0,4.64,1.52,8.1,8.1,0,0,0,6.28-2.58c1.1-1.22,1.76-2.68,2.52-5.68a12.157,12.157,0,0,1-3.42-2.1,15.2,15.2,0,0,1-.8,3.62,4.624,4.624,0,0,1-4.44,3.38,2.691,2.691,0,0,1-2.34-.96c-.34-.54-.42-1.14-.42-3.14,0-3.34.24-8.68.46-9.94Zm22.84-.5a57.036,57.036,0,0,1-2.14,6.68c-1.22,3.52-1.92,5.52-2.08,6.02a28.906,28.906,0,0,1-1.6,4.28l3.7,1.1a24.459,24.459,0,0,1,1.56-4.6c.78-1.68,1.74-2.6,2.66-2.6.62,0,.84.32.84,1.3v.34c-.02.86-.02,1.24-.02,1.42a3.882,3.882,0,0,0,.96,2.98,3.831,3.831,0,0,0,2.92,1.04,5.426,5.426,0,0,0,4.46-2.14,10.388,10.388,0,0,0,1.8-4.62,10.45,10.45,0,0,1-3.18-2,11.046,11.046,0,0,1-.82,3.7c-.48,1.1-1.06,1.62-1.86,1.62-.72,0-.96-.44-.96-1.84a11.343,11.343,0,0,0-.24-3.36,2.614,2.614,0,0,0-2.66-1.92,4.129,4.129,0,0,0-2.48.88,78.415,78.415,0,0,1,3.04-7.46Z" transform="translate(70.178 2.12)" fill="#fff"/>
      <g id="Rectangle_175" data-name="Rectangle 175" transform="translate(63.178 -0.88)" fill="none" stroke="#fff" stroke-width="1">
        <rect width="153" height="38" stroke="none"/>
        <rect x="0.5" y="0.5" width="152" height="37" fill="none"/>
      </g>
      <g id="Path_499" data-name="Path 499" transform="translate(64.724 1.332)" fill="none">
        <path d="M0,0H148.869V33.194H0V0Z" stroke="none"/>
        <path d="M 0.9999847412109375 0.9999923706054688 L 0.9999847412109375 32.19422912597656 L 147.8694458007812 32.19422912597656 L 147.8694458007812 0.9999923706054688 L 0.9999847412109375 0.9999923706054688 M -1.52587890625e-05 -7.62939453125e-06 L 148.8694458007812 -7.62939453125e-06 L 148.8694458007812 33.19422912597656 L -1.52587890625e-05 33.19422912597656 L -1.52587890625e-05 -7.62939453125e-06 Z" stroke="none" fill="#fff"/>
      </g>
    </g>
  </g>
</svg>
