<svg xmlns="http://www.w3.org/2000/svg" width="1185" height="435.82" viewBox="0 0 1185 435.82">
  <g id="Group_437" data-name="Group 437" transform="translate(-368 -5557)">
    <path id="Path_494" data-name="Path 494" d="M302.779,0,0,100.9" transform="translate(502.721 5622.5)" fill="none" stroke="#fff" stroke-width="3" stroke-dasharray="10" opacity="0.33"/>
    <path id="Path_496" data-name="Path 496" d="M55.849,0,0,105.5" transform="translate(817.151 5622.5)" fill="none" stroke="#fff" stroke-width="3" stroke-dasharray="10" opacity="0.33"/>
    <path id="Path_497" data-name="Path 497" d="M0,0,302.779,100.9" transform="translate(1114.721 5622.5)" fill="#fff" stroke="#fff" stroke-width="3" stroke-dasharray="10" opacity="0.33"/>
    <path id="Path_498" data-name="Path 498" d="M0,0,55.849,105.5" transform="translate(1038 5622.5)" fill="none" stroke="#fff" stroke-width="3" stroke-dasharray="10" opacity="0.33"/>
    <g id="Group_434" data-name="Group 434" transform="translate(50)">
      <g id="Ellipse_49" data-name="Ellipse 49" transform="translate(1303 5714)" fill="none" stroke="#fff" stroke-width="8">
        <circle cx="100" cy="100" r="100" stroke="none"/>
        <circle cx="100" cy="100" r="96" fill="none"/>
      </g>
      <rect id="Rectangle_177" data-name="Rectangle 177" width="142" height="15" transform="translate(1332 5775)" fill="#fff"/>
      <rect id="Rectangle_178" data-name="Rectangle 178" width="42" height="22" transform="translate(1382 5845)" fill="#fff"/>
      <path id="Polygon_8" data-name="Polygon 8" d="M71,0l71,49H0Z" transform="translate(1332 5798)" fill="#fff"/>
      <path id="Path_510" data-name="Path 510" d="M54.22,6.12a22.649,22.649,0,0,1-3.96,7.72A18.7,18.7,0,0,1,51.4,16.4a15.989,15.989,0,0,0,1.26-1.68v10h2.26V10.56c.56-1.24,1.06-2.54,1.48-3.78Zm3.88,5.52a11.427,11.427,0,0,1,1.18.96,11.021,11.021,0,0,0,1.16-1.2,13.257,13.257,0,0,0,1.48,1.54,15.2,15.2,0,0,1-3.82,1.48Zm7.02-1.66a7.792,7.792,0,0,1-1.6,1.84A9.4,9.4,0,0,1,61.6,9.98Zm3.98,0V8.06H62.6a14.076,14.076,0,0,0,.64-1.5l-2.14-.5a12.158,12.158,0,0,1-3,4.66V8.6H56.04V21.4H58.1V14.88a8.733,8.733,0,0,1,1.04,1.44,17.245,17.245,0,0,0,4.56-2.06,15.1,15.1,0,0,0,4.76,1.9,9.586,9.586,0,0,1,1.28-1.9,15.513,15.513,0,0,1-4.36-1.34A10.844,10.844,0,0,0,67.6,9.98Zm-3.34,7.08c-1.32,1.32-3.92,2.32-6.42,2.84a7.261,7.261,0,0,1,1.16,1.48,14.568,14.568,0,0,0,6.96-3.62ZM63.8,15.24a12,12,0,0,1-4.6,2.16,6.177,6.177,0,0,1,1.26,1.36,12.938,12.938,0,0,0,5.08-2.8Zm3.4,4.08c-1.72,1.88-5.18,2.96-8.86,3.46a8.29,8.29,0,0,1,1.2,1.88c4.08-.74,7.62-2.08,9.7-4.52Zm9.98-.82c-.64.22-1.3.42-1.96.62v-4h1.8V12.94h-1.8V9.42h2.14V7.2h-6.6V9.42h2.2v3.52H70.94v2.18h2.02v4.7c-.92.26-1.74.48-2.44.66l.54,2.42c1.92-.62,4.32-1.38,6.52-2.16Zm3.08-6.04h2.06v1.72H80.26Zm0-3.54h2.06V10.6H80.26ZM86.3,10.6H84.32V8.92H86.3Zm0,3.58H84.32V12.46H86.3Zm-1.76,7.78v-1.9h4.24V17.92H84.54V16.2h4.02V6.9H78.12v9.3h4v1.72H77.98v2.14h4.14v1.9H76.6v2.16H89.46V21.96ZM95.8,19.52h8.6v.82H95.8Zm5.28-6.82v1.32H97.44a4.055,4.055,0,0,0,.98-1.32Zm-6.44-2.18h2.04a2.452,2.452,0,0,1-.12.78H94.38Zm4.22-2.18h2.22v.8H98.86Zm6.56,0v.8h-2.08v-.8Zm-4.34,2.96H98.8l.06-.78h2.22Zm5.46,1.4a1.219,1.219,0,0,1-.18.58.459.459,0,0,1-.42.14,5.9,5.9,0,0,1-1.1-.06,4.179,4.179,0,0,1,.24.66h-1.74V12.7Zm-2.14,3.46H95.8v-.78h8.6Zm0,2.08H95.8v-.8h8.6Zm2.42,3.46V14.8c.12,0,.22-.02.3-.02a1.782,1.782,0,0,0,1.16-.48c.34-.36.46-1.08.56-2.38.02-.22.04-.62.04-.62h-5.54v-.78h4.24V6.94h-4.24V6.08h-2.26v.86H98.86V6.08H96.7v.86H92.16v1.4H96.7v.8H92.9a30.223,30.223,0,0,1-1.26,3.6l2.16.14.06-.18h1.76c-.82.66-2.26,1.16-4.74,1.48A9.244,9.244,0,0,1,92,16.02c.54-.08,1.02-.16,1.48-.26V21.7H96.2a27.152,27.152,0,0,1-5.3,1.4,15.368,15.368,0,0,1,1.72,1.7,25.561,25.561,0,0,0,6.24-2.38l-1.58-.72h5.34l-1.52.94a42.2,42.2,0,0,1,5.34,2.12l2.64-1.14c-1.26-.54-3.36-1.3-5.28-1.92Zm14.58-5.04V14.2h4.22v2.46Zm-6.22,0c.04-.74.06-1.46.06-2.1V14.2H119v2.46Zm3.82-7v2.32h-3.76V9.66Zm6.62,2.32H121.4V9.66h4.22Zm2.36-4.58h-15.1v7.14c0,2.8-.18,6.36-2.36,8.76a8.785,8.785,0,0,1,1.88,1.54,11.453,11.453,0,0,0,2.52-5.94H119v5.58h2.4V18.9h4.22v3c0,.36-.14.48-.52.48-.36,0-1.68.02-2.8-.04a8.992,8.992,0,0,1,.76,2.28,9.288,9.288,0,0,0,3.84-.42c.8-.36,1.08-1,1.08-2.28Zm20.56,8.56c0-4.36-3.12-7.8-8.08-7.8-5.18,0-9.18,3.94-9.18,8.56,0,3.38,1.84,5.82,4.06,5.82,2.18,0,3.9-2.48,5.1-6.52a40.447,40.447,0,0,0,1.2-5.42,4.944,4.944,0,0,1,4.2,5.28,5.427,5.427,0,0,1-4.56,5.36,15.382,15.382,0,0,1-1.86.32l1.5,2.38C145.96,23.16,148.54,20.18,148.54,15.96Zm-14.7.5a6.3,6.3,0,0,1,5.08-5.8,30.02,30.02,0,0,1-1.06,4.84c-.82,2.7-1.6,3.96-2.44,3.96C134.64,19.46,133.84,18.48,133.84,16.46Zm-83.2,40.9V50.44H57.7V48.02H50.64V42.3H48.08V57.36H40.92v2.4H59.1v-2.4ZM66.58,42.82l-.34.1H61.52V60.74h2.22V45.04H65.5c-.36,1.4-.82,3.2-1.24,4.48a5.258,5.258,0,0,1,1.48,3.52,1.362,1.362,0,0,1-.36,1.12,1,1,0,0,1-.58.18c-.26,0-.56,0-.94-.02a5.2,5.2,0,0,1,.54,2.12,10.089,10.089,0,0,0,1.38-.04,2.568,2.568,0,0,0,1.18-.46,2.873,2.873,0,0,0,.92-2.6,5.954,5.954,0,0,0-1.54-4.08c.62-1.56,1.3-3.76,1.86-5.5Zm4.48,5.7H75.7V50.2H71.06ZM75.7,45v1.58H71.06V45Zm1.44,7.38a17.735,17.735,0,0,1-1.8,1.98,13.978,13.978,0,0,1-.76-2.12h3.48v-9.3H68.78V57.8c-.78.12-1.48.24-2.08.32l.78,2.3c1.88-.42,4.34-.92,6.64-1.46l-.18-2.08c-.96.18-1.94.36-2.88.52V52.24H72.5c.9,3.9,2.46,6.88,5.4,8.44a8.447,8.447,0,0,1,1.54-2.02,7.57,7.57,0,0,1-3.14-2.62A35.2,35.2,0,0,0,79,53.7Zm11.5,1.74v4h-2.7l1.64-.7a13.493,13.493,0,0,0-1.84-3.3Zm-2.26-6.1a20.863,20.863,0,0,0,3.54-3.7,21.34,21.34,0,0,0,3.68,3.7Zm7.54,6.1a20.773,20.773,0,0,1-1.9,3.46l1.3.54H91.14v-4H97.3V52.08H91.14V50.1h3.82V49.06A25.278,25.278,0,0,0,98,50.96a11.172,11.172,0,0,1,1.58-2.14A20.435,20.435,0,0,1,91.04,42H88.58a21.329,21.329,0,0,1-8.08,7.06,9.323,9.323,0,0,1,1.48,1.92,25.56,25.56,0,0,0,2.98-1.86v.98h3.68v1.98H82.56v2.04h3.06l-1.82.78a13.741,13.741,0,0,1,1.66,3.22h-3.9v2.04H98.48V58.12H93.96c.7-.84,1.48-2.06,2.24-3.16Zm22.44-4.9H112.4V48h3.96Zm0,2.86H112.4V50.86h3.96Zm0,2.92H112.4V53.76h3.96Zm-6.1-8.78V56.76h8.34V46.22h-3.54c.16-.42.32-.88.48-1.36H119V42.84h-9.34v2.02h3.36c-.08.44-.16.92-.24,1.36Zm-7.42-.66h4.78v1.38h1.98V43.72h-3.26V42.1h-2.22v1.62h-3.2v3.22h1.92Zm3.6,12.18h-2.42V55.9h2.42Zm-2.38-3.68a14.541,14.541,0,0,0,1.68-1.3c.6.46,1.2.9,1.7,1.3Zm2.4-5.32a8.548,8.548,0,0,1-.98,1.42l-1.38-.9c.14-.18.28-.34.42-.52Zm2,6.16.04.04,1.34-1.66a31.419,31.419,0,0,0-2.72-2,11.638,11.638,0,0,0,1.98-3.6l-1.34-.62-.36.1h-1.86a7.894,7.894,0,0,0,.46-.92l-1.94-.48a9.618,9.618,0,0,1-3.66,4.18,8.972,8.972,0,0,1,1.5,1.38,9.16,9.16,0,0,0,.86-.68l1.32.92a11.862,11.862,0,0,1-3.68,2.1,6.865,6.865,0,0,1,1.2,1.7l.42-.18v5.18h2v-.8h4.44a14.105,14.105,0,0,1,1.1,1.14,14.222,14.222,0,0,0,4.26-2.66l-1.92-1.2a11.335,11.335,0,0,1-3.44,2.2Zm6.24,3.12a22.038,22.038,0,0,1,3.12,2.74l1.84-1.22a25.178,25.178,0,0,0-3.24-2.6ZM129.44,42.9l-2.76-.28a16.819,16.819,0,0,1-.54,3.34c-.62.06-1.22.08-1.82.08a25.267,25.267,0,0,1-2.66-.14l.18,2.32c.86.06,1.68.08,2.5.08.34,0,.68,0,1.04-.02a31.511,31.511,0,0,1-4.08,7.06l2.42,1.24A36.852,36.852,0,0,0,128,48.02a34.7,34.7,0,0,0,3.5-.7L131.42,45a24.519,24.519,0,0,1-2.7.64C129.02,44.56,129.28,43.54,129.44,42.9ZM128.4,56.74c0-.7.74-1.22,1.9-1.22a7.185,7.185,0,0,1,1.62.2v.4c0,1.1-.42,1.86-1.8,1.86C129.02,57.98,128.4,57.48,128.4,56.74Zm5.72-7.62h-2.5c.04,1.22.14,3,.22,4.48-.46-.04-.9-.08-1.38-.08-2.78,0-4.42,1.5-4.42,3.46,0,2.2,1.96,3.3,4.44,3.3,2.84,0,3.86-1.44,3.86-3.3v-.2a16.955,16.955,0,0,1,2.7,2.14l1.34-2.14a13.079,13.079,0,0,0-4.14-2.56c-.04-1-.1-1.96-.12-2.54C134.1,50.8,134.06,49.96,134.12,49.12Zm3.44,1.06,1.42-2.1a34.451,34.451,0,0,0-4.94-2.72l-1.28,1.98A28.866,28.866,0,0,1,137.56,50.18Zm9.86-7.04-3.22-.04a12.756,12.756,0,0,1,.26,2.7c0,1.72-.2,6.98-.2,9.66,0,3.42,2.12,4.86,5.4,4.86a10.353,10.353,0,0,0,8.68-4.6l-1.82-2.2c-1.44,2.18-3.54,4.08-6.84,4.08-1.56,0-2.76-.66-2.76-2.68,0-2.48.16-6.96.24-9.12C147.2,45,147.3,43.98,147.42,43.14Z" transform="translate(1303 5932)" fill="#fff"/>
    </g>
    <g id="Group_435" data-name="Group 435" transform="translate(26)">
      <path id="Path_509" data-name="Path 509" d="M68,130.29q-6.973,11.455-13.862,15.854a26.829,26.829,0,0,1-14.692,3.9,25.581,25.581,0,0,1-21.167-10.293q-6.89-8.8-6.89-21.333,0-14.692,9.214-23.823a26.728,26.728,0,0,1,19.673-7.969A28.472,28.472,0,0,1,57.3,91.857q6.558,4.648,12.617,14.526,6.309-11.372,13.281-15.854a26.829,26.829,0,0,1,14.692-3.9q14.028,0,21.831,9.961,6.724,8.55,6.724,21.831,0,14.526-9.38,23.657a27.665,27.665,0,0,1-20,7.969q-10.293,0-17.1-5.063Q73.814,140.5,68,130.29Zm-5.645-9.629q-7.388-14.692-12.783-19.341a15.9,15.9,0,0,0-10.957-3.984,15.816,15.816,0,0,0-13.032,6.309Q21.1,109.372,21.1,118.42q0,10.625,6.143,16.934a16.792,16.792,0,0,0,12.534,5.313Q53.395,140.666,62.359,120.661Zm12.949-4.316q6.807,14.111,12.285,18.843a16.77,16.77,0,0,0,11.455,4.15,16.042,16.042,0,0,0,13.115-6.475q4.565-5.811,4.565-14.443,0-11.04-5.811-17.183a16.608,16.608,0,0,0-12.7-5.229,18.283,18.283,0,0,0-12.949,5.146Q80.206,105.969,75.309,116.345Z" transform="translate(1029 5703)" fill="#fff"/>
      <g id="Ellipse_48" data-name="Ellipse 48" transform="translate(998 5715)" fill="none" stroke="#fff" stroke-width="8">
        <circle cx="100" cy="100" r="100" stroke="none"/>
        <circle cx="100" cy="100" r="96" fill="none"/>
      </g>
      <path id="Path_508" data-name="Path 508" d="M67.12,6.1a21.092,21.092,0,0,1-4.72,7.48,15.9,15.9,0,0,1,1.28,2.44,22.793,22.793,0,0,0,1.52-1.78V24.7h2.26V10.76a33.44,33.44,0,0,0,1.86-3.94Zm4.86,2.92h5.86V11.7H71.98Zm9.22,8.74V15.6H76.04V13.8h4.18V6.92H69.72V13.8h3.92v1.8H68.4v2.16h4.1a14.368,14.368,0,0,1-4.82,4.32,9.821,9.821,0,0,1,1.64,1.9,16.038,16.038,0,0,0,4.32-4.3v5.06h2.4V19.58a16.515,16.515,0,0,0,4.06,4.44,10.125,10.125,0,0,1,1.68-1.9,15.051,15.051,0,0,1-4.58-4.36ZM89.36,6.68H83.72v1.8h5.64Zm-1.9,13.1v2.28H85.54V19.78ZM89.5,17.9H83.54v6.82h2v-.78H89.5Zm-5.9-1.02h5.76v-1.8H83.6Zm5.76-4.58H83.6v1.78h5.76Zm-6.7-.98h7.42V9.44H82.66Zm14.78,10.5V16.3h3.46V14.06H97.44V9.34H101V7.08H90.7V9.34h4.4V21.82H93.58V12.34H91.36v9.48H90.14v2.22h11.24V21.82Zm9.16-5.26h2.48v1.36H106.6Zm2.48-6.06v1.16H106.6V10.5Zm-2.48,2.98h2.48v1.26H106.6Zm5.88,4.44h-1.22V10.5h1.36V8.42h-1.36V6.3h-2.18V8.42H106.6V6.3h-2.14V8.42H102.9V10.5h1.56v7.42h-1.8V20h9.82Zm-7.34,2.22a9.254,9.254,0,0,1-2.64,3.24,13.425,13.425,0,0,1,1.9,1.42,14.069,14.069,0,0,0,2.96-4ZM115.5,16c.02-.62.02-1.2.02-1.72v-.74h2.88V16Zm2.9-6.9v2.34h-2.88V9.1Zm2.3-2.16h-7.4v7.34c0,2.6-.1,5.98-1.26,8.48a21.789,21.789,0,0,0-2.16-2.72l-1.8.98a19.885,19.885,0,0,1,2.14,3.02l1.66-.94c-.06.12-.14.22-.2.34a6.871,6.871,0,0,1,1.88,1.34,16.414,16.414,0,0,0,1.8-6.66h3.04v3.94c0,.32-.1.42-.4.42-.28,0-1.24.02-2.1-.04a8.618,8.618,0,0,1,.68,2.26,6.874,6.874,0,0,0,3.2-.42c.7-.38.92-1,.92-2.18Zm8.36,1.6V9.6h-3.08V8.54Zm-3.08,3.8V11.2h3.08v1.14Zm5.3,1.7V6.82h-7.66V24.74h2.36V14.04Zm3.64-1.66V11.2h3.18v1.18Zm3.18-3.84V9.6h-3.18V8.54Zm-7.8,12.6V19.9h3.3v1.24Zm3.3-2.94h-3.3V17h3.3Zm6.9-11.38h-7.84v7.26h5.44V21.9c0,.32-.12.44-.48.44-.26.02-1,.02-1.78,0V15.26l-6.72-.02v.02h-.98V23.9h2.16V22.88h4.96a8.806,8.806,0,0,1,.52,1.86,8.641,8.641,0,0,0,3.66-.46c.8-.38,1.06-1.08,1.06-2.36Zm12.72,9.34v-4.3h4.52v4.3Zm-7.02,0v-4.3h4.5v4.3Zm7.02-6.64V6.06H150.7V9.52h-6.9V19.6h2.4V18.5h4.5v6.24h2.52V18.5h4.52v1h2.5V9.52ZM171.48,20.4c0-.76.76-1.24,1.9-1.24a6.175,6.175,0,0,1,1.6.22v.36c0,1.18-.42,1.82-1.64,1.82C172.28,21.56,171.48,21.22,171.48,20.4Zm5.94-13.06h-2.86a8.492,8.492,0,0,1,.14,1.32c0,.42.02,1.24.02,2.22-.46.02-.94.02-1.4.02a33.325,33.325,0,0,1-3.5-.18V13.1c1.18.08,2.32.12,3.5.12.46,0,.94,0,1.42-.02.02,1.42.1,2.88.14,4.12a8.9,8.9,0,0,0-1.3-.08c-2.72,0-4.44,1.4-4.44,3.42,0,2.1,1.72,3.26,4.48,3.26,2.7,0,3.78-1.36,3.9-3.28a20.979,20.979,0,0,1,2.44,2.02l1.38-2.1a13.089,13.089,0,0,0-3.88-2.58c-.08-1.36-.18-2.96-.22-4.9,1.1-.08,2.14-.2,3.1-.34v-2.5a27.4,27.4,0,0,1-3.1.46c.02-.88.04-1.62.06-2.06A12.526,12.526,0,0,1,177.42,7.34Zm-9.76.22-2.76-.24a19.075,19.075,0,0,1-.2,1.96,63.338,63.338,0,0,0-.82,8.34,23.491,23.491,0,0,0,.8,6.4l2.26-.18c-.02-.28-.04-.62-.04-.82a5.582,5.582,0,0,1,.1-.94c.24-1.08.88-3.12,1.44-4.76l-1.22-1c-.3.68-.64,1.36-.9,2.06a9.451,9.451,0,0,1-.08-1.3,53.388,53.388,0,0,1,.96-7.74A12.985,12.985,0,0,1,167.66,7.56ZM36.22,42.12a22.65,22.65,0,0,1-3.96,7.72A18.7,18.7,0,0,1,33.4,52.4a15.989,15.989,0,0,0,1.26-1.68v10h2.26V46.56c.56-1.24,1.06-2.54,1.48-3.78Zm3.88,5.52a11.428,11.428,0,0,1,1.18.96,11.021,11.021,0,0,0,1.16-1.2,13.257,13.257,0,0,0,1.48,1.54,15.194,15.194,0,0,1-3.82,1.48Zm7.02-1.66a7.792,7.792,0,0,1-1.6,1.84,9.4,9.4,0,0,1-1.92-1.84Zm3.98,0V44.06H44.6a14.076,14.076,0,0,0,.64-1.5l-2.14-.5a12.158,12.158,0,0,1-3,4.66V44.6H38.04V57.4H40.1V50.88a8.733,8.733,0,0,1,1.04,1.44,17.245,17.245,0,0,0,4.56-2.06,15.1,15.1,0,0,0,4.76,1.9,9.586,9.586,0,0,1,1.28-1.9,15.513,15.513,0,0,1-4.36-1.34,10.844,10.844,0,0,0,2.22-2.94Zm-3.34,7.08c-1.32,1.32-3.92,2.32-6.42,2.84a7.261,7.261,0,0,1,1.16,1.48,14.568,14.568,0,0,0,6.96-3.62ZM45.8,51.24a12,12,0,0,1-4.6,2.16,6.177,6.177,0,0,1,1.26,1.36,12.938,12.938,0,0,0,5.08-2.8Zm3.4,4.08c-1.72,1.88-5.18,2.96-8.86,3.46a8.29,8.29,0,0,1,1.2,1.88c4.08-.74,7.62-2.08,9.7-4.52Zm9.98-.82c-.64.22-1.3.42-1.96.62v-4h1.8V48.94h-1.8V45.42h2.14V43.2h-6.6v2.22h2.2v3.52H52.94v2.18h2.02v4.7c-.92.26-1.74.48-2.44.66l.54,2.42c1.92-.62,4.32-1.38,6.52-2.16Zm3.08-6.04h2.06v1.72H62.26Zm0-3.54h2.06V46.6H62.26ZM68.3,46.6H66.32V44.92H68.3Zm0,3.58H66.32V48.46H68.3Zm-1.76,7.78v-1.9h4.24V53.92H66.54V52.2h4.02V42.9H60.12v9.3h4v1.72H59.98v2.14h4.14v1.9H58.6v2.16H71.46V57.96Zm17.08-4.9H80.1V49.6h3.52Zm-5.76-5.54v7.6h8.16v-7.6Zm-1.92,9.92V45.16H87.96V57.44ZM73.46,42.72v18h2.48V59.66H87.96v1.06h2.6v-18Zm29.26,11.64V52.44c.12.12.2.22.28.3a12.686,12.686,0,0,0,.92-1.44,21.173,21.173,0,0,0,1.36,3.94,9.825,9.825,0,0,1-3.52,3.02,18.627,18.627,0,0,0-1.66-1.06,8.083,8.083,0,0,0,1.06-2.84Zm-5.74,0h1.94a6.081,6.081,0,0,1-.76,1.82c-.58-.28-1.16-.52-1.76-.76Zm10.76-6.5a21.4,21.4,0,0,1-1.08,4.7,25.235,25.235,0,0,1-1.22-4.7Zm3.58,0v-2.2H106c.26-1.06.48-2.16.64-3.28l-2.4-.32c-.48,3.56-1.44,6.96-3.14,9a13.867,13.867,0,0,1,1.62,1.38H97.96l.48-.96-.86-.18h1.28V48.88c.78.62,1.62,1.32,2.06,1.74l1.26-1.64c-.44-.3-1.86-1.14-2.82-1.68h3.28V45.42h-1.9c.48-.62,1.1-1.46,1.72-2.32l-2-.8a19.319,19.319,0,0,1-1.34,2.54l1.32.58H98.86V42.06H96.68v3.36H95l1.28-.56a8.521,8.521,0,0,0-1.2-2.48l-1.72.72a10.654,10.654,0,0,1,1.04,2.32H92.88V47.3H96a10.624,10.624,0,0,1-3.52,2.5,7.2,7.2,0,0,1,1.2,1.72,14.415,14.415,0,0,0,3-2.32v1.92l-.44-.1c-.2.44-.44.92-.68,1.42h-2.9v1.92h1.9c-.5.96-1,1.86-1.44,2.56l2.08.64.22-.38a11.532,11.532,0,0,1,1.12.54,10.51,10.51,0,0,1-3.8,1.08,5.253,5.253,0,0,1,.94,1.96,12.27,12.27,0,0,0,4.92-1.9,18.954,18.954,0,0,1,2.08,1.5l.9-.92a9.031,9.031,0,0,1,.76,1.36,12.99,12.99,0,0,0,4.22-3.28,10.855,10.855,0,0,0,3.36,3.18,9.184,9.184,0,0,1,1.64-2.06,9.387,9.387,0,0,1-3.54-3.32,22.5,22.5,0,0,0,2.18-7.46Zm19.22,4.1c0-4.36-3.12-7.8-8.08-7.8-5.18,0-9.18,3.94-9.18,8.56,0,3.38,1.84,5.82,4.06,5.82,2.18,0,3.9-2.48,5.1-6.52a40.447,40.447,0,0,0,1.2-5.42,4.944,4.944,0,0,1,4.2,5.28,5.427,5.427,0,0,1-4.56,5.36,15.383,15.383,0,0,1-1.86.32l1.5,2.38C127.96,59.16,130.54,56.18,130.54,51.96Zm-14.7.5a6.3,6.3,0,0,1,5.08-5.8,30.021,30.021,0,0,1-1.06,4.84c-.82,2.7-1.6,3.96-2.44,3.96C116.64,55.46,115.84,54.48,115.84,52.46Zm18.78-4.1c.22-.44.46-.94.68-1.5h2.02v1.5Zm4.96-1.5h3.58V44.7h-3.58V42.18h-2.26V44.7h-1.28a18.632,18.632,0,0,0,.46-1.82l-2.18-.46a15.616,15.616,0,0,1-1.84,5.18,18.488,18.488,0,0,1,1.8.76h-1.5V50.5h4.54v1.46h-3.76v7.18h2.12V54.08h1.64v6.64h2.26V54.08h1.76V57c0,.2-.06.24-.24.24a9.025,9.025,0,0,1-1.24-.02,7.481,7.481,0,0,1,.58,2.02,4.359,4.359,0,0,0,2.32-.36c.58-.34.72-.9.72-1.82v-5.1h-3.9V50.5h4.38V48.36h-4.38Zm7.5-3.16h-2.22V54.96h2.22Zm1.36-1.3V57.9c0,.34-.12.42-.44.44-.34,0-1.38,0-2.4-.04a10.446,10.446,0,0,1,.7,2.4,8.2,8.2,0,0,0,3.44-.46c.72-.4.98-1.04.98-2.32V42.4Zm10.14.42-.34.1h-4.72V60.74h2.22V45.04h1.76c-.36,1.4-.82,3.2-1.24,4.48a5.258,5.258,0,0,1,1.48,3.52,1.362,1.362,0,0,1-.36,1.12,1,1,0,0,1-.58.18c-.26,0-.56,0-.94-.02a5.2,5.2,0,0,1,.54,2.12,10.089,10.089,0,0,0,1.38-.04,2.568,2.568,0,0,0,1.18-.46,2.874,2.874,0,0,0,.92-2.6,5.954,5.954,0,0,0-1.54-4.08c.62-1.56,1.3-3.76,1.86-5.5Zm4.48,5.7h4.64V50.2h-4.64ZM167.7,45v1.58h-4.64V45Zm1.44,7.38a17.735,17.735,0,0,1-1.8,1.98,13.978,13.978,0,0,1-.76-2.12h3.48v-9.3h-9.28V57.8c-.78.12-1.48.24-2.08.32l.78,2.3c1.88-.42,4.34-.92,6.64-1.46l-.18-2.08c-.96.18-1.94.36-2.88.52V52.24h1.44c.9,3.9,2.46,6.88,5.4,8.44a8.447,8.447,0,0,1,1.54-2.02,7.57,7.57,0,0,1-3.14-2.62A35.2,35.2,0,0,0,171,53.7Zm12.3-9.48-2.76-.28a16.818,16.818,0,0,1-.54,3.34c-.62.06-1.22.08-1.82.08a25.267,25.267,0,0,1-2.66-.14l.18,2.32c.86.06,1.68.08,2.5.08.34,0,.68,0,1.04-.02a31.511,31.511,0,0,1-4.08,7.06l2.42,1.24A36.852,36.852,0,0,0,180,48.02a34.7,34.7,0,0,0,3.5-.7L183.42,45a24.519,24.519,0,0,1-2.7.64C181.02,44.56,181.28,43.54,181.44,42.9ZM180.4,56.74c0-.7.74-1.22,1.9-1.22a7.185,7.185,0,0,1,1.62.2v.4c0,1.1-.42,1.86-1.8,1.86C181.02,57.98,180.4,57.48,180.4,56.74Zm5.72-7.62h-2.5c.04,1.22.14,3,.22,4.48-.46-.04-.9-.08-1.38-.08-2.78,0-4.42,1.5-4.42,3.46,0,2.2,1.96,3.3,4.44,3.3,2.84,0,3.86-1.44,3.86-3.3v-.2a16.955,16.955,0,0,1,2.7,2.14l1.34-2.14a13.079,13.079,0,0,0-4.14-2.56c-.04-1-.1-1.96-.12-2.54C186.1,50.8,186.06,49.96,186.12,49.12Zm3.44,1.06,1.42-2.1a34.451,34.451,0,0,0-4.94-2.72l-1.28,1.98A28.866,28.866,0,0,1,189.56,50.18Zm9.86-7.04-3.22-.04a12.756,12.756,0,0,1,.26,2.7c0,1.72-.2,6.98-.2,9.66,0,3.42,2.12,4.86,5.4,4.86a10.353,10.353,0,0,0,8.68-4.6l-1.82-2.2c-1.44,2.18-3.54,4.08-6.84,4.08-1.56,0-2.76-.66-2.76-2.68,0-2.48.16-6.96.24-9.12C199.2,45,199.3,43.98,199.42,43.14Z" transform="translate(976 5932)" fill="#fff"/>
    </g>
    <g id="Group_433" data-name="Group 433" transform="translate(7 2)">
      <g id="Ellipse_47" data-name="Ellipse 47" transform="translate(678 5714)" fill="none" stroke="#fff" stroke-width="8">
        <circle cx="100" cy="100" r="100" stroke="none"/>
        <circle cx="100" cy="100" r="96" fill="none"/>
      </g>
      <path id="Path_507" data-name="Path 507" d="M112.538,63.967,83.07,117.922h22.412v13.364H78.836v15.19h26.646v13.364H78.836V183H59.911V159.841H32.435V146.477H59.911v-15.19H32.435V117.922H55.262L26.375,63.967H47.127L66.3,104.973a85.054,85.054,0,0,1,3.569,8.882H70.2a82.083,82.083,0,0,1,3.735-9.38L92.948,63.967Z" transform="translate(709 5692)" fill="#fff"/>
      <path id="Path_506" data-name="Path 506" d="M4.22,6.12A22.65,22.65,0,0,1,.26,13.84,18.7,18.7,0,0,1,1.4,16.4a15.989,15.989,0,0,0,1.26-1.68v10H4.92V10.56C5.48,9.32,5.98,8.02,6.4,6.78ZM8.1,11.64a11.428,11.428,0,0,1,1.18.96,11.021,11.021,0,0,0,1.16-1.2,13.257,13.257,0,0,0,1.48,1.54A15.2,15.2,0,0,1,8.1,14.42Zm7.02-1.66a7.792,7.792,0,0,1-1.6,1.84A9.4,9.4,0,0,1,11.6,9.98Zm3.98,0V8.06H12.6a14.076,14.076,0,0,0,.64-1.5l-2.14-.5a12.159,12.159,0,0,1-3,4.66V8.6H6.04V21.4H8.1V14.88a8.733,8.733,0,0,1,1.04,1.44,17.245,17.245,0,0,0,4.56-2.06,15.1,15.1,0,0,0,4.76,1.9,9.586,9.586,0,0,1,1.28-1.9,15.513,15.513,0,0,1-4.36-1.34A10.844,10.844,0,0,0,17.6,9.98Zm-3.34,7.08c-1.32,1.32-3.92,2.32-6.42,2.84a7.261,7.261,0,0,1,1.16,1.48,14.568,14.568,0,0,0,6.96-3.62ZM13.8,15.24A12,12,0,0,1,9.2,17.4a6.177,6.177,0,0,1,1.26,1.36,12.938,12.938,0,0,0,5.08-2.8Zm3.4,4.08c-1.72,1.88-5.18,2.96-8.86,3.46a8.29,8.29,0,0,1,1.2,1.88c4.08-.74,7.62-2.08,9.7-4.52Zm9.98-.82c-.64.22-1.3.42-1.96.62v-4h1.8V12.94h-1.8V9.42h2.14V7.2h-6.6V9.42h2.2v3.52H20.94v2.18h2.02v4.7c-.92.26-1.74.48-2.44.66l.54,2.42c1.92-.62,4.32-1.38,6.52-2.16Zm3.08-6.04h2.06v1.72H30.26Zm0-3.54h2.06V10.6H30.26ZM36.3,10.6H34.32V8.92H36.3Zm0,3.58H34.32V12.46H36.3Zm-1.76,7.78v-1.9h4.24V17.92H34.54V16.2h4.02V6.9H28.12v9.3h4v1.72H27.98v2.14h4.14v1.9H26.6v2.16H39.46V21.96ZM48.96,9.02v2.56a53.679,53.679,0,0,0,8.6,0V9A41.126,41.126,0,0,1,48.96,9.02Zm1.6,8.54-2.3-.22a12.219,12.219,0,0,0-.34,2.6c0,2.06,1.66,3.28,5.1,3.28a28.324,28.324,0,0,0,5.16-.38l-.04-2.7a23.642,23.642,0,0,1-5.02.52c-2.04,0-2.8-.54-2.8-1.42A6.789,6.789,0,0,1,50.56,17.56ZM45.88,7.68l-2.8-.24c-.02.64-.14,1.4-.2,1.96a55.769,55.769,0,0,0-.84,7.92,25.566,25.566,0,0,0,.78,6.54l2.32-.16c-.02-.28-.04-.6-.04-.82a6.035,6.035,0,0,1,.1-.94c.22-1.06.88-3.24,1.44-4.9l-1.24-.98c-.28.66-.6,1.36-.9,2.04a9.65,9.65,0,0,1-.08-1.3,53.045,53.045,0,0,1,.96-7.34C45.46,9.1,45.72,8.1,45.88,7.68Zm23.06,4.68H66.4v1.88h7.04V12.36H71.06V10.3h2.1V8.44h-2.1V6.08H68.94V8.44H66.82V10.3h2.12ZM66.48,14.4l-1.52.42v-2.8H66.5V9.84H64.96V6.08H62.84V9.84H60.8v2.18h2.04V15.4c-.9.22-1.72.44-2.4.58l.52,2.28c.58-.16,1.22-.34,1.88-.52v4.52c0,.28-.1.36-.34.36s-.94,0-1.66-.04a8.574,8.574,0,0,1,.6,2.16,4.95,4.95,0,0,0,2.72-.44c.62-.36.8-.94.8-2.04V17.1c.6-.18,1.22-.38,1.82-.56Zm4.54,6.7V19.04H73.3v-1.9H71.02V14.78h-2.1v2.36H66.6v1.9h2.32v2.3c-1.22.12-2.36.24-3.28.34l.32,2.04c2.12-.28,4.98-.64,7.66-1.02l-.06-1.88Zm8.64-5.56c-.54-.5-2.68-2.44-3.56-3.12V6.08H73.9V24.74h2.2V14.98c.82.88,1.72,1.9,2.24,2.6ZM89.24,7.2l-2.98-.3a22.168,22.168,0,0,1-.42,4.24c-1.02.08-1.96.14-2.58.16a19.1,19.1,0,0,1-2.14,0l.24,2.72c.6-.1,1.66-.24,2.22-.34.38-.04,1-.12,1.72-.2a30.066,30.066,0,0,1-4.04,9.4l2.6,1.04c1.84-2.94,3.32-7.68,4.08-10.72.56-.04,1.06-.08,1.38-.08,1.26,0,1.94.22,1.94,1.82a15.919,15.919,0,0,1-.8,5.54,1.482,1.482,0,0,1-1.5.86,11.718,11.718,0,0,1-2.46-.42l.44,2.64a12.938,12.938,0,0,0,2.4.28A3.2,3.2,0,0,0,92.62,22c.86-1.74,1.14-4.98,1.14-7.34,0-2.88-1.5-3.82-3.62-3.82-.42,0-1.02.04-1.68.08.14-.72.28-1.46.42-2.06C88.98,8.36,89.12,7.72,89.24,7.2Zm6.88,1.88L93.74,10.1a23,23,0,0,1,3.36,7.6l2.54-1.18A34.568,34.568,0,0,0,96.12,9.08ZM107.8,20.64c0-.5.48-.96,1.24-.96,1.08,0,1.82.84,1.94,2.14a10.441,10.441,0,0,1-1.16.06C108.62,21.88,107.8,21.38,107.8,20.64ZM104.4,7.76l.08,2.6c.46-.06,1.1-.12,1.64-.16,1.06-.06,3.82-.18,4.84-.2-.98.86-3.06,2.54-4.18,3.46-1.18.98-3.6,3.02-5.02,4.16l1.82,1.88c2.14-2.44,4.14-4.06,7.2-4.06,2.36,0,4.16,1.22,4.16,3.02a2.9,2.9,0,0,1-1.66,2.72,4,4,0,0,0-4.26-3.42,3.351,3.351,0,0,0-3.58,3.12c0,2,2.1,3.28,4.88,3.28,4.84,0,7.24-2.5,7.24-5.66,0-2.92-2.58-5.04-5.98-5.04a7.813,7.813,0,0,0-1.9.22c1.26-1,3.36-2.76,4.44-3.52.46-.34.94-.62,1.4-.92l-1.3-1.78a8.738,8.738,0,0,1-1.52.22c-1.14.1-5.42.18-6.48.18A13.879,13.879,0,0,1,104.4,7.76Zm21.4,11.76h8.6v.82h-8.6Zm5.28-6.82v1.32h-3.64a4.055,4.055,0,0,0,.98-1.32Zm-6.44-2.18h2.04a2.452,2.452,0,0,1-.12.78h-2.18Zm4.22-2.18h2.22v.8h-2.22Zm6.56,0v.8h-2.08v-.8Zm-4.34,2.96H128.8l.06-.78h2.22Zm5.46,1.4a1.22,1.22,0,0,1-.18.58.459.459,0,0,1-.42.14,5.9,5.9,0,0,1-1.1-.06,4.178,4.178,0,0,1,.24.66h-1.74V12.7Zm-2.14,3.46h-8.6v-.78h8.6Zm0,2.08h-8.6v-.8h8.6Zm2.42,3.46V14.8c.12,0,.22-.02.3-.02a1.782,1.782,0,0,0,1.16-.48c.34-.36.46-1.08.56-2.38.02-.22.04-.62.04-.62h-5.54v-.78h4.24V6.94h-4.24V6.08h-2.26v.86h-2.22V6.08H126.7v.86h-4.54v1.4h4.54v.8h-3.8a30.223,30.223,0,0,1-1.26,3.6l2.16.14.06-.18h1.76c-.82.66-2.26,1.16-4.74,1.48A9.244,9.244,0,0,1,122,16.02c.54-.08,1.02-.16,1.48-.26V21.7h2.72a27.152,27.152,0,0,1-5.3,1.4,15.368,15.368,0,0,1,1.72,1.7,25.561,25.561,0,0,0,6.24-2.38l-1.58-.72h5.34l-1.52.94a42.2,42.2,0,0,1,5.34,2.12l2.64-1.14c-1.26-.54-3.36-1.3-5.28-1.92Zm14.58-5.04V14.2h4.22v2.46Zm-6.22,0c.04-.74.06-1.46.06-2.1V14.2H149v2.46Zm3.82-7v2.32h-3.76V9.66Zm6.62,2.32H151.4V9.66h4.22Zm2.36-4.58h-15.1v7.14c0,2.8-.18,6.36-2.36,8.76a8.785,8.785,0,0,1,1.88,1.54,11.453,11.453,0,0,0,2.52-5.94H149v5.58h2.4V18.9h4.22v3c0,.36-.14.48-.52.48-.36,0-1.68.02-2.8-.04a8.992,8.992,0,0,1,.76,2.28,9.288,9.288,0,0,0,3.84-.42c.8-.36,1.08-1,1.08-2.28Zm20.56,8.56c0-4.36-3.12-7.8-8.08-7.8-5.18,0-9.18,3.94-9.18,8.56,0,3.38,1.84,5.82,4.06,5.82,2.18,0,3.9-2.48,5.1-6.52a40.447,40.447,0,0,0,1.2-5.42,4.944,4.944,0,0,1,4.2,5.28,5.427,5.427,0,0,1-4.56,5.36,15.382,15.382,0,0,1-1.86.32l1.5,2.38C175.96,23.16,178.54,20.18,178.54,15.96Zm-14.7.5a6.3,6.3,0,0,1,5.08-5.8,30.02,30.02,0,0,1-1.06,4.84c-.82,2.7-1.6,3.96-2.44,3.96C164.64,19.46,163.84,18.48,163.84,16.46Zm21.48,5.06V19.44h9.5v2.08Zm9.5-6.34v2.06h-9.5V15.18Zm0-4.26v2.06h-9.5V10.92ZM190.5,8.64c.32-.72.64-1.5.94-2.3l-2.88-.32a22.633,22.633,0,0,1-.54,2.62H182.9V24.72h2.42v-1h9.5v.98h2.54V8.64ZM207.92,22c-2.14,0-2.5-.18-2.5-1.24V15.94h8.92v1.14h2.54V7.2H202.7V9.64h11.64V13.6h-11.4v7.2c0,2.86,1.22,3.58,4.96,3.58h6.48c3.58,0,4.46-1.04,4.9-4.86a9.084,9.084,0,0,1-2.42-.9c-.26,2.88-.54,3.38-2.54,3.38ZM75.76,54.18h8.72v1.16H75.76ZM80.5,45.2a15.437,15.437,0,0,1-1.12,1.44H75.42a14.805,14.805,0,0,0,1.32-1.44Zm3.98,4.42H75.76V48.48h8.72Zm0,2.84H75.76V51.34h8.72Zm2.48,4.74V46.64H82.22a18.778,18.778,0,0,0,1.62-2.3L82.2,43.28l-.38.1H78.1c.18-.28.36-.54.52-.82l-2.58-.48a14.451,14.451,0,0,1-5.3,5.26,7.858,7.858,0,0,1,1.76,1.7c.32-.22.62-.42.9-.64v8.8h3a23.247,23.247,0,0,1-5.52,1.78,20.238,20.238,0,0,1,1.86,1.84,26.064,26.064,0,0,0,6.18-2.7l-2.04-.92h6.24l-1.76,1.14a38.785,38.785,0,0,1,5.02,2.4l2.68-1.2c-1.3-.66-3.5-1.6-5.44-2.34Zm18.68-8.74h-5.02V45.54h5.02Zm0,5.24h-5.02V50.68h5.02Zm2.38-10.36H98.34V55.9h9.68ZM97.58,50.5l-1.96.5V48.06h2.1v-2.2h-2.1V42.08H93.3v3.78H90.82v2.2H93.3v3.5c-1,.24-1.96.46-2.74.62l.62,2.28,2.12-.56v4.16c0,.28-.1.38-.38.38-.26,0-1.1,0-1.88-.02a7.9,7.9,0,0,1,.66,2.16,6.441,6.441,0,0,0,3.04-.44c.66-.34.88-.92.88-2.08V53.3c.76-.2,1.5-.42,2.24-.62Zm-.62,7.36v2.22h12.28V57.86ZM119.44,42.9l-2.76-.28a16.819,16.819,0,0,1-.54,3.34c-.62.06-1.22.08-1.82.08a25.267,25.267,0,0,1-2.66-.14l.18,2.32c.86.06,1.68.08,2.5.08.34,0,.68,0,1.04-.02a31.511,31.511,0,0,1-4.08,7.06l2.42,1.24A36.852,36.852,0,0,0,118,48.02a34.7,34.7,0,0,0,3.5-.7L121.42,45a24.519,24.519,0,0,1-2.7.64C119.02,44.56,119.28,43.54,119.44,42.9ZM118.4,56.74c0-.7.74-1.22,1.9-1.22a7.185,7.185,0,0,1,1.62.2v.4c0,1.1-.42,1.86-1.8,1.86C119.02,57.98,118.4,57.48,118.4,56.74Zm5.72-7.62h-2.5c.04,1.22.14,3,.22,4.48-.46-.04-.9-.08-1.38-.08-2.78,0-4.42,1.5-4.42,3.46,0,2.2,1.96,3.3,4.44,3.3,2.84,0,3.86-1.44,3.86-3.3v-.2a16.955,16.955,0,0,1,2.7,2.14l1.34-2.14a13.079,13.079,0,0,0-4.14-2.56c-.04-1-.1-1.96-.12-2.54C124.1,50.8,124.06,49.96,124.12,49.12Zm3.44,1.06,1.42-2.1a34.45,34.45,0,0,0-4.94-2.72l-1.28,1.98A28.866,28.866,0,0,1,127.56,50.18Zm9.86-7.04-3.22-.04a12.756,12.756,0,0,1,.26,2.7c0,1.72-.2,6.98-.2,9.66,0,3.42,2.12,4.86,5.4,4.86a10.353,10.353,0,0,0,8.68-4.6l-1.82-2.2c-1.44,2.18-3.54,4.08-6.84,4.08-1.56,0-2.76-.66-2.76-2.68,0-2.48.16-6.96.24-9.12C137.2,45,137.3,43.98,137.42,43.14Z" transform="translate(668 5930)" fill="#fff"/>
    </g>
    <g id="Group_432" data-name="Group 432" transform="translate(-9)">
      <g id="Ellipse_46" data-name="Ellipse 46" transform="translate(377 5714)" fill="none" stroke="#fff" stroke-width="8">
        <circle cx="100" cy="100" r="100" stroke="none"/>
        <circle cx="100" cy="100" r="96" fill="none"/>
      </g>
      <path id="Path_505" data-name="Path 505" d="M60.73,54.627V162H43.738V75.428a54.129,54.129,0,0,1-9.924,5.6A81.806,81.806,0,0,1,21.692,85.1v-14.5q4.248-1.392,8.2-2.93t7.8-3.442q3.845-1.9,7.764-4.248t8.093-5.347Zm55.811,109.131q-16.406,0-25.6-13.4T81.75,111.609q0-27.832,9.595-42.114t27.686-14.282q34.644,0,34.644,53.833,0,26.66-9.778,40.686T116.541,163.758Zm1.685-95q-19.116,0-19.116,42.114,0,39.4,18.75,39.4,18.457,0,18.457-40.063Q136.316,68.763,118.225,68.763Z" transform="translate(390 5703)" fill="#fff"/>
      <path id="Path_504" data-name="Path 504" d="M32.42,9.04H23.94V8.22h8.48Zm0,2.28H23.94v-.84h8.48ZM34.8,6.7H21.66v6.14H34.8ZM33.66,18.02a8.374,8.374,0,0,1-1.36,1.96,7.743,7.743,0,0,1-1.34-1.96ZM23.06,20.4h2.6v.78c-.88.08-1.76.14-2.6.2Zm0-2.48h2.6v.84h-2.6Zm2.6-2.46v.8h-2.6v-.8Zm9.4.66-.4.08H28.44v1.82h1.84l-1.32.36a12.249,12.249,0,0,0,1.82,2.96,10.268,10.268,0,0,1-2.84,1.44V15.46H37.1V13.58H19.32v1.88h1.56v6.08c-.62.06-1.22.08-1.74.12l.18,2.04c1.76-.16,4.04-.36,6.34-.58v1.62h2.28V23.12A8.841,8.841,0,0,1,29,24.72a13.031,13.031,0,0,0,3.4-1.86,11.2,11.2,0,0,0,3.72,1.86,9.851,9.851,0,0,1,1.4-1.86A11.181,11.181,0,0,1,34,21.38a11.923,11.923,0,0,0,2.52-4.7ZM54.4,17.56a28.17,28.17,0,0,1-3.06,2.08,9.516,9.516,0,0,1-1.58-2.08Zm.7,0h2.14v-2.1H44.98V14.42H54.6V12.58H44.98v-1H54.6V9.74H44.98V8.68H55.16V6.74H42.54v8.72H39.22v2.1h3.3v4.58c-.9.1-1.72.22-2.44.3l.54,2.18c2.42-.36,5.72-.86,8.78-1.36l-.1-2.1c-1.44.22-2.92.44-4.32.64V17.56h2.3a11.75,11.75,0,0,0,8.84,7.2,10.567,10.567,0,0,1,1.5-2.14,13.228,13.228,0,0,1-4.66-1.72,33.676,33.676,0,0,0,3.68-2.26ZM59.86,23h8.9V20.62H65.98V8.18H63.8a9.233,9.233,0,0,1-3.44,1.26v1.82h2.68v9.36H59.86Zm16.04.28c3.02,0,5-2.64,5-7.74s-1.98-7.62-5-7.62-5.02,2.5-5.02,7.62C70.88,20.64,72.88,23.28,75.9,23.28Zm0-2.3c-1.28,0-2.24-1.28-2.24-5.44,0-4.14.96-5.34,2.24-5.34s2.22,1.2,2.22,5.34C78.12,19.7,77.18,20.98,75.9,20.98ZM88.18,18.2V15.16h3.46V18.2Zm12.76,0H94.1V15.16h5.28V12.94H94.1V10.56h5.74V8.26H88.54a12.768,12.768,0,0,0,.66-1.64L86.78,6a15.423,15.423,0,0,1-4.2,6.66,18.407,18.407,0,0,1,2.06,1.54,17.974,17.974,0,0,0,2.72-3.64h4.28v2.38H85.8V18.2H82.64v2.28h9v4.28H94.1V20.48h6.84Zm7.9-9.66V9.6h-3.08V8.54Zm-3.08,3.8V11.2h3.08v1.14Zm5.3,1.7V6.82H103.4V24.74h2.36V14.04Zm3.64-1.66V11.2h3.18v1.18Zm3.18-3.84V9.6H114.7V8.54Zm-7.8,12.6V19.9h3.3v1.24Zm3.3-2.94h-3.3V17h3.3Zm6.9-11.38h-7.84v7.26h5.44V21.9c0,.32-.12.44-.48.44-.26.02-1,.02-1.78,0V15.26l-6.72-.02v.02h-.98V23.9h2.16V22.88h4.96a8.806,8.806,0,0,1,.52,1.86,8.641,8.641,0,0,0,3.66-.46c.8-.38,1.06-1.08,1.06-2.36Zm20.04,9.14c0-4.36-3.12-7.8-8.08-7.8-5.18,0-9.18,3.94-9.18,8.56,0,3.38,1.84,5.82,4.06,5.82,2.18,0,3.9-2.48,5.1-6.52a40.447,40.447,0,0,0,1.2-5.42,4.944,4.944,0,0,1,4.2,5.28,5.427,5.427,0,0,1-4.56,5.36,15.382,15.382,0,0,1-1.86.32l1.5,2.38C137.74,23.16,140.32,20.18,140.32,15.96Zm-14.7.5a6.3,6.3,0,0,1,5.08-5.8,30.02,30.02,0,0,1-1.06,4.84c-.82,2.7-1.6,3.96-2.44,3.96C126.42,19.46,125.62,18.48,125.62,16.46ZM146.9,6.1a21.092,21.092,0,0,1-4.72,7.48,15.9,15.9,0,0,1,1.28,2.44,22.791,22.791,0,0,0,1.52-1.78V24.7h2.26V10.76a33.444,33.444,0,0,0,1.86-3.94Zm4.86,2.92h5.86V11.7h-5.86Zm9.22,8.74V15.6h-5.16V13.8H160V6.92H149.5V13.8h3.92v1.8h-5.24v2.16h4.1a14.368,14.368,0,0,1-4.82,4.32,9.821,9.821,0,0,1,1.64,1.9,16.038,16.038,0,0,0,4.32-4.3v5.06h2.4V19.58a16.515,16.515,0,0,0,4.06,4.44,10.125,10.125,0,0,1,1.68-1.9,15.052,15.052,0,0,1-4.58-4.36Zm8.16-11.08H163.5v1.8h5.64Zm-1.9,13.1v2.28h-1.92V19.78Zm2.04-1.88h-5.96v6.82h2v-.78h3.96Zm-5.9-1.02h5.76v-1.8h-5.76Zm5.76-4.58h-5.76v1.78h5.76Zm-6.7-.98h7.42V9.44h-7.42Zm14.78,10.5V16.3h3.46V14.06h-3.46V9.34h3.56V7.08h-10.3V9.34h4.4V21.82h-1.52V12.34h-2.22v9.48h-1.22v2.22h11.24V21.82Z" transform="translate(377 5932)" fill="#fff"/>
    </g>
    <g id="Group_436" data-name="Group 436">
      <path id="Path_503" data-name="Path 503" d="M53.706,38.579c1.443-.117,2.535-.156,5.07-.156H69.813v1.911a34.07,34.07,0,0,1-.312,4.875h8.034a27.34,27.34,0,0,1-.312-4.8v-1.95h1.17a30.944,30.944,0,0,1,3.822.234V31.6a27.515,27.515,0,0,1-3.861.312H77.223V19.235a56.274,56.274,0,0,1,.312-6.474h-8A39.02,39.02,0,0,1,65.913,17.4l-8.463,9.906c-1.989,2.34-1.989,2.34-3.744,4.29Zm16.146-6.591H61.974l5.694-6.942c1.053-1.326,1.638-2.106,2.418-3.2-.156,1.716-.234,3.861-.234,5.616Zm16.575-5.382a22.2,22.2,0,0,1,3.354-1.248c6.162-1.911,10.881-2.769,15.015-2.769,2.73,0,4.524.585,5.772,1.872a5.085,5.085,0,0,1,1.443,3.783,6.3,6.3,0,0,1-1.248,3.9,11.889,11.889,0,0,1-6.708,4.368,38.579,38.579,0,0,1-11.115,1.365,24.034,24.034,0,0,1,2.769,7.059c6.864-.624,10.686-1.521,14.625-3.393,5.772-2.769,9.126-7.722,9.126-13.455a11.585,11.585,0,0,0-4.8-9.672c-2.34-1.638-5.577-2.457-9.672-2.457-3.939,0-6.942.429-14.9,2.067a36.722,36.722,0,0,1-5.148.9Zm59.2-6.747a6.536,6.536,0,0,1,3.276,1.365,9.177,9.177,0,0,1,3.432,7.683c0,4.173-1.677,7.449-4.68,9.048a20.284,20.284,0,0,1-8.19,1.989,19.162,19.162,0,0,1,3.315,6.4c5.46-.858,8.541-2.106,11.193-4.485a16.782,16.782,0,0,0,5.187-12.6,15.507,15.507,0,0,0-3.822-10.842c-2.886-3.042-7.488-4.8-12.714-4.8-5.733,0-10.686,1.989-14.118,5.733a17.337,17.337,0,0,0-4.485,11.895c0,7.137,3.666,12.129,8.892,12.129,3.549,0,6.162-2.184,8.424-7.176A54.634,54.634,0,0,0,145.63,19.859Zm-6.747.078a50.565,50.565,0,0,1-2.925,11.9c-1.17,2.964-2.184,4.329-3.159,4.329-1.365,0-2.418-2.184-2.418-4.953a12.618,12.618,0,0,1,4.251-9.282A7.8,7.8,0,0,1,138.883,19.937ZM185.059,21.3a8.586,8.586,0,0,1-.507,2.223,14.721,14.721,0,0,0-1.833-.078,20.6,20.6,0,0,0-3.783.351c.039-.819.039-.936.039-1.17.039-.663.039-.663.078-1.053,3.9-.156,9.828-.624,13.572-1.17.9-.117,1.053-.117,1.677-.156l-.273-6.318a74.048,74.048,0,0,1-14.625,1.95,22.233,22.233,0,0,1,.624-4.095l-6.708-.273a9.972,9.972,0,0,1,.078,1.638c0,.429,0,.858-.039,1.248-.078,1.17-.078,1.17-.117,1.677l-.546.039h-.234a36.139,36.139,0,0,1-7.254-.585l.078,6.162c.546-.039.7-.039,1.248-.039.7,0,1.326,0,1.911.039,2.886.039,2.886.039,4.563.078-.039,1.677-.039,2.067-.039,3.393a15.239,15.239,0,0,0-5.421,3.549,12.761,12.761,0,0,0-3.9,9.048c0,4.875,2.925,7.956,7.527,7.956a13.925,13.925,0,0,0,9.048-4.056,21.068,21.068,0,0,1,2.184,5.148,23.76,23.76,0,0,0,7.878-1.794c4.719-2.106,7.332-5.889,7.332-10.608a9.382,9.382,0,0,0-3.2-7.332,9.929,9.929,0,0,0-3.939-2.184,19.677,19.677,0,0,1,.819-1.95Zm-3.393,19.071a30.707,30.707,0,0,0,6.825-10.179,3.844,3.844,0,0,1,2.5,3.744,5.976,5.976,0,0,1-3.7,5.226A15.065,15.065,0,0,1,181.665,40.373Zm-8.619-8.7a44.345,44.345,0,0,0,.585,7.059,3.662,3.662,0,0,1-2.145.741c-1.092,0-1.677-.819-1.677-2.262A6.757,6.757,0,0,1,173.047,31.676Zm5.85-2.691a10.146,10.146,0,0,1,3.081-.429,5.76,5.76,0,0,1,.819.039,25.369,25.369,0,0,1-3.666,6.006A47.8,47.8,0,0,1,178.9,28.985ZM212.553,11.4c-.273,1.56-1.014,3.939-4.173,13.026-2.379,6.864-3.744,10.764-4.056,11.739-2.34,6.786-2.418,6.981-3.12,8.346l7.215,2.145a47.7,47.7,0,0,1,3.042-8.97c1.521-3.276,3.393-5.07,5.187-5.07,1.209,0,1.638.624,1.638,2.535v.663c-.039,1.677-.039,2.418-.039,2.769,0,2.769.546,4.446,1.872,5.811a7.47,7.47,0,0,0,5.694,2.028,10.581,10.581,0,0,0,8.7-4.173c1.716-2.3,2.769-4.953,3.51-9.009a20.378,20.378,0,0,1-6.2-3.9,21.539,21.539,0,0,1-1.6,7.215c-.936,2.145-2.067,3.159-3.627,3.159-1.4,0-1.872-.858-1.872-3.588-.078-4.836-.078-5.148-.468-6.552a5.1,5.1,0,0,0-5.187-3.744,8.052,8.052,0,0,0-4.836,1.716c4.524-11.661,5.109-13.026,5.928-14.547Zm33.462.975a18.316,18.316,0,0,1,.195,2.964c0,1.521-.078,5.226-.156,9.165-.2,7.839-.2,7.839-.2,8.853,0,5.46.741,7.956,2.964,10.1,2.106,1.989,5.07,2.964,9.048,2.964,5.109,0,9.165-1.677,12.246-5.031,2.145-2.379,3.432-5.226,4.914-11.076a23.706,23.706,0,0,1-6.669-4.1,29.635,29.635,0,0,1-1.56,7.059c-1.521,4.212-4.641,6.591-8.658,6.591-2.145,0-3.822-.7-4.563-1.872-.663-1.053-.819-2.223-.819-6.123,0-6.513.468-16.926.9-19.383Zm44.538-.975c-.273,1.56-1.014,3.939-4.173,13.026-2.379,6.864-3.744,10.764-4.056,11.739-2.34,6.786-2.418,6.981-3.12,8.346l7.215,2.145a47.694,47.694,0,0,1,3.042-8.97c1.521-3.276,3.393-5.07,5.187-5.07,1.209,0,1.638.624,1.638,2.535v.663c-.039,1.677-.039,2.418-.039,2.769,0,2.769.546,4.446,1.872,5.811a7.47,7.47,0,0,0,5.694,2.028,10.581,10.581,0,0,0,8.7-4.173c1.716-2.3,2.769-4.953,3.51-9.009a20.378,20.378,0,0,1-6.2-3.9,21.539,21.539,0,0,1-1.6,7.215c-.936,2.145-2.067,3.159-3.627,3.159-1.4,0-1.872-.858-1.872-3.588-.078-4.836-.078-5.148-.468-6.552a5.1,5.1,0,0,0-5.187-3.744,8.052,8.052,0,0,0-4.836,1.716c4.524-11.661,5.109-13.026,5.928-14.547Z" transform="translate(774 5562)" fill="#fff"/>
      <g id="Rectangle_175" data-name="Rectangle 175" transform="translate(806 5557)" fill="none" stroke="#fff" stroke-width="2">
        <rect width="309" height="67" stroke="none"/>
        <rect x="1" y="1" width="307" height="65" fill="none"/>
      </g>
      <g id="Rectangle_176" data-name="Rectangle 176" transform="translate(810 5561)" fill="none" stroke="#fff" stroke-width="1">
        <rect width="301" height="58" stroke="none"/>
        <rect x="0.5" y="0.5" width="300" height="57" fill="none"/>
      </g>
    </g>
  </g>
</svg>
