<svg xmlns="http://www.w3.org/2000/svg" xmlns:xlink="http://www.w3.org/1999/xlink" width="120" height="120" viewBox="0 0 120 120">
  <defs>
    <linearGradient id="linear-gradient" x1="0.5" x2="0.5" y2="1" gradientUnits="objectBoundingBox">
      <stop offset="0" stop-color="#e50112"/>
      <stop offset="0.5" stop-color="#d80313"/>
      <stop offset="0.5" stop-color="#9a0d15"/>
      <stop offset="1" stop-color="#8d1519"/>
    </linearGradient>
  </defs>
  <g id="Group_240" data-name="Group 240" transform="translate(11396 4708)">
    <circle id="Ellipse_30" data-name="Ellipse 30" cx="60" cy="60" r="60" transform="translate(-11396 -4708)" fill="url(#linear-gradient)"/>
    <g id="Ellipse_31" data-name="Ellipse 31" transform="translate(-11390 -4702)" fill="none" stroke="#fff" stroke-width="1">
      <circle cx="54" cy="54" r="54" stroke="none"/>
      <circle cx="54" cy="54" r="53.5" fill="none"/>
    </g>
    <path id="Path_499" data-name="Path 499" d="M-15.872-12.536-7.106-13.6A8.3,8.3,0,0,0-4.85-8.476,6.17,6.17,0,0,0-.4-6.7,6.108,6.108,0,0,0,4.318-8.83a8.246,8.246,0,0,0,1.917-5.736A7.69,7.69,0,0,0,4.4-19.98a5.856,5.856,0,0,0-4.479-2,15.8,15.8,0,0,0-4.157.677l1-7.38a7.937,7.937,0,0,0,5.607-1.6,5.678,5.678,0,0,0,1.934-4.5,5.139,5.139,0,0,0-1.418-3.8A5.1,5.1,0,0,0-.886-39.993,5.457,5.457,0,0,0-4.85-38.382a7.57,7.57,0,0,0-2,4.705l-8.347-1.418a18.655,18.655,0,0,1,2.626-6.848,11.855,11.855,0,0,1,4.9-4.028A16.453,16.453,0,0,1-.628-47.437a14.045,14.045,0,0,1,10.7,4.254A11.1,11.1,0,0,1,13.39-35.32q0,6.22-6.8,9.926a11,11,0,0,1,6.494,3.9,11.315,11.315,0,0,1,2.433,7.315,14.19,14.19,0,0,1-4.544,10.6A15.652,15.652,0,0,1-.338.806a15.574,15.574,0,0,1-10.635-3.69A14.5,14.5,0,0,1-15.872-12.536Z" transform="translate(-11336 -4615)" fill="#fff"/>
    <path id="Path_500" data-name="Path 500" d="M-12.82-4.5c-.64.22-1.3.42-1.96.62v-4h1.8v-2.18h-1.8v-3.52h2.14V-15.8h-6.6v2.22h2.2v3.52h-2.02v2.18h2.02v4.7c-.92.26-1.74.48-2.44.66l.54,2.42c1.92-.62,4.32-1.38,6.52-2.16Zm3.08-6.04h2.06v1.72H-9.74Zm0-3.54h2.06v1.68H-9.74ZM-3.7-12.4H-5.68v-1.68H-3.7Zm0,3.58H-5.68v-1.72H-3.7ZM-5.46-1.04v-1.9h4.24V-5.08H-5.46V-6.8h4.02v-9.3H-11.88v9.3h4v1.72h-4.14v2.14h4.14v1.9H-13.4V1.12H-.54V-1.04Zm16.6-.64v-3.4h4.38v3.4Zm-6.7-3.4H8.68v3.4H4.44Zm4.24-5.66V-7.4H4.44v-3.34Zm6.84,0V-7.4H11.14v-3.34Zm-4.38-2.4v-3.78H8.68v3.78H2.06V1.74H4.44V.68H15.52V1.72h2.5V-13.14Z" transform="translate(-11336 -4674)" fill="#fff"/>
  </g>
</svg>
