<svg id="Component_12_1" data-name="Component 12 – 1" xmlns="http://www.w3.org/2000/svg" width="1354" height="252" viewBox="0 0 1354 252">
  <rect id="Rectangle_1987" data-name="Rectangle 1987" width="1354" height="252" fill="none"/>
  <path id="Path_461" data-name="Path 461" d="M132.9-200.1v39H68.1v38.7h60v39h-60V0H21.9V-200.1Zm147,0v39H213v38.7h63.6v39H213V-39h66.9V0H166.8V-200.1ZM450,0,435-37.8H359.4L344.1,0h-48l80.7-200.1h42.3L498,0ZM372.9-73.2h49.5l-24.6-67.2Zm248.7-87.9H578.1V0H531.9V-161.1H488.4v-39H621.6Zm193.5-39V-81.6q0,40.5-22.2,63.3T730.5,4.5q-40.2,0-62.4-22.8T645.9-81.6V-200.1h46.2V-82.8q0,22.8,10.5,33.6,9.9,10.5,27.9,10.5t27.9-10.5Q768.9-60,768.9-82.8V-200.1Zm43.8,0h70.2q32.4,0,51,17.4,17.4,16.8,17.4,44.7,0,25.5-15.6,40.8A60.958,60.958,0,0,1,954-81.9L1015.5,0H959.1l-54-78.9V0H858.9Zm46.2,36v54.9h10.5q18.9,0,27.6-8.7,7.5-7.5,7.5-19.5,0-13.2-9.3-20.4-8.4-6.3-25.5-6.3Zm249-36v39h-66.9v38.7h63.6v39h-63.6V-39h66.9V0H1041V-200.1Z" transform="translate(89 223.8)" fill="#2c4298" opacity="0.08"/>
</svg>
