<svg id="Component_8_1" data-name="Component 8 – 1" xmlns="http://www.w3.org/2000/svg" width="539" height="70" viewBox="0 0 539 70">
  <g id="Group_214" data-name="Group 214" transform="translate(-1363 -38)">
    <rect id="Rectangle_57" data-name="Rectangle 57" width="86" height="70" transform="translate(1363 38)" fill="#bb1c21"/>
    <path id="Path_253" data-name="Path 253" d="M-12.208-4.7V-6.128h1.552V-4.7Zm-3.36,0V-6.128h1.536V-4.7Zm1.536-4.416v1.376h-1.536V-9.12Zm3.376,0v1.376h-1.552V-9.12Zm-1.552-1.7v-2.7h-1.824v2.688H-17.28v5.568c-.432-.384-1.232-1.088-1.712-1.456A15.685,15.685,0,0,0-17.36-10l-1.04-.672-.336.08h-.656v-2.944h-1.872v2.944h-1.9V-8.88H-19.7A11.873,11.873,0,0,1-23.76-4.4a7.308,7.308,0,0,1,.88,1.808A12.025,12.025,0,0,0-21.264-3.92V1.392h1.872v-6.4a18.147,18.147,0,0,1,1.216,1.472l.9-1.216v2.368h1.712v-.624h1.536V1.376h1.824V-3.008h1.552v.56h1.792v-8.368ZM-4.4-2.848A8.582,8.582,0,0,1-7.152-.192,11.321,11.321,0,0,1-5.632.992,12.119,12.119,0,0,0-2.576-2.3ZM5.744-3.44V-5.1H-5.728V-3.44H-.96V-.48c0,.192-.064.256-.32.256-.24.016-1.152.016-1.9-.032a5.864,5.864,0,0,1,.672,1.648A7.66,7.66,0,0,0,.128,1.12C.768.864.976.448.976-.416V-3.44ZM2.176-2.032A20.456,20.456,0,0,1,5.04,1.008L6.688.032A20.709,20.709,0,0,0,3.712-2.9ZM1.088-9.984A12.389,12.389,0,0,0,2.656-8h-5.28A12.135,12.135,0,0,0-1.04-9.984Zm5.888,0V-11.7H-.1c.224-.528.432-1.04.608-1.584l-2.08-.272A9.315,9.315,0,0,1-2.256-11.7H-6.992v1.712h3.648A11.281,11.281,0,0,1-7.728-6.752a5.179,5.179,0,0,1,1.3,1.472A13.474,13.474,0,0,0-3.248-7.408v1.024H3.168v-1.1a11.288,11.288,0,0,0,3.152,2.1,7.426,7.426,0,0,1,1.3-1.552,11.052,11.052,0,0,1-4.48-3.04Zm3.456-2.768v5.5c0,2.64-.208,5.328-2.032,7.408a8.455,8.455,0,0,1,1.632,1.376C12.16-.88,12.4-4.128,12.4-7.232v-5.52Zm4.88.688V-.16h1.952v-11.9Zm4.864-.72V1.344h2.016V-12.784Zm-47.952,24.72h1.616V10.128h-1.616V6.656h-1.776v3.472h-1.872v1.808h1.872v4.512c-.8.3-1.5.576-2.08.784l.768,1.92c1.472-.672,3.3-1.536,4.992-2.384l-.432-1.68c-.48.208-.976.416-1.472.624Zm5.456,7.456c-.976,0-1.12-.144-1.12-1.072V13.376l1.328-.576v4.88h1.776V12.032l1.376-.608c0,2.272-.016,3.44-.048,3.7-.064.288-.16.352-.352.352a7.279,7.279,0,0,1-.768-.032,5.11,5.11,0,0,1,.4,1.6,4.461,4.461,0,0,0,1.664-.224,1.365,1.365,0,0,0,.816-1.328c.08-.656.112-2.576.112-5.616l.064-.32L-18.4,9.088l-.336.224-.336.224-1.264.544V6.432h-1.776v4.416l-1.328.56V7.984h-1.824v4.208l-1.568.656.7,1.7.864-.368v4.112c0,2.208.624,2.8,2.784,2.8h3.408c1.872,0,2.432-.768,2.688-3.008a4.816,4.816,0,0,1-1.664-.688c-.144,1.632-.3,2-1.184,2Zm11.232-4.016-1.088.544V12.064h1.2V10.24h-1.2V6.656h-1.776V10.24h-1.44v1.824h1.44v4.768c-.592.272-1.136.528-1.584.72l.72,1.92c1.312-.7,2.864-1.584,4.272-2.416Zm8.464-3.952A19.644,19.644,0,0,1-3.5,14.4c-.144-1.216-.24-2.576-.3-4.032H-.7V8.64h-.7L-.72,8A10.123,10.123,0,0,0-2.48,6.448l-1.072.928A15.015,15.015,0,0,1-2.16,8.64h-1.7c-.016-.736-.016-1.456,0-2.192H-5.664c0,.736.016,1.456.032,2.192h-5.1v1.728h5.168a46.248,46.248,0,0,0,.672,6.72c-.208.3-.432.592-.672.88L-5.712,16.7c-2.016.448-4.112.928-5.5,1.184l.448,1.776c1.376-.352,3.168-.832,4.864-1.28a10.5,10.5,0,0,1-2.048,1.7,8.37,8.37,0,0,1,1.36,1.2,11.188,11.188,0,0,0,2.24-2.112c.5,1.36,1.168,2.208,2.064,2.208,1.2,0,1.664-.608,1.936-2.736a4.285,4.285,0,0,1-1.28-1.056c-.048,1.424-.176,2.016-.4,2.016-.384,0-.752-.864-1.024-2.288A20.477,20.477,0,0,0-.928,11.744Zm-5.024,3.424H-8.88V12.9h1.232Zm-2.624-3.408V16.3H-6.16V11.44ZM3.008,9.328H6.1l-.736.912a11.086,11.086,0,0,1,2.752,1.536l.944-1.216A9.787,9.787,0,0,0,6.768,9.328h6.16v1.664H14.88V7.632H8.928V6.464H6.976V7.632H1.152v3.36H3.008Zm-.32,1.728A5.091,5.091,0,0,1,.672,13.712l1.456.976A5.68,5.68,0,0,0,4.24,11.616Zm7.36,4.592c1.472,0,1.952-.416,2.16-2.064a5.081,5.081,0,0,1-1.52-.576c-.08,1.008-.192,1.168-.8,1.168H7.952a13.685,13.685,0,0,0,4.064-3.552L10.384,9.9a10.96,10.96,0,0,1-3.968,3.28V10.928H4.72v3.04A26.473,26.473,0,0,1,.5,15.232a10.507,10.507,0,0,1,1.056,1.536,25.778,25.778,0,0,0,3.968-1.36,4.229,4.229,0,0,0,1.7.24Zm1.744,3.392H8.928V15.824H7.008V19.04H4.3V16.576H2.432v4.816H4.3v-.608h7.488v.592h1.9v-4.8h-1.9Zm-.3-6.976a15.887,15.887,0,0,1,2.544,2.976l1.456-1.024a15.586,15.586,0,0,0-2.656-2.864ZM27.7,15.7v.576H22.112V15.7Zm-5.584,3.856V18.96H27.7v.592ZM27.7,17.9H22.112v-.576H27.7Zm3.36-4.192V12.224H24.944v-.688h4.64V10.16h-4.64V9.488h5.472V8.016H27.7c.272-.32.576-.688.9-1.1l-2.08-.5a8.786,8.786,0,0,1-.832,1.568l.112.032h-3.52l.08-.032a5.84,5.84,0,0,0-1.024-1.568l-1.68.528a6.793,6.793,0,0,1,.688,1.072H17.664V9.488h5.344v.672H18.464v1.376h4.544v.688H16.944v1.488h3.072a9.741,9.741,0,0,1-3.664,4.432,10.884,10.884,0,0,1,1.424,1.424,12.165,12.165,0,0,0,2.432-2.448v4.24h1.9V20.9H27.7v.464H29.68V14.352H21.808c.1-.208.176-.416.256-.64ZM-16.76,40h2.24V35.248c0-1.36-.176-2.848-.288-4.128h.08l1.2,2.544L-10.1,40h2.4V28.144h-2.24V32.88c0,1.344.192,2.912.3,4.144h-.08l-1.184-2.56-3.44-6.32H-16.76Zm15.536.224a4.371,4.371,0,0,0,4.3-4.7,4.371,4.371,0,0,0-4.3-4.7,4.371,4.371,0,0,0-4.3,4.7A4.371,4.371,0,0,0-1.224,40.224Zm0-1.92c-1.216,0-1.9-1.088-1.9-2.784,0-1.68.688-2.784,1.9-2.784s1.9,1.1,1.9,2.784C.68,37.216-.008,38.3-1.224,38.3Zm7.408,1.92a1.538,1.538,0,1,0-1.456-1.536A1.474,1.474,0,0,0,6.184,40.224ZM10.1,40h7.12V38.1H15V28.464H13.256a7.68,7.68,0,0,1-2.752.992v1.456h2.144V38.1H10.1Z" transform="translate(1406 60)" fill="#fff"/>
  </g>
  <g id="Group_217" data-name="Group 217" transform="translate(-1363 -38)">
    <rect id="Rectangle_110" data-name="Rectangle 110" width="285" height="70" transform="translate(1459 38)" fill="#f9be00"/>
    <g id="Group_216" data-name="Group 216">
      <path id="Path_247" data-name="Path 247" d="M8.232-7.154V-6.4H6.622v-.756Zm3.136.756H9.716v-.756h1.652ZM9.716-4.452v-.784h1.652v.784Zm-3.094,0v-.784h1.61v.784Zm0,1.2h1.61V-1.2H9.716V-3.248h1.652V-2.6c0,.14-.042.2-.21.21-.14,0-.63,0-1.064-.014A4.552,4.552,0,0,1,10.5-1.1a4.213,4.213,0,0,0,1.89-.238c.448-.224.574-.574.574-1.246v-5.77H11.27c-.238-.14-.532-.28-.84-.434a15.935,15.935,0,0,0,2.492-1.89l-.994-.8-.322.084H5.18v1.26h4.984a12.935,12.935,0,0,1-1.12.742c-.574-.252-1.162-.476-1.652-.658l-1.078.9c.574.224,1.246.5,1.876.8H5.054v7.21H6.622ZM4.284-9.408a11.991,11.991,0,0,0-2.436-2.156L.7-10.5A11.365,11.365,0,0,1,3.038-8.218Zm-.42,2.982H.49V-4.9H2.268v3.052A19.27,19.27,0,0,1,.308-.574l.77,1.666C1.862.5,2.52-.042,3.164-.588A4.343,4.343,0,0,0,6.79.966c1.708.07,4.676.042,6.4-.042A6.879,6.879,0,0,1,13.706-.7c-1.918.154-5.236.2-6.9.126A3.2,3.2,0,0,1,3.864-1.96Zm15.47-5H15.2v1.26h4.13Zm-1.358,9.17v1.6h-1.5v-1.6ZM19.39-3.57H15.078V1.2h1.4V.658H19.39Zm-4.27-.714h4.2v-1.26h-4.2Zm4.2-3.206h-4.2v1.246h4.2Zm-4.858-.686h5.32V-9.492h-5.32ZM25.368-.952H22.19v-1.96h3.178Zm2.226-5.306V-7.812h-3.01V-9.758a21.289,21.289,0,0,0,2.646-.574l-1.176-1.386A30.6,30.6,0,0,1,20.118-10.7a5.448,5.448,0,0,1,.448,1.4c.742-.056,1.54-.126,2.324-.224v1.708H19.88v1.554h3.01V-4.41H20.608V1.218H22.19V.546h3.178v.616h1.666V-4.41h-2.45V-6.258Zm10.36-.882H36.89V-8.932h1.064Zm0,3.262H36.89V-5.656h1.064Zm-5.88-1.778h1.008v1.778H32.074Zm3.43,0v1.778H34.468V-5.656ZM34.468-7.14V-8.932H35.5V-7.14ZM32.074-8.932h1.008V-7.14H32.074ZM30.6-7.14H28.728v1.484H30.6v1.778H28.938v1.484H41.1V-3.878H39.48V-5.656H41.3V-7.14H39.48V-8.932H40.8V-10.4H32.4a7.537,7.537,0,0,0,.546-.98l-1.624-.476a8.609,8.609,0,0,1-2.9,3.346,15.419,15.419,0,0,1,1.356,1.09,9.62,9.62,0,0,0,.826-.728Zm-.43,8.372a7.661,7.661,0,0,0,1.6-2.94L30.156-2.1A6.9,6.9,0,0,1,28.588.588ZM32.662-1.61a17.771,17.771,0,0,1,.266,2.674L34.552.826a18.314,18.314,0,0,0-.35-2.618Zm2.772.028a14.919,14.919,0,0,1,.714,2.66L37.814.756A15.6,15.6,0,0,0,37-1.848Zm2.772-.07a18.032,18.032,0,0,1,1.652,2.87L41.566.644a18.99,18.99,0,0,0-1.764-2.8Zm13.86-7.756A10.521,10.521,0,0,0,49.84-11.1l-.8,1.12a11.264,11.264,0,0,1,2.17,1.82ZM48.4-6.468a11.84,11.84,0,0,1,2.3,1.75l.84-1.33a11.692,11.692,0,0,0-2.352-1.61Zm-1.26-4.62a26.041,26.041,0,0,1-.77,3.276l1.05.294c.35-.812.756-2.142,1.12-3.262ZM44.422-7.812a14.037,14.037,0,0,0-.714-3.206l-1.162.308a13.844,13.844,0,0,1,.63,3.234Zm3.822,4.606c-.294-.392-1.624-1.96-2.03-2.366v-.1h2.072V-7.224H46.214V-11.8h-1.54v4.578H42.56V-5.67h1.6a12.961,12.961,0,0,1-1.848,3.626,9.893,9.893,0,0,1,.756,1.722,14.368,14.368,0,0,0,1.61-3.444V1.176h1.54V-3.738a18.7,18.7,0,0,1,1.008,1.82Zm7.406.322L55.4-4.438l-1.428.266v-7.7H52.4v7.98l-4.158.742L48.5-1.6l3.9-.7V1.2h1.57V-2.58Z" transform="translate(1496 95.872)" fill="#101010"/>
      <path id="Path_249" data-name="Path 249" d="M9.282-5.32A9.226,9.226,0,0,0,12.04,1.4L13.37.812A8.7,8.7,0,0,1,10.864-5.32a8.7,8.7,0,0,1,2.506-6.132l-1.33-.588A9.226,9.226,0,0,0,9.282-5.32Zm9.2,1.96V-5.488H20.9V-3.36Zm8.932,0h-4.79V-5.488h3.7V-7.042h-3.7V-8.708h4.018v-1.61h-7.91a8.938,8.938,0,0,0,.462-1.148L17.5-11.9a10.8,10.8,0,0,1-2.94,4.662A12.885,12.885,0,0,1,16-6.16a12.582,12.582,0,0,0,1.9-2.548h3v1.666H16.814V-3.36H14.6v1.6h6.3v3h1.722v-3H27.41Zm8.442-1.428V-7.8H39.02v3.01Zm-4.914,0V-7.8h3.15v3.01Zm4.914-4.648v-2.422H34.09v2.422H29.26V-2.38h1.68v-.77h3.15V1.218h1.764V-3.15h3.164v.7h1.75V-9.436Zm16.1,2.3H50.89v-1.8h1.064Zm0,3.262H50.89V-5.656h1.064Zm-5.88-1.778h1.008v1.778h-1.01Zm3.43,0v1.778H48.468V-5.656ZM48.468-7.14V-8.932H49.5V-7.14ZM46.074-8.932h1.008V-7.14H46.074ZM44.6-7.14H42.728v1.484H44.6v1.778H42.938v1.484H55.1V-3.878H53.48V-5.656H55.3V-7.14H53.48V-8.932H54.8V-10.4H46.4a7.537,7.537,0,0,0,.546-.98l-1.624-.476a8.609,8.609,0,0,1-2.9,3.346,15.418,15.418,0,0,1,1.356,1.09,9.62,9.62,0,0,0,.826-.728Zm-.43,8.372a7.661,7.661,0,0,0,1.6-2.94L44.156-2.1A6.9,6.9,0,0,1,42.588.588ZM46.662-1.61a17.772,17.772,0,0,1,.266,2.674L48.552.826a18.315,18.315,0,0,0-.35-2.618Zm2.772.028a14.919,14.919,0,0,1,.714,2.66L51.814.756A15.6,15.6,0,0,0,51-1.848Zm2.772-.07a18.032,18.032,0,0,1,1.652,2.87L55.566.644a18.99,18.99,0,0,0-1.764-2.8ZM69.37-6.846V-8.47H65.716v-3.164H64.064V-8.47H60.508v1.624h2.9A13.283,13.283,0,0,1,59.95-1.778V-8.3a22.09,22.09,0,0,0,1.442-2.954l-1.652-.532A14.363,14.363,0,0,1,56.2-6.412a12.087,12.087,0,0,1,.966,1.75,12.69,12.69,0,0,0,1.148-1.26V1.19h1.638v-2.8a9.233,9.233,0,0,1,1.13,1.232A14.226,14.226,0,0,0,64.064-4.62V1.218h1.652V-4.9A14.311,14.311,0,0,0,68.544-.448a5.935,5.935,0,0,1,1.246-1.33,13.694,13.694,0,0,1-3.346-5.068ZM74.718-5.32a9.226,9.226,0,0,0-2.758-6.72l-1.33.588A8.7,8.7,0,0,1,73.136-5.32,8.7,8.7,0,0,1,70.63.812l1.33.588a9.226,9.226,0,0,0,2.758-6.72Z" transform="translate(1652.718 96.04)" fill="#bb1c21"/>
      <path id="Path_248" data-name="Path 248" d="M2.45-7.1c0-1.274.63-1.9,1.4-1.9.882,0,1.6.7,1.778,2.576A2.035,2.035,0,0,1,3.92-5.306C3.024-5.306,2.45-5.88,2.45-7.1ZM3.57.2C5.628.2,7.546-1.5,7.546-5.418c0-3.6-1.764-5.138-3.724-5.138A3.247,3.247,0,0,0,1.439-9.538,3.247,3.247,0,0,0,.56-7.1c0,2.2,1.246,3.262,2.968,3.262a2.91,2.91,0,0,0,2.128-1.12c-.1,2.59-1.05,3.472-2.212,3.472a2.3,2.3,0,0,1-1.624-.74L.728-.98A3.886,3.886,0,0,0,3.57.2Zm6.944-5.32a1.277,1.277,0,0,0,.93-.391,1.277,1.277,0,0,0,.356-.943,1.281,1.281,0,0,0-.353-.95,1.281,1.281,0,0,0-.933-.4,1.278,1.278,0,0,0-.926.4,1.278,1.278,0,0,0-.348.947,1.275,1.275,0,0,0,.353.937,1.275,1.275,0,0,0,.921.393Zm0,5.32a1.289,1.289,0,0,0,.931-.4,1.289,1.289,0,0,0,.355-.949,1.281,1.281,0,0,0-.355-.949,1.281,1.281,0,0,0-.933-.395,1.278,1.278,0,0,0-.924.4,1.278,1.278,0,0,0-.348.944A1.287,1.287,0,0,0,9.59-.2a1.287,1.287,0,0,0,.924.4Zm6.412,0c2.114,0,3.5-1.848,3.5-5.418s-1.386-5.334-3.5-5.334S13.412-8.8,13.412-5.218,14.812.2,16.926.2Zm0-1.61c-.9,0-1.568-.9-1.568-3.808S16.03-8.96,16.926-8.96s1.554.84,1.554,3.738-.658,3.808-1.554,3.808ZM25.172.2c2.114,0,3.5-1.848,3.5-5.418s-1.386-5.334-3.5-5.334S21.658-8.8,21.658-5.218,23.058.2,25.172.2Zm0-1.61c-.9,0-1.568-.9-1.568-3.808s.672-3.738,1.568-3.738,1.554.84,1.554,3.738-.658,3.8-1.554,3.8Zm10.486-3.3a4.236,4.236,0,0,0,3.3,1.54A4.327,4.327,0,0,0,42.77-5.754l-1.54-.84A2.735,2.735,0,0,1,39-4.914a2.562,2.562,0,0,1-2.086-1.008,4.236,4.236,0,0,0-3.3-1.54,4.327,4.327,0,0,0-3.808,2.576l1.54.84a2.735,2.735,0,0,1,2.226-1.68,2.581,2.581,0,0,1,2.086,1.008ZM44.436,0h6.23V-1.666H48.72v-8.708H47.194a6.463,6.463,0,0,1-2.408.882v1.274h1.876v6.552H44.436ZM55.65.2c2.1,0,3.486-1.2,3.486-2.772A3.013,3.013,0,0,0,57.4-5.348v-.07a3.018,3.018,0,0,0,1.33-2.366,2.719,2.719,0,0,0-.882-2.059,2.719,2.719,0,0,0-2.128-.7c-1.792,0-3.122,1.064-3.122,2.73A2.951,2.951,0,0,0,53.97-5.348v.07a3,3,0,0,0-1.778,2.7C52.192-.952,53.676.2,55.65.2Zm.658-6.118c-1.092-.434-1.89-.91-1.89-1.89a1.2,1.2,0,0,1,.337-.932,1.2,1.2,0,0,1,.923-.36,1.32,1.32,0,0,1,1.014.409,1.32,1.32,0,0,1,.358,1.033,2.481,2.481,0,0,1-.742,1.736Zm-.6,4.662A1.588,1.588,0,0,1,54.5-1.65,1.588,1.588,0,0,1,53.97-2.8a2.491,2.491,0,0,1,.952-1.918c1.344.546,2.3.994,2.3,2.072A1.352,1.352,0,0,1,56.783-1.6a1.352,1.352,0,0,1-1.077.344ZM62.05-5.12a1.277,1.277,0,0,0,.929-.389,1.277,1.277,0,0,0,.359-.941,1.281,1.281,0,0,0-.353-.954,1.281,1.281,0,0,0-.937-.4,1.278,1.278,0,0,0-.925.4,1.278,1.278,0,0,0-.349.945,1.275,1.275,0,0,0,.352.938,1.275,1.275,0,0,0,.922.394Zm0,5.32a1.289,1.289,0,0,0,.931-.4,1.289,1.289,0,0,0,.357-.947,1.281,1.281,0,0,0-.355-.949,1.281,1.281,0,0,0-.933-.395,1.278,1.278,0,0,0-.925.4,1.278,1.278,0,0,0-.349.945,1.287,1.287,0,0,0,.351.942,1.287,1.287,0,0,0,.921.4Zm6.41,0c2.114,0,3.5-1.848,3.5-5.418s-1.386-5.334-3.5-5.334S64.946-8.8,64.946-5.218,66.346.2,68.46.2Zm0-1.61c-.9,0-1.568-.9-1.568-3.808S67.564-8.96,68.46-8.96s1.554.84,1.554,3.738-.658,3.808-1.554,3.808ZM76.706.2c2.114,0,3.5-1.848,3.5-5.418s-1.386-5.334-3.5-5.334S73.192-8.8,73.192-5.218,74.592.2,76.706.2Zm0-1.61c-.9,0-1.568-.9-1.568-3.808S75.81-8.96,76.706-8.96s1.554.84,1.554,3.738-.66,3.808-1.554,3.808Z" transform="translate(1568 95.556)" fill="#101010"/>
      <g id="Group_215" data-name="Group 215">
        <path id="Path_246" data-name="Path 246" d="M12.2.432C18.432.432,23-4.284,23-12.6S18.432-25.632,12.2-25.632c-6.192,0-10.8,4.716-10.8,13.032S6.012.432,12.2.432Zm0-4.932c-2.88,0-4.9-2.376-4.9-8.1s2.016-8.1,4.9-8.1c2.916,0,4.932,2.376,4.932,8.1S15.12-4.5,12.2-4.5ZM24.48-25.2v4.68h5.04V0h5.832V-25.2ZM47.736-4.752l5.8-5.472c3.528-3.276,4.212-5.508,4.212-7.956,0-4.572-3.744-7.452-9.36-7.452-4.536,0-8.064,1.836-10.008,4.68l4.248,2.736a6.162,6.162,0,0,1,5.22-2.52c2.664,0,4.032,1.152,4.032,3.132,0,1.224-.4,2.52-2.628,4.644l-9.72,9.18V0h19.04V-4.752ZM71.712.432c6.228,0,10.8-4.716,10.8-13.032s-4.572-13.032-10.8-13.032c-6.192,0-10.8,4.716-10.8,13.032S65.52.432,71.712.432Zm0-4.932c-2.88,0-4.9-2.376-4.9-8.1s2.016-8.1,4.9-8.1c2.916,0,4.932,2.376,4.932,8.1S74.628-4.5,71.712-4.5ZM85.968-7.884H96.156v-4.5H85.968Zm24.48-7.056,5.688-6.48V-25.2H98.5v4.68h10.728l-5.184,5.868V-10.8H106.7c3.312,0,4.716,1.188,4.716,3.1,0,2.052-1.8,3.24-4.716,3.24a12.239,12.239,0,0,1-7.2-2.268l-2.264,4.46a17.327,17.327,0,0,0,9.612,2.7c7.164,0,10.44-3.888,10.44-8.136,0-3.708-2.3-6.516-6.84-7.236Zm8.388-10.26v4.68h5.04V0h5.832V-25.2Zm27.4,9.4A8.5,8.5,0,0,0,140-13.572c.18-4.824,2.88-7.308,7.092-7.308a8.3,8.3,0,0,1,4.716,1.26l2.16-4.284a13.607,13.607,0,0,0-7.02-1.728c-7.6,0-12.852,4.86-12.852,13.572,0,8.136,4.32,12.492,11.268,12.492,5.328,0,9.54-3.24,9.54-8.388,0-4.752-3.812-7.844-8.672-7.844ZM145.048-3.92c-2.808,0-4.428-1.584-4.428-3.744,0-2.2,1.8-3.78,4.356-3.78,2.592,0,4.284,1.476,4.284,3.78s-1.732,3.74-4.216,3.74Zm12.636-3.96h10.188v-4.5H157.68Zm25.7-7.92a8.505,8.505,0,0,0-6.228,2.232c.18-4.824,2.88-7.308,7.092-7.308a8.3,8.3,0,0,1,4.716,1.26l2.16-4.284a13.607,13.607,0,0,0-7.02-1.728c-7.6,0-12.852,4.86-12.852,13.572,0,8.136,4.32,12.492,11.268,12.492,5.328,0,9.54-3.24,9.54-8.388,0-4.756-3.816-7.848-8.676-7.848ZM182.2-3.924c-2.808,0-4.428-1.584-4.428-3.744,0-2.2,1.8-3.78,4.356-3.78,2.592,0,4.284,1.476,4.284,3.78S184.68-3.924,182.2-3.924ZM204.984.432c6.228,0,10.8-4.716,10.8-13.032s-4.572-13.032-10.8-13.032c-6.192,0-10.8,4.716-10.8,13.032S198.792.432,204.984.432Zm0-4.932c-2.88,0-4.9-2.376-4.9-8.1s2.016-8.1,4.9-8.1c2.916,0,4.932,2.376,4.932,8.1S207.9-4.5,204.984-4.5ZM230.76-15.8a8.505,8.505,0,0,0-6.228,2.232c.18-4.824,2.88-7.308,7.092-7.308a8.3,8.3,0,0,1,4.716,1.26L238.5-23.9a13.607,13.607,0,0,0-7.02-1.728c-7.6,0-12.852,4.86-12.852,13.572,0,8.136,4.32,12.492,11.268,12.492,5.328,0,9.54-3.24,9.54-8.388C239.436-12.708,235.62-15.8,230.76-15.8ZM229.572-3.92c-2.808,0-4.428-1.584-4.428-3.744,0-2.2,1.8-3.78,4.356-3.78,2.592,0,4.284,1.476,4.284,3.78s-1.728,3.74-4.212,3.74Z" transform="translate(1492 77)" fill="#101010"/>
        <path id="Icon_awesome-phone-alt" data-name="Icon awesome-phone-alt" d="M18.5,13.453l-4.17-1.784a.892.892,0,0,0-1.041.257l-1.844,2.253A13.783,13.783,0,0,1,4.856,7.59L7.11,5.746A.89.89,0,0,0,7.366,4.7L5.581.54A.9.9,0,0,0,4.559.023L.692.915A.892.892,0,0,0,0,1.785,17.252,17.252,0,0,0,17.255,19.039a.892.892,0,0,0,.868-.692l.892-3.867a.9.9,0,0,0-.515-1.027Z" transform="translate(1467.962 54)" fill="#bb1c21"/>
      </g>
    </g>
  </g>
  <g id="Group_88" data-name="Group 88" transform="translate(-1290 -24)">
    <rect id="Rectangle_2" data-name="Rectangle 2" width="148" height="70" transform="translate(1681 24)" fill="#bb1c21"/>
    <path id="Path_254" data-name="Path 254" d="M-46.872,0h7.936V-1.984H-41.5c-.56,0-1.344.064-1.936.128,2.16-2.112,3.936-4.416,3.936-6.56a3.473,3.473,0,0,0-3.728-3.648,4.753,4.753,0,0,0-3.76,1.792l1.28,1.28a3.1,3.1,0,0,1,2.176-1.216,1.691,1.691,0,0,1,1.776,1.92c0,1.824-1.9,4.048-5.12,6.928Zm11.36-4.864,1.84-2.944c.336-.64.656-1.3.944-1.936h.064c-.032.7-.08,1.776-.08,2.464v2.416ZM-32.744,0h2.192V-3.072h1.392V-4.864h-1.392v-6.992h-2.832L-37.8-4.672v1.6h5.056Zm8.3-10.88v2.816h-1.472V-10.88Zm-1.472,7.488V-6.4h1.472v3.008Zm3.248-9.184h-5.008V-.288h1.76V-1.7h3.248Zm.944,9.536A11.256,11.256,0,0,1-19.9-.352l1.632-.944A11.04,11.04,0,0,0-20.2-3.92Zm8.464-4.1V-8.8H-16.9v-1.408h3.2v-1.664h-3.2v-1.68h-1.872v1.68h-3.072v1.664h3.072V-8.8h-3.616v1.664h5.648V-5.76H-22.36v1.648h5.616v3.44c0,.224-.08.288-.336.288-.24,0-1.136,0-1.9-.032a6.417,6.417,0,0,1,.608,1.792,7.084,7.084,0,0,0,2.672-.32c.624-.288.8-.768.8-1.68V-4.112h1.536V-5.76H-14.9V-7.136Zm6.192-4.432v.848H-9.528v-.848Zm-2.464,3.04V-9.44h2.464v.912Zm4.24,1.36v-5.776h-6.128V1.392h1.888v-8.56ZM-2.376-8.5V-9.44H.168V-8.5ZM.168-11.568v.848H-2.376v-.848Zm-6.24,10.08V-2.48h2.64v.992Zm2.64-2.352h-2.64V-4.8h2.64Zm5.52-9.1H-4.184v5.808H.168V-.88c0,.256-.1.352-.384.352-.208.016-.8.016-1.424,0V-6.192l-5.376-.016v.016H-7.8V.72h1.728V-.1H-2.1a7.045,7.045,0,0,1,.416,1.488A6.913,6.913,0,0,0,1.24,1.024c.64-.3.848-.864.848-1.888ZM7.672.224c2.256,0,4.16-1.264,4.16-3.44A2.961,2.961,0,0,0,9.48-6.128v-.08a2.81,2.81,0,0,0,1.968-2.7c0-2.016-1.552-3.152-3.84-3.152a5.253,5.253,0,0,0-3.552,1.456l1.2,1.44a3.218,3.218,0,0,1,2.24-1.04A1.4,1.4,0,0,1,9.08-8.736c0,1.056-.7,1.808-2.88,1.808v1.68c2.576,0,3.264.736,3.264,1.888,0,1.072-.816,1.664-2.016,1.664a3.761,3.761,0,0,1-2.64-1.216L3.7-1.424A5.033,5.033,0,0,0,7.672.224ZM17.64-5.792c1.024,0,1.7.656,1.7,2.048,0,1.456-.736,2.192-1.616,2.192-.992,0-1.792-.832-2.016-2.992A2.314,2.314,0,0,1,17.64-5.792ZM17.768.224A3.722,3.722,0,0,0,21.48-3.744c0-2.528-1.408-3.712-3.392-3.712a3.409,3.409,0,0,0-2.432,1.28c.1-2.976,1.216-4,2.576-4a2.57,2.57,0,0,1,1.824.864L21.3-10.72a4.358,4.358,0,0,0-3.216-1.344c-2.384,0-4.576,1.888-4.576,6.3C13.512-1.584,15.512.224,17.768.224Zm8.784,0A4,4,0,0,0,30.7-3.936,3.438,3.438,0,0,0,27.048-7.7a3.11,3.11,0,0,0-1.424.336l.224-2.512h4.3v-1.984H23.816L23.5-6.1l1.072.7a2.833,2.833,0,0,1,1.776-.624,1.916,1.916,0,0,1,2,2.144,1.988,1.988,0,0,1-2.1,2.176A3.68,3.68,0,0,1,23.64-2.9l-1.088,1.5A5.4,5.4,0,0,0,26.552.224ZM36.008-1.76V-5.344h7.1V-1.76Zm7.1-8.912v3.44h-7.1v-3.44Zm-9.072-1.92V1.2h1.968V.16h7.1V1.168H45.16v-13.76ZM-20.624,15.84H-21.84V13.792h1.216Zm0,3.728H-21.84V17.536h1.216Zm-6.72-2.032h1.152v2.032h-1.152Zm3.92,0v2.032h-1.184V17.536Zm-1.184-1.7V13.792h1.184V15.84Zm-2.736-2.048h1.152V15.84h-1.152Zm-1.68,2.048h-2.144v1.7h2.144v2.032h-1.9v1.7h13.9v-1.7H-18.88V17.536h2.08v-1.7h-2.08V13.792h1.5v-1.68h-9.6a8.613,8.613,0,0,0,.624-1.12l-1.856-.544a9.839,9.839,0,0,1-3.312,3.824,17.621,17.621,0,0,1,1.552,1.248,10.994,10.994,0,0,0,.944-.832Zm-.5,9.568a8.756,8.756,0,0,0,1.824-3.36l-1.84-.448a7.884,7.884,0,0,1-1.792,3.072Zm2.848-3.248a20.31,20.31,0,0,1,.3,3.056l1.856-.272a20.931,20.931,0,0,0-.4-2.992Zm3.168.032a17.05,17.05,0,0,1,.816,3.04l1.9-.368a17.83,17.83,0,0,0-.928-2.976Zm3.168-.08a20.608,20.608,0,0,1,1.888,3.28l1.952-.656a21.7,21.7,0,0,0-2.016-3.2ZM-4.5,13.248A12.024,12.024,0,0,0-7.04,11.312l-.912,1.28a12.873,12.873,0,0,1,2.48,2.08Zm-4.192,3.36a13.531,13.531,0,0,1,2.624,2l.96-1.52a13.362,13.362,0,0,0-2.688-1.84Zm-1.44-5.28a29.762,29.762,0,0,1-.88,3.744l1.2.336c.4-.928.864-2.448,1.28-3.728Zm-3.1,3.744a16.042,16.042,0,0,0-.816-3.664l-1.328.352a15.822,15.822,0,0,1,.72,3.7Zm4.368,5.264c-.336-.448-1.856-2.24-2.32-2.7V17.52h2.368V15.744h-2.368V10.512h-1.76v5.232H-15.36V17.52h1.824a14.812,14.812,0,0,1-2.112,4.144,11.307,11.307,0,0,1,.864,1.968,16.421,16.421,0,0,0,1.84-3.936v5.648h1.76V19.728a21.373,21.373,0,0,1,1.152,2.08ZM-.4,20.7l-.288-1.776-1.632.3v-8.8H-4.112v9.12l-4.752.848.288,1.776,4.464-.8v4H-2.32v-4.32ZM4.656,17.68h6.688v.992H4.656Zm0-2.544h6.688v.992H4.656Zm0-2.528h6.688V13.6H4.656Zm6.72,10.848c-.608,0-.7-.064-.7-.576V20.336H13.28V10.944H2.816v9.392H4.768C4.5,22.08,3.808,23.152.528,23.76a6.03,6.03,0,0,1,1.056,1.7c3.952-.9,4.9-2.576,5.232-5.12H8.752V22.9c0,1.792.448,2.368,2.352,2.368h2.112c1.584,0,2.08-.656,2.288-3.184a6.06,6.06,0,0,1-1.744-.752c-.08,1.856-.176,2.128-.72,2.128Zm11.3-4.368c-.272-.336-1.424-1.52-1.936-2v-.512H22.32v-.864h9.056V14.528H27.744v-.544h2.944v-1.1H27.744v-.544h3.312V11.184H27.744v-.72h-1.9v.72H22.72v1.152h3.12v.544H23.008v1.1H25.84v.544H22.224V14.8H20.736V12.64a14.561,14.561,0,0,0,1.888-.576L21.36,10.608a20.989,20.989,0,0,1-4.816,1.184,6.664,6.664,0,0,1,.528,1.456c.576-.064,1.184-.144,1.808-.24V14.8H16.752v1.776h2a15.879,15.879,0,0,1-2.416,4.416,9.445,9.445,0,0,1,.88,1.808,14.283,14.283,0,0,0,1.664-2.976v5.552h1.856v-6.24a16.275,16.275,0,0,1,.848,1.44Zm2.24,1.872H28.8v.672H24.912Zm0-1.776H28.8v.688H24.912Zm0-1.76H28.8V18.1H24.912Zm5.7,5.392v-6.56H23.216v6.56h1.392a12.442,12.442,0,0,1-3.152,1.456c.352.336.88.848,1.168,1.184a14.186,14.186,0,0,0,3.84-1.936l-1.072-.7H28.3l-.992.72a27.713,27.713,0,0,1,2.64,1.872l1.664-.9c-.64-.448-1.744-1.12-2.72-1.7Z" transform="translate(1755 54)" fill="#fff"/>
  </g>
</svg>
