<svg id="Layer_2" data-name="Layer 2" xmlns="http://www.w3.org/2000/svg" width="48.87" height="62" viewBox="0 0 48.87 62">
  <g id="Group_140" data-name="Group 140">
    <path id="Path_39" data-name="Path 39" d="M4.81,7.12H44.06a3.815,3.815,0,0,1,3.81,3.81v4.82H1V10.93A3.815,3.815,0,0,1,4.81,7.12Z" fill="none" stroke="#bb1c21" stroke-linecap="round" stroke-linejoin="round" stroke-width="2"/>
    <path id="Path_40" data-name="Path 40" d="M15.33,6.59V3.35A2.347,2.347,0,0,1,17.68,1H31.71a2.347,2.347,0,0,1,2.35,2.35V6.59" fill="none" stroke="#bb1c21" stroke-linecap="round" stroke-linejoin="round" stroke-width="2"/>
    <path id="Path_41" data-name="Path 41" d="M4.15,15.99,8.08,58.47A2.783,2.783,0,0,0,10.85,61H38.18a2.783,2.783,0,0,0,2.77-2.53l3.93-42.48" fill="none" stroke="#bb1c21" stroke-linecap="round" stroke-linejoin="round" stroke-width="2"/>
    <line id="Line_68" data-name="Line 68" y2="34.49" transform="translate(37.1 20.74)" fill="none" stroke="#bb1c21" stroke-linecap="round" stroke-linejoin="round" stroke-width="2"/>
    <line id="Line_69" data-name="Line 69" y2="34.49" transform="translate(28.77 20.74)" fill="none" stroke="#bb1c21" stroke-linecap="round" stroke-linejoin="round" stroke-width="2"/>
    <line id="Line_70" data-name="Line 70" y2="34.49" transform="translate(20.44 20.74)" fill="none" stroke="#bb1c21" stroke-linecap="round" stroke-linejoin="round" stroke-width="2"/>
    <line id="Line_71" data-name="Line 71" y2="34.49" transform="translate(12.12 20.74)" fill="none" stroke="#bb1c21" stroke-linecap="round" stroke-linejoin="round" stroke-width="2"/>
  </g>
</svg>
