<svg xmlns="http://www.w3.org/2000/svg" width="64.729" height="63.25" viewBox="0 0 64.729 63.25">
  <g id="Layer_2-2" transform="translate(0.116)">
    <g id="Group_270" data-name="Group 270">
      <path id="Path_169" data-name="Path 169" d="M24.18,24.03a12.02,12.02,0,1,1,10-.11" fill="none" stroke="#bb1c21" stroke-linecap="round" stroke-linejoin="round" stroke-width="2"/>
      <path id="Path_170" data-name="Path 170" d="M20.79,25.62a15.6,15.6,0,0,1,8.58-2.34,15.386,15.386,0,0,1,8.26,2.13" fill="none" stroke="#bb1c21" stroke-linecap="round" stroke-linejoin="round" stroke-width="2"/>
      <path id="Path_171" data-name="Path 171" d="M44.69,28.64c4.42,3.55,7.46-.17,8.5-1.57.73-.98.58-5.84.43-8.67a1.874,1.874,0,0,0-2.21-1.74c-2.71.48-7.25,1.6-8.29,3.77C41.61,23.58,42.01,26.49,44.69,28.64Z" fill="none" stroke="#bb1c21" stroke-linecap="round" stroke-linejoin="round" stroke-width="2"/>
      <path id="Path_172" data-name="Path 172" d="M39.85,19.03a14.637,14.637,0,0,1,3.8.64" fill="none" stroke="#bb1c21" stroke-linecap="round" stroke-linejoin="round" stroke-width="2"/>
      <path id="Path_173" data-name="Path 173" d="M54.07,26.54s3.5,4.14,4.6,7.51l3.13.4a2.081,2.081,0,0,1,1.81,2.14l-.21,5.46A2.078,2.078,0,0,1,61.76,44l-4.48.95A24.25,24.25,0,0,1,48,52.93l-1.73,9.32H39.86l-1.51-6-11.88.17-.52,5.83H19.31L18.2,55.03S8.01,48.1,8.47,36.97s8.56-15.5,8.56-15.5" fill="none" stroke="#bb1c21" stroke-linecap="round" stroke-linejoin="round" stroke-width="2"/>
      <path id="Path_174" data-name="Path 174" d="M52.96,34.03a2.2,2.2,0,1,1-4.36,0" fill="none" stroke="#bb1c21" stroke-linecap="round" stroke-linejoin="round" stroke-width="2"/>
      <path id="Path_175" data-name="Path 175" d="M8.05,35.27s-3.52.42-4.92-.89c-.76-.71-1.6-2.77-.79-3.64s2.93.04,3.63,1.33S5.66,38.84,1,39.42" fill="none" stroke="#bb1c21" stroke-linecap="round" stroke-linejoin="round" stroke-width="2"/>
    </g>
  </g>
</svg>
