<svg xmlns="http://www.w3.org/2000/svg" width="107.325" height="143.35" viewBox="0 0 107.325 143.35">
  <g id="_438_paint" data-name="438_paint" transform="translate(0 0)">
    <path id="Path_185" data-name="Path 185" d="M116.443,59.049a3.238,3.238,0,0,1,2.59-.758,3.056,3.056,0,0,1,2.2,1.461,4.322,4.322,0,0,1,.453,1.739,12.952,12.952,0,0,1-1.32,6.866,8.228,8.228,0,0,1-2.129,2.793,5.451,5.451,0,0,1-2.538,1.144l-.43.066c-.212.781-.446,1.437-.561,1.786-.767,2.084-5.2,9.486-10.682,11.75a30,30,0,0,0,.435,4.29c.257,1.5.169,2.837,2.248,3.6.138.05,1.293.512,1.6.65,0,0,1.3,10.362-13.453,10.362S81.374,94.2,81.374,94.2c.255-.108,1.121-.466,1.259-.516,2.084-.744,2.007-2.084,2.277-3.579a30.1,30.1,0,0,0,.468-4.257,18.727,18.727,0,0,1-6.612-5.236,22.023,22.023,0,0,1-4.2-8.2c-.516-.077-.827-.126-.827-.126A5.458,5.458,0,0,1,71.2,71.149a8.237,8.237,0,0,1-2.129-2.794,12.951,12.951,0,0,1-1.32-6.866,4.317,4.317,0,0,1,.453-1.737,3.058,3.058,0,0,1,2.2-1.461,3.238,3.238,0,0,1,2.59.758S71.191,38.94,93.144,38.94C117.5,38.94,116.443,59.049,116.443,59.049Z" transform="translate(-41.582 -23.914)" fill="#fce0cd"/>
    <path id="Path_186" data-name="Path 186" d="M113.262,30.292a27.1,27.1,0,0,0-8.024-6.265.581.581,0,0,0-.13-.047l-4.2-1a.54.54,0,0,0-.354.034c-2.79,1.294-7.591,3.909-8.017,3.725a6.757,6.757,0,0,1-1.231-2.582c-.108-.333-.2-.662-.28-.961a.546.546,0,0,0-.881-.283c-5.158,4.3-8.582,7.345-14.365,13.061a.548.548,0,0,1-.874-.145,3.072,3.072,0,0,0-3.134-1.455c-.081.012-.161.027-.24.046a.543.543,0,0,1-.639-.416c-1.515-6.673-1.083-12.323.279-16.323a18.834,18.834,0,0,1,6.879-9.349A.549.549,0,0,0,78,7.374l-.98-.467a.549.549,0,0,1-.132-.9C82.258,1,89.141-.165,95.143.018c6.616.2,11.787,2.8,14.9,7.031a.525.525,0,0,0,.085.09l3.491,2.893a.5.5,0,0,0,.087.057,15.758,15.758,0,0,1,7.069,8.621,23.623,23.623,0,0,1,.254,15.635.2.2,0,0,1-.243.116,3.181,3.181,0,0,0-3.177.881.546.546,0,0,1-.893-.09,27.1,27.1,0,0,0-3.458-4.962Z" transform="translate(-42.951 0)" fill="#7a7473"/>
    <path id="Path_187" data-name="Path 187" d="M127.266,137.056a8.512,8.512,0,0,0,4.1.946,6.643,6.643,0,0,0,4.106-1.2.931.931,0,0,0,0-1.31.95.95,0,0,0-1.31,0c.27-.211.026-.025-.044.019s-.17.1-.259.15c-.056.029-.353.159-.133.071-.116.047-.236.091-.357.13a6.316,6.316,0,0,1-2.139.286,6.6,6.6,0,0,1-2.041-.275c-.131-.039-.258-.086-.386-.13-.042-.014-.083-.036-.125-.049.225.068.052.023,0,0-.16-.075-.318-.154-.474-.237a.947.947,0,0,0-1.267.332.937.937,0,0,0,.332,1.267Z" transform="translate(-77.877 -83.05)" fill="#efc0a0"/>
    <path id="Path_188" data-name="Path 188" d="M136.436,112.81a19.672,19.672,0,0,1,.463,2.113l-.033-.246a1.269,1.269,0,0,1,.008.291l.033-.246a.694.694,0,0,1-.032.131l.093-.221a.543.543,0,0,1-.046.085l.145-.188a.424.424,0,0,1-.069.068l.188-.145a1.3,1.3,0,0,1-.167.088l.221-.093a1.225,1.225,0,0,1-.282.083l.246-.033a1.146,1.146,0,0,1-.265,0l.246.033c-.1-.014-.2-.039-.3-.051a1.021,1.021,0,0,0-.714.093.926.926,0,0,0-.332,1.267.888.888,0,0,0,.554.424c.213.029.42.083.637.093a2.006,2.006,0,0,0,.921-.216,1.3,1.3,0,0,0,.728-.858,2.214,2.214,0,0,0-.01-.942c-.116-.681-.272-1.355-.448-2.023a.926.926,0,0,0-1.786.492Z" transform="translate(-83.345 -68.558)" fill="#efc0a0"/>
    <path id="Path_189" data-name="Path 189" d="M108.028,96.538c-.353,1.147-.123,3.784,2.049,4.009,2.871-.017,3.024-3.206,2.057-4.705C111.343,94.614,109.015,94.1,108.028,96.538Z" transform="translate(-66.26 -58.228)" fill="#645d5c"/>
    <path id="Path_190" data-name="Path 190" d="M160.434,96.538c.353,1.146.123,3.784-2.049,4.009-2.871-.017-3.024-3.206-2.057-4.705C157.119,94.613,159.445,94.1,160.434,96.538Z" transform="translate(-95.675 -58.228)" fill="#645d5c"/>
    <path id="Path_191" data-name="Path 191" d="M116.91,167.789l-2.473-.005a.476.476,0,0,0,.01-.278c-.059-.2-.266-.3-.451-.386a31.117,31.117,0,0,1-8.954-6.294,15.567,15.567,0,0,0-3.28,4.479c.82,3.014,2.13,8.514,4.02,14,3.392,9.845,8.051,20.834,10.56,26.31l.283.447c3.01-7.168,7-18.285,9.773-27.447a128.646,128.646,0,0,0,3.229-13.486,15.343,15.343,0,0,0-3.1-4.214,31.114,31.114,0,0,1-9.008,6.224c-.186.084-.394.186-.455.381a.458.458,0,0,0,.008.27Z" transform="translate(-62.494 -98.766)" fill="#fff"/>
    <path id="Path_192" data-name="Path 192" d="M57.342,243.042h-36.6c-6.692-1.305-18.745-8.254-19.73-10.083-1.568-2.911-1.11-7.427.033-11.315,3.058-10.4,5.036-15.152,8.545-25.422,1.14-3.335,2.4-8.282,4.973-10.749a30.024,30.024,0,0,1,7.386-4.518c6.414-2.778,11.678-4.95,17.485-7.441.825,3.105,2.086,8.253,3.855,13.388,3.392,9.845,8.051,20.834,10.56,26.31l.257.509c3.012-7.166,7.021-18.321,9.8-27.509A128.258,128.258,0,0,0,67.044,173.2l.528.181c5.936,2.549,11.628,4.835,17.807,7.579a30.811,30.811,0,0,1,7.386,4.518c2.576,2.467,3.834,7.414,4.973,10.749,3.509,10.27,5.487,15.023,8.546,25.422,1.143,3.887,1.6,8.4.033,11.315-.985,1.829-13.037,8.778-19.73,10.084Z" transform="translate(0 -106.363)" fill="#bdbdbd"/>
    <path id="Path_193" data-name="Path 193" d="M132.389,180.053a8.741,8.741,0,0,1-.687-.952,1.409,1.409,0,0,1-.095-.237c-.893,0-1.814,0-2.638-.005a1.531,1.531,0,0,1-.1.228,32.267,32.267,0,0,1-2.045,2.6c.154.772.347,1.57.523,2.338.041.178.083.355.127.532a4.7,4.7,0,0,1,.189,1.18c0,.3-1.273,10.372-2.242,18.041,2.208,5.374,4.348,10.2,5.738,13.232l.024.052c1.524-3.64,3.3-8.285,5.039-13.17-1.082-7.5-2.574-17.554-2.566-18a7.131,7.131,0,0,1,.468-2.091c.1-.3.222-.828.313-1.2C133.662,181.649,132.91,180.722,132.389,180.053Z" transform="translate(-77.026 -109.84)" fill="#66bd6f"/>
    <path id="Path_194" data-name="Path 194" d="M108.971,174.876c-2.872-2.877-4.746-6.355-6.863-9.831a15.35,15.35,0,0,1,3.146-4.215,31.117,31.117,0,0,0,8.954,6.294c.186.085.392.189.451.386a.72.72,0,0,1-.106.507C114.283,168.57,110.474,173.04,108.971,174.876Z" transform="translate(-62.707 -98.769)" fill="#fff"/>
    <path id="Path_195" data-name="Path 195" d="M147.038,175.076c2.894-2.856,4.8-6.318,6.941-9.776a15.363,15.363,0,0,0-3.113-4.24,31.114,31.114,0,0,1-9.006,6.222c-.186.084-.394.186-.455.381a.721.721,0,0,0,.1.507C141.776,168.727,145.549,173.227,147.038,175.076Z" transform="translate(-86.834 -98.909)" fill="#fff"/>
    <path id="Path_196" data-name="Path 196" d="M102.2,211.506c-2.508-5.475-7.46-16.786-10.852-26.631-2.119-6.148-3.508-12.316-4.294-14.981-1.5.119-7.765,8.335-8.791,10.967a51.565,51.565,0,0,0,4.4,4.232,29.519,29.519,0,0,0-3.385,3.973c-.036.237,16.307,20.42,20.984,26.418" transform="translate(-48.064 -104.335)" fill="#cfcfcf"/>
    <path id="Path_197" data-name="Path 197" d="M132.031,220.768a26.428,26.428,0,0,1,.985-4.264c2.936-5.829,8.444-20.655,11.969-32.315a128.714,128.714,0,0,0,3.372-14.288c1.533.206,7.682,8.4,8.682,11.036a53.05,53.05,0,0,1-4.5,4.255,28.923,28.923,0,0,1,3.419,4.052c.035.237-12.266,19.2-18.8,28.964" transform="translate(-81.083 -104.34)" fill="#cfcfcf"/>
    <path id="Path_198" data-name="Path 198" d="M82.569,238.963c-14.579.106-29.088.19-34.239.208a1.481,1.481,0,0,0-1.477,1.488c.03,8.37.434,37.335.741,47.982a1.483,1.483,0,0,0,1.508,1.44c4.656-.072,19.075-.027,33.466.022,14.391-.049,28.81-.093,33.465-.022a1.483,1.483,0,0,0,1.509-1.44c.309-10.647.711-39.612.741-47.982a1.48,1.48,0,0,0-1.476-1.488C111.657,239.153,97.148,239.069,82.569,238.963Z" transform="translate(-28.774 -146.752)" fill="#e2e2e2"/>
    <path id="Path_199" data-name="Path 199" d="M63.65,357.275c7.049-.044,14.1-.007,21.146.015,8.639.027,17.278-.013,25.917-.026,3.434-.005,6.869-.01,10.3.011a.927.927,0,0,0,0-1.852c-7.049-.044-14.1-.007-21.149.015-8.639.027-17.277-.014-25.916-.026-3.434,0-6.869-.01-10.3.011a.927.927,0,0,0,0,1.852Z" transform="translate(-38.538 -218.259)" fill="#bdbdbd"/>
    <path id="Path_200" data-name="Path 200" d="M134.318,294.549l-2.359.02a.844.844,0,0,0-.838.843c0,1.17-.005,3.174.005,4.435a.845.845,0,0,0,.847.839c.611,0,1.478,0,2.345.007s1.734-.007,2.345-.007a.845.845,0,0,0,.849-.839c.01-1.261.008-3.265.005-4.435a.844.844,0,0,0-.838-.843Z" transform="translate(-80.522 -180.888)" fill="#bdbdbd"/>
  </g>
</svg>
