<svg xmlns="http://www.w3.org/2000/svg" width="317.998" height="347.309" viewBox="0 0 317.998 347.309">
  <g id="Group_367" data-name="Group 367" transform="translate(20999.999 -7819.566)">
    <text id="依頼" transform="translate(-20859 8108)" fill="#fff" font-size="12" font-family="NotoSansJP-Regular, Noto Sans JP"><tspan x="0" y="0">依頼</tspan></text>
    <text id="購入発注依頼" transform="translate(-20990 7976)" fill="#fff" font-size="12" font-family="NotoSansJP-Regular, Noto Sans JP"><tspan x="0" y="0">購入発注依頼</tspan></text>
    <text id="設置" transform="translate(-20765 7976)" fill="#fff" font-size="12" font-family="NotoSansJP-Regular, Noto Sans JP"><tspan x="0" y="0">設置</tspan></text>
    <g id="Group_78" data-name="Group 78" transform="translate(-20764.801 8061.39)">
      <text id="施工会社" transform="translate(-0.199 46.61)" fill="#fff" font-size="12" font-family="NotoSansJP-Regular, Noto Sans JP"><tspan x="0" y="0">施工会社</tspan></text>
      <g id="Layer_2" data-name="Layer 2" transform="translate(11.8 0)">
        <g id="Group_60" data-name="Group 60" transform="translate(0)">
          <path id="Path_8" data-name="Path 8" d="M4.23,27.658V1H23.542V27.658" transform="translate(-2.219 -1)" fill="none" stroke="#fff" stroke-linecap="round" stroke-linejoin="round" stroke-width="2"/>
          <line id="Line_12" data-name="Line 12" x2="23.321" transform="translate(0 26.602)" fill="none" stroke="#fff" stroke-linecap="round" stroke-linejoin="round" stroke-width="2"/>
          <path id="Path_9" data-name="Path 9" d="M15.72,40.375V34.99h5.335v5.466" transform="translate(-6.556 -13.829)" fill="none" stroke="#fff" stroke-linecap="round" stroke-linejoin="round" stroke-width="2"/>
          <line id="Line_13" data-name="Line 13" y2="2.528" transform="translate(8.081 6.91)" fill="none" stroke="#fff" stroke-linecap="round" stroke-linejoin="round" stroke-width="2"/>
          <line id="Line_14" data-name="Line 14" y2="2.528" transform="translate(11.667 6.91)" fill="none" stroke="#fff" stroke-linecap="round" stroke-linejoin="round" stroke-width="2"/>
          <line id="Line_15" data-name="Line 15" y2="2.528" transform="translate(15.259 6.91)" fill="none" stroke="#fff" stroke-linecap="round" stroke-linejoin="round" stroke-width="2"/>
          <line id="Line_16" data-name="Line 16" y2="2.528" transform="translate(8.081 12.24)" fill="none" stroke="#fff" stroke-linecap="round" stroke-linejoin="round" stroke-width="2"/>
          <line id="Line_17" data-name="Line 17" y2="2.528" transform="translate(11.667 12.24)" fill="none" stroke="#fff" stroke-linecap="round" stroke-linejoin="round" stroke-width="2"/>
          <line id="Line_18" data-name="Line 18" y2="2.528" transform="translate(15.259 12.24)" fill="none" stroke="#fff" stroke-linecap="round" stroke-linejoin="round" stroke-width="2"/>
        </g>
      </g>
    </g>
    <g id="Group_77" data-name="Group 77" transform="translate(-20968.717 8062.013)">
      <text id="販売会社" transform="translate(-8.283 46.987)" fill="#fff" font-size="12" font-family="NotoSansJP-Regular, Noto Sans JP"><tspan x="0" y="0">販売会社</tspan></text>
      <g id="Layer_2-2" data-name="Layer 2" transform="translate(2.717 0)">
        <g id="Group_62" data-name="Group 62" transform="translate(0 0)">
          <path id="Path_16" data-name="Path 16" d="M3.33,20.28V33.155H26.284V20.28" transform="translate(-1.877 -8.283)" fill="none" stroke="#fff" stroke-linecap="round" stroke-linejoin="round" stroke-width="2"/>
          <path id="Path_17" data-name="Path 17" d="M23.472,1.707v8.2a4.3,4.3,0,0,1-4.3,4.3H19.1a4.3,4.3,0,0,1-4.3-4.3V1.52" transform="translate(-6.206 -1.202)" fill="none" stroke="#fff" stroke-linecap="round" stroke-linejoin="round" stroke-width="2"/>
          <path id="Path_18" data-name="Path 18" d="M18.262,9.713a4.3,4.3,0,0,0,4.3,4.3h0a4.294,4.294,0,0,0,3.928-6.026L23.411,1.01H4.441L1.366,7.976A4.294,4.294,0,0,0,5.294,14h0a4.3,4.3,0,0,0,4.3-4.3" transform="translate(-0.996 -1.01)" fill="none" stroke="#fff" stroke-linecap="round" stroke-linejoin="round" stroke-width="2"/>
          <path id="Path_19" data-name="Path 19" d="M25.89,35.569V30.047a2.779,2.779,0,0,1,2.777-2.777h0a2.779,2.779,0,0,1,2.777,2.777v5.522" transform="translate(-10.392 -10.922)" fill="none" stroke="#fff" stroke-linecap="round" stroke-linejoin="round" stroke-width="2"/>
        </g>
      </g>
    </g>
    <text id="お客様" transform="translate(-20863 7929)" fill="#fff" font-size="12" font-family="NotoSansJP-Regular, Noto Sans JP"><tspan x="0" y="0">お客様</tspan></text>
    <g id="Group_226" data-name="Group 226" transform="translate(-20970.799 7919.311)">
      <text id="修理_" data-name="修理!!" transform="translate(108.029 59.827)" fill="#fff" font-size="12" font-family="NotoSansJP-Regular, Noto Sans JP"><tspan x="0" y="0">修理!!</tspan></text>
      <text id="_" data-name="?" transform="translate(71.555 148.328)" fill="#fff" font-size="12" font-family="NotoSansJP-Regular, Noto Sans JP"><tspan x="0" y="0">?</tspan></text>
      <text id="_2" data-name="?" transform="translate(169.384 146.328)" fill="#fff" font-size="12" font-family="NotoSansJP-Regular, Noto Sans JP"><tspan x="0" y="0">?</tspan></text>
      <g id="arrow" transform="translate(154.846 1.095) rotate(60)">
        <line id="Line_38" data-name="Line 38" x2="141.063" transform="translate(0 3.5)" fill="none" stroke="#fff" stroke-width="2"/>
        <path id="Polygon_4" data-name="Polygon 4" d="M3.5,0,7,8H0Z" transform="translate(148.563) rotate(90)" fill="#fff"/>
      </g>
      <g id="arrow-2" data-name="arrow" transform="translate(96.17 3.274) rotate(120)">
        <line id="Line_38-2" data-name="Line 38" x2="142.512" transform="translate(0 3.5)" fill="none" stroke="#fff" stroke-width="2"/>
        <path id="Polygon_4-2" data-name="Polygon 4" d="M3.5,0,7,8H0Z" transform="translate(150.012) rotate(90)" fill="#fff"/>
      </g>
      <g id="Group_92" data-name="Group 92" transform="translate(77.189 66.899)">
        <g id="arrow-3" data-name="arrow" transform="translate(38.137 3.274) rotate(120)">
          <line id="Line_38-3" data-name="Line 38" x2="61.918" y2="0.661" transform="translate(0 2.84)" fill="none" stroke="#fff" stroke-width="2"/>
          <path id="Polygon_4-3" data-name="Polygon 4" d="M3.5,0,7,8H0Z" transform="translate(69.418) rotate(90)" fill="#fff"/>
        </g>
        <g id="arrow-4" data-name="arrow" transform="translate(59.485 1.095) rotate(60)">
          <line id="Line_38-4" data-name="Line 38" x2="61.918" y2="0.661" transform="translate(0 2.84)" fill="none" stroke="#fff" stroke-width="2"/>
          <path id="Polygon_4-4" data-name="Polygon 4" d="M3.5,0,7,8H0Z" transform="translate(69.418) rotate(90)" fill="#fff"/>
        </g>
      </g>
      <line id="Line_39" data-name="Line 39" y2="26.148" transform="translate(123.873 15.388)" fill="none" stroke="#fff" stroke-width="2"/>
      <g id="arrow-5" data-name="arrow" transform="translate(63.796 165.736)">
        <line id="Line_38-5" data-name="Line 38" x2="115.796" transform="translate(0 2.179)" fill="none" stroke="#fff" stroke-width="2"/>
        <path id="Polygon_4-5" data-name="Polygon 4" d="M2.179,0,4.358,4.98H0Z" transform="translate(120.465) rotate(90)" fill="#fff"/>
      </g>
    </g>
    <g id="Group_94" data-name="Group 94" transform="translate(-20998 8125.18)">
      <g id="Union_2" data-name="Union 2" transform="translate(80 49.82) rotate(180)" fill="none">
        <path d="M35.222,50H10A10,10,0,0,1,0,40V18.125a10,10,0,0,1,10-10H70a10,10,0,0,1,10,10V40A10,10,0,0,1,70,50H43.122l-7.9,9Z" stroke="none"/>
        <path d="M 36.2224006652832 56.34510803222656 L 42.66964340209961 48.99949645996094 L 69.99929809570312 48.99949645996094 C 74.96186828613281 48.99949645996094 78.99919891357422 44.96216583251953 78.99919891357422 39.99959564208984 L 78.99919891357422 18.12509727478027 C 78.99919891357422 13.16253089904785 74.96186828613281 9.125197410583496 69.99929809570312 9.125197410583496 L 9.999899864196777 9.125197410583496 C 5.037333011627197 9.125197410583496 0.999999463558197 13.16253089904785 0.999999463558197 18.12509727478027 L 0.999999463558197 39.99959564208984 C 0.999999463558197 44.96216583251953 5.037333011627197 48.99949645996094 9.999899864196777 48.99949645996094 L 36.2224006652832 48.99949645996094 L 36.2224006652832 56.34510803222656 M 35.2224006652832 59.00039672851562 L 35.2224006652832 49.99949645996094 L 9.999899864196777 49.99949645996094 C 4.477499485015869 49.99949645996094 -5.432128773463774e-07 45.52289581298828 -5.432128773463774e-07 39.99959564208984 L -5.432128773463774e-07 18.12509727478027 C -5.432128773463774e-07 12.60179710388184 4.477499485015869 8.125197410583496 9.999899864196777 8.125197410583496 L 69.99929809570312 8.125197410583496 C 75.52259826660156 8.125197410583496 79.99919891357422 12.60179710388184 79.99919891357422 18.12509727478027 L 79.99919891357422 39.99959564208984 C 79.99919891357422 45.52289581298828 75.52259826660156 49.99949645996094 69.99929809570312 49.99949645996094 L 43.12248992919922 49.99949645996094 L 35.2224006652832 59.00039672851562 Z" stroke="none" fill="#fff"/>
      </g>
      <text id="修理は対応していません" transform="translate(8 5.82)" fill="#fff" font-size="10" font-family="NotoSansJP-Regular, Noto Sans JP"><tspan x="0" y="12">修理は対応し</tspan><tspan x="0" y="27">ていません</tspan></text>
    </g>
    <g id="Group_95" data-name="Group 95" transform="translate(-20776.74 8125.374)">
      <g id="Union_2-2" data-name="Union 2" transform="translate(-0.26 -0.374)" fill="none">
        <path d="M10,41.875a10,10,0,0,1-10-10V10A10,10,0,0,1,10,0H36V-8l7.022,8H70A10,10,0,0,1,80,10V31.875a10,10,0,0,1-10,10Z" stroke="none"/>
        <path d="M 70.00020599365234 40.87520599365234 C 74.9627685546875 40.87520599365234 79.00010681152344 36.83787536621094 79.00010681152344 31.87530708312988 L 79.00010681152344 9.999896049499512 C 79.00010681152344 5.037329196929932 74.9627685546875 0.9999959468841553 70.00020599365234 0.9999959468841553 L 42.56949234008789 0.9999959468841553 L 37.00000381469727 -5.344985008239746 L 37.00000381469727 0.9999959468841553 L 9.999905586242676 0.9999959468841553 C 5.037338256835938 0.9999959468841553 1.000005125999451 5.037329196929932 1.000005125999451 9.999896049499512 L 1.000005125999451 31.87530708312988 C 1.000005125999451 36.83787536621094 5.037338256835938 40.87520599365234 9.999905586242676 40.87520599365234 L 70.00020599365234 40.87520599365234 M 70.00020599365234 41.87520599365234 L 9.999905586242676 41.87520599365234 C 4.477505207061768 41.87520599365234 5.14661996930954e-06 37.39770889282227 5.14661996930954e-06 31.87530708312988 L 5.14661996930954e-06 9.999896049499512 C 5.14661996930954e-06 4.477496147155762 4.477505207061768 -4.057142632518662e-06 9.999905586242676 -4.057142632518662e-06 L 36.00000381469727 -4.057142632518662e-06 L 36.00000381469727 -8.000103950500488 L 43.02231597900391 -4.057142632518662e-06 L 70.00020599365234 -4.057142632518662e-06 C 75.52260589599609 -4.057142632518662e-06 80.00010681152344 4.477496147155762 80.00010681152344 9.999896049499512 L 80.00010681152344 31.87530708312988 C 80.00010681152344 37.39770889282227 75.52260589599609 41.87520599365234 70.00020599365234 41.87520599365234 Z" stroke="none" fill="#fff"/>
      </g>
      <text id="販売会社に聞いてください" transform="translate(7.74 5.626)" fill="#fff" font-size="10" font-family="NotoSansJP-Regular, Noto Sans JP"><tspan x="0" y="12">販売会社に聞</tspan><tspan x="0" y="27">いてください</tspan></text>
    </g>
    <g id="Group_207" data-name="Group 207" transform="translate(-20999.584 7819.972)">
      <g id="Union_2-3" data-name="Union 2" transform="translate(100.584 56.028) rotate(180)" fill="none">
        <path d="M18.728,56a10,10,0,0,1-10-10V13.841L0,6.195H9.478A10,10,0,0,1,18.728,0H91a10,10,0,0,1,10,10V46A10,10,0,0,1,91,56Z" stroke="none"/>
        <path d="M 90.99990081787109 54.99980926513672 C 95.96246337890625 54.99980926513672 99.99980926513672 50.96245956420898 99.99980926513672 45.99990081787109 L 99.99980926513672 9.999900817871094 C 99.99980926513672 5.037340641021729 95.96246337890625 1.000007510185242 90.99990081787109 1.000007510185242 L 18.72810173034668 1.000007510185242 C 16.90943336486816 1.000007510185242 15.15760707855225 1.539487481117249 13.66200733184814 2.56012749671936 C 12.20058059692383 3.55743408203125 11.07340717315674 4.945927619934082 10.40235424041748 6.575474262237549 L 10.14735412597656 7.194700717926025 L 2.659079551696777 7.194700717926025 L 9.728194236755371 13.38751411437988 L 9.728194236755371 45.99990081787109 C 9.728194236755371 50.96245956420898 13.76554107666016 54.99980926513672 18.72810173034668 54.99980926513672 L 90.99990081787109 54.99980926513672 M 90.99990081787109 55.99980926513672 L 18.72810173034668 55.99980926513672 C 13.20480728149414 55.99980926513672 8.728194236755371 51.52230072021484 8.728194236755371 45.99990081787109 L 8.728194236755371 13.84092712402344 L 7.484537945856573e-06 6.194700717926025 L 9.477687835693359 6.194700717926025 C 10.97470092773438 2.559434175491333 14.55224704742432 7.484537945856573e-06 18.72810173034668 7.484537945856573e-06 L 90.99990081787109 7.484537945856573e-06 C 96.52230072021484 7.484537945856573e-06 100.9998092651367 4.477500915527344 100.9998092651367 9.999900817871094 L 100.9998092651367 45.99990081787109 C 100.9998092651367 51.52230072021484 96.52230072021484 55.99980926513672 90.99990081787109 55.99980926513672 Z" stroke="none" fill="#fff"/>
      </g>
      <text id="修理はどこに_頼んだら_良いかしら_" data-name="修理はどこに
頼んだら
良いかしら？" transform="translate(11.13 5.468)" fill="#fff" font-size="10" font-family="NotoSansJP-Regular, Noto Sans JP"><tspan x="0" y="12">修理はどこに</tspan><tspan x="0" y="27">頼んだら</tspan><tspan x="0" y="42">良いかしら？</tspan></text>
    </g>
    <g id="Group_208" data-name="Group 208" transform="translate(-20782.574 7819.972)">
      <g id="Union_6" data-name="Union 6" transform="translate(-0.427 0.028)" fill="none">
        <path d="M18.728,56a10,10,0,0,1-9.25-6.195H0l8.728-7.646V10a10,10,0,0,1,10-10H91a10,10,0,0,1,10,10V46A10,10,0,0,1,91,56Z" stroke="none"/>
        <path d="M 90.99990081787109 54.99980926513672 C 95.96246337890625 54.99980926513672 99.99980926513672 50.96245956420898 99.99980926513672 45.99990081787109 L 99.99980926513672 9.999900817871094 C 99.99980926513672 5.037340641021729 95.96246337890625 1.000007510185242 90.99990081787109 1.000007510185242 L 18.72810173034668 1.000007510185242 C 13.76554107666016 1.000007510185242 9.728194236755371 5.037340641021729 9.728194236755371 9.999900817871094 L 9.728194236755371 42.61228561401367 L 2.659079551696777 48.80509948730469 L 10.14735412597656 48.80509948730469 L 10.40235424041748 49.4243278503418 C 11.07340717315674 51.05387496948242 12.20058059692383 52.44236755371094 13.66200733184814 53.4396858215332 C 15.15760707855225 54.4603271484375 16.90943336486816 54.99980926513672 18.72810173034668 54.99980926513672 L 90.99990081787109 54.99980926513672 M 90.99990081787109 55.99980926513672 L 18.72810173034668 55.99980926513672 C 14.55224704742432 55.99980926513672 10.97470092773438 53.44036865234375 9.477687835693359 49.80509948730469 L 7.484537945856573e-06 49.80509948730469 L 8.728194236755371 42.15887451171875 L 8.728194236755371 9.999900817871094 C 8.728194236755371 4.477500915527344 13.20480728149414 7.484537945856573e-06 18.72810173034668 7.484537945856573e-06 L 90.99990081787109 7.484537945856573e-06 C 96.52230072021484 7.484537945856573e-06 100.9998092651367 4.477500915527344 100.9998092651367 9.999900817871094 L 100.9998092651367 45.99990081787109 C 100.9998092651367 51.52230072021484 96.52230072021484 55.99980926513672 90.99990081787109 55.99980926513672 Z" stroke="none" fill="#fff"/>
      </g>
      <text id="どこの業者で_工事したのか_把握しきれない_" data-name="どこの業者で
工事したのか
把握しきれない…" transform="translate(16.389 5.779)" fill="#fff" font-size="10" font-family="NotoSansJP-Regular, Noto Sans JP"><tspan x="0" y="12">どこの業者で</tspan><tspan x="0" y="27">工事したのか</tspan><tspan x="0" y="42">把握しきれない…</tspan></text>
    </g>
    <g id="b" transform="translate(-20892.566 7819.566)">
      <g id="c" transform="translate(0 0)">
        <g id="Group_199" data-name="Group 199">
          <path id="Path_47" data-name="Path 47" d="M156.08,107.225l1.072-2.753s-.077-2.307-.328-4.05-.754-3.43,0-4.194a10.674,10.674,0,0,1,2.143-1.5s4.173-5.1,4.753-5.522,1.625-.523.964.733-2.317,3.84-2.317,3.84a2.92,2.92,0,0,1,1.974.385,20.312,20.312,0,0,1,2.051,2.056c.349.246.308,1.507.077,2.2a3.305,3.305,0,0,1-.887,1.256s.656.313-.851,2.235-3.748,2.717-3.943,3.071-2.184,3.035-2.184,3.035l-2.517-.8Z" transform="translate(-76.059 -43.332)" fill="#f9ddd0"/>
          <path id="Path_48" data-name="Path 48" d="M18.345,148.17a20.638,20.638,0,0,1-2.6,2.963,6.6,6.6,0,0,1-2.317,1.5,23.25,23.25,0,0,1-5.681,1.118c-1.738.072-5.645.523-6.419.595s-1.974.42-.887,1.328,1.933,1.538,5.178,1.538,5.332.313,5.917.313.7.313.7,1.154a3.442,3.442,0,0,1-.62,1.958c-.313.456,0,1.6.774.7a35.731,35.731,0,0,0,2.743-3.7,21.312,21.312,0,0,0,1.123-2.133c.62-1.328.041-.174.041-.174s2.687-2.881,4.46-4.8l-2.4-2.353Z" transform="translate(-0.002 -72.203)" fill="#f9ddd0"/>
          <path id="Path_49" data-name="Path 49" d="M85.7,77.682c-1.866-.508-1.584-1.246-1.953-3.4a7.846,7.846,0,0,1,0-3.343l-3.466.5-3.466-.5a7.846,7.846,0,0,1,0,3.343c-.369,2.153-.087,2.886-1.953,3.4s-5.322,1.641-5.322,1.641l.5,6.568H90.525l.5-6.568s-3.456-1.133-5.322-1.641Z" transform="translate(-33.888 -34.569)" fill="#fadfd3"/>
          <path id="Path_50" data-name="Path 50" d="M76.105,36.15h2.661s-.215,1.928,2.271,3.963,5.106,1.866,6.6.738,1.292-4.3.149-5.722a13.8,13.8,0,0,0-4.035-2.717s6.173-4.358,7.024-12.007S88.113,3.47,78.94.728A17.276,17.276,0,0,0,63.19,3.891a15.741,15.741,0,0,0-6.506,10.228c-1.246,7.024-.62,7.532,1.753,12.459S71.86,36.15,71.86,36.15Z" transform="translate(-27.318 0.001)" fill="#e46666"/>
          <g id="Group_197" data-name="Group 197" transform="translate(30.048 21.326)">
            <path id="Path_51" data-name="Path 51" d="M118.463,44.787a3.618,3.618,0,0,1-2.528,2.328c-.984-.051-1.307-1.651-.943-3.163s1.441-2.558,2.4-2.323c1.292.318,1.589,1.692,1.072,3.163Z" transform="translate(-86.014 -41.595)" fill="#f9dacd"/>
            <path id="Path_52" data-name="Path 52" d="M58.851,44.787a3.618,3.618,0,0,0,2.528,2.328c.984-.051,1.307-1.651.943-3.163s-1.441-2.558-2.4-2.323c-1.292.318-1.589,1.692-1.072,3.163Z" transform="translate(-58.609 -41.595)" fill="#f9dacd"/>
          </g>
          <path id="Path_53" data-name="Path 53" d="M91.2,19.276c0,11.356-6.655,20.559-14.268,20.559S62.66,30.627,62.66,19.276,69.048,5.52,76.928,5.52,91.2,7.919,91.2,19.276Z" transform="translate(-30.535 -2.689)" fill="#f9dacd"/>
          <ellipse id="Ellipse_16" data-name="Ellipse 16" cx="1.077" cy="1.374" rx="1.077" ry="1.374" transform="translate(40.323 20.719)" fill="#101010"/>
          <path id="Path_54" data-name="Path 54" d="M76.77,41.35a7.115,7.115,0,0,0,1.784.892" transform="translate(-37.411 -20.149)" fill="#fff" stroke="#101010" stroke-linecap="round" stroke-miterlimit="10" stroke-width="1.3"/>
          <ellipse id="Ellipse_17" data-name="Ellipse 17" cx="1.077" cy="1.374" rx="1.077" ry="1.374" transform="translate(50.607 20.719)" fill="#101010"/>
          <path id="Path_55" data-name="Path 55" d="M103.084,41.35a7.115,7.115,0,0,1-1.784.892" transform="translate(-49.365 -20.149)" fill="#fff" stroke="#101010" stroke-linecap="round" stroke-miterlimit="10" stroke-width="1.3"/>
          <path id="Path_56" data-name="Path 56" d="M71.25,34.617s1.953-2.661,6.373-1.7" transform="translate(-34.721 -15.939)" fill="none" stroke="#101010" stroke-linecap="round" stroke-miterlimit="10" stroke-width="1.3"/>
          <path id="Path_57" data-name="Path 57" d="M89.537,48.31s-2.066,1.159,0,1.9" transform="translate(-43.185 -23.541)" fill="none" stroke="#101010" stroke-linecap="round" stroke-miterlimit="10" stroke-width="1.16"/>
          <path id="Path_58" data-name="Path 58" d="M66.789,10.989s-1.641,8.665-6.511,10.818a33.339,33.339,0,0,1,0-9.172c.738-4.358,4.189-10.08,16.083-9.628s15.15,8.552,14.781,14.268-.841,5.532-.841,5.532S70.758,18.295,66.794,10.989Z" transform="translate(-29.215 -1.452)" fill="#e46666"/>
          <g id="Group_198" data-name="Group 198" transform="translate(35.646 44.759)">
            <path id="Path_59" data-name="Path 59" d="M69.529,87.3a2.664,2.664,0,0,0,.672,1.661c-.256-.918-.385-1.492-.385-1.492l-.282-.169Z" transform="translate(-69.529 -87.3)" fill="#f1a69a"/>
            <path id="Path_60" data-name="Path 60" d="M110.807,87.3l-.282.169s-.133.574-.385,1.492a2.664,2.664,0,0,0,.672-1.661Z" transform="translate(-89.319 -87.3)" fill="#f1a69a"/>
            <path id="Path_61" data-name="Path 61" d="M80.914,93.462c-6.47-.067-9.054-1.636-10.074-2.922a42.642,42.642,0,0,0,3.225,8.418A10.575,10.575,0,0,0,80.5,103.8V104s.154-.026.415-.087c.261.062.415.087.415.087V103.8a10.575,10.575,0,0,0,6.434-4.845,42.642,42.642,0,0,0,3.225-8.418C89.969,91.827,87.39,93.4,80.914,93.462Z" transform="translate(-70.168 -88.879)" fill="#f1a69a"/>
          </g>
          <ellipse id="Ellipse_18" data-name="Ellipse 18" cx="2.23" cy="1.374" rx="2.23" ry="1.374" transform="translate(51.115 24.21)" fill="#f9c8c2"/>
          <ellipse id="Ellipse_19" data-name="Ellipse 19" cx="2.23" cy="1.374" rx="2.23" ry="1.374" transform="translate(36.529 24.21)" fill="#f9c8c2"/>
          <path id="Path_62" data-name="Path 62" d="M119.525,102.344s6.434,10.341,8.367,13.069a39.351,39.351,0,0,0,4.368,5.1c.543.559,1.159.733,2.164-.313s7.347-9.572,7.347-9.572l-4.061-2.343a33.154,33.154,0,0,0-4.137,6.88C128.123,105.174,120.2,93.09,120.2,93.09l-.677,9.254Z" transform="translate(-58.244 -45.363)" fill="#f9c8c2"/>
          <path id="Path_63" data-name="Path 63" d="M47.68,91.465s-1.354.349-2.24,3.876-1.548,7.162-2.666,10.967a23.526,23.526,0,0,1-3.056,7.229c-1.312,2.061-4.948,6.742-4.948,6.742l3.4,3.04s1.856-2.656,3.984-5.24,6.552-13.058,6.552-13.058L47.68,91.46Z" transform="translate(-16.944 -44.568)" fill="#f9c8c2"/>
          <path id="Path_64" data-name="Path 64" d="M86.482,117.6c-.092-5.706,1.83-28.326,1.83-28.326s-3.568-2.112-5.84-2.3c0,0-4.46,12.715-10.408,14.289C66.123,99.685,61.657,86.97,61.657,86.97c-2.271.19-5.84,2.3-5.84,2.3s1.923,22.62,1.83,28.326-4.968,19.523-4.968,19.523v.533H91.45v-.533S86.574,123.3,86.482,117.6Z" transform="translate(-25.672 -42.38)" fill="#fcfce4"/>
          <ellipse id="Ellipse_20" data-name="Ellipse 20" cx="1.066" cy="1.553" rx="1.066" ry="1.553" transform="translate(45.434 29.281)" fill="none" stroke="#101010" stroke-linecap="round" stroke-miterlimit="10" stroke-width="1.3"/>
        </g>
      </g>
    </g>
  </g>
</svg>
