<svg xmlns="http://www.w3.org/2000/svg" xmlns:xlink="http://www.w3.org/1999/xlink" width="330" height="333" viewBox="0 0 330 333">
  <defs>
    <clipPath id="clip-path">
      <rect width="330" height="303" fill="none"/>
    </clipPath>
  </defs>
  <g id="Group_401" data-name="Group 401" transform="translate(21857 -8596)">
    <g id="Repeat_Grid_21" data-name="Repeat Grid 21" transform="translate(-21857 8596)" clip-path="url(#clip-path)">
      <g transform="translate(-360 -4376)">
        <g id="Group_66" data-name="Group 66" transform="translate(-23.292 -5.947)">
          <path id="Path_22" data-name="Path 22" d="M-12642.582-3699.807l4.363,4.363-4.363,4.364" transform="translate(13131.99 8122.603)" fill="none" stroke="#fff" stroke-linecap="round" stroke-linejoin="round" stroke-width="1"/>
          <line id="Line_30" data-name="Line 30" x2="12.979" transform="translate(480.792 4427.159)" fill="none" stroke="#fff" stroke-linecap="round" stroke-width="1"/>
        </g>
        <g id="Ellipse_8" data-name="Ellipse 8" transform="translate(360 4376.349)" fill="none" stroke="#fff" stroke-width="1" opacity="0.1">
          <circle cx="44.863" cy="44.863" r="44.863" stroke="none"/>
          <circle cx="44.863" cy="44.863" r="44.363" fill="none"/>
        </g>
        <text id="メーカー" transform="translate(405 4493)" fill="#fff" font-size="14" font-family="NotoSansJP-Bold, Noto Sans JP" font-weight="700"><tspan x="-28" y="0">メーカー</tspan></text>
      </g>
      <g transform="translate(-240 -4376)">
        <g id="Group_66-2" data-name="Group 66" transform="translate(-23.292 -5.947)">
          <path id="Path_22-2" data-name="Path 22" d="M-12642.582-3699.807l4.363,4.363-4.363,4.364" transform="translate(13131.99 8122.603)" fill="none" stroke="#fff" stroke-linecap="round" stroke-linejoin="round" stroke-width="1"/>
          <line id="Line_30-2" data-name="Line 30" x2="12.979" transform="translate(480.792 4427.159)" fill="none" stroke="#fff" stroke-linecap="round" stroke-width="1"/>
        </g>
        <g id="Ellipse_8-2" data-name="Ellipse 8" transform="translate(360 4376.349)" fill="none" stroke="#fff" stroke-width="1" opacity="0.1">
          <circle cx="44.863" cy="44.863" r="44.863" stroke="none"/>
          <circle cx="44.863" cy="44.863" r="44.363" fill="none"/>
        </g>
        <text id="商社" transform="translate(405 4493)" fill="#fff" font-size="14" font-family="NotoSansJP-Bold, Noto Sans JP" font-weight="700"><tspan x="-14" y="0">商社</tspan></text>
      </g>
      <g transform="translate(-120 -4376)">
        <g id="Group_66-3" data-name="Group 66" transform="translate(-23.292 -5.947)">
          <path id="Path_22-3" data-name="Path 22" d="M-12642.582-3699.807l4.363,4.363-4.363,4.364" transform="translate(13131.99 8122.603)" fill="none" stroke="#fff" stroke-linecap="round" stroke-linejoin="round" stroke-width="1"/>
          <line id="Line_30-3" data-name="Line 30" x2="12.979" transform="translate(480.792 4427.159)" fill="none" stroke="#fff" stroke-linecap="round" stroke-width="1"/>
        </g>
        <g id="Ellipse_8-3" data-name="Ellipse 8" transform="translate(360 4376.349)" fill="none" stroke="#fff" stroke-width="1" opacity="0.1">
          <circle cx="44.863" cy="44.863" r="44.863" stroke="none"/>
          <circle cx="44.863" cy="44.863" r="44.363" fill="none"/>
        </g>
        <text id="一次問屋" transform="translate(405 4493)" fill="#fff" font-size="14" font-family="NotoSansJP-Bold, Noto Sans JP" font-weight="700"><tspan x="-28" y="0">一次問屋</tspan></text>
      </g>
      <g transform="translate(-360 -4195)">
        <g id="Group_66-4" data-name="Group 66" transform="translate(-23.292 -5.947)">
          <path id="Path_22-4" data-name="Path 22" d="M-12642.582-3699.807l4.363,4.363-4.363,4.364" transform="translate(13131.99 8122.603)" fill="none" stroke="#fff" stroke-linecap="round" stroke-linejoin="round" stroke-width="1"/>
          <line id="Line_30-4" data-name="Line 30" x2="12.979" transform="translate(480.792 4427.159)" fill="none" stroke="#fff" stroke-linecap="round" stroke-width="1"/>
        </g>
        <g id="Ellipse_8-4" data-name="Ellipse 8" transform="translate(360 4376.349)" fill="none" stroke="#fff" stroke-width="1" opacity="0.1">
          <circle cx="44.863" cy="44.863" r="44.863" stroke="none"/>
          <circle cx="44.863" cy="44.863" r="44.363" fill="none"/>
        </g>
        <text id="二次問屋" transform="translate(405 4493)" fill="#fff" font-size="14" font-family="NotoSansJP-Bold, Noto Sans JP" font-weight="700"><tspan x="-28" y="0">二次問屋</tspan></text>
      </g>
      <g transform="translate(-240 -4195)">
        <g id="Group_66-5" data-name="Group 66" transform="translate(-23.292 -5.947)">
          <path id="Path_22-5" data-name="Path 22" d="M-12642.582-3699.807l4.363,4.363-4.363,4.364" transform="translate(13131.99 8122.603)" fill="none" stroke="#fff" stroke-linecap="round" stroke-linejoin="round" stroke-width="1"/>
          <line id="Line_30-5" data-name="Line 30" x2="12.979" transform="translate(480.792 4427.159)" fill="none" stroke="#fff" stroke-linecap="round" stroke-width="1"/>
        </g>
        <g id="Ellipse_8-5" data-name="Ellipse 8" transform="translate(360 4376.349)" fill="none" stroke="#fff" stroke-width="1" opacity="0.1">
          <circle cx="44.863" cy="44.863" r="44.863" stroke="none"/>
          <circle cx="44.863" cy="44.863" r="44.363" fill="none"/>
        </g>
        <text id="販売店" transform="translate(405 4493)" fill="#fff" font-size="14" font-family="NotoSansJP-Bold, Noto Sans JP" font-weight="700"><tspan x="-21" y="0">販売店</tspan></text>
      </g>
      <g transform="translate(-120 -4195)">
        <g id="Group_66-6" data-name="Group 66" transform="translate(-23.292 -5.947)">
          <path id="Path_22-6" data-name="Path 22" d="M-12642.582-3699.807l4.363,4.363-4.363,4.364" transform="translate(13131.99 8122.603)" fill="none" stroke="#fff" stroke-linecap="round" stroke-linejoin="round" stroke-width="1"/>
          <line id="Line_30-6" data-name="Line 30" x2="12.979" transform="translate(480.792 4427.159)" fill="none" stroke="#fff" stroke-linecap="round" stroke-width="1"/>
        </g>
        <g id="Ellipse_8-6" data-name="Ellipse 8" transform="translate(360 4376.349)" fill="none" stroke="#fff" stroke-width="1" opacity="0.1">
          <circle cx="44.863" cy="44.863" r="44.863" stroke="none"/>
          <circle cx="44.863" cy="44.863" r="44.363" fill="none"/>
        </g>
        <text id="一次問屋-2" data-name="一次問屋" transform="translate(405 4493)" fill="#fff" font-size="14" font-family="NotoSansJP-Bold, Noto Sans JP" font-weight="700"><tspan x="-28" y="0">一次問屋</tspan></text>
      </g>
    </g>
    <g id="Layer_2" data-name="Layer 2" transform="translate(-21833.061 8619.802)">
      <g id="Group_59" data-name="Group 59" transform="translate(1 1)">
        <path id="Path_7" data-name="Path 7" d="M1,42.4H41.552V16.047L28.128,27.455V16.441l-16.833,12.3L10.507,1H3.237Z" transform="translate(-1 -1)" fill="none" stroke="#fff" stroke-linecap="round" stroke-linejoin="round" stroke-width="2"/>
        <line id="Line_9" data-name="Line 9" x2="3.745" transform="translate(11.638 33.004)" fill="none" stroke="#fff" stroke-linecap="round" stroke-linejoin="round" stroke-width="2"/>
        <line id="Line_10" data-name="Line 10" x2="3.755" transform="translate(20.972 33.004)" fill="none" stroke="#fff" stroke-linecap="round" stroke-linejoin="round" stroke-width="2"/>
        <line id="Line_11" data-name="Line 11" x2="3.755" transform="translate(30.316 33.004)" fill="none" stroke="#fff" stroke-linecap="round" stroke-linejoin="round" stroke-width="2"/>
      </g>
    </g>
    <g id="Layer_2-2" data-name="Layer 2" transform="translate(-21710.986 8621.225)">
      <g id="Group_60" data-name="Group 60" transform="translate(1 1)">
        <path id="Path_8" data-name="Path 8" d="M4.23,40.975V1H33.189V40.975" transform="translate(-1.215 -1)" fill="none" stroke="#fff" stroke-linecap="round" stroke-linejoin="round" stroke-width="2"/>
        <line id="Line_12" data-name="Line 12" x2="34.971" transform="translate(0 39.891)" fill="none" stroke="#fff" stroke-linecap="round" stroke-linejoin="round" stroke-width="2"/>
        <path id="Path_9" data-name="Path 9" d="M15.72,43.065V34.99h8v8.2" transform="translate(-1.978 -3.258)" fill="none" stroke="#fff" stroke-linecap="round" stroke-linejoin="round" stroke-width="2"/>
        <line id="Line_13" data-name="Line 13" y2="3.79" transform="translate(12.118 10.362)" fill="none" stroke="#fff" stroke-linecap="round" stroke-linejoin="round" stroke-width="2"/>
        <line id="Line_14" data-name="Line 14" y2="3.79" transform="translate(17.495 10.362)" fill="none" stroke="#fff" stroke-linecap="round" stroke-linejoin="round" stroke-width="2"/>
        <line id="Line_15" data-name="Line 15" y2="3.79" transform="translate(22.881 10.362)" fill="none" stroke="#fff" stroke-linecap="round" stroke-linejoin="round" stroke-width="2"/>
        <line id="Line_16" data-name="Line 16" y2="3.79" transform="translate(12.118 18.354)" fill="none" stroke="#fff" stroke-linecap="round" stroke-linejoin="round" stroke-width="2"/>
        <line id="Line_17" data-name="Line 17" y2="3.79" transform="translate(17.495 18.354)" fill="none" stroke="#fff" stroke-linecap="round" stroke-linejoin="round" stroke-width="2"/>
        <line id="Line_18" data-name="Line 18" y2="3.79" transform="translate(22.881 18.354)" fill="none" stroke="#fff" stroke-linecap="round" stroke-linejoin="round" stroke-width="2"/>
      </g>
    </g>
    <g id="Layer_2-3" data-name="Layer 2" transform="translate(-21711.674 8804.15)">
      <g id="Group_62" data-name="Group 62" transform="translate(0.996 1.01)">
        <path id="Path_16" data-name="Path 16" d="M3.33,20.28v18.6H36.487V20.28" transform="translate(-1.231 -2.951)" fill="none" stroke="#fff" stroke-linecap="round" stroke-linejoin="round" stroke-width="2"/>
        <path id="Path_17" data-name="Path 17" d="M27.327,1.79V13.633a6.206,6.206,0,0,1-6.205,6.205h-.117A6.206,6.206,0,0,1,14.8,13.633V1.52" transform="translate(-2.386 -1.061)" fill="none" stroke="#fff" stroke-linecap="round" stroke-linejoin="round" stroke-width="2"/>
        <path id="Path_18" data-name="Path 18" d="M25.937,13.582a6.206,6.206,0,0,0,6.205,6.205h0a6.2,6.2,0,0,0,5.674-8.705L33.374,1.01H5.973L1.53,11.073A6.2,6.2,0,0,0,7.2,19.778h0a6.206,6.206,0,0,0,6.205-6.205" transform="translate(-0.996 -1.01)" fill="none" stroke="#fff" stroke-linecap="round" stroke-linejoin="round" stroke-width="2"/>
        <path id="Path_19" data-name="Path 19" d="M25.89,39.257V31.281A4.014,4.014,0,0,1,29.9,27.27h0a4.014,4.014,0,0,1,4.011,4.011v7.977" transform="translate(-3.503 -3.655)" fill="none" stroke="#fff" stroke-linecap="round" stroke-linejoin="round" stroke-width="2"/>
      </g>
    </g>
    <g id="Layer_2-4" data-name="Layer 2" transform="translate(-21591.219 8621.225)">
      <g id="Group_63" data-name="Group 63" transform="translate(1 1)">
        <path id="Path_20" data-name="Path 20" d="M34.961,17.472V40.794h5.8V12.824L20.878,1,1,12.824v27.97H6.786V17.472Z" transform="translate(-1 -1)" fill="none" stroke="#fff" stroke-linecap="round" stroke-linejoin="round" stroke-width="2"/>
        <line id="Line_19" data-name="Line 19" x2="7.821" transform="translate(15.987 11.414)" fill="none" stroke="#fff" stroke-linecap="round" stroke-linejoin="round" stroke-width="2"/>
        <line id="Line_20" data-name="Line 20" x2="28.231" transform="translate(5.73 22.426)" fill="none" stroke="#fff" stroke-linecap="round" stroke-linejoin="round" stroke-width="2"/>
        <path id="Path_21" data-name="Path 21" d="M25.274,30.39v5.954H19.32V42.3H31.228V30.39Z" transform="translate(-2.223 -2.961)" fill="none" stroke="#fff" stroke-linecap="round" stroke-linejoin="round" stroke-width="2"/>
        <line id="Line_21" data-name="Line 21" x2="5.954" transform="translate(23.052 33.383)" fill="none" stroke="#fff" stroke-linecap="round" stroke-linejoin="round" stroke-width="2"/>
        <line id="Line_22" data-name="Line 22" y2="5.954" transform="translate(23.052 33.383)" fill="none" stroke="#fff" stroke-linecap="round" stroke-linejoin="round" stroke-width="2"/>
      </g>
    </g>
    <g id="Layer_2-5" data-name="Layer 2" transform="translate(-21833.359 8800.293)">
      <g id="Group_63-2" data-name="Group 63" transform="translate(1 1)">
        <path id="Path_20-2" data-name="Path 20" d="M34.961,17.472V40.794h5.8V12.824L20.878,1,1,12.824v27.97H6.786V17.472Z" transform="translate(-1 -1)" fill="none" stroke="#fff" stroke-linecap="round" stroke-linejoin="round" stroke-width="2"/>
        <line id="Line_19-2" data-name="Line 19" x2="7.821" transform="translate(15.987 11.414)" fill="none" stroke="#fff" stroke-linecap="round" stroke-linejoin="round" stroke-width="2"/>
        <line id="Line_20-2" data-name="Line 20" x2="28.231" transform="translate(5.73 22.426)" fill="none" stroke="#fff" stroke-linecap="round" stroke-linejoin="round" stroke-width="2"/>
        <path id="Path_21-2" data-name="Path 21" d="M25.274,30.39v5.954H19.32V42.3H31.228V30.39Z" transform="translate(-2.223 -2.961)" fill="none" stroke="#fff" stroke-linecap="round" stroke-linejoin="round" stroke-width="2"/>
        <line id="Line_21-2" data-name="Line 21" x2="5.954" transform="translate(23.052 33.383)" fill="none" stroke="#fff" stroke-linecap="round" stroke-linejoin="round" stroke-width="2"/>
        <line id="Line_22-2" data-name="Line 22" y2="5.954" transform="translate(23.052 33.383)" fill="none" stroke="#fff" stroke-linecap="round" stroke-linejoin="round" stroke-width="2"/>
      </g>
    </g>
    <g id="Group_371" data-name="Group 371" transform="translate(-17378.32 8277.93) rotate(90)">
      <path id="Path_22-7" data-name="Path 22" d="M-12642.582-3699.807l4.363,4.363-4.363,4.364" transform="translate(13131.99 8129.603)" fill="none" stroke="#fff" stroke-linecap="round" stroke-linejoin="round" stroke-width="1"/>
    </g>
    <g id="Group_372" data-name="Group 372" transform="translate(-1.41 32)">
      <g id="Group_225" data-name="Group 225" transform="translate(-23066 4021.265)">
        <rect id="Rectangle_112" data-name="Rectangle 112" width="70" height="70" transform="translate(1459.41 4805.735)" fill="#4b4b4b"/>
        <text id="価格が_高い_" data-name="価格が
高い!!" transform="translate(1494.41 4834.736)" fill="#fff" font-size="16" font-family="HiraKakuStd-W8, Hiragino Kaku Gothic Std"><tspan x="-24" y="0">価格が</tspan><tspan x="-21.808" y="24">高い!!</tspan></text>
      </g>
      <g id="b" transform="translate(-21608.592 8749.228)">
        <g id="c" transform="translate(0.002 -0.001)">
          <g id="Group_199" data-name="Group 199">
            <path id="Path_47" data-name="Path 47" d="M156.08,103.832l.873-2.243s-.063-1.879-.267-3.3-.614-2.794,0-3.416a8.7,8.7,0,0,1,1.746-1.22s3.4-4.156,3.872-4.5,1.324-.426.785.6-1.888,3.128-1.888,3.128a2.378,2.378,0,0,1,1.608.313,16.549,16.549,0,0,1,1.671,1.675c.284.2.251,1.228.063,1.8a2.692,2.692,0,0,1-.723,1.023s.535.255-.693,1.821-3.053,2.214-3.212,2.5-1.779,2.472-1.779,2.472l-2.051-.652Z" transform="translate(-90.894 -51.784)" fill="#f9ddd0"/>
            <path id="Path_48" data-name="Path 48" d="M14.944,148.17a16.812,16.812,0,0,1-2.122,2.414,5.375,5.375,0,0,1-1.888,1.224,18.94,18.94,0,0,1-4.628.91c-1.416.058-4.6.426-5.229.484s-1.608.342-.723,1.082,1.575,1.253,4.218,1.253,4.344.255,4.82.255.568.255.568.94a2.8,2.8,0,0,1-.505,1.6c-.255.372,0,1.307.631.568a29.106,29.106,0,0,0,2.234-3.015,17.361,17.361,0,0,0,.915-1.737c.505-1.082.033-.142.033-.142s2.188-2.347,3.634-3.909l-1.955-1.917Z" transform="translate(-0.002 -86.287)" fill="#f9ddd0"/>
            <path id="Path_49" data-name="Path 49" d="M82.7,76.432c-1.52-.413-1.291-1.015-1.591-2.769a6.391,6.391,0,0,1,0-2.723l-2.823.405-2.823-.405a6.392,6.392,0,0,1,0,2.723c-.3,1.754-.071,2.351-1.591,2.769s-4.335,1.336-4.335,1.336l.409,5.35H86.634l.409-5.35s-2.815-.923-4.335-1.336Z" transform="translate(-40.497 -41.312)" fill="#fadfd3"/>
            <path id="Path_50" data-name="Path 50" d="M72.389,29.448h2.168s-.175,1.57,1.85,3.228,4.16,1.52,5.375.6,1.052-3.5.121-4.661A11.24,11.24,0,0,0,78.616,26.4a15.017,15.017,0,0,0,5.722-9.781C85.031,10.395,82.17,2.827,74.7.592a14.073,14.073,0,0,0-12.83,2.577,12.823,12.823,0,0,0-5.3,8.332C55.553,17.223,56.063,17.637,58,21.65s10.934,7.8,10.934,7.8Z" transform="translate(-32.646 0.001)" fill="#e46666"/>
            <g id="Group_197" data-name="Group 197" transform="translate(24.477 17.372)">
              <path id="Path_51" data-name="Path 51" d="M117.793,44.195a2.947,2.947,0,0,1-2.059,1.9c-.8-.042-1.065-1.345-.768-2.577s1.174-2.084,1.955-1.892c1.052.259,1.295,1.378.873,2.577Z" transform="translate(-91.359 -41.595)" fill="#f9dacd"/>
              <path id="Path_52" data-name="Path 52" d="M58.806,44.195a2.947,2.947,0,0,0,2.059,1.9c.8-.042,1.065-1.345.768-2.577s-1.174-2.084-1.955-1.892c-1.052.259-1.295,1.378-.873,2.577Z" transform="translate(-58.609 -41.595)" fill="#f9dacd"/>
            </g>
            <path id="Path_53" data-name="Path 53" d="M85.906,16.725c0,9.251-5.421,16.748-11.623,16.748S62.66,25.972,62.66,16.725,67.864,5.52,74.283,5.52,85.906,7.475,85.906,16.725Z" transform="translate(-36.491 -3.214)" fill="#f9dacd"/>
            <ellipse id="Ellipse_16" data-name="Ellipse 16" cx="0.877" cy="1.119" rx="0.877" ry="1.119" transform="translate(32.847 16.878)" fill="#101010"/>
            <path id="Path_54" data-name="Path 54" d="M76.77,41.35a5.8,5.8,0,0,0,1.453.727" transform="translate(-44.708 -24.08)" fill="#fff" stroke="#101010" stroke-linecap="round" stroke-miterlimit="10" stroke-width="1"/>
            <ellipse id="Ellipse_17" data-name="Ellipse 17" cx="0.877" cy="1.119" rx="0.877" ry="1.119" transform="translate(41.225 16.878)" fill="#101010"/>
            <path id="Path_55" data-name="Path 55" d="M102.753,41.35a5.8,5.8,0,0,1-1.453.727" transform="translate(-58.993 -24.08)" fill="#fff" stroke="#101010" stroke-linecap="round" stroke-miterlimit="10" stroke-width="1"/>
            <path id="Path_56" data-name="Path 56" d="M71.25,34.263s1.591-2.168,5.191-1.382" transform="translate(-41.493 -19.048)" fill="none" stroke="#101010" stroke-linecap="round" stroke-miterlimit="10" stroke-width="1"/>
            <path id="Path_57" data-name="Path 57" d="M89.367,48.31s-1.683.944,0,1.545" transform="translate(-51.608 -28.133)" fill="none" stroke="#101010" stroke-linecap="round" stroke-miterlimit="10" stroke-width="1"/>
            <path id="Path_58" data-name="Path 58" d="M65.521,9.5s-1.336,7.058-5.3,8.812a27.158,27.158,0,0,1,0-7.472c.6-3.55,3.412-8.211,13.1-7.843S85.66,9.968,85.36,14.625s-.685,4.506-.685,4.506S68.754,15.456,65.526,9.5Z" transform="translate(-34.913 -1.736)" fill="#e46666"/>
            <g id="Group_198" data-name="Group 198" transform="translate(29.038 36.461)">
              <path id="Path_59" data-name="Path 59" d="M69.529,87.3a2.17,2.17,0,0,0,.547,1.353c-.209-.748-.313-1.215-.313-1.215l-.23-.138Z" transform="translate(-69.529 -87.3)" fill="#f1a69a"/>
              <path id="Path_60" data-name="Path 60" d="M110.683,87.3l-.23.138s-.109.468-.313,1.215a2.17,2.17,0,0,0,.547-1.353Z" transform="translate(-93.179 -87.3)" fill="#f1a69a"/>
              <path id="Path_61" data-name="Path 61" d="M79.047,92.921c-5.271-.054-7.376-1.332-8.207-2.381A34.738,34.738,0,0,0,73.467,97.4a8.615,8.615,0,0,0,5.241,3.947v.159s.125-.021.338-.071c.213.05.338.071.338.071v-.159A8.615,8.615,0,0,0,84.627,97.4a34.736,34.736,0,0,0,2.627-6.858C86.422,91.588,84.322,92.866,79.047,92.921Z" transform="translate(-70.292 -89.187)" fill="#f1a69a"/>
            </g>
            <ellipse id="Ellipse_18" data-name="Ellipse 18" cx="1.817" cy="1.119" rx="1.817" ry="1.119" transform="translate(41.639 19.722)" fill="#f9c8c2"/>
            <ellipse id="Ellipse_19" data-name="Ellipse 19" cx="1.817" cy="1.119" rx="1.817" ry="1.119" transform="translate(29.757 19.722)" fill="#f9c8c2"/>
            <path id="Path_62" data-name="Path 62" d="M119.524,100.629s5.241,8.424,6.816,10.646a32.058,32.058,0,0,0,3.558,4.156c.443.455.944.6,1.762-.255s5.985-7.8,5.985-7.8l-3.308-1.909a27.008,27.008,0,0,0-3.37,5.6c-4.44-8.14-10.9-17.984-10.9-17.984l-.551,7.539Z" transform="translate(-69.603 -54.211)" fill="#f9c8c2"/>
            <path id="Path_63" data-name="Path 63" d="M45.286,91.464s-1.1.284-1.825,3.157-1.261,5.835-2.172,8.933a19.164,19.164,0,0,1-2.489,5.889c-1.069,1.679-4.03,5.492-4.03,5.492l2.769,2.477s1.512-2.163,3.245-4.268,5.338-10.637,5.338-10.637L45.286,91.46Z" transform="translate(-20.249 -53.261)" fill="#f9c8c2"/>
            <path id="Path_64" data-name="Path 64" d="M80.216,111.92c-.075-4.648,1.491-23.075,1.491-23.075A15.3,15.3,0,0,0,76.95,86.97s-3.634,10.358-8.478,11.64c-4.841-1.282-8.478-11.64-8.478-11.64a15.3,15.3,0,0,0-4.757,1.875s1.566,18.427,1.491,23.075-4.047,15.9-4.047,15.9v.434H84.263v-.434S80.291,116.569,80.216,111.92Z" transform="translate(-30.679 -50.647)" fill="#fcfce4"/>
            <ellipse id="Ellipse_20" data-name="Ellipse 20" cx="0.869" cy="1.265" rx="0.869" ry="1.265" transform="translate(37.011 23.852)" fill="none" stroke="#101010" stroke-linecap="round" stroke-miterlimit="10" stroke-width="1"/>
          </g>
        </g>
      </g>
      <text id="お客様" transform="translate(-21571.588 8741.196)" fill="#fff" font-size="14" font-family="NotoSansJP-Bold, Noto Sans JP" font-weight="700"><tspan x="-21" y="0">お客様</tspan></text>
    </g>
    <path id="Path_252" data-name="Path 252" d="M-21576.2,8710.106v23.745h-242.139v29.157" transform="translate(5.863 8.692)" fill="none" stroke="#fff" stroke-width="1"/>
  </g>
</svg>
