<svg xmlns="http://www.w3.org/2000/svg" width="285" height="70" viewBox="0 0 285 70">
  <g id="Group_217" data-name="Group 217" transform="translate(-1459 -38)">
    <rect id="Rectangle_110" data-name="Rectangle 110" width="285" height="70" transform="translate(1459 38)" fill="#f9be00"/>
    <g id="Group_216" data-name="Group 216">
      <path id="Path_247" data-name="Path 247" d="M8.232-7.154V-6.4H6.622v-.756Zm3.136.756H9.716v-.756h1.652ZM9.716-4.452v-.784h1.652v.784Zm-3.094,0v-.784h1.61v.784Zm0,1.2h1.61V-1.2H9.716V-3.248h1.652V-2.6c0,.14-.042.2-.21.21-.14,0-.63,0-1.064-.014a4.552,4.552,0,0,1,.406,1.3,4.213,4.213,0,0,0,1.89-.238c.448-.224.574-.574.574-1.246V-8.358H11.27c-.238-.14-.532-.28-.84-.434a15.935,15.935,0,0,0,2.492-1.89l-.994-.8-.322.084H5.18v1.26h4.984a12.935,12.935,0,0,1-1.12.742c-.574-.252-1.162-.476-1.652-.658l-1.078.9c.574.224,1.246.5,1.876.8H5.054v7.21H6.622ZM4.284-9.408a11.991,11.991,0,0,0-2.436-2.156L.7-10.5A11.365,11.365,0,0,1,3.038-8.218Zm-.42,2.982H.49V-4.9H2.268v3.052A19.27,19.27,0,0,1,.308-.574l.77,1.666C1.862.5,2.52-.042,3.164-.588A4.343,4.343,0,0,0,6.79.966c1.708.07,4.676.042,6.4-.042A6.879,6.879,0,0,1,13.706-.7c-1.918.154-5.236.2-6.9.126A3.2,3.2,0,0,1,3.864-1.96Zm15.47-5H15.2v1.26h4.13Zm-1.358,9.17v1.6h-1.5v-1.6ZM19.39-3.57H15.078V1.2h1.4V.658H19.39Zm-4.27-.714h4.2v-1.26h-4.2Zm4.2-3.206h-4.2v1.246h4.2Zm-4.858-.686h5.32V-9.492h-5.32ZM25.368-.952H22.19v-1.96h3.178Zm2.226-5.306V-7.812h-3.01V-9.758a21.289,21.289,0,0,0,2.646-.574l-1.176-1.386A30.6,30.6,0,0,1,20.118-10.7a5.448,5.448,0,0,1,.448,1.4c.742-.056,1.54-.126,2.324-.224v1.708H19.88v1.554h3.01V-4.41H20.608V1.218H22.19V.546h3.178v.616h1.666V-4.41h-2.45V-6.258Zm10.36-.882H36.89V-8.932h1.064Zm0,3.262H36.89V-5.656h1.064Zm-5.88-1.778h1.008v1.778H32.074Zm3.43,0v1.778H34.468V-5.656ZM34.468-7.14V-8.932H35.5V-7.14ZM32.074-8.932h1.008V-7.14H32.074ZM30.6-7.14H28.728v1.484H30.6v1.778H28.938v1.484H41.1V-3.878H39.48V-5.656H41.3V-7.14H39.48V-8.932H40.8V-10.4H32.4a7.537,7.537,0,0,0,.546-.98l-1.624-.476a8.609,8.609,0,0,1-2.9,3.346A15.419,15.419,0,0,1,29.778-7.42a9.62,9.62,0,0,0,.826-.728ZM30.17,1.232a7.661,7.661,0,0,0,1.6-2.94L30.156-2.1A6.9,6.9,0,0,1,28.588.588ZM32.662-1.61a17.771,17.771,0,0,1,.266,2.674L34.552.826a18.314,18.314,0,0,0-.35-2.618Zm2.772.028a14.919,14.919,0,0,1,.714,2.66L37.814.756A15.6,15.6,0,0,0,37-1.848Zm2.772-.07a18.032,18.032,0,0,1,1.652,2.87L41.566.644a18.99,18.99,0,0,0-1.764-2.8Zm13.86-7.756A10.521,10.521,0,0,0,49.84-11.1l-.8,1.12a11.264,11.264,0,0,1,2.17,1.82ZM48.4-6.468a11.84,11.84,0,0,1,2.3,1.75l.84-1.33a11.692,11.692,0,0,0-2.352-1.61Zm-1.26-4.62a26.042,26.042,0,0,1-.77,3.276l1.05.294c.35-.812.756-2.142,1.12-3.262ZM44.422-7.812a14.037,14.037,0,0,0-.714-3.206l-1.162.308a13.844,13.844,0,0,1,.63,3.234Zm3.822,4.606c-.294-.392-1.624-1.96-2.03-2.366v-.1h2.072V-7.224H46.214V-11.8h-1.54v4.578H42.56V-5.67h1.6a12.961,12.961,0,0,1-1.848,3.626,9.893,9.893,0,0,1,.756,1.722,14.368,14.368,0,0,0,1.61-3.444V1.176h1.54V-3.738a18.7,18.7,0,0,1,1.008,1.82Zm7.406.322L55.4-4.438l-1.428.266v-7.7H52.4v7.98l-4.158.742L48.5-1.6,52.4-2.3V1.2H53.97v-3.78Z" transform="translate(1496 95.872)" fill="#101010"/>
      <path id="Path_249" data-name="Path 249" d="M9.282-5.32A9.226,9.226,0,0,0,12.04,1.4L13.37.812A8.7,8.7,0,0,1,10.864-5.32a8.7,8.7,0,0,1,2.506-6.132l-1.33-.588A9.226,9.226,0,0,0,9.282-5.32Zm9.2,1.96V-5.488H20.9V-3.36Zm8.932,0H22.624V-5.488h3.7V-7.042h-3.7V-8.708h4.018v-1.61h-7.91a8.938,8.938,0,0,0,.462-1.148L17.5-11.9a10.8,10.8,0,0,1-2.94,4.662A12.885,12.885,0,0,1,16-6.16a12.582,12.582,0,0,0,1.9-2.548h3v1.666H16.814V-3.36H14.6v1.6h6.3v3h1.722v-3h4.788Zm8.442-1.428V-7.8h3.164v3.01Zm-4.914,0V-7.8h3.15v3.01Zm4.914-4.648v-2.422H34.09v2.422H29.26V-2.38h1.68v-.77h3.15V1.218h1.764V-3.15h3.164v.7h1.75V-9.436Zm16.1,2.3H50.89V-8.932h1.064Zm0,3.262H50.89V-5.656h1.064Zm-5.88-1.778h1.008v1.778H46.074Zm3.43,0v1.778H48.468V-5.656ZM48.468-7.14V-8.932H49.5V-7.14ZM46.074-8.932h1.008V-7.14H46.074ZM44.6-7.14H42.728v1.484H44.6v1.778H42.938v1.484H55.1V-3.878H53.48V-5.656H55.3V-7.14H53.48V-8.932H54.8V-10.4H46.4a7.537,7.537,0,0,0,.546-.98l-1.624-.476a8.609,8.609,0,0,1-2.9,3.346A15.418,15.418,0,0,1,43.778-7.42a9.62,9.62,0,0,0,.826-.728ZM44.17,1.232a7.661,7.661,0,0,0,1.6-2.94L44.156-2.1A6.9,6.9,0,0,1,42.588.588ZM46.662-1.61a17.771,17.771,0,0,1,.266,2.674L48.552.826a18.314,18.314,0,0,0-.35-2.618Zm2.772.028a14.919,14.919,0,0,1,.714,2.66L51.814.756A15.6,15.6,0,0,0,51-1.848Zm2.772-.07a18.032,18.032,0,0,1,1.652,2.87L55.566.644a18.99,18.99,0,0,0-1.764-2.8ZM69.37-6.846V-8.47H65.716v-3.164H64.064V-8.47H60.508v1.624h2.9a13.283,13.283,0,0,1-3.458,5.068V-8.3a22.09,22.09,0,0,0,1.442-2.954l-1.652-.532A14.363,14.363,0,0,1,56.2-6.412a12.088,12.088,0,0,1,.966,1.75,12.69,12.69,0,0,0,1.148-1.26V1.19h1.638v-2.8A9.233,9.233,0,0,1,61.082-.378,14.226,14.226,0,0,0,64.064-4.62V1.218h1.652V-4.9A14.311,14.311,0,0,0,68.544-.448a5.935,5.935,0,0,1,1.246-1.33,13.694,13.694,0,0,1-3.346-5.068ZM74.718-5.32a9.226,9.226,0,0,0-2.758-6.72l-1.33.588A8.7,8.7,0,0,1,73.136-5.32,8.7,8.7,0,0,1,70.63.812l1.33.588A9.226,9.226,0,0,0,74.718-5.32Z" transform="translate(1652.718 96.04)" fill="#bb1c21"/>
      <path id="Path_248" data-name="Path 248" d="M2.45-7.1c0-1.274.63-1.9,1.4-1.9.882,0,1.6.7,1.778,2.576A2.035,2.035,0,0,1,3.92-5.306C3.024-5.306,2.45-5.88,2.45-7.1ZM3.57.2C5.628.2,7.546-1.5,7.546-5.418c0-3.6-1.764-5.138-3.724-5.138A3.247,3.247,0,0,0,.56-7.1c0,2.2,1.246,3.262,2.968,3.262a2.91,2.91,0,0,0,2.128-1.12c-.1,2.59-1.05,3.472-2.212,3.472A2.3,2.3,0,0,1,1.82-2.226L.728-.98A3.886,3.886,0,0,0,3.57.2Zm6.944-5.32A1.277,1.277,0,0,0,11.8-6.454,1.281,1.281,0,0,0,10.514-7.8,1.278,1.278,0,0,0,9.24-6.454,1.275,1.275,0,0,0,10.514-5.124Zm0,5.32A1.289,1.289,0,0,0,11.8-1.148a1.281,1.281,0,0,0-1.288-1.344A1.278,1.278,0,0,0,9.24-1.148,1.287,1.287,0,0,0,10.514.2Zm6.412,0c2.114,0,3.5-1.848,3.5-5.418s-1.386-5.334-3.5-5.334-3.514,1.75-3.514,5.334S14.812.2,16.926.2Zm0-1.61c-.9,0-1.568-.9-1.568-3.808S16.03-8.96,16.926-8.96s1.554.84,1.554,3.738S17.822-1.414,16.926-1.414ZM25.172.2c2.114,0,3.5-1.848,3.5-5.418s-1.386-5.334-3.5-5.334-3.514,1.75-3.514,5.334S23.058.2,25.172.2Zm0-1.61c-.9,0-1.568-.9-1.568-3.808s.672-3.738,1.568-3.738,1.554.84,1.554,3.738S26.068-1.414,25.172-1.414Zm10.486-3.3a4.236,4.236,0,0,0,3.3,1.54A4.327,4.327,0,0,0,42.77-5.754l-1.54-.84A2.735,2.735,0,0,1,39-4.914a2.562,2.562,0,0,1-2.086-1.008,4.236,4.236,0,0,0-3.3-1.54,4.327,4.327,0,0,0-3.808,2.576l1.54.84a2.735,2.735,0,0,1,2.226-1.68A2.581,2.581,0,0,1,35.658-4.718ZM44.436,0h6.23V-1.666H48.72v-8.708H47.194a6.463,6.463,0,0,1-2.408.882v1.274h1.876v6.552H44.436ZM55.65.2c2.1,0,3.486-1.2,3.486-2.772A3.013,3.013,0,0,0,57.4-5.348v-.07a3.018,3.018,0,0,0,1.33-2.366,2.719,2.719,0,0,0-3.01-2.758c-1.792,0-3.122,1.064-3.122,2.73A2.951,2.951,0,0,0,53.97-5.348v.07a3,3,0,0,0-1.778,2.7C52.192-.952,53.676.2,55.65.2Zm.658-6.118c-1.092-.434-1.89-.91-1.89-1.89A1.2,1.2,0,0,1,55.678-9.1,1.32,1.32,0,0,1,57.05-7.658,2.481,2.481,0,0,1,56.308-5.922Zm-.6,4.662A1.588,1.588,0,0,1,53.97-2.8a2.491,2.491,0,0,1,.952-1.918c1.344.546,2.3.994,2.3,2.072A1.352,1.352,0,0,1,55.706-1.26Zm6.342-3.864a1.277,1.277,0,0,0,1.288-1.33A1.281,1.281,0,0,0,62.048-7.8a1.278,1.278,0,0,0-1.274,1.344A1.275,1.275,0,0,0,62.048-5.124Zm0,5.32a1.289,1.289,0,0,0,1.288-1.344,1.281,1.281,0,0,0-1.288-1.344,1.278,1.278,0,0,0-1.274,1.344A1.287,1.287,0,0,0,62.048.2ZM68.46.2c2.114,0,3.5-1.848,3.5-5.418s-1.386-5.334-3.5-5.334-3.514,1.75-3.514,5.334S66.346.2,68.46.2Zm0-1.61c-.9,0-1.568-.9-1.568-3.808S67.564-8.96,68.46-8.96s1.554.84,1.554,3.738S69.356-1.414,68.46-1.414ZM76.706.2c2.114,0,3.5-1.848,3.5-5.418s-1.386-5.334-3.5-5.334-3.514,1.75-3.514,5.334S74.592.2,76.706.2Zm0-1.61c-.9,0-1.568-.9-1.568-3.808S75.81-8.96,76.706-8.96s1.554.84,1.554,3.738S77.6-1.414,76.706-1.414Z" transform="translate(1568 95.556)" fill="#101010"/>
      <g id="Group_215" data-name="Group 215">
        <path id="Path_246" data-name="Path 246" d="M12.2.432C18.432.432,23-4.284,23-12.6S18.432-25.632,12.2-25.632c-6.192,0-10.8,4.716-10.8,13.032S6.012.432,12.2.432Zm0-4.932c-2.88,0-4.9-2.376-4.9-8.1s2.016-8.1,4.9-8.1c2.916,0,4.932,2.376,4.932,8.1S15.12-4.5,12.2-4.5ZM24.48-25.2v4.68h5.04V0h5.832V-25.2ZM47.736-4.752l5.8-5.472c3.528-3.276,4.212-5.508,4.212-7.956,0-4.572-3.744-7.452-9.36-7.452-4.536,0-8.064,1.836-10.008,4.68l4.248,2.736a6.162,6.162,0,0,1,5.22-2.52c2.664,0,4.032,1.152,4.032,3.132,0,1.224-.4,2.52-2.628,4.644l-9.72,9.18V0H58.572V-4.752ZM71.712.432c6.228,0,10.8-4.716,10.8-13.032s-4.572-13.032-10.8-13.032c-6.192,0-10.8,4.716-10.8,13.032S65.52.432,71.712.432Zm0-4.932c-2.88,0-4.9-2.376-4.9-8.1s2.016-8.1,4.9-8.1c2.916,0,4.932,2.376,4.932,8.1S74.628-4.5,71.712-4.5ZM85.968-7.884H96.156v-4.5H85.968Zm24.48-7.056,5.688-6.48V-25.2H98.5v4.68h10.728l-5.184,5.868V-10.8H106.7c3.312,0,4.716,1.188,4.716,3.1,0,2.052-1.8,3.24-4.716,3.24a12.239,12.239,0,0,1-7.2-2.268L97.236-2.268a17.327,17.327,0,0,0,9.612,2.7c7.164,0,10.44-3.888,10.44-8.136C117.288-11.412,114.984-14.22,110.448-14.94Zm8.388-10.26v4.68h5.04V0h5.832V-25.2Zm27.4,9.4A8.505,8.505,0,0,0,140-13.572c.18-4.824,2.88-7.308,7.092-7.308a8.3,8.3,0,0,1,4.716,1.26l2.16-4.284a13.607,13.607,0,0,0-7.02-1.728c-7.6,0-12.852,4.86-12.852,13.572,0,8.136,4.32,12.492,11.268,12.492,5.328,0,9.54-3.24,9.54-8.388C154.908-12.708,151.092-15.8,146.232-15.8Zm-1.188,11.88c-2.808,0-4.428-1.584-4.428-3.744,0-2.2,1.8-3.78,4.356-3.78,2.592,0,4.284,1.476,4.284,3.78S147.528-3.924,145.044-3.924Zm12.636-3.96h10.188v-4.5H157.68Zm25.7-7.92a8.505,8.505,0,0,0-6.228,2.232c.18-4.824,2.88-7.308,7.092-7.308a8.3,8.3,0,0,1,4.716,1.26l2.16-4.284a13.607,13.607,0,0,0-7.02-1.728c-7.6,0-12.852,4.86-12.852,13.572,0,8.136,4.32,12.492,11.268,12.492,5.328,0,9.54-3.24,9.54-8.388C192.06-12.708,188.244-15.8,183.384-15.8ZM182.2-3.924c-2.808,0-4.428-1.584-4.428-3.744,0-2.2,1.8-3.78,4.356-3.78,2.592,0,4.284,1.476,4.284,3.78S184.68-3.924,182.2-3.924ZM204.984.432c6.228,0,10.8-4.716,10.8-13.032s-4.572-13.032-10.8-13.032c-6.192,0-10.8,4.716-10.8,13.032S198.792.432,204.984.432Zm0-4.932c-2.88,0-4.9-2.376-4.9-8.1s2.016-8.1,4.9-8.1c2.916,0,4.932,2.376,4.932,8.1S207.9-4.5,204.984-4.5ZM230.76-15.8a8.505,8.505,0,0,0-6.228,2.232c.18-4.824,2.88-7.308,7.092-7.308a8.3,8.3,0,0,1,4.716,1.26L238.5-23.9a13.607,13.607,0,0,0-7.02-1.728c-7.6,0-12.852,4.86-12.852,13.572,0,8.136,4.32,12.492,11.268,12.492,5.328,0,9.54-3.24,9.54-8.388C239.436-12.708,235.62-15.8,230.76-15.8Zm-1.188,11.88c-2.808,0-4.428-1.584-4.428-3.744,0-2.2,1.8-3.78,4.356-3.78,2.592,0,4.284,1.476,4.284,3.78S232.056-3.924,229.572-3.924Z" transform="translate(1492 77)" fill="#101010"/>
        <path id="Icon_awesome-phone-alt" data-name="Icon awesome-phone-alt" d="M18.5,13.453,14.33,11.669a.892.892,0,0,0-1.041.257l-1.844,2.253A13.783,13.783,0,0,1,4.856,7.59L7.11,5.746A.89.89,0,0,0,7.366,4.7L5.581.54A.9.9,0,0,0,4.559.023L.692.915A.892.892,0,0,0,0,1.785,17.252,17.252,0,0,0,17.253,19.039a.892.892,0,0,0,.87-.692l.892-3.867A.9.9,0,0,0,18.5,13.453Z" transform="translate(1467.962 54)" fill="#bb1c21"/>
      </g>
    </g>
  </g>
</svg>
