<svg xmlns="http://www.w3.org/2000/svg" width="148" height="70" viewBox="0 0 148 70">
  <g id="Group_88" data-name="Group 88" transform="translate(-1681 -24)">
    <rect id="Rectangle_2" data-name="Rectangle 2" width="148" height="70" transform="translate(1681 24)" fill="#bb1c21"/>
    <path id="Path_253" data-name="Path 253" d="M-46.872,0h7.936V-1.984H-41.5c-.56,0-1.344.064-1.936.128,2.16-2.112,3.936-4.416,3.936-6.56a3.473,3.473,0,0,0-3.728-3.648,4.753,4.753,0,0,0-3.76,1.792l1.28,1.28a3.1,3.1,0,0,1,2.176-1.216,1.691,1.691,0,0,1,1.776,1.92c0,1.824-1.9,4.048-5.12,6.928Zm11.36-4.864,1.84-2.944c.336-.64.656-1.3.944-1.936h.064c-.032.7-.08,1.776-.08,2.464v2.416ZM-32.744,0h2.192V-3.072h1.392V-4.864h-1.392v-6.992h-2.832L-37.8-4.672v1.6h5.056Zm8.3-10.88v2.816h-1.472V-10.88Zm-1.472,7.488V-6.4h1.472v3.008Zm3.248-9.184h-5.008V-.288h1.76V-1.7h3.248Zm.944,9.536A11.256,11.256,0,0,1-19.9-.352l1.632-.944A11.04,11.04,0,0,0-20.2-3.92Zm8.464-4.1V-8.8H-16.9v-1.408h3.2v-1.664h-3.2v-1.68h-1.872v1.68h-3.072v1.664h3.072V-8.8h-3.616v1.664h5.648V-5.76H-22.36v1.648h5.616v3.44c0,.224-.08.288-.336.288-.24,0-1.136,0-1.9-.032a6.417,6.417,0,0,1,.608,1.792,7.084,7.084,0,0,0,2.672-.32c.624-.288.8-.768.8-1.68V-4.112h1.536V-5.76H-14.9V-7.136Zm6.192-4.432v.848H-9.528v-.848Zm-2.464,3.04V-9.44h2.464v.912Zm4.24,1.36v-5.776h-6.128V1.392h1.888v-8.56ZM-2.376-8.5V-9.44H.168V-8.5ZM.168-11.568v.848H-2.376v-.848Zm-6.24,10.08V-2.48h2.64v.992Zm2.64-2.352h-2.64V-4.8h2.64Zm5.52-9.1H-4.184v5.808H.168V-.88c0,.256-.1.352-.384.352-.208.016-.8.016-1.424,0V-6.192l-5.376-.016v.016H-7.8V.72h1.728V-.1H-2.1a7.045,7.045,0,0,1,.416,1.488A6.913,6.913,0,0,0,1.24,1.024c.64-.3.848-.864.848-1.888ZM7.672.224c2.256,0,4.16-1.264,4.16-3.44A2.961,2.961,0,0,0,9.48-6.128v-.08a2.81,2.81,0,0,0,1.968-2.7c0-2.016-1.552-3.152-3.84-3.152a5.253,5.253,0,0,0-3.552,1.456l1.2,1.44a3.218,3.218,0,0,1,2.24-1.04A1.4,1.4,0,0,1,9.08-8.736c0,1.056-.7,1.808-2.88,1.808v1.68c2.576,0,3.264.736,3.264,1.888,0,1.072-.816,1.664-2.016,1.664a3.761,3.761,0,0,1-2.64-1.216L3.7-1.424A5.033,5.033,0,0,0,7.672.224ZM17.64-5.792c1.024,0,1.7.656,1.7,2.048,0,1.456-.736,2.192-1.616,2.192-.992,0-1.792-.832-2.016-2.992A2.314,2.314,0,0,1,17.64-5.792ZM17.768.224A3.722,3.722,0,0,0,21.48-3.744c0-2.528-1.408-3.712-3.392-3.712a3.409,3.409,0,0,0-2.432,1.28c.1-2.976,1.216-4,2.576-4a2.57,2.57,0,0,1,1.824.864L21.3-10.72a4.358,4.358,0,0,0-3.216-1.344c-2.384,0-4.576,1.888-4.576,6.3C13.512-1.584,15.512.224,17.768.224Zm8.784,0A4,4,0,0,0,30.7-3.936,3.438,3.438,0,0,0,27.048-7.7a3.11,3.11,0,0,0-1.424.336l.224-2.512h4.3v-1.984H23.816L23.5-6.1l1.072.7a2.833,2.833,0,0,1,1.776-.624,1.916,1.916,0,0,1,2,2.144,1.988,1.988,0,0,1-2.1,2.176A3.68,3.68,0,0,1,23.64-2.9l-1.088,1.5A5.4,5.4,0,0,0,26.552.224ZM36.008-1.76V-5.344h7.1V-1.76Zm7.1-8.912v3.44h-7.1v-3.44Zm-9.072-1.92V1.2h1.968V.16h7.1V1.168H45.16v-13.76ZM-26.512,12.24l-2.384-.832a9.979,9.979,0,0,1-.384,1.472,16.592,16.592,0,0,1-1.776,3.808c-1.3-.96-2.976-2.112-4.256-2.9l-1.36,1.632a43.99,43.99,0,0,1,4.32,3.04,17.607,17.607,0,0,1-6.08,4.72L-36.64,24.8a20,20,0,0,0,5.952-4.944,32.217,32.217,0,0,1,3.552,3.536l1.648-1.824a41.9,41.9,0,0,0-3.84-3.536,24.164,24.164,0,0,0,2.144-4.352C-27.024,13.312-26.72,12.608-26.512,12.24Zm3.984,4.352V19.1c.592-.048,1.664-.08,2.576-.08h8.592c.672,0,1.488.064,1.872.08V16.592c-.416.032-1.12.1-1.872.1h-8.592C-20.784,16.688-21.952,16.64-22.528,16.592ZM.048,23.648l1.344,1.1a3.419,3.419,0,0,1,.688-.48A17.617,17.617,0,0,0,7.5,19.9l-1.232-1.76A10.132,10.132,0,0,1,2.32,21.52V13.152a8.125,8.125,0,0,1,.112-1.392H.048a7.093,7.093,0,0,1,.128,1.376v9.328A6.088,6.088,0,0,1,.048,23.648Zm-7.408-.24,1.952,1.3A9.381,9.381,0,0,0-2.56,20.112a35.3,35.3,0,0,0,.48-6.88,10.539,10.539,0,0,1,.112-1.456H-4.32a6.072,6.072,0,0,1,.144,1.472,27.571,27.571,0,0,1-.464,6.336A7.548,7.548,0,0,1-7.36,23.408ZM12.656,17.68h6.688v.992H12.656Zm0-2.544h6.688v.992H12.656Zm0-2.528h6.688V13.6H12.656Zm6.72,10.848c-.608,0-.7-.064-.7-.576V20.336H21.28V10.944H10.816v9.392h1.952c-.272,1.744-.96,2.816-4.24,3.424a6.03,6.03,0,0,1,1.056,1.7c3.952-.9,4.9-2.576,5.232-5.12h1.936V22.9c0,1.792.448,2.368,2.352,2.368h2.112c1.584,0,2.08-.656,2.288-3.184a6.06,6.06,0,0,1-1.744-.752c-.08,1.856-.176,2.128-.72,2.128Zm11.3-4.368c-.272-.336-1.424-1.52-1.936-2v-.512H30.32v-.864h9.056V14.528H35.744v-.544h2.944v-1.1H35.744v-.544h3.312V11.184H35.744v-.72h-1.9v.72H30.72v1.152h3.12v.544H31.008v1.1H33.84v.544H30.224V14.8H28.736V12.64a14.561,14.561,0,0,0,1.888-.576L29.36,10.608a20.989,20.989,0,0,1-4.816,1.184,6.664,6.664,0,0,1,.528,1.456c.576-.064,1.184-.144,1.808-.24V14.8H24.752v1.776h2a15.879,15.879,0,0,1-2.416,4.416,9.445,9.445,0,0,1,.88,1.808,14.283,14.283,0,0,0,1.664-2.976v5.552h1.856v-6.24a16.275,16.275,0,0,1,.848,1.44Zm2.24,1.872H36.8v.672H32.912Zm0-1.776H36.8v.688H32.912Zm0-1.76H36.8V18.1H32.912Zm5.7,5.392v-6.56H31.216v6.56h1.392a12.442,12.442,0,0,1-3.152,1.456c.352.336.88.848,1.168,1.184a14.186,14.186,0,0,0,3.84-1.936l-1.072-.7H36.3l-.992.72a27.713,27.713,0,0,1,2.64,1.872l1.664-.9c-.64-.448-1.744-1.12-2.72-1.7Z" transform="translate(1755 54)" fill="#fff"/>
  </g>
</svg>
