<svg xmlns="http://www.w3.org/2000/svg" width="1200" height="350.73" viewBox="0 0 1200 350.73">
  <g id="Group_408" data-name="Group 408" transform="translate(-360 -4798.27)">
    <g id="Group_406" data-name="Group 406">
      <g id="Group_401" data-name="Group 401" transform="translate(0 460.447)">
        <g id="Group_66" data-name="Group 66" transform="translate(22.708 4.553)">
          <path id="Path_22" data-name="Path 22" d="M-12642.582-3699.807l8.572,8.572-8.572,8.573" transform="translate(13140.302 8122.603)" fill="none" stroke="#fff" stroke-linecap="round" stroke-linejoin="round" stroke-width="2"/>
          <line id="Line_30" data-name="Line 30" x2="25.5" transform="translate(480.792 4431.368)" fill="none" stroke="#fff" stroke-linecap="round" stroke-width="2"/>
        </g>
        <circle id="Ellipse_8" data-name="Ellipse 8" cx="60" cy="60" r="60" transform="translate(360 4376.349)" fill="none"/>
        <text id="メーカー" transform="translate(420 4535)" fill="#fff" font-size="20" font-family="NotoSansJP-Bold, Noto Sans JP" font-weight="700"><tspan x="-40" y="0">メーカー</tspan></text>
      </g>
      <g id="Group_402" data-name="Group 402" transform="translate(200 460.447)">
        <g id="Group_66-2" data-name="Group 66" transform="translate(22.708 4.553)">
          <path id="Path_22-2" data-name="Path 22" d="M-12642.582-3699.807l8.572,8.572-8.572,8.573" transform="translate(13140.302 8122.603)" fill="none" stroke="#fff" stroke-linecap="round" stroke-linejoin="round" stroke-width="2"/>
          <line id="Line_30-2" data-name="Line 30" x2="25.5" transform="translate(480.792 4431.368)" fill="none" stroke="#fff" stroke-linecap="round" stroke-width="2"/>
        </g>
        <circle id="Ellipse_8-2" data-name="Ellipse 8" cx="60" cy="60" r="60" transform="translate(360 4376.349)" fill="none"/>
        <text id="商社" transform="translate(420 4535)" fill="#fff" font-size="20" font-family="NotoSansJP-Bold, Noto Sans JP" font-weight="700"><tspan x="-20" y="0">商社</tspan></text>
      </g>
      <g id="Group_403" data-name="Group 403" transform="translate(400 460.447)">
        <g id="Group_66-3" data-name="Group 66" transform="translate(22.708 4.553)">
          <path id="Path_22-3" data-name="Path 22" d="M-12642.582-3699.807l8.572,8.572-8.572,8.573" transform="translate(13140.302 8122.603)" fill="none" stroke="#fff" stroke-linecap="round" stroke-linejoin="round" stroke-width="2"/>
          <line id="Line_30-3" data-name="Line 30" x2="25.5" transform="translate(480.792 4431.368)" fill="none" stroke="#fff" stroke-linecap="round" stroke-width="2"/>
        </g>
        <circle id="Ellipse_8-3" data-name="Ellipse 8" cx="60" cy="60" r="60" transform="translate(360 4376.349)" fill="none"/>
        <text id="一次問屋" transform="translate(420 4535)" fill="#fff" font-size="20" font-family="NotoSansJP-Bold, Noto Sans JP" font-weight="700"><tspan x="-40" y="0">一次問屋</tspan></text>
      </g>
      <g id="Group_404" data-name="Group 404" transform="translate(600 460.447)">
        <g id="Group_66-4" data-name="Group 66" transform="translate(22.708 4.553)">
          <path id="Path_22-4" data-name="Path 22" d="M-12642.582-3699.807l8.572,8.572-8.572,8.573" transform="translate(13140.302 8122.603)" fill="none" stroke="#fff" stroke-linecap="round" stroke-linejoin="round" stroke-width="2"/>
          <line id="Line_30-4" data-name="Line 30" x2="25.5" transform="translate(480.792 4431.368)" fill="none" stroke="#fff" stroke-linecap="round" stroke-width="2"/>
        </g>
        <circle id="Ellipse_8-4" data-name="Ellipse 8" cx="60" cy="60" r="60" transform="translate(360 4376.349)" fill="none"/>
        <text id="二次問屋" transform="translate(420 4535)" fill="#fff" font-size="20" font-family="NotoSansJP-Bold, Noto Sans JP" font-weight="700"><tspan x="-40" y="0">二次問屋</tspan></text>
      </g>
      <g id="Group_405" data-name="Group 405" transform="translate(800 460.447)">
        <g id="Group_66-5" data-name="Group 66" transform="translate(22.708 4.553)">
          <path id="Path_22-5" data-name="Path 22" d="M-12642.582-3699.807l8.572,8.572-8.572,8.573" transform="translate(13140.302 8122.603)" fill="none" stroke="#fff" stroke-linecap="round" stroke-linejoin="round" stroke-width="2"/>
          <line id="Line_30-5" data-name="Line 30" x2="25.5" transform="translate(480.792 4431.368)" fill="none" stroke="#fff" stroke-linecap="round" stroke-width="2"/>
        </g>
        <circle id="Ellipse_8-5" data-name="Ellipse 8" cx="60" cy="60" r="60" transform="translate(360 4376.349)" fill="none"/>
        <text id="販売店" transform="translate(420 4535)" fill="#fff" font-size="20" font-family="NotoSansJP-Bold, Noto Sans JP" font-weight="700"><tspan x="-30" y="0">販売店</tspan></text>
      </g>
      <g id="Group_219" data-name="Group 219" transform="translate(-209 120.285)">
        <g id="Layer_2" data-name="Layer 2" transform="translate(609 4755.162)">
          <g id="Group_59" data-name="Group 59">
            <path id="Path_7" data-name="Path 7" d="M1,44.11H43.23V16.67L29.25,28.55V17.08L11.72,29.89,10.9,1H3.33Z" fill="none" stroke="#fff" stroke-linecap="round" stroke-linejoin="round" stroke-width="2"/>
            <line id="Line_9" data-name="Line 9" x2="3.9" transform="translate(13.12 35.37)" fill="none" stroke="#fff" stroke-linecap="round" stroke-linejoin="round" stroke-width="2"/>
            <line id="Line_10" data-name="Line 10" x2="3.91" transform="translate(22.84 35.37)" fill="none" stroke="#fff" stroke-linecap="round" stroke-linejoin="round" stroke-width="2"/>
            <line id="Line_11" data-name="Line 11" x2="3.91" transform="translate(32.57 35.37)" fill="none" stroke="#fff" stroke-linecap="round" stroke-linejoin="round" stroke-width="2"/>
          </g>
        </g>
        <g id="Layer_2-2" data-name="Layer 2" transform="translate(806.471 4755.162)">
          <g id="Group_60" data-name="Group 60">
            <path id="Path_8" data-name="Path 8" d="M4.23,43.82V1H35.25V43.82" fill="none" stroke="#fff" stroke-linecap="round" stroke-linejoin="round" stroke-width="2"/>
            <line id="Line_12" data-name="Line 12" x2="37.46" transform="translate(1 43.73)" fill="none" stroke="#fff" stroke-linecap="round" stroke-linejoin="round" stroke-width="2"/>
            <path id="Path_9" data-name="Path 9" d="M15.72,43.64V34.99h8.57v8.78" fill="none" stroke="#fff" stroke-linecap="round" stroke-linejoin="round" stroke-width="2"/>
            <line id="Line_13" data-name="Line 13" y2="4.06" transform="translate(13.98 12.1)" fill="none" stroke="#fff" stroke-linecap="round" stroke-linejoin="round" stroke-width="2"/>
            <line id="Line_14" data-name="Line 14" y2="4.06" transform="translate(19.74 12.1)" fill="none" stroke="#fff" stroke-linecap="round" stroke-linejoin="round" stroke-width="2"/>
            <line id="Line_15" data-name="Line 15" y2="4.06" transform="translate(25.51 12.1)" fill="none" stroke="#fff" stroke-linecap="round" stroke-linejoin="round" stroke-width="2"/>
            <line id="Line_16" data-name="Line 16" y2="4.06" transform="translate(13.98 20.66)" fill="none" stroke="#fff" stroke-linecap="round" stroke-linejoin="round" stroke-width="2"/>
            <line id="Line_17" data-name="Line 17" y2="4.06" transform="translate(19.74 20.66)" fill="none" stroke="#fff" stroke-linecap="round" stroke-linejoin="round" stroke-width="2"/>
            <line id="Line_18" data-name="Line 18" y2="4.06" transform="translate(25.51 20.66)" fill="none" stroke="#fff" stroke-linecap="round" stroke-linejoin="round" stroke-width="2"/>
          </g>
        </g>
        <g id="Layer_2-3" data-name="Layer 2" transform="translate(1404.442 4756.152)">
          <g id="Group_62" data-name="Group 62">
            <path id="Path_16" data-name="Path 16" d="M3.33,20.28V40.96H40.2V20.28" fill="none" stroke="#fff" stroke-linecap="round" stroke-linejoin="round" stroke-width="2"/>
            <path id="Path_17" data-name="Path 17" d="M28.73,1.82V14.99a6.9,6.9,0,0,1-6.9,6.9H21.7a6.9,6.9,0,0,1-6.9-6.9V1.52" fill="none" stroke="#fff" stroke-linecap="round" stroke-linejoin="round" stroke-width="2"/>
            <path id="Path_18" data-name="Path 18" d="M28.73,14.99a6.9,6.9,0,0,0,6.9,6.9h0a6.9,6.9,0,0,0,6.31-9.68L37,1.01H6.53L1.59,12.2A6.9,6.9,0,0,0,7.9,21.88h0a6.9,6.9,0,0,0,6.9-6.9" fill="none" stroke="#fff" stroke-linecap="round" stroke-linejoin="round" stroke-width="2"/>
            <path id="Path_19" data-name="Path 19" d="M25.89,40.6V31.73a4.464,4.464,0,0,1,4.46-4.46h0a4.464,4.464,0,0,1,4.46,4.46V40.6" fill="none" stroke="#fff" stroke-linecap="round" stroke-linejoin="round" stroke-width="2"/>
          </g>
        </g>
        <g id="Layer_2-4" data-name="Layer 2" transform="translate(1212.069 4755.162)">
          <g id="Group_63" data-name="Group 63">
            <path id="Path_20" data-name="Path 20" d="M37.39,18.65V43.64H43.6V13.67L22.3,1,1,13.67V43.64H7.2V18.65Z" fill="none" stroke="#fff" stroke-linecap="round" stroke-linejoin="round" stroke-width="2"/>
            <line id="Line_19" data-name="Line 19" x2="8.38" transform="translate(18.13 13.23)" fill="none" stroke="#fff" stroke-linecap="round" stroke-linejoin="round" stroke-width="2"/>
            <line id="Line_20" data-name="Line 20" x2="30.25" transform="translate(7.14 25.03)" fill="none" stroke="#fff" stroke-linecap="round" stroke-linejoin="round" stroke-width="2"/>
            <path id="Path_21" data-name="Path 21" d="M25.7,30.39v6.38H19.32v6.38H32.08V30.39Z" fill="none" stroke="#fff" stroke-linecap="round" stroke-linejoin="round" stroke-width="2"/>
            <line id="Line_21" data-name="Line 21" x2="6.38" transform="translate(25.7 36.77)" fill="none" stroke="#fff" stroke-linecap="round" stroke-linejoin="round" stroke-width="2"/>
            <line id="Line_22" data-name="Line 22" y2="6.38" transform="translate(25.7 36.77)" fill="none" stroke="#fff" stroke-linecap="round" stroke-linejoin="round" stroke-width="2"/>
          </g>
        </g>
        <g id="Layer_2-5" data-name="Layer 2" transform="translate(1006.7 4755.162)">
          <g id="Group_63-2" data-name="Group 63">
            <path id="Path_20-2" data-name="Path 20" d="M37.39,18.65V43.64H43.6V13.67L22.3,1,1,13.67V43.64H7.2V18.65Z" fill="none" stroke="#fff" stroke-linecap="round" stroke-linejoin="round" stroke-width="2"/>
            <line id="Line_19-2" data-name="Line 19" x2="8.38" transform="translate(18.13 13.23)" fill="none" stroke="#fff" stroke-linecap="round" stroke-linejoin="round" stroke-width="2"/>
            <line id="Line_20-2" data-name="Line 20" x2="30.25" transform="translate(7.14 25.03)" fill="none" stroke="#fff" stroke-linecap="round" stroke-linejoin="round" stroke-width="2"/>
            <path id="Path_21-2" data-name="Path 21" d="M25.7,30.39v6.38H19.32v6.38H32.08V30.39Z" fill="none" stroke="#fff" stroke-linecap="round" stroke-linejoin="round" stroke-width="2"/>
            <line id="Line_21-2" data-name="Line 21" x2="6.38" transform="translate(25.7 36.77)" fill="none" stroke="#fff" stroke-linecap="round" stroke-linejoin="round" stroke-width="2"/>
            <line id="Line_22-2" data-name="Line 22" y2="6.38" transform="translate(25.7 36.77)" fill="none" stroke="#fff" stroke-linecap="round" stroke-linejoin="round" stroke-width="2"/>
          </g>
        </g>
      </g>
    </g>
    <g id="Group_407" data-name="Group 407">
      <g id="Group_225" data-name="Group 225" transform="translate(-100 143)">
        <rect id="Rectangle_112" data-name="Rectangle 112" width="200" height="200" transform="translate(1460 4806)" fill="#4b4b4b"/>
        <path id="Path_255" data-name="Path 255" d="M-49.491-31.349v4.559h-3.525a28.325,28.325,0,0,1-4.371-.235c.141,1.551.188,2.961.188,4.794V-1.222c0,1.692-.094,3.713-.235,5.358h6.909V2.068h17.437V4.136h7.1c-.188-1.927-.282-3.948-.282-6.58V-22.231a36.283,36.283,0,0,1,.235-4.794,40.052,40.052,0,0,1-4.465.235h-3.619v-4.559h2.961c2.538,0,4.794.094,6.2.235v-7.1a53.893,53.893,0,0,1-6.486.282H-50.008c-2.209,0-4.747-.094-5.64-.188a1.608,1.608,0,0,0-.517-.094l-6.11-2.444a29.86,29.86,0,0,1-1.645,6.3,29.489,29.489,0,0,1-6.251,10.716,50.122,50.122,0,0,1,2.209,8.6c.611-.8,1.551-2.115,2.068-2.914-.047,2.773-.047,4.324-.047,4.606V-1.081a50.484,50.484,0,0,1-.282,5.358h7.238a46.188,46.188,0,0,1-.188-5.405V-27.636a57.86,57.86,0,0,0,2.961-7.285v3.807c1.5-.141,3.666-.235,6.2-.235Zm.94,10.951V-4.371h-2.3V-20.4Zm5.64,16.027V-20.4H-40.7V-4.371Zm0-22.419v-4.559H-40.7v4.559Zm7.849,22.419V-20.4h2.3V-4.371ZM-4.7-12.314V-.329a30.95,30.95,0,0,1-.235,4.606H2.4V2.209H11.7V4.23h7.426a31.882,31.882,0,0,1-.235-4.747V-12.643c.7.235.752.235,1.551.517a36.843,36.843,0,0,1,2.632-7.238,45.018,45.018,0,0,1-10.34-3.666,43.871,43.871,0,0,0,5.64-7.614A24.555,24.555,0,0,1,19.834-32.9L15.98-37.13a20.643,20.643,0,0,1-3.807.235H6.58q.775-1.9.987-2.4L.141-40.326c-.611,3.478-2.82,7.238-6.3,10.716V-32.2a11.506,11.506,0,0,1-2.4.188h-.658v-3.055A34.651,34.651,0,0,1-8.93-39.95H-16.4a34.192,34.192,0,0,1,.282,4.888v3.055h-1.5a20.984,20.984,0,0,1-3.619-.235v6.956a20.369,20.369,0,0,1,3.572-.235h1.128a32.987,32.987,0,0,1-5.828,12.878A28.67,28.67,0,0,1-19.317-5.17a23.282,23.282,0,0,0,3.384-7.191c-.047.752-.094,2.256-.141,4.559v6.11a56.53,56.53,0,0,1-.282,6.063H-8.93a55.309,55.309,0,0,1-.282-6.063V-11.28c0-1.222-.047-3.666-.141-4.747A35.684,35.684,0,0,0-7.52-12.549a21.361,21.361,0,0,1,1.034-2.679,23.465,23.465,0,0,1,.846,3.29ZM-8.46-25.521a11.119,11.119,0,0,1,2.3.188,26.892,26.892,0,0,1,2.4,2.773A30.7,30.7,0,0,0-.893-25.192a33.99,33.99,0,0,0,2.444,2.585A43.208,43.208,0,0,1-5.17-19.458a18.971,18.971,0,0,1-3.948-6.063ZM1.222-14.758A34.552,34.552,0,0,0,7.1-18.236a41.362,41.362,0,0,0,6.392,3.478Zm2.162-15.98h7.1a18.877,18.877,0,0,1-3.572,4.23A19.406,19.406,0,0,1,3.1-30.315ZM2.4-8.366H11.7v4.089H2.4ZM51.982-34.733a27.774,27.774,0,0,1,4.183,6.251l4.7-2.162A29.086,29.086,0,0,0,56.682-36.8Zm6.11-2.585a31.519,31.519,0,0,1,4.089,6.11l4.559-2.209A26.847,26.847,0,0,0,62.6-39.339ZM55.554-26.837a31.1,31.1,0,0,1,3.525,6.956A53.109,53.109,0,0,1,62.087-9.447l7.708-3.666a49.306,49.306,0,0,0-7.332-16.92ZM26.038-20.3a56.667,56.667,0,0,1,7.332-1.363C31.49-14.194,27.542-4.888,24.534-.846l7.755,4.089c.282-.705.376-.94.752-1.739a104.564,104.564,0,0,0,4.982-12.079,97.913,97.913,0,0,0,3.337-11.7,17.066,17.066,0,0,1,1.88-.094c1.645,0,2.3.188,2.82.8.611.658.893,1.786.893,3.76A41.236,41.236,0,0,1,45.684-7.379c-.517,1.5-1.128,2.115-2.115,2.115A20.289,20.289,0,0,1,37.13-6.956a22.313,22.313,0,0,1,.7,5.64,21.338,21.338,0,0,1-.141,2.726,26.534,26.534,0,0,0,7.473,1.222,8.977,8.977,0,0,0,3.666-.658A7.774,7.774,0,0,0,51.841-.8c1.88-3.29,2.961-9.353,2.961-16.685,0-5.311-.94-8.178-3.337-10.1-1.6-1.269-3.76-1.88-6.674-1.88a15.592,15.592,0,0,0-2.021.094c.188-1.128.517-2.914.893-5.076a23.333,23.333,0,0,1,.752-3.666l-8.507-.8v.8a73.574,73.574,0,0,1-1.081,9.259c-3.055.423-7.567.8-9.071.8a1.619,1.619,0,0,1-.423-.047Zm-82.72,53.221a43.432,43.432,0,0,1-5.452-.282v6.486a35.812,35.812,0,0,1,5.029-.235h33.182a36.9,36.9,0,0,1,5.123.235V32.635a33.154,33.154,0,0,1-5.17.282H-37.083v-.235A17.189,17.189,0,0,1-36.848,30h-7.9a13.539,13.539,0,0,1,.235,2.914Zm26.931,34.31V61.634a22.844,22.844,0,0,1,.141-2.82,29.775,29.775,0,0,1-3.525.141H-47.658c-1.692,0-2.679-.047-3.807-.141a21.716,21.716,0,0,1,.141,2.726v6.533a25.527,25.527,0,0,1-.188,3.76h6.862V70.047h12.408a16.235,16.235,0,0,1,.47,3.807c1.269.047,2.773.094,3.666.094,3.243,0,5.311-.329,6.439-1.081,1.363-.893,1.692-1.927,1.692-5.64V56.276A38.144,38.144,0,0,1-19.787,52a40.841,40.841,0,0,1-4.747.188h-31.49c-2.115,0-3.525-.047-5.17-.188a42.769,42.769,0,0,1,.188,4.277V68.684a43.316,43.316,0,0,1-.282,5.593h7.52A42.575,42.575,0,0,1-54,68.684v-11h27.025v9.071c0,.705-.235.893-1.081.893-.329,0-.705,0-1.692-.047Zm-14.9-3.713h8.6v1.692h-8.6ZM-55.6,47.816a22.332,22.332,0,0,1-.188,3.243c1.5-.094,2.679-.141,4.653-.141h21.479c2.068,0,3.149.047,4.606.141a20.357,20.357,0,0,1-.188-3.243V43.257a21.123,21.123,0,0,1,.188-3.243c-1.363.094-2.444.141-4.465.141H-51.042c-2.256,0-3.337-.047-4.747-.141a21.658,21.658,0,0,1,.188,3.2Zm6.909-3.2h16.45V46.5h-16.45Zm35.344-10.246a32.988,32.988,0,0,1,.188,3.337c.094,6.533.282,10.481.517,13.771.611,7.473,1.88,12.173,4.324,15.651,1.833,2.679,4.089,4.042,6.721,4.042,2.867,0,5.405-1.692,7.144-4.794A39.673,39.673,0,0,0,9.118,57.31a29.733,29.733,0,0,1-6.533-5.922A47.749,47.749,0,0,1,.141,59.519c-.47,1.222-.987,1.833-1.5,1.833-1.974,0-3.478-7.943-3.478-18.471a58.62,58.62,0,0,1,.517-8.507ZM10.2,39.356c5.828,7.379,9.071,16.638,9.588,27.166l8.413-3.1c-1.316-11.374-4.747-19.975-10.857-27.354ZM42.347,59.378a20.535,20.535,0,0,1-.094-2.068c0-.752.047-1.833.141-3.713l.94-14.9c.188-2.538.329-4.512.564-6.345H32.947c.188,1.457.423,4,.564,6.345l.94,14.9c.188,2.82.188,2.82.188,3.337a21.246,21.246,0,0,1-.094,2.444Zm.846,12.079V62.574H33.746v8.883ZM59.408,59.378a20.535,20.535,0,0,1-.094-2.068c0-.752.047-1.833.141-3.713l.94-14.9c.188-2.538.329-4.512.564-6.345H50.008c.188,1.457.423,4,.564,6.345l.94,14.9c.188,2.82.188,2.82.188,3.337a21.246,21.246,0,0,1-.094,2.444Zm.846,12.079V62.574H50.807v8.883Z" transform="translate(1560 4890)" fill="#fff"/>
      </g>
      <g id="b" transform="translate(1387.998 4798.271)">
        <g id="c" transform="translate(0.002 -0.001)">
          <g id="Group_199" data-name="Group 199">
            <path id="Path_47" data-name="Path 47" d="M156.08,117.877l1.7-4.356s-.122-3.65-.519-6.408-1.192-5.426,0-6.635a16.888,16.888,0,0,1,3.39-2.368s6.6-8.071,7.519-8.736,2.571-.827,1.525,1.16-3.666,6.075-3.666,6.075a4.619,4.619,0,0,1,3.123.608c1.4.941,2.693,2.863,3.244,3.253s.487,2.385.122,3.488a5.229,5.229,0,0,1-1.4,1.987s1.038.495-1.346,3.536-5.929,4.3-6.237,4.859-3.455,4.8-3.455,4.8l-3.983-1.265Z" transform="translate(-29.483 -16.796)" fill="#f9ddd0"/>
            <path id="Path_48" data-name="Path 48" d="M29.022,148.17c-.187.162-2.6,3.585-4.12,4.688s-1.525,1.606-3.666,2.377A36.786,36.786,0,0,1,12.248,157c-2.75.114-8.93.827-10.155.941s-3.123.665-1.4,2.1,3.058,2.433,8.192,2.433,8.436.495,9.36.495,1.1.495,1.1,1.825a5.445,5.445,0,0,1-.981,3.1c-.495.722,0,2.539,1.225,1.1a56.527,56.527,0,0,0,4.339-5.856,33.713,33.713,0,0,0,1.776-3.374c.981-2.1.065-.276.065-.276s4.25-4.558,7.057-7.592l-3.8-3.723Z" transform="translate(-0.002 -27.986)" fill="#f9ddd0"/>
            <path id="Path_49" data-name="Path 49" d="M95.106,81.606c-2.952-.8-2.506-1.971-3.09-5.378a12.413,12.413,0,0,1,0-5.288l-5.483.787L81.05,70.94a12.413,12.413,0,0,1,0,5.288c-.584,3.407-.138,4.567-3.09,5.378s-8.419,2.6-8.419,2.6l.795,10.39h32.4l.795-10.39s-5.467-1.793-8.419-2.6Z" transform="translate(-13.137 -13.399)" fill="#fadfd3"/>
            <path id="Path_50" data-name="Path 50" d="M87.774,57.191h4.21s-.341,3.05,3.593,6.27,8.079,2.952,10.439,1.168,2.044-6.805.235-9.052-6.383-4.3-6.383-4.3,9.766-6.894,11.112-19S106.77,5.491,92.26,1.152a27.331,27.331,0,0,0-24.917,5A24.9,24.9,0,0,0,57.049,22.338c-1.971,11.112-.981,11.915,2.774,19.71S81.058,57.191,81.058,57.191Z" transform="translate(-10.59 0.001)" fill="#e46666"/>
            <g id="Group_197" data-name="Group 197" transform="translate(47.538 33.739)">
              <path id="Path_51" data-name="Path 51" d="M120.568,46.644c-.771,2.19-3.05,3.731-4,3.682-1.557-.081-2.068-2.612-1.492-5s2.279-4.047,3.8-3.674c2.044.5,2.514,2.677,1.7,5Z" transform="translate(-69.232 -41.595)" fill="#f9dacd"/>
              <path id="Path_52" data-name="Path 52" d="M58.991,46.644c.771,2.19,3.05,3.731,4,3.682,1.557-.081,2.068-2.612,1.492-5s-2.279-4.047-3.8-3.674c-2.044.5-2.514,2.677-1.7,5Z" transform="translate(-58.609 -41.595)" fill="#f9dacd"/>
            </g>
            <path id="Path_53" data-name="Path 53" d="M107.807,27.282c0,17.966-10.528,32.526-22.573,32.526S62.66,45.24,62.66,27.282,72.766,5.52,85.233,5.52,107.807,9.316,107.807,27.282Z" transform="translate(-11.837 -1.042)" fill="#f9dacd"/>
            <ellipse id="Ellipse_16" data-name="Ellipse 16" cx="1.703" cy="2.174" rx="1.703" ry="2.174" transform="translate(63.793 32.778)" fill="#101010"/>
            <path id="Path_54" data-name="Path 54" d="M76.77,41.35a11.257,11.257,0,0,0,2.823,1.411" transform="translate(-14.502 -7.81)" fill="#fff" stroke="#101010" stroke-linecap="round" stroke-miterlimit="10" stroke-width="1.3"/>
            <ellipse id="Ellipse_17" data-name="Ellipse 17" cx="1.703" cy="2.174" rx="1.703" ry="2.174" transform="translate(80.064 32.778)" fill="#101010"/>
            <path id="Path_55" data-name="Path 55" d="M104.123,41.35a11.257,11.257,0,0,1-2.823,1.411" transform="translate(-19.136 -7.81)" fill="#fff" stroke="#101010" stroke-linecap="round" stroke-miterlimit="10" stroke-width="1.3"/>
            <path id="Path_56" data-name="Path 56" d="M71.25,35.727s3.09-4.21,10.082-2.685" transform="translate(-13.459 -6.178)" fill="none" stroke="#101010" stroke-linecap="round" stroke-miterlimit="10" stroke-width="1.3"/>
            <path id="Path_57" data-name="Path 57" d="M90.072,48.31s-3.269,1.833,0,3" transform="translate(-16.74 -9.124)" fill="none" stroke="#101010" stroke-linecap="round" stroke-miterlimit="10" stroke-width="1.16"/>
            <path id="Path_58" data-name="Path 58" d="M70.77,15.65s-2.6,13.708-10.3,17.115a52.744,52.744,0,0,1,0-14.511C61.637,11.359,67.1,2.307,85.914,3.021S109.882,16.55,109.3,25.594s-1.33,8.752-1.33,8.752-30.92-7.138-37.19-18.7Z" transform="translate(-11.325 -0.562)" fill="#e46666"/>
            <g id="Group_198" data-name="Group 198" transform="translate(56.394 70.811)">
              <path id="Path_59" data-name="Path 59" d="M69.53,87.3a4.214,4.214,0,0,0,1.063,2.628c-.406-1.452-.608-2.36-.608-2.36l-.446-.268Z" transform="translate(-69.529 -87.3)" fill="#f1a69a"/>
              <path id="Path_60" data-name="Path 60" d="M111.194,87.3l-.446.268s-.211.908-.608,2.36A4.215,4.215,0,0,0,111.2,87.3Z" transform="translate(-77.2 -87.3)" fill="#f1a69a"/>
              <path id="Path_61" data-name="Path 61" d="M86.778,95.163c-10.236-.105-14.324-2.587-15.938-4.623a67.463,67.463,0,0,0,5.1,13.318c2.725,5.021,7.795,6.992,10.179,7.665v.308s.243-.041.657-.138c.414.1.657.138.657.138v-.308c2.385-.673,7.454-2.644,10.179-7.665a67.462,67.462,0,0,0,5.1-13.318C101.1,92.576,97.023,95.058,86.778,95.163Z" transform="translate(-69.776 -87.912)" fill="#f1a69a"/>
            </g>
            <ellipse id="Ellipse_18" data-name="Ellipse 18" cx="3.528" cy="2.174" rx="3.528" ry="2.174" transform="translate(80.867 38.302)" fill="#f9c8c2"/>
            <ellipse id="Ellipse_19" data-name="Ellipse 19" cx="3.528" cy="2.174" rx="3.528" ry="2.174" transform="translate(57.791 38.302)" fill="#f9c8c2"/>
            <path id="Path_62" data-name="Path 62" d="M119.528,107.731s10.179,16.36,13.237,20.675a62.257,62.257,0,0,0,6.911,8.071c.86.884,1.833,1.16,3.423-.495s11.623-15.144,11.623-15.144l-6.424-3.707a52.453,52.453,0,0,0-6.546,10.885c-8.622-15.809-21.162-34.927-21.162-34.927l-1.071,14.641Z" transform="translate(-22.577 -17.583)" fill="#f9c8c2"/>
            <path id="Path_63" data-name="Path 63" d="M55.194,91.468s-2.141.552-3.545,6.132-2.45,11.331-4.218,17.35-2.75,8.176-4.834,11.437-7.827,10.666-7.827,10.666l5.378,4.81s2.936-4.2,6.3-8.29,10.366-20.659,10.366-20.659L55.194,91.46Z" transform="translate(-6.569 -17.275)" fill="#f9c8c2"/>
            <path id="Path_64" data-name="Path 64" d="M106.157,135.426c-.146-9.028,2.9-44.814,2.9-44.814s-5.645-3.342-9.239-3.642c0,0-7.057,20.116-16.466,22.606-9.4-2.49-16.466-22.606-16.466-22.606-3.593.3-9.239,3.642-9.239,3.642s3.042,35.786,2.9,44.814-7.86,30.887-7.86,30.887v.844h61.336v-.844S106.3,144.454,106.157,135.426Z" transform="translate(-9.952 -16.427)" fill="#fcfce4"/>
            <ellipse id="Ellipse_20" data-name="Ellipse 20" cx="1.687" cy="2.458" rx="1.687" ry="2.458" transform="translate(71.88 46.324)" fill="none" stroke="#101010" stroke-linecap="round" stroke-miterlimit="10" stroke-width="1.3"/>
          </g>
        </g>
      </g>
      <text id="お客様" transform="translate(1530 4943)" fill="#fff" font-size="20" font-family="NotoSansJP-Bold, Noto Sans JP" font-weight="700"><tspan x="-30" y="0">お客様</tspan></text>
    </g>
  </g>
</svg>
