<svg xmlns="http://www.w3.org/2000/svg" width="14.69" height="17.138" viewBox="0 0 14.69 17.138">
  <path id="Icon_metro-file-pdf" data-name="Icon metro-file-pdf" d="M15.468,4.858a2.225,2.225,0,0,1,.459.727,2.207,2.207,0,0,1,.191.842V17.444a.914.914,0,0,1-.918.918H2.346a.914.914,0,0,1-.918-.918V2.142a.914.914,0,0,1,.918-.918h8.569a2.208,2.208,0,0,1,.842.191,2.225,2.225,0,0,1,.727.459ZM11.221,2.525v3.6h3.6a1.045,1.045,0,0,0-.21-.392L11.613,2.735a1.045,1.045,0,0,0-.392-.21Zm3.672,14.613V7.345H10.915A.914.914,0,0,1,10,6.427V2.448H2.652v14.69H14.894ZM9.978,11.467a7.277,7.277,0,0,0,.8.536,9.49,9.49,0,0,1,1.119-.067q1.406,0,1.693.469a.462.462,0,0,1,.019.5.028.028,0,0,1-.01.019l-.019.019v.01q-.057.363-.679.363a3.945,3.945,0,0,1-1.1-.191,6.974,6.974,0,0,1-1.243-.507,17.221,17.221,0,0,0-3.749.794Q5.349,15.914,4.5,15.914a.556.556,0,0,1-.268-.067L4,15.732q-.01-.01-.057-.048a.4.4,0,0,1-.057-.344,2.077,2.077,0,0,1,.536-.875,4.622,4.622,0,0,1,1.262-.923.14.14,0,0,1,.22.057.055.055,0,0,1,.019.038q.5-.813,1.023-1.884a14.6,14.6,0,0,0,.995-2.506,7.731,7.731,0,0,1-.292-1.525A3.719,3.719,0,0,1,7.711,6.5q.105-.383.4-.383h.21a.4.4,0,0,1,.335.143.764.764,0,0,1,.086.65.207.207,0,0,1-.038.077.249.249,0,0,1,.01.077v.287a12.524,12.524,0,0,1-.134,1.836,4.838,4.838,0,0,0,1.4,2.276ZM4.469,15.4a4.223,4.223,0,0,0,1.31-1.511,5.452,5.452,0,0,0-.837.8A3.179,3.179,0,0,0,4.469,15.4ZM8.276,6.6a2.844,2.844,0,0,0-.019,1.262q.01-.067.067-.421,0-.029.067-.411a.215.215,0,0,1,.038-.077.028.028,0,0,1-.01-.019.019.019,0,0,0,0-.014.019.019,0,0,1,0-.014.55.55,0,0,0-.124-.344.028.028,0,0,1-.01.019V6.6ZM7.09,12.921a14.028,14.028,0,0,1,2.716-.775,1.442,1.442,0,0,1-.124-.091,1.713,1.713,0,0,1-.153-.129,5.066,5.066,0,0,1-1.215-1.683,12.78,12.78,0,0,1-.794,1.884q-.287.536-.43.794Zm6.178-.153a2.289,2.289,0,0,0-1.339-.23,3.617,3.617,0,0,0,1.186.268.928.928,0,0,0,.172-.01q0-.01-.019-.029Z" transform="translate(-1.428 -1.224)" fill="#303030"/>
</svg>
