<svg id="Group_12" data-name="Group 12" xmlns="http://www.w3.org/2000/svg" width="161.491" height="54.154" viewBox="0 0 161.491 54.154">
  <g id="Group_10" data-name="Group 10" transform="translate(0 14.638)">
    <path id="Path_4" data-name="Path 4" d="M18.865,59.189c.087.778.239,1.99,1.169,2.293a4.356,4.356,0,0,0,1.34.194c.107,0,.239.023.239.129,0,.129-.065.174-.323.174-.475,0-2.942-.065-3.743-.129-.5-.042-.607-.11-.607-.216,0-.087.042-.11.152-.152.152-.065.129-.391.087-.778l-1.04-11.295L10.775,60.788c-.455.953-.52,1.147-.714,1.147-.152,0-.258-.216-.672-.995-.562-1.059-2.422-4.8-2.532-5.019-.194-.391-2.684-5.733-2.92-6.318l-.888,10.19c-.023.346-.042.649-.042,1.017,0,.543.258.714.585.778a3.227,3.227,0,0,0,.778.087c.129,0,.216.042.216.11,0,.152-.107.194-.323.194-.8,0-1.9-.065-2.077-.065-.194,0-1.234.065-1.818.065C.152,61.979,0,61.957,0,61.8c0-.087.107-.129.216-.129a2.8,2.8,0,0,0,.649-.065c.714-.129.756-.908.866-1.8L3.288,45.753c.023-.239.107-.433.239-.433s.216.087.323.323l6.621,13.61,6.36-13.588c.087-.194.174-.346.323-.346s.216.174.258.585l1.45,13.284Z" transform="translate(0 -45.32)" fill="#fff"/>
    <path id="Path_5" data-name="Path 5" d="M70.273,55.6a.228.228,0,0,0-.216.174l-1.3,3.831a4.586,4.586,0,0,0-.3,1.45c0,.433.41.627.778.627h.194c.216,0,.281.042.281.129,0,.129-.194.174-.391.174-.52,0-1.386-.065-1.621-.065s-1.428.065-2.445.065c-.281,0-.41-.042-.41-.174,0-.087.107-.129.3-.129a5.182,5.182,0,0,0,.52-.042c.995-.129,1.428-.953,1.818-2.035l4.913-13.436c.258-.714.346-.843.475-.843s.216.107.475.778c.323.824,3.721,9.757,5.042,13.045.778,1.925,1.4,2.271,1.86,2.4a2.79,2.79,0,0,0,.843.129c.129,0,.239.023.239.129,0,.129-.194.174-.433.174-.323,0-1.9,0-3.4-.042-.41-.023-.649-.023-.649-.152,0-.087.065-.129.152-.152.129-.042.258-.239.129-.585l-2.012-5.323a.187.187,0,0,0-.194-.129H70.273Zm4.37-.778c.107,0,.107-.065.087-.152l-2.054-5.843c-.107-.326-.216-.326-.323,0l-1.906,5.843c-.042.11,0,.152.065.152Z" transform="translate(-43.898 -45.327)" fill="#fff"/>
    <path id="Path_6" data-name="Path 6" d="M121.183,52.536c0-3.375,0-3.982-.042-4.674-.042-.736-.216-1.082-.93-1.234a4.165,4.165,0,0,0-.736-.065c-.087,0-.174-.042-.174-.129,0-.129.107-.174.346-.174.972,0,2.335.065,2.445.065.239,0,1.883-.065,2.552-.065a6.654,6.654,0,0,1,3.96.953,3.794,3.794,0,0,1,1.492,2.942c0,1.6-.672,3.2-2.619,5,1.773,2.271,3.246,4.2,4.5,5.539a4.477,4.477,0,0,0,2.639,1.557,5.2,5.2,0,0,0,.843.065c.107,0,.194.065.194.129,0,.129-.129.174-.52.174h-1.537a4.4,4.4,0,0,1-2.316-.41c-.93-.5-1.689-1.557-2.92-3.181-.908-1.189-1.925-2.639-2.358-3.2a.348.348,0,0,0-.281-.129l-2.661-.042c-.107,0-.152.065-.152.174v.52c0,2.077,0,3.785.107,4.7.065.627.194,1.1.843,1.189.3.042.778.087.972.087.129,0,.174.065.174.129,0,.11-.107.174-.346.174-1.189,0-2.552-.065-2.661-.065-.023,0-1.386.065-2.035.065-.239,0-.346-.042-.346-.174,0-.065.042-.129.174-.129a3.2,3.2,0,0,0,.649-.087c.433-.087.539-.562.627-1.189.107-.908.107-2.619.107-4.7V52.539Zm1.731,1.883a.279.279,0,0,0,.152.258,5.98,5.98,0,0,0,2.271.346,2.8,2.8,0,0,0,1.621-.41,3.958,3.958,0,0,0,1.321-3.333c0-2.7-1.428-4.328-3.743-4.328a6.568,6.568,0,0,0-1.45.129.262.262,0,0,0-.174.258v7.077Z" transform="translate(-80.768 -45.956)" fill="#fff"/>
    <path id="Path_7" data-name="Path 7" d="M171.9,52.536c0-3.375,0-3.982-.042-4.674-.042-.736-.258-1.1-.736-1.211a2.874,2.874,0,0,0-.672-.087c-.087,0-.174-.042-.174-.129,0-.129.107-.174.346-.174.714,0,2.077.065,2.187.065s1.473-.065,2.119-.065c.239,0,.346.042.346.174,0,.087-.087.129-.174.129a3.317,3.317,0,0,0-.539.065c-.585.11-.756.475-.8,1.234-.042.691-.042,1.3-.042,4.674v3.808c0,2.077,0,3.785.107,4.7.065.627.194,1.1.843,1.189.3.042.756.087.888.087.194,0,.258.065.258.129,0,.11-.087.174-.323.174-1.189,0-2.574-.065-2.684-.065s-1.47.065-2.119.065c-.239,0-.346-.042-.346-.174,0-.065.042-.129.239-.129a3.087,3.087,0,0,0,.562-.065c.433-.087.562-.585.649-1.211.107-.908.107-2.619.107-4.7V52.536Z" transform="translate(-115.283 -45.956)" fill="#fff"/>
    <path id="Path_8" data-name="Path 8" d="M193.312,55.6c0-7.81.042-5,.023-9.2,0-.843.065-1.082.239-1.082s.539.475.756.691c.323.368,3.55,3.85,6.88,7.422,2.141,2.293,4.5,4.932,5.194,5.646l-.239-10.991c-.023-1.4-.174-1.883-.843-2.054a4.492,4.492,0,0,0-.93-.11c-.239,0-.3-.065-.3-.152,0-.129.174-.152.433-.152.972,0,2.012.065,2.251.065s.953-.065,1.838-.065c.239,0,.391.023.391.152,0,.087-.087.129-.239.152-.174.023-.3.042-.562.087-.607.129-.756.455-.756,1.948L207.4,60.594c0,1.428-.042,1.537-.194,1.537-.174,0-.433-.239-1.579-1.386-.239-.216-3.353-3.4-5.646-5.862-2.51-2.7-4.955-5.429-5.646-6.208l.281,10.364c.042,1.773.258,2.335.843,2.51a4.647,4.647,0,0,0,1.082.129c.107,0,.174.042.174.129,0,.129-.129.174-.391.174-1.234,0-2.1-.065-2.293-.065s-1.1.065-2.077.065c-.216,0-.346-.023-.346-.174,0-.087.065-.129.174-.129a3.166,3.166,0,0,0,.888-.129c.539-.152.649-.778.649-2.749V55.6Z" transform="translate(-129.724 -45.32)" fill="#fff"/>
    <path id="Path_9" data-name="Path 9" d="M252.89,52.17c0-3.375,0-3.982-.042-4.674-.042-.736-.216-1.082-.93-1.234a5.6,5.6,0,0,0-.627-.065c-.152-.023-.281-.042-.281-.129,0-.129.107-.174.346-.174.5,0,1.082,0,2.445.065.152,0,4.457,0,4.955-.023a3.664,3.664,0,0,0,.995-.129.535.535,0,0,1,.239-.087c.065,0,.087.087.087.194a9.773,9.773,0,0,0-.174,1.017c-.023.326-.042.736-.087,1.3-.023.216-.087.368-.174.368-.129,0-.174-.107-.174-.281a2.175,2.175,0,0,0-.107-.714c-.152-.5-.607-.714-1.557-.8-.368-.042-2.726-.065-2.965-.065-.087,0-.129.065-.129.216v5.972c0,.152.023.216.129.216.281,0,2.942,0,3.44-.042.585-.042.866-.11,1.082-.368.107-.129.174-.216.258-.216.065,0,.107.042.107.174s-.107.5-.174,1.211c-.065.672-.065,1.169-.087,1.473-.023.216-.065.323-.152.323-.129,0-.152-.174-.152-.346a1.988,1.988,0,0,0-.087-.607c-.087-.323-.346-.627-1.124-.714-.585-.065-2.726-.11-3.094-.11a.138.138,0,0,0-.152.152v1.906c0,.736-.023,3.246,0,3.7.042.888.174,1.363.714,1.579a5.235,5.235,0,0,0,1.8.194,7.256,7.256,0,0,0,1.948-.194c.691-.216.93-.672,1.1-1.6.042-.239.087-.326.194-.326.129,0,.129.174.129.326,0,.174-.174,1.644-.281,2.1-.152.562-.323.562-1.169.562-1.6,0-2.316-.042-3.159-.065-.866-.023-1.86-.065-2.7-.065-.52,0-1.04.087-1.6.065-.239,0-.346-.042-.346-.174,0-.065.107-.107.239-.129a3.025,3.025,0,0,0,.5-.065c.455-.107.736-.41.778-2.035.023-.843.042-1.948.042-3.873V52.167Z" transform="translate(-169.938 -45.591)" fill="#fff"/>
    <path id="Path_10" data-name="Path 10" d="M293.7,55.707c0,2.077,0,3.785.107,4.7.065.627.194,1.1.843,1.189.3.042.778.087.972.087.129,0,.174.065.174.129,0,.11-.107.174-.346.174-1.189,0-2.552-.065-2.661-.065s-1.473.065-2.119.065c-.239,0-.346-.042-.346-.174,0-.065.042-.129.174-.129a3.2,3.2,0,0,0,.649-.087c.433-.087.539-.562.627-1.189.107-.908.107-2.619.107-4.7V46.554c-1.059.023-2.141.023-3.2.042-1.34.023-1.86.174-2.206.691a3.721,3.721,0,0,0-.368.672c-.065.174-.129.216-.216.216-.065,0-.107-.065-.107-.194,0-.216.433-2.077.475-2.251.042-.129.129-.41.216-.41a4.009,4.009,0,0,0,.953.258c.627.065,1.45.11,1.709.11h8.113a8.391,8.391,0,0,0,1.537-.11c.323-.042.52-.107.607-.107.107,0,.107.129.107.258,0,.649-.065,2.141-.065,2.38,0,.194-.065.281-.152.281-.107,0-.152-.065-.174-.368,0-.087-.023-.152-.023-.239-.065-.649-.585-1.147-2.661-1.189-.908-.023-1.818-.023-2.726-.042v9.153Z" transform="translate(-193.478 -45.32)" fill="#fff"/>
    <path id="Path_11" data-name="Path 11" d="M334.34,53.789a8.374,8.374,0,0,1,8.523-8.459c4.867,0,8.5,3.072,8.5,8.113s-3.417,8.85-8.633,8.85C336.8,62.293,334.34,57.684,334.34,53.789Zm14.951.258c0-5.194-3.159-7.984-6.576-7.984-3.614,0-6.318,2.38-6.318,7.119,0,5.042,3.03,8.288,6.925,8.288,1.948,0,5.972-1.124,5.972-7.422Z" transform="translate(-226.354 -45.327)" fill="#fff"/>
    <path id="Path_12" data-name="Path 12" d="M393.623,52.536c0-3.375,0-3.982-.042-4.674-.042-.736-.216-1.082-.93-1.234a4.166,4.166,0,0,0-.736-.065c-.087,0-.174-.042-.174-.129,0-.129.107-.174.346-.174.972,0,2.271.065,2.445.065.475,0,1.731-.065,2.726-.065,2.7,0,3.679.908,4.024,1.234a3.952,3.952,0,0,1,1.082,2.836c0,2.813-2.251,4.89-5.323,4.89a3.1,3.1,0,0,1-.455-.023c-.107,0-.239-.042-.239-.152,0-.174.129-.194.585-.194a3.566,3.566,0,0,0,3.743-3.7,4.467,4.467,0,0,0-1.211-3.159,3.756,3.756,0,0,0-2.965-1.082,2.641,2.641,0,0,0-.93.129c-.129.042-.174.194-.174.41V56.34c0,2.077,0,3.785.107,4.7.065.627.194,1.1.843,1.189.3.042.778.087.972.087.129,0,.174.065.174.129,0,.11-.107.174-.346.174-1.189,0-2.552-.065-2.661-.065-.065,0-1.428.065-2.077.065-.239,0-.346-.042-.346-.174,0-.065.042-.129.174-.129a3.2,3.2,0,0,0,.649-.087c.433-.087.543-.562.627-1.189.107-.908.107-2.619.107-4.7V52.532Z" transform="translate(-265.215 -45.956)" fill="#fff"/>
    <path id="Path_13" data-name="Path 13" d="M430.145,52.536c0-3.375,0-3.982-.042-4.674-.042-.736-.258-1.1-.736-1.211a2.874,2.874,0,0,0-.672-.087c-.087,0-.174-.042-.174-.129,0-.129.107-.174.346-.174.714,0,2.077.065,2.187.065s1.473-.065,2.119-.065c.239,0,.346.042.346.174,0,.087-.087.129-.174.129a3.316,3.316,0,0,0-.539.065c-.585.11-.756.475-.8,1.234-.042.691-.042,1.3-.042,4.674v3.808c0,2.077,0,3.785.107,4.7.065.627.194,1.1.843,1.189.3.042.756.087.888.087.194,0,.258.065.258.129,0,.11-.087.174-.323.174-1.189,0-2.574-.065-2.684-.065s-1.47.065-2.119.065c-.239,0-.346-.042-.346-.174,0-.065.042-.129.239-.129a3.087,3.087,0,0,0,.562-.065c.433-.087.562-.585.649-1.211.107-.908.107-2.619.107-4.7V52.536Z" transform="translate(-290.116 -45.956)" fill="#fff"/>
    <path id="Path_14" data-name="Path 14" d="M454.383,55.6a.228.228,0,0,0-.216.174l-1.3,3.831a4.585,4.585,0,0,0-.3,1.45c0,.433.41.627.778.627h.194c.216,0,.281.042.281.129,0,.129-.194.174-.391.174-.52,0-1.386-.065-1.621-.065s-1.428.065-2.445.065c-.281,0-.41-.042-.41-.174,0-.087.107-.129.3-.129a5.182,5.182,0,0,0,.52-.042c.995-.129,1.428-.953,1.818-2.035L456.5,46.173c.258-.714.346-.843.475-.843s.216.107.475.778c.323.824,3.721,9.757,5.042,13.045.778,1.925,1.4,2.271,1.86,2.4a2.79,2.79,0,0,0,.843.129c.129,0,.239.023.239.129,0,.129-.194.174-.433.174-.323,0-1.9,0-3.4-.042-.41-.023-.649-.023-.649-.152,0-.087.065-.129.152-.152.129-.042.258-.239.129-.585l-2.012-5.323a.187.187,0,0,0-.194-.129h-4.651Zm4.37-.778c.107,0,.107-.065.087-.152l-2.054-5.843c-.107-.326-.216-.326-.323,0l-1.906,5.843c-.042.11,0,.152.065.152Z" transform="translate(-303.947 -45.327)" fill="#fff"/>
    <path id="Path_15" data-name="Path 15" d="M112.143,122.356c0-3.375,0-3.982-.042-4.674-.042-.736-.216-1.082-.93-1.234a4.165,4.165,0,0,0-.736-.065c-.087,0-.174-.042-.174-.129,0-.129.107-.174.346-.174.972,0,2.335.065,2.445.065.239,0,1.883-.065,2.552-.065a6.654,6.654,0,0,1,3.96.953,3.794,3.794,0,0,1,1.492,2.942c0,1.6-.672,3.2-2.619,5,1.773,2.271,3.246,4.2,4.5,5.539a4.477,4.477,0,0,0,2.639,1.557,5.2,5.2,0,0,0,.843.065c.107,0,.194.065.194.129,0,.129-.129.174-.52.174h-1.537a4.4,4.4,0,0,1-2.316-.41c-.93-.5-1.689-1.557-2.92-3.181-.908-1.189-1.925-2.639-2.358-3.2a.348.348,0,0,0-.281-.129l-2.661-.042c-.107,0-.152.065-.152.174v.52c0,2.077,0,3.785.107,4.7.065.627.194,1.1.843,1.189.3.042.778.087.972.087.129,0,.174.065.174.129,0,.11-.107.174-.346.174-1.189,0-2.552-.065-2.661-.065-.023,0-1.386.065-2.035.065-.239,0-.346-.042-.346-.174,0-.065.042-.129.174-.129a3.2,3.2,0,0,0,.649-.087c.433-.087.539-.562.627-1.189.107-.908.107-2.619.107-4.7v-3.808Zm1.731,1.883a.279.279,0,0,0,.152.258,5.98,5.98,0,0,0,2.271.346,2.8,2.8,0,0,0,1.621-.41,3.958,3.958,0,0,0,1.321-3.333c0-2.7-1.428-4.328-3.743-4.328a6.567,6.567,0,0,0-1.45.129.262.262,0,0,0-.174.258v7.077Z" transform="translate(-74.648 -93.226)" fill="#fff"/>
    <path id="Path_16" data-name="Path 16" d="M162.32,121.99c0-3.375,0-3.982-.042-4.674-.042-.736-.216-1.082-.93-1.234a5.6,5.6,0,0,0-.627-.065c-.152-.023-.281-.042-.281-.129,0-.129.107-.174.346-.174.5,0,1.082,0,2.445.065.152,0,4.457,0,4.955-.023a3.665,3.665,0,0,0,.995-.129.535.535,0,0,1,.239-.087c.065,0,.087.087.087.194a9.769,9.769,0,0,0-.174,1.017c-.023.326-.042.736-.087,1.3-.023.216-.087.368-.174.368-.129,0-.174-.107-.174-.281a2.174,2.174,0,0,0-.107-.714c-.152-.5-.607-.714-1.557-.8-.368-.042-2.726-.065-2.965-.065-.087,0-.129.065-.129.216v5.972c0,.152.023.216.129.216.281,0,2.942,0,3.44-.042.585-.042.866-.11,1.082-.368.107-.129.174-.216.258-.216.065,0,.107.042.107.174s-.107.5-.174,1.211c-.065.672-.065,1.169-.087,1.473-.023.216-.065.323-.152.323-.129,0-.152-.174-.152-.346a1.988,1.988,0,0,0-.087-.607c-.087-.323-.346-.627-1.124-.714-.585-.065-2.726-.11-3.094-.11a.138.138,0,0,0-.152.152V125.8c0,.736-.023,3.246,0,3.7.042.888.174,1.363.714,1.579a5.235,5.235,0,0,0,1.8.194,7.256,7.256,0,0,0,1.948-.194c.691-.216.93-.672,1.1-1.6.042-.239.087-.326.194-.326.129,0,.129.174.129.326,0,.174-.174,1.644-.281,2.1-.152.562-.323.562-1.169.562-1.6,0-2.316-.042-3.159-.065-.866-.023-1.86-.065-2.7-.065-.52,0-1.04.087-1.6.065-.239,0-.346-.042-.346-.174,0-.065.107-.107.239-.129a3.027,3.027,0,0,0,.5-.065c.455-.107.736-.41.778-2.035.023-.843.042-1.948.042-3.873v-3.808Z" transform="translate(-108.621 -92.86)" fill="#fff"/>
    <path id="Path_17" data-name="Path 17" d="M201.823,131.512c-.3-.152-.323-.239-.323-.824,0-1.082.087-1.948.107-2.293.023-.239.065-.346.174-.346.129,0,.152.065.152.239a3.841,3.841,0,0,0,.065.8c.323,1.6,1.754,2.206,3.2,2.206a2.888,2.888,0,0,0,3.094-2.878c0-1.492-.627-2.358-2.487-3.9l-.972-.8c-2.293-1.883-2.813-3.223-2.813-4.7,0-2.316,1.731-3.9,4.48-3.9a8.419,8.419,0,0,1,2.012.216,3.458,3.458,0,0,0,.756.107c.171,0,.216.042.216.152s-.087.824-.087,2.293c0,.346-.042.5-.152.5-.129,0-.152-.11-.174-.281a3.876,3.876,0,0,0-.281-1.082c-.129-.239-.714-1.147-2.7-1.147a2.46,2.46,0,0,0-2.661,2.51c0,1.234.562,2.012,2.639,3.634l.607.475c2.552,2.012,3.159,3.353,3.159,5.084a4.481,4.481,0,0,1-1.838,3.592,5.692,5.692,0,0,1-3.269.908,6.571,6.571,0,0,1-2.9-.585Z" transform="translate(-136.419 -92.583)" fill="#fff"/>
    <path id="Path_18" data-name="Path 18" d="M237,123.609a8.374,8.374,0,0,1,8.523-8.459c4.867,0,8.5,3.072,8.5,8.113s-3.417,8.85-8.633,8.85c-5.93,0-8.394-4.609-8.394-8.5Zm14.951.258c0-5.194-3.159-7.984-6.576-7.984-3.614,0-6.318,2.38-6.318,7.119,0,5.042,3.03,8.288,6.925,8.288,1.948,0,5.972-1.124,5.972-7.422Z" transform="translate(-160.453 -92.596)" fill="#fff"/>
    <path id="Path_19" data-name="Path 19" d="M301.653,122.356c0-3.375,0-3.982-.042-4.674-.042-.736-.216-1.082-.93-1.234a4.166,4.166,0,0,0-.736-.065c-.087,0-.174-.042-.174-.129,0-.129.107-.174.346-.174.972,0,2.335.065,2.445.065.239,0,1.883-.065,2.552-.065a6.654,6.654,0,0,1,3.96.953,3.794,3.794,0,0,1,1.492,2.942c0,1.6-.672,3.2-2.619,5,1.773,2.271,3.246,4.2,4.5,5.539a4.477,4.477,0,0,0,2.639,1.557,5.2,5.2,0,0,0,.843.065c.107,0,.194.065.194.129,0,.129-.129.174-.52.174h-1.537a4.4,4.4,0,0,1-2.316-.41c-.93-.5-1.689-1.557-2.92-3.181-.908-1.189-1.925-2.639-2.358-3.2a.348.348,0,0,0-.281-.129l-2.661-.042c-.107,0-.152.065-.152.174v.52c0,2.077,0,3.785.107,4.7.065.627.194,1.1.843,1.189.3.042.778.087.972.087.129,0,.174.065.174.129,0,.11-.107.174-.346.174-1.189,0-2.552-.065-2.661-.065-.023,0-1.386.065-2.035.065-.239,0-.346-.042-.346-.174,0-.065.042-.129.174-.129a3.2,3.2,0,0,0,.649-.087c.433-.087.539-.562.627-1.189.107-.908.107-2.619.107-4.7v-3.808Zm1.731,1.883a.279.279,0,0,0,.152.258,5.98,5.98,0,0,0,2.271.346,2.8,2.8,0,0,0,1.621-.41,3.958,3.958,0,0,0,1.321-3.333c0-2.7-1.428-4.328-3.743-4.328a6.567,6.567,0,0,0-1.45.129.262.262,0,0,0-.174.258v7.077Z" transform="translate(-202.95 -93.226)" fill="#fff"/>
    <path id="Path_20" data-name="Path 20" d="M353.446,125.527c0,2.077,0,3.785.107,4.7.065.627.194,1.1.843,1.189.3.042.778.087.972.087.129,0,.174.065.174.129,0,.11-.107.174-.346.174-1.189,0-2.552-.065-2.661-.065s-1.473.065-2.119.065c-.239,0-.346-.042-.346-.174,0-.065.042-.129.174-.129a3.2,3.2,0,0,0,.649-.087c.433-.087.539-.562.627-1.189.107-.908.107-2.619.107-4.7v-9.153c-1.059.023-2.141.023-3.2.042-1.34.023-1.86.174-2.206.691a3.722,3.722,0,0,0-.368.672c-.065.174-.129.216-.216.216-.065,0-.107-.065-.107-.194,0-.216.433-2.077.475-2.251.042-.129.129-.41.216-.41a4.008,4.008,0,0,0,.953.258c.627.065,1.45.11,1.709.11H357a8.39,8.39,0,0,0,1.537-.11c.323-.042.52-.107.607-.107.107,0,.107.129.107.258,0,.649-.065,2.141-.065,2.38,0,.194-.065.281-.152.281-.107,0-.152-.065-.174-.368,0-.087-.023-.152-.023-.239-.065-.649-.585-1.147-2.661-1.189-.908-.023-1.818-.023-2.726-.042v9.153Z" transform="translate(-233.93 -92.589)" fill="#fff"/>
  </g>
  <g id="Group_11" data-name="Group 11" transform="translate(50.979)">
    <path id="Path_21" data-name="Path 21" d="M319.886,0l.882,2.7h2.768L321.3,4.373l.859,2.652L319.89,5.384l-2.274,1.641.856-2.652L316.24,2.7h2.774l.879-2.7Z" transform="translate(-265.08)" fill="#fff"/>
    <path id="Path_22" data-name="Path 22" d="M280.286,0l.882,2.7h2.768L281.7,4.373l.859,2.652L280.29,5.384l-2.274,1.641.856-2.652L276.64,2.7h2.774l.879-2.7Z" transform="translate(-238.27)" fill="#fff"/>
    <path id="Path_23" data-name="Path 23" d="M240.686,0l.882,2.7h2.768L242.1,4.373l.859,2.652L240.69,5.384l-2.274,1.641.856-2.652L237.04,2.7h2.774l.879-2.7Z" transform="translate(-211.46)" fill="#fff"/>
    <path id="Path_24" data-name="Path 24" d="M201.086,0l.882,2.7h2.768L202.5,4.373l.859,2.652L201.09,5.384l-2.274,1.641.856-2.652L197.44,2.7h2.774l.879-2.7Z" transform="translate(-184.65)" fill="#fff"/>
    <path id="Path_25" data-name="Path 25" d="M161.486,0l.882,2.7h2.768L162.9,4.373l.859,2.652L161.49,5.384l-2.274,1.641.856-2.652L157.84,2.7h2.774l.879-2.7Z" transform="translate(-157.84)" fill="#fff"/>
  </g>
</svg>
