<svg id="レイヤー_3" data-name="レイヤー 3" xmlns="http://www.w3.org/2000/svg" width="233.63" height="67.3" viewBox="0 0 233.63 67.3">
  <g id="Group_486" data-name="Group 486">
    <g id="Group_484" data-name="Group 484">
      <g id="Group_482" data-name="Group 482">
        <g id="Group_481" data-name="Group 481">
          <path id="Path_250" data-name="Path 250" d="M6.16,32.64H46L34.62,58.3H22.17l8.82-19.87H5.13l1.03-5.78Z" fill="#00aeef"/>
          <path id="Path_251" data-name="Path 251" d="M91.53,48.36l1.03-5.78h26.78l-1.03,5.78Z" fill="#00aeef"/>
          <path id="Path_252" data-name="Path 252" d="M63.34,32.64H50.95L48.06,48.92H60.47Z" fill="#00aeef"/>
          <path id="Path_253" data-name="Path 253" d="M78.47,32.64,67.05,58.29h12.5L90.93,32.64Z" fill="#00aeef"/>
        </g>
        <path id="Path_254" data-name="Path 254" d="M143.54,28.96A18.039,18.039,0,0,0,126.45,43.3l-3.41,19.82H.74L0,67.3H212.27a18.039,18.039,0,0,0,17.09-14.34l4.27-24H143.54Z" fill="#00aeef"/>
      </g>
      <g id="Group_483" data-name="Group 483">
        <path id="Path_255" data-name="Path 255" d="M52.49,13.94a40.743,40.743,0,0,0,2.59-5.82l1.85,1.34c.11.09.16.16.16.26a1.209,1.209,0,0,1-.03.14,37.979,37.979,0,0,1-2.29,5.38l-.18.09-2.05-1.22-.05-.18Zm2.98-8.81-.19.02A18.891,18.891,0,0,0,52.84,3l-.02-.16L54.44,1.3h.21a17.929,17.929,0,0,1,2.51,1.99l-.02.18L55.46,5.13Zm4.15,1.5c-.56.44-1.16.86-1.8,1.27a.692.692,0,0,1-.3.11.191.191,0,0,1-.14-.07L55.74,6.17A13.156,13.156,0,0,0,61.6.15L61.79.1l2.33.62.05.18c-.09.19-.18.37-.28.56a15.516,15.516,0,0,0,5.89,3.88L68.32,7.46c-.07.11-.12.14-.19.14a.609.609,0,0,1-.23-.07,15.512,15.512,0,0,1-2.15-1.25V7.62l-.12.12-2.14-.05H61.88l-2.14.05-.12-.12V6.63Zm3.39,6.18.09,4.2H60.43l.09-4.2V10.73h-.46l-2.31.05-.12-.12V8.77l.12-.12,2.31.05h5.31l2.35-.04.12.12-.04,1.57v1.43l.05,1.85c0,1.32-.76,1.96-3.18,1.96-.23,0-.28-.02-.32-.16L63.7,13.3a13.15,13.15,0,0,0,1.32-.04c.21-.02.28-.05.28-.46V10.72H62.99V12.8ZM61.88,5.72h1.61l1.43-.03a13.831,13.831,0,0,1-2.24-2.22,13.79,13.79,0,0,1-1.96,2.22l1.16.03Z" fill="#231f20"/>
        <path id="Path_256" data-name="Path 256" d="M70.54,13.41a40.743,40.743,0,0,0,2.59-5.82l1.78,1.32c.11.09.16.16.16.26a1.208,1.208,0,0,1-.03.14,37.979,37.979,0,0,1-2.29,5.38l-.12.11-2.01-1.18-.07-.21ZM72.9,4.92l-.19.02a13.5,13.5,0,0,0-2.05-2.08l-.02-.16,1.75-1.39h.21a21.866,21.866,0,0,1,2.12,1.92l-.02.18L72.9,4.93Zm9.32,12.11H79.59l.14-3.83a17.914,17.914,0,0,1-4.59,3.44.549.549,0,0,1-.18.05c-.09,0-.14-.05-.21-.14L73.37,14.8a16.477,16.477,0,0,0,5.05-3.32h-.19l-2.29.05-.12-.12.05-2.47V6.56l-.05-1.92.12-.11,2.36.05h1.38V3.87H77.72L75,3.92l-.12-.12V1.88l.16-.09,2.68.05h1.96V.19l.09-.11h2.28l.11.11V1.85h2.63l2.72-.05.11.12V3.81l-.11.12-2.72-.05H82.16v.71h1.76l2.26-.05.12.14-.05,1.98V8.87l.05,2.56-.14.12-2.08-.05H83.2a15.087,15.087,0,0,0,4.64,3.12l-1.48,1.96a.266.266,0,0,1-.23.12.4.4,0,0,1-.25-.09,14.959,14.959,0,0,1-3.79-3.46l.14,3.88ZM79.75,6.37H78.14V7.2h1.61ZM78.14,8.84V9.7h1.61V8.84ZM83.86,7.2V6.37H82.08V7.2ZM82.08,9.71h1.78V8.85H82.08Z" fill="#231f20"/>
        <path id="Path_257" data-name="Path 257" d="M93.12,15.92v.95H90.51l.09-6.51V5.51l-.05-2.98.14-.11,2.97.05H95c.41-.81.71-1.55,1.04-2.38L96.2,0l2.45.46.11.16c-.34.65-.67,1.27-1.01,1.85h3l2.97-.05.14.11-.05,2.98V10.1l.09,6.78h-2.7v-.95H93.13Zm8.07-11.3H93.12V6.26h8.07Zm0,3.65H93.12V9.95h8.07Zm0,3.69H93.12v1.77h8.07Z" fill="#231f20"/>
        <path id="Path_258" data-name="Path 258" d="M114.07,3.12l2.31-.05.12.12v.72l1.16.02V.26l.12-.12h2.12l.12.12V1.9c0,.71,0,1.39-.02,2.06h.46l2.63-.05.12.12c-.03,3.92-.03,7.45-.23,9.62-.21,2.29-.64,3.25-3.32,3.25a.47.47,0,0,1-.51-.34l-.81-1.82a10,10,0,0,1-1.61,2.19c-.09.09-.14.12-.21.12s-.14-.05-.23-.14l-1.31-1.24c-2.29.33-4.34.53-7.27.78l-.16-.03-.79-1.92.12-.12c1.34-.03,2.59-.09,3.79-.16v-.78h-.97l-2.31.05-.12-.12V11.82l.12-.12,2.31.05h.97v-.62h-.26l-2.63.05-.12-.12L107.71,9V7.02l-.05-1.55.12-.12,2.63.05h.26V4.82h-1.32l-2.22.05-.12-.12V3.2l.12-.12,2.22.05h1.32V2.55c-.79.05-1.59.07-2.4.09a.37.37,0,0,1-.34-.21L107.12.95a39.316,39.316,0,0,0,7.27-.58l.18.03a13.978,13.978,0,0,1,1.59,1.38l-.02.18c-1.09.19-2.15.33-3.21.44v.74h1.11Zm-3.34,3.74h-.9v.72h.9Zm-.9,2.06v.74h.9V8.92Zm4.01-1.34V6.86h-.92v.72Zm-.92,2.08h.92V8.92h-.92Zm.03-4.27h.32l2.63-.05.12.12-.05,1.64V8.9l.05,2.15-.12.12-2.63-.05h-.32v.62h.67l2.31-.05.12.12v1.55l-.12.12-2.31-.05h-.67v.62c.99-.09,1.98-.18,3-.3l-.05.55a8.812,8.812,0,0,0,1.47-4.25,32.844,32.844,0,0,0,.26-4.06l-1.13.02-.12-.12V4.87l-2.31-.05h-1.11V5.4Zm7.04.56a38.807,38.807,0,0,1-.32,4.36,14.24,14.24,0,0,1-1.18,4.18,10.872,10.872,0,0,0,1.27-.03c.55-.07.81-.26.9-1.57.12-1.82.16-4.64.16-6.94h-.83Z" fill="#231f20"/>
        <path id="Path_259" data-name="Path 259" d="M131.05,12.9a8.378,8.378,0,0,1,.97,1.43c.85-1.52,1.16-2.96,1.16-6.41V3.42l-.05-2.37.12-.12,2.65.05h3.78l2.47-.05.14.11V3.07l-.14.11-2.47-.05h-4.09V5.05h4.06l1.29-.09.92.85c.19.18.21.3.16.65a17.027,17.027,0,0,1-1.96,6.19,12.6,12.6,0,0,0,2.59,2.21l-1.55,1.77c-.11.12-.19.18-.3.18a.415.415,0,0,1-.26-.12,11.856,11.856,0,0,1-1.98-1.96,11.593,11.593,0,0,1-2.51,2.06.679.679,0,0,1-.35.16.365.365,0,0,1-.28-.18l-1.16-1.31a9.492,9.492,0,0,1-.69,1.13.243.243,0,0,1-.21.14.272.272,0,0,1-.19-.09l-1.32-1.15-1.2.71-.18-.03a10.184,10.184,0,0,0-1.22-2.61l.05-.14,1.15-.53-.71-.02h-1.52l-.83.02,1.55.56.09.18a12.227,12.227,0,0,1-1.71,3.05c-.11.12-.18.19-.26.19a.35.35,0,0,1-.21-.11l-1.52-1.08a9.194,9.194,0,0,0,1.64-2.79l-.69.02-.11-.12.05-2.35V3.14L126.17.97l.11-.12,1.94.05h1.52l2.1-.05.12.12-.05,2.17v7.31l.05,2.35-.12.12-.78-.02ZM129.71,2.89h-1.38V4.2h1.38ZM128.33,6.1V7.46h1.38V6.1Zm0,4.77h1.38V9.37h-1.38Zm7.25-3.74c-.02,2.7-.04,5.51-1.18,8a12.373,12.373,0,0,0,2.68-2.36,16.2,16.2,0,0,1-1.36-4.54l.07-.16,1.91-.53.14.07a16.994,16.994,0,0,0,.71,2.74,13.351,13.351,0,0,0,.85-3.21h-3.81Z" fill="#231f20"/>
        <path id="Path_260" data-name="Path 260" d="M152.04,9.99c-.05,3.99-1.59,6.07-5.68,6.95a.954.954,0,0,1-.21.04.292.292,0,0,1-.26-.16l-1.36-1.85c3.69-.64,4.98-1.89,4.99-5.07l.14-.12,2.22.09.16.12Zm6.16-8.44,2.68-.05.11.09V3.5l-.11.09-2.68-.05h-4.11v.97h2.59l2.33-.05.11.09V6.42l-.11.09-2.33-.05H149l-2.31.05-.12-.11V4.56l.11-.11,2.33.05h2.49V3.53h-3.95l-2.66.05-.12-.11V1.6l.11-.11,2.68.05h3.95V.26l.12-.14h2.33l.14.12V1.55h4.11ZM144.88,8.86l-.05-1.55.12-.12,2.93.05h10.01l2.93-.05.12.12-.05,1.39v.48l.09,2.01h-2.61V9.21H147.34v2.01H144.8l.09-2.05V8.85Zm16.04,4.57c.25.09.32.14.3.41a3.051,3.051,0,0,1-.94,2.36c-.49.39-1.43.49-3.67.49-2.72,0-3.16-.37-3.16-1.82l.03-2.08V9.91l.12-.12h2.22l.14.12V13.9c0,.46.07.51.99.51,1.01,0,1.47-.05,1.62-.21.21-.19.32-.65.37-1.52l1.96.74Z" fill="#231f20"/>
        <path id="Path_261" data-name="Path 261" d="M172.87.48l.12-.14h1.98l.12.12V3.18l.41-.48h.21l.11.07a16.385,16.385,0,0,0,.76-2.19l.21-.05,1.22.44.07.23a21.292,21.292,0,0,1-1.04,2.44c.11.09.21.16.3.23.26-.55.51-1.08.74-1.59l.21-.07,1.38.67.02.19c-.42.79-.9,1.66-1.39,2.47l.09-.09.97-.21.14.07a8.948,8.948,0,0,1,.83,2.4l-.14.14-1.29.35-.14-.11a3.557,3.557,0,0,0-.09-.49c-.76.16-1.66.3-2.95.51l-.16-.12-.3-.86a19.633,19.633,0,0,0,.23,2.01h1.36a4.246,4.246,0,0,0-.41-.63l.07-.16,1.25-.51.14.04a6.067,6.067,0,0,1,.85,1.24l1.24-.02.12.11V10.9l-.12.11-2.61-.05h-1.54a9.75,9.75,0,0,0,.48,1.38l.04.05a12.712,12.712,0,0,0,1.01-1.25l.16-.02,1.41.95.02.21a11.314,11.314,0,0,1-1.61,1.82c.28.32.53.49.74.49.28,0,.42-.19.56-1.61l1.32.86a.45.45,0,0,1,.25.48c-.23,1.78-.71,2.58-2.1,2.58a3.109,3.109,0,0,1-2.52-1.5,12.97,12.97,0,0,1-3.04,1.36.431.431,0,0,1-.21.04.4.4,0,0,1-.35-.23l-1.01-1.38a12.155,12.155,0,0,0,3.6-1.52l-.16-.32a13.528,13.528,0,0,1-.78-2.4h-1.94c-.02.41-.05.79-.11,1.2l.62-.48.18.02a8.546,8.546,0,0,1,1.52,1.2l.02.18-1.31,1.13h-.19a13.5,13.5,0,0,0-1.02-.97,6.429,6.429,0,0,1-2.21,3.48c-.07.07-.12.11-.18.11s-.09-.04-.14-.07l-1.55-1.27.03,1.55h-2.35l.16-6.11a13.44,13.44,0,0,1-.71,1.91c-.05.11-.12.16-.19.16a.334.334,0,0,1-.26-.19l-1.04-1.77a20.355,20.355,0,0,0,2.06-5.45l-1.66.05-.12-.11V3.6l.11-.11,1.76.05V.23l.09-.11h1.92l.11.11V3.51l.92-.02.69-.83h.21a1.573,1.573,0,0,0,.19.12,22.007,22.007,0,0,0,.86-2.26l.21-.04,1.22.46.07.23c-.33.85-.74,1.69-1.13,2.47.11.09.23.18.34.26.25-.51.48-1.01.65-1.41l.18-.05,1.22.6V.48Zm-.74,8.12-.14-.11c-.02-.16-.05-.33-.09-.53-.86.18-1.92.33-2.96.48l-.16-.12L168.36,7l.12-.14c.28-.02.55-.02.79-.03.26-.46.51-.92.78-1.38a18.508,18.508,0,0,0-1.47-1.18V5.54l-.09.09-1.25-.04V7.16l.35-.28h.16a19.41,19.41,0,0,1,1.5,2.24l1.84.03h2.21c-.05-.28-.07-.56-.11-.83ZM168.56,11l-.12-.11V9.95l-.42.35-.14-.02c-.18-.37-.39-.81-.64-1.25v1.38l.09,4.98a6.5,6.5,0,0,0,1.48-1.61,6.01,6.01,0,0,0,.74-2.81l-.99.02Zm2.54-4.36c.21-.02.42-.04.64-.07a3.573,3.573,0,0,0-.21-.6c-.14.23-.28.46-.42.67Zm1.54-1.09a8.583,8.583,0,0,1,.35.81c-.05-.92-.09-1.82-.11-2.74-.35.69-.74,1.36-1.15,2.01l.76-.16.14.07Zm3.28.95c.21-.37.42-.72.62-1.11-.46-.41-.94-.81-1.43-1.18.02.78.05,1.57.11,2.33.25-.02.48-.02.71-.04Zm1.87-.18c.23-.03.46-.05.69-.09-.07-.21-.14-.42-.23-.63C178.09,5.85,177.93,6.09,177.79,6.32Z" fill="#231f20"/>
      </g>
    </g>
    <g id="Group_485" data-name="Group 485">
      <path id="Path_262" data-name="Path 262" d="M190.09,40.07H174.42c-2.6,0-4.99,1.56-5.33,3.46l-2.44,13.85c-.34,1.9,1.51,3.46,4.11,3.46h15.67c2.6,0,4.99-1.56,5.33-3.46l.34-1.95a1.042,1.042,0,0,0-1.07-1.3h-7.79a1.581,1.581,0,0,0-1.53,1.3,2.887,2.887,0,0,1-2.58,2.38,1.917,1.917,0,0,1-1.73-2.47l.75-4.24h10c2.6,0,4.99-1.56,5.33-3.46l.73-4.11c.34-1.9-1.51-3.46-4.11-3.46Zm-6.64,5.5-.52,2.94H178.6l.52-2.94a2.877,2.877,0,0,1,2.6-2.47C182.93,43.1,183.69,44.18,183.45,45.57Z" fill="#fff"/>
      <path id="Path_263" data-name="Path 263" d="M165.76,36.47l-.69,3.9a1.623,1.623,0,0,1-.46.91l-.42.39L149.98,55.48H160.8a1.3,1.3,0,0,1,1.32,1.6l-.37,2.12a2.045,2.045,0,0,1-1.89,1.65H137.44a1.283,1.283,0,0,1-1.23-1.6l.69-3.94a1.951,1.951,0,0,1,.57-1l.36-.35,14.19-13.72H141.2a1.31,1.31,0,0,1-1.36-1.6l.37-2.12a2.055,2.055,0,0,1,1.94-1.65h22.6a1.332,1.332,0,0,1,1.02,1.6Z" fill="#fff"/>
      <path id="Path_264" data-name="Path 264" d="M222.27,43.53l-.56,3.16a1.623,1.623,0,0,1-1.53,1.3h-5.89a1.042,1.042,0,0,1-1.07-1.3l.2-1.13a1.9,1.9,0,0,0-1.73-2.47,2.867,2.867,0,0,0-2.6,2.47l-2.47,13.98a1.581,1.581,0,0,1-1.53,1.3H197.3a1.042,1.042,0,0,1-1.07-1.3l3.21-18.18a1.581,1.581,0,0,1,1.53-1.3h7.79l.82,1a6.679,6.679,0,0,1,3.51-1h5.06c2.6,0,4.44,1.56,4.11,3.46Z" fill="#fff"/>
    </g>
  </g>
</svg>
