<svg xmlns="http://www.w3.org/2000/svg" xmlns:xlink="http://www.w3.org/1999/xlink" width="73.627" height="773" viewBox="0 0 73.627 773">
  <defs>
    <linearGradient id="linear-gradient" x1="1" y1="1" x2="0" gradientUnits="objectBoundingBox">
      <stop offset="0" stop-color="#166ab3"/>
      <stop offset="1" stop-color="#1db6c3"/>
    </linearGradient>
  </defs>
  <path id="Path_241" data-name="Path 241" d="M60.556,45.314a86.3,86.3,0,0,1,10.55.452V33.106a99.176,99.176,0,0,1-10.626.452H43.3V31c.151-9.8.151-9.8.6-12.736H30.111a44.017,44.017,0,0,1,.528,8.064c0,2.487,0,4.22-.075,7.235H14.36a92.919,92.919,0,0,1-10.55-.452V45.767a74.634,74.634,0,0,1,10.626-.452H29.583a31.98,31.98,0,0,1-8.29,18.011c-5.049,5.652-10.852,9.42-19.82,12.887a51.741,51.741,0,0,1,7.31,11.3,66.221,66.221,0,0,0,7.838-3.994A57.305,57.305,0,0,0,29.432,72.746a47.482,47.482,0,0,0,8.591-13.64A52.9,52.9,0,0,0,49.855,75.911,64.305,64.305,0,0,0,66.661,87.516,49.2,49.2,0,0,1,74.2,75.383C65.832,72.068,59.878,68.3,54.678,63.1a46.171,46.171,0,0,1-11-17.785ZM8.708,159.385c2.336-.226,5.5-.377,9.043-.377h13.64V163H12.326c-3.843,0-6.632-.151-9.119-.377v11.153a87.451,87.451,0,0,1,9.948-.452H61.838a90.964,90.964,0,0,1,10.174.452V162.626c-2.412.226-5.2.377-9.119.377H43v-3.994H57.316c3.919,0,7.009.151,9.194.377V148.458a90.742,90.742,0,0,1-9.42.377H43V146.8a20.037,20.037,0,0,1,.3-3.994H36.818c-.075-1.884-.075-3.467-.075-6.255V132.03a57.939,57.939,0,0,1,5.878.3v-10.7a53.177,53.177,0,0,1-5.878.3v-5.275a41.09,41.09,0,0,1,4.823.3V106.181a49.525,49.525,0,0,1-8.666.452H13.23a72.633,72.633,0,0,1-8.666-.452v10.777a45.534,45.534,0,0,1,6.406-.3v5.275a59.038,59.038,0,0,1-7.913-.377v10.852a46.158,46.158,0,0,1,6.933-.377c-1.356,4.748-3.316,7.31-7.913,10.324a35.294,35.294,0,0,1,6.632,6.406ZM25.89,132.03V136.7c0,3.391-.151,6.556-.377,9.269h5.878v2.864H16.32c-1.583,0-2.185,0-3.542-.075,5.049-4.522,7.611-9.571,8.666-16.73Zm-3.919-15.374H25.89v5.275H21.972Zm33.536-3.09a45.131,45.131,0,0,1,.226-4.974H44.278a39.826,39.826,0,0,1,.3,5.652V133.16a36.462,36.462,0,0,1-.3,5.426h6.556a33.854,33.854,0,0,1,1.583,7.687c3.241.151,4.3.151,5.577.151,4.22,0,7.009-.3,8.666-1.055,2.939-1.206,3.994-3.391,3.994-8.516v-25.17a37.5,37.5,0,0,1,.377-6.707H58.9a31.023,31.023,0,0,1,.377,5.8v23.739c0,1.507,0,1.507-3.316,1.507a1.326,1.326,0,0,0-.452.075V113.566ZM31.844,204.954v4.3H24.609a41.438,41.438,0,0,1-6.1-.3,42.635,42.635,0,0,1,.3,5.878v27.205a38.621,38.621,0,0,1-.226,5.8c.829-.075.829-.075,3.617-.226H52.719c2.713.151,2.713.151,3.542.226a34.906,34.906,0,0,1-.226-5.8V214.826a40.6,40.6,0,0,1,.3-5.878,41.438,41.438,0,0,1-6.1.3H43v-4.3h18.84c3.617,0,7.159.151,10.475.452V194.1c-3.542.3-6.858.452-10.551.452H13.079c-3.919,0-7.009-.151-10.4-.452v11.3c3.391-.3,6.933-.452,10.55-.452Zm.754,14.092v4.522H28.3v-4.522Zm0,13.866v5.2H28.3v-5.2Zm9.571,5.2v-5.2H46.69v5.2Zm0-14.545v-4.522H46.69v4.522Zm16.579-13.942a40.6,40.6,0,0,1,.3,5.878V250.4H15.792V215.806a37.572,37.572,0,0,1,.3-6.18H4.488c.3,3.165.452,6.1.452,8.893v34.138a102.094,102.094,0,0,1-.528,10.927H16.094V260.72H58.672v2.864H70.5c-.377-4.069-.528-7.385-.528-11.153V218.82c0-2.713.151-6.18.452-9.194ZM13.833,297.773c-4.069,0-6.556-.075-8.893-.3.3,3.316.452,6.029.452,9.872v33.083c0,4.9-.151,7.837-.452,11.229H16.546v-2.864H58.6v2.939H70.2c-.226-3.467-.377-7.084-.377-11.229V307.344a87.129,87.129,0,0,1,.377-9.872,88.112,88.112,0,0,1-8.817.3h-20.5a42.131,42.131,0,0,0,2.261-4.6H61.838c4.22,0,7.31.151,10.475.377V282.173c-3.542.3-6.782.452-10.551.452H13.079c-3.919,0-6.933-.151-10.4-.452v11.379c3.165-.226,6.33-.377,10.55-.377H30.111a26.02,26.02,0,0,1-2.261,4.6ZM42.7,307.645v4.145H32.145v-4.145Zm10.626,0H58.6v30.823H53.322ZM42.7,338.468H32.145v-4.446H42.7Zm-21.1,0H16.546V307.645h5.049Zm10.55-17.559H42.7V324.9H32.145ZM18.053,377.178c-4.6,0-6.707-.075-9.5-.3A71.606,71.606,0,0,1,8.934,386v44.312a67.182,67.182,0,0,1-.452,8.742H20.54v-3.241H54.829v3.241H67.113a58.2,58.2,0,0,1-.452-8.817V386a68.753,68.753,0,0,1,.377-9.119c-2.788.226-4.9.3-9.5.3H40.51c.528-1.13.829-1.733,1.13-2.487,1.884-4.672,1.884-4.672,2.412-5.954l-13.414-.9a41.2,41.2,0,0,1-2.939,9.345Zm2.562,10.551H54.98v5.577H20.615Zm0,15.977H54.98v5.426H20.615Zm0,15.9H54.98v5.577H20.615Zm38.133,51.145c.151-11.832.151-11.832.528-13.942H47.293a31.117,31.117,0,0,1,.452,6.858v7.084h-.98a26.439,26.439,0,0,1-3.994-.226V468.49a55.332,55.332,0,0,1-7.235.3H28.3V466c6.556-.6,7.461-.678,9.948-.98a21.9,21.9,0,0,1,2.336-.3l1.13-.075c.528-.075.678-.075,1.055-.151l-5.652-8.516c-4.522,1.809-17.559,2.939-34.214,3.09a37.775,37.775,0,0,1,3.467,7.913c2.412-.075,6.481-.151,12.133-.377v2.185H10.14a64.676,64.676,0,0,1-7.31-.3v8.893a65.533,65.533,0,0,1,7.31-.3h8.365v2.185H12.476c-3.467,0-5.426-.075-7.687-.226a57.369,57.369,0,0,1,.3,7.009V496a57.77,57.77,0,0,1-.3,7.159c2.336-.151,3.994-.151,7.687-.151h6.029v2.261H11.346a62.785,62.785,0,0,1-7.385-.3v8.44c2.412-.151,4.672-.226,7.31-.226h7.235v2.864c-4.823.151-6.933.151-10.023.151a62.349,62.349,0,0,1-6.255-.151l1.658,10.551c2.185-.226,3.617-.377,4.974-.452,14.921-.98,17.107-1.13,32.33-2.638a39.573,39.573,0,0,1,3.994,4.672,54.365,54.365,0,0,0,6.029-9.872,34.212,34.212,0,0,1,1.281,8.365c.98.075,1.809.075,2.336.075,8.817,0,11.606-.829,13.49-4.145,2.185-3.768,3.241-14.921,3.542-37.228.151-11.606.151-11.606.452-14.921a63.608,63.608,0,0,1-7.385.3ZM28.3,513.179h8.893a22.326,22.326,0,0,1,3.617.226c-.452.754-.6.9-1.055,1.658-6.029.452-6.029.452-11.455.678ZM41.49,505.04c-2.035.151-3.467.226-7.31.226H28.3v-2.261h6.782c3.843,0,4.672,0,6.556.075-.075-1.809-.151-3.768-.151-6.556V485.672a45.324,45.324,0,0,1,.226-6.556,57.175,57.175,0,0,1-6.029.151H28.3v-2.185h9.722a21.864,21.864,0,0,1,4.748.226v4.371a44.578,44.578,0,0,1,4.748-.226c-.754,15.675-2.336,23.889-6.029,30.823Zm20.2-23.588c-.528,17.559-.829,22.382-1.583,27.883-.754,5.727-1.356,6.632-4.446,6.632a22.869,22.869,0,0,1-3.316-.3c3.693-8.893,5.5-18.991,6.1-34.214Zm-43.182,4.22v2.562H14.511v-2.562Zm9.8,0H32.3v2.562H28.3Zm-9.8,8.29v2.713H14.511v-2.713Zm9.8,0H32.3v2.713H28.3ZM66.887,563.8a37.781,37.781,0,0,1-6.029.3H45.032V557.39H63.5a84.531,84.531,0,0,1,9.269.377V546.086a65.244,65.244,0,0,1-9.345.527H42.7a82.838,82.838,0,0,1-9.119-.452,83.908,83.908,0,0,1,.377,9.194c0,3.617-.075,11.3-.075,12.435-.528,17.559-.528,17.71-1.356,23.211a40.86,40.86,0,0,1-3.693,11.681c-.98-1.959-1.959-3.994-2.864-6.255a36.338,36.338,0,0,1,4.6.151c-.151-1.583-.151-2.788-.151-6.255V552.04c0-2.788.075-4.22.226-5.953a49.294,49.294,0,0,1-6.1.3H11.12a65.089,65.089,0,0,1-6.632-.3,64.2,64.2,0,0,1,.3,6.782v35.495c0,2.487-.075,4.974-.3,8.214a29.868,29.868,0,0,1,4.145-.151A40.718,40.718,0,0,1,1.1,608.786a44.363,44.363,0,0,1,8.893,6.858,50.865,50.865,0,0,0,7.235-13.866,83.832,83.832,0,0,0,5.727,12.058,55.984,55.984,0,0,1,5.878-4.3,37.466,37.466,0,0,1,6.406,6.029,54.045,54.045,0,0,0,3.994-7.461,38.51,38.51,0,0,1,5.878,7.988,58.548,58.548,0,0,0,11.3-10.475,53.654,53.654,0,0,0,12.133,9.571,57.594,57.594,0,0,1,5.8-11.606,39.358,39.358,0,0,1-11.53-7.611c3.316-6.18,4.446-9.119,6.481-17.258,1.507-5.727,1.507-5.727,1.507-5.953.528-2.185.528-2.185.9-3.391ZM17.224,599.819l-5.953-3.391H22.951ZM44.429,585.5a53.408,53.408,0,0,0,5.049,11.078,53.7,53.7,0,0,1-8.817,8.064C42.545,599.366,43.45,594.92,44.429,585.5Zm14.62-11.3a53.345,53.345,0,0,1-3.542,12.51,40.694,40.694,0,0,1-4.823-12.51ZM15.265,556.411h5.049v4.3H15.265Zm0,12.736h5.049v4.3H15.265Zm0,12.887h5.049v4.446H15.265Zm16.2,55.29H13.757a77.11,77.11,0,0,1-9.722-.452v10.475a78.541,78.541,0,0,1,9.42-.377H31.467v3.014H15.792a61.97,61.97,0,0,1-7.385-.3v9.948a64.425,64.425,0,0,1,7.385-.3H59.275a63.388,63.388,0,0,1,7.461.3v-9.948a62.59,62.59,0,0,1-7.461.3h-16.2v-3.014H61.838a77.153,77.153,0,0,1,9.345.377V636.871a75.748,75.748,0,0,1-9.646.452H43.073v-.377a20.324,20.324,0,0,1,.377-4.823H31.09a21.51,21.51,0,0,1,.377,4.823Zm-16.429,42.2v-7.838H59.954v7.838H71.785a33.566,33.566,0,0,1-.377-5.8v-6.481a36.278,36.278,0,0,1,.3-5.5c-2.713.226-4.6.3-8.742.3H12.024a82.376,82.376,0,0,1-8.516-.3,44.786,44.786,0,0,1,.3,5.878v6.255a34.462,34.462,0,0,1-.377,5.652ZM22.5,673.27a18.478,18.478,0,0,1,.151,2.035,19.431,19.431,0,0,1-.754,4.974c-1.432,4.522-4.069,7.31-9.119,9.571-3.165,1.507-5.652,2.185-10.55,2.939a46.275,46.275,0,0,1,6.707,10.777c8.29-2.411,12.435-4.371,16.429-7.837C30.412,691.281,33.2,685.4,34.1,677.34c.226-2.11.3-2.411.452-3.391Zm28.034,6.255a39.938,39.938,0,0,1,.3-5.878H39a48.889,48.889,0,0,1,.3,6.481v14.545c0,6.18,2.185,7.31,13.64,7.31,10.475,0,14.017-.6,15.826-2.562,1.959-2.11,2.788-5.727,3.316-14.545a39.106,39.106,0,0,1-10.927-2.939c-.226,5.2-.528,7.988-.98,8.667-.452.829-1.733,1.055-5.125,1.055-3.994,0-4.522-.226-4.522-2.035ZM37.571,764.582H45.56a54.97,54.97,0,0,0,3.467,10.927,43.411,43.411,0,0,1-15.675,6.406,32.933,32.933,0,0,1,5.727,9.269,61.743,61.743,0,0,0,14.7-7.837c3.467,4.371,6.556,6.858,9.194,7.385q.226,0,2.487.226a10.776,10.776,0,0,0,1.583-.3,5.736,5.736,0,0,0,3.617-2.864c1.432-2.336,2.261-5.351,3.014-10.777a19.692,19.692,0,0,1-7.084-5.5c1.055-1.206,1.432-1.809,2.713-3.542l-6.707-3.391h2.261c2.336,0,5.727.151,7.838.377V754.484a30.63,30.63,0,0,1-6.18.377,23.126,23.126,0,0,0-1.809-3.617c1.13-.151,1.206-.151,2.788-.3.151.98.226,1.357.452,2.713l6.029-1.733a73.006,73.006,0,0,0-3.165-11.907l-5.652,1.432c.528,1.432.678,1.809,1.055,3.09-1.507.075-2.562.075-4.9.151,4.145-3.768,5.652-5.351,11.379-12.058l-6.406-4.3a56.66,56.66,0,0,1-4.145,5.878q-.452-.565-1.356-1.583a81.132,81.132,0,0,0,6.406-8.516l-7.762-4.3a29.386,29.386,0,0,1-4.22,7.159L54,725.847l-1.281,1.583V724.49a27.5,27.5,0,0,1,.3-4.446h-11c.3,2.035.3,2.035.678,10.7l-3.467-2.185a41.559,41.559,0,0,1-3.994,6.029,14.919,14.919,0,0,0-1.281-1.583,65.913,65.913,0,0,0,6.255-9.42l-7.762-3.994a34.143,34.143,0,0,1-4.069,7.385L27.1,725.7l-5.878,6.029c.6.6.829.754,1.356,1.281-1.055.075-1.507.075-2.185.075h-.98v-5.2a46.736,46.736,0,0,1,.377-7.838H8.859a76.84,76.84,0,0,1,.377,7.838v5.2H7.352a19.152,19.152,0,0,1-4.9-.377v10.852a31.591,31.591,0,0,1,4.9-.377H8.633a48.684,48.684,0,0,1-7.913,19.9,77.532,77.532,0,0,1,4.371,11.907,41.75,41.75,0,0,0,4.522-11c-.226,3.994-.3,7.461-.3,8.817v8.742c0,4.145-.151,7.385-.377,9.721H19.786a61.768,61.768,0,0,1-.3-7.762,33.412,33.412,0,0,1,7.385,7.084,35.441,35.441,0,0,0,8.817-15.148,18.231,18.231,0,0,0,4.974,4.145,43.429,43.429,0,0,1,4.522-8.667,21.034,21.034,0,0,1-7.611-5.577Zm16.5-9.722c-.075-.377-.151-1.281-.3-2.788,2.261-.075,2.487-.151,3.693-.226a29.755,29.755,0,0,1,1.432,3.014Zm-.9-10.852c-.226-3.467-.226-4.9-.3-8.29,1.884,2.035,2.261,2.487,3.994,4.6C55.884,741.446,55.432,741.823,53.171,744.009Zm-33.686,37.53-.075-18.689q-.113-6.443-.226-7.235a26.475,26.475,0,0,0,3.014,5.577c1.055-2.713,1.356-3.542,2.035-5.2v8.817c.98-.075.98-.075,3.768-.226-.678,8.365-3.014,13.414-8.516,18.463Zm19.669-39.489c.3,1.356.377,1.733.6,2.788-2.562.3-2.939.377-4.672.452a89.233,89.233,0,0,0,7.31-8.139c.151-.151.3-.377.6-.754.075,2.185.151,3.24.151,4.6ZM43.9,752.524c.151,1.13.151,1.206.226,2.336H29.734a25.34,25.34,0,0,1-4.9-.226,10.371,10.371,0,0,1,.6-1.281c3.316-.377,6.406-.754,9.194-1.055,1.809-.151,3.542-.377,6.1-.829.075.754.151,1.356.226,1.959Zm22.533,19.217c-.6,6.1-1.055,7.838-2.185,7.838-.528,0-1.281-.678-2.788-2.487A55.729,55.729,0,0,0,66.435,771.741Zm-5.652-7.159a24.788,24.788,0,0,1-3.617,4.748,35.426,35.426,0,0,1-1.432-4.748ZM24.459,750.49a22.079,22.079,0,0,1-4.672-7.31h.829a19.3,19.3,0,0,1,2.939.226,3.123,3.123,0,0,1,.754.075V734.89c1.733,1.884,2.487,2.788,5.5,6.556-1.281,1.432-1.281,1.432-3.768,4.07h-.678a11.711,11.711,0,0,1-1.507-.075Z" transform="translate(-0.72 -18.26)" fill="url(#linear-gradient)"/>
</svg>
