<svg xmlns="http://www.w3.org/2000/svg" width="233.628" height="67.299" viewBox="0 0 233.628 67.299">
  <g id="レイヤー_3" data-name="レイヤー 3" transform="translate(0 -0.001)">
    <g id="Group_492" data-name="Group 492">
      <path id="Subtraction_5" data-name="Subtraction 5" d="M11532.271,12897.3H11320l.741-4.179h122.3l3.411-19.821a18.033,18.033,0,0,1,17.088-14.34h90.089l-4.269,24a18.037,18.037,0,0,1-17.088,14.339Zm-47.522-32.433h-22.6a2.055,2.055,0,0,0-1.939,1.654l-.372,2.117a1.365,1.365,0,0,0,.271,1.133,1.39,1.39,0,0,0,1.091.469h10.817l-14.189,13.721-.359.35a1.973,1.973,0,0,0-.569,1l-.689,3.938a1.418,1.418,0,0,0,.281,1.17,1.207,1.207,0,0,0,.948.43h22.418a2.051,2.051,0,0,0,1.891-1.647l.372-2.12a1.374,1.374,0,0,0-.274-1.144,1.338,1.338,0,0,0-1.046-.459h-10.821l14.21-13.809.421-.392a1.642,1.642,0,0,0,.459-.909l.689-3.9h.01A1.335,1.335,0,0,0,11484.749,12864.867Zm44.011,5.192h-7.791a1.575,1.575,0,0,0-1.527,1.3l-3.211,18.182a1.119,1.119,0,0,0,.215.933,1.087,1.087,0,0,0,.854.365h7.791a1.582,1.582,0,0,0,1.53-1.3l2.47-13.983a2.863,2.863,0,0,1,2.6-2.47,1.684,1.684,0,0,1,1.314.594,2.294,2.294,0,0,1,.417,1.876l-.2,1.133a1.118,1.118,0,0,0,.215.933,1.084,1.084,0,0,0,.853.365h5.892a1.619,1.619,0,0,0,1.531-1.3l.56-3.162-.01-.01a2.466,2.466,0,0,0-.575-2.062,4.612,4.612,0,0,0-3.535-1.4h-5.06a6.672,6.672,0,0,0-3.512,1Zm-34.339.01c-2.6,0-4.989,1.552-5.331,3.46l-2.44,13.851a2.45,2.45,0,0,0,.564,2.055,4.618,4.618,0,0,0,3.546,1.405h15.67c2.6,0,4.989-1.552,5.331-3.46l.34-1.949a1.124,1.124,0,0,0-.216-.936,1.09,1.09,0,0,0-.855-.365h-7.788a1.579,1.579,0,0,0-1.531,1.3,2.886,2.886,0,0,1-2.579,2.379,1.675,1.675,0,0,1-1.3-.6,2.277,2.277,0,0,1-.424-1.867l.747-4.24h10c2.6,0,4.987-1.552,5.328-3.46l.731-4.11a2.443,2.443,0,0,0-.565-2.053,4.618,4.618,0,0,0-3.546-1.407h-15.679Zm-139.8,18.229h-12.452l8.82-19.867h-25.858l1.029-5.781v-.01H11366Zm44.931-.01h-12.5l11.42-25.648h12.461Zm-19.081-9.37h-12.41l2.891-16.278h12.391l-2.871,16.277Zm122.461-.408h-4.331l.521-2.942a2.862,2.862,0,0,1,2.6-2.467,1.69,1.69,0,0,1,1.318.593,2.286,2.286,0,0,1,.41,1.874l-.518,2.941Zm-64.62-.152h-26.781l1.029-5.777h26.781l-1.029,5.776Zm-1.789-31.31c-.066,0-.136-.042-.23-.139l-1.311-1.24c-2.314.333-4.341.531-7.27.78l-.162-.029-.79-1.919.123-.123c1.2-.026,2.434-.079,3.787-.159v-.78h-.968l-2.312.053-.119-.123v-1.551l.119-.116,2.312.048h.968v-.621h-.259l-2.629.052-.122-.12.052-2.062v-1.98l-.052-1.548.122-.119,2.629.048h.259v-.579h-1.32l-2.218.049-.119-.12v-1.551l.119-.119,2.218.052h1.32v-.579c-.772.047-1.543.066-2.4.087a.362.362,0,0,1-.34-.21l-.81-1.479h.035a39.465,39.465,0,0,0,7.235-.578l.178.028a14.513,14.513,0,0,1,1.593,1.383l-.023.178c-1.014.178-2.062.321-3.207.44v.741h1.106l.032-.02,2.309-.052.119.12v.718l1.162.023v-3.671l.12-.12h2.12l.12.12v1.641c0,.714,0,1.389-.02,2.059h.459l2.629-.052.123.123-.012,1.459v.025c-.025,3.351-.047,6.244-.222,8.136a4.3,4.3,0,0,1-.732,2.483,3.279,3.279,0,0,1-2.585.767.471.471,0,0,1-.512-.34l-.81-1.819a10.033,10.033,0,0,1-1.608,2.188C11436.64,12847.02,11436.589,12847.049,11436.521,12847.049Zm3.47-11.1a38.4,38.4,0,0,1-.32,4.359,14.079,14.079,0,0,1-1.182,4.179c.109.006.224.01.36.01.308,0,.628-.021.911-.038.543-.07.809-.248.9-1.57.143-2.184.158-5.58.158-6.939Zm-4.043,7.8h0l-.049.549a8.779,8.779,0,0,0,1.47-4.25,32.409,32.409,0,0,0,.262-4.062l-1.133.019-.119-.119v-1.02l-2.309-.049h-1.109v.569h.311l2.628-.052.12.123-.049,1.638v1.8l.049,2.148-.12.12-2.628-.052h-.32v.621h.666l2.312-.052.12.12v1.551l-.12.123-2.312-.052h-.666v.618c.891-.079,1.931-.174,3-.3Zm-3.029-4.83v.738h.922v-.738Zm-3.088,0v.738h.9v-.738Zm3.088-2.062v.722h.922v-.722Zm-3.088,0v.722h.9v-.722Zm57.54,10.17h-2.35l.158-6.11a13.317,13.317,0,0,1-.709,1.912c-.049.1-.115.159-.19.159a.329.329,0,0,1-.259-.191l-1.039-1.767a20.7,20.7,0,0,0,2.059-5.451l-1.661.049-.119-.11v-1.92l.109-.109,1.761.048v-3.308l.088-.11h1.919l.113.11v3.279l.92-.02.689-.829h.21a.376.376,0,0,1,.039.025l.019.013,0,0a.854.854,0,0,0,.129.078,21.932,21.932,0,0,0,.857-2.26l.21-.042,1.221.46.071.229c-.335.864-.761,1.729-1.133,2.47.108.087.227.177.343.259.263-.537.487-1.023.647-1.407l.182-.052,1.22.6v-2.561h-.01l.12-.139h1.98l.12.119v2.72l.408-.479h.21l.11.071a16.7,16.7,0,0,0,.761-2.191l.21-.049,1.221.438.071.229a21.107,21.107,0,0,1-1.043,2.44c.071.06.139.108.2.156l.026.02.072.055c.207-.44.48-1.019.741-1.59l.207-.067,1.382.666.02.191c-.527.991-.97,1.776-1.392,2.47l.091-.088.971-.21.139.068a8.863,8.863,0,0,1,.832,2.4l-.143.139-1.288.35-.143-.109a3.588,3.588,0,0,0-.087-.489c-.7.147-1.525.279-2.662.462l-.29.047-.158-.12-.3-.857c.047.6.105,1.309.23,2.01h1.359a4.162,4.162,0,0,0-.408-.631l.068-.159,1.253-.512.139.043a5.936,5.936,0,0,1,.848,1.236l1.243-.02.117.109v1.69l-.117.109-2.612-.048h-1.54a9.48,9.48,0,0,0,.482,1.379l.038.052a13.139,13.139,0,0,0,1.01-1.25l.162-.022,1.408.951.02.208a11.306,11.306,0,0,1-1.608,1.822c.281.323.53.488.741.488.272,0,.417-.159.56-1.608l1.32.86a.452.452,0,0,1,.25.479c-.246,1.905-.8,2.58-2.1,2.58a3.178,3.178,0,0,1-2.521-1.5,12.9,12.9,0,0,1-3.039,1.362.437.437,0,0,1-.21.039.4.4,0,0,1-.35-.229l-1.01-1.379a12.167,12.167,0,0,0,3.6-1.521l-.158-.32a13.376,13.376,0,0,1-.78-2.4h-1.942c-.021.471-.055.841-.106,1.2l.618-.482.182.02a8.692,8.692,0,0,1,1.518,1.2l.022.182-1.311,1.129h-.19a13.987,13.987,0,0,0-1.021-.971,6.363,6.363,0,0,1-2.21,3.479c-.072.073-.12.11-.179.11a.157.157,0,0,1-.1-.041l-.006,0a.314.314,0,0,0-.035-.023l-1.551-1.271.032,1.549Zm-.13-8h0v1.382l.088,4.979a6.574,6.574,0,0,0,1.482-1.608,6.018,6.018,0,0,0,.738-2.81l-.991.019v.01l-.119-.109v-.939l-.418.35-.143-.019-.065-.135-.016-.032c-.161-.333-.343-.71-.557-1.087Zm.35-2.148h.159a19.428,19.428,0,0,1,1.5,2.24l1.842.032h2.211c-.032-.177-.053-.357-.07-.512l-.01-.079c-.009-.08-.019-.162-.03-.241l-1.058.281-.143-.109c-.021-.165-.054-.339-.09-.523v-.008c-.863.179-1.959.336-2.926.475l-.032,0-.162-.12-.418-1.32.12-.14c.16-.012.316-.016.468-.02l.058,0c.092,0,.18,0,.265-.008.081-.144.162-.29.242-.434l.045-.08c.158-.284.321-.577.492-.865-.383-.335-.9-.773-1.469-1.181v1.269l-.091.091-1.25-.039v1.569l.349-.281Zm3.939-.91h0c-.156.259-.294.478-.421.67.192-.019.394-.039.632-.068a3.513,3.513,0,0,0-.211-.6Zm3.58-1.761h0c.017.655.044,1.513.11,2.33.116-.01.229-.015.34-.019h.015c.131,0,.24-.01.354-.02h-.01c.04-.071.081-.142.121-.211l.039-.068.007-.011c.15-.262.306-.532.454-.82-.453-.405-.935-.8-1.431-1.181Zm-2.618,1.263h0l.139.068.01.013a8.492,8.492,0,0,1,.35.81c-.048-.909-.091-1.8-.11-2.742-.337.664-.713,1.322-1.148,2.011l.761-.159Zm5.758.129h0c-.057.09-.118.185-.181.28l-.032.05c-.088.135-.17.262-.247.389l.208-.024.032,0c.147-.018.3-.035.449-.062l-.038-.112c-.058-.17-.117-.344-.191-.516Zm-96.02,11.43h-2.642l.143-3.829a17.824,17.824,0,0,1-4.593,3.441.592.592,0,0,1-.178.048c-.09,0-.141-.047-.211-.139l-1.379-1.751a16.459,16.459,0,0,0,5.05-3.318h-.191l-2.288.049-.123-.12.052-2.47v-2.379l-.052-1.923.123-.109,2.359.052h1.379v-.712h-1.958l-2.723.052-.119-.12v-1.92l.162-.09,2.68.048h1.958v-1.65l.091-.106h2.278l.11.106v1.664h2.632l2.719-.052.11.119v1.891l-.11.12-2.719-.052h-2.632v.712h1.761l2.26-.052.119.143-.048,1.978v2.21l.048,2.561-.139.12-2.081-.049h-.881a15.123,15.123,0,0,0,4.642,3.117l-1.479,1.962a.266.266,0,0,1-.229.119.406.406,0,0,1-.253-.091,14.854,14.854,0,0,1-3.787-3.46l.14,3.88Zm-.149-8.179v.86h1.78v-.86Zm-3.942-.01v.86h1.612v-.86Zm3.942-2.47v.828h1.78v-.828Zm-3.942,0v.828h1.612v-.828Zm-15.038,10.639h-2.67l.087-4.2v-2.078h-.459l-2.308.049-.12-.12v-1.89l.12-.12,2.308.052h5.312l2.35-.042.12.12-.039,1.569v1.431l.049,1.852c0,1.409-.892,1.958-3.179,1.958-.237,0-.282-.022-.32-.158l-.65-2.13h.076a11.23,11.23,0,0,0,1.244-.041c.209-.02.281-.047.281-.46v-2.078h-2.311v2.078l.02.01.09,4.2Zm83.05-.028a.3.3,0,0,1-.262-.162l-1.359-1.849c3.722-.646,4.981-1.926,4.991-5.072l.139-.119,2.221.091.162.119a7.282,7.282,0,0,1-1.327,4.642,7.185,7.185,0,0,1-4.357,2.308l-.051.015A.523.523,0,0,1,11466.15,12846.981Zm-10.451-.033a.367.367,0,0,1-.278-.178l-1.162-1.311a9.449,9.449,0,0,1-.689,1.129.246.246,0,0,1-.211.143.279.279,0,0,1-.187-.09l-1.32-1.152-1.2.712-.177-.032a10.2,10.2,0,0,0-1.221-2.609l.049-.139,1.149-.531-.709-.02h-1.519l-.831.02,1.55.56.091.182a12.158,12.158,0,0,1-1.712,3.049c-.107.117-.178.188-.26.188a.358.358,0,0,1-.21-.107l-1.518-1.081a9.122,9.122,0,0,0,1.638-2.79l-.689.02-.11-.12.049-2.35v-7.3l-.049-2.172.11-.12,1.941.052h1.519l2.1-.052.12.12-.052,2.172v7.309l.052,2.35-.12.12-.78-.02h-.01a8.723,8.723,0,0,1,.972,1.431c.887-1.592,1.158-3.09,1.158-6.409v-4.5l-.052-2.369.12-.12,2.65.052h3.781l2.47-.052.139.11v2.029l-.139.11-2.47-.049h-4.089v1.919h4.06l1.288-.09.919.851c.194.182.21.309.162.65a16.965,16.965,0,0,1-1.962,6.189,12.537,12.537,0,0,0,2.593,2.211l-1.55,1.771a.415.415,0,0,1-.3.178.408.408,0,0,1-.259-.12,11.793,11.793,0,0,1-1.98-1.958,11.579,11.579,0,0,1-2.509,2.059A.672.672,0,0,1,11455.7,12846.948Zm-.12-9.817h0v.006c-.02,2.706-.04,5.5-1.182,7.992a12.366,12.366,0,0,0,2.684-2.36,16.054,16.054,0,0,1-1.362-4.541l.071-.158,1.909-.531.143.071a16.717,16.717,0,0,0,.709,2.738,13.34,13.34,0,0,0,.852-3.207h-3.811l-.013-.01Zm-7.25,2.24v1.5h1.382v-1.5Zm0-3.269v1.359h1.382v-1.359Zm0-3.211v1.308h1.382v-1.308Zm-24.429,13.989h-2.7v-.952h-8.069l-.01-.01v.949h-2.609l.091-6.507v-4.852l-.052-2.981.143-.109,2.968.052H11415c.426-.841.737-1.623,1.039-2.379l.161-.091,2.45.459.11.159c-.369.708-.683,1.293-1.01,1.851h3l2.969-.052.143.109-.052,2.981v4.59l.09,6.78Zm-10.781-4.92v1.771h8.069v-1.771Zm0-3.69v1.68h8.069v-1.68Zm0-3.65v1.641h8.069v-1.641Zm63.489,12.069c-2.766,0-3.159-.388-3.159-1.819l.029-2.081v-2.881l.123-.119h2.218l.142.119v3.991c0,.454.055.512.987.512,1.038,0,1.478-.057,1.622-.211.21-.19.32-.645.369-1.521l1.961.741.02.01c.257.093.32.146.3.41a3.075,3.075,0,0,1-.942,2.36C11479.808,12846.575,11478.95,12846.689,11476.608,12846.689Zm-102.017-1.359h0l-2.052-1.22-.048-.175a40.571,40.571,0,0,0,2.589-5.817l1.852,1.341a.341.341,0,0,1,.158.262.433.433,0,0,1-.015.079c0,.02-.01.04-.014.061a38.47,38.47,0,0,1-2.292,5.379l-.178.091Zm18.038-.53h0l-2.009-1.179-.071-.21h-.01a41.263,41.263,0,0,0,2.593-5.82l1.777,1.321a.315.315,0,0,1,.161.259.374.374,0,0,1-.013.07l0,.012c0,.019-.01.038-.014.057a38.313,38.313,0,0,1-2.291,5.38l-.119.11Zm74.709-3.58h-2.538l.088-2.049v-.32l-.01.01-.049-1.551.12-.12,2.929.049h10.012l2.93-.049.119.12-.049,1.392v.479l.091,2.01h-2.612v-1.981h-11.03v2.01Zm-89.818-3.211a.194.194,0,0,1-.139-.068l-1.642-1.771a13.155,13.155,0,0,0,5.858-6.021l.191-.048,2.33.618.049.181-.029.06-.006.013c-.08.165-.155.322-.243.488a15.559,15.559,0,0,0,5.888,3.877l-1.456,2.124c-.075.116-.127.139-.191.139a.612.612,0,0,1-.233-.071,15.574,15.574,0,0,1-2.148-1.249v1.34l-.12.12-2.14-.052h-1.608l-2.14.052-.123-.12v-.99c-.545.429-1.134.844-1.8,1.271A.691.691,0,0,1,11377.521,12838.009Zm5.159-4.539h0a13.9,13.9,0,0,1-1.958,2.221l1.159.028h1.608l1.431-.028a14.2,14.2,0,0,1-2.24-2.221Zm96.331,3.04h0l-2.331-.049H11469l-2.308.049-.12-.11v-1.838l.11-.113,2.33.052h2.489v-.971h-3.952l-2.66.052-.117-.11v-1.871l.107-.11,2.683.052h3.949v-1.281l.12-.14h2.33l.14.12v1.311h4.1l2.68-.052.11.091v1.91l-.11.091-2.68-.053h-4.11v.972h2.589l2.331-.049.109.091v1.867l-.108.091Zm-103.729-1.359h0a18.671,18.671,0,0,0-2.44-2.149l-.019-.161,1.618-1.541h.21a18.244,18.244,0,0,1,2.512,1.99l-.022.182-1.68,1.66h.01l-.187.02Zm17.43-.21h0a13.345,13.345,0,0,0-2.051-2.082l-.02-.158,1.751-1.389h.21a21.468,21.468,0,0,1,2.12,1.92l-.02.178-1.8,1.521v-.01l-.191.02Z" transform="translate(-11320 -12830)" fill="#fff"/>
    </g>
  </g>
</svg>
