<svg xmlns="http://www.w3.org/2000/svg" xmlns:xlink="http://www.w3.org/1999/xlink" width="91" height="91" viewBox="0 0 91 91">
  <defs>
    <linearGradient id="linear-gradient" x1="1" y1="1.192" x2="0.303" y2="0.182" gradientUnits="objectBoundingBox">
      <stop offset="0" stop-color="#166ab3"/>
      <stop offset="1" stop-color="#1db6c3"/>
    </linearGradient>
  </defs>
  <g id="Group_473" data-name="Group 473" transform="translate(-368 -6703)">
    <circle id="Ellipse_15" data-name="Ellipse 15" cx="45.5" cy="45.5" r="45.5" transform="translate(368 6703)" fill="url(#linear-gradient)"/>
    <path id="Path_284" data-name="Path 284" d="M-13.615.168A7.188,7.188,0,0,1-15.12.014a4.052,4.052,0,0,1-1.281-.5,2.614,2.614,0,0,1-.889-.889,2.561,2.561,0,0,1-.329-1.344q0-.07.007-.14T-17.6-3h1.344q0,.042-.007.133t-.007.161a1.413,1.413,0,0,0,.336.952,1.98,1.98,0,0,0,.931.581,4.457,4.457,0,0,0,1.351.189,6.294,6.294,0,0,0,.707-.042,3.953,3.953,0,0,0,.714-.147,2.48,2.48,0,0,0,.616-.28,1.376,1.376,0,0,0,.434-.434,1.185,1.185,0,0,0,.161-.637,1.165,1.165,0,0,0-.273-.791,2.062,2.062,0,0,0-.721-.518,7.289,7.289,0,0,0-1.015-.364q-.567-.161-1.169-.315t-1.169-.357a4.578,4.578,0,0,1-1.015-.5,2.4,2.4,0,0,1-.721-.749,2.061,2.061,0,0,1-.273-1.092,2.321,2.321,0,0,1,.245-1.078,2.174,2.174,0,0,1,.728-.805,3.659,3.659,0,0,1,1.2-.5,6.913,6.913,0,0,1,1.638-.175,5.85,5.85,0,0,1,1.407.161,3.647,3.647,0,0,1,1.148.49,2.368,2.368,0,0,1,.777.833,2.473,2.473,0,0,1,.28,1.218V-6.9h-1.316v-.21a1.191,1.191,0,0,0-.294-.812,1.882,1.882,0,0,0-.805-.518,3.428,3.428,0,0,0-1.155-.182,5.154,5.154,0,0,0-1.4.161A1.751,1.751,0,0,0-15.764-8a.984.984,0,0,0-.273.679,1.029,1.029,0,0,0,.273.728,2.058,2.058,0,0,0,.721.483,7.92,7.92,0,0,0,1.022.343l1.169.315q.595.161,1.162.364a4.738,4.738,0,0,1,1.022.5,2.275,2.275,0,0,1,.721.756,2.171,2.171,0,0,1,.266,1.113,2.594,2.594,0,0,1-.5,1.659,2.871,2.871,0,0,1-1.386.931A6.465,6.465,0,0,1-13.615.168ZM-5.369,0V-8.442h-3.29V-9.6H-.721v1.162H-4.039V0ZM.763,0V-9.6H8.155v1.148H2.093v2.968H7.539V-4.34H2.093v3.192H8.239V0Zm9.478,0V-9.6h4.746a3.328,3.328,0,0,1,1.652.371A2.385,2.385,0,0,1,17.626-8.2a3.37,3.37,0,0,1,.329,1.526,3.253,3.253,0,0,1-.364,1.561A2.609,2.609,0,0,1,16.562-4.06a3.165,3.165,0,0,1-1.589.378h-3.4V0Zm1.33-4.83h3.318a1.654,1.654,0,0,0,1.253-.49,1.863,1.863,0,0,0,.469-1.344,2.146,2.146,0,0,0-.2-.966,1.419,1.419,0,0,0-.574-.609,1.891,1.891,0,0,0-.952-.217H11.571Z" transform="translate(414 6731)" fill="#fff"/>
    <path id="Path_283" data-name="Path 283" d="M12.006-6.762H1.978L7.13-11.546c2.76-2.576,4.554-5.244,4.554-9.108A10.25,10.25,0,0,0,8.694-28.2c-1.38-1.38-4.048-3.174-8.648-3.174A11.71,11.71,0,0,0-8.648-28.06a12.2,12.2,0,0,0-3.4,8.51h8.234a7.609,7.609,0,0,1,1.1-3.772A3.3,3.3,0,0,1-.046-24.564a3.019,3.019,0,0,1,2.254.92,4.613,4.613,0,0,1,.92,2.944,8.637,8.637,0,0,1-1.656,4.784,50.812,50.812,0,0,1-6.3,7.774L-12.6,0h24.61Z" transform="translate(414 6772)" fill="#fff"/>
  </g>
</svg>
