<svg id="button-second" xmlns="http://www.w3.org/2000/svg" width="225" height="40" viewBox="0 0 225 40">
  <g id="Rectangle_44" data-name="Rectangle 44" fill="none" stroke="#00aeef" stroke-width="1">
    <rect width="225" height="40" rx="20" stroke="none"/>
    <rect x="0.5" y="0.5" width="224" height="39" rx="19.5" fill="none"/>
  </g>
  <g id="Group_475" data-name="Group 475" transform="translate(-16 -5)">
    <g id="Group_67" data-name="Group 67" transform="translate(202 20)">
      <g id="Group_68" data-name="Group 68">
        <path id="Path_5" data-name="Path 5" d="M175.245,27.115l5.208,5.208-5.208,5.208" transform="translate(-167.991 -27.115)" fill="none" stroke="#00aeef" stroke-width="2"/>
        <line id="Line_5" data-name="Line 5" x2="12.462" transform="translate(0 5)" fill="none" stroke="#00aeef" stroke-width="2"/>
      </g>
    </g>
    <path id="Path_291" data-name="Path 291" d="M-63.9-11.368h-1.932a11.267,11.267,0,0,1,.1,1.232c0,.238,0,.644-.014,1.134-.28.014-.56.028-.812.028a15.524,15.524,0,0,1-1.932-.112l.028,1.694a17.164,17.164,0,0,0,1.96.07c.224,0,.476-.014.742-.028v1.176c0,.322,0,.658.014.994-1.722.742-3.122,2.016-3.122,3.234,0,1.484,1.918,2.66,3.276,2.66.924,0,1.54-.462,1.54-2.2,0-.476-.028-1.568-.056-2.674a9.439,9.439,0,0,1,2.632-.392c1.218,0,2.058.56,2.058,1.512,0,1.022-.9,1.582-2.03,1.792a10.78,10.78,0,0,1-1.722.1l.644,1.806A12.818,12.818,0,0,0-60.69.434c2.226-.56,3.094-1.806,3.094-3.458,0-1.932-1.694-3.052-3.85-3.052a11.6,11.6,0,0,0-2.688.364V-6.23c0-.406,0-.84.014-1.26.91-.112,1.876-.252,2.674-.434l-.042-1.736a17.146,17.146,0,0,1-2.576.5c.014-.35.028-.686.042-.994C-63.994-10.514-63.938-11.116-63.9-11.368Zm3.99,1.512-.77,1.358A22.275,22.275,0,0,1-57.3-6.454l.84-1.428A29.255,29.255,0,0,0-59.906-9.856Zm-7.238,7.84c0-.49.574-1.064,1.428-1.526.028.756.042,1.4.042,1.75,0,.476-.2.588-.448.588C-66.486-1.2-67.144-1.582-67.144-2.016Zm16.086-8.036V-9.3H-53.2v-.756ZM-53.2-7.378v-.8h2.142v.8Zm3.7,1.26v-5.208h-5.348V1.218H-53.2V-6.118Zm1.61,2.338v1.652H-50.2V-3.78ZM-46.34-.756v-4.4h-5.418V.028H-50.2V-.756Zm-.616-6.608v-.812h2.212v.812Zm2.212-2.7v.77h-2.212v-.77Zm1.68-1.26h-5.474V-6.1h3.794V-.8c0,.252-.1.336-.364.336s-1.218.028-2.03-.028a5.961,5.961,0,0,1,.56,1.708A6.877,6.877,0,0,0-43.834.9c.588-.266.77-.742.77-1.666Zm4.7,1.316-2.156-.028A8.51,8.51,0,0,1-40.4-8.61c0,.854.014,2.492.154,3.78.392,3.752,1.722,5.138,3.262,5.138,1.12,0,2-.854,2.926-3.29l-1.4-1.708c-.266,1.12-.826,2.758-1.484,2.758-.882,0-1.3-1.386-1.5-3.4-.084-1.008-.1-2.058-.084-2.968A11.327,11.327,0,0,1-38.36-10.01Zm7,.322-1.778.574c1.526,1.736,2.268,5.138,2.492,7.392l1.834-.714A15.556,15.556,0,0,0-31.36-9.688Zm13.146,6.65V-.756h-5.53V-3.038Zm-7.168,4.27h1.638V.714h5.53v.518h1.708v-5.74h-8.876Zm1.554-8.6a14.3,14.3,0,0,0,2.786-2.842,15.337,15.337,0,0,0,2.87,2.842Zm1.848-4.48a14.821,14.821,0,0,1-5.7,4.984A6.8,6.8,0,0,1-26.628-5.5a19.506,19.506,0,0,0,2.17-1.372v.98h6.972V-6.86a16.793,16.793,0,0,0,2.142,1.33,8.138,8.138,0,0,1,1.078-1.5,14.064,14.064,0,0,1-5.992-4.816Zm11.788,1.75c0,.154-.028.546-.056,1.078-.6.084-1.218.154-1.624.182a12.028,12.028,0,0,1-1.218.014l.182,1.792c.784-.112,1.862-.252,2.548-.336-.014.336-.042.672-.07.994-.8,1.176-2.2,3.024-3,4L-12.32-.84c.49-.658,1.176-1.68,1.764-2.562-.014,1.176-.028,1.988-.056,3.08,0,.224-.014.728-.042,1.036h1.932c-.042-.322-.084-.826-.1-1.078C-8.9-1.68-8.9-2.856-8.9-4c0-.364.014-.77.028-1.176A5.886,5.886,0,0,1-4.914-6.972a2.152,2.152,0,0,1,2.282,2.1c.014,2.184-1.75,3.192-4.214,3.556l.84,1.694C-2.534-.308-.756-2-.756-4.83A3.715,3.715,0,0,0-4.62-8.61,6.875,6.875,0,0,0-8.736-7.168c.014-.126.014-.266.028-.392.238-.364.518-.826.714-1.078L-8.512-9.3c.112-.882.224-1.6.308-1.988l-2.044-.07A7.73,7.73,0,0,1-10.192-10.094Zm20.9-.9H8.834a11.777,11.777,0,0,1,.1,1.288V-8.12c-1.274.112-2.632.238-3.822.35,0-.546.014-1.022.014-1.344a9.274,9.274,0,0,1,.084-1.456H3.234a10.814,10.814,0,0,1,.112,1.554V-7.6c-.448.042-.812.07-1.064.1-.714.07-1.358.1-1.764.1l.2,1.792c.364-.056,1.232-.2,1.68-.252.238-.028.56-.056.938-.1,0,1.3,0,2.66.014,3.262C3.416-.28,3.85.476,7.476.476a39.6,39.6,0,0,0,3.99-.224l.07-1.9A28.206,28.206,0,0,1,7.35-1.3c-2.1,0-2.226-.308-2.254-1.68-.028-.6-.014-1.89,0-3.178,1.19-.126,2.562-.252,3.808-.35a15.425,15.425,0,0,1-.112,1.694c-.028.266-.154.322-.434.322A7.417,7.417,0,0,1,7.07-4.676L7.028-3.122a21.189,21.189,0,0,0,2.114.21c.714,0,1.064-.182,1.218-.924a24.561,24.561,0,0,0,.21-2.8c.406-.028.77-.042,1.078-.056.364-.014,1.106-.028,1.344-.014V-8.428c-.406.042-.952.07-1.344.1-.322.014-.672.042-1.05.07.014-.462.014-.966.028-1.512C10.64-10.15,10.682-10.766,10.71-10.99Zm9.926,9.17c0-.532.532-.868,1.33-.868a4.322,4.322,0,0,1,1.12.154v.252c0,.826-.294,1.274-1.148,1.274C21.2-1.008,20.636-1.246,20.636-1.82Zm4.158-9.142h-2a5.945,5.945,0,0,1,.1.924c0,.294.014.868.014,1.554-.322.014-.658.014-.98.014a23.328,23.328,0,0,1-2.45-.126V-6.93c.826.056,1.624.084,2.45.084.322,0,.658,0,.994-.014.014.994.07,2.016.1,2.884a6.228,6.228,0,0,0-.91-.056c-1.9,0-3.108.98-3.108,2.394C19-.168,20.2.644,22.134.644c1.89,0,2.646-.952,2.73-2.3A14.685,14.685,0,0,1,26.572-.238l.966-1.47a9.163,9.163,0,0,0-2.716-1.806c-.056-.952-.126-2.072-.154-3.43.77-.056,1.5-.14,2.17-.238v-1.75a19.182,19.182,0,0,1-2.17.322c.014-.616.028-1.134.042-1.442A8.767,8.767,0,0,1,24.794-10.962Zm-6.832.154-1.932-.168A13.355,13.355,0,0,1,15.89-9.6a44.337,44.337,0,0,0-.574,5.838,16.444,16.444,0,0,0,.56,4.48L17.458.588c-.014-.2-.028-.434-.028-.574a3.907,3.907,0,0,1,.07-.658c.168-.756.616-2.184,1.008-3.332l-.854-.7c-.21.476-.448.952-.63,1.442a6.617,6.617,0,0,1-.056-.91,37.372,37.372,0,0,1,.672-5.418A9.09,9.09,0,0,1,17.962-10.808Zm13.09.63V-8.33c1.134.1,2.352.154,3.822.154,1.33,0,3.066-.084,4.046-.168v-1.862c-1.078.112-2.674.2-4.06.2A36.726,36.726,0,0,1,31.052-10.178Zm1.176,5.936L30.394-4.41a9.057,9.057,0,0,0-.28,2.016c0,1.918,1.61,3,4.816,3A21.574,21.574,0,0,0,39.788.126l-.014-1.974a19.223,19.223,0,0,1-4.914.56c-2.016,0-2.87-.644-2.87-1.54A5.159,5.159,0,0,1,32.228-4.242Zm16.114-6.916-1.988-.084a6.349,6.349,0,0,1-.07,1.414c-.028.168-.056.364-.084.574a20.009,20.009,0,0,1-2.744-.266v1.736c.714.07,1.54.112,2.422.126a22.4,22.4,0,0,1-1.6,4.7l1.652.588a5.174,5.174,0,0,1,.392-.616A4.844,4.844,0,0,1,50.2-4.62c1.372,0,2.086.7,2.086,1.54,0,2.058-3.094,2.436-6.16,1.932L46.62.658c4.522.49,7.56-.644,7.56-3.794,0-1.792-1.5-3-3.766-3a6.822,6.822,0,0,0-3.472.882c.21-.686.434-1.582.63-2.436,1.876-.1,4.1-.364,5.558-.6L53.1-9.954a34.279,34.279,0,0,1-5.18.658c.028-.154.056-.308.084-.434C48.1-10.192,48.188-10.668,48.342-11.158Zm12.334-.112-.448,1.68c1.092.28,4.214.938,5.628,1.12l.42-1.708A42.851,42.851,0,0,1,60.676-11.27Zm.084,2.814-1.876-.266a51.648,51.648,0,0,1-.7,5.852l1.61.406a3.392,3.392,0,0,1,.518-.812A4.984,4.984,0,0,1,64.2-4.928c1.218,0,2.086.672,2.086,1.582,0,1.778-2.226,2.8-6.426,2.226L60.4.714c5.824.49,7.84-1.47,7.84-4.018,0-1.694-1.428-3.206-3.878-3.206a6.853,6.853,0,0,0-4.13,1.33C60.326-5.978,60.578-7.686,60.76-8.456Z" transform="translate(112 31)" fill="#00aeef"/>
  </g>
</svg>
