<svg xmlns="http://www.w3.org/2000/svg" width="233.633" height="38.342" viewBox="0 0 233.633 38.342">
  <g id="Group_480" data-name="Group 480" transform="translate(0.001 0.002)">
    <path id="Subtraction_4" data-name="Subtraction 4" d="M12512.271,16894.34H12300l.742-4.18h122.3l3.409-19.822a18.041,18.041,0,0,1,17.091-14.34h90.09l-4.273,24a18.032,18.032,0,0,1-17.087,14.34Zm-70.12-32.432a2.058,2.058,0,0,0-1.942,1.65l-.368,2.119a1.359,1.359,0,0,0,.27,1.133,1.381,1.381,0,0,0,1.091.471h10.816l-14.187,13.721-.36.348a1.908,1.908,0,0,0-.568,1l-.691,3.943a1.408,1.408,0,0,0,.277,1.166,1.209,1.209,0,0,0,.952.432h22.417a2.047,2.047,0,0,0,1.891-1.648l.373-2.125a1.37,1.37,0,0,0-.274-1.139,1.33,1.33,0,0,0-1.044-.459h-10.824l14.212-13.811.42-.389a1.647,1.647,0,0,0,.462-.912l.687-3.9h.013a1.34,1.34,0,0,0-1.021-1.6Zm58.82,5.182a1.573,1.573,0,0,0-1.53,1.3l-3.21,18.176a1.131,1.131,0,0,0,.214.939,1.09,1.09,0,0,0,.854.363h7.789a1.581,1.581,0,0,0,1.53-1.3l2.472-13.979a2.86,2.86,0,0,1,2.6-2.473,1.686,1.686,0,0,1,1.314.6,2.286,2.286,0,0,1,.415,1.877l-.2,1.131a1.118,1.118,0,0,0,.214.934,1.086,1.086,0,0,0,.854.365h5.89a1.614,1.614,0,0,0,1.53-1.3l.56-3.162-.008-.008a2.475,2.475,0,0,0-.575-2.064,4.615,4.615,0,0,0-3.533-1.4h-5.062a6.671,6.671,0,0,0-3.511,1l-.818-1Zm-26.55.01c-2.6,0-4.99,1.551-5.33,3.459l-2.442,13.852a2.452,2.452,0,0,0,.566,2.059,4.615,4.615,0,0,0,3.542,1.4h15.671c2.6,0,4.988-1.553,5.334-3.461l.335-1.949a1.126,1.126,0,0,0-.214-.937,1.083,1.083,0,0,0-.854-.365h-7.789a1.583,1.583,0,0,0-1.53,1.3,2.882,2.882,0,0,1-2.578,2.377,1.68,1.68,0,0,1-1.307-.6,2.269,2.269,0,0,1-.423-1.863l.746-4.24h10c2.6,0,4.988-1.551,5.329-3.459l.729-4.113a2.439,2.439,0,0,0-.561-2.053,4.619,4.619,0,0,0-3.548-1.406h-15.679Zm-94.873,18.23h0v0l-12.5,0,11.418-25.66h12.461Zm-44.931,0h0v0l-12.446,0,8.819-19.873h-25.859l1.03-5.777v-.01H12346Zm25.852-9.379h-12.411l2.892-16.281h12.39l-2.87,16.279Zm122.461-.41h-4.333l.521-2.943a2.869,2.869,0,0,1,2.6-2.467,1.682,1.682,0,0,1,1.317.594,2.283,2.283,0,0,1,.412,1.873l-.518,2.941Zm-64.62-.152h-26.779l1.03-5.779h26.779l-1.03,5.777Z" transform="translate(-12300 -16856)" fill="#fff"/>
  </g>
</svg>
