<svg xmlns="http://www.w3.org/2000/svg" width="233.63" height="38.34" viewBox="0 0 233.63 38.34">
  <g id="Group_484" data-name="Group 484" transform="translate(0 -28.96)">
    <g id="Group_482" data-name="Group 482">
      <g id="Group_481" data-name="Group 481">
        <path id="Path_250" data-name="Path 250" d="M6.16,32.64H46L34.62,58.3H22.17l8.82-19.87H5.13l1.03-5.78Z" fill="#00aeef"/>
        <path id="Path_251" data-name="Path 251" d="M91.53,48.36l1.03-5.78h26.78l-1.03,5.78Z" fill="#00aeef"/>
        <path id="Path_252" data-name="Path 252" d="M63.34,32.64H50.95L48.06,48.92H60.47Z" fill="#00aeef"/>
        <path id="Path_253" data-name="Path 253" d="M78.47,32.64,67.05,58.29h12.5L90.93,32.64Z" fill="#00aeef"/>
      </g>
      <path id="Path_254" data-name="Path 254" d="M143.54,28.96A18.039,18.039,0,0,0,126.45,43.3l-3.41,19.82H.74L0,67.3H212.27a18.039,18.039,0,0,0,17.09-14.34l4.27-24H143.54Z" fill="#00aeef"/>
    </g>
    <g id="Group_485" data-name="Group 485">
      <path id="Path_262" data-name="Path 262" d="M190.09,40.07H174.42c-2.6,0-4.99,1.56-5.33,3.46l-2.44,13.85c-.34,1.9,1.51,3.46,4.11,3.46h15.67c2.6,0,4.99-1.56,5.33-3.46l.34-1.95a1.042,1.042,0,0,0-1.07-1.3h-7.79a1.581,1.581,0,0,0-1.53,1.3,2.887,2.887,0,0,1-2.58,2.38,1.917,1.917,0,0,1-1.73-2.47l.75-4.24h10c2.6,0,4.99-1.56,5.33-3.46l.73-4.11c.34-1.9-1.51-3.46-4.11-3.46Zm-6.64,5.5-.52,2.94H178.6l.52-2.94a2.877,2.877,0,0,1,2.6-2.47C182.93,43.1,183.69,44.18,183.45,45.57Z" fill="#fff"/>
      <path id="Path_263" data-name="Path 263" d="M165.76,36.47l-.69,3.9a1.623,1.623,0,0,1-.46.91l-.42.39L149.98,55.48H160.8a1.3,1.3,0,0,1,1.32,1.6l-.37,2.12a2.045,2.045,0,0,1-1.89,1.65H137.44a1.283,1.283,0,0,1-1.23-1.6l.69-3.94a1.951,1.951,0,0,1,.57-1l.36-.35,14.19-13.72H141.2a1.31,1.31,0,0,1-1.36-1.6l.37-2.12a2.055,2.055,0,0,1,1.94-1.65h22.6a1.332,1.332,0,0,1,1.02,1.6Z" fill="#fff"/>
      <path id="Path_264" data-name="Path 264" d="M222.27,43.53l-.56,3.16a1.623,1.623,0,0,1-1.53,1.3h-5.89a1.042,1.042,0,0,1-1.07-1.3l.2-1.13a1.9,1.9,0,0,0-1.73-2.47,2.867,2.867,0,0,0-2.6,2.47l-2.47,13.98a1.581,1.581,0,0,1-1.53,1.3H197.3a1.042,1.042,0,0,1-1.07-1.3l3.21-18.18a1.581,1.581,0,0,1,1.53-1.3h7.79l.82,1a6.679,6.679,0,0,1,3.51-1h5.06c2.6,0,4.44,1.56,4.11,3.46Z" fill="#fff"/>
    </g>
  </g>
</svg>
