<svg xmlns="http://www.w3.org/2000/svg" width="144" height="580.8" viewBox="0 0 144 580.8">
  <path id="Path_283" data-name="Path 283" d="M12.8-10A11.953,11.953,0,0,0,24.6,1.8,11.514,11.514,0,0,0,34-3L89.4-69v59A11.781,11.781,0,0,0,101,1.8,12.12,12.12,0,0,0,110.6-3L211.8-123.8a10.559,10.559,0,0,0,2.6-7,10.968,10.968,0,0,0-11-11,11.624,11.624,0,0,0-8.6,4L112.8-40v-90A11.7,11.7,0,0,0,101-141.8,11.653,11.653,0,0,0,89.4-130v26.8L36.4-40v-90a11.821,11.821,0,0,0-11.8-11.8A11.821,11.821,0,0,0,12.8-130ZM281,2c40.2,0,71.8-31.8,71.8-72s-31.6-72-71.8-72c-40,0-71.6,31.8-71.6,72S241,2,281,2Zm0-22.8c-26.4,0-47.4-21.8-47.4-49.2,0-27.6,21-49.4,47.4-49.4,26.6,0,47.6,21.8,47.6,49.4C328.6-42.6,307.6-20.8,281-20.8ZM374-10A11.953,11.953,0,0,0,385.8,1.8,11.953,11.953,0,0,0,397.6-10V-118.2H419c12,0,20.4,9,20.4,20.2,0,11-8.4,20-20.4,20h-4.4A10.542,10.542,0,0,0,404-67.4a14.948,14.948,0,0,0,3.6,9.2L454.4-2.6a11.354,11.354,0,0,0,9.2,4.4A11.608,11.608,0,0,0,475.2-9.8a11.083,11.083,0,0,0-2.8-7.8L435.2-62l2.6-.2c14-3.4,26-16.6,26-35.8,0-23.2-17.8-42-44-42h-34A11.781,11.781,0,0,0,374-128.4Zm117,0A11.953,11.953,0,0,0,502.8,1.8,11.953,11.953,0,0,0,514.6-10V-130a11.822,11.822,0,0,0-11.8-11.8A11.822,11.822,0,0,0,491-130Zm81.8,7.4A11.354,11.354,0,0,0,582,1.8,11.608,11.608,0,0,0,593.6-9.8a12.085,12.085,0,0,0-2.8-7.8l-45-53.8,44-52.2a11.324,11.324,0,0,0,2.6-7.2,10.844,10.844,0,0,0-11-11,10.614,10.614,0,0,0-8.4,4L522-77.2a11.514,11.514,0,0,0-2.4,7.2,11.868,11.868,0,0,0,2.6,7.2Z" transform="translate(2 -12.8) rotate(90)" fill="#e7eff7"/>
</svg>
