<svg xmlns="http://www.w3.org/2000/svg" width="143.6" height="725.4" viewBox="0 0 143.6 725.4">
  <path id="Path_282" data-name="Path 282" d="M4.6-16.4A11.04,11.04,0,0,0,2-9.2a11.1,11.1,0,0,0,11,11,12.862,12.862,0,0,0,8.6-4l82-98v48.8H76.4a10.968,10.968,0,0,0-11,11,10.844,10.844,0,0,0,11,11h27.2V-10A11.821,11.821,0,0,0,115.4,1.8,11.781,11.781,0,0,0,127-10V-130a11.653,11.653,0,0,0-11.6-11.8,12.483,12.483,0,0,0-9.6,4.6Zm148,4.6A11.953,11.953,0,0,0,164.4,0h37c43,0,72-31,72-70s-29-70-71.8-70H164.4a11.781,11.781,0,0,0-11.8,11.6ZM176.2-22v-96.2h25.4c29.2,0,47.6,21.4,47.6,48.2s-18.4,48-47.6,48ZM294.8-10A11.953,11.953,0,0,0,306.6,1.8,11.514,11.514,0,0,0,316-3L417.2-123.8a9.622,9.622,0,0,0,2.6-7,10.844,10.844,0,0,0-11-11,10.907,10.907,0,0,0-8.4,4L318.4-40v-90a11.821,11.821,0,0,0-11.8-11.8A11.822,11.822,0,0,0,294.8-130Zm139.8-1.8A11.953,11.953,0,0,0,446.4,0h54a10.927,10.927,0,0,0,10.8-11,10.8,10.8,0,0,0-10.8-11H458.2V-59.2h42.2A10.755,10.755,0,0,0,511.2-70a10.8,10.8,0,0,0-10.8-11H458.2v-37.2h42.2a10.8,10.8,0,0,0,10.8-11A10.755,10.755,0,0,0,500.4-140h-54a11.781,11.781,0,0,0-11.8,11.6Zm98,1.8A11.953,11.953,0,0,0,544.4,1.8,11.953,11.953,0,0,0,556.2-10V-118.2h21.4c12,0,20.4,9,20.4,20.2,0,11-8.4,20-20.4,20h-4.4a10.542,10.542,0,0,0-10.6,10.6,14.948,14.948,0,0,0,3.6,9.2L613-2.6a11.354,11.354,0,0,0,9.2,4.4A11.608,11.608,0,0,0,633.8-9.8a11.083,11.083,0,0,0-2.8-7.8L593.8-62l2.6-.2c14-3.4,26-16.6,26-35.8,0-23.2-17.8-42-44-42h-34a11.781,11.781,0,0,0-11.8,11.6Zm133.6,0A11.953,11.953,0,0,0,678,1.8,11.953,11.953,0,0,0,689.8-10V-118.2h26.6a10.844,10.844,0,0,0,11-11,10.8,10.8,0,0,0-11-10.8H639.6a10.8,10.8,0,0,0-11,10.8,10.844,10.844,0,0,0,11,11h26.6Z" transform="translate(1.8 -2) rotate(90)" fill="#fff" opacity="0.1"/>
</svg>
