<svg xmlns="http://www.w3.org/2000/svg" width="181.44" height="436.464" viewBox="0 0 181.44 436.464">
  <path id="Path_285" data-name="Path 285" d="M-215.46-12.6A15.061,15.061,0,0,0-200.592,2.268,15.061,15.061,0,0,0-185.724-12.6V-74.592h53.172A13.551,13.551,0,0,0-118.944-88.2a13.609,13.609,0,0,0-13.608-13.86h-53.172v-46.872h53.172a13.609,13.609,0,0,0,13.608-13.86A13.551,13.551,0,0,0-132.552-176.4h-68.04a14.844,14.844,0,0,0-14.868,14.616Zm74.592-8.064a13.91,13.91,0,0,0-3.276,9.072,13.983,13.983,0,0,0,13.86,13.86,16.206,16.206,0,0,0,10.836-5.04l103.32-123.48v61.488H-50.4A13.82,13.82,0,0,0-64.26-50.9,13.663,13.663,0,0,0-50.4-37.044h34.272V-12.6A14.9,14.9,0,0,0-1.26,2.268,14.844,14.844,0,0,0,13.356-12.6V-163.8A14.682,14.682,0,0,0-1.26-178.668a15.729,15.729,0,0,0-12.1,5.8ZM130.536,2.52c6.552,0,14.616-.5,23.184-4.032a14.538,14.538,0,0,0,11.844-14.112A14.522,14.522,0,0,0,151.2-29.988a8.049,8.049,0,0,0-3.528.756,46.409,46.409,0,0,1-17.136,3.024c-33.264,0-59.724-27.468-59.724-61.992,0-34.776,26.46-62.244,59.724-62.244,33.516,0,59.976,27.468,59.976,62.244a54.245,54.245,0,0,1-8.064,28.728L164.3-81.144a14.825,14.825,0,0,0-11.592-5.292A14.467,14.467,0,0,0,138.1-71.82a13.384,13.384,0,0,0,3.528,9.576L191.016-3.276a14.307,14.307,0,0,0,11.592,5.544,14.627,14.627,0,0,0,14.616-14.616,15.227,15.227,0,0,0-3.528-9.828L203.364-34.524A88.462,88.462,0,0,0,221-88.2c0-50.652-39.816-90.72-90.468-90.72-50.4,0-90.216,40.068-90.216,90.72S80.136,2.52,130.536,2.52Z" transform="translate(2.52 215.46) rotate(90)" fill="#f3f7fb" opacity="0.1"/>
</svg>
