<svg xmlns="http://www.w3.org/2000/svg" width="144" height="879.8" viewBox="0 0 144 879.8">
  <path id="Path_281" data-name="Path 281" d="M12.8-10A11.953,11.953,0,0,0,24.6,1.8,11.953,11.953,0,0,0,36.4-10V-118.2H56.2c12,0,20.6,9,20.6,20.2,0,11-8.6,20-20.6,20H53.8a10.844,10.844,0,0,0-11,11,10.8,10.8,0,0,0,11,10.8H57c26.4,0,44-18.8,44-41.8,0-23.2-17.6-42-44-42H24.6a11.781,11.781,0,0,0-11.8,11.6Zm106,0A11.953,11.953,0,0,0,130.6,1.8,11.953,11.953,0,0,0,142.4-10V-118.2h21.4c12,0,20.4,9,20.4,20.2,0,11-8.4,20-20.4,20h-4.4a10.542,10.542,0,0,0-10.6,10.6,14.948,14.948,0,0,0,3.6,9.2L199.2-2.6a11.354,11.354,0,0,0,9.2,4.4A11.608,11.608,0,0,0,220-9.8a11.083,11.083,0,0,0-2.8-7.8L180-62l2.6-.2c14-3.4,26-16.6,26-35.8,0-23.2-17.8-42-44-42h-34a11.781,11.781,0,0,0-11.8,11.6ZM296.6,2c40.2,0,71.8-31.8,71.8-72s-31.6-72-71.8-72c-40,0-71.6,31.8-71.6,72S256.6,2,296.6,2Zm0-22.8c-26.4,0-47.4-21.8-47.4-49.2,0-27.6,21-49.4,47.4-49.4,26.6,0,47.6,21.8,47.6,49.4C344.2-42.6,323.2-20.8,296.6-20.8Zm93,9A11.953,11.953,0,0,0,401.4,0h37c43,0,72-31,72-70s-29-70-71.8-70H401.4a11.781,11.781,0,0,0-11.8,11.6ZM413.2-22v-96.2h25.4c29.2,0,47.6,21.4,47.6,48.2s-18.4,48-47.6,48ZM584.4,2c29.6,0,53-21.8,53-55.2V-130a11.822,11.822,0,0,0-11.8-11.8A11.822,11.822,0,0,0,613.8-130v78.2C613.8-31.4,601-20,584.4-20c-16.2,0-29-11.4-29-31.8V-130a11.822,11.822,0,0,0-11.8-11.8A11.822,11.822,0,0,0,531.8-130v76.8C531.8-19.8,555,2,584.4,2ZM730.2,2C752,2,770.8-7.4,783-21.4a11.689,11.689,0,0,0,3.2-8A11.653,11.653,0,0,0,774.4-41c-3,0-6.2,1.8-9.4,4.6a45.973,45.973,0,0,1-34.8,15.6c-26.4,0-47.4-21.8-47.4-49.2,0-27.6,21-49.4,47.4-49.4A45.973,45.973,0,0,1,765-103.8c3.2,2.8,6.4,4.6,9.4,4.6a11.653,11.653,0,0,0,11.8-11.6,11.689,11.689,0,0,0-3.2-8c-12.2-13.8-31-23.2-52.8-23.2-40,0-71.6,31.8-71.6,72S690.2,2,730.2,2ZM831.4-10A11.953,11.953,0,0,0,843.2,1.8,11.953,11.953,0,0,0,855-10V-118.2h26.6a10.844,10.844,0,0,0,11-11,10.8,10.8,0,0,0-11-10.8H804.8a10.8,10.8,0,0,0-11,10.8,10.844,10.844,0,0,0,11,11h26.6Z" transform="translate(2 -12.8) rotate(90)" fill="#f3f7fb"/>
</svg>
