<svg xmlns="http://www.w3.org/2000/svg" width="975.2" height="144" viewBox="0 0 975.2 144">
  <path id="Path_287" data-name="Path 287" d="M-413.2,2c21.8,0,40.6-9.4,52.8-23.4a11.689,11.689,0,0,0,3.2-8A11.653,11.653,0,0,0-369-41c-3,0-6.2,1.8-9.4,4.6a45.973,45.973,0,0,1-34.8,15.6c-26.4,0-47.4-21.8-47.4-49.2,0-27.6,21-49.4,47.4-49.4a45.973,45.973,0,0,1,34.8,15.6c3.2,2.8,6.4,4.6,9.4,4.6a11.653,11.653,0,0,0,11.8-11.6,11.689,11.689,0,0,0-3.2-8c-12.2-13.8-31-23.2-52.8-23.2-40,0-71.6,31.8-71.6,72S-453.2,2-413.2,2Zm143.8,0c40.2,0,71.8-31.8,71.8-72s-31.6-72-71.8-72c-40,0-71.6,31.8-71.6,72S-309.4,2-269.4,2Zm0-22.8c-26.4,0-47.4-21.8-47.4-49.2,0-27.6,21-49.4,47.4-49.4,26.6,0,47.6,21.8,47.6,49.4C-221.8-42.6-242.8-20.8-269.4-20.8Zm70.6,4.4a11.04,11.04,0,0,0-2.6,7.2,11.1,11.1,0,0,0,11,11,11.624,11.624,0,0,0,8.6-4l82-98V-10A11.821,11.821,0,0,0-88,1.8,11.781,11.781,0,0,0-76.4-10V-37l53-63.2V-10A11.953,11.953,0,0,0-11.6,1.8,11.953,11.953,0,0,0,.2-10V-130a11.821,11.821,0,0,0-11.8-11.8,11.58,11.58,0,0,0-9.4,4.6l-55.4,66V-130A11.653,11.653,0,0,0-88-141.8c-3.8,0-6.6,1.2-9.6,4.6ZM25.8-10A11.953,11.953,0,0,0,37.6,1.8,11.953,11.953,0,0,0,49.4-10V-118.2H69.2c12,0,20.6,9,20.6,20.2,0,11-8.6,20-20.6,20H66.8a10.844,10.844,0,0,0-11,11,10.8,10.8,0,0,0,11,10.8H70c26.4,0,44-18.8,44-41.8,0-23.2-17.6-42-44-42H37.6a11.781,11.781,0,0,0-11.8,11.6ZM91-16.4a11.04,11.04,0,0,0-2.6,7.2,11.1,11.1,0,0,0,11,11,12.862,12.862,0,0,0,8.6-4l82-98v48.8H162.8a10.968,10.968,0,0,0-11,11,10.844,10.844,0,0,0,11,11H190V-10A11.821,11.821,0,0,0,201.8,1.8,11.781,11.781,0,0,0,213.4-10V-130a11.653,11.653,0,0,0-11.6-11.8,12.483,12.483,0,0,0-9.6,4.6ZM239-10A11.953,11.953,0,0,0,250.8,1.8,11.953,11.953,0,0,0,262.6-10V-98.8l62.2,74.2V-10A11.822,11.822,0,0,0,336.6,1.8,11.781,11.781,0,0,0,348.2-10V-130a11.653,11.653,0,0,0-11.6-11.8A11.7,11.7,0,0,0,324.8-130v69l-64.2-76.6a11.961,11.961,0,0,0-9.4-4.2A12.167,12.167,0,0,0,239-129.4Zm177.6,0A11.953,11.953,0,0,0,428.4,1.8,11.953,11.953,0,0,0,440.2-10V-66.8l47.8-57a10.622,10.622,0,0,0,2.4-7,10.8,10.8,0,0,0-10.8-11,11.009,11.009,0,0,0-8.6,4l-42.2,50L387-137.6a11.765,11.765,0,0,0-9.2-4.2,11.482,11.482,0,0,0-11.6,11.6,11.58,11.58,0,0,0,2.8,7.6l47.6,56.8Z" transform="translate(484.8 142)" fill="#f3f7fb"/>
</svg>
