<svg xmlns="http://www.w3.org/2000/svg" width="144" height="538.2" viewBox="0 0 144 538.2">
  <path id="Path_284" data-name="Path 284" d="M-263.7-10A11.953,11.953,0,0,0-251.9,1.8,11.953,11.953,0,0,0-240.1-10V-59.2h42.2A10.755,10.755,0,0,0-187.1-70a10.8,10.8,0,0,0-10.8-11h-42.2v-37.2h42.2a10.8,10.8,0,0,0,10.8-11A10.755,10.755,0,0,0-197.9-140h-54a11.781,11.781,0,0,0-11.8,11.6Zm98-1.8A11.953,11.953,0,0,0-153.9,0h54A10.927,10.927,0,0,0-89.1-11,10.8,10.8,0,0,0-99.9-22h-42.2V-130a11.821,11.821,0,0,0-11.8-11.8A11.821,11.821,0,0,0-165.7-130ZM-20.1,2C20.1,2,51.7-29.8,51.7-70s-31.6-72-71.8-72c-40,0-71.6,31.8-71.6,72S-60.1,2-20.1,2Zm0-22.8c-26.4,0-47.4-21.8-47.4-49.2,0-27.6,21-49.4,47.4-49.4,26.6,0,47.6,21.8,47.6,49.4C27.5-42.6,6.5-20.8-20.1-20.8ZM72.9-10A11.953,11.953,0,0,0,84.7,1.8,11.514,11.514,0,0,0,94.1-3l55.4-66v59A11.781,11.781,0,0,0,161.1,1.8,12.12,12.12,0,0,0,170.7-3L271.9-123.8a10.559,10.559,0,0,0,2.6-7,10.968,10.968,0,0,0-11-11,11.624,11.624,0,0,0-8.6,4L172.9-40v-90a11.7,11.7,0,0,0-11.8-11.8A11.653,11.653,0,0,0,149.5-130v26.8L96.5-40v-90a11.821,11.821,0,0,0-11.8-11.8A11.821,11.821,0,0,0,72.9-130Z" transform="translate(2 263.7) rotate(90)" fill="#f3f7fb" opacity="0.5"/>
</svg>
