<svg xmlns="http://www.w3.org/2000/svg" width="144" height="889.8" viewBox="0 0 144 889.8">
  <path id="Path_286" data-name="Path 286" d="M-370.2,2c21.8,0,40.6-9.4,52.8-23.4a11.689,11.689,0,0,0,3.2-8A11.653,11.653,0,0,0-326-41c-3,0-6.2,1.8-9.4,4.6a45.973,45.973,0,0,1-34.8,15.6c-26.4,0-47.4-21.8-47.4-49.2,0-27.6,21-49.4,47.4-49.4a45.973,45.973,0,0,1,34.8,15.6c3.2,2.8,6.4,4.6,9.4,4.6a11.653,11.653,0,0,0,11.8-11.6,11.689,11.689,0,0,0-3.2-8c-12.2-13.8-31-23.2-52.8-23.2-40,0-71.6,31.8-71.6,72S-410.2,2-370.2,2Zm143.8,0c40.2,0,71.8-31.8,71.8-72s-31.6-72-71.8-72c-40,0-71.6,31.8-71.6,72S-266.4,2-226.4,2Zm0-22.8c-26.4,0-47.4-21.8-47.4-49.2,0-27.6,21-49.4,47.4-49.4,26.6,0,47.6,21.8,47.6,49.4C-178.8-42.6-199.8-20.8-226.4-20.8Zm93,10.8A11.953,11.953,0,0,0-121.6,1.8,11.953,11.953,0,0,0-109.8-10V-98.8l62.2,74.2V-10A11.821,11.821,0,0,0-35.8,1.8,11.781,11.781,0,0,0-24.2-10V-130a11.653,11.653,0,0,0-11.6-11.8A11.7,11.7,0,0,0-47.6-130v69l-64.2-76.6a11.961,11.961,0,0,0-9.4-4.2,12.167,12.167,0,0,0-12.2,12.4ZM31-10A11.953,11.953,0,0,0,42.8,1.8,11.953,11.953,0,0,0,54.6-10V-118.2H81.2a10.844,10.844,0,0,0,11-11,10.8,10.8,0,0,0-11-10.8H4.4a10.8,10.8,0,0,0-11,10.8,10.844,10.844,0,0,0,11,11H31Zm39.2-6.4a11.04,11.04,0,0,0-2.6,7.2,11.1,11.1,0,0,0,11,11,12.862,12.862,0,0,0,8.6-4l82-98v48.8H142a10.968,10.968,0,0,0-11,11,10.844,10.844,0,0,0,11,11h27.2V-10A11.821,11.821,0,0,0,181,1.8,11.781,11.781,0,0,0,192.6-10V-130A11.653,11.653,0,0,0,181-141.8a12.483,12.483,0,0,0-9.6,4.6ZM285.6,2c21.8,0,40.6-9.4,52.8-23.4a11.689,11.689,0,0,0,3.2-8A11.653,11.653,0,0,0,329.8-41c-3,0-6.2,1.8-9.4,4.6a45.973,45.973,0,0,1-34.8,15.6c-26.4,0-47.4-21.8-47.4-49.2,0-27.6,21-49.4,47.4-49.4a45.973,45.973,0,0,1,34.8,15.6c3.2,2.8,6.4,4.6,9.4,4.6a11.653,11.653,0,0,0,11.8-11.6,11.689,11.689,0,0,0-3.2-8c-12.2-13.8-31-23.2-52.8-23.2-40,0-71.6,31.8-71.6,72S245.6,2,285.6,2ZM386.8-10A11.953,11.953,0,0,0,398.6,1.8,11.953,11.953,0,0,0,410.4-10V-118.2H437a10.844,10.844,0,0,0,11-11A10.8,10.8,0,0,0,437-140H360.2a10.8,10.8,0,0,0-11,10.8,10.844,10.844,0,0,0,11,11h26.6Z" transform="translate(2 441.8) rotate(90)" fill="#e7eff7"/>
</svg>
