<svg xmlns="http://www.w3.org/2000/svg" width="138.56" height="57.6" viewBox="0 0 138.56 57.6">
  <path id="Path_286" data-name="Path 286" d="M-68.4-4A4.781,4.781,0,0,0-63.68.72,4.781,4.781,0,0,0-58.96-4V-23.68h16.88A4.3,4.3,0,0,0-37.76-28a4.32,4.32,0,0,0-4.32-4.4H-58.96V-47.28h16.88a4.32,4.32,0,0,0,4.32-4.4A4.3,4.3,0,0,0-42.08-56h-21.6a4.712,4.712,0,0,0-4.72,4.64Zm23.68-2.56a4.416,4.416,0,0,0-1.04,2.88,4.439,4.439,0,0,0,4.4,4.4,5.145,5.145,0,0,0,3.44-1.6l32.8-39.2v19.52H-16a4.387,4.387,0,0,0-4.4,4.4,4.338,4.338,0,0,0,4.4,4.4H-5.12V-4A4.729,4.729,0,0,0-.4.72,4.712,4.712,0,0,0,4.24-4V-52A4.661,4.661,0,0,0-.4-56.72a4.993,4.993,0,0,0-3.84,1.84ZM41.44.8A18.78,18.78,0,0,0,48.8-.48a4.615,4.615,0,0,0,3.76-4.48A4.61,4.61,0,0,0,48-9.52a2.555,2.555,0,0,0-1.12.24,14.733,14.733,0,0,1-5.44.96C30.88-8.32,22.48-17.04,22.48-28c0-11.04,8.4-19.76,18.96-19.76,10.64,0,19.04,8.72,19.04,19.76a17.221,17.221,0,0,1-2.56,9.12l-5.76-6.88a4.706,4.706,0,0,0-3.68-1.68,4.593,4.593,0,0,0-4.64,4.64,4.249,4.249,0,0,0,1.12,3.04L60.64-1.04A4.542,4.542,0,0,0,64.32.72a4.643,4.643,0,0,0,4.64-4.64,4.834,4.834,0,0,0-1.12-3.12l-3.28-3.92A28.083,28.083,0,0,0,70.16-28,28.512,28.512,0,0,0,41.44-56.8,28.5,28.5,0,0,0,12.8-28,28.5,28.5,0,0,0,41.44.8Z" transform="translate(68.4 56.8)" fill="#f3f7fb" opacity="0.1"/>
</svg>
