<svg xmlns="http://www.w3.org/2000/svg" width="215.28" height="57.6" viewBox="0 0 215.28 57.6">
  <path id="Path_285" data-name="Path 285" d="M-105.48-4A4.781,4.781,0,0,0-100.76.72,4.781,4.781,0,0,0-96.04-4V-23.68h16.88A4.3,4.3,0,0,0-74.84-28a4.32,4.32,0,0,0-4.32-4.4H-96.04V-47.28h16.88a4.32,4.32,0,0,0,4.32-4.4A4.3,4.3,0,0,0-79.16-56h-21.6a4.712,4.712,0,0,0-4.72,4.64Zm39.2-.72A4.781,4.781,0,0,0-61.56,0h21.6a4.371,4.371,0,0,0,4.32-4.4,4.32,4.32,0,0,0-4.32-4.4H-56.84V-52a4.729,4.729,0,0,0-4.72-4.72A4.729,4.729,0,0,0-66.28-52ZM-8.04.8A28.512,28.512,0,0,0,20.68-28,28.512,28.512,0,0,0-8.04-56.8,28.5,28.5,0,0,0-36.68-28,28.5,28.5,0,0,0-8.04.8Zm0-9.12C-18.6-8.32-27-17.04-27-28c0-11.04,8.4-19.76,18.96-19.76C2.6-47.76,11-39.04,11-28,11-17.04,2.6-8.32-8.04-8.32ZM29.16-4A4.781,4.781,0,0,0,33.88.72,4.606,4.606,0,0,0,37.64-1.2L59.8-27.6V-4A4.712,4.712,0,0,0,64.44.72,4.848,4.848,0,0,0,68.28-1.2l40.48-48.32a4.223,4.223,0,0,0,1.04-2.8,4.387,4.387,0,0,0-4.4-4.4,4.65,4.65,0,0,0-3.44,1.6L69.16-16V-52a4.678,4.678,0,0,0-4.72-4.72A4.661,4.661,0,0,0,59.8-52v10.72L38.6-16V-52a4.729,4.729,0,0,0-4.72-4.72A4.729,4.729,0,0,0,29.16-52Z" transform="translate(105.48 56.8)" fill="#f3f7fb" opacity="0.5"/>
</svg>
