<svg xmlns="http://www.w3.org/2000/svg" width="355.92" height="57.6" viewBox="0 0 355.92 57.6">
  <path id="Path_287" data-name="Path 287" d="M-148.08.8a27.86,27.86,0,0,0,21.12-9.36,4.675,4.675,0,0,0,1.28-3.2,4.661,4.661,0,0,0-4.72-4.64,6.141,6.141,0,0,0-3.76,1.84,18.389,18.389,0,0,1-13.92,6.24c-10.56,0-18.96-8.72-18.96-19.68,0-11.04,8.4-19.76,18.96-19.76a18.389,18.389,0,0,1,13.92,6.24,6.141,6.141,0,0,0,3.76,1.84,4.661,4.661,0,0,0,4.72-4.64,4.675,4.675,0,0,0-1.28-3.2,28.078,28.078,0,0,0-21.12-9.28A28.5,28.5,0,0,0-176.72-28,28.5,28.5,0,0,0-148.08.8Zm57.52,0A28.512,28.512,0,0,0-61.84-28,28.512,28.512,0,0,0-90.56-56.8,28.5,28.5,0,0,0-119.2-28,28.5,28.5,0,0,0-90.56.8Zm0-9.12c-10.56,0-18.96-8.72-18.96-19.68,0-11.04,8.4-19.76,18.96-19.76,10.64,0,19.04,8.72,19.04,19.76C-71.52-17.04-79.92-8.32-90.56-8.32ZM-53.36-4A4.781,4.781,0,0,0-48.64.72,4.781,4.781,0,0,0-43.92-4V-39.52L-19.04-9.84V-4A4.729,4.729,0,0,0-14.32.72,4.712,4.712,0,0,0-9.68-4V-52a4.661,4.661,0,0,0-4.64-4.72A4.678,4.678,0,0,0-19.04-52v27.6L-44.72-55.04a4.784,4.784,0,0,0-3.76-1.68,4.867,4.867,0,0,0-4.88,4.96ZM12.4-4A4.781,4.781,0,0,0,17.12.72,4.781,4.781,0,0,0,21.84-4V-47.28H32.48a4.338,4.338,0,0,0,4.4-4.4A4.32,4.32,0,0,0,32.48-56H1.76a4.32,4.32,0,0,0-4.4,4.32,4.338,4.338,0,0,0,4.4,4.4H12.4ZM28.08-6.56a4.416,4.416,0,0,0-1.04,2.88,4.439,4.439,0,0,0,4.4,4.4,5.145,5.145,0,0,0,3.44-1.6l32.8-39.2v19.52H56.8a4.387,4.387,0,0,0-4.4,4.4,4.338,4.338,0,0,0,4.4,4.4H67.68V-4A4.729,4.729,0,0,0,72.4.72,4.712,4.712,0,0,0,77.04-4V-52a4.661,4.661,0,0,0-4.64-4.72,4.993,4.993,0,0,0-3.84,1.84ZM114.24.8a27.86,27.86,0,0,0,21.12-9.36,4.675,4.675,0,0,0,1.28-3.2,4.661,4.661,0,0,0-4.72-4.64,6.141,6.141,0,0,0-3.76,1.84,18.389,18.389,0,0,1-13.92,6.24c-10.56,0-18.96-8.72-18.96-19.68,0-11.04,8.4-19.76,18.96-19.76a18.389,18.389,0,0,1,13.92,6.24,6.141,6.141,0,0,0,3.76,1.84,4.661,4.661,0,0,0,4.72-4.64,4.675,4.675,0,0,0-1.28-3.2,28.078,28.078,0,0,0-21.12-9.28A28.5,28.5,0,0,0,85.6-28,28.5,28.5,0,0,0,114.24.8ZM154.72-4A4.781,4.781,0,0,0,159.44.72,4.781,4.781,0,0,0,164.16-4V-47.28H174.8a4.338,4.338,0,0,0,4.4-4.4A4.32,4.32,0,0,0,174.8-56H144.08a4.32,4.32,0,0,0-4.4,4.32,4.338,4.338,0,0,0,4.4,4.4h10.64Z" transform="translate(176.72 56.8)" fill="#e7eff7"/>
</svg>
