<svg xmlns="http://www.w3.org/2000/svg" width="232.32" height="57.6" viewBox="0 0 232.32 57.6">
  <path id="Path_284" data-name="Path 284" d="M5.12-4A4.781,4.781,0,0,0,9.84.72,4.606,4.606,0,0,0,13.6-1.2L35.76-27.6V-4A4.712,4.712,0,0,0,40.4.72,4.848,4.848,0,0,0,44.24-1.2L84.72-49.52a4.223,4.223,0,0,0,1.04-2.8,4.387,4.387,0,0,0-4.4-4.4,4.65,4.65,0,0,0-3.44,1.6L45.12-16V-52a4.678,4.678,0,0,0-4.72-4.72A4.661,4.661,0,0,0,35.76-52v10.72L14.56-16V-52a4.729,4.729,0,0,0-4.72-4.72A4.729,4.729,0,0,0,5.12-52ZM112.4.8A28.512,28.512,0,0,0,141.12-28,28.512,28.512,0,0,0,112.4-56.8,28.5,28.5,0,0,0,83.76-28,28.5,28.5,0,0,0,112.4.8Zm0-9.12c-10.56,0-18.96-8.72-18.96-19.68,0-11.04,8.4-19.76,18.96-19.76,10.64,0,19.04,8.72,19.04,19.76C131.44-17.04,123.04-8.32,112.4-8.32ZM149.6-4A4.781,4.781,0,0,0,154.32.72,4.781,4.781,0,0,0,159.04-4V-47.28h8.56a7.929,7.929,0,0,1,8.16,8.08,7.911,7.911,0,0,1-8.16,8h-1.76a4.217,4.217,0,0,0-4.24,4.24,5.979,5.979,0,0,0,1.44,3.68L181.76-1.04A4.542,4.542,0,0,0,185.44.72a4.643,4.643,0,0,0,4.64-4.64,4.433,4.433,0,0,0-1.12-3.12L174.08-24.8l1.04-.08c5.6-1.36,10.4-6.64,10.4-14.32,0-9.28-7.12-16.8-17.6-16.8h-13.6a4.712,4.712,0,0,0-4.72,4.64Zm46.8,0A4.781,4.781,0,0,0,201.12.72,4.781,4.781,0,0,0,205.84-4V-52a4.729,4.729,0,0,0-4.72-4.72A4.729,4.729,0,0,0,196.4-52Zm32.72,2.96A4.542,4.542,0,0,0,232.8.72a4.643,4.643,0,0,0,4.64-4.64,4.834,4.834,0,0,0-1.12-3.12l-18-21.52,17.6-20.88a4.529,4.529,0,0,0,1.04-2.88,4.338,4.338,0,0,0-4.4-4.4,4.245,4.245,0,0,0-3.36,1.6L208.8-30.88a4.605,4.605,0,0,0-.96,2.88,4.747,4.747,0,0,0,1.04,2.88Z" transform="translate(-5.12 56.8)" fill="#e7eff7"/>
</svg>
