<svg xmlns="http://www.w3.org/2000/svg" width="18.633" height="22.021" viewBox="0 0 18.633 22.021">
  <path id="Icon_ionic-md-train" data-name="Icon ionic-md-train" d="M12.442,1.875c-4.658,0-9.317.577-9.317,4.637v11.01A4.067,4.067,0,0,0,7.2,21.577L5.454,23.314V23.9h2.6l2.329-2.319h4.388L17.1,23.9h2.329v-.577l-1.747-1.736a4.07,4.07,0,0,0,4.076-4.055V6.517C21.758,2.452,17.587,1.875,12.442,1.875ZM7.2,19.259a1.736,1.736,0,1,1,1.747-1.736A1.74,1.74,0,0,1,7.2,19.259Zm4.076-8.11H5.454V6.512h5.823Zm2.329,0V6.512h5.823v4.637Zm4.076,8.11a1.736,1.736,0,1,1,1.747-1.736A1.74,1.74,0,0,1,17.682,19.259Z" transform="translate(-3.125 -1.875)" fill="#e3d6cf"/>
</svg>
