<svg xmlns="http://www.w3.org/2000/svg" width="13.305" height="59.58" viewBox="0 0 13.305 59.58">
  <path id="Path_404" data-name="Path 404" d="M14.13,6.86q-.105.12-.247.308t-.248.323a12.7,12.7,0,0,1-.877,1.3A17.771,17.771,0,0,1,11.483,10.3,9.957,9.957,0,0,1,9.96,11.63l-1.245-1a6.693,6.693,0,0,0,.967-.683,10.8,10.8,0,0,0,.885-.832,10.508,10.508,0,0,0,.727-.847,4.79,4.79,0,0,0,.48-.743H3.555q-.45,0-.87.023t-.9.068V5.945q.42.045.87.09t.9.045H11.94q.165,0,.413-.007t.48-.038a3.307,3.307,0,0,0,.353-.06Zm-6.06,2q0,1.17-.06,2.22a11.754,11.754,0,0,1-.278,1.988,6.813,6.813,0,0,1-.668,1.755A6.275,6.275,0,0,1,5.85,16.355a8.293,8.293,0,0,1-1.95,1.32L2.52,16.55a5.254,5.254,0,0,0,.712-.292,4.708,4.708,0,0,0,.727-.443,5.479,5.479,0,0,0,1.305-1.14,4.421,4.421,0,0,0,.743-1.328,7.277,7.277,0,0,0,.345-1.538,14.973,14.973,0,0,0,.1-1.755q0-.3-.015-.585a4.89,4.89,0,0,0-.075-.615ZM13.26,23.64a2.507,2.507,0,0,0-.225.435q-.1.255-.195.48a13.3,13.3,0,0,1-.555,1.59,15.055,15.055,0,0,1-.885,1.778,13.063,13.063,0,0,1-1.2,1.733,12.835,12.835,0,0,1-2.467,2.31A15.624,15.624,0,0,1,4.2,33.81L2.805,32.565a14.422,14.422,0,0,0,2.558-1.012,11.609,11.609,0,0,0,1.95-1.267,11.369,11.369,0,0,0,1.507-1.47,8.926,8.926,0,0,0,1.028-1.432,14.538,14.538,0,0,0,.795-1.575A6.977,6.977,0,0,0,11.1,24.39H5.76l.57-1.35h4.575A4.955,4.955,0,0,0,11.52,23a2.428,2.428,0,0,0,.51-.112ZM8.3,21.33q-.225.33-.442.72t-.337.615A15.53,15.53,0,0,1,6.338,24.48,16.567,16.567,0,0,1,4.7,26.362a14.366,14.366,0,0,1-2.085,1.7l-1.32-.99A12.506,12.506,0,0,0,3.03,25.83,11.87,11.87,0,0,0,4.358,24.5a13.7,13.7,0,0,0,.968-1.282q.4-.615.675-1.11a4.92,4.92,0,0,0,.3-.623,6.119,6.119,0,0,0,.255-.728ZM4.425,47.035v-8.2q0-.24-.007-.51t-.03-.54a3.826,3.826,0,0,0-.068-.48H6.105a7.025,7.025,0,0,0-.09.75q-.03.42-.03.78v7.8a1.739,1.739,0,0,0,.15.787.88.88,0,0,0,.6.413,5.382,5.382,0,0,0,1.3.12q.84,0,1.635-.053t1.56-.157q.765-.105,1.515-.255l-.06,1.62q-.645.09-1.4.165t-1.582.112q-.833.037-1.7.037a9.272,9.272,0,0,1-1.86-.15,2.653,2.653,0,0,1-1.08-.443,1.449,1.449,0,0,1-.51-.743A3.667,3.667,0,0,1,4.425,47.035Zm9.03-6.645q-.075.135-.2.33t-.218.36q-.255.465-.607,1.042T11.67,43.3q-.405.6-.848,1.155a11.822,11.822,0,0,1-.877.99L8.64,44.68a10.6,10.6,0,0,0,1.042-1.11q.5-.615.9-1.215a10.11,10.11,0,0,0,.608-1.02q-.135.03-.653.135l-1.3.262-1.71.345-1.89.382q-.96.2-1.845.368T2.2,43.15q-.705.15-1.095.24L.825,41.815q.42-.045,1.133-.157t1.605-.278q.893-.165,1.868-.353t1.92-.375L9.128,40.3q.833-.165,1.432-.292t.855-.187a5.145,5.145,0,0,0,.517-.135,1.727,1.727,0,0,0,.4-.18ZM12.225,54.9A2.292,2.292,0,0,0,12,55.25a3.373,3.373,0,0,0-.21.435q-.315.72-.772,1.605a19.482,19.482,0,0,1-1.035,1.762,14.66,14.66,0,0,1-1.208,1.6,21.8,21.8,0,0,1-1.823,1.845,19.82,19.82,0,0,1-2.108,1.657,16.431,16.431,0,0,1-2.3,1.313L1.335,64.19a14.555,14.555,0,0,0,2.348-1.185A16.927,16.927,0,0,0,5.79,61.46,18.172,18.172,0,0,0,7.5,59.795a12.669,12.669,0,0,0,.99-1.267,14.427,14.427,0,0,0,.855-1.4,6.622,6.622,0,0,0,.54-1.29H4.38q-.285,0-.623.022t-.615.045q-.278.022-.4.022V54.23q.15.015.45.037l.63.045q.33.022.555.022H9.945a5.946,5.946,0,0,0,.765-.045,3.436,3.436,0,0,0,.54-.105ZM8.97,59.66q.6.495,1.26,1.11t1.29,1.267q.63.653,1.177,1.253t.923,1.065l-1.32,1.17q-.555-.75-1.275-1.575t-1.53-1.658q-.81-.833-1.62-1.553Z" transform="translate(-0.825 -5.945)" fill="#5a4941"/>
</svg>
