<svg xmlns="http://www.w3.org/2000/svg" width="45.138" height="45.138" viewBox="0 0 45.138 45.138">
  <g id="Icon_feather-instagram" data-name="Icon feather-instagram" transform="translate(-1.5 -1.5)">
    <path id="Path_382" data-name="Path 382" d="M13.535,3H34.6A10.535,10.535,0,0,1,45.138,13.535V34.6A10.535,10.535,0,0,1,34.6,45.138H13.535A10.535,10.535,0,0,1,3,34.6V13.535A10.535,10.535,0,0,1,13.535,3Z" transform="translate(0 0)" fill="none" stroke="#5a4941" stroke-linecap="round" stroke-linejoin="round" stroke-width="3"/>
    <path id="Path_383" data-name="Path 383" d="M28.829,19.127a8.428,8.428,0,1,1-7.1-7.1,8.428,8.428,0,0,1,7.1,7.1Z" transform="translate(3.668 3.615)" fill="none" stroke="#5a4941" stroke-linecap="round" stroke-linejoin="round" stroke-width="3"/>
    <path id="Path_384" data-name="Path 384" d="M26.25,9.75h0" transform="translate(9.407 2.731)" fill="none" stroke="#5a4941" stroke-linecap="round" stroke-linejoin="round" stroke-width="3"/>
  </g>
</svg>
