<svg id="scroll_button" data-name="scroll button" xmlns="http://www.w3.org/2000/svg" width="10.698" height="134.915" viewBox="0 0 10.698 134.915">
  <path id="Path_401" data-name="Path 401" d="M6.453-10.35q.021.813.15,2.16v.041q0,.109-.226.109a.111.111,0,0,1-.109-.1,3.112,3.112,0,0,0-1-1.565,2.057,2.057,0,0,0-1.306-.451,1.731,1.731,0,0,0-1.347.54,1.685,1.685,0,0,0-.417,1.169q0,1.189,1.538,1.9l.7.321a5.34,5.34,0,0,1,2.078,1.47,2.562,2.562,0,0,1,.5,1.586,2.687,2.687,0,0,1-1,2.242,3.8,3.8,0,0,1-2.406.7A7.242,7.242,0,0,1,1.162-.718a16.426,16.426,0,0,1-.437-2.1L.711-2.926q0-.144.212-.144a.133.133,0,0,1,.137.082A3.849,3.849,0,0,0,2.29-1.217a2.335,2.335,0,0,0,1.477.54,2.084,2.084,0,0,0,1.6-.629,1.875,1.875,0,0,0,.5-1.333,2.02,2.02,0,0,0-.506-1.395A5.107,5.107,0,0,0,3.849-5.072l-.7-.349A4.379,4.379,0,0,1,1.47-6.706a2.454,2.454,0,0,1-.41-1.429,2.231,2.231,0,0,1,.909-1.853A3.166,3.166,0,0,1,3.958-10.6a3.828,3.828,0,0,1,1.148.171,2.967,2.967,0,0,0,.882.123A2.451,2.451,0,0,0,6.453-10.35Zm5.1,3.555a4.031,4.031,0,0,1,1.579.308q.52.226.52.588a1.107,1.107,0,0,1-.164.656.362.362,0,0,1-.308.185q-.239,0-.656-.615L12.435-5.8a1.112,1.112,0,0,0-.937-.567,1.465,1.465,0,0,0-1.306.841,3.933,3.933,0,0,0-.444,1.989,2.92,2.92,0,0,0,.7,2.023,1.677,1.677,0,0,0,1.278.629,2.353,2.353,0,0,0,1.169-.253,2.524,2.524,0,0,0,.718-.69q.055-.068.1-.068a.272.272,0,0,1,.178.068.15.15,0,0,1,.075.116.268.268,0,0,1-.027.082,2.7,2.7,0,0,1-2.406,1.4,2.752,2.752,0,0,1-2.2-1,3.357,3.357,0,0,1-.752-2.235,3.373,3.373,0,0,1,.984-2.522A2.758,2.758,0,0,1,11.553-6.795Zm5.441,1.5q.916-1.483,1.777-1.483a1.116,1.116,0,0,1,.574.13.325.325,0,0,1,.185.267.947.947,0,0,1-.267.636.6.6,0,0,1-.417.246,1,1,0,0,1-.4-.123.959.959,0,0,0-.362-.13q-.3,0-.69.52a1.9,1.9,0,0,0-.4,1.176v1.62a5.311,5.311,0,0,0,.1,1.429q.116.205.834.253.109.021.109.157t-.109.15q-.841-.027-1.388-.027-.588,0-1.429.027-.123,0-.123-.15a.139.139,0,0,1,.123-.157,2.421,2.421,0,0,0,.561-.089.422.422,0,0,0,.185-.164,3.882,3.882,0,0,0,.137-1.429V-4.4a3.278,3.278,0,0,0-.123-1.135.442.442,0,0,0-.383-.294l-.5.027q-.13,0-.13-.171,0-.144.171-.2a9.234,9.234,0,0,0,1.832-.567q.164,0,.164.123Q16.994-5.8,16.994-5.3Zm6.487-1.5a2.829,2.829,0,0,1,2.222.984A3.287,3.287,0,0,1,26.5-3.548a3.345,3.345,0,0,1-.978,2.5,2.8,2.8,0,0,1-2.037.82,2.8,2.8,0,0,1-2.229-1,3.31,3.31,0,0,1-.766-2.229,3.356,3.356,0,0,1,1-2.516A2.768,2.768,0,0,1,23.481-6.795Zm0,.417a1.51,1.51,0,0,0-1.36.813,4.045,4.045,0,0,0-.444,2.058,3.663,3.663,0,0,0,.567,2.263,1.48,1.48,0,0,0,1.237.595,1.546,1.546,0,0,0,1.381-.813,3.914,3.914,0,0,0,.458-2.044,3.637,3.637,0,0,0-.588-2.29A1.531,1.531,0,0,0,23.481-6.378Zm5.182,3.91V-8.6a3.773,3.773,0,0,0-.109-1.148.425.425,0,0,0-.437-.28L27.624-10q-.109,0-.109-.164a.182.182,0,0,1,.157-.2,14.145,14.145,0,0,0,1.9-.561q.137,0,.137.116-.055,1.292-.055,3.329v5.011a4.79,4.79,0,0,0,.109,1.442q.116.185.8.253a.149.149,0,0,1,.13.171q0,.15-.123.15-.841-.027-1.333-.027-.561,0-1.456.027-.109,0-.109-.15t.109-.171q.643-.048.745-.253A4.239,4.239,0,0,0,28.663-2.468Zm3.753,0V-8.6a3.773,3.773,0,0,0-.109-1.148.425.425,0,0,0-.437-.28L31.377-10q-.109,0-.109-.164a.182.182,0,0,1,.157-.2,14.145,14.145,0,0,0,1.9-.561q.137,0,.137.116-.055,1.292-.055,3.329v5.011a4.79,4.79,0,0,0,.109,1.442q.116.185.8.253a.149.149,0,0,1,.13.171q0,.15-.123.15-.841-.027-1.333-.027-.561,0-1.456.027-.109,0-.109-.15t.109-.171q.643-.048.745-.253A4.239,4.239,0,0,0,32.416-2.468Z" transform="translate(-0.226 -0.711) rotate(90)" fill="#5a4941"/>
  <path id="Path_353" data-name="Path 353" d="M-5322,737.314v88.607l7.99-17.794" transform="translate(5322.779 -691.211)" fill="none" stroke="#5a4941" stroke-width="1"/>
</svg>
