<svg xmlns="http://www.w3.org/2000/svg" width="303.124" height="76.092" viewBox="0 0 303.124 76.092">
  <g id="Layer_2" data-name="Layer 2" transform="translate(0 -1.589)">
    <g id="Group_362" data-name="Group 362" transform="translate(69.732 1.589)">
      <path id="Path_246" data-name="Path 246" d="M112.994,39.631a3.145,3.145,0,0,1-3.345-3.292V29.517l-.244.119a4.993,4.993,0,0,1-1.062.158,2.66,2.66,0,0,1-2.652-2.771v-5.5a2.844,2.844,0,0,1,2-2.731l3.715-1.247-.409-.442-.449.158a3.234,3.234,0,0,1-1.306.323,2.471,2.471,0,0,1-2.613-2.606v-5.3a3.051,3.051,0,0,1,1.834-2.811L114.379,4.1a4.253,4.253,0,0,1,1.874-.442h20.354a3.208,3.208,0,0,1,3.385,3.332v7.264a3.03,3.03,0,0,1-1.834,2.811L133.995,18.8h4.9a3.229,3.229,0,0,1,3.385,3.332V36.339a3.22,3.22,0,0,1-3.385,3.292h-25.9Zm25.9-18.784H124.7l12.483-5.859a.7.7,0,0,0,.488-.719V7.005a.943.943,0,0,0-1.062-1.042H116.253a1.917,1.917,0,0,0-.818.2L109.4,9.011a.669.669,0,0,0-.449.68v5.621c0,.323.079.482.284.482a1.084,1.084,0,0,0,.323-.119l2.283-1.042,3.022,3.853-6.367,2.408a.643.643,0,0,0-.488.64v5.5c0,.323.125.482.323.482a1.263,1.263,0,0,0,.323-.079l3.306-1.326V36.339c0,.719.323,1,1.023,1h25.9c.693,0,1.023-.323,1.023-1V21.89a.912.912,0,0,0-1.023-1.042Zm-19.662-6.664a1.045,1.045,0,0,0-.818-.442h-4.77l4.242-1.847h11.665v.442l-8.65,3.53Zm-1.023,12.16h15.419v5.542H118.213V26.343Zm13.1,1.927H120.581v1.768h10.728Z" transform="translate(-105.69 -3.066)" fill="#101010"/>
      <path id="Path_247" data-name="Path 247" d="M199.543,16.444H189.428V17.73h8.32a3.219,3.219,0,0,1,3.424,3.332v14.97a3.219,3.219,0,0,1-3.424,3.332H169.806a3.2,3.2,0,0,1-3.385-3.292V21.062a3.163,3.163,0,0,1,3.385-3.332h8.406V16.444h-10.2a2.887,2.887,0,0,1-3.022-2.969V9.259a2.909,2.909,0,0,1,3.022-2.969h10.2V5.769a2.9,2.9,0,0,1,3.022-3.009h5.219a2.939,2.939,0,0,1,2.976,3.009V6.29h10.114A2.942,2.942,0,0,1,202.565,9.3v4.137A2.922,2.922,0,0,1,199.543,16.444Zm0-7.865H187.1V5.769a.624.624,0,0,0-.653-.68h-5.219c-.488,0-.693.2-.693.68V8.579H168.012c-.449,0-.653.244-.653.68v4.454c0,.482.2.64.653.64h12.523v5.456H169.806c-.772,0-1.062.323-1.062,1V36.066c0,.68.323,1,1.062,1h27.942c.732,0,1.1-.323,1.1-1.042V20.851c0-.726-.369-1.042-1.1-1.042H187.1V14.352h12.444c.409,0,.653-.158.653-.686V9.292a.636.636,0,0,0-.653-.719ZM174.986,25.555h17.583v5.7H174.986ZM190.24,27.64H177.308v1.524H190.24Z" transform="translate(-125.865 -2.76)" fill="#101010"/>
      <path id="Path_248" data-name="Path 248" d="M226.092,20.507V6.942a3.176,3.176,0,0,1,3.345-3.332h28.8a3.239,3.239,0,0,1,3.385,3.371v7.343a3.619,3.619,0,0,1-.614,2.125,2.276,2.276,0,0,1,.165.924V19.86a2.556,2.556,0,0,1-1.267,2.289,2.311,2.311,0,0,1,.165.482c.165.64.369,1.247.449,1.729a7.28,7.28,0,0,1,.323,1.485,2.05,2.05,0,0,1-.165.924,3.246,3.246,0,0,1,.488,1.689v2.606a4.369,4.369,0,0,1-.079.719,3.192,3.192,0,0,1,.818,2.171v2.731a2.891,2.891,0,0,1-3.022,2.969H234.491a4.583,4.583,0,0,1-1.062-.158,3.026,3.026,0,0,1-1.874.561h-4.117c-.449,0-3.22-.284-2.976-3.048l1.63-16.495ZM258.236,5.939h-28.8c-.693,0-1.023.323-1.023,1v13.69l-1.63,16.574c0,.4.2.521.653.521h4.117c.488,0,.732-.158.772-.64l1.755-16.053v-5.7H258.19c.732,0,1.062-.323,1.062-1V6.988c0-.726-.323-1.042-1.023-1.042Zm.693,27.3h-9.217V31.75h8.366c.528,0,.732-.244.732-.68V28.464c0-.482-.2-.726-.693-.726h-8.406V26.254h8.241c.369,0,.528-.119.528-.4a.588.588,0,0,0-.04-.238l-1.425-5.061h1.062c.528,0,.732-.244.732-.68V17.386c0-.482-.2-.68-.693-.68H235.843c-.488,0-.693.2-.693.68v2.487c0,.442.2.68.693.68h1.59l-1.59,1.524a1.225,1.225,0,0,0-.37.845v2.329c0,.68.37,1,1.062,1h7.588v1.485h-8.973c-.449,0-.653.244-.653.68V31.07c0,.442.2.68.653.68h8.973v1.485H234.5a.619.619,0,0,0-.693.68v2.771a.621.621,0,0,0,.693.686H258.89a.621.621,0,0,0,.693-.686V33.953c0-.482-.244-.719-.653-.719Zm-24.841-23.4h19.338V11.4H234.088Zm8.973,10.715h8.65l.528,1.847h-11.1Z" transform="translate(-146.093 -3.049)" fill="#101010"/>
      <path id="Path_249" data-name="Path 249" d="M321.152,11.243v6.1c0,1.689-.772,2.732-2.527,2.732a3.172,3.172,0,0,1,1.63,2.89V36.091a3.222,3.222,0,0,1-3.424,3.292H302.592a3.507,3.507,0,0,1-1.471-.284,3.6,3.6,0,0,1-1.551.363h-1.96a4.6,4.6,0,0,1-1.062-.119,3.33,3.33,0,0,1-1.795.521H291.37a3.505,3.505,0,0,1-1.874-.521,3.882,3.882,0,0,1-.977.119h-2.039a2.875,2.875,0,0,1-3.022-3.009l.125-9.514a3.557,3.557,0,0,1,.165-1.042,3.711,3.711,0,0,1-.409-1.808V20.474a3.393,3.393,0,0,1,.772-2.171l.409-.482a3.148,3.148,0,0,1-1.181-2.613V10.636a3.3,3.3,0,0,1,.9-2.408l3.715-4.137A3.549,3.549,0,0,1,290.6,2.93h4.368a2.627,2.627,0,0,1,2.771,2.527,2.673,2.673,0,0,1-.488,1.405h2.527a3.294,3.294,0,0,1,1.425.4l4.117-3.49a3.373,3.373,0,0,1,2.243-.8h4.322a3.7,3.7,0,0,1,2.283.8l5.753,4.935a3.229,3.229,0,0,1,1.221,2.527Zm-21.212,5.14a.69.69,0,0,0-.772-.64h-3.022c-.369,0-.574.158-.574.521l.125,3.774h-3.873l8-10.312a.539.539,0,0,0,.125-.323c0-.125-.125-.2-.409-.2H295.3a1.01,1.01,0,0,0-.818.4l-1.55,1.887h-2.487l4.77-5.7a.688.688,0,0,0,.165-.323c0-.158-.125-.238-.409-.238H290.6a1.081,1.081,0,0,0-.858.4l-3.754,4.137a1.144,1.144,0,0,0-.323.884v4.572c0,.68.369,1,1.062,1h2.164l-2.936,3.53a.95.95,0,0,0-.284.719V24.1a.927.927,0,0,0,1.062,1.042h3.959V36.856c0,.482.165.68.693.68h3.385c.449,0,.732-.2.732-.68V25.138h4.447c.369,0,.528-.158.528-.482V24.5l-.528-8.109Zm-11.3,10.194H286.6c-.449,0-.653.2-.653.64l-.125,9.27c0,.482.165.68.653.68h2.039c.409,0,.653-.2.653-.68l.165-9.23c0-.482-.244-.68-.693-.68Zm10.807,0h-2c-.449,0-.653.2-.653.64l.079,9.27c0,.482.244.68.732.68h1.96c.449,0,.732-.2.732-.68l-.165-9.23c0-.482-.2-.68-.693-.68ZM312.621,5.5a1.61,1.61,0,0,0-.732-.244h-4.322a1.275,1.275,0,0,0-.732.244L301,10.478a.879.879,0,0,0-.37.765v6.1c0,.284.079.4.2.4a.81.81,0,0,0,.323-.119l1.92-1.768v3.451c0,.482.244.68.693.68H315.32a.616.616,0,0,0,.693-.68V15.657l2.243,1.966a.559.559,0,0,0,.323.119c.165,0,.2-.119.2-.4v-6.1a.834.834,0,0,0-.409-.765L312.621,5.5Zm4.242,16.415H302.546c-.653,0-.976.323-.976,1V36.091c0,.719.323,1,1.023,1h14.238c.693,0,1.062-.323,1.062-1V22.968a.931.931,0,0,0-1.023-1.042Zm-11.83-7.746,4.691-4.011,4.566,3.972h-9.138c-.04,0-.079.04-.125.04Zm2.283,13.288h4.935V31.6h-4.935Z" transform="translate(-166.13 -2.818)" fill="#101010"/>
      <path id="Path_250" data-name="Path 250" d="M346.406,22.944a2.426,2.426,0,0,1,.323-.884c-.653-.158-1.181-.323-1.386-.363a2.918,2.918,0,0,1-2.164-2.89V14.149a3.078,3.078,0,0,1,.449-1.729,3.023,3.023,0,0,1-.449-1.643V6.08a2.691,2.691,0,0,1,2.731-2.85,5.079,5.079,0,0,1,.977.158,8.445,8.445,0,0,1,.937.2q3.365.841,6.73,1.808a3.164,3.164,0,0,1,3.022-1.927H376.3a3.219,3.219,0,0,1,3.345,3.371V17.2a4.068,4.068,0,0,1-.079.726,2.754,2.754,0,0,1,.977,2.21v2.731a3.294,3.294,0,0,1-.323,1.485,4.3,4.3,0,0,1,.284,1.445V36.549a3.228,3.228,0,0,1-3.385,3.332h-6.162a3.263,3.263,0,0,1-1.715-.442,3.149,3.149,0,0,1-1.755.442h-3.424a2.969,2.969,0,0,1-1.59-.442,2.662,2.662,0,0,1-1.63.442h-3.266a2.822,2.822,0,0,1-2.771-2.527,3.37,3.37,0,0,1,.449-1.445l.772-1.326h-1.59l-.653,2.89a2.938,2.938,0,0,1-3.022,2.487H346.2a2.676,2.676,0,0,1-2.936-2.732,5.411,5.411,0,0,1,.125-1.161l3.022-13.123Zm7.587-15.294-7.832-2.045c-.04-.04-.165-.04-.244-.04-.284,0-.409.158-.409.521v4.7a.588.588,0,0,0,.449.64l7.832,2.045a.529.529,0,0,0,.244.04c.284,0,.409-.158.409-.561v-4.7A.562.562,0,0,0,353.994,7.651Zm0,8.109-7.832-2.045a.7.7,0,0,0-.284-.04c-.244,0-.369.158-.369.482v4.658a.616.616,0,0,0,.449.64l7.832,2.085a.705.705,0,0,0,.284.04c.244,0,.369-.2.369-.6V16.36A.538.538,0,0,0,353.994,15.759Zm0,7.145h-4.731a.587.587,0,0,0-.614.561l-3.022,13.526a.516.516,0,0,0-.04.244c0,.284.2.4.614.4h4.566c.409,0,.614-.119.653-.482l3.141-13.565v-.2c0-.284-.165-.482-.574-.482Zm23.541-3.451H356.244a.6.6,0,0,0-.693.68v2.732c0,.482.2.64.693.64h2.118l-5.014,8.551a.542.542,0,0,0-.125.284c0,.2.2.244.528.244h3.47a.911.911,0,0,0,.818-.4l1.874-3.292h1.755l-4.612,8.148a.853.853,0,0,0-.125.323c0,.158.165.244.449.244h3.47a.742.742,0,0,0,.732-.442l4.691-8.267h1.755L363.706,37a.7.7,0,0,0-.079.323c0,.2.125.284.449.284H367.5a.709.709,0,0,0,.732-.442l4.242-8.267h.693V33.56h-2.2c-.488,0-.693.2-.693.68v2.692c0,.442.2.68.693.68h6.162a.914.914,0,0,0,1.023-1.042V25.814a.912.912,0,0,0-1.023-1.042h-15.1l.732-1.247h14.766c.449,0,.693-.158.693-.64V20.153a.616.616,0,0,0-.693-.68ZM376.314,5.81H357.59c-.653,0-.937.363-.937,1.042V17.211c0,.726.284,1,1.023,1h18.646c.693,0,1.023-.323,1.023-1V6.852a.912.912,0,0,0-1.023-1.042ZM362.69,9.062h8.61v1.445h-8.61Zm0,4.414h8.61v1.485h-8.61Z" transform="translate(-186.488 -2.92)" fill="#101010"/>
      <path id="Path_251" data-name="Path 251" d="M439.963,18.943v3.616a2.9,2.9,0,0,1-.574,1.808,2.743,2.743,0,0,1,.488,1.649v4.658a2.972,2.972,0,0,1-1.181,2.408v3.292a3.2,3.2,0,0,1-3.385,3.332H422.868a3.827,3.827,0,0,1-1.834-.442,3.562,3.562,0,0,1-1.795.442H406.881a3.231,3.231,0,0,1-3.424-3.292V33.082a3.122,3.122,0,0,1-1.141-2.289V26.135a3.313,3.313,0,0,1,.488-1.729,3.179,3.179,0,0,1-.574-1.847V18.943a3.009,3.009,0,0,1,1.023-2.289,3.982,3.982,0,0,1-.079-.68V6.942a3.208,3.208,0,0,1,3.385-3.332h12.688A3.314,3.314,0,0,1,421,4.092a3.845,3.845,0,0,1,1.834-.482h12.806a3.261,3.261,0,0,1,3.385,3.371v8.953a5.578,5.578,0,0,1-.079.765,2.993,2.993,0,0,1,1.023,2.25Zm-3.022-.68H424.214V17.221a.631.631,0,0,0-.04-.284h11.46a.9.9,0,0,0,1.023-1V6.981a.931.931,0,0,0-1.023-1.042H422.828c-.693,0-.977.323-.977,1v9.032a1.721,1.721,0,0,0,.125.561H420.1a.869.869,0,0,0,.165-.6V6.981a.912.912,0,0,0-1.023-1.042H406.558c-.732,0-1.023.323-1.023,1v9.032c0,.68.323.963,1.023.963H418.1c0,.079-.04.158-.04.284v1.042H405.258c-.488,0-.653.244-.653.68v3.616c0,.442.165.68.653.68H410.6l-5.509,2.25a.578.578,0,0,0-.409.64v4.658c0,.323.04.482.244.482a.81.81,0,0,0,.323-.119l.574-.284v5.542c0,.68.369,1,1.062,1h12.358a.931.931,0,0,0,1.023-1.042V27.494c0-.68-.323-1.082-1.023-1.082h-4.652l6.367-2.969h.449l6.367,2.969h-4.9c-.732,0-1.023.363-1.023,1.042v8.953c0,.68.323,1,1.023,1h12.443a.914.914,0,0,0,1.023-1.042V30.786l.574.284a.717.717,0,0,0,.323.079c.244,0,.323-.158.323-.482V26.01a.67.67,0,0,0-.488-.64l-5.265-2.125h5.1a.6.6,0,0,0,.693-.68V18.95c0-.442-.2-.68-.653-.68Zm-25.58-8.188h3.1v2.811h-3.1Zm.165,20.513h3.1V33.32h-3.1Zm15.907,0h3.22V33.32h-3.22Zm.2-20.513h3.22v2.811h-3.22Z" transform="translate(-206.578 -3.049)" fill="#101010"/>
    </g>
    <path id="Path_252" data-name="Path 252" d="M47.587,3.612A3.615,3.615,0,0,1,51.2,7.224v50.41a3.615,3.615,0,0,1-3.612,3.612H46.7v2.522H39.809V61.246H30.846v2.522H23.953V61.246H14.989v2.522H8.1V61.246H7.218a3.615,3.615,0,0,1-3.612-3.612V7.224A3.611,3.611,0,0,1,7.218,3.612H47.581M12.726,15.82H42.091a1.993,1.993,0,0,0,0-3.985H12.726a1.993,1.993,0,1,0,0,3.985m18.041,28.3H42.813a1.174,1.174,0,0,0,0-2.348H30.767a1.174,1.174,0,0,0,0,2.348M12,44.119H24.049a1.174,1.174,0,1,0,0-2.348H12a1.174,1.174,0,0,0,0,2.348m18.764,4.533H42.813a1.174,1.174,0,0,0,0-2.348H30.767a1.174,1.174,0,1,0,0,2.348M12,48.652H24.049a1.174,1.174,0,1,0,0-2.348H12a1.174,1.174,0,0,0,0,2.348m18.764,4.533H42.813a1.174,1.174,0,0,0,0-2.348H30.767a1.174,1.174,0,1,0,0,2.348M12,53.185H24.049a1.174,1.174,0,1,0,0-2.348H12a1.174,1.174,0,1,0,0,2.348M47.587,0H7.224A7.23,7.23,0,0,0,0,7.224v50.41a7.243,7.243,0,0,0,4.545,6.712A3.613,3.613,0,0,0,8.109,67.38H15a3.614,3.614,0,0,0,3.443-2.522H20.51a3.614,3.614,0,0,0,3.443,2.522h6.893a3.614,3.614,0,0,0,3.443-2.522H36.36A3.614,3.614,0,0,0,39.8,67.38H46.7a3.6,3.6,0,0,0,3.564-3.034A7.236,7.236,0,0,0,54.8,57.634V7.224A7.23,7.23,0,0,0,47.581,0h0Z" transform="translate(0 6.237)" fill="#101010"/>
    <g id="Group_363" data-name="Group 363" transform="translate(68.103 42.264)">
      <path id="Path_253" data-name="Path 253" d="M131.613,83.553l1.94-1.293h-7.944l1.94,1.293q-1,1.079-2,2.032a22.453,22.453,0,0,0,3.913,4.77,22.221,22.221,0,0,0,4-4.922c-.627-.594-1.24-1.221-1.847-1.88Z" transform="translate(-110.817 -70.483)" fill="#101010"/>
      <path id="Path_254" data-name="Path 254" d="M103.22,64.41V99.827h37.271V64.41Zm30.053,31.762a47.612,47.612,0,0,1-11.454-5.509A47.549,47.549,0,0,1,110.4,96.172l-3.536-4.559a43.4,43.4,0,0,0,10.979-4.341,34.911,34.911,0,0,1-3.82-4.559c-.983.7-2.026,1.372-3.127,2.032l-3.695-3.88a34.257,34.257,0,0,0,7.1-4.678h-6.321v-4.9H119.24V68.059h5.384v3.233H135.76v4.9h-6.129a34.171,34.171,0,0,0,7.1,4.678l-3.662,3.88q-1.752-1.049-3.319-2.157a35.629,35.629,0,0,1-3.912,4.678,42.547,42.547,0,0,0,10.979,4.341l-3.569,4.559Z" transform="translate(-103.22 -64.41)" fill="#101010"/>
      <path id="Path_255" data-name="Path 255" d="M192.19,84.83v4.308a9.388,9.388,0,0,0,.878-4.308Z" transform="translate(-133.489 -71.357)" fill="#101010"/>
      <path id="Path_256" data-name="Path 256" d="M196.853,77.6h-2.877c-.231.31-.462.607-.686.891h2.751Q196.576,77.936,196.853,77.6Z" transform="translate(-133.863 -68.897)" fill="#101010"/>
      <path id="Path_257" data-name="Path 257" d="M203.685,87.509h.468V84.83h-.9v2.032C203.25,87.291,203.4,87.509,203.685,87.509Z" transform="translate(-137.252 -71.357)" fill="#101010"/>
      <path id="Path_258" data-name="Path 258" d="M188.369,91.164h-4.315V84.487l-.937-.957v1.2H180.96v2.738c.686-.2,1.4-.442,2.125-.706v5.021l-.059.033h6.7c.02-.264.053-.666.092-1.2l-1.438-.706v1.26Z" transform="translate(-129.668 -70.915)" fill="#101010"/>
      <path id="Path_259" data-name="Path 259" d="M162.79,64.41V99.827h37.271V64.41Zm30.568,32.1a13.356,13.356,0,0,1-7.1-4.618q-2.286,3.266-7.416,4.618l-3.378-4.157q5.008-1.019,6.571-2.863h-5.285V85.332c-.521.2-1.181.429-1.973.68V92.2a4.592,4.592,0,0,1-.877,3.233,3.558,3.558,0,0,1-2.659.8h-2.91l-1.188-4.9h1.405a1.334,1.334,0,0,0,.924-.218,1.485,1.485,0,0,0,.2-.957V87.3c-.937.185-1.729.33-2.375.429l-.878-5.08c1-.125,2.085-.3,3.253-.521V78.213h-2.6V73.225h2.6V68.237h5.1v4.988h2.158v.369a21.03,21.03,0,0,0,4.6-5.879l4.849.8q-.129.247-.376.772h6.446v2.83q-.782,1.079-1.405,1.88H194.8V84.646h-4.414v-.864H189.01a2.611,2.611,0,0,1-1.814-.462,2.649,2.649,0,0,1-.561-2V77.87h-.812a15.125,15.125,0,0,1-.97,6h3.695c-.02.33-.053.8-.092,1.419H195.9v4.19h-5.569a13.263,13.263,0,0,0,6.1,2.771L193.371,96.5Z" transform="translate(-123.487 -64.41)" fill="#101010"/>
      <path id="Path_260" data-name="Path 260" d="M222.35,64.41V99.827h37.271V64.41H222.35Zm16.257,15.571v7.231c0,.963.284,1.577.845,1.847a5.93,5.93,0,0,0,2.124.244q5.1,0,11.421-.31l.251,5.483q-5.879.336-11.823.336-4.6,0-6.354-1.075-2.158-1.3-2.157-5.107V80.41l-5.192.369-.376-5.635,5.569-.4V69.418h5.694V74.34l16.02-1.108A70.868,70.868,0,0,1,249.81,86.9l-5.661-1.353a36.955,36.955,0,0,0,2.751-6.156Z" transform="translate(-143.75 -64.41)" fill="#101010"/>
      <path id="Path_261" data-name="Path 261" d="M281.92,64.41V99.827h37.271V64.41Zm9.593,4.9a51.246,51.246,0,0,1,9.389,6.129l-3.814,4.4a46.292,46.292,0,0,0-9.164-6l3.6-4.526Zm.251,25.613-3.16-5.232a44.65,44.65,0,0,0,21.027-13.512l3.569,4.988a50.973,50.973,0,0,1-21.43,13.763Z" transform="translate(-164.017 -64.41)" fill="#101010"/>
      <path id="Path_262" data-name="Path 262" d="M341.49,64.41V99.827h37.271V64.41Zm25.989,22.327a32.67,32.67,0,0,1-12.173,8.986l-4.1-4.374a33.044,33.044,0,0,0,9.29-5.542,54.256,54.256,0,0,0-6.664-3.292l3.536-3.82a57.191,57.191,0,0,1,6.822,2.989,22.265,22.265,0,0,0,2.474-4.988h-9.29a37.631,37.631,0,0,1-6.354,6.492l-4.665-3.174A39.216,39.216,0,0,0,356.091,68.5l5.819,1.293c-.376.68-.759,1.333-1.161,1.973h13.143a31.757,31.757,0,0,1-6.413,14.964Z" transform="translate(-184.284 -64.41)" fill="#101010"/>
      <path id="Path_263" data-name="Path 263" d="M401.06,64.41V99.827h37.271V64.41Zm31.214,20.631H407.117V79.189h25.158Z" transform="translate(-204.55 -64.41)" fill="#101010"/>
    </g>
  </g>
</svg>
