<svg xmlns="http://www.w3.org/2000/svg" width="264.473" height="66.39" viewBox="0 0 264.473 66.39">
  <g id="Layer_2" data-name="Layer 2" transform="translate(0 -1.589)">
    <g id="Group_362" data-name="Group 362" transform="translate(60.841 1.589)">
      <path id="Path_246" data-name="Path 246" d="M112.062,35.045a2.744,2.744,0,0,1-2.919-2.873V26.22l-.213.1a4.356,4.356,0,0,1-.927.138,2.321,2.321,0,0,1-2.314-2.418v-4.8a2.481,2.481,0,0,1,1.744-2.383l3.241-1.088-.357-.386-.391.138a2.822,2.822,0,0,1-1.14.282,2.156,2.156,0,0,1-2.28-2.274V8.916a2.662,2.662,0,0,1,1.6-2.452l5.164-2.418a3.711,3.711,0,0,1,1.635-.386h17.759a2.8,2.8,0,0,1,2.953,2.907v6.338a2.643,2.643,0,0,1-1.6,2.452l-3.632,1.508h4.271a2.818,2.818,0,0,1,2.953,2.907v12.4a2.809,2.809,0,0,1-2.953,2.873h-22.6Zm22.6-16.389H122.275l10.891-5.112a.607.607,0,0,0,.426-.627V6.579a.823.823,0,0,0-.927-.91H114.906a1.672,1.672,0,0,0-.714.173l-5.267,2.487a.584.584,0,0,0-.391.593v4.9c0,.282.069.42.248.42a.946.946,0,0,0,.282-.1l1.992-.91,2.637,3.362-5.555,2.1a.561.561,0,0,0-.426.558v4.8c0,.282.109.42.282.42a1.1,1.1,0,0,0,.282-.069l2.884-1.157v8.928c0,.627.282.875.892.875h22.6c.6,0,.892-.282.892-.875V19.565a.8.8,0,0,0-.892-.91Zm-17.154-5.814a.912.912,0,0,0-.714-.386h-4.162l3.7-1.612h10.178v.386l-7.547,3.08Zm-.892,10.609h13.453v4.835H116.616V23.451Zm11.427,1.681h-9.36v1.543h9.36Z" transform="translate(-105.69 -3.142)" fill="#c30d23"/>
      <path id="Path_247" data-name="Path 247" d="M195.137,14.7h-8.825v1.123h7.259a2.809,2.809,0,0,1,2.988,2.907V31.79a2.809,2.809,0,0,1-2.988,2.907H169.192a2.788,2.788,0,0,1-2.953-2.873v-13.1a2.759,2.759,0,0,1,2.953-2.907h7.334V14.7h-8.9a2.519,2.519,0,0,1-2.636-2.59V8.43a2.538,2.538,0,0,1,2.636-2.59h8.9V5.385a2.53,2.53,0,0,1,2.637-2.625h4.553a2.565,2.565,0,0,1,2.6,2.625V5.84h8.825a2.567,2.567,0,0,1,2.637,2.625v3.609A2.55,2.55,0,0,1,195.137,14.7Zm0-6.862H184.28V5.385a.544.544,0,0,0-.57-.593h-4.553c-.426,0-.6.173-.6.593V7.837H167.626c-.391,0-.57.213-.57.593v3.886c0,.42.178.558.57.558h10.926v4.761h-9.36c-.674,0-.927.282-.927.875V31.819c0,.593.282.875.927.875h24.379c.639,0,.961-.282.961-.91V18.544c0-.633-.322-.91-.961-.91H184.28V12.874h10.857c.357,0,.57-.138.57-.6V8.459a.555.555,0,0,0-.57-.627ZM173.711,22.649h15.341v4.974H173.711Zm13.309,1.819H175.737V25.8H187.02Z" transform="translate(-130.854 -2.76)" fill="#c30d23"/>
      <path id="Path_248" data-name="Path 248" d="M225.882,18.352V6.517A2.771,2.771,0,0,1,228.8,3.61h25.127a2.826,2.826,0,0,1,2.953,2.942v6.407a3.157,3.157,0,0,1-.535,1.854,1.986,1.986,0,0,1,.144.806v2.17a2.23,2.23,0,0,1-1.105,2,2.018,2.018,0,0,1,.144.42c.144.558.322,1.088.391,1.508a6.353,6.353,0,0,1,.282,1.3,1.788,1.788,0,0,1-.144.806,2.832,2.832,0,0,1,.426,1.474v2.274a3.808,3.808,0,0,1-.069.627,2.785,2.785,0,0,1,.714,1.894v2.383a2.522,2.522,0,0,1-2.637,2.59H233.21a4,4,0,0,1-.927-.138,2.641,2.641,0,0,1-1.635.489h-3.592c-.391,0-2.809-.248-2.6-2.66l1.422-14.391Zm28.046-12.71H228.8c-.6,0-.892.282-.892.875V18.462l-1.422,14.46c0,.351.178.455.57.455h3.592c.426,0,.639-.138.673-.558l1.531-14.006V13.839h21.034c.639,0,.927-.282.927-.875V6.557c0-.633-.282-.91-.892-.91Zm.6,23.815H246.49v-1.3h7.3c.46,0,.639-.213.639-.593V25.295c0-.42-.178-.633-.6-.633H246.49v-1.3h7.19c.322,0,.46-.1.46-.351a.514.514,0,0,0-.035-.207l-1.243-4.415h.927c.461,0,.639-.213.639-.593V15.63c0-.42-.178-.593-.6-.593H234.39c-.426,0-.6.173-.6.593V17.8c0,.386.178.593.6.593h1.387l-1.387,1.33a1.068,1.068,0,0,0-.322.737v2.032c0,.593.322.875.927.875h6.62v1.3h-7.829c-.391,0-.57.213-.57.593v2.314c0,.386.178.593.57.593h7.829v1.3h-8.4a.54.54,0,0,0-.6.593v2.418a.542.542,0,0,0,.6.6H254.5a.542.542,0,0,0,.6-.6V30.084c0-.42-.213-.627-.57-.627ZM232.859,9.038h16.872V10.4H232.859Zm7.829,9.349h7.547L248.7,20h-9.683Z" transform="translate(-156.084 -3.121)" fill="#c30d23"/>
      <path id="Path_249" data-name="Path 249" d="M316.331,10.183v5.325c0,1.474-.673,2.383-2.2,2.383a2.768,2.768,0,0,1,1.422,2.521v11.45a2.811,2.811,0,0,1-2.988,2.873H300.138a3.06,3.06,0,0,1-1.284-.248,3.139,3.139,0,0,1-1.353.317h-1.71a4.011,4.011,0,0,1-.927-.1,2.905,2.905,0,0,1-1.566.455h-2.953a3.058,3.058,0,0,1-1.635-.455,3.387,3.387,0,0,1-.852.1H286.08a2.509,2.509,0,0,1-2.637-2.625l.109-8.3a3.1,3.1,0,0,1,.144-.91,3.237,3.237,0,0,1-.357-1.577V18.237a2.961,2.961,0,0,1,.674-1.894l.357-.42a2.746,2.746,0,0,1-1.03-2.28V9.654a2.882,2.882,0,0,1,.783-2.1l3.241-3.609a3.1,3.1,0,0,1,2.314-1.013h3.811a2.292,2.292,0,0,1,2.418,2.2,2.333,2.333,0,0,1-.426,1.226h2.2a2.874,2.874,0,0,1,1.243.351l3.592-3.045a2.943,2.943,0,0,1,1.957-.7h3.771a3.226,3.226,0,0,1,1.992.7l5.02,4.306a2.817,2.817,0,0,1,1.065,2.2Zm-18.507,4.484a.6.6,0,0,0-.673-.558h-2.636c-.322,0-.5.138-.5.455l.109,3.293h-3.379l6.977-9a.47.47,0,0,0,.109-.282c0-.109-.109-.173-.357-.173h-3.7a.881.881,0,0,0-.714.351L291.7,10.4h-2.17L293.7,5.428a.6.6,0,0,0,.144-.282c0-.138-.109-.207-.357-.207h-3.811a.944.944,0,0,0-.748.351L285.648,8.9a1,1,0,0,0-.282.771V13.66c0,.593.322.875.927.875h1.888l-2.562,3.08a.828.828,0,0,0-.248.627V21.4a.809.809,0,0,0,.927.91h3.454V32.53c0,.42.144.593.6.593h2.953c.391,0,.639-.173.639-.593V22.307h3.88c.322,0,.461-.138.461-.42v-.138l-.461-7.075Zm-9.861,8.894h-1.779c-.391,0-.57.173-.57.558l-.109,8.088c0,.42.144.593.57.593h1.779c.357,0,.57-.173.57-.593l.144-8.053c0-.42-.213-.593-.6-.593Zm9.429,0h-1.744c-.391,0-.57.173-.57.558l.069,8.088c0,.42.213.593.639.593h1.71c.391,0,.639-.173.639-.593l-.144-8.053c0-.42-.178-.593-.6-.593Zm11.5-18.386a1.405,1.405,0,0,0-.639-.213h-3.771a1.113,1.113,0,0,0-.639.213l-5.089,4.34a.767.767,0,0,0-.322.668v5.325c0,.248.069.351.178.351a.706.706,0,0,0,.282-.1l1.675-1.543v3.011c0,.42.213.593.6.593h10.074a.537.537,0,0,0,.6-.593V14.034L313.8,15.75a.488.488,0,0,0,.282.1c.144,0,.178-.1.178-.351V10.177a.727.727,0,0,0-.357-.668l-5.02-4.34Zm3.7,14.322H300.1c-.57,0-.852.282-.852.875v11.49c0,.627.282.875.892.875H312.56c.6,0,.927-.282.927-.875V20.413a.812.812,0,0,0-.892-.91Zm-10.321-6.758,4.093-3.5,3.984,3.465h-7.973c-.035,0-.069.035-.109.035Zm1.992,11.594h4.306v3.609h-4.306Z" transform="translate(-181.075 -2.832)" fill="#c30d23"/>
      <path id="Path_250" data-name="Path 250" d="M345.995,20.431a2.118,2.118,0,0,1,.282-.771c-.57-.138-1.03-.282-1.209-.317a2.546,2.546,0,0,1-1.888-2.521V12.757a2.686,2.686,0,0,1,.391-1.508,2.638,2.638,0,0,1-.391-1.433v-4.1a2.348,2.348,0,0,1,2.383-2.487,4.431,4.431,0,0,1,.852.138,7.369,7.369,0,0,1,.817.173q2.936.734,5.872,1.577a2.761,2.761,0,0,1,2.636-1.681h16.337A2.808,2.808,0,0,1,375,6.379v9.038a3.551,3.551,0,0,1-.069.633,2.4,2.4,0,0,1,.852,1.928v2.383a2.874,2.874,0,0,1-.282,1.3,3.749,3.749,0,0,1,.247,1.261V32.3a2.816,2.816,0,0,1-2.953,2.907h-5.377a2.847,2.847,0,0,1-1.5-.386,2.748,2.748,0,0,1-1.531.386H361.4a2.59,2.59,0,0,1-1.387-.386,2.323,2.323,0,0,1-1.422.386h-2.849a2.462,2.462,0,0,1-2.418-2.2,2.94,2.94,0,0,1,.391-1.261l.674-1.157H353l-.57,2.521a2.564,2.564,0,0,1-2.636,2.17h-3.984a2.335,2.335,0,0,1-2.562-2.383,4.72,4.72,0,0,1,.109-1.013l2.637-11.45Zm6.62-13.344L345.782,5.3c-.035-.035-.144-.035-.213-.035-.248,0-.357.138-.357.455v4.1a.513.513,0,0,0,.391.558l6.833,1.785a.461.461,0,0,0,.213.035c.248,0,.357-.138.357-.489v-4.1a.49.49,0,0,0-.391-.524Zm0,7.075-6.833-1.785a.615.615,0,0,0-.248-.035c-.213,0-.322.138-.322.42v4.064a.537.537,0,0,0,.391.558l6.833,1.819a.615.615,0,0,0,.248.035c.213,0,.322-.173.322-.524v-4.03a.47.47,0,0,0-.391-.524Zm0,6.234h-4.127a.512.512,0,0,0-.535.489l-2.636,11.8a.45.45,0,0,0-.035.213c0,.248.178.351.535.351H349.8c.357,0,.535-.1.57-.42l2.74-11.835v-.173c0-.248-.144-.42-.5-.42Zm20.539-3.011H354.578a.526.526,0,0,0-.6.593v2.383c0,.42.178.558.6.558h1.848l-4.375,7.46a.473.473,0,0,0-.109.248c0,.173.178.213.461.213h3.028a.8.8,0,0,0,.714-.351l1.635-2.873h1.531l-4.024,7.109a.744.744,0,0,0-.109.282c0,.138.144.213.391.213H358.6a.647.647,0,0,0,.639-.386l4.093-7.213h1.531L361.089,32.7a.612.612,0,0,0-.069.282c0,.173.109.248.391.248H364.4a.619.619,0,0,0,.639-.386l3.7-7.213h.6v4.064h-1.923c-.426,0-.6.173-.6.593v2.349c0,.386.178.593.6.593H372.8a.8.8,0,0,0,.892-.91V22.935a.8.8,0,0,0-.892-.91H359.626l.639-1.088h12.883c.391,0,.6-.138.6-.558V18a.538.538,0,0,0-.6-.593Zm-1.065-11.9H355.752c-.57,0-.817.317-.817.91v9.038c0,.633.248.875.892.875H372.1c.6,0,.892-.282.892-.875V6.39a.8.8,0,0,0-.892-.91ZM360.2,8.319h7.512V9.579H360.2Zm0,3.851h7.512v1.3H360.2Z" transform="translate(-206.468 -2.959)" fill="#c30d23"/>
      <path id="Path_251" data-name="Path 251" d="M435.152,16.988v3.155a2.532,2.532,0,0,1-.5,1.577,2.394,2.394,0,0,1,.426,1.439v4.064a2.593,2.593,0,0,1-1.03,2.1V32.2a2.794,2.794,0,0,1-2.953,2.907H420.236a3.339,3.339,0,0,1-1.6-.386,3.107,3.107,0,0,1-1.566.386H406.288a2.819,2.819,0,0,1-2.988-2.873V29.324a2.723,2.723,0,0,1-1-2V23.263a2.89,2.89,0,0,1,.426-1.508,2.774,2.774,0,0,1-.5-1.612V16.988a2.625,2.625,0,0,1,.892-2,3.471,3.471,0,0,1-.069-.593V6.517a2.8,2.8,0,0,1,2.953-2.907h11.07a2.891,2.891,0,0,1,1.531.42,3.355,3.355,0,0,1,1.6-.42h11.173a2.845,2.845,0,0,1,2.953,2.942v7.812a4.869,4.869,0,0,1-.069.668,2.611,2.611,0,0,1,.892,1.963Zm-2.637-.593h-11.1v-.91a.55.55,0,0,0-.035-.248h10a.787.787,0,0,0,.892-.875V6.552a.812.812,0,0,0-.892-.91H420.2c-.6,0-.852.282-.852.875V14.4a1.5,1.5,0,0,0,.109.489h-1.635a.758.758,0,0,0,.144-.524V6.552a.8.8,0,0,0-.892-.91h-11.07c-.639,0-.892.282-.892.875V14.4c0,.593.282.84.892.84H416.08c0,.069-.035.138-.035.248v.91H404.872c-.426,0-.57.213-.57.593v3.155c0,.386.144.593.57.593h4.663L404.728,22.7a.5.5,0,0,0-.357.558v4.064c0,.282.035.42.213.42a.706.706,0,0,0,.282-.1l.5-.248v4.835c0,.593.322.875.927.875h10.782a.812.812,0,0,0,.892-.91V24.449c0-.593-.282-.944-.892-.944h-4.058l5.555-2.59h.391l5.555,2.59h-4.271c-.639,0-.892.317-.892.91v7.812c0,.593.282.875.892.875H431.1a.8.8,0,0,0,.892-.91v-4.87l.5.248a.625.625,0,0,0,.282.069c.213,0,.282-.138.282-.42V23.153a.585.585,0,0,0-.426-.558l-4.594-1.854h4.45a.526.526,0,0,0,.6-.593V16.994c0-.386-.178-.593-.57-.593ZM410.2,9.251H412.9V11.7H410.2Zm.144,17.9h2.706v2.383h-2.706Zm13.879,0h2.809v2.383H424.22Zm.178-17.9h2.809V11.7H424.4Z" transform="translate(-231.526 -3.121)" fill="#c30d23"/>
    </g>
    <path id="Path_252" data-name="Path 252" d="M41.519,3.151A3.154,3.154,0,0,1,44.67,6.3V50.285a3.154,3.154,0,0,1-3.151,3.151h-.772v2.2H34.733v-2.2H26.913v2.2H20.9v-2.2H13.078v2.2H7.07v-2.2H6.3a3.154,3.154,0,0,1-3.151-3.151V6.3A3.15,3.15,0,0,1,6.3,3.151H41.514M11.1,13.8h25.62a1.738,1.738,0,0,0,0-3.477H11.1a1.738,1.738,0,1,0,0,3.477M26.844,38.494h10.51a1.024,1.024,0,0,0,0-2.048H26.844a1.024,1.024,0,0,0,0,2.048m-16.371,0h10.51a1.024,1.024,0,1,0,0-2.048H10.473a1.024,1.024,0,0,0,0,2.048m16.371,3.955h10.51a1.024,1.024,0,0,0,0-2.048H26.844a1.024,1.024,0,1,0,0,2.048m-16.371,0h10.51a1.024,1.024,0,1,0,0-2.048H10.473a1.024,1.024,0,0,0,0,2.048M26.844,46.4h10.51a1.024,1.024,0,1,0,0-2.048H26.844a1.024,1.024,0,1,0,0,2.048m-16.371,0h10.51a1.024,1.024,0,1,0,0-2.048H10.473a1.024,1.024,0,1,0,0,2.048M41.519,0H6.3A6.308,6.308,0,0,0,0,6.3V50.285a6.319,6.319,0,0,0,3.965,5.856,3.152,3.152,0,0,0,3.109,2.647h6.009a3.153,3.153,0,0,0,3-2.2h1.807a3.153,3.153,0,0,0,3,2.2h6.014a3.153,3.153,0,0,0,3-2.2h1.807a3.153,3.153,0,0,0,3,2.2h6.014a3.144,3.144,0,0,0,3.109-2.647,6.314,6.314,0,0,0,3.965-5.856V6.3a6.308,6.308,0,0,0-6.3-6.3h0Z" transform="translate(0 5.645)" fill="#c30d23"/>
    <g id="Group_363" data-name="Group 363" transform="translate(59.419 37.078)">
      <path id="Path_253" data-name="Path 253" d="M130.84,83.388l1.692-1.128H125.6l1.692,1.128q-.872.941-1.744,1.773a19.59,19.59,0,0,0,3.414,4.162,19.387,19.387,0,0,0,3.494-4.294c-.547-.518-1.082-1.065-1.612-1.641Z" transform="translate(-112.696 -71.985)" fill="#c30d23"/>
      <path id="Path_254" data-name="Path 254" d="M103.22,64.41v30.9h32.519V64.41Zm26.221,27.712a41.541,41.541,0,0,1-9.993-4.807,41.486,41.486,0,0,1-9.965,4.807L106.4,88.144a37.868,37.868,0,0,0,9.579-3.788,30.46,30.46,0,0,1-3.333-3.978c-.858.61-1.767,1.2-2.729,1.773l-3.224-3.385a29.889,29.889,0,0,0,6.194-4.081H107.37V70.414H117.2V67.593h4.7v2.821h9.717v4.271h-5.348a29.814,29.814,0,0,0,6.194,4.081l-3.195,3.385q-1.528-.915-2.9-1.882a31.086,31.086,0,0,1-3.414,4.081,37.122,37.122,0,0,0,9.579,3.788l-3.114,3.978Z" transform="translate(-103.22 -64.41)" fill="#c30d23"/>
      <path id="Path_255" data-name="Path 255" d="M192.19,84.83v3.759a8.191,8.191,0,0,0,.766-3.759Z" transform="translate(-140.974 -73.075)" fill="#c30d23"/>
      <path id="Path_256" data-name="Path 256" d="M196.4,77.6h-2.51c-.2.271-.4.53-.6.777h2.4Q196.157,77.894,196.4,77.6Z" transform="translate(-141.441 -70.007)" fill="#c30d23"/>
      <path id="Path_257" data-name="Path 257" d="M203.63,87.167h.409V84.83h-.789V86.6C203.25,86.977,203.377,87.167,203.63,87.167Z" transform="translate(-145.667 -73.075)" fill="#c30d23"/>
      <path id="Path_258" data-name="Path 258" d="M187.425,90.19H183.66V84.365l-.817-.835v1.048H180.96v2.389c.6-.178,1.22-.386,1.854-.616v4.381l-.052.029H188.6c.017-.23.046-.581.081-1.048L187.43,89.1v1.1Z" transform="translate(-136.209 -72.524)" fill="#c30d23"/>
      <path id="Path_259" data-name="Path 259" d="M162.79,64.41v30.9h32.519V64.41Zm26.67,28.006a11.653,11.653,0,0,1-6.194-4.03,10.921,10.921,0,0,1-6.47,4.03l-2.947-3.627q4.369-.889,5.734-2.5h-4.611V82.664c-.455.178-1.03.374-1.721.593v5.4a4.007,4.007,0,0,1-.766,2.821,3.1,3.1,0,0,1-2.32.7h-2.539L166.589,87.9h1.226a1.164,1.164,0,0,0,.806-.19,1.3,1.3,0,0,0,.178-.835v-2.5c-.817.161-1.508.288-2.072.374l-.766-4.433c.875-.109,1.819-.259,2.838-.455V76.453h-2.268V72.1H168.8V67.749h4.45V72.1h1.882v.322a18.348,18.348,0,0,0,4.012-5.129l4.231.7q-.112.216-.328.674h5.624v2.47q-.682.941-1.226,1.641h3.275v9.291H186.87v-.754h-1.2a2.278,2.278,0,0,1-1.583-.4,2.311,2.311,0,0,1-.489-1.744V76.153h-.708a13.2,13.2,0,0,1-.846,5.238h3.224c-.017.288-.046.7-.081,1.238h6.5v3.655h-4.859a11.572,11.572,0,0,0,5.325,2.418l-2.677,3.707Z" transform="translate(-128.498 -64.41)" fill="#c30d23"/>
      <path id="Path_260" data-name="Path 260" d="M222.35,64.41v30.9h32.519V64.41H222.35ZM236.534,78V84.3c0,.84.247,1.376.737,1.612a5.174,5.174,0,0,0,1.854.213q4.447,0,9.965-.271l.219,4.784q-5.129.294-10.316.294-4.015,0-5.544-.938-1.882-1.131-1.882-4.456V78.37l-4.53.322-.328-4.916,4.859-.351V68.779h4.968v4.294l13.977-.967a61.831,61.831,0,0,1-4.2,11.928l-4.939-1.18a32.242,32.242,0,0,0,2.4-5.371Z" transform="translate(-153.772 -64.41)" fill="#c30d23"/>
      <path id="Path_261" data-name="Path 261" d="M281.92,64.41v30.9h32.519V64.41Zm8.37,4.277a44.712,44.712,0,0,1,8.192,5.348l-3.327,3.84a40.389,40.389,0,0,0-8-5.238l3.137-3.949Zm.219,22.347-2.757-4.565A38.957,38.957,0,0,0,306.1,74.68l3.114,4.352a44.474,44.474,0,0,1-18.7,12.008Z" transform="translate(-179.051 -64.41)" fill="#c30d23"/>
      <path id="Path_262" data-name="Path 262" d="M341.49,64.41v30.9h32.519V64.41Zm22.675,19.48a28.5,28.5,0,0,1-10.621,7.84l-3.575-3.817a28.83,28.83,0,0,0,8.105-4.836,47.337,47.337,0,0,0-5.814-2.873l3.085-3.333a49.9,49.9,0,0,1,5.952,2.608,19.425,19.425,0,0,0,2.159-4.352h-8.105a32.833,32.833,0,0,1-5.544,5.664l-4.07-2.769a34.216,34.216,0,0,0,8.491-10.045l5.077,1.128c-.328.593-.662,1.163-1.013,1.721H369.76a27.707,27.707,0,0,1-5.6,13.056Z" transform="translate(-204.329 -64.41)" fill="#c30d23"/>
      <path id="Path_263" data-name="Path 263" d="M401.06,64.41v30.9h32.519V64.41Zm27.234,18h-21.95V77.3h21.95Z" transform="translate(-229.607 -64.41)" fill="#c30d23"/>
    </g>
  </g>
</svg>
