<svg xmlns="http://www.w3.org/2000/svg" width="107.58" height="114.936" viewBox="0 0 107.58 114.936">
  <g id="Group_428" data-name="Group 428" transform="translate(-730.616 -2800)">
    <path id="Path_500" data-name="Path 500" d="M17.2-11.594H11.682v-3.212H17.2Zm0,5.764H11.682V-9.152H17.2Zm2.618-11.4H9.174V-3.41H19.822ZM8.338-9.35,6.182-8.8v-3.234h2.31v-2.42H6.182v-4.158H3.63v4.158H.9v2.42H3.63v3.85c-1.1.264-2.156.506-3.014.682L1.3-4.994,3.63-5.61v4.576c0,.308-.11.418-.418.418-.286,0-1.21,0-2.068-.022A8.692,8.692,0,0,1,1.87,1.738a7.085,7.085,0,0,0,3.344-.484C5.94.88,6.182.242,6.182-1.034V-6.27c.836-.22,1.65-.462,2.464-.682Zm-.682,8.1V1.188H21.164V-1.254ZM38.9-17.974a31.515,31.515,0,0,1-2.4,5.5l2.288.792a49.575,49.575,0,0,0,3.036-5.434ZM29.48-12.826a20.193,20.193,0,0,0-2.706-4.95l-2.4.946a20.751,20.751,0,0,1,2.574,5.06Zm4.972-5.83H31.57v7.612H24.9v2.618h13.75V-6.4h-13v2.53h13v2.288H24.4v2.6H38.654v.9h2.794V-11.044h-7ZM55-11.352A2.038,2.038,0,0,0,57.09-13.4,2.048,2.048,0,0,0,55-15.488a2.048,2.048,0,0,0-2.09,2.09A2.038,2.038,0,0,0,55-11.352ZM55-.858A2.038,2.038,0,0,0,57.09-2.9,2.048,2.048,0,0,0,55-4.994,2.048,2.048,0,0,0,52.91-2.9,2.038,2.038,0,0,0,55-.858ZM79.42-11.616H74.448l1.3-.484a9.933,9.933,0,0,0-1.452-3.014H79.42a22.081,22.081,0,0,1-1.276,3.124ZM86.394-17.6H67.738V1.914H70.29V-15.114h3.916l-2,.7a10.133,10.133,0,0,1,1.254,2.794H71.016v2.134h4.73v5.126H74.008V-8.338h-2.2V-.9h2.2V-2.2h5.874v.946H82.1V-8.338H79.882v3.982H78.1V-9.482h5.038v-2.134H80.3c.506-.814,1.144-1.958,1.76-3.036l-1.936-.462h3.7V-.946c0,.374-.132.484-.484.484-.352.022-1.474.022-2.486-.044a9.448,9.448,0,0,1,.836,2.442,8.189,8.189,0,0,0,3.63-.462c.814-.44,1.078-1.1,1.078-2.4ZM100.188-2.31V-7.194h5.28V-2.31ZM92.466-7.194h5.06V-2.31h-5.06Zm5.06-7.458v4.84h-5.06v-4.84Zm7.942,4.84h-5.28v-4.84h5.28Zm-15.62-7.37V1.672h2.618V.33h13V1.672H108.2V-17.182Z" transform="translate(730 2913)" fill="#303030"/>
    <path id="Icon_awesome-user-alt" data-name="Icon awesome-user-alt" d="M18,20.25A10.125,10.125,0,1,0,7.875,10.125,10.128,10.128,0,0,0,18,20.25Zm9,2.25H23.126a12.24,12.24,0,0,1-10.252,0H9a9,9,0,0,0-9,9v1.125A3.376,3.376,0,0,0,3.375,36h29.25A3.376,3.376,0,0,0,36,32.625V31.5A9,9,0,0,0,27,22.5Z" transform="translate(767 2800)" fill="#bb1c21"/>
  </g>
</svg>
