<svg xmlns="http://www.w3.org/2000/svg" width="257.6" height="118.21" viewBox="0 0 257.6 118.21">
  <g id="Group_429" data-name="Group 429" transform="translate(-996.575 -2800)">
    <path id="Path_501" data-name="Path 501" d="M1.575-13.125q0-6.02,2.328-9.485t7.507-3.465q5.18,0,7.508,3.465t2.328,9.485q0,6.09-2.328,9.555T11.41-.105Q6.23-.105,3.9-3.57T1.575-13.125Zm13.79,0a15.1,15.1,0,0,0-.77-5.443,3.08,3.08,0,0,0-3.185-1.908,3.08,3.08,0,0,0-3.185,1.908,15.1,15.1,0,0,0-.77,5.443,22.881,22.881,0,0,0,.28,3.938,5.038,5.038,0,0,0,1.137,2.52A3.222,3.222,0,0,0,11.41-5.7a3.222,3.222,0,0,0,2.538-.963,5.038,5.038,0,0,0,1.137-2.52A22.882,22.882,0,0,0,15.365-13.125Zm27.02-7.21H31.465v4.83a5.087,5.087,0,0,1,1.96-1.26,7.467,7.467,0,0,1,2.73-.49,7.523,7.523,0,0,1,4.358,1.19,7,7,0,0,1,2.537,3.08,10.34,10.34,0,0,1,.805,4.1A8.963,8.963,0,0,1,41.545-2.4,8.617,8.617,0,0,1,35.035,0,11.418,11.418,0,0,1,30.17-.963,7.453,7.453,0,0,1,26.985-3.64,7.756,7.756,0,0,1,25.76-7.6H31.6a3.149,3.149,0,0,0,1.015,1.8,3.2,3.2,0,0,0,2.205.718,2.892,2.892,0,0,0,2.45-1.05,4.485,4.485,0,0,0,.805-2.8,3.735,3.735,0,0,0-.84-2.625,3.17,3.17,0,0,0-2.45-.91,3.177,3.177,0,0,0-1.96.577,2.693,2.693,0,0,0-1.015,1.523H26.04V-25.585H42.385Zm4.76,7.21q0-6.02,2.327-9.485t7.507-3.465q5.18,0,7.508,3.465t2.327,9.485q0,6.09-2.327,9.555T56.98-.105q-5.18,0-7.507-3.465T47.145-13.125Zm13.79,0a15.1,15.1,0,0,0-.77-5.443,3.08,3.08,0,0,0-3.185-1.908,3.08,3.08,0,0,0-3.185,1.908,15.1,15.1,0,0,0-.77,5.443,22.882,22.882,0,0,0,.28,3.938,5.038,5.038,0,0,0,1.138,2.52A3.222,3.222,0,0,0,56.98-5.7a3.222,3.222,0,0,0,2.538-.963,5.038,5.038,0,0,0,1.137-2.52A22.882,22.882,0,0,0,60.935-13.125ZM85.61-14.77V-9.8H70.21v-4.97Zm4.865-3.57a7.687,7.687,0,0,1,2.45-5.775,9.157,9.157,0,0,1,6.265-2.03,10.205,10.205,0,0,1,4.5.91,6.592,6.592,0,0,1,2.835,2.485,6.644,6.644,0,0,1,.962,3.535,5.862,5.862,0,0,1-1.155,3.762,5.842,5.842,0,0,1-2.695,1.977v.14a6.314,6.314,0,0,1,3.15,2.2,6.415,6.415,0,0,1,1.155,3.955,7.3,7.3,0,0,1-1,3.833,6.811,6.811,0,0,1-2.9,2.608A10.107,10.107,0,0,1,99.505.21a10.2,10.2,0,0,1-6.7-2.065Q90.3-3.92,90.16-8.085h5.81a3.53,3.53,0,0,0,.875,2.432,3.2,3.2,0,0,0,2.45.892,2.79,2.79,0,0,0,2.118-.787,2.889,2.889,0,0,0,.752-2.082,2.768,2.768,0,0,0-1.067-2.433,6.032,6.032,0,0,0-3.412-.752h-1.12V-15.68h1.12a5.926,5.926,0,0,0,2.887-.613,2.284,2.284,0,0,0,1.1-2.187,2.65,2.65,0,0,0-.7-1.96,2.6,2.6,0,0,0-1.925-.7,2.386,2.386,0,0,0-1.978.805,3.608,3.608,0,0,0-.753,1.995Zm20.335-1.645V-25.55h9.695V0h-6.23V-19.985ZM124.39-4.8q1.19-.945,1.085-.875,3.43-2.835,5.408-4.655a22.387,22.387,0,0,0,3.342-3.815,6.894,6.894,0,0,0,1.365-3.885,3.42,3.42,0,0,0-.665-2.24,2.438,2.438,0,0,0-1.995-.805,2.463,2.463,0,0,0-2.083,1,4.6,4.6,0,0,0-.752,2.818H124.32a9.913,9.913,0,0,1,1.278-4.97,7.42,7.42,0,0,1,3.185-2.94,10.056,10.056,0,0,1,4.392-.945q4.165,0,6.283,2.135a7.561,7.561,0,0,1,2.118,5.565,10.915,10.915,0,0,1-2.555,6.947,37.627,37.627,0,0,1-6.51,6.248h9.45V-.35H124.39Zm32.83-13.86a3.607,3.607,0,0,0-.98-1.942,2.832,2.832,0,0,0-1.995-.648,2.983,2.983,0,0,0-2.87,1.733,13.092,13.092,0,0,0-.91,5.477,5.225,5.225,0,0,1,2.223-1.925,7.279,7.279,0,0,1,3.2-.7,7.288,7.288,0,0,1,5.512,2.17,8.387,8.387,0,0,1,2.083,6.055,9.337,9.337,0,0,1-1.033,4.48,7.335,7.335,0,0,1-3.01,3.01A9.568,9.568,0,0,1,154.77.14q-5.39,0-7.49-3.377t-2.1-9.712q0-6.65,2.223-9.888t7.122-3.238a8.784,8.784,0,0,1,4.428,1.033,7.013,7.013,0,0,1,2.73,2.713,9.173,9.173,0,0,1,1.1,3.675Zm-2.765,6.72a3.613,3.613,0,0,0-2.5.892,3.228,3.228,0,0,0-1,2.538,3.587,3.587,0,0,0,.927,2.625,3.536,3.536,0,0,0,2.643.945,3.217,3.217,0,0,0,2.432-.928A3.507,3.507,0,0,0,157.85-8.4a3.664,3.664,0,0,0-.875-2.59A3.265,3.265,0,0,0,154.455-11.935Zm28.07-2.835V-9.8h-15.4v-4.97ZM186.97-4.8q1.19-.945,1.085-.875,3.43-2.835,5.408-4.655a22.387,22.387,0,0,0,3.342-3.815,6.894,6.894,0,0,0,1.365-3.885,3.42,3.42,0,0,0-.665-2.24,2.438,2.438,0,0,0-1.995-.805,2.463,2.463,0,0,0-2.083,1,4.6,4.6,0,0,0-.752,2.818H186.9a9.913,9.913,0,0,1,1.277-4.97,7.42,7.42,0,0,1,3.185-2.94,10.056,10.056,0,0,1,4.392-.945q4.165,0,6.283,2.135a7.561,7.561,0,0,1,2.118,5.565,10.915,10.915,0,0,1-2.555,6.947,37.627,37.627,0,0,1-6.51,6.248h9.45V-.35H186.97Zm20.4-13.545a7.687,7.687,0,0,1,2.45-5.775,9.157,9.157,0,0,1,6.265-2.03,10.206,10.206,0,0,1,4.5.91,6.592,6.592,0,0,1,2.835,2.485,6.644,6.644,0,0,1,.962,3.535,5.862,5.862,0,0,1-1.155,3.762,5.842,5.842,0,0,1-2.695,1.977v.14a6.314,6.314,0,0,1,3.15,2.2,6.415,6.415,0,0,1,1.155,3.955,7.3,7.3,0,0,1-1,3.833,6.811,6.811,0,0,1-2.9,2.608,10.107,10.107,0,0,1-4.533.945,10.2,10.2,0,0,1-6.7-2.065q-2.5-2.065-2.643-6.23h5.81a3.53,3.53,0,0,0,.875,2.432,3.2,3.2,0,0,0,2.45.892,2.79,2.79,0,0,0,2.118-.787,2.889,2.889,0,0,0,.753-2.082A2.768,2.768,0,0,0,218-10.063a6.032,6.032,0,0,0-3.413-.752h-1.12V-15.68h1.12a5.926,5.926,0,0,0,2.888-.613,2.284,2.284,0,0,0,1.1-2.187,2.65,2.65,0,0,0-.7-1.96,2.6,2.6,0,0,0-1.925-.7,2.386,2.386,0,0,0-1.977.805,3.608,3.608,0,0,0-.753,1.995Zm20.335-1.645V-25.55h9.695V0h-6.23V-19.985Zm14,1.645a7.687,7.687,0,0,1,2.45-5.775,9.157,9.157,0,0,1,6.265-2.03,10.206,10.206,0,0,1,4.5.91,6.592,6.592,0,0,1,2.835,2.485,6.644,6.644,0,0,1,.963,3.535,5.862,5.862,0,0,1-1.155,3.762,5.842,5.842,0,0,1-2.695,1.977v.14a6.314,6.314,0,0,1,3.15,2.2,6.415,6.415,0,0,1,1.155,3.955,7.3,7.3,0,0,1-1,3.833,6.811,6.811,0,0,1-2.9,2.608A10.107,10.107,0,0,1,250.74.21a10.2,10.2,0,0,1-6.7-2.065q-2.5-2.065-2.643-6.23h5.81a3.53,3.53,0,0,0,.875,2.432,3.2,3.2,0,0,0,2.45.892,2.79,2.79,0,0,0,2.118-.787A2.889,2.889,0,0,0,253.4-7.63a2.768,2.768,0,0,0-1.068-2.433,6.032,6.032,0,0,0-3.413-.752H247.8V-15.68h1.12a5.926,5.926,0,0,0,2.888-.613,2.284,2.284,0,0,0,1.1-2.187,2.65,2.65,0,0,0-.7-1.96,2.6,2.6,0,0,0-1.925-.7,2.386,2.386,0,0,0-1.977.805,3.608,3.608,0,0,0-.753,1.995Z" transform="translate(995 2918)" fill="#303030"/>
    <path id="Icon_awesome-phone-alt" data-name="Icon awesome-phone-alt" d="M34.973,25.439,27.1,22.064a1.687,1.687,0,0,0-1.969.485L21.641,26.81A26.062,26.062,0,0,1,9.183,14.351l4.261-3.488A1.683,1.683,0,0,0,13.929,8.9L10.554,1.02A1.7,1.7,0,0,0,8.62.043L1.308,1.73A1.688,1.688,0,0,0,0,3.375,32.621,32.621,0,0,0,32.625,36a1.687,1.687,0,0,0,1.645-1.308l1.687-7.313a1.708,1.708,0,0,0-.985-1.941Z" transform="translate(1117 2800)" fill="#bb1c21"/>
  </g>
</svg>
