<svg xmlns="http://www.w3.org/2000/svg" width="292.912" height="128.408" viewBox="0 0 292.912 128.408">
  <g id="Group_427" data-name="Group 427" transform="translate(-290.196 -2803)">
    <path id="Path_499" data-name="Path 499" d="M59.428,18.04V14.92h5.424v3.12Zm2.816-9.36a12.54,12.54,0,0,1-2.224,2.928A22.562,22.562,0,0,0,57.476,9.5c.272-.272.528-.544.784-.816Zm4.592,4.512H61.124a14.812,14.812,0,0,0,3.712-5.584L63.524,6.92l-.32.1H59.572c.288-.416.56-.832.8-1.248l-2.144-.4a12.782,12.782,0,0,1-5.312,5.088,6.627,6.627,0,0,1,1.344,1.488,16.468,16.468,0,0,0,1.776-1.216,22.225,22.225,0,0,1,2.448,2.208,17.788,17.788,0,0,1-5.6,2.768,6.08,6.08,0,0,1,1.1,1.7,20.512,20.512,0,0,0,3.536-1.568v4.544h1.9v-.624h5.424v.64h1.984Zm13.248,4.64H72.852V14.7h7.232Zm3.7-7.808V8.168H77.54V5.448H75.46v2.72H69.236v1.856H75.46v2.864H70.852v7.5h2V19.64h7.232v.688h2.08v-7.44H77.54V10.024ZM95.492,12.44l-.688.416a8.653,8.653,0,0,1,.784.608c-1.072.032-2.144.064-3.152.1.256-.352.528-.736.784-1.12Zm1.472-4.72v.992h-8.32V7.72ZM94.676,18.5V17.4h3.84V15.9h-3.84V14.9l2.448-.1a7.993,7.993,0,0,1,.736.784l1.584-.976a17.269,17.269,0,0,0-2.528-2.176h2.4V10.952H88.644v-.7h10.24V6.184H86.74v4.624c0,2.544-.128,6.144-1.712,8.608a7.423,7.423,0,0,1,1.7.976c1.376-2.144,1.792-5.344,1.888-7.952h2.5c-.224.4-.464.816-.688,1.184l-1.68.032.08,1.488c1.136-.048,2.512-.1,4.016-.16V15.9H89.06v1.5h3.776v1.1H87.988v1.5H99.652V18.5Zm6.96-3.7a11.633,11.633,0,0,1-.848,3.712,9.4,9.4,0,0,1,1.456.688,14.793,14.793,0,0,0,.96-4.128Zm3.472.288a18.933,18.933,0,0,1,.928,2.976l1.408-.512a17.641,17.641,0,0,0-.992-2.88Zm-.336-3.952c.192.352.384.752.56,1.152l-1.536.064c1.008-1.3,2.112-2.912,2.992-4.3l-1.552-.72a29.015,29.015,0,0,1-1.424,2.592c-.16-.192-.336-.416-.544-.64.576-.9,1.216-2.128,1.792-3.216l-1.648-.608a20.284,20.284,0,0,1-1.168,2.784c-.128-.112-.256-.224-.368-.32l-.912,1.3a15.7,15.7,0,0,1,1.888,2.176c-.256.368-.512.72-.752,1.024l-1.152.048.16,1.648,2.32-.144v6.432h1.648V13.864l.816-.064a7.67,7.67,0,0,1,.208.816l1.344-.608a13.564,13.564,0,0,0-1.408-3.392Zm8.336,4.224v2.5h-3.52v-2.5Zm-5.28,5.008h1.76v-.848h3.52v.784h1.824V13.688h-7.1Zm1.136-9.824a18.548,18.548,0,0,0,2.224-2.96,22.312,22.312,0,0,0,2.352,2.96Zm1.264-4.88A15.393,15.393,0,0,1,106.2,10.44a8.759,8.759,0,0,1,1.088,1.664,12.563,12.563,0,0,0,1.392-1.248V12.28h5.264V10.968a13.647,13.647,0,0,0,1.168,1.04,11.752,11.752,0,0,1,1.168-1.776,15.7,15.7,0,0,1-4.24-4.56ZM128.9,8.024h-4.288V7.272H128.9Zm0,2.032h-4.288V9.272H128.9Zm1.872-4.112H122.82v5.44h7.952Zm-9.12,1.1A11.924,11.924,0,0,0,118.884,5.5l-1.072,1.44a11.1,11.1,0,0,1,2.736,1.68Zm-.864,4.208A10.475,10.475,0,0,0,118.02,9.8L117,11.224a11.167,11.167,0,0,1,2.688,1.616Zm11.168,2.288v-1.52H121.428v1.52h1.792a8.746,8.746,0,0,1-2.32,2.464l.384-.912-1.5-1.136a47.45,47.45,0,0,1-2.56,5.12l1.712,1.12c.608-1.184,1.248-2.544,1.84-3.888a9.9,9.9,0,0,1,1.184.992,11.171,11.171,0,0,0,1.632-1.536h.912a10.361,10.361,0,0,1-3.12,3.12,11.243,11.243,0,0,1,1.28,1.152,13.909,13.909,0,0,0,3.728-4.272h.928a9.021,9.021,0,0,1-2.72,3.648,10.1,10.1,0,0,1,1.376.992,11.776,11.776,0,0,0,3.1-4.64h.656c-.128,1.856-.288,2.608-.5,2.848a.494.494,0,0,1-.464.176,9.658,9.658,0,0,1-1.04-.048,3.819,3.819,0,0,1,.432,1.648,9.284,9.284,0,0,0,1.584-.048,1.574,1.574,0,0,0,1.024-.56c.416-.48.624-1.776.816-4.816.032-.208.048-.656.048-.656h-6.96q.24-.384.432-.768Zm10.8,4.8v-1.76h1.9v1.76Zm-4.64,0H136.2v-1.76h1.92Zm-.176-9.136H136V7.544h1.936Zm5.008-1.664H144.9V9.208h-1.952Zm4.816,5.712V11.592h-7.008a8.283,8.283,0,0,0,.5-.912V10.7h5.472V6.056h-5.472v4.592l-1.5-.512V6.056h-5.472V10.7h4.8c-.192.3-.4.608-.624.9h-5.168v1.664h3.424a13.993,13.993,0,0,1-3.968,2,6.934,6.934,0,0,1,1.12,1.456c.24-.08.464-.16.688-.256v3.968H136.2V19.9h1.92v.512h1.712V15.016H137.38a11.865,11.865,0,0,0,2.112-1.76h2.08a9.443,9.443,0,0,0,1.888,1.76h-2.368v5.408h1.664V19.9h1.9v.512H146.4V16.536c.224.08.464.16.7.224a7.718,7.718,0,0,1,1.2-1.52,10.95,10.95,0,0,1-4.24-1.984Zm10.256-3.008a24.439,24.439,0,0,1,4.064,3.568l1.7-1.312a26.208,26.208,0,0,0-4.144-3.36h3.936V7.288h-6.128V5.432h-1.952V7.288h-6.048V9.144h10.1Zm-4.752-.976a12.268,12.268,0,0,1-4.048,3.216,15.579,15.579,0,0,1,1.6,1.472,17.932,17.932,0,0,0,4.416-3.92Zm5.12,2.736a8.838,8.838,0,0,1-1.872,3.056,9.518,9.518,0,0,1-1.84-2.96l-1.824.544a13.716,13.716,0,0,0,2.208,3.68,15.843,15.843,0,0,1-6.032,2.3,10.308,10.308,0,0,1,1.2,1.792,17.494,17.494,0,0,0,6.24-2.736,13.828,13.828,0,0,0,6.3,2.7A8.6,8.6,0,0,1,164,18.584a13.953,13.953,0,0,1-6.016-2.24,11.87,11.87,0,0,0,2.448-3.744ZM174.932,8.04a11.165,11.165,0,0,1-.608,1.152h-2.256A10.444,10.444,0,0,0,173,8.04Zm2.7,3.792c-.032.1-.1.112-.272.112h-.624c-.224,0-.256-.032-.256-.3v-.96h1.152Zm-5.488-1.152h.992a2.039,2.039,0,0,1-.992,1.712Zm-2.3,1.472-1.3.368v-2.3H170V9.5a6.164,6.164,0,0,1,.56.56v4.432h1.584V12.824a4.349,4.349,0,0,1,.512.72,3.11,3.11,0,0,0,1.824-2.864h.624v.96c0,1.152.256,1.5,1.424,1.5h1.1v1.312h1.616V9.192H176.18a19.878,19.878,0,0,0,1.088-1.92l-1.2-.752-.272.064h-1.968c.144-.288.272-.592.4-.9l-1.76-.272A7.379,7.379,0,0,1,170,8.824V8.472h-1.456V5.464H166.82V8.472h-1.68v1.744h1.68v2.768c-.72.176-1.392.352-1.936.464l.416,1.824c.464-.128.992-.272,1.52-.432v3.536c0,.208-.08.272-.272.272a12.927,12.927,0,0,1-1.328-.016,7.078,7.078,0,0,1,.48,1.76,4.15,4.15,0,0,0,2.224-.352c.48-.3.624-.784.624-1.664V14.328c.512-.144,1.024-.3,1.536-.464Zm9.92,4.4V14.968h-4.24c.064-.416.1-.848.128-1.3h-1.728c-.032.464-.064.9-.128,1.3h-3.92v1.584h3.472c-.56,1.168-1.712,1.92-4.192,2.4a5.3,5.3,0,0,1,.928,1.472c2.656-.592,4.032-1.552,4.752-2.944a5.586,5.586,0,0,0,4.128,2.864,5.6,5.6,0,0,1,1.056-1.584,4.791,4.791,0,0,1-3.792-2.208Zm5.248.32c0,1.888.528,2.768,4.176,2.768a37.609,37.609,0,0,0,4.96-.352l.064-2.176a26.139,26.139,0,0,1-5.04.544c-1.76,0-2.048-.352-2.048-1.344v-4.24c2.272-.464,4.432-.88,4.928-.992a13.624,13.624,0,0,1-2.56,3.248l1.76,1.04a22.93,22.93,0,0,0,3.312-4.656c.144-.288.384-.656.528-.88l-1.536-1.184a4.511,4.511,0,0,1-1.136.368c-.72.176-2.96.624-5.3,1.072V8.2a16.814,16.814,0,0,1,.144-1.84h-2.384a13.838,13.838,0,0,1,.128,1.84v2.288c-1.584.288-2.992.528-3.744.624l.384,2.1c.672-.16,1.936-.416,3.36-.7ZM200.356,6.84l-1.5,1.6a33.268,33.268,0,0,1,4,3.456l1.632-1.664A32.315,32.315,0,0,0,200.356,6.84Zm-2,10.656,1.344,2.112a17.328,17.328,0,0,0,5.936-2.256,17.014,17.014,0,0,0,5.92-5.92l-1.248-2.256a15.066,15.066,0,0,1-5.824,6.224A16.491,16.491,0,0,1,198.356,17.5ZM221.6,6.328l-2.32-.72a6.622,6.622,0,0,1-.736,1.664A14.856,14.856,0,0,1,213.46,12.6l1.728,1.328a19.244,19.244,0,0,0,4.224-4.144h4.576a11.357,11.357,0,0,1-1.76,3.536c-1.008-.672-2.016-1.328-2.864-1.808l-1.424,1.456c.816.512,1.872,1.232,2.912,2a13.593,13.593,0,0,1-5.872,3.472l1.856,1.616a15.055,15.055,0,0,0,5.728-3.792c.656.528,1.248,1.024,1.68,1.424l1.52-1.808c-.464-.384-1.088-.848-1.776-1.344a18.322,18.322,0,0,0,2.368-4.608,7.527,7.527,0,0,1,.528-1.136l-1.632-1.008a5.08,5.08,0,0,1-1.392.176h-3.248A17.236,17.236,0,0,1,221.6,6.328Zm8.368,5.264V14.1c.592-.048,1.664-.08,2.576-.08h8.592c.672,0,1.488.064,1.872.08V11.592c-.416.032-1.12.1-1.872.1h-8.592C231.716,11.688,230.548,11.64,229.972,11.592ZM13.916,31.384H3.2v1.7h10.72Zm0,3.568H3.2v1.7H7.644V42.84H9.468V36.648h4.448Zm5.264,3.184,1.84-2.944c.336-.64.656-1.3.944-1.936h.064c-.032.7-.08,1.776-.08,2.464v2.416ZM21.948,43H24.14V39.928h1.392V38.136H24.14V31.144H21.308l-4.416,7.184v1.6h5.056Zm8.448.224a4,4,0,0,0,4.144-4.16,3.438,3.438,0,0,0-3.648-3.76,3.11,3.11,0,0,0-1.424.336l.224-2.512H34V31.144H27.66l-.32,5.76,1.072.7a2.833,2.833,0,0,1,1.776-.624,1.916,1.916,0,0,1,2,2.144,1.988,1.988,0,0,1-2.1,2.176,3.68,3.68,0,0,1-2.608-1.2l-1.088,1.5A5.4,5.4,0,0,0,30.4,43.224Zm9.728,0c2.416,0,4-2.112,4-6.192s-1.584-6.1-4-6.1-4.016,2-4.016,6.1C36.108,41.112,37.708,43.224,40.124,43.224Zm0-1.84c-1.024,0-1.792-1.024-1.792-4.352,0-3.312.768-4.272,1.792-4.272s1.776.96,1.776,4.272C41.9,40.36,41.148,41.384,40.124,41.384Zm5.488-2.128H49.98v-1.68H45.612Zm9.856,3.968c2.416,0,4-2.112,4-6.192s-1.584-6.1-4-6.1-4.016,2-4.016,6.1C51.452,41.112,53.052,43.224,55.468,43.224Zm0-1.84c-1.024,0-1.792-1.024-1.792-4.352,0-3.312.768-4.272,1.792-4.272s1.776.96,1.776,4.272C57.244,40.36,56.492,41.384,55.468,41.384Zm9.424,1.84c2.416,0,4-2.112,4-6.192s-1.584-6.1-4-6.1-4.016,2-4.016,6.1C60.876,41.112,62.476,43.224,64.892,43.224Zm0-1.84c-1.024,0-1.792-1.024-1.792-4.352,0-3.312.768-4.272,1.792-4.272s1.776.96,1.776,4.272C66.668,40.36,65.916,41.384,64.892,41.384Zm9.424,1.84c2.416,0,4-2.112,4-6.192s-1.584-6.1-4-6.1-4.016,2-4.016,6.1C70.3,41.112,71.9,43.224,74.316,43.224Zm0-1.84c-1.024,0-1.792-1.024-1.792-4.352,0-3.312.768-4.272,1.792-4.272s1.776.96,1.776,4.272C76.092,40.36,75.34,41.384,74.316,41.384ZM79.708,43h7.936V41.016h-2.56c-.56,0-1.344.064-1.936.128,2.16-2.112,3.936-4.416,3.936-6.56a3.473,3.473,0,0,0-3.728-3.648,4.753,4.753,0,0,0-3.76,1.792l1.28,1.28a3.1,3.1,0,0,1,2.176-1.216,1.691,1.691,0,0,1,1.776,1.92c0,1.824-1.9,4.048-5.12,6.928Zm29.936-9.856.48-.208a4.669,4.669,0,0,0-.688-1.3l1.632-.1a7.134,7.134,0,0,1,.736,1.6Zm3.008,0,.848-.32a5.544,5.544,0,0,0-.64-1.392c1.072-.1,2.112-.192,3.088-.32a16.45,16.45,0,0,1-1.1,2.032ZM107.42,34.6h3.84l-.352.384a9.5,9.5,0,0,1,2.272,1.376l.96-1.056a8.6,8.6,0,0,0-1.088-.7H117.4v1.344c-.384-.336-.784-.672-1.152-.944l-1.28.9a12.086,12.086,0,0,1,2.448,2.56l1.36-1.024a7.071,7.071,0,0,0-1.024-1.152h1.536V33.144h-2.56c.368-.48.784-1.056,1.184-1.648l-1.44-.448c.72-.112,1.408-.224,2.032-.352l-1.248-1.264a75.67,75.67,0,0,1-11.2.912,5,5,0,0,1,.368,1.376c.432,0,.864-.016,1.3-.032l-.176.08a8.644,8.644,0,0,1,.816,1.376h-2.752v2.912h1.808Zm-.048,4.016a5.981,5.981,0,0,0,2.144-2.72l-1.424-.608a5.019,5.019,0,0,1-2.032,2.256Zm6.9,1.552a7.93,7.93,0,0,1-1.824,1.168,8.233,8.233,0,0,1-2-1.168Zm1.584-1.36-.32.048H111.82a8.542,8.542,0,0,0,.624-.7l-.1-.032h1.472c1.184,0,1.632-.336,1.808-1.568a5.039,5.039,0,0,1-1.456-.5c-.048.656-.16.752-.56.752h-1.68c-.528,0-.64-.032-.64-.4V35.3h-1.744v1.1c0,.912.192,1.392.9,1.584a11.851,11.851,0,0,1-4.848,2.672,12.3,12.3,0,0,1,1.312,1.264,18.274,18.274,0,0,0,2.128-1.008,9.108,9.108,0,0,0,1.44,1.12,26.384,26.384,0,0,1-5.2.832,7.212,7.212,0,0,1,.976,1.552,24.41,24.41,0,0,0,6.176-1.376,22.129,22.129,0,0,0,6.24,1.36,7.853,7.853,0,0,1,1.088-1.7,28.137,28.137,0,0,1-5.248-.7,8.04,8.04,0,0,0,2.528-2.448Zm12.736-1.248V35.768h-2.624V33.224h2.256v-1.76H124c.16-.544.288-1.088.4-1.648l-1.824-.368a11.919,11.919,0,0,1-1.792,4.816,10.7,10.7,0,0,1,1.536,1.1,11.16,11.16,0,0,0,1.088-2.144h.64v2.544h-2.96V37.56h2.832a7.474,7.474,0,0,1-3.072,5.344,7.235,7.235,0,0,1,1.36,1.44,8.542,8.542,0,0,0,3.024-4.192c.784.976,1.7,2.176,2.224,3.008l1.28-1.6c-.448-.528-2.176-2.528-3.008-3.344.048-.208.08-.432.112-.656Zm2.272,3.424V32.616h2.32v8.368Zm-1.84-10.16v13.1h1.84V42.776h2.32v.912h1.936V30.824Zm19.056,1.28H142.8v-.8h5.28Zm0,2.048H142.8V33.32h5.28Zm0,2.016H142.8v-.816h5.28Zm1.872-6.16H141v7.456h8.944Zm-9.456,10.416A11.358,11.358,0,0,1,137.084,43a16.024,16.024,0,0,1,1.552,1.28,15.883,15.883,0,0,0,3.84-3.12Zm11.152-.448V38.3H139.9V30.968h-1.92v9.344h1.92v-.336h3.568v4.416h2V39.976Zm-5.168,1.344a32.7,32.7,0,0,1,3.6,2.976l1.76-1.184a33.778,33.778,0,0,0-3.728-2.816Zm12.9.72V38.92H164.8v3.12Zm2.816-9.36a12.54,12.54,0,0,1-2.224,2.928A22.561,22.561,0,0,0,157.42,33.5c.272-.272.528-.544.784-.816Zm4.592,4.512h-5.712a14.812,14.812,0,0,0,3.712-5.584l-1.312-.688-.32.1h-3.632c.288-.416.56-.832.8-1.248l-2.144-.4a12.782,12.782,0,0,1-5.312,5.088,6.627,6.627,0,0,1,1.344,1.488,16.468,16.468,0,0,0,1.776-1.216,22.224,22.224,0,0,1,2.448,2.208,17.788,17.788,0,0,1-5.6,2.768,6.081,6.081,0,0,1,1.1,1.7,20.512,20.512,0,0,0,3.536-1.568v4.544h1.9v-.624H164.8v.64h1.984Zm13.248,4.64H172.8V38.7h7.232Zm3.7-7.808V32.168h-6.24v-2.72H175.4v2.72H169.18v1.856H175.4v2.864H170.8v7.5h2V43.64h7.232v.688h2.08v-7.44h-4.624V34.024Zm11.712,2.416-.688.416a8.652,8.652,0,0,1,.784.608c-1.072.032-2.144.064-3.152.1.256-.352.528-.736.784-1.12Zm1.472-4.72v.992h-8.32V31.72ZM194.62,42.5V41.4h3.84V39.9h-3.84V38.9l2.448-.1a7.993,7.993,0,0,1,.736.784l1.584-.976a17.268,17.268,0,0,0-2.528-2.176h2.4V34.952H188.588v-.7h10.24V30.184H186.684v4.624c0,2.544-.128,6.144-1.712,8.608a7.423,7.423,0,0,1,1.7.976c1.376-2.144,1.792-5.344,1.888-7.952h2.5c-.224.4-.464.816-.688,1.184l-1.68.032.08,1.488c1.136-.048,2.512-.1,4.016-.16V39.9H189v1.5h3.776v1.1h-4.848v1.5H199.6V42.5Zm21.152-9.184V31.464H209.42v-2.08h-2.032v2.08H201.18V33.32H207.4V35h-4.72v7.472h1.92V36.856h2.8v7.552h1.984V36.856h3.056v3.52c0,.176-.08.256-.336.256s-1.2,0-2-.032a6.829,6.829,0,0,1,.64,1.872,7.63,7.63,0,0,0,2.832-.32c.656-.288.848-.832.848-1.744V35h-5.04V33.32Zm9.648,4.208v-3.44h3.616v3.44Zm-5.616,0v-3.44h3.6v3.44Zm5.616-5.312V29.448H223.4v2.768h-5.52V40.28h1.92V39.4h3.6v4.992h2.016V39.4h3.616v.8h2V32.216Zm12.112,2.3h2.128V32.728h-2.128v-3.28h-1.856v3.28h-2.448V34.52h2.24a15,15,0,0,1-2.688,5.344,11.087,11.087,0,0,1,.944,1.84,13.765,13.765,0,0,0,1.952-3.6v6.272h1.856V37.8c.464.7.928,1.44,1.2,1.952l1.168-1.584c-.336-.432-1.84-2.192-2.368-2.72ZM248,32.7H246.38V29.464h-1.952V32.7h-4.336V34.5h4.336v7.52c0,.288-.1.384-.4.384-.336.016-1.344.016-2.352-.032a8.353,8.353,0,0,1,.688,2.016,7.85,7.85,0,0,0,3.12-.384c.656-.3.9-.832.9-1.952V34.5H248Zm-4.256,6.672a12.827,12.827,0,0,0-1.952-3.664l-1.568.752a13.658,13.658,0,0,1,1.808,3.776Zm20.032,2.448h-12.1v-9.7H263.4V30.3H249.772v14.1h1.9V43.64h12.1Zm-1.856-2.224a20.667,20.667,0,0,0-3.04-2.912,22.377,22.377,0,0,0,2.352-3.712l-1.872-.624a17.54,17.54,0,0,1-1.984,3.168c-1.072-.8-2.192-1.552-3.216-2.176l-1.328,1.2a36.052,36.052,0,0,1,3.328,2.4,16.8,16.8,0,0,1-3.9,3.04,14.624,14.624,0,0,1,1.488,1.5,20.683,20.683,0,0,0,3.872-3.328,20.914,20.914,0,0,1,2.8,2.864Zm9.456,2.448V38.92H276.8v3.12Zm2.816-9.36a12.54,12.54,0,0,1-2.224,2.928A22.561,22.561,0,0,0,269.42,33.5c.272-.272.528-.544.784-.816Zm4.592,4.512h-5.712a14.812,14.812,0,0,0,3.712-5.584l-1.312-.688-.32.1h-3.632c.288-.416.56-.832.8-1.248l-2.144-.4a12.782,12.782,0,0,1-5.312,5.088,6.627,6.627,0,0,1,1.344,1.488,16.471,16.471,0,0,0,1.776-1.216,22.227,22.227,0,0,1,2.448,2.208,17.788,17.788,0,0,1-5.6,2.768,6.081,6.081,0,0,1,1.1,1.7,20.511,20.511,0,0,0,3.536-1.568v4.544h1.9v-.624H276.8v.64h1.984Zm2.96,6.368a8.08,8.08,0,0,0,.928-3.968l-1.056-.192a7.472,7.472,0,0,1-.848,3.632Zm1.088-3.792a18.939,18.939,0,0,1,.112,2.96l.88-.112a15.849,15.849,0,0,0-.176-2.944Zm1.1-.112a13.1,13.1,0,0,1,.5,2.592l.848-.16a12.819,12.819,0,0,0-.544-2.576Zm-.64-3.36h1.024v.992h-1.024Zm1.024-4.736v.928h-1.024V31.56Zm0,3.312h-1.024v-.944h1.024Zm1.536,2.416V36.3h1.7V34.872h-1.7v-.944h1.7v-1.44h-1.7V31.56H287.8V30.024h-6.112V38.76h4.736c-.032.656-.064,1.216-.1,1.7a11.635,11.635,0,0,0-.544-1.3l-.768.256a8.808,8.808,0,0,1,.736,2.08l.5-.192a3.515,3.515,0,0,1-.32,1.44.45.45,0,0,1-.432.192,9.149,9.149,0,0,1-1.008-.048,3.955,3.955,0,0,1,.4,1.488,7.765,7.765,0,0,0,1.44-.048,1.349,1.349,0,0,0,.96-.56c.384-.48.576-2,.736-5.84.016-.208.032-.64.032-.64Zm7.824-5.52V35.4h-3.008V31.768Zm1.728,5.36v-7.12h-6.48v6.144c0,2.32-.112,5.3-1.472,7.328a6.947,6.947,0,0,1,1.52.944c1.312-1.92,1.632-4.88,1.68-7.3h.752c.528,3.264,1.456,5.84,3.472,7.3a6.346,6.346,0,0,1,1.232-1.536c-1.664-1.072-2.56-3.232-3.024-5.76ZM47.612,62.136l1.84-2.944c.336-.64.656-1.3.944-1.936h.064c-.032.7-.08,1.776-.08,2.464v2.416ZM50.38,67h2.192V63.928h1.392V62.136H52.572V55.144H49.74l-4.416,7.184v1.6H50.38ZM69.532,54.664H55.308v1.984h6.448v9.008c0,.352-.16.448-.56.464-.416.016-1.9,0-3.2-.064a8.738,8.738,0,0,1,.928,2.24,12.242,12.242,0,0,0,3.92-.384c.864-.336,1.184-.912,1.184-2.224v-9.04h5.5Zm5.088,10.7V63.48h7.408v1.888ZM82.028,59.8v1.888H74.62V59.8Zm0-3.632v1.84H74.62v-1.84ZM72.7,54.312v13.9h1.92v-.992h7.408v.992h2.016v-13.9ZM87.1,67h7.936V65.016h-2.56c-.56,0-1.344.064-1.936.128,2.16-2.112,3.936-4.416,3.936-6.56a3.473,3.473,0,0,0-3.728-3.648,4.753,4.753,0,0,0-3.76,1.792l1.28,1.28a3.1,3.1,0,0,1,2.176-1.216,1.691,1.691,0,0,1,1.776,1.92c0,1.824-1.9,4.048-5.12,6.928Zm11.36-4.864,1.84-2.944c.336-.64.656-1.3.944-1.936h.064c-.032.7-.08,1.776-.08,2.464v2.416ZM101.228,67h2.192V63.928h1.392V62.136H103.42V55.144h-2.832l-4.416,7.184v1.6h5.056Zm7.984-4.9a15.255,15.255,0,0,0,3.056-2.176v1.9h1.872V59.848a13.768,13.768,0,0,0,3.136,2.256Zm4.9,4.368v-.864h2.544v.864Zm-4.128-.864h2.352v.864H109.98Zm2.352-1.232H109.98v-.848h2.352Zm4.32,0h-2.544v-.848h2.544Zm-4.384-6.592h-1.92l.736-.288a6.851,6.851,0,0,0-.96-1.632c.72-.032,1.424-.064,2.144-.112Zm3.648,0H114.14V55.608c.768-.064,1.5-.144,2.224-.24a13.476,13.476,0,0,1-1.008,2.24Zm4.48,1.552V57.784h-3.184c.384-.544.848-1.264,1.28-1.952l-1.968-.48c.96-.128,1.872-.272,2.688-.432l-1.2-1.376a74.563,74.563,0,0,1-10.928.96,5.637,5.637,0,0,1,.384,1.44c.512-.016,1.04-.016,1.584-.032l-.768.272a8.569,8.569,0,0,1,.944,1.6H106.14v1.552h4.336a15.059,15.059,0,0,1-4.736,2.336,8.327,8.327,0,0,1,1.168,1.456c.416-.144.832-.3,1.248-.5v5.776h1.824v-.5h6.672v.432h1.9V62.712c.368.144.736.288,1.1.4a8.716,8.716,0,0,1,1.248-1.616,14.875,14.875,0,0,1-4.976-2.16Zm5.28,7.888a4,4,0,0,0,4.144-4.16,3.438,3.438,0,0,0-3.648-3.76,3.11,3.11,0,0,0-1.424.336l.224-2.512h4.3V55.144H122.94l-.32,5.76,1.072.7a2.833,2.833,0,0,1,1.776-.624,1.916,1.916,0,0,1,2,2.144,1.988,1.988,0,0,1-2.1,2.176,3.68,3.68,0,0,1-2.608-1.2l-1.088,1.5A5.4,5.4,0,0,0,125.676,67.224ZM142,57.384h-6.608V55.656H142Zm1.984-3.392H133.532v5.056H143.98Zm1.84,7.6V59.864H131.5v1.728h3.024c-.368,1.152-.8,2.336-1.168,3.184l2.08.32c.1-.256.208-.528.3-.832h6.032c-.224,1.3-.48,1.984-.784,2.224a1.328,1.328,0,0,1-.8.16c-.48,0-1.648-.016-2.72-.128a3.949,3.949,0,0,1,.656,1.824,26.942,26.942,0,0,0,2.768.016,2.6,2.6,0,0,0,1.76-.624c.576-.528.96-1.792,1.28-4.416a6.027,6.027,0,0,0,.1-.784h-7.7l.3-.944ZM158.8,57.816a10.578,10.578,0,0,0,1.376-1.664h.64a9.816,9.816,0,0,1,1.008,1.664Zm3.536,2.544H159.2v-.992h3.136Zm-4.976,2.5H154.38l.224-.944h2.752Zm.528-6.7a6.527,6.527,0,0,1-.7.64,11.5,11.5,0,0,1,1.52,1.024h-3.728l1.3-.576a6.908,6.908,0,0,0-.5-1.088Zm7.68-1.472H161.02c.144-.3.288-.608.4-.912l-1.792-.448a8.687,8.687,0,0,1-1.552,2.624V54.68h-3.568c.144-.288.288-.592.4-.88l-1.76-.48a9.511,9.511,0,0,1-2.5,3.632,11.737,11.737,0,0,1,1.536,1.04,12.954,12.954,0,0,0,1.456-1.84h.208a8.714,8.714,0,0,1,.752,1.664h-2.16v1.552h4.912v.992H153.02a33.909,33.909,0,0,1-1.056,4.224l1.92.224.1-.368h1.872a14.88,14.88,0,0,1-4.752,2.288,7.566,7.566,0,0,1,1.184,1.488,14.974,14.974,0,0,0,5.072-2.992v3.168h1.84V64.44h3.92a3.049,3.049,0,0,1-.384,1.472.757.757,0,0,1-.544.144,13.19,13.19,0,0,1-1.632-.064,4.2,4.2,0,0,1,.528,1.728,19.38,19.38,0,0,0,2.032-.032,1.7,1.7,0,0,0,1.216-.56c.416-.432.608-1.456.768-3.6.016-.224.032-.672.032-.672H159.2v-.944H164.2v-4.1h-2.192l1.488-.576a7,7,0,0,0-.656-1.088h2.72ZM167,67h7.936V65.016h-2.56c-.56,0-1.344.064-1.936.128,2.16-2.112,3.936-4.416,3.936-6.56a3.473,3.473,0,0,0-3.728-3.648,4.753,4.753,0,0,0-3.76,1.792l1.28,1.28a3.1,3.1,0,0,1,2.176-1.216,1.691,1.691,0,0,1,1.776,1.92c0,1.824-1.9,4.048-5.12,6.928Zm15.712-6.4H184.6V57.208a12.784,12.784,0,0,0,5.088,3.344,7.762,7.762,0,0,1,1.216-1.568,12.75,12.75,0,0,1-4.544-2.256h3.84v-1.68h-5.6V53.416h-1.888v1.632h-5.344v1.68h3.584a11.871,11.871,0,0,1-4.32,2.4,6.626,6.626,0,0,1,1.2,1.472,12.306,12.306,0,0,0,4.88-3.328ZM181,63.432h2.048V61.768H181V60.056h-1.792v1.712h-2.7v1.664h2.016a7.445,7.445,0,0,1-2.368,2.464,9.433,9.433,0,0,1,.8,1.792,7.778,7.778,0,0,0,2.256-2.5v3.184H181V65.448c.384.368.768.752.992,1.008l1.1-1.408c-.3-.24-1.472-1.008-2.1-1.376Zm10.016,0V61.768h-3.152V60.056h-1.776v1.712h-2.544v1.664h1.6a7.694,7.694,0,0,1-2.848,2.96,7.942,7.942,0,0,1,1.168,1.376,8.639,8.639,0,0,0,2.624-2.96v3.568h1.776v-3.6a11.019,11.019,0,0,0,2.224,2.96,8.268,8.268,0,0,1,1.344-1.536,9.512,9.512,0,0,1-2.7-2.768Zm12.528-9.392-1.264.512a19.151,19.151,0,0,1,1.248,2.224l1.3-.544C204.524,55.64,203.948,54.632,203.548,54.04Zm1.888-.72-1.264.512a16.963,16.963,0,0,1,1.3,2.208l1.264-.544A17.662,17.662,0,0,0,205.436,53.32Zm-8.784,1.408h-2.368a13.241,13.241,0,0,1,.128,1.664v8.72a2.308,2.308,0,0,0,2.192,2.4,17.81,17.81,0,0,0,2.688.176,45.466,45.466,0,0,0,5.7-.336V65.016a27.106,27.106,0,0,1-5.568.56,14.965,14.965,0,0,1-1.856-.1c-.72-.144-1.04-.32-1.04-1.008v-2.96A55.227,55.227,0,0,0,202.8,59.56c.528-.192,1.248-.5,1.872-.752l-.864-2.032a10.348,10.348,0,0,1-1.744.864,40.351,40.351,0,0,1-5.536,1.776V56.392A12.02,12.02,0,0,1,196.652,54.728Zm19.136,11.92,1.344,1.1a3.418,3.418,0,0,1,.688-.48,17.617,17.617,0,0,0,5.424-4.368l-1.232-1.76a10.132,10.132,0,0,1-3.952,3.376V56.152a8.124,8.124,0,0,1,.112-1.392h-2.384a7.094,7.094,0,0,1,.128,1.376v9.328A6.089,6.089,0,0,1,215.788,66.648Zm-7.408-.24,1.952,1.3a9.381,9.381,0,0,0,2.848-4.592,35.3,35.3,0,0,0,.48-6.88,10.54,10.54,0,0,1,.112-1.456H211.42a6.071,6.071,0,0,1,.144,1.472,27.571,27.571,0,0,1-.464,6.336A7.548,7.548,0,0,1,208.38,66.408Zm17.984-4.272,1.84-2.944c.336-.64.656-1.3.944-1.936h.064c-.032.7-.08,1.776-.08,2.464v2.416ZM229.132,67h2.192V63.928h1.392V62.136h-1.392V55.144h-2.832l-4.416,7.184v1.6h5.056Zm8.752.224c2.416,0,4-2.112,4-6.192s-1.584-6.1-4-6.1-4.016,2-4.016,6.1C233.868,65.112,235.468,67.224,237.884,67.224Zm0-1.84c-1.024,0-1.792-1.024-1.792-4.352,0-3.312.768-4.272,1.792-4.272s1.776.96,1.776,4.272C239.66,64.36,238.908,65.384,237.884,65.384ZM243.9,67h7.12V65.1H248.8V55.144h-1.744a7.386,7.386,0,0,1-2.752,1.008v1.456h2.144V65.1H243.9Z" transform="translate(287 2863)" fill="#303030"/>
    <path id="Icon_material-location-on" data-name="Icon material-location-on" d="M18,3A10.492,10.492,0,0,0,7.5,13.5C7.5,21.375,18,33,18,33S28.5,21.375,28.5,13.5A10.492,10.492,0,0,0,18,3Zm0,14.25a3.75,3.75,0,1,1,3.75-3.75A3.751,3.751,0,0,1,18,17.25Z" transform="translate(417.5 2800)" fill="#bb1c21"/>
  </g>
</svg>
