<svg xmlns="http://www.w3.org/2000/svg" width="279.3" height="113.5" viewBox="0 0 279.3 113.5">
  <g id="Group_430" data-name="Group 430" transform="translate(-1349.92 -2805)">
    <path id="Path_502" data-name="Path 502" d="M2.96-12.32a2.073,2.073,0,0,1-1.47-.53,1.717,1.717,0,0,1-.57-1.31,1.74,1.74,0,0,1,.57-1.33,2.073,2.073,0,0,1,1.47-.53,2.046,2.046,0,0,1,1.45.53,1.74,1.74,0,0,1,.57,1.33,1.717,1.717,0,0,1-.57,1.31A2.046,2.046,0,0,1,2.96-12.32Zm1.7,1.16V0H1.24V-11.16Zm9.28-.12a4.05,4.05,0,0,1,3.13,1.27,4.954,4.954,0,0,1,1.17,3.49V0h-3.4V-6.06a2.449,2.449,0,0,0-.58-1.74,2.034,2.034,0,0,0-1.56-.62,2.034,2.034,0,0,0-1.56.62,2.449,2.449,0,0,0-.58,1.74V0H7.14V-11.16h3.42v1.48a3.608,3.608,0,0,1,1.4-1.17A4.451,4.451,0,0,1,13.94-11.28ZM26.22-8.32H24.38V0H20.96V-8.32H19.72v-2.84h1.24v-.32a4.011,4.011,0,0,1,1.18-3.13,4.99,4.99,0,0,1,3.46-1.07q.38,0,.56.02v2.9a1.962,1.962,0,0,0-1.38.28,1.54,1.54,0,0,0-.4,1.22v.1h1.84ZM32.9.16a6.16,6.16,0,0,1-2.95-.7,5.126,5.126,0,0,1-2.06-2,5.976,5.976,0,0,1-.75-3.04,5.928,5.928,0,0,1,.76-3.03,5.157,5.157,0,0,1,2.08-2.01,6.219,6.219,0,0,1,2.96-.7,6.219,6.219,0,0,1,2.96.7,5.157,5.157,0,0,1,2.08,2.01,5.928,5.928,0,0,1,.76,3.03,5.868,5.868,0,0,1-.77,3.03,5.207,5.207,0,0,1-2.1,2.01A6.278,6.278,0,0,1,32.9.16Zm0-2.96a2.228,2.228,0,0,0,1.67-.72,2.86,2.86,0,0,0,.69-2.06,2.914,2.914,0,0,0-.67-2.06,2.165,2.165,0,0,0-1.65-.72,2.17,2.17,0,0,0-1.66.71,2.935,2.935,0,0,0-.66,2.07,2.971,2.971,0,0,0,.65,2.06A2.1,2.1,0,0,0,32.9-2.8ZM51.68-13.36a9.019,9.019,0,0,1,4.12.89,6.436,6.436,0,0,1,2.71,2.5,7.162,7.162,0,0,1,.95,3.71,8.355,8.355,0,0,1-.59,3.16A5.371,5.371,0,0,1,57.13-.77,4.4,4.4,0,0,1,54.4.1a3.318,3.318,0,0,1-1.75-.42,2.072,2.072,0,0,1-.93-1.18A3.792,3.792,0,0,1,50.28-.29a4.314,4.314,0,0,1-1.92.43,3.069,3.069,0,0,1-2.33-.89,3.373,3.373,0,0,1-.85-2.43,6.442,6.442,0,0,1,.6-2.75A5.275,5.275,0,0,1,47.44-8a3.917,3.917,0,0,1,2.38-.78,2.306,2.306,0,0,1,2.28,1.2l.18-1.06h2.76l-.88,5.02a3.942,3.942,0,0,0-.06.64q0,.88.78.88.96,0,1.47-1.23a7.34,7.34,0,0,0,.51-2.83,4.587,4.587,0,0,0-1.45-3.6,5.886,5.886,0,0,0-4.07-1.3,7.858,7.858,0,0,0-4.07,1.08A7.721,7.721,0,0,0,44.4-7.03a8.314,8.314,0,0,0-1.04,4.11A4.939,4.939,0,0,0,44.77.84a5.505,5.505,0,0,0,3.95,1.34,8.355,8.355,0,0,0,3.54-.72l.54,2.18a10.841,10.841,0,0,1-4.4.86,8.729,8.729,0,0,1-4.01-.88,6.328,6.328,0,0,1-2.67-2.5,7.4,7.4,0,0,1-.94-3.78A10.709,10.709,0,0,1,42.2-8.13a10.159,10.159,0,0,1,3.91-3.84A11.23,11.23,0,0,1,51.68-13.36ZM49.48-2.32a1.808,1.808,0,0,0,1.05-.34,2.419,2.419,0,0,0,.78-.91A2.674,2.674,0,0,0,51.6-4.8a1.614,1.614,0,0,0-.38-1.11,1.317,1.317,0,0,0-1.04-.43,1.767,1.767,0,0,0-1.46.76,2.881,2.881,0,0,0-.58,1.8,1.581,1.581,0,0,0,.34,1.06A1.239,1.239,0,0,0,49.48-2.32Zm19.48-8.96a4.05,4.05,0,0,1,3.13,1.27,4.954,4.954,0,0,1,1.17,3.49V0h-3.4V-6.06a2.449,2.449,0,0,0-.58-1.74,2.034,2.034,0,0,0-1.56-.62,2.034,2.034,0,0,0-1.56.62,2.449,2.449,0,0,0-.58,1.74V0H62.16V-11.16h3.42v1.48a3.608,3.608,0,0,1,1.4-1.17A4.451,4.451,0,0,1,68.96-11.28Zm6,5.68a6.67,6.67,0,0,1,.65-3.02,4.848,4.848,0,0,1,1.77-2,4.621,4.621,0,0,1,2.5-.7,4.3,4.3,0,0,1,2.07.48,3.536,3.536,0,0,1,1.37,1.26v-1.58h3.42V0H83.32V-1.58A3.693,3.693,0,0,1,81.93-.32a4.3,4.3,0,0,1-2.07.48,4.538,4.538,0,0,1-2.48-.71,4.906,4.906,0,0,1-1.77-2.02A6.733,6.733,0,0,1,74.96-5.6Zm8.36.02a2.8,2.8,0,0,0-.71-2.02,2.307,2.307,0,0,0-1.73-.74,2.322,2.322,0,0,0-1.73.73,2.761,2.761,0,0,0-.71,2.01,2.832,2.832,0,0,0,.71,2.03,2.292,2.292,0,0,0,1.73.75,2.307,2.307,0,0,0,1.73-.74A2.8,2.8,0,0,0,83.32-5.58Zm10.14-5.74a4.3,4.3,0,0,1,2.07.48A3.536,3.536,0,0,1,96.9-9.58v-1.58h3.42V-.02a6.277,6.277,0,0,1-.61,2.79,4.649,4.649,0,0,1-1.86,1.99,6.017,6.017,0,0,1-3.11.74,6.468,6.468,0,0,1-4.02-1.17,4.416,4.416,0,0,1-1.76-3.17h3.38a1.618,1.618,0,0,0,.76,1.01,2.77,2.77,0,0,0,1.48.37,2.326,2.326,0,0,0,1.69-.61A2.616,2.616,0,0,0,96.9-.02V-1.6A3.793,3.793,0,0,1,95.52-.33a4.166,4.166,0,0,1-2.06.49,4.572,4.572,0,0,1-2.5-.71,4.906,4.906,0,0,1-1.77-2.02,6.733,6.733,0,0,1-.65-3.03,6.67,6.67,0,0,1,.65-3.02,4.848,4.848,0,0,1,1.77-2A4.621,4.621,0,0,1,93.46-11.32ZM96.9-5.58a2.8,2.8,0,0,0-.71-2.02,2.307,2.307,0,0,0-1.73-.74,2.322,2.322,0,0,0-1.73.73,2.761,2.761,0,0,0-.71,2.01,2.832,2.832,0,0,0,.71,2.03,2.292,2.292,0,0,0,1.73.75,2.307,2.307,0,0,0,1.73-.74A2.8,2.8,0,0,0,96.9-5.58ZM107.88.16a6.16,6.16,0,0,1-2.95-.7,5.126,5.126,0,0,1-2.06-2,5.976,5.976,0,0,1-.75-3.04,5.928,5.928,0,0,1,.76-3.03,5.157,5.157,0,0,1,2.08-2.01,6.219,6.219,0,0,1,2.96-.7,6.219,6.219,0,0,1,2.96.7,5.157,5.157,0,0,1,2.08,2.01,5.928,5.928,0,0,1,.76,3.03,5.868,5.868,0,0,1-.77,3.03,5.207,5.207,0,0,1-2.1,2.01A6.278,6.278,0,0,1,107.88.16Zm0-2.96a2.228,2.228,0,0,0,1.67-.72,2.86,2.86,0,0,0,.69-2.06,2.914,2.914,0,0,0-.67-2.06,2.165,2.165,0,0,0-1.65-.72,2.17,2.17,0,0,0-1.66.71,2.935,2.935,0,0,0-.66,2.07,2.971,2.971,0,0,0,.65,2.06A2.1,2.1,0,0,0,107.88-2.8Zm19.06-8.36-7,16.46h-3.68l2.56-5.68-4.54-10.78h3.82l2.58,6.98,2.56-6.98Zm.56,5.56a6.67,6.67,0,0,1,.65-3.02,4.848,4.848,0,0,1,1.77-2,4.621,4.621,0,0,1,2.5-.7,4.3,4.3,0,0,1,2.07.48,3.536,3.536,0,0,1,1.37,1.26v-1.58h3.42V0h-3.42V-1.58a3.693,3.693,0,0,1-1.39,1.26,4.3,4.3,0,0,1-2.07.48,4.538,4.538,0,0,1-2.48-.71,4.906,4.906,0,0,1-1.77-2.02A6.733,6.733,0,0,1,127.5-5.6Zm8.36.02a2.8,2.8,0,0,0-.71-2.02,2.307,2.307,0,0,0-1.73-.74,2.322,2.322,0,0,0-1.73.73,2.761,2.761,0,0,0-.71,2.01,2.832,2.832,0,0,0,.71,2.03,2.292,2.292,0,0,0,1.73.75,2.307,2.307,0,0,0,1.73-.74A2.8,2.8,0,0,0,135.86-5.58Zm14.5-2.86V-5.6h-8.8V-8.44ZM160.18,0l-3.4-4.68V0h-3.42V-14.8h3.42v8.18l3.38-4.54h4.22l-4.64,5.6L164.42,0Zm16.94-11.16-7,16.46h-3.68L169-.38l-4.54-10.78h3.82l2.58,6.98,2.56-6.98Zm12.26,0V0h-3.42V-1.52a3.753,3.753,0,0,1-1.41,1.19,4.3,4.3,0,0,1-1.97.45,4.412,4.412,0,0,1-2.26-.57A3.843,3.843,0,0,1,178.8-2.1a5.615,5.615,0,0,1-.54-2.54v-6.52h3.4V-5.1a2.449,2.449,0,0,0,.58,1.74,2.034,2.034,0,0,0,1.56.62,2.059,2.059,0,0,0,1.58-.62,2.449,2.449,0,0,0,.58-1.74v-6.06Zm8.68,8.26V0h-1.74a4.259,4.259,0,0,1-2.9-.91,3.761,3.761,0,0,1-1.04-2.97V-8.32h-1.36v-2.84h1.36v-2.72h3.42v2.72h2.24v2.84H195.8v4.48a.937.937,0,0,0,.24.72,1.171,1.171,0,0,0,.8.22ZM205.04.16a6.16,6.16,0,0,1-2.95-.7,5.126,5.126,0,0,1-2.06-2,5.976,5.976,0,0,1-.75-3.04,5.928,5.928,0,0,1,.76-3.03,5.157,5.157,0,0,1,2.08-2.01,6.219,6.219,0,0,1,2.96-.7,6.219,6.219,0,0,1,2.96.7,5.157,5.157,0,0,1,2.08,2.01,5.928,5.928,0,0,1,.76,3.03,5.868,5.868,0,0,1-.77,3.03,5.207,5.207,0,0,1-2.1,2.01A6.278,6.278,0,0,1,205.04.16Zm0-2.96a2.228,2.228,0,0,0,1.67-.72,2.86,2.86,0,0,0,.69-2.06,2.914,2.914,0,0,0-.67-2.06,2.165,2.165,0,0,0-1.65-.72,2.17,2.17,0,0,0-1.66.71,2.935,2.935,0,0,0-.66,2.07,2.971,2.971,0,0,0,.65,2.06A2.1,2.1,0,0,0,205.04-2.8ZM219.52,0l-3.4-4.68V0H212.7V-14.8h3.42v8.18l3.38-4.54h4.22l-4.64,5.6L223.76,0Zm7.26-12.32a2.073,2.073,0,0,1-1.47-.53,1.717,1.717,0,0,1-.57-1.31,1.74,1.74,0,0,1,.57-1.33,2.073,2.073,0,0,1,1.47-.53,2.046,2.046,0,0,1,1.45.53,1.74,1.74,0,0,1,.57,1.33,1.717,1.717,0,0,1-.57,1.31A2.046,2.046,0,0,1,226.78-12.32Zm1.7,1.16V0h-3.42V-11.16ZM232.56.16a2.073,2.073,0,0,1-1.47-.53,1.717,1.717,0,0,1-.57-1.31,1.771,1.771,0,0,1,.57-1.34,2.05,2.05,0,0,1,1.47-.54,2.024,2.024,0,0,1,1.45.54,1.771,1.771,0,0,1,.57,1.34,1.717,1.717,0,0,1-.57,1.31A2.046,2.046,0,0,1,232.56.16Zm3.36-5.74a6.245,6.245,0,0,1,.71-3.04,4.931,4.931,0,0,1,1.98-2,5.929,5.929,0,0,1,2.91-.7,5.533,5.533,0,0,1,3.51,1.1,5.19,5.19,0,0,1,1.85,3.1h-3.64a1.752,1.752,0,0,0-1.78-1.28,1.794,1.794,0,0,0-1.5.73,3.377,3.377,0,0,0-.56,2.09,3.377,3.377,0,0,0,.56,2.09,1.794,1.794,0,0,0,1.5.73,1.752,1.752,0,0,0,1.78-1.28h3.64a5.239,5.239,0,0,1-1.86,3.08,5.476,5.476,0,0,1-3.5,1.12,5.929,5.929,0,0,1-2.91-.7,4.931,4.931,0,0,1-1.98-2A6.245,6.245,0,0,1,235.92-5.58ZM253.78.16a6.16,6.16,0,0,1-2.95-.7,5.126,5.126,0,0,1-2.06-2,5.976,5.976,0,0,1-.75-3.04,5.928,5.928,0,0,1,.76-3.03,5.157,5.157,0,0,1,2.08-2.01,6.219,6.219,0,0,1,2.96-.7,6.219,6.219,0,0,1,2.96.7,5.157,5.157,0,0,1,2.08,2.01,5.928,5.928,0,0,1,.76,3.03,5.868,5.868,0,0,1-.77,3.03,5.207,5.207,0,0,1-2.1,2.01A6.278,6.278,0,0,1,253.78.16Zm0-2.96a2.228,2.228,0,0,0,1.67-.72,2.86,2.86,0,0,0,.69-2.06,2.914,2.914,0,0,0-.67-2.06,2.165,2.165,0,0,0-1.65-.72,2.17,2.17,0,0,0-1.66.71,2.935,2.935,0,0,0-.66,2.07,2.971,2.971,0,0,0,.65,2.06A2.1,2.1,0,0,0,253.78-2.8Zm21.9-8.48a4.414,4.414,0,0,1,3.31,1.26,4.8,4.8,0,0,1,1.23,3.5V0h-3.4V-6.06a2.306,2.306,0,0,0-.57-1.67,2.081,2.081,0,0,0-1.57-.59,2.081,2.081,0,0,0-1.57.59,2.306,2.306,0,0,0-.57,1.67V0h-3.4V-6.06a2.306,2.306,0,0,0-.57-1.67A2.081,2.081,0,0,0,267-8.32a2.081,2.081,0,0,0-1.57.59,2.306,2.306,0,0,0-.57,1.67V0h-3.42V-11.16h3.42v1.4a3.661,3.661,0,0,1,1.36-1.11,4.276,4.276,0,0,1,1.9-.41,4.622,4.622,0,0,1,2.25.54,3.871,3.871,0,0,1,1.55,1.54,4.5,4.5,0,0,1,1.58-1.5A4.269,4.269,0,0,1,275.68-11.28Z" transform="translate(1349 2913)" fill="#303030"/>
    <path id="Icon_ionic-md-mail" data-name="Icon ionic-md-mail" d="M30.75,5.625H5.25a3.009,3.009,0,0,0-3,3v18.75a3.009,3.009,0,0,0,3,3h25.5a3.009,3.009,0,0,0,3-3V8.625A3.009,3.009,0,0,0,30.75,5.625ZM30.375,12,18,20.25,5.625,12V9L18,17.25,30.375,9Z" transform="translate(1466.75 2799.375)" fill="#bb1c21"/>
  </g>
</svg>
