<svg xmlns="http://www.w3.org/2000/svg" width="70" height="70" viewBox="0 0 70 70">
  <g id="Group_406" data-name="Group 406" transform="translate(-542 -1143)">
    <circle id="Ellipse_36" data-name="Ellipse 36" cx="35" cy="35" r="35" transform="translate(542 1143)" fill="#bb1c21"/>
    <path id="Path_279" data-name="Path 279" d="M-8.395.07a3.113,3.113,0,0,1-1.26-.245,2.068,2.068,0,0,1-.88-.7,1.765,1.765,0,0,1-.32-1.05h1.22a1.1,1.1,0,0,0,.355.74,1.258,1.258,0,0,0,.885.29,1.363,1.363,0,0,0,.92-.285.926.926,0,0,0,.33-.735.8.8,0,0,0-.2-.57,1.371,1.371,0,0,0-.51-.34A7.691,7.691,0,0,0-8.7-3.08a7.917,7.917,0,0,1-1.1-.365,1.826,1.826,0,0,1-.725-.575,1.662,1.662,0,0,1-.3-1.04,1.848,1.848,0,0,1,.3-1.05,1.916,1.916,0,0,1,.84-.69,3.052,3.052,0,0,1,1.25-.24,2.6,2.6,0,0,1,1.655.505A1.863,1.863,0,0,1-6.075-5.15h-1.26a.913.913,0,0,0-.36-.65,1.331,1.331,0,0,0-.87-.27,1.234,1.234,0,0,0-.8.25.871.871,0,0,0-.31.72.731.731,0,0,0,.195.525,1.377,1.377,0,0,0,.495.325,7.685,7.685,0,0,0,.82.26,8.561,8.561,0,0,1,1.125.38,1.873,1.873,0,0,1,.74.585A1.681,1.681,0,0,1-5.995-1.97a1.9,1.9,0,0,1-.285,1,2.056,2.056,0,0,1-.83.755A2.737,2.737,0,0,1-8.395.07Zm8.24-7.02v.93H-2V0h-1.14V-6.02H-5v-.93Zm2.29.92v2.04h2.4v.93h-2.4V-.93h2.7V0H1V-6.96h3.84v.93ZM11.1-4.88a2.1,2.1,0,0,1-.25,1,1.874,1.874,0,0,1-.8.765,2.969,2.969,0,0,1-1.41.3H7.375V0H6.235V-6.95h2.4a3.03,3.03,0,0,1,1.355.275,1.912,1.912,0,0,1,.83.745A2.041,2.041,0,0,1,11.1-4.88ZM8.635-3.75a1.39,1.39,0,0,0,.97-.295,1.079,1.079,0,0,0,.32-.835q0-1.14-1.29-1.14H7.375v2.27Z" transform="translate(577 1164)" fill="#fff"/>
    <path id="Path_278" data-name="Path 278" d="M-22.173-14.25q0-6.536,2.527-10.3t8.151-3.762q5.624,0,8.151,3.762t2.527,10.3q0,6.612-2.527,10.374T-11.495-.114q-5.624,0-8.151-3.762T-22.173-14.25Zm14.972,0a16.391,16.391,0,0,0-.836-5.909,3.344,3.344,0,0,0-3.458-2.071,3.344,3.344,0,0,0-3.458,2.071,16.39,16.39,0,0,0-.836,5.909,24.843,24.843,0,0,0,.3,4.275A5.47,5.47,0,0,0-14.25-7.239a3.5,3.5,0,0,0,2.755,1.045A3.5,3.5,0,0,0-8.74-7.239,5.47,5.47,0,0,0-7.5-9.975,24.843,24.843,0,0,0-7.2-14.25ZM2.831-19.912a8.346,8.346,0,0,1,2.66-6.27,9.941,9.941,0,0,1,6.8-2.2,11.08,11.08,0,0,1,4.883.988,7.157,7.157,0,0,1,3.078,2.7A7.213,7.213,0,0,1,21.3-20.862a6.365,6.365,0,0,1-1.254,4.085,6.342,6.342,0,0,1-2.926,2.147v.152a6.855,6.855,0,0,1,3.42,2.394A6.965,6.965,0,0,1,21.793-7.79,7.93,7.93,0,0,1,20.71-3.629,7.4,7.4,0,0,1,17.556-.8,10.973,10.973,0,0,1,12.635.228,11.079,11.079,0,0,1,5.358-2.014Q2.641-4.256,2.489-8.778H8.8a3.832,3.832,0,0,0,.95,2.641,3.479,3.479,0,0,0,2.66.969,3.029,3.029,0,0,0,2.3-.855,3.136,3.136,0,0,0,.817-2.261,3,3,0,0,0-1.159-2.641,6.549,6.549,0,0,0-3.705-.817H9.443v-5.282h1.216a6.433,6.433,0,0,0,3.135-.665,2.479,2.479,0,0,0,1.2-2.375,2.877,2.877,0,0,0-.76-2.128,2.824,2.824,0,0,0-2.09-.76,2.59,2.59,0,0,0-2.147.874,3.917,3.917,0,0,0-.817,2.166Z" transform="translate(577 1198)" fill="#fff"/>
  </g>
</svg>
