<svg xmlns="http://www.w3.org/2000/svg" width="122.749" height="160.89" viewBox="0 0 122.749 160.89">
  <g id="b" transform="translate(0.627 0.441)">
    <g id="c" transform="translate(0 0)">
      <g id="Group_417" data-name="Group 417">
        <path id="Path_364" data-name="Path 364" d="M32.582,165.815a18.375,18.375,0,0,1,7.38-6.716L22.338,141.476l16.413-16.635,2.511,61.9H99.944l.048-.221.553-34.915,2.1,3.638s5.284,4.738,11.9,2.863,8.369-9.587,7.6-14.1-6.059-24.125-6.059-25.779-2.864-5.284-2.864-5.284l-.878-4.074s1.432-6.937-.332-8.7a28.128,28.128,0,0,0-3.528-2.974l.443,8.259S98.014,109.2,96.582,109.2s-1.542-4.627-1.542-4.627a12.367,12.367,0,0,1-3.631-2.967c-1.715-1.674-4.5-2.13-4.849-4.959a3.081,3.081,0,0,1,.353-1.923c.069-.118.823-.719.747-.844-.021-.035-1.314-2.1-.553-2.974a7.861,7.861,0,0,1,2.642-1.542l-.664-2.642L81.372,85.07S84.9,98.4,71.571,109.2c0,0-10.908-8.7-11.122-23.019-.014-.858-7.6,3.2-7.6,3.2L37.029,95.507s-7.311,2.455-11.613,8.736S3.172,139.484,3.172,139.484s-3.742,10.465,4.3,17.734,24.347,19.277,24.347,19.277-1.985-6.059.768-10.686Z" transform="translate(-1.399 -26.804)" fill="#eea008"/>
        <path id="Path_365" data-name="Path 365" d="M125.509,107.557s-7.767,12.976-8.093,14.407-1.1,3.417,1.21,4.074,3.306.111,4.849-2.1,6.937-12.45,6.937-12.45-3.811-3.265-4.9-3.942Z" transform="translate(-36.772 -33.735)" fill="#9fa1a0"/>
        <path id="Path_366" data-name="Path 366" d="M147.7,76.567s5.174-4.959,6.827-7.712,0-8.369,0-8.369l-2.206,2.864-3.853,2.532-1.764-.664,4.275-7.6a4.742,4.742,0,0,0-4.275,1.1,37.218,37.218,0,0,0-3.963,5.4h-2.753l-.443,8.812L147.7,76.56Z" transform="translate(-43.717 -18.301)" fill="#9fa1a0"/>
        <path id="Path_367" data-name="Path 367" d="M91.174,79.1a11.162,11.162,0,0,0,7.269,2.1,20.754,20.754,0,0,0,8.7-2.1L106.7,75.36s-4.738,3.306-8.259,2.919S90.51,75.36,90.51,75.36l.664,3.742Z" transform="translate(-28.596 -23.81)" fill="#dcdcdc"/>
        <path id="Path_368" data-name="Path 368" d="M73.545,36.817,71.56,38.249l1.985,4.738,2.31.768a10.176,10.176,0,0,1,1.653-3.472c1.432-2.151.553-2.919.553-2.919l-4.517-.553Z" transform="translate(-22.753 -11.924)" fill="#a98e7c"/>
        <path id="Path_369" data-name="Path 369" d="M122.578,37.871a1.337,1.337,0,0,0-.228.415l.111-.318c-.484,1.37,1.591,3.659,2.449,4.544a1.955,1.955,0,0,0,1.508.685,1.863,1.863,0,0,0,1.446-1.411,7.485,7.485,0,0,0,.194-3.009,1.514,1.514,0,0,0-.429-1.01,1.628,1.628,0,0,0-.775-.291c-1.12-.194-3.417-.671-4.281.387Z" transform="translate(-38.413 -12.044)" fill="#a98e7c"/>
        <path id="Path_370" data-name="Path 370" d="M70.44,25.059l1.653-13.328,1.874-3.306L88.4.83,97.54,2.151l11.807,5.284s2.711,3.742,2.774,6.059l.062,2.31v6.612l.443,2.642s-4.959,2.186-8.812.484-6.5-5.886-11.786-5.443-7.6,4.406-10.133,5.616a12.463,12.463,0,0,1-7.3.878c-2.186-.318-2.87.18-2.87.18l.484-2.608-1.764.878Z" transform="translate(-22.408 -0.83)" fill="#eea008"/>
        <path id="Path_371" data-name="Path 371" d="M52.6,193.651l14.816-1.321,10.908,6.28-1.874,3.251L67.8,197.677l-6.391,2.31,7.048,2.808,7.767,6.661-2.04,1.93H72.809l-.5,2.808-1.985.664-3.14-2.04-.5,2.7-2.1.5-4.019-1.487L46.8,210.009l-.277-2.255s-1.93-4.849.5-9.31,5.561-4.793,5.561-4.793Z" transform="translate(-14.81 -59.875)" fill="#fff"/>
        <path id="Path_372" data-name="Path 372" d="M93.15,31.151a11.553,11.553,0,0,0,6.495,1.66c4.24,0,6.225-1.432,6.225-1.432a8.41,8.41,0,0,0-6.356-2.366,10.926,10.926,0,0,0-6.356,2.366" transform="translate(-29.41 -9.516)" fill="#a98e7c"/>
        <path id="Path_373" data-name="Path 373" d="M71.079,40l2.753,4.959a4.8,4.8,0,0,0-2.753.878c-.989.878-2.1,3.963.664,7.048s3.963,3.306,4.627,2.974,1.1-1.985,1.1-1.985" transform="translate(-22.273 -12.907)" fill="none" stroke="#000" stroke-linecap="round" stroke-linejoin="round" stroke-width="1"/>
        <path id="Path_374" data-name="Path 374" d="M80.16,58a26.248,26.248,0,0,0,2.206,6.612,18.71,18.71,0,0,0,7.712,7.159,11.323,11.323,0,0,0,9.8,0c3.2-1.653,5.727-3.064,7.159-6.322a44.658,44.658,0,0,0,2.31-7.442" transform="translate(-25.405 -18.457)" fill="none" stroke="#000" stroke-linecap="round" stroke-linejoin="round" stroke-width="1"/>
        <path id="Path_375" data-name="Path 375" d="M122.36,56.648a1.471,1.471,0,0,0,.878,1.328c.878.332,2.206,0,4.185-2.981s2.642-6.28,1.321-7.6-3.085-1.321-4.849.768" transform="translate(-38.417 -14.906)" fill="none" stroke="#000" stroke-linecap="round" stroke-linejoin="round" stroke-width="1"/>
        <path id="Path_376" data-name="Path 376" d="M79.964,39.21c.221.332-1.874,3.853-1.874,3.853" transform="translate(-24.767 -12.664)" fill="none" stroke="#000" stroke-linecap="round" stroke-linejoin="round" stroke-width="1"/>
        <line id="Line_145" data-name="Line 145" x2="0.989" y2="3.528" transform="translate(84.607 25.882)" fill="none" stroke="#000" stroke-linecap="round" stroke-linejoin="round" stroke-width="1"/>
        <path id="Path_377" data-name="Path 377" d="M128.9,39.21a17.248,17.248,0,0,0-1.418,4.517" transform="translate(-39.995 -12.664)" fill="none" stroke="#000" stroke-linecap="round" stroke-linejoin="round" stroke-width="1"/>
        <path id="Path_378" data-name="Path 378" d="M72.67,33.824c.332.111,1.985,3.2,7.38,1.432s6.716-6.716,12.395-6.716,7.214,4.517,11.62,5.284,6.612.332,7.933.989" transform="translate(-23.096 -9.374)" fill="none" stroke="#000" stroke-linecap="round" stroke-linejoin="round" stroke-width="1"/>
        <path id="Path_379" data-name="Path 379" d="M72.67,29.923s3.417-10.686,18.945-10.465,21.041,9.912,21.041,9.912" transform="translate(-23.096 -6.573)" fill="none" stroke="#000" stroke-linecap="round" stroke-linejoin="round" stroke-width="1"/>
        <path id="Path_380" data-name="Path 380" d="M70,25s.747-10.133,1.19-11.786.332-3.2,3.638-5.174,9.587-5.838,11.786-6.5A17.527,17.527,0,0,1,97.3,2.2c4.517,1.653,7.048,2.974,9.587,3.963s3.963,3.963,4.406,7.933.553,8.259.553,8.259" transform="translate(-22.272 -0.881)" fill="none" stroke="#000" stroke-linecap="round" stroke-linejoin="round" stroke-width="1"/>
        <path id="Path_381" data-name="Path 381" d="M92.54,32.114c.2-.166,3.355,1.266,5.326,1.708" transform="translate(-29.222 -10.472)" fill="none" stroke="#000" stroke-linecap="round" stroke-linejoin="round" stroke-width="1"/>
        <path id="Path_382" data-name="Path 382" d="M100.24,28.58s2.85,3.272,5.277,4.157" transform="translate(-31.596 -9.386)" fill="none" stroke="#000" stroke-linecap="round" stroke-linejoin="round" stroke-width="1"/>
        <path id="Path_383" data-name="Path 383" d="M88.28,38.9a5.267,5.267,0,0,1,3.742.118" transform="translate(-27.909 -12.475)" fill="none" stroke="#000" stroke-linecap="round" stroke-linejoin="round" stroke-width="1"/>
        <path id="Path_384" data-name="Path 384" d="M108.51,38.844a10.543,10.543,0,0,1,4.627-.3" transform="translate(-34.146 -12.416)" fill="none" stroke="#000" stroke-linecap="round" stroke-linejoin="round" stroke-width="1"/>
        <ellipse id="Ellipse_42" data-name="Ellipse 42" cx="1.21" cy="1.21" rx="1.21" ry="1.21" transform="translate(61.692 31.063)"/>
        <ellipse id="Ellipse_43" data-name="Ellipse 43" cx="1.21" cy="1.21" rx="1.21" ry="1.21" transform="translate(75.132 31.063)"/>
        <ellipse id="Ellipse_44" data-name="Ellipse 44" cx="0.989" cy="0.989" rx="0.989" ry="0.989" transform="translate(68.478 38.388)"/>
        <path id="Path_385" data-name="Path 385" d="M95.45,64.05a6.147,6.147,0,0,0,4.24,1.321,6.643,6.643,0,0,0,4.351-1.321" transform="translate(-30.119 -20.323)" fill="none" stroke="#000" stroke-linecap="round" stroke-linejoin="round" stroke-width="1"/>
        <path id="Path_386" data-name="Path 386" d="M88.762,76.31S87.994,82.7,87.33,86.332" transform="translate(-27.616 -24.103)" fill="none" stroke="#000" stroke-linecap="round" stroke-linejoin="round" stroke-width="1"/>
        <line id="Line_146" data-name="Line 146" x2="0.664" y2="9.033" transform="translate(78.984 51.661)" fill="none" stroke="#000" stroke-linecap="round" stroke-linejoin="round" stroke-width="1"/>
        <path id="Path_387" data-name="Path 387" d="M93.7,101.32s.989.878,5.506,1.1a21.286,21.286,0,0,0,7.933-1.1" transform="translate(-29.58 -31.814)" fill="none" stroke="#000" stroke-linecap="round" stroke-linejoin="round" stroke-width="1"/>
        <path id="Path_388" data-name="Path 388" d="M87.32,86.51s1.653,9.587,3.2,13.55,2.642,6.17,4.627,8.369,2.988,3.638,2.926,9.365-1.107,69.4-1.107,69.4" transform="translate(-27.613 -27.248)" fill="none" stroke="#000" stroke-linecap="round" stroke-linejoin="round" stroke-width="1"/>
        <path id="Path_389" data-name="Path 389" d="M112.811,90.81c-.111,0,1.321,9.69-7.491,19.055" transform="translate(-33.163 -28.574)" fill="none" stroke="#000" stroke-linecap="round" stroke-linejoin="round" stroke-width="1"/>
        <path id="Path_390" data-name="Path 390" d="M118.86,85.55a35.759,35.759,0,0,1,5.284,2.532" transform="translate(-37.337 -26.952)" fill="none" stroke="#000" stroke-linecap="round" stroke-linejoin="round" stroke-width="1"/>
        <path id="Path_391" data-name="Path 391" d="M80.236,85.55a50.6,50.6,0,0,0-4.406,3.085l-5.07,18.177,12.886-1.1L89.7,113.86" transform="translate(-22.507 -26.952)" fill="none" stroke="#000" stroke-linecap="round" stroke-linejoin="round" stroke-width="1"/>
        <path id="Path_392" data-name="Path 392" d="M107.87,119.418l6.495-5.838,4.192.768" transform="translate(-33.949 -35.594)" fill="none" stroke="#000" stroke-linecap="round" stroke-linejoin="round" stroke-width="1"/>
        <path id="Path_393" data-name="Path 393" d="M51.567,92.56c-.443.221-12.45,2.974-16.856,6.059s-7.38,4.849-9.912,8.48S5.854,135.409,3.427,140.036s-3.963,11.122,0,15.971S30.851,178.59,30.851,178.59" transform="translate(-0.996 -29.113)" fill="none" stroke="#000" stroke-linecap="round" stroke-linejoin="round" stroke-width="1"/>
        <path id="Path_394" data-name="Path 394" d="M26.33,162.31s20.709,19.5,20.709,19.83" transform="translate(-8.808 -50.619)" fill="none" stroke="#000" stroke-linecap="round" stroke-linejoin="round" stroke-width="1"/>
        <path id="Path_395" data-name="Path 395" d="M51.528,194.16c-.443.111-9.033,1.542-5.506,13.992" transform="translate(-14.618 -60.44)" fill="none" stroke="#000" stroke-linecap="round" stroke-linejoin="round" stroke-width="1"/>
        <line id="Line_147" data-name="Line 147" x1="12.443" y2="13.66" transform="translate(22.482 99.794)" fill="none" stroke="#000" stroke-linecap="round" stroke-linejoin="round" stroke-width="1"/>
        <path id="Path_396" data-name="Path 396" d="M28.88,147.18a51.879,51.879,0,0,1,.878,11.018" transform="translate(-9.594 -45.954)" fill="none" stroke="#000" stroke-linecap="round" stroke-linejoin="round" stroke-width="1"/>
        <line id="Line_148" data-name="Line 148" x2="1.874" y2="45.934" transform="translate(36.91 83.823)" fill="none" stroke="#000" stroke-linecap="round" stroke-linejoin="round" stroke-width="1"/>
        <path id="Path_397" data-name="Path 397" d="M65.15,133.1c.111.443,17.181-.878,17.181-.878l2.421,2.421L82.877,137.5l-10.783,3.638-7.062-3.2-.332-2.753" transform="translate(-20.638 -41.342)" fill="none" stroke="#000" stroke-linecap="round" stroke-linejoin="round" stroke-width="1"/>
        <path id="Path_398" data-name="Path 398" d="M64.644,144.277a43.813,43.813,0,0,0,0,7.38c.332,4.406-.768,5.838,3.085,6.28a85.863,85.863,0,0,0,13.218,0c1.21-.221.664-.989,1.321-3.853s0-11.675,0-11.675" transform="translate(-20.575 -44.484)" fill="none" stroke="#000" stroke-linecap="round" stroke-linejoin="round" stroke-width="1"/>
        <line id="Line_149" data-name="Line 149" y2="11.018" transform="translate(52.113 101.226)" fill="none" stroke="#000" stroke-linecap="round" stroke-linejoin="round" stroke-width="1"/>
        <line id="Line_150" data-name="Line 150" x1="8.48" y1="0.332" transform="translate(85.597 91.425)" fill="none" stroke="#000" stroke-linecap="round" stroke-linejoin="round" stroke-width="1"/>
        <path id="Path_399" data-name="Path 399" d="M114.851,131.721s-3.112-.332-3,1.653,0,4.627,0,4.627l10.811,2.532,6.6-1.432" transform="translate(-35.175 -41.181)" fill="none" stroke="#000" stroke-linecap="round" stroke-linejoin="round" stroke-width="1"/>
        <path id="Path_400" data-name="Path 400" d="M114.162,142.4c-.111.664-.332,11.343,0,13.107s1.653,1.985,4.959,2.421,10.465-.042,10.8.256,1.1-1.466,1.1-1.466l1.1-5.782" transform="translate(-35.835 -44.48)" fill="none" stroke="#000" stroke-linecap="round" stroke-linejoin="round" stroke-width="1"/>
        <line id="Line_151" data-name="Line 151" y2="14.103" transform="translate(87.485 99.351)" fill="none" stroke="#000" stroke-linecap="round" stroke-linejoin="round" stroke-width="1"/>
        <path id="Path_401" data-name="Path 401" d="M157.24,102.94a17.851,17.851,0,0,1,4.185,10.271" transform="translate(-49.171 -32.314)" fill="none" stroke="#000" stroke-linecap="round" stroke-linejoin="round" stroke-width="1"/>
        <path id="Path_402" data-name="Path 402" d="M151.161,114.22s-4.849,4.185-13.439,4.517a7.231,7.231,0,0,0,0,3.528c.443,2.317.768,4.406.768,4.406l.221,10.354a10,10,0,0,1,.664,3.417c0,1.819,2.421,16.856,3.085,19.055s7.38,7.159,7.38,7.159-.221.443,2.642.664,5.948-.111,8.148-2.642,5.4-4.738,3.528-12.007-4.738-21.476-6.17-25.114a26.661,26.661,0,0,0-3.963-6.612l-1.432-5.284" transform="translate(-43.093 -35.792)" fill="none" stroke="#000" stroke-linecap="round" stroke-linejoin="round" stroke-width="1"/>
        <path id="Path_403" data-name="Path 403" d="M140.2,129.3s.768.574,6.716-.533,7.933-4.849,7.933-4.849" transform="translate(-43.917 -38.782)" fill="none" stroke="#000" stroke-linecap="round" stroke-linejoin="round" stroke-width="1"/>
        <path id="Path_404" data-name="Path 404" d="M149.579,102.52a12.447,12.447,0,0,1-1.508-3.085c-.443-1.542-1.1-11.233-1.542-12.775s-.989-3.2-3.638-3.908-5.125-1.708-6.917-1.819-3.278.332-3.41,1.321a7.551,7.551,0,0,0,0,1.874" transform="translate(-41.545 -25.523)" fill="none" stroke="#000" stroke-linecap="round" stroke-linejoin="round" stroke-width="1"/>
        <path id="Path_405" data-name="Path 405" d="M138.35,88.319s-4.849-1.432-6.716-1.874-3.936.332-4.171,1.874a5.752,5.752,0,0,0,.712,3.2" transform="translate(-39.978 -27.19)" fill="none" stroke="#000" stroke-linecap="round" stroke-linejoin="round" stroke-width="1"/>
        <path id="Path_406" data-name="Path 406" d="M135.137,95.216a35.93,35.93,0,0,0-7.38-2.746c-2.421-.443-3.2-.228-3.8,1.37a2.391,2.391,0,0,0,.5,2.594" transform="translate(-38.854 -29.023)" fill="none" stroke="#000" stroke-linecap="round" stroke-linejoin="round" stroke-width="1"/>
        <path id="Path_407" data-name="Path 407" d="M134.113,100.877s-5.492-2.1-7.428-2.656a3.043,3.043,0,0,0-4.026,2.1c-.332,1.653,1.21,3.251,1.21,3.251" transform="translate(-38.494 -30.811)" fill="none" stroke="#000" stroke-linecap="round" stroke-linejoin="round" stroke-width="1"/>
        <path id="Path_408" data-name="Path 408" d="M127.48,106.929l.941-.989a9.433,9.433,0,0,0,1.446,1.985,8.887,8.887,0,0,1,3.548,3.306l1.432,3.306" transform="translate(-39.995 -33.239)" fill="none" stroke="#000" stroke-linecap="round" stroke-linejoin="round" stroke-width="1"/>
        <path id="Path_409" data-name="Path 409" d="M123.651,108.59c-.111.111-5.471,11.2-6.094,12.153s-2.1,4.3.332,5.616,3.818.733,4.918-1.432,6.723-12.886,6.723-12.886" transform="translate(-36.623 -34.056)" fill="none" stroke="#000" stroke-linecap="round" stroke-linejoin="round" stroke-width="1"/>
        <ellipse id="Ellipse_45" data-name="Ellipse 45" cx="1.238" cy="1.238" rx="1.238" ry="1.238" transform="translate(82.124 87.807)" fill="none" stroke="#000" stroke-linecap="round" stroke-linejoin="round" stroke-width="1"/>
        <path id="Path_410" data-name="Path 410" d="M148.285,77.8a8.1,8.1,0,0,1,.477-1.286c.111-.076,4.7-3.161,6.391-7.014s1.031-6.094-.768-8.259L148.624,67l-7.857-1.688-.145,5.437v2.573l-.4,1.286" transform="translate(-43.923 -19.456)" fill="none" stroke="#000" stroke-linecap="round" stroke-linejoin="round" stroke-width="1"/>
        <path id="Path_411" data-name="Path 411" d="M144.717,73.77,144.44,77.4l5.028.989v-4Z" transform="translate(-45.225 -23.32)" fill="none" stroke="#000" stroke-linecap="round" stroke-linejoin="round" stroke-width="1"/>
        <line id="Line_152" data-name="Line 152" x2="0.035" y2="3.666" transform="translate(101.899 50.762)" fill="none" stroke="#000" stroke-linecap="round" stroke-linejoin="round" stroke-width="1"/>
        <path id="Path_412" data-name="Path 412" d="M148.459,65.383l3.694-7.186s-5.547-2.642-8.923,5.838" transform="translate(-44.851 -18.398)" fill="none" stroke="#000" stroke-linecap="round" stroke-linejoin="round" stroke-width="1"/>
        <path id="Path_413" data-name="Path 413" d="M57.78,193.549c.166.055,8.646-.768,10.244-1.044s3.2-.768,5.229.526,6.771,4.1,7.657,4.766.443,4.3-1.985,3.2-7.47-3.694-7.47-3.694l-5.084,1.708" transform="translate(-18.505 -59.829)" fill="none" stroke="#000" stroke-linecap="round" stroke-linejoin="round" stroke-width="1"/>
        <path id="Path_414" data-name="Path 414" d="M67.9,203.32c.221,0,5.616,1.985,6.937,2.642s4.849,3.085,4.849,3.085,1.819,1.764,2.919,2.7.332,1.819-.609,2.476a3.327,3.327,0,0,1-2.532.111" transform="translate(-21.625 -63.264)" fill="none" stroke="#000" stroke-linecap="round" stroke-linejoin="round" stroke-width="1"/>
        <path id="Path_415" data-name="Path 415" d="M66.095,210.56l5.838,2.151s3.693,2.1,4.849,2.863,2.31,2.255.989,3.638-2.476.664-4.129-.387a87.012,87.012,0,0,0-9.8-4.683" transform="translate(-20.373 -65.496)" fill="none" stroke="#000" stroke-linecap="round" stroke-linejoin="round" stroke-width="1"/>
        <path id="Path_416" data-name="Path 416" d="M67.7,220.98a3.348,3.348,0,0,1-.332,2.366,2.132,2.132,0,0,1-3.251.221c-1.155-1.1-7.712-3.853-7.712-3.853L47.26,217.37" transform="translate(-15.261 -67.596)" fill="none" stroke="#000" stroke-linecap="round" stroke-linejoin="round" stroke-width="1"/>
      </g>
    </g>
  </g>
</svg>
