<svg xmlns="http://www.w3.org/2000/svg" width="152.487" height="224.92" viewBox="0 0 152.487 224.92">
  <g id="Group_419" data-name="Group 419" transform="translate(48 -3457.116)">
    <path id="Path_484" data-name="Path 484" d="M303.131,92.531a103.777,103.777,0,0,0-1.344-23.319,48.369,48.369,0,0,0-4.87-14.4c-3.307-6.877-6.635-10.711-12.828-15.879a47.826,47.826,0,0,0-8.9-5.1,54.207,54.207,0,0,0-17.745-3.623C237.065,28.56,217.2,43.4,212.761,62.638c-1.206,5.191-1.333,14.117-.44,18.3.415,1.937.783,3.868,1.465,6.084l-.147,25.449a46.314,46.314,0,0,0-1.035,14.207c.763,6.046,4.848,10.479,9.891,11.481l30.125,1.154,32.866,9.9a14.415,14.415,0,0,0,7.279-.026c4.878-1.3,9.422-4.315,11.281-9,1.673-4.227,1.585-11.191.822-15.615-1.294-7.485-1.75-24.894-1.738-32.029" transform="translate(-227.654 3427.028)" fill="#a98a75"/>
    <path id="Path_485" data-name="Path 485" d="M274.606,162.473c-17.655,3.47-39.813,1.635-53.765-7.8,5.885-1.93,11.221-3.565,14.129-5.514a3.569,3.569,0,0,0,1.21-.928,2.777,2.777,0,0,0,.3-.974l1.075-6.029a33.442,33.442,0,0,1-10.529-9.207,44,44,0,0,1-7.935-15.962,6.262,6.262,0,0,1-5.283-1.472c-3.01-2.6-4.193-6.139-4.913-8.454-1.014-3.268-.947-8.5.765-11.3a5.372,5.372,0,0,1,4.891-2.554,5.882,5.882,0,0,1,3.732,1.268.694.694,0,0,0,.881-.031l4.4-3.741a26.876,26.876,0,0,0,6.121-6.943c2.721-4.376,4.051-9.07,5.283-14.459a.78.78,0,0,1,.328-.5c.44-.278,1.327-.841,2.231-1.381a.5.5,0,0,1,.758.347A54.018,54.018,0,0,0,242.2,79.019a21.326,21.326,0,0,0,2.894,4.7,2.043,2.043,0,0,0,1.356.72c4.987.49,30.738,3.016,43.048,4.084a2.543,2.543,0,0,1,2.268,1.945,29.932,29.932,0,0,1,.546,4.263.722.722,0,0,0,1.1.557,5.944,5.944,0,0,1,3.492-.866,5.371,5.371,0,0,1,4.755,2.8c1.564,2.884,1.358,8.117.176,11.328-.838,2.274-2.2,5.749-5.347,8.189a6.375,6.375,0,0,1-4.952,1.29l-.469-.088a37.508,37.508,0,0,1-1.811,4.546c-1.265,3.177-7.789,13.825-15.987,18.707a19.644,19.644,0,0,0,2.289,6.9c2.238,3.631,9.047,6.588,15.051,9.059a60.189,60.189,0,0,1-16.008,5.314Z" transform="translate(-227.235 3422.69)" fill="#fce0cd"/>
    <path id="Path_486" data-name="Path 486" d="M251.67,133.6a15.3,15.3,0,0,0,7.221,1.874c2.4.063,5.222-.264,7.221-1.738a2.164,2.164,0,0,0,.758-2.892,2.136,2.136,0,0,0-2.891-.758,5.584,5.584,0,0,1-.773.477c-.077.04-.157.075-.235.114-.313.154.021-.043.139-.056a4.319,4.319,0,0,0-.672.233c-.264.078-.528.145-.792.2-.134.028-.269.054-.4.078-.214.037-.339.048-.049.014a16.393,16.393,0,0,1-2.3.1c-.372-.01-.744-.03-1.115-.062-.2-.018-.406-.039-.608-.065.3.04.088.009-.088-.022a12.191,12.191,0,0,1-1.633-.4c-.228-.073-.449-.164-.675-.242-.251-.088.451.212.132.055-.094-.047-.191-.088-.285-.133-.277-.134-.545-.282-.812-.432a2.114,2.114,0,0,0-2.134,3.65Z" transform="translate(-232.299 3415.137)" fill="#efc0a0"/>
    <path id="Path_487" data-name="Path 487" d="M259.133,114.406c.258,1.1.5,2.219.657,3.346l-.076-.562c.038.282.078.564.117.846l-.076-.562a2.285,2.285,0,0,1,.008.57l.076-.562a1.263,1.263,0,0,1-.062.226l.213-.5a.88.88,0,0,1-.088.144l.331-.428a.612.612,0,0,1-.077.08l.428-.33a1.56,1.56,0,0,1-.341.176l.505-.213a2.22,2.22,0,0,1-.429.122l.562-.075a1.882,1.882,0,0,1-.472,0l.562.076c-.191-.027-.377-.08-.567-.111a2.3,2.3,0,0,0-1.628.213,2.113,2.113,0,0,0-.758,2.892,2.046,2.046,0,0,0,1.263.969c.416.067.809.167,1.233.2a3.926,3.926,0,0,0,1.937-.459,2.707,2.707,0,0,0,1.445-1.8,4.668,4.668,0,0,0-.026-1.937l.076.562a39.627,39.627,0,0,0-.746-4,2.114,2.114,0,1,0-4.075,1.124Z" transform="translate(-233.146 3417.279)" fill="#efc0a0"/>
    <path id="Path_488" data-name="Path 488" d="M237.8,101.881c-.665,1.974-.385,6.565,3.377,7.053,4.986.1,5.4-5.431,3.786-8.078C243.647,98.689,239.63,97.7,237.8,101.881Z" transform="translate(-230.733 3418.8)" fill="#645d5c"/>
    <path id="Path_489" data-name="Path 489" d="M282.075,103.037c.561,2.007.042,6.576-3.74,6.868-4.984-.16-5.107-5.7-3.359-8.264C276.4,99.544,280.469,98.76,282.075,103.037Z" transform="translate(-235.084 3418.686)" fill="#645d5c"/>
    <path id="Path_490" data-name="Path 490" d="M327.79,271.162c-1.071-10.151-4.068-46.041-5.724-58.922a62.484,62.484,0,0,0-7.143-22.665c-5.8-10.2-16.689-16.012-27.55-20.834-17.415,9.524-51.685,10.721-70.615-2.217-4.157,1.9-8.344,3.712-12.471,5.7a41.466,41.466,0,0,0-9.964,7.027c-5.674,5.167-10.314,15.659-11.642,23.224A633.531,633.531,0,0,0,175.3,271.3Z" transform="translate(-223.303 3410.735)" fill="#febe69"/>
    <path id="Path_492" data-name="Path 492" d="M309.33,214.924c.755,15.545.2,31.116-.424,46.656q-.264,6.514-.516,13.033c-.1,2.72,4.126,2.716,4.227,0,.579-15.558,1.409-31.118,1.291-46.692-.032-4.333-.141-8.666-.352-12.995-.131-2.708-4.359-2.724-4.227,0Z" transform="translate(-239.196 3405.198)" fill="#e29c49"/>
    <path id="Path_491" data-name="Path 491" d="M205.435,218.164c-.026,2.569-.219,5.136-.276,7.705-.088,4.16.037,8.31.221,12.465.352,7.847.695,15.694,1.112,23.537.207,3.88.424,7.759.717,11.633a2.166,2.166,0,0,0,2.113,2.113,2.131,2.131,0,0,0,2.113-2.113c-.557-7.352-.89-14.721-1.233-22.086-.374-7.971-.933-15.974-.84-23.952.036-3.1.27-6.2.3-9.3.028-2.721-4.2-2.723-4.227,0Z" transform="translate(-226.865 3404.811)" fill="#e29c49"/>
  </g>
</svg>
