<svg xmlns="http://www.w3.org/2000/svg" width="152.487" height="251.256" viewBox="0 0 152.487 251.256">
  <g id="_13166_paint_1_" data-name="13166_paint (1)" transform="translate(-241.935 -6.907)">
    <path id="Path_429" data-name="Path 429" d="M367.5,74.416a5.985,5.985,0,0,1,4.414-1.331,5.557,5.557,0,0,1,4.822,3.059c1.522,3.035,1.136,8.441-.2,11.723-.943,2.324-2.472,5.874-5.8,8.29a6.6,6.6,0,0,1-5.165,1.17l-.483-.111a38.863,38.863,0,0,1-2.024,4.643c-1.324,3.036-7.631,12.7-15.519,17.836.009,1.223.009,2.119.151,4.087a12.425,12.425,0,0,0,.6,3.567,8.655,8.655,0,0,0,2.618,3.8c2.653,2.139,5.377,3.168,8.74,4.428l.736.289A48.435,48.435,0,0,1,326.232,146.2c-12.316-.839-25.677-4.988-32.454-10.116l1.962-.506c3.361-1.264,6.091-2.287,8.746-4.426a8.7,8.7,0,0,0,2.613-3.8,12.631,12.631,0,0,0,.608-3.564c.177-2.375.136-3.2.154-4.9a36.044,36.044,0,0,1-9.477-9.217,45.539,45.539,0,0,1-7.68-16.777,6.469,6.469,0,0,1-5.413-1.7c-3.028-2.785-4.135-6.489-4.8-8.906-.942-3.414-.7-8.829,1.165-11.667a5.555,5.555,0,0,1,5.147-2.478,5.986,5.986,0,0,1,4.229,1.833s-10.27-43.36,37.81-43.36S367.5,74.416,367.5,74.416Z" transform="translate(-4.283 -2.22)" fill="#fce0cd"/>
    <path id="Path_430" data-name="Path 430" d="M362.253,53.486a37.779,37.779,0,0,0-6.19-8.785l-6.279-5.478c-3.9,4.627-9.754,7.591-15.1,9.406-6.964,2.368-11.56,1.469-18.848-.743-1.727.762-3.556,1.4-5.139,1.915-3.559,1.162-7.613,1.552-10.921,3.308a13.7,13.7,0,0,0-5.863,6.9c-.732,1.72-1.981,5.99-2.485,7.738a5.986,5.986,0,0,0-4.229-1.833,7.246,7.246,0,0,0-1.817.173,47.492,47.492,0,0,1-1.857-14.95c.914-16.136,8.406-26.808,16.437-31.115,7.542-9.3,20.32-14.292,33.415-12.874a46,46,0,0,1,22.751,8.943l7.728,6.817c7.542,6.648,13.09,17.924,12.845,33.343a48.8,48.8,0,0,1-2.7,14.96,7.459,7.459,0,0,0-1.686-.345,5.985,5.985,0,0,0-4.414,1.331l-1.58,1.351-.146-4.291a37.381,37.381,0,0,0-3.922-15.766Z" transform="translate(-4.682 0)" fill="#aeaeae"/>
    <path id="Path_431" data-name="Path 431" d="M337.442,110.608a12.145,12.145,0,0,1-2.111.68c-.138.029-.278.056-.416.08-.071.012-.5.067-.171.029s-.134.012-.2.018q-.266.024-.526.038a16.722,16.722,0,0,1-2.271-.042c-.194-.016-.389-.035-.582-.057-.122-.013-.508-.067-.2-.021-.383-.056-.765-.123-1.144-.206a13.986,13.986,0,0,1-1.626-.476c-.36-.126.323.165.1.046-.083-.046-.177-.081-.261-.123-.168-.089-.333-.177-.493-.276-.065-.041-.127-.089-.192-.126-.319-.2.081.04.162.135a4.193,4.193,0,0,0-.327-.285,2.131,2.131,0,0,0-3.017,3.012c1.907,1.8,4.577,2.327,7.1,2.592a14.961,14.961,0,0,0,7.3-.911,2.186,2.186,0,0,0,1.487-2.619,2.15,2.15,0,0,0-2.619-1.487Z" transform="translate(-9.195 -11.546)" fill="#efc0a0"/>
    <path id="Path_432" data-name="Path 432" d="M330.949,92.975c-.365,1.148-.7,2.307-.962,3.485a4.5,4.5,0,0,0-.162,1.437,3.011,3.011,0,0,0,.395,1.361,2.888,2.888,0,0,0,1.019.988,4.23,4.23,0,0,0,1.919.576,6.077,6.077,0,0,0,1.252-.129l-.566.075.137-.014a2.276,2.276,0,0,0,1.509-.621,2.13,2.13,0,0,0,0-3.012,2.091,2.091,0,0,0-1.508-.621c-.317.027-.631.083-.946.125l.566-.076a2.239,2.239,0,0,1-.566,0l.566.076a2.142,2.142,0,0,1-.411-.115l.509.215a2.327,2.327,0,0,1-.444-.244l.43.333a.611.611,0,0,1-.089-.089l.334.43a.8.8,0,0,1-.089-.155l.215.509a1.254,1.254,0,0,1-.049-.177l.075.566a1.845,1.845,0,0,1,.005-.469l-.076.566a16.94,16.94,0,0,1,.486-2.006c.177-.63.355-1.257.557-1.88a2.148,2.148,0,0,0-1.488-2.619,2.176,2.176,0,0,0-2.619,1.487Z" transform="translate(-9.901 -9.521)" fill="#efc0a0"/>
    <path id="Path_433" data-name="Path 433" d="M310.979,80.61c-.751,2.013-.617,6.754,3.244,7.384,5.136.271,5.744-5.413,4.171-8.2C317.11,77.517,313,76.36,310.979,80.61Z" transform="translate(-7.738 -7.981)" fill="#645d5c"/>
    <path id="Path_434" data-name="Path 434" d="M356.286,83.272c.51,2.087-.177,6.779-4.082,6.952-5.132-.332-5.071-6.05-3.186-8.63C350.556,79.482,354.773,78.814,356.286,83.272Z" transform="translate(-11.932 -8.229)" fill="#645d5c"/>
    <path id="Path_435" data-name="Path 435" d="M316.4,106.191a18.793,18.793,0,0,0-2.046,4.156,2.13,2.13,0,0,0,3.128,2.406l.431-.333a2.13,2.13,0,0,0,.547-.94q.167-.467.355-.924l-.215.509a16.545,16.545,0,0,1,1.474-2.725,2.13,2.13,0,0,0-2.4-3.129,2.354,2.354,0,0,0-1.273.976Z" transform="translate(-8.15 -11.066)" fill="#efc0a0"/>
    <path id="Path_436" data-name="Path 436" d="M345.559,111.237a21.254,21.254,0,0,1,.839,3.39l-.076-.566c.009.068.016.137.021.206a1.611,1.611,0,0,0,.184.821,1.592,1.592,0,0,0,.444.685,2.13,2.13,0,0,0,3.012,0,2.088,2.088,0,0,0,.621-1.508,19.389,19.389,0,0,0-.936-4.162,2.236,2.236,0,0,0-.976-1.272,2.13,2.13,0,0,0-3.128,2.4Z" transform="translate(-11.666 -11.45)" fill="#efc0a0"/>
    <path id="Path_437" data-name="Path 437" d="M299.967,155.155a38.7,38.7,0,0,1-11.53-6.277c-9.366,2.808-23.111,7.18-27.9,14.525-5.156,7.907-6.458,13.458-9.07,22.529-3.549,12.324-8.607,40.1-9.273,49.761-.419,6.045-.621,12.455,1.75,18.031a23.139,23.139,0,0,0,7.986,9.975c9.495,6.1,22.095,1.926,28.049-1.016h50.369c7.071,12.834,23.987,14.405,36.2,6.677,5.021-3.178,8.278-7.853,11.011-12.913,6.8-11.648,10.135-24.989,12.669-38.067,1.849-9.885,4.068-20.3,4.19-30.385-.012-6.007-.5-12.85-3.47-18.127a31.6,31.6,0,0,0-13.094-13.178c-3.355-1.781-14.547-6.765-19.663-8.816-11.064,9.162-22.748,12.9-36.246,11.984a80.768,80.768,0,0,1-21.981-4.7Z" transform="translate(0 -15.881)" fill="#a095c1"/>
    <path id="Path_455" data-name="Path 455" d="M330.748,204.892c.414,2.48.9,4.99,1.387,7.548l.388,2.026c6.84-1.952,14.641-3.859,20.466-5.526-1.056-4.063-2.006-6.11-1.21-10.418a16.469,16.469,0,0,1,1.538-4.409c2.041-4.039,2.9-8.5,3.737-12.919,2.092-10.975,4.186-21.953,5.84-33a76.466,76.466,0,0,0,.722-10.33,5.359,5.359,0,0,0-1.006-3.3,3.5,3.5,0,0,0-3.241-1.129,3.558,3.558,0,0,0-2.212,1.236,9.939,9.939,0,0,0-.743,1.379c-.071-.039-.143-.078-.217-.115a5.361,5.361,0,0,0-3.617-.6,7.435,7.435,0,0,0-3.562,1.4,146.872,146.872,0,0,0-24.433,24.625,46.886,46.886,0,0,0-5.2,8.286c-.768,1.508-2.849,6.088-3.508,7.646-2.646,6.258-3.1,8.3-10.177,13.408a1,1,0,0,0-.288,1.3A81.817,81.817,0,0,0,316.3,206.765a1,1,0,0,0,1.534-.11,22.837,22.837,0,0,1,10.676-8.243,1.057,1.057,0,0,1,1.441.868C330.159,201.138,330.433,203.005,330.748,204.892Z" transform="translate(-7.137 -14.248)" fill="#fce0cd"/>
    <path id="Path_456" data-name="Path 456" d="M333.714,157.207a144.539,144.539,0,0,1,19.61-18.812,2.143,2.143,0,0,0,0-3.012,2.183,2.183,0,0,0-3.012,0A144.543,144.543,0,0,0,330.7,154.2a2.182,2.182,0,0,0,0,3.012,2.148,2.148,0,0,0,3.012,0Z" transform="translate(-9.933 -14.406)" fill="#efc0a0"/>
    <path id="Path_457" data-name="Path 457" d="M334.528,193.981a34.212,34.212,0,0,1,3.741-16.229c1.324-2.491,2.839-4.874,4.181-7.354s2.646-5,3.961-7.507c2.176-4.145,4.119-8.387,6.123-12.614a15.2,15.2,0,0,1,1.481-2.939c.258-.324.98-.823,1.215-.694.705.39.6,2.007.538,2.681a23.958,23.958,0,0,1-.825,3.607c-1.135,4.36-2.317,8.709-3.452,13.07-.691,2.655,3.416,3.787,4.107,1.132,1.135-4.36,2.317-8.709,3.452-13.07.725-2.784,1.558-5.7.425-8.494a4.8,4.8,0,0,0-7.236-2.27c-2.282,1.474-3.194,4.409-4.289,6.762-1.009,2.17-2.009,4.348-3.071,6.491-2.82,5.7-5.866,11.275-9.03,16.784a40,40,0,0,0-4.2,9.542,43.36,43.36,0,0,0-1.381,11.1c-.005,2.741,4.254,2.745,4.259,0Z" transform="translate(-9.951 -15.27)" fill="#efc0a0"/>
    <path id="Path_458" data-name="Path 458" d="M372.29,235.431c-3.062-5.463-5.806-11.1-8.785-16.61-.821-1.521-1.747-2.846-3.616-3.017a10.384,10.384,0,0,0-3.879.9c-2.761.864-5.539,1.678-8.315,2.494-5.723,1.686-11.472,3.322-17.088,5.342-1.559.562-2.967,1.355-3.471,3.052a10.408,10.408,0,0,0-.177,3.74c.228,2.711.777,5.38,1.2,8.064a120.4,120.4,0,0,0,4.839,20.519c.887,2.578,5,1.47,4.107-1.132a110.745,110.745,0,0,1-4.391-17.631c-.374-2.236-.73-4.478-1.09-6.717-.173-1.08-.331-2.162-.415-3.252-.035-.464-.062-.93-.06-1.395,0-.245.02-.486.027-.73.014-.571.028-.182.059-.2a13,13,0,0,1,3.117-1.112c1.318-.444,2.642-.868,3.967-1.284,2.678-.839,5.367-1.638,8.059-2.431,2.611-.77,5.225-1.531,7.831-2.316q1.691-.51,3.378-1.038.71-.224,1.42-.453a4.861,4.861,0,0,1,.59-.191.4.4,0,0,1-.347-.133c.111.2.223.406.333.61,3.075,5.659,5.885,11.459,9.034,17.078,1.34,2.391,5.021.246,3.677-2.15Z" transform="translate(-9.568 -23.533)" fill="#7f74aa"/>
  </g>
</svg>
