<svg xmlns="http://www.w3.org/2000/svg" width="340" height="362" viewBox="0 0 340 362">
  <g id="Group_390" data-name="Group 390" transform="translate(-18 -6702)">
    <g id="Path_107" data-name="Path 107" transform="translate(31.561 6862.002)">
      <path id="Path_253" data-name="Path 253" d="M91.707-79.36l-.249-.354a8.852,8.852,0,0,0-2.036-2.131l-.328-.261c-.278.112-.574.224-.892.34l-.4.145L87.594-82a8.654,8.654,0,0,0-1.651-2.159,37.776,37.776,0,0,1-1.753,4.14l-.279.583-.494-.417-3.4-2.87-.385-.325.328-.383a9.273,9.273,0,0,0,1.049-1.7,27.989,27.989,0,0,0,2.02-5.916l.172-.7.6.4,2.863,1.948a9.137,9.137,0,0,0,2.185-1.437,16.414,16.414,0,0,0-2.1.143l-.579.093v-1.777l-.79,1.144-.313.453-.421-.355a30.823,30.823,0,0,0-4.662-3.333l-.47-.286.33-.441,2.185-2.921.264-.353.383.218a36.48,36.48,0,0,1,4.778,3.134l.385.289h0l.1,0,.017-.172c.067-.667.1-1.5.1-2.541V-100.1l-2.028,2.577-.329.419-.4-.355a30.856,30.856,0,0,0-4.558-3.482l-.479-.306.365-.437,2.362-2.819.273-.325.365.216a34.171,34.171,0,0,1,4.425,3.026c-.006-.74-.032-1.209-.1-1.914l-.059-.631.628.089a17.693,17.693,0,0,0,2.647.122h8.433a19.334,19.334,0,0,0,2.753-.122l.643-.086-.081.643a18.322,18.322,0,0,0-.1,2.605v3.353a24.205,24.205,0,0,0,.1,2.543l.015.153c.472-.023.9-.062,1.356-.118l.562-.07v4.368l-.5-.048-.011.093c-.024.186-.025.211-.175,2.659a20.582,20.582,0,0,1-.906,6.144c-.715,1.6-2.28,1.923-4.572,1.923-.765,0-1.348-.03-2.041-.077l-.406-.028-.055-.4a9.046,9.046,0,0,0-.329-1.619,15.91,15.91,0,0,1-3.75,2.454Zm6.354-4.949c.231.014.436.022.563.022.256,0,.317,0,.4-.373v-.01a12,12,0,0,0,.277-1.564A11.366,11.366,0,0,1,98.061-84.309ZM86.734-86.748c-.162.587-.315,1.113-.468,1.605q.615-.2,1.167-.41l-.1-.184A8.461,8.461,0,0,0,86.734-86.748ZM62.886-79.6H58.1l.077-.567a17.576,17.576,0,0,0,.148-2.71c-.1.634-.23,1.231-.387,1.857l-.162.648-.576-.337-2.515-1.473-.332-.195.1-.371a25.157,25.157,0,0,0,.743-6.725l-.257.059L54.894-90,54.615-93.5l-.047-.591.591.054a17.592,17.592,0,0,0,1.815.074c.206-.271.342-.452.5-.668a27.055,27.055,0,0,0-2.867-3.41l-.264-.269.187-.328,1.778-3.124.354-.622.462.546.141.167a16,16,0,0,0,1.073-2.8l.128-.543.526.186,3.3,1.168.605.215-.356.534a3.137,3.137,0,0,0-.322.635l.32.171,2.946,1.575.486.259-.306.459c-.149.223-.326.5-.74,1.192a13.447,13.447,0,0,0,4.362-5.454l.131-.3h4.434l.133.294a12.1,12.1,0,0,0,3.2,4.149,18.349,18.349,0,0,0,2.6,1.9l.438.267-.278.431a12.219,12.219,0,0,0-1.62,3.564l-.209.657-.559-.4c-.216-.155-.383-.276-.529-.384v1.115l-.55-.055c-.5-.049-1.219-.074-2.211-.074H69.312c-1.042,0-1.623.029-2.222.075l-.538.041v-1.131l-.365.244-.2.131c.142.379.265.731.371,1.06.53.032,1.135.052,2.139.052H75.56c1.1,0,1.8-.022,2.34-.074l.61-.058-.065.609a21.522,21.522,0,0,0-.1,2.537v6.045a29.484,29.484,0,0,0,.123,3.087l.07.562h-5V-81H70.218v1.27H65.389l.047-.543c.063-.734.093-1.422.1-2.305l-2.429.329-.453.061a12.229,12.229,0,0,0,.143,2.008Zm7.333-5.826h3.318v-2.607H70.218ZM65.491-88.49l.045.368v-1.984l-.259.1.059.371C65.409-89.166,65.462-88.772,65.491-88.49ZM57.61-89.741l.712.1V-89.8C58.037-89.773,57.811-89.756,57.61-89.741Zm5.039-.4v.417l.639-.1,0-.016c-.035-.177-.054-.27-.074-.364C63-90.175,62.837-90.157,62.649-90.138Zm1.23-6.81-.2.3.331-.119Zm6.486-.369h2.778a16.528,16.528,0,0,1-1.425-1.805A14.481,14.481,0,0,1,70.365-97.317Zm57.994,17.612h-4.886v-1.067h-1.134v1.067h-4.73l.016-.178h-4.363v-.889h-.956v1.067H107.4l.052-.547c.085-.908.124-1.644.124-2.316v-2.315l-.19.1-.522.261-.178-.556a16.327,16.327,0,0,0-1.512-3.442l-.29-.527.572-.188a17.033,17.033,0,0,0,4.127-1.9h-.389a24.016,24.016,0,0,0-2.967.124l-.556.062v-4.806l.561.068c.184.022.367.041.559.057l.052-.433a18.088,18.088,0,0,0,.1-2.176v-3.048a19.223,19.223,0,0,0-.1-2.229l-.07-.611.612.056c.819.074,1.5.1,2.7.1H114.7a23.519,23.519,0,0,0,2.59-.1l.369-.038,0-.026.126.014.112-.012,0,.023.366.04a23.2,23.2,0,0,0,2.589.1h4.826c1.179,0,1.854-.025,2.672-.1l.616-.056-.074.613a18.1,18.1,0,0,0-.1,2.227v3.048a17.266,17.266,0,0,0,.1,2.173l.051.415c.2-.018.408-.038.615-.062l.557-.064v4.848l-.551-.056a26.366,26.366,0,0,0-2.947-.15h-.693a15.446,15.446,0,0,0,4.382,1.6l.633.138-.295.577a16.575,16.575,0,0,0-1.387,3.542l-.156.546-.521-.224-.4-.167v2.375c0,.754.047,1.685.125,2.492Zm-6.071-5.318h1.236v-1.083h-1.236Zm-10.033,0h1.032v-1.083h-1.032Zm5.65-5.31.322.029c.574.052,1.073.074,1.716.074a12.1,12.1,0,0,1-.853-.9H116.6c-.3.332-.57.615-.87.9.574,0,1.039-.026,1.568-.074l.355-.032v-.02l.111.01.145-.013Zm-.138-7.354h.016v-3.982c0-.3,0-.538-.008-.749-.005.207-.008.449-.008.749v3.981Zm4.648-1.687h1.667v-.549h-1.667Zm-10.769,0h1.565v-.6h-1.565ZM7.592-79.99l-.273-.43a14.208,14.208,0,0,0-3.2-3.748l-.561-.479.653-.343c3.319-1.747,5.17-3.464,6.389-5.926a12.012,12.012,0,0,0,1.124-3.622H9.139a25.708,25.708,0,0,0-3.376.15l-.55.058,0-.553-.025-4.343,0-.578.573.08a19.275,19.275,0,0,0,3.461.2h3.038c.057-.934.094-2.1.094-2.751a6.644,6.644,0,0,0-.071-1.2l-.084-.586.592.015,4.775.127.6.016-.128.59a15.358,15.358,0,0,0-.247,2.65l-.022.343c-.015.4-.021.573-.035.77H22.2a14.79,14.79,0,0,0-1.568-3.043l-.346-.548.618-.2,2.489-.787.36-.114.029.045.389-.131,2.337-.788.351-.118.215.3a14.445,14.445,0,0,1,1.869,3.479l.165.473-.473.164-2.413.838-.451.157-.037-.092-.286.092-.6.191,1.891,1.648.3.265-.194.353c-.226.411-.269.524-.294,1.65v.006c-.184,5.622-.58,9.808-1.088,11.482-.8,2.574-2.226,3.53-5.254,3.53a30.424,30.424,0,0,1-3.373-.205l-.432-.039-.022-.434a12.032,12.032,0,0,0-.834-4.324l-.327-.9.922.24a14.116,14.116,0,0,0,3.176.492c.793,0,1.032,0,1.36-2.19a58.876,58.876,0,0,0,.473-6.513h-3.9a18.735,18.735,0,0,1-.334,2.141v.006c-1.148,5.272-3.644,8.678-8.9,12.147Zm294.5-.036-.358-.453a40.291,40.291,0,0,0-6.833-6.837,28.753,28.753,0,0,1-9.194,6.723l-.444.215-.221-.441a12.861,12.861,0,0,0-2.758-3.889l-.52-.539.7-.274a23.867,23.867,0,0,0,8.066-5.027,20.088,20.088,0,0,0,4.69-6.617l-5.833.112a29.6,29.6,0,0,0-3.976.249l-.556.082-.016-.562-.127-4.522-.017-.584.58.074a18.255,18.255,0,0,0,2.6.174c.167,0,.677,0,1.4-.025h.009l8.1-.127h.008a3.771,3.771,0,0,0,1.852-.246l.339-.13-.258-.419.6-.2,2.337-.762.355-.115.005.006.309-.113,2.286-.838.36-.133.221.315a16.428,16.428,0,0,1,1.933,3.476l.188.459-.458.192-2.311.965-.467.195-.02-.049-.244.09-2.337.864-.048.018c-.155.31-.18.371-.5,1.151a30.075,30.075,0,0,1-3.244,6,62.793,62.793,0,0,1,7.724,6.657l.36.344-.342.361-3.556,3.759Zm-252.5-.1-.358-.453A40.3,40.3,0,0,0,42.4-87.417a28.114,28.114,0,0,1-9.2,6.722l-.444.215-.221-.441a12.864,12.864,0,0,0-2.757-3.89l-.524-.543.7-.271a23.423,23.423,0,0,0,8.064-5.026,19.789,19.789,0,0,0,4.692-6.595l-5.837.09a29.553,29.553,0,0,0-3.974.249l-.556.081-.016-.562-.127-4.521-.016-.584.58.074a18.259,18.259,0,0,0,2.6.174c.2,0,.677,0,1.405-.026h.01l8.687-.127h.044a4.1,4.1,0,0,0,1.822-.247l.3-.113.227.232,2.235,2.286.346.354-.35.35a3.488,3.488,0,0,0-.808,1.342,31.472,31.472,0,0,1-3.492,6.55,60.45,60.45,0,0,1,7.722,6.633l.36.344-.342.361L49.99-80.547Zm203.6-.035h-5.061V-81.28h-8.491c-1.47,0-2.34.028-3.1.1l-.547.051V-86.02l.576.089a17.77,17.77,0,0,0,3.074.172h8.491v-2h-7.424c-1.546,0-2.371.026-3.154.1l-.547.051v-4.78l.546.05c1.021.093,1.9.15,3.155.15h7.424V-93.98H239.9a22.247,22.247,0,0,0-3.084.123l-.566.076v-4.9l.566.075a19.3,19.3,0,0,0,3.084.173h10.388c1.189,0,1.549-.023,2.25-.075l.559-.041-.023.56c-.024.609-.05,1.544-.05,2.342v11.837c0,1.1.045,2.231.125,3.1ZM210.06-80.28l-.134-.509-1.27-4.826-.163-.621.641-.007a22.3,22.3,0,0,0,7.642-1.59,15.081,15.081,0,0,0,6.893-5.366,17.935,17.935,0,0,0,2.506-4.813l-.215.085-.489.192-.168-.5a15.038,15.038,0,0,0-1.723-3.57l-.351-.538.607-.208,2.438-.839.356-.122h0l.379-.132,2.413-.838.353-.123.218.3a14.4,14.4,0,0,1,1.915,3.594l.174.461-.457.181-2.439.965-.476.188-.033-.09-.2.08-.982.387a15.386,15.386,0,0,0,3.377,2.815l.36.227-.166.391a22.282,22.282,0,0,1-4.049,6.766,20.279,20.279,0,0,1-4.437,3.808,23.124,23.124,0,0,1-5.591,2.534,30.841,30.841,0,0,1-4.687,1.133,12.078,12.078,0,0,0-1.738.416Zm-5.913-.8h-5.82v-1.5h-9.736a35,35,0,0,0-4.289.149l-.555.062v-5.76l.572.083a25.812,25.812,0,0,0,4.348.2h9.66v-8.932h-9.355a43.224,43.224,0,0,0-4.322.125l-.547.052v-5.751l.572.083a25.814,25.814,0,0,0,4.373.224h11.658c1.42,0,2.1-.028,2.786-.075l.565-.039-.032.566v.028c-.05.86-.074,1.292-.074,2.534v13.259a37.708,37.708,0,0,0,.15,4.148Zm-23.794-1.416-.554-.06a39.854,39.854,0,0,0-4.061-.15H161.413a38.145,38.145,0,0,0-4.045.125l-.545.049v-5.559l.562.07a29.354,29.354,0,0,0,4.1.2h4.123v-8.627h-2.294a37.554,37.554,0,0,0-4.07.125l-.545.05v-5.512l.565.074a26.7,26.7,0,0,0,4.126.2h10.338a28.33,28.33,0,0,0,4.126-.2l.565-.073v5.509l-.544-.047a38.219,38.219,0,0,0-4.071-.125h-2.574v8.627h4.428a23.961,23.961,0,0,0,4.114-.2l.577-.09v5.611Zm-37.127-5.289a4.369,4.369,0,0,1-3.1-1.276,4.322,4.322,0,0,1-1.281-3.085,4.359,4.359,0,0,1,1.28-3.106,4.36,4.36,0,0,1,3.106-1.28,4.366,4.366,0,0,1,4.361,4.361,4.37,4.37,0,0,1-1.276,3.105A4.323,4.323,0,0,1,143.226-87.782Zm72.606-.719-.463-.345a29.613,29.613,0,0,0-7.149-3.9l-.568-.223.33-.513,2.337-3.632.223-.347.383.153a36.572,36.572,0,0,1,7.175,3.653l.385.252-.219.4-2.159,3.988Zm66.147-.674-.552-.058a48.954,48.954,0,0,0-5.181-.15h-12.09c-2.82,0-3.645.024-5.192.151l-.54.044v-6.025l.573.085a35.339,35.339,0,0,0,5.134.223h12.141a40.979,40.979,0,0,0,5.155-.226l.552-.058v6.012ZM217.842-95.12l-.441-.286a31.024,31.024,0,0,0-7.181-3.579l-.593-.206.333-.532,2.261-3.607.215-.342.38.138a41.644,41.644,0,0,1,7.374,3.393l.425.253-.248.428-2.261,3.886Z" fill="#bb1c21"/>
      <path id="Path_254" data-name="Path 254" d="M26.665-104.64l-2.337.787a19.573,19.573,0,0,1,1.727,3.4l2.413-.838a13.957,13.957,0,0,0-1.8-3.353m278.741,0-2.286.838a17.16,17.16,0,0,1,1.854,3.505l2.311-.965a15.979,15.979,0,0,0-1.879-3.378m-246.584.279a16.889,16.889,0,0,1-1.448,3.556c-.356-.381-.356-.381-.635-.711l-1.778,3.124a27.885,27.885,0,0,1,3.124,3.759c-.3.432-.457.635-.864,1.168a19.729,19.729,0,0,1-2.108-.076l.279,3.505a8.294,8.294,0,0,1,1.168-.152c.711-.025,1.041-.051,2.261-.152V-82.9a18.11,18.11,0,0,1-.152,2.794H62.3a15.746,15.746,0,0,1-.152-2.794v-7.7c.584-.051.762-.076,1.448-.152.1.432.1.432.178.813l2.261-.914v7.925c0,1.016-.025,1.8-.1,2.692h3.785V-81.5h4.318v1.27h3.937a29.628,29.628,0,0,1-.127-3.15v-6.045a21.706,21.706,0,0,1,.1-2.591c-.533.051-1.219.076-2.388.076H68.5c-1.168,0-1.829-.025-2.515-.076a37.62,37.62,0,0,0-1.7-4.318l-1.9.686C63.394-97.1,64-98.011,64.46-98.823c.457-.762.635-1.041.787-1.27L62.3-101.668a28.17,28.17,0,0,1-2.286,4.216c-.254-.33-.279-.381-.559-.762a34.906,34.906,0,0,0,2.261-4.165,3.931,3.931,0,0,1,.406-.813l-3.3-1.169M60.828-93.54a21.778,21.778,0,0,0,1.346-1.829,13.469,13.469,0,0,1,.66,1.753c-.61.025-.737.025-2.007.076m13.208,8.611H69.718v-3.607h4.318v3.607m9.322-19.254L81-101.363a31.381,31.381,0,0,1,4.623,3.53l2.438-3.1a34.323,34.323,0,0,0-4.7-3.251M229.586-104l-2.413.838A13.413,13.413,0,0,1,229-99.56l2.439-.965a13.863,13.863,0,0,0-1.855-3.48m-159.842.127a14.453,14.453,0,0,1-5.613,6.426A11.764,11.764,0,0,1,65.908-94.1c.533-.356.686-.457,1.143-.813v1.575c.66-.051,1.27-.076,2.261-.076h4.953c1.016,0,1.753.025,2.26.076v-1.575c.483.381.686.533,1.321.991A12.734,12.734,0,0,1,79.523-97.6a18.97,18.97,0,0,1-2.667-1.956,12.684,12.684,0,0,1-3.327-4.318H69.744m4.572,7.061h-5.08a16.179,16.179,0,0,0,2.464-3.226,17.728,17.728,0,0,0,2.616,3.226m-50.775-6.832-2.489.787a14.978,14.978,0,0,1,1.7,3.378l2.54-.813a16.362,16.362,0,0,0-1.753-3.352m83.8.076a19.9,19.9,0,0,1,.1,2.286v3.048a18.7,18.7,0,0,1-.1,2.235c.889-.025,1.8-.051,2.616-.051h5.055a11.372,11.372,0,0,1-.585.991H109.19a24.234,24.234,0,0,1-3.023-.127v3.683a24.738,24.738,0,0,1,3.023-.127h1.93a16.409,16.409,0,0,1-5.511,2.87,16.829,16.829,0,0,1,1.549,3.531c.406-.2.711-.355.914-.432v3.1c0,.762-.05,1.549-.127,2.362h3.861v-1.067h1.956v.889h3.607c-.051-.533-.076-1.118-.076-1.931v-5.537a17.879,17.879,0,0,1,.05-1.956c-.558.051-1.066.076-1.778.076h-1.143a17.378,17.378,0,0,0,1.956-1.9h2.947a13.684,13.684,0,0,0,1.93,1.9H119.96c-.712,0-1.22-.025-1.778-.076.025.483.05.94.05,1.956v5.69c0,.736-.025,1.4-.076,1.956h3.683v-1.067h2.134v1.067h3.835c-.076-.787-.127-1.727-.127-2.54v-3.124c.356.152.559.229,1.092.457a16.926,16.926,0,0,1,1.423-3.632,14.434,14.434,0,0,1-5.918-2.591h2.336a26.83,26.83,0,0,1,3,.152v-3.734a24.957,24.957,0,0,1-3,.152h-7.848c.228-.406.254-.483.508-.965.559-.025.863-.025,1.575-.025h4.927c.813,0,1.727.025,2.616.051a17.909,17.909,0,0,1-.1-2.235v-3.048a18.808,18.808,0,0,1,.1-2.286c-.838.076-1.524.1-2.717.1h-4.826a23.657,23.657,0,0,1-2.642-.1c.051.609.076,1.016.076,1.9v4.521l-1.016-.076v-4.445a17.867,17.867,0,0,1,.076-1.9,23.936,23.936,0,0,1-2.641.1h-4.623c-1.219,0-1.9-.025-2.743-.1m6.375,4.7h-2.565v-1.6h2.565v1.6m10.871,0h-2.667v-1.55h2.667v1.55M113.787-84.523h-2.032v-2.083h2.032v2.083m10.237,0h-2.236v-2.083h2.236v2.083m178.41-19.05-2.337.762a18.55,18.55,0,0,1,1.829,3.607l2.337-.864a14.018,14.018,0,0,0-1.829-3.5m-289.663.025a7.113,7.113,0,0,1,.076,1.27c0,.788-.051,2.261-.127,3.251H9.215a19.822,19.822,0,0,1-3.531-.2l.025,4.343a25.994,25.994,0,0,1,3.429-.152h3.175a13.46,13.46,0,0,1-1.27,4.343c-1.27,2.565-3.226,4.369-6.6,6.147a14.681,14.681,0,0,1,3.3,3.861c5.156-3.4,7.569-6.706,8.687-11.837a21.731,21.731,0,0,0,.381-2.54h4.852a58.676,58.676,0,0,1-.483,7.087c-.33,2.21-.635,2.616-1.854,2.616a14.549,14.549,0,0,1-3.3-.508,12.5,12.5,0,0,1,.864,4.47,29.749,29.749,0,0,0,3.327.2c2.819,0,4.039-.813,4.775-3.175.508-1.677.889-5.918,1.067-11.354a3.172,3.172,0,0,1,.355-1.88L24.43-99.331a3.673,3.673,0,0,1-1.7.279H17.191c.051-.61.051-.61.076-1.295a18.229,18.229,0,0,1,.279-3.074l-4.775-.127m75.667,0a21.789,21.789,0,0,1,.1,2.388v3.632c0,.94-.025,1.829-.1,2.591.584-.051,1.422-.076,2.337-.076h9.347q1.257,0,2.286.076a24.714,24.714,0,0,1-.1-2.591v-3.353a18.624,18.624,0,0,1,.1-2.667,19.8,19.8,0,0,1-2.819.127H91.156a18.432,18.432,0,0,1-2.718-.127m10.16,3.429H92.172v-.711H98.6v.711m0,2.845H92.172v-.737H98.6v.737m114.047-5.791-2.261,3.607a31.464,31.464,0,0,1,7.29,3.632l2.26-3.886a40.992,40.992,0,0,0-7.289-3.353m13.792.152-2.439.838a15.453,15.453,0,0,1,1.778,3.683l2.515-.991a14.214,14.214,0,0,0-1.854-3.531m-178.918.737a4.656,4.656,0,0,1-2.032.279l-8.687.127c-.737.026-1.219.026-1.422.026a18.818,18.818,0,0,1-2.667-.178l.127,4.521a30.166,30.166,0,0,1,4.039-.254l6.6-.1a20.434,20.434,0,0,1-5.105,7.468,23.953,23.953,0,0,1-8.23,5.131,13.308,13.308,0,0,1,2.845,4.013,27.548,27.548,0,0,0,9.347-6.96,40.838,40.838,0,0,1,7.29,7.214l3.556-3.759a59.6,59.6,0,0,0-8.077-6.883,29.962,29.962,0,0,0,3.734-6.858,4.01,4.01,0,0,1,.914-1.5l-2.235-2.286m251.918.1a4.25,4.25,0,0,1-2.032.28l-8.1.127c-.737.025-1.245.025-1.422.025a18.808,18.808,0,0,1-2.667-.178l.127,4.522a30.155,30.155,0,0,1,4.038-.254l6.6-.127a20.529,20.529,0,0,1-5.1,7.493,24.349,24.349,0,0,1-8.23,5.131,13.294,13.294,0,0,1,2.845,4.013A27.874,27.874,0,0,0,294.839-88a40.839,40.839,0,0,1,7.29,7.214l3.556-3.759a62.031,62.031,0,0,0-8.077-6.909,29.034,29.034,0,0,0,3.48-6.3,13.374,13.374,0,0,1,.558-1.27l-2.209-3.048M184.6-101.77v4.623c1.067-.1,2.032-.127,4.369-.127h9.855v9.932h-10.16a26.271,26.271,0,0,1-4.42-.2v4.623a35.772,35.772,0,0,1,4.344-.153h10.236v1.5H203.6a38.358,38.358,0,0,1-.152-4.191V-99.027c0-1.27.025-1.7.076-2.59-.737.05-1.448.076-2.82.076H189.048a26.559,26.559,0,0,1-4.445-.229m-25.4.559v4.394a38.028,38.028,0,0,1,4.115-.127h2.794v9.627h-4.623a29.634,29.634,0,0,1-4.166-.2v4.445a38.715,38.715,0,0,1,4.09-.127h14.325a39.942,39.942,0,0,1,4.115.153V-87.52a24.367,24.367,0,0,1-4.191.2h-4.928v-9.627h3.074a38.651,38.651,0,0,1,4.115.127v-4.394a28.747,28.747,0,0,1-4.191.2H163.394a27.256,27.256,0,0,1-4.191-.2m67.666,2.743a19.333,19.333,0,0,1-2.794,5.563,15.649,15.649,0,0,1-7.112,5.537,22.933,22.933,0,0,1-7.824,1.626l1.27,4.826a12.589,12.589,0,0,1,1.8-.432,30.188,30.188,0,0,0,4.623-1.118,20.693,20.693,0,0,0,9.8-6.2,21.873,21.873,0,0,0,3.962-6.629,16.251,16.251,0,0,1-3.733-3.175m9.88.356v3.759a22.62,22.62,0,0,1,3.15-.127h8.737v2.794h-7.924c-1.194,0-2.083-.051-3.2-.152v3.683c.813-.076,1.651-.1,3.2-.1h7.924v3h-8.991a18.131,18.131,0,0,1-3.15-.178v3.759c.813-.076,1.727-.1,3.15-.1h8.991v1.118h4.014c-.077-.838-.127-1.981-.127-3.15V-95.648c0-.787.025-1.727.05-2.362-.685.051-1.066.076-2.286.076H239.9a19.708,19.708,0,0,1-3.15-.178m-154.331.3-2.184,2.921a31.28,31.28,0,0,1,4.724,3.378l1.7-2.464v2.794A18.994,18.994,0,0,1,89.3-91.33h.711a9.239,9.239,0,0,1-3.4,2.515l-3.1-2.108a28.284,28.284,0,0,1-2.057,6.02,9.594,9.594,0,0,1-1.118,1.8l3.4,2.87a35.57,35.57,0,0,0,2.769-7.595,7.99,7.99,0,0,1,1.27,1.854,16,16,0,0,0,3.1-1.93h1.041A11.87,11.87,0,0,1,86.2-84.6a9.205,9.205,0,0,1,1.829,2.362,13.959,13.959,0,0,0,3.988-2.057,12.649,12.649,0,0,0,3.4-3.607h.965a10.593,10.593,0,0,1-2.515,3.15,13.5,13.5,0,0,1-4.14,2.515A9.309,9.309,0,0,1,91.867-80a15.682,15.682,0,0,0,4.191-2.87,8.356,8.356,0,0,1,.61,2.413c.737.051,1.3.076,2.007.076,2.49,0,3.582-.432,4.115-1.626a20.437,20.437,0,0,0,.864-5.969c.152-2.489.152-2.489.178-2.692a18.2,18.2,0,0,1-2.109.076h-8.28c.229-.33.3-.432.483-.737h7.646c1.092,0,1.981.051,2.769.127v-3.251a21.331,21.331,0,0,1-2.82.152H89.073a19.6,19.6,0,0,1-2.159-.076l.229-.33a36.087,36.087,0,0,0-4.724-3.1M98.624-83.786c-.33,0-1.092-.051-1.575-.1A11.6,11.6,0,0,0,99.487-87.9h.483a19.785,19.785,0,0,1-.457,3.353c-.127.559-.356.762-.889.762M210.74-96.842,208.4-93.21a30.043,30.043,0,0,1,7.264,3.963l2.159-3.988a36.243,36.243,0,0,0-7.086-3.607m-67.514.813a3.87,3.87,0,0,0-3.886,3.886,3.864,3.864,0,0,0,3.886,3.861,3.864,3.864,0,0,0,3.861-3.886,3.859,3.859,0,0,0-3.861-3.861m115.7,1.4v4.9c1.55-.127,2.388-.152,5.233-.152h12.09a49.04,49.04,0,0,1,5.233.152v-4.9a41.677,41.677,0,0,1-5.207.229H264.13a36,36,0,0,1-5.207-.229M64.841-89.552,62.53-89.2a49.116,49.116,0,0,1,.508,6.452l2.438-.33c-.2-3.048-.2-3.048-.483-5.359-.025-.254-.076-.635-.152-1.118M55.7-89.5a25.515,25.515,0,0,1-.762,6.883l2.515,1.473a33.579,33.579,0,0,0,.813-8L55.7-89.5m250.086-16.341.441.628a16.927,16.927,0,0,1,1.987,3.575l.375.919-4.16,1.737-.028-.068-1.986.734c-.087.183-.158.354-.4.942a31.007,31.007,0,0,1-3.018,5.694,64.106,64.106,0,0,1,7.382,6.41l.719.687-5.034,5.321-.716-.906a39.719,39.719,0,0,0-6.386-6.463,29.514,29.514,0,0,1-9.031,6.489l-.889.43L284.6-80.6a12.331,12.331,0,0,0-2.67-3.766l-1.041-1.078,1.4-.547a23.387,23.387,0,0,0,7.9-4.923,19.368,19.368,0,0,0,4.247-5.74l-5.036.1a29.215,29.215,0,0,0-3.913.244l-1.112.163-.192-6.814,1.16.149a17.94,17.94,0,0,0,2.54.169c.165,0,.668,0,1.387-.025h.019l8.119-.127a3.84,3.84,0,0,0,1.448-.129l-.274-.444,4.091-1.334Zm-278.735.019.431.6a14.937,14.937,0,0,1,1.934,3.6l.33.946-3.81,1.323,1.743,1.519-.388.706c-.182.33-.209.381-.232,1.419v.011c-.109,3.329-.4,9.263-1.109,11.611l0,.008c-.87,2.79-2.476,3.877-5.73,3.877A30.771,30.771,0,0,1,16.8-80.4l-.865-.079-.043-.867a11.5,11.5,0,0,0-.8-4.177l-.193-.529a22.077,22.077,0,0,1-6.6,6.2l-.85.561-.545-.86A13.779,13.779,0,0,0,3.79-83.788l-1.121-.958,1.305-.687c3.217-1.693,5.006-3.346,6.174-5.705a10.457,10.457,0,0,0,.968-2.9H9.139a25.038,25.038,0,0,0-3.323.147l-1.1.117-.039-6.6,1.145.16a18.906,18.906,0,0,0,3.392.193h2.565c.042-.818.067-1.713.067-2.251a6.194,6.194,0,0,0-.066-1.128l-.167-1.173,7.166.191-.257,1.18a14.96,14.96,0,0,0-.237,2.575l-.021.335-.009.246h3.2a16.4,16.4,0,0,0-1.253-2.276l-.692-1.1,4.446-1.407.025.039Zm-6.4,11.76H17.7a16.427,16.427,0,0,1-.287,1.742l0,.011a18.943,18.943,0,0,1-1.918,5.27l.787.2a13.808,13.808,0,0,0,3.05.476,1.189,1.189,0,0,0,.434-.045c.077-.075.233-.4.431-1.719A57.606,57.606,0,0,0,20.647-94.064ZM58.1-105.675l5.564,1.969-.712,1.068c-.033.049-.06.091-.087.139L66.4-100.61a12.558,12.558,0,0,0,2.425-3.668l.262-.6h5.084l.266.587a11.639,11.639,0,0,0,3.077,3.98,17.91,17.91,0,0,0,2.528,1.853l.876.534-.557.862a11.938,11.938,0,0,0-.806,1.411l2.589-3.461.767.435c.207.118.4.229.586.336a29.616,29.616,0,0,0-3.041-2.18l-.959-.612,3.638-4.343.731.433a35.415,35.415,0,0,1,3.639,2.409c-.015-.27-.037-.525-.064-.82l-.118-1.263,1.255.179a17.332,17.332,0,0,0,2.576.117h8.433a18.872,18.872,0,0,0,2.687-.118l1.285-.171-.161,1.286a17.766,17.766,0,0,0-.093,2.543v3.353c0,.95.017,1.547.067,2.166.283-.022.557-.05.841-.085l.952-.119v-.754l1.121.136.061.007a18.061,18.061,0,0,0,.088-2.063v-3.048a18.7,18.7,0,0,0-.095-2.172l-.141-1.221,1.225.111c.8.073,1.471.1,2.653.1H114.7a24.015,24.015,0,0,0,2.42-.084l-.012-.14.675.072.664-.069-.012.138a23.651,23.651,0,0,0,2.412.083h4.826c1.162,0,1.825-.024,2.627-.1l1.231-.112-.148,1.227a17.772,17.772,0,0,0-.094,2.167v3.048a17.732,17.732,0,0,0,.085,2.043l.122-.014,1.114-.127v5.962l-1.1-.113c-.381-.039-.745-.072-1.133-.1a18.167,18.167,0,0,0,2.033.563l1.265.277-.588,1.154a15.865,15.865,0,0,0-1.352,3.453l-.312,1.092-.742-.318v1.619c0,.739.046,1.652.123,2.444l.106,1.1h-5.937v-1.067h-.134v1.067h-5.778l.016-.178h-4.271v.178h-5.959l.1-1.093c.083-.892.122-1.613.122-2.269v-1.506l-.511.256-.355-1.111a15.917,15.917,0,0,0-1.474-3.354l-.053-.1c-.008.141-.018.293-.028.455A20.888,20.888,0,0,1,103.7-81.6c-.823,1.842-2.606,2.22-5.029,2.22-.78,0-1.372-.03-2.075-.079l-.812-.056-.11-.806c-.043-.313-.083-.568-.124-.79a16.959,16.959,0,0,1-3.233,2l-.772.391-.5-.708a8.324,8.324,0,0,0-1.938-2.027l-.1-.081c-.2.079-.414.158-.637.238l-.8.291-.413-.747a7.905,7.905,0,0,0-1.018-1.47c-.4,1.048-.855,2.081-1.5,3.425l-.558,1.167L78.92-82.986l.656-.765a8.954,8.954,0,0,0,.982-1.6,27.548,27.548,0,0,0,1.981-5.811l.208-.849a32.685,32.685,0,0,0-3.033-2.021l-.648-.394c-.084.242-.172.509-.268.808l-.17.532.443-.042-.131,1.218a21.085,21.085,0,0,0-.1,2.484v6.045a29.058,29.058,0,0,0,.119,3.025l.141,1.124h-6.07V-80.5H70.718v1.27H64.844l.093-1.086c.048-.553.076-1.08.089-1.689l-1.867.253a10.288,10.288,0,0,0,.13,1.495l.18,1.154H57.525l.1-.777-3.864-2.264.206-.742c.141-.509.255-1,.348-1.511l-4.761,5.033-.717-.906a39.7,39.7,0,0,0-6.383-6.461,29.325,29.325,0,0,1-9.034,6.487l-.889.43L32.1-80.7a12.317,12.317,0,0,0-2.67-3.766L28.377-85.55l1.409-.542a22.938,22.938,0,0,0,7.9-4.92,19.392,19.392,0,0,0,4.249-5.721l-5.037.077a29.19,29.19,0,0,0-3.913.244l-1.113.163-.191-6.814,1.159.149a17.81,17.81,0,0,0,2.54.17c.2,0,.668,0,1.388-.025h.02l8.727-.128a3.607,3.607,0,0,0,1.659-.216l.609-.225,3.38,3.457-.7.7a3.03,3.03,0,0,0-.7,1.188A33.127,33.127,0,0,1,46.5-91.759a61.753,61.753,0,0,1,7.374,6.386l.524.5a33.592,33.592,0,0,0,.283-3.972l-.193.045-.466-5.844,1.182.107c.615.056,1,.068,1.522.071l.126-.168a25.9,25.9,0,0,0-2.605-3.059l-.528-.539,2.859-5.023.558.659a13.546,13.546,0,0,0,.712-1.995Zm29.391,9.981c.03-.521.046-1.128.046-1.834v-1.129l-1.5,1.908C86.477-96.444,86.942-96.106,87.494-95.694ZM72.062-97.817c-.111-.139-.22-.281-.33-.429-.1.149-.208.291-.314.429Zm32.688,8.282.545-.18a20.807,20.807,0,0,0,2.311-.9c-.485.018-.879.049-1.328.1l-.939.1v.308l-.549-.053C104.781-90.018,104.768-89.822,104.75-89.535Zm-18.056-.433q.254-.131.491-.27c-.136.014-.26.03-.366.047l-.366.058ZM73.036-87.536H70.718v1.607h2.318Zm156.928-17.659.435.607a14.861,14.861,0,0,1,1.977,3.71l.348.92-4.279,1.694a14.428,14.428,0,0,0,2.691,2.126l.719.454-.332.783a22.693,22.693,0,0,1-4.136,6.9,20.741,20.741,0,0,1-4.543,3.9,23.581,23.581,0,0,1-5.707,2.588,31.257,31.257,0,0,1-4.752,1.149,11.609,11.609,0,0,0-1.672.4l-1,.319-1.864-7.084,1.283-.014a21.934,21.934,0,0,0,6.583-1.225l-.642-.478a29.134,29.134,0,0,0-7.033-3.834l-1.135-.446,3.443-5.352.766.306a37.029,37.029,0,0,1,7.263,3.7l.769.5-2.934,5.42q.192-.073.381-.148a14.608,14.608,0,0,0,6.674-5.2,16.521,16.521,0,0,0,2.033-3.637l-.13.051-.338-.994a14.5,14.5,0,0,0-1.668-3.458l-.7-1.075,4.385-1.508Zm-17.737.913.76.277a42.147,42.147,0,0,1,7.459,3.433l.851.507-3.287,5.65-.882-.573a30.556,30.556,0,0,0-7.071-3.526l-1.188-.411ZM183.6-102.926l1.144.167a25.57,25.57,0,0,0,4.3.218h11.658c1.4,0,2.073-.027,2.751-.074l1.132-.078-.066,1.16c-.049.851-.073,1.278-.073,2.506v13.259a37.462,37.462,0,0,0,.148,4.105l.094,1.086h-6.865v-1.5h-9.236a34.6,34.6,0,0,0-4.233.146l-1.111.123v-6.9l1.145.167a25.123,25.123,0,0,0,4.275.193h9.16v-7.932h-8.855c-2.346,0-3.265.026-4.274.123l-1.1.1Zm-25.4.574,1.131.15a26.353,26.353,0,0,0,4.06.194h10.338a27.864,27.864,0,0,0,4.061-.195l1.13-.147v6.624l-1.087-.095a37.862,37.862,0,0,0-4.028-.123h-2.074v7.627h3.928a23.617,23.617,0,0,0,4.037-.191l1.154-.179v6.752l-1.107-.12a39.451,39.451,0,0,0-4.008-.147H161.413a37.762,37.762,0,0,0-4,.123l-1.091.1v-6.673l1.124.14a28.941,28.941,0,0,0,4.042.2h3.623v-7.627h-1.794a37.218,37.218,0,0,0-4.025.123l-1.09.1Zm77.546,3.1,1.132.151a18.9,18.9,0,0,0,3.018.169h10.388c1.172,0,1.525-.022,2.213-.073l1.118-.083-.045,1.12c-.024.6-.05,1.531-.05,2.322v11.837c0,1.085.044,2.2.123,3.059l.1,1.091h-6.109V-80.78h-7.991c-1.453,0-2.31.027-3.056.1l-1.094.1V-86.6l1.152.177a17.171,17.171,0,0,0,3,.166h7.991v-1h-6.924c-1.528,0-2.341.026-3.107.1l-1.094.1v-5.876l1.091.1c1.007.091,1.878.148,3.11.148h6.924v-.794H239.9a21.887,21.887,0,0,0-3.018.118l-1.132.151Zm-92.523,2.225a4.867,4.867,0,0,1,4.861,4.861,4.867,4.867,0,0,1-1.422,3.458,4.818,4.818,0,0,1-3.439,1.428,4.868,4.868,0,0,1-3.458-1.422,4.819,4.819,0,0,1-1.428-3.439,4.856,4.856,0,0,1,1.426-3.46A4.859,4.859,0,0,1,143.226-97.029Zm114.7,1.237,1.148.171a34.973,34.973,0,0,0,5.059.218h12.142a40.609,40.609,0,0,0,5.1-.223l1.1-.115v7.122l-1.1-.115a47.532,47.532,0,0,0-5.129-.147h-12.09c-2.8,0-3.621.024-5.151.149l-1.082.089Z" fill="#ffea2c"/>
    </g>
    <path id="Path_255" data-name="Path 255" d="M18.837-14.237a26.371,26.371,0,0,1,3.174.138V-17.71a25.756,25.756,0,0,1-3.128.138H13.225v-.575a6.532,6.532,0,0,1,.115-1.4H9.453a7.079,7.079,0,0,1,.138,1.4v.575H4.255A25.933,25.933,0,0,1,1.1-17.71v3.61a25.933,25.933,0,0,1,3.151-.138H6.969a13.34,13.34,0,0,1-1.932,2.162,16.94,16.94,0,0,1-4.209,2.9,12.765,12.765,0,0,1,2.3,2.852,28.349,28.349,0,0,0,2.9-2.116,18.869,18.869,0,0,0,2.9,4.163,18.61,18.61,0,0,1-4.7,2.207,20.6,20.6,0,0,1-3.5.92A11.078,11.078,0,0,1,2.415,2.231,34.209,34.209,0,0,0,6.716.759a21.613,21.613,0,0,0,4.83-2.668,23.324,23.324,0,0,0,3.7,2.162,26.754,26.754,0,0,0,5.612,1.84,11.5,11.5,0,0,1,1.656-3.634A25.913,25.913,0,0,1,14.26-4.347a20.314,20.314,0,0,0,2.829-4.094,24.23,24.23,0,0,0,3.22,1.909,12.389,12.389,0,0,1,1.909-3.151,15.113,15.113,0,0,1-4.508-2.553,14.721,14.721,0,0,1-2.024-2ZM6.256-8.625a20.661,20.661,0,0,0,3.864-4.048L7.245-14.237H15.3l-2.6,1.61a19.3,19.3,0,0,0,4.186,4.048L13.9-10.028a12.32,12.32,0,0,1-2.4,3.634,10.609,10.609,0,0,1-2.461-3.611Zm36.869,5.7a20.114,20.114,0,0,1,2.277.092V-5.98c-.253.023-.483.046-.943.069V-12.4c0-1.035.023-1.679.069-2.3-.575.046-.92.069-2.024.069H41.193c.46-.575.943-1.219,1.219-1.633a8.17,8.17,0,0,1,.621-.805L41.354-18.7a11.128,11.128,0,0,1-1.656.092H37.03c.207-.437.322-.713.391-.828l-3.588-.3a6.3,6.3,0,0,1-.92,2A10.552,10.552,0,0,1,30.5-15.042v-.575c-.345.023-.552.046-1.058.046v-1.541a15.54,15.54,0,0,1,.115-2.369H25.944a15.354,15.354,0,0,1,.115,2.369v1.541h-.552a12.034,12.034,0,0,1-1.633-.092v3.381a14.067,14.067,0,0,1,1.587-.092h.6v3.45a13.009,13.009,0,0,1-2.369.414l.322,3.5c.782-.23,1.2-.368,1.242-.368.322-.092.46-.115.805-.207V-1.84c0,.575-.115.713-.6.713a13.051,13.051,0,0,1-1.817-.115A10.452,10.452,0,0,1,24.38,2c.69.046,1.035.069,1.4.069,1.748,0,2.714-.23,3.151-.759A3.147,3.147,0,0,0,29.44-.736a9.615,9.615,0,0,1,1.334,2.99c3.335-.713,5.382-1.794,6.785-3.565A8.733,8.733,0,0,0,40.526.966a12.993,12.993,0,0,0,4,1.288,12.919,12.919,0,0,1,1.15-3.312c-2.76-.161-4.324-.667-5.819-1.863Zm-8.3,0a5.851,5.851,0,0,1-2.783,1.587,12.169,12.169,0,0,1-2.6.437V-6.67l1.2-.437v-3.2c-.552.207-.736.276-1.2.437v-2.507H29.6c.253,0,.575.023.9.046v-1.288a8,8,0,0,1,.713,1.173v6.532a8.455,8.455,0,0,1-1.058-.069v3.151a19.739,19.739,0,0,1,2.231-.092ZM36.389-7.41C37.1-8.537,37.332-9.6,37.4-11.8h.667v2.9c0,1.081.713,1.61,2.162,1.61.207,0,.3,0,1.2-.023v1.4H39.192c.046-.575.069-.667.115-1.357ZM34.02-5.91V-7.728a6.468,6.468,0,0,1,1.495,1.38c.23-.23.3-.322.506-.552a6.247,6.247,0,0,1-.069.989Zm.529-8.717c.368-.437.529-.667.851-1.1h2.9a10.258,10.258,0,0,1-.851,1.1Zm.575,2.829c-.069,1.84-.3,2.553-1.1,3.427V-11.8Zm6.3,1.978a.448.448,0,0,0-.184.023h-.276c-.552,0-.667-.092-.667-.552V-11.8h1.127Zm14.03-4.646V-3.013H50.416a32.014,32.014,0,0,1-3.588-.161v3.8A33.825,33.825,0,0,1,50.347.46H64.63a31.409,31.409,0,0,1,3.542.161v-3.8a31.245,31.245,0,0,1-3.519.161H59.225V-14.467h4.6a27.831,27.831,0,0,1,3.266.138v-3.726a26.219,26.219,0,0,1-3.289.138H51.29a29.84,29.84,0,0,1-3.335-.138v3.726a27.552,27.552,0,0,1,3.289-.138Zm23.3,7.5H72.289a15.962,15.962,0,0,1-2.484-.115v2.6a16.1,16.1,0,0,1,2.53-.115h6.417v.69H73.3a17.6,17.6,0,0,1-2.185-.069V-1.61a21.924,21.924,0,0,1,2.3-.092h5.336v.575c0,.414-.138.483-.851.483-.805,0-1.633-.069-2.852-.184a9.8,9.8,0,0,1,.874,2.9c.874.046,1.518.069,2.139.069,3.45,0,4.048-.437,4.048-2.967V-1.7h4.209v.9h3.473a19.773,19.773,0,0,1-.115-2.6V-4.5a11.119,11.119,0,0,1,1.61.115V-7.2a7.724,7.724,0,0,1-1.61.138v-.713a16.352,16.352,0,0,1,.069-2.116,18.538,18.538,0,0,1-2.346.069H82.11v-.644h5.267c.713,0,1.288.023,1.817.069a14.7,14.7,0,0,1-.069-1.564v-1.518c0-.736.023-1.127.069-1.656-.552.046-1.035.069-1.978.069H82.11v-.667H88.3a24.235,24.235,0,0,1,2.76.115v-2.921a24.992,24.992,0,0,1-2.99.138H82.11a5.626,5.626,0,0,1,.138-1.15H78.614a5.243,5.243,0,0,1,.138,1.15H72.933a25.159,25.159,0,0,1-3.013-.138v2.921a24.36,24.36,0,0,1,2.806-.115h6.026v.667h-4.9c-.943,0-1.426-.023-2.07-.069.046.552.069,1.012.069,1.656v1.518a15.638,15.638,0,0,1-.069,1.564c.575-.046,1.173-.069,2-.069H78.75v.644H73.3a16.572,16.572,0,0,1-2.139-.092V-7.59c.621-.046,1.311-.069,2.093-.069h5.5Zm3.358,0v-.69h4.209v.69Zm0,2.369h4.209v.69H82.11Zm-3.358-8.51v.69h-3.59v-.69Zm3.358,0h3.7v.69h-3.7Zm19.5-2.139v.69h-4.46c-1.334,0-1.771-.023-2.415-.069a19.431,19.431,0,0,1,.092,2.047v4.209a19.147,19.147,0,0,1-.092,2.047c.644-.046,1.15-.069,2.415-.069h9.637v.759H95.634a15.945,15.945,0,0,1-2.622-.138v3.2c.874-.069,1.679-.115,2.53-.115h3.105L96.6-1.265A21.035,21.035,0,0,1,100,2.07l2.852-2.162a20.2,20.2,0,0,0-2.806-2.6h6.739V-1.45c0,.414-.138.483-.9.483a22.391,22.391,0,0,1-2.6-.161,10.532,10.532,0,0,1,.966,3.174c.782.023,1.38.046,1.771.046,3.2,0,4.163-.575,4.163-2.507V-2.691h1.2c.874,0,1.725.046,2.553.115v-3.2a16.256,16.256,0,0,1-2.645.138h-1.1V-6.4q1-.016,2,.069a18.066,18.066,0,0,1-.092-2.047v-4.209a18.6,18.6,0,0,1,.092-2.047c-.644.046-1.1.069-2.438.069H105.04v-.69h6.325a19.863,19.863,0,0,1,2.553.115v-3.174a16.256,16.256,0,0,1-2.645.138H105.04a8.493,8.493,0,0,1,.138-1.38h-3.7a9.048,9.048,0,0,1,.138,1.38h-5.98a15.945,15.945,0,0,1-2.622-.138v3.174a20.359,20.359,0,0,1,2.53-.115Zm0,2.944v.805h-3.4V-12.3Zm3.427,0H108.7v.805h-3.657Zm-3.427,2.829v.851h-3.4v-.851Zm3.427,0H108.7v.851h-3.657Zm14.95-.069h4c.644,0,1.2.023,1.886.046a19.9,19.9,0,0,1-.046-2V-16.9c0-.9.023-1.4.069-2.093a18.71,18.71,0,0,1-2.346.092h-4.807a20.24,20.24,0,0,1-2.319-.1,25.868,25.868,0,0,1,.092,2.645v15.2a26.92,26.92,0,0,1-.138,3.105h3.749a24.637,24.637,0,0,1-.138-3.082Zm0-6.6h2.668v.92h-2.668Zm0,3.059h2.668v.92h-2.668Zm16.47-3.317a25.711,25.711,0,0,1,.092-2.6,20.24,20.24,0,0,1-2.323.092h-4.991A19.68,19.68,0,0,1,126.891-19c.046.644.069,1.288.069,2.093V-11.5c0,1.058-.023,1.61-.046,2.024.506-.023,1.2-.046,1.886-.046h4.186v7.5c0,.414-.138.506-.736.506a29.392,29.392,0,0,1-3.128-.161A10.84,10.84,0,0,1,129.95,1.8c.782.023,1.449.023,1.909.023,3.841,0,4.6-.529,4.6-3.22Zm-6.256.253h2.783v.92H130.2Zm0,3.059h2.783v.943H130.2Zm19,5.612h-2.714a16.681,16.681,0,0,1-2.093-.092c.046.575.069,1.2.069,2.07V-.874a23.2,23.2,0,0,1-.138,2.921h3.611V1.173h7.13v.9h3.657a26.731,26.731,0,0,1-.138-3.151v-3.91a21.862,21.862,0,0,1,.115-2.576,16.4,16.4,0,0,1-2.116.092h-4V-9.131h4.577c.851,0,1.7.046,2.484.115v-3.4a21.264,21.264,0,0,1-2.6.115h-4.462c.023-.759.046-1.1.092-1.564h-3.565a21.085,21.085,0,0,1,.092,2.507Zm-1.265,3.22h7.13V-2h-7.13Zm.23-13.409h-4.83c-1.15,0-2.139-.046-3.036-.115.046.805.069,1.84.069,3.565,0,7.659-.437,10.672-2,13.478A11.607,11.607,0,0,1,141.2,2.139c1.978-3.358,2.714-7.521,2.714-15.5v-1.012h12.972c1.012,0,2.254.046,3.174.115V-17.8a27.715,27.715,0,0,1-3.243.138H151.78v-.69a5.932,5.932,0,0,1,.092-1.242h-3.795a6.017,6.017,0,0,1,.092,1.2Z" transform="translate(37.912 6817.051)" fill="#101010"/>
    <g id="Layer_2" data-name="Layer 2" transform="translate(28 6711.413)">
      <g id="Group_362" data-name="Group 362" transform="translate(25.303 1.587)">
        <path id="Path_246" data-name="Path 246" d="M108.338,16.711a1.141,1.141,0,0,1-1.214-1.195V13.041l-.089.042a1.812,1.812,0,0,1-.386.057.965.965,0,0,1-.962-1.006v-2a1.032,1.032,0,0,1,.725-.991l1.348-.453-.148-.161-.163.057a1.174,1.174,0,0,1-.474.117.9.9,0,0,1-.948-.946V5.844a1.107,1.107,0,0,1,.665-1.02l2.148-1.006a1.543,1.543,0,0,1,.68-.161h7.386a1.165,1.165,0,0,1,1.228,1.209V7.5a1.1,1.1,0,0,1-.665,1.02l-1.511.627h1.776a1.172,1.172,0,0,1,1.228,1.209v5.157a1.168,1.168,0,0,1-1.228,1.195h-9.4Zm9.4-6.816h-5.152l4.53-2.126a.252.252,0,0,0,.177-.261V4.872a.342.342,0,0,0-.386-.378h-7.386a.7.7,0,0,0-.3.072L107.034,5.6a.243.243,0,0,0-.163.247V7.884c0,.117.029.175.1.175a.393.393,0,0,0,.117-.042l.829-.378,1.1,1.4-2.31.873a.233.233,0,0,0-.177.232v2c0,.117.045.175.117.175a.458.458,0,0,0,.117-.029l1.2-.481v3.713c0,.261.117.364.371.364h9.4a.322.322,0,0,0,.371-.364V10.273a.333.333,0,0,0-.371-.378ZM110.6,7.476a.379.379,0,0,0-.3-.161h-1.731l1.539-.67h4.233v.161L111.2,8.087Zm-.371,4.412h5.6V13.9h-5.6V11.889Zm4.753.7h-3.893v.642h3.893Z" transform="translate(-105.687 -3.441)" fill="#c30d23"/>
        <path id="Path_247" data-name="Path 247" d="M177.528,7.725h-3.67v.467h3.019A1.168,1.168,0,0,1,178.119,9.4v5.432a1.168,1.168,0,0,1-1.243,1.209h-10.14a1.16,1.16,0,0,1-1.228-1.195V9.4a1.148,1.148,0,0,1,1.228-1.209h3.05V7.725h-3.7a1.048,1.048,0,0,1-1.1-1.077V5.117a1.056,1.056,0,0,1,1.1-1.077h3.7V3.85a1.052,1.052,0,0,1,1.1-1.092h1.894a1.067,1.067,0,0,1,1.081,1.092v.19h3.67a1.068,1.068,0,0,1,1.1,1.092v1.5a1.061,1.061,0,0,1-1.1,1.092Zm0-2.854h-4.516V3.85a.226.226,0,0,0-.237-.247h-1.894c-.177,0-.25.072-.25.247V4.87h-4.546c-.163,0-.237.089-.237.247V6.733c0,.175.074.232.237.232h4.544v1.98h-3.893c-.28,0-.386.117-.386.364v5.535c0,.247.117.364.386.364h10.14c.266,0,.4-.117.4-.378V9.323c0-.263-.134-.378-.4-.378h-3.864V6.965h4.516c.148,0,.237-.057.237-.25V5.129a.231.231,0,0,0-.237-.261Zm-8.911,6.16H175V13.1h-6.381Zm5.535.757h-4.693v.554h4.693Z" transform="translate(-150.79 -2.758)" fill="#c30d23"/>
        <path id="Path_248" data-name="Path 248" d="M225.042,9.739V4.817a1.152,1.152,0,0,1,1.214-1.209h10.451a1.175,1.175,0,0,1,1.228,1.224V7.5a1.313,1.313,0,0,1-.223.771.826.826,0,0,1,.06.335v.9a.928.928,0,0,1-.46.832.84.84,0,0,1,.06.175c.06.232.134.453.163.627a2.642,2.642,0,0,1,.117.541.744.744,0,0,1-.06.335,1.178,1.178,0,0,1,.177.613v.946a1.584,1.584,0,0,1-.029.261,1.158,1.158,0,0,1,.3.788v.991a1.049,1.049,0,0,1-1.1,1.077h-8.851a1.664,1.664,0,0,1-.386-.057,1.1,1.1,0,0,1-.68.2H225.53c-.163,0-1.168-.1-1.081-1.106l.591-5.985Zm11.665-5.286H226.255a.322.322,0,0,0-.371.364V9.785l-.591,6.014c0,.146.074.189.237.189h1.494c.177,0,.266-.057.28-.232l.637-5.825V7.862h8.748c.266,0,.386-.117.386-.364V4.833c0-.263-.117-.378-.371-.378Zm.25,9.9h-3.343v-.541h3.036c.191,0,.266-.089.266-.247v-.944c0-.175-.074-.263-.25-.263h-3.052v-.541h2.99c.134,0,.191-.042.191-.146a.214.214,0,0,0-.015-.086l-.517-1.836h.386c.192,0,.266-.089.266-.247v-.9c0-.175-.074-.247-.25-.247H228.58c-.177,0-.25.072-.25.247v.9a.217.217,0,0,0,.25.247h.577l-.577.553a.444.444,0,0,0-.134.307v.845c0,.247.134.364.386.364h2.753v.541h-3.256a.215.215,0,0,0-.237.247v.962c0,.161.074.247.237.247h3.256v.541h-3.494a.225.225,0,0,0-.25.247v1.006a.225.225,0,0,0,.25.25h8.853a.225.225,0,0,0,.25-.25v-1c0-.175-.089-.261-.237-.261Zm-9.012-8.493h7.017v.566h-7.017ZM231.2,9.754h3.139l.193.671H230.5Z" transform="translate(-196.01 -3.403)" fill="#c30d23"/>
        <path id="Path_249" data-name="Path 249" d="M297.06,5.946V8.16c0,.613-.28.991-.915.991a1.151,1.151,0,0,1,.591,1.049v4.762a1.169,1.169,0,0,1-1.243,1.195h-5.169a1.273,1.273,0,0,1-.534-.1,1.3,1.3,0,0,1-.563.132h-.711a1.669,1.669,0,0,1-.386-.042,1.208,1.208,0,0,1-.651.189h-1.228a1.272,1.272,0,0,1-.68-.189,1.409,1.409,0,0,1-.354.042h-.74a1.044,1.044,0,0,1-1.1-1.092l.045-3.452a1.29,1.29,0,0,1,.06-.378,1.347,1.347,0,0,1-.148-.656V9.3a1.231,1.231,0,0,1,.28-.788l.148-.175a1.142,1.142,0,0,1-.428-.948V5.726a1.2,1.2,0,0,1,.326-.873l1.348-1.5a1.289,1.289,0,0,1,.962-.421h1.585a.953.953,0,0,1,1.006.915.97.97,0,0,1-.177.51h.915a1.2,1.2,0,0,1,.517.146l1.494-1.266a1.224,1.224,0,0,1,.814-.291H293.7a1.342,1.342,0,0,1,.828.291l2.088,1.791a1.172,1.172,0,0,1,.443.915Zm-7.7,1.865a.25.25,0,0,0-.28-.232h-1.1c-.134,0-.208.057-.208.189l.045,1.37h-1.4l2.9-3.743a.2.2,0,0,0,.045-.117c0-.045-.045-.072-.148-.072H287.67a.367.367,0,0,0-.3.146l-.566.685h-.9l1.734-2.068a.25.25,0,0,0,.06-.117c0-.057-.045-.086-.148-.086h-1.585a.393.393,0,0,0-.311.146l-1.364,1.5a.416.416,0,0,0-.117.321V7.392c0,.247.134.364.386.364h.785l-1.066,1.281a.344.344,0,0,0-.1.261v1.313a.336.336,0,0,0,.386.378H286V15.24c0,.175.06.247.25.247h1.228c.163,0,.266-.072.266-.247V10.988h1.614c.134,0,.192-.057.192-.175v-.057l-.192-2.943Zm-4.1,3.7h-.74c-.163,0-.237.072-.237.232l-.045,3.364c0,.175.06.247.237.247h.74c.148,0,.237-.072.237-.247l.06-3.349a.217.217,0,0,0-.25-.247Zm3.922,0h-.725c-.163,0-.237.072-.237.232l.029,3.364c0,.175.089.247.266.247h.711c.163,0,.266-.072.266-.247l-.06-3.349c0-.175-.074-.247-.25-.247Zm4.783-7.647a.585.585,0,0,0-.266-.089h-1.568a.463.463,0,0,0-.266.089l-2.117,1.805a.319.319,0,0,0-.134.278V8.16c0,.1.029.146.074.146a.293.293,0,0,0,.117-.042l.7-.642V8.875a.217.217,0,0,0,.25.247h4.19a.223.223,0,0,0,.25-.247V7.547l.815.714a.2.2,0,0,0,.117.042c.06,0,.074-.042.074-.146V5.943a.3.3,0,0,0-.148-.278l-2.091-1.8ZM295.5,9.82h-5.2c-.237,0-.354.117-.354.364v4.779c0,.261.117.364.371.364h5.166c.25,0,.386-.117.386-.364V10.2a.338.338,0,0,0-.371-.378Zm-4.293-2.811,1.7-1.456,1.657,1.441h-3.316c-.015,0-.029.015-.045.015Zm.828,4.822h1.791v1.5H292.04Z" transform="translate(-240.803 -2.887)" fill="#c30d23"/>
        <path id="Path_250" data-name="Path 250" d="M344.348,10.383a.882.882,0,0,1,.117-.321c-.237-.057-.428-.117-.5-.132a1.059,1.059,0,0,1-.785-1.049V7.192a1.117,1.117,0,0,1,.163-.627,1.1,1.1,0,0,1-.163-.6v-1.7a.977.977,0,0,1,.991-1.034,1.841,1.841,0,0,1,.354.057,3.067,3.067,0,0,1,.34.072q1.221.305,2.442.656a1.148,1.148,0,0,1,1.1-.7H355.2a1.168,1.168,0,0,1,1.216,1.224V8.3a1.468,1.468,0,0,1-.029.263,1,1,0,0,1,.354.8v.991a1.2,1.2,0,0,1-.117.541,1.558,1.558,0,0,1,.1.524v3.9a1.171,1.171,0,0,1-1.228,1.209H353.26a1.184,1.184,0,0,1-.624-.161,1.143,1.143,0,0,1-.637.161h-1.242a1.077,1.077,0,0,1-.577-.161.966.966,0,0,1-.591.161H348.4a1.024,1.024,0,0,1-1.006-.915,1.222,1.222,0,0,1,.163-.524l.28-.481h-.578l-.237,1.049a1.066,1.066,0,0,1-1.1.9h-1.657a.971.971,0,0,1-1.066-.991,1.966,1.966,0,0,1,.045-.421l1.1-4.762Zm2.753-5.55L344.26,4.09c-.015-.015-.06-.015-.089-.015-.1,0-.148.057-.148.189V5.97a.213.213,0,0,0,.163.232l2.842.742a.192.192,0,0,0,.089.015c.1,0,.148-.057.148-.2V5.051a.2.2,0,0,0-.163-.218Zm0,2.943-2.842-.742a.256.256,0,0,0-.1-.015c-.089,0-.134.057-.134.175v1.69a.223.223,0,0,0,.163.232l2.842.757a.256.256,0,0,0,.1.015c.089,0,.134-.072.134-.218V7.993a.2.2,0,0,0-.163-.218Zm0,2.593h-1.716a.213.213,0,0,0-.223.2l-1.1,4.908a.188.188,0,0,0-.015.089c0,.1.074.146.223.146h1.657c.148,0,.223-.042.237-.175l1.14-4.922v-.072c0-.1-.06-.175-.208-.175Zm8.543-1.252h-7.726a.219.219,0,0,0-.25.247v.991c0,.175.074.232.25.232h.769l-1.82,3.1a.2.2,0,0,0-.045.1c0,.072.074.089.192.089h1.259a.333.333,0,0,0,.3-.146l.68-1.195h.637L348.213,15.5a.311.311,0,0,0-.045.117c0,.057.06.089.163.089h1.261a.269.269,0,0,0,.266-.161l1.7-3h.637l-1.57,2.944a.254.254,0,0,0-.029.117c0,.072.045.1.163.1H352a.257.257,0,0,0,.266-.161l1.539-3h.25v1.69h-.8c-.177,0-.25.072-.25.247v.977a.217.217,0,0,0,.25.247H355.5a.333.333,0,0,0,.371-.378v-3.9a.333.333,0,0,0-.371-.378h-5.479l.266-.453h5.358c.163,0,.25-.057.25-.232V9.372a.224.224,0,0,0-.25-.247Zm-.444-4.95h-6.8c-.237,0-.34.132-.34.378V8.3c0,.263.1.364.371.364H355.2a.322.322,0,0,0,.371-.364V4.544a.333.333,0,0,0-.371-.378Zm-4.945,1.179h3.124V5.87h-3.124Zm0,1.6h3.124v.541h-3.124Z" transform="translate(-286.316 -3.116)" fill="#c30d23"/>
        <path id="Path_251" data-name="Path 251" d="M415.92,9.172v1.312a1.053,1.053,0,0,1-.208.656,1,1,0,0,1,.177.6v1.69a1.078,1.078,0,0,1-.428.873v1.2a1.162,1.162,0,0,1-1.228,1.209h-4.516a1.389,1.389,0,0,1-.665-.161,1.292,1.292,0,0,1-.651.161h-4.484a1.172,1.172,0,0,1-1.243-1.2V14.3a1.132,1.132,0,0,1-.416-.832V11.781a1.2,1.2,0,0,1,.177-.627,1.154,1.154,0,0,1-.208-.67V9.172a1.092,1.092,0,0,1,.371-.832,1.436,1.436,0,0,1-.029-.247V4.817a1.165,1.165,0,0,1,1.231-1.21h4.6a1.2,1.2,0,0,1,.637.175,1.4,1.4,0,0,1,.666-.175h4.647a1.183,1.183,0,0,1,1.228,1.224V8.08a2.018,2.018,0,0,1-.029.278,1.086,1.086,0,0,1,.371.816Zm-1.1-.247H410.2V8.546a.229.229,0,0,0-.015-.1h4.159a.327.327,0,0,0,.371-.364V4.831a.338.338,0,0,0-.371-.378H409.7c-.25,0-.354.117-.354.364V8.1a.625.625,0,0,0,.045.2h-.68a.316.316,0,0,0,.06-.218V4.831a.333.333,0,0,0-.371-.378h-4.6c-.266,0-.371.117-.371.364V8.1c0,.247.117.349.371.349h4.191c0,.029-.015.057-.015.1v.378h-4.647c-.177,0-.237.089-.237.247v1.312c0,.161.06.247.237.247h1.939l-2,.816a.208.208,0,0,0-.148.232v1.69c0,.117.015.175.089.175a.293.293,0,0,0,.117-.042l.208-.1v2.011c0,.247.134.364.386.364h4.48a.338.338,0,0,0,.371-.378V12.275c0-.247-.117-.393-.371-.393h-1.688l2.31-1.077h.163l2.31,1.077h-1.776c-.266,0-.371.132-.371.378v3.25c0,.247.117.364.371.364h4.514a.333.333,0,0,0,.371-.378V13.47l.208.1a.26.26,0,0,0,.117.029c.089,0,.117-.057.117-.175V11.736a.243.243,0,0,0-.177-.232l-1.911-.771h1.851a.219.219,0,0,0,.25-.247V9.174c0-.161-.074-.247-.237-.247Zm-9.281-2.971h1.123V6.972h-1.123Zm.06,7.445h1.125v.991H405.6Zm5.772,0h1.168v.991h-1.17Zm.074-7.445h1.168V6.972h-1.169Z" transform="translate(-331.228 -3.403)" fill="#c30d23"/>
      </g>
      <path id="Path_252" data-name="Path 252" d="M17.268,1.311a1.312,1.312,0,0,1,1.311,1.31V20.914a1.312,1.312,0,0,1-1.311,1.311h-.321v.915h-2.5v-.915H11.194v.915h-2.5v-.915H5.439v.915h-2.5v-.915H2.62a1.312,1.312,0,0,1-1.31-1.311V2.62A1.31,1.31,0,0,1,2.62,1.311H17.266M4.617,5.74H15.272a.723.723,0,0,0,0-1.446H4.617a.723.723,0,1,0,0,1.446m6.548,10.27h4.371a.426.426,0,0,0,0-.852H11.165a.426.426,0,0,0,0,.852m-6.809,0H8.727a.426.426,0,0,0,0-.852H4.356a.426.426,0,1,0,0,.852m6.809,1.645h4.371a.426.426,0,1,0,0-.852H11.165a.426.426,0,0,0,0,.852m-6.809,0H8.727a.426.426,0,1,0,0-.852H4.356a.426.426,0,0,0,0,.852M11.165,19.3h4.371a.426.426,0,0,0,0-.852H11.165a.426.426,0,1,0,0,.852m-6.809,0H8.727a.426.426,0,0,0,0-.852H4.356a.426.426,0,1,0,0,.852M17.268,0H2.62A2.624,2.624,0,0,0,0,2.62V20.914A2.628,2.628,0,0,0,1.649,23.35a1.311,1.311,0,0,0,1.293,1.1h2.5a1.311,1.311,0,0,0,1.248-.915h.752a1.311,1.311,0,0,0,1.248.915h2.5a1.311,1.311,0,0,0,1.248-.915h.752a1.311,1.311,0,0,0,1.248.915h2.5a1.308,1.308,0,0,0,1.293-1.1,2.626,2.626,0,0,0,1.649-2.436V2.62A2.624,2.624,0,0,0,17.26,0h0Z" transform="translate(0 3.275)" fill="#c30d23"/>
      <g id="Group_363" data-name="Group 363" transform="translate(24.713 16.348)">
        <path id="Path_253-2" data-name="Path 253" d="M127.749,82.729l.7-.469H125.57l.7.469q-.363.391-.725.737a8.148,8.148,0,0,0,1.42,1.731,8.063,8.063,0,0,0,1.453-1.786q-.341-.322-.67-.683Z" transform="translate(-120.203 -77.986)" fill="#c30d23"/>
        <path id="Path_254-2" data-name="Path 254" d="M103.22,64.41V77.262h13.525V64.41Zm10.906,11.526a17.278,17.278,0,0,1-4.156-2,17.255,17.255,0,0,1-4.145,2l-1.282-1.655a15.749,15.749,0,0,0,3.984-1.575,12.668,12.668,0,0,1-1.386-1.655q-.535.381-1.135.737l-1.341-1.408a12.431,12.431,0,0,0,2.576-1.7h-2.3V66.907h4.088V65.734h1.955v1.173h4.041v1.776h-2.224a12.4,12.4,0,0,0,2.576,1.7l-1.329,1.408q-.636-.381-1.206-.783a12.928,12.928,0,0,1-1.42,1.7,15.439,15.439,0,0,0,3.984,1.575l-1.3,1.655Z" transform="translate(-103.22 -64.41)" fill="#c30d23"/>
        <path id="Path_255-2" data-name="Path 255" d="M192.19,84.83v1.563a3.407,3.407,0,0,0,.319-1.563Z" transform="translate(-170.889 -79.941)" fill="#c30d23"/>
        <path id="Path_256" data-name="Path 256" d="M194.583,77.6H193.54q-.125.169-.25.323h1Q194.482,77.722,194.583,77.6Z" transform="translate(-171.725 -74.442)" fill="#c30d23"/>
        <path id="Path_257" data-name="Path 257" d="M203.408,85.8h.17v-.97h-.328v.736C203.25,85.723,203.3,85.8,203.408,85.8Z" transform="translate(-179.3 -79.941)" fill="#c30d23"/>
        <path id="Path_258" data-name="Path 258" d="M183.649,86.3h-1.566V83.877l-.34-.347v.436h-.783v.994c.25-.074.507-.161.771-.256v1.822l-.022.012h2.428c.007-.1.019-.242.034-.436l-.52-.255V86.3Z" transform="translate(-162.347 -78.952)" fill="#c30d23"/>
        <path id="Path_259" data-name="Path 259" d="M162.79,64.41V77.262h13.525V64.41Zm11.092,11.648a4.847,4.847,0,0,1-2.576-1.676,4.542,4.542,0,0,1-2.691,1.676L167.39,74.55a4.3,4.3,0,0,0,2.385-1.04h-1.918V72q-.283.111-.716.247v2.246a1.666,1.666,0,0,1-.319,1.173,1.289,1.289,0,0,1-.965.291H164.8l-.431-1.779h.51a.484.484,0,0,0,.335-.079.541.541,0,0,0,.074-.347v-1.04c-.34.067-.627.12-.862.156l-.319-1.844q.546-.067,1.18-.189V69.419h-.943v-1.81h.944V65.8h1.851v1.81h.783v.134a7.631,7.631,0,0,0,1.669-2.133l1.76.291q-.047.09-.136.28h2.339v1.027q-.284.391-.51.683h1.362v3.864h-1.6v-.314h-.5a.947.947,0,0,1-.658-.166.961.961,0,0,1-.2-.725V69.294h-.294a5.49,5.49,0,0,1-.352,2.179h1.341c-.007.12-.019.291-.034.515h2.7v1.52h-2.021A4.813,4.813,0,0,0,175,74.513l-1.113,1.542Z" transform="translate(-148.527 -64.41)" fill="#c30d23"/>
        <path id="Path_260" data-name="Path 260" d="M222.35,64.41V77.262h13.525V64.41Zm5.9,5.652v2.62c0,.349.1.572.307.67a2.152,2.152,0,0,0,.771.089q1.85,0,4.145-.113l.091,1.99q-2.133.122-4.291.122a4.779,4.779,0,0,1-2.306-.39,1.986,1.986,0,0,1-.783-1.853V70.216l-1.884.134-.136-2.045,2.021-.146V66.227h2.066v1.786l5.813-.4a25.719,25.719,0,0,1-1.747,4.961l-2.054-.491a13.407,13.407,0,0,0,1-2.234Z" transform="translate(-193.827 -64.41)" fill="#c30d23"/>
        <path id="Path_261" data-name="Path 261" d="M281.92,64.41V77.262h13.525V64.41Zm3.481,1.779a18.6,18.6,0,0,1,3.407,2.224l-1.384,1.6a16.8,16.8,0,0,0-3.327-2.179l1.3-1.642Zm.091,9.294-1.147-1.9a16.2,16.2,0,0,0,7.631-4.9l1.3,1.81a18.5,18.5,0,0,1-7.778,4.994Z" transform="translate(-239.135 -64.41)" fill="#c30d23"/>
        <path id="Path_262" data-name="Path 262" d="M341.49,64.41V77.262h13.525V64.41Zm9.431,8.1a11.853,11.853,0,0,1-4.417,3.261l-1.487-1.588a11.99,11.99,0,0,0,3.371-2.011,19.691,19.691,0,0,0-2.418-1.195l1.283-1.386a20.752,20.752,0,0,1,2.476,1.085,8.082,8.082,0,0,0,.9-1.81h-3.371a13.658,13.658,0,0,1-2.306,2.356l-1.693-1.152a14.232,14.232,0,0,0,3.532-4.178l2.112.469c-.136.247-.275.484-.421.716h4.77a11.523,11.523,0,0,1-2.329,5.43Z" transform="translate(-284.443 -64.41)" fill="#c30d23"/>
        <path id="Path_263" data-name="Path 263" d="M401.06,64.41V77.262h13.525V64.41Zm11.327,7.49h-9.129V69.771h9.129Z" transform="translate(-329.75 -64.41)" fill="#c30d23"/>
      </g>
    </g>
    <g id="Group_389" data-name="Group 389" transform="translate(17891 -4055)">
      <g id="Group_387" data-name="Group 387" transform="translate(-18525.5 5174.34)">
        <g id="Group_113" data-name="Group 113" transform="translate(316 5891.78)">
          <rect id="Rectangle_26" data-name="Rectangle 26" width="340" height="50" rx="25" transform="translate(336.5 2.88)" fill="#bb1c21"/>
          <path id="Path_253-3" data-name="Path 253" d="M8.96-11.928v8.946h1.666v-7.434h2.982v-1.512ZM20.062-.84V-3.57h4.746V-.84Zm2.464-8.19A10.972,10.972,0,0,1,20.58-6.468a19.742,19.742,0,0,0-2.226-1.848c.238-.238.462-.476.686-.714Zm4.018,3.948h-5a12.96,12.96,0,0,0,3.248-4.886l-1.148-.6-.28.084H20.188c.252-.364.49-.728.7-1.092l-1.876-.35a11.184,11.184,0,0,1-4.648,4.452,5.8,5.8,0,0,1,1.176,1.3,14.41,14.41,0,0,0,1.554-1.064,19.447,19.447,0,0,1,2.142,1.932,15.564,15.564,0,0,1-4.9,2.422A5.32,5.32,0,0,1,15.3-1.4a17.948,17.948,0,0,0,3.1-1.372V1.2h1.666V.658h4.746v.56h1.736Zm11.592,4.06H31.808V-3.766h6.328ZM41.37-7.854V-9.478H35.91v-2.38H34.09v2.38H28.644v1.624H34.09v2.506H30.058V1.218h1.75V.56h6.328v.6h1.82V-5.35H35.91v-2.5ZM51.618-5.74l-.6.364a7.572,7.572,0,0,1,.686.532c-.938.028-1.876.056-2.758.084.224-.308.462-.644.686-.98Zm1.288-4.13V-9h-7.28v-.87Zm-2,9.436V-1.4h3.36V-2.716H50.9v-.868l2.142-.084a7,7,0,0,1,.644.686l1.386-.854a15.11,15.11,0,0,0-2.212-1.9h2.1v-1.3H45.626v-.616h8.96v-3.556H43.96v4.046c0,2.226-.112,5.376-1.5,7.532a6.5,6.5,0,0,1,1.484.854C45.15-.658,45.514-3.458,45.6-5.74h2.184c-.2.35-.406.714-.6,1.036l-1.47.028.07,1.3c.994-.042,2.2-.084,3.514-.14v.8H46V-1.4h3.3v.966H45.052V.882H55.258V-.434ZM57-3.668A10.179,10.179,0,0,1,56.252-.42a8.229,8.229,0,0,1,1.274.6,12.944,12.944,0,0,0,.84-3.612Zm3.038.252a16.565,16.565,0,0,1,.812,2.6l1.232-.448a15.435,15.435,0,0,0-.868-2.52ZM59.74-6.874c.168.308.336.658.49,1.008l-1.344.056c.882-1.134,1.848-2.548,2.618-3.766l-1.358-.63A25.389,25.389,0,0,1,58.9-7.938c-.14-.168-.294-.364-.476-.56.5-.784,1.064-1.862,1.568-2.814l-1.442-.532a17.748,17.748,0,0,1-1.022,2.436c-.112-.1-.224-.2-.322-.28l-.8,1.134a13.738,13.738,0,0,1,1.652,1.9c-.224.322-.448.63-.658.9l-1.008.042.14,1.442,2.03-.126V1.232H60V-4.494l.714-.056a6.712,6.712,0,0,1,.182.714l1.176-.532A11.868,11.868,0,0,0,60.84-7.336Zm7.294,3.7v2.18h-3.08V-3.178ZM62.412,1.2h1.54V.462h3.08v.686h1.6v-5.8h-6.22Zm.994-8.6a16.229,16.229,0,0,0,1.946-2.59A19.524,19.524,0,0,0,67.41-7.4Zm1.106-4.27a13.469,13.469,0,0,1-3.528,4.18,7.664,7.664,0,0,1,.952,1.456,10.992,10.992,0,0,0,1.218-1.092V-5.88H67.76V-7.028a11.941,11.941,0,0,0,1.022.91A10.283,10.283,0,0,1,69.8-7.672a13.739,13.739,0,0,1-3.71-3.99ZM80.85-9.6H77.1v-.658h3.75Zm0,1.778H77.1v-.686h3.75Zm1.638-3.6H75.53v4.76h6.958Zm-7.98.966a10.433,10.433,0,0,0-2.422-1.358l-.938,1.26a9.714,9.714,0,0,1,2.394,1.47Zm-.756,3.682A9.166,9.166,0,0,0,71.33-8.05L70.43-6.8A9.772,9.772,0,0,1,72.786-5.39Zm9.772,2V-6.1H74.312v1.33H75.88a7.652,7.652,0,0,1-2.03,2.156l.336-.8-1.316-1A41.519,41.519,0,0,1,70.63.07l1.5.98c.532-1.036,1.092-2.226,1.61-3.4a8.658,8.658,0,0,1,1.036.868A9.775,9.775,0,0,0,76.2-2.828H77A9.066,9.066,0,0,1,74.27-.1,9.837,9.837,0,0,1,75.39.91a12.171,12.171,0,0,0,3.262-3.738h.812A7.893,7.893,0,0,1,77.084.364a8.839,8.839,0,0,1,1.2.868A10.3,10.3,0,0,0,81-2.828h.574A5.779,5.779,0,0,1,81.14-.336a.433.433,0,0,1-.406.154,8.45,8.45,0,0,1-.91-.042A3.342,3.342,0,0,1,80.2,1.218a8.124,8.124,0,0,0,1.386-.042,1.377,1.377,0,0,0,.9-.49c.364-.42.546-1.554.714-4.214.028-.182.042-.574.042-.574h-6.09q.21-.336.378-.672Zm9.45,4.2v-1.54H94.64v1.54Zm-4.06,0h-1.68v-1.54h1.68ZM88.76-8.568H87.066v-1.456H88.76Zm4.382-1.456H94.85v1.456H93.142Zm4.214,5V-6.482H91.224a7.249,7.249,0,0,0,.434-.8v.014h4.788v-4.06H91.658V-7.31l-1.316-.448v-3.57H85.554v4.06h4.2c-.168.266-.35.532-.546.784H84.686v1.456h3a12.243,12.243,0,0,1-3.472,1.75A6.067,6.067,0,0,1,85.19-2c.21-.07.406-.14.6-.224v3.47h1.442V.784h1.68v.448h1.5V-3.486H88.27a10.381,10.381,0,0,0,1.848-1.54h1.82a8.262,8.262,0,0,0,1.652,1.54H91.518V1.246h1.456V.784H94.64v.448h1.526V-2.156c.2.07.406.14.616.2a6.754,6.754,0,0,1,1.05-1.33,9.581,9.581,0,0,1-3.71-1.736Zm8.974-2.632a21.384,21.384,0,0,1,3.556,3.122l1.484-1.148a22.933,22.933,0,0,0-3.626-2.94h3.444v-1.624h-5.362V-11.87h-1.708v1.624H98.826v1.624h8.834Zm-4.158-.854A10.735,10.735,0,0,1,98.63-5.7a13.63,13.63,0,0,1,1.4,1.288,15.69,15.69,0,0,0,3.864-3.43Zm4.48,2.394a7.733,7.733,0,0,1-1.638,2.674,8.329,8.329,0,0,1-1.61-2.59l-1.6.476a12,12,0,0,0,1.932,3.22A13.863,13.863,0,0,1,98.462-.322a9.021,9.021,0,0,1,1.05,1.568,15.307,15.307,0,0,0,5.46-2.394,12.1,12.1,0,0,0,5.516,2.366,7.525,7.525,0,0,1,1.078-1.582,12.209,12.209,0,0,1-5.264-1.96A10.386,10.386,0,0,0,108.444-5.6ZM121.128-9.59a9.767,9.767,0,0,1-.532,1.008h-1.974a9.141,9.141,0,0,0,.812-1.008Zm2.366,3.318c-.028.084-.084.1-.238.1h-.546c-.2,0-.224-.028-.224-.266v-.84h1.008Zm-4.8-1.008h.868a1.784,1.784,0,0,1-.868,1.5Zm-2.016,1.288-1.134.322V-7.686h1.274v-.63a5.4,5.4,0,0,1,.49.49v3.878h1.386V-5.4a3.806,3.806,0,0,1,.448.63,2.721,2.721,0,0,0,1.6-2.506h.546v.84c0,1.008.224,1.316,1.246,1.316h.966v1.148h1.414v-4.61H122.22a17.393,17.393,0,0,0,.952-1.68l-1.05-.658-.238.056h-1.722c.126-.252.238-.518.35-.784l-1.54-.238A6.457,6.457,0,0,1,116.816-8.9v-.308h-1.274V-11.84H114.03v2.632h-1.47v1.526h1.47V-5.26c-.63.154-1.218.308-1.694.406l.364,1.6c.406-.112.868-.238,1.33-.378V-.546c0,.182-.07.238-.238.238a11.309,11.309,0,0,1-1.162-.014,6.193,6.193,0,0,1,.42,1.54A3.631,3.631,0,0,0,115,.91c.42-.266.546-.686.546-1.456V-4.088c.448-.126.9-.266,1.344-.406Zm8.68,3.85V-3.528h-3.71c.056-.364.084-.742.112-1.134h-1.512c-.028.406-.056.784-.112,1.134H116.7v1.386h3.038c-.49,1.022-1.5,1.68-3.668,2.1a4.642,4.642,0,0,1,.812,1.288c2.324-.518,3.528-1.358,4.158-2.576a4.888,4.888,0,0,0,3.612,2.506A4.9,4.9,0,0,1,125.58-.21a4.192,4.192,0,0,1-3.318-1.932Zm4.592.28c0,1.652.462,2.422,3.654,2.422a32.908,32.908,0,0,0,4.34-.308l.056-1.9a22.871,22.871,0,0,1-4.41.476c-1.54,0-1.792-.308-1.792-1.176v-3.71c1.988-.406,3.878-.77,4.312-.868a11.921,11.921,0,0,1-2.24,2.842l1.54.91a20.064,20.064,0,0,0,2.9-4.074c.126-.252.336-.574.462-.77l-1.344-1.036a3.947,3.947,0,0,1-.994.322c-.63.154-2.59.546-4.634.938V-9.45a14.714,14.714,0,0,1,.126-1.61H129.84a12.106,12.106,0,0,1,.112,1.61v2c-1.386.252-2.618.462-3.276.546l.336,1.834c.588-.14,1.694-.364,2.94-.616Zm13.426-8.778-1.316,1.4a29.109,29.109,0,0,1,3.5,3.024l1.428-1.456a28.275,28.275,0,0,0-3.614-2.968Zm-1.75,9.324L142.8.532a15.162,15.162,0,0,0,5.194-1.974,14.887,14.887,0,0,0,5.18-5.18L152.082-8.6a13.182,13.182,0,0,1-5.1,5.446,14.429,14.429,0,0,1-5.358,1.838Zm20.342-9.772-2.03-.63a5.8,5.8,0,0,1-.644,1.456A13,13,0,0,1,154.84-5.6l1.512,1.162a16.839,16.839,0,0,0,3.7-3.626h4a9.937,9.937,0,0,1-1.54,3.094c-.882-.588-1.764-1.162-2.506-1.582L158.76-5.278c.714.448,1.638,1.078,2.548,1.75A11.893,11.893,0,0,1,156.17-.49L157.794.924a13.173,13.173,0,0,0,5.012-3.318c.574.462,1.092.9,1.47,1.246l1.33-1.582c-.406-.336-.952-.742-1.554-1.176a16.031,16.031,0,0,0,2.072-4.032,6.588,6.588,0,0,1,.462-.994l-1.428-.882a4.445,4.445,0,0,1-1.218.154H161.1a15.075,15.075,0,0,1,.866-1.428Zm7.322,4.606v2.2c.518-.042,1.456-.07,2.254-.07h7.518c.588,0,1.3.056,1.638.07v-2.2c-.364.028-.98.084-1.638.084h-7.518c-.73,0-1.752-.042-2.256-.084Zm17.752,7.77V-7.658h-1.666V-.224h-2.982V1.288Zm9.478-5.46,1.708,1.75c.238-.364.56-.868.882-1.33.6-.8,1.6-2.184,2.156-2.884.406-.518.672-.588,1.162-.042.658.742,1.708,2.072,2.576,3.108a43.148,43.148,0,0,0,3.08,3.346l1.442-1.68c-1.33-1.19-2.52-2.45-3.416-3.43-.826-.9-1.946-2.338-2.9-3.262-1.022-.994-1.932-.9-2.912.21-.868,1.008-1.946,2.45-2.59,3.122a9.371,9.371,0,0,1-1.19,1.092Z" transform="translate(398.5 33.88)" fill="#fff"/>
          <g id="Group_111" data-name="Group 111" transform="translate(637.974 22.708)">
            <line id="Line_40" data-name="Line 40" x2="13.051" transform="translate(5 5.516)" fill="none" stroke="#fff" stroke-width="2"/>
            <path id="Path_26" data-name="Path 26" d="M-13677.4-2246.88l5.518,5.516-5.518,5.516" transform="translate(13689.98 2246.876)" fill="none" stroke="#fff" stroke-width="2"/>
          </g>
        </g>
      </g>
      <g id="Group_388" data-name="Group 388" transform="translate(-18048 11034.781)">
        <path id="Union_3" data-name="Union 3" d="M90.529,28.725H14.363A14.363,14.363,0,1,1,14.363,0L174.636,0a14.364,14.364,0,1,1,0,28.727H98.471L94.5,34Z" transform="translate(251 17.22)" fill="#fff"/>
        <path id="Path_255-3" data-name="Path 255" d="M-75.888-3.66A32.751,32.751,0,0,1-77.436.192l1.284.72a39.108,39.108,0,0,0,1.416-3.84Zm.948-2.16a7.181,7.181,0,0,0-1.884-1.068l-.78,1.044a7.813,7.813,0,0,1,1.836,1.176Zm2.424,3.288v-.54h2.28V-4.188l.024.036a6.344,6.344,0,0,0,.372-.636A15.907,15.907,0,0,0-69.156-2.2a5.954,5.954,0,0,1-1.62,2.1,18.266,18.266,0,0,0,.144-1.992c.012-.144.024-.444.024-.444Zm.624-2.436h.984c.228.24.5.552.648.744h-1.632Zm-1.452-1.584h1.608v.6h-1.608Zm0-1.488h1.608v.564h-1.608Zm5.22,1.332a18.565,18.565,0,0,1-.456,2.844,19.119,19.119,0,0,1-.552-2.688l.048-.156Zm1.752,0V-7.992h-2.376c.144-.636.264-1.308.36-1.968l-1.32-.2a15.921,15.921,0,0,1-.828,3.7V-9.024h-1.428c.12-.312.24-.66.348-1.008l-1.5-.132a10.056,10.056,0,0,1-.228,1.14h-1.14v.1a8.146,8.146,0,0,0-1.86-1.128l-.816,1.044a7.5,7.5,0,0,1,1.848,1.236l.828-1.128v3.936h1.26v.744h-1.632v1.152H-73.7v.288A3.513,3.513,0,0,1-75.36.324a7.021,7.021,0,0,1,.936.816A4.072,4.072,0,0,0-72.66-1.4h.768a2.9,2.9,0,0,1-.18,1.188.345.345,0,0,1-.3.108A6.49,6.49,0,0,1-73.1-.144,2.981,2.981,0,0,1-72.792.972a5.092,5.092,0,0,0,1.1-.036A.968.968,0,0,0-71,.576a.654.654,0,0,0,.12-.2,7.1,7.1,0,0,1,.732.7A7.014,7.014,0,0,0-68.52-.768a6.038,6.038,0,0,0,1.428,1.8,5.326,5.326,0,0,1,.864-1.116,5.56,5.56,0,0,1-1.644-1.992,17.677,17.677,0,0,0,1.008-4.632Zm2.748-1.068H-56.4v1.5h1.524V-9.1h-4.4v-1.068h-1.512V-9.1h-4.284v2.82h1.452Zm5.316,3.408a4.761,4.761,0,0,1-1.26,2.22c-.792-.288-1.572-.552-2.3-.756.252-.468.516-.96.768-1.464Zm3.648,0V-5.712h-5.772c.252-.5.492-1,.708-1.464l-1.5-.312c-.24.552-.528,1.164-.84,1.776h-3.264v1.344h2.58c-.516.972-1.02,1.884-1.452,2.58l1.488.408.228-.4c.5.168,1.02.36,1.548.552a12.579,12.579,0,0,1-4.128.972,5.827,5.827,0,0,1,.816,1.3,11.717,11.717,0,0,0,4.92-1.608A20.609,20.609,0,0,1-56.28,1.02l1.14-1.164a22.055,22.055,0,0,0-3-1.452,7.282,7.282,0,0,0,1.488-2.772Zm3.444-5.772a12.458,12.458,0,0,1-2.6,4.356,10.862,10.862,0,0,1,.732,1.44,9.311,9.311,0,0,0,.732-.888V1.032h1.344v-8.4a20.828,20.828,0,0,0,1.08-2.364Zm5.208,3.924H-46.8v-1.5h.792Zm2,5.088h-.8V-4.98h.8ZM-48.756-4.98h.744v3.852h-.744Zm2.748,0v3.852h-.8V-4.98Zm3.432-2.736V-8.988H-50.2v1.272h2.052v1.5h-1.932v7h1.32V.1H-44V.708h1.368V-6.216h-2.028v-1.5Zm7.32,4.284a9.3,9.3,0,0,0,1.38-.984,8.944,8.944,0,0,0,1.44.984ZM-35.184-.6V-2.232h2.508V-.6Zm-1.9-3.8c-.2-.276-1.1-1.344-1.428-1.692v-.288h1.02a10.21,10.21,0,0,1,.864.78,8.193,8.193,0,0,0,.888-.924,11.347,11.347,0,0,0,.9,1.176A9.218,9.218,0,0,1-37.488-3.84ZM-32.9-7.692a7.272,7.272,0,0,1-1.02,1.464,7.447,7.447,0,0,1-1.032-1.344l.084-.12Zm.9-1.26-.24.048h-1.932q.216-.45.4-.9l-1.356-.372a8.828,8.828,0,0,1-2.028,3.12V-7.7h-1.344v-2.46h-1.344V-7.7h-1.572v1.32h1.464a11.7,11.7,0,0,1-1.752,4.032,7.314,7.314,0,0,1,.66,1.3,9.59,9.59,0,0,0,1.2-2.46V1.032h1.344V-4.5a13.1,13.1,0,0,1,.66,1.164l.108-.156a5.729,5.729,0,0,1,.612.948,6.583,6.583,0,0,0,.612-.252v3.84h1.332V.624h2.508v.384h1.38V-2.9l.216.084a5.57,5.57,0,0,1,.864-1.188A7.959,7.959,0,0,1-32.928-5.34,8.89,8.89,0,0,0-31.1-8.532Zm13.128,4.728A4.57,4.57,0,0,0-23.724-8.9a5.332,5.332,0,0,0-5.508,5.136c0,2.028,1.1,3.492,2.436,3.492,1.308,0,2.34-1.488,3.06-3.912a24.268,24.268,0,0,0,.72-3.252A2.967,2.967,0,0,1-20.5-4.272a3.256,3.256,0,0,1-2.736,3.216,9.229,9.229,0,0,1-1.116.192l.9,1.428C-20.424.1-18.876-1.692-18.876-4.224Zm-8.82.3A3.777,3.777,0,0,1-24.648-7.4a18.012,18.012,0,0,1-.636,2.9c-.492,1.62-.96,2.376-1.464,2.376C-27.216-2.124-27.7-2.712-27.7-3.924Zm19.7-4.212-.984-.732a4.3,4.3,0,0,1-1.236.156h-4.236A13.407,13.407,0,0,1-15.864-8.8v1.7c.252-.012.912-.084,1.416-.084h4.068a9.3,9.3,0,0,1-1.788,2.94,13.452,13.452,0,0,1-4.92,3.444L-15.852.5A15.807,15.807,0,0,0-11.34-2.868,27.365,27.365,0,0,1-8.316.528L-6.948-.66A33.735,33.735,0,0,0-10.3-4.092a17.643,17.643,0,0,0,1.884-3.3A5.67,5.67,0,0,1-7.992-8.136ZM3.288-8.52a.694.694,0,0,1,.684-.7.7.7,0,0,1,.7.7.7.7,0,0,1-.7.7A.694.694,0,0,1,3.288-8.52Zm-.744,0a1.461,1.461,0,0,0,.348.948A7.142,7.142,0,0,1,1.74-7.02,30.263,30.263,0,0,1-2.412-5.688V-7.956a9.015,9.015,0,0,1,.1-1.248H-4.092A9.929,9.929,0,0,1-4-7.956v6.54A1.731,1.731,0,0,0-2.352.384,13.358,13.358,0,0,0-.336.516,34.1,34.1,0,0,0,3.936.264V-1.488a20.329,20.329,0,0,1-4.176.42A11.223,11.223,0,0,1-1.632-1.14c-.54-.108-.78-.24-.78-.756v-2.22a41.421,41.421,0,0,0,4.7-1.464c.4-.144.936-.372,1.4-.564L3.2-7.308a1.378,1.378,0,0,0,.768.228,1.444,1.444,0,0,0,1.44-1.44,1.444,1.444,0,0,0-1.44-1.44A1.434,1.434,0,0,0,2.544-8.52ZM7.1-5.556v1.884c.444-.036,1.248-.06,1.932-.06H15.48c.5,0,1.116.048,1.4.06V-5.556c-.312.024-.84.072-1.4.072H9.036C8.412-5.484,7.536-5.52,7.1-5.556Zm19.08-3.372-1.008.42a10.28,10.28,0,0,1,1.056,1.86l1.044-.468C27-7.656,26.52-8.424,26.184-8.928Zm1.572-.66-1,.468a11.236,11.236,0,0,1,1.116,1.8l1.008-.492A15.892,15.892,0,0,0,27.756-9.588ZM21.4-.972A12.994,12.994,0,0,1,21.276.7H23.16C23.1.2,23.04-.636,23.04-.972v-3.4A32.147,32.147,0,0,1,27.384-2.58l.672-1.668A41.747,41.747,0,0,0,23.04-6.12V-7.872a13.05,13.05,0,0,1,.108-1.452H21.276a8.468,8.468,0,0,1,.12,1.452ZM37.14-6.564a18.329,18.329,0,0,1,3.048,2.676l1.272-.984a19.656,19.656,0,0,0-3.108-2.52H41.3V-8.784h-4.6v-1.392H35.244v1.392H30.708v1.392H38.28ZM33.576-7.3A9.2,9.2,0,0,1,30.54-4.884a11.683,11.683,0,0,1,1.2,1.1,13.449,13.449,0,0,0,3.312-2.94Zm3.84,2.052a6.628,6.628,0,0,1-1.4,2.292,7.139,7.139,0,0,1-1.38-2.22l-1.368.408A10.287,10.287,0,0,0,34.92-2,11.882,11.882,0,0,1,30.4-.276a7.731,7.731,0,0,1,.9,1.344,13.121,13.121,0,0,0,4.68-2.052A10.371,10.371,0,0,0,40.7,1.044a6.45,6.45,0,0,1,.924-1.356,10.465,10.465,0,0,1-4.512-1.68A8.9,8.9,0,0,0,38.952-4.8ZM49.824-8.22a8.371,8.371,0,0,1-.456.864H47.676a7.834,7.834,0,0,0,.7-.864Zm2.028,2.844c-.024.072-.072.084-.2.084H51.18c-.168,0-.192-.024-.192-.228v-.72h.864ZM47.736-6.24h.744a1.529,1.529,0,0,1-.744,1.284Zm-1.728,1.1-.972.276V-6.588h1.092v-.54a4.624,4.624,0,0,1,.42.42v3.324h1.188V-4.632a3.262,3.262,0,0,1,.384.54A2.332,2.332,0,0,0,49.488-6.24h.468v.72c0,.864.192,1.128,1.068,1.128h.828v.984h1.212V-7.356h-2.3a14.908,14.908,0,0,0,.816-1.44l-.9-.564-.2.048H49c.108-.216.2-.444.3-.672l-1.32-.2a5.535,5.535,0,0,1-1.848,2.556V-7.9H45.036v-2.256h-1.3V-7.9H42.48v1.308h1.26v2.076c-.54.132-1.044.264-1.452.348L42.6-2.8c.348-.1.744-.2,1.14-.324V-.468c0,.156-.06.2-.2.2a9.7,9.7,0,0,1-1-.012,5.308,5.308,0,0,1,.36,1.32A3.112,3.112,0,0,0,44.568.78c.36-.228.468-.588.468-1.248V-3.5c.384-.108.768-.228,1.152-.348Zm7.44,3.3V-3.024h-3.18c.048-.312.072-.636.1-.972h-1.3c-.024.348-.048.672-.1.972h-2.94v1.188h2.6c-.42.876-1.284,1.44-3.144,1.8a3.978,3.978,0,0,1,.7,1.1C48.18.624,49.212-.1,49.752-1.14a4.19,4.19,0,0,0,3.1,2.148A4.2,4.2,0,0,1,53.64-.18,3.593,3.593,0,0,1,50.8-1.836ZM59.664-9.66l-1.656-.168a10.091,10.091,0,0,1-.324,2c-.372.036-.732.048-1.092.048A15.16,15.16,0,0,1,55-7.86L55.1-6.468c.516.036,1.008.048,1.5.048.2,0,.408,0,.624-.012A18.906,18.906,0,0,1,54.78-2.2l1.452.744A22.111,22.111,0,0,0,58.8-6.588a20.818,20.818,0,0,0,2.1-.42L60.852-8.4a14.711,14.711,0,0,1-1.62.384C59.412-8.664,59.568-9.276,59.664-9.66Zm-.624,8.3c0-.42.444-.732,1.14-.732a4.311,4.311,0,0,1,.972.12v.24c0,.66-.252,1.116-1.08,1.116C59.412-.612,59.04-.912,59.04-1.356Zm3.432-4.572h-1.5c.024.732.084,1.8.132,2.688-.276-.024-.54-.048-.828-.048-1.668,0-2.652.9-2.652,2.076,0,1.32,1.176,1.98,2.664,1.98,1.7,0,2.316-.864,2.316-1.98v-.12a10.173,10.173,0,0,1,1.62,1.284l.8-1.284a7.847,7.847,0,0,0-2.484-1.536c-.024-.6-.06-1.176-.072-1.524C62.46-4.92,62.436-5.424,62.472-5.928Zm2.064.636.852-1.26a20.67,20.67,0,0,0-2.964-1.632L61.656-7A17.32,17.32,0,0,1,64.536-5.292ZM70.008-9.66l-.384,1.44c.936.24,3.612.8,4.824.96l.36-1.464A36.729,36.729,0,0,1,70.008-9.66Zm.072,2.412-1.608-.228a44.271,44.271,0,0,1-.6,5.016l1.38.348a2.908,2.908,0,0,1,.444-.7,4.272,4.272,0,0,1,3.336-1.416c1.044,0,1.788.576,1.788,1.356,0,1.524-1.908,2.4-5.508,1.908L69.768.612c4.992.42,6.72-1.26,6.72-3.444,0-1.452-1.224-2.748-3.324-2.748a5.874,5.874,0,0,0-3.54,1.14C69.708-5.124,69.924-6.588,70.08-7.248Z" transform="translate(345 36.219)" fill="#bb1c21"/>
      </g>
    </g>
    <rect id="Rectangle_168" data-name="Rectangle 168" width="340" height="362" transform="translate(18 6702)" fill="none"/>
  </g>
</svg>
