<svg xmlns="http://www.w3.org/2000/svg" width="351.432" height="181.872" viewBox="0 0 351.432 181.872">
  <g id="Group_400" data-name="Group 400" transform="translate(21869 -9148.802)">
    <g id="Group_382" data-name="Group 382" transform="translate(-71.473 12.674)">
      <path id="Path_263" data-name="Path 263" d="M-14.9-11.368h-1.932a11.267,11.267,0,0,1,.1,1.232c0,.238,0,.644-.014,1.134-.28.014-.56.028-.812.028a15.524,15.524,0,0,1-1.932-.112l.028,1.694a17.164,17.164,0,0,0,1.96.07c.224,0,.476-.014.742-.028v1.176c0,.322,0,.658.014.994-1.722.742-3.122,2.016-3.122,3.234,0,1.484,1.918,2.66,3.276,2.66.924,0,1.54-.462,1.54-2.2,0-.476-.028-1.568-.056-2.674a9.439,9.439,0,0,1,2.632-.392c1.218,0,2.058.56,2.058,1.512,0,1.022-.9,1.582-2.03,1.792a10.78,10.78,0,0,1-1.722.1l.644,1.806A12.818,12.818,0,0,0-11.69.434C-9.464-.126-8.6-1.372-8.6-3.024c0-1.932-1.694-3.052-3.85-3.052a11.6,11.6,0,0,0-2.688.364V-6.23c0-.406,0-.84.014-1.26.91-.112,1.876-.252,2.674-.434l-.042-1.736a17.146,17.146,0,0,1-2.576.5c.014-.35.028-.686.042-.994C-14.994-10.514-14.938-11.116-14.9-11.368Zm3.99,1.512-.77,1.358A22.275,22.275,0,0,1-8.3-6.454l.84-1.428A29.255,29.255,0,0,0-10.906-9.856Zm-7.238,7.84c0-.49.574-1.064,1.428-1.526.028.756.042,1.4.042,1.75,0,.476-.2.588-.448.588C-17.486-1.2-18.144-1.582-18.144-2.016ZM-2.226-3.15A16.688,16.688,0,0,0-.07-4.088a15.205,15.205,0,0,0,2.394.938ZM-2.31-.588v-1.19H2.352v1.19Zm.672-6.468H1.47a8.05,8.05,0,0,1-1.54,1.2A8.1,8.1,0,0,1-1.708-7ZM2.884-8.372,2.6-8.3H-.448c.154-.2.308-.392.448-.588L-1.554-9.2H4.3v1.554H6.006V-10.71H.812v-1.134H-.9v1.134h-5.11v3.066h1.638V-9.2h2.576A8.138,8.138,0,0,1-5.726-6.384,4.658,4.658,0,0,1-4.62-5.152,13.955,13.955,0,0,0-2.912-6.09a11.384,11.384,0,0,0,1.26,1.05A19.912,19.912,0,0,1-6.566-3.654,5.531,5.531,0,0,1-5.8-2.17c.63-.126,1.246-.266,1.862-.434V1.218H-2.31V.784H2.352V1.19H4.074V-2.7c.462.084.938.168,1.428.238a8.161,8.161,0,0,1,1.05-1.61A21.361,21.361,0,0,1,1.6-5.124,8.955,8.955,0,0,0,4-7.7Zm9.6,3.99C12.25-4.76,11.242-6.3,10.864-6.818v-.616h1.4v-1.54h-1.4v-2.884H9.352v2.884H7.672v1.54H9.226A14,14,0,0,1,7.35-2.744a7.988,7.988,0,0,1,.728,1.47A11.81,11.81,0,0,0,9.352-4.032V1.2h1.512V-4.83c.308.6.6,1.232.77,1.638Zm2.534,1.736C13.832-2.03,12.6-1.4,11.774-1.022l.714,1.4c.9-.49,1.988-1.106,2.968-1.68Zm-2.45-1.526A9.814,9.814,0,0,1,13.9-2.38l1.19-.84a9.59,9.59,0,0,0-1.386-1.694Zm6.566-.784A11.02,11.02,0,0,1,17.78-3.444a7.6,7.6,0,0,1-.574-1.232v-.546h3.262V-6.58H17.206V-7.2h2.716V-8.442H17.206V-9h3.01v-1.3H18.858c.224-.35.476-.77.728-1.19l-1.652-.378c-.14.448-.42,1.092-.63,1.568H15.568a7.744,7.744,0,0,0-.8-1.54l-1.316.448A7.947,7.947,0,0,1,14-10.3H12.572V-9H15.6v.56H12.95V-7.2H15.6v.616h-3.29v1.358H15.6V-.448c0,.168-.056.238-.224.238s-.714,0-1.19-.028a5.179,5.179,0,0,1,.448,1.484,4.566,4.566,0,0,0,1.988-.28c.448-.252.588-.644.588-1.4V-1.89A6.64,6.64,0,0,0,19.684.574,6.2,6.2,0,0,1,20.734-.77,5.851,5.851,0,0,1,18.55-2.352,22.535,22.535,0,0,0,20.4-4.074Z" transform="translate(-21488.811 9148)" fill="#fff"/>
      <g id="Group_224" data-name="Group 224" transform="translate(-22983.811 3860)">
        <rect id="Rectangle_111" data-name="Rectangle 111" width="70" height="70" transform="translate(1460 5388)" fill="#fff"/>
        <path id="Path_262" data-name="Path 262" d="M-16.848-10.672V-9.12h-1.2a9.643,9.643,0,0,1-1.488-.08c.048.528.064,1.008.064,1.632V-.416c0,.576-.032,1.264-.08,1.824H-17.2V.7h5.936v.7h2.416c-.064-.656-.1-1.344-.1-2.24V-7.568A12.352,12.352,0,0,1-8.864-9.2a13.635,13.635,0,0,1-1.52.08h-1.232v-1.552h1.008c.864,0,1.632.032,2.112.08v-2.416a18.347,18.347,0,0,1-2.208.1h-6.32c-.752,0-1.616-.032-1.92-.064a.547.547,0,0,0-.176-.032l-2.08-.832a10.165,10.165,0,0,1-.56,2.144,10.039,10.039,0,0,1-2.128,3.648,17.063,17.063,0,0,1,.752,2.928c.208-.272.528-.72.7-.992-.016.944-.016,1.472-.016,1.568V-.368a17.185,17.185,0,0,1-.1,1.824h2.464a15.723,15.723,0,0,1-.064-1.84V-9.408a19.7,19.7,0,0,0,1.008-2.48v1.3c.512-.048,1.248-.08,2.112-.08Zm.32,3.728v5.456h-.784V-6.944Zm1.92,5.456V-6.944h.752v5.456Zm0-7.632v-1.552h.752V-9.12Zm2.672,7.632V-6.944h.784v5.456ZM-1.6-4.192v4.08a10.536,10.536,0,0,1-.08,1.568h2.5v-.7H3.984V1.44H6.512a10.853,10.853,0,0,1-.08-1.616V-4.3c.24.08.256.08.528.176a12.542,12.542,0,0,1,.9-2.464A15.325,15.325,0,0,1,4.336-7.84a14.935,14.935,0,0,0,1.92-2.592,8.359,8.359,0,0,1,.5-.768L5.44-12.64a7.027,7.027,0,0,1-1.3.08H2.24q.264-.648.336-.816L.048-13.728A7.2,7.2,0,0,1-2.1-10.08v-.88a3.917,3.917,0,0,1-.816.064h-.224v-1.04a11.8,11.8,0,0,1,.1-1.664H-5.584a11.64,11.64,0,0,1,.1,1.664v1.04H-6a7.143,7.143,0,0,1-1.232-.08v2.368a6.934,6.934,0,0,1,1.216-.08h.384A11.23,11.23,0,0,1-7.616-4.3,9.76,9.76,0,0,1-6.576-1.76,7.926,7.926,0,0,0-5.424-4.208c-.016.256-.032.768-.048,1.552v2.08a19.244,19.244,0,0,1-.1,2.064H-3.04a18.828,18.828,0,0,1-.1-2.064V-3.84c0-.416-.016-1.248-.048-1.616A12.148,12.148,0,0,0-2.56-4.272a7.272,7.272,0,0,1,.352-.912,7.988,7.988,0,0,1,.288,1.12Zm-1.28-4.5a3.785,3.785,0,0,1,.784.064,9.155,9.155,0,0,1,.816.944,10.452,10.452,0,0,0,.976-.9,11.571,11.571,0,0,0,.832.88A14.709,14.709,0,0,1-1.76-6.624,6.458,6.458,0,0,1-3.1-8.688Zm3.3,3.664a11.762,11.762,0,0,0,2-1.184A14.081,14.081,0,0,0,4.592-5.024Zm.736-5.44H3.568a6.426,6.426,0,0,1-1.216,1.44,6.606,6.606,0,0,1-1.3-1.3ZM.816-2.848H3.984v1.392H.816ZM17.7-11.824A9.455,9.455,0,0,1,19.12-9.7l1.6-.736a9.9,9.9,0,0,0-1.424-2.1Zm2.08-.88a10.73,10.73,0,0,1,1.392,2.08l1.552-.752a9.139,9.139,0,0,0-1.408-2.016Zm-.864,3.568a10.589,10.589,0,0,1,1.2,2.368,18.079,18.079,0,0,1,1.024,3.552L23.76-4.464a16.785,16.785,0,0,0-2.5-5.76ZM8.864-6.912a19.291,19.291,0,0,1,2.5-.464A24.361,24.361,0,0,1,8.352-.288L10.992,1.1c.1-.24.128-.32.256-.592a35.6,35.6,0,0,0,1.7-4.112A33.332,33.332,0,0,0,14.08-7.584a5.809,5.809,0,0,1,.64-.032c.56,0,.784.064.96.272a1.857,1.857,0,0,1,.3,1.28,14.038,14.038,0,0,1-.432,3.552c-.176.512-.384.72-.72.72a6.907,6.907,0,0,1-2.192-.576,7.6,7.6,0,0,1,.24,1.92,7.264,7.264,0,0,1-.048.928A9.033,9.033,0,0,0,15.376.9,3.056,3.056,0,0,0,16.624.672a2.646,2.646,0,0,0,1.024-.944,12.581,12.581,0,0,0,1.008-5.68c0-1.808-.32-2.784-1.136-3.44a3.525,3.525,0,0,0-2.272-.64A5.308,5.308,0,0,0,14.56-10c.064-.384.176-.992.3-1.728a7.943,7.943,0,0,1,.256-1.248l-2.9-.272v.272a25.046,25.046,0,0,1-.368,3.152c-1.04.144-2.576.272-3.088.272a.551.551,0,0,1-.144-.016ZM-8.32,18.256a14.518,14.518,0,0,1,1.888.08V15.968a15.292,15.292,0,0,1-1.888.064h-5.568c.288-.608.384-.784.784-1.6l-2.656-.352a12.483,12.483,0,0,1-.864,1.952h-2.64a16.7,16.7,0,0,1-1.9-.064v2.368a14.493,14.493,0,0,1,1.9-.08h1.344a24.257,24.257,0,0,1-1.76,2.4c1.984.56,2.848.832,4.08,1.3a16.128,16.128,0,0,1-5.552,1.216,7.317,7.317,0,0,1,1.12,2.352,21.416,21.416,0,0,0,4.576-1.168,11.519,11.519,0,0,0,2.544-1.3,32.2,32.2,0,0,1,4.464,2.48l1.856-2.016a39.416,39.416,0,0,0-4.4-2.128,9.094,9.094,0,0,0,1.808-3.136Zm-3.5,0a6.258,6.258,0,0,1-1.488,2.208c-1.184-.432-1.536-.544-2.672-.864.448-.64.576-.832.88-1.344ZM-15.2,11.664h-3.856c-.944,0-1.408-.016-1.952-.064a11.247,11.247,0,0,1,.064,1.248v1.44a6.669,6.669,0,0,1-.08,1.248h2.448V13.888H-9.04v1.648h2.432a9.368,9.368,0,0,1-.08-1.232V12.848A10.868,10.868,0,0,1-6.624,11.6c-.528.048-1.024.064-1.952.064h-4.08V11.5a9.966,9.966,0,0,1,.064-1.088h-2.672a7.462,7.462,0,0,1,.064,1.1Zm10.656.208a11.23,11.23,0,0,1,.064,1.136c.032,2.224.1,3.568.176,4.688.208,2.544.64,4.144,1.472,5.328A2.741,2.741,0,0,0-.544,24.4a2.815,2.815,0,0,0,2.432-1.632A13.506,13.506,0,0,0,3.1,19.68,10.122,10.122,0,0,1,.88,17.664a16.255,16.255,0,0,1-.832,2.768c-.16.416-.336.624-.512.624-.672,0-1.184-2.7-1.184-6.288a19.956,19.956,0,0,1,.176-2.9Zm8.016,1.7a15.922,15.922,0,0,1,3.264,9.248L9.6,21.76a16.914,16.914,0,0,0-3.7-9.312Zm10.944,6.816a6.991,6.991,0,0,1-.032-.7c0-.256.016-.624.048-1.264l.32-5.072c.064-.864.112-1.536.192-2.16H11.216c.064.5.144,1.36.192,2.16l.32,5.072c.064.96.064.96.064,1.136a7.233,7.233,0,0,1-.032.832ZM14.7,24.5V21.472H11.488V24.5Zm5.52-4.112a6.991,6.991,0,0,1-.032-.7c0-.256.016-.624.048-1.264l.32-5.072c.064-.864.112-1.536.192-2.16H17.024c.064.5.144,1.36.192,2.16l.32,5.072c.064.96.064.96.064,1.136a7.233,7.233,0,0,1-.032.832Zm.288,4.112V21.472H17.3V24.5Z" transform="translate(1495 5418)" fill="#bb1c21"/>
      </g>
      <g id="b" transform="translate(-21531.809 9157.851)">
        <g id="c" transform="translate(-0.001 -0.002)">
          <g id="Group_211" data-name="Group 211">
            <path id="Path_70" data-name="Path 70" d="M289.4,182.2l1.013-2.606s-.073-2.182-.311-3.836-.714-3.247,0-3.969a10.189,10.189,0,0,1,2.03-1.418s3.951-4.827,4.5-5.222,1.536-.5.916.693-2.2,3.637-2.2,3.637a2.757,2.757,0,0,1,1.865.364,18.51,18.51,0,0,1,1.939,1.947c.33.235.293,1.426.073,2.085a3.13,3.13,0,0,1-.842,1.19s.623.3-.806,2.117-3.548,2.572-3.731,2.9-2.067,2.87-2.067,2.87L289.4,182.2Z" transform="translate(-213.683 -121.738)" fill="#f9ddd0"/>
            <path id="Path_71" data-name="Path 71" d="M17.358,274.74a19.174,19.174,0,0,1-2.465,2.8,6.3,6.3,0,0,1-2.2,1.421,21.769,21.769,0,0,1-5.377,1.057c-1.646.065-5.34.5-6.073.563s-1.865.4-.842,1.256,1.829,1.455,4.9,1.455,5.047.3,5.6.3.659.3.659,1.091a3.267,3.267,0,0,1-.586,1.85c-.293.429,0,1.52.733.662a33.868,33.868,0,0,0,2.6-3.5,19.488,19.488,0,0,0,1.06-2.017c.586-1.256.037-.165.037-.165s2.54-2.724,4.223-4.542l-2.271-2.229Z" transform="translate(0.001 -202.858)" fill="#f9ddd0"/>
            <path id="Path_72" data-name="Path 72" d="M144.218,137.936c-1.769-.481-1.5-1.18-1.85-3.215a7.441,7.441,0,0,1,0-3.161l-3.281.474-3.281-.474a7.441,7.441,0,0,1,0,3.161c-.348,2.036-.081,2.731-1.85,3.215s-5.036,1.554-5.036,1.554l.476,6.216h19.379l.476-6.216s-3.268-1.073-5.036-1.554Z" transform="translate(-95.19 -97.139)" fill="#fadfd3"/>
            <path id="Path_73" data-name="Path 73" d="M122.921,34.2h2.52s-.207,1.821,2.148,3.752,4.83,1.769,6.245.7,1.224-4.074.139-5.413a13.1,13.1,0,0,0-3.817-2.572s5.84-4.126,6.645-11.36S134.282,3.285,125.6.687A16.35,16.35,0,0,0,110.7,3.68a14.893,14.893,0,0,0-6.156,9.68c-1.18,6.645-.589,7.127,1.661,11.789s12.7,9.055,12.7,9.055h4.019Z" transform="translate(-76.753 0.002)" fill="#e46666"/>
            <g id="Group_209" data-name="Group 209" transform="translate(28.432 20.173)">
              <path id="Path_74" data-name="Path 74" d="M216.378,80.127a3.411,3.411,0,0,1-2.391,2.2c-.931-.05-1.238-1.559-.89-2.993s1.363-2.42,2.268-2.2C216.584,77.432,216.867,78.735,216.378,80.127Z" transform="translate(-185.672 -77.103)" fill="#f9dacd"/>
              <path id="Path_75" data-name="Path 75" d="M108.9,80.127a3.411,3.411,0,0,0,2.391,2.2c.931-.05,1.238-1.559.89-2.993s-1.363-2.42-2.268-2.2C108.691,77.432,108.408,78.735,108.9,80.127Z" transform="translate(-108.67 -77.103)" fill="#f9dacd"/>
            </g>
            <path id="Path_76" data-name="Path 76" d="M143.186,23.246c0,10.745-6.295,19.455-13.5,19.455s-13.5-8.71-13.5-19.455,6.046-13.016,13.5-13.016,13.5,2.271,13.5,13.016Z" transform="translate(-85.783 -7.553)" fill="#f9dacd"/>
            <ellipse id="Ellipse_21" data-name="Ellipse 21" cx="1.018" cy="1.3" rx="1.018" ry="1.3" transform="translate(38.157 19.605)" fill="#333"/>
            <path id="Path_77" data-name="Path 77" d="M142.36,76.67a6.8,6.8,0,0,0,1.688.845" transform="translate(-105.114 -56.61)" fill="#fff" stroke="#333" stroke-linecap="round" stroke-miterlimit="10" stroke-width="1"/>
            <ellipse id="Ellipse_22" data-name="Ellipse 22" cx="1.018" cy="1.3" rx="1.018" ry="1.3" transform="translate(47.887 19.605)" fill="#333"/>
            <path id="Path_78" data-name="Path 78" d="M189.528,76.67a6.8,6.8,0,0,1-1.688.845" transform="translate(-138.694 -56.61)" fill="#fff" stroke="#333" stroke-linecap="round" stroke-miterlimit="10" stroke-width="1"/>
            <path id="Path_79" data-name="Path 79" d="M132.12,62.464s1.85-2.52,6.028-1.606" transform="translate(-97.553 -44.787)" fill="none" stroke="#333" stroke-linecap="round" stroke-miterlimit="10" stroke-width="1"/>
            <path id="Path_80" data-name="Path 80" d="M165.2,89.57s-1.957,1.1,0,1.795" transform="translate(-121.332 -66.135)" fill="none" stroke="#333" stroke-linecap="round" stroke-miterlimit="10" stroke-width="1"/>
            <path id="Path_81" data-name="Path 81" d="M155.87,106.63s3.349,3.215,6.617.16" transform="translate(-115.089 -78.732)" fill="none" stroke="#333" stroke-linecap="round" stroke-miterlimit="10" stroke-width="1"/>
            <path id="Path_82" data-name="Path 82" d="M117.649,13.088s-1.554,8.2-6.161,10.235a31.677,31.677,0,0,1,0-8.681c.7-4.126,3.966-9.539,15.219-9.11s14.335,8.092,13.984,13.5-.8,5.235-.8,5.235S121.4,20,117.649,13.088Z" transform="translate(-82.09 -4.067)" fill="#e46666"/>
            <g id="Group_210" data-name="Group 210" transform="translate(33.732 42.351)">
              <path id="Path_83" data-name="Path 83" d="M128.928,161.87a2.519,2.519,0,0,0,.633,1.572c-.241-.869-.366-1.413-.366-1.413Z" transform="translate(-128.928 -161.87)" fill="#f1a69a"/>
              <path id="Path_84" data-name="Path 84" d="M204.853,161.87l-.267.16s-.126.544-.366,1.413A2.519,2.519,0,0,0,204.853,161.87Z" transform="translate(-184.521 -161.87)" fill="#f1a69a"/>
              <path id="Path_85" data-name="Path 85" d="M140.891,170.645c-6.125-.063-8.566-1.549-9.531-2.765a40.408,40.408,0,0,0,3.051,7.964,10.015,10.015,0,0,0,6.091,4.584v.183s.144-.024.39-.084c.246.058.39.084.39.084v-.183a10.015,10.015,0,0,0,6.091-4.584,40.406,40.406,0,0,0,3.051-7.964C149.457,169.1,147.016,170.583,140.891,170.645Z" transform="translate(-130.724 -166.308)" fill="#f1a69a"/>
            </g>
            <ellipse id="Ellipse_23" data-name="Ellipse 23" cx="2.111" cy="1.3" rx="2.111" ry="1.3" transform="translate(48.363 22.909)" fill="#f9c8c2"/>
            <ellipse id="Ellipse_24" data-name="Ellipse 24" cx="2.111" cy="1.3" rx="2.111" ry="1.3" transform="translate(34.567 22.909)" fill="#f9c8c2"/>
            <path id="Path_86" data-name="Path 86" d="M221.63,181.367s6.088,9.785,7.917,12.365a37.428,37.428,0,0,0,4.134,4.827c.513.528,1.1.693,2.049-.3s6.949-9.058,6.949-9.058l-3.841-2.213a31.206,31.206,0,0,0-3.914,6.512c-5.157-9.453-12.655-20.891-12.655-20.891l-.638,8.759Z" transform="translate(-163.644 -127.449)" fill="#f9c8c2"/>
            <path id="Path_87" data-name="Path 87" d="M76.7,169.6s-1.279.33-2.122,3.668-1.463,6.776-2.525,10.379a22.317,22.317,0,0,1-2.888,6.842c-1.243,1.949-4.681,6.379-4.681,6.379l3.218,2.875s1.756-2.512,3.768-4.958,6.2-12.357,6.2-12.357L76.7,169.6Z" transform="translate(-47.61 -125.227)" fill="#f9c8c2"/>
            <path id="Path_88" data-name="Path 88" d="M127.841,190.248c-.076-5.4,3.556-26.8,3.556-26.8s-3.378-2-5.528-2.177c0,0-4.223,12.033-9.845,13.521-5.622-1.489-9.845-13.521-9.845-13.521-2.151.178-5.528,2.177-5.528,2.177s3.629,21.4,3.556,26.8-6.525,18.474-6.525,18.474v.5h36.686v-.5S127.917,195.649,127.841,190.248Z" transform="translate(-72.123 -119.076)" fill="#fdf7ea"/>
          </g>
        </g>
      </g>
    </g>
    <g id="Group_384" data-name="Group 384">
      <g id="Group_376" data-name="Group 376" transform="translate(-22229 4801)">
        <g id="Ellipse_8" data-name="Ellipse 8" transform="translate(360 4376.349)" fill="none" stroke="#fff" stroke-width="1" opacity="0.1">
          <circle cx="44.863" cy="44.863" r="44.863" stroke="none"/>
          <circle cx="44.863" cy="44.863" r="44.363" fill="none"/>
        </g>
        <path id="Path_261" data-name="Path 261" d="M-16.2-10.29l-2.086-.728A8.732,8.732,0,0,1-18.62-9.73,14.518,14.518,0,0,1-20.174-6.4c-1.134-.84-2.6-1.848-3.724-2.534L-25.088-7.5a38.492,38.492,0,0,1,3.78,2.66,15.406,15.406,0,0,1-5.32,4.13L-25.06.7a17.5,17.5,0,0,0,5.208-4.326A28.19,28.19,0,0,1-16.744-.532l1.442-1.6a36.659,36.659,0,0,0-3.36-3.094A21.144,21.144,0,0,0-16.786-9.03C-16.646-9.352-16.38-9.968-16.2-10.29Zm3.486,3.808v2.2c.518-.042,1.456-.07,2.254-.07H-2.94c.588,0,1.3.056,1.638.07v-2.2c-.364.028-.98.084-1.638.084h-7.518C-11.186-6.4-12.208-6.44-12.712-6.482Zm20.16-4.746H5.39a10.361,10.361,0,0,1,.1,1.288c0,.42-.014.826-.028,1.218h-2c-.532,0-1.26-.042-1.848-.1v1.834c.6-.056,1.372-.056,1.848-.056H5.306A8.233,8.233,0,0,1,3-2.058,8.342,8.342,0,0,1,1.162-.686L2.786.63C5.292-1.148,6.622-3.346,7.14-7.042h3.15A19.16,19.16,0,0,1,9.7-1.848a.745.745,0,0,1-.8.49,11.587,11.587,0,0,1-1.96-.2L7.168.322C7.84.378,8.68.434,9.478.434A1.724,1.724,0,0,0,11.284-.644c.6-1.428.77-5.334.826-6.846a5.724,5.724,0,0,1,.1-.742L10.99-8.82a6.507,6.507,0,0,1-1.05.1H7.308c.028-.406.042-.826.056-1.26C7.378-10.318,7.406-10.906,7.448-11.228Zm7.84,4.746v2.2c.518-.042,1.456-.07,2.254-.07H25.06c.588,0,1.3.056,1.638.07v-2.2c-.364.028-.98.084-1.638.084H17.542C16.814-6.4,15.792-6.44,15.288-6.482Z" transform="translate(405 4493)" fill="#fff"/>
      </g>
      <g id="Layer_2" data-name="Layer 2" transform="translate(-21843 9201.339)">
        <g id="Group_59" data-name="Group 59" transform="translate(1 1)">
          <path id="Path_7" data-name="Path 7" d="M1,37.471H36.726V14.257L24.9,24.307V14.6L10.069,25.441,9.375,1h-6.4Z" transform="translate(-1 -1)" fill="none" stroke="#fff" stroke-linecap="round" stroke-linejoin="round" stroke-width="2"/>
          <line id="Line_9" data-name="Line 9" x2="3.299" transform="translate(10.253 29.077)" fill="none" stroke="#fff" stroke-linecap="round" stroke-linejoin="round" stroke-width="2"/>
          <line id="Line_10" data-name="Line 10" x2="3.308" transform="translate(18.476 29.077)" fill="none" stroke="#fff" stroke-linecap="round" stroke-linejoin="round" stroke-width="2"/>
          <line id="Line_11" data-name="Line 11" x2="3.308" transform="translate(26.708 29.077)" fill="none" stroke="#fff" stroke-linecap="round" stroke-linejoin="round" stroke-width="2"/>
        </g>
      </g>
    </g>
    <g id="Group_383" data-name="Group 383">
      <g id="Group_380" data-name="Group 380" transform="translate(-22062 4801.456)">
        <g id="Ellipse_8-2" data-name="Ellipse 8" transform="translate(360 4376.349)" fill="none" stroke="#fff" stroke-width="1" opacity="0.1">
          <circle cx="44.863" cy="44.863" r="44.863" stroke="none"/>
          <circle cx="44.863" cy="44.863" r="44.363" fill="none"/>
        </g>
        <path id="Path_260" data-name="Path 260" d="M-35.938-.84V-3.57h4.746V-.84Zm2.464-8.19A10.972,10.972,0,0,1-35.42-6.468a19.742,19.742,0,0,0-2.226-1.848c.238-.238.462-.476.686-.714Zm4.018,3.948h-5a12.96,12.96,0,0,0,3.248-4.886l-1.148-.6-.28.084h-3.178c.252-.364.49-.728.7-1.092l-1.876-.35a11.184,11.184,0,0,1-4.648,4.452,5.8,5.8,0,0,1,1.176,1.3,14.41,14.41,0,0,0,1.554-1.064,19.447,19.447,0,0,1,2.142,1.932,15.564,15.564,0,0,1-4.9,2.422A5.32,5.32,0,0,1-40.7-1.4,17.948,17.948,0,0,0-37.6-2.772V1.2h1.666V.658h4.746v.56h1.736Zm11.592,4.06h-6.328V-3.766h6.328Zm3.234-6.832V-9.478h-5.46v-2.38h-1.82v2.38h-5.446v1.624h5.446v2.506h-4.032V1.218h1.75V.56h6.328v.6h1.82v-6.51H-20.09V-7.854ZM-4.382-5.74l-.6.364a7.571,7.571,0,0,1,.686.532c-.938.028-1.876.056-2.758.084.224-.308.462-.644.686-.98Zm1.288-4.13V-9h-7.28V-9.87Zm-2,9.436V-1.4h3.36V-2.716H-5.1v-.868l2.142-.084a6.994,6.994,0,0,1,.644.686l1.386-.854a15.11,15.11,0,0,0-2.212-1.9h2.1v-1.3h-9.338v-.616h8.96v-3.556H-12.04v4.046c0,2.226-.112,5.376-1.5,7.532a6.5,6.5,0,0,1,1.484.854c1.2-1.876,1.568-4.676,1.652-6.958h2.184c-.2.35-.406.714-.6,1.036l-1.47.028.07,1.3c.994-.042,2.2-.084,3.514-.14v.8h-3.3V-1.4h3.3v.966h-4.242V.882H-.742V-.434ZM.994-3.668A10.179,10.179,0,0,1,.252-.42a8.229,8.229,0,0,1,1.274.6,12.944,12.944,0,0,0,.84-3.612Zm3.038.252a16.566,16.566,0,0,1,.812,2.6L6.076-1.26a15.435,15.435,0,0,0-.868-2.52ZM3.738-6.874c.168.308.336.658.49,1.008L2.884-5.81C3.766-6.944,4.732-8.358,5.5-9.576l-1.358-.63A25.389,25.389,0,0,1,2.9-7.938c-.14-.168-.294-.364-.476-.56.5-.784,1.064-1.862,1.568-2.814l-1.442-.532A17.748,17.748,0,0,1,1.526-9.408c-.112-.1-.224-.2-.322-.28l-.8,1.134a13.738,13.738,0,0,1,1.652,1.9c-.224.322-.448.63-.658.9L.392-5.712.532-4.27,2.562-4.4V1.232H4V-4.494l.714-.056a6.712,6.712,0,0,1,.182.714l1.176-.532A11.868,11.868,0,0,0,4.844-7.336Zm7.294,3.7V-.994H7.952V-3.178ZM6.412,1.2h1.54V.462h3.08v.686h1.6v-5.8H6.412Zm.994-8.6a16.229,16.229,0,0,0,1.946-2.59,19.524,19.524,0,0,0,2.058,2.59Zm1.106-4.27A13.469,13.469,0,0,1,4.984-7.49a7.664,7.664,0,0,1,.952,1.456A10.993,10.993,0,0,0,7.154-7.126V-5.88H11.76V-7.028a11.942,11.942,0,0,0,1.022.91A10.283,10.283,0,0,1,13.8-7.672a13.739,13.739,0,0,1-3.71-3.99ZM24.85-9.6H21.1v-.658H24.85Zm0,1.778H21.1v-.686H24.85Zm1.638-3.6H19.53v4.76h6.958Zm-7.98.966a10.433,10.433,0,0,0-2.422-1.358l-.938,1.26a9.714,9.714,0,0,1,2.394,1.47Zm-.756,3.682A9.166,9.166,0,0,0,15.33-8.05l-.9,1.246A9.771,9.771,0,0,1,16.786-5.39Zm9.772,2V-6.1H18.312v1.33H19.88a7.653,7.653,0,0,1-2.03,2.156l.336-.8L16.87-4.41A41.519,41.519,0,0,1,14.63.07l1.5.98c.532-1.036,1.092-2.226,1.61-3.4a8.659,8.659,0,0,1,1.036.868A9.775,9.775,0,0,0,20.2-2.828H21A9.066,9.066,0,0,1,18.27-.1,9.838,9.838,0,0,1,19.39.91a12.171,12.171,0,0,0,3.262-3.738h.812A7.893,7.893,0,0,1,21.084.364a8.838,8.838,0,0,1,1.2.868A10.3,10.3,0,0,0,25-2.828h.574a5.779,5.779,0,0,1-.434,2.492.433.433,0,0,1-.406.154,8.451,8.451,0,0,1-.91-.042,3.342,3.342,0,0,1,.378,1.442,8.124,8.124,0,0,0,1.386-.042,1.377,1.377,0,0,0,.9-.49c.364-.42.546-1.554.714-4.214.028-.182.042-.574.042-.574h-6.09q.21-.336.378-.672Zm9.45,4.2v-1.54H38.64v1.54Zm-4.06,0h-1.68v-1.54h1.68ZM32.76-8.568H31.066v-1.456H32.76Zm4.382-1.456H38.85v1.456H37.142Zm4.214,5V-6.482H35.224a7.249,7.249,0,0,0,.434-.8v.014h4.788v-4.06H35.658v4.018l-1.316-.448v-3.57H29.554v4.06h4.2c-.168.266-.35.532-.546.784H28.686v1.456h3a12.244,12.244,0,0,1-3.472,1.75A6.067,6.067,0,0,1,29.19-2c.21-.07.406-.14.6-.224V1.246h1.442V.784h1.68v.448h1.5V-3.486H32.27a10.381,10.381,0,0,0,1.848-1.54h1.82a8.262,8.262,0,0,0,1.652,1.54H35.518V1.246h1.456V.784H38.64v.448h1.526V-2.156c.2.07.406.14.616.2a6.754,6.754,0,0,1,1.05-1.33,9.581,9.581,0,0,1-3.71-1.736ZM-33.67,12.342a21.384,21.384,0,0,1,3.556,3.122l1.484-1.148a22.932,22.932,0,0,0-3.626-2.94h3.444V9.752h-5.362V8.128h-1.708V9.752h-5.292v1.624h8.834Zm-4.158-.854A10.735,10.735,0,0,1-41.37,14.3a13.631,13.631,0,0,1,1.4,1.288,15.69,15.69,0,0,0,3.864-3.43Zm4.48,2.394a7.733,7.733,0,0,1-1.638,2.674,8.329,8.329,0,0,1-1.61-2.59l-1.6.476a12,12,0,0,0,1.932,3.22,13.863,13.863,0,0,1-5.278,2.016,9.02,9.02,0,0,1,1.05,1.568,15.307,15.307,0,0,0,5.46-2.394,12.1,12.1,0,0,0,5.516,2.366,7.525,7.525,0,0,1,1.078-1.582,12.209,12.209,0,0,1-5.264-1.96A10.386,10.386,0,0,0-31.556,14.4Zm14.476-3.472a9.766,9.766,0,0,1-.532,1.008h-1.974a9.14,9.14,0,0,0,.812-1.008Zm2.366,3.318c-.028.084-.084.1-.238.1h-.546c-.2,0-.224-.028-.224-.266v-.84h1.008Zm-4.8-1.008h.868a1.784,1.784,0,0,1-.868,1.5Zm-2.016,1.288-1.134.322V12.314h1.274v-.63a5.4,5.4,0,0,1,.49.49v3.878h1.386V14.6a3.806,3.806,0,0,1,.448.63,2.721,2.721,0,0,0,1.6-2.506h.546v.84c0,1.008.224,1.316,1.246,1.316h.966v1.148h1.414V11.418H-17.78a17.393,17.393,0,0,0,.952-1.68l-1.05-.658-.238.056h-1.722c.126-.252.238-.518.35-.784l-1.54-.238A6.457,6.457,0,0,1-23.184,11.1v-.308h-1.274V8.156H-25.97v2.632h-1.47v1.526h1.47v2.422c-.63.154-1.218.308-1.694.406l.364,1.6c.406-.112.868-.238,1.33-.378v3.094c0,.182-.07.238-.238.238a11.31,11.31,0,0,1-1.162-.014,6.193,6.193,0,0,1,.42,1.54A3.631,3.631,0,0,0-25,20.91c.42-.266.546-.686.546-1.456V15.912c.448-.126.9-.266,1.344-.406Zm8.68,3.85V16.472h-3.71c.056-.364.084-.742.112-1.134h-1.512c-.028.406-.056.784-.112,1.134H-23.3v1.386h3.038c-.49,1.022-1.5,1.68-3.668,2.1a4.642,4.642,0,0,1,.812,1.288c2.324-.518,3.528-1.358,4.158-2.576a4.888,4.888,0,0,0,3.612,2.506,4.9,4.9,0,0,1,.924-1.386,4.192,4.192,0,0,1-3.318-1.932Zm4.592.28c0,1.652.462,2.422,3.654,2.422a32.908,32.908,0,0,0,4.34-.308l.056-1.9a22.871,22.871,0,0,1-4.41.476c-1.54,0-1.792-.308-1.792-1.176v-3.71c1.988-.406,3.878-.77,4.312-.868a11.921,11.921,0,0,1-2.24,2.842l1.54.91a20.064,20.064,0,0,0,2.9-4.074c.126-.252.336-.574.462-.77l-1.344-1.036a3.947,3.947,0,0,1-.994.322c-.63.154-2.59.546-4.634.938V10.55a14.715,14.715,0,0,1,.126-1.61h-2.086a12.109,12.109,0,0,1,.112,1.61v2c-1.386.252-2.618.462-3.276.546l.336,1.834c.588-.14,1.694-.364,2.94-.616ZM3.374,9.36l-1.316,1.4a29.109,29.109,0,0,1,3.5,3.024l1.428-1.456A28.276,28.276,0,0,0,3.374,9.36Zm-1.75,9.324L2.8,20.532a15.162,15.162,0,0,0,5.194-1.974,14.887,14.887,0,0,0,5.18-5.18L12.082,11.4a13.182,13.182,0,0,1-5.1,5.446A14.43,14.43,0,0,1,1.624,18.684ZM21.966,8.912l-2.03-.63a5.794,5.794,0,0,1-.644,1.456A13,13,0,0,1,14.84,14.4l1.512,1.162a16.838,16.838,0,0,0,3.7-3.626h4a9.937,9.937,0,0,1-1.54,3.094c-.882-.588-1.764-1.162-2.506-1.582L18.76,14.722c.714.448,1.638,1.078,2.548,1.75A11.893,11.893,0,0,1,16.17,19.51l1.624,1.414a13.173,13.173,0,0,0,5.012-3.318c.574.462,1.092.9,1.47,1.246l1.33-1.582c-.406-.336-.952-.742-1.554-1.176a16.031,16.031,0,0,0,2.072-4.032,6.586,6.586,0,0,1,.462-.994l-1.428-.882a4.445,4.445,0,0,1-1.218.154H21.1A15.083,15.083,0,0,1,21.966,8.912Zm7.322,4.606v2.2c.518-.042,1.456-.07,2.254-.07H39.06c.588,0,1.3.056,1.638.07v-2.2c-.364.028-.98.084-1.638.084H31.542C30.814,13.6,29.792,13.56,29.288,13.518Z" transform="translate(405 4493)" fill="#fff"/>
      </g>
      <g id="Layer_2-2" data-name="Layer 2" transform="translate(-21674 9201.924)">
        <rect id="Rectangle_48" data-name="Rectangle 48" width="30.223" height="40.037" rx="2.95" transform="translate(1 1)" fill="none" stroke="#fff" stroke-linecap="round" stroke-linejoin="round" stroke-width="2"/>
        <rect id="Rectangle_49" data-name="Rectangle 49" width="19.031" height="3.36" rx="1.68" transform="translate(6.6 7.068)" fill="none" stroke="#fff" stroke-linecap="round" stroke-linejoin="round" stroke-width="2"/>
        <g id="Group_64" data-name="Group 64" transform="translate(5.067 36.949)">
          <line id="Line_23" data-name="Line 23" x2="4.907" fill="none" stroke="#fff" stroke-linecap="round" stroke-linejoin="round" stroke-width="2"/>
          <line id="Line_24" data-name="Line 24" x2="4.907" transform="translate(8.091)" fill="none" stroke="#fff" stroke-linecap="round" stroke-linejoin="round" stroke-width="2"/>
          <line id="Line_25" data-name="Line 25" x2="4.907" transform="translate(17.184)" fill="none" stroke="#fff" stroke-linecap="round" stroke-linejoin="round" stroke-width="2"/>
        </g>
        <g id="Group_65" data-name="Group 65" transform="translate(5.963 41.114)">
          <line id="Line_26" data-name="Line 26" y1="2.737" fill="none" stroke="#fff" stroke-linecap="round" stroke-linejoin="round" stroke-width="2"/>
          <line id="Line_27" data-name="Line 27" y1="2.737" transform="translate(6.768)" fill="none" stroke="#fff" stroke-linecap="round" stroke-linejoin="round" stroke-width="2"/>
          <line id="Line_28" data-name="Line 28" y1="2.737" transform="translate(13.53)" fill="none" stroke="#fff" stroke-linecap="round" stroke-linejoin="round" stroke-width="2"/>
          <line id="Line_29" data-name="Line 29" y1="2.737" transform="translate(20.291)" fill="none" stroke="#fff" stroke-linecap="round" stroke-linejoin="round" stroke-width="2"/>
        </g>
      </g>
    </g>
    <g id="Group_218" data-name="Group 218" transform="translate(-22732.023 3902.348)">
      <path id="Path_259" data-name="Path 259" d="M-33.54-.276V.432h2.256a18.115,18.115,0,0,1-.072-1.98V-7.812c0-.6.012-.8.036-1.224C-31.668-9.012-32-9-32.652-9H-38.16a12.564,12.564,0,0,1-2.1-.108v2.184c.5-.048.96-.06,2.064-.06h4.656v4.692h-4.8a12.406,12.406,0,0,1-2.088-.1V-.2a16.9,16.9,0,0,1,2.052-.072Zm15.192-.744a28.161,28.161,0,0,0-3.816-3.252A14.15,14.15,0,0,0-20.4-7.512a1.9,1.9,0,0,1,.432-.708L-21.024-9.3a2.2,2.2,0,0,1-.96.132l-4.1.06c-.348.012-.576.012-.672.012a8.89,8.89,0,0,1-1.26-.084l.06,2.136a14.252,14.252,0,0,1,1.908-.12l3.12-.048a9.654,9.654,0,0,1-2.412,3.528A11.316,11.316,0,0,1-29.232-1.26a6.286,6.286,0,0,1,1.344,1.9,13.015,13.015,0,0,0,4.416-3.288A19.293,19.293,0,0,1-20.028.756ZM-12.612.708a17.6,17.6,0,0,1-.072-1.836v-3.12a2.882,2.882,0,0,0,.54.24A22.244,22.244,0,0,1-8.364-1.92l1.14-2.04a25.453,25.453,0,0,0-5.46-2.5V-8.1a15.517,15.517,0,0,1,.06-1.752H-14.94a11.353,11.353,0,0,1,.084,1.74v6.984A17.127,17.127,0,0,1-14.928.708Zm9.264-8.52a9.365,9.365,0,0,1-1.668-.1L-5-5.856a12.28,12.28,0,0,1,1.62-.072h1.5a6.359,6.359,0,0,1-.6,2.052A6.5,6.5,0,0,1-5.6-.972,6.937,6.937,0,0,1-4.044.852,8.3,8.3,0,0,0,.06-4.74a10.288,10.288,0,0,0,.18-1.2H2.532A27.72,27.72,0,0,1,2.3-2.592C2.148-1.548,2-1.356,1.428-1.356A6.874,6.874,0,0,1-.132-1.6,5.906,5.906,0,0,1,.276.516a14.054,14.054,0,0,0,1.572.1C3.18.612,3.756.228,4.1-.888a28.373,28.373,0,0,0,.5-5.364,1.5,1.5,0,0,1,.168-.888L3.84-7.956a1.735,1.735,0,0,1-.8.132H.42c.024-.288.024-.288.036-.612A8.61,8.61,0,0,1,.588-9.888l-2.256-.06a3.358,3.358,0,0,1,.036.6c0,.372-.024,1.068-.06,1.536ZM7.3-6.708A15.308,15.308,0,0,1,8.364-3.6l1.872-.564A15.118,15.118,0,0,0,9.072-7.2ZM9.96-7.224a14.119,14.119,0,0,1,1.08,3.012l1.836-.564A12.278,12.278,0,0,0,11.712-7.7Zm4.116-.24a8.385,8.385,0,0,1-.528,2.532C12.8-2.94,11.5-1.74,9.084-.8A6.12,6.12,0,0,1,10.4.888a16.247,16.247,0,0,0,1.452-.8,8.722,8.722,0,0,0,2.52-2.436,10.828,10.828,0,0,0,1.5-3.912A4.826,4.826,0,0,1,16.056-7ZM23.028.708a17.6,17.6,0,0,1-.072-1.836v-3.12a2.882,2.882,0,0,0,.54.24,22.244,22.244,0,0,1,3.78,2.088l1.14-2.04a25.453,25.453,0,0,0-5.46-2.5V-8.1a15.517,15.517,0,0,1,.06-1.752H20.7a11.353,11.353,0,0,1,.084,1.74v6.984A17.127,17.127,0,0,1,20.712.708ZM36.8-2.652c-.012-.3-.012-.432-.012-.552,0-.18.012-.42.036-.924l.24-3.8c.036-.5.108-1.344.144-1.62h-2.8c.06.588.12,1.128.144,1.62l.24,3.8c.048.708.048.708.048.936a4.442,4.442,0,0,1-.024.54ZM37.02.432V-1.836H34.608V.432Z" transform="translate(992.413 5289)" fill="#fff"/>
      <g id="Group_213" data-name="Group 213" transform="translate(16586.055 10497.744)">
        <path id="Path_66" data-name="Path 66" d="M-15636.3-5204.044l-9.049-18.7-2.871,1.781Z" transform="translate(0.001)" fill="#fff"/>
        <path id="Path_67" data-name="Path 67" d="M-15648.222-5204.044l9.049-18.7,2.871,1.781Z" transform="translate(93.237)" fill="#fff"/>
      </g>
    </g>
    <g id="Group_379" data-name="Group 379" transform="translate(-22200.271 4793.204)">
      <path id="Path_22" data-name="Path 22" d="M-12642.582-3699.807l4.363,4.363-4.363,4.364" transform="translate(13131.99 8122.603)" fill="none" stroke="#fff" stroke-linecap="round" stroke-linejoin="round" stroke-width="1"/>
      <line id="Line_30" data-name="Line 30" x2="62.001" transform="translate(431.771 4427.16)" fill="none" stroke="#fff" stroke-linecap="round" stroke-width="1"/>
    </g>
    <g id="Group_381" data-name="Group 381" transform="translate(-22088.566 4793.204)">
      <path id="Path_22-2" data-name="Path 22" d="M-12642.582-3699.807l4.363,4.363-4.363,4.364" transform="translate(13131.99 8122.603)" fill="none" stroke="#fff" stroke-linecap="round" stroke-linejoin="round" stroke-width="1"/>
      <line id="Line_30-2" data-name="Line 30" x2="12.979" transform="translate(480.792 4427.159)" fill="none" stroke="#fff" stroke-linecap="round" stroke-width="1"/>
    </g>
  </g>
</svg>
