<svg xmlns="http://www.w3.org/2000/svg" width="338" height="325.585" viewBox="0 0 338 325.585">
  <g id="Group_368" data-name="Group 368" transform="translate(20092 -7700.214)">
    <path id="Path_258" data-name="Path 258" d="M3.6-7.32H1.812V-8.844H3.6Zm0,2.232H1.812V-6.624H3.6Zm0,2.268H1.812V-4.38H3.6Zm.8-6.768H1.032v7.5H4.4ZM1.62-1.836A5.263,5.263,0,0,1,.42.444a6.038,6.038,0,0,1,.672.48,7.186,7.186,0,0,0,1.332-2.58Zm1.5.288A9.995,9.995,0,0,1,4.08.336L4.788,0a10.1,10.1,0,0,0-1-1.848ZM8.412-1.74v-.9H9.948v.9Zm-2.256-.9H7.62v.9H6.156ZM7.62-4.116v.852H6.156v-.852Zm2.328,0v.852H8.412v-.852ZM7.14-6.948H8.916v.792H7.14Zm0-1.38H8.916v.72H7.14ZM11.484-1.74h-.72V-4.788H8.412v-.7h3.024v-.672H9.72v-.792h1.272v-.66H9.72v-.72h1.464V-9H9.72v-1.032h-.8V-9H7.14v-1.032H6.348V-9H4.9v.672H6.348v.72H5.208v.66h1.14v.792H4.62v.672h3v.7H5.352V-1.74h-.78v.684h.78V.924h.8v-1.98H9.948V-.012c0,.156-.06.192-.2.2C9.576.192,9,.192,8.376.18A2.865,2.865,0,0,1,8.628.9a6.207,6.207,0,0,0,1.74-.12c.3-.132.4-.36.4-.792V-1.056h.72ZM14.76-9.312v.888h2.952c.024.456.072.984.156,1.536l-.528-.084C16.608-3.612,15.132-1.2,12.48.18a5.84,5.84,0,0,1,.8.708,10.608,10.608,0,0,0,4.788-6.7A10.356,10.356,0,0,0,22.836.876a4.241,4.241,0,0,1,.72-.744,10.271,10.271,0,0,1-4.98-9.444ZM30.972-3.18H28.884V-4.968h2.088Zm2.3-1.788v-.456A7.634,7.634,0,0,0,34.992-4.38a3.679,3.679,0,0,1,.612-.744A7.8,7.8,0,0,1,33.36-6.516a19.262,19.262,0,0,0,1.884-1.548l-.672-.48A14.761,14.761,0,0,1,32.856-7a9.617,9.617,0,0,1-.78-.924A15.909,15.909,0,0,0,33.84-9.432l-.672-.48a15.4,15.4,0,0,1-1.476,1.428A8.9,8.9,0,0,1,30.936-10l-.768.228A10.341,10.341,0,0,0,32.844-5.8H27.2a8.373,8.373,0,0,0,2.5-3.48l-.588-.288-.156.036h-3.42v.792h2.976A8.406,8.406,0,0,1,27.4-7.152a16.687,16.687,0,0,0-1.452-1.176l-.552.468a12.72,12.72,0,0,1,1.44,1.26A8.3,8.3,0,0,1,24.4-5.04a4.827,4.827,0,0,1,.552.672,9.833,9.833,0,0,0,1.788-1.056v.456H28V-3.18h-2.76v.828H27.9c-.216,1-.9,1.944-2.9,2.616a3.482,3.482,0,0,1,.564.708c2.352-.816,3.06-2.04,3.252-3.324h2.16v1.92c0,.984.264,1.248,1.272,1.248h1.572c.876,0,1.128-.42,1.212-1.944a2.459,2.459,0,0,1-.8-.372c-.048,1.284-.108,1.524-.48,1.524H32.376c-.408,0-.48-.072-.48-.444V-2.352H34.74V-3.18H31.9V-4.968Zm6.672-3.72a8.509,8.509,0,0,0-2.28-1.26l-.48.66a8.28,8.28,0,0,1,2.244,1.332Zm-.636,3.072a10.1,10.1,0,0,0-2.34-1.1l-.468.672A10.392,10.392,0,0,1,38.82-4.86Zm-.1,1.932A35.807,35.807,0,0,1,36.948.156l.744.6C38.4-.36,39.24-1.836,39.864-3.1ZM44.04-.3V-3.2h2.772v-.84H44.04v-2.58h3.2v-.84h-2.9l.6-.732a12.393,12.393,0,0,0-2.772-1.872l-.576.672a11.407,11.407,0,0,1,2.7,1.932H40.056v.84h3.072v2.58H40.512v.84h2.616V-.3H39.66V.552H47.5V-.3Zm7.212-9.708a13.389,13.389,0,0,1-3.036,4.7,6.161,6.161,0,0,1,.516.876A11.871,11.871,0,0,0,50-5.952V.876h.84V-7.236a18.076,18.076,0,0,0,1.224-2.52Zm7.536,4.14A18.6,18.6,0,0,1,56.724-4.08a20.5,20.5,0,0,1-.708-2.928H59.28v-.84H55.872V-9.9h-.9v2.052H51.384v.84h3.252A10.662,10.662,0,0,1,50.916-3.6a6.6,6.6,0,0,1,.612.732A12.18,12.18,0,0,0,53-3.948v3.5c-.552.12-1.056.228-1.476.312L51.8.732C53.112.42,54.948-.024,56.652-.432l-.072-.816c-.924.216-1.86.432-2.736.624V-4.716A11.849,11.849,0,0,0,55.3-6.468c.588,3.3,1.668,5.988,3.792,7.26a3.473,3.473,0,0,1,.636-.744,6.545,6.545,0,0,1-2.736-3.432,23.641,23.641,0,0,0,2.46-1.86Zm11.328.192H66.984V-6.84h3.132Zm0,1.8H66.984V-5.028h3.132Zm0,1.848H66.984V-3.2h3.132Zm-3.936-5.5v6.192h4.788V-7.524h-2.34c.108-.36.216-.768.336-1.164h2.448v-.78H65.664v.78H68a9.5,9.5,0,0,1-.228,1.164Zm-4.6,1.44h1.2v1.656h-1.2ZM64.74-4.428H63.492V-6.084H64.74Zm.828,2.616c-.3-.3-1.6-1.5-2.028-1.848v-.06h1.92V-6.792H63.54v-1.08h2.028v-.78H63.54V-10.02h-.792v1.368H60.66v.78h2.088v1.08h-1.86V-3.72h1.644A9.639,9.639,0,0,1,60.36-.756a5,5,0,0,1,.42.792,10.142,10.142,0,0,0,1.968-2.712v3.6h.792V-2.8c.528.552,1.212,1.284,1.5,1.668Zm1.656.708A6.777,6.777,0,0,1,64.848.336a7,7,0,0,1,.6.588A8.271,8.271,0,0,0,68-.66Zm1.752.48a13.421,13.421,0,0,1,2,1.584l.7-.48a13.458,13.458,0,0,0-2.04-1.524Z" transform="translate(-20034 7882)" fill="#fff"/>
    <path id="Path_257" data-name="Path 257" d="M4.584-9.624H1.128v.72H4.584Zm.444,1.572H.5v.732H5.028Zm-1.2,5.544V-.492h-2V-2.508Zm.78-.732H1.044V.78h.78V.228H4.608Zm-3.54-.888H4.62v-.72H1.068Zm0-1.6H4.62v-.708H1.068ZM6.816-8.868H8.868v2.136c0,.852.216,1.08.948,1.08h.828c.636,0,.852-.348.924-1.752a1.981,1.981,0,0,1-.744-.324c-.024,1.152-.072,1.308-.288,1.308h-.6c-.192,0-.228-.048-.228-.312V-9.66H5.964v1.44A2.768,2.768,0,0,1,4.632-5.664a4.343,4.343,0,0,1,.648.588A3.517,3.517,0,0,0,6.816-8.208ZM10.272-4.92l-.156.036H5.184v.816H9.72a6.39,6.39,0,0,1-1.572,2.34A6.716,6.716,0,0,1,6.6-4.044l-.792.24a8.1,8.1,0,0,0,1.68,2.616A8.164,8.164,0,0,1,4.656.132a3.109,3.109,0,0,1,.48.78A9.184,9.184,0,0,0,8.148-.576,8.178,8.178,0,0,0,11,.9,3.821,3.821,0,0,1,11.58.144a7.619,7.619,0,0,1-2.76-1.3,7.787,7.787,0,0,0,2.028-3.54Zm6.72-3.972h1.956v1.068H16.992Zm-.828,1.068H14.256V-8.892h1.908Zm3.612-1.068h2.016v1.068H19.776Zm1.536,4.98h-4.86V-4.56h4.86Zm0,1.188h-4.86v-.66h4.86Zm0,1.212h-4.86v-.672h4.86Zm-5.688-3.6v4.14h6.54v-4.14H18.276c.036-.216.084-.444.12-.7H23.16v-.708H18.516c.036-.216.06-.444.1-.648h4.056V-9.54H13.416v2.376h4.3c-.024.2-.048.432-.072.648H12.864v.708h4.668c-.036.24-.084.48-.12.7ZM23.46-.3H14.412V-4.932h-.888V.924h.888V.42H23.46ZM30-5.832A1.265,1.265,0,0,0,28.728-4.56,1.265,1.265,0,0,0,30-3.288,1.265,1.265,0,0,0,31.272-4.56,1.265,1.265,0,0,0,30-5.832ZM9.72,8.264l-1.1-.384a6.884,6.884,0,0,1-.24.888,13.425,13.425,0,0,1-1.632,3.276C5.8,11.312,4.4,10.328,3.372,9.668l-.624.756a37.542,37.542,0,0,1,3.384,2.424,13.323,13.323,0,0,1-4.764,3.768l.828.756A15.288,15.288,0,0,0,6.9,13.5a26.763,26.763,0,0,1,2.832,2.76l.756-.828A30.031,30.031,0,0,0,7.524,12.68a16.716,16.716,0,0,0,1.8-3.54A6.475,6.475,0,0,1,9.72,8.264Zm5-.06-.684.732a24.922,24.922,0,0,1,2.988,2.508l.756-.756A26.277,26.277,0,0,0,14.724,8.2Zm-1.032,8.04.636.984a13.153,13.153,0,0,0,4.716-1.86A11.989,11.989,0,0,0,23.076,11.1l-.576-1.02a11.3,11.3,0,0,1-4.008,4.416A12.39,12.39,0,0,1,13.692,16.244ZM26.58,8.12v1c.3-.024.7-.036,1.092-.036H32.52c.348,0,.768.012,1.116.036v-1a8.854,8.854,0,0,1-1.116.072H27.66A9.982,9.982,0,0,1,26.58,8.12Zm-1.44,3.012v1c.336-.024.684-.024,1.044-.024h3.6a5.809,5.809,0,0,1-.7,2.976,4.968,4.968,0,0,1-2.268,1.836l.888.66a5.856,5.856,0,0,0,2.364-2.2A7.264,7.264,0,0,0,30.78,12.1h3.264c.288,0,.672.012.936.024v-1a6.433,6.433,0,0,1-.936.06h-7.86A9.593,9.593,0,0,1,25.14,11.132ZM41.82,8.9v1.62H38.28c-.42,0-.864-.036-1.116-.06v1.032c.252-.024.7-.036,1.14-.036H41.82a5.348,5.348,0,0,1-3.252,5.3l.936.7a6.308,6.308,0,0,0,3.324-6h3.18c.372,0,.864.012,1.056.036v-1.02c-.192.024-.648.048-1.044.048H42.828V8.912a11.118,11.118,0,0,1,.072-1.2H41.712A6.7,6.7,0,0,1,41.82,8.9Zm8.9-.7-.684.732a24.922,24.922,0,0,1,2.988,2.508l.756-.756A26.277,26.277,0,0,0,50.724,8.2Zm-1.032,8.04.636.984a13.153,13.153,0,0,0,4.716-1.86A11.989,11.989,0,0,0,59.076,11.1l-.576-1.02a11.3,11.3,0,0,1-4.008,4.416A12.39,12.39,0,0,1,49.692,16.244ZM69.36,8.972,68.748,8.5a3.286,3.286,0,0,1-.9.1H63.216c-.36,0-1.044-.048-1.212-.072V9.62c.132-.012.792-.06,1.212-.06H67.9A10.56,10.56,0,0,1,65.9,12.9,13.722,13.722,0,0,1,60.96,16.46l.768.8a15.213,15.213,0,0,0,4.68-3.5,27.707,27.707,0,0,1,3.3,3.564l.84-.72a33.288,33.288,0,0,0-3.5-3.588A15.188,15.188,0,0,0,69.06,9.5,3.442,3.442,0,0,1,69.36,8.972Zm8.4,2.2a1.272,1.272,0,1,0,1.272,1.272A1.265,1.265,0,0,0,77.76,11.168ZM9.216,32.656V33.82H3.588V32.656ZM8.448,29.44v1.02H3.588V29.44Zm-4.86,1.7H9.324V28.756H2.748v6.168h.84v-.408H9.216V34.9h.876V31.96h-6.5Zm7.86-6.276H7.38a6.3,6.3,0,0,0,.372-.756l-.852-.2a5.632,5.632,0,0,1-1.056,1.656v-.7H2.7a5.973,5.973,0,0,0,.348-.744l-.828-.216A6.575,6.575,0,0,1,.492,26.4a5.511,5.511,0,0,1,.732.48,8.182,8.182,0,0,0,1.032-1.272h.516a7.563,7.563,0,0,1,.564,1.224l.792-.24a5.446,5.446,0,0,0-.468-.984H5.8a4.807,4.807,0,0,1-.744.66,4.355,4.355,0,0,1,.492.276V27.3H1.02v2.244h.84V28.012H10.2v1.536h.864V27.3H6.4v-.936h-.18a8.351,8.351,0,0,0,.672-.756h.96a5.573,5.573,0,0,1,.8,1.26l.816-.276a5.968,5.968,0,0,0-.648-.984h2.628Zm4.788,6.72-1.308.432V29.044h1.2v-.828h-1.2v-2.6h1.38v-.84h-3.72v.84h1.488v2.6H12.72v.828h1.356v3.24c-.612.2-1.164.372-1.608.5l.2.9c1.068-.348,2.436-.816,3.72-1.248Zm1.476-4.044h1.824v1.524H17.712Zm0-2.256h1.824V26.8H17.712ZM22.14,26.8H20.3V25.288H22.14Zm0,2.268H20.3V27.544H22.14Zm-1.764,4.644V32.068h2.8v-.816h-2.8v-1.4h2.616v-5.34H16.9v5.34h2.58v1.4H16.752v.816h2.724v1.644H15.828v.816h7.728v-.816Z" transform="translate(-19895 7865)" fill="#fff"/>
    <path id="Path_256" data-name="Path 256" d="M-26.01-.32V-2.78h4.1V-.32Zm2.48-6.38a8.1,8.1,0,0,1-1.8,2.34,12.928,12.928,0,0,0-1.89-1.61,8.118,8.118,0,0,0,.71-.73Zm2.37,3.24h-4.09a9.435,9.435,0,0,0,2.73-3.69l-.49-.26-.14.04h-2.82c.21-.29.4-.58.57-.86l-.83-.17a8.421,8.421,0,0,1-3.36,3.25,2.536,2.536,0,0,1,.52.57,10.815,10.815,0,0,0,1.31-.91,12.451,12.451,0,0,1,1.83,1.64,11.149,11.149,0,0,1-3.71,1.92,2.259,2.259,0,0,1,.44.65A12.558,12.558,0,0,0-26.74-2.4V.76h.73V.36h4.1V.78h.75Zm8.76,3h-5.2V-2.98h5.2Zm1.86-5.38v-.73h-4.07v-1.8h-.79v1.8h-4.03v.73h4.03v2.15h-2.95V.78h.75V.25h5.2V.74h.79V-3.69h-3V-5.84ZM-1.9-7.23V-6.2H-7.77V-7.23ZM-7.77-5.58h6.61V-7.86H-8.52v2.77A10.824,10.824,0,0,1-9.6.38a3.171,3.171,0,0,1,.65.38C-7.92-.9-7.77-3.38-7.77-5.09ZM-4.01-.13V-1.22h2.68v-.6H-4.01v-.87l1.98-.08a4.9,4.9,0,0,1,.51.52l.6-.41A11.039,11.039,0,0,0-3.03-4.3l-.56.36c.29.18.6.4.9.62-1.02.04-2.04.07-2.95.1.24-.33.5-.72.73-1.09H-.86v-.61H-7.75v.61h2.01c-.2.38-.45.78-.67,1.11l-1.13.03.05.61c.76-.03,1.71-.06,2.75-.11v.85H-7.3v.6h2.56V-.13H-8.06V.48h7.5V-.13ZM.94-2.7A7.187,7.187,0,0,1,.29-.32a2.6,2.6,0,0,1,.58.28,8.8,8.8,0,0,0,.71-2.54ZM3-2.59A9.806,9.806,0,0,1,3.61-.76l.57-.19a9.271,9.271,0,0,0-.64-1.82ZM2.74-4.93a7.624,7.624,0,0,1,.47.9l-1.48.06A34.311,34.311,0,0,0,3.72-6.95l-.63-.28A20.367,20.367,0,0,1,2.08-5.44a8.031,8.031,0,0,0-.58-.65c.37-.56.79-1.35,1.13-2.01l-.65-.26a12.646,12.646,0,0,1-.9,1.86c-.1-.09-.19-.18-.29-.26l-.38.49A9.314,9.314,0,0,1,1.7-4.86c-.22.33-.45.65-.66.92l-.66.03.06.66c.46-.03,1-.06,1.57-.09V.78h.66V-3.38l.79-.05a4.653,4.653,0,0,1,.18.58L4.2-3.1a7.918,7.918,0,0,0-.94-2.04ZM8.19-2.55V-.48H5.32V-2.55ZM4.64.75h.68V.18H8.19V.71H8.9V-3.22H4.64ZM5.06-5.1v.69H8.37V-5.1ZM6.24-8.27A10.018,10.018,0,0,1,3.57-5.03a2.744,2.744,0,0,1,.44.63A11.356,11.356,0,0,0,6.64-7.51,14.151,14.151,0,0,0,9.32-4.46a5.4,5.4,0,0,1,.46-.68A12.113,12.113,0,0,1,6.97-8.27ZM17.99-6.7H14.63v-.76h3.36Zm0,1.31H14.63v-.78h3.36Zm.72-2.64H13.93v3.2h4.78Zm-5.67.82a6.44,6.44,0,0,0-1.7-1.07l-.42.54a7.08,7.08,0,0,1,1.69,1.12Zm-.49,2.58a7.141,7.141,0,0,0-1.72-.99l-.42.55a7.291,7.291,0,0,1,1.71,1.05Zm-.3,1.61A28.387,28.387,0,0,1,10.63.17l.66.46c.51-.93,1.09-2.16,1.53-3.21Zm7.32-.57v-.62H13v.62h1.41a6.337,6.337,0,0,1-1.82,1.96,3.435,3.435,0,0,1,.53.46,7.459,7.459,0,0,0,1.15-1.11h.97A6.827,6.827,0,0,1,13.12,0a4.049,4.049,0,0,1,.52.48,8.35,8.35,0,0,0,2.34-2.76h.99A5.885,5.885,0,0,1,15.14.33a5.106,5.106,0,0,1,.56.42,7.281,7.281,0,0,0,1.96-3.03h.83A5.4,5.4,0,0,1,18.08.01c-.08.1-.16.11-.31.11a7.627,7.627,0,0,1-.83-.04,1.618,1.618,0,0,1,.18.64,6.528,6.528,0,0,0,.98.01.8.8,0,0,0,.57-.26c.25-.29.4-1.05.54-3.04.02-.11.03-.31.03-.31H14.73a7.452,7.452,0,0,0,.43-.71Zm8.53-2.2H26.23V-7.32H28.1Zm.7-2.14H25.56v2.74H28.8ZM26.12-.23V-1.82h1.82V-.23Zm-2.28,0H22.05V-1.82h1.79Zm-.08-5.56H21.91V-7.32h1.85Zm5.7,2.03v-.67H24.79a5.675,5.675,0,0,0,.45-.8l-.72-.23-.06.13v-2.6H21.24v2.74h3.15a4.209,4.209,0,0,1-.51.76H20.56v.67h2.67a8.48,8.48,0,0,1-2.92,1.57,3.046,3.046,0,0,1,.46.56,6.622,6.622,0,0,0,.62-.24V.78h.66V.41h1.79V.75h.69v-3.2H22.58a7.283,7.283,0,0,0,1.67-1.31h1.51a6.192,6.192,0,0,0,1.61,1.31H25.46V.78h.66V.41h1.82V.75h.69v-2.6c.21.08.43.15.64.21a3.357,3.357,0,0,1,.47-.6,7.192,7.192,0,0,1-3.05-1.52ZM-20.64,7.93h-4.01V6.62h-.74V7.93h-3.96v.72h8.71Zm-3.18,1.44a14.954,14.954,0,0,1,2.62,2.27l.65-.51a15.554,15.554,0,0,0-2.68-2.21Zm-2.98-.41a8.177,8.177,0,0,1-2.63,2.19,4.272,4.272,0,0,1,.61.59,10.573,10.573,0,0,0,2.77-2.49Zm3.24,1.71a6.1,6.1,0,0,1-1.42,2.25,6.415,6.415,0,0,1-1.42-2.2l-.71.22a7.815,7.815,0,0,0,1.56,2.48,9.715,9.715,0,0,1-4.02,1.68,2.962,2.962,0,0,1,.47.7A10.757,10.757,0,0,0-25,13.94a8.832,8.832,0,0,0,4.12,1.82,3.046,3.046,0,0,1,.49-.7,8.6,8.6,0,0,1-4.03-1.64,7,7,0,0,0,1.63-2.53ZM-13.1,8a8.253,8.253,0,0,1-.53.98h-1.91A6.3,6.3,0,0,0-14.78,8Zm1.54,2.64c-.02.06-.06.07-.2.07h-.66c-.21,0-.23-.02-.23-.18V9.59h1.09Zm-3.89-1.05h.98a1.524,1.524,0,0,1-.98,1.5Zm-1.07,1.94-.1-.69c-.33.11-.66.22-.99.32V9.32h1.01a2.058,2.058,0,0,1,.33.33c.06-.05.13-.1.19-.16v2.76h.63V11.1a1.3,1.3,0,0,1,.33.41,1.966,1.966,0,0,0,1.21-1.92h.69v.94c0,.56.14.69.73.69h.93v1.01h.65V8.98H-12.9a8.824,8.824,0,0,0,.72-1.31l-.47-.31-.11.04h-1.67q.165-.33.3-.66l-.7-.11a5.719,5.719,0,0,1-1.71,2.39V8.64h-1.07v-2h-.69v2h-1.25v.68h1.25v2.05c-.52.16-1,.31-1.38.41l.19.72,1.19-.39V14.9c0,.15-.05.18-.17.18s-.51.01-.94,0a2.971,2.971,0,0,1,.22.68,3.135,3.135,0,0,0,1.24-.13c.25-.12.34-.32.34-.73V11.89Zm5.99,1.72v-.63h-2.8c.05-.28.08-.57.11-.89h-.68c-.03.32-.06.62-.11.89h-2.63v.63h2.46c-.34.99-1.09,1.61-2.81,1.96a1.987,1.987,0,0,1,.37.57c1.78-.41,2.62-1.11,3.03-2.17a3.821,3.821,0,0,0,2.76,2.12,2.407,2.407,0,0,1,.45-.61,3.437,3.437,0,0,1-2.66-1.87Zm3.59.46c0,.99.34,1.47,2.2,1.47a21.5,21.5,0,0,0,3.14-.2l.04-.86a16.064,16.064,0,0,1-3.12.29c-1.19,0-1.45-.22-1.45-.91V10.52c1.77-.36,3.61-.73,3.78-.76a9.416,9.416,0,0,1-1.78,2.38l.7.42A15.221,15.221,0,0,0-1.38,9.65c.07-.13.17-.3.24-.4l-.59-.46a2.025,2.025,0,0,1-.53.18c-.42.09-2.17.45-3.87.78V8.19a5.7,5.7,0,0,1,.07-.92h-.95a5.616,5.616,0,0,1,.07.92V9.9c-1.06.2-2.01.37-2.46.43l.15.83c.41-.09,1.3-.27,2.31-.48ZM2.27,7.67l-.57.61a20.768,20.768,0,0,1,2.49,2.09l.63-.63A21.9,21.9,0,0,0,2.27,7.67Zm-.86,6.7.53.82a10.961,10.961,0,0,0,3.93-1.55,9.991,9.991,0,0,0,3.36-3.56l-.48-.85a9.42,9.42,0,0,1-3.34,3.68A10.325,10.325,0,0,1,1.41,14.37ZM15.36,7.15l-.91-.29a3.612,3.612,0,0,1-.32.79,9.164,9.164,0,0,1-3.21,3.48l.67.52A10.909,10.909,0,0,0,14.24,9h3.38a8.355,8.355,0,0,1-1.36,2.77c-.7-.49-1.45-.97-2.11-1.35l-.54.55c.64.4,1.4.92,2.12,1.44a8.772,8.772,0,0,1-3.87,2.41l.72.62a9.489,9.489,0,0,0,3.81-2.54c.41.33.79.64,1.09.91l.59-.69c-.32-.26-.72-.57-1.14-.88a10.066,10.066,0,0,0,1.56-3.11,3.282,3.282,0,0,1,.24-.54l-.66-.4a1.993,1.993,0,0,1-.66.1H14.7a3.354,3.354,0,0,0,.21-.36C15.01,7.75,15.19,7.41,15.36,7.15Zm5.66,3.52v.98c.31-.03.84-.05,1.39-.05H27.9c.45,0,.87.04,1.07.05v-.98c-.22.02-.58.05-1.08.05H22.41C21.85,10.72,21.32,10.69,21.02,10.67Z" transform="translate(-19928 8010)" fill="#fff"/>
    <g id="Layer_2" data-name="Layer 2" transform="translate(-19943 7945.758)">
      <rect id="Rectangle_48" data-name="Rectangle 48" width="30.931" height="40.973" rx="2.95" transform="translate(0 0)" fill="none" stroke="#fff" stroke-linecap="round" stroke-linejoin="round" stroke-width="2"/>
      <rect id="Rectangle_49" data-name="Rectangle 49" width="19.477" height="3.438" rx="1.719" transform="translate(5.731 6.21)" fill="none" stroke="#fff" stroke-linecap="round" stroke-linejoin="round" stroke-width="2"/>
      <g id="Group_64" data-name="Group 64" transform="translate(4.162 36.79)">
        <line id="Line_23" data-name="Line 23" x2="5.021" fill="none" stroke="#fff" stroke-linecap="round" stroke-linejoin="round" stroke-width="2"/>
        <line id="Line_24" data-name="Line 24" x2="5.021" transform="translate(8.281)" fill="none" stroke="#fff" stroke-linecap="round" stroke-linejoin="round" stroke-width="2"/>
        <line id="Line_25" data-name="Line 25" x2="5.021" transform="translate(17.586)" fill="none" stroke="#fff" stroke-linecap="round" stroke-linejoin="round" stroke-width="2"/>
      </g>
      <g id="Group_65" data-name="Group 65" transform="translate(5.079 41.052)">
        <line id="Line_26" data-name="Line 26" y1="2.801" fill="none" stroke="#fff" stroke-linecap="round" stroke-linejoin="round" stroke-width="2"/>
        <line id="Line_27" data-name="Line 27" y1="2.801" transform="translate(6.927)" fill="none" stroke="#fff" stroke-linecap="round" stroke-linejoin="round" stroke-width="2"/>
        <line id="Line_28" data-name="Line 28" y1="2.801" transform="translate(13.846)" fill="none" stroke="#fff" stroke-linecap="round" stroke-linejoin="round" stroke-width="2"/>
        <line id="Line_29" data-name="Line 29" y1="2.801" transform="translate(20.766)" fill="none" stroke="#fff" stroke-linecap="round" stroke-linejoin="round" stroke-width="2"/>
      </g>
    </g>
    <path id="Path_255" data-name="Path 255" d="M4.11-7.99H3.22a5.273,5.273,0,0,1,.05.71c0,.18-.01.62-.01,1.14-.28.02-.54.03-.77.03a9.253,9.253,0,0,1-1.28-.08l.02.76a10.985,10.985,0,0,0,1.28.05c.21,0,.46-.01.74-.03-.01.44-.01.91-.01,1.31v.57c-1.15.49-2.19,1.36-2.19,2.19C1.05-.45,2.35.32,3.13.32c.54,0,.88-.3.88-1.23,0-.43-.02-1.32-.04-2.17a6.551,6.551,0,0,1,2.18-.39c.95,0,1.72.46,1.72,1.31,0,.92-.8,1.39-1.68,1.56a5.114,5.114,0,0,1-1.17.07L5.3.28A7.583,7.583,0,0,0,6.54.14C7.91-.19,8.67-.96,8.67-2.17S7.62-4.16,6.16-4.16a7.563,7.563,0,0,0-2.2.37v-.35c0-.4.01-.88.02-1.35a18.358,18.358,0,0,0,2.1-.35l-.02-.78A13.449,13.449,0,0,1,4-6.22c.01-.45.03-.84.04-1.08A6.415,6.415,0,0,1,4.11-7.99Zm3.1,1.11-.36.6a12.685,12.685,0,0,1,2.24,1.5l.41-.64A18.177,18.177,0,0,0,7.21-6.88ZM1.83-1.38c0-.45.61-1.03,1.43-1.41.01.73.03,1.41.03,1.77,0,.33-.14.49-.37.49C2.53-.53,1.83-.92,1.83-1.38Zm9.69-5.4h6.92V-5.6h.74V-7.47H15.35v-.89H14.6v.89H10.81V-5.6h.71Zm1.4,4.49a13.7,13.7,0,0,0,2.1-.94,11.2,11.2,0,0,0,2.35.94Zm.07,2.07V-1.67h4.04V-.22Zm.55-5.06h3.01a6.6,6.6,0,0,1-1.52,1.25,5.673,5.673,0,0,1-1.52-1.21Zm3.65-.62-.13.03H14.11a6.264,6.264,0,0,0,.46-.59l-.8-.15a6.607,6.607,0,0,1-2.84,2.25,2.285,2.285,0,0,1,.5.53,8.475,8.475,0,0,0,1.56-.98,6.648,6.648,0,0,0,1.35,1.17,14.339,14.339,0,0,1-3.95,1.31,2.478,2.478,0,0,1,.37.65c.5-.11,1.01-.24,1.52-.4V.75h.71V.42h4.04V.74h.75V-2.18q.66.165,1.35.27a3.019,3.019,0,0,1,.47-.71,13.391,13.391,0,0,1-3.88-1.05,6.946,6.946,0,0,0,1.97-1.92Zm6.64,2.78c-.17-.27-.92-1.4-1.2-1.77v-.63h1.14v-.69H22.63V-8.37h-.68v2.16h-1.4v.69h1.32a10.854,10.854,0,0,1-1.52,3.75,4.148,4.148,0,0,1,.38.64,10.441,10.441,0,0,0,1.22-2.79V.75h.68V-4.01c.3.5.65,1.12.79,1.44Zm2.02,1.38c-.91.5-1.85,1.01-2.48,1.33l.35.62c.68-.38,1.53-.87,2.33-1.34ZM24.09-3.08a7.254,7.254,0,0,1,1,1.34l.54-.38A7,7,0,0,0,24.6-3.41Zm3.95,1.39A13.414,13.414,0,0,0,29.4-3.05l-.57-.4A10.279,10.279,0,0,1,27.6-2.11a6.173,6.173,0,0,1-.6-1.3v-.4h2.52v-.63H27v-.77h2.16v-.58H27V-6.5h2.38v-.61H28.06c.19-.3.41-.69.62-1.06l-.73-.21a8.7,8.7,0,0,1-.58,1.24l.09.03H25.72l.18-.07a5.312,5.312,0,0,0-.6-1.15l-.58.19a7.462,7.462,0,0,1,.5,1.03H23.97v.61h2.31v.71H24.26v.58h2.02v.77H23.76v.63h2.52V-.07c0,.13-.03.17-.16.17s-.56.01-1,0a2.43,2.43,0,0,1,.21.68A3.739,3.739,0,0,0,26.66.65c.26-.12.34-.32.34-.72V-2A5.255,5.255,0,0,0,29.22.34a3.161,3.161,0,0,1,.48-.6,4.391,4.391,0,0,1-1.98-1.67Z" transform="translate(-19943 7832.358)" fill="#fff"/>
    <g id="Group_103" data-name="Group 103" transform="translate(-20043.488 7795.737)">
      <g id="Group_101" data-name="Group 101" transform="translate(190.541 0)">
        <path id="Path_25" data-name="Path 25" d="M241.645,195.078a105.3,105.3,0,0,0,.69-160.561" transform="translate(-237.127 -29.703)" fill="none" stroke="#fff" stroke-width="2"/>
        <path id="Polygon_5" data-name="Polygon 5" d="M2.507,0,5.014,5.731H0Z" transform="matrix(0.616, -0.788, 0.788, 0.616, 0, 3.951)" fill="#fff"/>
      </g>
      <g id="Group_102" data-name="Group 102" transform="translate(0 0)">
        <path id="Path_25-2" data-name="Path 25" d="M279.148,34.517a105.3,105.3,0,0,0-.69,160.561" transform="translate(-241.645 -34.517)" fill="none" stroke="#fff" stroke-width="2"/>
        <path id="Polygon_5-2" data-name="Polygon 5" d="M2.507,0,5.014,5.731H0Z" transform="matrix(-0.616, 0.788, -0.788, -0.616, 42.021, 161.423)" fill="#fff"/>
      </g>
    </g>
    <g id="Group_205" data-name="Group 205" transform="translate(-20092.512 7703.642)">
      <g id="Union_2" data-name="Union 2" transform="translate(116.512 64.358) rotate(180)" fill="none">
        <path d="M20.024,64a10,10,0,0,1-10-10V15.818L0,7.08H10.457A10,10,0,0,1,20.024,0H106a10,10,0,0,1,10,10V54a10,10,0,0,1-10,10Z" stroke="none"/>
        <path d="M 106.0002059936523 62.99990463256836 C 110.962760925293 62.99990463256836 115.0000991821289 58.96256637573242 115.0000991821289 53.99999618530273 L 115.0000991821289 9.999904632568359 C 115.0000991821289 5.03733491897583 110.962760925293 0.999996542930603 106.0002059936523 0.999996542930603 L 20.02409553527832 0.999996542930603 C 18.05648040771484 0.999996542930603 16.18783378601074 1.623258113861084 14.62015724182129 2.802396535873413 C 13.10275745391846 3.943719625473022 11.96403408050537 5.566519737243652 11.41377258300781 7.3718581199646 L 11.19783401489258 8.080304145812988 L 2.66918158531189 8.080304145812988 L 11.02420330047607 15.36288928985596 L 11.02420330047607 53.99999618530273 C 11.02420330047607 58.96256637573242 15.06154155731201 62.99990463256836 20.02409553527832 62.99990463256836 L 106.0002059936523 62.99990463256836 M 106.0002059936523 63.99990463256836 L 20.02409553527832 63.99990463256836 C 14.50169563293457 63.99990463256836 10.02420330047607 59.5233039855957 10.02420330047607 53.99999618530273 L 10.02420330047607 15.81781196594238 L 3.437218310864409e-06 7.080304145812988 L 10.45721912384033 7.080304145812988 C 11.70643424987793 2.981842756271362 15.51726531982422 -3.437218310864409e-06 20.02409553527832 -3.437218310864409e-06 L 106.0002059936523 -3.437218310864409e-06 C 111.5226058959961 -3.437218310864409e-06 116.0000991821289 4.477504253387451 116.0000991821289 9.999904632568359 L 116.0000991821289 53.99999618530273 C 116.0000991821289 59.5233039855957 111.5226058959961 63.99990463256836 106.0002059936523 63.99990463256836 Z" stroke="none" fill="#fff"/>
      </g>
      <path id="Path_254" data-name="Path 254" d="M3.82,3.98H.94v.6H3.82Zm.37,1.31H.42V5.9H4.19Zm-1,4.62v1.68H1.52V9.91Zm.65-.61H.87v3.35h.65v-.46H3.84ZM.89,8.56H3.85v-.6H.89Zm0-1.33H3.85V6.64H.89ZM5.68,4.61H7.39V6.39c0,.71.18.9.79.9h.69c.53,0,.71-.29.77-1.46a1.651,1.651,0,0,1-.62-.27c-.02.96-.06,1.09-.24,1.09h-.5c-.16,0-.19-.04-.19-.26V3.95H4.97v1.2A2.306,2.306,0,0,1,3.86,7.28a3.619,3.619,0,0,1,.54.49A2.931,2.931,0,0,0,5.68,5.16ZM8.56,7.9l-.13.03H4.32v.68H8.1a5.325,5.325,0,0,1-1.31,1.95A5.6,5.6,0,0,1,5.5,8.63l-.66.2a6.747,6.747,0,0,0,1.4,2.18,6.8,6.8,0,0,1-2.36,1.1,2.591,2.591,0,0,1,.4.65,7.653,7.653,0,0,0,2.51-1.24,6.815,6.815,0,0,0,2.38,1.23,3.185,3.185,0,0,1,.48-.63,6.349,6.349,0,0,1-2.3-1.08A6.489,6.489,0,0,0,9.04,8.09Zm5.6-3.31h1.63v.89H14.16Zm-.69.89H11.88V4.59h1.59Zm3.01-.89h1.68v.89H16.48Zm1.28,4.15H13.71V8.2h4.05Zm0,.99H13.71V9.18h4.05Zm0,1.01H13.71v-.56h4.05Zm-4.74-3v3.45h5.45V7.74H15.23c.03-.18.07-.37.1-.58H19.3V6.57H15.43c.03-.18.05-.37.08-.54h3.38V4.05H11.18V6.03h3.58c-.02.17-.04.36-.06.54H10.72v.59h3.89c-.03.2-.07.4-.1.58Zm6.53,4.01H12.01V7.89h-.74v4.88h.74v-.42h7.54Zm4.88-7.61-.9-.06a3.431,3.431,0,0,1-.01.71c-.02.29-.06.65-.11,1.05a9.915,9.915,0,0,1-2.19-.37l-.04.73a13.792,13.792,0,0,0,2.15.35c-.08.59-.16,1.22-.22,1.81a8.924,8.924,0,0,1-2.13-.41l-.04.77a9.883,9.883,0,0,0,2.09.36c-.05.47-.08.87-.08,1.15,0,1.64,1.09,2.23,2.45,2.23,1.98,0,3.3-.9,3.3-2.39a3.282,3.282,0,0,0-1.02-2.31l-.88.18a2.774,2.774,0,0,1,1.09,2.04c0,1.03-.97,1.7-2.49,1.7a1.462,1.462,0,0,1-1.68-1.57c0-.24.02-.59.06-.99h.36a18.114,18.114,0,0,0,1.96-.1l.02-.76a14.707,14.707,0,0,1-2.08.13h-.19c.07-.59.15-1.22.22-1.81h.07c.81,0,1.39-.03,2.03-.09l.02-.75a13.485,13.485,0,0,1-2.03.13c.06-.42.11-.77.14-1.03A5.581,5.581,0,0,1,24.43,4.14Zm10.95,7.12V5.52h3.59V4.76h-7.9v.76h3.5v5.74H30.55V12h8.92v-.74Zm12.36-.58h-2.4V9.93h2.4Zm-2.4-2.04h2.4v.7h-2.4ZM42.45,6.87V6.15H44.6v.72Zm5.13-.72v.72H45.34V6.15Zm1.93,3.19H48.48V8.09H45.34v-.7h2.98V5.63H45.34V5.05h3.98V4.44H45.34v-.8H44.6v.8H40.7v.61h3.9v.58H41.74V7.39H44.6v.7H41.46v.55H44.6v.7H40.51v.59H44.6v.75H41.37v.57H44.6v.69c0,.17-.06.23-.25.24-.17,0-.77.01-1.37-.01a2.466,2.466,0,0,1,.26.63,5.971,5.971,0,0,0,1.66-.12c.3-.11.44-.28.44-.74v-.69h2.4v.45h.74V9.93h1.03Zm4.92-5.2-.9-.06a3.431,3.431,0,0,1-.01.71c-.02.29-.06.65-.11,1.05a9.915,9.915,0,0,1-2.19-.37l-.04.73a13.792,13.792,0,0,0,2.15.35c-.08.59-.16,1.22-.22,1.81a8.924,8.924,0,0,1-2.13-.41l-.04.77a9.883,9.883,0,0,0,2.09.36c-.05.47-.08.87-.08,1.15,0,1.64,1.09,2.23,2.45,2.23,1.98,0,3.3-.9,3.3-2.39a3.282,3.282,0,0,0-1.02-2.31l-.88.18a2.774,2.774,0,0,1,1.09,2.04c0,1.03-.97,1.7-2.49,1.7a1.462,1.462,0,0,1-1.68-1.57c0-.24.02-.59.06-.99h.36a18.114,18.114,0,0,0,1.96-.1l.02-.76a14.707,14.707,0,0,1-2.08.13h-.19c.07-.59.15-1.22.22-1.81h.07c.81,0,1.39-.03,2.03-.09l.02-.75a13.485,13.485,0,0,1-2.03.13c.06-.42.11-.77.14-1.03A5.582,5.582,0,0,1,54.43,4.14ZM2.35,18.69A11.667,11.667,0,0,1,.21,22.75a3.914,3.914,0,0,1,.39.76,10.933,10.933,0,0,0,.95-1.34v5.59h.72V20.81a18.042,18.042,0,0,0,.77-1.93Zm3.17,1.64H7.88a4.443,4.443,0,0,1-1.15,1.33,4.668,4.668,0,0,1-1.23-1.3Zm3.94,0v-.61H5.88a8.588,8.588,0,0,0,.44-.92l-.67-.17a6.953,6.953,0,0,1-1.88,2.71V19.82H3.12v6.29h.65V21.43a4.594,4.594,0,0,1,.5.4,7.33,7.33,0,0,0,.87-.95,5.419,5.419,0,0,0,1.07,1.15,8.493,8.493,0,0,1-2.42,1,3.943,3.943,0,0,1,.45.58,9.317,9.317,0,0,0,2.53-1.17,7.629,7.629,0,0,0,2.6,1.08,3.533,3.533,0,0,1,.41-.6,7.62,7.62,0,0,1-2.48-.89,5.38,5.38,0,0,0,1.36-1.7ZM7.91,24.1a7.071,7.071,0,0,1-3.24,1.56,2.272,2.272,0,0,1,.39.49,7.581,7.581,0,0,0,3.42-1.82Zm-.95-.96a6.163,6.163,0,0,1-2.42,1.25,3.446,3.446,0,0,1,.42.44,6.676,6.676,0,0,0,2.57-1.46Zm1.88,2.05c-.89,1.01-2.7,1.64-4.71,1.94a2.516,2.516,0,0,1,.39.59c2.11-.37,3.97-1.08,4.96-2.26Zm4.69-.2-1.09.36V22.87h1v-.69h-1V20.01h1.15v-.7h-3.1v.7h1.24v2.17H10.6v.69h1.13v2.7c-.51.17-.97.31-1.34.42l.17.75c.89-.29,2.03-.68,3.1-1.04Zm1.23-3.37h1.52v1.27H14.76Zm0-1.88h1.52V21H14.76ZM18.45,21H16.92V19.74h1.53Zm0,1.89H16.92V21.62h1.53Zm-1.47,3.87V25.39h2.33v-.68H16.98V23.54h2.18V19.09H14.08v4.45h2.15v1.17H13.96v.68h2.27v1.37H13.19v.68h6.44v-.68Zm7.45-7.62-.9-.06a3.431,3.431,0,0,1-.01.71c-.02.29-.06.65-.11,1.05a9.915,9.915,0,0,1-2.19-.37l-.04.73a13.792,13.792,0,0,0,2.15.35c-.08.59-.16,1.22-.22,1.81a8.924,8.924,0,0,1-2.13-.41l-.04.77a9.883,9.883,0,0,0,2.09.36c-.05.47-.08.87-.08,1.15,0,1.64,1.09,2.23,2.45,2.23,1.98,0,3.3-.9,3.3-2.39a3.282,3.282,0,0,0-1.02-2.31l-.88.18a2.774,2.774,0,0,1,1.09,2.04c0,1.03-.97,1.7-2.49,1.7a1.462,1.462,0,0,1-1.68-1.57c0-.24.02-.59.06-.99h.36a18.114,18.114,0,0,0,1.96-.1l.02-.76a14.707,14.707,0,0,1-2.08.13h-.19c.07-.59.15-1.22.22-1.81h.07c.81,0,1.39-.03,2.03-.09l.02-.75a13.485,13.485,0,0,1-2.03.13c.06-.42.11-.77.14-1.03A5.581,5.581,0,0,1,24.43,19.14Zm13.25,6.74v.97H32.99v-.97Zm-.64-2.68v.85H32.99V23.2Zm-4.05,1.42h4.78V22.63H32.29v5.14h.7v-.34h4.69v.32h.73V25.3H32.99Zm6.55-5.23H36.15a5.251,5.251,0,0,0,.31-.63l-.71-.17a4.693,4.693,0,0,1-.88,1.38v-.58H32.25a4.978,4.978,0,0,0,.29-.62l-.69-.18a5.479,5.479,0,0,1-1.44,2.08,4.593,4.593,0,0,1,.61.4,6.819,6.819,0,0,0,.86-1.06h.43a6.3,6.3,0,0,1,.47,1.02l.66-.2a4.539,4.539,0,0,0-.39-.82h1.78a4.005,4.005,0,0,1-.62.55,3.63,3.63,0,0,1,.41.23v.63H30.85v1.87h.7V22.01H38.5v1.28h.72V21.42H35.33v-.78h-.15a6.958,6.958,0,0,0,.56-.63h.8a4.645,4.645,0,0,1,.67,1.05l.68-.23a4.974,4.974,0,0,0-.54-.82h2.19Zm3.99,5.6-1.09.36V22.87h1v-.69h-1V20.01h1.15v-.7h-3.1v.7h1.24v2.17H40.6v.69h1.13v2.7c-.51.17-.97.31-1.34.42l.17.75c.89-.29,2.03-.68,3.1-1.04Zm1.23-3.37h1.52v1.27H44.76Zm0-1.88h1.52V21H44.76ZM48.45,21H46.92V19.74h1.53Zm0,1.89H46.92V21.62h1.53Zm-1.47,3.87V25.39h2.33v-.68H46.98V23.54h2.18V19.09H44.08v4.45h2.15v1.17H43.96v.68h2.27v1.37H43.19v.68h6.44v-.68Zm7.45-7.62-.9-.06a3.431,3.431,0,0,1-.01.71c-.02.29-.06.65-.11,1.05a9.915,9.915,0,0,1-2.19-.37l-.04.73a13.792,13.792,0,0,0,2.15.35c-.08.59-.16,1.22-.22,1.81a8.924,8.924,0,0,1-2.13-.41l-.04.77a9.883,9.883,0,0,0,2.09.36c-.05.47-.08.87-.08,1.15,0,1.64,1.09,2.23,2.45,2.23,1.98,0,3.3-.9,3.3-2.39a3.282,3.282,0,0,0-1.02-2.31l-.88.18a2.774,2.774,0,0,1,1.09,2.04c0,1.03-.97,1.7-2.49,1.7a1.462,1.462,0,0,1-1.68-1.57c0-.24.02-.59.06-.99h.36a18.114,18.114,0,0,0,1.96-.1l.02-.76a14.707,14.707,0,0,1-2.08.13h-.19c.07-.59.15-1.22.22-1.81h.07c.81,0,1.39-.03,2.03-.09l.02-.75a13.485,13.485,0,0,1-2.03.13c.06-.42.11-.77.14-1.03A5.582,5.582,0,0,1,54.43,19.14ZM2.69,33.64A11.464,11.464,0,0,1,.42,37.58a4.736,4.736,0,0,1,.41.72,8.555,8.555,0,0,0,.93-1.21v5.66h.73V35.87a17.836,17.836,0,0,0,.89-2.01Zm3.43,3.74v2.11H4.4V37.38Zm.69,2.77V36.72H3.69v4.12H4.4v-.69ZM9.59,34.6H3.4v.72H8.13v6.42c0,.2-.07.25-.28.26s-.95.02-1.75-.01a2.889,2.889,0,0,1,.27.76,7.92,7.92,0,0,0,2-.14c.35-.12.49-.34.49-.87V35.32h.73Zm4.79-.4-.93-.1a10.448,10.448,0,0,1-.26,2.18c-.6.05-1.19.1-1.52.11a8.805,8.805,0,0,1-.89,0l.08.87c.26-.04.67-.09.9-.12.26-.03.74-.09,1.27-.14a16.008,16.008,0,0,1-2.11,4.99l.82.32a20.57,20.57,0,0,0,2.1-5.39c.44-.04.84-.07,1.08-.07.63,0,1.06.17,1.06,1.09A8.47,8.47,0,0,1,15.5,41a.826.826,0,0,1-.87.51,4.866,4.866,0,0,1-1.23-.2l.13.83a5.437,5.437,0,0,0,1.18.15,1.408,1.408,0,0,0,1.46-.84,9.5,9.5,0,0,0,.58-3.61c0-1.35-.73-1.69-1.62-1.69-.24,0-.66.03-1.13.07.11-.55.2-1.14.26-1.43C14.3,34.6,14.34,34.38,14.38,34.2Zm3.44,1.06-.73.33a11.748,11.748,0,0,1,1.78,3.62l.78-.37A17.786,17.786,0,0,0,17.82,35.26Zm5.53-1.1-.2.76c.76.21,2.93.65,3.88.78l.19-.77A27.315,27.315,0,0,1,23.35,34.16Zm-.22,1.82-.84-.11a35.708,35.708,0,0,1-.51,4.06l.74.18a1.579,1.579,0,0,1,.3-.5,3.92,3.92,0,0,1,3.1-1.34c1.02,0,1.76.57,1.76,1.37,0,1.37-1.54,2.28-4.7,1.89l.24.82c3.72.31,5.3-.9,5.3-2.69a2.271,2.271,0,0,0-2.55-2.09,4.8,4.8,0,0,0-3.26,1.22C22.82,38.15,22.99,36.66,23.13,35.98Zm9.56-2.34a11.464,11.464,0,0,1-2.27,3.94,4.736,4.736,0,0,1,.41.72,8.555,8.555,0,0,0,.93-1.21v5.66h.73V35.87a17.836,17.836,0,0,0,.89-2.01Zm3.43,3.74v2.11H34.4V37.38Zm.69,2.77V36.72H33.69v4.12h.71v-.69Zm2.78-5.55H33.4v.72h4.73v6.42c0,.2-.07.25-.28.26s-.95.02-1.75-.01a2.889,2.889,0,0,1,.27.76,7.92,7.92,0,0,0,2-.14c.35-.12.49-.34.49-.87V35.32h.73Zm2.97,6.35c0-.46.52-.83,1.47-.83a4.435,4.435,0,0,1,.97.1c0,.26.01.5.01.67,0,.69-.49.87-1.06.87C42.96,41.76,42.56,41.41,42.56,40.95Zm3.17-6.89h-.85a5.488,5.488,0,0,1,.04.6v.71h-.46a18.169,18.169,0,0,1-2.56-.22l.01.74c.63.07,1.86.17,2.56.17h.44v1.4h-.54a18.5,18.5,0,0,1-2.52-.19l.01.75c.72.08,1.82.14,2.5.14h.57c.01.43.03.91.04,1.36a5.727,5.727,0,0,0-.84-.06c-1.44,0-2.31.62-2.31,1.53,0,.96.78,1.47,2.22,1.47,1.3,0,1.76-.71,1.76-1.4,0-.16-.01-.37-.02-.62a7.373,7.373,0,0,1,2.42,1.51l.46-.71a7.958,7.958,0,0,0-2.92-1.56c-.02-.48-.05-1.02-.07-1.54.95-.03,1.83-.11,2.77-.23l.01-.75a24.884,24.884,0,0,1-2.79.27v-1.4c.96-.05,1.91-.14,2.7-.23l.01-.73a24.864,24.864,0,0,1-2.71.27c0-.26.01-.48.01-.61A5.006,5.006,0,0,1,45.73,34.06Zm5.06,1.36.09.87c1.08-.23,3.63-.47,4.7-.59a4.062,4.062,0,0,0-1.87,3.38c0,2.23,2.11,3.22,3.96,3.29l.29-.83c-1.63-.06-3.45-.68-3.45-2.63a3.52,3.52,0,0,1,2.29-3.17,8.376,8.376,0,0,1,1.96-.16v-.8c-.67.03-1.61.09-2.7.18-1.84.15-3.73.34-4.38.41C51.49,35.39,51.17,35.41,50.79,35.42Zm6.53,1.39-.51.22a9.283,9.283,0,0,1,.82,1.41l.51-.24A11.869,11.869,0,0,0,57.32,36.81Zm1.09-.42-.49.23a9.269,9.269,0,0,1,.84,1.4l.52-.25A13.207,13.207,0,0,0,58.41,36.39Z" transform="translate(23.011 6.447)" fill="#fff"/>
    </g>
    <g id="Group_206" data-name="Group 206" transform="translate(-19870.488 7703.642)">
      <g id="Union_6" data-name="Union 6" transform="translate(0.487 0.358)" fill="none">
        <path d="M20.024,64a10,10,0,0,1-9.567-7.079H0l10.024-8.738V10a10,10,0,0,1,10-10H106a10,10,0,0,1,10,10V54a10,10,0,0,1-10,10Z" stroke="none"/>
        <path d="M 106.0002059936523 62.99990463256836 C 110.962760925293 62.99990463256836 115.0000991821289 58.96256637573242 115.0000991821289 53.99999618530273 L 115.0000991821289 9.999904632568359 C 115.0000991821289 5.03733491897583 110.962760925293 0.999996542930603 106.0002059936523 0.999996542930603 L 20.02409553527832 0.999996542930603 C 15.06154155731201 0.999996542930603 11.02420330047607 5.03733491897583 11.02420330047607 9.999904632568359 L 11.02420330047607 48.63708877563477 L 2.66899299621582 55.92050552368164 L 11.19794178009033 55.92050552368164 L 11.41391086578369 56.62887191772461 C 11.96431159973145 58.43407440185547 13.10306453704834 60.05670547485352 14.62043380737305 61.19784164428711 C 16.18803405761719 62.37676620483398 18.05658721923828 62.99990463256836 20.02409553527832 62.99990463256836 L 106.0002059936523 62.99990463256836 M 106.0002059936523 63.99990463256836 L 20.02409553527832 63.99990463256836 C 15.51760387420654 63.99990463256836 11.70691108703613 61.01874923706055 10.45738792419434 56.92050552368164 L 3.437218310864409e-06 56.92050552368164 L 10.02420330047607 48.18219757080078 L 10.02420330047607 9.999904632568359 C 10.02420330047607 4.477504253387451 14.50169563293457 -3.437218310864409e-06 20.02409553527832 -3.437218310864409e-06 L 106.0002059936523 -3.437218310864409e-06 C 111.5226058959961 -3.437218310864409e-06 116.0000991821289 4.477504253387451 116.0000991821289 9.999904632568359 L 116.0000991821289 53.99999618530273 C 116.0000991821289 59.5233039855957 111.5226058959961 63.99990463256836 106.0002059936523 63.99990463256836 Z" stroke="none" fill="#fff"/>
      </g>
      <path id="Path_253" data-name="Path 253" d="M3.99,11.68V9.22h4.1v2.46ZM6.47,5.3a8.1,8.1,0,0,1-1.8,2.34A12.928,12.928,0,0,0,2.78,6.03a8.118,8.118,0,0,0,.71-.73ZM8.84,8.54H4.75A9.435,9.435,0,0,0,7.48,4.85l-.49-.26-.14.04H4.03c.21-.29.4-.58.57-.86L3.77,3.6A8.421,8.421,0,0,1,.41,6.85a2.536,2.536,0,0,1,.52.57,10.815,10.815,0,0,0,1.31-.91A12.451,12.451,0,0,1,4.07,8.15,11.149,11.149,0,0,1,.36,10.07a2.259,2.259,0,0,1,.44.65A12.558,12.558,0,0,0,3.26,9.6v3.16h.73v-.4h4.1v.42h.75Zm8.76,3H12.4V9.02h5.2Zm1.86-5.38V5.43H15.39V3.63H14.6v1.8H10.57v.73H14.6V8.31H11.65v4.47h.75v-.53h5.2v.49h.79V8.31h-3V6.16ZM28.1,4.77V5.8H22.23V4.77ZM22.23,6.42h6.61V4.14H21.48V6.91a10.824,10.824,0,0,1-1.08,5.47,3.171,3.171,0,0,1,.65.38c1.03-1.66,1.18-4.14,1.18-5.85Zm3.76,5.45V10.78h2.68v-.6H25.99V9.31l1.98-.08a4.9,4.9,0,0,1,.51.52l.6-.41A11.039,11.039,0,0,0,26.97,7.7l-.56.36c.29.18.6.4.9.62-1.02.04-2.04.07-2.95.1.24-.33.5-.72.73-1.09h4.05V7.08H22.25v.61h2.01c-.2.38-.45.78-.67,1.11l-1.13.03.05.61c.76-.03,1.71-.06,2.75-.11v.85H22.7v.6h2.56v1.09H21.94v.61h7.5v-.61ZM30.94,9.3a7.187,7.187,0,0,1-.65,2.38,2.6,2.6,0,0,1,.58.28,8.8,8.8,0,0,0,.71-2.54ZM33,9.41a9.806,9.806,0,0,1,.61,1.83l.57-.19a9.271,9.271,0,0,0-.64-1.82Zm-.26-2.34a7.625,7.625,0,0,1,.47.9l-1.48.06a34.311,34.311,0,0,0,1.99-2.98l-.63-.28a20.366,20.366,0,0,1-1.01,1.79,8.031,8.031,0,0,0-.58-.65c.37-.56.79-1.35,1.13-2.01l-.65-.26a12.646,12.646,0,0,1-.9,1.86c-.1-.09-.19-.18-.29-.26l-.38.49A9.314,9.314,0,0,1,31.7,7.14c-.22.33-.45.65-.66.92l-.66.03.06.66c.46-.03,1-.06,1.57-.09v4.12h.66V8.62l.79-.05a4.653,4.653,0,0,1,.18.58l.56-.25a7.918,7.918,0,0,0-.94-2.04Zm5.45,2.38v2.07H35.32V9.45Zm-3.55,3.3h.68v-.57h2.87v.53h.71V8.78H34.64Zm.42-5.85v.69h3.31V6.9Zm1.18-3.17a10.018,10.018,0,0,1-2.67,3.24,2.744,2.744,0,0,1,.44.63,11.356,11.356,0,0,0,2.63-3.11,14.151,14.151,0,0,0,2.68,3.05,5.4,5.4,0,0,1,.46-.68,12.113,12.113,0,0,1-2.81-3.13ZM47.99,5.3H44.63V4.54h3.36Zm0,1.31H44.63V5.83h3.36Zm.72-2.64H43.93v3.2h4.78Zm-5.67.82a6.44,6.44,0,0,0-1.7-1.07l-.42.54a7.08,7.08,0,0,1,1.69,1.12Zm-.49,2.58a7.141,7.141,0,0,0-1.72-.99l-.42.55a7.291,7.291,0,0,1,1.71,1.05Zm-.3,1.61a28.387,28.387,0,0,1-1.62,3.19l.66.46c.51-.93,1.09-2.16,1.53-3.21Zm7.32-.57V7.79H43v.62h1.41a6.337,6.337,0,0,1-1.82,1.96,3.435,3.435,0,0,1,.53.46,7.459,7.459,0,0,0,1.15-1.11h.97A6.827,6.827,0,0,1,43.12,12a4.049,4.049,0,0,1,.52.48,8.35,8.35,0,0,0,2.34-2.76h.99a5.885,5.885,0,0,1-1.83,2.61,5.106,5.106,0,0,1,.56.42,7.281,7.281,0,0,0,1.96-3.03h.83a5.4,5.4,0,0,1-.41,2.29c-.08.1-.16.11-.31.11a7.627,7.627,0,0,1-.83-.04,1.618,1.618,0,0,1,.18.64,6.529,6.529,0,0,0,.98.01.8.8,0,0,0,.57-.26c.25-.29.4-1.05.54-3.04.02-.11.03-.31.03-.31H44.73a7.453,7.453,0,0,0,.43-.71Zm8.53-2.2H56.23V4.68H58.1Zm.7-2.14H55.56V6.81H58.8Zm-2.68,7.7V10.18h1.82v1.59Zm-2.28,0H52.05V10.18h1.79Zm-.08-5.56H51.91V4.68h1.85Zm5.7,2.03V7.57H54.79a5.675,5.675,0,0,0,.45-.8l-.72-.23-.06.13V4.07H51.24V6.81h3.15a4.209,4.209,0,0,1-.51.76H50.56v.67h2.67a8.48,8.48,0,0,1-2.92,1.57,3.046,3.046,0,0,1,.46.56,6.623,6.623,0,0,0,.62-.24v2.65h.66v-.37h1.79v.34h.69V9.55H52.58a7.283,7.283,0,0,0,1.67-1.31h1.51a6.192,6.192,0,0,0,1.61,1.31H55.46v3.23h.66v-.37h1.82v.34h.69v-2.6c.21.08.43.15.64.21a3.357,3.357,0,0,1,.47-.6,7.192,7.192,0,0,1-3.05-1.52Zm9.9-3.31H65.35V3.62h-.74V4.93H60.65v.72h8.71ZM66.18,6.37A14.954,14.954,0,0,1,68.8,8.64l.65-.51a15.554,15.554,0,0,0-2.68-2.21ZM63.2,5.96a8.177,8.177,0,0,1-2.63,2.19,4.272,4.272,0,0,1,.61.59,10.573,10.573,0,0,0,2.77-2.49Zm3.24,1.71a6.1,6.1,0,0,1-1.42,2.25,6.416,6.416,0,0,1-1.42-2.2l-.71.22a7.815,7.815,0,0,0,1.56,2.48,9.715,9.715,0,0,1-4.02,1.68,2.962,2.962,0,0,1,.47.7A10.757,10.757,0,0,0,65,10.94a8.832,8.832,0,0,0,4.12,1.82,3.046,3.046,0,0,1,.49-.7,8.6,8.6,0,0,1-4.03-1.64,7,7,0,0,0,1.63-2.53ZM76.9,5a8.253,8.253,0,0,1-.53.98H74.46A6.3,6.3,0,0,0,75.22,5Zm1.54,2.64c-.02.06-.06.07-.2.07h-.66c-.21,0-.23-.02-.23-.18V6.59h1.09ZM74.55,6.59h.98a1.524,1.524,0,0,1-.98,1.5ZM73.48,8.53l-.1-.69c-.33.11-.66.22-.99.32V6.32H73.4a2.058,2.058,0,0,1,.33.33c.06-.05.13-.1.19-.16V9.25h.63V8.1a1.3,1.3,0,0,1,.33.41,1.966,1.966,0,0,0,1.21-1.92h.69v.94c0,.56.14.69.73.69h.93V9.23h.65V5.98H77.1a8.824,8.824,0,0,0,.72-1.31l-.47-.31-.11.04H75.57q.165-.33.3-.66l-.7-.11a5.719,5.719,0,0,1-1.71,2.39V5.64H72.39v-2H71.7v2H70.45v.68H71.7V8.37c-.52.16-1,.31-1.38.41l.19.72,1.19-.39V11.9c0,.15-.05.18-.17.18s-.51.01-.94,0a2.97,2.97,0,0,1,.22.68,3.135,3.135,0,0,0,1.24-.13c.25-.12.34-.32.34-.73V8.89Zm5.99,1.72V9.62h-2.8c.05-.28.08-.57.11-.89H76.1c-.03.32-.06.62-.11.89H73.36v.63h2.46c-.34.99-1.09,1.61-2.81,1.96a1.987,1.987,0,0,1,.37.57c1.78-.41,2.62-1.11,3.03-2.17a3.821,3.821,0,0,0,2.76,2.12,2.407,2.407,0,0,1,.45-.61,3.437,3.437,0,0,1-2.66-1.87Zm3.59.46c0,.99.34,1.47,2.2,1.47a21.5,21.5,0,0,0,3.14-.2l.04-.86a16.064,16.064,0,0,1-3.12.29c-1.19,0-1.45-.22-1.45-.91V7.52c1.77-.36,3.61-.73,3.78-.76a9.416,9.416,0,0,1-1.78,2.38l.7.42a15.221,15.221,0,0,0,2.05-2.91c.07-.13.17-.3.24-.4l-.59-.46a2.025,2.025,0,0,1-.53.18c-.42.09-2.17.45-3.87.78V5.19a5.7,5.7,0,0,1,.07-.92h-.95a5.615,5.615,0,0,1,.07.92V6.9c-1.06.2-2.01.37-2.46.43l.15.83c.41-.09,1.3-.27,2.31-.48ZM2.27,19.67l-.57.61a20.768,20.768,0,0,1,2.49,2.09l.63-.63A21.9,21.9,0,0,0,2.27,19.67Zm-.86,6.7.53.82a10.961,10.961,0,0,0,3.93-1.55,9.991,9.991,0,0,0,3.36-3.56l-.48-.85a9.42,9.42,0,0,1-3.34,3.68A10.325,10.325,0,0,1,1.41,26.37Zm13.95-7.22-.91-.29a3.612,3.612,0,0,1-.32.79,9.164,9.164,0,0,1-3.21,3.48l.67.52A10.909,10.909,0,0,0,14.24,21h3.38a8.355,8.355,0,0,1-1.36,2.77c-.7-.49-1.45-.97-2.11-1.35l-.54.55c.64.4,1.4.92,2.12,1.44a8.772,8.772,0,0,1-3.87,2.41l.72.62a9.489,9.489,0,0,0,3.81-2.54c.41.33.79.64,1.09.91l.59-.69c-.32-.26-.72-.57-1.14-.88a10.066,10.066,0,0,0,1.56-3.11,3.282,3.282,0,0,1,.24-.54l-.66-.4a1.993,1.993,0,0,1-.66.1H14.7a3.354,3.354,0,0,0,.21-.36C15.01,19.75,15.19,19.41,15.36,19.15Zm5.66,3.52v.98c.31-.03.84-.05,1.39-.05H27.9c.45,0,.87.04,1.07.05v-.98c-.22.02-.58.05-1.08.05H22.41C21.85,22.72,21.32,22.69,21.02,22.67Zm14.22-2.76c.07.23.17.53.29.9a20.9,20.9,0,0,1-3.95-.12l.02.8a25.693,25.693,0,0,0,4.2.02,13.358,13.358,0,0,0,1.21,2.28c-.36-.04-1.1-.1-1.66-.15l-.06.67a22.6,22.6,0,0,1,2.41.27l.41-.56c-.15-.17-.3-.34-.44-.53a10.64,10.64,0,0,1-1.12-2.06,14.867,14.867,0,0,0,2.07-.41l-.09-.78a12.844,12.844,0,0,1-2.23.49,11.948,11.948,0,0,1-.46-1.71l-.85.11C35.08,19.39,35.17,19.7,35.24,19.91Zm-2.12,3.97-.78-.18a3.9,3.9,0,0,0-.48,1.66c0,1.36,1.2,2.05,3.1,2.06a14.523,14.523,0,0,0,2.58-.22l.04-.8a11.147,11.147,0,0,1-2.58.25c-1.48-.01-2.35-.43-2.35-1.38A2.573,2.573,0,0,1,33.12,23.88Zm12.35-4.3-.88-.36c-.12.29-.25.54-.37.77a70.975,70.975,0,0,0-3.46,7.09l.86.3a15.98,15.98,0,0,1,.86-2.28c.39-.78,1.14-1.6,1.95-1.6a.675.675,0,0,1,.73.7c.03.55.01,1.32.04,1.9a1.3,1.3,0,0,0,1.45,1.27c1.45,0,2.29-1.12,2.82-2.73l-.66-.54c-.26,1.06-.92,2.44-2.03,2.44a.72.72,0,0,1-.81-.71c-.03-.49-.02-1.26-.04-1.85a1.128,1.128,0,0,0-1.17-1.21,2.2,2.2,0,0,0-1.49.62c.52-.97,1.44-2.63,1.88-3.32C45.27,19.88,45.38,19.7,45.47,19.58Zm9.09.67v.8a23.505,23.505,0,0,0,4.11,0v-.81A17.109,17.109,0,0,1,54.56,20.25Zm.39,4.07-.72-.07a5.374,5.374,0,0,0-.17,1.18c0,.94.75,1.5,2.43,1.5a13.552,13.552,0,0,0,2.5-.21l-.02-.84a11.032,11.032,0,0,1-2.48.26c-1.36,0-1.69-.44-1.69-.9A3.492,3.492,0,0,1,54.95,24.32Zm-2.3-4.84-.89-.08a4.376,4.376,0,0,1-.07.71,28.128,28.128,0,0,0-.45,4.01,12.591,12.591,0,0,0,.37,3.21l.72-.05c-.01-.1-.02-.24-.03-.35a1.93,1.93,0,0,1,.05-.45,20.409,20.409,0,0,1,.71-2.24l-.42-.32c-.17.41-.41,1.01-.58,1.46a10.967,10.967,0,0,1-.09-1.4,23.22,23.22,0,0,1,.5-3.83C52.51,19.97,52.6,19.65,52.65,19.48Zm8.99.9h6.75v1.44h.77V19.69h-3.8V18.63h-.77v1.06h-3.7v2.13h.75Zm5.11,2.76a4.586,4.586,0,0,1-1.39,2.34c-.78-.29-1.57-.56-2.31-.78.27-.48.56-1.02.84-1.56Zm2.66,0v-.7H64.25c.25-.5.5-.99.71-1.44l-.76-.17c-.23.49-.51,1.04-.79,1.61H60.6v.7h2.44c-.46.88-.94,1.74-1.32,2.37l.76.2c.08-.13.16-.27.25-.42.63.19,1.3.43,1.96.69a9.855,9.855,0,0,1-3.86,1.13,3.026,3.026,0,0,1,.45.67,9.8,9.8,0,0,0,4.21-1.48,17.905,17.905,0,0,1,2.9,1.48l.54-.62a19.4,19.4,0,0,0-2.81-1.38,5.749,5.749,0,0,0,1.48-2.64Zm7.79-.93A11.085,11.085,0,0,1,79,25.92l.73-.35a10.588,10.588,0,0,0-1.88-3.69Zm-5.8,0a7.543,7.543,0,0,1-1.13,3.6l.67.41a8.675,8.675,0,0,0,1.18-3.87Zm1.74-2.96a15.146,15.146,0,0,1,3.42,1.73l.47-.65a17.04,17.04,0,0,0-3.42-1.65Zm-.07,2.15v4.99c0,.97.29,1.24,1.35,1.24h1.94c1.08,0,1.32-.55,1.42-2.43a1.857,1.857,0,0,1-.69-.34c-.08,1.73-.17,2.09-.77,2.09H74.48c-.55,0-.66-.09-.66-.55v-5ZM83.4,19.21l-1.01-.01a5.278,5.278,0,0,1,.08,1.02c0,1.05-.1,3.58-.1,5.06,0,1.63.99,2.23,2.43,2.23a5.026,5.026,0,0,0,4.18-2.21l-.57-.68a4.167,4.167,0,0,1-3.58,2.07c-.95,0-1.64-.39-1.64-1.49,0-1.49.07-3.85.12-4.98A8.61,8.61,0,0,1,83.4,19.21ZM.85,35.36l.09.87c1.08-.23,3.63-.47,4.7-.59a4.062,4.062,0,0,0-1.87,3.38c0,2.23,2.11,3.22,3.96,3.29l.29-.83c-1.63-.06-3.45-.68-3.45-2.64a3.517,3.517,0,0,1,2.29-3.16,8.376,8.376,0,0,1,1.96-.16v-.8c-.67.03-1.61.08-2.7.18-1.84.15-3.73.34-4.38.41C1.55,35.33,1.23,35.35.85,35.36Zm12.96-1.35h-.89a5.273,5.273,0,0,1,.05.71c0,.18-.01.62-.01,1.14-.28.02-.54.03-.77.03a9.253,9.253,0,0,1-1.28-.08l.02.76a10.984,10.984,0,0,0,1.28.05c.21,0,.46-.01.74-.03-.01.44-.01.91-.01,1.31v.57c-1.15.49-2.19,1.36-2.19,2.19,0,.89,1.3,1.66,2.08,1.66.54,0,.88-.3.88-1.23,0-.43-.02-1.32-.04-2.17a6.551,6.551,0,0,1,2.18-.39c.95,0,1.72.46,1.72,1.31,0,.92-.8,1.39-1.68,1.56a5.114,5.114,0,0,1-1.17.07l.28.81a7.583,7.583,0,0,0,1.24-.14c1.37-.33,2.13-1.1,2.13-2.31s-1.05-1.99-2.51-1.99a7.563,7.563,0,0,0-2.2.37v-.35c0-.4.01-.88.02-1.35a18.358,18.358,0,0,0,2.1-.35l-.02-.78a13.448,13.448,0,0,1-2.06.4c.01-.45.03-.84.04-1.08A6.416,6.416,0,0,1,13.81,34.01Zm3.1,1.11-.36.6a12.685,12.685,0,0,1,2.24,1.5l.41-.64A18.177,18.177,0,0,0,16.91,35.12Zm-5.38,5.5c0-.45.61-1.03,1.43-1.41.01.73.03,1.41.03,1.77,0,.33-.14.49-.37.49C12.23,41.47,11.53,41.08,11.53,40.62Zm11.13-6.98a11.1,11.1,0,0,1-2.71,4.05,3.32,3.32,0,0,1,.46.74,10.467,10.467,0,0,0,1.18-1.35v5.69h.73V35.98a15.531,15.531,0,0,0,1.06-2.12Zm6.6,4.96v-.72H26.44V35.11a22.364,22.364,0,0,0,2.42-.61l-.55-.62a29.275,29.275,0,0,1-5.23,1.08,2.984,2.984,0,0,1,.23.63c.76-.09,1.59-.21,2.39-.35v2.64H22.75v.72H25.7v3.07H23.13v.72h5.98v-.72H26.44V38.6Zm7.84-4.31h-.85a5.655,5.655,0,0,1,.05.75v1.43c-1.07.09-2.23.2-3.21.29.01-.53.01-1.02.01-1.35,0-.31.02-.58.04-.81h-.87a6.073,6.073,0,0,1,.06.85c0,.17,0,.72-.01,1.39-.48.04-.88.08-1.13.1a9.755,9.755,0,0,1-1.04.06l.09.82c.27-.04.7-.1,1.01-.14l1.07-.12c0,1,0,2.06.01,2.49.05,1.59.27,2.12,2.58,2.12,1.01,0,2.23-.09,2.9-.16l.03-.85a19,19,0,0,1-2.97.24c-1.73,0-1.75-.38-1.78-1.46-.01-.39-.01-1.43,0-2.46,1-.1,2.17-.22,3.2-.3-.02.63-.06,1.31-.11,1.64-.03.23-.14.27-.38.27a5.174,5.174,0,0,1-1-.13l-.02.69a9.908,9.908,0,0,0,1.32.14c.46,0,.68-.13.77-.57a14.942,14.942,0,0,0,.14-2.09c.44-.03.82-.05,1.12-.06.25,0,.63-.01.79,0v-.78c-.24.01-.52.03-.78.05-.33.02-.71.04-1.11.07.01-.44.01-.94.02-1.4C37.06,34.8,37.07,34.46,37.1,34.29Zm7.27,5.29h.66l.2-3.88.02-1.18h-1.1l.02,1.18Zm.33,2.47a.631.631,0,0,0,.64-.66.641.641,0,1,0-1.28,0A.625.625,0,0,0,44.7,42.05Z" transform="translate(18.625 6.805)" fill="#fff"/>
    </g>
    <g id="b" transform="translate(-19981 7700.214)">
      <g id="c" transform="translate(0 0)">
        <g id="Group_211" data-name="Group 211">
          <path id="Path_70" data-name="Path 70" d="M289.4,186.523l1.265-3.257s-.092-2.727-.389-4.793-.893-4.058,0-4.96a12.733,12.733,0,0,1,2.537-1.772s4.937-6.033,5.624-6.526,1.919-.621,1.144.866-2.743,4.545-2.743,4.545a3.445,3.445,0,0,1,2.331.454,23.126,23.126,0,0,1,2.423,2.433c.412.294.366,1.782.092,2.606a3.911,3.911,0,0,1-1.053,1.488s.778.373-1.007,2.645-4.434,3.214-4.663,3.629-2.583,3.587-2.583,3.587l-2.979-.945Z" transform="translate(-194.773 -110.965)" fill="#f9ddd0"/>
          <path id="Path_71" data-name="Path 71" d="M21.694,274.74a23.961,23.961,0,0,1-3.08,3.505c-1.144.827-1.144,1.2-2.743,1.775a27.208,27.208,0,0,1-6.719,1.321c-2.057.082-6.674.621-7.589.7s-2.331.5-1.053,1.569,2.286,1.818,6.124,1.818,6.307.373,6.994.373.824.373.824,1.363a4.083,4.083,0,0,1-.732,2.312c-.366.536,0,1.9.916.827a42.334,42.334,0,0,0,3.247-4.378,24.354,24.354,0,0,0,1.324-2.521c.732-1.569.046-.206.046-.206s3.175-3.4,5.277-5.676l-2.838-2.786Z" transform="translate(0.001 -184.906)" fill="#f9ddd0"/>
          <path id="Path_72" data-name="Path 72" d="M148.038,139.528c-2.21-.6-1.874-1.475-2.312-4.019a9.3,9.3,0,0,1,0-3.95l-4.1.592-4.1-.592a9.3,9.3,0,0,1,0,3.95c-.435,2.544-.1,3.414-2.312,4.019s-6.294,1.942-6.294,1.942l.6,7.769h24.219l.6-7.769s-4.084-1.341-6.294-1.942Z" transform="translate(-86.766 -88.542)" fill="#fadfd3"/>
          <path id="Path_73" data-name="Path 73" d="M127.659,42.748h3.149s-.258,2.276,2.684,4.689,6.036,2.21,7.8.87,1.53-5.091.173-6.765-4.771-3.214-4.771-3.214,7.3-5.156,8.305-14.2S141.857,4.106,131.011.859A20.434,20.434,0,0,0,112.386,4.6a18.613,18.613,0,0,0-7.694,12.1c-1.475,8.305-.736,8.907,2.076,14.734S122.64,42.748,122.64,42.748h5.022Z" transform="translate(-69.961 0.002)" fill="#e46666"/>
          <g id="Group_209" data-name="Group 209" transform="translate(35.533 25.211)">
            <path id="Path_74" data-name="Path 74" d="M217.232,80.882c-.575,1.638-2.279,2.789-2.989,2.75-1.164-.062-1.547-1.949-1.112-3.741s1.7-3.025,2.835-2.75C217.49,77.514,217.843,79.142,217.232,80.882Z" transform="translate(-178.858 -77.103)" fill="#f9dacd"/>
            <path id="Path_75" data-name="Path 75" d="M108.955,80.882c.575,1.638,2.279,2.789,2.989,2.75,1.164-.062,1.547-1.949,1.112-3.741s-1.7-3.025-2.835-2.75C108.7,77.514,108.343,79.142,108.955,80.882Z" transform="translate(-108.67 -77.103)" fill="#f9dacd"/>
          </g>
          <path id="Path_76" data-name="Path 76" d="M149.93,26.5c0,13.429-7.867,24.314-16.875,24.314S116.18,39.926,116.18,26.5s7.556-16.267,16.875-16.267S149.93,13.068,149.93,26.5Z" transform="translate(-78.191 -6.884)" fill="#f9dacd"/>
          <ellipse id="Ellipse_21" data-name="Ellipse 21" cx="1.272" cy="1.625" rx="1.272" ry="1.625" transform="translate(47.687 24.501)" fill="#333"/>
          <path id="Path_77" data-name="Path 77" d="M142.36,76.67a8.5,8.5,0,0,0,2.109,1.056" transform="translate(-95.811 -51.6)" fill="#fff" stroke="#333" stroke-linecap="round" stroke-miterlimit="10" stroke-width="1.3"/>
          <ellipse id="Ellipse_22" data-name="Ellipse 22" cx="1.272" cy="1.625" rx="1.272" ry="1.625" transform="translate(59.847 24.501)" fill="#333"/>
          <path id="Path_78" data-name="Path 78" d="M189.949,76.67a8.5,8.5,0,0,1-2.109,1.056" transform="translate(-126.42 -51.6)" fill="#fff" stroke="#333" stroke-linecap="round" stroke-miterlimit="10" stroke-width="1.3"/>
          <path id="Path_79" data-name="Path 79" d="M132.12,62.915s2.312-3.149,7.534-2.008" transform="translate(-88.919 -40.824)" fill="none" stroke="#333" stroke-linecap="round" stroke-miterlimit="10" stroke-width="1.3"/>
          <path id="Path_80" data-name="Path 80" d="M165.413,89.57s-2.446,1.373,0,2.243" transform="translate(-110.595 -60.282)" fill="none" stroke="#333" stroke-linecap="round" stroke-miterlimit="10" stroke-width="1.3"/>
          <path id="Path_81" data-name="Path 81" d="M155.87,106.63s4.185,4.019,8.269.2" transform="translate(-104.904 -71.764)" fill="none" stroke="#333" stroke-linecap="round" stroke-miterlimit="10" stroke-width="1.3"/>
          <path id="Path_82" data-name="Path 82" d="M119.265,14.981s-1.942,10.247-7.7,12.791a39.588,39.588,0,0,1,0-10.849c.87-5.156,4.957-11.922,19.02-11.385S148.5,15.652,148.061,22.414s-1,6.543-1,6.543S123.953,23.62,119.265,14.981Z" transform="translate(-74.825 -3.707)" fill="#e46666"/>
          <g id="Group_210" data-name="Group 210" transform="translate(42.157 52.928)">
            <path id="Path_83" data-name="Path 83" d="M128.928,161.87a3.148,3.148,0,0,0,.791,1.965c-.3-1.086-.458-1.766-.458-1.766Z" transform="translate(-128.928 -161.87)" fill="#f1a69a"/>
            <path id="Path_84" data-name="Path 84" d="M205.011,161.87l-.334.2s-.157.68-.458,1.766A3.148,3.148,0,0,0,205.011,161.87Z" transform="translate(-179.601 -161.87)" fill="#f1a69a"/>
            <path id="Path_85" data-name="Path 85" d="M143.272,171.336c-7.655-.078-10.705-1.936-11.912-3.456a50.5,50.5,0,0,0,3.813,9.953,12.516,12.516,0,0,0,7.612,5.729v.229s.18-.029.487-.1c.307.072.487.1.487.1v-.229a12.516,12.516,0,0,0,7.612-5.729,50.5,50.5,0,0,0,3.813-9.953C153.977,169.4,150.926,171.258,143.272,171.336Z" transform="translate(-130.565 -165.915)" fill="#f1a69a"/>
          </g>
          <ellipse id="Ellipse_23" data-name="Ellipse 23" cx="2.639" cy="1.625" rx="2.639" ry="1.625" transform="translate(60.442 28.631)" fill="#f9c8c2"/>
          <ellipse id="Ellipse_24" data-name="Ellipse 24" cx="2.639" cy="1.625" rx="2.639" ry="1.625" transform="translate(43.201 28.631)" fill="#f9c8c2"/>
          <path id="Path_86" data-name="Path 86" d="M221.63,183.554s7.609,12.229,9.894,15.453a46.78,46.78,0,0,0,5.166,6.033c.641.66,1.37.866,2.56-.373s8.684-11.32,8.684-11.32l-4.8-2.766a39,39,0,0,0-4.892,8.138c-6.445-11.814-15.816-26.109-15.816-26.109l-.8,10.947Z" transform="translate(-149.162 -116.17)" fill="#f9c8c2"/>
          <path id="Path_87" data-name="Path 87" d="M79.747,169.6s-1.6.412-2.652,4.584-1.828,8.469-3.155,12.971-2.057,6.114-3.61,8.55-5.85,7.972-5.85,7.972l4.022,3.593s2.194-3.139,4.708-6.2,7.749-15.443,7.749-15.443L79.747,169.6Z" transform="translate(-43.396 -114.144)" fill="#f9c8c2"/>
          <path id="Path_88" data-name="Path 88" d="M135.374,197.486c-.095-6.749,4.444-33.5,4.444-33.5s-4.221-2.5-6.909-2.72c0,0-5.277,15.038-12.3,16.9-7.027-1.86-12.3-16.9-12.3-16.9-2.688.222-6.909,2.72-6.909,2.72s4.535,26.747,4.444,33.5-8.155,23.088-8.155,23.088v.631h45.849v-.631S135.469,204.235,135.374,197.486Z" transform="translate(-65.741 -108.538)" fill="#fdf7ea"/>
        </g>
      </g>
    </g>
  </g>
</svg>
