<svg xmlns="http://www.w3.org/2000/svg" width="285" height="70" viewBox="0 0 285 70">
  <g id="Group_217" data-name="Group 217" transform="translate(-1459 -38)">
    <rect id="Rectangle_110" data-name="Rectangle 110" width="285" height="70" transform="translate(1459 38)" fill="#f9be00"/>
    <g id="Group_216" data-name="Group 216" transform="translate(-4)">
      <path id="Path_496" data-name="Path 496" d="M10.122-6.538H5.81v-.714h4.312Zm0,1.792H5.81v-.7h4.312Zm0,1.82H5.81V-3.64h4.312ZM4.242-8.414v6.65h7.532v-6.65H7.728c.056-.238.1-.5.154-.77h5.334V-10.71H8.134c.07-.378.112-.756.168-1.134L6.342-11.9c-.014.364-.028.77-.056,1.19H.812v1.526h5.32c-.028.266-.07.532-.112.77ZM13.356-.952H3.108V-7.98H1.456V1.232H3.108V.6H13.356Zm8.876-6.2V-6.4h-1.61v-.756Zm3.136.756H23.716v-.756h1.652ZM23.716-4.452v-.784h1.652v.784Zm-3.094,0v-.784h1.61v.784Zm0,1.2h1.61V-1.2h1.484V-3.248h1.652V-2.6c0,.14-.042.2-.21.21-.14,0-.63,0-1.064-.014a4.552,4.552,0,0,1,.406,1.3,4.213,4.213,0,0,0,1.89-.238c.448-.224.574-.574.574-1.246V-8.358H25.27c-.238-.14-.532-.28-.84-.434a15.935,15.935,0,0,0,2.492-1.89l-.994-.8-.322.084H19.18v1.26h4.984a12.936,12.936,0,0,1-1.12.742c-.574-.252-1.162-.476-1.652-.658l-1.078.9c.574.224,1.246.5,1.876.8H19.054v7.21h1.568Zm-2.338-6.16a11.991,11.991,0,0,0-2.436-2.156L14.7-10.5a11.365,11.365,0,0,1,2.338,2.282Zm-.42,2.982H14.49V-4.9h1.778v3.052a19.27,19.27,0,0,1-1.96,1.274l.77,1.666C15.862.5,16.52-.042,17.164-.588A4.343,4.343,0,0,0,20.79.966c1.708.07,4.676.042,6.4-.042A6.879,6.879,0,0,1,27.706-.7c-1.918.154-5.236.2-6.9.126a3.2,3.2,0,0,1-2.94-1.386ZM30.338-8.5h3.808v2.912H35.77V-8.5h3.85v1.736h1.54V-9.6H35.77v-.532h4.368v-1.232H29.82v1.232h4.326V-9.6H28.868v2.842h1.47ZM36.3-5.726h3.052v-.91H36.3Zm0-2.3v.9h2.73v-.9Zm-2.66,0H30.884v.9h2.758Zm-3.024,2.3h3.024v-.91H30.618Zm1.12,3.864v-.6h2.324v.6Zm2.324-2.226v.616H31.738v-.616Zm4.13.616H35.658v-.616h2.534Zm-2.534,1.61v-.6h2.534v.6ZM36.666-.1c-.854,0-1.008-.084-1.008-.6V-.742h4.186V-5.208H30.156V-.126h1.582V-.742h2.324V-.7c0,1.47.532,1.876,2.45,1.876h2.94c1.526,0,1.974-.462,2.17-2.142A4.257,4.257,0,0,1,40.236-1.5c-.1,1.19-.224,1.4-.924,1.4ZM47.334-11.424H43.2v1.26h4.13Zm-1.358,9.17v1.6h-1.5v-1.6ZM47.39-3.57H43.078V1.2h1.4V.658H47.39Zm-4.27-.714h4.2v-1.26h-4.2Zm4.2-3.206h-4.2v1.246h4.2Zm-4.858-.686h5.32V-9.492h-5.32ZM53.368-.952H50.19v-1.96h3.178Zm2.226-5.306V-7.812h-3.01V-9.758a21.289,21.289,0,0,0,2.646-.574l-1.176-1.386A30.6,30.6,0,0,1,48.118-10.7a5.448,5.448,0,0,1,.448,1.4c.742-.056,1.54-.126,2.324-.224v1.708H47.88v1.554h3.01V-4.41H48.608V1.218H50.19V.546h3.178v.616h1.666V-4.41h-2.45V-6.258Z" transform="translate(1501 100)" fill="#101010"/>
      <path id="Path_495" data-name="Path 495" d="M4.116.2C6.216.2,7.6-1.008,7.6-2.576A3.013,3.013,0,0,0,5.866-5.348v-.07A3.018,3.018,0,0,0,7.2-7.784a2.719,2.719,0,0,0-3.01-2.758c-1.792,0-3.122,1.064-3.122,2.73A2.951,2.951,0,0,0,2.436-5.348v.07a3,3,0,0,0-1.778,2.7C.658-.952,2.142.2,4.116.2Zm.658-6.118c-1.092-.434-1.89-.91-1.89-1.89A1.2,1.2,0,0,1,4.144-9.1,1.32,1.32,0,0,1,5.516-7.658,2.481,2.481,0,0,1,4.774-5.922Zm-.6,4.662A1.588,1.588,0,0,1,2.436-2.8a2.491,2.491,0,0,1,.952-1.918c1.344.546,2.3.994,2.3,2.072A1.352,1.352,0,0,1,4.172-1.26Zm6.342-3.864A1.277,1.277,0,0,0,11.8-6.454,1.281,1.281,0,0,0,10.514-7.8,1.278,1.278,0,0,0,9.24-6.454,1.275,1.275,0,0,0,10.514-5.124Zm0,5.32A1.289,1.289,0,0,0,11.8-1.148a1.281,1.281,0,0,0-1.288-1.344A1.278,1.278,0,0,0,9.24-1.148,1.287,1.287,0,0,0,10.514.2Zm6.412,0c2.114,0,3.5-1.848,3.5-5.418s-1.386-5.334-3.5-5.334-3.514,1.75-3.514,5.334S14.812.2,16.926.2Zm0-1.61c-.9,0-1.568-.9-1.568-3.808S16.03-8.96,16.926-8.96s1.554.84,1.554,3.738S17.822-1.414,16.926-1.414ZM25.172.2c2.114,0,3.5-1.848,3.5-5.418s-1.386-5.334-3.5-5.334-3.514,1.75-3.514,5.334S23.058.2,25.172.2Zm0-1.61c-.9,0-1.568-.9-1.568-3.808s.672-3.738,1.568-3.738,1.554.84,1.554,3.738S26.068-1.414,25.172-1.414Zm10.486-3.3a4.236,4.236,0,0,0,3.3,1.54A4.327,4.327,0,0,0,42.77-5.754l-1.54-.84A2.735,2.735,0,0,1,39-4.914a2.562,2.562,0,0,1-2.086-1.008,4.236,4.236,0,0,0-3.3-1.54,4.327,4.327,0,0,0-3.808,2.576l1.54.84a2.735,2.735,0,0,1,2.226-1.68A2.581,2.581,0,0,1,35.658-4.718ZM43.89,0h6.944V-1.736h-2.24c-.49,0-1.176.056-1.694.112,1.89-1.848,3.444-3.864,3.444-5.74a3.039,3.039,0,0,0-3.262-3.192,4.159,4.159,0,0,0-3.29,1.568l1.12,1.12a2.711,2.711,0,0,1,1.9-1.064,1.48,1.48,0,0,1,1.554,1.68c0,1.6-1.666,3.542-4.48,6.062ZM55.664.2c2.114,0,3.5-1.848,3.5-5.418s-1.386-5.334-3.5-5.334S52.15-8.806,52.15-5.222,53.55.2,55.664.2Zm0-1.61c-.9,0-1.568-.9-1.568-3.808s.672-3.738,1.568-3.738,1.554.84,1.554,3.738S56.56-1.414,55.664-1.414Zm6.384-3.71a1.277,1.277,0,0,0,1.288-1.33A1.281,1.281,0,0,0,62.048-7.8a1.278,1.278,0,0,0-1.274,1.344A1.275,1.275,0,0,0,62.048-5.124Zm0,5.32a1.289,1.289,0,0,0,1.288-1.344,1.281,1.281,0,0,0-1.288-1.344,1.278,1.278,0,0,0-1.274,1.344A1.287,1.287,0,0,0,62.048.2ZM68.46.2c2.114,0,3.5-1.848,3.5-5.418s-1.386-5.334-3.5-5.334-3.514,1.75-3.514,5.334S66.346.2,68.46.2Zm0-1.61c-.9,0-1.568-.9-1.568-3.808S67.564-8.96,68.46-8.96s1.554.84,1.554,3.738S69.356-1.414,68.46-1.414ZM76.706.2c2.114,0,3.5-1.848,3.5-5.418s-1.386-5.334-3.5-5.334-3.514,1.75-3.514,5.334S74.592.2,76.706.2Zm0-1.61c-.9,0-1.568-.9-1.568-3.808S75.81-8.96,76.706-8.96s1.554.84,1.554,3.738S77.6-1.414,76.706-1.414Z" transform="translate(1570 100)" fill="#101010"/>
      <path id="Path_494" data-name="Path 494" d="M9.282-5.32A9.226,9.226,0,0,0,12.04,1.4L13.37.812A8.7,8.7,0,0,1,10.864-5.32a8.7,8.7,0,0,1,2.506-6.132l-1.33-.588A9.226,9.226,0,0,0,9.282-5.32Zm9.2,1.96V-5.488H20.9V-3.36Zm8.932,0H22.624V-5.488h3.7V-7.042h-3.7V-8.708h4.018v-1.61h-7.91a8.938,8.938,0,0,0,.462-1.148L17.5-11.9a10.8,10.8,0,0,1-2.94,4.662A12.885,12.885,0,0,1,16-6.16a12.582,12.582,0,0,0,1.9-2.548h3v1.666H16.814V-3.36H14.6v1.6h6.3v3h1.722v-3h4.788Zm8.442-1.428V-7.8h3.164v3.01Zm-4.914,0V-7.8h3.15v3.01Zm4.914-4.648v-2.422H34.09v2.422H29.26V-2.38h1.68v-.77h3.15V1.218h1.764V-3.15h3.164v.7h1.75V-9.436Zm16.1,2.3H50.89V-8.932h1.064Zm0,3.262H50.89V-5.656h1.064Zm-5.88-1.778h1.008v1.778H46.074Zm3.43,0v1.778H48.468V-5.656ZM48.468-7.14V-8.932H49.5V-7.14ZM46.074-8.932h1.008V-7.14H46.074ZM44.6-7.14H42.728v1.484H44.6v1.778H42.938v1.484H55.1V-3.878H53.48V-5.656H55.3V-7.14H53.48V-8.932H54.8V-10.4H46.4a7.537,7.537,0,0,0,.546-.98l-1.624-.476a8.609,8.609,0,0,1-2.9,3.346A15.418,15.418,0,0,1,43.778-7.42a9.62,9.62,0,0,0,.826-.728ZM44.17,1.232a7.661,7.661,0,0,0,1.6-2.94L44.156-2.1A6.9,6.9,0,0,1,42.588.588ZM46.662-1.61a17.771,17.771,0,0,1,.266,2.674L48.552.826a18.314,18.314,0,0,0-.35-2.618Zm2.772.028a14.919,14.919,0,0,1,.714,2.66L51.814.756A15.6,15.6,0,0,0,51-1.848Zm2.772-.07a18.032,18.032,0,0,1,1.652,2.87L55.566.644a18.99,18.99,0,0,0-1.764-2.8ZM69.37-6.846V-8.47H65.716v-3.164H64.064V-8.47H60.508v1.624h2.9a13.283,13.283,0,0,1-3.458,5.068V-8.3a22.09,22.09,0,0,0,1.442-2.954l-1.652-.532A14.363,14.363,0,0,1,56.2-6.412a12.088,12.088,0,0,1,.966,1.75,12.69,12.69,0,0,0,1.148-1.26V1.19h1.638v-2.8A9.233,9.233,0,0,1,61.082-.378,14.226,14.226,0,0,0,64.064-4.62V1.218h1.652V-4.9A14.311,14.311,0,0,0,68.544-.448a5.935,5.935,0,0,1,1.246-1.33,13.694,13.694,0,0,1-3.346-5.068ZM74.718-5.32a9.226,9.226,0,0,0-2.758-6.72l-1.33.588A8.7,8.7,0,0,1,73.136-5.32,8.7,8.7,0,0,1,70.63.812l1.33.588A9.226,9.226,0,0,0,74.718-5.32Z" transform="translate(1651 100)" fill="#bb1c21"/>
      <g id="Group_215" data-name="Group 215">
        <path id="Path_493" data-name="Path 493" d="M12.2.432C18.432.432,23-4.284,23-12.6S18.432-25.632,12.2-25.632c-6.192,0-10.8,4.716-10.8,13.032S6.012.432,12.2.432Zm0-4.932c-2.88,0-4.9-2.376-4.9-8.1s2.016-8.1,4.9-8.1c2.916,0,4.932,2.376,4.932,8.1S15.12-4.5,12.2-4.5ZM34.488-15.732H32.436l.4-4.788H43.344V-25.2H27.972l-1.3,14.184H33.12c4.572,0,5.868,1.3,5.868,3.276,0,2.052-1.8,3.276-4.716,3.276a12.128,12.128,0,0,1-7.164-2.268L24.8-2.268a17.413,17.413,0,0,0,9.612,2.7c7.2,0,10.476-3.888,10.476-8.352S41.94-15.732,34.488-15.732ZM58.068.432c6.228,0,10.8-4.716,10.8-13.032S64.3-25.632,58.068-25.632c-6.192,0-10.8,4.716-10.8,13.032S51.876.432,58.068.432Zm0-4.932c-2.88,0-4.9-2.376-4.9-8.1s2.016-8.1,4.9-8.1C60.984-20.7,63-18.324,63-12.6S60.984-4.5,58.068-4.5ZM72.324-7.884H82.512v-4.5H72.324ZM96.8-14.94l5.688-6.48V-25.2H84.852v4.68H95.58L90.4-14.652V-10.8H93.06c3.312,0,4.716,1.188,4.716,3.1,0,2.052-1.8,3.24-4.716,3.24a12.239,12.239,0,0,1-7.2-2.268L83.592-2.268A17.327,17.327,0,0,0,93.2.432c7.164,0,10.44-3.888,10.44-8.136C103.644-11.412,101.34-14.22,96.8-14.94Zm8.388-10.26v4.68h5.04V0h5.832V-25.2ZM128.448-4.752l5.8-5.472c3.528-3.276,4.212-5.508,4.212-7.956,0-4.572-3.744-7.452-9.36-7.452-4.536,0-8.064,1.836-10.008,4.68l4.248,2.736a6.162,6.162,0,0,1,5.22-2.52c2.664,0,4.032,1.152,4.032,3.132,0,1.224-.4,2.52-2.628,4.644l-9.72,9.18V0h19.044V-4.752ZM153.756-15.8a8.505,8.505,0,0,0-6.228,2.232c.18-4.824,2.88-7.308,7.092-7.308a8.3,8.3,0,0,1,4.716,1.26L161.5-23.9a13.607,13.607,0,0,0-7.02-1.728c-7.6,0-12.852,4.86-12.852,13.572,0,8.136,4.32,12.492,11.268,12.492,5.328,0,9.54-3.24,9.54-8.388C162.432-12.708,158.616-15.8,153.756-15.8Zm-1.188,11.88c-2.808,0-4.428-1.584-4.428-3.744,0-2.2,1.8-3.78,4.356-3.78,2.592,0,4.284,1.476,4.284,3.78S155.052-3.924,152.568-3.924ZM165.2-7.884h10.188v-4.5H165.2Zm20.844,3.132,5.8-5.472c3.528-3.276,4.212-5.508,4.212-7.956,0-4.572-3.744-7.452-9.36-7.452-4.536,0-8.064,1.836-10.008,4.68l4.248,2.736a6.162,6.162,0,0,1,5.22-2.52c2.664,0,4.032,1.152,4.032,3.132,0,1.224-.4,2.52-2.628,4.644l-9.72,9.18V0h19.044V-4.752Zm25.02-10.188,5.688-6.48V-25.2h-17.64v4.68h10.728l-5.184,5.868V-10.8h2.664c3.312,0,4.716,1.188,4.716,3.1,0,2.052-1.8,3.24-4.716,3.24a12.239,12.239,0,0,1-7.2-2.268l-2.268,4.464a17.327,17.327,0,0,0,9.612,2.7c7.164,0,10.44-3.888,10.44-8.136C217.908-11.412,215.6-14.22,211.068-14.94Zm8.388-10.26v4.68h5.04V0h5.832V-25.2Zm27.036,10.26,5.688-6.48V-25.2H234.54v4.68h10.728l-5.184,5.868V-10.8h2.664c3.312,0,4.716,1.188,4.716,3.1,0,2.052-1.8,3.24-4.716,3.24a12.239,12.239,0,0,1-7.2-2.268L233.28-2.268a17.327,17.327,0,0,0,9.612,2.7c7.164,0,10.44-3.888,10.44-8.136C253.332-11.412,251.028-14.22,246.492-14.94Z" transform="translate(1489 77)" fill="#101010"/>
        <path id="Icon_awesome-phone-alt" data-name="Icon awesome-phone-alt" d="M18.5,13.453,14.33,11.669a.892.892,0,0,0-1.041.257l-1.844,2.253A13.783,13.783,0,0,1,4.856,7.59L7.11,5.746A.89.89,0,0,0,7.366,4.7L5.581.54A.9.9,0,0,0,4.559.023L.692.915A.892.892,0,0,0,0,1.785,17.252,17.252,0,0,0,17.253,19.039a.892.892,0,0,0,.87-.692l.892-3.867A.9.9,0,0,0,18.5,13.453Z" transform="translate(1467.962 54)" fill="#bb1c21"/>
      </g>
    </g>
  </g>
</svg>
