<svg xmlns="http://www.w3.org/2000/svg" width="86" height="70" viewBox="0 0 86 70">
  <g id="Group_214" data-name="Group 214" transform="translate(-1363 -38)">
    <rect id="Rectangle_57" data-name="Rectangle 57" width="86" height="70" transform="translate(1363 38)" fill="#bb1c21"/>
    <path id="Path_266" data-name="Path 266" d="M-17.072-.96V-4.08h5.424V-.96Zm2.816-9.36A12.54,12.54,0,0,1-16.48-7.392,22.562,22.562,0,0,0-19.024-9.5c.272-.272.528-.544.784-.816Zm4.592,4.512h-5.712a14.812,14.812,0,0,0,3.712-5.584l-1.312-.688-.32.1h-3.632c.288-.416.56-.832.8-1.248l-2.144-.4a12.782,12.782,0,0,1-5.312,5.088A6.627,6.627,0,0,1-22.24-7.056a16.468,16.468,0,0,0,1.776-1.216,22.225,22.225,0,0,1,2.448,2.208,17.788,17.788,0,0,1-5.6,2.768,6.08,6.08,0,0,1,1.1,1.7,20.512,20.512,0,0,0,3.536-1.568V1.376h1.9V.752h5.424v.64h1.984ZM3.584-1.168H-3.648V-4.3H3.584Zm3.7-7.808v-1.856H1.04v-2.72H-1.04v2.72H-7.264v1.856H-1.04v2.864H-5.648v7.5h2V.64H3.584v.688h2.08v-7.44H1.04V-8.976ZM18.992-6.56l-.688.416a8.653,8.653,0,0,1,.784.608c-1.072.032-2.144.064-3.152.1.256-.352.528-.736.784-1.12Zm1.472-4.72v.992h-8.32v-.992ZM18.176-.5V-1.6h3.84V-3.1h-3.84V-4.1l2.448-.1a7.994,7.994,0,0,1,.736.784l1.584-.976A17.269,17.269,0,0,0,20.416-6.56h2.4V-8.048H12.144v-.7h10.24v-4.064H10.24v4.624c0,2.544-.128,6.144-1.712,8.608a7.423,7.423,0,0,1,1.7.976C11.6-.752,12.016-3.952,12.112-6.56h2.5c-.224.4-.464.816-.688,1.184l-1.68.032.08,1.488c1.136-.048,2.512-.1,4.016-.16V-3.1H12.56v1.5h3.776V-.5H11.488v1.5H23.152V-.5ZM-27.776,11.936h1.616V10.128h-1.616V6.656h-1.776v3.472h-1.872v1.808h1.872v4.512c-.8.3-1.5.576-2.08.784l.768,1.92c1.472-.672,3.3-1.536,4.992-2.384l-.432-1.68c-.48.208-.976.416-1.472.624Zm5.456,7.456c-.976,0-1.12-.144-1.12-1.072V13.376l1.328-.576v4.88h1.776V12.032l1.376-.608c0,2.272-.016,3.44-.048,3.7-.064.288-.16.352-.352.352a7.279,7.279,0,0,1-.768-.032,5.11,5.11,0,0,1,.4,1.6,4.461,4.461,0,0,0,1.664-.224,1.365,1.365,0,0,0,.816-1.328c.08-.656.112-2.576.112-5.616l.064-.32L-18.4,9.088l-.336.224-.336.224-1.264.544V6.432h-1.776v4.416l-1.328.56V7.984h-1.824v4.208l-1.568.656.7,1.7.864-.368v4.112c0,2.208.624,2.8,2.784,2.8h3.408c1.872,0,2.432-.768,2.688-3.008a4.816,4.816,0,0,1-1.664-.688c-.144,1.632-.3,2-1.184,2Zm11.232-4.016-1.088.544V12.064h1.2V10.24h-1.2V6.656h-1.776V10.24h-1.44v1.824h1.44v4.768c-.592.272-1.136.528-1.584.72l.72,1.92c1.312-.7,2.864-1.584,4.272-2.416Zm8.464-3.952A19.644,19.644,0,0,1-3.5,14.4c-.144-1.216-.24-2.576-.3-4.032H-.7V8.64h-.7L-.72,8A10.123,10.123,0,0,0-2.48,6.448l-1.072.928A15.015,15.015,0,0,1-2.16,8.64h-1.7c-.016-.736-.016-1.456,0-2.192H-5.664c0,.736.016,1.456.032,2.192h-5.1v1.728h5.168a46.248,46.248,0,0,0,.672,6.72c-.208.3-.432.592-.672.88L-5.712,16.7c-2.016.448-4.112.928-5.5,1.184l.448,1.776c1.376-.352,3.168-.832,4.864-1.28a10.5,10.5,0,0,1-2.048,1.7,8.37,8.37,0,0,1,1.36,1.2,11.188,11.188,0,0,0,2.24-2.112c.5,1.36,1.168,2.208,2.064,2.208,1.2,0,1.664-.608,1.936-2.736a4.285,4.285,0,0,1-1.28-1.056c-.048,1.424-.176,2.016-.4,2.016-.384,0-.752-.864-1.024-2.288A20.477,20.477,0,0,0-.928,11.744Zm-5.024,3.424H-8.88V12.9h1.232Zm-2.624-3.408V16.3H-6.16V11.44ZM3.008,9.328H6.1l-.736.912a11.086,11.086,0,0,1,2.752,1.536l.944-1.216A9.787,9.787,0,0,0,6.768,9.328h6.16v1.664H14.88V7.632H8.928V6.464H6.976V7.632H1.152v3.36H3.008Zm-.32,1.728A5.091,5.091,0,0,1,.672,13.712l1.456.976A5.68,5.68,0,0,0,4.24,11.616Zm7.36,4.592c1.472,0,1.952-.416,2.16-2.064a5.081,5.081,0,0,1-1.52-.576c-.08,1.008-.192,1.168-.8,1.168H7.952a13.685,13.685,0,0,0,4.064-3.552L10.384,9.9a10.96,10.96,0,0,1-3.968,3.28V10.928H4.72v3.04A26.473,26.473,0,0,1,.5,15.232a10.507,10.507,0,0,1,1.056,1.536,25.778,25.778,0,0,0,3.968-1.36,4.229,4.229,0,0,0,1.7.24Zm1.744,3.392H8.928V15.824H7.008V19.04H4.3V16.576H2.432v4.816H4.3v-.608h7.488v.592h1.9v-4.8h-1.9Zm-.3-6.976a15.887,15.887,0,0,1,2.544,2.976l1.456-1.024a15.586,15.586,0,0,0-2.656-2.864ZM27.7,15.7v.576H22.112V15.7Zm-5.584,3.856V18.96H27.7v.592ZM27.7,17.9H22.112v-.576H27.7Zm3.36-4.192V12.224H24.944v-.688h4.64V10.16h-4.64V9.488h5.472V8.016H27.7c.272-.32.576-.688.9-1.1l-2.08-.5a8.786,8.786,0,0,1-.832,1.568l.112.032h-3.52l.08-.032a5.84,5.84,0,0,0-1.024-1.568l-1.68.528a6.793,6.793,0,0,1,.688,1.072H17.664V9.488h5.344v.672H18.464v1.376h4.544v.688H16.944v1.488h3.072a9.741,9.741,0,0,1-3.664,4.432,10.884,10.884,0,0,1,1.424,1.424,12.165,12.165,0,0,0,2.432-2.448v4.24h1.9V20.9H27.7v.464H29.68V14.352H21.808c.1-.208.176-.416.256-.64ZM-16.76,40h2.24V35.248c0-1.36-.176-2.848-.288-4.128h.08l1.2,2.544L-10.1,40h2.4V28.144h-2.24V32.88c0,1.344.192,2.912.3,4.144h-.08l-1.184-2.56-3.44-6.32H-16.76Zm15.536.224a4.371,4.371,0,0,0,4.3-4.7,4.371,4.371,0,0,0-4.3-4.7,4.371,4.371,0,0,0-4.3,4.7A4.371,4.371,0,0,0-1.224,40.224Zm0-1.92c-1.216,0-1.9-1.088-1.9-2.784,0-1.68.688-2.784,1.9-2.784s1.9,1.1,1.9,2.784C.68,37.216-.008,38.3-1.224,38.3Zm7.408,1.92a1.538,1.538,0,1,0-1.456-1.536A1.474,1.474,0,0,0,6.184,40.224ZM10.1,40h7.12V38.1H15V28.464H13.256a7.68,7.68,0,0,1-2.752.992v1.456h2.144V38.1H10.1Z" transform="translate(1406 60)" fill="#fff"/>
  </g>
</svg>
