<svg xmlns="http://www.w3.org/2000/svg" width="1051.775" height="158.23" viewBox="0 0 1051.775 158.23">
  <g id="Group_420" data-name="Group 420" transform="translate(-812.987 -501.549)">
    <path id="Path_494" data-name="Path 494" d="M25.26,19.64a11.913,11.913,0,0,1-2.88.24h-5.1c.42-1.02.54-1.32.9-2.04L8.94,16.4a31.531,31.531,0,0,1-2.76,8.1A27.216,27.216,0,0,1,.96,32.18,30.389,30.389,0,0,1,4.2,34.76c.06,1.5.06,2.28.06,4.74,0,16.56-.66,21.78-3.24,26.76a27.741,27.741,0,0,1,6.42,6.9c2.22-4.5,3-7.5,3.66-13.86H21.78v4.44c0,1.02-.48,1.2-2.82,1.2-.96,0-2.46-.12-4.5-.3a26.576,26.576,0,0,1,1.98,8.28H18.9c4.62,0,6.42-.3,7.8-1.26,1.56-1.08,2.16-2.58,2.16-5.46V52.04a36.285,36.285,0,0,1,6.72,3.24,44.131,44.131,0,0,1-5.46-.24v8.82a36.355,36.355,0,0,1,5.76-.3H40.2v3.42a38.965,38.965,0,0,1-.36,6.48H49.5a38.122,38.122,0,0,1-.36-6.48V63.56h3.12a35.821,35.821,0,0,1,5.82.3V55.04a50.153,50.153,0,0,1-5.82.24H49.14V51.74h2.94a37.08,37.08,0,0,1,4.98.24V43.34a25.08,25.08,0,0,1-4.98.3H49.14c0-1.68,0-2.58.06-4.02H40.26a18.236,18.236,0,0,1,.3,4.02H38.58q.18-1.44.36-2.7l-3.36-.72a19.134,19.134,0,0,0,6.54-7.56,38.115,38.115,0,0,1,1.08,5.7c2.16.12,3,.12,3.84.12,3.54,0,5.28-.36,6.54-1.26,1.74-1.26,2.58-3.9,3-9.54.54-7.98.54-7.98.72-9.36a41.3,41.3,0,0,1-5.16.24H36.24a51.377,51.377,0,0,1-6.6-.3V26.9a36.933,36.933,0,0,1,5.04-.24h.66a9.947,9.947,0,0,1-2.1,4.14c-1.2,1.44-1.86,1.92-4.38,3.18,0-1.62.06-2.28.12-3.3-.96.12-1.92.12-3.78.18.78-1.44,1.86-3.48,2.52-4.92a22.7,22.7,0,0,1,1.14-2.16Zm3.6,14.52a23.387,23.387,0,0,1,4.38,5.52l-1.86-.42v.66a41.1,41.1,0,0,1-.66,5.58,29.95,29.95,0,0,1-1.86,5.7V34.16Zm18.96-7.5a9.8,9.8,0,0,1-.66,3.48c-.24.48-.78.66-1.86.66-.54,0-1.38-.06-2.34-.12a33.236,33.236,0,0,0,1.14-4.02Zm-35.16,4.2c.6-1.2.9-1.68,1.56-3.18h3.9a32.734,32.734,0,0,1-1.44,3.18ZM11.52,52.04l.06-3.36h2.4v3.36Zm10.26,0H19.5V48.68h2.28Zm0-10.32H19.5v-3.3h2.28Zm-7.8-3.3v3.3H11.7v-3.3Zm21.9,16.86c.6-1.98.78-2.7,1.02-3.54h3.3v3.54Zm15.18,57.78a61.45,61.45,0,0,1,7.14.36v-9.36a37.062,37.062,0,0,1-4.2.3V92.12a31.026,31.026,0,0,1,.24-4.56,45.728,45.728,0,0,1-5.82.24H39.36V85.4a24.6,24.6,0,0,1,.36-5.22h-9.9a30.126,30.126,0,0,1,.36,5.46V87.8H27.12a58.534,58.534,0,0,1-6.84-.3v9.06c1.86-.18,4.02-.3,6.84-.3h3.12c-.18,6.48-.18,6.48-.3,8.16H25.08c-3,0-5.16-.12-7.2-.3v9.3a60.087,60.087,0,0,1,7.26-.36h3.84a20.37,20.37,0,0,1-5.64,9.72c-2.46,2.46-5.04,4.02-9.36,5.76A33.286,33.286,0,0,1,19.56,137c8.76-4.62,13.44-9.48,16.62-17.04a32.179,32.179,0,0,0,6.54,8.82,39.181,39.181,0,0,0,11.46,7.8,48.36,48.36,0,0,1,4.5-9.72c-8.1-2.82-13.44-7.08-17.28-13.8Zm-12-8.64c.18-3.18.24-4.92.24-8.16h5.76v8.16ZM2.94,86.72a61.278,61.278,0,0,1,10.98,8.4l5.76-7.38A67.848,67.848,0,0,0,8.7,80ZM1.32,102.08a76.676,76.676,0,0,1,11.22,8.04l5.16-7.62A69.883,69.883,0,0,0,6.54,95.18Zm8.22,9.24c-2.1,6.96-3.6,10.62-6,14.94a18.4,18.4,0,0,1-2.28,3.36l7.86,6.9a87.2,87.2,0,0,0,7.86-19.98Z" transform="translate(1762.521 506.165)" fill="#bb1c21"/>
    <path id="Path_493" data-name="Path 493" d="M13.335-10.5c-4.83.315-6.615.42-7.77.42a16.334,16.334,0,0,1-2.1-.105l3.15,15.33A31.761,31.761,0,0,1,11.13,4.2c16.275-2.31,19-2.73,27.72-4.41a84.038,84.038,0,0,1-.525,9.765H54.39a80.793,80.793,0,0,1-.525-9.66,44.7,44.7,0,0,1,4.62,9.24A84.327,84.327,0,0,0,74.34,0c5.775,3.78,11.34,6.3,21.42,9.66a58.793,58.793,0,0,1,6.825-14.91C94.71-6.615,90.72-7.77,85.47-9.975a76.658,76.658,0,0,0,10.4-14.805,34.976,34.976,0,0,1,2.52-4.725L90.93-37.59a49.457,49.457,0,0,1-7.77.42H65a63.659,63.659,0,0,1-8.82-.42v13.44a59.823,59.823,0,0,1,8.4-.42h1.89L55.65-20.16C58.8-15.015,60.165-13.02,63-9.87a56.844,56.844,0,0,1-9.135,4.305V-40.32H89.04a92.5,92.5,0,0,1,12.285.525V-52.71a84.452,84.452,0,0,1-11.97.525H16.275A86.954,86.954,0,0,1,4.1-52.71V-39.8c2.94-.315,5.145-.42,9.24-.525ZM28.14-40.32H38.85v3.36H28.14Zm0,11.865H38.85v3.675H28.14Zm0,12.18H38.85v3.255q-7.718.945-10.71,1.26Zm51.345-8.3a33.774,33.774,0,0,1-5.775,6.93,32.37,32.37,0,0,1-5.355-6.93Zm11.76-52.5a77.525,77.525,0,0,1,.42-9.87,107.131,107.131,0,0,1-11.025.42H25.2a107.131,107.131,0,0,1-11.025-.42,81.856,81.856,0,0,1,.42,9.87v12.495a79.932,79.932,0,0,1-.42,9.765c3.045-.21,5.565-.315,10.4-.315H83.055c4.725.1,7.56.21,8.61.21a74.848,74.848,0,0,1-.42-9.66Zm-61.32-.21h45.78v3.15H29.925Zm0,10.605h45.78v3.045H29.925ZM126.21-63.1c0,9.135,0,9.135-.21,13.65h-5.46a66.355,66.355,0,0,1-11.76-.63V-34.23a66.611,66.611,0,0,1,11.445-.63h4.2c-2.31,12.39-7.77,21.735-17.325,29.61A45.7,45.7,0,0,1,117.18,8.61a68.017,68.017,0,0,0,17.115-24.57A64.891,64.891,0,0,0,144.9-1.575a54.922,54.922,0,0,1,9.03-14.91c-7.14-6.3-10.6-10.71-14.07-18.375h1.365a79.661,79.661,0,0,1,9.87.42V-49.98a55.344,55.344,0,0,1-9.24.525H140.8c.315-4.935.315-4.935.42-13.65,4.2.1,6.09.1,8.715.42V-78.12a62.956,62.956,0,0,1-9.975.525H130.3a40.672,40.672,0,0,0,1.26-4.62c.63-2.415,1.26-4.41,1.68-5.67l-15.225-2.31a28.045,28.045,0,0,1-1.47,7.56,65.893,65.893,0,0,1-9.975,21.21,40.617,40.617,0,0,1,11.76,10.5A70.6,70.6,0,0,0,124.95-63.1Zm40.53,32.76-11.97,5.46A80.831,80.831,0,0,1,162.645-8.3h-2.1c-5.565,0-7.875-.105-11.76-.42V7.035a92.459,92.459,0,0,1,11.76-.525H195.2a91.459,91.459,0,0,1,11.76.525V-8.715c-3.885.315-6.2.42-11.76.42h-.945c2.94-6.09,3.36-7.35,6.72-17.43l-12.6-4.62h3.045c4.515,0,7.245.1,11.025.315a109.363,109.363,0,0,1-.42-11.13V-55.23c0-5.355.1-7.77.42-11.445-3.15.21-6.825.315-12.075.315h-24.99c-5.355,0-8.925-.105-12.075-.315.315,3.465.42,6.3.42,11.445v14.07a110.692,110.692,0,0,1-.42,11.13c3.57-.21,6.51-.315,10.92-.315Zm18.585,0A123.11,123.11,0,0,1,178.5-8.3H165.69l11.76-5.25c-4.41-9.87-4.62-10.4-8.3-16.8ZM168.84-52.29h17.535v7.77H168.84Zm-16.8-18.48c3.78-.315,6.72-.42,11.76-.42h29.82c5.145,0,7.98.1,11.76.42V-86.31a88.518,88.518,0,0,1-11.76.525H163.8a89.488,89.488,0,0,1-11.76-.525Zm156.45-4.62a98.8,98.8,0,0,1,.42-11.34,74.867,74.867,0,0,1-10.185.42h-23.52a78.86,78.86,0,0,1-11.97-.63v14.91a75.067,75.067,0,0,1,7.77-.42l-6.72,5.775a79.174,79.174,0,0,1,13.125,10.29,75.317,75.317,0,0,1-14.28,3.675l3.15,9.975h-6.825c1.05-2,1.47-4.2,1.47-8.4v-24.57c0-6.615,0-8.925.315-11.235a72.25,72.25,0,0,1-11.13.525H226.7a77.6,77.6,0,0,1-11.13-.63V-72.03a45.7,45.7,0,0,1,8.925-.525l-7.35,5.985A62.747,62.747,0,0,1,229.845-56.6a91.6,91.6,0,0,1-15.54,3.99l4.725,14.7a40.045,40.045,0,0,1,6.2-2.52A126.389,126.389,0,0,0,237.09-45.15a55.056,55.056,0,0,1,.945,6.4c3.255.21,4.83.21,7.14.21,4.935,0,7.035-.21,9.66-.84a14.249,14.249,0,0,1,.1,1.89v3.255H233.31a94.068,94.068,0,0,1-12.075-.63v15.015a100.8,100.8,0,0,1,12.18-.525h.63c1.155,2.94,2.625,7.35,4.305,12.81h-9.555a118.321,118.321,0,0,1-13.545-.63V7.56a126.237,126.237,0,0,1,14.28-.63h66.36a128.32,128.32,0,0,1,14.385.63V-8.19a110.522,110.522,0,0,1-13.65.63h-10.5a125.9,125.9,0,0,0,4.935-12.81h1.05c4.725,0,8.61.21,12.075.525v-14.91a88.026,88.026,0,0,1-12.075.525H270.48v-5.04c1.26-.525,1.68-.63,2.73-1.05,4.62-1.785,5.67-2.1,10.6-4.41a45.056,45.056,0,0,1,.945,6.405c5.88.1,6.615.1,7.875.1,7.98,0,11.025-.63,13.02-2.625,1.89-1.785,2.835-5.145,2.835-9.87ZM241.605-65.31a73.053,73.053,0,0,0-9.87-7.245h14.7V-53.97c0,1.47-.63,1.995-2.73,1.995l-.21-10.185c-6.09,2.625-7.875,3.465-10.71,4.515Zm46.515.21a75.49,75.49,0,0,0-10.08-7.35h15.645v18.69c0,1.68-.525,1.995-2.835,1.995l-.105-10.185c-5.88,2.625-7.875,3.465-11.55,4.83ZM274.05-20.37c-1.89,5.985-3.15,9.555-4.515,12.81h-14.8a127.019,127.019,0,0,0-4.1-12.81Zm66.36-64.785c-4.83,0-8.61-.21-12.075-.525.315,4.305.525,8.085.525,11.97V-5.67c0,5.25-.21,10.08-.63,14.385h17.325V3.465h43.68v5.25h17.64a139.2,139.2,0,0,1-.63-14.385V-73.815c0-3.465.21-7.35.525-11.865a90.679,90.679,0,0,1-11.655.525Zm5.145,35.91v-20.37h43.68v20.37Zm43.68,15.015v21.945h-43.68V-34.23Zm83.37-21.735A16,16,0,0,0,456.54-39.9a15.976,15.976,0,0,0,16.065,15.96,15.976,15.976,0,0,0,15.96-16.065A15.953,15.953,0,0,0,472.605-55.965ZM625.38-8.925C609-24.57,604.7-28.245,591.99-37.38c5.88-7.875,9.87-15.225,15.435-28.35,1.575-3.57,2.205-4.62,3.78-6.195l-9.24-9.45c-2.835,1.05-3.465,1.05-8.4,1.155l-35.91.525c-3.045.105-5.04.105-5.88.105a77.787,77.787,0,0,1-11.025-.735l.525,18.69c4.3-.63,7.665-.84,16.695-1.05l27.3-.42a84.469,84.469,0,0,1-21.105,30.87,99.02,99.02,0,0,1-34.02,21.21c5.88,6.09,8.085,9.24,11.76,16.59,16.275-7.875,28.77-17.115,38.64-28.77A168.817,168.817,0,0,1,610.68,6.615ZM664.65-69.2c0-8.085.1-10.5.63-14.07H645.645a96.864,96.864,0,0,1,.63,13.965v45.675a83.656,83.656,0,0,0,.42,11.13c.735,5.46,2.625,8.925,5.88,11.34,4.83,3.36,12.075,4.62,26.46,4.62,8.4,0,20.16-.63,30.66-1.575,5.67-.525,8.085-.735,10.815-.735l-.735-19.425a92.356,92.356,0,0,1-18.06,3.36c-6.3.63-14.49,1.05-20.37,1.05-8.5,0-13.755-.735-15.225-2-1.365-1.365-1.47-2.205-1.47-9.975V-37.59c17.22-3.255,33.6-8.4,46.62-14.6,3.15-1.575,5.355-2.625,7.77-3.675L707.595-72.345a45.142,45.142,0,0,1-9.135,5.67A152.132,152.132,0,0,1,664.65-55.02ZM719.775-90.72a11.741,11.741,0,0,0-11.76,11.76,11.741,11.741,0,0,0,11.76,11.76,11.741,11.741,0,0,0,11.76-11.76A11.741,11.741,0,0,0,719.775-90.72Zm0,7.56a4.212,4.212,0,0,1,4.2,4.2,4.212,4.212,0,0,1-4.2,4.2,4.212,4.212,0,0,1-4.2-4.2A4.212,4.212,0,0,1,719.775-83.16Zm16.9,53.235c6.4-.525,9.87-.63,21.63-.63h49.98c11.97,0,16.59.1,21.63.63V-50.19a172.279,172.279,0,0,1-21.525.945h-50.19c-10.92,0-16.59-.21-21.525-.945ZM897.12-76.23a75.384,75.384,0,0,1,8.4,16.695l10.6-4.515a66.9,66.9,0,0,0-8.505-15.96Zm13.44-5.04a86.74,86.74,0,0,1,8.505,15.96l10.6-4.41a71.06,71.06,0,0,0-8.925-15.435ZM879.06,6.2a153.973,153.973,0,0,1-.63-16.065v-27.3c1.05.63,1.05.63,4.725,2.1A194.631,194.631,0,0,1,916.23-16.8l9.975-17.85A222.712,222.712,0,0,0,878.43-56.49V-70.875a135.757,135.757,0,0,1,.525-15.33H858.69a99.338,99.338,0,0,1,.735,15.225V-9.87a149.866,149.866,0,0,1-.63,16.065Z" transform="translate(809.521 623.165)" fill="#bb1c21"/>
    <line id="Line_106" data-name="Line 106" x2="1046.961" transform="translate(813.66 503.549)" fill="none" stroke="#bb1c21" stroke-width="4"/>
    <line id="Line_107" data-name="Line 107" x2="1046.961" transform="translate(813.66 657.78)" fill="none" stroke="#bb1c21" stroke-width="4"/>
    <path id="Path_495" data-name="Path 495" d="M81.48-30.94c-.14-3.5-.14-5.04-.14-6.44,0-2.1.14-4.9.42-10.78l2.8-44.38c.42-5.88,1.26-15.68,1.68-18.9H53.62c.7,6.86,1.4,13.16,1.68,18.9l2.8,44.38c.56,8.26.56,8.26.56,10.92a51.821,51.821,0,0,1-.28,6.3ZM84,5.04V-21.42H55.86V5.04Z" transform="translate(1778.521 638.165)" fill="#bb1c21"/>
  </g>
</svg>
