<svg xmlns="http://www.w3.org/2000/svg" xmlns:xlink="http://www.w3.org/1999/xlink" width="264" height="264" viewBox="0 0 264 264">
  <defs>
    <linearGradient id="linear-gradient" x1="0.5" x2="0.5" y2="1" gradientUnits="objectBoundingBox">
      <stop offset="0" stop-color="#fedb87"/>
      <stop offset="0.312" stop-color="#b7813e"/>
      <stop offset="0.463" stop-color="#f9d581"/>
      <stop offset="0.594" stop-color="#a06426"/>
      <stop offset="1" stop-color="#eee3b5"/>
    </linearGradient>
    <filter id="Ellipse_1" x="0" y="0" width="264" height="264" filterUnits="userSpaceOnUse">
      <feOffset dy="3" input="SourceAlpha"/>
      <feGaussianBlur stdDeviation="5" result="blur"/>
      <feFlood flood-opacity="0.161"/>
      <feComposite operator="in" in2="blur"/>
      <feComposite in="SourceGraphic"/>
    </filter>
    <linearGradient id="linear-gradient-2" x1="0.5" x2="0.5" y2="1" gradientUnits="objectBoundingBox">
      <stop offset="0" stop-color="#bb1c21"/>
      <stop offset="1" stop-color="#8b191c"/>
    </linearGradient>
    <linearGradient id="linear-gradient-3" x1="0.5" x2="0.5" y2="1" gradientUnits="objectBoundingBox">
      <stop offset="0" stop-color="#fedb87"/>
      <stop offset="1" stop-color="#a06426"/>
    </linearGradient>
  </defs>
  <g id="Group_417" data-name="Group 417" transform="translate(15054 7322)">
    <g transform="matrix(1, 0, 0, 1, -15054, -7322)" filter="url(#Ellipse_1)">
      <circle id="Ellipse_1-2" data-name="Ellipse 1" cx="117" cy="117" r="117" transform="translate(15 12)" fill="url(#linear-gradient)"/>
    </g>
    <circle id="Ellipse_12" data-name="Ellipse 12" cx="110" cy="110" r="110" transform="translate(-15032 -7303)" fill="url(#linear-gradient-2)"/>
    <path id="Path_269" data-name="Path 269" d="M-6.936-12.24H-8.76v-3.072h1.824Zm0,5.592H-8.76V-9.7h1.824ZM-17.016-9.7h1.728v3.048h-1.728Zm5.88,0v3.048h-1.776V-9.7Zm-1.776-2.544v-3.072h1.776v3.072Zm-4.1-3.072h1.728v3.072h-1.728Zm-2.52,3.072h-3.216V-9.7h3.216v3.048h-2.856V-4.1H-1.536V-6.648H-4.32V-9.7H-1.2V-12.24H-4.32v-3.072h2.256v-2.52h-14.4a12.92,12.92,0,0,0,.936-1.68l-2.784-.816a14.758,14.758,0,0,1-4.968,5.736,26.431,26.431,0,0,1,2.328,1.872,16.492,16.492,0,0,0,1.416-1.248ZM-20.28,2.112a13.134,13.134,0,0,0,2.736-5.04L-20.3-3.6a11.826,11.826,0,0,1-2.688,4.608Zm4.272-4.872a30.466,30.466,0,0,1,.456,4.584l2.784-.408a31.4,31.4,0,0,0-.6-4.488Zm4.752.048a25.575,25.575,0,0,1,1.224,4.56L-7.176,1.3A26.746,26.746,0,0,0-8.568-3.168Zm4.752-.12a30.912,30.912,0,0,1,2.832,4.92L-.744,1.1A32.553,32.553,0,0,0-3.768-3.7Zm23.76-13.3a18.036,18.036,0,0,0-3.816-2.9l-1.368,1.92a19.309,19.309,0,0,1,3.72,3.12Zm-6.288,5.04a20.3,20.3,0,0,1,3.936,3l1.44-2.28a20.043,20.043,0,0,0-4.032-2.76Zm-2.16-7.92a44.643,44.643,0,0,1-1.32,5.616l1.8.5c.6-1.392,1.3-3.672,1.92-5.592ZM4.152-13.392a24.063,24.063,0,0,0-1.224-5.5L.936-18.36a23.732,23.732,0,0,1,1.08,5.544ZM10.7-5.5c-.5-.672-2.784-3.36-3.48-4.056V-9.72h3.552v-2.664H7.224v-7.848H4.584v7.848H.96V-9.72H3.7A22.218,22.218,0,0,1,.528-3.5a16.96,16.96,0,0,1,1.3,2.952,24.631,24.631,0,0,0,2.76-5.9V2.016h2.64V-6.408a32.06,32.06,0,0,1,1.728,3.12Zm12.7.552-.432-2.664-2.448.456v-13.2H17.832v13.68L10.7-5.4l.432,2.664,6.7-1.2v6H20.52v-6.48Z" transform="translate(-14922 -7220)" fill="#fff"/>
    <path id="Path_268" data-name="Path 268" d="M-56.84-4.68V-24.16h13v-6.08H-76.08v6.08h12.56V-4.68H-78.36V1.2h36.92V-4.68Zm45.48-1.36H-17.2v-1.2h5.84Zm-5.84-6.64h5.84v1.08H-17.2Zm-10.92-8.6v-1.36h5v1.36Zm16-1.36v1.36H-17.2v-1.36ZM-1.24-11.6h-4.2v-4.92H-17.2v-1.2H-6.16V-26.2H-17.2v-1.2H-2.24v-4.52H-17.2V-34.2h-5.92v2.28h-14.6v4.52h14.6v1.2H-33.68v8.48h10.56v1.2H-34.56v3.84h11.44v1.08h-15.6v4.36h15.6v1.2H-34.84v4.12h11.72v.48c0,.68-.24.92-1,.96-.64,0-3,0-4.64-.08a16.913,16.913,0,0,1,1.88,4.48c3.44,0,5.64-.08,7.36-.8,1.72-.8,2.32-1.92,2.32-4.56v-.48h5.84V-.28h5.92V-7.24h4.2ZM21.04-27.44h10v4.24h-10Zm17.64,17.4v-5.24H28.8v-2.84h8.08v-14.4H15.56v14.4h7.4v2.84H13.08v5.24h7.2a26.472,26.472,0,0,1-8.76,7.72v-22.4a72.619,72.619,0,0,0,3.56-7.64l-5.4-1.76A40.978,40.978,0,0,1,.64-19.6a36.838,36.838,0,0,1,3,6.04A31.323,31.323,0,0,0,6-16.24V3.68h5.52V-2.24a25.368,25.368,0,0,1,3.96,4.6,29.814,29.814,0,0,0,7.48-7.4V3.8H28.8V-5.28a32.286,32.286,0,0,0,7,7.76,23.951,23.951,0,0,1,4.12-4.64,29.213,29.213,0,0,1-8.44-7.88Zm16.08-23H43.2v4.32H54.76ZM50.12-5.56v3.4H47.64v-3.4Zm4.92-4.52H42.8V3.8h4.84V2.36h7.4ZM42.96-11.52H54.68v-4.32H42.96Zm11.72-10H42.96v4.32H54.68ZM41-22.88H56.16V-27.4H41ZM71.68-3.04v-9.72h6.36v-5.48H71.68v-8.64h6.6v-5.48H57.36v5.48h8.6V-3.04H63.92v-18.4h-5.4v18.4H56.36V2.44H79.08V-3.04Z" transform="translate(-14922 -7164)" fill="#dec548"/>
    <path id="Path_267" data-name="Path 267" d="M-15.21,0H-1.86V-3.57H-6.03V-22.23H-9.3a13.849,13.849,0,0,1-5.16,1.89v2.73h4.02V-3.57h-4.77ZM8.85.42c4.53,0,7.5-3.96,7.5-11.61s-2.97-11.43-7.5-11.43S1.32-18.87,1.32-11.19C1.32-3.54,4.32.42,8.85.42Zm0-3.45c-1.92,0-3.36-1.92-3.36-8.16,0-6.21,1.44-8.01,3.36-8.01s3.33,1.8,3.33,8.01C12.18-4.95,10.77-3.03,8.85-3.03Z" transform="translate(-14942 -7119)" fill="#ffea2c" stroke="rgba(0,0,0,0)" stroke-width="1"/>
    <path id="Path_266" data-name="Path 266" d="M-13.6-4.8V-7.84h3.46V-4.8Zm12.76,0H-7.68V-7.84H-2.4v-2.22H-7.68v-2.38h5.74v-2.3h-11.3a12.768,12.768,0,0,0,.66-1.64L-15-17a15.423,15.423,0,0,1-4.2,6.66A18.407,18.407,0,0,1-17.14-8.8a17.974,17.974,0,0,0,2.72-3.64h4.28v2.38h-5.84V-4.8h-3.16v2.28h9V1.76h2.46V-2.52H-.84Zm7.9-9.66v1.06H3.98v-1.06Zm-3.08,3.8V-11.8H7.06v1.14Zm5.3,1.7v-7.22H1.62V1.74H3.98V-8.96Zm3.64-1.66V-11.8H16.1v1.18Zm3.18-3.84v1.06H12.92v-1.06ZM8.3-1.86V-3.1h3.3v1.24ZM11.6-4.8H8.3V-6h3.3Zm6.9-11.38H10.66v7.26H16.1V-1.1c0,.32-.12.44-.48.44-.26.02-1,.02-1.78,0V-7.74L7.12-7.76v.02H6.14V.9H8.3V-.12h4.96a8.806,8.806,0,0,1,.52,1.86,8.641,8.641,0,0,0,3.66-.46C18.24.9,18.5.2,18.5-1.08Z" transform="translate(-14904 -7119)" fill="#fff" stroke="rgba(0,0,0,0)" stroke-width="1"/>
    <path id="Icon_awesome-shield-alt" data-name="Icon awesome-shield-alt" d="M20.654,3.629,12.331.161a2.087,2.087,0,0,0-1.6,0L2.408,3.629a2.079,2.079,0,0,0-1.283,1.92c0,8.6,4.964,14.553,9.6,16.486a2.087,2.087,0,0,0,1.6,0c3.715-1.548,9.606-6.893,9.606-16.486A2.081,2.081,0,0,0,20.654,3.629ZM11.533,19.348l0-16.516,7.625,3.178c-.143,6.563-3.559,11.319-7.621,13.339Z" transform="translate(-14934.529 -7277.5)" fill="url(#linear-gradient-3)"/>
  </g>
</svg>
