<svg xmlns="http://www.w3.org/2000/svg" xmlns:xlink="http://www.w3.org/1999/xlink" width="264" height="264" viewBox="0 0 264 264">
  <defs>
    <linearGradient id="linear-gradient" x1="0.5" x2="0.5" y2="1" gradientUnits="objectBoundingBox">
      <stop offset="0" stop-color="#fedb87"/>
      <stop offset="0.312" stop-color="#b7813e"/>
      <stop offset="0.463" stop-color="#f9d581"/>
      <stop offset="0.594" stop-color="#a06426"/>
      <stop offset="1" stop-color="#eee3b5"/>
    </linearGradient>
    <filter id="Ellipse_1" x="0" y="0" width="264" height="264" filterUnits="userSpaceOnUse">
      <feOffset dy="3" input="SourceAlpha"/>
      <feGaussianBlur stdDeviation="5" result="blur"/>
      <feFlood flood-opacity="0.161"/>
      <feComposite operator="in" in2="blur"/>
      <feComposite in="SourceGraphic"/>
    </filter>
    <linearGradient id="linear-gradient-2" x1="0.5" x2="0.5" y2="1" gradientUnits="objectBoundingBox">
      <stop offset="0" stop-color="#bb1c21"/>
      <stop offset="1" stop-color="#8b191c"/>
    </linearGradient>
    <linearGradient id="linear-gradient-3" x1="0.5" x2="0.5" y2="1" gradientUnits="objectBoundingBox">
      <stop offset="0" stop-color="#fedb87"/>
      <stop offset="1" stop-color="#a06426"/>
    </linearGradient>
  </defs>
  <g id="Group_422" data-name="Group 422" transform="translate(15054 7322)">
    <g transform="matrix(1, 0, 0, 1, -15054, -7322)" filter="url(#Ellipse_1)">
      <circle id="Ellipse_1-2" data-name="Ellipse 1" cx="117" cy="117" r="117" transform="translate(15 12)" fill="url(#linear-gradient)"/>
    </g>
    <circle id="Ellipse_12" data-name="Ellipse 12" cx="110" cy="110" r="110" transform="translate(-15032 -7303)" fill="url(#linear-gradient-2)"/>
    <path id="Path_498" data-name="Path 498" d="M-30.96-16.752H-41.136v-.984H-30.96Zm0,2.736H-41.136v-1.008H-30.96ZM-28.1-19.56H-43.872v7.368H-28.1ZM-29.472-5.976A10.049,10.049,0,0,1-31.1-3.624a9.292,9.292,0,0,1-1.608-2.352ZM-42.192-3.12h3.12v.936c-1.056.1-2.112.168-3.12.24Zm0-2.976h3.12v1.008h-3.12Zm3.12-2.952v.96h-3.12v-.96Zm11.28.792-.48.1h-7.464v2.184h2.208l-1.584.432a14.7,14.7,0,0,0,2.184,3.552A12.322,12.322,0,0,1-36.336-.264V-9.048h10.992V-11.3H-46.68v2.256h1.872v7.3c-.744.072-1.464.1-2.088.144L-46.68.84c2.112-.192,4.848-.432,7.608-.7V2.088h2.736V.144a10.609,10.609,0,0,1,1.272,1.92,15.637,15.637,0,0,0,4.08-2.232A13.446,13.446,0,0,0-26.52,2.064,11.822,11.822,0,0,1-24.84-.168a13.417,13.417,0,0,1-4.224-1.776,14.308,14.308,0,0,0,3.024-5.64Zm26.64-11.112H-13.416v2.64H-1.152ZM-4.68-9.48H-9.912v-2.9H-4.68Zm2.784-5.4H-12.528v7.9H-1.9ZM-4.32-1.2C-3.744-2.376-3.1-4.3-2.448-6.048l-2.808-.6a26.36,26.36,0,0,1-1.464,4.9Zm-4.032-.72A16.866,16.866,0,0,0-9.552-6.5l-2.424.576A19.546,19.546,0,0,1-10.9-1.272Zm-4.512-1.536c-.528-.624-2.64-3.168-3.6-4.152.048-.312.072-.6.1-.912h3.144v-2.64H-16.2v-3.72h2.688v-2.568h-5.232c.192-.768.384-1.56.528-2.352l-2.688-.5a18.845,18.845,0,0,1-2.568,7.248,14.764,14.764,0,0,1,2.424,1.32A19.286,19.286,0,0,0-19.56-14.88h.648v3.72h-4.08v2.64h3.936A12.707,12.707,0,0,1-23.184.072a9.821,9.821,0,0,1,1.968,2.016,13.652,13.652,0,0,0,4.1-6.72A39.366,39.366,0,0,1-14.688-1.1ZM-14.52-1.008v2.64h13.7v-2.64Zm32.952-18.6a34.379,34.379,0,0,1-2.616,6l2.5.864a54.083,54.083,0,0,0,3.312-5.928ZM8.16-13.992a22.029,22.029,0,0,0-2.952-5.4L2.592-18.36A22.637,22.637,0,0,1,5.4-12.84Zm5.424-6.36H10.44v8.3H3.168v2.856h15v2.208H3.984v2.76H18.168v2.5H2.616V1.1H18.168v.984h3.048V-12.048H13.584ZM30.672-2.64V-8.016H41.328V-2.64ZM41.328-16.008v5.16H30.672v-5.16ZM27.72-18.888V1.8h2.952V.24H41.328V1.752H44.4v-20.64Z" transform="translate(-14922 -7220)" fill="#fff"/>
    <path id="Path_497" data-name="Path 497" d="M-33.54-16.22v2.14h8.06c.04,7.62.2,12.42,2.96,12.42,1.24,0,1.66-.92,1.88-2.94a10.548,10.548,0,0,1-1.32-1.78c-.04,1.22-.18,2.26-.38,2.26-.84,0-.86-4.78-.76-12.1Zm2.7,14.42h2.28V-7.7h2.74V-9.84h-2.74v-3.62h-2.28v3.62h-2.9V-7.7h2.9Zm-3.1-11.66a16.015,16.015,0,0,0-3.34-3.02l-1.76,1.44a15.135,15.135,0,0,1,3.22,3.16Zm-.5,4.28h-4.62V-7h2.3v4.22A26.266,26.266,0,0,1-39.5-.94l1.16,2.48c1.1-.84,1.98-1.62,2.86-2.4,1.3,1.56,2.94,2.12,5.4,2.22,2.38.1,6.4.06,8.8-.06a12.456,12.456,0,0,1,.74-2.4c-2.66.2-7.16.26-9.5.16-2.08-.08-3.58-.62-4.4-1.96ZM-4.1-10.32v1.74H-6.32v-1.74Zm-6.64,0h2.1v1.74h-2.1Zm2.1-1.82h-4.3v5.36H-9.7a11.807,11.807,0,0,1-4.4,3.2,8.65,8.65,0,0,1,1.5,1.8A12.754,12.754,0,0,0-8.64-5.12v3.66h2.32V-4.98a15.22,15.22,0,0,0,3.9,3.14A10.916,10.916,0,0,1-.82-3.7,14.54,14.54,0,0,1-5.5-6.78h3.72v-5.36H-6.32v-1.08H-1.1V-15.2H-6.32v-1.72H-8.64v1.72h-4.92v1.98h4.92Zm-5.3-1.32a16.015,16.015,0,0,0-3.34-3.02l-1.76,1.44a15.135,15.135,0,0,1,3.22,3.16Zm-.5,4.28h-4.62V-7h2.3v4.22A26.266,26.266,0,0,1-19.5-.94l1.16,2.48c1.1-.84,1.98-1.62,2.86-2.4,1.3,1.56,2.94,2.12,5.4,2.22,2.38.1,6.4.06,8.8-.06A12.456,12.456,0,0,1-.54-1.1c-2.66.2-7.16.26-9.5.16-2.08-.08-3.58-.62-4.4-1.96ZM6.64-11.26a23.442,23.442,0,0,1-.96,4.04c-.88-1.06-1.78-2.08-2.64-3L1.34-8.88c1.1,1.22,2.28,2.64,3.34,4.06A11.1,11.1,0,0,1,.42-.28a10.427,10.427,0,0,1,1.6,1.86,13.448,13.448,0,0,0,4.1-4.32A18.671,18.671,0,0,1,7.48-.28L9.38-1.9A19.813,19.813,0,0,0,7.32-5.14a27.327,27.327,0,0,0,1.64-5.82ZM9.58-7.72a16.665,16.665,0,0,1,2.06,4.36L13.7-4.42a15.7,15.7,0,0,0-2.22-4.22Zm9.7-4.78H17.14v-4.44H14.8v4.44H10.44v-1.36H6.74v-3.06H4.46v3.06H.98v2.2h8.8v1.44H14.8v9c0,.32-.12.42-.48.42-.34,0-1.42.02-2.54-.04a9.8,9.8,0,0,1,.76,2.56,7.972,7.972,0,0,0,3.6-.52c.76-.38,1-1.08,1-2.42v-9h2.14Zm5.36.14H39.08v-2.26H31.86v-2.3H29.38v2.3H22.26v5.04c0,2.88-.14,7.08-1.78,9.94A11.047,11.047,0,0,1,22.54,1.7c1.8-3.12,2.1-8.06,2.1-11.28ZM35.14-9.4a25.19,25.19,0,0,0-4.84-2.9l-1.58,1.56a23.072,23.072,0,0,1,4.7,3.12ZM26.4,0c.9-1.6,1.26-4.24,1.48-6.54L25.74-7A16.556,16.556,0,0,1,24.28-.94Zm5.18-.76c-.56,0-.64-.1-.64-.82V-8.54H28.58v6.98c0,2.22.5,2.92,2.62,2.92h2.22c1.86,0,2.46-.96,2.68-4.38A6.26,6.26,0,0,1,34-3.98c-.08,2.76-.2,3.22-.8,3.22ZM34.8-6.7A23.779,23.779,0,0,1,37.24-.02l2.34-.96a23.828,23.828,0,0,0-2.66-6.54Z" transform="translate(-14922 -7119)" fill="#fff" stroke="rgba(0,0,0,0)" stroke-width="1"/>
    <path id="Path_496" data-name="Path 496" d="M-68.8-3.52V-6.68H-51v3.16ZM-51-15.16v3.12H-68.8v-3.12Zm0-8.44v3.08H-68.8V-23.6Zm-7.16-5.56c.56-1.32,1.2-2.84,1.76-4.36l-7.12-.72c-.16,1.52-.48,3.4-.84,5.08H-74.68V3.72h5.88V1.84H-51V3.72h6.2V-29.16Zm37.52,17.64c-.8-.8-3.68-3.36-5.6-4.92a38.907,38.907,0,0,0,4.44-8.48l-3.24-2.12-1,.2h-.88v-7.32h-5.76v7.32h-5.4v5.24h8.92A27.048,27.048,0,0,1-39.64-11.48a25.038,25.038,0,0,1,2.68,5.6,30.523,30.523,0,0,0,4.28-3.2V3.84h5.76v-14.2c1.04,1.28,2.04,2.56,2.76,3.56ZM-8.76-3.04V-16.6h7.12v-5.6H-8.76V-33.76h-6V-22.2h-7.08v5.6h7.08V-3.04h-8.76V2.68H-.64V-3.04Zm43.92.12c-.28,0-.52-.64-.76-1.76.52-.84,1.04-1.68,1.52-2.56C35.8-4.48,35.56-2.92,35.16-2.92ZM20.36-4.88V-6.6h2.48v1.72ZM22.84-12v1.72H20.36V-12Zm.04-14.52c-.2,1.36-.56,3.12-.84,4.4l1.68.36H19.2l1.44-.36a17.121,17.121,0,0,0-.8-4.4ZM9.32-24.16H7.72v-3.56h1.6ZM7.72-7.4v-4h1.6v3.72Zm1.6-8.64H7.72v-3.48h1.6Zm25.16-.12a25.2,25.2,0,0,1-1,3.08c-.08-1.32-.16-2.72-.2-4.24h5.76v-4.44H33.12c-.04-2.16-.08-4.44-.08-6.8a26.709,26.709,0,0,1,2.32,4.72l3.96-2.24a25.989,25.989,0,0,0-3.76-6.32l-2.52,1.32.04-3.12H28c.04,4.48.08,8.64.2,12.44H25.72c.4-1.2.92-2.76,1.48-4.36l-2.24-.4h2.6v-4.16H24.08v-3.36H19.16v3.36H15.68V-32.8H1.6v5.08H3.04V-6.68c-.84.12-1.6.24-2.28.32l.96,5.28c2.32-.48,4.96-1,7.6-1.56V3.8h4.8V-27.72h1.36v1.2h2.6l-2,.48a23.345,23.345,0,0,1,.72,4.28H14.88v4.44H28.4A100.991,100.991,0,0,0,29.48-5.68a32.46,32.46,0,0,1-2.2,2.48V-15.92H16V1.2h4.36V-1h4.28A19.872,19.872,0,0,1,22.84.16a24.97,24.97,0,0,1,3.2,3.76,28.829,28.829,0,0,0,4.8-4.08c.96,2.56,2.28,3.92,4.04,3.96,1.4,0,3.6-1.28,4.72-7.96a17.238,17.238,0,0,1-3.64-3.2,39.689,39.689,0,0,0,3.12-7.8ZM55.92-33.4c-.28,5.24.6,22.96-15.32,32.2a19.375,19.375,0,0,1,4.96,4.68,35.356,35.356,0,0,0,14.16-18.8c2.4,7,6.88,14.44,15.4,18.76A17.1,17.1,0,0,1,79.6-1.52C64.76-8.56,62.84-25,62.52-30.76q.06-1.5.12-2.64Z" transform="translate(-14922 -7164)" fill="#dec548"/>
    <g id="Icon_ionic-ios-rocket" data-name="Icon ionic-ios-rocket" transform="translate(-14932.87 -7277.388)">
      <path id="Path_266" data-name="Path 266" d="M21.99,2.148a.215.215,0,0,0-.16-.165C19.185,1.336,13.075,3.64,9.765,6.95a14.308,14.308,0,0,0-1.609,1.9,5.987,5.987,0,0,0-2.912.365c-2.455,1.079-3.169,3.9-3.368,5.109a.435.435,0,0,0,.476.506L6.295,14.4a8.763,8.763,0,0,0,.053.89.882.882,0,0,0,.258.54l1.526,1.526a.882.882,0,0,0,.54.258,8.747,8.747,0,0,0,.885.053L9.124,21.6a.435.435,0,0,0,.506.476c1.21-.194,4.034-.909,5.109-3.364a6.014,6.014,0,0,0,.369-2.9A14.331,14.331,0,0,0,17.012,14.2C20.337,10.9,22.626,4.923,21.99,2.148ZM14.057,9.92a2.076,2.076,0,1,1,2.936,0A2.074,2.074,0,0,1,14.057,9.92Z" transform="translate(0 0)" fill="url(#linear-gradient-3)"/>
      <path id="Path_267" data-name="Path 267" d="M7.7,15.326h0a1.844,1.844,0,0,1-.962.389,1.308,1.308,0,0,1-1.507-1.507,1.808,1.808,0,0,1,.384-.958l0,0a.162.162,0,0,0-.136-.277,2.234,2.234,0,0,0-1.308.637c-.875.875-.958,4.122-.958,4.122s3.252-.083,4.127-.958a2.22,2.22,0,0,0,.637-1.308A.166.166,0,0,0,7.7,15.326Z" transform="translate(0.329 2.711)" fill="url(#linear-gradient-3)"/>
    </g>
  </g>
</svg>
