<svg xmlns="http://www.w3.org/2000/svg" width="1181.04" height="350.668" viewBox="0 0 1181.04 350.668">
  <g id="Group_423" data-name="Group 423" transform="translate(-378.96 -5297.332)">
    <g id="Group_224" data-name="Group 224" transform="translate(-100 60)">
      <rect id="Rectangle_111" data-name="Rectangle 111" width="200" height="200" transform="translate(1460 5388)" fill="#fff"/>
      <path id="Path_276" data-name="Path 276" d="M-49.491-31.349v4.559h-3.525a28.325,28.325,0,0,1-4.371-.235c.141,1.551.188,2.961.188,4.794V-1.222c0,1.692-.094,3.713-.235,5.358h6.909V2.068h17.437V4.136h7.1c-.188-1.927-.282-3.948-.282-6.58V-22.231a36.283,36.283,0,0,1,.235-4.794,40.052,40.052,0,0,1-4.465.235h-3.619v-4.559h2.961c2.538,0,4.794.094,6.2.235v-7.1a53.893,53.893,0,0,1-6.486.282H-50.008c-2.209,0-4.747-.094-5.64-.188a1.608,1.608,0,0,0-.517-.094l-6.11-2.444a29.86,29.86,0,0,1-1.645,6.3,29.489,29.489,0,0,1-6.251,10.716,50.122,50.122,0,0,1,2.209,8.6c.611-.8,1.551-2.115,2.068-2.914-.047,2.773-.047,4.324-.047,4.606V-1.081a50.484,50.484,0,0,1-.282,5.358h7.238a46.188,46.188,0,0,1-.188-5.405V-27.636a57.86,57.86,0,0,0,2.961-7.285v3.807c1.5-.141,3.666-.235,6.2-.235Zm.94,10.951V-4.371h-2.3V-20.4Zm5.64,16.027V-20.4H-40.7V-4.371Zm0-22.419v-4.559H-40.7v4.559Zm7.849,22.419V-20.4h2.3V-4.371ZM-4.7-12.314V-.329a30.95,30.95,0,0,1-.235,4.606H2.4V2.209H11.7V4.23h7.426a31.882,31.882,0,0,1-.235-4.747V-12.643c.7.235.752.235,1.551.517a36.843,36.843,0,0,1,2.632-7.238,45.018,45.018,0,0,1-10.34-3.666,43.871,43.871,0,0,0,5.64-7.614A24.555,24.555,0,0,1,19.834-32.9L15.98-37.13a20.643,20.643,0,0,1-3.807.235H6.58q.775-1.9.987-2.4L.141-40.326c-.611,3.478-2.82,7.238-6.3,10.716V-32.2a11.506,11.506,0,0,1-2.4.188h-.658v-3.055A34.651,34.651,0,0,1-8.93-39.95H-16.4a34.192,34.192,0,0,1,.282,4.888v3.055h-1.5a20.984,20.984,0,0,1-3.619-.235v6.956a20.369,20.369,0,0,1,3.572-.235h1.128a32.987,32.987,0,0,1-5.828,12.878A28.67,28.67,0,0,1-19.317-5.17a23.282,23.282,0,0,0,3.384-7.191c-.047.752-.094,2.256-.141,4.559v6.11a56.53,56.53,0,0,1-.282,6.063H-8.93a55.309,55.309,0,0,1-.282-6.063V-11.28c0-1.222-.047-3.666-.141-4.747A35.684,35.684,0,0,0-7.52-12.549a21.361,21.361,0,0,1,1.034-2.679,23.465,23.465,0,0,1,.846,3.29ZM-8.46-25.521a11.119,11.119,0,0,1,2.3.188,26.892,26.892,0,0,1,2.4,2.773A30.7,30.7,0,0,0-.893-25.192a33.99,33.99,0,0,0,2.444,2.585A43.208,43.208,0,0,1-5.17-19.458a18.971,18.971,0,0,1-3.948-6.063ZM1.222-14.758A34.552,34.552,0,0,0,7.1-18.236a41.362,41.362,0,0,0,6.392,3.478Zm2.162-15.98h7.1a18.877,18.877,0,0,1-3.572,4.23A19.406,19.406,0,0,1,3.1-30.315ZM2.4-8.366H11.7v4.089H2.4ZM51.982-34.733a27.774,27.774,0,0,1,4.183,6.251l4.7-2.162A29.086,29.086,0,0,0,56.682-36.8Zm6.11-2.585a31.519,31.519,0,0,1,4.089,6.11l4.559-2.209A26.847,26.847,0,0,0,62.6-39.339ZM55.554-26.837a31.1,31.1,0,0,1,3.525,6.956A53.109,53.109,0,0,1,62.087-9.447l7.708-3.666a49.306,49.306,0,0,0-7.332-16.92ZM26.038-20.3a56.667,56.667,0,0,1,7.332-1.363C31.49-14.194,27.542-4.888,24.534-.846l7.755,4.089c.282-.705.376-.94.752-1.739a104.564,104.564,0,0,0,4.982-12.079,97.913,97.913,0,0,0,3.337-11.7,17.066,17.066,0,0,1,1.88-.094c1.645,0,2.3.188,2.82.8.611.658.893,1.786.893,3.76A41.236,41.236,0,0,1,45.684-7.379c-.517,1.5-1.128,2.115-2.115,2.115A20.289,20.289,0,0,1,37.13-6.956a22.313,22.313,0,0,1,.7,5.64,21.338,21.338,0,0,1-.141,2.726,26.534,26.534,0,0,0,7.473,1.222,8.977,8.977,0,0,0,3.666-.658A7.774,7.774,0,0,0,51.841-.8c1.88-3.29,2.961-9.353,2.961-16.685,0-5.311-.94-8.178-3.337-10.1-1.6-1.269-3.76-1.88-6.674-1.88a15.592,15.592,0,0,0-2.021.094c.188-1.128.517-2.914.893-5.076a23.333,23.333,0,0,1,.752-3.666l-8.507-.8v.8a73.574,73.574,0,0,1-1.081,9.259c-3.055.423-7.567.8-9.071.8a1.619,1.619,0,0,1-.423-.047ZM-24.44,53.127a42.648,42.648,0,0,1,5.546.235V46.406a44.919,44.919,0,0,1-5.546.188H-40.8c.846-1.786,1.128-2.3,2.3-4.7l-7.8-1.034a36.669,36.669,0,0,1-2.538,5.734h-7.755a49.041,49.041,0,0,1-5.593-.188v6.956a42.575,42.575,0,0,1,5.593-.235h3.948a71.253,71.253,0,0,1-5.17,7.05c5.828,1.645,8.366,2.444,11.985,3.807-5.029,2.115-8.977,2.961-16.309,3.572a21.5,21.5,0,0,1,3.29,6.909A62.91,62.91,0,0,0-45.4,71.034a33.835,33.835,0,0,0,7.473-3.807,94.576,94.576,0,0,1,13.113,7.285l5.452-5.922a115.787,115.787,0,0,0-12.925-6.251,26.713,26.713,0,0,0,5.311-9.212Zm-10.293,0A18.384,18.384,0,0,1-39.1,59.613c-3.478-1.269-4.512-1.6-7.849-2.538,1.316-1.88,1.692-2.444,2.585-3.948ZM-44.65,33.763H-55.977c-2.773,0-4.136-.047-5.734-.188a33.037,33.037,0,0,1,.188,3.666v4.23a19.591,19.591,0,0,1-.235,3.666h7.191V40.3h28.012v4.841h7.144a27.52,27.52,0,0,1-.235-3.619V37.241a31.923,31.923,0,0,1,.188-3.666c-1.551.141-3.008.188-5.734.188H-37.177v-.47a29.275,29.275,0,0,1,.188-3.2h-7.849a21.921,21.921,0,0,1,.188,3.243Zm31.3.611a32.988,32.988,0,0,1,.188,3.337c.094,6.533.282,10.481.517,13.771.611,7.473,1.88,12.173,4.324,15.651,1.833,2.679,4.089,4.042,6.721,4.042,2.867,0,5.405-1.692,7.144-4.794A39.673,39.673,0,0,0,9.118,57.31a29.733,29.733,0,0,1-6.533-5.922A47.749,47.749,0,0,1,.141,59.519c-.47,1.222-.987,1.833-1.5,1.833-1.974,0-3.478-7.943-3.478-18.471a58.62,58.62,0,0,1,.517-8.507ZM10.2,39.356c5.828,7.379,9.071,16.638,9.588,27.166l8.413-3.1c-1.316-11.374-4.747-19.975-10.857-27.354ZM42.347,59.378a20.535,20.535,0,0,1-.094-2.068c0-.752.047-1.833.141-3.713l.94-14.9c.188-2.538.329-4.512.564-6.345H32.947c.188,1.457.423,4,.564,6.345l.94,14.9c.188,2.82.188,2.82.188,3.337a21.246,21.246,0,0,1-.094,2.444Zm.846,12.079V62.574H33.746v8.883ZM59.408,59.378a20.535,20.535,0,0,1-.094-2.068c0-.752.047-1.833.141-3.713l.94-14.9c.188-2.538.329-4.512.564-6.345H50.008c.188,1.457.423,4,.564,6.345l.94,14.9c.188,2.82.188,2.82.188,3.337a21.246,21.246,0,0,1-.094,2.444Zm.846,12.079V62.574H50.807v8.883Z" transform="translate(1560 5472)" fill="#bb1c21"/>
    </g>
    <g id="Group_422" data-name="Group 422">
      <path id="Path_273" data-name="Path 273" d="M-21.28-16.24h-2.76a16.1,16.1,0,0,1,.14,1.76c0,.34,0,.92-.02,1.62-.4.02-.8.04-1.16.04a22.178,22.178,0,0,1-2.76-.16l.04,2.42a24.52,24.52,0,0,0,2.8.1c.32,0,.68-.02,1.06-.04v1.68c0,.46,0,.94.02,1.42-2.46,1.06-4.46,2.88-4.46,4.62,0,2.12,2.74,3.8,4.68,3.8,1.32,0,2.2-.66,2.2-3.14,0-.68-.04-2.24-.08-3.82a13.484,13.484,0,0,1,3.76-.56c1.74,0,2.94.8,2.94,2.16,0,1.46-1.28,2.26-2.9,2.56a15.4,15.4,0,0,1-2.46.14l.92,2.58A18.312,18.312,0,0,0-16.7.62c3.18-.8,4.42-2.58,4.42-4.94,0-2.76-2.42-4.36-5.5-4.36a16.572,16.572,0,0,0-3.84.52V-8.9c0-.58,0-1.2.02-1.8,1.3-.16,2.68-.36,3.82-.62l-.06-2.48a24.494,24.494,0,0,1-3.68.72c.02-.5.04-.98.06-1.42C-21.42-15.02-21.34-15.88-21.28-16.24Zm5.7,2.16-1.1,1.94a31.821,31.821,0,0,1,4.82,2.92l1.2-2.04A41.793,41.793,0,0,0-15.58-14.08ZM-25.92-2.88c0-.7.82-1.52,2.04-2.18.04,1.08.06,2,.06,2.5,0,.68-.28.84-.64.84C-24.98-1.72-25.92-2.26-25.92-2.88ZM-3.18-4.5A23.84,23.84,0,0,0-.1-5.84,21.722,21.722,0,0,0,3.32-4.5ZM-3.3-.84v-1.7H3.36v1.7Zm.96-9.24H2.1A11.5,11.5,0,0,1-.1-8.36,11.564,11.564,0,0,1-2.44-10Zm6.46-1.88-.4.1H-.64c.22-.28.44-.56.64-.84l-2.22-.44H6.14v2.22H8.58V-15.3H1.16v-1.62H-1.28v1.62h-7.3v4.38h2.34v-2.22h3.68A11.626,11.626,0,0,1-8.18-9.12,6.655,6.655,0,0,1-6.6-7.36,19.936,19.936,0,0,0-4.16-8.7a16.263,16.263,0,0,0,1.8,1.5A28.446,28.446,0,0,1-9.38-5.22,7.9,7.9,0,0,1-8.28-3.1c.9-.18,1.78-.38,2.66-.62V1.74H-3.3V1.12H3.36V1.7H5.82V-3.86c.66.12,1.34.24,2.04.34a11.659,11.659,0,0,1,1.5-2.3,30.516,30.516,0,0,1-7.08-1.5A12.793,12.793,0,0,0,5.72-11Zm13.72,5.7C17.5-6.8,16.06-9,15.52-9.74v-.88h2v-2.2h-2v-4.12H13.36v4.12h-2.4v2.2h2.22a20,20,0,0,1-2.68,6.7,11.411,11.411,0,0,1,1.04,2.1,16.872,16.872,0,0,0,1.82-3.94V1.72h2.16V-6.9c.44.86.86,1.76,1.1,2.34Zm3.62,2.48C19.76-2.9,18-2,16.82-1.46l1.02,2c1.28-.7,2.84-1.58,4.24-2.4Zm-3.5-2.18a14.019,14.019,0,0,1,1.9,2.56l1.7-1.2a13.7,13.7,0,0,0-1.98-2.42Zm9.38-1.12A15.742,15.742,0,0,1,25.4-4.92a10.856,10.856,0,0,1-.82-1.76v-.78h4.66V-9.4H24.58v-.88h3.88v-1.78H24.58v-.8h4.3v-1.86H26.94c.32-.5.68-1.1,1.04-1.7l-2.36-.54c-.2.64-.6,1.56-.9,2.24H22.24a11.063,11.063,0,0,0-1.14-2.2l-1.88.64A11.354,11.354,0,0,1,20-14.72H17.96v1.86h4.32v.8H18.5v1.78h3.78v.88h-4.7v1.94h4.7V-.64c0,.24-.08.34-.32.34s-1.02,0-1.7-.04a7.4,7.4,0,0,1,.64,2.12,6.523,6.523,0,0,0,2.84-.4c.64-.36.84-.92.84-2V-2.7A9.486,9.486,0,0,0,28.12.82a8.852,8.852,0,0,1,1.5-1.92A8.359,8.359,0,0,1,26.5-3.36a32.192,32.192,0,0,0,2.64-2.46Z" transform="translate(1530 5442)" fill="#fff"/>
      <g id="b" transform="translate(1388.001 5297.333)">
        <g id="c" transform="translate(-0.001 -0.002)">
          <g id="Group_211" data-name="Group 211">
            <path id="Path_70" data-name="Path 70" d="M289.4,193.854l1.694-4.36s-.123-3.651-.521-6.417-1.2-5.432,0-6.64a17.045,17.045,0,0,1,3.4-2.372s6.609-8.076,7.529-8.737,2.569-.832,1.532,1.16-3.672,6.084-3.672,6.084a4.612,4.612,0,0,1,3.121.608c1.409.941,2.692,2.863,3.243,3.257s.49,2.386.123,3.489a5.235,5.235,0,0,1-1.409,1.992s1.042.5-1.348,3.541-5.935,4.3-6.242,4.859-3.458,4.8-3.458,4.8l-3.988-1.265Z" transform="translate(-162.725 -92.707)" fill="#f9ddd0"/>
            <path id="Path_71" data-name="Path 71" d="M29.042,274.74c-.184.166-2.591,3.585-4.123,4.692s-1.532,1.6-3.672,2.377a36.423,36.423,0,0,1-9,1.768c-2.753.109-8.934.832-10.159.941s-3.121.665-1.409,2.1,3.06,2.434,8.2,2.434,8.443.5,9.363.5,1.1.5,1.1,1.825a5.466,5.466,0,0,1-.98,3.095c-.49.718,0,2.543,1.226,1.107a56.668,56.668,0,0,0,4.346-5.861,32.6,32.6,0,0,0,1.773-3.375c.98-2.1.061-.276.061-.276s4.25-4.557,7.065-7.6l-3.8-3.729Z" transform="translate(0.001 -154.482)" fill="#f9ddd0"/>
            <path id="Path_72" data-name="Path 72" d="M154.513,142.227c-2.959-.805-2.508-1.974-3.095-5.38a12.448,12.448,0,0,1,0-5.288l-5.489.792-5.489-.792a12.448,12.448,0,0,1,0,5.288c-.582,3.405-.136,4.57-3.095,5.38s-8.426,2.6-8.426,2.6l.8,10.4h32.421l.8-10.4s-5.467-1.795-8.426-2.6Z" transform="translate(-72.489 -73.974)" fill="#fadfd3"/>
            <path id="Path_73" data-name="Path 73" d="M135.689,57.226H139.9s-.346,3.046,3.594,6.277,8.08,2.959,10.448,1.164,2.049-6.815.232-9.056-6.386-4.3-6.386-4.3,9.77-6.9,11.118-19.006S154.694,5.5,140.176,1.15a27.354,27.354,0,0,0-24.932,5.007,24.916,24.916,0,0,0-10.3,16.2c-1.974,11.118-.985,11.923,2.779,19.723S128.97,57.226,128.97,57.226h6.723Z" transform="translate(-58.449 0.002)" fill="#e46666"/>
            <g id="Group_209" data-name="Group 209" transform="translate(47.567 33.75)">
              <path id="Path_74" data-name="Path 74" d="M218.679,82.162c-.77,2.193-3.051,3.734-4,3.681-1.558-.083-2.07-2.609-1.488-5.007s2.28-4.049,3.795-3.681C219.025,77.653,219.5,79.833,218.679,82.162Z" transform="translate(-167.309 -77.103)" fill="#f9dacd"/>
              <path id="Path_75" data-name="Path 75" d="M109.051,82.162c.77,2.193,3.051,3.734,4,3.681,1.558-.083,2.07-2.609,1.488-5.007s-2.281-4.049-3.795-3.681C108.705,77.653,108.232,79.833,109.051,82.162Z" transform="translate(-108.67 -77.103)" fill="#f9dacd"/>
            </g>
            <path id="Path_76" data-name="Path 76" d="M161.361,32.006c0,17.977-10.531,32.548-22.59,32.548s-22.59-14.571-22.59-32.548S126.3,10.23,138.77,10.23s22.59,3.8,22.59,21.776Z" transform="translate(-65.326 -5.751)" fill="#f9dacd"/>
            <ellipse id="Ellipse_21" data-name="Ellipse 21" cx="1.703" cy="2.175" rx="1.703" ry="2.175" transform="translate(63.837 32.799)" fill="#333"/>
            <path id="Path_77" data-name="Path 77" d="M142.36,76.67a11.377,11.377,0,0,0,2.823,1.414" transform="translate(-80.046 -43.11)" fill="#fff" stroke="#333" stroke-linecap="round" stroke-miterlimit="10" stroke-width="1.3"/>
            <ellipse id="Ellipse_22" data-name="Ellipse 22" cx="1.703" cy="2.175" rx="1.703" ry="2.175" transform="translate(80.115 32.799)" fill="#333"/>
            <path id="Path_78" data-name="Path 78" d="M190.663,76.67a11.378,11.378,0,0,1-2.823,1.414" transform="translate(-105.619 -43.11)" fill="#fff" stroke="#333" stroke-linecap="round" stroke-miterlimit="10" stroke-width="1.3"/>
            <path id="Path_79" data-name="Path 79" d="M132.12,63.679s3.095-4.215,10.085-2.688" transform="translate(-74.289 -34.106)" fill="none" stroke="#333" stroke-linecap="round" stroke-miterlimit="10" stroke-width="1.3"/>
            <path id="Path_80" data-name="Path 80" d="M165.781,89.57s-3.274,1.838,0,3" transform="translate(-92.397 -50.363)" fill="none" stroke="#333" stroke-linecap="round" stroke-miterlimit="10" stroke-width="1.3"/>
            <path id="Path_81" data-name="Path 81" d="M155.87,106.63s5.6,5.38,11.07.267" transform="translate(-87.643 -59.956)" fill="none" stroke="#333" stroke-linecap="round" stroke-miterlimit="10" stroke-width="1.3"/>
            <path id="Path_82" data-name="Path 82" d="M122,18.19S119.4,31.908,111.7,35.313a53,53,0,0,1,0-14.523c1.164-6.9,6.636-15.959,25.462-15.241s23.982,13.538,23.4,22.59-1.335,8.759-1.335,8.759S128.28,29.754,122,18.19Z" transform="translate(-62.513 -3.096)" fill="#e46666"/>
            <g id="Group_210" data-name="Group 210" transform="translate(56.434 70.853)">
              <path id="Path_83" data-name="Path 83" d="M128.929,161.87a4.214,4.214,0,0,0,1.059,2.631c-.4-1.453-.613-2.364-.613-2.364Z" transform="translate(-128.928 -161.87)" fill="#f1a69a"/>
              <path id="Path_84" data-name="Path 84" d="M205.279,161.87l-.446.267s-.21.91-.613,2.364A4.214,4.214,0,0,0,205.279,161.87Z" transform="translate(-171.264 -161.87)" fill="#f1a69a"/>
              <path id="Path_85" data-name="Path 85" d="M147.306,172.507c-10.247-.105-14.331-2.591-15.946-4.627a67.6,67.6,0,0,0,5.1,13.324c2.731,5.025,7.8,6.995,10.19,7.669v.306s.241-.039.652-.14c.411.1.652.14.652.14v-.306c2.386-.674,7.459-2.644,10.19-7.669a67.6,67.6,0,0,0,5.1-13.324C161.637,169.915,157.553,172.4,147.306,172.507Z" transform="translate(-130.295 -165.249)" fill="#f1a69a"/>
            </g>
            <ellipse id="Ellipse_23" data-name="Ellipse 23" cx="3.532" cy="2.175" rx="3.532" ry="2.175" transform="translate(80.912 38.327)" fill="#f9c8c2"/>
            <ellipse id="Ellipse_24" data-name="Ellipse 24" cx="3.532" cy="2.175" rx="3.532" ry="2.175" transform="translate(57.831 38.327)" fill="#f9c8c2"/>
            <path id="Path_86" data-name="Path 86" d="M221.63,187.26s10.186,16.37,13.245,20.686a62.622,62.622,0,0,0,6.916,8.076c.858.884,1.834,1.16,3.427-.5s11.626-15.154,11.626-15.154l-6.426-3.7a52.209,52.209,0,0,0-6.548,10.895C235.243,191.747,222.7,172.61,222.7,172.61l-1.068,14.655Z" transform="translate(-124.619 -97.055)" fill="#f9c8c2"/>
            <path id="Path_87" data-name="Path 87" d="M84.917,169.6s-2.14.552-3.55,6.137-2.447,11.337-4.224,17.364-2.753,8.185-4.832,11.446-7.831,10.671-7.831,10.671l5.384,4.81s2.937-4.2,6.3-8.295,10.374-20.673,10.374-20.673L84.917,169.6Z" transform="translate(-36.256 -95.363)" fill="#f9c8c2"/>
            <path id="Path_88" data-name="Path 88" d="M148.14,209.751c-.127-9.034,5.949-44.839,5.949-44.839s-5.651-3.344-9.249-3.642c0,0-7.065,20.13-16.471,22.621C118.962,181.4,111.9,161.27,111.9,161.27c-3.6.3-9.249,3.642-9.249,3.642s6.071,35.8,5.949,44.839S97.68,240.658,97.68,240.658v.845h61.376v-.845S148.267,218.786,148.14,209.751Z" transform="translate(-54.924 -90.679)" fill="#fdf7ea"/>
          </g>
        </g>
      </g>
      <g id="Group_220" data-name="Group 220" transform="translate(-220 183)">
        <g id="Group_66" data-name="Group 66" transform="translate(806.127 777.094)">
          <path id="Path_22" data-name="Path 22" d="M-12642.582-3699.807l8.572,8.572-8.572,8.573" transform="translate(13140.302 8122.603)" fill="none" stroke="#fff" stroke-linecap="round" stroke-linejoin="round" stroke-width="2"/>
          <line id="Line_30" data-name="Line 30" x2="536.419" transform="translate(-30.127 4431.368)" fill="none" stroke="#fff" stroke-linecap="round" stroke-width="2"/>
        </g>
        <g id="Group_74" data-name="Group 74" transform="translate(1035.346 777.094)">
          <path id="Path_22-2" data-name="Path 22" d="M-12642.582-3699.807l8.572,8.572-8.572,8.573" transform="translate(13140.302 8122.603)" fill="none" stroke="#fff" stroke-linecap="round" stroke-linejoin="round" stroke-width="2"/>
          <line id="Line_30-2" data-name="Line 30" x2="26.5" transform="translate(479.792 4431.368)" fill="none" stroke="#fff" stroke-linecap="round" stroke-width="2"/>
        </g>
        <path id="Path_274" data-name="Path 274" d="M-23.14-14.7l-2.98-1.04a12.474,12.474,0,0,1-.48,1.84,20.74,20.74,0,0,1-2.22,4.76c-1.62-1.2-3.72-2.64-5.32-3.62l-1.7,2.04a54.988,54.988,0,0,1,5.4,3.8,22.009,22.009,0,0,1-7.6,5.9L-35.8,1a25,25,0,0,0,7.44-6.18A40.271,40.271,0,0,1-23.92-.76l2.06-2.28a52.369,52.369,0,0,0-4.8-4.42,30.205,30.205,0,0,0,2.68-5.44C-23.78-13.36-23.4-14.24-23.14-14.7Zm4.98,5.44v3.14c.74-.06,2.08-.1,3.22-.1H-4.2c.84,0,1.86.08,2.34.1V-9.26c-.52.04-1.4.12-2.34.12H-14.94C-15.98-9.14-17.44-9.2-18.16-9.26Zm28.8-6.78H7.7a14.8,14.8,0,0,1,.14,1.84c0,.6-.02,1.18-.04,1.74H4.94c-.76,0-1.8-.06-2.64-.14v2.62c.86-.08,1.96-.08,2.64-.08H7.58a11.762,11.762,0,0,1-3.3,7.12A11.918,11.918,0,0,1,1.66-.98L3.98.9C7.56-1.64,9.46-4.78,10.2-10.06h4.5c0,2.16-.26,6.16-.84,7.42a1.064,1.064,0,0,1-1.14.7,16.554,16.554,0,0,1-2.8-.28L10.24.46c.96.08,2.16.16,3.3.16A2.462,2.462,0,0,0,16.12-.92c.86-2.04,1.1-7.62,1.18-9.78a8.177,8.177,0,0,1,.14-1.06L15.7-12.6a9.3,9.3,0,0,1-1.5.14H10.44c.04-.58.06-1.18.08-1.8C10.54-14.74,10.58-15.58,10.64-16.04Zm11.2,6.78v3.14c.74-.06,2.08-.1,3.22-.1H35.8c.84,0,1.86.08,2.34.1V-9.26c-.52.04-1.4.12-2.34.12H25.06C24.02-9.14,22.56-9.2,21.84-9.26Z" transform="translate(637 5282.694)" fill="#fff"/>
        <g id="Layer_2" data-name="Layer 2" transform="translate(615 5185.89)">
          <g id="Group_59" data-name="Group 59">
            <path id="Path_7" data-name="Path 7" d="M1,44.11H43.23V16.67L29.25,28.55V17.08L11.72,29.89,10.9,1H3.33Z" fill="none" stroke="#fff" stroke-linecap="round" stroke-linejoin="round" stroke-width="2"/>
            <line id="Line_9" data-name="Line 9" x2="3.9" transform="translate(13.12 35.37)" fill="none" stroke="#fff" stroke-linecap="round" stroke-linejoin="round" stroke-width="2"/>
            <line id="Line_10" data-name="Line 10" x2="3.91" transform="translate(22.84 35.37)" fill="none" stroke="#fff" stroke-linecap="round" stroke-linejoin="round" stroke-width="2"/>
            <line id="Line_11" data-name="Line 11" x2="3.91" transform="translate(32.57 35.37)" fill="none" stroke="#fff" stroke-linecap="round" stroke-linejoin="round" stroke-width="2"/>
          </g>
        </g>
        <path id="Path_272" data-name="Path 272" d="M-51.34-1.2V-5.1h6.78v3.9Zm3.52-11.7A15.675,15.675,0,0,1-50.6-9.24a28.2,28.2,0,0,0-3.18-2.64c.34-.34.66-.68.98-1.02Zm5.74,5.64h-7.14a18.515,18.515,0,0,0,4.64-6.98l-1.64-.86-.4.12h-4.54c.36-.52.7-1.04,1-1.56l-2.68-.5a15.977,15.977,0,0,1-6.64,6.36A8.284,8.284,0,0,1-57.8-8.82a20.585,20.585,0,0,0,2.22-1.52,27.781,27.781,0,0,1,3.06,2.76,22.235,22.235,0,0,1-7,3.46A7.6,7.6,0,0,1-58.14-2a25.64,25.64,0,0,0,4.42-1.96V1.72h2.38V.94h6.78v.8h2.48Zm16.56,5.8h-9.04V-5.38h9.04Zm4.62-9.76v-2.32h-7.8v-3.4h-2.6v3.4h-7.78v2.32h7.78v3.58h-5.76V1.74h2.5V.8h9.04v.86h2.6v-9.3H-28.7v-3.58ZM-6.26-8.2l-.86.52a10.816,10.816,0,0,1,.98.76c-1.34.04-2.68.08-3.94.12.32-.44.66-.92.98-1.4Zm1.84-5.9v1.24h-10.4V-14.1ZM-7.28-.62V-2h4.8V-3.88h-4.8V-5.12l3.06-.12a9.992,9.992,0,0,1,.92.98l1.98-1.22A21.586,21.586,0,0,0-4.48-8.2h3v-1.86H-14.82v-.88h12.8v-5.08H-17.2v5.78c0,3.18-.16,7.68-2.14,10.76a9.279,9.279,0,0,1,2.12,1.22c1.72-2.68,2.24-6.68,2.36-9.94h3.12c-.28.5-.58,1.02-.86,1.48l-2.1.04.1,1.86c1.42-.06,3.14-.12,5.02-.2v1.14H-14.3V-2h4.72V-.62h-6.06V1.26H-1.06V-.62Zm8.7-4.62A14.541,14.541,0,0,1,.36-.6,11.756,11.756,0,0,1,2.18.26,18.491,18.491,0,0,0,3.38-4.9Zm4.34.36A23.665,23.665,0,0,1,6.92-1.16L8.68-1.8A22.051,22.051,0,0,0,7.44-5.4ZM5.34-9.82c.24.44.48.94.7,1.44L4.12-8.3c1.26-1.62,2.64-3.64,3.74-5.38l-1.94-.9a36.27,36.27,0,0,1-1.78,3.24c-.2-.24-.42-.52-.68-.8.72-1.12,1.52-2.66,2.24-4.02l-2.06-.76a25.354,25.354,0,0,1-1.46,3.48c-.16-.14-.32-.28-.46-.4L.58-12.22A19.626,19.626,0,0,1,2.94-9.5c-.32.46-.64.9-.94,1.28L.56-8.16.76-6.1l2.9-.18V1.76H5.72V-6.42L6.74-6.5A9.589,9.589,0,0,1,7-5.48l1.68-.76a16.955,16.955,0,0,0-1.76-4.24ZM15.76-4.54v3.12h-4.4V-4.54ZM9.16,1.72h2.2V.66h4.4v.98h2.28V-6.64H9.16Zm1.42-12.28a23.184,23.184,0,0,0,2.78-3.7,27.891,27.891,0,0,0,2.94,3.7Zm1.58-6.1A19.241,19.241,0,0,1,7.12-10.7,10.949,10.949,0,0,1,8.48-8.62a15.7,15.7,0,0,0,1.74-1.56V-8.4H16.8v-1.64a17.06,17.06,0,0,0,1.46,1.3,14.69,14.69,0,0,1,1.46-2.22,19.627,19.627,0,0,1-5.3-5.7ZM35.5-13.72H30.14v-.94H35.5Zm0,2.54H30.14v-.98H35.5Zm2.34-5.14H27.9v6.8h9.94Zm-11.4,1.38a14.9,14.9,0,0,0-3.46-1.94l-1.34,1.8a13.876,13.876,0,0,1,3.42,2.1ZM25.36-9.68A13.094,13.094,0,0,0,21.9-11.5L20.62-9.72A13.959,13.959,0,0,1,23.98-7.7ZM39.32-6.82v-1.9H26.16v1.9H28.4a10.932,10.932,0,0,1-2.9,3.08l.48-1.14L24.1-6.3A59.313,59.313,0,0,1,20.9.1l2.14,1.4c.76-1.48,1.56-3.18,2.3-4.86a12.37,12.37,0,0,1,1.48,1.24,13.964,13.964,0,0,0,2.04-1.92H30a12.951,12.951,0,0,1-3.9,3.9A14.054,14.054,0,0,1,27.7,1.3a17.387,17.387,0,0,0,4.66-5.34h1.16A11.276,11.276,0,0,1,30.12.52a12.626,12.626,0,0,1,1.72,1.24,14.72,14.72,0,0,0,3.88-5.8h.82c-.16,2.32-.36,3.26-.62,3.56a.618.618,0,0,1-.58.22,12.072,12.072,0,0,1-1.3-.06,4.774,4.774,0,0,1,.54,2.06,11.605,11.605,0,0,0,1.98-.06,1.968,1.968,0,0,0,1.28-.7c.52-.6.78-2.22,1.02-6.02.04-.26.06-.82.06-.82h-8.7q.3-.48.54-.96Zm13.5,6v-2.2H55.2v2.2Zm-5.8,0h-2.4v-2.2h2.4ZM46.8-12.24H44.38v-2.08H46.8Zm6.26-2.08H55.5v2.08H53.06Zm6.02,7.14V-9.26H50.32a10.356,10.356,0,0,0,.62-1.14v.02h6.84v-5.8H50.94v5.74l-1.88-.64v-5.1H42.22v5.8h6c-.24.38-.5.76-.78,1.12H40.98v2.08h4.28a17.491,17.491,0,0,1-4.96,2.5,8.668,8.668,0,0,1,1.4,1.82c.3-.1.58-.2.86-.32V1.78h2.06V1.12h2.4v.64h2.14V-4.98H46.1a14.83,14.83,0,0,0,2.64-2.2h2.6a11.8,11.8,0,0,0,2.36,2.2H50.74V1.78h2.08V1.12H55.2v.64h2.18V-3.08c.28.1.58.2.88.28a9.648,9.648,0,0,1,1.5-1.9,13.688,13.688,0,0,1-5.3-2.48ZM-48.1,18.06a30.549,30.549,0,0,1,5.08,4.46l2.12-1.64a32.76,32.76,0,0,0-5.18-4.2h4.92V14.36h-7.66V12.04h-2.44v2.32h-7.56v2.32H-46.2Zm-5.94-1.22a15.335,15.335,0,0,1-5.06,4.02,19.473,19.473,0,0,1,2,1.84,22.415,22.415,0,0,0,5.52-4.9Zm6.4,3.42a11.047,11.047,0,0,1-2.34,3.82,11.9,11.9,0,0,1-2.3-3.7l-2.28.68a17.145,17.145,0,0,0,2.76,4.6,19.8,19.8,0,0,1-7.54,2.88,12.885,12.885,0,0,1,1.5,2.24,21.868,21.868,0,0,0,7.8-3.42,17.285,17.285,0,0,0,7.88,3.38,10.75,10.75,0,0,1,1.54-2.26,17.441,17.441,0,0,1-7.52-2.8A14.838,14.838,0,0,0-45.08,21Zm20.68-4.96a13.952,13.952,0,0,1-.76,1.44h-2.82a13.057,13.057,0,0,0,1.16-1.44Zm3.38,4.74c-.04.12-.12.14-.34.14h-.78c-.28,0-.32-.04-.32-.38V18.6h1.44Zm-6.86-1.44h1.24a2.549,2.549,0,0,1-1.24,2.14Zm-2.88,1.84-1.62.46V18.02h1.82v-.9a7.707,7.707,0,0,1,.7.7v5.54h1.98V21.28a5.437,5.437,0,0,1,.64.9,3.887,3.887,0,0,0,2.28-3.58h.78v1.2c0,1.44.32,1.88,1.78,1.88h1.38v1.64h2.02V16.74H-25.4a24.847,24.847,0,0,0,1.36-2.4l-1.5-.94-.34.08h-2.46c.18-.36.34-.74.5-1.12l-2.2-.34a9.224,9.224,0,0,1-3.08,4.26v-.44h-1.82V12.08H-37.1v3.76h-2.1v2.18h2.1v3.46c-.9.22-1.74.44-2.42.58l.52,2.28c.58-.16,1.24-.34,1.9-.54v4.42c0,.26-.1.34-.34.34a16.158,16.158,0,0,1-1.66-.02,8.847,8.847,0,0,1,.6,2.2,5.187,5.187,0,0,0,2.78-.44c.6-.38.78-.98.78-2.08V23.16c.64-.18,1.28-.38,1.92-.58Zm12.4,5.5V23.96h-5.3c.08-.52.12-1.06.16-1.62h-2.16c-.04.58-.08,1.12-.16,1.62h-4.9v1.98h4.34c-.7,1.46-2.14,2.4-5.24,3a6.631,6.631,0,0,1,1.16,1.84c3.32-.74,5.04-1.94,5.94-3.68a6.983,6.983,0,0,0,5.16,3.58A7,7,0,0,1-20.6,28.7c-2.38-.34-3.86-1.26-4.74-2.76Zm6.56.4c0,2.36.66,3.46,5.22,3.46a47.012,47.012,0,0,0,6.2-.44l.08-2.72a32.673,32.673,0,0,1-6.3.68c-2.2,0-2.56-.44-2.56-1.68v-5.3c2.84-.58,5.54-1.1,6.16-1.24a17.03,17.03,0,0,1-3.2,4.06l2.2,1.3a28.663,28.663,0,0,0,4.14-5.82c.18-.36.48-.82.66-1.1l-1.92-1.48a5.639,5.639,0,0,1-1.42.46c-.9.22-3.7.78-6.62,1.34V15.5a21.021,21.021,0,0,1,.18-2.3h-2.98a17.3,17.3,0,0,1,.16,2.3v2.86c-1.98.36-3.74.66-4.68.78l.48,2.62c.84-.2,2.42-.52,4.2-.88ZM4.82,13.8l-1.88,2a41.585,41.585,0,0,1,5,4.32l2.04-2.08A40.394,40.394,0,0,0,4.82,13.8ZM2.32,27.12,4,29.76a21.659,21.659,0,0,0,7.42-2.82,21.267,21.267,0,0,0,7.4-7.4l-1.56-2.82A18.832,18.832,0,0,1,9.98,24.5,20.614,20.614,0,0,1,2.32,27.12ZM31.38,13.16l-2.9-.9a8.278,8.278,0,0,1-.92,2.08A18.57,18.57,0,0,1,21.2,21l2.16,1.66a24.055,24.055,0,0,0,5.28-5.18h5.72a14.2,14.2,0,0,1-2.2,4.42c-1.26-.84-2.52-1.66-3.58-2.26L26.8,21.46c1.02.64,2.34,1.54,3.64,2.5A16.991,16.991,0,0,1,23.1,28.3l2.32,2.02a18.819,18.819,0,0,0,7.16-4.74c.82.66,1.56,1.28,2.1,1.78l1.9-2.26c-.58-.48-1.36-1.06-2.22-1.68a22.9,22.9,0,0,0,2.96-5.76,9.409,9.409,0,0,1,.66-1.42l-2.04-1.26a6.35,6.35,0,0,1-1.74.22H30.14A21.547,21.547,0,0,1,31.38,13.16Zm10.46,6.58v3.14c.74-.06,2.08-.1,3.22-.1H55.8c.84,0,1.86.08,2.34.1V19.74c-.52.04-1.4.12-2.34.12H45.06C44.02,19.86,42.56,19.8,41.84,19.74Z" transform="translate(1428.028 5288.42)" fill="#fff"/>
        <g id="Layer_2-2" data-name="Layer 2" transform="translate(1405.438 5176.89)">
          <rect id="Rectangle_48" data-name="Rectangle 48" width="43.18" height="57.2" rx="2.95" transform="translate(1 1)" fill="none" stroke="#fff" stroke-linecap="round" stroke-linejoin="round" stroke-width="2"/>
          <rect id="Rectangle_49" data-name="Rectangle 49" width="27.19" height="4.8" rx="2.4" transform="translate(9 9.67)" fill="none" stroke="#fff" stroke-linecap="round" stroke-linejoin="round" stroke-width="2"/>
          <g id="Group_64" data-name="Group 64">
            <line id="Line_23" data-name="Line 23" x2="7.01" transform="translate(6.81 52.36)" fill="none" stroke="#fff" stroke-linecap="round" stroke-linejoin="round" stroke-width="2"/>
            <line id="Line_24" data-name="Line 24" x2="7.01" transform="translate(18.37 52.36)" fill="none" stroke="#fff" stroke-linecap="round" stroke-linejoin="round" stroke-width="2"/>
            <line id="Line_25" data-name="Line 25" x2="7.01" transform="translate(31.36 52.36)" fill="none" stroke="#fff" stroke-linecap="round" stroke-linejoin="round" stroke-width="2"/>
          </g>
          <g id="Group_65" data-name="Group 65">
            <line id="Line_26" data-name="Line 26" y1="3.91" transform="translate(8.09 58.31)" fill="none" stroke="#fff" stroke-linecap="round" stroke-linejoin="round" stroke-width="2"/>
            <line id="Line_27" data-name="Line 27" y1="3.91" transform="translate(17.76 58.31)" fill="none" stroke="#fff" stroke-linecap="round" stroke-linejoin="round" stroke-width="2"/>
            <line id="Line_28" data-name="Line 28" y1="3.91" transform="translate(27.42 58.31)" fill="none" stroke="#fff" stroke-linecap="round" stroke-linejoin="round" stroke-width="2"/>
            <line id="Line_29" data-name="Line 29" y1="3.91" transform="translate(37.08 58.31)" fill="none" stroke="#fff" stroke-linecap="round" stroke-linejoin="round" stroke-width="2"/>
          </g>
        </g>
        <g id="Group_218" data-name="Group 218" transform="translate(45.585 10.034)">
          <path id="Path_275" data-name="Path 275" d="M-97.825-.805V1.26h6.58a52.833,52.833,0,0,1-.21-5.775v-18.27c0-1.75.035-2.345.105-3.57-1.015.07-2,.1-3.885.1H-111.3a36.644,36.644,0,0,1-6.125-.315v6.37c1.47-.14,2.8-.175,6.02-.175h13.58V-6.685h-14a36.184,36.184,0,0,1-6.09-.28V-.6a49.286,49.286,0,0,1,5.985-.21Zm44.31-2.17c-5.46-5.215-6.9-6.44-11.13-9.485A41.272,41.272,0,0,0-59.5-21.91a5.526,5.526,0,0,1,1.26-2.065l-3.08-3.15a6.422,6.422,0,0,1-2.8.385l-11.97.175c-1.015.035-1.68.035-1.96.035a25.929,25.929,0,0,1-3.675-.245l.175,6.23a41.567,41.567,0,0,1,5.565-.35l9.1-.14a28.156,28.156,0,0,1-7.035,10.29,33.006,33.006,0,0,1-11.34,7.07,18.335,18.335,0,0,1,3.92,5.53,37.96,37.96,0,0,0,12.88-9.59A56.272,56.272,0,0,1-58.415,2.2Zm16.73,5.04a51.322,51.322,0,0,1-.21-5.355v-9.1a8.4,8.4,0,0,0,1.575.7A64.877,64.877,0,0,1-24.395-5.6l3.325-5.95a74.237,74.237,0,0,0-15.925-7.28v-4.795a45.257,45.257,0,0,1,.175-5.11h-6.755a33.113,33.113,0,0,1,.245,5.075V-3.29a49.954,49.954,0,0,1-.21,5.355Zm27.02-24.85a27.313,27.313,0,0,1-4.865-.28l.035,5.985a35.817,35.817,0,0,1,4.725-.21H-5.5a18.548,18.548,0,0,1-1.75,5.985c-1.75,3.535-4.445,6.02-9.1,8.47a20.232,20.232,0,0,1,4.55,5.32C-4.69-2.2-1.365-6.755.175-13.825a30.006,30.006,0,0,0,.525-3.5H7.385A80.85,80.85,0,0,1,6.72-7.56c-.455,3.045-.875,3.605-2.555,3.605a20.048,20.048,0,0,1-4.55-.7A17.227,17.227,0,0,1,.805,1.5a40.992,40.992,0,0,0,4.585.28c3.885,0,5.565-1.12,6.58-4.375.7-2.31,1.225-8.155,1.47-15.645a4.37,4.37,0,0,1,.49-2.59l-2.73-2.38a5.061,5.061,0,0,1-2.345.385H1.225c.07-.84.07-.84.105-1.785a25.114,25.114,0,0,1,.385-4.235l-6.58-.175a9.794,9.794,0,0,1,.1,1.75c0,1.085-.07,3.115-.175,4.48Zm31.045,3.22A44.647,44.647,0,0,1,24.395-10.5l5.46-1.645A44.093,44.093,0,0,0,26.46-21Zm7.77-1.505a41.18,41.18,0,0,1,3.15,8.785l5.355-1.645a35.812,35.812,0,0,0-3.4-8.54Zm12.005-.7a24.456,24.456,0,0,1-1.54,7.385c-2.17,5.81-5.985,9.31-13.02,12.04a17.851,17.851,0,0,1,3.85,4.935A47.387,47.387,0,0,0,34.58.245,25.439,25.439,0,0,0,41.93-6.86c1.96-2.905,3.325-6.475,4.375-11.41a14.076,14.076,0,0,1,.525-2.135ZM67.165,2.065a51.323,51.323,0,0,1-.21-5.355v-9.1a8.4,8.4,0,0,0,1.575.7A64.877,64.877,0,0,1,79.555-5.6l3.325-5.95a74.237,74.237,0,0,0-15.925-7.28v-4.795a45.257,45.257,0,0,1,.175-5.11H60.375a33.113,33.113,0,0,1,.245,5.075V-3.29a49.954,49.954,0,0,1-.21,5.355Zm40.18-9.8c-.035-.875-.035-1.26-.035-1.61,0-.525.035-1.225.105-2.695l.7-11.1c.105-1.47.315-3.92.42-4.725H100.38c.175,1.715.35,3.29.42,4.725l.7,11.1c.14,2.065.14,2.065.14,2.73a12.955,12.955,0,0,1-.07,1.575Zm.63,9V-5.355H100.94V1.26Z" transform="translate(1008 5286)" fill="#fff"/>
          <g id="Group_213" data-name="Group 213" transform="translate(16493.635 10472.744)">
            <path id="Path_66" data-name="Path 66" d="M-15619.635-5177.9l-21.7-44.841-6.884,4.271Z" fill="#fff"/>
            <path id="Path_67" data-name="Path 67" d="M-15648.221-5177.9l21.7-44.841,6.884,4.271Z" transform="translate(277.001)" fill="#fff"/>
          </g>
        </g>
      </g>
    </g>
  </g>
</svg>
