<svg xmlns="http://www.w3.org/2000/svg" width="519.529" height="518.001" viewBox="0 0 519.529 518.001">
  <g id="Group_1" data-name="Group 1" transform="translate(-12.9 -13.6)" opacity="0.5">
    <path id="Path_1" data-name="Path 1" d="M35.644,48.876c1.528-1.528,2.292-3.82,3.056-5.348a5.913,5.913,0,0,0,.764-2.292,17.193,17.193,0,0,0-10.7.764c-3.82,1.528-6.876,6.112-9.168,12.988C28,55.752,32.588,52.7,35.644,48.876Z" transform="translate(44.489 180.175)" fill="#fff"/>
    <path id="Path_2" data-name="Path 2" d="M30.332,38.824a23.217,23.217,0,0,0-5.348,3.82,41.428,41.428,0,0,0-4.584,8.4,13.428,13.428,0,0,0,15.28-4.584,18.778,18.778,0,0,0,5.348-6.876A12.919,12.919,0,0,0,30.332,38.824Z" transform="translate(49.801 161.959)" fill="#fff"/>
    <path id="Path_3" data-name="Path 3" d="M27.14,60.816c.764-.764,2.292-1.528,3.056-3.056.764-.764,1.528-2.292,2.292-3.056a52.644,52.644,0,0,1,2.292-6.112c0-.764,0-1.528.764-1.528V46.3c-3.82,0-7.64.764-9.932,3.056a13.7,13.7,0,0,0-3.82,5.348c-.764,1.528-.764,2.292-1.528,3.82,0,1.528-.764,3.056-.764,5.348A22.879,22.879,0,0,0,27.14,60.816Z" transform="translate(43.825 217.132)" fill="#fff"/>
    <path id="Path_4" data-name="Path 4" d="M27.9,56.724c2.292-1.528,3.82-3.82,5.348-5.348a43.824,43.824,0,0,0,3.056-5.348,5.913,5.913,0,0,0,.764-2.292C30.2,42.972,22.556,44.5,19.5,59.78,22.556,59.016,25.612,58.252,27.9,56.724Z" transform="translate(43.825 199.068)" fill="#fff"/>
    <path id="Path_5" data-name="Path 5" d="M31.594,60.868a21.371,21.371,0,0,0,.764-9.168c-3.82.764-6.876,2.292-9.168,5.348-.764,1.528-2.292,3.82-2.292,6.112q-1.146,3.438,0,9.168A13.64,13.64,0,0,0,31.594,60.868Z" transform="translate(49.303 252.989)" fill="#fff"/>
    <path id="Path_6" data-name="Path 6" d="M28.1,63.616c.764-.764,1.528-2.292,2.292-3.056s.764-2.292,1.528-3.056a29.5,29.5,0,0,0,1.528-8.4c-3.82,0-6.876,1.528-9.932,3.82-1.528,1.528-2.292,3.056-3.056,6.112-.764,1.528-.764,2.292-.764,4.584v5.348A22.757,22.757,0,0,0,28.1,63.616Z" transform="translate(45.153 235.725)" fill="#fff"/>
    <path id="Path_7" data-name="Path 7" d="M32.607,65.5c0-2.292,0-4.584-.764-6.112a3.346,3.346,0,0,0-.764-2.292c-3.056,1.528-6.112,3.82-7.64,6.876a9.583,9.583,0,0,0-.764,6.876q0,3.438,2.292,9.168C31.079,76.2,32.607,70.088,32.607,65.5Z" transform="translate(62.806 288.846)" fill="#fff"/>
    <path id="Path_8" data-name="Path 8" d="M31.232,62.9V54.5a11.829,11.829,0,0,0-8.4,6.112A14.393,14.393,0,0,0,21.3,66.724a22.71,22.71,0,0,0,1.528,9.168C28.94,73.6,30.468,67.488,31.232,62.9Z" transform="translate(55.777 271.581)" fill="#fff"/>
    <path id="Path_9" data-name="Path 9" d="M41.928,39.522a9.455,9.455,0,0,1,1.528-2.292C37.344,34.174,28.94,33.41,21.3,46.4a12.777,12.777,0,0,0,9.168.764c1.528,0,2.292-.764,3.82-1.528a10.547,10.547,0,0,0,3.056-2.292A7.825,7.825,0,0,0,41.928,39.522Z" transform="translate(55.777 144.453)" fill="#fff"/>
    <path id="Path_10" data-name="Path 10" d="M43.328,37.484l1.528-1.528A15.356,15.356,0,0,0,34.924,32.9c-3.82.764-7.64,3.056-12.224,9.168,3.056,1.528,6.112,2.292,8.4,1.528,2.292,0,5.348-1.528,6.876-2.292C40.272,39.776,41.8,38.248,43.328,37.484Z" transform="translate(65.073 128.154)" fill="#fff"/>
    <path id="Path_11" data-name="Path 11" d="M46.256,34.42a12.652,12.652,0,0,0-9.168-3.82,23.617,23.617,0,0,0-6.112,1.528A41.987,41.987,0,0,0,24.1,37.476a12.736,12.736,0,0,0,14.516.764C43.964,36.712,46.256,34.42,46.256,34.42Z" transform="translate(74.369 112.882)" fill="#fff"/>
    <path id="Path_12" data-name="Path 12" d="M36.7,37.668c.764,0,2.292-.764,3.056-.764a12.439,12.439,0,0,0,4.584-2.292c1.528-.764,1.528-1.528,1.528-1.528a15.852,15.852,0,0,0-7.64-4.584c-1.528,0-3.82,0-5.348.764A18.041,18.041,0,0,0,26,33.848,9.333,9.333,0,0,0,32.876,36.9,6.888,6.888,0,0,0,36.7,37.668Z" transform="translate(86.986 98.938)" fill="#fff"/>
    <path id="Path_13" data-name="Path 13" d="M56.265,299.411l6.876,11.46,1.528-.764C50.917,287.95,40.984,263.5,36.4,238.29a218.21,218.21,0,0,1,0-77.165A206,206,0,0,1,63.9,89.307c12.224-19.1,27.5-36.673,45.841-50.425a22.6,22.6,0,0,0,7.64-1.528c2.292-.764,4.584-1.528,6.112-3.056l2.292-2.292,2.292-2.292c1.528-1.528,2.292-3.056,3.82-5.348a25,25,0,0,0-9.932.764,20.355,20.355,0,0,0-7.64,4.584c-2.292,1.528-3.82,4.584-4.584,7.64-3.056,2.292-5.348,4.584-8.4,6.876.764-.764.764-1.528,1.528-2.292a10.859,10.859,0,0,0,1.528-4.584,12.907,12.907,0,0,0-2.292-7.64l-.764.764a2.667,2.667,0,0,0-.764,1.528,11.748,11.748,0,0,0-3.056,4.584c-1.528,3.056-2.292,7.64.764,11.46-3.82,3.82-8.4,7.64-11.46,11.46.764-1.528,1.528-2.292,1.528-3.82.764-2.292,1.528-3.82,1.528-5.348,0-3.82-1.528-6.112-3.82-8.4a9.456,9.456,0,0,0-1.528,2.292c-.764,1.528-2.292,3.056-3.056,5.348-.764.764-.764,2.292-.764,3.056v3.82c0,2.292,1.528,4.584,3.056,6.112L72.309,76.319c.764-1.528.764-3.056,1.528-4.584a18.987,18.987,0,0,0,.764-6.112,12.527,12.527,0,0,0-5.348-8.4,47.729,47.729,0,0,0-3.82,8.4c-.764,4.584-.764,9.932,4.584,13.752A43.317,43.317,0,0,0,63.9,89.307c-1.528,2.292-2.292,3.82-3.82,6.112a20.3,20.3,0,0,0,.764-11.46c-.764-3.82-3.056-6.112-6.112-8.4a8.362,8.362,0,0,0-1.528,3.056,15.256,15.256,0,0,0-1.528,6.876,25.991,25.991,0,0,0,.764,7.64,10.218,10.218,0,0,0,5.348,6.112,195.364,195.364,0,0,0-8.4,18.336c2.292-12.224-1.528-16.808-7.64-19.864,0,0-.764.764-.764,3.056-.764,1.528-.764,4.584-.764,6.876v3.82a5.836,5.836,0,0,0,1.528,3.82c1.528,2.292,3.056,4.584,6.112,6.112a171.925,171.925,0,0,0-6.112,18.336V133.62a22.308,22.308,0,0,0-1.528-6.876c-1.528-3.82-4.584-5.348-8.4-6.876a24.076,24.076,0,0,0-.764,9.932c.764,5.348,3.056,10.7,9.932,12.988-1.528,6.112-3.056,12.224-4.584,19.1a26.04,26.04,0,0,0-3.056-12.224,15.208,15.208,0,0,0-9.168-6.112v3.056a23.569,23.569,0,0,0,.764,6.876c1.528,5.348,3.82,10.7,10.7,11.46-.764,6.112-1.528,12.988-2.292,19.1C31.816,171.821,26.468,168,19.592,167.236v3.056a28.353,28.353,0,0,0,1.528,6.876c.764,2.292,2.292,5.348,4.584,6.876s4.584,3.056,7.64,3.056c0,6.876-.764,12.988,0,19.864,0-.764,0-.764-.764-1.528-.764-1.528-.764-3.056-1.528-3.82-.764-2.292-2.292-4.584-3.82-5.348-3.056-3.056-6.112-3.82-9.932-3.82V195.5a14.5,14.5,0,0,0,2.292,6.876c.764,1.528,1.528,2.292,2.292,3.82.764.764,1.528,2.292,3.056,3.056a13.724,13.724,0,0,0,8.4,2.292,76.971,76.971,0,0,0,2.292,19.1c0-.764,0-.764-.764-1.528a12.908,12.908,0,0,1-1.528-3.82,33.23,33.23,0,0,0-4.584-5.348,17.541,17.541,0,0,0-10.7-3.056,26.179,26.179,0,0,0,3.82,9.168,10.547,10.547,0,0,0,2.292,3.056c.764.764,2.292,2.292,3.056,2.292a10.609,10.609,0,0,0,8.4,1.528c0,1.528.764,3.056.764,4.584.764,4.584,2.292,9.168,3.056,13.752-.764-1.528-2.292-3.056-3.056-4.584a12.972,12.972,0,0,0-4.584-4.584c-3.056-2.292-6.876-2.292-10.7-1.528A43.229,43.229,0,0,0,25.7,249.75c3.056,3.82,8.4,7.64,14.516,6.112A171.928,171.928,0,0,0,46.332,274.2c-1.528-1.528-2.292-3.056-3.82-4.584-1.528-2.292-3.82-3.056-5.348-3.82a17.192,17.192,0,0,0-10.7-.764L28,268.086a23.216,23.216,0,0,0,3.82,5.348c3.82,3.82,9.168,6.876,15.28,3.82,2.292,6.112,5.348,11.46,8.4,17.572a20.256,20.256,0,0,1-3.82-4.584c-2.292-1.528-3.82-3.056-6.112-3.82a12.92,12.92,0,0,0-10.7.764,9.456,9.456,0,0,1,1.528,2.292,14.317,14.317,0,0,0,4.584,5.348A11.172,11.172,0,0,0,56.265,299.411Z" transform="translate(29.217 70.219)" fill="#fff"/>
    <path id="Path_14" data-name="Path 14" d="M38.032,33.776a10.859,10.859,0,0,0,4.584-1.528c.764,0,.764-.764,1.528-.764h.764A11.881,11.881,0,0,0,38.8,26.9H34.212c-.764,0-1.528.764-3.056.764-.764.764-2.292,1.528-3.056,2.292C30.392,34.54,34.212,34.54,38.032,33.776Z" transform="translate(100.93 88.314)" fill="#fff"/>
    <path id="Path_15" data-name="Path 15" d="M77.256,45.148C74.964,48.2,74.2,53.552,74.2,61.192c7.64-1.528,9.932-6.876,11.46-11.46a23.57,23.57,0,0,0,.764-6.876V39.8A9.976,9.976,0,0,0,77.256,45.148Z" transform="translate(407.04 173.971)" fill="#fff"/>
    <path id="Path_16" data-name="Path 16" d="M73.5,49.688a50.712,50.712,0,0,0,.764,9.932c6.876-2.292,9.168-7.64,9.932-12.988a24.077,24.077,0,0,0-.764-9.932c-3.056,1.528-6.112,3.056-8.4,6.876C74.264,44.34,73.5,46.632,73.5,49.688Z" transform="translate(402.392 153.387)" fill="#fff"/>
    <path id="Path_17" data-name="Path 17" d="M81.376,50.584a13.7,13.7,0,0,0-3.82,5.348c-.764,1.528-.764,2.292-1.528,3.82S75.264,62.808,74.5,65.1q5.73,0,9.168-2.292c.764-.764,2.292-1.528,3.056-3.056a16.7,16.7,0,0,0,2.292-3.82l2.292-6.876V46A28.956,28.956,0,0,0,81.376,50.584Z" transform="translate(409.032 215.14)" fill="#fff"/>
    <path id="Path_18" data-name="Path 18" d="M74.6,63.528c3.82,0,6.112-1.528,8.4-3.82s3.056-4.584,4.584-6.876a28.354,28.354,0,0,0,1.528-6.876V42.9C81.476,43.664,75.364,48.248,74.6,63.528Z" transform="translate(409.696 194.556)" fill="#fff"/>
    <path id="Path_19" data-name="Path 19" d="M82.768,54.792a12.972,12.972,0,0,0-4.584,4.584,41.428,41.428,0,0,0-4.584,8.4c6.876,2.292,12.224-1.528,15.28-6.112A43.226,43.226,0,0,0,93.464,52.5C90.408,52.5,86.588,52.5,82.768,54.792Z" transform="translate(403.056 258.301)" fill="#fff"/>
    <path id="Path_20" data-name="Path 20" d="M81.94,52a33.231,33.231,0,0,0-4.584,5.348c-.764,1.528-1.528,2.292-1.528,3.82A11.043,11.043,0,0,0,74.3,66.517a11.847,11.847,0,0,0,9.168-1.528A10.547,10.547,0,0,0,86.524,62.7c.764-.764,1.528-2.292,2.292-3.056a26.179,26.179,0,0,0,3.82-9.168C88.816,48.944,85,48.944,81.94,52Z" transform="translate(407.704 238.172)" fill="#fff"/>
    <path id="Path_21" data-name="Path 21" d="M83.524,59.1a19.167,19.167,0,0,0-6.112,3.82c-2.292,1.528-3.82,3.82-6.112,7.64,6.112,3.82,12.224,1.528,16.044-2.292a14.317,14.317,0,0,0,4.584-5.348,9.456,9.456,0,0,1,1.528-2.292C91.164,58.333,87.344,58.333,83.524,59.1Z" transform="translate(387.784 299.073)" fill="#fff"/>
    <path id="Path_22" data-name="Path 22" d="M83.3,56.63a23.217,23.217,0,0,0-5.348,3.82c-1.528,2.292-3.82,4.584-5.348,7.64,6.876,3.056,12.224,0,16.044-3.82,1.528-2.292,3.056-3.82,3.82-5.348l1.528-3.056C90.936,55.866,87.116,55.1,83.3,56.63Z" transform="translate(396.416 279.383)" fill="#fff"/>
    <path id="Path_23" data-name="Path 23" d="M80.792,51.272c.764-1.528.764-2.292,1.528-3.82v-3.82c0-3.056-.764-5.348-.764-6.876a7.613,7.613,0,0,1-.764-3.056c-6.876,3.056-10.7,9.168-6.876,23.684C77.736,55.856,79.264,53.564,80.792,51.272Z" transform="translate(395.1 133.467)" fill="#fff"/>
    <path id="Path_24" data-name="Path 24" d="M79.653,48.372a25.991,25.991,0,0,0,.764-7.64,22.309,22.309,0,0,0-1.528-6.876L77.361,30.8c-3.056,2.292-5.348,4.584-6.112,8.4s0,8.4,2.292,15.28C76.6,52.956,78.125,50.664,79.653,48.372Z" transform="translate(385.543 114.21)" fill="#fff"/>
    <path id="Path_25" data-name="Path 25" d="M73.684,51.32C79.032,47.5,79.8,42.152,78.268,36.8a47.723,47.723,0,0,0-3.82-8.4c-2.292,2.292-4.584,4.584-5.348,8.4a18.988,18.988,0,0,0,.764,6.112A74.46,74.46,0,0,0,73.684,51.32Z" transform="translate(373.175 98.274)" fill="#fff"/>
    <path id="Path_26" data-name="Path 26" d="M72.548,47.792c2.292-2.292,3.82-4.584,3.82-6.876V37.1c0-1.528-.764-2.292-.764-3.056a12.314,12.314,0,0,0-3.056-5.348A9.454,9.454,0,0,0,71.02,26.4c-2.292,2.292-3.82,4.584-3.82,8.4,0,1.528,0,3.82,1.528,5.348C69.492,42.444,71.02,44.736,72.548,47.792Z" transform="translate(360.559 84.994)" fill="#fff"/>
    <path id="Path_27" data-name="Path 27" d="M68.356,40.844c.764.764,1.528,2.292,2.292,3.056,3.82-3.82,3.056-8.4,1.528-12.224-.764-1.528-2.292-3.056-3.056-4.584-.764-.764-.764-.764-.764-1.528l-.764-.764A12.907,12.907,0,0,0,65.3,32.44a10.859,10.859,0,0,0,1.528,4.584A5.836,5.836,0,0,0,68.356,40.844Z" transform="translate(347.943 74.369)" fill="#fff"/>
    <path id="Path_28" data-name="Path 28" d="M65.892,34.032a11.126,11.126,0,0,0,6.876,4.584,27.466,27.466,0,0,0,8.4,1.528c3.056,2.292,5.348,4.584,8.4,6.876-.764,0-1.528-.764-2.292-.764a4.871,4.871,0,0,0-4.584,0,9.489,9.489,0,0,0-6.112,4.584h.764a2.667,2.667,0,0,0,1.528.764c.764.764,2.292.764,4.584,1.528,3.056.764,7.64.764,10.7-3.056l11.46,11.46c-1.528-.764-2.292-1.528-3.82-1.528a14.916,14.916,0,0,0-5.348-.764c-3.056,0-6.112,2.292-7.64,4.584l1.528,1.528,4.584,2.292c.764,0,2.292.764,3.056.764h3.056a9.333,9.333,0,0,0,6.876-3.056l11.46,13.752a13.413,13.413,0,0,0-3.82-3.056c-2.292-.764-3.82-1.528-6.112-1.528-3.82,0-6.112,1.528-9.168,3.82a15.041,15.041,0,0,0,6.876,4.584c3.82,1.528,9.168,3.056,13.752-.764a63.733,63.733,0,0,1,6.112,9.168c1.528,2.292,2.292,4.584,3.82,6.112-3.82-3.82-6.876-6.112-9.932-6.112-3.82-.764-6.876.764-9.932,3.056l1.528,1.528c.764.764,3.056,2.292,4.584,3.82a12.323,12.323,0,0,0,6.876,2.292,17.912,17.912,0,0,0,8.4-1.528l9.168,18.336c-6.876-9.932-14.516-9.168-19.864-6.112a9.454,9.454,0,0,1,1.528,2.292,12.972,12.972,0,0,0,4.584,4.584c.764.764,2.292,1.528,3.056,2.292s2.292.764,3.82,1.528a11.066,11.066,0,0,0,8.4-.764,171.934,171.934,0,0,1,6.112,18.336,11.748,11.748,0,0,0-3.056-4.584c-1.528-2.292-3.82-3.056-5.348-3.82-3.82-1.528-6.876-.764-10.7.764a18.778,18.778,0,0,0,5.348,6.876c3.056,3.056,8.4,6.112,14.516,4.584l4.584,18.336c-2.292-5.348-4.584-7.64-7.64-9.168s-6.876-1.528-10.7-.764a5.913,5.913,0,0,0,.764,2.292c.764,1.528,2.292,3.056,3.056,5.348a15.473,15.473,0,0,0,14.516,6.112c.764,6.112,1.528,12.988,2.292,19.1-3.056-11.46-10.7-12.988-16.808-12.224a5.913,5.913,0,0,0,.764,2.292c.764,1.528,1.528,3.82,3.056,5.348a17.85,17.85,0,0,0,5.348,5.348,13.724,13.724,0,0,0,8.4,2.292c0,6.112.764,12.224,0,19.1V206.7a5.836,5.836,0,0,0-1.528-3.82,13.7,13.7,0,0,0-3.82-5.348,16.805,16.805,0,0,0-9.932-3.056v.764c0,.764,0,.764.764,1.528a12.193,12.193,0,0,0,2.292,6.112c.764.764,1.528,2.292,2.292,3.056s1.528,2.292,3.056,3.056c2.292,1.528,4.584,3.056,7.64,3.056a81.589,81.589,0,0,1-2.292,19.1v-1.528c0-1.528-.764-3.056-.764-4.584-.764-2.292-1.528-4.584-3.056-6.112-2.292-3.056-6.112-3.82-9.932-3.82a29.5,29.5,0,0,0,1.528,8.4c.764.764.764,2.292,1.528,3.056s1.528,2.292,2.292,3.056a17.911,17.911,0,0,0,7.64,3.82c0,1.528-.764,3.056-.764,4.584-.764,4.584-2.292,9.168-3.056,14.516v-6.112a52.632,52.632,0,0,0-2.292-6.112c-2.292-3.056-5.348-4.584-9.168-5.348a21.282,21.282,0,0,0,.764,9.168c.764,4.584,3.82,9.932,9.932,11.46a171.911,171.911,0,0,1-6.112,18.336c0-2.292.764-3.82.764-6.112a14.393,14.393,0,0,0-1.528-6.112,16.02,16.02,0,0,0-8.4-6.112V264c.764,4.584,2.292,9.932,9.168,12.988-2.292,6.112-5.348,11.46-8.4,17.572a14.915,14.915,0,0,0,.764-5.348,21.152,21.152,0,0,0-.764-6.876c-1.528-3.82-4.584-5.348-7.64-6.876a5.913,5.913,0,0,1-.764,2.292c0,1.528-.764,3.82-.764,6.112a15.36,15.36,0,0,0,7.64,13.752l-6.876,11.46,1.528.764c13.752-22.156,23.684-46.6,28.268-71.817a218.211,218.211,0,0,0,0-77.165,206,206,0,0,0-27.5-71.817c-12.224-19.1-27.5-36.673-45.841-50.425a30.967,30.967,0,0,0-3.82-6.876c-1.528-2.292-3.82-3.056-5.348-4.584-.764-.764-2.292-.764-3.056-1.528-.764,0-2.292-.764-3.056-.764-2.292,0-4.584-.764-6.112-.764C60.544,26.392,62.072,30.212,65.892,34.032Z" transform="translate(324.43 69.721)" fill="#fff"/>
    <path id="Path_29" data-name="Path 29" d="M60.2,84.352l8.4,15.28L82.356,70.6A252.888,252.888,0,0,1,60.2,84.352Z" transform="translate(314.078 378.487)" fill="#fff"/>
    <path id="Path_30" data-name="Path 30" d="M44.452,100.3l8.4-15.28C45.216,80.432,38.34,75.848,30.7,70.5Z" transform="translate(118.194 377.823)" fill="#fff"/>
    <path id="Path_31" data-name="Path 31" d="M60.312,80.4,54.2,69.7h0l1.528,12.224Z" transform="translate(274.237 372.511)" fill="#fff"/>
    <path id="Path_32" data-name="Path 32" d="M57.476,72.69c0-.764-.764-1.528-1.528-2.292a1.433,1.433,0,0,0-2.292,0c-.764,0-1.528.764-2.292,1.528a2.807,2.807,0,0,0-.764,2.292l3.056,16.808c0,.764.764,1.528,1.528,2.292a1.432,1.432,0,0,0,2.292,0c.764,0,1.528-.764,2.292-1.528a2.807,2.807,0,0,0,.764-2.292Z" transform="translate(250.333 373.341)" fill="#fff"/>
    <path id="Path_33" data-name="Path 33" d="M49.076,70a2.807,2.807,0,0,0-2.292.764c-.764.764-.764,1.528-1.528,2.292L42.2,89.864c0,.764,0,2.292.764,2.292a2.807,2.807,0,0,0,2.292.764,2.807,2.807,0,0,0,2.292-.764c.764-.764.764-1.528,1.528-2.292l3.056-16.808c0-.764,0-2.292-.764-2.292A2.807,2.807,0,0,0,49.076,70Z" transform="translate(194.556 374.503)" fill="#fff"/>
    <path id="Path_34" data-name="Path 34" d="M272.664,13.6C129.794,13.6,12.9,129.73,12.9,272.6s116.894,259,259.764,259,259.764-116.13,259.764-259S415.535,13.6,272.664,13.6Zm0,513.417c-140.578,0-254.416-113.838-254.416-254.416S132.85,18.184,272.664,18.184,527.081,132.022,527.081,272.6,413.243,527.017,272.664,527.017Z" transform="translate(0 0)" fill="#fff"/>
    <path id="Path_35" data-name="Path 35" d="M48.436,62.228c-.764-.764-.764-.764-1.528-.764A2.667,2.667,0,0,1,45.38,60.7H43.088c-.764,0-1.528.764-2.292,1.528l-5.348,4.584,3.82,3.82L41.56,69.1l-1.528-1.528,3.056-3.056,1.528-1.528c.764,0,.764,0,1.528.764,0,.764.764.764.764,1.528s0,.764-.764,1.528l-8.4,7.64c-.764.764-.764.764-1.528.764s-.764,0-1.528-.764c0-.764-.764-.764-.764-1.528s0-.764.764-1.528l.764-.764L33.156,68.34l-.764.764c-.764.764-.764,1.528-1.528,2.292,0,.764-.764,1.528-.764,2.292v1.528c0,.764.764.764.764,1.528.764.764.764.764,1.528.764a2.667,2.667,0,0,1,1.528.764h2.292c.764,0,1.528-.764,2.292-1.528l8.4-7.64c.764-.764.764-1.528,1.528-2.292,0-.764.764-1.528.764-2.292V62.992A.748.748,0,0,0,48.436,62.228Z" transform="translate(114.21 312.75)" fill="#fff"/>
    <path id="Path_36" data-name="Path 36" d="M43.416,58.8,40.36,60.328l3.82,4.584L28.9,76.372l2.292,2.292L48.764,65.676Z" transform="translate(106.242 300.134)" fill="#fff"/>
    <path id="Path_37" data-name="Path 37" d="M48.128,64.54l-4.584,1.528-2.292-3.82,3.82-3.056L43.544,56.9,27.5,72.18l1.528,2.292,21.392-7.64ZM33.612,70.652h0L39.724,65.3,41.252,67.6Z" transform="translate(96.946 287.518)" fill="#fff"/>
    <path id="Path_38" data-name="Path 38" d="M37.86,65.8v-3.82l.764-.764a2.668,2.668,0,0,1,1.528-.764c.764,0,.764,0,1.528-.764h1.528l.764.764v1.528c0,.764-.764.764-1.528.764l-.764.764,1.528,3.056.764-.764A1.643,1.643,0,0,0,45.5,64.268c.764-.764.764-.764.764-1.528V60.448a2.807,2.807,0,0,0-.764-2.292c-.764-.764-.764-1.528-1.528-2.292a2.366,2.366,0,0,0-1.528-.764H40.152c-.764,0-1.528.764-2.292.764a2.667,2.667,0,0,0-1.528.764c-.764,0-.764.764-1.528.764,0,.764-.764.764-.764,1.528v5.348l-.764.764a.748.748,0,0,0-.764.764H30.22l-.764-.764V63.5c0-.764.764-.764,1.528-1.528H30.22l-1.528.764c-.764,0-.764.764-1.528.764-.764.764-.764.764-.764,1.528v2.292a2.807,2.807,0,0,0,.764,2.292,1.643,1.643,0,0,0,1.528,1.528,2.366,2.366,0,0,0,1.528.764h2.292a2.807,2.807,0,0,0,2.292-.764,10.548,10.548,0,0,0,3.056-2.292S37.86,67.324,37.86,65.8Z" transform="translate(89.642 275.565)" fill="#fff"/>
    <path id="Path_39" data-name="Path 39" d="M35.532,64.2c.764-.764.764-1.528,1.528-3.056V57.32a.748.748,0,0,0,.764-.764,2.366,2.366,0,0,0,1.528-.764h2.292a.748.748,0,0,1,.764.764l.764.764v1.528c0,.764-.764.764-1.528.764H40.88l.764,3.056h.764a2.667,2.667,0,0,0,1.528-.764l1.528-1.528a2.667,2.667,0,0,1,.764-1.528V56.556c0-.764-.764-1.528-1.528-2.292s-.764-.764-1.528-.764H40.88a2.807,2.807,0,0,0-2.292.764c-.764,0-1.528.764-2.292.764s-.764.764-1.528.764S34,56.556,34,57.32v5.348a.748.748,0,0,0-.764.764.748.748,0,0,0-.764.764H30.184l-.764-.764V61.9c.764-.764.764-.764,1.528-.764h.764l-.764-3.056-1.528.764c-.764,0-.764.764-1.528.764L26.364,61.14a2.668,2.668,0,0,1-.764,1.528V64.96c0,.764.764,1.528,1.528,2.292s.764.764,1.528.764h2.292a2.807,2.807,0,0,0,2.292-.764C33.24,65.724,34.768,64.96,35.532,64.2Z" transform="translate(84.33 264.941)" fill="#fff"/>
    <path id="Path_40" data-name="Path 40" d="M45.792,58.4l1.528-1.528c0-.764.764-.764.764-1.528V53.82c0-.764,0-1.528-.764-1.528,0-.764-.764-.764-1.528-1.528-.764,0-.764-.764-1.528-.764h-3.82l.764,3.056H43.5l.764.764v.764c0,.764,0,1.528-.764,1.528s-.764.764-1.528.764L30.512,58.4H28.984c-.764,0-.764-.764-.764-1.528s0-.764.764-1.528.764-.764,1.528-.764h.764l-.764-3.056H28.984a2.807,2.807,0,0,0-2.292.764c-.764,0-.764.764-1.528,1.528s-.764.764-.764,1.528V57.64c0,.764,0,1.528.764,1.528,0,.764.764.764,1.528,1.528.764,0,.764.764,1.528.764h2.292l12.224-1.528C44.264,59.168,45.028,59.168,45.792,58.4Z" transform="translate(76.361 241.701)" fill="#fff"/>
    <path id="Path_41" data-name="Path 41" d="M29.748,57.832l11.46-.764A2.807,2.807,0,0,0,43.5,56.3a1.643,1.643,0,0,0,1.528-1.528c.764-.764.764-.764.764-1.528V51.72c0-.764,0-1.528-.764-1.528,0-.764-.764-.764-.764-1.528C43.5,47.9,43.5,47.9,42.736,47.9H28.984a2.807,2.807,0,0,0-2.292.764,1.643,1.643,0,0,0-1.528,1.528c-.764.764-.764.764-.764,1.528v1.528c0,.764,0,1.528.764,1.528,0,.764.764.764.764,1.528.764.764.764.764,1.528.764A2.807,2.807,0,0,0,29.748,57.832Zm-2.292-6.876c0-.764.764-.764,1.528-.764l11.46-.764c.764,0,1.528,0,1.528.764s.764.764.764,1.528,0,.764-.764,1.528c0,.764-.764.764-1.528.764l-11.46.764c-.764,0-1.528,0-1.528-.764s-.764-.764-.764-1.528C27.456,52.484,27.456,51.72,27.456,50.956Z" transform="translate(76.361 227.756)" fill="#fff"/>
    <path id="Path_42" data-name="Path 42" d="M45.792,54.668,41.208,53.14V49.32l4.584-.764V45.5L24.4,49.32v2.292l21.392,6.112Zm-7.64-1.528-7.64-2.292h0l7.64-.764Z" transform="translate(76.361 211.82)" fill="#fff"/>
    <path id="Path_43" data-name="Path 43" d="M28.32,50.376l18.336,3.056.764-3.056L28.32,47.32l.764-3.056L26.028,43.5,24.5,53.432l3.056.764Z" transform="translate(77.026 198.54)" fill="#fff"/>
    <path id="Path_44" data-name="Path 44" d="M47.056,46.784,25.664,42.2,24.9,45.256,46.292,49.84Z" transform="translate(79.682 189.908)" fill="#fff"/>
    <path id="Path_45" data-name="Path 45" d="M46.692,53.552,34.468,48.968H48.22l.764-2.292L28.356,39.8l-.764,2.292,12.224,4.584H26.064L25.3,49.732l20.628,6.876Z" transform="translate(82.338 173.971)" fill="#fff"/>
    <path id="Path_46" data-name="Path 46" d="M27.828,46.768A5.874,5.874,0,0,0,30.12,48.3l10.7,4.584c.764,0,1.528.764,2.292.764H45.4c.764,0,.764-.764,1.528-.764.764-.764.764-.764.764-1.528s.764-.764.764-1.528V48.3a2.668,2.668,0,0,0-.764-1.528A5.874,5.874,0,0,0,45.4,45.24l-6.876-4.584L36.232,45.24l2.292,1.528.764-2.292L43.108,46c.764,0,.764.764,1.528,1.528V49.06a.748.748,0,0,1-.764.764H42.344l-10.7-4.584c-.764,0-.764-.764-1.528-1.528V42.184a.748.748,0,0,1,.764-.764h1.528l.764.764L34.7,39.128l-.764-.764c-.764,0-1.528-.764-2.292-.764H29.356c-.764,0-.764.764-1.528.764-.764.764-.764.764-.764,1.528s-.764.764-.764,1.528v1.528C27.064,45.24,27.064,46,27.828,46.768Z" transform="translate(88.978 159.363)" fill="#fff"/>
    <path id="Path_47" data-name="Path 47" d="M73.1,50.888a2.668,2.668,0,0,0,1.528-.764c.764,0,.764-.764,1.528-.764,0-.764.764-.764.764-1.528V42.484l.764-.764a.748.748,0,0,0,.764-.764h2.292l.764.764v1.528c0,.764-.764.764-1.528,1.528h-.764l1.528,3.056,1.528-.764c.764,0,.764-.764,1.528-.764.764-.764.764-.764.764-1.528a2.807,2.807,0,0,1,.764-2.292,2.807,2.807,0,0,0-.764-2.292,1.643,1.643,0,0,0-1.528-1.528,2.366,2.366,0,0,0-1.528-.764H79.216a2.807,2.807,0,0,0-2.292.764,10.547,10.547,0,0,0-3.056,2.292c-.764.764-.764,1.528-.764,3.056v3.82l-.764.764a2.668,2.668,0,0,1-1.528.764c-.764,0-.764,0-1.528.764H67.756l-.764-.764V47.832c0-.764.764-.764,1.528-.764l.764-.764-1.528-3.056-.764.764a1.643,1.643,0,0,0-1.528,1.528c-.764.764-.764.764-.764,1.528V49.36a2.807,2.807,0,0,0,.764,2.292c.764.764.764,1.528,1.528,2.292a2.366,2.366,0,0,0,1.528.764h2.292C71.576,51.652,72.34,51.652,73.1,50.888Z" transform="translate(343.959 161.355)" fill="#fff"/>
    <path id="Path_48" data-name="Path 48" d="M85.164,50l3.056-.764L85.164,39.3l-3.056,1.528,1.528,3.056L65.3,50l1.528,3.056L84.4,46.94Z" transform="translate(347.943 170.651)" fill="#fff"/>
    <path id="Path_49" data-name="Path 49" d="M67.028,45.22l4.584-.764.764,3.82-4.584,2.292.764,3.056L88.42,43.692,87.656,41.4,65.5,42.928Zm16.044-.764h0l-7.64,3.82-.764-3.056Z" transform="translate(349.271 184.596)" fill="#fff"/>
    <path id="Path_50" data-name="Path 50" d="M66.864,49.876l9.168-1.528v1.528l-8.4,4.584.764,3.056,9.168-4.584c.764.764,1.528,1.528,2.292,1.528h3.056c4.584-.764,6.112-3.056,5.348-6.112L87.492,43,66.1,46.82ZM85.2,46.056v3.056a.748.748,0,0,1-.764.764l-.764.764h-3.82a.748.748,0,0,1-.764-.764,2.366,2.366,0,0,0-.764-1.528V46.82Z" transform="translate(353.255 195.22)" fill="#fff"/>
    <path id="Path_51" data-name="Path 51" d="M85.5,48.62,66.4,50.148l.764,3.056L85.5,51.676l.764,3.056H89.32L87.792,44.8H85.5Z" transform="translate(355.247 207.172)" fill="#fff"/>
    <path id="Path_52" data-name="Path 52" d="M66.5,50.52l22.156-.764V46.7L66.5,47.464Z" transform="translate(355.911 219.788)" fill="#fff"/>
    <path id="Path_53" data-name="Path 53" d="M66.5,50.856l12.988.764h0L66.5,55.44V58.5l21.392.764V56.2L74.9,55.44h0l13.752-3.82V49.328L66.5,47.8Z" transform="translate(355.911 227.092)" fill="#fff"/>
    <path id="Path_54" data-name="Path 54" d="M87.692,53.62c0-.764-.764-.764-1.528-1.528a2.807,2.807,0,0,0-2.292-.764L72.412,49.8H70.12a2.667,2.667,0,0,0-1.528.764l-1.528,1.528c0,.764-.764.764-.764,1.528v1.528a2.667,2.667,0,0,0,.764,1.528c0,.764.764.764,1.528,1.528a2.807,2.807,0,0,0,2.292.764l6.876.764.764-5.348-3.056-.764v2.292l-3.82-.764a2.667,2.667,0,0,1-1.528-.764c0-.764-.764-.764,0-1.528,0-.764,0-.764.764-1.528.764,0,.764-.764,1.528,0l11.46,1.528a2.667,2.667,0,0,1,1.528.764c0,.764.764.764,0,1.528,0,.764,0,.764-.764,1.528-.764,0-.764.764-1.528,0h-.764l-.764,3.056h3.056a2.668,2.668,0,0,0,1.528-.764l1.528-1.528c0-.764.764-.764.764-1.528V54.384C87.692,55.148,87.692,54.384,87.692,53.62Z" transform="translate(354.583 240.373)" fill="#fff"/>
    <path id="Path_55" data-name="Path 55" d="M65.7,55.656,87.092,61l.764-2.292L66.464,52.6Z" transform="translate(350.599 258.965)" fill="#fff"/>
    <path id="Path_56" data-name="Path 56" d="M67.392,55.892,80.38,60.476H65.864L65.1,62.768l20.628,7.64.764-2.292L74.268,63.532H88.02l1.528-3.056L68.92,53.6Z" transform="translate(346.615 265.605)" fill="#fff"/>
    <path id="Path_57" data-name="Path 57" d="M84.628,66.132,83.1,64.6l-1.528-.764-1.528,2.292,1.528.764a.748.748,0,0,1,.764.764v.764a.748.748,0,0,1-.764.764H79.28c-.764,0-.764-.764-1.528-.764l-.764-.764-6.876-9.932L67.82,56.2,64,63.84l3.056,1.528,2.292-4.584,6.112,8.4a.748.748,0,0,0,.764.764l.764.764.764.764a2.668,2.668,0,0,0,1.528.764c.764,0,1.528.764,2.292.764h2.292c.764,0,1.528,0,1.528-.764.764,0,.764-.764,1.528-1.528,0-.764.764-.764.764-1.528V67.66A8.362,8.362,0,0,1,84.628,66.132Z" transform="translate(339.311 282.87)" fill="#fff"/>
    <path id="Path_58" data-name="Path 58" d="M82.4,67.068c0-.764-.764-.764-1.528-1.528l-10.7-6.876a2.366,2.366,0,0,0-1.528-.764H67.12c-.764,0-.764,0-1.528.764-.764,0-.764.764-1.528,1.528,0,.764-.764.764-.764,1.528v1.528c0,.764,0,.764.764,1.528,0,.764.764.764,1.528,1.528l10.7,6.876c0,.764.764.764,1.528.764h1.528c.764,0,.764,0,1.528-.764.764,0,.764-.764,1.528-1.528,0-.764.764-.764.764-1.528V68.6C82.4,68.6,82.4,67.832,82.4,67.068Zm-3.056,3.056-.764.764H77.052l-10.7-6.876-.764-.764v-.764l.764-.764h1.528L78.58,68.6l.764.764C80.108,69.36,80.108,70.124,79.344,70.124Z" transform="translate(334.663 294.158)" fill="#fff"/>
    <path id="Path_59" data-name="Path 59" d="M79.108,67.8l-9.932-7.64a2.366,2.366,0,0,0-1.528-.764H66.12c-.764,0-.764,0-1.528.764-.764,0-.764.764-1.528.764,0,.764-.764.764-.764,1.528v1.528c0,.764,0,.764.764,1.528,0,.764.764.764,1.528,1.528l9.932,7.64a2.366,2.366,0,0,0,1.528.764H77.58c.764,0,.764,0,1.528-.764.764,0,.764-.764,1.528-.764,0-.764.764-.764.764-1.528V70.86c0-.764,0-.764-.764-1.528A1.643,1.643,0,0,0,79.108,67.8ZM77.58,72.388l-.764.764h-.764l-9.932-7.64-.764-.764v-.764l.764-.764h.764l9.932,7.64.764.764C78.344,71.624,78.344,71.624,77.58,72.388Z" transform="translate(328.022 304.118)" fill="#fff"/>
    <path id="Path_60" data-name="Path 60" d="M77.344,69.868l-9.168-8.4c-.764-.764-.764-.764-1.528-.764H65.12c-.764,0-.764,0-1.528.764-.764,0-.764.764-1.528.764-.764.764-.764.764-.764,1.528v1.528c0,.764,0,1.528.764,1.528,0,.764.764.764,1.528,1.528l9.168,8.4c.764.764.764.764,1.528.764h1.528c.764,0,.764,0,1.528-.764.764,0,.764-.764,1.528-.764.764-.764.764-.764.764-1.528V72.924c0-.764,0-1.528-.764-1.528A1.643,1.643,0,0,1,77.344,69.868Zm-2.292,4.584-.764.764c-.764,0-.764,0-.764-.764l-9.168-8.4-.764-.764c0-.764,0-.764.764-.764l.764-.764c.764,0,.764,0,.764.764l9.168,8.4.764.764A.748.748,0,0,1,75.052,74.452Z" transform="translate(321.382 312.75)" fill="#fff"/>
    <path id="Path_61" data-name="Path 61" d="M50.5,99.327c3.82-.764,9.932-2.292,12.988-4.584,3.056-3.056,3.82-7.64,3.82-9.932,0-3.056-2.292-6.112-6.112-8.4l-3.056-2.292c-3.056-2.292-3.82-3.056-4.584-3.056a2.807,2.807,0,0,1-.764-2.292,4.2,4.2,0,0,1,2.292-3.82,6.6,6.6,0,0,1,4.584-2.292q4.584,0,6.876,2.292h1.528c.764-1.528,1.528-2.292,1.528-3.056S68.832,60.362,67.3,59.6s-3.056-.764-5.348,0c-3.82.764-7.64,1.528-9.932,3.82S48.2,68,48.2,71.058c0,2.292,1.528,5.348,5.348,7.64l3.056,2.292c3.82,2.292,5.348,4.584,5.348,6.112a6.6,6.6,0,0,1-2.292,4.584,8.675,8.675,0,0,1-6.112,2.292c-2.292,0-4.584,0-6.112-1.528-1.528-.764-2.292-3.056-2.292-5.348v-.764h-.764c-2.292,1.528-4.584,5.348-4.584,6.876,0,2.292.764,3.82,3.056,4.584a9.69,9.69,0,0,0,4.584.764C48.2,99.327,48.968,99.327,50.5,99.327Z" transform="translate(178.62 301.628)" fill="#fff"/>
    <path id="Path_62" data-name="Path 62" d="M142.312,71.391c-2.292.764-3.056.764-4.584,0-1.528-1.528,1.528-4.584,3.056-6.876,1.528-1.528,2.292-2.292,1.528-3.056l-.764-.764c-.764,0-8.4-.764-9.932,0a5.7,5.7,0,0,0-2.292,2.292h0c-2.292,3.056-4.584,6.112-6.876,7.64a15.616,15.616,0,0,1-6.876,3.82h-2.292a2.807,2.807,0,0,1-.764-2.292,22.878,22.878,0,0,0,7.64-3.056c2.292-1.528,3.056-3.056,3.056-4.584,0-.764-.764-2.292-1.528-2.292-.764-.764-2.292-.764-3.82-.764a8.024,8.024,0,0,0-6.876,3.82,9.333,9.333,0,0,0-3.056,6.876,10.859,10.859,0,0,0,1.528,4.584c.764.764,2.292.764,3.056,1.528h1.528q4.584,0,9.168-4.584c3.056-2.292,6.112-5.348,7.64-9.168a3.05,3.05,0,0,1,3.056-1.528,3.346,3.346,0,0,1,2.292.764l-.764.764a28.843,28.843,0,0,0-3.82,6.112c-.764,1.528,0,2.292.764,3.056,1.528,1.528,6.112.764,9.168-.764,1.528-.764,4.584,0,4.584.764.764.764-.764,1.528-2.292,2.292-3.82,1.528-15.28,3.056-31.325,5.348-3.056,0-5.348.764-7.64.764-5.348.764-9.168.764-13.752,1.528l1.528-4.584h3.056c3.056,0,5.348-1.528,7.64-3.82a9.333,9.333,0,0,0,3.056-6.876,5.836,5.836,0,0,0-1.528-3.82,10.86,10.86,0,0,0-4.584-1.528,6.6,6.6,0,0,0-4.584,2.292l.764-3.82V60.7h-.764a11.043,11.043,0,0,1-5.348,1.528h-3.82v.764c0,.764.764,1.528,1.528,2.292a2.807,2.807,0,0,0,2.292.764h1.528l-.764,4.584c-3.82,6.112-6.112,7.64-7.64,7.64h-.764a3.346,3.346,0,0,1-.764-2.292,6.888,6.888,0,0,1,.764-3.82v-3.82c0-.764,0-.764-.764-.764H80.427a2.807,2.807,0,0,0-2.292.764h0c0,1.528-.764,3.056-3.056,6.876-3.056,4.584-5.348,6.112-6.112,6.112H68.2V79.8a8.307,8.307,0,0,1,.764-3.82V74.447a10.224,10.224,0,0,0,.764-3.82c0-.764,0-.764-.764-.764h-3.82v.764a2.366,2.366,0,0,1-.764,1.528c-.764,3.82-1.528,6.876-1.528,7.64a3.969,3.969,0,0,0,1.528,3.056,2.807,2.807,0,0,0,2.292.764h.764c1.528,0,3.056-1.528,4.584-3.056s2.292-3.056,3.82-4.584h0a6.459,6.459,0,0,0,1.528,4.584,2.807,2.807,0,0,0,2.292.764q3.438,0,6.876-4.584l-2.292,8.4a114.842,114.842,0,0,0-16.808,4.584c-20.628,5.348-22.92,8.4-25.976,10.7l-.764.764a1.433,1.433,0,0,0,0,2.292c1.528,2.292,8.4,4.584,12.988,5.348h2.292c1.528,0,3.056-1.528,5.348-3.056,3.82-3.82,10.7-9.168,22.156-12.988l-1.528,7.64c0,1.528-.764,2.292-.764,3.056s0,.764.764,1.528h1.528a2.807,2.807,0,0,0,2.292-.764h0V99.66l2.292-8.4C92.651,89.728,98,88.964,104.111,88.2c12.224-1.528,39.729-6.112,42.785-8.4s2.292-4.584,1.528-6.112a5.942,5.942,0,0,0-6.112-1.528C143.84,70.627,143.076,70.627,142.312,71.391Zm-27.5-5.348a4.2,4.2,0,0,1,3.82-2.292h1.528v.764a4.094,4.094,0,0,1-2.292,3.056l-4.584,2.292A2.791,2.791,0,0,1,114.807,66.043Zm-19.1,3.82a6.6,6.6,0,0,1,4.584-2.292,2.807,2.807,0,0,1,2.292.764c.764.764.764,1.528.764,3.056a10.859,10.859,0,0,1-1.528,4.584c-1.528,1.528-2.292,2.292-4.584,2.292-1.528,0-2.292,0-3.056-.764Z" transform="translate(180.778 310.463)" fill="#fff"/>
    <path id="Path_63" data-name="Path 63" d="M380.65,337.021a181.007,181.007,0,0,0,19.1-57.3,193.4,193.4,0,0,0,2.292-29.033h0v-7.64h0C398.986,177.343,361.55,120.806,307.3,91.773l25.212-45.841a234.456,234.456,0,0,0-224.62-.764L133.11,91.009a181.46,181.46,0,0,0-95.5,151.275h0v7.64h0A178.8,178.8,0,0,0,39.9,278.956a181.007,181.007,0,0,0,19.1,57.3l-2.292,38.965L20.8,373.694l2.292,3.82a232.489,232.489,0,0,0,81.749,77.165h0l-17.572-38.2h0v-.764l17.572-23.684a10.548,10.548,0,0,0,3.056,2.292L91.853,415.715a207.831,207.831,0,0,0,127.59,43.549c46.6,0,90.918-15.28,128.354-44.313l-16.044-21.392c.764-.764,2.292-1.528,3.056-2.292l17.572,22.92v.764h0v.764l-17.572,38.2a232.489,232.489,0,0,0,81.749-77.165l2.292-3.82-35.909,1.528ZM282.092,48.989l9.932,3.82,6.876-8.4-.764,10.7,9.932,3.82-9.932,3.056-.764,9.932-6.112-8.4-9.932,3.056,6.876-8.4Zm-27.5-6.112,5.348-9.168,1.528,10.7,10.7,1.528-9.168,4.584,1.528,10.7-7.64-7.64-9.168,4.584,5.348-9.168-7.64-7.64Zm-38.2-2.292,3.056-9.932,3.056,9.932h10.7l-8.4,6.112,3.056,9.932-8.4-6.112-8.4,6.112L214.1,46.7l-7.64-6.112ZM178.951,44.4l1.528-10.7,5.348,9.168,10.7-1.528-7.64,7.64,5.348,9.168-9.168-4.584-7.64,7.64,1.528-10.7-9.168-4.584ZM131.582,58.921l9.932-3.82-.764-10.7,6.876,8.4,9.932-3.82-5.348,9.168,6.876,8.4L148.39,63.5l-6.112,9.168-.764-10.7ZM117.066,123.1l15.28-7.64a7.825,7.825,0,0,0,3.82-4.584l5.348-12.224a24.588,24.588,0,0,1,25.976-15.28L185.827,84.9c1.528,0,3.056,0,3.82-.764l18.336-11.46a.748.748,0,0,0,.764-.764h0a16.7,16.7,0,0,0,3.82-2.292h13.752c1.528.764,3.056.764,3.82,2.292h0a.748.748,0,0,1,.764.764l18.336,11.46a8.307,8.307,0,0,0,3.82.764L271.4,83.369a26.887,26.887,0,0,1,25.976,15.28l5.348,12.224a7.825,7.825,0,0,0,3.82,4.584l15.28,7.64a25.622,25.622,0,0,1,12.988,27.5l-3.82,17.572c1.528,2.292,3.056,3.82,4.584,6.112h-.764a134.483,134.483,0,0,1,19.1,44.313h-10.7c0,.764-.764.764-.764,1.528l-.764,1.528h13.752a44.715,44.715,0,0,1,1.528,9.932H335.573l-2.292,3.056h25.212a43.566,43.566,0,0,1,.764,9.932H330.225v.764l.764,2.292h28.268v9.932H333.281l.764,3.056h25.212c0,3.056-.764,6.876-.764,9.932h-22.92c0,.764,0,2.292-.764,3.056h23.684c-.764,3.056-1.528,6.876-2.292,9.932H330.225c-.764.764-1.528,2.292-3.056,3.056h28.268c-.764,3.056-2.292,6.876-3.056,9.932H308.069a5.965,5.965,0,0,0-3.056,3.056h46.6c-1.528,3.056-3.056,6.876-4.584,9.932H301.193c0,.764-.764,2.292-.764,3.056h45.077c-1.528,3.82-3.82,6.876-5.348,9.932H292.025c-1.528,1.528-3.82,2.292-5.348,3.056h51.189a111.757,111.757,0,0,1-6.876,9.932H285.912l-7.64-13.752A21.047,21.047,0,0,0,296.609,305.7l.764-4.584c0-.764,0-1.528.764-1.528,1.528-3.82,3.82-6.876,7.64-8.4l13.752-6.876c8.4-3.82,12.988-13.752,10.7-22.92l-5.348-14.516a15.059,15.059,0,0,1,2.292-11.46l12.224-18.336a19.567,19.567,0,0,0,0-22.156l-10.7-15.28a13.259,13.259,0,0,1-2.292-10.7l3.82-19.1c1.528-8.4-2.292-17.572-9.932-21.392l-15.28-7.64a14.992,14.992,0,0,1-6.876-6.876l-5.348-12.224c-3.056-8.4-11.46-12.988-20.628-12.224l-18.336,1.528a21.152,21.152,0,0,1-6.876-.764L228.611,78.021a17.668,17.668,0,0,0-19.864,0L190.411,90.245c-2.292.764-4.584,1.528-6.876.764L165.2,89.481a20.654,20.654,0,0,0-20.628,12.224l-5.348,12.224a14.992,14.992,0,0,1-6.876,6.876l-15.28,7.64c-7.64,3.82-12.224,12.988-9.932,21.392l3.82,19.1a13.259,13.259,0,0,1-2.292,10.7l-10.7,15.28a19.567,19.567,0,0,0,0,22.156l12.224,18.336a15.059,15.059,0,0,1,2.292,11.46l-3.82,16.808c-2.292,9.168,2.292,18.336,10.7,22.92l13.752,6.876c3.82,1.528,6.112,4.584,7.64,8.4,0,.764,0,1.528.764,1.528l.764,4.584c1.528,9.168,9.932,15.28,19.1,16.044l-7.64,13.752H108.661c-2.292-3.056-4.584-6.876-6.876-9.932h51.189a12.314,12.314,0,0,1-5.348-3.056H100.257c-2.292-3.056-3.82-6.876-5.348-9.932h45.077c-.764-.764-.764-2.292-.764-3.056H94.145c-1.528-3.056-3.056-6.876-4.584-9.932h46.6c-.764-1.528-2.292-2.292-3.056-3.056H88.8c-1.528-3.056-2.292-6.876-3.056-9.932H114.01c-.764-.764-2.292-1.528-3.056-3.056H84.977c-1.528-5.348-1.528-8.4-2.292-12.224h23.684c0-.764-.764-2.292-.764-3.056H82.685a43.565,43.565,0,0,1-.764-9.932h24.448l.764-3.056H81.157v-9.932h28.268l.764-2.292v-.764H81.157c0-3.056.764-6.876.764-9.932h24.448l-2.292-3.056H81.921c.764-3.056.764-6.876,1.528-9.932H97.2l-.764-1.528c0-.764-.764-.764-.764-1.528h-10.7c3.82-16.044,10.7-30.561,19.1-44.313h-.764c1.528-2.292,3.056-3.82,4.584-6.112l-3.82-17.572C101.785,139.142,107.133,127.682,117.066,123.1ZM301.193,365.29,294.317,352.3h21.392c-4.584,4.584-9.168,8.4-14.516,12.988Zm-8.4-16.044-5.348-9.932h40.493a117.509,117.509,0,0,1-9.168,9.932ZM242.364,275.9a85.291,85.291,0,0,0,12.224-7.64c2.292-2.292,3.82-6.112,3.056-9.168,6.112,3.056,8.4,9.168,9.932,17.572,2.292,14.516-3.056,29.8-21.392,42.021l-1.528.764C253.06,301.877,248.476,285.069,242.364,275.9Zm-19.1,1.528c-.764,0-2.292.764-3.056.764s-2.292,0-3.056-.764c-6.112-2.292-21.392-7.64-27.5-13.752-1.528-1.528-2.292-3.82-1.528-5.348l2.292-6.112,26.74-6.112h6.112L250,252.216l2.292,6.112c.764,2.292,0,3.82-1.528,5.348C243.892,269.788,229.376,275.136,223.263,277.428Zm9.168,49.661-6.876,3.82a14.394,14.394,0,0,1-6.112,1.528c-2.292,0-3.82-.764-6.112-1.528l-6.112-3.82c-18.336-20.628-5.348-40.493-.764-46.6a58.027,58.027,0,0,0,8.4,3.056,14.135,14.135,0,0,0,9.168,0,58.024,58.024,0,0,0,8.4-3.056C237.78,285.832,250.768,306.461,232.432,327.089Zm-36.673-7.64-1.528-.764c-18.336-11.46-23.684-27.5-21.392-42.021,1.528-9.168,3.82-14.516,9.932-17.572-.764,3.056.764,6.876,3.056,9.168,3.056,3.056,7.64,5.348,12.224,7.64C191.939,285.069,187.355,301.877,195.759,319.449Zm-47.369-19.1v-1.528c-5.348-20.628-3.056-41.257,6.876-58.829,5.348-9.932,16.044-15.28,23.684-17.572,3.056,3.82,6.112,10.7,6.876,21.392-10.7,3.82-17.572,15.28-19.864,28.268a53.128,53.128,0,0,0,15.28,43.549l-16.808,1.528c-7.64.764-13.752-3.82-15.28-11.46l-.764-4.584h0S148.39,300.349,148.39,300.349Zm-8.4-11.46c-.764-.764-1.528-.764-2.292-1.528l-13.752-6.876a14.353,14.353,0,0,1-7.64-16.044l3.82-16.808h0c7.64-33.617,13.752-48.133,25.212-54.245,4.584-2.292,10.7-3.82,16.808-2.292v2.292a30.05,30.05,0,0,0,8.4,20.628c-7.64,3.056-15.28,10.7-20.628,19.864C141.514,249.16,137.694,269.788,139.986,288.889ZM289.733,233.88c-5.348-9.932-12.988-16.808-20.628-19.864,3.82-5.348,8.4-12.224,8.4-20.628v-2.292c6.112-1.528,12.224,0,16.808,2.292,11.46,6.112,17.572,20.628,25.212,54.245h0l3.82,16.808a14.353,14.353,0,0,1-7.64,16.044l-13.752,6.876c-.764.764-1.528.764-2.292,1.528C301.957,269.788,298.9,249.16,289.733,233.88Zm-57.3,9.168h0l-8.4-.764h-7.64l-8.4.764h0L188.119,226.24l-2.292-4.584a28.021,28.021,0,0,0,14.516-6.112A20.669,20.669,0,0,0,220.207,229.3c11.46,0,17.572-6.876,19.864-13.752a28.02,28.02,0,0,0,14.516,6.112L252.3,226.24ZM250,233.88a46.242,46.242,0,0,0-1.528,11.46l-9.168-.764Zm-49.661,9.932-9.168.764a58.973,58.973,0,0,0-1.528-11.46Zm2.292-58.829v8.4c0,15.28-7.64,22.92-22.156,22.92h0c-4.584-3.82-12.988-12.224-12.224-23.684,0-5.348.764-7.64.764-10.7.764-3.056,1.528-6.876,1.528-15.28,2.292,1.528,5.348,3.056,8.4,3.056h2.292c.764,3.82,2.292,7.64,4.584,9.932C191.175,184.983,198.815,184.983,202.635,184.983Zm-15.28-14.516c12.224,1.528,15.28,5.348,15.28,9.932-3.82.764-9.168.764-12.988-3.056A72.127,72.127,0,0,1,187.355,170.467Zm18.336,43.549c4.584,1.528,10.7,3.056,14.516,3.056s9.932-1.528,14.516-3.056c-1.528,3.82-5.348,10.7-14.516,10.7S207.219,217.835,205.691,214.015Zm31.325-20.628v-8.4c3.82,0,11.46-.764,16.808-5.348,2.292-2.292,3.82-6.112,4.584-9.932H260.7a11.49,11.49,0,0,0,8.4-3.056c0,7.64,1.528,12.224,1.528,15.28.764,3.056.764,5.348.764,10.7,0,11.46-7.64,19.1-12.224,23.684h0C244.656,216.307,237.016,208.667,237.016,193.387Zm0-12.988c0-4.584,3.056-9.168,15.28-9.932-.764,3.056-1.528,6.112-3.056,6.876C246.184,181.163,240.072,180.4,237.016,180.4Zm85.569,51.953-.764.764c-7.64-27.5-16.808-44.313-28.268-50.425A23.409,23.409,0,0,0,275.98,180.4c-.764-2.292-.764-3.82-1.528-6.876,16.808-9.932,36.673-9.168,49.661,9.168l10.7,15.28a15.185,15.185,0,0,1,0,16.044Zm3.056-84.041-3.82,19.1v3.056c-13.752-12.988-30.56-16.044-46.6-7.64v-5.348a33.907,33.907,0,0,0-1.528-9.932c5.348-9.168,19.864-26.74,45.841-14.516C324.113,135.322,327.169,141.434,325.641,148.31Zm-60.357-9.932c-.764,0-.764-.764-1.528-.764-4.584-2.292-10.7-3.056-16.808-3.056,0-4.584,0-12.988,3.82-20.628,6.876-14.516,13.752-19.1,29.8-19.864,3.82,1.528,6.876,3.82,8.4,8.4l5.348,12.224a12.192,12.192,0,0,0,5.348,6.876C280.564,120.806,269.1,133.03,265.284,138.378Zm-29.8-1.528a25.819,25.819,0,0,0-9.168,4.584L222.5,79.549a10.859,10.859,0,0,1,4.584,1.528l19.1,12.224c3.056,1.528,6.876,2.292,9.932,1.528h1.528C239.308,106.289,236.252,129.974,235.488,136.85Zm-7.64,9.932h0A41.721,41.721,0,0,1,250,139.906a24.4,24.4,0,0,1,10.7,2.292c5.348,3.056,7.64,7.64,7.64,14.516,0,3.82-3.056,7.64-8.4,7.64-7.64,0-29.032,0-29.032,17.572v11.46c0,5.348.764,10.7,3.056,14.516-4.584,2.292-11.46,5.348-14.516,5.348s-9.932-3.056-14.516-5.348c2.292-3.82,3.056-9.168,3.056-14.516V181.163c0-17.572-21.392-17.572-29.032-17.572-4.584,0-8.4-3.82-8.4-7.64,0-6.876,2.292-12.224,7.64-14.516a24.4,24.4,0,0,1,10.7-2.292,41.721,41.721,0,0,1,22.156,6.876h0a15.4,15.4,0,0,0,8.4,2.292A10.609,10.609,0,0,0,227.848,146.782Zm-14.516-5.348-9.168-4.584c-.764-6.876-3.82-30.561-22.156-42.021h1.528c3.056,0,6.876,0,9.932-1.528l19.1-12.224a10.859,10.859,0,0,1,4.584-1.528Zm-23.684-27.5c3.82,7.64,3.82,16.044,3.82,20.628-6.112-.764-12.224,0-16.808,3.056-.764,0-.764.764-1.528.764a42.2,42.2,0,0,0-33.617-16.808,41.99,41.99,0,0,0,5.348-6.876l5.348-12.224a15.134,15.134,0,0,1,8.4-8.4C175.895,94.829,182.771,99.413,189.647,113.93ZM167.49,146.782a38.71,38.71,0,0,0-1.528,9.932v5.348c-16.044-8.4-32.853-5.348-46.6,7.64v-3.056l-3.82-19.1c-1.528-6.112,1.528-12.988,7.64-15.28C147.626,120.042,162.142,137.614,167.49,146.782Zm-51.953,35.909c12.988-18.336,32.853-19.1,49.661-9.168,0,3.056-.764,5.348-.764,6.876a23.409,23.409,0,0,0-17.572,2.292c-11.46,6.112-20.628,22.92-28.268,50.425l-.764-.764-12.224-18.336c-3.056-4.584-3.056-10.7,0-16.044Zm158.151,89.39c-2.292-12.224-9.168-23.684-19.864-28.268.764-10.7,3.82-17.572,6.876-21.392,8.4,2.292,18.336,7.64,23.684,17.572a74.822,74.822,0,0,1,6.876,58.829v2.292h0L290.5,305.7c-1.528,6.876-8.4,12.224-15.28,11.46l-16.808-1.528C272.16,301.877,275.98,284.3,273.688,272.08ZM121.65,349.246c-3.056-3.056-6.112-6.876-9.168-9.932h41.257l-5.348,9.932Zm25.212,3.056-6.876,12.224c-5.348-3.82-9.932-7.64-15.28-12.224Zm-24.448,25.212-11.46,15.28A178.1,178.1,0,0,1,65.877,162.062l32.089,14.516c-16.808,28.268-25.212,61.885-19.1,97.03,6.112,38.2,28.268,72.581,58.829,94.738l-8.4,14.516A41.989,41.989,0,0,1,122.414,377.514ZM146.1,433.287l-2.292,4.584-12.224-5.348,12.988-29.033,3.82,1.528-11.46,25.212Zm29.8-13.752-8.4-3.056-3.056,9.168,7.64,2.292-1.528,3.82-7.64-2.292-3.056,9.168,8.4,2.292v4.584l-12.988-3.82,9.168-30.56,12.988,3.82Zm22.156,6.876-3.056,16.808a3.969,3.969,0,0,1-1.528,3.056l-2.292,2.292a2.807,2.807,0,0,1-2.292.764h-3.056c-.764,0-1.528-.764-2.292-.764-.764-.764-1.528-.764-2.292-1.528s-.764-1.528-1.528-3.056v-3.82l3.056-16.808A3.969,3.969,0,0,1,184.3,420.3l2.292-2.292a2.807,2.807,0,0,1,2.292-.764h3.056c.764,0,1.528.764,2.292.764.764.764,1.528.764,2.292,1.528s.764,1.528,1.528,3.056Zm38.965,20.628c0,.764-.764,1.528-1.528,2.292s-1.528,1.528-2.292,1.528c-.764.764-1.528.764-3.056.764h-2.292c-.764,0-1.528-.764-2.292-.764-.764-.764-1.528-1.528-1.528-2.292-.764-.764-.764-2.292-.764-3.82l-.764-17.572c0-.764,0-2.292.764-3.056,0-.764.764-1.528,1.528-2.292s1.528-1.528,2.292-1.528c.764-.764,1.528-.764,3.056-.764.764,0,2.292,0,3.056.764.764,0,1.528.764,2.292,1.528s1.528,1.528,1.528,2.292c.764.764.764,2.292.764,3.056V428.7H233.2v-1.528a2.7,2.7,0,0,0-3.056-3.056c-.764,0-1.528.764-2.292,1.528,0,.764-.764,1.528-.764,3.056l.764,16.044A2.7,2.7,0,0,0,230.9,447.8h.764a.748.748,0,0,0,.764-.764l.764-.764v-3.056h4.584v2.292C237.016,445.511,237.016,446.275,237.016,447.039Zm25.976-3.82a5.792,5.792,0,0,1-1.528,3.056c-.764.764-1.528,1.528-2.292,1.528a2.807,2.807,0,0,1-2.292.764h-3.056c-.764,0-1.528-.764-3.056-.764l-2.292-2.292c-.764-.764-.764-2.292-1.528-3.056l-3.056-16.808v-3.82a5.792,5.792,0,0,1,1.528-3.056c.764-.764,1.528-1.528,2.292-1.528a2.807,2.807,0,0,1,2.292-.764h3.056c.764,0,1.528.764,3.056.764l2.292,2.292c.764.764.764,2.292,1.528,3.056l3.056,16.808C263.756,441.691,263.756,442.455,262.992,443.219Zm24.448-2.292-3.056-6.112-6.112,2.292.764,6.876-4.584.764L271.4,411.895l3.82-1.528,16.808,28.268Zm14.516-6.112L290.5,409.6l-4.584,2.292-1.528-3.82,13.752-6.112,1.528,3.82-4.584,2.292,11.46,25.212Zm-81.749-23.684a159.442,159.442,0,0,1-87.1-25.976l34.381-62.649,15.28-1.528a20.343,20.343,0,0,1,9.168,2.292L211.8,335.493a19.482,19.482,0,0,0,18.336,0L250,323.269c2.292-1.528,6.112-2.292,9.168-2.292l16.044,1.528L309.6,385.154C282.092,401.962,251.532,411.131,220.207,411.131Zm109.254-19.1L318,376.75c-2.292,1.528-4.584,3.82-6.876,5.348l-8.4-14.516a142.548,142.548,0,0,0,58.829-94.738,145.6,145.6,0,0,0-19.1-97.03L374.538,161.3a180.118,180.118,0,0,1,22.156,116.894A182.693,182.693,0,0,1,329.461,392.03Z" transform="translate(52.457 21.912)" fill="#fff"/>
  </g>
</svg>
