<svg xmlns="http://www.w3.org/2000/svg" width="56.482" height="113.925" viewBox="0 0 56.482 113.925">
  <g id="Group_382" data-name="Group 382" transform="translate(-139.466)">
    <path id="Path_382" data-name="Path 382" d="M126.788,6.787c2.287.2,3.959,2.545,3.959,2.545s-2.035,2.008-4.322,1.8-3.959-2.545-3.959-2.545,2.035-2.008,4.321-1.8" transform="translate(16.999 -2.739)" fill="#0074db"/>
    <path id="Path_383" data-name="Path 383" d="M138.5,4.8a6.526,6.526,0,0,0,3.433,3.265,6.911,6.911,0,0,0,.507-4.8A6.524,6.524,0,0,0,139,0a6.9,6.9,0,0,0-.507,4.8" transform="translate(10.622)" fill="#0074db"/>
    <path id="Path_384" data-name="Path 384" d="M138.973,16.856c1.9-1.34,4.62-.625,4.62-.625s-.351,2.889-2.249,4.23-4.62.625-4.62.625.351-2.889,2.249-4.23" transform="translate(11.232 -6.488)" fill="#0074db"/>
    <path id="Path_385" data-name="Path 385" d="M152.94,9.929a6.625,6.625,0,0,0,2.925,3.759,6.851,6.851,0,0,0,1.193-4.668,6.638,6.638,0,0,0-2.924-3.759,6.869,6.869,0,0,0-1.192,4.668" transform="translate(4.707 -2.128)" fill="#0074db"/>
    <path id="Path_386" data-name="Path 386" d="M151.533,22.331c2.068-1.033,4.658.1,4.658.1s-.763,2.8-2.831,3.835-4.658-.1-4.658-.1.763-2.8,2.831-3.835" transform="translate(6.388 -8.856)" fill="#0074db"/>
    <path id="Path_387" data-name="Path 387" d="M166.206,16.9a6.719,6.719,0,0,0,2.361,4.163,6.8,6.8,0,0,0,1.841-4.437,6.72,6.72,0,0,0-2.361-4.163,6.8,6.8,0,0,0-1.84,4.437" transform="translate(-0.69 -5.041)" fill="#0074db"/>
    <path id="Path_388" data-name="Path 388" d="M163.047,29.277c2.191-.707,4.594.8,4.594.8s-1.15,2.656-3.344,3.363-4.6-.8-4.6-.8,1.15-2.656,3.343-3.363" transform="translate(1.939 -11.766)" fill="#0074db"/>
    <path id="Path_389" data-name="Path 389" d="M177.568,25.561a6.807,6.807,0,0,0,1.753,4.475,6.71,6.71,0,0,0,2.442-4.113,6.806,6.806,0,0,0-1.752-4.474,6.708,6.708,0,0,0-2.443,4.112" transform="translate(-5.283 -8.675)" fill="#0074db"/>
    <path id="Path_390" data-name="Path 390" d="M172.794,37.58c2.268-.369,4.432,1.487,4.432,1.487s-1.512,2.455-3.779,2.824-4.432-1.487-4.432-1.487,1.511-2.455,3.779-2.824" transform="translate(-1.829 -15.181)" fill="#0074db"/>
    <path id="Path_391" data-name="Path 391" d="M187.464,35.762a6.874,6.874,0,0,0,1.108,4.691,6.615,6.615,0,0,0,2.992-3.7,6.87,6.87,0,0,0-1.109-4.69,6.613,6.613,0,0,0-2.991,3.7" transform="translate(-9.25 -12.968)" fill="#0074db"/>
    <path id="Path_392" data-name="Path 392" d="M181.239,47.1c2.3-.022,4.178,2.139,4.178,2.139s-1.839,2.2-4.134,2.226-4.178-2.137-4.178-2.137,1.839-2.2,4.134-2.227" transform="translate(-5.101 -19.051)" fill="#0074db"/>
    <path id="Path_393" data-name="Path 393" d="M195.7,47.338a6.913,6.913,0,0,0,.437,4.808,6.506,6.506,0,0,0,3.481-3.21,6.907,6.907,0,0,0-.437-4.808,6.5,6.5,0,0,0-3.481,3.21" transform="translate(-12.507 -17.849)" fill="#0074db"/>
    <path id="Path_394" data-name="Path 394" d="M188.213,57.7c2.274.323,3.832,2.746,3.832,2.746s-2.129,1.9-4.4,1.578-3.832-2.746-3.832-2.746,2.129-1.9,4.4-1.578" transform="translate(-7.813 -23.324)" fill="#0074db"/>
    <path id="Path_395" data-name="Path 395" d="M202.073,60.116c-1.147,2.061-.254,4.822-.254,4.822a6.421,6.421,0,0,0,3.9-2.64c1.147-2.06.254-4.822.254-4.822a6.419,6.419,0,0,0-3.9,2.641" transform="translate(-14.964 -23.248)" fill="#0074db"/>
    <path id="Path_396" data-name="Path 396" d="M193.55,69.192c2.2.668,3.4,3.3,3.4,3.3s-2.377,1.553-4.579.885-3.4-3.3-3.4-3.3,2.377-1.553,4.579-.885" transform="translate(-9.901 -27.919)" fill="#0074db"/>
    <path id="Path_397" data-name="Path 397" d="M206.355,73.913c-1.433,1.858-.951,4.728-.951,4.728a6.341,6.341,0,0,0,4.239-2c1.433-1.858.951-4.728.951-4.728a6.342,6.342,0,0,0-4.239,2" transform="translate(-16.516 -29.087)" fill="#0074db"/>
    <path id="Path_398" data-name="Path 398" d="M197.075,81.4c2.081,1,2.88,3.8,2.88,3.8s-2.575,1.165-4.654.161-2.88-3.8-2.88-3.8S195,80.4,197.075,81.4" transform="translate(-11.297 -32.76)" fill="#0074db"/>
    <path id="Path_399" data-name="Path 399" d="M208.327,88.537c-1.69,1.61-1.636,4.522-1.636,4.522a6.288,6.288,0,0,0,4.485-1.307c1.691-1.609,1.636-4.522,1.636-4.522a6.286,6.286,0,0,0-4.484,1.307" transform="translate(-17.068 -35.274)" fill="#0074db"/>
    <path id="Path_400" data-name="Path 400" d="M198.617,94.156c1.909,1.321,2.287,4.207,2.287,4.207s-2.719.743-4.625-.578-2.287-4.208-2.287-4.208,2.716-.743,4.625.578" transform="translate(-11.932 -37.767)" fill="#0074db"/>
    <path id="Path_401" data-name="Path 401" d="M207.993,103.665c-1.909,1.321-2.287,4.207-2.287,4.207s2.716.743,4.625-.578,2.287-4.208,2.287-4.208-2.716-.743-4.625.578" transform="translate(-16.67 -41.613)" fill="#0074db"/>
    <path id="Path_402" data-name="Path 402" d="M198.133,107.263c1.69,1.61,1.636,4.522,1.636,4.522a6.288,6.288,0,0,1-4.485-1.307c-1.691-1.609-1.636-4.522-1.636-4.522a6.286,6.286,0,0,1,4.484,1.307" transform="translate(-11.793 -42.848)" fill="#0074db"/>
    <path id="Path_403" data-name="Path 403" d="M205.547,118.376c-2.081,1-2.88,3.8-2.88,3.8s2.575,1.164,4.654.161,2.88-3.8,2.88-3.8-2.574-1.165-4.654-.161" transform="translate(-15.441 -47.716)" fill="#0074db"/>
    <path id="Path_404" data-name="Path 404" d="M195.717,119.887c1.433,1.858.951,4.728.951,4.728a6.341,6.341,0,0,1-4.239-2c-1.433-1.858-.951-4.728-.951-4.728a6.342,6.342,0,0,1,4.239,2" transform="translate(-10.884 -47.682)" fill="#0074db"/>
    <path id="Path_405" data-name="Path 405" d="M201.237,133.819c-2.2.668-3.4,3.3-3.4,3.3s2.377,1.553,4.579.885,3.4-3.3,3.4-3.3-2.377-1.553-4.579-.885" transform="translate(-13.487 -54.06)" fill="#0074db"/>
    <path id="Path_406" data-name="Path 406" d="M191.54,133.323c1.147,2.061.254,4.822.254,4.822a6.421,6.421,0,0,1-3.9-2.64c-1.147-2.06-.254-4.822-.254-4.822a6.419,6.419,0,0,1,3.9,2.641" transform="translate(-9.228 -52.859)" fill="#0074db"/>
    <path id="Path_407" data-name="Path 407" d="M195.211,148.266c-2.274.323-3.832,2.746-3.832,2.746s2.129,1.9,4.4,1.578,3.832-2.746,3.832-2.746-2.129-1.9-4.4-1.578" transform="translate(-10.875 -59.956)" fill="#0074db"/>
    <path id="Path_408" data-name="Path 408" d="M185.76,145.886a6.913,6.913,0,0,1-.437,4.808,6.506,6.506,0,0,1-3.481-3.21,6.907,6.907,0,0,1,.437-4.808,6.5,6.5,0,0,1,3.481,3.21" transform="translate(-6.902 -57.71)" fill="#0074db"/>
    <path id="Path_409" data-name="Path 409" d="M187.6,161c-2.3-.025-4.178,2.137-4.178,2.137s1.839,2.2,4.134,2.227,4.178-2.137,4.178-2.137-1.839-2.2-4.134-2.227" transform="translate(-7.657 -65.122)" fill="#0074db"/>
    <path id="Path_410" data-name="Path 410" d="M178.517,156.869a6.872,6.872,0,0,1-1.109,4.691,6.615,6.615,0,0,1-2.991-3.7,6.871,6.871,0,0,1,1.108-4.69,6.613,6.613,0,0,1,2.992,3.7" transform="translate(-3.973 -61.954)" fill="#0074db"/>
    <path id="Path_411" data-name="Path 411" d="M178.556,172.043c-2.268-.369-4.432,1.487-4.432,1.487s1.512,2.455,3.779,2.824,4.432-1.487,4.432-1.487-1.511-2.455-3.779-2.824" transform="translate(-3.896 -69.569)" fill="#0074db"/>
    <path id="Path_412" data-name="Path 412" d="M169.961,166.32a6.807,6.807,0,0,1-1.752,4.475,6.71,6.71,0,0,1-2.442-4.113,6.808,6.808,0,0,1,1.752-4.475,6.71,6.71,0,0,1,2.443,4.113" transform="translate(-0.51 -65.61)" fill="#0074db"/>
    <path id="Path_413" data-name="Path 413" d="M168.215,181.468c-2.192-.707-4.594.8-4.594.8s1.15,2.656,3.344,3.363,4.593-.8,4.593-.8-1.15-2.656-3.343-3.363" transform="translate(0.353 -73.325)" fill="#0074db"/>
    <path id="Path_414" data-name="Path 414" d="M160.238,174.334a6.719,6.719,0,0,1-2.361,4.163,6.8,6.8,0,0,1-1.84-4.437A6.721,6.721,0,0,1,158.4,169.9a6.8,6.8,0,0,1,1.841,4.437" transform="translate(3.424 -68.72)" fill="#0074db"/>
    <path id="Path_415" data-name="Path 415" d="M140.591,117.721l-.542-1.291C160.37,107.9,173.5,87.686,173.5,64.946c0-27.691-19.924-51.348-46.344-55.026l.075-.538C154.339,13.158,174.9,36.56,174.9,64.946c0,23.3-13.467,44.02-34.309,52.774" transform="translate(15.102 -3.795)" fill="#0074db"/>
  </g>
</svg>
