<svg xmlns="http://www.w3.org/2000/svg" width="22.824" height="30.432" viewBox="0 0 22.824 30.432">
  <path id="Icon_awesome-file-pdf" data-name="Icon awesome-file-pdf" d="M10.812,15.222a5.735,5.735,0,0,1-.119-2.788C11.192,12.434,11.144,14.627,10.812,15.222Zm-.1,2.805a27.426,27.426,0,0,1-1.688,3.727,21.886,21.886,0,0,1,3.739-1.3A7.7,7.7,0,0,1,10.711,18.027ZM5.118,25.445c0,.048.785-.321,2.074-2.389A8.215,8.215,0,0,0,5.118,25.445ZM14.74,9.51h8.083v19.5A1.423,1.423,0,0,1,21.4,30.432H1.426A1.423,1.423,0,0,1,0,29.005V1.426A1.423,1.423,0,0,1,1.426,0H13.314V8.083A1.431,1.431,0,0,0,14.74,9.51Zm-.475,10.211a5.965,5.965,0,0,1-2.538-3.2,8.543,8.543,0,0,0,.369-3.816,1.489,1.489,0,0,0-2.841-.4,9.883,9.883,0,0,0,.481,4.577,55.813,55.813,0,0,1-2.425,5.1c-.006,0-.006.006-.012.006-1.611.826-4.375,2.645-3.239,4.042a1.847,1.847,0,0,0,1.278.594c1.064,0,2.122-1.07,3.632-3.673a33.88,33.88,0,0,1,4.7-1.379,9.008,9.008,0,0,0,3.8,1.159,1.539,1.539,0,0,0,1.171-2.58C17.813,19.341,15.412,19.573,14.265,19.721Zm8.143-13.48L16.583.416A1.425,1.425,0,0,0,15.572,0h-.357V7.608h7.608V7.245A1.422,1.422,0,0,0,22.408,6.241ZM18,21.415c.244-.16-.149-.707-2.544-.535C17.665,21.819,18,21.415,18,21.415Z" fill="#fff"/>
</svg>
