<svg id="Layer_1" data-name="Layer 1" xmlns="http://www.w3.org/2000/svg" width="46.214" height="25.187" viewBox="0 0 46.214 25.187">
  <path id="Path_418" data-name="Path 418" d="M39.059,10.863a7.158,7.158,0,0,0-6.348,3.85l-1.524-.624,3.452-3.671h1.7l8.914-5.163L44.432,3.5H36.618c-.5,0-.721.689-.783.955a7.568,7.568,0,0,0-.142.91,1.2,1.2,0,0,1-.768.88c-.486.157-1.788.534-2.95.783s-3.107.534-3.107.534-1.13-1.035-2.227-1.866a6.445,6.445,0,0,0-4.582-1.506,17.787,17.787,0,0,0-7.14,1.853s-.581-4.2.172-6.041c0,0-1.255.187-3.422,2.072A12.755,12.755,0,0,0,8.059,6.622a3.206,3.206,0,0,0,.11,2.464c.22.6,1.575,1.181,2.533,1.73l-.441.751a7.186,7.186,0,1,0,1.061.631l.385-.656c1.227,1.1,3.738,4.057,4.851,9.981,0,0,3.422.258,7.25.226s7.25-.344,7.25-.344a5.834,5.834,0,0,0-2.778-2.275l.863-1.476s1.261.353,2.761.751a7.161,7.161,0,0,0,7.151,6.783,7.242,7.242,0,0,0,7.16-7.16,7.163,7.163,0,0,0-7.16-7.162ZM7.16,22.581a4.557,4.557,0,0,1-.925-9.019,4.616,4.616,0,0,0,1.857,1.687l-1.407,2.4,1.067.628L9.23,15.757a7.608,7.608,0,0,0,2.094.42,4.556,4.556,0,0,1-4.164,6.4Zm31.9,0a4.561,4.561,0,0,1-4.431-3.486c.413.1.8.185,1.123.254,2.12.439,3.815.6,4.143-.346s-.409-1.442-1.616-1.978c-.5-.222-1.795-.76-3.144-1.315a4.556,4.556,0,1,1,3.925,6.871Z" transform="translate(0 0)" fill="#fff"/>
</svg>
