<svg xmlns="http://www.w3.org/2000/svg" width="96.063" height="96.063" viewBox="0 0 96.063 96.063">
  <g id="Group_568" data-name="Group 568" transform="translate(1.536 1.526)">
    <path id="Path_426" data-name="Path 426" d="M49.52,5.28l4.51-2.89a5.6,5.6,0,0,1,8,2.14l2.46,4.76a5.6,5.6,0,0,0,5.24,3.02l5.35-.25a5.607,5.607,0,0,1,5.86,5.86l-.25,5.35a5.616,5.616,0,0,0,3.02,5.24l4.76,2.46a5.6,5.6,0,0,1,2.14,8l-2.89,4.51a5.612,5.612,0,0,0,0,6.05l2.89,4.51a5.6,5.6,0,0,1-2.14,8L83.71,64.5a5.6,5.6,0,0,0-3.02,5.24l.25,5.35a5.607,5.607,0,0,1-5.86,5.86l-5.35-.25a5.616,5.616,0,0,0-5.24,3.02l-2.46,4.76a5.6,5.6,0,0,1-8,2.14l-4.51-2.89a5.612,5.612,0,0,0-6.05,0l-4.51,2.89a5.6,5.6,0,0,1-8-2.14L28.5,83.72a5.6,5.6,0,0,0-5.24-3.02l-5.35.25a5.607,5.607,0,0,1-5.86-5.86l.25-5.35A5.616,5.616,0,0,0,9.28,64.5L4.52,62.04a5.6,5.6,0,0,1-2.14-8l2.89-4.51a5.612,5.612,0,0,0,0-6.05L2.38,38.97a5.6,5.6,0,0,1,2.14-8l4.76-2.46a5.6,5.6,0,0,0,3.02-5.24l-.25-5.35a5.607,5.607,0,0,1,5.86-5.86l5.35.25A5.616,5.616,0,0,0,28.5,9.29l2.46-4.76a5.6,5.6,0,0,1,8-2.14l4.51,2.89a5.612,5.612,0,0,0,6.05,0Z" fill="none" stroke="#e0cb8a" stroke-linecap="round" stroke-linejoin="round" stroke-width="6"/>
    <circle id="Ellipse_17" data-name="Ellipse 17" cx="31.08" cy="31.08" r="31.08" transform="translate(15.42 15.42)" fill="none" stroke="#e0cb8a" stroke-linecap="round" stroke-linejoin="round" stroke-width="6"/>
    <path id="Path_427" data-name="Path 427" d="M46.5,28.45l5.51,11.16L64.33,41.4l-8.91,8.69,2.1,12.28L46.5,56.57l-11.02,5.8,2.1-12.28L28.67,41.4l12.32-1.79Z" fill="none" stroke="#e0cb8a" stroke-linecap="round" stroke-linejoin="round" stroke-width="6"/>
  </g>
</svg>
