<svg xmlns="http://www.w3.org/2000/svg" width="999.286" height="124.001" viewBox="0 0 999.286 124.001">
  <g id="Group_355" data-name="Group 355" transform="translate(-686.405 -1605.999)">
    <g id="Union_1" data-name="Union 1" transform="translate(820 1609.999)" fill="#0074db">
      <path d="M 860.8872680664062 118.0009994506836 L 857.0961303710938 118.0009994506836 L 735.8157348632812 118.0009994506836 L 733.8157348632812 118.0009994506836 L 733.8157348632812 116.0009994506836 L 733.8157348632812 90.46800231933594 L 733.8157348632812 89.80312347412109 L -1.72062087059021 89.80312347412109 L -1.72062087059021 90.46800231933594 L -1.72062087059021 116.0009994506836 L -1.72062087059021 118.0009994506836 L -3.72062087059021 118.0009994506836 L -125.0001220703125 118.0009994506836 L -128.7912445068359 118.0009994506836 L -126.6508712768555 114.8718719482422 L -93.99735260009766 67.13383483886719 L -126.5302429199219 28.48225021362305 L -129.2976226806641 25.19437408447266 L -125.0001220703125 25.19437408447266 L -59.57187271118164 25.19437408447266 L -57.99711990356445 25.19437408447266 L -57.99711990356445 -2.746581913015689e-07 L -57.99711990356445 -2.000000238418579 L -55.99711990356445 -2.000000238418579 L 788.0903930664062 -2.000000238418579 L 790.0903930664062 -2.000000238418579 L 790.0903930664062 -2.746581913015689e-07 L 790.0903930664062 25.19437408447266 L 791.6688842773438 25.19437408447266 L 857.0961303710938 25.19437408447266 L 861.3936157226562 25.19437408447266 L 858.6262817382812 28.48225021362305 L 826.0933837890625 67.13383483886719 L 858.7468872070312 114.8718719482422 L 860.8872680664062 118.0009994506836 Z" stroke="none"/>
      <path d="M 857.0961303710938 116.0009994506836 L 823.5846557617188 67.00862121582031 L 857.0961303710938 27.19437408447266 L 791.6688842773438 27.19437408447266 L 791.6688842773438 90.46800231933594 L 735.8157348632812 90.46800231933594 L 735.8157348632812 116.0009994506836 L 857.0961303710938 116.0009994506836 M -3.72062087059021 116.0009994506836 L -3.72062087059021 90.46800231933594 L -59.57187271118164 90.46800231933594 L -59.57187271118164 27.19437408447266 L -125.0001220703125 27.19437408447266 L -91.48862457275391 67.00862121582031 L -125.0001220703125 116.0009994506836 L -3.72062087059021 116.0009994506836 M 788.0903930664062 87.80312347412109 L 788.0903930664062 -2.746581913015689e-07 L -55.99711990356445 -2.746581913015689e-07 L -55.99711990356445 87.80312347412109 L 788.0903930664062 87.80312347412109 M 864.6784057617188 120.0009994506836 L 731.8157348632812 120.0009994506836 L 731.8157348632812 91.80312347412109 L 0.2793791592121124 91.80312347412109 L 0.2793791592121124 120.0009994506836 L -132.5823669433594 120.0009994506836 L -96.50608825683594 67.25904846191406 L -133.5952453613281 23.19437408447266 L -59.99711990356445 23.19437408447266 L -59.99711990356445 -4.000000476837158 L 792.0903930664062 -4.000000476837158 L 792.0903930664062 23.19437408447266 L 865.6912841796875 23.19437408447266 L 828.6021118164062 67.25904846191406 L 864.6784057617188 120.0009994506836 Z" stroke="none" fill="#fff"/>
    </g>
  </g>
</svg>
