<svg id="Group_51" data-name="Group 51" xmlns="http://www.w3.org/2000/svg" width="192.564" height="191.998" viewBox="0 0 192.564 191.998">
  <path id="Path_1" data-name="Path 1" d="M25.547,43.752A7.1,7.1,0,0,0,26.68,41.77a2.192,2.192,0,0,0,.283-.85A6.373,6.373,0,0,0,23,41.2c-1.416.566-2.549,2.265-3.4,4.814C22.715,46.3,24.414,45.168,25.547,43.752Z" transform="translate(-0.627 36.105)" fill="#fff"/>
  <path id="Path_2" data-name="Path 2" d="M24.081,38.3A8.606,8.606,0,0,0,22.1,39.716a15.355,15.355,0,0,0-1.7,3.115,4.977,4.977,0,0,0,5.664-1.7,6.96,6.96,0,0,0,1.982-2.549A4.789,4.789,0,0,0,24.081,38.3Z" transform="translate(0.839 31.08)" fill="#fff"/>
  <path id="Path_3" data-name="Path 3" d="M22.332,51.68c.283-.283.85-.566,1.133-1.133.283-.283.566-.85.85-1.133a19.512,19.512,0,0,1,.85-2.265c0-.283,0-.566.283-.566V46.3a5.222,5.222,0,0,0-3.681,1.133,5.079,5.079,0,0,0-1.416,1.982c-.283.566-.283.85-.566,1.416,0,.566-.283,1.133-.283,1.982A8.48,8.48,0,0,0,22.332,51.68Z" transform="translate(-0.81 46.301)" fill="#fff"/>
  <path id="Path_4" data-name="Path 4" d="M22.615,48.452A13.082,13.082,0,0,0,24.6,46.469a16.244,16.244,0,0,0,1.133-1.982,2.192,2.192,0,0,0,.283-.85c-2.549-.283-5.38.283-6.513,5.947A10.144,10.144,0,0,0,22.615,48.452Z" transform="translate(-0.81 41.317)" fill="#fff"/>
  <path id="Path_5" data-name="Path 5" d="M24.5,55.1a7.921,7.921,0,0,0,.283-3.4,5.252,5.252,0,0,0-3.4,1.982,5.407,5.407,0,0,0-.85,2.265,6.8,6.8,0,0,0,0,3.4A5.056,5.056,0,0,0,24.5,55.1Z" transform="translate(0.701 56.193)" fill="#fff"/>
  <path id="Path_6" data-name="Path 6" d="M22.815,54.48c.283-.283.566-.85.85-1.133s.283-.85.566-1.133A10.933,10.933,0,0,0,24.8,49.1a5.964,5.964,0,0,0-3.681,1.416,4.265,4.265,0,0,0-1.133,2.265,3.066,3.066,0,0,0-.283,1.7v1.982A8.435,8.435,0,0,0,22.815,54.48Z" transform="translate(-0.444 51.43)" fill="#fff"/>
  <path id="Path_7" data-name="Path 7" d="M26.157,60.215a5.52,5.52,0,0,0-.283-2.265,1.24,1.24,0,0,0-.283-.85,6.2,6.2,0,0,0-2.832,2.549,3.552,3.552,0,0,0-.283,2.549,9.791,9.791,0,0,0,.85,3.4A6.119,6.119,0,0,0,26.157,60.215Z" transform="translate(4.427 66.085)" fill="#fff"/>
  <path id="Path_8" data-name="Path 8" d="M24.981,57.615V54.5a4.385,4.385,0,0,0-3.115,2.265,5.335,5.335,0,0,0-.566,2.265,8.418,8.418,0,0,0,.566,3.4C24.132,61.58,24.7,59.314,24.981,57.615Z" transform="translate(2.487 61.322)" fill="#fff"/>
  <path id="Path_9" data-name="Path 9" d="M28.946,36.9a3.5,3.5,0,0,1,.566-.85c-2.265-1.133-5.38-1.416-8.212,3.4a4.736,4.736,0,0,0,3.4.283c.566,0,.85-.283,1.416-.566a3.909,3.909,0,0,0,1.133-.85A2.9,2.9,0,0,0,28.946,36.9Z" transform="translate(2.487 26.251)" fill="#fff"/>
  <path id="Path_10" data-name="Path 10" d="M30.346,34.6l.566-.566A5.692,5.692,0,0,0,27.231,32.9c-1.416.283-2.832,1.133-4.531,3.4a4.361,4.361,0,0,0,3.115.566,6.767,6.767,0,0,0,2.549-.85C29.213,35.449,29.78,34.882,30.346,34.6Z" transform="translate(5.052 21.754)" fill="#fff"/>
  <path id="Path_11" data-name="Path 11" d="M32.312,32.016a4.69,4.69,0,0,0-3.4-1.416,8.754,8.754,0,0,0-2.265.566A15.563,15.563,0,0,0,24.1,33.149a4.721,4.721,0,0,0,5.38.283A6.882,6.882,0,0,0,32.312,32.016Z" transform="translate(7.616 17.541)" fill="#fff"/>
  <path id="Path_12" data-name="Path 12" d="M29.965,31.9c.283,0,.85-.283,1.133-.283a4.611,4.611,0,0,0,1.7-.85c.566-.283.566-.566.566-.566a5.876,5.876,0,0,0-2.832-1.7,4.819,4.819,0,0,0-1.982.283A6.687,6.687,0,0,0,26,30.482a3.459,3.459,0,0,0,2.549,1.133A2.553,2.553,0,0,0,29.965,31.9Z" transform="translate(11.097 13.694)" fill="#fff"/>
  <path id="Path_13" data-name="Path 13" d="M31.742,126.192l2.549,4.248.566-.283A76.932,76.932,0,0,1,24.38,103.537a80.88,80.88,0,0,1,0-28.6A76.353,76.353,0,0,1,34.574,48.316a71.225,71.225,0,0,1,16.991-18.69A8.378,8.378,0,0,0,54.4,29.06a5.692,5.692,0,0,0,2.265-1.133l.85-.85.85-.85a11.988,11.988,0,0,0,1.416-1.982,9.267,9.267,0,0,0-3.681.283,7.545,7.545,0,0,0-2.832,1.7,4.816,4.816,0,0,0-1.7,2.832c-1.133.85-1.982,1.7-3.115,2.549.283-.283.283-.566.566-.85a4.025,4.025,0,0,0,.566-1.7,4.784,4.784,0,0,0-.85-2.832l-.283.283a.989.989,0,0,0-.283.566,4.354,4.354,0,0,0-1.133,1.7,3.9,3.9,0,0,0,.283,4.248,60.072,60.072,0,0,0-4.248,4.248c.283-.566.566-.85.566-1.416a7.2,7.2,0,0,0,.566-1.982,4.057,4.057,0,0,0-1.416-3.115,3.5,3.5,0,0,0-.566.85,12.312,12.312,0,0,0-1.133,1.982,1.7,1.7,0,0,0-.283,1.133v1.416A3.5,3.5,0,0,0,41.937,38.4l-4.248,5.1c.283-.566.283-1.133.566-1.7a7.038,7.038,0,0,0,.283-2.265,4.643,4.643,0,0,0-1.982-3.115,17.691,17.691,0,0,0-1.416,3.115c-.283,1.7-.283,3.681,1.7,5.1a16.056,16.056,0,0,0-2.265,3.681c-.566.85-.85,1.416-1.416,2.265a7.524,7.524,0,0,0,.283-4.248,5.038,5.038,0,0,0-2.265-3.115,3.1,3.1,0,0,0-.566,1.133,5.655,5.655,0,0,0-.566,2.549,9.634,9.634,0,0,0,.283,2.832A3.787,3.787,0,0,0,32.309,52a72.414,72.414,0,0,0-3.115,6.8c.85-4.531-.566-6.23-2.832-7.363a1.655,1.655,0,0,0-.283,1.133,7.031,7.031,0,0,0-.283,2.549v1.416a2.163,2.163,0,0,0,.566,1.416,5.8,5.8,0,0,0,2.265,2.265,63.724,63.724,0,0,0-2.265,6.8V64.741a8.269,8.269,0,0,0-.566-2.549c-.566-1.416-1.7-1.982-3.115-2.549a8.924,8.924,0,0,0-.283,3.681,5.374,5.374,0,0,0,3.681,4.814c-.566,2.265-1.133,4.531-1.7,7.08a9.652,9.652,0,0,0-1.133-4.531,5.637,5.637,0,0,0-3.4-2.265v1.133a8.736,8.736,0,0,0,.283,2.549c.566,1.982,1.416,3.965,3.965,4.248-.283,2.265-.566,4.814-.85,7.08-.566-4.531-2.549-5.947-5.1-6.23v1.133a10.509,10.509,0,0,0,.566,2.549,5.094,5.094,0,0,0,1.7,2.549,5.031,5.031,0,0,0,2.832,1.133,63.863,63.863,0,0,0,0,7.363c0-.283,0-.283-.283-.566-.283-.566-.283-1.133-.566-1.416a3.612,3.612,0,0,0-1.416-1.982A4.689,4.689,0,0,0,17.3,86.546v1.133a5.376,5.376,0,0,0,.85,2.549c.283.566.566.85.85,1.416.283.283.566.85,1.133,1.133a5.087,5.087,0,0,0,3.115.85,28.529,28.529,0,0,0,.85,7.08c0-.283,0-.283-.283-.566a4.784,4.784,0,0,1-.566-1.416,12.318,12.318,0,0,0-1.7-1.982,6.5,6.5,0,0,0-3.965-1.133A9.7,9.7,0,0,0,19,99.006a3.909,3.909,0,0,0,.85,1.133c.283.283.85.85,1.133.85a3.932,3.932,0,0,0,3.115.566c0,.566.283,1.133.283,1.7.283,1.7.85,3.4,1.133,5.1-.283-.566-.85-1.133-1.133-1.7a5.083,5.083,0,0,0-5.664-2.265,16.023,16.023,0,0,0,1.7,3.4c1.133,1.416,3.115,2.832,5.38,2.265a63.726,63.726,0,0,0,2.265,6.8c-.566-.566-.85-1.133-1.416-1.7a4.336,4.336,0,0,0-1.982-1.416,6.372,6.372,0,0,0-3.965-.283l.566,1.133a8.606,8.606,0,0,0,1.416,1.982c1.416,1.416,3.4,2.549,5.664,1.416a68.048,68.048,0,0,0,3.115,6.513,7.508,7.508,0,0,1-1.416-1.7,9.933,9.933,0,0,0-2.265-1.416,4.789,4.789,0,0,0-3.965.283,3.5,3.5,0,0,1,.566.85,5.307,5.307,0,0,0,1.7,1.982A4.141,4.141,0,0,0,31.742,126.192Z" transform="translate(-4.84 5.772)" fill="#fff"/>
  <path id="Path_14" data-name="Path 14" d="M31.781,29.449a4.025,4.025,0,0,0,1.7-.566c.283,0,.283-.283.566-.283h.283a4.4,4.4,0,0,0-2.265-1.7h-1.7c-.283,0-.566.283-1.133.283-.283.283-.85.566-1.133.85C28.95,29.732,30.365,29.732,31.781,29.449Z" transform="translate(14.944 10.763)" fill="#fff"/>
  <path id="Path_15" data-name="Path 15" d="M75.333,41.782c-.85,1.133-1.133,3.115-1.133,5.947,2.832-.566,3.681-2.549,4.248-4.248a8.736,8.736,0,0,0,.283-2.549V39.8A3.7,3.7,0,0,0,75.333,41.782Z" transform="translate(99.391 34.394)" fill="#fff"/>
  <path id="Path_16" data-name="Path 16" d="M73.5,41.514a18.8,18.8,0,0,0,.283,3.681,5.374,5.374,0,0,0,3.681-4.814,8.924,8.924,0,0,0-.283-3.681,6.588,6.588,0,0,0-3.115,2.549A3.659,3.659,0,0,0,73.5,41.514Z" transform="translate(98.109 28.715)" fill="#fff"/>
  <path id="Path_17" data-name="Path 17" d="M77.049,47.7a5.079,5.079,0,0,0-1.416,1.982c-.283.566-.283.85-.566,1.416A18.053,18.053,0,0,0,74.5,53.08a6.039,6.039,0,0,0,3.4-.85c.283-.283.85-.566,1.133-1.133a6.191,6.191,0,0,0,.85-1.416l.85-2.549V46A10.732,10.732,0,0,0,77.049,47.7Z" transform="translate(99.941 45.751)" fill="#fff"/>
  <path id="Path_18" data-name="Path 18" d="M74.6,50.546a4.057,4.057,0,0,0,3.115-1.416,13.3,13.3,0,0,0,1.7-2.549,10.509,10.509,0,0,0,.566-2.549V42.9C77.149,43.183,74.883,44.882,74.6,50.546Z" transform="translate(100.124 40.073)" fill="#fff"/>
  <path id="Path_19" data-name="Path 19" d="M77,53.35a4.808,4.808,0,0,0-1.7,1.7,15.356,15.356,0,0,0-1.7,3.115c2.549.85,4.531-.566,5.664-2.265a16.022,16.022,0,0,0,1.7-3.4A7.2,7.2,0,0,0,77,53.35Z" transform="translate(98.292 57.658)" fill="#fff"/>
  <path id="Path_20" data-name="Path 20" d="M77.132,50.407a12.318,12.318,0,0,0-1.7,1.982c-.283.566-.566.85-.566,1.416a4.093,4.093,0,0,0-.566,1.982,4.391,4.391,0,0,0,3.4-.566,3.91,3.91,0,0,0,1.133-.85c.283-.283.566-.85.85-1.133a9.7,9.7,0,0,0,1.416-3.4A3.427,3.427,0,0,0,77.132,50.407Z" transform="translate(99.574 52.105)" fill="#fff"/>
  <path id="Path_21" data-name="Path 21" d="M75.831,58.81a7.1,7.1,0,0,0-2.265,1.416A8.208,8.208,0,0,0,71.3,63.057a4.653,4.653,0,0,0,5.947-.85,5.307,5.307,0,0,0,1.7-1.982,3.5,3.5,0,0,1,.566-.85C78.663,58.526,77.247,58.526,75.831,58.81Z" transform="translate(94.079 68.906)" fill="#fff"/>
  <path id="Path_22" data-name="Path 22" d="M76.565,56.029a8.6,8.6,0,0,0-1.982,1.416A24.491,24.491,0,0,0,72.6,60.277c2.549,1.133,4.531,0,5.947-1.416.566-.85,1.133-1.416,1.416-1.982l.566-1.133A9.734,9.734,0,0,0,76.565,56.029Z" transform="translate(96.46 63.474)" fill="#fff"/>
  <path id="Path_23" data-name="Path 23" d="M75.512,40.213c.283-.566.283-.85.566-1.416V37.381c0-1.133-.283-1.982-.283-2.549a2.822,2.822,0,0,1-.283-1.133c-2.549,1.133-3.965,3.4-2.549,8.779A5.094,5.094,0,0,0,75.512,40.213Z" transform="translate(96.097 23.22)" fill="#fff"/>
  <path id="Path_24" data-name="Path 24" d="M74.184,37.313a9.634,9.634,0,0,0,.283-2.832,8.269,8.269,0,0,0-.566-2.549L73.334,30.8a5.038,5.038,0,0,0-2.265,3.115c-.283,1.416,0,3.115.85,5.664A5.8,5.8,0,0,0,74.184,37.313Z" transform="translate(93.461 17.907)" fill="#fff"/>
  <path id="Path_25" data-name="Path 25" d="M70.8,36.9a4.565,4.565,0,0,0,1.7-5.38A17.69,17.69,0,0,0,71.082,28.4,5.951,5.951,0,0,0,69.1,31.515a7.038,7.038,0,0,0,.283,2.265A27.6,27.6,0,0,0,70.8,36.9Z" transform="translate(90.049 13.511)" fill="#fff"/>
  <path id="Path_26" data-name="Path 26" d="M69.182,34.329A3.915,3.915,0,0,0,70.6,31.78V30.365c0-.566-.283-.85-.283-1.133a4.564,4.564,0,0,0-1.133-1.982,3.5,3.5,0,0,0-.566-.85A4.057,4.057,0,0,0,67.2,29.515a2.7,2.7,0,0,0,.566,1.982A26.2,26.2,0,0,0,69.182,34.329Z" transform="translate(86.568 9.847)" fill="#fff"/>
  <path id="Path_27" data-name="Path 27" d="M66.433,30.747c.283.283.566.85.85,1.133,1.416-1.416,1.133-3.115.566-4.531-.283-.566-.85-1.133-1.133-1.7-.283-.283-.283-.283-.283-.566L66.15,24.8a4.784,4.784,0,0,0-.85,2.832,4.025,4.025,0,0,0,.566,1.7A2.163,2.163,0,0,0,66.433,30.747Z" transform="translate(83.088 6.916)" fill="#fff"/>
  <path id="Path_28" data-name="Path 28" d="M63.291,27.781a4.124,4.124,0,0,0,2.549,1.7,10.18,10.18,0,0,0,3.115.566c1.133.85,1.982,1.7,3.115,2.549-.283,0-.566-.283-.85-.283a1.805,1.805,0,0,0-1.7,0,3.517,3.517,0,0,0-2.265,1.7h.283a.989.989,0,0,0,.566.283c.283.283.85.283,1.7.566a3.754,3.754,0,0,0,3.965-1.133l4.248,4.248c-.566-.283-.85-.566-1.416-.566a5.528,5.528,0,0,0-1.982-.283,3.755,3.755,0,0,0-2.832,1.7l.566.566,1.7.85c.283,0,.85.283,1.133.283h1.133a3.459,3.459,0,0,0,2.549-1.133l4.248,5.1A4.972,4.972,0,0,0,81.7,43.356a6.665,6.665,0,0,0-2.265-.566,5.225,5.225,0,0,0-3.4,1.416,5.575,5.575,0,0,0,2.549,1.7c1.416.566,3.4,1.133,5.1-.283a23.623,23.623,0,0,1,2.265,3.4,15.809,15.809,0,0,0,1.416,2.265c-1.416-1.416-2.549-2.265-3.681-2.265A4.46,4.46,0,0,0,80,50.153l.566.566c.283.283,1.133.85,1.7,1.416a4.568,4.568,0,0,0,2.549.85,6.639,6.639,0,0,0,3.115-.566l3.4,6.8c-2.549-3.681-5.38-3.4-7.363-2.265a3.5,3.5,0,0,1,.566.85,4.808,4.808,0,0,0,1.7,1.7c.283.283.85.566,1.133.85s.85.283,1.416.566a4.1,4.1,0,0,0,3.115-.283,63.725,63.725,0,0,1,2.265,6.8,6.211,6.211,0,0,0-3.115-3.115,4.872,4.872,0,0,0-3.965.283,6.96,6.96,0,0,0,1.982,2.549,5.752,5.752,0,0,0,5.38,1.7l1.7,6.8a5.886,5.886,0,0,0-2.832-3.4,6.222,6.222,0,0,0-3.965-.283,2.192,2.192,0,0,0,.283.85A12.313,12.313,0,0,1,90.76,74.79a5.735,5.735,0,0,0,5.38,2.265c.283,2.265.566,4.814.85,7.08-1.133-4.248-3.965-4.814-6.23-4.531a2.192,2.192,0,0,0,.283.85,7.1,7.1,0,0,0,1.133,1.982,6.616,6.616,0,0,0,1.982,1.982,5.087,5.087,0,0,0,3.115.85,59,59,0,0,1,0,7.08v-.566a2.163,2.163,0,0,0-.566-1.416,5.08,5.08,0,0,0-1.416-1.982,6.229,6.229,0,0,0-3.681-1.133v.283c0,.283,0,.283.283.566a4.519,4.519,0,0,0,.85,2.265c.283.283.566.85.85,1.133s.566.85,1.133,1.133a5.031,5.031,0,0,0,2.832,1.133,30.241,30.241,0,0,1-.85,7.08v-.566c0-.566-.283-1.133-.283-1.7a5.692,5.692,0,0,0-1.133-2.265A4.348,4.348,0,0,0,91.609,94.9a10.933,10.933,0,0,0,.566,3.115c.283.283.283.85.566,1.133s.566.85.85,1.133a6.639,6.639,0,0,0,2.832,1.416c0,.566-.283,1.133-.283,1.7-.283,1.7-.85,3.4-1.133,5.38v-2.265a19.507,19.507,0,0,0-.85-2.265,5.252,5.252,0,0,0-3.4-1.982,7.888,7.888,0,0,0,.283,3.4,5.108,5.108,0,0,0,3.681,4.248,63.721,63.721,0,0,1-2.265,6.8c0-.85.283-1.416.283-2.265a5.335,5.335,0,0,0-.566-2.265,5.938,5.938,0,0,0-3.115-2.265v3.115a5.671,5.671,0,0,0,3.4,4.814,68.052,68.052,0,0,1-3.115,6.513,5.528,5.528,0,0,0,.283-1.982,7.84,7.84,0,0,0-.283-2.549,4.974,4.974,0,0,0-2.832-2.549,2.192,2.192,0,0,1-.283.85c0,.566-.283,1.416-.283,2.265a5.693,5.693,0,0,0,2.832,5.1l-2.549,4.248.566.283a76.931,76.931,0,0,0,10.478-26.619,80.88,80.88,0,0,0,0-28.6A76.353,76.353,0,0,0,87.078,48.171,71.225,71.225,0,0,0,70.087,29.48a11.478,11.478,0,0,0-1.416-2.549c-.566-.85-1.416-1.133-1.982-1.7-.283-.283-.85-.283-1.133-.566-.283,0-.85-.283-1.133-.283-.85,0-1.7-.283-2.265-.283C61.309,24.95,61.875,26.365,63.291,27.781Z" transform="translate(76.601 5.634)" fill="#fff"/>
  <path id="Path_29" data-name="Path 29" d="M60.2,75.7l3.115,5.664,5.1-10.761A93.733,93.733,0,0,1,60.2,75.7Z" transform="translate(73.746 90.814)" fill="#fff"/>
  <path id="Path_30" data-name="Path 30" d="M35.8,81.544l3.115-5.664c-2.832-1.7-5.38-3.4-8.212-5.38Z" transform="translate(19.707 90.631)" fill="#fff"/>
  <path id="Path_31" data-name="Path 31" d="M56.465,73.665,54.2,69.7h0l.566,4.531Z" transform="translate(62.755 89.166)" fill="#fff"/>
  <path id="Path_32" data-name="Path 32" d="M53.149,70.887c0-.283-.283-.566-.566-.85a.531.531,0,0,0-.85,0c-.283,0-.566.283-.85.566a1.04,1.04,0,0,0-.283.85l1.133,6.23c0,.283.283.566.566.85a.531.531,0,0,0,.85,0c.283,0,.566-.283.85-.566a1.04,1.04,0,0,0,.283-.85Z" transform="translate(56.16 89.395)" fill="#fff"/>
  <path id="Path_33" data-name="Path 33" d="M44.749,70a1.04,1.04,0,0,0-.85.283c-.283.283-.283.566-.566.85L42.2,77.363c0,.283,0,.85.283.85a1.416,1.416,0,0,0,1.7,0c.283-.283.283-.566.566-.85l1.133-6.23c0-.283,0-.85-.283-.85A1.04,1.04,0,0,0,44.749,70Z" transform="translate(40.773 89.715)" fill="#fff"/>
  <path id="Path_34" data-name="Path 34" d="M109.182,13.6c-52.955,0-96.282,43.044-96.282,96s43.327,96,96.282,96,96.282-43.044,96.282-96S162.137,13.6,109.182,13.6Zm0,190.3a94.3,94.3,0,1,1,94.3-94.3A94.268,94.268,0,0,1,109.182,203.9Z" transform="translate(-12.9 -13.6)" fill="#fff"/>
  <path id="Path_35" data-name="Path 35" d="M36.9,61.266c-.283-.283-.283-.283-.566-.283a.989.989,0,0,1-.566-.283h-.85c-.283,0-.566.283-.85.566l-1.982,1.7L33.5,64.381l.85-.566-.566-.566,1.133-1.133.566-.566c.283,0,.283,0,.566.283,0,.283.283.283.283.566s0,.283-.283.566L32.932,65.8c-.283.283-.283.283-.566.283s-.283,0-.566-.283c0-.283-.283-.283-.283-.566s0-.283.283-.566l.283-.283-.85-.85-.283.283c-.283.283-.283.566-.566.85,0,.283-.283.566-.283.85v.566c0,.283.283.283.283.566.283.283.283.283.566.283a.989.989,0,0,1,.566.283h.85c.283,0,.566-.283.85-.566l3.115-2.832c.283-.283.283-.566.566-.85,0-.283.283-.566.283-.85V61.55A.277.277,0,0,0,36.9,61.266Z" transform="translate(18.607 72.679)" fill="#fff"/>
  <path id="Path_36" data-name="Path 36" d="M34.28,58.8l-1.133.566,1.416,1.7L28.9,65.313l.85.85,6.513-4.814Z" transform="translate(16.409 69.199)" fill="#fff"/>
  <path id="Path_37" data-name="Path 37" d="M35.146,59.732l-1.7.566-.85-1.416,1.416-1.133-.566-.85L27.5,62.564l.566.85L36,60.581ZM29.765,62h0l2.265-1.982.566.85Z" transform="translate(13.845 65.718)" fill="#fff"/>
  <path id="Path_38" data-name="Path 38" d="M30.648,59.065V57.649l.283-.283a.989.989,0,0,1,.566-.283c.283,0,.283,0,.566-.283h.566l.283.283v.566c0,.283-.283.283-.566.283l-.283.283.566,1.133.283-.283a.609.609,0,0,0,.566-.566c.283-.283.283-.283.283-.566v-.85a1.04,1.04,0,0,0-.283-.85c-.283-.283-.283-.566-.566-.85a.877.877,0,0,0-.566-.283H31.5c-.283,0-.566.283-.85.283a.989.989,0,0,0-.566.283c-.283,0-.283.283-.566.283,0,.283-.283.283-.283.566V58.5l-.283.283a.277.277,0,0,0-.283.283h-.85l-.283-.283v-.566c0-.283.283-.283.566-.566h-.283l-.566.283c-.283,0-.283.283-.566.283-.283.283-.283.283-.283.566v.85a1.04,1.04,0,0,0,.283.85.609.609,0,0,0,.566.566.877.877,0,0,0,.566.283h.85a1.04,1.04,0,0,0,.85-.283,3.909,3.909,0,0,0,1.133-.85Z" transform="translate(11.83 62.421)" fill="#fff"/>
  <path id="Path_39" data-name="Path 39" d="M29.281,57.465c.283-.283.283-.566.566-1.133V54.916a.277.277,0,0,0,.283-.283.877.877,0,0,0,.566-.283h.85a.277.277,0,0,1,.283.283l.283.283v.566c0,.283-.283.283-.566.283h-.283l.283,1.133h.283a.989.989,0,0,0,.566-.283l.566-.566a.989.989,0,0,1,.283-.566v-.85c0-.283-.283-.566-.566-.85s-.283-.283-.566-.283h-.85a1.04,1.04,0,0,0-.85.283c-.283,0-.566.283-.85.283s-.283.283-.566.283-.283.283-.283.566V56.9a16987.329,16987.329,0,0,0-.566.566H27.3l-.283-.283v-.566c.283-.283.283-.283.566-.283h.283L27.582,55.2l-.566.283c-.283,0-.283.283-.566.283l-.566.566a.989.989,0,0,1-.283.566v.85c0,.283.283.566.566.85s.283.283.566.283h.85a1.04,1.04,0,0,0,.85-.283C28.432,58.031,29,57.748,29.281,57.465Z" transform="translate(10.364 59.49)" fill="#fff"/>
  <path id="Path_40" data-name="Path 40" d="M32.329,53.115l.566-.566c0-.283.283-.283.283-.566v-.566c0-.283,0-.566-.283-.566,0-.283-.283-.283-.566-.566-.283,0-.283-.283-.566-.283H30.347l.283,1.133h.85l.283.283V51.7c0,.283,0,.566-.283.566s-.283.283-.566.283l-4.248.566H26.1c-.283,0-.283-.283-.283-.566s0-.283.283-.566.283-.283.566-.283h.283l-.283-1.133H26.1a1.04,1.04,0,0,0-.85.283c-.283,0-.283.283-.566.566s-.283.283-.283.566v.85c0,.283,0,.566.283.566,0,.283.283.283.566.566.283,0,.283.283.566.283h.85l4.531-.566C31.763,53.4,32.046,53.4,32.329,53.115Z" transform="translate(8.166 53.079)" fill="#fff"/>
  <path id="Path_41" data-name="Path 41" d="M26.382,51.581,30.63,51.3a1.04,1.04,0,0,0,.85-.283.609.609,0,0,0,.566-.566c.283-.283.283-.283.283-.566v-.566c0-.283,0-.566-.283-.566,0-.283-.283-.283-.283-.566-.283-.283-.283-.283-.566-.283H26.1a1.04,1.04,0,0,0-.85.283.609.609,0,0,0-.566.566c-.283.283-.283.283-.283.566v.566c0,.283,0,.566.283.566,0,.283.283.283.283.566.283.283.283.283.566.283A1.04,1.04,0,0,0,26.382,51.581Zm-.85-2.549c0-.283.283-.283.566-.283l4.248-.283c.283,0,.566,0,.566.283s.283.283.283.566,0,.283-.283.566c0,.283-.283.283-.566.283l-4.248.283c-.283,0-.566,0-.566-.283s-.283-.283-.283-.566C25.533,49.6,25.533,49.316,25.533,49.033Z" transform="translate(8.166 49.232)" fill="#fff"/>
  <path id="Path_42" data-name="Path 42" d="M32.329,48.9l-1.7-.566V46.916l1.7-.283V45.5L24.4,46.916v.85l7.929,2.265ZM29.5,48.332l-2.832-.85h0L29.5,47.2Z" transform="translate(8.166 44.835)" fill="#fff"/>
  <path id="Path_43" data-name="Path 43" d="M25.916,46.049l6.8,1.133L33,46.049l-7.08-1.133.283-1.133L25.066,43.5,24.5,47.181l1.133.283Z" transform="translate(8.349 41.172)" fill="#fff"/>
  <path id="Path_44" data-name="Path 44" d="M33.112,43.9l-7.929-1.7L24.9,43.333l7.929,1.7Z" transform="translate(9.082 38.79)" fill="#fff"/>
  <path id="Path_45" data-name="Path 45" d="M33.229,44.9,28.7,43.2h5.1l.283-.85L26.433,39.8l-.283.85,4.531,1.7h-5.1L25.3,43.481l7.646,2.549Z" transform="translate(9.815 34.394)" fill="#fff"/>
  <path id="Path_46" data-name="Path 46" d="M26.866,41a2.177,2.177,0,0,0,.85.566l3.965,1.7c.283,0,.566.283.85.283h.85c.283,0,.283-.283.566-.283.283-.283.283-.283.283-.566s.283-.283.283-.566v-.566A.989.989,0,0,0,34.229,41a2.177,2.177,0,0,0-.85-.566l-2.549-1.7-.85,1.7.85.566.283-.85,1.416.566c.283,0,.283.283.566.566v.566a.277.277,0,0,1-.283.283h-.566l-3.965-1.7c-.283,0-.283-.283-.566-.566V39.3A.277.277,0,0,1,28,39.016h.566l.283.283.566-1.133-.283-.283c-.283,0-.566-.283-.85-.283h-.85c-.283,0-.283.283-.566.283-.283.283-.283.283-.283.566s-.283.283-.283.566v.566C26.583,40.432,26.583,40.715,26.866,41Z" transform="translate(11.647 30.364)" fill="#fff"/>
  <path id="Path_47" data-name="Path 47" d="M67.815,42.714a.989.989,0,0,0,.566-.283c.283,0,.283-.283.566-.283,0-.283.283-.283.283-.566V39.6l.283-.283a.277.277,0,0,0,.283-.283h.85l.283.283v.566c0,.283-.283.283-.566.566H70.08l.566,1.133.566-.283c.283,0,.283-.283.566-.283.283-.283.283-.283.283-.566a1.04,1.04,0,0,1,.283-.85,1.04,1.04,0,0,0-.283-.85.609.609,0,0,0-.566-.566.877.877,0,0,0-.566-.283h-.85a1.04,1.04,0,0,0-.85.283,3.909,3.909,0,0,0-1.133.85c-.283.283-.283.566-.283,1.133v1.416l-.283.283a.989.989,0,0,1-.566.283c-.283,0-.283,0-.566.283h-.566l-.283-.283v-.566c0-.283.283-.283.566-.283l.283-.283-.566-1.133-.283.283a.609.609,0,0,0-.566.566c-.283.283-.283.283-.283.566v.85a1.04,1.04,0,0,0,.283.85c.283.283.283.566.566.85a.877.877,0,0,0,.566.283h.85A1.953,1.953,0,0,1,67.815,42.714Z" transform="translate(81.989 30.913)" fill="#fff"/>
  <path id="Path_48" data-name="Path 48" d="M72.663,43.265l1.133-.283L72.663,39.3l-1.133.566L72.1,41l-6.8,2.265.566,1.133,6.513-2.265Z" transform="translate(83.088 33.478)" fill="#fff"/>
  <path id="Path_49" data-name="Path 49" d="M66.066,42.816l1.7-.283.283,1.416-1.7.85.283,1.133L74,42.25l-.283-.85-8.212.566Zm5.947-.283h0l-2.832,1.416L68.9,42.816Z" transform="translate(83.454 37.325)" fill="#fff"/>
  <path id="Path_50" data-name="Path 50" d="M66.383,45.549l3.4-.566v.566l-3.115,1.7.283,1.133,3.4-1.7c.283.283.566.566.85.566H72.33c1.7-.283,2.265-1.133,1.982-2.265L74.029,43,66.1,44.416Zm6.8-1.416v1.133a.277.277,0,0,1-.283.283l-.283.283H71.2a.277.277,0,0,1-.283-.283.877.877,0,0,0-.283-.566v-.566Z" transform="translate(84.553 40.256)" fill="#fff"/>
  <path id="Path_51" data-name="Path 51" d="M73.48,46.216l-7.08.566.283,1.133,6.8-.566.283,1.133H74.9L74.329,44.8h-.85Z" transform="translate(85.103 43.553)" fill="#fff"/>
  <path id="Path_52" data-name="Path 52" d="M66.5,48.116l8.212-.283V46.7l-8.212.283Z" transform="translate(85.286 47.034)" fill="#fff"/>
  <path id="Path_53" data-name="Path 53" d="M66.5,48.933l4.814.283h0L66.5,50.632v1.133l7.929.283V50.915l-4.814-.283h0l5.1-1.416v-.85L66.5,47.8Z" transform="translate(85.286 49.049)" fill="#fff"/>
  <path id="Path_54" data-name="Path 54" d="M74.229,51.216c0-.283-.283-.283-.566-.566a1.04,1.04,0,0,0-.85-.283L68.565,49.8h-.85a.989.989,0,0,0-.566.283l-.566.566c0,.283-.283.283-.283.566v.566a.989.989,0,0,0,.283.566c0,.283.283.283.566.566A1.04,1.04,0,0,0,68,53.2l2.549.283.283-1.982L69.7,51.216v.85l-1.416-.283a.989.989,0,0,1-.566-.283c0-.283-.283-.283,0-.566,0-.283,0-.283.283-.566.283,0,.283-.283.566,0l4.248.566a.989.989,0,0,1,.566.283c0,.283.283.283,0,.566,0,.283,0,.283-.283.566-.283,0-.283.283-.566,0h-.283l-.283,1.133H73.1a.989.989,0,0,0,.566-.283l.566-.566c0-.283.283-.283.283-.566V51.5C74.229,51.782,74.229,51.5,74.229,51.216Z" transform="translate(84.92 52.712)" fill="#fff"/>
  <path id="Path_55" data-name="Path 55" d="M65.7,53.733l7.929,1.982.283-.85L65.983,52.6Z" transform="translate(83.821 57.841)" fill="#fff"/>
  <path id="Path_56" data-name="Path 56" d="M65.95,54.45l4.814,1.7h-5.38L65.1,57l7.646,2.832.283-.85-4.531-1.7h5.1l.566-1.133L66.516,53.6Z" transform="translate(82.722 59.673)" fill="#fff"/>
  <path id="Path_57" data-name="Path 57" d="M71.646,59.881l-.566-.566-.566-.283-.566.85.566.283a.277.277,0,0,1,.283.283v.283a.277.277,0,0,1-.283.283h-.85c-.283,0-.283-.283-.566-.283l-.283-.283-2.549-3.681-.85-.566L64,59.032l1.133.566.85-1.7,2.265,3.115a.277.277,0,0,0,.283.283l.283.283.283.283a.989.989,0,0,0,.566.283c.283,0,.566.283.85.283h.85c.283,0,.566,0,.566-.283.283,0,.283-.283.566-.566,0-.283.283-.283.283-.566v-.566A3.1,3.1,0,0,1,71.646,59.881Z" transform="translate(80.707 64.436)" fill="#fff"/>
  <path id="Path_58" data-name="Path 58" d="M70.38,61.3c0-.283-.283-.283-.566-.566l-3.965-2.549a.877.877,0,0,0-.566-.283h-.566c-.283,0-.283,0-.566.283-.283,0-.283.283-.566.566,0,.283-.283.283-.283.566v.566c0,.283,0,.283.283.566,0,.283.283.283.566.566l3.965,2.549c0,.283.283.283.566.283h.566c.283,0,.283,0,.566-.283.283,0,.283-.283.566-.566,0-.283.283-.283.283-.566v-.566C70.38,61.865,70.38,61.581,70.38,61.3Zm-1.133,1.133-.283.283H68.4l-3.965-2.549-.283-.283V59.6l.283-.283H65l3.965,2.549.283.283C69.53,62.148,69.53,62.431,69.247,62.431Z" transform="translate(79.424 67.55)" fill="#fff"/>
  <path id="Path_59" data-name="Path 59" d="M68.53,62.515l-3.681-2.832a.877.877,0,0,0-.566-.283h-.566c-.283,0-.283,0-.566.283-.283,0-.283.283-.566.283,0,.283-.283.283-.283.566V61.1c0,.283,0,.283.283.566,0,.283.283.283.566.566l3.681,2.832a.877.877,0,0,0,.566.283h.566c.283,0,.283,0,.566-.283.283,0,.283-.283.566-.283,0-.283.283-.283.283-.566v-.566c0-.283,0-.283-.283-.566A.609.609,0,0,0,68.53,62.515Zm-.566,1.7-.283.283H67.4l-3.681-2.832-.283-.283V61.1l.283-.283H64l3.681,2.832.283.283C68.247,63.931,68.247,63.931,67.964,64.214Z" transform="translate(77.592 70.298)" fill="#fff"/>
  <path id="Path_60" data-name="Path 60" d="M67.247,64.1l-3.4-3.115c-.283-.283-.283-.283-.566-.283h-.566c-.283,0-.283,0-.566.283-.283,0-.283.283-.566.283-.283.283-.283.283-.283.566V62.4c0,.283,0,.566.283.566,0,.283.283.283.566.566l3.4,3.115c.283.283.283.283.566.283h.566c.283,0,.283,0,.566-.283.283,0,.283-.283.566-.283.283-.283.283-.283.283-.566v-.566c0-.283,0-.566-.283-.566A.609.609,0,0,1,67.247,64.1Zm-.85,1.7-.283.283c-.283,0-.283,0-.283-.283l-3.4-3.115L62.15,62.4c0-.283,0-.283.283-.283l.283-.283c.283,0,.283,0,.283.283l3.4,3.115.283.283A.277.277,0,0,1,66.4,65.8Z" transform="translate(75.761 72.679)" fill="#fff"/>
  <path id="Path_61" data-name="Path 61" d="M43.765,73.963a13.943,13.943,0,0,0,4.814-1.7,5.523,5.523,0,0,0,1.416-3.681,3.97,3.97,0,0,0-2.265-3.115l-1.133-.85c-1.133-.85-1.416-1.133-1.7-1.133a1.04,1.04,0,0,1-.283-.85,1.557,1.557,0,0,1,.85-1.416,2.448,2.448,0,0,1,1.7-.85,3.461,3.461,0,0,1,2.549.85h.566c.283-.566.566-.85.566-1.133s-.283-.566-.85-.85a2.4,2.4,0,0,0-1.982,0,7.2,7.2,0,0,0-3.681,1.416,3.932,3.932,0,0,0-1.416,2.832A3.558,3.558,0,0,0,44.9,66.317l1.133.85c1.416.85,1.982,1.7,1.982,2.265a2.448,2.448,0,0,1-.85,1.7,3.216,3.216,0,0,1-2.265.85,3.051,3.051,0,0,1-2.265-.566,2.2,2.2,0,0,1-.85-1.982v-.283H41.5A4.5,4.5,0,0,0,39.8,71.7a1.553,1.553,0,0,0,1.133,1.7,3.592,3.592,0,0,0,1.7.283C42.915,73.963,43.2,73.963,43.765,73.963Z" transform="translate(36.376 69.611)" fill="#fff"/>
  <path id="Path_62" data-name="Path 62" d="M78,64.446a1.782,1.782,0,0,1-1.7,0c-.566-.566.566-1.7,1.133-2.549.566-.566.85-.85.566-1.133l-.283-.283c-.283,0-3.115-.283-3.681,0a2.114,2.114,0,0,0-.85.85h0a12.754,12.754,0,0,1-2.549,2.832,5.788,5.788,0,0,1-2.549,1.416h-.85a1.04,1.04,0,0,1-.283-.85A8.48,8.48,0,0,0,69.788,63.6a2.048,2.048,0,0,0,1.133-1.7c0-.283-.283-.85-.566-.85a2.122,2.122,0,0,0-1.416-.283,2.974,2.974,0,0,0-2.549,1.416,3.459,3.459,0,0,0-1.133,2.549,4.025,4.025,0,0,0,.566,1.7c.283.283.85.283,1.133.566h.566a4.9,4.9,0,0,0,3.4-1.7,8.325,8.325,0,0,0,2.832-3.4,1.131,1.131,0,0,1,1.133-.566,1.24,1.24,0,0,1,.85.283l-.283.283a10.691,10.691,0,0,0-1.416,2.265c-.283.566,0,.85.283,1.133.566.566,2.265.283,3.4-.283.566-.283,1.7,0,1.7.283.283.283-.283.566-.85.85-1.416.566-5.664,1.133-11.61,1.982-1.133,0-1.982.283-2.832.283-1.982.283-3.4.283-5.1.566l.566-1.7h1.133a3.932,3.932,0,0,0,2.832-1.416,3.459,3.459,0,0,0,1.133-2.549,2.163,2.163,0,0,0-.566-1.416,4.025,4.025,0,0,0-1.7-.566,2.448,2.448,0,0,0-1.7.85l.283-1.416v-.283h-.283a4.093,4.093,0,0,1-1.982.566H57.328v.283c0,.283.283.566.566.85a1.04,1.04,0,0,0,.85.283h.566l-.283,1.7c-1.416,2.265-2.265,2.832-2.832,2.832h-.283a1.24,1.24,0,0,1-.283-.85,2.553,2.553,0,0,1,.283-1.416V63.313c0-.283,0-.283-.283-.283h-.566a1.04,1.04,0,0,0-.85.283h0c0,.566-.283,1.133-1.133,2.549-1.133,1.7-1.982,2.265-2.265,2.265h-.283v-.566a3.079,3.079,0,0,1,.283-1.416v-.566a3.79,3.79,0,0,0,.283-1.416c0-.283,0-.283-.283-.283H49.4v.283a.877.877,0,0,1-.283.566c-.283,1.416-.566,2.549-.566,2.832a1.471,1.471,0,0,0,.566,1.133,1.04,1.04,0,0,0,.85.283h.283c.566,0,1.133-.566,1.7-1.133s.85-1.133,1.416-1.7h0a2.394,2.394,0,0,0,.566,1.7,1.04,1.04,0,0,0,.85.283,3.425,3.425,0,0,0,2.549-1.7l-.85,3.115a42.566,42.566,0,0,0-6.23,1.7c-7.646,1.982-8.5,3.115-9.628,3.965l-.283.283a.531.531,0,0,0,0,.85c.566.85,3.115,1.7,4.814,1.982H46c.566,0,1.133-.566,1.982-1.133A20.6,20.6,0,0,1,56.2,72.375l-.566,2.832c0,.566-.283.85-.283,1.133s0,.283.283.566H56.2a1.04,1.04,0,0,0,.85-.283h0v-1.7l.85-3.115a31.749,31.749,0,0,1,5.947-1.133c4.531-.566,14.726-2.265,15.858-3.115a1.6,1.6,0,0,0,.566-2.265A2.2,2.2,0,0,0,78,64.729C78.567,64.163,78.284,64.163,78,64.446ZM67.806,62.464a1.557,1.557,0,0,1,1.416-.85h.566V61.9a1.517,1.517,0,0,1-.85,1.133l-1.7.85A1.034,1.034,0,0,1,67.806,62.464Zm-7.08,1.416a2.448,2.448,0,0,1,1.7-.85,1.04,1.04,0,0,1,.85.283c.283.283.283.566.283,1.133a4.025,4.025,0,0,1-.566,1.7,2.018,2.018,0,0,1-1.7.85c-.566,0-.85,0-1.133-.283Z" transform="translate(36.972 72.048)" fill="#fff"/>
  <path id="Path_63" data-name="Path 63" d="M154.179,135.554a67.091,67.091,0,0,0,7.08-21.239,71.685,71.685,0,0,0,.85-10.761h0v-2.832h0a66.984,66.984,0,0,0-35.115-56.07l9.345-16.991a86.9,86.9,0,0,0-83.256-.283l9.345,16.991a67.258,67.258,0,0,0-35.4,56.07h0v2.832h0a66.271,66.271,0,0,0,.85,10.761,67.09,67.09,0,0,0,7.08,21.239l-.85,14.442-13.31-.566.85,1.416a86.172,86.172,0,0,0,30.3,28.6h0L45.437,165h0v-.283l6.513-8.779a3.91,3.91,0,0,0,1.133.85l-5.947,7.929A77.231,77.231,0,0,0,142,164.438l-5.947-7.929c.283-.283.85-.566,1.133-.85l6.513,8.5v.283h0v.283l-6.513,14.159a86.173,86.173,0,0,0,30.3-28.6l.85-1.416-13.31.566ZM117.649,28.794l3.681,1.416,2.549-3.115-.283,3.965,3.681,1.416L123.6,33.608l-.283,3.681-2.265-3.115-3.681,1.133,2.549-3.115Zm-10.195-2.265,1.982-3.4L110,27.095l3.965.566-3.4,1.7.566,3.965L108.3,30.493l-3.4,1.7,1.982-3.4-2.832-2.832Zm-14.159-.85L94.428,22l1.133,3.681h3.965L96.41,27.944l1.133,3.681L94.428,29.36l-3.115,2.265,1.133-3.681-2.832-2.265ZM79.419,27.095l.566-3.965,1.982,3.4,3.965-.566L83.1,28.794l1.982,3.4-3.4-1.7-2.832,2.832.566-3.965-3.4-1.7Zm-17.557,5.38,3.681-1.416-.283-3.965,2.549,3.115,3.681-1.416-1.982,3.4,2.549,3.115-3.965-1.133-2.265,3.4-.283-3.965Zm-5.38,23.787,5.664-2.832a2.9,2.9,0,0,0,1.416-1.7L65.543,47.2a9.114,9.114,0,0,1,9.628-5.664l6.8.566a2.122,2.122,0,0,0,1.416-.283l6.8-4.248a.277.277,0,0,0,.283-.283h0a6.19,6.19,0,0,0,1.416-.85h5.1c.566.283,1.133.283,1.416.85h0a.277.277,0,0,1,.283.283l6.8,4.248a3.079,3.079,0,0,0,1.416.283l6.8-.566a9.966,9.966,0,0,1,9.628,5.664l1.982,4.531a2.9,2.9,0,0,0,1.416,1.7l5.664,2.832a9.5,9.5,0,0,1,4.814,10.195l-1.416,6.513c.566.85,1.133,1.416,1.7,2.265h-.283a49.847,49.847,0,0,1,7.08,16.425H140.3c0,.283-.283.283-.283.566l-.283.566h5.1a16.573,16.573,0,0,1,.566,3.681h-7.929l-.85,1.133h9.345a16.148,16.148,0,0,1,.283,3.681H135.489v.283l.283.85H146.25V106.1h-9.628l.283,1.133h9.345c0,1.133-.283,2.549-.283,3.681h-8.5a1.7,1.7,0,0,1-.283,1.133h8.779c-.283,1.133-.566,2.549-.85,3.681h-9.628c-.283.283-.566.85-1.133,1.133h10.478c-.283,1.133-.85,2.549-1.133,3.681H127.277a2.211,2.211,0,0,0-1.133,1.133h17.274c-.566,1.133-1.133,2.549-1.7,3.681H124.728c0,.283-.283.85-.283,1.133h16.708c-.566,1.416-1.416,2.549-1.982,3.681H121.33a7.1,7.1,0,0,1-1.982,1.133h18.973a41.425,41.425,0,0,1-2.549,3.681H119.064l-2.832-5.1a7.8,7.8,0,0,0,6.8-5.947l.283-1.7c0-.283,0-.566.283-.566a5.147,5.147,0,0,1,2.832-3.115l5.1-2.549a7.442,7.442,0,0,0,3.965-8.5l-1.982-5.38a5.582,5.582,0,0,1,.85-4.248l4.531-6.8a7.253,7.253,0,0,0,0-8.212l-3.965-5.664a4.915,4.915,0,0,1-.85-3.965l1.416-7.08a7.419,7.419,0,0,0-3.681-7.929l-5.664-2.832a5.557,5.557,0,0,1-2.549-2.549l-1.982-4.531a7.219,7.219,0,0,0-7.646-4.531l-6.8.566a7.84,7.84,0,0,1-2.549-.283l-6.8-4.531a6.549,6.549,0,0,0-7.363,0l-6.8,4.531a4,4,0,0,1-2.549.283l-6.8-.566a7.655,7.655,0,0,0-7.646,4.531l-1.982,4.531a5.557,5.557,0,0,1-2.549,2.549l-5.664,2.832A7.043,7.043,0,0,0,52.8,66.174l1.416,7.08a4.915,4.915,0,0,1-.85,3.965L49.4,82.882a7.253,7.253,0,0,0,0,8.212l4.531,6.8a5.581,5.581,0,0,1,.85,4.248l-1.416,6.23a7.6,7.6,0,0,0,3.965,8.5l5.1,2.549a5.147,5.147,0,0,1,2.832,3.115c0,.283,0,.566.283.566l.283,1.7c.566,3.4,3.681,5.664,7.08,5.947l-2.832,5.1H53.366c-.85-1.133-1.7-2.549-2.549-3.681H69.791a4.564,4.564,0,0,1-1.982-1.133H50.251a23.4,23.4,0,0,1-1.982-3.681H64.976a1.7,1.7,0,0,1-.283-1.133H47.986c-.566-1.133-1.133-2.549-1.7-3.681H63.561c-.283-.566-.85-.85-1.133-1.133H46a18.318,18.318,0,0,1-1.133-3.681H55.348c-.283-.283-.85-.566-1.133-1.133H44.587a40.356,40.356,0,0,1-.85-4.531h8.779c0-.283-.283-.85-.283-1.133h-8.5a16.147,16.147,0,0,1-.283-3.681h9.062L52.8,106.1H43.171v-3.681H53.649l.283-.85v-.283H43.171c0-1.133.283-2.549.283-3.681h9.062l-.85-1.133H43.455c.283-1.133.283-2.549.566-3.681h5.1l-.283-.566c0-.283-.283-.283-.283-.566H44.587a56.576,56.576,0,0,1,7.08-16.425h-.283c.566-.85,1.133-1.416,1.7-2.265l-1.416-6.513A9.139,9.139,0,0,1,56.481,56.262Zm68.247,89.769-2.549-4.814h7.929c-1.7,1.7-3.4,3.115-5.38,4.814Zm-3.115-5.947-1.982-3.681H134.64a43.553,43.553,0,0,1-3.4,3.681ZM102.923,112.9a31.615,31.615,0,0,0,4.531-2.832,3.891,3.891,0,0,0,1.133-3.4c2.265,1.133,3.115,3.4,3.681,6.513.85,5.38-1.133,11.044-7.929,15.575l-.566.283A16.531,16.531,0,0,0,102.923,112.9Zm-7.08.566c-.283,0-.85.283-1.133.283a1.7,1.7,0,0,1-1.133-.283c-2.265-.85-7.929-2.832-10.195-5.1a1.877,1.877,0,0,1-.566-1.982l.85-2.265,9.911-2.265h2.265l9.911,2.265.85,2.265a1.751,1.751,0,0,1-.566,1.982C103.489,110.634,98.109,112.616,95.843,113.465Zm3.4,18.407-2.549,1.416a5.335,5.335,0,0,1-2.265.566,6.665,6.665,0,0,1-2.265-.566L89.9,131.872c-6.8-7.646-1.982-15.009-.283-17.274a21.511,21.511,0,0,0,3.115,1.133,5.239,5.239,0,0,0,3.4,0,21.511,21.511,0,0,0,3.115-1.133A12.473,12.473,0,0,1,99.242,131.872ZM85.649,129.04l-.566-.283c-6.8-4.248-8.779-10.195-7.929-15.575.566-3.4,1.416-5.38,3.681-6.513a3.891,3.891,0,0,0,1.133,3.4A17.677,17.677,0,0,0,86.5,112.9,16.531,16.531,0,0,0,85.649,129.04Zm-17.557-7.08v-.566A28.979,28.979,0,0,1,70.64,99.589c1.982-3.681,5.947-5.664,8.779-6.513,1.133,1.416,2.265,3.965,2.549,7.929-3.965,1.416-6.513,5.664-7.363,10.478a19.692,19.692,0,0,0,5.664,16.141l-6.23.566a5.06,5.06,0,0,1-5.664-4.248l-.283-1.7h0S68.092,121.961,68.092,121.961Zm-3.115-4.248c-.283-.283-.566-.283-.85-.566l-5.1-2.549a5.32,5.32,0,0,1-2.832-5.947l1.416-6.23h0c2.832-12.46,5.1-17.841,9.345-20.106a9.169,9.169,0,0,1,6.23-.85v.85A11.138,11.138,0,0,0,76.3,89.961c-2.832,1.133-5.664,3.965-7.646,7.363A35.212,35.212,0,0,0,64.977,117.713Zm55.5-20.389a15.844,15.844,0,0,0-7.646-7.363c1.416-1.982,3.115-4.531,3.115-7.646v-.85a9.169,9.169,0,0,1,6.23.85c4.248,2.265,6.513,7.646,9.345,20.106h0l1.416,6.23a5.32,5.32,0,0,1-2.832,5.947l-5.1,2.549c-.283.283-.566.283-.85.566C125.011,110.634,123.879,102.988,120.48,97.324Zm-21.239,3.4h0l-3.115-.283H93.295l-3.115.283h0l-7.363-6.23-.85-1.7a10.386,10.386,0,0,0,5.38-2.265,7.661,7.661,0,0,0,7.363,5.1,7.322,7.322,0,0,0,7.363-5.1,10.386,10.386,0,0,0,5.38,2.265l-.85,1.7Zm6.513-3.4a17.14,17.14,0,0,0-.566,4.248l-3.4-.283Zm-18.407,3.681-3.4.283a21.859,21.859,0,0,0-.566-4.248ZM88.2,79.2v3.115c0,5.664-2.832,8.5-8.212,8.5h0c-1.7-1.416-4.814-4.531-4.531-8.779,0-1.982.283-2.832.283-3.965A21.167,21.167,0,0,0,76.3,72.4a5.938,5.938,0,0,0,3.115,1.133h.85a7.414,7.414,0,0,0,1.7,3.681C83.95,79.2,86.782,79.2,88.2,79.2Zm-5.664-5.38C87.065,74.386,88.2,75.8,88.2,77.5a5.224,5.224,0,0,1-4.814-1.133A26.734,26.734,0,0,1,82.534,73.82Zm6.8,16.141a20.358,20.358,0,0,0,5.38,1.133,20.357,20.357,0,0,0,5.38-1.133,5.633,5.633,0,0,1-10.761,0Zm11.611-7.646V79.2a9.979,9.979,0,0,0,6.23-1.982,7.414,7.414,0,0,0,1.7-3.681h.85a4.259,4.259,0,0,0,3.115-1.133c0,2.832.566,4.531.566,5.664a15.046,15.046,0,0,1,.283,3.965c0,4.248-2.832,7.08-4.531,8.779h0C103.773,90.811,100.941,87.979,100.941,82.315Zm0-4.814c0-1.7,1.133-3.4,5.664-3.681-.283,1.133-.566,2.265-1.133,2.549C104.339,77.784,102.074,77.5,100.941,77.5Zm31.717,19.256-.283.283c-2.832-10.195-6.23-16.425-10.478-18.69a8.677,8.677,0,0,0-6.513-.85c-.283-.85-.283-1.416-.566-2.549,6.23-3.681,13.593-3.4,18.407,3.4l3.965,5.664a5.628,5.628,0,0,1,0,5.947Zm1.133-31.15-1.416,7.08V73.82c-5.1-4.814-11.327-5.947-17.274-2.832V69.006a12.568,12.568,0,0,0-.566-3.681c1.982-3.4,7.363-9.911,16.991-5.38A5.019,5.019,0,0,1,133.79,65.607Zm-22.371-3.681c-.283,0-.283-.283-.566-.283a14.405,14.405,0,0,0-6.23-1.133,16.927,16.927,0,0,1,1.416-7.646c2.549-5.38,5.1-7.08,11.044-7.363a4.873,4.873,0,0,1,3.115,3.115l1.982,4.531a4.519,4.519,0,0,0,1.982,2.549A15.061,15.061,0,0,0,111.419,61.926Zm-11.044-.566a9.57,9.57,0,0,0-3.4,1.7L95.56,40.121a4.025,4.025,0,0,1,1.7.566l7.08,4.531a5.661,5.661,0,0,0,3.681.566h.566C101.79,50.032,100.658,58.811,100.374,61.36Zm-2.832,3.681h0a15.464,15.464,0,0,1,8.212-2.549,9.045,9.045,0,0,1,3.965.85c1.982,1.133,2.832,2.832,2.832,5.38a2.913,2.913,0,0,1-3.115,2.832c-2.832,0-10.761,0-10.761,6.513v4.248a10.78,10.78,0,0,0,1.133,5.38c-1.7.85-4.248,1.982-5.38,1.982s-3.681-1.133-5.38-1.982a10.781,10.781,0,0,0,1.133-5.38V77.784c0-6.513-7.929-6.513-10.761-6.513A3.1,3.1,0,0,1,76.3,68.439c0-2.549.85-4.531,2.832-5.38a9.045,9.045,0,0,1,3.965-.85,15.464,15.464,0,0,1,8.212,2.549h0a5.709,5.709,0,0,0,3.115.85A3.932,3.932,0,0,0,97.543,65.041Zm-5.38-1.982-3.4-1.7c-.283-2.549-1.416-11.327-8.212-15.575h.566a8.364,8.364,0,0,0,3.681-.566l7.08-4.531a4.025,4.025,0,0,1,1.7-.566ZM83.383,52.864A16.927,16.927,0,0,1,84.8,60.51a9.213,9.213,0,0,0-6.23,1.133c-.283,0-.283.283-.566.283a15.64,15.64,0,0,0-12.46-6.23,15.562,15.562,0,0,0,1.982-2.549l1.982-4.531A5.609,5.609,0,0,1,72.622,45.5C78.286,45.785,80.835,47.484,83.383,52.864ZM75.171,65.041a14.348,14.348,0,0,0-.566,3.681V70.7c-5.947-3.115-12.177-1.982-17.274,2.832V72.4l-1.416-7.08a4.815,4.815,0,0,1,2.832-5.664C67.808,55.13,73.189,61.643,75.171,65.041ZM55.915,78.351c4.814-6.8,12.177-7.08,18.407-3.4,0,1.133-.283,1.982-.283,2.549a8.677,8.677,0,0,0-6.513.85c-4.248,2.265-7.646,8.5-10.478,18.69l-.283-.283-4.531-6.8a5.623,5.623,0,0,1,0-5.947Zm58.619,33.132c-.85-4.531-3.4-8.779-7.363-10.478.283-3.965,1.416-6.513,2.549-7.929a14.023,14.023,0,0,1,8.779,6.513,27.733,27.733,0,0,1,2.549,21.805v.85h0l-.283,1.7a5.483,5.483,0,0,1-5.664,4.248l-6.23-.566C113.967,122.527,115.383,116.014,114.534,111.483Zm-56.353,28.6c-1.133-1.133-2.265-2.549-3.4-3.681H70.074l-1.982,3.681Zm9.345,1.133-2.549,4.531c-1.982-1.416-3.681-2.832-5.664-4.531Zm-9.062,9.345-4.248,5.664A66.015,66.015,0,0,1,37.508,70.7L49.4,76.085c-6.23,10.478-9.345,22.938-7.08,35.964a54.589,54.589,0,0,0,21.805,35.115l-3.115,5.381A15.564,15.564,0,0,1,58.463,150.562Zm8.779,20.672-.85,1.7-4.531-1.982,4.814-10.761,1.416.566L63.844,170.1Zm11.044-5.1L75.171,165l-1.133,3.4,2.832.85-.566,1.416-2.832-.85-1.133,3.4,3.115.85v1.7L70.64,174.35l3.4-11.327,4.814,1.416Zm8.212,2.549-1.133,6.23a1.471,1.471,0,0,1-.566,1.133l-.85.85a1.04,1.04,0,0,1-.85.283H81.968c-.283,0-.566-.283-.85-.283-.283-.283-.566-.283-.85-.566s-.283-.566-.566-1.133v-1.416l1.133-6.23a1.471,1.471,0,0,1,.566-1.133l.85-.85a1.04,1.04,0,0,1,.85-.283h1.133c.283,0,.566.283.85.283.283.283.566.283.85.566s.283.566.566,1.133Zm14.442,7.646c0,.283-.283.566-.566.85s-.566.566-.85.566c-.283.283-.566.283-1.133.283h-.85c-.283,0-.566-.283-.85-.283-.283-.283-.566-.566-.566-.85a2.122,2.122,0,0,1-.283-1.416l-.283-6.513a1.7,1.7,0,0,1,.283-1.133c0-.283.283-.566.566-.85s.566-.566.85-.566c.283-.283.566-.283,1.133-.283a1.7,1.7,0,0,1,1.133.283c.283,0,.566.283.85.566s.566.566.566.85a1.7,1.7,0,0,1,.283,1.133v.566h-1.7v-.566a1,1,0,0,0-1.133-1.133c-.283,0-.566.283-.85.566,0,.283-.283.566-.283,1.133l.283,5.947a1,1,0,0,0,1.133,1.133h.283a.277.277,0,0,0,.283-.283l.283-.283v-1.133h1.7v.85C100.941,175.766,100.941,176.049,100.941,176.332Zm9.628-1.416a2.147,2.147,0,0,1-.566,1.133c-.283.283-.566.566-.85.566a1.04,1.04,0,0,1-.85.283h-1.133c-.283,0-.566-.283-1.133-.283l-.85-.85c-.283-.283-.283-.85-.566-1.133l-1.133-6.23v-1.416a2.147,2.147,0,0,1,.566-1.133c.283-.283.566-.566.85-.566a1.04,1.04,0,0,1,.85-.283h1.133c.283,0,.566.283,1.133.283l.85.85c.283.283.283.85.566,1.133l1.133,6.23C110.852,174.35,110.852,174.633,110.569,174.916Zm9.062-.85L118.5,171.8l-2.265.85.283,2.549-1.7.283-1.133-12.177,1.416-.566,6.23,10.478Zm5.38-2.266-4.248-9.345-1.7.85-.566-1.416,5.1-2.265.566,1.416-1.7.85,4.248,9.345Zm-30.3-8.779a59.1,59.1,0,0,1-32.283-9.628l12.743-23.221,5.664-.566a7.54,7.54,0,0,1,3.4.85l7.363,4.531a7.221,7.221,0,0,0,6.8,0l7.363-4.531a6.727,6.727,0,0,1,3.4-.85l5.947.566,12.743,23.221A63.412,63.412,0,0,1,94.711,163.022Zm40.5-7.08-4.248-5.664c-.85.566-1.7,1.416-2.549,1.982l-3.115-5.38A52.836,52.836,0,0,0,147.1,111.766,53.966,53.966,0,0,0,140.02,75.8l11.894-5.38a66.761,66.761,0,0,1,8.212,43.327A67.715,67.715,0,0,1,135.206,155.943Z" transform="translate(1.571 -7.555)" fill="#fff"/>
</svg>
