<svg xmlns="http://www.w3.org/2000/svg" width="265.406" height="110" viewBox="0 0 265.406 110">
  <g id="Group_261" data-name="Group 261" transform="translate(5634.885 6103.831)">
    <rect id="Rectangle_143" data-name="Rectangle 143" width="64" height="54" transform="translate(-5634.885 -6103.831)" fill="rgba(255,255,255,0)"/>
    <rect id="Rectangle_164" data-name="Rectangle 164" width="64" height="54" transform="translate(-5634.885 -6047.831)" fill="rgba(255,255,255,0)"/>
    <rect id="Rectangle_160" data-name="Rectangle 160" width="64" height="54" transform="translate(-5533.885 -6103.831)" fill="rgba(255,255,255,0)"/>
    <rect id="Rectangle_163" data-name="Rectangle 163" width="64" height="54" transform="translate(-5533.885 -6047.831)" fill="rgba(255,255,255,0)"/>
    <rect id="Rectangle_161" data-name="Rectangle 161" width="64" height="54" transform="translate(-5433.885 -6103.831)" fill="rgba(255,255,255,0)"/>
    <rect id="Rectangle_162" data-name="Rectangle 162" width="64" height="54" transform="translate(-5433.885 -6047.831)" fill="rgba(255,255,255,0)"/>
    <g id="レイヤー_1" data-name="レイヤー 1" transform="translate(-5633.81 -6100.607)">
      <g id="Group_12" data-name="Group 12" transform="translate(2.034 41.094)">
        <path id="Path_44" data-name="Path 44" d="M6.715,55.773H5.926L3.33,51.94a2.084,2.084,0,0,1-.179-.317H3.135a6.078,6.078,0,0,1,.024.692v3.458H2.5V50.85h.838l2.531,3.759a3.378,3.378,0,0,1,.212.342H6.1a4.945,4.945,0,0,1-.033-.716V50.85h.659v4.923Z" transform="translate(-2.5 -50.565)" fill="#9a2327"/>
        <path id="Path_45" data-name="Path 45" d="M10.66,51.387h-.5v3.849h.5v.537H9v-.537h.5V51.387H9V50.85h1.66Z" transform="translate(-3.711 -50.565)" fill="#9a2327"/>
        <path id="Path_46" data-name="Path 46" d="M15.833,55.549a3.228,3.228,0,0,1-1.432.285,2.38,2.38,0,0,1-1.774-.675,2.439,2.439,0,0,1-.667-1.782,2.549,2.549,0,0,1,.749-1.912,2.623,2.623,0,0,1,1.9-.724,3.082,3.082,0,0,1,1.221.2v.667a2.553,2.553,0,0,0-1.221-.293,1.882,1.882,0,0,0-1.408.545,2,2,0,0,0-.545,1.481,1.877,1.877,0,0,0,.5,1.4,1.783,1.783,0,0,0,1.326.521,2.6,2.6,0,0,0,1.335-.334v.61Z" transform="translate(-4.262 -50.545)" fill="#9a2327"/>
        <path id="Path_47" data-name="Path 47" d="M22.245,55.773h-.667V53.552h-2.62v2.222H18.29V50.85h.667v2.14h2.62V50.85h.667Z" transform="translate(-5.441 -50.565)" fill="#9a2327"/>
        <path id="Path_48" data-name="Path 48" d="M26.12,51.387h-.5v3.849h.5v.537H24.46v-.537h.5V51.387h-.5V50.85h1.66Z" transform="translate(-6.59 -50.565)" fill="#9a2327"/>
        <path id="Path_49" data-name="Path 49" d="M27.43,53.354a2.635,2.635,0,0,1,.675-1.9,2.434,2.434,0,0,1,1.839-.708,2.274,2.274,0,0,1,1.733.692,2.5,2.5,0,0,1,.659,1.8,2.656,2.656,0,0,1-.675,1.9,2.36,2.36,0,0,1-1.8.7,2.3,2.3,0,0,1-1.766-.692A2.5,2.5,0,0,1,27.43,53.354Zm.7-.049a2.087,2.087,0,0,0,.48,1.432,1.59,1.59,0,0,0,1.253.537,1.686,1.686,0,0,0,1.3-.513,2.043,2.043,0,0,0,.472-1.448,2.16,2.16,0,0,0-.464-1.473A1.631,1.631,0,0,0,29.9,51.32a1.61,1.61,0,0,0-1.278.545,2.08,2.08,0,0,0-.488,1.432Z" transform="translate(-7.143 -50.547)" fill="#9a2327"/>
        <path id="Path_50" data-name="Path 50" d="M38.79,53.771c0,1.391-.659,2.091-1.986,2.091s-1.9-.675-1.9-2.018V50.85h.667v2.962c0,.985.431,1.481,1.3,1.481s1.261-.48,1.261-1.432V50.85H38.8v2.921Z" transform="translate(-8.535 -50.565)" fill="#9a2327"/>
        <path id="Path_51" data-name="Path 51" d="M47.783,55.549a3.228,3.228,0,0,1-1.432.285,2.38,2.38,0,0,1-1.774-.675,2.439,2.439,0,0,1-.667-1.782,2.549,2.549,0,0,1,.749-1.912,2.623,2.623,0,0,1,1.9-.724,3.082,3.082,0,0,1,1.221.2v.667a2.553,2.553,0,0,0-1.221-.293,1.9,1.9,0,0,0-1.408.545,2,2,0,0,0-.545,1.481,1.877,1.877,0,0,0,.5,1.4,1.765,1.765,0,0,0,1.326.521,2.6,2.6,0,0,0,1.335-.334v.61Z" transform="translate(-10.213 -50.545)" fill="#9a2327"/>
        <path id="Path_52" data-name="Path 52" d="M49.83,54.36a1.842,1.842,0,0,1,.513-1.375,1.9,1.9,0,0,1,1.383-.5,1.694,1.694,0,0,1,1.3.488,1.839,1.839,0,0,1,.472,1.343,1.748,1.748,0,0,1-1.855,1.855,1.742,1.742,0,0,1-1.318-.5,1.761,1.761,0,0,1-.5-1.31Zm.667-.016a1.347,1.347,0,0,0,.326.96,1.1,1.1,0,0,0,.863.35,1.086,1.086,0,0,0,.854-.342,1.8,1.8,0,0,0,0-1.969A1.063,1.063,0,0,0,51.685,53a1.1,1.1,0,0,0-.871.358A1.432,1.432,0,0,0,50.5,54.343Z" transform="translate(-11.315 -50.869)" fill="#9a2327"/>
        <path id="Path_53" data-name="Path 53" d="M55.54,56.407a.4.4,0,0,1,.122-.293A.417.417,0,0,1,55.971,56a.423.423,0,0,1,.309.122.393.393,0,0,1,0,.57.429.429,0,0,1-.317.122.417.417,0,0,1-.423-.407Z" transform="translate(-12.379 -51.524)" fill="#9a2327"/>
        <path id="Path_54" data-name="Path 54" d="M58.582,55.93l-.57,1.693H57.54l.415-1.693h.635Z" transform="translate(-12.752 -51.511)" fill="#9a2327"/>
        <path id="Path_55" data-name="Path 55" d="M63.226,55.773H60.5V50.85h.667v4.362h2.059Z" transform="translate(-13.303 -50.565)" fill="#9a2327"/>
        <path id="Path_56" data-name="Path 56" d="M66.545,55.824a1.278,1.278,0,0,1-.578.114c-.659,0-.993-.35-.993-1.05V52.854H64.34v-.513h.635V51.5l.651-.2v1.042h.92v.513h-.92v1.92a.793.793,0,0,0,.122.5.506.506,0,0,0,.407.146.663.663,0,0,0,.382-.114v.521Z" transform="translate(-14.018 -50.649)" fill="#9a2327"/>
        <path id="Path_57" data-name="Path 57" d="M71.32,55.708h-.651v-.586h-.016a1.352,1.352,0,0,1-1.253.667,1.4,1.4,0,0,1-1.115-.472,1.893,1.893,0,0,1-.415-1.286,2.046,2.046,0,0,1,.464-1.4,1.554,1.554,0,0,1,1.221-.529,1.167,1.167,0,0,1,1.09.561h.016V50.5h.651v5.2Zm-.651-2.091a.939.939,0,0,0-.293-.708,1.068,1.068,0,0,0-1.538.09,1.554,1.554,0,0,0-.3,1.009,1.419,1.419,0,0,0,.285.928.961.961,0,0,0,.773.342.991.991,0,0,0,.773-.334,1.192,1.192,0,0,0,.3-.838v-.488Z" transform="translate(-14.676 -50.5)" fill="#9a2327"/>
        <path id="Path_58" data-name="Path 58" d="M73.61,56.407a.4.4,0,0,1,.122-.293A.417.417,0,0,1,74.041,56a.423.423,0,0,1,.309.122.393.393,0,0,1,0,.57.429.429,0,0,1-.317.122.417.417,0,0,1-.423-.407Z" transform="translate(-15.745 -51.524)" fill="#9a2327"/>
      </g>
      <g id="Group_13" data-name="Group 13">
        <path id="Path_59" data-name="Path 59" d="M6.17,18.346H31.681V4.74C18.368,4.984,7.529,10.851,6.17,18.346Z" transform="translate(-1.149 -0.883)" fill="#9a2327"/>
        <path id="Path_60" data-name="Path 60" d="M31.673,38.966V25.36H6.17c1.359,7.495,12.19,13.362,25.511,13.606Z" transform="translate(-1.149 -4.723)" fill="#9a2327"/>
        <path id="Path_61" data-name="Path 61" d="M39.61,4.74V18.346H65.121C63.77,10.859,52.931,4.984,39.61,4.74Z" transform="translate(-7.378 -0.883)" fill="#9a2327"/>
        <path id="Path_62" data-name="Path 62" d="M31.378,0C14.045,0,0,8.528,0,19.05S14.045,38.1,31.378,38.1s31.386-8.536,31.386-19.05S48.711,0,31.378,0Zm0,36.578C15.1,36.578,1.9,28.733,1.9,19.058S15.1,1.53,31.378,1.53,60.852,9.382,60.852,19.05,47.661,36.57,31.378,36.57Z" fill="#9a2327"/>
        <path id="Path_63" data-name="Path 63" d="M39.61,25.36V38.966c13.321-.244,24.152-6.111,25.511-13.606H39.61Z" transform="translate(-7.378 -4.723)" fill="#9a2327"/>
      </g>
    </g>
    <g id="Amazon_logo" transform="translate(-5533.88 -6086.639)">
      <path id="path8" d="M116.025,118.843a24.56,24.56,0,0,1-13.852,4.235,25.067,25.067,0,0,1-16.923-6.457c-.351-.317-.036-.749.384-.5a34.059,34.059,0,0,0,16.931,4.49,33.668,33.668,0,0,0,12.915-2.641c.634-.269,1.165.415.544.876" transform="translate(-76.029 -103.649)" fill="#f90"/>
      <path id="path10" d="M349.487,111.439c-.477-.612-3.166-.289-4.372-.146-.368.045-.424-.275-.093-.505,2.141-1.507,5.655-1.072,6.065-.567s-.107,4.03-2.119,5.711c-.309.258-.6.121-.466-.222.452-1.128,1.465-3.657.985-4.271" transform="translate(-307.932 -98.027)" fill="#f90"/>
      <path id="path12" d="M345.383,4.756V3.291a.361.361,0,0,1,.37-.37h6.558a.365.365,0,0,1,.379.37V4.545a2.064,2.064,0,0,1-.494.92l-3.4,4.852a7.241,7.241,0,0,1,3.741.8.668.668,0,0,1,.348.57v1.563c0,.213-.236.463-.483.334a7.555,7.555,0,0,0-6.929.011c-.227.123-.466-.123-.466-.337V11.777a1.771,1.771,0,0,1,.241-1.007l3.937-5.646h-3.427a.363.363,0,0,1-.379-.368" transform="translate(-308.117 -2.634)" fill="#221f1f"/>
      <path id="path14" d="M105.381,12.327h-2a.377.377,0,0,1-.356-.34V1.747a.375.375,0,0,1,.384-.368h1.861a.376.376,0,0,1,.362.342V3.061h.036a2.742,2.742,0,0,1,5.217,0,2.947,2.947,0,0,1,5.066-.777c.631.862.5,2.113.5,3.211l0,6.463a.377.377,0,0,1-.384.37h-1.993a.379.379,0,0,1-.359-.37V6.529a12.815,12.815,0,0,0-.056-1.92,1.039,1.039,0,0,0-1.173-.881,1.325,1.325,0,0,0-1.193.839,6.2,6.2,0,0,0-.185,1.962v5.428a.377.377,0,0,1-.384.37h-1.993a.377.377,0,0,1-.359-.37l0-5.428c0-1.142.188-2.823-1.229-2.823-1.434,0-1.378,1.639-1.378,2.823v5.428a.377.377,0,0,1-.384.37" transform="translate(-92.039 -1.065)" fill="#221f1f"/>
      <path id="path16" d="M432.057,1.164c2.961,0,4.563,2.543,4.563,5.776,0,3.124-1.771,5.6-4.563,5.6-2.907,0-4.49-2.543-4.49-5.711,0-3.188,1.6-5.666,4.49-5.666m.017,2.091c-1.471,0-1.563,2-1.563,3.253s-.02,3.923,1.546,3.923c1.546,0,1.619-2.155,1.619-3.469a9.469,9.469,0,0,0-.3-2.717,1.248,1.248,0,0,0-1.3-.991" transform="translate(-381.837 -1.065)" fill="#221f1f"/>
      <path id="path18" d="M528.413,12.327h-1.987a.379.379,0,0,1-.359-.37l0-10.243a.377.377,0,0,1,.385-.334H528.3a.382.382,0,0,1,.356.286V3.232h.037a2.714,2.714,0,0,1,2.719-2.068A2.618,2.618,0,0,1,533.74,2.37a6.509,6.509,0,0,1,.522,3.188V12a.383.383,0,0,1-.385.323h-2a.378.378,0,0,1-.354-.323V6.442c0-1.12.129-2.759-1.249-2.759a1.3,1.3,0,0,0-1.154.819,4.534,4.534,0,0,0-.317,1.939v5.515a.384.384,0,0,1-.39.37" transform="translate(-469.791 -1.065)" fill="#221f1f"/>
      <path id="use28" d="M6.243,6.617V6.184c-1.442,0-2.966.309-2.966,2.009,0,.862.446,1.445,1.212,1.445A1.618,1.618,0,0,0,5.87,8.733a3.9,3.9,0,0,0,.373-2.116M8.256,11.48a.417.417,0,0,1-.471.048A4.913,4.913,0,0,1,6.639,10.2,3.948,3.948,0,0,1,3.35,11.648,2.832,2.832,0,0,1,.364,8.539,3.39,3.39,0,0,1,2.491,5.278a13.826,13.826,0,0,1,3.752-.693V4.327A2.567,2.567,0,0,0,6,2.881a1.335,1.335,0,0,0-1.12-.519,1.521,1.521,0,0,0-1.605,1.2.417.417,0,0,1-.345.365L1,3.718A.353.353,0,0,1,.7,3.3C1.144.953,3.263.246,5.16.246a4.524,4.524,0,0,1,3.006.993c.971.906.878,2.116.878,3.432V7.781A2.729,2.729,0,0,0,9.8,9.631a.375.375,0,0,1-.006.53c-.407.34-1.131.971-1.529,1.325l-.006-.006" transform="translate(25.794 -0.246)" fill="#221f1f"/>
      <path id="path30" d="M6.243,6.617V6.184c-1.442,0-2.966.309-2.966,2.009,0,.862.446,1.445,1.212,1.445A1.618,1.618,0,0,0,5.87,8.733a3.9,3.9,0,0,0,.373-2.116M8.256,11.48a.417.417,0,0,1-.471.048A4.913,4.913,0,0,1,6.639,10.2,3.948,3.948,0,0,1,3.35,11.648,2.832,2.832,0,0,1,.364,8.539,3.39,3.39,0,0,1,2.491,5.278a13.826,13.826,0,0,1,3.752-.693V4.327A2.567,2.567,0,0,0,6,2.881a1.335,1.335,0,0,0-1.12-.519,1.521,1.521,0,0,0-1.605,1.2.417.417,0,0,1-.345.365L1,3.718A.353.353,0,0,1,.7,3.3C1.144.953,3.263.246,5.16.246a4.524,4.524,0,0,1,3.006.993c.971.906.878,2.116.878,3.432V7.781A2.729,2.729,0,0,0,9.8,9.631a.375.375,0,0,1-.006.53c-.407.34-1.131.971-1.529,1.325l-.006-.006" transform="translate(-0.364 -0.246)" fill="#221f1f"/>
    </g>
    <g id="pet_rakuten-logo" transform="translate(-5433.95 -6086.639)">
      <path id="Path_64" data-name="Path 64" d="M91.654,25.982H53.2l3.063,3.087Zm6.174-1.938v-6.15a1.967,1.967,0,1,1,3.924,0V24.02h2.369V17.894a4.3,4.3,0,0,0-4.259-4.57,3.807,3.807,0,0,0-2.034.646v-.431H95.458V24h2.369ZM89.979,13.3c-2.752,0-4.714,2.417-4.714,5.48a5.267,5.267,0,0,0,4.953,5.48,4.9,4.9,0,0,0,4.188-2.345L92.3,20.694c-1.6,2.369-4.331,1.2-4.642-1.22h6.82c.6-3.685-1.819-6.174-4.5-6.174Zm2.058,4.14H87.777A2.148,2.148,0,0,1,92.036,17.44Z" transform="translate(-40.47 -10.117)" fill="#bf0000"/>
      <path id="Path_65" data-name="Path 65" d="M136.151,14.1a1.565,1.565,0,0,1-.814.263,1.165,1.165,0,0,1-1.1-1.268V8.6h2.034V6.108h-2.034V3.5h-2.393V6.108h-1.268V8.6h1.268v4.475a3.552,3.552,0,0,0,3.518,3.709,5.154,5.154,0,0,0,2.3-.646Zm-8.758-7.992v6.126a1.967,1.967,0,1,1-3.924,0V6.108H121.1v6.126a4.3,4.3,0,0,0,4.259,4.57,3.807,3.807,0,0,0,2.034-.646v.383h2.369V6.108Z" transform="translate(-92.122 -2.662)" fill="#bf0000"/>
      <path id="Path_66" data-name="Path 66" d="M54.143,8.351l4.068-4.905h-3.3L52.037,7.083V0H49.6V13.927h2.417V9.619L55.53,13.9h3.3l-4.69-5.551ZM45.887,3.446V3.9a3.855,3.855,0,0,0-2.225-.718c-2.68,0-4.762,2.465-4.762,5.48s2.034,5.48,4.762,5.48a3.8,3.8,0,0,0,2.225-.718v.455h2.369V3.446Zm-2.273,8.208c-1.34,0-2.3-1.292-2.3-2.943s.957-2.967,2.3-2.967,2.273,1.292,2.273,2.943C45.935,10.361,44.978,11.653,43.614,11.653Z" transform="translate(-29.592)" fill="#bf0000"/>
      <path id="Path_67" data-name="Path 67" d="M2.489,16.665V12.6H4.211l3.039,4.02h3.111L6.676,11.76A4.5,4.5,0,0,0,4.092,3.6H0V16.617H2.489Zm0-10.6h1.6a2.034,2.034,0,1,1,0,4.068h-1.6Z" transform="translate(0 -2.739)" fill="#bf0000"/>
    </g>
    <g id="Group_140" data-name="Group 140" transform="translate(-5634.885 -6032.913)">
      <path id="Path_85" data-name="Path 85" d="M45.042,73.9a9.956,9.956,0,0,1,2.178,1.316l-.742.885A8.314,8.314,0,0,0,44.3,74.735l.742-.838m6.031.455a6.421,6.421,0,0,1-2.13,3.135A7.436,7.436,0,0,1,45.018,78.8l-.55-1.173c3.255-.144,4.5-1.029,5.672-4.092Zm-4.954-2.178a9.651,9.651,0,0,1,2.106,1.316l-.742.885a8.862,8.862,0,0,0-2.034-1.364C45.425,73.036,46.119,72.174,46.119,72.174ZM51.766,77.7h3.925v-1.22H51.982v-.957h3.709V74.5H51.766V73.491h5v5.217h-5V77.7m6.748-3.949A9.351,9.351,0,0,1,59.52,76l-1.029.311-.024-.072a8.016,8.016,0,0,0-.862-2.058l-.072-.1.981-.335m4.714,0V73.9c-.168,3.422-1.388,4.786-4.523,5.169l-.6-1.005h.072a5.356,5.356,0,0,0,2.752-.79c.814-.6,1.173-1.651,1.244-3.733C62.152,73.538,63.229,73.754,63.229,73.754Zm-2.68-.407a10.326,10.326,0,0,1,.718,2.273v.072l-1.077.239a7.13,7.13,0,0,0-.646-2.321Zm5-1.1v1.891a21.492,21.492,0,0,0,3.877-.718L70,74.52l-.144.024a28.721,28.721,0,0,1-4.308.67v1.914c0,.311.239.383,1.316.383.742,0,1.891-.024,3.255-.144h.144V78.54h-.144c-1.388.024-1.891.024-2.68.024A10.327,10.327,0,0,1,65.1,78.42a.846.846,0,0,1-.718-.957V72.246h1.173m5.313.287a.95.95,0,0,1-.933.933.91.91,0,1,1,.048-1.819A.933.933,0,0,1,70.863,72.533Zm-1.34,0,.431.383.383-.383-.431-.383Zm2.728-.215a9.755,9.755,0,0,1,2.417,1.532l-.885.957a9.208,9.208,0,0,0-2.393-1.579l.862-.909m5.672,1.747c-1.029,3.135-2.537,4.379-5.911,4.786l-.5-1.149c3.111-.215,4.571-1.436,5.337-4.451Zm6.868-1.22a7.6,7.6,0,0,1-1.364,4.068c-.79,1.029-1.891,1.651-3.925,2.13l-.718-1.1a7.844,7.844,0,0,0,2.752-.957,4.4,4.4,0,0,0,1.819-3.039H81.106a6.258,6.258,0,0,1-1.962,2.345l-.79-.885A5.559,5.559,0,0,0,80.6,71.983l1.292.072a3.493,3.493,0,0,1-.239.814h2.9c-.144-.383-.287-.67-.455-1.1l.742-.168a8.143,8.143,0,0,1,.5,1.1l-.55.144M83.69,71.6a7.839,7.839,0,0,1,.5,1.005l-.742.168a8.02,8.02,0,0,0-.526-1.029Z" transform="translate(-33.699 -54.466)" fill="#595758"/>
      <path id="Path_86" data-name="Path 86" d="M156.655,44.735a6.352,6.352,0,0,0-.885.287c0,.5-.072,2.848-.072,2.848a2.409,2.409,0,0,1-1.747,2.321l-.455-.144c.6-.359.885-.67.933-.933a9.659,9.659,0,0,0,.167-2.608s0-1.1-.024-1.508c-.168-.024-.933-.215-1.173-.239V44.4c.455,0,1.579.024,1.962.024.431,0,.933,0,1.364-.024v.311Zm19.91.67c-.072.024-.359.072-.6.144,0,.383.024,3.135.024,3.781,0,.072-.072.144-.215.024-.6-.6-2.537-2.776-3.135-3.542,0,.5.024,2.465.024,2.824a8.983,8.983,0,0,0,.885.215l.024.383h-2.082v-.383a5.988,5.988,0,0,1,.6-.215c.024-.215.024-2.92.024-3.135-.167,0-.455-.024-.67-.024v-.455h1.532c.574.646,1.891,2.106,2.561,2.848,0-.646-.024-2.13-.024-2.393a4.025,4.025,0,0,1-.646-.072l-.024-.383c.144,0,.862.024.957.024s.718-.024.861-.024Zm-11.343,1.149c0,.5-.455.718-1.029.814v.383c1.1-.144,1.819-.574,1.819-1.244v-.024c0-.79-.5-1.46-1.723-1.46h-2.321l.072.431c.215.024.5.024.718.024,0,.5.072,2.68.024,3.326l-.718.168-.024.383h2.632v-.287c-.167-.024-.79-.168-.885-.168,0-.144-.024-3.207-.024-3.35.239,0,.67,0,.861.024a.932.932,0,0,1,.6.933m5.313,2.321c-.455-.957-1.244-2.848-1.46-3.35l.574-.072.024-.383-2.249.072v.287l.6.072c-.383.862-1.388,3.039-1.579,3.279-.168.024-.359.144-.5.168l-.024.359c.5-.024,1.675,0,1.819,0v-.287l-.574-.168s.359-.862.455-1.1h1.579l.431,1.1s-.383.072-.67.144l-.024.287h2.321l.024-.359a2.568,2.568,0,0,1-.742-.048Zm-2.776-1.46c.072-.215.67-1.6.67-1.6l.646,1.6Zm-6.748,1.46c-.287-.6-1.077-2.465-1.46-3.35l.6-.144v-.359l-2.321.072v.287l.6.072c-.383.862-1.388,3.039-1.579,3.279a2.471,2.471,0,0,1-.5.168l-.024.359h1.819v-.287l-.574-.168s.359-.862.455-1.1H159.6l.431,1.1s-.383.072-.67.144l-.024.287h2.321l.024-.359a1.493,1.493,0,0,1-.67,0Zm-2.776-1.46c.072-.215.67-1.6.67-1.6l.646,1.6Z" transform="translate(-116.69 -33.775)" fill="#ff0132"/>
      <path id="Path_87" data-name="Path 87" d="M17.3,5.282c-.311.024-1.6.311-2.034.407-.455.12-4.714,3.4-5,4.212a5.1,5.1,0,0,0-.1,1.1l-.024.646a11.649,11.649,0,0,0,.191,1.627c.287.072,2.3,0,2.68.072l-.048.838c-.359-.024-2.943,0-4.4,0-.742,0-3.135.072-3.877.048l.144-.79c.407-.024,2.082.072,2.441-.311.191-.191.12-.407.12-1.508V11.1a7.286,7.286,0,0,0-.072-1.149A41.763,41.763,0,0,0,2.489,4.062C2.2,3.966.455,3.8.024,3.7L0,2.985c.215-.1,2.154.024,4.044-.048,1.244-.048,4.068,0,4.427.048l-.1.622c-.383.1-2.154.12-2.632.239,1.22,1.795,3.111,4.116,3.733,5,.335-.5,3.326-2.561,3.422-3.279-.455-.1-2.01-.311-2.249-.311l-.12-.766c.431-.072,2.632,0,3.733,0,.957,0,2.991,0,3.566.048l-.526.742Z" transform="translate(0 -2.219)" fill="#ff0132" fill-rule="evenodd"/>
      <path id="Path_88" data-name="Path 88" d="M67.227,25.4c-.144-.024-1.7-.024-2.25-.024H62.656l.1-.718c.383-.024,1.125-.168,1.46-.215-.215-.479-.933-2.034-1.077-2.321-.407,0-1.891.048-2.3.12a3.273,3.273,0,0,0-.742,1.436c.263.048.79.168,1.1.215l-.12.742c-.335-.024-1.651.024-1.962,0-.287,0-1.651,0-1.914.048l.239-.79c.311-.048,1.029-.263,1.316-.311.407-.574,2.321-4.308,2.465-4.643-.263-.048-.694-.263-.957-.311l-.048-.526c.335.024,1.986.072,2.154.072.383-.024,1.843,0,2.178-.024l-.12.526c-.287.024-.766.168-1.053.215.144.407.67,1.723,1.1,2.7a29.575,29.575,0,0,0,1.316,2.872c.335.048,1.1.287,1.436.311l.024.191Zm-5.121-6.222-.024-.12c-.359.814-.957,2.106-1.077,2.417h1.914C62.7,20.876,62.273,19.7,62.106,19.177Z" transform="translate(-43.512 -13.768)" fill="#ff0132" fill-rule="evenodd"/>
      <path id="Path_89" data-name="Path 89" d="M108.1,9.62c-.263-.024-1.556-.024-2.226,0-.526.024-1.795-.048-2.393-.024l-.048-.742c.215-.024,1.508-.12,1.747-.144a9.173,9.173,0,0,0,.048-1.436l-.024-.862c-.67,0-5.049.239-5.241.239l-.311.048A9.787,9.787,0,0,0,99.8,8.687c.359.072,1.627.144,1.891.191l-.024.814c-.311-.024-2.249,0-2.848,0-.718,0-2.489-.024-2.9,0l.048-.838c.335-.024,1.579-.144,1.867-.191.048-.55.072-1.388.072-2.273v-1.1c0-.383-.024-1.46-.048-1.819-.263-.048-1.532-.12-1.891-.144L95.9,2.7c.239.024,1.986-.024,2.9-.024.862,0,2.776.024,3.015,0l-.072.67c-.383.024-1.7.12-1.938.168a6.061,6.061,0,0,0-.12,1.579l-.024.526c.383,0,5-.024,5.576-.1V4.81a18.406,18.406,0,0,0,.048-2.178,16.679,16.679,0,0,0-1.867-.263l.048-.67c.239.024,1.412.024,2.273.024.909,0,2.226.048,2.513,0l-.072.55c-.263.024-1.484.335-1.484.335A8.4,8.4,0,0,0,106.669,4c.048.67.072,2.01.072,2.01.024,1.484.12,2.68.048,2.752-.1.072.957.144,1.244.168l.12.191-.048.5Zm10.7-3.47c.1,2.537-2.2,3.781-5.217,3.781A7.914,7.914,0,0,1,109.517,8.9a2.391,2.391,0,0,1-1.173-2.393c0-2.034,2.226-3.733,5.624-3.709a5.531,5.531,0,0,1,3.542.981A2.528,2.528,0,0,1,118.73,5.6l.072.55Zm-1.675.191c.072-2.106-1.555-2.656-3.637-2.513-1.077.072-3.279.646-3.279,2.513,0,1.843,1.7,2.848,3.949,2.632,1.747-.144,2.656-.79,2.9-1.7l.072-.933Zm16.823,1.34-1.34-.12c.144-.67.024-5.887,0-6.437L132.538,0c.383.072.311.024,1.891.191.957.1,1.077.144,1.412.168l-.407,1.292c-.359,1.053-1.364,5.672-1.484,6.031Zm-.933,2.752-.718-.072V8.807l.909.12.814.048-.215,1.532-.79-.072Zm-1.627-5.313c.167,2.369-2.561,4.331-5.983,4.331a6.618,6.618,0,0,1-4.044-1.1A3.5,3.5,0,0,1,119.5,5.624c-.263-2.321,2.537-4.26,6.413-4.236a6.261,6.261,0,0,1,4.044,1.125,3.511,3.511,0,0,1,1.388,2.441Zm-1.795.335c.144-2.273-2.058-3.111-4.427-2.943-1.244.1-3.542.814-3.542,2.943,0,2.106,1.938,3.159,4.523,2.943,1.986-.168,2.824-.933,3.278-1.938a3.852,3.852,0,0,0,.168-1.005ZM135.6,8.974a.766.766,0,1,1-.766.766A.756.756,0,0,1,135.6,8.974Zm0,1.412a.624.624,0,0,0,.622-.646.639.639,0,0,0-.622-.646.624.624,0,0,0-.622.646A.639.639,0,0,0,135.6,10.386Zm-.287-1.1h.335c.215,0,.311.1.311.263a.215.215,0,0,1-.239.239l.263.383h-.144l-.239-.383h-.144v.383h-.144Zm.144.383h.144c.12,0,.239,0,.239-.144,0-.12-.1-.144-.191-.144h-.167v.287h-.024Z" transform="translate(-72.95)" fill="#ff0132" fill-rule="evenodd"/>
    </g>
    <g id="Qoo10_logo" transform="translate(-5533.88 -6031.838)">
      <g id="Layer_2" data-name="Layer 2" transform="translate(0 0)">
        <g id="PC-main">
          <g id="img_logo_qoo10" data-name="img logo qoo10">
            <path id="Path_90" data-name="Path 90" d="M725.243,393.93a5.2,5.2,0,1,0,3.683,1.515A5.177,5.177,0,0,0,725.243,393.93Zm0,7.8a2.623,2.623,0,1,1,2.643-2.623h0a2.628,2.628,0,0,1-2.648,2.618h0Z" transform="translate(-696.921 -383.627)" fill="#0d60ad"/>
            <path id="Path_91" data-name="Path 91" d="M748.173,393.93a5.177,5.177,0,1,0,5.212,5.192A5.177,5.177,0,0,0,748.173,393.93Zm0,7.8a2.623,2.623,0,1,1,2.648-2.618,2.623,2.623,0,0,1-2.648,2.618Z" transform="translate(-708.566 -383.627)" fill="#0d60ad"/>
            <path id="Path_92" data-name="Path 92" d="M784.147,389.55a6.467,6.467,0,1,0,6.506,6.477h0a6.486,6.486,0,0,0-6.5-6.472Zm0,10.252a3.794,3.794,0,1,1,3.819-3.8h0a3.849,3.849,0,0,1-3.829,3.79Z" transform="translate(-726.183 -381.403)" fill="#0d60ad"/>
            <path id="Path_93" data-name="Path 93" d="M769.755,390.678a1.474,1.474,0,0,0-.123-.615,1.339,1.339,0,0,0-1.348-.847h-1.8c-1.142,0-1.728.61-1.728,1.476s.566,1.476,1.728,1.476h.359v8.583a1.479,1.479,0,1,0,2.953.177,1.074,1.074,0,0,0,0-.177V390.678Z" transform="translate(-719.601 -381.231)" fill="#0d60ad"/>
            <path id="Path_94" data-name="Path 94" d="M693.13,390.661a11.014,11.014,0,0,0-2.323-15.488,11.221,11.221,0,0,0-15.616,2.308,11.019,11.019,0,0,0,2.328,15.488,11.231,11.231,0,0,0,12.4.586l.8.773a2.092,2.092,0,0,0,3.179.123,2.05,2.05,0,0,0-.118-3.16Zm-8.9,0a6.664,6.664,0,1,1,6.693-6.683,6.6,6.6,0,0,1-.984,3.509l-1.57-1.56a2.1,2.1,0,0,0-3.184-.118,2.048,2.048,0,0,0,.113,3.155l1.27,1.26a6.925,6.925,0,0,1-2.328.413Z" transform="translate(-673.002 -372.996)" fill="#ed2f3d"/>
          </g>
        </g>
      </g>
    </g>
    <g id="Layer_1" data-name="Layer 1" transform="translate(-5433.95 -6024.317)">
      <g id="Group_14" data-name="Group 14" transform="translate(0 0)">
        <path id="Path_95" data-name="Path 95" d="M16.174,2.953c-.027.046-.043.075-.062.1-.475.659-.943,1.322-1.458,1.952a8.538,8.538,0,0,1-1.044,1.126,2.557,2.557,0,0,1-.906.533,1.9,1.9,0,0,1-1.032.057,1.091,1.091,0,0,1-.848-.843c-.005-.022-.01-.044-.017-.066,0-.006-.01-.011-.026-.027-.03.031-.061.061-.09.092a2.869,2.869,0,0,1-1.081.758A2.71,2.71,0,0,1,8.5,6.814,2.315,2.315,0,0,1,7.86,6.7a1.187,1.187,0,0,1-.847-.872A.2.2,0,0,0,7,5.8c-.049-.009-.065.032-.088.059a2.871,2.871,0,0,1-.564.494,2.158,2.158,0,0,1-1.4.408,1.125,1.125,0,0,1-.989-.629A2.059,2.059,0,0,1,3.869,5.9c-.012-.035-.022-.07-.041-.127l-.116.124a2.858,2.858,0,0,1-1.119.761,2.718,2.718,0,0,1-1.4.124,1.983,1.983,0,0,1-.486-.155,1.153,1.153,0,0,1-.684-.941,2.149,2.149,0,0,1,.07-.822,5.54,5.54,0,0,1,.69-1.676A4.06,4.06,0,0,1,2.832,1.491,7.166,7.166,0,0,1,4.408,1.1a14.1,14.1,0,0,1,2-.1c.022,0,.044,0,.08.008-.008.041-.012.077-.022.112Q5.922,3.16,5.379,5.192c-.04.149-.061.3-.086.457a.62.62,0,0,0,0,.159.231.231,0,0,0,.315.226,1.1,1.1,0,0,0,.374-.16,3.155,3.155,0,0,0,.478-.4,2.258,2.258,0,0,0,.6-1.066c.15-.592.315-1.179.476-1.768a2.561,2.561,0,0,1,.4-.861,1.852,1.852,0,0,1,1.271-.744c.134-.02.27-.022.419-.034-.007.049-.009.082-.017.113-.333,1.245-.67,2.49-1,3.735-.058.219-.1.444-.139.667a.69.69,0,0,0,0,.237.389.389,0,0,0,.385.338,1.284,1.284,0,0,0,.578-.1,2.457,2.457,0,0,0,1-.789,2.9,2.9,0,0,0,.518-1.067c.135-.509.27-1.019.412-1.526a2.342,2.342,0,0,1,.554-1.019,1.868,1.868,0,0,1,1.1-.552c.138-.021.278-.023.436-.035-.011.055-.016.09-.026.124l-.715,2.67c-.13.487-.263.974-.39,1.461a2.873,2.873,0,0,0-.072.4.663.663,0,0,0,.021.225.2.2,0,0,0,.251.159.814.814,0,0,0,.368-.145,4.694,4.694,0,0,0,.441-.358,8.712,8.712,0,0,0,.83-.936c.4-.5.77-1.026,1.12-1.564a.18.18,0,0,1,.175-.1c.2.005.4,0,.6,0,.03,0,.059,0,.112.006ZM4.652,1.668a.9.9,0,0,0-.1.007A3.02,3.02,0,0,0,3.9,1.9,3.75,3.75,0,0,0,2.382,3.235a6.045,6.045,0,0,0-.8,1.874,1.821,1.821,0,0,0-.067.574.394.394,0,0,0,.421.41,1.487,1.487,0,0,0,.215-.013A1.675,1.675,0,0,0,2.991,5.7a2.811,2.811,0,0,0,.973-1.463c.2-.7.381-1.412.571-2.118.038-.142.075-.284.118-.447Z" transform="translate(-0.005 -0.954)" fill="#eb5505"/>
        <path id="Path_96" data-name="Path 96" d="M381.979,5.157c-.006.306,0,.6,0,.888s0,.576,0,.86a5.2,5.2,0,0,1-1,.012c-.024-.093-.022-5.693,0-5.791.024,0,.049-.006.075-.006.71,0,1.419,0,2.129,0a1.969,1.969,0,0,1,1.579.749,1.985,1.985,0,0,1-.069,2.616,1.938,1.938,0,0,1-1.4.659c-.39.016-.781.009-1.172.012h-.137Zm0-.938a.347.347,0,0,0,.057.011c.383,0,.767.012,1.149-.006a1.065,1.065,0,0,0,.991-1.32,1.1,1.1,0,0,0-1.056-.856c-.349-.006-.7,0-1.046,0a.819.819,0,0,0-.093.012V4.218Z" transform="translate(-363.604 -1.067)" fill="#eb5505"/>
        <path id="Path_97" data-name="Path 97" d="M474.731,6.929c-.349.01-.7.006-1.061,0,.019-.058.03-.1.044-.134q.555-1.517,1.112-3.033.467-1.276.933-2.554a.111.111,0,0,1,.122-.089c.209,0,.418,0,.626,0a.1.1,0,0,1,.107.075q.916,2.512,1.836,5.022l.212.577c.014.038.026.077.039.116a6.226,6.226,0,0,1-1.056.01c-.012-.03-.028-.063-.04-.1-.1-.283-.193-.567-.289-.851-.059-.174-.059-.171-.241-.17q-.746,0-1.492,0c-.125,0-.251,0-.375-.005-.068,0-.092.022-.113.081-.1.313-.213.625-.32.936-.012.036-.027.07-.045.115Zm1.5-4.174-.038-.005c-.239.718-.507,1.426-.747,2.153h1.52l-.735-2.147Z" transform="translate(-452.092 -1.068)" fill="#eb5505"/>
        <path id="Path_98" data-name="Path 98" d="M721.91,9.351h-4.85V8.51h5.956c-.012.118-.021.226-.035.334a5.324,5.324,0,0,1-.295,1.2,4.059,4.059,0,0,1-1.238,1.728,4.6,4.6,0,0,1-.943.59c-.037.017-.072.038-.12.063.029.046.051.084.076.12l.879,1.288c.027.04.049.082.08.135-.046,0-.075.008-.1.008-.3,0-.6,0-.9,0a.151.151,0,0,1-.147-.081,28.775,28.775,0,0,0-2.321-3.178c-.023-.028-.045-.057-.077-.1a1.123,1.123,0,0,1,.113-.012c.3,0,.592,0,.888,0a.186.186,0,0,1,.162.082c.25.32.5.637.756.955.076.1.076.1.185.045a3.541,3.541,0,0,0,1.462-1.214,3.442,3.442,0,0,0,.457-1,.714.714,0,0,0,.016-.078.314.314,0,0,0,0-.051Z" transform="translate(-684.395 -8.122)" fill="#eb5505"/>
        <path id="Path_99" data-name="Path 99" d="M1010.1,1h2.647c.439,0,.878-.006,1.324,0V1.82c-.044,0-.085.009-.125.01l-.854,0c-.117,0-.119,0-.131.117a6.2,6.2,0,0,1-.269,1.312A3.645,3.645,0,0,1,1010.5,5.6a5.635,5.635,0,0,1-1.365.34c-.037.005-.074,0-.116.006,0-.036-.008-.061-.008-.087v-.6c0-.125,0-.124.123-.142a3.951,3.951,0,0,0,1.3-.42,2.814,2.814,0,0,0,1.344-1.573,4.7,4.7,0,0,0,.251-1.2.657.657,0,0,0,0-.079.936.936,0,0,0-.1-.01c-.672,0-1.344.009-2.015,0a.329.329,0,0,0-.331.181,4.4,4.4,0,0,1-1.65,1.516.618.618,0,0,1-.061.024.68.68,0,0,1-.007-.071c0-.251,0-.5,0-.752a.16.16,0,0,1,.067-.145A3.7,3.7,0,0,0,1009.21.843c.092-.244.156-.5.229-.75.015-.051.026-.094.091-.093l.763,0a.207.207,0,0,1,.05.015A6.622,6.622,0,0,1,1010.1,1Z" transform="translate(-961.957 0)" fill="#eb5505"/>
        <path id="Path_100" data-name="Path 100" d="M572.423,6.865V6.756c0-.478,0-.957,0-1.435a.567.567,0,0,0-.063-.273q-.651-1.259-1.3-2.519-.344-.668-.689-1.334c-.015-.029-.027-.061-.045-.1a.662.662,0,0,1,.083-.012c.323,0,.645,0,.968,0a.144.144,0,0,1,.154.1c.2.422.407.84.611,1.259l.727,1.494a.985.985,0,0,0,.058.09c.031-.058.056-.1.076-.142q.655-1.339,1.307-2.68a.17.17,0,0,1,.179-.117c.319.005.638,0,.957,0,.022,0,.045,0,.081,0a.724.724,0,0,1-.031.085l-1.706,3.294c-.1.2-.2.392-.3.586a.482.482,0,0,0-.058.239c0,.478,0,.957,0,1.435v.141a4.031,4.031,0,0,1-1.011,0Z" transform="translate(-544.349 -1.03)" fill="#eb5505"/>
        <path id="Path_101" data-name="Path 101" d="M1309.517.33h.788a.116.116,0,0,1,.133.131q0,.86,0,1.719c0,.019,0,.037,0,.072,1.3.275,2.6.553,3.877.925v.931c-1.286-.357-2.568-.672-3.879-.947,0,.353,0,.693,0,1.033V6.24a5.646,5.646,0,0,1-.918.01c-.022-.082-.028-5.787,0-5.92Z" transform="translate(-1249.847 -0.315)" fill="#eb5505"/>
        <path id="Path_102" data-name="Path 102" d="M1191.44,27.75v-.807l.173-.042a4.808,4.808,0,0,0,1.071-.374,2.9,2.9,0,0,0,1.533-1.816,5.763,5.763,0,0,0,.232-1.673V22.85h.9a.652.652,0,0,1,.012.1,6.968,6.968,0,0,1-.334,2.093,3.721,3.721,0,0,1-1.135,1.688,4.063,4.063,0,0,1-1.423.769c-.313.1-.638.166-.957.247a.425.425,0,0,1-.068,0Z" transform="translate(-1137.164 -21.809)" fill="#eb5505"/>
        <path id="Path_103" data-name="Path 103" d="M861.51,50.011v-.833c.072-.022,5.536-.031,5.7-.01a4.924,4.924,0,0,1,0,.842Z" transform="translate(-822.264 -46.918)" fill="#eb5505"/>
        <path id="Path_104" data-name="Path 104" d="M1207.37,24.4h-.861a22.562,22.562,0,0,0-.489-2.4.837.837,0,0,1,.091-.011c.208,0,.417,0,.626,0,.107,0,.106,0,.138.109a17.346,17.346,0,0,1,.427,1.9c.019.1.04.209.059.313,0,.029.006.058.01.1Z" transform="translate(-1151.08 -20.986)" fill="#eb5505"/>
        <path id="Path_105" data-name="Path 105" d="M1168.223,25.732h-.85a16.352,16.352,0,0,0-.523-2.406.848.848,0,0,1,.1-.014c.208,0,.418,0,.626,0,.1,0,.108,0,.132.1.129.523.258,1.045.381,1.569.054.232.091.469.134.7a.212.212,0,0,1,0,.045Z" transform="translate(-1113.695 -22.249)" fill="#eb5505"/>
      </g>
    </g>
  </g>
</svg>
