<svg id="Component_9_1" data-name="Component 9 – 1" xmlns="http://www.w3.org/2000/svg" width="26" height="34" viewBox="0 0 26 34">
  <rect id="Rectangle_165" data-name="Rectangle 165" width="26" height="34" fill="none"/>
  <path id="Icon_simple-line" data-name="Icon simple-line" d="M13.943,7.548a.454.454,0,0,1,0,.908H12.68v.81h1.264a.453.453,0,1,1,0,.906H12.225a.454.454,0,0,1-.451-.453V6.284a.455.455,0,0,1,.454-.454h1.718a.454.454,0,0,1,0,.907H12.68v.81h1.264ZM11.168,9.719a.453.453,0,0,1-.311.429.465.465,0,0,1-.143.022.445.445,0,0,1-.367-.18L8.587,7.6V9.719a.453.453,0,1,1-.905,0V6.284a.451.451,0,0,1,.31-.428.419.419,0,0,1,.14-.024.466.466,0,0,1,.356.183l1.773,2.4V6.284a.454.454,0,0,1,.907,0V9.719Zm-4.134,0a.453.453,0,0,1-.906,0V6.284a.453.453,0,1,1,.906,0Zm-1.776.453H3.54a.456.456,0,0,1-.454-.453V6.284a.454.454,0,0,1,.907,0V9.265H5.258a.453.453,0,0,1,0,.906m12.022-2.3C17.281,4.005,13.4.858,8.64.858S0,4.005,0,7.872c0,3.464,3.075,6.366,7.225,6.918.282.059.665.186.762.425a1.759,1.759,0,0,1,.027.778l-.118.734c-.032.217-.173.854.755.464a27.853,27.853,0,0,0,6.794-5.022,6.208,6.208,0,0,0,1.835-4.3" transform="translate(4.719 4.054)" fill="#9a2327"/>
</svg>
