<svg id="Component_9_1" data-name="Component 9 – 1" xmlns="http://www.w3.org/2000/svg" width="26" height="34" viewBox="0 0 26 34">
  <rect id="Rectangle_165" data-name="Rectangle 165" width="26" height="34" fill="none"/>
  <path id="Icon_awesome-instagram" data-name="Icon awesome-instagram" d="M7.561,5.922A3.878,3.878,0,1,0,11.439,9.8,3.872,3.872,0,0,0,7.561,5.922Zm0,6.4A2.521,2.521,0,1,1,10.082,9.8a2.526,2.526,0,0,1-2.521,2.521ZM12.5,5.764a.9.9,0,1,1-.9-.9A.9.9,0,0,1,12.5,5.764Zm2.568.918a4.476,4.476,0,0,0-1.222-3.169,4.506,4.506,0,0,0-3.169-1.222c-1.249-.071-4.992-.071-6.241,0A4.5,4.5,0,0,0,1.27,3.509,4.491,4.491,0,0,0,.048,6.678c-.071,1.249-.071,4.992,0,6.24A4.476,4.476,0,0,0,1.27,16.088,4.512,4.512,0,0,0,4.439,17.31c1.249.071,4.992.071,6.241,0a4.476,4.476,0,0,0,3.169-1.222,4.506,4.506,0,0,0,1.222-3.169c.071-1.249.071-4.988,0-6.237Zm-1.613,7.577A2.552,2.552,0,0,1,12.019,15.7a16.67,16.67,0,0,1-4.459.3A16.8,16.8,0,0,1,3.1,15.7a2.552,2.552,0,0,1-1.438-1.438,16.669,16.669,0,0,1-.3-4.458,16.8,16.8,0,0,1,.3-4.458A2.552,2.552,0,0,1,3.1,3.9a16.67,16.67,0,0,1,4.459-.3,16.8,16.8,0,0,1,4.459.3,2.552,2.552,0,0,1,1.438,1.438,16.669,16.669,0,0,1,.3,4.458A16.659,16.659,0,0,1,13.457,14.259Z" transform="translate(5.724 3.34)" fill="#9a2327"/>
  <text id="TOMA" transform="translate(4.719 31.939)" fill="#9a2327" font-size="6" font-family="YuGothic-Regular, Yu Gothic"><tspan x="0" y="0">TOMA</tspan></text>
</svg>
