<svg xmlns="http://www.w3.org/2000/svg" width="12.105" height="12.104" viewBox="0 0 12.105 12.104">
  <g id="earth01" transform="translate(0 -0.022)">
    <g id="Group_89" data-name="Group 89" transform="translate(0 0.022)">
      <path id="Path_109" data-name="Path 109" d="M6.045.022A6.061,6.061,0,0,0,5.4.057,5.713,5.713,0,0,0,4.81.15L4.7.175A6.053,6.053,0,0,0,1.712,1.847q-.113.116-.222.24a6.059,6.059,0,0,0,8.889,8.229q.114-.116.222-.24A6.059,6.059,0,0,0,6.045.022ZM1.981,2.15c.032-.033.065-.065.1-.1s.075-.074.113-.11.068-.062.1-.093.078-.069.118-.1.071-.058.107-.087.081-.065.122-.1.074-.055.112-.081.084-.061.126-.088L3,1.321c.043-.028.087-.055.13-.081l.119-.069L3.381,1.1,3.5,1.032,3.641.965,3.765.908,3.909.848,4.034.8,4.182.744,4.309.7,4.461.655,4.589.618,4.638.607A5.012,5.012,0,0,0,3.347,2.7,6.784,6.784,0,0,1,1.963,2.17Zm-.29.325a7.018,7.018,0,0,0,1.533.61,10.481,10.481,0,0,0-.408,2.794H.394A5.643,5.643,0,0,1,1.691,2.475Zm0,7.213a5.644,5.644,0,0,1-1.3-3.4H2.816a10.48,10.48,0,0,0,.408,2.794A7.022,7.022,0,0,0,1.691,9.688Zm2.9,1.857c-.041-.01-.083-.024-.125-.036s-.1-.03-.153-.046l-.127-.043c-.05-.017-.1-.035-.148-.054l-.125-.05-.144-.061L3.642,11.2,3.5,11.131c-.04-.02-.081-.04-.121-.062l-.136-.075c-.04-.022-.079-.045-.118-.069s-.088-.054-.132-.082l-.115-.075c-.043-.029-.086-.059-.128-.09s-.074-.053-.11-.081-.083-.064-.124-.1l-.106-.086c-.04-.034-.079-.068-.119-.1s-.069-.061-.1-.092-.076-.073-.114-.11-.066-.064-.1-.1l-.017-.019a6.779,6.779,0,0,1,1.384-.533,5.013,5.013,0,0,0,1.291,2.1Zm1.255.176c-.864-.123-1.622-1.025-2.1-2.357a10.264,10.264,0,0,1,2.1-.247v2.6Zm0-3.008a10.637,10.637,0,0,0-2.225.265,10.1,10.1,0,0,1-.4-2.7H5.843v2.43Zm0-2.834H3.22a10.1,10.1,0,0,1,.4-2.7,10.64,10.64,0,0,0,2.225.265Zm0-2.834a10.254,10.254,0,0,1-2.1-.247C4.221,1.467,4.979.565,5.843.442v2.6ZM10.4,2.475a5.644,5.644,0,0,1,1.3,3.4H9.274a10.48,10.48,0,0,0-.408-2.794A7.025,7.025,0,0,0,10.4,2.475ZM7.5.617c.042.011.085.024.127.036s.1.03.153.046l.127.043c.05.017.1.035.148.054l.125.05.144.061.123.056.141.068c.04.02.081.04.121.062l.136.075c.04.022.079.045.118.069s.088.054.132.082l.115.075c.043.029.085.059.128.089l.111.081c.042.031.082.064.123.1s.071.057.106.086.079.068.119.1.069.061.1.092.076.073.114.11.066.064.1.1l.017.019A6.779,6.779,0,0,1,8.744,2.7,5.013,5.013,0,0,0,7.451.605ZM6.247.442c.864.123,1.622,1.025,2.1,2.357a10.264,10.264,0,0,1-2.1.247Zm0,3.008a10.637,10.637,0,0,0,2.225-.265,10.1,10.1,0,0,1,.4,2.7H6.247Zm0,2.834H8.87a10.1,10.1,0,0,1-.4,2.7h0a10.64,10.64,0,0,0-2.225-.265Zm0,5.438v-2.6a10.254,10.254,0,0,1,2.1.247C7.869,10.7,7.111,11.6,6.247,11.721Zm3.862-1.708c-.032.033-.065.065-.1.1s-.075.074-.114.11-.068.061-.1.092-.078.069-.118.1L9.57,10.5c-.04.032-.081.065-.122.1s-.074.055-.112.081-.084.061-.126.088l-.116.076q-.065.042-.131.081l-.119.069-.135.075-.121.063-.139.068-.124.057-.144.061-.125.05c-.049.019-.1.036-.148.054l-.127.043c-.05.016-.1.031-.152.046l-.127.037-.049.012a5.012,5.012,0,0,0,1.291-2.1,6.784,6.784,0,0,1,1.384.533Zm.29-.325a7.018,7.018,0,0,0-1.533-.61,10.481,10.481,0,0,0,.408-2.794H11.7A5.643,5.643,0,0,1,10.4,9.688Z" transform="translate(0 -0.022)" fill="#9a2327"/>
    </g>
  </g>
</svg>
