<svg id="レイヤー_1" data-name="レイヤー 1" xmlns="http://www.w3.org/2000/svg" width="107.868" height="81.128" viewBox="0 0 107.868 81.128">
  <g id="Group_189" data-name="Group 189" transform="translate(3.496 70.625)">
    <path id="Path_3319" data-name="Path 3319" d="M9.744,59.311H8.388L3.926,52.724a3.582,3.582,0,0,1-.308-.545H3.591a10.444,10.444,0,0,1,.042,1.189v5.944H2.5V50.85H3.94L8.29,57.311a5.807,5.807,0,0,1,.364.587h.028a8.5,8.5,0,0,1-.056-1.231V50.85H9.758v8.461Z" transform="translate(-2.5 -50.361)" fill="#b01e2e"/>
    <path id="Path_3320" data-name="Path 3320" d="M11.853,51.773H11v6.615h.853v.923H9v-.923h.853V51.773H9V50.85h2.853Z" transform="translate(0.09 -50.361)" fill="#b01e2e"/>
    <path id="Path_3321" data-name="Path 3321" d="M18.617,59.005a5.548,5.548,0,0,1-2.461.489,4.09,4.09,0,0,1-3.049-1.161,4.191,4.191,0,0,1-1.147-3.063,4.382,4.382,0,0,1,1.287-3.287,4.507,4.507,0,0,1,3.259-1.245,5.3,5.3,0,0,1,2.1.35v1.147a4.387,4.387,0,0,0-2.1-.5,3.235,3.235,0,0,0-2.419.937,3.443,3.443,0,0,0-.937,2.545,3.226,3.226,0,0,0,.867,2.405,3.065,3.065,0,0,0,2.28.9,4.465,4.465,0,0,0,2.294-.573v1.049Z" transform="translate(1.27 -50.404)" fill="#b01e2e"/>
    <path id="Path_3322" data-name="Path 3322" d="M25.087,59.311H23.94V55.493h-4.5v3.818H18.29V50.85h1.147v3.678h4.5V50.85h1.147Z" transform="translate(3.793 -50.361)" fill="#b01e2e"/>
    <path id="Path_3323" data-name="Path 3323" d="M27.313,51.773H26.46v6.615h.853v.923H24.46v-.923h.853V51.773H24.46V50.85h2.853Z" transform="translate(6.251 -50.361)" fill="#b01e2e"/>
    <path id="Path_3324" data-name="Path 3324" d="M27.43,55.225a4.529,4.529,0,0,1,1.161-3.259,4.182,4.182,0,0,1,3.161-1.217,3.909,3.909,0,0,1,2.979,1.189,4.3,4.3,0,0,1,1.133,3.091A4.564,4.564,0,0,1,34.7,58.3a4.056,4.056,0,0,1-3.091,1.2,3.951,3.951,0,0,1-3.035-1.189,4.3,4.3,0,0,1-1.147-3.091Zm1.2-.084a3.586,3.586,0,0,0,.825,2.461,2.733,2.733,0,0,0,2.154.923,2.9,2.9,0,0,0,2.238-.881,3.512,3.512,0,0,0,.811-2.489,3.712,3.712,0,0,0-.8-2.531,2.8,2.8,0,0,0-2.182-.9,2.766,2.766,0,0,0-2.2.937,3.575,3.575,0,0,0-.839,2.461Z" transform="translate(7.435 -50.4)" fill="#b01e2e"/>
    <path id="Path_3325" data-name="Path 3325" d="M41.585,55.871c0,2.391-1.133,3.594-3.412,3.594S34.9,58.3,34.9,56V50.85h1.147v5.091c0,1.692.741,2.545,2.238,2.545s2.168-.825,2.168-2.461V50.85H41.6v5.021Z" transform="translate(10.412 -50.361)" fill="#b01e2e"/>
    <path id="Path_3326" data-name="Path 3326" d="M50.567,59.005a5.548,5.548,0,0,1-2.461.489,4.09,4.09,0,0,1-3.049-1.161,4.191,4.191,0,0,1-1.147-3.063A4.382,4.382,0,0,1,45.2,51.985a4.507,4.507,0,0,1,3.259-1.245,5.3,5.3,0,0,1,2.1.35v1.147a4.387,4.387,0,0,0-2.1-.5,3.256,3.256,0,0,0-2.419.937,3.443,3.443,0,0,0-.937,2.545,3.226,3.226,0,0,0,.867,2.405,3.034,3.034,0,0,0,2.28.9,4.465,4.465,0,0,0,2.294-.573v1.049Z" transform="translate(14.003 -50.404)" fill="#b01e2e"/>
    <path id="Path_3327" data-name="Path 3327" d="M49.83,55.711a3.165,3.165,0,0,1,.881-2.363,3.269,3.269,0,0,1,2.377-.867,2.911,2.911,0,0,1,2.238.839,3.161,3.161,0,0,1,.811,2.308,3,3,0,0,1-3.189,3.189,2.994,2.994,0,0,1-2.266-.853,3.026,3.026,0,0,1-.853-2.252Zm1.147-.028a2.315,2.315,0,0,0,.559,1.65,1.9,1.9,0,0,0,1.482.6,1.867,1.867,0,0,0,1.468-.587,3.1,3.1,0,0,0,0-3.384,1.828,1.828,0,0,0-1.468-.587,1.9,1.9,0,0,0-1.5.615,2.462,2.462,0,0,0-.545,1.692Z" transform="translate(16.362 -49.711)" fill="#b01e2e"/>
    <path id="Path_3328" data-name="Path 3328" d="M55.54,56.7a.687.687,0,0,1,.21-.5.717.717,0,0,1,.531-.2.728.728,0,0,1,.531.21.676.676,0,0,1,0,.979.738.738,0,0,1-.545.21.717.717,0,0,1-.727-.7Z" transform="translate(18.637 -48.308)" fill="#b01e2e"/>
    <path id="Path_3329" data-name="Path 3329" d="M59.33,55.93l-.979,2.909H57.54l.713-2.909h1.091Z" transform="translate(19.434 -48.336)" fill="#b01e2e"/>
    <path id="Path_3330" data-name="Path 3330" d="M65.185,59.311H60.5V50.85h1.147v7.5h3.538Z" transform="translate(20.614 -50.361)" fill="#b01e2e"/>
    <path id="Path_3331" data-name="Path 3331" d="M68.13,59.076a2.2,2.2,0,0,1-.993.2c-1.133,0-1.706-.6-1.706-1.8v-3.5H64.34V53.09h1.091V51.636L66.55,51.3v1.79h1.58v.881H66.55v3.3a1.363,1.363,0,0,0,.21.853.87.87,0,0,0,.7.252,1.14,1.14,0,0,0,.657-.2v.9Z" transform="translate(22.144 -50.181)" fill="#b01e2e"/>
    <path id="Path_3332" data-name="Path 3332" d="M73.8,59.451H72.681V58.444h-.028A2.323,2.323,0,0,1,70.5,59.59a2.415,2.415,0,0,1-1.916-.811,3.254,3.254,0,0,1-.713-2.21,3.517,3.517,0,0,1,.8-2.405,2.67,2.67,0,0,1,2.1-.909,2.006,2.006,0,0,1,1.874.965h.028V50.5h1.119v8.937Zm-1.119-3.594a1.614,1.614,0,0,0-.5-1.217,1.835,1.835,0,0,0-2.643.154,2.67,2.67,0,0,0-.517,1.734,2.439,2.439,0,0,0,.489,1.594,1.651,1.651,0,0,0,1.329.587,1.7,1.7,0,0,0,1.329-.573,2.048,2.048,0,0,0,.517-1.44v-.839Z" transform="translate(23.551 -50.5)" fill="#b01e2e"/>
    <path id="Path_3333" data-name="Path 3333" d="M73.61,56.7a.687.687,0,0,1,.21-.5.717.717,0,0,1,.531-.2.728.728,0,0,1,.531.21.676.676,0,0,1,0,.979.738.738,0,0,1-.545.21.717.717,0,0,1-.727-.7Z" transform="translate(25.838 -48.308)" fill="#b01e2e"/>
  </g>
  <g id="Group_190" data-name="Group 190">
    <path id="Path_3334" data-name="Path 3334" d="M6.17,28.123H50.013V4.74C27.134,5.16,8.506,15.243,6.17,28.123Z" transform="translate(2.459 1.889)" fill="#ad1e2d"/>
    <path id="Path_3335" data-name="Path 3335" d="M50,48.743V25.36H6.17C8.506,38.24,27.12,48.324,50.013,48.743Z" transform="translate(2.459 10.106)" fill="#ad1e2d"/>
    <path id="Path_3336" data-name="Path 3336" d="M39.61,4.74V28.123H83.453C81.132,15.257,62.5,5.16,39.61,4.74Z" transform="translate(15.785 1.889)" fill="#ad1e2d"/>
    <path id="Path_3337" data-name="Path 3337" d="M53.927,0C24.138,0,0,14.656,0,32.739S24.138,65.479,53.927,65.479s53.941-14.67,53.941-32.739S83.715,0,53.927,0Zm0,62.863c-27.97,0-50.654-13.482-50.654-30.11S25.956,2.629,53.927,2.629s50.654,13.5,50.654,30.11-22.67,30.11-50.654,30.11Z" fill="#ad1e2d"/>
    <path id="Path_3338" data-name="Path 3338" d="M39.61,25.36V48.743c22.894-.42,41.508-10.5,43.843-23.383H39.61Z" transform="translate(15.785 10.106)" fill="#ad1e2d"/>
  </g>
</svg>
