<svg xmlns="http://www.w3.org/2000/svg" width="351.24" height="73.152" viewBox="0 0 351.24 73.152">
  <g id="Group_56" data-name="Group 56" transform="translate(-2244.6 -517)">
    <path id="Icon_awesome-phone-alt" data-name="Icon awesome-phone-alt" d="M34.973,25.439,27.1,22.064a1.687,1.687,0,0,0-1.969.485L21.641,26.81A26.062,26.062,0,0,1,9.183,14.351l4.261-3.488A1.683,1.683,0,0,0,13.929,8.9L10.554,1.02A1.7,1.7,0,0,0,8.62.043L1.308,1.73A1.688,1.688,0,0,0,0,3.375,32.621,32.621,0,0,0,32.625,36a1.687,1.687,0,0,0,1.645-1.308l1.687-7.313a1.708,1.708,0,0,0-.985-1.941Z" transform="translate(2244.6 517)" fill="#08406a"/>
    <path id="Path_353" data-name="Path 353" d="M-148.92-15q0-6.88,2.66-10.84t8.58-3.96q5.92,0,8.58,3.96T-126.44-15q0,6.96-2.66,10.92t-8.58,3.96q-5.92,0-8.58-3.96T-148.92-15Zm15.76,0a17.253,17.253,0,0,0-.88-6.22,3.52,3.52,0,0,0-3.64-2.18,3.52,3.52,0,0,0-3.64,2.18A17.253,17.253,0,0,0-142.2-15a26.15,26.15,0,0,0,.32,4.5,5.758,5.758,0,0,0,1.3,2.88,3.682,3.682,0,0,0,2.9,1.1,3.682,3.682,0,0,0,2.9-1.1,5.758,5.758,0,0,0,1.3-2.88A26.15,26.15,0,0,0-133.16-15Zm10.56-5.96a8.785,8.785,0,0,1,2.8-6.6,10.465,10.465,0,0,1,7.16-2.32,11.663,11.663,0,0,1,5.14,1.04A7.533,7.533,0,0,1-104.26-26a7.593,7.593,0,0,1,1.1,4.04,6.7,6.7,0,0,1-1.32,4.3,6.676,6.676,0,0,1-3.08,2.26v.16a7.216,7.216,0,0,1,3.6,2.52,7.331,7.331,0,0,1,1.32,4.52,8.347,8.347,0,0,1-1.14,4.38A7.784,7.784,0,0,1-107.1-.84,11.551,11.551,0,0,1-112.28.24a11.662,11.662,0,0,1-7.66-2.36q-2.86-2.36-3.02-7.12h6.64a4.034,4.034,0,0,0,1,2.78,3.662,3.662,0,0,0,2.8,1.02,3.188,3.188,0,0,0,2.42-.9,3.3,3.3,0,0,0,.86-2.38,3.163,3.163,0,0,0-1.22-2.78,6.894,6.894,0,0,0-3.9-.86h-1.28v-5.56h1.28a6.772,6.772,0,0,0,3.3-.7,2.61,2.61,0,0,0,1.26-2.5,3.028,3.028,0,0,0-.8-2.24,2.973,2.973,0,0,0-2.2-.8,2.727,2.727,0,0,0-2.26.92,4.123,4.123,0,0,0-.86,2.28Zm41.84,4.08v5.68h-17.6v-5.68ZM-61-21.32a4.122,4.122,0,0,0-1.12-2.22,3.236,3.236,0,0,0-2.28-.74,3.409,3.409,0,0,0-3.28,1.98,14.962,14.962,0,0,0-1.04,6.26,5.971,5.971,0,0,1,2.54-2.2,8.319,8.319,0,0,1,3.66-.8,8.329,8.329,0,0,1,6.3,2.48,9.585,9.585,0,0,1,2.38,6.92,10.671,10.671,0,0,1-1.18,5.12,8.383,8.383,0,0,1-3.44,3.44A10.935,10.935,0,0,1-63.8.16q-6.16,0-8.56-3.86t-2.4-11.1q0-7.6,2.54-11.3t8.14-3.7a10.039,10.039,0,0,1,5.06,1.18,8.015,8.015,0,0,1,3.12,3.1,10.484,10.484,0,0,1,1.26,4.2Zm-3.16,7.68a4.13,4.13,0,0,0-2.86,1.02,3.689,3.689,0,0,0-1.14,2.9,4.1,4.1,0,0,0,1.06,3,4.041,4.041,0,0,0,3.02,1.08A3.677,3.677,0,0,0-61.3-6.7a4.008,4.008,0,0,0,1.02-2.9,4.188,4.188,0,0,0-1-2.96A3.731,3.731,0,0,0-64.16-13.64Zm14.44-7.32a8.785,8.785,0,0,1,2.8-6.6,10.465,10.465,0,0,1,7.16-2.32,11.663,11.663,0,0,1,5.14,1.04A7.533,7.533,0,0,1-31.38-26a7.593,7.593,0,0,1,1.1,4.04,6.7,6.7,0,0,1-1.32,4.3,6.676,6.676,0,0,1-3.08,2.26v.16a7.216,7.216,0,0,1,3.6,2.52A7.331,7.331,0,0,1-29.76-8.2,8.347,8.347,0,0,1-30.9-3.82,7.784,7.784,0,0,1-34.22-.84,11.551,11.551,0,0,1-39.4.24a11.662,11.662,0,0,1-7.66-2.36q-2.86-2.36-3.02-7.12h6.64a4.034,4.034,0,0,0,1,2.78,3.662,3.662,0,0,0,2.8,1.02,3.188,3.188,0,0,0,2.42-.9,3.3,3.3,0,0,0,.86-2.38,3.163,3.163,0,0,0-1.22-2.78,6.894,6.894,0,0,0-3.9-.86h-1.28v-5.56h1.28a6.772,6.772,0,0,0,3.3-.7,2.61,2.61,0,0,0,1.26-2.5,3.028,3.028,0,0,0-.8-2.24,2.973,2.973,0,0,0-2.2-.8,2.727,2.727,0,0,0-2.26.92,4.123,4.123,0,0,0-.86,2.28Zm28.76,5.28a6.642,6.642,0,0,1-3.76-6.28A7.249,7.249,0,0,1-23.6-25.9a7.715,7.715,0,0,1,3.4-2.84,13.239,13.239,0,0,1,5.6-1.06,13.1,13.1,0,0,1,5.58,1.06A7.731,7.731,0,0,1-5.64-25.9a7.249,7.249,0,0,1,1.12,3.94A6.843,6.843,0,0,1-5.54-18.2a7.233,7.233,0,0,1-2.74,2.52,7.87,7.87,0,0,1,3.32,2.86A7.754,7.754,0,0,1-3.8-8.56a8.335,8.335,0,0,1-1.44,4.9A9.107,9.107,0,0,1-9.14-.52,13.439,13.439,0,0,1-14.6.56,13.439,13.439,0,0,1-20.06-.52a9.107,9.107,0,0,1-3.9-3.14,8.335,8.335,0,0,1-1.44-4.9,7.828,7.828,0,0,1,1.16-4.3A7.651,7.651,0,0,1-20.96-15.68Zm9.8-5.24a3.35,3.35,0,0,0-.94-2.54,3.464,3.464,0,0,0-2.5-.9,3.42,3.42,0,0,0-2.5.92,3.418,3.418,0,0,0-.94,2.56,3.209,3.209,0,0,0,.96,2.46,3.48,3.48,0,0,0,2.48.9,3.436,3.436,0,0,0,2.48-.92A3.274,3.274,0,0,0-11.16-20.92Zm-3.44,8.2a4.435,4.435,0,0,0-3.04,1.02A3.559,3.559,0,0,0-18.8-8.88a3.635,3.635,0,0,0,1.14,2.76A4.267,4.267,0,0,0-14.6-5.04a4.125,4.125,0,0,0,3.02-1.08,3.7,3.7,0,0,0,1.1-2.76,3.6,3.6,0,0,0-1.14-2.8A4.25,4.25,0,0,0-14.6-12.72ZM.32-5.2v-5.52L12.96-28.8H20.6v17.68h3.28V-5.2H20.6V0H13.76V-5.2ZM14.24-21.28,7.52-11.12h6.72Zm30.88,4.4v5.68H27.52v-5.68ZM50.44-15q0-6.88,2.66-10.84t8.58-3.96q5.92,0,8.58,3.96T72.92-15q0,6.96-2.66,10.92T61.68-.12q-5.92,0-8.58-3.96T50.44-15ZM66.2-15a17.253,17.253,0,0,0-.88-6.22,3.52,3.52,0,0,0-3.64-2.18,3.52,3.52,0,0,0-3.64,2.18A17.253,17.253,0,0,0,57.16-15a26.15,26.15,0,0,0,.32,4.5,5.758,5.758,0,0,0,1.3,2.88,3.682,3.682,0,0,0,2.9,1.1,3.682,3.682,0,0,0,2.9-1.1,5.758,5.758,0,0,0,1.3-2.88A26.151,26.151,0,0,0,66.2-15Zm10.32,0q0-6.88,2.66-10.84t8.58-3.96q5.92,0,8.58,3.96T99-15q0,6.96-2.66,10.92T87.76-.12q-5.92,0-8.58-3.96T76.52-15Zm15.76,0a17.253,17.253,0,0,0-.88-6.22,3.52,3.52,0,0,0-3.64-2.18,3.52,3.52,0,0,0-3.64,2.18A17.253,17.253,0,0,0,83.24-15a26.151,26.151,0,0,0,.32,4.5,5.758,5.758,0,0,0,1.3,2.88,3.682,3.682,0,0,0,2.9,1.1,3.682,3.682,0,0,0,2.9-1.1,5.758,5.758,0,0,0,1.3-2.88A26.151,26.151,0,0,0,92.28-15Zm10.08,9.52q1.36-1.08,1.24-1,3.92-3.24,6.18-5.32a25.586,25.586,0,0,0,3.82-4.36,7.879,7.879,0,0,0,1.56-4.44,3.908,3.908,0,0,0-.76-2.56,2.786,2.786,0,0,0-2.28-.92,2.815,2.815,0,0,0-2.38,1.14,5.256,5.256,0,0,0-.86,3.22h-6.6a11.329,11.329,0,0,1,1.46-5.68,8.48,8.48,0,0,1,3.64-3.36,11.493,11.493,0,0,1,5.02-1.08q4.76,0,7.18,2.44A8.641,8.641,0,0,1,122-21.04a12.474,12.474,0,0,1-2.92,7.94,43,43,0,0,1-7.44,7.14h10.8V-.4H102.36Zm23.24.28v-5.52L138.24-28.8h7.64v17.68h3.28V-5.2h-3.28V0h-6.84V-5.2Zm13.92-16.08L132.8-11.12h6.72Z" transform="translate(2441.6 551)" fill="#08406a"/>
    <path id="Path_352" data-name="Path 352" d="M-164.312-.432h-8.5V-2.608h8.5ZM-171.7-7.7h6.16v1.84h-6.16Zm7.312,2.768v-3.7h-8.432v3.7h3.264c-.1.416-.24.88-.352,1.28h-4.016v4.88h1.12V.624h8.5v.592h1.168V-3.648h-5.632c.176-.4.352-.832.512-1.28Zm-.144-5.936a24.772,24.772,0,0,0,1.552-1.968l-1.232-.416a15.423,15.423,0,0,1-1.632,2.384h-2.912l.784-.3a10.623,10.623,0,0,0-1.248-2.24l-1.04.352a11.881,11.881,0,0,1,1.184,2.192h-3.12l.48-.224a9.943,9.943,0,0,0-1.488-2.08l-1.008.448a13.033,13.033,0,0,1,1.3,1.856h-2.256v3.12h1.1v-2.1h10.912v2.1h1.136v-3.12Zm14.224,1.328a14.626,14.626,0,0,1-.816,1.664l.16.048h-3.76l.512-.112a6.778,6.778,0,0,0-.8-1.6Zm4.592,6.96V-3.584h-6.416V-4.768h5.008V-5.68h-5.008V-6.848h5.792v-.976h-3.632c.32-.48.672-1.1.992-1.712h3.2V-10.56h-2.48a22.373,22.373,0,0,0,1.408-2.3l-1.216-.32a18.151,18.151,0,0,1-1.216,2.432l.592.192h-1.936v-2.832h-1.12v2.832h-1.9v-2.832h-1.1v2.832h-1.968l.816-.3a11.028,11.028,0,0,0-1.36-2.352l-1.008.336a12.472,12.472,0,0,1,1.264,2.32h-2.544v1.024h3.9l-.56.112a6.718,6.718,0,0,1,.784,1.6h-3.488v.976h5.616V-5.68h-4.816v.912h4.816v1.184h-6.32v1.008h5.232A15.42,15.42,0,0,1-160.04-.048,5.1,5.1,0,0,1-159.272.96,16.079,16.079,0,0,0-153.3-2.192V1.216h1.168V-2.272a15.1,15.1,0,0,0,6.016,3.28,4.278,4.278,0,0,1,.8-1.056,14.639,14.639,0,0,1-5.712-2.528Zm5.712-8.688v3.552h-2.32v-3.552Zm-2.32,8.288v-3.7h2.32v3.7Zm3.44-9.36h-4.528V-.608h1.088V-1.9h3.44Zm1.312,8.96A12.341,12.341,0,0,1-135.544-.56l1.008-.64a11.312,11.312,0,0,0-2.08-2.72Zm8.256-3.968V-8.4h-4.128v-2.032h3.44v-1.056h-3.44v-1.9h-1.168v1.9h-3.328v1.056h3.328V-8.4h-4.016v1.056h6.128v1.808h-6.048V-4.48h6.048V-.208c0,.24-.08.3-.352.32-.256.016-1.136.016-2.128-.016a3.633,3.633,0,0,1,.384,1.1,9.154,9.154,0,0,0,2.592-.192c.48-.176.656-.528.656-1.2V-4.48h1.856V-5.536h-1.856V-7.344Zm6.752-4.432v1.328h-3.456v-1.328Zm-3.456,3.616V-9.568h3.456V-8.16Zm4.592.912V-12.7h-5.776V1.232h1.184v-8.48Zm2.576,2.128v1.472h-3.76V-5.12Zm-3.76,3.92V-2.752h3.76V-1.2Zm4.864.944V-6.048h-5.936V.544h1.072v-.8Zm-1.12-7.888V-9.568h3.584v1.424Zm3.584-3.632v1.328h-3.584v-1.328Zm1.2-.928h-5.92v5.472h4.72V-.368c0,.288-.1.384-.368.384-.288.016-1.264.032-2.24-.016a4.383,4.383,0,0,1,.416,1.216,9.107,9.107,0,0,0,2.688-.208c.528-.208.7-.608.7-1.36Zm19.472,4.56c0-1.6.864-2.656,1.984-2.656,1.5,0,2.4,1.28,2.56,3.7A3.074,3.074,0,0,1-92.52-5.536C-93.912-5.536-94.616-6.56-94.616-8.144ZM-92.952.208c2.208,0,4.256-1.824,4.256-6.576,0-3.728-1.68-5.584-3.936-5.584a3.522,3.522,0,0,0-3.36,3.808c0,2.432,1.28,3.7,3.232,3.7a3.649,3.649,0,0,0,2.7-1.44c-.112,3.632-1.424,4.88-2.944,4.88a2.587,2.587,0,0,1-1.952-.9l-.816.912A3.732,3.732,0,0,0-92.952.208Zm7.36-6.448a1.066,1.066,0,0,0,1.056-1.1A1.075,1.075,0,0,0-85.592-8.48a1.075,1.075,0,0,0-1.056,1.136A1.066,1.066,0,0,0-85.592-6.24Zm0,6.448A1.057,1.057,0,0,0-84.536-.9a1.075,1.075,0,0,0-1.056-1.136A1.075,1.075,0,0,0-86.648-.9,1.057,1.057,0,0,0-85.592.208Zm6.448,0c2.08,0,3.76-1.248,3.76-3.344a3.017,3.017,0,0,0-2.48-2.976v-.064a2.929,2.929,0,0,0,2.08-2.832c0-1.856-1.44-2.944-3.408-2.944a4.7,4.7,0,0,0-3.28,1.408l.784.928a3.424,3.424,0,0,1,2.432-1.136A1.8,1.8,0,0,1-77.272-8.9c0,1.264-.832,2.24-3.248,2.24v1.12c2.7,0,3.648.944,3.648,2.336a2.163,2.163,0,0,1-2.384,2.192,3.877,3.877,0,0,1-2.912-1.344l-.736.96A4.855,4.855,0,0,0-79.144.208Zm9.1,0c2.224,0,3.648-2.032,3.648-6.112,0-4.064-1.424-6.048-3.648-6.048-2.24,0-3.664,1.968-3.664,6.048S-72.28.208-70.04.208Zm0-1.168c-1.344,0-2.24-1.488-2.24-4.944,0-3.424.9-4.88,2.24-4.88,1.328,0,2.224,1.456,2.224,4.88C-67.816-2.448-68.712-.96-70.04-.96Zm11.984-4.672a4.8,4.8,0,0,0,3.6,1.712,4.779,4.779,0,0,0,4.176-2.8l-1.136-.608A3.53,3.53,0,0,1-54.44-5.216a3.694,3.694,0,0,1-2.72-1.312,4.8,4.8,0,0,0-3.6-1.712,4.779,4.779,0,0,0-4.176,2.8l1.136.608a3.53,3.53,0,0,1,3.024-2.112A3.667,3.667,0,0,1-58.056-5.632ZM-48.2,0h6.432V-1.216H-44.12V-11.744h-1.12a7.065,7.065,0,0,1-2.432.848v.928h2.08v8.752H-48.2Zm12.16-6.192c1.424,0,2.128,1.008,2.128,2.592,0,1.6-.88,2.672-2,2.672-1.472,0-2.352-1.328-2.528-3.76A3.032,3.032,0,0,1-36.04-6.192Zm.128,6.4A3.522,3.522,0,0,0-32.552-3.6c0-2.448-1.264-3.68-3.248-3.68a3.648,3.648,0,0,0-2.672,1.424c.064-3.648,1.424-4.88,3.024-4.88a2.48,2.48,0,0,1,1.888.9l.8-.912a3.6,3.6,0,0,0-2.736-1.2c-2.272,0-4.336,1.76-4.336,6.352C-39.832-1.728-38.168.208-35.912.208Zm6.288-6.448a1.066,1.066,0,0,0,1.056-1.1A1.075,1.075,0,0,0-29.624-8.48,1.075,1.075,0,0,0-30.68-7.344,1.066,1.066,0,0,0-29.624-6.24Zm0,6.448A1.057,1.057,0,0,0-28.568-.9a1.075,1.075,0,0,0-1.056-1.136A1.075,1.075,0,0,0-30.68-.9,1.057,1.057,0,0,0-29.624.208Zm6.448,0c2.08,0,3.76-1.248,3.76-3.344A3.017,3.017,0,0,0-21.9-6.112v-.064a2.929,2.929,0,0,0,2.08-2.832c0-1.856-1.44-2.944-3.408-2.944a4.7,4.7,0,0,0-3.28,1.408l.784.928a3.424,3.424,0,0,1,2.432-1.136A1.8,1.8,0,0,1-21.3-8.9c0,1.264-.832,2.24-3.248,2.24v1.12c2.7,0,3.648.944,3.648,2.336a2.163,2.163,0,0,1-2.384,2.192A3.877,3.877,0,0,1-26.2-2.352l-.736.96A4.855,4.855,0,0,0-23.176.208Zm9.1,0c2.224,0,3.648-2.032,3.648-6.112,0-4.064-1.424-6.048-3.648-6.048-2.24,0-3.664,1.968-3.664,6.048S-16.312.208-14.072.208Zm0-1.168c-1.344,0-2.24-1.488-2.24-4.944,0-3.424.9-4.88,2.24-4.88,1.328,0,2.224,1.456,2.224,4.88C-11.848-2.448-12.744-.96-14.072-.96Zm8.256,4.112L-4.9,2.72a14.749,14.749,0,0,1-2.048-7.7,14.79,14.79,0,0,1,2.048-7.7l-.912-.416A14.943,14.943,0,0,0-8.168-4.976,15,15,0,0,0-5.816,3.152ZM4.36-.64V-7.088H9.88V-8.256H4.36v-5.072H3.112v5.072h-5.44v1.168h5.44V-.64H-3.336V.528H10.9V-.64Zm11.488-.528V-5.632h7.936v4.464Zm7.936-9.952V-6.8H15.848v-4.32Zm-9.136-1.168V1.04h1.2V0h7.936V.976h1.248V-12.288ZM34.84-4.432C34.5-4.8,33.176-6.048,32.472-6.64a14.987,14.987,0,0,0,1.9-3.376l-.656-.432-.208.048H32.2v-2.976H31.032V-10.4h-2.32v1.088h4.176a13.88,13.88,0,0,1-4.752,5.248,5.337,5.337,0,0,1,.608,1.072,14.715,14.715,0,0,0,2.288-1.952v6.16H32.2V-5.568a24.6,24.6,0,0,1,1.9,2.1ZM36.1-11.248h5.184v4.032H36.1ZM40.824.128c-.352,0-.432-.08-.432-.56v-5.7h2.064V-12.32H34.968v6.192h1.568C36.392-2.976,35.992-.864,33.464.32a3.559,3.559,0,0,1,.768.944c2.752-1.408,3.3-3.84,3.472-7.392h1.568v5.7c0,1.184.24,1.536,1.36,1.536h1.392c.992,0,1.248-.608,1.344-2.832a3.264,3.264,0,0,1-.992-.448c-.048,1.952-.112,2.3-.48,2.3ZM50.9-1.92c0-.784.848-1.3,2.048-1.3a5.445,5.445,0,0,1,1.632.256c.016.208.016.4.016.56,0,1.056-.4,1.744-1.744,1.744C51.7-.656,50.9-1.1,50.9-1.92Zm4.848-10.4h-1.44c.032.272.064.7.064.976V-9.36c-.5.016-1.008.032-1.5.032-.96,0-1.808-.048-2.72-.128v1.2c.944.064,1.776.112,2.688.112.512,0,1.024-.016,1.536-.032.016,1.312.112,2.88.16,4.112a7.337,7.337,0,0,0-1.488-.144c-2.1,0-3.3,1.072-3.3,2.416C49.752-.352,50.936.5,53.08.5c2.16,0,2.768-1.264,2.768-2.576v-.336A13.016,13.016,0,0,1,58.264-.56l.7-1.072A10.546,10.546,0,0,0,55.8-3.7c-.064-1.344-.176-2.944-.192-4.56.96-.064,1.888-.16,2.768-.3V-9.792a27.017,27.017,0,0,1-2.768.368c.016-.752.032-1.5.048-1.936Q55.68-11.84,55.752-12.32Zm-7.9.1-1.408-.112a9.6,9.6,0,0,1-.1,1.136,47.607,47.607,0,0,0-.736,6.736A19.325,19.325,0,0,0,46.216.592l1.12-.08c-.016-.176-.032-.4-.032-.56a2.866,2.866,0,0,1,.064-.72c.16-.784.752-2.416,1.136-3.536l-.656-.512c-.272.656-.656,1.632-.912,2.352a15.009,15.009,0,0,1-.16-2.224,39.671,39.671,0,0,1,.8-6.448A8.32,8.32,0,0,1,47.848-12.224Zm16.64-1.056a16.442,16.442,0,0,1-4.336,6.416,6.809,6.809,0,0,1,.72,1.2A16.233,16.233,0,0,0,62.76-7.776V1.2h1.168V-9.488a23.769,23.769,0,0,0,1.744-3.424Zm10.48,5.1V-9.328H70.344v-3.84H69.176v3.84h-4.5v1.152h3.872A16.254,16.254,0,0,1,64.12-1.632a6.9,6.9,0,0,1,.9.912,17.865,17.865,0,0,0,4.16-6.16V1.232h1.168V-7.216A19.424,19.424,0,0,0,74.488-.784a4.262,4.262,0,0,1,.9-.96,16.882,16.882,0,0,1-4.352-6.432Zm4.88,7.008V-5.632h7.936v4.464Zm7.936-9.952V-6.8H79.848v-4.32Zm-9.136-1.168V1.04h1.2V0h7.936V.976h1.248V-12.288Zm18.048-.16-1.264.528a53.623,53.623,0,0,0,2.32,4.928c-1.712,1.2-2.768,2.5-2.768,4.144,0,2.4,2.176,3.3,5.184,3.3a31.5,31.5,0,0,0,5.056-.4V-1.376a23.807,23.807,0,0,1-5.12.544c-2.528,0-3.792-.832-3.792-2.16,0-1.216.9-2.272,2.384-3.232A53.153,53.153,0,0,1,103.56-8.88c.464-.24.864-.448,1.232-.672l-.7-1.136a8.739,8.739,0,0,1-1.136.752c-.88.48-2.608,1.328-4.112,2.24A34.456,34.456,0,0,1,96.7-12.448ZM114.5-12.7l-1.408-.128a13.272,13.272,0,0,1-.5,2.768c-.624.048-1.232.08-1.808.08a15.092,15.092,0,0,1-1.952-.112l.08,1.2c.608.032,1.28.048,1.872.048.464,0,.944-.016,1.424-.048a23.677,23.677,0,0,1-3.424,5.984l1.232.64a28.3,28.3,0,0,0,3.488-6.752,21.7,21.7,0,0,0,2.912-.592l-.032-1.2a15.463,15.463,0,0,1-2.512.592C114.136-11.152,114.36-12.128,114.5-12.7Zm-.88,11.1c0-.736.8-1.28,1.968-1.28a5.547,5.547,0,0,1,1.648.24c.016.272.016.512.016.72,0,.88-.448,1.584-1.776,1.584C114.232-.336,113.624-.848,113.624-1.6Zm4.656-6.16h-1.248c.032,1.136.112,2.72.176,4.032a7.14,7.14,0,0,0-1.568-.16c-1.808,0-3.2.928-3.2,2.4,0,1.584,1.44,2.3,3.2,2.3,1.984,0,2.8-1.04,2.8-2.32,0-.192,0-.416-.016-.672a11.959,11.959,0,0,1,2.592,1.84l.688-1.088a10.977,10.977,0,0,0-3.328-1.984c-.032-.992-.1-2.032-.112-2.624C118.248-6.608,118.248-7.1,118.28-7.76Zm3.2.432.72-1.056a24.168,24.168,0,0,0-3.728-2.128l-.656.976A18.736,18.736,0,0,1,121.48-7.328Zm7.232-5.3-1.408-.048c-.032.432-.064.9-.128,1.376a42.28,42.28,0,0,0-.5,5.168,19.484,19.484,0,0,0,.176,2.544l1.232-.1a7.457,7.457,0,0,1-.032-1.968c.192-2.1,2.048-5.008,4.048-5.008,1.68,0,2.544,1.824,2.544,4.352,0,4.016-2.72,5.44-6.192,5.952L129.208.8c3.968-.72,6.752-2.672,6.752-7.12,0-3.36-1.52-5.488-3.648-5.488-2.032,0-3.7,2-4.352,3.632A29.706,29.706,0,0,1,128.712-12.624ZM143.384-1.68c0-.736.832-1.328,2.352-1.328a7.1,7.1,0,0,1,1.552.16c0,.416.016.8.016,1.072,0,1.1-.784,1.392-1.7,1.392C144.024-.384,143.384-.944,143.384-1.68ZM148.456-12.7H147.1a8.782,8.782,0,0,1,.064.96v1.136h-.736a29.071,29.071,0,0,1-4.1-.352l.016,1.184c1.008.112,2.976.272,4.1.272h.7v2.24h-.864a29.6,29.6,0,0,1-4.032-.3l.016,1.2c1.152.128,2.912.224,4,.224h.912c.016.688.048,1.456.064,2.176a9.163,9.163,0,0,0-1.344-.1c-2.3,0-3.7.992-3.7,2.448,0,1.536,1.248,2.352,3.552,2.352,2.08,0,2.816-1.136,2.816-2.24,0-.256-.016-.592-.032-.992A11.8,11.8,0,0,1,152.408-.08l.736-1.136a12.733,12.733,0,0,0-4.672-2.5c-.032-.768-.08-1.632-.112-2.464,1.52-.048,2.928-.176,4.432-.368l.016-1.2a39.814,39.814,0,0,1-4.464.432v-2.24c1.536-.08,3.056-.224,4.32-.368l.016-1.168a39.783,39.783,0,0,1-4.336.432c0-.416.016-.768.016-.976A8.007,8.007,0,0,1,148.456-12.7Zm16.864.032h-1.456c.016.128.08.592.1,1.008.016.224.032.608.032,1.056-2.384.032-5.392.128-7.168.16l.032,1.232c2-.144,4.72-.256,7.152-.272.016.56.016,1.136.016,1.616a3.2,3.2,0,0,0-1.072-.176,2.793,2.793,0,0,0-2.816,2.784,2.547,2.547,0,0,0,2.624,2.672,2.254,2.254,0,0,0,1.392-.432c-.64,1.456-2.112,2.352-4.24,2.832L160.984.864c3.728-1.12,4.784-3.52,4.784-5.68a3.888,3.888,0,0,0-.512-2.048c-.016-.736-.032-1.728-.032-2.64h.224c2.336,0,3.792.032,4.688.08l.016-1.184c-.768,0-2.736-.016-4.688-.016h-.24c0-.432.016-.8.016-1.04C165.256-11.872,165.288-12.5,165.32-12.672ZM161.336-5.28a1.63,1.63,0,0,1,1.616-1.7,1.434,1.434,0,0,1,1.424,1.008c.144,1.52-.464,2.272-1.408,2.272A1.541,1.541,0,0,1,161.336-5.28Zm11.536,8.432a14.874,14.874,0,0,0,2.368-8.128,14.82,14.82,0,0,0-2.368-8.112l-.9.416a14.943,14.943,0,0,1,2.048,7.7,14.9,14.9,0,0,1-2.048,7.7Z" transform="translate(2420.6 587)" fill="#08406a"/>
  </g>
</svg>
