<svg xmlns="http://www.w3.org/2000/svg" width="274.119" height="72.365" viewBox="0 0 274.119 72.365">
  <g id="logo" transform="translate(0 -0.635)" style="isolation: isolate">
    <path id="Path_1" data-name="Path 1" d="M122.886,12a7.215,7.215,0,0,1-3.2,3.271l-.829-.907a7,7,0,0,0,2.248-1.717,4.591,4.591,0,0,0,1.061-2.161h-3.107V9.348h3.165V7.514h1.187V9.348h3.319v1.139h-3.184a6.465,6.465,0,0,0,3.406,3.927l-.9.868A7.823,7.823,0,0,1,122.886,12Z" fill="#001b47"/>
    <path id="Path_2" data-name="Path 2" d="M132.842,13.381l-.666.955a7.082,7.082,0,0,1-.887-1.187,5.947,5.947,0,0,1-1.4,2.219l-.8-.878a4.247,4.247,0,0,0,1.438-2.837h-1.2V10.621h1.225V9.714h-1.042V8.682h1.042V7.543h1.081V8.682h.965V9.714h-.965v.907h1.013v1.032h-1.032s-.01.087-.019.154A6.424,6.424,0,0,0,132.842,13.381Zm1.708-.695a4.531,4.531,0,0,1-.492,1.553,3.19,3.19,0,0,1-1.033,1.1l-.935-.675a3.061,3.061,0,0,0,1.022-.907,2.879,2.879,0,0,0,.444-1.264h-.637V7.678h4.014v4.815h-.974v1.476a.159.159,0,0,0,.183.183h.068a.215.215,0,0,0,.231-.164,7.264,7.264,0,0,0,.029-.917l.926.26a4.472,4.472,0,0,1-.154,1.5c-.116.232-.4.347-.849.347h-.733a1.127,1.127,0,0,1-.628-.116c-.1-.077-.144-.27-.144-.569v-2h-.975ZM135.833,9.1V8.643h-1.862V9.1Zm0,1.235V9.907h-1.862v.425Zm0,1.274v-.444h-1.862v.444Z" fill="#001b47"/>
    <path id="Path_3" data-name="Path 3" d="M140.533,12.136a13.322,13.322,0,0,1-.7,1.322L139.4,12.2a14.957,14.957,0,0,0,1.138-2.248V9.8h-.974V8.778h.974V7.437h1.052V8.778h.637V7.987h1.167V7.466h1.09v.521h.878V7.466h1.091v.521h1.158v.984h-1.158v.357h.762v2.788h-1.756c-.01.116-.029.232-.048.347h2.151V13.4h-1.679a3.543,3.543,0,0,0,.869.618,7.664,7.664,0,0,0,.984.367l-.55.984a7.436,7.436,0,0,1-1.264-.608,4.5,4.5,0,0,1-1.032-.955,3.712,3.712,0,0,1-2.268,1.553l-.55-.974a3.08,3.08,0,0,0,1.843-.984h-1.6v-.936h1.959c.019-.116.039-.232.048-.347h-1.679V9.328h.763V8.971h-.975V9.8h-.83v.27a13,13,0,0,0,.869,1.38l-.415,1.11c-.174-.241-.319-.483-.454-.714V15.33h-1.051V12.146Zm5.548-1.766v-.318h-2.325v.318Zm0,.974v-.309h-2.325v.309Zm-.724-2.026V8.962h-.878v.357Z" fill="#001b47"/>
    <path id="Path_4" data-name="Path 4" d="M151.648,15.262h-1.081V11.576c-.154.251-.328.511-.531.791l-.54-1.081A11.252,11.252,0,0,0,151.04,7.37l1.061.174a14.625,14.625,0,0,1-.453,1.708Zm1.331-.868h-.984V8.3h.984v.685a4.73,4.73,0,0,0,1.486-1.573l1.052.125c-.087.174-.183.338-.29.511h2.5v.917h-.665a4.147,4.147,0,0,1-.869,1.158,8.764,8.764,0,0,0,1.747.463l-.589.946a8.751,8.751,0,0,1-2.007-.753,6.31,6.31,0,0,1-1.949.811l-.424-.54v1a5.2,5.2,0,0,0,2.286-1.129l.705.434a4.982,4.982,0,0,1-2.586,1.467l-.4-.483v.907a5.926,5.926,0,0,0,3.155-1.708l.714.405a5.9,5.9,0,0,1-1.419,1.283,6.141,6.141,0,0,1-1.842.8l-.608-.772v1.168Zm0-4.824v1.11a6.8,6.8,0,0,0,1.515-.492,5.287,5.287,0,0,1-.608-.618c-.183.154-.357.289-.511.4l-.4-.405Zm4.96,2.991a6.216,6.216,0,0,1-1.7,1.708,7.216,7.216,0,0,1-2.422,1.09l-.8-.907a6.407,6.407,0,0,0,4.033-2.335l.888.434Zm-2.625-2.9a2.571,2.571,0,0,0,.608-.7h-1.36A3.5,3.5,0,0,0,155.314,9.656Z" fill="#001b47"/>
    <path id="Path_5" data-name="Path 5" d="M161.18,12.483a15.289,15.289,0,0,1-.424,2.354l-.82-.492a9.55,9.55,0,0,0,.434-2.046l.81.174Zm2.75-.753a3.863,3.863,0,0,0-.2-.4l.657-.154h-1.062v-.849h1.795V9.994H163.6V9.242h1.515V8.913h-1.7V8.045h.8a3.724,3.724,0,0,0-.242-.434l1.062-.241a6.978,6.978,0,0,1,.347.675h.6c.077-.174.174-.405.28-.714l1.09.212c-.067.183-.144.357-.212.5h.84v.868H166.2v.328h1.553v.753H166.2v.338h1.862v.849h-1.081l.589.145a4.031,4.031,0,0,1-.193.415h.665v.849h-4.727V12l-.531.193c-.019-.068-.058-.174-.106-.318-.077.01-.212.029-.377.058v3.425h-1.022v-3.29c-.415.048-.8.077-1.148.1l-.145-.994h.5c.173-.231.347-.463.53-.695-.3-.367-.646-.762-1.032-1.177l.569-1,.251.3c.222-.376.444-.81.675-1.293l.917.4c-.29.521-.627,1.061-1,1.64l.241.3c.289-.415.579-.878.878-1.38l.9.444c-.338.5-.714,1.032-1.138,1.6l.607-.241c.2.434.415.984.656,1.669h.4Zm-2.267-.627q.362-.029.723-.087c-.077-.2-.154-.4-.241-.579q-.159.217-.492.666Zm1.814,3.1-.782.318q-.187-.9-.318-2.113l.733-.222a15.9,15.9,0,0,0,.357,2.017Zm4.342,1.071h-1.091v-.28h-2.094v.28h-1.09v-2.4h4.265v2.4Zm-3.194-4.091a3.772,3.772,0,0,1,.251.55h.28v-.55Zm2.1,2.924V13.67h-2.094V14.1Zm-.309-2.373a2.742,2.742,0,0,0,.251-.55h-.521v.55h.27Z" fill="#001b47"/>
    <path id="Path_6" data-name="Path 6" d="M178.153,14.548h-7.864V13.361h3.252V9.492h-2.808V8.335h6.937V9.492h-2.885v3.869h3.358v1.187Z" fill="#001b47"/>
    <path id="Path_7" data-name="Path 7" d="M188.478,13.043h-.656v1.389h-1.148V14h-1.708v.434a.965.965,0,0,1-.193.724,1.312,1.312,0,0,1-.791.164h-1.418l-.241-.888h1.128a.568.568,0,0,0,.29-.048.391.391,0,0,0,.058-.26v-.116h-2.866v-.791H183.8v-.27h-3.464v-.811H183.8v-.28h-2.721v-.714H183.8v-.27h-2.663V9.135H183.8V8.846h-3.252V7.939H183.8V7.466h1.167v.473h3.291v.907h-3.291v.289H187.7v1.737h-2.731v.27h2.856v.907h.656v.994ZM183.8,10.177V9.811h-1.534v.367Zm2.769,0V9.811h-1.6v.367Zm.106,1.949v-.28h-1.708v.28Zm0,1.09v-.27h-1.708v.27Z" fill="#001b47"/>
    <path id="Path_8" data-name="Path 8" d="M200.1,12.541a3.055,3.055,0,0,1-2.557,2.856l-.936-.917a4.778,4.778,0,0,0,1.65-.714,1.718,1.718,0,0,0,.666-1.225h-1.274V7.63h5.963v4.911H202.13v1.38c0,.126.01.193.039.222s.1.039.222.039h.5a.455.455,0,0,0,.5-.386v-.733l1.11.328a2.867,2.867,0,0,1-.27,1.573c-.155.183-.521.28-1.1.28h-1.293a1.229,1.229,0,0,1-.714-.145.835.835,0,0,1-.174-.637v-1.9h-.839Zm2.335-3.483V8.624h-3.608v.434Zm0,1.264V9.888h-3.608v.434Zm0,1.274v-.444h-3.608V11.6Z" fill="#001b47"/>
    <path id="Path_9" data-name="Path 9" d="M207.921,12.416a11.034,11.034,0,0,1-.811,1.4l-.4-1.187a12.527,12.527,0,0,0,1.206-2.132h-1.042v-1h1.052V8.749c-.28.039-.56.077-.82.106l-.348-.955a10.1,10.1,0,0,0,2.634-.521l.367.714V7.871h1.853V7.437h1.129v.434h2.006v.782h-2.006v.241h1.7V9.56h-1.7V9.82h2.141V10.6h-5.316V10.5h-.617v.058a10.508,10.508,0,0,0,.974,1.438l-.434.984a9.084,9.084,0,0,1-.54-.811v3.1H207.93V12.4Zm1.013-3.859V9.5h.83V9.83h1.843V9.57h-1.573V8.913h1.573V8.672h-1.853V8.315a7.34,7.34,0,0,1-.81.251Zm3.087,5.857a6.649,6.649,0,0,1-2.035.946l-.589-.878a6.887,6.887,0,0,0,1.689-.56h-1.091V10.843h4.458v3.078h-1.235a7.075,7.075,0,0,0,1.795.6l-.589.868a7.126,7.126,0,0,1-2.123-.936l.531-.521H211.51l.5.492Zm1.361-2.673V11.49H211.1v.251Zm0,.762v-.251H211.1V12.5Zm0,.753V13H211.1v.251Z" fill="#001b47"/>
    <path id="Path_10" data-name="Path 10" d="M223.858,10.94a3.846,3.846,0,0,1-1.109,3.039A5.5,5.5,0,0,1,219,15.05V13.9a4.928,4.928,0,0,0,2.634-.666,2.6,2.6,0,0,0,.936-2.258,2.884,2.884,0,0,0-.28-1.322,1.16,1.16,0,0,0-1.091-.695,1.831,1.831,0,0,0-1.514,1.11,7.049,7.049,0,0,0-.821,2.644h-1.119q.03-2.605.106-4.805h1.2c-.01.1-.048.627-.106,1.582a3.346,3.346,0,0,1,.685-.965,2.411,2.411,0,0,1,1.746-.714,2.162,2.162,0,0,1,1.891.965,3.614,3.614,0,0,1,.608,2.152Z" fill="#001b47"/>
    <path id="Path_11" data-name="Path 11" d="M229.976,14.288a21.031,21.031,0,0,1-3.5.955l-.289-1.187c.231-.039.492-.087.81-.145V7.63h1.187V9.55h1.766v1.158h-1.766v2.952c.617-.154,1.225-.328,1.8-.531V14.3Zm4.285-1.582a4.565,4.565,0,0,1-.357,1.91,1.465,1.465,0,0,1-1.3.5h-1.168a1.131,1.131,0,0,1-.791-.2,1.132,1.132,0,0,1-.2-.791V7.63h1.177V9.753a10,10,0,0,0,1.727-.946l.752.917A10.454,10.454,0,0,1,231.617,11v2.721a.377.377,0,0,0,.058.251.364.364,0,0,0,.241.058h.531a.52.52,0,0,0,.559-.318,6.621,6.621,0,0,0,.126-1.332l1.129.338Z" fill="#001b47"/>
    <path id="Path_12" data-name="Path 12" d="M240.473,14.182h-1.341V15.3h-1.071V14.182h-1.476v-.955h1.476v-.434h-1.235V9.5h1.235V9.068h-1.418V8.122h1.418V7.408h1.071v.714H240.4v.946h-1.264V9.5h1.177v1.737a6.51,6.51,0,0,0,1.071-1.862h-.849V8.354h1.39V7.408h1.071v.946h1.5V9.377h-.859a6.453,6.453,0,0,0,1.09,1.862l-.511.955c-.2-.241-.347-.425-.444-.56a7.859,7.859,0,0,1-.637,1.476,6.491,6.491,0,0,0,1.592,1.216l-.578,1a6.706,6.706,0,0,1-1.631-1.351,6.324,6.324,0,0,1-1.611,1.341l-.579-1a5.945,5.945,0,0,0,1.572-1.206,7.746,7.746,0,0,1-.656-1.486c-.144.2-.289.386-.424.55l-.512-.926v1.534h-1.177v.434h1.341v.965Zm-2.306-3.425v-.434H237.7v.434Zm0,1.235v-.463H237.7v.463Zm1.332-1.235v-.434h-.454v.434Zm0,1.235v-.463h-.454v.463Zm3.01.251a5.7,5.7,0,0,0,.56-1.717,5.971,5.971,0,0,1-.347-.81l.752-.338h-1.949l.753.338a6.8,6.8,0,0,1-.338.8A5.883,5.883,0,0,0,242.509,12.242Z" fill="#001b47"/>
    <path id="Path_13" data-name="Path 13" d="M89.453,57.031h28.194v6.986H89.453Zm.84-18.583V31.462h26.418v6.986Z" fill="#001b47"/>
    <path id="Path_14" data-name="Path 14" d="M131.918,42.848V36.933H153L151.582,58.5h4.67v6.088H130.635V58.5h14.714l.975-15.65Z" fill="#001b47"/>
    <path id="Path_15" data-name="Path 15" d="M168.176,50.711V43.726h20.542v6.986Z" fill="#001b47"/>
    <path id="Path_16" data-name="Path 16" d="M205.874,52.535V42.665h-4.535V35.554h4.535V29.33h6.715v6.224h8.491V29.147H227.8v6.407h4.756v7.111H227.8v6.223a15.616,15.616,0,0,1-1.959,7.806,15.007,15.007,0,0,1-4.805,5.027,25.918,25.918,0,0,1-5.712,2.827,29.826,29.826,0,0,1-4.67,1.245c-1.264.2-1.9.309-1.93.309V58.894s.463-.058,1.312-.174a23.3,23.3,0,0,0,3.155-.733,13.135,13.135,0,0,0,3.58-1.669,11.171,11.171,0,0,0,2.982-2.933A7.815,7.815,0,0,0,221.08,48.9V42.674h-8.491v9.871h-6.715Z" fill="#001b47"/>
    <path id="Path_17" data-name="Path 17" d="M250.412,30.17l3.155,17.966h-5.519l-3.02-17.966Zm-2.045,35.266V58.141a18.514,18.514,0,0,0,9.1-3.985,19.976,19.976,0,0,0,5.384-7.073,47.518,47.518,0,0,0,2.76-7.854,51.148,51.148,0,0,0,1.245-6.358,22.368,22.368,0,0,0,.241-2.624h7.024a70.857,70.857,0,0,1-1.09,8.317,51.285,51.285,0,0,1-2.335,7.96,33.84,33.84,0,0,1-4.554,8.25,28.859,28.859,0,0,1-7.275,6.851,25.6,25.6,0,0,1-10.5,3.8ZM259.125,30.17l3.242,17.966h-5.558L253.741,30.17Z" fill="#001b47"/>
    <path id="Path_18" data-name="Path 18" d="M15.611,27.738l15.718,8.973,15.718-8.973-15.718-9.07Z" fill="#fff"/>
    <path id="Path_19" data-name="Path 19" d="M47.047,27.738l15.621-9.012L31.329.635V18.668Z" fill="#002f75"/>
    <path id="Path_20" data-name="Path 20" d="M31.329,54.967V73L62.668,54.909,47.047,45.9Z" fill="#001b47"/>
    <path id="Path_21" data-name="Path 21" d="M31.329,18.668V.635L0,18.726l15.612,9.012Z" fill="#001b47"/>
    <path id="Path_22" data-name="Path 22" d="M15.612,45.9V27.738L0,18.726V54.909Z" fill="#0d68ac"/>
    <path id="Path_23" data-name="Path 23" d="M31.329,54.967,15.612,45.9,0,54.909,31.329,73Z" fill="#002f75"/>
    <path id="Path_24" data-name="Path 24" d="M62.668,47.749V18.726L47.047,27.738v11Z" fill="#0d68ac"/>
    <path id="Path_25" data-name="Path 25" d="M71.014,59.791,47.076,45.974,42.6,53.741,62.07,64.982Z" fill="#001b47"/>
  </g>
</svg>
