<svg xmlns="http://www.w3.org/2000/svg" width="172" height="46" viewBox="0 0 172 46">
  <g id="Group_68" data-name="Group 68" transform="translate(-477 -4140)">
    <rect id="Rectangle_44" data-name="Rectangle 44" width="172" height="46" rx="23" transform="translate(477 4140)" fill="#0d68ac"/>
    <path id="Path_355" data-name="Path 355" d="M13.488-11.76,11.1-12.592a9.979,9.979,0,0,1-.384,1.472A16.592,16.592,0,0,1,8.944-7.312c-1.3-.96-2.976-2.112-4.256-2.9L3.328-8.576a43.99,43.99,0,0,1,4.32,3.04,17.607,17.607,0,0,1-6.08,4.72L3.36.8A20,20,0,0,0,9.312-4.144,32.217,32.217,0,0,1,12.864-.608l1.648-1.824a41.9,41.9,0,0,0-3.84-3.536,24.164,24.164,0,0,0,2.144-4.352C12.976-10.688,13.28-11.392,13.488-11.76Zm15.36-.656H26.432a11.287,11.287,0,0,1,.1,1.6v3.04c0,2.5-.208,3.7-1.312,4.9a7.239,7.239,0,0,1-3.84,2.016L23.04.9a9.421,9.421,0,0,0,3.888-2.3c1.184-1.312,1.856-2.8,1.856-6.24v-3.168C28.784-11.456,28.816-11.968,28.848-12.416Zm-7.424.128h-2.3a11.361,11.361,0,0,1,.064,1.232v5.392c0,.48-.064,1.1-.08,1.408h2.32c-.032-.368-.048-.992-.048-1.392v-5.408C21.376-11.568,21.392-11.92,21.424-12.288ZM40.08-9.5l-1.9.624a26.65,26.65,0,0,1,1.3,3.552L41.392-6C41.168-6.736,40.384-8.816,40.08-9.5Zm5.9,1.168-2.24-.72A10.943,10.943,0,0,1,41.7-3.568,10.766,10.766,0,0,1,36.384-.224l1.68,1.712a12.5,12.5,0,0,0,5.36-3.968A12.9,12.9,0,0,0,45.6-7.168C45.7-7.488,45.792-7.824,45.984-8.336Zm-9.616-.32-1.92.688a32.318,32.318,0,0,1,1.456,3.7l1.952-.736C37.536-5.9,36.768-7.84,36.368-8.656Zm16.656,7.12A17.573,17.573,0,0,1,52.864.7h2.5c-.064-.656-.144-1.776-.144-2.24V-6.064A46.214,46.214,0,0,1,60.992-3.68L61.9-5.888a52.257,52.257,0,0,0-6.688-2.48v-2.368a17.4,17.4,0,0,1,.144-1.92h-2.5a11.106,11.106,0,0,1,.16,1.92Z" transform="translate(506 4170)" fill="#fff"/>
    <path id="Path_354" data-name="Path 354" d="M7.71-11.25q0-5.16,2-8.13t6.435-2.97q4.44,0,6.435,2.97t1.995,8.13q0,5.22-1.995,8.19T16.14-.09Q11.7-.09,9.7-3.06T7.71-11.25Zm11.82,0a12.94,12.94,0,0,0-.66-4.665,2.64,2.64,0,0,0-2.73-1.635,2.64,2.64,0,0,0-2.73,1.635,12.94,12.94,0,0,0-.66,4.665,19.613,19.613,0,0,0,.24,3.375,4.319,4.319,0,0,0,.975,2.16,2.762,2.762,0,0,0,2.175.825,2.762,2.762,0,0,0,2.175-.825,4.319,4.319,0,0,0,.975-2.16A19.613,19.613,0,0,0,19.53-11.25Zm7.2-5.88V-21.9h8.31V0H29.7V-17.13Z" transform="translate(577 4174)" fill="#fff"/>
  </g>
</svg>
