<svg xmlns="http://www.w3.org/2000/svg" width="280" height="280" viewBox="0 0 280 280">
  <g id="Group_65" data-name="Group 65" transform="translate(-360 -2243)">
    <rect id="Rectangle_6" data-name="Rectangle 6" width="280" height="280" rx="20" transform="translate(360 2243)" fill="#fff"/>
    <g id="Group_36" data-name="Group 36" transform="translate(0 -3)">
      <g id="Ellipse_5" data-name="Ellipse 5" transform="translate(470 2251)" fill="#fff" stroke="#fff" stroke-width="1">
        <circle cx="30" cy="30" r="30" stroke="none"/>
        <circle cx="30" cy="30" r="29.5" fill="none"/>
      </g>
      <path id="Path_351" data-name="Path 351" d="M-16.71-11.22q0-5.19,1.875-8.13t6.225-2.94q4.35,0,6.225,2.94T-.51-11.22Q-.51-6-2.385-3.03T-8.61-.06q-4.35,0-6.225-2.97T-16.71-11.22Zm12.06,0a20.639,20.639,0,0,0-.285-3.735,5.033,5.033,0,0,0-1.14-2.475,3.218,3.218,0,0,0-2.535-.96,3.218,3.218,0,0,0-2.535.96,5.033,5.033,0,0,0-1.14,2.475,20.639,20.639,0,0,0-.285,3.735A22.739,22.739,0,0,0-12.3-7.4a4.8,4.8,0,0,0,1.14,2.49,3.3,3.3,0,0,0,2.55.945,3.3,3.3,0,0,0,2.55-.945A4.8,4.8,0,0,0-4.92-7.4,22.739,22.739,0,0,0-4.65-11.22ZM3.99-4.74q2.88-2.4,4.59-4a18.566,18.566,0,0,0,2.85-3.345,6.229,6.229,0,0,0,1.14-3.42,3.656,3.656,0,0,0-.72-2.4,2.717,2.717,0,0,0-2.22-.87,2.8,2.8,0,0,0-2.31,1,4.38,4.38,0,0,0-.84,2.745H2.4a7.4,7.4,0,0,1,2.145-5.46A7.311,7.311,0,0,1,9.69-22.35a7.14,7.14,0,0,1,5.25,1.815,6.44,6.44,0,0,1,1.83,4.785,8.65,8.65,0,0,1-1.26,4.47,17.69,17.69,0,0,1-2.88,3.705Q11.01-6,8.4-3.78h8.85V-.3H2.43V-3.42Z" transform="translate(500 2292)" fill="#0d68ac"/>
    </g>
    <g id="Layer_2" data-name="Layer 2" transform="translate(387.419 2314.188)">
      <g id="Group_28" data-name="Group 28" transform="translate(-0.258 1)">
        <path id="Path_291" data-name="Path 291" d="M97.487,51.108V48.252c0-.893,3.75-3.4,5.723-3.75a51.165,51.165,0,0,1,7.509,0,106.436,106.436,0,0,1,11.976-1.433c7.509-.54,11.613-.716,11.613-.716s5.006-2.5,8.579-1.963,5.36,4.466,5.36,4.466,1.61.177,2.14-2.326-3.75-5.536-3.75-5.536.177-6.616-4.113-15.009-16.265-10.189-16.265-10.189l-2.3-2.857a25.664,25.664,0,0,0-5.918,0A10.049,10.049,0,0,0,112.5,10.9l-.893,2.14S97.133,16.615,96.24,42.166c0,0-9.826,11.259,1.247,8.933Z" transform="translate(-6.17 -1.541)" fill="#cee1ee"/>
        <path id="Path_292" data-name="Path 292" d="M103.063,71.824l-1.07-22.164L97.88,51.986Z" transform="translate(-6.563 -4.382)" fill="#e6eff7"/>
        <path id="Path_293" data-name="Path 293" d="M146.66,43.9l2.5,23.765s2.857-7.863,2.68-12.692-.651-9.063-.651-9.063L146.66,43.89Z" transform="translate(-9.953 -3.981)" fill="#e6eff7"/>
        <path id="Path_294" data-name="Path 294" d="M137.337,83a36.381,36.381,0,0,1,0,11.8c-1.07,6.43-7.686,14.832-10.012,20.369s-8.933,25.021-8.933,25.021l-11.436-39.853V86.752l-5.183-5.9-2.14,1.963L95.79,94.428s-1.517-2.5-9.2.354-8.4,4.466-11.8,11.436-10.905,33.954-10.905,33.954l-5.536-14.479s-27.524,7.863-27.878,8.579,7.863,27.878,11.975,36.81,10.905,16.619,19.3,16.079,16.265-17.875,16.265-17.875l1.61,23.234h83.633s-1.07-1.787,0-9.826,2.5-36.457,2.5-36.457,13.222,3.4,24.3,5.36,15.186,1.787,18.945-1.433,5.183-5.183,5.723-13.492,2.68-44.943,2.68-44.943-26.268-2.68-26.268-2.14-1.787,29.311-1.787,29.311-20.192-16.982-25.021-20.192-8.756-4.466-11.259-4.466a25.054,25.054,0,0,0-3.573.177s-1.517-5.723-3.35-8.216-7.556-6.793-7.556-6.793l-1.247,3.573Z" transform="translate(-1.877 -6.45)" fill="#81b5dc"/>
        <path id="Path_295" data-name="Path 295" d="M123.309,103.84l5.295-4.82,5.36,6.076-3.75,3.033,2.912,9.6-7.853,22.053L120.88,128.34l3.8-19.671Z" transform="translate(-8.161 -7.813)" fill="#0d68ac"/>
        <ellipse id="Ellipse_31" data-name="Ellipse 31" cx="6.169" cy="2.68" rx="6.169" ry="2.68" transform="translate(109.722 29.553)" fill="#e6eff7"/>
        <path id="Path_296" data-name="Path 296" d="M39.3,124.442l9.826-1.787a17.461,17.461,0,0,1-2.14-7.686,22.4,22.4,0,0,1,.54-6.793L41.8,107.46,39.3,112.1l3.22,2.5-2.326,2.68,1.07,2.689L39.3,124.432Z" transform="translate(-2.491 -8.399)" fill="#e6eff7"/>
        <path id="Path_297" data-name="Path 297" d="M32.39,85.043v5.723h2.5l.707,4.643,4.829,4.829,3.3-.893V94.869l-2.056-.893V89.51l2.056-.53-1.517-5.9Z" transform="translate(-2.011 -6.705)" fill="#e6eff7"/>
        <path id="Path_298" data-name="Path 298" d="M10.409,59.561l43.78-7.509s2.857-7.146.716-12.506-4.829-7.323-5.536-6.793S6.65,40.616,6.65,40.616s7.686,2.14,3.75,18.945Z" transform="translate(-0.222 -3.201)" fill="#e6eff7"/>
        <path id="Path_299" data-name="Path 299" d="M96.862,44.267s-2.41-23.188,15.409-31.1" transform="translate(-6.485 -1.846)" fill="none" stroke="#2a5d83" stroke-linecap="round" stroke-linejoin="round" stroke-width="2"/>
        <path id="Path_300" data-name="Path 300" d="M111.56,32.468l2.28-21.978a19.066,19.066,0,0,1,7.239-1.21c4.559,0,6.169.8,6.169.8l5.63,20.108" transform="translate(-7.514 -1.575)" fill="none" stroke="#2a5d83" stroke-linecap="round" stroke-linejoin="round" stroke-width="2"/>
        <path id="Path_301" data-name="Path 301" d="M128.89,11.84s16.851-.233,21.141,24.965" transform="translate(-8.718 -1.753)" fill="none" stroke="#2a5d83" stroke-linecap="round" stroke-linejoin="round" stroke-width="2"/>
        <path id="Path_302" data-name="Path 302" d="M144.26,38.67s17.559.13,7.1,9.78" transform="translate(-9.786 -3.618)" fill="none" stroke="#2a5d83" stroke-linecap="round" stroke-linejoin="round" stroke-width="2"/>
        <path id="Path_303" data-name="Path 303" d="M104.216,42.27C93.748,44.95,88.3,53.529,96.456,54.2" transform="translate(-6.19 -3.868)" fill="none" stroke="#2a5d83" stroke-linecap="round" stroke-linejoin="round" stroke-width="2"/>
        <path id="Path_304" data-name="Path 304" d="M98.093,52.628s-3.35-2.01,2.01-4.494a16.376,16.376,0,0,1,10.459-1s3.889-1.61,11.929-2.28,10.989.67,10.989.67,4.69-2.95,8.979-2.68,5.36,2.81,5.36,2.81a53.29,53.29,0,0,1,0,10.319,96.567,96.567,0,0,1-2.55,13.539s-1.34,4.829-2.68,8.44-5.09,9.919-17.828,9.919-18.2-8.179-20.359-13.809-6.309-21.448-6.309-21.448Z" transform="translate(-6.506 -3.907)" fill="none" stroke="#2a5d83" stroke-linecap="round" stroke-linejoin="round" stroke-width="2"/>
        <path id="Path_305" data-name="Path 305" d="M102.478,50.19a70.624,70.624,0,0,0,1.21,18.5" transform="translate(-6.872 -4.419)" fill="none" stroke="#2a5d83" stroke-linecap="round" stroke-linejoin="round" stroke-width="2"/>
        <path id="Path_306" data-name="Path 306" d="M146.28,43.92s1.88,13.874,2.28,22.043" transform="translate(-9.927 -3.983)" fill="none" stroke="#2a5d83" stroke-linecap="round" stroke-linejoin="round" stroke-width="2"/>
        <circle id="Ellipse_32" data-name="Ellipse 32" cx="1.303" cy="1.303" r="1.303" transform="translate(105.321 47.716)" fill="none" stroke="#2a5d83" stroke-linecap="round" stroke-linejoin="round" stroke-width="2"/>
        <circle id="Ellipse_33" data-name="Ellipse 33" cx="1.303" cy="1.303" r="1.303" transform="translate(126.388 45.771)" fill="none" stroke="#2a5d83" stroke-linecap="round" stroke-linejoin="round" stroke-width="2"/>
        <path id="Path_307" data-name="Path 307" d="M128.27,53l3.889,8.775-3.313,4.28" transform="translate(-8.675 -4.614)" fill="none" stroke="#2a5d83" stroke-linecap="round" stroke-linejoin="round" stroke-width="2"/>
        <path id="Path_308" data-name="Path 308" d="M119.48,74.18l13.939-.8s1.21,8.709-5.76,8.849-8.179-8.039-8.179-8.039Z" transform="translate(-8.064 -6.031)" fill="none" stroke="#2a5d83" stroke-linecap="round" stroke-linejoin="round" stroke-width="2"/>
        <path id="Path_309" data-name="Path 309" d="M143.583,85.3c1.61,7.639-.9,12.869-4.541,20.508s-7.658,15.009-11.147,23.858A99.9,99.9,0,0,0,123,146.015l1.34,3.889,23.635-38.6-4.411-10.589,8.979,8.04,5.9-7.239L151.073,85.3l-5.295-4.29" transform="translate(-8.309 -6.561)" fill="none" stroke="#2a5d83" stroke-linecap="round" stroke-linejoin="round" stroke-width="2"/>
        <path id="Path_310" data-name="Path 310" d="M107.293,82.11h-2.7L97.96,100.087l1.74,10.059,12.655-9.659-.465-13.725" transform="translate(-6.568 -6.637)" fill="none" stroke="#2a5d83" stroke-linecap="round" stroke-linejoin="round" stroke-width="2"/>
        <path id="Path_311" data-name="Path 311" d="M96.559,95.24a27.34,27.34,0,0,0-14.59,5.229c-3.22,2.419-3.62,4.02-5.63,8.979s-9.919,31.628-9.919,31.628" transform="translate(-4.376 -7.55)" fill="none" stroke="#2a5d83" stroke-linecap="round" stroke-linejoin="round" stroke-width="2"/>
        <path id="Path_312" data-name="Path 312" d="M66.357,154.428l-8.44-25.2L30.84,138.079s9.649,32.567,11.929,38.2,9.519,15.148,18.5,14.069,16.889-18.9,16.889-18.9" transform="translate(-1.903 -9.912)" fill="none" stroke="#2a5d83" stroke-linecap="round" stroke-linejoin="round" stroke-width="2"/>
        <line id="Line_82" data-name="Line 82" x2="2.196" y2="57.495" transform="translate(74.912 128.567)" fill="none" stroke="#2a5d83" stroke-linecap="round" stroke-linejoin="round" stroke-width="2"/>
        <path id="Path_313" data-name="Path 313" d="M176.211,135.86c-.4.54-4.02,55.625-3.22,60.585" transform="translate(-11.775 -10.373)" fill="none" stroke="#2a5d83" stroke-linecap="round" stroke-linejoin="round" stroke-width="2"/>
        <rect id="Rectangle_39" data-name="Rectangle 39" width="27.124" height="23.858" transform="translate(129.002 123.877)" fill="none" stroke="#2a5d83" stroke-linecap="round" stroke-linejoin="round" stroke-width="2"/>
        <rect id="Rectangle_40" data-name="Rectangle 40" width="22.704" height="24.398" transform="translate(83.082 123.337)" fill="none" stroke="#2a5d83" stroke-linecap="round" stroke-linejoin="round" stroke-width="2"/>
        <line id="Line_83" data-name="Line 83" x2="21.429" transform="translate(83.892 132.056)" fill="none" stroke="#2a5d83" stroke-linecap="round" stroke-linejoin="round" stroke-width="2"/>
        <line id="Line_84" data-name="Line 84" x2="26.398" transform="translate(129.728 132.056)" fill="none" stroke="#2a5d83" stroke-linecap="round" stroke-linejoin="round" stroke-width="2"/>
        <path id="Path_314" data-name="Path 314" d="M159.47,95.24c4.159.13,9,0,14.953,4.96s23.383,19.568,23.383,19.568" transform="translate(-10.844 -7.55)" fill="none" stroke="#2a5d83" stroke-linecap="round" stroke-linejoin="round" stroke-width="2"/>
        <path id="Path_315" data-name="Path 315" d="M198.979,127.4l1.88-36.15L227,92.692s-2.41,37.667-2.68,45.976-2.41,14.209-13.539,15.148-34.307-7.239-34.307-7.239" transform="translate(-12.025 -7.273)" fill="none" stroke="#2a5d83" stroke-linecap="round" stroke-linejoin="round" stroke-width="2"/>
        <line id="Line_85" data-name="Line 85" x2="25.412" y2="2.168" transform="translate(188.963 92.65)" fill="none" stroke="#2a5d83" stroke-linecap="round" stroke-linejoin="round" stroke-width="2"/>
        <line id="Line_86" data-name="Line 86" x2="0.14" y2="4.15" transform="translate(193.253 78.711)" fill="none" stroke="#2a5d83" stroke-linecap="round" stroke-linejoin="round" stroke-width="2"/>
        <line id="Line_87" data-name="Line 87" x2="0.13" y2="4.987" transform="translate(210.411 78.981)" fill="none" stroke="#2a5d83" stroke-linecap="round" stroke-linejoin="round" stroke-width="2"/>
        <path id="Path_316" data-name="Path 316" d="M222.99,84.308s6.169-2.81,7.239-8.309,3.489-14.069-3.08-14.609" transform="translate(-15.258 -5.197)" fill="none" stroke="#2a5d83" stroke-linecap="round" stroke-linejoin="round" stroke-width="2"/>
        <path id="Path_317" data-name="Path 317" d="M228.645,70.75a20.066,20.066,0,0,1-3.62,4.69c-2.28,2.14-4.159-.67-3.35-2.615" transform="translate(-15.154 -5.848)" fill="none" stroke="#2a5d83" stroke-linecap="round" stroke-linejoin="round" stroke-width="2"/>
        <path id="Path_318" data-name="Path 318" d="M217.05,69.764a3.105,3.105,0,0,0,5.527.67c1.88-2.68,2.14-3.889,3.489-8.039s-2.95-8.709-7.239-3.489" transform="translate(-14.846 -4.862)" fill="none" stroke="#2a5d83" stroke-linecap="round" stroke-linejoin="round" stroke-width="2"/>
        <path id="Path_319" data-name="Path 319" d="M218.82,61.857a16.922,16.922,0,0,1,.54-5.564c.81-3.015-4.29-4.755-6.169-2.68" transform="translate(-14.577 -4.594)" fill="none" stroke="#2a5d83" stroke-linecap="round" stroke-linejoin="round" stroke-width="2"/>
        <path id="Path_320" data-name="Path 320" d="M211.775,60.385a91.538,91.538,0,0,0,0-10.989c-.4-4.42-1.21-11.389-1.21-13.939s-2.01-4.159-3.555-3.889-3.285,1.805-2.885,6.6.8,19.968.8,19.968a13.3,13.3,0,0,0-4.29,11.985c1.21,7.556,8.849,12.785,8.849,12.785" transform="translate(-13.693 -3.123)" fill="none" stroke="#2a5d83" stroke-linecap="round" stroke-linejoin="round" stroke-width="2"/>
        <path id="Path_321" data-name="Path 321" d="M203.62,67.763c1.945-1.88,1.675-3.22,5.834-4.159s4.159-1.34,7.239-1.07,4.02,1.8,1.47,4.178-8.039,4.131-8.039,4.131a13.586,13.586,0,0,1,2.038,7.37" transform="translate(-13.912 -5.271)" fill="none" stroke="#2a5d83" stroke-linecap="round" stroke-linejoin="round" stroke-width="2"/>
        <path id="Path_322" data-name="Path 322" d="M150.97,63.863s5.09.428,5.9-5.248-4.048-7.025-4.048-7.025" transform="translate(-10.253 -4.516)" fill="none" stroke="#2a5d83" stroke-linecap="round" stroke-linejoin="round" stroke-width="2"/>
        <path id="Path_323" data-name="Path 323" d="M97.731,55.77s-4.559,2.7-2.55,7.584,5.592,4.345,5.592,4.345" transform="translate(-6.34 -4.807)" fill="none" stroke="#2a5d83" stroke-linecap="round" stroke-linejoin="round" stroke-width="2"/>
        <path id="Path_324" data-name="Path 324" d="M55.688,127.167l-1.74-2.55s5.5-4.559,2.68-13.269a19.948,19.948,0,0,0-10.049-11.8s-9.11,2.81-10.459,3.35-.67,2.95,2.14,3.75a52.164,52.164,0,0,0,8.179,1.135s-1.07,12.664,3.08,16.284" transform="translate(-2.224 -7.85)" fill="none" stroke="#2a5d83" stroke-linecap="round" stroke-linejoin="round" stroke-width="2"/>
        <path id="Path_325" data-name="Path 325" d="M38.62,124.152l.67,1.74,8.942-2.252" transform="translate(-2.444 -9.524)" fill="none" stroke="#2a5d83" stroke-linecap="round" stroke-linejoin="round" stroke-width="2"/>
        <path id="Path_326" data-name="Path 326" d="M35.45,125.549s5.22-2.01,5.22-4.159-1.34-2.68-1.34-2.68" transform="translate(-2.224 -9.181)" fill="none" stroke="#2a5d83" stroke-linecap="round" stroke-linejoin="round" stroke-width="2"/>
        <path id="Path_327" data-name="Path 327" d="M27.72,112.24s-1.21-.13-1.21,2.01,1.47,4.02,6.839,4.02,11.659-2.55,6.03-6.03" transform="translate(-1.603 -8.731)" fill="none" stroke="#2a5d83" stroke-linecap="round" stroke-linejoin="round" stroke-width="2"/>
        <path id="Path_328" data-name="Path 328" d="M27.768,104.17c-1.74.67-6.272,6.076,3.489,7.509S41.5,108.125,41.5,108.125" transform="translate(-1.511 -8.171)" fill="none" stroke="#2a5d83" stroke-linecap="round" stroke-linejoin="round" stroke-width="2"/>
        <path id="Path_329" data-name="Path 329" d="M40.776,99.394s-2.112-2.168-7.286-2.224-6.113,1.154-6.244,3.294-.391,4.02,7.649,5.09" transform="translate(-1.651 -7.684)" fill="none" stroke="#2a5d83" stroke-linecap="round" stroke-linejoin="round" stroke-width="2"/>
        <path id="Path_330" data-name="Path 330" d="M29.108,118.03c-2.224,1.973-2.624,8.542,9.435,11.631" transform="translate(-1.698 -9.134)" fill="none" stroke="#2a5d83" stroke-linecap="round" stroke-linejoin="round" stroke-width="2"/>
        <line id="Line_88" data-name="Line 88" x1="1.145" y1="4.96" transform="translate(34.696 120.527)" fill="none" stroke="#2a5d83" stroke-linecap="round" stroke-linejoin="round" stroke-width="2"/>
        <path id="Path_331" data-name="Path 331" d="M45.419,97.519l-.94-3.08H41.994l-.865-3.722,2.14-1.238-1.275-5.76L32.28,85.19l.54,5.527h2.41v4.662" transform="translate(-2.004 -6.749)" fill="none" stroke="#2a5d83" stroke-linecap="round" stroke-linejoin="round" stroke-width="2"/>
        <path id="Path_332" data-name="Path 332" d="M39.29,80.022l-.67-5.834L61.808,60.76l-3.35-19.1L57.3,41.62" transform="translate(-2.444 -3.823)" fill="none" stroke="#2a5d83" stroke-linecap="round" stroke-linejoin="round" stroke-width="2"/>
        <path id="Path_333" data-name="Path 333" d="M55.408,53.68l.884,6-21.8,13.5.893,8.979" transform="translate(-2.157 -4.661)" fill="none" stroke="#2a5d83" stroke-linecap="round" stroke-linejoin="round" stroke-width="2"/>
        <path id="Path_334" data-name="Path 334" d="M8.8,60.282l44.636-7.956s3.024-1.74,2.084-10.021-6.16-8.1-6.16-8.1L6.06,40.462" transform="translate(-0.181 -3.307)" fill="none" stroke="#2a5d83" stroke-linecap="round" stroke-linejoin="round" stroke-width="2"/>
        <ellipse id="Ellipse_34" data-name="Ellipse 34" cx="5.127" cy="10.133" rx="5.127" ry="10.133" transform="matrix(0.991, -0.133, 0.133, 0.991, 0, 37.838)" fill="none" stroke="#2a5d83" stroke-linecap="round" stroke-linejoin="round" stroke-width="2"/>
        <ellipse id="Ellipse_35" data-name="Ellipse 35" cx="1.377" cy="3.61" rx="1.377" ry="3.61" transform="matrix(0.991, -0.133, 0.133, 0.991, 4.756, 44.103)" fill="none" stroke="#2a5d83" stroke-linecap="round" stroke-linejoin="round" stroke-width="2"/>
        <line id="Line_89" data-name="Line 89" x2="5.964" y2="0.4" transform="translate(71.479 15.818)" fill="none" stroke="#2a5d83" stroke-linecap="round" stroke-linejoin="round" stroke-width="2"/>
        <line id="Line_90" data-name="Line 90" x2="4.96" y2="5.295" transform="translate(76.373 5.229)" fill="none" stroke="#2a5d83" stroke-linecap="round" stroke-linejoin="round" stroke-width="2"/>
        <line id="Line_91" data-name="Line 91" x2="0.205" y2="6.43" transform="translate(87.027)" fill="none" stroke="#2a5d83" stroke-linecap="round" stroke-linejoin="round" stroke-width="2"/>
        <path id="Path_335" data-name="Path 335" d="M113.43,103.264l3.936,5.4,10.449-10.626-8.756-6.9" transform="translate(-7.644 -7.264)" fill="none" stroke="#2a5d83" stroke-linecap="round" stroke-linejoin="round" stroke-width="2"/>
        <path id="Path_336" data-name="Path 336" d="M136.408,89.58l-7.518,8.347,8.133,10.626" transform="translate(-8.718 -7.157)" fill="none" stroke="#2a5d83" stroke-linecap="round" stroke-linejoin="round" stroke-width="2"/>
        <path id="Path_337" data-name="Path 337" d="M122.881,105.55l1.814,4.113-3.536,20.722" transform="translate(-8.181 -8.267)" fill="none" stroke="#2a5d83" stroke-linecap="round" stroke-linejoin="round" stroke-width="2"/>
        <line id="Line_92" data-name="Line 92" x2="8.123" y2="34.968" transform="translate(106.624 97.879)" fill="none" stroke="#2a5d83" stroke-linecap="round" stroke-linejoin="round" stroke-width="2"/>
        <path id="Path_338" data-name="Path 338" d="M134.045,105.549c-.27-.354-2.745,4.113-2.745,4.113l1.833,9.212" transform="translate(-8.886 -8.265)" fill="none" stroke="#2a5d83" stroke-linecap="round" stroke-linejoin="round" stroke-width="2"/>
        <line id="Line_93" data-name="Line 93" x2="5.899" transform="translate(116.515 101.396)" fill="none" stroke="#2a5d83" stroke-linecap="round" stroke-linejoin="round" stroke-width="2"/>
      </g>
    </g>
  </g>
</svg>
