<svg xmlns="http://www.w3.org/2000/svg" width="280" height="280" viewBox="0 0 280 280">
  <g id="Group_66" data-name="Group 66" transform="translate(-360 -2243)">
    <rect id="Rectangle_6" data-name="Rectangle 6" width="280" height="280" rx="20" transform="translate(360 2243)" fill="#fff"/>
    <g id="Group_36" data-name="Group 36" transform="translate(0 -3)">
      <g id="Ellipse_5" data-name="Ellipse 5" transform="translate(470 2251)" fill="#fff" stroke="#fff" stroke-width="1">
        <circle cx="30" cy="30" r="30" stroke="none"/>
        <circle cx="30" cy="30" r="29.5" fill="none"/>
      </g>
      <path id="Path_352" data-name="Path 352" d="M-17.085-11.22q0-5.19,1.875-8.13t6.225-2.94q4.35,0,6.225,2.94t1.875,8.13Q-.885-6-2.76-3.03T-8.985-.06q-4.35,0-6.225-2.97T-17.085-11.22Zm12.06,0a20.639,20.639,0,0,0-.285-3.735A5.033,5.033,0,0,0-6.45-17.43a3.218,3.218,0,0,0-2.535-.96,3.218,3.218,0,0,0-2.535.96,5.033,5.033,0,0,0-1.14,2.475,20.639,20.639,0,0,0-.285,3.735,22.739,22.739,0,0,0,.27,3.825,4.8,4.8,0,0,0,1.14,2.49,3.3,3.3,0,0,0,2.55.945,3.3,3.3,0,0,0,2.55-.945A4.8,4.8,0,0,0-5.295-7.4,22.739,22.739,0,0,0-5.025-11.22Zm7.38-4.89A6.117,6.117,0,0,1,4.47-20.745,7.827,7.827,0,0,1,9.645-22.38a8.445,8.445,0,0,1,3.75.765,5.505,5.505,0,0,1,2.355,2.07,5.566,5.566,0,0,1,.8,2.955A5.187,5.187,0,0,1,15.57-13.4a4.778,4.778,0,0,1-2.325,1.755v.12A5.042,5.042,0,0,1,15.96-9.6a6,6,0,0,1,.975,3.54,6.237,6.237,0,0,1-.825,3.21A5.615,5.615,0,0,1,13.68-.645a8.607,8.607,0,0,1-3.855.8,8.545,8.545,0,0,1-5.52-1.71A6.4,6.4,0,0,1,2.055-6.6h4.08A3.268,3.268,0,0,0,7.14-4.245a3.646,3.646,0,0,0,2.6.885,3.121,3.121,0,0,0,2.355-.855,3.044,3.044,0,0,0,.825-2.205A2.9,2.9,0,0,0,11.775-9a6.359,6.359,0,0,0-3.54-.78h-.87v-3.45h.87q4.26,0,4.26-2.85a2.626,2.626,0,0,0-.765-2.01,3.1,3.1,0,0,0-2.205-.72,2.942,2.942,0,0,0-2.175.765,3.091,3.091,0,0,0-.885,1.935Z" transform="translate(500 2292)" fill="#0d68ac"/>
    </g>
    <g id="company" transform="translate(448.26 2314.188)">
      <g id="Layer_3" data-name="Layer 3" transform="translate(0.74 26.125)">
        <path id="Path_287" data-name="Path 287" d="M1.109,172.659H112.783V46.184L86.571,37.446V26.057L52.578,12.56,18.389,26.427V38.968L.74,44.467Z" transform="translate(-0.74 -12.56)" fill="#fff"/>
        <path id="Path_288" data-name="Path 288" d="M55.771,172.379V25.191l-3.8.761-1.13-13.3L18.17,25.365V39.623L1.26,45.317v126.3Z" transform="translate(-0.13 -12.454)" fill="#81b5dc"/>
      </g>
      <g id="Layer_2" data-name="Layer 2" transform="translate(1.305 1)">
        <path id="Path_289" data-name="Path 289" d="M1,165.864V37.651l54.88-18.8L112.674,38.8v125.91" transform="translate(-1 19.947)" fill="none" stroke="#2a5d83" stroke-linecap="round" stroke-linejoin="round" stroke-width="2"/>
        <path id="Path_290" data-name="Path 290" d="M9.08,39.32V26.888L42.791,12.26,76.415,25.736V36.951" transform="translate(8.482 12.213)" fill="none" stroke="#2a5d83" stroke-linecap="round" stroke-linejoin="round" stroke-width="2"/>
        <line id="Line_72" data-name="Line 72" y2="15.671" transform="translate(51.077 24.43)" fill="none" stroke="#2a5d83" stroke-linecap="round" stroke-linejoin="round" stroke-width="2"/>
        <line id="Line_73" data-name="Line 73" y1="25.582" transform="translate(53.62)" fill="none" stroke="#2a5d83" stroke-linecap="round" stroke-linejoin="round" stroke-width="2"/>
        <line id="Line_74" data-name="Line 74" y2="145.102" transform="translate(54.511 38.797)" fill="none" stroke="#2a5d83" stroke-linecap="round" stroke-linejoin="round" stroke-width="2"/>
        <line id="Line_75" data-name="Line 75" x2="43.209" y2="13.389" transform="translate(62.575 60.075)" fill="none" stroke="#2a5d83" stroke-linecap="round" stroke-linejoin="round" stroke-width="2"/>
        <line id="Line_76" data-name="Line 76" x2="43.404" y2="11.585" transform="translate(62.662 77.159)" fill="none" stroke="#2a5d83" stroke-linecap="round" stroke-linejoin="round" stroke-width="2"/>
        <line id="Line_77" data-name="Line 77" x2="42.644" y2="9.585" transform="translate(63.053 93.416)" fill="none" stroke="#2a5d83" stroke-linecap="round" stroke-linejoin="round" stroke-width="2"/>
        <line id="Line_78" data-name="Line 78" x2="42.731" y2="8.085" transform="translate(63.248 109.544)" fill="none" stroke="#2a5d83" stroke-linecap="round" stroke-linejoin="round" stroke-width="2"/>
        <line id="Line_79" data-name="Line 79" x2="42.253" y2="6.651" transform="translate(62.857 126.54)" fill="none" stroke="#2a5d83" stroke-linecap="round" stroke-linejoin="round" stroke-width="2"/>
        <line id="Line_80" data-name="Line 80" x2="43.013" y2="4.956" transform="translate(62.857 143.819)" fill="none" stroke="#2a5d83" stroke-linecap="round" stroke-linejoin="round" stroke-width="2"/>
        <line id="Line_81" data-name="Line 81" x2="42.731" y2="3.695" transform="translate(62.488 161.403)" fill="none" stroke="#2a5d83" stroke-linecap="round" stroke-linejoin="round" stroke-width="2"/>
      </g>
    </g>
  </g>
</svg>
