<svg xmlns="http://www.w3.org/2000/svg" width="450.546" height="160.754" viewBox="0 0 450.546 160.754">
  <g id="Group_49" data-name="Group 49" transform="translate(-360.495 -2057)">
    <path id="Path_352" data-name="Path 352" d="M27.279-36.54H14.994a79.176,79.176,0,0,1-9.009-.378v9.576c2.646-.189,5.607-.315,9.009-.315H27.279v5.418H11.466a76.425,76.425,0,0,1-8.757-.378v9.7a78.737,78.737,0,0,1,8.757-.378H27.279v7.056c0,1.575-.567,2.016-2.331,2.016a98.782,98.782,0,0,1-10.08-.693A25.191,25.191,0,0,1,17.514,4.41c5.04.315,5.355.315,6.993.315.756,0,1.449.063,1.512.063h.945a19.527,19.527,0,0,0,7.623-1.449C36.414,2.268,37.3.252,37.3-3.213v-10.08H51.534a78.448,78.448,0,0,1,8.82.378v-9.7a76.917,76.917,0,0,1-8.82.378H37.3v-5.418H48.384c3.78,0,6.426.126,8.883.315v-9.576a79.943,79.943,0,0,1-9.009.378H37.3v-5.8a178.149,178.149,0,0,0,18.963-2.709l-6.741-8.946a41.766,41.766,0,0,1-8.694,2.142,197.534,197.534,0,0,1-31.059,2.2H5.544a36.14,36.14,0,0,1,3.024,8.757c8.19-.126,13.23-.315,18.711-.693ZM65.394-18.774a18.128,18.128,0,0,1,3.843-.441c.315,0,1.071-.063,2.268-.126.5,0,1.323-.063,2.268-.126V-1.008a40.346,40.346,0,0,1-.378,6.93h9.072a38.631,38.631,0,0,1-.378-6.93V-19.971c.819-.063.819-.063,2.52-.252a19.236,19.236,0,0,0,.315,2.2l4.914-1.827a37.621,37.621,0,0,1-.189,4.536h5.229c-.315,5.859-1.7,8.505-5.733,10.962-.126-4.1-.567-9.072-1.134-13.23L83.16-16.569a132.5,132.5,0,0,1,.945,16.38l2.709-.5A33.009,33.009,0,0,1,90.09,5.67c4.725-2.394,6.993-4.032,9.135-6.8,2.52-3.024,4.1-7.938,4.284-13.167a31.631,31.631,0,0,1,.315-5.04L97.965-19.4V-21.42h16.317V-19.4h-8.82a19.443,19.443,0,0,1,.252,3.654V-1.134c0,4.725,1.764,6.048,8.064,6.048,6.048,0,8.316-.756,9.387-3.087.819-1.638,1.2-4.158,1.638-10.71a29.437,29.437,0,0,1-7.623-2.835,55.835,55.835,0,0,1-.252,6.8c-.126.882-.567,1.2-1.638,1.2-.756,0-.945-.252-.945-.945V-15.309h9.072a37.981,37.981,0,0,1-.315-5.229v-3.78a32.437,32.437,0,0,1,.252-4.851,40.268,40.268,0,0,1-5.418.252H95a45.521,45.521,0,0,1-5.355-.189,40.255,40.255,0,0,1,.189,4.851v.819a94.233,94.233,0,0,0-2.961-10.773l-4.41,1.575q3.5-5.009,6.237-9.261v.756a69.729,69.729,0,0,1,7.371-.252h4.788v2.709H96.705a58.159,58.159,0,0,1-6.678-.252v8.064a54.851,54.851,0,0,1,6.615-.252h18.585a54.307,54.307,0,0,1,6.552.252v-8.064a57.606,57.606,0,0,1-6.615.252h-5.04v-2.709h6.237a64.779,64.779,0,0,1,7.245.252v-8.505a58.74,58.74,0,0,1-7.5.378h-5.985a17.808,17.808,0,0,1,.378-4.221h-9.954a24.567,24.567,0,0,1,.315,4.221h-4.6a58.479,58.479,0,0,1-7.56-.378v5.481l-6.111-3.276c-1.071,2.583-1.449,3.213-5.607,9.954-.693-.882-.693-.882-1.449-1.89a104.1,104.1,0,0,0,5.292-9.2c.819-1.638,1.008-1.953,1.449-2.709l-8.316-2.9a46.305,46.305,0,0,1-3.654,8.757l-1.764-2.016-4.1,7.938a80.188,80.188,0,0,1,7.686,9.387C71.19-28.854,71-28.6,70.182-27.468c-1.386.063-1.827.063-2.205.063a16.751,16.751,0,0,1-3.339-.252ZM81.837-31.815a26.074,26.074,0,0,1,1.134,3.906c-2.52.126-2.52.126-4.158.189C80.136-29.421,80.514-29.925,81.837-31.815ZM66.213-17.451c-.252,9.009-.63,12.474-1.89,17.325l6.174,3.4c1.26-6.174,1.7-10.458,1.953-20.1ZM148.491-30.24h.756c.189,0,.693,0,1.449.063,5.292.189,8.946.315,10.836.315,1.26,0,2.142,0,3.591-.063.063,2.2.063,3.087.126,5.229.126,2.961.126,3.276.189,5.04a18.462,18.462,0,0,0-3.654-.378c-3.969,0-7.308.882-9.7,2.583a11.1,11.1,0,0,0-4.788,9.261c0,7.308,5.481,11.718,14.742,11.718,8.064,0,13.545-3.591,13.545-8.946v-.5a31.946,31.946,0,0,1,7.5,5.985l3.969-10.71a8.094,8.094,0,0,1-1.2-.756,50.6,50.6,0,0,0-10.143-5.733c-.441-7.245-.5-8.5-.567-13.419,3.15-.378,5.985-.756,7.938-1.2a17.083,17.083,0,0,1,2.331-.378l-.378-10.017a58.718,58.718,0,0,1-10.017,1.953,73.6,73.6,0,0,1,.5-11.025l-10.9.063a17.332,17.332,0,0,1,.315,3.528v8.19c-2.142.063-3.213.063-4.536.063a56.236,56.236,0,0,1-11.781-1.008ZM165.69-9.2c0,2.52-1.386,3.654-4.41,3.654-2.52,0-4.158-1.071-4.158-2.709,0-1.764,1.764-2.9,4.662-2.9a10.121,10.121,0,0,1,3.843.756ZM134.631-51.471v.315a39.457,39.457,0,0,1-.756,5.481c-1.953,11.025-2.52,16.569-2.52,25.452a123.312,123.312,0,0,0,1.386,19.089c.441,3.843.441,3.843.5,4.977L143.892,3.4c-.126-1.386-.189-2.205-.189-2.52,0-8,.693-13.1,2.646-19.215L141.5-19.971a114.828,114.828,0,0,1,3.024-24.444,35.758,35.758,0,0,1,1.827-6.237Zm82.215,8.631c1.071,0,2.2.063,3.15.126,1.323,1.008,1.827,1.449,3.276,2.646-1.071-.063-1.134-.063-1.764-.126a45.126,45.126,0,0,1,.252,5.481v7.875a43.819,43.819,0,0,1-.252,5.481c1.638-.126,3.339-.189,6.363-.189h10.4V-4.725c0,1.26-.252,1.449-2.016,1.449-.693,0-1.386,0-2.457-.063v-11.34c0-2.331.063-3.969.189-5.292-1.512.126-3.15.189-5.481.189H212.31c-2.205,0-3.969-.063-5.418-.189.126,1.575.189,3.15.189,5.292V-1.764a45.348,45.348,0,0,1-.252,5.418h8.883V.882H228.5c.819,0,1.512,0,2.9.063a31.7,31.7,0,0,1,.63,4.473c1.071.063,1.89.063,2.205.063,6.3,0,8.127-.126,9.954-.819,2.142-.819,3.339-3.213,3.339-6.8V-32.823a73.471,73.471,0,0,1,.252-7.434,42.36,42.36,0,0,1-5.859.252c-.567-.945-.756-1.323-1.638-2.772h2.583a47.118,47.118,0,0,1,6.615.315V-50.9a50.2,50.2,0,0,1-7.119.315h-9.576c.441-1.008.441-1.008,1.008-2.268l-9.45-1.386a17.228,17.228,0,0,1-3.717,7.812v-4.536a34.748,34.748,0,0,1-6.048.378h-6.93c.567-1.26.567-1.26,1.071-2.268l-9.387-1.386c-1.449,4.473-4.221,7.938-9.2,11.34A24.859,24.859,0,0,1,193.6-39c.126,1.89.189,3.654.189,6.174V-2.772a65.245,65.245,0,0,1-.378,8.505h9.954a54.4,54.4,0,0,1-.315-7.812V-21.546h9.765c2.961,0,4.851.063,6.426.189a41.934,41.934,0,0,1-.252-5.481v-7.875a41.933,41.933,0,0,1,.252-5.481c-.945.063-2.079.126-3.906.189-.5-1.071-.819-1.575-1.512-2.835Zm-16.317,2.835a34.914,34.914,0,0,0,2.331-2.835h2.205c.63,1.323.819,1.7,1.26,2.835Zm27.153,0h-1.323a22.72,22.72,0,0,0,2.079-2.772h2.646c.567,1.008,1.008,1.827,1.512,2.772Zm-11.97,25.83h9.45v2.016h-9.45Zm0,7.119h9.45V-5.04h-9.45ZM203.049-34.461h7.182V-32.7h-7.182Zm0,6.174h7.182v1.764h-7.182Zm27.594-6.174h7.623V-32.7h-7.623Zm0,6.174h7.623v1.764h-7.623Zm47.691,13.356v2.646H261.891a58.86,58.86,0,0,1-7.5-.315v9.45a72.521,72.521,0,0,1,8.442-.378h15.5v2.52a41.29,41.29,0,0,1-.378,6.867h10.332a41.291,41.291,0,0,1-.378-6.867v-2.52h15.939a73.469,73.469,0,0,1,8.568.378V-12.6a54.262,54.262,0,0,1-7.434.315H287.91v-2.646H300.7c2.9,0,5.166.063,7.245.189a51.4,51.4,0,0,1-.315-6.741v-14.49a48.12,48.12,0,0,1,.315-7.056,44.678,44.678,0,0,1-5.418.252,78.949,78.949,0,0,0,5.1-7.749l-9.891-3.024a60.168,60.168,0,0,1-5.859,10.773H281.61l8.064-2.142a51.516,51.516,0,0,0-4.6-9.135l-9.45,2.079a42.95,42.95,0,0,1,4.347,9.2H267.624l6.111-2.142a47.4,47.4,0,0,0-5.607-8.379l-9.2,3.024a41.776,41.776,0,0,1,4.914,7.5c-2.142-.063-3.4-.126-4.851-.252a51.968,51.968,0,0,1,.315,7.056V-21.42a52.745,52.745,0,0,1-.315,6.678c2.142-.126,4.158-.189,7.182-.189Zm9.576-17.388v-2.646h10.206v2.646Zm-9.576,0h-9.513v-2.646h9.513Zm9.576,9.7v-2.709h10.206v2.709Zm-9.576,0h-9.513v-2.709h9.513ZM76.48,87.2C64,75.28,60.72,72.48,51.04,65.52c4.48-6,7.52-11.6,11.76-21.6,1.2-2.72,1.68-3.52,2.88-4.72L58.64,32c-2.16.8-2.64.8-6.4.88l-27.36.4c-2.32.08-3.84.08-4.48.08A59.267,59.267,0,0,1,12,32.8l.4,14.24a95.011,95.011,0,0,1,12.72-.8l20.8-.32A64.358,64.358,0,0,1,29.84,69.44,75.443,75.443,0,0,1,3.92,85.6a41.909,41.909,0,0,1,8.96,12.64c12.4-6,21.92-13.04,29.44-21.92A128.622,128.622,0,0,1,65.28,99.04Zm65.84-23.36a106.158,106.158,0,0,1,12.48.4V50.88c-3.6.48-5.6.56-12.72.56H97.52c-6.64,0-8.88-.08-12.32-.64V64.24a107.3,107.3,0,0,1,12.08-.4h16.4c-.64,12.8-6.96,19.92-21.6,24.24a36.954,36.954,0,0,1,9.36,12.64c11.04-4.48,17.04-9.04,21.44-16.24,3.6-6,5.12-11.28,5.76-20.64ZM93.36,43.76a103.68,103.68,0,0,1,12.16-.4H134c8.16,0,9.44.08,12.56.4V30.24c-3.52.56-5.36.64-12.8.64h-28c-6.96,0-8.8-.08-12.4-.64Zm76.48,5.52A102.05,102.05,0,0,1,176.96,70l12.48-3.76A100.784,100.784,0,0,0,181.68,46Zm17.76-3.44a94.127,94.127,0,0,1,7.2,20.08l12.24-3.76c-2.08-7.68-3.52-11.28-7.76-19.52Zm27.44-1.6a55.9,55.9,0,0,1-3.52,16.88c-4.96,13.28-13.68,21.28-29.76,27.52,4.48,4.4,6.08,6.4,8.8,11.28a108.313,108.313,0,0,0,9.68-5.36,58.147,58.147,0,0,0,16.8-16.24c4.48-6.64,7.6-14.8,10-26.08a32.173,32.173,0,0,1,1.2-4.88ZM260.56,34c-7.6,0-10-.08-13.44-.64v14.4a102.872,102.872,0,0,1,13.2-.48h33.44A49.9,49.9,0,0,1,280.4,71.04c-7.04,7.04-15.04,11.68-26.88,15.68,5.44,5.36,7.28,7.76,10.08,13.44,11.84-5.44,19.44-10.48,26.4-17.28,9.28-9.12,16.24-22.08,19.52-35.92a21.852,21.852,0,0,1,.72-2.88c5.2-.4,8.8-4.08,8.8-9.04a8.878,8.878,0,0,0-8.96-8.88c-4.56,0-7.92,2.96-8.88,7.76-.88.08-1.52.08-2.4.08Zm49.52-2.08a3.2,3.2,0,1,1-3.28,3.2A3.209,3.209,0,0,1,310.08,31.92Z" transform="translate(492 2113)" fill="#101010"/>
    <path id="Path_347" data-name="Path 347" d="M-60.506-18.751V-49.562L10.048-150.48H52.692V-51.8H71v33.044H52.692V10.274H14.513V-18.751Zm77.7-89.754L-20.317-51.8H17.192Z" transform="translate(421 2207.48)" fill="#0d68ac"/>
  </g>
</svg>
