<svg xmlns="http://www.w3.org/2000/svg" width="720.216" height="204.293" viewBox="0 0 720.216 204.293">
  <g id="Group_60" data-name="Group 60" transform="translate(-164.312 -340.728)">
    <path id="Path_350" data-name="Path 350" d="M39.032-32.928A38.87,38.87,0,0,1,35.448-27.5a61.588,61.588,0,0,1-8.736,8.848,86.875,86.875,0,0,0-9.688-8.9L9.352-22.176A83.489,83.489,0,0,1,20.608-11.032,94.4,94.4,0,0,1,31.416,3.584l8.4-6.552c-2.688-3.64-4.256-5.656-6.664-8.512C40.544-17.7,45.136-23.24,50.9-32.928c1.4-2.352,1.68-2.744,2.576-3.584L48.1-42.56A10.639,10.639,0,0,1,44.24-42l-30.688.056a70.446,70.446,0,0,1-9.24-.448v9.856c2.464-.224,4.424-.28,9.072-.28ZM61.1-35.448A59.808,59.808,0,0,1,76.328-23.632l6.608-8.736c-4.7-4.256-8.344-6.832-15.4-10.976ZM64.568,2.184c1.512-.448,1.848-.5,4.032-1.008,10.416-2.408,15.736-4.48,21.784-8.4,7.84-5.04,13.16-11.648,18.256-22.68-4.2-3.08-5.488-4.2-8.232-7.5A51.556,51.556,0,0,1,94.92-26.432,33.674,33.674,0,0,1,78.512-12.6,56.192,56.192,0,0,1,61.656-8.568ZM120.96-37.632a69.358,69.358,0,0,1,16.072,8.008l4.984-8.568a94.679,94.679,0,0,0-16.072-7.336ZM116.592-23.8a64.3,64.3,0,0,1,16.016,8.68l4.76-8.792a76.875,76.875,0,0,0-15.624-7.9Zm4.424,27.048a39.168,39.168,0,0,1,3.976-.9A73.821,73.821,0,0,0,135.184-.112c9.016-2.856,15.96-7.224,21.616-13.72,3.584-4.032,5.88-7.9,8.736-14.616-3.192-1.96-4.816-3.416-8.176-6.944a43.677,43.677,0,0,1-6.16,12.32,33.858,33.858,0,0,1-15.68,12.04,56.188,56.188,0,0,1-17.3,3.7Zm83.44-1.68V4.032H213.3c-.168-1.848-.28-4.368-.28-6.944v-26.1c0-1.736.056-3.808.112-5.208-1.512.112-2.352.168-5.04.168h-22.9a43.447,43.447,0,0,1-6.944-.392v8.288a49.86,49.86,0,0,1,6.944-.28h19.264v6.16H186.984c-2.632,0-4.592-.112-7.056-.336v8.12c1.792-.168,3.64-.224,7.056-.224h17.472V-6.1H184.632a39.961,39.961,0,0,1-6.944-.392V1.792c1.792-.168,3.808-.224,6.944-.224ZM229.1-35.448a59.808,59.808,0,0,1,15.232,11.816l6.608-8.736c-4.7-4.256-8.344-6.832-15.4-10.976Zm3.472,37.632c1.512-.448,1.848-.5,4.032-1.008,10.416-2.408,15.736-4.48,21.784-8.4,7.84-5.04,13.16-11.648,18.256-22.68-4.2-3.08-5.488-4.2-8.232-7.5a51.557,51.557,0,0,1-5.488,10.976A33.675,33.675,0,0,1,246.512-12.6a56.192,56.192,0,0,1-16.856,4.032Zm92.568-28.5a64.127,64.127,0,0,1,7.84.336v-9.408a73.7,73.7,0,0,1-7.9.336H312.312v-1.9c.112-7.28.112-7.28.448-9.464H302.512a32.709,32.709,0,0,1,.392,5.992c0,1.848,0,3.136-.056,5.376h-12.04a69.048,69.048,0,0,1-7.84-.336v9.408a55.46,55.46,0,0,1,7.9-.336H302.12a23.764,23.764,0,0,1-6.16,13.384c-3.752,4.2-8.064,7-14.728,9.576a38.447,38.447,0,0,1,5.432,8.4,49.209,49.209,0,0,0,5.824-2.968,42.583,42.583,0,0,0,9.52-8.008,35.283,35.283,0,0,0,6.384-10.136,39.309,39.309,0,0,0,8.792,12.488A47.785,47.785,0,0,0,329.672,5.04a36.562,36.562,0,0,1,5.6-9.016,40.5,40.5,0,0,1-14.5-9.128,34.309,34.309,0,0,1-8.176-13.216Zm30.744,7.112a39.052,39.052,0,0,1,4.536.224v-8.288a37.331,37.331,0,0,1-5.264.28h-1.344c.056-2.24.112-3.248.168-5.544h1.512a39.05,39.05,0,0,1,4.536.224v-8.064a37.819,37.819,0,0,1-5.264.28h-.728c.056-4.816.056-5.432.224-7.112h-8.848a38.4,38.4,0,0,1,.392,5.992v1.12h-1.456a38.167,38.167,0,0,1-5.32-.28v8.064c1.9-.168,3.192-.224,4.816-.224h1.9c-.056,3.416-.056,5.264-.056,5.544H343.56a37.68,37.68,0,0,1-5.32-.28v8.344a55.591,55.591,0,0,1,5.712-.28h1.176c-.952,7.168-3.416,11.928-8.176,15.736a42.483,42.483,0,0,1,5.992,7,30.9,30.9,0,0,0,8.568-13.664,27.327,27.327,0,0,0,5.824,7.168,44.749,44.749,0,0,1,4.536-7.616,30.318,30.318,0,0,1-8.064-8.624Zm18.7,6.16V.336c0,3.416,1.512,4.368,6.888,4.368,4.984,0,7.168-.728,8.176-2.632.784-1.456,1.12-4.088,1.288-9.968a17.946,17.946,0,0,1-6.16-2.968,54.745,54.745,0,0,1-.224,6.608c-.056.616-.448.9-1.232.9-.616,0-.84-.224-.84-.784v-8.9h.392c2.24.112,2.24.112,2.632.112h1.12a13.289,13.289,0,0,1,1.344.056c-.168-2.3-.224-3.192-.224-5.488V-40.376a45.906,45.906,0,0,1,.224-5.544c-1.344.112-2.3.168-5.432.168H367.08c-3.024,0-4.2-.056-5.432-.168a48.063,48.063,0,0,1,.168,5.488V-18.48c0,2.3,0,3.416-.112,5.6q2.856-.168,3.528-.168c-.784,6.048-3.7,9.632-10.192,12.6a30.839,30.839,0,0,1,6.048,6.272c5.824-3.36,8.848-6.888,10.584-12.264a28.164,28.164,0,0,0,1.232-6.608Zm-4.76-25.7h9.8v2.464h-9.8Zm0,8.176h9.8v2.408h-9.8Zm0,8.12h9.8v2.52h-9.8Zm41.608-15.736a14.777,14.777,0,0,1-2.856.224h-.84v-3.7a38.669,38.669,0,0,1,.28-5.824h-8.792a39.67,39.67,0,0,1,.336,5.824v3.7h-1.4a18,18,0,0,1-4.032-.28V-29.9a21.518,21.518,0,0,1,3.92-.28H399a37.832,37.832,0,0,1-6.16,14.616,49,49,0,0,1,2.744,9.576,27.252,27.252,0,0,0,4.144-8.68c0,.728-.056,2.52-.112,5.376v7.448a54.449,54.449,0,0,1-.392,7.224h8.848a65.9,65.9,0,0,1-.336-7.224V-13.664c0-2.016-.056-3.808-.168-5.768a19.375,19.375,0,0,0,2.408,4.648c1.736-4.592,1.792-4.7,3.08-6.832V-19.6a43.024,43.024,0,0,1-.168,4.424c1.68-.112,3.024-.168,4.648-.168h6.216V-13.5h-7.224a53.5,53.5,0,0,1-5.768-.28v7.728a54.428,54.428,0,0,1,5.656-.28h4.312c-2.408,2.352-6.5,3.808-12.656,4.536a26.969,26.969,0,0,1,4.032,7.28c7.616-1.792,12.208-4.144,15.512-8.064,3.976,4.368,8.9,6.888,15.848,8.12a35.726,35.726,0,0,1,3.248-8.008c-5.88-.392-10.36-1.736-12.768-3.864h6.216a47.586,47.586,0,0,1,5.88.336v-7.84a37.5,37.5,0,0,1-6.048.336h-8.12l.112-1.848h6.888c1.736,0,3.136.056,4.816.168a35.306,35.306,0,0,1-.224-4.592V-30.3a35.689,35.689,0,0,1,.224-4.648c-1.344.112-2.856.168-4.872.168V-36.96h1.4a55.477,55.477,0,0,1,5.768.224V-44.3a38.744,38.744,0,0,1-5.768.28h-1.4v-.392a12.09,12.09,0,0,1,.224-3.024h-8.568a11.878,11.878,0,0,1,.28,2.968v.448h-4.984v-.392a11.864,11.864,0,0,1,.224-3.024h-8.568a11.88,11.88,0,0,1,.28,2.968v.448h-1.456a46.2,46.2,0,0,1-4.816-.224Zm.112,1.344c.9-.056,2.184-.112,4.7-.112H417.7v2.184c-1.848,0-3.416-.056-4.816-.168.112,1.4.168,2.8.168,4.536v8.4a20.932,20.932,0,0,1-5.208-8.176h.9a24.2,24.2,0,0,1,2.8.168Zm19.208-.112v2.184h-4.984V-36.96Zm-9.8,7.672h14.336V-27.5H420.952Zm0,6.552h14.336v1.848H420.952ZM502.1-44.408a45.475,45.475,0,0,1-6.888.336H483.84l1.4-2.744-8.624-1.344a23.48,23.48,0,0,1-5.544,9.352h-6.608c.9-2.464,1.008-2.688,1.512-4.312.672-1.9.672-1.9.952-2.632l-8.848-2.24a35.637,35.637,0,0,1-1.624,6.608,37.306,37.306,0,0,1-7.9,14,48.9,48.9,0,0,1,3.136,9.968,19.709,19.709,0,0,0,2.464-3.64c-.056,1.624-.056,2.912-.056,5.152V-1.4a63.911,63.911,0,0,1-.336,6.5h8.456a65.484,65.484,0,0,1-.28-6.552V-32.648c1.064-2.464,1.288-2.968,1.792-4.2,0,1.12.056,2.072.056,3.64v24.08a36.44,36.44,0,0,1-.28,5.824h7.84c-.112-1.064-.168-2.52-.168-5.656v-8.008A23.266,23.266,0,0,1,474.1-12.04a41.3,41.3,0,0,0,11.592-4.7c1.064-.616,1.512-.952,3.864-2.576l-5.432-3.416c-2.632,2.352-6.664,3.976-12.936,5.264v-8.344a32.472,32.472,0,0,1,2.464,5.768,50.118,50.118,0,0,0,11.144-4.144c4.536,2.744,8.792,4.368,15.4,5.936a30.481,30.481,0,0,1,3.08-8.176,41.6,41.6,0,0,1-11.312-2.632,25.511,25.511,0,0,0,5.992-7.5,37.373,37.373,0,0,1,4.144.224ZM471.184-33.32a25.2,25.2,0,0,1,2.576,2.744c1.008-.84,1.4-1.232,2.016-1.792a32.186,32.186,0,0,0,2.744,3.248,43.551,43.551,0,0,1-7.336,2.072Zm17.92-3.248A17.466,17.466,0,0,1,485.3-32.76a24.231,24.231,0,0,1-4.032-3.808Zm7.672,22.456a22.471,22.471,0,0,1-5.488,5.152c-5.656,3.976-13.216,6.5-22.456,7.616A21.094,21.094,0,0,1,472.808,5.6,71.256,71.256,0,0,0,484.12,2.632,46.457,46.457,0,0,0,495.6-3.416a52.511,52.511,0,0,0,5.432-4.48c.9-.784,1.4-1.288,2.072-1.792ZM490.5-18.7a14.815,14.815,0,0,1-3.92,3.3c-3.976,2.688-8.96,4.536-15.288,5.656a20.962,20.962,0,0,1,3.472,5.656c7.224-1.736,12.1-3.864,16.8-7.336.728-.5,2.3-1.792,4.76-3.752Zm35.784,1.288v5.656q.924-.084,4.536-.168h22.624a32.8,32.8,0,0,1,4.536.224v-6.44c-1.12.112-1.9.168-3.64.224.616-1.288.672-1.456,1.12-2.52l-6.608-1.12a21.7,21.7,0,0,1-1.4,3.64H545.72v-3.92H553.5a32.939,32.939,0,0,1,4.48.224v-6.552a35.305,35.305,0,0,1-4.592.224H545.72v-1.568h5.488a44.031,44.031,0,0,1,4.536.168v-5.432a41.133,41.133,0,0,1-4.536.168H545.72v-1.624h7.336a40.625,40.625,0,0,1,4.48.168v-6.5a31.4,31.4,0,0,1-4.48.224h-.616c.616-1.064,1.12-2.016,1.96-3.752l-8.232-1.624a32.225,32.225,0,0,1-2.352,5.376h-3.584a39.745,39.745,0,0,0-2.8-5.264l-7.9,1.68a21.314,21.314,0,0,1,2.128,3.584h-.5a30.663,30.663,0,0,1-4.368-.224v3.416l-5.656-3.024c-.9,2.184-.9,2.184-4.872,8.736-.448-.672-.616-.84-1.12-1.512,1.456-2.352,3.7-6.44,4.984-9.016a11.278,11.278,0,0,1,.9-1.736l-7-2.576a34.893,34.893,0,0,1-3.36,7.616l-1.288-1.568-3.808,7a54.867,54.867,0,0,1,6.384,8.176q-1.68,2.352-1.848,2.52c-.9.056-1.176.056-1.344.056a14.787,14.787,0,0,1-3.024-.224l.616,7.9a16.073,16.073,0,0,1,3.248-.336c1.288-.056,2.184-.056,3.92-.168V-.952a45.872,45.872,0,0,1-.28,6.16h7.56a34.718,34.718,0,0,1-.336-6.16V-17.808l2.464-.28c.112.784.168,1.008.28,1.792Zm2.688-4.368,1.792-.056h7.224v3.92h-1.68a28.264,28.264,0,0,0-1.456-3.584L528.864-20.5a21.447,21.447,0,0,1,.952,2.576c-1.176,0-1.736,0-2.408-.056-.672-2.8-.672-2.8-.9-3.752.9-.056,1.008-.056,1.232-.056Zm9.016-6.16h-7.224a27.548,27.548,0,0,1-4.536-.224v5.488a61.62,61.62,0,0,0-2.408-7.28l-2.912.952c1.008-1.4,1.176-1.624,1.848-2.632.952-1.4,1.624-2.3,1.848-2.688,1.512-1.96,1.512-1.96,2.184-2.968v1.232a29.959,29.959,0,0,1,4.368-.168h6.832v1.624H532.5a42.557,42.557,0,0,1-4.536-.168v5.432a44.031,44.031,0,0,1,4.536-.168h5.488Zm-17.7-.224c.448,1.344.616,1.9,1.008,3.248-2.24.112-2.24.112-3.64.168C518.56-25.872,518.9-26.264,520.3-28.168ZM507.08-15.624A61.3,61.3,0,0,1,505.456-.112L510.72,2.8c1.12-5.6,1.456-9.24,1.736-17.472Zm14.28.84a97.2,97.2,0,0,1,.672,11.7V-.9l4.424-1.064a98.275,98.275,0,0,0-1.288-13.664ZM535.808,5.1V3.136h12.1V5.1h8.4a38.475,38.475,0,0,1-.28-5.432V-5.712a42.812,42.812,0,0,1,.224-4.816,33.274,33.274,0,0,1-4.928.168H532.336a40.06,40.06,0,0,1-4.816-.168c.112,1.232.168,2.8.168,4.816V-.336a36.059,36.059,0,0,1-.28,5.432Zm0-9.8h12.1V-2.52h-12.1Zm47.208-30.52V-7.336H570.752a77.946,77.946,0,0,1-8.736-.392v9.24a82.357,82.357,0,0,1,8.568-.392H605.36a76.476,76.476,0,0,1,8.624.392v-9.24a76.078,76.078,0,0,1-8.568.392H592.2V-35.224h11.2a67.759,67.759,0,0,1,7.952.336V-43.96a63.838,63.838,0,0,1-8.008.336H572.88a72.652,72.652,0,0,1-8.12-.336v9.072a67.083,67.083,0,0,1,8.008-.336Zm56.728,18.256H624.008a38.864,38.864,0,0,1-6.048-.28v6.328a39.2,39.2,0,0,1,6.16-.28h15.624v1.68H626.472a42.849,42.849,0,0,1-5.32-.168V-3.92a53.381,53.381,0,0,1,5.6-.224h12.992v1.4c0,1.008-.336,1.176-2.072,1.176-1.96,0-3.976-.168-6.944-.448a23.859,23.859,0,0,1,2.128,7.056c2.128.112,3.7.168,5.208.168,8.4,0,9.856-1.064,9.856-7.224V-4.144h10.248V-1.96h8.456a48.146,48.146,0,0,1-.28-6.328v-2.688a27.072,27.072,0,0,1,3.92.28v-6.832a18.8,18.8,0,0,1-3.92.336v-1.736a39.808,39.808,0,0,1,.168-5.152,45.134,45.134,0,0,1-5.712.168H647.92V-25.48h12.824c1.736,0,3.136.056,4.424.168A35.809,35.809,0,0,1,665-29.12v-3.7c0-1.792.056-2.744.168-4.032-1.344.112-2.52.168-4.816.168H647.92V-38.3h15.064a59.007,59.007,0,0,1,6.72.28v-7.112a60.851,60.851,0,0,1-7.28.336h-14.5a13.7,13.7,0,0,1,.336-2.8h-8.848a12.769,12.769,0,0,1,.336,2.8H625.576a61.258,61.258,0,0,1-7.336-.336v7.112a59.312,59.312,0,0,1,6.832-.28h14.672v1.624H627.816c-2.3,0-3.472-.056-5.04-.168.112,1.344.168,2.464.168,4.032v3.7a38.087,38.087,0,0,1-.168,3.808c1.4-.112,2.856-.168,4.872-.168h12.1v1.568H626.472a40.351,40.351,0,0,1-5.208-.224v5.656c1.512-.112,3.192-.168,5.1-.168h13.384Zm8.176,0v-1.68h10.248v1.68Zm0,5.768h10.248v1.68H647.92Zm-8.176-20.72v1.68h-8.736v-1.68Zm8.176,0h9.016v1.68H647.92ZM677.1-32.928h.84c.784,0,1.176,0,1.96.056,2.408.056,2.408.056,4.816.056H686.5c-.224.392-.224.392-1.064,1.792-.84,1.344-3.08,4.592-4.312,6.1a38.45,38.45,0,0,1-5.936,5.824L682.3-12.04A35.573,35.573,0,0,1,687.68-17.7c3.92-3.416,7.784-5.376,10.64-5.376a2.313,2.313,0,0,1,2.24,1.4c-2.24,1.008-2.8,1.232-4.144,1.9a24.667,24.667,0,0,0-8.064,5.992,10.418,10.418,0,0,0-2.744,7.056,9,9,0,0,0,4.424,7.952c3.024,1.792,7,2.576,13.328,2.576a110.52,110.52,0,0,0,13.5-.84,36.171,36.171,0,0,1,4.984-.5l-.616-10.08a53.038,53.038,0,0,1-17.92,2.8c-5.432,0-7.5-.84-7.5-2.968a3.864,3.864,0,0,1,1.456-2.856c1.008-.9,1.344-1.12,3.92-2.352l.5-.224a45.97,45.97,0,0,1-.28,5.936l9.128-.28a34.741,34.741,0,0,1-.224-4.816c0-2.464,0-2.52-.056-4.032a92.622,92.622,0,0,1,14.28-3.808l-3.416-8.848a23.483,23.483,0,0,1-4.48,1.68c-1.792.56-3.3,1.064-3.472,1.12-2.968,1.008-2.968,1.008-3.92,1.344-1.12-3.64-3.92-5.432-8.568-5.432a16.524,16.524,0,0,0-7.112,1.68,30.336,30.336,0,0,0,2.688-4.144c5.712-.168,12.712-.56,16.688-.952q2.436-.252,5.04-.5l-.336-8.9a82.081,82.081,0,0,1-14.168,1.792c-2.856.168-2.856.168-3.416.224.056-.112.392-1.008,1.12-2.632a16.277,16.277,0,0,1,1.176-2.632L692.1-47.208a20.265,20.265,0,0,1-1.736,6.216H688.8c-5.824,0-9.184-.224-11.592-.784Z" transform="translate(160 389)" fill="#08406a"/>
    <path id="Path_349" data-name="Path 349" d="M64.02-42.292a81.9,81.9,0,0,1-20.079,2.231H41.9c.388-3.2.485-3.977.679-5.238a40.812,40.812,0,0,0,.679-4.753,144.418,144.418,0,0,0,15.908-.679c4.753-.388,4.753-.388,6.984-.582l.582-16.1c-5.917,1.455-11.543,2.134-21.049,2.425,1.358-8.924,1.746-11.058,2.813-14.162L30.555-80.607v1.358A85.481,85.481,0,0,1,29.1-65.378c-7.663-.776-13.289-1.843-17.557-3.3L10.476-53.641c1.455.291,2.037.388,3.492.679a130.227,130.227,0,0,0,13.386,2.231C26.578-45.3,26.093-42,26-41.031c-8.827-1.067-12.416-1.746-16.878-3.4L7.954-28.906a23.8,23.8,0,0,1,4.171.582,106.468,106.468,0,0,0,12.513,1.94c-.194,2.91-.291,5.044-.291,7.178,0,7.954,2.134,13.677,6.79,18.042C36.666,3.88,44.523,6.5,54.514,6.5c9.506,0,17.557-2.328,23.571-6.887a24.13,24.13,0,0,0,9.894-19.206c0-7.954-2.425-14.453-8.051-21.728a50.463,50.463,0,0,1-16.005,3.1Zm-.1,5.238C68.676-31.816,71.1-26.578,71.1-21.631c0,7.76-6.305,12.416-16.878,12.416-4.559,0-8.148-1.067-10.476-3.2-2.037-1.843-3.007-4.462-3.007-8.342,0-1.552.1-3.4.194-4.656,2.716.1,3.4.1,4.365.1a128.272,128.272,0,0,0,15.229-.97c2.037-.291,2.134-.291,3.1-.388Zm38.024.679v19.5h19.594v-19.5ZM141.135-32.4c3.492-1.358,5.626-1.94,12.125-3.4,10.864-2.425,18.915-3.589,25.414-3.589,8.827,0,13.968,3.589,13.968,9.7a13.717,13.717,0,0,1-1.164,5.723c-1.94,4.462-7.275,8.439-13.871,10.476a77,77,0,0,1-23.571,3.2c3.589,6.305,4.753,9.506,5.917,15.52,13.58-1.552,15.326-1.843,22.019-3.88,17.266-5.238,26.869-16.3,26.869-31.137,0-7.76-2.813-14.162-8.051-18.333s-11.737-6.014-21.243-6.014c-7.857,0-17.072,1.164-30.458,3.88-7.76,1.455-7.76,1.455-11.155,1.843Zm87.2-3.977v19.5h19.594v-19.5Zm51.6-42.1a48.633,48.633,0,0,1,1.552,6.4c2.91,14.744,3.4,17.072,5.723,25.511-5.917,3.007-8.73,4.656-12.125,7.372A25.993,25.993,0,0,0,265.1-19.206c0,7.663,3.395,14.647,8.924,18.236,6.4,4.074,16.2,6.111,30.167,6.111a216.357,216.357,0,0,0,24.444-1.649c4.947-.582,6.014-.679,8.439-.776l-1.261-18.43a42.345,42.345,0,0,1-5.141,1.455,141.637,141.637,0,0,1-28.421,3.1c-13.483,0-19.3-2.619-19.3-8.536,0-5.723,6.4-10.864,18.818-15.229,11.543-3.977,25.123-7.566,34.726-9.021l-5.529-17.266a19.567,19.567,0,0,1-3.977,1.455c-3.492,1.067-3.492,1.067-12.707,3.783-3.977,1.067-6.79,2.037-11.155,3.589-2.91-10.67-5.141-22.31-5.529-28.712Zm74.787,42.1v19.5h19.594v-19.5ZM422.047-65.96c1.649,0,3.4.1,4.85.194,2.037,1.552,2.813,2.231,5.044,4.074-1.649-.1-1.746-.1-2.716-.194a69.48,69.48,0,0,1,.388,8.439v12.125a67.469,67.469,0,0,1-.388,8.439c2.522-.194,5.141-.291,9.8-.291h16.005v25.9c0,1.94-.388,2.231-3.1,2.231-1.067,0-2.134,0-3.783-.1V-22.6c0-3.589.1-6.111.291-8.148-2.328.194-4.85.291-8.439.291H415.063c-3.4,0-6.111-.1-8.342-.291.194,2.425.291,4.85.291,8.148V-2.716a69.821,69.821,0,0,1-.388,8.342H420.3V1.358h19.691c1.261,0,2.328,0,4.462.1a48.818,48.818,0,0,1,.97,6.887c1.649.1,2.91.1,3.395.1,9.7,0,12.513-.194,15.326-1.261,3.3-1.261,5.141-4.947,5.141-10.476V-50.537a113.131,113.131,0,0,1,.388-11.446,65.222,65.222,0,0,1-9.021.388c-.873-1.455-1.164-2.037-2.522-4.268h3.977a72.546,72.546,0,0,1,10.185.485v-13a77.3,77.3,0,0,1-10.961.485H446.588c.679-1.552.679-1.552,1.552-3.492l-14.55-2.134a26.525,26.525,0,0,1-5.723,12.028v-6.984a53.5,53.5,0,0,1-9.312.582h-10.67c.873-1.94.873-1.94,1.649-3.492l-14.453-2.134c-2.231,6.887-6.5,12.222-14.162,17.46a38.276,38.276,0,0,1,5.335,6.014c.194,2.91.291,5.626.291,9.506V-4.268a100.455,100.455,0,0,1-.582,13.1h15.326C400.9,6.111,400.8,3.395,400.8-3.2V-33.174h15.035c4.559,0,7.469.1,9.894.291a64.57,64.57,0,0,1-.388-8.439V-53.447a64.57,64.57,0,0,1,.388-8.439c-1.455.1-3.2.194-6.014.291-.776-1.649-1.261-2.425-2.328-4.365ZM396.924-61.6a53.757,53.757,0,0,0,3.589-4.365h3.4c.97,2.037,1.261,2.619,1.94,4.365Zm41.807,0h-2.037a34.982,34.982,0,0,0,3.2-4.268h4.074c.873,1.552,1.552,2.813,2.328,4.268ZM420.3-21.825h14.55v3.1H420.3Zm0,10.961h14.55v3.1H420.3Zm-19.5-42.2h11.058v2.716H400.8Zm0,9.506h11.058v2.716H400.8Zm42.486-9.506h11.737v2.716H443.29Zm0,9.506h11.737v2.716H443.29Zm37.83,7.178v19.5h19.594v-19.5Zm64.99,13.386v4.074H520.793A90.626,90.626,0,0,1,509.25-19.4V-4.85a111.659,111.659,0,0,1,13-.582H546.11v3.88a63.576,63.576,0,0,1-.582,10.573h15.908a63.576,63.576,0,0,1-.582-10.573v-3.88h24.541a113.12,113.12,0,0,1,13.192.582V-19.4a83.547,83.547,0,0,1-11.446.485H560.854v-4.074h19.691c4.462,0,7.954.1,11.155.291a79.14,79.14,0,0,1-.485-10.379v-22.31a74.086,74.086,0,0,1,.485-10.864,68.79,68.79,0,0,1-8.342.388,121.56,121.56,0,0,0,7.857-11.931L575.986-82.45a92.637,92.637,0,0,1-9.021,16.587H551.154l12.416-3.3a79.313,79.313,0,0,0-7.081-14.065l-14.55,3.2c3.783,6.5,5.044,9.312,6.693,14.162H529.62l9.409-3.3a72.98,72.98,0,0,0-8.633-12.9l-14.162,4.656A64.324,64.324,0,0,1,523.8-65.863c-3.3-.1-5.238-.194-7.469-.388a80.01,80.01,0,0,1,.485,10.864V-32.98a81.206,81.206,0,0,1-.485,10.282c3.3-.194,6.4-.291,11.058-.291Zm14.744-26.772v-4.074h15.714v4.074Zm-14.744,0H531.463v-4.074H546.11Zm14.744,14.938v-4.171h15.714v4.171Zm-14.744,0H531.463v-4.171H546.11Zm61.4-1.552v19.5H627.1v-19.5Zm38.7-42.1c-.194,2.91-.291,3.589-1.455,10.379a209.808,209.808,0,0,0-3.686,37.345c0,9.215.679,17.654,2.522,30.652a38.969,38.969,0,0,1,.485,5.141l16.684-.776a27.151,27.151,0,0,1-.291-4.753,95.712,95.712,0,0,1,3.783-27.16l-7.469-2.522c.679-17.654,3.589-35.793,7.372-46.851Zm25.414,25.22c1.358.1,2.037.1,2.813.194a160.049,160.049,0,0,0,16.684.776c6.693,0,13.774-.388,20.467-1.067,5.335-.582,6.3-.679,7.178-.679l-.679-16.587c-6.5,1.649-16.005,2.425-28.906,2.425a81.022,81.022,0,0,1-17.266-1.455Zm5.723,12.9c-2.619,3.783-3.2,4.753-4.559,6.984a30.4,30.4,0,0,0-4.656,15.132A17.969,17.969,0,0,0,677.06-2.813C682.1,0,688.118,1.261,697.139,1.261A118.783,118.783,0,0,0,713.92,0c5.723-.873,5.723-.873,8.245-1.164l-.97-17.169a72.089,72.089,0,0,1-24.153,3.977c-8.245,0-12.61-2.425-12.61-6.887,0-3.492,2.037-7.663,6.5-13.386Z" transform="translate(160 536)" fill="#08406a"/>
  </g>
</svg>
