<svg xmlns="http://www.w3.org/2000/svg" width="131" height="131" viewBox="0 0 131 131">
  <g id="Group_32" data-name="Group 32" transform="translate(-616 -1486)">
    <g id="Ellipse_4" data-name="Ellipse 4" transform="translate(616 1486)" fill="#0d68ac" stroke="#fff" stroke-width="4">
      <circle cx="65.5" cy="65.5" r="65.5" stroke="none"/>
      <circle cx="65.5" cy="65.5" r="63.5" fill="none"/>
    </g>
    <path id="Path_354" data-name="Path 354" d="M-5.684-3.78a10.061,10.061,0,0,1-.91,3.332,3.636,3.636,0,0,1,.812.392,12.321,12.321,0,0,0,.994-3.556Zm3.038.2a13.943,13.943,0,0,1,.9,2.716l.826-.28a12.128,12.128,0,0,0-.938-2.688ZM-3-6.9A13.09,13.09,0,0,1-2.31-5.656c-.77.028-1.54.07-2.24.1a45.217,45.217,0,0,0,2.9-4.172l-.9-.392c-.392.756-.924,1.666-1.5,2.548A9.853,9.853,0,0,0-4.9-8.54a25.192,25.192,0,0,0,1.6-2.814l-.924-.35A19.109,19.109,0,0,1-5.474-9.1c-.14-.126-.28-.252-.42-.364l-.532.686a12.718,12.718,0,0,1,1.834,2A13.748,13.748,0,0,1-5.53-5.53c-.322.014-.644.028-.924.028l.084.938,2.282-.112V1.092h.938V-4.732l1.218-.07a4.831,4.831,0,0,1,.266.8L-.84-4.4A11.967,11.967,0,0,0-2.226-7.238ZM6.1-9.2H.966A17.783,17.783,0,0,0,1.82-11.48L.77-11.718A12.309,12.309,0,0,1-1.722-6.874a7.382,7.382,0,0,1,.91.616,11.081,11.081,0,0,0,1.3-1.96H5.082c-.21,5.46-.448,7.588-.91,8.064a.687.687,0,0,1-.6.21c-.35,0-1.2,0-2.142-.084A2.382,2.382,0,0,1,1.764.994a16.377,16.377,0,0,0,2.156.028A1.44,1.44,0,0,0,5.082.462c.574-.686.77-2.856,1.022-9.128ZM2.968-2.982a14.156,14.156,0,0,0-1.96-3.192l-.84.406a14.99,14.99,0,0,1,1.89,3.262Z" transform="translate(682 1511)" fill="#fff"/>
    <path id="Path_353" data-name="Path 353" d="M-9.66-10.444a10.149,10.149,0,0,0-2.324-1.344l-.938,1.232A8.927,8.927,0,0,1-10.654-9.1Zm-.686,3.7a8.792,8.792,0,0,0-2.31-1.274l-.91,1.232A9.161,9.161,0,0,1-11.326-5.4Zm-1.33,2.2A39.468,39.468,0,0,1-13.5.1l1.512.826c.574-1.4,1.176-3.066,1.652-4.606Zm5.74.2v1.5H-6.9v-1.5ZM-4.83-1.638v-3.92H-7.994V-.882H-6.9v-.756ZM-4.942-7.56H-7.924v1.218h2.982Zm2.814.126A15.83,15.83,0,0,1-2.9-4.788c-.126-1.05-.224-2.254-.294-3.556H-.658v-1.47h-.574l.686-.672A7.4,7.4,0,0,0-2.338-11.83l-.9.84A9.043,9.043,0,0,1-1.68-9.814H-3.262Q-3.3-10.738-3.3-11.7H-4.83c.014.644.028,1.274.056,1.89H-9.842v3.906c0,1.89-.1,4.466-1.162,6.272a5.409,5.409,0,0,1,1.246.84c1.176-1.96,1.372-5.012,1.372-7.112V-8.344H-4.7a41.811,41.811,0,0,0,.616,5.838A8.647,8.647,0,0,1-6.762.056,8.772,8.772,0,0,1-5.67,1.12,10.444,10.444,0,0,0-3.626-.77C-3.192.476-2.6,1.162-1.834,1.176c.574,0,1.26-.546,1.61-3.094A4.454,4.454,0,0,1-1.4-2.772c-.07,1.288-.21,2-.406,1.988C-2.058-.8-2.3-1.372-2.52-2.366A17.228,17.228,0,0,0-.7-7.168Zm13.58.588H8.68V-7.7h2.772Zm0,2H8.68V-5.7h2.772Zm0,2.044H8.68v-.868h2.772ZM7.182-8.946v7.378H13.02V-8.946H10.542c.112-.294.224-.616.336-.952H13.3v-1.414H6.762V-9.9H9.114c-.056.308-.112.644-.168.952ZM1.988-9.408H5.334v.966H6.72V-10.7H4.438V-11.83H2.884V-10.7H.644v2.254H1.988ZM4.508-.882H2.814V-2.17H4.508ZM2.842-3.458a10.179,10.179,0,0,0,1.176-.91c.42.322.84.63,1.19.91Zm1.68-3.724a5.983,5.983,0,0,1-.686.994l-.966-.63c.1-.126.2-.238.294-.364Zm1.4,4.312.028.028L6.888-4a21.993,21.993,0,0,0-1.9-1.4A8.146,8.146,0,0,0,6.37-7.924l-.938-.434-.252.07h-1.3A5.526,5.526,0,0,0,4.2-8.932L2.842-9.268A6.732,6.732,0,0,1,.28-6.342a6.28,6.28,0,0,1,1.05.966,6.412,6.412,0,0,0,.6-.476l.924.644A8.3,8.3,0,0,1,.28-3.738a4.806,4.806,0,0,1,.84,1.19l.294-.126V.952h1.4V.392H5.922a9.875,9.875,0,0,1,.77.8A9.955,9.955,0,0,0,9.674-.672L8.33-1.512A7.934,7.934,0,0,1,5.922.028ZM10.29-.686a15.427,15.427,0,0,1,2.184,1.918L13.762.378a17.624,17.624,0,0,0-2.268-1.82Z" transform="translate(682 1600)" fill="#fff"/>
    <path id="Path_352" data-name="Path 352" d="M-45.377-7.535q1.87-1.485,1.7-1.375,5.39-4.455,8.5-7.315a35.18,35.18,0,0,0,5.253-6,10.833,10.833,0,0,0,2.145-6.105,5.374,5.374,0,0,0-1.045-3.52,3.831,3.831,0,0,0-3.135-1.265,3.87,3.87,0,0,0-3.273,1.568,7.227,7.227,0,0,0-1.182,4.427h-9.075a15.577,15.577,0,0,1,2.007-7.81,11.661,11.661,0,0,1,5.005-4.62,15.8,15.8,0,0,1,6.9-1.485q6.545,0,9.873,3.355a11.882,11.882,0,0,1,3.327,8.745,17.152,17.152,0,0,1-4.015,10.917A59.13,59.13,0,0,1-32.617-8.2h14.85V-.55h-27.61ZM-7.042-21.56a9.132,9.132,0,0,1-5.17-8.635,9.968,9.968,0,0,1,1.54-5.418A10.609,10.609,0,0,1-6-39.518a18.2,18.2,0,0,1,7.7-1.458,18.014,18.014,0,0,1,7.673,1.458,10.63,10.63,0,0,1,4.648,3.9,9.968,9.968,0,0,1,1.54,5.418,9.409,9.409,0,0,1-1.4,5.17,9.945,9.945,0,0,1-3.767,3.465,10.821,10.821,0,0,1,4.565,3.933,10.662,10.662,0,0,1,1.6,5.858,11.461,11.461,0,0,1-1.98,6.738A12.522,12.522,0,0,1,9.21-.715,18.478,18.478,0,0,1,1.7.77,18.478,18.478,0,0,1-5.8-.715a12.522,12.522,0,0,1-5.363-4.318,11.461,11.461,0,0,1-1.98-6.738,10.764,10.764,0,0,1,1.6-5.913A10.52,10.52,0,0,1-7.042-21.56Zm13.475-7.2A4.607,4.607,0,0,0,5.14-32.258,4.763,4.763,0,0,0,1.7-33.5,4.7,4.7,0,0,0-1.735-32.23a4.7,4.7,0,0,0-1.292,3.52,4.412,4.412,0,0,0,1.32,3.382A4.785,4.785,0,0,0,1.7-24.09a4.725,4.725,0,0,0,3.41-1.265A4.5,4.5,0,0,0,6.433-28.765ZM1.7-17.49a6.1,6.1,0,0,0-4.18,1.4A4.894,4.894,0,0,0-4.072-12.21,5,5,0,0,0-2.5-8.415,5.867,5.867,0,0,0,1.7-6.93,5.671,5.671,0,0,0,5.855-8.415a5.09,5.09,0,0,0,1.513-3.8A4.955,4.955,0,0,0,5.8-16.06,5.843,5.843,0,0,0,1.7-17.49Zm25.6-4.18a4.329,4.329,0,0,1,3.6,1.6,6.075,6.075,0,0,1,1.162,3.91,5.968,5.968,0,0,1-1.49,4.361A4.395,4.395,0,0,1,27.3-10.527a4.265,4.265,0,0,1-3.568-1.654A6.32,6.32,0,0,1,22.6-16.133a5.835,5.835,0,0,1,1.477-4.307A4.363,4.363,0,0,1,27.3-21.67Zm0,1.928q-2.01,0-2.01,3.609,0,3.705,2.01,3.705,2.037,0,2.037-3.705Q29.339-19.742,27.3-19.742Zm12.4,9.051a4.284,4.284,0,0,1,3.555,1.6,6.125,6.125,0,0,1,1.148,3.91A6,6,0,0,1,42.929-.82,4.343,4.343,0,0,1,39.7.451,4.285,4.285,0,0,1,36.093-1.2a6.349,6.349,0,0,1-1.148-3.979,5.767,5.767,0,0,1,1.477-4.279A4.463,4.463,0,0,1,39.7-10.691Zm0,1.9q-2.037,0-2.037,3.637,0,3.705,2.037,3.705,2.01,0,2.01-3.705Q41.712-8.791,39.7-8.791ZM25.237.779,24.089-.109,41.7-22.066l1.121.93Z" transform="translate(682 1571)" fill="#fffb93"/>
  </g>
</svg>
