<svg xmlns="http://www.w3.org/2000/svg" width="44.527" height="44.527" viewBox="0 0 44.527 44.527">
  <path id="Icon_awesome-phone" data-name="Icon awesome-phone" d="M1.617,2.14,10.661.052a2.1,2.1,0,0,1,2.392,1.209L17.227,11a2.082,2.082,0,0,1-.6,2.435l-5.27,4.313a32.23,32.23,0,0,0,15.41,15.41l4.313-5.27a2.085,2.085,0,0,1,2.435-.6l9.74,4.174a2.112,2.112,0,0,1,1.218,2.4l-2.087,9.044a2.087,2.087,0,0,1-2.035,1.618A40.347,40.347,0,0,1,0,4.175,2.085,2.085,0,0,1,1.617,2.14Z" transform="translate(0.001 0.001)" fill="#01abab"/>
</svg>
