<svg xmlns="http://www.w3.org/2000/svg" width="264.616" height="342.396" viewBox="0 0 264.616 342.396">
  <g id="Asset_4" data-name="Asset 4" transform="translate(0 0.098)">
    <g id="Layer_3" data-name="Layer 3" transform="translate(22.164 1.001)">
      <path id="Path_599" data-name="Path 599" d="M37.06,157.306c-.669,9.15-11.234,17.748-8.334,28.624s13.045,21.736,13.045,21.736,1.99,13.4,12.858,20.469S73.108,232.3,73.108,232.3s4.532,12.68,17.025,15.4,32.97-1.99,32.97-1.99,15.937,7.79,25.724,7.611a72.986,72.986,0,0,0,15.4-1.633s7.611,1.633,13.589.723a62.031,62.031,0,0,0,9.236-1.99s4.89,11.957,23.913,1.99,20.648-21.558,20.648-21.558,11.412-5.978,10.324-15.4-6.88-21.736-3.988-27.893,30.435-37.494,31.7-78.619S236.5,20.365,201.715,9.132C165.309-5.9,107.882.44,76.544,23.8S30.88,83.3,28.9,102.786c-3.079,30.435,8.878,44.561,8.155,54.527Z" transform="translate(-28.223 -1.001)" fill="#7fd5d5"/>
      <path id="Path_600" data-name="Path 600" d="M67.255,140.9,63.089,153.95s-1.811-2.721-6.88-2.177S42.441,161.2,49.142,173.33,63.454,184.2,63.454,184.743s21.915,49.272,61.773,56.339,70.83-8.334,97.635-43.838c0,0,21.558-.544,28.08-16.123s-5.8-22.1-19.2-14.491c0,0-47.1-40.036-48.184-85.5,0,0-38.855,43.2-116.292,59.775Z" transform="translate(-32.337 -18.837)" fill="#fff"/>
      <path id="Path_601" data-name="Path 601" d="M109.906,407.649c.544.008,81.511,1.446,81.511,1.446s20.835-2.356,20.29-2.721-4.167-40.938-13.589-65.94-11.412-38.762-41.482-39.127-44.561,11.957-54.341,41.848-13.045,53.252-8.334,58.508,8.87,5.854,15.937,5.978Z" transform="translate(-42.383 -67.845)" fill="#f1fbfc"/>
      <path id="Path_602" data-name="Path 602" d="M147.912,319.114s-7.968-13.4-9.966-15.579.544-4.89,3.257-3.444,6.7-1.088,10.689-5.8,11.412-4.532,20.648.723,6.344,9.236,2.9,16.123a74.683,74.683,0,0,1-8.691,13.045,14.936,14.936,0,0,0-9.236-4.711,48.655,48.655,0,0,0-9.6-.365Z" transform="translate(-52.488 -65.532)" fill="#fff"/>
      <path id="Path_603" data-name="Path 603" d="M232.189,182.594c0-.249,2.6-8.093,5.4-16.512-.474.233-.941.482-1.423.754,0,0-45.471-39.306-46.551-84.776,0,0-46.372,44.382-117.925,59.052l-4.167,13.045a4.053,4.053,0,0,0-.886-.863l1.43,5.939S232.189,183.146,232.189,182.6Z" transform="translate(-36.775 -19.044)" fill="#f5f5f5"/>
    </g>
    <g id="Layer_2" data-name="Layer 2" transform="translate(1 1.001)">
      <path id="Path_604" data-name="Path 604" d="M176.713,252.546c.365-.039.731-.086,1.088-.14a62.035,62.035,0,0,0,9.236-1.99s4.89,11.957,23.913,1.99S231.6,230.848,231.6,230.848s11.412-5.978,10.324-15.4-6.88-21.736-3.988-27.893,30.435-37.494,31.7-78.619-33.141-88.57-67.922-99.8C165.309-5.9,107.882.44,76.544,23.8S30.88,83.3,28.9,102.786c-3.079,30.435,8.878,44.561,8.155,54.527-.669,9.15-11.234,17.748-8.334,28.624s13.045,21.736,13.045,21.736,1.99,13.4,12.858,20.469,18.479,4.167,18.479,4.167,4.532,12.68,17.025,15.4c4.688,1.018,10.495,1,15.921.56" transform="translate(-7.06 -1.001)" fill="none" stroke="#01abab" stroke-linecap="round" stroke-linejoin="round" stroke-width="2"/>
      <path id="Path_605" data-name="Path 605" d="M72.05,141.636s95.466-27.349,116.114-60.506c0,0,9.78,64.851,50.36,85.5,0,0-7.79,28.624-22.28,45.649s-42.928,37.137-80.431,30.249-83.144-49.272-63.763-100.9Z" transform="translate(-15.789 -18.837)" fill="none" stroke="#01abab" stroke-linecap="round" stroke-linejoin="round" stroke-width="2"/>
      <path id="Path_606" data-name="Path 606" d="M281.639,191.187s6.157-6.04,11.047-5.372,12.128,2.4,7.424,19.684-30.84,18.4-30.84,18.4" transform="translate(-60.715 -42.128)" fill="none" stroke="#01abab" stroke-linecap="round" stroke-linejoin="round" stroke-width="2"/>
      <path id="Path_607" data-name="Path 607" d="M62.749,174.5s-2.635-2.177-8.614-1.811S42.545,181.38,49.79,193.88s16.077,12.571,16.077,12.571" transform="translate(-11.099 -39.208)" fill="none" stroke="#01abab" stroke-linecap="round" stroke-linejoin="round" stroke-width="2"/>
      <path id="Path_608" data-name="Path 608" d="M92.48,149.656s8.155,6.7,24.457-2.356" transform="translate(-21.363 -33.566)" fill="none" stroke="#01abab" stroke-linecap="round" stroke-linejoin="round" stroke-width="2"/>
      <path id="Path_609" data-name="Path 609" d="M221.33,163.15s6.88,13.224,19.746,14.125" transform="translate(-50.044 -37.094)" fill="none" stroke="#01abab" stroke-linecap="round" stroke-linejoin="round" stroke-width="2"/>
      <path id="Path_610" data-name="Path 610" d="M220.6,194.362c7.549,1,11.778,10.308,8.513,19.552s-8.878,9.78-15.937,7.424-6.522-11.591-3.988-18.837,7.424-8.668,11.412-8.139Z" transform="translate(-46.957 -44.02)" fill="#01abab"/>
      <path id="Path_611" data-name="Path 611" d="M105.839,175.363c6.072,1.267,8.691,8.2,7.067,17.08s-6.88,12.252-14.856,10.021-8.691-11.109-5.978-17.632,7.7-10.744,13.768-9.477Z" transform="translate(-20.954 -39.761)" fill="#01abab"/>
      <path id="Path_612" data-name="Path 612" d="M116.01,186.246c2.806.3,11.234,1.99,14.856-2.356" transform="translate(-26.6 -41.711)" fill="none" stroke="#01abab" stroke-linecap="round" stroke-linejoin="round" stroke-width="2"/>
      <path id="Path_613" data-name="Path 613" d="M230.42,203.046c4.043.77,11.234,1.267,15.758-1.446" transform="translate(-52.067 -45.653)" fill="none" stroke="#01abab" stroke-linecap="round" stroke-linejoin="round" stroke-width="2"/>
      <path id="Path_614" data-name="Path 614" d="M146.07,216.13a3.8,3.8,0,0,0,4.167,4" transform="translate(-33.291 -48.887)" fill="none" stroke="#01abab" stroke-linecap="round" stroke-linejoin="round" stroke-width="2"/>
      <path id="Path_615" data-name="Path 615" d="M147.24,247.03s9.422-.179,17.025,4.711" transform="translate(-33.552 -55.765)" fill="none" stroke="#01abab" stroke-linecap="round" stroke-linejoin="round" stroke-width="2"/>
      <path id="Path_616" data-name="Path 616" d="M115.463,365.767s3.079-13.768,11.234-25S139.2,324.1,139.2,324.1s6.88-1.811,11.957,0,7.385,7.245,7.385,7.245-14.67,26.269-21.534,42.75-15.33,27.17-23.237,31.7-20.578,8.513-21.309-6.88,3.623-61.952,36.593-89.666" transform="translate(-21.342 -69.615)" fill="none" stroke="#01abab" stroke-linecap="round" stroke-linejoin="round" stroke-width="2"/>
      <path id="Path_617" data-name="Path 617" d="M147.354,318.4s-8.513-15.4-9.057-17.212-.723-5.434,3.257-3.623,4.711,1.811,8.513-2.356,8.878-10.868,20.648-3.257,7.611,14.491,5.069,19.925-8.334,10.145-8.334,10.145" transform="translate(-31.497 -64.993)" fill="none" stroke="#01abab" stroke-linecap="round" stroke-linejoin="round" stroke-width="2"/>
      <path id="Path_618" data-name="Path 618" d="M191.97,303.89c3.444.723,11.412,1.99,22.825,21.558S234.362,381.6,232.543,406.6" transform="translate(-43.509 -68.422)" fill="none" stroke="#01abab" stroke-linecap="round" stroke-linejoin="round" stroke-width="2"/>
      <path id="Path_619" data-name="Path 619" d="M208.52,371.69s7.79,27.528,9.057,52.071" transform="translate(-47.193 -83.514)" fill="none" stroke="#01abab" stroke-linecap="round" stroke-linejoin="round" stroke-width="2"/>
      <path id="Path_620" data-name="Path 620" d="M37.346,290.53a17.228,17.228,0,0,0-5.216,9.578,30.429,30.429,0,0,1,8.139.63c-.3,2.052-.583,4.113-.878,6.165a2.7,2.7,0,0,0,.272,2.083,2.748,2.748,0,0,0,2.2.684q4.734.012,9.477.031a14.654,14.654,0,0,0-3.529,7.222,79.432,79.432,0,0,0,11.778-.218c-.762.086-1.524.163-2.278.249" transform="translate(-7.929 -65.448)" fill="none" stroke="#01abab" stroke-linecap="round" stroke-linejoin="round" stroke-width="2"/>
      <path id="Path_621" data-name="Path 621" d="M4.77,304.13A32.936,32.936,0,0,0,1,314.236a51.1,51.1,0,0,0,8.676,1.337,10.818,10.818,0,0,0-2.542,3.343,3.711,3.711,0,0,0,.5,3.957,5.531,5.531,0,0,0,3.351,1.221c1.726.218,3.444.443,5.17.661a1.16,1.16,0,0,1,.855.365,1.183,1.183,0,0,1,.07.91q-.793,4.093-1.578,8.194a23.538,23.538,0,0,0,10.433.505" transform="translate(-1 -68.475)" fill="none" stroke="#01abab" stroke-linecap="round" stroke-linejoin="round" stroke-width="2"/>
    </g>
  </g>
</svg>
