<svg xmlns="http://www.w3.org/2000/svg" width="751" height="490" viewBox="0 0 751 490">
  <g id="Group_377" data-name="Group 377" transform="translate(-585 -2762)">
    <g id="Group_376" data-name="Group 376">
      <g id="Ellipse_67" data-name="Ellipse 67" transform="translate(715 2762)" fill="#fff" stroke="#01abab" stroke-width="1" stroke-dasharray="2">
        <circle cx="245" cy="245" r="245" stroke="none"/>
        <circle cx="245" cy="245" r="244.5" fill="none"/>
      </g>
      <g id="Group_346" data-name="Group 346" transform="translate(0 25)">
        <g id="Ellipse_63" data-name="Ellipse 63" transform="translate(587 2872)" fill="#f1fbfc" stroke="#01abab" stroke-width="1">
          <circle cx="110" cy="110" r="110" stroke="none"/>
          <circle cx="110" cy="110" r="109.5" fill="none"/>
        </g>
        <path id="Path_709" data-name="Path 709" d="M-27-13.71h-3.78a17.245,17.245,0,0,1-2.67-.18v1.98c.72-.09,1.08-.12,1.8-.15a14.816,14.816,0,0,0,1.38,3.24,19.552,19.552,0,0,0,3.15,4.38A23.865,23.865,0,0,1-35.97.24a6.106,6.106,0,0,1,1.11,1.8,27.69,27.69,0,0,0,9.03-5.19,28.381,28.381,0,0,0,8.49,5.34A8.04,8.04,0,0,1-16.17.27a22.9,22.9,0,0,1-8.28-4.65,26.217,26.217,0,0,0,5.07-6.63,15.019,15.019,0,0,1,.93-1.68l-1.02-1.14a11.417,11.417,0,0,1-2.07.12h-3.63V-18.6h5.1a22.118,22.118,0,0,1,3.12.18v-2.07a22.416,22.416,0,0,1-3.12.18h-5.1v-1.5a17.988,17.988,0,0,1,.21-3.03h-2.25A18.969,18.969,0,0,1-27-21.81v1.5h-3.6a24.893,24.893,0,0,1-3.15-.15v2.01a26.169,26.169,0,0,1,3.18-.15H-27Zm6.09,1.65a20.1,20.1,0,0,1-4.86,6.45,16.213,16.213,0,0,1-4.02-6.45Zm-18.15-5.25v6.75a18.17,18.17,0,0,1-4.17,1.44l.6,2.04c.45-.24.75-.36,1.2-.57.87-.36,1.56-.63,2.37-.99V-.6c0,.69-.24.87-1.17.87A19.448,19.448,0,0,1-42.99.03a5.43,5.43,0,0,1,.45,1.89c.75.06,1.53.09,2.25.09,2.49,0,3.12-.42,3.12-2.13V-9.51c1.08-.51,1.08-.51,2.91-1.41l-.03-1.86c-1.35.69-1.83.93-2.88,1.41v-5.94h.63a18.37,18.37,0,0,1,2.28.12v-1.95a12.706,12.706,0,0,1-2.22.15h-.69V-21.9a17.85,17.85,0,0,1,.21-3h-2.31a19.224,19.224,0,0,1,.21,3.03v2.88h-1.62a14.485,14.485,0,0,1-2.46-.18v2.04a15.763,15.763,0,0,1,2.46-.18ZM.66-18.75v-3.09a19.078,19.078,0,0,1,.18-2.82H-1.32a19.96,19.96,0,0,1,.18,2.82v3.09H-3.06a14.786,14.786,0,0,1-2.61-.15v1.98a12.7,12.7,0,0,1,2.34-.15h2.19V-1.41a28.036,28.036,0,0,1-.18,3.36H.84A26.656,26.656,0,0,1,.66-1.41V-17.07H2.61a12.7,12.7,0,0,1,2.34.15V-18.9a14.823,14.823,0,0,1-2.58.15ZM8.79-15V-.78c0,.54-.21.66-.99.66A18.481,18.481,0,0,1,4.2-.45,7.24,7.24,0,0,1,4.59,1.5c.69.06,1.98.12,2.73.12a7.251,7.251,0,0,0,2.52-.33c.57-.24.84-.93.84-2.04V-15h.66a13.376,13.376,0,0,1,2.43.15v-2.01a13.176,13.176,0,0,1-2.43.15H7.26a11.443,11.443,0,0,1-2.28-.15v2.01A11.814,11.814,0,0,1,7.26-15ZM-8.22-24.99a16.842,16.842,0,0,1-5.52,6,4.381,4.381,0,0,1,1.17,1.47,27.244,27.244,0,0,0,4.83-4.83c.9-1.2.9-1.2,1.29-1.65Zm3.21,10.5A30.343,30.343,0,0,1-7.35-2.37a8.55,8.55,0,0,1,1.62.96c1.38-3.36,2.1-7.05,2.46-12.9Zm7.17.36A52.7,52.7,0,0,1,4.41-2.94l1.77-.63A66.926,66.926,0,0,0,3.75-14.61Zm-.78-9.3a17.02,17.02,0,0,1,2.49,3.81l1.41-.93a22.59,22.59,0,0,0-2.52-3.66Zm11.85.45a15.013,15.013,0,0,1-2.25.15H8.01a15.013,15.013,0,0,1-2.25-.15v2.01a16.154,16.154,0,0,1,2.22-.15h3a15.629,15.629,0,0,1,2.25.15ZM-10.5-1.5a21.558,21.558,0,0,1-.18,3.54h2.19a20.934,20.934,0,0,1-.18-3.51V-13.74c.45-.6,1.2-1.71,1.53-2.25.33-.6.69-1.14.99-1.62l-1.74-1.11a12.221,12.221,0,0,1-1.32,2.67,19.413,19.413,0,0,1-4.83,5.22,6.27,6.27,0,0,1,1.05,1.68,15.768,15.768,0,0,0,2.58-2.73c-.06,1.41-.09,2.31-.09,3.51ZM30.03-18.66c.15-2.61.15-2.61.15-4.02a20.651,20.651,0,0,1,.15-2.43H27.96a16.947,16.947,0,0,1,.18,2.91c0,1.23-.03,2.19-.12,3.54H22.05a25.941,25.941,0,0,1-3.72-.18v2.19a26.61,26.61,0,0,1,3.69-.18H27.9c-.69,6.42-2.37,10.29-5.85,13.44A18.5,18.5,0,0,1,17.01-.15,4.8,4.8,0,0,1,18.6,1.53c4.05-2.31,6.6-4.68,8.34-7.77a26.41,26.41,0,0,0,2.97-10.59h9.27a111.6,111.6,0,0,1-.66,11.67c-.45,3.63-.84,4.38-2.43,4.38a27.029,27.029,0,0,1-5.7-.75A9.432,9.432,0,0,1,30.9.72a37.3,37.3,0,0,0,5.34.48c2.4,0,3.3-.81,3.84-3.42a93.015,93.015,0,0,0,1.05-12.66c.06-2.85.06-2.85.15-3.93a24.285,24.285,0,0,1-3.51.15Z" transform="translate(697 3049)" fill="#01abab"/>
        <g id="Layer_2" data-name="Layer 2" transform="translate(658.004 2913.344)">
          <path id="Path_670" data-name="Path 670" d="M11.509,40.353H46.5S57.776,59.3,58.313,61.04s-1.2,7.053-5.1,6.825-46.283.44-48.217,0-4.86-4.892-2.91-8.89S11.509,40.353,11.509,40.353Z" transform="translate(0.135 11.999)" fill="#7fd5d5"/>
          <g id="Group_342" data-name="Group 342" transform="translate(0.996 1)">
            <rect id="Rectangle_152" data-name="Rectangle 152" width="26.764" height="6.668" transform="translate(15.208 13.48)" fill="none" stroke="#01abab" stroke-linecap="round" stroke-linejoin="round" stroke-width="2"/>
            <path id="Path_666" data-name="Path 666" d="M19.688,16.86V32.388l-18.2,35.65a4.416,4.416,0,0,0,3.941,6.42H54.137a4.416,4.416,0,0,0,3.941-6.42L39.888,32.4V16.873" transform="translate(-0.996 3.836)" fill="none" stroke="#01abab" stroke-linecap="round" stroke-linejoin="round" stroke-width="2"/>
            <line id="Line_54" data-name="Line 54" x2="36.224" transform="translate(10.497 51.596)" fill="none" stroke="#01abab" stroke-linecap="round" stroke-linejoin="round" stroke-width="2"/>
            <path id="Path_667" data-name="Path 667" d="M27.681,32.442a3.815,3.815,0,0,1-7.621,0c0-2,2.336-4.88,3.81-5.872,1.918,1.07,3.81,3.863,3.81,5.872Z" transform="translate(4.817 6.797)" fill="none" stroke="#01abab" stroke-linecap="round" stroke-linejoin="round" stroke-width="2"/>
            <path id="Path_668" data-name="Path 668" d="M50.108,1.44h-8.43L37.45,8.734l4.228,7.308h8.43l4.215-7.308Z" transform="translate(10.12 -0.866)" fill="none" stroke="#01abab" stroke-linecap="round" stroke-linejoin="round" stroke-width="2"/>
            <path id="Path_669" data-name="Path 669" d="M59.715,7.03h-8.43L47.07,14.338l4.215,7.308h8.43l4.215-7.308Z" transform="translate(13.053 0.839)" fill="none" stroke="#01abab" stroke-linecap="round" stroke-linejoin="round" stroke-width="2"/>
            <line id="Line_55" data-name="Line 55" y1="6.759" x2="4.476" transform="translate(59.862 22.484)" fill="none" stroke="#01abab" stroke-linecap="round" stroke-linejoin="round" stroke-width="2"/>
            <line id="Line_56" data-name="Line 56" x1="4.972" y1="4.463" transform="translate(60.123 34.358)" fill="none" stroke="#01abab" stroke-linecap="round" stroke-linejoin="round" stroke-width="2"/>
            <line id="Line_57" data-name="Line 57" x2="4.998" y2="2.753" transform="translate(42.572 5.115)" fill="none" stroke="#01abab" stroke-linecap="round" stroke-linejoin="round" stroke-width="2"/>
            <circle id="Ellipse_64" data-name="Ellipse 64" cx="3.419" cy="3.419" r="3.419" transform="translate(35.956)" fill="none" stroke="#01abab" stroke-linecap="round" stroke-linejoin="round" stroke-width="2"/>
            <circle id="Ellipse_65" data-name="Ellipse 65" cx="3.419" cy="3.419" r="3.419" transform="translate(54.603 28.591)" fill="none" stroke="#01abab" stroke-linecap="round" stroke-linejoin="round" stroke-width="2"/>
            <circle id="Ellipse_66" data-name="Ellipse 66" cx="3.419" cy="3.419" r="3.419" transform="translate(64.325 37.777)" fill="none" stroke="#01abab" stroke-linecap="round" stroke-linejoin="round" stroke-width="2"/>
          </g>
        </g>
      </g>
      <g id="Group_345" data-name="Group 345" transform="translate(0 25)">
        <g id="Ellipse_63-2" data-name="Ellipse 63" transform="translate(1114 2872)" fill="#f1fbfc" stroke="#01abab" stroke-width="1">
          <circle cx="110" cy="110" r="110" stroke="none"/>
          <circle cx="110" cy="110" r="109.5" fill="none"/>
        </g>
        <path id="Path_710" data-name="Path 710" d="M-19.5-18.48a29.959,29.959,0,0,1,3.09.15v-2.01a17.682,17.682,0,0,1-2.91.18h-3.24V-22.8a10.616,10.616,0,0,1,.15-2.07h-2.1a12.329,12.329,0,0,1,.12,1.95c.03,1.38.03,1.89.03,2.76h-5.73A23.261,23.261,0,0,1-33-20.31c.09,1.05.12,1.83.12,3.57a107.738,107.738,0,0,1-.51,12.12A13.82,13.82,0,0,1-35.28.9a3.87,3.87,0,0,1,1.53,1.23,18.365,18.365,0,0,0,2.16-6.96c.18-1.56.27-3.39.42-7.65h3.69a62.505,62.505,0,0,1-.36,6.33c-.18,1.11-.36,1.35-1.08,1.35a8.753,8.753,0,0,1-1.95-.24,6.065,6.065,0,0,1,.33,1.83,13.582,13.582,0,0,0,1.68.12c1.35,0,1.89-.21,2.28-.96.42-.84.72-3.24.84-7.08.09-2.52.09-2.58.15-3.12a20.264,20.264,0,0,1-2.61.12h-2.94c.03-1.14.03-1.74.03-2.52v-1.83h6.81A51.884,51.884,0,0,0-22.8-5.94,20.565,20.565,0,0,1-30.15.78a4.49,4.49,0,0,1,1.32,1.38,22.309,22.309,0,0,0,6.66-6.12A18.042,18.042,0,0,0-20.61-.72c.84,1.38,1.65,2.04,2.43,2.04,1.2,0,1.86-1.59,2.25-5.49a4.645,4.645,0,0,1-1.59-1.05,21.407,21.407,0,0,1-.3,3.09c-.27,1.14-.27,1.14-.54,1.26-.63-.24-1.74-2.37-2.58-4.92a31.1,31.1,0,0,0,3.3-7.47,10.894,10.894,0,0,1,.6-1.68l-1.86-.78a14.422,14.422,0,0,1-.3,1.65,24.164,24.164,0,0,1-2.34,6,47.3,47.3,0,0,1-.96-9.24c0-.24-.03-.69-.03-1.17Zm-23.1-3.81a15.31,15.31,0,0,1,2.16-.12h3.69a14.775,14.775,0,0,1,2.16.12v-1.89a11.037,11.037,0,0,1-2.16.15h-3.69a10.672,10.672,0,0,1-2.16-.15Zm-1.08,4.2a17.646,17.646,0,0,1,2.4-.12h4.95a13.705,13.705,0,0,1,2.19.12v-1.95a12.246,12.246,0,0,1-2.4.15h-4.74a12.82,12.82,0,0,1-2.4-.15Zm1.02,4.14a12.352,12.352,0,0,1,2.04-.12h3.63a12.734,12.734,0,0,1,1.98.12v-1.86a11.125,11.125,0,0,1-1.98.12h-3.63a11.9,11.9,0,0,1-2.04-.12Zm0,4.14a11.954,11.954,0,0,1,2.01-.12h3.63a12.183,12.183,0,0,1,2.01.12v-1.86a11.508,11.508,0,0,1-2.01.12h-3.6a12.352,12.352,0,0,1-2.04-.12Zm1.74,11.43V-.15h3.99c.6,0,1.23.03,1.62.06-.06-.72-.06-1.08-.06-1.95V-5.22a13.294,13.294,0,0,1,.09-2.34,11.063,11.063,0,0,1-1.8.09h-3.69a9.776,9.776,0,0,1-1.92-.12,20.92,20.92,0,0,1,.12,2.43v3.87a28.975,28.975,0,0,1-.15,2.91Zm-.03-7.56h4.02v4.23h-4.02Zm23.73-16.11a17.645,17.645,0,0,0-3.36-2.85l-1.14,1.02a14.346,14.346,0,0,1,3.24,3.03ZM10.26-6.72a19.66,19.66,0,0,1,2.82.18V-8.55a17.047,17.047,0,0,1-2.79.18H.03a22.434,22.434,0,0,0,.45-2.88H6.54a14.408,14.408,0,0,1,2.58.15v-1.89a14.408,14.408,0,0,1-2.58.15H.6c.06-.99.09-1.71.12-2.67h6.3a15.826,15.826,0,0,1,2.88.18v-1.95a17.52,17.52,0,0,1-2.88.18H.75A10.8,10.8,0,0,1,.9-19.53H-1.32a10.939,10.939,0,0,1,.18,2.43H-6.96a17.773,17.773,0,0,1-2.88-.18v1.95a18.556,18.556,0,0,1,2.88-.18h5.79c-.03,1.17-.03,1.5-.09,2.67H-6.84a14.786,14.786,0,0,1-2.61-.15v1.89a14.58,14.58,0,0,1,2.61-.15h5.43a17.612,17.612,0,0,1-.42,2.88h-8.22a16.643,16.643,0,0,1-2.76-.18v2.01a19.82,19.82,0,0,1,2.79-.18H-2.4A9.972,9.972,0,0,1-6.81-2.07,18.2,18.2,0,0,1-13.23.09a7.024,7.024,0,0,1,1.11,1.89A20.688,20.688,0,0,0-5.31-.78,11.573,11.573,0,0,0-.6-6.39C2.28-2.04,5.97.36,12.33,2.04A7.755,7.755,0,0,1,13.47.09,22.844,22.844,0,0,1,5.16-2.97a14.029,14.029,0,0,1-3.9-3.75ZM-1.2-22.02H-9.45a29.587,29.587,0,0,1-3.03-.12,13.825,13.825,0,0,1,.12,2.04v1.74a13.735,13.735,0,0,1-.12,2.07h1.98v-4.08H10.62v4.08h1.95a13.483,13.483,0,0,1-.12-2.07v-1.77a13.661,13.661,0,0,1,.12-2.01,29.34,29.34,0,0,1-3,.12H.75v-1.14a9.538,9.538,0,0,1,.18-1.86H-1.41a7.863,7.863,0,0,1,.21,1.86Zm20.73,6.15a6.627,6.627,0,0,1,1.17-.09,88.334,88.334,0,0,0,10.68-.78c.18.3.18.36.51.99a36.582,36.582,0,0,0,3.6,5.88,14.98,14.98,0,0,0-6.21-1.08,12.752,12.752,0,0,0-5.82,1.11,5.607,5.607,0,0,0-3.39,4.89,4.839,4.839,0,0,0,1.35,3.3C22.8-.21,25.56.6,29.22.6a24.87,24.87,0,0,0,8.82-1.62l-.33-2.31a19.779,19.779,0,0,1-8.52,1.92c-2.58,0-4.74-.51-5.85-1.38A3,3,0,0,1,22.2-5.13a3.407,3.407,0,0,1,1.62-2.79,10.635,10.635,0,0,1,5.7-1.26,16.256,16.256,0,0,1,5.25.78,6,6,0,0,1,2.07,1.23l2.01-1.14a55.556,55.556,0,0,1-5.4-8.73c.3-.06.3-.06,1.02-.21,1.89-.36,2.25-.45,4.05-.93.9-.24,1.14-.3,1.77-.42l-.3-2.13a35.11,35.11,0,0,1-7.26,1.89,24.68,24.68,0,0,1-1.08-2.64,9.562,9.562,0,0,1-.87-2.7l-2.37.33c.27.54.45.96.78,1.74.54,1.35,1.02,2.55,1.47,3.57a70.023,70.023,0,0,1-8.94.63,13.153,13.153,0,0,1-2.31-.15Z" transform="translate(1224 3049)" fill="#01abab"/>
        <g id="Layer_2-2" data-name="Layer 2" transform="translate(1183 2920.379)">
          <path id="Path_660" data-name="Path 660" d="M55.628,35.626S77.516,20.287,77.516,11.88,72.326,1,66.572,1,56.244,6.074,55.628,7.8C55.013,6.074,50.437,1,44.684,1S33.74,3.473,33.74,11.88,55.628,35.626,55.628,35.626Z" transform="translate(2.014 0)" fill="#7fd5d5"/>
          <path id="Path_661" data-name="Path 661" d="M55.628,35.626S77.516,20.287,77.516,11.88,72.326,1,66.572,1,56.244,6.074,55.628,7.8C55.013,6.074,50.437,1,44.684,1S33.74,3.473,33.74,11.88,55.628,35.626,55.628,35.626Z" transform="translate(2.014 0)" fill="none" stroke="#01abab" stroke-linecap="round" stroke-linejoin="round" stroke-width="2"/>
          <path id="Path_662" data-name="Path 662" d="M24.88,44.718A13.761,13.761,0,0,1,34.964,40.27c6.433,0,8.036.87,12.918,1.115s6.677-.679,10.084-.552,6.433,2.038,6.5,3.588-3.959,3.153-6.549,3.089-7.356-.372-9.713,0-5.01,2.781-5.01,2.781" transform="translate(1.469 2.415)" fill="rgba(0,0,0,0)" stroke="#01abab" stroke-linecap="round" stroke-linejoin="round" stroke-width="2"/>
          <path id="Path_663" data-name="Path 663" d="M65.077,45.38h2.537c1.422,0,5.934-4.947,7.176-6.125s7.293-1.486,4.395,2.537-7.972,9.086-13.417,10.7-11.443,4.023-20.158,4.267A55.858,55.858,0,0,1,30.95,55.4" transform="translate(1.842 2.305)" fill="rgba(0,0,0,0)" stroke="#01abab" stroke-linecap="round" stroke-linejoin="round" stroke-width="2"/>
          <path id="Path_664" data-name="Path 664" d="M18.59,44.537l4.458-2.357,9.766,16.581L28.42,60.979" transform="translate(1.082 2.533)" fill="rgba(0,0,0,0)" stroke="#01abab" stroke-linecap="round" stroke-linejoin="round" stroke-width="2"/>
          <path id="Path_665" data-name="Path 665" d="M1,52.02l17.133-9.84L29.385,61.287,8.611,74.089" transform="translate(0 2.533)" fill="rgba(0,0,0,0)" stroke="#01abab" stroke-linecap="round" stroke-linejoin="round" stroke-width="2"/>
        </g>
      </g>
    </g>
    <g id="Layer_2-3" data-name="Layer 2" transform="translate(850 2956.04)">
      <g id="Group_106" data-name="Group 106" transform="translate(0 -0.04)">
        <g id="Group_103" data-name="Group 103" transform="translate(1.402 81.552)">
          <path id="Path_325" data-name="Path 325" d="M6.293,189.234a2.948,2.948,0,0,1,3,3.11v4.1H8.26v-4.1a2.041,2.041,0,0,0-2.007-2.079A2.1,2.1,0,0,0,4.161,192.4v4.042H3.13v-7.111H4.161v1.048a2.42,2.42,0,0,1,2.133-1.147Z" transform="translate(-3.13 -185.977)" fill="#01abab"/>
          <path id="Path_326" data-name="Path 326" d="M25.617,189.339h1v7.111h-1v-1.344a3.415,3.415,0,0,1-2.644,1.443,3.655,3.655,0,0,1-.1-7.308,3.177,3.177,0,0,1,2.742,1.313Zm-2.756,6.206a2.651,2.651,0,1,0-2.572-2.657A2.606,2.606,0,0,0,22.862,195.544Z" transform="translate(-12.077 -185.983)" fill="#01abab"/>
          <path id="Path_327" data-name="Path 327" d="M42.914,185.332v1.031h-1.47v6.08H40.414v-6.08H39.2v-1.031h1.214V181.98h1.031v3.352Z" transform="translate(-23.038 -181.976)" fill="#01abab"/>
          <path id="Path_328" data-name="Path 328" d="M56.228,189.46h1.031v7.111H56.228v-1a2.3,2.3,0,0,1-2.151,1.1,3.009,3.009,0,0,1-3-3.11v-4.1h1.031v4.1a2.041,2.041,0,0,0,2.007,2.079c2.106,0,2.106-2.249,2.106-2.249v-3.93Z" transform="translate(-29.595 -186.104)" fill="#01abab"/>
          <path id="Path_329" data-name="Path 329" d="M72.949,189.24h.125L72.51,190.3a3.008,3.008,0,0,0-2.249,2.178v3.974H69.23v-7.111h1.031v1.2a3.314,3.314,0,0,1,2.688-1.3Z" transform="translate(-39.613 -185.983)" fill="#01abab"/>
          <path id="Path_330" data-name="Path 330" d="M85.917,189.339h1v7.111h-1v-1.344a3.415,3.415,0,0,1-2.644,1.443,3.655,3.655,0,0,1-.1-7.308,3.177,3.177,0,0,1,2.742,1.313Zm-2.756,6.206a2.651,2.651,0,1,0-2.572-2.657A2.606,2.606,0,0,0,83.162,195.544Z" transform="translate(-45.359 -185.983)" fill="#01abab"/>
          <path id="Path_331" data-name="Path 331" d="M101.281,192.442H100.25V181.98h1.031Z" transform="translate(-56.734 -181.975)" fill="#01abab"/>
          <path id="Path_332" data-name="Path 332" d="M121.327,189.339h1v7.111h-1v-1.344a3.415,3.415,0,0,1-2.644,1.443,3.655,3.655,0,0,1-.1-7.308,3.177,3.177,0,0,1,2.742,1.313Zm-2.756,6.206A2.651,2.651,0,1,0,116,192.887,2.606,2.606,0,0,0,118.572,195.544Z" transform="translate(-64.903 -185.983)" fill="#01abab"/>
          <path id="Path_333" data-name="Path 333" d="M141.113,189.35h1v6.506c0,1.851-.905,3.889-3.732,3.889a3.5,3.5,0,0,1-3.477-2.388l.963-.3a2.4,2.4,0,0,0,2.545,1.667,2.545,2.545,0,0,0,2.7-2.814v-.762a3.178,3.178,0,0,1-2.814,1.416,3.655,3.655,0,0,1-.018-7.308,3.5,3.5,0,0,1,2.827,1.429v-1.331Zm-2.827,6.206a2.651,2.651,0,1,0-2.617-2.644A2.626,2.626,0,0,0,138.286,195.555Z" transform="translate(-75.754 -185.994)" fill="#01abab"/>
          <path id="Path_334" data-name="Path 334" d="M160.448,194.575l.735.695a4.426,4.426,0,0,1-2.957,1.273,3.58,3.58,0,0,1-3.576-3.594,3.493,3.493,0,1,1,6.972,0v.426h-5.91a2.558,2.558,0,0,0,2.518,2.151,3.079,3.079,0,0,0,2.218-.945Zm-2.263-4.382a2.373,2.373,0,0,0-2.473,2.2h4.848A2.286,2.286,0,0,0,158.185,190.193Z" transform="translate(-86.759 -185.977)" fill="#01abab"/>
          <path id="Path_335" data-name="Path 335" d="M174.664,184H173.62V181.98h1.044Zm0,8.442H173.62v-7.111h1.044Z" transform="translate(-97.229 -181.976)" fill="#01abab"/>
          <path id="Path_336" data-name="Path 336" d="M182.533,189.234a2.948,2.948,0,0,1,3,3.11v4.1H184.5v-4.1a2.041,2.041,0,0,0-2.007-2.079A2.1,2.1,0,0,0,180.4,192.4v4.042H179.37v-7.111H180.4v1.048a2.42,2.42,0,0,1,2.133-1.147Z" transform="translate(-100.403 -185.977)" fill="#01abab"/>
          <path id="Path_337" data-name="Path 337" d="M201.993,189.35h1v6.506c0,1.851-.905,3.889-3.732,3.889a3.5,3.5,0,0,1-3.477-2.388l.963-.3a2.4,2.4,0,0,0,2.545,1.667,2.545,2.545,0,0,0,2.7-2.814v-.762a3.178,3.178,0,0,1-2.814,1.416,3.655,3.655,0,0,1-.018-7.308,3.5,3.5,0,0,1,2.827,1.429v-1.331Zm-2.827,6.206a2.651,2.651,0,1,0-2.617-2.644A2.626,2.626,0,0,0,199.166,195.555Z" transform="translate(-109.355 -185.994)" fill="#01abab"/>
          <path id="Path_338" data-name="Path 338" d="M229.37,185.21a3.661,3.661,0,0,1,.031,7.321,3.577,3.577,0,0,1-2.827-1.483v1.385h-1V181.97h1v4.709a3.284,3.284,0,0,1,2.8-1.47Zm.027,6.322a2.657,2.657,0,1,0-2.63-2.657A2.637,2.637,0,0,0,229.4,191.532Z" transform="translate(-125.902 -181.97)" fill="#01abab"/>
          <path id="Path_339" data-name="Path 339" d="M250.348,194.575l.735.695a4.426,4.426,0,0,1-2.957,1.273,3.58,3.58,0,0,1-3.576-3.594,3.493,3.493,0,1,1,6.972,0v.426h-5.91a2.558,2.558,0,0,0,2.518,2.151,3.079,3.079,0,0,0,2.218-.945Zm-2.263-4.382a2.373,2.373,0,0,0-2.473,2.2h4.848A2.286,2.286,0,0,0,248.085,190.193Z" transform="translate(-136.378 -185.977)" fill="#01abab"/>
          <path id="Path_340" data-name="Path 340" d="M268.857,189.339h1v7.111h-1v-1.344a3.415,3.415,0,0,1-2.644,1.443,3.655,3.655,0,0,1-.1-7.308,3.177,3.177,0,0,1,2.742,1.313Zm-2.756,6.206a2.651,2.651,0,1,0-2.572-2.657A2.606,2.606,0,0,0,266.1,195.544Z" transform="translate(-146.329 -185.983)" fill="#01abab"/>
          <path id="Path_341" data-name="Path 341" d="M288.328,189.46h1.031v7.111h-1.031v-1a2.3,2.3,0,0,1-2.151,1.1,3.009,3.009,0,0,1-3-3.11v-4.1h1.031v4.1a2.041,2.041,0,0,0,2.007,2.079c2.106,0,2.106-2.249,2.106-2.249v-3.93Z" transform="translate(-157.699 -186.104)" fill="#01abab"/>
          <path id="Path_342" data-name="Path 342" d="M304.294,185.332v1.031h-1.47v6.08h-1.031v-6.08H300.58v-1.031h1.214V181.98h1.031v3.352Z" transform="translate(-167.303 -181.976)" fill="#01abab"/>
          <path id="Path_343" data-name="Path 343" d="M316.866,189.46h1.116L313.3,199.9h-1.116l1.5-3.338-2.8-7.1H312l2.276,5.785,2.585-5.785Z" transform="translate(-172.988 -186.104)" fill="#01abab"/>
        </g>
        <g id="Group_104" data-name="Group 104" transform="translate(148.444 80.67)">
          <path id="Path_344" data-name="Path 344" d="M349.034,185.985a3.226,3.226,0,0,0-.766,1.053,42.244,42.244,0,0,1-2.388,4.436c.91.739,3.383,2.617,3.383,4.8a1.662,1.662,0,0,1-1.506,1.707c-.712,0-.995-.426-1.734-1.447-.627-.851-1.707-2.388-1.877-2.585a23.441,23.441,0,0,1-12.734,8.782l-.112-.229c2.957-1.537,7.931-5.883,10.969-10.574a30.985,30.985,0,0,0-6.255-4.176,18.8,18.8,0,0,1,7.42,2.187c.824-1.506,2.388-5,2.388-5.74,0-.968-1.591-1.537-2.048-1.676a3.448,3.448,0,0,1,1.9-.6c1.963,0,4.176,2.187,4.176,3.069,0,.314-.2.457-.824.995Z" transform="translate(-331.3 -181.065)" fill="#01abab"/>
          <path id="Path_345" data-name="Path 345" d="M403.1,188.585a2.556,2.556,0,0,0-1.192.569,42.836,42.836,0,0,1-5.372,3.75l-.17-.143a24.555,24.555,0,0,0,3.128-5.341c-2.357.654-4.888,1.479-7.3,2.272-.058.766-.2,3.468-.2,5.856,0,1.877.2,2.7,3.042,2.7a21.743,21.743,0,0,0,4.548-.569,4.1,4.1,0,0,1,.851-.112,4.709,4.709,0,0,1,2.415.681,1.14,1.14,0,0,1,.4.91c0,1.447-2.245,1.734-5.516,1.734-8.24,0-8.213-1.622-8.043-10.4a28.316,28.316,0,0,0-4.122,1.9,1.731,1.731,0,0,1-.883.314c-1.107,0-2.756-1.877-2.756-3.58a4.215,4.215,0,0,1,.282-1.564c.712,1.25,1.25,2.048,2.617,2.048a28.028,28.028,0,0,0,4.915-1.053c0-.936.058-5.516-.282-6.282-.4-.883-1.792-1.107-2.5-1.223A3.982,3.982,0,0,1,389.493,180c.883,0,3.75.542,3.75,1.649,0,.143-.341,1.308-.341,1.335a39.415,39.415,0,0,0-.569,4.861c2.415-.681,7.106-1.989,7.277-2.1.282-.17.8-.542,1.138-.8a.53.53,0,0,1,.341-.112,11.406,11.406,0,0,1,2.671,1.734c.4.314.8.6.8,1.08,0,.542-.143.6-1.452.936Z" transform="translate(-359.245 -180)" fill="#01abab"/>
          <path id="Path_346" data-name="Path 346" d="M447.2,188.46c-.112.511-.6,4.006-.739,4.776-1.25,6.165-5.171,8.84-7.474,9.835l-.17-.17c3.867-3.7,5.516-9.011,5.516-14.352,0-1.792-.484-1.931-2.33-2.5a5.1,5.1,0,0,1,2.245-.8c.91,0,3.352.91,3.352,1.9,0,.229-.367,1.107-.4,1.308Zm8.186,10.574c-.542.426-2.872,2.245-3.325,2.644-.542.426-.654.453-.766.453-.712,0-2.16-2.5-2.16-3.181a17.057,17.057,0,0,1,.453-1.676c.143-.8.282-4.575.282-6.649,0-.995,0-5.256-.372-5.883-.4-.712-1.591-.968-2.133-1.107a3.6,3.6,0,0,1,1.963-.824c.995,0,3.782,1.022,3.782,2.075a17.011,17.011,0,0,1-.511,1.707c-.255,1.223-.6,8.782-.6,10.543,0,.229.058.426.255.426,1.08,0,6.766-4.064,10.346-8.527l.2.17a22.074,22.074,0,0,1-7.415,9.835Z" transform="translate(-390.644 -181.551)" fill="#01abab"/>
        </g>
        <g id="Group_105" data-name="Group 105">
          <path id="Path_347" data-name="Path 347" d="M17.9,10.951l1.08-1.367c.215-.264.287-.314.385-.314.143,0,.264.121.457.287l1.559,1.34a.535.535,0,0,1,.215.385c0,.215-.193.237-.358.237h-11l1.174.336c.215.072.479.143.479.457,0,.237-.121.314-.551.6a6.643,6.643,0,0,1-.287,1.8H17.69l.91-1.2c.215-.264.287-.314.385-.314.072,0,.143,0,.479.287l1.461,1.174a.536.536,0,0,1,.264.385c0,.215-.215.242-.358.242h-9.2c1.367,2.348,4.938,4.288,8.988,4.288.314,0,.551,0,1.174-.049v.193a4.016,4.016,0,0,0-2.227,2.4,10.535,10.535,0,0,1-8.509-6.829h-.166C8.9,20.75,4.4,21.593.417,21.879v-.193c4.288-.838,7.523-3.764,8.267-6.4H3a14.2,14.2,0,0,0-2.59.166L0,14.567c1.461.143,3.163.143,3.428.143h5.39a10.519,10.519,0,0,0,.358-2.446A4.749,4.749,0,0,0,9.1,11.52H3.186a14.2,14.2,0,0,0-2.59.166L.211,10.8c1.461.143,3.141.143,3.4.143H9.217v-2.9H5.336a14.2,14.2,0,0,0-2.59.166l-.385-.887c1.461.143,3.141.143,3.4.143h3.45V5.14H4.01a14.912,14.912,0,0,0-2.59.143l-.385-.865c1.438.121,3.141.143,3.4.143h7.236a10.717,10.717,0,0,0,1.51-4.6l2.563,1.582c.193.121.314.193.314.43,0,.314-.215.358-.815.479-.936.717-1.152.865-3.042,2.11h4.673L17.9,3.267c.193-.237.242-.287.358-.287.17,0,.314.143.457.264L20.109,4.49c.121.121.242.237.242.385,0,.215-.215.264-.385.264H11.242V7.465h3.714L15.7,6.457c.143-.215.215-.314.358-.314.121,0,.166.049.457.264l1.295,1.031a.452.452,0,0,1,.242.358c0,.215-.193.237-.358.237H11.246v2.9h6.636ZM4.5.435c2.756.336,4.36,1.653,4.36,2.921a1.086,1.086,0,0,1-1.08,1.2c-.672,0-.838-.358-1.367-1.389A6.841,6.841,0,0,0,4.427.623L4.5.43Z" transform="translate(0 0.04)" fill="#01abab"/>
          <path id="Path_348" data-name="Path 348" d="M62.947,10.6H55.612c.022,1.125-.022,3.284-.121,4.5.694-.529,3.428-2.877,3.835-4.243l1.747,1.317a.536.536,0,0,1,.264.385c0,.336-.5.358-1.053.358a17.6,17.6,0,0,1-4.817,2.491c-.17,1.967-.694,5.247-3.213,7.595l-.166-.072c1.653-2.2,1.653-8.244,1.653-9.539a23.608,23.608,0,0,0-.336-4.337l2.446.959H58.3a12.354,12.354,0,0,0,.936-3.665c0-.215-.022-.551-.049-.981l2.4,1.008c.314.121.457.215.457.457,0,.193-.022.314-.838.574a33.779,33.779,0,0,1-2.42,2.612h1.868l.717-.815q.264-.287.358-.287c.17,0,.385.193.457.242l.887.789c.022.022.242.242.242.385,0,.215-.193.264-.358.264Zm-.193-5.632h-6.9a12.354,12.354,0,0,0-2.59.166l-.408-.887c1.461.143,3.163.143,3.428.143h.887a6.742,6.742,0,0,0-.6-3.114l2.469.623c.529.143.551.264.551.457,0,.166,0,.237-.551.6V4.4h1.344l.645-.838c.215-.287.287-.287.358-.287.121,0,.193.049.43.237l1.053.838a.452.452,0,0,1,.242.358c0,.237-.193.264-.358.264ZM62.2,18.078a16.254,16.254,0,0,1-7.743,3.809v-.166a22.945,22.945,0,0,0,5.3-3.858,14.045,14.045,0,0,0,1.6-1.9l1.631,1.317a.371.371,0,0,1,.166.336c0,.358-.143.385-.959.457ZM56.45,9.6c-.694,0-.91-.358-1.125-1.461a7.9,7.9,0,0,0-.789-2.4l.072-.143c.838.237,2.948,1.174,2.948,2.827a1.058,1.058,0,0,1-1.1,1.174Zm5.3,5.655a14.2,14.2,0,0,1-6.277,2.971V18.1c3.069-1.94,5.126-4.051,5.368-4.938L62.4,14.408a.851.851,0,0,1,.264.457c0,.287-.314.336-.91.385ZM73.534,3.821H69.054A16.461,16.461,0,0,1,66.9,6.984h3.163l.815-.744c.143-.143.264-.264.408-.264a.936.936,0,0,1,.479.264l1.008.766c.17.121.242.193.242.336,0,.193-.022.314-.645.887.022.6,0,.717.022,1.725.049,1.918.17,5.726.193,7.308a1.139,1.139,0,0,1-1.223,1.246c-.86,0-.887-.336-.887-.815H65.586a.652.652,0,0,1-.049.358l1.676,1.438a.625.625,0,0,1,.237.408c0,.287-.121.287-1.031.264a17.329,17.329,0,0,1-7.165,2.612l-.022-.166a21.918,21.918,0,0,0,5.941-4.145,1.571,1.571,0,0,1-.793.215c-.744,0-.744-.314-.744-.6,0-1.2.072-7.07.072-8.41a21.913,21.913,0,0,0-.242-3.786l2.37,1.1h.6a28.941,28.941,0,0,0,.143-3.163h-.551a11.667,11.667,0,0,0-2.59.166L63.054,3.1c1.125.094,2.254.143,3.4.143H70.7l.815-1.08c.215-.264.287-.314.385-.314.121,0,.215.094.43.264l1.344,1.08c.072.072.237.193.237.358,0,.242-.237.264-.385.264ZM70.465,7.557H65.554v2.756h4.911Zm0,3.329H65.554v2.756h4.911Zm0,3.329H65.554v2.9h4.911ZM72.6,22.868c-.672,0-.91-.358-1.7-1.51a17.62,17.62,0,0,0-2.635-2.85l.094-.121c3.356.529,5.247,2.11,5.247,3.5a.943.943,0,0,1-1.008.981Z" transform="translate(-28.75 -0.689)" fill="#01abab"/>
          <path id="Path_349" data-name="Path 349" d="M107.73,25.181a2.11,2.11,0,1,1,2.11-2.11,2.1,2.1,0,0,1-2.11,2.11Z" transform="translate(-58.295 -11.551)" fill="#01abab"/>
          <path id="Path_350" data-name="Path 350" d="M126.9,2.718l.887-.574a1.029,1.029,0,0,1,.43-.166.345.345,0,0,1,.287.166l1.125,1.367a.986.986,0,0,1,.215.479c0,.43-.695.551-1.031.623a30.191,30.191,0,0,1-4.288,5.247,13.58,13.58,0,0,1-6.183,3.593l-.049-.143a28.394,28.394,0,0,0,5.534-5.081c-.242,0-.551,0-1.008-.672a10.5,10.5,0,0,0-1.989-2.42l.049-.193c1.532.072,3.665.385,3.952,1.94a18.129,18.129,0,0,0,2.061-3.593h-2.37a13.611,13.611,0,0,0-2.59.166l-.385-.887c1.125.094,2.276.143,3.4.143h1.94Zm1.125,12.747c-.6,5.153-3.428,6.734-7.886,7.55l-.094-.242c4.911-1.747,5.56-4.36,5.919-7.308h-2.325a14.912,14.912,0,0,0-2.59.143l-.385-.865c1.438.121,3.141.143,3.4.143h1.967c0-.072.143-1.819.121-3.356a10.606,10.606,0,0,0-1.846.143l-.385-.887c1.438.143,3.141.143,3.4.143h3.692l1.125-1.295c.237-.264.264-.287.358-.287.121,0,.242.072.457.237l1.582,1.317c.121.094.242.193.242.358,0,.215-.193.242-.358.242h-2.11c0,.551.049,2.9.049,3.378h1.963l1.031-1.416c.094-.121.215-.314.358-.314.121,0,.166.049.457.264l1.8,1.416a.5.5,0,0,1,.237.358c0,.215-.215.264-.385.264H132.35c.022.717-.022,3.979.094,4.5.094.457.121.6,2.612.6,1.8,0,2.012-.43,2.2-.815a28.756,28.756,0,0,0,1.2-3.284h.215c.022,2.012.049,2.706.408,3.307.072.121.574.551.574.672a2.647,2.647,0,0,1-.887,1.367c-.551.529-1.246.744-3.643.744-4.1,0-4.6-.551-4.7-2.37-.022-.574-.022-4-.022-4.723h-2.4Zm2.4-.574V11.514h-2.276a31.4,31.4,0,0,1-.049,3.378h2.325Zm7.429-9.49c.287.242.336.358.336.43,0,.336-.287.358-1.053.336-.358.166-1.94.793-2.921,1.174a12.718,12.718,0,0,0,7.286,3.092v.193A4.624,4.624,0,0,0,139,12.782,13.055,13.055,0,0,1,133.4,8.61a15.9,15.9,0,0,1-3.764-6.784l.264-.094A11.151,11.151,0,0,0,131.79,4.8a8.576,8.576,0,0,0,1.918-3.522l1.94,1.488c.237.166.336.237.336.43,0,.287-.336.358-.5.358a.918.918,0,0,1-.336-.049,24.226,24.226,0,0,1-2.993,1.747,19.216,19.216,0,0,0,1.6,1.676,7.131,7.131,0,0,0,2.11-3.114L137.857,5.4Z" transform="translate(-65.288 -0.689)" fill="#01abab"/>
          <path id="Path_351" data-name="Path 351" d="M177.385,9.485a14.256,14.256,0,0,0-2.541.43l-.5-.815c1.317-.049,3.069-.193,3.4-.242l4.122-.457.049-3.692a38.106,38.106,0,0,1-6.779.645c-1.031,0-1.7-.049-2.276-.072V5.067c3.549-.314,9.848-2.061,13.42-3.213,2.11-.672,2.276-.865,2.706-1.344l1.819,1.747c.17.166.264.264.264.385,0,.336-.314.336-.408.336-.121,0-.645-.072-.766-.072-1.416.336-3.092.717-4.073.936-.529.121-1.488.336-1.868.408l-.094,3.93,4.337-.457.744-1.317c.193-.336.237-.43.408-.43a.977.977,0,0,1,.457.237l1.582,1.08c.166.121.287.193.287.385,0,.166-.166.215-.336.242l-7.5.838c-.049,1.631-.072,3.428-.094,4.866l6.3-.717.959-1.488c.121-.193.215-.358.358-.358a.793.793,0,0,1,.457.215l1.676,1.2c.166.121.264.215.264.385,0,.193-.215.237-.336.264l-9.705,1.08c-.022.865-.072,4.315-.072,4.96,0,.529.094.717.479.838.358.094,2.921.121,3.5.121,3.163,0,3.378-.287,3.835-1.367a9.366,9.366,0,0,0,.789-2.706h.193A16.777,16.777,0,0,0,193.211,19a5.222,5.222,0,0,1,.672,1.08,2.193,2.193,0,0,1-1.1,1.344c-1.125.574-4.171.623-5.534.623-4.7,0-5.56-.408-5.56-2.778,0-.358.072-4.073.094-4.839l-5.87.645a13.348,13.348,0,0,0-2.563.457l-.479-.815c1.367-.049,3.163-.215,3.4-.237l5.511-.623c0-.766.072-4.171.072-4.866l-4.458.5Z" transform="translate(-95.407 -0.264)" fill="#01abab"/>
        </g>
        <path id="Path_352" data-name="Path 352" d="M43.015,64.33a14.854,14.854,0,0,0-12.174,6.354A14.833,14.833,0,0,0,9.181,67.762v-.578H3.8v42.387H9.177V79.192a9.486,9.486,0,0,1,18.971,0v30.379h5.377V79.192a9.486,9.486,0,0,1,18.971,0v30.379h5.377V79.192A14.879,14.879,0,0,0,43.01,64.33Z" transform="translate(-2.097 -35.488)" fill="#01abab"/>
        <path id="Path_353" data-name="Path 353" d="M158.44,107.086a23.808,23.808,0,1,1,16.838-40.644l1.219,1.295L146.8,97.6a20.629,20.629,0,0,0,11.645,4.167,18.363,18.363,0,0,0,13.07-5.413,10.114,10.114,0,0,0,1.447-1.626l5.336,1.859a36.368,36.368,0,0,1-3.02,3.535,23.646,23.646,0,0,1-16.834,6.972Zm0-42.3a18.488,18.488,0,0,0-18.487,18.483,17.347,17.347,0,0,0,3.289,10.821L169.149,68.2a17.131,17.131,0,0,0-10.709-3.414Z" transform="translate(-74.307 -32.806)" fill="#01abab"/>
        <path id="Path_354" data-name="Path 354" d="M253.869,78.727l-.448-.009a15.96,15.96,0,0,1-13.872-10.1L244.4,66.5a10.859,10.859,0,0,0,9.253,6.846,9.671,9.671,0,0,0,4.418-18.151l-12.931-7.079A22.384,22.384,0,0,1,233.5,28.472a20.383,20.383,0,0,1,40.4-3.858l.372,1.927-5.3,1.864-.349-2.778a15.007,15.007,0,0,0-29.743,2.841,17,17,0,0,0,8.84,14.921l12.931,7.079a15.05,15.05,0,0,1-6.779,28.242h0Z" transform="translate(-128.877 -4.447)" fill="#01abab"/>
        <path id="Path_355" data-name="Path 355" d="M367.452,13.477V8.1H332.4V78.733h35.052V73.356H337.777V46.1h29.675V40.728H337.777V13.477Z" transform="translate(-183.463 -4.453)" fill="#01abab"/>
        <path id="Path_356" data-name="Path 356" d="M452.594,78.176H420.88V72.8h26.337V7.09h5.377Z" transform="translate(-232.298 -3.895)" fill="#01abab"/>
      </g>
    </g>
    <rect id="Rectangle_157" data-name="Rectangle 157" width="19" height="17" transform="translate(585 2999)" fill="none"/>
    <rect id="Rectangle_158" data-name="Rectangle 158" width="19" height="17" transform="translate(1317 2999)" fill="none"/>
  </g>
</svg>
