<svg xmlns="http://www.w3.org/2000/svg" width="36.511" height="31.397" viewBox="0 0 36.511 31.397">
  <g id="stop_2" transform="translate(0 -35.857)">
    <g id="Group_305" data-name="Group 305" transform="translate(0 35.857)">
      <g id="Group_304" data-name="Group 304" transform="translate(0 0)">
        <path id="Path_584" data-name="Path 584" d="M36.04,62.28,21.064,37.443a3.28,3.28,0,0,0-5.618,0L.47,62.28a3.28,3.28,0,0,0,2.809,4.974H33.231A3.28,3.28,0,0,0,36.04,62.28Zm-2.023,2.138a.9.9,0,0,1-.786.459H3.279a.9.9,0,0,1-.773-1.369L17.482,38.671a.9.9,0,0,1,1.546,0L34,63.508A.9.9,0,0,1,34.017,64.418Z" transform="translate(0 -35.857)" fill="#e74b21"/>
      </g>
    </g>
    <g id="Group_307" data-name="Group 307" transform="translate(16.656 45.637)">
      <g id="Group_306" data-name="Group 306">
        <path id="Path_585" data-name="Path 585" d="M235.188,173.005c-.9,0-1.61.485-1.61,1.345,0,2.624.309,6.4.309,9.02,0,.684.6.97,1.3.97.529,0,1.279-.287,1.279-.97,0-2.624.309-6.4.309-9.02A1.417,1.417,0,0,0,235.188,173.005Z" transform="translate(-233.578 -173.005)" fill="#e74b21"/>
      </g>
    </g>
    <g id="Group_309" data-name="Group 309" transform="translate(16.59 58.494)">
      <g id="Group_308" data-name="Group 308">
        <path id="Path_586" data-name="Path 586" d="M234.349,353.306a1.7,1.7,0,1,0,0,3.4,1.7,1.7,0,0,0,0-3.4Z" transform="translate(-232.651 -353.306)" fill="#e74b21"/>
      </g>
    </g>
  </g>
</svg>
