<svg xmlns="http://www.w3.org/2000/svg" width="216.881" height="63" viewBox="0 0 216.881 63">
  <g id="Group_135" data-name="Group 135" transform="translate(-63 -29)">
    <g id="Group_134" data-name="Group 134" transform="translate(213.91 33.948)">
      <g id="Group_119" data-name="Group 119" transform="translate(0 32.986)">
        <rect id="Rectangle_78" data-name="Rectangle 78" width="65.971" height="19.791" transform="translate(0 -0.075)" fill="#01abab"/>
        <text id="名古屋" transform="translate(31.493 14.925)" fill="#fff" font-size="12" font-family="YuGothicUI-Regular, Yu Gothic UI" letter-spacing="0.2em"><tspan x="-20.4" y="0">名古屋</tspan></text>
      </g>
      <g id="Group_120" data-name="Group 120">
        <rect id="Rectangle_78-2" data-name="Rectangle 78" width="65.971" height="19.791" transform="translate(0 -0.09)" fill="#01abab"/>
        <text id="新宿" transform="translate(32.265 14.911)" fill="#fff" font-size="12" font-family="YuGothicUI-Regular, Yu Gothic UI" letter-spacing="0.2em"><tspan x="-13.2" y="0">新宿</tspan></text>
      </g>
    </g>
    <g id="Layer_2" data-name="Layer 2" transform="translate(63 29)">
      <g id="Group_101" data-name="Group 101" transform="translate(0 0)">
        <g id="Group_98" data-name="Group 98" transform="translate(0.863 50.204)">
          <path id="Path_293" data-name="Path 293" d="M5.077,189.233a1.815,1.815,0,0,1,1.845,1.914v2.524H6.288v-2.524a1.257,1.257,0,0,0-1.236-1.28,1.291,1.291,0,0,0-1.288,1.313v2.488H3.13v-4.377h.634v.645a1.49,1.49,0,0,1,1.313-.706Z" transform="translate(-3.13 -187.227)" fill="#01abab"/>
          <path id="Path_294" data-name="Path 294" d="M23.2,189.3h.618v4.377H23.2v-.827a2.1,2.1,0,0,1-1.627.888,2.25,2.25,0,0,1-.061-4.5,1.956,1.956,0,0,1,1.688.808Zm-1.7,3.82a1.632,1.632,0,1,0-1.583-1.636A1.6,1.6,0,0,0,21.508,193.121Z" transform="translate(-14.869 -187.235)" fill="#01abab"/>
          <path id="Path_295" data-name="Path 295" d="M41.487,184.043v.634h-.9v3.743h-.634v-3.743H39.2v-.634h.748V181.98h.634v2.063Z" transform="translate(-29.251 -181.977)" fill="#01abab"/>
          <path id="Path_296" data-name="Path 296" d="M54.249,189.46h.634v4.377h-.634v-.618a1.415,1.415,0,0,1-1.324.679,1.852,1.852,0,0,1-1.845-1.914V189.46h.634v2.524a1.257,1.257,0,0,0,1.236,1.28c1.3,0,1.3-1.385,1.3-1.385V189.46Z" transform="translate(-37.854 -187.394)" fill="#01abab"/>
          <path id="Path_297" data-name="Path 297" d="M71.519,189.24H71.6l-.348.654a1.852,1.852,0,0,0-1.385,1.341v2.447H69.23V189.3h.634v.739a2.04,2.04,0,0,1,1.655-.8Z" transform="translate(-50.998 -187.235)" fill="#01abab"/>
          <path id="Path_298" data-name="Path 298" d="M83.5,189.3h.618v4.377H83.5v-.827a2.1,2.1,0,0,1-1.627.888,2.25,2.25,0,0,1-.061-4.5,1.956,1.956,0,0,1,1.688.808Zm-1.7,3.82a1.632,1.632,0,1,0-1.583-1.636A1.6,1.6,0,0,0,81.808,193.121Z" transform="translate(-58.536 -187.235)" fill="#01abab"/>
          <path id="Path_299" data-name="Path 299" d="M100.884,188.421h-.634V181.98h.634Z" transform="translate(-73.461 -181.977)" fill="#01abab"/>
          <path id="Path_300" data-name="Path 300" d="M118.914,189.3h.618v4.377h-.618v-.827a2.1,2.1,0,0,1-1.627.888,2.25,2.25,0,0,1-.061-4.5,1.956,1.956,0,0,1,1.688.808Zm-1.7,3.82a1.632,1.632,0,1,0-1.583-1.636A1.6,1.6,0,0,0,117.218,193.121Z" transform="translate(-84.179 -187.235)" fill="#01abab"/>
          <path id="Path_301" data-name="Path 301" d="M138.652,189.315h.618v4.005a2.3,2.3,0,0,1-4.438.924l.593-.182a1.48,1.48,0,0,0,1.567,1.026,1.567,1.567,0,0,0,1.663-1.732v-.469a1.956,1.956,0,0,1-1.732.872,2.25,2.25,0,0,1-.011-4.5,2.153,2.153,0,0,1,1.74.88v-.819Zm-1.74,3.82a1.632,1.632,0,1,0-1.611-1.627A1.616,1.616,0,0,0,136.911,193.135Z" transform="translate(-98.416 -187.249)" fill="#01abab"/>
          <path id="Path_302" data-name="Path 302" d="M158.219,192.521l.452.428a2.724,2.724,0,0,1-1.82.783,2.2,2.2,0,0,1-2.2-2.212,2.15,2.15,0,1,1,4.292,0v.262H155.3a1.575,1.575,0,0,0,1.55,1.324,1.9,1.9,0,0,0,1.365-.582Zm-1.393-2.7a1.461,1.461,0,0,0-1.523,1.357h2.985A1.407,1.407,0,0,0,156.826,189.823Z" transform="translate(-112.856 -187.227)" fill="#01abab"/>
          <path id="Path_303" data-name="Path 303" d="M174.263,183.224h-.643V181.98h.643Zm0,5.2h-.643v-4.377h.643Z" transform="translate(-126.593 -181.977)" fill="#01abab"/>
          <path id="Path_304" data-name="Path 304" d="M181.317,189.233a1.815,1.815,0,0,1,1.845,1.914v2.524h-.634v-2.524a1.257,1.257,0,0,0-1.236-1.28A1.291,1.291,0,0,0,180,191.18v2.488h-.634v-4.377H180v.645a1.49,1.49,0,0,1,1.313-.706Z" transform="translate(-130.757 -187.227)" fill="#01abab"/>
          <path id="Path_305" data-name="Path 305" d="M199.532,189.315h.618v4.005a2.3,2.3,0,0,1-4.438.924l.593-.182a1.48,1.48,0,0,0,1.567,1.026,1.567,1.567,0,0,0,1.663-1.732v-.469a1.956,1.956,0,0,1-1.732.872,2.25,2.25,0,0,1-.011-4.5,2.153,2.153,0,0,1,1.741.88v-.819Zm-1.74,3.82a1.632,1.632,0,1,0-1.611-1.627A1.616,1.616,0,0,0,197.791,193.135Z" transform="translate(-142.503 -187.249)" fill="#01abab"/>
          <path id="Path_306" data-name="Path 306" d="M227.909,183.964a2.254,2.254,0,0,1,.019,4.507,2.2,2.2,0,0,1-1.741-.913v.852h-.618V181.97h.618v2.9a2.022,2.022,0,0,1,1.724-.9Zm.017,3.892a1.636,1.636,0,1,0-1.619-1.636A1.623,1.623,0,0,0,227.926,187.856Z" transform="translate(-164.214 -181.97)" fill="#01abab"/>
          <path id="Path_307" data-name="Path 307" d="M248.119,192.521l.452.428a2.725,2.725,0,0,1-1.82.783,2.2,2.2,0,0,1-2.2-2.212,2.15,2.15,0,1,1,4.292,0v.262H245.2a1.575,1.575,0,0,0,1.55,1.324,1.9,1.9,0,0,0,1.365-.582Zm-1.393-2.7a1.461,1.461,0,0,0-1.523,1.357h2.984A1.407,1.407,0,0,0,246.726,189.823Z" transform="translate(-177.959 -187.227)" fill="#01abab"/>
          <path id="Path_308" data-name="Path 308" d="M266.444,189.3h.618v4.377h-.618v-.827a2.1,2.1,0,0,1-1.627.888,2.25,2.25,0,0,1-.061-4.5,1.955,1.955,0,0,1,1.688.808Zm-1.7,3.82a1.632,1.632,0,1,0-1.583-1.636A1.6,1.6,0,0,0,264.748,193.121Z" transform="translate(-191.015 -187.235)" fill="#01abab"/>
          <path id="Path_309" data-name="Path 309" d="M286.349,189.46h.634v4.377h-.634v-.618a1.415,1.415,0,0,1-1.324.679,1.852,1.852,0,0,1-1.845-1.914V189.46h.634v2.524a1.257,1.257,0,0,0,1.236,1.28c1.3,0,1.3-1.385,1.3-1.385V189.46Z" transform="translate(-205.933 -187.394)" fill="#01abab"/>
          <path id="Path_310" data-name="Path 310" d="M302.867,184.043v.634h-.9v3.743h-.634v-3.743h-.747v-.634h.747V181.98h.634v2.063Z" transform="translate(-218.534 -181.977)" fill="#01abab"/>
          <path id="Path_311" data-name="Path 311" d="M314.565,189.46h.687l-2.882,6.424h-.687l.921-2.055-1.724-4.369h.687l1.4,3.561,1.592-3.561Z" transform="translate(-225.993 -187.394)" fill="#01abab"/>
        </g>
        <g id="Group_99" data-name="Group 99" transform="translate(91.383 49.661)">
          <path id="Path_312" data-name="Path 312" d="M342.217,184.426a1.986,1.986,0,0,0-.472.648,26.006,26.006,0,0,1-1.47,2.731c.56.455,2.083,1.611,2.083,2.957a1.023,1.023,0,0,1-.927,1.051c-.439,0-.612-.262-1.067-.891-.386-.524-1.051-1.47-1.156-1.592a14.43,14.43,0,0,1-7.839,5.406l-.069-.141a21.5,21.5,0,0,0,6.752-6.51,19.075,19.075,0,0,0-3.851-2.571,11.576,11.576,0,0,1,4.568,1.346,16.782,16.782,0,0,0,1.47-3.533c0-.6-.979-.946-1.261-1.032a2.123,2.123,0,0,1,1.172-.367,3.1,3.1,0,0,1,2.571,1.889c0,.193-.121.281-.508.612Z" transform="translate(-331.3 -181.398)" fill="#01abab"/>
          <path id="Path_313" data-name="Path 313" d="M394.963,185.285a1.573,1.573,0,0,0-.734.35,26.371,26.371,0,0,1-3.307,2.309l-.1-.088a15.115,15.115,0,0,0,1.925-3.288c-1.451.4-3.009.91-4.5,1.4-.036.472-.121,2.135-.121,3.605,0,1.156.121,1.663,1.873,1.663a13.384,13.384,0,0,0,2.8-.35,2.524,2.524,0,0,1,.524-.069,2.9,2.9,0,0,1,1.487.419.7.7,0,0,1,.246.56c0,.891-1.382,1.067-3.4,1.067-5.073,0-5.056-1-4.951-6.4a17.427,17.427,0,0,0-2.538,1.172,1.066,1.066,0,0,1-.543.193c-.681,0-1.7-1.156-1.7-2.2a2.6,2.6,0,0,1,.174-.963c.439.77.77,1.261,1.611,1.261a17.254,17.254,0,0,0,3.026-.648,23.361,23.361,0,0,0-.174-3.867c-.246-.543-1.1-.681-1.539-.753a2.451,2.451,0,0,1,1.558-.648c.543,0,2.309.334,2.309,1.015,0,.088-.21.805-.21.822a24.271,24.271,0,0,0-.35,2.993c1.487-.419,4.375-1.225,4.479-1.294.174-.1.491-.334.7-.491a.326.326,0,0,1,.21-.069,7.021,7.021,0,0,1,1.644,1.067c.245.193.491.367.491.665,0,.334-.088.367-.894.576Z" transform="translate(-367.965 -180)" fill="#01abab"/>
          <path id="Path_314" data-name="Path 314" d="M443.981,186.288c-.069.314-.367,2.466-.455,2.94a8.039,8.039,0,0,1-4.6,6.055l-.1-.1a12.035,12.035,0,0,0,3.4-8.835c0-1.1-.3-1.189-1.434-1.539a3.139,3.139,0,0,1,1.382-.491c.56,0,2.063.56,2.063,1.172,0,.141-.226.681-.245.805Zm5.039,6.51c-.334.262-1.768,1.382-2.047,1.627-.334.262-.4.279-.472.279-.439,0-1.329-1.539-1.329-1.958a10.5,10.5,0,0,1,.279-1.032c.088-.491.174-2.816.174-4.093A18.094,18.094,0,0,0,445.4,184c-.245-.439-.979-.6-1.313-.681a2.215,2.215,0,0,1,1.208-.508c.612,0,2.328.629,2.328,1.277a10.484,10.484,0,0,1-.314,1.051c-.157.753-.367,5.406-.367,6.49,0,.141.036.262.157.262.665,0,4.165-2.5,6.369-5.249l.121.1a13.589,13.589,0,0,1-4.565,6.055Z" transform="translate(-409.163 -182.035)" fill="#01abab"/>
        </g>
        <g id="Group_100" data-name="Group 100" transform="translate(0 0)">
          <path id="Path_315" data-name="Path 315" d="M11.019,6.726l.665-.841c.132-.163.177-.193.237-.193.088,0,.163.074.281.177l.96.825a.33.33,0,0,1,.132.237c0,.132-.119.146-.221.146H6.3l.723.207c.132.044.3.088.3.281,0,.146-.074.193-.339.37A4.089,4.089,0,0,1,6.8,9.04H10.89l.56-.736c.132-.163.177-.193.237-.193.044,0,.088,0,.3.177l.9.723a.33.33,0,0,1,.163.237c0,.132-.132.149-.221.149H7.158a6.53,6.53,0,0,0,5.533,2.64c.193,0,.339,0,.723-.03v.119A2.472,2.472,0,0,0,12.043,13.6,6.485,6.485,0,0,1,6.8,9.4H6.7c-1.225,3.362-4,3.881-6.446,4.057v-.119C2.9,12.819,4.888,11.018,5.346,9.4h-3.5a8.739,8.739,0,0,0-1.594.1L0,8.952c.9.088,1.947.088,2.11.088H5.428a6.475,6.475,0,0,0,.221-1.506A2.924,2.924,0,0,0,5.6,7.076H1.961a8.739,8.739,0,0,0-1.594.1L.13,6.632c.9.088,1.934.088,2.094.088H5.674V4.936H3.285a8.739,8.739,0,0,0-1.594.1l-.237-.546c.9.088,1.934.088,2.094.088H5.671V3.149h-3.2a9.18,9.18,0,0,0-1.594.088L.637,2.7c.885.074,1.934.088,2.094.088H7.185A6.6,6.6,0,0,0,8.115-.04L9.693.934c.119.074.193.119.193.265,0,.193-.132.221-.5.3-.576.441-.709.532-1.873,1.3h2.877l.634-.8c.119-.146.149-.177.221-.177.1,0,.193.088.281.163l.855.767c.074.074.149.146.149.237,0,.132-.132.163-.237.163H6.921V4.58H9.207l.458-.621c.088-.132.132-.193.221-.193s.1.03.281.163l.8.634a.278.278,0,0,1,.149.221c0,.132-.119.146-.221.146H6.923V6.715h4.085ZM2.772.252c1.7.207,2.684,1.018,2.684,1.8a.668.668,0,0,1-.665.736c-.414,0-.516-.221-.841-.855A4.211,4.211,0,0,0,2.725.368L2.769.25Z" transform="translate(0 0.04)" fill="#01abab"/>
          <path id="Path_316" data-name="Path 316" d="M58.773,7.02H54.258c.014.692-.014,2.022-.074,2.772A8.729,8.729,0,0,0,56.545,7.18l1.076.811a.33.33,0,0,1,.163.237c0,.207-.309.221-.648.221A10.832,10.832,0,0,1,54.17,9.982a7.075,7.075,0,0,1-1.978,4.675l-.1-.044c1.018-1.357,1.018-5.075,1.018-5.872a14.533,14.533,0,0,0-.207-2.67l1.506.59h1.506a7.605,7.605,0,0,0,.576-2.256c0-.132-.014-.339-.03-.6l1.476.621c.193.074.281.132.281.281,0,.119-.014.193-.516.353a20.8,20.8,0,0,1-1.489,1.608h1.15l.441-.5q.163-.177.221-.177c.1,0,.237.119.281.149l.546.485c.014.014.149.149.149.237,0,.132-.119.163-.221.163Zm-.119-3.467H54.407a7.605,7.605,0,0,0-1.594.1l-.251-.546c.9.088,1.947.088,2.11.088h.546a4.151,4.151,0,0,0-.37-1.917l1.52.383c.325.088.339.163.339.281,0,.1,0,.146-.339.37V3.2H57.2l.4-.516c.132-.177.177-.177.221-.177.074,0,.119.03.265.146l.648.516a.278.278,0,0,1,.149.221C58.875,3.536,58.757,3.553,58.655,3.553Zm-.339,8.068a10.006,10.006,0,0,1-4.766,2.345v-.1a14.125,14.125,0,0,0,3.26-2.375,8.646,8.646,0,0,0,.987-1.167l1,.811a.228.228,0,0,1,.1.207c0,.221-.088.237-.59.281ZM54.774,6.4c-.428,0-.56-.221-.692-.9A4.863,4.863,0,0,0,53.6,4.025l.044-.088c.516.146,1.815.723,1.815,1.74a.652.652,0,0,1-.679.723Zm3.26,3.481a8.74,8.74,0,0,1-3.864,1.829v-.074c1.889-1.194,3.156-2.494,3.3-3.04l.96.767a.524.524,0,0,1,.163.281c0,.177-.193.207-.56.237Zm7.257-7.036H62.533a10.134,10.134,0,0,1-1.327,1.947h1.947l.5-.458c.088-.088.163-.163.251-.163a.576.576,0,0,1,.3.163l.621.472c.1.074.149.119.149.207,0,.119-.014.193-.4.546.014.37,0,.441.014,1.062.03,1.181.1,3.525.119,4.5a.7.7,0,0,1-.753.767c-.53,0-.546-.207-.546-.5H60.4a.4.4,0,0,1-.03.221l1.032.885a.385.385,0,0,1,.146.251c0,.177-.074.177-.634.163A10.668,10.668,0,0,1,56.5,14.512l-.014-.1a13.493,13.493,0,0,0,3.658-2.551.967.967,0,0,1-.488.132c-.458,0-.458-.193-.458-.37,0-.736.044-4.353.044-5.177a13.49,13.49,0,0,0-.149-2.331l1.459.679h.37a17.817,17.817,0,0,0,.088-1.947h-.339a7.182,7.182,0,0,0-1.594.1L58.84,2.4c.692.058,1.387.088,2.094.088h2.612l.5-.665c.132-.163.177-.193.237-.193s.132.058.265.163l.827.665c.044.044.146.119.146.221,0,.149-.146.163-.237.163ZM63.4,5.144H60.379v1.7H63.4Zm0,2.049H60.379v1.7H63.4Zm0,2.049H60.379v1.785H63.4Zm1.313,5.326c-.414,0-.56-.221-1.048-.93a10.848,10.848,0,0,0-1.622-1.754l.058-.074c2.066.325,3.23,1.3,3.23,2.154a.58.58,0,0,1-.621.6Z" transform="translate(-37.722 -0.916)" fill="#01abab"/>
          <path id="Path_317" data-name="Path 317" d="M106.919,23.558a1.3,1.3,0,1,1,1.3-1.3A1.293,1.293,0,0,1,106.919,23.558Z" transform="translate(-76.487 -15.168)" fill="#01abab"/>
          <path id="Path_318" data-name="Path 318" d="M123.589,2.165l.546-.353a.633.633,0,0,1,.265-.1.212.212,0,0,1,.177.1l.692.841a.607.607,0,0,1,.132.3c0,.265-.428.339-.634.383a18.586,18.586,0,0,1-2.64,3.23,8.36,8.36,0,0,1-3.806,2.212l-.03-.088A17.48,17.48,0,0,0,121.7,5.558c-.149,0-.339,0-.621-.414a6.466,6.466,0,0,0-1.225-1.489l.03-.119c.943.044,2.256.237,2.433,1.194a11.159,11.159,0,0,0,1.269-2.212h-1.459a8.379,8.379,0,0,0-1.594.1l-.237-.546c.692.058,1.4.088,2.094.088h1.194Zm.692,7.847c-.37,3.172-2.11,4.146-4.855,4.648l-.058-.149c3.023-1.076,3.423-2.684,3.644-4.5h-1.432a9.18,9.18,0,0,0-1.594.088l-.237-.532c.885.074,1.934.088,2.094.088h1.211c0-.044.088-1.12.074-2.066a6.529,6.529,0,0,0-1.136.088l-.237-.546c.885.088,1.934.088,2.094.088h2.273l.692-.8c.146-.163.163-.177.221-.177.074,0,.149.044.281.146l.974.811c.074.058.149.119.149.221,0,.132-.119.149-.221.149h-1.3c0,.339.03,1.785.03,2.08h1.208l.634-.872c.058-.074.132-.193.221-.193s.1.03.281.163l1.106.872a.31.31,0,0,1,.146.221c0,.132-.132.163-.237.163h-3.362c.014.441-.014,2.449.058,2.772.058.281.074.37,1.608.37,1.106,0,1.238-.265,1.357-.5a17.7,17.7,0,0,0,.736-2.022h.132c.014,1.238.03,1.666.251,2.036.044.074.353.339.353.414a1.63,1.63,0,0,1-.546.841c-.339.325-.767.458-2.243.458-2.521,0-2.833-.339-2.891-1.459-.014-.353-.014-2.463-.014-2.907h-1.476Zm1.476-.353V7.58h-1.4a19.327,19.327,0,0,1-.03,2.08Zm4.573-5.842c.177.149.207.221.207.265,0,.207-.177.221-.648.207-.221.1-1.194.488-1.8.723a7.829,7.829,0,0,0,4.485,1.9v.119a2.846,2.846,0,0,0-1.534,1.327,8.037,8.037,0,0,1-3.451-2.568,9.79,9.79,0,0,1-2.317-4.176l.163-.058A6.864,6.864,0,0,0,126.6,3.448a5.28,5.28,0,0,0,1.181-2.168l1.194.916c.146.1.207.146.207.265,0,.177-.207.221-.309.221a.565.565,0,0,1-.207-.03,14.914,14.914,0,0,1-1.843,1.076,11.831,11.831,0,0,0,.987,1.032,4.39,4.39,0,0,0,1.3-1.917l1.225.974Z" transform="translate(-85.662 -0.916)" fill="#01abab"/>
          <path id="Path_319" data-name="Path 319" d="M175.646,6.035a8.776,8.776,0,0,0-1.564.265l-.309-.5c.811-.03,1.889-.119,2.094-.149l2.538-.281.03-2.273a23.458,23.458,0,0,1-4.173.4c-.634,0-1.048-.03-1.4-.044V3.315a48.345,48.345,0,0,0,8.261-1.978c1.3-.414,1.4-.532,1.666-.827l1.12,1.076c.1.1.163.163.163.237,0,.207-.193.207-.251.207-.074,0-.4-.044-.472-.044-.872.207-1.9.441-2.507.576-.325.074-.916.207-1.15.251l-.058,2.419,2.67-.281.458-.811c.119-.207.146-.265.251-.265a.6.6,0,0,1,.281.146l.974.665c.1.074.177.119.177.237,0,.1-.1.132-.207.149l-4.617.516c-.03,1-.044,2.11-.058,3l3.881-.441.59-.916c.074-.119.132-.221.221-.221a.488.488,0,0,1,.281.132l1.032.736c.1.074.163.132.163.237s-.132.146-.207.163l-5.975.665c-.014.532-.044,2.656-.044,3.053,0,.325.058.441.3.516.221.058,1.8.074,2.154.074,1.947,0,2.08-.177,2.361-.841a5.765,5.765,0,0,0,.485-1.666h.119a10.327,10.327,0,0,0,.472,1.815,3.215,3.215,0,0,1,.414.665,1.35,1.35,0,0,1-.679.827,10.731,10.731,0,0,1-3.407.383c-2.891,0-3.423-.251-3.423-1.71,0-.221.044-2.507.058-2.979l-3.613.4a8.217,8.217,0,0,0-1.578.281l-.3-.5c.841-.03,1.947-.132,2.094-.146l3.393-.383c0-.472.044-2.568.044-3l-2.745.309Z" transform="translate(-125.18 -0.358)" fill="#01abab"/>
        </g>
        <path id="Path_320" data-name="Path 320" d="M27.941,64.33a9.144,9.144,0,0,0-7.494,3.911,9.131,9.131,0,0,0-13.334-1.8v-.356H3.8V92.181H7.11v-18.7a5.839,5.839,0,0,1,11.679,0v18.7H22.1v-18.7a5.839,5.839,0,0,1,11.679,0v18.7h3.31v-18.7a9.16,9.16,0,0,0-9.149-9.149Z" transform="translate(-2.752 -46.575)" fill="#01abab"/>
        <path id="Path_321" data-name="Path 321" d="M149.288,88.783a14.656,14.656,0,1,1,10.366-25.021l.75.8L142.119,82.941a12.7,12.7,0,0,0,7.169,2.565,11.3,11.3,0,0,0,8.046-3.332,6.227,6.227,0,0,0,.891-1l3.285,1.145a22.391,22.391,0,0,1-1.859,2.176,14.557,14.557,0,0,1-10.363,4.292Zm0-26.039a11.381,11.381,0,0,0-11.381,11.378,10.679,10.679,0,0,0,2.025,6.661l15.949-15.94a10.546,10.546,0,0,0-6.592-2.1Z" transform="translate(-97.495 -43.055)" fill="#01abab"/>
        <path id="Path_322" data-name="Path 322" d="M246.039,51.575l-.276-.006a9.825,9.825,0,0,1-8.54-6.217l2.984-1.307a6.685,6.685,0,0,0,5.7,4.215,5.953,5.953,0,0,0,2.72-11.174l-7.961-4.358a13.779,13.779,0,0,1-7.163-12.09,12.548,12.548,0,0,1,24.869-2.375l.229,1.186L255.335,20.6l-.215-1.71a9.238,9.238,0,0,0-18.31,1.749,10.466,10.466,0,0,0,5.442,9.185l7.961,4.358a9.265,9.265,0,0,1-4.173,17.386h0Z" transform="translate(-169.093 -5.847)" fill="#01abab"/>
        <path id="Path_323" data-name="Path 323" d="M353.978,11.41V8.1H332.4V51.582h21.578v-3.31H335.71V31.5h18.268v-3.31H335.71V11.41Z" transform="translate(-240.714 -5.855)" fill="#01abab"/>
        <path id="Path_324" data-name="Path 324" d="M440.4,50.851H420.88v-3.31h16.213V7.09h3.31Z" transform="translate(-304.788 -5.123)" fill="#01abab"/>
      </g>
    </g>
  </g>
</svg>
