<svg xmlns="http://www.w3.org/2000/svg" width="220" height="220" viewBox="0 0 220 220">
  <g id="Group_345" data-name="Group 345" transform="translate(-1114 -2872)">
    <g id="Ellipse_63" data-name="Ellipse 63" transform="translate(1114 2872)" fill="#f1fbfc" stroke="#01abab" stroke-width="1">
      <circle cx="110" cy="110" r="110" stroke="none"/>
      <circle cx="110" cy="110" r="109.5" fill="none"/>
    </g>
    <path id="Path_717" data-name="Path 717" d="M-19.5-18.48a29.959,29.959,0,0,1,3.09.15v-2.01a17.682,17.682,0,0,1-2.91.18h-3.24V-22.8a10.616,10.616,0,0,1,.15-2.07h-2.1a12.329,12.329,0,0,1,.12,1.95c.03,1.38.03,1.89.03,2.76h-5.73A23.261,23.261,0,0,1-33-20.31c.09,1.05.12,1.83.12,3.57a107.738,107.738,0,0,1-.51,12.12A13.82,13.82,0,0,1-35.28.9a3.87,3.87,0,0,1,1.53,1.23,18.365,18.365,0,0,0,2.16-6.96c.18-1.56.27-3.39.42-7.65h3.69a62.505,62.505,0,0,1-.36,6.33c-.18,1.11-.36,1.35-1.08,1.35a8.753,8.753,0,0,1-1.95-.24,6.065,6.065,0,0,1,.33,1.83,13.582,13.582,0,0,0,1.68.12c1.35,0,1.89-.21,2.28-.96.42-.84.72-3.24.84-7.08.09-2.52.09-2.58.15-3.12a20.264,20.264,0,0,1-2.61.12h-2.94c.03-1.14.03-1.74.03-2.52v-1.83h6.81A51.884,51.884,0,0,0-22.8-5.94,20.565,20.565,0,0,1-30.15.78a4.49,4.49,0,0,1,1.32,1.38,22.309,22.309,0,0,0,6.66-6.12A18.042,18.042,0,0,0-20.61-.72c.84,1.38,1.65,2.04,2.43,2.04,1.2,0,1.86-1.59,2.25-5.49a4.645,4.645,0,0,1-1.59-1.05,21.407,21.407,0,0,1-.3,3.09c-.27,1.14-.27,1.14-.54,1.26-.63-.24-1.74-2.37-2.58-4.92a31.1,31.1,0,0,0,3.3-7.47,10.894,10.894,0,0,1,.6-1.68l-1.86-.78a14.422,14.422,0,0,1-.3,1.65,24.164,24.164,0,0,1-2.34,6,47.3,47.3,0,0,1-.96-9.24c0-.24-.03-.69-.03-1.17Zm-23.1-3.81a15.31,15.31,0,0,1,2.16-.12h3.69a14.775,14.775,0,0,1,2.16.12v-1.89a11.037,11.037,0,0,1-2.16.15h-3.69a10.672,10.672,0,0,1-2.16-.15Zm-1.08,4.2a17.646,17.646,0,0,1,2.4-.12h4.95a13.705,13.705,0,0,1,2.19.12v-1.95a12.246,12.246,0,0,1-2.4.15h-4.74a12.82,12.82,0,0,1-2.4-.15Zm1.02,4.14a12.352,12.352,0,0,1,2.04-.12h3.63a12.734,12.734,0,0,1,1.98.12v-1.86a11.125,11.125,0,0,1-1.98.12h-3.63a11.9,11.9,0,0,1-2.04-.12Zm0,4.14a11.954,11.954,0,0,1,2.01-.12h3.63a12.183,12.183,0,0,1,2.01.12v-1.86a11.508,11.508,0,0,1-2.01.12h-3.6a12.352,12.352,0,0,1-2.04-.12Zm1.74,11.43V-.15h3.99c.6,0,1.23.03,1.62.06-.06-.72-.06-1.08-.06-1.95V-5.22a13.294,13.294,0,0,1,.09-2.34,11.063,11.063,0,0,1-1.8.09h-3.69a9.776,9.776,0,0,1-1.92-.12,20.92,20.92,0,0,1,.12,2.43v3.87a28.975,28.975,0,0,1-.15,2.91Zm-.03-7.56h4.02v4.23h-4.02Zm23.73-16.11a17.645,17.645,0,0,0-3.36-2.85l-1.14,1.02a14.346,14.346,0,0,1,3.24,3.03ZM10.26-6.72a19.66,19.66,0,0,1,2.82.18V-8.55a17.047,17.047,0,0,1-2.79.18H.03a22.434,22.434,0,0,0,.45-2.88H6.54a14.408,14.408,0,0,1,2.58.15v-1.89a14.408,14.408,0,0,1-2.58.15H.6c.06-.99.09-1.71.12-2.67h6.3a15.826,15.826,0,0,1,2.88.18v-1.95a17.52,17.52,0,0,1-2.88.18H.75A10.8,10.8,0,0,1,.9-19.53H-1.32a10.939,10.939,0,0,1,.18,2.43H-6.96a17.773,17.773,0,0,1-2.88-.18v1.95a18.556,18.556,0,0,1,2.88-.18h5.79c-.03,1.17-.03,1.5-.09,2.67H-6.84a14.786,14.786,0,0,1-2.61-.15v1.89a14.58,14.58,0,0,1,2.61-.15h5.43a17.612,17.612,0,0,1-.42,2.88h-8.22a16.643,16.643,0,0,1-2.76-.18v2.01a19.82,19.82,0,0,1,2.79-.18H-2.4A9.972,9.972,0,0,1-6.81-2.07,18.2,18.2,0,0,1-13.23.09a7.024,7.024,0,0,1,1.11,1.89A20.688,20.688,0,0,0-5.31-.78,11.573,11.573,0,0,0-.6-6.39C2.28-2.04,5.97.36,12.33,2.04A7.755,7.755,0,0,1,13.47.09,22.844,22.844,0,0,1,5.16-2.97a14.029,14.029,0,0,1-3.9-3.75ZM-1.2-22.02H-9.45a29.587,29.587,0,0,1-3.03-.12,13.825,13.825,0,0,1,.12,2.04v1.74a13.735,13.735,0,0,1-.12,2.07h1.98v-4.08H10.62v4.08h1.95a13.483,13.483,0,0,1-.12-2.07v-1.77a13.661,13.661,0,0,1,.12-2.01,29.34,29.34,0,0,1-3,.12H.75v-1.14a9.538,9.538,0,0,1,.18-1.86H-1.41a7.863,7.863,0,0,1,.21,1.86Zm20.73,6.15a6.627,6.627,0,0,1,1.17-.09,88.334,88.334,0,0,0,10.68-.78c.18.3.18.36.51.99a36.582,36.582,0,0,0,3.6,5.88,14.98,14.98,0,0,0-6.21-1.08,12.752,12.752,0,0,0-5.82,1.11,5.607,5.607,0,0,0-3.39,4.89,4.839,4.839,0,0,0,1.35,3.3C22.8-.21,25.56.6,29.22.6a24.87,24.87,0,0,0,8.82-1.62l-.33-2.31a19.779,19.779,0,0,1-8.52,1.92c-2.58,0-4.74-.51-5.85-1.38A3,3,0,0,1,22.2-5.13a3.407,3.407,0,0,1,1.62-2.79,10.635,10.635,0,0,1,5.7-1.26,16.256,16.256,0,0,1,5.25.78,6,6,0,0,1,2.07,1.23l2.01-1.14a55.556,55.556,0,0,1-5.4-8.73c.3-.06.3-.06,1.02-.21,1.89-.36,2.25-.45,4.05-.93.9-.24,1.14-.3,1.77-.42l-.3-2.13a35.11,35.11,0,0,1-7.26,1.89,24.68,24.68,0,0,1-1.08-2.64,9.562,9.562,0,0,1-.87-2.7l-2.37.33c.27.54.45.96.78,1.74.54,1.35,1.02,2.55,1.47,3.57a70.023,70.023,0,0,1-8.94.63,13.153,13.153,0,0,1-2.31-.15Z" transform="translate(1224 3049)" fill="#01abab"/>
    <g id="Layer_2" data-name="Layer 2" transform="translate(1183 2920.379)">
      <path id="Path_660" data-name="Path 660" d="M55.628,35.626S77.516,20.287,77.516,11.88,72.326,1,66.572,1,56.244,6.074,55.628,7.8C55.013,6.074,50.437,1,44.684,1S33.74,3.473,33.74,11.88,55.628,35.626,55.628,35.626Z" transform="translate(2.014 0)" fill="#7fd5d5"/>
      <path id="Path_661" data-name="Path 661" d="M55.628,35.626S77.516,20.287,77.516,11.88,72.326,1,66.572,1,56.244,6.074,55.628,7.8C55.013,6.074,50.437,1,44.684,1S33.74,3.473,33.74,11.88,55.628,35.626,55.628,35.626Z" transform="translate(2.014 0)" fill="none" stroke="#01abab" stroke-linecap="round" stroke-linejoin="round" stroke-width="2"/>
      <path id="Path_662" data-name="Path 662" d="M24.88,44.718A13.761,13.761,0,0,1,34.964,40.27c6.433,0,8.036.87,12.918,1.115s6.677-.679,10.084-.552,6.433,2.038,6.5,3.588-3.959,3.153-6.549,3.089-7.356-.372-9.713,0-5.01,2.781-5.01,2.781" transform="translate(1.469 2.415)" fill="rgba(0,0,0,0)" stroke="#01abab" stroke-linecap="round" stroke-linejoin="round" stroke-width="2"/>
      <path id="Path_663" data-name="Path 663" d="M65.077,45.38h2.537c1.422,0,5.934-4.947,7.176-6.125s7.293-1.486,4.395,2.537-7.972,9.086-13.417,10.7-11.443,4.023-20.158,4.267A55.858,55.858,0,0,1,30.95,55.4" transform="translate(1.842 2.305)" fill="rgba(0,0,0,0)" stroke="#01abab" stroke-linecap="round" stroke-linejoin="round" stroke-width="2"/>
      <path id="Path_664" data-name="Path 664" d="M18.59,44.537l4.458-2.357,9.766,16.581L28.42,60.979" transform="translate(1.082 2.533)" fill="rgba(0,0,0,0)" stroke="#01abab" stroke-linecap="round" stroke-linejoin="round" stroke-width="2"/>
      <path id="Path_665" data-name="Path 665" d="M1,52.02l17.133-9.84L29.385,61.287,8.611,74.089" transform="translate(0 2.533)" fill="rgba(0,0,0,0)" stroke="#01abab" stroke-linecap="round" stroke-linejoin="round" stroke-width="2"/>
    </g>
  </g>
</svg>
