<svg xmlns="http://www.w3.org/2000/svg" width="630" height="119.001" viewBox="0 0 630 119.001">
  <g id="Union_3" data-name="Union 3" transform="translate(-546.002 -16138)" fill="#fff">
    <path d="M 861.5020141601562 16256.4267578125 L 838.7874755859375 16243.56640625 L 838.6729125976562 16243.501953125 L 838.5411987304688 16243.501953125 L 599.0009155273438 16243.501953125 C 591.9135131835938 16243.501953125 585.038330078125 16242.1142578125 578.56640625 16239.3759765625 C 572.31494140625 16236.732421875 566.700439453125 16232.9462890625 561.87890625 16228.1240234375 C 557.0571899414062 16223.302734375 553.271728515625 16217.6875 550.6275634765625 16211.435546875 C 547.8900146484375 16204.962890625 546.5020141601562 16198.0869140625 546.5020141601562 16190.9990234375 C 546.5020141601562 16183.912109375 547.8900146484375 16177.0361328125 550.6275634765625 16170.564453125 C 553.271728515625 16164.3134765625 557.0572509765625 16158.6982421875 561.87890625 16153.876953125 C 566.7005004882812 16149.0556640625 572.31494140625 16145.26953125 578.56640625 16142.6259765625 C 585.0384521484375 16139.8876953125 591.91357421875 16138.5 599.0009155273438 16138.5 L 1123.003662109375 16138.5 C 1130.090942382812 16138.5 1136.966064453125 16139.8876953125 1143.438110351562 16142.6259765625 C 1149.689453125 16145.26953125 1155.303955078125 16149.0556640625 1160.125610351562 16153.876953125 C 1164.947143554688 16158.6982421875 1168.732788085938 16164.3134765625 1171.376831054688 16170.564453125 C 1174.114379882812 16177.0361328125 1175.50244140625 16183.912109375 1175.50244140625 16190.9990234375 C 1175.50244140625 16198.0869140625 1174.114379882812 16204.962890625 1171.376831054688 16211.435546875 C 1168.732788085938 16217.6875 1164.947265625 16223.302734375 1160.125610351562 16228.1240234375 C 1155.304077148438 16232.9462890625 1149.689453125 16236.732421875 1143.43798828125 16239.3759765625 C 1136.966064453125 16242.1142578125 1130.091064453125 16243.501953125 1123.003662109375 16243.501953125 L 884.462890625 16243.501953125 L 884.3311767578125 16243.501953125 L 884.216552734375 16243.56640625 L 861.5020141601562 16256.4267578125 Z" stroke="none"/>
    <path d="M 861.5020141601562 16255.8515625 L 884.1994018554688 16243.001953125 L 1123.003662109375 16243.001953125 C 1130.023681640625 16243.001953125 1136.833374023438 16241.626953125 1143.243286132812 16238.916015625 C 1149.435180664062 16236.296875 1154.996215820312 16232.546875 1159.772094726562 16227.7705078125 C 1164.5478515625 16222.9951171875 1168.297485351562 16217.43359375 1170.916381835938 16211.2412109375 C 1173.627685546875 16204.830078125 1175.00244140625 16198.01953125 1175.00244140625 16190.9990234375 C 1175.00244140625 16183.978515625 1173.627685546875 16177.1689453125 1170.916381835938 16170.759765625 C 1168.297485351562 16164.5673828125 1164.5478515625 16159.0068359375 1159.772094726562 16154.23046875 C 1154.996215820312 16149.455078125 1149.435180664062 16145.705078125 1143.243286132812 16143.0859375 C 1136.833251953125 16140.375 1130.023681640625 16139 1123.003662109375 16139 L 599.0009155273438 16139 C 591.9808349609375 16139 585.1712036132812 16140.375 578.7611694335938 16143.0859375 C 572.5693359375 16145.705078125 567.00830078125 16149.455078125 562.232421875 16154.23046875 C 557.4566040039062 16159.0068359375 553.70703125 16164.5673828125 551.0880737304688 16170.759765625 C 548.3768310546875 16177.1689453125 547.0020141601562 16183.978515625 547.0020141601562 16190.9990234375 C 547.0020141601562 16198.01953125 548.3768310546875 16204.830078125 551.0880737304688 16211.2412109375 C 553.70703125 16217.43359375 557.4566040039062 16222.9951171875 562.232421875 16227.7705078125 C 567.00830078125 16232.546875 572.5693359375 16236.296875 578.7611694335938 16238.916015625 C 585.1712036132812 16241.626953125 591.9808349609375 16243.001953125 599.0009155273438 16243.001953125 L 838.8046875 16243.001953125 L 839.0338745117188 16243.1318359375 L 861.5020141601562 16255.8515625 M 861.5020141601562 16257.0009765625 L 838.5411987304688 16244.001953125 L 599.0009155273438 16244.001953125 C 569.7311401367188 16244.001953125 546.0020141601562 16220.2724609375 546.0020141601562 16190.9990234375 C 546.0020141601562 16161.7294921875 569.7311401367188 16138 599.0009155273438 16138 L 1123.003662109375 16138 C 1152.273315429688 16138 1176.00244140625 16161.7294921875 1176.00244140625 16190.9990234375 C 1176.00244140625 16220.2724609375 1152.273315429688 16244.001953125 1123.003662109375 16244.001953125 L 884.462890625 16244.001953125 L 861.5020141601562 16257.0009765625 Z" stroke="none" fill="#01abab"/>
  </g>
</svg>
