<svg xmlns="http://www.w3.org/2000/svg" width="576" height="559" viewBox="0 0 576 559">
  <g id="Group_333" data-name="Group 333" transform="translate(-673 -1350)">
    <g id="Group_1" data-name="Group 1" transform="translate(34.688 -903.313)">
      <line id="Line_1" data-name="Line 1" x2="107" y2="107" transform="translate(872.313 2310.313)" fill="none" stroke="#707070" stroke-width="1"/>
      <line id="Line_2" data-name="Line 2" x1="107" y2="107" transform="translate(872.313 2310.313)" fill="none" stroke="#707070" stroke-width="1"/>
    </g>
    <g id="Group_188" data-name="Group 188" transform="translate(26 -43)">
      <g id="Group_186" data-name="Group 186" transform="translate(-14)">
        <circle id="Ellipse_2" data-name="Ellipse 2" cx="100" cy="100" r="100" transform="translate(676 1393)" fill="#f2f7f9"/>
        <path id="Path_731" data-name="Path 731" d="M-61.275.2c-1.8,0-2.175-.35-2.175-1.65V-5.9l11.775-1.575-.15-1.125L-63.45-7.05v-4.575l10.025-1.425-.2-1.1-9.825,1.375V-17.25a50.711,50.711,0,0,0,8.825-2.4l-1.075-.925c-3.75,1.6-11.025,2.95-17.225,3.8A3.065,3.065,0,0,1-72.6-15.75c2.575-.35,5.325-.75,7.95-1.25v4.375l-7.95,1.15.2,1.125,7.75-1.1V-6.9l-8.675,1.15.2,1.125L-64.65-5.75v4.275c0,2.3.775,2.85,3.4,2.85h6.925c2.475,0,2.9-1.05,3.175-4.3a4.345,4.345,0,0,1-1.2-.55C-52.525-.5-52.775.2-54.3.2Zm32.3-20.7a15.431,15.431,0,0,1-6.475,3,6.528,6.528,0,0,1,.675.825,16,16,0,0,0,6.675-3.2Zm.825,3.525A20.025,20.025,0,0,1-35.175-13.9a5.331,5.331,0,0,1,.7.825,22.2,22.2,0,0,0,7.15-3.25Zm.75,3.875c-1.725,1.475-5.225,2.65-8.45,3.2a4.78,4.78,0,0,1,.6.85c3.325-.625,6.9-1.8,8.7-3.425Zm-20.475,2.75.2,1c2.55-.15,6.025-.4,9.5-.675A13.222,13.222,0,0,1-37.25-8.85l.975-.55a22.514,22.514,0,0,0-2.95-3.2l-.925.475c.4.375.825.825,1.225,1.25-2,.125-4,.25-5.725.35.375-.7.775-1.525,1.15-2.325h7.525v-.925h-8.95V-14.95h7.475v-.85h-7.475v-1.225H-37.5V-17.9h-7.425v-1.2h8.075V-20h-9.175v6.225h-2.15v.925h3.45c-.325.775-.75,1.7-1.125,2.4Zm15.95,6.55a11.947,11.947,0,0,1-4.15,2.7A12.345,12.345,0,0,1-40.55-3.8ZM-30.8-4.825l-.275.075h-10.35a17.575,17.575,0,0,0,.95-1.95H-26.55V-7.725H-40.075c.15-.425.3-.85.425-1.275l-1.25-.275c-.125.525-.3,1.025-.475,1.55h-7.05V-6.7H-41.8a16.021,16.021,0,0,1-7.025,7.8,4.93,4.93,0,0,1,.95.775A16.415,16.415,0,0,0-42-3.8h.2A12.154,12.154,0,0,0-37.35-.6,33.067,33.067,0,0,1-44,.9a5.1,5.1,0,0,1,.65.975A32.842,32.842,0,0,0-36.025-.05a34.317,34.317,0,0,0,9.075,1.9,4.4,4.4,0,0,1,.675-1,38.336,38.336,0,0,1-8.45-1.475,11.8,11.8,0,0,0,4.6-3.725Zm18.8-.7v-3.75h6.6v3.75Zm-7.625-3.75h6.45v3.75h-6.45ZM-13.175-14v3.625h-6.45V-14ZM-5.4-14v3.625H-12V-14Zm4.275,8.475h-3.1v-9.6H-12V-18.05H-1.975V-19.2h-21v1.15h9.8v2.925H-20.8v9.6h-3.025V-4.4H-20.8V1.9h1.175V-4.4H-5.4V.1c0,.425-.15.55-.6.575s-2.05.05-3.85,0a6.117,6.117,0,0,1,.5,1.2,20.073,20.073,0,0,0,4.2-.225c.675-.225.925-.625.925-1.55V-4.4h3.1ZM13.15-.2V-7.325h8.425V-8.5H13.15v-6.125h9.3v-1.15h-9.3v-5.05H11.925v5.05h-5.8a39.725,39.725,0,0,0,1.525-4.3l-1.225-.25a23.32,23.32,0,0,1-4.7,9.375c.3.175.85.525,1.075.7a19.642,19.642,0,0,0,2.8-4.375h6.325V-8.5H4.1v1.175h7.825V-.2H1.5V.975H23.575V-.2Zm20.9-9.45c-1,.3-2.05.625-3.05.925V-14.45h2.95V-15.6H31v-5.225H29.825V-15.6H26.4v1.15h3.425v6.075c-1.4.425-2.7.8-3.725,1.075l.4,1.175c1-.3,2.125-.675,3.325-1.025V.2c0,.375-.15.5-.5.5-.3.025-1.4.025-2.7,0a5.354,5.354,0,0,1,.4,1.1,10.816,10.816,0,0,0,3.2-.2C30.75,1.375,31,1.05,31,.175v-7.7c1.05-.35,2.125-.7,3.2-1.025Zm11.675-.525a17,17,0,0,1-4.6,6.575,17.97,17.97,0,0,1-4.15-6.575Zm.775-1.2-.25.05H41.725v-4.2H47.95v-1.15H41.725v-4.15h-1.2v4.15H34.35v1.15h6.175v4.2h-5.65v1.15h.9a20.075,20.075,0,0,0,4.425,7.3A20.093,20.093,0,0,1,32.925.75a6.713,6.713,0,0,1,.65,1.1,22.922,22.922,0,0,0,7.5-3.9,17.443,17.443,0,0,0,6.95,3.9,4.533,4.533,0,0,1,.8-1.025A17.28,17.28,0,0,1,41.95-2.8a18.553,18.553,0,0,0,5.3-8.2Zm26.975-7.9h-5.95v1.125h5.95ZM67-16.825a14.486,14.486,0,0,0-2.425-3.425l-.825.475A15.95,15.95,0,0,1,66.125-16.3Zm-11.475-4a17.978,17.978,0,0,1-4.6,5.175,6.292,6.292,0,0,1,.75.875,23.234,23.234,0,0,0,5-5.625Zm.825,4.875A22.344,22.344,0,0,1,50.525-8.6a6.863,6.863,0,0,1,.8.975,23.955,23.955,0,0,0,2.625-2.65V1.85h1.125V-11.7a25.992,25.992,0,0,0,2.375-3.875Zm2.075,5.275C58.2-7.3,57.75-4.075,56.6-1.925a5.9,5.9,0,0,1,.975.575c1.125-2.275,1.675-5.575,1.95-9.2Zm8.45-3.425v-1.125h-4.15v-5.25h-1.15v5.25H57.55V-14.1h4.025V1.45h1.15V-14.1Zm-2.5,3.65a42.953,42.953,0,0,1,1.5,7.425l1.05-.2a40.661,40.661,0,0,0-1.525-7.4Zm9.45-2.075H66.95V-11.4h3.3V.225c0,.325-.1.425-.5.45-.35,0-1.575,0-3.025-.05a6.543,6.543,0,0,1,.375,1.2,14.351,14.351,0,0,0,3.5-.2c.6-.225.8-.6.8-1.4V-11.4h2.425Z" transform="translate(776 1504)" fill="#006385"/>
        <path id="Path_730" data-name="Path 730" d="M1.2,0H2.316V-3.492H3.768c1.932,0,3.24-.864,3.24-2.724,0-1.92-1.32-2.592-3.288-2.592H1.2ZM2.316-4.392V-7.9h1.26c1.548,0,2.328.408,2.328,1.68s-.732,1.824-2.28,1.824ZM12.036.156c2.208,0,3.756-1.764,3.756-4.584s-1.548-4.536-3.756-4.536S8.28-7.248,8.28-4.428,9.828.156,12.036.156Zm0-.972c-1.584,0-2.616-1.416-2.616-3.612s1.032-3.564,2.616-3.564,2.616,1.356,2.616,3.564S13.608-.816,12.036-.816ZM17.688,0H18.8V-8.808H17.688ZM21.2,0H22.26V-4.62c0-.924-.084-1.86-.132-2.748h.048l.948,1.812L26.328,0h1.14V-8.808H26.412v4.584c0,.912.084,1.9.144,2.784H26.5L25.56-3.252l-3.2-5.556H21.2ZM31.7,0H32.82V-7.86h2.664v-.948H29.04v.948H31.7Z" transform="translate(758 1446)" fill="#006385"/>
      </g>
      <g id="Group_184" data-name="Group 184" transform="translate(-25)">
        <rect id="Rectangle_1" data-name="Rectangle 1" width="180" height="50" transform="translate(697 1613)" fill="#006385"/>
        <g id="Rectangle_109" data-name="Rectangle 109" transform="translate(702 1618)" fill="none" stroke="#fff" stroke-width="1">
          <rect width="170" height="40" stroke="none"/>
          <rect x="-0.5" y="-0.5" width="171" height="41" fill="none"/>
        </g>
        <path id="Path_729" data-name="Path 729" d="M-52.218,0h1.674V-6.228h6.156V0h1.656V-13.212h-1.656v5.544h-6.156v-5.544h-1.674Zm18.09.234a5.1,5.1,0,0,0,4.05-1.89L-31-2.7a4.01,4.01,0,0,1-3.06,1.476c-2.52,0-4.1-2.088-4.1-5.418,0-3.294,1.656-5.346,4.158-5.346a3.6,3.6,0,0,1,2.7,1.26l.9-1.08a4.879,4.879,0,0,0-3.618-1.638c-3.348,0-5.85,2.592-5.85,6.858C-39.87-2.3-37.4.234-34.128.234ZM-27.63,0h1.674V-5.6h2.376l3.2,5.6h1.89L-21.87-5.778a3.579,3.579,0,0,0,2.988-3.708c0-2.754-1.926-3.726-4.608-3.726h-4.14Zm1.674-6.948v-4.9h2.214c2.07,0,3.2.612,3.2,2.358,0,1.71-1.134,2.538-3.2,2.538Zm17.118-7.218H-10.53a10.912,10.912,0,0,1,.126,1.494c0,.648-.036,1.26-.072,1.836h-3.168a18.84,18.84,0,0,1-2.052-.108v1.53a19.207,19.207,0,0,1,2.07-.072H-10.6c-.486,3.708-1.782,5.958-3.564,7.578A8.872,8.872,0,0,1-16.02-.576L-14.706.486C-11.7-1.584-9.828-4.32-9.18-9.486h5.04c0,1.926-.234,6.354-.918,7.722A.975.975,0,0,1-6.1-1.17a21.9,21.9,0,0,1-2.682-.2L-8.6.126c.936.054,1.98.126,2.9.126A1.868,1.868,0,0,0-3.78-.846c.81-1.728,1.026-6.966,1.1-8.694a5.63,5.63,0,0,1,.09-.882l-1.008-.5a6.487,6.487,0,0,1-1.152.09H-9.036c.036-.594.072-1.206.09-1.854C-8.928-13.122-8.892-13.752-8.838-14.166Zm18.522.18-1.674-.54A6.164,6.164,0,0,1,7.452-13.1,14.838,14.838,0,0,1,1.8-7.02l1.242.936a18.248,18.248,0,0,0,4.572-4.428H13.7A14.8,14.8,0,0,1,10.818-4.9,14.562,14.562,0,0,1,3.636-.378l1.3,1.17A15.782,15.782,0,0,0,12.1-4.1,17.459,17.459,0,0,0,15.3-10.3a5.656,5.656,0,0,1,.414-.954l-1.206-.738a3.012,3.012,0,0,1-1.17.18H8.46a8.089,8.089,0,0,0,.432-.756A13.611,13.611,0,0,1,9.684-13.986Zm12.2.666v1.494c.45-.036,1.044-.054,1.638-.054H30.8c.522,0,1.152.018,1.674.054V-13.32a13.281,13.281,0,0,1-1.674.108h-7.29A14.973,14.973,0,0,1,21.888-13.32ZM19.728-8.8v1.494c.5-.036,1.026-.036,1.566-.036h5.4A8.714,8.714,0,0,1,25.65-2.88a7.451,7.451,0,0,1-3.4,2.754l1.332.99A8.784,8.784,0,0,0,27.126-2.43a10.9,10.9,0,0,0,1.062-4.914h4.9c.432,0,1.008.018,1.4.036V-8.8a9.65,9.65,0,0,1-1.4.09H21.294A14.388,14.388,0,0,1,19.728-8.8ZM45.45-.378,46.4.414A3.851,3.851,0,0,1,47.016,0a17.894,17.894,0,0,0,6.138-4.986L52.308-6.21a13.83,13.83,0,0,1-5.256,4.428V-12.168a11.138,11.138,0,0,1,.072-1.332H45.468a8.543,8.543,0,0,1,.108,1.332V-1.386A4.286,4.286,0,0,1,45.45-.378Zm-8.244-.09,1.35.918a10.06,10.06,0,0,0,3.2-4.95,39.376,39.376,0,0,0,.558-7.65c0-.54.072-1.08.09-1.3H40.752a6.631,6.631,0,0,1,.126,1.314c0,2-.018,5.6-.54,7.236A8.544,8.544,0,0,1,37.206-.468Z" transform="translate(787 1646)" fill="#fff"/>
      </g>
    </g>
    <g id="Group_318" data-name="Group 318" transform="translate(46 -50)">
      <rect id="no127_kv" width="230" height="226" transform="translate(627 1733)" fill="#f1fbfc"/>
      <path id="Path_728" data-name="Path 728" d="M10.458-4.77H7.326V-7.452h3.132Zm3.456-2.682v-.684A11.451,11.451,0,0,0,16.488-6.57a5.518,5.518,0,0,1,.918-1.116A11.7,11.7,0,0,1,14.04-9.774,28.894,28.894,0,0,0,16.866-12.1l-1.008-.72a22.141,22.141,0,0,1-2.574,2.322,14.425,14.425,0,0,1-1.17-1.386,23.863,23.863,0,0,0,2.646-2.268l-1.008-.72a23.093,23.093,0,0,1-2.214,2.142A13.343,13.343,0,0,1,10.4-14.994l-1.152.342a15.512,15.512,0,0,0,4.014,5.958H4.806a12.56,12.56,0,0,0,3.744-5.22l-.882-.432-.234.054H2.3V-13.1H6.768a12.609,12.609,0,0,1-1.674,2.376,25.03,25.03,0,0,0-2.178-1.764l-.828.7A19.081,19.081,0,0,1,4.248-9.9,12.449,12.449,0,0,1,.594-7.56a7.241,7.241,0,0,1,.828,1.008A14.749,14.749,0,0,0,4.1-8.136v.684h1.89V-4.77H1.854v1.242h4C5.526-2.034,4.5-.612,1.494.4A5.224,5.224,0,0,1,2.34,1.458C5.868.234,6.93-1.6,7.218-3.528h3.24v2.88c0,1.476.4,1.872,1.908,1.872h2.358c1.314,0,1.692-.63,1.818-2.916a3.688,3.688,0,0,1-1.206-.558c-.072,1.926-.162,2.286-.72,2.286H12.564c-.612,0-.72-.108-.72-.666v-2.9H16.11V-4.77H11.844V-7.452ZM28.062-.234c-1.26,0-1.494-.216-1.494-1.17v-2.61l8.226-1.08-.18-1.242L26.568-5.292V-8.1l7.02-.99-.18-1.242-6.84.954v-2.79A39.2,39.2,0,0,0,32.8-13.9L31.662-14.94c-2.772,1.152-7.848,2.124-12.294,2.718a5.127,5.127,0,0,1,.4,1.152c1.764-.216,3.618-.5,5.436-.846V-9.18l-5.508.756.2,1.26L25.2-7.9v2.79l-6.066.792.2,1.26L25.2-3.834V-1.44c0,1.98.63,2.5,2.79,2.5h4.59c1.98,0,2.43-.792,2.664-3.276a4.258,4.258,0,0,1-1.314-.558C33.786-.7,33.606-.234,32.544-.234ZM45-8.748A1.9,1.9,0,0,0,43.092-6.84,1.9,1.9,0,0,0,45-4.932,1.9,1.9,0,0,0,46.908-6.84,1.9,1.9,0,0,0,45-8.748ZM59.04-2.61v-1.4h8.01v1.4Zm8.01-3.762v1.386H59.04V-6.372ZM68.4-7.488H57.708V1.368H59.04V-1.6h8.01V-.054c0,.252-.09.324-.36.342-.306,0-1.35,0-2.394-.018a5.153,5.153,0,0,1,.432,1.1,11.6,11.6,0,0,0,2.934-.2c.558-.162.738-.5.738-1.224Zm-2.286-4.626-1.008.666c.63.414,1.314.918,1.962,1.422-2.52.054-5.058.108-7.272.144.594-.7,1.224-1.494,1.764-2.232Zm4.752-1.206H63.648v-1.746H62.3v1.746H55.152v1.206h4.7a22.344,22.344,0,0,1-1.512,2.25l-2.484.036.054,1.242c3.15-.054,7.938-.18,12.456-.36A13.049,13.049,0,0,1,69.588-7.74L70.7-8.532a26.4,26.4,0,0,0-4.536-3.582h4.7ZM82.062-.234c-1.26,0-1.494-.216-1.494-1.17v-2.61l8.226-1.08-.18-1.242L80.568-5.292V-8.1l7.02-.99-.18-1.242-6.84.954v-2.79A39.2,39.2,0,0,0,86.8-13.9L85.662-14.94c-2.772,1.152-7.848,2.124-12.294,2.718a5.127,5.127,0,0,1,.4,1.152c1.764-.216,3.618-.5,5.436-.846V-9.18l-5.508.756.2,1.26L79.2-7.9v2.79l-6.066.792.2,1.26L79.2-3.834V-1.44c0,1.98.63,2.5,2.79,2.5h4.59c1.98,0,2.43-.792,2.664-3.276a4.258,4.258,0,0,1-1.314-.558C87.786-.7,87.606-.234,86.544-.234Z" transform="translate(697.194 1916.898)" fill="#01abab"/>
      <g id="hair" transform="translate(668.632 1794.6)">
        <g id="Layer_3" data-name="Layer 3" transform="translate(26.374)">
          <path id="Path_587" data-name="Path 587" d="M108.185,72.578a6.87,6.87,0,0,1-6.964,7.533A7.316,7.316,0,0,1,94,72.695C93.781,42.459,97.808,16.657,126.175,1c-23.515,20.323-20.857,44.535-18,71.578Z" transform="translate(-12.433 -1)" fill="#7fd5d5"/>
          <path id="Path_588" data-name="Path 588" d="M73.055,72.578a6.87,6.87,0,0,1-6.964,7.533,7.316,7.316,0,0,1-7.219-7.417C58.651,42.459,62.678,16.657,91.045,1c-23.515,20.323-20.857,44.535-18,71.578Z" transform="translate(-18.077 -1)" fill="#7fd5d5"/>
          <path id="Path_589" data-name="Path 589" d="M37.915,72.578a6.87,6.87,0,0,1-6.964,7.533,7.316,7.316,0,0,1-7.219-7.417C23.511,42.459,27.538,16.657,55.9,1,32.39,21.323,35.048,45.535,37.9,72.578Z" transform="translate(-23.723 -1)" fill="#7fd5d5"/>
        </g>
        <g id="Layer_2" data-name="Layer 2">
          <path id="Path_590" data-name="Path 590" d="M108.185,72.578a6.87,6.87,0,0,1-6.964,7.533A7.316,7.316,0,0,1,94,72.695C93.781,42.459,97.808,16.657,126.175,1c-23.515,20.323-20.857,44.535-18,71.578Z" transform="translate(13.941 -1)" fill="none" stroke="#01abab" stroke-linecap="round" stroke-linejoin="round" stroke-width="2"/>
          <path id="Path_591" data-name="Path 591" d="M73.055,72.578a6.87,6.87,0,0,1-6.964,7.533,7.316,7.316,0,0,1-7.219-7.417C58.651,42.459,62.678,16.657,91.045,1c-23.515,20.323-20.857,44.535-18,71.578Z" transform="translate(8.297 -1)" fill="none" stroke="#01abab" stroke-linecap="round" stroke-linejoin="round" stroke-width="2"/>
          <path id="Path_592" data-name="Path 592" d="M37.915,72.578a6.87,6.87,0,0,1-6.964,7.533,7.316,7.316,0,0,1-7.219-7.417C23.511,42.459,27.538,16.657,55.9,1,32.39,21.323,35.048,45.535,37.9,72.578Z" transform="translate(2.651 -1)" fill="none" stroke="#01abab" stroke-linecap="round" stroke-linejoin="round" stroke-width="2"/>
          <path id="Path_593" data-name="Path 593" d="M147.732,31.29h-11.8c-4.039,0-6.012,1.091-8.067,3.575s-2.345,6.3-1.462,12.384S129.625,61.4,129.4,66.6s-3.192,12.756-13.742,12.756S102.141,71.809,101.92,66.6s2.124-13.266,3.006-19.348.592-9.889-1.462-12.384-4.155-3.575-8.183-3.575-6.128,1.091-8.183,3.575-2.345,6.3-1.462,12.384S88.863,61.4,88.642,66.6,85.45,79.353,74.9,79.353,61.378,71.809,61.157,66.6s2.124-13.266,3.006-19.348.592-9.889-1.462-12.384-4.155-3.575-8.183-3.575-6.128,1.091-8.183,3.575-2.345,6.3-1.462,12.384S48.1,61.4,47.879,66.6,44.688,79.353,34.137,79.353,20.615,71.809,20.395,66.6,22.519,53.331,23.4,47.249s.592-9.889-1.462-12.384-4.028-3.25-8.067-3.25H1" transform="translate(-1 3.867)" fill="none" stroke="#01abab" stroke-linecap="round" stroke-linejoin="round" stroke-width="2"/>
        </g>
      </g>
    </g>
    <g id="Group_189" data-name="Group 189" transform="translate(-14 -43)">
      <g id="Group_185" data-name="Group 185" transform="translate(360)">
        <rect id="Rectangle_1-2" data-name="Rectangle 1" width="180" height="50" transform="translate(697 1613)" fill="#e74b21"/>
        <g id="Rectangle_109-2" data-name="Rectangle 109" transform="translate(702 1618)" fill="none" stroke="#fff" stroke-width="1">
          <rect width="170" height="40" stroke="none"/>
          <rect x="-0.5" y="-0.5" width="171" height="41" fill="none"/>
        </g>
        <path id="Path_727" data-name="Path 727" d="M-52.218,0h1.674V-6.228h6.156V0h1.656V-13.212h-1.656v5.544h-6.156v-5.544h-1.674Zm18.09.234a5.1,5.1,0,0,0,4.05-1.89L-31-2.7a4.01,4.01,0,0,1-3.06,1.476c-2.52,0-4.1-2.088-4.1-5.418,0-3.294,1.656-5.346,4.158-5.346a3.6,3.6,0,0,1,2.7,1.26l.9-1.08a4.879,4.879,0,0,0-3.618-1.638c-3.348,0-5.85,2.592-5.85,6.858C-39.87-2.3-37.4.234-34.128.234ZM-27.63,0h1.674V-5.6h2.376l3.2,5.6h1.89L-21.87-5.778a3.579,3.579,0,0,0,2.988-3.708c0-2.754-1.926-3.726-4.608-3.726h-4.14Zm1.674-6.948v-4.9h2.214c2.07,0,3.2.612,3.2,2.358,0,1.71-1.134,2.538-3.2,2.538ZM-3.4-13.1l-1.656-.576a10.325,10.325,0,0,1-.36,1.332A20.137,20.137,0,0,1-7.866-7.434c-1.422-1.1-3.51-2.574-5.058-3.564l-.936,1.134A56.313,56.313,0,0,1-8.784-6.228,19.985,19.985,0,0,1-15.93-.576L-14.688.558A22.932,22.932,0,0,0-7.632-5.256a40.144,40.144,0,0,1,4.248,4.14L-2.25-2.358A45.046,45.046,0,0,0-6.7-6.48,25.074,25.074,0,0,0-4-11.79,9.713,9.713,0,0,1-3.4-13.1ZM4.77-.648,6.12.486a14.981,14.981,0,0,0,6.372-5.544,18.468,18.468,0,0,0,2.466-6.426c.072-.324.216-.954.36-1.422l-1.8-.252a7.81,7.81,0,0,1-.144,1.476,14.847,14.847,0,0,1-2.25,5.868A13.826,13.826,0,0,1,4.77-.648Zm-1.1-12.294-1.422.72a48.372,48.372,0,0,1,3.006,5.2L6.7-7.83C6.048-9,4.464-11.772,3.672-12.942Zm23.04,2.574-1.314.45a33.93,33.93,0,0,1,1.4,3.906l1.332-.468C27.9-7.272,27.018-9.648,26.712-10.368ZM33.228-9.36,31.68-9.846A12.343,12.343,0,0,1,29.2-3.69,12.12,12.12,0,0,1,23.346.144L24.534,1.35A13.716,13.716,0,0,0,30.4-2.934,14.108,14.108,0,0,0,32.958-8.46C33.03-8.694,33.1-8.982,33.228-9.36ZM22.536-9.468,21.2-8.946a32.2,32.2,0,0,1,1.6,4.05l1.368-.5C23.832-6.336,22.9-8.694,22.536-9.468Zm25.29-3.492-.99.45a17.864,17.864,0,0,1,1.6,2.736l1.026-.468A27.122,27.122,0,0,0,47.826-12.96ZM50-13.86l-.99.468a17.511,17.511,0,0,1,1.674,2.7l1.008-.5A24.309,24.309,0,0,0,50-13.86Zm-8.5,12.51A19.711,19.711,0,0,1,41.4.774h1.728C43.074.2,43.02-.774,43.02-1.35V-7.272a46.129,46.129,0,0,1,7.056,2.88l.63-1.53a61.144,61.144,0,0,0-7.686-2.97v-2.934a16.626,16.626,0,0,1,.126-1.872H41.364a11.361,11.361,0,0,1,.144,1.872Z" transform="translate(787 1646)" fill="#fff"/>
      </g>
      <g id="Group_187" data-name="Group 187" transform="translate(7)">
        <circle id="Ellipse_28" data-name="Ellipse 28" cx="100" cy="100" r="100" transform="translate(1040 1393)" fill="#fef6f3"/>
        <path id="Path_726" data-name="Path 726" d="M-59.5-16.525a17.631,17.631,0,0,0-2.15-4.2l-1.025.425a18.124,18.124,0,0,1,2.1,4.275Zm-11.675,8.7q.075-1.687.075-3.15V-12.8h4.15v4.975Zm4.225-10.9v4.8H-71.1v-4.8Zm1.1-1.125h-6.325v8.875c0,3.675-.15,8.65-1.875,12.225a3.944,3.944,0,0,1,.975.6,24.038,24.038,0,0,0,1.85-8.55h4.275V0c0,.375-.15.5-.475.5-.3,0-1.4.025-2.7-.025A6.351,6.351,0,0,1-69.7,1.6a12.374,12.374,0,0,0,3.125-.2c.5-.225.725-.6.725-1.375Zm3.25,5.15h8.775v5.375H-62.6ZM-55.125.375c-.65,0-.775-.1-.775-.7v-7.9h3.275v-7.6h-3.2c.825-1.325,1.75-3.05,2.5-4.55l-1.2-.45a33.956,33.956,0,0,1-2.6,5h-6.65v7.6H-60.8c-.3,4.15-1.2,7.45-4.8,9.15a3.783,3.783,0,0,1,.75.9C-61-.1-59.95-3.65-59.6-8.225h2.55V-.35c0,1.425.375,1.825,1.8,1.825h2.5c1.3,0,1.625-.75,1.725-3.825a3.317,3.317,0,0,1-1.05-.475c-.075,2.775-.175,3.2-.775,3.2ZM-36.275.2c-1.8,0-2.175-.35-2.175-1.65V-5.9l11.775-1.575-.15-1.125L-38.45-7.05v-4.575l10.025-1.425-.2-1.1-9.825,1.375V-17.25a50.711,50.711,0,0,0,8.825-2.4l-1.075-.925c-3.75,1.6-11.025,2.95-17.225,3.8A3.065,3.065,0,0,1-47.6-15.75c2.575-.35,5.325-.75,7.95-1.25v4.375l-7.95,1.15.2,1.125,7.75-1.1V-6.9l-8.675,1.15.2,1.125L-39.65-5.75v4.275c0,2.3.775,2.85,3.4,2.85h6.925c2.475,0,2.9-1.05,3.175-4.3a4.345,4.345,0,0,1-1.2-.55C-27.525-.5-27.775.2-29.3.2Zm18-20.925a30.562,30.562,0,0,1-5.65,10.3,8.455,8.455,0,0,1,.75,1.075,25.888,25.888,0,0,0,2.5-3.475V1.8h1.15V-14.85a41.048,41.048,0,0,0,2.375-5.575ZM-1.3-14.275v-1.15H-9.1v-5.35h-1.175v5.35H-17.75v1.15h6.525c-1.625,4.4-4.425,8.825-7.275,11a3.634,3.634,0,0,1,.875.875c2.9-2.4,5.675-6.925,7.35-11.6v9.8h-4.6v1.125h4.6v4.8H-9.1v-4.8h4.4V-4.2H-9.1v-9.825c1.6,4.65,4.325,9.2,7.225,11.575A8.641,8.641,0,0,1-.95-3.425c-2.85-2.1-5.625-6.45-7.15-10.85ZM8-16.25v3.425H9.1V-16.25h3.275v-1.025h-7.9v-1.55a42.641,42.641,0,0,0,7.15-1.1L10.7-20.75a44.882,44.882,0,0,1-6.2,1.025l-1.175-.35V-17.5A6.56,6.56,0,0,1,1.3-12.35a3.15,3.15,0,0,1,.825.8A7.365,7.365,0,0,0,4.4-16.25ZM5.75-5.2H19.425v2.175H5.75Zm0-3.075H19.425v2.15H5.75Zm0-3.075H19.425v2.125H5.75ZM4.6-2.05H20.625V-12.275H4.6Zm4.325.55A33.139,33.139,0,0,1,1.55.95a6.157,6.157,0,0,1,.875.95,37.484,37.484,0,0,0,7.6-2.9Zm6.05.725a54.855,54.855,0,0,1,7.3,2.65l1.25-.725a69.505,69.505,0,0,0-7.6-2.6Zm-.425-16.5a3.521,3.521,0,0,0,.025-.5v-1.05a43.8,43.8,0,0,0,7.675-1.05l-.925-.825a50.486,50.486,0,0,1-6.75,1l-1.1-.3v2.2a4.813,4.813,0,0,1-2.4,4.35,2.792,2.792,0,0,1,.8.825A5.9,5.9,0,0,0,14.4-16.25h4.05v3.525h1.125V-16.25h4.05v-1.025ZM29.4-2.725c-1.1,0-1.325-.15-1.325-.85V-10.6H33.8v1h1.15v-8.875H26.9v1.15h6.9v5.575H26.925v8.2c0,1.6.525,1.975,2.425,1.975h4.225c1.75,0,2.1-.75,2.25-3.75a4.377,4.377,0,0,1-1.1-.5c-.1,2.675-.25,3.1-1.2,3.1Zm9.8-12.25h6.35a24.71,24.71,0,0,1-3.2,9.45,30.732,30.732,0,0,1-3.25-9.2Zm9.7,0v-1.15H39.625a39.4,39.4,0,0,0,1.225-4.5l-1.225-.2C38.8-16.65,37.3-12.75,35.15-10.2a10.01,10.01,0,0,1,1.075.725A19.092,19.092,0,0,0,38.35-13,29.394,29.394,0,0,0,41.6-4.475a16.351,16.351,0,0,1-7.675,5.3,5.961,5.961,0,0,1,.75,1.075,18.365,18.365,0,0,0,7.6-5.3A14.651,14.651,0,0,0,48.3,1.825,5.492,5.492,0,0,1,49.125.8a13.852,13.852,0,0,1-6.1-5.225c1.875-2.7,3.05-6.125,3.775-10.55ZM69.05-3.825V-.15H56.15V-3.825ZM54.975,1.8H56.15V.9h12.9v.825h1.2V-4.85H54.975Zm12.75-9.5a24.068,24.068,0,0,0,1.85-2.5L68.4-10.6a19.289,19.289,0,0,1-1.8,2.675l.7.225H63.05v-2.975h9.975v-1.05H63.05V-13.85h7.7v-1h-7.7v-2.1h9.2v-1.025H66.875c.5-.7,1.125-1.625,1.625-2.475l-1.175-.4a23.263,23.263,0,0,1-1.75,2.875H59.2l.175-.075a12.033,12.033,0,0,0-1.9-2.725l-1.025.4a14.006,14.006,0,0,1,1.625,2.4h-5.25v1.025H61.85v2.1H54.275v1H61.85v2.125H52.175v1.05H61.85V-7.7h-4.6l.9-.35A11.361,11.361,0,0,0,56.4-10.6l-1.05.375A9.439,9.439,0,0,1,56.95-7.7h-5.5v1.05H73.6V-7.7Z" transform="translate(1140 1504)" fill="#e74b21"/>
        <path id="Path_725" data-name="Path 725" d="M1.2,0H2.316V-3.492H3.768c1.932,0,3.24-.864,3.24-2.724,0-1.92-1.32-2.592-3.288-2.592H1.2ZM2.316-4.392V-7.9h1.26c1.548,0,2.328.408,2.328,1.68s-.732,1.824-2.28,1.824ZM12.036.156c2.208,0,3.756-1.764,3.756-4.584s-1.548-4.536-3.756-4.536S8.28-7.248,8.28-4.428,9.828.156,12.036.156Zm0-.972c-1.584,0-2.616-1.416-2.616-3.612s1.032-3.564,2.616-3.564,2.616,1.356,2.616,3.564S13.608-.816,12.036-.816ZM17.688,0H18.8V-8.808H17.688ZM21.2,0H22.26V-4.62c0-.924-.084-1.86-.132-2.748h.048l.948,1.812L26.328,0h1.14V-8.808H26.412v4.584c0,.912.084,1.9.144,2.784H26.5L25.56-3.252l-3.2-5.556H21.2ZM31.7,0H32.82V-7.86h2.664v-.948H29.04v.948H31.7Z" transform="translate(1122 1446)" fill="#e74b21"/>
      </g>
    </g>
    <g id="Group_319" data-name="Group 319" transform="translate(11 -50)">
      <rect id="no127_kv-2" data-name="no127_kv" width="230" height="226" transform="translate(1007 1733)" fill="#f1fbfc"/>
      <path id="Path_724" data-name="Path 724" d="M6.732-7.344l-2.088.666V-10.3h1.98v-1.26H4.644v-3.51H3.33v3.51H.9v1.26H3.33v4.032C2.322-5.958,1.4-5.67.666-5.472l.4,1.35L3.33-4.9v4.68c0,.27-.09.342-.324.342-.234.018-.972.018-1.782,0a5.251,5.251,0,0,1,.4,1.206,6.668,6.668,0,0,0,2.394-.216c.45-.216.63-.594.63-1.332v-5.13C5.4-5.6,6.156-5.868,6.912-6.138Zm7.794.2a11.906,11.906,0,0,1-1.962,4.284,12.324,12.324,0,0,1-2.376-4.284Zm.648-1.26-.234.054H10.26c.09-.792.144-1.6.18-2.394h6.7v-1.242H10.494c.036-1.044.054-2.07.054-3.06H9.27c0,.99-.018,2.016-.036,3.06H6.84v1.242H9.18C8.964-6.444,8.19-2.052,5.094.4a3.542,3.542,0,0,1,.972.882A11.578,11.578,0,0,0,9.72-5.184,14.17,14.17,0,0,0,11.736-1.89,9.069,9.069,0,0,1,8.424.288,5.526,5.526,0,0,1,9.2,1.35,10.318,10.318,0,0,0,12.6-.972,10.577,10.577,0,0,0,16.488,1.44,5.022,5.022,0,0,1,17.37.288a9.977,9.977,0,0,1-3.924-2.232,13.831,13.831,0,0,0,2.538-6.21ZM31.7-14.04H30.024a10.825,10.825,0,0,1,.162,1.08c.036.45.09,1.656.108,2.79-.756.036-1.53.054-2.268.054a20.183,20.183,0,0,1-2.9-.2v1.44c.774.054,2.052.108,2.916.108.738,0,1.512-.018,2.286-.054v.558c0,3.456-.108,5.49-2.034,7.182A5.9,5.9,0,0,1,26.55.036l1.314,1.026c3.816-2.25,3.816-5.184,3.816-9.324v-.63c1.08-.072,2.088-.18,2.916-.306v-1.476a21.315,21.315,0,0,1-2.934.414c-.018-1.116-.036-2.322-.018-2.718A9.273,9.273,0,0,1,31.7-14.04Zm-9.108.27-1.674-.162a7.475,7.475,0,0,1-.09,1.206,48.618,48.618,0,0,0-.684,7.182A20.055,20.055,0,0,0,21.1.162L22.32.018c-.018-.18-.036-.432-.054-.612a2.717,2.717,0,0,1,.09-.81c.2-.882.738-2.718,1.17-3.978l-.774-.468c-.342.9-.72,2-.972,2.754-.684-2.952-.072-6.894.5-9.5C22.374-12.942,22.5-13.428,22.59-13.77ZM46.062-.234c-1.26,0-1.494-.216-1.494-1.17v-2.61l8.226-1.08-.18-1.242L44.568-5.292V-8.1l7.02-.99-.18-1.242-6.84.954v-2.79A39.2,39.2,0,0,0,50.8-13.9L49.662-14.94c-2.772,1.152-7.848,2.124-12.294,2.718a5.127,5.127,0,0,1,.4,1.152c1.764-.216,3.618-.5,5.436-.846V-9.18l-5.508.756.2,1.26L43.2-7.9v2.79l-6.066.792.2,1.26L43.2-3.834V-1.44c0,1.98.63,2.5,2.79,2.5h4.59c1.98,0,2.43-.792,2.664-3.276a4.258,4.258,0,0,1-1.314-.558C51.786-.7,51.606-.234,50.544-.234Zm14.184-5.9-.2-1.242L58.3-6.822v-3.4h1.89v-1.224H58.3v-3.6H57.06v3.6H54.828v1.224H57.06v3.8c-.936.288-1.8.558-2.484.738l.342,1.3c.648-.216,1.368-.45,2.142-.7V-.18c0,.27-.09.324-.306.324-.216.018-.918.018-1.692,0a5.347,5.347,0,0,1,.4,1.224,5.643,5.643,0,0,0,2.232-.234C58.14.918,58.3.558,58.3-.18V-5.508Zm1.764-6.1a30.656,30.656,0,0,0,3.852-1.89l-1.116-.936a17.892,17.892,0,0,1-3.312,1.926l-.666-.18V-2.5c-.522.2-.99.36-1.4.5l.594,1.206c1.386-.558,3.132-1.278,4.788-1.98L64.44-3.924c-.81.324-1.638.648-2.43.954Zm8.586-.648h-5.58V1.368h1.26v-13.05h3.06V-2.34c0,.216-.072.306-.324.306-.252.018-1.026.018-1.908-.018a5.222,5.222,0,0,1,.468,1.314,6.059,6.059,0,0,0,2.412-.27c.486-.234.612-.63.612-1.332Zm7.92,1.638h3.636v-1.224H78.516v-2.52H77.238v2.52H75.33c.2-.612.378-1.278.54-1.908l-1.26-.252A14.187,14.187,0,0,1,72.81-9.9,7.852,7.852,0,0,1,74-9.4a13.758,13.758,0,0,0,.9-1.854h2.34v1.89H72.864v1.224h4.374v1.8H73.692V-.09h1.224V-5.112h2.322V1.35h1.278V-5.112H81V-1.44c0,.18-.054.234-.252.234-.18.018-.774.018-1.548,0a4.087,4.087,0,0,1,.4,1.17,5.561,5.561,0,0,0,2.088-.216c.45-.216.54-.558.54-1.17V-6.336H78.516v-1.8h4.338V-9.36H78.516Zm6.894-2.178H84.15v9.9h1.26Zm1.926-1.44V-.45c0,.306-.09.378-.378.4-.306,0-1.314,0-2.376-.036a7.773,7.773,0,0,1,.432,1.4,8.855,8.855,0,0,0,2.88-.27c.54-.234.738-.63.738-1.512v-14.4Z" transform="translate(1077.19 1916.622)" fill="#01abab"/>
      <g id="hair2" transform="translate(1035.295 1761.536)">
        <g id="Layer_3-2" data-name="Layer 3" transform="translate(45.004 9.154)">
          <path id="Path_594" data-name="Path 594" d="M75.47,37.4c7.91-.128,6.762-.223,13.268-1.627s11.785-1.228,17.59,1.627,8.085,9.632,8.085,13.683V63.917l7.384-8.978s2.105-7.208-6.156-22.151C106.95,17.08,92.518,7.432,75.454,6.73c-17.064.7-31.5,10.35-40.187,26.058-8.277,14.927-6.156,22.151-6.156,22.151l7.384,8.978V51.08c0-4.051,2.28-10.812,8.085-13.683s11.083-3.046,17.59-1.627,5.358,1.5,13.268,1.627Z" transform="translate(-28.867 -6.73)" fill="#7fd5d5"/>
        </g>
        <g id="Layer_2-2" data-name="Layer 2">
          <path id="Path_595" data-name="Path 595" d="M75.57,6.3c21.114,0,35.18,12.662,40.634,26.744s5.454,24.1,5.454,24.1L114.8,65.226s1.93-8.452,1.228-13.906-3-9.329-8.8-12.838-11.434-4.752-16.888-3.349-8.085,2.376-14.783,2.5c-6.682-.128-9.329-1.1-14.783-2.5s-11.083-.175-16.888,3.349-8.085,7.384-8.8,12.838,1.228,13.906,1.228,13.906L29.45,57.14s0-10.031,5.454-24.1S54.471,6.3,75.57,6.3Z" transform="translate(16.488 2.168)" fill="none" stroke="#01abab" stroke-linecap="round" stroke-linejoin="round" stroke-width="2"/>
          <path id="Path_596" data-name="Path 596" d="M127.623,38.07s13.364,6.331,8.452,19.711S120.59,69.566,120.59,69.566,107.4,104.22,79.781,104.22,38.971,69.566,38.971,69.566,28.414,71.145,23.486,57.781,31.939,38.07,31.939,38.07" transform="translate(12.725 21.063)" fill="none" stroke="#01abab" stroke-linecap="round" stroke-linejoin="round" stroke-width="2"/>
          <path id="Path_597" data-name="Path 597" d="M93.01,13.668h2.823a9.862,9.862,0,0,1,9.855,9.855v0a9.862,9.862,0,0,1,9.855-9.855h0a9.862,9.862,0,0,1-9.855-9.855v0a9.862,9.862,0,0,1-9.855,9.855H93.01" transform="translate(54.722 -0.99)" fill="none" stroke="#01abab" stroke-linecap="round" stroke-linejoin="round" stroke-width="2"/>
          <path id="Path_598" data-name="Path 598" d="M1,34.848H3.823A9.862,9.862,0,0,1,13.678,44.7v0a9.862,9.862,0,0,1,9.855-9.855h0a9.862,9.862,0,0,1-9.855-9.855v0a9.862,9.862,0,0,1-9.855,9.855H1" transform="translate(-1 11.607)" fill="none" stroke="#01abab" stroke-linecap="round" stroke-linejoin="round" stroke-width="2"/>
        </g>
      </g>
    </g>
    <g id="Group_332" data-name="Group 332" transform="translate(46.5 -19.5)">
      <path id="Polygon_11" data-name="Polygon 11" d="M26.5,0,53,16H0Z" transform="translate(941 1679) rotate(180)" fill="#7fd5d5"/>
      <line id="Line_47" data-name="Line 47" x2="576" transform="translate(626.5 1662.5)" fill="none" stroke="#7fd5d5" stroke-width="1"/>
    </g>
  </g>
</svg>
