<svg xmlns="http://www.w3.org/2000/svg" xmlns:xlink="http://www.w3.org/1999/xlink" width="337.921" height="179.037" viewBox="0 0 337.921 179.037">
  <defs>
    <filter id="Union_1" x="0" y="0" width="259" height="140.131" filterUnits="userSpaceOnUse">
      <feOffset dy="3" input="SourceAlpha"/>
      <feGaussianBlur stdDeviation="5" result="blur"/>
      <feFlood flood-color="#01abab" flood-opacity="0.161"/>
      <feComposite operator="in" in2="blur"/>
      <feComposite in="SourceGraphic"/>
    </filter>
  </defs>
  <g id="Group_393" data-name="Group 393" transform="translate(-20.998 -7820.001)">
    <g id="Group_392" data-name="Group 392" transform="translate(-442 -1874.999)">
      <g transform="matrix(1, 0, 0, 1, 463, 9695)" filter="url(#Union_1)">
        <path id="Union_1-2" data-name="Union 1" d="M670.855,15919H541a20,20,0,0,1-20-20v-48a20,20,0,0,1,20-20H730a20,20,0,0,1,20,20v48a20,20,0,0,1-20,20H686.762l7.1,22.132Z" transform="translate(-506 -15819)" fill="#fff"/>
      </g>
      <text id="髪は健康のバロメーター_美しく健康な髪つくりの_お手伝いをさせて頂きます_" data-name="髪は健康のバロメーター
美しく健康な髪つくりの
お手伝いをさせて頂きます。" transform="translate(499.999 9738.998)" fill="#01abab" font-size="14" font-family="NotoSansJP-Regular, Noto Sans JP"><tspan x="0" y="0">髪は健康のバロメーター</tspan><tspan x="0" y="20">美しく健康な髪つくりの</tspan><tspan x="0" y="40">お手伝いをさせて頂きます。</tspan></text>
    </g>
    <g id="Asset_3" data-name="Asset 3" transform="translate(240.084 7825.585)">
      <g id="Layer_3" data-name="Layer 3" transform="translate(0.39 1.082)">
        <path id="Path_548" data-name="Path 548" d="M79.28,302.247c-.019-.442-5.741,9.571-8.835,13.694s-4.86,6.332-8.983,4.417-7.953-3.239-9.128-4.86S39.67,296.651,39.67,296.651a47.661,47.661,0,0,1,5.3-3.239,30.071,30.071,0,0,0,6.184-4.417s8.689,12.37,10.013,13.107,3.533-1.766,4.711-5.447,2.945-12.664,4.86-15.018,1.179-2.651,5.005-4.86,10.307-3.83,10.307-3.83l4.86-1.766h18.405s8.541,2.209,12.073,3.83,4.123,3.83,5.6,7.511,2.209,10.162,2.945,16.491,6.184,28.861,7.068,31.657,3.093,6.477,3.093,6.92-8.835,5.447-12.073,5.741-3.533-1.324-3.533-.885a32.077,32.077,0,0,0,.521,4.1c.167,1.261.471,2.572.512,3.842.032.935.051,2.177.051,2.177H73.941s1.463-9.264,1.95-12.623c.983-6.759,1.874-13.536,2.544-20.336a123.6,123.6,0,0,0,.844-17.363Z" transform="translate(-27.259 -185.893)" fill="#fff"/>
        <path id="Path_549" data-name="Path 549" d="M108.542,81.246s-6.477.442-10.749-1.324-10.013-5.89-12.073-9.865-3.83-8.689-2.209-14.579,5.6-24.15,8.835-29.891,12.219-18.409,20.32-21.5,20.908-3.239,26.21-2.354S152.127,7.473,158.9,15.574s11.486,22.38,13.252,30.185,2.5,14.137,2.06,17.375-2.5,9.425-4.566,12.37-6.038,4.417-9.128,5.154-12.81,1.324-12.81,1.324l-39.168-.736Z" transform="translate(-56.814 -1.261)" fill="#7fd5d5"/>
        <path id="Path_550" data-name="Path 550" d="M127.494,113.512V119.7s-5.741,1.179-5.005,6.477,7.068,7.656,7.068,7.656a27.848,27.848,0,0,0,2.06,5.741c1.03,1.618,2.8,3.681,3.681,3.83s12.516,5.005,12.516,5.005,8.4,31.664,8.692,31.439S164.6,148.7,164.6,148.7a61.287,61.287,0,0,1,7.953-3.239c3.83-1.179,6.477-3.093,7.953-5.89a30.069,30.069,0,0,0,2.06-4.711s5.89-2.209,7.656-6.332-5.6-8.689-5.6-8.689l.588-5.3-6.477-1.03s-21.2,5.447-31.512-19.436c0,0-3.8,17.9-19.733,19.436Z" transform="translate(-83.864 -64.745)" fill="#fff"/>
        <path id="Path_551" data-name="Path 551" d="M215.143,305.66H225.5l-5.125,18.032Z" transform="translate(-148.087 -209.478)" fill="#01abab"/>
        <ellipse id="Ellipse_49" data-name="Ellipse 49" cx="6.332" cy="3.608" rx="6.332" ry="3.608" transform="translate(85.006 62.904)" fill="#f1fbfc"/>
        <ellipse id="Ellipse_50" data-name="Ellipse 50" cx="6.332" cy="3.608" rx="6.332" ry="3.608" transform="translate(48.957 62.904)" fill="#f1fbfc"/>
        <path id="Path_552" data-name="Path 552" d="M310.916,500.621a19.449,19.449,0,0,0,.979,3.8,1.264,1.264,0,0,0,.48.711c.464.262,1.068-.152,1.229-.66a3.841,3.841,0,0,0-.025-1.586,1.7,1.7,0,0,1,.382-1.488,1.359,1.359,0,0,1,1.814.256,3.957,3.957,0,0,1,.774,1.852c.158.692.316,1.387.471,2.079-1.172.622-2.973-.6-3.8.439a1.409,1.409,0,0,0,.076,1.643,4.179,4.179,0,0,0,1.374,1.087c.613.357,1.226.711,1.839,1.068a4.661,4.661,0,0,0,1.984.774,4.057,4.057,0,0,0,3-1.592,8.933,8.933,0,0,0,2.49-4.724c.37-2.635-.913-5.191-2.158-7.542a1.042,1.042,0,0,0-.43-.506,1.077,1.077,0,0,0-.585-.032c-3.084.42-10.705-.348-9.9,4.424Z" transform="translate(-212.755 -339.794)" fill="#fff"/>
        <path id="Path_553" data-name="Path 553" d="M9.048,301.248c-2.825-1.874-6.819-2.215-8.658-5.065a2.849,2.849,0,0,1,1.539-1.15,4.256,4.256,0,0,1-.919-2.408c.044-.872.916-1.741,1.735-1.438-.088-1-.18-1.987-.269-2.983,1.014.025,2.025.047,3.04.073-.686-1.419.973-3.062,2.547-2.983s2.869,1.22,3.988,2.326,2.322,2.3,3.877,2.559a3.194,3.194,0,0,1,.8-3.725,8.273,8.273,0,0,1,3.179,3.014,8.26,8.26,0,0,1,.613,2.458q.588,4.161,1.179,8.32c-.085-.594-6.519,3.634-6.983,3.988-2.591,2-3.479-1.539-5.669-2.989Z" transform="translate(-0.39 -195.545)" fill="#fff"/>
      </g>
      <g id="Layer_2" data-name="Layer 2" transform="translate(0.584 1)">
        <path id="Path_554" data-name="Path 554" d="M138.8,158.72l2.809,20.93a12.4,12.4,0,0,0,8.888,10.275l12.092,3.447a17.411,17.411,0,0,0,9.555,0l12.212-3.482a12.407,12.407,0,0,0,8.869-10.114l3.043-20.614" transform="translate(-95.26 -108.885)" fill="none" stroke="#01abab" stroke-linecap="round" stroke-linejoin="round" stroke-width="2"/>
        <path id="Path_555" data-name="Path 555" d="M204.35,223.76h16.841s-2.43,5.852-8.421,5.852S204.35,223.76,204.35,223.76Z" transform="translate(-140.098 -153.374)" fill="none" stroke="#01abab" stroke-linecap="round" stroke-linejoin="round" stroke-width="2"/>
        <path id="Path_556" data-name="Path 556" d="M229.345,200.51s-1.491,1.381-1.16,2.54" transform="translate(-156.37 -137.47)" fill="none" stroke="#01abab" stroke-linecap="round" stroke-linejoin="round" stroke-width="2"/>
        <ellipse id="Ellipse_51" data-name="Ellipse 51" cx="3.368" cy="5.163" rx="3.368" ry="5.163" transform="translate(84.847 51.39)" fill="#01abab"/>
        <ellipse id="Ellipse_52" data-name="Ellipse 52" cx="3.368" cy="5.163" rx="3.368" ry="5.163" transform="translate(53.84 51.39)" fill="#01abab"/>
        <path id="Path_557" data-name="Path 557" d="M287.71,167.671a3.554,3.554,0,0,0,1.014-.689,1.357,1.357,0,0,0,.4-1.122" transform="translate(-197.119 -113.768)" fill="none" stroke="#01abab" stroke-linecap="round" stroke-linejoin="round" stroke-width="2"/>
        <path id="Path_558" data-name="Path 558" d="M289.79,173.953a2.334,2.334,0,0,0,1.719-1.4" transform="translate(-198.542 -118.345)" fill="none" stroke="#01abab" stroke-linecap="round" stroke-linejoin="round" stroke-width="2"/>
        <path id="Path_559" data-name="Path 559" d="M169.462,165.29a.951.951,0,0,0,.3,1.156c.325.291.743.455,1.068.739" transform="translate(-116.165 -113.379)" fill="none" stroke="#01abab" stroke-linecap="round" stroke-linejoin="round" stroke-width="2"/>
        <path id="Path_560" data-name="Path 560" d="M166.16,172.23a3.31,3.31,0,0,0,.588.765,3.635,3.635,0,0,0,1.384.654" transform="translate(-113.975 -118.126)" fill="none" stroke="#01abab" stroke-linecap="round" stroke-linejoin="round" stroke-width="2"/>
        <path id="Path_561" data-name="Path 561" d="M198.938,59.31S196.565,83,217.767,89.846" transform="translate(-136.342 -40.885)" fill="none" stroke="#01abab" stroke-linecap="round" stroke-linejoin="round" stroke-width="2"/>
        <path id="Path_562" data-name="Path 562" d="M239.65,80.11s2.983,20.633,25.843,24.839" transform="translate(-164.244 -55.113)" fill="none" stroke="#01abab" stroke-linecap="round" stroke-linejoin="round" stroke-width="2"/>
        <path id="Path_563" data-name="Path 563" d="M270.41,130.213a10.03,10.03,0,0,1,8.449.553" transform="translate(-185.285 -88.928)" fill="none" stroke="#01abab" stroke-linecap="round" stroke-linejoin="round" stroke-width="2"/>
        <path id="Path_564" data-name="Path 564" d="M166.16,130.2a8.936,8.936,0,0,1,9.031.275" transform="translate(-113.975 -88.641)" fill="none" stroke="#01abab" stroke-linecap="round" stroke-linejoin="round" stroke-width="2"/>
        <path id="Path_565" data-name="Path 565" d="M154.207,95.13c-.2.164-1.577,16.124-20.627,19.218" transform="translate(-91.69 -65.387)" fill="none" stroke="#01abab" stroke-linecap="round" stroke-linejoin="round" stroke-width="2"/>
        <path id="Path_566" data-name="Path 566" d="M137.188,95.83a37.192,37.192,0,0,1-13.748,17.89" transform="translate(-84.754 -65.866)" fill="none" stroke="#01abab" stroke-linecap="round" stroke-linejoin="round" stroke-width="2"/>
        <path id="Path_567" data-name="Path 567" d="M109.889,81.434s-7.732-1.381-10.933-2.155-9.331-5.615-11.429-10.787-2.1-10.749-1.049-16.38a161.633,161.633,0,0,1,4.86-18.665C92.5,30.411,95.2,23.4,99.566,17.6S113.2-1.174,133.52,1.313c0,0,8.449-.221,14.579,2.209s11.928,8.282,15.628,13.748,5.577,6.9,9.884,27.442,2.484,22.64.553,27.332-7.526,9.22-23.145,10.38" transform="translate(-59 -1)" fill="none" stroke="#01abab" stroke-linecap="round" stroke-linejoin="round" stroke-width="2"/>
        <path id="Path_568" data-name="Path 568" d="M126.737,176.72s-5.681,1.719-5.571,6.193,3.864,7.011,7.593,9.11" transform="translate(-83.197 -121.197)" fill="none" stroke="#01abab" stroke-linecap="round" stroke-linejoin="round" stroke-width="2"/>
        <path id="Path_569" data-name="Path 569" d="M315.461,178.67s4.436.164,4.822,6.019-7.233,8.67-7.233,8.67" transform="translate(-214.452 -122.531)" fill="none" stroke="#01abab" stroke-linecap="round" stroke-linejoin="round" stroke-width="2"/>
        <path id="Path_570" data-name="Path 570" d="M203.009,268.1c-.073.221,8.544,30.337,8.544,30.337l8.244-31" transform="translate(-139.181 -183.252)" fill="none" stroke="#01abab" stroke-linecap="round" stroke-linejoin="round" stroke-width="2"/>
        <path id="Path_571" data-name="Path 571" d="M179.931,268.38s-2.749.37-6.841,6.111l5.846,4.86-2.06,3.9s5.226,10.234,10.307,14.358" transform="translate(-118.716 -183.895)" fill="none" stroke="#01abab" stroke-linecap="round" stroke-linejoin="round" stroke-width="2"/>
        <path id="Path_572" data-name="Path 572" d="M249.6,266.05s5.447,3.239,7.915,7.289l-5.741,3.754s2.468,5.226,2.247,5.226-6.626,9.865-10.456,13.694" transform="translate(-166.919 -182.301)" fill="none" stroke="#01abab" stroke-linecap="round" stroke-linejoin="round" stroke-width="2"/>
        <line id="Line_37" data-name="Line 37" x2="8.465" transform="translate(68.173 96.486)" fill="none" stroke="#01abab" stroke-linecap="round" stroke-linejoin="round" stroke-width="2"/>
        <path id="Path_573" data-name="Path 573" d="M276.17,272.34a75.291,75.291,0,0,1,10.38,5.817s3.055,6.038,3.921,9.865,3.3,21.72,4.913,29.818,7.29,20.835,7.29,20.835-7.068,6.847-16.86,5.3" transform="translate(-189.225 -186.604)" fill="none" stroke="#01abab" stroke-linecap="round" stroke-linejoin="round" stroke-width="2"/>
        <path id="Path_574" data-name="Path 574" d="M315.09,514.97a12.769,12.769,0,0,0,1.324-.809,1.564,1.564,0,0,0,.736-1.842,13.086,13.086,0,0,1,.073-3.608s.149-.664,1.106.664c.512.711,1,1.526,1.352,2.133a1.8,1.8,0,0,1,.022,1.754l-.566,1.049-1.51-.736" transform="translate(-215.847 -348.174)" fill="none" stroke="#01abab" stroke-linecap="round" stroke-linejoin="round" stroke-width="2"/>
        <path id="Path_575" data-name="Path 575" d="M318.12,507.46l3.681,2.509a2.387,2.387,0,0,0,2.446.148l2.139-1.106a2.393,2.393,0,0,0,1.169-1.368l1.172-3.514a2.364,2.364,0,0,0,.057-1.308l-1.833-7.732" transform="translate(-217.92 -338.97)" fill="none" stroke="#01abab" stroke-linecap="round" stroke-linejoin="round" stroke-width="2"/>
        <circle id="Ellipse_53" data-name="Ellipse 53" cx="2.651" cy="2.651" r="2.651" transform="translate(69.718 123.947)" fill="none" stroke="#01abab" stroke-linecap="round" stroke-linejoin="round" stroke-width="2"/>
        <circle id="Ellipse_54" data-name="Ellipse 54" cx="2.651" cy="2.651" r="2.651" transform="translate(69.718 139.411)" fill="none" stroke="#01abab" stroke-linecap="round" stroke-linejoin="round" stroke-width="2"/>
        <path id="Path_576" data-name="Path 576" d="M300.232,395.843c-1.5-10.345-3.586-27.354-3.779-31.7-.294-6.626-1.179-24.516-.736-29.6" transform="translate(-202.512 -229.157)" fill="none" stroke="#01abab" stroke-linecap="round" stroke-linejoin="round" stroke-width="2"/>
        <path id="Path_577" data-name="Path 577" d="M153.4,332.45c0,.221-.221,13.767-.515,26.21-.2,8.455-2.983,25.641-4.749,35.816" transform="translate(-101.649 -227.72)" fill="none" stroke="#01abab" stroke-linecap="round" stroke-linejoin="round" stroke-width="2"/>
        <path id="Path_578" data-name="Path 578" d="M81.485,278.4s-6.007,3.093-8.143,4.566-3.343,3.018-4.765,7.877-2.379,8.835-3.409,12-4.269,6.111-4.269,6.111L49.192,294.009a23.433,23.433,0,0,1-5.226,4.417c-2.43,1.251-5.226,3.093-5.226,3.093s11.192,17.009,13.546,19.436,6.4,3.975,8.32,4.932,3.975,1.251,6.553-1.472a51.736,51.736,0,0,0,11.214-17.669" transform="translate(-26.817 -190.749)" fill="none" stroke="#01abab" stroke-linecap="round" stroke-linejoin="round" stroke-width="2"/>
        <path id="Path_579" data-name="Path 579" d="M52.062,298.94s-2.5-9.865-2.724-11.043A1.391,1.391,0,0,0,47.2,286.79a3.5,3.5,0,0,0-1.842,3.239,3.647,3.647,0,0,0,.442,2.209s-3.719,5.634.664,7.583" transform="translate(-30.64 -196.343)" fill="none" stroke="#01abab" stroke-linecap="round" stroke-linejoin="round" stroke-width="2"/>
        <path id="Path_580" data-name="Path 580" d="M26.741,286.9c-.221,0-5.89-3.315-6.847-3.83s-3.46.957-1.545,3.166" transform="translate(-12.388 -193.871)" fill="none" stroke="#01abab" stroke-linecap="round" stroke-linejoin="round" stroke-width="2"/>
        <path id="Path_581" data-name="Path 581" d="M15.771,295.491s-6.7-3.754-7.732-4.2-3.46,1.251-1.179,2.8" transform="translate(-4.363 -199.521)" fill="none" stroke="#01abab" stroke-linecap="round" stroke-linejoin="round" stroke-width="2"/>
        <path id="Path_582" data-name="Path 582" d="M10.737,304.939s-4.787-2.209-6.4-2.8-3.514,1.106-1.021,2.8" transform="translate(-1.759 -206.908)" fill="none" stroke="#01abab" stroke-linecap="round" stroke-linejoin="round" stroke-width="2"/>
        <path id="Path_583" data-name="Path 583" d="M8.511,316.568a25.454,25.454,0,0,0-5.226-2.1c-2.209-.477-3.441,1.435-.727,3.277s5.289,3.315,6.91,4.269a20.3,20.3,0,0,1,3.46,2.872" transform="translate(-1.005 -215.371)" fill="none" stroke="#01abab" stroke-linecap="round" stroke-linejoin="round" stroke-width="2"/>
      </g>
    </g>
  </g>
</svg>
