<svg xmlns="http://www.w3.org/2000/svg" width="289" height="140.368" viewBox="0 0 289 140.368">
  <g id="Group_391" data-name="Group 391" transform="translate(-490 -7651.999)">
    <g id="Group_141" data-name="Group 141" transform="translate(568.216 7662.891)">
      <path id="Path_718" data-name="Path 718" d="M2.106-2.556V-3.24H4.14v.684Zm0-1.809H4.14v.675H2.106Zm4.833,0v.675H4.8v-.675Zm0,1.809H4.8V-3.24H6.939ZM4.8-.144V-.918h3.15v-.54H4.8v-.621H7.614V-4.851H4.8v-.54H8.46V-5.94H4.8v-.693a27.52,27.52,0,0,0,2.8-.324l-.36-.522A46.551,46.551,0,0,1,1.224-7a1.786,1.786,0,0,1,.144.531C2.25-6.489,3.2-6.525,4.14-6.588v.648H.549v.549H4.14v.54H1.449v2.772H4.14v.621H1.179v.54H4.14v.774H.5V.405h8.01V-.144ZM9.945.621a3.126,3.126,0,0,0,.972-1.746l-.576-.18A2.918,2.918,0,0,1,9.4.3Zm1.593-1.629A4.651,4.651,0,0,1,11.952.459l.594-.153a5.107,5.107,0,0,0-.45-1.449Zm1.53-.045A5.05,5.05,0,0,1,13.689.288l.54-.18a4.928,4.928,0,0,0-.648-1.314Zm.3-4.2a4.984,4.984,0,0,0,.819-.981h.675a4.9,4.9,0,0,1,.657.981Zm-.009,1.107H11.277v-.6h2.079Zm0,1.071H11.277v-.6h2.079Zm0,1.089H11.277V-2.61h2.079ZM17.5-6.777H14.508c.1-.207.2-.423.279-.639l-.63-.153A4.6,4.6,0,0,1,12.771-5.58a4.187,4.187,0,0,1,.549.324H11.727l.477-.2a6.357,6.357,0,0,0-.423-.783h1.593v-.54H11.025a5.591,5.591,0,0,0,.279-.63l-.63-.162A5.372,5.372,0,0,1,9.36-5.535a4.169,4.169,0,0,1,.549.369,6.189,6.189,0,0,0,.819-1.071H11.1a6,6,0,0,1,.5.981h-.972v3.762h5.949c-.09,1.008-.189,1.422-.315,1.548-.063.072-.144.081-.279.081s-.477,0-.846-.036a1.591,1.591,0,0,1,.171.567,8.551,8.551,0,0,0,.972,0A.726.726,0,0,0,16.8.459c.216-.225.333-.783.441-2.169l.027-.279H14.013V-2.61H16.47v-.468H14.013v-.6H16.47v-.468H14.013v-.6h2.8v-.5H15.543l.558-.216a4.36,4.36,0,0,0-.513-.765H17.5ZM15.777-.333a4.277,4.277,0,0,0-.792-1l-.45.207a4.166,4.166,0,0,1,.756,1.044Zm6.282-6.813-.792-.072a7.466,7.466,0,0,1-.279,1.557c-.351.027-.693.045-1.017.045a8.489,8.489,0,0,1-1.1-.063L18.918-5c.342.018.72.027,1.053.027.261,0,.531-.009.8-.027a13.318,13.318,0,0,1-1.926,3.366l.693.36a15.918,15.918,0,0,0,1.962-3.8,12.205,12.205,0,0,0,1.638-.333l-.018-.675a8.7,8.7,0,0,1-1.413.333C21.852-6.273,21.978-6.822,22.059-7.146ZM21.564-.9c0-.414.45-.72,1.107-.72a3.12,3.12,0,0,1,.927.135c.009.153.009.288.009.4,0,.5-.252.891-1,.891C21.906-.189,21.564-.477,21.564-.9Zm2.619-3.465h-.7c.018.639.063,1.53.1,2.268a4.016,4.016,0,0,0-.882-.09c-1.017,0-1.8.522-1.8,1.35,0,.891.81,1.3,1.8,1.3,1.116,0,1.575-.585,1.575-1.305,0-.108,0-.234-.009-.378A6.727,6.727,0,0,1,25.722-.189L26.109-.8a6.175,6.175,0,0,0-1.872-1.116c-.018-.558-.054-1.143-.063-1.476S24.165-4,24.183-4.365Zm1.8.243.405-.594a13.594,13.594,0,0,0-2.1-1.2l-.369.549A10.539,10.539,0,0,1,25.983-4.122Zm3.771,1.494v.846H28.4v-.846Zm1.953.846H30.366v-.846h1.341ZM30.366-.36v-.9h1.341v.9ZM28.4-.36v-.9h1.35v.9ZM27.792.666H28.4v-.5h3.3v.4h.639V-3.159H27.792Zm3.537-5.013h-2.61V-5.355h2.61ZM28.107-5.9v2.088h3.861V-5.9Zm-.558-.639h4.932v-.585H27.549Zm6.111.09h-.594v4.95h.594Zm.963-.909V-.18c0,.153-.063.207-.225.207-.144.009-.657.018-1.233-.009a2.531,2.531,0,0,1,.225.666,4.345,4.345,0,0,0,1.5-.126c.27-.108.378-.306.378-.738V-7.353Zm8.118,3.294a6.234,6.234,0,0,1-1.647,2.466A6.4,6.4,0,0,1,39.51-4.059Zm.423-.675-.135.036H38.223V-6.309h5.9v-.648H37.566v2.43a8.543,8.543,0,0,1-1.08,4.8,2.648,2.648,0,0,1,.567.4,8.939,8.939,0,0,0,1.161-4.725h.594a7.694,7.694,0,0,0,1.755,2.907A7.655,7.655,0,0,1,37.935.081a2.466,2.466,0,0,1,.387.6A8.468,8.468,0,0,0,41.085-.693,7.456,7.456,0,0,0,44.028.7a2.288,2.288,0,0,1,.45-.612,7.256,7.256,0,0,1-2.853-1.242,7.147,7.147,0,0,0,2-3.393Zm10.368-1v-.639H50.1V-7.524h-.684v1.152h-3.3V-4.05a9.306,9.306,0,0,1-.8,4.365,2.492,2.492,0,0,1,.567.378,10.44,10.44,0,0,0,.891-4.743V-5.733ZM51.48-4.113a10.989,10.989,0,0,0-2.088-1.323L48.933-5A11.144,11.144,0,0,1,51-3.618Zm-4.1,3.942a7.547,7.547,0,0,0,.81-2.862l-.612-.135a6.764,6.764,0,0,1-.792,2.727ZM49.869-.1c-.342,0-.414-.054-.414-.36V-3.933H48.8V-.459c0,.747.207.972.99.972H51.1c.765,0,.936-.4,1.008-1.881a2.136,2.136,0,0,1-.6-.27C51.48-.324,51.426-.1,51.057-.1Zm1.917-3.024A10.178,10.178,0,0,1,53.055-.162l.639-.279A9.7,9.7,0,0,0,52.38-3.366Z" transform="translate(33.784 35.108)" fill="#707070"/>
      <path id="Path_717" data-name="Path 717" d="M18.176.7A12.3,12.3,0,0,0,27.84-3.9c4.48-5.12,5.44-11.84,5.44-17.408,0-5.5-.96-12.352-5.44-17.472a12.39,12.39,0,0,0-9.664-4.608,12.39,12.39,0,0,0-9.664,4.608c-4.48,5.12-5.44,11.968-5.44,17.472,0,5.568.96,12.288,5.44,17.408A12.3,12.3,0,0,0,18.176.7Zm0-38.336c1.664,0,3.9.7,5.76,3.52,2.368,3.52,2.944,9.024,2.944,12.736,0,3.776-.576,9.216-2.944,12.8-1.856,2.816-4.1,3.52-5.76,3.52s-3.9-.7-5.76-3.52c-2.368-3.584-2.944-9.024-2.944-12.8,0-3.712.576-9.216,2.944-12.736C14.272-36.928,16.512-37.632,18.176-37.632ZM39.59.241Q41.618-2.728,47.8-12.395l.135-.028.844.037.093-.009L40.651.241a1.94,1.94,0,0,1-.273,0L39.8.213ZM36.955-9.027a3.554,3.554,0,0,1,.093-.9,6.4,6.4,0,0,1,.325-1,2.672,2.672,0,0,1,.492-.705,2.608,2.608,0,0,1,.728-.492,1.962,1.962,0,0,1,.784-.158,2.147,2.147,0,0,1,1.693.844,3.509,3.509,0,0,1,.71,2.329,4.858,4.858,0,0,1-.2,1.475A3.083,3.083,0,0,1,41-6.559a2.134,2.134,0,0,1-.64.529,1.749,1.749,0,0,1-.8.25,2.68,2.68,0,0,1-1.206-.213,2.567,2.567,0,0,1-.988-1.085A4.1,4.1,0,0,1,36.955-9.027Zm1.614-.26q.028.649.028.891a5.937,5.937,0,0,0,.121,1.614l.3.38a.513.513,0,0,0,.306.093.652.652,0,0,0,.459-.2,1.542,1.542,0,0,0,.3-.858,9.771,9.771,0,0,0,.093-1.364l-.019-.622v-.668a2.772,2.772,0,0,0-.269-1.438.574.574,0,0,0-.5-.278.638.638,0,0,0-.459.195,1.513,1.513,0,0,0-.3.8Q38.588-10.511,38.569-9.287Zm8.164,6.142a3.442,3.442,0,0,1,.093-.891,6.4,6.4,0,0,1,.325-1.011,2.672,2.672,0,0,1,.492-.705,2.521,2.521,0,0,1,.728-.487,2.013,2.013,0,0,1,.784-.153,2.155,2.155,0,0,1,1.688.84,3.475,3.475,0,0,1,.714,2.324,4.858,4.858,0,0,1-.2,1.475,3,3,0,0,1-.584,1.076,2.03,2.03,0,0,1-.631.529,1.759,1.759,0,0,1-.807.25,2.654,2.654,0,0,1-1.2-.213A2.518,2.518,0,0,1,47.142-1.2,4.135,4.135,0,0,1,46.733-3.145Zm1.614-.26q.028.649.028.891A5.422,5.422,0,0,0,48.5-.9l.3.38a.513.513,0,0,0,.306.093.636.636,0,0,0,.455-.2,1.572,1.572,0,0,0,.3-.858,9.771,9.771,0,0,0,.093-1.364l-.009-.622v-.668a2.772,2.772,0,0,0-.269-1.438.574.574,0,0,0-.5-.278.654.654,0,0,0-.464.195,1.483,1.483,0,0,0-.306.8Q48.357-4.629,48.348-3.4Z" transform="translate(41.784 90.108)" fill="#01abab"/>
      <ellipse id="Ellipse_4" data-name="Ellipse 4" cx="62.5" cy="62" rx="62.5" ry="62" transform="translate(-0.215 0.108)" fill="none" stroke="#01abab" stroke-width="5"/>
      <path id="Path_291" data-name="Path 291" d="M62.238,0A62.175,62.175,0,1,1,42.221,3.289" transform="translate(0.259 0)" fill="none" stroke="#7fd5d5" stroke-linecap="round" stroke-width="10"/>
    </g>
    <circle id="Ellipse_13" data-name="Ellipse 13" cx="2.5" cy="2.5" r="2.5" transform="translate(614 7651.999)" fill="#01abab"/>
    <circle id="Ellipse_39" data-name="Ellipse 39" cx="2.5" cy="2.5" r="2.5" transform="translate(705 7717.999)" fill="#7fd5d5"/>
    <path id="Path_474" data-name="Path 474" d="M-21752.3-8489.5h-55.9v66.418h-19.152" transform="translate(22366.156 16143.833)" fill="none" stroke="#ccc" stroke-width="1"/>
    <line id="Line_33" data-name="Line 33" x2="49.791" transform="translate(706.955 7720.751)" fill="none" stroke="#ccc" stroke-width="1"/>
    <g id="Group_296" data-name="Group 296" transform="translate(717.486 7693.491)">
      <rect id="Rectangle_144" data-name="Rectangle 144" width="62" height="54" rx="5" transform="translate(-0.486 -0.492)" fill="#fff"/>
      <g id="Group_294" data-name="Group 294" transform="translate(5.187 6.742)">
        <path id="Path_720" data-name="Path 720" d="M3.06-2.92v.94H1.56v-.94Zm2.17.94H3.74v-.94H5.23ZM3.74-.4v-1H5.23v1ZM1.56-.4v-1h1.5v1ZM.88.74h.68V.19H5.23V.63h.71V-3.51H.88ZM4.81-4.83H1.91V-5.95h2.9ZM1.23-6.55v2.32H5.52V-6.55ZM.61-7.26H6.09v-.65H.61Zm6.79.1H6.74v5.5H7.4ZM8.47-8.17V-.2c0,.17-.07.23-.25.23C8.06.04,7.49.05,6.85.02A2.812,2.812,0,0,1,7.1.76,4.828,4.828,0,0,0,8.77.62c.3-.12.42-.34.42-.82V-8.17Zm9.02,3.66a6.927,6.927,0,0,1-1.83,2.74A7.113,7.113,0,0,1,13.9-4.51Zm.47-.75-.15.04H12.47V-7.01h6.55v-.72H11.74v2.7c0,1.58-.11,3.78-1.2,5.33a2.942,2.942,0,0,1,.63.44,9.933,9.933,0,0,0,1.29-5.25h.66a8.549,8.549,0,0,0,1.95,3.23A8.506,8.506,0,0,1,12.15.09a2.74,2.74,0,0,1,.43.67A9.409,9.409,0,0,0,15.65-.77,8.285,8.285,0,0,0,18.92.78a2.542,2.542,0,0,1,.5-.68,8.062,8.062,0,0,1-3.17-1.38,7.941,7.941,0,0,0,2.22-3.77ZM29.48-6.37v-.71H25.67V-8.36h-.76v1.28H21.24V-4.5A10.34,10.34,0,0,1,20.35.35a2.769,2.769,0,0,1,.63.42,11.6,11.6,0,0,0,.99-5.27V-6.37ZM27.2-4.57a12.21,12.21,0,0,0-2.32-1.47l-.51.48a12.382,12.382,0,0,1,2.3,1.54ZM22.64-.19a8.385,8.385,0,0,0,.9-3.18l-.68-.15a7.515,7.515,0,0,1-.88,3.03Zm2.77.08c-.38,0-.46-.06-.46-.4V-4.37h-.73V-.51c0,.83.23,1.08,1.1,1.08h1.46c.85,0,1.04-.44,1.12-2.09a2.373,2.373,0,0,1-.67-.3c-.03,1.46-.09,1.71-.5,1.71Zm2.13-3.36A11.309,11.309,0,0,1,28.95-.18l.71-.31A10.774,10.774,0,0,0,28.2-3.74Zm6.97-4.47-.88-.08a8.3,8.3,0,0,1-.31,1.73c-.39.03-.77.05-1.13.05a9.433,9.433,0,0,1-1.22-.07l.05.75c.38.02.8.03,1.17.03.29,0,.59-.01.89-.03a14.8,14.8,0,0,1-2.14,3.74l.77.4a17.687,17.687,0,0,0,2.18-4.22,13.562,13.562,0,0,0,1.82-.37l-.02-.75a9.664,9.664,0,0,1-1.57.37C34.28-6.97,34.42-7.58,34.51-7.94ZM33.96-1c0-.46.5-.8,1.23-.8a3.467,3.467,0,0,1,1.03.15c.01.17.01.32.01.45,0,.55-.28.99-1.11.99C34.34-.21,33.96-.53,33.96-1Zm2.91-3.85h-.78c.02.71.07,1.7.11,2.52a4.463,4.463,0,0,0-.98-.1c-1.13,0-2,.58-2,1.5,0,.99.9,1.44,2,1.44,1.24,0,1.75-.65,1.75-1.45,0-.12,0-.26-.01-.42A7.475,7.475,0,0,1,38.58-.21l.43-.68a6.861,6.861,0,0,0-2.08-1.24c-.02-.62-.06-1.27-.07-1.64S36.85-4.44,36.87-4.85Zm2,.27.45-.66a15.1,15.1,0,0,0-2.33-1.33l-.41.61A11.71,11.71,0,0,1,38.87-4.58ZM43.4-7.79,42.39-7.8a5.277,5.277,0,0,1,.08,1.02c0,1.05-.1,3.58-.1,5.06,0,1.63.99,2.23,2.43,2.23A5.026,5.026,0,0,0,48.98-1.7l-.57-.68A4.167,4.167,0,0,1,44.83-.31c-.95,0-1.64-.39-1.64-1.49,0-1.49.07-3.85.12-4.98A8.609,8.609,0,0,1,43.4-7.79Z" transform="translate(0.327 36.766)" fill="#707070"/>
        <path id="Path_719" data-name="Path 719" d="M4.18.437,7.7-4.085A12.737,12.737,0,0,0,9.234-6.346a5,5,0,0,0,.608-2.413,3.991,3.991,0,0,0-1.1-2.869,4.352,4.352,0,0,0-3.268-1.254A4.358,4.358,0,0,0,2.2-11.59,4.528,4.528,0,0,0,.95-8.417,3.94,3.94,0,0,0,2.109-5.529,4.078,4.078,0,0,0,5.073-4.351a2.9,2.9,0,0,0,.684-.076L2.774-.608ZM5.377-6a2.666,2.666,0,0,1-1.786-.7A2.691,2.691,0,0,1,2.85-8.588a2.652,2.652,0,0,1,.741-1.862A2.729,2.729,0,0,1,5.4-11.172a2.679,2.679,0,0,1,1.8.722,2.511,2.511,0,0,1,.741,1.8A2.794,2.794,0,0,1,7.2-6.764,2.545,2.545,0,0,1,5.377-6ZM14.972.437l3.515-4.522a12.737,12.737,0,0,0,1.539-2.261,5,5,0,0,0,.608-2.413,3.991,3.991,0,0,0-1.1-2.869,4.352,4.352,0,0,0-3.268-1.254A4.358,4.358,0,0,0,13-11.59a4.528,4.528,0,0,0-1.254,3.173A3.94,3.94,0,0,0,12.9-5.529a4.078,4.078,0,0,0,2.964,1.178,2.9,2.9,0,0,0,.684-.076L13.566-.608ZM16.169-6a2.666,2.666,0,0,1-1.786-.7,2.691,2.691,0,0,1-.741-1.881,2.652,2.652,0,0,1,.741-1.862,2.729,2.729,0,0,1,1.805-.722,2.679,2.679,0,0,1,1.805.722,2.511,2.511,0,0,1,.741,1.8,2.794,2.794,0,0,1-.741,1.881A2.545,2.545,0,0,1,16.169-6Zm7.743-2.072A1.921,1.921,0,0,0,21.98-6.192a1.921,1.921,0,0,0,1.932,1.884,1.921,1.921,0,0,0,1.932-1.884A1.921,1.921,0,0,0,23.912-8.076Zm0,2.9a1,1,0,0,1-1-1.02,1,1,0,0,1,1-1.02,1,1,0,0,1,1,1.02A1,1,0,0,1,23.912-5.172ZM23.876-.216l.564.348,4.572-7.944-.564-.324Zm5.1-3.468A1.921,1.921,0,0,0,27.044-1.8,1.921,1.921,0,0,0,28.976.084,1.921,1.921,0,0,0,30.908-1.8,1.921,1.921,0,0,0,28.976-3.684Zm0,2.9a1,1,0,0,1-1-1.02,1,1,0,0,1,1-1.02,1,1,0,0,1,1,1.02A1,1,0,0,1,28.976-.78Z" transform="translate(10.327 18.766)" fill="#7fd5d5"/>
      </g>
    </g>
    <g id="Group_295" data-name="Group 295" transform="translate(490 7693.491)">
      <rect id="Rectangle_145" data-name="Rectangle 145" width="62" height="54" rx="5" transform="translate(0 -0.492)" fill="#fff"/>
      <g id="Group_293" data-name="Group 293" transform="translate(4.149 2.075)">
        <path id="Path_716" data-name="Path 716" d="M1.29-3.9H2.33v.91H1.29Zm0-1.43H2.33v.9H1.29Zm2.65.9H2.88v-.9H3.94Zm0,1.44H2.88V-3.9H3.94ZM8.32-7.21A5.189,5.189,0,0,1,7.11-5.47,5.361,5.361,0,0,1,5.95-7.21ZM4.76-.97v-.66H2.94v-.8H4.53V-3.91a2.987,2.987,0,0,1,.35.55A7.383,7.383,0,0,0,7.11-4.55,6.115,6.115,0,0,0,9.26-3.39,3.052,3.052,0,0,1,9.72-4,5.763,5.763,0,0,1,7.64-5.01a6.218,6.218,0,0,0,1.6-2.7L8.78-7.9l-.13.03H4.88v.66h.99l-.55.15A6.428,6.428,0,0,0,6.6-5.03,6.636,6.636,0,0,1,4.53-3.98V-5.89H2.94v-.76H4.68v-.64H2.94V-8.37H2.28v1.08H.55v.64H2.28v.76H.72v3.46H2.28v.8H.43v.66H2.28V.78h.66V-.97Zm2.71-.92H9.16v-.64H7.47V-3.82H6.73v1.29H5.06v.64H6.73V-.16H4.44V.51H9.61V-.16H7.47ZM19.4-6.7v-.68H15.67v-.98h-.76v.98H11.24v2.86A10.271,10.271,0,0,1,10.35.36a2.875,2.875,0,0,1,.61.42,11.533,11.533,0,0,0,.98-5.3V-6.7ZM17-4.97v1.05H14.58V-4.97Zm.72,1.65V-4.97h1.61v-.61H17.72v-.87H17v.87H14.58v-.87h-.71v.87H12.28v.61h1.59v1.65Zm-.16,1.24A4.6,4.6,0,0,1,15.87-.81a4.479,4.479,0,0,1-1.62-1.27Zm.62-.64-.13.03H12.4v.61h1.54l-.4.15A5.032,5.032,0,0,0,15.11-.5a13.565,13.565,0,0,1-3.08.64,2.57,2.57,0,0,1,.31.62A13.545,13.545,0,0,0,15.86-.1a11.407,11.407,0,0,0,3.29.88,2.2,2.2,0,0,1,.43-.63,12.716,12.716,0,0,1-2.94-.63,4.939,4.939,0,0,0,2.01-1.99Zm4.88-.2v.94h-1.5v-.94Zm2.17.94H23.74v-.94h1.49ZM23.74-.4v-1h1.49v1Zm-2.18,0v-1h1.5v1ZM20.88.74h.68V.19h3.67V.63h.71V-3.51H20.88Zm3.93-5.57h-2.9V-5.95h2.9ZM21.23-6.55v2.32h4.29V-6.55Zm-.62-.71h5.48v-.65H20.61Zm6.79.1h-.66v5.5h.66Zm1.07-1.01V-.2c0,.17-.07.23-.25.23-.16.01-.73.02-1.37-.01a2.812,2.812,0,0,1,.25.74A4.828,4.828,0,0,0,28.77.62c.3-.12.42-.34.42-.82V-8.17Zm9.02,3.66a6.927,6.927,0,0,1-1.83,2.74A7.113,7.113,0,0,1,33.9-4.51Zm.47-.75-.15.04H32.47V-7.01h6.55v-.72H31.74v2.7c0,1.58-.11,3.78-1.2,5.33a2.942,2.942,0,0,1,.63.44,9.933,9.933,0,0,0,1.29-5.25h.66a8.549,8.549,0,0,0,1.95,3.23A8.506,8.506,0,0,1,32.15.09a2.74,2.74,0,0,1,.43.67A9.409,9.409,0,0,0,35.65-.77,8.285,8.285,0,0,0,38.92.78a2.542,2.542,0,0,1,.5-.68,8.062,8.062,0,0,1-3.17-1.38,7.941,7.941,0,0,0,2.22-3.77ZM49.48-6.37v-.71H45.67V-8.36h-.76v1.28H41.24V-4.5A10.34,10.34,0,0,1,40.35.35a2.769,2.769,0,0,1,.63.42,11.6,11.6,0,0,0,.99-5.27V-6.37ZM47.2-4.57a12.21,12.21,0,0,0-2.32-1.47l-.51.48a12.382,12.382,0,0,1,2.3,1.54ZM42.64-.19a8.385,8.385,0,0,0,.9-3.18l-.68-.15a7.515,7.515,0,0,1-.88,3.03Zm2.77.08c-.38,0-.46-.06-.46-.4V-4.37h-.73V-.51c0,.83.23,1.08,1.1,1.08h1.46c.85,0,1.04-.44,1.12-2.09a2.373,2.373,0,0,1-.67-.3c-.03,1.46-.09,1.71-.5,1.71Zm2.13-3.36A11.309,11.309,0,0,1,48.95-.18l.71-.31A10.774,10.774,0,0,0,48.2-3.74Z" transform="translate(0.851 46.434)" fill="#707070"/>
        <path id="Path_715" data-name="Path 715" d="M1.17-2.154A3.525,3.525,0,0,1,.21-.75a2.235,2.235,0,0,1,.354.258A4.676,4.676,0,0,0,1.62-2.034ZM5.652-2.6v-.426H3.216v-.852H5.184V-4.3H3.216V-5.01h-.45V-4.3H.96v.426H2.766v.852H.366V-2.6H2.172v.348A2.592,2.592,0,0,1,.972.168a1.726,1.726,0,0,1,.336.324A2.973,2.973,0,0,0,2.616-2.244V-2.6H3.51V-.1c0,.078-.024.1-.114.1s-.408.012-.744,0A1.894,1.894,0,0,1,2.814.45,2.9,2.9,0,0,0,3.732.372c.186-.078.24-.21.24-.462V-2.6ZM4.392-2a8.382,8.382,0,0,1,.972,1.53l.426-.2a8.6,8.6,0,0,0-1-1.506ZM7.338-4.4l.024.486c.144-.012.312-.03.444-.036.276-.018,1.008-.048,1.248-.06-.186.372-.414.894-.624,1.368-1.182.03-2,.708-2,1.59a.765.765,0,0,0,.78.822.844.844,0,0,0,.756-.414,12.976,12.976,0,0,0,.756-1.572,4.314,4.314,0,0,1,1.716.552A2.574,2.574,0,0,1,8.868.03l.4.33a2.831,2.831,0,0,0,1.578-1.782,6.262,6.262,0,0,1,.624.474l.222-.516a7.841,7.841,0,0,0-.726-.462,8.047,8.047,0,0,0,.126-1.158L10.6-3.138c.012.168.006.372,0,.552-.012.144-.024.294-.048.444a5.4,5.4,0,0,0-1.65-.48c.252-.558.516-1.17.684-1.44a2.515,2.515,0,0,1,.156-.2l-.3-.246a1.24,1.24,0,0,1-.3.066c-.252.018-1.038.06-1.356.06C7.668-4.38,7.494-4.386,7.338-4.4ZM6.87-1.11c0-.516.5-1.044,1.374-1.11A8.011,8.011,0,0,1,7.59-.912a.432.432,0,0,1-.36.21A.367.367,0,0,1,6.87-1.11ZM15-2.916a.633.633,0,0,0-.636.636A.633.633,0,0,0,15-1.644a.633.633,0,0,0,.636-.636A.633.633,0,0,0,15-2.916ZM20.628-4.68l-.558-.06a6.269,6.269,0,0,1-.156,1.308c-.36.03-.714.06-.912.066a5.284,5.284,0,0,1-.534,0l.048.522c.156-.024.4-.054.54-.072.156-.018.444-.054.762-.084A9.6,9.6,0,0,1,18.552-.006l.492.192A12.342,12.342,0,0,0,20.3-3.048c.264-.024.5-.042.648-.042.378,0,.636.1.636.654A5.082,5.082,0,0,1,21.3-.6a.5.5,0,0,1-.522.306,2.92,2.92,0,0,1-.738-.12l.078.5a3.262,3.262,0,0,0,.708.09.845.845,0,0,0,.876-.5A5.7,5.7,0,0,0,22.05-2.5c0-.81-.438-1.014-.972-1.014-.144,0-.4.018-.678.042.066-.33.12-.684.156-.858C20.58-4.44,20.6-4.572,20.628-4.68Zm2.064.636-.438.2a7.049,7.049,0,0,1,1.068,2.172L23.79-1.9A10.672,10.672,0,0,0,22.692-4.044Zm4.848-.714-.5.012a2.381,2.381,0,0,1,.1.372c.024.114.048.276.078.474a2.693,2.693,0,0,0-1.992,1.686,9.139,9.139,0,0,1,.168-1.77,2.7,2.7,0,0,1,.078-.282l-.516-.042a1.458,1.458,0,0,1-.006.276A17.141,17.141,0,0,0,24.792-2.2a6.231,6.231,0,0,0,.192,1.554l.42-.066a4.088,4.088,0,0,1-.078-.564,1.478,1.478,0,0,1,.036-.372,2.5,2.5,0,0,1,1.9-1.854c.024.282.042.606.042.936a4.622,4.622,0,0,1-.192,1.428,1.527,1.527,0,0,1-.882-.858l-.288.336a1.865,1.865,0,0,0,1,.924,1.97,1.97,0,0,1-.84.846l.444.27a2.382,2.382,0,0,0,.864-1c.066.006.132.012.2.012a1.658,1.658,0,0,0,1.842-1.74,1.612,1.612,0,0,0-1.782-1.6C27.624-4.278,27.576-4.566,27.54-4.758Zm.2,2.2c0-.33-.018-.666-.042-.972a1.18,1.18,0,0,1,1.284,1.206A1.24,1.24,0,0,1,27.6-1.056h-.036A5.429,5.429,0,0,0,27.744-2.562ZM31.338-4.4l.024.486c.144-.012.312-.03.444-.036.276-.018,1.008-.048,1.248-.06-.186.372-.414.894-.624,1.368-1.182.03-2,.708-2,1.59a.765.765,0,0,0,.78.822.844.844,0,0,0,.756-.414,12.976,12.976,0,0,0,.756-1.572,4.314,4.314,0,0,1,1.716.552A2.574,2.574,0,0,1,32.868.03l.4.33a2.831,2.831,0,0,0,1.578-1.782,6.262,6.262,0,0,1,.624.474l.222-.516a7.841,7.841,0,0,0-.726-.462,8.047,8.047,0,0,0,.126-1.158L34.6-3.138c.012.168.006.372,0,.552-.012.144-.024.294-.048.444a5.4,5.4,0,0,0-1.65-.48c.252-.558.516-1.17.684-1.44a2.515,2.515,0,0,1,.156-.2l-.3-.246a1.24,1.24,0,0,1-.3.066c-.252.018-1.038.06-1.356.06C31.668-4.38,31.494-4.386,31.338-4.4ZM30.87-1.11c0-.516.5-1.044,1.374-1.11A8.011,8.011,0,0,1,31.59-.912a.432.432,0,0,1-.36.21A.367.367,0,0,1,30.87-1.11ZM37.4-4.14a3.921,3.921,0,0,1,.258.678l.39-.144a2.491,2.491,0,0,0-.21-.534h1.086v-.378h-1.56a3.728,3.728,0,0,0,.186-.42l-.42-.108a3.9,3.9,0,0,1-.912,1.392,2.831,2.831,0,0,1,.366.258,3.843,3.843,0,0,0,.564-.744ZM37.356-.768A4.35,4.35,0,0,1,38.364.15l.342-.282A4.243,4.243,0,0,0,37.68-1.02Zm4.356-1.176v-.39h-2.5v-.534h1.932v-.378H39.216V-3.66h-.1a3.394,3.394,0,0,0,.372-.48H39.9a2.754,2.754,0,0,1,.42.714l.384-.168a3.143,3.143,0,0,0-.33-.546h1.278v-.378H39.708a3.862,3.862,0,0,0,.18-.432l-.426-.1a3.056,3.056,0,0,1-.858,1.3c.036.024.1.06.162.1v.4H36.894v.378h1.872v.534h-2.46v.39h3.678v.528H36.5v.39h3.486v.954c0,.084-.024.108-.132.108s-.462.012-.87,0a1.561,1.561,0,0,1,.162.42A3.891,3.891,0,0,0,40.17.384c.2-.072.264-.186.264-.45v-.96h1.122v-.39H40.434v-.528ZM47.448-2.1a2.174,2.174,0,0,0-2.3-2.208,2.557,2.557,0,0,0-2.622,2.442c0,.99.534,1.6,1.068,1.6.558,0,1.032-.63,1.4-1.866a11.8,11.8,0,0,0,.36-1.728,1.671,1.671,0,0,1,1.6,1.74A1.812,1.812,0,0,1,45.432-.336a4.532,4.532,0,0,1-.516.078L45.2.186A2.268,2.268,0,0,0,47.448-2.1ZM43-1.908a2.093,2.093,0,0,1,1.86-1.944,9.8,9.8,0,0,1-.336,1.62c-.306,1.014-.624,1.416-.906,1.416S43-1.152,43-1.908Z" transform="translate(-0.149 31.434)" fill="#707070"/>
        <path id="Path_714" data-name="Path 714" d="M4.75,0H6.688V-12.673H3.61L2.546-10.887h2.2Zm8.37-8.076a1.921,1.921,0,0,0-1.932,1.884A1.921,1.921,0,0,0,13.12-4.308a1.921,1.921,0,0,0,1.932-1.884A1.921,1.921,0,0,0,13.12-8.076Zm0,2.9a1,1,0,0,1-1-1.02,1,1,0,0,1,1-1.02,1,1,0,0,1,1,1.02A1,1,0,0,1,13.12-5.172ZM13.084-.216l.564.348L18.22-7.812l-.564-.324Zm5.1-3.468A1.921,1.921,0,0,0,16.252-1.8,1.921,1.921,0,0,0,18.184.084,1.921,1.921,0,0,0,20.116-1.8,1.921,1.921,0,0,0,18.184-3.684Zm0,2.9a1,1,0,0,1-1-1.02,1,1,0,0,1,1-1.02,1,1,0,0,1,1,1.02A1,1,0,0,1,18.184-.78Z" transform="translate(16.851 19.434)" fill="#01abab"/>
      </g>
    </g>
  </g>
</svg>
