<svg xmlns="http://www.w3.org/2000/svg" width="369.8" height="229.199" viewBox="0 0 369.8 229.199">
  <g id="Group_324" data-name="Group 324" transform="translate(-1027.445 -2137.226)">
    <path id="Path_720" data-name="Path 720" d="M-91.558,1.97l.57-.27a9.218,9.218,0,0,1-1.28-4.81,9.244,9.244,0,0,1,1.28-4.81l-.57-.26a9.339,9.339,0,0,0-1.47,5.07A9.374,9.374,0,0,0-91.558,1.97Zm4.28-9.21a7.091,7.091,0,0,0-1.9-1.05l-.4.55a6.9,6.9,0,0,1,1.87,1.11Zm-.53,2.56a8.418,8.418,0,0,0-1.95-.92l-.39.56a8.66,8.66,0,0,1,1.93.99Zm-.08,1.61a29.84,29.84,0,0,1-1.89,3.2l.62.5c.59-.93,1.29-2.16,1.81-3.21Zm4.02,2.82V-2.67h2.31v-.7h-2.31V-5.52h2.67v-.7h-2.42l.5-.61a10.327,10.327,0,0,0-2.31-1.56l-.48.56a9.506,9.506,0,0,1,2.25,1.61h-3.53v.7h2.56v2.15h-2.18v.7h2.18V-.25h-2.89V.46h6.53V-.25Zm4.29,2.22A9.3,9.3,0,0,0-78.1-3.11a9.262,9.262,0,0,0-1.48-5.07l-.56.26a9.339,9.339,0,0,1,1.28,4.81,9.313,9.313,0,0,1-1.28,4.81Zm13.2-12.148h2.618v2.366c0,.98.252,1.232,1.134,1.232h1.022c.784,0,1.036-.434,1.106-2.128a2.581,2.581,0,0,1-.868-.392c-.028,1.442-.084,1.652-.35,1.652h-.756c-.252,0-.294-.056-.294-.378v-3.332H-67.36v1.4A3.313,3.313,0,0,1-68.97-6.72a3.543,3.543,0,0,1,.7.742,4.287,4.287,0,0,0,1.89-3.766Zm-2.506,4.55-1.442.434v-2.8h1.554V-8.96h-1.554V-11.7H-71.35V-8.96h-2.016v.966h2.016v3.108c-.84.252-1.6.476-2.2.63l.35,1.064c.56-.182,1.19-.406,1.848-.63V-.154c0,.21-.07.266-.252.266s-.756.014-1.386,0a3.505,3.505,0,0,1,.308.938A4.974,4.974,0,0,0-70.832.882c.378-.168.5-.462.5-1.036V-4.172l1.554-.546Zm6.006.882a7.577,7.577,0,0,1-2,2.7,7.406,7.406,0,0,1-1.876-2.7Zm.7-.994-.2.042h-5.81v.952h1.218l-.756.224a9.176,9.176,0,0,0,2.016,3.108A11.217,11.217,0,0,1-69.446.154a3.47,3.47,0,0,1,.56.924A12.108,12.108,0,0,0-64.924-.714a10.055,10.055,0,0,0,3.78,1.778A4.526,4.526,0,0,1-60.458.14a9.656,9.656,0,0,1-3.626-1.526A8.842,8.842,0,0,0-61.508-5.46Zm15.358,2.072h-2.534c.1-.714.182-1.54.28-2.492.014-.154.028-.49.028-.49h-6.72c.154-.658.322-1.372.476-2.086h7.014V-9.73H-55.1c.14-.658.266-1.316.378-1.9l-1.064-.1c-.364,2.086-.994,4.97-1.47,6.65l1.078.112c.056-.224.126-.462.182-.728h5.824c-.084.77-.154,1.442-.238,2.03h-8.848V-2.66h8.708A4.842,4.842,0,0,1-51.414-.1a1.008,1.008,0,0,1-.728.182c-.406,0-1.428-.014-2.506-.112A2.285,2.285,0,0,1-54.27.994a23.309,23.309,0,0,0,2.492.056A1.709,1.709,0,0,0-50.532.56C-50.1.126-49.776-.8-49.5-2.66h2.674Zm3.43.84v-1.4H-40.3v1.4ZM-40.3-6.412V-5.04h-3.094V-6.412Zm1.008-.9h-5.1V1.008h.994V-2H-40.3V-.14c0,.182-.056.238-.266.252-.182.014-.812.014-1.512-.014a3.765,3.765,0,0,1,.336.91A5.687,5.687,0,0,0-39.794.84c.378-.168.5-.434.5-.966Zm4.508,7.07c0,.21-.07.266-.308.28-.21.014-.966.014-1.82-.014a4.13,4.13,0,0,1,.378.994A6.838,6.838,0,0,0-34.32.84c.42-.168.56-.448.56-1.078v-7.35h-1.022Zm-1.848-6.93H-37.6v5.684h.966Zm.532-2.338c.406-.574.868-1.26,1.246-1.9l-1.092-.364A15.791,15.791,0,0,1-37.26-9.506h-4.172l.686-.266a9.509,9.509,0,0,0-1.4-1.96l-.952.364a9.6,9.6,0,0,1,1.274,1.862h-3.43v.952h12.418v-.952ZM-25.92-10.92l-1.3-.14a14.628,14.628,0,0,1-.364,3.052c-.84.07-1.666.14-2.128.154a12.328,12.328,0,0,1-1.246,0l.112,1.218c.364-.056.938-.126,1.26-.168.364-.042,1.036-.126,1.778-.2A22.412,22.412,0,0,1-30.764-.014l1.148.448a28.8,28.8,0,0,0,2.94-7.546c.616-.056,1.176-.1,1.512-.1.882,0,1.484.238,1.484,1.526A11.858,11.858,0,0,1-24.352-1.4a1.156,1.156,0,0,1-1.218.714,6.812,6.812,0,0,1-1.722-.28L-27.11.2a7.611,7.611,0,0,0,1.652.21A1.971,1.971,0,0,0-23.414-.77,13.3,13.3,0,0,0-22.6-5.824c0-1.89-1.022-2.366-2.268-2.366-.336,0-.924.042-1.582.1.154-.77.28-1.6.364-2C-26.032-10.36-25.976-10.668-25.92-10.92ZM-21.1-9.436l-1.022.462a16.448,16.448,0,0,1,2.492,5.068l1.092-.518A24.9,24.9,0,0,0-21.1-9.436Zm7.742-1.54-.28,1.064c1.064.294,4.1.91,5.432,1.092L-7.944-9.9A38.241,38.241,0,0,1-13.362-10.976Zm-.308,2.548-1.176-.154A49.99,49.99,0,0,1-15.56-2.9l1.036.252a2.211,2.211,0,0,1,.42-.7,5.487,5.487,0,0,1,4.34-1.876c1.428,0,2.464.8,2.464,1.918,0,1.918-2.156,3.192-6.58,2.646L-13.544.49c5.208.434,7.42-1.26,7.42-3.766,0-1.638-1.428-2.926-3.57-2.926a6.72,6.72,0,0,0-4.564,1.708C-14.1-5.39-13.866-7.476-13.67-8.428ZM8.66-4.9A5.073,5.073,0,0,0,3.3-10.052a5.967,5.967,0,0,0-6.118,5.7c0,2.31,1.246,3.738,2.492,3.738,1.3,0,2.408-1.47,3.262-4.354A27.54,27.54,0,0,0,3.774-9a3.9,3.9,0,0,1,3.738,4.06A4.228,4.228,0,0,1,3.956-.784a10.575,10.575,0,0,1-1.2.182L3.41.434C6.728,0,8.66-1.96,8.66-4.9Zm-10.388.448a4.883,4.883,0,0,1,4.34-4.536,22.874,22.874,0,0,1-.784,3.78C1.114-2.842.372-1.9-.286-1.9-.916-1.9-1.728-2.688-1.728-4.452Zm19.5,4.27c-.98,0-1.162-.168-1.162-.91v-2.03l6.4-.84-.14-.966-6.258.812V-6.3l5.46-.77-.14-.966-5.32.742v-2.17a30.492,30.492,0,0,0,4.844-1.344l-.882-.812a45.119,45.119,0,0,1-9.562,2.114,3.988,3.988,0,0,1,.308.9c1.372-.168,2.814-.392,4.228-.658V-7.14l-4.284.588.154.98,4.13-.574v2.17L10.83-3.36l.154.98,4.564-.6V-1.12c0,1.54.49,1.946,2.17,1.946h3.57c1.54,0,1.89-.616,2.072-2.548a3.311,3.311,0,0,1-1.022-.434c-.112,1.61-.252,1.974-1.078,1.974Zm18.7-7.294a10.9,10.9,0,0,1-4.662,1.75,3.485,3.485,0,0,1,.5.714,11.58,11.58,0,0,0,4.872-1.9Zm-.406-2.1a11.155,11.155,0,0,1-3.92,1.652,3.137,3.137,0,0,1,.532.658,12.233,12.233,0,0,0,4.06-1.778Zm-.5-2a8.357,8.357,0,0,1-3.584,1.666,5.3,5.3,0,0,1,.532.672,8.7,8.7,0,0,0,3.766-1.82ZM30.024-7.112l-.672.308c.182.182.378.392.574.6-.966.056-1.9.112-2.758.168.182-.336.378-.7.56-1.078ZM25.25-5.194c1.414-.084,3.318-.224,5.208-.378.182.224.336.448.448.616l.784-.378a13.877,13.877,0,0,0-1.54-1.778h1.666v-.672h-4.76v-.56h3.962v-.574H27.056v-.56H30.99v-.588H27.056v-.56h4.27v-.644h-5.18v3.486h-1.2v.672h1.806a11.761,11.761,0,0,1-.5,1.12c-.406.028-.784.042-1.12.056Zm8.512,3.206a6.664,6.664,0,0,1-2,1.232,6.919,6.919,0,0,1-2.212-1.232Zm.882-.756-.182.042H29.1q.252-.462.462-.924H37.08v-.8H29.9c.07-.2.14-.378.2-.574l-1.05-.238c-.07.266-.154.546-.252.812H24.816v.8h3.64A8.619,8.619,0,0,1,24.508.42a5.464,5.464,0,0,1,.8.672,9.307,9.307,0,0,0,3.276-2.968A6.9,6.9,0,0,0,30.654-.364,18.345,18.345,0,0,1,27.378.28a2.788,2.788,0,0,1,.5.812,18.136,18.136,0,0,0,3.906-.98,19.12,19.12,0,0,0,4.914.966,3.147,3.147,0,0,1,.546-.854,21.147,21.147,0,0,1-4.34-.63,6.4,6.4,0,0,0,2.324-1.96Zm9.436-8.694A11.985,11.985,0,0,1,43.044-9.59l.7.336c.364-.462.84-1.162,1.246-1.806ZM40.846-9.59a6.983,6.983,0,0,0-.91-1.792l-.784.322a7.157,7.157,0,0,1,.868,1.834Zm6.132,1.414h2.436A15.327,15.327,0,0,1,48.182-3.71a19.262,19.262,0,0,1-1.218-4.424ZM43.156-3.43a4.492,4.492,0,0,1-.882,1.876c-.546-.266-1.106-.518-1.666-.742.182-.364.392-.742.588-1.134Zm8.176-4.746v-.98h-4.06c.2-.77.378-1.582.518-2.408l-1.064-.154a13.757,13.757,0,0,1-2.282,6.272,5.358,5.358,0,0,1,.84.714,9.133,9.133,0,0,0,1.022-1.75,18.959,18.959,0,0,0,1.26,3.864,7.708,7.708,0,0,1-2.8,2.548,14.1,14.1,0,0,0-1.61-1.022A5.745,5.745,0,0,0,44.15-3.43h1.218V-4.3H41.63c.168-.336.322-.672.476-.98l-.238-.056h.6V-7.42c.672.5,1.554,1.176,1.918,1.512l.574-.742c-.378-.28-1.89-1.232-2.492-1.582V-8.3h2.842v-.854H42.47v-2.562H41.5v2.562h-2.87V-8.3h2.59A7.631,7.631,0,0,1,38.48-6.076a3.531,3.531,0,0,1,.574.784A9.1,9.1,0,0,0,41.5-7.35v1.932L41.14-5.5c-.168.378-.364.784-.574,1.2H38.55v.868h1.582c-.378.728-.756,1.442-1.064,1.974l.9.322.224-.392c.462.2.924.42,1.372.644A7.115,7.115,0,0,1,38.578.21a2.139,2.139,0,0,1,.476.854A7.813,7.813,0,0,0,42.47-.392,13.753,13.753,0,0,1,44.108.714L44.43.378a4.477,4.477,0,0,1,.448.728,9.228,9.228,0,0,0,3.248-2.688,7.525,7.525,0,0,0,2.618,2.646,3.351,3.351,0,0,1,.714-.882,6.89,6.89,0,0,1-2.7-2.744,16.278,16.278,0,0,0,1.736-5.614ZM64.66-4.9A5.073,5.073,0,0,0,59.3-10.052a5.967,5.967,0,0,0-6.118,5.7c0,2.31,1.246,3.738,2.492,3.738,1.3,0,2.408-1.47,3.262-4.354A27.54,27.54,0,0,0,59.774-9a3.9,3.9,0,0,1,3.738,4.06A4.228,4.228,0,0,1,59.956-.784a10.575,10.575,0,0,1-1.2.182L59.41.434C62.728,0,64.66-1.96,64.66-4.9Zm-10.388.448a4.883,4.883,0,0,1,4.34-4.536,22.874,22.874,0,0,1-.784,3.78c-.714,2.366-1.456,3.3-2.114,3.3C55.084-1.9,54.272-2.688,54.272-4.452ZM71.366-9.3a4.076,4.076,0,0,1-2.2,3.934,3.283,3.283,0,0,1,.756.7,4.857,4.857,0,0,0,2.422-4.62v-.084h1.932V-6.3c0,.154-.042.2-.224.21s-.784,0-1.484-.014a3.827,3.827,0,0,1,.294.91,6.833,6.833,0,0,0,1.946-.14c.392-.168.476-.434.476-.952v-3.08h3.78v-.952h-5.6V-11.7h-1.05v1.386h-5.53v.952h4.48Zm4.648,1.078a16.064,16.064,0,0,1,2.422,2.772l.868-.546a16.109,16.109,0,0,0-2.492-2.7Zm-7.028-.42a6.545,6.545,0,0,1-2.352,2.45,7.513,7.513,0,0,1,.714.616,8.442,8.442,0,0,0,2.618-2.786ZM70.9-3.514H75.5a7.712,7.712,0,0,1-2.464,1.96A7,7,0,0,1,70.82-3.43Zm5.46-.91-.2.042h-4.34a10.234,10.234,0,0,0,.728-.854l-1.12-.2A9.857,9.857,0,0,1,67-2.3a3.121,3.121,0,0,1,.658.756,13.8,13.8,0,0,0,2.436-1.344A8.366,8.366,0,0,0,72-1.078,21.229,21.229,0,0,1,66.648.2a2.652,2.652,0,0,1,.5.91A20.855,20.855,0,0,0,72.99-.49a16.172,16.172,0,0,0,5.768,1.582,3.417,3.417,0,0,1,.6-.952,17.753,17.753,0,0,1-5.292-1.19A8.155,8.155,0,0,0,77.05-3.962Zm7.994-7.07A15.483,15.483,0,0,1,80.3-5.852a6.948,6.948,0,0,1,.63,1.05,16.7,16.7,0,0,0,1.82-1.974V1.036H83.8V-8.246a18.8,18.8,0,0,0,1.554-2.912ZM88.726-.112c-.77,0-.924-.168-.924-.952v-4.06A32.945,32.945,0,0,0,92.73-8.176l-.742-.9a24.506,24.506,0,0,1-4.186,2.9v-5.208h-1.05v10.3c0,1.526.448,1.946,1.9,1.946h2.87c1.442,0,1.75-.8,1.918-3.066a3.342,3.342,0,0,1-.994-.448c-.1,2.03-.224,2.534-.994,2.534Z" transform="translate(1206 2149)" fill="#707070"/>
    <path id="Path_719" data-name="Path 719" d="M-5.99,1.97l.57-.27A9.218,9.218,0,0,1-6.7-3.11,9.244,9.244,0,0,1-5.42-7.92l-.57-.26A9.339,9.339,0,0,0-7.46-3.11,9.374,9.374,0,0,0-5.99,1.97ZM4.34-5.53v-.74H.38V-8.36H-.39v2.09H-4.32v.74H-.85A9.543,9.543,0,0,1-4.66-1.41a3,3,0,0,1,.53.6A10.415,10.415,0,0,0-.39-4.9v3.06H-2.34v.74H-.39V.76H.38V-1.1h1.9v-.74H.38V-4.9A9.862,9.862,0,0,0,4.13-.82a2.639,2.639,0,0,1,.55-.65A8.963,8.963,0,0,1,.84-5.53Zm1.65,7.5A9.3,9.3,0,0,0,7.47-3.11,9.262,9.262,0,0,0,5.99-8.18l-.56.26A9.339,9.339,0,0,1,6.71-3.11,9.313,9.313,0,0,1,5.43,1.7Z" transform="translate(1037 2168)" fill="#707070"/>
    <path id="Path_622" data-name="Path 622" d="M-1324.285-13934.8v167.994H-983.9" transform="translate(2372 16118.765)" fill="none" stroke="#707070" stroke-width="1"/>
    <g id="Group_380" data-name="Group 380" transform="translate(30 -187.545)">
      <line id="Line_44" data-name="Line 44" y1="3" transform="translate(1085.5 2539.5)" fill="none" stroke="#707070" stroke-width="1"/>
      <path id="Path_718" data-name="Path 718" d="M-1.895,0h4.02V-.76H.655V-7.34h-.7a4.416,4.416,0,0,1-1.52.53v.58h1.3V-.76h-1.63Z" transform="translate(1085 2552)" fill="#707070"/>
    </g>
    <g id="Group_381" data-name="Group 381" transform="translate(98 -187.545)">
      <line id="Line_44-2" data-name="Line 44" y1="3" transform="translate(1085.5 2539.5)" fill="none" stroke="#707070" stroke-width="1"/>
      <path id="Path_717" data-name="Path 717" d="M-2.335,0h4.61V-.79H.245c-.37,0-.82.04-1.2.07,1.72-1.63,2.87-3.12,2.87-4.58A2.011,2.011,0,0,0-.215-7.47a2.8,2.8,0,0,0-2.16,1.08l.53.52a2.053,2.053,0,0,1,1.52-.85,1.289,1.289,0,0,1,1.35,1.45c0,1.26-1.06,2.72-3.36,4.73Z" transform="translate(1085 2552)" fill="#707070"/>
    </g>
    <g id="Group_382" data-name="Group 382" transform="translate(166 -187.545)">
      <line id="Line_44-3" data-name="Line 44" y1="3" transform="translate(1085.5 2539.5)" fill="none" stroke="#707070" stroke-width="1"/>
      <path id="Path_716" data-name="Path 716" d="M-.135.13a2.134,2.134,0,0,0,2.35-2.09A1.886,1.886,0,0,0,.665-3.82v-.04a1.83,1.83,0,0,0,1.3-1.77A1.883,1.883,0,0,0-.165-7.47a2.935,2.935,0,0,0-2.05.88l.49.58A2.14,2.14,0,0,1-.2-6.72a1.125,1.125,0,0,1,1.24,1.16c0,.79-.52,1.4-2.03,1.4v.7c1.69,0,2.28.59,2.28,1.46A1.352,1.352,0,0,1-.2-.63a2.423,2.423,0,0,1-1.82-.84l-.46.6A3.035,3.035,0,0,0-.135.13Z" transform="translate(1085 2552)" fill="#707070"/>
    </g>
    <g id="Group_383" data-name="Group 383" transform="translate(234 -187.545)">
      <line id="Line_44-4" data-name="Line 44" y1="3" transform="translate(1085.5 2539.5)" fill="none" stroke="#707070" stroke-width="1"/>
      <path id="Path_715" data-name="Path 715" d="M-1.625-2.75l1.67-2.5c.21-.36.41-.72.59-1.08h.04c-.02.38-.05.97-.05,1.33v2.25ZM.625,0h.86V-2.02h.97v-.73h-.97V-7.34H.475l-3.05,4.72v.6h3.2Z" transform="translate(1085 2552)" fill="#707070"/>
    </g>
    <g id="Group_384" data-name="Group 384" transform="translate(302 -187.545)">
      <line id="Line_44-5" data-name="Line 44" y1="3" transform="translate(1085.5 2539.5)" fill="none" stroke="#707070" stroke-width="1"/>
      <path id="Path_714" data-name="Path 714" d="M-8.545.13a2.38,2.38,0,0,0,2.4-2.52,2.092,2.092,0,0,0-2.21-2.33,2.132,2.132,0,0,0-1.09.29l.18-2.12h2.77v-.79h-3.57L-10.3-3.9l.49.3a2,2,0,0,1,1.22-.43,1.483,1.483,0,0,1,1.52,1.67A1.584,1.584,0,0,1-8.625-.63a2.411,2.411,0,0,1-1.8-.81l-.45.6A3.114,3.114,0,0,0-8.545.13Zm5.33,1.84.57-.27a9.218,9.218,0,0,1-1.28-4.81,9.244,9.244,0,0,1,1.28-4.81l-.57-.26a9.339,9.339,0,0,0-1.47,5.07A9.374,9.374,0,0,0-3.215,1.97ZM.665-2.24V-4.22H2.9v1.98Zm6.61,0H3.655V-4.22h2.93v-.7H3.655V-6.44h3.16v-.72H.855c.16-.34.32-.7.46-1.05l-.75-.18a8.462,8.462,0,0,1-2.25,3.45,4.6,4.6,0,0,1,.64.47A9.239,9.239,0,0,0,.475-6.44H2.9v1.52H-.075v2.68h-1.64v.72H2.9V.77h.75V-1.52h3.62Zm1.49,4.21a9.3,9.3,0,0,0,1.48-5.08,9.262,9.262,0,0,0-1.48-5.07l-.56.26a9.339,9.339,0,0,1,1.28,4.81A9.313,9.313,0,0,1,8.205,1.7Z" transform="translate(1085 2552)" fill="#707070"/>
    </g>
    <g id="Group_376" data-name="Group 376" transform="translate(30.215 -65.332)">
      <path id="Path_713" data-name="Path 713" d="M-15.77,0h4.02V-.76h-1.47V-7.34h-.7a4.416,4.416,0,0,1-1.52.53v.58h1.3V-.76h-1.63Zm7.28.13a2.38,2.38,0,0,0,2.4-2.52A2.092,2.092,0,0,0-8.3-4.72a2.132,2.132,0,0,0-1.09.29l.18-2.12h2.77v-.79h-3.57l-.23,3.44.49.3a2,2,0,0,1,1.22-.43A1.483,1.483,0,0,1-7.01-2.36,1.584,1.584,0,0,1-8.57-.63a2.411,2.411,0,0,1-1.8-.81l-.45.6A3.114,3.114,0,0,0-8.49.13Zm5.72,0C-1.38.13-.49-1.14-.49-3.69s-.89-3.78-2.28-3.78S-5.06-6.24-5.06-3.69-4.17.13-2.77.13Zm0-.73c-.84,0-1.4-.93-1.4-3.09,0-2.14.56-3.05,1.4-3.05s1.39.91,1.39,3.05C-1.38-1.53-1.94-.6-2.77-.6Z" transform="translate(1013 2253)" fill="#707070"/>
      <line id="Line_45" data-name="Line 45" x2="3" transform="translate(1014.5 2249.5)" fill="none" stroke="#707070" stroke-width="1"/>
    </g>
    <g id="Group_377" data-name="Group 377" transform="translate(30.215 -9.332)">
      <path id="Path_712" data-name="Path 712" d="M-15.77,0h4.02V-.76h-1.47V-7.34h-.7a4.416,4.416,0,0,1-1.52.53v.58h1.3V-.76h-1.63Zm7.45.13c1.39,0,2.28-1.27,2.28-3.82s-.89-3.78-2.28-3.78-2.29,1.23-2.29,3.78S-9.72.13-8.32.13Zm0-.73c-.84,0-1.4-.93-1.4-3.09,0-2.14.56-3.05,1.4-3.05s1.39.91,1.39,3.05C-6.93-1.53-7.49-.6-8.32-.6Zm5.55.73C-1.38.13-.49-1.14-.49-3.69s-.89-3.78-2.28-3.78S-5.06-6.24-5.06-3.69-4.17.13-2.77.13Zm0-.73c-.84,0-1.4-.93-1.4-3.09,0-2.14.56-3.05,1.4-3.05s1.39.91,1.39,3.05C-1.38-1.53-1.94-.6-2.77-.6Z" transform="translate(1013 2253)" fill="#707070"/>
      <line id="Line_45-2" data-name="Line 45" x2="3" transform="translate(1014.5 2249.5)" fill="none" stroke="#707070" stroke-width="1"/>
    </g>
    <g id="Group_378" data-name="Group 378" transform="translate(30.215 46.668)">
      <path id="Path_711" data-name="Path 711" d="M-8.49.13a2.38,2.38,0,0,0,2.4-2.52A2.092,2.092,0,0,0-8.3-4.72a2.132,2.132,0,0,0-1.09.29l.18-2.12h2.77v-.79h-3.57l-.23,3.44.49.3a2,2,0,0,1,1.22-.43A1.483,1.483,0,0,1-7.01-2.36,1.584,1.584,0,0,1-8.57-.63a2.411,2.411,0,0,1-1.8-.81l-.45.6A3.114,3.114,0,0,0-8.49.13Zm5.72,0C-1.38.13-.49-1.14-.49-3.69s-.89-3.78-2.28-3.78S-5.06-6.24-5.06-3.69-4.17.13-2.77.13Zm0-.73c-.84,0-1.4-.93-1.4-3.09,0-2.14.56-3.05,1.4-3.05s1.39.91,1.39,3.05C-1.38-1.53-1.94-.6-2.77-.6Z" transform="translate(1013 2253)" fill="#707070"/>
      <line id="Line_45-3" data-name="Line 45" x2="3" transform="translate(1014.5 2249.5)" fill="none" stroke="#707070" stroke-width="1"/>
    </g>
    <g id="Group_379" data-name="Group 379" transform="translate(30.215 102.668)">
      <path id="Path_710" data-name="Path 710" d="M-2.77.13C-1.38.13-.49-1.14-.49-3.69s-.89-3.78-2.28-3.78S-5.06-6.24-5.06-3.69-4.17.13-2.77.13Zm0-.73c-.84,0-1.4-.93-1.4-3.09,0-2.14.56-3.05,1.4-3.05s1.39.91,1.39,3.05C-1.38-1.53-1.94-.6-2.77-.6Z" transform="translate(1013 2253)" fill="#707070"/>
      <line id="Line_45-4" data-name="Line 45" x2="3" transform="translate(1014.5 2249.5)" fill="none" stroke="#707070" stroke-width="1"/>
    </g>
    <path id="Path_623" data-name="Path 623" d="M-1318.24-13793.446l62.355-102.391,70.429,6.846,77.33,31.549,54.992,14.08,66.161,3.455" transform="translate(2372 16141.521)" fill="none" stroke="#01abab" stroke-width="3"/>
  </g>
</svg>
