<svg xmlns="http://www.w3.org/2000/svg" width="708" height="270.5" viewBox="0 0 708 270.5">
  <g id="Group_347" data-name="Group 347" transform="translate(-614 -7690)">
    <g id="Group_141" data-name="Group 141" transform="translate(-30 994)">
      <path id="Path_683" data-name="Path 683" d="M4.212-5.112V-6.48H8.28v1.368Zm0-3.618H8.28v1.35H4.212Zm9.666,0v1.35H9.594V-8.73Zm0,3.618H9.594V-6.48h4.284ZM9.594-.288V-1.836h6.3v-1.08h-6.3V-4.158h5.634V-9.7H9.594v-1.08H16.92v-1.1H9.594v-1.386a55.04,55.04,0,0,0,5.6-.648l-.72-1.044A93.1,93.1,0,0,1,2.448-14a3.572,3.572,0,0,1,.288,1.062c1.764-.036,3.672-.108,5.544-.234v1.3H1.1v1.1H8.28V-9.7H2.9v5.544H8.28v1.242H2.358v1.08H8.28V-.288H1.008V.81h16.02v-1.1Zm10.3,1.53A6.253,6.253,0,0,0,21.834-2.25l-1.152-.36a5.836,5.836,0,0,1-1.89,3.2Zm3.186-3.258A9.3,9.3,0,0,1,23.9.918L25.092.612a10.214,10.214,0,0,0-.9-2.9Zm3.06-.09A10.1,10.1,0,0,1,27.378.576l1.08-.36a9.857,9.857,0,0,0-1.3-2.628Zm.594-8.406a9.969,9.969,0,0,0,1.638-1.962h1.35a9.8,9.8,0,0,1,1.314,1.962ZM26.712-8.3H22.554V-9.5h4.158Zm0,2.142H22.554V-7.362h4.158Zm0,2.178H22.554V-5.22h4.158Zm8.28-9.576H29.016c.2-.414.4-.846.558-1.278l-1.26-.306a9.2,9.2,0,0,1-2.772,3.978,8.373,8.373,0,0,1,1.1.648H23.454l.954-.4a12.714,12.714,0,0,0-.846-1.566h3.186v-1.08h-4.7a11.181,11.181,0,0,0,.558-1.26l-1.26-.324A10.744,10.744,0,0,1,18.72-11.07a8.338,8.338,0,0,1,1.1.738,12.378,12.378,0,0,0,1.638-2.142h.738A12,12,0,0,1,23.2-10.512H21.258v7.524h11.9c-.18,2.016-.378,2.844-.63,3.1-.126.144-.288.162-.558.162-.252,0-.954,0-1.692-.072a3.182,3.182,0,0,1,.342,1.134,17.1,17.1,0,0,0,1.944,0A1.452,1.452,0,0,0,33.606.918c.432-.45.666-1.566.882-4.338l.054-.558H28.026V-5.22H32.94v-.936H28.026V-7.362H32.94V-8.3H28.026V-9.5h5.6v-1.008H31.086l1.116-.432a8.72,8.72,0,0,0-1.026-1.53h3.816ZM31.554-.666a8.553,8.553,0,0,0-1.584-2l-.9.414A8.332,8.332,0,0,1,30.582-.162ZM44.118-14.292l-1.584-.144a14.932,14.932,0,0,1-.558,3.114c-.7.054-1.386.09-2.034.09a16.979,16.979,0,0,1-2.2-.126l.09,1.35c.684.036,1.44.054,2.106.054.522,0,1.062-.018,1.6-.054a26.637,26.637,0,0,1-3.852,6.732l1.386.72A31.836,31.836,0,0,0,43-10.152a24.411,24.411,0,0,0,3.276-.666l-.036-1.35a17.4,17.4,0,0,1-2.826.666C43.7-12.546,43.956-13.644,44.118-14.292ZM43.128-1.8c0-.828.9-1.44,2.214-1.44a6.241,6.241,0,0,1,1.854.27c.018.306.018.576.018.81,0,.99-.5,1.782-2,1.782C43.812-.378,43.128-.954,43.128-1.8Zm5.238-6.93h-1.4c.036,1.278.126,3.06.2,4.536a8.033,8.033,0,0,0-1.764-.18c-2.034,0-3.6,1.044-3.6,2.7C41.8.108,43.416.918,45.4.918c2.232,0,3.15-1.17,3.15-2.61,0-.216,0-.468-.018-.756a13.454,13.454,0,0,1,2.916,2.07L52.218-1.6a12.35,12.35,0,0,0-3.744-2.232c-.036-1.116-.108-2.286-.126-2.952C48.33-7.434,48.33-7.992,48.366-8.73Zm3.6.486.81-1.188a27.189,27.189,0,0,0-4.194-2.394l-.738,1.1A21.078,21.078,0,0,1,51.966-8.244Zm7.542,2.988v1.692h-2.7V-5.256Zm3.906,1.692H60.732V-5.256h2.682ZM60.732-.72v-1.8h2.682v1.8Zm-3.924,0v-1.8h2.7v1.8ZM55.584,1.332h1.224V.342h6.606v.792h1.278V-6.318H55.584ZM62.658-8.694h-5.22V-10.71h5.22Zm-6.444-3.1v4.176h7.722V-11.79ZM55.1-13.068h9.864v-1.17H55.1Zm12.222.18H66.132v9.9H67.32Zm1.926-1.818V-.36c0,.306-.126.414-.45.414C68.508.072,67.482.09,66.33.036a5.062,5.062,0,0,1,.45,1.332,8.69,8.69,0,0,0,3.006-.252c.54-.216.756-.612.756-1.476V-14.706ZM85.482-8.118a12.468,12.468,0,0,1-3.294,4.932A12.8,12.8,0,0,1,79.02-8.118Zm.846-1.35-.27.072H76.446v-3.222h11.79v-1.3h-13.1v4.86c0,2.844-.2,6.8-2.16,9.594a5.3,5.3,0,0,1,1.134.792c1.836-2.664,2.268-6.5,2.322-9.45h1.188A15.389,15.389,0,0,0,81.126-2.3,15.311,15.311,0,0,1,75.87.162a4.932,4.932,0,0,1,.774,1.206A16.935,16.935,0,0,0,82.17-1.386,14.912,14.912,0,0,0,88.056,1.4a4.575,4.575,0,0,1,.9-1.224A14.512,14.512,0,0,1,83.25-2.3a14.293,14.293,0,0,0,4-6.786Zm20.736-2v-1.278h-6.858v-2.3H98.838v2.3H92.232V-8.1c0,2.556-.144,6.156-1.6,8.73a4.983,4.983,0,0,1,1.134.756c1.53-2.718,1.782-6.75,1.782-9.486v-3.366Zm-4.1,3.24a21.977,21.977,0,0,0-4.176-2.646l-.918.864a22.288,22.288,0,0,1,4.14,2.772ZM94.752-.342a15.093,15.093,0,0,0,1.62-5.724l-1.224-.27A13.527,13.527,0,0,1,93.564-.882ZM99.738-.2c-.684,0-.828-.108-.828-.72V-7.866H97.6V-.918c0,1.494.414,1.944,1.98,1.944H102.2c1.53,0,1.872-.792,2.016-3.762a4.272,4.272,0,0,1-1.206-.54c-.054,2.628-.162,3.078-.9,3.078Zm3.834-6.048A20.356,20.356,0,0,1,106.11-.324l1.278-.558a19.393,19.393,0,0,0-2.628-5.85Z" transform="translate(936 6787)" fill="#707070"/>
      <path id="Path_682" data-name="Path 682" d="M35.784,1.386c7.56,0,13.734-3.024,19.026-9.072C63.63-17.766,65.52-31,65.52-41.958c0-10.836-1.89-24.318-10.71-34.4-5.292-6.048-11.592-9.072-19.026-9.072S22.05-82.4,16.758-76.356c-8.82,10.08-10.71,23.562-10.71,34.4,0,10.962,1.89,24.192,10.71,34.272C22.05-1.638,28.224,1.386,35.784,1.386Zm0-75.474c3.276,0,7.686,1.386,11.34,6.93,4.662,6.93,5.8,17.766,5.8,25.074,0,7.434-1.134,18.144-5.8,25.2-3.654,5.544-8.064,6.93-11.34,6.93s-7.686-1.386-11.34-6.93c-4.662-7.056-5.8-17.766-5.8-25.2,0-7.308,1.134-18.144,5.8-25.074C28.1-72.7,32.508-74.088,35.784-74.088ZM78.044.482Q82.1-5.455,94.473-24.789l.27-.056,1.688.074.186-.019L80.165.482a3.88,3.88,0,0,1-.546,0L78.47.427Zm-5.27-18.536a7.108,7.108,0,0,1,.186-1.8,12.8,12.8,0,0,1,.649-2,5.344,5.344,0,0,1,.983-1.41,5.215,5.215,0,0,1,1.457-.983,3.924,3.924,0,0,1,1.568-.315A4.293,4.293,0,0,1,81-22.878a7.019,7.019,0,0,1,1.419,4.657,9.717,9.717,0,0,1-.408,2.95,6.166,6.166,0,0,1-1.15,2.152,4.268,4.268,0,0,1-1.28,1.058,3.5,3.5,0,0,1-1.6.5,5.36,5.36,0,0,1-2.412-.427A5.134,5.134,0,0,1,73.6-14.157,8.192,8.192,0,0,1,72.774-18.054ZM76-18.573q.056,1.3.056,1.781a11.874,11.874,0,0,0,.241,3.229l.594.761a1.026,1.026,0,0,0,.612.186,1.3,1.3,0,0,0,.918-.4,3.085,3.085,0,0,0,.6-1.716,19.543,19.543,0,0,0,.186-2.728L79.175-18.7v-1.336a5.544,5.544,0,0,0-.538-2.876,1.148,1.148,0,0,0-1-.557,1.277,1.277,0,0,0-.918.39,3.026,3.026,0,0,0-.6,1.6Q76.04-21.022,76-18.573ZM92.331-6.29a6.884,6.884,0,0,1,.186-1.781,12.8,12.8,0,0,1,.649-2.022,5.344,5.344,0,0,1,.983-1.41,5.042,5.042,0,0,1,1.457-.974,4.026,4.026,0,0,1,1.568-.306A4.311,4.311,0,0,1,100.55-11.1a6.95,6.95,0,0,1,1.429,4.648,9.717,9.717,0,0,1-.408,2.95A6,6,0,0,1,100.4-1.354,4.06,4.06,0,0,1,99.14-.3a3.518,3.518,0,0,1-1.614.5,5.308,5.308,0,0,1-2.394-.427,5.036,5.036,0,0,1-1.985-2.171A8.27,8.27,0,0,1,92.331-6.29Zm3.229-.52q.056,1.3.056,1.781A10.844,10.844,0,0,0,95.856-1.8l.594.761a1.026,1.026,0,0,0,.612.186,1.273,1.273,0,0,0,.909-.4,3.145,3.145,0,0,0,.594-1.716A19.543,19.543,0,0,0,98.751-5.7l-.019-1.243V-8.275a5.544,5.544,0,0,0-.538-2.876,1.148,1.148,0,0,0-1-.557,1.308,1.308,0,0,0-.928.39,2.966,2.966,0,0,0-.612,1.6Q95.578-9.259,95.559-6.81Z" transform="translate(951 6894)" fill="#01abab"/>
      <circle id="Ellipse_4" data-name="Ellipse 4" cx="120" cy="120" r="120" transform="translate(870 6717)" fill="none" stroke="#01abab" stroke-width="10"/>
      <path id="Path_291" data-name="Path 291" d="M120,0A119.879,119.879,0,1,1,81.406,6.341" transform="translate(870.5 6717)" fill="none" stroke="#7fd5d5" stroke-linecap="round" stroke-width="19"/>
    </g>
    <g id="Group_295" data-name="Group 295" transform="translate(-43 27)">
      <rect id="Rectangle_145" data-name="Rectangle 145" width="119" height="103" rx="5" transform="translate(657 7743)" fill="#fff"/>
      <g id="Group_293" data-name="Group 293" transform="translate(-76 174)">
        <path id="Path_681" data-name="Path 681" d="M2.58-7.8H4.66v1.82H2.58Zm0-2.86H4.66v1.8H2.58Zm5.3,1.8H5.76v-1.8H7.88Zm0,2.88H5.76V-7.8H7.88Zm8.76-8.44a10.378,10.378,0,0,1-2.42,3.48,10.721,10.721,0,0,1-2.32-3.48ZM9.52-1.94V-3.26H5.88v-1.6H9.06V-7.82a5.974,5.974,0,0,1,.7,1.1A14.767,14.767,0,0,0,14.22-9.1a12.23,12.23,0,0,0,4.3,2.32A6.1,6.1,0,0,1,19.44-8a11.526,11.526,0,0,1-4.16-2.02,12.437,12.437,0,0,0,3.2-5.4l-.92-.38-.26.06H9.76v1.32h1.98l-1.1.3a12.857,12.857,0,0,0,2.56,4.06,13.272,13.272,0,0,1-4.14,2.1v-3.82H5.88V-13.3H9.36v-1.28H5.88v-2.16H4.56v2.16H1.1v1.28H4.56v1.52H1.44v6.92H4.56v1.6H.86v1.32h3.7v3.5H5.88v-3.5Zm5.42-1.84h3.38V-5.06H14.94V-7.64H13.46v2.58H10.12v1.28h3.34V-.32H8.88V1.02H19.22V-.32H14.94ZM38.8-13.4v-1.36H31.34v-1.96H29.82v1.96H22.48v5.72c0,2.88-.14,6.92-1.78,9.76a5.749,5.749,0,0,1,1.22.84c1.72-3.02,1.96-7.52,1.96-10.6V-13.4ZM34-9.94v2.1H29.16v-2.1Zm1.44,3.3v-3.3h3.22v-1.22H35.44V-12.9H34v1.74H29.16V-12.9H27.74v1.74H24.56v1.22h3.18v3.3Zm-.32,2.48a9.192,9.192,0,0,1-3.38,2.54A8.959,8.959,0,0,1,28.5-4.16Zm1.24-1.28-.26.06H24.8v1.22h3.08l-.8.3A10.063,10.063,0,0,0,30.22-1,27.13,27.13,0,0,1,24.06.28a5.139,5.139,0,0,1,.62,1.24A27.089,27.089,0,0,0,31.72-.2,22.814,22.814,0,0,0,38.3,1.56,4.409,4.409,0,0,1,39.16.3,25.432,25.432,0,0,1,33.28-.96,9.879,9.879,0,0,0,37.3-4.94Zm9.76-.4v1.88h-3V-5.84Zm4.34,1.88H47.48V-5.84h2.98ZM47.48-.8v-2h2.98v2Zm-4.36,0v-2h3v2ZM41.76,1.48h1.36V.38h7.34v.88h1.42V-7.02H41.76ZM49.62-9.66h-5.8V-11.9h5.8ZM42.46-13.1v4.64h8.58V-13.1Zm-1.24-1.42H52.18v-1.3H41.22Zm13.58.2H53.48v11H54.8Zm2.14-2.02V-.4c0,.34-.14.46-.5.46C56.12.08,54.98.1,53.7.04a5.624,5.624,0,0,1,.5,1.48,9.656,9.656,0,0,0,3.34-.28c.6-.24.84-.68.84-1.64V-16.34ZM74.98-9.02a13.854,13.854,0,0,1-3.66,5.48A14.227,14.227,0,0,1,67.8-9.02Zm.94-1.5-.3.08H64.94v-3.58h13.1v-1.44H63.48v5.4c0,3.16-.22,7.56-2.4,10.66a5.884,5.884,0,0,1,1.26.88c2.04-2.96,2.52-7.22,2.58-10.5h1.32a17.1,17.1,0,0,0,3.9,6.46A17.012,17.012,0,0,1,64.3.18a5.481,5.481,0,0,1,.86,1.34A18.817,18.817,0,0,0,71.3-1.54a16.569,16.569,0,0,0,6.54,3.1,5.084,5.084,0,0,1,1-1.36A16.125,16.125,0,0,1,72.5-2.56a15.881,15.881,0,0,0,4.44-7.54Zm23.04-2.22v-1.42H91.34v-2.56H89.82v2.56H82.48V-9c0,2.84-.16,6.84-1.78,9.7a5.537,5.537,0,0,1,1.26.84c1.7-3.02,1.98-7.5,1.98-10.54v-3.74ZM94.4-9.14a24.419,24.419,0,0,0-4.64-2.94l-1.02.96a24.765,24.765,0,0,1,4.6,3.08ZM85.28-.38c1.02-1.58,1.52-4.18,1.8-6.36l-1.36-.3A15.03,15.03,0,0,1,83.96-.98Zm5.54.16c-.76,0-.92-.12-.92-.8V-8.74H88.44v7.72c0,1.66.46,2.16,2.2,2.16h2.92c1.7,0,2.08-.88,2.24-4.18a4.747,4.747,0,0,1-1.34-.6c-.06,2.92-.18,3.42-1,3.42Zm4.26-6.72A22.618,22.618,0,0,1,97.9-.36l1.42-.62a21.547,21.547,0,0,0-2.92-6.5Z" transform="translate(743 7662)" fill="#707070"/>
        <path id="Path_680" data-name="Path 680" d="M2.535-4.667A7.638,7.638,0,0,1,.455-1.625a4.842,4.842,0,0,1,.767.559A10.132,10.132,0,0,0,3.51-4.407Zm9.711-.962v-.923H6.968V-8.4h4.264v-.923H6.968v-1.534H5.993v1.534H2.08V-8.4H5.993v1.846H.793v.923H4.706v.754A5.616,5.616,0,0,1,2.106.364a3.739,3.739,0,0,1,.728.7A6.441,6.441,0,0,0,5.668-4.862v-.767H7.605V-.208c0,.169-.052.221-.247.221s-.884.026-1.612,0A4.1,4.1,0,0,1,6.1.975,6.272,6.272,0,0,0,8.086.806c.4-.169.52-.455.52-1V-5.629ZM9.516-4.342a18.161,18.161,0,0,1,2.106,3.315l.923-.442a18.637,18.637,0,0,0-2.171-3.263ZM15.9-9.529l.052,1.053c.312-.026.676-.065.962-.078.6-.039,2.184-.1,2.7-.13-.4.806-.9,1.937-1.352,2.964-2.561.065-4.329,1.534-4.329,3.445a1.657,1.657,0,0,0,1.69,1.781,1.829,1.829,0,0,0,1.638-.9A28.115,28.115,0,0,0,18.9-4.8,9.347,9.347,0,0,1,22.62-3.6,5.578,5.578,0,0,1,19.214.065l.858.715a6.134,6.134,0,0,0,3.419-3.861,13.568,13.568,0,0,1,1.352,1.027l.481-1.118a16.99,16.99,0,0,0-1.573-1,17.435,17.435,0,0,0,.273-2.509L22.971-6.8c.026.364.013.806,0,1.2-.026.312-.052.637-.1.962a11.7,11.7,0,0,0-3.575-1.04c.546-1.209,1.118-2.535,1.482-3.12a5.449,5.449,0,0,1,.338-.429l-.65-.533a2.687,2.687,0,0,1-.65.143c-.546.039-2.249.13-2.938.13C16.614-9.49,16.237-9.5,15.9-9.529ZM14.885-2.4c0-1.118,1.079-2.262,2.977-2.4a17.356,17.356,0,0,1-1.417,2.834.936.936,0,0,1-.78.455A.8.8,0,0,1,14.885-2.4ZM32.5-6.318A1.37,1.37,0,0,0,31.122-4.94,1.37,1.37,0,0,0,32.5-3.562,1.37,1.37,0,0,0,33.878-4.94,1.37,1.37,0,0,0,32.5-6.318ZM44.694-10.14l-1.209-.13a13.583,13.583,0,0,1-.338,2.834c-.78.065-1.547.13-1.976.143a11.448,11.448,0,0,1-1.157,0l.1,1.131c.338-.052.871-.117,1.17-.156.338-.039.962-.117,1.651-.182A20.811,20.811,0,0,1,40.2-.013L41.262.4A26.741,26.741,0,0,0,43.992-6.6c.572-.052,1.092-.091,1.4-.091.819,0,1.378.221,1.378,1.417A11.011,11.011,0,0,1,46.15-1.3a1.074,1.074,0,0,1-1.131.663,6.326,6.326,0,0,1-1.6-.26L43.589.182a7.068,7.068,0,0,0,1.534.195,1.831,1.831,0,0,0,1.9-1.092,12.352,12.352,0,0,0,.754-4.693c0-1.755-.949-2.2-2.106-2.2-.312,0-.858.039-1.469.091.143-.715.26-1.482.338-1.859C44.59-9.62,44.642-9.906,44.694-10.14Zm4.472,1.378-.949.429a15.273,15.273,0,0,1,2.314,4.706l1.014-.481A23.121,23.121,0,0,0,49.166-8.762Zm10.5-1.547-1.079.026a5.159,5.159,0,0,1,.208.806c.052.247.1.6.169,1.027A5.834,5.834,0,0,0,54.652-4.8a19.8,19.8,0,0,1,.364-3.835,5.838,5.838,0,0,1,.169-.611l-1.118-.091a3.159,3.159,0,0,1-.013.6,37.139,37.139,0,0,0-.338,3.978,13.5,13.5,0,0,0,.416,3.367l.91-.143a8.858,8.858,0,0,1-.169-1.222,3.2,3.2,0,0,1,.078-.806,5.417,5.417,0,0,1,4.108-4.017c.052.611.091,1.313.091,2.028a10.015,10.015,0,0,1-.416,3.094,3.308,3.308,0,0,1-1.911-1.859l-.624.728a4.041,4.041,0,0,0,2.158,2A4.268,4.268,0,0,1,56.537.247L57.5.832a5.16,5.16,0,0,0,1.872-2.171c.143.013.286.026.429.026,2.678,0,3.991-1.638,3.991-3.77,0-1.937-1.443-3.458-3.861-3.458C59.852-9.269,59.748-9.893,59.67-10.309Zm.442,4.758c0-.715-.039-1.443-.091-2.106A2.556,2.556,0,0,1,62.8-5.044a2.686,2.686,0,0,1-3,2.756h-.078A11.763,11.763,0,0,0,60.112-5.551ZM67.9-9.529l.052,1.053c.312-.026.676-.065.962-.078.6-.039,2.184-.1,2.7-.13-.4.806-.9,1.937-1.352,2.964-2.561.065-4.329,1.534-4.329,3.445a1.657,1.657,0,0,0,1.69,1.781,1.829,1.829,0,0,0,1.638-.9A28.113,28.113,0,0,0,70.9-4.8,9.347,9.347,0,0,1,74.62-3.6,5.578,5.578,0,0,1,71.214.065l.858.715a6.134,6.134,0,0,0,3.419-3.861,13.567,13.567,0,0,1,1.352,1.027l.481-1.118a16.99,16.99,0,0,0-1.573-1,17.436,17.436,0,0,0,.273-2.509L74.971-6.8c.026.364.013.806,0,1.2-.026.312-.052.637-.1.962a11.7,11.7,0,0,0-3.575-1.04c.546-1.209,1.118-2.535,1.482-3.12a5.449,5.449,0,0,1,.338-.429l-.65-.533a2.687,2.687,0,0,1-.65.143c-.546.039-2.249.13-2.938.13C68.614-9.49,68.237-9.5,67.9-9.529ZM66.885-2.4c0-1.118,1.079-2.262,2.977-2.4a17.356,17.356,0,0,1-1.417,2.834.936.936,0,0,1-.78.455A.8.8,0,0,1,66.885-2.4ZM81.042-8.97A8.494,8.494,0,0,1,81.6-7.5l.845-.312a5.4,5.4,0,0,0-.455-1.157h2.353v-.819h-3.38a8.074,8.074,0,0,0,.4-.91l-.91-.234a8.454,8.454,0,0,1-1.976,3.016,6.134,6.134,0,0,1,.793.559A8.326,8.326,0,0,0,80.5-8.97Zm-.1,7.306A9.426,9.426,0,0,1,83.122.325l.741-.611A9.194,9.194,0,0,0,81.64-2.21Zm9.438-2.548v-.845H84.968V-6.214h4.186v-.819H84.968v-.9H84.76a7.353,7.353,0,0,0,.806-1.04h.884a5.967,5.967,0,0,1,.91,1.547l.832-.364a6.81,6.81,0,0,0-.715-1.183h2.769v-.819H86.034a8.365,8.365,0,0,0,.39-.936l-.923-.208a6.621,6.621,0,0,1-1.859,2.808c.078.052.221.13.351.221v.871H79.937v.819h4.056v1.157h-5.33v.845h7.969v1.144H79.079v.845h7.553V-.156c0,.182-.052.234-.286.234-.234.026-1,.026-1.885,0a3.382,3.382,0,0,1,.351.91A8.431,8.431,0,0,0,87.035.832c.442-.156.572-.4.572-.975v-2.08h2.431v-.845H87.607V-4.212ZM102.8-4.55a4.71,4.71,0,0,0-4.979-4.784,5.541,5.541,0,0,0-5.681,5.291c0,2.145,1.157,3.471,2.314,3.471,1.209,0,2.236-1.365,3.029-4.043a25.573,25.573,0,0,0,.78-3.744,3.62,3.62,0,0,1,3.471,3.77,3.926,3.926,0,0,1-3.3,3.861,9.82,9.82,0,0,1-1.118.169L97.929.4C101.01,0,102.8-1.82,102.8-4.55Zm-9.646.416a4.535,4.535,0,0,1,4.03-4.212,21.24,21.24,0,0,1-.728,3.51c-.663,2.2-1.352,3.068-1.963,3.068C93.912-1.768,93.158-2.5,93.158-4.134Z" transform="translate(741 7636)" fill="#707070"/>
        <path id="Path_679" data-name="Path 679" d="M9.5,0h3.876V-25.346H7.22L5.092-21.774H9.5ZM26.046-15.479a3.682,3.682,0,0,0-3.7,3.611,3.682,3.682,0,0,0,3.7,3.611,3.682,3.682,0,0,0,3.7-3.611A3.682,3.682,0,0,0,26.046-15.479Zm0,5.566a1.907,1.907,0,0,1-1.909-1.955,1.907,1.907,0,0,1,1.909-1.955,1.907,1.907,0,0,1,1.909,1.955A1.907,1.907,0,0,1,26.046-9.913Zm-.069,9.5,1.081.667,8.763-15.226-1.081-.621Zm9.775-6.647a3.682,3.682,0,0,0-3.7,3.611,3.682,3.682,0,0,0,3.7,3.611,3.682,3.682,0,0,0,3.7-3.611A3.682,3.682,0,0,0,35.752-7.061Zm0,5.566A1.907,1.907,0,0,1,33.843-3.45a1.907,1.907,0,0,1,1.909-1.955A1.907,1.907,0,0,1,37.661-3.45,1.907,1.907,0,0,1,35.752-1.5Z" transform="translate(773 7610)" fill="#01abab"/>
      </g>
    </g>
    <circle id="Ellipse_13" data-name="Ellipse 13" cx="4.5" cy="4.5" r="4.5" transform="translate(928 7690)" fill="#01abab"/>
    <circle id="Ellipse_39" data-name="Ellipse 39" cx="4.5" cy="4.5" r="4.5" transform="translate(1103 7817)" fill="#7fd5d5"/>
    <g id="Group_296" data-name="Group 296" transform="translate(10 27)">
      <rect id="Rectangle_144" data-name="Rectangle 144" width="119" height="103" rx="5" transform="translate(1193 7743)" fill="#fff"/>
      <g id="Group_294" data-name="Group 294" transform="translate(91 144)">
        <path id="Path_685" data-name="Path 685" d="M6.12-5.84v1.88h-3V-5.84Zm4.34,1.88H7.48V-5.84h2.98ZM7.48-.8v-2h2.98v2ZM3.12-.8v-2h3v2ZM1.76,1.48H3.12V.38h7.34v.88h1.42V-7.02H1.76ZM9.62-9.66H3.82V-11.9h5.8ZM2.46-13.1v4.64h8.58V-13.1ZM1.22-14.52H12.18v-1.3H1.22Zm13.58.2H13.48v11H14.8Zm2.14-2.02V-.4c0,.34-.14.46-.5.46C16.12.08,14.98.1,13.7.04a5.624,5.624,0,0,1,.5,1.48,9.656,9.656,0,0,0,3.34-.28c.6-.24.84-.68.84-1.64V-16.34ZM34.98-9.02a13.854,13.854,0,0,1-3.66,5.48A14.227,14.227,0,0,1,27.8-9.02Zm.94-1.5-.3.08H24.94v-3.58h13.1v-1.44H23.48v5.4c0,3.16-.22,7.56-2.4,10.66a5.884,5.884,0,0,1,1.26.88c2.04-2.96,2.52-7.22,2.58-10.5h1.32a17.1,17.1,0,0,0,3.9,6.46A17.012,17.012,0,0,1,24.3.18a5.481,5.481,0,0,1,.86,1.34A18.817,18.817,0,0,0,31.3-1.54a16.569,16.569,0,0,0,6.54,3.1,5.084,5.084,0,0,1,1-1.36A16.124,16.124,0,0,1,32.5-2.56a15.881,15.881,0,0,0,4.44-7.54Zm23.04-2.22v-1.42H51.34v-2.56H49.82v2.56H42.48V-9c0,2.84-.16,6.84-1.78,9.7a5.537,5.537,0,0,1,1.26.84c1.7-3.02,1.98-7.5,1.98-10.54v-3.74ZM54.4-9.14a24.419,24.419,0,0,0-4.64-2.94l-1.02.96a24.765,24.765,0,0,1,4.6,3.08ZM45.28-.38c1.02-1.58,1.52-4.18,1.8-6.36l-1.36-.3A15.03,15.03,0,0,1,43.96-.98Zm5.54.16c-.76,0-.92-.12-.92-.8V-8.74H48.44v7.72c0,1.66.46,2.16,2.2,2.16h2.92c1.7,0,2.08-.88,2.24-4.18a4.747,4.747,0,0,1-1.34-.6c-.06,2.92-.18,3.42-1,3.42Zm4.26-6.72A22.618,22.618,0,0,1,57.9-.36l1.42-.62a21.547,21.547,0,0,0-2.92-6.5Zm13.94-8.94-1.76-.16a16.591,16.591,0,0,1-.62,3.46c-.78.06-1.54.1-2.26.1a18.865,18.865,0,0,1-2.44-.14l.1,1.5c.76.04,1.6.06,2.34.06.58,0,1.18-.02,1.78-.06a29.6,29.6,0,0,1-4.28,7.48l1.54.8a35.374,35.374,0,0,0,4.36-8.44,27.123,27.123,0,0,0,3.64-.74l-.04-1.5a19.328,19.328,0,0,1-3.14.74C68.56-13.94,68.84-15.16,69.02-15.88ZM67.92-2c0-.92,1-1.6,2.46-1.6a6.934,6.934,0,0,1,2.06.3c.02.34.02.64.02.9,0,1.1-.56,1.98-2.22,1.98C68.68-.42,67.92-1.06,67.92-2Zm5.82-7.7H72.18c.04,1.42.14,3.4.22,5.04a8.925,8.925,0,0,0-1.96-.2c-2.26,0-4,1.16-4,3,0,1.98,1.8,2.88,4,2.88,2.48,0,3.5-1.3,3.5-2.9,0-.24,0-.52-.02-.84a14.949,14.949,0,0,1,3.24,2.3l.86-1.36a13.722,13.722,0,0,0-4.16-2.48c-.04-1.24-.12-2.54-.14-3.28C73.7-8.26,73.7-8.88,73.74-9.7Zm4,.54.9-1.32a30.21,30.21,0,0,0-4.66-2.66l-.82,1.22A23.42,23.42,0,0,1,77.74-9.16Zm9.06-6.42-2.02-.02a10.555,10.555,0,0,1,.16,2.04c0,2.1-.2,7.16-.2,10.12,0,3.26,1.98,4.46,4.86,4.46A10.052,10.052,0,0,0,97.96-3.4L96.82-4.76c-1.44,2.08-3.5,4.14-7.16,4.14-1.9,0-3.28-.78-3.28-2.98,0-2.98.14-7.7.24-9.96A17.217,17.217,0,0,1,86.8-15.58Z" transform="translate(1112 7683)" fill="#707070"/>
        <path id="Path_684" data-name="Path 684" d="M8.36.874,15.39-8.17a25.473,25.473,0,0,0,3.078-4.522,10,10,0,0,0,1.216-4.826,7.982,7.982,0,0,0-2.2-5.738,8.7,8.7,0,0,0-6.536-2.508A8.717,8.717,0,0,0,4.408-23.18,9.056,9.056,0,0,0,1.9-16.834a7.88,7.88,0,0,0,2.318,5.776A8.155,8.155,0,0,0,10.146-8.7a5.8,5.8,0,0,0,1.368-.152L5.548-1.216Zm2.394-12.882a5.331,5.331,0,0,1-3.572-1.406A5.381,5.381,0,0,1,5.7-17.176,5.3,5.3,0,0,1,7.182-20.9a5.458,5.458,0,0,1,3.61-1.444A5.357,5.357,0,0,1,14.4-20.9a5.022,5.022,0,0,1,1.482,3.61A5.589,5.589,0,0,1,14.4-13.528,5.09,5.09,0,0,1,10.754-12.008ZM29.944.874l7.03-9.044a25.473,25.473,0,0,0,3.078-4.522,10,10,0,0,0,1.216-4.826,7.982,7.982,0,0,0-2.2-5.738,8.7,8.7,0,0,0-6.536-2.508,8.717,8.717,0,0,0-6.536,2.584,9.056,9.056,0,0,0-2.508,6.346A7.88,7.88,0,0,0,25.8-11.058,8.155,8.155,0,0,0,31.73-8.7,5.8,5.8,0,0,0,33.1-8.854L27.132-1.216Zm2.394-12.882a5.331,5.331,0,0,1-3.572-1.406,5.381,5.381,0,0,1-1.482-3.762A5.3,5.3,0,0,1,28.766-20.9a5.458,5.458,0,0,1,3.61-1.444,5.357,5.357,0,0,1,3.61,1.444,5.022,5.022,0,0,1,1.482,3.61,5.589,5.589,0,0,1-1.482,3.762A5.09,5.09,0,0,1,32.338-12.008ZM47.63-15.479a3.682,3.682,0,0,0-3.7,3.611,3.682,3.682,0,0,0,3.7,3.611,3.682,3.682,0,0,0,3.7-3.611A3.682,3.682,0,0,0,47.63-15.479Zm0,5.566a1.907,1.907,0,0,1-1.909-1.955,1.907,1.907,0,0,1,1.909-1.955,1.907,1.907,0,0,1,1.909,1.955A1.907,1.907,0,0,1,47.63-9.913Zm-.069,9.5,1.081.667L57.4-14.973l-1.081-.621Zm9.775-6.647a3.682,3.682,0,0,0-3.7,3.611,3.682,3.682,0,0,0,3.7,3.611,3.682,3.682,0,0,0,3.7-3.611A3.682,3.682,0,0,0,57.336-7.061Zm0,5.566A1.907,1.907,0,0,1,55.427-3.45a1.907,1.907,0,0,1,1.909-1.955A1.907,1.907,0,0,1,59.245-3.45,1.907,1.907,0,0,1,57.336-1.5Z" transform="translate(1131 7649)" fill="#7fd5d5"/>
      </g>
    </g>
    <path id="Path_474" data-name="Path 474" d="M-21640-8489.5h-131.227v128.059h-64.416" transform="translate(22568 16184)" fill="none" stroke="#ccc" stroke-width="1"/>
    <line id="Line_33" data-name="Line 33" x2="96" transform="translate(1107.5 7821.5)" fill="none" stroke="#ccc" stroke-width="1"/>
  </g>
</svg>
