<svg xmlns="http://www.w3.org/2000/svg" xmlns:xlink="http://www.w3.org/1999/xlink" width="757.322" height="578.416" viewBox="0 0 757.322 578.416">
  <defs>
    <linearGradient id="linear-gradient" x1="0.249" y1="0.174" x2="0.903" y2="0.837" gradientUnits="objectBoundingBox">
      <stop offset="0" stop-opacity="0.169"/>
      <stop offset="1" stop-opacity="0"/>
    </linearGradient>
  </defs>
  <g id="Group_75" data-name="Group 75" transform="translate(-686.294 -3663.084)">
    <line id="Line_7" data-name="Line 7" x2="548.929" transform="translate(802.858 3686.109)" fill="none" stroke="#ccc" stroke-width="1" stroke-dasharray="2"/>
    <line id="Line_8" data-name="Line 8" x2="548.929" transform="translate(802.858 3935.611)" fill="none" stroke="#ccc" stroke-width="1" stroke-dasharray="2"/>
    <path id="Path_678" data-name="Path 678" d="M15.055,19.208a3.809,3.809,0,0,0,3.84-4.032c0-2.576-1.584-3.728-3.536-3.728a3.411,3.411,0,0,0-1.744.464L13.9,8.52h4.432V7.256H12.623l-.368,5.5.784.48a3.191,3.191,0,0,1,1.952-.688,2.373,2.373,0,0,1,2.432,2.672,2.535,2.535,0,0,1-2.5,2.768,3.858,3.858,0,0,1-2.88-1.3l-.72.96A4.982,4.982,0,0,0,15.055,19.208Zm9.152,0c2.224,0,3.648-2.032,3.648-6.112,0-4.064-1.424-6.048-3.648-6.048-2.24,0-3.664,1.968-3.664,6.048S21.967,19.208,24.207,19.208Zm0-1.168c-1.344,0-2.24-1.488-2.24-4.944,0-3.424.9-4.88,2.24-4.88,1.328,0,2.224,1.456,2.224,4.88C26.431,16.552,25.535,18.04,24.207,18.04Zm7.712-3.584c1.616,0,2.672-1.36,2.672-3.728,0-2.352-1.056-3.68-2.672-3.68-1.6,0-2.656,1.328-2.656,3.68C29.263,13.1,30.319,14.456,31.919,14.456Zm0-.912c-.912,0-1.552-.944-1.552-2.816s.64-2.784,1.552-2.784c.928,0,1.568.912,1.568,2.784S32.847,13.544,31.919,13.544Zm.352,5.664h.976l6.48-12.16h-.992Zm7.824,0c1.6,0,2.656-1.344,2.656-3.712,0-2.352-1.056-3.68-2.656-3.68s-2.672,1.328-2.672,3.68C37.423,17.864,38.495,19.208,40.095,19.208Zm0-.9c-.928,0-1.552-.944-1.552-2.816s.624-2.784,1.552-2.784c.912,0,1.552.912,1.552,2.784S41.007,18.312,40.095,18.312Z" transform="translate(719.427 3674.109)" fill="#707070"/>
    <path id="Path_677" data-name="Path 677" d="M11.583,19h7.376V17.736H15.711c-.592,0-1.312.064-1.92.112,2.752-2.608,4.592-4.992,4.592-7.328a3.218,3.218,0,0,0-3.408-3.472,4.486,4.486,0,0,0-3.456,1.728l.848.832A3.284,3.284,0,0,1,14.8,8.248a2.062,2.062,0,0,1,2.16,2.32c0,2.016-1.7,4.352-5.376,7.568Zm12.352.208a3.809,3.809,0,0,0,3.84-4.032c0-2.576-1.584-3.728-3.536-3.728a3.411,3.411,0,0,0-1.744.464l.288-3.392h4.432V7.256H21.5l-.368,5.5.784.48a3.191,3.191,0,0,1,1.952-.688A2.373,2.373,0,0,1,26.3,15.224a2.535,2.535,0,0,1-2.5,2.768,3.858,3.858,0,0,1-2.88-1.3l-.72.96A4.982,4.982,0,0,0,23.935,19.208Zm7.984-4.752c1.616,0,2.672-1.36,2.672-3.728,0-2.352-1.056-3.68-2.672-3.68-1.6,0-2.656,1.328-2.656,3.68C29.263,13.1,30.319,14.456,31.919,14.456Zm0-.912c-.912,0-1.552-.944-1.552-2.816s.64-2.784,1.552-2.784c.928,0,1.568.912,1.568,2.784S32.847,13.544,31.919,13.544Zm.352,5.664h.976l6.48-12.16h-.992Zm7.824,0c1.6,0,2.656-1.344,2.656-3.712,0-2.352-1.056-3.68-2.656-3.68s-2.672,1.328-2.672,3.68C37.423,17.864,38.495,19.208,40.095,19.208Zm0-.9c-.928,0-1.552-.944-1.552-2.816s.624-2.784,1.552-2.784c.912,0,1.552.912,1.552,2.784S41.007,18.312,40.095,18.312Z" transform="translate(719.427 3924.112)" fill="#707070"/>
    <path id="Path_676" data-name="Path 676" d="M10.886,6.1c-.112,2.112-.112,9.744-6.592,13.056a4.049,4.049,0,0,1,.96.912c4.048-2.192,5.7-6.048,6.4-9.248.768,3.2,2.528,7.3,6.656,9.248a3.587,3.587,0,0,1,.88-.976C13.174,16.344,12.31,8.952,12.166,6.84c.016-.272.016-.528.032-.736ZM10.71,25.928A13.7,13.7,0,0,1,9.526,28.04l.8.384c.416-.528.96-1.328,1.424-2.064Zm-3.7,2.112a7.98,7.98,0,0,0-1.04-2.048l-.9.368a8.179,8.179,0,0,1,.992,2.1Zm7.008,1.616h2.784a17.517,17.517,0,0,1-1.408,5.1A22.013,22.013,0,0,1,14.006,29.7ZM9.654,35.08a5.133,5.133,0,0,1-1.008,2.144c-.624-.3-1.264-.592-1.9-.848.208-.416.448-.848.672-1.3ZM19,29.656v-1.12h-4.64c.224-.88.432-1.808.592-2.752l-1.216-.176a15.722,15.722,0,0,1-2.608,7.168,6.124,6.124,0,0,1,.96.816,10.437,10.437,0,0,0,1.168-2,21.668,21.668,0,0,0,1.44,4.416,8.809,8.809,0,0,1-3.2,2.912,16.116,16.116,0,0,0-1.84-1.168A6.566,6.566,0,0,0,10.79,35.08h1.392v-.992H7.91c.192-.384.368-.768.544-1.12L8.182,32.9H8.87V30.52c.768.576,1.776,1.344,2.192,1.728l.656-.848c-.432-.32-2.16-1.408-2.848-1.808v-.08h3.248v-.976H8.87V25.608h-1.1v2.928H4.486v.976h2.96A8.721,8.721,0,0,1,4.31,32.056a4.035,4.035,0,0,1,.656.9,10.4,10.4,0,0,0,2.8-2.352v2.208l-.416-.1c-.192.432-.416.9-.656,1.376H4.39v.992H6.2c-.432.832-.864,1.648-1.216,2.256l1.024.368.256-.448c.528.224,1.056.48,1.568.736A8.131,8.131,0,0,1,4.422,39.24a2.444,2.444,0,0,1,.544.976,8.93,8.93,0,0,0,3.9-1.664,15.718,15.718,0,0,1,1.872,1.264l.368-.384a5.117,5.117,0,0,1,.512.832,10.546,10.546,0,0,0,3.712-3.072,8.6,8.6,0,0,0,2.992,3.024,3.83,3.83,0,0,1,.816-1.008,7.875,7.875,0,0,1-3.088-3.136,18.6,18.6,0,0,0,1.984-6.416ZM7.718,51.672H11.3V50.536H7.718V45.7h-1.2V58.2c-.784.176-1.52.32-2.144.432l.384,1.232c1.968-.464,4.656-1.1,7.168-1.728L11.814,57c-1.36.32-2.784.656-4.1.944Zm6.88,7.072c-.768,0-.9-.16-.9-1.04V52.552a33.824,33.824,0,0,0,4.816-2.464l-.88-1.008A22.431,22.431,0,0,1,13.7,51.4V45.7H12.5V57.688c0,1.728.416,2.192,1.968,2.192h2.672c1.52,0,1.84-.9,2-3.5a3.211,3.211,0,0,1-1.12-.512c-.1,2.3-.208,2.88-.944,2.88Zm4.224,15.632a23.881,23.881,0,0,0-3.648-2.192l-.832.672a21.28,21.28,0,0,1,3.6,2.272Zm-1.712-5.44a18.218,18.218,0,0,1-2.464,2.016l.848.512A20.429,20.429,0,0,0,18.15,69.48Zm-8.064.944-.592.7a22.337,22.337,0,0,1,2.32,1.712c-.448.48-.9.928-1.312,1.328-.432.016-.848.032-1.2.048l.16,1.008c1.536-.112,3.568-.24,5.6-.384a8.124,8.124,0,0,1,.464.9l.912-.48a12.994,12.994,0,0,0-2.016-2.88l-.864.384a15.228,15.228,0,0,1,.944,1.216l-2.752.144a39.7,39.7,0,0,0,3.344-3.68l-.944-.448a26.764,26.764,0,0,1-1.68,2.112c-.336-.288-.768-.608-1.216-.928a23.335,23.335,0,0,0,1.6-1.984l-.416-.16h6.96V67.416H12.246V65.624H11.062v1.792H5.094v1.072h5.552a16.6,16.6,0,0,1-1.152,1.68Zm-.592.992A13.773,13.773,0,0,0,5.91,69.16l-.8.656a14.81,14.81,0,0,1,2.512,1.776Zm.112,1.488c-1.488.624-2.992,1.264-4.016,1.632l.592.96c1.072-.464,2.384-1.1,3.648-1.7Zm3.68,2.32H11.062v1.232H4.614v1.1h6.448v3.248h1.184V77.016h6.56v-1.1h-6.56Z" transform="translate(682 3674.109)" fill="#707070"/>
    <path id="Path_675" data-name="Path 675" d="M-11.54-8.02h2.92v1.68h-2.92Zm-4.24-1.22V-11.7h2.8v2.46Zm4.24-5.32h2.92v1.66h-2.92Zm2.92,5.32h-2.92V-11.7h2.92Zm4.34-2.46v2.46H-7.2V-11.7Zm-8.28,7.26a13.922,13.922,0,0,1,3.6,2.42l1-.9a13.1,13.1,0,0,0-3.18-2.12h9.98v-1.3H-7.2V-8.02h4.36V-12.9H-7.2v-1.66h5.78v-1.28H-18.5v1.28h5.52v1.66h-4.18v4.88h4.18v1.68h-5.84v1.3h6.96ZM-17.88.9a6.432,6.432,0,0,0,2.7-4.1l-1.32-.48A5.56,5.56,0,0,1-19.1,0Zm6.62-1.04c-1.02,0-1.2-.08-1.2-.56V-3.58H-13.9v2.9c0,1.48.48,1.88,2.54,1.88h3.74C-6.04,1.2-5.6.68-5.4-1.52a3.354,3.354,0,0,1-1.32-.54C-6.8-.36-6.94-.14-7.76-.14Zm5.46-3A14.342,14.342,0,0,1-2.16.8L-.9-.04A13.967,13.967,0,0,0-4.62-3.88ZM6.3-16.42A22.119,22.119,0,0,1,.5-8.36a9.925,9.925,0,0,1,.9,1.5A23.861,23.861,0,0,0,4-9.68V1.48H5.5V-11.78a26.859,26.859,0,0,0,2.22-4.16ZM12.54-.16c-1.1,0-1.32-.24-1.32-1.36v-5.8a47.064,47.064,0,0,0,7.04-4.36L17.2-12.96a35.008,35.008,0,0,1-5.98,4.14v-7.44H9.72V-1.54c0,2.18.64,2.78,2.72,2.78h4.1c2.06,0,2.5-1.14,2.74-4.38a4.774,4.774,0,0,1-1.42-.64c-.14,2.9-.32,3.62-1.42,3.62Z" transform="translate(766.403 4239.899)" fill="#707070"/>
    <path id="Path_674" data-name="Path 674" d="M-1.46-13.84v-1.48H-18.54v1.48H-9.7a23.2,23.2,0,0,1-9.34,8.72,10.228,10.228,0,0,1,1,1.3A25.646,25.646,0,0,0-10.8-9.64V1.48h1.58V-11.64c.5-.74.98-1.46,1.42-2.2Zm-7.36,4.3A44.629,44.629,0,0,1-2.08-4.1L-.9-5.24A45.648,45.648,0,0,0-7.72-10.5ZM7.74-13.28A5.823,5.823,0,0,1,4.6-7.66a4.69,4.69,0,0,1,1.08,1,6.938,6.938,0,0,0,3.46-6.6v-.12H11.9V-9c0,.22-.06.28-.32.3-.26,0-1.12,0-2.12-.02a5.467,5.467,0,0,1,.42,1.3,9.761,9.761,0,0,0,2.78-.2c.56-.24.68-.62.68-1.36v-4.4h5.4v-1.36h-8v-1.98H9.24v1.98H1.34v1.36h6.4Zm6.64,1.54a22.948,22.948,0,0,1,3.46,3.96l1.24-.78a23.013,23.013,0,0,0-3.56-3.86Zm-10.04-.6A9.35,9.35,0,0,1,.98-8.84,10.733,10.733,0,0,1,2-7.96a12.06,12.06,0,0,0,3.74-3.98ZM7.08-5.02h6.56a11.018,11.018,0,0,1-3.52,2.8A9.993,9.993,0,0,1,6.96-4.9Zm7.8-1.3-.28.06H8.4A14.619,14.619,0,0,0,9.44-7.48l-1.6-.28A14.082,14.082,0,0,1,1.5-3.28,4.459,4.459,0,0,1,2.44-2.2,19.708,19.708,0,0,0,5.92-4.12,11.952,11.952,0,0,0,8.64-1.54,30.326,30.326,0,0,1,1,.28a3.788,3.788,0,0,1,.72,1.3A29.792,29.792,0,0,0,10.06-.7,23.1,23.1,0,0,0,18.3,1.56,4.882,4.882,0,0,1,19.16.2,25.362,25.362,0,0,1,11.6-1.5a11.649,11.649,0,0,0,4.26-4.16Z" transform="translate(906.823 4239.899)" fill="#707070"/>
    <path id="Path_673" data-name="Path 673" d="M-37.42-7.8h2.08v1.82h-2.08Zm0-2.86h2.08v1.8h-2.08Zm5.3,1.8h-2.12v-1.8h2.12Zm0,2.88h-2.12V-7.8h2.12Zm8.76-8.44a10.378,10.378,0,0,1-2.42,3.48,10.721,10.721,0,0,1-2.32-3.48ZM-30.48-1.94V-3.26h-3.64v-1.6h3.18V-7.82a5.974,5.974,0,0,1,.7,1.1A14.767,14.767,0,0,0-25.78-9.1a12.23,12.23,0,0,0,4.3,2.32A6.1,6.1,0,0,1-20.56-8a11.526,11.526,0,0,1-4.16-2.02,12.437,12.437,0,0,0,3.2-5.4l-.92-.38-.26.06h-7.54v1.32h1.98l-1.1.3a12.857,12.857,0,0,0,2.56,4.06,13.272,13.272,0,0,1-4.14,2.1v-3.82h-3.18V-13.3h3.48v-1.28h-3.48v-2.16h-1.32v2.16H-38.9v1.28h3.46v1.52h-3.12v6.92h3.12v1.6h-3.7v1.32h3.7v3.5h1.32v-3.5Zm5.42-1.84h3.38V-5.06h-3.38V-7.64h-1.48v2.58h-3.34v1.28h3.34V-.32h-4.58V1.02h10.34V-.32h-4.28ZM-1.2-13.4v-1.36H-8.66v-1.96h-1.52v1.96h-7.34v5.72c0,2.88-.14,6.92-1.78,9.76a5.749,5.749,0,0,1,1.22.84c1.72-3.02,1.96-7.52,1.96-10.6V-13.4ZM-6-9.94v2.1h-4.84v-2.1Zm1.44,3.3v-3.3h3.22v-1.22H-4.56V-12.9H-6v1.74h-4.84V-12.9h-1.42v1.74h-3.18v1.22h3.18v3.3Zm-.32,2.48A9.192,9.192,0,0,1-8.26-1.62,8.959,8.959,0,0,1-11.5-4.16Zm1.24-1.28-.26.06H-15.2v1.22h3.08l-.8.3A10.063,10.063,0,0,0-9.78-1,27.13,27.13,0,0,1-15.94.28a5.139,5.139,0,0,1,.62,1.24A27.089,27.089,0,0,0-8.28-.2,22.814,22.814,0,0,0-1.7,1.56,4.409,4.409,0,0,1-.84.3,25.432,25.432,0,0,1-6.72-.96,9.879,9.879,0,0,0-2.7-4.94Zm15.28-6.24h4.42a19.7,19.7,0,0,1-2.16,6.7,22.731,22.731,0,0,1-2.28-6.66Zm7.54,0V-13.1H12.16a28.132,28.132,0,0,0,.9-3.34l-1.54-.28A18.624,18.624,0,0,1,8.2-8.66v-6.32H1.46v1.38h5.3v3.92H1.46v6.36c0,1.7.5,2.12,2.26,2.12H6.8c1.54,0,1.96-.64,2.14-3.16A4.064,4.064,0,0,1,7.6-4.94C7.54-2.92,7.42-2.6,6.68-2.6H3.86c-.82,0-.98-.1-.98-.74V-8.32H6.76v.76H8.2v-.66c.36.24.84.58,1.08.76a14.665,14.665,0,0,0,1.4-2.14,23.705,23.705,0,0,0,2.28,5.98A12.284,12.284,0,0,1,7.22.28a7.722,7.722,0,0,1,.9,1.32A14.1,14.1,0,0,0,13.8-2.34,11.644,11.644,0,0,0,18.36,1.5,6.467,6.467,0,0,1,19.4.24,10.9,10.9,0,0,1,14.74-3.6a20.975,20.975,0,0,0,2.82-8.08ZM34.74-2.7V-.36h-9.4V-2.7ZM23.88,1.52h1.46V.84h9.4v.62h1.52V-3.9H23.88ZM29.2-8.4v2.12H25.96l.7-.22A7.355,7.355,0,0,0,25.5-8.4Zm5.2,0a15.119,15.119,0,0,1-1.2,1.96l.7.16H30.7V-8.4Zm.24,2.12A15.333,15.333,0,0,0,35.9-8.12L34.68-8.4H38.4V-9.54H30.7v-1.38h5.86v-1.12H30.7v-1.34h7.1v-1.14h-4c.38-.52.8-1.2,1.22-1.88l-1.52-.36a20.592,20.592,0,0,1-1.22,2.24H27.42l.22-.08a8.315,8.315,0,0,0-1.32-2.12l-1.32.4a10.116,10.116,0,0,1,1.1,1.8H22.26v1.14H29.2v1.34H23.46v1.12H29.2v1.38H21.72V-8.4h3.5l-1.1.3a8.447,8.447,0,0,1,1.06,1.82H21.12v1.2h17.8v-1.2Z" transform="translate(1051.031 4239.899)" fill="#707070"/>
    <path id="Path_672" data-name="Path 672" d="M-39.28-6.42v-5.3h5.74v5.3Zm-7.26,0v-5.3h5.72v5.3Zm7.26-6.76v-3.56h-1.54v3.56H-48v9.46h1.46V-4.96h5.72V1.52h1.54V-4.96h5.74v1.14h1.52v-9.36Zm13.96-.62a13.069,13.069,0,0,1,.86,2.26l1.3-.48a8.3,8.3,0,0,0-.7-1.78h3.62v-1.26h-5.2a12.424,12.424,0,0,0,.62-1.4l-1.4-.36a13.007,13.007,0,0,1-3.04,4.64,9.437,9.437,0,0,1,1.22.86,12.809,12.809,0,0,0,1.88-2.48Zm-.16,11.24A14.5,14.5,0,0,1-22.12.5l1.14-.94A14.144,14.144,0,0,0-24.4-3.4Zm14.52-3.92v-1.3h-8.32V-9.56h6.44v-1.26h-6.44V-12.2h-.32a11.312,11.312,0,0,0,1.24-1.6H-17a9.18,9.18,0,0,1,1.4,2.38l1.28-.56a10.477,10.477,0,0,0-1.1-1.82h4.26v-1.26h-6.48a12.872,12.872,0,0,0,.6-1.44l-1.42-.32a10.187,10.187,0,0,1-2.86,4.32c.12.08.34.2.54.34v1.34h-6.24v1.26h6.24v1.78h-8.2v1.3h12.26v1.76H-28.34v1.3h11.62V-.24c0,.28-.08.36-.44.36-.36.04-1.54.04-2.9,0a5.2,5.2,0,0,1,.54,1.4,12.97,12.97,0,0,0,3.42-.24c.68-.24.88-.62.88-1.5v-3.2h3.74v-1.3h-3.74V-6.48ZM8.8-13.4v-1.36H1.34v-1.96H-.18v1.96H-7.52v5.72c0,2.88-.14,6.92-1.78,9.76a5.749,5.749,0,0,1,1.22.84c1.72-3.02,1.96-7.52,1.96-10.6V-13.4ZM4-9.94v2.1H-.84v-2.1Zm1.44,3.3v-3.3H8.66v-1.22H5.44V-12.9H4v1.74H-.84V-12.9H-2.26v1.74H-5.44v1.22h3.18v3.3ZM5.12-4.16A9.192,9.192,0,0,1,1.74-1.62,8.959,8.959,0,0,1-1.5-4.16ZM6.36-5.44l-.26.06H-5.2v1.22h3.08l-.8.3A10.063,10.063,0,0,0,.22-1,27.13,27.13,0,0,1-5.94.28a5.139,5.139,0,0,1,.62,1.24A27.089,27.089,0,0,0,1.72-.2,22.814,22.814,0,0,0,8.3,1.56,4.409,4.409,0,0,1,9.16.3,25.432,25.432,0,0,1,3.28-.96,9.879,9.879,0,0,0,7.3-4.94Zm15.28-6.24h4.42a19.7,19.7,0,0,1-2.16,6.7,22.731,22.731,0,0,1-2.28-6.66Zm7.54,0V-13.1H22.16a28.132,28.132,0,0,0,.9-3.34l-1.54-.28A18.624,18.624,0,0,1,18.2-8.66v-6.32H11.46v1.38h5.3v3.92h-5.3v6.36c0,1.7.5,2.12,2.26,2.12H16.8c1.54,0,1.96-.64,2.14-3.16a4.064,4.064,0,0,1-1.34-.58c-.06,2.02-.18,2.34-.92,2.34H13.86c-.82,0-.98-.1-.98-.74V-8.32h3.88v.76H18.2v-.66c.36.24.84.58,1.08.76a14.665,14.665,0,0,0,1.4-2.14,23.705,23.705,0,0,0,2.28,5.98A12.284,12.284,0,0,1,17.22.28a7.722,7.722,0,0,1,.9,1.32A14.1,14.1,0,0,0,23.8-2.34,11.644,11.644,0,0,0,28.36,1.5,6.467,6.467,0,0,1,29.4.24,10.9,10.9,0,0,1,24.74-3.6a20.975,20.975,0,0,0,2.82-8.08ZM44.74-2.7V-.36h-9.4V-2.7ZM33.88,1.52h1.46V.84h9.4v.62h1.52V-3.9H33.88ZM39.2-8.4v2.12H35.96l.7-.22A7.355,7.355,0,0,0,35.5-8.4Zm5.2,0a15.119,15.119,0,0,1-1.2,1.96l.7.16H40.7V-8.4Zm.24,2.12A15.333,15.333,0,0,0,45.9-8.12L44.68-8.4H48.4V-9.54H40.7v-1.38h5.86v-1.12H40.7v-1.34h7.1v-1.14h-4c.38-.52.8-1.2,1.22-1.88l-1.52-.36a20.592,20.592,0,0,1-1.22,2.24H37.42l.22-.08a8.315,8.315,0,0,0-1.32-2.12l-1.32.4a10.116,10.116,0,0,1,1.1,1.8H32.26v1.14H39.2v1.34H33.46v1.12H39.2v1.38H31.72V-8.4h3.5l-1.1.3a8.447,8.447,0,0,1,1.06,1.82H31.12v1.2h17.8v-1.2Z" transform="translate(1200.004 4239.899)" fill="#707070"/>
    <path id="Path_671" data-name="Path 671" d="M-34.2-12.44h1.44v-1.48h5.38v1.48h1.46v-1.48h4.64v-1.32h-4.64v-1.48h-1.46v1.48h-5.38v-1.48H-34.2v1.48h-4.54v1.32h4.54Zm3.64,3.82v-1.8h4.54a24.882,24.882,0,0,1-2.6,1.8ZM-24.52-3h-8.9V-4.56h8.9Zm-8.9,2.72V-1.96h8.9V-.28ZM-21.18-7.3V-8.62h-5.04a23.688,23.688,0,0,0,3.94-3.48l-1.2-.7a22.857,22.857,0,0,1-2.24,2.14v-1.02h-4.84v-1.46h-1.46v1.46H-37.1v1.26h5.08v1.8h-6.74V-7.3h7.78a42.6,42.6,0,0,1-8.28,3.04A6.486,6.486,0,0,1-38.44-3c1.18-.36,2.38-.74,3.56-1.16V1.52h1.46V.9h8.9v.62h1.46V-5.74h-8.12c1-.48,2-1,2.94-1.56Zm9.16,6.66V-5.56h8.2V-.64ZM-7.06-13.4a16.2,16.2,0,0,1-3.6,4.68,25.857,25.857,0,0,0-3.78-3.22,16.235,16.235,0,0,0,1.42-1.46Zm4.74,6.48H-10.5A18.871,18.871,0,0,0-5.04-14.3l-.98-.52-.28.08h-5.64c.42-.58.8-1.16,1.14-1.72l-1.66-.34a16.841,16.841,0,0,1-6.72,6.5,5.073,5.073,0,0,1,1.04,1.14,21.629,21.629,0,0,0,2.62-1.82A24.9,24.9,0,0,1-11.86-7.7a22.3,22.3,0,0,1-7.42,3.84,4.518,4.518,0,0,1,.88,1.3A25.115,25.115,0,0,0-13.48-4.8V1.52h1.46V.72h8.2v.84h1.5Zm13.96-4.76h4.42a19.7,19.7,0,0,1-2.16,6.7,22.731,22.731,0,0,1-2.28-6.66Zm7.54,0V-13.1H12.16a28.132,28.132,0,0,0,.9-3.34l-1.54-.28A18.624,18.624,0,0,1,8.2-8.66v-6.32H1.46v1.38h5.3v3.92H1.46v6.36c0,1.7.5,2.12,2.26,2.12H6.8c1.54,0,1.96-.64,2.14-3.16A4.064,4.064,0,0,1,7.6-4.94C7.54-2.92,7.42-2.6,6.68-2.6H3.86c-.82,0-.98-.1-.98-.74V-8.32H6.76v.76H8.2v-.66c.36.24.84.58,1.08.76a14.665,14.665,0,0,0,1.4-2.14,23.705,23.705,0,0,0,2.28,5.98A12.284,12.284,0,0,1,7.22.28a7.722,7.722,0,0,1,.9,1.32A14.1,14.1,0,0,0,13.8-2.34,11.644,11.644,0,0,0,18.36,1.5,6.467,6.467,0,0,1,19.4.24,10.9,10.9,0,0,1,14.74-3.6a20.975,20.975,0,0,0,2.82-8.08ZM34.74-2.7V-.36h-9.4V-2.7ZM23.88,1.52h1.46V.84h9.4v.62h1.52V-3.9H23.88ZM29.2-8.4v2.12H25.96l.7-.22A7.355,7.355,0,0,0,25.5-8.4Zm5.2,0a15.119,15.119,0,0,1-1.2,1.96l.7.16H30.7V-8.4Zm.24,2.12A15.333,15.333,0,0,0,35.9-8.12L34.68-8.4H38.4V-9.54H30.7v-1.38h5.86v-1.12H30.7v-1.34h7.1v-1.14h-4c.38-.52.8-1.2,1.22-1.88l-1.52-.36a20.592,20.592,0,0,1-1.22,2.24H27.42l.22-.08a8.315,8.315,0,0,0-1.32-2.12l-1.32.4a10.116,10.116,0,0,1,1.1,1.8H22.26v1.14H29.2v1.34H23.46v1.12H29.2v1.38H21.72V-8.4h3.5l-1.1.3a8.447,8.447,0,0,1,1.06,1.82H21.12v1.2h17.8v-1.2Z" transform="translate(1351.787 4239.899)" fill="#707070"/>
    <g id="Group_85" data-name="Group 85" transform="translate(1297.986 3690.111)">
      <path id="Path_279" data-name="Path 279" d="M89.429,3.532l56.149,12.92-11.55,16.356L.091,15.132Z" transform="translate(0.051 480.204)" fill="url(#linear-gradient)"/>
      <g id="Group_84" data-name="Group 84" transform="translate(0 452.243)">
        <path id="Path_278" data-name="Path 278" d="M0,110H37.427v15.01H0Z" transform="translate(0 -81.871)" fill="#ebebeb"/>
        <path id="Path_276" data-name="Path 276" d="M0,114.287l14.869-11.951v31.189L0,145.476Z" transform="translate(37.427 -102.337)" fill="#ccc"/>
        <path id="Path_275" data-name="Path 275" d="M14.869,1.337H52.3L37.427,13.287H0Z" transform="translate(0 14.842)" fill="#f5f5f5"/>
      </g>
      <g id="Group_26" data-name="Group 26" transform="translate(37.113)">
        <path id="Path_278-2" data-name="Path 278" d="M0-180H37.427V160.515H0Z" transform="translate(0 334.868)" fill="#01abab"/>
        <path id="Path_276-2" data-name="Path 276" d="M0-32.713,14.869-44.663V295.769L0,307.719Z" transform="translate(37.427 187.663)" fill="#077f7f"/>
        <path id="Path_275-2" data-name="Path 275" d="M14.869,1.337H52.3L37.427,13.287H0Z" transform="translate(0 141.58)" fill="#26d7d7"/>
      </g>
    </g>
    <g id="Group_83" data-name="Group 83" transform="translate(1156.075 3768.084)">
      <path id="Path_280" data-name="Path 280" d="M89.429,3.532l56.149,12.92-11.55,16.356L.091,15.132Z" transform="translate(-0.091 402.231)" fill="url(#linear-gradient)"/>
      <g id="Group_82" data-name="Group 82" transform="translate(0 296.297)">
        <path id="Path_278-3" data-name="Path 278" d="M0,60H37.427v91.264H0Z" transform="translate(0 -30.151)" fill="#ebebeb"/>
        <path id="Path_276-3" data-name="Path 276" d="M0,84.287,14.869,72.337V150.31L0,162.26Z" transform="translate(37.427 -41.148)" fill="#ccc"/>
        <path id="Path_275-3" data-name="Path 275" d="M14.869,1.337H52.3L37.427,13.287H0Z" transform="translate(0 16.562)" fill="#f5f5f5"/>
      </g>
      <g id="Group_27" data-name="Group 27" transform="translate(36.971)">
        <path id="Path_278-4" data-name="Path 278" d="M0-130H37.427V380.095H0Z" transform="translate(0 37.315)" fill="#01abab"/>
        <path id="Path_276-4" data-name="Path 276" d="M0-230.713l14.869-11.951V267.8L0,279.746Z" transform="translate(37.427 137.663)" fill="#077f7f"/>
        <path id="Path_275-4" data-name="Path 275" d="M14.869,1.337H52.3L37.427,13.287H0Z" transform="translate(0 -105.972)" fill="#26d7d7"/>
      </g>
    </g>
    <g id="Group_81" data-name="Group 81" transform="translate(1012.605 3721.3)">
      <path id="Path_281" data-name="Path 281" d="M89.429,3.532l56.149,12.92-11.55,16.356L.091,15.132Z" transform="translate(-0.091 449.015)" fill="url(#linear-gradient)"/>
      <g id="Group_32" data-name="Group 32">
        <path id="Path_278-5" data-name="Path 278" d="M0-160H37.427V317.73H0Z" transform="translate(0 146.463)" fill="#ebebeb"/>
        <path id="Path_276-5" data-name="Path 276" d="M0-180.713l14.869-11.951V284.579L0,296.53Z" transform="translate(37.427 167.663)" fill="#ccc"/>
        <path id="Path_275-5" data-name="Path 275" d="M14.869,1.337H52.3L37.427,13.287H0Z" transform="translate(0 -26.824)" fill="#f5f5f5"/>
      </g>
      <g id="Group_28" data-name="Group 28" transform="translate(37.903 374.27)">
        <path id="Path_278-6" data-name="Path 278" d="M0,80H37.427V190.078H0Z" transform="translate(0 -100.155)" fill="#01abab"/>
        <path id="Path_276-6" data-name="Path 276" d="M0,52.287,14.869,40.337V150.31L0,162.26Z" transform="translate(37.427 -72.337)" fill="#077f7f"/>
        <path id="Path_275-6" data-name="Path 275" d="M14.869,1.337H52.3L37.427,13.287H0Z" transform="translate(0 -33.442)" fill="#26d7d7"/>
      </g>
    </g>
    <g id="Group_80" data-name="Group 80" transform="translate(870.694 3783.679)">
      <path id="Path_282" data-name="Path 282" d="M89.429,3.532l56.149,12.92-11.55,16.356L.091,15.132Z" transform="translate(-0.091 386.637)" fill="url(#linear-gradient)"/>
      <g id="Group_33" data-name="Group 33">
        <path id="Path_278-7" data-name="Path 278" d="M0-120H37.427V281.815H0Z" transform="translate(0 120)" fill="#ebebeb"/>
        <path id="Path_276-7" data-name="Path 276" d="M0-127.713l14.869-11.951V262.2L0,274.152Z" transform="translate(37.427 127.663)" fill="#ccc"/>
        <path id="Path_275-7" data-name="Path 275" d="M14.869,1.337H52.3L37.427,13.287H0Z" transform="translate(0 -13.287)" fill="#f5f5f5"/>
      </g>
      <g id="Group_29" data-name="Group 29" transform="translate(37.275 343.081)">
        <path id="Path_278-8" data-name="Path 278" d="M0,100H37.427v40.39H0Z" transform="translate(0 -81.656)" fill="#01abab"/>
        <path id="Path_276-8" data-name="Path 276" d="M0,110.287,14.869,98.337V139.12L0,151.071Z" transform="translate(37.427 -92.337)" fill="#077f7f"/>
        <path id="Path_275-8" data-name="Path 275" d="M14.869,1.337H52.3L37.427,13.287H0Z" transform="translate(0 5.057)" fill="#26d7d7"/>
      </g>
    </g>
    <g id="Group_79" data-name="Group 79" transform="translate(728.784 4111.165)">
      <path id="Path_283" data-name="Path 283" d="M52.619,3.1l92.959,13.353-11.55,16.356L.091,15.132Z" transform="translate(-0.091 59.15)" fill="url(#linear-gradient)"/>
      <g id="Group_31" data-name="Group 31" transform="translate(0 0)">
        <path id="Path_278-9" data-name="Path 278" d="M0,90H37.427v15.007H0Z" transform="translate(0 -30.678)" fill="#ebebeb"/>
        <path id="Path_276-9" data-name="Path 276" d="M0,141.406l14.869-11.951v15.26L0,156.666Z" transform="translate(37.427 -82.337)" fill="#ccc"/>
        <path id="Path_275-9" data-name="Path 275" d="M14.869,1.337H52.3L37.427,13.287H0Z" transform="translate(0 45.781)" fill="#f5f5f5"/>
      </g>
    </g>
  </g>
</svg>
