<svg xmlns="http://www.w3.org/2000/svg" width="746" height="292" viewBox="0 0 746 292">
  <g id="Group_358" data-name="Group 358" transform="translate(-487 -8479)">
    <g id="Group_62" data-name="Group 62" transform="translate(-96 1246)">
      <circle id="Ellipse_9" data-name="Ellipse 9" cx="65" cy="65" r="65" transform="translate(713 7269)" fill="#ccc"/>
      <path id="Path_708" data-name="Path 708" d="M-22.914-10.314a29.724,29.724,0,0,0,1.692-3.834c.414.018.63-.126.7-.324l-1.872-.594a31.362,31.362,0,0,1-3.942,9l.252.18a16.64,16.64,0,0,0,2.142-2.7V1.386h.216a1.254,1.254,0,0,0,.936-.4V-9.72c.324-.054.486-.162.54-.342ZM-10.26-3.42h-.234a13.362,13.362,0,0,1-.7,2.682c-.108.18-.216.252-.522.288-.414.054-1.386.072-2.736.072h-2.88c-1.206,0-1.4-.216-1.4-.774V-8.37l2.628-.918v7.4h.234c.414,0,.9-.27.9-.432V-9.684l2.988-1.044c-.054,3.672-.162,5.526-.522,5.9-.108.126-.234.162-.5.162-.306,0-1.206-.072-1.71-.126l-.018.306a3,3,0,0,1,1.224.414,1.093,1.093,0,0,1,.252.828,2.4,2.4,0,0,0,1.6-.576c.576-.63.756-2.538.792-6.75a1.125,1.125,0,0,0,.72-.288l-1.368-1.1-.666.72-.072.018-2.718.954v-3.906c.468-.054.63-.234.666-.486l-1.8-.216v5l-2.628.918v-3.78c.414-.054.594-.252.612-.486l-1.782-.216v4.9l-2.376.828.36.45,2.016-.7V-.9c0,1.3.612,1.62,2.5,1.62h2.916c4.086,0,4.9-.162,4.9-.828,0-.252-.144-.36-.63-.522ZM.5-4.1V-6.93h4.1V-4.1ZM-4.608-6.93H-.684V-4.1H-4.608Zm3.924-3.258v2.736H-4.608v-2.736Zm5.292,0v2.736H.5v-2.736ZM6.21-4.1H5.778v-5.76a1.678,1.678,0,0,0,.936-.432L5.058-11.538l-.666.81H.5v-2.34H7.47c.252,0,.432-.09.486-.288-.648-.594-1.656-1.35-1.656-1.35l-.882,1.1H-7.848l.162.54h7v2.34H-4.392l-1.386-.594V-4.1H-8.352l.144.522h2.43V1.4h.18c.594,0,.99-.306.99-.432V-3.582H4.608V-.54c0,.306-.108.432-.486.432-.45,0-2.682-.18-2.682-.18V0A4.455,4.455,0,0,1,3.258.5a1.119,1.119,0,0,1,.45.882c1.872-.2,2.07-.81,2.07-1.764v-3.2H7.992c.234,0,.414-.09.45-.27-.54-.54-1.458-1.3-1.458-1.3ZM23.652.108H18.576V-5.13H24.12c.252,0,.432-.09.468-.27-.648-.576-1.674-1.368-1.674-1.368l-.936,1.134h-3.4v-4.572H24.75c.252,0,.432-.09.486-.288a20.036,20.036,0,0,0-1.674-1.35l-.918,1.116H18.576v-3.618c.432-.072.576-.252.63-.5l-1.872-.216v4.338H13.59A21.634,21.634,0,0,0,14.85-13.5c.4.018.63-.144.7-.36l-1.89-.594a23.484,23.484,0,0,1-4,8.244l.234.18a15.963,15.963,0,0,0,3.384-4.176h4.05v4.572H11.79l.144.5h5.4V.108H9.774l.144.54H25.83c.252,0,.414-.09.468-.288-.648-.612-1.71-1.4-1.71-1.4ZM-21.366,25.64h-11.52V12.9h13.014c.27,0,.432-.09.486-.288-.63-.576-1.62-1.314-1.62-1.314l-.864,1.062H-32.652l-1.4-.594V27.4h.18c.594,0,.99-.288.99-.4V26.18h13.7c.252,0,.4-.09.45-.288-.63-.594-1.692-1.4-1.692-1.4Zm1.278-6.408c.252,0,.45-.09.486-.288-.594-.558-1.566-1.3-1.566-1.3L-22,18.692h-3.582c.09-.81.108-1.674.126-2.646h4.32c.252,0,.432-.09.486-.288-.612-.576-1.53-1.278-1.53-1.278L-23,15.506h-5.634a8.922,8.922,0,0,0,.81-1.4.654.654,0,0,0,.684-.306l-1.728-.63a12.9,12.9,0,0,1-2.79,4.95l.234.216a9.584,9.584,0,0,0,2.412-2.286h2.322c-.018.972-.018,1.836-.108,2.646h-5.166l.144.54h4.95c-.342,2.3-1.476,3.942-5.166,5.184l.216.306c3.528-.936,5.076-2.232,5.778-4.032a12.587,12.587,0,0,1,4.14,3.654c1.512.7,1.746-2.412-4.014-4a6.765,6.765,0,0,0,.252-1.116Zm2.952-4.932a7.272,7.272,0,0,1,.918,3.4c1.026,1.062,2.268-1.368-.666-3.51Zm6.714,9.36a12.343,12.343,0,0,1-3.888,3.114l.18.252a12.486,12.486,0,0,0,4.446-2.394c.4.126.558.054.684-.108Zm4.806.432A11.542,11.542,0,0,1-2.25,26.81c1.314.576,1.674-1.926-3.222-2.934Zm-4.392-1.89V20.69h5.6V22.2Zm-3.33-8.928h5a12.22,12.22,0,0,1-.7,1.854H-12.96l.144.54h3.492a10.8,10.8,0,0,1-1.224,1.782c.162-.45-.252-1.188-1.908-1.386l-.18.144A3.424,3.424,0,0,1-11.5,17.7a.688.688,0,0,0,.684.072A10.981,10.981,0,0,1-13.41,19.88c.054-.738.072-1.458.072-2.142Zm7.092,2.394a8.745,8.745,0,0,0,1.782,2.448l-.072.072H-9.792l-.2-.09a11.108,11.108,0,0,0,1.926-2.43Zm-3.762,3.06h5.6V20.15h-5.6Zm7.02-2.988a13.308,13.308,0,0,1-1.188,1.476,6.914,6.914,0,0,1-1.6-1.548h4.392c.234,0,.432-.09.468-.288-.558-.522-1.422-1.224-1.422-1.224l-.792.972H-7.776a10.847,10.847,0,0,0,.522-1.152c.45.018.576-.09.666-.306l-1.458-.4h6.858c.252,0,.414-.09.468-.288-.576-.54-1.53-1.278-1.53-1.278l-.828,1.044H-7.434V11.564c.414-.072.576-.234.594-.468l-1.746-.18v1.836H-13.1l-1.35-.648v5.652c0,.486,0,.954-.018,1.44-1.314.792-2.52,1.494-3.06,1.746l.756,1.4a.623.623,0,0,0,.27-.5c.774-.756,1.458-1.458,2-2.016a11.44,11.44,0,0,1-2.736,7.326l.252.2a9.669,9.669,0,0,0,3.546-7.074,10.766,10.766,0,0,0,2.34-1.26V23.48h.18c.54,0,.918-.252.918-.36v-.414h2.232v3.042c0,.216-.09.306-.4.306-.324,0-2.034-.126-2.034-.126v.27a3.2,3.2,0,0,1,1.458.414,1.13,1.13,0,0,1,.342.81c1.566-.18,1.782-.774,1.782-1.656v-3.06H-4.41v.612h.162a1.433,1.433,0,0,0,.936-.36V19.052a9.868,9.868,0,0,0,1.836.954,1.194,1.194,0,0,1,.918-.936l.018-.2a10.553,10.553,0,0,1-3.276-1.4,10.451,10.451,0,0,0,1.674-.81c.252.072.414.036.486-.09ZM2.07,13.688a4.491,4.491,0,0,1,1.782,2.25c1.242.774,2.07-1.728-1.62-2.412Zm5.472,7.524c.018-.234.018-.45.018-.684V18.152h2.754v3.06ZM16.4,23.444h-.216c-.2.954-.414,1.926-.522,2.2a.389.389,0,0,1-.36.216c-.234,0-.792.018-1.512.018H12.2c-.666,0-.738-.108-.738-.414V21.734h4.41c.252,0,.414-.09.468-.288-.612-.558-1.548-1.3-1.548-1.3l-.846,1.062H11.466v-3.06h1.908a.431.431,0,0,0,.468-.288c-.54-.5-1.4-1.206-1.4-1.206l-.756.99H4.158A12.718,12.718,0,0,0,8.424,12.77c.432-.018.63-.054.774-.234l-1.314-1.17-.81.738H2.628l.162.522H7.056A13.983,13.983,0,0,1,.7,19.106l.162.252A14.4,14.4,0,0,0,4.14,17.666l.144.486H6.39v2.394c0,.216-.018.45-.018.666H1.62l.162.522H6.3C6.03,23.7,4.914,25.55,1.386,27.1l.162.288c4.464-1.368,5.652-3.546,5.94-5.652h2.826v4c0,.918.306,1.224,1.674,1.224h1.764c2.664,0,3.222-.2,3.222-.72,0-.252-.108-.4-.522-.522Zm-.774-10.368a19.951,19.951,0,0,1-2.394,2.412,11.458,11.458,0,0,1-1.53-1.422,18.147,18.147,0,0,0,2.808-1.782c.4.108.54.054.666-.126l-1.494-.9a19.6,19.6,0,0,1-2.268,2.484A10.037,10.037,0,0,1,9.738,10.9l-.306.18a12.57,12.57,0,0,0,6.912,7.866,1.363,1.363,0,0,1,1.116-.972l.036-.2a14.209,14.209,0,0,1-3.888-2A19.181,19.181,0,0,0,16.47,14.12c.378.09.54.018.666-.144Zm19.314,7.236a.412.412,0,0,0,.414-.342c-.72-.522-1.944-1.224-1.944-1.224l-.864,1.314-5.76.666V17.414l6.714-.846a.444.444,0,0,0,.414-.36C33.192,15.722,32,15.02,32,15.02l-.828,1.3-4.392.558v-3.24a51.777,51.777,0,0,0,5.346-1.368c.45.18.792.162.954,0L31.662,11.06A51.973,51.973,0,0,1,19.44,14.354l.072.36a57.5,57.5,0,0,0,6.084-.846v3.168l-6.138.774.2.486,5.94-.738V20.87l-6.876.81.2.5L25.6,21.41v3.87c0,1.242.558,1.548,2.322,1.548h2.646c3.78,0,4.536-.18,4.536-.792,0-.252-.144-.414-.612-.558l-.054-2.916H34.2a22.605,22.605,0,0,1-.666,2.808.54.54,0,0,1-.5.306c-.378.036-1.224.054-2.43.054H28.026c-1.062,0-1.242-.18-1.242-.684v-3.78Z" transform="translate(778 7329)" fill="#707070"/>
    </g>
    <g id="Group_64" data-name="Group 64" transform="translate(-126 1246)">
      <circle id="Ellipse_11" data-name="Ellipse 11" cx="65" cy="65" r="65" transform="translate(1099 7269)" fill="#ccc"/>
      <path id="Path_707" data-name="Path 707" d="M-3.2-9.846v1.854H-7.146V-9.846ZM-7.146-3.1V-4.968H-3.2V-3.1ZM-3.2-5.49H-7.146V-7.452H-3.2Zm-7.776-6.768h4.554c-.036.684-.054,1.332-.072,1.872H-6.93l-1.332-.576V-1.4h.18c.576,0,.936-.252.936-.36v-.792H-3.2v.774h.2a1.191,1.191,0,0,0,.936-.36V-9.756a1,1,0,0,0,.72-.324l-1.314-1.026-.594.72H-5.49c.054-.558.108-1.206.162-1.872h4.194c.252,0,.414-.09.468-.288-.576-.522-1.53-1.278-1.53-1.278l-.81,1.062H-5.292l.126-1.656c.36-.072.576-.252.594-.5l-1.8-.144c0,.7-.018,1.512-.054,2.3h-4.7ZM-13.464-10.4h2.25c.252,0,.414-.09.468-.288-.522-.522-1.422-1.278-1.422-1.278l-.774,1.044h-.522v-3.438c.468-.072.594-.234.648-.5l-1.782-.216v4.158h-2.628l.126.522h2.286a19.613,19.613,0,0,1-2.61,7.362l.252.252A14.546,14.546,0,0,0-14.6-6.984V1.35h.252c.4,0,.882-.252.882-.414V-8.37A8.349,8.349,0,0,1-12.1-5.832c1.008.792,1.944-1.278-1.368-2.916ZM-2.736-.288H-9.792V-9.36c.432-.054.576-.234.63-.45l-1.746-.2V1.314h.216c.414,0,.9-.252.9-.432V.234H-.846c.27,0,.432-.09.486-.288-.576-.558-1.548-1.3-1.548-1.3Zm19.674-5.4a.412.412,0,0,0,.414-.342c-.72-.522-1.944-1.224-1.944-1.224L14.544-5.94l-5.76.666V-8.586L15.5-9.432a.444.444,0,0,0,.414-.36C15.192-10.278,14-10.98,14-10.98l-.828,1.3-4.392.558v-3.24a51.777,51.777,0,0,0,5.346-1.368c.45.18.792.162.954,0L13.662-14.94A51.973,51.973,0,0,1,1.44-11.646l.072.36A57.5,57.5,0,0,0,7.6-12.132v3.168L1.458-8.19l.2.486L7.6-8.442V-5.13L.72-4.32l.2.5L7.6-4.59V-.72C7.6.522,8.154.828,9.918.828h2.646c3.78,0,4.536-.18,4.536-.792,0-.252-.144-.414-.612-.558l-.054-2.916H16.2A22.605,22.605,0,0,1,15.534-.63a.54.54,0,0,1-.5.306c-.378.036-1.224.054-2.43.054H10.026c-1.062,0-1.242-.18-1.242-.684v-3.78Z" transform="translate(1164 7342)" fill="#707070"/>
    </g>
    <g id="Group_63" data-name="Group 63" transform="translate(-131 1218)">
      <circle id="Ellipse_10" data-name="Ellipse 10" cx="65" cy="65" r="65" transform="translate(926 7261)" fill="#ccc"/>
      <path id="Path_706" data-name="Path 706" d="M-24.192-5.166l2.052-6.228,2.07,6.228Zm7.164,4.338-4.23-12.42h-1.008L-26.424-.864l-1.62.216V0h4.32V-.648l-1.89-.234,1.17-3.546h4.626L-18.63-.846l-1.98.2V0h5.2V-.648ZM-2.844-6.246H-7.812V-5.6l2.106.162c.036,1.224.054,2.466.054,3.654v.756a6.269,6.269,0,0,1-2.448.5c-3.132,0-5.076-2.268-5.076-6.03,0-3.816,2.07-6.066,5.022-6.066a4.556,4.556,0,0,1,2.43.648l.4,2.376H-4.32l-.072-2.826a7.094,7.094,0,0,0-3.924-1.008A6.492,6.492,0,0,0-14.94-6.57c0,4,2.664,6.858,6.57,6.858A8.444,8.444,0,0,0-4.14-.882v-.882c0-1.314.018-2.52.054-3.708L-2.844-5.6Zm4.086,1.08,2.052-6.228,2.07,6.228ZM8.406-.828l-4.23-12.42H3.168L-.99-.864l-1.62.216V0H1.71V-.648L-.18-.882.99-4.428H5.616L6.8-.846l-1.98.2V0h5.2V-.648ZM16.02-12.8v1.4h.18c.486,0,.954-.162.954-.306v-1.1h4.014v1.35h.2c.54-.018.954-.216.954-.324V-12.8h4.626c.252,0,.432-.09.468-.288-.576-.558-1.53-1.278-1.53-1.278l-.828,1.026H22.32v-1.134c.45-.054.594-.234.612-.486l-1.764-.18v1.8H17.154v-1.134c.45-.054.612-.234.648-.486l-1.782-.18v1.8H11l.09.54ZM25.4-11.412c-.7.774-1.944,2.07-2.808,2.826l.18.18c1.044-.522,2.556-1.332,3.348-1.854.36.108.54.072.63-.054Zm-2.9,3.78a10.685,10.685,0,0,1,3.276,2.376c1.35.468,1.53-2.088-3.114-2.574ZM12.168-4.626a.608.608,0,0,0,.306-.45c1.53-.954,2.7-1.728,3.474-2.25l-.09-.252c-1.872.72-3.78,1.4-4.626,1.656Zm-.252-6.282A8.722,8.722,0,0,1,14.508-8.3c1.278.63,1.818-1.89-2.43-2.79Zm5.418,3.24H21.06v1.836H17.334Zm3.726-2.25v1.71H17.334v-1.71Zm5.634,6.66c.252,0,.432-.09.486-.288-.648-.522-1.6-1.242-1.6-1.242L24.7-3.8H19.764V-5.31h1.3v.72h.18A1.531,1.531,0,0,0,22.212-5V-9.72a1.332,1.332,0,0,0,.72-.342l-1.4-1.1-.63.7H18.882c.288-.306.63-.684.864-.954.36,0,.594-.144.648-.4l-1.746-.36c-.09.486-.27,1.206-.4,1.71h-.828L16.2-11.016V-4.5h.18c.468,0,.954-.27.954-.4V-5.31h1.26V-3.8H11.286l.162.54h5.76A16.418,16.418,0,0,1,10.8.846l.144.306a16.722,16.722,0,0,0,7.65-4.122V1.386h.2c.594,0,.972-.288.972-.378V-3.258h.18A12.7,12.7,0,0,0,26.6,1.08,1.33,1.33,0,0,1,27.63.054l.018-.2a16,16,0,0,1-7.182-3.114Z" transform="translate(991 7334)" fill="#707070"/>
    </g>
    <g id="Group_65" data-name="Group 65" transform="translate(-104 1229)">
      <circle id="Ellipse_12" data-name="Ellipse 12" cx="65" cy="65" r="65" transform="translate(1207 7412)" fill="#ccc"/>
      <path id="Path_705" data-name="Path 705" d="M-21.51-2.664V-4.536h7.128v1.872Zm7.128-4.194v1.782H-21.51V-6.858Zm-.18-.54H-21.42l-1.26-.576V1.35h.2c.5,0,.972-.27.972-.414V-2.142h7.128V-.378c0,.252-.09.378-.45.378-.414,0-2.34-.144-2.34-.144V.144a3.7,3.7,0,0,1,1.6.432,1.081,1.081,0,0,1,.414.81c1.728-.18,1.944-.738,1.944-1.656V-6.642a1.477,1.477,0,0,0,.756-.342l-1.512-1.134Zm2.088-5.508h-4.95v-1.512c.432-.054.612-.234.648-.486l-1.836-.2v2.2H-25.92l.144.5h5.742a21.779,21.779,0,0,1-1.206,2.43c-1.44.036-2.646.036-3.438.036l.7,1.566a.749.749,0,0,0,.486-.378c4.248-.4,7.362-.738,9.684-1.026a5.592,5.592,0,0,1,1.224,1.6c1.476.7,1.782-2.5-3.708-3.708l-.162.2a12.994,12.994,0,0,1,2.2,1.512c-2.286.072-4.464.144-6.282.18A24.639,24.639,0,0,0-18.522-12.4h7.992c.252,0,.432-.09.468-.288-.594-.54-1.566-1.3-1.566-1.3ZM7.938-5.688a.412.412,0,0,0,.414-.342c-.72-.522-1.944-1.224-1.944-1.224L5.544-5.94l-5.76.666V-8.586L6.5-9.432a.444.444,0,0,0,.414-.36C6.192-10.278,5-10.98,5-10.98l-.828,1.3-4.392.558v-3.24A51.777,51.777,0,0,0,5.13-13.734c.45.18.792.162.954,0L4.662-14.94A51.973,51.973,0,0,1-7.56-11.646l.072.36A57.5,57.5,0,0,0-1.4-12.132v3.168l-6.138.774.2.486,5.94-.738V-5.13l-6.876.81.2.5L-1.4-4.59V-.72C-1.4.522-.846.828.918.828H3.564C7.344.828,8.1.648,8.1.036c0-.252-.144-.414-.612-.558L7.434-3.438H7.2A22.605,22.605,0,0,1,6.534-.63a.54.54,0,0,1-.5.306C5.652-.288,4.806-.27,3.6-.27H1.026C-.036-.27-.216-.45-.216-.954v-3.78Zm4.77,2.358a9.713,9.713,0,0,0,.054-1.008V-5.562h4.626V-3.33Zm4.68-2.754H12.762v-.9c.414-.072.54-.234.594-.468l-1.728-.18v3.276c0,1.926-.288,4.032-1.926,5.508l.216.234a5.71,5.71,0,0,0,2.718-4.194h4.752V1.368H17.6c.432,0,.918-.252.918-.378V-6.948c.45-.072.612-.252.648-.5l-1.782-.2Zm-.612-6.444a7.186,7.186,0,0,1-1.764,2.178,6.461,6.461,0,0,1-2.52-2.178Zm1.53-.522H15.39V-14.4c.432-.072.612-.234.63-.486l-1.764-.2v2.034H9.774l.126.522h2.178a6.955,6.955,0,0,0,2.2,2.754A15.764,15.764,0,0,1,9.5-7.686L9.63-7.4a16.9,16.9,0,0,0,5.382-1.89,13.927,13.927,0,0,0,4.572,1.512A1.233,1.233,0,0,1,20.52-8.8V-9a17.854,17.854,0,0,1-4.536-.936,8.091,8.091,0,0,0,2.286-2.592h1.908a.416.416,0,0,0,.45-.27c-.558-.558-1.512-1.314-1.512-1.314Zm3.888.216c.45-.054.612-.234.666-.486l-1.746-.18V-2.232h.216c.4,0,.864-.216.864-.4ZM24.3-14.742V-.414c0,.27-.09.378-.4.378-.36,0-2.052-.144-2.052-.144V.126a2.779,2.779,0,0,1,1.422.432,1.242,1.242,0,0,1,.378.846c1.584-.162,1.782-.756,1.782-1.71v-13.77c.432-.054.612-.216.666-.468Z" transform="translate(1272 7485)" fill="#707070"/>
    </g>
    <g id="Group_61" data-name="Group 61" transform="translate(-141 1250)">
      <circle id="Ellipse_8" data-name="Ellipse 8" cx="65" cy="65" r="65" transform="translate(628 7391)" fill="#ccc"/>
      <path id="Path_704" data-name="Path 704" d="M-15.93-12.312a4.491,4.491,0,0,1,1.782,2.25c1.242.774,2.07-1.728-1.62-2.412Zm5.472,7.524c.018-.234.018-.45.018-.684V-7.848h2.754v3.06ZM-1.6-2.556h-.216c-.2.954-.414,1.926-.522,2.2a.389.389,0,0,1-.36.216c-.234,0-.792.018-1.512.018H-5.8c-.666,0-.738-.108-.738-.414V-4.266h4.41c.252,0,.414-.09.468-.288C-2.268-5.112-3.2-5.85-3.2-5.85L-4.05-4.788H-6.534v-3.06h1.908a.431.431,0,0,0,.468-.288c-.54-.5-1.4-1.206-1.4-1.206l-.756.99h-7.524A12.718,12.718,0,0,0-9.576-13.23c.432-.018.63-.054.774-.234l-1.314-1.17-.81.738h-4.446l.162.522h4.266A13.983,13.983,0,0,1-17.3-6.894l.162.252A14.4,14.4,0,0,0-13.86-8.334l.144.486h2.106v2.394c0,.216-.018.45-.018.666H-16.38l.162.522H-11.7C-11.97-2.3-13.086-.45-16.614,1.1l.162.288C-11.988.018-10.8-2.16-10.512-4.266h2.826v4c0,.918.306,1.224,1.674,1.224h1.764c2.664,0,3.222-.2,3.222-.72,0-.252-.108-.4-.522-.522Zm-.774-10.368A19.951,19.951,0,0,1-4.77-10.512,11.458,11.458,0,0,1-6.3-11.934a18.147,18.147,0,0,0,2.808-1.782c.4.108.54.054.666-.126l-1.494-.9a19.6,19.6,0,0,1-2.268,2.484A10.037,10.037,0,0,1-8.262-15.1l-.306.18A12.57,12.57,0,0,0-1.656-7.056,1.363,1.363,0,0,1-.54-8.028l.036-.2a14.209,14.209,0,0,1-3.888-2A19.181,19.181,0,0,0-1.53-11.88c.378.09.54.018.666-.144ZM16.938-5.688a.412.412,0,0,0,.414-.342c-.72-.522-1.944-1.224-1.944-1.224L14.544-5.94l-5.76.666V-8.586L15.5-9.432a.444.444,0,0,0,.414-.36C15.192-10.278,14-10.98,14-10.98l-.828,1.3-4.392.558v-3.24a51.777,51.777,0,0,0,5.346-1.368c.45.18.792.162.954,0L13.662-14.94A51.973,51.973,0,0,1,1.44-11.646l.072.36A57.5,57.5,0,0,0,7.6-12.132v3.168L1.458-8.19l.2.486L7.6-8.442V-5.13L.72-4.32l.2.5L7.6-4.59V-.72C7.6.522,8.154.828,9.918.828h2.646c3.78,0,4.536-.18,4.536-.792,0-.252-.144-.414-.612-.558l-.054-2.916H16.2A22.605,22.605,0,0,1,15.534-.63a.54.54,0,0,1-.5.306c-.378.036-1.224.054-2.43.054H10.026c-1.062,0-1.242-.18-1.242-.684v-3.78Zm-59.22,18.674c.648.378,1.044.63,1.044,1.116,0,.612-1.188,2.826-2.376,4.554A25.24,25.24,0,0,0-48.258,16.3l-.252.414A31.138,31.138,0,0,1-44.3,19.574a25.744,25.744,0,0,1-7.488,6.3l.234.36a20.525,20.525,0,0,0,8.1-5.94c2.34,2.088,2.448,3.276,3.168,3.276.414,0,.612-.324.612-.738-.018-.936-1.692-2.538-3.024-3.546,1.116-1.512,2.124-3.33,2.484-3.924.306-.558.72-.612.72-.954,0-.468-.63-1.134-1.26-1.458a3.556,3.556,0,0,0-1.4-.288Zm20.844,2.862c.252-.594.774-.684.774-1.062,0-.486-1.026-1.44-1.8-1.566a5.182,5.182,0,0,0-1.17-.036l-.144.4c1.3.432,1.368.7,1.224,1.26-.828,3.312-4.338,8.46-9.414,11.3l.288.4A19.8,19.8,0,0,0-21.438,15.848Zm-9.378.72c.792,1.17,1.044,2.07,1.6,2.052.378,0,.63-.342.63-.792-.036-1.314-2.052-2.952-3.888-3.816l-.27.36A12.572,12.572,0,0,1-30.816,16.568Zm24.1,4.248a23.894,23.894,0,0,0,3.492-2.97c.414-.414.936-.468.936-.846,0-.432-1.224-1.4-1.746-1.4-.27,0-.4.324-.918.468-1.062.306-3.348.936-4.9,1.386.072-1.17.144-2.178.216-2.7.072-.54.432-.756.432-1.17,0-.4-1.17-1.08-1.818-1.08a4.33,4.33,0,0,0-1.332.234l.018.342c.882.126,1.422.234,1.458.684.054.72,0,2.52-.036,4a30.323,30.323,0,0,1-4.338,1.116c-.45,0-.738-.36-1.1-.9l-.288.108a2.028,2.028,0,0,0,.108.954,2.847,2.847,0,0,0,1.638,1.242c.5,0,.522-.252,1.17-.54.756-.324,1.926-.738,2.79-1.026-.036,1.188-.09,2.97-.054,4.212.036,2.376,1.116,2.538,3.942,2.538a22.163,22.163,0,0,0,3.582-.306c.486-.072.828-.234.828-.558,0-.468-.72-.684-1.206-.684a17.891,17.891,0,0,1-3.744.4c-2.2,0-2.376-.144-2.412-1.62-.018-1.062.036-2.754.108-4.338,1.62-.54,4.374-1.422,5.364-1.584.252-.036.324.09.2.306a18.564,18.564,0,0,1-2.7,3.438Zm10.26-3.132c.18.432.972,1.17,1.4,1.17.4,0,.648-.324,1.206-.45,1.224-.252,5.166-.828,6.624-.972.234-.036.288.072.216.288a17.221,17.221,0,0,1-8.3,8.694l.252.414a16.2,16.2,0,0,0,9.144-8.19c.216-.45.918-.648.918-.99,0-.45-1.1-1.368-1.638-1.368-.306,0-.468.27-.972.342-1.26.18-6.5.864-7.56.864-.522,0-.828-.414-1.206-.972l-.342.162A4.351,4.351,0,0,0,3.546,17.684ZM13.1,13.292c0-.432-.612-.684-1.386-.684-.378,0-.612.288-1.674.522a13.1,13.1,0,0,1-2.934.414,2.8,2.8,0,0,1-1.728-.72l-.27.234c.594.954,1.1,1.458,2.016,1.458a31.979,31.979,0,0,0,5.184-.684C12.888,13.706,13.1,13.544,13.1,13.292Zm16.344,2.25a2.015,2.015,0,0,1,.432.594c.144.306.09.45-.216.684a25.2,25.2,0,0,1-6.012,2.934c.072-1.728.162-3.618.252-4.392.054-.558.4-.63.4-.972,0-.432-1.044-1.116-1.782-1.152a4.682,4.682,0,0,0-1.278.234l.018.324c.936.126,1.332.234,1.4.738.09.846-.126,6.768-.108,8.37.018,2.538.486,3.078,3.708,3.078a23.13,23.13,0,0,0,5.346-.432c.342-.126.594-.288.594-.648,0-.414-.54-.612-1.386-.612a23.873,23.873,0,0,1-4.68.576c-2.16,0-2.556-.126-2.556-1.89,0-.468.018-1.422.054-2.5a41.613,41.613,0,0,0,6.786-2.646c.684-.36,1.152-.468,1.152-.828a2.413,2.413,0,0,0-1.008-1.386,2.063,2.063,0,0,0-.846-.306Zm3.672-.216a1.333,1.333,0,0,1-1.35-1.332,1.341,1.341,0,1,1,2.682,0A1.329,1.329,0,0,1,33.12,15.326Zm0-3.258a1.926,1.926,0,1,0,1.926,1.926A1.944,1.944,0,0,0,33.12,12.068Zm4.068,6.426A3.194,3.194,0,0,0,37.35,19.5c.252.612,1.1,1.494,1.6,1.494.522,0,.72-.27,1.746-.378,1.35-.162,6.408-.432,7.542-.432,1.1,0,1.728.036,2.358.036.612,0,.792-.2.792-.522,0-.486-.81-.792-1.494-.792-.468,0-.972.108-2.178.2-.828.036-7.128.45-8.73.45-.756,0-1.044-.558-1.44-1.17Z" transform="translate(693 7451)" fill="#707070"/>
    </g>
  </g>
</svg>
