<svg xmlns="http://www.w3.org/2000/svg" xmlns:xlink="http://www.w3.org/1999/xlink" width="282" height="282" viewBox="0 0 282 282">
  <defs>
    <filter id="Ellipse_25" x="0" y="0" width="282" height="282" filterUnits="userSpaceOnUse">
      <feOffset dy="3" input="SourceAlpha"/>
      <feGaussianBlur stdDeviation="3" result="blur"/>
      <feFlood flood-color="#01abab" flood-opacity="0.161"/>
      <feComposite operator="in" in2="blur"/>
      <feComposite in="SourceGraphic"/>
    </filter>
  </defs>
  <g id="Group_149" data-name="Group 149" transform="translate(9 6)">
    <g transform="matrix(1, 0, 0, 1, -9, -6)" filter="url(#Ellipse_25)">
      <circle id="Ellipse_25-2" data-name="Ellipse 25" cx="132" cy="132" r="132" transform="translate(9 6)" fill="#fff"/>
    </g>
    <path id="Path_710" data-name="Path 710" d="M-52.588-15.2c.912-3.04,1.786-6.118,2.584-9.31h.19c.836,3.154,1.672,6.27,2.622,9.31l1.1,3.762h-7.638ZM-61.632,0h4.484l2.394-7.98h9.728L-42.67,0H-38l-9.272-28.006H-52.36Zm38.3.494a12.565,12.565,0,0,0,8.854-3.268V-14.9h-9.538v3.61h5.548v6.574a6.936,6.936,0,0,1-4.408,1.368c-5.776,0-8.854-4.066-8.854-10.716,0-6.574,3.458-10.6,8.664-10.6a7.714,7.714,0,0,1,5.814,2.508l2.356-2.812A11.157,11.157,0,0,0-23.214-28.5c-7.41,0-13.034,5.472-13.034,14.592C-36.248-4.75-30.776.494-23.328.494ZM-2.96-15.2c.912-3.04,1.786-6.118,2.584-9.31h.19c.836,3.154,1.672,6.27,2.622,9.31l1.1,3.762H-4.1ZM-12,0H-7.52l2.394-7.98H4.6L6.958,0h4.674L2.36-28.006H-2.732ZM35.182-7.7a22.879,22.879,0,0,0-5.475-3.15l-.675.775A24.17,24.17,0,0,1,34.482-6.8Zm-1.7-8.325a29.456,29.456,0,0,1-4.1,3.475l.825.55a30.026,30.026,0,0,0,4.3-3.425Zm-14.225.3h1.175V-17.85h7.3v2.125h1.175V-17.85h6.25v-1.1h-6.25v-1.875H27.732v1.875h-7.3v-1.875H19.257v1.875H13.182v1.1h6.075Zm-5.225.6a14.35,14.35,0,0,1,3.675,3.4l.9-.725a14.468,14.468,0,0,0-3.725-3.325Zm4.775,4.75c-2.15.975-4.325,1.95-5.825,2.525l.575,1c1.6-.7,3.6-1.65,5.5-2.55Zm2.075-.3h6.6V-8.2h-6.6Zm0-3.425h6.6v2.45h-6.6Zm14.25,9.625v-1.1H24.682v-1.65h3.95v-7.85H24.057c.225-.525.5-1.125.725-1.725l-1.15-.3a16.334,16.334,0,0,1-.7,2.025H19.757v7.85h3.725v1.65h-10.3v1.1h8.875a24.4,24.4,0,0,1-9.375,5,4.768,4.768,0,0,1,.775.95,24.721,24.721,0,0,0,10-5.95h.025V1.8h1.2V-4.475h.025c2.3,2.6,6.4,4.8,10.075,5.825a3.6,3.6,0,0,1,.775-.975,21.958,21.958,0,0,1-9.525-4.85ZM47.757-19.6l-1.325-.1a11.665,11.665,0,0,1-.725,3.25c-.65.025-1.275.025-1.875.025a35.953,35.953,0,0,1-4.125-.25V-15.4c1.375.075,2.925.125,4.05.125.475,0,.975,0,1.5-.025a26.061,26.061,0,0,1-5.925,8.125l1.15.825a30.885,30.885,0,0,1,2.25-2.525,6.916,6.916,0,0,1,4.55-1.9,2.21,2.21,0,0,1,2.5,2l-.05.025c-2.95,1.525-5.8,3.3-5.8,6.075,0,2.925,2.85,3.6,6.225,3.6a59.9,59.9,0,0,0,6.7-.45L56.882-.8a46.133,46.133,0,0,1-6.65.525c-2.675,0-5.05-.25-5.05-2.525,0-1.925,2.05-3.425,4.6-4.775,0,1.4-.025,3.35-.075,4.425h1.3c-.025-1.25-.05-3.55-.075-5,2.1-1.025,4.125-1.825,5.7-2.45.575-.25,1.2-.5,1.75-.675L57.807-12.5c-.55.3-1,.5-1.625.775-1.475.7-3.3,1.425-5.275,2.375a3.035,3.035,0,0,0-3.275-2.5,7.489,7.489,0,0,0-3.875,1.2,21.559,21.559,0,0,0,2.775-4.675,70.049,70.049,0,0,0,8.375-.7v-1.25a62.48,62.48,0,0,1-7.95.8A24.02,24.02,0,0,0,47.757-19.6Z" transform="translate(132 156)" fill="#01abab"/>
    <path id="Path_709" data-name="Path 709" d="M-63.973-31.154a39.97,39.97,0,0,1-9.176,14.208,22.956,22.956,0,0,1,1.887,3.478,37.59,37.59,0,0,0,3.589-4.218V3.071h3.256V-22.644a62.894,62.894,0,0,0,3.663-7.437Zm6.179,17.834v-4.7h5.661v4.7Zm14.911-4.7v4.7h-5.846v-4.7Zm3.293,7.548v-10.4h-9.139V-24.05h10.212v-3.145H-48.729v-3.663h-3.4v3.663h-9.731v3.145h9.731v3.182h-8.806v10.4h8.584A12.27,12.27,0,0,1-54.02-5.439a15.2,15.2,0,0,1-4.144-4.44l-2.812.888a20.134,20.134,0,0,0,4.958,5.772A16.946,16.946,0,0,1-63.307.111,14.688,14.688,0,0,1-61.2,3a19.517,19.517,0,0,0,7.992-4.255,35.92,35.92,0,0,0,13.1,4.218A15.023,15.023,0,0,1-38.073-.148,36.658,36.658,0,0,1-51.208-3.7a15.023,15.023,0,0,0,2.257-6.771Zm13.1-16.169c0,.407-.074,1.628-.185,3.219-1.776.259-3.7.481-4.847.555a23.532,23.532,0,0,1-2.775.037l.37,3.774c2.22-.3,5.291-.7,7.03-.925-.074,1.036-.148,2.146-.222,3.182-2,3.034-5.994,8.362-8.066,10.952l2.294,3.219c1.554-2.146,3.737-5.328,5.476-7.881-.111,4.107-.111,6.216-.148,9.694,0,.592-.074,1.776-.111,2.442h4c-.074-.777-.148-1.85-.185-2.516-.222-3.367-.185-5.994-.185-9.213,0-1.184.037-2.479.111-3.848,3.256-3,6.956-5.032,11.063-5.032a6.274,6.274,0,0,1,6.66,6.142c.037,6.1-5.143,8.88-11.507,9.842l1.7,3.515C-7.437-1.147-2.331-5.291-2.368-12.765c0-5.846-4.551-9.62-9.916-9.62a18.642,18.642,0,0,0-11.4,4.255c.037-.592.111-1.221.148-1.813.592-.925,1.3-2,1.739-2.664l-1.258-1.554h-.037c.259-2.405.555-4.366.777-5.328l-4.329-.148A20.583,20.583,0,0,1-26.492-26.64ZM17.02-29.563l-4.07-.407a30.2,30.2,0,0,1-1.073,6.327c-1.3.111-2.59.148-3.811.148-1.48,0-3.256-.074-4.7-.222l.259,3.441c1.48.074,3.034.111,4.44.111.888,0,1.776-.037,2.7-.074A55.565,55.565,0,0,1,3-6.734L6.549-4.921a66.2,66.2,0,0,0,8.029-15.725A49.666,49.666,0,0,0,21.2-21.978l-.111-3.4a35.377,35.377,0,0,1-5.439,1.258C16.206-26.2,16.724-28.268,17.02-29.563Zm-2,25.641c0-1.517,1.665-2.627,4.107-2.627a12.882,12.882,0,0,1,3.441.481c.037.481.037.925.037,1.258,0,2-.925,3.552-3.737,3.552C16.354-1.258,15.022-2.331,15.022-3.922ZM25.715-18.093H22.089c.074,2.442.259,5.92.37,8.843a21.213,21.213,0,0,0-3.145-.259c-4.588,0-7.733,2.442-7.733,5.92,0,3.848,3.478,5.7,7.77,5.7,4.884,0,6.771-2.553,6.771-5.7V-4.625a28.876,28.876,0,0,1,5.55,4.144l1.961-3.145a24.11,24.11,0,0,0-7.659-4.662c-.111-2.109-.222-4.255-.259-5.476C25.678-15.244,25.641-16.539,25.715-18.093Zm6.956,1.406,2.109-3.071a65.5,65.5,0,0,0-8.88-4.958l-1.887,2.849A47.048,47.048,0,0,1,32.671-16.687Zm13.172-9.4-4.514-.074a18.93,18.93,0,0,1,.3,3.478c0,2.22.037,6.66.407,9.916,1,9.731,4.44,13.283,8.177,13.283,2.7,0,5-2.183,7.326-8.51l-2.923-3.441c-.851,3.367-2.479,7.4-4.329,7.4-2.479,0-4-3.922-4.551-9.731a82.84,82.84,0,0,1-.259-8.325A30.287,30.287,0,0,1,45.843-26.085Zm18.944.925-3.663,1.221C64.861-19.5,66.97-11.285,67.6-4.921L71.41-6.4C70.929-12.4,68.191-20.868,64.787-25.16Z" transform="translate(132 208)" fill="#01abab"/>
    <g id="Group_148" data-name="Group 148" transform="translate(99 44.167)">
      <g id="Layer_2" data-name="Layer 2" transform="translate(0 1.262)">
        <g id="Group_146" data-name="Group 146" transform="translate(0 0)">
          <path id="Path_458" data-name="Path 458" d="M62.211,16.189a16.145,16.145,0,0,1-4.744,11.445l-2.537,2.537a18.589,18.589,0,0,0-18.949,3.05L21.04,18.281,34.576,4.735A16.189,16.189,0,0,1,62.211,16.189Z" transform="translate(-0.67 0)" fill="#01abab"/>
          <path id="Path_459" data-name="Path 459" d="M28.661,48.186A18.543,18.543,0,0,0,30,55.129l-2.363,2.363A16.186,16.186,0,1,1,4.745,34.6L17.5,21.84l15,15.008a18.593,18.593,0,0,0-3.834,11.338Z" transform="translate(-0.003 -0.693)" fill="#01abab"/>
          <path id="Path_460" data-name="Path 460" d="M46.313,34.24V62.92a14.482,14.482,0,0,1-11.939-10.7,14.107,14.107,0,0,1-.465-3.641A14.479,14.479,0,0,1,46.313,34.24Z" transform="translate(-1.079 -1.087)" fill="#01abab"/>
          <path id="Path_461" data-name="Path 461" d="M50.98,34.24V62.92a14.482,14.482,0,0,0,11.939-10.7,14.107,14.107,0,0,0,.465-3.641,14.479,14.479,0,0,0-12.4-14.34Z" transform="translate(-1.62 -1.087)" fill="#01abab"/>
        </g>
      </g>
      <g id="Group_147" data-name="Group 147" transform="translate(1.262)">
        <line id="Line_13" data-name="Line 13" x2="65" y2="66" transform="translate(0.31 -0.167)" fill="none" stroke="#e74b21" stroke-width="1"/>
        <line id="Line_14" data-name="Line 14" x1="65" y2="66" transform="translate(0.31 -0.167)" fill="none" stroke="#e74b21" stroke-width="1"/>
      </g>
    </g>
  </g>
</svg>
