<svg xmlns="http://www.w3.org/2000/svg" width="200" height="270" viewBox="0 0 200 270">
  <g id="Group_189" data-name="Group 189" transform="translate(-1047 -1393)">
    <g id="Group_185" data-name="Group 185" transform="translate(360)">
      <rect id="Rectangle_1" data-name="Rectangle 1" width="180" height="50" transform="translate(697 1613)" fill="#e74b21"/>
      <g id="Rectangle_109" data-name="Rectangle 109" transform="translate(702 1618)" fill="none" stroke="#fff" stroke-width="1">
        <rect width="170" height="40" stroke="none"/>
        <rect x="-0.5" y="-0.5" width="171" height="41" fill="none"/>
      </g>
      <path id="Path_676" data-name="Path 676" d="M-52.218,0h1.674V-6.228h6.156V0h1.656V-13.212h-1.656v5.544h-6.156v-5.544h-1.674Zm18.09.234a5.1,5.1,0,0,0,4.05-1.89L-31-2.7a4.01,4.01,0,0,1-3.06,1.476c-2.52,0-4.1-2.088-4.1-5.418,0-3.294,1.656-5.346,4.158-5.346a3.6,3.6,0,0,1,2.7,1.26l.9-1.08a4.879,4.879,0,0,0-3.618-1.638c-3.348,0-5.85,2.592-5.85,6.858C-39.87-2.3-37.4.234-34.128.234ZM-27.63,0h1.674V-5.6h2.376l3.2,5.6h1.89L-21.87-5.778a3.579,3.579,0,0,0,2.988-3.708c0-2.754-1.926-3.726-4.608-3.726h-4.14Zm1.674-6.948v-4.9h2.214c2.07,0,3.2.612,3.2,2.358,0,1.71-1.134,2.538-3.2,2.538ZM-3.4-13.1l-1.656-.576a10.325,10.325,0,0,1-.36,1.332A20.137,20.137,0,0,1-7.866-7.434c-1.422-1.1-3.51-2.574-5.058-3.564l-.936,1.134A56.313,56.313,0,0,1-8.784-6.228,19.985,19.985,0,0,1-15.93-.576L-14.688.558A22.932,22.932,0,0,0-7.632-5.256a40.144,40.144,0,0,1,4.248,4.14L-2.25-2.358A45.046,45.046,0,0,0-6.7-6.48,25.074,25.074,0,0,0-4-11.79,9.713,9.713,0,0,1-3.4-13.1ZM4.77-.648,6.12.486a14.981,14.981,0,0,0,6.372-5.544,18.468,18.468,0,0,0,2.466-6.426c.072-.324.216-.954.36-1.422l-1.8-.252a7.81,7.81,0,0,1-.144,1.476,14.847,14.847,0,0,1-2.25,5.868A13.826,13.826,0,0,1,4.77-.648Zm-1.1-12.294-1.422.72a48.372,48.372,0,0,1,3.006,5.2L6.7-7.83C6.048-9,4.464-11.772,3.672-12.942Zm23.04,2.574-1.314.45a33.93,33.93,0,0,1,1.4,3.906l1.332-.468C27.9-7.272,27.018-9.648,26.712-10.368ZM33.228-9.36,31.68-9.846A12.343,12.343,0,0,1,29.2-3.69,12.12,12.12,0,0,1,23.346.144L24.534,1.35A13.716,13.716,0,0,0,30.4-2.934,14.108,14.108,0,0,0,32.958-8.46C33.03-8.694,33.1-8.982,33.228-9.36ZM22.536-9.468,21.2-8.946a32.2,32.2,0,0,1,1.6,4.05l1.368-.5C23.832-6.336,22.9-8.694,22.536-9.468Zm25.29-3.492-.99.45a17.864,17.864,0,0,1,1.6,2.736l1.026-.468A27.122,27.122,0,0,0,47.826-12.96ZM50-13.86l-.99.468a17.511,17.511,0,0,1,1.674,2.7l1.008-.5A24.309,24.309,0,0,0,50-13.86Zm-8.5,12.51A19.711,19.711,0,0,1,41.4.774h1.728C43.074.2,43.02-.774,43.02-1.35V-7.272a46.129,46.129,0,0,1,7.056,2.88l.63-1.53a61.144,61.144,0,0,0-7.686-2.97v-2.934a16.626,16.626,0,0,1,.126-1.872H41.364a11.361,11.361,0,0,1,.144,1.872Z" transform="translate(787 1646)" fill="#fff"/>
    </g>
    <g id="Group_187" data-name="Group 187" transform="translate(7)">
      <circle id="Ellipse_28" data-name="Ellipse 28" cx="100" cy="100" r="100" transform="translate(1040 1393)" fill="#fef6f3"/>
      <path id="Path_675" data-name="Path 675" d="M-59.5-16.525a17.631,17.631,0,0,0-2.15-4.2l-1.025.425a18.124,18.124,0,0,1,2.1,4.275Zm-11.675,8.7q.075-1.687.075-3.15V-12.8h4.15v4.975Zm4.225-10.9v4.8H-71.1v-4.8Zm1.1-1.125h-6.325v8.875c0,3.675-.15,8.65-1.875,12.225a3.944,3.944,0,0,1,.975.6,24.038,24.038,0,0,0,1.85-8.55h4.275V0c0,.375-.15.5-.475.5-.3,0-1.4.025-2.7-.025A6.351,6.351,0,0,1-69.7,1.6a12.374,12.374,0,0,0,3.125-.2c.5-.225.725-.6.725-1.375Zm3.25,5.15h8.775v5.375H-62.6ZM-55.125.375c-.65,0-.775-.1-.775-.7v-7.9h3.275v-7.6h-3.2c.825-1.325,1.75-3.05,2.5-4.55l-1.2-.45a33.956,33.956,0,0,1-2.6,5h-6.65v7.6H-60.8c-.3,4.15-1.2,7.45-4.8,9.15a3.783,3.783,0,0,1,.75.9C-61-.1-59.95-3.65-59.6-8.225h2.55V-.35c0,1.425.375,1.825,1.8,1.825h2.5c1.3,0,1.625-.75,1.725-3.825a3.317,3.317,0,0,1-1.05-.475c-.075,2.775-.175,3.2-.775,3.2ZM-36.275.2c-1.8,0-2.175-.35-2.175-1.65V-5.9l11.775-1.575-.15-1.125L-38.45-7.05v-4.575l10.025-1.425-.2-1.1-9.825,1.375V-17.25a50.711,50.711,0,0,0,8.825-2.4l-1.075-.925c-3.75,1.6-11.025,2.95-17.225,3.8A3.065,3.065,0,0,1-47.6-15.75c2.575-.35,5.325-.75,7.95-1.25v4.375l-7.95,1.15.2,1.125,7.75-1.1V-6.9l-8.675,1.15.2,1.125L-39.65-5.75v4.275c0,2.3.775,2.85,3.4,2.85h6.925c2.475,0,2.9-1.05,3.175-4.3a4.345,4.345,0,0,1-1.2-.55C-27.525-.5-27.775.2-29.3.2Zm18-20.925a30.562,30.562,0,0,1-5.65,10.3,8.455,8.455,0,0,1,.75,1.075,25.888,25.888,0,0,0,2.5-3.475V1.8h1.15V-14.85a41.048,41.048,0,0,0,2.375-5.575ZM-1.3-14.275v-1.15H-9.1v-5.35h-1.175v5.35H-17.75v1.15h6.525c-1.625,4.4-4.425,8.825-7.275,11a3.634,3.634,0,0,1,.875.875c2.9-2.4,5.675-6.925,7.35-11.6v9.8h-4.6v1.125h4.6v4.8H-9.1v-4.8h4.4V-4.2H-9.1v-9.825c1.6,4.65,4.325,9.2,7.225,11.575A8.641,8.641,0,0,1-.95-3.425c-2.85-2.1-5.625-6.45-7.15-10.85ZM8-16.25v3.425H9.1V-16.25h3.275v-1.025h-7.9v-1.55a42.641,42.641,0,0,0,7.15-1.1L10.7-20.75a44.882,44.882,0,0,1-6.2,1.025l-1.175-.35V-17.5A6.56,6.56,0,0,1,1.3-12.35a3.15,3.15,0,0,1,.825.8A7.365,7.365,0,0,0,4.4-16.25ZM5.75-5.2H19.425v2.175H5.75Zm0-3.075H19.425v2.15H5.75Zm0-3.075H19.425v2.125H5.75ZM4.6-2.05H20.625V-12.275H4.6Zm4.325.55A33.139,33.139,0,0,1,1.55.95a6.157,6.157,0,0,1,.875.95,37.484,37.484,0,0,0,7.6-2.9Zm6.05.725a54.855,54.855,0,0,1,7.3,2.65l1.25-.725a69.505,69.505,0,0,0-7.6-2.6Zm-.425-16.5a3.521,3.521,0,0,0,.025-.5v-1.05a43.8,43.8,0,0,0,7.675-1.05l-.925-.825a50.486,50.486,0,0,1-6.75,1l-1.1-.3v2.2a4.813,4.813,0,0,1-2.4,4.35,2.792,2.792,0,0,1,.8.825A5.9,5.9,0,0,0,14.4-16.25h4.05v3.525h1.125V-16.25h4.05v-1.025ZM29.4-2.725c-1.1,0-1.325-.15-1.325-.85V-10.6H33.8v1h1.15v-8.875H26.9v1.15h6.9v5.575H26.925v8.2c0,1.6.525,1.975,2.425,1.975h4.225c1.75,0,2.1-.75,2.25-3.75a4.377,4.377,0,0,1-1.1-.5c-.1,2.675-.25,3.1-1.2,3.1Zm9.8-12.25h6.35a24.71,24.71,0,0,1-3.2,9.45,30.732,30.732,0,0,1-3.25-9.2Zm9.7,0v-1.15H39.625a39.4,39.4,0,0,0,1.225-4.5l-1.225-.2C38.8-16.65,37.3-12.75,35.15-10.2a10.01,10.01,0,0,1,1.075.725A19.092,19.092,0,0,0,38.35-13,29.394,29.394,0,0,0,41.6-4.475a16.351,16.351,0,0,1-7.675,5.3,5.961,5.961,0,0,1,.75,1.075,18.365,18.365,0,0,0,7.6-5.3A14.651,14.651,0,0,0,48.3,1.825,5.492,5.492,0,0,1,49.125.8a13.852,13.852,0,0,1-6.1-5.225c1.875-2.7,3.05-6.125,3.775-10.55ZM69.05-3.825V-.15H56.15V-3.825ZM54.975,1.8H56.15V.9h12.9v.825h1.2V-4.85H54.975Zm12.75-9.5a24.068,24.068,0,0,0,1.85-2.5L68.4-10.6a19.289,19.289,0,0,1-1.8,2.675l.7.225H63.05v-2.975h9.975v-1.05H63.05V-13.85h7.7v-1h-7.7v-2.1h9.2v-1.025H66.875c.5-.7,1.125-1.625,1.625-2.475l-1.175-.4a23.263,23.263,0,0,1-1.75,2.875H59.2l.175-.075a12.033,12.033,0,0,0-1.9-2.725l-1.025.4a14.006,14.006,0,0,1,1.625,2.4h-5.25v1.025H61.85v2.1H54.275v1H61.85v2.125H52.175v1.05H61.85V-7.7h-4.6l.9-.35A11.361,11.361,0,0,0,56.4-10.6l-1.05.375A9.439,9.439,0,0,1,56.95-7.7h-5.5v1.05H73.6V-7.7Z" transform="translate(1140 1504)" fill="#e74b21"/>
      <path id="Path_674" data-name="Path 674" d="M1.2,0H2.316V-3.492H3.768c1.932,0,3.24-.864,3.24-2.724,0-1.92-1.32-2.592-3.288-2.592H1.2ZM2.316-4.392V-7.9h1.26c1.548,0,2.328.408,2.328,1.68s-.732,1.824-2.28,1.824ZM12.036.156c2.208,0,3.756-1.764,3.756-4.584s-1.548-4.536-3.756-4.536S8.28-7.248,8.28-4.428,9.828.156,12.036.156Zm0-.972c-1.584,0-2.616-1.416-2.616-3.612s1.032-3.564,2.616-3.564,2.616,1.356,2.616,3.564S13.608-.816,12.036-.816ZM17.688,0H18.8V-8.808H17.688ZM21.2,0H22.26V-4.62c0-.924-.084-1.86-.132-2.748h.048l.948,1.812L26.328,0h1.14V-8.808H26.412v4.584c0,.912.084,1.9.144,2.784H26.5L25.56-3.252l-3.2-5.556H21.2ZM31.7,0H32.82V-7.86h2.664v-.948H29.04v.948H31.7Z" transform="translate(1122 1446)" fill="#e74b21"/>
    </g>
  </g>
</svg>
