<svg xmlns="http://www.w3.org/2000/svg" width="200" height="270" viewBox="0 0 200 270">
  <g id="Group_188" data-name="Group 188" transform="translate(-662 -1393)">
    <g id="Group_186" data-name="Group 186" transform="translate(-14)">
      <circle id="Ellipse_2" data-name="Ellipse 2" cx="100" cy="100" r="100" transform="translate(676 1393)" fill="#f2f7f9"/>
      <path id="Path_673" data-name="Path 673" d="M-61.275.2c-1.8,0-2.175-.35-2.175-1.65V-5.9l11.775-1.575-.15-1.125L-63.45-7.05v-4.575l10.025-1.425-.2-1.1-9.825,1.375V-17.25a50.711,50.711,0,0,0,8.825-2.4l-1.075-.925c-3.75,1.6-11.025,2.95-17.225,3.8A3.065,3.065,0,0,1-72.6-15.75c2.575-.35,5.325-.75,7.95-1.25v4.375l-7.95,1.15.2,1.125,7.75-1.1V-6.9l-8.675,1.15.2,1.125L-64.65-5.75v4.275c0,2.3.775,2.85,3.4,2.85h6.925c2.475,0,2.9-1.05,3.175-4.3a4.345,4.345,0,0,1-1.2-.55C-52.525-.5-52.775.2-54.3.2Zm32.3-20.7a15.431,15.431,0,0,1-6.475,3,6.528,6.528,0,0,1,.675.825,16,16,0,0,0,6.675-3.2Zm.825,3.525A20.025,20.025,0,0,1-35.175-13.9a5.331,5.331,0,0,1,.7.825,22.2,22.2,0,0,0,7.15-3.25Zm.75,3.875c-1.725,1.475-5.225,2.65-8.45,3.2a4.78,4.78,0,0,1,.6.85c3.325-.625,6.9-1.8,8.7-3.425Zm-20.475,2.75.2,1c2.55-.15,6.025-.4,9.5-.675A13.222,13.222,0,0,1-37.25-8.85l.975-.55a22.514,22.514,0,0,0-2.95-3.2l-.925.475c.4.375.825.825,1.225,1.25-2,.125-4,.25-5.725.35.375-.7.775-1.525,1.15-2.325h7.525v-.925h-8.95V-14.95h7.475v-.85h-7.475v-1.225H-37.5V-17.9h-7.425v-1.2h8.075V-20h-9.175v6.225h-2.15v.925h3.45c-.325.775-.75,1.7-1.125,2.4Zm15.95,6.55a11.947,11.947,0,0,1-4.15,2.7A12.345,12.345,0,0,1-40.55-3.8ZM-30.8-4.825l-.275.075h-10.35a17.575,17.575,0,0,0,.95-1.95H-26.55V-7.725H-40.075c.15-.425.3-.85.425-1.275l-1.25-.275c-.125.525-.3,1.025-.475,1.55h-7.05V-6.7H-41.8a16.021,16.021,0,0,1-7.025,7.8,4.93,4.93,0,0,1,.95.775A16.415,16.415,0,0,0-42-3.8h.2A12.154,12.154,0,0,0-37.35-.6,33.067,33.067,0,0,1-44,.9a5.1,5.1,0,0,1,.65.975A32.842,32.842,0,0,0-36.025-.05a34.317,34.317,0,0,0,9.075,1.9,4.4,4.4,0,0,1,.675-1,38.336,38.336,0,0,1-8.45-1.475,11.8,11.8,0,0,0,4.6-3.725Zm18.8-.7v-3.75h6.6v3.75Zm-7.625-3.75h6.45v3.75h-6.45ZM-13.175-14v3.625h-6.45V-14ZM-5.4-14v3.625H-12V-14Zm4.275,8.475h-3.1v-9.6H-12V-18.05H-1.975V-19.2h-21v1.15h9.8v2.925H-20.8v9.6h-3.025V-4.4H-20.8V1.9h1.175V-4.4H-5.4V.1c0,.425-.15.55-.6.575s-2.05.05-3.85,0a6.117,6.117,0,0,1,.5,1.2,20.073,20.073,0,0,0,4.2-.225c.675-.225.925-.625.925-1.55V-4.4h3.1ZM13.15-.2V-7.325h8.425V-8.5H13.15v-6.125h9.3v-1.15h-9.3v-5.05H11.925v5.05h-5.8a39.725,39.725,0,0,0,1.525-4.3l-1.225-.25a23.32,23.32,0,0,1-4.7,9.375c.3.175.85.525,1.075.7a19.642,19.642,0,0,0,2.8-4.375h6.325V-8.5H4.1v1.175h7.825V-.2H1.5V.975H23.575V-.2Zm20.9-9.45c-1,.3-2.05.625-3.05.925V-14.45h2.95V-15.6H31v-5.225H29.825V-15.6H26.4v1.15h3.425v6.075c-1.4.425-2.7.8-3.725,1.075l.4,1.175c1-.3,2.125-.675,3.325-1.025V.2c0,.375-.15.5-.5.5-.3.025-1.4.025-2.7,0a5.354,5.354,0,0,1,.4,1.1,10.816,10.816,0,0,0,3.2-.2C30.75,1.375,31,1.05,31,.175v-7.7c1.05-.35,2.125-.7,3.2-1.025Zm11.675-.525a17,17,0,0,1-4.6,6.575,17.97,17.97,0,0,1-4.15-6.575Zm.775-1.2-.25.05H41.725v-4.2H47.95v-1.15H41.725v-4.15h-1.2v4.15H34.35v1.15h6.175v4.2h-5.65v1.15h.9a20.075,20.075,0,0,0,4.425,7.3A20.093,20.093,0,0,1,32.925.75a6.713,6.713,0,0,1,.65,1.1,22.922,22.922,0,0,0,7.5-3.9,17.443,17.443,0,0,0,6.95,3.9,4.533,4.533,0,0,1,.8-1.025A17.28,17.28,0,0,1,41.95-2.8a18.553,18.553,0,0,0,5.3-8.2Zm26.975-7.9h-5.95v1.125h5.95ZM67-16.825a14.486,14.486,0,0,0-2.425-3.425l-.825.475A15.95,15.95,0,0,1,66.125-16.3Zm-11.475-4a17.978,17.978,0,0,1-4.6,5.175,6.292,6.292,0,0,1,.75.875,23.234,23.234,0,0,0,5-5.625Zm.825,4.875A22.344,22.344,0,0,1,50.525-8.6a6.863,6.863,0,0,1,.8.975,23.955,23.955,0,0,0,2.625-2.65V1.85h1.125V-11.7a25.992,25.992,0,0,0,2.375-3.875Zm2.075,5.275C58.2-7.3,57.75-4.075,56.6-1.925a5.9,5.9,0,0,1,.975.575c1.125-2.275,1.675-5.575,1.95-9.2Zm8.45-3.425v-1.125h-4.15v-5.25h-1.15v5.25H57.55V-14.1h4.025V1.45h1.15V-14.1Zm-2.5,3.65a42.953,42.953,0,0,1,1.5,7.425l1.05-.2a40.661,40.661,0,0,0-1.525-7.4Zm9.45-2.075H66.95V-11.4h3.3V.225c0,.325-.1.425-.5.45-.35,0-1.575,0-3.025-.05a6.543,6.543,0,0,1,.375,1.2,14.351,14.351,0,0,0,3.5-.2c.6-.225.8-.6.8-1.4V-11.4h2.425Z" transform="translate(776 1504)" fill="#006385"/>
      <path id="Path_671" data-name="Path 671" d="M1.2,0H2.316V-3.492H3.768c1.932,0,3.24-.864,3.24-2.724,0-1.92-1.32-2.592-3.288-2.592H1.2ZM2.316-4.392V-7.9h1.26c1.548,0,2.328.408,2.328,1.68s-.732,1.824-2.28,1.824ZM12.036.156c2.208,0,3.756-1.764,3.756-4.584s-1.548-4.536-3.756-4.536S8.28-7.248,8.28-4.428,9.828.156,12.036.156Zm0-.972c-1.584,0-2.616-1.416-2.616-3.612s1.032-3.564,2.616-3.564,2.616,1.356,2.616,3.564S13.608-.816,12.036-.816ZM17.688,0H18.8V-8.808H17.688ZM21.2,0H22.26V-4.62c0-.924-.084-1.86-.132-2.748h.048l.948,1.812L26.328,0h1.14V-8.808H26.412v4.584c0,.912.084,1.9.144,2.784H26.5L25.56-3.252l-3.2-5.556H21.2ZM31.7,0H32.82V-7.86h2.664v-.948H29.04v.948H31.7Z" transform="translate(758 1446)" fill="#006385"/>
    </g>
    <g id="Group_184" data-name="Group 184" transform="translate(-25)">
      <rect id="Rectangle_1" data-name="Rectangle 1" width="180" height="50" transform="translate(697 1613)" fill="#006385"/>
      <g id="Rectangle_109" data-name="Rectangle 109" transform="translate(702 1618)" fill="none" stroke="#fff" stroke-width="1">
        <rect width="170" height="40" stroke="none"/>
        <rect x="-0.5" y="-0.5" width="171" height="41" fill="none"/>
      </g>
      <path id="Path_672" data-name="Path 672" d="M-52.218,0h1.674V-6.228h6.156V0h1.656V-13.212h-1.656v5.544h-6.156v-5.544h-1.674Zm18.09.234a5.1,5.1,0,0,0,4.05-1.89L-31-2.7a4.01,4.01,0,0,1-3.06,1.476c-2.52,0-4.1-2.088-4.1-5.418,0-3.294,1.656-5.346,4.158-5.346a3.6,3.6,0,0,1,2.7,1.26l.9-1.08a4.879,4.879,0,0,0-3.618-1.638c-3.348,0-5.85,2.592-5.85,6.858C-39.87-2.3-37.4.234-34.128.234ZM-27.63,0h1.674V-5.6h2.376l3.2,5.6h1.89L-21.87-5.778a3.579,3.579,0,0,0,2.988-3.708c0-2.754-1.926-3.726-4.608-3.726h-4.14Zm1.674-6.948v-4.9h2.214c2.07,0,3.2.612,3.2,2.358,0,1.71-1.134,2.538-3.2,2.538Zm17.118-7.218H-10.53a10.912,10.912,0,0,1,.126,1.494c0,.648-.036,1.26-.072,1.836h-3.168a18.84,18.84,0,0,1-2.052-.108v1.53a19.207,19.207,0,0,1,2.07-.072H-10.6c-.486,3.708-1.782,5.958-3.564,7.578A8.872,8.872,0,0,1-16.02-.576L-14.706.486C-11.7-1.584-9.828-4.32-9.18-9.486h5.04c0,1.926-.234,6.354-.918,7.722A.975.975,0,0,1-6.1-1.17a21.9,21.9,0,0,1-2.682-.2L-8.6.126c.936.054,1.98.126,2.9.126A1.868,1.868,0,0,0-3.78-.846c.81-1.728,1.026-6.966,1.1-8.694a5.63,5.63,0,0,1,.09-.882l-1.008-.5a6.487,6.487,0,0,1-1.152.09H-9.036c.036-.594.072-1.206.09-1.854C-8.928-13.122-8.892-13.752-8.838-14.166Zm18.522.18-1.674-.54A6.164,6.164,0,0,1,7.452-13.1,14.838,14.838,0,0,1,1.8-7.02l1.242.936a18.248,18.248,0,0,0,4.572-4.428H13.7A14.8,14.8,0,0,1,10.818-4.9,14.562,14.562,0,0,1,3.636-.378l1.3,1.17A15.782,15.782,0,0,0,12.1-4.1,17.459,17.459,0,0,0,15.3-10.3a5.656,5.656,0,0,1,.414-.954l-1.206-.738a3.012,3.012,0,0,1-1.17.18H8.46a8.089,8.089,0,0,0,.432-.756A13.611,13.611,0,0,1,9.684-13.986Zm12.2.666v1.494c.45-.036,1.044-.054,1.638-.054H30.8c.522,0,1.152.018,1.674.054V-13.32a13.281,13.281,0,0,1-1.674.108h-7.29A14.973,14.973,0,0,1,21.888-13.32ZM19.728-8.8v1.494c.5-.036,1.026-.036,1.566-.036h5.4A8.714,8.714,0,0,1,25.65-2.88a7.451,7.451,0,0,1-3.4,2.754l1.332.99A8.784,8.784,0,0,0,27.126-2.43a10.9,10.9,0,0,0,1.062-4.914h4.9c.432,0,1.008.018,1.4.036V-8.8a9.65,9.65,0,0,1-1.4.09H21.294A14.388,14.388,0,0,1,19.728-8.8ZM45.45-.378,46.4.414A3.851,3.851,0,0,1,47.016,0a17.894,17.894,0,0,0,6.138-4.986L52.308-6.21a13.83,13.83,0,0,1-5.256,4.428V-12.168a11.138,11.138,0,0,1,.072-1.332H45.468a8.543,8.543,0,0,1,.108,1.332V-1.386A4.286,4.286,0,0,1,45.45-.378Zm-8.244-.09,1.35.918a10.06,10.06,0,0,0,3.2-4.95,39.376,39.376,0,0,0,.558-7.65c0-.54.072-1.08.09-1.3H40.752a6.631,6.631,0,0,1,.126,1.314c0,2-.018,5.6-.54,7.236A8.544,8.544,0,0,1,37.206-.468Z" transform="translate(787 1646)" fill="#fff"/>
    </g>
  </g>
</svg>
