<svg xmlns="http://www.w3.org/2000/svg" xmlns:xlink="http://www.w3.org/1999/xlink" width="140.332" height="129.155" viewBox="0 0 140.332 129.155">
  <defs>
    <clipPath id="clip-path">
      <rect id="Rectangle_35" data-name="Rectangle 35" width="140.332" height="129.155" fill="#01abab"/>
    </clipPath>
  </defs>
  <g id="free" transform="translate(-4137.129 -8739.975)" opacity="0.15">
    <g id="Group_19" data-name="Group 19" transform="translate(4137.129 8739.975)">
      <path id="Path_131" data-name="Path 131" d="M85.721,188.515l-3.424.5,2.477,2.415-.585,3.409,3.062-1.61,3.062,1.61-.585-3.409,2.477-2.415-3.424-.5-1.531-3.1Z" transform="translate(-29.153 -65.681)" fill="#01abab"/>
      <path id="Path_132" data-name="Path 132" d="M104.409,188.515l-3.424.5,2.477,2.415-.585,3.409,3.062-1.61,3.062,1.61-.585-3.409,2.477-2.415-3.423-.5-1.531-3.1Z" transform="translate(-35.774 -65.681)" fill="#01abab"/>
      <path id="Path_133" data-name="Path 133" d="M123.1,188.515l-3.423.5,2.477,2.415-.585,3.409,3.062-1.61,3.062,1.61-.585-3.409,2.477-2.415-3.424-.5-1.531-3.1Z" transform="translate(-42.393 -65.681)" fill="#01abab"/>
      <g id="Group_18" data-name="Group 18" clip-path="url(#clip-path)">
        <path id="Path_134" data-name="Path 134" d="M85.235,6.788c-2.479.222-4.294,2.76-4.294,2.76s2.206,2.177,4.687,1.955,4.292-2.76,4.292-2.76-2.206-2.177-4.685-1.955" transform="translate(-28.673 -2.399)" fill="#01abab"/>
        <path id="Path_135" data-name="Path 135" d="M76.139,5.205c-.877,2.416-3.72,3.543-3.72,3.543s-1.426-2.79-.547-5.205S75.588,0,75.588,0s1.426,2.79.547,5.205" transform="translate(-25.358)" fill="#01abab"/>
        <path id="Path_136" data-name="Path 136" d="M74.066,16.926c-2.056-1.458-5.012-.677-5.012-.677s.381,3.133,2.437,4.587,5.012.677,5.012.677-.381-3.133-2.437-4.587" transform="translate(-24.462 -5.683)" fill="#01abab"/>
        <path id="Path_137" data-name="Path 137" d="M61.816,10.323C61.3,12.846,58.645,14.4,58.645,14.4s-1.812-2.541-1.293-5.062,3.171-4.076,3.171-4.076,1.812,2.539,1.293,5.062" transform="translate(-20.283 -1.864)" fill="#01abab"/>
        <path id="Path_138" data-name="Path 138" d="M61.086,22.368c-2.243-1.12-5.05.1-5.05.1s.827,3.039,3.07,4.159,5.05-.1,5.05-.1-.827-3.039-3.07-4.159" transform="translate(-19.85 -7.756)" fill="#01abab"/>
        <path id="Path_139" data-name="Path 139" d="M48.6,17.272c-.156,2.575-2.56,4.514-2.56,4.514s-2.151-2.235-2-4.81S46.6,12.462,46.6,12.462s2.151,2.235,2,4.81" transform="translate(-15.6 -4.415)" fill="#01abab"/>
        <path id="Path_140" data-name="Path 140" d="M49.266,29.293c-2.377-.766-4.981.872-4.981.872s1.248,2.88,3.625,3.645,4.981-.872,4.981-.872-1.249-2.88-3.625-3.645" transform="translate(-15.687 -10.305)" fill="#01abab"/>
        <path id="Path_141" data-name="Path 141" d="M37.234,25.909c.207,2.572-1.9,4.852-1.9,4.852s-2.441-1.888-2.648-4.46,1.9-4.851,1.9-4.851,2.442,1.887,2.649,4.459" transform="translate(-11.573 -7.598)" fill="#01abab"/>
        <path id="Path_142" data-name="Path 142" d="M39.317,37.584c-2.46-.4-4.807,1.613-4.807,1.613s1.64,2.662,4.1,3.062,4.807-1.613,4.807-1.613-1.64-2.662-4.1-3.062" transform="translate(-12.225 -13.296)" fill="#01abab"/>
        <path id="Path_143" data-name="Path 143" d="M27.281,36.074c.564,2.513-1.2,5.087-1.2,5.087s-2.68-1.5-3.244-4.015,1.2-5.086,1.2-5.086,2.68,1.5,3.244,4.009" transform="translate(-8.05 -11.357)" fill="#01abab"/>
        <path id="Path_144" data-name="Path 144" d="M30.782,47.1c-2.489-.026-4.53,2.317-4.53,2.317s1.994,2.387,4.482,2.414,4.53-2.317,4.53-2.317S33.27,47.125,30.782,47.1" transform="translate(-9.299 -16.685)" fill="#01abab"/>
        <path id="Path_145" data-name="Path 145" d="M18.917,47.609c.911,2.4-.473,5.214-.473,5.214s-2.863-1.081-3.774-3.481.473-5.214.473-5.214,2.863,1.08,3.774,3.481" transform="translate(-5.086 -15.632)" fill="#01abab"/>
        <path id="Path_146" data-name="Path 146" d="M23.83,57.7c-2.466.35-4.155,2.978-4.155,2.978s2.308,2.06,4.775,1.71,4.155-2.978,4.155-2.978S26.3,57.346,23.83,57.7" transform="translate(-6.97 -20.425)" fill="#01abab"/>
        <path id="Path_147" data-name="Path 147" d="M12.325,60.338c1.244,2.235.273,5.229.273,5.229S9.613,64.938,8.369,62.7s-.273-5.23-.273-5.23,2.985.629,4.229,2.864" transform="translate(-2.741 -20.36)" fill="#01abab"/>
        <path id="Path_148" data-name="Path 148" d="M18.632,69.205c-2.388.724-3.685,3.582-3.685,3.582s2.577,1.682,4.969.96S23.6,70.165,23.6,70.165s-2.577-1.684-4.966-.96" transform="translate(-5.295 -24.451)" fill="#01abab"/>
        <path id="Path_149" data-name="Path 149" d="M7.692,74.081c1.555,2.011,1.032,5.127,1.032,5.127s-3.043-.156-4.6-2.172S3.092,71.91,3.092,71.91s3.042.156,4.6,2.172" transform="translate(-1.066 -25.474)" fill="#01abab"/>
        <path id="Path_150" data-name="Path 150" d="M15.364,81.435c-2.256,1.089-3.123,4.121-3.123,4.121s2.793,1.263,5.048.174,3.124-4.116,3.124-4.116-2.792-1.263-5.049-.174" transform="translate(-4.336 -28.692)" fill="#01abab"/>
        <path id="Path_151" data-name="Path 151" d="M5.206,88.648c1.833,1.741,1.774,4.9,1.774,4.9s-3.03.327-4.863-1.419S.344,87.23.344,87.23s3.03-.327,4.862,1.419" transform="translate(-0.122 -30.892)" fill="#01abab"/>
        <path id="Path_152" data-name="Path 152" d="M14.194,94.223c-2.069,1.433-2.48,4.563-2.48,4.563s2.946.806,5.012-.627S19.205,93.6,19.205,93.6s-2.945-.806-5.012.627" transform="translate(-4.15 -33.076)" fill="#01abab"/>
        <path id="Path_153" data-name="Path 153" d="M5.012,103.732c2.069,1.433,2.48,4.563,2.48,4.563s-2.946.806-5.012-.627S0,103.105,0,103.105s2.945-.806,5.012.627" transform="translate(0 -36.444)" fill="#01abab"/>
        <path id="Path_154" data-name="Path 154" d="M15.161,107.374c-1.833,1.746-1.774,4.9-1.774,4.9s3.03.327,4.863-1.419,1.774-4.9,1.774-4.9-3.03-.327-4.862,1.419" transform="translate(-4.742 -37.526)" fill="#01abab"/>
        <path id="Path_155" data-name="Path 155" d="M7.041,118.41c2.257,1.089,3.122,4.116,3.122,4.116s-2.792,1.262-5.048.174-3.122-4.116-3.122-4.116,2.792-1.263,5.048-.174" transform="translate(-0.706 -41.789)" fill="#01abab"/>
        <path id="Path_156" data-name="Path 156" d="M18.053,120.055c-1.555,2.016-1.032,5.127-1.032,5.127s3.043-.157,4.6-2.172,1.032-5.127,1.032-5.127-3.042.156-4.6,2.172" transform="translate(-5.999 -41.759)" fill="#01abab"/>
        <path id="Path_157" data-name="Path 157" d="M11.043,133.832c2.388.729,3.685,3.582,3.685,3.582s-2.577,1.684-4.966.96-3.685-3.585-3.685-3.585,2.577-1.683,4.966-.96" transform="translate(-2.153 -47.345)" fill="#01abab"/>
        <path id="Path_158" data-name="Path 158" d="M22.549,133.545c-1.244,2.235-.273,5.229-.273,5.229s2.985-.629,4.229-2.863.273-5.23.273-5.23-2.985.629-4.229,2.864" transform="translate(-7.763 -46.292)" fill="#01abab"/>
        <path id="Path_159" data-name="Path 159" d="M16.881,148.273c2.466.35,4.154,2.978,4.154,2.978s-2.308,2.06-4.774,1.71-4.155-2.978-4.155-2.978,2.308-2.06,4.775-1.71" transform="translate(-4.288 -52.51)" fill="#01abab"/>
        <path id="Path_160" data-name="Path 160" d="M28.528,146.161c-.911,2.4.473,5.214.473,5.214s2.862-1.08,3.774-3.481-.473-5.214-.473-5.214-2.863,1.08-3.774,3.481" transform="translate(-9.996 -50.542)" fill="#01abab"/>
        <path id="Path_161" data-name="Path 161" d="M24.415,161c2.489-.026,4.53,2.317,4.53,2.317s-1.994,2.387-4.482,2.415-4.53-2.317-4.53-2.317,1.994-2.388,4.482-2.415" transform="translate(-7.061 -57.033)" fill="#01abab"/>
        <path id="Path_162" data-name="Path 162" d="M35.882,157.181c-.564,2.513,1.2,5.087,1.2,5.087s2.681-1.5,3.244-4.015-1.2-5.086-1.2-5.086-2.68,1.5-3.244,4.009" transform="translate(-12.672 -54.258)" fill="#01abab"/>
        <path id="Path_163" data-name="Path 163" d="M33.5,172.047c2.46-.4,4.807,1.613,4.807,1.613s-1.64,2.662-4.1,3.062-4.807-1.613-4.807-1.613,1.64-2.662,4.1-3.062" transform="translate(-10.416 -60.928)" fill="#01abab"/>
        <path id="Path_164" data-name="Path 164" d="M44.49,166.666c-.207,2.572,1.9,4.852,1.9,4.852s2.441-1.888,2.648-4.46-1.9-4.852-1.9-4.852-2.442,1.888-2.649,4.46" transform="translate(-15.755 -57.46)" fill="#01abab"/>
        <path id="Path_165" data-name="Path 165" d="M43.989,181.48c2.377-.766,4.982.872,4.982.872s-1.249,2.88-3.626,3.645-4.981-.872-4.981-.872,1.249-2.88,3.625-3.645" transform="translate(-14.299 -64.216)" fill="#01abab"/>
        <path id="Path_166" data-name="Path 166" d="M54.211,174.708c.156,2.575,2.56,4.514,2.56,4.514s2.151-2.235,2-4.81S56.2,169.9,56.2,169.9s-2.151,2.235-2,4.81" transform="translate(-19.201 -60.185)" fill="#01abab"/>
        <path id="Path_167" data-name="Path 167" d="M47.188,126.857c-22.6-9.494-37.2-31.958-37.2-57.226,0-30.781,22.294-56.172,51.689-60.264l.083.6C33.106,13.948,11.5,39.6,11.5,69.63c0,24.658,14.238,46.572,36.274,55.827Z" transform="translate(-3.537 -3.317)" fill="#01abab"/>
        <path id="Path_168" data-name="Path 168" d="M127.154,6.788c2.479.222,4.293,2.76,4.293,2.76s-2.206,2.177-4.687,1.955-4.293-2.76-4.293-2.76,2.206-2.177,4.687-1.955" transform="translate(-43.383 -2.399)" fill="#01abab"/>
        <path id="Path_169" data-name="Path 169" d="M138.519,5.205c.877,2.415,3.722,3.54,3.722,3.54s1.426-2.79.547-5.205S139.069,0,139.069,0s-1.426,2.79-.547,5.205" transform="translate(-48.969)" fill="#01abab"/>
        <path id="Path_170" data-name="Path 170" d="M139.163,16.926c2.056-1.458,5.012-.677,5.012-.677s-.381,3.133-2.437,4.587-5.012.677-5.012.677.381-3.133,2.437-4.587" transform="translate(-48.434 -5.683)" fill="#01abab"/>
        <path id="Path_171" data-name="Path 171" d="M152.946,10.323c.518,2.523,3.171,4.076,3.171,4.076s1.812-2.539,1.293-5.062-3.172-4.076-3.172-4.076-1.811,2.539-1.293,5.062" transform="translate(-54.147 -1.864)" fill="#01abab"/>
        <path id="Path_172" data-name="Path 172" d="M151.772,22.368c2.242-1.12,5.05.1,5.05.1s-.827,3.039-3.07,4.159-5.05-.1-5.05-.1.827-3.039,3.07-4.159" transform="translate(-52.677 -7.756)" fill="#01abab"/>
        <path id="Path_173" data-name="Path 173" d="M166.206,17.272c.156,2.575,2.56,4.514,2.56,4.514s2.151-2.235,2-4.81-2.561-4.514-2.561-4.514-2.151,2.235-2,4.81" transform="translate(-58.874 -4.415)" fill="#01abab"/>
        <path id="Path_174" data-name="Path 174" d="M163.327,29.293c2.376-.766,4.982.872,4.982.872s-1.249,2.88-3.626,3.645-4.981-.872-4.981-.872,1.249-2.88,3.625-3.645" transform="translate(-56.573 -10.305)" fill="#01abab"/>
        <path id="Path_175" data-name="Path 175" d="M177.57,25.909c-.207,2.572,1.9,4.852,1.9,4.852s2.441-1.888,2.648-4.46-1.9-4.851-1.9-4.851-2.442,1.887-2.649,4.459" transform="translate(-62.898 -7.598)" fill="#01abab"/>
        <path id="Path_176" data-name="Path 176" d="M173.113,37.584c2.46-.4,4.807,1.613,4.807,1.613s-1.64,2.662-4.1,3.062-4.807-1.613-4.807-1.613,1.64-2.662,4.1-3.062" transform="translate(-59.872 -13.296)" fill="#01abab"/>
        <path id="Path_177" data-name="Path 177" d="M187.472,36.074c-.564,2.513,1.2,5.087,1.2,5.087s2.681-1.5,3.244-4.015-1.2-5.086-1.2-5.086-2.679,1.5-3.243,4.009" transform="translate(-66.371 -11.357)" fill="#01abab"/>
        <path id="Path_178" data-name="Path 178" d="M181.586,47.1c2.489-.026,4.53,2.317,4.53,2.317s-1.994,2.387-4.482,2.414-4.53-2.317-4.53-2.317,1.994-2.388,4.482-2.415" transform="translate(-62.737 -16.685)" fill="#01abab"/>
        <path id="Path_179" data-name="Path 179" d="M195.725,47.609c-.911,2.4.473,5.214.473,5.214s2.862-1.08,3.774-3.481-.473-5.214-.473-5.214-2.863,1.08-3.774,3.481" transform="translate(-69.224 -15.632)" fill="#01abab"/>
        <path id="Path_180" data-name="Path 180" d="M188.585,57.7c2.466.35,4.155,2.978,4.155,2.978s-2.308,2.06-4.775,1.71-4.155-2.978-4.155-2.978,2.308-2.06,4.775-1.71" transform="translate(-65.113 -20.425)" fill="#01abab"/>
        <path id="Path_181" data-name="Path 181" d="M202.123,60.338c-1.244,2.235-.273,5.229-.273,5.229s2.985-.629,4.229-2.863.273-5.23.273-5.23-2.985.629-4.229,2.864" transform="translate(-71.376 -20.36)" fill="#01abab"/>
        <path id="Path_182" data-name="Path 182" d="M193.937,69.205c2.388.724,3.685,3.582,3.685,3.582s-2.577,1.684-4.966.96-3.685-3.582-3.685-3.582,2.577-1.684,4.966-.96" transform="translate(-66.942 -24.451)" fill="#01abab"/>
        <path id="Path_183" data-name="Path 183" d="M206.442,74.081c-1.555,2.016-1.032,5.127-1.032,5.127s3.043-.156,4.6-2.172,1.032-5.127,1.032-5.127-3.042.156-4.6,2.172" transform="translate(-72.735 -25.474)" fill="#01abab"/>
        <path id="Path_184" data-name="Path 184" d="M197.466,81.435c2.256,1.089,3.123,4.116,3.123,4.116s-2.792,1.263-5.048.174-3.123-4.116-3.123-4.116,2.792-1.263,5.048-.174" transform="translate(-68.162 -28.691)" fill="#01abab"/>
        <path id="Path_185" data-name="Path 185" d="M208.465,88.648c-1.833,1.745-1.774,4.9-1.774,4.9s3.03.327,4.863-1.419,1.774-4.9,1.774-4.9-3.03-.327-4.862,1.419" transform="translate(-73.218 -30.892)" fill="#01abab"/>
        <path id="Path_186" data-name="Path 186" d="M199.012,94.223c2.069,1.433,2.48,4.563,2.48,4.563s-2.946.806-5.012-.627S194,93.6,194,93.6s2.945-.806,5.012.627" transform="translate(-68.721 -33.076)" fill="#01abab"/>
        <path id="Path_187" data-name="Path 187" d="M208.186,103.732c-2.069,1.433-2.48,4.563-2.48,4.563s2.945.806,5.012-.627,2.479-4.563,2.479-4.563-2.945-.806-5.012.627" transform="translate(-72.869 -36.444)" fill="#01abab"/>
        <path id="Path_188" data-name="Path 188" d="M198.511,107.374c1.833,1.746,1.774,4.9,1.774,4.9s-3.03.327-4.863-1.419-1.774-4.9-1.774-4.9,3.03-.327,4.862,1.419" transform="translate(-68.599 -37.526)" fill="#01abab"/>
        <path id="Path_189" data-name="Path 189" d="M205.79,118.41c-2.256,1.089-3.123,4.116-3.123,4.116s2.792,1.262,5.048.174,3.123-4.116,3.123-4.116-2.792-1.263-5.048-.174" transform="translate(-71.793 -41.789)" fill="#01abab"/>
        <path id="Path_190" data-name="Path 190" d="M196.081,120.055c1.555,2.016,1.032,5.127,1.032,5.127s-3.043-.157-4.6-2.172-1.032-5.127-1.032-5.127,3.043.156,4.6,2.172" transform="translate(-67.801 -41.759)" fill="#01abab"/>
        <path id="Path_191" data-name="Path 191" d="M201.525,133.832c-2.388.729-3.685,3.582-3.685,3.582s2.577,1.684,4.966.96,3.685-3.582,3.685-3.582-2.577-1.683-4.966-.96" transform="translate(-70.083 -47.345)" fill="#01abab"/>
        <path id="Path_192" data-name="Path 192" d="M191.9,133.545c1.244,2.235.273,5.229.273,5.229s-2.985-.629-4.229-2.863-.273-5.23-.273-5.23,2.985.629,4.229,2.864" transform="translate(-66.353 -46.292)" fill="#01abab"/>
        <path id="Path_193" data-name="Path 193" d="M195.534,148.273c-2.466.35-4.155,2.978-4.155,2.978s2.308,2.06,4.775,1.71,4.155-2.978,4.155-2.978-2.308-2.06-4.775-1.71" transform="translate(-67.794 -52.51)" fill="#01abab"/>
        <path id="Path_194" data-name="Path 194" d="M186.114,146.161c.911,2.4-.473,5.214-.473,5.214s-2.862-1.08-3.774-3.481.473-5.214.473-5.214,2.863,1.08,3.774,3.481" transform="translate(-64.314 -50.542)" fill="#01abab"/>
        <path id="Path_195" data-name="Path 195" d="M187.953,161c-2.489-.026-4.53,2.317-4.53,2.317s1.994,2.387,4.482,2.415,4.53-2.317,4.53-2.317-1.994-2.388-4.482-2.415" transform="translate(-64.976 -57.033)" fill="#01abab"/>
        <path id="Path_196" data-name="Path 196" d="M178.871,157.181c.564,2.513-1.2,5.087-1.2,5.087s-2.68-1.5-3.244-4.015,1.2-5.086,1.2-5.086,2.681,1.5,3.244,4.009" transform="translate(-61.749 -54.258)" fill="#01abab"/>
        <path id="Path_197" data-name="Path 197" d="M178.926,172.047c-2.46-.4-4.807,1.613-4.807,1.613s1.64,2.662,4.1,3.062,4.807-1.613,4.807-1.613-1.64-2.662-4.1-3.062" transform="translate(-61.68 -60.928)" fill="#01abab"/>
        <path id="Path_198" data-name="Path 198" d="M170.313,166.666c.207,2.572-1.9,4.852-1.9,4.852s-2.441-1.888-2.648-4.46,1.9-4.852,1.9-4.852,2.442,1.888,2.649,4.46" transform="translate(-58.715 -57.46)" fill="#01abab"/>
        <path id="Path_199" data-name="Path 199" d="M168.6,181.48c-2.377-.766-4.982.872-4.982.872s1.249,2.88,3.626,3.645,4.981-.872,4.981-.872-1.249-2.88-3.625-3.645" transform="translate(-57.961 -64.216)" fill="#01abab"/>
        <path id="Path_200" data-name="Path 200" d="M160.593,174.707c-.156,2.575-2.561,4.514-2.561,4.514s-2.151-2.235-2-4.81,2.56-4.514,2.56-4.514,2.151,2.235,2,4.81" transform="translate(-55.272 -60.185)" fill="#01abab"/>
        <path id="Path_201" data-name="Path 201" d="M141.725,126.858l-.589-1.4c22.036-9.255,36.274-31.165,36.274-55.827,0-30.027-21.6-55.677-50.253-59.668l.081-.583c29.395,4.092,51.69,29.47,51.69,60.252,0,25.272-14.6,47.735-37.2,57.226" transform="translate(-45.045 -3.324)" fill="#01abab"/>
      </g>
    </g>
    <g id="Group_21" data-name="Group 21" transform="translate(4137.129 8739.975)">
      <path id="Path_202" data-name="Path 202" d="M85.721,188.515l-3.424.5,2.477,2.415-.585,3.409,3.062-1.61,3.062,1.61-.585-3.409,2.477-2.415-3.424-.5-1.531-3.1Z" transform="translate(-29.153 -65.681)" fill="#01abab"/>
      <path id="Path_203" data-name="Path 203" d="M104.409,188.515l-3.424.5,2.477,2.415-.585,3.409,3.062-1.61,3.062,1.61-.585-3.409,2.477-2.415-3.423-.5-1.531-3.1Z" transform="translate(-35.774 -65.681)" fill="#01abab"/>
      <path id="Path_204" data-name="Path 204" d="M123.1,188.515l-3.423.5,2.477,2.415-.585,3.409,3.062-1.61,3.062,1.61-.585-3.409,2.477-2.415-3.424-.5-1.531-3.1Z" transform="translate(-42.393 -65.681)" fill="#01abab"/>
      <g id="Group_20" data-name="Group 20" clip-path="url(#clip-path)">
        <path id="Path_205" data-name="Path 205" d="M85.235,6.788c-2.479.222-4.294,2.76-4.294,2.76s2.206,2.177,4.687,1.955,4.292-2.76,4.292-2.76-2.206-2.177-4.685-1.955" transform="translate(-28.673 -2.399)" fill="#01abab"/>
        <path id="Path_206" data-name="Path 206" d="M76.139,5.205c-.877,2.416-3.72,3.543-3.72,3.543s-1.426-2.79-.547-5.205S75.588,0,75.588,0s1.426,2.79.547,5.205" transform="translate(-25.358)" fill="#01abab"/>
        <path id="Path_207" data-name="Path 207" d="M74.066,16.926c-2.056-1.458-5.012-.677-5.012-.677s.381,3.133,2.437,4.587,5.012.677,5.012.677-.381-3.133-2.437-4.587" transform="translate(-24.462 -5.683)" fill="#01abab"/>
        <path id="Path_208" data-name="Path 208" d="M61.816,10.323C61.3,12.846,58.645,14.4,58.645,14.4s-1.812-2.541-1.293-5.062,3.171-4.076,3.171-4.076,1.812,2.539,1.293,5.062" transform="translate(-20.283 -1.864)" fill="#01abab"/>
        <path id="Path_209" data-name="Path 209" d="M61.086,22.368c-2.243-1.12-5.05.1-5.05.1s.827,3.039,3.07,4.159,5.05-.1,5.05-.1-.827-3.039-3.07-4.159" transform="translate(-19.85 -7.756)" fill="#01abab"/>
        <path id="Path_210" data-name="Path 210" d="M48.6,17.272c-.156,2.575-2.56,4.514-2.56,4.514s-2.151-2.235-2-4.81S46.6,12.462,46.6,12.462s2.151,2.235,2,4.81" transform="translate(-15.6 -4.415)" fill="#01abab"/>
        <path id="Path_211" data-name="Path 211" d="M49.266,29.293c-2.377-.766-4.981.872-4.981.872s1.248,2.88,3.625,3.645,4.981-.872,4.981-.872-1.249-2.88-3.625-3.645" transform="translate(-15.687 -10.305)" fill="#01abab"/>
        <path id="Path_212" data-name="Path 212" d="M37.234,25.909c.207,2.572-1.9,4.852-1.9,4.852s-2.441-1.888-2.648-4.46,1.9-4.851,1.9-4.851,2.442,1.887,2.649,4.459" transform="translate(-11.573 -7.598)" fill="#01abab"/>
        <path id="Path_213" data-name="Path 213" d="M39.317,37.584c-2.46-.4-4.807,1.613-4.807,1.613s1.64,2.662,4.1,3.062,4.807-1.613,4.807-1.613-1.64-2.662-4.1-3.062" transform="translate(-12.225 -13.296)" fill="#01abab"/>
        <path id="Path_214" data-name="Path 214" d="M27.281,36.074c.564,2.513-1.2,5.087-1.2,5.087s-2.68-1.5-3.244-4.015,1.2-5.086,1.2-5.086,2.68,1.5,3.244,4.009" transform="translate(-8.05 -11.357)" fill="#01abab"/>
        <path id="Path_215" data-name="Path 215" d="M30.782,47.1c-2.489-.026-4.53,2.317-4.53,2.317s1.994,2.387,4.482,2.414,4.53-2.317,4.53-2.317S33.27,47.125,30.782,47.1" transform="translate(-9.299 -16.685)" fill="#01abab"/>
        <path id="Path_216" data-name="Path 216" d="M18.917,47.609c.911,2.4-.473,5.214-.473,5.214s-2.863-1.081-3.774-3.481.473-5.214.473-5.214,2.863,1.08,3.774,3.481" transform="translate(-5.086 -15.632)" fill="#01abab"/>
        <path id="Path_217" data-name="Path 217" d="M23.83,57.7c-2.466.35-4.155,2.978-4.155,2.978s2.308,2.06,4.775,1.71,4.155-2.978,4.155-2.978S26.3,57.346,23.83,57.7" transform="translate(-6.97 -20.425)" fill="#01abab"/>
        <path id="Path_218" data-name="Path 218" d="M12.325,60.338c1.244,2.235.273,5.229.273,5.229S9.613,64.938,8.369,62.7s-.273-5.23-.273-5.23,2.985.629,4.229,2.864" transform="translate(-2.741 -20.36)" fill="#01abab"/>
        <path id="Path_219" data-name="Path 219" d="M18.632,69.205c-2.388.724-3.685,3.582-3.685,3.582s2.577,1.682,4.969.96S23.6,70.165,23.6,70.165s-2.577-1.684-4.966-.96" transform="translate(-5.295 -24.451)" fill="#01abab"/>
        <path id="Path_220" data-name="Path 220" d="M7.692,74.081c1.555,2.011,1.032,5.127,1.032,5.127s-3.043-.156-4.6-2.172S3.092,71.91,3.092,71.91s3.042.156,4.6,2.172" transform="translate(-1.066 -25.474)" fill="#01abab"/>
        <path id="Path_221" data-name="Path 221" d="M15.364,81.435c-2.256,1.089-3.123,4.121-3.123,4.121s2.793,1.263,5.048.174,3.124-4.116,3.124-4.116-2.792-1.263-5.049-.174" transform="translate(-4.336 -28.692)" fill="#01abab"/>
        <path id="Path_222" data-name="Path 222" d="M5.206,88.648c1.833,1.741,1.774,4.9,1.774,4.9s-3.03.327-4.863-1.419S.344,87.23.344,87.23s3.03-.327,4.862,1.419" transform="translate(-0.122 -30.892)" fill="#01abab"/>
        <path id="Path_223" data-name="Path 223" d="M14.194,94.223c-2.069,1.433-2.48,4.563-2.48,4.563s2.946.806,5.012-.627S19.205,93.6,19.205,93.6s-2.945-.806-5.012.627" transform="translate(-4.15 -33.076)" fill="#01abab"/>
        <path id="Path_224" data-name="Path 224" d="M5.012,103.732c2.069,1.433,2.48,4.563,2.48,4.563s-2.946.806-5.012-.627S0,103.105,0,103.105s2.945-.806,5.012.627" transform="translate(0 -36.444)" fill="#01abab"/>
        <path id="Path_225" data-name="Path 225" d="M15.161,107.374c-1.833,1.746-1.774,4.9-1.774,4.9s3.03.327,4.863-1.419,1.774-4.9,1.774-4.9-3.03-.327-4.862,1.419" transform="translate(-4.742 -37.526)" fill="#01abab"/>
        <path id="Path_226" data-name="Path 226" d="M7.041,118.41c2.257,1.089,3.122,4.116,3.122,4.116s-2.792,1.262-5.048.174-3.122-4.116-3.122-4.116,2.792-1.263,5.048-.174" transform="translate(-0.706 -41.789)" fill="#01abab"/>
        <path id="Path_227" data-name="Path 227" d="M18.053,120.055c-1.555,2.016-1.032,5.127-1.032,5.127s3.043-.157,4.6-2.172,1.032-5.127,1.032-5.127-3.042.156-4.6,2.172" transform="translate(-5.999 -41.759)" fill="#01abab"/>
        <path id="Path_228" data-name="Path 228" d="M11.043,133.832c2.388.729,3.685,3.582,3.685,3.582s-2.577,1.684-4.966.96-3.685-3.585-3.685-3.585,2.577-1.683,4.966-.96" transform="translate(-2.153 -47.345)" fill="#01abab"/>
        <path id="Path_229" data-name="Path 229" d="M22.549,133.545c-1.244,2.235-.273,5.229-.273,5.229s2.985-.629,4.229-2.863.273-5.23.273-5.23-2.985.629-4.229,2.864" transform="translate(-7.763 -46.292)" fill="#01abab"/>
        <path id="Path_230" data-name="Path 230" d="M16.881,148.273c2.466.35,4.154,2.978,4.154,2.978s-2.308,2.06-4.774,1.71-4.155-2.978-4.155-2.978,2.308-2.06,4.775-1.71" transform="translate(-4.288 -52.51)" fill="#01abab"/>
        <path id="Path_231" data-name="Path 231" d="M28.528,146.161c-.911,2.4.473,5.214.473,5.214s2.862-1.08,3.774-3.481-.473-5.214-.473-5.214-2.863,1.08-3.774,3.481" transform="translate(-9.996 -50.542)" fill="#01abab"/>
        <path id="Path_232" data-name="Path 232" d="M24.415,161c2.489-.026,4.53,2.317,4.53,2.317s-1.994,2.387-4.482,2.415-4.53-2.317-4.53-2.317,1.994-2.388,4.482-2.415" transform="translate(-7.061 -57.033)" fill="#01abab"/>
        <path id="Path_233" data-name="Path 233" d="M35.882,157.181c-.564,2.513,1.2,5.087,1.2,5.087s2.681-1.5,3.244-4.015-1.2-5.086-1.2-5.086-2.68,1.5-3.244,4.009" transform="translate(-12.672 -54.258)" fill="#01abab"/>
        <path id="Path_234" data-name="Path 234" d="M33.5,172.047c2.46-.4,4.807,1.613,4.807,1.613s-1.64,2.662-4.1,3.062-4.807-1.613-4.807-1.613,1.64-2.662,4.1-3.062" transform="translate(-10.416 -60.928)" fill="#01abab"/>
        <path id="Path_235" data-name="Path 235" d="M44.49,166.666c-.207,2.572,1.9,4.852,1.9,4.852s2.441-1.888,2.648-4.46-1.9-4.852-1.9-4.852-2.442,1.888-2.649,4.46" transform="translate(-15.755 -57.46)" fill="#01abab"/>
        <path id="Path_236" data-name="Path 236" d="M43.989,181.48c2.377-.766,4.982.872,4.982.872s-1.249,2.88-3.626,3.645-4.981-.872-4.981-.872,1.249-2.88,3.625-3.645" transform="translate(-14.299 -64.216)" fill="#01abab"/>
        <path id="Path_237" data-name="Path 237" d="M54.211,174.708c.156,2.575,2.56,4.514,2.56,4.514s2.151-2.235,2-4.81S56.2,169.9,56.2,169.9s-2.151,2.235-2,4.81" transform="translate(-19.201 -60.185)" fill="#01abab"/>
        <path id="Path_238" data-name="Path 238" d="M47.188,126.857c-22.6-9.494-37.2-31.958-37.2-57.226,0-30.781,22.294-56.172,51.689-60.264l.083.6C33.106,13.948,11.5,39.6,11.5,69.63c0,24.658,14.238,46.572,36.274,55.827Z" transform="translate(-3.537 -3.317)" fill="#01abab"/>
        <path id="Path_239" data-name="Path 239" d="M127.154,6.788c2.479.222,4.293,2.76,4.293,2.76s-2.206,2.177-4.687,1.955-4.293-2.76-4.293-2.76,2.206-2.177,4.687-1.955" transform="translate(-43.383 -2.399)" fill="#01abab"/>
        <path id="Path_240" data-name="Path 240" d="M138.519,5.205c.877,2.415,3.722,3.54,3.722,3.54s1.426-2.79.547-5.205S139.069,0,139.069,0s-1.426,2.79-.547,5.205" transform="translate(-48.969)" fill="#01abab"/>
        <path id="Path_241" data-name="Path 241" d="M139.163,16.926c2.056-1.458,5.012-.677,5.012-.677s-.381,3.133-2.437,4.587-5.012.677-5.012.677.381-3.133,2.437-4.587" transform="translate(-48.434 -5.683)" fill="#01abab"/>
        <path id="Path_242" data-name="Path 242" d="M152.946,10.323c.518,2.523,3.171,4.076,3.171,4.076s1.812-2.539,1.293-5.062-3.172-4.076-3.172-4.076-1.811,2.539-1.293,5.062" transform="translate(-54.147 -1.864)" fill="#01abab"/>
        <path id="Path_243" data-name="Path 243" d="M151.772,22.368c2.242-1.12,5.05.1,5.05.1s-.827,3.039-3.07,4.159-5.05-.1-5.05-.1.827-3.039,3.07-4.159" transform="translate(-52.677 -7.756)" fill="#01abab"/>
        <path id="Path_244" data-name="Path 244" d="M166.206,17.272c.156,2.575,2.56,4.514,2.56,4.514s2.151-2.235,2-4.81-2.561-4.514-2.561-4.514-2.151,2.235-2,4.81" transform="translate(-58.874 -4.415)" fill="#01abab"/>
        <path id="Path_245" data-name="Path 245" d="M163.327,29.293c2.376-.766,4.982.872,4.982.872s-1.249,2.88-3.626,3.645-4.981-.872-4.981-.872,1.249-2.88,3.625-3.645" transform="translate(-56.573 -10.305)" fill="#01abab"/>
        <path id="Path_246" data-name="Path 246" d="M177.57,25.909c-.207,2.572,1.9,4.852,1.9,4.852s2.441-1.888,2.648-4.46-1.9-4.851-1.9-4.851-2.442,1.887-2.649,4.459" transform="translate(-62.898 -7.598)" fill="#01abab"/>
        <path id="Path_247" data-name="Path 247" d="M173.113,37.584c2.46-.4,4.807,1.613,4.807,1.613s-1.64,2.662-4.1,3.062-4.807-1.613-4.807-1.613,1.64-2.662,4.1-3.062" transform="translate(-59.872 -13.296)" fill="#01abab"/>
        <path id="Path_248" data-name="Path 248" d="M187.472,36.074c-.564,2.513,1.2,5.087,1.2,5.087s2.681-1.5,3.244-4.015-1.2-5.086-1.2-5.086-2.679,1.5-3.243,4.009" transform="translate(-66.371 -11.357)" fill="#01abab"/>
        <path id="Path_249" data-name="Path 249" d="M181.586,47.1c2.489-.026,4.53,2.317,4.53,2.317s-1.994,2.387-4.482,2.414-4.53-2.317-4.53-2.317,1.994-2.388,4.482-2.415" transform="translate(-62.737 -16.685)" fill="#01abab"/>
        <path id="Path_250" data-name="Path 250" d="M195.725,47.609c-.911,2.4.473,5.214.473,5.214s2.862-1.08,3.774-3.481-.473-5.214-.473-5.214-2.863,1.08-3.774,3.481" transform="translate(-69.224 -15.632)" fill="#01abab"/>
        <path id="Path_251" data-name="Path 251" d="M188.585,57.7c2.466.35,4.155,2.978,4.155,2.978s-2.308,2.06-4.775,1.71-4.155-2.978-4.155-2.978,2.308-2.06,4.775-1.71" transform="translate(-65.113 -20.425)" fill="#01abab"/>
        <path id="Path_252" data-name="Path 252" d="M202.123,60.338c-1.244,2.235-.273,5.229-.273,5.229s2.985-.629,4.229-2.863.273-5.23.273-5.23-2.985.629-4.229,2.864" transform="translate(-71.376 -20.36)" fill="#01abab"/>
        <path id="Path_253" data-name="Path 253" d="M193.937,69.205c2.388.724,3.685,3.582,3.685,3.582s-2.577,1.684-4.966.96-3.685-3.582-3.685-3.582,2.577-1.684,4.966-.96" transform="translate(-66.942 -24.451)" fill="#01abab"/>
        <path id="Path_254" data-name="Path 254" d="M206.442,74.081c-1.555,2.016-1.032,5.127-1.032,5.127s3.043-.156,4.6-2.172,1.032-5.127,1.032-5.127-3.042.156-4.6,2.172" transform="translate(-72.735 -25.474)" fill="#01abab"/>
        <path id="Path_255" data-name="Path 255" d="M197.466,81.435c2.256,1.089,3.123,4.116,3.123,4.116s-2.792,1.263-5.048.174-3.123-4.116-3.123-4.116,2.792-1.263,5.048-.174" transform="translate(-68.162 -28.691)" fill="#01abab"/>
        <path id="Path_256" data-name="Path 256" d="M208.465,88.648c-1.833,1.745-1.774,4.9-1.774,4.9s3.03.327,4.863-1.419,1.774-4.9,1.774-4.9-3.03-.327-4.862,1.419" transform="translate(-73.218 -30.892)" fill="#01abab"/>
        <path id="Path_257" data-name="Path 257" d="M199.012,94.223c2.069,1.433,2.48,4.563,2.48,4.563s-2.946.806-5.012-.627S194,93.6,194,93.6s2.945-.806,5.012.627" transform="translate(-68.721 -33.076)" fill="#01abab"/>
        <path id="Path_258" data-name="Path 258" d="M208.186,103.732c-2.069,1.433-2.48,4.563-2.48,4.563s2.945.806,5.012-.627,2.479-4.563,2.479-4.563-2.945-.806-5.012.627" transform="translate(-72.869 -36.444)" fill="#01abab"/>
        <path id="Path_259" data-name="Path 259" d="M198.511,107.374c1.833,1.746,1.774,4.9,1.774,4.9s-3.03.327-4.863-1.419-1.774-4.9-1.774-4.9,3.03-.327,4.862,1.419" transform="translate(-68.599 -37.526)" fill="#01abab"/>
        <path id="Path_260" data-name="Path 260" d="M205.79,118.41c-2.256,1.089-3.123,4.116-3.123,4.116s2.792,1.262,5.048.174,3.123-4.116,3.123-4.116-2.792-1.263-5.048-.174" transform="translate(-71.793 -41.789)" fill="#01abab"/>
        <path id="Path_261" data-name="Path 261" d="M196.081,120.055c1.555,2.016,1.032,5.127,1.032,5.127s-3.043-.157-4.6-2.172-1.032-5.127-1.032-5.127,3.043.156,4.6,2.172" transform="translate(-67.801 -41.759)" fill="#01abab"/>
        <path id="Path_262" data-name="Path 262" d="M201.525,133.832c-2.388.729-3.685,3.582-3.685,3.582s2.577,1.684,4.966.96,3.685-3.582,3.685-3.582-2.577-1.683-4.966-.96" transform="translate(-70.083 -47.345)" fill="#01abab"/>
        <path id="Path_263" data-name="Path 263" d="M191.9,133.545c1.244,2.235.273,5.229.273,5.229s-2.985-.629-4.229-2.863-.273-5.23-.273-5.23,2.985.629,4.229,2.864" transform="translate(-66.353 -46.292)" fill="#01abab"/>
        <path id="Path_264" data-name="Path 264" d="M195.534,148.273c-2.466.35-4.155,2.978-4.155,2.978s2.308,2.06,4.775,1.71,4.155-2.978,4.155-2.978-2.308-2.06-4.775-1.71" transform="translate(-67.794 -52.51)" fill="#01abab"/>
        <path id="Path_265" data-name="Path 265" d="M186.114,146.161c.911,2.4-.473,5.214-.473,5.214s-2.862-1.08-3.774-3.481.473-5.214.473-5.214,2.863,1.08,3.774,3.481" transform="translate(-64.314 -50.542)" fill="#01abab"/>
        <path id="Path_266" data-name="Path 266" d="M187.953,161c-2.489-.026-4.53,2.317-4.53,2.317s1.994,2.387,4.482,2.415,4.53-2.317,4.53-2.317-1.994-2.388-4.482-2.415" transform="translate(-64.976 -57.033)" fill="#01abab"/>
        <path id="Path_267" data-name="Path 267" d="M178.871,157.181c.564,2.513-1.2,5.087-1.2,5.087s-2.68-1.5-3.244-4.015,1.2-5.086,1.2-5.086,2.681,1.5,3.244,4.009" transform="translate(-61.749 -54.258)" fill="#01abab"/>
        <path id="Path_268" data-name="Path 268" d="M178.926,172.047c-2.46-.4-4.807,1.613-4.807,1.613s1.64,2.662,4.1,3.062,4.807-1.613,4.807-1.613-1.64-2.662-4.1-3.062" transform="translate(-61.68 -60.928)" fill="#01abab"/>
        <path id="Path_269" data-name="Path 269" d="M170.313,166.666c.207,2.572-1.9,4.852-1.9,4.852s-2.441-1.888-2.648-4.46,1.9-4.852,1.9-4.852,2.442,1.888,2.649,4.46" transform="translate(-58.715 -57.46)" fill="#01abab"/>
        <path id="Path_270" data-name="Path 270" d="M168.6,181.48c-2.377-.766-4.982.872-4.982.872s1.249,2.88,3.626,3.645,4.981-.872,4.981-.872-1.249-2.88-3.625-3.645" transform="translate(-57.961 -64.216)" fill="#01abab"/>
        <path id="Path_271" data-name="Path 271" d="M160.593,174.707c-.156,2.575-2.561,4.514-2.561,4.514s-2.151-2.235-2-4.81,2.56-4.514,2.56-4.514,2.151,2.235,2,4.81" transform="translate(-55.272 -60.185)" fill="#01abab"/>
        <path id="Path_272" data-name="Path 272" d="M141.725,126.858l-.589-1.4c22.036-9.255,36.274-31.165,36.274-55.827,0-30.027-21.6-55.677-50.253-59.668l.081-.583c29.395,4.092,51.69,29.47,51.69,60.252,0,25.272-14.6,47.735-37.2,57.226" transform="translate(-45.045 -3.324)" fill="#01abab"/>
      </g>
    </g>
  </g>
</svg>
