<svg id="Group_5437" data-name="Group 5437" xmlns="http://www.w3.org/2000/svg" xmlns:xlink="http://www.w3.org/1999/xlink" width="662.783" height="92.768" viewBox="0 0 662.783 92.768">
  <defs>
    <clipPath id="clip-path">
      <rect id="Rectangle_82" data-name="Rectangle 82" width="252.316" height="57.355" fill="#fff"/>
    </clipPath>
    <clipPath id="clip-path-2">
      <rect id="Rectangle_83" data-name="Rectangle 83" width="253.418" height="57.414" fill="#fff"/>
    </clipPath>
  </defs>
  <g id="Group_55" data-name="Group 55" transform="translate(296.985 19.014)">
    <line id="Line_2" data-name="Line 2" x2="54.326" y2="53.421" transform="translate(0 0)" fill="none" stroke="#1c7f62" stroke-width="2"/>
    <line id="Line_3" data-name="Line 3" x1="54.326" y2="53.421" transform="translate(0 0)" fill="none" stroke="#1c7f62" stroke-width="2"/>
  </g>
  <g id="Group_65" data-name="Group 65">
    <rect id="Rectangle_76" data-name="Rectangle 76" width="283.026" height="92.768" fill="#1c7f62"/>
    <g id="Group_61" data-name="Group 61" transform="translate(15.525 17.913)">
      <g id="Group_60" data-name="Group 60" transform="translate(0 0)" clip-path="url(#clip-path)">
        <path id="Path_111" data-name="Path 111" d="M3.727,5.116H47.514v9.9H27.251v7.977H51.532v9.433H27.251V43.139a1.837,1.837,0,0,0,.524,1.31A1.758,1.758,0,0,0,29.114,45l19.449-.233v9.9l-22.36.117a8.566,8.566,0,0,1-6-2.649,8.495,8.495,0,0,1-2.562-6.027V32.425H0V22.992H17.643V15.015H3.727Z" transform="translate(0 -1.273)" fill="#fff"/>
        <path id="Path_112" data-name="Path 112" d="M86.25,48.48A90.764,90.764,0,0,0,100.865,3.644l9.9,1.979A97.8,97.8,0,0,1,93.412,55.467Z" transform="translate(-21.462 -0.907)" fill="#fff"/>
        <path id="Path_113" data-name="Path 113" d="M148.8,52.909l-4.309-10.481a57.093,57.093,0,0,0,27.833-4.134,9.71,9.71,0,0,0,4.484-4.425,10.384,10.384,0,0,0,.612-7.133,10.232,10.232,0,0,0-4.047-5.91,6.36,6.36,0,0,0-4.077-1.339,79.088,79.088,0,0,0-32.258,7.162L134.36,16.575a86.671,86.671,0,0,1,33.89-7.1A20.855,20.855,0,0,1,183.1,16.225,20.045,20.045,0,0,1,187.93,27.9,19.559,19.559,0,0,1,184.9,40.158a21.918,21.918,0,0,1-7.629,7.1A65.98,65.98,0,0,1,148.8,52.909m27.95-42.1-3.669-8.5L178.614.387l3.669,8.385Zm7.512.233-3.611-8.268L186.184.446l3.494,8.385Z" transform="translate(-33.433 -0.096)" fill="#fff"/>
        <path id="Path_114" data-name="Path 114" d="M244.2,57.355a196.557,196.557,0,0,0-28.416-22.476,7.511,7.511,0,0,1-3.552-6.842,7.566,7.566,0,0,1,3.9-6.667A87.946,87.946,0,0,0,241.642,0l7.8,6.987a80.822,80.822,0,0,1-24.573,21.2,128.9,128.9,0,0,1,27.717,22.476Z" transform="translate(-52.81 0)" fill="#fff"/>
        <path id="Path_115" data-name="Path 115" d="M280.353,2.328h9.491q-.409,4.193-.583,7.453l.815-1.223a15.626,15.626,0,0,1,6.7-5.706,16.362,16.362,0,0,1,8.734-1.339,15.878,15.878,0,0,1,8.211,3.232,16.6,16.6,0,0,1,5.357,7.075,34.41,34.41,0,0,1-.582,27.833A28.781,28.781,0,0,1,302.77,54.442a44.156,44.156,0,0,1-19.39,1.864l-2.911-10.19a33.777,33.777,0,0,0,18.925-.756,17.608,17.608,0,0,0,10.423-9.841,25.084,25.084,0,0,0,.116-20.729A6.883,6.883,0,0,0,299.626,12.4a27.437,27.437,0,0,0-4.774,6.288,69.507,69.507,0,0,0-5.94,18.866H279.13a249.79,249.79,0,0,1,1.224-35.228" transform="translate(-69.415 -0.348)" fill="#fff"/>
      </g>
    </g>
  </g>
  <g id="Group_64" data-name="Group 64" transform="translate(365.426)">
    <rect id="Rectangle_77" data-name="Rectangle 77" width="297.357" height="92.768" transform="translate(0)" fill="#1c7f62"/>
    <g id="Group_63" data-name="Group 63" transform="translate(21.496 17.913)">
      <g id="Group_62" data-name="Group 62" transform="translate(0 0)" clip-path="url(#clip-path-2)">
        <path id="Path_116" data-name="Path 116" d="M0,5.038H9.724V22.624a78.471,78.471,0,0,0,30.745-10.19L44.2,21.576A92.638,92.638,0,0,1,9.724,32.814V43.061a2.64,2.64,0,0,0,.844,1.718,2.939,2.939,0,0,0,1.66.786h31.56V55H9.9A10.593,10.593,0,0,1,3.232,52.03,10.206,10.206,0,0,1,0,45.507Z" transform="translate(0 -1.253)" fill="#fff"/>
        <path id="Path_117" data-name="Path 117" d="M70.938,0h9.84V10.889A145.409,145.409,0,0,1,113.5,34.7L108.5,43.439A143.64,143.64,0,0,0,80.778,24.4V57.414h-9.84Z" transform="translate(-17.652 0)" fill="#fff"/>
        <path id="Path_118" data-name="Path 118" d="M147.091,52.986l-4.309-10.481a57.093,57.093,0,0,0,27.833-4.134,9.708,9.708,0,0,0,4.484-4.424,10.384,10.384,0,0,0,.612-7.133,10.231,10.231,0,0,0-4.047-5.911,6.36,6.36,0,0,0-4.077-1.339,79.1,79.1,0,0,0-32.258,7.162l-2.679-10.074a86.685,86.685,0,0,1,33.89-7.1A20.858,20.858,0,0,1,181.388,16.3a20.047,20.047,0,0,1,4.833,11.675,19.557,19.557,0,0,1-3.027,12.258,21.927,21.927,0,0,1-7.629,7.1,65.979,65.979,0,0,1-28.474,5.647m27.95-42.1-3.669-8.5L176.9.464l3.669,8.386Zm7.512.233-3.611-8.268L184.475.523l3.494,8.385Z" transform="translate(-33.008 -0.115)" fill="#fff"/>
        <path id="Path_119" data-name="Path 119" d="M244.083,57.433a196.5,196.5,0,0,0-28.416-22.476,7.512,7.512,0,0,1-3.552-6.842,7.566,7.566,0,0,1,3.9-6.667,87.946,87.946,0,0,0,25.5-21.37l7.8,6.987A80.81,80.81,0,0,1,224.751,28.26a128.9,128.9,0,0,1,27.717,22.476Z" transform="translate(-52.78 -0.019)" fill="#fff"/>
        <path id="Path_120" data-name="Path 120" d="M281.82,2.4h9.492q-.409,4.193-.583,7.454l.815-1.223a15.632,15.632,0,0,1,6.7-5.707,16.369,16.369,0,0,1,8.734-1.339,15.88,15.88,0,0,1,8.211,3.232,16.6,16.6,0,0,1,5.357,7.075,34.408,34.408,0,0,1-.582,27.832A28.782,28.782,0,0,1,304.237,54.52a44.167,44.167,0,0,1-19.39,1.863l-2.912-10.19a33.777,33.777,0,0,0,18.925-.756,17.608,17.608,0,0,0,10.422-9.84,25.086,25.086,0,0,0,.116-20.73,6.883,6.883,0,0,0-10.307-2.387,27.455,27.455,0,0,0-4.774,6.288,69.512,69.512,0,0,0-5.94,18.866H280.6A249.885,249.885,0,0,1,281.82,2.4" transform="translate(-69.78 -0.367)" fill="#fff"/>
      </g>
    </g>
  </g>
</svg>
