<svg xmlns="http://www.w3.org/2000/svg" width="2140.031" height="91.239" viewBox="0 0 2140.031 91.239">
  <path id="Path_12902" data-name="Path 12902" d="M61.093-72.044H29.962v21.656H58.57v16.119H29.962V0H10.09V-88.225h51ZM146.364,0H124.708l-6.275-19.626H87.056L80.842,0H59.309L91.424-88.225h23.563ZM113.88-34.884l-9.475-29.654a38.644,38.644,0,0,1-1.477-7.937h-.492a33.651,33.651,0,0,1-1.538,7.69l-9.6,29.9ZM218.716-3.138q-9.659,4.676-25.225,4.676-20.3,0-31.931-11.936T149.933-42.205q0-21.164,13.074-34.33T196.937-89.7q12.92,0,21.779,3.261v19.134a38.592,38.592,0,0,0-20.18-5.291q-12.428,0-20.057,7.813T170.851-43.62q0,12.8,7.2,20.4t19.38,7.6a41.337,41.337,0,0,0,21.287-5.66Zm77.335-68.906H270.888V0H250.954V-72.044h-25.04V-88.225h70.137ZM340.532,1.538q-18.949,0-30.885-12.335T297.712-42.943q0-20.918,12.12-33.838T341.947-89.7q18.888,0,30.546,12.366t11.659,32.607q0,20.795-12.089,33.53T340.532,1.538Zm.861-74.136q-10.459,0-16.611,7.844T318.63-43.989q0,13.1,6.152,20.733A19.713,19.713,0,0,0,340.9-15.627q10.274,0,16.3-7.414t6.029-20.58q0-13.72-5.845-21.349T341.394-72.6ZM472.808,0H449.982l-13.72-22.7q-1.538-2.584-2.953-4.614a25.635,25.635,0,0,0-2.861-3.476,11.377,11.377,0,0,0-3.015-2.215,7.652,7.652,0,0,0-3.415-.769h-5.353V0H398.795V-88.225h31.5q32.115,0,32.115,23.994A24.847,24.847,0,0,1,461-55.709a23.671,23.671,0,0,1-4,7.044,25.349,25.349,0,0,1-6.245,5.414,32.2,32.2,0,0,1-8.152,3.568v.246a12.644,12.644,0,0,1,3.814,2,27.314,27.314,0,0,1,3.568,3.23,45.063,45.063,0,0,1,3.292,3.968q1.569,2.123,2.861,4.153ZM418.667-73.336v24.548h8.613q6.4,0,10.274-3.691a12.319,12.319,0,0,0,3.938-9.29q0-11.566-13.843-11.566ZM546.328-88.225,517.6-31.377V0H497.725V-31.008L469.731-88.225h22.7L506.646-55.31q.369.923,2.03,7.2h.246a32.052,32.052,0,0,1,1.907-6.952l14.458-33.161ZM628.339,1.538q-18.949,0-30.885-12.335T585.519-42.943q0-20.918,12.12-33.838T629.754-89.7q18.888,0,30.546,12.366t11.659,32.607q0,20.795-12.089,33.53T628.339,1.538ZM629.2-72.6q-10.459,0-16.611,7.844t-6.152,20.764q0,13.1,6.152,20.733a19.713,19.713,0,0,0,16.119,7.629q10.274,0,16.3-7.414t6.029-20.58q0-13.72-5.845-21.349T629.2-72.6ZM758.522-38.206q0,39.744-37.037,39.744-35.93,0-35.93-38.821V-88.225h19.934v51.188q0,21.41,16.734,21.41,16.427,0,16.427-20.672V-88.225h19.872Zm81.149-33.838H814.509V0H794.575V-72.044h-25.04V-88.225h70.137Zm7.813,68.66V-23.071a37.83,37.83,0,0,0,11.628,6.737,37.377,37.377,0,0,0,12.674,2.246,28.105,28.105,0,0,0,6.552-.677,15.348,15.348,0,0,0,4.676-1.876,8.184,8.184,0,0,0,2.8-2.83,7.061,7.061,0,0,0,.923-3.538,7.647,7.647,0,0,0-1.477-4.614,15.889,15.889,0,0,0-4.03-3.753,42.107,42.107,0,0,0-6.06-3.322q-3.507-1.6-7.567-3.261-10.336-4.307-15.412-10.521a22.968,22.968,0,0,1-5.076-15.012,23.909,23.909,0,0,1,2.769-11.843,23.513,23.513,0,0,1,7.537-8.152,33.793,33.793,0,0,1,11.043-4.707A56.745,56.745,0,0,1,881.754-89.7a79.929,79.929,0,0,1,12.212.831,48.028,48.028,0,0,1,9.813,2.553v18.4a29.672,29.672,0,0,0-4.83-2.707,38.264,38.264,0,0,0-5.383-1.938,41.063,41.063,0,0,0-5.506-1.138,38.971,38.971,0,0,0-5.2-.369,27.111,27.111,0,0,0-6.152.646,15.781,15.781,0,0,0-4.676,1.815,9.03,9.03,0,0,0-2.953,2.8,6.635,6.635,0,0,0-1.046,3.661,6.991,6.991,0,0,0,1.169,3.968,13.409,13.409,0,0,0,3.322,3.322,35.256,35.256,0,0,0,5.229,3.076q3.076,1.507,6.952,3.107a77.468,77.468,0,0,1,9.505,4.707,33.792,33.792,0,0,1,7.229,5.629,21.93,21.93,0,0,1,4.614,7.167,25.326,25.326,0,0,1,1.6,9.382,25.132,25.132,0,0,1-2.8,12.4,22.727,22.727,0,0,1-7.6,8.121A32.948,32.948,0,0,1,886.091.185a64.534,64.534,0,0,1-13.443,1.354A74.749,74.749,0,0,1,858.836.308,41.7,41.7,0,0,1,847.485-3.384ZM959.458,1.538q-18.949,0-30.885-12.335T916.638-42.943q0-20.918,12.12-33.838T960.873-89.7q18.888,0,30.546,12.366t11.659,32.607q0,20.795-12.089,33.53T959.458,1.538Zm.861-74.136q-10.459,0-16.611,7.844t-6.152,20.764q0,13.1,6.152,20.733a19.713,19.713,0,0,0,16.119,7.629q10.274,0,16.3-7.414t6.029-20.58q0-13.72-5.845-21.349T960.319-72.6Zm129.322,34.392q0,39.744-37.037,39.744-35.93,0-35.93-38.821V-88.225h19.934v51.188q0,21.41,16.734,21.41,16.427,0,16.427-20.672V-88.225h19.872ZM1182.85,0h-22.825L1146.3-22.7q-1.538-2.584-2.953-4.614a25.635,25.635,0,0,0-2.861-3.476,11.377,11.377,0,0,0-3.015-2.215,7.652,7.652,0,0,0-3.415-.769h-5.353V0h-19.872V-88.225h31.5q32.115,0,32.115,23.994a24.847,24.847,0,0,1-1.415,8.521,23.671,23.671,0,0,1-4,7.044,25.349,25.349,0,0,1-6.245,5.414,32.2,32.2,0,0,1-8.152,3.568v.246a12.644,12.644,0,0,1,3.814,2,27.314,27.314,0,0,1,3.568,3.23,45.063,45.063,0,0,1,3.292,3.968q1.569,2.123,2.861,4.153Zm-54.141-73.336v24.548h8.613q6.4,0,10.274-3.691a12.319,12.319,0,0,0,3.938-9.29q0-11.566-13.843-11.566Zm124.4,70.2q-9.659,4.676-25.225,4.676-20.3,0-31.931-11.936t-11.628-31.808q0-21.164,13.074-34.33T1231.33-89.7q12.92,0,21.779,3.261v19.134a38.592,38.592,0,0,0-20.18-5.291q-12.428,0-20.057,7.813t-7.629,21.164q0,12.8,7.2,20.4t19.38,7.6a41.337,41.337,0,0,0,21.287-5.66ZM1288.362,0H1268.49V-88.225h19.872Zm99.422,0h-20.057l-36.36-55.433a80.159,80.159,0,0,1-4.43-7.321h-.246q.492,4.676.492,14.273V0h-18.765V-88.225h21.41l35.007,53.71q2.4,3.63,4.43,7.2h.246a94.329,94.329,0,0,1-.492-12.12V-88.225h18.765Zm92.593-5.906q-12.92,7.444-32.115,7.444-21.287,0-33.561-11.782T1402.427-42.7q0-20.795,13.412-33.9t35.684-13.1a72.481,72.481,0,0,1,24.732,3.876v18.642q-10.213-5.906-24.979-5.906-12.366,0-20.149,8.029t-7.783,21.441q0,13.6,6.983,21.041t18.857,7.444q7.137,0,11.32-2.03V-34.392h-17.657V-50.265h37.529Zm115.172,2.769q-9.659,4.676-25.225,4.676-20.3,0-31.931-11.936t-11.628-31.808q0-21.164,13.074-34.33T1573.77-89.7q12.92,0,21.779,3.261v19.134a38.592,38.592,0,0,0-20.18-5.291q-12.428,0-20.057,7.813t-7.629,21.164q0,12.8,7.2,20.4t19.38,7.6a41.337,41.337,0,0,0,21.287-5.66Zm51.126,4.676q-18.949,0-30.885-12.335t-11.936-32.146q0-20.918,12.12-33.838T1648.09-89.7q18.888,0,30.546,12.366t11.659,32.607q0,20.795-12.089,33.53T1646.675,1.538Zm.861-74.136q-10.459,0-16.611,7.844t-6.152,20.764q0,13.1,6.152,20.733a19.713,19.713,0,0,0,16.119,7.629q10.274,0,16.3-7.414t6.029-20.58q0-13.72-5.845-21.349T1647.536-72.6ZM1805.467,0h-19.626V-52.787q0-8.552.738-18.888h-.492a92.94,92.94,0,0,1-2.769,11.689L1762.646,0H1746.4l-21.041-59.37a115.529,115.529,0,0,1-2.769-12.3h-.554q.8,13.043.8,22.887V0h-17.9V-88.225h29.1l18.026,52.295a73.63,73.63,0,0,1,3.138,12.612h.369a127,127,0,0,1,3.507-12.735L1777.1-88.225h28.362ZM1845.4-30.393V0h-19.872V-88.225h31.131q33.346,0,33.346,28.116,0,13.289-9.567,21.5t-25.563,8.213Zm0-42.574v27.5h7.813q15.873,0,15.873-13.9,0-13.6-15.873-13.6ZM1973.057,0H1951.4l-6.275-19.626h-31.377L1907.534,0H1886l32.115-88.225h23.563Zm-32.484-34.884L1931.1-64.538a38.644,38.644,0,0,1-1.477-7.937h-.492a33.651,33.651,0,0,1-1.538,7.69l-9.6,29.9ZM2063.435,0h-20.057l-36.36-55.433a80.159,80.159,0,0,1-4.43-7.321h-.246q.492,4.676.492,14.273V0h-18.765V-88.225h21.41l35.007,53.71q2.4,3.63,4.43,7.2h.246a94.329,94.329,0,0,1-.492-12.12V-88.225h18.765Zm86.687-88.225L2121.39-31.377V0h-19.872V-31.008l-27.993-57.217h22.7l14.212,32.915q.369.923,2.03,7.2h.246a32.052,32.052,0,0,1,1.907-6.952l14.458-33.161Z" transform="translate(-10.09 89.701)" fill="#f4f4f4"/>
</svg>
