<?xml version="1.0" encoding="utf-8"?>
<!-- Generator: Adobe Illustrator 15.0.0, SVG Export Plug-In . SVG Version: 6.00 Build 0)  -->
<!DOCTYPE svg PUBLIC "-//W3C//DTD SVG 1.1//EN" "http://www.w3.org/Graphics/SVG/1.1/DTD/svg11.dtd">
<svg version="1.1" id="レイヤー_1" xmlns="http://www.w3.org/2000/svg" xmlns:xlink="http://www.w3.org/1999/xlink" x="0px"
	 y="0px" width="365px" height="71px" viewBox="0 0 365 71" enable-background="new 0 0 365 71" xml:space="preserve">
<g>
	<path fill="#FFFFFF" stroke="#FFFFFF" stroke-width="5" stroke-miterlimit="10" d="M55.878,14.244H35.629V64h-7.47V14.244H8V9.203
		h47.878V14.244z"/>
	<path fill="#FFFFFF" stroke="#FFFFFF" stroke-width="5" stroke-miterlimit="10" d="M97.817,62.344
		c-2.79,1.08-7.919,2.448-15.389,2.448c-14.31,0-22.859-8.064-22.859-19.802c0-12.313,8.64-21.17,21.869-21.17
		c15.12,0,18.989,11.089,18.989,17.93c0,1.368-0.09,2.376-0.18,3.313H66.859c0.09,10.873,7.83,14.977,16.649,14.977
		c6.12,0,9.81-1.008,12.869-2.016L97.817,62.344z M93.048,40.598c0.09-5.329-2.7-12.241-12.33-12.241c-9,0-12.959,6.84-13.68,12.241
		H93.048z"/>
	<path fill="#FFFFFF" stroke="#FFFFFF" stroke-width="5" stroke-miterlimit="10" d="M144.707,62.56
		c-2.16,0.864-7.02,2.232-13.32,2.232c-14.039,0-23.309-7.993-23.309-20.018c0-12.097,9.99-20.954,25.109-20.954
		c5.49,0,9.899,1.296,11.79,2.088l-1.89,4.824c-2.07-0.936-5.31-2.016-10.08-2.016c-11.339,0-17.279,7.273-17.279,15.697
		c0,9.505,7.11,15.481,17.009,15.481c4.86,0,8.19-1.08,10.62-1.944L144.707,62.56z"/>
	<path fill="#FFFFFF" stroke="#FFFFFF" stroke-width="5" stroke-miterlimit="10" d="M194.386,64h-7.47V40.814
		c0-6.409-2.88-11.953-11.339-11.953c-5.76,0-12.959,3.816-12.959,11.017V64h-7.47V6.395h7.47v24.41h0.18
		c3.24-4.32,9.18-6.985,15.209-6.985s16.379,2.953,16.379,16.273V64z"/>
	<path fill="#FFFFFF" stroke="#FFFFFF" stroke-width="5" stroke-miterlimit="10" d="M271.873,24.685L256.304,64h-6.659l-7.74-19.729
		c-1.8-4.465-3.149-8.425-4.319-12.961h-0.271c-1.17,4.681-2.699,8.785-4.5,13.033L224.625,64h-6.75l-14.489-39.315h7.739
		l6.84,20.594c1.35,4.393,2.7,8.425,3.69,12.457h0.27c1.08-3.888,2.7-8.137,4.32-12.385l8.189-20.666h6.479l7.83,20.306
		c1.71,4.608,3.15,8.785,4.32,12.745h0.27c0.9-3.888,2.25-7.993,3.87-12.673l7.199-20.378H271.873z"/>
	<path fill="#FFFFFF" stroke="#FFFFFF" stroke-width="5" stroke-miterlimit="10" d="M315.613,62.344
		c-2.79,1.08-7.92,2.448-15.39,2.448c-14.309,0-22.858-8.064-22.858-19.802c0-12.313,8.64-21.17,21.869-21.17
		c15.119,0,18.989,11.089,18.989,17.93c0,1.368-0.091,2.376-0.181,3.313h-33.389c0.091,10.873,7.83,14.977,16.649,14.977
		c6.12,0,9.81-1.008,12.87-2.016L315.613,62.344z M310.844,40.598c0.09-5.329-2.7-12.241-12.33-12.241
		c-8.999,0-12.959,6.84-13.679,12.241H310.844z"/>
	<path fill="#FFFFFF" stroke="#FFFFFF" stroke-width="5" stroke-miterlimit="10" d="M336.854,64h-7.47V6.395h7.47V64z"/>
	<path fill="#FFFFFF" stroke="#FFFFFF" stroke-width="5" stroke-miterlimit="10" d="M359.172,64h-7.47V6.395h7.47V64z"/>
</g>
</svg>
