<svg id="Group_77" data-name="Group 77" xmlns="http://www.w3.org/2000/svg" width="198.628" height="26.572" viewBox="0 0 198.628 26.572">
  <g id="Group_76" data-name="Group 76" transform="translate(37.766 2.617)">
    <path id="Path_215" data-name="Path 215" d="M67.579,12.716l-5.892-1.256a1.942,1.942,0,0,1-1.568-1.787c0-1.2,1.807-2.531,4.225-2.531,2.225,0,4.039,1.1,4.039,2.458h3c0-3.062-3.1-5.461-7.048-5.461S57.1,6.625,57.1,9.68A4.948,4.948,0,0,0,61.035,14.4l5.892,1.256A1.942,1.942,0,0,1,68.5,17.446c0,1.109-1.887,2.345-4.418,2.345s-4.225-1.3-4.225-2.458h-3c0,3.062,3.175,5.461,7.234,5.461s7.42-2.352,7.42-5.354a4.948,4.948,0,0,0-3.933-4.723Z" transform="translate(-56.85 -4.007)" fill="#1eaa39"/>
    <path id="Path_216" data-name="Path 216" d="M92.648,4.11a8.605,8.605,0,0,0-7.015,3.707V4.708h-3V27.952h3V19a8.614,8.614,0,0,0,7.015,3.707,9.054,9.054,0,0,0,8.782-9.3,9.054,9.054,0,0,0-8.782-9.3ZM92.1,19.967a6.429,6.429,0,0,1-6.318-6.537,6.321,6.321,0,1,1,12.635,0A6.429,6.429,0,0,1,92.1,19.967Z" transform="translate(-65.504 -3.997)" fill="#1eaa39"/>
    <path id="Path_217" data-name="Path 217" d="M154.083,6.949a6.41,6.41,0,0,1,5.042,2.438l2.358-1.867a9.435,9.435,0,1,0-.013,11.718l-2.352-1.873a6.43,6.43,0,1,1-5.035-10.43Z" transform="translate(-86.324 -3.94)" fill="#1eaa39"/>
    <path id="Path_218" data-name="Path 218" d="M180.793,3.95a9.433,9.433,0,1,0,7.307,15.4l-2.325-1.9a6.431,6.431,0,0,1-11.233-2.558h15.684v-1.5a9.444,9.444,0,0,0-9.433-9.433Zm-6.251,7.932a6.43,6.43,0,0,1,12.5,0Z" transform="translate(-95.29 -3.943)" fill="#1eaa39"/>
    <path id="Path_219" data-name="Path 219" d="M289.466,13.383a9.433,9.433,0,1,0-2.126,5.965l-2.325-1.9a6.431,6.431,0,0,1-11.233-2.558h15.684v-1.5Zm-15.684-1.5a6.43,6.43,0,0,1,12.5,0Z" transform="translate(-128.604 -3.943)" fill="#1eaa39"/>
    <path id="Path_220" data-name="Path 220" d="M222.59,4.1a9.38,9.38,0,1,0,9.38,9.38A9.391,9.391,0,0,0,222.59,4.1Zm0,15.757a6.377,6.377,0,1,1,6.377-6.377A6.388,6.388,0,0,1,222.59,19.857Z" transform="translate(-109.339 -3.994)" fill="#1eaa39"/>
    <path id="Path_221" data-name="Path 221" d="M253.165,4.24h0a6.949,6.949,0,0,0-5.082,2.2V4.732h-3V22.2h3V10.338a4.63,4.63,0,0,1,4.4-3.209h0a4.63,4.63,0,0,1,4.63,4.63V22.183h3.023V11.215A6.974,6.974,0,0,0,253.165,4.24Z" transform="translate(-120.037 -4.041)" fill="#1eaa39"/>
    <path id="Path_222" data-name="Path 222" d="M128.721,7.538a8.586,8.586,0,0,0-6.809-3.428,9.054,9.054,0,0,0-8.782,9.3,9.054,9.054,0,0,0,8.782,9.3,8.576,8.576,0,0,0,6.809-3.428v2.876h3V4.688h-3Zm-6.258,12.429a6.429,6.429,0,0,1-6.318-6.537,6.306,6.306,0,0,1,12.575-.87V14.3a6.4,6.4,0,0,1-6.258,5.667Z" transform="translate(-75.743 -3.997)" fill="#1eaa39"/>
  </g>
  <path id="Path_223" data-name="Path 223" d="M18.142,13.67l-8.171,8.2H0l8.171-8.2Z" transform="translate(0 -4.589)" fill="#00913a"/>
  <path id="Path_224" data-name="Path 224" d="M34.982,13.67l-8.171,8.2H16.84l8.171-8.2Z" transform="translate(-5.653 -4.589)" fill="#1eaa39"/>
  <path id="Path_225" data-name="Path 225" d="M31.772,0,23.6,8.2H13.63L21.8,0Z" transform="translate(-4.575)" fill="#006934"/>
  <path id="Path_226" data-name="Path 226" d="M21.352,27.35l-8.171,8.2H3.21l8.171-8.2Z" transform="translate(-1.078 -9.181)" fill="#8dc21f"/>
</svg>
