<svg xmlns="http://www.w3.org/2000/svg" width="19.203" height="13.502" viewBox="0 0 19.203 13.502">
  <path id="Icon_awesome-youtube" data-name="Icon awesome-youtube" d="M19.852,6.613a2.413,2.413,0,0,0-1.7-1.709c-1.5-.4-7.5-.4-7.5-.4s-6,0-7.5.4a2.413,2.413,0,0,0-1.7,1.709,25.312,25.312,0,0,0-.4,4.652,25.312,25.312,0,0,0,.4,4.652,2.377,2.377,0,0,0,1.7,1.681c1.5.4,7.5.4,7.5.4s6,0,7.5-.4a2.377,2.377,0,0,0,1.7-1.681,25.312,25.312,0,0,0,.4-4.652,25.312,25.312,0,0,0-.4-4.652ZM8.688,14.12V8.409l5.019,2.855L8.688,14.12Z" transform="translate(-1.05 -4.5)" fill="#151618"/>
</svg>
