<svg xmlns="http://www.w3.org/2000/svg" xmlns:xlink="http://www.w3.org/1999/xlink" width="694" height="674" viewBox="0 0 694 674">
  <defs>
    <filter id="Path_549" x="213" y="206" width="268" height="268" filterUnits="userSpaceOnUse">
      <feOffset dy="3" input="SourceAlpha"/>
      <feGaussianBlur stdDeviation="10" result="blur"/>
      <feFlood flood-opacity="0.102"/>
      <feComposite operator="in" in2="blur"/>
      <feComposite in="SourceGraphic"/>
    </filter>
  </defs>
  <g id="Group_228" data-name="Group 228" transform="translate(-543 -3120)">
    <g id="Group_86" data-name="Group 86">
      <circle id="Ellipse_1" data-name="Ellipse 1" cx="148.5" cy="148.5" r="148.5" transform="translate(741 3120)" fill="#006934"/>
      <ellipse id="Ellipse_2" data-name="Ellipse 2" cx="148.5" cy="148" rx="148.5" ry="148" transform="translate(940 3265)" fill="#00913a"/>
      <ellipse id="Ellipse_5" data-name="Ellipse 5" cx="148.5" cy="148" rx="148.5" ry="148" transform="translate(862 3498)" fill="#1eaa39"/>
      <ellipse id="Ellipse_4" data-name="Ellipse 4" cx="148.5" cy="148" rx="148.5" ry="148" transform="translate(619 3498)" fill="#8dc21f"/>
      <ellipse id="Ellipse_3" data-name="Ellipse 3" cx="148.5" cy="148" rx="148.5" ry="148" transform="translate(543 3265)" fill="#22ac38"/>
      <path id="Intersection_1" data-name="Intersection 1" d="M9668.081,7913.45c56.3,19.866,96.991,72.609,98.852,135.075A148.573,148.573,0,0,1,9668.081,7913.45Z" transform="translate(-8927 -4640)" fill="#006934"/>
    </g>
    <g id="Group_88" data-name="Group 88">
      <path id="Path_548" data-name="Path 548" d="M-70.9-11.368h-1.932a11.267,11.267,0,0,1,.1,1.232c0,.238,0,.644-.014,1.134-.28.014-.56.028-.812.028a15.524,15.524,0,0,1-1.932-.112l.028,1.694a17.164,17.164,0,0,0,1.96.07c.224,0,.476-.014.742-.028v1.176c0,.322,0,.658.014.994-1.722.742-3.122,2.016-3.122,3.234,0,1.484,1.918,2.66,3.276,2.66.924,0,1.54-.462,1.54-2.2,0-.476-.028-1.568-.056-2.674a9.439,9.439,0,0,1,2.632-.392c1.218,0,2.058.56,2.058,1.512,0,1.022-.9,1.582-2.03,1.792a10.78,10.78,0,0,1-1.722.1l.644,1.806A12.818,12.818,0,0,0-67.69.434c2.226-.56,3.094-1.806,3.094-3.458,0-1.932-1.694-3.052-3.85-3.052a11.6,11.6,0,0,0-2.688.364V-6.23c0-.406,0-.84.014-1.26.91-.112,1.876-.252,2.674-.434l-.042-1.736a17.146,17.146,0,0,1-2.576.5c.014-.35.028-.686.042-.994C-70.994-10.514-70.938-11.116-70.9-11.368Zm3.99,1.512-.77,1.358A22.274,22.274,0,0,1-64.3-6.454l.84-1.428A29.256,29.256,0,0,0-66.906-9.856Zm-7.238,7.84c0-.49.574-1.064,1.428-1.526.028.756.042,1.4.042,1.75,0,.476-.2.588-.448.588C-73.486-1.2-74.144-1.582-74.144-2.016ZM-58.226-3.15a16.688,16.688,0,0,0,2.156-.938,15.205,15.205,0,0,0,2.394.938ZM-58.31-.588v-1.19h4.662v1.19Zm.672-6.468h3.108a8.05,8.05,0,0,1-1.54,1.2A8.1,8.1,0,0,1-57.708-7Zm4.522-1.316-.28.07h-3.052c.154-.2.308-.392.448-.588L-57.554-9.2H-51.7v1.554h1.708V-10.71h-5.194v-1.134H-56.9v1.134h-5.11v3.066h1.638V-9.2h2.576a8.138,8.138,0,0,1-3.934,2.814A4.658,4.658,0,0,1-60.62-5.152a13.955,13.955,0,0,0,1.708-.938,11.384,11.384,0,0,0,1.26,1.05,19.912,19.912,0,0,1-4.914,1.386A5.531,5.531,0,0,1-61.8-2.17c.63-.126,1.246-.266,1.862-.434V1.218h1.624V.784h4.662V1.19h1.722V-2.7c.462.084.938.168,1.428.238a8.161,8.161,0,0,1,1.05-1.61A21.361,21.361,0,0,1-54.4-5.124,8.955,8.955,0,0,0-52-7.7Zm9.6,3.99c-.238-.378-1.246-1.918-1.624-2.436v-.616h1.4v-1.54h-1.4v-2.884h-1.512v2.884h-1.68v1.54h1.554a14,14,0,0,1-1.876,4.69,7.988,7.988,0,0,1,.728,1.47,11.81,11.81,0,0,0,1.274-2.758V1.2h1.512V-4.83c.308.6.6,1.232.77,1.638Zm2.534,1.736c-1.19.616-2.422,1.246-3.248,1.624l.714,1.4c.9-.49,1.988-1.106,2.968-1.68Zm-2.45-1.526A9.813,9.813,0,0,1-42.1-2.38l1.19-.84a9.59,9.59,0,0,0-1.386-1.694Zm6.566-.784A11.02,11.02,0,0,1-38.22-3.444a7.6,7.6,0,0,1-.574-1.232v-.546h3.262V-6.58h-3.262V-7.2h2.716V-8.442h-2.716V-9h3.01v-1.3h-1.358c.224-.35.476-.77.728-1.19l-1.652-.378c-.14.448-.42,1.092-.63,1.568h-1.736a7.744,7.744,0,0,0-.8-1.54l-1.316.448A7.948,7.948,0,0,1-42-10.3h-1.428V-9H-40.4v.56H-43.05V-7.2H-40.4v.616h-3.29v1.358h3.29V-.448c0,.168-.056.238-.224.238s-.714,0-1.19-.028a5.179,5.179,0,0,1,.448,1.484,4.566,4.566,0,0,0,1.988-.28c.448-.252.588-.644.588-1.4V-1.89A6.64,6.64,0,0,0-36.316.574,6.2,6.2,0,0,1-35.266-.77,5.851,5.851,0,0,1-37.45-2.352,22.535,22.535,0,0,0-35.6-4.074Zm6.482-6.2-1.75.714c.63,1.484,1.3,2.982,1.946,4.172-1.344.994-2.324,2.156-2.324,3.7,0,2.408,2.114,3.178,4.9,3.178a26,26,0,0,0,4.494-.35l.028-2.016a21.613,21.613,0,0,1-4.578.518c-1.946,0-2.912-.532-2.912-1.54,0-.98.784-1.778,1.946-2.548a41.44,41.44,0,0,1,3.906-2.072c.518-.266.966-.5,1.386-.756L-24.3-9.786a8.748,8.748,0,0,1-1.3.854c-.658.378-1.876.98-3.024,1.652A33.255,33.255,0,0,1-30.38-11.158Zm9.954,4.8V-4.55h12.88V-6.356ZM.9-.812V-3.626H5.082v-1.61H.9V-7.7H5.614V-9.324H.9v-2.52H-.854v2.52H-3.01c.238-.644.462-1.3.658-1.974l-1.722-.378A12.045,12.045,0,0,1-6.552-6.664a13.239,13.239,0,0,1,1.5.994,11.539,11.539,0,0,0,1.3-2.03h2.9v2.464H-4.648v1.61H-.854V-.812h-5.4V.826H6.328V-.812ZM13.1-11.368H11.172a11.267,11.267,0,0,1,.1,1.232c0,.238,0,.644-.014,1.134-.28.014-.56.028-.812.028a15.524,15.524,0,0,1-1.932-.112L8.54-7.392a17.164,17.164,0,0,0,1.96.07c.224,0,.476-.014.742-.028v1.176c0,.322,0,.658.014.994-1.722.742-3.122,2.016-3.122,3.234,0,1.484,1.918,2.66,3.276,2.66.924,0,1.54-.462,1.54-2.2,0-.476-.028-1.568-.056-2.674a9.439,9.439,0,0,1,2.632-.392c1.218,0,2.058.56,2.058,1.512,0,1.022-.9,1.582-2.03,1.792a10.78,10.78,0,0,1-1.722.1L14.476.658A12.818,12.818,0,0,0,16.31.434C18.536-.126,19.4-1.372,19.4-3.024c0-1.932-1.694-3.052-3.85-3.052a11.6,11.6,0,0,0-2.688.364V-6.23c0-.406,0-.84.014-1.26.91-.112,1.876-.252,2.674-.434L15.512-9.66a17.146,17.146,0,0,1-2.576.5c.014-.35.028-.686.042-.994C13.006-10.514,13.062-11.116,13.1-11.368Zm3.99,1.512L16.324-8.5A22.275,22.275,0,0,1,19.7-6.454l.84-1.428A29.255,29.255,0,0,0,17.094-9.856ZM9.856-2.016c0-.49.574-1.064,1.428-1.526.028.756.042,1.4.042,1.75,0,.476-.2.588-.448.588C10.514-1.2,9.856-1.582,9.856-2.016Zm14.882-9.772A14.655,14.655,0,0,1,21.392-6.44a13.594,13.594,0,0,1,.98,1.736c.322-.336.658-.714.98-1.12V1.19H25.06V-8.428a25.715,25.715,0,0,0,1.33-2.828Zm9.786,2.94h-1.54V-11.7H31.248v2.856H25.914v1.68h5.334V-.812c0,.308-.126.42-.476.42-.322.014-1.554.014-2.632-.028a6.631,6.631,0,0,1,.644,1.652A9.952,9.952,0,0,0,32.06.952c.672-.252.924-.686.924-1.764V-7.168h1.54ZM29.946-2.926c-.42-.84-1.288-2.212-1.918-3.234l-1.484.686a36.248,36.248,0,0,1,1.82,3.36Zm7.1-4.186.1,1.652a52.065,52.065,0,0,0,6.09.014c.224.476.49.966.784,1.456-.42-.042-1.176-.112-1.764-.168l-.14,1.33c1.022.112,2.534.294,3.318.448l.854-1.288a4.268,4.268,0,0,1-.63-.714,12.741,12.741,0,0,1-.728-1.246,18.76,18.76,0,0,0,2.24-.434l-.28-1.652a18.074,18.074,0,0,1-2.674.56c-.084-.224-.168-.434-.238-.63s-.14-.434-.21-.658A20.409,20.409,0,0,0,46.34-8.96l-.224-1.61a16.091,16.091,0,0,1-2.758.6q-.147-.714-.252-1.47l-1.876.21c.168.49.308.938.448,1.386a29.122,29.122,0,0,1-4.382-.21l.1,1.61a32.733,32.733,0,0,0,4.718.126c.084.238.168.5.28.826.056.154.112.322.182.49A35.876,35.876,0,0,1,37.044-7.112Zm2.688,3.248L38-4.2a4.649,4.649,0,0,0-.6,2.254c.028,2,1.764,2.828,4.564,2.828a21.5,21.5,0,0,0,3.4-.266l.1-1.778a18.426,18.426,0,0,1-3.514.308c-1.848,0-2.828-.42-2.828-1.456A2.628,2.628,0,0,1,39.732-3.864Zm19.054.826V-.756h-5.53V-3.038Zm-7.168,4.27h1.638V.714h5.53v.518h1.708v-5.74H51.618Zm1.554-8.6a14.3,14.3,0,0,0,2.786-2.842,15.337,15.337,0,0,0,2.87,2.842Zm1.848-4.48a14.821,14.821,0,0,1-5.7,4.984A6.8,6.8,0,0,1,50.372-5.5a19.506,19.506,0,0,0,2.17-1.372v.98h6.972V-6.86a16.793,16.793,0,0,0,2.142,1.33,8.138,8.138,0,0,1,1.078-1.5,14.064,14.064,0,0,1-5.992-4.816ZM66.64-10.01l-2.156-.028A8.51,8.51,0,0,1,64.6-8.61c0,.854.014,2.492.154,3.78C65.142-1.078,66.472.308,68.012.308c1.12,0,2-.854,2.926-3.29l-1.4-1.708c-.266,1.12-.826,2.758-1.484,2.758-.882,0-1.3-1.386-1.5-3.4-.084-1.008-.1-2.058-.084-2.968A11.327,11.327,0,0,1,66.64-10.01Zm7,.322-1.778.574c1.526,1.736,2.268,5.138,2.492,7.392l1.834-.714A15.556,15.556,0,0,0,73.64-9.688ZM-75.894,20.4l.182,1.918c1.624-.35,4.48-.658,5.8-.8A5.6,5.6,0,0,0-72,25.842c0,3.038,2.772,4.606,5.712,4.8l.658-1.918c-2.38-.126-4.536-.952-4.536-3.262a4.254,4.254,0,0,1,2.968-3.92,14.544,14.544,0,0,1,2.7-.2l-.014-1.792c-.994.042-2.52.126-3.962.252-2.562.21-4.872.42-6.048.518C-74.788,20.354-75.334,20.382-75.894,20.4ZM-66.5,22.72l-1.036.434A10.8,10.8,0,0,1-66.444,25.1l1.064-.476A17.377,17.377,0,0,0-66.5,22.72Zm1.568-.644-1.022.476a12.316,12.316,0,0,1,1.148,1.89l1.05-.5A20.942,20.942,0,0,0-64.932,22.076Zm4.116.812.1,1.652a52.065,52.065,0,0,0,6.09.014c.224.476.49.966.784,1.456-.42-.042-1.176-.112-1.764-.168l-.14,1.33c1.022.112,2.534.294,3.318.448l.854-1.288a4.268,4.268,0,0,1-.63-.714,12.741,12.741,0,0,1-.728-1.246,18.76,18.76,0,0,0,2.24-.434l-.28-1.652a18.075,18.075,0,0,1-2.674.56c-.084-.224-.168-.434-.238-.63s-.14-.434-.21-.658a20.409,20.409,0,0,0,2.576-.518l-.224-1.61a16.091,16.091,0,0,1-2.758.6q-.147-.714-.252-1.47l-1.876.21c.168.49.308.938.448,1.386a29.122,29.122,0,0,1-4.382-.21l.1,1.61a32.732,32.732,0,0,0,4.718.126c.084.238.168.5.28.826.056.154.112.322.182.49A35.876,35.876,0,0,1-60.816,22.888Zm2.688,3.248-1.736-.336a4.649,4.649,0,0,0-.6,2.254c.028,2,1.764,2.828,4.564,2.828a21.5,21.5,0,0,0,3.4-.266l.1-1.778a18.426,18.426,0,0,1-3.514.308c-1.848,0-2.828-.42-2.828-1.456A2.628,2.628,0,0,1-58.128,26.136Zm14.448,2.212c0-.35.336-.672.868-.672.756,0,1.274.588,1.358,1.5a7.309,7.309,0,0,1-.812.042C-43.106,29.216-43.68,28.866-43.68,28.348Zm-2.38-9.016.056,1.82c.322-.042.77-.084,1.148-.112.742-.042,2.674-.126,3.388-.14-.686.6-2.142,1.778-2.926,2.422-.826.686-2.52,2.114-3.514,2.912l1.274,1.316c1.5-1.708,2.9-2.842,5.04-2.842,1.652,0,2.912.854,2.912,2.114a2.029,2.029,0,0,1-1.162,1.9,2.8,2.8,0,0,0-2.982-2.394,2.346,2.346,0,0,0-2.506,2.184c0,1.4,1.47,2.3,3.416,2.3,3.388,0,5.068-1.75,5.068-3.962,0-2.044-1.806-3.528-4.186-3.528a5.469,5.469,0,0,0-1.33.154c.882-.7,2.352-1.932,3.108-2.464.322-.238.658-.434.98-.644l-.91-1.246a6.117,6.117,0,0,1-1.064.154c-.8.07-3.794.126-4.536.126A9.715,9.715,0,0,1-46.06,19.332Zm15.876.49v.686h-2.2v-.686Zm-2.2,2.45v-.728h2.2v.728Zm3.766,1.134V18.674h-5.39V31.218h1.624V23.406ZM-26.11,22.3v-.756h2.268V22.3Zm2.268-2.478v.686H-26.11v-.686Zm1.638-1.148h-5.488v4.774h3.85V29.44c0,.168-.056.238-.224.238a7.028,7.028,0,0,1-.784,0,2.788,2.788,0,0,1,.266-.294,4.208,4.208,0,0,1-2.674-1.526h2.6V26.64H-27.51v-.728h2.716V24.75h-1.218l.6-.882-1.526-.392c-.112.35-.308.854-.476,1.274h-1.456a4.585,4.585,0,0,0-.672-1.26l-1.274.35a5.557,5.557,0,0,1,.462.91h-1.092v1.162h2.45v.728H-31.64v1.218h2.394A3.924,3.924,0,0,1-31.892,29.5a5.3,5.3,0,0,1,.966,1.078,5.439,5.439,0,0,0,2.8-1.75,4.8,4.8,0,0,0,2.646,1.764,5.9,5.9,0,0,1,.434-.672,5.769,5.769,0,0,1,.336,1.3,3.865,3.865,0,0,0,1.932-.308c.448-.266.574-.686.574-1.456Zm4.27-.49A15.3,15.3,0,0,1-21,23.462a10.926,10.926,0,0,1,.854,1.722A12.593,12.593,0,0,0-19.11,23.9v7.322h1.61V21.208a25.048,25.048,0,0,0,1.106-2.548Zm2.59,9.1a9.482,9.482,0,0,1-1.708,2.576,9.15,9.15,0,0,1,1.246.826,13.482,13.482,0,0,0,2-2.926Zm6.188-.9a7.616,7.616,0,0,1,.35.882l1.5-.644A14.309,14.309,0,0,0-9.2,23.392l-1.386.546c.224.322.462.672.672,1.036l-2.408.084a41.674,41.674,0,0,0,3.08-3.4l-1.526-.7a27.642,27.642,0,0,1-2.058,2.59c-.252-.21-.546-.448-.882-.686.588-.672,1.288-1.568,1.918-2.366l-.056-.028a32.071,32.071,0,0,0,3.6-.714l-1.092-1.33a41.371,41.371,0,0,1-7.154,1.148,5.3,5.3,0,0,1,.434,1.358c.7-.056,1.442-.126,2.184-.2-.294.476-.616.966-.924,1.386-.252-.168-.5-.322-.742-.462l-.966,1.078a21.249,21.249,0,0,1,2.59,1.96c-.14.154-.28.28-.42.42l-2.618.07.238,1.568,3.5-.168v4.634h1.652v-4.7Zm-1.722,1.47A12.078,12.078,0,0,1-9.17,30.6l1.456-.742A13.29,13.29,0,0,0-9.52,27.214ZM-.336,18.772l-1.848-.154a7.783,7.783,0,0,1-.28,1.61h-.672A18.216,18.216,0,0,1-5.6,20.06V21.7c.77.056,1.792.084,2.366.084h.182a13.739,13.739,0,0,1-3.094,3.864l1.5,1.12a16.119,16.119,0,0,1,1.3-1.54,3.41,3.41,0,0,1,2.184-.966,1.077,1.077,0,0,1,.98.476c-1.6.826-3.276,1.946-3.276,3.738s1.624,2.338,3.822,2.338a35.021,35.021,0,0,0,3.962-.238l.056-1.806a22.9,22.9,0,0,1-3.976.392c-1.372,0-2.03-.21-2.03-.98,0-.7.56-1.246,1.61-1.848-.014.616-.028,1.288-.07,1.708H1.6c-.014-.644-.042-1.68-.056-2.464.854-.392,1.652-.7,2.282-.952.476-.182,1.218-.462,1.666-.588l-.7-1.624c-.518.266-1.008.49-1.554.728-.574.252-1.162.49-1.89.826A1.9,1.9,0,0,0-.518,22.888a4.744,4.744,0,0,0-1.582.28,9.775,9.775,0,0,0,.8-1.428,41.705,41.705,0,0,0,4.564-.35l.014-1.624a35.444,35.444,0,0,1-3.962.406A13.394,13.394,0,0,0-.336,18.772Zm10.878,9.8V26.92h6.482v1.652ZM17.024,23.7v1.652H10.542V23.7Zm0-3.178v1.61H10.542v-1.61ZM8.862,18.9V31.064h1.68V30.2h6.482v.868h1.764V18.9Zm17.374,5.138c-.476.126-.966.252-1.456.378v-2.1h1.428v-1.54H24.78V18.156H23.142v2.618H21.406v1.54h1.736v2.492c-.714.168-1.386.322-1.946.434l.392,1.6,1.554-.406v3c0,.2-.07.252-.266.266s-.742,0-1.288-.028a5.934,5.934,0,0,1,.462,1.526,4.661,4.661,0,0,0,2.114-.294c.476-.266.616-.658.616-1.484v-3.4c.56-.154,1.106-.308,1.652-.462Zm5.824,2.17v.854H28.49v-.854Zm-3.57,3.08v-.924h3.57v.924Zm-1.582,1.932H28.49v-.6h3.57v.546h1.652V24.834h-6.8Zm2.646-8.68c-.812,0-.952-.07-.952-.6v-.588a30.135,30.135,0,0,0,4.956-1.386l-1.232-1.2A22.267,22.267,0,0,1,28.6,19.99V18.156H26.936V21.95c0,1.61.5,2.086,2.45,2.086H32.1c1.6,0,2.086-.532,2.3-2.506a4.505,4.505,0,0,1-1.512-.6c-.1,1.386-.21,1.61-.91,1.61Zm10.5-3.64L37.8,18.87a8.929,8.929,0,0,1,.182,1.89c0,1.2-.14,4.886-.14,6.762,0,2.394,1.484,3.4,3.78,3.4A7.247,7.247,0,0,0,47.7,27.7l-1.274-1.54a5.6,5.6,0,0,1-4.788,2.856A1.692,1.692,0,0,1,39.7,27.144c0-1.736.112-4.872.168-6.384C39.9,20.2,39.97,19.486,40.054,18.9Zm12.782,9.52c0-.476.546-.868,1.54-.868a7.775,7.775,0,0,1,1.148.1c.014.252.014.448.014.6,0,.812-.49,1.022-1.232,1.022C53.34,29.272,52.836,28.95,52.836,28.418Zm4.382-9.744h-1.89a5.628,5.628,0,0,1,.084.966V20.3h-.546a26.137,26.137,0,0,1-3.458-.308l.042,1.6a32.183,32.183,0,0,0,3.43.252H55.4c-.014.476-.014.98-.014,1.442h-.672a24.739,24.739,0,0,1-3.374-.266l.014,1.652c.924.112,2.52.182,3.332.182h.728c.014.42.028.868.056,1.3-.28-.028-.574-.042-.868-.042-2.156,0-3.458.994-3.458,2.408,0,1.484,1.176,2.338,3.416,2.338,1.848,0,2.758-.924,2.758-2.114,0-.154,0-.322-.014-.518a10.731,10.731,0,0,1,2.828,1.946L61.138,28.6a10.961,10.961,0,0,0-3.92-2.114c-.042-.56-.07-1.134-.1-1.666,1.344-.042,2.436-.14,3.7-.28l.014-1.652c-1.134.154-2.324.266-3.738.336V21.782c1.358-.07,2.632-.2,3.556-.308l.014-1.61a29.342,29.342,0,0,1-3.542.378c0-.224,0-.434.014-.574A9.455,9.455,0,0,1,57.218,18.674ZM72,18.716h-2.03a10.159,10.159,0,0,1,.14,1.218c.014.112.014.252.028.434-1.9.028-4.452.084-6.048.084l.042,1.694c1.722-.1,3.906-.182,6.02-.21.014.308.014.63.014.938a3.633,3.633,0,0,0-.56-.042,2.641,2.641,0,0,0-2.8,2.618,2.47,2.47,0,0,0,2.408,2.576,2.993,2.993,0,0,0,.63-.07,6.291,6.291,0,0,1-3.416,1.6l1.5,1.484c3.416-.952,4.48-3.276,4.48-5.1a3.563,3.563,0,0,0-.5-1.918c0-.616-.014-1.386-.014-2.1,1.9,0,3.206.028,4.046.07l.014-1.652c-.728-.014-2.646.014-4.06.014.014-.168.014-.322.014-.434C71.918,19.7,71.974,18.94,72,18.716Zm-3.514,6.706a1.054,1.054,0,0,1,1.078-1.12,1.032,1.032,0,0,1,.91.49c.2,1.232-.322,1.68-.91,1.68A1.045,1.045,0,0,1,68.488,25.422Z" transform="translate(889.5 3260)" fill="#fff"/>
      <path id="Path_547" data-name="Path 547" d="M-80.752-11.83A14.534,14.534,0,0,1-83.79-6.748a12.672,12.672,0,0,1,.854,1.68A10.864,10.864,0,0,0-82.082-6.1V1.2h1.568V-8.6a24.3,24.3,0,0,0,1.26-2.758Zm6.076,4.578H-75.6V-9h.924Zm2.338,5.936h-.938V-5.81h.938ZM-77.882-5.81h.868v4.494h-.868Zm3.206,0v4.494h-.938V-5.81Zm4-3.192v-1.484h-8.89V-9h2.394v1.75h-2.254V.91h1.54v-.8h5.544V.826h1.6V-7.252h-2.366V-9Zm11.858,2.534h-2.492v-.714h2.492Zm0,1.834h-2.492v-.714h2.492Zm0,1.848h-2.492v-.728h2.492Zm-4.032-5.6v6.8H-57.2v-6.8h-2.744c.042-.238.07-.5.112-.77h3.206v-1.428h-3.052c.042-.406.084-.812.112-1.19l-1.666-.07c-.014.392-.042.826-.07,1.26h-3.6v1.428h3.486c-.028.266-.056.532-.084.77Zm-3.808-3.43a14.879,14.879,0,0,1-3.178,5.25,10.546,10.546,0,0,1,.882,1.722A12.865,12.865,0,0,0-68-5.964V1.19h1.582V-8.428a22.314,22.314,0,0,0,1.344-2.884ZM-56.546-.854h-7.14v-6.72h-1.54V1.2h1.54V.574h7.14Zm13.524-4.074a5.331,5.331,0,0,0-5.656-5.46A6.22,6.22,0,0,0-55.1-4.4c0,2.366,1.288,4.074,2.842,4.074,1.526,0,2.73-1.736,3.57-4.564a28.313,28.313,0,0,0,.84-3.794,3.461,3.461,0,0,1,2.94,3.7A3.8,3.8,0,0,1-48.1-1.232a10.768,10.768,0,0,1-1.3.224l1.05,1.666C-44.828.112-43.022-1.974-43.022-4.928Zm-10.29.35a4.407,4.407,0,0,1,3.556-4.06A21.014,21.014,0,0,1-50.5-5.25c-.574,1.89-1.12,2.772-1.708,2.772C-52.752-2.478-53.312-3.164-53.312-4.578Zm18.256-6.692-1.82-.042c.014.238-.014.574-.028.84q-.042.357-.084.756h-.56a19.783,19.783,0,0,1-2.576-.2l.042,1.624c.658.028,1.75.084,2.478.084h.448q-.084.861-.126,1.764c-1.96.924-3.444,2.8-3.444,4.606A1.811,1.811,0,0,0-38.836.2a5,5,0,0,0,2.17-.56c.056.2.126.392.182.574l1.61-.49c-.112-.336-.224-.686-.322-1.036a10.75,10.75,0,0,0,2.94-4.256A2.082,2.082,0,0,1-30.8-3.612c0,1.372-1.092,2.744-3.794,3.038L-33.67.9c3.444-.518,4.606-2.436,4.606-4.424a3.621,3.621,0,0,0-2.7-3.43c.084-.266.2-.56.252-.714l-1.708-.406a7.692,7.692,0,0,1-.126.84H-33.6a9.55,9.55,0,0,0-2.086.252c.014-.42.056-.854.1-1.274a38.531,38.531,0,0,0,4.97-.49l-.014-1.624a24.572,24.572,0,0,1-4.76.616c.042-.28.1-.532.14-.77C-35.2-10.738-35.14-10.99-35.056-11.27ZM-39.074-2.2a3.652,3.652,0,0,1,1.75-2.576,19.509,19.509,0,0,0,.294,2.8,2.984,2.984,0,0,1-1.4.462C-38.878-1.512-39.074-1.75-39.074-2.2Zm3.332-3.262V-5.5A6.979,6.979,0,0,1-33.81-5.81a8.621,8.621,0,0,1-1.764,2.674A14.727,14.727,0,0,1-35.742-5.46Zm13.2,3.808c0-.35.336-.672.868-.672.756,0,1.274.588,1.358,1.5a7.309,7.309,0,0,1-.812.042C-21.966-.784-22.54-1.134-22.54-1.652Zm-2.38-9.016.056,1.82c.322-.042.77-.084,1.148-.112.742-.042,2.674-.126,3.388-.14-.686.6-2.142,1.778-2.926,2.422-.826.686-2.52,2.114-3.514,2.912l1.274,1.316c1.5-1.708,2.9-2.842,5.04-2.842,1.652,0,2.912.854,2.912,2.114a2.029,2.029,0,0,1-1.162,1.9,2.8,2.8,0,0,0-2.982-2.394,2.346,2.346,0,0,0-2.506,2.184c0,1.4,1.47,2.3,3.416,2.3,3.388,0,5.068-1.75,5.068-3.962,0-2.044-1.806-3.528-4.186-3.528a5.469,5.469,0,0,0-1.33.154c.882-.7,2.352-1.932,3.108-2.464.322-.238.658-.434.98-.644l-.91-1.246a6.117,6.117,0,0,1-1.064.154c-.8.07-3.794.126-4.536.126A9.715,9.715,0,0,1-24.92-10.668ZM-8.344-8.19a6.682,6.682,0,0,0-.448-1.092h3.5c-.154.364-.35.756-.518,1.092ZM-2.8-5.922a4.072,4.072,0,0,1-.98-.392c-.042.672-.1.77-.336.77h-.728c-.238,0-.28-.042-.28-.336v-.882H-2.8Zm-8.26-.84h1.918c-.1.966-.42,1.47-1.918,1.764ZM-5.7-1.414h-2.52V-2.59H-5.7Zm4.83-7.868v-1.512H-6.216v-1.05H-7.91v1.05h-5.208v1.512h2.534A9.331,9.331,0,0,1-10.15-8.19h-2.492V1.19h1.582V-4.8a3.376,3.376,0,0,1,.6.98c2.128-.49,2.646-1.386,2.772-2.94h1.134v.9c0,1.134.252,1.512,1.5,1.512H-3.92a1.077,1.077,0,0,0,1.12-.56v4.3c0,.21-.07.28-.308.28-.168,0-.6,0-1.092-.014V-3.822H-9.688v4.4h1.47V-.2H-4.8a6.729,6.729,0,0,1,.476,1.414A6.234,6.234,0,0,0-1.9.938C-1.358.672-1.19.224-1.19-.6V-8.19H-3.976c.182-.308.392-.686.616-1.092ZM9.45-7.826H4.55v-1.89h4.9Zm1.694-3.486H2.94v5.068h8.2ZM4.676-3.486v2.408H2.59V-3.486Zm-3.654,4.7H2.59v-.7H4.676v.63H6.342v-6.23H1.022Zm8.106-2.3V-3.486h2.226v2.408Zm-1.6-4v6.3h1.6v-.7h2.226v.644h1.68V-5.082ZM17.57.966l1.5-1.288a25.193,25.193,0,0,0-3.052-3.066L14.56-2.128A27.434,27.434,0,0,1,17.57.966ZM36.19-1.05H33.768v-.91H36.19Zm4.48-4.032H29.442v6.3h1.624V-3.7H38.99V-.574c0,.168-.056.21-.266.224-.154.014-.588.014-1.064,0V-3.066H32.312V.7h1.456V.07H37.38A4.722,4.722,0,0,1,37.7,1.19,5.588,5.588,0,0,0,39.97.924c.546-.252.7-.7.7-1.47ZM37.128-6.79H32.76v-.854h4.368Zm-5.95-1.96v3.08h7.644V-8.75ZM35.756-10.7v-1.176H34.062V-10.7h-5.18v1.414H41.118V-10.7ZM51.45-7.826h-4.9v-1.89h4.9Zm1.694-3.486h-8.2v5.068h8.2ZM46.676-3.486v2.408H44.59V-3.486Zm-3.654,4.7H44.59v-.7h2.086v.63h1.666v-6.23h-5.32Zm8.106-2.3V-3.486h2.226v2.408Zm-1.6-4v6.3h1.6v-.7h2.226v.644h1.68V-5.082ZM60.018-2.758h6.076v.616H60.018Zm0-1.54h6.076v.6H60.018Zm0-1.554h6.076v.6H60.018Zm7.77,4.718V-6.846H63.224A3.72,3.72,0,0,0,64.6-8.568H66.01V-7.1h1.484v-1.47h1.764v-1.2H64.876c.014-.14.014-.28.014-.406v-.07a21.854,21.854,0,0,0,3.822-.6L67.7-11.844a21.608,21.608,0,0,1-3.136.574l-1.12-.266v1.274a2.534,2.534,0,0,1-.49,1.624V-9.772h-3.85c.014-.14.014-.294.014-.42v-.07a17.931,17.931,0,0,0,3.556-.6l-1.022-.98a17.1,17.1,0,0,1-2.912.56L57.68-11.55v1.274a3.8,3.8,0,0,1-1.19,3,4.8,4.8,0,0,1,1.092,1.036,4.678,4.678,0,0,0,1.344-2.324h1.232v1.456h1.484V-8.568H62.9a3.448,3.448,0,0,1-.812.7,3.979,3.979,0,0,1,.966,1.022H58.408v5.712H60.48A16.439,16.439,0,0,1,56.63.042,16.886,16.886,0,0,1,57.862,1.26,17.348,17.348,0,0,0,62.23-.574l-1.274-.56h4.088l-1.26.728a27.605,27.605,0,0,1,3.64,1.652L69.356.5C68.4.042,66.794-.63,65.366-1.134Zm15.19-3.794a5.331,5.331,0,0,0-5.656-5.46A6.22,6.22,0,0,0,70.9-4.4c0,2.366,1.288,4.074,2.842,4.074,1.526,0,2.73-1.736,3.57-4.564a28.313,28.313,0,0,0,.84-3.794,3.461,3.461,0,0,1,2.94,3.7A3.8,3.8,0,0,1,77.9-1.232a10.768,10.768,0,0,1-1.3.224L77.644.658C81.172.112,82.978-1.974,82.978-4.928Zm-10.29.35a4.407,4.407,0,0,1,3.556-4.06A21.014,21.014,0,0,1,75.5-5.25c-.574,1.89-1.12,2.772-1.708,2.772C73.248-2.478,72.688-3.164,72.688-4.578ZM-73.528,23.812V23.35h1.036c.742,0,1.232.014,1.54.042V21.53a8.3,8.3,0,0,1-1.54.1h-1.036v-1.47a8.82,8.82,0,0,1,.1-1.3h-2a9.239,9.239,0,0,1,.084,1.3v1.47h-3.318V20.242a8.556,8.556,0,0,1,.084-1.26H-80.57c.042.42.084.854.084,1.26v1.386h-1.19a9.094,9.094,0,0,1-1.512-.126v1.9c.308-.028.812-.056,1.512-.056h1.19v1.9a11.322,11.322,0,0,1-.084,1.47h1.96c-.014-.28-.056-.854-.056-1.47v-1.9h3.318v.532c0,3.444-1.19,4.648-3.892,5.586l1.5,1.414C-74.368,29.4-73.528,27.284-73.528,23.812Zm4.816-.294v2.2c.518-.042,1.456-.07,2.254-.07h7.518c.588,0,1.3.056,1.638.07v-2.2c-.364.028-.98.084-1.638.084h-7.518C-67.186,23.6-68.208,23.56-68.712,23.518Zm23.044-4.858-1.106.448a16.755,16.755,0,0,1,1.092,1.946l1.134-.476C-44.814,20.06-45.318,19.178-45.668,18.66Zm1.652-.63-1.106.448a14.842,14.842,0,0,1,1.134,1.932l1.106-.476A15.455,15.455,0,0,0-44.016,18.03ZM-51.7,19.262h-2.072a11.584,11.584,0,0,1,.112,1.456v7.63a2.02,2.02,0,0,0,1.918,2.1,15.584,15.584,0,0,0,2.352.154,39.783,39.783,0,0,0,4.984-.294V28.264a23.717,23.717,0,0,1-4.872.49A13.094,13.094,0,0,1-50.9,28.67c-.63-.126-.91-.28-.91-.882V25.2a48.324,48.324,0,0,0,5.488-1.708c.462-.168,1.092-.434,1.638-.658l-.756-1.778a9.054,9.054,0,0,1-1.526.756,35.307,35.307,0,0,1-4.844,1.554V20.718A10.518,10.518,0,0,1-51.7,19.262Zm21.378,1.246-1.148-.854a5.018,5.018,0,0,1-1.442.182h-4.942a15.641,15.641,0,0,1-1.652-.1v1.988c.294-.014,1.064-.1,1.652-.1h4.746a10.847,10.847,0,0,1-2.086,3.43,15.694,15.694,0,0,1-5.74,4.018l1.442,1.512a18.441,18.441,0,0,0,5.264-3.934A31.926,31.926,0,0,1-30.7,30.616l1.6-1.386a39.357,39.357,0,0,0-3.906-4,20.583,20.583,0,0,0,2.2-3.85A6.615,6.615,0,0,1-30.324,20.508Zm9.128-1.736-1.848-.154a7.783,7.783,0,0,1-.28,1.61H-24a18.216,18.216,0,0,1-2.464-.168V21.7c.77.056,1.792.084,2.366.084h.182a13.739,13.739,0,0,1-3.094,3.864l1.5,1.12a16.119,16.119,0,0,1,1.3-1.54,3.41,3.41,0,0,1,2.184-.966,1.077,1.077,0,0,1,.98.476c-1.6.826-3.276,1.946-3.276,3.738s1.624,2.338,3.822,2.338a35.021,35.021,0,0,0,3.962-.238l.056-1.806a22.9,22.9,0,0,1-3.976.392c-1.372,0-2.03-.21-2.03-.98,0-.7.56-1.246,1.61-1.848-.014.616-.028,1.288-.07,1.708h1.68c-.014-.644-.042-1.68-.056-2.464.854-.392,1.652-.7,2.282-.952.476-.182,1.218-.462,1.666-.588l-.7-1.624c-.518.266-1.008.49-1.554.728-.574.252-1.162.49-1.89.826a1.9,1.9,0,0,0-1.862-1.078,4.744,4.744,0,0,0-1.582.28,9.775,9.775,0,0,0,.8-1.428,41.705,41.705,0,0,0,4.564-.35l.014-1.624a35.444,35.444,0,0,1-3.962.406A13.394,13.394,0,0,0-21.2,18.772Zm17.668,2.1V22.09H-7.21V20.872Zm.518,4.886v1.414h-4.2V25.758Zm-5.824,2.786h7.462V24.372H-7.21v-.924h5.292V19.514H-4.746c.168-.35.35-.756.518-1.162L-6.2,18.128c-.07.392-.2.924-.322,1.386h-2.31Zm-.924-7.966A11.211,11.211,0,0,0-12.1,18.464l-1.232,1.008a10.594,10.594,0,0,1,2.254,2.212Zm-.35,3h-3.234V25.1h1.61v2.954a18.385,18.385,0,0,1-1.918,1.288l.812,1.736c.77-.588,1.386-1.134,2-1.68a4.658,4.658,0,0,0,3.78,1.554c1.666.07,4.48.042,6.16-.042a8.719,8.719,0,0,1,.518-1.68c-1.862.14-5.012.182-6.65.112-1.456-.056-2.506-.434-3.08-1.372ZM5.04,25.828C3.374,26.794,1.568,27.8.406,28.376l1.036,1.54c1.218-.7,2.772-1.666,4.158-2.562Zm-.2-1.064a13.287,13.287,0,0,0-2.184-2.45l-1.274.9a13.66,13.66,0,0,1,2.1,2.534Zm6.468-2.632a17.44,17.44,0,0,1-2.2,2.548,14.315,14.315,0,0,1-1.3-2.674v-.14h5.4v-1.61H11.662l.644-.728a17.255,17.255,0,0,0-2.6-1.456l-.966,1.05a19.329,19.329,0,0,1,1.932,1.134H7.812v-2.1H6.118v2.1H.84v1.61H6.118V29.16c0,.252-.1.336-.364.336s-1.162.014-2.016-.028a6.908,6.908,0,0,1,.574,1.75,6.425,6.425,0,0,0,2.73-.336c.588-.266.77-.728.77-1.708V25.422a11.589,11.589,0,0,0,4.606,4.844,6.688,6.688,0,0,1,1.232-1.484,10.124,10.124,0,0,1-3.626-2.856,32.257,32.257,0,0,0,2.758-2.772ZM19.194,18.9,16.94,18.87a8.929,8.929,0,0,1,.182,1.89c0,1.2-.14,4.886-.14,6.762,0,2.394,1.484,3.4,3.78,3.4a7.247,7.247,0,0,0,6.076-3.22l-1.274-1.54a5.6,5.6,0,0,1-4.788,2.856,1.692,1.692,0,0,1-1.932-1.876c0-1.736.112-4.872.168-6.384C19.04,20.2,19.11,19.486,19.194,18.9ZM31.57,30.966l1.5-1.288a25.193,25.193,0,0,0-3.052-3.066l-1.456,1.26A27.434,27.434,0,0,1,31.57,30.966Zm13.65-5.474h1.736v.952H45.22Zm1.736-4.242v.812H45.22V21.25ZM45.22,23.336h1.736v.882H45.22Zm4.116,3.108h-.854V21.25h.952V19.794h-.952V18.31H46.956v1.484H45.22V18.31h-1.5v1.484H42.63V21.25h1.092v5.194h-1.26V27.9h6.874ZM44.2,28a6.478,6.478,0,0,1-1.848,2.268,9.4,9.4,0,0,1,1.33.994,9.848,9.848,0,0,0,2.072-2.8Zm7.252-2.9c.014-.434.014-.84.014-1.2v-.518H53.48V25.1Zm2.03-4.83v1.638H51.464V20.27Zm1.61-1.512H49.91V23.9a14.909,14.909,0,0,1-.882,5.936,15.252,15.252,0,0,0-1.512-1.9l-1.26.686a13.919,13.919,0,0,1,1.5,2.114l1.162-.658c-.042.084-.1.154-.14.238a4.81,4.81,0,0,1,1.316.938,11.49,11.49,0,0,0,1.26-4.662H53.48v2.758c0,.224-.07.294-.28.294s-.868.014-1.47-.028a6.032,6.032,0,0,1,.476,1.582,4.811,4.811,0,0,0,2.24-.294c.49-.266.644-.7.644-1.526ZM59.3,18.17a9.773,9.773,0,0,1-2.87,2.73,9.652,9.652,0,0,1,.812,1.414,14.35,14.35,0,0,0,3.626-3.5ZM61.516,27.4a10.78,10.78,0,0,1,1.54,2.45l1.456-.784a10.681,10.681,0,0,0-1.638-2.38ZM69.58,23.98V22.468H65.9V21.25h3.024V19.738H65.9V18.212H64.246v1.526h-2.87V21.25h2.87v1.218H60.718c.14-.21.266-.42.392-.616l-1.456-.63a12.518,12.518,0,0,1-3.36,3.6,13.216,13.216,0,0,1,.784,1.722,13.372,13.372,0,0,0,1.26-1.148V31.2h1.6V23.56c.238-.294.448-.6.658-.9V23.98H66.15v1.106H60.732V26.6H66.15v2.828c0,.2-.07.238-.28.238s-.994.014-1.68-.014a6.644,6.644,0,0,1,.518,1.568,6.449,6.449,0,0,0,2.38-.266c.56-.252.728-.658.728-1.5V26.6h1.638V25.086H67.816V23.98ZM76.8,18.772l-1.848-.154a7.783,7.783,0,0,1-.28,1.61H74a18.216,18.216,0,0,1-2.464-.168V21.7c.77.056,1.792.084,2.366.084h.182a13.739,13.739,0,0,1-3.094,3.864l1.5,1.12a16.12,16.12,0,0,1,1.3-1.54,3.41,3.41,0,0,1,2.184-.966,1.077,1.077,0,0,1,.98.476c-1.6.826-3.276,1.946-3.276,3.738s1.624,2.338,3.822,2.338a35.021,35.021,0,0,0,3.962-.238l.056-1.806a22.9,22.9,0,0,1-3.976.392c-1.372,0-2.03-.21-2.03-.98,0-.7.56-1.246,1.61-1.848-.014.616-.028,1.288-.07,1.708h1.68c-.014-.644-.042-1.68-.056-2.464.854-.392,1.652-.7,2.282-.952.476-.182,1.218-.462,1.666-.588l-.7-1.624c-.518.266-1.008.49-1.554.728-.574.252-1.162.49-1.89.826a1.9,1.9,0,0,0-1.862-1.078,4.744,4.744,0,0,0-1.582.28,9.775,9.775,0,0,0,.8-1.428,41.705,41.705,0,0,0,4.564-.35l.014-1.624a35.444,35.444,0,0,1-3.962.406A13.394,13.394,0,0,0,76.8,18.772ZM-65.03,56.738h1.848V55.3H-65.03V53.77h2.016v-.644a9.278,9.278,0,0,1,.868.7,5.245,5.245,0,0,0,2.352-3.78h1.484a5.127,5.127,0,0,1-.294,1.946.518.518,0,0,1-.406.14,9.855,9.855,0,0,1-1.134-.056,3.3,3.3,0,0,1,.406,1.4,10.552,10.552,0,0,0,1.554-.028,1.362,1.362,0,0,0,.938-.476c.336-.392.462-1.414.56-3.738.014-.2.014-.574.014-.574h-6.174v1.386h1.5a3.754,3.754,0,0,1-1.666,2.6V52.3H-65.24V51.012h1.988V49.57H-65.24V48.156h-1.54V49.57h-2.044v1.442h2.044V52.3h-2.366v1.47h2.632v4.186a4.22,4.22,0,0,1-.784-1.484c.028-.616.056-1.26.056-1.9l-1.456-.1c-.014,2.38-.126,4.634-.826,6.02a9.275,9.275,0,0,1,1.33.728,10.159,10.159,0,0,0,.644-2.268c1.106,1.568,2.772,1.918,5.376,1.918h5.432a6.635,6.635,0,0,1,.63-1.652c-1.26.07-5,.07-6.062.056a9.328,9.328,0,0,1-2.856-.322Zm4.088-1.386h2.282v1.736h-2.282ZM-62.5,58.4h5.488v-4.4H-62.5Zm11.074-9.758-.266,1.624c1.666.28,4.284.588,5.754.7l.224-1.638C-47.166,49.234-49.854,48.94-51.422,48.646Zm6.2,4.452-1.022-1.162a4.487,4.487,0,0,1-.8.154c-1.162.154-4.34.294-5,.294a12.391,12.391,0,0,1-1.344-.042l.168,1.932c.294-.042.714-.112,1.2-.154.8-.07,2.478-.224,3.458-.252-1.274,1.344-4.144,4.2-4.858,4.928-.378.364-.714.658-.966.868l1.652,1.162c.966-1.232,2.016-2.38,2.492-2.87a1.486,1.486,0,0,1,.924-.56c.28,0,.588.182.742.672.1.35.266,1.008.406,1.428.35.91,1.064,1.2,2.394,1.2a20.446,20.446,0,0,0,2.744-.21l.112-1.834a14.438,14.438,0,0,1-2.744.252.89.89,0,0,1-.98-.658c-.126-.364-.28-.9-.406-1.274a1.329,1.329,0,0,0-.84-.952,1.537,1.537,0,0,0-.532-.1c.336-.364,1.638-1.568,2.282-2.114C-45.878,53.6-45.584,53.35-45.22,53.1Zm8.47,5.25c0-.35.336-.672.868-.672.756,0,1.274.588,1.358,1.5a7.309,7.309,0,0,1-.812.042C-36.176,59.216-36.75,58.866-36.75,58.348Zm-2.38-9.016.056,1.82c.322-.042.77-.084,1.148-.112.742-.042,2.674-.126,3.388-.14-.686.6-2.142,1.778-2.926,2.422-.826.686-2.52,2.114-3.514,2.912L-39.7,57.55c1.5-1.708,2.9-2.842,5.04-2.842,1.652,0,2.912.854,2.912,2.114a2.029,2.029,0,0,1-1.162,1.9A2.8,2.8,0,0,0-35.9,56.332,2.346,2.346,0,0,0-38.4,58.516c0,1.4,1.47,2.3,3.416,2.3,3.388,0,5.068-1.75,5.068-3.962,0-2.044-1.806-3.528-4.186-3.528a5.469,5.469,0,0,0-1.33.154c.882-.7,2.352-1.932,3.108-2.464.322-.238.658-.434.98-.644l-.91-1.246a6.117,6.117,0,0,1-1.064.154c-.8.07-3.794.126-4.536.126A9.715,9.715,0,0,1-39.13,49.332Zm21.938,1.12h-3.78v-.7h3.78Zm0,1.778h-3.78v-.714h3.78Zm1.6-3.654h-6.9v4.83h6.9Zm-7.6,6.986-.224-1.5-1.26.336V52.328h1.4v-1.54h-1.4V48.142h-1.512v2.646h-1.512v1.54h1.512v2.478c-.63.154-1.19.308-1.666.406l.378,1.61c.406-.112.826-.238,1.288-.364v2.8c0,.182-.07.238-.238.238s-.644.014-1.162,0a5.473,5.473,0,0,1,.434,1.526,3.455,3.455,0,0,0,1.932-.322c.42-.252.546-.658.546-1.428V56.01Zm4.886,2.366h2.674v-1.3h-2.674V55.394H-14.9V54.05H-23.17v1.344h3.29v3.654A3.143,3.143,0,0,1-21.1,57.41,12.724,12.724,0,0,0-20.832,56l-1.512-.182A6.247,6.247,0,0,1-24.29,60.2a9.558,9.558,0,0,1,1.232.994,6.159,6.159,0,0,0,1.456-2.2c.952,1.694,2.366,2.03,4.2,2.03h2.436a4.908,4.908,0,0,1,.448-1.456c-.6.014-2.338.014-2.814.014-.35,0-.658-.014-.98-.042Zm9.674-5.138h3.276a2.928,2.928,0,0,1-1.05,1.064c-.9-.224-1.792-.42-2.6-.574Zm7.784,5.278V56.7H-6.426v-.952h-1.3a8.99,8.99,0,0,0,1.568-.5,30.76,30.76,0,0,1,3.472,1.176l.994-1.176c-.784-.294-1.82-.616-2.954-.938A4.159,4.159,0,0,0-3.57,52.79h2.464v-1.3H-7.644c.168-.224.322-.448.476-.658l-1.274-.378h5.628v.77H-1.2V49.08h-5.18v-.924H-8.05v.924h-5.138v2.142h1.54v-.77h2.87c-.224.322-.49.672-.756,1.036h-3.752v1.3h2.758c-.392.476-.756.924-1.092,1.288l1.582.434.182-.21c.42.084.868.2,1.316.294a27.787,27.787,0,0,1-4.382.49,4.205,4.205,0,0,1,.546,1.288,30.59,30.59,0,0,0,4.3-.546V56.7h-5.446v1.372h4.27a13.466,13.466,0,0,1-4.62,1.666,6.316,6.316,0,0,1,1.022,1.344A12.393,12.393,0,0,0-8.078,58.8V61.2h1.652V58.712A12.79,12.79,0,0,0-1.54,61.064,7.338,7.338,0,0,1-.476,59.65a13.952,13.952,0,0,1-4.676-1.582ZM.756,50.4l.182,1.918c1.624-.35,4.48-.658,5.8-.8a5.6,5.6,0,0,0-2.086,4.326c0,3.038,2.772,4.606,5.712,4.8l.658-1.918c-2.38-.126-4.536-.952-4.536-3.262a4.254,4.254,0,0,1,2.968-3.92,14.544,14.544,0,0,1,2.7-.2l-.014-1.792c-.994.042-2.52.126-3.962.252-2.562.21-4.872.42-6.048.518C1.862,50.354,1.316,50.382.756,50.4ZM10.15,52.72l-1.036.434A10.8,10.8,0,0,1,10.206,55.1l1.064-.476A17.377,17.377,0,0,0,10.15,52.72Zm1.568-.644-1.022.476a12.316,12.316,0,0,1,1.148,1.89l1.05-.5A20.941,20.941,0,0,0,11.718,52.076Zm8.176-3.444H17.962a11.267,11.267,0,0,1,.1,1.232c0,.238,0,.644-.014,1.134-.28.014-.56.028-.812.028a15.524,15.524,0,0,1-1.932-.112l.028,1.694a17.164,17.164,0,0,0,1.96.07c.224,0,.476-.014.742-.028v1.176c0,.322,0,.658.014.994-1.722.742-3.122,2.016-3.122,3.234,0,1.484,1.918,2.66,3.276,2.66.924,0,1.54-.462,1.54-2.2,0-.476-.028-1.568-.056-2.674a9.439,9.439,0,0,1,2.632-.392c1.218,0,2.058.56,2.058,1.512,0,1.022-.9,1.582-2.03,1.792a10.78,10.78,0,0,1-1.722.1l.644,1.806a12.818,12.818,0,0,0,1.834-.224c2.226-.56,3.094-1.806,3.094-3.458,0-1.932-1.694-3.052-3.85-3.052a11.6,11.6,0,0,0-2.688.364V53.77c0-.406,0-.84.014-1.26.91-.112,1.876-.252,2.674-.434L22.3,50.34a17.147,17.147,0,0,1-2.576.5c.014-.35.028-.686.042-.994C19.8,49.486,19.852,48.884,19.894,48.632Zm3.99,1.512-.77,1.358a22.275,22.275,0,0,1,3.374,2.044l.84-1.428A29.255,29.255,0,0,0,23.884,50.144Zm-7.238,7.84c0-.49.574-1.064,1.428-1.526.028.756.042,1.4.042,1.75,0,.476-.2.588-.448.588C17.3,58.8,16.646,58.418,16.646,57.984ZM32.564,56.85a16.688,16.688,0,0,0,2.156-.938,15.2,15.2,0,0,0,2.394.938Zm-.084,2.562v-1.19h4.662v1.19Zm.672-6.468H36.26a8.05,8.05,0,0,1-1.54,1.2A8.1,8.1,0,0,1,33.082,53Zm4.522-1.316-.28.07H34.342c.154-.2.308-.392.448-.588L33.236,50.8h5.852v1.554H40.8V49.29H35.6V48.156H33.894V49.29h-5.11v3.066h1.638V50.8H33a8.138,8.138,0,0,1-3.934,2.814,4.658,4.658,0,0,1,1.106,1.232,13.955,13.955,0,0,0,1.708-.938,11.383,11.383,0,0,0,1.26,1.05,19.912,19.912,0,0,1-4.914,1.386,5.531,5.531,0,0,1,.77,1.484c.63-.126,1.246-.266,1.862-.434v3.822H32.48v-.434h4.662v.406h1.722V57.3c.462.084.938.168,1.428.238a8.161,8.161,0,0,1,1.05-1.61,21.361,21.361,0,0,1-4.956-1.05A8.955,8.955,0,0,0,38.794,52.3Zm9.6,3.99c-.238-.378-1.246-1.918-1.624-2.436v-.616h1.4v-1.54h-1.4V48.142H44.142v2.884h-1.68v1.54h1.554a14,14,0,0,1-1.876,4.69,7.988,7.988,0,0,1,.728,1.47,11.81,11.81,0,0,0,1.274-2.758V61.2h1.512V55.17c.308.6.6,1.232.77,1.638Zm2.534,1.736c-1.19.616-2.422,1.246-3.248,1.624l.714,1.4c.9-.49,1.988-1.106,2.968-1.68Zm-2.45-1.526a9.814,9.814,0,0,1,1.33,1.792l1.19-.84A9.591,9.591,0,0,0,48.5,55.086Zm6.566-.784a11.019,11.019,0,0,1-1.358,1.512A7.6,7.6,0,0,1,52,55.324v-.546h3.262V53.42H52V52.8h2.716V51.558H52V51h3.01V49.7H53.648c.224-.35.476-.77.728-1.19l-1.652-.378c-.14.448-.42,1.092-.63,1.568H50.358a7.744,7.744,0,0,0-.8-1.54l-1.316.448A7.948,7.948,0,0,1,48.79,49.7H47.362V51h3.024v.56H47.74V52.8h2.646v.616H47.1v1.358h3.29v4.774c0,.168-.056.238-.224.238s-.714,0-1.19-.028a5.179,5.179,0,0,1,.448,1.484,4.566,4.566,0,0,0,1.988-.28c.448-.252.588-.644.588-1.4V58.11a6.641,6.641,0,0,0,2.478,2.464,6.2,6.2,0,0,1,1.05-1.344,5.851,5.851,0,0,1-2.184-1.582,22.535,22.535,0,0,0,1.848-1.722Zm14.84.028a5.331,5.331,0,0,0-5.656-5.46A6.22,6.22,0,0,0,56.686,55.6c0,2.366,1.288,4.074,2.842,4.074,1.526,0,2.73-1.736,3.57-4.564a28.313,28.313,0,0,0,.84-3.794,3.461,3.461,0,0,1,2.94,3.7,3.8,3.8,0,0,1-3.192,3.752,10.768,10.768,0,0,1-1.3.224l1.05,1.666C66.962,60.112,68.768,58.026,68.768,55.072Zm-10.29.35a4.407,4.407,0,0,1,3.556-4.06,21.014,21.014,0,0,1-.742,3.388c-.574,1.89-1.12,2.772-1.708,2.772C59.038,57.522,58.478,56.836,58.478,55.422Zm-116.8,23.1a12.642,12.642,0,0,1-1.806,4.018,10.138,10.138,0,0,1,1.624.756,17.085,17.085,0,0,0,1.89-4.4Zm-1.5,3.164a16.434,16.434,0,0,0-.966-3.36l-1.456.406a17.332,17.332,0,0,1,.882,3.444Zm-2.464.406a13.057,13.057,0,0,0-1.3-3.276L-65,79.332a14.561,14.561,0,0,1,1.2,3.346Zm-6.762-1.19a9.311,9.311,0,0,1-.658,3.654l1.092.49a10.2,10.2,0,0,0,.686-4Zm4.7,2.114a10.35,10.35,0,0,0-1.008-2.534l-.77.336V78.142h-1.61V91.2h1.61V81.488a9.81,9.81,0,0,1,.686,2.058Zm5.852,3.92a9.418,9.418,0,0,0-1.3-1.246,15.569,15.569,0,0,0,.854-2.254l-1.47-.322a12.33,12.33,0,0,1-.56,1.624c-.42-.308-.84-.616-1.218-.882l-.826,1.12c.434.322.91.686,1.386,1.064a8.49,8.49,0,0,1-1.456,1.834,9.332,9.332,0,0,1,1.218.938,10.22,10.22,0,0,0,1.358-1.778,10.22,10.22,0,0,1,1.106,1.19Zm.014,1.876H-63.1V83.448h-1.6v7.63h1.6v-.756h4.62v.728h1.638V83.42h-1.638ZM-53,79.4l.07,1.806c.364-.056.854-.1,1.134-.112.644-.042,1.848-.084,2.408-.112-.322.658-.728,1.61-1.12,2.534-2.814.126-4.788,1.778-4.788,3.948a2.1,2.1,0,0,0,2.156,2.268A2.44,2.44,0,0,0-50.96,88.5a27.518,27.518,0,0,0,1.582-3.36,9.707,9.707,0,0,1,3.318,1.134,6.031,6.031,0,0,1-3.556,3.514l1.484,1.218a7,7,0,0,0,3.556-3.794,14.6,14.6,0,0,1,1.2.98l.812-1.946c-.406-.28-.91-.6-1.5-.938a22.736,22.736,0,0,0,.266-2.59l-1.834-.21a9.221,9.221,0,0,1,0,1.526c-.014.154-.028.308-.042.476a12.6,12.6,0,0,0-3.038-.9,29.83,29.83,0,0,1,1.4-3.01,3.375,3.375,0,0,1,.476-.588l-1.12-.868a3.008,3.008,0,0,1-.952.2c-.658.056-2.142.126-2.94.126C-52.15,79.472-52.626,79.444-53,79.4Zm-.658,7.8c0-.882.882-1.834,2.45-2.072a15.679,15.679,0,0,1-1.134,2.282c-.252.35-.448.49-.728.49C-53.4,87.9-53.662,87.662-53.662,87.2ZM-35.2,78.772l-1.848-.154a7.783,7.783,0,0,1-.28,1.61H-38a18.216,18.216,0,0,1-2.464-.168V81.7c.77.056,1.792.084,2.366.084h.182a13.739,13.739,0,0,1-3.094,3.864l1.5,1.12a16.119,16.119,0,0,1,1.3-1.54,3.41,3.41,0,0,1,2.184-.966,1.077,1.077,0,0,1,.98.476c-1.6.826-3.276,1.946-3.276,3.738s1.624,2.338,3.822,2.338a35.022,35.022,0,0,0,3.962-.238l.056-1.806a22.9,22.9,0,0,1-3.976.392c-1.372,0-2.03-.21-2.03-.98,0-.7.56-1.246,1.61-1.848-.014.616-.028,1.288-.07,1.708h1.68c-.014-.644-.042-1.68-.056-2.464.854-.392,1.652-.7,2.282-.952.476-.182,1.218-.462,1.666-.588l-.7-1.624c-.518.266-1.008.49-1.554.728-.574.252-1.162.49-1.89.826a1.9,1.9,0,0,0-1.862-1.078,4.744,4.744,0,0,0-1.582.28,9.775,9.775,0,0,0,.8-1.428,41.7,41.7,0,0,0,4.564-.35l.014-1.624a35.444,35.444,0,0,1-3.962.406A13.394,13.394,0,0,0-35.2,78.772Zm13.986,4.1a3.968,3.968,0,0,1,.672.952c.1-.042.2-.1.294-.14a7.7,7.7,0,0,1-.966,2.73Zm-2.156,3.458V85.17h.8v1.162Zm-1.89-1.162h.784v1.162h-.8c.014-.322.014-.63.014-.924Zm1.47-4.466c-.126.35-.252.714-.392,1.022h-1.2c.168-.322.322-.672.476-1.022Zm.42,2.24h.8v1.05h-.8Zm-1.89,0h.784v1.05h-.784Zm10.822,4.48h-2.38v-1.26h2.1v-1.4h-2.1V83.5H-18.4v1.26h-.686c.084-.294.14-.6.2-.9l-1.246-.252a4.263,4.263,0,0,0,2.2-3.4h1.624a4.387,4.387,0,0,1-.252,1.792.415.415,0,0,1-.378.154c-.2,0-.574-.014-1.008-.056a3.319,3.319,0,0,1,.378,1.344,10.339,10.339,0,0,0,1.414-.042,1.246,1.246,0,0,0,.854-.462c.294-.364.42-1.33.49-3.556.014-.182.028-.532.028-.532H-21v1.358h1.568A2.932,2.932,0,0,1-21.21,82.58v-.854h-1.568a15.712,15.712,0,0,0,.77-1.764l-.952-.588-.21.07h-1.274c.112-.322.21-.658.294-.994l-1.47-.308a9.8,9.8,0,0,1-2.072,4.3,9.019,9.019,0,0,1,1.092.9v2.072c0,1.568-.07,3.654-1.008,5.1a5.758,5.758,0,0,1,1.148.742,8.724,8.724,0,0,0,1.106-3.682h2.786V89.58c0,.182-.07.238-.238.238s-.714,0-1.274-.028A4.443,4.443,0,0,1-23.6,91.2a3.936,3.936,0,0,0,1.862-.28c.42-.238.532-.658.532-1.316V86.654a7.825,7.825,0,0,1,1.092.588,5.971,5.971,0,0,0,.56-1.078H-18.4v1.26h-2.59v1.428h2.59v2.31h1.582v-2.31h2.38Zm5.11-7.84a10.544,10.544,0,0,0-2.534-1.372l-.91,1.232a9.614,9.614,0,0,1,2.478,1.512Zm-.77,3.724a9.769,9.769,0,0,0-2.59-1.33l-.882,1.246a10.873,10.873,0,0,1,2.52,1.47Zm-.616,2.212a42.177,42.177,0,0,1-2.478,4.466l1.456,1.036c.784-1.372,1.6-2.982,2.3-4.466Zm5.824-3.668H-3.15v2.534H-4.928c.028-.462.042-.91.042-1.372Zm4.41,4.1V84.386h-1.05v-4.1h-3.36V78.156H-6.538v2.128H-8.876v1.568h2.338V83q0,.693-.042,1.386H-9.562v1.568h2.73a6.28,6.28,0,0,1-3.472,4.13A6.346,6.346,0,0,1-8.918,91.26a7,7,0,0,0,3.626-4.494,7.9,7.9,0,0,0,3.808,4.48A6.187,6.187,0,0,1-.322,89.79a6.565,6.565,0,0,1-3.57-3.836ZM5.194,78.9,2.94,78.87a8.929,8.929,0,0,1,.182,1.89c0,1.2-.14,4.886-.14,6.762,0,2.394,1.484,3.4,3.78,3.4a7.247,7.247,0,0,0,6.076-3.22l-1.274-1.54A5.6,5.6,0,0,1,6.776,89.02a1.692,1.692,0,0,1-1.932-1.876c0-1.736.112-4.872.168-6.384C5.04,80.2,5.11,79.486,5.194,78.9ZM22.708,81.4H20.314v1.344h6.594V81.4H24.36v-.812h2.954V79.234H24.36V78.142H22.708v1.092h-2.9v1.358h2.9Zm-7.77,4.928a10.2,10.2,0,0,1-.714,3.248,6.993,6.993,0,0,1,1.218.588,12.85,12.85,0,0,0,.826-3.612Zm3.654-.966c.084.308.168.588.21.826l.966-.448v.42h1.386V84.68H26v1.484h1.456V83.392H19.768v1.316A14.472,14.472,0,0,0,18.8,82.65l-1.176.49c.154.28.308.588.448.9l-1.218.07c.882-1.12,1.834-2.506,2.6-3.682l-1.358-.63a22.57,22.57,0,0,1-1.26,2.268,7.042,7.042,0,0,0-.448-.546,31.518,31.518,0,0,0,1.582-2.856l-1.442-.5a17.179,17.179,0,0,1-1.008,2.422c-.112-.1-.224-.2-.322-.294l-.812,1.12a12.884,12.884,0,0,1,1.6,1.96c-.21.294-.42.574-.63.826l-1.008.056.168,1.442,1.946-.154v5.684h1.428v-5.8Zm-.574,1.26a11.129,11.129,0,0,1,.644,2.52l1.232-.406a10.231,10.231,0,0,0-.714-2.464Zm3.43-.154c0,1.022-.322,2.562-2.618,3.654a7.741,7.741,0,0,1,1.134,1.106A4.874,4.874,0,0,0,22.946,86.5V85.38h-1.5Zm4.214,3.206c-.182,0-.21-.056-.21-.434V85.38h-1.5v3.864c0,1.386.252,1.834,1.442,1.834h.9c.952,0,1.33-.518,1.47-2.52a3.75,3.75,0,0,1-1.33-.616c-.028,1.512-.1,1.736-.294,1.736ZM38.892,78.87h-2.03a6.669,6.669,0,0,1,.154.966c.028.378.042,1.106.056,1.89-.532.014-1.078.028-1.582.028a14.724,14.724,0,0,1-2.114-.154v1.778c.686.028,1.554.07,2.156.07.518,0,1.036-.014,1.568-.028v.5c0,2.366-.224,3.612-1.3,4.732a5.432,5.432,0,0,1-1.624,1.12l1.61,1.274c2.8-1.778,3.052-3.808,3.052-7.112V83.35c.784-.042,1.512-.1,2.072-.168l.014-1.82a18.416,18.416,0,0,1-2.1.252V79.822C38.836,79.514,38.85,79.178,38.892,78.87Zm-6.958.238-2.072-.21a9.491,9.491,0,0,1-.1,1.218,39.314,39.314,0,0,0-.448,5.586,15.226,15.226,0,0,0,.8,4.536l1.554-.154c-.014-.2-.028-.434-.028-.574a3.155,3.155,0,0,1,.084-.686,34.555,34.555,0,0,1,.952-3.416l-.868-.56c-.238.518-.49,1.19-.672,1.624a17.727,17.727,0,0,1,.462-6.23A11.159,11.159,0,0,1,31.934,79.108Zm14.042,9.31c0-.476.546-.868,1.54-.868a7.775,7.775,0,0,1,1.148.1c.014.252.014.448.014.6,0,.812-.49,1.022-1.232,1.022C46.48,89.272,45.976,88.95,45.976,88.418Zm4.382-9.744h-1.89a5.628,5.628,0,0,1,.084.966V80.3h-.546a26.138,26.138,0,0,1-3.458-.308l.042,1.6a32.183,32.183,0,0,0,3.43.252h.518c-.014.476-.014.98-.014,1.442h-.672a24.739,24.739,0,0,1-3.374-.266l.014,1.652c.924.112,2.52.182,3.332.182h.728c.014.42.028.868.056,1.3-.28-.028-.574-.042-.868-.042-2.156,0-3.458.994-3.458,2.408,0,1.484,1.176,2.338,3.416,2.338,1.848,0,2.758-.924,2.758-2.114,0-.154,0-.322-.014-.518a10.731,10.731,0,0,1,2.828,1.946L54.278,88.6a10.961,10.961,0,0,0-3.92-2.114c-.042-.56-.07-1.134-.1-1.666,1.344-.042,2.436-.14,3.7-.28l.014-1.652c-1.134.154-2.324.266-3.738.336V81.782c1.358-.07,2.632-.2,3.556-.308l.014-1.61a29.342,29.342,0,0,1-3.542.378c0-.224,0-.434.014-.574A9.456,9.456,0,0,1,50.358,78.674Zm14.784.042h-2.03a10.159,10.159,0,0,1,.14,1.218c.014.112.014.252.028.434-1.9.028-4.452.084-6.048.084l.042,1.694c1.722-.1,3.906-.182,6.02-.21.014.308.014.63.014.938a3.633,3.633,0,0,0-.56-.042,2.641,2.641,0,0,0-2.8,2.618,2.47,2.47,0,0,0,2.408,2.576,2.993,2.993,0,0,0,.63-.07,6.291,6.291,0,0,1-3.416,1.6l1.5,1.484c3.416-.952,4.48-3.276,4.48-5.1a3.563,3.563,0,0,0-.5-1.918c0-.616-.014-1.386-.014-2.1,1.9,0,3.206.028,4.046.07l.014-1.652c-.728-.014-2.646.014-4.06.014.014-.168.014-.322.014-.434C65.058,79.7,65.114,78.94,65.142,78.716Zm-3.514,6.706a1.054,1.054,0,0,1,1.078-1.12,1.032,1.032,0,0,1,.91.49c.2,1.232-.322,1.68-.91,1.68A1.045,1.045,0,0,1,61.628,85.422Z" transform="translate(1089 3378)" fill="#fff"/>
      <path id="Path_546" data-name="Path 546" d="M-72.114-6.664h4.158V-5.8h-4.158Zm7.35,2.884h-4.228v-.84h2.73V-7.84H-73.71v3.22h3v.84H-75.04V.6h1.694V-2.3h2.632V1.232h1.722V-2.3h2.52V-.938c0,.154-.07.21-.28.21s-.938,0-1.568-.028A5.893,5.893,0,0,1-67.788.756a6.3,6.3,0,0,0,2.31-.238c.56-.252.714-.658.714-1.428ZM-66.08-9.954c.35-.35.742-.784,1.148-1.274l-1.792-.532a9.583,9.583,0,0,1-1.008,1.526l.784.28h-2.2v-1.918h-1.722v1.918h-2.226l.756-.336a6.793,6.793,0,0,0-1.022-1.5l-1.512.616a7.86,7.86,0,0,1,.784,1.218h-1.89V-6.58h1.6V-8.512h8.764V-6.58h1.666V-9.954Zm9.352.168v1.792a37.575,37.575,0,0,0,6.02,0V-9.8A28.788,28.788,0,0,1-56.728-9.786Zm1.12,5.978-1.61-.154a8.553,8.553,0,0,0-.238,1.82c0,1.442,1.162,2.3,3.57,2.3a19.827,19.827,0,0,0,3.612-.266L-50.3-2a16.549,16.549,0,0,1-3.514.364c-1.428,0-1.96-.378-1.96-.994A4.752,4.752,0,0,1-55.608-3.808Zm-3.276-6.916-1.96-.168c-.014.448-.1.98-.14,1.372a39.038,39.038,0,0,0-.588,5.544A17.9,17.9,0,0,0-61.026.6L-59.4.49c-.014-.2-.028-.42-.028-.574a4.225,4.225,0,0,1,.07-.658c.154-.742.616-2.268,1.008-3.43l-.868-.686c-.2.462-.42.952-.63,1.428a6.754,6.754,0,0,1-.056-.91,37.132,37.132,0,0,1,.672-5.138C-59.178-9.73-59-10.43-58.884-10.724ZM-42.35-3.948c-.294-.28-1.372-1.246-2.044-1.792a13.589,13.589,0,0,0,1.652-3l-.938-.6-.294.07h-.63v-2.576h-1.652v2.576h-1.988v1.512h3.374A10.458,10.458,0,0,1-48.776-3.85a6.673,6.673,0,0,1,.784,1.582,11.585,11.585,0,0,0,1.736-1.344v4.83H-44.6V-4.06c.476.518.952,1.078,1.246,1.47Zm4.032,3.136V-5.936h2.646v-1.61h-2.646v-4.186h-1.708v4.186h-2.66v1.61h2.66V-.812H-43.26V.812h7.924V-.812Zm13.174-8.4H-30.8v-.91h5.656Zm1.778-2.212H-32.48v3.5h9.114Zm-8.092,8.47h6.86v.616h-6.86Zm0-1.652h6.86v.588h-6.86Zm0-1.666h6.86v.6h-6.86Zm8.582,5.054V-7.406H-33.11v6.188h2.2A17.091,17.091,0,0,1-34.524.028a14.644,14.644,0,0,1,1.26,1.19,18.654,18.654,0,0,0,4.34-1.68L-30-1.218h3.822l-1.176.84a37.264,37.264,0,0,1,4.494,1.624L-21.392.07c-.966-.392-2.436-.9-3.752-1.288Zm8.246-9.744-2.086-.21a14.248,14.248,0,0,1-.294,2.954c-.714.07-1.372.112-1.806.126a13.368,13.368,0,0,1-1.5,0l.168,1.9c.434-.07,1.162-.168,1.568-.238.252-.028.7-.084,1.2-.14A21.423,21.423,0,0,1-20.216.014l1.82.728a29.5,29.5,0,0,0,2.856-7.5c.406-.028.756-.056.98-.056.868,0,1.358.154,1.358,1.274a11.111,11.111,0,0,1-.574,3.878,1.027,1.027,0,0,1-1.05.6,8.09,8.09,0,0,1-1.708-.294L-16.24.49a9.2,9.2,0,0,0,1.68.2A2.225,2.225,0,0,0-12.264-.6a13.717,13.717,0,0,0,.8-5.138c0-2.016-1.05-2.674-2.534-2.674-.294,0-.7.028-1.176.056.1-.5.21-1.022.294-1.442C-14.812-10.15-14.714-10.6-14.63-10.962Zm6.23-1.162-1.12.448A15.834,15.834,0,0,1-8.386-9.744l1.106-.476A18.624,18.624,0,0,0-8.4-12.124Zm-1.666.63-1.106.462A15.478,15.478,0,0,1-10.22-9.38l-1.26.546a15.744,15.744,0,0,1,2.352,5.25L-7.35-4.4A25.405,25.405,0,0,0-9.632-9.282l.686-.294C-9.212-10.094-9.716-10.976-10.066-11.494ZM3.99-7.392A14.171,14.171,0,0,1,2.646-4.284a33.06,33.06,0,0,1-.56-3.836H6.412V-9.772H4.956l.672-.714a11.713,11.713,0,0,0-2.282-1.5l-1.008.994A17.527,17.527,0,0,1,4.13-9.772H1.988c-.028-.686-.042-1.372-.028-2.072H.21c0,.7.028,1.386.056,2.072H-5.446v4.088c0,1.82-.1,4.256-1.162,5.936A7.288,7.288,0,0,1-5.194,1.386C-4.046-.322-3.752-3.052-3.7-5.1h1.82a7.921,7.921,0,0,1-.238,2.632.453.453,0,0,1-.42.168c-.224,0-.7-.014-1.2-.056A3.778,3.778,0,0,1-3.276-.8,11.016,11.016,0,0,0-1.666-.84,1.315,1.315,0,0,0-.7-1.4c.322-.406.406-1.652.448-4.592,0-.2.014-.63.014-.63H-3.7v-1.5H.364A28.92,28.92,0,0,0,1.33-2.478,10.7,10.7,0,0,1-1.526-.21a10.974,10.974,0,0,1,1.2,1.372,11.866,11.866,0,0,0,2.366-1.9C2.66.406,3.43,1.106,4.41,1.106c1.3,0,1.862-.616,2.128-3.206a4.528,4.528,0,0,1-1.414-.938c-.07,1.75-.238,2.45-.574,2.45-.448,0-.9-.588-1.3-1.6a16.262,16.262,0,0,0,2.408-4.8ZM18.326-3.808a19.719,19.719,0,0,1-2.142,1.456,6.661,6.661,0,0,1-1.106-1.456Zm.49,0h1.5v-1.47H11.732v-.728h6.734V-7.294H11.732v-.7h6.734V-9.282H11.732v-.742h7.126v-1.358H10.024v6.1H7.7v1.47h2.31V-.6c-.63.07-1.2.154-1.708.21L8.68,1.134c1.694-.252,4-.6,6.146-.952l-.07-1.47c-1.008.154-2.044.308-3.024.448V-3.808h1.61a8.225,8.225,0,0,0,6.188,5.04,7.4,7.4,0,0,1,1.05-1.5,9.259,9.259,0,0,1-3.262-1.2,23.573,23.573,0,0,0,2.576-1.582ZM26.194-11.1,23.94-11.13a8.929,8.929,0,0,1,.182,1.89c0,1.2-.14,4.886-.14,6.762,0,2.394,1.484,3.4,3.78,3.4A7.247,7.247,0,0,0,33.838-2.3l-1.274-1.54A5.6,5.6,0,0,1,27.776-.98a1.692,1.692,0,0,1-1.932-1.876c0-1.736.112-4.872.168-6.384C26.04-9.8,26.11-10.514,26.194-11.1Zm15.414-.168-1.932-.2A11.773,11.773,0,0,1,39.3-9.128c-.434.042-.854.056-1.274.056a17.687,17.687,0,0,1-1.862-.1l.126,1.624c.6.042,1.176.056,1.75.056.238,0,.476,0,.728-.014A22.057,22.057,0,0,1,35.91-2.562l1.694.868a25.8,25.8,0,0,0,3-5.992,24.288,24.288,0,0,0,2.45-.49L42.994-9.8a17.163,17.163,0,0,1-1.89.448C41.314-10.108,41.5-10.822,41.608-11.27ZM40.88-1.582c0-.49.518-.854,1.33-.854a5.029,5.029,0,0,1,1.134.14v.28c0,.77-.294,1.3-1.26,1.3C41.314-.714,40.88-1.064,40.88-1.582Zm4-5.334h-1.75c.028.854.1,2.1.154,3.136-.322-.028-.63-.056-.966-.056-1.946,0-3.094,1.05-3.094,2.422C39.228.126,40.6.9,42.336.9c1.988,0,2.7-1.008,2.7-2.31v-.14a11.869,11.869,0,0,1,1.89,1.5l.938-1.5a9.155,9.155,0,0,0-2.9-1.792c-.028-.7-.07-1.372-.084-1.778C44.87-5.74,44.842-6.328,44.884-6.916Zm2.408.742.994-1.47a24.116,24.116,0,0,0-3.458-1.9l-.9,1.386A20.206,20.206,0,0,1,47.292-6.174Zm8.078-4.788-2.086-.21a14.248,14.248,0,0,1-.294,2.954c-.714.07-1.372.112-1.806.126a13.368,13.368,0,0,1-1.5,0l.168,1.9c.434-.07,1.162-.168,1.568-.238.252-.028.7-.084,1.2-.14A21.423,21.423,0,0,1,49.784.014L51.6.742a29.5,29.5,0,0,0,2.856-7.5c.406-.028.756-.056.98-.056.868,0,1.358.154,1.358,1.274a11.111,11.111,0,0,1-.574,3.878,1.027,1.027,0,0,1-1.05.6,8.09,8.09,0,0,1-1.708-.294L53.76.49a9.2,9.2,0,0,0,1.68.2A2.225,2.225,0,0,0,57.736-.6a13.717,13.717,0,0,0,.8-5.138c0-2.016-1.05-2.674-2.534-2.674-.294,0-.7.028-1.176.056.1-.5.21-1.022.294-1.442C55.188-10.15,55.286-10.6,55.37-10.962Zm6.23-1.162-1.12.448a15.834,15.834,0,0,1,1.134,1.932l1.106-.476A18.624,18.624,0,0,0,61.6-12.124Zm-1.666.63-1.106.462A15.478,15.478,0,0,1,59.78-9.38l-1.26.546a15.744,15.744,0,0,1,2.352,5.25L62.65-4.4a25.405,25.405,0,0,0-2.282-4.886l.686-.294C60.788-10.094,60.284-10.976,59.934-11.494Zm7.742.224-.448,1.68c1.092.28,4.214.938,5.628,1.12l.42-1.708A42.851,42.851,0,0,1,67.676-11.27Zm.084,2.814-1.876-.266a51.649,51.649,0,0,1-.7,5.852l1.61.406a3.392,3.392,0,0,1,.518-.812A4.984,4.984,0,0,1,71.2-4.928c1.218,0,2.086.672,2.086,1.582,0,1.778-2.226,2.8-6.426,2.226L67.4.714c5.824.49,7.84-1.47,7.84-4.018,0-1.694-1.428-3.206-3.878-3.206a6.853,6.853,0,0,0-4.13,1.33C67.326-5.978,67.578-7.686,67.76-8.456ZM-51.814,20.788h1.652v-.476h2.982v.476h1.666v-.476h3V18.9h-3v-.742H-47.18V18.9h-2.982v-.742h-1.652V18.9h-2.954v1.414h2.954Zm-.448,1.3h1.442v.924h-1.442Zm2.828,0h1.484v.924h-1.484Zm2.87,0h1.512v.924h-1.512Zm-7.168,2H-43.5v-3.08H-53.732Zm3.15,3.472h3.388a6.573,6.573,0,0,1-1.6,1.05,11.381,11.381,0,0,0-1.806-1.05Zm-4.214-2.94v2.492h1.568V25.884h2.576a8.783,8.783,0,0,1-3.584,1.834,4.537,4.537,0,0,1,.98,1.148c.49-.182.938-.364,1.358-.56a10.261,10.261,0,0,1,1.582.9,18.758,18.758,0,0,1-3.444.672,6.163,6.163,0,0,1,.728,1.372c3.5-.518,6.762-1.68,8.246-4.3l-1.05-.56-.294.07h-3.094c.182-.182.35-.378.518-.574h4.578v1.232h1.652V24.624Zm19.95-5.852-1.848-.154a7.783,7.783,0,0,1-.28,1.61h-.672a18.216,18.216,0,0,1-2.464-.168V21.7c.77.056,1.792.084,2.366.084h.182a13.739,13.739,0,0,1-3.094,3.864l1.5,1.12a16.119,16.119,0,0,1,1.3-1.54,3.41,3.41,0,0,1,2.184-.966,1.077,1.077,0,0,1,.98.476c-1.6.826-3.276,1.946-3.276,3.738s1.624,2.338,3.822,2.338a35.021,35.021,0,0,0,3.962-.238l.056-1.806a22.9,22.9,0,0,1-3.976.392c-1.372,0-2.03-.21-2.03-.98,0-.7.56-1.246,1.61-1.848-.014.616-.028,1.288-.07,1.708h1.68c-.014-.644-.042-1.68-.056-2.464.854-.392,1.652-.7,2.282-.952.476-.182,1.218-.462,1.666-.588l-.7-1.624c-.518.266-1.008.49-1.554.728-.574.252-1.162.49-1.89.826a1.9,1.9,0,0,0-1.862-1.078,4.744,4.744,0,0,0-1.582.28,9.775,9.775,0,0,0,.8-1.428,41.705,41.705,0,0,0,4.564-.35l.014-1.624a35.444,35.444,0,0,1-3.962.406A13.394,13.394,0,0,0-34.846,18.772Zm11.956,5.306L-24,24.386V22.328h1.19v-1.54H-24V18.156h-1.526v2.632H-27.1v1.54h1.582v2.45c-.686.168-1.3.322-1.806.448l.364,1.6,1.442-.42v2.954c0,.182-.07.238-.238.238a11.313,11.313,0,0,1-1.162-.014,5.7,5.7,0,0,1,.434,1.54,3.52,3.52,0,0,0,1.918-.308c.434-.266.574-.672.574-1.442v-3.4c.448-.126.882-.266,1.316-.392ZM-21.7,27.4a11.015,11.015,0,0,1,1.47,2.45l1.414-.812a10.875,10.875,0,0,0-1.568-2.38Zm7.6-3.416V22.468h-3.444V21.25h2.828V19.738h-2.828V18.212h-1.582v1.526h-2.87V21.25h2.87v1.218H-22.6V23.98h5.278v1.106H-22.47V26.6h5.152v2.828c0,.2-.056.238-.28.238s-.938.014-1.568-.014a7.2,7.2,0,0,1,.476,1.568,5.768,5.768,0,0,0,2.254-.266c.546-.252.7-.658.7-1.5V26.6h1.54V25.086h-1.54V23.98Zm2.45.1.728,1.82c1.19-.5,3.99-1.666,5.614-1.666a1.8,1.8,0,0,1,2,1.778c0,1.9-2.352,2.758-5.558,2.842l.742,1.722c4.452-.28,6.678-2,6.678-4.536,0-2.114-1.484-3.43-3.7-3.43A19.722,19.722,0,0,0-10.164,23.7C-10.584,23.826-11.228,23.994-11.648,24.078ZM.644,20.368l.182,1.918c1.624-.35,4.48-.658,5.8-.8A5.638,5.638,0,0,0,4.55,25.814c0,3.024,2.772,4.606,5.7,4.8l.658-1.918c-2.366-.126-4.522-.966-4.522-3.262A4.258,4.258,0,0,1,9.338,21.5a15.842,15.842,0,0,1,2.7-.182l-.014-1.792c-.98.028-2.52.126-3.962.238C5.5,19.99,3.192,20.2,2.03,20.3,1.75,20.326,1.2,20.354.644,20.368Zm22.89,2.66a15.131,15.131,0,0,1-.8,5.446V27.312h-1.89V26.64h1.89V22.482H20.86v-.6h1.932v.868h.742Zm-2.688,5.488h1.876c-.084.2-.168.392-.266.588l-1.61.126ZM18.718,25.03h.868v.616h-.868Zm0-1.54h.868v.616h-.868Zm1.988.616V23.49h.91v.616Zm0,1.54V25.03h.91v.616Zm4.228-4.326V18.184h-1.4V21.32h-.686v-.644H20.86v-.658a18.894,18.894,0,0,0,2.016-.336l-.812-1.176a36.2,36.2,0,0,1-4.41.63c.056-.182.1-.364.154-.532l-1.484-.42a15.625,15.625,0,0,1-2.436,5.306,10.582,10.582,0,0,1,.742,1.792,11.759,11.759,0,0,0,.77-1.106v7.07h1.484V21.222c.252-.588.476-1.2.672-1.806a5.143,5.143,0,0,1,.252.854c.532-.028,1.092-.056,1.652-.112v.518H17.5v1.2h1.96v.6H17.654V26.64h1.792v.672h-1.82v1.2h1.82v.826c-.8.07-1.526.126-2.128.168l.21,1.358c1.176-.126,2.646-.266,4.13-.448a6.412,6.412,0,0,1,1.106.854c1.918-2.2,2.17-5.6,2.17-8.246v-.28h.714c-.084,4.732-.168,6.384-.406,6.748a.411.411,0,0,1-.406.252c-.224,0-.588-.014-1.008-.056a3.87,3.87,0,0,1,.378,1.442,6.779,6.779,0,0,0,1.372-.056,1.248,1.248,0,0,0,.91-.63c.406-.588.462-2.618.56-8.442,0-.2.014-.686.014-.686Zm13.608-2.45h-2.03a6.669,6.669,0,0,1,.154.966c.028.378.042,1.106.056,1.89-.532.014-1.078.028-1.582.028a14.724,14.724,0,0,1-2.114-.154v1.778c.686.028,1.554.07,2.156.07.518,0,1.036-.014,1.568-.028v.5c0,2.366-.224,3.612-1.3,4.732a5.432,5.432,0,0,1-1.624,1.12l1.61,1.274c2.8-1.778,3.052-3.808,3.052-7.112V23.35c.784-.042,1.512-.1,2.072-.168l.014-1.82a18.416,18.416,0,0,1-2.1.252V19.822C38.486,19.514,38.5,19.178,38.542,18.87Zm-6.958.238-2.072-.21a9.491,9.491,0,0,1-.1,1.218,39.314,39.314,0,0,0-.448,5.586,15.227,15.227,0,0,0,.8,4.536l1.554-.154c-.014-.2-.028-.434-.028-.574a3.155,3.155,0,0,1,.084-.686,34.554,34.554,0,0,1,.952-3.416l-.868-.56c-.238.518-.49,1.19-.672,1.624a17.727,17.727,0,0,1,.462-6.23A11.159,11.159,0,0,1,31.584,19.108Zm15.526,9.24c0-.35.336-.672.868-.672.756,0,1.274.588,1.358,1.5a7.309,7.309,0,0,1-.812.042C47.684,29.216,47.11,28.866,47.11,28.348Zm-2.38-9.016.056,1.82c.322-.042.77-.084,1.148-.112.742-.042,2.674-.126,3.388-.14-.686.6-2.142,1.778-2.926,2.422-.826.686-2.52,2.114-3.514,2.912l1.274,1.316c1.5-1.708,2.9-2.842,5.04-2.842,1.652,0,2.912.854,2.912,2.114a2.029,2.029,0,0,1-1.162,1.9,2.8,2.8,0,0,0-2.982-2.394,2.346,2.346,0,0,0-2.506,2.184c0,1.4,1.47,2.3,3.416,2.3,3.388,0,5.068-1.75,5.068-3.962,0-2.044-1.806-3.528-4.186-3.528a5.469,5.469,0,0,0-1.33.154c.882-.7,2.352-1.932,3.108-2.464.322-.238.658-.434.98-.644l-.91-1.246a6.117,6.117,0,0,1-1.064.154c-.8.07-3.794.126-4.536.126A9.715,9.715,0,0,1,44.73,19.332ZM-42.084,58.32v-.84H-40.8v.84Zm1.288-2.758v.84h-1.288v-.84Zm-.042-4.914a14.255,14.255,0,0,1-.364,1.708l.714.154h-2l.63-.154a6.239,6.239,0,0,0-.364-1.708Zm-4.676.994h-.924V50.13h.924Zm-.924,5.894V55.842h.924v1.526Zm.924-3.038h-.924V52.986h.924Zm8.6-.182a13.214,13.214,0,0,1-.5,1.54q-.084-.945-.126-2.058h2.1V52.51H-37.6c-.028-.938-.042-1.918-.042-2.954A9.6,9.6,0,0,1-36.54,51.6l1.148-.644A8.808,8.808,0,0,0-36.75,48.73l-.9.476v-1.05H-39.1c.014,1.554.042,3.024.084,4.354h-1.12c.154-.448.35-1.078.56-1.68l-.952-.182h1.2V49.43h-1.428V48.17h-1.414v1.26H-43.54v-.756h-4.8V50.13h.546v7.63c-.294.056-.574.1-.826.126l.28,1.526c.84-.168,1.834-.378,2.828-.588v2.394h1.386V50.13h.532v.518h1.106l-.812.2a7.519,7.519,0,0,1,.308,1.666h-.882V53.8h4.914a37.061,37.061,0,0,0,.378,4.144,7.646,7.646,0,0,1-.924,1.078V54.414h-3.85v5.852h1.274v-.812h2.1a8.429,8.429,0,0,1-.994.7,7.482,7.482,0,0,1,.952,1.092,9.672,9.672,0,0,0,1.834-1.638c.336,1.022.8,1.582,1.428,1.6.476,0,1.134-.49,1.484-2.758a4.87,4.87,0,0,1-1.078-.924c-.056,1.106-.168,1.75-.336,1.75s-.322-.392-.448-1.064a13.762,13.762,0,0,0,1.554-3.6Zm12.964-4h-3.612V49.64h3.612Zm0,1.764h-3.612V51.4h3.612Zm1.54-3.584h-6.622v4.732h6.622Zm.952,6.664v-1.4h-8.806v1.4h1.582a6.819,6.819,0,0,1-1.288,1.484l-.294-1.19-1.12.49v-3.3h1.316V51.068h-1.316V48.31h-1.54v2.758h-1.4v1.568h1.4v3.948c-.658.266-1.246.5-1.722.686l.616,1.68c.854-.42,1.862-.924,2.87-1.428a5.767,5.767,0,0,1,1.092.98,8.7,8.7,0,0,0,1.638-1.372h.826a8.445,8.445,0,0,1-2.856,2.534,4.918,4.918,0,0,1,1.092.98A10.683,10.683,0,0,0-26.1,57.13h.826a7.7,7.7,0,0,1-2.6,3.22,4.587,4.587,0,0,1,1.176.924,9.976,9.976,0,0,0,2.8-4.144h.546a6.1,6.1,0,0,1-.518,2.618.479.479,0,0,1-.42.154c-.182,0-.546,0-.994-.042a3.32,3.32,0,0,1,.378,1.3,8.8,8.8,0,0,0,1.414-.028,1.305,1.305,0,0,0,.924-.476c.378-.406.6-1.526.8-4.256.014-.2.028-.574.028-.574h-5.684c.14-.224.28-.448.392-.672Zm7.266-6.384-1.848-.154a7.783,7.783,0,0,1-.28,1.61H-17a18.216,18.216,0,0,1-2.464-.168V51.7c.77.056,1.792.084,2.366.084h.182a13.739,13.739,0,0,1-3.094,3.864l1.5,1.12a16.12,16.12,0,0,1,1.3-1.54,3.41,3.41,0,0,1,2.184-.966,1.077,1.077,0,0,1,.98.476c-1.6.826-3.276,1.946-3.276,3.738s1.624,2.338,3.822,2.338a35.022,35.022,0,0,0,3.962-.238l.056-1.806a22.9,22.9,0,0,1-3.976.392c-1.372,0-2.03-.21-2.03-.98,0-.7.56-1.246,1.61-1.848-.014.616-.028,1.288-.07,1.708h1.68c-.014-.644-.042-1.68-.056-2.464.854-.392,1.652-.7,2.282-.952.476-.182,1.218-.462,1.666-.588l-.7-1.624c-.518.266-1.008.49-1.554.728-.574.252-1.162.49-1.89.826a1.9,1.9,0,0,0-1.862-1.078,4.744,4.744,0,0,0-1.582.28,9.775,9.775,0,0,0,.8-1.428,41.7,41.7,0,0,0,4.564-.35l.014-1.624a35.444,35.444,0,0,1-3.962.406A13.394,13.394,0,0,0-14.2,48.772ZM-3.472,48.2a14.565,14.565,0,0,1-3.192,5.236,11.377,11.377,0,0,1,.924,1.778c.28-.308.574-.658.868-1.008v7h1.68v-9.59A21.808,21.808,0,0,0-1.848,48.7ZM6.566,52.006V50.424H1.134a16.546,16.546,0,0,0,.686-1.736L.21,48.282A13.9,13.9,0,0,1-2.758,53.56a11.323,11.323,0,0,1,1.274,1.162A15.546,15.546,0,0,0,.35,52.006H.882v9.212H2.59V58.11H6.4V56.57H2.59V54.988H6.216V53.476H2.59v-1.47Zm5.488-3.248-1.918-.084a12.4,12.4,0,0,1-.112,1.47,36.837,36.837,0,0,0-.392,4.48,15.836,15.836,0,0,0,.182,2.338l1.722-.112a7.32,7.32,0,0,1-.07-1.484c.07-1.848,1.512-4.326,3.164-4.326,1.176,0,1.9,1.2,1.9,3.36,0,3.388-2.2,4.41-5.306,4.886l1.064,1.624c3.71-.672,6.132-2.562,6.132-6.524,0-3.08-1.512-4.984-3.458-4.984a4.322,4.322,0,0,0-3.472,2.268A22.828,22.828,0,0,1,12.054,48.758Zm12.922,9.66c0-.476.546-.868,1.54-.868a7.775,7.775,0,0,1,1.148.1c.014.252.014.448.014.6,0,.812-.49,1.022-1.232,1.022C25.48,59.272,24.976,58.95,24.976,58.418Zm4.382-9.744h-1.89a5.628,5.628,0,0,1,.084.966V50.3h-.546a26.137,26.137,0,0,1-3.458-.308l.042,1.6a32.183,32.183,0,0,0,3.43.252h.518c-.014.476-.014.98-.014,1.442h-.672a24.739,24.739,0,0,1-3.374-.266l.014,1.652c.924.112,2.52.182,3.332.182h.728c.014.42.028.868.056,1.3-.28-.028-.574-.042-.868-.042-2.156,0-3.458.994-3.458,2.408,0,1.484,1.176,2.338,3.416,2.338,1.848,0,2.758-.924,2.758-2.114,0-.154,0-.322-.014-.518a10.731,10.731,0,0,1,2.828,1.946L33.278,58.6a10.961,10.961,0,0,0-3.92-2.114c-.042-.56-.07-1.134-.1-1.666,1.344-.042,2.436-.14,3.7-.28l.014-1.652c-1.134.154-2.324.266-3.738.336V51.782c1.358-.07,2.632-.2,3.556-.308l.014-1.61a29.342,29.342,0,0,1-3.542.378c0-.224,0-.434.014-.574A9.456,9.456,0,0,1,29.358,48.674Zm14.784.042h-2.03a10.159,10.159,0,0,1,.14,1.218c.014.112.014.252.028.434-1.9.028-4.452.084-6.048.084l.042,1.694c1.722-.1,3.906-.182,6.02-.21.014.308.014.63.014.938a3.633,3.633,0,0,0-.56-.042,2.641,2.641,0,0,0-2.8,2.618,2.47,2.47,0,0,0,2.408,2.576,2.993,2.993,0,0,0,.63-.07,6.291,6.291,0,0,1-3.416,1.6l1.5,1.484c3.416-.952,4.48-3.276,4.48-5.1a3.563,3.563,0,0,0-.5-1.918c0-.616-.014-1.386-.014-2.1,1.9,0,3.206.028,4.046.07l.014-1.652c-.728-.014-2.646.014-4.06.014.014-.168.014-.322.014-.434C44.058,49.7,44.114,48.94,44.142,48.716Zm-3.514,6.706a1.054,1.054,0,0,1,1.078-1.12,1.032,1.032,0,0,1,.91.49c.2,1.232-.322,1.68-.91,1.68A1.045,1.045,0,0,1,40.628,55.422Z" transform="translate(1010.5 3622)" fill="#fff"/>
      <path id="Path_545" data-name="Path 545" d="M-70.994-11.914a15.436,15.436,0,0,1-5.726,5.25A7.015,7.015,0,0,1-75.67-5.32a17.345,17.345,0,0,0,5.6-4.956,18.74,18.74,0,0,0,5.712,4.942,9.079,9.079,0,0,1,1.12-1.5,14.885,14.885,0,0,1-6.048-5.082Zm1.946,8.442H-65.3v-1.47h-3.752v-3H-70.8V-.672h-1.988V-5.53h-1.638V-.672H-75.95V.84h11.914V-.672h-5.012Zm14.77-4.746c-.154.378-.322.784-.49,1.12h-2.618l.238-.042a7.521,7.521,0,0,0-.476-1.078Zm4.522,6.244V-3.346H-55.2v-.616H-51v-1.2h-4.2V-5.8h4.858V-7.1h-2.744c.21-.336.434-.714.658-1.12H-49.8V-9.576h-1.82c.322-.49.7-1.12,1.092-1.764l-1.75-.42a11.277,11.277,0,0,1-.882,2.03l.5.154H-53.9v-2.282h-1.568v2.282H-56.5v-2.282h-1.554v2.282h-1.274l.686-.252A10.594,10.594,0,0,0-59.71-11.8l-1.428.49a12.549,12.549,0,0,1,.868,1.736h-1.876v1.358h2.926l-.168.028A6.291,6.291,0,0,1-58.912-7.1h-2.66v1.3h4.732v.63h-4.032v1.2h4.032v.616h-5.348v1.372h4.018A14.708,14.708,0,0,1-62.594-.336,7.766,7.766,0,0,1-61.53,1.05a13.28,13.28,0,0,0,4.69-2.268V1.218H-55.2V-1.3a11.95,11.95,0,0,0,4.7,2.366,7.831,7.831,0,0,1,1.12-1.512,12.507,12.507,0,0,1-4.438-1.526Zm4-9.856A14.534,14.534,0,0,1-48.79-6.748a12.672,12.672,0,0,1,.854,1.68A10.863,10.863,0,0,0-47.082-6.1V1.2h1.568V-8.6a24.3,24.3,0,0,0,1.26-2.758Zm6.076,4.578H-40.6V-9h.924Zm2.338,5.936h-.938V-5.81h.938ZM-42.882-5.81h.868v4.494h-.868Zm3.206,0v4.494h-.938V-5.81Zm4-3.192v-1.484h-8.89V-9h2.394v1.75h-2.254V.91h1.54v-.8h5.544V.826h1.6V-7.252h-2.366V-9Zm11.858,2.534h-2.492v-.714h2.492Zm0,1.834h-2.492v-.714h2.492Zm0,1.848h-2.492v-.728h2.492Zm-4.032-5.6v6.8H-22.2v-6.8h-2.744c.042-.238.07-.5.112-.77h3.206v-1.428h-3.052c.042-.406.084-.812.112-1.19l-1.666-.07c-.014.392-.042.826-.07,1.26h-3.6v1.428h3.486c-.028.266-.056.532-.084.77Zm-3.808-3.43a14.879,14.879,0,0,1-3.178,5.25,10.546,10.546,0,0,1,.882,1.722A12.864,12.864,0,0,0-33-5.964V1.19h1.582V-8.428a22.314,22.314,0,0,0,1.344-2.884ZM-21.546-.854h-7.14v-6.72h-1.54V1.2h1.54V.574h7.14ZM-8.022-4.928a5.331,5.331,0,0,0-5.656-5.46A6.22,6.22,0,0,0-20.1-4.4c0,2.366,1.288,4.074,2.842,4.074,1.526,0,2.73-1.736,3.57-4.564a28.313,28.313,0,0,0,.84-3.794,3.461,3.461,0,0,1,2.94,3.7A3.8,3.8,0,0,1-13.1-1.232a10.768,10.768,0,0,1-1.3.224l1.05,1.666C-9.828.112-8.022-1.974-8.022-4.928Zm-10.29.35a4.407,4.407,0,0,1,3.556-4.06A21.014,21.014,0,0,1-15.5-5.25c-.574,1.89-1.12,2.772-1.708,2.772C-17.752-2.478-18.312-3.164-18.312-4.578ZM1.2-5.082V-3.22H-1.232V-5.082ZM2.73-1.764V-6.538H-2.73V-.784h1.5v-.98ZM5.81-9.52H-.028c.336-.616.686-1.344.98-2.044l-2.114-.294A19.446,19.446,0,0,1-1.9-9.52H-5.768V1.2H-4.1V-7.9H4.13v7.14c0,.252-.084.322-.35.322S2.562-.406,1.736-.462a5.756,5.756,0,0,1,.546,1.68A7.392,7.392,0,0,0,5.026.924C5.614.658,5.81.182,5.81-.728Zm8.638,8.372V-5.992H19.39V-7.686H14.448v-4H12.656V-1.148H7.644V.532H20.37v-1.68ZM25.62-11.158l-1.75.714c.63,1.484,1.3,2.982,1.946,4.172-1.344.994-2.324,2.156-2.324,3.7C23.492-.168,25.606.6,28.392.6a26,26,0,0,0,4.494-.35l.028-2.016a21.613,21.613,0,0,1-4.578.518c-1.946,0-2.912-.532-2.912-1.54,0-.98.784-1.778,1.946-2.548a41.44,41.44,0,0,1,3.906-2.072c.518-.266.966-.5,1.386-.756L31.7-9.786a8.748,8.748,0,0,1-1.3.854c-.658.378-1.876.98-3.024,1.652A33.255,33.255,0,0,1,25.62-11.158Zm15.386-.756a15.436,15.436,0,0,1-5.726,5.25A7.015,7.015,0,0,1,36.33-5.32a17.345,17.345,0,0,0,5.6-4.956,18.739,18.739,0,0,0,5.712,4.942,9.079,9.079,0,0,1,1.12-1.5,14.885,14.885,0,0,1-6.048-5.082Zm1.946,8.442H46.7v-1.47H42.952v-3H41.2V-.672H39.214V-5.53H37.576V-.672H36.05V.84H47.964V-.672H42.952Zm14.77-4.746c-.154.378-.322.784-.49,1.12H54.614l.238-.042a7.521,7.521,0,0,0-.476-1.078Zm4.522,6.244V-3.346H56.8v-.616H61v-1.2H56.8V-5.8h4.858V-7.1H58.912c.21-.336.434-.714.658-1.12H62.2V-9.576h-1.82c.322-.49.7-1.12,1.092-1.764l-1.75-.42a11.277,11.277,0,0,1-.882,2.03l.5.154H58.1v-2.282H56.532v2.282H55.5v-2.282H53.942v2.282H52.668l.686-.252A10.594,10.594,0,0,0,52.29-11.8l-1.428.49a12.549,12.549,0,0,1,.868,1.736H49.854v1.358H52.78l-.168.028A6.291,6.291,0,0,1,53.088-7.1h-2.66v1.3H55.16v.63H51.128v1.2H55.16v.616H49.812v1.372H53.83A14.708,14.708,0,0,1,49.406-.336,7.766,7.766,0,0,1,50.47,1.05a13.28,13.28,0,0,0,4.69-2.268V1.218H56.8V-1.3a11.95,11.95,0,0,0,4.7,2.366,7.831,7.831,0,0,1,1.12-1.512,12.507,12.507,0,0,1-4.438-1.526ZM75.978-4.928a5.331,5.331,0,0,0-5.656-5.46A6.22,6.22,0,0,0,63.9-4.4c0,2.366,1.288,4.074,2.842,4.074,1.526,0,2.73-1.736,3.57-4.564a28.313,28.313,0,0,0,.84-3.794,3.461,3.461,0,0,1,2.94,3.7A3.8,3.8,0,0,1,70.9-1.232a10.768,10.768,0,0,1-1.3.224L70.644.658C74.172.112,75.978-1.974,75.978-4.928Zm-10.29.35a4.407,4.407,0,0,1,3.556-4.06A21.014,21.014,0,0,1,68.5-5.25c-.574,1.89-1.12,2.772-1.708,2.772C66.248-2.478,65.688-3.164,65.688-4.578ZM-51.66,22.608A14.171,14.171,0,0,1-53,25.716a33.061,33.061,0,0,1-.56-3.836h4.326V20.228h-1.456l.672-.714a11.713,11.713,0,0,0-2.282-1.5l-1.008.994a17.527,17.527,0,0,1,1.792,1.218h-2.142c-.028-.686-.042-1.372-.028-2.072h-1.75c0,.7.028,1.386.056,2.072H-61.1v4.088c0,1.82-.1,4.256-1.162,5.936a7.288,7.288,0,0,1,1.414,1.134c1.148-1.708,1.442-4.438,1.5-6.482h1.82a7.921,7.921,0,0,1-.238,2.632.453.453,0,0,1-.42.168c-.224,0-.7-.014-1.2-.056a3.778,3.778,0,0,1,.462,1.554,11.016,11.016,0,0,0,1.61-.042,1.315,1.315,0,0,0,.966-.56c.322-.406.406-1.652.448-4.592,0-.2.014-.63.014-.63h-3.458v-1.5h4.06a28.92,28.92,0,0,0,.966,5.642,10.7,10.7,0,0,1-2.856,2.268,10.974,10.974,0,0,1,1.2,1.372,11.866,11.866,0,0,0,2.366-1.9c.616,1.148,1.386,1.848,2.366,1.848,1.3,0,1.862-.616,2.128-3.206a4.528,4.528,0,0,1-1.414-.938c-.07,1.75-.238,2.45-.574,2.45-.448,0-.9-.588-1.3-1.6a16.262,16.262,0,0,0,2.408-4.8Zm14.336,3.584a19.718,19.718,0,0,1-2.142,1.456,6.661,6.661,0,0,1-1.106-1.456Zm.49,0h1.5v-1.47h-8.582v-.728h6.734V22.706h-6.734v-.7h6.734V20.718h-6.734v-.742h7.126V18.618h-8.834v6.1H-47.95v1.47h2.31V29.4c-.63.07-1.2.154-1.708.21l.378,1.526c1.694-.252,4-.6,6.146-.952l-.07-1.47c-1.008.154-2.044.308-3.024.448V26.192h1.61a8.225,8.225,0,0,0,6.188,5.04,7.4,7.4,0,0,1,1.05-1.5,9.259,9.259,0,0,1-3.262-1.2,23.573,23.573,0,0,0,2.576-1.582Zm8.988-7.42-1.848-.154a7.783,7.783,0,0,1-.28,1.61h-.672a18.216,18.216,0,0,1-2.464-.168V21.7c.77.056,1.792.084,2.366.084h.182a13.739,13.739,0,0,1-3.094,3.864l1.5,1.12a16.119,16.119,0,0,1,1.3-1.54,3.41,3.41,0,0,1,2.184-.966,1.077,1.077,0,0,1,.98.476c-1.6.826-3.276,1.946-3.276,3.738s1.624,2.338,3.822,2.338a35.021,35.021,0,0,0,3.962-.238l.056-1.806a22.9,22.9,0,0,1-3.976.392c-1.372,0-2.03-.21-2.03-.98,0-.7.56-1.246,1.61-1.848-.014.616-.028,1.288-.07,1.708h1.68c-.014-.644-.042-1.68-.056-2.464.854-.392,1.652-.7,2.282-.952.476-.182,1.218-.462,1.666-.588l-.7-1.624c-.518.266-1.008.49-1.554.728-.574.252-1.162.49-1.89.826a1.9,1.9,0,0,0-1.862-1.078,4.744,4.744,0,0,0-1.582.28,9.775,9.775,0,0,0,.8-1.428,41.705,41.705,0,0,0,4.564-.35l.014-1.624a35.444,35.444,0,0,1-3.962.406A13.394,13.394,0,0,0-27.846,18.772Zm17.668,2.1V22.09H-13.86V20.872Zm.518,4.886v1.414h-4.2V25.758Zm-5.824,2.786h7.462V24.372H-13.86v-.924h5.292V19.514H-11.4c.168-.35.35-.756.518-1.162l-1.974-.224c-.07.392-.2.924-.322,1.386h-2.31Zm-.924-7.966a11.211,11.211,0,0,0-2.338-2.114l-1.232,1.008a10.594,10.594,0,0,1,2.254,2.212Zm-.35,3h-3.234V25.1h1.61v2.954A18.385,18.385,0,0,1-20.3,29.342l.812,1.736c.77-.588,1.386-1.134,2-1.68a4.658,4.658,0,0,0,3.78,1.554c1.666.07,4.48.042,6.16-.042a8.719,8.719,0,0,1,.518-1.68c-1.862.14-5.012.182-6.65.112-1.456-.056-2.506-.434-3.08-1.372ZM-1.61,25.828c-1.666.966-3.472,1.974-4.634,2.548l1.036,1.54c1.218-.7,2.772-1.666,4.158-2.562Zm-.2-1.064a13.287,13.287,0,0,0-2.184-2.45l-1.274.9a13.66,13.66,0,0,1,2.1,2.534Zm6.468-2.632a17.44,17.44,0,0,1-2.2,2.548,14.315,14.315,0,0,1-1.3-2.674v-.14h5.4v-1.61H5.012l.644-.728a17.255,17.255,0,0,0-2.6-1.456l-.966,1.05a19.329,19.329,0,0,1,1.932,1.134H1.162v-2.1H-.532v2.1H-5.81v1.61H-.532V29.16c0,.252-.1.336-.364.336s-1.162.014-2.016-.028a6.908,6.908,0,0,1,.574,1.75,6.425,6.425,0,0,0,2.73-.336c.588-.266.77-.728.77-1.708V25.422a11.589,11.589,0,0,0,4.606,4.844A6.688,6.688,0,0,1,7,28.782a10.124,10.124,0,0,1-3.626-2.856,32.257,32.257,0,0,0,2.758-2.772ZM12.544,18.9,10.29,18.87a8.929,8.929,0,0,1,.182,1.89c0,1.2-.14,4.886-.14,6.762,0,2.394,1.484,3.4,3.78,3.4a7.247,7.247,0,0,0,6.076-3.22l-1.274-1.54a5.6,5.6,0,0,1-4.788,2.856,1.692,1.692,0,0,1-1.932-1.876c0-1.736.112-4.872.168-6.384C12.39,20.2,12.46,19.486,12.544,18.9ZM30.058,21.4H27.664v1.344h6.594V21.4H31.71v-.812h2.954V19.234H31.71V18.142H30.058v1.092h-2.9v1.358h2.9Zm-7.77,4.928a10.2,10.2,0,0,1-.714,3.248,6.993,6.993,0,0,1,1.218.588,12.85,12.85,0,0,0,.826-3.612Zm3.654-.966c.084.308.168.588.21.826l.966-.448v.42H28.5V24.68h4.844v1.484H34.8V23.392H27.118v1.316a14.472,14.472,0,0,0-.966-2.058l-1.176.49c.154.28.308.588.448.9l-1.218.07c.882-1.12,1.834-2.506,2.6-3.682l-1.358-.63a22.57,22.57,0,0,1-1.26,2.268,7.042,7.042,0,0,0-.448-.546,31.519,31.519,0,0,0,1.582-2.856l-1.442-.5a17.179,17.179,0,0,1-1.008,2.422c-.112-.1-.224-.2-.322-.294l-.812,1.12a12.884,12.884,0,0,1,1.6,1.96c-.21.294-.42.574-.63.826l-1.008.056.168,1.442,1.946-.154v5.684h1.428v-5.8Zm-.574,1.26a11.129,11.129,0,0,1,.644,2.52l1.232-.406a10.231,10.231,0,0,0-.714-2.464Zm3.43-.154c0,1.022-.322,2.562-2.618,3.654a7.741,7.741,0,0,1,1.134,1.106A4.874,4.874,0,0,0,30.3,26.5V25.38H28.8Zm4.214,3.206c-.182,0-.21-.056-.21-.434V25.38H31.3v3.864c0,1.386.252,1.834,1.442,1.834h.9c.952,0,1.33-.518,1.47-2.52a3.75,3.75,0,0,1-1.33-.616c-.028,1.512-.1,1.736-.294,1.736ZM46.242,18.87h-2.03a6.669,6.669,0,0,1,.154.966c.028.378.042,1.106.056,1.89-.532.014-1.078.028-1.582.028a14.724,14.724,0,0,1-2.114-.154v1.778c.686.028,1.554.07,2.156.07.518,0,1.036-.014,1.568-.028v.5c0,2.366-.224,3.612-1.3,4.732a5.432,5.432,0,0,1-1.624,1.12l1.61,1.274c2.8-1.778,3.052-3.808,3.052-7.112V23.35c.784-.042,1.512-.1,2.072-.168l.014-1.82a18.416,18.416,0,0,1-2.1.252V19.822C46.186,19.514,46.2,19.178,46.242,18.87Zm-6.958.238-2.072-.21a9.491,9.491,0,0,1-.1,1.218,39.314,39.314,0,0,0-.448,5.586,15.227,15.227,0,0,0,.8,4.536l1.554-.154c-.014-.2-.028-.434-.028-.574a3.155,3.155,0,0,1,.084-.686,34.555,34.555,0,0,1,.952-3.416l-.868-.56c-.238.518-.49,1.19-.672,1.624a17.727,17.727,0,0,1,.462-6.23A11.158,11.158,0,0,1,39.284,19.108ZM52.22,30.966l1.5-1.288a25.193,25.193,0,0,0-3.052-3.066l-1.456,1.26A27.434,27.434,0,0,1,52.22,30.966ZM-70.77,54.12V52.664h-6.622a11.9,11.9,0,0,0,.532-1.134l-.77-.21c.406-.112.8-.238,1.176-.364A35.994,35.994,0,0,1-72.9,52.4l1.274-1.148c-.742-.35-1.68-.714-2.716-1.078a17.591,17.591,0,0,0,2.24-1.148l-1.386-.952a13.423,13.423,0,0,1-3.01,1.386c-1.5-.462-3.038-.882-4.326-1.19l-1.162.966c.98.252,2.058.574,3.15.924a41.241,41.241,0,0,1-4.088.784,11.685,11.685,0,0,1,1.134,1.386c.966-.2,1.988-.406,3.01-.686a8.354,8.354,0,0,1-.476,1.022h-3.962V54.12h3.01a10.444,10.444,0,0,1-3.43,2.9,9.162,9.162,0,0,1,1.106,1.246,8.908,8.908,0,0,0,1.554-1.05V60.5h1.652V56.948h1.988v4.27h1.61v-4.27h2.2V58.8c0,.154-.07.21-.252.21s-.826,0-1.386-.028a5.263,5.263,0,0,1,.5,1.428,5.7,5.7,0,0,0,2.142-.238c.518-.238.658-.616.658-1.358V55.492h-3.864V54.344h-1.61v1.148h-1.89a15.668,15.668,0,0,0,1.008-1.372Zm12.348-4.368-.028.6h-2.2c.014-.2.028-.392.042-.6Zm-2.436,2.3c.042-.21.07-.42.1-.63h2.268q-.021.336-.042.63Zm-7.644.616c0,1.456.406,1.96,1.946,1.96h1.89a5.206,5.206,0,0,0,1.246-.1l-.014-.126a3.827,3.827,0,0,1,.686.9,4.461,4.461,0,0,0,1.582-2.17h2.506a1.169,1.169,0,0,1-.168.546.449.449,0,0,1-.392.168c-.21,0-.588-.014-1.036-.056a3.173,3.173,0,0,1,.364,1.26A9.084,9.084,0,0,0-58.436,55a1.286,1.286,0,0,0,.938-.518c.336-.448.476-1.764.6-5.32.014-.168.014-.588.014-.588h-5.166c-.056,2.506-.14,4.326-1.428,5.46-.042-.308-.07-.644-.1-.9a5.519,5.519,0,0,1-1.134.1h-1.834c-.35,0-.434-.154-.434-.546v-1.82h4.158v-1.4h-2.548V48.156h-1.54v1.316h-2.576v1.4h.98Zm6.314,6.944v-.714h3.976v-1.33h-3.976v-.7h4.648V55.506H-68.362v1.358h4.494v.7h-3.92v1.33h3.92v.714H-69.23V60.98h12.446V59.608ZM-51.38,48.842l-1.75.714c.63,1.484,1.3,2.982,1.946,4.172-1.344.994-2.324,2.156-2.324,3.7,0,2.408,2.114,3.178,4.9,3.178a26,26,0,0,0,4.494-.35l.028-2.016a21.613,21.613,0,0,1-4.578.518c-1.946,0-2.912-.532-2.912-1.54,0-.98.784-1.778,1.946-2.548a41.441,41.441,0,0,1,3.906-2.072c.518-.266.966-.5,1.386-.756l-.966-1.624a8.748,8.748,0,0,1-1.3.854c-.658.378-1.876.98-3.024,1.652A33.256,33.256,0,0,1-51.38,48.842Zm22.652,6.5V53.686h-5.39V51.894h4.382V50.242h-4.382V48.156H-35.9v2.086h-4.256v1.652H-35.9v1.792H-41.2v1.652h4.536a13.64,13.64,0,0,1-5,3.836,9.108,9.108,0,0,1,1.218,1.442,15.374,15.374,0,0,0,4.55-3.752v4.368h1.778V56.78a14.752,14.752,0,0,0,4.55,3.85,7.934,7.934,0,0,1,1.2-1.442,13.662,13.662,0,0,1-4.984-3.85Zm6.846-4.074v2.954H-24.3l1.33-.518a9.975,9.975,0,0,0-1.19-2.436Zm4.13,0a15.767,15.767,0,0,1-1.19,2.548l1.176.406h-2.352V51.264Zm3.01,4.55v-1.6h-2.716a25.824,25.824,0,0,0,1.47-2.478l-1.61-.476h2.324v-1.6h-4.844V48.142h-1.764v1.526H-26.6v1.6h2.38l-1.442.546a9.765,9.765,0,0,1,1.05,2.408h-2.646v1.6h4.4a13.216,13.216,0,0,1-4.788,3.5,7.9,7.9,0,0,1,1.176,1.4,14.527,14.527,0,0,0,4.592-3.78V61.2h1.764v-4.3a14.156,14.156,0,0,0,4.578,3.836,7.815,7.815,0,0,1,1.162-1.4,12.981,12.981,0,0,1-4.746-3.528Zm7.112-6.776-2.086-.21a14.248,14.248,0,0,1-.294,2.954c-.714.07-1.372.112-1.806.126a13.369,13.369,0,0,1-1.5,0l.168,1.9c.434-.07,1.162-.168,1.568-.238.252-.028.7-.084,1.2-.14a21.423,21.423,0,0,1-2.842,6.58l1.82.728a29.5,29.5,0,0,0,2.856-7.5c.406-.028.756-.056.98-.056.868,0,1.358.154,1.358,1.274a11.111,11.111,0,0,1-.574,3.878,1.027,1.027,0,0,1-1.05.6,8.09,8.09,0,0,1-1.708-.294l.294,1.848a9.2,9.2,0,0,0,1.68.2,2.225,2.225,0,0,0,2.3-1.288,13.717,13.717,0,0,0,.8-5.138c0-2.016-1.05-2.674-2.534-2.674-.294,0-.7.028-1.176.056.1-.5.21-1.022.294-1.442C-7.812,49.85-7.714,49.4-7.63,49.038Zm6.23-1.162-1.12.448a15.834,15.834,0,0,1,1.134,1.932L-.28,49.78A18.625,18.625,0,0,0-1.4,47.876Zm-1.666.63-1.106.462A15.479,15.479,0,0,1-3.22,50.62l-1.26.546a15.744,15.744,0,0,1,2.352,5.25L-.35,55.6a25.405,25.405,0,0,0-2.282-4.886l.686-.294C-2.212,49.906-2.716,49.024-3.066,48.506Zm7.8,5.586-1.2.308V52.328h1.26v-1.54H3.528V48.156H2v2.632H.56v1.54H2V54.82c-.63.154-1.19.294-1.666.406l.364,1.6L2,56.458v2.8c0,.182-.056.238-.224.238s-.658.014-1.162,0a5.993,5.993,0,0,1,.434,1.526A3.4,3.4,0,0,0,2.968,60.7c.434-.252.56-.658.56-1.428V56.01c.476-.14.938-.294,1.414-.42Zm3.7.826v1.33H7.014v-1.33Zm2.968,1.33H9.926v-1.33H11.4Zm-1.47,2.786V57.662H11.4v1.372ZM7.014,57.662H8.428v1.372H7.014Zm-1.5,3.486h1.5v-.672H11.4v.6h1.582V53.462H5.516Zm6.258-11.186v-1.82H10.15v1.82h-1.9v-1.82H6.65v1.82H5.04v1.5H6.65v1.568h1.6V51.46h1.9v1.568h1.624V51.46h1.638v-1.5ZM24.892,48.87h-2.03a6.669,6.669,0,0,1,.154.966c.028.378.042,1.106.056,1.89-.532.014-1.078.028-1.582.028a14.724,14.724,0,0,1-2.114-.154v1.778c.686.028,1.554.07,2.156.07.518,0,1.036-.014,1.568-.028v.5c0,2.366-.224,3.612-1.3,4.732a5.432,5.432,0,0,1-1.624,1.12l1.61,1.274c2.8-1.778,3.052-3.808,3.052-7.112V53.35c.784-.042,1.512-.1,2.072-.168l.014-1.82a18.417,18.417,0,0,1-2.1.252V49.822C24.836,49.514,24.85,49.178,24.892,48.87Zm-6.958.238-2.072-.21a9.491,9.491,0,0,1-.1,1.218,39.314,39.314,0,0,0-.448,5.586,15.227,15.227,0,0,0,.8,4.536l1.554-.154c-.014-.2-.028-.434-.028-.574a3.155,3.155,0,0,1,.084-.686,34.554,34.554,0,0,1,.952-3.416l-.868-.56c-.238.518-.49,1.19-.672,1.624a17.727,17.727,0,0,1,.462-6.23A11.159,11.159,0,0,1,17.934,49.108Zm15.526,9.24c0-.35.336-.672.868-.672.756,0,1.274.588,1.358,1.5a7.309,7.309,0,0,1-.812.042C34.034,59.216,33.46,58.866,33.46,58.348Zm-2.38-9.016.056,1.82c.322-.042.77-.084,1.148-.112.742-.042,2.674-.126,3.388-.14-.686.6-2.142,1.778-2.926,2.422-.826.686-2.52,2.114-3.514,2.912l1.274,1.316c1.5-1.708,2.9-2.842,5.04-2.842,1.652,0,2.912.854,2.912,2.114a2.029,2.029,0,0,1-1.162,1.9,2.8,2.8,0,0,0-2.982-2.394,2.346,2.346,0,0,0-2.506,2.184c0,1.4,1.47,2.3,3.416,2.3,3.388,0,5.068-1.75,5.068-3.962,0-2.044-1.806-3.528-4.186-3.528a5.469,5.469,0,0,0-1.33.154c.882-.7,2.352-1.932,3.108-2.464.322-.238.658-.434.98-.644l-.91-1.246a6.117,6.117,0,0,1-1.064.154c-.8.07-3.794.126-4.536.126A9.715,9.715,0,0,1,31.08,49.332Zm15.344,3.01a12.723,12.723,0,0,0,2.562-2.59,13.625,13.625,0,0,0,2.688,2.59Zm-.686,1.526h6.538V52.762a16.918,16.918,0,0,0,2.352,1.358,8.63,8.63,0,0,1,1.078-1.526,12.806,12.806,0,0,1-5.922-4.438H48.048a13.9,13.9,0,0,1-5.656,4.69,6.5,6.5,0,0,1,.98,1.4,16.165,16.165,0,0,0,2.366-1.4Zm-2.478,2.7h3.248A26.885,26.885,0,0,1,45.444,59.1l-2.114.07.224,1.624c2.38-.112,5.838-.252,9.128-.434a7.422,7.422,0,0,1,.56.868l1.554-.938a18.829,18.829,0,0,0-3.206-3.6l-1.47.77a16.687,16.687,0,0,1,1.372,1.428c-1.428.056-2.87.112-4.214.154.42-.784.882-1.652,1.288-2.478h6.272V55.03H43.26Zm19.39-.518c-.294-.28-1.372-1.246-2.044-1.792a13.589,13.589,0,0,0,1.652-3l-.938-.6-.294.07H60.4V48.156H58.744v2.576H56.756v1.512H60.13a10.458,10.458,0,0,1-3.906,3.906,6.673,6.673,0,0,1,.784,1.582,11.585,11.585,0,0,0,1.736-1.344v4.83H60.4V55.94c.476.518.952,1.078,1.246,1.47Zm4.032,3.136V54.064h2.646v-1.61H66.682V48.268H64.974v4.186h-2.66v1.61h2.66v5.124H61.74v1.624h7.924V59.188ZM76.8,48.772l-1.848-.154a7.783,7.783,0,0,1-.28,1.61H74a18.216,18.216,0,0,1-2.464-.168V51.7c.77.056,1.792.084,2.366.084h.182a13.739,13.739,0,0,1-3.094,3.864l1.5,1.12a16.121,16.121,0,0,1,1.3-1.54,3.41,3.41,0,0,1,2.184-.966,1.077,1.077,0,0,1,.98.476c-1.6.826-3.276,1.946-3.276,3.738s1.624,2.338,3.822,2.338a35.022,35.022,0,0,0,3.962-.238l.056-1.806a22.9,22.9,0,0,1-3.976.392c-1.372,0-2.03-.21-2.03-.98,0-.7.56-1.246,1.61-1.848-.014.616-.028,1.288-.07,1.708h1.68c-.014-.644-.042-1.68-.056-2.464.854-.392,1.652-.7,2.282-.952.476-.182,1.218-.462,1.666-.588l-.7-1.624c-.518.266-1.008.49-1.554.728-.574.252-1.162.49-1.89.826a1.9,1.9,0,0,0-1.862-1.078,4.744,4.744,0,0,0-1.582.28,9.775,9.775,0,0,0,.8-1.428,41.7,41.7,0,0,0,4.564-.35l.014-1.624a35.444,35.444,0,0,1-3.962.406A13.394,13.394,0,0,0,76.8,48.772ZM-32.326,81.936V80.83h8.568v1.106h-3.486v-.8H-28.91v.8Zm10.486,5.852V86.346h-5.53a4.753,4.753,0,0,0,.112-.882h3.822V84.12h-3.808v-.84h4.088v-.924h1.12V79.374H-27.16V78.156h-1.708v1.218h-5.11v2.982h1.246v.924h3.822v.84h-3.6v1.344h3.584a6.416,6.416,0,0,1-.14.882H-34.09v1.442h4.214a8.5,8.5,0,0,1-4.466,2.086,6.794,6.794,0,0,1,1.036,1.344c2.856-.77,4.41-1.876,5.236-3.122,1.106,1.736,2.772,2.73,5.432,3.15a6.477,6.477,0,0,1,.98-1.456,7.113,7.113,0,0,1-4.774-2Zm6.412-1.484c-.546.154-1.12.308-1.666.462V84.372h1.456V82.846h-1.456V80.41h1.61V78.87h-4.9v1.54h1.68v2.436h-1.554v1.526H-18.7v2.814c-.756.2-1.442.378-2.016.5l.434,1.568c1.442-.42,3.318-.966,5.082-1.484Zm2.044-2.016H-9.73v.868h-3.654Zm0-2.128H-9.73v.868h-3.654Zm0-2.128H-9.73V80.9h-3.654Zm3.822,9.688c-.238,0-.266-.056-.266-.462V86.514h1.722v-7.84h-6.832v7.84h1.022c-.182,1.638-.63,2.786-3.164,3.416a4.931,4.931,0,0,1,.924,1.372c2.982-.882,3.626-2.506,3.878-4.788h.854v2.744c0,1.414.28,1.89,1.568,1.89h1.05c1.036,0,1.4-.518,1.54-2.436A4.281,4.281,0,0,1-8.652,88.1c-.028,1.4-.1,1.624-.336,1.624ZM-1.806,78.9-4.06,78.87a8.929,8.929,0,0,1,.182,1.89c0,1.2-.14,4.886-.14,6.762,0,2.394,1.484,3.4,3.78,3.4A7.247,7.247,0,0,0,5.838,87.7l-1.274-1.54A5.6,5.6,0,0,1-.224,89.02a1.692,1.692,0,0,1-1.932-1.876c0-1.736.112-4.872.168-6.384C-1.96,80.2-1.89,79.486-1.806,78.9Zm12.782,9.52c0-.476.546-.868,1.54-.868a7.775,7.775,0,0,1,1.148.1c.014.252.014.448.014.6,0,.812-.49,1.022-1.232,1.022C11.48,89.272,10.976,88.95,10.976,88.418Zm4.382-9.744h-1.89a5.628,5.628,0,0,1,.084.966V80.3h-.546a26.138,26.138,0,0,1-3.458-.308l.042,1.6a32.183,32.183,0,0,0,3.43.252h.518c-.014.476-.014.98-.014,1.442h-.672a24.739,24.739,0,0,1-3.374-.266l.014,1.652c.924.112,2.52.182,3.332.182h.728c.014.42.028.868.056,1.3-.28-.028-.574-.042-.868-.042-2.156,0-3.458.994-3.458,2.408,0,1.484,1.176,2.338,3.416,2.338,1.848,0,2.758-.924,2.758-2.114,0-.154,0-.322-.014-.518a10.731,10.731,0,0,1,2.828,1.946L19.278,88.6a10.961,10.961,0,0,0-3.92-2.114c-.042-.56-.07-1.134-.1-1.666,1.344-.042,2.436-.14,3.7-.28l.014-1.652c-1.134.154-2.324.266-3.738.336V81.782c1.358-.07,2.632-.2,3.556-.308l.014-1.61a29.342,29.342,0,0,1-3.542.378c0-.224,0-.434.014-.574A9.456,9.456,0,0,1,15.358,78.674Zm14.784.042h-2.03a10.159,10.159,0,0,1,.14,1.218c.014.112.014.252.028.434-1.9.028-4.452.084-6.048.084l.042,1.694c1.722-.1,3.906-.182,6.02-.21.014.308.014.63.014.938a3.633,3.633,0,0,0-.56-.042,2.641,2.641,0,0,0-2.8,2.618,2.47,2.47,0,0,0,2.408,2.576,2.993,2.993,0,0,0,.63-.07,6.291,6.291,0,0,1-3.416,1.6l1.5,1.484c3.416-.952,4.48-3.276,4.48-5.1a3.563,3.563,0,0,0-.5-1.918c0-.616-.014-1.386-.014-2.1,1.9,0,3.206.028,4.046.07l.014-1.652c-.728-.014-2.646.014-4.06.014.014-.168.014-.322.014-.434C30.058,79.7,30.114,78.94,30.142,78.716Zm-3.514,6.706a1.054,1.054,0,0,1,1.078-1.12,1.032,1.032,0,0,1,.91.49c.2,1.232-.322,1.68-.91,1.68A1.045,1.045,0,0,1,26.628,85.422Z" transform="translate(767.5 3607)" fill="#fff"/>
      <path id="Path_544" data-name="Path 544" d="M-70.14-3.948c-.294-.28-1.372-1.246-2.044-1.792a13.589,13.589,0,0,0,1.652-3l-.938-.6-.294.07h-.63v-2.576h-1.652v2.576h-1.988v1.512h3.374A10.457,10.457,0,0,1-76.566-3.85a6.673,6.673,0,0,1,.784,1.582,11.586,11.586,0,0,0,1.736-1.344v4.83h1.652V-4.06c.476.518.952,1.078,1.246,1.47Zm4.032,3.136V-5.936h2.646v-1.61h-2.646v-4.186h-1.708v4.186h-2.66v1.61h2.66V-.812H-71.05V.812h7.924V-.812Zm7.742-6.846a12.723,12.723,0,0,0,2.562-2.59,13.625,13.625,0,0,0,2.688,2.59Zm-.686,1.526h6.538V-7.238A16.918,16.918,0,0,0-50.162-5.88a8.629,8.629,0,0,1,1.078-1.526,12.806,12.806,0,0,1-5.922-4.438h-1.736A13.9,13.9,0,0,1-62.4-7.154a6.5,6.5,0,0,1,.98,1.4,16.165,16.165,0,0,0,2.366-1.4Zm-2.478,2.7h3.248A26.885,26.885,0,0,1-59.346-.9l-2.114.07L-61.236.8C-58.856.686-55.4.546-52.108.364a7.422,7.422,0,0,1,.56.868l1.554-.938A18.829,18.829,0,0,0-53.2-3.3l-1.47.77A16.687,16.687,0,0,1-53.3-1.106c-1.428.056-2.87.112-4.214.154.42-.784.882-1.652,1.288-2.478h6.272V-4.97H-61.53Zm25.718-1.5a5.331,5.331,0,0,0-5.656-5.46A6.22,6.22,0,0,0-47.894-4.4c0,2.366,1.288,4.074,2.842,4.074,1.526,0,2.73-1.736,3.57-4.564a28.313,28.313,0,0,0,.84-3.794,3.461,3.461,0,0,1,2.94,3.7,3.8,3.8,0,0,1-3.192,3.752,10.768,10.768,0,0,1-1.3.224l1.05,1.666C-37.618.112-35.812-1.974-35.812-4.928Zm-10.29.35a4.407,4.407,0,0,1,3.556-4.06,21.014,21.014,0,0,1-.742,3.388c-.574,1.89-1.12,2.772-1.708,2.772C-45.542-2.478-46.1-3.164-46.1-4.578Zm11.886-1.778V-4.55h12.88V-6.356Zm23.282-2.856H-16.59v-.91h5.656Zm1.778-2.212H-18.27v3.5h9.114Zm-8.092,8.47h6.86v.616h-6.86Zm0-1.652h6.86v.588h-6.86Zm0-1.666h6.86v.6h-6.86Zm8.582,5.054V-7.406H-18.9v6.188h2.2A17.091,17.091,0,0,1-20.314.028a14.644,14.644,0,0,1,1.26,1.19,18.654,18.654,0,0,0,4.34-1.68l-1.078-.756h3.822l-1.176.84A37.264,37.264,0,0,1-8.652,1.246L-7.182.07c-.966-.392-2.436-.9-3.752-1.288Zm6.5-9.94-1.75.714c.63,1.484,1.3,2.982,1.946,4.172C-3.318-5.278-4.3-4.116-4.3-2.576-4.3-.168-2.184.6.6.6A26,26,0,0,0,5.1.252l.028-2.016a21.613,21.613,0,0,1-4.578.518c-1.946,0-2.912-.532-2.912-1.54,0-.98.784-1.778,1.946-2.548A41.44,41.44,0,0,1,3.486-7.406c.518-.266.966-.5,1.386-.756L3.906-9.786a8.748,8.748,0,0,1-1.3.854C1.946-8.554.728-7.952-.42-7.28A33.255,33.255,0,0,1-2.17-11.158ZM12.4-11.1,10.15-11.13a8.929,8.929,0,0,1,.182,1.89c0,1.2-.14,4.886-.14,6.762,0,2.394,1.484,3.4,3.78,3.4A7.247,7.247,0,0,0,20.048-2.3l-1.274-1.54A5.6,5.6,0,0,1,13.986-.98a1.692,1.692,0,0,1-1.932-1.876c0-1.736.112-4.872.168-6.384C12.25-9.8,12.32-10.514,12.4-11.1Zm9.38,1.47.182,1.918c1.624-.35,4.48-.658,5.8-.8A5.638,5.638,0,0,0,25.69-4.186c0,3.024,2.772,4.606,5.7,4.8L32.046-1.3c-2.366-.126-4.522-.966-4.522-3.262A4.258,4.258,0,0,1,30.478-8.5a15.843,15.843,0,0,1,2.7-.182l-.014-1.792c-.98.028-2.52.126-3.962.238-2.562.224-4.872.434-6.034.532C22.89-9.674,22.344-9.646,21.784-9.632Zm16.7,2.576H39.9V-8.638H38.486v-3.038H36.932v3.038H35.294v1.582h1.638v3.948c-.7.266-1.316.5-1.82.686l.672,1.68c1.288-.588,2.884-1.344,4.368-2.086L39.774-4.3c-.42.182-.854.364-1.288.546ZM43.26-.532c-.854,0-.98-.126-.98-.938V-5.8l1.162-.5v4.27H45V-6.972L46.2-7.5c0,1.988-.014,3.01-.042,3.234-.056.252-.14.308-.308.308a6.37,6.37,0,0,1-.672-.028,4.471,4.471,0,0,1,.35,1.4,3.9,3.9,0,0,0,1.456-.2A1.2,1.2,0,0,0,47.7-3.948c.07-.574.1-2.254.1-4.914l.056-.28L46.69-9.548l-.294.2-.294.2L45-8.68v-3.192H43.442v3.864l-1.162.49v-3h-1.6v3.682l-1.372.574.616,1.484.756-.322v3.6c0,1.932.546,2.45,2.436,2.45H46.1C47.74.952,48.23.28,48.454-1.68A4.214,4.214,0,0,1,47-2.282c-.126,1.428-.266,1.75-1.036,1.75Zm9.828-3.514-.952.476V-6.944h1.05v-1.6h-1.05v-3.136H50.582V-8.54h-1.26v1.6h1.26v4.172c-.518.238-.994.462-1.386.63l.63,1.68c1.148-.616,2.506-1.386,3.738-2.114ZM60.494-7.5a17.189,17.189,0,0,1-.77,2.6c-.126-1.064-.21-2.254-.266-3.528h2.716V-9.94h-.616l.6-.56a8.858,8.858,0,0,0-1.54-1.358l-.938.812A13.138,13.138,0,0,1,60.9-9.94H59.416c-.014-.644-.014-1.274,0-1.918H57.834c0,.644.014,1.274.028,1.918H53.4v1.512h4.522a40.468,40.468,0,0,0,.588,5.88c-.182.266-.378.518-.588.77l-.126-1.106c-1.764.392-3.6.812-4.816,1.036l.392,1.554c1.2-.308,2.772-.728,4.256-1.12A9.191,9.191,0,0,1,55.832.07a7.324,7.324,0,0,1,1.19,1.05,9.79,9.79,0,0,0,1.96-1.848C59.416.462,60,1.2,60.788,1.2c1.05,0,1.456-.532,1.694-2.394a3.749,3.749,0,0,1-1.12-.924C61.32-.868,61.208-.35,61.012-.35c-.336,0-.658-.756-.9-2a17.917,17.917,0,0,0,1.862-4.872Zm-4.4,3H55.02V-6.216H56.1ZM53.8-7.49v4.256h3.6V-7.49ZM66.36.966l1.5-1.288a25.192,25.192,0,0,0-3.052-3.066L63.35-2.128A27.434,27.434,0,0,1,66.36.966ZM-49.35,26.052c-.294-.28-1.372-1.246-2.044-1.792a13.589,13.589,0,0,0,1.652-3l-.938-.6-.294.07h-.63V18.156h-1.652v2.576h-1.988v1.512h3.374a10.458,10.458,0,0,1-3.906,3.906,6.673,6.673,0,0,1,.784,1.582,11.585,11.585,0,0,0,1.736-1.344v4.83H-51.6V25.94c.476.518.952,1.078,1.246,1.47Zm4.032,3.136V24.064h2.646v-1.61h-2.646V18.268h-1.708v4.186h-2.66v1.61h2.66v5.124H-50.26v1.624h7.924V29.188Zm7.742-6.846a12.723,12.723,0,0,0,2.562-2.59,13.625,13.625,0,0,0,2.688,2.59Zm-.686,1.526h6.538V22.762a16.917,16.917,0,0,0,2.352,1.358,8.629,8.629,0,0,1,1.078-1.526,12.806,12.806,0,0,1-5.922-4.438h-1.736a13.9,13.9,0,0,1-5.656,4.69,6.5,6.5,0,0,1,.98,1.4,16.165,16.165,0,0,0,2.366-1.4Zm-2.478,2.7h3.248A26.885,26.885,0,0,1-38.556,29.1l-2.114.07.224,1.624c2.38-.112,5.838-.252,9.128-.434a7.422,7.422,0,0,1,.56.868l1.554-.938a18.829,18.829,0,0,0-3.206-3.6l-1.47.77a16.687,16.687,0,0,1,1.372,1.428c-1.428.056-2.87.112-4.214.154.42-.784.882-1.652,1.288-2.478h6.272V25.03H-40.74Zm13.258-.742,1.708,1.75c.238-.364.56-.868.882-1.33.6-.8,1.6-2.184,2.156-2.884.406-.518.672-.588,1.162-.042.658.742,1.708,2.072,2.576,3.108s2.072,2.394,3.08,3.346l1.442-1.68c-1.33-1.19-2.52-2.45-3.416-3.43-.826-.9-1.946-2.338-2.9-3.262-1.022-.994-1.932-.9-2.912.21-.868,1.008-1.946,2.45-2.59,3.122A9.369,9.369,0,0,1-27.482,25.828Zm26.656-4.97H-6.16v-.84h4.144V18.73h-9.856v1.288h4v.84h-5.25v1.288H-.826Zm-9.184,6.286h5.978v.686H-10.01Zm0-1.68h5.978v.686H-10.01Zm0-1.652h5.978v.658H-10.01Zm7.742,5.082v-6.16H-11.69v6.16h2a15.579,15.579,0,0,1-3.682,1.148,12.5,12.5,0,0,1,1.218,1.218,16.89,16.89,0,0,0,4.382-1.9l-1.05-.462h3.668l-1.064.63a30.452,30.452,0,0,1,3.724,1.722l1.848-.77c-.91-.434-2.394-1.078-3.766-1.582ZM13.594,20.9A9.317,9.317,0,0,0,12.5,18.576l-1.3.49a8.746,8.746,0,0,1,1.008,2.366ZM5.866,28.348V27.186H4.844V26.36h1.05V25.17h-.63c.182-.42.42-1.036.672-1.638l-1.05-.238a16.006,16.006,0,0,1-.476,1.68l.8.2H3.276l.686-.224a6.506,6.506,0,0,0-.518-1.582l-.868.252a6.118,6.118,0,0,1,.476,1.554H2.534v1.19h1.05v.826H2.548v1.162H3.584v2.226h1.26V28.348Zm7.49-4.844V21.978H11.1V18.142H9.478v3.836H7.77V23.5H9.45a9.894,9.894,0,0,1-1.862,5.8V21.866h-2.6V20.7h2.8V19.3h-2.8V18.156H3.416V19.3H.714v1.4h2.7v1.162H.868v9.31H2.24V23.182H6.188v6.44c0,.14-.042.182-.168.182s-.532.014-.9,0a4.391,4.391,0,0,1,.364,1.316,3.291,3.291,0,0,0,1.624-.252.778.778,0,0,0,.336-.336,6.039,6.039,0,0,1,.672.686,9.879,9.879,0,0,0,2.394-4.312,9.462,9.462,0,0,0,2.058,4.326,5.542,5.542,0,0,1,1.162-1.372c-1.372-1.288-2.072-3.7-2.436-6.356ZM19.194,18.9,16.94,18.87a8.929,8.929,0,0,1,.182,1.89c0,1.2-.14,4.886-.14,6.762,0,2.394,1.484,3.4,3.78,3.4a7.247,7.247,0,0,0,6.076-3.22l-1.274-1.54a5.6,5.6,0,0,1-4.788,2.856,1.692,1.692,0,0,1-1.932-1.876c0-1.736.112-4.872.168-6.384C19.04,20.2,19.11,19.486,19.194,18.9Zm12.782,9.52c0-.476.546-.868,1.54-.868a7.775,7.775,0,0,1,1.148.1c.014.252.014.448.014.6,0,.812-.49,1.022-1.232,1.022C32.48,29.272,31.976,28.95,31.976,28.418Zm4.382-9.744h-1.89a5.628,5.628,0,0,1,.084.966V20.3h-.546a26.137,26.137,0,0,1-3.458-.308l.042,1.6a32.183,32.183,0,0,0,3.43.252h.518c-.014.476-.014.98-.014,1.442h-.672a24.739,24.739,0,0,1-3.374-.266l.014,1.652c.924.112,2.52.182,3.332.182h.728c.014.42.028.868.056,1.3-.28-.028-.574-.042-.868-.042-2.156,0-3.458.994-3.458,2.408,0,1.484,1.176,2.338,3.416,2.338,1.848,0,2.758-.924,2.758-2.114,0-.154,0-.322-.014-.518a10.731,10.731,0,0,1,2.828,1.946L40.278,28.6a10.961,10.961,0,0,0-3.92-2.114c-.042-.56-.07-1.134-.1-1.666,1.344-.042,2.436-.14,3.7-.28l.014-1.652c-1.134.154-2.324.266-3.738.336V21.782c1.358-.07,2.632-.2,3.556-.308l.014-1.61a29.342,29.342,0,0,1-3.542.378c0-.224,0-.434.014-.574A9.455,9.455,0,0,1,36.358,18.674Zm14.784.042h-2.03a10.159,10.159,0,0,1,.14,1.218c.014.112.014.252.028.434-1.9.028-4.452.084-6.048.084l.042,1.694c1.722-.1,3.906-.182,6.02-.21.014.308.014.63.014.938a3.633,3.633,0,0,0-.56-.042,2.641,2.641,0,0,0-2.8,2.618,2.47,2.47,0,0,0,2.408,2.576,2.993,2.993,0,0,0,.63-.07,6.291,6.291,0,0,1-3.416,1.6l1.5,1.484c3.416-.952,4.48-3.276,4.48-5.1a3.563,3.563,0,0,0-.5-1.918c0-.616-.014-1.386-.014-2.1,1.9,0,3.206.028,4.046.07l.014-1.652c-.728-.014-2.646.014-4.06.014.014-.168.014-.322.014-.434C51.058,19.7,51.114,18.94,51.142,18.716Zm-3.514,6.706a1.054,1.054,0,0,1,1.078-1.12,1.032,1.032,0,0,1,.91.49c.2,1.232-.322,1.68-.91,1.68A1.045,1.045,0,0,1,47.628,25.422Z" transform="translate(691.5 3404)" fill="#fff"/>
    </g>
    <g id="Group_87" data-name="Group 87">
      <g transform="matrix(1, 0, 0, 1, 543, 3120)" filter="url(#Path_549)">
        <path id="Path_549-2" data-name="Path 549" d="M104,0A104,104,0,1,1,0,104,104,104,0,0,1,104,0Z" transform="translate(243 233)" fill="#fff"/>
      </g>
      <g id="Group_76" data-name="Group 76" transform="translate(832.13 3503.336)">
        <path id="Path_215" data-name="Path 215" d="M64.569,10.311l-4.24-.9A1.4,1.4,0,0,1,59.2,8.122c0-.86,1.3-1.821,3.04-1.821,1.6,0,2.906.793,2.906,1.768h2.16c0-2.2-2.227-3.929-5.071-3.929s-5.205,1.788-5.205,3.986a3.56,3.56,0,0,0,2.83,3.4l4.24.9a1.4,1.4,0,0,1,1.128,1.286c0,.8-1.357,1.687-3.179,1.687s-3.04-.932-3.04-1.768H56.85c0,2.2,2.285,3.929,5.205,3.929s5.339-1.692,5.339-3.852a3.56,3.56,0,0,0-2.83-3.4Z" transform="translate(-56.85 -4.044)" fill="#1eaa39"/>
        <path id="Path_216" data-name="Path 216" d="M89.838,4.11A6.192,6.192,0,0,0,84.79,6.777V4.54H82.63V21.264h2.16V14.826a6.2,6.2,0,0,0,5.047,2.667A6.514,6.514,0,0,0,96.157,10.8,6.514,6.514,0,0,0,89.838,4.11Zm-.4,11.409a4.625,4.625,0,0,1-4.546-4.7,4.548,4.548,0,1,1,9.091,0A4.625,4.625,0,0,1,89.441,15.519Z" transform="translate(-70.308 -4.029)" fill="#1eaa39"/>
        <path id="Path_217" data-name="Path 217" d="M151.437,6.105a4.612,4.612,0,0,1,3.628,1.754l1.7-1.343a6.788,6.788,0,1,0-.01,8.431L155.06,13.6a4.627,4.627,0,1,1-3.623-7.5Z" transform="translate(-102.684 -3.94)" fill="#1eaa39"/>
        <path id="Path_218" data-name="Path 218" d="M178.147,3.95A6.787,6.787,0,1,0,183.4,15.029l-1.673-1.367a4.627,4.627,0,0,1-8.083-1.84h11.285v-1.08a6.8,6.8,0,0,0-6.787-6.787Zm-4.5,5.707a4.627,4.627,0,0,1,9,0Z" transform="translate(-116.627 -3.945)" fill="#1eaa39"/>
        <path id="Path_219" data-name="Path 219" d="M284.174,10.737a6.787,6.787,0,1,0-1.53,4.292l-1.673-1.367a4.627,4.627,0,0,1-8.083-1.84h11.285v-1.08Zm-11.285-1.08a4.627,4.627,0,0,1,9,0Z" transform="translate(-168.433 -3.945)" fill="#1eaa39"/>
        <path id="Path_220" data-name="Path 220" d="M219.959,4.1a6.749,6.749,0,1,0,6.749,6.749A6.757,6.757,0,0,0,219.959,4.1Zm0,11.338a4.589,4.589,0,1,1,4.589-4.589A4.6,4.6,0,0,1,219.959,15.438Z" transform="translate(-138.474 -4.024)" fill="#1eaa39"/>
        <path id="Path_221" data-name="Path 221" d="M250.9,4.24h0a5,5,0,0,0-3.656,1.582V4.594h-2.16V17.16h2.16V8.628a3.331,3.331,0,0,1,3.169-2.309h0a3.331,3.331,0,0,1,3.331,3.331v7.5h2.175V9.259A5.018,5.018,0,0,0,250.9,4.24Z" transform="translate(-155.111 -4.097)" fill="#1eaa39"/>
        <path id="Path_222" data-name="Path 222" d="M124.348,6.576a6.177,6.177,0,0,0-4.9-2.466A6.514,6.514,0,0,0,113.13,10.8a6.514,6.514,0,0,0,6.319,6.692,6.17,6.17,0,0,0,4.9-2.466V17.1h2.16V4.526h-2.16Zm-4.5,8.943a4.625,4.625,0,0,1-4.546-4.7,4.537,4.537,0,0,1,9.048-.626v1.252a4.6,4.6,0,0,1-4.5,4.077Z" transform="translate(-86.23 -4.029)" fill="#1eaa39"/>
      </g>
      <g id="Group_85" data-name="Group 85" transform="translate(16 -28)">
        <path id="Path_223" data-name="Path 223" d="M56.917,13.67,31.283,39.388H0L25.635,13.67Z" transform="translate(828 3451.82)" fill="#00913a"/>
        <path id="Path_224" data-name="Path 224" d="M73.757,13.67,48.123,39.388H16.84L42.475,13.67Z" transform="translate(846.256 3451.82)" fill="#1eaa39"/>
        <path id="Path_225" data-name="Path 225" d="M70.547,0,44.913,25.718H13.63L39.265,0Z" transform="translate(842.777 3437)" fill="#006934"/>
        <path id="Path_226" data-name="Path 226" d="M60.127,27.35,34.493,53.068H3.21L28.845,27.35Z" transform="translate(831.481 3466.651)" fill="#8dc21f"/>
      </g>
    </g>
  </g>
</svg>
