<svg xmlns="http://www.w3.org/2000/svg" width="618" height="574" viewBox="0 0 618 574">
  <g id="Group_227" data-name="Group 227" transform="translate(-652 -2720)">
    <g id="Path_543" data-name="Path 543" transform="translate(800 2868)" fill="rgba(255,255,255,0)">
      <path d="M 320.1340026855469 277.5 L 0.8660036325454712 277.5 L 84.19437408447266 133.1679992675781 L 160.5 0.9999938011169434 L 320.1340026855469 277.5 Z" stroke="none"/>
      <path d="M 160.5 2.00006103515625 L 1.7320556640625 277 L 319.2679443359375 277 L 160.5 2.00006103515625 M 160.5 0 L 321 278 L 0 278 C 0 278 43.63632202148438 202.4179992675781 83.76133728027344 132.9179992675781 C 123.8863372802734 63.41799926757812 160.5 0 160.5 0 Z" stroke="none" fill="#22ac38"/>
    </g>
    <g id="Group_107" data-name="Group 107" transform="translate(-116 -1)">
      <ellipse id="Ellipse_5" data-name="Ellipse 5" cx="148.5" cy="148" rx="148.5" ry="148" transform="translate(1089 2999)" fill="#1eaa39"/>
      <path id="Path_542" data-name="Path 542" d="M-100.114-6.664h4.158V-5.8h-4.158Zm7.35,2.884h-4.228v-.84h2.73V-7.84h-7.448v3.22h3v.84h-4.326V.6h1.694V-2.3h2.632V1.232h1.722V-2.3h2.52V-.938c0,.154-.07.21-.28.21s-.938,0-1.568-.028A5.893,5.893,0,0,1-95.788.756a6.3,6.3,0,0,0,2.31-.238c.56-.252.714-.658.714-1.428ZM-94.08-9.954c.35-.35.742-.784,1.148-1.274l-1.792-.532a9.583,9.583,0,0,1-1.008,1.526l.784.28h-2.2v-1.918h-1.722v1.918h-2.226l.756-.336a6.793,6.793,0,0,0-1.022-1.5l-1.512.616a7.86,7.86,0,0,1,.784,1.218h-1.89V-6.58h1.6V-8.512h8.764V-6.58h1.666V-9.954Zm9.352.168v1.792a37.575,37.575,0,0,0,6.02,0V-9.8A28.788,28.788,0,0,1-84.728-9.786Zm1.12,5.978-1.61-.154a8.553,8.553,0,0,0-.238,1.82c0,1.442,1.162,2.3,3.57,2.3a19.827,19.827,0,0,0,3.612-.266L-78.3-2a16.549,16.549,0,0,1-3.514.364c-1.428,0-1.96-.378-1.96-.994A4.752,4.752,0,0,1-83.608-3.808Zm-3.276-6.916-1.96-.168c-.014.448-.1.98-.14,1.372a39.038,39.038,0,0,0-.588,5.544A17.9,17.9,0,0,0-89.026.6L-87.4.49c-.014-.2-.028-.42-.028-.574a4.225,4.225,0,0,1,.07-.658c.154-.742.616-2.268,1.008-3.43l-.868-.686c-.2.462-.42.952-.63,1.428a6.754,6.754,0,0,1-.056-.91,37.132,37.132,0,0,1,.672-5.138C-87.178-9.73-87-10.43-86.884-10.724Zm17.01,5.964V-6.328h-2.3V-8.554H-70.2v-1.54h-3.7c.14-.476.252-.952.35-1.442l-1.6-.322a10.429,10.429,0,0,1-1.568,4.214,9.365,9.365,0,0,1,1.344.966,9.765,9.765,0,0,0,.952-1.876h.56v2.226h-2.59V-4.76h2.478A6.54,6.54,0,0,1-76.65-.084a6.331,6.331,0,0,1,1.19,1.26,7.474,7.474,0,0,0,2.646-3.668c.686.854,1.484,1.9,1.946,2.632l1.12-1.4c-.392-.462-1.9-2.212-2.632-2.926.042-.182.07-.378.1-.574Zm1.988,3V-9.086h2.03v7.322Zm-1.61-8.89V.812h1.61V-.2h2.03V.6h1.694V-10.654ZM-52.738-7.49v.728h-2.52V-7.49Zm0,2.59h-2.52v-.714h2.52Zm-6.636-.714h2.492V-4.9h-2.492Zm0-1.876h2.492v.728h-2.492Zm2.492-1.218h-4.046v5.04H-57.2l-.616.532A9.519,9.519,0,0,1-55.454-1.33l1.148-1.05a8.219,8.219,0,0,0-1.68-1.288h4.872v-5.04h-4.144v-.686h5.068V-10.85h-5.068v-.994h-1.624v.994h-5.012v1.456h5.012ZM-61.264.854a5.784,5.784,0,0,0,1.876-3.192l-1.456-.532A4.844,4.844,0,0,1-62.58-.21ZM-56.518-.49c-.616,0-.728-.056-.728-.434V-2.7H-58.9v1.82c0,1.414.42,1.862,2.184,1.862h2.17c1.316,0,1.792-.392,1.974-2.1a4.264,4.264,0,0,1-1.47-.588C-54.1-.644-54.194-.49-54.7-.49Zm3.248-1.82A10.163,10.163,0,0,1-50.932.7l1.484-.812a10.252,10.252,0,0,0-2.464-2.954ZM-42.2-11.228l-1.848-.154a7.783,7.783,0,0,1-.28,1.61H-45A18.216,18.216,0,0,1-47.46-9.94V-8.3c.77.056,1.792.084,2.366.084h.182a13.739,13.739,0,0,1-3.094,3.864l1.5,1.12a16.119,16.119,0,0,1,1.3-1.54,3.41,3.41,0,0,1,2.184-.966,1.077,1.077,0,0,1,.98.476c-1.6.826-3.276,1.946-3.276,3.738S-43.694.812-41.5.812A35.022,35.022,0,0,0-37.534.574l.056-1.806a22.9,22.9,0,0,1-3.976.392c-1.372,0-2.03-.21-2.03-.98,0-.7.56-1.246,1.61-1.848-.014.616-.028,1.288-.07,1.708h1.68c-.014-.644-.042-1.68-.056-2.464.854-.392,1.652-.7,2.282-.952.476-.182,1.218-.462,1.666-.588l-.7-1.624c-.518.266-1.008.49-1.554.728-.574.252-1.162.49-1.89.826a1.9,1.9,0,0,0-1.862-1.078,4.744,4.744,0,0,0-1.582.28,9.775,9.775,0,0,0,.8-1.428A41.7,41.7,0,0,0-38.6-8.61l.014-1.624a35.444,35.444,0,0,1-3.962.406A13.394,13.394,0,0,0-42.2-11.228Zm18.088,6.51v3.486H-27.23V-5.46h4.3v-5.082h-1.75v3.458H-27.23v-4.634h-1.708v4.634h-2.408v-3.458H-33V-5.46h4.06v4.228h-2.926V-4.718h-1.694V1.218h1.694V.406h7.756v.8h1.736V-4.718Zm8.3-6.384-2.254-.028a8.929,8.929,0,0,1,.182,1.89c0,1.2-.14,4.886-.14,6.762,0,2.394,1.484,3.4,3.78,3.4A7.247,7.247,0,0,0-8.162-2.3l-1.274-1.54A5.6,5.6,0,0,1-14.224-.98a1.692,1.692,0,0,1-1.932-1.876c0-1.736.112-4.872.168-6.384C-15.96-9.8-15.89-10.514-15.806-11.1ZM-3.43.966l1.5-1.288A25.193,25.193,0,0,0-4.984-3.388L-6.44-2.128A27.434,27.434,0,0,1-3.43.966ZM14.91-1.428V-8.666h4.7V-10.4H8.428v1.736h4.578v7.238H7.672V.252H20.4v-1.68ZM34.2-4.326V-6.048h-5.39c.028-.434.042-.854.042-1.274v-.966H33.46V-10.01H28.854v-1.862H27.062v1.862H22.778v1.722h4.284v.966c0,.42-.014.84-.056,1.274h-5.18v1.722h4.788c-.6,1.652-2,3.15-5.11,4.032a6.4,6.4,0,0,1,1.022,1.54c3.094-.924,4.7-2.45,5.516-4.172a8.13,8.13,0,0,0,5.53,4.06A6.506,6.506,0,0,1,34.664-.448a7.169,7.169,0,0,1-5.516-3.878ZM40.194-11.1,37.94-11.13a8.929,8.929,0,0,1,.182,1.89c0,1.2-.14,4.886-.14,6.762,0,2.394,1.484,3.4,3.78,3.4A7.247,7.247,0,0,0,47.838-2.3l-1.274-1.54A5.6,5.6,0,0,1,41.776-.98a1.692,1.692,0,0,1-1.932-1.876c0-1.736.112-4.872.168-6.384C40.04-9.8,40.11-10.514,40.194-11.1ZM52.57.966l1.5-1.288a25.193,25.193,0,0,0-3.052-3.066L49.56-2.128A27.434,27.434,0,0,1,52.57.966Zm19.4-4.13a6.915,6.915,0,0,1-1.9,1.372,5.972,5.972,0,0,1-1.792-1.372Zm1.4-1.372-.294.056H69.51c.182-.224.35-.448.518-.672l-1.47-.294A5.36,5.36,0,0,0,69.72-9.114h1.274v2.478c0,.14-.042.182-.21.182s-.7,0-1.19-.014a5.507,5.507,0,0,1,.462,1.456A4.964,4.964,0,0,0,72.03-5.25c.476-.238.588-.644.588-1.344v-2.52h3.6V-10.64H70.854v-1.2H69.146v1.2h-5.32v1.526h4.34A3.733,3.733,0,0,1,66.22-5.628a6.037,6.037,0,0,1,1.19,1.12A9.764,9.764,0,0,1,63.84-2.52a4.462,4.462,0,0,1,1.05,1.232,13.454,13.454,0,0,0,2.156-1.078,8.424,8.424,0,0,0,1.3,1.246,21.99,21.99,0,0,1-4.914.868,5.483,5.483,0,0,1,.784,1.5A21.491,21.491,0,0,0,69.986-.126a16.165,16.165,0,0,0,5.67,1.33,7.281,7.281,0,0,1,.966-1.568,19.928,19.928,0,0,1-4.788-.728,7.717,7.717,0,0,0,2.618-2.716ZM65.618-8.652A5.877,5.877,0,0,1,63.56-6.3a10.011,10.011,0,0,1,1.148.966,8.692,8.692,0,0,0,2.464-2.9Zm7.392.686a15,15,0,0,1,2.128,2.73l1.386-.854A16.433,16.433,0,0,0,74.3-8.708Zm7.854,3.584V-5.446H83.1v1.064Zm6.272-1.064v1.064h-2.3V-5.446ZM82.194-9.422h3.542v.77H82.194Zm8.176,7.14H84.84v-.826h4.088V-6.734H84.84V-7.42h2.618v-2h2.674v-1.414H87.458v-1.022H85.736v1.022H82.194v-1.022H80.556v1.022H77.9v1.414h2.66v2H83.1v.686h-3.92v3.626H83.1v.826H77.672V-.77H83.1v2H84.84v-2h5.53ZM97.8-11.228l-1.848-.154a7.783,7.783,0,0,1-.28,1.61H95A18.216,18.216,0,0,1,92.54-9.94V-8.3c.77.056,1.792.084,2.366.084h.182a13.739,13.739,0,0,1-3.094,3.864l1.5,1.12a16.12,16.12,0,0,1,1.3-1.54,3.41,3.41,0,0,1,2.184-.966,1.077,1.077,0,0,1,.98.476c-1.6.826-3.276,1.946-3.276,3.738S96.306.812,98.5.812a35.022,35.022,0,0,0,3.962-.238l.056-1.806a22.9,22.9,0,0,1-3.976.392c-1.372,0-2.03-.21-2.03-.98,0-.7.56-1.246,1.61-1.848-.014.616-.028,1.288-.07,1.708h1.68c-.014-.644-.042-1.68-.056-2.464.854-.392,1.652-.7,2.282-.952.476-.182,1.218-.462,1.666-.588l-.7-1.624c-.518.266-1.008.49-1.554.728-.574.252-1.162.49-1.89.826a1.9,1.9,0,0,0-1.862-1.078,4.744,4.744,0,0,0-1.582.28,9.775,9.775,0,0,0,.8-1.428,41.7,41.7,0,0,0,4.564-.35l.014-1.624a35.444,35.444,0,0,1-3.962.406A13.394,13.394,0,0,0,97.8-11.228ZM-49.938,18.94h-6.8v1.582h6.8Zm-9.492-.8a12.455,12.455,0,0,1-3.164,2.982,9.679,9.679,0,0,1,.924,1.358A18.8,18.8,0,0,0-57.82,18.8Zm.532,3.024a13.641,13.641,0,0,1-3.85,4.186,16.4,16.4,0,0,1,1.134,1.442c.378-.308.756-.658,1.148-1.036v5.474H-58.8V23.924a18.568,18.568,0,0,0,1.5-2.142Zm9.31,1.624H-57.33v1.582h4.13v4.872c0,.21-.1.266-.35.266s-1.176.014-1.974-.028a7.079,7.079,0,0,1,.5,1.694,7.729,7.729,0,0,0,2.73-.28c.616-.252.784-.714.784-1.61V24.372h1.918Zm4.228-2.8-2.156-.028A8.51,8.51,0,0,1-47.4,21.39c0,.854.014,2.492.154,3.78.392,3.752,1.722,5.138,3.262,5.138,1.12,0,2-.854,2.926-3.29l-1.4-1.708c-.266,1.12-.826,2.758-1.484,2.758-.882,0-1.3-1.386-1.5-3.4-.084-1.008-.1-2.058-.084-2.968A11.327,11.327,0,0,1-45.36,19.99Zm7,.322-1.778.574c1.526,1.736,2.268,5.138,2.492,7.392l1.834-.714A15.556,15.556,0,0,0-38.36,20.312Zm14.35,2.3a14.171,14.171,0,0,1-1.344,3.108,33.06,33.06,0,0,1-.56-3.836h4.326V20.228h-1.456l.672-.714a11.713,11.713,0,0,0-2.282-1.5l-1.008.994a17.527,17.527,0,0,1,1.792,1.218h-2.142c-.028-.686-.042-1.372-.028-2.072h-1.75c0,.7.028,1.386.056,2.072h-5.712v4.088c0,1.82-.1,4.256-1.162,5.936a7.288,7.288,0,0,1,1.414,1.134c1.148-1.708,1.442-4.438,1.5-6.482h1.82a7.921,7.921,0,0,1-.238,2.632.453.453,0,0,1-.42.168c-.224,0-.7-.014-1.2-.056a3.778,3.778,0,0,1,.462,1.554,11.016,11.016,0,0,0,1.61-.042,1.315,1.315,0,0,0,.966-.56c.322-.406.406-1.652.448-4.592,0-.2.014-.63.014-.63H-31.7v-1.5h4.06a28.921,28.921,0,0,0,.966,5.642,10.7,10.7,0,0,1-2.856,2.268,10.974,10.974,0,0,1,1.2,1.372,11.866,11.866,0,0,0,2.366-1.9c.616,1.148,1.386,1.848,2.366,1.848,1.3,0,1.862-.616,2.128-3.206a4.528,4.528,0,0,1-1.414-.938c-.07,1.75-.238,2.45-.574,2.45-.448,0-.9-.588-1.3-1.6a16.262,16.262,0,0,0,2.408-4.8Zm14.336,3.584a19.718,19.718,0,0,1-2.142,1.456,6.661,6.661,0,0,1-1.106-1.456Zm.49,0h1.5v-1.47h-8.582v-.728h6.734V22.706h-6.734v-.7h6.734V20.718h-6.734v-.742h7.126V18.618h-8.834v6.1H-20.3v1.47h2.31V29.4c-.63.07-1.2.154-1.708.21l.378,1.526c1.694-.252,4-.6,6.146-.952l-.07-1.47c-1.008.154-2.044.308-3.024.448V26.192h1.61a8.225,8.225,0,0,0,6.188,5.04,7.4,7.4,0,0,1,1.05-1.5,9.259,9.259,0,0,1-3.262-1.2,23.573,23.573,0,0,0,2.576-1.582ZM-1.806,18.9-4.06,18.87a8.929,8.929,0,0,1,.182,1.89c0,1.2-.14,4.886-.14,6.762,0,2.394,1.484,3.4,3.78,3.4A7.247,7.247,0,0,0,5.838,27.7l-1.274-1.54A5.6,5.6,0,0,1-.224,29.02a1.692,1.692,0,0,1-1.932-1.876c0-1.736.112-4.872.168-6.384C-1.96,20.2-1.89,19.486-1.806,18.9ZM15.708,21.4H13.314v1.344h6.594V21.4H17.36v-.812h2.954V19.234H17.36V18.142H15.708v1.092h-2.9v1.358h2.9Zm-7.77,4.928a10.2,10.2,0,0,1-.714,3.248,6.993,6.993,0,0,1,1.218.588,12.85,12.85,0,0,0,.826-3.612Zm3.654-.966c.084.308.168.588.21.826l.966-.448v.42h1.386V24.68H19v1.484h1.456V23.392H12.768v1.316A14.471,14.471,0,0,0,11.8,22.65l-1.176.49c.154.28.308.588.448.9l-1.218.07c.882-1.12,1.834-2.506,2.6-3.682l-1.358-.63a22.57,22.57,0,0,1-1.26,2.268,7.042,7.042,0,0,0-.448-.546,31.518,31.518,0,0,0,1.582-2.856l-1.442-.5a17.179,17.179,0,0,1-1.008,2.422c-.112-.1-.224-.2-.322-.294L7.392,21.4a12.884,12.884,0,0,1,1.6,1.96c-.21.294-.42.574-.63.826l-1.008.056.168,1.442,1.946-.154v5.684h1.428v-5.8Zm-.574,1.26a11.129,11.129,0,0,1,.644,2.52l1.232-.406a10.231,10.231,0,0,0-.714-2.464Zm3.43-.154c0,1.022-.322,2.562-2.618,3.654a7.741,7.741,0,0,1,1.134,1.106A4.874,4.874,0,0,0,15.946,26.5V25.38h-1.5Zm4.214,3.206c-.182,0-.21-.056-.21-.434V25.38h-1.5v3.864c0,1.386.252,1.834,1.442,1.834h.9c.952,0,1.33-.518,1.47-2.52a3.75,3.75,0,0,1-1.33-.616c-.028,1.512-.1,1.736-.294,1.736ZM31.892,18.87h-2.03a6.669,6.669,0,0,1,.154.966c.028.378.042,1.106.056,1.89-.532.014-1.078.028-1.582.028a14.724,14.724,0,0,1-2.114-.154v1.778c.686.028,1.554.07,2.156.07.518,0,1.036-.014,1.568-.028v.5c0,2.366-.224,3.612-1.3,4.732a5.432,5.432,0,0,1-1.624,1.12l1.61,1.274c2.8-1.778,3.052-3.808,3.052-7.112V23.35c.784-.042,1.512-.1,2.072-.168l.014-1.82a18.416,18.416,0,0,1-2.1.252V19.822C31.836,19.514,31.85,19.178,31.892,18.87Zm-6.958.238-2.072-.21a9.491,9.491,0,0,1-.1,1.218,39.314,39.314,0,0,0-.448,5.586,15.227,15.227,0,0,0,.8,4.536l1.554-.154c-.014-.2-.028-.434-.028-.574a3.155,3.155,0,0,1,.084-.686,34.554,34.554,0,0,1,.952-3.416l-.868-.56c-.238.518-.49,1.19-.672,1.624a17.727,17.727,0,0,1,.462-6.23A11.159,11.159,0,0,1,24.934,19.108Zm14.042,9.31c0-.476.546-.868,1.54-.868a7.775,7.775,0,0,1,1.148.1c.014.252.014.448.014.6,0,.812-.49,1.022-1.232,1.022C39.48,29.272,38.976,28.95,38.976,28.418Zm4.382-9.744h-1.89a5.628,5.628,0,0,1,.084.966V20.3h-.546a26.137,26.137,0,0,1-3.458-.308l.042,1.6a32.183,32.183,0,0,0,3.43.252h.518c-.014.476-.014.98-.014,1.442h-.672a24.739,24.739,0,0,1-3.374-.266l.014,1.652c.924.112,2.52.182,3.332.182h.728c.014.42.028.868.056,1.3-.28-.028-.574-.042-.868-.042-2.156,0-3.458.994-3.458,2.408,0,1.484,1.176,2.338,3.416,2.338,1.848,0,2.758-.924,2.758-2.114,0-.154,0-.322-.014-.518a10.731,10.731,0,0,1,2.828,1.946L47.278,28.6a10.961,10.961,0,0,0-3.92-2.114c-.042-.56-.07-1.134-.1-1.666,1.344-.042,2.436-.14,3.7-.28l.014-1.652c-1.134.154-2.324.266-3.738.336V21.782c1.358-.07,2.632-.2,3.556-.308l.014-1.61a29.342,29.342,0,0,1-3.542.378c0-.224,0-.434.014-.574A9.455,9.455,0,0,1,43.358,18.674Zm14.784.042h-2.03a10.159,10.159,0,0,1,.14,1.218c.014.112.014.252.028.434-1.9.028-4.452.084-6.048.084l.042,1.694c1.722-.1,3.906-.182,6.02-.21.014.308.014.63.014.938a3.633,3.633,0,0,0-.56-.042,2.641,2.641,0,0,0-2.8,2.618,2.47,2.47,0,0,0,2.408,2.576,2.993,2.993,0,0,0,.63-.07,6.291,6.291,0,0,1-3.416,1.6l1.5,1.484c3.416-.952,4.48-3.276,4.48-5.1a3.563,3.563,0,0,0-.5-1.918c0-.616-.014-1.386-.014-2.1,1.9,0,3.206.028,4.046.07l.014-1.652c-.728-.014-2.646.014-4.06.014.014-.168.014-.322.014-.434C58.058,19.7,58.114,18.94,58.142,18.716Zm-3.514,6.706a1.054,1.054,0,0,1,1.078-1.12,1.032,1.032,0,0,1,.91.49c.2,1.232-.322,1.68-.91,1.68A1.045,1.045,0,0,1,54.628,25.422Z" transform="translate(1238 3138)" fill="#fff"/>
    </g>
    <g id="Group_106" data-name="Group 106" transform="translate(-41 -9)">
      <ellipse id="Ellipse_4" data-name="Ellipse 4" cx="148.5" cy="148" rx="148.5" ry="148" transform="translate(693 3007)" fill="#8dc21f"/>
      <path id="Path_541" data-name="Path 541" d="M-108.542-11.83a14.534,14.534,0,0,1-3.038,5.082,12.672,12.672,0,0,1,.854,1.68,10.864,10.864,0,0,0,.854-1.036V1.2h1.568V-8.6a24.3,24.3,0,0,0,1.26-2.758Zm6.076,4.578h-.924V-9h.924Zm2.338,5.936h-.938V-5.81h.938Zm-5.544-4.494h.868v4.494h-.868Zm3.206,0v4.494h-.938V-5.81Zm4-3.192v-1.484h-8.89V-9h2.394v1.75h-2.254V.91h1.54v-.8h5.544V.826h1.6V-7.252H-100.9V-9ZM-86.6-6.468H-89.1v-.714H-86.6Zm0,1.834H-89.1v-.714H-86.6Zm0,1.848H-89.1v-.728H-86.6Zm-4.032-5.6v6.8h5.642v-6.8h-2.744c.042-.238.07-.5.112-.77h3.206v-1.428h-3.052c.042-.406.084-.812.112-1.19l-1.666-.07c-.014.392-.042.826-.07,1.26h-3.6v1.428h3.486c-.028.266-.056.532-.084.77Zm-3.808-3.43a14.879,14.879,0,0,1-3.178,5.25,10.546,10.546,0,0,1,.882,1.722,12.865,12.865,0,0,0,.952-1.12V1.19h1.582V-8.428a22.314,22.314,0,0,0,1.344-2.884ZM-84.336-.854h-7.14v-6.72h-1.54V1.2h1.54V.574h7.14Zm7.49-10.416-1.82-.042c.014.238-.014.574-.028.84q-.042.357-.084.756h-.56a19.783,19.783,0,0,1-2.576-.2l.042,1.624c.658.028,1.75.084,2.478.084h.448q-.084.861-.126,1.764c-1.96.924-3.444,2.8-3.444,4.606A1.811,1.811,0,0,0-80.626.2a5,5,0,0,0,2.17-.56c.056.2.126.392.182.574l1.61-.49c-.112-.336-.224-.686-.322-1.036a10.75,10.75,0,0,0,2.94-4.256,2.082,2.082,0,0,1,1.456,1.96c0,1.372-1.092,2.744-3.794,3.038L-75.46.9c3.444-.518,4.606-2.436,4.606-4.424a3.621,3.621,0,0,0-2.7-3.43c.084-.266.2-.56.252-.714l-1.708-.406a7.692,7.692,0,0,1-.126.84h-.252a9.55,9.55,0,0,0-2.086.252c.014-.42.056-.854.1-1.274a38.531,38.531,0,0,0,4.97-.49l-.014-1.624a24.572,24.572,0,0,1-4.76.616c.042-.28.1-.532.14-.77C-76.986-10.738-76.93-10.99-76.846-11.27ZM-80.864-2.2a3.652,3.652,0,0,1,1.75-2.576,19.508,19.508,0,0,0,.294,2.8,2.984,2.984,0,0,1-1.4.462C-80.668-1.512-80.864-1.75-80.864-2.2Zm3.332-3.262V-5.5A6.979,6.979,0,0,1-75.6-5.81a8.622,8.622,0,0,1-1.764,2.674A14.727,14.727,0,0,1-77.532-5.46Zm13.2,3.808c0-.35.336-.672.868-.672.756,0,1.274.588,1.358,1.5a7.309,7.309,0,0,1-.812.042C-63.756-.784-64.33-1.134-64.33-1.652Zm-2.38-9.016.056,1.82c.322-.042.77-.084,1.148-.112.742-.042,2.674-.126,3.388-.14-.686.6-2.142,1.778-2.926,2.422-.826.686-2.52,2.114-3.514,2.912l1.274,1.316c1.5-1.708,2.9-2.842,5.04-2.842,1.652,0,2.912.854,2.912,2.114a2.029,2.029,0,0,1-1.162,1.9,2.8,2.8,0,0,0-2.982-2.394,2.346,2.346,0,0,0-2.506,2.184c0,1.4,1.47,2.3,3.416,2.3,3.388,0,5.068-1.75,5.068-3.962,0-2.044-1.806-3.528-4.186-3.528a5.469,5.469,0,0,0-1.33.154c.882-.7,2.352-1.932,3.108-2.464.322-.238.658-.434.98-.644l-.91-1.246a6.117,6.117,0,0,1-1.064.154c-.8.07-3.794.126-4.536.126A9.715,9.715,0,0,1-66.71-10.668Zm21.392,4.48V-6.65h1.036c.742,0,1.232.014,1.54.042V-8.47a8.3,8.3,0,0,1-1.54.1h-1.036v-1.47a8.82,8.82,0,0,1,.1-1.3h-2a9.239,9.239,0,0,1,.084,1.3v1.47h-3.318V-9.758a8.556,8.556,0,0,1,.084-1.26H-52.36c.042.42.084.854.084,1.26v1.386h-1.19A9.094,9.094,0,0,1-54.978-8.5v1.9c.308-.028.812-.056,1.512-.056h1.19v1.9a11.322,11.322,0,0,1-.084,1.47h1.96c-.014-.28-.056-.854-.056-1.47v-1.9h3.318v.532c0,3.444-1.19,4.648-3.892,5.586l1.5,1.414C-46.158-.6-45.318-2.716-45.318-6.188Zm4.816-.294v2.2c.518-.042,1.456-.07,2.254-.07h7.518c.588,0,1.3.056,1.638.07v-2.2c-.364.028-.98.084-1.638.084h-7.518C-38.976-6.4-40-6.44-40.5-6.482Zm23.044-4.858-1.106.448a16.756,16.756,0,0,1,1.092,1.946l1.134-.476C-16.6-9.94-17.108-10.822-17.458-11.34Zm1.652-.63-1.106.448A14.843,14.843,0,0,1-15.778-9.59l1.106-.476A15.454,15.454,0,0,0-15.806-11.97Zm-7.686,1.232h-2.072a11.584,11.584,0,0,1,.112,1.456v7.63a2.02,2.02,0,0,0,1.918,2.1A15.584,15.584,0,0,0-21.182.6,39.783,39.783,0,0,0-16.2.308V-1.736a23.717,23.717,0,0,1-4.872.49,13.094,13.094,0,0,1-1.624-.084c-.63-.126-.91-.28-.91-.882V-4.8A48.324,48.324,0,0,0-18.116-6.51c.462-.168,1.092-.434,1.638-.658l-.756-1.778a9.054,9.054,0,0,1-1.526.756A35.307,35.307,0,0,1-23.6-6.636V-9.282A10.518,10.518,0,0,1-23.492-10.738ZM-2.114-9.492l-1.148-.854a5.018,5.018,0,0,1-1.442.182H-9.646a15.641,15.641,0,0,1-1.652-.1v1.988c.294-.014,1.064-.1,1.652-.1H-4.9a10.847,10.847,0,0,1-2.086,3.43,15.694,15.694,0,0,1-5.74,4.018L-11.284.588A18.441,18.441,0,0,0-6.02-3.346,31.925,31.925,0,0,1-2.492.616L-.9-.77a39.357,39.357,0,0,0-3.906-4,20.583,20.583,0,0,0,2.2-3.85A6.615,6.615,0,0,1-2.114-9.492Zm9.128-1.736-1.848-.154a7.783,7.783,0,0,1-.28,1.61H4.214A18.216,18.216,0,0,1,1.75-9.94V-8.3c.77.056,1.792.084,2.366.084H4.3A13.739,13.739,0,0,1,1.2-4.354l1.5,1.12A16.119,16.119,0,0,1,4-4.774,3.41,3.41,0,0,1,6.188-5.74a1.077,1.077,0,0,1,.98.476c-1.6.826-3.276,1.946-3.276,3.738S5.516.812,7.714.812A35.022,35.022,0,0,0,11.676.574l.056-1.806A22.9,22.9,0,0,1,7.756-.84c-1.372,0-2.03-.21-2.03-.98,0-.7.56-1.246,1.61-1.848-.014.616-.028,1.288-.07,1.708h1.68C8.932-2.6,8.9-3.64,8.89-4.424c.854-.392,1.652-.7,2.282-.952.476-.182,1.218-.462,1.666-.588l-.7-1.624c-.518.266-1.008.49-1.554.728-.574.252-1.162.49-1.89.826A1.9,1.9,0,0,0,6.832-7.112a4.744,4.744,0,0,0-1.582.28,9.775,9.775,0,0,0,.8-1.428,41.7,41.7,0,0,0,4.564-.35l.014-1.624a35.444,35.444,0,0,1-3.962.406A13.394,13.394,0,0,0,7.014-11.228Zm11,2.086c.364-.378.686-.756.98-1.12.406.322.84.728,1.246,1.12Zm2.24,2.772v.5h-2.87v-.5ZM17.346-4.34c.014-.182.028-.364.028-.532h2.884v.532Zm3.178,2.912v.994H18.158v-.994Zm.112-6.594V-8.75c.294.308.546.588.742.812L22.442-9.17a27.616,27.616,0,0,0-2.926-2.52H18.032a9.688,9.688,0,0,1-3.514,3.416A4.721,4.721,0,0,1,15.512-7.1c.154-.1.308-.21.462-.308v1.9A9.033,9.033,0,0,1,14.588-.07,5.241,5.241,0,0,1,15.68.924,6.643,6.643,0,0,0,16.758-1.12V1.19h1.4V.756h2.366v.392h1.442V-2.618h-4.83c.042-.182.07-.378.1-.56h4.522V-7.532h-5.6A13.509,13.509,0,0,0,17.4-8.554v.532Zm3.514-2.142H22.582v7.882H24.15Zm1.484-1.414V-.784c0,.238-.1.322-.35.322s-1.078,0-1.918-.028A6.81,6.81,0,0,1,23.912,1.2a6.186,6.186,0,0,0,2.6-.336c.56-.252.742-.714.742-1.638V-11.578ZM39.1-4.718v3.486H35.98V-5.46h4.3v-5.082h-1.75v3.458H35.98v-4.634H34.272v4.634H31.864v-3.458H30.212V-5.46h4.06v4.228H31.346V-4.718H29.652V1.218h1.694V.406H39.1v.8h1.736V-4.718ZM47.4-11.1,45.15-11.13a8.929,8.929,0,0,1,.182,1.89c0,1.2-.14,4.886-.14,6.762,0,2.394,1.484,3.4,3.78,3.4A7.247,7.247,0,0,0,55.048-2.3l-1.274-1.54A5.6,5.6,0,0,1,48.986-.98a1.692,1.692,0,0,1-1.932-1.876c0-1.736.112-4.872.168-6.384C47.25-9.8,47.32-10.514,47.4-11.1Zm9.38,1.47.182,1.918c1.624-.35,4.48-.658,5.8-.8A5.638,5.638,0,0,0,60.69-4.186c0,3.024,2.772,4.606,5.7,4.8L67.046-1.3c-2.366-.126-4.522-.966-4.522-3.262A4.258,4.258,0,0,1,65.478-8.5a15.842,15.842,0,0,1,2.7-.182l-.014-1.792c-.98.028-2.52.126-3.962.238-2.562.224-4.872.434-6.034.532C57.89-9.674,57.344-9.646,56.784-9.632ZM76.44-3.948c-.294-.28-1.372-1.246-2.044-1.792a13.589,13.589,0,0,0,1.652-3l-.938-.6-.294.07h-.63v-2.576H72.534v2.576H70.546v1.512H73.92A10.457,10.457,0,0,1,70.014-3.85,6.673,6.673,0,0,1,70.8-2.268a11.586,11.586,0,0,0,1.736-1.344v4.83h1.652V-4.06c.476.518.952,1.078,1.246,1.47ZM80.472-.812V-5.936h2.646v-1.61H80.472v-4.186H78.764v4.186H76.1v1.61h2.66V-.812H75.53V.812h7.924V-.812Zm7.742-6.846a12.723,12.723,0,0,0,2.562-2.59,13.625,13.625,0,0,0,2.688,2.59Zm-.686,1.526h6.538V-7.238A16.918,16.918,0,0,0,96.418-5.88,8.63,8.63,0,0,1,97.5-7.406a12.806,12.806,0,0,1-5.922-4.438H89.838a13.9,13.9,0,0,1-5.656,4.69,6.5,6.5,0,0,1,.98,1.4,16.165,16.165,0,0,0,2.366-1.4ZM85.05-3.43H88.3A26.887,26.887,0,0,1,87.234-.9l-2.114.07L85.344.8c2.38-.112,5.838-.252,9.128-.434a7.422,7.422,0,0,1,.56.868L96.586.294A18.829,18.829,0,0,0,93.38-3.3l-1.47.77a16.686,16.686,0,0,1,1.372,1.428c-1.428.056-2.87.112-4.214.154.42-.784.882-1.652,1.288-2.478h6.272V-4.97H85.05Zm25.718-1.5a5.331,5.331,0,0,0-5.656-5.46A6.22,6.22,0,0,0,98.686-4.4c0,2.366,1.288,4.074,2.842,4.074,1.526,0,2.73-1.736,3.57-4.564a28.313,28.313,0,0,0,.84-3.794,3.461,3.461,0,0,1,2.94,3.7,3.8,3.8,0,0,1-3.192,3.752,10.768,10.768,0,0,1-1.3.224l1.05,1.666C108.962.112,110.768-1.974,110.768-4.928Zm-10.29.35a4.407,4.407,0,0,1,3.556-4.06,21.014,21.014,0,0,1-.742,3.388c-.574,1.89-1.12,2.772-1.708,2.772C101.038-2.478,100.478-3.164,100.478-4.578ZM-48.2,26.024h-1.722V24.442H-48.2Zm3.01-1.582v-.448a9.756,9.756,0,0,0,1.722,1.05,5.986,5.986,0,0,1,1.148-1.428,8.551,8.551,0,0,1-2.184-1.288,18.718,18.718,0,0,0,1.862-1.512l-1.218-.868a11.753,11.753,0,0,1-1.582,1.512c-.21-.238-.42-.476-.616-.728.574-.42,1.218-.966,1.792-1.484l-1.26-.9a13.221,13.221,0,0,1-1.246,1.3,9.725,9.725,0,0,1-.7-1.5l-1.5.42a12.808,12.808,0,0,0,2.548,4.284h-5.068a9.738,9.738,0,0,0,2.268-3.724l-1.106-.518-.294.056h-3.654V20.1h2.856a7.831,7.831,0,0,1-.882,1.26c-.392-.336-.924-.742-1.344-1.036l-1.05.868a14.942,14.942,0,0,1,1.386,1.19,8.662,8.662,0,0,1-2.324,1.442,7.24,7.24,0,0,1,1.008,1.26,11.443,11.443,0,0,0,1.862-1.106v.462h1.176v1.582h-3V27.55h2.772c-.35.938-1.19,1.806-3.122,2.394a6.345,6.345,0,0,1,1.064,1.33c2.59-.868,3.514-2.254,3.822-3.724H-48.2v1.526c0,1.554.378,2.044,1.89,2.044h1.526c1.232,0,1.666-.56,1.834-2.408a4.145,4.145,0,0,1-1.5-.658c-.056,1.316-.126,1.6-.49,1.6h-1.078c-.392,0-.448-.084-.448-.588V27.55h2.982V26.024h-2.982V24.442ZM-35.6,27.2h1.232a7.257,7.257,0,0,0,.98,1.638c-.742.112-1.5.21-2.212.308Zm.7-2.352h2.086V25.8H-34.9Zm0-2.31h2.086v.924H-34.9Zm-3.57-2.394h7.406v.98h-7.406ZM-30.6,27.2a16.856,16.856,0,0,1-1.428.952,5.592,5.592,0,0,1-.77-.952Zm.49,0h1.47V25.8h-2.632v-.952h2.016V23.462h-2.016v-.924h1.9V18.744h-10.78v4.13c0,2.226-.112,5.376-1.5,7.532a7.057,7.057,0,0,1,1.484.854c1.47-2.3,1.694-5.936,1.694-8.386v-.336h2.044v.924h-1.764v1.386h1.764V25.8H-38.57v1.4h1.442v2.142c-.518.07-1.008.126-1.428.168l.224,1.512c1.456-.224,3.4-.49,5.222-.784l-.056-1.134a7.019,7.019,0,0,0,3.71,2.128,5.684,5.684,0,0,1,.98-1.372,7.634,7.634,0,0,1-2.464-.882,16.625,16.625,0,0,0,1.82-1.106Zm8.386-6.986v1.792a37.575,37.575,0,0,0,6.02,0V20.2A28.788,28.788,0,0,1-21.728,20.214Zm1.12,5.978-1.61-.154a8.553,8.553,0,0,0-.238,1.82c0,1.442,1.162,2.3,3.57,2.3a19.827,19.827,0,0,0,3.612-.266L-15.3,28a16.549,16.549,0,0,1-3.514.364c-1.428,0-1.96-.378-1.96-.994A4.752,4.752,0,0,1-20.608,26.192Zm-3.276-6.916-1.96-.168c-.014.448-.1.98-.14,1.372a39.038,39.038,0,0,0-.588,5.544,17.9,17.9,0,0,0,.546,4.578l1.624-.112c-.014-.2-.028-.42-.028-.574a4.225,4.225,0,0,1,.07-.658c.154-.742.616-2.268,1.008-3.43l-.868-.686c-.2.462-.42.952-.63,1.428a6.755,6.755,0,0,1-.056-.91,37.132,37.132,0,0,1,.672-5.138C-24.178,20.27-24,19.57-23.884,19.276ZM-.826,20.858H-6.16v-.84h4.144V18.73h-9.856v1.288h4v.84h-5.25v1.288H-.826Zm-9.184,6.286h5.978v.686H-10.01Zm0-1.68h5.978v.686H-10.01Zm0-1.652h5.978v.658H-10.01Zm7.742,5.082v-6.16H-11.69v6.16h2a15.579,15.579,0,0,1-3.682,1.148,12.5,12.5,0,0,1,1.218,1.218,16.89,16.89,0,0,0,4.382-1.9l-1.05-.462h3.668l-1.064.63a30.452,30.452,0,0,1,3.724,1.722l1.848-.77c-.91-.434-2.394-1.078-3.766-1.582ZM13.594,20.9A9.317,9.317,0,0,0,12.5,18.576l-1.3.49a8.746,8.746,0,0,1,1.008,2.366ZM5.866,28.348V27.186H4.844V26.36h1.05V25.17h-.63c.182-.42.42-1.036.672-1.638l-1.05-.238a16.006,16.006,0,0,1-.476,1.68l.8.2H3.276l.686-.224a6.506,6.506,0,0,0-.518-1.582l-.868.252a6.118,6.118,0,0,1,.476,1.554H2.534v1.19h1.05v.826H2.548v1.162H3.584v2.226h1.26V28.348Zm7.49-4.844V21.978H11.1V18.142H9.478v3.836H7.77V23.5H9.45a9.894,9.894,0,0,1-1.862,5.8V21.866h-2.6V20.7h2.8V19.3h-2.8V18.156H3.416V19.3H.714v1.4h2.7v1.162H.868v9.31H2.24V23.182H6.188v6.44c0,.14-.042.182-.168.182s-.532.014-.9,0a4.391,4.391,0,0,1,.364,1.316,3.291,3.291,0,0,0,1.624-.252.778.778,0,0,0,.336-.336,6.039,6.039,0,0,1,.672.686,9.879,9.879,0,0,0,2.394-4.312,9.462,9.462,0,0,0,2.058,4.326,5.542,5.542,0,0,1,1.162-1.372c-1.372-1.288-2.072-3.7-2.436-6.356ZM19.194,18.9,16.94,18.87a8.929,8.929,0,0,1,.182,1.89c0,1.2-.14,4.886-.14,6.762,0,2.394,1.484,3.4,3.78,3.4a7.247,7.247,0,0,0,6.076-3.22l-1.274-1.54a5.6,5.6,0,0,1-4.788,2.856,1.692,1.692,0,0,1-1.932-1.876c0-1.736.112-4.872.168-6.384C19.04,20.2,19.11,19.486,19.194,18.9Zm12.782,9.52c0-.476.546-.868,1.54-.868a7.775,7.775,0,0,1,1.148.1c.014.252.014.448.014.6,0,.812-.49,1.022-1.232,1.022C32.48,29.272,31.976,28.95,31.976,28.418Zm4.382-9.744h-1.89a5.628,5.628,0,0,1,.084.966V20.3h-.546a26.137,26.137,0,0,1-3.458-.308l.042,1.6a32.183,32.183,0,0,0,3.43.252h.518c-.014.476-.014.98-.014,1.442h-.672a24.739,24.739,0,0,1-3.374-.266l.014,1.652c.924.112,2.52.182,3.332.182h.728c.014.42.028.868.056,1.3-.28-.028-.574-.042-.868-.042-2.156,0-3.458.994-3.458,2.408,0,1.484,1.176,2.338,3.416,2.338,1.848,0,2.758-.924,2.758-2.114,0-.154,0-.322-.014-.518a10.731,10.731,0,0,1,2.828,1.946L40.278,28.6a10.961,10.961,0,0,0-3.92-2.114c-.042-.56-.07-1.134-.1-1.666,1.344-.042,2.436-.14,3.7-.28l.014-1.652c-1.134.154-2.324.266-3.738.336V21.782c1.358-.07,2.632-.2,3.556-.308l.014-1.61a29.342,29.342,0,0,1-3.542.378c0-.224,0-.434.014-.574A9.455,9.455,0,0,1,36.358,18.674Zm14.784.042h-2.03a10.159,10.159,0,0,1,.14,1.218c.014.112.014.252.028.434-1.9.028-4.452.084-6.048.084l.042,1.694c1.722-.1,3.906-.182,6.02-.21.014.308.014.63.014.938a3.633,3.633,0,0,0-.56-.042,2.641,2.641,0,0,0-2.8,2.618,2.47,2.47,0,0,0,2.408,2.576,2.993,2.993,0,0,0,.63-.07,6.291,6.291,0,0,1-3.416,1.6l1.5,1.484c3.416-.952,4.48-3.276,4.48-5.1a3.563,3.563,0,0,0-.5-1.918c0-.616-.014-1.386-.014-2.1,1.9,0,3.206.028,4.046.07l.014-1.652c-.728-.014-2.646.014-4.06.014.014-.168.014-.322.014-.434C51.058,19.7,51.114,18.94,51.142,18.716Zm-3.514,6.706a1.054,1.054,0,0,1,1.078-1.12,1.032,1.032,0,0,1,.91.49c.2,1.232-.322,1.68-.91,1.68A1.045,1.045,0,0,1,47.628,25.422Z" transform="translate(842 3146)" fill="#fff"/>
    </g>
    <circle id="Ellipse_1" data-name="Ellipse 1" cx="148.5" cy="148.5" r="148.5" transform="translate(812 2720)" fill="#006934"/>
    <path id="Path_540" data-name="Path 540" d="M-75.81-1.05h-2.422v-.91h2.422Zm4.48-4.032H-82.558v6.3h1.624V-3.7h7.924V-.574c0,.168-.056.21-.266.224-.154.014-.588.014-1.064,0V-3.066h-5.348V.7h1.456V.07h3.612A4.722,4.722,0,0,1-74.3,1.19,5.588,5.588,0,0,0-72.03.924c.546-.252.7-.7.7-1.47ZM-74.872-6.79H-79.24v-.854h4.368Zm-5.95-1.96v3.08h7.644V-8.75Zm4.578-1.946v-1.176h-1.694V-10.7h-5.18v1.414h12.236V-10.7Zm9.884.686-2.156-.028A8.51,8.51,0,0,1-68.4-8.61c0,.854.014,2.492.154,3.78.392,3.752,1.722,5.138,3.262,5.138,1.12,0,2-.854,2.926-3.29l-1.4-1.708c-.266,1.12-.826,2.758-1.484,2.758-.882,0-1.3-1.386-1.5-3.4-.084-1.008-.1-2.058-.084-2.968A11.327,11.327,0,0,1-66.36-10.01Zm7,.322-1.778.574c1.526,1.736,2.268,5.138,2.492,7.392l1.834-.714A15.556,15.556,0,0,0-59.36-9.688Zm6.706-2.128a14.879,14.879,0,0,1-3.178,5.25,10.546,10.546,0,0,1,.882,1.722A12.864,12.864,0,0,0-54-5.964V1.19h1.582V-8.428a22.314,22.314,0,0,0,1.344-2.884Zm3.472,3.808a12.308,12.308,0,0,0,1.848-2.114,12.729,12.729,0,0,0,1.946,2.114Zm-.532,1.4h4.788V-7.616A14.1,14.1,0,0,0-43.2-6.426a9.276,9.276,0,0,1,.938-1.526A11.543,11.543,0,0,1-46.62-11.69H-48.2A11.393,11.393,0,0,1-52.36-7.714a6.118,6.118,0,0,1,.868,1.4,12.605,12.605,0,0,0,1.778-1.232Zm4.074,3.5v-1.3h.966v1.3Zm-2.128,0v-1.3h.91v1.3Zm-2.072,0v-1.3h.868v1.3Zm6.706-2.7h-8.2V1.218h1.5V-1.708h.868V1.064h1.2V-1.708h.91V1.064h1.218V-1.708h.966v1.3c0,.126-.042.168-.168.168a7.251,7.251,0,0,1-.8,0,4.8,4.8,0,0,1,.406,1.456,2.973,2.973,0,0,0,1.61-.28c.392-.252.49-.644.49-1.316Zm6.16,2.66c-.448.154-.91.294-1.372.434v-2.8h1.26V-7.042h-1.26V-9.506h1.5V-11.06h-4.62v1.554h1.54v2.464h-1.414v1.526h1.414v3.29c-.644.182-1.218.336-1.708.462l.378,1.694c1.344-.434,3.024-.966,4.564-1.512Zm2.156-4.228h1.442v1.2h-1.442Zm0-2.478h1.442V-8.68h-1.442ZM-30.59-8.68h-1.386V-9.856h1.386Zm0,2.506h-1.386v-1.2h1.386ZM-31.822-.728v-1.33h2.968v-1.5h-2.968v-1.2h2.814v-6.51h-7.308v6.51h2.8v1.2h-2.9v1.5h2.9v1.33H-37.38V.784h9V-.728Zm12.642-4.69H-16.6v.938H-19.18Zm0-2.24H-16.6v.938H-19.18Zm0-2.226H-16.6v.924H-19.18ZM-24.906-1.6H-24v.728h-.91ZM-24-4.34h-.91v-.686H-24Zm0,1.694h-.91V-3.3H-24ZM-26.138-8.5a6.623,6.623,0,0,0,.616-.924h.7c-.112.308-.238.63-.364.924Zm9.926,8.106c-.182,0-.2-.042-.2-.406V-3.024h1.33V-11.34h-5.558v8.316h.77A3.579,3.579,0,0,1-21.084-.546V-.868H-22.6V-1.6h1.316v-1.05H-22.6V-3.3h1.316V-4.34H-22.6v-.686h1.512V-6.118h-1.358c.154-.238.322-.518.476-.8l-1.5-.252a8.372,8.372,0,0,1-.35,1.05h-.98c.21-.35.406-.7.588-1.078h3.22V-8.5h-2.632q.189-.462.336-.924h2.17v-1.3h-3.766a8.251,8.251,0,0,0,.294-.826l-1.47-.35A7.079,7.079,0,0,1-27.51-9.2a7.3,7.3,0,0,1,.994.7h-.84v1.3h1.5A8.617,8.617,0,0,1-27.678-5a9.8,9.8,0,0,1,.938,1.3c.126-.112.252-.238.378-.364V.91h1.456V.336h3.15a4.025,4.025,0,0,1,.574.868c1.932-.9,2.506-2.38,2.716-4.228h.616V-.77c0,1.3.238,1.736,1.372,1.736h.812c.91,0,1.26-.49,1.386-2.408a4.1,4.1,0,0,1-1.274-.588c-.042,1.442-.084,1.638-.28,1.638ZM-9.38-11.158l-1.75.714c.63,1.484,1.3,2.982,1.946,4.172-1.344.994-2.324,2.156-2.324,3.7C-11.508-.168-9.394.6-6.608.6A26,26,0,0,0-2.114.252l.028-2.016a21.613,21.613,0,0,1-4.578.518c-1.946,0-2.912-.532-2.912-1.54,0-.98.784-1.778,1.946-2.548A41.44,41.44,0,0,1-3.724-7.406c.518-.266.966-.5,1.386-.756L-3.3-9.786a8.748,8.748,0,0,1-1.3.854c-.658.378-1.876.98-3.024,1.652A33.255,33.255,0,0,1-9.38-11.158ZM.8-9.632H3.416v1.554H.994C.91-6.566.742-4.676.546-3.458L2-3.234l.084-.672h1.33C3.3-1.694,3.164-.77,2.94-.546a.515.515,0,0,1-.49.168c-.28,0-.854,0-1.456-.056A4.289,4.289,0,0,1,1.5,1.2a12.2,12.2,0,0,0,1.694-.042A1.542,1.542,0,0,0,4.256.6c.406-.5.56-1.918.7-5.306.014-.21.028-.63.028-.63H2.226c.042-.406.07-.826.112-1.246H4.984V-11.1H.8ZM7.07-4.06V-5.348H8.386V-4.06Zm4.27-1.288V-4.06H9.982V-5.348ZM13.734.644a11.954,11.954,0,0,0-1.876-3.22l-1.344.56c.21.294.42.6.616.924l-1.148.084V-2.7h2.94V-6.72H9.982v-1.2c.588-.042,1.176-.1,1.764-.14a5.265,5.265,0,0,1,.392.812l1.5-.686a12.62,12.62,0,0,0-2.058-3l-1.4.616c.224.266.462.574.672.868-.9.056-1.792.1-2.646.14.434-.672.9-1.428,1.288-2.156L7.7-11.872A17.257,17.257,0,0,1,6.454-9.226L5.222-9.17l.224,1.554c.854-.056,1.862-.112,2.94-.2V-6.72H5.572V-2.7H8.386V-.9c-1.26.084-2.422.154-3.346.182L5.236.9C7.042.77,9.534.588,11.928.378a5.926,5.926,0,0,1,.35.91ZM17.64-10.01l-2.156-.028A8.51,8.51,0,0,1,15.6-8.61c0,.854.014,2.492.154,3.78C16.142-1.078,17.472.308,19.012.308c1.12,0,2-.854,2.926-3.29l-1.4-1.708c-.266,1.12-.826,2.758-1.484,2.758-.882,0-1.3-1.386-1.5-3.4-.084-1.008-.1-2.058-.084-2.968A11.327,11.327,0,0,1,17.64-10.01Zm7,.322-1.778.574c1.526,1.736,2.268,5.138,2.492,7.392l1.834-.714A15.556,15.556,0,0,0,24.64-9.688ZM41.272-7.98h-5.4V-8.5h4.2V-9.506h-4.2v-.5H40.7V-11.1h-4.83v-.756H34.16v.756H29.526v1.092H34.16v.5H30.17V-8.5h3.99v.518H28.728v1.148H41.272ZM32.018-2.422h6.076v.588H32.018Zm0-1.484h6.076v.56H32.018Zm0-1.484h6.076v.56H32.018Zm7.77,4.522V-6.342h-9.38V-.868h1.834A18.837,18.837,0,0,1,28.63.07a10.757,10.757,0,0,1,1.2,1.19A17.892,17.892,0,0,0,34.2-.406L33.18-.868h3.71l-1.12.616a25.372,25.372,0,0,1,3.584,1.47l2-.742C40.474.1,39.046-.434,37.73-.868Zm15.68-3.57v-1.61h-3.5V-9.464a23.183,23.183,0,0,0,3.164-.8l-1.218-1.4A36.843,36.843,0,0,1,46.9-10.178c.182-.378.336-.742.49-1.12l-1.652-.518a14.571,14.571,0,0,1-3.5,5.39,13.016,13.016,0,0,1,.98,1.75,13.046,13.046,0,0,0,1.134-1.288V1.2h1.666v-9.66a15.9,15.9,0,0,0,.868-1.68,6.5,6.5,0,0,1,.476,1.386c.938-.112,1.932-.238,2.912-.406v3.108H46.48v1.61h3.794V-.854H47.04v1.6h8.288v-1.6h-3.36V-4.438Zm6.65-.476H60.844V-5.8h1.274ZM59.136-9.24h4.606a14.361,14.361,0,0,0,1.05,3.6,8.05,8.05,0,0,1-1.316,1.078v-2.3H59.514v3.024h2.772l-.952.8A8.525,8.525,0,0,1,63.42-1.33l1.148-.98A7.989,7.989,0,0,0,62.58-3.836h.9v-.252a6.6,6.6,0,0,1,.826.882,9.435,9.435,0,0,0,1.316-1.078,2.749,2.749,0,0,0,2.114,1.2c1.106,0,1.6-.462,1.834-2.45a3.983,3.983,0,0,1-1.26-.728c-.07,1.2-.182,1.666-.49,1.68-.392,0-.784-.322-1.162-.882a11.454,11.454,0,0,0,1.624-3.066l-1.54-.364a8.541,8.541,0,0,1-.854,1.848,14.748,14.748,0,0,1-.574-2.2h3.808v-1.316H67.83l.42-.5a6.607,6.607,0,0,0-1.946-.924l-.826.91a10.178,10.178,0,0,1,1.134.518h-1.5c-.042-.42-.07-.868-.084-1.3H63.476q.021.651.084,1.3H57.61v2.1A7.449,7.449,0,0,1,56.336-3.7a5.488,5.488,0,0,1,1.2,1.008c1.33-1.582,1.6-4.018,1.6-5.74Zm4.438.644H59.458v1.064h4.116ZM57.834.924a5.746,5.746,0,0,0,1.82-3.066L58.17-2.674A5.126,5.126,0,0,1,56.462,0Zm4.62-1.372c-.644,0-.756-.042-.756-.42V-2.66H60.046V-.854c0,1.442.42,1.89,2.226,1.89h2.24c1.358,0,1.82-.42,2-2.142a4.358,4.358,0,0,1-1.456-.588c-.07,1.106-.168,1.246-.7,1.246Zm3.458-1.736A9.435,9.435,0,0,1,68.04.784L69.552.028a9.36,9.36,0,0,0-2.24-2.912ZM76.8-11.228l-1.848-.154a7.783,7.783,0,0,1-.28,1.61H74A18.216,18.216,0,0,1,71.54-9.94V-8.3c.77.056,1.792.084,2.366.084h.182a13.739,13.739,0,0,1-3.094,3.864l1.5,1.12a16.12,16.12,0,0,1,1.3-1.54,3.41,3.41,0,0,1,2.184-.966,1.077,1.077,0,0,1,.98.476c-1.6.826-3.276,1.946-3.276,3.738S75.306.812,77.5.812A35.022,35.022,0,0,0,81.466.574l.056-1.806a22.9,22.9,0,0,1-3.976.392c-1.372,0-2.03-.21-2.03-.98,0-.7.56-1.246,1.61-1.848-.014.616-.028,1.288-.07,1.708h1.68c-.014-.644-.042-1.68-.056-2.464.854-.392,1.652-.7,2.282-.952.476-.182,1.218-.462,1.666-.588l-.7-1.624c-.518.266-1.008.49-1.554.728-.574.252-1.162.49-1.89.826a1.9,1.9,0,0,0-1.862-1.078,4.744,4.744,0,0,0-1.582.28,9.775,9.775,0,0,0,.8-1.428A41.7,41.7,0,0,0,80.4-8.61l.014-1.624a35.444,35.444,0,0,1-3.962.406A13.394,13.394,0,0,0,76.8-11.228ZM-92.68,24.078l-1.106.308V22.328h1.19v-1.54h-1.19V18.156h-1.526v2.632h-1.582v1.54h1.582v2.45c-.686.168-1.3.322-1.806.448l.364,1.6,1.442-.42v2.954c0,.182-.07.238-.238.238a11.313,11.313,0,0,1-1.162-.014,5.7,5.7,0,0,1,.434,1.54,3.52,3.52,0,0,0,1.918-.308c.434-.266.574-.672.574-1.442v-3.4c.448-.126.882-.266,1.316-.392Zm1.19,3.318a11.015,11.015,0,0,1,1.47,2.45l1.414-.812a10.875,10.875,0,0,0-1.568-2.38Zm7.6-3.416V22.468h-3.444V21.25H-84.5V19.738h-2.828V18.212h-1.582v1.526h-2.87V21.25h2.87v1.218h-3.472V23.98h5.278v1.106H-92.26V26.6h5.152v2.828c0,.2-.056.238-.28.238s-.938.014-1.568-.014a7.2,7.2,0,0,1,.476,1.568,5.768,5.768,0,0,0,2.254-.266c.546-.252.7-.658.7-1.5V26.6h1.54V25.086h-1.54V23.98Zm2.45.1.728,1.82c1.19-.5,3.99-1.666,5.614-1.666a1.8,1.8,0,0,1,2,1.778c0,1.9-2.352,2.758-5.558,2.842l.742,1.722c4.452-.28,6.678-2,6.678-4.536,0-2.114-1.484-3.43-3.7-3.43A19.722,19.722,0,0,0-79.954,23.7C-80.374,23.826-81.018,23.994-81.438,24.078Zm12.292-3.71.182,1.918c1.624-.35,4.48-.658,5.8-.8a5.638,5.638,0,0,0-2.072,4.326c0,3.024,2.772,4.606,5.7,4.8l.658-1.918c-2.366-.126-4.522-.966-4.522-3.262A4.258,4.258,0,0,1-60.452,21.5a15.843,15.843,0,0,1,2.7-.182l-.014-1.792c-.98.028-2.52.126-3.962.238-2.562.224-4.872.434-6.034.532C-68.04,20.326-68.586,20.354-69.146,20.368Zm18.69-1.736h-1.932a11.267,11.267,0,0,1,.1,1.232c0,.238,0,.644-.014,1.134-.28.014-.56.028-.812.028a15.524,15.524,0,0,1-1.932-.112l.028,1.694a17.164,17.164,0,0,0,1.96.07c.224,0,.476-.014.742-.028v1.176c0,.322,0,.658.014.994-1.722.742-3.122,2.016-3.122,3.234,0,1.484,1.918,2.66,3.276,2.66.924,0,1.54-.462,1.54-2.2,0-.476-.028-1.568-.056-2.674a9.439,9.439,0,0,1,2.632-.392c1.218,0,2.058.56,2.058,1.512,0,1.022-.9,1.582-2.03,1.792a10.78,10.78,0,0,1-1.722.1l.644,1.806a12.819,12.819,0,0,0,1.834-.224c2.226-.56,3.094-1.806,3.094-3.458,0-1.932-1.694-3.052-3.85-3.052a11.6,11.6,0,0,0-2.688.364V23.77c0-.406,0-.84.014-1.26.91-.112,1.876-.252,2.674-.434l-.042-1.736a17.146,17.146,0,0,1-2.576.5c.014-.35.028-.686.042-.994C-50.554,19.486-50.5,18.884-50.456,18.632Zm3.99,1.512-.77,1.358a22.275,22.275,0,0,1,3.374,2.044l.84-1.428A29.255,29.255,0,0,0-46.466,20.144Zm-7.238,7.84c0-.49.574-1.064,1.428-1.526.028.756.042,1.4.042,1.75,0,.476-.2.588-.448.588C-53.046,28.8-53.7,28.418-53.7,27.984Zm15.918-1.134a16.688,16.688,0,0,0,2.156-.938,15.205,15.205,0,0,0,2.394.938Zm-.084,2.562v-1.19h4.662v1.19Zm.672-6.468h3.108a8.05,8.05,0,0,1-1.54,1.2A8.094,8.094,0,0,1-37.268,23Zm4.522-1.316-.28.07h-3.052c.154-.2.308-.392.448-.588l-1.554-.308h5.852v1.554h1.708V19.29h-5.194V18.156h-1.708V19.29h-5.11v3.066h1.638V20.8h2.576a8.138,8.138,0,0,1-3.934,2.814,4.658,4.658,0,0,1,1.106,1.232,13.956,13.956,0,0,0,1.708-.938,11.384,11.384,0,0,0,1.26,1.05,19.912,19.912,0,0,1-4.914,1.386,5.531,5.531,0,0,1,.77,1.484c.63-.126,1.246-.266,1.862-.434v3.822h1.624v-.434h4.662v.406h1.722V27.3c.462.084.938.168,1.428.238a8.161,8.161,0,0,1,1.05-1.61,21.361,21.361,0,0,1-4.956-1.05A8.955,8.955,0,0,0-31.556,22.3Zm9.6,3.99c-.238-.378-1.246-1.918-1.624-2.436v-.616h1.4v-1.54h-1.4V18.142h-1.512v2.884h-1.68v1.54h1.554a14,14,0,0,1-1.876,4.69,7.988,7.988,0,0,1,.728,1.47,11.81,11.81,0,0,0,1.274-2.758V31.2H-24.7V25.17c.308.6.6,1.232.77,1.638Zm2.534,1.736c-1.19.616-2.422,1.246-3.248,1.624l.714,1.4c.9-.49,1.988-1.106,2.968-1.68Zm-2.45-1.526a9.814,9.814,0,0,1,1.33,1.792l1.19-.84a9.59,9.59,0,0,0-1.386-1.694Zm6.566-.784a11.02,11.02,0,0,1-1.358,1.512,7.6,7.6,0,0,1-.574-1.232v-.546h3.262V23.42h-3.262V22.8h2.716V21.558h-2.716V21h3.01V19.7H-16.7c.224-.35.476-.77.728-1.19l-1.652-.378c-.14.448-.42,1.092-.63,1.568h-1.736a7.744,7.744,0,0,0-.8-1.54l-1.316.448A7.947,7.947,0,0,1-21.56,19.7h-1.428V21h3.024v.56H-22.61V22.8h2.646v.616h-3.29v1.358h3.29v4.774c0,.168-.056.238-.224.238s-.714,0-1.19-.028a5.179,5.179,0,0,1,.448,1.484,4.566,4.566,0,0,0,1.988-.28c.448-.252.588-.644.588-1.4V28.11a6.64,6.64,0,0,0,2.478,2.464,6.2,6.2,0,0,1,1.05-1.344,5.851,5.851,0,0,1-2.184-1.582,22.534,22.534,0,0,0,1.848-1.722Zm14.84.028a5.331,5.331,0,0,0-5.656-5.46A6.22,6.22,0,0,0-13.664,25.6c0,2.366,1.288,4.074,2.842,4.074,1.526,0,2.73-1.736,3.57-4.564a28.313,28.313,0,0,0,.84-3.794,3.461,3.461,0,0,1,2.94,3.7,3.8,3.8,0,0,1-3.192,3.752,10.768,10.768,0,0,1-1.3.224l1.05,1.666C-3.388,30.112-1.582,28.026-1.582,25.072Zm-10.29.35a4.407,4.407,0,0,1,3.556-4.06,21.014,21.014,0,0,1-.742,3.388c-.574,1.89-1.12,2.772-1.708,2.772C-11.312,27.522-11.872,26.836-11.872,25.422Zm14.532.07H4.4v.952H2.66ZM4.4,21.25v.812H2.66V21.25ZM2.66,23.336H4.4v.882H2.66Zm4.116,3.108H5.922V21.25h.952V19.794H5.922V18.31H4.4v1.484H2.66V18.31h-1.5v1.484H.07V21.25H1.162v5.194H-.1V27.9H6.776ZM1.638,28A6.478,6.478,0,0,1-.21,30.266a9.4,9.4,0,0,1,1.33.994,9.848,9.848,0,0,0,2.072-2.8ZM8.89,25.1c.014-.434.014-.84.014-1.2v-.518H10.92V25.1Zm2.03-4.83v1.638H8.9V20.27Zm1.61-1.512H7.35V23.9a14.909,14.909,0,0,1-.882,5.936,15.252,15.252,0,0,0-1.512-1.9l-1.26.686a13.919,13.919,0,0,1,1.5,2.114l1.162-.658c-.042.084-.1.154-.14.238a4.81,4.81,0,0,1,1.316.938,11.49,11.49,0,0,0,1.26-4.662H10.92v2.758c0,.224-.07.294-.28.294s-.868.014-1.47-.028a6.032,6.032,0,0,1,.476,1.582,4.811,4.811,0,0,0,2.24-.294c.49-.266.644-.7.644-1.526Zm4.214-.588a9.773,9.773,0,0,1-2.87,2.73,9.652,9.652,0,0,1,.812,1.414,14.35,14.35,0,0,0,3.626-3.5ZM18.956,27.4a10.78,10.78,0,0,1,1.54,2.45l1.456-.784a10.681,10.681,0,0,0-1.638-2.38ZM27.02,23.98V22.468H23.338V21.25h3.024V19.738H23.338V18.212H21.686v1.526h-2.87V21.25h2.87v1.218H18.158c.14-.21.266-.42.392-.616l-1.456-.63a12.518,12.518,0,0,1-3.36,3.6,13.217,13.217,0,0,1,.784,1.722,13.372,13.372,0,0,0,1.26-1.148V31.2h1.6V23.56c.238-.294.448-.6.658-.9V23.98H23.59v1.106H18.172V26.6H23.59v2.828c0,.2-.07.238-.28.238s-.994.014-1.68-.014a6.644,6.644,0,0,1,.518,1.568,6.449,6.449,0,0,0,2.38-.266c.56-.252.728-.658.728-1.5V26.6h1.638V25.086H25.256V23.98Zm6.692-3.766v1.792a37.575,37.575,0,0,0,6.02,0V20.2A28.788,28.788,0,0,1,33.712,20.214Zm1.12,5.978-1.61-.154a8.553,8.553,0,0,0-.238,1.82c0,1.442,1.162,2.3,3.57,2.3a19.827,19.827,0,0,0,3.612-.266L40.138,28a16.549,16.549,0,0,1-3.514.364c-1.428,0-1.96-.378-1.96-.994A4.752,4.752,0,0,1,34.832,26.192Zm-3.276-6.916-1.96-.168c-.014.448-.1.98-.14,1.372a39.038,39.038,0,0,0-.588,5.544,17.9,17.9,0,0,0,.546,4.578l1.624-.112c-.014-.2-.028-.42-.028-.574a4.225,4.225,0,0,1,.07-.658c.154-.742.616-2.268,1.008-3.43l-.868-.686c-.2.462-.42.952-.63,1.428a6.755,6.755,0,0,1-.056-.91,37.132,37.132,0,0,1,.672-5.138C31.262,20.27,31.444,19.57,31.556,19.276Zm13.132,2.072H54.8V19.766H49.742v-1.61H48.006v1.61H43.022v3.528c0,2.016-.1,4.956-1.246,6.958a7.733,7.733,0,0,1,1.442.938c1.26-2.184,1.47-5.642,1.47-7.9Zm7.35,2.072a17.633,17.633,0,0,0-3.388-2.03l-1.106,1.092a16.15,16.15,0,0,1,3.29,2.184ZM45.92,30a12.892,12.892,0,0,0,1.036-4.578l-1.5-.322a11.59,11.59,0,0,1-1.022,4.242Zm3.626-.532c-.392,0-.448-.07-.448-.574V24.022H47.446v4.886c0,1.554.35,2.044,1.834,2.044h1.554c1.3,0,1.722-.672,1.876-3.066a4.382,4.382,0,0,1-1.47-.672c-.056,1.932-.14,2.254-.56,2.254ZM51.8,25.31a16.645,16.645,0,0,1,1.708,4.676l1.638-.672a16.68,16.68,0,0,0-1.862-4.578Zm8.008-6.664-.266,1.624c1.666.28,4.284.588,5.754.7l.224-1.638C64.064,19.234,61.376,18.94,59.808,18.646Zm6.2,4.452-1.022-1.162a4.487,4.487,0,0,1-.8.154c-1.162.154-4.34.294-5,.294a12.391,12.391,0,0,1-1.344-.042l.168,1.932c.294-.042.714-.112,1.2-.154.8-.07,2.478-.224,3.458-.252-1.274,1.344-4.144,4.2-4.858,4.928-.378.364-.714.658-.966.868l1.652,1.162c.966-1.232,2.016-2.38,2.492-2.87a1.486,1.486,0,0,1,.924-.56c.28,0,.588.182.742.672.1.35.266,1.008.406,1.428.35.91,1.064,1.2,2.394,1.2a20.445,20.445,0,0,0,2.744-.21l.112-1.834a14.438,14.438,0,0,1-2.744.252.89.89,0,0,1-.98-.658c-.126-.364-.28-.9-.406-1.274a1.329,1.329,0,0,0-.84-.952,1.537,1.537,0,0,0-.532-.1c.336-.364,1.638-1.568,2.282-2.114C65.352,23.6,65.646,23.35,66.01,23.1Zm7.406,5.32c0-.476.546-.868,1.54-.868a7.775,7.775,0,0,1,1.148.1c.014.252.014.448.014.6,0,.812-.49,1.022-1.232,1.022C73.92,29.272,73.416,28.95,73.416,28.418ZM77.8,18.674h-1.89a5.628,5.628,0,0,1,.084.966V20.3h-.546a26.137,26.137,0,0,1-3.458-.308l.042,1.6a32.183,32.183,0,0,0,3.43.252h.518c-.014.476-.014.98-.014,1.442h-.672a24.739,24.739,0,0,1-3.374-.266l.014,1.652c.924.112,2.52.182,3.332.182h.728c.014.42.028.868.056,1.3-.28-.028-.574-.042-.868-.042-2.156,0-3.458.994-3.458,2.408,0,1.484,1.176,2.338,3.416,2.338,1.848,0,2.758-.924,2.758-2.114,0-.154,0-.322-.014-.518a10.731,10.731,0,0,1,2.828,1.946L81.718,28.6a10.961,10.961,0,0,0-3.92-2.114c-.042-.56-.07-1.134-.1-1.666,1.344-.042,2.436-.14,3.7-.28l.014-1.652c-1.134.154-2.324.266-3.738.336V21.782c1.358-.07,2.632-.2,3.556-.308l.014-1.61a29.342,29.342,0,0,1-3.542.378c0-.224,0-.434.014-.574A9.455,9.455,0,0,1,77.8,18.674Zm14.784.042h-2.03a10.159,10.159,0,0,1,.14,1.218c.014.112.014.252.028.434-1.9.028-4.452.084-6.048.084l.042,1.694c1.722-.1,3.906-.182,6.02-.21.014.308.014.63.014.938a3.633,3.633,0,0,0-.56-.042,2.641,2.641,0,0,0-2.8,2.618A2.47,2.47,0,0,0,89.8,28.026a2.993,2.993,0,0,0,.63-.07,6.291,6.291,0,0,1-3.416,1.6l1.5,1.484c3.416-.952,4.48-3.276,4.48-5.1a3.563,3.563,0,0,0-.5-1.918c0-.616-.014-1.386-.014-2.1,1.9,0,3.206.028,4.046.07l.014-1.652c-.728-.014-2.646.014-4.06.014.014-.168.014-.322.014-.434C92.5,19.7,92.554,18.94,92.582,18.716Zm-3.514,6.706a1.054,1.054,0,0,1,1.078-1.12,1.032,1.032,0,0,1,.91.49c.2,1.232-.322,1.68-.91,1.68A1.045,1.045,0,0,1,89.068,25.422Z" transform="translate(960 2860)" fill="#fff"/>
  </g>
</svg>
