<svg xmlns="http://www.w3.org/2000/svg" width="68.867" height="48.422" viewBox="0 0 68.867 48.422">
  <path id="Icon_awesome-youtube" data-name="Icon awesome-youtube" d="M68.011,10.076a8.653,8.653,0,0,0-6.089-6.128C56.552,2.5,35.017,2.5,35.017,2.5S13.482,2.5,8.111,3.948a8.653,8.653,0,0,0-6.089,6.128C.583,15.482.583,26.76.583,26.76s0,11.278,1.439,16.684a8.524,8.524,0,0,0,6.089,6.03c5.371,1.448,26.906,1.448,26.906,1.448s21.535,0,26.906-1.448a8.524,8.524,0,0,0,6.089-6.03C69.45,38.038,69.45,26.76,69.45,26.76s0-11.278-1.439-16.684ZM27.973,37V16.52l18,10.24L27.973,37Z" transform="translate(-0.583 -2.5)" fill="#fff"/>
</svg>
