<svg id="Layer_1" data-name="Layer 1" xmlns="http://www.w3.org/2000/svg" width="214.93" height="214.896" viewBox="0 0 214.93 214.896">
  <g id="Group_2" data-name="Group 2" transform="translate(0 0)">
    <path id="Path_2" data-name="Path 2" d="M19.694,42.24a7.561,7.561,0,0,0,1.787-1.1A7.819,7.819,0,0,0,22.953,39.6a3.046,3.046,0,0,0,.672-1.7,1.469,1.469,0,0,0-1.386-1.472,1.9,1.9,0,0,0-.915.3,11,11,0,0,0-1.343.943,7.175,7.175,0,0,1-3.016,1.586,3.32,3.32,0,0,1-2.5-.643,3.642,3.642,0,0,1-1.343-1.658,3.714,3.714,0,0,1-.143-2.1,6.125,6.125,0,0,1,1.058-2.3,8.35,8.35,0,0,1,1.444-1.572,6.255,6.255,0,0,1,1.644-1.058l1.572,1.572a6.52,6.52,0,0,0-1.529.943,6.685,6.685,0,0,0-1.243,1.315,2.68,2.68,0,0,0-.586,1.529,1.309,1.309,0,0,0,.586,1.1,1.222,1.222,0,0,0,.7.243,1.824,1.824,0,0,0,.843-.243,8.947,8.947,0,0,0,1.215-.815,11.414,11.414,0,0,1,2.287-1.458,3.641,3.641,0,0,1,1.844-.372,3.3,3.3,0,0,1,1.658.643,3.578,3.578,0,0,1,1.644,2.787,5.771,5.771,0,0,1-1.243,3.63A11.115,11.115,0,0,1,23.8,42.083a9.054,9.054,0,0,1-1.215,1.058,5.439,5.439,0,0,1-1.158.657l-1.715-1.529Z" transform="translate(5.547 12.843)" fill="#151618"/>
    <path id="Path_3" data-name="Path 3" d="M17.32,28.777,20.25,25.5a5.824,5.824,0,0,1,2.1-1.558,3.9,3.9,0,0,1,2.23-.257,4.26,4.26,0,0,1,2.1,1.086A4.372,4.372,0,0,1,28,26.748a3.994,3.994,0,0,1,0,2.244,6.063,6.063,0,0,1-1.329,2.273l-1.172,1.3,3.316,2.959-1.744,1.958-9.7-8.69Zm7.518,1.4c1.143-1.272,1.158-2.415.057-3.4s-2.23-.843-3.373.429l-.886,1,3.316,2.973Z" transform="translate(7.449 10.141)" fill="#151618"/>
    <path id="Path_4" data-name="Path 4" d="M24.824,20.035,27,18.12,39.5,24.48,37.316,26.41,34.2,24.666,30.284,28.11l1.329,3.3-2.058,1.815L24.81,20.035Zm7.4,3.53-4.845-2.7,2.072,5.145,2.773-2.444Z" transform="translate(10.664 7.778)" fill="#151618"/>
    <path id="Path_5" data-name="Path 5" d="M35.621,24.595a6.929,6.929,0,0,1-2.673-2.43,6.922,6.922,0,0,1-1.1-2.558,6.377,6.377,0,0,1,.014-2.6,6.672,6.672,0,0,1,1.086-2.415,7.88,7.88,0,0,1,2.1-2.015,9.089,9.089,0,0,1,1.972-.986,6.907,6.907,0,0,1,2-.429l.915,2.172a8.21,8.21,0,0,0-3.459,1.229,4.618,4.618,0,0,0-1.586,1.715,3.739,3.739,0,0,0-.414,2.072,4.434,4.434,0,0,0,.815,2.158,4.647,4.647,0,0,0,1.7,1.572,3.572,3.572,0,0,0,2.072.372,5,5,0,0,0,2.187-.858,7.575,7.575,0,0,0,1.415-1.272,9,9,0,0,0,1.172-1.658l1.6,1.815a8.181,8.181,0,0,1-1.258,1.758,9.759,9.759,0,0,1-1.744,1.515,7.85,7.85,0,0,1-3.516,1.372,5.81,5.81,0,0,1-3.3-.572Z" transform="translate(13.631 4.79)" fill="#151618"/>
    <path id="Path_6" data-name="Path 6" d="M38.839,10.542l7.747-3.9.958,1.915L42.083,11.3l1.429,2.844L48.357,11.7l.958,1.915L44.47,16.059,46,19.1l5.688-2.858.958,1.915L44.67,22.176,38.81,10.528Z" transform="translate(16.673 2.85)" fill="#151618"/>
    <path id="Path_7" data-name="Path 7" d="M51.837,13.983a6.846,6.846,0,0,1-1.258-2.444,6.82,6.82,0,0,1-.257-2.716,6.6,6.6,0,0,1,.8-2.487,6.784,6.784,0,0,1,1.715-2.015,7.567,7.567,0,0,1,5.245-1.572,6.586,6.586,0,0,1,2.515.743,6.754,6.754,0,0,1,2.015,1.644,6.9,6.9,0,0,1,1.258,2.458,6.82,6.82,0,0,1,.257,2.716,6.6,6.6,0,0,1-.8,2.487,6.713,6.713,0,0,1-1.7,2,7.371,7.371,0,0,1-2.473,1.272,7.272,7.272,0,0,1-2.787.3,6.586,6.586,0,0,1-2.515-.743,6.374,6.374,0,0,1-2-1.658Zm9.276-5.574a4.526,4.526,0,0,0-1.143-2A3.8,3.8,0,0,0,58.154,5.35a4.23,4.23,0,0,0-4.03,1.186,3.816,3.816,0,0,0-.943,1.887,4.73,4.73,0,0,0,.143,2.3,4.691,4.691,0,0,0,1.143,2A3.943,3.943,0,0,0,56.282,13.8a4.23,4.23,0,0,0,4.03-1.186,3.816,3.816,0,0,0,.943-1.887,4.73,4.73,0,0,0-.143-2.3Z" transform="translate(21.598 1.167)" fill="#151618"/>
    <path id="Path_8" data-name="Path 8" d="M61.19,1.705l2.4-.314,7.775,8.047L70.18.519,72.667.19,74.4,13.11l-2.4.314L64.249,5.407l1.186,8.89-2.5.329L61.2,1.705Z" transform="translate(26.28 0.082)" fill="#151618"/>
    <path id="Path_9" data-name="Path 9" d="M72.46,0l8.676.143-.029,2.144-6.1-.1-.057,3.187,5.417.086L80.335,7.6l-5.417-.086-.057,3.416,6.36.1-.029,2.144-8.933-.143L72.474,0Z" transform="translate(31.032 0)" fill="#151618"/>
    <path id="Path_10" data-name="Path 10" d="M82.9,10.166a7.214,7.214,0,0,0,1.772,1.115,7.334,7.334,0,0,0,2.044.643,3.173,3.173,0,0,0,1.815-.143,1.354,1.354,0,0,0,.8-1.086,1.464,1.464,0,0,0-.1-.8,2.163,2.163,0,0,0-.672-.7,8.383,8.383,0,0,0-1.444-.786,7.223,7.223,0,0,1-2.758-2,3.331,3.331,0,0,1-.529-2.53,3.562,3.562,0,0,1,.886-1.929A3.721,3.721,0,0,1,86.549.89,6.232,6.232,0,0,1,89.093.819a8.866,8.866,0,0,1,2.058.586,6.246,6.246,0,0,1,1.672,1L92.109,4.52A6.9,6.9,0,0,0,88.85,3.034a2.8,2.8,0,0,0-1.629.143,1.3,1.3,0,0,0-.729,1.015,1.359,1.359,0,0,0,.086.729,1.768,1.768,0,0,0,.6.643,9.012,9.012,0,0,0,1.272.729,10.927,10.927,0,0,1,2.315,1.4A4.021,4.021,0,0,1,91.923,9.18a3.306,3.306,0,0,1,.157,1.772,3.569,3.569,0,0,1-1.772,2.7,5.7,5.7,0,0,1-3.8.486,9.674,9.674,0,0,1-1.629-.4,8.3,8.3,0,0,1-1.486-.629,5.28,5.28,0,0,1-1.1-.758l.6-2.215Z" transform="translate(35.337 0.311)" fill="#151618"/>
    <path id="Path_11" data-name="Path 11" d="M93.785,2.049l8.347,2.344-.586,2.058L95.671,4.793l-.858,3.073,5.217,1.472L99.444,11.4,94.228,9.924,93.3,13.211l6.131,1.715-.586,2.058-8.6-2.415L93.77,2.02Z" transform="translate(38.75 0.867)" fill="#151618"/>
    <path id="Path_12" data-name="Path 12" d="M102.79,4.61,106.806,6.3a6.028,6.028,0,0,1,2.2,1.486,3.948,3.948,0,0,1,.986,2,4.256,4.256,0,0,1-.343,2.33,3.633,3.633,0,0,1-1.358,1.687,4.65,4.65,0,0,1-1.944.757L107.42,20.7l-2.83-1.186-.7-5.245s-.114-.043-.172-.071l-1.8-.758-1.772,4.2L97.73,16.63Zm1.129,7.432c1.6.672,2.687.343,3.244-1s.057-2.315-1.5-2.973L104.4,7.54l-1.687,4,1.2.5Z" transform="translate(41.965 1.979)" fill="#151618"/>
    <path id="Path_13" data-name="Path 13" d="M109.305,7.73l2.644,1.515-2.144,10.491,7.975-7.146,2.573,1.472-10.762,8.847-2.5-1.429L109.305,7.73Z" transform="translate(45.982 3.318)" fill="#151618"/>
    <path id="Path_14" data-name="Path 14" d="M120.221,13.38l2.244,1.6L114.9,25.6,112.66,24Z" transform="translate(48.373 5.743)" fill="#151618"/>
    <path id="Path_15" data-name="Path 15" d="M117.3,23.221a6.818,6.818,0,0,1,1.644-3.2,6.924,6.924,0,0,1,2.187-1.729,6.262,6.262,0,0,1,2.515-.657,6.452,6.452,0,0,1,2.616.429,8.089,8.089,0,0,1,2.487,1.5,9.076,9.076,0,0,1,1.472,1.644,7.06,7.06,0,0,1,.929,1.815l-1.872,1.444a8.264,8.264,0,0,0-2.087-3.016,4.655,4.655,0,0,0-2.058-1.086,3.684,3.684,0,0,0-2.115.143,4.622,4.622,0,0,0-1.872,1.343,4.48,4.48,0,0,0-1.072,2.058,3.767,3.767,0,0,0,.172,2.1,4.931,4.931,0,0,0,1.4,1.9,7.606,7.606,0,0,0,1.586,1.029,8.465,8.465,0,0,0,1.9.686l-1.343,2.015a8.438,8.438,0,0,1-2.03-.758,9.231,9.231,0,0,1-1.915-1.3,8.047,8.047,0,0,1-2.244-3.03,5.846,5.846,0,0,1-.314-3.344Z" transform="translate(50.31 7.565)" fill="#151618"/>
    <path id="Path_16" data-name="Path 16" d="M132.139,22.87l5.788,6.474-1.6,1.429-4.073-4.545-2.373,2.13L133.5,32.4l-1.6,1.429-3.616-4.045-2.544,2.273,4.245,4.745-1.6,1.429-5.96-6.66,9.719-8.69Z" transform="translate(52.563 9.817)" fill="#151618"/>
    <path id="Path_17" data-name="Path 17" d="M135.586,43.128a7.125,7.125,0,0,0,.114,2.1,7.972,7.972,0,0,0,.657,2.044,3.109,3.109,0,0,0,1.172,1.4,1.475,1.475,0,0,0,1.958-.515,1.964,1.964,0,0,0,.186-.958,10.851,10.851,0,0,0-.186-1.629,7.148,7.148,0,0,1,.043-3.4,3.217,3.217,0,0,1,1.772-1.887,3.7,3.7,0,0,1,2.1-.386,3.625,3.625,0,0,1,1.915.886,6.136,6.136,0,0,1,1.515,2.03,8.854,8.854,0,0,1,.7,2.015,6.215,6.215,0,0,1,.143,1.944l-2.13.629a6.535,6.535,0,0,0-.1-1.8,7.319,7.319,0,0,0-.557-1.715,2.68,2.68,0,0,0-1.058-1.243,1.282,1.282,0,0,0-1.243,0,1.209,1.209,0,0,0-.543.486,1.736,1.736,0,0,0-.186.858,10.974,10.974,0,0,0,.129,1.458,11.1,11.1,0,0,1,.186,2.7,3.725,3.725,0,0,1-.557,1.8,3.275,3.275,0,0,1-1.358,1.143,3.585,3.585,0,0,1-3.23.114,5.632,5.632,0,0,1-2.587-2.83,10.7,10.7,0,0,1-.615-1.558,8.427,8.427,0,0,1-.343-1.572,5.206,5.206,0,0,1-.014-1.329l2.158-.786Z" transform="translate(57.291 17.115)" fill="#151618"/>
    <path id="Path_18" data-name="Path 18" d="M148.707,47.25l1.472,4.131a5.866,5.866,0,0,1,.372,2.587,3.919,3.919,0,0,1-.829,2.087,4.141,4.141,0,0,1-1.958,1.315,4.387,4.387,0,0,1-2.358.214,3.874,3.874,0,0,1-1.972-1.086,5.848,5.848,0,0,1-1.358-2.258L141.49,52.6,137.3,54.082l-.872-2.473Zm-4.831,5.917q.858,2.423,2.959,1.672t1.243-3.173l-.443-1.258-4.2,1.486.443,1.258Z" transform="translate(58.577 20.282)" fill="#151618"/>
    <path id="Path_19" data-name="Path 19" d="M152.409,58.238l.643,2.83-11.577,7.918-.643-2.844,3.016-1.887L142.7,59.167l-3.545-.414-.6-2.673,13.849,2.172Zm-6.66,4.8,4.7-2.959-5.517-.657Z" transform="translate(59.491 24.072)" fill="#151618"/>
    <path id="Path_20" data-name="Path 20" d="M143.437,65.872a7,7,0,0,1,3.4-1.172,7.375,7.375,0,0,1,2.773.257,5.95,5.95,0,0,1,2.272,1.272,6.784,6.784,0,0,1,1.6,2.115,7.95,7.95,0,0,1,.757,2.8,8.8,8.8,0,0,1-.086,2.2,6.715,6.715,0,0,1-.586,1.958l-2.344-.257a8.229,8.229,0,0,0,.586-3.616,4.682,4.682,0,0,0-.729-2.215,3.635,3.635,0,0,0-1.615-1.358,4.579,4.579,0,0,0-2.287-.329,4.728,4.728,0,0,0-2.2.729,3.7,3.7,0,0,0-1.329,1.629,4.753,4.753,0,0,0-.3,2.33,8.1,8.1,0,0,0,.429,1.844,8.956,8.956,0,0,0,.9,1.815l-2.358.529a8.777,8.777,0,0,1-.943-1.944,9.365,9.365,0,0,1-.486-2.258,7.771,7.771,0,0,1,.486-3.745,5.926,5.926,0,0,1,2.087-2.63Z" transform="translate(60.474 27.758)" fill="#151618"/>
    <path id="Path_21" data-name="Path 21" d="M154.375,74.829l-.286,8.676-2.144-.071.2-6.1-3.187-.1-.186,5.417-2.144-.071.186-5.417-3.416-.114-.214,6.36-2.144-.071.3-8.933,13.02.429Z" transform="translate(60.555 31.936)" fill="#151618"/>
    <path id="Path_22" data-name="Path 22" d="M144.949,85.162a7.118,7.118,0,0,1,2.744.057,6.645,6.645,0,0,1,4.3,2.959,6.767,6.767,0,0,1,.943,2.458,7.191,7.191,0,0,1-.057,2.758,7.337,7.337,0,0,1-1.072,2.587,6.572,6.572,0,0,1-1.858,1.858,6.281,6.281,0,0,1-2.415.972,6.927,6.927,0,0,1-2.758-.057,6.677,6.677,0,0,1-2.5-1.072,6.525,6.525,0,0,1-1.8-1.9,6.868,6.868,0,0,1-.943-2.458,7,7,0,0,1,.071-2.773,7.152,7.152,0,0,1,1.072-2.6,6.713,6.713,0,0,1,1.844-1.858,6.514,6.514,0,0,1,2.415-.972Zm.457,10.805a4.785,4.785,0,0,0,2.3-.043,3.951,3.951,0,0,0,1.8-1.086,4.062,4.062,0,0,0,.986-1.944,3.84,3.84,0,0,0-.114-2.172,3.918,3.918,0,0,0-1.2-1.729,5.054,5.054,0,0,0-4.388-.943,4,4,0,0,0-1.815,1.086,4.062,4.062,0,0,0-.986,1.944,3.839,3.839,0,0,0,.114,2.172,4.037,4.037,0,0,0,1.2,1.729,4.883,4.883,0,0,0,2.087.986Z" transform="translate(59.863 36.51)" fill="#151618"/>
    <path id="Path_23" data-name="Path 23" d="M151.712,99.6l-.872,2.258-10.777,2.973,8.4,3.216-.9,2.344-12.177-4.659.858-2.258L147,100.5l-8.375-3.2.9-2.358L151.7,99.6Z" transform="translate(58.13 40.753)" fill="#151618"/>
    <path id="Path_24" data-name="Path 24" d="M147.29,110.41l-4.173,7.618L141.23,117l2.93-5.36-2.8-1.529-2.6,4.759-1.887-1.029,2.6-4.759-2.987-1.644-3.059,5.588L131.54,112l4.288-7.847,11.434,6.26Z" transform="translate(56.478 44.706)" fill="#151618"/>
    <path id="Path_25" data-name="Path 25" d="M133.123,114.7a8.5,8.5,0,0,0-1.844,1.015,7.664,7.664,0,0,0-1.544,1.486,3.054,3.054,0,0,0-.743,1.672,1.473,1.473,0,0,0,1.329,1.529,1.871,1.871,0,0,0,.929-.257,10.454,10.454,0,0,0,1.386-.886,7.214,7.214,0,0,1,3.073-1.458,3.268,3.268,0,0,1,2.473.758,3.663,3.663,0,0,1,1.272,1.715,3.778,3.778,0,0,1,.057,2.115,6.186,6.186,0,0,1-1.158,2.258,8.361,8.361,0,0,1-1.5,1.515,6.709,6.709,0,0,1-1.686.986l-1.5-1.644a6.013,6.013,0,0,0,1.572-.886,7.277,7.277,0,0,0,1.3-1.258,2.726,2.726,0,0,0,.657-1.5,1.3,1.3,0,0,0-.543-1.129,1.314,1.314,0,0,0-.686-.286,1.645,1.645,0,0,0-.858.214,10.027,10.027,0,0,0-1.243.757,11.638,11.638,0,0,1-2.344,1.358,3.753,3.753,0,0,1-1.858.3,3.428,3.428,0,0,1-1.629-.715,3.583,3.583,0,0,1-1.515-2.844,5.693,5.693,0,0,1,1.4-3.573,11.38,11.38,0,0,1,1.129-1.243,11.185,11.185,0,0,1,1.258-1.015,4.878,4.878,0,0,1,1.186-.6l1.644,1.6Z" transform="translate(54.322 48.539)" fill="#151618"/>
    <path id="Path_26" data-name="Path 26" d="M135.665,128.249l-6.074,6.2-1.529-1.5,4.273-4.359-2.287-2.23-3.788,3.873-1.529-1.5,3.788-3.873-2.444-2.387-4.445,4.545-1.529-1.5,6.246-6.389,9.319,9.119Z" transform="translate(51.567 51.136)" fill="#151618"/>
    <path id="Path_27" data-name="Path 27" d="M129.551,134.826l-3.4,2.716a6.057,6.057,0,0,1-2.344,1.215,3.8,3.8,0,0,1-2.23-.1,4.247,4.247,0,0,1-1.887-1.4,3.812,3.812,0,0,1-.843-2,4.648,4.648,0,0,1,.272-2.072L113.2,131.2l2.4-1.915,4.945,1.9a1.567,1.567,0,0,0,.143-.114l1.529-1.215-2.844-3.559,2.044-1.644,8.132,10.191Zm-7.075-2.558c-1.358,1.086-1.586,2.2-.672,3.33s2.015,1.158,3.33.1l1.072-.858-2.7-3.387-1.015.815Z" transform="translate(48.605 53.506)" fill="#151618"/>
    <path id="Path_28" data-name="Path 28" d="M122.412,139.328l-2.6,1.6-8.2-6.889,2.473,10.419-2.53,1.558-2.63-13.692,2.458-1.515,11.034,8.518Z" transform="translate(46.768 56.15)" fill="#151618"/>
    <path id="Path_29" data-name="Path 29" d="M111.414,145.77l-2.487,1.215-5.717-11.72,2.487-1.215Z" transform="translate(44.317 57.541)" fill="#151618"/>
    <path id="Path_30" data-name="Path 30" d="M105.289,138.15a6.937,6.937,0,0,1,2.03,2.973,7.215,7.215,0,0,1,.472,2.744,6,6,0,0,1-.629,2.515,6.729,6.729,0,0,1-1.629,2.1,8.221,8.221,0,0,1-2.515,1.472,8.7,8.7,0,0,1-2.144.5,6.835,6.835,0,0,1-2.044-.057l-.372-2.33a8.3,8.3,0,0,0,3.645-.386,4.64,4.64,0,0,0,1.944-1.286,3.756,3.756,0,0,0,.886-1.915,4.626,4.626,0,0,0-.286-2.287,4.5,4.5,0,0,0-1.286-1.929,3.579,3.579,0,0,0-1.929-.843,4.7,4.7,0,0,0-2.33.314,8.067,8.067,0,0,0-1.672.9A9.275,9.275,0,0,0,95.9,141.98l-1.129-2.144a8.407,8.407,0,0,1,1.629-1.415,9.4,9.4,0,0,1,2.058-1.072,7.931,7.931,0,0,1,3.73-.515,5.793,5.793,0,0,1,3.087,1.329Z" transform="translate(40.694 58.715)" fill="#151618"/>
    <path id="Path_31" data-name="Path 31" d="M98.733,151.4l-8.447,1.972-.486-2.087,5.946-1.386-.729-3.1-5.274,1.229-.486-2.087,5.274-1.229-.772-3.33-6.2,1.444-.486-2.087,8.7-2.03L98.733,151.4Z" transform="translate(37.389 59.541)" fill="#151618"/>
    <path id="Path_32" data-name="Path 32" d="M78.331,144.409a7.343,7.343,0,0,0-1.9-.915,7.656,7.656,0,0,0-2.1-.4,3.09,3.09,0,0,0-1.787.357,1.356,1.356,0,0,0-.672,1.172,1.49,1.49,0,0,0,.186.786,1.959,1.959,0,0,0,.743.615,10.842,10.842,0,0,0,1.515.615,7.194,7.194,0,0,1,2.973,1.672,3.318,3.318,0,0,1,.815,2.458,3.529,3.529,0,0,1-2.358,3.287,6.032,6.032,0,0,1-2.515.357,8.091,8.091,0,0,1-2.1-.357,6.773,6.773,0,0,1-1.772-.8l.472-2.172a6.609,6.609,0,0,0,1.629.772,6.859,6.859,0,0,0,1.787.329,2.757,2.757,0,0,0,1.6-.329,1.259,1.259,0,0,0,.6-1.086,1.3,1.3,0,0,0-.172-.715,1.772,1.772,0,0,0-.657-.572,9.408,9.408,0,0,0-1.343-.572,11.436,11.436,0,0,1-2.458-1.129,3.774,3.774,0,0,1-1.315-1.344,3.27,3.27,0,0,1-.357-1.744,3.606,3.606,0,0,1,1.444-2.887,5.7,5.7,0,0,1,3.716-.915,11.579,11.579,0,0,1,1.672.2,9.916,9.916,0,0,1,1.558.443,4.488,4.488,0,0,1,1.172.629l-.357,2.272Z" transform="translate(29.691 60.474)" fill="#151618"/>
    <path id="Path_33" data-name="Path 33" d="M68.813,153.752l-4.331-.686a5.857,5.857,0,0,1-2.444-.915,3.884,3.884,0,0,1-1.429-1.729,4.246,4.246,0,0,1-.229-2.344,4.437,4.437,0,0,1,.943-2.172,3.813,3.813,0,0,1,1.9-1.215,5.905,5.905,0,0,1,2.63-.114l1.729.272.7-4.388,2.587.414-2.044,12.878Zm-2.887-7.075c-1.687-.272-2.658.329-2.887,1.8s.5,2.33,2.187,2.6l1.315.214.7-4.4Z" transform="translate(25.903 60.292)" fill="#151618"/>
    <path id="Path_34" data-name="Path 34" d="M56.912,152.086l-2.787-.786L52.71,137.35l2.8.8.214,3.559,5.017,1.429,2.058-2.916,2.644.743L56.912,152.1Zm-1.043-8.147.357,5.545,3.216-4.531-3.559-1.015Z" transform="translate(22.64 58.957)" fill="#151618"/>
    <path id="Path_35" data-name="Path 35" d="M55.323,140.807a6.88,6.88,0,0,1-.6,3.545,7.03,7.03,0,0,1-1.558,2.3,6.051,6.051,0,0,1-2.2,1.386,6.68,6.68,0,0,1-2.63.386,8.325,8.325,0,0,1-2.83-.672,9,9,0,0,1-1.9-1.129,6.938,6.938,0,0,1-1.444-1.458l1.343-1.944a8.021,8.021,0,0,0,2.9,2.244,4.648,4.648,0,0,0,2.3.414,3.83,3.83,0,0,0,1.972-.772,4.4,4.4,0,0,0,1.372-1.858,4.449,4.449,0,0,0,.4-2.287,3.726,3.726,0,0,0-.8-1.944,4.975,4.975,0,0,0-1.9-1.386,7.094,7.094,0,0,0-1.829-.5,9.778,9.778,0,0,0-2.03-.086l.672-2.33a8.619,8.619,0,0,1,2.158.1,9.006,9.006,0,0,1,2.215.657,7.864,7.864,0,0,1,3.044,2.215,5.852,5.852,0,0,1,1.315,3.087Z" transform="translate(18.111 57.816)" fill="#151618"/>
    <path id="Path_36" data-name="Path 36" d="M41.8,146.03l-7.461-4.416,1.086-1.844,5.26,3.116,1.629-2.744-4.659-2.758,1.086-1.844L43.4,138.3l1.744-2.93-5.474-3.244,1.086-1.844,7.689,4.559L41.8,146.059Z" transform="translate(14.755 55.922)" fill="#151618"/>
    <path id="Path_37" data-name="Path 37" d="M37.91,132.807a7.193,7.193,0,0,1-1.372,2.387,6.872,6.872,0,0,1-2.144,1.687,6.693,6.693,0,0,1-5.145.314,7.3,7.3,0,0,1-2.4-1.386,7.068,7.068,0,0,1-1.758-2.187,6.98,6.98,0,0,1-.743-2.515,6.667,6.667,0,0,1,.3-2.587,7.088,7.088,0,0,1,1.372-2.387,6.872,6.872,0,0,1,2.144-1.687,6.526,6.526,0,0,1,2.53-.672,6.81,6.81,0,0,1,2.616.343,7.055,7.055,0,0,1,2.4,1.386,7.237,7.237,0,0,1,1.758,2.187,6.708,6.708,0,0,1,.743,2.515,6.417,6.417,0,0,1-.314,2.587Zm-9.7-4.788a4.572,4.572,0,0,0-1.072,2.044,4.014,4.014,0,0,0,.086,2.1,3.851,3.851,0,0,0,1.229,1.787,3.878,3.878,0,0,0,4.045.715,4.66,4.66,0,0,0,1.858-1.358,4.794,4.794,0,0,0,1.072-2.044,3.8,3.8,0,0,0-.086-2.115,3.851,3.851,0,0,0-1.229-1.787,3.878,3.878,0,0,0-4.045-.715A4.66,4.66,0,0,0,28.206,128Z" transform="translate(10.455 53.124)" fill="#151618"/>
    <path id="Path_38" data-name="Path 38" d="M22.934,132.091l-1.572-1.844,2.544-10.891L17.059,125.2l-1.629-1.9,9.919-8.461,1.572,1.844-2.53,10.862,6.832-5.817,1.629,1.915-9.919,8.461Z" transform="translate(6.638 49.295)" fill="#151618"/>
    <path id="Path_39" data-name="Path 39" d="M15.072,122.63l-4.7-7.289,1.8-1.158,3.3,5.131,2.687-1.729-2.93-4.559,1.8-1.158,2.93,4.559,2.873-1.844-3.444-5.345,1.8-1.158,4.845,7.518-10.962,7.06Z" transform="translate(4.466 46.393)" fill="#151618"/>
    <path id="Path_40" data-name="Path 40" d="M17.716,108.072a7.974,7.974,0,0,0-.014-2.1,7.257,7.257,0,0,0-.572-2.072,3.01,3.01,0,0,0-1.115-1.444,1.394,1.394,0,0,0-1.358-.086,1.429,1.429,0,0,0-.629.515,2.077,2.077,0,0,0-.229.943,13.542,13.542,0,0,0,.114,1.644,7.175,7.175,0,0,1-.186,3.4,3.264,3.264,0,0,1-1.844,1.8,3.694,3.694,0,0,1-2.115.3,3.74,3.74,0,0,1-1.872-.958,5.982,5.982,0,0,1-1.429-2.1,8.9,8.9,0,0,1-.615-2.044,6.02,6.02,0,0,1-.057-1.944l2.158-.543a6.379,6.379,0,0,0,.029,1.8,7.087,7.087,0,0,0,.486,1.744,2.666,2.666,0,0,0,1,1.286,1.279,1.279,0,0,0,1.243.057,1.262,1.262,0,0,0,.572-.472,1.853,1.853,0,0,0,.229-.843,9.415,9.415,0,0,0-.071-1.458,11.025,11.025,0,0,1-.071-2.7A3.729,3.729,0,0,1,12,101.026a3.4,3.4,0,0,1,1.4-1.086,3.612,3.612,0,0,1,3.23.029A5.787,5.787,0,0,1,19.1,102.9a9.423,9.423,0,0,1,.543,1.586,9.812,9.812,0,0,1,.286,1.586,5,5,0,0,1-.043,1.329l-2.187.686Z" transform="translate(2.479 42.742)" fill="#151618"/>
    <path id="Path_41" data-name="Path 41" d="M5.034,103.687l-2.544-8.3,2.044-.629,1.787,5.831,3.044-.929L7.778,94.469l2.044-.629,1.586,5.188,3.259-1-1.858-6.089,2.044-.629,2.616,8.547L5.005,103.673Z" transform="translate(1.083 39.195)" fill="#151618"/>
    <path id="Path_42" data-name="Path 42" d="M2.068,95.137,1.325,90.85a6.025,6.025,0,0,1,.057-2.644A3.82,3.82,0,0,1,2.54,86.3a4.135,4.135,0,0,1,2.144-.972,3.778,3.778,0,0,1,2.158.229,4.8,4.8,0,0,1,1.687,1.229l4.588-4.231.529,3.03-4.03,3.416s.014.114.029.186l.329,1.929,4.488-.786.457,2.587L2.083,95.152Zm5.646-4.974c-.3-1.715-1.158-2.444-2.587-2.2s-1.987,1.2-1.687,2.873l.229,1.358,4.273-.743-.229-1.286Z" transform="translate(0.533 35.439)" fill="#151618"/>
    <path id="Path_43" data-name="Path 43" d="M.647,87.29.49,84.246l9.99-3.873L.147,77.529-.01,74.57l13.263,4.273.143,2.873L.633,87.3Z" transform="translate(0.01 32.009)" fill="#151618"/>
    <path id="Path_44" data-name="Path 44" d="M.16,73.428.289,70.67l13.02.6-.129,2.758-13.02-.6Z" transform="translate(0.083 30.335)" fill="#151618"/>
    <path id="Path_45" data-name="Path 45" d="M10.2,72.234a6.91,6.91,0,0,1-3.587.357,7.083,7.083,0,0,1-2.63-.9A6.107,6.107,0,0,1,2.07,69.933,6.764,6.764,0,0,1,1.013,67.5a8.159,8.159,0,0,1-.086-2.9,8.922,8.922,0,0,1,.586-2.13A6.8,6.8,0,0,1,2.542,60.7l2.23.786a8.122,8.122,0,0,0-1.4,3.387,4.647,4.647,0,0,0,.2,2.33,3.829,3.829,0,0,0,1.258,1.7,4.49,4.49,0,0,0,2.144.843,4.5,4.5,0,0,0,2.3-.2,3.684,3.684,0,0,0,1.672-1.286,4.792,4.792,0,0,0,.829-2.2,7.037,7.037,0,0,0,0-1.9,8.642,8.642,0,0,0-.457-1.972l2.415.029A9.2,9.2,0,0,1,14.2,64.33a8.973,8.973,0,0,1-.043,2.315,7.772,7.772,0,0,1-1.343,3.53,5.911,5.911,0,0,1-2.63,2.072Z" transform="translate(0.374 26.055)" fill="#151618"/>
    <path id="Path_46" data-name="Path 46" d="M2.03,60.521l2.3-8.361,2.072.572L4.774,58.62l3.073.843,1.444-5.231,2.072.572L9.919,60.035l3.287.9L14.893,54.8l2.072.572-2.373,8.618L2.03,60.535Z" transform="translate(0.886 22.39)" fill="#151618"/>
  </g>
</svg>
