<svg id="Layer_2" data-name="Layer 2" xmlns="http://www.w3.org/2000/svg" width="253.693" height="284.587" viewBox="0 0 253.693 284.587">
  <g id="Group_487" data-name="Group 487">
    <path id="Path_74" data-name="Path 74" d="M50.3,8.62,49.59,120.361,151.175,181.1Z" transform="translate(91.48 15.902)" fill="#f0110a"/>
    <path id="Path_75" data-name="Path 75" d="M82.383,171.167,130.6,5.4,127.444,0,0,216.74H250.677Z" fill="#f0110a"/>
    <path id="Path_76" data-name="Path 76" d="M192.746,202.984l-2.162-3.7-113.249-67.7.8-124.571L76.539,4.28,31.45,159.289Z" transform="translate(58.017 7.895)" fill="#f0110a"/>
  </g>
  <g id="Group_488" data-name="Group 488" transform="translate(0.825 234.463)">
    <path id="Path_77" data-name="Path 77" d="M.29,91.614H15v37.465h8.534V91.614H38.239V83.08H.29Z" transform="translate(-0.29 -81.202)" fill="#f0110a"/>
    <path id="Path_78" data-name="Path 78" d="M36.2,85a21.392,21.392,0,1,0,17.552,33.625l-7-4.864a12.846,12.846,0,0,1-22.672-3.072H57.595v-4.267A21.4,21.4,0,0,0,36.2,85.028ZM24.084,102.125a12.843,12.843,0,0,1,24.237,0Z" transform="translate(26.495 -77.661)" fill="#f0110a"/>
    <path id="Path_79" data-name="Path 79" d="M40.2,86.223H31.67v39.343H40.2V102.381c0-8.733,11.919-8.847,12.375-8.847V85A25.26,25.26,0,0,0,40.2,88.3Z" transform="translate(57.598 -77.661)" fill="#f0110a"/>
    <path id="Path_80" data-name="Path 80" d="M72.726,88.048a20.681,20.681,0,1,0,0,35.047v1.849h8.534V85.516H72.726v2.532ZM71.589,112.8a12.034,12.034,0,0,1-1.934,2.048c-.028,0-.057.057-.085.085a12.341,12.341,0,0,1-2.162,1.422l-.171.085a11.5,11.5,0,0,1-3.755,1.138,3.5,3.5,0,0,0-.569.057c-.341.028-.711.057-1.081.057a12.119,12.119,0,1,1,6.628-22.274c.114.085.256.171.37.256a13.9,13.9,0,0,1,1.593,1.309c.085.085.171.2.256.284A14.055,14.055,0,0,1,71.7,98.516a5.173,5.173,0,0,1,.427.654,10.565,10.565,0,0,1,.6,1.109v10.668a12.7,12.7,0,0,1-1.138,1.878h0Z" transform="translate(75.086 -77.863)" fill="#f0110a"/>
    <path id="Path_81" data-name="Path 81" d="M106.656,85.516v2.532a20.681,20.681,0,1,0,0,35.047v1.849h8.534V85.516h-8.534ZM105.6,112.683A12.18,12.18,0,0,1,97.24,117.6h-.114a11,11,0,0,1-1.365.085,12.436,12.436,0,0,1-4.608-.91,12.134,12.134,0,0,1,7.026-23.1,1.428,1.428,0,0,1,.341.057,13.891,13.891,0,0,1,1.849.569,9.933,9.933,0,0,1,1.109.541,4.6,4.6,0,0,1,.512.284,12.265,12.265,0,0,1,4.3,4.324h.028c.114.2.256.4.37.626V111.09a9.546,9.546,0,0,1-1,1.621l-.085-.057Z" transform="translate(137.677 -77.863)" fill="#f0110a"/>
    <path id="Path_82" data-name="Path 82" d="M89.7,92.576a20.7,20.7,0,1,0,0,35.075v.626h8.534V82.42H89.7V92.6Zm-23.042,17.58a12.144,12.144,0,0,1,22.189-6.827l.028.028a15.5,15.5,0,0,1,.825,1.508V115.39a12.263,12.263,0,0,1-2.048,3.015,8.734,8.734,0,0,1-.74.711c-.228.2-.484.4-.74.6-.4.284-.8.569-1.223.825a9.215,9.215,0,0,1-.91.484c-.313.142-.626.284-.967.427s-.711.228-1.081.341a12.866,12.866,0,0,1-1.508.313c-.228.028-.484.057-.711.085-.341,0-.654.057-1,.057a12.143,12.143,0,0,1-11.891-9.7,11.246,11.246,0,0,1-.256-2.418Z" transform="translate(106.391 -82.42)" fill="#f0110a"/>
  </g>
</svg>
