<svg xmlns="http://www.w3.org/2000/svg" width="32.67" height="32.663" viewBox="0 0 32.67 32.663">
  <path id="Icon_awesome-instagram" data-name="Icon awesome-instagram" d="M16.336,9.2a8.374,8.374,0,1,0,8.374,8.374A8.361,8.361,0,0,0,16.336,9.2Zm0,13.819a5.444,5.444,0,1,1,5.444-5.444A5.454,5.454,0,0,1,16.336,23.019ZM27.006,8.858A1.953,1.953,0,1,1,25.053,6.9,1.949,1.949,0,0,1,27.006,8.858Zm5.546,1.982A9.666,9.666,0,0,0,29.914,4,9.73,9.73,0,0,0,23.07,1.358c-2.7-.153-10.78-.153-13.476,0A9.716,9.716,0,0,0,2.75,3.989,9.7,9.7,0,0,0,.112,10.833c-.153,2.7-.153,10.78,0,13.476A9.666,9.666,0,0,0,2.75,31.153a9.742,9.742,0,0,0,6.844,2.638c2.7.153,10.78.153,13.476,0a9.666,9.666,0,0,0,6.844-2.638,9.73,9.73,0,0,0,2.638-6.844C32.706,21.612,32.706,13.537,32.553,10.84ZM29.069,27.2a5.512,5.512,0,0,1-3.1,3.1c-2.15.853-7.252.656-9.628.656s-7.485.189-9.628-.656a5.512,5.512,0,0,1-3.1-3.1c-.853-2.15-.656-7.252-.656-9.628s-.189-7.485.656-9.628a5.512,5.512,0,0,1,3.1-3.1c2.15-.853,7.252-.656,9.628-.656s7.485-.189,9.628.656a5.512,5.512,0,0,1,3.1,3.1c.853,2.15.656,7.252.656,9.628S29.922,25.06,29.069,27.2Z" transform="translate(0.003 -1.243)" fill="#222"/>
</svg>
