<svg xmlns="http://www.w3.org/2000/svg" width="302.459" height="77.599" viewBox="0 0 302.459 77.599">
  <g id="Layer_2" data-name="Layer 2" transform="translate(0 -0.01)">
    <path id="Path_108" data-name="Path 108" d="M45.489,19.943A3.455,3.455,0,0,1,48.941,23.4V71.583a3.455,3.455,0,0,1-3.453,3.453h-.846v2.411H38.054V75.036H29.486v2.411H22.9V75.036H14.329v2.411H7.745V75.036H6.9a3.455,3.455,0,0,1-3.453-3.453V23.4A3.452,3.452,0,0,1,6.9,19.943H45.483m-33.33,11.67h28.07a1.9,1.9,0,0,0,0-3.809H12.165a1.9,1.9,0,1,0,0,3.809M29.411,58.664H40.926a1.122,1.122,0,0,0,0-2.244H29.411a1.122,1.122,0,1,0,0,2.244m-17.937,0H22.989a1.122,1.122,0,1,0,0-2.244H11.474a1.122,1.122,0,1,0,0,2.244M29.411,63H40.926a1.122,1.122,0,0,0,0-2.244H29.411a1.122,1.122,0,1,0,0,2.244M11.474,63H22.989a1.122,1.122,0,1,0,0-2.244H11.474a1.122,1.122,0,1,0,0,2.244M29.411,67.33H40.926a1.122,1.122,0,0,0,0-2.244H29.411a1.122,1.122,0,0,0,0,2.244m-17.937,0H22.989a1.122,1.122,0,0,0,0-2.244H11.474a1.122,1.122,0,0,0,0,2.244M45.489,16.49H6.905A6.911,6.911,0,0,0,0,23.4V71.583A6.923,6.923,0,0,0,4.345,78a3.453,3.453,0,0,0,3.407,2.9h6.583a3.455,3.455,0,0,0,3.292-2.411h1.98A3.455,3.455,0,0,0,22.9,80.9h6.589a3.455,3.455,0,0,0,3.292-2.411h1.98A3.455,3.455,0,0,0,38.048,80.9h6.589A3.444,3.444,0,0,0,48.044,78a6.917,6.917,0,0,0,4.345-6.416V23.4a6.911,6.911,0,0,0-6.905-6.905h0Z" transform="translate(0 -6.997)" fill="#101010"/>
    <g id="Group_239" data-name="Group 239" transform="translate(58.977 0.01)">
      <path id="Path_109" data-name="Path 109" d="M138.07,34.788h-2.923v1.629a3.015,3.015,0,0,1-3.217,3.044h-4.362a3,3,0,0,1-3.176-3.044V34.788h-3.01a3.5,3.5,0,0,1-3.263-1.8v3.418a2.984,2.984,0,0,1-3.176,3.044h-4.362a2.976,2.976,0,0,1-3.176-3.044V31.744h-1.951a2.953,2.953,0,0,1-2.964-2.67A5.477,5.477,0,0,1,103,27.365l.76-1.709,2.457-5.208,2.331-5H106.72a2.992,2.992,0,0,1-3.09-3.084V7.823a2.986,2.986,0,0,1,3.09-3.084h.633V4.324a3.04,3.04,0,0,1,3.176-3.084h4.109a3.114,3.114,0,0,1,3.176,3.125v.374a4.67,4.67,0,0,1,1.312.207A4.16,4.16,0,0,1,121.37,4.4h3.01a3.111,3.111,0,0,1,3.136-3.165h4.448a3.088,3.088,0,0,1,3.176,3.084l2.964.086a3.365,3.365,0,0,1,3.516,3.545V31.341a3.385,3.385,0,0,1-3.556,3.458ZM118.752,21.576l-2.8-2.5,2.923-6.629a1.967,1.967,0,0,0,.167-.834V8.232a.991.991,0,0,0-1.1-1.128h-2.584V4.353a.671.671,0,0,0-.719-.748h-4.109a.643.643,0,0,0-.719.708V7.1h-3.09a.631.631,0,0,0-.679.708v4.54c0,.46.213.668.679.668h5.634l-7.325,15.756a1.132,1.132,0,0,0-.086.293c0,.167.167.247.506.247h4.408V36.4c0,.5.213.668.719.668h4.362c.466,0,.719-.167.719-.668V26.312l2.964,2.958a1.127,1.127,0,0,0,.34.207c.167,0,.213-.167.213-.46V22.474a1.057,1.057,0,0,0-.426-.915ZM138.11,6.782h-5.421V4.324a.662.662,0,0,0-.719-.708h-4.448a.631.631,0,0,0-.679.708V6.782h-5.467c-.76,0-1.059.374-1.059,1.082V31.37c0,.708.34,1.042,1.059,1.042h5.467v4c0,.5.213.668.719.668h4.362c.506,0,.76-.167.76-.668v-4h5.38a.959.959,0,0,0,1.1-1.082V7.944c0-.794-.34-1.168-1.059-1.168ZM125.4,12.369h2.031v4.5H125.4Zm0,10.088h2.031v4.419H125.4Zm6.652-10.088h2.077v4.5h-2.077Zm0,10.088h2.077v4.419h-2.077Z" transform="translate(-102.49 -0.532)" fill="#101010"/>
      <path id="Path_110" data-name="Path 110" d="M200.469,29.392v6.042a3.32,3.32,0,0,1-3.516,3.418h-8.091a3.005,3.005,0,0,1-2.751-1.542,3,3,0,0,1-2.285,1h-5.38a2.781,2.781,0,0,1-2.964-2.751,3.319,3.319,0,0,1,.086-.875l1.439-5.875v-.127c.04-.081.086-.207.127-.293a2.988,2.988,0,0,1-.932-2.25V21.888a2.983,2.983,0,0,1-.973-2.29V13.8a3.24,3.24,0,0,1,1.145-2.5,2.971,2.971,0,0,1-1.145-2.417v-4A3.043,3.043,0,0,1,178.32,1.8h10.928A3.019,3.019,0,0,1,192.131.01h5.041a3,3,0,0,1,2.837,1.79h10.928a3,3,0,0,1,3.09,3.125V8.883a3.027,3.027,0,0,1-1.145,2.417,3.216,3.216,0,0,1,1.226,2.5V19.6a2.851,2.851,0,0,1-1.1,2.336V26.1a2.99,2.99,0,0,1-1.226,2.5c0,.04.04.04.04.081l.04.207,1.4,5.795a3.553,3.553,0,0,1,.127.875,2.809,2.809,0,0,1-2.964,2.751h-5.38a3.041,3.041,0,0,1-3.01-2.21l-1.565-6.71ZM211.23,13.009l-5.674-3.458h5.334c.466,0,.719-.207.719-.668V4.924c0-.5-.253-.748-.679-.748H197.839V3.094a.631.631,0,0,0-.679-.708h-5.041c-.552,0-.719.293-.719.708V4.176H178.309a.629.629,0,0,0-.679.708v4c0,.46.253.668.719.668h5.421l-5.72,3.458a.945.945,0,0,0-.426.794V19.6c0,.334.086.5.253.5a.794.794,0,0,0,.34-.167l5.8-3.712v2.123c0,.46.167.668.719.668h19.525c.466,0,.765-.207.765-.708v-2.29l6.013,3.919a2.65,2.65,0,0,0,.34.167c.167,0,.3-.167.3-.5V13.8a1.063,1.063,0,0,0-.466-.794ZM185.306,28.932h-5.294a.645.645,0,0,0-.679.5l-1.4,5.835a.845.845,0,0,0-.04.293c0,.247.167.334.552.334h5.38a.557.557,0,0,0,.633-.46l1.358-5.795a.969.969,0,0,0,.04-.293C185.858,29.053,185.646,28.932,185.306,28.932Zm24.566-7.838H179.293c-.466,0-.679.247-.679.708v4.333c0,.5.213.668.719.668h11.693v3.666h-2.244a.625.625,0,0,0-.719.708V35.8c0,.46.213.668.719.668h8.177c.719,0,1.1-.334,1.1-1.042V26.8h11.82c.506,0,.719-.207.719-.708V21.8a.625.625,0,0,0-.719-.708ZM194.156,9.758h1.1l5.634,3.585H188.477l5.674-3.585Zm16.774,25.509-1.4-5.835a.641.641,0,0,0-.679-.5h-5.334c-.38,0-.552.127-.552.414a.861.861,0,0,0,.04.293l1.358,5.795c.086.374.34.46.679.46h5.38c.339,0,.552-.086.552-.334a.861.861,0,0,0-.04-.293Z" transform="translate(-133.372 -0.01)" fill="#101010"/>
      <path id="Path_111" data-name="Path 111" d="M258.511,27.153l-1.485,9.88a2.993,2.993,0,0,1-3.05,2.71h-5.041a2.859,2.859,0,0,1-3.01-3.211l1.439-10.047c.253-1.876.593-2.917.719-4.793.167-2.169,0-3.378,0-5.542V4.894A3.011,3.011,0,0,1,251.26,1.81H256.3a2.925,2.925,0,0,1,2.964,3.084V21.818a14.6,14.6,0,0,1-.3,2.958c-.167.748-.34,1.462-.466,2.377ZM256.946,4.894c0-.46-.213-.708-.633-.708h-5.041a.625.625,0,0,0-.719.708V21.818l-2.244,15.048c0,.334.253.46.633.46h5.041c.466,0,.679-.167.765-.668l2.2-14.841V4.894ZM263.6,39.283a2.862,2.862,0,0,1-2.883-3.044V4.894a2.875,2.875,0,0,1,2.837-3.084h4.828a2.923,2.923,0,0,1,2.883,3.125V36.2a2.92,2.92,0,0,1-2.883,3.084h-4.788ZM269.064,4.94c0-.5-.253-.748-.679-.748h-4.828c-.466,0-.633.247-.633.708V36.245a.6.6,0,0,0,.679.668h4.788a.629.629,0,0,0,.679-.708V4.935ZM275.717,39.7a2.877,2.877,0,0,1-2.964-3.044V4.894a2.9,2.9,0,0,1,2.964-3.084h5a3.037,3.037,0,0,1,3.176,3.084V36.653a3.029,3.029,0,0,1-3.176,3.044h-5Zm5.72-34.8a.641.641,0,0,0-.719-.708h-5c-.466,0-.633.247-.633.708V36.659c0,.46.167.668.633.668h5c.466,0,.719-.207.719-.668V4.894Z" transform="translate(-163.373 -0.774)" fill="#101010"/>
      <path id="Path_112" data-name="Path 112" d="M355.224,9.782v6.336c0,1.749-.806,2.837-2.624,2.837a3.282,3.282,0,0,1,1.692,3V35.585A3.346,3.346,0,0,1,350.736,39H335.952a3.607,3.607,0,0,1-1.525-.293,3.807,3.807,0,0,1-1.611.374h-2.031a4.5,4.5,0,0,1-1.1-.127,3.474,3.474,0,0,1-1.864.541h-3.516a3.674,3.674,0,0,1-1.951-.541,3.859,3.859,0,0,1-1.018.127h-2.118a2.988,2.988,0,0,1-3.136-3.125l.127-9.88A4.031,4.031,0,0,1,316.376,25a3.872,3.872,0,0,1-.426-1.876V19.369a3.487,3.487,0,0,1,.806-2.25l.426-.5a3.254,3.254,0,0,1-1.226-2.71V9.154a3.45,3.45,0,0,1,.932-2.5l3.855-4.293a3.682,3.682,0,0,1,2.751-1.208h4.535a2.728,2.728,0,0,1,2.877,2.624,2.789,2.789,0,0,1-.506,1.462h2.624a3.537,3.537,0,0,1,1.485.414l4.276-3.625a3.476,3.476,0,0,1,2.331-.834H345.6a3.812,3.812,0,0,1,2.371.834l5.973,5.127a3.352,3.352,0,0,1,1.272,2.624ZM333.2,15.116a.723.723,0,0,0-.806-.668h-3.136c-.38,0-.593.167-.593.541l.127,3.919h-4.022l8.3-10.715a.539.539,0,0,0,.127-.334c0-.127-.127-.207-.426-.207h-4.408a1.052,1.052,0,0,0-.846.414l-1.611,1.957h-2.584L328.276,4.1a.738.738,0,0,0,.167-.334c0-.167-.127-.247-.426-.247h-4.535a1.127,1.127,0,0,0-.886.414l-3.9,4.293a1.18,1.18,0,0,0-.34.915V13.9c0,.708.38,1.042,1.1,1.042H321.7l-3.05,3.666a.993.993,0,0,0-.3.748V23.1a.959.959,0,0,0,1.1,1.082h4.109V36.356c0,.5.167.708.719.708H327.8c.466,0,.76-.207.76-.708V24.185h4.615c.38,0,.552-.167.552-.5v-.167l-.552-8.419ZM321.463,25.7h-2.118c-.466,0-.679.207-.679.668L318.54,36c0,.5.167.708.679.708h2.118c.426,0,.679-.207.679-.708l.167-9.587C322.182,25.911,321.929,25.7,321.463,25.7Zm11.227,0h-2.077c-.466,0-.679.207-.679.668L330.02,36c0,.5.253.708.765.708h2.031c.466,0,.765-.207.765-.708l-.167-9.587c0-.5-.213-.708-.719-.708ZM346.374,3.82a1.627,1.627,0,0,0-.765-.247H341.12a1.4,1.4,0,0,0-.76.247L334.3,8.988a.915.915,0,0,0-.38.794v6.336c0,.293.086.414.213.414a.828.828,0,0,0,.34-.127l1.991-1.836v3.585c0,.5.253.708.719.708H349.17a.64.64,0,0,0,.719-.708V14.362l2.331,2.043a.554.554,0,0,0,.34.127c.167,0,.213-.127.213-.414V9.782a.854.854,0,0,0-.426-.794L346.374,3.82Zm4.408,17.045H335.912a.905.905,0,0,0-1.019,1.042V35.579c0,.748.34,1.042,1.059,1.042h14.783c.719,0,1.1-.334,1.1-1.042V21.947a.963.963,0,0,0-1.059-1.082ZM338.5,12.82l4.868-4.166,4.742,4.126h-9.489c-.04,0-.086.04-.127.04Zm2.371,13.8h5.127v4.293h-5.127Z" transform="translate(-193.116 -0.494)" fill="#101010"/>
      <path id="Path_113" data-name="Path 113" d="M390.573,21.989a2.4,2.4,0,0,1,.339-.915c-.679-.167-1.226-.334-1.439-.374a3.032,3.032,0,0,1-2.244-3V12.868a3.131,3.131,0,0,1,.466-1.79,3.164,3.164,0,0,1-.466-1.709V4.478a2.8,2.8,0,0,1,2.837-2.958,5.2,5.2,0,0,1,1.018.167,9,9,0,0,1,.973.207q3.5.872,6.992,1.876a3.292,3.292,0,0,1,3.136-2H421.63a3.344,3.344,0,0,1,3.476,3.5V16.021a3.71,3.71,0,0,1-.086.748,2.855,2.855,0,0,1,1.019,2.29v2.831a3.3,3.3,0,0,1-.34,1.542,4.589,4.589,0,0,1,.3,1.5V36.1a3.35,3.35,0,0,1-3.516,3.458h-6.4a3.386,3.386,0,0,1-1.778-.46,3.29,3.29,0,0,1-1.824.46h-3.556a3.1,3.1,0,0,1-1.652-.46,2.787,2.787,0,0,1-1.692.46h-3.389a2.93,2.93,0,0,1-2.877-2.624,3.475,3.475,0,0,1,.466-1.5l.806-1.375h-1.652l-.679,3a3.057,3.057,0,0,1-3.136,2.584h-4.742a2.777,2.777,0,0,1-3.05-2.831,5.8,5.8,0,0,1,.127-1.208l3.136-13.632Zm7.878-15.882L390.32,3.983c-.04-.04-.167-.04-.253-.04-.3,0-.426.167-.426.541V9.358a.614.614,0,0,0,.466.668l8.131,2.123a.558.558,0,0,0,.253.04c.3,0,.426-.167.426-.581V6.734a.588.588,0,0,0-.466-.627Zm0,8.419L390.32,12.4a.769.769,0,0,0-.3-.04q-.38,0-.38.5V17.7a.643.643,0,0,0,.466.668l8.131,2.169a.768.768,0,0,0,.3.04c.253,0,.38-.207.38-.627V15.152a.563.563,0,0,0-.466-.627Zm0,7.417h-4.914a.6.6,0,0,0-.633.581L389.768,36.57a.535.535,0,0,0-.04.247c0,.293.213.414.633.414H395.1c.426,0,.633-.127.679-.5l3.263-14.087v-.207c0-.293-.167-.5-.593-.5Zm24.439-3.585H400.782a.625.625,0,0,0-.719.708V21.9c0,.5.213.668.719.668h2.2l-5.208,8.879a.536.536,0,0,0-.127.293c0,.207.213.247.552.247h3.6a.955.955,0,0,0,.846-.414l1.951-3.418h1.824l-4.788,8.459a.785.785,0,0,0-.127.334c0,.167.167.247.466.247h3.6a.784.784,0,0,0,.765-.46l4.868-8.586h1.824l-4.488,8.419a.7.7,0,0,0-.086.334c0,.207.127.293.466.293h3.556a.751.751,0,0,0,.765-.46l4.408-8.586h.719V32.98h-2.285c-.506,0-.719.207-.719.708v2.791a.625.625,0,0,0,.719.708h6.4a.946.946,0,0,0,1.059-1.082V24.935a.946.946,0,0,0-1.059-1.082H406.818l.765-1.295h15.336c.466,0,.719-.167.719-.668V19.06a.641.641,0,0,0-.719-.708ZM421.618,4.184H402.174c-.679,0-.973.374-.973,1.082V16.021c0,.748.3,1.042,1.059,1.042h19.358c.719,0,1.059-.334,1.059-1.042V5.272a.946.946,0,0,0-1.059-1.082ZM407.474,7.562h8.937v1.5h-8.937Zm0,4.586h8.937v1.542h-8.937Z" transform="translate(-223.378 -0.651)" fill="#101010"/>
      <path id="Path_114" data-name="Path 114" d="M496.706,17.877v3.752a3.03,3.03,0,0,1-.593,1.876,2.822,2.822,0,0,1,.506,1.709v4.834a3.106,3.106,0,0,1-1.226,2.5v3.418a3.327,3.327,0,0,1-3.516,3.458H478.959a3.984,3.984,0,0,1-1.9-.46,3.712,3.712,0,0,1-1.864.46H462.358a3.352,3.352,0,0,1-3.556-3.418V32.551a3.221,3.221,0,0,1-1.185-2.377V25.34a3.393,3.393,0,0,1,.506-1.8,3.33,3.33,0,0,1-.593-1.916V17.877a3.119,3.119,0,0,1,1.059-2.377,4.246,4.246,0,0,1-.086-.708V5.418a3.329,3.329,0,0,1,3.516-3.458H475.19a3.459,3.459,0,0,1,1.824.5,4.019,4.019,0,0,1,1.9-.5h13.3a3.39,3.39,0,0,1,3.516,3.5v9.293a5.2,5.2,0,0,1-.086.794,3.1,3.1,0,0,1,1.059,2.336Zm-3.136-.708H480.352V16.087a.648.648,0,0,0-.04-.293h11.9a.934.934,0,0,0,1.059-1.042V5.459a.963.963,0,0,0-1.059-1.082h-13.3c-.719,0-1.018.334-1.018,1.042V14.8a2.082,2.082,0,0,0,.127.581h-1.951a.926.926,0,0,0,.167-.627V5.459a.946.946,0,0,0-1.059-1.082H462.007c-.765,0-1.059.334-1.059,1.042V14.8c0,.708.34,1,1.059,1h11.986c0,.086-.04.167-.04.293v1.082h-13.3c-.506,0-.679.247-.679.708v3.752c0,.46.167.708.679.708H466.2l-5.72,2.336a.6.6,0,0,0-.426.668V30.18c0,.334.04.5.253.5a.828.828,0,0,0,.339-.127l.593-.293v5.754c0,.708.38,1.042,1.1,1.042h12.832a.963.963,0,0,0,1.059-1.082V26.762c0-.708-.339-1.128-1.059-1.128h-4.828l6.606-3.084h.466l6.606,3.084h-5.081c-.765,0-1.059.374-1.059,1.082v9.293c0,.708.34,1.042,1.059,1.042h12.919a.946.946,0,0,0,1.059-1.082V30.174l.593.293a.76.76,0,0,0,.34.081c.253,0,.34-.167.34-.5V25.214a.7.7,0,0,0-.506-.668l-5.467-2.21h5.294a.625.625,0,0,0,.719-.708V17.877c0-.46-.213-.708-.679-.708ZM467.013,8.664h3.217v2.917h-3.217V8.664Zm.167,21.3H470.4v2.831H467.18V29.961Zm16.521,0h3.349v2.831H483.7V29.961Zm.213-21.3h3.349v2.917h-3.349Z" transform="translate(-253.224 -0.838)" fill="#101010"/>
    </g>
    <path id="Path_115" data-name="Path 115" d="M137.02,93.641l2.008-1.341h-8.235l2.008,1.341q-1.036,1.113-2.072,2.106a23.527,23.527,0,0,0,4.051,4.943,22.682,22.682,0,0,0,4.149-5.1c-.65-.616-1.283-1.266-1.91-1.945Z" transform="translate(-55.502 -39.182)" fill="#101010"/>
    <path id="Path_116" data-name="Path 116" d="M104.22,71.09v36.7h38.612V71.09Zm31.137,32.9a49.132,49.132,0,0,1-11.866-5.708,49.347,49.347,0,0,1-11.831,5.708l-3.666-4.719a45.012,45.012,0,0,0,11.377-4.494,36.106,36.106,0,0,1-3.953-4.719c-1.019.725-2.095,1.427-3.24,2.106l-3.827-4.017a35.572,35.572,0,0,0,7.36-4.845h-6.549v-5.07h11.67V74.888h5.576v3.349h11.538v5.07h-6.353a35.415,35.415,0,0,0,7.36,4.845l-3.792,4.017q-1.813-1.088-3.435-2.233a36.769,36.769,0,0,1-4.051,4.845,44.017,44.017,0,0,0,11.377,4.494l-3.694,4.719Z" transform="translate(-44.247 -30.177)" fill="#101010"/>
    <path id="Path_117" data-name="Path 117" d="M209.91,95.35v4.465a9.691,9.691,0,0,0,.909-4.465Z" transform="translate(-89.119 -40.477)" fill="#101010"/>
    <path id="Path_118" data-name="Path 118" d="M214.9,86.76h-2.981c-.236.316-.478.627-.714.926h2.854C214.432,87.3,214.714,87,214.9,86.76Z" transform="translate(-89.671 -36.83)" fill="#101010"/>
    <path id="Path_119" data-name="Path 119" d="M223.485,98.124h.483V95.35h-.938v2.106c0,.449.15.668.455.668Z" transform="translate(-94.689 -40.477)" fill="#101010"/>
    <path id="Path_120" data-name="Path 120" d="M204.242,101.712h-4.471V94.79l-.973-.99v1.243H196.56V97.88c.714-.213,1.45-.455,2.2-.731v5.2l-.063.035h6.934c.023-.276.052-.691.1-1.243l-1.49-.737v1.306Z" transform="translate(-83.451 -39.819)" fill="#101010"/>
    <path id="Path_121" data-name="Path 121" d="M174.98,71.09v36.7h38.612V71.09Zm31.672,33.255a13.889,13.889,0,0,1-7.36-4.782q-2.365,3.384-7.682,4.782l-3.5-4.3q5.188-1.053,6.808-2.964h-5.478v-4.3c-.541.213-1.22.449-2.043.7v6.41a4.771,4.771,0,0,1-.909,3.349,3.7,3.7,0,0,1-2.756.829h-3.015l-1.231-5.07h1.456a1.379,1.379,0,0,0,.955-.224,1.568,1.568,0,0,0,.213-.99V94.816c-.973.19-1.8.34-2.463.449L178.738,90c1.036-.127,2.158-.311,3.372-.541V85.413h-2.693V80.245h2.693V75.078h5.283v5.167h2.238v.386a21.847,21.847,0,0,0,4.765-6.094l5.024.829c-.086.173-.219.437-.391.8H205.7V79.1c-.541.742-1.024,1.393-1.456,1.945h3.89V92.082h-4.569V91.19h-1.427a2.045,2.045,0,0,1-2.463-2.549V85.068h-.84a15.606,15.606,0,0,1-1.007,6.221h3.827c-.023.34-.052.829-.1,1.467h7.717v4.339H203.5a13.648,13.648,0,0,0,6.324,2.871l-3.176,4.4Z" transform="translate(-74.289 -30.177)" fill="#101010"/>
    <path id="Path_122" data-name="Path 122" d="M245.74,71.09v36.7h38.612V71.09Zm16.843,16.13v7.5c0,1,.294,1.634.875,1.916a6.122,6.122,0,0,0,2.2.253q5.283,0,11.831-.316l.259,5.68q-6.094.354-12.251.351-4.765,0-6.583-1.116-2.236-1.338-2.238-5.294V87.674l-5.38.386-.391-5.835,5.772-.414V76.292h5.9v5.1l16.6-1.145a73.4,73.4,0,0,1-4.989,14.162l-5.864-1.4a39.316,39.316,0,0,0,2.854-6.376l-8.591.6Z" transform="translate(-104.33 -30.177)" fill="#101010"/>
    <path id="Path_123" data-name="Path 123" d="M316.5,71.09v36.7h38.612V71.09Zm9.938,5.081a53.3,53.3,0,0,1,9.725,6.347l-3.953,4.558a47.7,47.7,0,0,0-9.495-6.221l3.729-4.69ZM326.7,102.7l-3.274-5.421a46.2,46.2,0,0,0,21.781-14l3.694,5.167A52.78,52.78,0,0,1,326.691,102.7Z" transform="translate(-134.372 -30.177)" fill="#101010"/>
    <path id="Path_124" data-name="Path 124" d="M387.26,71.09v36.7h38.612V71.09Zm26.925,23.133a33.886,33.886,0,0,1-12.608,9.311L397.33,99a34.364,34.364,0,0,0,9.627-5.743,55.677,55.677,0,0,0-6.905-3.412l3.666-3.953a58.967,58.967,0,0,1,7.066,3.1,23.145,23.145,0,0,0,2.561-5.167h-9.627a39.33,39.33,0,0,1-6.577,6.727l-4.828-3.286a40.647,40.647,0,0,0,10.082-11.929l6.031,1.341c-.391.7-.788,1.381-1.2,2.043h13.615a32.872,32.872,0,0,1-6.646,15.5Z" transform="translate(-164.414 -30.177)" fill="#101010"/>
    <path id="Path_125" data-name="Path 125" d="M458.02,71.09v36.7h38.612V71.09Zm32.334,21.378H464.292V86.408h26.062Z" transform="translate(-194.455 -30.177)" fill="#101010"/>
  </g>
</svg>
