<svg xmlns="http://www.w3.org/2000/svg" width="166.307" height="165.599" viewBox="0 0 166.307 165.599">
  <g id="Group_126" data-name="Group 126" transform="matrix(0.966, 0.259, -0.259, 0.966, -1045.169, -1133.271)">
    <ellipse id="Ellipse_12" data-name="Ellipse 12" cx="68" cy="67.5" rx="68" ry="67.5" transform="translate(1336.618 815.102)" fill="#ffea2c"/>
    <g id="Group_22" data-name="Group 22" transform="translate(1356.92 827.581)">
      <path id="Path_255" data-name="Path 255" d="M16.821-42.021,7.434-29.673C4.1-25.263,1.2-19.719,1.2-13.986A13.758,13.758,0,0,0,5.04-4.158c2.331,2.394,6.552,5.1,13.8,5.1,4.032,0,9.261-.819,13.419-4.977A14.737,14.737,0,0,0,36.6-14.994a13.51,13.51,0,0,0-3.969-10.017,13.652,13.652,0,0,0-9.513-4.032,14.8,14.8,0,0,0-5.859,1.323l11.97-14.3ZM18.648-7.686a6.868,6.868,0,0,1-4.977-2.142,6.987,6.987,0,0,1-1.827-4.788,6.172,6.172,0,0,1,2.079-4.347,7.388,7.388,0,0,1,4.725-1.827A6.849,6.849,0,0,1,23.5-18.837a6.005,6.005,0,0,1,1.953,4.41A6.758,6.758,0,0,1,23.5-9.639,6.691,6.691,0,0,1,18.648-7.686ZM68.985-42.021H47.124L43.47-19.4a16.925,16.925,0,0,1,7.749-1.764c1.386,0,5.292.063,7.56,2.079a5.932,5.932,0,0,1,2.016,4.536,6.279,6.279,0,0,1-1.638,4.284A7.562,7.562,0,0,1,53.676-8.19a15.614,15.614,0,0,1-6.3-1.449,20.361,20.361,0,0,1-5.04-3.4L40.7-2.835A25.519,25.519,0,0,0,54.873.945c4.032,0,9.2-.693,13.1-4.725A14.689,14.689,0,0,0,72.009-14.3a13.678,13.678,0,0,0-3.843-9.954c-1.953-2.016-5.481-4.158-11.088-4.158a23.409,23.409,0,0,0-3.4.315l.756-4.662H68.985Z" transform="translate(0 62)" fill="#bb1c21"/>
      <path id="Path_254" data-name="Path 254" d="M4.066-6.593A3.591,3.591,0,0,0,6.745-7.6a2.957,2.957,0,0,0,.817-2.109,2.931,2.931,0,0,0-.8-2.09,3.535,3.535,0,0,0-2.7-1.007A3.456,3.456,0,0,0,1.406-11.8,3.2,3.2,0,0,0,.627-9.652a2.883,2.883,0,0,0,.8,2.052A3.436,3.436,0,0,0,4.066-6.593ZM4.009,0H5.643L13-12.673H11.343ZM4.1-11.134a1.344,1.344,0,0,1,.969.361,1.469,1.469,0,0,1,.456,1.064,1.482,1.482,0,0,1-.418,1.026,1.547,1.547,0,0,1-1.007.4,1.362,1.362,0,0,1-.931-.342,1.459,1.459,0,0,1-.494-1.083,1.461,1.461,0,0,1,.38-.988A1.439,1.439,0,0,1,4.1-11.134ZM12.92-4.389a1.344,1.344,0,0,1,.969.361,1.469,1.469,0,0,1,.456,1.064,1.482,1.482,0,0,1-.418,1.026,1.547,1.547,0,0,1-1.007.4,1.362,1.362,0,0,1-.931-.342A1.459,1.459,0,0,1,11.5-2.964a1.461,1.461,0,0,1,.38-.988A1.439,1.439,0,0,1,12.92-4.389ZM12.882.152A3.591,3.591,0,0,0,15.561-.855a2.957,2.957,0,0,0,.817-2.109,2.931,2.931,0,0,0-.8-2.09,3.535,3.535,0,0,0-2.7-1.007,3.456,3.456,0,0,0-2.66,1.007,3.2,3.2,0,0,0-.779,2.147,2.883,2.883,0,0,0,.8,2.052A3.436,3.436,0,0,0,12.882.152Z" transform="translate(77.582 58.839)" fill="#bb1c21"/>
    </g>
    <path id="Path_253" data-name="Path 253" d="M-3.51-9.99a10.351,10.351,0,0,0-3.15-7.5,11.407,11.407,0,0,0-7.89-2.97,11.407,11.407,0,0,0-7.89,2.97,10.351,10.351,0,0,0-3.15,7.5,10.383,10.383,0,0,0,3.15,7.47A11.407,11.407,0,0,0-14.55.45,11.407,11.407,0,0,0-6.66-2.52,10.383,10.383,0,0,0-3.51-9.99Zm-11.04-5.43a5.99,5.99,0,0,1,4.02,1.59A5.4,5.4,0,0,1-8.91-9.99a5.51,5.51,0,0,1-1.62,3.84,5.484,5.484,0,0,1-4.02,1.56A5.677,5.677,0,0,1-18.6-6.18,5.085,5.085,0,0,1-20.19-9.9a5.485,5.485,0,0,1,1.59-3.93A5.763,5.763,0,0,1-14.55-15.42Zm25.8-4.59H-.21V0H4.98V-7.86h5.7v-4.41H4.98V-15.6h6.27Zm14.55,0H14.34V0h5.19V-7.86h5.7v-4.41h-5.7V-15.6H25.8Z" transform="translate(1404.963 927.227)" fill="none" stroke="#bb1c21" stroke-width="1"/>
  </g>
</svg>
