<svg xmlns="http://www.w3.org/2000/svg" width="1920" height="2005.719" viewBox="0 0 1920 2005.719">
  <path id="Subtraction_2" data-name="Subtraction 2" d="M960,2909.831c-57.231,0-117.476-1.068-179.063-3.173-55.974-1.913-114.327-4.727-173.437-8.364-99.539-6.124-203-14.663-307.5-25.379-41.055-4.21-82.375-8.77-122.812-13.555-32.355-3.828-64.212-7.807-94.688-11.824C30.794,2840.719.285,2836.044,0,2836V952l.013-.006c.747-.3,7.724-3.051,22.625-7.043,9.2-2.466,19.589-4.919,30.88-7.291,14.111-2.964,29.66-5.806,46.215-8.447,42.155-6.724,91.047-12.21,145.321-16.3,67.845-5.116,144.325-8.06,227.315-8.748,3.954-.033,7.991-.05,12-.05,21.623,0,43.548.5,65.166,1.473,20.612.932,41.634,2.333,62.482,4.165,38.479,3.38,77.233,8.245,118.477,14.873,34.377,5.525,71.156,12.41,112.439,21.048,36.791,7.7,73.724,16.056,109.443,24.139l.091.021c36.084,8.167,73.4,16.611,110.692,24.406,41.834,8.745,79.167,15.719,114.135,21.32,41.969,6.723,81.48,11.66,120.79,15.094,21.3,1.86,42.8,3.284,63.895,4.231,22.13.994,44.592,1.5,66.763,1.5,43.754,0,86.3-1.22,126.463-3.626,36.514-2.187,71.876-5.4,105.1-9.558,55.962-7,106.991-16.757,151.671-29.005,17.557-4.813,34.158-10.026,49.341-15.492,12.151-4.374,23.431-8.92,33.527-13.514,17.066-7.764,25.079-13.131,25.158-13.184V2836l-.033.006c-3.206.49-32.758,4.977-82.467,11.53-30.475,4.018-62.333,8-94.688,11.824-40.437,4.785-81.757,9.345-122.812,13.555-104.5,10.716-207.962,19.255-307.5,25.379-59.111,3.637-117.464,6.451-173.437,8.364C1077.476,2908.763,1017.231,2909.831,960,2909.831Z" transform="translate(0 -904.112)" fill="#bb1c21"/>
</svg>
