<svg xmlns="http://www.w3.org/2000/svg" width="1200" height="350.668" viewBox="0 0 1200 350.668">
  <g id="Group_409" data-name="Group 409" transform="translate(-360 -5297.332)">
    <text id="お客様" transform="translate(1530 5442)" fill="#fff" font-size="20" font-family="NotoSansJP-Bold, Noto Sans JP" font-weight="700"><tspan x="-30" y="0">お客様</tspan></text>
    <g id="Group_224" data-name="Group 224" transform="translate(-100 60)">
      <rect id="Rectangle_111" data-name="Rectangle 111" width="200" height="200" transform="translate(1460 5388)" fill="#fff"/>
      <path id="Path_256" data-name="Path 256" d="M-49.491-31.349v4.559h-3.525a28.325,28.325,0,0,1-4.371-.235c.141,1.551.188,2.961.188,4.794V-1.222c0,1.692-.094,3.713-.235,5.358h6.909V2.068h17.437V4.136h7.1c-.188-1.927-.282-3.948-.282-6.58V-22.231a36.283,36.283,0,0,1,.235-4.794,40.052,40.052,0,0,1-4.465.235h-3.619v-4.559h2.961c2.538,0,4.794.094,6.2.235v-7.1a53.893,53.893,0,0,1-6.486.282H-50.008c-2.209,0-4.747-.094-5.64-.188a1.608,1.608,0,0,0-.517-.094l-6.11-2.444a29.86,29.86,0,0,1-1.645,6.3,29.489,29.489,0,0,1-6.251,10.716,50.122,50.122,0,0,1,2.209,8.6c.611-.8,1.551-2.115,2.068-2.914-.047,2.773-.047,4.324-.047,4.606V-1.081a50.484,50.484,0,0,1-.282,5.358h7.238a46.188,46.188,0,0,1-.188-5.405V-27.636a57.86,57.86,0,0,0,2.961-7.285v3.807c1.5-.141,3.666-.235,6.2-.235Zm.94,10.951V-4.371h-2.3V-20.4Zm5.64,16.027V-20.4H-40.7V-4.371Zm0-22.419v-4.559H-40.7v4.559Zm7.849,22.419V-20.4h2.3V-4.371ZM-4.7-12.314V-.329a30.95,30.95,0,0,1-.235,4.606H2.4V2.209H11.7V4.23h7.426a31.882,31.882,0,0,1-.235-4.747V-12.643c.7.235.752.235,1.551.517a36.843,36.843,0,0,1,2.632-7.238,45.018,45.018,0,0,1-10.34-3.666,43.871,43.871,0,0,0,5.64-7.614A24.555,24.555,0,0,1,19.834-32.9L15.98-37.13a20.643,20.643,0,0,1-3.807.235H6.58q.775-1.9.987-2.4L.141-40.326c-.611,3.478-2.82,7.238-6.3,10.716V-32.2a11.506,11.506,0,0,1-2.4.188h-.658v-3.055A34.651,34.651,0,0,1-8.93-39.95H-16.4a34.192,34.192,0,0,1,.282,4.888v3.055h-1.5a20.984,20.984,0,0,1-3.619-.235v6.956a20.369,20.369,0,0,1,3.572-.235h1.128a32.987,32.987,0,0,1-5.828,12.878A28.67,28.67,0,0,1-19.317-5.17a23.282,23.282,0,0,0,3.384-7.191c-.047.752-.094,2.256-.141,4.559v6.11a56.53,56.53,0,0,1-.282,6.063H-8.93a55.309,55.309,0,0,1-.282-6.063V-11.28c0-1.222-.047-3.666-.141-4.747A35.684,35.684,0,0,0-7.52-12.549a21.361,21.361,0,0,1,1.034-2.679,23.465,23.465,0,0,1,.846,3.29ZM-8.46-25.521a11.119,11.119,0,0,1,2.3.188,26.892,26.892,0,0,1,2.4,2.773A30.7,30.7,0,0,0-.893-25.192a33.99,33.99,0,0,0,2.444,2.585A43.208,43.208,0,0,1-5.17-19.458a18.971,18.971,0,0,1-3.948-6.063ZM1.222-14.758A34.552,34.552,0,0,0,7.1-18.236a41.362,41.362,0,0,0,6.392,3.478Zm2.162-15.98h7.1a18.877,18.877,0,0,1-3.572,4.23A19.406,19.406,0,0,1,3.1-30.315ZM2.4-8.366H11.7v4.089H2.4ZM51.982-34.733a27.774,27.774,0,0,1,4.183,6.251l4.7-2.162A29.086,29.086,0,0,0,56.682-36.8Zm6.11-2.585a31.519,31.519,0,0,1,4.089,6.11l4.559-2.209A26.847,26.847,0,0,0,62.6-39.339ZM55.554-26.837a31.1,31.1,0,0,1,3.525,6.956A53.109,53.109,0,0,1,62.087-9.447l7.708-3.666a49.306,49.306,0,0,0-7.332-16.92ZM26.038-20.3a56.667,56.667,0,0,1,7.332-1.363C31.49-14.194,27.542-4.888,24.534-.846l7.755,4.089c.282-.705.376-.94.752-1.739a104.564,104.564,0,0,0,4.982-12.079,97.913,97.913,0,0,0,3.337-11.7,17.066,17.066,0,0,1,1.88-.094c1.645,0,2.3.188,2.82.8.611.658.893,1.786.893,3.76A41.236,41.236,0,0,1,45.684-7.379c-.517,1.5-1.128,2.115-2.115,2.115A20.289,20.289,0,0,1,37.13-6.956a22.313,22.313,0,0,1,.7,5.64,21.338,21.338,0,0,1-.141,2.726,26.534,26.534,0,0,0,7.473,1.222,8.977,8.977,0,0,0,3.666-.658A7.774,7.774,0,0,0,51.841-.8c1.88-3.29,2.961-9.353,2.961-16.685,0-5.311-.94-8.178-3.337-10.1-1.6-1.269-3.76-1.88-6.674-1.88a15.592,15.592,0,0,0-2.021.094c.188-1.128.517-2.914.893-5.076a23.333,23.333,0,0,1,.752-3.666l-8.507-.8v.8a73.574,73.574,0,0,1-1.081,9.259c-3.055.423-7.567.8-9.071.8a1.619,1.619,0,0,1-.423-.047ZM-24.44,53.127a42.648,42.648,0,0,1,5.546.235V46.406a44.919,44.919,0,0,1-5.546.188H-40.8c.846-1.786,1.128-2.3,2.3-4.7l-7.8-1.034a36.669,36.669,0,0,1-2.538,5.734h-7.755a49.041,49.041,0,0,1-5.593-.188v6.956a42.575,42.575,0,0,1,5.593-.235h3.948a71.253,71.253,0,0,1-5.17,7.05c5.828,1.645,8.366,2.444,11.985,3.807-5.029,2.115-8.977,2.961-16.309,3.572a21.5,21.5,0,0,1,3.29,6.909A62.91,62.91,0,0,0-45.4,71.034a33.835,33.835,0,0,0,7.473-3.807,94.576,94.576,0,0,1,13.113,7.285l5.452-5.922a115.787,115.787,0,0,0-12.925-6.251,26.713,26.713,0,0,0,5.311-9.212Zm-10.293,0A18.384,18.384,0,0,1-39.1,59.613c-3.478-1.269-4.512-1.6-7.849-2.538,1.316-1.88,1.692-2.444,2.585-3.948ZM-44.65,33.763H-55.977c-2.773,0-4.136-.047-5.734-.188a33.037,33.037,0,0,1,.188,3.666v4.23a19.591,19.591,0,0,1-.235,3.666h7.191V40.3h28.012v4.841h7.144a27.52,27.52,0,0,1-.235-3.619V37.241a31.923,31.923,0,0,1,.188-3.666c-1.551.141-3.008.188-5.734.188H-37.177v-.47a29.275,29.275,0,0,1,.188-3.2h-7.849a21.921,21.921,0,0,1,.188,3.243Zm31.3.611a32.988,32.988,0,0,1,.188,3.337c.094,6.533.282,10.481.517,13.771.611,7.473,1.88,12.173,4.324,15.651,1.833,2.679,4.089,4.042,6.721,4.042,2.867,0,5.405-1.692,7.144-4.794A39.673,39.673,0,0,0,9.118,57.31a29.733,29.733,0,0,1-6.533-5.922A47.749,47.749,0,0,1,.141,59.519c-.47,1.222-.987,1.833-1.5,1.833-1.974,0-3.478-7.943-3.478-18.471a58.62,58.62,0,0,1,.517-8.507ZM10.2,39.356c5.828,7.379,9.071,16.638,9.588,27.166l8.413-3.1c-1.316-11.374-4.747-19.975-10.857-27.354ZM42.347,59.378a20.535,20.535,0,0,1-.094-2.068c0-.752.047-1.833.141-3.713l.94-14.9c.188-2.538.329-4.512.564-6.345H32.947c.188,1.457.423,4,.564,6.345l.94,14.9c.188,2.82.188,2.82.188,3.337a21.246,21.246,0,0,1-.094,2.444Zm.846,12.079V62.574H33.746v8.883ZM59.408,59.378a20.535,20.535,0,0,1-.094-2.068c0-.752.047-1.833.141-3.713l.94-14.9c.188-2.538.329-4.512.564-6.345H50.008c.188,1.457.423,4,.564,6.345l.94,14.9c.188,2.82.188,2.82.188,3.337a21.246,21.246,0,0,1-.094,2.444Zm.846,12.079V62.574H50.807v8.883Z" transform="translate(1560 5472)" fill="#bb1c21"/>
    </g>
    <g id="b" transform="translate(1388.001 5297.333)">
      <g id="c" transform="translate(-0.001 -0.002)">
        <g id="Group_211" data-name="Group 211">
          <path id="Path_70" data-name="Path 70" d="M289.4,193.854l1.694-4.36s-.123-3.651-.521-6.417-1.2-5.432,0-6.64a17.045,17.045,0,0,1,3.4-2.372s6.609-8.076,7.529-8.737,2.569-.832,1.532,1.16-3.672,6.084-3.672,6.084a4.612,4.612,0,0,1,3.121.608c1.409.941,2.692,2.863,3.243,3.257s.49,2.386.123,3.489a5.235,5.235,0,0,1-1.409,1.992s1.042.5-1.348,3.541-5.935,4.3-6.242,4.859-3.458,4.8-3.458,4.8l-3.988-1.265Z" transform="translate(-162.725 -92.707)" fill="#f9ddd0"/>
          <path id="Path_71" data-name="Path 71" d="M29.042,274.74c-.184.166-2.591,3.585-4.123,4.692s-1.532,1.6-3.672,2.377a36.423,36.423,0,0,1-9,1.768c-2.753.109-8.934.832-10.159.941s-3.121.665-1.409,2.1,3.06,2.434,8.2,2.434,8.443.5,9.363.5,1.1.5,1.1,1.825a5.466,5.466,0,0,1-.98,3.095c-.49.718,0,2.543,1.226,1.107a56.668,56.668,0,0,0,4.346-5.861,32.6,32.6,0,0,0,1.773-3.375c.98-2.1.061-.276.061-.276s4.25-4.557,7.065-7.6l-3.8-3.729Z" transform="translate(0.001 -154.482)" fill="#f9ddd0"/>
          <path id="Path_72" data-name="Path 72" d="M154.513,142.227c-2.959-.805-2.508-1.974-3.095-5.38a12.448,12.448,0,0,1,0-5.288l-5.489.792-5.489-.792a12.448,12.448,0,0,1,0,5.288c-.582,3.405-.136,4.57-3.095,5.38s-8.426,2.6-8.426,2.6l.8,10.4h32.421l.8-10.4s-5.467-1.795-8.426-2.6Z" transform="translate(-72.489 -73.974)" fill="#fadfd3"/>
          <path id="Path_73" data-name="Path 73" d="M135.689,57.226H139.9s-.346,3.046,3.594,6.277,8.08,2.959,10.448,1.164,2.049-6.815.232-9.056-6.386-4.3-6.386-4.3,9.77-6.9,11.118-19.006S154.694,5.5,140.176,1.15a27.354,27.354,0,0,0-24.932,5.007,24.916,24.916,0,0,0-10.3,16.2c-1.974,11.118-.985,11.923,2.779,19.723S128.97,57.226,128.97,57.226h6.723Z" transform="translate(-58.449 0.002)" fill="#e46666"/>
          <g id="Group_209" data-name="Group 209" transform="translate(47.567 33.75)">
            <path id="Path_74" data-name="Path 74" d="M218.679,82.162c-.77,2.193-3.051,3.734-4,3.681-1.558-.083-2.07-2.609-1.488-5.007s2.28-4.049,3.795-3.681C219.025,77.653,219.5,79.833,218.679,82.162Z" transform="translate(-167.309 -77.103)" fill="#f9dacd"/>
            <path id="Path_75" data-name="Path 75" d="M109.051,82.162c.77,2.193,3.051,3.734,4,3.681,1.558-.083,2.07-2.609,1.488-5.007s-2.281-4.049-3.795-3.681C108.705,77.653,108.232,79.833,109.051,82.162Z" transform="translate(-108.67 -77.103)" fill="#f9dacd"/>
          </g>
          <path id="Path_76" data-name="Path 76" d="M161.361,32.006c0,17.977-10.531,32.548-22.59,32.548s-22.59-14.571-22.59-32.548S126.3,10.23,138.77,10.23s22.59,3.8,22.59,21.776Z" transform="translate(-65.326 -5.751)" fill="#f9dacd"/>
          <ellipse id="Ellipse_21" data-name="Ellipse 21" cx="1.703" cy="2.175" rx="1.703" ry="2.175" transform="translate(63.837 32.799)" fill="#333"/>
          <path id="Path_77" data-name="Path 77" d="M142.36,76.67a11.377,11.377,0,0,0,2.823,1.414" transform="translate(-80.046 -43.11)" fill="#fff" stroke="#333" stroke-linecap="round" stroke-miterlimit="10" stroke-width="1.3"/>
          <ellipse id="Ellipse_22" data-name="Ellipse 22" cx="1.703" cy="2.175" rx="1.703" ry="2.175" transform="translate(80.115 32.799)" fill="#333"/>
          <path id="Path_78" data-name="Path 78" d="M190.663,76.67a11.378,11.378,0,0,1-2.823,1.414" transform="translate(-105.619 -43.11)" fill="#fff" stroke="#333" stroke-linecap="round" stroke-miterlimit="10" stroke-width="1.3"/>
          <path id="Path_79" data-name="Path 79" d="M132.12,63.679s3.095-4.215,10.085-2.688" transform="translate(-74.289 -34.106)" fill="none" stroke="#333" stroke-linecap="round" stroke-miterlimit="10" stroke-width="1.3"/>
          <path id="Path_80" data-name="Path 80" d="M165.781,89.57s-3.274,1.838,0,3" transform="translate(-92.397 -50.363)" fill="none" stroke="#333" stroke-linecap="round" stroke-miterlimit="10" stroke-width="1.3"/>
          <path id="Path_81" data-name="Path 81" d="M155.87,106.63s5.6,5.38,11.07.267" transform="translate(-87.643 -59.956)" fill="none" stroke="#333" stroke-linecap="round" stroke-miterlimit="10" stroke-width="1.3"/>
          <path id="Path_82" data-name="Path 82" d="M122,18.19S119.4,31.908,111.7,35.313a53,53,0,0,1,0-14.523c1.164-6.9,6.636-15.959,25.462-15.241s23.982,13.538,23.4,22.59-1.335,8.759-1.335,8.759S128.28,29.754,122,18.19Z" transform="translate(-62.513 -3.096)" fill="#e46666"/>
          <g id="Group_210" data-name="Group 210" transform="translate(56.434 70.853)">
            <path id="Path_83" data-name="Path 83" d="M128.929,161.87a4.214,4.214,0,0,0,1.059,2.631c-.4-1.453-.613-2.364-.613-2.364Z" transform="translate(-128.928 -161.87)" fill="#f1a69a"/>
            <path id="Path_84" data-name="Path 84" d="M205.279,161.87l-.446.267s-.21.91-.613,2.364A4.214,4.214,0,0,0,205.279,161.87Z" transform="translate(-171.264 -161.87)" fill="#f1a69a"/>
            <path id="Path_85" data-name="Path 85" d="M147.306,172.507c-10.247-.105-14.331-2.591-15.946-4.627a67.6,67.6,0,0,0,5.1,13.324c2.731,5.025,7.8,6.995,10.19,7.669v.306s.241-.039.652-.14c.411.1.652.14.652.14v-.306c2.386-.674,7.459-2.644,10.19-7.669a67.6,67.6,0,0,0,5.1-13.324C161.637,169.915,157.553,172.4,147.306,172.507Z" transform="translate(-130.295 -165.249)" fill="#f1a69a"/>
          </g>
          <ellipse id="Ellipse_23" data-name="Ellipse 23" cx="3.532" cy="2.175" rx="3.532" ry="2.175" transform="translate(80.912 38.327)" fill="#f9c8c2"/>
          <ellipse id="Ellipse_24" data-name="Ellipse 24" cx="3.532" cy="2.175" rx="3.532" ry="2.175" transform="translate(57.831 38.327)" fill="#f9c8c2"/>
          <path id="Path_86" data-name="Path 86" d="M221.63,187.26s10.186,16.37,13.245,20.686a62.622,62.622,0,0,0,6.916,8.076c.858.884,1.834,1.16,3.427-.5s11.626-15.154,11.626-15.154l-6.426-3.7a52.209,52.209,0,0,0-6.548,10.895C235.243,191.747,222.7,172.61,222.7,172.61l-1.068,14.655Z" transform="translate(-124.619 -97.055)" fill="#f9c8c2"/>
          <path id="Path_87" data-name="Path 87" d="M84.917,169.6s-2.14.552-3.55,6.137-2.447,11.337-4.224,17.364-2.753,8.185-4.832,11.446-7.831,10.671-7.831,10.671l5.384,4.81s2.937-4.2,6.3-8.295,10.374-20.673,10.374-20.673L84.917,169.6Z" transform="translate(-36.256 -95.363)" fill="#f9c8c2"/>
          <path id="Path_88" data-name="Path 88" d="M148.14,209.751c-.127-9.034,5.949-44.839,5.949-44.839s-5.651-3.344-9.249-3.642c0,0-7.065,20.13-16.471,22.621C118.962,181.4,111.9,161.27,111.9,161.27c-3.6.3-9.249,3.642-9.249,3.642s6.071,35.8,5.949,44.839S97.68,240.658,97.68,240.658v.845h61.376v-.845S148.267,218.786,148.14,209.751Z" transform="translate(-54.924 -90.679)" fill="#fdf7ea"/>
        </g>
      </g>
    </g>
    <g id="Group_220" data-name="Group 220" transform="translate(-220 183)">
      <g id="Group_66" data-name="Group 66" transform="translate(806.127 777.094)">
        <path id="Path_22" data-name="Path 22" d="M-12642.582-3699.807l8.572,8.572-8.572,8.573" transform="translate(13140.302 8122.603)" fill="none" stroke="#fff" stroke-linecap="round" stroke-linejoin="round" stroke-width="2"/>
        <line id="Line_30" data-name="Line 30" x2="536.419" transform="translate(-30.127 4431.368)" fill="none" stroke="#fff" stroke-linecap="round" stroke-width="2"/>
      </g>
      <g id="Group_74" data-name="Group 74" transform="translate(1035.346 777.094)">
        <path id="Path_22-2" data-name="Path 22" d="M-12642.582-3699.807l8.572,8.572-8.572,8.573" transform="translate(13140.302 8122.603)" fill="none" stroke="#fff" stroke-linecap="round" stroke-linejoin="round" stroke-width="2"/>
        <line id="Line_30-2" data-name="Line 30" x2="26.5" transform="translate(479.792 4431.368)" fill="none" stroke="#fff" stroke-linecap="round" stroke-width="2"/>
      </g>
      <text id="メーカー" transform="translate(637 5282.694)" fill="#fff" font-size="20" font-family="NotoSansJP-Bold, Noto Sans JP" font-weight="700"><tspan x="-40" y="0">メーカー</tspan></text>
      <g id="Layer_2" data-name="Layer 2" transform="translate(615 5185.89)">
        <g id="Group_59" data-name="Group 59">
          <path id="Path_7" data-name="Path 7" d="M1,44.11H43.23V16.67L29.25,28.55V17.08L11.72,29.89,10.9,1H3.33Z" fill="none" stroke="#fff" stroke-linecap="round" stroke-linejoin="round" stroke-width="2"/>
          <line id="Line_9" data-name="Line 9" x2="3.9" transform="translate(13.12 35.37)" fill="none" stroke="#fff" stroke-linecap="round" stroke-linejoin="round" stroke-width="2"/>
          <line id="Line_10" data-name="Line 10" x2="3.91" transform="translate(22.84 35.37)" fill="none" stroke="#fff" stroke-linecap="round" stroke-linejoin="round" stroke-width="2"/>
          <line id="Line_11" data-name="Line 11" x2="3.91" transform="translate(32.57 35.37)" fill="none" stroke="#fff" stroke-linecap="round" stroke-linejoin="round" stroke-width="2"/>
        </g>
      </g>
      <text id="神奈川給湯器_交換センター" data-name="神奈川給湯器
交換センター" transform="translate(1428.028 5288.42)" fill="#fff" font-size="20" font-family="NotoSansJP-Bold, Noto Sans JP" font-weight="700"><tspan x="-60" y="0">神奈川給湯器</tspan><tspan x="-60" y="29">交換センター</tspan></text>
      <g id="Layer_2-2" data-name="Layer 2" transform="translate(1405.438 5176.89)">
        <rect id="Rectangle_48" data-name="Rectangle 48" width="43.18" height="57.2" rx="2.95" transform="translate(1 1)" fill="none" stroke="#fff" stroke-linecap="round" stroke-linejoin="round" stroke-width="2"/>
        <rect id="Rectangle_49" data-name="Rectangle 49" width="27.19" height="4.8" rx="2.4" transform="translate(9 9.67)" fill="none" stroke="#fff" stroke-linecap="round" stroke-linejoin="round" stroke-width="2"/>
        <g id="Group_64" data-name="Group 64">
          <line id="Line_23" data-name="Line 23" x2="7.01" transform="translate(6.81 52.36)" fill="none" stroke="#fff" stroke-linecap="round" stroke-linejoin="round" stroke-width="2"/>
          <line id="Line_24" data-name="Line 24" x2="7.01" transform="translate(18.37 52.36)" fill="none" stroke="#fff" stroke-linecap="round" stroke-linejoin="round" stroke-width="2"/>
          <line id="Line_25" data-name="Line 25" x2="7.01" transform="translate(31.36 52.36)" fill="none" stroke="#fff" stroke-linecap="round" stroke-linejoin="round" stroke-width="2"/>
        </g>
        <g id="Group_65" data-name="Group 65">
          <line id="Line_26" data-name="Line 26" y1="3.91" transform="translate(8.09 58.31)" fill="none" stroke="#fff" stroke-linecap="round" stroke-linejoin="round" stroke-width="2"/>
          <line id="Line_27" data-name="Line 27" y1="3.91" transform="translate(17.76 58.31)" fill="none" stroke="#fff" stroke-linecap="round" stroke-linejoin="round" stroke-width="2"/>
          <line id="Line_28" data-name="Line 28" y1="3.91" transform="translate(27.42 58.31)" fill="none" stroke="#fff" stroke-linecap="round" stroke-linejoin="round" stroke-width="2"/>
          <line id="Line_29" data-name="Line 29" y1="3.91" transform="translate(37.08 58.31)" fill="none" stroke="#fff" stroke-linecap="round" stroke-linejoin="round" stroke-width="2"/>
        </g>
      </g>
      <g id="Group_218" data-name="Group 218" transform="translate(45.585 10.034)">
        <text id="コストカット_" data-name="コストカット！" transform="translate(1008 5286)" fill="#fff" font-size="35" font-family="HiraKakuStd-W8, Hiragino Kaku Gothic Std"><tspan x="-121.975" y="0">コストカット！</tspan></text>
        <g id="Group_213" data-name="Group 213" transform="translate(16493.635 10472.744)">
          <path id="Path_66" data-name="Path 66" d="M-15619.635-5177.9l-21.7-44.841-6.884,4.271Z" fill="#fff"/>
          <path id="Path_67" data-name="Path 67" d="M-15648.221-5177.9l21.7-44.841,6.884,4.271Z" transform="translate(277.001)" fill="#fff"/>
        </g>
      </g>
    </g>
    <text id="お客様-2" data-name="お客様" transform="translate(390 5508)" fill="none" font-size="20" font-family="NotoSansJP-Bold, Noto Sans JP" font-weight="700"><tspan x="-30" y="0">お客様</tspan></text>
  </g>
</svg>
