<svg xmlns="http://www.w3.org/2000/svg" width="112.394" height="83.755" viewBox="0 0 112.394 83.755">
  <g id="Layer_3" transform="translate(1.962 1.5)">
    <g id="Group_287" data-name="Group 287">
      <path id="Path_559" data-name="Path 559" d="M124.017,0l-2.345,8.637h-3.559l-2.556,9.387-1.037,3.814h7.112l1.031-3.81h17.782L143,8.637,145.352,0Z" transform="translate(-36.883)" fill="none" stroke="#003cb3" stroke-width="3"/>
      <path id="Path_560" data-name="Path 560" d="M86.685,63.336H55.2l-2.624,9.648H75.424l-1.105,4.061-.556,2.03-1.932,7.112H86.047l1.939-7.112h6.6l-1.939,7.112H100.3l1.973-7.112.562-2.034,1.132-4.061,2.671-9.648L113.4,38.951H93.321Z" transform="translate(-16.933 -12.546)" fill="none" stroke="#003cb3" stroke-width="3"/>
      <path id="Path_561" data-name="Path 561" d="M0,115.742H5.586l1.939-7.112H1.932Z" transform="translate(0 -34.987)" fill="none" stroke="#003cb3" stroke-width="3"/>
      <path id="Path_562" data-name="Path 562" d="M49.2,97.174l-1.932,7.112H65.045l1.932-7.112.556-2.034H49.76Z" transform="translate(-15.225 -30.642)" fill="none" stroke="#003cb3" stroke-width="3"/>
      <path id="Path_563" data-name="Path 563" d="M19.024,74.919,16.4,84.566h5.22l-1.107,4.06-.556,2.034-1.932,7.112H32.752L34.69,90.66l.549-2.034,1.112-4.061,2.624-9.648Z" transform="translate(-5.282 -24.13)" fill="none" stroke="#003cb3" stroke-width="3"/>
    </g>
  </g>
</svg>
