<svg id="Group_169" data-name="Group 169" xmlns="http://www.w3.org/2000/svg" xmlns:xlink="http://www.w3.org/1999/xlink" width="74.394" height="102" viewBox="0 0 74.394 102">
  <defs>
    <clipPath id="clip-path">
      <rect id="Rectangle_2076" data-name="Rectangle 2076" width="74.394" height="102" fill="none" stroke="#003cb3" stroke-width="3"/>
    </clipPath>
  </defs>
  <g id="Group_168" data-name="Group 168" clip-path="url(#clip-path)">
    <path id="Rectangle_2066" data-name="Rectangle 2066" d="M5.986,0H66.408a5.986,5.986,0,0,1,5.986,5.986V94.015A5.985,5.985,0,0,1,66.409,100H5.986A5.986,5.986,0,0,1,0,94.014V5.986A5.986,5.986,0,0,1,5.986,0Z" transform="translate(1 1)" fill="none" stroke="#003cb3" stroke-linecap="round" stroke-linejoin="round" stroke-width="3"/>
    <rect id="Rectangle_2067" data-name="Rectangle 2067" width="50.986" height="16.62" transform="translate(11.352 11.493)" fill="none" stroke="#003cb3" stroke-linecap="round" stroke-linejoin="round" stroke-width="3"/>
    <rect id="Rectangle_2068" data-name="Rectangle 2068" width="11.761" height="11.761" transform="translate(11.14 37.267)" fill="none" stroke="#003cb3" stroke-linecap="round" stroke-linejoin="round" stroke-width="3"/>
    <rect id="Rectangle_2069" data-name="Rectangle 2069" width="11.761" height="11.761" transform="translate(31.07 37.267)" fill="none" stroke="#003cb3" stroke-linecap="round" stroke-linejoin="round" stroke-width="3"/>
    <rect id="Rectangle_2070" data-name="Rectangle 2070" width="11.761" height="11.761" transform="translate(51 37.267)" fill="none" stroke="#003cb3" stroke-linecap="round" stroke-linejoin="round" stroke-width="3"/>
    <rect id="Rectangle_2071" data-name="Rectangle 2071" width="11.761" height="11.761" transform="translate(11.14 58.112)" fill="none" stroke="#003cb3" stroke-linecap="round" stroke-linejoin="round" stroke-width="3"/>
    <rect id="Rectangle_2072" data-name="Rectangle 2072" width="11.761" height="11.761" transform="translate(31.07 58.112)" fill="none" stroke="#003cb3" stroke-linecap="round" stroke-linejoin="round" stroke-width="3"/>
    <rect id="Rectangle_2073" data-name="Rectangle 2073" width="11.761" height="11.761" transform="translate(11.14 78.957)" fill="none" stroke="#003cb3" stroke-linecap="round" stroke-linejoin="round" stroke-width="3"/>
    <rect id="Rectangle_2074" data-name="Rectangle 2074" width="11.761" height="11.761" transform="translate(31.07 78.957)" fill="none" stroke="#003cb3" stroke-linecap="round" stroke-linejoin="round" stroke-width="3"/>
    <rect id="Rectangle_2075" data-name="Rectangle 2075" width="11.761" height="32.676" transform="translate(51 58.042)" fill="none" stroke="#003cb3" stroke-linecap="round" stroke-linejoin="round" stroke-width="3"/>
  </g>
</svg>
