<svg xmlns="http://www.w3.org/2000/svg" width="104.659" height="102.276" viewBox="0 0 104.659 102.276">
  <g id="Layer_2-2" transform="translate(0.674 0.5)">
    <g id="Group_147" data-name="Group 147" transform="translate(1 1)">
      <path id="Path_1678" data-name="Path 1678" d="M28.625,38.328a19.483,19.483,0,1,1,16.208-.178" transform="translate(8.946 -1)" fill="none" stroke="#003cb3" stroke-linecap="round" stroke-linejoin="round" stroke-width="3"/>
      <path id="Path_1679" data-name="Path 1679" d="M20.79,27.073A25.277,25.277,0,0,1,34.7,23.28a24.939,24.939,0,0,1,13.388,3.452" transform="translate(11.286 12.832)" fill="none" stroke="#003cb3" stroke-linecap="round" stroke-linejoin="round" stroke-width="3"/>
      <path id="Path_1680" data-name="Path 1680" d="M46.207,36.1c7.164,5.754,12.091-.276,13.777-2.545,1.183-1.588.94-9.466.7-14.053a3.038,3.038,0,0,0-3.582-2.82c-4.392.778-11.751,2.593-13.437,6.111C41.215,27.9,41.863,32.612,46.207,36.1Z" transform="translate(24.607 8.703)" fill="none" stroke="#003cb3" stroke-linecap="round" stroke-linejoin="round" stroke-width="3"/>
      <path id="Path_1681" data-name="Path 1681" d="M39.85,19.03a23.724,23.724,0,0,1,6.159,1.037" transform="translate(23.12 10.194)" fill="none" stroke="#003cb3" stroke-linecap="round" stroke-linejoin="round" stroke-width="3"/>
      <path id="Path_1682" data-name="Path 1682" d="M82.39,29.688s5.673,6.71,7.456,12.173l5.073.648a3.373,3.373,0,0,1,2.934,3.469l-.34,8.85a3.367,3.367,0,0,1-2.658,3.161l-7.261,1.54A39.306,39.306,0,0,1,72.551,72.462l-2.8,15.106H59.357L56.91,77.843l-19.256.276-.843,9.449H26.049l-1.8-11.7S7.734,64.633,8.479,46.593,22.354,21.47,22.354,21.47" transform="translate(3.628 11.709)" fill="none" stroke="#003cb3" stroke-linecap="round" stroke-linejoin="round" stroke-width="3"/>
      <path id="Path_1683" data-name="Path 1683" d="M55.667,34.03a3.8,3.8,0,0,1-3.533,4.02A3.8,3.8,0,0,1,48.6,34.03" transform="translate(28.552 19.506)" fill="none" stroke="#003cb3" stroke-linecap="round" stroke-linejoin="round" stroke-width="3"/>
      <path id="Path_1684" data-name="Path 1684" d="M12.427,38.3s-5.705.681-7.975-1.443c-1.232-1.151-2.593-4.49-1.28-5.9s4.749.065,5.884,2.156S8.553,44.082,1,45.022" transform="translate(-1 17.251)" fill="none" stroke="#003cb3" stroke-linecap="round" stroke-linejoin="round" stroke-width="3"/>
    </g>
  </g>
</svg>
