<svg xmlns="http://www.w3.org/2000/svg" width="17.5" height="17.5" viewBox="0 0 17.5 17.5">
  <path id="Icon_awesome-twitter-square" data-name="Icon awesome-twitter-square" d="M15.625,1.25H1.875A1.875,1.875,0,0,0,0,3.125v13.75A1.875,1.875,0,0,0,1.875,18.75h13.75A1.875,1.875,0,0,0,17.5,16.875V3.125A1.875,1.875,0,0,0,15.625,1.25Zm-1.91,6.2c.008.109.008.223.008.332a7.239,7.239,0,0,1-7.289,7.289A7.255,7.255,0,0,1,2.5,13.926a5.4,5.4,0,0,0,.617.031A5.136,5.136,0,0,0,6.3,12.863,2.565,2.565,0,0,1,3.9,11.086a2.761,2.761,0,0,0,1.156-.047A2.562,2.562,0,0,1,3.008,8.523V8.492a2.56,2.56,0,0,0,1.156.324A2.557,2.557,0,0,1,3.023,6.684a2.53,2.53,0,0,1,.348-1.293A7.274,7.274,0,0,0,8.652,8.07a2.567,2.567,0,0,1,4.371-2.34,5.02,5.02,0,0,0,1.625-.617,2.555,2.555,0,0,1-1.125,1.41A5.1,5.1,0,0,0,15,6.125,5.393,5.393,0,0,1,13.715,7.453Z" transform="translate(0 -1.25)" fill="#fff"/>
</svg>
