<svg xmlns="http://www.w3.org/2000/svg" width="17.5" height="17.5" viewBox="0 0 17.5 17.5">
  <path id="Icon_awesome-facebook-square" data-name="Icon awesome-facebook-square" d="M15.625,1.25H1.875A1.875,1.875,0,0,0,0,3.125v13.75A1.875,1.875,0,0,0,1.875,18.75H7.236V12.8H4.775V10H7.236V7.866A3.418,3.418,0,0,1,10.9,4.1a14.909,14.909,0,0,1,2.169.189V6.669H11.843a1.4,1.4,0,0,0-1.579,1.513V10H12.95l-.43,2.8H10.264v5.95h5.361A1.875,1.875,0,0,0,17.5,16.875V3.125A1.875,1.875,0,0,0,15.625,1.25Z" transform="translate(0 -1.25)" fill="#fff"/>
</svg>
