<svg id="Group_48" data-name="Group 48" xmlns="http://www.w3.org/2000/svg" xmlns:xlink="http://www.w3.org/1999/xlink" width="540.629" height="530.482" viewBox="0 0 540.629 530.482">
  <defs>
    <clipPath id="clip-path">
      <rect id="Rectangle_2037" data-name="Rectangle 2037" width="540.629" height="530.482" fill="none"/>
    </clipPath>
  </defs>
  <g id="Group_47" data-name="Group 47" clip-path="url(#clip-path)">
    <path id="Path_1496" data-name="Path 1496" d="M58.5,130.175a20.864,20.864,0,1,1-20.864-20.864A20.864,20.864,0,0,1,58.5,130.175" transform="translate(43.918 286.149)" fill="#fff"/>
    <path id="Path_1497" data-name="Path 1497" d="M205.474,140.042S209.7,69.745,266.8,39.834C339.823,1.583,405.152-4.809,471.009,65.44c66.386,70.807,60.565,121.1,28.45,166.909-38.565,55-257.316,42.99-456.47-26.554L0,269.014s114.748,41.427,315.482,50.58c194.092,8.853,223.175-68.911,225.071-123.915S508.146,68.5,440.031,25.609C371.749-17.385,269.96-2.841,226.337,43.943c-42.859,45.964-20.864,96.1-20.864,96.1" transform="translate(0 -0.002)" fill="#fff"/>
    <path id="Path_1498" data-name="Path 1498" d="M244.209,94.771q-30.042-1.368-58.137-3.332c19.963,58.438,30.693,108.789-2.558,137.366-40.461,34.77-89.141,24.022-153.631-22.763,45.522,55,132.138,104.951,192.83,77.134C274.584,259.4,326.379,216.161,298.143,94.8c-16.7.814-34.622.85-53.933-.029" transform="translate(78.226 239.365)" fill="#fff"/>
    <path id="Path_1499" data-name="Path 1499" d="M189.346,7.078C39.13,28.752,50.081,137.646,74.468,218.709a1166.651,1166.651,0,0,0,117.157,12.362C131.4,70.088,155.021,46.305,189.346,7.078" transform="translate(157.115 18.528)" fill="#fff"/>
  </g>
</svg>
