<svg id="_15666_line" data-name="15666_line" xmlns="http://www.w3.org/2000/svg" width="91.749" height="135.592" viewBox="0 0 91.749 135.592">
  <path id="Path_2388" data-name="Path 2388" d="M76.135,147.491c.566,1.584,1.181,3.154,1.829,4.707v-.548a92.269,92.269,0,0,0-1.741,13.745c-.058,1.325,2,1.323,2.06,0a82.8,82.8,0,0,1,.887-9.082c.136-.875.308-1.744.481-2.613.086-.439.184-.878.263-1.318a1.907,1.907,0,0,0-.161-1.208c-.572-1.4-1.124-2.808-1.631-4.231a1.057,1.057,0,0,0-1.267-.719,1.039,1.039,0,0,0-.719,1.267Z" transform="translate(-43.451 -83.455)" fill="#003cb3"/>
  <path id="Path_2389" data-name="Path 2389" d="M93.586,146.826c-.306.949-.589,1.9-.862,2.864a19.128,19.128,0,0,0-.766,2.815,7.59,7.59,0,0,0,.234,1.946q.533,3.408,1.159,6.8c.174.949.337,1.9.567,2.842.316,1.287,2.3.742,1.986-.548-.46-1.874-.747-3.8-1.073-5.7q-.287-1.674-.558-3.347c-.065-.4-.129-.809-.189-1.214-.023-.153-.043-.306-.067-.458-.033-.215.018.224.009.065a.552.552,0,0,1-.016-.139c0-.012.013-.153,0-.051-.022.145.058-.146.055-.136.049-.147.086-.3.125-.452q.22-.794.444-1.588c.3-1.054.607-2.105.944-3.148.408-1.265-1.58-1.806-1.986-.548Z" transform="translate(-52.502 -83.409)" fill="#003cb3"/>
  <path id="Path_2390" data-name="Path 2390" d="M82,159.989c1.311-.051,2.623-.106,3.936-.129a1.03,1.03,0,0,0,0-2.06c-1.312.023-2.625.078-3.936.129a1.03,1.03,0,1,0,0,2.06Z" transform="translate(-46.228 -90.082)" fill="#003cb3"/>
  <path id="Path_2391" data-name="Path 2391" d="M75.251,144.2a54.168,54.168,0,0,1,4.344-4.183l-1.248.161c2.076,1.351,4.214,2.606,6.222,4.061a1.038,1.038,0,0,0,1.409-.369,1.054,1.054,0,0,0-.369-1.409c-2.007-1.455-4.145-2.71-6.222-4.061a1.051,1.051,0,0,0-1.248.161,54.031,54.031,0,0,0-4.344,4.181c-.9.974.558,2.434,1.456,1.456Z" transform="translate(-41.973 -78.931)" fill="#003cb3"/>
  <path id="Path_2392" data-name="Path 2392" d="M138.478,197.621a80.056,80.056,0,0,0,9.6-3.875c3.454-1.669,7.144-3.636,9.469-6.78a18.222,18.222,0,0,0,3-8.919,33.27,33.27,0,0,0-.392-8.38A147.684,147.684,0,0,0,154.32,145.1a45.884,45.884,0,0,0-5.144-11.509,20.471,20.471,0,0,0-8.645-7.014c-1.874-.858-3.829-1.518-5.766-2.214-1.986-.714-3.974-1.423-5.971-2.108-.434-.148-.867-.3-1.3-.442s.039.057-.084-.02c-.089-.056-.191-.1-.284-.149-.472-.263-.919-.566-1.365-.868-.992-.671-1.964-1.373-2.928-2.084q-.278-.2-.555-.412a1.037,1.037,0,0,0-1.409.369,1.055,1.055,0,0,0,.369,1.409,47.637,47.637,0,0,0,4.784,3.326,9.2,9.2,0,0,0,1.648.658q1.416.481,2.826.979c1.923.676,3.841,1.368,5.758,2.06a24.568,24.568,0,0,1,9.669,5.7,17.532,17.532,0,0,1,2.713,3.912,45.452,45.452,0,0,1,2.5,5.523,121.379,121.379,0,0,1,3.939,12.929c1.011,3.922,1.9,7.88,2.6,11.871.957,5.493,1.726,11.29-.561,16.577a11.352,11.352,0,0,1-3.079,4.153,26.3,26.3,0,0,1-4.506,2.948,68.356,68.356,0,0,1-9.662,4.274q-.96.347-1.928.669c-1.252.416-.716,2.406.548,1.986Z" transform="translate(-68.93 -67.442)" fill="#003cb3"/>
  <path id="Path_2393" data-name="Path 2393" d="M144.48,255.02c2.325-.987,4.561-2.136,6.832-3.236a1.039,1.039,0,0,0,.369-1.409,1.052,1.052,0,0,0-1.409-.369c-2.271,1.1-4.506,2.25-6.832,3.236a1.037,1.037,0,0,0-.369,1.409A1.058,1.058,0,0,0,144.48,255.02Z" transform="translate(-81.602 -142.643)" fill="#003cb3"/>
  <path id="Path_2394" data-name="Path 2394" d="M18.39,185.443A9.845,9.845,0,0,1,5.249,185a9.637,9.637,0,0,1-2.236-3.389,15.441,15.441,0,0,1-.758-3.668,40.154,40.154,0,0,1,.036-8.035c.3-3.222.805-6.426,1.347-9.615.461-2.717.987-5.423,1.617-8.106.562-2.389,1.211-4.757,1.921-7.106a23.937,23.937,0,0,1,2.94-6.177c1.462-2.222,3.91-3.551,6.235-4.69a80.489,80.489,0,0,1,8-3.321c.589-.215,1.179-.429,1.773-.626,1.251-.417.715-2.407-.548-1.986-2.875.959-5.715,2.081-8.481,3.321a23.965,23.965,0,0,0-7.244,4.43,14.056,14.056,0,0,0-2.34,3.234,31.905,31.905,0,0,0-1.786,3.648A36.91,36.91,0,0,0,4.6,146.53q-.533,1.861-1,3.742A137.911,137.911,0,0,0,.34,168.82a43.539,43.539,0,0,0-.2,8.606,21.632,21.632,0,0,0,.675,4.1,11.621,11.621,0,0,0,2.2,4.077,11.889,11.889,0,0,0,15.178,2.5,12.049,12.049,0,0,0,1.647-1.21c1.005-.868-.457-2.317-1.456-1.456Z" transform="translate(-0.016 -73.199)" fill="#003cb3"/>
  <path id="Path_2395" data-name="Path 2395" d="M150.338,210.576l3.454,12.644a1.031,1.031,0,0,0,1.986-.548l-3.455-12.642a1.031,1.031,0,0,0-1.986.548Z" transform="translate(-85.807 -119.483)" fill="#003cb3"/>
  <path id="Path_2396" data-name="Path 2396" d="M81.759,80.8c-.281-1.03,0-3.366,1.936-3.5,2.55.1,2.595,2.935,1.693,4.24A2.021,2.021,0,0,1,81.759,80.8Z" transform="translate(-46.628 -44.123)" fill="#003cb3"/>
  <path id="Path_2397" data-name="Path 2397" d="M46.442,80.751c-.257-1.032,0-3.376,1.773-3.514,2.336.1,2.376,2.944,1.55,4.253C49.089,82.562,47.182,82.95,46.442,80.751Z" transform="translate(-26.471 -44.091)" fill="#003cb3"/>
  <path id="Path_2398" data-name="Path 2398" d="M63.259,90.19c-.329.558-.644,1.123-.923,1.706a2.432,2.432,0,0,0-.289.953,1.373,1.373,0,0,0,.466,1.086,2.1,2.1,0,0,0,.868.493,4.946,4.946,0,0,0,.641.086l-.274-.036.025,0a1.132,1.132,0,0,0,.793-.1,1.03,1.03,0,0,0,.369-1.409.99.99,0,0,0-.615-.472c-.182-.026-.363-.043-.544-.065l.274.037A1.1,1.1,0,0,1,63.8,92.4l.246.1a1.169,1.169,0,0,1-.21-.125l.209.161a1.277,1.277,0,0,1-.175-.162l.161.208a.3.3,0,0,1-.036-.061l.1.246a.468.468,0,0,1-.027-.1l.037.274a.686.686,0,0,1,0-.111l-.037.274a1.156,1.156,0,0,1,.079-.27l-.1.246a17.454,17.454,0,0,1,.992-1.85,1.03,1.03,0,1,0-1.777-1.04Z" transform="translate(-35.427 -51.181)" fill="#003cb3"/>
  <path id="Path_2399" data-name="Path 2399" d="M122.316,75.4a2.431,2.431,0,0,1,2.969.231,1.519,1.519,0,0,1,.1.114c-.012-.014-.082-.114-.017-.021.049.07.094.142.136.215a2.036,2.036,0,0,1,.2.486,5.351,5.351,0,0,1,.149,1.762,7.715,7.715,0,0,1-3.433,6.06,4.205,4.205,0,0,1-3.365.383,1.06,1.06,0,0,0-1.409.369,1.038,1.038,0,0,0,.369,1.409,6.1,6.1,0,0,0,4.9-.121,7.988,7.988,0,0,0,3.55-3.382,10.351,10.351,0,0,0,1.44-4.558,5.467,5.467,0,0,0-1.124-4.136,4.443,4.443,0,0,0-5.5-.591c-1.094.736-.065,2.521,1.04,1.779Z" transform="translate(-67.088 -41.635)" fill="#003cb3"/>
  <path id="Path_2400" data-name="Path 2400" d="M70.629,108.663c-.081.046-.163.086-.245.129-.209.109.144-.051.012,0l-.14.054a5.66,5.66,0,0,1-.644.19q-.16.037-.322.067l-.164.028c-.266.045.139-.011-.017,0-.238.021-.475.043-.714.048a6.5,6.5,0,0,1-.659-.021l-.1-.007c.144.011-.028,0-.057-.009-.1-.017-.2-.036-.3-.059a9.823,9.823,0,0,1-1.4-.492,1.033,1.033,0,0,0-1.267.719,1.061,1.061,0,0,0,.72,1.267,9.209,9.209,0,0,0,1.478.509,7.447,7.447,0,0,0,4.864-.644,1.03,1.03,0,1,0-1.04-1.779Z" transform="translate(-36.87 -61.952)" fill="#003cb3"/>
  <path id="Path_2401" data-name="Path 2401" d="M97.334,113.826a25.762,25.762,0,0,0,6.1-4.38,24.408,24.408,0,0,0,2.661-3.218,20.582,20.582,0,0,0,1.781-2.9,1.057,1.057,0,0,0-.369-1.409,1.039,1.039,0,0,0-1.409.369,22.2,22.2,0,0,1-9.81,9.764c-1.175.616-.134,2.394,1.04,1.778Z" transform="translate(-54.683 -58.101)" fill="#003cb3"/>
  <path id="Path_2402" data-name="Path 2402" d="M32.051,72.485c.468,3.5.707,7.038,1.205,10.536a22.257,22.257,0,0,0,2.635,8.162,17.015,17.015,0,0,0,14.683,7.951,25.383,25.383,0,0,0,10.376-2.618,1.039,1.039,0,0,0,.369-1.409,1.054,1.054,0,0,0-1.409-.369c-4.984,2.3-10.871,3.4-16.007.9A14.462,14.462,0,0,1,38,90.672a19.377,19.377,0,0,1-2.622-7.348c-.608-3.581-.784-7.239-1.264-10.839a1.064,1.064,0,0,0-1.03-1.03c-.5,0-1.1.475-1.03,1.03Z" transform="translate(-18.3 -40.79)" fill="#003cb3"/>
  <path id="Path_2403" data-name="Path 2403" d="M72.064,6.256A18.9,18.9,0,0,0,61.522.523,29.2,29.2,0,0,0,49.038.841,24.709,24.709,0,0,0,38.4,6.5a21.342,21.342,0,0,0-2.221,2.36c-.581.73-1.242,1.38-1.8,2.133a19.072,19.072,0,0,0-2.658,5.321c-1.655,4.929-1.485,10.246-.564,15.306a1.039,1.039,0,0,0,1.267.719,1.052,1.052,0,0,0,.719-1.269,29.56,29.56,0,0,1,.125-12.745,19.488,19.488,0,0,1,2.179-5.235,11.243,11.243,0,0,1,1.4-1.861c.654-.693,1.223-1.459,1.881-2.152C44.046,3.461,52.042,1.333,59.646,2.3a17.5,17.5,0,0,1,10.96,5.417c.894.982,2.348-.478,1.456-1.456Z" transform="translate(-17.399 0.003)" fill="#003cb3"/>
  <path id="Path_2404" data-name="Path 2404" d="M135.118,44.517a24.558,24.558,0,0,0,1.609-6.11,29.351,29.351,0,0,0,.006-5.879,18.745,18.745,0,0,0-2.413-8.217,20.174,20.174,0,0,0-2.794-3.538c-.923-.955-2.378.5-1.456,1.457a15.484,15.484,0,0,1,3.736,5.854,25.275,25.275,0,0,1,.951,9.343,21.581,21.581,0,0,1-1.623,6.543,1.037,1.037,0,0,0,.719,1.267,1.054,1.054,0,0,0,1.267-.719Z" transform="translate(-74.092 -11.68)" fill="#003cb3"/>
  <path id="Path_2405" data-name="Path 2405" d="M120.842,136.451a14.362,14.362,0,0,1,1.256,2.209,5.6,5.6,0,0,1,.545,1.493V139.6q.424-.59.222-.4.251-.187.119-.094a1.562,1.562,0,0,0-.188.117c-.16.1-.326.184-.491.272-.521.277-1.052.537-1.582.8-1.06.518-2.127,1.02-3.189,1.534a1.04,1.04,0,0,0-.209,1.617c.7.756,1.41,1.508,2.1,2.271q.459.5.91,1.015c.282.32.745.687.83,1.127.054.282-.155.489-.3.715q-.307.466-.609.934-.655,1.012-1.3,2.033c-2.017,3.194-4,6.411-6.038,9.593q-1.992,3.111-4.057,6.174c-.745,1.1,1.039,2.133,1.778,1.04,2.51-3.709,4.911-7.49,7.287-11.286.991-1.583,1.978-3.169,2.978-4.747q.657-1.036,1.323-2.066a4.009,4.009,0,0,0,1.008-2.425c-.089-1.3-1.145-2.227-1.962-3.135s-1.659-1.8-2.493-2.7l-.208,1.617c1.725-.835,3.509-1.594,5.173-2.55a1.988,1.988,0,0,0,.769-.639,1.67,1.67,0,0,0-.064-1.437,15.228,15.228,0,0,0-1.831-3.574,1.058,1.058,0,0,0-1.409-.369A1.039,1.039,0,0,0,120.842,136.451Z" transform="translate(-62.052 -77.015)" fill="#003cb3"/>
  <path id="Path_2406" data-name="Path 2406" d="M62.287,133.03a91.96,91.96,0,0,0,2.2,11.91c1.052,4.635,2.189,9.269,3.625,13.8.858,2.707,1.938,5.341,3,7.973a1.062,1.062,0,0,0,1.267.719,1.037,1.037,0,0,0,.72-1.267c-.964-2.386-1.952-4.775-2.758-7.22-.674-2.042-1.255-4.114-1.81-6.19-1.253-4.692-2.367-9.429-3.3-14.2-.211-1.079-.41-2.16-.586-3.246q-.057-.354-.111-.709c-.016-.1-.031-.209-.046-.312-.009-.064-.056-.4-.022-.151q-.074-.554-.129-1.11a1.057,1.057,0,0,0-1.03-1.03,1.038,1.038,0,0,0-1.03,1.03Z" transform="translate(-35.564 -75.353)" fill="#003cb3"/>
  <path id="Path_2407" data-name="Path 2407" d="M93.285,160q2.866-6.652,5.526-13.394c1.82-4.608,3.476-9.262,5.107-13.939a99.074,99.074,0,0,0,3.019-9.724c.306-1.287-1.68-1.839-1.986-.548a88.27,88.27,0,0,1-2.648,8.663c-.805,2.31-1.575,4.631-2.407,6.931-1.728,4.776-3.609,9.5-5.54,14.194q-1.4,3.4-2.848,6.777a1.064,1.064,0,0,0,.369,1.409,1.038,1.038,0,0,0,1.409-.37Z" transform="translate(-52.172 -69.452)" fill="#003cb3"/>
  <path id="Path_2408" data-name="Path 2408" d="M97.448,50.015a11.092,11.092,0,0,1,4.407,3.33,14.8,14.8,0,0,1,2.483,5.47,1.031,1.031,0,0,0,1.986-.548,16.661,16.661,0,0,0-2.851-6.171,12.839,12.839,0,0,0-4.985-3.862,1.062,1.062,0,0,0-1.409.369,1.038,1.038,0,0,0,.369,1.409Z" transform="translate(-55.347 -27.46)" fill="#003cb3"/>
  <path id="Path_2409" data-name="Path 2409" d="M34.236,190.931Q26.175,182.95,18.3,174.787q-.472-.487-.939-.975a3.328,3.328,0,0,0-1.234-1,1.839,1.839,0,0,0-1.97.531,11,11,0,0,0-1.622,1.936c-.556,1.017.063,1.854.739,2.583q.948,1.021,1.9,2.038,2.035,2.169,4.094,4.316,4.571,4.77,9.244,9.441a1.03,1.03,0,0,0,1.456-1.456q-7.63-7.621-14.981-15.517c-.151-.162-.3-.326-.451-.486-.024-.025-.118-.161-.156-.161-.1,0,.047.031,0,.1-.172.231-.1.2.049.024l.843-.968a2.737,2.737,0,0,0,.326-.374c.008-.014.081-.077.077-.088.02.052-.278,0-.269,0-.048.031.076.1.162.188l.2.212.405.421,1,1.039q3.5,3.629,7.038,7.224,4.255,4.317,8.567,8.576a1.03,1.03,0,0,0,1.456-1.456Z" transform="translate(-7.04 -98.598)" fill="#003cb3"/>
  <path id="Path_2410" data-name="Path 2410" d="M36.4,57.586a45.475,45.475,0,0,1,8.086-6.722c.32-.2.644-.393.975-.573.067-.036.451-.183.464-.242-.008.034-.343-.029-.368-.023-.111.026-.114-.288-.03.145s-.043.836.04,1.252a1.759,1.759,0,0,0,.839,1.184c.888.515,1.717.031,2.517-.391.763-.4,1.522-.815,2.283-1.22a52.544,52.544,0,0,1,5.476-2.669A1.061,1.061,0,0,0,57.4,47.06a1.038,1.038,0,0,0-1.267-.72,51.3,51.3,0,0,0-5.156,2.446c-.8.424-1.605.856-2.408,1.285q-.518.277-1.038.55c-.063.033-.318.136-.318.172,0-.071.325.1.287.086.138.054.015.289.107-.012a3.018,3.018,0,0,0-.141-1.434,1.957,1.957,0,0,0-.98-1.236c-.9-.455-1.782.138-2.548.588a35.673,35.673,0,0,0-4.488,3.238,57.843,57.843,0,0,0-4.508,4.107c-.931.944.524,2.4,1.456,1.456Z" transform="translate(-19.784 -26.433)" fill="#003cb3"/>
  <path id="Path_2411" data-name="Path 2411" d="M44.54,141.287a14.794,14.794,0,0,0-1.644,2.42,4.31,4.31,0,0,0-.833,2.459c.188,1.073,1.6,1.416,2.468,1.8.109.048.363.224.481.215.01,0,.061.036.067.03-.1.084-.157-.412-.109-.378-.043-.031-1.725,1.822-1.907,2.02-.672.73-1.523,1.49-1.152,2.575a15.052,15.052,0,0,0,1.2,2.253c1.213,2.194,2.5,4.353,3.654,6.577l2.665,5.122,2.114,4.062c.612,1.176,2.39.136,1.779-1.04l-4.377-8.415c-.884-1.7-1.829-3.358-2.764-5.028q-.691-1.235-1.376-2.473-.287-.518-.571-1.037l-.264-.484c-.06-.109-.043-.209-.108-.139a.4.4,0,0,1-.02.162q-.073.232.1-.04c.327-.288.6-.674.9-.993.331-.354.666-.7,1-1.055.618-.647,1.269-1.277,1.116-2.254-.194-1.231-1.631-1.562-2.609-2a1.54,1.54,0,0,0-.346-.153c-.192-.025-.219-.238-.027.191.159.354.06.324.154.182a4.729,4.729,0,0,0,.247-.547A12.636,12.636,0,0,1,46,142.747a1.06,1.06,0,0,0,0-1.456,1.039,1.039,0,0,0-1.457,0Z" transform="translate(-23.881 -80.486)" fill="#003cb3"/>
  <path id="Path_2412" data-name="Path 2412" d="M43.854,198.062a3.868,3.868,0,0,1,.429-.133c.07-.017.14-.029.211-.043.174-.036-.2.009.036,0a3.784,3.784,0,0,1,.4,0c.033,0,.065.006.1.008.141.009-.026.043-.081-.011.03.03.176.035.22.046.125.031.243.079.366.117.1.032-.1-.037-.1-.043.005.012.074.034.086.041.067.035.134.068.2.105.113.065.22.139.327.212.155.106-.142-.124,0,0,.058.052.118.1.175.154q.149.138.285.29c.046.051.09.1.135.156.153.177-.068-.1.032.037a6.848,6.848,0,0,1,.489.782c.068.129.129.257.19.39.086.178-.061-.163.009.021.031.079.062.158.091.237a7.248,7.248,0,0,1,.253.868c.018.081.035.163.051.245.006.035.013.07.019.105s.073.219.014.073c-.043-.11-.006-.051,0,0s.01.092.015.139c.008.08.014.161.018.241a5.511,5.511,0,0,1-.029.963,1.03,1.03,0,0,0,1.03,1.03,1.061,1.061,0,0,0,1.03-1.03,7.575,7.575,0,0,0-.846-4.2,5.493,5.493,0,0,0-3.14-2.885,4.077,4.077,0,0,0-2.565.094,1.03,1.03,0,1,0,.548,1.986Z" transform="translate(-24.296 -111.786)" fill="#003cb3"/>
  <path id="Path_2413" data-name="Path 2413" d="M16.4,195.487a5.155,5.155,0,0,0-3.313,1.3,4.816,4.816,0,0,0-1.067,1.334c-.287.539-.371,1.121-.6,1.674a6.576,6.576,0,0,1-.944,1.368,8.287,8.287,0,0,0-.908,1.523,12.94,12.94,0,0,0-1.1,3.676,17.5,17.5,0,0,0,.622,7.774,6.344,6.344,0,0,0,4.205,4.359c1.856.565,3.846-.033,5.665-.49a1.031,1.031,0,0,0-.548-1.986,13.3,13.3,0,0,1-3.766.644,4,4,0,0,1-3.433-2.68,15.325,15.325,0,0,1-.833-6.188A10.241,10.241,0,0,1,12.5,201.91a5.69,5.69,0,0,0,.92-1.628,5.707,5.707,0,0,1,.571-1.447,3.024,3.024,0,0,1,2.4-1.287,1.031,1.031,0,0,0,0-2.06Z" transform="translate(-4.73 -111.596)" fill="#003cb3"/>
  <path id="Path_2414" data-name="Path 2414" d="M25.562,215.693a38.688,38.688,0,0,0,3.186,2.416,7.071,7.071,0,0,0,3.585,1.447,1.037,1.037,0,0,0,1.03-1.03,1.053,1.053,0,0,0-1.03-1.03c-.069,0-.138-.007-.206-.015q.152.022-.036-.009c-.137-.031-.273-.061-.408-.1s-.268-.086-.4-.139c.146.059-.195-.094-.227-.111a12.528,12.528,0,0,1-1.362-.856,31.831,31.831,0,0,1-2.676-2.03,1.03,1.03,0,1,0-1.457,1.457Z" transform="translate(-14.427 -122.127)" fill="#003cb3"/>
  <path id="Path_2415" data-name="Path 2415" d="M26.735,196.79c.343,2.408,2.471,4.389,4.182,5.93.891.8,1.828,1.551,2.722,2.349a6.624,6.624,0,0,1,.529.506c-.115-.129-.015-.043.026.05a1.205,1.205,0,0,1,.129.319.853.853,0,0,1-.4.916,1.035,1.035,0,0,0,0,1.456,1.056,1.056,0,0,0,1.456,0,2.888,2.888,0,0,0,.673-3.593,9.989,9.989,0,0,0-2.622-2.54,30.94,30.94,0,0,1-2.976-2.823,6.175,6.175,0,0,1-1.726-3.118,1.037,1.037,0,0,0-1.267-.719,1.057,1.057,0,0,0-.719,1.267Z" transform="translate(-15.251 -111.596)" fill="#003cb3"/>
  <path id="Path_2416" data-name="Path 2416" d="M24.75,225.723a28.294,28.294,0,0,0,3.832,2.674,1.03,1.03,0,1,0,1.04-1.778,21.181,21.181,0,0,1-1.841-1.178q-.454-.318-.9-.652l-.23-.172-.112-.086c-.11-.086.053.043.077.06-.139-.1-.275-.215-.411-.324a1.116,1.116,0,0,0-.73-.3,1.03,1.03,0,0,0-.73,1.759Z" transform="translate(-13.961 -127.855)" fill="#003cb3"/>
  <path id="Path_2417" data-name="Path 2417" d="M24.468,234.858c.4.327.811.651,1.244.939a7.515,7.515,0,0,0,1.3.676,1.03,1.03,0,0,0,1.163-1.513l-.161-.209a1.03,1.03,0,0,0-.454-.265l-.033-.013.246.1a7.631,7.631,0,0,1-1.647-1.014l.209.161c-.136-.106-.272-.215-.406-.323a1.136,1.136,0,0,0-.728-.3,1.03,1.03,0,0,0-1.03,1.03,1,1,0,0,0,.3.73Z" transform="translate(-13.804 -133.066)" fill="#003cb3"/>
  <path id="Path_2418" data-name="Path 2418" d="M104.255,271.724c-.715,2.01,1.175,3.691,2.989,4a23.825,23.825,0,0,0,3.039.222c1.065.043,2.131.076,3.2.067a26.623,26.623,0,0,0,6.176-.687,12.216,12.216,0,0,0,5.122-2.268,9.023,9.023,0,0,0,2.751-8.321,13.78,13.78,0,0,0-1.771-4.572,23.651,23.651,0,0,0-3.3-4.08,15.592,15.592,0,0,0-4.906-3.865,13.17,13.17,0,0,0-3.625-.781,1.036,1.036,0,0,0-1.03,1.03,1.056,1.056,0,0,0,1.03,1.03l1.016.129c.2.025.4.043.595.075.06.009.122.009.181.023.024.005.045.027-.021.007-.107-.032.313.106.313.106a10.086,10.086,0,0,1,3.969,2.666c2.077,2.023,4.32,4.318,5.174,7.167a16.782,16.782,0,0,1,.406,1.709q.033.175.063.351c-.043-.291.009.172.013.25.012.2.014.4.008.6a7.32,7.32,0,0,1-1.2,3.727,5.787,5.787,0,0,1-3.074,2.317,19.934,19.934,0,0,1-5.212,1.207,46.325,46.325,0,0,1-6.18.043,10.671,10.671,0,0,1-2.81-.281c-.574-.186-1.159-.68-.933-1.321a1.04,1.04,0,0,0-.719-1.267,1.051,1.051,0,0,0-1.267.719Z" transform="translate(-59.434 -143.538)" fill="#003cb3"/>
  <path id="Path_2419" data-name="Path 2419" d="M74.827,229.7c-1.216-3.443-2.4-6.9-3.6-10.346q-2.169-6.265-4.334-12.535l-.386-1.12a3.454,3.454,0,0,0-.627-1.358c-.782-.782-2-.229-2.918.017-1.908.515-3.81,1.054-5.711,1.6-4.834,1.379-9.659,2.789-14.493,4.169-2.17.618-4.341,1.232-6.518,1.824-1.014.275-2.608.383-2.879,1.605a5.607,5.607,0,0,0,.508,2.382q1.6,5.517,3.221,11.029,1.874,6.4,3.752,12.795l2.794,9.51q.191.649.382,1.3a3.347,3.347,0,0,0,.25.7,1.506,1.506,0,0,0,1.808.654c1.447-.407,2.875-.892,4.313-1.339,3.984-1.24,7.971-2.477,11.941-3.763.6-.2,1.2-.392,1.8-.6,1.247-.426.712-2.416-.548-1.986-5.07,1.731-10.213,3.261-15.329,4.852l-1.738.54a8.462,8.462,0,0,1-1.266.369H45.8c.448.081.332.579.274.257-.011-.06-.036-.122-.053-.181l-.133-.453-.34-1.159-.928-3.157q-1.314-4.471-2.626-8.942-2.832-9.645-5.647-19.292-.264-.907-.528-1.814-.1-.356-.206-.711a3.27,3.27,0,0,0-.23-.792l-.338.64.1-.026a1.412,1.412,0,0,0,.3-.08l.468-.124,1.155-.312q1.21-.33,2.416-.668c3.81-1.064,7.61-2.165,11.41-3.261,3.562-1.03,7.118-2.062,10.689-3.054q1.007-.28,2.017-.552l.869-.23a1.983,1.983,0,0,0,.358-.093c.442-.219-.53.841-.541-.42a1.045,1.045,0,0,0,.079.227l1.357,3.924q3.323,9.61,6.659,19.215.228.653.458,1.3a1.056,1.056,0,0,0,1.267.719,1.039,1.039,0,0,0,.72-1.267Z" transform="translate(-19.034 -116.42)" fill="#003cb3"/>
  <path id="Path_2420" data-name="Path 2420" d="M104.331,262.681a5.089,5.089,0,0,1-2.081,1.144,13.921,13.921,0,0,1-2.686.145c-2.125.046-4.248.122-6.372.209-1.888.077-4.626-.206-5.683,1.749a3.3,3.3,0,0,0,.433,3.679,4.37,4.37,0,0,0,3.5.995q5.321-.125,10.639-.353c1.32-.059,1.327-2.119,0-2.06q-4.371.194-8.745.306-1.052.028-2.105.052a3.76,3.76,0,0,1-1.438-.121.85.85,0,0,1-.558-.682,1.462,1.462,0,0,1-.024-.538,1.688,1.688,0,0,1,.078-.238c.089-.257-.013-.043.107-.168.476-.493,1.429-.454,2.146-.488q1.4-.066,2.793-.117c1.9-.073,3.791-.139,5.687-.172a11.426,11.426,0,0,0,3.137-.3,8.112,8.112,0,0,0,2.63-1.58,1.036,1.036,0,0,0,0-1.456,1.056,1.056,0,0,0-1.456,0Z" transform="translate(-49.752 -149.79)" fill="#003cb3"/>
  <path id="Path_2421" data-name="Path 2421" d="M90.229,277.365a3.54,3.54,0,0,0-1.373,3.657,3.26,3.26,0,0,0,3.082,2.52A15.617,15.617,0,0,0,94.4,283.5l2.86-.149,5.825-.3c1.319-.069,1.327-2.129,0-2.06l-9.426.493a7.7,7.7,0,0,1-1.767-.009,1.205,1.205,0,0,1-.9-.533,1.725,1.725,0,0,1-.167-.907,1.3,1.3,0,0,1,.442-.885,1.063,1.063,0,0,0,.369-1.409,1.038,1.038,0,0,0-1.409-.37Z" transform="translate(-50.681 -158.259)" fill="#003cb3"/>
  <path id="Path_2422" data-name="Path 2422" d="M106.892,290.607q-3.753.186-7.506.381c-.893.046-2.14.282-2.905-.316-.6-.472-.313-1.361.05-1.9l-.889.51h.005a1.031,1.031,0,0,0,0-2.06c-1.411,0-1.753,2.55-1.471,3.562a3.485,3.485,0,0,0,3.206,2.286,31.409,31.409,0,0,0,4.648-.161q2.431-.124,4.863-.245c1.319-.066,1.327-2.126,0-2.06Z" transform="translate(-53.717 -163.966)" fill="#003cb3"/>
</svg>
