<svg xmlns="http://www.w3.org/2000/svg" width="155.141" height="142.35" viewBox="0 0 155.141 142.35">
  <g id="_7690_line" data-name="7690_line" transform="translate(0 0.023)">
    <path id="Path_2552" data-name="Path 2552" d="M166.477,235.877a12.531,12.531,0,0,0,4.918-.088,3.391,3.391,0,0,0,1.9-1.045,6.281,6.281,0,0,0,1.055-2.118c.33-1.085-1.367-1.549-1.7-.467a4.209,4.209,0,0,1-.677,1.435,2.255,2.255,0,0,1-1.3.56,10.5,10.5,0,0,1-3.732.028.909.909,0,0,0-1.082.616.885.885,0,0,0,.616,1.082Z" transform="translate(-92.92 -129.753)" fill="#003cb3"/>
    <path id="Path_2553" data-name="Path 2553" d="M165.9,224.7a16.068,16.068,0,0,0,4.565.584c.477.022.957.048,1.435.047a2.865,2.865,0,0,0,2.624-1.495,2.344,2.344,0,0,0-.982-2.679,5.041,5.041,0,0,0-1.715-.645c-1.25-.338-2.49-.722-3.723-1.119-.736-.237-1.47-.481-2.2-.747q-.235-.086-.468-.176c-.058-.023-.466-.193-.249-.1a3.613,3.613,0,0,1-.515-.259c-.953-.616-1.836.906-.888,1.519a12.2,12.2,0,0,0,2.693,1.075c1.22.414,2.45.8,3.685,1.16.455.134.911.266,1.37.387.426.112.947.164,1.231.541a1.092,1.092,0,0,1,.132.341c.035.1-.085.141.014.053a1.6,1.6,0,0,1-1,.384c-.416,0-.835-.022-1.25-.039a14.785,14.785,0,0,1-4.3-.53.887.887,0,0,0-1.082.616.9.9,0,0,0,.616,1.082Z" transform="translate(-91.544 -122.149)" fill="#003cb3"/>
    <path id="Path_2554" data-name="Path 2554" d="M145.291,211.1a7.569,7.569,0,0,0,1.891.119,6.671,6.671,0,0,0,1.774-.62,7.635,7.635,0,0,1,1.658-.481l.143-.021c-.183.026.011,0,.047,0,.129-.014.258-.027.388-.036a3.936,3.936,0,0,1,.414-.008,1.26,1.26,0,0,1,.147.011c-.22-.025-.044,0,.006.021a.88.88,0,1,0,.468-1.7,3.66,3.66,0,0,0-1.586-.031,8.088,8.088,0,0,0-1.751.4c-.3.109-.6.229-.893.352l-.54.228s-.211.088-.161.069c.074-.031-.1.037-.115.044a1.061,1.061,0,0,1-.123.03c.182-.048.022,0-.034,0-.138.006-.275.008-.412,0-.168-.005-.335-.017-.5-.033l-.2-.021c-.318-.035.15.025-.149-.021a.908.908,0,0,0-1.082.616.886.886,0,0,0,.616,1.082Z" transform="translate(-81.049 -116.718)" fill="#003cb3"/>
    <path id="Path_2555" data-name="Path 2555" d="M168.252,202.938a7.346,7.346,0,0,1-2.423.5c-.9.007-1.792-.163-2.7-.122a8.381,8.381,0,0,0-4.555,1.335,18,18,0,0,0-3.532,3.716,2.644,2.644,0,0,0-.6,2.215,2.47,2.47,0,0,0,1.3,1.592c2,.9,3.551-.977,4.88-2.125.857-.742-.391-1.981-1.244-1.244a8.25,8.25,0,0,1-2,1.681c-.44.179-.983.233-1.184-.215-.248-.55.632-1.34.967-1.74a19.813,19.813,0,0,1,1.769-1.895,6.446,6.446,0,0,1,4.3-1.566c.936-.034,1.864.16,2.8.121a9.11,9.11,0,0,0,2.707-.563c1.055-.383.6-2.083-.467-1.7Z" transform="translate(-86.513 -113.694)" fill="#003cb3"/>
    <path id="Path_2556" data-name="Path 2556" d="M187.555,226.747c.357-.233.722-.454,1.089-.669a9.8,9.8,0,0,1,.9-.5l-.21.088a7.557,7.557,0,0,1,.731-.235.879.879,0,1,0-.467-1.7,7.174,7.174,0,0,0-.981.341c-.187.088-.367.2-.547.3-.474.271-.945.551-1.4.85a.88.88,0,1,0,.888,1.519Z" transform="translate(-104.351 -125.361)" fill="#003cb3"/>
    <path id="Path_2557" data-name="Path 2557" d="M270.951,46.611c.412-.769,1.363-1.872,2.342-1.275.765.467.853,1.664.838,2.459a6.551,6.551,0,0,1-2.928,5.293c-.946.616-.065,2.137.888,1.519a8.3,8.3,0,0,0,3.764-7.642c-.156-1.458-.835-3.04-2.386-3.443-1.727-.448-3.261.759-4.034,2.2-.534,1,.984,1.887,1.518.888Z" transform="translate(-150.91 -24.346)" fill="#003cb3"/>
    <path id="Path_2558" data-name="Path 2558" d="M233.217,75.366a6.26,6.26,0,0,0,2.408-.531,3.06,3.06,0,0,0,1.086-.769.941.941,0,0,0,.258-.622.879.879,0,0,0-1.5-.622,1.609,1.609,0,0,1-.142.147c-.029.026-.058.051-.088.076-.1.088.181-.135.105-.08l-.06.044a3.351,3.351,0,0,1-.627.343l.21-.088a5.025,5.025,0,0,1-1.247.325l.234-.031a6.292,6.292,0,0,1-.637.051.879.879,0,0,0,0,1.759Z" transform="translate(-130.186 -40.674)" fill="#003cb3"/>
    <path id="Path_2559" data-name="Path 2559" d="M237.992,50.816c-.142.75.159,2.411,1.482,2.423,1.73-.185,1.627-2.219.95-3.114A1.354,1.354,0,0,0,237.992,50.816Z" transform="translate(-133.336 -27.796)" fill="#003cb3"/>
    <path id="Path_2560" data-name="Path 2560" d="M226.172,34.395c-.032,2.667.8,5.254.649,7.925a4.022,4.022,0,0,1-1.1,2.845,4.183,4.183,0,0,0-1.187,1.415,2.4,2.4,0,0,0-.022,2c.492,1.037,1.722,1.319,2.33,2.251a3.919,3.919,0,0,1,.44,1.25q.22.839.5,1.66c.809,2.379,2.03,4.869,4.6,5.7a11.018,11.018,0,0,0,4.441.308,10.562,10.562,0,0,0,2.186-.43c.142-.044.281-.1.419-.154.257-.1.3-.044.186-.127a3.416,3.416,0,0,1,.595,1c.531,1,2.049.112,1.518-.888a3.908,3.908,0,0,0-1.173-1.587,2.089,2.089,0,0,0-1.94.031,10.3,10.3,0,0,1-3.846.446,4.869,4.869,0,0,1-3.23-1.089,7.566,7.566,0,0,1-1.79-2.946,30.466,30.466,0,0,1-.933-3.078,5.04,5.04,0,0,0-2.282-2.695c-.235-.17-.481-.344-.476-.657.009-.622.743-.974,1.11-1.366a5.551,5.551,0,0,0,1.342-3.152c.379-2.918-.612-5.76-.577-8.669a.88.88,0,0,0-1.759,0Z" transform="translate(-125.686 -18.809)" fill="#003cb3"/>
    <path id="Path_2561" data-name="Path 2561" d="M261.532,32.468a23.6,23.6,0,0,0,3.044-13.014C264,11.1,259.468,6.87,256.029,5.285a20.036,20.036,0,0,0-15.2-.8c-4.432,1.486-10.147,5.278-10.283,13" transform="translate(-129.184 -1.894)" fill="none"/>
    <path id="Path_2562" data-name="Path 2562" d="M276.572,65.344a13.56,13.56,0,0,0,7.5,4.7.88.88,0,0,0,.466-1.7,12.035,12.035,0,0,1-6.723-4.252.885.885,0,0,0-1.243,0,.9.9,0,0,0,0,1.244Z" transform="translate(-154.831 -35.787)" fill="#003cb3"/>
    <path id="Path_2563" data-name="Path 2563" d="M254.23,37.075a10.425,10.425,0,0,1,5.385,3.3,5,5,0,0,1,.506.7c.086.14.166.284.239.431,0,0,.117.254.054.106.033.078.061.158.088.237a.9.9,0,0,0,1.082.616.888.888,0,0,0,.616-1.082,8.633,8.633,0,0,0-3.08-3.863,11.373,11.373,0,0,0-4.422-2.145.9.9,0,0,0-1.082.616.889.889,0,0,0,.616,1.082Z" transform="translate(-142.092 -19.823)" fill="#003cb3"/>
    <path id="Path_2564" data-name="Path 2564" d="M238.248,27.838c0-.11.01-.22.02-.33,0-.01.03-.22.008-.08s.01-.051.015-.079a5.065,5.065,0,0,1,.158-.64c.033-.105.071-.208.109-.311.077-.21-.08.169.013-.034.018-.04.036-.08.055-.12a5.439,5.439,0,0,1,.338-.606c.06-.092.126-.181.187-.272s-.132.16,0-.006c.035-.044.069-.085.105-.127a5.191,5.191,0,0,1,.459-.474c.081-.074.167-.143.251-.214s-.132.091.006,0c.044-.031.088-.064.135-.095a5.106,5.106,0,0,1,.6-.347.884.884,0,0,0,.315-1.2.9.9,0,0,0-1.2-.315,6.165,6.165,0,0,0-3.332,5.254.887.887,0,0,0,.879.879.9.9,0,0,0,.879-.879Z" transform="translate(-132.512 -12.604)" fill="#003cb3"/>
    <path id="Path_2565" data-name="Path 2565" d="M245.672,31.395c.048-.071.1-.138.15-.21-.018.029-.117.147-.044.056.027-.033.054-.067.082-.1q.158-.187.332-.359t.383-.343l.08-.064c-.184.155-.08.062-.034.029.069-.051.14-.1.211-.147q.2-.135.42-.251.1-.055.206-.106l.117-.055c.03-.014.176-.076.036-.018s.019-.007.038-.014l.1-.036q.12-.044.244-.083c.164-.051.33-.094.5-.129a.886.886,0,0,0,.616-1.082.9.9,0,0,0-1.082-.616,6.341,6.341,0,0,0-3.869,2.638.884.884,0,0,0,.315,1.2.9.9,0,0,0,1.2-.315Z" transform="translate(-136.741 -15.613)" fill="#003cb3"/>
    <path id="Path_2566" data-name="Path 2566" d="M230.111,14.628c-.3-2.479.767-4.763,2.025-6.831a12.288,12.288,0,0,1,3.978-4.246,12.535,12.535,0,0,1,3.078-1.389,13.116,13.116,0,0,1,3.566-.412,26.905,26.905,0,0,1,7.635.945,18.6,18.6,0,0,1,11.286,8.377,8.273,8.273,0,0,1,1.173,3.4,9.207,9.207,0,0,1-.119,1.809,6.024,6.024,0,0,0,.145,2.087,13.062,13.062,0,0,1,.426,3.485,10.586,10.586,0,0,1-.7,3.327,17.005,17.005,0,0,1-1.984,3.392c-.656.963-1.278,1.935-1.865,2.94-1.36,2.335-2.293,4.71-1.811,7.455a.886.886,0,0,0,1.082.616.9.9,0,0,0,.616-1.082c-.434-2.471.743-4.593,1.945-6.647,1.187-2.03,2.773-3.833,3.649-6.035a12.215,12.215,0,0,0,.486-7.314,6.012,6.012,0,0,1-.252-2.011,12.14,12.14,0,0,0,.144-2.02,9.808,9.808,0,0,0-1.135-3.77c-2.374-4.646-6.95-7.914-11.845-9.47a27.827,27.827,0,0,0-7.964-1.237,19.691,19.691,0,0,0-3.935.228A13.023,13.023,0,0,0,236.2,1.482a13.661,13.661,0,0,0-5.263,4.912c-1.554,2.424-2.952,5.276-2.588,8.236a.907.907,0,0,0,.879.879.885.885,0,0,0,.879-.879Z" transform="translate(-127.92 0)" fill="#003cb3"/>
    <path id="Path_2567" data-name="Path 2567" d="M9,251.486a2.53,2.53,0,0,0,.363,1.555,3.159,3.159,0,0,0,1.158.849c.755.414,1.539.778,2.33,1.117a58.685,58.685,0,0,0,5.928,2.145,47.719,47.719,0,0,0,11.374,2.36,53.513,53.513,0,0,0,8.834-.426c1.514-.176,3.024-.386,4.532-.6,1.187-.173,2.77-.154,3.67-1.079a4.387,4.387,0,0,0,.813-2.77c.082-.821.153-1.644.22-2.467q.251-3.1.421-6.213c.108-1.971.22-3.95.2-5.925a61.824,61.824,0,0,0-.864-7.738.885.885,0,0,0-1.082-.616.9.9,0,0,0-.616,1.082c.29,2.1.666,4.169.771,6.287.083,1.667,0,3.341-.07,5.01-.162,3.613-.39,7.233-.761,10.831a4.533,4.533,0,0,1-.159,1.034c-.16.453-.632.5-1.058.576-1.352.229-2.718.406-4.077.588a70.622,70.622,0,0,1-8.41.7,39.986,39.986,0,0,1-11.158-1.715,66.245,66.245,0,0,1-6.408-2.091c-.865-.335-1.719-.7-2.554-1.1-.381-.185-.758-.378-1.128-.585a1.854,1.854,0,0,1-.5-.29c.069.088.037.036.022.006a1.177,1.177,0,0,1-.031-.521c.039-1.132-1.72-1.131-1.759,0Z" transform="translate(-5.038 -129.81)" fill="#003cb3"/>
    <path id="Path_2568" data-name="Path 2568" d="M26.9,108.435c-4.239-3.561-9.8-4.111-14.892-5.76a.9.9,0,0,0-1.082.616c-.343,1.082-.639,2.18-.927,3.278q-.19.725-.37,1.451a6.929,6.929,0,0,1-.582,1.36,35.873,35.873,0,0,0-3.769,13.861,49.9,49.9,0,0,0,.269,8.46c.616,5.709,1.884,11.318,2.866,16.969.469,2.7.913,5.4,1.231,8.118.159,1.363.289,2.73.369,4.1a14.545,14.545,0,0,1-.049,3.779c-.461,2.213-1.14,4.365-1.725,6.546A44.626,44.626,0,0,0,6.879,179.2c-.091,1.128,1.668,1.122,1.759,0a41.217,41.217,0,0,1,1.152-6.978c.49-1.906,1.091-3.781,1.553-5.693q.2-.816.364-1.64a8.612,8.612,0,0,0,.142-1.922c-.022-1.341-.106-2.682-.226-4.017-.247-2.762-.645-5.509-1.093-8.245-.907-5.543-2.14-11.036-2.926-16.6-.783-5.537-1.055-11.256.344-16.718a35.636,35.636,0,0,1,2.429-6.741c.249-.516.52-1.023.757-1.544a10.19,10.19,0,0,0,.457-1.68c.318-1.231.645-2.459,1.029-3.669l-1.082.616c4.741,1.533,10.171,1.991,14.116,5.306.861.724,2.11-.514,1.243-1.243Z" transform="translate(-2.917 -57.529)" fill="#003cb3"/>
    <path id="Path_2569" data-name="Path 2569" d="M22.885,140.521c-1.28,8.53,4.948,15.96,10.856,21.275a74.057,74.057,0,0,0,9.624,7.255,63.516,63.516,0,0,0,5.965,3.1c1.9.952,3.808,1.9,5.729,2.819a115.484,115.484,0,0,0,13.7,5.577.9.9,0,0,0,1.082-.616c1.6-4.543,3.2-9.086,4.9-13.594a.879.879,0,0,0-.4-.993A193.82,193.82,0,0,1,56.115,155.04a8.037,8.037,0,0,1-1.07-.691,8.418,8.418,0,0,1-.778-.879q-.678-.8-1.3-1.643c-.9-1.216-1.727-2.48-2.532-3.758-1.59-2.526-3.072-5.122-4.755-7.589a22.055,22.055,0,0,0-6.2-6.542c-.962-.6-1.847.919-.888,1.519a19.213,19.213,0,0,1,5.305,5.523c1.7,2.442,3.182,5.028,4.756,7.552.8,1.286,1.627,2.559,2.511,3.789q.653.908,1.355,1.782A10.9,10.9,0,0,0,54,155.774a22.909,22.909,0,0,0,2.345,1.479q1.159.722,2.322,1.438,2.142,1.316,4.311,2.59,5.128,3,10.476,5.59l-.4-.993c-1.7,4.508-3.3,9.051-4.9,13.594l1.082-.616c-8.046-2.638-15.525-6.5-23.089-10.254A40.145,40.145,0,0,1,41,165.353q-2.294-1.612-4.435-3.424a47.287,47.287,0,0,1-8.038-8.388c-2.572-3.591-4.622-8.019-3.942-12.55a.908.908,0,0,0-.616-1.082.886.886,0,0,0-1.082.616Z" transform="translate(-12.728 -74.984)" fill="#003cb3"/>
    <path id="Path_2570" data-name="Path 2570" d="M36.553,130.045a10.744,10.744,0,0,0-7.785-.609,8.069,8.069,0,0,0-4.828,4.385.909.909,0,0,0,.316,1.2.886.886,0,0,0,1.2-.315,6.382,6.382,0,0,1,3.778-3.577,8.886,8.886,0,0,1,6.43.432.908.908,0,0,0,1.2-.315A.886.886,0,0,0,36.553,130.045Z" transform="translate(-13.352 -72.271)" fill="#003cb3"/>
    <path id="Path_2571" data-name="Path 2571" d="M83.005,290.221c-.72,3.753-1.18,7.568-1.773,11.343-.1.646-.193,1.295-.316,1.937-.212,1.106,1.482,1.58,1.7.467.72-3.753,1.18-7.568,1.773-11.343.1-.646.193-1.3.316-1.938.212-1.106-1.483-1.579-1.7-.467Z" transform="translate(-45.33 -162.277)" fill="#003cb3"/>
    <path id="Path_2572" data-name="Path 2572" d="M12.417,281.1c-.231,1.792-.247,3.631-.343,5.433q-.21,3.963-.4,7.927c-.047.951-.092,1.9-.142,2.852-.06,1.131,1.7,1.128,1.759,0,.247-4.632.44-9.268.715-13.9.046-.769.07-1.548.169-2.314a.884.884,0,0,0-.879-.879.9.9,0,0,0-.879.879Z" transform="translate(-6.461 -157.031)" fill="#003cb3"/>
    <path id="Path_2573" data-name="Path 2573" d="M255.243,146.181a84.022,84.022,0,0,0-.03,8.7,51.658,51.658,0,0,0,1.327,7.328c.514,2.22,1.029,4.43,1.4,6.678a44.613,44.613,0,0,1,.815,7.264c0,2.058-.239,4.133-.326,6.189q-.144,3.375-.159,6.752c-.015,2.7.023,5.4.088,8.106q.027,1.115.06,2.229a5.21,5.21,0,0,0,.332,2.5c.55.928,1.728,1.1,2.692,1.326a52.987,52.987,0,0,0,7.908,1.246,27.7,27.7,0,0,0,8.346-.319c1.1-.248.637-1.944-.467-1.7a24.576,24.576,0,0,1-6.894.329,51.1,51.1,0,0,1-7.035-.947,26.833,26.833,0,0,1-2.675-.645c-.586-.185-.414-.721-.431-1.263q-.036-1.181-.066-2.362c-.068-2.679-.109-5.359-.1-8.039.014-4.217.212-8.418.465-12.626a34.106,34.106,0,0,0-.647-7.225c-.328-2.1-.73-4.161-1.21-6.228a67.613,67.613,0,0,1-1.6-7.924,72.743,72.743,0,0,1-.034-9.365.88.88,0,0,0-1.759,0Z" transform="translate(-142.941 -81.448)" fill="#003cb3"/>
    <path id="Path_2574" data-name="Path 2574" d="M300.195,96.86a80.807,80.807,0,0,1,7.073,4.634,36.33,36.33,0,0,1,5.364,4.529,14.361,14.361,0,0,1,2.33,3.232,21.043,21.043,0,0,1,1.4,3.887c.787,2.786,1.539,5.584,2.215,8.4a97.966,97.966,0,0,1,2.541,15.916,118.388,118.388,0,0,1-.073,15.7c-.4,6.378-1.063,12.736-1.634,19.1l.879-.879a59.219,59.219,0,0,1-6.278-.055c-2.3-.1-4.592-.24-6.885-.39-1.13-.073-1.125,1.685,0,1.759,2.294.149,4.588.291,6.885.389a59.1,59.1,0,0,0,6.278.055.907.907,0,0,0,.879-.879c.994-11.085,2.408-22.247,1.794-33.394a97.956,97.956,0,0,0-2.362-16.379c-.64-2.806-1.372-5.591-2.14-8.365s-1.542-5.527-3.327-7.853a30.108,30.108,0,0,0-6.059-5.615,80.647,80.647,0,0,0-7.99-5.309.88.88,0,0,0-.888,1.519Z" transform="translate(-167.969 -53.366)" fill="#003cb3"/>
    <path id="Path_2575" data-name="Path 2575" d="M299.011,156.024v0l-1.7.467c1.715,4.49,3.407,8.989,5.125,13.479q.763,2,1.533,3.989a18.713,18.713,0,0,1,1.531,6.015,108.134,108.134,0,0,1-.656,11.683,97.566,97.566,0,0,0,.006,13.87c.08,1.122,1.84,1.131,1.759,0a94.331,94.331,0,0,1-.1-12.484c.241-3.944.756-7.882.767-11.837a17.488,17.488,0,0,0-.9-5.795c-.548-1.613-1.2-3.193-1.811-4.784q-1.723-4.493-3.429-8.993c-.711-1.87-1.414-3.742-2.128-5.611a.9.9,0,0,0-1.082-.616.886.886,0,0,0-.616,1.082v0a.9.9,0,0,0,1.082.616.886.886,0,0,0,.616-1.082Z" transform="translate(-166.576 -87.076)" fill="#003cb3"/>
    <path id="Path_2576" data-name="Path 2576" d="M279.071,91.936a18.336,18.336,0,0,1,3.433,5.825l.4-.993a64.541,64.541,0,0,1-6.386,3.913.894.894,0,0,0-.176,1.381A22.147,22.147,0,0,1,278,104.548l.137-1.065a18.068,18.068,0,0,1-2,1.928c-1.078.946-2.185,1.86-3.3,2.765-2.334,1.9-4.7,3.754-7.085,5.59a.909.909,0,0,0-.315,1.2.885.885,0,0,0,1.2.316c2.462-1.9,4.911-3.809,7.322-5.768,1.122-.911,2.237-1.831,3.325-2.782a18.612,18.612,0,0,0,2.092-2.007.914.914,0,0,0,.137-1.066,25.244,25.244,0,0,0-1.931-2.842l-.178,1.381a64.685,64.685,0,0,0,6.386-3.913.9.9,0,0,0,.4-.993,20.662,20.662,0,0,0-3.885-6.6.885.885,0,0,0-1.243,0,.9.9,0,0,0,0,1.243Z" transform="translate(-148.673 -50.688)" fill="#003cb3"/>
    <path id="Path_2577" data-name="Path 2577" d="M221.46,111.928a8.032,8.032,0,0,0-3.241,3.982,32.371,32.371,0,0,0-1.677,4.748c-.888,3.192-1.371,6.45-2.042,9.688a33.239,33.239,0,0,1-1.363,4.91,9.489,9.489,0,0,1-2.083,3.586,11.561,11.561,0,0,1-2.374,1.421l-2.525,1.423c-1.542.867-3.086,1.732-4.639,2.581q-5.376,2.937-10.928,5.526a.9.9,0,0,0-.316,1.2,118.483,118.483,0,0,1,5.066,12.328.894.894,0,0,0,1.082.616,207.649,207.649,0,0,0,20.142-7.713.885.885,0,0,0,.316-1.2.9.9,0,0,0-1.2-.316,203.334,203.334,0,0,1-19.721,7.536l1.082.616a122.531,122.531,0,0,0-5.243-12.75l-.315,1.2c6.659-3.11,13.046-6.692,19.448-10.292a6.111,6.111,0,0,0,1.833-1.432,10.067,10.067,0,0,0,1.178-1.8,23.157,23.157,0,0,0,1.725-4.686c.845-3.168,1.235-6.438,1.982-9.629a43.393,43.393,0,0,1,1.652-5.6c.623-1.629,1.44-3.566,3.056-4.424,1-.531.112-2.049-.888-1.519Z" transform="translate(-106.551 -62.668)" fill="#003cb3"/>
    <path id="Path_2578" data-name="Path 2578" d="M253.4,196.105c0,.071,0,.142,0,.213s.034.217.008-.018a1.112,1.112,0,0,1-.077.356c-.035.123-.079.242-.124.361.084-.22.014-.036-.011.015-.038.076-.076.151-.117.226-.065.117-.135.23-.208.341-.044.068-.092.132-.139.2-.127.182.053-.055-.06.079a9.564,9.564,0,0,1-.685.745,16.275,16.275,0,0,1-4.345,2.823.887.887,0,0,0-.315,1.2.9.9,0,0,0,1.2.316,17.224,17.224,0,0,0,4.817-3.212,5.337,5.337,0,0,0,1.818-3.647.879.879,0,0,0-1.759,0Z" transform="translate(-138.516 -109.404)" fill="#003cb3"/>
    <path id="Path_2579" data-name="Path 2579" d="M278.1,90.144a14.457,14.457,0,0,0,.707-1.327c.276-.55.6-.942.4-1.577a17.881,17.881,0,0,0-.909-2.325.9.9,0,0,0-1.2-.315c-4.2,1.807-8.31,3.869-12.637,5.367a.887.887,0,0,0-.525,1.292,29.991,29.991,0,0,0,5.859,5.5.914.914,0,0,0,1.066.138,29.092,29.092,0,0,0,3.4-2.784,22.519,22.519,0,0,0,3.835-3.969c.641-.936-.882-1.817-1.519-.888a20.882,20.882,0,0,1-3.561,3.613,27.229,27.229,0,0,1-3.046,2.506l1.066.138q-1.3-1.017-2.55-2.1a19.983,19.983,0,0,1-3.034-3.046l-.528,1.292c4.471-1.549,8.716-3.678,13.058-5.545l-1.2-.315a21.336,21.336,0,0,1,.8,2.1l.088-.678c-.4.66-.674,1.385-1.09,2.035C275.973,90.213,277.494,91.1,278.1,90.144Z" transform="translate(-147.816 -47.354)" fill="#003cb3"/>
    <path id="Path_2580" data-name="Path 2580" d="M307.151,116.211a10.867,10.867,0,0,0-9.086,1.8,11.836,11.836,0,0,0-4.372,7.079,12.337,12.337,0,0,0-.132,4.312.885.885,0,0,0,1.082.616.9.9,0,0,0,.616-1.082c-.716-4.836,2.411-9.984,7.29-11.084a9.075,9.075,0,0,1,4.137.057c1.1.269,1.568-1.427.467-1.7Z" transform="translate(-164.419 -64.949)" fill="#003cb3"/>
    <path id="Path_2581" data-name="Path 2581" d="M273.486,90.65a196.969,196.969,0,0,0-14.15,18.689q-1.939,2.875-3.828,5.785c-.62.951.9,1.833,1.519.888,4.226-6.48,8.574-12.889,13.4-18.941q2.1-2.631,4.3-5.178c.736-.853-.5-2.1-1.243-1.243Z" transform="translate(-143.087 -50.645)" fill="#003cb3"/>
    <path id="Path_2582" data-name="Path 2582" d="M265.551,107.694c-.687,1.806-1.221,3.684-1.8,5.526-.732,2.336-1.495,4.68-2.064,7.062-.264,1.1,1.432,1.57,1.7.468.572-2.383,1.332-4.726,2.064-7.062.577-1.843,1.111-3.72,1.8-5.526a.886.886,0,0,0-.616-1.082.9.9,0,0,0-1.082.616Z" transform="translate(-146.617 -59.998)" fill="#003cb3"/>
    <path id="Path_2583" data-name="Path 2583" d="M259.588,99.3a2.362,2.362,0,0,0-1.83,1.975c-.05.547-.051,1.1-.077,1.652-.035.741-.073,1.483-.085,2.225,0,.132,0,.259,0,.389,0,.149.038-.225.006,0-.007.047-.019.095-.029.141-.052.264-.1.528-.151.791-.583,3.157-1.065,6.337-1.495,9.519-.2,1.512-.416,3.032-.5,4.556-.065,1.13,1.694,1.127,1.759,0,.159-2.792.632-5.582,1.057-8.342.227-1.473.465-2.946.723-4.412.094-.536.191-1.072.3-1.606a10.668,10.668,0,0,0,.114-1.709c.028-.782.068-1.563.1-2.345.01-.215-.005-.446.026-.66.044-.3.252-.371.552-.477,1.059-.376.6-2.076-.467-1.7Z" transform="translate(-143.12 -55.626)" fill="#003cb3"/>
    <path id="Path_2584" data-name="Path 2584" d="M268.83,274.674a23.479,23.479,0,0,0,.232,2.355c.018.107-.033-.281-.007-.048.007.065.016.132.024.195q.034.281.065.562c.132,1.161.25,2.323.37,3.485.3,2.875.586,5.75.891,8.624.095.894.168,1.8.313,2.686a.886.886,0,0,0,1.082.616.9.9,0,0,0,.616-1.082c-.044-.281.013.132-.01-.067-.018-.161-.039-.322-.058-.484-.054-.468-.1-.937-.154-1.407q-.21-1.961-.409-3.924c-.278-2.7-.546-5.408-.843-8.106-.125-1.137-.281-2.263-.352-3.406-.069-1.124-1.829-1.132-1.759,0Z" transform="translate(-150.633 -153.447)" fill="#003cb3"/>
    <path id="Path_2585" data-name="Path 2585" d="M57.478,124.562a35.15,35.15,0,0,1-2.135-4.242,26.079,26.079,0,0,0-2.573-4.646.908.908,0,0,0-1.2-.316.885.885,0,0,0-.316,1.2,26.053,26.053,0,0,1,2.573,4.645,35.25,35.25,0,0,0,2.135,4.242c.619.942,2.143.062,1.519-.888Z" transform="translate(-28.651 -64.59)" fill="#003cb3"/>
    <path id="Path_2586" data-name="Path 2586" d="M15.686,116.84c.188.022-.044-.008-.008,0l.2.031c.173.027.346.057.518.088.4.073.809.153,1.212.235,1.038.211,2.073.44,3.106.672,2.022.455,4.041.929,6.058,1.411.44.1.879.239,1.323.316a.891.891,0,0,0,1.037-.509.869.869,0,0,0-.36-1.1c-.039-.017-.176-.079-.215-.09a.88.88,0,0,0-.467,1.7l-.206-.088.678-1.607c-1.239-.214-2.469-.59-3.693-.877-2.178-.512-4.358-1.019-6.551-1.472-.874-.18-1.751-.362-2.638-.464a.885.885,0,0,0-.879.879.9.9,0,0,0,.879.879Z" transform="translate(-8.295 -64.496)" fill="#003cb3"/>
    <path id="Path_2587" data-name="Path 2587" d="M144.768,165.09c1.363,2.531,2.883,4.975,4.292,7.48a.88.88,0,0,0,1.519-.888c-1.41-2.506-2.93-4.949-4.292-7.48-.537-1-2.055-.11-1.519.887Z" transform="translate(-81.054 -91.776)" fill="#003cb3"/>
    <path id="Path_2588" data-name="Path 2588" d="M182.174,171.622l-6.248,5.317a.887.887,0,0,0,0,1.244.9.9,0,0,0,1.243,0l6.248-5.318a.886.886,0,0,0,0-1.243A.9.9,0,0,0,182.174,171.622Z" transform="translate(-98.434 -96.038)" fill="#003cb3"/>
    <path id="Path_2589" data-name="Path 2589" d="M168.683,156.674c-.941,3.577-1.767,7.189-2.578,10.8-.248,1.1,1.447,1.573,1.7.467.811-3.608,1.637-7.221,2.578-10.8A.88.88,0,0,0,168.683,156.674Z" transform="translate(-93.06 -87.452)" fill="#003cb3"/>
    <path id="Path_2590" data-name="Path 2590" d="M137.877,179.62c.8.8,1.585,1.613,2.366,2.43a.888.888,0,0,0,1.244,0,.9.9,0,0,0,0-1.244c-.781-.817-1.567-1.631-2.366-2.43a.879.879,0,0,0-1.244,1.243Z" transform="translate(-77.112 -99.818)" fill="#003cb3"/>
    <path id="Path_2591" data-name="Path 2591" d="M53.964,81.109c.36-.884,1-2.136,1.483-3.142q.229-.48.454-.961c.1-.2.215-.7.388-.838-.041.033-.19.029.1.05.15.011.31.062.459.088a11.054,11.054,0,0,0,1.143.123c2.742.149,5.852-.4,7.556-2.737a9.977,9.977,0,0,0,1.47-3.494c.151-.6.274-1.212.376-1.825a15.318,15.318,0,0,1,.232-1.715c.323-1.1,1.512-1.558,2.066-2.5a2.687,2.687,0,0,0-1.162-3.517,4.047,4.047,0,0,1-1.705-2.808,19.223,19.223,0,0,1-.226-3.917.88.88,0,0,0-1.759,0c-.013,2.262-.085,4.937,1.291,6.869A4.714,4.714,0,0,0,67.4,62c.357.236.959.616.844,1.143-.072.329-.551.631-.791.839a4.786,4.786,0,0,0-1.275,1.655,16.492,16.492,0,0,0-.674,3.315,10.662,10.662,0,0,1-1.161,3.39,4.378,4.378,0,0,1-2.946,2.022,11.079,11.079,0,0,1-4.074.246c-.824-.117-1.6-.355-2.275.317A7.11,7.11,0,0,0,54,76.922c-.587,1.235-1.22,2.456-1.736,3.723a.885.885,0,0,0,.616,1.082.9.9,0,0,0,1.082-.616Z" transform="translate(-29.27 -29.746)" fill="#003cb3"/>
    <path id="Path_2592" data-name="Path 2592" d="M37.109,61.21c-.995-1.421-2.716-2.537-4.476-1.759a3.716,3.716,0,0,0-1.872,3.642A8.4,8.4,0,0,0,35.37,70.3a.9.9,0,0,0,1.2-.315.888.888,0,0,0-.316-1.2,6.718,6.718,0,0,1-3.677-4.971,3.071,3.071,0,0,1,.465-2.553c.842-.823,2.035.106,2.547.835a.9.9,0,0,0,1.2.316.887.887,0,0,0,.316-1.2Z" transform="translate(-17.236 -33.182)" fill="#003cb3"/>
    <path id="Path_2593" data-name="Path 2593" d="M79.365,85.051a9.341,9.341,0,0,1-1.1-.062l.234.031a2.306,2.306,0,0,1-.59-.146l.21.088a1.2,1.2,0,0,1-.255-.149l.176.138-.009-.007a.977.977,0,0,0-.622-.258.9.9,0,0,0-.622.258.883.883,0,0,0-.257.622.85.85,0,0,0,.257.622,2.075,2.075,0,0,0,.437.291,2.726,2.726,0,0,0,.579.2,8.354,8.354,0,0,0,1.563.132.9.9,0,0,0,.622-.257.879.879,0,0,0-.622-1.5Z" transform="translate(-42.88 -47.465)" fill="#003cb3"/>
    <path id="Path_2594" data-name="Path 2594" d="M74.074,61.2c.233.736.132,2.442-1.2,2.613-1.759.023-1.9-2.034-1.33-3.014A1.37,1.37,0,0,1,74.074,61.2Z" transform="translate(-39.922 -33.697)" fill="#003cb3"/>
    <path id="Path_2595" data-name="Path 2595" d="M10.2,57.572c.106-2.317-1.451-3.953-2.77-5.653a31.762,31.762,0,0,1-3.459-5.645,21.708,21.708,0,0,1-2.11-6.515,19.558,19.558,0,0,1,.528-7.013A11.013,11.013,0,0,1,5.515,27.08c.838-.765-.408-2.006-1.243-1.244C.889,28.923-.062,34,0,38.387a19.082,19.082,0,0,0,1.624,6.924A34,34,0,0,0,5.076,51.66c.616.889,1.315,1.707,1.971,2.562a5.135,5.135,0,0,1,1.4,3.35c-.052,1.132,1.707,1.129,1.759,0Z" transform="translate(0 -14.356)" fill="#003cb3"/>
    <path id="Path_2596" data-name="Path 2596" d="M26.642,80.354a11.3,11.3,0,0,1-3.15,3.13,17.4,17.4,0,0,1-4.067,2.163.9.9,0,0,0-.616,1.082.887.887,0,0,0,1.082.616,18.977,18.977,0,0,0,4.588-2.412,13.322,13.322,0,0,0,3.681-3.691c.6-.964-.921-1.847-1.519-.888Z" transform="translate(-10.525 -44.806)" fill="#003cb3"/>
    <path id="Path_2597" data-name="Path 2597" d="M39.49,34.069c.887-10.793-6.606-14.823-11.983-15.938a20.278,20.278,0,0,0-15.172,2.638c-3.267,2.005-7.313,6.807-6.884,15.265a23.893,23.893,0,0,0,4.626,12.712c.535.761,1.119,1.583,1.653,2.448" transform="translate(-3.037 -9.905)" fill="none"/>
    <path id="Path_2598" data-name="Path 2598" d="M68.875,81.38a12.95,12.95,0,0,0-.352,1.315.93.93,0,0,0,.088.678.879.879,0,0,0,1.607-.21,12.956,12.956,0,0,1,.352-1.316.665.665,0,0,0,.015-.352.656.656,0,0,0-.1-.327.879.879,0,0,0-1.2-.315.954.954,0,0,0-.4.525Z" transform="translate(-38.38 -45.25)" fill="#003cb3"/>
    <path id="Path_2599" data-name="Path 2599" d="M82.348,46.9a24.879,24.879,0,0,0-.287-5.7.886.886,0,0,0-1.082-.616.9.9,0,0,0-.616,1.082q.074.327.125.66c.007.044.014.088.02.135q-.017-.124,0,.04c.012.124.026.247.037.371.038.443.055.888.062,1.332.014.9-.017,1.8-.023,2.7a.879.879,0,1,0,1.759,0Z" transform="translate(-45.015 -22.736)" fill="#003cb3"/>
    <path id="Path_2600" data-name="Path 2600" d="M65.331,40.85a16.174,16.174,0,0,1-3.319.431c-1.08.058-2.163.07-3.244.044a.88.88,0,0,0,0,1.759,26.2,26.2,0,0,0,7.03-.54.88.88,0,0,0-.468-1.7Z" transform="translate(-32.454 -22.884)" fill="#003cb3"/>
    <path id="Path_2601" data-name="Path 2601" d="M49.667,41.978c-1.183.012-1.725,1.462-2.1,2.369-.212.518-.4,1.047-.572,1.578-.069.208-.136.417-.2.625-.035.106-.22.572-.058.206l1.381-.176c-.6-.576-1.111-1.455-1.957-1.7-1.026-.294-1.636.62-2.012,1.419-.806,1.7-1.608,3.4-2.362,5.13a.908.908,0,0,0,.316,1.2.886.886,0,0,0,1.2-.315c.671-1.535,1.381-3.052,2.1-4.566l.327-.691c.048-.1.093-.2.146-.3.1-.192.279-.258-.029-.22-.273.036-.224-.047-.172.039.03.05.072.054.1.078a3.983,3.983,0,0,1,.368.368c.245.264.473.545.732.795a.888.888,0,0,0,1.381-.178c.323-.74.52-1.534.8-2.29a7.926,7.926,0,0,1,.541-1.231c.051-.092.1-.182.16-.271.026-.04.054-.08.081-.119.072-.1-.1.1-.016.022a1.009,1.009,0,0,0,.081-.088c.069-.088.055,0,.013-.017-.012-.005-.035.029-.072.044s-.274.044-.178.044a.88.88,0,0,0,0-1.759Z" transform="translate(-23.352 -23.534)" fill="#003cb3"/>
    <path id="Path_2602" data-name="Path 2602" d="M41.321,25.512c1.536-.716,2.006-2.737,1.752-4.278a6.815,6.815,0,0,0-2.193-3.862,21.137,21.137,0,0,0-7.49-4.481c-.687-.23-1.195.469-1.082,1.082h0l1.292-.993a22.109,22.109,0,0,0-8.786-1.611,22.337,22.337,0,0,0-10.877,2.409A13.621,13.621,0,0,0,9.2,18.041c-.64.937.883,1.818,1.519.888,3.83-5.6,11.986-6.479,18.123-5.471a21.494,21.494,0,0,1,2.254.487c.308.084.611.176.912.281.149.052.3.106.445.164l.14.056a1.008,1.008,0,0,1,.119.053.893.893,0,0,0,1.292-.993h0l-1.082,1.082a18.751,18.751,0,0,1,6.22,3.593,6.082,6.082,0,0,1,2.036,2.743c.316.954.372,2.55-.747,3.072a.887.887,0,0,0-.316,1.2.9.9,0,0,0,1.2.315Z" transform="translate(-5.071 -6.383)" fill="#003cb3"/>
    <path id="Path_2603" data-name="Path 2603" d="M186.885,200.3l-2.3.784a.893.893,0,0,0-.616,1.082,81,81,0,0,0,4.265,10.617.882.882,0,0,0,.993.4l2.5-.939a.9.9,0,0,0,.616-1.082.886.886,0,0,0-1.082-.616l-2.5.939.993.4a77.689,77.689,0,0,1-4.089-10.2l-.616,1.082,2.3-.784c1.065-.363.608-2.062-.467-1.7Z" transform="translate(-103.067 -112.22)" fill="#003cb3"/>
    <path id="Path_2604" data-name="Path 2604" d="M134.847,209.45c.819.322,1.632.657,2.457.967l-.616-1.082c-1.111,3.8-2.341,7.58-3.793,11.267l1.082-.616-2.587-.9c-1.071-.372-1.532,1.326-.468,1.7l2.587.9a.9.9,0,0,0,1.082-.616c1.451-3.687,2.682-7.465,3.793-11.267a.9.9,0,0,0-.616-1.082c-.824-.308-1.638-.643-2.457-.967a.885.885,0,0,0-1.082.616.9.9,0,0,0,.616,1.082Z" transform="translate(-73.022 -116.405)" fill="#003cb3"/>
    <path id="Path_2605" data-name="Path 2605" d="M258.56,97.39q-.517,1.335-.963,2.7-.222.68-.426,1.366c-.068.229-.132.458-.2.687-.012.044-.1.276-.012.088a.843.843,0,0,1-.07.125.557.557,0,0,1,.443-.26.879.879,0,0,0,0,1.759,1.422,1.422,0,0,0,1.319-1.2c.157-.54.313-1.08.484-1.616q.508-1.609,1.12-3.182a.882.882,0,0,0-.616-1.082.9.9,0,0,0-1.082.616Z" transform="translate(-143.699 -54.224)" fill="#003cb3"/>
    <path id="Path_2606" data-name="Path 2606" d="M312.142,269.442a22.567,22.567,0,0,0-3.218,7.844,15.971,15.971,0,0,0-.2,4.606,3.105,3.105,0,0,0,2.951,2.51.88.88,0,0,0,0-1.759,1.107,1.107,0,0,1-.374-.085,1.614,1.614,0,0,1-.6-.415,2,2,0,0,1-.288-1.414,19.241,19.241,0,0,1,.352-3.805,22.745,22.745,0,0,1,2.89-6.6.88.88,0,0,0-1.519-.888Z" transform="translate(-172.943 -150.752)" fill="#003cb3"/>
    <path id="Path_2607" data-name="Path 2607" d="M315.012,287.481c-.037,1.71-.192,3.409-.308,5.115-.064.949-.073,1.9-.123,2.848a17.618,17.618,0,0,0-.107,2.247c.117,1.554,1.115,3.169,2.907,2.661,1.987-.564,1.917-2.7,2-4.367.1-1.953.25-3.9.336-5.856.05-1.132-1.709-1.129-1.759,0-.083,1.891-.226,3.776-.326,5.666-.028.524-.047,1.049-.073,1.573a1.834,1.834,0,0,1-.232.98c-.344.5-.818.4-.995-.124a5.807,5.807,0,0,1-.031-2.3c.081-.931.07-1.87.124-2.8.11-1.88.3-3.752.339-5.636a.88.88,0,0,0-1.759,0Z" transform="translate(-176.209 -160.621)" fill="#003cb3"/>
    <path id="Path_2608" data-name="Path 2608" d="M320.85,303.24a2.323,2.323,0,0,0,2.476,1.955,2.812,2.812,0,0,0,2.4-2.591c.226-1.421.27-2.884.382-4.318s.224-2.892.345-4.337c.095-1.128-1.665-1.122-1.759,0-.182,2.176-.342,4.353-.518,6.53-.044.539-.068,1.086-.141,1.622a1.849,1.849,0,0,1-.427,1.156c-.52.437-.956.113-1.064-.484a.887.887,0,0,0-1.082-.616.9.9,0,0,0-.616,1.082Z" transform="translate(-179.766 -164.249)" fill="#003cb3"/>
    <path id="Path_2609" data-name="Path 2609" d="M328.347,303.886a2.5,2.5,0,0,0,2.431,1.209,2.351,2.351,0,0,0,2.1-2.207c.193-1.287.264-2.6.383-3.9.125-1.358.234-2.718.3-4.08.053-1.131-1.706-1.129-1.759,0-.1,2.1-.308,4.2-.507,6.291-.044.452-.061.914-.132,1.363-.044.285-.149.668-.315.747a.874.874,0,0,1-.983-.308.888.888,0,0,0-1.2-.316.9.9,0,0,0-.315,1.2Z" transform="translate(-183.919 -164.783)" fill="#003cb3"/>
    <path id="Path_2610" data-name="Path 2610" d="M339,272.4a55.04,55.04,0,0,1,.105,10.4c-.128,1.24-.267,2.479-.49,3.706a13.637,13.637,0,0,1-.451,1.891.681.681,0,0,1-.3.448c-.095.044-.375.053-.428-.038a.88.88,0,0,0-1.519.888,2,2,0,0,0,1.811.933,2.167,2.167,0,0,0,1.814-1.052,9.307,9.307,0,0,0,.918-3.53,50.435,50.435,0,0,0,.613-7.447c0-2.069-.141-4.136-.319-6.2-.1-1.119-1.856-1.129-1.759,0Z" transform="translate(-188.158 -152.172)" fill="#003cb3"/>
    <path id="Path_2611" data-name="Path 2611" d="M137.382,235.064c1.428.848,2.893,1.627,4.368,2.393,1.4.726,2.78,1.518,4.218,2.168a5.325,5.325,0,0,0,3.644.287,5.2,5.2,0,0,0,3.2-1.993c.613-.955-.908-1.838-1.519-.888a3.891,3.891,0,0,1-2.5,1.261,3.98,3.98,0,0,1-2.755-.577c-2.622-1.313-5.251-2.672-7.772-4.169A.88.88,0,0,0,137.382,235.064Z" transform="translate(-76.743 -130.803)" fill="#003cb3"/>
    <path id="Path_2612" data-name="Path 2612" d="M168.42,241.711a4.58,4.58,0,0,0,2.276-.827,7.324,7.324,0,0,0,1.644-1.492.957.957,0,0,0,.257-.622.879.879,0,0,0-1.5-.622,6.384,6.384,0,0,1-.607.66c-.117.11-.237.217-.36.319l-.1.081c-.084.069.159-.118.034-.026-.07.051-.14.1-.212.153a6.272,6.272,0,0,1-.853.48c.251-.12,0,0-.069.019s-.154.05-.233.07-.139.033-.21.044c-.152.026.029.01.072-.008a.468.468,0,0,1-.138.011.879.879,0,1,0,0,1.759Z" transform="translate(-93.878 -133.311)" fill="#003cb3"/>
  </g>
</svg>
