<svg id="_11507_line" data-name="11507_line" xmlns="http://www.w3.org/2000/svg" width="128.225" height="140.011" viewBox="0 0 128.225 140.011">
  <path id="Path_2309" data-name="Path 2309" d="M30.441,81.839A104.874,104.874,0,0,1,29.43,98.3c-.142.888-.308,1.774-.515,2.65-.132.564-.283,1.123-.406,1.69-.177.824-.429,1.621-.633,2.439a25.536,25.536,0,0,0-.716,5.1,11.576,11.576,0,0,0,.436,4.077c.99,2.984,4.386,5.024,7.441,5.15,1.326.053,1.323-2.007,0-2.06a6.827,6.827,0,0,1-3.611-1.381,4.527,4.527,0,0,1-1.912-2.472,11.127,11.127,0,0,1-.269-3.819,22.685,22.685,0,0,1,.8-4.732,65.18,65.18,0,0,0,2.132-12.975c.238-3.37.322-6.749.322-10.128a1.031,1.031,0,0,0-2.06,0Z" transform="translate(-15.487 -46.151)" fill="#003cb3"/>
  <path id="Path_2310" data-name="Path 2310" d="M157.663,81.842a78.983,78.983,0,0,0,1.836,16.8c.354,1.527.776,3.036,1.25,4.529a32.147,32.147,0,0,1,1.052,3.968,13.7,13.7,0,0,1,.25,4.384,7.279,7.279,0,0,1-5.407,5.863c-1.292.3-.745,2.283.548,1.986a9.265,9.265,0,0,0,6.3-5.5c1.22-2.906.63-6.383-.175-9.328-.472-1.726-1.068-3.412-1.514-5.146a61.536,61.536,0,0,1-1.3-6.614,85.25,85.25,0,0,1-.778-10.943,1.031,1.031,0,0,0-2.06,0Z" transform="translate(-89 -46.153)" fill="#003cb3"/>
  <path id="Path_2311" data-name="Path 2311" d="M147.756,79.594a2.04,2.04,0,0,1,2.909.34,3.492,3.492,0,0,1,.406,1.842,10.931,10.931,0,0,1-.129,2.259c-.46,2.723-1.876,6.041-4.905,6.569a1.038,1.038,0,0,0-.719,1.267,1.054,1.054,0,0,0,1.267.72c4.167-.726,6.158-5.453,6.5-9.215.167-1.82.121-4.1-1.416-5.353a4.168,4.168,0,0,0-5.372.116,1.039,1.039,0,0,0,0,1.456,1.051,1.051,0,0,0,1.456,0Z" transform="translate(-82.935 -44.012)" fill="#003cb3"/>
  <path id="Path_2312" data-name="Path 2312" d="M128.425,104.164a10.339,10.339,0,0,1-.484,2.585c-.1.331-.206.659-.316.987-.033.1-.068.2-.1.3-.069.2-.041.1-.014.043a21.77,21.77,0,0,1-1.389,2.542,24.675,24.675,0,0,1-5.505,6.346,10.459,10.459,0,0,1-4.062,2.054c-1.291.3-.745,2.284.548,1.986,3.135-.723,5.761-2.979,7.828-5.347a26.886,26.886,0,0,0,4.3-6.4,13.775,13.775,0,0,0,1.259-5.1C130.531,102.839,128.471,102.84,128.425,104.164Z" transform="translate(-66.114 -58.896)" fill="#003cb3"/>
  <path id="Path_2313" data-name="Path 2313" d="M44.614,78.137a4.168,4.168,0,0,0-5.372-.116c-1.538,1.256-1.584,3.533-1.416,5.353.345,3.762,2.337,8.489,6.5,9.215a1.06,1.06,0,0,0,1.267-.72,1.038,1.038,0,0,0-.719-1.267c-3.031-.528-4.446-3.845-4.907-6.568a10.961,10.961,0,0,1-.129-2.259,3.552,3.552,0,0,1,.406-1.842,2.037,2.037,0,0,1,2.909-.34,1.057,1.057,0,0,0,1.456,0,1.038,1.038,0,0,0,0-1.456Z" transform="translate(-21.554 -44.012)" fill="#003cb3"/>
  <path id="Path_2314" data-name="Path 2314" d="M52.143,105.73c1.318,6.229,4.995,12.3,10.865,15.183a14.719,14.719,0,0,0,5,1.434,1.037,1.037,0,0,0,1.03-1.03,1.053,1.053,0,0,0-1.03-1.03c-5.777-.6-10.5-5.6-12.579-10.751a26.04,26.04,0,0,1-1.3-4.354C53.855,103.886,51.869,104.435,52.143,105.73Z" transform="translate(-29.75 -59.622)" fill="#003cb3"/>
  <path id="Path_2315" data-name="Path 2315" d="M73.5,1.673A29.38,29.38,0,0,0,61.646.042,30,30,0,0,0,48.462,3.959,23.354,23.354,0,0,0,40.9,10.508a29.874,29.874,0,0,0-4.5,9.75,52.167,52.167,0,0,0-1.6,15.432c.043,1.322,2.1,1.328,2.06,0-.248-7.81.711-16.249,5.021-22.97A20.244,20.244,0,0,1,48.23,6.5,28.386,28.386,0,0,1,59.974,2.239a33.735,33.735,0,0,1,7.7.079,21.943,21.943,0,0,1,5.281,1.34,1.038,1.038,0,0,0,1.267-.719A1.053,1.053,0,0,0,73.5,1.673Z" transform="translate(-19.844 0.002)" fill="#003cb3"/>
  <path id="Path_2316" data-name="Path 2316" d="M146.494,40.863a54.219,54.219,0,0,0,.025-7.066,45.651,45.651,0,0,0-.618-6.276,29.169,29.169,0,0,0-5.981-13.295c-.825-.987-1.772-1.865-2.68-2.772A13.131,13.131,0,0,0,134.282,9.2c-1.162-.64-2.2,1.138-1.04,1.778a10.511,10.511,0,0,1,2.341,1.735c.8.785,1.622,1.565,2.377,2.394a22.444,22.444,0,0,1,3.629,5.636,30.436,30.436,0,0,1,2.193,6.652,38,38,0,0,1,.652,5.892,56.179,56.179,0,0,1,0,7.578,1.038,1.038,0,0,0,1.03,1.03,1.051,1.051,0,0,0,1.03-1.03Z" transform="translate(-75.772 -5.172)" fill="#003cb3"/>
  <path id="Path_2317" data-name="Path 2317" d="M119.411,139.909a21.7,21.7,0,0,0,.09,2.719,5.373,5.373,0,0,0,.725,2.432,15.124,15.124,0,0,0,4.115,3.514,1.03,1.03,0,0,0,1.04-1.778c-.693-.47-1.381-.95-2.029-1.48-.284-.232-.561-.472-.825-.73-.115-.112-.227-.226-.335-.343-.055-.06-.107-.121-.159-.184-.105-.126.113.185-.028-.039-.062-.1-.124-.193-.177-.3s.056.167,0-.016c-.031-.1-.065-.192-.094-.29a5.952,5.952,0,0,1-.193-.984,23.026,23.026,0,0,1-.068-2.523,1.031,1.031,0,0,0-2.06,0Z" transform="translate(-68.161 -79.301)" fill="#003cb3"/>
  <path id="Path_2318" data-name="Path 2318" d="M71.674,140.119a22.077,22.077,0,0,1-.071,2.471A6.1,6.1,0,0,1,71.4,143.6c-.029.1-.061.188-.094.282.023-.065.058-.1.007-.019-.036.057-.236.351-.091.169a13.593,13.593,0,0,1-3.639,2.789,1.03,1.03,0,0,0,1.04,1.778c.832-.518,1.653-1.055,2.432-1.65a8.853,8.853,0,0,0,1.835-1.736,4.8,4.8,0,0,0,.73-2.236,20.565,20.565,0,0,0,.119-2.862,1.031,1.031,0,0,0-2.06,0Z" transform="translate(-38.286 -79.42)" fill="#003cb3"/>
  <path id="Path_2319" data-name="Path 2319" d="M68.3,47.237a27.99,27.99,0,0,1-6.772,6.98,42.634,42.634,0,0,1-7.365,4.449q-1.062.5-2.134.987-.47.212-.944.42-.208.092-.417.182l-.145.062a1.007,1.007,0,0,1-.1.043,1.064,1.064,0,0,0-.718,1.267,1.036,1.036,0,0,0,1.268.721,63.141,63.141,0,0,0,6.785-3.176,41.926,41.926,0,0,0,8.6-6.382,26.821,26.821,0,0,0,3.724-4.513c.725-1.116-1.057-2.146-1.779-1.04Z" transform="translate(-28.357 -26.695)" fill="#003cb3"/>
  <path id="Path_2320" data-name="Path 2320" d="M78.542,52.088a33.495,33.495,0,0,0,16.1-6.895A20.676,20.676,0,0,0,97.9,42.187a1.058,1.058,0,0,0,0-1.456,1.038,1.038,0,0,0-1.456,0,26.588,26.588,0,0,1-8.039,6,28.56,28.56,0,0,1-9.86,3.3,1.062,1.062,0,0,0-1.03,1.03,1.036,1.036,0,0,0,1.03,1.03Z" transform="translate(-44.248 -23.081)" fill="#003cb3"/>
  <path id="Path_2321" data-name="Path 2321" d="M133.848,57.547c-3.09-1.561-5.321-4.316-7.158-7.179a23.876,23.876,0,0,1-3.382-8.3,1.03,1.03,0,0,0-1.986.548,24.55,24.55,0,0,0,2.364,6.706,29.691,29.691,0,0,0,5.029,6.968,16,16,0,0,0,4.092,3.037c1.18.6,2.224-1.18,1.039-1.779Z" transform="translate(-69.236 -23.583)" fill="#003cb3"/>
  <path id="Path_2322" data-name="Path 2322" d="M226.533,214.844c.269-.665.515-1.339.761-2.013.106-.291.212-.583.319-.874.046-.127.093-.254.141-.38.029-.076.167-.4.011-.043a1.053,1.053,0,0,0-.615-1.513q-2.61-.961-5.2-1.964a73.473,73.473,0,0,1-6.767-2.878,1.045,1.045,0,0,0-1.409.369c-.55,1.116-1.014,2.27-1.554,3.39a1.058,1.058,0,0,0,.369,1.409,1.039,1.039,0,0,0,1.409-.369c.54-1.12,1-2.274,1.554-3.39l-1.409.369c2.3,1.171,4.731,2.1,7.132,3.036q2.655,1.035,5.331,2.014l-.615-1.513c-.54,1.241-.931,2.546-1.439,3.8a1.036,1.036,0,0,0,.719,1.267,1.055,1.055,0,0,0,1.267-.719Z" transform="translate(-121.07 -117.052)" fill="#003cb3"/>
  <path id="Path_2323" data-name="Path 2323" d="M249.644,136.693a1.2,1.2,0,0,0-.662-1.525c-.3-.129-.611-.257-.924-.383a1.359,1.359,0,0,0-1.759.77c-1,2.545-2.5,6.422-3.039,7.912l-.741,1.88a6.156,6.156,0,0,1,1.765-.577,11.48,11.48,0,0,1,2.406-.182l.3-.718C247.756,141.923,248.89,138.743,249.644,136.693Z" transform="translate(-138.445 -76.891)" fill="#003cb3"/>
  <path id="Path_2324" data-name="Path 2324" d="M268.044,44.106c-1.588,4.182-3.12,8.385-4.66,12.584q-3.268,8.917-6.466,17.86c-.951,2.672-1.9,5.346-2.8,8.033-.424,1.259,1.564,1.8,1.986.548,1.782-5.284,3.685-10.528,5.582-15.772q3.076-8.5,6.209-16.974c.707-1.912,1.414-3.825,2.137-5.731a1.038,1.038,0,0,0-.721-1.267,1.053,1.053,0,0,0-1.267.719Z" transform="translate(-145.032 -24.749)" fill="#003cb3"/>
  <path id="Path_2325" data-name="Path 2325" d="M287.889,34.392l-.319.785-.308.757-.076.189c-.119.3.06-.062-.025.055s0,.151.018.005l-.049.054q-.124.113.045-.021c-.008.021-.112.069-.121.075-.194.129.151-.073.016-.01-.208.1.039-.028.029.007-.005.016-.149-.013-.144,0-.015-.04.223.067.057,0-.08-.03-.163-.055-.243-.086-.168-.066-.335-.134-.5-.2s-.335-.136-.5-.2c-.043-.016-.185-.1-.024-.007a.656.656,0,0,1-.129-.073l.091.074a.91.91,0,0,1-.079-.074c-.082-.124.111.221.006.012,0-.006-.072-.106-.067-.124.056.138.066.153.032.046l-.016-.07.018.132a1.072,1.072,0,0,1,0-.144c.016-.006-.072.266,0,.057.043-.129.091-.257.142-.386l.3-.75.194-.487a2.359,2.359,0,0,0,.164-.409c-.005.03-.121.241-.029.073.03-.054.057-.11.088-.163.043-.071.25-.308.082-.135.092-.094.172-.2.27-.285.038-.036.078-.07.118-.105.191-.172-.172.106.041-.03.109-.07.215-.139.329-.2a.717.717,0,0,0,.135-.065c-.068.088-.159.055-.043.024.067-.017.137-.036.2-.057.14-.043-.009.06-.075,0a1.083,1.083,0,0,0,.129-.008c.237,0,.012.038-.025-.014l.059.014q.167.053-.1-.049s.137.08.135.08c-.028.006-.187-.179-.079-.053a1.143,1.143,0,0,0,.122.132c-.1-.023-.113-.179-.029-.027.033.06.071.116.1.176a.607.607,0,0,1,.077.159c-.033-.225-.026-.054,0,.029.04.121.064.246.1.37.064.249,0-.223.007.036,0,.079.011.157.011.236,0,.052,0,.105,0,.158a1.089,1.089,0,0,1-.009.118q-.012.118.011-.079a1.135,1.135,0,0,1-.129.452,1.034,1.034,0,0,0,.72,1.267,1.059,1.059,0,0,0,1.267-.719,3.594,3.594,0,0,0-1.127-4.034c-1.367-.895-3.115.211-3.932,1.342a6.33,6.33,0,0,0-.653,1.4,6.111,6.111,0,0,0-.629,1.926,2.186,2.186,0,0,0,1.234,2.029c.408.188.835.34,1.251.507a2.5,2.5,0,0,0,1.424.194,2.146,2.146,0,0,0,1.142-.61,4.063,4.063,0,0,0,.736-1.39l.554-1.363a1.033,1.033,0,0,0-.719-1.267A1.062,1.062,0,0,0,287.889,34.392Z" transform="translate(-161.858 -17.455)" fill="#003cb3"/>
  <path id="Path_2326" data-name="Path 2326" d="M253.451,184.728a2.961,2.961,0,0,0,.4,3.344,3.434,3.434,0,0,0,3.449.865,6.06,6.06,0,0,0,1.816-.978,7.342,7.342,0,0,0,1.469-1.359,3.667,3.667,0,0,0,.829-1.953,2.339,2.339,0,0,0-.535-1.606,3.413,3.413,0,0,0-3.576-1.2,1.03,1.03,0,0,0,.548,1.986c.043-.013.3-.1.158-.052-.122.043.07,0,.129,0,.11,0,.279.024.075-.012a2.941,2.941,0,0,1,.308.068c.076.022.15.051.225.076-.228-.076.017.015.076.048.081.043.156.094.233.145.023.015.114.1.019.012s.024.025.043.043c.061.061.117.129.18.188-.009-.008-.1-.16-.051-.066a1.3,1.3,0,0,0,.076.119.812.812,0,0,1,.049.091c-.013.011-.06-.2-.039-.091a.535.535,0,0,0,.038.129c.045.091,0-.18-.008-.08-.008.066-.043.253.01.072-.026.088-.045.18-.07.27-.01.036-.076.176,0,.017-.02.043-.043.086-.064.129a3.235,3.235,0,0,1-.2.333c-.028.041-.056.082-.086.121.014-.018.082-.1.006-.014s-.154.175-.236.257a6.1,6.1,0,0,1-.512.459c-.012.01-.152.118-.043.036l-.129.1c-.1.074-.2.147-.3.217a5.814,5.814,0,0,1-.638.382c-.036.018-.268.119-.139.069a2.612,2.612,0,0,1-.319.1c-.041.01-.083.016-.124.027.187-.051.081-.006.016,0-.12,0-.237,0-.356,0-.2-.006.111.033-.086-.008-.1-.021-.2-.043-.3-.074-.043-.013-.262-.1-.163-.054.118.058-.039-.024-.067-.04-.047-.026-.091-.059-.139-.086-.113-.06.076.043.067.055s-.1-.1-.109-.111c-.1-.068.083.074.059.077s-.086-.135-.094-.149c-.051-.089-.1-.246-.039-.057-.031-.1-.069-.194-.094-.294-.01-.038-.017-.076-.026-.113-.043-.185-.052-.043,0,.008-.037-.039-.006-.246-.006-.3,0-.125.023-.008,0,0q-.018.118,0,.035c0-.022.01-.043.017-.065.057-.119-.122.156-.033.065a1.155,1.155,0,0,0,.084-.132,1.034,1.034,0,0,0-.369-1.409,1.059,1.059,0,0,0-1.409.369Z" transform="translate(-144.477 -103.739)" fill="#003cb3"/>
  <path id="Path_2327" data-name="Path 2327" d="M251.26,175.114a2.134,2.134,0,0,1,.352-.152c.075-.024.151-.041.226-.063.021-.006.2-.036.05-.017a2.226,2.226,0,0,1,.355-.006c.165.006-.144-.039.01,0,.075.02.148.039.222.061-.18-.055.055.033.117.068.026.015.176.124.076.046s.043.043.063.063c.051.052.2.24.091.086a3.426,3.426,0,0,1,.215.351c.013.023.1.2.05.092s.027.075.036.1c.035.106.059.215.09.32.054.186.01.05.006,0,0,.057,0,.12.008.176s-.034.188.015-.021l-.017.079q-.046.14,0,.026c-.013-.029.03-.079-.017.015.095-.195.073-.054.01-.032.1-.037-.056.037-.079.053-.107.078-.212.162-.317.244-.272.212-.537.432-.805.648-.319.257-.717.489-1.081.754-.326.236-.644.485-.964.726a13.068,13.068,0,0,1-1.123.776c-.072.043-.146.08-.217.122-.239.141.111-.033-.025.018-.06.022-.241.043-.04.024a3.253,3.253,0,0,1-.383,0c-.2,0-.074-.008-.024,0-.084-.015-.166-.033-.248-.055-.065-.017-.129-.038-.194-.059-.1-.032.078.057-.074-.032l-.167-.1c-.156-.092.022.035-.043-.039-.021-.024-.14-.168-.059-.06s-.061-.111-.061-.11c-.02-.029-.086-.176-.013,0a1.554,1.554,0,0,1-.062-.181,1.81,1.81,0,0,1-.043-.191c.03.18.006-.043.006-.082,0-.022.02-.236,0-.129-.014.089.047-.168.056-.194a3.3,3.3,0,0,1,.257-.439,1.039,1.039,0,0,0-.369-1.409,1.052,1.052,0,0,0-1.409.369,2.972,2.972,0,0,0,.95,4.384,3.574,3.574,0,0,0,2.392.3,4.727,4.727,0,0,0,1.425-.778c.455-.321.892-.665,1.338-1,.521-.386,1.07-.723,1.579-1.131.638-.512,1.484-.972,1.75-1.789a3.183,3.183,0,0,0-.3-2.317,3.226,3.226,0,0,0-1.774-1.654,3.6,3.6,0,0,0-2.887.351,1.03,1.03,0,0,0,1.04,1.779Z" transform="translate(-139.956 -98.664)" fill="#003cb3"/>
  <path id="Path_2328" data-name="Path 2328" d="M245.546,172.591c1.373-1.112,2.687-2.289,4.054-3.4a2.12,2.12,0,0,0,.57-2.348,3.218,3.218,0,0,0-1.539-2.146c-2-1.043-4.1.407-5.6,1.68-1.364,1.159-3.047,2.958-2.7,4.9a3.184,3.184,0,0,0,2.068,2.44c1.215.343,2.256-.4,3.148-1.124a1.037,1.037,0,0,0,0-1.456,1.054,1.054,0,0,0-1.456,0c-.061.05-.122.1-.184.148-.132.1.1-.075-.043.031a4.506,4.506,0,0,1-.424.281.866.866,0,0,1-.329.139.2.2,0,0,1-.141.006.694.694,0,0,1-.179-.114c-.027-.025-.264-.3-.182-.184a2.135,2.135,0,0,1-.139-.225c-.019-.034-.1-.237-.049-.09-.024-.065-.039-.133-.062-.2-.065-.188-.025.082-.026-.129,0-.067,0-.132,0-.2-.015.179,0,.024.012-.015.054-.133.1-.3.129-.351a4.892,4.892,0,0,1,.53-.905c-.071.1.043-.053.047-.058.062-.077.129-.151.192-.224.122-.138.248-.272.377-.4.262-.27.536-.53.822-.775a10.41,10.41,0,0,1,1.805-1.213l.244-.129c.01-.005.215-.088.083-.043.07-.025.142-.04.212-.063.295-.1-.068-.008.107-.027.092-.01.183,0,.275-.01.018,0,.2.01.053-.007a1.6,1.6,0,0,1,.212.045c.012,0,.287.113.156.047a1.73,1.73,0,0,1,.185.107c-.106-.072.029.023.043.039-.012-.012.192.231.094.1s.059.112.059.112c.03.054.058.11.086.165-.076-.154,0-.012.008.022a4.272,4.272,0,0,1,.139.47s.043.3.028.138,0,.118,0,.121c0,.052,0,.1-.007.154,0-.026.043-.236,0-.076-.008.025.14-.289.147-.273a2.245,2.245,0,0,1-.19.153c-.126.1-.251.206-.375.309-1.244,1.036-2.459,2.107-3.717,3.127a1.037,1.037,0,0,0,0,1.456A1.054,1.054,0,0,0,245.546,172.591Z" transform="translate(-137.169 -93.813)" fill="#003cb3"/>
  <path id="Path_2329" data-name="Path 2329" d="M229.526,153.35a2.743,2.743,0,0,0-1.631-1.91,3.039,3.039,0,0,0-2.923.648,5.668,5.668,0,0,0-1.525,2.369,18.5,18.5,0,0,1-.831,2.512c-.9,1.617-2.629,2.67-3.395,4.381a16.62,16.62,0,0,0-1.007,5.078c-.285,2.777-.429,5.567-.639,8.35a1.038,1.038,0,0,0,1.03,1.03,1.051,1.051,0,0,0,1.03-1.03c.17-2.258.3-4.519.494-6.776a30.122,30.122,0,0,1,.673-4.932,7.473,7.473,0,0,1,.237-.767c.07-.188.012-.026-.005.009.022-.046.043-.1.069-.142.1-.166.2-.326.307-.483a22.058,22.058,0,0,1,1.721-2,8.5,8.5,0,0,0,1.466-2.084c.363-.8.487-1.653.787-2.471a2.911,2.911,0,0,1,1.258-1.7.775.775,0,0,1,.673,0c-.09-.051.037.045.047.057-.086-.1.074.129.08.138.015.028.084.184.017.022.033.08.057.164.083.246.386,1.264,2.377.725,1.986-.548Z" transform="translate(-124.204 -86.376)" fill="#003cb3"/>
  <path id="Path_2330" data-name="Path 2330" d="M239.963,166.645a25.961,25.961,0,0,1-1.262,4.326,8.3,8.3,0,0,0-.242,4.733,1.031,1.031,0,0,0,1.986-.548,6.938,6.938,0,0,1,.388-4.1,22.952,22.952,0,0,0,1.189-4.407,1.036,1.036,0,0,0-1.03-1.03A1.055,1.055,0,0,0,239.963,166.645Z" transform="translate(-135.986 -94.544)" fill="#003cb3"/>
  <path id="Path_2331" data-name="Path 2331" d="M242,159.421a7.548,7.548,0,0,1-1.8.059l-.16-.015c-.175-.017.147.025,0,0-.072-.012-.145-.023-.215-.039a1.3,1.3,0,0,1-.369-.125.6.6,0,0,1-.212-.257c.026.07-.032-.3-.023-.109a.662.662,0,0,1,0-.157c.039-.172-.028.135.012-.039a.584.584,0,0,1,.126-.266,1.959,1.959,0,0,1,.36-.3,6.789,6.789,0,0,1,3.449-.772,8.241,8.241,0,0,1,1.659.126,4.193,4.193,0,0,1,1.257.411c.059.034.317.23.172.1.039.035.218.227.149.137-.083-.108.012.011.012.024-.008.125.086.007,0-.039a.386.386,0,0,1,.033.109q.027.115-.006-.086l.037.274c-.011-.121,0,.176,0,.224a.563.563,0,0,1-.025.24,4.851,4.851,0,0,1-.349.987,1.06,1.06,0,0,0,.369,1.409,1.038,1.038,0,0,0,1.409-.369,5.25,5.25,0,0,0,.65-2.489c-.006-.1-.022-.2-.035-.3a1.378,1.378,0,0,0-.025-.188,1.982,1.982,0,0,0-.1-.429,2.4,2.4,0,0,0-.564-.873,6.257,6.257,0,0,0-4.2-1.326,8.75,8.75,0,0,0-5.021,1.111,2.751,2.751,0,0,0-.967,3.87c1.083,1.515,3.32,1.337,4.935,1.081a1.038,1.038,0,0,0,.719-1.267,1.056,1.056,0,0,0-1.267-.719Z" transform="translate(-135.378 -88.678)" fill="#003cb3"/>
  <path id="Path_2332" data-name="Path 2332" d="M251.869,193.828a18.816,18.816,0,0,1-3.836,4.519c-.8.687-1.689,1.268-2.472,1.977a12.081,12.081,0,0,0-2.074,2.495c-.712,1.122,1.069,2.157,1.779,1.039a10.165,10.165,0,0,1,1.989-2.286c.8-.684,1.677-1.271,2.467-1.97a20.661,20.661,0,0,0,3.929-4.734,1.031,1.031,0,0,0-1.779-1.04Z" transform="translate(-138.903 -110.37)" fill="#003cb3"/>
  <path id="Path_2333" data-name="Path 2333" d="M74.879,177.852a40.174,40.174,0,0,0,10.814,1.462,30.4,30.4,0,0,0,10.467-1.759,1.061,1.061,0,0,0,.719-1.267,1.037,1.037,0,0,0-1.267-.719,28.694,28.694,0,0,1-9.92,1.685,38.035,38.035,0,0,1-10.264-1.388,1.031,1.031,0,0,0-.548,1.986Z" transform="translate(-42.329 -100.205)" fill="#003cb3"/>
  <path id="Path_2334" data-name="Path 2334" d="M84.529,257.871a2.676,2.676,0,0,1,.317.337L84.685,258a2.246,2.246,0,0,1,.257.435l-.1-.246a2.132,2.132,0,0,1,.145.524l-.037-.274a2.317,2.317,0,0,1,0,.584l.037-.274a2.555,2.555,0,0,1-.169.617l.1-.246a2.105,2.105,0,0,1-.247.436l.161-.209a1.844,1.844,0,0,1-.325.321l.208-.161a2.216,2.216,0,0,1-.462.264l.246-.1a2.594,2.594,0,0,1-.6.161l.274-.036a2.76,2.76,0,0,1-.7,0l.274.037a2.428,2.428,0,0,1-.576-.153l.246.1a1.909,1.909,0,0,1-.392-.224l.209.161a2.325,2.325,0,0,1-.382-.381l.161.209a2.005,2.005,0,0,1-.257-.436l.1.246a1.88,1.88,0,0,1-.11-.413l.036.274a2.037,2.037,0,0,1,0-.5l-.037.274a2.489,2.489,0,0,1,.172-.61l-.1.246a3.149,3.149,0,0,1,.4-.665l-.161.209a1.92,1.92,0,0,1,.307-.315l-.209.161a2.079,2.079,0,0,1,.422-.247l-.246.1a2.453,2.453,0,0,1,.618-.167l-.274.037a2.474,2.474,0,0,1,.609,0l-.274-.037a2.207,2.207,0,0,1,.5.134l-.246-.1a1.875,1.875,0,0,1,.41.239l-.209-.161c.023.018.045.036.067.056a1.1,1.1,0,0,0,.73.3,1.03,1.03,0,0,0,.73-1.759,3.06,3.06,0,0,0-1.968-.751,3.234,3.234,0,0,0-1.795.491,3.433,3.433,0,0,0-1.441,3.461,2.984,2.984,0,0,0,1.229,1.743,3.175,3.175,0,0,0,5-2.84,3.178,3.178,0,0,0-1.03-2.1,1.03,1.03,0,0,0-1.456,1.456Z" transform="translate(-46.084 -145.946)" fill="#003cb3"/>
  <path id="Path_2335" data-name="Path 2335" d="M99.385,281.65c.858-7.881,1.815-15.739,2.168-23.664a19.377,19.377,0,0,0-.117-3.593,17.465,17.465,0,0,0-1.078-3.724,1.059,1.059,0,0,0-1.267-.719,1.038,1.038,0,0,0-.72,1.267,18.367,18.367,0,0,1,1.006,3.267,14.42,14.42,0,0,1,.133,3.072c-.081,2.132-.232,4.262-.38,6.39-.264,3.824-.687,7.631-1.108,11.441-.232,2.088-.472,4.175-.7,6.265a1.037,1.037,0,0,0,1.03,1.03,1.054,1.054,0,0,0,1.03-1.03Z" transform="translate(-55.558 -142.67)" fill="#003cb3"/>
  <path id="Path_2336" data-name="Path 2336" d="M140.078,161.39a70.617,70.617,0,0,0,8.154,3.444c1.317.5,2.634,1,3.922,1.574.618.274,1.223.578,1.845.838.576.24,1.175.434,1.736.71,2.4,1.184,3.245,4.305,4.05,6.629.879,2.537,1.617,5.117,2.357,7.7.866,3.016,1.8,6.005,2.92,8.938a1.06,1.06,0,0,0,1.267.719,1.038,1.038,0,0,0,.72-1.267c-1.99-5.214-3.255-10.642-5.034-15.921-.908-2.7-1.8-5.913-4.077-7.818a15.327,15.327,0,0,0-3.593-1.771c-1.306-.613-2.632-1.175-3.975-1.7a87.172,87.172,0,0,1-9.251-3.848c-1.17-.621-2.212,1.156-1.04,1.779Z" transform="translate(-79.671 -91.043)" fill="#003cb3"/>
  <path id="Path_2337" data-name="Path 2337" d="M2.058,230.852c.621-12.287,1.189-24.588,2.231-36.846.362-4.262.772-8.555,1.429-12.681.236-1.484.505-2.965.871-4.422a26.145,26.145,0,0,1,.867-2.793,7.124,7.124,0,0,1,1.789-3.022,16.07,16.07,0,0,1,3.868-1.9c1.414-.63,2.8-1.33,4.2-2,2.855-1.356,5.737-2.7,8.452-4.324a1.031,1.031,0,0,0-1.04-1.779c-2.454,1.468-5.047,2.7-7.626,3.932-1.287.613-2.575,1.22-3.86,1.835-1.249.6-2.552,1.086-3.79,1.7A6.639,6.639,0,0,0,6.6,171.109a17.532,17.532,0,0,0-1.647,3.973,36.639,36.639,0,0,0-.983,4.261c-.735,4.091-1.163,8.239-1.543,12.376-.512,5.579-.886,11.165-1.224,16.754C.753,215.929.376,223.391,0,230.852-.069,232.177,1.991,232.173,2.058,230.852Z" transform="translate(0.004 -91.872)" fill="#003cb3"/>
  <path id="Path_2338" data-name="Path 2338" d="M112.8,154.912c-1.312,5.31-3.047,10.508-4.857,15.663-1.8,5.133-3.663,10.247-5.523,15.359q-1.555,4.274-3.1,8.552a1.039,1.039,0,0,0,.719,1.267,1.051,1.051,0,0,0,1.268-.718c3.688-10.279,7.639-20.485,10.977-30.885.921-2.871,1.777-5.763,2.5-8.691.318-1.287-1.668-1.836-1.986-.548Z" transform="translate(-56.678 -88.014)" fill="#003cb3"/>
  <path id="Path_2339" data-name="Path 2339" d="M116.307,192.634q3.885-5.551,7.5-11.283,1.83-2.9,3.589-5.848c1.145-1.918,2.338-3.832,3.373-5.812a1.92,1.92,0,0,0,.079-1.856,6.021,6.021,0,0,0-1.212-1.358c-.911-.9-1.859-1.759-2.81-2.613l-.209,1.618c.849-.5,1.686-1.03,2.553-1.506.843-.461,2.045-.847,1.735-2.08a7.033,7.033,0,0,0-1.221-2.141,17.012,17.012,0,0,0-1.588-1.888,32.317,32.317,0,0,0-5.171-4.094c-1.1-.745-2.132,1.038-1.039,1.778l1.244.842a16.391,16.391,0,0,1,1.469,1.084,22.524,22.524,0,0,1,2.509,2.346,12.1,12.1,0,0,1,.99,1.244q.215.312.409.637.109.182.211.366c.025.043.167.359.166.267l.141-.52-.07.111.369-.369a17.97,17.97,0,0,1-1.8.981c-.654.378-1.3.777-1.946,1.162a1.039,1.039,0,0,0-.209,1.617c.776.7,1.549,1.4,2.3,2.12q.546.522,1.075,1.061c.024.024.219.27.278.287-.035-.01.005-.21,0-.2-.115.226-.248.443-.373.663q-1.591,2.8-3.246,5.565-3.265,5.45-6.776,10.751-2.014,3.041-4.107,6.029A1.039,1.039,0,0,0,114.9,193a1.051,1.051,0,0,0,1.409-.369Z" transform="translate(-65.3 -87.682)" fill="#003cb3"/>
  <path id="Path_2340" data-name="Path 2340" d="M28.749,247.356c.321-4.348.767-8.686,1.142-13.029.148-1.709.3-3.421.372-5.135a23.5,23.5,0,0,0-.183-3.642c-.848-7.485-2.5-14.848-3.685-22.283-.4-2.529-.783-5.064-1.2-7.587a40.034,40.034,0,0,0-1.036-5.114c-.386-1.264-2.375-.725-1.986.548a35.264,35.264,0,0,1,.909,4.359c.375,2.192.71,4.392,1.054,6.589.606,3.862,1.309,7.7,2.008,11.55.653,3.588,1.3,7.316,1.748,10.849a29.6,29.6,0,0,1,.336,3.957c-.012,1.5-.154,3.012-.276,4.511-.394,4.812-.905,9.613-1.26,14.429a1.03,1.03,0,1,0,2.06,0Z" transform="translate(-12.625 -108.376)" fill="#003cb3"/>
  <path id="Path_2341" data-name="Path 2341" d="M167.874,189.928c-1.065,7.906-2.078,15.8-3.507,23.654-.665,3.654-1.326,7.313-1.8,11a24.529,24.529,0,0,0-.285,3.739c.038,1.523.172,3.047.3,4.565.39,4.7.885,9.387,1.231,14.088a1.055,1.055,0,0,0,1.03,1.03,1.039,1.039,0,0,0,1.03-1.03c-.309-4.2-.737-8.4-1.1-12.592a44.23,44.23,0,0,1-.282-8.634c.37-3.4,1.027-6.957,1.651-10.42.687-3.806,1.364-7.608,1.926-11.435.39-2.654.749-5.312,1.1-7.972q.207-1.593.41-3.185.086-.677.174-1.354.037-.292.076-.583c.012-.093.079-.589.043-.321a1.066,1.066,0,0,0-.72-1.267,1.037,1.037,0,0,0-1.267.72Z" transform="translate(-92.639 -107.992)" fill="#003cb3"/>
  <path id="Path_2342" data-name="Path 2342" d="M65.844,155.412c3.594,10.692,7.227,21.366,11.15,31.944,1.135,3.064,2.274,6.126,3.378,9.2a1.057,1.057,0,0,0,1.267.719,1.039,1.039,0,0,0,.719-1.267c-1.967-5.479-4.043-10.918-6.02-16.393C74.427,174.324,72.6,169,70.8,163.673q-1.491-4.4-2.968-8.809c-.42-1.25-2.41-.714-1.986.548Z" transform="translate(-37.555 -88.001)" fill="#003cb3"/>
  <path id="Path_2343" data-name="Path 2343" d="M64.627,191.944Q57.308,181.486,50.954,170.4q-.229-.4-.456-.8c-.067-.118-.135-.236-.2-.355-.027-.047-.179-.4-.163-.255,0,.027.019.129-.007.151.147-.129.282-.291.419-.429q.283-.286.571-.567c.867-.846,1.764-1.661,2.666-2.471a1.039,1.039,0,0,0-.209-1.617c-.65-.386-1.292-.783-1.946-1.163a17.96,17.96,0,0,1-1.8-.98l.369.369-.07-.111.141.52c0,.077.107-.161.124-.193q.1-.187.206-.372.212-.367.446-.721a13.08,13.08,0,0,1,.969-1.287,20.707,20.707,0,0,1,2.472-2.416,14.464,14.464,0,0,1,1.465-1.091l1.244-.842c1.091-.739.062-2.525-1.04-1.778a28.577,28.577,0,0,0-5.138,4.154,18.025,18.025,0,0,0-1.56,1.94,7.58,7.58,0,0,0-1.21,2.162c-.314,1.19.828,1.588,1.649,2.033.9.486,1.762,1.032,2.64,1.553l-.208-1.617c-.851.765-1.7,1.534-2.521,2.33-.744.721-1.783,1.5-1.707,2.639a3.59,3.59,0,0,0,.621,1.455q.454.8.913,1.6.817,1.416,1.651,2.825,3.473,5.863,7.23,11.551,2.123,3.215,4.334,6.371a1.058,1.058,0,0,0,1.409.369,1.039,1.039,0,0,0,.369-1.409Z" transform="translate(-27.454 -87.805)" fill="#003cb3"/>
  <path id="Path_2344" data-name="Path 2344" d="M177.042,231.433c2.627-5.814,5.027-11.723,7.435-17.63l-1.513.616q3.7,1.943,7.544,3.577a44.107,44.107,0,0,0,7.631,2.648l-.719-1.267c-1.263,4.044-2.48,8.1-3.862,12.108a67.627,67.627,0,0,1-4.587,11.061c-1.526,2.724-3.639,5.335-6.667,6.425a11.633,11.633,0,0,1-10.209-1.135,20.238,20.238,0,0,1-4.209-3.948c-1.252-1.447-2.415-2.968-3.6-4.469a1.036,1.036,0,0,0-1.456,0,1.055,1.055,0,0,0,0,1.456c2.247,2.842,4.424,5.894,7.331,8.111a13.612,13.612,0,0,0,11.032,2.431c8.017-1.657,11.111-10.4,13.578-17.191,1.712-4.712,3.144-9.517,4.637-14.3a1.039,1.039,0,0,0-.719-1.267,41.994,41.994,0,0,1-7.3-2.507q-3.762-1.6-7.385-3.51a1.05,1.05,0,0,0-1.513.615c-2.34,5.743-4.674,11.486-7.227,17.139a1.061,1.061,0,0,0,.369,1.409,1.038,1.038,0,0,0,1.409-.369Z" transform="translate(-92.785 -121.314)" fill="#003cb3"/>
  <path id="Path_2345" data-name="Path 2345" d="M92.162,117.663a8.325,8.325,0,0,0,4.012.928,6.523,6.523,0,0,0,4.045-1.192,1.035,1.035,0,0,0,0-1.456,1.057,1.057,0,0,0-1.456,0c.312-.242.067-.055-.013,0s-.164.1-.248.144-.375.158-.095.054c-.114.043-.227.086-.343.125a6.021,6.021,0,0,1-.96.219c.151-.022-.036,0-.095.009-.094.009-.188.017-.283.023-.227.015-.454.02-.682.019-.2,0-.407-.008-.611-.022-.093-.006-.186-.014-.279-.023-.008,0-.343-.047-.139-.015a6.872,6.872,0,0,1-.893-.2c-.126-.037-.248-.082-.372-.125-.264-.091.148.077-.091-.036q-.23-.109-.455-.227a1.053,1.053,0,0,0-1.409.369,1.041,1.041,0,0,0,.369,1.409Z" transform="translate(-52.323 -66.021)" fill="#003cb3"/>
  <path id="Path_2346" data-name="Path 2346" d="M100.049,96.565a18.88,18.88,0,0,1,.444,2.031l-.036-.274a1.249,1.249,0,0,1,.007.28l.037-.274a.669.669,0,0,1-.031.126l.1-.246a.48.48,0,0,1-.043.081l.161-.209a.419.419,0,0,1-.067.066l.209-.161a1.4,1.4,0,0,1-.161.086l.246-.1a1.167,1.167,0,0,1-.271.079l.274-.036a1.1,1.1,0,0,1-.254,0l.274.036c-.1-.013-.19-.036-.286-.049a.778.778,0,0,0-.411-.018.761.761,0,0,0-.383.122,1.03,1.03,0,0,0-.369,1.409.987.987,0,0,0,.615.472c.218.029.429.086.649.094a2.08,2.08,0,0,0,.956-.227,1.377,1.377,0,0,0,.764-.908,2.286,2.286,0,0,0-.009-.98c-.111-.654-.262-1.3-.429-1.944a1.03,1.03,0,1,0-1.986.548Z" transform="translate(-56.715 -54.38)" fill="#003cb3"/>
  <path id="Path_2347" data-name="Path 2347" d="M75.758,82.7c-.339,1.1-.118,3.637,1.97,3.853,2.76-.017,2.907-3.082,1.977-4.523C78.945,80.849,76.709,80.358,75.758,82.7Z" transform="translate(-43.172 -46.264)" fill="#003cb3"/>
  <path id="Path_2348" data-name="Path 2348" d="M121.489,82.7c.339,1.1.118,3.637-1.97,3.853-2.759-.017-2.907-3.082-1.977-4.523C118.3,80.849,120.539,80.358,121.489,82.7Z" transform="translate(-66.806 -46.264)" fill="#003cb3"/>
</svg>
