<svg xmlns="http://www.w3.org/2000/svg" width="143.976" height="117.037" viewBox="0 0 143.976 117.037">
  <g id="b" transform="translate(0.5 0.5)">
    <g id="c" transform="translate(0.5 0.5)">
      <g id="Group_172" data-name="Group 172">
        <ellipse id="Ellipse_27" data-name="Ellipse 27" cx="71.061" cy="14.562" rx="71.061" ry="14.562" transform="translate(0 85.914)" fill="none"/>
        <rect id="Rectangle_2078" data-name="Rectangle 2078" width="3.058" height="5.242" transform="translate(120.57 97.709)" fill="none"/>
        <path id="Path_2613" data-name="Path 2613" d="M86.033,76.367c-2.621,0-3.349-.146-4.368-1.165S80.5,71.271,80.5,65.883,83.849,48.7,86.033,48.7s5.533,11.649,5.533,17.183-.146,8.446-1.165,9.465-1.747,1.019-4.368,1.019Z" transform="translate(35.993 21.487)" fill="none"/>
        <rect id="Rectangle_2079" data-name="Rectangle 2079" width="3.058" height="5.242" transform="translate(18.056 97.709)" fill="none"/>
        <path id="Path_2614" data-name="Path 2614" d="M15.633,76.367c-2.621,0-3.349-.146-4.368-1.165S10.1,71.271,10.1,65.883,13.449,48.7,15.633,48.7s5.533,11.649,5.533,17.183S21.021,74.183,20,75.2s-1.747,1.165-4.368,1.165Z" transform="translate(3.879 21.487)" fill="none"/>
        <path id="Path_2615" data-name="Path 2615" d="M95.461,8.072l.437-.437V.5H39.107L32.555,5.305V8.8L24.4,14.77v88.243H94.441l9.465-6.844V8.072Z" transform="translate(10.402 -0.5)" fill="none"/>
        <rect id="Rectangle_2080" data-name="Rectangle 2080" width="31.307" height="6.553" transform="translate(52.567 81.545)" fill="none"/>
        <rect id="Rectangle_2081" data-name="Rectangle 2081" width="5.533" height="16.018" transform="translate(55.043 88.243)" fill="none"/>
        <rect id="Rectangle_2082" data-name="Rectangle 2082" width="5.533" height="16.018" transform="translate(75.72 88.243)" fill="none"/>
        <rect id="Rectangle_2083" data-name="Rectangle 2083" width="15.144" height="15.144" transform="translate(60.576 88.243)" fill="none"/>
        <path id="Path_2616" data-name="Path 2616" d="M131.846,64.2c6.7,2.184,10.63,4.805,10.63,7.718,0,8.009-31.744,14.562-71.061,14.562S.5,79.927.5,71.918c0-2.767,3.786-5.388,10.193-7.572" transform="translate(-0.5 28.558)" fill="none" stroke="#003cb3" stroke-linecap="round" stroke-linejoin="round" stroke-width="2"/>
        <path id="Path_2617" data-name="Path 2617" d="M77.4,61.4l3.495.582" transform="translate(34.579 27.28)" fill="none" stroke="#003cb3" stroke-linecap="round" stroke-linejoin="round" stroke-width="2"/>
        <path id="Path_2618" data-name="Path 2618" d="M19.2,61.882c1.165-.146,2.33-.291,3.64-.582" transform="translate(8.03 27.235)" fill="none" stroke="#003cb3" stroke-linecap="round" stroke-linejoin="round" stroke-width="2"/>
        <path id="Path_2619" data-name="Path 2619" d="M91.567,65.983c0-5.388-3.349-17.183-5.533-17.183S80.5,60.449,80.5,65.983c0,5.388.146,8.3,1.165,9.319.728.874,1.456,1.019,2.912,1.165v5.1h3.058v-5.1c1.456-.146,2.039-.291,2.767-1.165,1.019-1.019,1.165-3.932,1.165-9.319Z" transform="translate(35.993 21.533)" fill="none" stroke="#003cb3" stroke-linecap="round" stroke-linejoin="round" stroke-width="2"/>
        <path id="Path_2620" data-name="Path 2620" d="M21.167,65.983c0-5.388-3.349-17.183-5.533-17.183S10.1,60.449,10.1,65.983c0,5.388.146,8.3,1.165,9.319.728.874,1.456,1.019,2.912,1.165v5.1h3.058v-5.1c1.456-.146,2.039-.291,2.767-1.165,1.019-1.019,1.165-3.932,1.165-9.319Z" transform="translate(3.879 21.533)" fill="none" stroke="#003cb3" stroke-linecap="round" stroke-linejoin="round" stroke-width="2"/>
        <line id="Line_149" data-name="Line 149" x1="15.727" transform="translate(59.994 102.514)" fill="none" stroke="#003cb3" stroke-linecap="round" stroke-linejoin="round" stroke-width="2"/>
        <path id="Path_2621" data-name="Path 2621" d="M45.307,98.543H22.3V10.3H92.341V98.543H71.81" transform="translate(9.444 3.97)" fill="none" stroke="#003cb3" stroke-linecap="round" stroke-linejoin="round" stroke-width="2"/>
        <path id="Path_2622" data-name="Path 2622" d="M70.4,75.37l9.465-6.844V61.1" transform="translate(31.386 27.143)" fill="none" stroke="#003cb3" stroke-linecap="round" stroke-linejoin="round" stroke-width="2"/>
        <path id="Path_2623" data-name="Path 2623" d="M79.135,86.371V5.7H72" transform="translate(32.116 1.872)" fill="none" stroke="#003cb3" stroke-linecap="round" stroke-linejoin="round" stroke-width="2"/>
        <rect id="Rectangle_2084" data-name="Rectangle 2084" width="31.307" height="6.553" transform="translate(52.567 81.545)" fill="none" stroke="#003cb3" stroke-linecap="round" stroke-linejoin="round" stroke-width="2"/>
        <rect id="Rectangle_2085" data-name="Rectangle 2085" width="5.533" height="16.018" transform="translate(55.043 88.243)" fill="none" stroke="#003cb3" stroke-linecap="round" stroke-linejoin="round" stroke-width="2"/>
        <rect id="Rectangle_2086" data-name="Rectangle 2086" width="5.533" height="16.018" transform="translate(75.72 88.243)" fill="none" stroke="#003cb3" stroke-linecap="round" stroke-linejoin="round" stroke-width="2"/>
        <rect id="Rectangle_2087" data-name="Rectangle 2087" width="15.144" height="15.144" transform="translate(60.576 88.243)" fill="none" stroke="#003cb3" stroke-linecap="round" stroke-linejoin="round" stroke-width="2"/>
        <path id="Path_2624" data-name="Path 2624" d="M91.243,7.2V.5H34.453L27.9,5.305v5.533" transform="translate(11.999 -0.5)" fill="none" stroke="#003cb3" stroke-linecap="round" stroke-linejoin="round" stroke-width="2"/>
        <rect id="Rectangle_2088" data-name="Rectangle 2088" width="5.679" height="7.281" transform="translate(86.787 38.734)" fill="none" stroke="#003cb3" stroke-linecap="round" stroke-linejoin="round" stroke-width="2"/>
        <rect id="Rectangle_2089" data-name="Rectangle 2089" width="5.679" height="7.281" transform="translate(42.229 51.111)" fill="none" stroke="#003cb3" stroke-linecap="round" stroke-linejoin="round" stroke-width="2"/>
        <rect id="Rectangle_2090" data-name="Rectangle 2090" width="5.679" height="7.281" transform="translate(57.082 51.111)" fill="none" stroke="#003cb3" stroke-linecap="round" stroke-linejoin="round" stroke-width="2"/>
        <rect id="Rectangle_2091" data-name="Rectangle 2091" width="5.679" height="7.281" transform="translate(71.934 51.111)" fill="none" stroke="#003cb3" stroke-linecap="round" stroke-linejoin="round" stroke-width="2"/>
        <rect id="Rectangle_2092" data-name="Rectangle 2092" width="5.679" height="7.281" transform="translate(42.229 38.588)" fill="none" stroke="#003cb3" stroke-linecap="round" stroke-linejoin="round" stroke-width="2"/>
        <rect id="Rectangle_2093" data-name="Rectangle 2093" width="5.679" height="7.281" transform="translate(57.082 38.588)" fill="none" stroke="#003cb3" stroke-linecap="round" stroke-linejoin="round" stroke-width="2"/>
        <rect id="Rectangle_2094" data-name="Rectangle 2094" width="5.679" height="7.281" transform="translate(71.934 38.588)" fill="none" stroke="#003cb3" stroke-linecap="round" stroke-linejoin="round" stroke-width="2"/>
        <rect id="Rectangle_2095" data-name="Rectangle 2095" width="5.679" height="7.281" transform="translate(86.787 51.111)" fill="none" stroke="#003cb3" stroke-linecap="round" stroke-linejoin="round" stroke-width="2"/>
        <rect id="Rectangle_2096" data-name="Rectangle 2096" width="5.679" height="7.281" transform="translate(42.229 63.489)" fill="none" stroke="#003cb3" stroke-linecap="round" stroke-linejoin="round" stroke-width="2"/>
        <rect id="Rectangle_2097" data-name="Rectangle 2097" width="5.679" height="7.281" transform="translate(57.082 63.489)" fill="none" stroke="#003cb3" stroke-linecap="round" stroke-linejoin="round" stroke-width="2"/>
        <rect id="Rectangle_2098" data-name="Rectangle 2098" width="5.679" height="7.281" transform="translate(71.934 63.489)" fill="none" stroke="#003cb3" stroke-linecap="round" stroke-linejoin="round" stroke-width="2"/>
        <rect id="Rectangle_2099" data-name="Rectangle 2099" width="5.679" height="7.281" transform="translate(86.787 63.489)" fill="none" stroke="#003cb3" stroke-linecap="round" stroke-linejoin="round" stroke-width="2"/>
        <line id="Line_150" data-name="Line 150" x1="6.698" y2="5.097" transform="translate(31.89 8.883)" fill="none" stroke="#003cb3" stroke-linecap="round" stroke-linejoin="round" stroke-width="2"/>
        <line id="Line_151" data-name="Line 151" y1="5.97" x2="9.028" transform="translate(101.931 8.446)" fill="none" stroke="#003cb3" stroke-linecap="round" stroke-linejoin="round" stroke-width="2"/>
        <line id="Line_152" data-name="Line 152" y2="4.514" transform="translate(95.087 6.261)" fill="none" stroke="#003cb3" stroke-linecap="round" stroke-linejoin="round" stroke-width="2"/>
        <line id="Line_153" data-name="Line 153" x2="51.111" transform="translate(42.52 6.261)" fill="none" stroke="#003cb3" stroke-linecap="round" stroke-linejoin="round" stroke-width="2"/>
        <line id="Line_154" data-name="Line 154" x1="5.242" y2="2.912" transform="translate(96.252 2.33)" fill="none" stroke="#003cb3" stroke-linecap="round" stroke-linejoin="round" stroke-width="2"/>
      </g>
    </g>
  </g>
</svg>
