<svg id="_15692_line" data-name="15692_line" xmlns="http://www.w3.org/2000/svg" width="162.366" height="131.046" viewBox="0 0 162.366 131.046">
  <path id="Path_2423" data-name="Path 2423" d="M254.643,114.358a22.3,22.3,0,0,0-.777-2.134q-.163-.386-.335-.77c-.029-.064-.056-.129-.086-.191-.082-.163.119.287-.011-.033-.644-1.579-2.4-.957-3.721-1.064a11.69,11.69,0,0,1-4.1-1.093,4.557,4.557,0,0,1-2.31-2.794,16.288,16.288,0,0,1-.595-4.832,4.787,4.787,0,0,0-1.422-3.936c-.287-.325-.674-.687-.488-1.15.24-.6.949-.747,1.447-1.049a5.725,5.725,0,0,0,2.22-2.807c1.208-2.911.921-6.137,1.737-9.141a.859.859,0,0,0-1.655-.456c-.746,2.746-.571,5.646-1.448,8.363a4.437,4.437,0,0,1-1.776,2.591,5.248,5.248,0,0,0-1.7,1.177,2.477,2.477,0,0,0-.546,2.06c.3,1.33,1.767,1.987,1.928,3.393.079.69-.013,1.434.022,2.131a23.358,23.358,0,0,0,.272,2.6,6.713,6.713,0,0,0,5.431,6.1,11.822,11.822,0,0,0,4.8.529c.341-.043.257-.118.4.2.065.147.134.293.2.44a20.083,20.083,0,0,1,.858,2.317c.321,1.054,1.978.6,1.655-.456Z" transform="translate(-136.458 -46.985)" fill="#003cb3"/>
  <path id="Path_2424" data-name="Path 2424" d="M278.293,94.017c1.484-2.052,3.813-3.367,5.553-5.19a22.42,22.42,0,0,0,4.1-5.949,20.977,20.977,0,0,0-.372-18.421A19.935,19.935,0,0,0,276.6,54.415a21.612,21.612,0,0,0-17.056,1.412,15.385,15.385,0,0,0-7.716,9.195,18.32,18.32,0,0,0-.475,2.227.885.885,0,0,0,.6,1.056.864.864,0,0,0,1.056-.6,14.793,14.793,0,0,1,2.508-6.361c.136-.192-.053.054.114-.148.106-.129.212-.257.322-.382q.364-.414.76-.8a15.889,15.889,0,0,1,2.239-1.822,19.765,19.765,0,0,1,16.16-2.446A17.46,17.46,0,0,1,285.13,63.63,19.474,19.474,0,0,1,286.9,81a20.126,20.126,0,0,1-3.6,5.887c-1.531,1.753-3.424,3.059-5.092,4.665a11.938,11.938,0,0,0-1.4,1.6.865.865,0,0,0,.308,1.175.878.878,0,0,0,1.175-.308Z" transform="translate(-143.473 -30.42)" fill="#003cb3"/>
  <path id="Path_2425" data-name="Path 2425" d="M284.205,110.1c.826-.667,2.267-.9,2.888.161a3.853,3.853,0,0,1-.019,3.218,6.142,6.142,0,0,1-4.589,3.708.859.859,0,0,0,.456,1.655,8.029,8.029,0,0,0,5.294-3.776c1.089-2.029,1.588-5.433-.784-6.806a3.942,3.942,0,0,0-4.46.626.863.863,0,0,0,0,1.214.878.878,0,0,0,1.214,0Z" transform="translate(-160.914 -61.55)" fill="#003cb3"/>
  <path id="Path_2426" data-name="Path 2426" d="M254.494,101.5c-.376.735-.571,2.552.8,2.967,1.852.336,2.365-1.808,1.937-2.942A1.465,1.465,0,0,0,254.494,101.5Z" transform="translate(-145.126 -57.417)" fill="#003cb3"/>
  <path id="Path_2427" data-name="Path 2427" d="M288.216,129.822a11.149,11.149,0,0,0,.847,2.638,9.925,9.925,0,0,0,1.44,2.4,6.683,6.683,0,0,0,2.15,1.556,18.77,18.77,0,0,0,2.927,1.163c1.058.327,1.51-1.33.456-1.655a16.028,16.028,0,0,1-2.516-.99,5.328,5.328,0,0,1-1.8-1.287,9.064,9.064,0,0,1-1.171-2.052,9.651,9.651,0,0,1-.674-2.228.865.865,0,0,0-1.056-.6.879.879,0,0,0-.6,1.056Z" transform="translate(-164.518 -73.491)" fill="#003cb3"/>
  <path id="Path_2428" data-name="Path 2428" d="M245.187,128.14a10.625,10.625,0,0,0,3.226.266.858.858,0,0,0,0-1.717,10.342,10.342,0,0,1-2.136-.076l.228.03c-.289-.04-.577-.091-.861-.159a.858.858,0,0,0-.456,1.655Z" transform="translate(-139.61 -72.188)" fill="#003cb3"/>
  <path id="Path_2429" data-name="Path 2429" d="M252.762,81.773c.955,1.1,2.489,1.611,3.76,2.238,1.4.693,2.8,1.41,4.2,2.118q.966.488,1.935.969c.641.315,1.418.529,1.573,1.317a15.564,15.564,0,0,1,.017,4.434.858.858,0,0,0,.63.828c.683.142,1.353.341,2.035.483,1.078.224,1.539-1.429.456-1.655-.682-.142-1.353-.341-2.035-.483l.63.827a15.971,15.971,0,0,0-.079-4.892c-.372-1.693-2.1-2.207-3.476-2.9-1.455-.73-2.9-1.477-4.359-2.2q-1.041-.52-2.092-1.021a5.833,5.833,0,0,1-1.981-1.276c-.727-.835-1.937.384-1.214,1.214Z" transform="translate(-144.167 -45.828)" fill="#003cb3"/>
  <path id="Path_2430" data-name="Path 2430" d="M75.11,95.022q.2-.8.446-1.579a.858.858,0,0,0-1.261-.969.926.926,0,0,0-.394.515q-.249.781-.446,1.578a.9.9,0,0,0,.086.661.858.858,0,0,0,1.569-.2Z" transform="translate(-41.917 -52.723)" fill="#003cb3"/>
  <path id="Path_2431" data-name="Path 2431" d="M154.333,283.143c5.858-1.683,11.65-3.634,17.462-5.468l7.324-2.313c1.05-.331.6-1.989-.456-1.655-7.441,2.35-14.878,4.712-22.329,7.028-.818.254-1.635.515-2.458.752A.859.859,0,0,0,154.333,283.143Z" transform="translate(-87.499 -156.226)" fill="#003cb3"/>
  <path id="Path_2432" data-name="Path 2432" d="M252.829,284.628c.587-4.407.907-8.84,1.262-13.269.086-1.1-1.631-1.1-1.717,0-.355,4.43-.674,8.862-1.262,13.269a.863.863,0,0,0,.858.858.881.881,0,0,0,.858-.858Z" transform="translate(-143.352 -154.44)" fill="#003cb3"/>
  <path id="Path_2433" data-name="Path 2433" d="M319.273,156.178a14.225,14.225,0,0,1,6.3,3,24.08,24.08,0,0,1,5.6,6.394c.575.941,2.06.079,1.482-.866a25.6,25.6,0,0,0-6.012-6.852,15.763,15.763,0,0,0-6.92-3.331.885.885,0,0,0-1.056.6.865.865,0,0,0,.6,1.056Z" transform="translate(-181.904 -88.198)" fill="#003cb3"/>
  <path id="Path_2434" data-name="Path 2434" d="M287.641,149.2c-.215-1.066-.285-2.31-1.1-3.119a3.392,3.392,0,0,0-2.432-.916,30.632,30.632,0,0,0-3.691.224c-4.288.5-8.723,1.558-12.369,3.962a13.375,13.375,0,0,0-4.539,4.673c-.524.973.958,1.841,1.482.866,1.619-3.009,4.883-4.982,8.015-6.1a34.5,34.5,0,0,1,6.012-1.485,32.051,32.051,0,0,1,3.24-.364q.769-.048,1.539-.058a2.623,2.623,0,0,1,1.106.129c.921.4.9,1.793,1.076,2.644.218,1.082,1.873.624,1.655-.457Z" transform="translate(-150.369 -82.871)" fill="#003cb3"/>
  <path id="Path_2435" data-name="Path 2435" d="M262.236,221.254c.424-8,.721-16,1.113-24,.156-3.183-.155-6.784,2.171-9.3a7.387,7.387,0,0,1,3.559-2.049q2.267-.654,4.533-1.311,10.042-2.91,20.083-5.836c3.083-.9,6.157-1.909,9.269-2.693a5.229,5.229,0,0,1,6.173,3.359,12.666,12.666,0,0,1,.091,4.589c-.121,1.82-.288,3.637-.474,5.452-.37,3.6-.823,7.2-1.217,10.8q-.136,1.247-.257,2.5a.865.865,0,0,0,.858.858.877.877,0,0,0,.858-.858c.359-3.691.83-7.366,1.237-11.05.208-1.88.4-3.76.558-5.645a46.549,46.549,0,0,0,.3-5.309,6.861,6.861,0,0,0-5.347-6.388,9,9,0,0,0-4.6.437l-4.78,1.391q-10.433,3.037-20.867,6.069l-4.885,1.416a18.528,18.528,0,0,0-4.454,1.569,8.642,8.642,0,0,0-3.111,3.243,10.713,10.713,0,0,0-1.2,4.7c-.451,8.4-.761,16.816-1.176,25.223q-.07,1.419-.145,2.839c-.058,1.1,1.658,1.1,1.717,0Z" transform="translate(-148.722 -99.456)" fill="#003cb3"/>
  <path id="Path_2436" data-name="Path 2436" d="M223.112,187.274c-1.942,4.055-3.9,8.1-5.812,12.173-1.838,3.917-3.693,7.845-5.241,11.887-1.945,5.083-4.356,12.266-.011,16.832a8.655,8.655,0,0,0,6.361,2.426,15.125,15.125,0,0,0,7.881-3.106,41.1,41.1,0,0,0,4.178-3.6q1.431-1.32,2.837-2.665c.8-.766-.416-1.979-1.214-1.214-1.947,1.867-3.905,3.743-5.987,5.463-.246.2-.418.343-.552.439-.435.312-.893.6-1.351.873a15.778,15.778,0,0,1-3.7,1.734,7.374,7.374,0,0,1-3.476.258,7.933,7.933,0,0,1-2.827-1.006c-2.216-1.476-2.882-4.18-2.829-6.689a26.231,26.231,0,0,1,2.056-8.535c1.434-3.822,3.157-7.529,4.883-11.226,2.06-4.411,4.181-8.79,6.283-13.18.475-.991-1.005-1.863-1.482-.866Z" transform="translate(-119.662 -106.656)" fill="#003cb3"/>
  <path id="Path_2437" data-name="Path 2437" d="M214.367,226.625c-2.532-.644-4.792,1.1-5.665,3.39a8.729,8.729,0,0,0-.445,3.772c.058.737.172,1.47.3,2.2.08.444.419,1.3.163,1.717-.581.944.9,1.806,1.482.866.62-1.006.138-2.279-.043-3.347a10.428,10.428,0,0,1-.129-3.569c.327-1.817,1.757-3.905,3.878-3.368a.859.859,0,0,0,.457-1.655Z" transform="translate(-118.862 -129.296)" fill="#003cb3"/>
  <path id="Path_2438" data-name="Path 2438" d="M242.9,168.988a18.67,18.67,0,0,1,4.072-5.04,20.6,20.6,0,0,1,5.633-3.226,69.023,69.023,0,0,1,14.091-4.066,47.416,47.416,0,0,1,7.863-.787.859.859,0,0,0,0-1.717,57.872,57.872,0,0,0-14.845,2.341,68.339,68.339,0,0,0-7.109,2.388,25.045,25.045,0,0,0-6.241,3.359,19.808,19.808,0,0,0-4.947,5.879.859.859,0,0,0,1.482.866Z" transform="translate(-137.752 -88.001)" fill="#003cb3"/>
  <path id="Path_2439" data-name="Path 2439" d="M161.533,170.562l17.149-3.27h-.457l16.4,4.532a.859.859,0,0,0,.457-1.655q-6.143-1.709-12.291-3.4l-3.059-.845a3.78,3.78,0,0,0-1.5-.289c-.561.089-1.119.215-1.677.319q-3.435.653-6.87,1.31l-8.6,1.641c-1.084.206-.625,1.861.456,1.655Z" transform="translate(-91.6 -94.557)" fill="#003cb3"/>
  <path id="Path_2440" data-name="Path 2440" d="M1.076,204.534l12.616-2.412c1.084-.207.625-1.862-.456-1.655q-6.308,1.2-12.616,2.412c-1.084.207-.625,1.862.457,1.655Z" transform="translate(-0.001 -114.43)" fill="#003cb3"/>
  <path id="Path_2441" data-name="Path 2441" d="M11.542,151.987A8.3,8.3,0,0,0,5.729,159a19.032,19.032,0,0,0,.459,4.823q.406,2.734.806,5.468l.889,6.063a.864.864,0,0,0,1.056.6.88.88,0,0,0,.6-1.056q-.738-5.028-1.476-10.056c-.415-2.805-1.3-5.813.291-8.411A6.616,6.616,0,0,1,12,153.642c1.047-.337.6-2-.457-1.655Z" transform="translate(-3.246 -86.739)" fill="#003cb3"/>
  <path id="Path_2442" data-name="Path 2442" d="M108.933,200.669a9.15,9.15,0,0,0,7.218,1.518,4.263,4.263,0,0,0,1.665-.644,9.265,9.265,0,0,0,1.451-1.485c.772-.858,1.525-1.732,2.239-2.639.808-1.026,1.571-2.083,2.36-3.122a4.6,4.6,0,0,0,1-3.3,5.759,5.759,0,0,0-1.974-3.126,14.229,14.229,0,0,0-3.347-2.438,3.354,3.354,0,0,0-2.4-.343c-.747.188-1.465.527-2.214.733a18.905,18.905,0,0,0-4.469,1.479.859.859,0,0,0,.866,1.482,13.536,13.536,0,0,1,3.344-1.116c.533-.139,1.066-.279,1.59-.446a4.7,4.7,0,0,1,1.826-.507,3.98,3.98,0,0,1,1.511.736,12.846,12.846,0,0,1,1.428,1.046,6.9,6.9,0,0,1,2.086,2.43,2.678,2.678,0,0,1-.606,2.346c-.657.864-1.291,1.745-1.955,2.6q-.929,1.2-1.934,2.339-.526.6-1.066,1.182a2.931,2.931,0,0,1-1.154.96,7.034,7.034,0,0,1-3.154.268,7.442,7.442,0,0,1-3.444-1.435.864.864,0,0,0-1.174.308.88.88,0,0,0,.308,1.175Z" transform="translate(-61.949 -105.61)" fill="#003cb3"/>
  <path id="Path_2443" data-name="Path 2443" d="M119.556,198.248a4.835,4.835,0,0,0,.743-.231,5.029,5.029,0,0,0,.824-.4.9.9,0,0,0,.395-.515.878.878,0,0,0-.086-.661.858.858,0,0,0-1.174-.308,3.825,3.825,0,0,1-.565.293l.205-.086a4.845,4.845,0,0,1-.8.254.858.858,0,0,0-.205,1.568.931.931,0,0,0,.661.086Z" transform="translate(-67.631 -111.898)" fill="#003cb3"/>
  <path id="Path_2444" data-name="Path 2444" d="M56.093,158.944a24.282,24.282,0,0,0-1.083,8.47,7.19,7.19,0,0,0,1.306,3.923,9.416,9.416,0,0,0,4.109,2.816,22.962,22.962,0,0,0,4.42,1.352c1.078.221,1.54-1.433.456-1.655a22.153,22.153,0,0,1-3.466-.964,9.9,9.9,0,0,1-3.792-2.149,5.064,5.064,0,0,1-1.3-3.181,14.657,14.657,0,0,1,.006-3.415,38.516,38.516,0,0,1,1-4.74.859.859,0,0,0-1.655-.456Z" transform="translate(-31.368 -90.389)" fill="#003cb3"/>
  <path id="Path_2445" data-name="Path 2445" d="M41.591,147.827a20.651,20.651,0,0,1-13.664-5.089,14.812,14.812,0,0,1-3.978-5.665,20.8,20.8,0,0,1-1.094-7.879A41.26,41.26,0,0,1,24,121.2a68.731,68.731,0,0,1,2.225-7.821,25.834,25.834,0,0,1,3.218-6.465,17.7,17.7,0,0,1,4.485-4.283c3.244-2.189,6.961-3.6,10.536-5.15a.864.864,0,0,0,.308-1.174A.881.881,0,0,0,43.6,96a74.629,74.629,0,0,0-9.7,4.608,20.461,20.461,0,0,0-5.067,4.31,24.246,24.246,0,0,0-3.729,6.582,60.091,60.091,0,0,0-2.485,8.068,49.948,49.948,0,0,0-1.416,8.3,24.737,24.737,0,0,0,.7,8.472,16.356,16.356,0,0,0,3.836,6.649,22.022,22.022,0,0,0,15.846,6.55.859.859,0,0,0,0-1.717Z" transform="translate(-12.049 -54.741)" fill="#003cb3"/>
  <path id="Path_2446" data-name="Path 2446" d="M133.054,135.027c.032-4.265.067-8.532-.112-12.795a66.114,66.114,0,0,0-1.3-11.8,18.829,18.829,0,0,0-3.39-7.536,16.859,16.859,0,0,0-6.375-4.81c-1.917-.872-3.94-1.514-5.922-2.219-1.043-.371-1.491,1.287-.456,1.655,3.93,1.4,8.032,2.64,10.916,5.844a15.9,15.9,0,0,1,3.383,6.737,55.364,55.364,0,0,1,1.378,11.008c.238,4.635.2,9.275.164,13.912a.859.859,0,0,0,1.717,0Z" transform="translate(-65.6 -54.698)" fill="#003cb3"/>
  <path id="Path_2447" data-name="Path 2447" d="M130.915,134.5c-.267,6.056-.362,12.118-.614,18.174-.046,1.1,1.671,1.1,1.717,0,.251-6.056.347-12.118.614-18.174C132.68,133.4,130.964,133.4,130.915,134.5Z" transform="translate(-74.385 -76.309)" fill="#003cb3"/>
  <path id="Path_2448" data-name="Path 2448" d="M53.589,24.95a15.282,15.282,0,0,1-1.217-5.543A18.189,18.189,0,0,1,52.82,13.7a13.5,13.5,0,0,1,2.443-5.319A18.027,18.027,0,0,1,60.58,3.7a16.463,16.463,0,0,1,10.5-1.792A15.071,15.071,0,0,1,81.6,7.979a14.519,14.519,0,0,1,2.673,6.88,24.637,24.637,0,0,1-.192,7.92c-.2,1.08,1.451,1.542,1.655.456.9-4.8.725-10.416-1.748-14.753A16.8,16.8,0,0,0,73.136.536a19.094,19.094,0,0,0-12.025.969A17.793,17.793,0,0,0,51.6,11.664a20.671,20.671,0,0,0-.8,3.678,17.258,17.258,0,0,0-.184,3.621,18.175,18.175,0,0,0,1.49,6.853C52.612,26.8,54.093,25.932,53.589,24.95Z" transform="translate(-28.881 0)" fill="#003cb3"/>
  <path id="Path_2449" data-name="Path 2449" d="M125.215,41.609a8.68,8.68,0,0,0-1.459-4.276,6.8,6.8,0,0,0-2.707-2.618.886.886,0,0,0-1.174.308.865.865,0,0,0,.308,1.175,3.276,3.276,0,0,1,.571.321c.048.033.094.067.141.1-.1-.074-.032-.024.025.024.107.092.212.185.314.283a6.48,6.48,0,0,1,1.041,1.269,8.484,8.484,0,0,1,.83,1.613,7.435,7.435,0,0,1,.272.913,3.927,3.927,0,0,1,.121.884.877.877,0,0,0,.858.858.866.866,0,0,0,.858-.858Z" transform="translate(-68.367 -19.757)" fill="#003cb3"/>
  <path id="Path_2450" data-name="Path 2450" d="M87.72,32.917a47.758,47.758,0,0,0-5.07,1.955c-.744.319-1.485.647-2.231.957a1.416,1.416,0,0,0-.221.091c.008-.023.564.332.237.209.06.023-.07.268.036-.071a1.636,1.636,0,0,0,.043-.369,2.5,2.5,0,0,0-.257-1.348c-1.014-1.717-3.352.15-4.405.927a26.947,26.947,0,0,0-3.77,3.413,16.588,16.588,0,0,0-2.435,3.1c-.533.969.949,1.835,1.482.866a13.29,13.29,0,0,1,1.841-2.393,26.563,26.563,0,0,1,3.49-3.309,14.582,14.582,0,0,1,1.951-1.287c.166-.09.333-.176.5-.257.033-.015.172-.056.188-.086.092-.157-.3-.076-.3-.081-.017.017-.075.846-.073,1a1.478,1.478,0,0,0,1.923,1.344,22.8,22.8,0,0,0,2.123-.9,49.917,49.917,0,0,1,5.4-2.1.859.859,0,0,0-.457-1.655Z" transform="translate(-39.695 -18.767)" fill="#003cb3"/>
  <path id="Path_2451" data-name="Path 2451" d="M151,173.474a27.546,27.546,0,0,1-.1,5.744,12.246,12.246,0,0,1-.356,1.888,3.567,3.567,0,0,1-.987,1.465c-.793.772.421,1.985,1.214,1.214a5.472,5.472,0,0,0,1.318-1.91,9.069,9.069,0,0,0,.447-2.06,23.34,23.34,0,0,0,.294-3.068c.015-1.093-.049-2.185-.115-3.275s-1.783-1.105-1.717,0Z" transform="translate(-85.231 -98.558)" fill="#003cb3"/>
  <path id="Path_2452" data-name="Path 2452" d="M87.731,216.771a2.666,2.666,0,0,1,1.253,1.07c.21.332.262.936-.21,1.105-.488.175-1.04-.441-1.386-.694a3.4,3.4,0,0,0-1.753-.639,33.274,33.274,0,0,1-3.78-.246c-1.086-.242-2.337-.536-2.88-1.61-.5-.987-1.98-.118-1.482.866.777,1.535,2.484,2.091,4.054,2.431a11.9,11.9,0,0,0,2.6.227,3.793,3.793,0,0,1,2.253.362,3.754,3.754,0,0,0,2.292,1.039,2.213,2.213,0,0,0,2.008-1.533c.687-1.787-.947-3.441-2.51-4.034a.865.865,0,0,0-1.056.6.877.877,0,0,0,.6,1.056Z" transform="translate(-44.181 -122.785)" fill="#003cb3"/>
  <path id="Path_2453" data-name="Path 2453" d="M94.439,196.174c.092-2.462-1.937-4.657-3.9-5.876a9.48,9.48,0,0,0-5.579-1.378c-1.682.089-3.365.253-5.034.472a7.533,7.533,0,0,0-5.407,2.714,9.763,9.763,0,0,0-1.408,3.462,10.184,10.184,0,0,0-.3,4.58c.224,1.081,1.879.624,1.655-.456a7.764,7.764,0,0,1,.229-3.37,10.717,10.717,0,0,1,.95-2.8,5.437,5.437,0,0,1,4.287-2.419c1.408-.191,2.885-.329,4.325-.429a9,9,0,0,1,4.184.469c1.916.769,4.363,2.746,4.277,5.025-.043,1.1,1.674,1.1,1.717,0Z" transform="translate(-41.482 -107.837)" fill="#003cb3"/>
  <path id="Path_2454" data-name="Path 2454" d="M103.487,200.795a10.237,10.237,0,0,1,1.729.432c.115.04.228.083.341.129.058.024.162.07.048.019l.174.079q.328.153.64.336c.18.106.356.22.525.343.007.006.164.129.062.045s.034.029.054.046c.074.061.146.125.215.191a5.574,5.574,0,0,1,.9,1.073.858.858,0,1,0,1.482-.866,7.419,7.419,0,0,0-2.31-2.277,9.608,9.608,0,0,0-3.4-1.2.88.88,0,0,0-1.056.6.869.869,0,0,0,.6,1.056Z" transform="translate(-58.718 -113.668)" fill="#003cb3"/>
  <path id="Path_2455" data-name="Path 2455" d="M103.383,209.25l.1.009c.15.011-.043-.017-.079-.012a.711.711,0,0,1,.218.043,3.938,3.938,0,0,1,.472.139l.114.043c.141.051-.143-.064-.046-.021.076.034.152.068.227.106q.241.119.468.262c.073.046.145.093.215.142l.105.075c.11.081.012.027-.03-.025a4.727,4.727,0,0,0,.386.336c.126.122.239.254.354.386.067.077-.129-.179-.03-.039.023.033.047.065.069.1.049.072.094.145.138.221a.858.858,0,0,0,1.482-.866,5.379,5.379,0,0,0-1.823-1.812,5.127,5.127,0,0,0-2.346-.8.863.863,0,0,0-.858.858.879.879,0,0,0,.858.858Z" transform="translate(-58.528 -118.475)" fill="#003cb3"/>
  <path id="Path_2456" data-name="Path 2456" d="M93.059,57.576c.2-.735,0-2.4-1.386-2.5-1.821.073-1.849,2.1-1.2,3.029A1.442,1.442,0,0,0,93.059,57.576Z" transform="translate(-51.428 -31.442)" fill="#003cb3"/>
  <path id="Path_2457" data-name="Path 2457" d="M118.613,57.5c.182-.737,0-2.411-1.27-2.507-1.667.073-1.692,2.105-1.1,3.039C116.725,58.8,118.087,59.074,118.613,57.5Z" transform="translate(-66.159 -31.395)" fill="#003cb3"/>
  <path id="Path_2458" data-name="Path 2458" d="M105.8,64.918a12.436,12.436,0,0,1,.711,1.32l-.086-.205a.812.812,0,0,1,.057.192l-.03-.228a.545.545,0,0,1,0,.079l.03-.228a.329.329,0,0,1-.019.073l.086-.2a.228.228,0,0,1-.026.043l.134-.174a.886.886,0,0,1-.125.116l.174-.134a.831.831,0,0,1-.15.086l.205-.086a.816.816,0,0,1-.179.048l.228-.031c-.141.018-.28.03-.421.051a.859.859,0,0,0-.205,1.569l.205.086a.858.858,0,0,0,.456,0l.018,0-.228.031a3.836,3.836,0,0,0,.49-.065,1.634,1.634,0,0,0,.674-.386,1.116,1.116,0,0,0,.369-.849,1.766,1.766,0,0,0-.225-.755c-.2-.416-.426-.82-.662-1.217a.889.889,0,0,0-.515-.394.858.858,0,0,0-.969,1.261Z" transform="translate(-60.327 -36.319)" fill="#003cb3"/>
  <path id="Path_2459" data-name="Path 2459" d="M58.891,52.252a3.314,3.314,0,0,0-3.752.161,3.488,3.488,0,0,0-1.173,2.82,7.132,7.132,0,0,0,3.286,6.1,4.525,4.525,0,0,0,3.984.252.865.865,0,0,0,.308-1.174.878.878,0,0,0-1.174-.308,2.346,2.346,0,0,1-1.459.028,2.618,2.618,0,0,1-1.209-.558A5.42,5.42,0,0,1,56,57.124a4.324,4.324,0,0,1-.112-2.98,1.791,1.791,0,0,1,.132-.218c-.105.151.038-.039.059-.059a1.173,1.173,0,0,1,.456-.29,1.6,1.6,0,0,1,1.5.157.858.858,0,0,0,.866-1.482Z" transform="translate(-30.808 -29.541)" fill="#003cb3"/>
  <path id="Path_2460" data-name="Path 2460" d="M75.037,79.652A16.582,16.582,0,0,1,71,76.782a15.182,15.182,0,0,1-2.931-4.044.866.866,0,0,0-1.174-.308.876.876,0,0,0-.308,1.174,14.566,14.566,0,0,0,1.238,2.017,17.761,17.761,0,0,0,1.961,2.374,18.5,18.5,0,0,0,4.388,3.138c.978.511,1.845-.97.866-1.482Z" transform="translate(-37.947 -41.283)" fill="#003cb3"/>
  <path id="Path_2461" data-name="Path 2461" d="M102.919,51.419c-.308,2.345-.472,4.708-.784,7.052a14.891,14.891,0,0,1-1.631,5.345,10.522,10.522,0,0,1-9.269,5.055,16.284,16.284,0,0,1-6.523-1.638.884.884,0,0,0-1.174.308.865.865,0,0,0,.308,1.174c4.03,1.849,8.576,2.657,12.747.761A12.036,12.036,0,0,0,101.4,65.6a14.175,14.175,0,0,0,2.223-5.655c.522-2.809.638-5.7,1.01-8.527a.863.863,0,0,0-.858-.858.881.881,0,0,0-.858.858Z" transform="translate(-47.624 -28.864)" fill="#003cb3"/>
  <path id="Path_2462" data-name="Path 2462" d="M86.673,50.554l-.9.826a.644.644,0,0,0-.178.276.778.778,0,0,0,0,.662.644.644,0,0,0,.178.276.863.863,0,0,0,.607.251l.228-.03a.855.855,0,0,0,.378-.221l.9-.825a.83.83,0,0,0,.178-.938.648.648,0,0,0-.178-.276.862.862,0,0,0-.607-.251l-.228.03A.858.858,0,0,0,86.673,50.554Z" transform="translate(-48.824 -28.716)" fill="#003cb3"/>
  <path id="Path_2463" data-name="Path 2463" d="M101.882,77.524a5.153,5.153,0,0,0-2.243-.535,5.657,5.657,0,0,0-2.177.416.858.858,0,0,0,.456,1.655,7.13,7.13,0,0,1,.926-.3c.067-.015.133-.026.2-.038.118-.02-.037.01-.071.009a1.3,1.3,0,0,0,.134-.013,4.715,4.715,0,0,1,.472-.014c.152,0,.3.013.455.029l.055.006c-.134-.015,0,0,.026.006.073.012.146.026.219.043a4.184,4.184,0,0,1,.439.118l.1.034c.032.012.172.069.035.011s.073.039.109.057a.858.858,0,0,0,.866-1.482Z" transform="translate(-55.278 -43.95)" fill="#003cb3"/>
  <path id="Path_2464" data-name="Path 2464" d="M105.71,106.631a21.171,21.171,0,0,1-.675,2.544,2.344,2.344,0,0,0-.189,1.36c.123.558.245,1.116.351,1.679.324,1.712.672,3.424.881,5.155a.885.885,0,0,0,.858.858.863.863,0,0,0,.858-.858,63.779,63.779,0,0,0-1.343-7.489v.456a22.289,22.289,0,0,0,.913-3.249C107.57,106.008,105.916,105.545,105.71,106.631Z" transform="translate(-59.837 -60.519)" fill="#003cb3"/>
  <path id="Path_2465" data-name="Path 2465" d="M94.085,107.853a22.1,22.1,0,0,1,.875,2.331,2.862,2.862,0,0,1,.244,1.055c-.052.7-.139,1.4-.217,2.1-.186,1.658-.327,3.269-.626,4.853-.2,1.079,1.45,1.542,1.655.456.338-1.785.5-3.617.7-5.422.077-.69.2-1.395.212-2.089a5.4,5.4,0,0,0-.4-1.692c-.272-.836-.6-1.649-.957-2.454a.864.864,0,0,0-1.174-.308.88.88,0,0,0-.308,1.174Z" transform="translate(-53.648 -60.833)" fill="#003cb3"/>
  <path id="Path_2466" data-name="Path 2466" d="M101.448,113.988c-.863.012-1.728.021-2.59.051a.858.858,0,0,0,0,1.717c.863-.03,1.727-.04,2.59-.051a.858.858,0,0,0,0-1.717Z" transform="translate(-55.945 -65.072)" fill="#003cb3"/>
  <path id="Path_2467" data-name="Path 2467" d="M100.842,103.9a35.524,35.524,0,0,0-3-2.6.883.883,0,0,0-1.04-.134c-1.376,1-2.795,1.946-4.12,3.018a.863.863,0,0,0,0,1.214.878.878,0,0,0,1.214,0c1.211-.979,2.515-1.833,3.773-2.749l-1.04-.134a35.665,35.665,0,0,1,3,2.6c.79.772,2.005-.439,1.214-1.214Z" transform="translate(-52.768 -57.689)" fill="#003cb3"/>
  <path id="Path_2468" data-name="Path 2468" d="M63.682,104.458a10.389,10.389,0,0,0-1.1,2.433,1.157,1.157,0,0,0,.53,1.557c1.19.634,2.493,1.084,3.733,1.605l-.379-1.435c-.636.761-1.279,1.519-1.894,2.3a2.607,2.607,0,0,0-.838,2.36A6.423,6.423,0,0,0,64.866,115q.663.924,1.316,1.856c2.128,3.026,4.244,6.059,6.475,9.012a.886.886,0,0,0,1.175.308A.864.864,0,0,0,74.139,125c-2.06-2.726-4.027-5.521-5.989-8.319-.772-1.1-1.549-2.209-2.345-3.3-.112-.153-.419-.437-.425-.637-.009-.274.446-.669.6-.855.558-.7,1.133-1.377,1.705-2.06A.874.874,0,0,0,67.3,108.4c-.666-.28-1.335-.551-2-.835-.333-.142-.666-.285-.994-.437-.121-.056-.239-.118-.36-.175-.172-.08-.094-.067-.029,0l.221.379c.154.419-.043.4.043.207.033-.076.047-.167.072-.247.067-.215.145-.426.23-.633a8.715,8.715,0,0,1,.681-1.336c.586-.94-.9-1.8-1.482-.866Z" transform="translate(-35.67 -59.402)" fill="#003cb3"/>
  <path id="Path_2469" data-name="Path 2469" d="M74.484,97.751a82.746,82.746,0,0,1,4.406,7.4c1.855,3.333,3.654,6.7,5.312,10.137a43.539,43.539,0,0,1,1.858,4.233.867.867,0,0,0,1.655,0c.693-1.762,1.429-3.519,2.006-5.324.448-1.4.811-2.83,1.154-4.26.752-3.133,1.419-6.3,1.864-9.5.157-1.124.245-2.254.366-3.382a.863.863,0,0,0-.858-.858.878.878,0,0,0-.858.858c-.255,2.363-.529,4.555-.982,6.915a91.252,91.252,0,0,1-2.2,9.323c-.6,1.962-1.4,3.862-2.146,5.77h1.655a72.343,72.343,0,0,0-4.112-8.78c-1.741-3.35-3.554-6.666-5.468-9.92-.691-1.176-1.384-2.36-2.169-3.479-.63-.9-2.119-.04-1.482.866Z" transform="translate(-42.431 -54.916)" fill="#003cb3"/>
  <path id="Path_2470" data-name="Path 2470" d="M119.125,106.346a7.856,7.856,0,0,1,.894,1.191,6.1,6.1,0,0,0,.37.658l.082.164.151-.554c-.006,0-.026.018-.032.016-.107-.023-.457.232-.554.281-.225.114-.457.219-.677.343a1.351,1.351,0,0,0-.538,1.893,5.189,5.189,0,0,0,1,1.028c.185.176.37.352.553.531.11.108.451.343.475.5v-.456a10.413,10.413,0,0,1-.9,1.918q-.592,1.212-1.194,2.42c-.263.53-.517,1.057-.762,1.595l-2.116,4.65-.621,1.363a.884.884,0,0,0,.308,1.174.865.865,0,0,0,1.174-.308c1.582-3.476,3.182-6.929,4.855-10.361.37-.759,1.26-1.955.8-2.805a5.639,5.639,0,0,0-1.15-1.234c-.185-.176-.37-.351-.558-.526a2,2,0,0,0-.273-.257c-.321-.187.07-.019-.073.176l-.308.308c.538-.4,1.3-.524,1.792-1,.582-.562.291-1.281-.036-1.892a10.139,10.139,0,0,0-1.447-2.032c-.746-.818-1.958.4-1.214,1.214Z" transform="translate(-65.73 -59.862)" fill="#003cb3"/>
</svg>
