<svg id="_3302_line" data-name="3302_line" xmlns="http://www.w3.org/2000/svg" width="101.186" height="157.396" viewBox="0 0 101.186 157.396">
  <path id="Path_2471" data-name="Path 2471" d="M95.694,153.6q-.063.956-.191,1.906l.037-.274c-.071.527-.156,1.051-.247,1.574a1.116,1.116,0,0,0,.1.793,1.03,1.03,0,0,0,1.883-.246,35.176,35.176,0,0,0,.474-3.754,1.035,1.035,0,0,0-1.03-1.03,1.054,1.054,0,0,0-1.03,1.03Z" transform="translate(-54.387 -87.088)" fill="#003cb3"/>
  <path id="Path_2472" data-name="Path 2472" d="M143.567,153.857c.1,1.309.285,2.605.5,3.9a1.03,1.03,0,1,0,1.985-.548c-.092-.552-.186-1.1-.26-1.656l.037.274q-.129-.982-.2-1.97a1.03,1.03,0,1,0-2.06,0Z" transform="translate(-81.962 -87.234)" fill="#003cb3"/>
  <path id="Path_2473" data-name="Path 2473" d="M187.569,327.462c.533,4.354,1.092,8.711,1.726,13.05a1.036,1.036,0,0,0,1.267.72,1.057,1.057,0,0,0,.719-1.267c-.608-4.159-1.141-8.331-1.653-12.5a1.063,1.063,0,0,0-1.03-1.03,1.036,1.036,0,0,0-1.03,1.03Z" transform="translate(-107.082 -186.339)" fill="#003cb3"/>
  <path id="Path_2474" data-name="Path 2474" d="M194.036,194.527l-1.272,8.634c-.842,5.722-1.551,11.465-2.388,17.188q-.925,6.33-1.873,12.656a1.063,1.063,0,0,0,.719,1.267,1.037,1.037,0,0,0,1.267-.719c1.073-7.191,2.149-14.381,3.151-21.581q.337-2.414.658-4.83.151-1.129.3-2.258.03-.237.061-.475c.013-.1.027-.209.04-.315,0-.012.034-.27.012-.1-.018.132,0-.013.006-.043.221-1.48.436-2.961.654-4.441l.653-4.437a1.063,1.063,0,0,0-.719-1.267,1.038,1.038,0,0,0-1.267.719Z" transform="translate(-107.598 -110.608)" fill="#003cb3"/>
  <path id="Path_2475" data-name="Path 2475" d="M31,188.595a15.492,15.492,0,0,1,3.1-4.493c.109-.108.221-.215.336-.315.051-.043.1-.089.155-.132.135-.111-.15.111.023-.017.325-.239.661-.464,1-.683.68-.439,1.381-.847,2.092-1.235a85,85,0,0,1,10.355-4.573c1.952-.747,3.915-1.462,5.879-2.18a1.057,1.057,0,0,0,.719-1.267,1.038,1.038,0,0,0-1.267-.719c-3.724,1.36-7.446,2.725-11.094,4.281-1.768.755-3.519,1.555-5.22,2.458a20.789,20.789,0,0,0-4.138,2.647,16.211,16.211,0,0,0-3.721,5.192,1.06,1.06,0,0,0,.369,1.409A1.038,1.038,0,0,0,31,188.6Z" transform="translate(-16.614 -98.719)" fill="#003cb3"/>
  <path id="Path_2476" data-name="Path 2476" d="M48.261,330.042c-.6,3.751-1.141,7.515-1.8,11.254a1.059,1.059,0,0,0,.719,1.267,1.039,1.039,0,0,0,1.267-.719c.663-3.74,1.208-7.5,1.8-11.254a1.062,1.062,0,0,0-.719-1.267,1.037,1.037,0,0,0-1.267.719Z" transform="translate(-26.509 -187.969)" fill="#003cb3"/>
  <path id="Path_2477" data-name="Path 2477" d="M41.229,192.713c.511,2.174.917,4.375,1.33,6.569a1.036,1.036,0,0,0,1.267.719,1.057,1.057,0,0,0,.719-1.267c-.414-2.194-.82-4.4-1.33-6.569a1.038,1.038,0,0,0-1.267-.719,1.051,1.051,0,0,0-.719,1.267Z" transform="translate(-23.522 -109.26)" fill="#003cb3"/>
  <path id="Path_2478" data-name="Path 2478" d="M85.944,175.115a12.487,12.487,0,0,0,1.476,2.618c.861,1.292,1.774,2.549,2.7,3.8a1.055,1.055,0,0,0,1.409.369,1.04,1.04,0,0,0,.369-1.409c-.9-1.223-1.8-2.455-2.644-3.719-.308-.46-.61-.924-.892-1.4-.111-.188-.22-.379-.32-.573-.039-.076-.073-.152-.111-.228-.086-.167.1.265,0,0a1.03,1.03,0,0,0-1.986.548Z" transform="translate(-49.046 -99.212)" fill="#003cb3"/>
  <path id="Path_2479" data-name="Path 2479" d="M154.775,172.481c3.64,1.511,7.214,3.176,10.726,4.965,1.7.865,3.383,1.755,5.062,2.658.836.45,1.662.922,2.51,1.348a14.911,14.911,0,0,1,2.5,1.367,1.065,1.065,0,0,0,1.456,0,1.036,1.036,0,0,0,0-1.456,14.5,14.5,0,0,0-2.585-1.526c-.907-.444-1.786-.944-2.675-1.422-1.733-.934-3.473-1.855-5.227-2.746q-5.508-2.8-11.218-5.173a1.036,1.036,0,0,0-1.267.719,1.057,1.057,0,0,0,.719,1.267Z" transform="translate(-87.932 -97.3)" fill="#003cb3"/>
  <path id="Path_2480" data-name="Path 2480" d="M92.671,171.8a38.022,38.022,0,0,1-5.78-7.1v1.04a16.531,16.531,0,0,1,3.322-4.5H88.756a35.425,35.425,0,0,0,5.124,4.244q1.3.894,2.686,1.669.709.4,1.437.76.317.157.637.307l.38.176a1,1,0,0,1,.124.064c.1.057.082.043-.051-.038l-.141-.52c.014.105.278-.232.048,0-.137.14-.272.282-.411.421-.46.458-.929.907-1.4,1.356-.959.919.5,2.374,1.457,1.456.529-.507,1.061-1.012,1.574-1.535a2.482,2.482,0,0,0,.76-1.212,1.651,1.651,0,0,0-1.144-1.876c-.7-.328-1.395-.676-2.073-1.051a33.466,33.466,0,0,1-7.553-5.68,1.049,1.049,0,0,0-1.456,0,17.159,17.159,0,0,0-2.75,3.358,5.778,5.778,0,0,0-1.017,1.939c-.1.71.679,1.549,1.06,2.11a40.4,40.4,0,0,0,5.162,6.063c.944.932,2.4-.524,1.456-1.456Z" transform="translate(-48.518 -91.038)" fill="#003cb3"/>
  <path id="Path_2481" data-name="Path 2481" d="M142.525,358.272h21.463a1.031,1.031,0,0,0,0-2.06H142.525A1.031,1.031,0,0,0,142.525,358.272Z" transform="translate(-80.8 -203.34)" fill="#003cb3"/>
  <path id="Path_2482" data-name="Path 2482" d="M110.076,358.272h9.346a1.031,1.031,0,0,0,0-2.06h-9.346A1.031,1.031,0,0,0,110.076,358.272Z" transform="translate(-62.276 -203.34)" fill="#003cb3"/>
  <path id="Path_2483" data-name="Path 2483" d="M47.565,358.272H65.937a1.031,1.031,0,0,0,0-2.06H47.565A1.031,1.031,0,0,0,47.565,358.272Z" transform="translate(-26.59 -203.34)" fill="#003cb3"/>
  <path id="Path_2484" data-name="Path 2484" d="M123.938,168.158a2.179,2.179,0,0,1-.3-.314c.089.151.086.114.056-.067v.548c-.017.129-.357.2-.077.108a3.555,3.555,0,0,0,.367-.172q.326-.151.647-.31.7-.343,1.379-.723,1.445-.8,2.81-1.738a34.951,34.951,0,0,0,5.125-4.244h-1.456a16.4,16.4,0,0,1,3.319,4.5v-1.04c-.646,1.077-1.33,2.134-2.025,3.18-.735,1.108,1.048,2.141,1.779,1.04q.745-1.123,1.459-2.265a4.866,4.866,0,0,0,.671-1.159c.148-.539-.232-1.051-.484-1.5a17.528,17.528,0,0,0-3.261-4.213,1.048,1.048,0,0,0-1.456,0,32.905,32.905,0,0,1-6.3,4.954,34.924,34.924,0,0,1-3.4,1.813,1.68,1.68,0,0,0-1.112,1.494,2.283,2.283,0,0,0,.806,1.564c.919.959,2.374-.5,1.456-1.459Z" transform="translate(-69.466 -91.042)" fill="#003cb3"/>
  <path id="Path_2485" data-name="Path 2485" d="M53.777,269.407c.089,1.787.191,3.573.279,5.361a1.03,1.03,0,1,0,2.06,0c-.089-1.787-.19-3.574-.279-5.361a1.03,1.03,0,0,0-2.06,0Z" transform="translate(-30.704 -153.198)" fill="#003cb3"/>
  <path id="Path_2486" data-name="Path 2486" d="M43.872,247.361c-4.166-6.03-8.476-11.958-12.71-17.941q-1.579-2.232-3.133-4.479l-.369,1.409c2.1-1.45,4.093-3.043,6.18-4.509a1.057,1.057,0,0,0,.369-1.409,1.038,1.038,0,0,0-1.409-.369c-2.087,1.465-4.082,3.058-6.18,4.509a1.045,1.045,0,0,0-.369,1.409c3.984,5.783,8.128,11.453,12.181,17.186q1.845,2.608,3.662,5.233a1.057,1.057,0,0,0,1.409.37,1.039,1.039,0,0,0,.369-1.409Z" transform="translate(-14.913 -125.538)" fill="#003cb3"/>
  <path id="Path_2487" data-name="Path 2487" d="M50.471,219.989q-4.61-12.775-9.212-25.553-1.147-3.186-2.292-6.373l-.719,1.267q9.59-3.444,19.182-6.883l20.1-7.209,7.872-2.825-.794-.1h0l-.472-.615q3.56,9.859,7.081,19.731,3.337,9.34,6.656,18.687,1.8,5.073,3.609,10.146a1.057,1.057,0,0,0,1.267.719,1.039,1.039,0,0,0,.719-1.267Q99.43,208.353,95.392,197q-4.323-12.13-8.686-24.246c-.324-.9-.593-2.68-1.92-2.3-.395.113-.782.281-1.169.42l-2.843,1.02-7.148,2.565-17.615,6.319-16.64,5.971-1.674.6a1.043,1.043,0,0,0-.719,1.267q4.387,12.216,8.8,24.424l2.707,7.5a1.057,1.057,0,0,0,1.267.72,1.039,1.039,0,0,0,.719-1.267Z" transform="translate(-21.095 -97.264)" fill="#003cb3"/>
  <path id="Path_2488" data-name="Path 2488" d="M101,344.02q-6.6,2.4-13.205,4.793l.794.1h0l.472.615q-1.787-4.978-3.58-9.952a1.057,1.057,0,0,0-1.267-.72,1.039,1.039,0,0,0-.719,1.267l1.92,5.334.927,2.579.418,1.162c.162.45.287,1.116.684,1.413.6.444,1.319.035,1.931-.186l1.849-.668q2.189-.792,4.377-1.588l5.946-2.165a1.058,1.058,0,0,0,.719-1.267,1.039,1.039,0,0,0-1.267-.719Z" transform="translate(-47.646 -193.416)" fill="#003cb3"/>
  <path id="Path_2489" data-name="Path 2489" d="M178.414,328.1l-5.558,2.023a1.03,1.03,0,0,0,.548,1.986q2.779-1.013,5.559-2.023a1.03,1.03,0,0,0-.548-1.986Z" transform="translate(-98.251 -187.27)" fill="#003cb3"/>
  <path id="Path_2490" data-name="Path 2490" d="M153.435,235.021c-4.706-13.058-10.365-28.709-14.434-40.038" transform="translate(-79.356 -111.299)" fill="#003cb3"/>
  <path id="Path_2491" data-name="Path 2491" d="M153.058,233.383q-5.776-16.027-11.56-32.05-1.439-3.994-2.875-7.989a1.057,1.057,0,0,0-1.267-.72,1.039,1.039,0,0,0-.719,1.267q5.6,15.589,11.233,31.164,1.6,4.437,3.2,8.875a1.056,1.056,0,0,0,1.267.719,1.039,1.039,0,0,0,.719-1.267Z" transform="translate(-77.986 -109.935)" fill="#003cb3"/>
  <path id="Path_2492" data-name="Path 2492" d="M96.252,287.9a6.236,6.236,0,0,1-2.452-.705,9.877,9.877,0,0,1-1.655-1.873A10.493,10.493,0,0,0,88.112,282a14.951,14.951,0,0,0-5.436-.883,12.608,12.608,0,0,0-3.7.228,4.269,4.269,0,0,0-1.942,1,3.14,3.14,0,0,0-.815,2.371,1.031,1.031,0,0,0,2.06,0,2.866,2.866,0,0,1,.086-.757,1.038,1.038,0,0,1,.2-.225,3.2,3.2,0,0,1,1.377-.495,8.173,8.173,0,0,1,1.4-.113c.593,0,1.187.043,1.779.068a10.308,10.308,0,0,1,4.566.881,10.253,10.253,0,0,1,3.2,2.984,8.6,8.6,0,0,0,2.013,2.02,8.567,8.567,0,0,0,2.8.81,1.031,1.031,0,0,0,.548-1.986Z" transform="translate(-43.51 -160.442)" fill="#003cb3"/>
  <path id="Path_2493" data-name="Path 2493" d="M171.753,254.712c6.1-.893,12.252-1.934,18.05-4.1,2.434-.908,5.226-2.011,6.832-4.16,1.725-2.308,1.931-5.536,1.845-8.31-.16-5.081-1.407-10.152-2.45-15.11q-1.545-7.35-3.243-14.666c-.358-1.534-.711-3.071-1.126-4.592-.766-2.8-2.138-5.849-4.52-7.639a11.8,11.8,0,0,0-1.3-.854,1.031,1.031,0,0,0-1.04,1.778,6.923,6.923,0,0,1,2.4,2.009,14.113,14.113,0,0,1,2.118,4.085c.512,1.491.844,3.052,1.208,4.584,1.093,4.6,2.109,9.22,3.1,13.844.957,4.485,2.051,9.012,2.575,13.574.327,2.849.551,6.02-.5,8.754-.858,2.232-2.982,3.278-5.127,4.193-5.209,2.225-10.935,3.3-16.5,4.183q-1.43.227-2.864.435a1.037,1.037,0,0,0-.72,1.267,1.057,1.057,0,0,0,1.267.719Z" transform="translate(-97.31 -111.391)" fill="#003cb3"/>
  <path id="Path_2494" data-name="Path 2494" d="M152.864,282.56c-3.679.839-7.467,1.3-11.192,1.876q-7.522,1.151-15.054,2.234l-5.156.749a1.026,1.026,0,0,0-.756.993c.141,1.545.37,3.081.576,4.616a1.064,1.064,0,0,0,1.03,1.03c.5,0,1.1-.475,1.03-1.03-.206-1.535-.435-3.073-.576-4.616l-.756.993c3.794-.558,7.59-1.1,11.383-1.66,5-.738,10.009-1.478,15-2.295,1.674-.274,3.364-.526,5.021-.9,1.292-.295.745-2.281-.548-1.986Z" transform="translate(-68.911 -161.277)" fill="#003cb3"/>
  <path id="Path_2495" data-name="Path 2495" d="M122.244,303.8a11.938,11.938,0,0,0,5.542-.565c1-.429,1.893-1.069,2.9-1.48a7.885,7.885,0,0,1,3.238-.624,10.171,10.171,0,0,1,3.085.753c.53.193,1.055.4,1.584.6.36.134.61.223.839.327a7.033,7.033,0,0,1,1.839,1.123,2.055,2.055,0,0,1,.5.6c.023.051.063.2.058.172.007.037-.008.263.009.108a2.159,2.159,0,0,1-.1.376,1.347,1.347,0,0,1-1.2,1.048,1.223,1.223,0,0,1-.369.043c-.182.01-.364.011-.547.008-.371-.007-.741-.036-1.111-.059-1.323-.083-1.319,1.977,0,2.06,1.58.1,3.364.165,4.481-1.173a3.519,3.519,0,0,0,.815-2.948,4.113,4.113,0,0,0-1.69-2.18,10.283,10.283,0,0,0-2.3-1.232c-1.042-.421-2.106-.828-3.176-1.169a9.881,9.881,0,0,0-7.53.629c-.687.335-1.324.764-2.017,1.084a5.536,5.536,0,0,1-.839.309,4.731,4.731,0,0,1-.462.1c.192-.033-.139.015-.164.017a21.142,21.142,0,0,1-3.394.011,1.03,1.03,0,1,0,0,2.06Z" transform="translate(-69.203 -170.744)" fill="#003cb3"/>
  <path id="Path_2496" data-name="Path 2496" d="M129.756,313.284c2.137,1.625,4.269,3.259,6.369,4.932.346.276.707.545,1.03.85a3.791,3.791,0,0,1,.805,1.153,4.037,4.037,0,0,1,.322,1.468c0,.134,0,.269-.005.4,0,.048-.053.414-.018.215-.022.124-.048.248-.081.37-.022.082-.12.361-.1.308.031-.073-.11.2-.146.266s-.062.1-.094.141c.082-.115.049-.05-.024.017s-.32.254-.131.132a1.452,1.452,0,0,1-.139.086c-.027.013-.235.1-.1.053a2.727,2.727,0,0,0-.288.062c.226-.033-.172-.013-.235-.016-.167-.009.145.03-.029,0-.089-.016-.178-.036-.265-.059a3.268,3.268,0,0,1-.44-.152,1.04,1.04,0,0,0-1.409,1.409c-.06-.139,0-.224-.047-.082a1.3,1.3,0,0,0-.007.215c.015-.146-.022.1-.03.134-.026.1-.052.2-.086.305a2.583,2.583,0,0,1-.475.875c-.006.007-.268.215-.118.117-.074.049-.137.025-.011.012-.277.029-.563.114-.841.153a4.231,4.231,0,0,0-1.624.492,6.186,6.186,0,0,0-1.852,2.425c-.025.041-.176.208-.058.086.144-.15-.01.013-.076.04a1.736,1.736,0,0,1-.583.134,4.958,4.958,0,0,1-1.155-.154,1.462,1.462,0,0,0-1.181.2c-.351.23-.672.506-1.014.749a6.705,6.705,0,0,1-1.126.691.956.956,0,0,1-.789.109A16.388,16.388,0,0,1,119.1,328.2a9.326,9.326,0,0,1-1.931-2.568c-.614-1.205-1-2.512-1.61-3.722-.593-1.185-2.371-.144-1.779,1.04.606,1.21,1,2.516,1.611,3.722a10.872,10.872,0,0,0,2.041,2.776,17.643,17.643,0,0,0,5.575,3.9,3.429,3.429,0,0,0,3.017-.524,14.523,14.523,0,0,0,1.215-.851,2.138,2.138,0,0,0,.439-.323c.174-.244-.275.122-.446,0a1.338,1.338,0,0,0,.375.077,3.8,3.8,0,0,0,3.483-.62c.631-.634.787-1.9,1.641-2.269.6-.26,1.3-.172,1.912-.386a2.773,2.773,0,0,0,1.338-1.119,3.7,3.7,0,0,0,.58-3.453l-1.409,1.409a3.487,3.487,0,0,0,4.1-.4,4.588,4.588,0,0,0,1.056-3.718,5.774,5.774,0,0,0-1.944-3.785c-1.059-.89-2.166-1.726-3.258-2.575q-2.146-1.664-4.3-3.309a1.036,1.036,0,0,0-1.409.369,1.055,1.055,0,0,0,.369,1.409Z" transform="translate(-64.892 -177.741)" fill="#003cb3"/>
  <path id="Path_2497" data-name="Path 2497" d="M20.948,232.52c8.481,3.007,17.083,5.662,25.662,8.364q3.15.992,6.295,2l-.719-1.267c-1.268,6.028-3.034,11.939-4.469,17.927l1.267-.72a231.7,231.7,0,0,1-23.774-5.905c-3.084-.977-6.165-2-9.2-3.137a41.108,41.108,0,0,1-8.385-4.008,11.264,11.264,0,0,1-2.846-2.535,13.432,13.432,0,0,1-2.243-4.69A17.622,17.622,0,0,1,3.573,227.67c2.149-5.6,4.222-11.233,6.369-16.835q.736-1.921,1.488-3.835.318-.806.644-1.609.143-.354.288-.707c.043-.109.09-.218.136-.326.021-.052.043-.1.065-.156.077-.184-.043.1.006-.015a22.229,22.229,0,0,1,1.9-3.7,16.712,16.712,0,0,1,2.642-3.285q.661-.587,1.347-1.144a1.038,1.038,0,0,0,0-1.457,1.054,1.054,0,0,0-1.456,0c-.488.4-.971.808-1.441,1.229a11.074,11.074,0,0,0-1.416,1.631,23.786,23.786,0,0,0-2.436,3.675c-1.145,2.281-2.031,4.71-2.953,7.087-2.256,5.813-4.411,11.662-6.626,17.489a38.881,38.881,0,0,0-1.545,4.472,18.594,18.594,0,0,0-.507,6.091,14.948,14.948,0,0,0,4.312,9.576,27.656,27.656,0,0,0,8.213,4.78c2.711,1.141,5.5,2.08,8.279,3.028a206.547,206.547,0,0,0,24.3,6.476q1.631.343,3.258.673a1.049,1.049,0,0,0,1.267-.719c1.435-5.988,3.2-11.9,4.469-17.927a1.057,1.057,0,0,0-.719-1.267c-8.3-2.672-16.65-5.209-24.933-7.958q-3.524-1.17-7.027-2.4a1.04,1.04,0,0,0-1.265.72,1.051,1.051,0,0,0,.719,1.267Z" transform="translate(-0.011 -110.914)" fill="#003cb3"/>
  <path id="Path_2498" data-name="Path 2498" d="M60.061,32.347a21.167,21.167,0,0,1-.415-4.131,37.243,37.243,0,0,1,.172-4.97,21.513,21.513,0,0,1,2.94-8.54A26.163,26.163,0,0,1,77.281,3.172a23.714,23.714,0,0,1,4.666-.987,49.15,49.15,0,0,1,4.947-.124,24.014,24.014,0,0,1,9.285,1.9A26.1,26.1,0,0,1,109.6,16.7a27.526,27.526,0,0,1,2.215,8.411,29.342,29.342,0,0,1-.067,9.71,12.369,12.369,0,0,1-.666,2.156,1.036,1.036,0,0,0,.719,1.267,1.056,1.056,0,0,0,1.267-.719c1.317-3.155,1.287-6.858,1.03-10.209a35.859,35.859,0,0,0-1.728-9.266A27.7,27.7,0,0,0,99.182,3.108a27.078,27.078,0,0,0-9.9-2.993A47.618,47.618,0,0,0,84.179,0,25.611,25.611,0,0,0,79.025.58,28.253,28.253,0,0,0,62.3,11.651a24.927,24.927,0,0,0-4.151,9.128,31.584,31.584,0,0,0-.4,10.024,18.1,18.1,0,0,0,.324,2.091c.294,1.292,2.28.745,1.986-.548Z" transform="translate(-32.843 0.024)" fill="#003cb3"/>
  <path id="Path_2499" data-name="Path 2499" d="M147.3,48.992c.479,1.637,1.01,3.261,1.614,4.855a21.823,21.823,0,0,0,1.7,3.728,27.707,27.707,0,0,0,5.266,6.356,9.866,9.866,0,0,0,3.944,2.317,1.031,1.031,0,0,0,.548-1.986c-2.293-.574-4.267-2.826-5.763-4.64a21.532,21.532,0,0,1-3.562-5.931c-.669-1.719-1.244-3.476-1.764-5.245a1.031,1.031,0,0,0-1.986.548Z" transform="translate(-84.068 -27.232)" fill="#003cb3"/>
  <path id="Path_2500" data-name="Path 2500" d="M101.865,46.95a23.77,23.77,0,0,1-8.142,6.359,34.575,34.575,0,0,1-5.011,2.009q-1.346.429-2.719.762c-.113.027-.232.049-.343.082-.168.05-.194-.035-.054.029-.064-.029-.136-.082.076.021a.952.952,0,0,1,.257.151.261.261,0,0,1,.1.145c0-.03-.019-.2-.02-.057,0,.157,0-.1,0-.129a27.617,27.617,0,0,1,.77-4.4,1.039,1.039,0,0,0-1.721-1c-4.315,3.7-9,6.995-13.639,10.273q-1.82,1.287-3.652,2.558a1.057,1.057,0,0,0-.369,1.409,1.039,1.039,0,0,0,1.409.369c4.841-3.359,9.65-6.777,14.3-10.394,1.154-.9,2.3-1.809,3.405-2.76l-1.723-1a33.763,33.763,0,0,0-.843,4.747,2.129,2.129,0,0,0,.676,1.813c.751.573,1.705.189,2.521-.023a35.134,35.134,0,0,0,11.272-4.98,23.008,23.008,0,0,0,4.913-4.528,1.063,1.063,0,0,0,0-1.456,1.037,1.037,0,0,0-1.456,0Z" transform="translate(-38.401 -26.621)" fill="#003cb3"/>
  <path id="Path_2501" data-name="Path 2501" d="M54.1,114.325a13.743,13.743,0,0,0-1.543,7.968c.126,1.5.434,2.982.538,4.486a4.664,4.664,0,0,1-.53,2.994,2.075,2.075,0,0,1-.917.7,1.4,1.4,0,0,0-.781,1.726c.314,1.23,1.8,1.919,2.863,2.372a14.512,14.512,0,0,0,8.072.871,10.824,10.824,0,0,0,7.189-4.091c.751-1.1-1.033-2.128-1.779-1.04-1.475,2.151-4.57,3.1-7.045,3.265a12.77,12.77,0,0,1-4.414-.457,9.585,9.585,0,0,1-1.814-.717,5.933,5.933,0,0,1-.766-.455c-.079-.059-.181-.206-.272-.242-.107-.043.007-.047-.03.086l-.265.454.043-.051-.454.265a4.3,4.3,0,0,0,2.75-3.03,11.9,11.9,0,0,0-.025-4.715c-.436-3.176-.7-6.456.957-9.35a1.031,1.031,0,0,0-1.778-1.04Z" transform="translate(-29.004 -64.967)" fill="#003cb3"/>
  <path id="Path_2502" data-name="Path 2502" d="M175.5,86.843a2.36,2.36,0,0,1,3.39.406,3.948,3.948,0,0,1,.457,2.035,12.285,12.285,0,0,1-.146,2.6c-.518,3.033-2.116,6.731-5.5,7.312a1.039,1.039,0,0,0-.719,1.267,1.054,1.054,0,0,0,1.267.719c3.5-.6,5.579-3.905,6.535-7.063a14.54,14.54,0,0,0,.6-5.119,4.755,4.755,0,0,0-2.189-4.175,4.514,4.514,0,0,0-5.155.565,1.039,1.039,0,0,0,0,1.456,1.051,1.051,0,0,0,1.456,0Z" transform="translate(-98.736 -48.093)" fill="#003cb3"/>
  <path id="Path_2503" data-name="Path 2503" d="M154.316,114.078a11.571,11.571,0,0,1-.546,2.912c-.109.367-.23.73-.352,1.094-.033.1-.064.2-.1.295-.028.076-.156.362-.024.066a23.1,23.1,0,0,1-1.535,2.812,27.389,27.389,0,0,1-6.115,7.052,11.648,11.648,0,0,1-4.533,2.294c-1.292.3-.745,2.283.548,1.986,3.446-.792,6.331-3.278,8.6-5.879a29.674,29.674,0,0,0,4.733-7.05,15.043,15.043,0,0,0,1.382-5.583c.043-1.326-2.017-1.324-2.06,0Z" transform="translate(-80.14 -64.546)" fill="#003cb3"/>
  <path id="Path_2504" data-name="Path 2504" d="M61.511,85.378a4.5,4.5,0,0,0-4.549-.848,4.388,4.388,0,0,0-2.741,3.826,14.111,14.111,0,0,0,2.47,9.755,7.378,7.378,0,0,0,4.609,3.06,1.061,1.061,0,0,0,1.267-.719,1.039,1.039,0,0,0-.72-1.267c-3.378-.58-4.978-4.278-5.493-7.312a12.254,12.254,0,0,1-.15-2.5,4.136,4.136,0,0,1,.46-2.131,2.36,2.36,0,0,1,3.39-.406,1.057,1.057,0,0,0,1.457,0,1.039,1.039,0,0,0,0-1.456Z" transform="translate(-30.903 -48.084)" fill="#003cb3"/>
  <path id="Path_2505" data-name="Path 2505" d="M69.457,112.895c1.252,7.224,5.167,14.293,11.859,17.779a16.075,16.075,0,0,0,5.808,1.738,1.037,1.037,0,0,0,1.03-1.03,1.053,1.053,0,0,0-1.03-1.03c-6.9-.715-12.273-6.9-14.442-13.119a30.792,30.792,0,0,1-1.24-4.886,1.039,1.039,0,0,0-1.267-.719,1.053,1.053,0,0,0-.719,1.267Z" transform="translate(-39.637 -63.694)" fill="#003cb3"/>
  <path id="Path_2506" data-name="Path 2506" d="M113.406,128.908a9.087,9.087,0,0,0,4.377,1.011,7.087,7.087,0,0,0,4.395-1.287,1.035,1.035,0,0,0,0-1.456,1.057,1.057,0,0,0-1.456,0c.305-.238.043-.037-.037.013s-.181.11-.275.159c-.065.034-.386.169-.129.071-.126.048-.251.1-.379.138a6.514,6.514,0,0,1-2.26.3,6.773,6.773,0,0,1-2.156-.29c-.139-.043-.274-.091-.411-.138-.043-.015-.086-.039-.133-.051.254.074.074.033.006,0-.172-.08-.337-.163-.5-.251a1.053,1.053,0,0,0-1.409.369,1.042,1.042,0,0,0,.369,1.409Z" transform="translate(-64.455 -72.424)" fill="#003cb3"/>
  <path id="Path_2507" data-name="Path 2507" d="M122.175,105.648a20.921,20.921,0,0,1,.49,2.244l-.037-.274a1.336,1.336,0,0,1,.009.31l.037-.274a.752.752,0,0,1-.034.139l.1-.246a.549.549,0,0,1-.049.09l.161-.209a.47.47,0,0,1-.073.073l.209-.161a1.467,1.467,0,0,1-.178.094l.246-.1a1.281,1.281,0,0,1-.3.086l.274-.036a1.211,1.211,0,0,1-.282,0l.274.036c-.106-.015-.21-.04-.316-.055a1.14,1.14,0,0,0-.794.1,1.03,1.03,0,0,0-.369,1.409.987.987,0,0,0,.616.472c.23.031.454.09.689.1a2.179,2.179,0,0,0,1-.236,1.418,1.418,0,0,0,.795-.939,2.4,2.4,0,0,0-.011-1.025c-.122-.723-.289-1.439-.475-2.149a1.03,1.03,0,1,0-1.986.548Z" transform="translate(-69.311 -59.555)" fill="#003cb3"/>
  <path id="Path_2508" data-name="Path 2508" d="M95.081,90.215c-.375,1.218-.129,4.02,2.177,4.258,3.05-.018,3.212-3.406,2.186-5C98.6,88.171,96.132,87.629,95.081,90.215Z" transform="translate(-54.202 -50.446)" fill="#003cb3"/>
  <path id="Path_2509" data-name="Path 2509" d="M145.624,90.215c.375,1.218.129,4.02-2.177,4.258-3.05-.018-3.212-3.406-2.186-5C142.1,88.171,144.573,87.629,145.624,90.215Z" transform="translate(-80.322 -50.446)" fill="#003cb3"/>
</svg>
