<svg id="_12376_line" data-name="12376_line" xmlns="http://www.w3.org/2000/svg" width="92.97" height="140.813" viewBox="0 0 92.97 140.813">
  <path id="Path_2349" data-name="Path 2349" d="M109.635,174.918c-2.149,0-4.3-.022-6.447-.023a1.03,1.03,0,1,0,0,2.06c2.149,0,4.3.022,6.447.023a1.03,1.03,0,1,0,0-2.06Z" transform="translate(-58.319 -99.842)" fill="#003cb3"/>
  <path id="Path_2350" data-name="Path 2350" d="M118.923,167.41c-.246,1.023-.4,2.064-.632,3.09a7.136,7.136,0,0,0-.307,2.334c.206,1.855.456,3.705.687,5.557a1.063,1.063,0,0,0,1.03,1.03,1.036,1.036,0,0,0,1.03-1.03c-.23-1.832-.472-3.662-.681-5.5a5.46,5.46,0,0,1,.227-1.847c.23-1.026.386-2.067.632-3.09.31-1.287-1.676-1.838-1.986-.548Z" transform="translate(-67.35 -95.149)" fill="#003cb3"/>
  <path id="Path_2351" data-name="Path 2351" d="M97.83,168.753a8.8,8.8,0,0,1,.435,1.445c.129.5.3.992.429,1.494a4.444,4.444,0,0,1,.195,1.566c-.1,1.042-.224,1.773-.363,2.775-.545,3.948-1.114,7.9-1.674,11.844a1.064,1.064,0,0,0,.719,1.267,1.037,1.037,0,0,0,1.267-.719q.716-5.031,1.427-10.063.253-1.806.5-3.614a17.068,17.068,0,0,0,.206-1.7,8.039,8.039,0,0,0-.454-2.489,22.5,22.5,0,0,0-.9-2.846,1.037,1.037,0,0,0-1.409-.369,1.054,1.054,0,0,0-.369,1.409Z" transform="translate(-55.273 -95.454)" fill="#003cb3"/>
  <path id="Path_2352" data-name="Path 2352" d="M81.269,138.1c-.591.667-1.147,1.363-1.706,2.06s-1.184,1.343-1.679,2.071a3.587,3.587,0,0,0-.276,3.813A45.878,45.878,0,0,0,81.72,151.9a14.035,14.035,0,0,0,3.036,2.928,1.055,1.055,0,0,0,1.409-.369c1.915-2.557,3.716-5.231,5.836-7.627a1.05,1.05,0,0,0-.208-1.618c-.127-.091-.249-.186-.373-.281l-.148-.115s.154.119-.011-.009c-.144-.112-.288-.223-.429-.335q-1.091-.848-2.177-1.7-2.34-1.836-4.675-3.679c-.418-.33-.837-.657-1.251-.99a1.061,1.061,0,0,0-1.456,0,1.038,1.038,0,0,0,0,1.456c2.621,2.115,5.287,4.178,7.944,6.248.511.4,1.014.809,1.541,1.186l-.209-1.617c-2.234,2.528-4.136,5.347-6.156,8.045l1.409-.369a6.389,6.389,0,0,1-1-.824c-.419-.4-.813-.833-1.193-1.273-.8-.932-1.542-1.919-2.249-2.927-.579-.826-1.139-1.666-1.67-2.523-.15-.242-.314-.485-.442-.74a.9.9,0,0,1-.045-.086c.086.215.024-.073.022-.143a1.938,1.938,0,0,1,.215-.885,11.011,11.011,0,0,1,1.469-1.893c.6-.741,1.188-1.487,1.819-2.2C83.6,138.57,82.15,137.108,81.269,138.1Z" transform="translate(-44.063 -78.649)" fill="#003cb3"/>
  <path id="Path_2353" data-name="Path 2353" d="M64.053,179.607q-2.878-5.183-5.654-10.421-.674-1.278-1.339-2.562-.328-.634-.654-1.27c-.195-.38-.307-.407-.06-.693a54.917,54.917,0,0,1,4-3.951,1.039,1.039,0,0,0-.208-1.617l-2.047-1.169-.93-.531-.558-.319-.186-.106q-.228-.142.039.039l.14.52q-.09.193-.025.062c.025-.051.051-.1.078-.152.046-.086.094-.172.144-.257.105-.179.218-.352.336-.522a10.967,10.967,0,0,1,.819-1.028,25.525,25.525,0,0,1,2.317-2.27,40.6,40.6,0,0,1,4.817-3.617l-1.513-.615q2.559,11.348,5.931,22.494.938,3.115,1.94,6.21c.406,1.256,2.4.719,1.986-.548q-3.581-11.066-6.371-22.37-.782-3.159-1.5-6.334a1.037,1.037,0,0,0-1.513-.615A38.379,38.379,0,0,0,57,153.628a17.735,17.735,0,0,0-1.453,1.724,5.16,5.16,0,0,0-.972,1.762c-.268,1.185.9,1.684,1.739,2.163L59.1,160.87l-.209-1.617c-.78.733-1.557,1.468-2.317,2.221a15.6,15.6,0,0,0-2.086,2.216c-.659.987-.254,1.935.234,2.884q.7,1.37,1.416,2.733,2.993,5.712,6.137,11.342c.644,1.159,2.423.121,1.779-1.039Z" transform="translate(-30.909 -84.389)" fill="#003cb3"/>
  <path id="Path_2354" data-name="Path 2354" d="M132.72,168.8q2.847-9.755,5.1-19.671l-1.513.615a40.832,40.832,0,0,1,4.814,3.617,25.686,25.686,0,0,1,2.266,2.216,11.317,11.317,0,0,1,.831,1.03c.12.172.234.343.343.524q.091.152.175.308l.053.1q.1.207,0-.011l.141-.52q.246-.163.092-.07-.118.07-.239.137l-.465.266-1.023.584-2.046,1.169a1.039,1.039,0,0,0-.209,1.617c.781.733,1.558,1.468,2.319,2.221q.573.566,1.132,1.147c.185.193.372.384.55.583.156.176.18.144.142.292a7.772,7.772,0,0,1-.718,1.4q-.379.732-.76,1.462-.8,1.525-1.6,3.044c-.622,1.17,1.156,2.212,1.779,1.039q.9-1.7,1.8-3.41.451-.865.9-1.732a4.346,4.346,0,0,0,.7-1.83c.015-1.273-1.2-2.2-2.024-3.025-.9-.9-1.821-1.778-2.746-2.649l-.208,1.617,2.789-1.593c.841-.48,2.008-.972,1.739-2.163a5.182,5.182,0,0,0-.978-1.762,17.861,17.861,0,0,0-1.453-1.724,38.5,38.5,0,0,0-7.044-5.665,1.038,1.038,0,0,0-1.513.615q-2.237,9.913-5.1,19.671a1.031,1.031,0,0,0,1.986.548Z" transform="translate(-74.605 -84.388)" fill="#003cb3"/>
  <path id="Path_2355" data-name="Path 2355" d="M120.582,139.559c1.052,1.186,2.113,2.431,3.057,3.7a2.37,2.37,0,0,1,.356.714,1.959,1.959,0,0,1,.086.408c.008.089-.016.4,0,.338.028-.1-.054.1-.082.149-.072.127-.148.251-.223.376a44.155,44.155,0,0,1-3.733,5.3c-.422.508-.858,1-1.326,1.472-.215.215-.436.424-.666.622a3.236,3.236,0,0,1-.543.409l1.409.369c-2.02-2.7-3.922-5.517-6.156-8.044l-.209,1.617c1.175-.84,2.293-1.771,3.429-2.661q2.389-1.873,4.772-3.755c.429-.338.858-.673,1.283-1.016a1.037,1.037,0,0,0,0-1.456,1.054,1.054,0,0,0-1.459,0c-2.588,2.088-5.221,4.125-7.844,6.17l-.5.388-.218.169c-.2.154.148-.113-.03.023-.158.121-.315.245-.477.361a1.05,1.05,0,0,0-.209,1.618c2.119,2.4,3.919,5.071,5.836,7.627a1.05,1.05,0,0,0,1.409.369c2.192-1.434,3.816-3.806,5.289-5.922.6-.866,1.188-1.747,1.734-2.65a4.1,4.1,0,0,0,.449-.875,3.737,3.737,0,0,0-.307-2.634,11.734,11.734,0,0,0-1.689-2.237c-.653-.811-1.3-1.631-1.987-2.408C121.157,137.109,119.7,138.57,120.582,139.559Z" transform="translate(-63.373 -78.649)" fill="#003cb3"/>
  <path id="Path_2356" data-name="Path 2356" d="M134.443,50.722a8.626,8.626,0,0,1,4.563,3.541,16.906,16.906,0,0,1,2.164,5.793c.3,1.291,2.286.745,1.986-.548a18.044,18.044,0,0,0-2.546-6.536,10.8,10.8,0,0,0-5.622-4.236c-1.269-.4-1.811,1.592-.548,1.986Z" transform="translate(-76.338 -27.793)" fill="#003cb3"/>
  <path id="Path_2357" data-name="Path 2357" d="M138.464,12.776a4.678,4.678,0,0,1,1.988.323,10.863,10.863,0,0,1,2.4,1.471,14.7,14.7,0,0,1,4,4.685,24.916,24.916,0,0,1,3.02,11.017,36.292,36.292,0,0,1-.633,8.2,1.058,1.058,0,0,0,.719,1.267,1.039,1.039,0,0,0,1.267-.72,32.934,32.934,0,0,0-.463-15.813c-1.159-3.708-3.1-7.453-6.188-9.894-1.836-1.45-3.707-2.614-6.112-2.6a1.031,1.031,0,0,0,0,2.06Z" transform="translate(-78.476 -6.117)" fill="#003cb3"/>
  <path id="Path_2358" data-name="Path 2358" d="M54.582,33.178a37.771,37.771,0,0,1-.405-10.628,22.753,22.753,0,0,1,3.072-9.636A22.465,22.465,0,0,1,74.471,2.126a20,20,0,0,1,6.235.457A9.03,9.03,0,0,1,85.43,4.975c.911.967,2.366-.492,1.456-1.456A9.993,9.993,0,0,0,82.307.884,21.166,21.166,0,0,0,76.29,0,23.86,23.86,0,0,0,64.752,2.937a25.3,25.3,0,0,0-8.358,7.533A23.576,23.576,0,0,0,52.351,20.7,39.566,39.566,0,0,0,52.6,33.727a1.039,1.039,0,0,0,1.267.719,1.052,1.052,0,0,0,.72-1.267Z" transform="translate(-29.643 0)" fill="#003cb3"/>
  <path id="Path_2359" data-name="Path 2359" d="M82.793,49.44c-2.807.135-5.641.323-8.423.726a7.111,7.111,0,0,0-4.478,2.168,9.456,9.456,0,0,0-1.408,3.09,5.464,5.464,0,0,1-1.835,1.994c-1.961,1.713-2.47,4.092-2.593,6.587-.065,1.325,2,1.322,2.06,0,.091-1.848.374-3.66,1.805-4.966A11.6,11.6,0,0,0,70,56.991c.566-.858.59-1.936,1.1-2.814a4.916,4.916,0,0,1,3.7-2.007l.168-.024c.157-.023-.168.021,0,0q.226-.029.452-.055.515-.06,1.03-.11c.732-.073,1.465-.136,2.2-.2,1.383-.112,2.767-.217,4.152-.284,1.32-.064,1.327-2.124,0-2.06Z" transform="translate(-36.567 -28.223)" fill="#003cb3"/>
  <path id="Path_2360" data-name="Path 2360" d="M105.909,42.4a12.274,12.274,0,0,1,2.013-.052l.215.019c.194.019-.237-.043.1.012.144.024.287.051.429.083a7.188,7.188,0,0,1,1,.3c-.094-.036.047.019.067.028q.1.047.2.1c.149.075.3.157.438.245s.274.178.408.272c.033.023.129.1.043.03l.159.129a5.8,5.8,0,0,1,.614.6c.038.043.073.089.111.131-.054-.06-.076-.108-.013-.015s.133.2.193.3a1.03,1.03,0,1,0,1.778-1.039,6.572,6.572,0,0,0-3.1-2.625,9.445,9.445,0,0,0-4.652-.587,1.03,1.03,0,0,0,0,2.06Z" transform="translate(-59.872 -22.987)" fill="#003cb3"/>
  <path id="Path_2361" data-name="Path 2361" d="M180.209,216.5q-.772,6.067-1.543,12.136-.169,1.337-.336,2.675a1.035,1.035,0,0,0,1.03,1.03,1.055,1.055,0,0,0,1.03-1.03c.511-4.127,1.042-8.252,1.568-12.378l.31-2.433a1.035,1.035,0,0,0-1.03-1.03,1.056,1.056,0,0,0-1.03,1.03Z" transform="translate(-101.803 -123.005)" fill="#003cb3"/>
  <path id="Path_2362" data-name="Path 2362" d="M38.709,219.82c-.644-5.159-1.33-10.314-2.005-15.47-.086-.64-.172-1.281-.247-1.922a1.062,1.062,0,0,0-1.03-1.03,1.036,1.036,0,0,0-1.03,1.03c.515,4.305,1.126,8.6,1.68,12.9q.291,2.246.572,4.492a1.063,1.063,0,0,0,1.03,1.03A1.035,1.035,0,0,0,38.709,219.82Z" transform="translate(-19.636 -114.972)" fill="#003cb3"/>
  <path id="Path_2363" data-name="Path 2363" d="M39.139,323.124H97a1.031,1.031,0,0,0,0-2.06H39.139A1.031,1.031,0,0,0,39.139,323.124Z" transform="translate(-21.775 -183.285)" fill="#003cb3"/>
  <path id="Path_2364" data-name="Path 2364" d="M157.589,225.216a14.514,14.514,0,0,0,8.925,4.5,11.634,11.634,0,0,0,8.886-2.878c5.087-4.592,5.305-12.069,5.35-18.426a120.274,120.274,0,0,0-1.652-19.922c-.575-3.579-1.216-7.167-1.974-10.71a43.46,43.46,0,0,0-3.4-10.187,17.716,17.716,0,0,0-6.5-7.033,36.27,36.27,0,0,0-9.559-3.957c-.873-.251-1.75-.491-2.626-.73a1.031,1.031,0,0,0-.548,1.986c5.825,1.591,12.5,3.39,16.181,8.612a29.338,29.338,0,0,1,3.822,9.216c.45,1.655.777,3.327,1.087,5.014.319,1.737.684,3.464.995,5.2a127.147,127.147,0,0,1,2.075,18.908,85.11,85.11,0,0,1-.2,9.607,18.816,18.816,0,0,1-2.56,8.656,9.7,9.7,0,0,1-6.419,4.46,11.249,11.249,0,0,1-8.854-2.352,13.873,13.873,0,0,1-1.578-1.421c-.923-.954-2.379.5-1.456,1.456Z" transform="translate(-87.78 -88.959)" fill="#003cb3"/>
  <path id="Path_2365" data-name="Path 2365" d="M27.76,155.847a62.905,62.905,0,0,0-11.247,4.716A27.468,27.468,0,0,0,11.373,164,18.4,18.4,0,0,0,7.7,168.578a37.022,37.022,0,0,0-3.651,10.685c-.717,3.33-1.256,6.7-1.779,10.064a203.457,203.457,0,0,0-2.236,21.66c-.185,3.984.252,8.5,2.4,11.966a13.727,13.727,0,0,0,9.2,6.417c6.115.959,10.969-3.333,15.433-6.861l.5-.4a1.035,1.035,0,0,0,0-1.456,1.055,1.055,0,0,0-1.456,0l-3.814,3.015c-.316.249-.644.456-1.114.775-.772.526-1.563,1.03-2.383,1.481a11.392,11.392,0,0,1-4.522,1.517A10.933,10.933,0,0,1,5.226,223.3c-2.466-2.888-3.123-6.912-3.16-10.6-.02-2.066.176-4.138.327-6.2q.2-2.729.458-5.455.45-4.69,1.136-9.353c.486-3.3,1.012-6.6,1.644-9.879a49.153,49.153,0,0,1,2.62-9.679,17.5,17.5,0,0,1,6.866-8.362,54.088,54.088,0,0,1,10.428-5.007c.915-.327,1.837-.636,2.763-.934,1.257-.4.719-2.394-.548-1.986Z" transform="translate(0 -88.936)" fill="#003cb3"/>
  <path id="Path_2366" data-name="Path 2366" d="M138.921,102.2a10.329,10.329,0,0,1-.791,2.494c-.129.311-.265.618-.386.933-.029.076-.057.154-.086.231-.1.271.052-.1-.016.043a23.8,23.8,0,0,1-1.367,2.528,24.8,24.8,0,0,1-5.411,6.362,9.948,9.948,0,0,1-3.951,2.028c-1.291.3-.745,2.285.548,1.986,3.076-.711,5.635-2.961,7.642-5.294a27.612,27.612,0,0,0,4.256-6.421,17.76,17.76,0,0,0,1.623-4.89,1.035,1.035,0,0,0-1.03-1.03,1.057,1.057,0,0,0-1.03,1.03Z" transform="translate(-72.03 -57.754)" fill="#003cb3"/>
  <path id="Path_2367" data-name="Path 2367" d="M62.549,102.311c1.444,6.213,5.335,12.239,10.954,15.44a14.226,14.226,0,0,0,4.917,1.75,1.064,1.064,0,0,0,1.267-.719,1.038,1.038,0,0,0-.72-1.267c-6.053-.9-10.739-6.265-13.082-11.608a23.645,23.645,0,0,1-1.35-4.143c-.3-1.291-2.286-.745-1.986.548Z" transform="translate(-35.69 -57.672)" fill="#003cb3"/>
  <path id="Path_2368" data-name="Path 2368" d="M56.742,75.771a4.5,4.5,0,0,0-4.973-.687,4.377,4.377,0,0,0-2.2,3.052,11.428,11.428,0,0,0,1.751,8.807c1.238,1.81,3,3.117,5.285,2.806a1.036,1.036,0,0,0,.719-1.267,1.058,1.058,0,0,0-1.267-.719c-1.6.218-2.829-1.5-3.478-2.719A9.85,9.85,0,0,1,51.4,81.209a8.574,8.574,0,0,1,.089-2.231A5.224,5.224,0,0,1,51.759,78a2.964,2.964,0,0,1,.211-.406c.024-.039.215-.306.071-.124a1.9,1.9,0,0,1,1.263-.745,2.306,2.306,0,0,1,1.981.5c.981.887,2.442-.565,1.456-1.456Z" transform="translate(-28.157 -42.602)" fill="#003cb3"/>
  <path id="Path_2369" data-name="Path 2369" d="M157.434,77.222a2.3,2.3,0,0,1,1.981-.5,1.915,1.915,0,0,1,1.266.745c-.145-.183.048.086.071.124a2.917,2.917,0,0,1,.211.406,5.224,5.224,0,0,1,.266.977,8.554,8.554,0,0,1,.089,2.231,9.841,9.841,0,0,1-1.174,3.836c-.649,1.22-1.881,2.937-3.476,2.719a1.066,1.066,0,0,0-1.267.719,1.037,1.037,0,0,0,.719,1.267c3.724.509,5.889-3.153,6.855-6.222a10.735,10.735,0,0,0,.3-4.8,4.884,4.884,0,0,0-1.894-3.4,4.463,4.463,0,0,0-5.394.442c-.987.891.475,2.344,1.456,1.456Z" transform="translate(-88.693 -42.597)" fill="#003cb3"/>
  <path id="Path_2370" data-name="Path 2370" d="M102.317,118.473a8.2,8.2,0,0,0,3.951.915,6.431,6.431,0,0,0,3.988-1.177,1.035,1.035,0,0,0,0-1.456,1.056,1.056,0,0,0-1.456,0c.312-.244.071-.058-.01-.006s-.16.1-.244.142l-.129.065c-.167.086.04-.022.043-.014a2.618,2.618,0,0,1-.337.123,5.962,5.962,0,0,1-.944.215c.152-.023-.027,0-.089.008q-.138.013-.278.023c-.223.015-.447.02-.67.019-.2,0-.4-.008-.6-.022-.091-.006-.183-.013-.275-.023-.011,0-.343-.048-.132-.014a6.792,6.792,0,0,1-.881-.2c-.124-.037-.244-.082-.366-.123-.263-.09.152.079-.086-.033q-.227-.107-.448-.224a1.052,1.052,0,0,0-1.409.369,1.041,1.041,0,0,0,.369,1.409Z" transform="translate(-58.12 -66.485)" fill="#003cb3"/>
  <path id="Path_2371" data-name="Path 2371" d="M110.06,97.725a18.56,18.56,0,0,1,.436,2l-.036-.274a1.207,1.207,0,0,1,.007.276l.037-.274a.654.654,0,0,1-.03.124l.1-.246a.5.5,0,0,1-.043.08l.161-.209a.44.44,0,0,1-.065.064l.208-.161a1.319,1.319,0,0,1-.158.084l.246-.1a1.168,1.168,0,0,1-.266.078l.274-.037a1.06,1.06,0,0,1-.25,0l.274.037c-.094-.013-.187-.036-.281-.049a.782.782,0,0,0-.411-.018.772.772,0,0,0-.383.122,1.03,1.03,0,0,0-.369,1.409.987.987,0,0,0,.616.472c.215.029.424.084.644.093a2.054,2.054,0,0,0,.948-.226,1.37,1.37,0,0,0,.759-.9,2.264,2.264,0,0,0-.01-.972c-.109-.644-.257-1.28-.422-1.91a1.03,1.03,0,0,0-1.986.548Z" transform="translate(-62.437 -55.044)" fill="#003cb3"/>
  <path id="Path_2372" data-name="Path 2372" d="M86.247,84.134c-.332,1.08-.115,3.562,1.931,3.776,2.7-.016,2.848-3.019,1.938-4.431A2.141,2.141,0,0,0,86.247,84.134Z" transform="translate(-49.163 -47.103)" fill="#003cb3"/>
  <path id="Path_2373" data-name="Path 2373" d="M131.173,84.134c.333,1.08.116,3.562-1.931,3.776-2.7-.016-2.848-3.019-1.938-4.431A2.141,2.141,0,0,1,131.173,84.134Z" transform="translate(-72.387 -47.103)" fill="#003cb3"/>
  <path id="Path_2374" data-name="Path 2374" d="M99.594,209.951a10.444,10.444,0,0,0-3.948,1.073c-1.323.528-2.623,1.111-3.89,1.759a1.03,1.03,0,1,0,1.04,1.778c1.108-.569,2.24-1.092,3.4-1.553.59-.235,1.185-.459,1.786-.665a4.684,4.684,0,0,1,1.613-.336,1.03,1.03,0,0,0,0-2.06Z" transform="translate(-52.089 -119.853)" fill="#003cb3"/>
  <path id="Path_2375" data-name="Path 2375" d="M79.683,265.589c.229-.308.451-.621.676-.932q.192-.265.386-.53.086-.118.175-.236c.065-.086.158-.191.036-.048.045-.053.245-.269.076-.124a3.439,3.439,0,0,1,.494-.319,5.368,5.368,0,0,1,1.56-.311,8.157,8.157,0,0,0,1.711-.305,5.5,5.5,0,0,0,1.646-.971,6.2,6.2,0,0,0,1-1.012c.166-.21.325-.424.483-.64.133-.182.26-.358.352-.472a1.063,1.063,0,0,0,0-1.456,1.037,1.037,0,0,0-1.456,0,10.385,10.385,0,0,1-1.792,2.093,2.864,2.864,0,0,1-1.339.619c-.553.108-1.139.14-1.708.228a3.937,3.937,0,0,0-2.525,1.272c-.541.684-1.03,1.407-1.55,2.106a1.037,1.037,0,0,0,.369,1.409,1.054,1.054,0,0,0,1.409-.369Z" transform="translate(-44.395 -147.246)" fill="#003cb3"/>
  <path id="Path_2376" data-name="Path 2376" d="M71.284,217.183a3.632,3.632,0,0,0-4.373-.781,9.844,9.844,0,0,1-.956.606,6.609,6.609,0,0,1-1.317.159c-.85.14-1.459.778-2.307.861-2.115.206-3.484,1.944-4.357,3.722-.769,1.567-1.493,3.155-2.279,4.714-.823,1.633-1.661,3.258-2.466,4.9a1.056,1.056,0,0,0,.369,1.409,1.04,1.04,0,0,0,1.409-.369c1.3-2.65,2.681-5.258,3.948-7.924.682-1.437,1.3-3.4,2.813-4.18a2.4,2.4,0,0,1,.91-.236,3.6,3.6,0,0,0,1.459-.454,2.556,2.556,0,0,1,.886-.429c.414-.061.824-.028,1.238-.122a3.223,3.223,0,0,0,1.212-.561,1.952,1.952,0,0,1,.961-.46,1.638,1.638,0,0,1,1.392.6c.888.987,2.341-.472,1.456-1.457Z" transform="translate(-30.311 -123.301)" fill="#003cb3"/>
  <path id="Path_2377" data-name="Path 2377" d="M92.708,231.178a14.526,14.526,0,0,1,1.116,3.165,8.433,8.433,0,0,1,.244,1.57,4.96,4.96,0,0,1-.291,1.2c-.133.463-.28.925-.458,1.373a2.434,2.434,0,0,1-.453.834c-.462.415-1.574.329-1.755-.276a1.031,1.031,0,0,0-1.986.548,3.162,3.162,0,0,0,3.853,1.927c1.459-.386,2.036-1.625,2.494-2.934a16.144,16.144,0,0,0,.5-1.717,5.761,5.761,0,0,0,0-2.222,15.829,15.829,0,0,0-1.484-4.506,1.04,1.04,0,0,0-1.409-.369,1.052,1.052,0,0,0-.369,1.409Z" transform="translate(-50.85 -131.089)" fill="#003cb3"/>
  <path id="Path_2378" data-name="Path 2378" d="M83.359,233.846c.257.616.554,1.208.844,1.808a4.394,4.394,0,0,1,.439,1.282,6.286,6.286,0,0,1-.225,1.628q-.086.4-.183.8c-.031.124-.062.248-.1.37-.016.051-.033.1-.052.151.039-.086.033-.074-.018.036-.046.086-.1.169-.144.254q-.1.148,0,.017c-.038.046-.078.09-.121.133-.061.062-.206.148-.058.06a1.6,1.6,0,0,1-.146.086q.179-.065.014-.006c-.05.013-.3.049-.062.031-.052,0-.4-.026-.185.013a1.341,1.341,0,0,1-.543-.2c-.043-.025-.238-.19-.078-.043-.06-.055-.221-.3-.1-.086-.038-.067-.079-.131-.112-.2.115.244,0-.076-.015-.135-.052-.206-.01.172-.006-.073,0-.112-.007-.224,0-.336.006-.2.043-.583.055-.678a1.066,1.066,0,0,0-.72-1.267,1.037,1.037,0,0,0-1.267.719,4.278,4.278,0,0,0,.313,3.043,3.1,3.1,0,0,0,2.887,1.273,2.992,2.992,0,0,0,2.3-2.095,10.02,10.02,0,0,0,.375-1.5,8.564,8.564,0,0,0,.266-1.876c-.037-1.388-.846-2.516-1.362-3.753a1.064,1.064,0,0,0-1.267-.719,1.036,1.036,0,0,0-.719,1.267Z" transform="translate(-45.919 -132.755)" fill="#003cb3"/>
  <path id="Path_2379" data-name="Path 2379" d="M51.216,251.954a14.444,14.444,0,0,0,1.912,4.291,21.077,21.077,0,0,0,2.9,3.739,7.4,7.4,0,0,0,3.819,2.228,13.956,13.956,0,0,0,4.12.2,1.059,1.059,0,0,0,1.03-1.03,1.037,1.037,0,0,0-1.03-1.03,12.26,12.26,0,0,1-3.427-.1,5.613,5.613,0,0,1-3.181-1.856,19.028,19.028,0,0,1-2.494-3.265,12.588,12.588,0,0,1-1.659-3.727c-.294-1.292-2.28-.745-1.986.548Z" transform="translate(-29.221 -143.098)" fill="#003cb3"/>
  <path id="Path_2380" data-name="Path 2380" d="M151.571,240.927a31.606,31.606,0,0,1,3.541,2.064,9.321,9.321,0,0,1,2.769,2.519,11.6,11.6,0,0,1,1.29,3.719,13.285,13.285,0,0,1,.247,4.461,1.066,1.066,0,0,0,.719,1.267,1.037,1.037,0,0,0,1.267-.719,16.077,16.077,0,0,0-.192-5.287,13.942,13.942,0,0,0-1.463-4.33,10.8,10.8,0,0,0-3.219-3.14,30.04,30.04,0,0,0-3.92-2.332c-1.177-.606-2.22,1.171-1.04,1.778Z" transform="translate(-86.231 -136.451)" fill="#003cb3"/>
  <path id="Path_2381" data-name="Path 2381" d="M110.182,229.016l-8.714-1.627c-.923-.172-2.378-.247-2.234-1.563.072-.653.245-1.31.366-1.955l1.826-9.769,1.964-10.5.91-4.869c.283-1.516.531-3.043.85-4.551a1.279,1.279,0,0,1,1.665-1.021l1.525.285,7.836,1.465,5.107.954a5.956,5.956,0,0,1,1.159.245,1.237,1.237,0,0,1,.676,1.437l-1.727,9.24-1.317,7.048-.371,1.983a1.058,1.058,0,0,0,.719,1.267,1.039,1.039,0,0,0,1.267-.719q.633-3.381,1.264-6.762l1.989-10.645c.064-.343.134-.687.194-1.034a3.314,3.314,0,0,0-1.634-3.584,5.423,5.423,0,0,0-1.58-.445l-2.311-.432-8.245-1.541c-1.437-.269-2.872-.561-4.314-.806a3.3,3.3,0,0,0-3.754,2.053,9.772,9.772,0,0,0-.356,1.664l-1.192,6.38-1.788,9.564L97.9,221.8l-.58,3.085c-.036.189-.073.377-.1.567a3.272,3.272,0,0,0,2.36,3.668c1.171.308,2.406.454,3.594.676l5.442,1.016,1.017.19a1.057,1.057,0,0,0,1.267-.719,1.039,1.039,0,0,0-.719-1.267Z" transform="translate(-55.476 -109.06)" fill="#003cb3"/>
  <path id="Path_2382" data-name="Path 2382" d="M132.546,238.375q-6.36-3.893-12.788-7.674a4.427,4.427,0,0,0-3.469-.644,2.9,2.9,0,0,0-1.859,3.822,7.036,7.036,0,0,0,2.339,2.211c1,.755,2.014,1.5,3.029,2.231,2.274,1.653,4.559,3.3,6.9,4.872,1.1.74,2.136-1.043,1.04-1.779-1.865-1.251-3.691-2.563-5.514-3.874q-1.55-1.116-3.09-2.245-.644-.474-1.284-.955c-.172-.129-.343-.261-.515-.392-.192-.146.048.039-.082-.063l-.227-.178c-.292-.231-.73-.525-.784-.863a.7.7,0,0,1,.14-.378.843.843,0,0,1,.393-.4c.69-.351,1.457.123,2.044.468,1.784,1.049,3.559,2.114,5.335,3.176,2.458,1.471,4.914,2.945,7.358,4.44,1.134.694,2.17-1.087,1.04-1.779Z" transform="translate(-65.193 -131.255)" fill="#003cb3"/>
  <path id="Path_2383" data-name="Path 2383" d="M110.736,235.031a3.748,3.748,0,0,0-3.334.587,3.2,3.2,0,0,0-1,3.39c.512,1.536,1.911,2.591,3.163,3.519,2.355,1.751,4.738,3.466,7.12,5.181,1,.722,2,1.449,3.019,2.155a1.039,1.039,0,0,0,1.409-.369,1.051,1.051,0,0,0-.369-1.409c-1.888-1.312-3.741-2.672-5.6-4.021q-1.65-1.2-3.3-2.4-.622-.456-1.244-.916-.211-.156-.421-.315l-.155-.117c-.17-.126.212.181.034.026-.624-.543-1.825-1.416-1.752-2.362.078-1.008,1.092-1.141,1.877-.964,1.291.292,1.842-1.693.548-1.986Z" transform="translate(-60.662 -134.091)" fill="#003cb3"/>
  <path id="Path_2384" data-name="Path 2384" d="M112.031,249.549a2.551,2.551,0,0,0-2.67,2.824,4.2,4.2,0,0,0,1.857,2.937c1.759,1.409,3.586,2.741,5.394,4.089l2.816,2.1a1.036,1.036,0,0,0,1.409-.369,1.054,1.054,0,0,0-.369-1.409c-1.56-1.166-3.125-2.326-4.683-3.495q-1.217-.913-2.427-1.836c-.054-.043-.215-.167-.073-.056l-.225-.175-.386-.3c-.151-.121-.3-.242-.446-.374-.415-.383-.9-.849-.777-1.459a1.641,1.641,0,0,1,.093-.3c-.1.233.141-.2.022-.03.054-.079.041-.074.091-.089a1.336,1.336,0,0,1,.373.008,1.036,1.036,0,0,0,1.03-1.03,1.054,1.054,0,0,0-1.03-1.03Z" transform="translate(-62.43 -142.451)" fill="#003cb3"/>
  <path id="Path_2385" data-name="Path 2385" d="M111.35,261.386a2.532,2.532,0,0,0-.538,2.439,6.193,6.193,0,0,0,1.431,2.247,33.72,33.72,0,0,0,3.442,3.6,40.268,40.268,0,0,0,4.024,3.171,12.053,12.053,0,0,0,4.7,2.181,17.117,17.117,0,0,0,4.857.074,1.062,1.062,0,0,0,1.03-1.03,1.036,1.036,0,0,0-1.03-1.03,15.37,15.37,0,0,1-4.541-.043,13.3,13.3,0,0,1-5.007-2.669,34.375,34.375,0,0,1-4.132-3.6q-.987-1.01-1.886-2.1c-.23-.279-1.292-1.339-.893-1.773.9-.975-.558-2.435-1.456-1.459Z" transform="translate(-63.195 -149.032)" fill="#003cb3"/>
  <path id="Path_2386" data-name="Path 2386" d="M160.555,268.208a18.658,18.658,0,0,1-3.234,5.961,15.768,15.768,0,0,1-5.039,4.451c-1.18.606-.139,2.384,1.04,1.779a17.515,17.515,0,0,0,5.617-4.982,20.886,20.886,0,0,0,3.6-6.662A1.031,1.031,0,0,0,160.555,268.208Z" transform="translate(-86.637 -152.699)" fill="#003cb3"/>
  <path id="Path_2387" data-name="Path 2387" d="M124.118,202.671l-2.618-.491a1.106,1.106,0,0,0-.794.1,1.03,1.03,0,0,0-.369,1.409,1.012,1.012,0,0,0,.616.472l2.618.491a1.106,1.106,0,0,0,.794-.1,1.03,1.03,0,0,0,.369-1.409,1.013,1.013,0,0,0-.616-.472Z" transform="translate(-68.616 -115.4)" fill="#003cb3"/>
</svg>
