<svg xmlns="http://www.w3.org/2000/svg" width="481.493" height="112.87" viewBox="0 0 481.493 112.87">
  <g data-idr="Group_322" data-name="Group 322" transform="translate(1365 5682.579)">
    <path data-idr="Path_3377" data-name="Path 3377" d="M0,0H66L81.493,44.992,66,90H0" transform="translate(-1365 -5682.579)" fill="#f6f4e8"/>
    <path data-idr="Path_3377-2" data-name="Path 3377" d="M0,0H86l15.493,44.992L86,90H0L15.369,45.088Z" transform="translate(-1297 -5682.579)" fill="#f6f4e8"/>
    <path data-idr="Path_3377-3" data-name="Path 3377" d="M0,0H96l15.493,44.992L96,90H0L15.369,45.088Z" transform="translate(-1209 -5682.579)" fill="#f6f4e8"/>
    <path data-idr="Path_3377-4" data-name="Path 3377" d="M10,0H86l15.493,44.992L86,90H10L25.369,45.088Z" transform="translate(-1121 -5682.579)" fill="#f6f4e8"/>
    <path data-idr="Path_3377-5" data-name="Path 3377" d="M10,0H76L91.493,44.992,76,90H10L25.369,45.088Z" transform="translate(-1043 -5682.579)" fill="#f6f4e8"/>
    <path data-idr="Path_3377-6" data-name="Path 3377" d="M10,0H76L91.493,44.992,76,90H10L25.369,45.088Z" transform="translate(-975 -5682.579)" fill="#f6f4e8"/>
    <path data-idr="Path_3426" data-name="Path 3426" d="M-16.594-9.375a4.777,4.777,0,0,0-.984,1.453h4.828q-.047.75-.047,1.875v6a.879.879,0,0,1-.516.914,6.527,6.527,0,0,1-1.406.352A1.635,1.635,0,0,0-15.234.188,8.821,8.821,0,0,0-13.992.07q.3-.07.352-.492v-6.8h-4.266q-.562.938-.75,1.266H-15q-.047.656-.047,2.578T-15-.469h-3.891q.047-.891.047-1.828V-5.578q-.375.563-.75,1.031a1.987,1.987,0,0,0-.891-.609A9.106,9.106,0,0,0-19.43-6.492q.4-.633.867-1.547a18.906,18.906,0,0,0,.844-1.9A1.927,1.927,0,0,0-16.594-9.375Zm-4.547,3.422q-.047.891-.047,1.828V-.8q.609-.656,1.031-1.125a5.758,5.758,0,0,0,.609.75q-.609.516-1.172,1.078A8.512,8.512,0,0,0-21.7,1.078a3.6,3.6,0,0,0-.844-.844,1.389,1.389,0,0,0,.469-.984V-5.156H-22.5q-.375,0-1.078.047V-6q.7.047,1.078.047Zm5.2,2.391V-5.25h-2.016v1.688Zm0,2.344V-2.859h-2.016v1.641Zm-5.859-8.3q.281.422,1.219,1.875a9.211,9.211,0,0,0-.984.469,16.03,16.03,0,0,0-1.172-1.875Q-22.219-9.281-21.8-9.516Zm18,3.469q-.047,1.031-.047,2.109T-3.8-1.969H-8.437q.047-.984.047-1.922t-.047-2.156Zm2.672-3q-.047.891-.047,1.828V-.187q0,.891-.516,1.055a9.889,9.889,0,0,1-1.453.3A1.98,1.98,0,0,0-3.562.047,7.75,7.75,0,0,0-2.391,0q.187-.047.234-.422V-8.25H-4.875q-1.172,0-2.109.047v-.891q.937.047,2.063.047ZM-9.8-7.266q-.047.8-.047,1.313V1.125h-1.031q.047-.937.047-1.734V-5.719q0-.844-.047-1.547Zm5.016,4.5V-5.25H-7.5v2.484ZM-9.375-9.75q.563.75,1.359,1.641-.328.234-.844.609a8.357,8.357,0,0,0-1.312-1.641Q-9.7-9.516-9.375-9.75Zm18.8,6.7q-.047.7-.047,1.453V-.328q0,.7.047,1.406H8.438V.328H3.516v.8H2.531q0-.75.047-1.453V-1.594q-.047-.75-.047-1.453ZM8.438-.422V-2.3H3.516V-.422ZM7.406-6.047A5.893,5.893,0,0,0,11.25-4.219a2.72,2.72,0,0,0-.562,1.078A9.916,9.916,0,0,1,8.7-3.984,6.492,6.492,0,0,1,7.031-5.344,3.6,3.6,0,0,1,5.906-4.055a7.476,7.476,0,0,1-1.734.867,2.851,2.851,0,0,0-.75-.75A4.507,4.507,0,0,0,5.977-5.3,3.887,3.887,0,0,0,6.75-7.406l.984.141ZM5.813-7.687a4.955,4.955,0,0,1-.492.609,4.665,4.665,0,0,0-.539.7,3,3,0,0,0-.891-.609A4.338,4.338,0,0,0,5.133-8.3a5.384,5.384,0,0,0,.68-1.594,3.073,3.073,0,0,0,1.172.469,4.039,4.039,0,0,0-.656.938h4.266q-.562,1.5-.8,2.063a9.4,9.4,0,0,0-.984-.234q.328-.75.469-1.031ZM3.984-5.906q-.328.328-.984.938A22.661,22.661,0,0,0,1.406-3.281a8.088,8.088,0,0,0-.75-.75,7.182,7.182,0,0,0,1.2-.891A12.96,12.96,0,0,0,3.375-6.469,1.845,1.845,0,0,0,3.984-5.906ZM2.906-7.172A10.463,10.463,0,0,0,1.031-8.531q.281-.375.563-.7A20.076,20.076,0,0,1,3.469-7.922,2.156,2.156,0,0,0,2.906-7.172Zm16.5-2.2a4.777,4.777,0,0,0-.984,1.453H23.25q-.047.75-.047,1.875v6a.879.879,0,0,1-.516.914,6.527,6.527,0,0,1-1.406.352A1.635,1.635,0,0,0,20.766.188,8.821,8.821,0,0,0,22.008.07q.3-.07.352-.492v-6.8H18.094q-.562.938-.75,1.266H21q-.047.656-.047,2.578T21-.469H17.109q.047-.891.047-1.828V-5.578q-.375.563-.75,1.031a1.987,1.987,0,0,0-.891-.609A9.106,9.106,0,0,0,16.57-6.492q.4-.633.867-1.547a18.906,18.906,0,0,0,.844-1.9A1.927,1.927,0,0,0,19.406-9.375ZM14.859-5.953q-.047.891-.047,1.828V-.8q.609-.656,1.031-1.125a5.758,5.758,0,0,0,.609.75q-.609.516-1.172,1.078A8.512,8.512,0,0,0,14.3,1.078a3.6,3.6,0,0,0-.844-.844,1.389,1.389,0,0,0,.469-.984V-5.156H13.5q-.375,0-1.078.047V-6q.7.047,1.078.047Zm5.2,2.391V-5.25H18.047v1.688Zm0,2.344V-2.859H18.047v1.641ZM14.2-9.516q.281.422,1.219,1.875a9.211,9.211,0,0,0-.984.469,16.03,16.03,0,0,0-1.172-1.875Q13.781-9.281,14.2-9.516Z" transform="translate(-1324 -5607)" fill="#4e443b"/>
    <path data-idr="Path_3415" data-name="Path 3415" d="M-4.211-3.819a7.336,7.336,0,0,0,.22,2.054.887.887,0,0,0,.9.712.874.874,0,0,0,.894-.712,7.6,7.6,0,0,0,.212-2.054A7.517,7.517,0,0,0-2.194-5.9a.867.867,0,0,0-.894-.677.879.879,0,0,0-.9.677A7.254,7.254,0,0,0-4.211-3.819Zm1.123-4.023A2.2,2.2,0,0,1-1-6.794,6.061,6.061,0,0,1-.4-3.819,6.028,6.028,0,0,1-1-.849,2.2,2.2,0,0,1-3.088.193,2.2,2.2,0,0,1-5.175-.849a6.028,6.028,0,0,1-.6-2.97,6.061,6.061,0,0,1,.6-2.976A2.2,2.2,0,0,1-3.088-7.842ZM.763-5.371V-6.413a6.751,6.751,0,0,0,1.013-.1,1.427,1.427,0,0,0,.75-.408,1.345,1.345,0,0,0,.3-.559,1.285,1.285,0,0,0,.059-.312H4.163V0H2.594V-5.371Z" transform="translate(-1324 -5669.623)" fill="#4e443b"/>
    <path data-idr="Path_3425" data-name="Path 3425" d="M-13.444-3.937q.656,0,1.547-.047v.8q-.891-.047-1.547-.047h-3.234a3.141,3.141,0,0,0-.328.844H-12.6q-.047.609-.047,1.078V.094q0,.563-.281.727a4.752,4.752,0,0,1-1.219.352,2.327,2.327,0,0,0-.422-.984,2.3,2.3,0,0,0,.891-.094q.141-.094.141-.469V-1.687h-1.828V.7h-.891V-1.687H-17.9V.7h-.891V-1.687h-1.781V1.078h-.891q.047-.656.047-1.406v-.75q0-.609-.047-1.312h3.609a8.495,8.495,0,0,0,.234-.844h-2.953q-.8,0-1.547.047v-.8q.7.047,1.5.047Zm-.844-5.578q.7,0,1.594-.047v.8q-.891-.047-1.594-.047h-2.3v.8H-11.9v2.2h-.891v-1.5h-3.8V-6q0,.8.047,1.453h-.984q.047-.609.047-1.406V-7.312h-3.844v1.5h-.937q0-.516.023-1.031a10.15,10.15,0,0,0-.023-1.172h4.781v-.8h-2.3q-.7,0-1.406.047v-.8q.7.047,1.359.047Zm-4.172,4.922h-2.3V-5.25h2.3Zm.047-1.312h-2.2v-.656h2.2Zm4.688-.047h-2.2v-.656h2.2Zm.047,1.266h-2.2v-.656h2.2Zm2.869-2.859q.75.047,1.594.047h2.906q0-1.359-.047-2.109h1.031q-.047.75-.047,2.109h3.328q.656,0,1.453-.047V-6.7q-.844-.047-1.453-.047H-5.372a4.4,4.4,0,0,0,.445,1.594,8.162,8.162,0,0,0,.82,1.406A10.039,10.039,0,0,0-2.184-5.906a4.09,4.09,0,0,0,.937.75A16.526,16.526,0,0,0-3.731-3.094a8.9,8.9,0,0,0,1.477,1.5,5.136,5.136,0,0,0,1.9.984,2.356,2.356,0,0,0-.937.891A9.989,9.989,0,0,1-3.38-1.289,9.776,9.776,0,0,1-5.372-4.453V-.281a.863.863,0,0,1-.445.938,4.491,4.491,0,0,1-1.43.328A3.423,3.423,0,0,0-7.669-.047a4.539,4.539,0,0,0,1.1-.023q.3-.07.258-.492V-3.141Q-8.184-1.687-9-1.031T-10.341.094q-.422-.469-.8-.844A17.359,17.359,0,0,0-9.45-1.758,37.967,37.967,0,0,0-6.309-4.219V-6.75H-9.216q-.844,0-1.594.047ZM-9.4-5.953q1.031.844,1.922,1.594l-.8.7A11.319,11.319,0,0,0-10.153-5.3Zm6.141-3.609A10.758,10.758,0,0,1-1.762-8.3a5.711,5.711,0,0,0-.7.609,14.313,14.313,0,0,0-1.5-1.359A8.331,8.331,0,0,1-3.262-9.562Zm13.041.281a9.9,9.9,0,0,0-1.219,2.2h1.547q-.047.656-.047,1.922t.047,1.734H8.559v3A.373.373,0,0,0,8.981,0h.75q.422.047.562-1.219A1.949,1.949,0,0,0,11.325-.8Q11,.844,10.059.844H8.513q-.8,0-.8-.891V-3.422H6.684a14.324,14.324,0,0,1-.258,1.57A4.8,4.8,0,0,1,5.981-.609,3.946,3.946,0,0,1,5.161.4a8.925,8.925,0,0,1-1.2.914A4.975,4.975,0,0,0,2.981.7a9.234,9.234,0,0,0,1.5-.914,3.07,3.07,0,0,0,.7-.844A3.985,3.985,0,0,0,5.606-2.2a9.688,9.688,0,0,0,.188-1.219H4.388q.047-1.219.047-2.2T4.388-7.078H7.669A20.131,20.131,0,0,0,8.606-9.8Q9.216-9.516,9.778-9.281ZM2.7-6.234q-.047.75-.047,1.734v3.234q.563-.516,1.266-1.266.234.281.609.7Q3.966-1.312,3.263-.68A8.856,8.856,0,0,0,2.231.375a8.419,8.419,0,0,0-.75-.75,1.124,1.124,0,0,0,.328-.984V-5.437q-.8,0-1.453.047v-.891q.656.047.984.047ZM9.216-4.172V-6.328H5.325v2.156ZM1.528-9.562A14.182,14.182,0,0,1,3.4-7.875q-.141.141-.656.7Q1.575-8.391.919-8.953A2.715,2.715,0,0,0,1.528-9.562Zm3.7-.141A18.148,18.148,0,0,1,6.45-7.687a7.483,7.483,0,0,0-.8.469A11.2,11.2,0,0,0,4.528-9.281,3.481,3.481,0,0,0,5.231-9.7Zm16.7.375q-.047.891-.047,2.063v6.75q.047.891-.3,1.148a4.149,4.149,0,0,1-1.57.445,3.329,3.329,0,0,0-.469-1.125A4.791,4.791,0,0,0,20.662-.07q.328-.07.281-.492V-3.047H18.178a9.544,9.544,0,0,1-1.594,4.359A3.017,3.017,0,0,0,15.6.7q1.828-1.828,1.688-5.953V-7.219q0-1.125-.047-2.109Zm-6,.375q-.047.984-.047,2.109v3.375q0,1.125.047,2.016h-.891v-.7H13.069V-.844h-.937q.047-.8.047-2.062V-6.891q0-1.125-.047-2.062Zm5.016,2.391V-8.531H18.225v1.969Zm0,2.719V-5.766H18.225v1.922ZM15.037-3V-5.3H13.069V-3Zm0-3.047V-8.156H13.069v2.109ZM-7.106,7.188q-.047.984-.047,1.969v4.031a12.964,12.964,0,0,0,.047,1.359h-.984v-.8H-9.778v1.219h-.938q0-.234.047-1.125V9.156q0-.984-.047-1.969Zm6.516.188q-.891.094-1.922.188T-5.091,7.7v2.438h3.281q.8,0,1.547-.047v.844q-.844-.047-1.875-.047v4.688q0,.844.047,1.547h-.984q.047-.8.047-1.547V10.891H-5.091a10.412,10.412,0,0,1-.422,3.375,7.636,7.636,0,0,1-1.781,2.906,1.827,1.827,0,0,0-.891-.609,7.375,7.375,0,0,0,1.313-1.594,5.638,5.638,0,0,0,.656-1.641,13.869,13.869,0,0,0,.234-2.437Q-5.934,9.3-5.981,7q.8,0,2.484-.164a7.43,7.43,0,0,0,2.344-.492A2.485,2.485,0,0,0-.591,7.375ZM-8.091,13V7.984H-9.778V13ZM4.669,6.859q.8,0,1.359-.047v.8a6.041,6.041,0,0,0-.75-.047v6.328q.516-.141,1.172-.328v.8q-.609.141-1.172.281,0,1.828.047,2.672H4.387q.047-.7.047-2.484a16.344,16.344,0,0,0-2.062.563,13.805,13.805,0,0,0-1.594.656L.4,14.969l1.031-.187V7.563q-.375,0-.938.047v-.8q.609.047,1.641.047Zm.984,9.375a5.12,5.12,0,0,0,1.1-.914,11.644,11.644,0,0,0,1.1-1.477,8.349,8.349,0,0,1-.914-2.672,31.519,31.519,0,0,1-.3-3.141H6.262v-.8q.938.047,1.688.047h2.625a26.562,26.562,0,0,1-.539,3.8,9.754,9.754,0,0,1-1.1,2.766,4.867,4.867,0,0,0,1.008,1.219,7.915,7.915,0,0,0,1.383.984,3.218,3.218,0,0,0-.8.8,8.976,8.976,0,0,1-2.109-2.2,10,10,0,0,1-1.922,2.3A2.8,2.8,0,0,0,5.653,16.234Zm1.828-8.2q.141,1.875.258,2.813A8.308,8.308,0,0,0,8.372,13a10.4,10.4,0,0,0,.961-2.883q.211-1.336.258-2.086Zm-3.047,1.5V7.563H2.278V9.531ZM2.278,14.594q1.125-.234,2.156-.469v-1.5H2.278Zm2.156-2.719V10.234H2.278v1.641Z" transform="translate(-1246 -5615)" fill="#4e443b"/>
    <path data-idr="Path_3416" data-name="Path 3416" d="M-4.211-3.819a7.336,7.336,0,0,0,.22,2.054.887.887,0,0,0,.9.712.874.874,0,0,0,.894-.712,7.6,7.6,0,0,0,.212-2.054A7.517,7.517,0,0,0-2.194-5.9a.867.867,0,0,0-.894-.677.879.879,0,0,0-.9.677A7.254,7.254,0,0,0-4.211-3.819Zm1.123-4.023A2.2,2.2,0,0,1-1-6.794,6.061,6.061,0,0,1-.4-3.819,6.028,6.028,0,0,1-1-.849,2.2,2.2,0,0,1-3.088.193,2.2,2.2,0,0,1-5.175-.849a6.028,6.028,0,0,1-.6-2.97,6.061,6.061,0,0,1,.6-2.976A2.2,2.2,0,0,1-3.088-7.842ZM.344,0A3.66,3.66,0,0,1,.7-1.531,4.328,4.328,0,0,1,2.25-3.18,11.344,11.344,0,0,0,3.62-4.265,1.6,1.6,0,0,0,4.1-5.382,1.238,1.238,0,0,0,3.824-6.2a.965.965,0,0,0-.784-.328.956.956,0,0,0-.951.521,2.584,2.584,0,0,0-.172.956H.43A3.759,3.759,0,0,1,.79-6.66,2.244,2.244,0,0,1,2.967-7.826a2.763,2.763,0,0,1,1.968.685,2.367,2.367,0,0,1,.731,1.813A2.451,2.451,0,0,1,5.15-3.792,5.142,5.142,0,0,1,4.036-2.8l-.613.435q-.576.408-.788.591a1.731,1.731,0,0,0-.357.424h3.4V0Z" transform="translate(-1246 -5669.623)" fill="#4e443b"/>
    <path data-idr="Path_3424" data-name="Path 3424" d="M-17.194-9.8a8.443,8.443,0,0,1,.75,1.313h2.672q.937,0,1.875-.047v.844q-.938-.047-1.875-.047h-5.391a13.183,13.183,0,0,1,1.078,1.219,3.481,3.481,0,0,0-.7.422h2.531q.281-.75.563-1.594a7.391,7.391,0,0,0,1.078.328,7.911,7.911,0,0,0-.75,1.266h2.625q-.047.563-.047,1.547V.094a.813.813,0,0,1-.516.8,5.6,5.6,0,0,1-1.406.375A2.069,2.069,0,0,0-15.084.234,2.638,2.638,0,0,0-13.912.141a.5.5,0,0,0,.234-.469V-5.437h-6.844V1.125h-.937q.047-1.219.047-1.734V-4.641q0-.469-.047-1.453h2.578a4.538,4.538,0,0,0-1.078-1.172,3.446,3.446,0,0,0,.7-.469h-1.078q-1.078,0-1.875.047v-.844q.8.047,1.828.047h2.906a2.645,2.645,0,0,0-.609-.984A7.49,7.49,0,0,0-17.194-9.8Zm-1.031,4.828a10.218,10.218,0,0,0,.891.563,5.566,5.566,0,0,0-1.359,1.266h3.563q-.047.609-.047,1.313t.047,1.406h-3.656q.047-.7.047-1.359,0-.7-.047-1.266-.328.281-.656.516a1.535,1.535,0,0,0-.7-.516A7.789,7.789,0,0,0-18.225-4.969Zm2.156,3.844V-2.437H-17.9v1.313Zm.047-3.891a17.725,17.725,0,0,1,2.109,1.547,2.207,2.207,0,0,0-.7.609,9.835,9.835,0,0,0-1.969-1.547A2.113,2.113,0,0,0-16.022-5.016ZM-2.512-9.141q-.047.844-.047,1.922,0,1.031.047,1.828H-8.934a16.291,16.291,0,0,0,.094-1.875,16.291,16.291,0,0,0-.094-1.875ZM-.731-4.312q-.047.844-.047,2.578,0,1.688.047,2.391h-.891V0H-4.294V.8h-.891q.047-.8.047-2.531t-.047-2.578ZM-7.2.75V0H-9.731V.8h-.891q.047-.8.047-2.531,0-1.781-.047-2.578h4.313A20.535,20.535,0,0,0-6.4-2.062q0,1.406.094,2.813Zm3.8-6.937V-8.344H-8v2.156ZM-1.622-.844V-3.469H-4.294V-.844Zm-5.578,0V-3.469H-9.731V-.844ZM5.7-9.094a5.824,5.824,0,0,0-.562,1.172H6.684q0-.937-.047-1.781H7.716a13.241,13.241,0,0,0-.094,1.781q1.641-.047,2.344-.047v.8q-.8-.047-2.344-.047v1.641H9.216q.7,0,1.406-.047v.844q-.7-.047-2.156-.047V-2.25q0,.469.516.469h.563q.328-.187.375-1.078a2.915,2.915,0,0,0,.984.375Q10.622-.891,9.919-.891H8.653q-1.078,0-1.078-.984V-4.828H6.638a5.1,5.1,0,0,1-.516,2.391A6.989,6.989,0,0,1,4.716-.609a2.229,2.229,0,0,0-.937-.516,4.792,4.792,0,0,0,1.57-1.664,4.65,4.65,0,0,0,.4-2.039q-1.406,0-2.109.047v-.891a10.752,10.752,0,0,0,1.313.094H6.684V-7.219H4.9a8.906,8.906,0,0,0-.375,1.078q-.516-.187-.937-.328A9.36,9.36,0,0,0,4.622-9.375Q5.091-9.234,5.7-9.094Zm-2.859,3.7q-.047.984-.047,1.781v2.531A6.566,6.566,0,0,0,6.684,0a21.7,21.7,0,0,0,4.5-.234A2.717,2.717,0,0,0,10.716.844Q7.809.891,6.52.8A10.766,10.766,0,0,1,4.341.445,5.515,5.515,0,0,1,2.934-.141a.634.634,0,0,0-.891.07Q1.669.328,1.2.938A2.446,2.446,0,0,0,.356.328,10.646,10.646,0,0,1,1.9-.984V-4.641q-.7,0-1.5.047v-.844Q1.294-5.391,2.841-5.391Zm-.7-3.7q.609,1.406.844,2.109-.422.141-.844.328A21.947,21.947,0,0,0,1.2-8.766Q1.622-8.906,2.138-9.094Zm13.978-.375q.656,0,1.594.047h4.031a16.923,16.923,0,0,1-.914,1.641,8.751,8.751,0,0,1-1.289,1.453,3.985,3.985,0,0,0,1.289.516,15.732,15.732,0,0,0,1.8.234,2.143,2.143,0,0,0-.562.984,13.1,13.1,0,0,1-1.875-.492,5.731,5.731,0,0,1-1.359-.727,10.631,10.631,0,0,1-1.312.68,14.294,14.294,0,0,1-1.594.539,1.606,1.606,0,0,0-.656-.8,13.7,13.7,0,0,0,1.5-.328,4.946,4.946,0,0,0,1.313-.609,5.743,5.743,0,0,1-1.406-2.344h-.562ZM15.084-5.3q0,.422.047.891a9.324,9.324,0,0,0-.984.422V-.328q-.094.8-.516.961a6.943,6.943,0,0,1-1.359.3,7.337,7.337,0,0,0-.234-1.266q1.125.094,1.172-.141V-3.609a10.949,10.949,0,0,0-1.266.7,6.615,6.615,0,0,0-.469-1.078A17.683,17.683,0,0,0,13.209-4.5V-6.75q-.844,0-1.453.047v-.891q.563.047,1.453.047,0-1.031-.047-2.25h1.031q-.047,1.125-.047,2.25.516,0,1.359-.047V-6.7q-.75-.047-1.359-.047v1.875Q14.616-5.062,15.084-5.3Zm3.188,1.5a7.71,7.71,0,0,0-.094-1.172h1.078q-.047.609-.047,1.172,1.172,0,2.25-.047V-3q-1.266-.047-2.25-.047v1.406q1.5,0,3.141-.047v.844q-1.312-.047-3.141-.047,0,1.641.047,2.156H18.178a15.262,15.262,0,0,0,.094-2.156q-2.578,0-3.281.047v-.844q.75.047,3.281.047V-3.047q-1.734,0-2.344.047v-.844Q16.725-3.8,18.272-3.8Zm-.75-4.875A3.8,3.8,0,0,0,18.834-6.8a5.431,5.431,0,0,0,.773-.727,5.854,5.854,0,0,0,.773-1.148ZM-19.584,12.766q1.125.844,2.109,1.688-.375.422-.7.844a8.156,8.156,0,0,0-1.641-1.641,17.59,17.59,0,0,1-.82,1.617,14.236,14.236,0,0,1-1.148,1.711,2.326,2.326,0,0,0-.937-.7,4.448,4.448,0,0,0,1.1-1.125,7.906,7.906,0,0,0,.844-1.57,5.5,5.5,0,0,0,.4-1.8H-20.8q-.7,0-1.547.047v-.844q.844.047,1.594.047h.422V9.016q-.937,0-1.547.047V8.219q.656.047,1.547.047,0-1.594-.047-2.2.516.047,1.125.141a1.824,1.824,0,0,0-.211.914q-.023.633-.023,1.148,1.031,0,1.453-.047v.844q-.562-.047-1.453-.047v2.016q1.266,0,1.688-.047v.844q-.422-.047-1.734-.047Q-19.537,12.156-19.584,12.766Zm5.25-3.7a11.628,11.628,0,0,0-.234,1.734q-.094,1.172-.234,2.063h.8q-.047.469-.047,1.266v1.313q0,.609.3.7a1.717,1.717,0,0,0,.633.07.493.493,0,0,0,.445-.258,5.37,5.37,0,0,0,.258-1.219,2.7,2.7,0,0,0,.938.516,4.5,4.5,0,0,1-.633,1.523,1.2,1.2,0,0,1-.867.258h-.891q-1.031,0-1.031-1.078V13.094a5.77,5.77,0,0,1-.492,1.266,5.551,5.551,0,0,1-1.031,1.266,11.126,11.126,0,0,1-2.227,1.547,2.638,2.638,0,0,0-.8-.75,7.947,7.947,0,0,0,2.32-1.406A4.936,4.936,0,0,0-15.9,13.422a6.271,6.271,0,0,0,.445-2.039q.094-1.242.094-2.508A9.28,9.28,0,0,0-14.334,9.063Zm1.922-2.2q-.047.75-.047,3t.047,3.188H-13.3V7.656h-3.328v5.438h-.844q.047-1.078.047-3.234t-.047-3Zm8.353,0a8.756,8.756,0,0,0-.609.984h3.516a10.124,10.124,0,0,1-.773,1.711,9.462,9.462,0,0,1-1.055,1.477,6.434,6.434,0,0,0,1.43.68,6.132,6.132,0,0,0,1.383.352A2.7,2.7,0,0,0-.684,13q-.609-.234-1.406-.586A7.88,7.88,0,0,1-3.637,11.5a9.187,9.187,0,0,1-1.43.867,17.159,17.159,0,0,1-1.8.727,1.958,1.958,0,0,0-.516-.7,9.783,9.783,0,0,0,1.8-.609,6.151,6.151,0,0,0,1.336-.8A9.017,9.017,0,0,1-5.466,9.3q-.281.422-.844,1.172A3.043,3.043,0,0,0-7.059,10a7.175,7.175,0,0,0,1.2-1.641,10,10,0,0,0,.82-1.922A3.125,3.125,0,0,0-4.059,6.859Zm2.813,6.047q-.047.563-.047,2.016t.047,2.156h-.984v-.75H-5.137v.8h-.984q.047-.75.047-2.156,0-1.453-.047-2.062ZM-8.231,6.438q-.047.609-.047,1.172V8.828q.891,0,1.313-.047v.844q-.422-.047-1.312-.047v1.313a4.345,4.345,0,0,0,.563-.422,15.02,15.02,0,0,1,.8,1.406q-.375.234-.7.469-.375-.8-.656-1.266v4.406q0,1.031.047,1.688h-.937q.047-.656.047-1.687V11.453a31.692,31.692,0,0,1-1.406,2.953,2.535,2.535,0,0,0-.7-.562,14.939,14.939,0,0,0,1.219-2.3,12.039,12.039,0,0,0,.656-1.969q-.656,0-1.453.047V8.781q.844.047,1.688.047V7.609q0-.516-.047-1.172Zm6,9.188V13.609H-5.137v2.016Zm-1.406-5.109A6.49,6.49,0,0,0-2.372,8.547H-5.044A6.6,6.6,0,0,0-3.637,10.516ZM9.028,16.375a2.548,2.548,0,0,0,.727-.141q.211-.094.211-.469V14.172H8.372V16.75h-.8V14.172H6.263a4.786,4.786,0,0,1-.328,1.383,5.811,5.811,0,0,1-.984,1.57,1.158,1.158,0,0,0-.891-.516,3.693,3.693,0,0,0,.914-1.1,3.989,3.989,0,0,0,.4-1.383q.094-.8.117-2.227t-.023-2.32h2.2q.422-.75.75-1.5H6.5q-.562.656-1.453,1.828a2.327,2.327,0,0,0-.8-.469A13.187,13.187,0,0,0,5.653,7.7,7.455,7.455,0,0,0,6.5,6.063a6.28,6.28,0,0,0,1.078.375,3.1,3.1,0,0,0-.7.984H9.731q-.844,1.5-1.125,2.156h2.25q-.047.844-.047,1.828v4.688a.767.767,0,0,1-.281.773,3.88,3.88,0,0,1-1.125.4A1.716,1.716,0,0,0,9.028,16.375ZM.075,12.3A6.528,6.528,0,0,0,1.294,10.68a8.338,8.338,0,0,0,.844-2.6q-.891,0-1.453.047V7.281q.656.047,1.266.047H3.263q.8,0,1.359-.047v.844q-.562-.047-1.547-.047a13.9,13.9,0,0,1-.75,2.438H4.434q-.047.8-.047,1.5v1.969q0,.8.047,1.781H3.591v-.891H2.231v1.688H1.388q.047-.984.047-1.687V12.063q-.234.375-.562.891A2.427,2.427,0,0,0,.075,12.3Zm3.516,1.875v-3H2.231v3Zm6.375-2.578V10.234H8.372v1.359Zm0,1.922V12.25H8.372v1.266ZM7.575,11.594V10.234H6.263v1.359Zm0,1.922V12.25H6.263v1.266Zm11.4-3.375q.891,0,1.828-.047v.891q-.844-.047-2.016-.047H17.756v1.875h1.969q.516,0,1.453-.047v.891q-.937-.047-1.5-.047H17.756v2.2a21.549,21.549,0,0,0,4.688-.047,3.329,3.329,0,0,0-.469,1.125q-1.875,0-3.094-.047a9.129,9.129,0,0,1-2.062-.281,4.737,4.737,0,0,1-1.5-.7A6.854,6.854,0,0,1,14.1,14.734a10.374,10.374,0,0,1-1.734,2.344,2.554,2.554,0,0,0-.937-.609,6.237,6.237,0,0,0,1.922-2.437,7.139,7.139,0,0,0,.656-2.156,3.669,3.669,0,0,0,1.125.422,2.8,2.8,0,0,0-.3.586q-.164.4-.4,1.008a6.442,6.442,0,0,0,.984.961,4.163,4.163,0,0,0,1.406.773V10.938h-1.5q-.8,0-1.594.047v-.891q.8.047,1.875.047Zm2.906-2.156q-.047.656-.047.984t.047.891H20.9V8.734H13.4V9.859h-.984a6.853,6.853,0,0,0,.047-.844q0-.469-.047-1.031ZM16.069,6.531a2.856,2.856,0,0,0,.844-.469,7.862,7.862,0,0,1,.938,1.406,6.35,6.35,0,0,0-.937.469A4.651,4.651,0,0,0,16.069,6.531Z" transform="translate(-1153 -5615)" fill="#4e443b"/>
    <path data-idr="Path_3417" data-name="Path 3417" d="M-4.211-3.819a7.336,7.336,0,0,0,.22,2.054.887.887,0,0,0,.9.712.874.874,0,0,0,.894-.712,7.6,7.6,0,0,0,.212-2.054A7.517,7.517,0,0,0-2.194-5.9a.867.867,0,0,0-.894-.677.879.879,0,0,0-.9.677A7.254,7.254,0,0,0-4.211-3.819Zm1.123-4.023A2.2,2.2,0,0,1-1-6.794,6.061,6.061,0,0,1-.4-3.819,6.028,6.028,0,0,1-1-.849,2.2,2.2,0,0,1-3.088.193,2.2,2.2,0,0,1-5.175-.849a6.028,6.028,0,0,1-.6-2.97,6.061,6.061,0,0,1,.6-2.976A2.2,2.2,0,0,1-3.088-7.842ZM1.794-2.39a1.754,1.754,0,0,0,.15.773,1.028,1.028,0,0,0,1.013.564,1.121,1.121,0,0,0,.785-.309,1.149,1.149,0,0,0,.335-.889,1,1,0,0,0-.621-1.026,3.144,3.144,0,0,0-1.114-.145v-1.1A2.879,2.879,0,0,0,3.38-4.662a.9.9,0,0,0,.508-.913,1.022,1.022,0,0,0-.26-.725A.949.949,0,0,0,2.9-6.58a.924.924,0,0,0-.8.344,1.461,1.461,0,0,0-.244.918H.43a3.847,3.847,0,0,1,.2-1.1,2.479,2.479,0,0,1,.59-.843,2.056,2.056,0,0,1,.714-.419,3.085,3.085,0,0,1,1.014-.145,2.7,2.7,0,0,1,1.8.577A1.924,1.924,0,0,1,5.43-5.7a1.713,1.713,0,0,1-.408,1.16,1.394,1.394,0,0,1-.537.4,1.1,1.1,0,0,1,.6.36,1.922,1.922,0,0,1,.585,1.482A2.5,2.5,0,0,1,4.988-.556,2.606,2.606,0,0,1,2.962.193a2.45,2.45,0,0,1-2.3-1.08A3.207,3.207,0,0,1,.29-2.39Z" transform="translate(-1153 -5669.623)" fill="#4e443b"/>
    <path data-idr="Path_3423" data-name="Path 3423" d="M-14.944-7.547q.469-1.031.938-2.25a7.3,7.3,0,0,1,.984.422,8.23,8.23,0,0,0-.984,1.828h.188q1.312-.047,1.875-.047v.844Q-12.459-6.8-13.4-6.8h-1.172v1.828h.75q1.078-.047,1.594-.047v.844q-.609-.047-1.453-.047h-.891V-2.3h1.453q.891-.047,1.453-.047V-1.5q-.516-.047-1.453-.047h-1.453V-.516q0,.984.047,1.641h-.937V-1.547h-1.125q-.891,0-1.734.047v-.891q.844.047,1.781.094h1.078V-4.219h-.8q-.8,0-1.406.047v-.891q.563.047,1.453.094h.75V-6.8h-1.125q-.8,0-1.359.047v-.891q.563.047,1.359.094Zm-5.672-.609q0-.8-.047-1.453h.984q-.047.75-.047,1.453v1.125q.609,0,1.266-.047v.844q-.656-.047-1.266-.047v1.734q.375-.328.563-.469.516.656,1.172,1.688a4.875,4.875,0,0,0-.8.563q-.516-.937-.937-1.641V-.891q0,.984.047,1.969h-.984q.047-1.031.047-1.969V-4.219a15.853,15.853,0,0,1-1.5,2.859,3.307,3.307,0,0,0-.562-.844A10.8,10.8,0,0,0-20.8-6.281q-.75,0-1.641.047v-.844q.891.047,1.828.047ZM-16.4-9.75a11.805,11.805,0,0,1,.7,1.594,4.4,4.4,0,0,0-.8.328q-.328-.8-.7-1.547Q-16.678-9.609-16.4-9.75Zm13.884.609q-.047.844-.047,1.922,0,1.031.047,1.828H-8.934a16.291,16.291,0,0,0,.094-1.875,16.291,16.291,0,0,0-.094-1.875ZM-.731-4.312q-.047.844-.047,2.578,0,1.688.047,2.391h-.891V0H-4.294V.8h-.891q.047-.8.047-2.531t-.047-2.578ZM-7.2.75V0H-9.731V.8h-.891q.047-.8.047-2.531,0-1.781-.047-2.578h4.313A20.535,20.535,0,0,0-6.4-2.062q0,1.406.094,2.813Zm3.8-6.937V-8.344H-8v2.156ZM-1.622-.844V-3.469H-4.294V-.844Zm-5.578,0V-3.469H-9.731V-.844ZM2.184-8.672a8.278,8.278,0,0,0-.469.891H3.075q0-1.172-.047-1.828H4.106Q4.059-9,4.059-7.781h.7q.937,0,1.688-.047v.844q-.656-.047-1.641-.047h-.75v1.359H5.231q.7,0,1.5-.047v.8H4.059v1.266H6.591q-.047.563-.07,1.547T6.473-.773a.588.588,0,0,1-.4.516A5.522,5.522,0,0,1,5,.047a5.261,5.261,0,0,0-.328-1.078,2.279,2.279,0,0,0,.75-.07q.141-.07.141-.727V-2.906h-1.5V-.328q0,.8.047,1.359H3.028q.047-.891.047-1.359V-2.906H1.622V.047H.638Q.684-.562.684-1.219V-2.25q0-.891-.047-1.406H3.075V-4.922h-1.5q-.844,0-1.453.047v-.844q.609.047,1.453.047h1.5V-7.031H1.434a6.52,6.52,0,0,1-.469.938,5.691,5.691,0,0,0-.844-.469A5,5,0,0,0,.684-7.641,11.707,11.707,0,0,0,1.106-9,7.392,7.392,0,0,0,2.184-8.672Zm8.531-.844q-.047.469-.047,1.359V-.047a.758.758,0,0,1-.492.82,9.046,9.046,0,0,1-1.43.3A4.842,4.842,0,0,0,8.372,0,7.945,7.945,0,0,0,9.45-.047q.281-.047.281-.609v-7.5q0-.8-.047-1.359ZM8.466-8.109q-.047.656-.047,1.172v3.891q0,.656.047,1.594H7.434a13.629,13.629,0,0,0,.094-1.594V-6.937a9.156,9.156,0,0,0-.094-1.172ZM18.741-9.469a4.67,4.67,0,0,0-1.031,1.781H20.8q1.031,0,1.641-.047v.844q-.609-.047-1.641-.047H18.647v1.828h1.922q.8,0,1.313-.047v.891q-.609-.047-1.312-.047H18.647V-2.2h2.016q.938,0,1.547-.047v.891q-.609-.047-1.5-.047H18.647v.891q0,1.313.047,1.781h-.984q.047-.516.047-1.406v-6.8h-.469a22.7,22.7,0,0,1-1.359,2.109,3.008,3.008,0,0,0-.891-.609A9.115,9.115,0,0,0,16.4-7.312a12.31,12.31,0,0,0,1.125-2.625A7.862,7.862,0,0,0,18.741-9.469Zm-3.281.188a5.584,5.584,0,0,0-1.078,2.016v6q0,1.5.047,2.391H13.35Q13.4.281,13.4-1.219V-5.625A16.621,16.621,0,0,1,12.131-3.8a3.839,3.839,0,0,0-.656-.8,12.394,12.394,0,0,0,1.477-2.18,13.029,13.029,0,0,0,1.289-3.117A7.375,7.375,0,0,0,15.459-9.281Z" transform="translate(-1065 -5607)" fill="#4e443b"/>
    <path data-idr="Path_3418" data-name="Path 3418" d="M-4.211-3.819a7.336,7.336,0,0,0,.22,2.054.887.887,0,0,0,.9.712.874.874,0,0,0,.894-.712,7.6,7.6,0,0,0,.212-2.054A7.517,7.517,0,0,0-2.194-5.9a.867.867,0,0,0-.894-.677.879.879,0,0,0-.9.677A7.254,7.254,0,0,0-4.211-3.819Zm1.123-4.023A2.2,2.2,0,0,1-1-6.794,6.061,6.061,0,0,1-.4-3.819,6.028,6.028,0,0,1-1-.849,2.2,2.2,0,0,1-3.088.193,2.2,2.2,0,0,1-5.175-.849a6.028,6.028,0,0,1-.6-2.97,6.061,6.061,0,0,1,.6-2.976A2.2,2.2,0,0,1-3.088-7.842ZM5.752-1.676H4.872V0h-1.5V-1.676H.29V-3.013L3.153-7.74H4.872v4.866h.881Zm-2.379-1.2V-6.228L1.429-2.874Z" transform="translate(-1065 -5669.623)" fill="#4e443b"/>
    <path data-idr="Path_3422" data-name="Path 3422" d="M-3.45-7.687q0-.937-.047-2.062h.984q-.047.563-.047,2.063.984,0,1.922-.047v.891q-.938-.047-1.922-.047v2.063q1.125,0,2.156-.047v.891q-1.031-.047-2.156-.047v1.922q0,.8.047,1.641H-3.5q0-.844.047-1.641V-4.031H-5.231A8.154,8.154,0,0,1-5.77-1.969,6.25,6.25,0,0,1-6.825-.375a6.491,6.491,0,0,0-.891-.609A4.377,4.377,0,0,0-6.544-2.461a6.943,6.943,0,0,0,.422-1.57Q-7.2-4.031-8-3.984v-.891q.844.047,1.969.047.094-1.078.094-2.062A17.457,17.457,0,0,0-7.762-6.8v-.937q.891.047,1.875.047,0-1.078-.047-2.062.469.047.984.094Q-5-9.047-5.044-7.687ZM-8.7-5.859q-.094,1.031-.094,1.734v2.953A6.213,6.213,0,0,0-5.887-.07,22.023,22.023,0,0,0-2.864.047,21.131,21.131,0,0,0-.216-.187,3.782,3.782,0,0,0-.5.984q-2.25,0-3.68-.047A12.254,12.254,0,0,1-6.8.586a7.433,7.433,0,0,1-1.8-.656.875.875,0,0,0-1.055,0,8.393,8.393,0,0,0-.961.914,3.19,3.19,0,0,0-.7-.75Q-10.2-.75-9.684-1.078V-5.062A11.652,11.652,0,0,0-11-4.969v-.937q.938.047,1.406.047Zm5.25,1.031V-6.891H-5.044q-.047.984-.141,2.063Zm-6-4.641a16.622,16.622,0,0,1,.938,2.109,2.466,2.466,0,0,0-.937.375,6.151,6.151,0,0,0-.938-2.109ZM9.637-5.812q.891,0,1.641-.047v.938q-.75-.047-1.594-.047H9.028V.141a.721.721,0,0,1-.352.773,5.2,5.2,0,0,1-1.57.352A2.6,2.6,0,0,0,6.591.141a6.933,6.933,0,0,0,1.125.07q.328-.023.375-.492V-4.969H6.216q-.891,0-1.687.047v-.937q.844.047,1.688.047ZM4.012-6.375a1.588,1.588,0,0,0-.633.609q-.211.375-.586.938V-.609q0,.609.047,1.875H1.856Q1.9-.141,1.9-.844v-3A7.394,7.394,0,0,1,.778-2.437q-.328-.469-.609-.8A11.377,11.377,0,0,0,1.856-5.2q.609-.937,1.078-1.781Q3.4-6.7,4.012-6.375ZM8.841-9q.8,0,1.641-.047v.891Q9.637-8.2,8.747-8.2H7.012q-1.031,0-1.781.047v-.891Q5.981-9,7.012-9Zm-5.25-.234q-.375.047-.984,1.008A15.543,15.543,0,0,1,.919-6.094a6.555,6.555,0,0,0-.609-.7A12.214,12.214,0,0,0,1.669-8.414a8.743,8.743,0,0,0,.891-1.523A12.25,12.25,0,0,1,3.591-9.234ZM-19.584,7.281a2.755,2.755,0,0,0-.469.82q-.187.492-.375.961h2.813V7.422q0-.609-.047-1.172h1.078q-.047.516-.047,1.172V9.063h2.063q.75,0,1.688-.047v.938q-.891-.047-1.687-.047h-2.062v2.109h1.453q.656,0,1.594-.047v.938q-.891-.047-1.594-.047h-1.453v2.813h2.813q.75,0,1.734-.047v.891q-.938-.047-1.734-.047h-6.75q-.8,0-1.641.047v-.891q.891.047,1.641.047h2.953V12.859H-19.35q-.656,0-1.359.047v-.937q.7.047,1.359.047h1.734V9.906h-3.141a14.1,14.1,0,0,1-.844,1.688,4.276,4.276,0,0,0-1.125-.328,7.477,7.477,0,0,0,1.1-1.8,10.047,10.047,0,0,0,.82-2.648ZM-2.231,9.063a5.73,5.73,0,0,0-.539.82q-.3.539-.539,1.008h1.453a11.522,11.522,0,0,0,1.312-.047v.938a11.057,11.057,0,0,0-1.219-.047H-8.841q0,3.7-1.781,5.438a1.88,1.88,0,0,0-.7-.7,5.24,5.24,0,0,0,1.406-2.836,13.756,13.756,0,0,0,.094-2.742h5.531A13.076,13.076,0,0,0-3.4,8.547Q-2.794,8.828-2.231,9.063ZM-5.137,6.109q.094.328.375,1.5h2.344q.844,0,1.594-.047v.891q-.75-.047-1.453-.047H-7.95q-.7,0-1.781.047V7.563q1.125.047,1.453.047h2.438a11.379,11.379,0,0,0-.375-1.266Q-5.653,6.2-5.137,6.109ZM-7.247,8.594a12.747,12.747,0,0,1,1.078,1.734,9.211,9.211,0,0,0-.984.469,7.27,7.27,0,0,0-.984-1.687Q-7.669,8.828-7.247,8.594ZM2.184,7.328a8.278,8.278,0,0,0-.469.891H3.075q0-1.172-.047-1.828H4.106Q4.059,7,4.059,8.219h.7q.937,0,1.688-.047v.844q-.656-.047-1.641-.047h-.75v1.359H5.231q.7,0,1.5-.047v.8H4.059v1.266H6.591q-.047.563-.07,1.547t-.047,1.336a.588.588,0,0,1-.4.516,5.522,5.522,0,0,1-1.078.3,5.261,5.261,0,0,0-.328-1.078,2.279,2.279,0,0,0,.75-.07q.141-.07.141-.727V13.094h-1.5v2.578q0,.8.047,1.359H3.028q.047-.891.047-1.359V13.094H1.622v2.953H.638q.047-.609.047-1.266V13.75q0-.891-.047-1.406H3.075V11.078h-1.5q-.844,0-1.453.047v-.844q.609.047,1.453.047h1.5V8.969H1.434a6.52,6.52,0,0,1-.469.938,5.691,5.691,0,0,0-.844-.469A5,5,0,0,0,.684,8.359,11.707,11.707,0,0,0,1.106,7,7.392,7.392,0,0,0,2.184,7.328Zm8.531-.844q-.047.469-.047,1.359v8.109a.758.758,0,0,1-.492.82,9.046,9.046,0,0,1-1.43.3A4.842,4.842,0,0,0,8.372,16a7.945,7.945,0,0,0,1.078-.047q.281-.047.281-.609v-7.5q0-.8-.047-1.359ZM8.466,7.891q-.047.656-.047,1.172v3.891q0,.656.047,1.594H7.434a13.629,13.629,0,0,0,.094-1.594V9.063a9.156,9.156,0,0,0-.094-1.172ZM22.022,6.672q-.047,1.031-.047,1.875,0,.8.047,1.594h-5.25q.047-.891.047-1.687t-.047-1.781ZM11.85,6.953q.8-.094,1.8-.3a7.9,7.9,0,0,0,1.711-.539,7.4,7.4,0,0,0,.656,1.031,2,2,0,0,0-.68.023q-.352.07-.773.117v2.3q.656,0,1.406-.047v.891q-.75-.047-1.406-.047V14.5q0,1.031.047,2.766h-.937q.047-1.734.047-2.719V12.391a21.551,21.551,0,0,1-1.453,2.484,4.831,4.831,0,0,0-.75-.844,8.034,8.034,0,0,0,1.172-1.5,10.094,10.094,0,0,0,.938-2.156q-1.172,0-1.734.047V9.531q.8.047,1.172.047h.656V7.469q-.609.141-1.547.281A6.075,6.075,0,0,0,11.85,6.953Zm8.813,4.359q.75,0,1.594-.047v.844q-.844-.047-1.594-.047h-.891v1.5h.516q.7,0,1.641-.047v.891q-.937-.047-1.5-.047h-.656V16H20.9q.844,0,1.781-.047v.891q-.75-.047-1.781-.047H17.756a14.6,14.6,0,0,0-1.781.094v-.937q.75.047,1.781.047h1.125V14.359h-.656a9.957,9.957,0,0,0-1.406.094v-.937q.656.047,1.406.047h.656v-1.5h-.75q-.844,0-1.594.047v-.844q.75.047,1.594.047ZM20.991,9.3V7.469H17.662V9.3Zm-5.578,2.2q.469.7.984,1.641-.281.188-.75.563a10.181,10.181,0,0,0-.937-1.687A8.331,8.331,0,0,1,15.412,11.5Z" transform="translate(-992 -5615)" fill="#4e443b"/>
    <path data-idr="Path_3419" data-name="Path 3419" d="M-4.211-3.819a7.336,7.336,0,0,0,.22,2.054.887.887,0,0,0,.9.712.874.874,0,0,0,.894-.712,7.6,7.6,0,0,0,.212-2.054A7.517,7.517,0,0,0-2.194-5.9a.867.867,0,0,0-.894-.677.879.879,0,0,0-.9.677A7.254,7.254,0,0,0-4.211-3.819Zm1.123-4.023A2.2,2.2,0,0,1-1-6.794,6.061,6.061,0,0,1-.4-3.819,6.028,6.028,0,0,1-1-.849,2.2,2.2,0,0,1-3.088.193,2.2,2.2,0,0,1-5.175-.849a6.028,6.028,0,0,1-.6-2.97,6.061,6.061,0,0,1,.6-2.976A2.2,2.2,0,0,1-3.088-7.842Zm4.9,5.758a1.479,1.479,0,0,0,.348.771.985.985,0,0,0,.75.271,1.011,1.011,0,0,0,.865-.4,1.642,1.642,0,0,0,.3-1.007A1.753,1.753,0,0,0,3.8-3.456a.975.975,0,0,0-.868-.411,1.49,1.49,0,0,0-.482.07.959.959,0,0,0-.541.478L.534-3.384l.547-4.3H5.366v1.3H2.185l-.279,1.7a3.194,3.194,0,0,1,.552-.306,2.336,2.336,0,0,1,.81-.124,2.431,2.431,0,0,1,1.684.65,2.419,2.419,0,0,1,.719,1.891A2.968,2.968,0,0,1,4.98-.645,2.516,2.516,0,0,1,2.909.2a2.749,2.749,0,0,1-1.824-.6A2.317,2.317,0,0,1,.29-2.084Z" transform="translate(-992 -5669.623)" fill="#4e443b"/>
    <path data-idr="Path_3421" data-name="Path 3421" d="M-17.194-9.8a8.443,8.443,0,0,1,.75,1.313h2.672q.937,0,1.875-.047v.844q-.938-.047-1.875-.047h-5.391a13.183,13.183,0,0,1,1.078,1.219,3.481,3.481,0,0,0-.7.422h2.531q.281-.75.563-1.594a7.391,7.391,0,0,0,1.078.328,7.911,7.911,0,0,0-.75,1.266h2.625q-.047.563-.047,1.547V.094a.813.813,0,0,1-.516.8,5.6,5.6,0,0,1-1.406.375A2.069,2.069,0,0,0-15.084.234,2.638,2.638,0,0,0-13.912.141a.5.5,0,0,0,.234-.469V-5.437h-6.844V1.125h-.937q.047-1.219.047-1.734V-4.641q0-.469-.047-1.453h2.578a4.538,4.538,0,0,0-1.078-1.172,3.446,3.446,0,0,0,.7-.469h-1.078q-1.078,0-1.875.047v-.844q.8.047,1.828.047h2.906a2.645,2.645,0,0,0-.609-.984A7.49,7.49,0,0,0-17.194-9.8Zm-1.031,4.828a10.218,10.218,0,0,0,.891.563,5.566,5.566,0,0,0-1.359,1.266h3.563q-.047.609-.047,1.313t.047,1.406h-3.656q.047-.7.047-1.359,0-.7-.047-1.266-.328.281-.656.516a1.535,1.535,0,0,0-.7-.516A7.789,7.789,0,0,0-18.225-4.969Zm2.156,3.844V-2.437H-17.9v1.313Zm.047-3.891a17.725,17.725,0,0,1,2.109,1.547,2.207,2.207,0,0,0-.7.609,9.835,9.835,0,0,0-1.969-1.547A2.113,2.113,0,0,0-16.022-5.016ZM-2.512-9.141q-.047.844-.047,1.922,0,1.031.047,1.828H-8.934a16.291,16.291,0,0,0,.094-1.875,16.291,16.291,0,0,0-.094-1.875ZM-.731-4.312q-.047.844-.047,2.578,0,1.688.047,2.391h-.891V0H-4.294V.8h-.891q.047-.8.047-2.531t-.047-2.578ZM-7.2.75V0H-9.731V.8h-.891q.047-.8.047-2.531,0-1.781-.047-2.578h4.313A20.535,20.535,0,0,0-6.4-2.062q0,1.406.094,2.813Zm3.8-6.937V-8.344H-8v2.156ZM-1.622-.844V-3.469H-4.294V-.844Zm-5.578,0V-3.469H-9.731V-.844ZM4.059-4.875A9.163,9.163,0,0,0,5.7-2.156,8.471,8.471,0,0,0,7.622-5.109a9.883,9.883,0,0,0,.938.609,20.708,20.708,0,0,1-2.2,2.953,8.861,8.861,0,0,0,4.594,1.5,3.248,3.248,0,0,0-.562,1.078A10.507,10.507,0,0,1,5.606-.984,12.345,12.345,0,0,1,.919,1.125,2.673,2.673,0,0,0,.4.094,8.41,8.41,0,0,0,4.9-1.594,10.837,10.837,0,0,1,3.169-4.406,4.6,4.6,0,0,0,4.059-4.875ZM2.044-6.984q-.7,0-1.359.047v-.937L2-7.781H9.309l1.547-.094v.984L9.309-6.984Zm2.391.8q-.656.609-2.812,2.438A2.926,2.926,0,0,0,.731-4.5,7.008,7.008,0,0,0,2.348-5.672a9.876,9.876,0,0,0,1.1-1.219Q3.919-6.562,4.434-6.187Zm3.375-.7q.234.188,1.078.82t1.641,1.2a5.559,5.559,0,0,0-.891.8A14.883,14.883,0,0,0,7.013-6.187,8.543,8.543,0,0,1,7.809-6.891ZM5.794-9.937q.469,1.078.7,1.734-.656.188-1.125.328-.281-.8-.7-1.734Q5.231-9.8,5.794-9.937Zm12.759.422q-.047.609-.047,1.828.234-.141,1.078-.516a7.086,7.086,0,0,0,1.594-.984q.328.516.609.938a8.169,8.169,0,0,0-1.336.539q-.82.4-1.945.867v.8q0,.375.656.375h1.547q.563,0,.68-.234a2.7,2.7,0,0,0,.164-.891,3.776,3.776,0,0,0,1.031.469,2.654,2.654,0,0,1-.562,1.172.994.994,0,0,1-.656.234H18.6q-1.078,0-1.078-.937v-.75q-.984.375-1.594.563-.281-.516-.422-.8.75-.187,2.016-.516,0-1.547-.047-2.156Zm2.3,5.391q-.047.7-.047,1.453,0,.7.047,1.547H19.772v-2.2H14.756v2.156H13.725q.047-.75.047-1.453,0-.75-.047-1.5ZM16.022-9.094a9.606,9.606,0,0,0-1.078,1.031q0,2.625.047,3.469H13.912q.047-.844.047-2.578-.422.375-.8.75t-.75.7q-.422-.375-.7-.656a9.1,9.1,0,0,0,1.875-1.57A10.529,10.529,0,0,0,14.944-9.7,2.517,2.517,0,0,0,16.022-9.094Zm1.734,6.609q-.234.656-.445,1.2a2.908,2.908,0,0,1-.727,1.031,4.523,4.523,0,0,1-1.453.867,13.234,13.234,0,0,1-2.531.656A2.934,2.934,0,0,0,11.991.188a13.468,13.468,0,0,0,2.25-.234,3.448,3.448,0,0,0,1.383-.562,2.214,2.214,0,0,0,.7-.844,5.535,5.535,0,0,0,.352-1.172Q17.194-2.531,17.756-2.484Zm3.8,3.75A15.325,15.325,0,0,0,19.819.352q-.891-.4-2.016-.82a8.278,8.278,0,0,0,.469-.891q.984.422,1.828.8t2.016.891A4.661,4.661,0,0,0,21.553,1.266Z" transform="translate(-924 -5607)" fill="#4e443b"/>
    <path data-idr="Path_3420" data-name="Path 3420" d="M-4.211-3.819a7.336,7.336,0,0,0,.22,2.054.887.887,0,0,0,.9.712.874.874,0,0,0,.894-.712,7.6,7.6,0,0,0,.212-2.054A7.517,7.517,0,0,0-2.194-5.9a.867.867,0,0,0-.894-.677.879.879,0,0,0-.9.677A7.254,7.254,0,0,0-4.211-3.819Zm1.123-4.023A2.2,2.2,0,0,1-1-6.794,6.061,6.061,0,0,1-.4-3.819,6.028,6.028,0,0,1-1-.849,2.2,2.2,0,0,1-3.088.193,2.2,2.2,0,0,1-5.175-.849a6.028,6.028,0,0,1-.6-2.97,6.061,6.061,0,0,1,.6-2.976A2.2,2.2,0,0,1-3.088-7.842ZM1.88-2.465a1.527,1.527,0,0,0,.338,1.026,1.079,1.079,0,0,0,.859.4.954.954,0,0,0,.8-.384,1.6,1.6,0,0,0,.293-1A1.491,1.491,0,0,0,3.84-3.467a1.066,1.066,0,0,0-.816-.363,1.09,1.09,0,0,0-.693.236A1.338,1.338,0,0,0,1.88-2.465ZM4.034-5.828a.781.781,0,0,0-.145-.414.841.841,0,0,0-.747-.365,1.1,1.1,0,0,0-1.063.838A5.2,5.2,0,0,0,1.842-4.4,1.718,1.718,0,0,1,2.5-4.9a2.229,2.229,0,0,1,.859-.156,2.233,2.233,0,0,1,1.7.7,2.518,2.518,0,0,1,.663,1.8,3.037,3.037,0,0,1-.65,1.923A2.4,2.4,0,0,1,3.056.2a2.324,2.324,0,0,1-2.17-1.23A5.015,5.015,0,0,1,.344-3.507a11.284,11.284,0,0,1,.075-1.45A4.435,4.435,0,0,1,.94-6.612a2.666,2.666,0,0,1,.873-.908A2.354,2.354,0,0,1,3.1-7.863a2.557,2.557,0,0,1,1.729.556,2.114,2.114,0,0,1,.725,1.48Z" transform="translate(-924 -5669.623)" fill="#4e443b"/>
    <rect data-idr="Rectangle_131" data-name="Rectangle 131" width="151.963" height="20.292" transform="translate(-1365 -5590)" fill="#f6f4e8"/>
    <path data-idr="Path_3427" data-name="Path 3427" d="M-12.7-9.281a6.451,6.451,0,0,0-.375.8q-.187.469-.375,1.031h3.422q-.047.938-.047,1.875L-10.312-.75q0,1.5-.727,1.688a7.857,7.857,0,0,1-1.477.234A2.7,2.7,0,0,0-12.844.094,2.477,2.477,0,0,0-11.461.047q.258-.187.3-.937l.234-5.719h-2.906a11.522,11.522,0,0,1-1.219,2.156,2.856,2.856,0,0,0-.844-.469,7.071,7.071,0,0,0,1.148-1.8,15.279,15.279,0,0,0,1.055-2.93A2.915,2.915,0,0,0-12.7-9.281Zm-2.906,2.25a8.964,8.964,0,0,0-.8,1.055q-.562.82-1.922,2.93,1.219-.094,2.859-.281a2.406,2.406,0,0,0-.234.844,14.335,14.335,0,0,0-1.664.141,11.439,11.439,0,0,0-1.992.422,7.526,7.526,0,0,0-.469-1.031,2.187,2.187,0,0,0,1.055-.82,10.064,10.064,0,0,0,1.008-1.57,10.15,10.15,0,0,0-1.1.07,5.215,5.215,0,0,0-1.055.211A5.866,5.866,0,0,0-20.3-6a5.054,5.054,0,0,0,1.172-1.43,8.947,8.947,0,0,0,.938-2.133,5.179,5.179,0,0,0,.984.422,7.761,7.761,0,0,0-.8,1.2q-.469.82-1.172,1.945h1.828a9.369,9.369,0,0,0,.8-1.594Q-16.031-7.266-15.609-7.031ZM-20.25-.516q.609-.094,1.641-.234t3.141-.562a2.523,2.523,0,0,0-.141.8q-2.578.563-3.164.68a3.284,3.284,0,0,0-1.055.4A11.041,11.041,0,0,0-20.25-.516Zm6.516-4.312q.375.422,1.453,2.016a2.361,2.361,0,0,0-.75.563,13.424,13.424,0,0,0-1.359-2.016A5.25,5.25,0,0,0-13.734-4.828Zm5.3,4.359a1.868,1.868,0,0,1,.656-1.266A15.638,15.638,0,0,0-6.234-3.492,9.465,9.465,0,0,0-5.016-5.344,2.121,2.121,0,0,0-4.8-6.469a1.2,1.2,0,0,0-.445-.773A1.151,1.151,0,0,0-6.117-7.5a1.863,1.863,0,0,0-.937.375,2.025,2.025,0,0,0-.68.984l-.891-.141a3.512,3.512,0,0,1,.961-1.57,2.3,2.3,0,0,1,1.383-.539,2.981,2.981,0,0,1,.844.023,2.173,2.173,0,0,1,.773.328,1.907,1.907,0,0,1,.656.773A2.253,2.253,0,0,1-3.82-6.023a4.082,4.082,0,0,1-.727,1.734A33.608,33.608,0,0,1-7.078-1.125H-3.7v.844H-8.437ZM2.578-3.984H-2.766v-.75H2.578ZM3.469-2.3l.844-.141A2.277,2.277,0,0,0,4.922-1.43a1.4,1.4,0,0,0,1.055.375A1.265,1.265,0,0,0,6.984-1.57,1.6,1.6,0,0,0,7.313-2.7,1.315,1.315,0,0,0,6.82-3.68a3.033,3.033,0,0,0-1.43-.492v-.609A2.373,2.373,0,0,0,6.82-5.3a1.314,1.314,0,0,0,.4-1.1,1.133,1.133,0,0,0-.609-.984,1.389,1.389,0,0,0-1.2-.07A1.954,1.954,0,0,0,4.406-6.141l-.844-.141a4.052,4.052,0,0,1,.773-1.406,1.994,1.994,0,0,1,1.336-.656,2.668,2.668,0,0,1,1.477.211,1.741,1.741,0,0,1,.891.938,2.181,2.181,0,0,1,.07,1.383A2.245,2.245,0,0,1,7.031-4.5a2.151,2.151,0,0,1,1.008.844A2.2,2.2,0,0,1,8.273-2.18,2.174,2.174,0,0,1,7.453-.7a2.378,2.378,0,0,1-1.594.539A2.469,2.469,0,0,1,4.313-.727,2.533,2.533,0,0,1,3.469-2.3ZM17.391-9.187q.844,0,1.688-.047v.984Q18.234-8.3,17.391-8.3H15.469v2.531h3q.891,0,1.594-.047v.984q-.656-.047-1.547-.047H15.609a8.631,8.631,0,0,0,1.875,3.047A6.327,6.327,0,0,0,20.625-.094a2.261,2.261,0,0,0-.8.938A7.909,7.909,0,0,1,17.156-.773a9.013,9.013,0,0,1-2.109-3.164,6.7,6.7,0,0,1-1.781,3.07,10.524,10.524,0,0,1-3.047,1.945,2.088,2.088,0,0,0-.8-.891,8.2,8.2,0,0,0,2.859-1.57,6.394,6.394,0,0,0,2.109-3.492H11.813q-1.031,0-1.734.047v-.984q.75.047,1.734.047h2.719V-8.3H12.563q-.984,0-1.687.047v-.984q.75.047,1.688.047Z" transform="translate(-1289 -5576)" fill="#4e443b"/>
    <path data-idr="Path_3384" data-name="Path 3384" d="M0,0H176V20.292H0Z" transform="translate(-1211 -5590)" fill="#f6f4e8"/>
    <path data-idr="Path_3428" data-name="Path 3428" d="M-18.7-9.281a6.451,6.451,0,0,0-.375.8q-.187.469-.375,1.031h3.422q-.047.938-.047,1.875L-16.312-.75q0,1.5-.727,1.688a7.857,7.857,0,0,1-1.477.234A2.7,2.7,0,0,0-18.844.094,2.477,2.477,0,0,0-17.461.047q.258-.187.3-.937l.234-5.719h-2.906a11.522,11.522,0,0,1-1.219,2.156,2.856,2.856,0,0,0-.844-.469,7.071,7.071,0,0,0,1.148-1.8,15.279,15.279,0,0,0,1.055-2.93A2.915,2.915,0,0,0-18.7-9.281Zm-2.906,2.25a8.964,8.964,0,0,0-.8,1.055q-.562.82-1.922,2.93,1.219-.094,2.859-.281a2.406,2.406,0,0,0-.234.844,14.335,14.335,0,0,0-1.664.141,11.439,11.439,0,0,0-1.992.422,7.526,7.526,0,0,0-.469-1.031,2.187,2.187,0,0,0,1.055-.82,10.064,10.064,0,0,0,1.008-1.57,10.15,10.15,0,0,0-1.1.07,5.215,5.215,0,0,0-1.055.211A5.866,5.866,0,0,0-26.3-6a5.054,5.054,0,0,0,1.172-1.43,8.947,8.947,0,0,0,.938-2.133,5.179,5.179,0,0,0,.984.422,7.761,7.761,0,0,0-.8,1.2q-.469.82-1.172,1.945h1.828a9.369,9.369,0,0,0,.8-1.594Q-22.031-7.266-21.609-7.031ZM-26.25-.516q.609-.094,1.641-.234t3.141-.562a2.523,2.523,0,0,0-.141.8q-2.578.563-3.164.68a3.284,3.284,0,0,0-1.055.4A11.041,11.041,0,0,0-26.25-.516Zm6.516-4.312q.375.422,1.453,2.016a2.361,2.361,0,0,0-.75.563,13.424,13.424,0,0,0-1.359-2.016A5.25,5.25,0,0,0-19.734-4.828Zm7.359-1.922a8,8,0,0,1-1.547,1.172v-.891A7.328,7.328,0,0,0-12-8.344h.563V-.281h-.937Zm8.953,2.766H-8.766v-.75h5.344Zm.984,3.516a1.868,1.868,0,0,1,.656-1.266A15.638,15.638,0,0,0-.234-3.492,9.465,9.465,0,0,0,.984-5.344,2.121,2.121,0,0,0,1.2-6.469,1.2,1.2,0,0,0,.75-7.242,1.151,1.151,0,0,0-.117-7.5a1.863,1.863,0,0,0-.937.375,2.025,2.025,0,0,0-.68.984l-.891-.141a3.512,3.512,0,0,1,.961-1.57A2.3,2.3,0,0,1-.281-8.391a2.981,2.981,0,0,1,.844.023,2.173,2.173,0,0,1,.773.328,1.907,1.907,0,0,1,.656.773A2.253,2.253,0,0,1,2.18-6.023a4.082,4.082,0,0,1-.727,1.734A33.608,33.608,0,0,1-1.078-1.125H2.3v.844H-2.437ZM9.422-9.047A9.255,9.255,0,0,0,14.531-5.2a4.854,4.854,0,0,0-.7,1.078A10.983,10.983,0,0,1,8.906-8.3,12.081,12.081,0,0,1,4.266-3.984a3.338,3.338,0,0,0-.8-.891A9.091,9.091,0,0,0,6.961-7.266,8.871,8.871,0,0,0,8.625-9.891q.562.234,1.125.422Q9.563-9.234,9.422-9.047ZM8.484-4.406q0-.75-.094-1.922H9.469q-.047.8-.047,1.969v3.328q0,1.078.047,2.2H8.438Q8.484,0,8.484-.984ZM24.844-9.047q-.094,1.125-.094,2.016V-.375q0,.891-.469,1.078a7.12,7.12,0,0,1-1.828.281,2.876,2.876,0,0,0-.422-1.078,10.38,10.38,0,0,0,1.43,0q.4-.047.4-.656V-3H18.469a8.705,8.705,0,0,1-.75,2.578,5.156,5.156,0,0,1-1.031,1.5A2.212,2.212,0,0,0,15.75.609a4.935,4.935,0,0,0,1.2-1.57,5.866,5.866,0,0,0,.563-1.8,15.164,15.164,0,0,0,.117-1.969V-6.8q0-1.031-.047-2.25Zm-.984,2.672V-8.344H18.516v1.969Zm0,2.625V-5.672H18.516V-3.75Z" transform="translate(-1123 -5576)" fill="#4e443b"/>
    <path data-idr="Path_3383" data-name="Path 3383" d="M10,0H144.443V20.292H10Z" transform="translate(-1043 -5590)" fill="#f6f4e8"/>
    <path data-idr="Path_3429" data-name="Path 3429" d="M-18.7-9.281a6.451,6.451,0,0,0-.375.8q-.187.469-.375,1.031h3.422q-.047.938-.047,1.875L-16.312-.75q0,1.5-.727,1.688a7.857,7.857,0,0,1-1.477.234A2.7,2.7,0,0,0-18.844.094,2.477,2.477,0,0,0-17.461.047q.258-.187.3-.937l.234-5.719h-2.906a11.522,11.522,0,0,1-1.219,2.156,2.856,2.856,0,0,0-.844-.469,7.071,7.071,0,0,0,1.148-1.8,15.279,15.279,0,0,0,1.055-2.93A2.915,2.915,0,0,0-18.7-9.281Zm-2.906,2.25a8.964,8.964,0,0,0-.8,1.055q-.562.82-1.922,2.93,1.219-.094,2.859-.281a2.406,2.406,0,0,0-.234.844,14.335,14.335,0,0,0-1.664.141,11.439,11.439,0,0,0-1.992.422,7.526,7.526,0,0,0-.469-1.031,2.187,2.187,0,0,0,1.055-.82,10.064,10.064,0,0,0,1.008-1.57,10.15,10.15,0,0,0-1.1.07,5.215,5.215,0,0,0-1.055.211A5.866,5.866,0,0,0-26.3-6a5.054,5.054,0,0,0,1.172-1.43,8.947,8.947,0,0,0,.938-2.133,5.179,5.179,0,0,0,.984.422,7.761,7.761,0,0,0-.8,1.2q-.469.82-1.172,1.945h1.828a9.369,9.369,0,0,0,.8-1.594Q-22.031-7.266-21.609-7.031ZM-26.25-.516q.609-.094,1.641-.234t3.141-.562a2.523,2.523,0,0,0-.141.8q-2.578.563-3.164.68a3.284,3.284,0,0,0-1.055.4A11.041,11.041,0,0,0-26.25-.516Zm6.516-4.312q.375.422,1.453,2.016a2.361,2.361,0,0,0-.75.563,13.424,13.424,0,0,0-1.359-2.016A5.25,5.25,0,0,0-19.734-4.828Zm5.2,2.531.844-.141a2.277,2.277,0,0,0,.609,1.008,1.4,1.4,0,0,0,1.055.375,1.265,1.265,0,0,0,1.008-.516A1.6,1.6,0,0,0-10.687-2.7a1.315,1.315,0,0,0-.492-.984,3.033,3.033,0,0,0-1.43-.492v-.609A2.373,2.373,0,0,0-11.18-5.3a1.314,1.314,0,0,0,.4-1.1,1.133,1.133,0,0,0-.609-.984,1.389,1.389,0,0,0-1.2-.07,1.954,1.954,0,0,0-1.008,1.313l-.844-.141a4.052,4.052,0,0,1,.773-1.406,1.994,1.994,0,0,1,1.336-.656,2.668,2.668,0,0,1,1.477.211,1.741,1.741,0,0,1,.891.938,2.181,2.181,0,0,1,.07,1.383A2.245,2.245,0,0,1-10.969-4.5a2.151,2.151,0,0,1,1.008.844A2.2,2.2,0,0,1-9.727-2.18,2.174,2.174,0,0,1-10.547-.7a2.378,2.378,0,0,1-1.594.539,2.469,2.469,0,0,1-1.547-.562A2.533,2.533,0,0,1-14.531-2.3ZM-3.422-3.984H-8.766v-.75h5.344ZM.75-2.062H-2.859v-.8l3.8-5.484h.7v5.484H2.766v.8H1.641V-.281H.75Zm0-.8v-3.7l-2.625,3.7ZM9.422-9.047A9.255,9.255,0,0,0,14.531-5.2a4.854,4.854,0,0,0-.7,1.078A10.983,10.983,0,0,1,8.906-8.3,12.081,12.081,0,0,1,4.266-3.984a3.338,3.338,0,0,0-.8-.891A9.091,9.091,0,0,0,6.961-7.266,8.871,8.871,0,0,0,8.625-9.891q.562.234,1.125.422Q9.563-9.234,9.422-9.047ZM8.484-4.406q0-.75-.094-1.922H9.469q-.047.8-.047,1.969v3.328q0,1.078.047,2.2H8.438Q8.484,0,8.484-.984ZM24.844-9.047q-.094,1.125-.094,2.016V-.375q0,.891-.469,1.078a7.12,7.12,0,0,1-1.828.281,2.876,2.876,0,0,0-.422-1.078,10.38,10.38,0,0,0,1.43,0q.4-.047.4-.656V-3H18.469a8.705,8.705,0,0,1-.75,2.578,5.156,5.156,0,0,1-1.031,1.5A2.212,2.212,0,0,0,15.75.609a4.935,4.935,0,0,0,1.2-1.57,5.866,5.866,0,0,0,.563-1.8,15.164,15.164,0,0,0,.117-1.969V-6.8q0-1.031-.047-2.25Zm-.984,2.672V-8.344H18.516v1.969Zm0,2.625V-5.672H18.516V-3.75Z" transform="translate(-966 -5576)" fill="#4e443b"/>
    <path data-idr="Icon_awesome-user-tie" data-name="Icon awesome-user-tie" d="M10.1,11.546A5.773,5.773,0,1,0,4.33,5.773,5.772,5.772,0,0,0,10.1,11.546Zm4.321,1.47-2.156,8.632-1.443-6.134,1.443-2.526H7.938l1.443,2.526L7.938,21.648,5.782,13.016A6.051,6.051,0,0,0,0,19.05v1.876a2.165,2.165,0,0,0,2.165,2.165H18.04A2.165,2.165,0,0,0,20.2,20.926V19.05a6.051,6.051,0,0,0-5.782-6.034Z" transform="translate(-1256 -5659)" fill="#9a2327"/>
    <path data-idr="Icon_awesome-clipboard-list" data-name="Icon awesome-clipboard-list" d="M15.154,2.886H11.546a2.886,2.886,0,1,0-5.773,0H2.165A2.165,2.165,0,0,0,0,5.051V20.926a2.165,2.165,0,0,0,2.165,2.165H15.154a2.165,2.165,0,0,0,2.165-2.165V5.051A2.165,2.165,0,0,0,15.154,2.886ZM4.33,19.122A1.082,1.082,0,1,1,5.412,18.04,1.08,1.08,0,0,1,4.33,19.122Zm0-4.33A1.082,1.082,0,1,1,5.412,13.71,1.08,1.08,0,0,1,4.33,14.793Zm0-4.33A1.082,1.082,0,1,1,5.412,9.381,1.08,1.08,0,0,1,4.33,10.463ZM8.659,1.8A1.082,1.082,0,1,1,7.577,2.886,1.08,1.08,0,0,1,8.659,1.8Zm5.773,16.6a.362.362,0,0,1-.361.361H7.577a.362.362,0,0,1-.361-.361v-.722a.362.362,0,0,1,.361-.361h6.494a.362.362,0,0,1,.361.361Zm0-4.33a.362.362,0,0,1-.361.361H7.577a.362.362,0,0,1-.361-.361V13.35a.362.362,0,0,1,.361-.361h6.494a.362.362,0,0,1,.361.361Zm0-4.33a.362.362,0,0,1-.361.361H7.577a.362.362,0,0,1-.361-.361V9.02a.362.362,0,0,1,.361-.361h6.494a.362.362,0,0,1,.361.361Z" transform="translate(-1162 -5659)" fill="#9a2327"/>
    <g data-idr="Group_307" data-name="Group 307" transform="translate(37.478 201.533)">
      <path data-idr="Path_3359" data-name="Path 3359" d="M71.909,0H82.783a.815.815,0,0,1,.809.809V10.858a.815.815,0,0,1-.809.809H71.909a.815.815,0,0,1-.809-.809V.809A.815.815,0,0,1,71.909,0Z" transform="translate(-1033.719 -5857.533)" fill="#9a2327"/>
      <path data-idr="Path_3360" data-name="Path 3360" d="M9.606,26.887V18.564a.756.756,0,0,0-.764-.764H4.337a.775.775,0,0,0-.6.29L0,22.7v6.124a.756.756,0,0,0,.764.764H3.146a2.718,2.718,0,0,1,2.169-1.1,2.676,2.676,0,0,1,2.169,1.1H16.31a2.718,2.718,0,0,1,2.169-1.1,2.676,2.676,0,0,1,2.169,1.1h1.97a.743.743,0,0,0,.733-.733v-.473a.724.724,0,0,0-.733-.733H10.369a.766.766,0,0,1-.764-.764Zm-2.779-2.81H2.841a.886.886,0,0,1-.886-.886v-.229a.977.977,0,0,1,.2-.565l2.107-2.611a.883.883,0,0,1,.687-.336H6.811a.886.886,0,0,1,.886.886v2.841a.868.868,0,0,1-.87.9Z" transform="translate(-973.478 -5872.615)" fill="#9a2327"/>
      <circle data-idr="Ellipse_15" data-name="Ellipse 15" cx="1.909" cy="1.909" r="1.909" transform="translate(-970.102 -5843.315)" fill="#9a2327"/>
      <circle data-idr="Ellipse_16" data-name="Ellipse 16" cx="1.909" cy="1.909" r="1.909" transform="translate(-956.893 -5843.315)" fill="#9a2327"/>
    </g>
    <g data-idr="Group_306" data-name="Group 306" transform="translate(41.435 201.432)">
      <path data-idr="Path_3361" data-name="Path 3361" d="M55.647,2.484,51.383,0,42.068,5.427l4.263,2.484Z" transform="translate(-1157.714 -5860.432)" fill="#9a2327"/>
      <path data-idr="Path_3362" data-name="Path 3362" d="M161.763,64.3l-9.315,5.427,3.475,2.025,9.315-5.427Z" transform="translate(-1262.254 -5921.335)" fill="#9a2327"/>
      <path data-idr="Path_3363" data-name="Path 3363" d="M233.131,134.034v10.854l9.31-5.424V128.61Z" transform="translate(-1338.669 -5982.238)" fill="#9a2327"/>
      <path data-idr="Path_3364" data-name="Path 3364" d="M27.169,139.464l9.31,5.424V134.034l-9.31-5.424Z" transform="translate(-1143.604 -5982.238)" fill="#9a2327"/>
    </g>
    <path data-idr="Subtraction_2" data-name="Subtraction 2" d="M21.942,20.442H1.079A1.089,1.089,0,0,1,0,19.346V1.1A1.089,1.089,0,0,1,1.079,0H6.115A1.089,1.089,0,0,1,7.194,1.1v8.957l6.255-4.039a1.06,1.06,0,0,1,.576-.173,1.091,1.091,0,0,1,1.083,1.1v3.115l6.255-4.039a1.061,1.061,0,0,1,.576-.173,1.091,1.091,0,0,1,1.083,1.1V19.346A1.089,1.089,0,0,1,21.942,20.442Zm-6.835-7.357V16.33h3.2V13.085Zm-7.673,0V16.33h3.2V13.085Z" transform="translate(-1004 -5657)" fill="#9a2327"/>
    <path data-idr="Icon_zocial-email" data-name="Icon zocial-email" d="M.072,18.958V5.515q0-.023.07-.443L8.054,11.84.165,19.425a1.978,1.978,0,0,1-.093-.467Zm1.05-14.82a1.006,1.006,0,0,1,.4-.07H22.827a1.322,1.322,0,0,1,.42.07l-7.935,6.791-1.05.84-2.077,1.7-2.077-1.7-1.05-.84Zm.023,16.2L9.1,12.7l3.081,2.5,3.081-2.5,7.958,7.632a1.121,1.121,0,0,1-.4.07H1.519a1.057,1.057,0,0,1-.373-.07Zm15.17-8.5L24.2,5.072a1.393,1.393,0,0,1,.07.443V18.958a1.789,1.789,0,0,1-.07.467Z" transform="translate(-1336.072 -5659.068)" fill="#9a2327"/>
  </g>
</svg>
