<svg xmlns="http://www.w3.org/2000/svg" width="481.493" height="112.87" viewBox="0 0 481.493 112.87">
  <g data-idr="Group_323" data-name="Group 323" transform="translate(1365 5682.579)">
    <path data-idr="Path_3377" data-name="Path 3377" d="M0,0H66L81.493,44.992,66,90H0" transform="translate(-1365 -5682.579)" fill="#f6f4e8"/>
    <path data-idr="Path_3377-2" data-name="Path 3377" d="M0,0H86l15.493,44.992L86,90H0L15.369,45.088Z" transform="translate(-1297 -5682.579)" fill="#f6f4e8"/>
    <path data-idr="Path_3377-3" data-name="Path 3377" d="M0,0H96l15.493,44.992L96,90H0L15.369,45.088Z" transform="translate(-1209 -5682.579)" fill="#f6f4e8"/>
    <path data-idr="Path_3377-4" data-name="Path 3377" d="M10,0H86l15.493,44.992L86,90H10L25.369,45.088Z" transform="translate(-1121 -5682.579)" fill="#f6f4e8"/>
    <path data-idr="Path_3377-5" data-name="Path 3377" d="M10,0H76L91.493,44.992,76,90H10L25.369,45.088Z" transform="translate(-1043 -5682.579)" fill="#f6f4e8"/>
    <path data-idr="Path_3377-6" data-name="Path 3377" d="M10,0H76L91.493,44.992,76,90H10L25.369,45.088Z" transform="translate(-975 -5682.579)" fill="#f6f4e8"/>
    <path data-idr="Path_3411" data-name="Path 3411" d="M-19.128-6.3a2.516,2.516,0,0,0-2.544-2.88c-2.556,0-2.856,2.544-2.856,4.572,0,2.148.1,4.824,2.868,4.824A2.272,2.272,0,0,0-19.7-.792,3.446,3.446,0,0,0-19.176-2.7c.024-.18.024-.372.048-.552h-1c-.024.2-.036.408-.06.612-.12.984-.372,1.956-1.56,1.956-1.824,0-1.8-2.724-1.752-3.948,0-1.188.024-3.648,1.752-3.648,1.248,0,1.6.912,1.62,1.98ZM-13.1-3.564c0-2.016-.744-3.288-2.388-3.288S-17.88-5.58-17.88-3.564c0,2.88.948,3.744,2.388,3.744C-14.028.18-13.1-.672-13.1-3.564Zm-.984.3c0,1.572-.276,2.64-1.4,2.64-1.1,0-1.4-1.068-1.4-2.64,0-2.016.432-2.784,1.4-2.784C-14.5-6.048-14.088-5.28-14.088-3.264Zm3.4-3.408h-.924V0h.948V-4.464a1.435,1.435,0,0,1,.432-1.212A1.357,1.357,0,0,1-9.3-6.048c.768,0,1,.468,1,1.164V0h.948V-5.148A1.5,1.5,0,0,0-9-6.852a2.024,2.024,0,0,0-1.668.912h-.024Zm6.168-1.812H-5.46v1.812h-.924v.8h.924v4.776c0,1.008.42,1.1.984,1.092h1.044V-.8h-.636c-.528,0-.444-.288-.444-.516V-5.868h1.1v-.8H-4.524ZM.288-1.98A1.22,1.22,0,0,1-.864-.624c-.768,0-.936-.432-.936-1.1A1.189,1.189,0,0,1-1.212-2.88c.5-.24,1.032-.444,1.5-.72ZM1.848-.7A1.166,1.166,0,0,1,1.44-.708c-.192-.1-.168-.336-.168-.5V-5.04A1.6,1.6,0,0,0-.54-6.852c-1.344,0-2.028.6-1.98,1.98h.852c-.012-.78.108-1.176.972-1.176C.072-6.048.36-5.76.36-5c0,.348.024.612-.18.768-.12.1-1.464.6-2,.84a1.706,1.706,0,0,0-.96,1.62C-2.784-.564-2.4.18-1.068.18A1.693,1.693,0,0,0,.408-.9H.432c.1.912.4.984,1.2.948A1.4,1.4,0,0,1,1.848,0ZM4.992-6.048c.9,0,1.092.744,1.1,1.476h.888A2,2,0,0,0,5-6.852c-2.04,0-2.3,1.968-2.3,3.6C2.7-1.524,2.988.18,5.028.18c1.488,0,1.968-1.224,2-2.508h-.9c-.048.816-.144,1.7-1.176,1.7-1.212,0-1.272-1.548-1.272-2.424C3.684-4,3.612-6.048,4.992-6.048ZM9.468-8.484H8.532v1.812H7.608v.8h.924v4.776c0,1.008.42,1.1.984,1.092H10.56V-.8H9.924C9.4-.8,9.48-1.092,9.48-1.32V-5.868h1.1v-.8H9.468ZM17.976,0h.948V-6.672h-.948v4.284A2.24,2.24,0,0,1,17.7-1.212a1.358,1.358,0,0,1-1.14.588c-.672,0-.852-.3-.852-.864V-6.672H14.76v5.148c0,1.176.612,1.7,1.608,1.7A1.751,1.751,0,0,0,17.952-.876h.024ZM24.4-4.884c.024-1.368-.744-1.968-2.064-1.968a1.815,1.815,0,0,0-1.956,1.884c0,1.164.6,1.512,1.632,1.9.684.288,1.644.372,1.644,1.32,0,.816-.5,1.128-1.272,1.128-.888,0-1.164-.5-1.128-1.32h-.9a2.043,2.043,0,0,0,.372,1.428,2,2,0,0,0,1.656.7,2.007,2.007,0,0,0,2.256-2.052c0-1.248-.96-1.488-1.92-1.92-.648-.276-1.356-.384-1.356-1.248,0-.7.384-1.008,1.056-1.008.8,0,1.092.372,1.056,1.164Z" transform="translate(-1324 -5610)" fill="#4e443b"/>
    <path data-idr="Path_3400" data-name="Path 3400" d="M-4.211-3.819a7.336,7.336,0,0,0,.22,2.054.887.887,0,0,0,.9.712.874.874,0,0,0,.894-.712,7.6,7.6,0,0,0,.212-2.054A7.517,7.517,0,0,0-2.194-5.9a.867.867,0,0,0-.894-.677.879.879,0,0,0-.9.677A7.254,7.254,0,0,0-4.211-3.819Zm1.123-4.023A2.2,2.2,0,0,1-1-6.794,6.061,6.061,0,0,1-.4-3.819,6.028,6.028,0,0,1-1-.849,2.2,2.2,0,0,1-3.088.193,2.2,2.2,0,0,1-5.175-.849a6.028,6.028,0,0,1-.6-2.97,6.061,6.061,0,0,1,.6-2.976A2.2,2.2,0,0,1-3.088-7.842ZM.763-5.371V-6.413a6.751,6.751,0,0,0,1.013-.1,1.427,1.427,0,0,0,.75-.408,1.345,1.345,0,0,0,.3-.559,1.285,1.285,0,0,0,.059-.312H4.163V0H2.594V-5.371Z" transform="translate(-1324 -5669.623)" fill="#4e443b"/>
    <path data-idr="Path_3410" data-name="Path 3410" d="M-12.432,0V-.9H-16.1V-9h-1V0Zm1.548,0V-6.672h-.948V0Zm0-7.8V-9h-.948v1.2Zm4.812,2.916c.024-1.368-.744-1.968-2.064-1.968a1.815,1.815,0,0,0-1.956,1.884c0,1.164.6,1.512,1.632,1.9.684.288,1.644.372,1.644,1.32,0,.816-.5,1.128-1.272,1.128-.888,0-1.164-.5-1.128-1.32h-.9A2.043,2.043,0,0,0-9.744-.516a2,2,0,0,0,1.656.7A2.007,2.007,0,0,0-5.832-1.872c0-1.248-.96-1.488-1.92-1.92C-8.4-4.068-9.108-4.176-9.108-5.04c0-.7.384-1.008,1.056-1.008.8,0,1.092.372,1.056,1.164Zm2.136-3.6h-.936v1.812H-5.8v.8h.924v4.776c0,1.008.42,1.1.984,1.092h1.044V-.8H-3.48c-.528,0-.444-.288-.444-.516V-5.868h1.1v-.8H-3.936Zm2.268,4.452c.036-.792.06-2.016,1.164-2.016S.552-4.812.588-4.032ZM.636-2.22c.06.756-.192,1.6-1.1,1.6-1.332,0-1.176-1.728-1.2-2.628h3.24c-.048-1.56.072-3.6-2.088-3.6-1.764,0-2.136,2.1-2.136,3.5,0,2.688.9,3.528,2.16,3.528a2.037,2.037,0,0,0,2.016-2.4ZM3.36-6.672H2.436V0h.948V-4.464a1.435,1.435,0,0,1,.432-1.212,1.357,1.357,0,0,1,.936-.372c.768,0,1,.468,1,1.164V0H6.7V-5.148a1.5,1.5,0,0,0-1.644-1.7,2.024,2.024,0,0,0-1.668.912H3.36Zm7.968-1.812h-.936v1.812H9.468v.8h.924v4.776c0,1.008.42,1.1.984,1.092H12.42V-.8h-.636c-.528,0-.444-.288-.444-.516V-5.868h1.1v-.8H11.328Zm6.156,4.92c0-2.016-.744-3.288-2.388-3.288S12.708-5.58,12.708-3.564c0,2.88.948,3.744,2.388,3.744C16.56.18,17.484-.672,17.484-3.564Zm-.984.3c0,1.572-.276,2.64-1.4,2.64-1.1,0-1.4-1.068-1.4-2.64,0-2.016.432-2.784,1.4-2.784C16.092-6.048,16.5-5.28,16.5-3.264Zm-44.4,17.42c-.264.66-.288,1.32-1.176,1.32a1.822,1.822,0,0,1-.708-.144v.84a2.261,2.261,0,0,0,.684.108,1.576,1.576,0,0,0,1.524-.876,12.425,12.425,0,0,0,.612-1.7l1.98-6.372h-.984l-1.548,5.784h-.024l-1.5-5.784h-.984Zm7.932-3.72c0-2.016-.744-3.288-2.388-3.288s-2.388,1.272-2.388,3.288c0,2.88.948,3.744,2.388,3.744C-20.892,14.18-19.968,13.328-19.968,10.436Zm-.984.3c0,1.572-.276,2.64-1.4,2.64-1.1,0-1.4-1.068-1.4-2.64,0-2.016.432-2.784,1.4-2.784C-21.36,7.952-20.952,8.72-20.952,10.736ZM-15.816,14h.948V7.328h-.948v4.284a2.24,2.24,0,0,1-.276,1.176,1.358,1.358,0,0,1-1.14.588c-.672,0-.852-.3-.852-.864V7.328h-.948v5.148c0,1.176.612,1.7,1.608,1.7a1.751,1.751,0,0,0,1.584-1.056h.024Zm3.144-6.672h-.912V14h.948V9.956c0-1.212.72-1.98,1.944-1.764V7.256A1.738,1.738,0,0,0-12.648,8.42h-.024Zm5.8,0h-.912V14h.948V9.956c0-1.212.72-1.98,1.944-1.764V7.256A1.738,1.738,0,0,0-6.852,8.42h-.024Zm3.012,2.64c.036-.792.06-2.016,1.164-2.016s1.056,1.236,1.092,2.016Zm2.3,1.812c.06.756-.192,1.6-1.1,1.6-1.332,0-1.176-1.728-1.2-2.628h3.24c-.048-1.56.072-3.6-2.088-3.6-1.764,0-2.136,2.1-2.136,3.5,0,2.688.9,3.528,2.16,3.528a2.037,2.037,0,0,0,2.016-2.4Zm2.568-.828c-.036-1.3.036-3,1.284-3,1.272.012,1.236,1.788,1.236,2.688,0,.924.024,2.736-1.272,2.736C1.248,13.376,1.044,12.248,1.008,10.952Zm2.556-2.94H3.54A1.712,1.712,0,0,0,2,7.148C.4,7.148-.06,9.248.024,10.76c.132,2.364.66,3.42,2.064,3.42A1.651,1.651,0,0,0,3.5,13.268h.024v2.94h.948V7.328H3.564ZM8.9,14h.948V7.328H8.9v4.284a2.24,2.24,0,0,1-.276,1.176,1.358,1.358,0,0,1-1.14.588c-.672,0-.852-.3-.852-.864V7.328H5.688v5.148c0,1.176.612,1.7,1.608,1.7A1.751,1.751,0,0,0,8.88,13.124H8.9Zm2.76-4.032c.036-.792.06-2.016,1.164-2.016s1.056,1.236,1.092,2.016Zm2.3,1.812c.06.756-.192,1.6-1.1,1.6-1.332,0-1.176-1.728-1.2-2.628H14.9c-.048-1.56.072-3.6-2.088-3.6-1.764,0-2.136,2.1-2.136,3.5,0,2.688.9,3.528,2.16,3.528a2.037,2.037,0,0,0,2.016-2.4Zm5.484-2.664c.024-1.368-.744-1.968-2.064-1.968a1.815,1.815,0,0,0-1.956,1.884c0,1.164.6,1.512,1.632,1.9.684.288,1.644.372,1.644,1.32,0,.816-.5,1.128-1.272,1.128-.888,0-1.164-.5-1.128-1.32h-.9a2.043,2.043,0,0,0,.372,1.428,2,2,0,0,0,1.656.7,2.007,2.007,0,0,0,2.256-2.052c0-1.248-.96-1.488-1.92-1.92-.648-.276-1.356-.384-1.356-1.248,0-.7.384-1.008,1.056-1.008.8,0,1.092.372,1.056,1.164Zm2.136-3.6h-.936V7.328h-.924v.8h.924v4.776c0,1.008.42,1.1.984,1.092H22.68v-.8h-.636c-.528,0-.444-.288-.444-.516V8.132h1.1v-.8H21.588Zm5.328,3.6c.024-1.368-.744-1.968-2.064-1.968A1.815,1.815,0,0,0,22.9,9.032c0,1.164.6,1.512,1.632,1.9.684.288,1.644.372,1.644,1.32,0,.816-.5,1.128-1.272,1.128-.888,0-1.164-.5-1.128-1.32h-.9a2.043,2.043,0,0,0,.372,1.428,2,2,0,0,0,1.656.7,2.007,2.007,0,0,0,2.256-2.052c0-1.248-.96-1.488-1.92-1.92-.648-.276-1.356-.384-1.356-1.248,0-.7.384-1.008,1.056-1.008.8,0,1.092.372,1.056,1.164ZM29.136,14V12.8H28.044V14Z" transform="translate(-1246 -5617)" fill="#4e443b"/>
    <path data-idr="Path_3401" data-name="Path 3401" d="M-4.211-3.819a7.336,7.336,0,0,0,.22,2.054.887.887,0,0,0,.9.712.874.874,0,0,0,.894-.712,7.6,7.6,0,0,0,.212-2.054A7.517,7.517,0,0,0-2.194-5.9a.867.867,0,0,0-.894-.677.879.879,0,0,0-.9.677A7.254,7.254,0,0,0-4.211-3.819Zm1.123-4.023A2.2,2.2,0,0,1-1-6.794,6.061,6.061,0,0,1-.4-3.819,6.028,6.028,0,0,1-1-.849,2.2,2.2,0,0,1-3.088.193,2.2,2.2,0,0,1-5.175-.849a6.028,6.028,0,0,1-.6-2.97,6.061,6.061,0,0,1,.6-2.976A2.2,2.2,0,0,1-3.088-7.842ZM.344,0A3.66,3.66,0,0,1,.7-1.531,4.328,4.328,0,0,1,2.25-3.18,11.344,11.344,0,0,0,3.62-4.265,1.6,1.6,0,0,0,4.1-5.382,1.238,1.238,0,0,0,3.824-6.2a.965.965,0,0,0-.784-.328.956.956,0,0,0-.951.521,2.584,2.584,0,0,0-.172.956H.43A3.759,3.759,0,0,1,.79-6.66,2.244,2.244,0,0,1,2.967-7.826a2.763,2.763,0,0,1,1.968.685,2.367,2.367,0,0,1,.731,1.813A2.451,2.451,0,0,1,5.15-3.792,5.142,5.142,0,0,1,4.036-2.8l-.613.435q-.576.408-.788.591a1.731,1.731,0,0,0-.357.424h3.4V0Z" transform="translate(-1246 -5669.623)" fill="#4e443b"/>
    <path data-idr="Path_3409" data-name="Path 3409" d="M-26.826-6.636c.1-1.692-.912-2.544-2.556-2.544A2.362,2.362,0,0,0-31.89-6.72a2.01,2.01,0,0,0,1.068,2.04c.48.252,1.272.5,1.764.7.912.348,1.464.36,1.464,1.728A1.51,1.51,0,0,1-29.31-.684c-1.5,0-1.752-.84-1.7-2.172h-1a5.025,5.025,0,0,0,.192,1.644A2.457,2.457,0,0,0-29.358.216a2.53,2.53,0,0,0,2.8-2.7c0-1.188-.312-1.788-2.016-2.424-.48-.18-.948-.36-1.428-.54a1.183,1.183,0,0,1-.852-1.224c0-.7.156-1.608,1.608-1.608a1.379,1.379,0,0,1,1.428,1.644Zm1.776,2.6c.036-.792.06-2.016,1.164-2.016s1.056,1.236,1.092,2.016Zm2.3,1.812c.06.756-.192,1.6-1.1,1.6-1.332,0-1.176-1.728-1.2-2.628h3.24c-.048-1.56.072-3.6-2.088-3.6-1.764,0-2.136,2.1-2.136,3.5,0,2.688.9,3.528,2.16,3.528a2.037,2.037,0,0,0,2.016-2.4ZM-20.01,0V-9h-.948V0Zm1.752-4.032c.036-.792.06-2.016,1.164-2.016S-16.038-4.812-16-4.032Zm2.3,1.812c.06.756-.192,1.6-1.1,1.6-1.332,0-1.176-1.728-1.2-2.628h3.24c-.048-1.56.072-3.6-2.088-3.6-1.764,0-2.136,2.1-2.136,3.5,0,2.688.9,3.528,2.16,3.528a2.037,2.037,0,0,0,2.016-2.4Zm3.744-3.828c.9,0,1.092.744,1.1,1.476h.888a2,2,0,0,0-1.98-2.28c-2.04,0-2.3,1.968-2.3,3.6,0,1.728.288,3.432,2.328,3.432,1.488,0,1.968-1.224,2-2.508h-.9c-.048.816-.144,1.7-1.176,1.7-1.212,0-1.272-1.548-1.272-2.424C-13.518-4-13.59-6.048-12.21-6.048Zm3.876-2.436H-9.27v1.812h-.924v.8h.924v4.776c0,1.008.42,1.1.984,1.092h1.044V-.8h-.636c-.528,0-.444-.288-.444-.516V-5.868h1.1v-.8H-8.334ZM-.786-3.456c0,1.8-.312,2.832-1.3,2.832-1.308,0-1.272-1.8-1.272-2.724,0-.948.024-2.7,1.26-2.7C-.882-6.048-.786-4.332-.786-3.456ZM-3.354-.7h.024A1.537,1.537,0,0,0-1.938.18C-.138.18.2-1.884.2-3.78c0-1.368-.492-3.072-2.184-3.072a1.59,1.59,0,0,0-1.38.924H-3.39v-.744H-4.3V2.256h.948ZM2.118-6.672H1.206V0h.948V-4.044c0-1.212.72-1.98,1.944-1.764v-.936A1.738,1.738,0,0,0,2.142-5.58H2.118Zm6.9,3.108c0-2.016-.744-3.288-2.388-3.288S4.242-5.58,4.242-3.564C4.242-.684,5.19.18,6.63.18,8.094.18,9.018-.672,9.018-3.564Zm-.984.3c0,1.572-.276,2.64-1.4,2.64-1.1,0-1.4-1.068-1.4-2.64,0-2.016.432-2.784,1.4-2.784C7.626-6.048,8.034-5.28,8.034-3.264Zm5.136.648c0,.756-.276,1.992-1.26,1.992-1.3,0-1.344-1.308-1.344-2.748,0-2.052.516-2.676,1.308-2.676,1.272,0,1.3,1.692,1.3,2.6Zm0-3.372h-.024a1.785,1.785,0,0,0-1.536-.864c-1.428,0-2.076,1.548-2,3.5C9.63-2.76,9.462.18,11.562.18a1.58,1.58,0,0,0,1.62-1.056h.024V0h.912V-9H13.17ZM18.57,0h.948V-6.672H18.57v4.284a2.24,2.24,0,0,1-.276,1.176,1.358,1.358,0,0,1-1.14.588c-.672,0-.852-.3-.852-.864V-6.672h-.948v5.148c0,1.176.612,1.7,1.608,1.7A1.751,1.751,0,0,0,18.546-.876h.024Zm4.08-6.048c.9,0,1.092.744,1.1,1.476h.888a2,2,0,0,0-1.98-2.28c-2.04,0-2.3,1.968-2.3,3.6,0,1.728.288,3.432,2.328,3.432,1.488,0,1.968-1.224,2-2.508h-.9c-.048.816-.144,1.7-1.176,1.7-1.212,0-1.272-1.548-1.272-2.424C21.342-4,21.27-6.048,22.65-6.048Zm3.876-2.436H25.59v1.812h-.924v.8h.924v4.776c0,1.008.42,1.1.984,1.092h1.044V-.8h-.636c-.528,0-.444-.288-.444-.516V-5.868h1.1v-.8H26.526Zm5.328,3.6c.024-1.368-.744-1.968-2.064-1.968a1.815,1.815,0,0,0-1.956,1.884c0,1.164.6,1.512,1.632,1.9.684.288,1.644.372,1.644,1.32,0,.816-.5,1.128-1.272,1.128-.888,0-1.164-.5-1.128-1.32h-.9a2.043,2.043,0,0,0,.372,1.428,2,2,0,0,0,1.656.7,2.007,2.007,0,0,0,2.256-2.052c0-1.248-.96-1.488-1.92-1.92-.648-.276-1.356-.384-1.356-1.248,0-.7.384-1.008,1.056-1.008.8,0,1.092.372,1.056,1.164ZM-38.328,14h.948V8.132h1.044v-.8H-37.38V6.62c0-.816.276-.888,1.044-.816V5c-.888-.084-1.452.036-1.764.48a2.349,2.349,0,0,0-.24,1.284v.564h-.96v.8h.972Zm3.432,0V7.328h-.948V14Zm0-7.8V5h-.948V6.2Zm2.052,1.128h-.924V14h.948V9.536a1.435,1.435,0,0,1,.432-1.212,1.357,1.357,0,0,1,.936-.372c.768,0,1,.468,1,1.164V14h.948V8.852a1.5,1.5,0,0,0-1.644-1.7,2.024,2.024,0,0,0-1.668.912h-.024ZM-25.8,12.02a1.22,1.22,0,0,1-1.152,1.356c-.768,0-.936-.432-.936-1.1A1.189,1.189,0,0,1-27.3,11.12c.5-.24,1.032-.444,1.5-.72Zm1.56,1.284a1.166,1.166,0,0,1-.408-.012c-.192-.1-.168-.336-.168-.5V8.96a1.6,1.6,0,0,0-1.812-1.812c-1.344,0-2.028.6-1.98,1.98h.852c-.012-.78.108-1.176.972-1.176.768,0,1.056.288,1.056,1.044,0,.348.024.612-.18.768-.12.1-1.464.6-2,.84a1.706,1.706,0,0,0-.96,1.62c0,1.212.384,1.956,1.716,1.956A1.692,1.692,0,0,0-25.68,13.1h.024c.1.912.4.984,1.2.948A1.4,1.4,0,0,1-24.24,14Zm1.536.7V5h-.948v9Zm7.212-4.884c.024-1.368-.744-1.968-2.064-1.968a1.815,1.815,0,0,0-1.956,1.884c0,1.164.6,1.512,1.632,1.9.684.288,1.644.372,1.644,1.32,0,.816-.5,1.128-1.272,1.128-.888,0-1.164-.5-1.128-1.32h-.9a2.043,2.043,0,0,0,.372,1.428,2,2,0,0,0,1.656.7,2.007,2.007,0,0,0,2.256-2.052c0-1.248-.96-1.488-1.92-1.92-.648-.276-1.356-.384-1.356-1.248,0-.7.384-1.008,1.056-1.008.8,0,1.092.372,1.056,1.164Zm4.548,1.428c0,1.8-.312,2.832-1.3,2.832-1.308,0-1.272-1.8-1.272-2.724,0-.948.024-2.7,1.26-2.7C-11.04,7.952-10.944,9.668-10.944,10.544Zm-2.568,2.76h.024a1.537,1.537,0,0,0,1.392.876c1.8,0,2.136-2.064,2.136-3.96,0-1.368-.492-3.072-2.184-3.072a1.59,1.59,0,0,0-1.38.924h-.024V7.328h-.912v8.928h.948Zm5.088-3.336c.036-.792.06-2.016,1.164-2.016S-6.2,9.188-6.168,9.968Zm2.3,1.812c.06.756-.192,1.6-1.1,1.6-1.332,0-1.176-1.728-1.2-2.628h3.24c-.048-1.56.072-3.6-2.088-3.6-1.764,0-2.136,2.1-2.136,3.5,0,2.688.9,3.528,2.16,3.528a2.037,2.037,0,0,0,2.016-2.4Zm3.744-3.828c.9,0,1.092.744,1.1,1.476h.888a2,2,0,0,0-1.98-2.28c-2.04,0-2.3,1.968-2.3,3.6,0,1.728.288,3.432,2.328,3.432,1.488,0,1.968-1.224,2-2.508h-.9c-.048.816-.144,1.7-1.176,1.7-1.212,0-1.272-1.548-1.272-2.424C-3.684,10-3.756,7.952-2.376,7.952ZM1.344,14V7.328H.4V14Zm0-7.8V5H.4V6.2ZM4.428,7.952C5.484,7.952,5.76,9.2,5.76,10.52c0,1.068.012,2.856-1.428,2.856-.936,0-1.212-1.08-1.212-2.712C3.12,9.764,3.168,7.952,4.428,7.952Zm1.332.132H5.736a1.617,1.617,0,0,0-1.488-.936c-1.764,0-2.112,2.064-2.112,3.468,0,2.688.876,3.564,2.136,3.564a1.569,1.569,0,0,0,1.44-.96h.024c-.012.732.144,2.244-1.392,2.244A.908.908,0,0,1,3.3,14.636H2.376a1.775,1.775,0,0,0,1.992,1.632A2.066,2.066,0,0,0,6.2,15.344a3.637,3.637,0,0,0,.5-2.148V7.328H5.76ZM8.808,14V7.328H7.86V14Zm0-7.8V5H7.86V6.2ZM11.88,7.952c.9,0,1.092.744,1.1,1.476h.888a2,2,0,0,0-1.98-2.28c-2.04,0-2.3,1.968-2.3,3.6,0,1.728.288,3.432,2.328,3.432,1.488,0,1.968-1.224,2-2.508h-.9c-.048.816-.144,1.7-1.176,1.7-1.212,0-1.272-1.548-1.272-2.424C10.572,10,10.5,7.952,11.88,7.952Zm5.352,4.068a1.22,1.22,0,0,1-1.152,1.356c-.768,0-.936-.432-.936-1.1a1.189,1.189,0,0,1,.588-1.152c.5-.24,1.032-.444,1.5-.72Zm1.56,1.284a1.166,1.166,0,0,1-.408-.012c-.192-.1-.168-.336-.168-.5V8.96A1.6,1.6,0,0,0,16.4,7.148c-1.344,0-2.028.6-1.98,1.98h.852c-.012-.78.108-1.176.972-1.176.768,0,1.056.288,1.056,1.044,0,.348.024.612-.18.768-.12.1-1.464.6-2,.84a1.706,1.706,0,0,0-.96,1.62c0,1.212.384,1.956,1.716,1.956a1.692,1.692,0,0,0,1.476-1.08h.024c.1.912.4.984,1.2.948A1.4,1.4,0,0,1,18.792,14Zm1.692-7.788h-.936V7.328h-.924v.8h.924v4.776c0,1.008.42,1.1.984,1.092h1.044v-.8H20.94c-.528,0-.444-.288-.444-.516V8.132h1.1v-.8H20.484ZM23.064,14V7.328h-.948V14Zm0-7.8V5h-.948V6.2Zm5.64,4.236c0-2.016-.744-3.288-2.388-3.288s-2.388,1.272-2.388,3.288c0,2.88.948,3.744,2.388,3.744C27.78,14.18,28.7,13.328,28.7,10.436Zm-.984.3c0,1.572-.276,2.64-1.4,2.64-1.1,0-1.4-1.068-1.4-2.64,0-2.016.432-2.784,1.4-2.784C27.312,7.952,27.72,8.72,27.72,10.736Zm2.8-3.408h-.924V14h.948V9.536a1.435,1.435,0,0,1,.432-1.212,1.357,1.357,0,0,1,.936-.372c.768,0,1,.468,1,1.164V14h.948V8.852a1.5,1.5,0,0,0-1.644-1.7,2.024,2.024,0,0,0-1.668.912h-.024Zm8.16,1.788c.024-1.368-.744-1.968-2.064-1.968a1.815,1.815,0,0,0-1.956,1.884c0,1.164.6,1.512,1.632,1.9.684.288,1.644.372,1.644,1.32,0,.816-.5,1.128-1.272,1.128-.888,0-1.164-.5-1.128-1.32h-.9A2.043,2.043,0,0,0,35,13.484a2,2,0,0,0,1.656.7,2.007,2.007,0,0,0,2.256-2.052c0-1.248-.96-1.488-1.92-1.92-.648-.276-1.356-.384-1.356-1.248,0-.7.384-1.008,1.056-1.008.8,0,1.092.372,1.056,1.164Z" transform="translate(-1153 -5617)" fill="#4e443b"/>
    <path data-idr="Path_3402" data-name="Path 3402" d="M-4.211-3.819a7.336,7.336,0,0,0,.22,2.054.887.887,0,0,0,.9.712.874.874,0,0,0,.894-.712,7.6,7.6,0,0,0,.212-2.054A7.517,7.517,0,0,0-2.194-5.9a.867.867,0,0,0-.894-.677.879.879,0,0,0-.9.677A7.254,7.254,0,0,0-4.211-3.819Zm1.123-4.023A2.2,2.2,0,0,1-1-6.794,6.061,6.061,0,0,1-.4-3.819,6.028,6.028,0,0,1-1-.849,2.2,2.2,0,0,1-3.088.193,2.2,2.2,0,0,1-5.175-.849a6.028,6.028,0,0,1-.6-2.97,6.061,6.061,0,0,1,.6-2.976A2.2,2.2,0,0,1-3.088-7.842ZM1.794-2.39a1.754,1.754,0,0,0,.15.773,1.028,1.028,0,0,0,1.013.564,1.121,1.121,0,0,0,.785-.309,1.149,1.149,0,0,0,.335-.889,1,1,0,0,0-.621-1.026,3.144,3.144,0,0,0-1.114-.145v-1.1A2.879,2.879,0,0,0,3.38-4.662a.9.9,0,0,0,.508-.913,1.022,1.022,0,0,0-.26-.725A.949.949,0,0,0,2.9-6.58a.924.924,0,0,0-.8.344,1.461,1.461,0,0,0-.244.918H.43a3.847,3.847,0,0,1,.2-1.1,2.479,2.479,0,0,1,.59-.843,2.056,2.056,0,0,1,.714-.419,3.085,3.085,0,0,1,1.014-.145,2.7,2.7,0,0,1,1.8.577A1.924,1.924,0,0,1,5.43-5.7a1.713,1.713,0,0,1-.408,1.16,1.394,1.394,0,0,1-.537.4,1.1,1.1,0,0,1,.6.36,1.922,1.922,0,0,1,.585,1.482A2.5,2.5,0,0,1,4.988-.556,2.606,2.606,0,0,1,2.962.193a2.45,2.45,0,0,1-2.3-1.08A3.207,3.207,0,0,1,.29-2.39Z" transform="translate(-1153 -5669.623)" fill="#4e443b"/>
    <path data-idr="Path_3408" data-name="Path 3408" d="M-12.144-1.992a12.566,12.566,0,0,0-.228,1.344H-12.4a7.99,7.99,0,0,0-.192-1.332L-14.352-9h-1.764V0h1V-7.392c0-.384-.024-.78-.024-1.164h.024c.108.492.18.792.264,1.1L-12.972,0h1.188L-9.9-7.344c.084-.348.168-.684.276-1.212H-9.6c.024.384,0,.756,0,1.14V0h1V-9h-1.752Zm7.3.012A1.22,1.22,0,0,1-6-.624c-.768,0-.936-.432-.936-1.1A1.189,1.189,0,0,1-6.348-2.88c.5-.24,1.032-.444,1.5-.72ZM-3.288-.7A1.166,1.166,0,0,1-3.7-.708c-.192-.1-.168-.336-.168-.5V-5.04A1.6,1.6,0,0,0-5.676-6.852c-1.344,0-2.028.6-1.98,1.98H-6.8c-.012-.78.108-1.176.972-1.176.768,0,1.056.288,1.056,1.044,0,.348.024.612-.18.768-.12.1-1.464.6-2,.84a1.706,1.706,0,0,0-.96,1.62C-7.92-.564-7.536.18-6.2.18A1.693,1.693,0,0,0-4.728-.9H-4.7c.1.912.4.984,1.2.948A1.4,1.4,0,0,1-3.288,0Zm1.5.7V-2.376l.72-.948L.6,0H1.7L-.42-4.08,1.644-6.672H.516l-2.28,3.108h-.024V-9h-.948V0ZM2.976,0V-6.672H2.028V0Zm0-7.8V-9H2.028v1.2ZM5.028-6.672H4.1V0h.948V-4.464a1.435,1.435,0,0,1,.432-1.212,1.357,1.357,0,0,1,.936-.372c.768,0,1,.468,1,1.164V0h.948V-5.148a1.5,1.5,0,0,0-1.644-1.7,2.024,2.024,0,0,0-1.668.912H5.028Zm6.432.624c1.056,0,1.332,1.248,1.332,2.568,0,1.068.012,2.856-1.428,2.856-.936,0-1.212-1.08-1.212-2.712C10.152-4.236,10.2-6.048,11.46-6.048Zm1.332.132h-.024a1.617,1.617,0,0,0-1.488-.936c-1.764,0-2.112,2.064-2.112,3.468C9.168-.7,10.044.18,11.3.18a1.569,1.569,0,0,0,1.44-.96h.024c-.012.732.144,2.244-1.392,2.244A.908.908,0,0,1,10.332.636H9.408A1.775,1.775,0,0,0,11.4,2.268a2.066,2.066,0,0,0,1.836-.924A3.637,3.637,0,0,0,13.74-.8V-6.672h-.948Zm-31.038,16.46c0,1.8-.312,2.832-1.3,2.832-1.308,0-1.272-1.8-1.272-2.724,0-.948.024-2.7,1.26-2.7C-18.342,7.952-18.246,9.668-18.246,10.544Zm-2.568,2.76h.024a1.537,1.537,0,0,0,1.392.876c1.8,0,2.136-2.064,2.136-3.96,0-1.368-.492-3.072-2.184-3.072a1.59,1.59,0,0,0-1.38.924h-.024V7.328h-.912v8.928h.948Zm5.472-5.976h-.912V14h.948V9.956c0-1.212.72-1.98,1.944-1.764V7.256A1.738,1.738,0,0,0-15.318,8.42h-.024Zm6.9,3.108c0-2.016-.744-3.288-2.388-3.288s-2.388,1.272-2.388,3.288c0,2.88.948,3.744,2.388,3.744C-9.366,14.18-8.442,13.328-8.442,10.436Zm-.984.3c0,1.572-.276,2.64-1.4,2.64-1.1,0-1.4-1.068-1.4-2.64,0-2.016.432-2.784,1.4-2.784C-9.834,7.952-9.426,8.72-9.426,10.736Zm2.964-5.22H-7.4V7.328h-.924v.8H-7.4v4.776c0,1.008.42,1.1.984,1.092H-5.37v-.8h-.636c-.528,0-.444-.288-.444-.516V8.132h1.1v-.8H-6.462Zm6.156,4.92c0-2.016-.744-3.288-2.388-3.288S-5.082,8.42-5.082,10.436c0,2.88.948,3.744,2.388,3.744C-1.23,14.18-.306,13.328-.306,10.436Zm-.984.3c0,1.572-.276,2.64-1.4,2.64-1.1,0-1.4-1.068-1.4-2.64,0-2.016.432-2.784,1.4-2.784C-1.7,7.952-1.29,8.72-1.29,10.736Zm2.964-5.22H.738V7.328H-.186v.8H.738v4.776c0,1.008.42,1.1.984,1.092H2.766v-.8H2.13c-.528,0-.444-.288-.444-.516V8.132h1.1v-.8H1.674Zm2.952,8.64c-.264.66-.288,1.32-1.176,1.32a1.822,1.822,0,0,1-.708-.144v.84a2.26,2.26,0,0,0,.684.108A1.576,1.576,0,0,0,4.95,15.4a12.426,12.426,0,0,0,.612-1.7l1.98-6.372H6.558L5.01,13.112H4.986l-1.5-5.784H2.5Zm6.924-3.612c0,1.8-.312,2.832-1.3,2.832-1.308,0-1.272-1.8-1.272-2.724,0-.948.024-2.7,1.26-2.7C11.454,7.952,11.55,9.668,11.55,10.544ZM8.982,13.3h.024a1.537,1.537,0,0,0,1.392.876c1.8,0,2.136-2.064,2.136-3.96,0-1.368-.492-3.072-2.184-3.072a1.59,1.59,0,0,0-1.38.924H8.946V7.328H8.034v8.928h.948ZM14.07,9.968c.036-.792.06-2.016,1.164-2.016s1.056,1.236,1.092,2.016Zm2.3,1.812c.06.756-.192,1.6-1.1,1.6-1.332,0-1.176-1.728-1.2-2.628h3.24c-.048-1.56.072-3.6-2.088-3.6-1.764,0-2.136,2.1-2.136,3.5,0,2.688.9,3.528,2.16,3.528a2.037,2.037,0,0,0,2.016-2.4Zm5.484-2.664c.024-1.368-.744-1.968-2.064-1.968a1.815,1.815,0,0,0-1.956,1.884c0,1.164.6,1.512,1.632,1.9.684.288,1.644.372,1.644,1.32,0,.816-.5,1.128-1.272,1.128-.888,0-1.164-.5-1.128-1.32h-.9a2.043,2.043,0,0,0,.372,1.428,2,2,0,0,0,1.656.7A2.007,2.007,0,0,0,22.1,12.128c0-1.248-.96-1.488-1.92-1.92-.648-.276-1.356-.384-1.356-1.248,0-.7.384-1.008,1.056-1.008.8,0,1.092.372,1.056,1.164Z" transform="translate(-1065 -5617)" fill="#4e443b"/>
    <path data-idr="Path_3403" data-name="Path 3403" d="M-4.211-3.819a7.336,7.336,0,0,0,.22,2.054.887.887,0,0,0,.9.712.874.874,0,0,0,.894-.712,7.6,7.6,0,0,0,.212-2.054A7.517,7.517,0,0,0-2.194-5.9a.867.867,0,0,0-.894-.677.879.879,0,0,0-.9.677A7.254,7.254,0,0,0-4.211-3.819Zm1.123-4.023A2.2,2.2,0,0,1-1-6.794,6.061,6.061,0,0,1-.4-3.819,6.028,6.028,0,0,1-1-.849,2.2,2.2,0,0,1-3.088.193,2.2,2.2,0,0,1-5.175-.849a6.028,6.028,0,0,1-.6-2.97,6.061,6.061,0,0,1,.6-2.976A2.2,2.2,0,0,1-3.088-7.842ZM5.752-1.676H4.872V0h-1.5V-1.676H.29V-3.013L3.153-7.74H4.872v4.866h.881Zm-2.379-1.2V-6.228L1.429-2.874Z" transform="translate(-1065 -5669.623)" fill="#4e443b"/>
    <path data-idr="Path_3407" data-name="Path 3407" d="M-21.27-8.1h1.032c1.212-.024,2.136.18,2.136,1.632.012,1.548-.828,1.74-2.2,1.752h-.972Zm0,8.1V-3.816h.6a6.85,6.85,0,0,0,2.328-.264A2.428,2.428,0,0,0-17.07-6.492a2.529,2.529,0,0,0-.732-1.92A3.087,3.087,0,0,0-19.9-9h-2.364V0Zm5.928-6.672h-.912V0h.948V-4.044c0-1.212.72-1.98,1.944-1.764v-.936A1.738,1.738,0,0,0-15.318-5.58h-.024Zm6.9,3.108c0-2.016-.744-3.288-2.388-3.288s-2.388,1.272-2.388,3.288c0,2.88.948,3.744,2.388,3.744C-9.366.18-8.442-.672-8.442-3.564Zm-.984.3c0,1.572-.276,2.64-1.4,2.64-1.1,0-1.4-1.068-1.4-2.64,0-2.016.432-2.784,1.4-2.784C-9.834-6.048-9.426-5.28-9.426-3.264Zm5.136.648c0,.756-.276,1.992-1.26,1.992-1.3,0-1.344-1.308-1.344-2.748,0-2.052.516-2.676,1.308-2.676,1.272,0,1.3,1.692,1.3,2.6Zm0-3.372h-.024A1.785,1.785,0,0,0-5.85-6.852c-1.428,0-2.076,1.548-2,3.5C-7.83-2.76-8,.18-5.9.18A1.58,1.58,0,0,0-4.278-.876h.024V0h.912V-9H-4.29ZM1.11,0h.948V-6.672H1.11v4.284A2.24,2.24,0,0,1,.834-1.212a1.358,1.358,0,0,1-1.14.588c-.672,0-.852-.3-.852-.864V-6.672h-.948v5.148c0,1.176.612,1.7,1.608,1.7A1.751,1.751,0,0,0,1.086-.876H1.11ZM5.19-6.048c.9,0,1.092.744,1.1,1.476h.888A2,2,0,0,0,5.2-6.852c-2.04,0-2.3,1.968-2.3,3.6C2.9-1.524,3.186.18,5.226.18c1.488,0,1.968-1.224,2-2.508h-.9c-.048.816-.144,1.7-1.176,1.7-1.212,0-1.272-1.548-1.272-2.424C3.882-4,3.81-6.048,5.19-6.048ZM9.066-8.484H8.13v1.812H7.206v.8H8.13v4.776c0,1.008.42,1.1.984,1.092h1.044V-.8H9.522c-.528,0-.444-.288-.444-.516V-5.868h1.1v-.8H9.066ZM11.646,0V-6.672H10.7V0Zm0-7.8V-9H10.7v1.2Zm5.64,4.236c0-2.016-.744-3.288-2.388-3.288S12.51-5.58,12.51-3.564C12.51-.684,13.458.18,14.9.18,16.362.18,17.286-.672,17.286-3.564Zm-.984.3c0,1.572-.276,2.64-1.4,2.64-1.1,0-1.4-1.068-1.4-2.64,0-2.016.432-2.784,1.4-2.784C15.894-6.048,16.3-5.28,16.3-3.264Zm2.8-3.408h-.924V0h.948V-4.464a1.435,1.435,0,0,1,.432-1.212,1.357,1.357,0,0,1,.936-.372c.768,0,1,.468,1,1.164V0h.948V-5.148a1.5,1.5,0,0,0-1.644-1.7,2.024,2.024,0,0,0-1.668.912H19.1Z" transform="translate(-992 -5610)" fill="#4e443b"/>
    <path data-idr="Path_3404" data-name="Path 3404" d="M-4.211-3.819a7.336,7.336,0,0,0,.22,2.054.887.887,0,0,0,.9.712.874.874,0,0,0,.894-.712,7.6,7.6,0,0,0,.212-2.054A7.517,7.517,0,0,0-2.194-5.9a.867.867,0,0,0-.894-.677.879.879,0,0,0-.9.677A7.254,7.254,0,0,0-4.211-3.819Zm1.123-4.023A2.2,2.2,0,0,1-1-6.794,6.061,6.061,0,0,1-.4-3.819,6.028,6.028,0,0,1-1-.849,2.2,2.2,0,0,1-3.088.193,2.2,2.2,0,0,1-5.175-.849a6.028,6.028,0,0,1-.6-2.97,6.061,6.061,0,0,1,.6-2.976A2.2,2.2,0,0,1-3.088-7.842Zm4.9,5.758a1.479,1.479,0,0,0,.348.771.985.985,0,0,0,.75.271,1.011,1.011,0,0,0,.865-.4,1.642,1.642,0,0,0,.3-1.007A1.753,1.753,0,0,0,3.8-3.456a.975.975,0,0,0-.868-.411,1.49,1.49,0,0,0-.482.07.959.959,0,0,0-.541.478L.534-3.384l.547-4.3H5.366v1.3H2.185l-.279,1.7a3.194,3.194,0,0,1,.552-.306,2.336,2.336,0,0,1,.81-.124,2.431,2.431,0,0,1,1.684.65,2.419,2.419,0,0,1,.719,1.891A2.968,2.968,0,0,1,4.98-.645,2.516,2.516,0,0,1,2.909.2a2.749,2.749,0,0,1-1.824-.6A2.317,2.317,0,0,1,.29-2.084Z" transform="translate(-992 -5669.623)" fill="#4e443b"/>
    <path data-idr="Path_3406" data-name="Path 3406" d="M-13.356,0c2.436,0,2.868-2.3,2.94-4.5.072-2.22-.312-4.5-3.12-4.5h-2.472V0Zm-1.656-8.1h1.6c1.608,0,1.9,1.368,1.968,3.42.1,2.688-.5,3.78-1.968,3.78h-1.6ZM-8.76-4.032c.036-.792.06-2.016,1.164-2.016S-6.54-4.812-6.5-4.032Zm2.3,1.812c.06.756-.192,1.6-1.1,1.6-1.332,0-1.176-1.728-1.2-2.628h3.24c-.048-1.56.072-3.6-2.088-3.6-1.764,0-2.136,2.1-2.136,3.5,0,2.688.9,3.528,2.16,3.528a2.037,2.037,0,0,0,2.016-2.4ZM-3.72,0V-9h-.948V0Zm2.064,0V-6.672H-2.6V0Zm0-7.8V-9H-2.6v1.2ZM.732,0H1.764l2-6.672H2.784L1.272-.8H1.248L-.264-6.672h-.984ZM4.824-4.032c.036-.792.06-2.016,1.164-2.016S7.044-4.812,7.08-4.032Zm2.3,1.812c.06.756-.192,1.6-1.1,1.6-1.332,0-1.176-1.728-1.2-2.628h3.24c-.048-1.56.072-3.6-2.088-3.6-1.764,0-2.136,2.1-2.136,3.5C3.84-.66,4.74.18,6,.18a2.037,2.037,0,0,0,2.016-2.4ZM9.936-6.672H9.024V0h.948V-4.044c0-1.212.72-1.98,1.944-1.764v-.936A1.738,1.738,0,0,0,9.96-5.58H9.936ZM13.848.156c-.264.66-.288,1.32-1.176,1.32a1.822,1.822,0,0,1-.708-.144v.84a2.261,2.261,0,0,0,.684.108A1.576,1.576,0,0,0,14.172,1.4a12.426,12.426,0,0,0,.612-1.7l1.98-6.372H15.78L14.232-.888h-.024l-1.5-5.784h-.984Z" transform="translate(-924 -5610)" fill="#4e443b"/>
    <path data-idr="Path_3405" data-name="Path 3405" d="M-4.211-3.819a7.336,7.336,0,0,0,.22,2.054.887.887,0,0,0,.9.712.874.874,0,0,0,.894-.712,7.6,7.6,0,0,0,.212-2.054A7.517,7.517,0,0,0-2.194-5.9a.867.867,0,0,0-.894-.677.879.879,0,0,0-.9.677A7.254,7.254,0,0,0-4.211-3.819Zm1.123-4.023A2.2,2.2,0,0,1-1-6.794,6.061,6.061,0,0,1-.4-3.819,6.028,6.028,0,0,1-1-.849,2.2,2.2,0,0,1-3.088.193,2.2,2.2,0,0,1-5.175-.849a6.028,6.028,0,0,1-.6-2.97,6.061,6.061,0,0,1,.6-2.976A2.2,2.2,0,0,1-3.088-7.842ZM1.88-2.465a1.527,1.527,0,0,0,.338,1.026,1.079,1.079,0,0,0,.859.4.954.954,0,0,0,.8-.384,1.6,1.6,0,0,0,.293-1A1.491,1.491,0,0,0,3.84-3.467a1.066,1.066,0,0,0-.816-.363,1.09,1.09,0,0,0-.693.236A1.338,1.338,0,0,0,1.88-2.465ZM4.034-5.828a.781.781,0,0,0-.145-.414.841.841,0,0,0-.747-.365,1.1,1.1,0,0,0-1.063.838A5.2,5.2,0,0,0,1.842-4.4,1.718,1.718,0,0,1,2.5-4.9a2.229,2.229,0,0,1,.859-.156,2.233,2.233,0,0,1,1.7.7,2.518,2.518,0,0,1,.663,1.8,3.037,3.037,0,0,1-.65,1.923A2.4,2.4,0,0,1,3.056.2a2.324,2.324,0,0,1-2.17-1.23A5.015,5.015,0,0,1,.344-3.507a11.284,11.284,0,0,1,.075-1.45A4.435,4.435,0,0,1,.94-6.612a2.666,2.666,0,0,1,.873-.908A2.354,2.354,0,0,1,3.1-7.863a2.557,2.557,0,0,1,1.729.556,2.114,2.114,0,0,1,.725,1.48Z" transform="translate(-924 -5669.623)" fill="#4e443b"/>
    <rect data-idr="Rectangle_131" data-name="Rectangle 131" width="151.963" height="20.292" transform="translate(-1365 -5590)" fill="#f6f4e8"/>
    <path data-idr="Path_3412" data-name="Path 3412" d="M-37.362,0h1.1l.66-2.592h2.844L-32.046,0h1.1l-2.532-9h-1.32Zm4.38-3.492h-2.376L-34.17-8.28h.024Zm3.948.324c0-.972-.084-2.88,1.32-2.88,1.212,0,1.272,1.716,1.272,2.592,0,1.8-.276,2.832-1.26,2.832C-29.046-.624-29.034-2.2-29.034-3.168Zm-.024,2.376h.024A1.571,1.571,0,0,0-27.51.18c1.8,0,2.052-2.052,2.052-3.948,0-1.368-.408-3.084-2.1-3.084a1.547,1.547,0,0,0-1.392.864h-.024V-9h-.948V0h.864Zm9.624-2.772c0-2.016-.744-3.288-2.388-3.288S-24.21-5.58-24.21-3.564c0,2.88.948,3.744,2.388,3.744C-20.358.18-19.434-.672-19.434-3.564Zm-.984.3c0,1.572-.276,2.64-1.4,2.64-1.1,0-1.4-1.068-1.4-2.64,0-2.016.432-2.784,1.4-2.784C-20.826-6.048-20.418-5.28-20.418-3.264ZM-14.682,0h.948V-6.672h-.948v4.284a2.24,2.24,0,0,1-.276,1.176,1.358,1.358,0,0,1-1.14.588c-.672,0-.852-.3-.852-.864V-6.672H-17.9v5.148c0,1.176.612,1.7,1.608,1.7A1.751,1.751,0,0,0-14.706-.876h.024Zm3.828-8.484h-.936v1.812h-.924v.8h.924v4.776c0,1.008.42,1.1.984,1.092h1.044V-.8H-10.4c-.528,0-.444-.288-.444-.516V-5.868h1.1v-.8h-1.116Zm8.2,4.8A3.394,3.394,0,0,0-1.206-6.492,2.218,2.218,0,0,0-3.522-9a2.29,2.29,0,0,0-1.788.708,2.834,2.834,0,0,0-.576,1.8v.552h1c-.024-.948.084-2.16,1.32-2.16,1.02,0,1.332.672,1.332,1.584A2.3,2.3,0,0,1-3.174-4.5L-4.89-2.844a3.128,3.128,0,0,0-.708.9A5.258,5.258,0,0,0-5.958,0h4.836V-.9h-3.8a1.678,1.678,0,0,1,.648-1.308ZM2.97-3.3v-1H.054v1Zm2.8-.888C7.278-4.2,7.878-3.9,7.878-2.328A1.412,1.412,0,0,1,6.426-.72c-1.284,0-1.56-.96-1.476-1.92H3.966C3.93-1.008,4.542.18,6.342.18S8.874-.972,8.874-2.652a1.915,1.915,0,0,0-1.5-2.076v-.024a1.852,1.852,0,0,0,1.26-2.016A2.107,2.107,0,0,0,6.39-9c-1.632,0-2.3,1.152-2.256,2.664h.948c0-.924.156-1.764,1.284-1.764,1,0,1.26.6,1.26,1.476,0,1.656-1.068,1.488-1.86,1.536ZM16.65-2.616c0,.756-.276,1.992-1.26,1.992-1.3,0-1.344-1.308-1.344-2.748,0-2.052.516-2.676,1.308-2.676,1.272,0,1.3,1.692,1.3,2.6Zm0-3.372h-.024a1.785,1.785,0,0,0-1.536-.864c-1.428,0-2.076,1.548-2,3.5C13.11-2.76,12.942.18,15.042.18a1.58,1.58,0,0,0,1.62-1.056h.024V0H17.6V-9H16.65Zm5.3,4.008A1.22,1.22,0,0,1,20.8-.624c-.768,0-.936-.432-.936-1.1a1.189,1.189,0,0,1,.588-1.152c.5-.24,1.032-.444,1.5-.72ZM23.514-.7a1.166,1.166,0,0,1-.408-.012c-.192-.1-.168-.336-.168-.5V-5.04a1.6,1.6,0,0,0-1.812-1.812c-1.344,0-2.028.6-1.98,1.98H20c-.012-.78.108-1.176.972-1.176.768,0,1.056.288,1.056,1.044,0,.348.024.612-.18.768-.12.1-1.464.6-2,.84a1.706,1.706,0,0,0-.96,1.62C18.882-.564,19.266.18,20.6.18A1.692,1.692,0,0,0,22.074-.9H22.1c.1.912.4.984,1.2.948A1.4,1.4,0,0,1,23.514,0Zm2.508.852c-.264.66-.288,1.32-1.176,1.32a1.822,1.822,0,0,1-.708-.144v.84a2.261,2.261,0,0,0,.684.108A1.576,1.576,0,0,0,26.346,1.4a12.425,12.425,0,0,0,.612-1.7l1.98-6.372h-.984L26.406-.888h-.024l-1.5-5.784H23.9Zm7.7-5.04c.024-1.368-.744-1.968-2.064-1.968a1.815,1.815,0,0,0-1.956,1.884c0,1.164.6,1.512,1.632,1.9.684.288,1.644.372,1.644,1.32,0,.816-.5,1.128-1.272,1.128-.888,0-1.164-.5-1.128-1.32h-.9a2.043,2.043,0,0,0,.372,1.428,2,2,0,0,0,1.656.7,2.007,2.007,0,0,0,2.256-2.052c0-1.248-.96-1.488-1.92-1.92C31.4-4.068,30.69-4.176,30.69-5.04c0-.7.384-1.008,1.056-1.008.8,0,1.092.372,1.056,1.164Z" transform="translate(-1289 -5576)" fill="#4e443b"/>
    <path data-idr="Path_3384" data-name="Path 3384" d="M0,0H176V20.292H0Z" transform="translate(-1211 -5590)" fill="#f6f4e8"/>
    <path data-idr="Path_3413" data-name="Path 3413" d="M-33.7,0h1.1l.66-2.592h2.844L-28.386,0h1.1l-2.532-9h-1.32Zm4.38-3.492H-31.7L-30.51-8.28h.024Zm3.948.324c0-.972-.084-2.88,1.32-2.88,1.212,0,1.272,1.716,1.272,2.592,0,1.8-.276,2.832-1.26,2.832C-25.386-.624-25.374-2.2-25.374-3.168ZM-25.4-.792h.024A1.571,1.571,0,0,0-23.85.18c1.8,0,2.052-2.052,2.052-3.948,0-1.368-.408-3.084-2.1-3.084a1.547,1.547,0,0,0-1.392.864h-.024V-9h-.948V0h.864Zm9.624-2.772c0-2.016-.744-3.288-2.388-3.288S-20.55-5.58-20.55-3.564c0,2.88.948,3.744,2.388,3.744C-16.7.18-15.774-.672-15.774-3.564Zm-.984.3c0,1.572-.276,2.64-1.4,2.64-1.1,0-1.4-1.068-1.4-2.64,0-2.016.432-2.784,1.4-2.784C-17.166-6.048-16.758-5.28-16.758-3.264ZM-11.022,0h.948V-6.672h-.948v4.284A2.24,2.24,0,0,1-11.3-1.212a1.358,1.358,0,0,1-1.14.588c-.672,0-.852-.3-.852-.864V-6.672h-.948v5.148c0,1.176.612,1.7,1.608,1.7A1.751,1.751,0,0,0-11.046-.876h.024Zm3.828-8.484H-8.13v1.812h-.924v.8h.924v4.776c0,1.008.42,1.1.984,1.092H-6.1V-.8h-.636c-.528,0-.444-.288-.444-.516V-5.868h1.1v-.8H-7.194ZM-.018,0h1V-9H.2C.054-7.6-.654-7.356-1.938-7.332v.78h1.92ZM6.63-3.3v-1H3.714v1ZM11-3.684A3.394,3.394,0,0,0,12.45-6.492,2.218,2.218,0,0,0,10.134-9a2.29,2.29,0,0,0-1.788.708,2.834,2.834,0,0,0-.576,1.8v.552h1c-.024-.948.084-2.16,1.32-2.16,1.02,0,1.332.672,1.332,1.584A2.3,2.3,0,0,1,10.482-4.5L8.766-2.844a3.128,3.128,0,0,0-.708.9A5.258,5.258,0,0,0,7.7,0h4.836V-.9H8.73a1.678,1.678,0,0,1,.648-1.308Zm4.032-.78a1.419,1.419,0,0,1,.408-1.212,1.357,1.357,0,0,1,.936-.372c.768,0,1,.468,1,1.164V0h.948V-4.464a1.435,1.435,0,0,1,.432-1.212,1.377,1.377,0,0,1,.888-.372c.816,0,1.02.42,1.02,1.164V0h.948V-4.824a2.12,2.12,0,0,0-.408-1.56,1.8,1.8,0,0,0-1.224-.468A1.993,1.993,0,0,0,18.186-5.8,1.741,1.741,0,0,0,16.6-6.852,1.874,1.874,0,0,0,15.018-5.82h-.024v-.852h-.912V0h.948Zm12.864.9c0-2.016-.744-3.288-2.388-3.288S23.118-5.58,23.118-3.564c0,2.88.948,3.744,2.388,3.744C26.97.18,27.894-.672,27.894-3.564Zm-.984.3c0,1.572-.276,2.64-1.4,2.64-1.1,0-1.4-1.068-1.4-2.64,0-2.016.432-2.784,1.4-2.784C26.5-6.048,26.91-5.28,26.91-3.264Zm6.156-1.62C33.09-6.252,32.322-6.852,31-6.852a1.815,1.815,0,0,0-1.956,1.884c0,1.164.6,1.512,1.632,1.9.684.288,1.644.372,1.644,1.32,0,.816-.5,1.128-1.272,1.128-.888,0-1.164-.5-1.128-1.32h-.9a2.043,2.043,0,0,0,.372,1.428,2,2,0,0,0,1.656.7,2.007,2.007,0,0,0,2.256-2.052c0-1.248-.96-1.488-1.92-1.92-.648-.276-1.356-.384-1.356-1.248,0-.7.384-1.008,1.056-1.008.8,0,1.092.372,1.056,1.164Z" transform="translate(-1123 -5576)" fill="#4e443b"/>
    <path data-idr="Path_3383" data-name="Path 3383" d="M10,0H144.443V20.292H10Z" transform="translate(-1043 -5590)" fill="#f6f4e8"/>
    <path data-idr="Path_3414" data-name="Path 3414" d="M-33.7,0h1.1l.66-2.592h2.844L-28.386,0h1.1l-2.532-9h-1.32Zm4.38-3.492H-31.7L-30.51-8.28h.024Zm3.948.324c0-.972-.084-2.88,1.32-2.88,1.212,0,1.272,1.716,1.272,2.592,0,1.8-.276,2.832-1.26,2.832C-25.386-.624-25.374-2.2-25.374-3.168ZM-25.4-.792h.024A1.571,1.571,0,0,0-23.85.18c1.8,0,2.052-2.052,2.052-3.948,0-1.368-.408-3.084-2.1-3.084a1.547,1.547,0,0,0-1.392.864h-.024V-9h-.948V0h.864Zm9.624-2.772c0-2.016-.744-3.288-2.388-3.288S-20.55-5.58-20.55-3.564c0,2.88.948,3.744,2.388,3.744C-16.7.18-15.774-.672-15.774-3.564Zm-.984.3c0,1.572-.276,2.64-1.4,2.64-1.1,0-1.4-1.068-1.4-2.64,0-2.016.432-2.784,1.4-2.784C-17.166-6.048-16.758-5.28-16.758-3.264ZM-11.022,0h.948V-6.672h-.948v4.284A2.24,2.24,0,0,1-11.3-1.212a1.358,1.358,0,0,1-1.14.588c-.672,0-.852-.3-.852-.864V-6.672h-.948v5.148c0,1.176.612,1.7,1.608,1.7A1.751,1.751,0,0,0-11.046-.876h.024Zm3.828-8.484H-8.13v1.812h-.924v.8h.924v4.776c0,1.008.42,1.1.984,1.092H-6.1V-.8h-.636c-.528,0-.444-.288-.444-.516V-5.868h1.1v-.8H-7.194Zm6.624,4.3C.942-4.2,1.542-3.9,1.542-2.328A1.412,1.412,0,0,1,.09-.72c-1.284,0-1.56-.96-1.476-1.92H-2.37C-2.406-1.008-1.794.18.006.18S2.538-.972,2.538-2.652a1.915,1.915,0,0,0-1.5-2.076v-.024A1.852,1.852,0,0,0,2.3-6.768,2.107,2.107,0,0,0,.054-9C-1.578-9-2.25-7.848-2.2-6.336h.948C-1.254-7.26-1.1-8.1.03-8.1c1,0,1.26.6,1.26,1.476C1.29-4.968.222-5.136-.57-5.088Zm7.2.888v-1H3.714v1Zm4.128-4.14h.024v4.3H8.3ZM7.506-3.168v.924h3.276V0h1V-2.244h.8v-.9h-.8V-9h-.912Zm7.524-1.3a1.419,1.419,0,0,1,.408-1.212,1.357,1.357,0,0,1,.936-.372c.768,0,1,.468,1,1.164V0h.948V-4.464a1.435,1.435,0,0,1,.432-1.212,1.377,1.377,0,0,1,.888-.372c.816,0,1.02.42,1.02,1.164V0h.948V-4.824a2.12,2.12,0,0,0-.408-1.56,1.8,1.8,0,0,0-1.224-.468A1.993,1.993,0,0,0,18.186-5.8,1.741,1.741,0,0,0,16.6-6.852,1.874,1.874,0,0,0,15.018-5.82h-.024v-.852h-.912V0h.948Zm12.864.9c0-2.016-.744-3.288-2.388-3.288S23.118-5.58,23.118-3.564c0,2.88.948,3.744,2.388,3.744C26.97.18,27.894-.672,27.894-3.564Zm-.984.3c0,1.572-.276,2.64-1.4,2.64-1.1,0-1.4-1.068-1.4-2.64,0-2.016.432-2.784,1.4-2.784C26.5-6.048,26.91-5.28,26.91-3.264Zm6.156-1.62C33.09-6.252,32.322-6.852,31-6.852a1.815,1.815,0,0,0-1.956,1.884c0,1.164.6,1.512,1.632,1.9.684.288,1.644.372,1.644,1.32,0,.816-.5,1.128-1.272,1.128-.888,0-1.164-.5-1.128-1.32h-.9a2.043,2.043,0,0,0,.372,1.428,2,2,0,0,0,1.656.7,2.007,2.007,0,0,0,2.256-2.052c0-1.248-.96-1.488-1.92-1.92-.648-.276-1.356-.384-1.356-1.248,0-.7.384-1.008,1.056-1.008.8,0,1.092.372,1.056,1.164Z" transform="translate(-966 -5576)" fill="#4e443b"/>
    <path data-idr="Icon_awesome-user-tie" data-name="Icon awesome-user-tie" d="M10.1,11.546A5.773,5.773,0,1,0,4.33,5.773,5.772,5.772,0,0,0,10.1,11.546Zm4.321,1.47-2.156,8.632-1.443-6.134,1.443-2.526H7.938l1.443,2.526L7.938,21.648,5.782,13.016A6.051,6.051,0,0,0,0,19.05v1.876a2.165,2.165,0,0,0,2.165,2.165H18.04A2.165,2.165,0,0,0,20.2,20.926V19.05a6.051,6.051,0,0,0-5.782-6.034Z" transform="translate(-1256 -5659)" fill="#9a2327"/>
    <path data-idr="Icon_awesome-clipboard-list" data-name="Icon awesome-clipboard-list" d="M15.154,2.886H11.546a2.886,2.886,0,1,0-5.773,0H2.165A2.165,2.165,0,0,0,0,5.051V20.926a2.165,2.165,0,0,0,2.165,2.165H15.154a2.165,2.165,0,0,0,2.165-2.165V5.051A2.165,2.165,0,0,0,15.154,2.886ZM4.33,19.122A1.082,1.082,0,1,1,5.412,18.04,1.08,1.08,0,0,1,4.33,19.122Zm0-4.33A1.082,1.082,0,1,1,5.412,13.71,1.08,1.08,0,0,1,4.33,14.793Zm0-4.33A1.082,1.082,0,1,1,5.412,9.381,1.08,1.08,0,0,1,4.33,10.463ZM8.659,1.8A1.082,1.082,0,1,1,7.577,2.886,1.08,1.08,0,0,1,8.659,1.8Zm5.773,16.6a.362.362,0,0,1-.361.361H7.577a.362.362,0,0,1-.361-.361v-.722a.362.362,0,0,1,.361-.361h6.494a.362.362,0,0,1,.361.361Zm0-4.33a.362.362,0,0,1-.361.361H7.577a.362.362,0,0,1-.361-.361V13.35a.362.362,0,0,1,.361-.361h6.494a.362.362,0,0,1,.361.361Zm0-4.33a.362.362,0,0,1-.361.361H7.577a.362.362,0,0,1-.361-.361V9.02a.362.362,0,0,1,.361-.361h6.494a.362.362,0,0,1,.361.361Z" transform="translate(-1162 -5659)" fill="#9a2327"/>
    <g data-idr="Group_307" data-name="Group 307" transform="translate(37.478 201.533)">
      <path data-idr="Path_3359" data-name="Path 3359" d="M71.909,0H82.783a.815.815,0,0,1,.809.809V10.858a.815.815,0,0,1-.809.809H71.909a.815.815,0,0,1-.809-.809V.809A.815.815,0,0,1,71.909,0Z" transform="translate(-1033.719 -5857.533)" fill="#9a2327"/>
      <path data-idr="Path_3360" data-name="Path 3360" d="M9.606,26.887V18.564a.756.756,0,0,0-.764-.764H4.337a.775.775,0,0,0-.6.29L0,22.7v6.124a.756.756,0,0,0,.764.764H3.146a2.718,2.718,0,0,1,2.169-1.1,2.676,2.676,0,0,1,2.169,1.1H16.31a2.718,2.718,0,0,1,2.169-1.1,2.676,2.676,0,0,1,2.169,1.1h1.97a.743.743,0,0,0,.733-.733v-.473a.724.724,0,0,0-.733-.733H10.369a.766.766,0,0,1-.764-.764Zm-2.779-2.81H2.841a.886.886,0,0,1-.886-.886v-.229a.977.977,0,0,1,.2-.565l2.107-2.611a.883.883,0,0,1,.687-.336H6.811a.886.886,0,0,1,.886.886v2.841a.868.868,0,0,1-.87.9Z" transform="translate(-973.478 -5872.615)" fill="#9a2327"/>
      <circle data-idr="Ellipse_15" data-name="Ellipse 15" cx="1.909" cy="1.909" r="1.909" transform="translate(-970.102 -5843.315)" fill="#9a2327"/>
      <circle data-idr="Ellipse_16" data-name="Ellipse 16" cx="1.909" cy="1.909" r="1.909" transform="translate(-956.893 -5843.315)" fill="#9a2327"/>
    </g>
    <g data-idr="Group_306" data-name="Group 306" transform="translate(41.435 201.432)">
      <path data-idr="Path_3361" data-name="Path 3361" d="M55.647,2.484,51.383,0,42.068,5.427l4.263,2.484Z" transform="translate(-1157.714 -5860.432)" fill="#9a2327"/>
      <path data-idr="Path_3362" data-name="Path 3362" d="M161.763,64.3l-9.315,5.427,3.475,2.025,9.315-5.427Z" transform="translate(-1262.254 -5921.335)" fill="#9a2327"/>
      <path data-idr="Path_3363" data-name="Path 3363" d="M233.131,134.034v10.854l9.31-5.424V128.61Z" transform="translate(-1338.669 -5982.238)" fill="#9a2327"/>
      <path data-idr="Path_3364" data-name="Path 3364" d="M27.169,139.464l9.31,5.424V134.034l-9.31-5.424Z" transform="translate(-1143.604 -5982.238)" fill="#9a2327"/>
    </g>
    <path data-idr="Subtraction_2" data-name="Subtraction 2" d="M21.942,20.442H1.079A1.089,1.089,0,0,1,0,19.346V1.1A1.089,1.089,0,0,1,1.079,0H6.115A1.089,1.089,0,0,1,7.194,1.1v8.957l6.255-4.039a1.06,1.06,0,0,1,.576-.173,1.091,1.091,0,0,1,1.083,1.1v3.115l6.255-4.039a1.061,1.061,0,0,1,.576-.173,1.091,1.091,0,0,1,1.083,1.1V19.346A1.089,1.089,0,0,1,21.942,20.442Zm-6.835-7.357V16.33h3.2V13.085Zm-7.673,0V16.33h3.2V13.085Z" transform="translate(-1004 -5657)" fill="#9a2327"/>
    <path data-idr="Icon_zocial-email" data-name="Icon zocial-email" d="M.072,18.958V5.515q0-.023.07-.443L8.054,11.84.165,19.425a1.978,1.978,0,0,1-.093-.467Zm1.05-14.82a1.006,1.006,0,0,1,.4-.07H22.827a1.322,1.322,0,0,1,.42.07l-7.935,6.791-1.05.84-2.077,1.7-2.077-1.7-1.05-.84Zm.023,16.2L9.1,12.7l3.081,2.5,3.081-2.5,7.958,7.632a1.121,1.121,0,0,1-.4.07H1.519a1.057,1.057,0,0,1-.373-.07Zm15.17-8.5L24.2,5.072a1.393,1.393,0,0,1,.07.443V18.958a1.789,1.789,0,0,1-.07.467Z" transform="translate(-1336.072 -5659.068)" fill="#9a2327"/>
  </g>
</svg>
