<svg xmlns="http://www.w3.org/2000/svg" width="481.493" height="112.87" viewBox="0 0 481.493 112.87">
  <g data-idr="Group_320" data-name="Group 320" transform="translate(1365 5682.579)">
    <path data-idr="Path_3377" data-name="Path 3377" d="M0,0H66L81.493,44.992,66,90H0" transform="translate(-1365 -5682.579)" fill="#f6f4e8"/>
    <path data-idr="Path_3377-2" data-name="Path 3377" d="M0,0H86l15.493,44.992L86,90H0L15.369,45.088Z" transform="translate(-1297 -5682.579)" fill="#f6f4e8"/>
    <path data-idr="Path_3377-3" data-name="Path 3377" d="M0,0H96l15.493,44.992L96,90H0L15.369,45.088Z" transform="translate(-1209 -5682.579)" fill="#f6f4e8"/>
    <path data-idr="Path_3377-4" data-name="Path 3377" d="M10,0H86l15.493,44.992L86,90H10L25.369,45.088Z" transform="translate(-1121 -5682.579)" fill="#f6f4e8"/>
    <path data-idr="Path_3377-5" data-name="Path 3377" d="M10,0H76L91.493,44.992,76,90H10L25.369,45.088Z" transform="translate(-1043 -5682.579)" fill="#f6f4e8"/>
    <path data-idr="Path_3377-6" data-name="Path 3377" d="M10,0H76L91.493,44.992,76,90H10L25.369,45.088Z" transform="translate(-975 -5682.579)" fill="#f6f4e8"/>
    <path data-idr="Path_3456" data-name="Path 3456" d="M-12.019,0V-.9h-3.672V-9h-1V0Zm2.148,0V-6.672h-.948V0Zm0-7.8V-9h-.948v1.2ZM-7.52-4.032c.036-.792.06-2.016,1.164-2.016S-5.3-4.812-5.264-4.032Zm2.3,1.812c.06.756-.192,1.6-1.1,1.6-1.332,0-1.176-1.728-1.2-2.628h3.24c-.048-1.56.072-3.6-2.088-3.6-1.764,0-2.136,2.1-2.136,3.5C-8.5-.66-7.6.18-6.344.18a2.037,2.037,0,0,0,2.016-2.4Zm-.336-5.268h.96l-1.2-1.692H-6.908L-8.1-7.488h.96l.792-1.128Zm3.66.816h-.924V0h.948V-4.464a1.435,1.435,0,0,1,.432-1.212A1.357,1.357,0,0,1-.5-6.048c.768,0,1,.468,1,1.164V0h.948V-5.148A1.5,1.5,0,0,0-.2-6.852a2.024,2.024,0,0,0-1.668.912h-.024ZM7.133-4.464a1.435,1.435,0,0,1,.432-1.212A1.357,1.357,0,0,1,8.5-6.048c.768,0,1,.468,1,1.164V0h.948V-5.148A1.5,1.5,0,0,0,8.8-6.852a1.952,1.952,0,0,0-1.644.912H7.133V-9H6.185V0h.948ZM17.273-2.631h-4.09A1.729,1.729,0,0,0,13.7-1.348,1.908,1.908,0,0,0,15.041-.9,2.965,2.965,0,0,0,16.8-1.471v1.1a4.029,4.029,0,0,1-2.168.516,2.684,2.684,0,0,1-2.077-.817,3.269,3.269,0,0,1-.753-2.3,3.2,3.2,0,0,1,.829-2.282,2.712,2.712,0,0,1,2.06-.882,2.365,2.365,0,0,1,1.9.791,3.284,3.284,0,0,1,.674,2.2Zm-1.312-.961a1.752,1.752,0,0,0-.346-1.14,1.155,1.155,0,0,0-.937-.407,1.319,1.319,0,0,0-.993.428,1.954,1.954,0,0,0-.5,1.119Zm.533-3.463h-.937l-.943-1.236-.92,1.236h-.908L14.1-8.977h1.078ZM14.766,2.039a.726.726,0,0,1-.513-.2.633.633,0,0,1-.214-.48.6.6,0,0,1,.22-.472A.751.751,0,0,1,14.766.7a.734.734,0,0,1,.51.19.61.61,0,0,1,.211.472.637.637,0,0,1-.211.48A.716.716,0,0,1,14.766,2.039Z" transform="translate(-1324 -5609)" fill="#4e443b"/>
    <path data-idr="Path_3445" data-name="Path 3445" d="M-4.211-3.819a7.336,7.336,0,0,0,.22,2.054.887.887,0,0,0,.9.712.874.874,0,0,0,.894-.712,7.6,7.6,0,0,0,.212-2.054A7.517,7.517,0,0,0-2.194-5.9a.867.867,0,0,0-.894-.677.879.879,0,0,0-.9.677A7.254,7.254,0,0,0-4.211-3.819Zm1.123-4.023A2.2,2.2,0,0,1-1-6.794,6.061,6.061,0,0,1-.4-3.819,6.028,6.028,0,0,1-1-.849,2.2,2.2,0,0,1-3.088.193,2.2,2.2,0,0,1-5.175-.849a6.028,6.028,0,0,1-.6-2.97,6.061,6.061,0,0,1,.6-2.976A2.2,2.2,0,0,1-3.088-7.842ZM.763-5.371V-6.413a6.751,6.751,0,0,0,1.013-.1,1.427,1.427,0,0,0,.75-.408,1.345,1.345,0,0,0,.3-.559,1.285,1.285,0,0,0,.059-.312H4.163V0H2.594V-5.371Z" transform="translate(-1324 -5669.623)" fill="#4e443b"/>
    <path data-idr="Path_3455" data-name="Path 3455" d="M-16.26-9h-1.1l2.7,5.508V0h1V-3.492L-10.944-9h-1.1L-14.16-4.488Zm6.336,4.968c.036-.792.06-2.016,1.164-2.016S-7.7-4.812-7.668-4.032Zm2.3,1.812c.06.756-.192,1.6-1.1,1.6-1.332,0-1.176-1.728-1.2-2.628h3.24c-.048-1.56.072-3.6-2.088-3.6-1.764,0-2.136,2.1-2.136,3.5,0,2.688.9,3.528,2.16,3.528a2.037,2.037,0,0,0,2.016-2.4Zm-.336-5.268H-7L-8.2-9.18H-9.312L-10.5-7.488h.96l.792-1.128ZM-2.556,0h.948V-6.672h-.948v4.284a2.24,2.24,0,0,1-.276,1.176,1.358,1.358,0,0,1-1.14.588c-.672,0-.852-.3-.852-.864V-6.672h-.948v5.148c0,1.176.612,1.7,1.608,1.7A1.751,1.751,0,0,0-2.58-.876h.024Zm6.48-6.048c.9,0,1.092.744,1.1,1.476h.888a2,2,0,0,0-1.98-2.28c-2.04,0-2.3,1.968-2.3,3.6C1.632-1.524,1.92.18,3.96.18c1.488,0,1.968-1.224,2-2.508h-.9c-.048.816-.144,1.7-1.176,1.7-1.212,0-1.272-1.548-1.272-2.424C2.616-4,2.544-6.048,3.924-6.048ZM11.322,0H10V-.937H9.981A1.985,1.985,0,0,1,8.158.141,1.92,1.92,0,0,1,6.773-.34a1.681,1.681,0,0,1-.5-1.271q0-1.7,1.957-1.98l1.781-.252q0-1.283-1.219-1.283a2.9,2.9,0,0,0-1.934.738V-5.578a4.217,4.217,0,0,1,2.191-.562A1.994,1.994,0,0,1,11.322-3.9ZM10.01-2.947l-1.26.176a2,2,0,0,0-.882.284.83.83,0,0,0-.3.729.8.8,0,0,0,.272.624,1.055,1.055,0,0,0,.729.243A1.346,1.346,0,0,0,9.6-1.327a1.548,1.548,0,0,0,.407-1.1ZM7.678-8.027H6.752L5.34-9.469H6.623Zm-.457.891L8.516-8.6H9.576l1.295,1.465H9.981l-.908-.838-.932.838ZM15.636,0h.948V-6.672h-.948v4.284a2.24,2.24,0,0,1-.276,1.176,1.358,1.358,0,0,1-1.14.588c-.672,0-.852-.3-.852-.864V-6.672H12.42v5.148c0,1.176.612,1.7,1.608,1.7A1.751,1.751,0,0,0,15.612-.876h.024ZM-17.232,14v-.9H-20.9V5h-1v9Zm5.226,0h-1.318v-.937h-.023a1.985,1.985,0,0,1-1.822,1.078,1.92,1.92,0,0,1-1.386-.48,1.681,1.681,0,0,1-.5-1.271q0-1.7,1.957-1.98l1.781-.252q0-1.283-1.219-1.283a2.9,2.9,0,0,0-1.934.738V8.422a4.217,4.217,0,0,1,2.191-.562A1.994,1.994,0,0,1-12.006,10.1Zm-1.312-2.947-1.26.176a2,2,0,0,0-.882.284.83.83,0,0,0-.3.729.8.8,0,0,0,.272.624,1.055,1.055,0,0,0,.729.243,1.346,1.346,0,0,0,1.028-.437,1.548,1.548,0,0,0,.407-1.1ZM-14.812,5.5l1.061-1.441h1.277L-13.886,5.5Zm2.332-.117a1.528,1.528,0,0,1-.554,1.069,1.794,1.794,0,0,1-1.187.407,1.771,1.771,0,0,1-1.2-.4,1.439,1.439,0,0,1-.5-1.072h.75q.064.7.973.7.861,0,.961-.7Zm2.448,1.941h-.924V14h.948V9.536a1.435,1.435,0,0,1,.432-1.212,1.357,1.357,0,0,1,.936-.372c.768,0,1,.468,1,1.164V14H-6.7V8.852a1.5,1.5,0,0,0-1.644-1.7,2.024,2.024,0,0,0-1.668.912h-.024Zm6.432.624c1.056,0,1.332,1.248,1.332,2.568,0,1.068.012,2.856-1.428,2.856-.936,0-1.212-1.08-1.212-2.712C-4.908,9.764-4.86,7.952-3.6,7.952Zm1.332.132h-.024A1.617,1.617,0,0,0-3.78,7.148c-1.764,0-2.112,2.064-2.112,3.468,0,2.688.876,3.564,2.136,3.564a1.569,1.569,0,0,0,1.44-.96h.024c-.012.732.144,2.244-1.392,2.244a.908.908,0,0,1-1.044-.828h-.924A1.775,1.775,0,0,0-3.66,16.268a2.066,2.066,0,0,0,1.836-.924,3.637,3.637,0,0,0,.5-2.148V7.328h-.948Zm5.436-.756H2.244V14h.948V9.536a1.435,1.435,0,0,1,.432-1.212,1.357,1.357,0,0,1,.936-.372c.768,0,1,.468,1,1.164V14H6.5V8.852a1.5,1.5,0,0,0-1.644-1.7,2.024,2.024,0,0,0-1.668.912H3.168ZM9.6,7.952c1.056,0,1.332,1.248,1.332,2.568,0,1.068.012,2.856-1.428,2.856-.936,0-1.212-1.08-1.212-2.712C8.292,9.764,8.34,7.952,9.6,7.952Zm1.332.132h-.024A1.617,1.617,0,0,0,9.42,7.148c-1.764,0-2.112,2.064-2.112,3.468,0,2.688.876,3.564,2.136,3.564a1.569,1.569,0,0,0,1.44-.96h.024c-.012.732.144,2.244-1.392,2.244a.908.908,0,0,1-1.044-.828H7.548A1.775,1.775,0,0,0,9.54,16.268a2.066,2.066,0,0,0,1.836-.924,3.637,3.637,0,0,0,.5-2.148V7.328h-.948Zm3.06,1.452a1.435,1.435,0,0,1,.432-1.212,1.357,1.357,0,0,1,.936-.372c.768,0,1,.468,1,1.164V14H17.3V8.852a1.5,1.5,0,0,0-1.644-1.7,1.952,1.952,0,0,0-1.644.912h-.024V5h-.948v9h.948Zm5.076.432c.036-.792.06-2.016,1.164-2.016s1.056,1.236,1.092,2.016Zm2.3,1.812c.06.756-.192,1.6-1.1,1.6-1.332,0-1.176-1.728-1.2-2.628h3.24c-.048-1.56.072-3.6-2.088-3.6-1.764,0-2.136,2.1-2.136,3.5,0,2.688.9,3.528,2.16,3.528a2.037,2.037,0,0,0,2.016-2.4Z" transform="translate(-1246 -5616)" fill="#4e443b"/>
    <path data-idr="Path_3446" data-name="Path 3446" d="M-4.211-3.819a7.336,7.336,0,0,0,.22,2.054.887.887,0,0,0,.9.712.874.874,0,0,0,.894-.712,7.6,7.6,0,0,0,.212-2.054A7.517,7.517,0,0,0-2.194-5.9a.867.867,0,0,0-.894-.677.879.879,0,0,0-.9.677A7.254,7.254,0,0,0-4.211-3.819Zm1.123-4.023A2.2,2.2,0,0,1-1-6.794,6.061,6.061,0,0,1-.4-3.819,6.028,6.028,0,0,1-1-.849,2.2,2.2,0,0,1-3.088.193,2.2,2.2,0,0,1-5.175-.849a6.028,6.028,0,0,1-.6-2.97,6.061,6.061,0,0,1,.6-2.976A2.2,2.2,0,0,1-3.088-7.842ZM.344,0A3.66,3.66,0,0,1,.7-1.531,4.328,4.328,0,0,1,2.25-3.18,11.344,11.344,0,0,0,3.62-4.265,1.6,1.6,0,0,0,4.1-5.382,1.238,1.238,0,0,0,3.824-6.2a.965.965,0,0,0-.784-.328.956.956,0,0,0-.951.521,2.584,2.584,0,0,0-.172.956H.43A3.759,3.759,0,0,1,.79-6.66,2.244,2.244,0,0,1,2.967-7.826a2.763,2.763,0,0,1,1.968.685,2.367,2.367,0,0,1,.731,1.813A2.451,2.451,0,0,1,5.15-3.792,5.142,5.142,0,0,1,4.036-2.8l-.613.435q-.576.408-.788.591a1.731,1.731,0,0,0-.357.424h3.4V0Z" transform="translate(-1246 -5669.623)" fill="#4e443b"/>
    <path data-idr="Path_3454" data-name="Path 3454" d="M-38.623,0h1.188l1.944-3.768L-33.583,0h1.224L-34.9-4.62-32.431-9h-1.176l-1.884,3.516L-37.375-9h-1.176l2.484,4.38Zm9.312-1.98A1.22,1.22,0,0,1-30.463-.624c-.768,0-.936-.432-.936-1.1a1.189,1.189,0,0,1,.588-1.152c.5-.24,1.032-.444,1.5-.72ZM-27.751-.7a1.166,1.166,0,0,1-.408-.012c-.192-.1-.168-.336-.168-.5V-5.04a1.6,1.6,0,0,0-1.812-1.812c-1.344,0-2.028.6-1.98,1.98h.852c-.012-.78.108-1.176.972-1.176.768,0,1.056.288,1.056,1.044,0,.348.024.612-.18.768-.12.1-1.464.6-2,.84a1.706,1.706,0,0,0-.96,1.62C-32.383-.564-32,.18-30.667.18A1.692,1.692,0,0,0-29.191-.9h.024c.1.912.4.984,1.2.948A1.4,1.4,0,0,1-27.751,0Zm-3.132-6.792h.8l1.572-1.692h-1.308Zm5.676,1.44c.9,0,1.092.744,1.1,1.476h.888a2,2,0,0,0-1.98-2.28c-2.04,0-2.3,1.968-2.3,3.6,0,1.728.288,3.432,2.328,3.432,1.488,0,1.968-1.224,2-2.508h-.9c-.048.816-.144,1.7-1.176,1.7-1.212,0-1.272-1.548-1.272-2.424C-26.515-4-26.587-6.048-25.207-6.048Zm5.878-1.212a.817.817,0,0,1-.571-.217.713.713,0,0,1-.237-.551.732.732,0,0,1,.237-.557.805.805,0,0,1,.571-.223.83.83,0,0,1,.586.223.727.727,0,0,1,.24.557.717.717,0,0,1-.24.542A.824.824,0,0,1-19.329-7.26ZM-18.655,0h-1.359V-6h1.359Zm-.668,2.039a.726.726,0,0,1-.513-.2.633.633,0,0,1-.214-.48.6.6,0,0,1,.22-.472A.751.751,0,0,1-19.323.7a.734.734,0,0,1,.51.19.61.61,0,0,1,.211.472.637.637,0,0,1-.211.48A.716.716,0,0,1-19.323,2.039Zm2.759-8.711h-.924V0h.948V-4.464a1.435,1.435,0,0,1,.432-1.212,1.357,1.357,0,0,1,.936-.372c.768,0,1,.468,1,1.164V0h.948V-5.148a1.5,1.5,0,0,0-1.644-1.7,2.024,2.024,0,0,0-1.668.912h-.024Zm5.424,2.208a1.435,1.435,0,0,1,.432-1.212,1.357,1.357,0,0,1,.936-.372c.768,0,1,.468,1,1.164V0h.948V-5.148a1.5,1.5,0,0,0-1.644-1.7,1.952,1.952,0,0,0-1.644.912h-.024V-9h-.948V0h.948ZM-.6-4.884c.024-1.368-.744-1.968-2.064-1.968A1.815,1.815,0,0,0-4.624-4.968c0,1.164.6,1.512,1.632,1.9.684.288,1.644.372,1.644,1.32,0,.816-.5,1.128-1.272,1.128-.888,0-1.164-.5-1.128-1.32h-.9A2.043,2.043,0,0,0-4.276-.516,2,2,0,0,0-2.62.18,2.007,2.007,0,0,0-.364-1.872c0-1.248-.96-1.488-1.92-1.92C-2.932-4.068-3.64-4.176-3.64-5.04c0-.7.384-1.008,1.056-1.008.8,0,1.092.372,1.056,1.164ZM5.054,0H3.736V-.937H3.712A1.985,1.985,0,0,1,1.89.141,1.92,1.92,0,0,1,.5-.34,1.681,1.681,0,0,1,0-1.611q0-1.7,1.957-1.98l1.781-.252q0-1.283-1.219-1.283a2.9,2.9,0,0,0-1.934.738V-5.578a4.217,4.217,0,0,1,2.191-.562A1.994,1.994,0,0,1,5.054-3.9ZM3.741-2.947l-1.26.176a2,2,0,0,0-.882.284.83.83,0,0,0-.3.729.8.8,0,0,0,.272.624,1.055,1.055,0,0,0,.729.243,1.346,1.346,0,0,0,1.028-.437,1.548,1.548,0,0,0,.407-1.1ZM2.025-9.2a4.9,4.9,0,0,1,.5-.023,1.566,1.566,0,0,1,.905.243.76.76,0,0,1,.354.659.848.848,0,0,1-.231.6.915.915,0,0,1-.577.287v.293H2.259v-.7q.674,0,.674-.422,0-.34-.521-.34a2.311,2.311,0,0,0-.387.053Zm5,2.527H6.1V0h.948V-4.464a1.435,1.435,0,0,1,.432-1.212,1.357,1.357,0,0,1,.936-.372c.768,0,1,.468,1,1.164V0h.948V-5.148a1.5,1.5,0,0,0-1.644-1.7,2.024,2.024,0,0,0-1.668.912H7.027Zm10.38,3.216c0,1.8-.312,2.832-1.3,2.832-1.308,0-1.272-1.8-1.272-2.724,0-.948.024-2.7,1.26-2.7C17.311-6.048,17.407-4.332,17.407-3.456ZM14.839-.7h.024A1.537,1.537,0,0,0,16.255.18c1.8,0,2.136-2.064,2.136-3.96,0-1.368-.492-3.072-2.184-3.072a1.59,1.59,0,0,0-1.38.924H14.8v-.744h-.912V2.256h.948Zm5.412-3.768a1.435,1.435,0,0,1,.432-1.212,1.357,1.357,0,0,1,.936-.372c.768,0,1,.468,1,1.164V0h.948V-5.148a1.5,1.5,0,0,0-1.644-1.7,1.952,1.952,0,0,0-1.644.912h-.024V-9H19.3V0h.948ZM29.318,0H28V-.937h-.023A1.985,1.985,0,0,1,26.154.141a1.92,1.92,0,0,1-1.386-.48,1.681,1.681,0,0,1-.5-1.271q0-1.7,1.957-1.98l1.781-.252q0-1.283-1.219-1.283a2.9,2.9,0,0,0-1.934.738V-5.578a4.217,4.217,0,0,1,2.191-.562A1.994,1.994,0,0,1,29.318-3.9ZM28.005-2.947l-1.26.176a2,2,0,0,0-.882.284.83.83,0,0,0-.3.729.8.8,0,0,0,.272.624,1.055,1.055,0,0,0,.729.243A1.346,1.346,0,0,0,27.6-1.327a1.548,1.548,0,0,0,.407-1.1Zm.264-7.143q.252-.023.563-.023a1.412,1.412,0,0,1,.864.246.788.788,0,0,1,.331.668.846.846,0,0,1-.229.6.9.9,0,0,1-.574.287v.287H28.5v-.7q.68,0,.68-.41,0-.352-.527-.352a2.311,2.311,0,0,0-.387.053Zm.516,2.953H27.87l-.926-.838-.908.838h-.891L26.435-8.6H27.5Zm2.567,2.673a1.419,1.419,0,0,1,.408-1.212,1.357,1.357,0,0,1,.936-.372c.768,0,1,.468,1,1.164V0h.948V-4.464a1.435,1.435,0,0,1,.432-1.212,1.377,1.377,0,0,1,.888-.372c.816,0,1.02.42,1.02,1.164V0h.948V-4.824a2.12,2.12,0,0,0-.408-1.56A1.8,1.8,0,0,0,36.3-6.852,1.993,1.993,0,0,0,34.507-5.8a1.741,1.741,0,0,0-1.584-1.056A1.874,1.874,0,0,0,31.339-5.82h-.024v-.852H30.4V0h.948ZM-43.627,5.9H-41.3V14h1V5.9h2.328V5h-5.652Zm7.044,3.636a1.435,1.435,0,0,1,.432-1.212,1.357,1.357,0,0,1,.936-.372c.768,0,1,.468,1,1.164V14h.948V8.852a1.5,1.5,0,0,0-1.644-1.7,1.952,1.952,0,0,0-1.644.912h-.024V5h-.948v9h.948Zm8.964.9c0-2.016-.744-3.288-2.388-3.288s-2.388,1.272-2.388,3.288c0,2.88.948,3.744,2.388,3.744C-28.543,14.18-27.619,13.328-27.619,10.436Zm-.984.3c0,1.572-.276,2.64-1.4,2.64-1.1,0-1.4-1.068-1.4-2.64,0-2.016.432-2.784,1.4-2.784C-29.011,7.952-28.6,8.72-28.6,10.736Zm-.6-4.224h.96l-1.2-1.692h-1.116l-1.188,1.692h.96l.792-1.128Zm3.4.816h-.924V14h.948V9.536a1.435,1.435,0,0,1,.432-1.212,1.357,1.357,0,0,1,.936-.372c.768,0,1,.468,1,1.164V14h.948V8.852a1.5,1.5,0,0,0-1.644-1.7,2.024,2.024,0,0,0-1.668.912h-.024Zm6.432.624c1.056,0,1.332,1.248,1.332,2.568,0,1.068.012,2.856-1.428,2.856-.936,0-1.212-1.08-1.212-2.712C-20.683,9.764-20.635,7.952-19.375,7.952Zm1.332.132h-.024a1.617,1.617,0,0,0-1.488-.936c-1.764,0-2.112,2.064-2.112,3.468,0,2.688.876,3.564,2.136,3.564a1.569,1.569,0,0,0,1.44-.96h.024c-.012.732.144,2.244-1.392,2.244a.908.908,0,0,1-1.044-.828h-.924a1.775,1.775,0,0,0,1.992,1.632,2.066,2.066,0,0,0,1.836-.924,3.637,3.637,0,0,0,.5-2.148V7.328h-.948Zm8.2,1.032c.024-1.368-.744-1.968-2.064-1.968a1.815,1.815,0,0,0-1.956,1.884c0,1.164.6,1.512,1.632,1.9.684.288,1.644.372,1.644,1.32,0,.816-.5,1.128-1.272,1.128-.888,0-1.164-.5-1.128-1.32h-.9a2.043,2.043,0,0,0,.372,1.428,2,2,0,0,0,1.656.7,2.007,2.007,0,0,0,2.256-2.052c0-1.248-.96-1.488-1.92-1.92-.648-.276-1.356-.384-1.356-1.248,0-.7.384-1.008,1.056-1.008.8,0,1.092.372,1.056,1.164Zm3.713,5.025A2.974,2.974,0,0,1-8.352,13.3a3.037,3.037,0,0,1-.829-2.229,3.16,3.16,0,0,1,.864-2.361,3.178,3.178,0,0,1,2.329-.85A2.878,2.878,0,0,1-3.8,8.686a3.191,3.191,0,0,1,.785,2.291,3.145,3.145,0,0,1-.847,2.3A3.041,3.041,0,0,1-6.134,14.141Zm.064-5.2a1.552,1.552,0,0,0-1.26.557,2.331,2.331,0,0,0-.463,1.535,2.2,2.2,0,0,0,.469,1.485,1.574,1.574,0,0,0,1.254.542,1.494,1.494,0,0,0,1.233-.533,2.36,2.36,0,0,0,.431-1.518,2.4,2.4,0,0,0-.431-1.529A1.487,1.487,0,0,0-6.069,8.943Zm1.43-2.971,1.055-1.441H-2.3L-3.714,5.973Zm.451.891h-.92l-.926-.838-.908.838h-.891L-6.538,5.4h1.055ZM1.255,5.516H.319V7.328H-.6v.8H.319v4.776c0,1.008.42,1.1.984,1.092H2.347v-.8H1.711c-.528,0-.444-.288-.444-.516V8.132h1.1v-.8H1.255ZM3.835,14V7.328H2.887V14Zm0-7.8V5H2.887V6.2ZM5.587,9.968c.036-.792.06-2.016,1.164-2.016S7.807,9.188,7.843,9.968Zm2.3,1.812c.06.756-.192,1.6-1.1,1.6-1.332,0-1.176-1.728-1.2-2.628h3.24c-.048-1.56.072-3.6-2.088-3.6-1.764,0-2.136,2.1-2.136,3.5,0,2.688.9,3.528,2.16,3.528a2.037,2.037,0,0,0,2.016-2.4ZM7.555,6.512h.96L7.315,4.82H6.2L5.011,6.512h.96l.792-1.128ZM12.955,14H13.9V7.328h-.948v4.284a2.24,2.24,0,0,1-.276,1.176,1.358,1.358,0,0,1-1.14.588c-.672,0-.852-.3-.852-.864V7.328H9.739v5.148c0,1.176.612,1.7,1.608,1.7a1.751,1.751,0,0,0,1.584-1.056h.024Zm6.48-6.048c.9,0,1.092.744,1.1,1.476h.888a2,2,0,0,0-1.98-2.28c-2.04,0-2.3,1.968-2.3,3.6,0,1.728.288,3.432,2.328,3.432,1.488,0,1.968-1.224,2-2.508h-.9c-.048.816-.144,1.7-1.176,1.7-1.212,0-1.272-1.548-1.272-2.424C18.127,10,18.055,7.952,19.435,7.952Zm3.732,1.584A1.435,1.435,0,0,1,23.6,8.324a1.357,1.357,0,0,1,.936-.372c.768,0,1,.468,1,1.164V14h.948V8.852a1.5,1.5,0,0,0-1.644-1.7,1.952,1.952,0,0,0-1.644.912h-.024V5h-.948v9h.948ZM30.883,14h.948V7.328h-.948v4.284a2.24,2.24,0,0,1-.276,1.176,1.358,1.358,0,0,1-1.14.588c-.672,0-.852-.3-.852-.864V7.328h-.948v5.148c0,1.176.612,1.7,1.608,1.7a1.751,1.751,0,0,0,1.584-1.056h.024Zm6.75,0H36.315v-.937h-.023a1.985,1.985,0,0,1-1.822,1.078,1.92,1.92,0,0,1-1.386-.48,1.681,1.681,0,0,1-.5-1.271q0-1.7,1.957-1.98l1.781-.252q0-1.283-1.219-1.283a2.9,2.9,0,0,0-1.934.738V8.422a4.217,4.217,0,0,1,2.191-.562A1.994,1.994,0,0,1,37.633,10.1Zm-1.312-2.947-1.26.176a2,2,0,0,0-.882.284.83.83,0,0,0-.3.729.8.8,0,0,0,.272.624,1.055,1.055,0,0,0,.729.243,1.346,1.346,0,0,0,1.028-.437,1.548,1.548,0,0,0,.407-1.1Zm.264-7.143q.252-.023.563-.023a1.412,1.412,0,0,1,.864.246.788.788,0,0,1,.331.668.846.846,0,0,1-.229.6.9.9,0,0,1-.574.287v.287h-.721v-.7q.68,0,.68-.41,0-.352-.527-.352a2.311,2.311,0,0,0-.387.053ZM37.1,6.863h-.914l-.926-.838-.908.838h-.891L34.751,5.4h1.066Zm2.507.465h-.924V14h.948V9.536a1.435,1.435,0,0,1,.432-1.212A1.357,1.357,0,0,1,41,7.952c.768,0,1,.468,1,1.164V14h.948V8.852a1.5,1.5,0,0,0-1.644-1.7,2.024,2.024,0,0,0-1.668.912h-.024Z" transform="translate(-1156 -5616)" fill="#4e443b"/>
    <path data-idr="Path_3447" data-name="Path 3447" d="M-4.211-3.819a7.336,7.336,0,0,0,.22,2.054.887.887,0,0,0,.9.712.874.874,0,0,0,.894-.712,7.6,7.6,0,0,0,.212-2.054A7.517,7.517,0,0,0-2.194-5.9a.867.867,0,0,0-.894-.677.879.879,0,0,0-.9.677A7.254,7.254,0,0,0-4.211-3.819Zm1.123-4.023A2.2,2.2,0,0,1-1-6.794,6.061,6.061,0,0,1-.4-3.819,6.028,6.028,0,0,1-1-.849,2.2,2.2,0,0,1-3.088.193,2.2,2.2,0,0,1-5.175-.849a6.028,6.028,0,0,1-.6-2.97,6.061,6.061,0,0,1,.6-2.976A2.2,2.2,0,0,1-3.088-7.842ZM1.794-2.39a1.754,1.754,0,0,0,.15.773,1.028,1.028,0,0,0,1.013.564,1.121,1.121,0,0,0,.785-.309,1.149,1.149,0,0,0,.335-.889,1,1,0,0,0-.621-1.026,3.144,3.144,0,0,0-1.114-.145v-1.1A2.879,2.879,0,0,0,3.38-4.662a.9.9,0,0,0,.508-.913,1.022,1.022,0,0,0-.26-.725A.949.949,0,0,0,2.9-6.58a.924.924,0,0,0-.8.344,1.461,1.461,0,0,0-.244.918H.43a3.847,3.847,0,0,1,.2-1.1,2.479,2.479,0,0,1,.59-.843,2.056,2.056,0,0,1,.714-.419,3.085,3.085,0,0,1,1.014-.145,2.7,2.7,0,0,1,1.8.577A1.924,1.924,0,0,1,5.43-5.7a1.713,1.713,0,0,1-.408,1.16,1.394,1.394,0,0,1-.537.4,1.1,1.1,0,0,1,.6.36,1.922,1.922,0,0,1,.585,1.482A2.5,2.5,0,0,1,4.988-.556,2.606,2.606,0,0,1,2.962.193a2.45,2.45,0,0,1-2.3-1.08A3.207,3.207,0,0,1,.29-2.39Z" transform="translate(-1153 -5669.623)" fill="#4e443b"/>
    <path data-idr="Path_3453" data-name="Path 3453" d="M-23.88,0V-.9h-3.672V-9h-1V0Zm3.18-1.98A1.22,1.22,0,0,1-21.852-.624c-.768,0-.936-.432-.936-1.1A1.189,1.189,0,0,1-22.2-2.88c.5-.24,1.032-.444,1.5-.72ZM-19.14-.7a1.166,1.166,0,0,1-.408-.012c-.192-.1-.168-.336-.168-.5V-5.04a1.6,1.6,0,0,0-1.812-1.812c-1.344,0-2.028.6-1.98,1.98h.852c-.012-.78.108-1.176.972-1.176.768,0,1.056.288,1.056,1.044,0,.348.024.612-.18.768-.12.1-1.464.6-2,.84a1.706,1.706,0,0,0-.96,1.62c0,1.212.384,1.956,1.716,1.956A1.693,1.693,0,0,0-20.58-.9h.024c.1.912.4.984,1.2.948A1.4,1.4,0,0,1-19.14,0ZM-23.052-9.18l1.572,1.692h.8L-21.744-9.18Zm5.5,4.716a1.419,1.419,0,0,1,.408-1.212,1.357,1.357,0,0,1,.936-.372c.768,0,1,.468,1,1.164V0h.948V-4.464a1.435,1.435,0,0,1,.432-1.212,1.377,1.377,0,0,1,.888-.372c.816,0,1.02.42,1.02,1.164V0h.948V-4.824a2.12,2.12,0,0,0-.408-1.56,1.8,1.8,0,0,0-1.224-.468A1.993,1.993,0,0,0-14.4-5.8a1.741,1.741,0,0,0-1.584-1.056A1.874,1.874,0,0,0-17.568-5.82h-.024v-.852H-18.5V0h.948Zm11.244-4.02h-.936v1.812h-.924v.8h.924v4.776c0,1.008.42,1.1.984,1.092H-5.22V-.8h-.636c-.528,0-.444-.288-.444-.516V-5.868h1.1v-.8H-6.312Zm2.592,4.02a1.435,1.435,0,0,1,.432-1.212,1.357,1.357,0,0,1,.936-.372c.768,0,1,.468,1,1.164V0h.948V-5.148a1.5,1.5,0,0,0-1.644-1.7A1.952,1.952,0,0,0-3.7-5.94H-3.72V-9h-.948V0h.948ZM5.973,0H4.614V-.932H4.59A1.976,1.976,0,0,1,2.727.129q-2.1,0-2.1-2.549V-6H1.983v3.445q0,1.617,1.254,1.617a1.252,1.252,0,0,0,.99-.445,1.715,1.715,0,0,0,.387-1.166V-6H5.768a.738.738,0,0,0,.551-.229.761.761,0,0,0,.223-.551,1.963,1.963,0,0,0-.117-.7h.92a2.346,2.346,0,0,1,.105.75q0,1.242-1.477,1.465Zm-3.4-9.2a4.9,4.9,0,0,1,.5-.023,1.566,1.566,0,0,1,.905.243.76.76,0,0,1,.354.659.848.848,0,0,1-.231.6.915.915,0,0,1-.577.287v.293H2.809v-.7q.674,0,.674-.422,0-.34-.521-.34a2.311,2.311,0,0,0-.387.053ZM11-4.464a1.419,1.419,0,0,1,.408-1.212,1.357,1.357,0,0,1,.936-.372c.768,0,1,.468,1,1.164V0h.948V-4.464a1.435,1.435,0,0,1,.432-1.212,1.377,1.377,0,0,1,.888-.372c.816,0,1.02.42,1.02,1.164V0h.948V-4.824a2.12,2.12,0,0,0-.408-1.56,1.8,1.8,0,0,0-1.224-.468A1.993,1.993,0,0,0,14.16-5.8a1.741,1.741,0,0,0-1.584-1.056A1.874,1.874,0,0,0,10.992-5.82h-.024v-.852h-.912V0H11ZM23.371,0H22.052V-.937h-.023A1.985,1.985,0,0,1,20.206.141a1.92,1.92,0,0,1-1.386-.48,1.681,1.681,0,0,1-.5-1.271q0-1.7,1.957-1.98l1.781-.252q0-1.283-1.219-1.283a2.9,2.9,0,0,0-1.934.738V-5.578A4.217,4.217,0,0,1,21.1-6.141,1.994,1.994,0,0,1,23.371-3.9ZM22.058-2.947l-1.26.176a2,2,0,0,0-.882.284.83.83,0,0,0-.3.729.8.8,0,0,0,.272.624,1.055,1.055,0,0,0,.729.243,1.346,1.346,0,0,0,1.028-.437,1.548,1.548,0,0,0,.407-1.1Zm1.008-7.389a1.446,1.446,0,0,1-.293.955,1.022,1.022,0,0,1-.832.352,2.27,2.27,0,0,1-.891-.217,2.254,2.254,0,0,0-.75-.211q-.48,0-.48.5h-.68q0-1.3,1.148-1.3a2.072,2.072,0,0,1,.844.217,1.981,1.981,0,0,0,.773.217q.469,0,.469-.516Zm-.135,3.2h-.92l-.932-.838-.9.838h-.891L20.576-8.6h1.061ZM27.684,0h.948V-6.672h-.948v4.284a2.24,2.24,0,0,1-.276,1.176,1.358,1.358,0,0,1-1.14.588c-.672,0-.852-.3-.852-.864V-6.672h-.948v5.148c0,1.176.612,1.7,1.608,1.7A1.751,1.751,0,0,0,27.66-.876h.024Z" transform="translate(-1065 -5609)" fill="#4e443b"/>
    <path data-idr="Path_3448" data-name="Path 3448" d="M-4.211-3.819a7.336,7.336,0,0,0,.22,2.054.887.887,0,0,0,.9.712.874.874,0,0,0,.894-.712,7.6,7.6,0,0,0,.212-2.054A7.517,7.517,0,0,0-2.194-5.9a.867.867,0,0,0-.894-.677.879.879,0,0,0-.9.677A7.254,7.254,0,0,0-4.211-3.819Zm1.123-4.023A2.2,2.2,0,0,1-1-6.794,6.061,6.061,0,0,1-.4-3.819,6.028,6.028,0,0,1-1-.849,2.2,2.2,0,0,1-3.088.193,2.2,2.2,0,0,1-5.175-.849a6.028,6.028,0,0,1-.6-2.97,6.061,6.061,0,0,1,.6-2.976A2.2,2.2,0,0,1-3.088-7.842ZM5.752-1.676H4.872V0h-1.5V-1.676H.29V-3.013L3.153-7.74H4.872v4.866h.881Zm-2.379-1.2V-6.228L1.429-2.874Z" transform="translate(-1065 -5669.623)" fill="#4e443b"/>
    <path data-idr="Path_3452" data-name="Path 3452" d="M-7.146-1.08c.612-.792.7-2.988.7-3.612,0-2.064-.324-4.488-3-4.488-2.628,0-2.94,2.424-2.94,4.488.024,2.5.336,4.908,2.964,4.908a2.761,2.761,0,0,0,1.8-.648l1.008.84.5-.624Zm-1.224.06a1.743,1.743,0,0,1-1.08.336c-1.536.048-1.92-1.608-1.908-3.612.012-2.6.276-3.984,1.932-3.984S-7.506-6.9-7.482-4.3a7.225,7.225,0,0,1-.408,2.58l-.84-.672-.528.66ZM-2.226,0h.948V-6.672h-.948v4.284A2.24,2.24,0,0,1-2.5-1.212a1.358,1.358,0,0,1-1.14.588c-.672,0-.852-.3-.852-.864V-6.672h-.948v5.148c0,1.176.612,1.7,1.608,1.7A1.751,1.751,0,0,0-2.25-.876h.024Zm6.75,0H3.206V-.937H3.183A1.985,1.985,0,0,1,1.36.141,1.92,1.92,0,0,1-.025-.34a1.681,1.681,0,0,1-.5-1.271q0-1.7,1.957-1.98l1.781-.252q0-1.283-1.219-1.283A2.9,2.9,0,0,0,.06-4.389V-5.578a4.217,4.217,0,0,1,2.191-.562A1.994,1.994,0,0,1,4.524-3.9ZM3.212-2.947l-1.26.176a2,2,0,0,0-.882.284.83.83,0,0,0-.3.729.8.8,0,0,0,.272.624,1.055,1.055,0,0,0,.729.243A1.346,1.346,0,0,0,2.8-1.327a1.548,1.548,0,0,0,.407-1.1ZM1.5-9.2a4.9,4.9,0,0,1,.5-.023,1.566,1.566,0,0,1,.905.243.76.76,0,0,1,.354.659.848.848,0,0,1-.231.6.915.915,0,0,1-.577.287v.293H1.729v-.7q.674,0,.674-.422,0-.34-.521-.34a2.311,2.311,0,0,0-.387.053Zm5,2.527H5.574V0h.948V-4.464a1.435,1.435,0,0,1,.432-1.212,1.357,1.357,0,0,1,.936-.372c.768,0,1,.468,1,1.164V0h.948V-5.148a1.5,1.5,0,0,0-1.644-1.7,2.024,2.024,0,0,0-1.668.912H6.5ZM-21.444,14V5h-.948v9Zm2.436.156c-.264.66-.288,1.32-1.176,1.32a1.822,1.822,0,0,1-.708-.144v.84a2.261,2.261,0,0,0,.684.108,1.576,1.576,0,0,0,1.524-.876,12.425,12.425,0,0,0,.612-1.7l1.98-6.372h-.984l-1.548,5.784h-.024l-1.5-5.784h-.984Zm-.312-7.644h.8l1.572-1.692h-1.308Zm9.816,2.6c.024-1.368-.744-1.968-2.064-1.968a1.815,1.815,0,0,0-1.956,1.884c0,1.164.6,1.512,1.632,1.9.684.288,1.644.372,1.644,1.32,0,.816-.5,1.128-1.272,1.128-.888,0-1.164-.5-1.128-1.32h-.9a2.043,2.043,0,0,0,.372,1.428,2,2,0,0,0,1.656.7,2.007,2.007,0,0,0,2.256-2.052c0-1.248-.96-1.488-1.92-1.92-.648-.276-1.356-.384-1.356-1.248,0-.7.384-1.008,1.056-1.008.8,0,1.092.372,1.056,1.164ZM-3.845,14H-5.164v-.937h-.023A1.985,1.985,0,0,1-7.01,14.141,1.92,1.92,0,0,1-8.4,13.66a1.681,1.681,0,0,1-.5-1.271q0-1.7,1.957-1.98l1.781-.252q0-1.283-1.219-1.283a2.9,2.9,0,0,0-1.934.738V8.422a4.217,4.217,0,0,1,2.191-.562A1.994,1.994,0,0,1-3.845,10.1Zm-1.312-2.947-1.26.176a2,2,0,0,0-.882.284.83.83,0,0,0-.3.729.8.8,0,0,0,.272.624,1.055,1.055,0,0,0,.729.243,1.346,1.346,0,0,0,1.028-.437,1.548,1.548,0,0,0,.407-1.1ZM-6.875,4.8a4.9,4.9,0,0,1,.5-.023,1.566,1.566,0,0,1,.905.243.76.76,0,0,1,.354.659.848.848,0,0,1-.231.6.915.915,0,0,1-.577.287v.293H-6.64v-.7q.674,0,.674-.422,0-.34-.521-.34a2.311,2.311,0,0,0-.387.053Zm5,2.527H-2.8V14h.948V9.536a1.435,1.435,0,0,1,.432-1.212A1.357,1.357,0,0,1-.48,7.952c.768,0,1,.468,1,1.164V14h.948V8.852A1.5,1.5,0,0,0-.18,7.148a2.024,2.024,0,0,0-1.668.912h-.024Zm8.148,3.24L4.236,14H5.22l1.6-2.664L8.376,14H9.36L7.368,10.568l1.92-3.24H8.3l-1.476,2.4L5.34,7.328H4.356ZM13,14h.948V7.328H13v4.284a2.24,2.24,0,0,1-.276,1.176,1.358,1.358,0,0,1-1.14.588c-.672,0-.852-.3-.852-.864V7.328H9.78v5.148c0,1.176.612,1.7,1.608,1.7a1.751,1.751,0,0,0,1.584-1.056H13Zm6.75,0H18.428v-.937H18.4a1.985,1.985,0,0,1-1.822,1.078,1.92,1.92,0,0,1-1.386-.48,1.681,1.681,0,0,1-.5-1.271q0-1.7,1.957-1.98l1.781-.252q0-1.283-1.219-1.283a2.9,2.9,0,0,0-1.934.738V8.422a4.217,4.217,0,0,1,2.191-.562A1.994,1.994,0,0,1,19.746,10.1Zm-1.312-2.947-1.26.176a2,2,0,0,0-.882.284.83.83,0,0,0-.3.729.8.8,0,0,0,.272.624,1.055,1.055,0,0,0,.729.243,1.346,1.346,0,0,0,1.028-.437,1.548,1.548,0,0,0,.407-1.1Zm.387-5.08,1.055-1.441h1.283L19.746,5.973Zm.451.891h-.92l-.926-.838-.908.838h-.891L16.922,5.4h1.055Zm2.616-1.347h-.936V7.328h-.924v.8h.924v4.776c0,1.008.42,1.1.984,1.092H22.98v-.8h-.636c-.528,0-.444-.288-.444-.516V8.132H23v-.8H21.888Z" transform="translate(-992 -5616)" fill="#4e443b"/>
    <path data-idr="Path_3449" data-name="Path 3449" d="M-4.211-3.819a7.336,7.336,0,0,0,.22,2.054.887.887,0,0,0,.9.712.874.874,0,0,0,.894-.712,7.6,7.6,0,0,0,.212-2.054A7.517,7.517,0,0,0-2.194-5.9a.867.867,0,0,0-.894-.677.879.879,0,0,0-.9.677A7.254,7.254,0,0,0-4.211-3.819Zm1.123-4.023A2.2,2.2,0,0,1-1-6.794,6.061,6.061,0,0,1-.4-3.819,6.028,6.028,0,0,1-1-.849,2.2,2.2,0,0,1-3.088.193,2.2,2.2,0,0,1-5.175-.849a6.028,6.028,0,0,1-.6-2.97,6.061,6.061,0,0,1,.6-2.976A2.2,2.2,0,0,1-3.088-7.842Zm4.9,5.758a1.479,1.479,0,0,0,.348.771.985.985,0,0,0,.75.271,1.011,1.011,0,0,0,.865-.4,1.642,1.642,0,0,0,.3-1.007A1.753,1.753,0,0,0,3.8-3.456a.975.975,0,0,0-.868-.411,1.49,1.49,0,0,0-.482.07.959.959,0,0,0-.541.478L.534-3.384l.547-4.3H5.366v1.3H2.185l-.279,1.7a3.194,3.194,0,0,1,.552-.306,2.336,2.336,0,0,1,.81-.124,2.431,2.431,0,0,1,1.684.65,2.419,2.419,0,0,1,.719,1.891A2.968,2.968,0,0,1,4.98-.645,2.516,2.516,0,0,1,2.909.2a2.749,2.749,0,0,1-1.824-.6A2.317,2.317,0,0,1,.29-2.084Z" transform="translate(-992 -5669.623)" fill="#4e443b"/>
    <path data-idr="Path_3451" data-name="Path 3451" d="M-15.042-4.62h-3v.9h2c.012,1.428-.156,3.12-2,3.036-1.776-.084-1.7-2.472-1.7-3.84,0-1.536.024-3.792,1.992-3.756,1.14.024,1.608.792,1.62,1.9h1.008A2.518,2.518,0,0,0-17.8-9.18c-2.6,0-2.976,2.52-2.976,4.62s.2,4.776,2.88,4.776a2,2,0,0,0,2.064-1.548h.024v1.4h.768ZM-12.882,0V-6.672h-.948V0Zm0-7.8V-9h-.948v1.2Zm3.7,5.82A1.22,1.22,0,0,1-10.338-.624c-.768,0-.936-.432-.936-1.1a1.189,1.189,0,0,1,.588-1.152c.5-.24,1.032-.444,1.5-.72ZM-7.626-.7a1.166,1.166,0,0,1-.408-.012c-.192-.1-.168-.336-.168-.5V-5.04a1.6,1.6,0,0,0-1.812-1.812c-1.344,0-2.028.6-1.98,1.98h.852c-.012-.78.108-1.176.972-1.176.768,0,1.056.288,1.056,1.044,0,.348.024.612-.18.768-.12.1-1.464.6-2,.84a1.706,1.706,0,0,0-.96,1.62c0,1.212.384,1.956,1.716,1.956A1.693,1.693,0,0,0-9.066-.9h.024c.1.912.4.984,1.2.948A1.4,1.4,0,0,1-7.626,0Zm5.112-2.868c0-2.016-.744-3.288-2.388-3.288S-7.29-5.58-7.29-3.564C-7.29-.684-6.342.18-4.9.18-3.438.18-2.514-.672-2.514-3.564Zm-.984.3c0,1.572-.276,2.64-1.4,2.64-1.1,0-1.4-1.068-1.4-2.64,0-2.016.432-2.784,1.4-2.784C-3.906-6.048-3.5-5.28-3.5-3.264Zm5.22-1.2a1.435,1.435,0,0,1,.432-1.212,1.357,1.357,0,0,1,.936-.372c.768,0,1,.468,1,1.164V0h.948V-5.148a1.5,1.5,0,0,0-1.644-1.7,1.952,1.952,0,0,0-1.644.912H1.722V-9H.774V0h.948ZM8.742-1.98A1.22,1.22,0,0,1,7.59-.624c-.768,0-.936-.432-.936-1.1A1.189,1.189,0,0,1,7.242-2.88c.5-.24,1.032-.444,1.5-.72ZM10.3-.7a1.166,1.166,0,0,1-.408-.012c-.192-.1-.168-.336-.168-.5V-5.04A1.6,1.6,0,0,0,7.914-6.852c-1.344,0-2.028.6-1.98,1.98h.852c-.012-.78.108-1.176.972-1.176.768,0,1.056.288,1.056,1.044,0,.348.024.612-.18.768-.12.1-1.464.6-2,.84a1.706,1.706,0,0,0-.96,1.62C5.67-.564,6.054.18,7.386.18A1.693,1.693,0,0,0,8.862-.9h.024c.1.912.4.984,1.2.948A1.4,1.4,0,0,1,10.3,0ZM6.39-9.18,7.962-7.488h.8L7.7-9.18Zm5.436,2.508H10.9V0h.948V-4.464a1.435,1.435,0,0,1,.432-1.212,1.357,1.357,0,0,1,.936-.372c.768,0,1,.468,1,1.164V0h.948V-5.148a1.5,1.5,0,0,0-1.644-1.7,2.024,2.024,0,0,0-1.668.912h-.024Zm6.432.624c1.056,0,1.332,1.248,1.332,2.568,0,1.068.012,2.856-1.428,2.856-.936,0-1.212-1.08-1.212-2.712C16.95-4.236,17-6.048,18.258-6.048Zm1.332.132h-.024a1.617,1.617,0,0,0-1.488-.936c-1.764,0-2.112,2.064-2.112,3.468C15.966-.7,16.842.18,18.1.18a1.569,1.569,0,0,0,1.44-.96h.024c-.012.732.144,2.244-1.392,2.244A.908.908,0,0,1,17.13.636h-.924A1.775,1.775,0,0,0,18.2,2.268a2.066,2.066,0,0,0,1.836-.924,3.637,3.637,0,0,0,.5-2.148V-6.672H19.59Z" transform="translate(-924 -5610)" fill="#4e443b"/>
    <path data-idr="Path_3450" data-name="Path 3450" d="M-4.211-3.819a7.336,7.336,0,0,0,.22,2.054.887.887,0,0,0,.9.712.874.874,0,0,0,.894-.712,7.6,7.6,0,0,0,.212-2.054A7.517,7.517,0,0,0-2.194-5.9a.867.867,0,0,0-.894-.677.879.879,0,0,0-.9.677A7.254,7.254,0,0,0-4.211-3.819Zm1.123-4.023A2.2,2.2,0,0,1-1-6.794,6.061,6.061,0,0,1-.4-3.819,6.028,6.028,0,0,1-1-.849,2.2,2.2,0,0,1-3.088.193,2.2,2.2,0,0,1-5.175-.849a6.028,6.028,0,0,1-.6-2.97,6.061,6.061,0,0,1,.6-2.976A2.2,2.2,0,0,1-3.088-7.842ZM1.88-2.465a1.527,1.527,0,0,0,.338,1.026,1.079,1.079,0,0,0,.859.4.954.954,0,0,0,.8-.384,1.6,1.6,0,0,0,.293-1A1.491,1.491,0,0,0,3.84-3.467a1.066,1.066,0,0,0-.816-.363,1.09,1.09,0,0,0-.693.236A1.338,1.338,0,0,0,1.88-2.465ZM4.034-5.828a.781.781,0,0,0-.145-.414.841.841,0,0,0-.747-.365,1.1,1.1,0,0,0-1.063.838A5.2,5.2,0,0,0,1.842-4.4,1.718,1.718,0,0,1,2.5-4.9a2.229,2.229,0,0,1,.859-.156,2.233,2.233,0,0,1,1.7.7,2.518,2.518,0,0,1,.663,1.8,3.037,3.037,0,0,1-.65,1.923A2.4,2.4,0,0,1,3.056.2a2.324,2.324,0,0,1-2.17-1.23A5.015,5.015,0,0,1,.344-3.507a11.284,11.284,0,0,1,.075-1.45A4.435,4.435,0,0,1,.94-6.612a2.666,2.666,0,0,1,.873-.908A2.354,2.354,0,0,1,3.1-7.863a2.557,2.557,0,0,1,1.729.556,2.114,2.114,0,0,1,.725,1.48Z" transform="translate(-924 -5669.623)" fill="#4e443b"/>
    <rect data-idr="Rectangle_131" data-name="Rectangle 131" width="151.963" height="20.292" transform="translate(-1365 -5590)" fill="#f6f4e8"/>
    <path data-idr="Path_3457" data-name="Path 3457" d="M-38.838,0V-3.12l.936-1.224L-35.466,0h1.224l-2.952-5.232L-34.326-9h-1.248l-3.252,4.62h-.024V-9h-1V0Zm6.54-4.464a1.435,1.435,0,0,1,.432-1.212,1.357,1.357,0,0,1,.936-.372c.768,0,1,.468,1,1.164V0h.948V-5.148a1.5,1.5,0,0,0-1.644-1.7,1.952,1.952,0,0,0-1.644.912H-32.3V-9h-.948V0h.948Zm9.564.9c0-2.016-.744-3.288-2.388-3.288S-27.51-5.58-27.51-3.564c0,2.88.948,3.744,2.388,3.744C-23.658.18-22.734-.672-22.734-3.564Zm-.984.3c0,1.572-.276,2.64-1.4,2.64-1.1,0-1.4-1.068-1.4-2.64,0-2.016.432-2.784,1.4-2.784C-24.126-6.048-23.718-5.28-23.718-3.264ZM-16.632,0H-17.95V-.937h-.023A1.985,1.985,0,0,1-19.8.141a1.92,1.92,0,0,1-1.386-.48,1.681,1.681,0,0,1-.5-1.271q0-1.7,1.957-1.98l1.781-.252q0-1.283-1.219-1.283a2.9,2.9,0,0,0-1.934.738V-5.578a4.217,4.217,0,0,1,2.191-.562A1.994,1.994,0,0,1-16.632-3.9Zm-1.312-2.947-1.26.176a2,2,0,0,0-.882.284.83.83,0,0,0-.3.729.8.8,0,0,0,.272.624,1.055,1.055,0,0,0,.729.243,1.346,1.346,0,0,0,1.028-.437,1.548,1.548,0,0,0,.407-1.1ZM-19.661-9.2a4.9,4.9,0,0,1,.5-.023,1.566,1.566,0,0,1,.905.243.76.76,0,0,1,.354.659.848.848,0,0,1-.231.6.915.915,0,0,1-.577.287v.293h-.715v-.7q.674,0,.674-.422,0-.34-.521-.34a2.311,2.311,0,0,0-.387.053Zm5.6,2.527h-.924V0h.948V-4.464A1.435,1.435,0,0,1-13.6-5.676a1.357,1.357,0,0,1,.936-.372c.768,0,1,.468,1,1.164V0h.948V-5.148a1.5,1.5,0,0,0-1.644-1.7,2.024,2.024,0,0,0-1.668.912h-.024Zm7.032.624c1.056,0,1.332,1.248,1.332,2.568,0,1.068.012,2.856-1.428,2.856-.936,0-1.212-1.08-1.212-2.712C-8.334-4.236-8.286-6.048-7.026-6.048Zm1.332.132h-.024a1.617,1.617,0,0,0-1.488-.936c-1.764,0-2.112,2.064-2.112,3.468C-9.318-.7-8.442.18-7.182.18a1.569,1.569,0,0,0,1.44-.96h.024c-.012.732.144,2.244-1.392,2.244A.908.908,0,0,1-8.154.636h-.924A1.775,1.775,0,0,0-7.086,2.268,2.066,2.066,0,0,0-5.25,1.344,3.637,3.637,0,0,0-4.746-.8V-6.672h-.948ZM2.97-3.684A3.394,3.394,0,0,0,4.422-6.492,2.218,2.218,0,0,0,2.106-9a2.29,2.29,0,0,0-1.788.708,2.834,2.834,0,0,0-.576,1.8v.552h1C.714-6.888.822-8.1,2.058-8.1c1.02,0,1.332.672,1.332,1.584A2.3,2.3,0,0,1,2.454-4.5L.738-2.844a3.128,3.128,0,0,0-.708.9A5.258,5.258,0,0,0-.33,0H4.506V-.9H.7A1.678,1.678,0,0,1,1.35-2.208ZM8.6-3.3v-1H5.682v1Zm2.8-.888c1.512-.012,2.112.288,2.112,1.86A1.412,1.412,0,0,1,12.054-.72c-1.284,0-1.56-.96-1.476-1.92H9.594C9.558-1.008,10.17.18,11.97.18S14.5-.972,14.5-2.652A1.915,1.915,0,0,0,13-4.728v-.024a1.852,1.852,0,0,0,1.26-2.016A2.107,2.107,0,0,0,12.018-9c-1.632,0-2.3,1.152-2.256,2.664h.948c0-.924.156-1.764,1.284-1.764,1,0,1.26.6,1.26,1.476,0,1.656-1.068,1.488-1.86,1.536Zm8.544-2.484h-.924V0h.948V-4.464a1.435,1.435,0,0,1,.432-1.212,1.357,1.357,0,0,1,.936-.372c.768,0,1,.468,1,1.164V0h.948V-5.148a1.5,1.5,0,0,0-1.644-1.7,2.024,2.024,0,0,0-1.668.912h-.024Zm7.032.624C28.026-6.048,28.3-4.8,28.3-3.48c0,1.068.012,2.856-1.428,2.856-.936,0-1.212-1.08-1.212-2.712C25.662-4.236,25.71-6.048,26.97-6.048Zm1.332.132h-.024a1.617,1.617,0,0,0-1.488-.936c-1.764,0-2.112,2.064-2.112,3.468C24.678-.7,25.554.18,26.814.18a1.569,1.569,0,0,0,1.44-.96h.024c-.012.732.144,2.244-1.392,2.244A.908.908,0,0,1,25.842.636h-.924A1.775,1.775,0,0,0,26.91,2.268a2.066,2.066,0,0,0,1.836-.924A3.637,3.637,0,0,0,29.25-.8V-6.672H28.3Zm5.28,3.936A1.22,1.22,0,0,1,32.43-.624c-.768,0-.936-.432-.936-1.1a1.189,1.189,0,0,1,.588-1.152c.5-.24,1.032-.444,1.5-.72ZM35.142-.7a1.166,1.166,0,0,1-.408-.012c-.192-.1-.168-.336-.168-.5V-5.04a1.6,1.6,0,0,0-1.812-1.812c-1.344,0-2.028.6-1.98,1.98h.852c-.012-.78.108-1.176.972-1.176.768,0,1.056.288,1.056,1.044,0,.348.024.612-.18.768-.12.1-1.464.6-2,.84a1.706,1.706,0,0,0-.96,1.62c0,1.212.384,1.956,1.716,1.956A1.693,1.693,0,0,0,33.7-.9h.024c.1.912.4.984,1.2.948A1.4,1.4,0,0,1,35.142,0ZM31.23-9.18,32.8-7.488h.8L32.538-9.18ZM37.65.156c-.264.66-.288,1.32-1.176,1.32a1.822,1.822,0,0,1-.708-.144v.84a2.261,2.261,0,0,0,.684.108A1.576,1.576,0,0,0,37.974,1.4a12.425,12.425,0,0,0,.612-1.7l1.98-6.372h-.984L38.034-.888H38.01l-1.5-5.784h-.984Z" transform="translate(-1289 -5576)" fill="#4e443b"/>
    <path data-idr="Path_3384" data-name="Path 3384" d="M0,0H176V20.292H0Z" transform="translate(-1211 -5590)" fill="#f6f4e8"/>
    <path data-idr="Path_3458" data-name="Path 3458" d="M-40.842,0V-3.12l.936-1.224L-37.47,0h1.224L-39.2-5.232-36.33-9h-1.248L-40.83-4.38h-.024V-9h-1V0Zm6.54-4.464a1.435,1.435,0,0,1,.432-1.212,1.357,1.357,0,0,1,.936-.372c.768,0,1,.468,1,1.164V0h.948V-5.148a1.5,1.5,0,0,0-1.644-1.7,1.952,1.952,0,0,0-1.644.912H-34.3V-9h-.948V0h.948Zm9.564.9c0-2.016-.744-3.288-2.388-3.288s-2.388,1.272-2.388,3.288c0,2.88.948,3.744,2.388,3.744C-25.662.18-24.738-.672-24.738-3.564Zm-.984.3c0,1.572-.276,2.64-1.4,2.64-1.1,0-1.4-1.068-1.4-2.64,0-2.016.432-2.784,1.4-2.784C-26.13-6.048-25.722-5.28-25.722-3.264ZM-18.636,0h-1.318V-.937h-.023A1.985,1.985,0,0,1-21.8.141a1.92,1.92,0,0,1-1.386-.48,1.681,1.681,0,0,1-.5-1.271q0-1.7,1.957-1.98l1.781-.252q0-1.283-1.219-1.283a2.9,2.9,0,0,0-1.934.738V-5.578a4.217,4.217,0,0,1,2.191-.562A1.994,1.994,0,0,1-18.636-3.9Zm-1.312-2.947-1.26.176a2,2,0,0,0-.882.284.83.83,0,0,0-.3.729.8.8,0,0,0,.272.624,1.055,1.055,0,0,0,.729.243,1.346,1.346,0,0,0,1.028-.437,1.548,1.548,0,0,0,.407-1.1ZM-21.665-9.2a4.9,4.9,0,0,1,.5-.023,1.566,1.566,0,0,1,.905.243.76.76,0,0,1,.354.659.848.848,0,0,1-.231.6.915.915,0,0,1-.577.287v.293h-.715v-.7q.674,0,.674-.422,0-.34-.521-.34a2.311,2.311,0,0,0-.387.053Zm5.6,2.527h-.924V0h.948V-4.464a1.435,1.435,0,0,1,.432-1.212,1.357,1.357,0,0,1,.936-.372c.768,0,1,.468,1,1.164V0h.948V-5.148a1.5,1.5,0,0,0-1.644-1.7,2.024,2.024,0,0,0-1.668.912h-.024Zm7.032.624C-7.974-6.048-7.7-4.8-7.7-3.48c0,1.068.012,2.856-1.428,2.856-.936,0-1.212-1.08-1.212-2.712C-10.338-4.236-10.29-6.048-9.03-6.048Zm1.332.132h-.024A1.617,1.617,0,0,0-9.21-6.852c-1.764,0-2.112,2.064-2.112,3.468C-11.322-.7-10.446.18-9.186.18a1.569,1.569,0,0,0,1.44-.96h.024c-.012.732.144,2.244-1.392,2.244A.908.908,0,0,1-10.158.636h-.924A1.775,1.775,0,0,0-9.09,2.268a2.066,2.066,0,0,0,1.836-.924A3.637,3.637,0,0,0-6.75-.8V-6.672H-7.7ZM-.054,0h1V-9H.162C.018-7.6-.69-7.356-1.974-7.332v.78h1.92ZM6.594-3.3v-1H3.678v1Zm4.368-.384a3.394,3.394,0,0,0,1.452-2.808A2.218,2.218,0,0,0,10.1-9a2.29,2.29,0,0,0-1.788.708,2.834,2.834,0,0,0-.576,1.8v.552h1c-.024-.948.084-2.16,1.32-2.16,1.02,0,1.332.672,1.332,1.584A2.3,2.3,0,0,1,10.446-4.5L8.73-2.844a3.128,3.128,0,0,0-.708.9A5.258,5.258,0,0,0,7.662,0H12.5V-.9h-3.8a1.678,1.678,0,0,1,.648-1.308Zm7.14-4.8h-.936v1.812h-.924v.8h.924v4.776c0,1.008.42,1.1.984,1.092h1.044V-.8h-.636c-.528,0-.444-.288-.444-.516V-5.868h1.1v-.8H18.1Zm3.192,4.02a1.435,1.435,0,0,1,.432-1.212,1.357,1.357,0,0,1,.936-.372c.768,0,1,.468,1,1.164V0h.948V-5.148a1.5,1.5,0,0,0-1.644-1.7,1.952,1.952,0,0,0-1.644.912h-.024V-9h-.948V0h.948Zm7.62,2.484A1.22,1.22,0,0,1,27.762-.624c-.768,0-.936-.432-.936-1.1a1.189,1.189,0,0,1,.588-1.152c.5-.24,1.032-.444,1.5-.72ZM30.474-.7a1.166,1.166,0,0,1-.408-.012c-.192-.1-.168-.336-.168-.5V-5.04a1.6,1.6,0,0,0-1.812-1.812c-1.344,0-2.028.6-1.98,1.98h.852c-.012-.78.108-1.176.972-1.176.768,0,1.056.288,1.056,1.044,0,.348.024.612-.18.768-.12.1-1.464.6-2,.84a1.706,1.706,0,0,0-.96,1.62c0,1.212.384,1.956,1.716,1.956A1.692,1.692,0,0,0,29.034-.9h.024c.1.912.4.984,1.2.948A1.4,1.4,0,0,1,30.474,0ZM27.342-7.488h.8L29.718-9.18H28.41Zm5.256.816h-.924V0h.948V-4.464a1.435,1.435,0,0,1,.432-1.212,1.357,1.357,0,0,1,.936-.372c.768,0,1,.468,1,1.164V0h.948V-5.148a1.5,1.5,0,0,0-1.644-1.7,2.024,2.024,0,0,0-1.668.912H32.6Zm7.032.624c1.056,0,1.332,1.248,1.332,2.568,0,1.068.012,2.856-1.428,2.856-.936,0-1.212-1.08-1.212-2.712C38.322-4.236,38.37-6.048,39.63-6.048Zm1.332.132h-.024a1.617,1.617,0,0,0-1.488-.936c-1.764,0-2.112,2.064-2.112,3.468C37.338-.7,38.214.18,39.474.18a1.569,1.569,0,0,0,1.44-.96h.024c-.012.732.144,2.244-1.392,2.244A.908.908,0,0,1,38.5.636h-.924A1.775,1.775,0,0,0,39.57,2.268a2.066,2.066,0,0,0,1.836-.924A3.637,3.637,0,0,0,41.91-.8V-6.672h-.948Z" transform="translate(-1123 -5576)" fill="#4e443b"/>
    <path data-idr="Path_3383" data-name="Path 3383" d="M10,0H144.443V20.292H10Z" transform="translate(-1043 -5590)" fill="#f6f4e8"/>
    <path data-idr="Path_3459" data-name="Path 3459" d="M-40.842,0V-3.12l.936-1.224L-37.47,0h1.224L-39.2-5.232-36.33-9h-1.248L-40.83-4.38h-.024V-9h-1V0Zm6.54-4.464a1.435,1.435,0,0,1,.432-1.212,1.357,1.357,0,0,1,.936-.372c.768,0,1,.468,1,1.164V0h.948V-5.148a1.5,1.5,0,0,0-1.644-1.7,1.952,1.952,0,0,0-1.644.912H-34.3V-9h-.948V0h.948Zm9.564.9c0-2.016-.744-3.288-2.388-3.288s-2.388,1.272-2.388,3.288c0,2.88.948,3.744,2.388,3.744C-25.662.18-24.738-.672-24.738-3.564Zm-.984.3c0,1.572-.276,2.64-1.4,2.64-1.1,0-1.4-1.068-1.4-2.64,0-2.016.432-2.784,1.4-2.784C-26.13-6.048-25.722-5.28-25.722-3.264ZM-18.636,0h-1.318V-.937h-.023A1.985,1.985,0,0,1-21.8.141a1.92,1.92,0,0,1-1.386-.48,1.681,1.681,0,0,1-.5-1.271q0-1.7,1.957-1.98l1.781-.252q0-1.283-1.219-1.283a2.9,2.9,0,0,0-1.934.738V-5.578a4.217,4.217,0,0,1,2.191-.562A1.994,1.994,0,0,1-18.636-3.9Zm-1.312-2.947-1.26.176a2,2,0,0,0-.882.284.83.83,0,0,0-.3.729.8.8,0,0,0,.272.624,1.055,1.055,0,0,0,.729.243,1.346,1.346,0,0,0,1.028-.437,1.548,1.548,0,0,0,.407-1.1ZM-21.665-9.2a4.9,4.9,0,0,1,.5-.023,1.566,1.566,0,0,1,.905.243.76.76,0,0,1,.354.659.848.848,0,0,1-.231.6.915.915,0,0,1-.577.287v.293h-.715v-.7q.674,0,.674-.422,0-.34-.521-.34a2.311,2.311,0,0,0-.387.053Zm5.6,2.527h-.924V0h.948V-4.464a1.435,1.435,0,0,1,.432-1.212,1.357,1.357,0,0,1,.936-.372c.768,0,1,.468,1,1.164V0h.948V-5.148a1.5,1.5,0,0,0-1.644-1.7,2.024,2.024,0,0,0-1.668.912h-.024Zm7.032.624C-7.974-6.048-7.7-4.8-7.7-3.48c0,1.068.012,2.856-1.428,2.856-.936,0-1.212-1.08-1.212-2.712C-10.338-4.236-10.29-6.048-9.03-6.048Zm1.332.132h-.024A1.617,1.617,0,0,0-9.21-6.852c-1.764,0-2.112,2.064-2.112,3.468C-11.322-.7-10.446.18-9.186.18a1.569,1.569,0,0,0,1.44-.96h.024c-.012.732.144,2.244-1.392,2.244A.908.908,0,0,1-10.158.636h-.924A1.775,1.775,0,0,0-9.09,2.268a2.066,2.066,0,0,0,1.836-.924A3.637,3.637,0,0,0-6.75-.8V-6.672H-7.7ZM-.606-4.188C.906-4.2,1.506-3.9,1.506-2.328A1.412,1.412,0,0,1,.054-.72c-1.284,0-1.56-.96-1.476-1.92h-.984C-2.442-1.008-1.83.18-.03.18S2.5-.972,2.5-2.652A1.915,1.915,0,0,0,1-4.728v-.024a1.852,1.852,0,0,0,1.26-2.016A2.107,2.107,0,0,0,.018-9c-1.632,0-2.3,1.152-2.256,2.664h.948c0-.924.156-1.764,1.284-1.764,1,0,1.26.6,1.26,1.476,0,1.656-1.068,1.488-1.86,1.536Zm7.2.888v-1H3.678v1Zm4.128-4.14h.024v4.3H8.262ZM7.47-3.168v.924h3.276V0h1V-2.244h.8v-.9h-.8V-9H10.83ZM18.1-8.484h-.936v1.812h-.924v.8h.924v4.776c0,1.008.42,1.1.984,1.092h1.044V-.8h-.636c-.528,0-.444-.288-.444-.516V-5.868h1.1v-.8H18.1Zm3.192,4.02a1.435,1.435,0,0,1,.432-1.212,1.357,1.357,0,0,1,.936-.372c.768,0,1,.468,1,1.164V0h.948V-5.148a1.5,1.5,0,0,0-1.644-1.7,1.952,1.952,0,0,0-1.644.912h-.024V-9h-.948V0h.948Zm7.62,2.484A1.22,1.22,0,0,1,27.762-.624c-.768,0-.936-.432-.936-1.1a1.189,1.189,0,0,1,.588-1.152c.5-.24,1.032-.444,1.5-.72ZM30.474-.7a1.166,1.166,0,0,1-.408-.012c-.192-.1-.168-.336-.168-.5V-5.04a1.6,1.6,0,0,0-1.812-1.812c-1.344,0-2.028.6-1.98,1.98h.852c-.012-.78.108-1.176.972-1.176.768,0,1.056.288,1.056,1.044,0,.348.024.612-.18.768-.12.1-1.464.6-2,.84a1.706,1.706,0,0,0-.96,1.62c0,1.212.384,1.956,1.716,1.956A1.692,1.692,0,0,0,29.034-.9h.024c.1.912.4.984,1.2.948A1.4,1.4,0,0,1,30.474,0ZM27.342-7.488h.8L29.718-9.18H28.41Zm5.256.816h-.924V0h.948V-4.464a1.435,1.435,0,0,1,.432-1.212,1.357,1.357,0,0,1,.936-.372c.768,0,1,.468,1,1.164V0h.948V-5.148a1.5,1.5,0,0,0-1.644-1.7,2.024,2.024,0,0,0-1.668.912H32.6Zm7.032.624c1.056,0,1.332,1.248,1.332,2.568,0,1.068.012,2.856-1.428,2.856-.936,0-1.212-1.08-1.212-2.712C38.322-4.236,38.37-6.048,39.63-6.048Zm1.332.132h-.024a1.617,1.617,0,0,0-1.488-.936c-1.764,0-2.112,2.064-2.112,3.468C37.338-.7,38.214.18,39.474.18a1.569,1.569,0,0,0,1.44-.96h.024c-.012.732.144,2.244-1.392,2.244A.908.908,0,0,1,38.5.636h-.924A1.775,1.775,0,0,0,39.57,2.268a2.066,2.066,0,0,0,1.836-.924A3.637,3.637,0,0,0,41.91-.8V-6.672h-.948Z" transform="translate(-966 -5576)" fill="#4e443b"/>
    <path data-idr="Icon_awesome-user-tie" data-name="Icon awesome-user-tie" d="M10.1,11.546A5.773,5.773,0,1,0,4.33,5.773,5.772,5.772,0,0,0,10.1,11.546Zm4.321,1.47-2.156,8.632-1.443-6.134,1.443-2.526H7.938l1.443,2.526L7.938,21.648,5.782,13.016A6.051,6.051,0,0,0,0,19.05v1.876a2.165,2.165,0,0,0,2.165,2.165H18.04A2.165,2.165,0,0,0,20.2,20.926V19.05a6.051,6.051,0,0,0-5.782-6.034Z" transform="translate(-1256 -5659)" fill="#9a2327"/>
    <path data-idr="Icon_awesome-clipboard-list" data-name="Icon awesome-clipboard-list" d="M15.154,2.886H11.546a2.886,2.886,0,1,0-5.773,0H2.165A2.165,2.165,0,0,0,0,5.051V20.926a2.165,2.165,0,0,0,2.165,2.165H15.154a2.165,2.165,0,0,0,2.165-2.165V5.051A2.165,2.165,0,0,0,15.154,2.886ZM4.33,19.122A1.082,1.082,0,1,1,5.412,18.04,1.08,1.08,0,0,1,4.33,19.122Zm0-4.33A1.082,1.082,0,1,1,5.412,13.71,1.08,1.08,0,0,1,4.33,14.793Zm0-4.33A1.082,1.082,0,1,1,5.412,9.381,1.08,1.08,0,0,1,4.33,10.463ZM8.659,1.8A1.082,1.082,0,1,1,7.577,2.886,1.08,1.08,0,0,1,8.659,1.8Zm5.773,16.6a.362.362,0,0,1-.361.361H7.577a.362.362,0,0,1-.361-.361v-.722a.362.362,0,0,1,.361-.361h6.494a.362.362,0,0,1,.361.361Zm0-4.33a.362.362,0,0,1-.361.361H7.577a.362.362,0,0,1-.361-.361V13.35a.362.362,0,0,1,.361-.361h6.494a.362.362,0,0,1,.361.361Zm0-4.33a.362.362,0,0,1-.361.361H7.577a.362.362,0,0,1-.361-.361V9.02a.362.362,0,0,1,.361-.361h6.494a.362.362,0,0,1,.361.361Z" transform="translate(-1162 -5659)" fill="#9a2327"/>
    <g data-idr="Group_307" data-name="Group 307" transform="translate(37.478 201.533)">
      <path data-idr="Path_3359" data-name="Path 3359" d="M71.909,0H82.783a.815.815,0,0,1,.809.809V10.858a.815.815,0,0,1-.809.809H71.909a.815.815,0,0,1-.809-.809V.809A.815.815,0,0,1,71.909,0Z" transform="translate(-1033.719 -5857.533)" fill="#9a2327"/>
      <path data-idr="Path_3360" data-name="Path 3360" d="M9.606,26.887V18.564a.756.756,0,0,0-.764-.764H4.337a.775.775,0,0,0-.6.29L0,22.7v6.124a.756.756,0,0,0,.764.764H3.146a2.718,2.718,0,0,1,2.169-1.1,2.676,2.676,0,0,1,2.169,1.1H16.31a2.718,2.718,0,0,1,2.169-1.1,2.676,2.676,0,0,1,2.169,1.1h1.97a.743.743,0,0,0,.733-.733v-.473a.724.724,0,0,0-.733-.733H10.369a.766.766,0,0,1-.764-.764Zm-2.779-2.81H2.841a.886.886,0,0,1-.886-.886v-.229a.977.977,0,0,1,.2-.565l2.107-2.611a.883.883,0,0,1,.687-.336H6.811a.886.886,0,0,1,.886.886v2.841a.868.868,0,0,1-.87.9Z" transform="translate(-973.478 -5872.615)" fill="#9a2327"/>
      <circle data-idr="Ellipse_15" data-name="Ellipse 15" cx="1.909" cy="1.909" r="1.909" transform="translate(-970.102 -5843.315)" fill="#9a2327"/>
      <circle data-idr="Ellipse_16" data-name="Ellipse 16" cx="1.909" cy="1.909" r="1.909" transform="translate(-956.893 -5843.315)" fill="#9a2327"/>
    </g>
    <g data-idr="Group_306" data-name="Group 306" transform="translate(41.435 201.432)">
      <path data-idr="Path_3361" data-name="Path 3361" d="M55.647,2.484,51.383,0,42.068,5.427l4.263,2.484Z" transform="translate(-1157.714 -5860.432)" fill="#9a2327"/>
      <path data-idr="Path_3362" data-name="Path 3362" d="M161.763,64.3l-9.315,5.427,3.475,2.025,9.315-5.427Z" transform="translate(-1262.254 -5921.335)" fill="#9a2327"/>
      <path data-idr="Path_3363" data-name="Path 3363" d="M233.131,134.034v10.854l9.31-5.424V128.61Z" transform="translate(-1338.669 -5982.238)" fill="#9a2327"/>
      <path data-idr="Path_3364" data-name="Path 3364" d="M27.169,139.464l9.31,5.424V134.034l-9.31-5.424Z" transform="translate(-1143.604 -5982.238)" fill="#9a2327"/>
    </g>
    <path data-idr="Subtraction_2" data-name="Subtraction 2" d="M21.942,20.442H1.079A1.089,1.089,0,0,1,0,19.346V1.1A1.089,1.089,0,0,1,1.079,0H6.115A1.089,1.089,0,0,1,7.194,1.1v8.957l6.255-4.039a1.06,1.06,0,0,1,.576-.173,1.091,1.091,0,0,1,1.083,1.1v3.115l6.255-4.039a1.061,1.061,0,0,1,.576-.173,1.091,1.091,0,0,1,1.083,1.1V19.346A1.089,1.089,0,0,1,21.942,20.442Zm-6.835-7.357V16.33h3.2V13.085Zm-7.673,0V16.33h3.2V13.085Z" transform="translate(-1004 -5657)" fill="#9a2327"/>
    <path data-idr="Icon_zocial-email" data-name="Icon zocial-email" d="M.072,18.958V5.515q0-.023.07-.443L8.054,11.84.165,19.425a1.978,1.978,0,0,1-.093-.467Zm1.05-14.82a1.006,1.006,0,0,1,.4-.07H22.827a1.322,1.322,0,0,1,.42.07l-7.935,6.791-1.05.84-2.077,1.7-2.077-1.7-1.05-.84Zm.023,16.2L9.1,12.7l3.081,2.5,3.081-2.5,7.958,7.632a1.121,1.121,0,0,1-.4.07H1.519a1.057,1.057,0,0,1-.373-.07Zm15.17-8.5L24.2,5.072a1.393,1.393,0,0,1,.07.443V18.958a1.789,1.789,0,0,1-.07.467Z" transform="translate(-1336.072 -5659.068)" fill="#9a2327"/>
  </g>
</svg>
