<svg id="Layer_2" data-name="Layer 2" xmlns="http://www.w3.org/2000/svg" width="188.389" height="147.452" viewBox="0 0 188.389 147.452">
  <g id="Group_3566" data-name="Group 3566" transform="translate(0 0)">
    <rect id="Rectangle_101" data-name="Rectangle 101" width="147.452" height="188.389" rx="29.45" transform="translate(188.389) rotate(90)" fill="#b75742"/>
    <rect id="Rectangle_102" data-name="Rectangle 102" width="128.869" height="169.801" transform="translate(179.1 9.294) rotate(90)" fill="#fff"/>
    <rect id="Rectangle_103" data-name="Rectangle 103" width="151.218" height="110.281" transform="translate(18.588 18.584)" fill="#9bc1f9"/>
    <rect id="Rectangle_104" data-name="Rectangle 104" width="151.218" height="30.691" transform="translate(18.588 98.173)" fill="#f7cc7f"/>
    <path id="Path_4172" data-name="Path 4172" d="M351.326,171.44,335.24,199.3h32.168Z" transform="translate(-197.738 -101.124)" fill="#f47458"/>
    <path id="Path_4173" data-name="Path 4173" d="M291.052,155.25,270.91,190.141H311.2Z" transform="translate(-159.793 -91.574)" fill="#f7cc7f"/>
    <g id="Group_3565" data-name="Group 3565" transform="translate(38.894 28.58)">
      <path id="Path_4174" data-name="Path 4174" d="M194.6,107.352c.628-2.846,1.239-5.713-.41-8.843a8.031,8.031,0,0,0-6.32-4.307c-7.58-.9-8.244,5.873-15.442,8.839-3.076,1.267-6.23.9-8.978,2.539-4.963,2.957-3.134,6.534.156,14.257,8.055,18.912,21.918,7.961,24.363,4.237,1.817-2.769,6.234-14.888,6.636-16.722Z" transform="translate(-133.496 -84.098)" fill="#13375b"/>
      <g id="Group_3562" data-name="Group 3562" transform="translate(19.636 25.498)">
        <path id="Path_4175" data-name="Path 4175" d="M193.2,152.125c-4.065,1.271-15.073,4.836-15.627,4.7l-10.032-7.986-6.173,5.418s13.769,10.2,14.552,10.57c.578.275,12.7-5.972,18.42-8.765a6.643,6.643,0,0,0-1.144-3.937Z" transform="translate(-153.711 -141.872)" fill="#f48c7f"/>
        <path id="Path_4176" data-name="Path 4176" d="M163.828,143.294l-6.288,8.141s-6.628-5.094-9.068-7.834c-2.965-3.322-6.206-10.463-5.73-10.721a10.693,10.693,0,0,1,6.238-.874c6.915,1.546,14.847,11.291,14.847,11.291Z" transform="translate(-142.696 -131.851)" fill="#b75742"/>
      </g>
      <g id="Group_3563" data-name="Group 3563" transform="translate(39.879 12.078)">
        <path id="Path_4177" data-name="Path 4177" d="M231.385,154.324l-.775-4.044a6.763,6.763,0,0,1,3.745,2.81c1.456,2.264,3.9,9.913,4.311,10.139s5.024-6.874,5.832-7.994a27.545,27.545,0,0,0,1.993-4.179c.623-1.206,2.822-1.62,3.654-1.468S249,153.27,249,153.27s-5,8.675-6.657,13.428-6.866,7.018-7.7,6.337-3.261-18.711-3.261-18.711Z" transform="translate(-214.795 -128.874)" fill="#f48c7f"/>
        <path id="Path_4178" data-name="Path 4178" d="M232.3,167.5l6.361-3.63s-2.887-12.173-8.039-12.563L232.3,167.5Z" transform="translate(-214.801 -129.908)" fill="#f7cc7f"/>
        <path id="Path_4179" data-name="Path 4179" d="M269.359,152.431s.209-.915.767-1.1a3.9,3.9,0,0,1,1.6,0,11.813,11.813,0,0,0,1.14-.562l-.894,1.661s-1.743,2.055-2.326,1.288-.291-1.288-.291-1.288Z" transform="translate(-237.606 -129.59)" fill="#f7a491"/>
        <path id="Path_4180" data-name="Path 4180" d="M277.8,150.96a20.889,20.889,0,0,1,.472,3.876c-.16.673-.562.312-.636.168a12.563,12.563,0,0,1-.525-2.658l.693-1.386Z" transform="translate(-242.223 -129.702)" fill="#f48c7f"/>
        <path id="Path_4181" data-name="Path 4181" d="M275.48,156.068a7.5,7.5,0,0,0,.607,2.223c.2.152.455.062.541-.34a19.934,19.934,0,0,0-.4-2.851Z" transform="translate(-241.261 -132.144)" fill="#f48c7f"/>
        <path id="Path_4182" data-name="Path 4182" d="M269.5,157.368l-1.046-.509,4.438-9.109h0a1.165,1.165,0,0,1,.537,1.554l-3.929,8.064Z" transform="translate(-237.115 -127.809)" fill="#184655"/>
        <path id="Path_4183" data-name="Path 4183" d="M226.8,240.574l-7,24.166.18,6.025h9.466c.705-6.927,1.3-12.313,1.591-13.949,1.042-5.886-.546-14.86-.546-14.86l-3.687-1.386Z" transform="translate(-208.418 -182.559)" fill="#b75742"/>
        <path id="Path_4184" data-name="Path 4184" d="M192.4,248.415c-.664,3.458-.172,11.488-.246,18.7h12.637l6.033-17.571,2.592-15.163-15.606,2.038S193.444,242.981,192.4,248.415Z" transform="translate(-192.05 -178.907)" fill="#f47458"/>
        <path id="Path_4185" data-name="Path 4185" d="M204.932,148.3a10.843,10.843,0,0,0-5.229,2.678c-4.786,4.684,2.814,22.747,3.228,25.917s-3.412,10.561-3.412,10.561,14.3,2.641,18.182.078c0,0,.455-25.425.041-27.689s-5.074-9.249-5.906-10.155-6.907-1.39-6.907-1.39Z" transform="translate(-195.634 -128.133)" fill="#fae0b2"/>
        <path id="Path_4186" data-name="Path 4186" d="M201.027,158.062a2.007,2.007,0,0,1,2.711-1.185,8.737,8.737,0,0,1,4.512,3.929c1.665,3.47,7.489,15.393,9.294,15.844s9.155-12.374,9.155-12.374a8.422,8.422,0,0,1,.414-3.548c.623-1.284,2.5-2.641,2.773-2.186s-1.042,1.583-1.042,1.813.554.377,1.317-.074a3.425,3.425,0,0,0,1.177-1.37,4.509,4.509,0,0,1-.066,4.311c-1.317,2.038-1.874,2.867-1.874,2.867s-8.531,18.937-11.652,19.162c-2.908.209-19.65-18.358-16.726-27.189Z" transform="translate(-197.139 -133.092)" fill="#f7a491"/>
        <path id="Path_4187" data-name="Path 4187" d="M216.368,129.307s-.029.168-.082.459a43.713,43.713,0,0,1-1.924,7.26c-.812,1.53,2.777,6.411,6.23,5.812,1.029-.176-.87-4.483-.779-4.938.176-.874.41-2.063.652-3.285.135-.689.275-1.386.406-2.043.369-1.866.669-3.392.669-3.392Z" transform="translate(-205.143 -116.855)" fill="#f7a491"/>
        <path id="Path_4188" data-name="Path 4188" d="M219,129.767c.053-.287.082-.459.082-.459l5.172-.127s-.3,1.526-.669,3.392c-.131.652-.267,1.345-.4,2.034a4.86,4.86,0,0,1-2.469-1.235,6.525,6.525,0,0,1-1.87-2.777c.066-.328.115-.607.156-.824Z" transform="translate(-207.852 -116.855)" fill="#f47458"/>
        <path id="Path_4189" data-name="Path 4189" d="M219.326,99.5a6.1,6.1,0,0,0-3.638,2.264c-1.53,1.973-3.175,8.076.619,11.39s7.551-.439,8.1-4.417.443-9.384-5.09-9.241Z" transform="translate(-204.988 -99.344)" fill="#f7a491"/>
        <path id="Path_4190" data-name="Path 4190" d="M239.389,115.593c-.455.878-1.214,1.366-1.7,1.087s-.513-1.218-.057-2.1,1.214-1.366,1.7-1.087S239.844,114.715,239.389,115.593Z" transform="translate(-218.746 -107.558)" fill="#f7a491"/>
        <path id="Path_4191" data-name="Path 4191" d="M216.738,99.192s-3.257,5.8-5.59,6.07-2.637,3.351-2.637,3.351.833-7.1,3.142-8.474A8.592,8.592,0,0,1,216.738,99.192Z" transform="translate(-201.759 -99.13)" fill="#13375b"/>
        <path id="Path_4192" data-name="Path 4192" d="M213.3,115.107c.189,1.029-.193,1.977-.853,2.112s-1.349-.591-1.538-1.62.193-1.977.853-2.112S213.113,114.077,213.3,115.107Z" transform="translate(-203.146 -107.589)" fill="#f7a491"/>
      </g>
      <path id="Path_4193" data-name="Path 4193" d="M204.09,173.046l7.493-4.918s-3.121-8.818-6.554-11.939-5.057-2.362-5.775-1.719c-1.989,1.8-1.641,6.165.623,11.55s4.216,7.026,4.216,7.026Z" transform="translate(-155.652 -119.355)" fill="#f7cc7f"/>
      <path id="Path_4194" data-name="Path 4194" d="M154.748,246.847l-4.208-1.817-12.989,8.482s4.368,10.127,8.433,19.884h14.322l-5.562-26.553Z" transform="translate(-120.024 -173.111)" fill="#355389"/>
      <path id="Path_4195" data-name="Path 4195" d="M122.352,249.7c-.615.636-.931,3.162-1.1,4.126-.677,3.88,0,11.579.861,20.885h14.5c.349-11.218.89-26.04.89-26.04s-10.5-3.79-15.159,1.029Z" transform="translate(-110.249 -174.425)" fill="#466eb6"/>
      <path id="Path_4196" data-name="Path 4196" d="M119.373,131.556s-4.909.681-6.2,1.632a17.4,17.4,0,0,0-3.072,3.462s6.029,28.5,6.037,33.292c.008,3.708-1.3,12.817-1.3,12.817s18.219,1.148,25.117-1.575c0,0-2.178-10.832-2.178-13.678s-2.6-28.714-3.2-30.519c-.537-1.641-1.522-4.585-4.852-5.311s-10.348-.123-10.348-.123Z" transform="translate(-103.833 -106.038)" fill="#f47458"/>
      <path id="Path_4197" data-name="Path 4197" d="M134.293,112.508l-1.173,7.686s3.691,6.591,6.341,5.767c2.223-.689,1.563-5.918,1.563-5.918s-1.214-4.5-.849-6.755-5.882-.783-5.882-.783Z" transform="translate(-117.411 -94.663)" fill="#f7a491"/>
      <path id="Path_4198" data-name="Path 4198" d="M141.714,113.3c.365-2.252-5.882-.783-5.882-.783l-.1.66a3.647,3.647,0,0,0,.677,1.107,8.22,8.22,0,0,0,5.459,2.453,12.26,12.26,0,0,1-.156-3.441Z" transform="translate(-118.951 -94.669)" fill="#f47458"/>
      <g id="Group_3564" data-name="Group 3564" transform="translate(10.861)">
        <path id="Path_4199" data-name="Path 4199" d="M132.8,82.172c-.176-.066-1.415,9.064.935,11.574s6.927,3.335,8.568,1.353c1.817-2.186,1.723-12-1.928-14.581S132.8,82.172,132.8,82.172Z" transform="translate(-127.796 -75.582)" fill="#f7a491"/>
        <path id="Path_4200" data-name="Path 4200" d="M132.485,69.739a10.158,10.158,0,0,0-5.324,3.015c-1.28.152-3.023.853-4.823,3.814a7.369,7.369,0,0,0,2,9.647,6.5,6.5,0,0,1,2.3,3.08.343.343,0,0,0,.648,0h0a6.619,6.619,0,0,0,.324-2.785,5.366,5.366,0,0,0-.418-1.673c-.619-1.321,1.329-2.2,1.878-3.3.422-.845.443-2.781,1.1-4.179l.792-1.066a5.065,5.065,0,0,1,3.613-1.013C136.365,75.678,136.107,69,132.485,69.739Z" transform="translate(-121.301 -69.682)" fill="#13375b"/>
        <path id="Path_4201" data-name="Path 4201" d="M136.555,99.693c.021,1.116-.492,2.026-1.14,2.038s-1.185-.882-1.206-2,.492-2.026,1.136-2.034,1.185.882,1.206,2Z" transform="translate(-128.915 -86.208)" fill="#f7a491"/>
      </g>
      <path id="Path_4202" data-name="Path 4202" d="M163.228,197.98l.119.681a.647.647,0,0,0,.742.525l14.08-2.44a.647.647,0,0,0,.525-.742l-.119-.681a.647.647,0,0,0-.742-.525l-14.08,2.44A.647.647,0,0,0,163.228,197.98Z" transform="translate(-135.165 -143.477)" fill="#13375b"/>
      <path id="Path_4203" data-name="Path 4203" d="M105.87,140.85c1.653-.049,3.113,10.848,2.067,11.923s-1.247,14.495-1.247,14.495l15.586-.386h0c.3-.2,3.568-2.391,4.036-2.871.488-.5,2.871-.25,3.5.439s-1.214.451-1.76.71c-.611.287.221,1.111.221,1.111s3.95.574,4.721-.242,2.826-2.2,3.1-1.382c.144.422-.915,1.7-1.513,2.235.746-.558,1.641-1.153,1.944-1.046.562.189.328.9.025,1.112s-3.437,2.6-3.929,2.773-7.772.345-9.031.623c0,0-20.553,4.68-21.721,4.389-1.025-.254-2.051-6.833-2.051-11.874s.886-21.857,6.05-22Z" transform="translate(-97.769 -111.66)" fill="#f7a491"/>
      <path id="Path_4204" data-name="Path 4204" d="M105.066,134.79a11,11,0,0,0-5.845,4c-2.358,3.306-4.4,20.032-4.4,20.032l9.327,1.509.746-8.223,2.494-3.761-2.313-13.555Z" transform="translate(-94.82 -108.086)" fill="#f47458"/>
      <path id="Path_4205" data-name="Path 4205" d="M229.06,149.581a2.345,2.345,0,0,1,1.858-.632,4.972,4.972,0,0,1,3.027,2.174,9.3,9.3,0,0,1-.98,3.015c-.2.291-.648.435-.8.283-.1-.1,0-.611.033-.718.057-.213.459-1.6.459-1.6s-.783,1.395-1.148,1.481a.419.419,0,0,1-.545-.328,8.8,8.8,0,0,1,.722-1.727s-.919,1.349-1.37,1.206-.262-.623-.2-.783.7-1.1.7-1.1-1,1.378-1.194.886c-.119-.3.533-1.608.533-1.608l-1.091-.558Z" transform="translate(-174.002 -116.434)" fill="#f7a491"/>
    </g>
    <path id="Path_4206" data-name="Path 4206" d="M31.915,305.751H17.338A12.871,12.871,0,0,1,4.48,292.893V271.541a1.161,1.161,0,0,1,2.321,0v21.352A10.549,10.549,0,0,0,17.338,303.43H31.915a1.161,1.161,0,1,1,0,2.321Z" transform="translate(-2.638 -159.484)" fill="#f47458"/>
    <path id="Path_4207" data-name="Path 4207" d="M316.768,282.853H243.721a1.161,1.161,0,1,1,0-2.321h73.047A10.545,10.545,0,0,0,327.3,270V232.721a1.161,1.161,0,1,1,2.321,0V270a12.871,12.871,0,0,1-12.858,12.858Z" transform="translate(-143.07 -136.586)" fill="#f47458"/>
    <path id="Path_4208" data-name="Path 4208" d="M408.915,38.232a1.162,1.162,0,0,1-1.161-1.161V15.764A10.545,10.545,0,0,0,397.222,5.231H380.111a1.161,1.161,0,1,1,0-2.321h17.111A12.871,12.871,0,0,1,410.08,15.768V37.075a1.162,1.162,0,0,1-1.161,1.161Z" transform="translate(-223.52 -1.716)" fill="#f47458"/>
    <path id="Path_4209" data-name="Path 4209" d="M184.719,5.211H154.631a1.161,1.161,0,1,1,0-2.321h30.088a1.161,1.161,0,1,1,0,2.321Z" transform="translate(-90.52 -1.705)" fill="#f47458"/>
    <path id="Path_4210" data-name="Path 4210" d="M5.641,114.922a1.162,1.162,0,0,1-1.161-1.161V15.748A12.871,12.871,0,0,1,17.338,2.89h26.25a1.161,1.161,0,1,1,0,2.321H17.338A10.548,10.548,0,0,0,6.8,15.744v98.013a1.162,1.162,0,0,1-1.161,1.161Z" transform="translate(-2.638 -1.705)" fill="#f47458"/>
  </g>
</svg>
