<svg id="Layer_2" data-name="Layer 2" xmlns="http://www.w3.org/2000/svg" width="170.757" height="155.856" viewBox="0 0 170.757 155.856">
  <g id="Group_3532" data-name="Group 3532">
    <g id="Group_3531" data-name="Group 3531">
      <path id="Path_4013" data-name="Path 4013" d="M159.884,0H10.873A10.874,10.874,0,0,1,0,10.873v134.11a10.874,10.874,0,0,1,10.873,10.873H159.884a10.874,10.874,0,0,1,10.873-10.873V10.873A10.874,10.874,0,0,1,159.884,0Z" fill="#96d9c9"/>
      <path id="Path_4014" data-name="Path 4014" d="M165.9,158.616H24.864a7.913,7.913,0,0,1-7.9-7.9V23.284a7.913,7.913,0,0,1,7.9-7.9H165.9a7.913,7.913,0,0,1,7.9,7.9V150.708a7.913,7.913,0,0,1-7.9,7.9ZM24.864,16.311a6.984,6.984,0,0,0-6.977,6.977V150.713a6.984,6.984,0,0,0,6.977,6.977H165.9a6.984,6.984,0,0,0,6.977-6.977V23.284a6.984,6.984,0,0,0-6.977-6.977H24.864Z" transform="translate(-10.004 -9.072)" fill="#fff"/>
      <rect id="Rectangle_93" data-name="Rectangle 93" width="128.7" height="142.785" transform="translate(156.771 13.576) rotate(90)" fill="#fff"/>
      <rect id="Rectangle_94" data-name="Rectangle 94" width="124.197" height="110.117" transform="translate(23.276 22.87)" fill="#466eb6"/>
      <path id="Path_4015" data-name="Path 4015" d="M260.268,211.568a2.069,2.069,0,0,0-1.571-.746c-1.587,0-1.788,1.858-4.077,1.858s-2.506-1.858-4.077-1.858a2.06,2.06,0,0,0-1.567.746,3.353,3.353,0,0,1-5.016,0,2.067,2.067,0,0,0-1.567-.746c-1.587,0-1.788,1.858-4.077,1.858s-2.473-1.858-4.073-1.858a2.06,2.06,0,0,0-1.567.746,3.353,3.353,0,0,1-5.016,0,2.022,2.022,0,0,0-3.138,0,3.349,3.349,0,0,1-5.012,0,2.067,2.067,0,0,0-1.567-.746.7.7,0,0,1,0-1.395c2.264,0,2.506,1.858,4.073,1.858a2.06,2.06,0,0,0,1.567-.746,3.353,3.353,0,0,1,5.016,0,2.067,2.067,0,0,0,1.567.746c1.587,0,1.788-1.858,4.077-1.858s2.5,1.858,4.073,1.858a2.061,2.061,0,0,0,1.567-.746,3.349,3.349,0,0,1,5.012,0,2.017,2.017,0,0,0,3.134,0,3.353,3.353,0,0,1,5.016,0,2.022,2.022,0,0,0,3.138,0,3.353,3.353,0,0,1,5.016,0,2.069,2.069,0,0,0,1.571.746c1.587,0,1.792-1.858,4.077-1.858a.7.7,0,0,1,0,1.395,2.069,2.069,0,0,0-1.571.746,3.353,3.353,0,0,1-5.016,0Z" transform="translate(-128.147 -123.522)" fill="#86b1f2"/>
      <path id="Path_4016" data-name="Path 4016" d="M173.4,261.508a2.069,2.069,0,0,0-1.571-.746c-1.587,0-1.788,1.858-4.077,1.858s-2.506-1.858-4.077-1.858a2.074,2.074,0,0,0-1.567.746,3.349,3.349,0,0,1-5.012,0,2.067,2.067,0,0,0-1.567-.746c-1.587,0-1.788,1.858-4.073,1.858s-2.473-1.858-4.073-1.858a2.074,2.074,0,0,0-1.567.746,3.353,3.353,0,0,1-5.016,0,2.018,2.018,0,0,0-3.134,0,3.349,3.349,0,0,1-5.012,0,2.067,2.067,0,0,0-1.567-.746.7.7,0,0,1,0-1.395c2.264,0,2.506,1.858,4.073,1.858a2.06,2.06,0,0,0,1.567-.746,3.353,3.353,0,0,1,5.016,0,2.067,2.067,0,0,0,1.567.746c1.587,0,1.788-1.858,4.077-1.858s2.506,1.858,4.073,1.858a2.06,2.06,0,0,0,1.567-.746,3.349,3.349,0,0,1,5.012,0,2.017,2.017,0,0,0,3.134,0,3.353,3.353,0,0,1,5.016,0,2.022,2.022,0,0,0,3.138,0,3.353,3.353,0,0,1,5.016,0,2.069,2.069,0,0,0,1.571.746c1.587,0,1.792-1.858,4.077-1.858a.7.7,0,0,1,0,1.395,2.083,2.083,0,0,0-1.571.746,3.358,3.358,0,0,1-5.02,0Z" transform="translate(-76.912 -152.979)" fill="#86b1f2"/>
      <path id="Path_4017" data-name="Path 4017" d="M103.4,283.768a2.069,2.069,0,0,0-1.571-.746c-1.587,0-1.788,1.858-4.077,1.858s-2.506-1.858-4.077-1.858a2.054,2.054,0,0,0-1.567.746,3.353,3.353,0,0,1-5.016,0,2.067,2.067,0,0,0-1.567-.746c-1.587,0-1.788,1.858-4.077,1.858s-2.469-1.858-4.073-1.858a2.061,2.061,0,0,0-1.567.746,3.353,3.353,0,0,1-5.016,0,2.017,2.017,0,0,0-3.134,0,3.349,3.349,0,0,1-5.012,0,2.067,2.067,0,0,0-1.567-.746.7.7,0,0,1,0-1.394c2.264,0,2.506,1.858,4.073,1.858a2.061,2.061,0,0,0,1.567-.746,3.353,3.353,0,0,1,5.016,0,2.067,2.067,0,0,0,1.567.746c1.587,0,1.788-1.858,4.077-1.858s2.506,1.858,4.073,1.858a2.061,2.061,0,0,0,1.567-.746,3.349,3.349,0,0,1,5.012,0,2.017,2.017,0,0,0,3.134,0,3.353,3.353,0,0,1,5.016,0,2.022,2.022,0,0,0,3.138,0,3.353,3.353,0,0,1,5.016,0,2.069,2.069,0,0,0,1.571.746c1.583,0,1.792-1.858,4.077-1.858a.7.7,0,0,1,0,1.394,2.069,2.069,0,0,0-1.571.746,3.358,3.358,0,0,1-5.02,0Z" transform="translate(-35.623 -166.109)" fill="#86b1f2"/>
      <path id="Path_4018" data-name="Path 4018" d="M106.5,261.508a2.069,2.069,0,0,0-1.571-.746c-1.587,0-1.788,1.858-4.077,1.858s-2.506-1.858-4.077-1.858a2.074,2.074,0,0,0-1.567.746,3.353,3.353,0,0,1-5.016,0,2.067,2.067,0,0,0-1.567-.746c-1.587,0-1.788,1.858-4.077,1.858s-2.469-1.858-4.073-1.858a2.074,2.074,0,0,0-1.567.746,3.353,3.353,0,0,1-5.016,0,2.022,2.022,0,0,0-3.138,0,3.349,3.349,0,0,1-5.012,0,2.067,2.067,0,0,0-1.567-.746.7.7,0,0,1,0-1.395c2.264,0,2.506,1.858,4.073,1.858a2.06,2.06,0,0,0,1.567-.746,3.353,3.353,0,0,1,5.016,0,2.067,2.067,0,0,0,1.567.746c1.587,0,1.788-1.858,4.077-1.858s2.5,1.858,4.073,1.858a2.06,2.06,0,0,0,1.567-.746,3.349,3.349,0,0,1,5.012,0,2.017,2.017,0,0,0,3.134,0,3.353,3.353,0,0,1,5.016,0,2.022,2.022,0,0,0,3.138,0,3.353,3.353,0,0,1,5.016,0,2.069,2.069,0,0,0,1.571.746c1.587,0,1.792-1.858,4.077-1.858a.7.7,0,0,1,0,1.395,2.083,2.083,0,0,0-1.571.746,3.353,3.353,0,0,1-5.016,0Z" transform="translate(-37.445 -152.979)" fill="#86b1f2"/>
      <path id="Path_4019" data-name="Path 4019" d="M222.792,224.979a4.863,4.863,0,0,1-3.1,1.05c-2.937,0-3.031-1.858-5.41-1.858s-2.49,1.858-5.406,1.858-3.027-1.858-5.406-1.858-2.506,1.858-5.41,1.858-3.031-1.858-5.406-1.858-2.49,1.858-5.406,1.858-3.031-1.858-5.41-1.858a3.532,3.532,0,0,0-2.309.808,5.025,5.025,0,0,1-6.2,0,3.554,3.554,0,0,0-2.309-.808.7.7,0,0,1,0-1.395,4.83,4.83,0,0,1,3.1,1.054,3.651,3.651,0,0,0,4.618,0c5.348-3.679,6.382,3.047,10.816,0a4.863,4.863,0,0,1,3.1-1.05c2.937,0,3.031,1.858,5.406,1.858s2.506-1.858,5.41-1.858,3.015,1.858,5.406,1.858,2.506-1.858,5.406-1.858,3.031,1.858,5.41,1.858,2.506-1.858,5.406-1.858,3.031,1.858,5.41,1.858,2.506-1.858,5.41-1.858a.7.7,0,1,1,0,1.395,3.524,3.524,0,0,0-2.309.808c-5.258,3.609-6.406-3.035-10.82,0Z" transform="translate(-100.469 -131.359)" fill="#86b1f2"/>
      <path id="Path_4020" data-name="Path 4020" d="M260.47,282.551c-2.609,0-2.723-1.858-4.713-1.858s-2.149,1.858-4.709,1.858-2.727-1.858-4.713-1.858a2.72,2.72,0,0,0-1.924.779,4.1,4.1,0,0,1-5.574,0,2.712,2.712,0,0,0-1.924-.779c-1.94,0-2.149,1.858-4.709,1.858s-2.727-1.858-4.708-1.858-2.1,1.858-4.708,1.858-2.727-1.858-4.709-1.858-2.1,1.858-4.709,1.858-2.727-1.858-4.708-1.858a.7.7,0,0,1,0-1.395c2.6,0,2.727,1.858,4.708,1.858s2.1-1.858,4.709-1.858,2.727,1.858,4.709,1.858a2.72,2.72,0,0,0,1.924-.779,4.1,4.1,0,0,1,5.574,0,2.712,2.712,0,0,0,1.924.779c1.94,0,2.149-1.858,4.709-1.858s2.727,1.858,4.709,1.858a2.72,2.72,0,0,0,1.924-.779,4.1,4.1,0,0,1,5.574,0,2.764,2.764,0,0,0,3.847,0,4.1,4.1,0,0,1,5.574,0,2.764,2.764,0,0,0,3.847,0,4.092,4.092,0,0,1,2.789-1.079.7.7,0,0,1,0,1.395,2.712,2.712,0,0,0-1.924.779,4.092,4.092,0,0,1-2.789,1.079Z" transform="translate(-122.673 -164.736)" fill="#86b1f2"/>
      <rect id="Rectangle_95" data-name="Rectangle 95" width="124.197" height="60.841" transform="translate(23.276 22.87)" fill="#9bc1f9"/>
      <rect id="Rectangle_96" data-name="Rectangle 96" width="124.033" height="2.727" transform="translate(23.276 100.031)" fill="#fae0b2"/>
      <rect id="Rectangle_97" data-name="Rectangle 97" width="1.185" height="31.499" transform="translate(116.507 101.393)" fill="#fae0b2"/>
      <path id="Path_4021" data-name="Path 4021" d="M197.371,233.9l-.931,2.342a13.233,13.233,0,0,0,.87,1.079c.3.3,20.52,0,20.52,0s.55-.164,1.378.66.8,2.289,1.489,3.445.939,3.831,1.267,3.831.939-.275.718-1.6-.349-2.481.049-2.481.861,1.956.861,1.956-.275,4.549.3,4.8.718-.139.718-.139l.246-2.4s-.139,2.289.386,2.289-.111-8.712-.111-9-5.984-4.479-5.984-4.479l-17.821-1.444-3.958,1.14Z" transform="translate(-115.87 -137.294)" fill="#f79c8d"/>
      <path id="Path_4022" data-name="Path 4022" d="M180.1,176a14.62,14.62,0,0,1,3.474,5.791c1.325,3.859,5.115,17.5,5.115,17.5l-4.717,3.925-8.962-15.856L180.1,176Z" transform="translate(-103.23 -103.814)" fill="#f47458"/>
      <path id="Path_4023" data-name="Path 4023" d="M97.465,283.28l-1.39,3.548-1.649,1.616-.886,6.177v5.365h12.645l6.066-15.549Z" transform="translate(-55.175 -167.093)" fill="#13375b"/>
      <path id="Path_4024" data-name="Path 4024" d="M147.995,175.277c.308-2.079.242-15.86-.381-18.108s-3.568-5.459-3.568-5.459l-4.885,10.57,1.632,10.762,7.2,2.231Z" transform="translate(-82.084 -89.486)" fill="#50bfa5"/>
      <path id="Path_4025" data-name="Path 4025" d="M93.988,139.93s-13.97,5.147-15.217,9.483S87.3,196.756,87.3,196.756l-2.055,7.132,21.315.734s.4-29.5,1.1-36.462c.7-6.9.7-23.4.7-23.4L93.988,139.93Z" transform="translate(-46.398 -82.538)" fill="#96d9c9"/>
      <path id="Path_4026" data-name="Path 4026" d="M106.28,125.79l1.341,7.227s5.332,8.806,7.977,7.506c2.219-1.091.381-7.85.381-7.85s-.7-1.567-1.271-3.351a12.924,12.924,0,0,1-.734-3.6c.008-2.424-7.694.066-7.694.066Z" transform="translate(-62.689 -73.533)" fill="#f7a491"/>
      <path id="Path_4027" data-name="Path 4027" d="M115.98,125.744c.008-2.424-6.3.148-6.3.148v.71a3.9,3.9,0,0,0,.9,1.054,8.751,8.751,0,0,0,6.132,1.673,12.978,12.978,0,0,1-.73-3.585Z" transform="translate(-64.695 -73.557)" fill="#f48c58"/>
      <g id="Group_3530" data-name="Group 3530" transform="translate(36.36 32.547)">
        <path id="Path_4028" data-name="Path 4028" d="M117.9,90.19s2.149,4.352,1.915,7.756a17.7,17.7,0,0,1-1.243,5.615l-7.235-11.3,6.562-2.067Z" transform="translate(-102.034 -85.746)" fill="#184655"/>
        <path id="Path_4029" data-name="Path 4029" d="M103.42,94.44c-.189-.066-1.427,9.766,1.124,12.44s7.485,3.515,9.232,1.37c1.932-2.371,1.731-12.924-2.223-15.664S103.42,94.44,103.42,94.44Z" transform="translate(-97.088 -86.645)" fill="#f7a491"/>
        <path id="Path_4030" data-name="Path 4030" d="M95.041,80.961a15.9,15.9,0,0,0-5.553,6.087c-2.342,3.937.693,8.716,3.486,10.816s2.764,4.479,2.764,4.479l.435-1.194c.316-.968-1.091-5.176-1.349-5.713-.681-1.415-.812-1.719-.234-2.908.443-.915.34-3.068,1.042-4.581l4.163-.357a8.583,8.583,0,0,0,4.085-1.6c4.22-3.769-2.444-9.429-8.835-5.037Z" transform="translate(-88.652 -79.355)" fill="#184655"/>
        <path id="Path_4031" data-name="Path 4031" d="M101.454,111.93c.361,1.144.115,2.239-.55,2.449s-1.493-.546-1.854-1.69-.115-2.239.55-2.449S101.093,110.785,101.454,111.93Z" transform="translate(-94.688 -97.552)" fill="#f7a491"/>
      </g>
      <path id="Path_4032" data-name="Path 4032" d="M99.249,226.86l-1.235,2.682s-4.208,13.17-4.684,14.2-1.743,4.606-1.743,4.606l-1.907,5.16s.226,6.8.258,7.132c.217,2.285,1.436,1.751,1.325,1.862l.365-3.736.775-3.453,1.4-1.764s.845,3.859,1.542,3.859.185-5,.185-5.771-.993-3.453-.66-4.155,10.565-18.194,10.565-18.194l-.943-2.428H99.253Z" transform="translate(-52.898 -133.814)" fill="#f79c8d"/>
      <path id="Path_4033" data-name="Path 4033" d="M130.241,255.174s-4.356,6.948-5.488,11.246-.578,16.98-.578,16.98h69.032s-1.325-3.97-10.918-6.948-16.431-1.764-20.95-7.169-12.965-7.629-15.04-9.7a6.7,6.7,0,0,1-2.055-4.409h-14Z" transform="translate(-73.165 -150.512)" fill="#3c8f7c"/>
      <path id="Path_4034" data-name="Path 4034" d="M135.12,171.121s1.325,19.244,1.325,21.5-.66,7.5-.66,7.5l15.881,1.1s2.428-11.029,3.252-13.014,3.031-4.409,3.031-7.112-1.378-14.06-1.378-14.06-9.815-5.623-11.911-5.9-8.437-.332-8.437-.332l-1.1,10.311Z" transform="translate(-79.701 -94.854)" fill="#f7cc7f"/>
      <path id="Path_4035" data-name="Path 4035" d="M77.844,206.952s4.348,16.869,5.283,17.2,19.306-.381,20.741.062,6.4,1.6,7.5,1.267,4.905-1.325,5.623-2.592-2.149.275-2.814.55,3.363-1.682,3.72-2.038,1.477-1.559,1.046-1.985-1.764,1.267-2.9,1.764-2.838,1.157-2.838.964,3.088-1.489,3.392-1.792,2.125-1.653,2.125-2.125,0-1.021-.993-.5-3.556,2.178-4.163,2.317,1.612-2.137,1.9-2.424.55-.993-.718-.771-5.914,2.867-6.886,2.867S90.444,215.4,90.444,215.4L89.427,203.33,77.84,206.952Z" transform="translate(-45.914 -119.935)" fill="#f48c7f"/>
      <path id="Path_4036" data-name="Path 4036" d="M121.672,160.563s-2.723-.845-3.991,1.214-7.231,26.9-7.231,26.9l7.489,1.837,4.286-17.341-.55-12.608Z" transform="translate(-65.149 -94.607)" fill="#f7cc7f"/>
      <path id="Path_4037" data-name="Path 4037" d="M87.7,177.13s.947-12.21-1.185-16.549-6.817-6.23-10.7-2.354-.845,21.393-.845,21.393Z" transform="translate(-43.561 -92.09)" fill="#50bfa5"/>
      <path id="Path_4038" data-name="Path 4038" d="M168.032,108.166s-7.608-8.121-16.5-3.626a10.756,10.756,0,0,0-6.041,9.138,18.935,18.935,0,0,0,1.854,10.143c1.862,3.494,5.192,5.607,8.851,6.891,6.169,2.17,11.841,0,18.19,0s4.184,8.851,9.757,10.775,18.428-5.484,20.754-14.671c2.8-11.062-1.358-23.042-13.322-22.279-9.893.632-21.176,5.611-23.543,3.626Z" transform="translate(-85.781 -60.863)" fill="#13375b"/>
      <path id="Path_4039" data-name="Path 4039" d="M160.435,148.23s-.64,7.395-1.464,9.446-.7,9.421,3.757,10.75,4.38-8.129,4.565-10.319.39-9.36.39-9.36l-7.243-.517Z" transform="translate(-93.536 -87.434)" fill="#f7a491"/>
      <path id="Path_4040" data-name="Path 4040" d="M162.56,150.474a8.192,8.192,0,0,0,1.6,1.337,5.558,5.558,0,0,0,5.75.533c.07-1.952.115-3.6.115-3.6l-7.243-.517S162.7,149.169,162.56,150.474Z" transform="translate(-95.886 -87.434)" fill="#f47458"/>
      <path id="Path_4041" data-name="Path 4041" d="M160.9,111.411a7.722,7.722,0,0,0-4.339,3.134c-1.657,2.527-2.859,10.479,2.6,13.953s9.766-1.948,9.835-6.743S168.039,110.566,160.9,111.411Z" transform="translate(-91.526 -65.671)" fill="#f7a491"/>
      <path id="Path_4042" data-name="Path 4042" d="M188.975,128.245c-.119,1.239-.8,2.19-1.526,2.12s-1.214-1.132-1.1-2.371.8-2.19,1.526-2.12S189.094,127.007,188.975,128.245Z" transform="translate(-109.911 -74.245)" fill="#f7a491"/>
      <path id="Path_4043" data-name="Path 4043" d="M158.244,109.979s-3.421,7.67-6.423,8.359-2.961,4.544-2.961,4.544.066-8.913,2.883-10.959a11.832,11.832,0,0,1,6.5-1.944Z" transform="translate(-87.805 -64.871)" fill="#13375b"/>
      <path id="Path_4044" data-name="Path 4044" d="M154.588,132.148c.394,1.247.033,2.473-.808,2.74s-1.846-.525-2.239-1.772-.033-2.473.808-2.74S154.194,130.9,154.588,132.148Z" transform="translate(-89.293 -76.872)" fill="#f7a491"/>
    </g>
    <path id="Path_4045" data-name="Path 4045" d="M326.792,282.589s1.989-3.72,5.849-3.687c3.441.033,5.779,3.888,5.738,8.359-.045,5.172-3.335,11.263-11.779,16.508-8.347-5.393-11.525-11.546-11.48-16.718.041-4.467,2.449-8.285,5.89-8.252C324.869,278.837,326.792,282.589,326.792,282.589Z" transform="translate(-185.873 -164.45)" fill="#f47458"/>
  </g>
</svg>
