<svg id="Layer_2" data-name="Layer 2" xmlns="http://www.w3.org/2000/svg" xmlns:xlink="http://www.w3.org/1999/xlink" width="185.547" height="146.706" viewBox="0 0 185.547 146.706">
  <defs>
    <clipPath id="clip-path">
      <rect id="Rectangle_100" data-name="Rectangle 100" width="170.585" height="130.001" fill="none"/>
    </clipPath>
  </defs>
  <g id="Group_3561" data-name="Group 3561">
    <g id="Group_3560" data-name="Group 3560">
      <rect id="Rectangle_98" data-name="Rectangle 98" width="185.547" height="146.706" fill="#f7cc7f"/>
      <g id="Group_3559" data-name="Group 3559" transform="translate(7.407 8.355)" clip-path="url(#clip-path)">
        <rect id="Rectangle_99" data-name="Rectangle 99" width="170.585" height="130.001" fill="#9bc1f9"/>
        <g id="Group_3558" data-name="Group 3558" transform="translate(7.1 11.957)">
          <path id="Path_4121" data-name="Path 4121" d="M162.1,96.942c-.677-2.178-.373-4.508-1.833-6.46-.517-.689-1.05-1.062-1.53-1.813-.771-1.21-2.559-3.031-3.113-3.786a.486.486,0,0,1-.148-.365.758.758,0,0,1,.746-.48,1.254,1.254,0,0,1,.738.328c.816.582,2.354,1.952,2.695,1.6.406-.422.345-1.6-.361-3.749s-1.961-5.328-1.181-5.439,2.949,5.812,3.285,5.8.16-7.1.947-7.42.718,6.636.96,6.944,1.973-6.394,2.662-6.2c.911.25-1.058,6.07-.726,6.53s2.079-3.978,2.9-4.237-.131,2.748-.874,4.335c-.562,1.2-.521,4.942-.463,5.8s-.669,2.486-.435,3.835a3.541,3.541,0,0,0,.738,1.846q-2.5,1.47-5,2.941Z" transform="translate(-106.21 -64.636)" fill="#f8a492"/>
          <path id="Path_4122" data-name="Path 4122" d="M150.33,146.183l12.313-4.786-5.176-23.481,7.182-2.4s6.858,27.427,6.985,29.239-14.683,15.524-14.683,15.524Z" transform="translate(-103.18 -88.451)" fill="#3c8f7c"/>
          <g id="Group_3553" data-name="Group 3553" transform="translate(0 9.752)">
            <path id="Path_4123" data-name="Path 4123" d="M50.1,92.881a31.594,31.594,0,0,0-1.153-3.437,7.508,7.508,0,0,1-.394-3.1c.115-.853.4-1.44.451-2.33a12.8,12.8,0,0,1,.238-1.678c.115-.6.246-1.2.377-1.8.094-.443.205-.89.258-1.341a.492.492,0,0,0-.049-.39.526.526,0,0,0-.336-.164.91.91,0,0,0-.55.1,1.242,1.242,0,0,0-.484.648c-.213.451-.394.911-.6,1.366a4.766,4.766,0,0,1-.636,1.161c-.078.094-.205.221-.345.18-.562-.172-1.079-1.23-1.509-3.449s-.886-5.607-1.616-5.328.258,6.513-.045,6.665-3.6-6.124-4.442-6.017,2.609,6.144,2.543,6.534-4.836-4.622-5.348-4.118c-.673.664,3.88,4.786,3.818,5.348s-3.88-.993-4.721-.82,1.4,1.641,2.654,2.071,3.211,3.88,3.581,4.659,1.8,1.846,2.248,3.138a3.569,3.569,0,0,1,.254,1.973q2.9.062,5.8.131Z" transform="translate(-35.372 -73.301)" fill="#f8a492"/>
            <g id="Group_3552" data-name="Group 3552" transform="translate(7.569 15.569)">
              <g id="Group_3550" data-name="Group 3550" transform="translate(43.884 68.605)">
                <path id="Path_4124" data-name="Path 4124" d="M163.42,317.04v0Z" transform="translate(-162.354 -301.245)" fill="#f7cc7f"/>
                <path id="Path_4125" data-name="Path 4125" d="M171.246,280.454c-.34-.689-.669-1.325-.98-1.924-2.867.993-6.111,2.092-9.446,3.224l1.066,12.567c-.008-.263,1.017,3.81,2.137,8.322H176.57c-1.161-7.813-3.006-17.513-5.32-22.189Z" transform="translate(-160.82 -278.53)" fill="#f7cc7f"/>
              </g>
              <path id="Path_4126" data-name="Path 4126" d="M138.636,286.384c-5.558,1.891-10.656,3.7-15.426,5.434.968,4.561,2.235,10.36,3.322,15.454h16.193a115.468,115.468,0,0,0-.509-15.93l-3.585-4.963Z" transform="translate(-94.752 -214.555)" fill="#fae0b2"/>
              <path id="Path_4127" data-name="Path 4127" d="M134.66,190.414l-3.962.021s-7.014.386-8.3.55c-.111.012-2.235,25.085-2.362,34.44a85.825,85.825,0,0,0,1.378,16.681,106.118,106.118,0,0,0,15.2-1.554,122.911,122.911,0,0,0,14.88-4.528s-9.876-22.406-11.64-27.8-5.2-17.809-5.2-17.809Z" transform="translate(-92.876 -157.947)" fill="#fff"/>
              <path id="Path_4128" data-name="Path 4128" d="M160.075,208.345l-9.319-18.485-4.786.217a94.755,94.755,0,0,1,6.813,14.81c2.5,7.395,12.854,34.961,12.854,34.961s3.741.086,4.462-2.231-10.024-29.268-10.024-29.268Z" transform="translate(-108.177 -157.623)" fill="#3c8f7c"/>
              <path id="Path_4129" data-name="Path 4129" d="M83.386,144.3l-13.375-14.15s-9.323-18.116-9.573-18.74c-.246-.607-5.069.8-6.6,1.727-.41.25,8.023,23.071,8.023,23.071l10.873,13.752s4.692,7.994,4.885,14.573c.324,10.93-1.267,31.38-.751,31.791,3.08,1.468,13.584,3.88,15.266,0,5.841-13.477-8.753-52.027-8.753-52.027Z" transform="translate(-53.825 -111.261)" fill="#3c8f7c"/>
              <path id="Path_4130" data-name="Path 4130" d="M122.63,172.57l1.341,7.227s5.332,8.806,7.977,7.506c2.219-1.091.381-7.85.381-7.85s-.7-1.567-1.271-3.351a12.924,12.924,0,0,1-.734-3.6C130.333,170.081,122.63,172.57,122.63,172.57Z" transform="translate(-94.41 -146.76)" fill="#f7a491"/>
              <path id="Path_4131" data-name="Path 4131" d="M132.33,172.534c.008-2.424-6.3.148-6.3.148v.71a3.976,3.976,0,0,0,.9,1.054,8.751,8.751,0,0,0,6.132,1.673A12.978,12.978,0,0,1,132.33,172.534Z" transform="translate(-96.415 -146.789)" fill="#f48c58"/>
              <g id="Group_3551" data-name="Group 3551" transform="translate(20.99 6.105)">
                <path id="Path_4132" data-name="Path 4132" d="M134.252,136.98s2.149,4.352,1.915,7.756a17.7,17.7,0,0,1-1.243,5.615l-7.235-11.3,6.562-2.067Z" transform="translate(-118.384 -132.536)" fill="#184655"/>
                <path id="Path_4133" data-name="Path 4133" d="M119.77,141.22c-.189-.066-1.427,9.766,1.124,12.44s7.485,3.515,9.232,1.37c1.932-2.371,1.731-12.924-2.223-15.664S119.77,141.22,119.77,141.22Z" transform="translate(-113.438 -133.429)" fill="#f7a491"/>
                <path id="Path_4134" data-name="Path 4134" d="M111.391,127.751a15.9,15.9,0,0,0-5.553,6.087c-2.342,3.937.693,8.716,3.486,10.816s2.764,4.479,2.764,4.479l.435-1.194c.316-.968-1.091-5.176-1.349-5.713-.681-1.415-.812-1.719-.234-2.908.443-.915.34-3.068,1.042-4.581l4.163-.357a8.56,8.56,0,0,0,4.081-1.6c4.22-3.769-2.444-9.429-8.835-5.037Z" transform="translate(-105.002 -126.145)" fill="#184655"/>
                <path id="Path_4135" data-name="Path 4135" d="M117.8,158.71c.361,1.144.115,2.239-.55,2.449s-1.493-.545-1.854-1.69-.115-2.239.55-2.449S117.443,157.565,117.8,158.71Z" transform="translate(-111.038 -144.336)" fill="#f7a491"/>
              </g>
            </g>
          </g>
          <g id="Group_3554" data-name="Group 3554" transform="translate(70.665)">
            <path id="Path_4136" data-name="Path 4136" d="M290.287,103.374s1.735-19.339,2.145-23.251-1.5-16.632-1.554-17.181-6.431-4.311-5.726-4.905,3.158,2.084,3.818,1.284-.623-9.569.049-9.442c1.259.242,1,5.336,1.612,5.344s-.242-5.344.775-5.685.316,5.135.763,5.365,1.374-5.069,2.305-4.508c.5.3-.943,4.688-.246,4.68s2.346-3.2,2.892-2.793-1.751,2.494-1.817,4.36S294.2,59.825,295,62.823s5.43,13.76,5,20.114-1.895,19.872-1.895,19.872l-7.817.566Z" transform="translate(-253.337 -49.523)" fill="#f48c7f"/>
            <path id="Path_4137" data-name="Path 4137" d="M297.78,138.57l10.381,2.231-.386,22.509-9.122-3.2Z" transform="translate(-260.818 -102.047)" fill="#3c8f7c"/>
            <path id="Path_4138" data-name="Path 4138" d="M208.526,142.361c3.17,9.142,12.981,6.685,12.985,6.685.283.037,1.239.853,2.116,1.247,3.708,1.678,8.379,1.977,11.382-.73,5.775,2.018,12.186-2.35,12.551-7.473,3.761-1.772,3.913-5.467,3.01-9.651,1.727-5.25-3.954-10.877-9.269-11.39a10.171,10.171,0,0,0-7.571,2.5,9.786,9.786,0,0,0-12.452,2.978C211.861,122.116,205.208,132.792,208.526,142.361Z" transform="translate(-207.662 -91.688)" fill="#b75742"/>
            <path id="Path_4139" data-name="Path 4139" d="M335.175,290.809c-.562-4.028-27.546-30.339-27.546-30.339L293.91,274.879s8.716,6.616,11.98,9.068c2.014,1.513,8.839,5.258,13.855,8.047h15.586c-.066-.546-.119-.947-.152-1.185Z" transform="translate(-258.535 -173.95)" fill="#355389"/>
            <path id="Path_4140" data-name="Path 4140" d="M285.231,280.689c1.534-9.319,6.009-15.856,6.554-21.172,0-.045.061-.611,0-.628l14.269,3.806s1.239,5.508.394,8.084c.008,0-1.891,11.587-4.524,22.993-5.685-.287-11.32-1.021-17.042-1.677a64.414,64.414,0,0,1,.349-11.406Z" transform="translate(-253.162 -173.018)" fill="#466eb6"/>
            <path id="Path_4141" data-name="Path 4141" d="M301.007,196c-.176-2.945.185-9.167-.074-10.114.012-.078.021-.156.033-.234l-10.832-7.58c-.037,0,.107-.025-.258.025a81.286,81.286,0,0,0-11.8,3.421l.271,10.1c.874.439,7.268,27.164,5.562,29.888-.833,1.333,21,.537,21.607-2.071.263-1.128-4.163-17.476-4.52-23.432Z" transform="translate(-249.198 -125.341)" fill="#50bfa5"/>
            <path id="Path_4142" data-name="Path 4142" d="M292.85,167.267s.906,4.6.993,6.448,2.317,7.5,6.013,7.005-.057-7.629-.652-9.364-1.739-7.186-1.739-7.186l-4.61,3.1Z" transform="translate(-257.91 -117.148)" fill="#f7a491"/>
            <path id="Path_4143" data-name="Path 4143" d="M298.037,166.834a4.641,4.641,0,0,1-4.877,2.141c-.176-.988-.32-1.714-.32-1.714l4.61-3.1s.254,1.214.586,2.674Z" transform="translate(-257.904 -117.142)" fill="#f47458"/>
            <path id="Path_4144" data-name="Path 4144" d="M280.119,137.594a6.811,6.811,0,0,0-2.252,4.118c-.386,2.654,1.378,9.122,6.845,9.979s7.014-4.676,5.361-8.6-4.721-8.761-9.958-5.492Z" transform="translate(-249.042 -100.838)" fill="#f7a491"/>
            <path id="Path_4145" data-name="Path 4145" d="M305.589,146.875c.049,1.042-.386,1.9-.968,1.924s-1.091-.8-1.136-1.846.386-1.9.968-1.924S305.543,145.833,305.589,146.875Z" transform="translate(-264.181 -105.857)" fill="#f7a491"/>
            <path id="Path_4146" data-name="Path 4146" d="M278.292,135.264s.082,8.154-2.194,9.942-.742,5.2-.742,5.2-3.4-7.932-1.813-10.857a10.922,10.922,0,0,1,4.745-4.286Z" transform="translate(-246.273 -100.095)" fill="#b75742"/>
            <path id="Path_4147" data-name="Path 4147" d="M280.563,161.952c.705.816.849,1.878.328,2.367s-1.522.226-2.223-.595-.849-1.878-.328-2.367S279.862,161.132,280.563,161.952Z" transform="translate(-249.167 -115.344)" fill="#f7a491"/>
            <path id="Path_4148" data-name="Path 4148" d="M243.951,110.744s-9.068-16.377-11.279-19.859-7.94-17.3-8.146-17.85,4.028-7.055,3.093-7.28-1.993,3.433-2.99,2.99-3.876-9.282-4.45-8.847c-1.07.816,1.55,5.484.98,5.771s-2.268-5.131-3.384-4.979,2.1,4.975,1.784,5.4-3.659-4.118-4.27-3.158c-.332.521,3.072,3.966,2.416,4.282s-3.7-1.907-4.019-1.271,2.81,1.526,3.741,3.248,2.527,2.477,3.175,5.664,1.583,14.716,4.959,20.483,10.787,18.526,10.787,18.526l7.608-3.117Z" transform="translate(-211.202 -55.633)" fill="#f48c7f"/>
            <path id="Path_4149" data-name="Path 4149" d="M270.623,164.249c-2.621-3.2-9.3-11.849-9.3-11.849s-6.813,4.61-7.551,7.038c0,0,12.362,18.649,11.447,19.019,0,0,6.288-13.125,5.4-14.208Z" transform="translate(-234.859 -110.205)" fill="#50bfa5"/>
          </g>
          <g id="Group_3557" data-name="Group 3557" transform="translate(49.402 13.678)">
            <path id="Path_4150" data-name="Path 4150" d="M210.671,147.142c-1.427-3.909-1.358-15.6-4.786-18.629-3.363-2.974-10.787-3.921-14.392-1.218-3.355,2.514-4.659,6.96-6.017,11.062a10.242,10.242,0,0,1-4.208,5.808c-3.917,2.748-14.954,6.87-18.375,10.143-6.3,6.037-4.909,18.022-1.554,22.513,15.819,21.172,37.43,8.273,40.4-5.611,1.029-4.811,14.95-7.6,8.929-24.063Z" transform="translate(-157.397 -108.134)" fill="#13375b"/>
            <path id="Path_4151" data-name="Path 4151" d="M173.53,127.605l-7.5-4.249c.217-.718.394-1.325.517-1.776,1.288-4.758,8.851-20.959,9.167-21.578s9.466-2.137,8.913-3.146-4.606-.123-4.8-.652c-.447-1.226,4.807-10.475,3.962-10.627-1.579-.287-3.585,5.787-4.3,5.516s2.7-6.136,1.661-7-2.691,5.861-3.318,5.927.681-6.546-.66-6.312c-.73.127-1.017,5.91-1.829,5.582s-1.3-4.795-2.12-4.569.89,4.471.119,6.681-.115,3.458-2.4,6.6-16.459,24.871-15.02,28.7c1.165,3.109,12.653,9.433,13.908,9.286,4.8-.558,3.7-8.388,3.7-8.388Z" transform="translate(-155.82 -83.363)" fill="#f7a491"/>
            <g id="Group_3556" data-name="Group 3556" transform="translate(9.2)">
              <g id="Group_3555" data-name="Group 3555" transform="translate(47.533)">
                <path id="Path_4152" data-name="Path 4152" d="M323.287,99.7a46.883,46.883,0,0,0-1.636-10.721,47.879,47.879,0,0,0-3.146-4.212c-.238-.324-2.231-1.858-2.494-.656-.074.345,1.657,2.084,2.3,2.756-.529-.681-3.125-2.662-3.581-2.49-.886.328,1.961,3.494,2.875,4.311.734.652.5,3.33.377,4.38-.045.369-.357,1.362-.238,1.009.021-.066-.586-1.616-.82-2.444-.152-.545-.558-.8-.853-.517-.738.71-.131,5.5.213,6.185a28.807,28.807,0,0,0,1.792,2.777s-3.265,23.633-4.106,24.022c-1.969.906-19.65,5.9-19.65,5.9s-.435,11.148.049,10.857,24.843-8.6,26.4-10.615c2.256-2.908,2.8-16.082,2.436-24.876-.016-3.47.082-5.635.082-5.652Z" transform="translate(-294.143 -83.334)" fill="#f79c8d"/>
                <path id="Path_4153" data-name="Path 4153" d="M352.323,107.89l.25.258a1.117,1.117,0,0,1-.012.927c-.139.271-.328.283-1.477.451a13.154,13.154,0,0,1-3.494-.258Z" transform="translate(-325.669 -97.629)" fill="#f47458"/>
                <path id="Path_4154" data-name="Path 4154" d="M347.248,93.322,343.7,83.277a.627.627,0,0,0-.787-.373l-.394.131h0l-3.572,1.341a.494.494,0,0,0-.3.64l3.831,9.753,3.425-.386h0l.968-.312a.591.591,0,0,0,.39-.755Z" transform="translate(-320.372 -82.872)" fill="#13375b"/>
                <path id="Path_4155" data-name="Path 4155" d="M345.312,101.466a8.821,8.821,0,0,0-.861,2.695c-.217,1.509,2.3,5.057,2.748,5.4s.418-1.8.418-1.8.3-1.94-.172-2.178a5.823,5.823,0,0,1-1.206-1.1S346.67,99.977,345.312,101.466Z" transform="translate(-323.809 -93.662)" fill="#f79c8d"/>
                <path id="Path_4156" data-name="Path 4156" d="M352.881,91.963l-.841-1.94s-1.94-3.527-3.1-3.039,2.3,3.687,2.3,3.687a55.7,55.7,0,0,1,2.1,5.882l.521-1.062Z" transform="translate(-326.321 -85.27)" fill="#f79c8d"/>
              </g>
              <path id="Path_4157" data-name="Path 4157" d="M234.635,309.672l-24.256-2.522s-5.192,9.708-6.259,13.129h34.116l-3.6-10.6Z" transform="translate(-193.509 -215.163)" fill="#3c8f7c"/>
              <path id="Path_4158" data-name="Path 4158" d="M237.18,197.978l-3.3-11.71-19.966,2.465s-5.607-.361-8.625-.262c-2.141.07-15.024-2.645-23.136-4.651-.045.107-2.481,7.887-3.9,10.6,6.091,3.047,10.746,4.544,14.942,8.15,0,.016.533,17.267.96,27.853-.911,2.629-3.2,7.957-3.2,7.957s7.473,4.27,18.822,3.3a60.842,60.842,0,0,0,11.743-2.133,113.916,113.916,0,0,1-2.654-12c2.44-10.848,6.357-25.3,6.357-25.3l11.968-4.27Z" transform="translate(-178.25 -142.416)" fill="#f47458"/>
              <path id="Path_4159" data-name="Path 4159" d="M245.705,171.77s-.64,7.395-1.464,9.446-.7,9.421,3.761,10.75,4.38-8.129,4.565-10.319.39-9.36.39-9.36l-7.247-.517Z" transform="translate(-216.942 -135.309)" fill="#f7a491"/>
              <path id="Path_4160" data-name="Path 4160" d="M247.834,174.014a8.192,8.192,0,0,0,1.6,1.337,5.558,5.558,0,0,0,5.75.533c.07-1.952.115-3.6.115-3.6l-7.247-.517s-.082.939-.226,2.244Z" transform="translate(-219.292 -135.309)" fill="#f47458"/>
              <path id="Path_4161" data-name="Path 4161" d="M246.173,134.951a7.722,7.722,0,0,0-4.339,3.134c-1.657,2.527-2.859,10.479,2.6,13.953s9.766-1.948,9.835-6.743S253.309,134.106,246.173,134.951Z" transform="translate(-214.932 -113.546)" fill="#f7a491"/>
              <path id="Path_4162" data-name="Path 4162" d="M274.255,151.785c-.119,1.243-.8,2.19-1.526,2.12s-1.214-1.132-1.1-2.371.8-2.19,1.526-2.12S274.374,150.547,274.255,151.785Z" transform="translate(-233.322 -122.12)" fill="#f7a491"/>
              <path id="Path_4163" data-name="Path 4163" d="M243.518,133.513s-3.421,7.67-6.427,8.355-2.961,4.544-2.961,4.544.066-8.913,2.883-10.959a11.84,11.84,0,0,1,6.5-1.944Z" transform="translate(-211.211 -112.74)" fill="#13375b"/>
              <path id="Path_4164" data-name="Path 4164" d="M239.858,155.688c.394,1.247.033,2.473-.808,2.74s-1.846-.525-2.239-1.772-.033-2.473.808-2.74S239.465,154.441,239.858,155.688Z" transform="translate(-212.698 -124.747)" fill="#f7a491"/>
            </g>
            <path id="Path_4165" data-name="Path 4165" d="M206.731,113.425s-2.994-1.989-4.721.615A5.025,5.025,0,0,1,206.731,113.425Z" transform="translate(-183.065 -100.465)" fill="#f47458"/>
          </g>
        </g>
      </g>
    </g>
    <path id="Path_4166" data-name="Path 4166" d="M184.314,33.99l.078,3.314-5.32.718-.48,4.86L174.7,44.067l.6,1.973,5.209-1.587.455-4.606L186.5,39.1l-.119-4.987Z" transform="translate(-103.047 -20.049)" fill="#466eb6"/>
    <path id="Path_4167" data-name="Path 4167" d="M338.52,48.757l-3.2-.734.607-5.287-4.553-1.645-.193-4.032-2.038.1.254,5.389,4.319,1.563-.636,5.5,4.823,1.1Z" transform="translate(-194.144 -21.86)" fill="#f7cc7f"/>
    <path id="Path_4168" data-name="Path 4168" d="M28.44,203.321l-2.428-3.511-4.27.008a.587.587,0,0,1-.468-.943l2.588-3.4-1.329-4.056a.584.584,0,0,1,.751-.734l4.028,1.415,3.449-2.518a.585.585,0,0,1,.931.488l-.1,4.27,3.458,2.5a.587.587,0,0,1-.176,1.038l-4.089,1.222-1.308,4.065a.586.586,0,0,1-1.042.152Z" transform="translate(-12.477 -111.76)" fill="#f47458"/>
    <path id="Path_4169" data-name="Path 4169" d="M95.009,47.354l-3.162-1.185L89.078,48.1a.464.464,0,0,1-.73-.4l.152-3.376L85.8,42.285a.463.463,0,0,1,.156-.816l3.257-.9,1.107-3.191a.462.462,0,0,1,.824-.1l1.862,2.818,3.376.066a.464.464,0,0,1,.353.755l-2.108,2.641.98,3.232a.464.464,0,0,1-.607.57Z" transform="translate(-50.503 -21.864)" fill="#96d9c9"/>
    <path id="Path_4170" data-name="Path 4170" d="M368.716,233.229l1.612-2.194-1.1-.558a.492.492,0,0,1-.217-.66h0a.492.492,0,0,1,.66-.217l1.276.644,1.444-1.973-1.181-.595a.492.492,0,0,1-.217-.66h0a.492.492,0,0,1,.66-.217l1.349.681,1.673-2.256a.492.492,0,0,1,.615-.148l.205.1a.491.491,0,0,1,.176.726l-1.559,2.133,1.956.988,1.673-2.256a.492.492,0,0,1,.615-.148l.226.115a.491.491,0,0,1,.176.726L377.2,229.6l1.1.558a.492.492,0,0,1,.217.66h0a.492.492,0,0,1-.66.217l-1.276-.644-1.423,1.981,1.181.595a.492.492,0,0,1,.217.66h0a.492.492,0,0,1-.66.217l-1.349-.681-1.71,2.33a.492.492,0,0,1-.615.148l-.242-.123a.5.5,0,0,1-.176-.73l1.612-2.194-1.956-.988-1.71,2.33a.492.492,0,0,1-.615.148l-.242-.123a.5.5,0,0,1-.176-.73Zm5.311-1.431,1.444-1.973-1.956-.988-1.444,1.973Z" transform="translate(-217.433 -132.73)" fill="#f48c7f"/>
    <path id="Path_4171" data-name="Path 4171" d="M360.419,63.663c-.386,3.827,3.2,7.325,7.173,7.961a8.528,8.528,0,0,0,9.2-5.283c2.793-6.87-5.393-12.288-9.831-8.129-4.147,3.88-2.834,9.643,1.641,9.647,1.69,0,4.4-1.3,3.326-3.179a.717.717,0,0,0-1.173,0c-.541.849-.5.878-.755,1.07a2.461,2.461,0,0,1-1.464.39c-4.557-.07-1.526-9.638,3.843-7.321a5.323,5.323,0,0,1,2.793,7.038,6.843,6.843,0,0,1-6.685,4.413,7.53,7.53,0,0,1-6.952-6.6.562.562,0,0,0-1.116,0h0Z" transform="translate(-212.577 -33.48)" fill="#fae0b2"/>
  </g>
</svg>
