<svg id="Layer_2" data-name="Layer 2" xmlns="http://www.w3.org/2000/svg" width="174.686" height="217.094" viewBox="0 0 174.686 217.094">
  <g id="Group_3570" data-name="Group 3570" transform="translate(0 0)">
    <path id="Path_4211" data-name="Path 4211" d="M.482,101.329C2.8,73.349,13.447,47.53,30.468,28.638,68.148-13.185,126-8.763,156.543,39.072c37.274,58.385,14.314,147.407-43.431,171.951C53.9,236.19-6.019,179.946.482,101.329Z" transform="translate(0.003 -0.003)" fill="#86b1f2"/>
    <path id="Path_4212" data-name="Path 4212" d="M39.338,186.318C13.3,145.537,18.367,84.191,50.769,48.229,84.425,10.877,134.948,14.913,162.1,57.445c26.036,40.781,20.971,102.127-11.431,138.085-33.657,37.356-84.183,33.32-111.339-9.216Z" transform="translate(-13.39 -13.376)" fill="#fff"/>
    <ellipse id="Ellipse_33" data-name="Ellipse 33" cx="90.015" cy="68.54" rx="90.015" ry="68.54" transform="translate(11.599 192.56) rotate(-85.27)" fill="#fae0b2"/>
    <path id="Path_4213" data-name="Path 4213" d="M154.713,100.79l-1.6,2.334-4.04-2.161-2.76,3.125-3.289-1.124-.57,1.661,4.4,1.505,2.621-2.961,4.2,2.252,2.408-3.511Z" transform="translate(-84.023 -59.452)" fill="#96d9c9"/>
    <path id="Path_4214" data-name="Path 4214" d="M107.47,223.846l-4.7,1.132-2.658-7.362-7.079.808-2.887-5.184L87.52,214.7l3.864,6.936,6.706-.767,2.769,7.662,7.071-1.706Z" transform="translate(-51.622 -125.781)" fill="#f7cc7f"/>
    <g id="Group_3567" data-name="Group 3567" transform="translate(117.529 48.719)">
      <path id="Path_4215" data-name="Path 4215" d="M309.525,132.165a3.154,3.154,0,0,1,2.141-1.653,2.441,2.441,0,0,1,2.961,1.883c.353,1.518-.558,3.626-3.654,5.992-3.819-.759-5.57-2.244-5.923-3.761a2.441,2.441,0,0,1,1.825-2.994,3.153,3.153,0,0,1,2.65.541Z" transform="translate(-297.421 -125.663)" fill="#f48c7f"/>
      <path id="Path_4216" data-name="Path 4216" d="M287.074,140.539a33.122,33.122,0,0,0,3.691-.447c.369-.066,1.025-.074,1.226-.435a.4.4,0,0,0-.09-.533c-.328-.258-.861-.037-1.23.029-1.132.2-2.42.377-3.736.48a.461.461,0,0,0-.381.521.466.466,0,0,0,.521.381h0Z" transform="translate(-286.548 -130.711)" fill="#f48c7f"/>
      <path id="Path_4217" data-name="Path 4217" d="M334.4,139.524c.541-.086,1.083-.185,1.624-.283a5.006,5.006,0,0,0,1.6-.373.4.4,0,0,0-.119-.751,4.943,4.943,0,0,0-1.632.2c-.541.1-1.083.193-1.624.3a.457.457,0,0,0,.144.9h0Z" transform="translate(-314.47 -130.175)" fill="#f48c7f"/>
      <path id="Path_4218" data-name="Path 4218" d="M301.8,153.618a5.736,5.736,0,0,1,1.8-2.309.371.371,0,0,0-.381-.623,4.26,4.26,0,0,0-2.272,2.613.456.456,0,0,0,.853.32h0Z" transform="translate(-295.022 -137.588)" fill="#f48c7f"/>
      <path id="Path_4219" data-name="Path 4219" d="M318.056,157.727a4.055,4.055,0,0,1-.016-1.678c.07-.34.558-1.345-.107-1.4-.628-.053-.775.988-.845,1.431a4.769,4.769,0,0,0,.062,1.788c.131.574,1.034.439.906-.144h0Z" transform="translate(-304.529 -139.938)" fill="#f48c7f"/>
      <path id="Path_4220" data-name="Path 4220" d="M328.822,150.573c.34.164.681.332,1.017.5s.681.431,1.066.283a.406.406,0,0,0,.2-.521c-.111-.357-.628-.488-.939-.64l-1.021-.492a.468.468,0,0,0-.6.275.475.475,0,0,0,.275.6Z" transform="translate(-311.304 -136.999)" fill="#f48c7f"/>
      <path id="Path_4221" data-name="Path 4221" d="M301.936,124.059c-1.636-2.563-1.616-2.584-1.887-2.768a.406.406,0,0,0-.628.39c.057.34.053.283,1.788,2.978a.469.469,0,0,0,.726-.595h0Z" transform="translate(-294.139 -120.223)" fill="#f48c7f"/>
      <path id="Path_4222" data-name="Path 4222" d="M316.279,121.724a7.266,7.266,0,0,0,.139-1.489c-.008-.468.045-1.181-.431-1.423a.345.345,0,0,0-.353.057c-.34.328-.152.931-.148,1.362a8.481,8.481,0,0,1-.115,1.4.456.456,0,1,0,.906.094h0Z" transform="translate(-303.547 -118.786)" fill="#f48c7f"/>
      <path id="Path_4223" data-name="Path 4223" d="M331.262,123.43a.4.4,0,0,0-.357-.435c-.4-.082-.824.365-1.107.607a7.957,7.957,0,0,0-.9.919.464.464,0,0,0,.107.64.469.469,0,0,0,.64-.111c1.1-1.2,1.505-1.066,1.616-1.62Z" transform="translate(-311.476 -121.263)" fill="#f48c7f"/>
    </g>
    <path id="Path_4224" data-name="Path 4224" d="M320.646,288.729l-6.415.988-2.678,5.443a.929.929,0,0,1-1.6.033l-3.088-5.328-6.48-.738a.819.819,0,0,1-.55-1.4l4.508-4.282-1.325-5.9a.868.868,0,0,1,1.267-.894l5.873,2.682,5.66-2.908a.9.9,0,0,1,1.333.845l-.878,5.943,4.823,4.1a.8.8,0,0,1-.443,1.419Z" transform="translate(-176.707 -162.991)" fill="#f7a491"/>
    <g id="Group_3569" data-name="Group 3569" transform="translate(56.15 30.441)">
      <path id="Path_4225" data-name="Path 4225" d="M261.259,267.4a.613.613,0,0,0-1.07.263c-2.674,6.074-11.71,30.757-1.271,37.894,12.026,8.223,11.357-4.889,3.4-8.7s-1.058-29.457-1.058-29.457Z" transform="translate(-205.975 -188.034)" fill="#f47458"/>
      <path id="Path_4226" data-name="Path 4226" d="M201.722,310.532l-.652,50.018a53.843,53.843,0,0,0,17.645-2.367l1.218-47.224.767-28.7-9.643-7.3-9.339,35.572Z" transform="translate(-174.75 -192.628)" fill="#13375b"/>
      <path id="Path_4227" data-name="Path 4227" d="M175.9,286.22s-7.711,17.538-8.441,25.286c-1.3,13.76,6.353,54.923,6.353,54.923,1.575.275,3.166.484,4.782.615a52.965,52.965,0,0,0,10.828-.213l4-48.537,7.37-29.391L175.9,286.224Z" transform="translate(-154.837 -199.269)" fill="#355389"/>
      <g id="Group_3568" data-name="Group 3568">
        <path id="Path_4228" data-name="Path 4228" d="M194.652,91.837c-.139-5.069-.3-10.159-4.2-14.191-3.154-3.261-7.432-4.122-11.837-2.883-12.481,3.515-7.124,14.7-23.452,24.166-5.074,2.945-10.549,4.791-14.536,8.99-5.578,5.877-4.294,13.609-.107,19.047,20.044,26.016,47.36-4.618,49.776-12.317C192.093,108.924,194.743,95.1,194.652,91.837Z" transform="translate(-136.899 -74.222)" fill="#13375b"/>
        <path id="Path_4229" data-name="Path 4229" d="M216.548,167.546a65,65,0,0,0-3.076-6.029c-1.55-3.351-6.1-5.357-6.1-5.357s-1.571-.1-3.38-.16a1.418,1.418,0,0,1-.39.566c-.718.447-4.544-.525-7.186.956-8.986,6.443-9.528,41.228-9.774,52.212l25.552,2.358s-1.28-23.776,4.417-29.387c3.966-3.909,2.141-10.2-.062-15.155Z" transform="translate(-166.239 -122.459)" fill="#50bfa5"/>
        <path id="Path_4230" data-name="Path 4230" d="M230.884,126.014s-2.231,9.839-3.412,12.177,4.77,8.039,9.95,10.049-1.181-5.48-.746-8.047,2.412-14.733,2.412-14.733Z" transform="translate(-190.234 -104.445)" fill="#f7a491"/>
        <path id="Path_4231" data-name="Path 4231" d="M242.8,128.762c.312-1.924.537-3.3.537-3.3l-8.2.554s-.242,1.075-.611,2.6c3.138,2.194,6.091,1.809,8.277.152Z" transform="translate(-194.481 -104.445)" fill="#f47458"/>
        <path id="Path_4232" data-name="Path 4232" d="M235.575,81.788a9.517,9.517,0,0,0-5.631,3.367c-2.285,2.9-4.426,11.829,1.911,16.6s12.03-.767,12.6-6.583S244.406,81.484,235.575,81.788Z" transform="translate(-190.438 -78.68)" fill="#f7a491"/>
        <path id="Path_4233" data-name="Path 4233" d="M267.861,105.579c-.685,1.358-1.891,2.137-2.686,1.739s-.89-1.821-.2-3.179,1.891-2.137,2.686-1.739S268.55,104.222,267.861,105.579Z" transform="translate(-212.171 -90.782)" fill="#f7a491"/>
        <path id="Path_4234" data-name="Path 4234" d="M230.987,81.455s-4.963,8.974-8.712,9.5-4.085,5.221-4.085,5.221.98-10.824,4.635-13.022a14.66,14.66,0,0,1,8.162-1.7Z" transform="translate(-184.849 -78.458)" fill="#13375b"/>
        <path id="Path_4235" data-name="Path 4235" d="M225.649,106.251c.361,1.554-.209,3.006-1.267,3.248s-2.207-.824-2.568-2.379.209-3.006,1.267-3.248S225.288,104.7,225.649,106.251Z" transform="translate(-186.922 -91.692)" fill="#f7a491"/>
      </g>
      <path id="Path_4236" data-name="Path 4236" d="M247.366,164.761s11.636,8.978,11.365,20.364c-.176,7.4-9.253,20.073-17.37,18.4-3.093-.64-7.752-3.806-7.932-8.158-.193-4.573,4.175-10.328,4.175-10.328l-8.958-22.2c-.435-.591-4.241-5.619-4.13-5.689.833-.513,4.27-1.337,7.227,4.315.476.911,3.236,4.914,5.1,5.393C241.517,168.054,247.366,164.761,247.366,164.761Z" transform="translate(-188.579 -122.918)" fill="#f47458"/>
      <path id="Path_4237" data-name="Path 4237" d="M261.962,176.24s-5.849,3.293-10.524,2.092a5.448,5.448,0,0,1-2.178-1.546,31.076,31.076,0,0,0,4.442,4.983,28.111,28.111,0,0,0,10.389-3.654c-1.255-1.206-2.125-1.874-2.125-1.874Z" transform="translate(-203.175 -134.398)" fill="#b75742"/>
      <path id="Path_4238" data-name="Path 4238" d="M263.075,141.7s.291,4.692-1.513,5.91c0,0,.783,3.97.353,4.651s-3.047,4.335-11.677,5.406c0,0-6.845-5.869-6.082-10.4l2.711-3.909s.882-4.618,2.764-5.984L252,142.226s5.246.919,6.181,2.186l4.9-2.715Z" transform="translate(-200.129 -111.47)" fill="#f47458"/>
      <path id="Path_4239" data-name="Path 4239" d="M236.2,224.872s-7.383-.5-8.867,4.9.193,6.165.193,6.165-8.609-3.843-9.581-1.255c-.468,1.243,17.866,8.465,17.866,8.465l.39-18.272Z" transform="translate(-184.7 -163.076)" fill="#f47458"/>
      <path id="Path_4240" data-name="Path 4240" d="M212.554,192.354s10.307,22.685,14.142,23c6.234.517,20.036-18.165,20.036-18.165a54.909,54.909,0,0,0,1.952-5.865c.078-.96-2.76-6.279-3.211-5.9s.923,3.917.923,3.917-.943-4.167-1.813-4.015.07,3.868-.066,5.521a3.206,3.206,0,0,1-1.153,2.28c-.131.111-.39-.874-.353-2.067.025-.882.4-2.038.119-2.125-.775-.242-2.26,3.1-2.014,4.815a14.843,14.843,0,0,1,.139,3.006s-10.459,8.839-10.984,8.8-8.359-15.258-8.359-15.258l-9.364,2.051Z" transform="translate(-181.522 -139.753)" fill="#f7a491"/>
      <path id="Path_4241" data-name="Path 4241" d="M215.3,162.508c-.943-3.109-2.863-5.882-6.48-6.083a7.051,7.051,0,0,0-5.816,2.74c-1.616,2.075-1.563,4.795-.976,7.247a97.012,97.012,0,0,0,5.385,16.5,37.316,37.316,0,0,1,11.7-6.841c-.008-.033-2.563-9.454-3.81-13.564Z" transform="translate(-175.095 -122.704)" fill="#96d9c9"/>
    </g>
    <path id="Path_4242" data-name="Path 4242" d="M26.335,382.268a1.394,1.394,0,1,1,2.588-1.038c13.141,32.791,39.834,53.5,69.668,54.041a1.395,1.395,0,0,1-.049,2.789c-33.247-.611-59.832-24.925-72.207-55.792Z" transform="translate(-15.473 -224.354)" fill="#9bc1f9"/>
    <path id="Path_4243" data-name="Path 4243" d="M343.7,166.841c16.771-48.393,2.633-105.318-35.671-129.472a1.4,1.4,0,0,1,1.489-2.358c26.126,16.476,40.945,47.778,43.574,78.908a131.827,131.827,0,0,1-6.755,53.836,1.394,1.394,0,0,1-2.633-.915Z" transform="translate(-181.3 -20.514)" fill="#9bc1f9"/>
    <path id="Path_4244" data-name="Path 4244" d="M40.74,65.262a1.45,1.45,0,0,1-.525-.152,1.394,1.394,0,0,1-.6-1.878C50.908,41.4,69.319,23.1,92.64,15.9a1.393,1.393,0,0,1,.82,2.662C70.98,25.5,53.1,43.217,42.089,64.511a1.391,1.391,0,0,1-1.353.751Z" transform="translate(-23.274 -9.339)" fill="#9bc1f9"/>
  </g>
</svg>
