<svg id="Layer_2" data-name="Layer 2" xmlns="http://www.w3.org/2000/svg" width="201.949" height="136.403" viewBox="0 0 201.949 136.403">
  <g id="Group_3524" data-name="Group 3524">
    <g id="Group_3508" data-name="Group 3508" transform="translate(70.435)">
      <path id="Path_3911" data-name="Path 3911" d="M172.136,54.833l-.406-.217L201.138,0l32.553,50.768-.394.254L201.17.915Z" transform="translate(-171.73)" fill="#184655"/>
      <path id="Path_3912" data-name="Path 3912" d="M242.133,1.19l-.886.427-.217.96.611.767h.984l.611-.767-.217-.96Z" transform="translate(-212.607 -0.702)" fill="#86b1f2"/>
    </g>
    <g id="Group_3523" data-name="Group 3523" transform="translate(0 22.952)">
      <rect id="Rectangle_89" data-name="Rectangle 89" width="113.451" height="201.949" transform="translate(201.949) rotate(90)" fill="#3c8f7c"/>
      <rect id="Rectangle_90" data-name="Rectangle 90" width="180.186" height="91.689" transform="translate(10.881 10.881)" fill="#9bc1f9"/>
      <g id="Group_3522" data-name="Group 3522" transform="translate(16.574 16.157)">
        <g id="Group_3520" data-name="Group 3520">
          <path id="Path_3913" data-name="Path 3913" d="M144.9,191.581l-6.062.045L125.55,182.57l5.615,12.251,5.984,2.793,9.8-1.772Z" transform="translate(-90.63 -146.798)" fill="#3c8f7c"/>
          <g id="Group_3514" data-name="Group 3514" transform="translate(17.739 0.787)">
            <path id="Path_3914" data-name="Path 3914" d="M195.136,258.355c-.595-2.092-9.146-16.673-9.872-18.539s-2.079-7.867-2.079-7.867l-3.121,1.165-1.813,15.052,10.688,14.253,6.9-.021C195.525,260.332,195.271,258.819,195.136,258.355Z" transform="translate(-139.454 -176.712)" fill="#3c8f7c"/>
            <path id="Path_3915" data-name="Path 3915" d="M154.606,257.911c1.993-5.439,6.607-30.019,6.607-30.019l.008-1.312-8.228-1.509s-4.573,4.138-5.976,7.342-1,23.12-1,23.12a7.688,7.688,0,0,0-5.012,2.334Z" transform="translate(-117.488 -172.654)" fill="#50bfa5"/>
            <g id="Group_3509" data-name="Group 3509" transform="translate(88.019)">
              <path id="Path_3916" data-name="Path 3916" d="M302.015,109.912c.057-1.776.135-3.3.226-3.88s.7-1.94.824-2.527a6,6,0,0,0,.185-1.456A26.948,26.948,0,0,0,302,98.535c-.308-.345-1.083-1.271-1.46-1.148s.882,1.747.882,1.747l.357.775c-.828-.988-1.87-2.846-2.321-2.617s.636,1.9,1.362,3.1c-.8-1.038-2.268-2.354-2.535-2.088-.242.238,1.464,1.739,1.866,3.257.152.562-.431,1.075-.529,1.505a3.175,3.175,0,0,0-.152,1.116l.32,1.632a15.61,15.61,0,0,1-.377,1.69c-.185.632-.349,1.6-.611,2.4-.016.049-.029.09-.045.139a7.663,7.663,0,0,0,3.257-.127Z" transform="translate(-298.263 -97.273)" fill="#f7a491"/>
              <path id="Path_3917" data-name="Path 3917" d="M300.515,106.63a2.1,2.1,0,0,1-.98-.9c-.328-.64-.164-1.5-.537-1.587s-.377,1.079-.451,1.731,1.407,3.987,1.407,3.987l.558-3.232Z" transform="translate(-298.429 -101.323)" fill="#f7a491"/>
            </g>
            <path id="Path_3918" data-name="Path 3918" d="M156.493,129.94c-1.218,1.481-2.9,1.1-4.782,1.239-1.267.09-2.358,2.014-2.5,3.593-.365,4-2.9,1.76-5.586,2.949-6.472,2.871-2.908,13.957,1.288,14.655a21.945,21.945,0,0,1,4.795,1.591c2.153,1.218,5.955-.386,8.794-2.354s1.44-3.593,2.358-5.238,2.974.377,4.1-3.175c1.214-3.843,1.259-7.928.176-10.147-1.792-3.671-5.853-4.643-7.514-3.933a2.932,2.932,0,0,0-1.124.82Z" transform="translate(-116.934 -115.93)" fill="#f47458"/>
            <path id="Path_3919" data-name="Path 3919" d="M93.344,172.809c-2.182-.488-3.088.3-4.43.4s-2.756,1.809-3.068,1.427,1.919-1.657,1.9-2.157-3.117.664-3.355.308c-.435-.652,3.335-1.468,3.154-1.784s-4.089.345-3.88-.4,4.081-.283,4.056-.718-3.675-.107-3.9-1c-.119-.48,6.226.2,6.776-.3s-1.46-2.186-1.058-2.707,3.33,3.95,3.728,3.974,10.656.316,13.449-.09l13.752-3.81a13.81,13.81,0,0,1,.037,4.713c-.468,2.043-1.029,2.375-1.029,2.375a57.914,57.914,0,0,1-11.993,1.239,88.077,88.077,0,0,1-14.146-1.46Z" transform="translate(-83.66 -137.71)" fill="#f48c7f"/>
            <path id="Path_3920" data-name="Path 3920" d="M193.509,167.193l-.669-.258-9.479-1.624-3.06.55-1.563,4.118,15.376,7.21Z" transform="translate(-139.743 -137.405)" fill="#466eb6"/>
            <g id="Group_3510" data-name="Group 3510" transform="translate(47.401 28.069)">
              <path id="Path_3921" data-name="Path 3921" d="M224.614,169.574s-1.415,1.333-1.5,1.2.533-.455,1.952-2.383c.509-.689.111-1.267-1.013.279a6,6,0,0,1-.673.664,7.662,7.662,0,0,1-.7.681c-.008-.033-.148-.012.033-.267.217-.308.824-.857,1.107-1.333.16-.271.533-.816.533-.816a6.731,6.731,0,0,0,.463-1c-.246-.234-.8.336-.976.738a4.65,4.65,0,0,0-.615.779s-1.021,1-1.165.857c-.119-.123,1.866-3.019,1.6-3.236-.312-.258-1.276,1.308-1.325,1.378-.152.2-.648.763-.648.763s-1.821,1.878-1.944,1.727.012-.656.086-.812.144-.349.217-.5a.344.344,0,0,0-.164-.451c-.185-.107-.607.451-.714.673a28.525,28.525,0,0,0-.943,2.961c-.078.254-10.258,6.792-11.337,7.321l-3.613-5.233-4.052,4.618,6.2,6.456c2.268,1.6,13.6-10.307,13.966-10.66,0,0,1.345-.763,2.231-1.2a8.51,8.51,0,0,0,1.76-1.362,6.331,6.331,0,0,0,1.571-1.5c.615-.833-.345-.336-.345-.336Z" transform="translate(-199.23 -165.71)" fill="#f7a491"/>
              <path id="Path_3922" data-name="Path 3922" d="M248.78,177.144s.783-1.206.246-1.924a.988.988,0,0,1,.427.845,1.9,1.9,0,0,1-.673,1.083Z" transform="translate(-228.457 -171.319)" fill="#f48c58"/>
            </g>
            <path id="Path_3923" data-name="Path 3923" d="M188.951,169.29l2.625.767a12.172,12.172,0,0,1,1.829,1.153,100.533,100.533,0,0,1,6.944,7.465,10.539,10.539,0,0,1-1.878,2.563,12.325,12.325,0,0,1-2.937,1.928,43.959,43.959,0,0,1-4.983-6.144A11.373,11.373,0,0,1,188.951,169.29Z" transform="translate(-145.688 -139.752)" fill="#f7cc7f"/>
            <path id="Path_3924" data-name="Path 3924" d="M170.737,164.67a78.033,78.033,0,0,0-10,1.107c-.365.062-1.1,1.23-1.1,1.23l.652,2.436,9.556-.427Z" transform="translate(-128.471 -137.027)" fill="#466eb6"/>
            <g id="Group_3513" data-name="Group 3513" transform="translate(51.905 9.841)">
              <g id="Group_3511" data-name="Group 3511" transform="translate(14.625 49.793)">
                <path id="Path_3925" data-name="Path 3925" d="M245.87,270.916v0Z" transform="translate(-245.87 -259.322)" fill="#b75742"/>
                <path id="Path_3926" data-name="Path 3926" d="M254.536,244.27c-.2-.574-.4-1.1-.587-1.6-2.342.5-4.992,1.054-7.715,1.624l-.365,9.954c.033-.369,1.329,10.405,1.809,14.437l8.958-.029c.07-5.746-.18-18.916-2.1-24.387Z" transform="translate(-245.87 -242.67)" fill="#b75742"/>
              </g>
              <path id="Path_3927" data-name="Path 3927" d="M228.263,256.6l.369-9.971c-4.536.952-8.707,1.883-12.612,2.785.55,6.222,1.645,16.98,1.989,21.644l9.331-.029A117.712,117.712,0,0,0,228.263,256.6Z" transform="translate(-213.638 -195.213)" fill="#f48c58"/>
              <path id="Path_3928" data-name="Path 3928" d="M230.168,167.184l-5.09.746s-3.634.316-4.659.32c-.09,0-4.348,19.183-5.344,26.508s-.25,8.621-.25,8.621,6.759,1.546,11.767,1.12a38.426,38.426,0,0,0,11.074-3.232s-5.172-13.99-6.037-18.391-1.46-15.7-1.46-15.7Z" transform="translate(-212.774 -148.349)" fill="#fff"/>
              <path id="Path_3929" data-name="Path 3929" d="M264.53,121.326c-.57.87-7.76,14.819-7.76,14.819l-13.1,3.925-3.277.677-.217.09,1.46,2.088a23.732,23.732,0,0,1,3.589,7.891c2.079,8.347,5.324,25.4,5.726,25.458.451.066,4.241-1.025,4.241-1.895,0-.394-.787-4.417-.964-5.041-1.431-4.979-4.438-17.554-5.562-22.283,1.727-.73,12.14-5.143,13.56-5.984,1.066-.628,7.19-18.375,7.19-18.375.107-1.157-4.745-1.6-4.893-1.37Z" transform="translate(-227.889 -121.267)" fill="#466eb6"/>
              <path id="Path_3930" data-name="Path 3930" d="M217.857,169.477l-6.452-.217s1.571,13.1,1.1,18.276c-.792,8.6-2.6,17.747-2.239,18.12,2.276,1.444,8.445,1.653,9,.759,6.156-9.835-1.407-36.942-1.407-36.942Z" transform="translate(-210.213 -149.576)" fill="#466eb6"/>
              <g id="Group_3512" data-name="Group 3512" transform="translate(0.901 1.147)">
                <path id="Path_3931" data-name="Path 3931" d="M222.048,124.722a2.249,2.249,0,0,0-3.7.89,1.669,1.669,0,0,0-2.129.808s-2.408-.443-2.588,3.1c0,0-1.222-.094-1.222,1.345a3.551,3.551,0,0,0,.829,2.313,1.713,1.713,0,0,0-.168,1.854,1.631,1.631,0,0,0,1.321,1.153s.455,1.85,1.333,2.326a2.662,2.662,0,0,0,1.952.082,1.259,1.259,0,0,0,1.345.787c.939-.2,2.014-1.23,3.121-.939s3.818-.443,3.818-.443,2.945-1.719,1.669-4.782a2.333,2.333,0,0,0-.152-3.257s.734-2.871-1.5-4.274a5.386,5.386,0,0,0-3.925-.964Z" transform="translate(-212.41 -124.063)" fill="#07345a"/>
                <path id="Path_3932" data-name="Path 3932" d="M232.45,156.392l.685,2.752s1.288,3.929.287,4.827-5.156-4.4-5.156-4.4l-.406-7.116,4.59,3.946Z" transform="translate(-221.523 -140.807)" fill="#f7a491"/>
                <path id="Path_3933" data-name="Path 3933" d="M228,154.745a8.091,8.091,0,0,0,5.041,3.974l-.578-2.334-4.59-3.946.131,2.305Z" transform="translate(-221.529 -140.801)" fill="#f48c58"/>
                <path id="Path_3934" data-name="Path 3934" d="M212.466,139.226c.119,1.079.829,1.883,1.583,1.8s1.271-1.025,1.153-2.1-.828-1.883-1.583-1.8S212.347,138.147,212.466,139.226Z" transform="translate(-212.433 -131.762)" fill="#07345a"/>
                <path id="Path_3935" data-name="Path 3935" d="M221.363,129.034c.07.619.87,1.038,1.788.939s1.612-.685,1.542-1.3-.87-1.038-1.788-.939S221.293,128.414,221.363,129.034Z" transform="translate(-217.688 -126.217)" fill="#07345a"/>
                <path id="Path_3936" data-name="Path 3936" d="M227.6,133.129a3.757,3.757,0,0,1,5.213,2.436,28.163,28.163,0,0,1,.7,3.548c.418,3.257-.919,6.616-2.4,6.78s-5.808-1.5-6.468-6.111C224.237,136.931,225.378,134.179,227.6,133.129Z" transform="translate(-219.578 -129.201)" fill="#f7a491"/>
                <path id="Path_3937" data-name="Path 3937" d="M224.439,148.747a1.094,1.094,0,1,1-1.21-1.185A1.21,1.21,0,0,1,224.439,148.747Z" transform="translate(-218.242 -137.921)" fill="#f7a491"/>
                <path id="Path_3938" data-name="Path 3938" d="M240.467,126.9c1.665,1.042,2.4,2.826,1.649,3.983s-2.711,1.247-4.372.2-2.4-2.826-1.649-3.983S238.805,125.856,240.467,126.9Z" transform="translate(-226.206 -125.307)" fill="#07345a"/>
                <path id="Path_3939" data-name="Path 3939" d="M233.607,130.287c.057.525-.529,1.025-1.317,1.112s-1.468-.271-1.526-.8.529-1.025,1.317-1.112S233.549,129.762,233.607,130.287Z" transform="translate(-223.234 -127.257)" fill="#07345a"/>
                <path id="Path_3940" data-name="Path 3940" d="M245.587,138.62a1.222,1.222,0,1,1-1.349-1.091A1.231,1.231,0,0,1,245.587,138.62Z" transform="translate(-230.543 -132.002)" fill="#07345a"/>
              </g>
            </g>
            <path id="Path_3941" data-name="Path 3941" d="M167.064,168.408c-1.37-.57-4.672-1.764-4.672-1.764a10.394,10.394,0,0,0-3.8.037l-.012.029-11.308,1.866,1.378,6.386,6.14-.123.234,1.788c.164.849,1.28,8.039.829,10.2a27.256,27.256,0,0,1-1.981,4.975s-.086.369,6.509,1.731a11.467,11.467,0,0,0,4.709.016,30.8,30.8,0,0,1,.919-5.845c1.271-4.643,3.453-10.143,3.6-10.853.238-1.148-1.181-7.875-2.551-8.445Z" transform="translate(-121.181 -138.103)" fill="#fae0b2"/>
            <path id="Path_3942" data-name="Path 3942" d="M183.835,157.859a25.423,25.423,0,0,1-.923,4.45c-.509,1.173.381,5.689,2.867,6.571s.484-5.217.632-6.489a48.784,48.784,0,0,1,1.28-4.971l-3.859.435Z" transform="translate(-142.123 -132.751)" fill="#f7a491"/>
            <path id="Path_3943" data-name="Path 3943" d="M188.34,159.286c.287-1.021.546-1.866.546-1.866l-3.859.435s-.086.669-.226,1.513A2.994,2.994,0,0,0,188.34,159.286Z" transform="translate(-143.318 -132.751)" fill="#f48c58"/>
            <path id="Path_3944" data-name="Path 3944" d="M199.251,147.623c-.287.66-.82,1.058-1.194.882s-.447-.853-.16-1.513.82-1.058,1.194-.882S199.538,146.963,199.251,147.623Z" transform="translate(-150.94 -126.055)" fill="#f7a491"/>
            <path id="Path_3945" data-name="Path 3945" d="M184.173,136.723a4.307,4.307,0,0,0-2.51,1.719c-.984,1.431-1.78,5.734,1.226,7.891s5.5-.6,5.635-3.388-.312-6.538-4.352-6.222Z" transform="translate(-140.944 -120.531)" fill="#f7a491"/>
            <path id="Path_3946" data-name="Path 3946" d="M179.888,148.784c.2.734-.033,1.44-.513,1.575s-1.029-.353-1.226-1.087.033-1.44.513-1.575S179.691,148.05,179.888,148.784Z" transform="translate(-139.353 -127.003)" fill="#f7a491"/>
            <path id="Path_3947" data-name="Path 3947" d="M160.651,171.787c.119-.107-.217-.623-.271-.9.41.886.8,1.924,1.062,1.7a8.434,8.434,0,0,0-.172-1.645c.185.422.435,1.575.853,1.374.25-.119,0-1.46-.172-2.227.139.463.521,1.936.664,1.817.312-.262-.369-3.548.021-4.056.242-.316-1.087-1.132-2.088-.833a3.345,3.345,0,0,0-1.325.55,1.407,1.407,0,0,0-.472.459,1.789,1.789,0,0,0-.066,1.8c.431.833,1.632,2.26,1.965,1.956Z" transform="translate(-127.79 -138.373)" fill="#f8a492"/>
          </g>
          <g id="Group_3518" data-name="Group 3518">
            <path id="Path_3948" data-name="Path 3948" d="M44.708,96.378s.1.763.148,1.017c.062.3.312,1.169.312,1.169s1.07,2.994,1.288,2.908.636-.521.636-.726-.2-.591-.193-.8a.5.5,0,0,1,.451-.476c.262-.008.644,1,.644,1a3.275,3.275,0,0,1,.193,1.407,4.268,4.268,0,0,1-.755,2.145,41.323,41.323,0,0,0,1.764,4.188s5.734,11.275,6.041,11.886h.008a3.433,3.433,0,0,1-1.333.861c-1.382,1.013-1.846.759-3.261,1.665-.767-1.846-5.689-15.024-6.177-16.373,0,0-1.251-1.489-2-2.453a10.262,10.262,0,0,1-1.206-2.481,10.564,10.564,0,0,1-.812-2.5c-.242-1.226.566-.152.566-.152s.865,2.2,1.029,2.112c.127-.07-.418-1.247-.7-2.6-.074-.349-.144-.693-.205-1.009-.16-.828.316-1.148.628-.3a8.366,8.366,0,0,1,.353,1.169,6.887,6.887,0,0,0,.394,1.079,8.516,8.516,0,0,0,.414,1.112c.029-.029.168.07.1-.3-.078-.447-.459-1.366-.521-2.026-.037-.377-.16-1.161-.16-1.161a7.121,7.121,0,0,1,.115-1.23c.4-.1.615.738.595,1.251a5.651,5.651,0,0,1,.267,1.165s.6,1.636.837,1.563a18.594,18.594,0,0,0-.217-2.129c-.07-.976.025-1.973.221-2.01.336-.062.533,1.017.533,1.017Z" transform="translate(-40.41 -95.354)" fill="#f8a492"/>
            <g id="Group_3517" data-name="Group 3517" transform="translate(3.463 11.413)">
              <g id="Group_3515" data-name="Group 3515" transform="translate(32.072 52.409)">
                <path id="Path_3949" data-name="Path 3949" d="M128.48,279.66v0Z" transform="translate(-127.893 -267.889)" fill="#f7cc7f"/>
                <path id="Path_3950" data-name="Path 3950" d="M134.941,252.428c-.246-.525-.48-1.013-.705-1.468-2.182.7-4.647,1.472-7.186,2.272l.587,9.5c0-.287,1.308,5.6,2.313,10.127l9.027-.1c-.6-6.042-1.915-15.783-4.036-20.331Z" transform="translate(-127.05 -250.96)" fill="#f7cc7f"/>
              </g>
              <path id="Path_3951" data-name="Path 3951" d="M111.9,263.655l-1.731-7.165c-4.225,1.329-8.1,2.609-11.734,3.835.964,5.094,2.231,11.492,3.035,15.959l10.742.308a98.338,98.338,0,0,0-.316-12.936Z" transform="translate(-78.096 -201.813)" fill="#fae0b2"/>
              <path id="Path_3952" data-name="Path 3952" d="M108.034,183.567l-4.643-.287s-3.642.406-4.614.5c-.086.008-2.116,18.891-2.379,25.95s.574,8.223.574,8.223,6.575.837,11.3-.041A36.73,36.73,0,0,0,118.5,213.8s-5.607-12.608-6.845-16.709-3.618-13.527-3.618-13.527Z" transform="translate(-76.868 -158.63)" fill="#13375b"/>
              <path id="Path_3953" data-name="Path 3953" d="M70.782,148.334s-7.875-9.532-10.135-12.965c-1.85-2.814-6.238-11.365-6.415-11.837s-4.2-.525-5.365.148c-.316.18,4.393,11.669,6.238,15.389,1.7,3.433,7.539,13.354,7.539,13.354s3.4,6.111,3.437,11.082c.057,8.256-.258,20.188.127,20.507,2.3,1.161,9.126.459,9.573-.439,4.93-9.93-5-35.24-5-35.24Z" transform="translate(-48.853 -123.18)" fill="#3c8f7c"/>
              <path id="Path_3954" data-name="Path 3954" d="M102.484,170.195l-.164,5.389s3.872,6.739,5.89,5.8c1.694-.783.422-5.918.422-5.918s-.5-1.194-.9-2.551a9.839,9.839,0,0,1-.492-2.727c.049-1.829-4.758,0-4.758,0Z" transform="translate(-80.391 -150.43)" fill="#f7a491"/>
              <path id="Path_3955" data-name="Path 3955" d="M107.466,170.191c.049-1.829-4.758,0-4.758,0l-.008.537a2.926,2.926,0,0,0,.656.808,6.6,6.6,0,0,0,4.6,1.37,9.769,9.769,0,0,1-.488-2.719Z" transform="translate(-80.615 -150.43)" fill="#f48c58"/>
              <g id="Group_3516" data-name="Group 3516" transform="translate(15.634 5.103)">
                <path id="Path_3956" data-name="Path 3956" d="M97.729,146.161c-.148-.033-.16,7.354,1.977,9.1s5.861,1.911,6.952.164c1.21-1.932.094-9.716-3.084-11.382s-5.845,2.116-5.845,2.116Z" transform="translate(-93.284 -140.337)" fill="#f7a491"/>
                <path id="Path_3957" data-name="Path 3957" d="M91.052,137.433c-1,.254-2.6,1.9-3.708,4.446-1.37,3.125,1.317,6.382,3.572,7.678a4.522,4.522,0,0,1,2.457,3.056l.213-.923a5.259,5.259,0,0,0-.041-2.248,4.355,4.355,0,0,0-.509-1.288c-.632-.984.824-1.887,1.14-2.822.242-.718.053-2.256.431-3.441l.517-.931a4.4,4.4,0,0,0,2.764-1.189c2.773-3.179-2.514-6.185-6.837-2.346Z" transform="translate(-86.972 -135.621)" fill="#184655"/>
                <path id="Path_3958" data-name="Path 3958" d="M102.012,160.4c.131.882-.176,1.661-.689,1.739s-1.038-.574-1.169-1.456.172-1.661.689-1.739S101.881,159.515,102.012,160.4Z" transform="translate(-94.729 -149.372)" fill="#f7a491"/>
              </g>
            </g>
          </g>
          <g id="Group_3519" data-name="Group 3519" transform="translate(108.94 5.45)">
            <path id="Path_3959" data-name="Path 3959" d="M379.967,140.688a6.85,6.85,0,0,0-8.5,2.867,7.105,7.105,0,0,0-5.422,1.333c-2.961,2.28-4.241,7.735-1.263,10.209,1.021,2.818,2.486,4.955,5.377,4.606,2.12,2.9,7.551,3.113,10.229-.234,2.789.488,5.451-1.423,7.026-3.8.373-.562.636-1.4.792-1.526,0,0,6.739-2.19,5.217-8.8-1.591-6.915-9.511-10.775-13.457-4.651Z" transform="translate(-339.682 -125.743)" fill="#13375b"/>
            <path id="Path_3960" data-name="Path 3960" d="M336.334,260.087l-9.577-10.127s-20.187,18.1-20.594,20.913c-.045.308-.1,1.025-.144,2.038l10.606-.033c3.474-1.94,9.651-5.25,11.291-6.472C330.211,264.7,336.334,260.087,336.334,260.087Z" transform="translate(-306.02 -191.998)" fill="#355389"/>
            <path id="Path_3961" data-name="Path 3961" d="M382.57,183.189s11.259-3.367,13.765-3.946,11.238-4.343,11.574-4.5,1.669-5.238,2.153-4.9-.8,2.563-.193,2.834,5.873-2.51,5.9-2.034c.049.894-3.175,1.837-3.08,2.248s3.3-1.329,3.675-.722-3.158,1.333-3.228,1.682,3.384-.189,3.183.554c-.111.406-3.076.4-2.961.861s2.371.865,2.2,1.321-1.837-.623-3.01-.258-2.166-.041-3.909,1.144-7.485,6.16-11.521,7.26-12.948,3.556-12.948,3.556l-1.6-5.1Z" transform="translate(-351.173 -144.733)" fill="#f48c7f"/>
            <path id="Path_3962" data-name="Path 3962" d="M346.62,143.925s-2.933-11.595-3.728-14.1-2.079-11.985-2.12-12.354,3.638-3.7,3.1-3.991-1.788,1.8-2.334,1.358-.882-6.366-1.3-6.189c-.8.328.062,3.638-.336,3.724s-.562-3.54-1.28-3.626.484,3.412.221,3.622-1.587-3.142-2.12-2.645c-.291.267,1.251,2.949.792,3.039s-1.969-1.78-2.276-1.44,1.485,1.4,1.78,2.617,1.157,1.94,1.038,4.015-1.423,9.347-.279,13.457,3.642,13.2,3.642,13.2l5.209-.685Z" transform="translate(-323.229 -108.641)" fill="#f48c7f"/>
            <path id="Path_3963" data-name="Path 3963" d="M347.923,198.931a60.19,60.19,0,0,1,.98-6.767c-.287-2.2-1.989-5.652-2.313-6.6,0,0,3.417-3.039,5.582-2.7,0,0,1.87,3.371,3.445,4.549a3.869,3.869,0,0,0,.82.39c1.653.226,7.452.87,8.482,1.362l-1.948,9.232c-.386.488-2.3,11.152-3.064,11.944s-10.631,3.474-12.021,2.219c-.053-.049-.226-9.45.041-13.621Z" transform="translate(-329.95 -152.404)" fill="#f7cc7f"/>
            <path id="Path_3964" data-name="Path 3964" d="M384.04,196.052a4.763,4.763,0,0,1,1.8-.037c2.625.328,6.841-1.025,6.841-1.025s1.177,5.6.115,6.825c0,0-7.74,2.12-7.629,2.736l-1.124-8.5Z" transform="translate(-352.04 -159.574)" fill="#f7cc7f"/>
            <path id="Path_3965" data-name="Path 3965" d="M372.336,184.758a25.977,25.977,0,0,0-1.124,4.442c-.062,1.292-1.226,5.32-3.814,4.963s.258-5.3.681-6.509a50.344,50.344,0,0,0,1.034-5.074l3.224,2.182Z" transform="translate(-341.591 -152.254)" fill="#f7a491"/>
            <path id="Path_3966" data-name="Path 3966" d="M372.31,184.5c.193-1.054.332-1.932.332-1.932l3.224,2.182s-.217.644-.459,1.468a2.991,2.991,0,0,1-3.093-1.719Z" transform="translate(-345.121 -152.248)" fill="#f47458"/>
            <path id="Path_3967" data-name="Path 3967" d="M377.144,165.549a4.489,4.489,0,0,1,1.472,2.711c.246,1.747-.927,6-4.524,6.546s-4.6-3.092-3.507-5.668,3.125-5.75,6.562-3.589Z" transform="translate(-343.857 -141.785)" fill="#f7a491"/>
            <path id="Path_3968" data-name="Path 3968" d="M370.5,170.781c-.037.73.267,1.333.673,1.349s.767-.562.8-1.292-.267-1.333-.673-1.349S370.533,170.051,370.5,170.781Z" transform="translate(-344.049 -144.532)" fill="#f7a491"/>
            <path id="Path_3969" data-name="Path 3969" d="M386.264,165.9s-.066,4.918,1.3,6,.435,3.138.435,3.138,2.067-4.778,1.116-6.546a6.592,6.592,0,0,0-2.855-2.6Z" transform="translate(-353.35 -142.415)" fill="#13375b"/>
            <path id="Path_3970" data-name="Path 3970" d="M386.4,181.081c-.5.57-.6,1.312-.234,1.657s1.062.16,1.559-.41.6-1.312.234-1.657S386.9,180.51,386.4,181.081Z" transform="translate(-353.165 -151.025)" fill="#f7a491"/>
          </g>
          <path id="Path_3971" data-name="Path 3971" d="M126.228,194.827l-3.568-7.785,1.353-2.12-3.4-2.342-3.433.2a69.337,69.337,0,0,1,3.6,9.314c1.76,5.623,8.465,23.465,8.465,23.465s3.289-.111,3.872-1.85-6.895-18.879-6.895-18.879Z" transform="translate(-85.693 -146.804)" fill="#3c8f7c"/>
        </g>
        <g id="Group_3521" data-name="Group 3521" transform="translate(56.843 25.941)">
          <path id="Path_3972" data-name="Path 3972" d="M419.34,266.894,419.3,254.75c-.492.894-.956,1.456-1.37,1.6-3.187,1.083-30.257,8.5-30.257,8.5s-.406,5.574-.677,10.791l14.482-.8c4.364-.012,17.862-7.588,17.862-7.945Z" transform="translate(-301.689 -215.315)" fill="#f79c8d"/>
          <path id="Path_3973" data-name="Path 3973" d="M265.18,218.454a175.957,175.957,0,0,0-8.806-34.165c-2.383-6.591-3.4-16.664-9.163-21.8-4.659-4.151-10.6-4.873-16.484-2.682-16.673,6.206-9.983,18.846-31.266,33.681a80.716,80.716,0,0,0-17.05,16.152A16.223,16.223,0,0,0,179,218.38l86.18.07Z" transform="translate(-179 -158.602)" fill="#13375b"/>
          <path id="Path_3974" data-name="Path 3974" d="M319.485,270.62s-28.723,2.243-29.826,2.239-6.214.669-6.214.669-9.819-1.025-14.9-.882c-5.8.164-12.7.734-17.542,2.424-2.629.919-3.54,5.361-3.728,10.106l74.159-.23-1.94-14.326Z" transform="translate(-219.269 -224.676)" fill="#f47458"/>
          <path id="Path_3975" data-name="Path 3975" d="M302.353,230.072s-2.038,14.2-3.441,17.653-.89,9.643,6.62,11.911,6.222-6.411,6.546-10.1,1.751-21.164,1.751-21.164l-11.472,1.706Z" transform="translate(-249.366 -199.755)" fill="#f7a491"/>
          <path id="Path_3976" data-name="Path 3976" d="M318.377,233.372c.23-2.892.4-5.012.4-5.012L307.3,230.066s-.3,1.669-.623,4.028c4.639,2.715,8.822,1.878,11.7-.722Z" transform="translate(-254.312 -199.749)" fill="#f47458"/>
          <path id="Path_3977" data-name="Path 3977" d="M303.279,169.1a13.011,13.011,0,0,0-7.329,5.254c-2.805,4.249-4.766,16.783,4.4,22.669s16.353-2.367,16.5-10.442-1.546-18.859-13.572-17.476Z" transform="translate(-246.604 -164.727)" fill="#f7a491"/>
          <path id="Path_3978" data-name="Path 3978" d="M348.877,199.323c-.792,1.944-2.35,3.15-3.486,2.691s-1.411-2.412-.619-4.36,2.35-3.15,3.486-2.686S349.669,197.379,348.877,199.323Z" transform="translate(-276.515 -179.994)" fill="#f7a491"/>
          <path id="Path_3979" data-name="Path 3979" d="M297.633,168.627s-5.808,12.9-10.877,14.043-5.016,7.641-5.016,7.641.168-15.02,4.922-18.448,10.967-3.236,10.967-3.236Z" transform="translate(-239.601 -164.514)" fill="#13375b"/>
          <path id="Path_3980" data-name="Path 3980" d="M291.083,205c.66,2.1.041,4.167-1.378,4.61s-3.1-.9-3.765-3-.041-4.167,1.378-4.61S290.423,202.9,291.083,205Z" transform="translate(-241.923 -184.154)" fill="#f7a491"/>
        </g>
      </g>
    </g>
    <path id="Path_3981" data-name="Path 3981" d="M26.53,82.49l2.129,2.1.078,87.817-2.207,1.768Z" transform="translate(-15.649 -48.657)" fill="#355389"/>
    <path id="Path_3982" data-name="Path 3982" d="M206.716,82.49,204.6,84.7,28.659,84.59l-2.129-2.1Z" transform="translate(-15.649 -48.657)" fill="#13375b"/>
    <path id="Path_3983" data-name="Path 3983" d="M460.68,84.7l2.12-2.207v91.685l-1.891-1.891Z" transform="translate(-271.733 -48.657)" fill="#466eb6"/>
    <path id="Path_3984" data-name="Path 3984" d="M204.826,301.42l-176.089.123-2.207,1.768H206.716Z" transform="translate(-15.649 -177.793)" fill="#466eb6"/>
  </g>
</svg>
