<svg id="Layer_2" data-name="Layer 2" xmlns="http://www.w3.org/2000/svg" width="168.288" height="126.792" viewBox="0 0 168.288 126.792">
  <g id="Group_3549" data-name="Group 3549" transform="translate(0 0)">
    <path id="Path_4089" data-name="Path 4089" d="M25.79,109.178c-34.256-24.765-34.518-66.6,0-91.562C58.27-5.864,110-5.877,142.5,17.617c34.256,24.765,34.518,66.608,0,91.562-32.48,23.481-84.212,23.493-116.708,0Z" transform="translate(0 -0.001)" fill="#86b1f2"/>
    <path id="Path_4090" data-name="Path 4090" d="M30.5,110.651c-32.972-23.834-33.23-63.774,0-87.8C45.808,11.785,66.049,5.69,87.491,5.69s41.683,6.095,56.994,17.165c16,11.562,24.8,27.152,24.8,43.9,0,54.008-87.132,81.238-138.79,43.9Z" transform="translate(-3.345 -3.357)" fill="#466eb6"/>
    <ellipse id="Ellipse_32" data-name="Ellipse 32" cx="74.827" cy="54.094" rx="74.827" ry="54.094" transform="translate(9.319 9.302)" fill="#fae0b2"/>
    <g id="Group_3545" data-name="Group 3545" transform="translate(45.116 23.865)">
      <path id="Path_4091" data-name="Path 4091" d="M138.554,195.65s-6.378,7.94-5.672,13.424,4.877,4.389,4.877,4.389l6.845-10.779-6.054-7.034Z" transform="translate(-123.465 -139.27)" fill="#f6a399"/>
      <path id="Path_4092" data-name="Path 4092" d="M180.713,134.31s-7.678,2.875-10.446,6.066c-1.226,1.415-7.067,9.958-7.067,9.958l11.529,3.515Z" transform="translate(-141.38 -103.088)" fill="#13375b"/>
      <path id="Path_4093" data-name="Path 4093" d="M226.954,188.57l-3.08-14.236-4.389-38.841s-.9-2.444-10.27-4.856a24.95,24.95,0,0,0-13.966.669c-5.787,1.969-7.522,7.35-8.236,9.905-2.457,8.81.242,32.586,2.338,52.819q2.252.1,4.532.1a98.646,98.646,0,0,0,33.074-5.558Z" transform="translate(-154.85 -100.506)" fill="#355389"/>
      <g id="Group_3543" data-name="Group 3543" transform="translate(36.905)">
        <g id="Group_3542" data-name="Group 3542">
          <path id="Path_4094" data-name="Path 4094" d="M210.782,59.164s4.04-3.006,6.283,1.526a10.015,10.015,0,0,1,1.723-.094,14.33,14.33,0,0,1,2.666,1.386,9.673,9.673,0,0,1,4.967,7.465c.517,3.556-.845,6.3-3.158,9.077a9.49,9.49,0,0,1-2.354,2.186c-1.132.681-2.116.287-3.207.623-.919.283-1.165,1.222-2.305.98-1.6-.34-3.4-2-5.3-1.587s-6.493-.828-6.5-.833c-5.9-1.6-2.99-12.075-2.231-15.77.714-3.474,5.771-5.91,9.417-4.963Z" transform="translate(-199.978 -58.187)" fill="#9bc1f9"/>
          <path id="Path_4095" data-name="Path 4095" d="M216.211,108.673l-1.136,3.843-.607,2.145a2.028,2.028,0,0,0,1.8,2.908,6.748,6.748,0,0,0,7.411-3.437l1.029-11.882-8.494,6.427Z" transform="translate(-208.417 -84.178)" fill="#f7a491"/>
          <path id="Path_4096" data-name="Path 4096" d="M225.49,106.091c-2.2,3.827-6.427,5.828-9.31,6.452l1.148-3.876,8.494-6.427Z" transform="translate(-209.535 -84.172)" fill="#f48c58"/>
          <path id="Path_4097" data-name="Path 4097" d="M217.628,72.343c-3.581-1.649-7.908.156-8.995,3.646a41.549,41.549,0,0,0-1.329,5.558c-.841,5.1,1.321,10.434,3.843,10.742s9.975-2.149,11.275-9.38c.8-4.467-1.042-8.835-4.8-10.565Z" transform="translate(-204.191 -66.173)" fill="#f7a491"/>
          <path id="Path_4098" data-name="Path 4098" d="M239.665,97.2a1.9,1.9,0,0,0,1.522,2.264,2.006,2.006,0,0,0,2.108-1.821,1.9,1.9,0,0,0-1.522-2.264A2.006,2.006,0,0,0,239.665,97.2Z" transform="translate(-223.373 -80.119)" fill="#f7a491"/>
        </g>
        <path id="Path_4099" data-name="Path 4099" d="M214.206,106.213s3.355.726,3.724,1.809a3.907,3.907,0,0,1-1.366,4.06c-1.485,1.353-4.975.865-5.972.262s-1.973-3.408-1.185-5.074S214.206,106.213,214.206,106.213Z" transform="translate(-205.37 -86.451)" fill="#9bc1f9"/>
        <path id="Path_4100" data-name="Path 4100" d="M218.11,110.6s.094,1.23-.332,1.489a4.36,4.36,0,0,1-1.448.558,2.237,2.237,0,0,1-2.071-.677,1.693,1.693,0,0,1-.131-.168,5.18,5.18,0,0,1-.558-1.665,7.886,7.886,0,0,1,2.161-.357A9.7,9.7,0,0,1,218.11,110.6Z" transform="translate(-207.995 -88.617)" fill="#f7a491"/>
      </g>
      <path id="Path_4101" data-name="Path 4101" d="M130.4,139.379c-2.6-2.4-12.628-.861-12.661-.833-2.8,2.645-1.87,4.959-1.682,6.579.988,8.49,10.43,28.382,5.841,31.684-4.651,3.347-8.58,8.3-11.894,14.162a95.888,95.888,0,0,0,35.256,7.867l.267-10.8s-.2-34.182-.2-35.437c0-4.216-12.325-10.828-14.929-13.223Z" transform="translate(-110 -105.286)" fill="#b75742"/>
      <path id="Path_4102" data-name="Path 4102" d="M124.922,139.151c-.857.18-2.375,1.526-2.711,5.857-.746,9.585,14.224,29.133,19,29.133,7.662,0,22.431-25.347,22.431-25.347l-3.068-1.723s-15.59,13.966-18.17,13.966c-2,0-9.2-23.641-17.481-21.89Z" transform="translate(-117.187 -105.886)" fill="#f79c8d"/>
      <path id="Path_4103" data-name="Path 4103" d="M214.79,150.764l1.111-6.513,5.275-2.941,3.749,4.089-6.665,4.729-3.47,2.682Z" transform="translate(-171.811 -107.217)" fill="#f79c8d"/>
      <path id="Path_4104" data-name="Path 4104" d="M135.794,218.156s-2.834-.71-3.343,1.042c-1.23,4.245-1.038,6.513,1.743,7.534,2.379.874,4.987-.041,4.987-.513,0-.562-2.826-.738-3.749-1.034s5.582,1.427,5.328-.23-4.553-1.657-5.078-1.825,3.54,1.029,5.012-.324c.746-.685-4.5-1.366-4.745-1.78s5.5,1.075,4.667-.332-4.823-2.543-4.823-2.543Z" transform="translate(-122.817 -152.461)" fill="#f79c8d"/>
      <path id="Path_4105" data-name="Path 4105" d="M226.16,148.418c-.418-.386-4.717-8.818-4.717-8.818l-3.814-.32s-5.516,2.969-4.651,3.769,4.786-2.3,4.786-2.3-4.926,3.322-4.093,4.089,5.065-2.362,5.065-2.362a24.206,24.206,0,0,0,.308,5.1c.455,2.182,6.493,6.587,6.493,6.587l2.358-2.235-1.735-3.515Z" transform="translate(-170.687 -106.02)" fill="#f9b0a4"/>
      <path id="Path_4106" data-name="Path 4106" d="M272.848,154.938c-2.563-6.464-6.895-13.457-9.946-15.372s-3.134-1.189-3.54-.418c-.476.9-.205,10.766,2.777,15.623s3.015,4.462,3.015,4.462l11.714,12.674c.947-4.61-1.969-11.8-4.015-16.964Z" transform="translate(-197.991 -105.469)" fill="#13375b"/>
      <path id="Path_4107" data-name="Path 4107" d="M235.725,164.1a52.943,52.943,0,0,1,4.192,5.582c1.382,2.338,7.965,14.9,12.53,17.185,3.06,1.53,6.829.554,8.982-.258a2.243,2.243,0,0,0,1.5-2.465c-.521-2.92-2.227-8.831-7.633-11.722-5.857-3.134-13.637-9.827-16.049-11.911-.6-.521-4.655,2.289-3.523,3.589Z" transform="translate(-184.042 -118.504)" fill="#f9b0a4"/>
      <g id="Group_3544" data-name="Group 3544" transform="translate(8.168 6.179)">
        <path id="Path_4108" data-name="Path 4108" d="M154.731,91.15s6.571-11.874.246-15.582c-4.856-2.846-7.005-.771-7.005-.771s-7.473-5.012-10.254,3.015c0,0-5.754.119-6.968,4.647s1.542,6.571,1.542,6.571-3.019,2.338-2.252,5.869,6.571,5.221,9.958,3.224,2.99-.4,5.672-.4,9.06-6.579,9.06-6.579Z" transform="translate(-129.916 -73.251)" fill="#9bc1f9"/>
        <path id="Path_4109" data-name="Path 4109" d="M160.035,122.065s-4.22,7.313-2.842,10.935c.767,2.022-8.2-6.427-8.2-6.427l4.676-8.2,6.374,3.7Z" transform="translate(-141.167 -99.865)" fill="#f7a491"/>
        <path id="Path_4110" data-name="Path 4110" d="M158.47,119.748a10.18,10.18,0,0,0,4.032,5.008,9.026,9.026,0,0,0,1.456.759,32.942,32.942,0,0,1,1.673-3.449l-6.374-3.7Z" transform="translate(-146.758 -99.865)" fill="#f47458"/>
        <path id="Path_4111" data-name="Path 4111" d="M161.257,83.847a9.229,9.229,0,0,0-5.225,2.945c-2.079,2.486-2.9,11.578,3.2,15.463s10.373-2.436,10.754-7.333-.406-11.5-8.728-11.07Z" transform="translate(-144.414 -79.491)" fill="#f7a491"/>
        <path id="Path_4112" data-name="Path 4112" d="M153.6,106.153c.271,1.321-.324,2.518-1.333,2.67s-2.047-.8-2.317-2.116.324-2.518,1.333-2.67S153.326,104.833,153.6,106.153Z" transform="translate(-141.692 -91.401)" fill="#f7a491"/>
        <path id="Path_4113" data-name="Path 4113" d="M160.811,80.729c1.013.857-.4,3.794-3.154,6.554s-5.816,4.307-6.829,3.449.4-3.794,3.154-6.554S159.794,79.872,160.811,80.729Z" transform="translate(-142.057 -77.523)" fill="#9bc1f9"/>
      </g>
    </g>
    <path id="Path_4114" data-name="Path 4114" d="M326.058,158.782l-2.289-3.8-3.679,1.895-2.42-3.65L313.93,154.6l-2.256-2.432-1.235,1.14,3.023,3.257,3.544-1.3,2.518,3.794,3.618-1.862,2.071,3.445Z" transform="translate(-183.113 -89.758)" fill="#f7cc7f"/>
    <g id="Group_3546" data-name="Group 3546" transform="translate(122.5 33.639)">
      <path id="Path_4115" data-name="Path 4115" d="M306.218,84.529a4.751,4.751,0,0,1,3.868-.656,3.3,3.3,0,0,1,2.387,4.266c-.636,2.112-3.285,4.13-8.863,5.049-4.266-3.429-5.41-6.415-4.774-8.527a3.653,3.653,0,0,1,4.43-2.522,4.312,4.312,0,0,1,2.949,2.4Z" transform="translate(-298.672 -82.018)" fill="#b75742"/>
      <path id="Path_4116" data-name="Path 4116" d="M319.579,90.584a3.305,3.305,0,0,0-2.387-4.266,4.751,4.751,0,0,0-3.868.656s-2.617,8.642-2.6,8.654c5.578-.919,8.228-2.933,8.863-5.049Z" transform="translate(-305.778 -84.464)" fill="#f79c8d"/>
    </g>
    <g id="Group_3547" data-name="Group 3547" transform="translate(27.264 35.426)">
      <path id="Path_4117" data-name="Path 4117" d="M71.758,90.414a4.765,4.765,0,0,1,2-3.376,3.3,3.3,0,0,1,4.795.939c1.2,1.854,1.025,5.176-1.883,10.024-5.377,1.034-8.392-.025-9.593-1.878a3.657,3.657,0,0,1,.943-5.012A4.307,4.307,0,0,1,71.758,90.414Z" transform="translate(-66.473 -86.38)" fill="#b75742"/>
      <path id="Path_4118" data-name="Path 4118" d="M86.156,87.968a3.3,3.3,0,0,0-4.795-.939,4.765,4.765,0,0,0-2,3.376s4.9,7.584,4.914,7.588c2.908-4.848,3.084-8.17,1.883-10.024Z" transform="translate(-74.074 -86.374)" fill="#f79c8d"/>
    </g>
    <g id="Group_3548" data-name="Group 3548" transform="translate(64.275 12.73)">
      <path id="Path_4119" data-name="Path 4119" d="M163.556,33.086a4.762,4.762,0,0,1,3.367-2.018,3.3,3.3,0,0,1,3.769,3.109c.172,2.2-1.563,5.041-6.427,7.92-5.221-1.649-7.37-4.015-7.543-6.214a3.653,3.653,0,0,1,3.211-3.958,4.313,4.313,0,0,1,3.618,1.165Z" transform="translate(-156.711 -31.04)" fill="#b75742"/>
      <path id="Path_4120" data-name="Path 4120" d="M180.537,34.179a3.305,3.305,0,0,0-3.769-3.109,4.762,4.762,0,0,0-3.367,2.018s.7,9,.71,9.011c4.864-2.879,6.6-5.717,6.427-7.92Z" transform="translate(-166.555 -31.041)" fill="#f48c7f"/>
    </g>
  </g>
</svg>
