<svg id="Layer_2" data-name="Layer 2" xmlns="http://www.w3.org/2000/svg" width="119.029" height="168.489" viewBox="0 0 119.029 168.489">
  <g id="Group_3529" data-name="Group 3529" transform="translate(0 0)">
    <rect id="Rectangle_91" data-name="Rectangle 91" width="168.489" height="119.029" transform="translate(119.029) rotate(90)" fill="#f47458"/>
    <rect id="Rectangle_92" data-name="Rectangle 92" width="99.166" height="148.625" transform="translate(9.93 9.93)" fill="#fae0b2"/>
    <g id="Group_3525" data-name="Group 3525" transform="translate(68.642 132.766)">
      <path id="Path_3985" data-name="Path 3985" d="M218.759,351.789l-23.793-4.434a5.168,5.168,0,0,1-4.134-6.029l2.494-13.4a5.168,5.168,0,0,1,6.029-4.134l23.793,4.43a5.168,5.168,0,0,1,4.134,6.029l-2.5,13.4a5.166,5.166,0,0,1-6.029,4.134Z" transform="translate(-181.153 -323.703)" fill="#50bfa5"/>
      <path id="Path_3986" data-name="Path 3986" d="M179.345,350.53l-11.985,8.523,12.928-.1Z" transform="translate(-167.36 -339.527)" fill="#50bfa5"/>
      <path id="Path_3987" data-name="Path 3987" d="M216.634,342.077l3.06.488s4.36-2.186,4.655-3.179.053-3.252.7-3.417a2.027,2.027,0,0,1,2.5,1.337c.406,1.079-.714,4.553-.4,4.856a16.38,16.38,0,0,0,3.232.742,2.3,2.3,0,0,1,1.8,1.563h0a1.229,1.229,0,0,1-.558,1.44l-.783.447.41.808a1.228,1.228,0,0,1-.533,1.645l-.611.316.291.484a1.221,1.221,0,0,1-.533,1.743l-.537.25.049.144a1.223,1.223,0,0,1-.677,1.509l-.537.234-8.154-1.308a5.671,5.671,0,0,1-2.149-.816l-2.793-.935a.641.641,0,0,1-.427-.718l1.251-7.116a.641.641,0,0,1,.73-.521Z" transform="translate(-195.241 -330.898)" fill="#fff"/>
    </g>
    <path id="Path_3988" data-name="Path 3988" d="M49.27,158.463l1.485-3.433-1.989-3.17a.513.513,0,0,1,.484-.783l3.724.349,2.4-2.871a.516.516,0,0,1,.9.217l.82,3.65,3.47,1.395a.513.513,0,0,1,.07.919l-3.22,1.907-.254,3.732a.515.515,0,0,1-.853.353l-2.81-2.473-3.63.911a.515.515,0,0,1-.6-.7Z" transform="translate(-28.717 -87.516)" fill="#f7cc7f"/>
    <path id="Path_3989" data-name="Path 3989" d="M202.4,181.384l-1.218-1.579-1.985.447-1.243-1.866-1.965,1.128-1.5-2.047-1.94.816-1.764-1.735.656-.669,1.321,1.3,2.047-.861,1.436,1.973,2-1.148,1.37,2.059,1.936-.439,1.132,1.464,1.214-.554.386.853Z" transform="translate(-112.538 -103.743)" fill="#f47458"/>
    <g id="Group_3526" data-name="Group 3526" transform="translate(33.304 22.047)">
      <path id="Path_3990" data-name="Path 3990" d="M150.781,91.148a7.044,7.044,0,0,0-9.044,1.776,7.307,7.307,0,0,0-5.7.632c-3.326,1.928-5.361,7.309-2.658,10.229.66,3.006,1.173,6.107,4.163,6.14,1.772,3.244,7.965,3.458,11.144.41,2.777.874,5.746-.718,7.67-2.928.455-.521.837-1.341,1.013-1.452,0,0,7.157-1.329,6.5-8.26-.689-7.256-8.24-12.255-13.084-6.55Z" transform="translate(-111.239 -74.35)" fill="#13375b"/>
      <path id="Path_3991" data-name="Path 3991" d="M105.18,306.424a40.12,40.12,0,0,0,.853,6.3c.041.16.558.8.6.96-.771,3.7-3.322,5.619-5.656,6.919.693-1.825,1.993-3.851,1.911-4.29a55.874,55.874,0,0,0-1.883-7.924c1.809.029,2.58-1.021,4.171-1.965Z" transform="translate(-92.867 -202.789)" fill="#f7a491"/>
      <path id="Path_3992" data-name="Path 3992" d="M106.352,196.42l11.144,8.995s-5.6,5.537-7.7,7.6-12.674,9.479-12.858,9.95a16.438,16.438,0,0,1,.7,2.629c.468,3.8,1.075,14.495,1.243,20.836a10.876,10.876,0,0,1-4.827,2.518c-3.823-7.789-5.8-26.6-5.791-28.4.025-2.924,18.1-24.125,18.1-24.125Z" transform="translate(-85.364 -137.905)" fill="#b75742"/>
      <path id="Path_3993" data-name="Path 3993" d="M199.529,236.778a52.986,52.986,0,0,0-5.32,6.932c-1.136-1.181-1.71-2.408-3.06-3.343a39.316,39.316,0,0,0,5.143-6.165c.96-2.293,1.559-2.522,1.559-2.522s7.1,4.528,7.444,5.41-4.011-1.44-5.767-.316Z" transform="translate(-146.054 -158.704)" fill="#f7a491"/>
      <path id="Path_3994" data-name="Path 3994" d="M202.963,232.981c-.595-.139.66-2.8.939-3.421.312-.693.763-.816.87-.82.287,0,8.174,5.024,9.384,6.452a1.657,1.657,0,0,1,.221.431c.455,1.727-6.648.361-7.514-.55-.771-.812-1.214-1.464-3.9-2.088Z" transform="translate(-152.929 -156.969)" fill="#184655"/>
      <path id="Path_3995" data-name="Path 3995" d="M126.468,196.952l9.823-4.052c-.041.016.057.418.062.447.886,3.745,2.9,2.018,4.864,8.523,1.39,4.6.886,21.11.886,21.11s8.506-5.246,13.313-8.818c.439-.324,3.121,3.954,3.121,3.954C152,229.1,138.559,234.329,137.276,233.825c-4.38-1.723-8.129-31.462-8.117-31.458-.845-1.76-2.7-5.414-2.7-5.414Z" transform="translate(-107.897 -135.829)" fill="#b75742"/>
      <path id="Path_3996" data-name="Path 3996" d="M165.22,126.551s12.046-2.428,14.724-2.8,12.03-3.388,12.391-3.515,1.813-5.012,2.326-4.643-.87,2.457-.226,2.764,6.292-2.006,6.316-1.538c.049.882-3.4,1.554-3.3,1.965s3.531-1.05,3.929-.427-3.38,1.066-3.458,1.4,3.613.078,3.4.792c-.119.39-3.289.148-3.17.615s2.527,1.034,2.346,1.468-1.956-.755-3.216-.488-2.313-.209-4.179.82-8.031,5.463-12.35,6.23-13.851,2.481-13.851,2.481l-1.678-5.131Z" transform="translate(-130.759 -90.217)" fill="#f7a491"/>
      <path id="Path_3997" data-name="Path 3997" d="M100.014,67.582c-.746-2.535-1.353-4.737-1.395-4.914-.09-.373,3.2-4.266,2.6-4.491s-1.575,2.075-2.19,1.706-1.772-6.361-2.178-6.124c-.763.443.562,3.7.168,3.839s-1.058-3.527-1.8-3.519.964,3.408.726,3.659-2.047-2.982-2.527-2.4c-.258.312,1.682,2.834,1.226,2.986s-2.252-1.542-2.514-1.157,1.706,1.222,2.17,2.42,1.444,1.817,1.608,3.946c.066.857.053,2.592.123,4.626a19.938,19.938,0,0,0,3.978-.578Z" transform="translate(-87.636 -53.753)" fill="#f7a491"/>
      <path id="Path_3998" data-name="Path 3998" d="M104.674,321.88c.3-.558,2.33,1.62,2.818,2.071a1.285,1.285,0,0,1,.509,1.1c-.074.283-6.743,6.936-8.552,7.735a.938.938,0,0,1-.6-.02c-.89-.5,1.374-6.366,2.748-7.4A7.7,7.7,0,0,0,104.674,321.88Z" transform="translate(-91.492 -211.854)" fill="#184655"/>
      <path id="Path_3999" data-name="Path 3999" d="M87.771,81.872c.373,3.06.746,6.115,1.161,9.171.488,3.581,2.166,6.862,3.892,9.987.468.845,4.52,6.632,4.089,7.42,0,0-1.28,2.35-.952,4.093,2.133,11.341-2.03,20.339-8.174,29.518a38.049,38.049,0,0,0-4.38,8.158c-1.034,2.883-.993,5.705-1.235,8.687-.345,4.237-.648,8.474-.972,12.71,0,0,9.392,3.527,14.076-.062s11.812.828,15.672,1.513,13.305-4.426,15.143-9.327c1.813-4.84.451-15.45.414-15.721.062.484-8.113,3.064-8.97,1.489-.57-1.05.336-4.475.345-5.746a49.2,49.2,0,0,0-.394-6.546c-.578-4.516-2.264-8.609-3.285-12.961-.681-2.9-2.383-6.927-1.518-9.921.476-1.649,13.506-3.478,19.646-5.078a31.9,31.9,0,0,0,10.8-5.385L140.963,98.7s-9.314,3.109-14.105,3.638-15.229,3.646-21.918,1.669S94.8,89.385,94.8,89.385L92.783,80.03l-5.016,1.85Z" transform="translate(-81.2 -69.253)" fill="#466eb6"/>
      <path id="Path_4000" data-name="Path 4000" d="M141.414,127.3a27.1,27.1,0,0,0-.537,4.676c.115,1.325-.521,5.586-3.2,5.578s-.463-5.43-.2-6.722a52.163,52.163,0,0,0,.357-5.311l3.581,1.78Z" transform="translate(-113.737 -96.085)" fill="#f7a491"/>
      <path id="Path_4001" data-name="Path 4001" d="M140.625,145.217a3.4,3.4,0,0,1-1.911.3,2.456,2.456,0,0,1-1.85-1.632c-.55,2.01-.984,4.5.837,4.508,1.653,0,2.531-1.616,2.928-3.166Z" transform="translate(-113.752 -106.915)" fill="#fff"/>
      <path id="Path_4002" data-name="Path 4002" d="M139.78,127.534c.049-1.1.074-2.014.074-2.014l3.581,1.78s-.131.685-.267,1.559A3.082,3.082,0,0,1,139.78,127.534Z" transform="translate(-115.754 -96.085)" fill="#f47458"/>
      <path id="Path_4003" data-name="Path 4003" d="M142.9,106.65a4.613,4.613,0,0,1,1.87,2.559c.492,1.743-.123,6.234-3.712,7.288s-5.11-2.514-4.348-5.291,2.4-6.283,6.189-4.557Z" transform="translate(-113.832 -84.684)" fill="#f7a491"/>
      <path id="Path_4004" data-name="Path 4004" d="M135.908,113.731c.066.746.455,1.321.87,1.284s.7-.677.64-1.423-.455-1.321-.87-1.284S135.846,112.984,135.908,113.731Z" transform="translate(-113.465 -88.291)" fill="#f7a491"/>
      <path id="Path_4005" data-name="Path 4005" d="M151.054,106.734s.607,5.016,2.149,5.935.874,3.134.874,3.134,1.448-5.151.238-6.821a6.785,6.785,0,0,0-3.265-2.252Z" transform="translate(-122.401 -85.002)" fill="#13375b"/>
      <path id="Path_4006" data-name="Path 4006" d="M153.585,121.87c-.427.648-.431,1.419-.012,1.719s1.1.016,1.53-.632.431-1.419.012-1.719S154.008,121.222,153.585,121.87Z" transform="translate(-123.706 -93.489)" fill="#f7a491"/>
    </g>
    <g id="Group_3527" data-name="Group 3527" transform="translate(51.875 15.836)">
      <path id="Path_4007" data-name="Path 4007" d="M128.834,51.681a5.259,5.259,0,0,1-1.189-.849,3.294,3.294,0,0,1-1.165-2.354,3.44,3.44,0,0,1,.931-2.272.2.2,0,0,1,.279.279,3.1,3.1,0,0,0-.816,1.993,2.928,2.928,0,0,0,1.046,2.071c2.235,2.12,5.475,1.173,5.508,1.161a.2.2,0,1,1,.115.377A6.81,6.81,0,0,1,128.834,51.681Z" transform="translate(-126.479 -43.056)" fill="#184655"/>
      <path id="Path_4008" data-name="Path 4008" d="M130.546,40.2l-1.025.939a.8.8,0,0,0-.775-.094.742.742,0,0,0-.484.927.752.752,0,0,0,.984.369.808.808,0,0,0,.5-.55l1.415.016,2.346.025-1.243-3.22-1.723,1.583Z" transform="translate(-127.507 -38.61)" fill="#184655"/>
    </g>
    <g id="Group_3528" data-name="Group 3528" transform="translate(58.106 24.197)">
      <path id="Path_4009" data-name="Path 4009" d="M151.656,64.39c.509.406,1.4,1.719,2.531,2.637.664.537,1.173.4,2.018.5,4.011.484,2.924,1.3,3.408,1.386-.135.316-1.386,2.969-1.62,3.507a.98.98,0,0,1-1.128.644c-.829-.115-1.665-.2-2.486-.377a10.227,10.227,0,0,1-4.758-2.773.983.983,0,0,1-.291-1.235,33.91,33.91,0,0,1,2.326-4.29Z" transform="translate(-146.127 -62.177)" fill="#466eb6"/>
      <path id="Path_4010" data-name="Path 4010" d="M160.869,66.979q-3.451-2.879-6.9-5.763a4.827,4.827,0,0,0-2.592-1.116c-.742-.086-8.072-1-8.818-1.091a.734.734,0,0,0-.722.205.647.647,0,0,0,.107.956q3.507,2.941,7.014,5.873a4.4,4.4,0,0,0,2.33,1.013c.008,0,9.072,1.107,9.085,1.107a.619.619,0,0,0,.792-.39c.111-.291.025-.533-.291-.8Z" transform="translate(-141.67 -58.996)" fill="#355389"/>
    </g>
    <path id="Path_4011" data-name="Path 4011" d="M119.029,0l-2.416,2.83H2.506V168.489H0V0Z" transform="translate(0 0)" fill="#f7cc7f"/>
    <path id="Path_4012" data-name="Path 4012" d="M284.32,2.83V168.489h2.416V0Z" transform="translate(-167.707 0)" fill="#b75742"/>
  </g>
</svg>
