<svg id="Layer_2" data-name="Layer 2" xmlns="http://www.w3.org/2000/svg" width="130.296" height="209.934" viewBox="0 0 130.296 209.934">
  <g id="Group_3541" data-name="Group 3541" transform="translate(0)">
    <g id="Group_3533" data-name="Group 3533" transform="translate(34.99)">
      <path id="Path_4046" data-name="Path 4046" d="M85.72,54.833l-.41-.217L114.722,0l32.549,50.768-.39.254L114.755.915Z" transform="translate(-85.31)" fill="#184655"/>
      <path id="Path_4047" data-name="Path 4047" d="M155.723,1.19l-.886.427-.217.96.611.767h.984l.611-.767-.217-.96Z" transform="translate(-126.193 -0.702)" fill="#86b1f2"/>
    </g>
    <g id="Group_3540" data-name="Group 3540" transform="translate(0 33.48)">
      <g id="Group_3535" data-name="Group 3535">
        <ellipse id="Ellipse_29" data-name="Ellipse 29" cx="65.148" cy="88.227" rx="65.148" ry="88.227" fill="#50bfa5"/>
        <ellipse id="Ellipse_30" data-name="Ellipse 30" cx="49.644" cy="67.232" rx="49.644" ry="67.232" transform="translate(15.504 20.996)" fill="#3c8f7c"/>
        <ellipse id="Ellipse_31" data-name="Ellipse 31" cx="48.131" cy="65.177" rx="48.131" ry="65.177" transform="translate(17.017 23.05)" fill="#fff"/>
        <path id="Path_4048" data-name="Path 4048" d="M43.16,323.55c3.859,30.761,23.633,54.181,47.446,54.181s43.586-23.424,47.446-54.181Z" transform="translate(-25.458 -224.327)" fill="#96d9c9"/>
        <g id="Group_3534" data-name="Group 3534" transform="translate(77.341 40.611)">
          <path id="Path_4049" data-name="Path 4049" d="M204.137,200.09a3.815,3.815,0,1,1,4.069,3.5,3.787,3.787,0,0,1-4.069-3.5Z" transform="translate(-197.746 -189.736)" fill="#f7cc7f"/>
          <path id="Path_4050" data-name="Path 4050" d="M216.435,226.293a25.209,25.209,0,0,0-.742-3.318.874.874,0,0,0-1.686.345,27.209,27.209,0,0,0,.718,3.568.9.9,0,0,0,1.706-.595h0Z" transform="translate(-203.571 -205.288)" fill="#f7cc7f"/>
          <path id="Path_4051" data-name="Path 4051" d="M228.757,216.549a38.143,38.143,0,0,1-3.535-2.522.867.867,0,0,0-1.144,1.3,16.529,16.529,0,0,0,3.855,2.863.944.944,0,0,0,1.243-.414.933.933,0,0,0-.418-1.23h0Z" transform="translate(-209.356 -200.215)" fill="#f7cc7f"/>
          <path id="Path_4052" data-name="Path 4052" d="M229.654,203.07a.642.642,0,0,0-.168.87c.427.767,1.513.73,2.285.7a8.36,8.36,0,0,0,2.371-.447.915.915,0,0,0-.615-1.723c-2.207.746-3.043-.062-3.872.595Z" transform="translate(-212.645 -193.487)" fill="#f7cc7f"/>
          <path id="Path_4053" data-name="Path 4053" d="M224.348,185.684c-1.112,1.608-2.018,2.149-1.878,3.031a.771.771,0,0,0,1,.652c.595-.135.923-.759,1.28-1.2.345-.422.681-.841.984-1.292a.916.916,0,0,0-1.39-1.194h0Z" transform="translate(-208.556 -183.434)" fill="#f7cc7f"/>
          <path id="Path_4054" data-name="Path 4054" d="M213.342,182.616a4.027,4.027,0,0,0-.894-1.78.8.8,0,0,0-1.3.439,3.778,3.778,0,0,0,.451,1.948.942.942,0,0,0,1.177.558.926.926,0,0,0,.566-1.165h0Z" transform="translate(-201.878 -180.645)" fill="#f7cc7f"/>
          <path id="Path_4055" data-name="Path 4055" d="M200.431,189.055c-1.6-1.2-1.928-1.542-2.555-1.477-.369.037-.783.39-.7.8.152.759.6.968,2.071,2.026a.938.938,0,0,0,1.276-.086.9.9,0,0,0-.09-1.263h0Z" transform="translate(-193.638 -184.73)" fill="#f7cc7f"/>
          <path id="Path_4056" data-name="Path 4056" d="M188.93,203.288a.833.833,0,0,0,.308,1.5c.656.086.906-.021,4.085-.595a.945.945,0,0,0,.857-.976.929.929,0,0,0-.984-.849c-3.3.591-3.63.587-4.266.919Z" transform="translate(-188.568 -193.451)" fill="#f7cc7f"/>
          <path id="Path_4057" data-name="Path 4057" d="M197.589,216.707c-1.743,1.665-2,1.37-2.686,2.391a.771.771,0,0,0,.751,1.107,3.326,3.326,0,0,0,1.809-.964c.533-.418,1.042-.865,1.53-1.329a.923.923,0,0,0-.09-1.3.957.957,0,0,0-1.312.09h0Z" transform="translate(-192.248 -201.73)" fill="#f7cc7f"/>
        </g>
      </g>
      <g id="Group_3538" data-name="Group 3538" transform="translate(30.56 48.786)">
        <path id="Path_4058" data-name="Path 4058" d="M135.175,201.973s-4.934-2.9-8.917-.324-1.464,6.964-1.464,6.964-4.5.841-5.828,3.687-1.058,7.21,1.546,8.367c0,0-.673,5.422,6.169,6.361,0,0,1.493,5.406,11.25,4.147,0,0,6.792,2.067,7.731-4.22,0,0,5.635-2.174,3.179-7.846,0,0,4.048-7.042-2.6-10.873,0,0-.96-11.583-11.066-6.259Z" transform="translate(-100.271 -200.578)" fill="#13375b"/>
        <g id="Group_3537" data-name="Group 3537" transform="translate(0 6.787)">
          <path id="Path_4059" data-name="Path 4059" d="M197.214,262.036c-.041-.574-4.421-.369-4.253-.636s4.3-1.8,3.851-2.313-4.905.919-5.008.669,2.945-2.892,2.654-3.449-2.674.935-4.118,2.043c-.824.632-2.35,1.28-2.334.262.021-1.107.96-1.624.156-2.161-.693-.468-1.05,1.567-2.572,3.5-.722.915-.611,1.616-2.018,2.727-3.937.841-9.675,2.149-11.755,3.068a13.572,13.572,0,0,1-7.108.718l.242,7.891s8.982.168,9.778-.185,10.853-7,10.853-7a11.956,11.956,0,0,0,1.173-.96c.5-.062,4.294-.234,5.2-.919.55-.418,3.818.226,3.818-.463,0-.837-3.134-.73-2.879-1.472.148-.431,4.376-.554,4.323-1.312Z" transform="translate(-127.715 -240.165)" fill="#f79c8d"/>
          <path id="Path_4060" data-name="Path 4060" d="M126.464,280.822a10.663,10.663,0,0,0,6.058,6.07c4.676,1.809,11.168.246,11.168.246s1.4-9.684.988-10.623-16.012-3.851-18.391-.71C124.983,277.529,126.464,280.822,126.464,280.822Z" transform="translate(-104.734 -250.9)" fill="#f9d79a"/>
          <path id="Path_4061" data-name="Path 4061" d="M140.737,265.805s-2.461,6.128-2.071,6.932a2.354,2.354,0,0,1-.55,3.228c-1.427,1.157-4.93-1.194-6.415-2.7a8.912,8.912,0,0,1-1.981-3.359l4.487-9.487,6.525,5.385Z" transform="translate(-107.076 -242.663)" fill="#f48c7f"/>
          <path id="Path_4062" data-name="Path 4062" d="M142.789,267.438a9.554,9.554,0,0,1-3.659-5.689l.628-1.329,6.525,5.385s-.6,1.493-1.161,3.1a9.514,9.514,0,0,1-2.338-1.472Z" transform="translate(-112.626 -242.663)" fill="#b75742"/>
          <path id="Path_4063" data-name="Path 4063" d="M136.122,236.168s1.148-3.708-1.427-3.851-2.822,6-.833,6.525,2.26-2.678,2.26-2.678Z" transform="translate(-108.741 -226.085)" fill="#f79c8d"/>
          <path id="Path_4064" data-name="Path 4064" d="M151.508,218.149s3.654,1.247,4.512,4.647.029,11.919-5,16.172-8.449,1.5-9.86.365-4.155-3.5-3.929-9.114,5.517-16.467,14.277-12.071Z" transform="translate(-111.498 -217.126)" fill="#f79c8d"/>
          <g id="Group_3536" data-name="Group 3536" transform="translate(30.786 14.556)">
            <path id="Path_4065" data-name="Path 4065" d="M151.829,253.991c-.89,1.554-.016,3.8,1.956,5.008s4.294.931,5.184-.623.016-3.8-1.956-5.008S152.719,252.437,151.829,253.991Z" transform="translate(-150.697 -252.615)" fill="#b75742"/>
            <path id="Path_4066" data-name="Path 4066" d="M150.588,264.25c3.072,2.859,7.091-1.538,4.028-4.2a2.915,2.915,0,1,0-4.028,4.2Zm3.7-.919c-1.8,1.4-4.179-1.218-2.965-2.838C153.1,258.061,156.555,261.576,154.283,263.331Z" transform="translate(-149.571 -256.431)" fill="#fff7cf"/>
            <path id="Path_4067" data-name="Path 4067" d="M157.2,258.266a1.642,1.642,0,0,0,.816,2.088,1.533,1.533,0,0,0,2.161-.258,1.643,1.643,0,0,0-.816-2.088,1.528,1.528,0,0,0-2.157.258Z" transform="translate(-153.984 -255.611)" fill="#ffe696"/>
          </g>
          <path id="Path_4068" data-name="Path 4068" d="M119.41,336.7s16.459-10.4,20.762-10.4S156,344.269,156,344.269l-3.453,1.239s-11.394-5.414-13.576-7.6l-8.08,9.376-12.12-5.533.644-5.053Z" transform="translate(-100.617 -281.522)" fill="#f48c7f"/>
          <path id="Path_4069" data-name="Path 4069" d="M110.621,276.987c-1.981-5.106-12.8-7.945-19.367-1.374-3.761,3.761-8.982,14.81-10.676,20.413-.783,2.588-2.51,7.8-2.084,11,9.688.89,19.023.226,28.739-1.066.254-3.761.012-8.318.677-10.168,1.214-3.4,3.888-15.762,2.707-18.8Z" transform="translate(-76.821 -249.365)" fill="#f79c8d"/>
          <path id="Path_4070" data-name="Path 4070" d="M107.007,294.92c1.214-3.392,3.888-15.762,2.707-18.8-1.981-5.106-12.8-8.867-19.367-2.293-3.761,3.761-7.35,10.746-13.457,25.741,9.388,1.029,20.434,1.612,29.522,3.884.123-3.359.025-6.94.595-8.531Z" transform="translate(-75.914 -248.502)" fill="#9bc1f9"/>
          <path id="Path_4071" data-name="Path 4071" d="M77.73,353.354c.812,6.074-1.87,13.215,5.406,15.274,3.359.952,17.456-8.851,21.213-8.851,1.706,0,2.264-2.58,2.477-5.713-9.716,1.3-19.408.18-29.1-.714Z" transform="translate(-76.409 -297.478)" fill="#fae0b2"/>
          <path id="Path_4072" data-name="Path 4072" d="M74.51,345.957l1.325,3.031s6.69.993,9.831,1.271c4.717.422,19.265-.123,19.265-.123v-1.776s-7.633-1.345-11.39-.935-3.441.956-5.053.287a10.74,10.74,0,0,0-4.52-.484c-1.452,0-.607.546-3.638-.427a18.747,18.747,0,0,0-5.82-.849Z" transform="translate(-74.51 -293.112)" fill="#fae0b2"/>
          <path id="Path_4073" data-name="Path 4073" d="M144.31,318.492s3.084,8.437,3.7,9.052,10.446,7.6,10.446,7.6,5.008,3.392,5.656-.086c0,0-6.755-10.725-9.294-13.264a13.56,13.56,0,0,1-3.232-6.37l-7.272,3.072Z" transform="translate(-115.682 -275.105)" fill="#f79c8d"/>
          <path id="Path_4074" data-name="Path 4074" d="M135.374,280.934a10.657,10.657,0,0,0-3.474,7.838c0,5.008,3.8,10.508,3.8,10.508s9.536-2.182,10.262-2.908-2.182-16.324-5.972-17.411C137.909,278.367,135.374,280.934,135.374,280.934Z" transform="translate(-108.362 -253.547)" fill="#ffe2a1"/>
          <path id="Path_4075" data-name="Path 4075" d="M156.711,364.2c-.582,0-5.02-.952-10.541-2.133-9.011-1.928-20.885-4.466-23.51-4.466-3.335,0-10.881-.246-18.506.037-3.507.131-9.474,3.95-11.349,6.911-1.5,2.371-2.555,5.057-1.034,6.583,3.166,3.166,21.1,1.169,28.735-1.017,6.259-1.792,14.089-.275,19.269-1.423a7.142,7.142,0,0,1,3.761.156l8.236,2.305c2.055-.562,6.936-6.944,4.934-6.944Z" transform="translate(-84.254 -299.925)" fill="#f79c8d"/>
          <path id="Path_4076" data-name="Path 4076" d="M223.994,370.3l-.139-1.94s12.136,1.255,13.006,1.686,1.411,2.494-1.481,2.494c0,0,.939,1.952-.939,1.952,0,0,.7,1.866-1.013,1.878,0,0,.086,1.661-1.481,1.337a.861.861,0,0,1-.9.759c-.828,0-7.444-2.7-7.444-2.7l.4-5.463Z" transform="translate(-162.451 -306.331)" fill="#f79c8d"/>
        </g>
      </g>
      <path id="Path_4077" data-name="Path 4077" d="M63.5,104.56a55.485,55.485,0,0,0-7.817,4.987c-28.735,21.611-29.92,54.439-29.908,54.39a2.79,2.79,0,1,1-5.521-.779c4.368-24.326,17.4-42.885,35.031-54.185A55.962,55.962,0,0,1,63.5,104.56Z" transform="translate(-11.923 -95.155)" fill="#96d9c9"/>
      <path id="Path_4078" data-name="Path 4078" d="M217.612,342.218c-12.784,31.389-33.119,39.247-34.293,40.125a63.259,63.259,0,0,1-16.869,5.4,62.909,62.909,0,0,0,16.377-6.329c.045-.029,3.318-2.03,3.113-1.9a65.005,65.005,0,0,0,9.019-7.329c1.567-1.936,17.78-16.607,22.94-48.2.628-3.851.738-5.672.738-5.627a2.789,2.789,0,0,1,5.562.435c-.234,3.015-2.568,13.494-6.591,23.428Z" transform="translate(-98.181 -219.743)" fill="#96d9c9"/>
      <path id="Path_4079" data-name="Path 4079" d="M138.976,170.178l-2.748.685-1.591-4.3-4.138.509-1.719-3.023-1.53.87,2.3,4.04,3.921-.48,1.657,4.471,4.134-1.029Z" transform="translate(-75.059 -130.246)" fill="#9bc1f9"/>
      <g id="Group_3539" data-name="Group 3539" transform="translate(25.471 54.991)">
        <path id="Path_4080" data-name="Path 4080" d="M81.4,227.358a2.939,2.939,0,0,1,1.485-2.03,2.27,2.27,0,0,1,3.129.915c.71,1.263.435,3.384-1.714,6.3-3.609.312-5.553-.566-6.263-1.829a2.268,2.268,0,0,1,.857-3.146,2.925,2.925,0,0,1,2.506-.2Z" transform="translate(-71.32 -221.204)" fill="#f48c7f"/>
        <path id="Path_4081" data-name="Path 4081" d="M62.7,241.59a30.092,30.092,0,0,0,3.179-1.354c.312-.156.9-.328.98-.705a.362.362,0,0,0-.217-.451c-.357-.144-.775.189-1.091.345-.96.476-2.067.964-3.211,1.395a.426.426,0,1,0,.361.771h0Z" transform="translate(-62.102 -229.472)" fill="#f48c7f"/>
        <path id="Path_4082" data-name="Path 4082" d="M104.683,229.008c.463-.217.919-.447,1.378-.673a4.647,4.647,0,0,0,1.337-.751.369.369,0,0,0-.3-.64,4.657,4.657,0,0,0-1.4.6c-.459.226-.919.455-1.37.689a.426.426,0,0,0,.361.771h0Z" transform="translate(-86.871 -222.333)" fill="#f48c7f"/>
        <path id="Path_4083" data-name="Path 4083" d="M79.873,250.422a5.353,5.353,0,0,1,1.009-2.527.345.345,0,0,0-.5-.459,3.968,3.968,0,0,0-1.353,2.92.424.424,0,0,0,.845.066Z" transform="translate(-72.085 -234.379)" fill="#f48c7f"/>
        <path id="Path_4084" data-name="Path 4084" d="M94.956,250.47a3.734,3.734,0,0,1-.447-1.493c-.025-.324.152-1.345-.459-1.222-.574.115-.439,1.083-.386,1.5a4.446,4.446,0,0,0,.517,1.579c.262.48,1.034.123.775-.361Z" transform="translate(-80.688 -234.604)" fill="#f48c7f"/>
        <path id="Path_4085" data-name="Path 4085" d="M102.356,241.449c.345.062.693.119,1.038.18s.722.209,1.025-.025a.376.376,0,0,0,.045-.517c-.193-.291-.689-.275-1-.328-.345-.057-.693-.115-1.038-.176a.437.437,0,0,0-.463.4.443.443,0,0,0,.4.463h0Z" transform="translate(-85.61 -230.378)" fill="#f48c7f"/>
        <path id="Path_4086" data-name="Path 4086" d="M71.45,224.739c-2.125-1.87-2.112-1.891-2.4-1.985a.376.376,0,0,0-.459.509c.139.291.123.238,2.367,2.2a.441.441,0,0,0,.611-.111.447.447,0,0,0-.111-.607h0Z" transform="translate(-65.906 -219.852)" fill="#f48c7f"/>
        <path id="Path_4087" data-name="Path 4087" d="M83.817,218.912a6.481,6.481,0,0,0-.262-1.366c-.127-.414-.262-1.066-.751-1.161a.322.322,0,0,0-.3.144c-.217.381.107.87.221,1.255a7.609,7.609,0,0,1,.258,1.28.423.423,0,0,0,.833-.152Z" transform="translate(-74.093 -216.104)" fill="#f48c7f"/>
        <path id="Path_4088" data-name="Path 4088" d="M98,216a.375.375,0,0,0-.431-.3c-.377.029-.644.541-.833.829a7.472,7.472,0,0,0-.57,1.054.433.433,0,0,0,.262.545.441.441,0,0,0,.546-.262c.669-1.358,1.07-1.341,1.021-1.866Z" transform="translate(-82.179 -215.706)" fill="#f48c7f"/>
      </g>
    </g>
  </g>
</svg>
