<svg id="Layer_2" data-name="Layer 2" xmlns="http://www.w3.org/2000/svg" width="172.024" height="145.508" viewBox="0 0 172.024 145.508">
  <g id="Group_3578" data-name="Group 3578" transform="translate(0)">
    <g id="Group_3571" data-name="Group 3571" transform="translate(52.696)">
      <path id="Path_4245" data-name="Path 4245" d="M128.88,54.833l-.41-.217L157.882,0l32.549,50.768-.39.254L157.915.915Z" transform="translate(-128.47)" fill="#184655"/>
      <path id="Path_4246" data-name="Path 4246" d="M198.883,1.19,198,1.617l-.217.96.611.767h.984l.611-.767-.217-.96Z" transform="translate(-169.353 -0.702)" fill="#86b1f2"/>
    </g>
    <g id="Group_3576" data-name="Group 3576" transform="translate(0 29.465)">
      <path id="Path_4247" data-name="Path 4247" d="M43.435,0H72.609a43.454,43.454,0,0,1,43.435,43.435V128.59a43.454,43.454,0,0,1-43.435,43.435H43.435A43.454,43.454,0,0,1,0,128.59V43.431A43.456,43.456,0,0,1,43.435,0Z" transform="translate(172.024 0) rotate(90)" fill="#3c8f7c"/>
      <rect id="Rectangle_105" data-name="Rectangle 105" width="153.437" height="97.455" rx="48.728" transform="translate(9.298 9.294)" fill="#f7cc7f"/>
      <path id="Path_4248" data-name="Path 4248" d="M199.785,147.6s-5.406-1.009-7.559,5.18-.509,5.32-1.542,8.408-5.262,3.314-4.421,7.629,2.814,4.622,2.814,4.622a8.1,8.1,0,0,0,1.505,6.767c2.514,3.088,7.682,5.164,11.427,3.937,0,0,6.439,2.33,11.9-.431s3.449-2.367,5.812-2.83,8.068-5.258,6-10.225c0,0,2.908-5.824-1.682-9.22s-6.124-7.457-9.4-12.587-12.5-3.1-14.864-1.251Z" transform="translate(-109.798 -115.347)" fill="#13375b"/>
      <g id="Group_3575" data-name="Group 3575" transform="translate(37.766 22.428)">
        <g id="Group_3572" data-name="Group 3572" transform="translate(63.869 8.09)">
          <path id="Path_4249" data-name="Path 4249" d="M270.09,169.689c3.281-2.149,10.988-10.418,13.6-13.235a8.848,8.848,0,0,1,2.375-4.676c1.481-1.719,2.6-5.635,3.577-4.524s-1.44,4.22-.336,4.241,6.587-6.144,7.469-5.135-4.688,6.484-3.7,6.5,5.508-5.529,6.755-4.11-5.923,6.033-5.254,6.8,5.11-2.26,6.115-1.116-6.267,3.843-5.685,3.851,4.774-.1,4.807.705c.037.915-10.611,2.334-11.915,3.913h0c-2.781,4.43-7.735,12.518-12.747,16.07-6.136,4.343-20.315,13.555-20.315,13.555l-7.042-9.1s18.412-11.2,22.3-13.748Z" transform="translate(-247.79 -146.248)" fill="#f7a491"/>
          <path id="Path_4250" data-name="Path 4250" d="M347.63,163.814a4.383,4.383,0,0,1,.427,1.71,4.254,4.254,0,0,1-1.386,3.441,7.279,7.279,0,0,0,.956-5.156Z" transform="translate(-306.115 -156.607)" fill="#f48c7f"/>
        </g>
        <path id="Path_4251" data-name="Path 4251" d="M148.053,232.5l-9.417-13.9L132,219.982s5.7,18.785,10.032,21,24.515-4.438,24.515-4.438l.406-13.305-18.9,9.253Z" transform="translate(-115.622 -180.835)" fill="#f79c8d"/>
        <g id="Group_3573" data-name="Group 3573">
          <path id="Path_4252" data-name="Path 4252" d="M189.23,256.57s9.975,11.759,13.732,12.809c2.137.6,8.929,4.024,11.874,2.432,2.342-1.263,3.831-1.854,4.225-2.067.915-.492,2.805,5.467,2.4,6.755,0,0,.16.98-1.55,1.907s-14.039-.185-18.211-1.353-17.054-12.875-17.054-12.875l4.594-7.608Z" transform="translate(-146.672 -203.232)" fill="#f7a491"/>
          <path id="Path_4253" data-name="Path 4253" d="M174.271,230.064a13.881,13.881,0,0,1,6.534,4.311c2.391,2.826,11.985,13.818,11.985,13.818l-11.89,7.276-8.769-9.921,2.145-15.487Z" transform="translate(-139.293 -187.595)" fill="#50bfa5"/>
          <path id="Path_4254" data-name="Path 4254" d="M124.579,218.32c-2.125-.127-7.653,1.538-7.653,1.538s-3.466,20.749-5.43,26.438c-1.308,3.8-1.165,12.907-4.175,18.543,1.054.1-2.777.148-1.7.148H138.61c.677-6.767,1.468-15.475,1.612-20.655a100.106,100.106,0,0,0-2.01-20.073s-11.689-5.824-13.633-5.939Z" transform="translate(-99.949 -180.666)" fill="#96d9c9"/>
          <path id="Path_4255" data-name="Path 4255" d="M106.912,280.583a86.246,86.246,0,0,0,.066,13.617h8.552c.193-4.311.447-9.06.718-10.553.533-2.92,1.374-12.579,1.374-12.579l-8.383-3.228S107.318,278.364,106.912,280.583Z" transform="translate(-100.69 -209.879)" fill="#f7a491"/>
          <path id="Path_4256" data-name="Path 4256" d="M117.518,221.361a7.018,7.018,0,0,0-6.3,3.88c-1.768,3.417-6.558,13.162-6.964,18.268,0,0,12.144,3.831,12.235,3.339s5.156-12.862,4.827-18.744C121.025,222.977,119.581,221.488,117.518,221.361Z" transform="translate(-99.254 -182.46)" fill="#50bfa5"/>
          <path id="Path_4257" data-name="Path 4257" d="M94.755,133.626a3.442,3.442,0,0,0,1.776,4.389c2.957,1.6,6.862-8.732,9.036-10.516s7.7-1.37,9.749,3.359a17.451,17.451,0,0,1,1.468,4.159c.033.377-.1.328-.1.328l-1.132,1.382s-2.436-2.1-4,.636.6,8.068-2.727,11.558-7.584-.185-7.584-.185c-4.425,1.846-8.264-2.908-9.052-6.886s2.568-8.228,2.568-8.228Z" transform="translate(-92.068 -126.523)" fill="#f47458"/>
          <path id="Path_4258" data-name="Path 4258" d="M158.518,193.71l-1.214,4.216-5.184,5.882s6.169,10.6,8.99,8.851c.632-.39,3.765-9.848,3.765-9.848Z" transform="translate(-127.49 -166.154)" fill="#f7a491"/>
          <path id="Path_4259" data-name="Path 4259" d="M163.179,197.926l-1.1,1.312a29.661,29.661,0,0,0,7.612,6.685c.6-1.731,1.062-3.113,1.062-3.113l-6.357-9.1-1.214,4.216Z" transform="translate(-133.365 -166.154)" fill="#f48c7f"/>
          <path id="Path_4260" data-name="Path 4260" d="M166.181,161.846a27.8,27.8,0,0,1,2.317,3.359c3.421,6.932-2.449,18.293-5,18.859-3.859.861-8.154-2.026-12.78-6.431s-5.27-10.282.427-14.253S166.181,161.846,166.181,161.846Z" transform="translate(-124.505 -146.922)" fill="#f7a491"/>
          <path id="Path_4261" data-name="Path 4261" d="M147.382,151l1.673-1.062c5.615,1.025,10.688-1.427,16.39,3.01,3.765,2.928,1.5,5.668,1.5,5.668-15.405-2.814-11.989,9.93-14.724,14.249S139.544,164.947,147.382,151Z" transform="translate(-122.953 -140.336)" fill="#f47458"/>
          <path id="Path_4262" data-name="Path 4262" d="M166.706,184.356s.484-3.888-2.1-3.572-1.735,6.464.328,6.628,1.768-3.06,1.768-3.06Z" transform="translate(-133.91 -158.518)" fill="#f7a491"/>
          <path id="Path_4263" data-name="Path 4263" d="M148.292,145.28s2.067,1.813,3.023,1.87-1.944,2.555-3.257,2.629-.656-1.013-.849-1.46-1.226-.316-1.4-.652c-.39-.767,1.362-2.457,2.481-2.383Z" transform="translate(-123.735 -137.587)" fill="#50bfa5"/>
        </g>
        <g id="Group_3574" data-name="Group 3574" transform="translate(46.361 11.334)">
          <path id="Path_4264" data-name="Path 4264" d="M243.448,267.548l-8.757-44.829a80.8,80.8,0,0,0-13.892.652,53.042,53.042,0,0,0-8.6,2.264s-2.621,10.729-2.4,19.055c.123,4.508-.5,14.573-1.1,22.858h34.748Z" transform="translate(-207.224 -194.561)" fill="#b75742"/>
          <path id="Path_4265" data-name="Path 4265" d="M226.37,203.415s1.427,6.259.931,6.968a2.289,2.289,0,0,0,.033,3.183c1.194,1.325,4.914-.394,6.566-1.612a8.661,8.661,0,0,0,2.416-2.92l-2.859-9.794Z" transform="translate(-217.647 -180.749)" fill="#f79c8d"/>
          <path id="Path_4266" data-name="Path 4266" d="M229.479,205.525a9.289,9.289,0,0,0,4.38-4.905l-.4-1.37-7.087,4.175s.349,1.526.64,3.158a9.184,9.184,0,0,0,2.469-1.058Z" transform="translate(-217.647 -180.755)" fill="#f47458"/>
          <path id="Path_4267" data-name="Path 4267" d="M243.46,176.23s-.537-3.736,1.956-3.478,1.792,6.193-.2,6.394S243.46,176.23,243.46,176.23Z" transform="translate(-227.699 -165.118)" fill="#f79c8d"/>
          <path id="Path_4268" data-name="Path 4268" d="M211.106,154.626s-3.7.64-5.041,3.773-1.846,11.439,2.33,16.287,7.883,2.727,9.413,1.854,4.524-2.727,5.164-8.15-2.785-16.648-11.866-13.769Z" transform="translate(-205.102 -154.157)" fill="#f79c8d"/>
        </g>
        <path id="Path_4269" data-name="Path 4269" d="M133.858,214.126a47.329,47.329,0,0,0-4.967-.636c-1.337,0-3.1,2.924-3.1,3.523s2.256,5.176,2.818,5.176-.07-3.63-.07-3.63,1.936,4.192,2.887,3.63-1.091-4.6-1.091-4.6,2.043,4.245,2.572,4.069-.849-4.946-.849-4.946,1.727,4.311,2.609,3.888-.984-4.192-.984-4.192,1.2,1.12,1.936.894-1.76-3.183-1.76-3.183Z" transform="translate(-111.959 -177.821)" fill="#f79c8d"/>
      </g>
    </g>
    <g id="Group_3577" data-name="Group 3577" transform="translate(111.485 43.799)">
      <path id="Path_4270" data-name="Path 4270" d="M287.87,116.267a8.091,8.091,0,1,1-6.587-9.36A8.095,8.095,0,0,1,287.87,116.267Z" transform="translate(-271.807 -106.787)" fill="#fae0b2"/>
      <path id="Path_4271" data-name="Path 4271" d="M280.517,127.79a4.326,4.326,0,1,0,8.523,1.485Z" transform="translate(-276.906 -119.176)" fill="#efefef"/>
    </g>
    <path id="Path_4272" data-name="Path 4272" d="M353.006,223.7l-2.473,2.211-3.991-3.585-4.015,2.785-3.425-2.194-1.112,1.735,4.585,2.933,3.8-2.637,4.155,3.728,3.72-3.322Z" transform="translate(-199.36 -131.142)" fill="#466eb6"/>
    <path id="Path_4273" data-name="Path 4273" d="M68.816,215.158l-2.933-1.62-3.113,1.308a.459.459,0,0,1-.652-.492l.767-3.068-2.313-2.321a.426.426,0,0,1,.3-.722l3.408-.279,1.682-2.74a.487.487,0,0,1,.841.045l1.341,2.9,3.351.628a.422.422,0,0,1,.213.751l-2.58,2.067.39,3.129a.466.466,0,0,1-.71.418Z" transform="translate(-35.651 -120.922)" fill="#96d9c9"/>
    <path id="Path_4274" data-name="Path 4274" d="M68.816,133.478l-2.933-1.62-3.113,1.308a.459.459,0,0,1-.652-.492l.767-3.068-2.313-2.321a.426.426,0,0,1,.3-.722l3.408-.279,1.682-2.74a.487.487,0,0,1,.841.045l1.341,2.9,3.351.628a.422.422,0,0,1,.213.751l-2.58,2.067.39,3.129a.466.466,0,0,1-.71.418Z" transform="translate(-35.651 -72.743)" fill="#9bc1f9"/>
    <path id="Path_4275" data-name="Path 4275" d="M180.586,107.5l-2.933-1.62-3.113,1.308a.459.459,0,0,1-.652-.492l.767-3.068-2.313-2.321a.426.426,0,0,1,.3-.722l3.408-.279,1.682-2.74a.487.487,0,0,1,.841.045l1.341,2.9,3.351.628a.422.422,0,0,1,.213.751l-2.58,2.067.39,3.129a.466.466,0,0,1-.71.418Z" transform="translate(-101.579 -57.419)" fill="#b75742"/>
    <path id="Path_4276" data-name="Path 4276" d="M162.3,80.114c-3.7-.107-7.407-.127-11.115-.193l-11.115-.062-11.115.066c-3.7.062-7.407.086-11.115.193-7.407.172-14.819.422-22.226.9,7.407.48,14.819.734,22.226.9,3.7.107,7.407.131,11.115.193l11.115.066,11.115-.062c3.7-.066,7.407-.086,11.115-.193,7.407-.168,14.819-.422,22.226-.906C177.115,80.537,169.7,80.287,162.3,80.114Z" transform="translate(-56.392 -47.106)" fill="#96d9c9"/>
  </g>
</svg>
