<svg xmlns="http://www.w3.org/2000/svg" width="277.505" height="323.877" viewBox="0 0 277.505 323.877">
  <g id="Group_1769" data-name="Group 1769" transform="translate(0)">
    <g id="Group_1759" data-name="Group 1759" transform="translate(0)">
      <g id="Group_1756" data-name="Group 1756" transform="translate(116.638)">
        <path id="Path_1860" data-name="Path 1860" d="M92.68,4.94V193.425l3.826,2.2V7.142Z" transform="translate(-92.68 1.277)" fill="#2b2a28"/>
        <path id="Path_1861" data-name="Path 1861" d="M92.68,6.217l3.826,2.2L107.279,2.2,103.453,0Z" transform="translate(-92.68)" fill="#403f3d"/>
      </g>
      <g id="Group_1757" data-name="Group 1757" transform="translate(29.839 2.19)">
        <path id="Path_1862" data-name="Path 1862" d="M26.81,61.923V250.37l101.385-58.533V3.39Z" transform="translate(-22.909 -1.313)" fill="#8beba9"/>
        <path id="Path_1863" data-name="Path 1863" d="M27.611,50.364l-3.9-2.114V236.7l3.9,2.114Z" transform="translate(-23.71 10.283)" fill="#6cdb8c"/>
        <path id="Path_1864" data-name="Path 1864" d="M125.095,1.74,129,3.854,27.611,62.387l-3.9-2.114Z" transform="translate(-23.71 -1.74)" fill="#b2f0c4"/>
      </g>
      <g id="Group_1758" data-name="Group 1758" transform="translate(0 180.997)">
        <path id="Path_1865" data-name="Path 1865" d="M28.678,148.558l-1.145-3.348L1.52,195.5l4.065-2.353Z" transform="translate(0.393 -143.461)" fill="#141414"/>
        <path id="Path_1866" data-name="Path 1866" d="M26.378,143.82,0,194.751l1.913,1.107,26.366-50.944Z" transform="translate(0 -143.82)" fill="#2b2a28"/>
      </g>
      <path id="Path_1867" data-name="Path 1867" d="M20.67,46.47V234.93l3.826,2.215V48.685Z" transform="translate(5.343 12.012)" fill="#2b2a28"/>
      <path id="Path_1868" data-name="Path 1868" d="M20.67,47.747,24.5,49.962l10.773-6.217L31.443,41.53Z" transform="translate(5.343 10.735)" fill="#403f3d"/>
      <path id="Path_1869" data-name="Path 1869" d="M107.206,35.129C92.192,28.094,75.29,58.122,75.29,58.122S58.388,47.6,43.375,71.978C30.852,92.316,33.294,120.153,48.169,128.7A214.106,214.106,0,0,0,75.29,141.951s12.245-18.84,27.121-44.563,17.317-56.393,4.795-62.258Z" transform="translate(9.13 8.805)" fill="#6cdb8c"/>
      <path id="Path_1870" data-name="Path 1870" d="M47.477,121.645c-2.429-1.133-5.16,3.713-5.16,3.713s-2.731-1.7-5.16,2.24c-2.026,3.285-1.623,7.778.78,9.162a34.39,34.39,0,0,0,4.38,2.139s1.976-3.046,4.38-7.2S49.49,122.589,47.477,121.645Z" transform="translate(9.269 31.401)" fill="#6cdb8c"/>
      <path id="Path_1871" data-name="Path 1871" d="M44.657,48.175c-2.429-1.133-5.16,3.713-5.16,3.713s-2.731-1.7-5.16,2.24c-2.026,3.285-1.623,7.778.78,9.162a34.393,34.393,0,0,0,4.38,2.139s1.976-3.046,4.38-7.2S46.67,49.119,44.657,48.175Z" transform="translate(8.54 12.409)" fill="#6cdb8c"/>
      <path id="Path_1872" data-name="Path 1872" d="M97.367,128.545c-2.429-1.133-5.16,3.713-5.16,3.713s-2.731-1.7-5.16,2.24c-2.026,3.285-1.623,7.778.78,9.162a34.392,34.392,0,0,0,4.38,2.139s1.976-3.046,4.38-7.2,2.794-9.112.78-10.055Z" transform="translate(22.165 33.184)" fill="#6cdb8c"/>
      <path id="Path_1873" data-name="Path 1873" d="M69.737,125.555c-2.429-1.133-5.16,3.713-5.16,3.713s-2.731-1.7-5.16,2.24c-2.026,3.285-1.623,7.778.78,9.162a34.391,34.391,0,0,0,4.38,2.139s1.976-3.046,4.38-7.2,2.794-9.112.78-10.055Z" transform="translate(15.023 32.411)" fill="#6cdb8c"/>
      <path id="Path_1874" data-name="Path 1874" d="M102.727,15.855c-2.429-1.133-5.16,3.713-5.16,3.713s-2.731-1.7-5.16,2.24c-2.026,3.285-1.623,7.778.78,9.162a34.393,34.393,0,0,0,4.38,2.139s1.976-3.046,4.38-7.2,2.794-9.112.78-10.055Z" transform="translate(23.551 4.054)" fill="#6cdb8c"/>
      <path id="Path_1875" data-name="Path 1875" d="M55.917,148.945c-2.429-1.133-5.16,3.713-5.16,3.713s-2.731-1.7-5.16,2.24c-2.026,3.285-1.623,7.778.78,9.162a34.39,34.39,0,0,0,4.38,2.139s1.976-3.046,4.38-7.2,2.794-9.112.78-10.055Z" transform="translate(11.451 38.458)" fill="#6cdb8c"/>
    </g>
    <g id="Group_1762" data-name="Group 1762" transform="translate(67.556 16.26)">
      <g id="Group_1760" data-name="Group 1760" transform="translate(90.624)">
        <path id="Path_1876" data-name="Path 1876" d="M125.69,17.86V206.345l3.826,2.2V20.062Z" transform="translate(-125.69 -11.643)" fill="#3a3a35"/>
        <path id="Path_1877" data-name="Path 1877" d="M125.69,19.137l3.826,2.2,10.773-6.2-3.826-2.215Z" transform="translate(-125.69 -12.92)" fill="#4f4f4a"/>
      </g>
      <g id="Group_1761" data-name="Group 1761" transform="translate(3.826 2.19)">
        <path id="Path_1878" data-name="Path 1878" d="M59.82,74.843V263.3L161.2,204.758V16.31Z" transform="translate(-55.919 -14.233)" fill="#8bb3fa"/>
        <path id="Path_1879" data-name="Path 1879" d="M60.621,63.284l-3.9-2.114V249.618l3.9,2.114Z" transform="translate(-56.72 -2.637)" fill="#548eea"/>
        <path id="Path_1880" data-name="Path 1880" d="M158.1,14.66l3.9,2.114L60.621,75.307l-3.9-2.114Z" transform="translate(-56.72 -14.66)" fill="#abccff"/>
      </g>
      <path id="Path_1881" data-name="Path 1881" d="M53.68,59.4V247.848l3.826,2.215V61.6Z" transform="translate(-53.68 -0.905)" fill="#3a3a35"/>
      <path id="Path_1882" data-name="Path 1882" d="M53.68,60.677l3.826,2.2,10.773-6.217-3.826-2.2Z" transform="translate(-53.68 -2.182)" fill="#4f4f4a"/>
      <path id="Path_1883" data-name="Path 1883" d="M140.216,48.049C125.2,41.014,108.3,71.042,108.3,71.042S91.4,60.521,76.385,84.9c-12.522,20.337-10.081,48.175,4.795,56.721A214.108,214.108,0,0,0,108.3,154.871s12.245-18.84,27.121-44.563S152.738,53.914,140.216,48.049Z" transform="translate(-49.893 -4.115)" fill="#548eea"/>
      <path id="Path_1884" data-name="Path 1884" d="M80.487,134.565c-2.429-1.133-5.16,3.713-5.16,3.713s-2.731-1.7-5.16,2.24c-2.026,3.285-1.623,7.777.78,9.162a34.393,34.393,0,0,0,4.38,2.139s1.976-3.046,4.38-7.2,2.794-9.112.78-10.055Z" transform="translate(-49.754 18.481)" fill="#548eea"/>
      <path id="Path_1885" data-name="Path 1885" d="M77.667,61.1c-2.429-1.133-5.16,3.713-5.16,3.713s-2.731-1.7-5.16,2.24c-2.026,3.285-1.623,7.778.78,9.162a34.394,34.394,0,0,0,4.38,2.139s1.976-3.046,4.38-7.2,2.794-9.112.78-10.055Z" transform="translate(-50.483 -0.511)" fill="#548eea"/>
      <path id="Path_1886" data-name="Path 1886" d="M130.377,141.465c-2.429-1.133-5.16,3.713-5.16,3.713s-2.731-1.7-5.16,2.24c-2.026,3.285-1.623,7.778.78,9.162a34.393,34.393,0,0,0,4.38,2.139s1.976-3.046,4.38-7.2,2.794-9.112.78-10.055Z" transform="translate(-36.858 20.264)" fill="#548eea"/>
      <path id="Path_1887" data-name="Path 1887" d="M102.747,138.475c-2.429-1.133-5.16,3.713-5.16,3.713s-2.731-1.7-5.16,2.24c-2.026,3.285-1.623,7.777.78,9.162a34.393,34.393,0,0,0,4.38,2.139s1.976-3.046,4.38-7.2,2.794-9.112.78-10.055Z" transform="translate(-44 19.491)" fill="#548eea"/>
      <path id="Path_1888" data-name="Path 1888" d="M135.737,28.785c-2.429-1.133-5.16,3.713-5.16,3.713s-2.731-1.7-5.16,2.24c-2.026,3.285-1.623,7.778.78,9.162a34.393,34.393,0,0,0,4.38,2.139s1.976-3.046,4.38-7.2,2.794-9.112.78-10.055Z" transform="translate(-35.472 -8.863)" fill="#548eea"/>
      <path id="Path_1889" data-name="Path 1889" d="M88.927,161.865c-2.429-1.133-5.16,3.713-5.16,3.713s-2.731-1.7-5.16,2.24c-2.026,3.285-1.623,7.778.78,9.162a34.392,34.392,0,0,0,4.38,2.139s1.976-3.046,4.38-7.2,2.794-9.112.78-10.055Z" transform="translate(-47.573 25.538)" fill="#548eea"/>
    </g>
    <g id="Group_1765" data-name="Group 1765" transform="translate(109.099 32.52)">
      <g id="Group_1763" data-name="Group 1763" transform="translate(90.624)">
        <path id="Path_1890" data-name="Path 1890" d="M158.7,30.78V219.265l3.826,2.2V32.995Z" transform="translate(-158.7 -24.563)" fill="#35373a"/>
        <path id="Path_1891" data-name="Path 1891" d="M158.7,32.057l3.826,2.215L173.3,28.055l-3.826-2.215Z" transform="translate(-158.7 -25.84)" fill="#4a4c4f"/>
      </g>
      <g id="Group_1764" data-name="Group 1764" transform="translate(3.826 2.19)">
        <path id="Path_1892" data-name="Path 1892" d="M92.83,87.763v188.46L194.215,217.69V29.23Z" transform="translate(-88.929 -27.153)" fill="#fa8baa"/>
        <path id="Path_1893" data-name="Path 1893" d="M93.631,76.2l-3.9-2.114V262.538l3.9,2.114Z" transform="translate(-89.73 -15.557)" fill="#ea6a91"/>
        <path id="Path_1894" data-name="Path 1894" d="M191.115,27.58l3.9,2.114L93.631,88.227l-3.9-2.114Z" transform="translate(-89.73 -27.58)" fill="#ffabc5"/>
      </g>
      <path id="Path_1895" data-name="Path 1895" d="M86.69,72.32V260.78l3.826,2.2V74.522Z" transform="translate(-86.69 -13.825)" fill="#35373a"/>
      <path id="Path_1896" data-name="Path 1896" d="M86.69,73.6l3.826,2.2,10.773-6.217-3.826-2.2Z" transform="translate(-86.69 -15.102)" fill="#4a4c4f"/>
      <path id="Path_1897" data-name="Path 1897" d="M173.226,60.969c-15.014-7.035-31.915,22.993-31.915,22.993s-16.9-10.521-31.916,13.856c-12.522,20.337-10.081,48.175,4.795,56.721a214.107,214.107,0,0,0,27.121,13.252s12.245-18.84,27.121-44.563S185.748,66.834,173.226,60.969Z" transform="translate(-82.903 -17.035)" fill="#ea6a91"/>
      <path id="Path_1898" data-name="Path 1898" d="M113.5,147.5c-2.429-1.133-5.16,3.713-5.16,3.713s-2.731-1.7-5.16,2.24c-2.026,3.285-1.623,7.778.78,9.162a34.392,34.392,0,0,0,4.38,2.139s1.976-3.046,4.38-7.2,2.794-9.112.78-10.055Z" transform="translate(-82.764 5.563)" fill="#ea6a91"/>
      <path id="Path_1899" data-name="Path 1899" d="M110.677,74.015c-2.429-1.133-5.16,3.713-5.16,3.713s-2.731-1.7-5.16,2.24c-2.026,3.285-1.623,7.778.78,9.162a34.392,34.392,0,0,0,4.38,2.139s1.976-3.046,4.38-7.2,2.794-9.112.78-10.055Z" transform="translate(-83.493 -13.431)" fill="#ea6a91"/>
      <path id="Path_1900" data-name="Path 1900" d="M163.387,154.4c-2.429-1.133-5.16,3.713-5.16,3.713s-2.731-1.7-5.16,2.24c-2.026,3.285-1.623,7.778.78,9.162a34.388,34.388,0,0,0,4.38,2.139s1.976-3.046,4.38-7.2,2.794-9.112.78-10.055Z" transform="translate(-69.868 7.347)" fill="#ea6a91"/>
      <path id="Path_1901" data-name="Path 1901" d="M135.757,151.4c-2.429-1.133-5.16,3.713-5.16,3.713s-2.731-1.7-5.16,2.24c-2.026,3.285-1.623,7.777.78,9.162a34.391,34.391,0,0,0,4.38,2.139s1.976-3.046,4.38-7.2,2.794-9.112.78-10.055Z" transform="translate(-77.01 6.571)" fill="#ea6a91"/>
      <path id="Path_1902" data-name="Path 1902" d="M168.747,41.705c-2.429-1.133-5.16,3.713-5.16,3.713s-2.731-1.7-5.16,2.24c-2.026,3.285-1.623,7.778.78,9.162a34.393,34.393,0,0,0,4.38,2.139s1.976-3.046,4.38-7.2,2.794-9.112.78-10.055Z" transform="translate(-68.482 -21.783)" fill="#ea6a91"/>
      <path id="Path_1903" data-name="Path 1903" d="M121.937,174.785c-2.429-1.133-5.16,3.713-5.16,3.713s-2.731-1.7-5.16,2.24c-2.026,3.285-1.623,7.778.78,9.162a34.392,34.392,0,0,0,4.38,2.139s1.976-3.046,4.38-7.2,2.794-9.112.78-10.055Z" transform="translate(-80.583 12.618)" fill="#ea6a91"/>
    </g>
    <g id="Group_1768" data-name="Group 1768" transform="translate(187.225 124.993)">
      <g id="Group_1766" data-name="Group 1766">
        <path id="Path_1904" data-name="Path 1904" d="M183.612,122.383s6.192-.025,7.853,4.493,1.925,13.705,1.925,13.705-10.332-9.049-10.37-11.3a67.224,67.224,0,0,1,.579-6.909Z" transform="translate(-139.915 -93.361)" fill="#ff9f8c"/>
        <path id="Path_1905" data-name="Path 1905" d="M194.964,151.82c4.48-11.868-.076-17.657-1.737-19.557-1.724-1.963-6.267-5.336-7.878-7.123-1.07.189-8.948,2.681-8.948,2.681s-7.929,2.857-8.608,8.734c-1.208,10.5,3.046,10.962,6.2,17.72.378.805,20.7-1.787,20.954-2.454Z" transform="translate(-143.905 -92.645)" fill="#ffc4b2"/>
        <path id="Path_1906" data-name="Path 1906" d="M177.98,129.257s4.216,7.488,5.16,12.61a23.825,23.825,0,0,1-.956,8.809c-1.284,3.31-3.31,3.36-3.31,3.36s1.9,3.65,1.724,6.808-3.423,8.243-6.431,13.076c-6.7,10.773-14.359,22.728-20.186,49.811-7.01,32.62-4.921,44.815-4.921,44.815s-.566,5.651,7.551,7.173c5.575,1.045-.151,7.022,10.987,9.8,3.31.831,6.506-3.977,13.579,1.573,4.216,3.31,11.88,6.481,17.317,1.963,3.536-2.945,4.984-3.939,14.334-2.731s12.912-1.472,13.567-6.079c.881-6.2.151-7.3,5.877-9.565s7.526-2.328,6.506-9.565c-.717-5.109,0-30.317-7.337-52.278-5.223-15.643-26.705-43.078-28.367-46.413-2.92-5.865-2.228-9.816-.466-14.737s1.787-7.853.478-10.647-9.577-11.037-9.577-11.037l-2.957.491a42.368,42.368,0,0,1,5.21,5.374c1.913,2.869,4.065,5.235,3.662,8.747a50.955,50.955,0,0,1-1.586,8.168s-1.334-5.462-7.626-10.659a76.24,76.24,0,0,1-10.269-9.967l-1.963,1.082Z" transform="translate(-148.768 -92.42)" fill="#ffe9b8"/>
        <path id="Path_1907" data-name="Path 1907" d="M184.359,125.26s.743,5.185,1.372,8.117c.591,2.718-4.556,3.046-6.532,1.825-4.367-2.731-4.619-4.9-4.619-4.9s.818-3.75.919-5.11c.164-2.265-.013-9.628-.013-9.628l8.872,9.7Z" transform="translate(-142.096 -95.119)" fill="#ff9f8c"/>
        <path id="Path_1908" data-name="Path 1908" d="M185.876,105.7s.982-5.185-4.908-6.242c-4.065-.73-6.746,1.586-8.142,2.895s-1.158,3.763-1.523,4.845c-.793,2.353-3.713.894-3.713.894a3.892,3.892,0,0,0,1.007,1.46c.68.566,1.926,0,1.926,0s-1.812,1.359-1.7,2.718,1.7,1.812,1.586,2.832-2.869,1.246-2.114,2.932a3.023,3.023,0,0,0,2.567,1.737s-1.472-2.4.566-2.857,5.575-.68,7.022-4.065,7.438-7.136,7.438-7.136Z" transform="translate(-143.903 -99.319)" fill="#232323"/>
        <path id="Path_1909" data-name="Path 1909" d="M190.117,116.073c-.591.277-1.259,1.636-1.913,1.774a1.648,1.648,0,0,0,.063,1.875c.906.944,1.51,1.812,1.208,2.467a2.593,2.593,0,0,1-1.208,1.032s2.542,1.007,3.1-1.032c.654-2.416-1.963-2.806-1.246-6.129Z" transform="translate(-138.642 -94.992)" fill="#35373a"/>
        <path id="Path_1910" data-name="Path 1910" d="M177.3,108.583c3.348-2.844,11.578-4.128,15.039,4.266,3.637,8.8-3.889,20.4-8.319,18.726-2.479-.944-7.488-3.234-9.162-7.878-1.888-5.223-.164-12.9,2.441-15.115Z" transform="translate(-142.232 -97.483)" fill="#ffc4b2"/>
        <path id="Path_1911" data-name="Path 1911" d="M186.525,114.254s-7.274,7.639-10.37,11.54c-5.588-5.122-4.77-10.383-3.411-14.448a6.8,6.8,0,0,1,6.456-4.594s4.933-5.5,11.905-.491c10.118,7.274,2.379,15.882,2.379,15.882s.982-6-6.947-7.891Z" transform="translate(-142.828 -98.069)" fill="#35373a"/>
        <path id="Path_1912" data-name="Path 1912" d="M178.969,119.267a7.934,7.934,0,0,0-1.41-1.523c-.629-.478-1.825-.629-2.165,1.2a3.057,3.057,0,0,0,1.523,3.423l2.064-3.108Z" transform="translate(-141.904 -94.638)" fill="#ffc4b2"/>
        <path id="Path_1913" data-name="Path 1913" d="M173.669,149.77s1.183,3.134.919,4.946c-.352,2.379-2.618,6.758-2.618,6.758A119.5,119.5,0,0,1,184.2,166.13a79.352,79.352,0,0,1,15.429,9.489S200.085,165,199.317,160A29.593,29.593,0,0,1,195.1,149.77a38.581,38.581,0,0,0-1.3,9.577c-7.84-5.764-20.161-9.577-20.161-9.577Z" transform="translate(-142.771 -86.278)" fill="#ffd876"/>
        <path id="Path_1914" data-name="Path 1914" d="M166.455,187.56s-5.764,10.848-9.376,29.612c-2.127,11.037-3.549,42.185-3.549,42.185s4,1.145,4.682,2.806c.113-11.075,1.2-21.13,1.787-33.338s6.469-41.254,6.469-41.254Z" transform="translate(-147.538 -76.509)" fill="#ffd876"/>
        <path id="Path_1915" data-name="Path 1915" d="M212.386,261.312s.189-23.37,0-33.375c-.378-19.519-7.576-43.557-7.576-43.557s9.414,17.053,11.452,35.955,4.14,34.231,4.14,34.231a39.147,39.147,0,0,0-3.964,1.586,6.363,6.363,0,0,0-4.052,5.147Z" transform="translate(-134.282 -77.331)" fill="#ffd876"/>
        <path id="Path_1916" data-name="Path 1916" d="M178.057,181.093a221.212,221.212,0,0,0-8.294,39.177c-2.114,20.048-2.844,50.327-2.353,50.214a7.825,7.825,0,0,1,4.682,0,27.246,27.246,0,0,1,3.612,1.85s.252-24.641.856-41.971,1.51-49.283,1.51-49.283Z" transform="translate(-143.988 -78.184)" fill="#ffd876"/>
        <path id="Path_1917" data-name="Path 1917" d="M189.73,186.6s1.447,22.867,1.6,42.16-.692,42.625-.692,42.625a10.355,10.355,0,0,1,4.556-1.2c2.379.025,6.141.378,6.141.378s-.453-26.932-2.4-48.289-9.187-35.678-9.187-35.678Z" transform="translate(-138.18 -76.758)" fill="#ffd876"/>
        <path id="Path_1918" data-name="Path 1918" d="M184.4,103.656a1.425,1.425,0,0,0-1.258-1.926,1.274,1.274,0,0,0-1.284,1.523,1.469,1.469,0,0,0-1.258,1.812,1.529,1.529,0,0,0,2.454.868,1.452,1.452,0,0,0,2.4,0,1.529,1.529,0,0,0-1.032-2.265Z" transform="translate(-140.552 -98.696)" fill="#ffe9b8"/>
        <path id="Path_1919" data-name="Path 1919" d="M175.922,106.806a1.435,1.435,0,0,0-1.548-1.712,1.276,1.276,0,0,0-1.032,1.7,1.485,1.485,0,0,0-.969,1.988,1.53,1.53,0,0,0,2.555.478,1.45,1.45,0,0,0,2.366-.378c.491-1.032-.4-1.913-1.384-2.077Z" transform="translate(-142.696 -97.832)" fill="#ffd876"/>
        <path id="Path_1920" data-name="Path 1920" d="M175.893,104.508a1.433,1.433,0,0,0-1.523,1.724,1.28,1.28,0,0,0,1.812.831,1.48,1.48,0,0,0,2.089.73,1.532,1.532,0,0,0,.189-2.593,1.441,1.441,0,0,0-.654-2.3c-1.082-.378-1.863.629-1.9,1.611Z" transform="translate(-142.163 -98.416)" fill="#ffe9b8"/>
        <path id="Path_1921" data-name="Path 1921" d="M180.227,103.335a1.433,1.433,0,0,0-2.253-.491,1.281,1.281,0,0,0,.151,1.988,1.469,1.469,0,0,0,.378,2.177,1.526,1.526,0,0,0,2.353-1.095c.969.038,1.913-.491,1.7-1.686a1.544,1.544,0,0,0-2.328-.894Z" transform="translate(-141.324 -98.502)" fill="#ffd876"/>
        <path id="Path_1922" data-name="Path 1922" d="M179.487,116.493c-.591.277-1.258,1.636-1.913,1.774a1.648,1.648,0,0,0,.063,1.875c.906.944,1.51,1.812,1.208,2.467a2.593,2.593,0,0,1-1.208,1.032s2.542,1.007,3.1-1.032c.654-2.416-1.963-2.806-1.246-6.129Z" transform="translate(-141.39 -94.883)" fill="#35373a"/>
        <path id="Path_1923" data-name="Path 1923" d="M173.488,128.59s-2.655.151-5.525,3.234c-1.875,2.014-2.92,5.273,0,12.358,2.253,5.462,4.682,7.715,6.934,13.327,1.271,3.159,2.869,8.734,8.822,14.875,4.971,5.122,14.813,11.729,14.813,11.729l.755-5.273s-8.369-11.05-10.7-14.02c-3.121-3.964-5.978-6.834-7.249-11.717-1.435-5.525-4.279-19.607-7.853-24.516Z" transform="translate(-144.277 -91.753)" fill="#ffc4b2"/>
        <path id="Path_1924" data-name="Path 1924" d="M192.632,141.35s4.442,8.91,4.442,15.429.113,20.123.113,20.123l-4.14-1.359s-3.31-20.576-2.681-25.308A32.947,32.947,0,0,1,192.632,141.35Z" transform="translate(-138.036 -88.455)" fill="#ff9f8c"/>
      </g>
      <g id="Group_1767" data-name="Group 1767" transform="translate(45.132 68.923)">
        <path id="Path_1925" data-name="Path 1925" d="M189.6,163.971s-3.385,1.422-3.775,4.631c-.289,2.416.642,3.184.642,3.184s-1.976,2.555-.327,4.82,5.663,1.12,5.663,1.12a3.453,3.453,0,0,0,3.7,3.083,3.661,3.661,0,0,0,3.7-3.083s3.234,3.411,6.028,1.057a4.918,4.918,0,0,0,1.384-5.575s3.75.478,4.329-1.863c.906-3.7-2.706-5.563-2.706-5.563s3.083-3.4.982-6.242a5.291,5.291,0,0,0-5.575-1.774s-5.374-3.1-9.338-1.812-4.694,8.017-4.694,8.017Z" transform="translate(-184.411 -153.683)" fill="#b7e2f7"/>
        <path id="Path_1926" data-name="Path 1926" d="M198.893,156.877s3.851-2.379,7.022,0,.642,8.47.642,8.47-.227-5.235-3.209-6.431a6.325,6.325,0,0,0-5.248.113l.793-2.152Z" transform="translate(-181.148 -153.637)" fill="#a3cee8"/>
        <path id="Path_1927" data-name="Path 1927" d="M196.38,174.118s3.624,4.078,6.859,2.039.541-6.557.541-6.557.566,3.385-2.1,4.518a7.364,7.364,0,0,1-5.3,0Z" transform="translate(-181.593 -150.075)" fill="#a3cee8"/>
        <path id="Path_1928" data-name="Path 1928" d="M187.789,162.26s-3.159,2.806-3.159,5.286.944,3.222.944,3.222-1.649,2.58.126,4.644,6.318.6,6.318.6-3.989-.566-4.782-2.492.025-2.769.025-2.769-1.686-4.241,1.07-6.645c1.724-1.5-.554-1.85-.554-1.85Z" transform="translate(-184.63 -151.972)" fill="#a3cee8"/>
        <path id="Path_1929" data-name="Path 1929" d="M208.582,163.411c-.038-1.258-1.019-1.649-2.089-1.611a2.292,2.292,0,0,0-2.064-2.517,2.536,2.536,0,0,0-2.58,1.535c-.642-1.019-1.649-1.812-2.718-.831-1.208,1.107-.34,2.655.68,3.788a2.175,2.175,0,0,0-1.661,2.58c.315,1.712,1.951,1.888,3.3,1.4.44,1.435,1.422,2.907,3.046,2.618,1.926-.34,2.177-2.177,1.737-3.738a3.378,3.378,0,0,0,2.341-3.222Z" transform="translate(-181.147 -152.746)" fill="#ea6a91"/>
        <path id="Path_1930" data-name="Path 1930" d="M196.239,163.391c.34-1.221-.491-1.875-1.523-2.152a2.286,2.286,0,0,0-1.233-3.008,2.547,2.547,0,0,0-2.92.7c-.315-1.158-1.045-2.215-2.353-1.6-1.485.692-1.107,2.429-.466,3.813a2.156,2.156,0,0,0-2.341,1.976c-.2,1.724,1.309,2.379,2.744,2.3,0,1.5.516,3.2,2.139,3.4,1.938.252,2.718-1.435,2.756-3.058a3.372,3.372,0,0,0,3.184-2.391Z" transform="translate(-184.435 -153.292)" fill="#ea6a91"/>
        <path id="Path_1931" data-name="Path 1931" d="M198,171.181c.34-1.221-.491-1.875-1.523-2.152a2.286,2.286,0,0,0-1.233-3.008,2.547,2.547,0,0,0-2.92.7c-.315-1.158-1.045-2.215-2.353-1.6-1.485.692-1.107,2.429-.466,3.813a2.156,2.156,0,0,0-2.341,1.976c-.2,1.724,1.309,2.379,2.744,2.3,0,1.5.516,3.2,2.139,3.4,1.938.252,2.718-1.435,2.756-3.058a3.372,3.372,0,0,0,3.184-2.391Z" transform="translate(-183.98 -151.278)" fill="#ea6a91"/>
        <path id="Path_1932" data-name="Path 1932" d="M206.059,170.6c.34-1.221-.491-1.875-1.523-2.152a2.286,2.286,0,0,0-1.233-3.008,2.547,2.547,0,0,0-2.92.7c-.315-1.158-1.045-2.215-2.353-1.6-1.485.692-1.107,2.429-.466,3.813a2.156,2.156,0,0,0-2.341,1.976c-.2,1.724,1.309,2.379,2.744,2.3,0,1.5.516,3.2,2.139,3.4,1.938.252,2.718-1.435,2.756-3.058a3.372,3.372,0,0,0,3.184-2.391Z" transform="translate(-181.896 -151.428)" fill="#ffabc5"/>
        <path id="Path_1933" data-name="Path 1933" d="M201.719,165.951c.34-1.221-.491-1.875-1.523-2.152a2.286,2.286,0,0,0-1.233-3.008,2.547,2.547,0,0,0-2.92.7c-.315-1.158-1.045-2.215-2.353-1.6-1.485.692-1.107,2.429-.466,3.813a2.156,2.156,0,0,0-2.341,1.976c-.2,1.724,1.309,2.379,2.744,2.3,0,1.5.516,3.2,2.139,3.4,1.938.252,2.718-1.435,2.756-3.058a3.372,3.372,0,0,0,3.184-2.391Z" transform="translate(-183.018 -152.63)" fill="#fa8baa"/>
        <path id="Path_1934" data-name="Path 1934" d="M203.339,160.321c.34-1.221-.491-1.875-1.523-2.152a2.286,2.286,0,0,0-1.233-3.008,2.547,2.547,0,0,0-2.92.7c-.315-1.158-1.045-2.215-2.353-1.6-1.485.692-1.107,2.429-.466,3.813a2.156,2.156,0,0,0-2.341,1.976c-.2,1.724,1.309,2.379,2.744,2.3,0,1.5.516,3.2,2.139,3.4,1.938.252,2.718-1.435,2.756-3.058a3.373,3.373,0,0,0,3.184-2.391Z" transform="translate(-182.599 -154.086)" fill="#ffabc5"/>
        <path id="Path_1935" data-name="Path 1935" d="M194.818,162.972c-1.246.566-.315,3.776,1.422,2.5S196.063,162.406,194.818,162.972Z" transform="translate(-182.144 -151.816)" fill="#ea6a91"/>
        <path id="Path_1936" data-name="Path 1936" d="M197.083,156.661c-1.435-.113-1.837,2.731,0,2.605S198.518,156.774,197.083,156.661Z" transform="translate(-181.729 -153.421)" fill="#ea6a91"/>
        <path id="Path_1937" data-name="Path 1937" d="M199.006,168.186c-.944.956.755,3.322,1.888,1.863A1.333,1.333,0,0,0,199.006,168.186Z" transform="translate(-180.985 -150.523)" fill="#ea6a91"/>
        <path id="Path_1938" data-name="Path 1938" d="M189.984,160.621c-1.435-.113-1.85,2.844,0,2.832S191.419,160.734,189.984,160.621Z" transform="translate(-183.566 -152.397)" fill="#fa8baa"/>
        <path id="Path_1939" data-name="Path 1939" d="M202.524,162.261c-1.435-.113-1.85,2.844,0,2.832S203.959,162.374,202.524,162.261Z" transform="translate(-180.324 -151.973)" fill="#fa8baa"/>
        <path id="Path_1940" data-name="Path 1940" d="M191.734,168.471c-1.435-.113-1.85,2.844,0,2.832S193.169,168.584,191.734,168.471Z" transform="translate(-183.113 -150.368)" fill="#fa8baa"/>
      </g>
    </g>
  </g>
</svg>
