<svg id="Layer_2" data-name="Layer 2" xmlns="http://www.w3.org/2000/svg" xmlns:xlink="http://www.w3.org/1999/xlink" width="177.618" height="335.222" viewBox="0 0 177.618 335.222">
  <defs>
    <clipPath id="clip-path">
      <path id="Path_4477" data-name="Path 4477" d="M40.8,93.8l1.216.127a1.032,1.032,0,0,1-.82-.707L39.98,93.09A.987.987,0,0,0,40.8,93.8Z" transform="translate(-39.98 -93.09)" fill="#bfbeed"/>
    </clipPath>
    <clipPath id="clip-path-2">
      <path id="Path_4480" data-name="Path 4480" d="M40.763,72.168l-1.216-.127a.823.823,0,0,0-.537.127l1.216.127A.969.969,0,0,1,40.763,72.168Z" transform="translate(-39.01 -72.038)" fill="#bfbeed"/>
    </clipPath>
    <clipPath id="clip-path-3">
      <path id="Path_4485" data-name="Path 4485" d="M47.754,76.017l-1.216-.127a1.468,1.468,0,0,0-.551,1.7l1.216.127A1.437,1.437,0,0,1,47.754,76.017Z" transform="translate(-45.91 -75.89)" fill="#bfbeed"/>
    </clipPath>
  </defs>
  <g id="Group_3635" data-name="Group 3635" transform="translate(0)">
    <g id="Group_3632" data-name="Group 3632">
      <g id="Group_3629" data-name="Group 3629" transform="translate(0)">
        <path id="Path_4425" data-name="Path 4425" d="M153.418,229.349V8.789c0-7.295-5.117-10.249-11.437-6.6L63.99,47.213a16.838,16.838,0,0,0-7.62,13.2v220.56c0,7.295,5.117,10.249,11.437,6.6l78.006-45.025a16.838,16.838,0,0,0,7.62-13.2Z" transform="translate(-55.494 0.258)" fill="#1d6c9e"/>
        <path id="Path_4426" data-name="Path 4426" d="M68.5,288.6,146.5,243.575c4.439-2.573,8.058-8.835,8.058-13.967V9.047c0-5.5-2.827-9.047-7.21-9.047a11.116,11.116,0,0,0-5.542,1.682L63.818,46.708c-4.439,2.573-8.058,8.835-8.058,13.967v220.56c0,5.5,2.827,9.047,7.21,9.047h0a11.116,11.116,0,0,0,5.542-1.682Zm84.3-279.552v220.56a15.9,15.9,0,0,1-7.181,12.44L67.606,287.073a9.586,9.586,0,0,1-4.665,1.442c-3.365,0-5.443-2.785-5.443-7.28V60.675a15.919,15.919,0,0,1,7.181-12.44L142.686,3.209a9.586,9.586,0,0,1,4.665-1.442c3.365,0,5.443,2.785,5.443,7.28Z" transform="translate(-55.76 0)" fill="#1d6c9e"/>
      </g>
      <g id="Group_3630" data-name="Group 3630" transform="translate(7.012 2.644)">
        <path id="Path_4427" data-name="Path 4427" d="M148.462,231.219V10.659c0-7.295-5.117-10.249-11.437-6.6L59.02,49.1A16.838,16.838,0,0,0,51.4,62.3v220.56c0,7.294,5.117,10.249,11.437,6.6l77.992-45.025a16.838,16.838,0,0,0,7.62-13.2Z" transform="translate(-50.509 -1.612)" fill="#288cd2"/>
        <path id="Path_4428" data-name="Path 4428" d="M63.555,290.47l77.992-45.025c4.439-2.573,8.058-8.835,8.058-13.967V10.917c0-5.5-2.827-9.047-7.21-9.047a11.116,11.116,0,0,0-5.542,1.682L58.848,48.592c-4.439,2.573-8.058,8.835-8.058,13.967v220.56c0,5.5,2.827,9.047,7.21,9.047h0a11.116,11.116,0,0,0,5.542-1.682Zm84.3-279.552v220.56a15.919,15.919,0,0,1-7.181,12.44L62.679,288.943a9.587,9.587,0,0,1-4.665,1.442c-3.365,0-5.443-2.785-5.443-7.28V62.545A15.919,15.919,0,0,1,59.753,50.1L137.745,5.065a9.586,9.586,0,0,1,4.665-1.442c3.365,0,5.443,2.785,5.443,7.28Z" transform="translate(-50.79 -1.87)" fill="#1d6c9e"/>
      </g>
      <g id="Group_3631" data-name="Group 3631" transform="translate(19.608 44.799)">
        <path id="Path_4429" data-name="Path 4429" d="M58.96,72.341,132.739,32.73v159.6L58.96,235.605Z" transform="translate(-58.069 -31.26)" fill="#fff"/>
        <path id="Path_4430" data-name="Path 4430" d="M133.886,193.258V31.69L58.34,72.234V237.562l75.546-44.3ZM132.119,34.63V192.254l-72.026,42.24V73.294Z" transform="translate(-58.34 -31.69)" fill="#1d6c9e"/>
      </g>
      <path id="Path_4431" data-name="Path 4431" d="M55.913.05s8.51,1.032,10.857,5.132l-4.1-2.05L52.11,5.62Z" transform="translate(37.191 0.021)" fill="#1d6c9e"/>
      <path id="Path_4432" data-name="Path 4432" d="M115.2,205.79s6.376,5.5,12.214,4.4l-3.633-1.428-6.715-9.019Z" transform="translate(-112.641 82.626)" fill="#1d6c9e"/>
      <path id="Path_4433" data-name="Path 4433" d="M89.62,30.978c0-2.559-1.809-3.6-4.043-2.3a8.919,8.919,0,0,0-4.057,6.984c0,2.573,1.809,3.6,4.057,2.3a8.926,8.926,0,0,0,4.043-6.984Z" transform="translate(-27.235 11.63)" fill="#1d6c9e"/>
    </g>
    <g id="Group_3634" data-name="Group 3634" transform="translate(28.302 95.635)">
      <path id="Path_4434" data-name="Path 4434" d="M94.75,112.087l14.829-8.567V86.5L94.75,95.067Zm12.016-10.178-9.189,5.3V96.678l9.189-5.3v10.546Z" transform="translate(-94.199 -59.852)" fill="#333"/>
      <path id="Path_4435" data-name="Path 4435" d="M76.38,132.316l7.068-4.071V95.207l-4.411,2.545V77.89L76.21,79.53v23.1l4.411-2.545v26.549l-4.241,2.446Z" transform="translate(-41.858 -63.414)" fill="#333"/>
      <path id="Path_4436" data-name="Path 4436" d="M96.7,113.436v23.1l4.425-2.559v12.1l2.827-1.64V129.1l-4.425,2.559V111.81Z" transform="translate(-91.328 -49.383)" fill="#333"/>
      <path id="Path_4437" data-name="Path 4437" d="M75.96,86.759l9.882-5.711V77.81L75.96,83.521Z" transform="translate(-43.898 -63.447)" fill="#333"/>
      <path id="Path_4438" data-name="Path 4438" d="M75.96,89l5.824-3.365V82.4L75.96,85.765Z" transform="translate(-39.841 -61.548)" fill="#333"/>
      <g id="Group_3633" data-name="Group 3633" transform="translate(46.722)">
        <path id="Path_4439" data-name="Path 4439" d="M62.09,93.237l14.829-8.567V67.65L62.09,76.217Zm12-10.178L64.9,88.36V77.828l9.189-5.3Z" transform="translate(-62.09 -67.65)" fill="#333"/>
        <path id="Path_4440" data-name="Path 4440" d="M69.207,74.86,66.38,76.486v3.251l2.827-1.64Z" transform="translate(-60.443 -64.667)" fill="#333"/>
      </g>
      <path id="Path_4441" data-name="Path 4441" d="M62.09,128.317l14.829-8.567V102.73L62.09,111.3Zm12-10.178-9.189,5.3V112.894l9.189-5.3Z" transform="translate(-15.368 -53.139)" fill="#333"/>
      <path id="Path_4442" data-name="Path 4442" d="M69.207,109.94l-2.827,1.626v3.251l2.827-1.64Z" transform="translate(-13.721 -50.156)" fill="#333"/>
      <path id="Path_4443" data-name="Path 4443" d="M93.067,91.17,90.24,92.8v3.251l2.827-1.64Z" transform="translate(-71.311 -57.921)" fill="#333"/>
      <path id="Path_4444" data-name="Path 4444" d="M104.147,104.88l-2.827,1.626v3.237l2.827-1.626Z" transform="translate(-98.054 -52.249)" fill="#333"/>
      <path id="Path_4445" data-name="Path 4445" d="M71.227,85.87,68.4,87.5v3.251l2.827-1.64Z" transform="translate(-18.597 -60.113)" fill="#333"/>
      <path id="Path_4446" data-name="Path 4446" d="M82.1,102.18l-2.827,1.64v3.237l2.827-1.626Z" transform="translate(-44.833 -53.366)" fill="#333"/>
      <path id="Path_4447" data-name="Path 4447" d="M86.353,110.38l-2.813,1.64v3.237l2.813-1.64Z" transform="translate(-55.125 -49.974)" fill="#333"/>
      <path id="Path_4448" data-name="Path 4448" d="M97.857,105.45l-2.827,1.64v3.237l2.827-1.626Z" transform="translate(-82.872 -52.013)" fill="#333"/>
      <path id="Path_4449" data-name="Path 4449" d="M88.947,126.69l-2.827,1.626v3.251l2.827-1.64Z" transform="translate(-61.367 -43.227)" fill="#333"/>
      <path id="Path_4450" data-name="Path 4450" d="M92.087,102.22l-2.827,1.626v3.237l2.827-1.626Z" transform="translate(-68.946 -53.35)" fill="#333"/>
      <path id="Path_4451" data-name="Path 4451" d="M97.777,100.98l-2.827,1.64v3.237l2.827-1.626Z" transform="translate(-82.679 -53.863)" fill="#333"/>
      <path id="Path_4452" data-name="Path 4452" d="M105.707,113.45l-2.827,1.626v3.251l2.827-1.626Z" transform="translate(-101.82 -48.704)" fill="#333"/>
      <path id="Path_4453" data-name="Path 4453" d="M69.167,100.93l-2.827,1.626v3.251l2.827-1.64Z" transform="translate(-13.624 -53.883)" fill="#333"/>
      <path id="Path_4454" data-name="Path 4454" d="M102.027,93.81,99.2,95.436v3.237l2.827-1.626Z" transform="translate(-92.937 -56.828)" fill="#333"/>
      <path id="Path_4455" data-name="Path 4455" d="M83.62,130.338l2.714-1.569v-15l-2.714,1.569Z" transform="translate(-55.219 -48.572)" fill="#333"/>
      <path id="Path_4456" data-name="Path 4456" d="M89.01,113.159v3.11l13.076-7.549v-3.11Z" transform="translate(-78.591 -51.947)" fill="#333"/>
      <path id="Path_4457" data-name="Path 4457" d="M85.76,119.173l2.559-1.484.014-26.549L85.76,92.624Z" transform="translate(-60.243 -57.933)" fill="#333"/>
      <path id="Path_4458" data-name="Path 4458" d="M62.28,88.685l5.641-3.266V82.38L62.28,85.646Z" transform="translate(-6.638 -61.557)" fill="#333"/>
      <path id="Path_4459" data-name="Path 4459" d="M77.46,102.185l5.655-3.266V95.88L77.46,99.131Z" transform="translate(-43.292 -55.972)" fill="#333"/>
      <path id="Path_4460" data-name="Path 4460" d="M65.9,98.011l5.655-3.266V91.72L65.9,94.971Z" transform="translate(-15.39 -57.693)" fill="#333"/>
      <path id="Path_4461" data-name="Path 4461" d="M62.09,91.117v6.489l2.644-1.541V89.59Z" transform="translate(-3.183 -58.574)" fill="#333"/>
      <path id="Path_4462" data-name="Path 4462" d="M72.58,99.6l3.011-1.739V88.33L72.58,90.069Z" transform="translate(-28.869 -59.095)" fill="#333"/>
      <path id="Path_4463" data-name="Path 4463" d="M86.93,100.982v3.449l8.312-4.806V96.19Z" transform="translate(-68.807 -55.844)" fill="#333"/>
      <path id="Path_4464" data-name="Path 4464" d="M100.09,122.644v3.449l7.832-4.524V118.12Z" transform="translate(-100.09 -46.772)" fill="#333"/>
      <path id="Path_4465" data-name="Path 4465" d="M84.39,90.122v3.449l8.3-4.792V85.33Z" transform="translate(-62.662 -60.336)" fill="#333"/>
      <path id="Path_4466" data-name="Path 4466" d="M99.72,138.922v3.449l8.3-4.792V134.13Z" transform="translate(-99.663 -40.149)" fill="#333"/>
      <path id="Path_4467" data-name="Path 4467" d="M88.64,130.817v3.449l13.133-7.577V123.24Z" transform="translate(-77.755 -44.654)" fill="#333"/>
      <path id="Path_4468" data-name="Path 4468" d="M86.39,86.542v3.449l8.3-4.792V81.75Z" transform="translate(-67.489 -61.817)" fill="#333"/>
      <path id="Path_4469" data-name="Path 4469" d="M77.4,126.182v3.449l8.3-4.792V121.39Z" transform="translate(-45.79 -45.42)" fill="#333"/>
      <path id="Path_4470" data-name="Path 4470" d="M92.39,125.363l3-1.739V114.11l-3,1.725Z" transform="translate(-76.67 -48.431)" fill="#333"/>
      <path id="Path_4471" data-name="Path 4471" d="M103.51,131.683l3-1.725V120.43l-3,1.725Z" transform="translate(-103.51 -45.817)" fill="#333"/>
      <path id="Path_4472" data-name="Path 4472" d="M63.9,107.11l15.282-8.821V95.15L63.9,103.971Z" transform="translate(-20.189 -56.274)" fill="#333"/>
    </g>
    <path id="Path_4473" data-name="Path 4473" d="M58.96,74.575l71.348-38.438V193.153l2.022-.82V32.73L59.61,71.648Z" transform="translate(-38.052 13.539)" fill="#1d6c9e"/>
  </g>
  <g id="Group_3643" data-name="Group 3643" transform="translate(110.882 77.979)">
    <path id="Path_4474" data-name="Path 4474" d="M47.422,105.124c.17-.594-8.963-7.238-13.6-10.829a18.376,18.376,0,0,1-4.552-6.234c-1-2.983-.919-3.774-2.743-4.877a10.958,10.958,0,0,1-2.29-2.135,4.831,4.831,0,0,0-2.672-1.5,6.755,6.755,0,0,0-3.223.226.806.806,0,0,0-.438.254.975.975,0,0,0-.113.452c-.014.368-.042.735-.057,1.1a1.12,1.12,0,0,0,.184.834,1.022,1.022,0,0,0,.664.254,12.715,12.715,0,0,0,1.64-.057,3.134,3.134,0,0,1,1.612.254c.311.156-.071.778-.127,1.089-.1.537,0,.693-.4.9a1.636,1.636,0,0,0-.721.975,8.17,8.17,0,0,0-.184,3.746,10.364,10.364,0,0,0,.9,3.916c.735,1.343,2.12,3.619,3.393,4.411C26.74,99.2,40.015,114.6,40.849,114.991c1.159.551,5.81-7.167,6.588-9.867Z" transform="translate(-5.755 -45.115)" fill="#ffbc99"/>
    <g id="Group_3642" data-name="Group 3642" transform="translate(0 23.858)">
      <g id="Group_3637" data-name="Group 3637" transform="translate(8.191 29.761)">
        <path id="Path_4475" data-name="Path 4475" d="M40.8,93.8l1.216.127a1.032,1.032,0,0,1-.82-.707L39.98,93.09A.987.987,0,0,0,40.8,93.8Z" transform="translate(-39.98 -93.09)" fill="#bfbeed"/>
        <g id="Group_3636" data-name="Group 3636" clip-path="url(#clip-path)">
          <path id="Path_4476" data-name="Path 4476" d="M41.186,93.207,39.97,93.08a.987.987,0,0,0,.82.707l1.216.127a1.032,1.032,0,0,1-.82-.707Z" transform="translate(-39.956 -93.094)" fill="#bfbeed"/>
        </g>
      </g>
      <g id="Group_3639" data-name="Group 3639" transform="translate(9.845)">
        <path id="Path_4478" data-name="Path 4478" d="M40.763,72.168l-1.216-.127a.823.823,0,0,0-.537.127l1.216.127A.969.969,0,0,1,40.763,72.168Z" transform="translate(-39.01 -72.038)" fill="#bfbeed"/>
        <g id="Group_3638" data-name="Group 3638" clip-path="url(#clip-path-2)">
          <path id="Path_4479" data-name="Path 4479" d="M40.763,72.168l-1.216-.127a.823.823,0,0,0-.537.127l1.216.127a.969.969,0,0,1,.537-.127Z" transform="translate(-39.01 -72.038)" fill="#bfbeed"/>
        </g>
      </g>
      <path id="Path_4481" data-name="Path 4481" d="M49.823,72.261l-1.216-.141L39.39,77.45l1.216.127Z" transform="translate(-38.762 -72.004)" fill="#bfbeed"/>
      <path id="Path_4482" data-name="Path 4482" d="M41.78,77.217l-1.23-.127,8.114,22.6,1.23.127Z" transform="translate(-40.473 -69.948)" fill="#bfbeed"/>
      <g id="Group_3641" data-name="Group 3641" transform="translate(0 5.446)">
        <path id="Path_4483" data-name="Path 4483" d="M47.754,76.017l-1.216-.127a1.468,1.468,0,0,0-.551,1.7l1.216.127A1.437,1.437,0,0,1,47.754,76.017Z" transform="translate(-45.91 -75.89)" fill="#bfbeed"/>
        <g id="Group_3640" data-name="Group 3640" clip-path="url(#clip-path-3)">
          <path id="Path_4484" data-name="Path 4484" d="M47.754,76.017l-1.216-.127a1.468,1.468,0,0,0-.551,1.7l1.216.127a1.437,1.437,0,0,1,.551-1.7Z" transform="translate(-45.91 -75.89)" fill="#bfbeed"/>
        </g>
      </g>
      <path id="Path_4486" data-name="Path 4486" d="M32.717,79.268l8.114,22.619a.932.932,0,0,0,1.357.594l9.217-5.315a1.468,1.468,0,0,0,.551-1.7L43.842,72.85a.932.932,0,0,0-1.357-.594L40.322,73.5l-.226.127-4.679,2.7-.339.2-1.824,1.046a1.468,1.468,0,0,0-.551,1.7Z" transform="translate(-31.41 -71.998)" fill="#288cd2"/>
      <path id="Path_4487" data-name="Path 4487" d="M33.242,77.572l1.824-1.046.339-.2,4.679-2.7.226-.127,2.163-1.244a.932.932,0,0,1,1.357.594l8.114,22.619a1.437,1.437,0,0,1-.551,1.7l-9.217,5.315a.932.932,0,0,1-1.357-.594L32.7,79.268a1.437,1.437,0,0,1,.551-1.7Zm-.41,1.64,7.719,21.53a.86.86,0,0,0,.778.622.791.791,0,0,0,.382-.113l9.217-5.315a1.3,1.3,0,0,0,.481-1.527l-7.719-21.53a.86.86,0,0,0-.778-.622.791.791,0,0,0-.382.113L40.141,73.74l-4.679,2.7-.339.2L33.3,77.685a1.315,1.315,0,0,0-.481,1.527Z" transform="translate(-31.398 -71.998)" fill="#edecf8"/>
    </g>
    <path id="Path_4488" data-name="Path 4488" d="M31.334,84.6c1.258,1,1.824,1.428,2.092,1.7a1.2,1.2,0,0,1,.269.339c.028.071.057.156.1.269,1.159,3.647.565,3.746.9,5.16A2.484,2.484,0,0,0,37.921,93.5c2.248-.735,3.011-4.3-.368-7.648-.41-.4-.806-.806-1.216-1.2a6.317,6.317,0,0,0-.862-.876,16.444,16.444,0,0,0-2.29-1.286c-.424-.2-.806-.353-1.173-.537a1.7,1.7,0,0,0-.961-.17c-1.032.127-1.6,1.315.269,2.813Z" transform="translate(-15.65 -44.153)" fill="#fac8ad"/>
    <path id="Path_4489" data-name="Path 4489" d="M14.765,222.017a9.928,9.928,0,0,1-.452,3.195,12.14,12.14,0,0,0-.212,1.894,2.6,2.6,0,0,1-.551,1.555,2.023,2.023,0,0,1-1.216.679,9.505,9.505,0,0,1-2.757.113c-.735,0-1.385-.071-1.6-.891a11.714,11.714,0,0,1,.028-2.813,7.3,7.3,0,0,1,0-2.149c.41-1.032,2.573-1.555,3.478-1.951.565-.24,1.8-.3,2.149-.834.551-.848,1.046.608,1.131,1.2Z" transform="translate(40.798 13.258)" fill="#1d6c9e"/>
    <path id="Path_4490" data-name="Path 4490" d="M14.982,230.26a9.521,9.521,0,0,1-.311,1.4,20.614,20.614,0,0,1-1.824,4.4,2.613,2.613,0,0,1-1,1.23,14.714,14.714,0,0,1-1.894.594c-.353.113-.707.438-1.06.523a2.815,2.815,0,0,0-.848.254,6.964,6.964,0,0,1-.82.269,1.629,1.629,0,0,0-1.074,1.131,4.424,4.424,0,0,0,.028,1.145,1.207,1.207,0,0,0,.523,1.117A4.789,4.789,0,0,0,8.9,243.8a8.841,8.841,0,0,0,1.06,0c2.686,0,4.679-1.018,6.984-2.3a62.917,62.917,0,0,0,6.5-3.732c.622-.452,1.343-.707,1.951-1.159.311-.24.325-.226.339-.636a3.971,3.971,0,0,0-.565-1.668,5.8,5.8,0,0,1-.636-2.827,21.71,21.71,0,0,1,.156-3.577,28.388,28.388,0,0,1,1.555-5.5c.368-.919.834-1.781,1.159-2.714.424-1.216,1.018-2.417,1.357-3.647a29.123,29.123,0,0,0,.848-4.085,41.309,41.309,0,0,0,.269-8.256,95.708,95.708,0,0,0-2.318-14.278,13.333,13.333,0,0,1-.551-3.647c.042-.792.4-1.513.452-2.3.212-2.488-1.089-4.962-1.244-7.436-.1-1.6-.028-3.393-.933-4.806-1.612-2.516-5.344-2.87-8.03-1.569a13.684,13.684,0,0,0-5.245,4.58c-1.23,1.852-1.343,4.58-1.47,6.771a66.865,66.865,0,0,0,.057,8.072c.438,6.432,1.8,12.765,2.757,19.127.339,2.262.58,4.538.876,6.8.254,2.036.679,4.071.848,6.135.127,1.513.085,3.039.085,4.552a30.589,30.589,0,0,1-.212,4.552Z" transform="translate(28.127 -8.104)" fill="#f3a984"/>
    <path id="Path_4491" data-name="Path 4491" d="M29.222,216.1a2.592,2.592,0,0,1,.537.565,10.347,10.347,0,0,1,1.5,4.17,5.181,5.181,0,0,1-1.329,4.623,4.92,4.92,0,0,1-3.181,1.442,16.191,16.191,0,0,1-4.467-.834,9.139,9.139,0,0,0-4.057.042c-.594.141-1.145.226-1.739.424a8.064,8.064,0,0,1-1.979.467,9.432,9.432,0,0,1-4.184-.99,4.576,4.576,0,0,1-2.248-2.3,6.831,6.831,0,0,1-.834-3.562,3.077,3.077,0,0,1,.212-.806,3.814,3.814,0,0,1,.509-1.018c1-1.159,2.686-1.117,4.085-.933a12.842,12.842,0,0,1,2.658.537c-.848.382-1.8.3-1.979,1.3-.551,2.884,3.478,3.11,5.245,2.8a15.035,15.035,0,0,0,5.428-2.262c1.3-.834,2.205-2.248,3.407-3.237.82-.679,1.668-.933,2.4-.41Z" transform="translate(25.197 11.304)" fill="#288cd2"/>
    <path id="Path_4492" data-name="Path 4492" d="M21.228,250.118a43.353,43.353,0,0,0,4.241-6.036c1.272-2.149.537-5.542.24-7.86-.749-5.669-1.626-11.267-2.743-16.879a73.692,73.692,0,0,1-1.583-11.55c-.24-5.485.2-10.829-.622-16.285a27.984,27.984,0,0,1,.085-5.1c.028-1.315-.113-2.644-.17-3.958-.014-.424.127-3.8-.113-3.916l13.02,7.393c1.527.4,2.375,2.078,2.926,3.6a45.771,45.771,0,0,1,2.5,13.3c.226,4.425.679,8.708.042,13.133-.565,3.888-1.216,7.747-1.866,11.62-.608,3.6-1.583,7.464-1.173,11.154a13.834,13.834,0,0,0,1.329,4.92c.325.608,1.018,1.1,1.187,1.739-1.3.325-2.05,1.513-3.068,2.262s-2.29.99-3.365,1.626a15.807,15.807,0,0,0-2.333,1.767,25.017,25.017,0,0,0-1.979,1.654c-.636.664-1.089,1.428-1.8,2.036a9.737,9.737,0,0,1-2.29,1.47,4.049,4.049,0,0,1-3.661.184,2.679,2.679,0,0,1-1.06-3.138c.3-1.187,1.484-2.234,2.262-3.124Z" transform="translate(0.704 -4.127)" fill="#ffc7ad"/>
    <path id="Path_4493" data-name="Path 4493" d="M25.463,230.287c-.113,2.587-.042,5.231-.269,7.8-.085,1.018,0,1.357-1.06,1.739-1.583.58-4.326.792-5.344-.876-.749-1.216-.339-3.336-.424-4.708-.042-.891-.481-2.4-.184-3.237.325-.933,2.092-.65,3.11-.891a11.544,11.544,0,0,1,2.375-.537,3.153,3.153,0,0,1,1.8.707Z" transform="translate(15.723 16.99)" fill="#1d6c9e"/>
    <path id="Path_4494" data-name="Path 4494" d="M37.745,226.442a8.466,8.466,0,0,1,.961-.608,4.8,4.8,0,0,1,.961-.41,2.073,2.073,0,0,1,.975-.127,2.6,2.6,0,0,1,1.555,1.117,12.291,12.291,0,0,1,1.541,3.633,9.481,9.481,0,0,1-.057,4.5,3.918,3.918,0,0,1-3.025,2.573,11.52,11.52,0,0,1-3.195-.014,9.113,9.113,0,0,0-4.043.368,6.96,6.96,0,0,0-.749.311,20.769,20.769,0,0,1-2.333.961,18.941,18.941,0,0,1-2.177.778,9.947,9.947,0,0,1-6.192-.792,7.978,7.978,0,0,1-2.417-1.428,5.945,5.945,0,0,1-1.654-2.714,4.761,4.761,0,0,1,.4-3.9A3.559,3.559,0,0,1,21.3,229.4a13.731,13.731,0,0,1,1.654.339,12.305,12.305,0,0,1,1.753.467c-.41.933-1.315,1.64-1.682,2.644a1.884,1.884,0,0,0,.565,1.979c.467.523,1.5.466,2.135.382a19.292,19.292,0,0,0,4.905-2.417c1.117-.99,2.191-1.965,3.209-3.054a26.523,26.523,0,0,1,3.93-3.294Z" transform="translate(-2.213 15.209)" fill="#288cd2"/>
    <path id="Path_4495" data-name="Path 4495" d="M32.007,88.381a4.448,4.448,0,0,1-.664,5.132,10.65,10.65,0,0,1-4.849,3.463,19.391,19.391,0,0,1-15.3-.834,6.69,6.69,0,0,0-1.513-.622,1.717,1.717,0,0,0-1.541.353c-.071-1.216.99-2.163,1.894-2.785a5.248,5.248,0,0,1,3.449-.495,28.873,28.873,0,0,0,7.8-.4,16.406,16.406,0,0,0,6.277-2.672c.806-.594,1.654-1.074,1.965-2.092.028-.1.254-1.2.057-1.244a3.849,3.849,0,0,1,2.4,2.219Z" transform="translate(22.708 -42.325)" fill="#fff8f5"/>
    <path id="Path_4496" data-name="Path 4496" d="M47.176,110.422a50.544,50.544,0,0,0,2.658-15.678c.042-4.071,1.173-10.122-3.591-12.384-2.53-1.2-6.206-.495-8.524.806C36.955,83.59,33.972,85,33.28,85.3c-4.184,1.753-8.27,3.76-12.313,5.824-2.248,1.145-4.609,2.12-6.9,3.181a23.913,23.913,0,0,0-8.326,6.545,22.6,22.6,0,0,0-4.778,7.775,25.158,25.158,0,0,0-.848,9.627c.17,2.488,5.33,19.183,1.739,30.535-1.173,3.7-1.1,5.725,2.3,8.864,1.781,1.64,4.015.848,6.121.636,2.262-.226,4.34.438,6.673.311,6.178-.325,13.331-.834,18.8-4,2.12-1.23,3.958-3.054,4.057-5.641.071-1.923-.862-2.912-1.866-4.382-1.5-2.191-1.2-5.075-.735-7.563a54.349,54.349,0,0,1,1.88-7q1.336-4.029,3.054-7.917c1.456-3.294,3.1-6.5,4.382-9.882.226-.594.452-1.2.65-1.809Z" transform="translate(16.756 -44.165)" fill="#e3e2f2"/>
    <path id="Path_4497" data-name="Path 4497" d="M27.2,80.643c.4.3.057,1.032-.1,1.583A9.426,9.426,0,0,0,27.071,86a9.154,9.154,0,0,1,.3,1.583,3.706,3.706,0,0,1-.551,1.668c-1.329,2.333-4.538,3.039-6.927,3.676a18.666,18.666,0,0,1-5.994.679,6.482,6.482,0,0,1-2.629-.636,6.965,6.965,0,0,1-.763-.481c-.891-.735-.735-2.234-.82-3.237a11.481,11.481,0,0,0-.622-3.082,5.511,5.511,0,0,0-1.852-2.234s8.129-1.371,12.087-2.078c2.149-.382,4.3-.778,6.46-1.159a4.449,4.449,0,0,1,.947-.17.886.886,0,0,1,.481.127Z" transform="translate(29.171 -44.667)" fill="#ffc7ad"/>
    <path id="Path_4498" data-name="Path 4498" d="M6.546,63.882a9.06,9.06,0,0,0-2.559,4.17c-.792,3.124.028,6.376-.622,9.5-.58,2.743.721,6.3,1.216,9.076.311,1.739.749,3.69,2.234,4.651.891.58,2.036.693,2.9,1.329.523.4,1.513.806,1.993,1.244,1.414,1.3,3.647,1.1,5.4,1.032a18.685,18.685,0,0,0,5.386-.806c3.209-1.159,5.527-3.916,7.62-6.6C47.33,65.451,17.841,52.671,6.546,63.882Z" transform="translate(26.809 -53.266)" fill="#ffc7ad"/>
    <path id="Path_4499" data-name="Path 4499" d="M21.136,73.61c.085.042-.113,2.644,0,4.043a22.561,22.561,0,0,0,.707,4.114,7.681,7.681,0,0,0,1.668,3.251,3.97,3.97,0,0,0,2.912,1.329,8.337,8.337,0,0,0,1.569-.085,17.639,17.639,0,0,1-3.138-11.041,4.5,4.5,0,0,1-3.718-1.6Z" transform="translate(8.925 -47.529)" fill="#f0eff8"/>
    <path id="Path_4500" data-name="Path 4500" d="M19.038,76.626h-.862c2.53-3.336,7.125-6.658,9.7-2.9a.283.283,0,0,1-.339.424c-2.46-1.2-4.142-.693-6.135,1.089a15.679,15.679,0,0,0-2.347,2.53V76.626Z" transform="translate(13.13 -48.17)" fill="#f0eff8"/>
    <path id="Path_4501" data-name="Path 4501" d="M33.961,65c-5.838-10.079-19.919-13.387-28.9-5.3C.98,63.387-.066,68.363,3.383,72.633a9.72,9.72,0,0,1,1.781,3.294c.382,1.046.028,2.092,1.074,2.87,1.809,1.329,3.082-.961,4.962.156,3.817,2.262.636,9.005,3.449,12.115s9.175,2.757,12.624,1.074C36.477,87.66,38.683,73.17,33.947,65Z" transform="translate(28.529 -55.161)" fill="#35373a"/>
    <path id="Path_4502" data-name="Path 4502" d="M4.04,164.089c-1.286-22.124,3.746-37.844,3.746-37.844S32,133.822,42.152,125.1a52.022,52.022,0,0,1,4.411,7.945c2.064,5.231,2.488,9.995,2.813,16.073.481,9.047-.353,18.717-1.032,27.736-.481,6.319-.551,12.666-.792,19-.2,5.344.763,12-3.308,16.243a14.9,14.9,0,0,1-5.1,3.167,42.681,42.681,0,0,1-17.9,3.266A18.572,18.572,0,0,1,13.6,216.9C8.238,214.217,8,209.567,7.5,204.364q-.912-9.754-1.767-19.523C5.227,178.961,4.7,173.08,4.252,167.2c-.085-1.032-.156-2.078-.212-3.11Z" transform="translate(11.814 -26.229)" fill="#e65023"/>
    <path id="Path_4503" data-name="Path 4503" d="M27.847,104.841c.4-3.774,2.629-10.207,7.408-9.754a7.074,7.074,0,0,1,4.806,2.926,15.074,15.074,0,0,1,2.3,5.273c2.318,8.963-1.753,26.337-3.76,35.511-.636,2.94-.65-2.417-3.35-1.117a6.4,6.4,0,0,1-5.838-.2c-4.269-2.417-5.146-.679-5.061-1.3,2.559-18.8,3.548-31.793,3.506-31.369Z" transform="translate(-10.735 -38.654)" fill="#f1f1f1"/>
    <path id="Path_4504" data-name="Path 4504" d="M37.765,147.8a13.207,13.207,0,0,0-1.7,1.838c-1.484,2.106-2.841,4.453-2.912,7.111a1.7,1.7,0,0,0,.551,1.513c.382-.269.763-.523,1.145-.792a.346.346,0,0,1,.226-.085.234.234,0,0,1,.184.141c.594.834.057,2.318-.071,3.237-.17,1.258-.339,2.516-.509,3.76a2.214,2.214,0,0,0-.014.862.851.851,0,0,0,.523.65c.156.057.339.028.495.085a.973.973,0,0,1,.523.792,6.064,6.064,0,0,0,.509,2.078c.749,1.2,1.2-.537,1.8-.806.834-.382.99.9,1.725.834.509-.042.693-.679.763-1.187.156-1.3.113-2.545.961-3.633a.275.275,0,0,1,.156-.127c.17-.042.269.184.353.339.339.551.99.254,1.442.071a1.156,1.156,0,0,0,.862-1.089,92.554,92.554,0,0,0,.891-11.521,24.546,24.546,0,0,1,.156-3.054,10.407,10.407,0,0,1,.862-3.082c.452-.961.947-1.923,1.329-2.912a5.331,5.331,0,0,0-.438-3.506,2.221,2.221,0,0,0-.594-.975,2.189,2.189,0,0,0-.9-.339,7.607,7.607,0,0,0-3.195,0,4.024,4.024,0,0,0-2.53,1.852,6.389,6.389,0,0,0-.58,2.417,14.327,14.327,0,0,1-.679,3.548,5.348,5.348,0,0,1-1.343,1.951Z" transform="translate(-28.302 -20.964)" fill="#ffc7ad"/>
    <path id="Path_4505" data-name="Path 4505" d="M31.691,125.869c.792-3.718,3.69-9.867,8.4-8.92a7.056,7.056,0,0,1,4.467,3.421c2.658,4.453,1.442,8.425.523,13.091a97.749,97.749,0,0,1-4.312,15.31,53.446,53.446,0,0,1-3.987,9.288c-1.414,2.29-4.905,1.923-6.969.438-4-2.856-2.149-6.135-2.05-6.743,3.195-19.169,4.029-26.308,3.93-25.9Z" transform="translate(-17.944 -29.642)" fill="#f1f1f1"/>
    <path id="Path_4506" data-name="Path 4506" d="M21.154,73.725c3.718,3.916,4.1,10.815,1.739,15.692a36.3,36.3,0,0,1-10.617,13.19c2.983-.141,4.2,4.51,7.111,5.146,1.612.353,3.181-.65,4.538-1.626a19.32,19.32,0,0,0,5-4.566,17.234,17.234,0,0,0,2.3-6.842,85.1,85.1,0,0,0,1.187-13.133c.042-3.676-.17-7.45-1.612-10.829s-4.34-6.333-7.959-7c-2.969-.537-7.464,1.173-7.478,4.792,0,3.152,3.916,3.195,5.8,5.174Z" transform="translate(16.964 -51.644)" fill="#35373a"/>
    <path id="Path_4507" data-name="Path 4507" d="M17.1,86.009c3.336-1.357,10.065-8.991,4.778-11.889a.28.28,0,0,0-.382.382c1.428,2.333,1.089,4.057-.495,6.22a11.365,11.365,0,0,1-4.425,4c-.707.325-.212,1.583.523,1.286Z" transform="translate(19.959 -47.332)" fill="#f0eff8"/>
    <path id="Path_4508" data-name="Path 4508" d="M21.713,70.81c2.856.269,3,3.888.608,6.277-.763.763-2.46,2.163-3.478,1.484a5.532,5.532,0,0,1-2.078-2.785c-.226-.693,0-.721.467-1.244a10.64,10.64,0,0,0,.961-1.3c.947-1.484,1.527-2.629,3.506-2.446Z" transform="translate(19.176 -48.701)" fill="#ffc7ad"/>
    <path id="Path_4509" data-name="Path 4509" d="M19.117,75.472c.368-.24,3.9-1.612,1.923-3.266a.984.984,0,0,0-1.513.594c-.1.325-.057.679-.156,1a1.513,1.513,0,0,1-.311.523c-.368.424-1.414.707-1.329,1.414.071.636,1.173-.127,1.385-.269Z" transform="translate(20.048 -48.189)" fill="#f3a984"/>
    <path id="Path_4510" data-name="Path 4510" d="M23.488,100.691c-.452,4.213-1.244,8.44-1.244,12.652,0,3.181.17,6.475-1.018,9.429-1.2,2.983-5.146,4.891-7.959,6.149a11.843,11.843,0,0,1-6.7,1.089c-2.488-.41-5.3-2.219-5.655-4.891-1.018-7.832,2.615-15.423,4.538-23.085A56.915,56.915,0,0,0,6.906,83.742c-.283-3.633-.891-7.379.283-10.829a11.215,11.215,0,0,1,7.775-7.125c2.545-.622,4.51-6.644,6.446-4.538,1.8,1.965,4.594,6.941,4.015,19.381-.226,4.821-1.725,9.415-1.612,14.193a45.78,45.78,0,0,1-.3,5.881Z" transform="translate(40.204 -52.826)" fill="#35373a"/>
  </g>
</svg>
