<svg id="Group_3613" data-name="Group 3613" xmlns="http://www.w3.org/2000/svg" width="213.753" height="355.632" viewBox="0 0 213.753 355.632">
  <path id="Path_4289" data-name="Path 4289" d="M0,227.7l68.825,37.684,144.928-83.493-79.966-30.5Z" transform="translate(0 90.247)" opacity="0.1"/>
  <g id="Group_3592" data-name="Group 3592" transform="translate(75.136 336.782)">
    <ellipse id="Ellipse_36" data-name="Ellipse 36" cx="4.996" cy="2.889" rx="4.996" ry="2.889" transform="matrix(0.505, -0.863, 0.863, 0.505, 0, 10.999)" fill="#3c4446"/>
    <path id="Path_4290" data-name="Path 4290" d="M52.177,219.06l-2.777,1.6v-8.044L52.177,211Z" transform="translate(-45.687 -211)" fill="#b8c0c2"/>
  </g>
  <g id="Group_3593" data-name="Group 3593" transform="translate(197.173 266.377)">
    <ellipse id="Ellipse_37" data-name="Ellipse 37" cx="4.996" cy="2.889" rx="4.996" ry="2.889" transform="matrix(0.505, -0.863, 0.863, 0.505, 0, 11.014)" fill="#3c4446"/>
    <path id="Path_4291" data-name="Path 4291" d="M128.637,174.95l-2.777,1.6V168.5l2.777-1.612Z" transform="translate(-122.145 -166.89)" fill="#b8c0c2"/>
  </g>
  <path id="Path_4292" data-name="Path 4292" d="M213.753,52.694,68.825,137.289,0,97.115,144.992,12.52Z" transform="translate(0 7.463)" fill="#f0f4f5"/>
  <path id="Path_4293" data-name="Path 4293" d="M162.678,46.97,35.77,120.168V82.308L162.678,9.11Z" transform="translate(21.323 5.431)" fill="#e4e8eb"/>
  <path id="Path_4294" data-name="Path 4294" d="M19.31,83.72,45.582,98.261V60.4L19.31,45.86Z" transform="translate(11.511 27.338)" fill="#c7cfd2"/>
  <path id="Path_4295" data-name="Path 4295" d="M146.2,0,172.49,14.541,45.582,87.739,19.31,73.2Z" transform="translate(11.511)" fill="#edf5f8"/>
  <path id="Path_4296" data-name="Path 4296" d="M68.825,105.694V307.173L0,267.015V65.52Z" transform="translate(0 39.058)" fill="#c7cfd2"/>
  <path id="Path_4297" data-name="Path 4297" d="M188.048,37.69V239.185L43.12,323.763V122.285Z" transform="translate(25.705 22.468)" fill="#e4e8eb"/>
  <path id="Path_4298" data-name="Path 4298" d="M136.7,252.5,45.02,305.877V111.548L136.7,58.19Z" transform="translate(26.838 34.688)" fill="#a2a7aa"/>
  <path id="Path_4299" data-name="Path 4299" d="M122.186,252.5,69.37,283.259V88.947L122.186,58.19Z" transform="translate(41.353 34.688)" fill="#a2a7aa"/>
  <path id="Path_4300" data-name="Path 4300" d="M69.37,161.79l52.816,28.954L69.37,221.5Z" transform="translate(41.353 96.447)" fill="#424b50"/>
  <path id="Path_4301" data-name="Path 4301" d="M83.279,271.422,45.02,294.6V100.27L83.279,77.11Z" transform="translate(26.838 45.967)" fill="#c7cfd2"/>
  <path id="Path_4302" data-name="Path 4302" d="M83.279,217.84,45.02,241.016V100.27L83.279,77.11Z" transform="translate(26.838 45.967)" opacity="0.17"/>
  <g id="Group_3595" data-name="Group 3595" transform="translate(59.488 20.622)">
    <path id="Path_4303" data-name="Path 4303" d="M159.358,43.454,37.27,113.939V83.4L159.358,12.92Z" transform="translate(-37.27 -12.92)" fill="#288cd2"/>
    <g id="Group_3594" data-name="Group 3594" transform="translate(4.788 11.572)">
      <path id="Path_4304" data-name="Path 4304" d="M42.616,73.745,40.27,75.1V62.2l5.14-2.969c2.171-1.261,3.5-.415,3.5,2.107a7.483,7.483,0,0,1-3.591,6.193l-2.7,1.548v4.661Zm2.171-8.14a3.181,3.181,0,0,0,1.756-3.033c0-1.261-.607-1.421-2.075-.591L42.6,63.051v3.783l2.171-1.261Z" transform="translate(-40.27 2.774)" fill="#fff"/>
      <path id="Path_4305" data-name="Path 4305" d="M49.116,64.843v5.778L46.77,71.978v-12.9l2.346-1.357v4.884l4.389-2.538V55.187l2.346-1.357v12.9l-2.346,1.357V62.305Z" transform="translate(-36.395 -0.104)" fill="#fff"/>
      <path id="Path_4306" data-name="Path 4306" d="M59,51.318c1.484-.862,5.411-2.378,5.411,3.671A11.259,11.259,0,0,1,59,64.9c-1.5.862-5.411,2.378-5.411-3.671A11.259,11.259,0,0,1,59,51.318Zm0,11.3c1.277-.734,3.049-2.666,3.049-6.273S60.262,52.866,59,53.6s-3.049,2.666-3.049,6.273S57.74,63.352,59,62.618Z" transform="translate(-32.33 -2.093)" fill="#fff"/>
      <path id="Path_4307" data-name="Path 4307" d="M66.3,60.72,63.95,62.077V51.462l-3.4,1.963V51.143L69.7,45.86v2.282l-3.4,1.963V60.72Z" transform="translate(-28.181 -4.856)" fill="#fff"/>
      <path id="Path_4308" data-name="Path 4308" d="M71.861,43.9c1.484-.862,5.411-2.378,5.411,3.671a11.259,11.259,0,0,1-5.411,9.912c-1.5.862-5.411,2.378-5.411-3.671A11.259,11.259,0,0,1,71.861,43.9Zm0,11.3c1.277-.734,3.049-2.666,3.049-6.273s-1.788-3.48-3.049-2.745-3.049,2.666-3.049,6.273S70.6,55.932,71.861,55.2Z" transform="translate(-24.663 -6.516)" fill="#fff"/>
      <path id="Path_4309" data-name="Path 4309" d="M77.14,41.021l5.475-3.16c2.761-1.6,3.464-.016,3.464,1.309A6.381,6.381,0,0,1,84.706,42.6c1.373-.207,1.74.846,1.74,2.123a6.733,6.733,0,0,1-.974,3.224c-.638,1.085-1.261,1.9-3.559,3.224l-4.756,2.745v-12.9Zm2.251,3.751,2.761-1.6a2.907,2.907,0,0,0,1.66-2.394c0-1.022-.654-1.006-1.724-.383l-2.7,1.548Zm0,5.618,2.889-1.66a3.22,3.22,0,0,0,1.8-2.921c0-1.133-.846-1.069-1.692-.591l-3,1.724Z" transform="translate(-18.291 -10.024)" fill="#fff"/>
      <path id="Path_4310" data-name="Path 4310" d="M89.321,33.818c1.484-.862,5.411-2.378,5.411,3.671A11.259,11.259,0,0,1,89.321,47.4c-1.5.862-5.411,2.378-5.411-3.671A11.259,11.259,0,0,1,89.321,33.818Zm0,11.3c1.277-.734,3.049-2.666,3.049-6.273s-1.788-3.48-3.049-2.745-3.049,2.666-3.049,6.273S88.06,45.852,89.321,45.118Z" transform="translate(-14.255 -12.525)" fill="#fff"/>
      <path id="Path_4311" data-name="Path 4311" d="M96.971,29.4c1.484-.862,5.411-2.378,5.411,3.671a11.259,11.259,0,0,1-5.411,9.912c-1.5.862-5.411,2.378-5.411-3.671A11.259,11.259,0,0,1,96.971,29.4Zm0,11.3c1.277-.734,3.049-2.666,3.049-6.273s-1.788-3.48-3.049-2.745-3.049,2.666-3.049,6.273S95.71,41.432,96.971,40.7Z" transform="translate(-9.695 -15.16)" fill="#fff"/>
      <path id="Path_4312" data-name="Path 4312" d="M104.266,38.8l-2.346,1.357V29.542l-3.4,1.963V29.223l9.146-5.283v2.282l-3.4,1.963V38.8Z" transform="translate(-5.546 -17.923)" fill="#fff"/>
      <path id="Path_4313" data-name="Path 4313" d="M107.426,31.183v5.778l-2.346,1.357v-12.9l2.346-1.357v4.884l4.389-2.538V21.527l2.346-1.357v12.9l-2.346,1.357V28.645Z" transform="translate(-1.635 -20.17)" fill="#fff"/>
    </g>
  </g>
  <path id="Path_4314" data-name="Path 4314" d="M102.707,133.237,74.44,116.781V86.55l28.267,16.472Z" transform="translate(44.375 51.595)" fill="#288cd2"/>
  <path id="Path_4315" data-name="Path 4315" d="M98.729,124.515l-3.719-2.235v-21.1l3.719,2.219Z" transform="translate(56.638 60.316)" fill="#fff"/>
  <path id="Path_4316" data-name="Path 4316" d="M85.839,91.06l-6.8-3.352V81.02l6.8,3.352Z" transform="translate(47.118 48.298)" fill="#424b50"/>
  <path id="Path_4317" data-name="Path 4317" d="M102.6,90.956V83.135L81.6,71.85,74.62,75.92Z" transform="translate(44.483 42.832)" fill="#288cd2"/>
  <g id="Group_3597" data-name="Group 3597" transform="translate(168.886 87.531)">
    <path id="Path_4318" data-name="Path 4318" d="M125.043,79.372,105.81,90.481V65.933L125.043,54.84Z" transform="translate(-105.81 -54.84)" fill="#288cd2"/>
    <g id="Group_3596" data-name="Group 3596" transform="translate(1.82 6.232)">
      <path id="Path_4319" data-name="Path 4319" d="M116.284,70.387a7.44,7.44,0,0,1-.559,1.4,7.179,7.179,0,0,1-2.7,2.921c-1.373.8-2.2.575-2.681.192a1.858,1.858,0,0,1-.527-.654l.686-.878A2.171,2.171,0,0,0,111,72.111V70.961a2.758,2.758,0,0,0,2.091.128,5.947,5.947,0,0,0,1.947-2.059v.67c0,.447.223.734.575.718l.686-.032Z" transform="translate(-105.239 -52.613)" fill="#f59c6b"/>
      <path id="Path_4320" data-name="Path 4320" d="M119.426,71.187a6.4,6.4,0,0,1,.16,2.713c-.144.958-.239,1.788-.287,2.251-.463,0-.91.032-1.229.064-.367.048-.607.1-.607.1a.622.622,0,0,1-.048.192l-.686.032c-.351,0-.575-.271-.575-.718v-.67c.128-.192.287-.431.431-.67.032-.048.08-.112.112-.16a9.847,9.847,0,0,0,1.852-4.405c.048-1.325.223-4.23.223-4.23a7.715,7.715,0,0,1-7.167.239c-.1,1.133-1.947,4.916-1.947,4.916a27.569,27.569,0,0,0,0,3.017,3.234,3.234,0,0,0,1.4,2.777c.223.1.559.255.942.4a.531.531,0,0,1,.1.048v1.149a2.171,2.171,0,0,1-.495,1.261l-.686.878c-.064-.144-.1-.239-.1-.239l-.112.112a19.732,19.732,0,0,0-1.389,1.452,6.169,6.169,0,0,1-1.006-2.554,22.194,22.194,0,0,1,.048-3.831,5.106,5.106,0,0,0-.192-1.037,12.33,12.33,0,0,1-.192-3.639,12.329,12.329,0,0,1,1.979-6.736,10.592,10.592,0,0,1,2.793-3.128,5.614,5.614,0,0,1,1.085-.942,8.114,8.114,0,0,1,4.166-1.069c1.628.112,2.091,1.548,2.139,5.108a37.735,37.735,0,0,1-.75,7.294Z" transform="translate(-106.353 -58.745)" fill="#9c6500"/>
      <path id="Path_4321" data-name="Path 4321" d="M118.144,63.1s-.176,2.9-.223,4.23a10.385,10.385,0,0,1-1.852,4.405c-.032.048-.08.112-.112.16-.16.239-.3.479-.431.67a6.1,6.1,0,0,1-1.947,2.059,2.761,2.761,0,0,1-2.091-.128.531.531,0,0,1-.1-.048c-.383-.144-.718-.319-.942-.4a3.211,3.211,0,0,1-1.4-2.777,27.478,27.478,0,0,1,0-3.017s1.852-3.767,1.947-4.916a7.715,7.715,0,0,0,7.167-.239Z" transform="translate(-105.726 -56.148)" fill="#f7ae77"/>
      <path id="Path_4322" data-name="Path 4322" d="M122.528,71.6,106.95,80.585a6.359,6.359,0,0,1,1.213-3.144,19.406,19.406,0,0,1,1.772-2.251,19.737,19.737,0,0,1,1.389-1.452l.112-.112s.032.1.1.239a1.858,1.858,0,0,0,.527.654c.495.383,1.325.591,2.681-.192a7.1,7.1,0,0,0,2.7-2.921A6.465,6.465,0,0,0,118,70a.622.622,0,0,0,.048-.192s.239-.048.607-.1a9.23,9.23,0,0,1,1.229-.064,4.257,4.257,0,0,1,1.421.208,1.837,1.837,0,0,1,1.213,1.74Z" transform="translate(-106.95 -52.245)" fill="#e65023"/>
    </g>
  </g>
  <g id="Group_3599" data-name="Group 3599" transform="translate(190.082 75.209)">
    <path id="Path_4323" data-name="Path 4323" d="M138.323,71.652,119.09,82.761V58.229L138.323,47.12Z" transform="translate(-119.09 -47.12)" fill="#288cd2"/>
    <g id="Group_3598" data-name="Group 3598" transform="translate(1.82 6.232)">
      <path id="Path_4324" data-name="Path 4324" d="M129.564,62.667a7.441,7.441,0,0,1-.559,1.4,7.179,7.179,0,0,1-2.7,2.921c-1.373.8-2.2.575-2.681.192a1.858,1.858,0,0,1-.527-.654l.686-.878a2.171,2.171,0,0,0,.495-1.261V63.241a2.758,2.758,0,0,0,2.091.128,5.947,5.947,0,0,0,1.947-2.059v.67c0,.447.223.734.575.718l.686-.032Z" transform="translate(-118.519 -44.893)" fill="#f59c6b"/>
      <path id="Path_4325" data-name="Path 4325" d="M132.706,63.467a6.4,6.4,0,0,1,.16,2.713c-.144.958-.239,1.788-.287,2.251-.463,0-.91.032-1.229.064-.367.048-.607.1-.607.1a.622.622,0,0,1-.048.192l-.686.032c-.351,0-.575-.271-.575-.718v-.67c.128-.192.287-.431.431-.67.032-.048.08-.112.112-.16a9.847,9.847,0,0,0,1.852-4.405c.048-1.325.223-4.23.223-4.23a7.715,7.715,0,0,1-7.167.239c-.1,1.133-1.947,4.916-1.947,4.916a27.569,27.569,0,0,0,0,3.017,3.234,3.234,0,0,0,1.4,2.777c.223.1.559.255.942.4a.531.531,0,0,1,.1.048v1.149a2.171,2.171,0,0,1-.495,1.261l-.686.878c-.064-.144-.1-.239-.1-.239l-.112.112A19.732,19.732,0,0,0,122.6,73.97a6.169,6.169,0,0,1-1.006-2.554,22.194,22.194,0,0,1,.048-3.831,5.106,5.106,0,0,0-.192-1.037,12.33,12.33,0,0,1-.192-3.639,12.329,12.329,0,0,1,1.979-6.736,10.592,10.592,0,0,1,2.793-3.128,5.614,5.614,0,0,1,1.085-.942,8.114,8.114,0,0,1,4.166-1.069c1.628.112,2.091,1.548,2.139,5.108a37.735,37.735,0,0,1-.75,7.294Z" transform="translate(-119.633 -51.025)" fill="#9c6500"/>
      <path id="Path_4326" data-name="Path 4326" d="M131.424,55.38s-.176,2.9-.223,4.23a10.384,10.384,0,0,1-1.852,4.405c-.032.048-.08.112-.112.16-.16.239-.3.479-.431.67a6.1,6.1,0,0,1-1.947,2.059,2.761,2.761,0,0,1-2.091-.128.531.531,0,0,1-.1-.048c-.383-.144-.718-.319-.942-.4a3.211,3.211,0,0,1-1.4-2.777,27.478,27.478,0,0,1,0-3.017s1.852-3.767,1.947-4.916a7.715,7.715,0,0,0,7.167-.239Z" transform="translate(-119.006 -48.428)" fill="#f7ae77"/>
      <path id="Path_4327" data-name="Path 4327" d="M135.808,63.878,120.23,72.865a6.36,6.36,0,0,1,1.213-3.144,19.406,19.406,0,0,1,1.772-2.251,19.735,19.735,0,0,1,1.389-1.452l.112-.112s.032.1.1.239a1.858,1.858,0,0,0,.527.654c.495.383,1.325.591,2.681-.192a7.1,7.1,0,0,0,2.7-2.921,6.466,6.466,0,0,0,.559-1.4.622.622,0,0,0,.048-.192s.239-.048.607-.1a9.23,9.23,0,0,1,1.229-.064,4.257,4.257,0,0,1,1.421.207,1.837,1.837,0,0,1,1.213,1.74Z" transform="translate(-120.23 -44.525)" fill="#e65023"/>
    </g>
  </g>
  <g id="Group_3601" data-name="Group 3601" transform="translate(168.886 117.65)">
    <path id="Path_4328" data-name="Path 4328" d="M125.043,98.258,105.81,109.351V84.819L125.043,73.71Z" transform="translate(-105.81 -73.71)" fill="#288cd2"/>
    <g id="Group_3600" data-name="Group 3600" transform="translate(1.82 6.248)">
      <path id="Path_4329" data-name="Path 4329" d="M116.284,89.267a7.44,7.44,0,0,1-.559,1.4,7.179,7.179,0,0,1-2.7,2.921c-1.373.8-2.2.575-2.681.192a1.858,1.858,0,0,1-.527-.654l.686-.878A2.171,2.171,0,0,0,111,90.991V89.841a2.758,2.758,0,0,0,2.091.128,5.947,5.947,0,0,0,1.947-2.059v.67c0,.447.223.734.575.718l.686-.032Z" transform="translate(-105.239 -71.493)" fill="#f59c6b"/>
      <path id="Path_4330" data-name="Path 4330" d="M119.426,90.067a6.4,6.4,0,0,1,.16,2.713c-.144.958-.239,1.788-.287,2.251-.463,0-.91.032-1.229.064-.367.048-.607.1-.607.1a.622.622,0,0,1-.048.192l-.686.032c-.351,0-.575-.271-.575-.718v-.67c.128-.192.287-.431.431-.67.032-.048.08-.112.112-.16a9.847,9.847,0,0,0,1.852-4.405c.048-1.325.223-4.23.223-4.23a7.715,7.715,0,0,1-7.167.239c-.1,1.133-1.947,4.916-1.947,4.916a27.569,27.569,0,0,0,0,3.017,3.234,3.234,0,0,0,1.4,2.777c.223.1.559.255.942.4a.532.532,0,0,1,.1.048v1.149a2.171,2.171,0,0,1-.495,1.261l-.686.878c-.064-.144-.1-.239-.1-.239l-.112.112a19.734,19.734,0,0,0-1.389,1.452,6.169,6.169,0,0,1-1.006-2.554,22.194,22.194,0,0,1,.048-3.831,5.106,5.106,0,0,0-.192-1.037,12.33,12.33,0,0,1-.192-3.639,12.329,12.329,0,0,1,1.979-6.736,10.592,10.592,0,0,1,2.793-3.128,5.614,5.614,0,0,1,1.085-.942,8.114,8.114,0,0,1,4.166-1.069c1.628.112,2.091,1.548,2.139,5.108a37.735,37.735,0,0,1-.75,7.294Z" transform="translate(-106.353 -77.625)" fill="#9c6500"/>
      <path id="Path_4331" data-name="Path 4331" d="M118.144,81.97s-.176,2.9-.223,4.23a10.385,10.385,0,0,1-1.852,4.405c-.032.048-.08.112-.112.16-.16.239-.3.479-.431.67a6.1,6.1,0,0,1-1.947,2.059,2.761,2.761,0,0,1-2.091-.128.531.531,0,0,1-.1-.048c-.383-.144-.718-.319-.942-.4a3.211,3.211,0,0,1-1.4-2.777,27.478,27.478,0,0,1,0-3.017s1.852-3.767,1.947-4.916a7.715,7.715,0,0,0,7.167-.239Z" transform="translate(-105.726 -75.034)" fill="#f7ae77"/>
      <path id="Path_4332" data-name="Path 4332" d="M122.528,90.478,106.95,99.465a6.359,6.359,0,0,1,1.213-3.144,19.405,19.405,0,0,1,1.772-2.251,19.734,19.734,0,0,1,1.389-1.452l.112-.112s.032.1.1.239a1.858,1.858,0,0,0,.527.654c.495.383,1.325.591,2.681-.192a7.1,7.1,0,0,0,2.7-2.921,6.465,6.465,0,0,0,.559-1.4.622.622,0,0,0,.048-.192s.239-.048.607-.1a9.23,9.23,0,0,1,1.229-.064,4.257,4.257,0,0,1,1.421.207,1.837,1.837,0,0,1,1.213,1.74Z" transform="translate(-106.95 -71.125)" fill="#e65023"/>
    </g>
  </g>
  <g id="Group_3603" data-name="Group 3603" transform="translate(190.082 105.344)">
    <path id="Path_4333" data-name="Path 4333" d="M138.323,90.532,119.09,101.641V77.093L138.323,66Z" transform="translate(-119.09 -66)" fill="#288cd2"/>
    <g id="Group_3602" data-name="Group 3602" transform="translate(1.82 6.232)">
      <path id="Path_4334" data-name="Path 4334" d="M129.564,81.547a7.441,7.441,0,0,1-.559,1.4,7.179,7.179,0,0,1-2.7,2.921c-1.373.8-2.2.575-2.681.192a1.858,1.858,0,0,1-.527-.654l.686-.878a2.171,2.171,0,0,0,.495-1.261V82.121a2.758,2.758,0,0,0,2.091.128,5.947,5.947,0,0,0,1.947-2.059v.67c0,.447.223.734.575.718l.686-.032Z" transform="translate(-118.519 -63.773)" fill="#f59c6b"/>
      <path id="Path_4335" data-name="Path 4335" d="M132.706,82.347a6.4,6.4,0,0,1,.16,2.713c-.144.958-.239,1.788-.287,2.251-.463,0-.91.032-1.229.064-.367.048-.607.1-.607.1a.622.622,0,0,1-.048.192l-.686.032c-.351,0-.575-.271-.575-.718v-.67c.128-.192.287-.431.431-.67.032-.048.08-.112.112-.16a9.847,9.847,0,0,0,1.852-4.405c.048-1.325.223-4.23.223-4.23a7.715,7.715,0,0,1-7.167.239c-.1,1.133-1.947,4.916-1.947,4.916a27.569,27.569,0,0,0,0,3.017,3.234,3.234,0,0,0,1.4,2.777c.223.1.559.255.942.4a.531.531,0,0,1,.1.048v1.149a2.171,2.171,0,0,1-.495,1.261l-.686.878c-.064-.144-.1-.239-.1-.239l-.112.112A19.729,19.729,0,0,0,122.6,92.85,6.169,6.169,0,0,1,121.6,90.3a22.194,22.194,0,0,1,.048-3.831,5.106,5.106,0,0,0-.192-1.037,12.33,12.33,0,0,1-.192-3.639,12.329,12.329,0,0,1,1.979-6.736,10.592,10.592,0,0,1,2.793-3.128,5.614,5.614,0,0,1,1.085-.942,8.114,8.114,0,0,1,4.166-1.069c1.628.112,2.091,1.548,2.139,5.108a37.735,37.735,0,0,1-.75,7.294Z" transform="translate(-119.633 -69.905)" fill="#9c6500"/>
      <path id="Path_4336" data-name="Path 4336" d="M131.424,74.26s-.176,2.9-.223,4.23a10.384,10.384,0,0,1-1.852,4.405c-.032.048-.08.112-.112.16-.16.239-.3.479-.431.67a6.1,6.1,0,0,1-1.947,2.059,2.761,2.761,0,0,1-2.091-.128.53.53,0,0,1-.1-.048c-.383-.144-.718-.319-.942-.4a3.211,3.211,0,0,1-1.4-2.777,27.478,27.478,0,0,1,0-3.017s1.852-3.767,1.947-4.916a7.715,7.715,0,0,0,7.167-.239Z" transform="translate(-119.006 -67.308)" fill="#f7ae77"/>
      <path id="Path_4337" data-name="Path 4337" d="M135.808,82.758,120.23,91.745a6.36,6.36,0,0,1,1.213-3.144,19.407,19.407,0,0,1,1.772-2.251A19.733,19.733,0,0,1,124.6,84.9l.112-.112s.032.1.1.239a1.858,1.858,0,0,0,.527.654c.495.383,1.325.591,2.681-.192a7.1,7.1,0,0,0,2.7-2.921,6.466,6.466,0,0,0,.559-1.4.622.622,0,0,0,.048-.192s.239-.048.607-.1a9.232,9.232,0,0,1,1.229-.064,4.257,4.257,0,0,1,1.421.207,1.837,1.837,0,0,1,1.213,1.74Z" transform="translate(-120.23 -63.405)" fill="#e65023"/>
    </g>
  </g>
  <g id="Group_3604" data-name="Group 3604" transform="translate(113.612 121.641)">
    <rect id="Rectangle_109" data-name="Rectangle 109" width="4.74" height="134.777" fill="#e65023"/>
    <rect id="Rectangle_110" data-name="Rectangle 110" width="1.724" height="134.777" opacity="0.23"/>
  </g>
  <g id="Group_3605" data-name="Group 3605" transform="translate(108.393 124.482)">
    <rect id="Rectangle_111" data-name="Rectangle 111" width="4.74" height="134.777" fill="#e65023"/>
    <rect id="Rectangle_112" data-name="Rectangle 112" width="1.724" height="134.777" opacity="0.23"/>
  </g>
  <g id="Group_3606" data-name="Group 3606" transform="translate(103.173 127.307)">
    <rect id="Rectangle_113" data-name="Rectangle 113" width="4.74" height="134.777" fill="#e65023"/>
    <rect id="Rectangle_114" data-name="Rectangle 114" width="1.724" height="134.777" opacity="0.23"/>
  </g>
  <g id="Group_3607" data-name="Group 3607" transform="translate(97.954 130.148)">
    <rect id="Rectangle_115" data-name="Rectangle 115" width="4.74" height="134.777" fill="#e65023"/>
    <rect id="Rectangle_116" data-name="Rectangle 116" width="1.724" height="134.777" opacity="0.23"/>
  </g>
  <g id="Group_3608" data-name="Group 3608" transform="translate(92.735 132.973)">
    <rect id="Rectangle_117" data-name="Rectangle 117" width="4.74" height="134.777" fill="#e65023"/>
    <rect id="Rectangle_118" data-name="Rectangle 118" width="1.724" height="134.777" opacity="0.23"/>
  </g>
  <g id="Group_3609" data-name="Group 3609" transform="translate(87.515 135.814)">
    <rect id="Rectangle_119" data-name="Rectangle 119" width="4.74" height="134.777" fill="#e65023"/>
    <rect id="Rectangle_120" data-name="Rectangle 120" width="1.724" height="134.777" opacity="0.23"/>
  </g>
  <g id="Group_3610" data-name="Group 3610" transform="translate(82.296 138.639)">
    <rect id="Rectangle_121" data-name="Rectangle 121" width="4.74" height="134.777" fill="#e65023"/>
    <rect id="Rectangle_122" data-name="Rectangle 122" width="1.724" height="134.777" opacity="0.23"/>
  </g>
  <g id="Group_3611" data-name="Group 3611" transform="translate(77.077 141.48)">
    <rect id="Rectangle_123" data-name="Rectangle 123" width="4.74" height="134.777" fill="#e65023"/>
    <rect id="Rectangle_124" data-name="Rectangle 124" width="1.724" height="134.777" opacity="0.23"/>
  </g>
  <g id="Group_3612" data-name="Group 3612" transform="translate(71.858 144.306)">
    <rect id="Rectangle_125" data-name="Rectangle 125" width="4.74" height="134.777" fill="#e65023"/>
    <rect id="Rectangle_126" data-name="Rectangle 126" width="1.724" height="134.777" opacity="0.23"/>
  </g>
  <path id="Path_4338" data-name="Path 4338" d="M57.189,94.013,40.765,96.646,0,72.832,30.678,53.12l.144,26.272Z" transform="translate(0 31.666)" opacity="0.1"/>
</svg>
