<svg id="Layer_2" data-name="Layer 2" xmlns="http://www.w3.org/2000/svg" width="159.118" height="309.161" viewBox="0 0 159.118 309.161">
  <path id="Path_4821" data-name="Path 4821" d="M47.435,0,68.966,47.582,89.22.362h32.21L84.666,82.742,54.8,82.949,14.88.483Z" transform="translate(10.791)" fill="#288cd2"/>
  <path id="Path_4822" data-name="Path 4822" d="M142.159,57.34H97.113V70.762a8.446,8.446,0,0,1,7.436,8.367,8.541,8.541,0,0,1-8.488,8.488H62.471a8.482,8.482,0,0,1-8.488-8.488,8.285,8.285,0,0,1,2.5-5.952,8.418,8.418,0,0,1,5.9-2.5V57.34H16.942A16.964,16.964,0,0,0,0,74.3V250.617a16.953,16.953,0,0,0,16.942,16.959H142.176a16.942,16.942,0,0,0,16.942-16.959V74.3A16.942,16.942,0,0,0,142.176,57.34ZM24.981,85.668c-3.934,0-7.091-2.795-7.091-6.3s3.157-6.3,7.091-6.3,7.091,2.829,7.091,6.3S28.88,85.668,24.981,85.668ZM105.826,178.3a38.889,38.889,0,0,1-25.585,9.558,38.16,38.16,0,0,1-25.033-9.126,38.975,38.975,0,1,1,50.6-.431Zm27.448-92.628c-3.916,0-7.091-2.795-7.091-6.3s3.192-6.3,7.091-6.3,7.125,2.829,7.125,6.3S137.207,85.668,133.274,85.668Z" transform="translate(0 41.585)" fill="#e65023"/>
  <path id="Path_4823" data-name="Path 4823" d="M55.366,48l-.035.052-.052-.138.086.086Z" transform="translate(40.091 34.746)" fill="#fff"/>
  <path id="Path_4824" data-name="Path 4824" d="M70.9,52.793V80.725a5.92,5.92,0,0,1-5.9,5.9H42.07a5.9,5.9,0,0,1-5.9-5.9V52.793a5.849,5.849,0,0,1,2.691-4.934,5.942,5.942,0,0,1,3.209-.949H65a5.927,5.927,0,0,1,4.158,1.725l.052.138.035-.052A5.872,5.872,0,0,1,70.9,52.793Z" transform="translate(26.232 34.021)" fill="none"/>
  <path id="Path_4825" data-name="Path 4825" d="M87.346,72.757c0,3.485-3.192,6.3-7.125,6.3s-7.091-2.795-7.091-6.3,3.192-6.3,7.091-6.3S87.346,69.289,87.346,72.757Z" transform="translate(53.036 48.199)" fill="#fff"/>
  <path id="Path_4826" data-name="Path 4826" d="M82.618,136.733a38.889,38.889,0,0,1-25.585,9.558A38.16,38.16,0,0,1,32,137.164a25.5,25.5,0,0,1,50.6-.449Z" transform="translate(23.207 83.148)" fill="#288cd2"/>
  <path id="Path_4827" data-name="Path 4827" d="M66.425,110.626a14.207,14.207,0,1,1-14.2-14.216,14.188,14.188,0,0,1,14.2,14.216Z" transform="translate(27.566 69.919)" fill="#288cd2"/>
  <path id="Path_4828" data-name="Path 4828" d="M61.478,128.313c-.035-.276-.086-.587-.138-.863" transform="translate(44.486 92.431)" fill="none"/>
  <path id="Path_4829" data-name="Path 4829" d="M32.058,127.71c-.052.414-.1.811-.138,1.225" transform="translate(23.149 92.619)" fill="none"/>
  <rect id="Rectangle_143" data-name="Rectangle 143" width="34.712" height="39.715" rx="3.42" transform="translate(62.402 80.931)" fill="#fff"/>
  <line id="Line_47" data-name="Line 47" x2="31.002" transform="translate(35.108 250.452)" fill="none" stroke="#fff" stroke-linejoin="round" stroke-width="2"/>
  <line id="Line_48" data-name="Line 48" x2="22.514" transform="translate(79.274 250.452)" fill="none" stroke="#fff" stroke-linejoin="round" stroke-width="2"/>
  <line id="Line_49" data-name="Line 49" x2="53.603" transform="translate(33.814 263.701)" fill="none" stroke="#fff" stroke-linejoin="round" stroke-width="2"/>
  <line id="Line_50" data-name="Line 50" x2="6.297" transform="translate(97.113 263.701)" fill="none" stroke="#fff" stroke-linejoin="round" stroke-width="2"/>
  <line id="Line_51" data-name="Line 51" x2="20.013" transform="translate(114.072 262.735)" fill="none" stroke="#fff" stroke-linejoin="round" stroke-width="2"/>
  <line id="Line_52" data-name="Line 52" x1="52.395" transform="translate(79.274 276.451)" fill="none" stroke="#fff" stroke-linejoin="round" stroke-width="2"/>
  <line id="Line_53" data-name="Line 53" x1="8.885" transform="translate(59.969 276.451)" fill="none" stroke="#fff" stroke-linejoin="round" stroke-width="2"/>
  <line id="Line_54" data-name="Line 54" x1="19.34" transform="translate(32.072 276.451)" fill="none" stroke="#fff" stroke-linejoin="round" stroke-width="2"/>
</svg>
