<svg xmlns="http://www.w3.org/2000/svg" width="682.649" height="315.12" viewBox="0 0 682.649 315.12">
  <g id="Layer_2" data-name="Layer 2" transform="translate(0.005 0.001)">
    <path id="Path_4721" data-name="Path 4721" d="M.29,2.772S146.265,109.3,304.041,119.627,682.391.43,682.391.43" fill="none" stroke="#288cd2" stroke-miterlimit="10" stroke-width="1"/>
    <g id="Group_3677" data-name="Group 3677" transform="translate(217.816 93.842)">
      <rect id="Rectangle_127" data-name="Rectangle 127" width="8.314" height="50.716" transform="translate(74.448 0) rotate(3.07)" fill="#dcb172"/>
      <rect id="Rectangle_128" data-name="Rectangle 128" width="144.279" height="170.719" transform="translate(11.059 43.077) rotate(3.07)" opacity="0.1"/>
      <rect id="Rectangle_129" data-name="Rectangle 129" width="144.279" height="170.719" transform="translate(9.144 30.432) rotate(3.07)" fill="#fff"/>
      <rect id="Rectangle_130" data-name="Rectangle 130" width="124.525" height="123.105" transform="translate(18.371 41.122) rotate(3.07)" fill="#51c0d4"/>
    </g>
    <g id="Group_3678" data-name="Group 3678" transform="translate(7.969 49.905)">
      <rect id="Rectangle_131" data-name="Rectangle 131" width="144.279" height="170.719" transform="translate(67.028 19.077) rotate(22.18)" opacity="0.1"/>
      <rect id="Rectangle_132" data-name="Rectangle 132" width="8.314" height="50.716" transform="translate(136.125 0) rotate(22.18)" fill="#dcb172"/>
      <rect id="Rectangle_133" data-name="Rectangle 133" width="144.279" height="170.719" transform="translate(64.45 7.376) rotate(22.18)" fill="#fff"/>
      <rect id="Rectangle_134" data-name="Rectangle 134" width="124.525" height="123.105" transform="translate(69.674 20.505) rotate(22.18)" fill="#a89ec3"/>
    </g>
    <g id="Group_3679" data-name="Group 3679" transform="translate(401.387 71.894)">
      <rect id="Rectangle_135" data-name="Rectangle 135" width="144.279" height="170.719" transform="translate(0 62.442) rotate(-16.51)" opacity="0.1"/>
      <rect id="Rectangle_136" data-name="Rectangle 136" width="8.314" height="50.716" transform="translate(53.102 2.363) rotate(-16.51)" fill="#dcb172"/>
      <rect id="Rectangle_137" data-name="Rectangle 137" width="144.279" height="170.719" transform="translate(1.759 52.922) rotate(-16.51)" fill="#fff"/>
      <rect id="Rectangle_138" data-name="Rectangle 138" width="124.525" height="123.105" transform="translate(14.04 59.9) rotate(-16.51)" fill="#18a8c9"/>
    </g>
    <g id="Group_3690" data-name="Group 3690" transform="translate(426.882 127.676)">
      <path id="Path_4722" data-name="Path 4722" d="M639.12,246.113l-6.265,1.919L616.28,242.75l9.6,10.963,7.063,1.044,9.612-4.86Z" transform="translate(-569.961 -183.961)" fill="#3c8f7c"/>
      <g id="Group_3685" data-name="Group 3685" transform="translate(27.502)">
        <path id="Path_4723" data-name="Path 4723" d="M679.953,283.089c-1.267-1.981-14.633-14.456-15.961-16.161s-4.583-7.508-4.583-7.508l-2.879,2.173,2.771,16.161,15.485,11.47,7.148-2.157c-.967-2.05-1.7-3.539-1.973-3.977Z" transform="translate(-606.812 -187.833)" fill="#3c8f7c"/>
        <path id="Path_4724" data-name="Path 4724" d="M658.659,292.155c.384-6.257-2.426-33.158-2.426-33.158l-.4-1.367-9,.975s-3.462,5.7-3.923,9.458,6.111,24.275,6.111,24.275c-1.912.729-3.04,1.7-4.476,3.969l14.111-4.153Z" transform="translate(-603.644 -187.417)" fill="#50bfa5"/>
        <g id="Group_3680" data-name="Group 3680" transform="translate(81.768)">
          <path id="Path_4725" data-name="Path 4725" d="M705.734,178.754c-.484-1.858-.883-3.462-.967-4.092-.092-.645.13-2.226.077-2.879a6.443,6.443,0,0,0-.261-1.566,28.9,28.9,0,0,0-2.38-3.255c-.43-.261-1.52-.983-1.866-.737s1.459,1.535,1.459,1.535l.607.691c-1.159-.768-2.818-2.372-3.217-2s1.244,1.781,2.372,2.795c-1.144-.829-3.079-1.743-3.271-1.382-.177.322,2.057,1.351,2.94,2.795.33.537-.115,1.251-.084,1.72a3.538,3.538,0,0,0,.184,1.205l.837,1.6a16.541,16.541,0,0,1,.13,1.866c0,.714.13,1.758.107,2.679v.161a8.429,8.429,0,0,0,3.34-1.136Z" transform="translate(-698.277 -166.175)" fill="#f7a491"/>
          <path id="Path_4726" data-name="Path 4726" d="M702.025,172.691a2.258,2.258,0,0,1-1.29-.63c-.537-.56-.637-1.5-1.044-1.482s-.061,1.236.069,1.935,2.695,3.7,2.695,3.7l-.422-3.524Z" transform="translate(-698.56 -167.198)" fill="#f7a491"/>
        </g>
        <path id="Path_4727" data-name="Path 4727" d="M634.078,204.807c-.806,1.912-2.656,2.042-4.576,2.756-1.29.484-1.82,2.818-1.482,4.5.86,4.261-2.464,2.718-4.883,4.783-5.819,4.975,1.3,15.37,5.865,14.794a23.975,23.975,0,0,1,5.459.169c2.61.6,6.05-2.234,8.384-5.159s.384-4.169.829-6.157,3.2-.53,3.263-4.56c.069-4.361-1.144-8.606-2.956-10.572-2.994-3.247-7.5-3-9.005-1.758a3.108,3.108,0,0,0-.914,1.2Z" transform="translate(-598.547 -174.669)" fill="#f47458"/>
        <path id="Path_4728" data-name="Path 4728" d="M602.848,241.23c-2.411.169-3.109,1.267-4.468,1.781s-2.3,2.725-2.741,2.426,1.482-2.311,1.305-2.825-3.025,1.651-3.378,1.359c-.653-.545,3-2.557,2.718-2.825s-4.13,1.62-4.146.791,4.146-1.551,3.984-2-3.846,1.021-4.345.161c-.269-.461,6.518-1.72,6.933-2.411s-2.188-1.812-1.935-2.48,4.668,3.063,5.09,2.963,11.14-2.963,13.911-4.246l13.074-8.2a14.755,14.755,0,0,1,1.489,4.875c.146,2.265-.33,2.779-.33,2.779a62.7,62.7,0,0,1-12.046,4.99,95.217,95.217,0,0,1-15.117,2.856Z" transform="translate(-591.77 -180.008)" fill="#f48c7f"/>
        <path id="Path_4729" data-name="Path 4729" d="M659.209,220.991l-.775-.061-10.326,1.251-3,1.5-.345,4.76,18.172,2.718Z" transform="translate(-604.078 -178.893)" fill="#466eb6"/>
        <g id="Group_3681" data-name="Group 3681" transform="translate(51.86 34.741)">
          <path id="Path_4730" data-name="Path 4730" d="M682.966,215.13s-1.059,1.82-1.182,1.7.415-.637,1.29-3.071c.315-.875-.276-1.344-.96.6a6.538,6.538,0,0,1-.491.9,8.33,8.33,0,0,1-.514.921c-.023-.031-.154.031-.046-.292a18.24,18.24,0,0,0,.737-1.727c.084-.33.3-1.013.3-1.013a7.21,7.21,0,0,0,.169-1.175c-.33-.169-.729.6-.783,1.067a5.166,5.166,0,0,0-.392,1s-.745,1.359-.944,1.251c-.161-.092,1.006-3.708.66-3.854-.407-.169-.914,1.75-.952,1.835-.092.253-.438.99-.438.99s-1.305,2.51-1.482,2.388-.192-.683-.161-.868.038-.407.069-.591a.373.373,0,0,0-.307-.415c-.223-.054-.491.653-.53.921a29.09,29.09,0,0,0-.061,3.363c0,.284-8.537,10.211-9.489,11.094l-5.366-4.307-2.771,6.034,8.422,4.775c2.848.96,10.917-14.886,11.178-15.362,0,0,1.159-1.205,1.942-1.935a9.285,9.285,0,0,0,1.4-1.958,6.939,6.939,0,0,0,1.167-2.042c.384-1.052-.461-.238-.461-.238Z" transform="translate(-659.32 -211.426)" fill="#f7a491"/>
          <path id="Path_4731" data-name="Path 4731" d="M683.978,220.313s.438-1.5-.338-2.073a1.068,1.068,0,0,1,.7.745A2.038,2.038,0,0,1,683.978,220.313Z" transform="translate(-664.969 -213.009)" fill="#f48c58"/>
        </g>
        <path id="Path_4732" data-name="Path 4732" d="M649.3,224.9l2.956-.015a13.082,13.082,0,0,1,2.249.63,107.308,107.308,0,0,1,9.5,5.6,11.469,11.469,0,0,1-1.152,3.24,13.425,13.425,0,0,1-2.449,2.91,47.944,47.944,0,0,1-7.063-4.829A12.282,12.282,0,0,1,649.3,224.9Z" transform="translate(-605.133 -179.81)" fill="#f7cc7f"/>
        <path id="Path_4733" data-name="Path 4733" d="M643.924,222.75a85.234,85.234,0,0,0-10.026,4.238c-.361.177-.768,1.612-.768,1.612l1.428,2.326,9.773-3.393-.415-4.783Z" transform="translate(-601.377 -179.316)" fill="#466eb6"/>
        <g id="Group_3684" data-name="Group 3684" transform="translate(50.331 10.066)">
          <g id="Group_3682" data-name="Group 3682" transform="translate(28.138 56.523)">
            <path id="Path_4734" data-name="Path 4734" d="M697.49,271.825v0Z" transform="translate(-694.795 -257.3)" fill="#b75742"/>
            <path id="Path_4735" data-name="Path 4735" d="M702.571,254.392c-.384-.53-.752-1.021-1.1-1.482-2.273,1.244-4.844,2.633-7.493,4.069l2.695,10.433c-.077-.392,4.591,10.372,6.334,14.4l9.274-2.795c-1.7-5.981-6.034-19.554-9.719-24.629Z" transform="translate(-693.98 -252.91)" fill="#b75742"/>
          </g>
          <path id="Path_4736" data-name="Path 4736" d="M692.977,268.669l-2.7-10.449c-4.407,2.388-8.445,4.645-12.214,6.787,2.5,6.28,6.956,17.09,8.752,21.819l9.666-2.91a127.618,127.618,0,0,0-3.5-15.239Z" transform="translate(-662.144 -197.62)" fill="#f48c58"/>
          <path id="Path_4737" data-name="Path 4737" d="M681.142,213.26l-5.044,2.349s-3.67,1.451-4.729,1.773c-.092.031,1.42,21.228,2.649,29.127s2.4,9.013,2.4,9.013,7.485-.484,12.545-2.472c5.259-2.065,10.48-6.771,10.48-6.771s-9.681-12.905-11.938-17.2-6.364-15.815-6.364-15.815Z" transform="translate(-660.589 -187.177)" fill="#fff"/>
          <path id="Path_4738" data-name="Path 4738" d="M696.728,179.957c-.322,1.075-3.462,17.757-3.462,17.757l-12.36,8.115-3.186,1.712-.2.161,2.157,1.712a25.748,25.748,0,0,1,6.157,7.071c4.737,8.007,13.366,24.682,13.8,24.621.484-.069,4.077-2.372,3.816-3.271-.123-.407-2.18-4.338-2.557-4.929-3.017-4.722-10.026-16.829-12.652-21.381,1.566-1.29,10.994-9.082,12.207-10.387.914-.983,1.773-21.266,1.773-21.266-.246-1.228-5.412-.192-5.5.092Z" transform="translate(-662.019 -179.286)" fill="#466eb6"/>
          <path id="Path_4739" data-name="Path 4739" d="M669.326,218.62l-6.756,1.773s5.674,13.09,6.779,18.6c1.835,9.159,2.779,19.2,3.278,19.477,2.8.791,9.266-.9,9.566-2,3.34-12.092-12.875-37.857-12.875-37.857Z" transform="translate(-658.546 -188.422)" fill="#466eb6"/>
          <g id="Group_3683" data-name="Group 3683" transform="translate(0 9.894)">
            <path id="Path_4740" data-name="Path 4740" d="M665.521,192.867a2.434,2.434,0,0,0-3.562,2.065,1.812,1.812,0,0,0-1.958,1.5s-2.633.284-1.727,4.015a1.264,1.264,0,0,0-.852,1.773A3.834,3.834,0,0,0,659,204.36s-.461.791.4,1.973a1.757,1.757,0,0,0,1.727.783s1.044,1.773,2.1,2a2.883,2.883,0,0,0,2.05-.522,1.351,1.351,0,0,0,1.635.4c.914-.491,1.712-1.9,2.948-1.935s3.823-1.635,3.823-1.635,2.518-2.695.253-5.474a2.511,2.511,0,0,0-1.167-3.324s-.123-3.2-2.879-3.969a5.849,5.849,0,0,0-4.368.215Z" transform="translate(-657.329 -192.217)" fill="#07345a"/>
            <path id="Path_4741" data-name="Path 4741" d="M673.933,211.852l1.558,2.641s2.549,3.677,1.789,4.913-6.7-2.971-6.7-2.971l-2.618-7.255,5.981,2.672Z" transform="translate(-659.798 -196.123)" fill="#f7a491"/>
            <path id="Path_4742" data-name="Path 4742" d="M668.8,211.529a8.748,8.748,0,0,0,6.449,2.564l-1.32-2.242-5.981-2.672Z" transform="translate(-659.796 -196.123)" fill="#f48c58"/>
            <path id="Path_4743" data-name="Path 4743" d="M657.7,205.288c.453,1.083,1.443,1.7,2.2,1.374a1.886,1.886,0,0,0,.545-2.533c-.453-1.082-1.443-1.7-2.2-1.374A1.886,1.886,0,0,0,657.7,205.288Z" transform="translate(-657.361 -194.61)" fill="#07345a"/>
            <path id="Path_4744" data-name="Path 4744" d="M660.8,197.727c.261.622,1.221.806,2.142.422s1.459-1.205,1.2-1.827-1.221-.806-2.142-.422S660.539,197.1,660.8,197.727Z" transform="translate(-658.12 -192.992)" fill="#07345a"/>
            <path id="Path_4745" data-name="Path 4745" d="M666.591,197.78a4.064,4.064,0,0,1,6.157.914,31.241,31.241,0,0,1,1.819,3.462c1.443,3.247,1.09,7.14-.391,7.769s-6.48.246-8.591-4.338c-1.305-2.825-.967-6.034,1.013-7.808Z" transform="translate(-659.066 -193.237)" fill="#f7a491"/>
            <path id="Path_4746" data-name="Path 4746" d="M666.753,207.859a1.183,1.183,0,1,1-1.62-.852A1.313,1.313,0,0,1,666.753,207.859Z" transform="translate(-658.991 -195.601)" fill="#f7a491"/>
            <path id="Path_4747" data-name="Path 4747" d="M673.244,192.37c2.05.568,3.363,2.188,2.94,3.616s-2.426,2.127-4.468,1.558-3.363-2.188-2.94-3.616S671.2,191.8,673.244,192.37Z" transform="translate(-659.969 -192.173)" fill="#07345a"/>
            <path id="Path_4748" data-name="Path 4748" d="M669.061,195.771c.223.53-.23,1.228-1.021,1.558s-1.6.177-1.827-.353.23-1.228,1.021-1.558S668.839,195.241,669.061,195.771Z" transform="translate(-659.379 -192.886)" fill="#07345a"/>
            <path id="Path_4749" data-name="Path 4749" d="M676.932,198.643a1.321,1.321,0,1,1-1.735-.714A1.326,1.326,0,0,1,676.932,198.643Z" transform="translate(-661.292 -193.486)" fill="#07345a"/>
          </g>
        </g>
        <path id="Path_4750" data-name="Path 4750" d="M646.958,224.764c-1.6-.169-5.389-.384-5.389-.384a11.259,11.259,0,0,0-3.931,1.213v.031l-11.147,5.428,3.4,6.2,6.326-2.027.8,1.781c.43.829,3.808,7.938,4.015,10.318a29.265,29.265,0,0,1-.514,5.766s.023.407,7.286-.215a12.377,12.377,0,0,0,4.89-1.443,33.032,33.032,0,0,1-.852-6.341c-.115-5.205.445-11.577.376-12.36-.107-1.267-3.662-7.792-5.251-7.961Z" transform="translate(-599.834 -179.694)" fill="#fae0b2"/>
        <path id="Path_4751" data-name="Path 4751" d="M645.42,219.043a27.736,27.736,0,0,1,.422,4.9c-.161,1.374,2.15,5.781,5.005,5.927s-1.113-5.558-1.351-6.917a53.192,53.192,0,0,1-.207-5.551l-3.862,1.643Z" transform="translate(-604.232 -178.073)" fill="#f7a491"/>
        <path id="Path_4752" data-name="Path 4752" d="M649.3,219.5c-.015-1.144-.015-2.1-.015-2.1l-3.862,1.643s.123.722.238,1.635A3.227,3.227,0,0,0,649.3,219.5Z" transform="translate(-604.231 -178.073)" fill="#f48c58"/>
        <path id="Path_4753" data-name="Path 4753" d="M652.421,211.648c-.092.775-.522,1.351-.967,1.282s-.722-.745-.63-1.52.522-1.351.967-1.282S652.514,210.873,652.421,211.648Z" transform="translate(-605.483 -176.383)" fill="#f7a491"/>
        <path id="Path_4754" data-name="Path 4754" d="M643.193,206.777a4.676,4.676,0,0,0-2.073,2.557c-.576,1.789-.069,6.495,3.708,7.8s5.512-2.319,4.791-5.251-2.342-6.679-6.434-5.105Z" transform="translate(-603.186 -175.519)" fill="#f7a491"/>
        <path id="Path_4755" data-name="Path 4755" d="M641.9,215.274c.43.7.415,1.5-.046,1.789s-1.175-.046-1.6-.745-.415-1.5.046-1.789S641.466,214.575,641.9,215.274Z" transform="translate(-602.957 -177.382)" fill="#f7a491"/>
        <path id="Path_4756" data-name="Path 4756" d="M635.849,232.739c.092-.146-.414-.576-.56-.852.7.791,1.428,1.743,1.628,1.436a9.831,9.831,0,0,0-.683-1.651c.322.384.937,1.5,1.305,1.159.223-.2-.461-1.512-.867-2.257.284.438,1.136,1.85,1.251,1.681.246-.368-1.474-3.57-1.236-4.215.153-.407-1.474-.837-2.418-.215a3.713,3.713,0,0,0-1.205.975,1.481,1.481,0,0,0-.345.622,1.918,1.918,0,0,0,.491,1.889c.706.729,2.388,1.835,2.641,1.42Z" transform="translate(-601.263 -180.422)" fill="#f8a492"/>
      </g>
      <g id="Group_3689" data-name="Group 3689" transform="translate(0 31.332)">
        <path id="Path_4757" data-name="Path 4757" d="M559.788,207.887s.338.76.468,1.006c.154.284.683,1.113.683,1.113s2.034,2.771,2.234,2.618a1.456,1.456,0,0,0,.438-.952c-.061-.215-.384-.553-.445-.768a.542.542,0,0,1,.322-.63c.269-.092.975.837.975.837a3.6,3.6,0,0,1,.637,1.4,4.562,4.562,0,0,1-.123,2.457,45.034,45.034,0,0,0,3.125,3.8s9.428,9.919,9.934,10.456h.008c-.184.56-.729.906-1.121,1.305-1.121,1.474-1.681,1.359-2.864,2.733-1.367-1.674-10.533-13.811-11.462-15.063,0,0-1.758-1.159-2.833-1.919a11.024,11.024,0,0,1-2.019-2.2,11.641,11.641,0,0,1-1.612-2.334c-.629-1.2.537-.33.537-.33s1.574,2.019,1.72,1.873c.107-.115-.821-1.167-1.528-2.48-.184-.338-.361-.676-.522-.983-.422-.806-.031-1.29.553-.507a8.875,8.875,0,0,1,.722,1.106,7.5,7.5,0,0,0,.745,1,8.961,8.961,0,0,0,.775,1.021c.023-.038.2.023.015-.345-.215-.438-.9-1.274-1.167-1.942-.154-.376-.522-1.152-.522-1.152a7.8,7.8,0,0,1-.261-1.313c.384-.23.867.576,1.006,1.113a6.136,6.136,0,0,1,.637,1.129s1.129,1.512,1.351,1.359a22.189,22.189,0,0,0-.883-2.134c-.376-.99-.583-2.05-.392-2.15.33-.169.868.891.868.891Z" transform="translate(-555.947 -206.986)" fill="#f8a492"/>
        <g id="Group_3688" data-name="Group 3688" transform="translate(6.36 9.574)">
          <g id="Group_3686" data-name="Group 3686" transform="translate(49.962 44.546)">
            <path id="Path_4758" data-name="Path 4758" d="M633.93,296.03v0Z" transform="translate(-630.383 -281.789)" fill="#f7cc7f"/>
            <path id="Path_4759" data-name="Path 4759" d="M637.241,278.785c-.422-.468-.814-.9-1.182-1.305-2.042,1.4-4.361,2.963-6.748,4.576l3.547,9.666c-.092-.3,3.086,5.4,5.528,9.781l9.328-2.894c-2.487-6.08-6.863-15.769-10.464-19.823Z" transform="translate(-629.31 -277.48)" fill="#f7cc7f"/>
          </g>
          <path id="Path_4760" data-name="Path 4760" d="M630,290.324l-4.008-6.894c-3.969,2.687-7.593,5.213-10.978,7.6,2.572,4.983,5.865,11.224,8.076,15.6l11.232-3A106.556,106.556,0,0,0,630,290.316Z" transform="translate(-576.026 -234.316)" fill="#fae0b2"/>
          <path id="Path_4761" data-name="Path 4761" d="M613.235,243.648l-4.906,1.136s-3.654,1.543-4.629,1.95c-.084.038,3.639,20.237,5.551,27.63s3.132,8.345,3.132,8.345,7.071-1.167,11.7-3.532c4.806-2.464,9.328-7.424,9.328-7.424s-9.7-11.339-12.261-15.209-7.931-12.905-7.931-12.905Z" transform="translate(-573.399 -225.074)" fill="#13375b"/>
          <path id="Path_4762" data-name="Path 4762" d="M594.563,241.4s-11.109-7.447-14.51-10.311c-2.787-2.342-9.973-9.858-10.3-10.288s-4.507.752-5.512,1.812c-.269.284,8.161,10.74,11.224,14.026,2.825,3.033,11.946,11.516,11.946,11.516s5.412,5.282,6.986,10.426c2.61,8.537,5.973,21,6.464,21.22,2.741.491,9.6-2.342,9.789-3.409,2.042-11.815-16.068-34.985-16.068-34.985Z" transform="translate(-564.232 -219.748)" fill="#3c8f7c"/>
          <path id="Path_4763" data-name="Path 4763" d="M601.79,239.7l1.5,5.635s6.1,5.789,7.9,4.192c1.512-1.336-1.39-6.265-1.39-6.265a28.93,28.93,0,0,1-1.72-2.365,10.536,10.536,0,0,1-1.351-2.672c-.514-1.912-4.929,1.474-4.929,1.474Z" transform="translate(-572.956 -223.68)" fill="#f7a491"/>
          <path id="Path_4764" data-name="Path 4764" d="M606.719,238.223c-.514-1.912-4.929,1.474-4.929,1.474l.154.56a3.143,3.143,0,0,0,.929.637,7.161,7.161,0,0,0,5.19,0,10.627,10.627,0,0,1-1.351-2.664Z" transform="translate(-572.956 -223.68)" fill="#f48c58"/>
          <g id="Group_3687" data-name="Group 3687" transform="translate(19.884)">
            <path id="Path_4765" data-name="Path 4765" d="M595.508,227.964c-.161.015,2.1,7.67,4.86,8.821s6.664.169,7.255-1.981c.66-2.38-2.9-10.1-6.718-10.848s-5.4,4-5.4,4Z" transform="translate(-591.378 -220.483)" fill="#f7a491"/>
            <path id="Path_4766" data-name="Path 4766" d="M592.641,222.883c-.96.576-2.1,2.771-2.472,5.758-.453,3.662,3.332,6.211,6.073,6.856a4.888,4.888,0,0,1,3.493,2.411l-.069-1.021a5.748,5.748,0,0,0-.737-2.319,4.762,4.762,0,0,0-.921-1.175c-.96-.821.269-2.211.315-3.278.031-.821-.645-2.357-.614-3.7l.246-1.129a4.733,4.733,0,0,0,2.5-2.088c1.9-4.153-4.514-5.635-7.815-.315Z" transform="translate(-590.132 -219.456)" fill="#184655"/>
            <path id="Path_4767" data-name="Path 4767" d="M600.793,234.706c.415.875.33,1.773-.177,2.019s-1.251-.276-1.666-1.152-.33-1.773.177-2.011,1.251.276,1.666,1.152Z" transform="translate(-592.119 -222.719)" fill="#f7a491"/>
          </g>
        </g>
      </g>
      <path id="Path_4768" data-name="Path 4768" d="M624.827,253.711l-6.1-6.971.752-2.618-4.246-1.382-3.5,1.267a74.849,74.849,0,0,1,6.61,8.545c3.562,5.29,16.022,21.7,16.022,21.7s3.37-1.129,3.447-3.109-12.982-17.435-12.982-17.435Z" transform="translate(-568.904 -183.959)" fill="#3c8f7c"/>
    </g>
    <g id="Group_3695" data-name="Group 3695" transform="translate(238.354 173.422)">
      <path id="Path_4769" data-name="Path 4769" d="M375.247,240.865s-5.428-1.328-7.969,4.837-.814,5.374-2.034,8.453-5.528,3.071-4.921,7.5,2.595,4.852,2.595,4.852a8.25,8.25,0,0,0,1.144,6.956c2.38,3.278,7.508,5.673,11.385,4.637,0,0,6.411,2.725,12.115.23s3.631-2.211,6.065-2.549,8.491-4.883,6.672-10.05c0,0,3.278-5.75-1.19-9.458s-5.8-7.915-8.837-13.312-12.514-3.854-15.024-2.1Z" transform="translate(-321.967 -228.889)" fill="#13375b"/>
      <g id="Group_3694" data-name="Group 3694">
        <g id="Group_3691" data-name="Group 3691" transform="translate(63.107 13.606)">
          <path id="Path_4770" data-name="Path 4770" d="M416.011,265.8c3.455-2,11.739-9.965,14.548-12.675a8.95,8.95,0,0,1,2.672-4.614c1.6-1.658,2.963-5.574,3.885-4.391s-1.7,4.207-.576,4.292,7.032-5.865,7.869-4.8-5.121,6.326-4.123,6.4,5.9-5.3,7.086-3.793-6.357,5.8-5.72,6.61,5.32-2.011,6.272-.791-6.579,3.547-5.988,3.593,4.852.161,4.844.983c-.015.929-10.909,1.773-12.322,3.309h0c-3.071,4.345-8.552,12.276-13.85,15.6-6.472,4.069-21.389,12.629-21.389,12.629l-6.641-9.635S411.9,268.171,416,265.8Z" transform="translate(-392.58 -243.483)" fill="#f7a491"/>
          <path id="Path_4771" data-name="Path 4771" d="M449.329,252.478a4.479,4.479,0,0,1,.338,1.758,4.317,4.317,0,0,1-1.6,3.416,7.4,7.4,0,0,0,1.259-5.182Z" transform="translate(-405.469 -245.57)" fill="#f48c7f"/>
        </g>
        <path id="Path_4772" data-name="Path 4772" d="M345.83,290.821l-8.783-14.641-6.817,1.029s4.737,19.393,9.005,21.888,25.143-3.132,25.143-3.132l1.159-13.489-19.715,8.337Z" transform="translate(-314.99 -237.472)" fill="#f79c8d"/>
        <g id="Group_3692" data-name="Group 3692">
          <path id="Path_4773" data-name="Path 4773" d="M362.28,298.21s9.474,12.5,13.228,13.781c2.134.729,8.844,4.583,11.923,3.132,2.449-1.152,3.992-1.666,4.407-1.858.952-.453,2.541,5.712,2.05,6.994,0,0,.108,1.006-1.681,1.85s-14.249-.975-18.418-2.4-16.6-14.034-16.6-14.034l5.09-7.47Z" transform="translate(-321.252 -242.589)" fill="#f7a491"/>
          <path id="Path_4774" data-name="Path 4774" d="M353.668,283.28a14.13,14.13,0,0,1,6.4,4.745c2.272,3,11.393,14.71,11.393,14.71l-12.483,6.725L350.62,298.9l3.048-15.608Z" transform="translate(-319.726 -239.121)" fill="#50bfa5"/>
          <path id="Path_4775" data-name="Path 4775" d="M334.584,276.141c-2.15-.246-7.862,1.129-7.862,1.129s-4.683,20.874-6.994,26.548c-1.543,3.785-1.9,13.044-5.282,18.594,1.067.161-2.825,0-1.735.054l33.5,1.85c1.067-6.833,2.357-15.631,2.795-20.882a102.087,102.087,0,0,0-.914-20.5S336.549,276.364,334.584,276.141Z" transform="translate(-310.876 -237.456)" fill="#96d9c9"/>
          <path id="Path_4776" data-name="Path 4776" d="M314.273,314.643a88.405,88.405,0,0,0-.7,13.834l8.683.476c.438-4.368.96-9.174,1.32-10.679.706-2.933,2.1-12.7,2.1-12.7l-8.33-3.746s-2.541,10.579-3.079,12.813Z" transform="translate(-311.118 -243.43)" fill="#f7a491"/>
          <path id="Path_4777" data-name="Path 4777" d="M328.29,277.333a7.142,7.142,0,0,0-6.618,3.585c-1.988,3.37-7.4,13-8.092,18.164,0,0,12.115,4.568,12.238,4.077s5.958-12.775,5.958-18.763c0-5.221-1.39-6.817-3.478-7.055Z" transform="translate(-311.123 -237.734)" fill="#50bfa5"/>
          <path id="Path_4778" data-name="Path 4778" d="M313.512,232.194a3.5,3.5,0,0,0,1.558,4.56c2.917,1.789,7.455-8.483,9.765-10.172s7.9-.96,9.712,3.961a17.829,17.829,0,0,1,1.259,4.307c.015.384-.123.33-.123.33l-1.228,1.336s-2.357-2.265-4.1.422.161,8.222-3.416,11.585-7.693-.614-7.693-.614c-4.6,1.628-8.23-3.416-8.806-7.5S313.5,232.2,313.5,232.2Z" transform="translate(-310.38 -225.761)" fill="#f47458"/>
          <path id="Path_4779" data-name="Path 4779" d="M348.315,263.26l-1.466,4.215-5.589,5.681s5.673,11.109,8.629,9.489c.66-.361,4.376-9.789,4.376-9.789l-5.95-9.6Z" transform="translate(-317.552 -234.471)" fill="#f7a491"/>
          <path id="Path_4780" data-name="Path 4780" d="M348.18,267.477l-1.19,1.274a30.242,30.242,0,0,0,7.355,7.217c.706-1.72,1.251-3.1,1.251-3.1l-5.95-9.6-1.466,4.215Z" transform="translate(-318.883 -234.473)" fill="#f48c7f"/>
          <path id="Path_4781" data-name="Path 4781" d="M359.438,246.984a28.912,28.912,0,0,1,2.165,3.539c3.086,7.232-3.509,18.441-6.134,18.871-3.969.66-8.169-2.518-12.621-7.247s-4.775-10.74,1.236-14.449,15.354-.714,15.354-.714Z" transform="translate(-317.151 -230.425)" fill="#f7a491"/>
          <path id="Path_4782" data-name="Path 4782" d="M341.861,240.143l1.758-.983c5.643,1.359,10.932-.852,16.475,3.977,3.654,3.186,1.205,5.842,1.205,5.842-15.485-3.716-12.729,9.412-15.754,13.642s-12.43-8.752-3.685-22.479Z" transform="translate(-316.848 -228.873)" fill="#f47458"/>
          <path id="Path_4783" data-name="Path 4783" d="M351.793,259.985s.714-3.923-1.927-3.746-2.127,6.464-.038,6.748,1.965-3.009,1.965-3.009Z" transform="translate(-319.134 -232.839)" fill="#f7a491"/>
          <path id="Path_4784" data-name="Path 4784" d="M342.535,236.52s2,1.958,2.963,2.065-2.119,2.487-3.455,2.487-.606-1.067-.775-1.528-1.228-.392-1.382-.737c-.353-.8,1.52-2.418,2.649-2.28Z" transform="translate(-317.223 -228.26)" fill="#50bfa5"/>
        </g>
        <g id="Group_3693" data-name="Group 3693" transform="translate(44.659 13.654)">
          <path id="Path_4785" data-name="Path 4785" d="M403.835,328.076l-6.38-46.017a81.838,81.838,0,0,0-14.142-.115,53.813,53.813,0,0,0-8.867,1.819s-3.263,10.748-3.5,19.216c-.131,4.583-1.328,14.771-2.4,23.147Z" transform="translate(-368.55 -252.406)" fill="#b75742"/>
          <path id="Path_4786" data-name="Path 4786" d="M381.752,272.386s1.1,6.434.553,7.125a2.326,2.326,0,0,0-.146,3.232c1.136,1.413,5.013-.123,6.764-1.267a8.906,8.906,0,0,0,2.618-2.833l-2.357-10.1-7.432,3.839Z" transform="translate(-371.572 -249.352)" fill="#f79c8d"/>
          <path id="Path_4787" data-name="Path 4787" d="M384.84,274.689a9.436,9.436,0,0,0,4.722-4.737l-.33-1.413-7.432,3.839s.269,1.566.476,3.24a9.2,9.2,0,0,0,2.564-.937Z" transform="translate(-371.628 -249.352)" fill="#f47458"/>
          <path id="Path_4788" data-name="Path 4788" d="M391.948,257.735s-.338-3.823,2.18-3.424,1.474,6.4-.56,6.48-1.628-3.056-1.628-3.056Z" transform="translate(-373.976 -246.04)" fill="#f79c8d"/>
          <path id="Path_4789" data-name="Path 4789" d="M377.812,243.879s-3.793.445-5.328,3.547-2.518,11.516,1.451,16.667,7.854,3.209,9.451,2.411,4.745-2.518,5.7-7.984-1.9-17.059-11.278-14.648Z" transform="translate(-369.152 -243.546)" fill="#f79c8d"/>
        </g>
        <path id="Path_4790" data-name="Path 4790" d="M335.213,273.891a48.684,48.684,0,0,0-5.006-.921c-1.359-.077-3.309,2.795-3.347,3.4s2,5.382,2.572,5.412.131-3.685.131-3.685,1.735,4.368,2.733,3.846-.852-4.729-.852-4.729,1.835,4.43,2.38,4.276-.583-5.067-.583-5.067,1.512,4.476,2.434,4.1-.768-4.315-.768-4.315,1.152,1.205,1.919,1.013-1.612-3.332-1.612-3.332Z" transform="translate(-314.207 -236.726)" fill="#f79c8d"/>
      </g>
    </g>
    <g id="Group_3697" data-name="Group 3697" transform="translate(31.177 70.097)">
      <rect id="Rectangle_139" data-name="Rectangle 139" width="124.702" height="110.568" transform="translate(41.634 11.779) rotate(22.12)" fill="#466eb6"/>
      <path id="Path_4791" data-name="Path 4791" d="M182.565,233.623a2.091,2.091,0,0,0-1.175-1.29c-1.474-.6-2.365,1.052-4.491.184s-1.628-2.679-3.086-3.27a2.082,2.082,0,0,0-1.743.1,3.365,3.365,0,0,1-4.668-1.9,2.069,2.069,0,0,0-1.175-1.29c-1.474-.6-2.365,1.052-4.491.192s-1.6-2.664-3.086-3.271a2.082,2.082,0,0,0-1.743.1,3.365,3.365,0,0,1-4.668-1.9,2.028,2.028,0,0,0-2.917-1.19,3.355,3.355,0,0,1-4.66-1.9,2.069,2.069,0,0,0-1.175-1.29.7.7,0,0,1,.53-1.3c2.1.86,1.628,2.679,3.086,3.271a2.082,2.082,0,0,0,1.743-.1,3.37,3.37,0,0,1,4.668,1.9,2.069,2.069,0,0,0,1.175,1.29c1.474.6,2.365-1.052,4.491-.192s1.628,2.672,3.086,3.271a2.082,2.082,0,0,0,1.743-.1,3.355,3.355,0,0,1,4.66,1.9,2.028,2.028,0,0,0,2.917,1.19,3.365,3.365,0,0,1,4.668,1.9,2.028,2.028,0,0,0,2.917,1.19,3.37,3.37,0,0,1,4.668,1.9,2.091,2.091,0,0,0,1.175,1.29c1.474.6,2.372-1.052,4.5-.184a.7.7,0,0,1-.53,1.3,2.082,2.082,0,0,0-1.743.1,3.365,3.365,0,0,1-4.668-1.9Z" transform="translate(-64.336 -120.065)" fill="#86b1f2"/>
      <path id="Path_4792" data-name="Path 4792" d="M129.307,240.893a2.091,2.091,0,0,0-1.175-1.29c-1.474-.6-2.365,1.052-4.491.184s-1.628-2.679-3.086-3.27a2.082,2.082,0,0,0-1.743.1,3.355,3.355,0,0,1-4.66-1.9,2.069,2.069,0,0,0-1.175-1.29c-1.474-.6-2.365,1.052-4.491.192s-1.6-2.664-3.086-3.27a2.082,2.082,0,0,0-1.743.1,3.365,3.365,0,0,1-4.668-1.9,2.028,2.028,0,0,0-2.917-1.19,3.355,3.355,0,0,1-4.66-1.9,2.069,2.069,0,0,0-1.175-1.29.7.7,0,0,1,.53-1.3c2.1.852,1.628,2.672,3.086,3.271a2.082,2.082,0,0,0,1.743-.1,3.37,3.37,0,0,1,4.668,1.9,2.069,2.069,0,0,0,1.175,1.29c1.474.6,2.365-1.052,4.491-.184s1.628,2.672,3.086,3.271a2.082,2.082,0,0,0,1.743-.1,3.355,3.355,0,0,1,4.66,1.9,2.028,2.028,0,0,0,2.917,1.19,3.37,3.37,0,0,1,4.668,1.9,2.028,2.028,0,0,0,2.917,1.19,3.37,3.37,0,0,1,4.668,1.9,2.091,2.091,0,0,0,1.175,1.29c1.474.6,2.372-1.052,4.5-.184a.7.7,0,0,1-.53,1.3,2.082,2.082,0,0,0-1.743.1,3.365,3.365,0,0,1-4.668-1.9Z" transform="translate(-51.968 -121.753)" fill="#86b1f2"/>
      <path id="Path_4793" data-name="Path 4793" d="M90.022,237.821a2.069,2.069,0,0,0-1.175-1.29c-1.474-.6-2.365,1.052-4.491.184s-1.628-2.679-3.094-3.271a2.082,2.082,0,0,0-1.743.1,3.365,3.365,0,0,1-4.668-1.9,2.069,2.069,0,0,0-1.175-1.29c-1.474-.6-2.365,1.052-4.491.184s-1.6-2.664-3.086-3.271a2.082,2.082,0,0,0-1.743.1,3.365,3.365,0,0,1-4.668-1.9,2.028,2.028,0,0,0-2.917-1.19,3.355,3.355,0,0,1-4.66-1.9,2.069,2.069,0,0,0-1.175-1.29.7.7,0,0,1,.53-1.3c2.1.86,1.628,2.679,3.086,3.271a2.082,2.082,0,0,0,1.743-.1,3.37,3.37,0,0,1,4.668,1.9,2.069,2.069,0,0,0,1.175,1.29c1.474.6,2.365-1.052,4.491-.192s1.628,2.679,3.086,3.271a2.082,2.082,0,0,0,1.743-.1,3.355,3.355,0,0,1,4.66,1.9,2.028,2.028,0,0,0,2.917,1.19,3.365,3.365,0,0,1,4.668,1.9,2.028,2.028,0,0,0,2.917,1.19,3.365,3.365,0,0,1,4.668,1.9,2.091,2.091,0,0,0,1.175,1.29c1.474.6,2.372-1.052,4.5-.184a.7.7,0,0,1-.53,1.3,2.082,2.082,0,0,0-1.743.1,3.37,3.37,0,0,1-4.668-1.9Z" transform="translate(-42.839 -121.038)" fill="#86b1f2"/>
      <path id="Path_4794" data-name="Path 4794" d="M96.065,227.383a2.091,2.091,0,0,0-1.175-1.29c-1.474-.6-2.365,1.052-4.491.184s-1.628-2.679-3.086-3.271a2.082,2.082,0,0,0-1.743.1,3.365,3.365,0,0,1-4.668-1.9,2.069,2.069,0,0,0-1.175-1.29c-1.474-.6-2.365,1.052-4.491.192s-1.6-2.664-3.086-3.271a2.082,2.082,0,0,0-1.743.1,3.365,3.365,0,0,1-4.668-1.9,2.028,2.028,0,0,0-2.917-1.19,3.355,3.355,0,0,1-4.66-1.9,2.069,2.069,0,0,0-1.175-1.29.7.7,0,0,1,.53-1.3c2.1.86,1.628,2.672,3.086,3.27a2.082,2.082,0,0,0,1.743-.1,3.37,3.37,0,0,1,4.668,1.9,2.069,2.069,0,0,0,1.175,1.29c1.474.6,2.365-1.052,4.491-.184s1.628,2.672,3.086,3.271a2.082,2.082,0,0,0,1.743-.1,3.355,3.355,0,0,1,4.66,1.9,2.028,2.028,0,0,0,2.917,1.19,3.37,3.37,0,0,1,4.668,1.9,2.028,2.028,0,0,0,2.917,1.19,3.371,3.371,0,0,1,4.668,1.9,2.091,2.091,0,0,0,1.175,1.29c1.474.6,2.372-1.052,4.5-.184a.7.7,0,0,1-.53,1.3,2.082,2.082,0,0,0-1.743.1,3.365,3.365,0,0,1-4.668-1.9Z" transform="translate(-44.245 -118.615)" fill="#86b1f2"/>
      <path id="Path_4795" data-name="Path 4795" d="M165.3,234.466a4.9,4.9,0,0,1-3.278-.192c-2.733-1.113-2.119-2.871-4.33-3.777s-3.017.791-5.735-.315-2.111-2.871-4.322-3.77-3.033.783-5.735-.315-2.111-2.871-4.33-3.77-3.017.791-5.735-.315-2.119-2.871-4.33-3.777a3.559,3.559,0,0,0-2.449-.123,5.054,5.054,0,0,1-5.766-2.342,3.521,3.521,0,0,0-1.843-1.62.7.7,0,0,1,.53-1.3,4.894,4.894,0,0,1,2.487,2.15,3.665,3.665,0,0,0,4.292,1.743c6.364-1.4,4.783,5.244,10.057,4.092a4.9,4.9,0,0,1,3.278.192c2.733,1.113,2.111,2.871,4.33,3.77s3.033-.783,5.735.315,2.1,2.871,4.322,3.77,3.033-.783,5.735.315,2.119,2.871,4.33,3.777,3.033-.783,5.735.315,2.119,2.871,4.33,3.777,3.033-.783,5.735.315a.7.7,0,0,1-.53,1.3,3.58,3.58,0,0,0-2.457-.123c-6.257,1.374-4.814-5.244-10.065-4.092Z" transform="translate(-58.288 -119.425)" fill="#86b1f2"/>
      <path id="Path_4796" data-name="Path 4796" d="M172.246,271.092c-2.426-.983-1.827-2.756-3.677-3.509s-2.7.914-5.082-.054-1.835-2.756-3.677-3.508a2.7,2.7,0,0,0-2.081,0,4.107,4.107,0,0,1-5.182-2.1,2.706,2.706,0,0,0-1.489-1.451c-1.8-.729-2.7.914-5.082-.054s-1.835-2.764-3.677-3.508-2.649.937-5.082-.054-1.835-2.764-3.677-3.509-2.656.937-5.082-.054-1.835-2.764-3.677-3.508a.7.7,0,0,1,.53-1.3c2.418.983,1.835,2.764,3.677,3.509s2.656-.937,5.082.054,1.835,2.764,3.677,3.508a2.7,2.7,0,0,0,2.081,0,4.11,4.11,0,0,1,5.182,2.1,2.7,2.7,0,0,0,1.5,1.451c1.8.729,2.7-.914,5.082.054,2.418.983,1.835,2.764,3.677,3.508a2.7,2.7,0,0,0,2.081,0,4.108,4.108,0,0,1,5.182,2.1,2.774,2.774,0,0,0,3.578,1.451,4.114,4.114,0,0,1,5.182,2.111,2.779,2.779,0,0,0,3.585,1.451,4.108,4.108,0,0,1,3,.054.7.7,0,1,1-.53,1.3,2.723,2.723,0,0,0-2.088,0,4.108,4.108,0,0,1-3-.054Z" transform="translate(-59.991 -127.7)" fill="#86b1f2"/>
      <rect id="Rectangle_140" data-name="Rectangle 140" width="124.702" height="73.817" transform="translate(46.454 0) rotate(22.12)" fill="#9bc1f9"/>
      <rect id="Rectangle_141" data-name="Rectangle 141" width="124.533" height="2.741" transform="translate(12.457 83.556) rotate(22.12)" fill="#fae0b2"/>
      <rect id="Rectangle_142" data-name="Rectangle 142" width="1.19" height="31.623" transform="translate(98.66 120.073) rotate(22.12)" fill="#fae0b2"/>
      <path id="Path_4797" data-name="Path 4797" d="M128.44,224.54l-1.75,1.827s.238.937.4,1.328,19.086,7.754,19.086,7.754.576.054,1.029,1.136-.123,2.434.084,3.77-.576,3.915-.269,4.046.975.1,1.274-1.213.614-2.441.983-2.288.061,2.15.061,2.15-1.973,4.13-1.535,4.576.722.146.722.146l1.136-2.134s-.99,2.073-.507,2.272,3.194-8.146,3.3-8.414-3.869-6.426-3.869-6.426l-16.03-8.076-4.115-.438Z" transform="translate(-60.536 -122.152)" fill="#f79c8d"/>
      <path id="Path_4798" data-name="Path 4798" d="M132.658,192.67a14.737,14.737,0,0,1,1.044,6.7c-.23,4.092-1.858,18.21-1.858,18.21l-5.873,1.866-2.342-18.134,9.028-8.637Z" transform="translate(-59.826 -114.749)" fill="#f47458"/>
      <path id="Path_4799" data-name="Path 4799" d="M68.813,228.95l-2.633,2.771-2.15.883-3.155,5.4-2.034,5L70.6,247.782l11.524-12.168Z" transform="translate(-44.777 -123.176)" fill="#13375b"/>
      <path id="Path_4800" data-name="Path 4800" d="M113.638,196.666c1.075-1.82,6.226-14.664,6.487-16.99s-1.251-6.426-1.251-6.426l-8.545,7.984-2.549,10.633Z" transform="translate(-56.144 -110.239)" fill="#50bfa5"/>
      <path id="Path_4801" data-name="Path 4801" d="M97.424,160.313s-14.94-.491-17.742,3.071-9.965,47.261-9.965,47.261L65.11,216.5l19.554,8.744s11.524-27.285,14.809-33.5c3.255-6.157,9.5-21.5,9.5-21.5l-11.539-9.927Z" transform="translate(-46.233 -107.228)" fill="#96d9c9"/>
      <path id="Path_4802" data-name="Path 4802" d="M104.432,152.128l-1.482,7.232s1.628,10.211,4.583,10c2.48-.177,3.324-7.163,3.324-7.163s-.054-1.72.084-3.6a13.247,13.247,0,0,1,.676-3.624c.929-2.249-7.186-2.848-7.186-2.848Z" transform="translate(-55.022 -105.331)" fill="#f7a491"/>
      <path id="Path_4803" data-name="Path 4803" d="M112.37,155.162c.929-2.249-5.911-2.242-5.911-2.242l-.269.66a3.943,3.943,0,0,0,.43,1.313,8.785,8.785,0,0,0,5.075,3.877A13.129,13.129,0,0,1,112.37,155.162Z" transform="translate(-55.775 -105.516)" fill="#f48c58"/>
      <g id="Group_3696" data-name="Group 3696" transform="translate(45.529 29.412)">
        <path id="Path_4804" data-name="Path 4804" d="M120.787,137.723s.353,4.86-1.152,7.938a17.722,17.722,0,0,1-3.278,4.752L113.9,137.17l6.887.56Z" transform="translate(-103.095 -131.27)" fill="#184655"/>
        <path id="Path_4805" data-name="Path 4805" d="M108.49,136.986c-.154-.131-5.021,8.545-3.662,12s5.635,6.1,8.069,4.768c2.695-1.474,6.495-11.362,3.854-15.408s-8.268-1.351-8.268-1.351Z" transform="translate(-100.932 -131.025)" fill="#f7a491"/>
        <path id="Path_4806" data-name="Path 4806" d="M109.771,129.719a16,16,0,0,0-7.47,3.562c-3.67,2.779-2.649,8.368-.844,11.378s.883,5.213.883,5.213l.86-.944c.66-.783.944-5.228.906-5.819-.1-1.574-.107-1.9.883-2.795.76-.683,1.474-2.725,2.7-3.869l4.008,1.244a8.571,8.571,0,0,0,4.4.054c5.351-1.912,1.29-9.7-6.318-8.023Z" transform="translate(-99.826 -129.485)" fill="#184655"/>
        <path id="Path_4807" data-name="Path 4807" d="M106.182,144.752c-.092,1.2-.737,2.127-1.436,2.073s-1.182-1.075-1.09-2.272.737-2.127,1.436-2.073S106.275,143.554,106.182,144.752Z" transform="translate(-100.713 -132.503)" fill="#f7a491"/>
      </g>
      <path id="Path_4808" data-name="Path 4808" d="M81.6,202.91l-2.165,2.027s-8.89,10.656-9.727,11.431-3.363,3.624-3.363,3.624l-3.723,4.077s-2.365,6.411-2.457,6.733c-.66,2.211.676,2.173.53,2.234l1.75-3.34,2.027-2.917,1.965-1.113s-.676,3.908-.023,4.176,2.058-4.583,2.349-5.3.384-3.585.952-4.115S86.42,207.5,86.42,207.5l.038-2.61-4.875-1.981Z" transform="translate(-45.041 -117.128)" fill="#f79c8d"/>
      <path id="Path_4809" data-name="Path 4809" d="M90.474,222.27s-6.679,4.814-9.359,8.391-6.956,15.577-6.956,15.577l64.213,26.1s.269-4.192-7.531-10.587-14.617-7.854-16.782-14.587-9.174-12-10.318-14.71a6.762,6.762,0,0,1-.246-4.883l-13.028-5.3Z" transform="translate(-48.335 -121.625)" fill="#3c8f7c"/>
      <path id="Path_4810" data-name="Path 4810" d="M104.259,184.279s-6.042,18.4-6.9,20.5S93.91,211.5,93.91,211.5l14.356,7.032s6.426-9.343,7.946-10.871,4.491-2.956,5.512-5.466,4.031-13.6,4.031-13.6-7-8.944-8.844-9.988-7.723-3.493-7.723-3.493l-4.921,9.174Z" transform="translate(-52.923 -110.673)" fill="#f7cc7f"/>
      <path id="Path_4811" data-name="Path 4811" d="M73.115,188.51s-2.334,17.335-1.589,18,18.1,6.948,19.27,7.9,5.343,3.908,6.495,4.015,5.067.622,6.211-.284-2.1-.553-2.825-.553,3.762-.292,4.23-.491,1.958-.891,1.727-1.451-2.119.514-3.363.545-3.079,0-3-.177,3.432-.215,3.831-.384,2.6-.737,2.779-1.175.384-.952-.737-.837-4.13.683-4.745.583,2.311-1.374,2.687-1.535.891-.714-.376-.99-6.587.43-7.485.061-14.579-10.595-14.579-10.595l3.616-11.616L73.115,188.51Z" transform="translate(-47.689 -113.783)" fill="#f48c7f"/>
      <path id="Path_4812" data-name="Path 4812" d="M107.436,174.817s-2.219-1.819-4.169-.384-16.9,22.287-16.9,22.287l6.272,4.537,10.541-14.51,4.253-11.938Z" transform="translate(-51.171 -110.385)" fill="#f7cc7f"/>
      <path id="Path_4813" data-name="Path 4813" d="M85.543,185.259s5.5-11,5.151-15.838-3.984-8.376-9.059-6.234-8.875,19.577-8.875,19.577Z" transform="translate(-48.01 -107.752)" fill="#50bfa5"/>
      <path id="Path_4814" data-name="Path 4814" d="M146.523,162.248s-4.008-10.426-13.98-9.612a10.8,10.8,0,0,0-9.075,6.219,19.08,19.08,0,0,0-2.111,10.134c.415,3.954,2.71,7.178,5.627,9.758,4.913,4.353,11.009,4.476,16.921,6.879s.545,9.812,5.006,13.712,19.216,1.866,24.851-5.8c6.787-9.228,7.447-21.949-3.969-25.757-9.443-3.155-21.819-2.787-23.27-5.528Z" transform="translate(-59.28 -105.44)" fill="#13375b"/>
      <path id="Path_4815" data-name="Path 4815" d="M126.7,173.96s-3.393,6.633-4.936,8.23-4.215,8.5-.568,11.424,7.148-5.9,8.146-7.869,3.9-8.56,3.9-8.56l-6.541-3.217Z" transform="translate(-58.835 -110.403)" fill="#f7a491"/>
      <path id="Path_4816" data-name="Path 4816" d="M127.54,175.966a8.022,8.022,0,0,0,.99,1.85,5.588,5.588,0,0,0,5.144,2.672c.806-1.789,1.466-3.3,1.466-3.3L128.6,173.97s-.43.844-1.059,2Z" transform="translate(-60.734 -110.406)" fill="#f47458"/>
      <path id="Path_4817" data-name="Path 4817" d="M136.437,156.914a7.752,7.752,0,0,0-5.221,1.274c-2.5,1.727-6.618,8.668-2.864,13.957s9.819,1.881,11.7-2.549,3.34-10.771-3.616-12.683Z" transform="translate(-60.572 -106.432)" fill="#f7a491"/>
      <path id="Path_4818" data-name="Path 4818" d="M146.181,170.9c-.576,1.106-1.574,1.735-2.219,1.4s-.7-1.512-.123-2.618,1.574-1.735,2.219-1.4S146.757,169.795,146.181,170.9Z" transform="translate(-64.427 -109.064)" fill="#f7a491"/>
      <path id="Path_4819" data-name="Path 4819" d="M136.822,156.415s-6.08,5.842-9.136,5.343-4.476,3.109-4.476,3.109,3.432-8.268,6.825-9.105A11.9,11.9,0,0,1,136.822,156.415Z" transform="translate(-59.728 -106.117)" fill="#13375b"/>
      <path id="Path_4820" data-name="Path 4820" d="M128.728,165.724c-.1,1.305-.906,2.311-1.789,2.242s-1.52-1.19-1.413-2.5.906-2.311,1.789-2.242S128.835,164.419,128.728,165.724Z" transform="translate(-60.263 -107.91)" fill="#f7a491"/>
    </g>
  </g>
</svg>
