<svg id="縦組み_000000" data-name="縦組み #000000" xmlns="http://www.w3.org/2000/svg" width="126.87" height="109" viewBox="0 0 126.87 109">
  <g id="Group_3474" data-name="Group 3474" transform="translate(3.604 55.648)">
    <path id="Path_3743" data-name="Path 3743" d="M42.235,114.374c.447.645-.335,1.849,1.392,2.042a2.145,2.145,0,0,0,2.479-1.346c.107-.67.173-3.012-3.058-4.211s-9-2.281-19.292.183-14.517,7-15.66,8.924-1.884,4.262,1.153,7.228,11.088,5.161,16.472,6.659,7.705,3.012,7.68,4.191-2.971,3.586-9.534,4.15-5.542-2.657-8.071-1.971-1.808,2.464.03,3.352,5.821,2.23,12.693.6,8.711-5.323,8.645-6.639-1.123-3.19-4.211-4.384-12.9-3.972-15.858-5.262-6.679-2.784-6.1-6.161,8.97-6.974,11.586-7.609,7-2,12.135-1.818,6.872,1.138,7.518,2.062Z" transform="translate(-7.101 -109.557)"/>
    <path id="Path_3744" data-name="Path 3744" d="M155.815,162.105c2.585.676,5.785-.325,7.02-.838a26.975,26.975,0,0,0,4.444-2.6c.376-.381.041-3.058-.965-2.118a16.5,16.5,0,0,1-4.851,3.444,5.69,5.69,0,0,1-4.693.066,2.97,2.97,0,0,1-1.91-3.749c.249-1.214-1.31-2.1-2.773-1.26s-2.763,3.159-5.374,4.124-7.137,1.859-8.66.381.726-5,2.514-6.227a13.616,13.616,0,0,1,4.241-2.184c1.859-.63,4.236-.239,4.394.742.03.188-.208,1.793,1.956,1.641a1.787,1.787,0,0,0,1.742-2.479c-.168-.543-.833-3.241-5.43-2.738a15.919,15.919,0,0,0-10.784,5.892c-2.367,2.773-4.485,6.9.183,8.462s10.443-.615,11.3-1.031a21.735,21.735,0,0,0,3.144-1.92,9.12,9.12,0,0,0,4.5,2.4Z" transform="translate(-69.588 -128.595)"/>
    <path id="Path_3745" data-name="Path 3745" d="M216.6,149.708c-1.092-3.784-9.874-5.6-16.9-.422a9.017,9.017,0,0,1,1.361-3.1c.513-.853,1.244-2.26-.437-2.331s-2.631,1-3.617,3.322a96.527,96.527,0,0,0-4.48,18.2c-1.255,8.234-.823,14.507,1.7,14.405s2.423-1.214,2.235-1.691-1.107-2.22-.493-10.525,1.783-10.362,1.783-10.362a9.667,9.667,0,0,0,10.682,3.408c3.363-.909,6.3-2.631,7.909-6.024a6.708,6.708,0,0,0,.254-4.881Zm-9.234,9.011c-6.7,1.5-9.2-3.454-8.711-4.429.7-1.387,3.53-3.789,6.725-4.739,4.592-1.371,9.036-.193,9.036,3.3C214.418,155.458,210.964,157.917,207.368,158.719Z" transform="translate(-98.009 -126.433)"/>
    <path id="Path_3746" data-name="Path 3746" d="M99.386,162.58c-3.418.67-3.906-2.646-6.542-5.161s-5.14-1.89-7.35-.31c-2.5,1.788-5.638,4.734-5.811,4.587a4.872,4.872,0,0,1-.95-2.606,16.86,16.86,0,0,1,.828-6.624c.462-1.224.02-1.453-1.341-1.437s-1.864,1.189-2.387,3.51c-.239,1.062-1.473,6.116.762,8.508,3.164,3.383,4.988.452,8.447-2.438s4.231-1.524,5.323-.6,3.215,4.267,5.953,4.5a11.212,11.212,0,0,0,5.821-1.107,26.974,26.974,0,0,0,4.444-2.6c.376-.381.041-3.058-.965-2.118a16.5,16.5,0,0,1-4.851,3.444,7.29,7.29,0,0,1-1.382.457h0Z" transform="translate(-40.648 -129.964)"/>
  </g>
  <g id="Group_3475" data-name="Group 3475" transform="translate(53.146 52.492)">
    <path id="Path_3747" data-name="Path 3747" d="M105.785,113.581c-.157.518-.975,2.987.508,4.165s3.881,1.422,7.9-.543-.279-1.082-.279-1.082a13.1,13.1,0,0,1-3.246,1.285,2.394,2.394,0,0,1-2.946-1.529,6.437,6.437,0,0,1,.538-3.307c.31-.594.01-.711-.889-.7s-1.239.584-1.59,1.717Z" transform="translate(-105.021 -107.538)"/>
    <path id="Path_3748" data-name="Path 3748" d="M124.293,115.8a6.313,6.313,0,0,1,.549-3.241c.3-.584.01-.711-.889-.7s-1.239.584-1.59,1.717c-.157.518-.98,2.992.508,4.165,2.108,1.656,3.322.223,5.623-1.194s2.814-.747,3.54-.295,2.118,2.1,3.937,2.22a18.647,18.647,0,0,0,5.77-.8c2.042-.533,2.306-.914,2.169-1.4s-.762-.391-1.661-.117a23.2,23.2,0,0,1-4.069.874c-2.276.33-2.748-.8-4.5-2.032a4.373,4.373,0,0,0-4.891-.152c-1.666.874-3.754,2.316-3.865,2.245a2.117,2.117,0,0,1-.635-1.275Z" transform="translate(-113.177 -107.533)"/>
    <path id="Path_3749" data-name="Path 3749" d="M106.756,105.327c-.356.051-1.671.2-1.986-.132s-.03-.721.376-.97a2.023,2.023,0,0,1,1.143-.284,2.938,2.938,0,0,0,1.377-.183,2.324,2.324,0,0,1,1.773-.335c.66.234.1.98-.356,1.184a10.842,10.842,0,0,1-2.321.721Z" transform="translate(-104.635 -103.343)"/>
  </g>
  <g id="Group_3476" data-name="Group 3476">
    <path id="Path_3750" data-name="Path 3750" d="M.262,32.259c-.8-2.179.345-3.672,2.524-4.191l3.271-.747c2.011-.457,3.043.4,4.246,2.24,1.2,1.778,3.154,2.7,5.912,2.7s4.709-.919,4.709-2.87c0-.975-.518-2.24-3.388-3.159L13,24.508c-1.95-.63-11.708-3.215-11.825-11.769C1.176,4.993,7.723,0,16.506,0c6.2,0,10.56,2.469,13.145,7.06,1.2,2.067.229,3.789-2.011,4.419l-3.1.863c-1.95.574-3.043-.229-4.475-1.839a4.261,4.261,0,0,0-3.327-1.321c-1.95,0-3.789.8-3.789,2.524,0,1.148.8,2.179,3.271,3.043L20.7,16.3c8.955,3.1,11.769,7,11.937,12.683,0,8.554-7.69,12.455-16.417,12.455C8.3,41.438,2.553,38.167.257,32.254Z" transform="translate(-0.005)"/>
    <path id="Path_3751" data-name="Path 3751" d="M74.065,37.979V4.684A3.09,3.09,0,0,1,77.509,1.24h5.166a3.09,3.09,0,0,1,3.444,3.444v26.4H100.7a3.09,3.09,0,0,1,3.444,3.444v3.444a3.09,3.09,0,0,1-3.444,3.444H77.5a3.09,3.09,0,0,1-3.444-3.444Z" transform="translate(-36.445 -0.61)"/>
    <path id="Path_3752" data-name="Path 3752" d="M145.6,37.979V4.684a3.09,3.09,0,0,1,3.444-3.444h5.166a3.09,3.09,0,0,1,3.444,3.444v33.29a3.09,3.09,0,0,1-3.444,3.444h-5.166a3.09,3.09,0,0,1-3.444-3.444Z" transform="translate(-71.647 -0.61)"/>
    <path id="Path_3753" data-name="Path 3753" d="M216.974,15.533c0,7.69-5.049,13.6-14.349,13.6h-7.462v8.838a3.09,3.09,0,0,1-3.444,3.444h-5.166a3.09,3.09,0,0,1-3.444-3.444V4.684a3.09,3.09,0,0,1,3.444-3.444h16.071C211.981,1.24,216.974,7.843,216.974,15.533Zm-12.053.117a3.855,3.855,0,0,0-3.561-4.074h-6.2v7.98h6.2a3.8,3.8,0,0,0,3.561-3.9Z" transform="translate(-90.104 -0.61)"/>
  </g>
</svg>
