<svg xmlns="http://www.w3.org/2000/svg" xmlns:xlink="http://www.w3.org/1999/xlink" width="921.78" height="503.867" viewBox="0 0 921.78 503.867">
  <defs>
    <clipPath id="clip-path">
      <path id="Path_3842" data-name="Path 3842" d="M508.835,243.874s11.738,9.254,32.9,4.606,22.127-9.361,22.127-9.361l18.121,5.33,11.352,21.058s8.514,18.064,8.514,19.61S597.2,310.4,597.2,310.4l7.485,83.088s-13.293,18.064-47.932,22.7-56.207-8.777-56.207-8.777V257.768l-2.172-12.9,10.447-1Z" transform="translate(-498.38 -239.12)" fill="none"/>
    </clipPath>
  </defs>
  <g id="friends" transform="translate(-0.002)">
    <g id="Layer_2" data-name="Layer 2" transform="translate(0.002 0)">
      <g id="Layer_2-2" data-name="Layer 2">
        <path id="Path_3754" data-name="Path 3754" d="M207.462,505.927c44.608,3.529,91.1-.749,137.132-1.39,117.99-1.645,236.112-3.825,354.012,2.328,47.356,2.468,97.763.14,139.015-25.928,44.995-28.428,70.569-80.695,78.943-133.257,8.744-54.923,7.732-123.477-12.577-175.447C832.258-11.4,591.185,4.066,448.649,84.341c-29.991,16.9-61.084,34.548-95.312,40.981-35.617,6.688-63.075-10.381-95.024-23.427-44.666-18.236-96.422-19.594-141.162-1.538C-27.515,158.726-34.392,360.874,75.529,455.38c40.051,34.441,84.947,46.829,131.933,50.547Z" transform="translate(-0.002 -4.864)" fill="#288cd2" opacity="0.09"/>
        <g id="Group_3491" data-name="Group 3491" transform="translate(470.021 55.831)">
          <g id="Group_3484" data-name="Group 3484">
            <path id="Path_3755" data-name="Path 3755" d="M678.978,274.847l2.649-15.061L643.714,199.31a14.816,14.816,0,0,1-2.723-5.158l-19.676-65.864-18.936-.1,11.08,73.834a84.869,84.869,0,0,0,7.88,25.344l46.081,79.14,11.557-31.653Z" transform="translate(-576.9 -78.576)" fill="#f3b2a7"/>
            <g id="Group_3483" data-name="Group 3483">
              <path id="Path_3756" data-name="Path 3756" d="M619.48,128.824s-3.973-9.081-4.68-16.682.535-9.534-.033-16.024.781-16.583-.247-16.715-4.763-.263-5.306,4.434-1.5,9.55-1.5,9.55l-9.435-19.331s-3.644-7.65-6.507-5.931c-2.92,1.752,6.26,16.3,5.149,17.118-1.588,1.176-7.337-7.584-7.337-7.584s-5.824-9.657-8.719-8,8.744,17.11,8.744,17.11,1.39,2.9-.683,2.418-10.389-13.449-13.293-12.478,5.413,11.179,5.413,11.179,5.536,5.24,3.052,6.21-10.792-8.127-12.446-6.465,5.264,8.341,8.176,10.513A30.564,30.564,0,0,1,588,107.774c1.8,3.586,4.319,8.292,8.736,9.386l4.014,12.956,18.738-1.3Z" transform="translate(-571.404 -67.874)" fill="#f3b2a7"/>
              <path id="Path_3757" data-name="Path 3757" d="M613.778,99.65s-3.628,9.567-2.566,13.556l-3.192-5.865s4.187-5.322,5.758-7.691Z" transform="translate(-577.901 -73.512)" fill="#f3b2a7" opacity="0.24"/>
            </g>
          </g>
          <path id="Path_3758" data-name="Path 3758" d="M729.732,280.5s-11.458-33.676-30.781-34.458c-22.662-.921-52.061-46.714-52.061-46.714L625.94,128.31l-29.21,6.811s6.268,67.344,13.457,87.5c10.019,28.075,61.767,93.445,61.767,93.445l57.778-35.552Z" transform="translate(-575.897 -78.597)" fill="#fff9e2"/>
          <path id="Path_3759" data-name="Path 3759" d="M748.49,175.754l1.045-17.134s-27.918-.6-36.522,27.071c-8.76,28.2-2.517,65.173-2.517,65.173l24.6,7.724.592-76.294,12.8-6.548Z" transform="translate(-595.7 -83.974)" fill="#221e1f"/>
          <path id="Path_3760" data-name="Path 3760" d="M753.568,175.754l2.92-17.134s24.537,1.81,31.1,25.631c7.782,28.2,5.248,67.435,5.248,67.435l-22.991,6.91L766.359,182.3l-12.8-6.548Z" transform="translate(-603.723 -83.975)" fill="#221e1f"/>
          <path id="Path_3761" data-name="Path 3761" d="M744.713,222.429l33.553-8.242,2.953,59.028-61.3-5.256,2.007-56.569Z" transform="translate(-597.754 -93.337)" fill="#221e1f"/>
          <g id="Group_3486" data-name="Group 3486" transform="translate(196.066 4.096)">
            <path id="Path_3762" data-name="Path 3762" d="M812.409,279.827l-2.649-15.061,36.769-45.571c1.242-1.522,3.307-18.179,3.866-20.063l19.676-65.864,18.936-.1L877.927,207a84.862,84.862,0,0,1-7.88,25.344l-46.072,79.14-11.557-31.653Z" transform="translate(-809.76 -83.556)" fill="#f3b2a7"/>
            <g id="Group_3485" data-name="Group 3485" transform="translate(56.642)">
              <path id="Path_3763" data-name="Path 3763" d="M878.628,133.8s3.973-9.081,4.68-16.682-.535-9.534.033-16.024-.781-16.583.247-16.715,4.763-.263,5.306,4.434,1.5,9.55,1.5,9.55l9.435-19.331s3.644-7.65,6.507-5.931c2.92,1.752-6.26,16.3-5.149,17.118,1.588,1.176,7.337-7.584,7.337-7.584s5.824-9.657,8.719-8-8.744,17.11-8.744,17.11-1.39,2.9.683,2.418,10.389-13.449,13.293-12.478-5.413,11.179-5.413,11.179-5.536,5.24-3.052,6.21,10.792-8.127,12.446-6.465-5.265,8.341-8.176,10.513a30.564,30.564,0,0,0-8.168,9.624c-1.8,3.586-4.318,8.292-8.736,9.386L897.358,135.1l-18.738-1.3Z" transform="translate(-878.62 -72.854)" fill="#f3b2a7"/>
              <path id="Path_3764" data-name="Path 3764" d="M893.46,104.63s3.628,9.567,2.566,13.556l3.192-5.865S895.031,107,893.46,104.63Z" transform="translate(-881.253 -78.492)" fill="#f3b2a7" opacity="0.24"/>
            </g>
          </g>
          <path id="Path_3765" data-name="Path 3765" d="M750.06,285.483s24.463-37.575,43.786-38.357c22.662-.921,40.5-34.145,40.5-34.145l19.5-79.691,29.21,6.811s-6.268,67.344-13.457,87.5c-10.019,28.075-63.355,94.884-63.355,94.884Z" transform="translate(-603.102 -79.48)" fill="#fff9e2"/>
          <path id="Path_3766" data-name="Path 3766" d="M734.31,225.21V260.3s16.1,5.519,25.492,4.541,10.118-6.86,10.118-6.86l-1.6-32.771H734.31Z" transform="translate(-600.307 -95.789)" fill="#f3b2a7"/>
          <path id="Path_3767" data-name="Path 3767" d="M740.209,235.255l-4.639,8.037s12.9,16.369,34.573,15.39l-1.086-29.522-28.856,6.1Z" transform="translate(-600.531 -96.49)" fill="#f3b2a7" opacity="0.64"/>
          <path id="Path_3768" data-name="Path 3768" d="M705.152,268.577c-16.114-1.5-25.788,111.031-7.921,169.656,0,0,26.676.1,29.473-.716s9.238,5.626,22.769.362c0,0,32.6,12.092,34.935,3.619,21.255-77.256,7.222-170.684,7.222-170.684s-45.76,1.53-86.477-2.246Z" transform="translate(-592.026 -103.481)" fill="#fff9e2"/>
          <g id="Group_3487" data-name="Group 3487" transform="translate(120.175 158.227)">
            <path id="Path_3769" data-name="Path 3769" d="M730.044,260.23s8.612,6.663,18.574,7.288c0,0-1.958,14.716-13.515,14.354s-17.6-13.433-17.6-13.433Z" transform="translate(-717.5 -260.23)" fill="#f9e4b9"/>
            <path id="Path_3770" data-name="Path 3770" d="M773.9,260.23s-8.612,6.663-18.574,7.288c0,0,1.958,13.268,13.515,12.906s17.6-10.545,17.6-10.545L773.9,260.23Z" transform="translate(-724.212 -260.23)" fill="#f9e4b9"/>
          </g>
          <path id="Path_3771" data-name="Path 3771" d="M827.934,581.7c-.247-.74-.485.732-.724,0-9.9-30.189-17.233-81.526-30.715-109.518s-31.587-30.476-31.587-30.476h0l-49.215,8.6-24.957-5.75-4.187-4.286s-15.506,8.653-30.46,35.881-23.435,75.94-34.935,105.553c-.37.962-.748-.962-1.135,0H827.942Z" transform="translate(-580.03 -133.946)" fill="#6eb446"/>
          <path id="Path_3772" data-name="Path 3772" d="M854.177,582.014c-9.9-30.188-17.233-81.525-30.715-109.518s-31.587-30.476-31.587-30.476l-7.757,1.357c5.042,4.631,10.776,11.7,15.736,22.284-.14.494-21.658,77.38-15.349,68.693,6.326-8.719,16.048-32.393,16.246-12.248s-37.37,63.453-26.9,59.916,24.324-16.649,23.9-12.314-8.341,12.314-8.341,12.314h65.493c-.247-.74-.485.732-.724,0Z" transform="translate(-606.996 -134.257)" fill="#6eb446" opacity="0.65"/>
          <g id="Group_3488" data-name="Group 3488" transform="translate(120.175 156.78)">
            <path id="Path_3773" data-name="Path 3773" d="M730.044,258.47s8.612,6.663,18.574,7.288c0,0-1.958,14.716-13.515,14.354s-17.6-13.433-17.6-13.433Z" transform="translate(-717.5 -258.47)" fill="#288cd2"/>
            <path id="Path_3774" data-name="Path 3774" d="M773.9,258.47s-8.612,6.663-18.574,7.288c0,0,1.958,13.268,13.515,12.906s17.6-10.545,17.6-10.545L773.9,258.47Z" transform="translate(-724.212 -258.47)" fill="#288cd2"/>
          </g>
          <path id="Path_3775" data-name="Path 3775" d="M722.026,195.174c.814-16.386,9.254-30.74,28.568-30.049,29.7,1.069,30.361,50.613,15.209,66.538-9.188,9.657-25.253,9.147-32.64.255-7.51-9.04-11.8-23.559-11.138-36.753Z" transform="translate(-598.116 -85.124)" fill="#f3b2a7"/>
          <path id="Path_3776" data-name="Path 3776" d="M779.794,192.372c-1.653-6.334-3.159-12.495-6.646-17.192l-15,7.979s-2.057,12.816-1.217,19.174c1.867,14.124,7.123,13.433,2.978,17.669-3.348,3.422,2.739,11.582-.51,20.359,5.24-.987,13.573-6.984,15.942-11.5,6.054-11.549,8.152-22.284,4.45-36.481Z" transform="translate(-604.285 -86.913)" fill="#f3b2a7" opacity="0.24"/>
          <path id="Path_3777" data-name="Path 3777" d="M760.763,166.655s4.253-9-17.809-3.669-23.024,31.751-23.024,31.751l44.2-.3,2.015-15.876,1.892,15.958,4.179.09c2.9-22.662-11.442-27.951-11.442-27.951Z" transform="translate(-597.756 -84.45)" fill="#221e1f"/>
          <path id="Path_3778" data-name="Path 3778" d="M726.634,203.142s-3.331-7.913-8.1-2.385,1.365,21.173,10.257,14.148" transform="translate(-597.213 -91.103)" fill="#f3b2a7"/>
          <path id="Path_3779" data-name="Path 3779" d="M782.1,203.142s3.331-7.913,8.1-2.385-1.365,21.173-10.258,14.148" transform="translate(-608.403 -91.103)" fill="#f3b2a7"/>
          <path id="Path_3780" data-name="Path 3780" d="M782.1,203.142s3.331-7.913,8.1-2.385-1.365,21.173-10.258,14.148" transform="translate(-608.403 -91.103)" fill="#f3b2a7" opacity="0.24"/>
          <path id="Path_3781" data-name="Path 3781" d="M687.24,426.36s60.237,12.281,106.482,0v20.663s-36.366,18-106.482,0Z" transform="translate(-591.956 -131.478)" fill="#6eb446"/>
          <path id="Path_3782" data-name="Path 3782" d="M657.854,232.681c-3.06,3.315-.37-18.031-.37-18.031l5.339,6.975S660.643,229.662,657.854,232.681Z" transform="translate(-586.483 -93.916)" fill="#f9e4b9"/>
          <path id="Path_3783" data-name="Path 3783" d="M851.61,245.922c1.612-2.451-.156-16.632-.156-16.632l-4.944,8.069s3.488,11.022,5.092,8.563Z" transform="translate(-620.215 -96.513)" fill="#f9e4b9"/>
          <path id="Path_3784" data-name="Path 3784" d="M634.27,281.89l45.793,41.762-2.6,18.788Z" transform="translate(-582.558 -105.846)" fill="#f9e4b9"/>
          <path id="Path_3785" data-name="Path 3785" d="M862.465,292.6l-42.757,37.287-1.727,20.671Z" transform="translate(-615.153 -107.746)" fill="#f9e4b9"/>
          <g id="Group_3489" data-name="Group 3489" transform="translate(146.361 204.207)">
            <path id="Path_3786" data-name="Path 3786" d="M761.926,319.535c1,2.838-.954,6.1-4.36,7.3s-6.967-.14-7.962-2.969.954-6.1,4.36-7.3S760.931,316.7,761.926,319.535Z" transform="translate(-749.336 -316.127)" fill="#f9e4b9"/>
            <path id="Path_3787" data-name="Path 3787" d="M761.966,352.516c-.93,2.854-4.467,4.261-7.889,3.15s-5.445-4.335-4.516-7.2,4.467-4.261,7.889-3.15S762.9,349.653,761.966,352.516Z" transform="translate(-749.335 -321.239)" fill="#f9e4b9"/>
            <path id="Path_3788" data-name="Path 3788" d="M761.61,376.32c1.357,2.682-.156,6.169-3.373,7.8s-6.926.773-8.275-1.908.156-6.169,3.373-7.8S760.261,373.639,761.61,376.32Z" transform="translate(-749.358 -326.322)" fill="#f9e4b9"/>
            <path id="Path_3789" data-name="Path 3789" d="M761.966,410.116c-.93,2.854-4.467,4.261-7.889,3.15s-5.445-4.335-4.516-7.2,4.467-4.261,7.889-3.15S762.9,407.253,761.966,410.116Z" transform="translate(-749.335 -331.459)" fill="#f9e4b9"/>
          </g>
          <g id="Group_3490" data-name="Group 3490" transform="translate(144.921 202.759)">
            <path id="Path_3790" data-name="Path 3790" d="M760.166,317.775c1,2.838-.954,6.1-4.36,7.3s-6.967-.132-7.963-2.969.954-6.1,4.36-7.3S759.171,314.937,760.166,317.775Z" transform="translate(-747.584 -314.367)" fill="#288cd2"/>
            <path id="Path_3791" data-name="Path 3791" d="M760.216,350.766c-.93,2.854-4.467,4.261-7.888,3.15s-5.445-4.335-4.516-7.2,4.467-4.261,7.888-3.15S761.145,347.9,760.216,350.766Z" transform="translate(-747.584 -319.481)" fill="#288cd2"/>
            <path id="Path_3792" data-name="Path 3792" d="M759.86,374.57c1.357,2.682-.156,6.169-3.372,7.8s-6.926.773-8.275-1.908.156-6.169,3.373-7.8S758.511,371.889,759.86,374.57Z" transform="translate(-747.607 -324.564)" fill="#288cd2"/>
            <path id="Path_3793" data-name="Path 3793" d="M760.216,408.356c-.93,2.854-4.467,4.261-7.888,3.15s-5.445-4.335-4.516-7.2,4.467-4.261,7.888-3.15S761.145,405.493,760.216,408.356Z" transform="translate(-747.584 -329.699)" fill="#288cd2"/>
          </g>
          <path id="Path_3794" data-name="Path 3794" d="M687.24,426.36s60.237,12.281,106.482,0v20.663s-36.366,18-106.482,0Z" transform="translate(-591.956 -131.478)" fill="#6eb446" opacity="0.65"/>
        </g>
        <g id="Group_3494" data-name="Group 3494" transform="translate(179.73)">
          <g id="Group_3492" data-name="Group 3492" transform="translate(8.811)">
            <path id="Path_3795" data-name="Path 3795" d="M254.4,81.772s1.275-11.426,4.968-19.462,6.062-9.262,9.254-16.106,10.389-16.2,9.435-16.929-4.623-3.027-7.888,1.374-7.041,8.719-7.041,8.719l1.727-24.875s.773-9.789-3.1-9.723C257.8,4.837,258.593,24.76,257,24.94c-2.279.263-2.97-11.862-2.97-11.862S253.78.008,249.906,0s-1.143,22.242-1.143,22.242-.288,3.71-2.089,2.032-2.641-19.52-6.112-20.227-1.045,14.362-1.045,14.362,2.525,8.464-.535,8S232.854,12,230.23,12.709s.452,11.426,2.114,15.292a35.46,35.46,0,0,1,2.632,14.4c-.271,4.648-.469,10.833,3.331,14.486l-3.471,15.333Z" transform="translate(-229.21 0)" fill="#f3b2a7"/>
            <path id="Path_3796" data-name="Path 3796" d="M267.21,48.33s-9.18,7.5-10.43,12.125l.189-7.74s7.288-2.92,10.233-4.384Z" transform="translate(-234.102 -8.575)" fill="#f3b2a7" opacity="0.24"/>
          </g>
          <path id="Path_3797" data-name="Path 3797" d="M301.565,461.52l-11.5,6.087s-6.762,65.411,2.706,112.767h53.8l7.757-62.368,9.468,62.368h56.824s14.206-85.7-12.849-130.353-106.2,11.5-106.2,11.5Z" transform="translate(-230.782 -76.785)" fill="#288cd2"/>
          <path id="Path_3798" data-name="Path 3798" d="M432.565,479.3s-4.738-3.257-18.705-4.269l1.793,5.544a97.8,97.8,0,0,1,4.606,30.378c-.016,4.59.288,9.2,1.349,11.779,2.64,6.457,7.444,21.922,7.444,21.922L445.677,528.6l-1.464-36.391-11.631-12.914Z" transform="translate(-253.161 -84.282)" fill="#288cd2" opacity="0.55"/>
          <path id="Path_3799" data-name="Path 3799" d="M261.043,75.864l2.756,98.643s16.484,28.905,34.03,36.818c17.628,7.954-13.786,104.64-27.309,89.4-12.117-13.663-38.858-76.508-48.433-100.535a50.48,50.48,0,0,1-3.323-23.855L230.723,73.38l30.312,2.484Z" transform="translate(-218.499 -13.019)" fill="#fff9e2"/>
          <path id="Path_3800" data-name="Path 3800" d="M452.229,500.388l1.546,24.891a11.961,11.961,0,0,1-1.727,6.959L444.777,544.1a10.4,10.4,0,0,1-3.5,3.471,60.311,60.311,0,0,1-8.061,4.269c-1.579.559-2.048-1.1-2.122-2.871a6.766,6.766,0,0,1,2.336-5.33l3.586-3.126a3.572,3.572,0,0,0,1.16-2l2.665-13.383a1.738,1.738,0,0,0-.74-1.785l-1.678-1.11a1.735,1.735,0,0,0-2.673,1.176L434.058,534.2a1.963,1.963,0,0,1-3.414,1l-1.357-1.538a5.811,5.811,0,0,1-1.316-2.641l-2.361-11.664a9.084,9.084,0,0,1,.921-6.153l7.5-13.844,18.187,1.045Z" transform="translate(-255.213 -88.599)" fill="#f3b2a7"/>
          <path id="Path_3801" data-name="Path 3801" d="M393.819,167.6s5.495,17.34,1.76,27.334l-1.2-1.925s.6,8.193-3.249,11.8l-1.086-2.287s-2.484,7.9-4.072,10.356l-.74-1.686-3.06,8.415-13.194-4.3L365.86,203.4s6.614-19.915,7.453-20.564,20.523-15.218,20.523-15.218Z" transform="translate(-244.644 -29.736)" fill="#221e1f"/>
          <path id="Path_3802" data-name="Path 3802" d="M389.06,246.8s9.986-4.055,26.322-1.259,25.615,15.58,39.1,61.71S467.254,376.8,467.254,376.8L454.43,459.95l-31.176-4.335V368.283Z" transform="translate(-248.761 -43.39)" fill="#fff9e2"/>
          <path id="Path_3803" data-name="Path 3803" d="M324.1,167.6s-5.495,17.34-1.76,27.334l1.2-1.925s-.6,8.193,3.249,11.8l1.086-2.287s2.484,7.9,4.072,10.356l.74-1.686,3.06,8.415,13.194-4.3,3.118-11.911s-6.614-19.915-7.453-20.564-20.523-15.218-20.523-15.218Z" transform="translate(-236.692 -29.736)" fill="#221e1f"/>
          <path id="Path_3804" data-name="Path 3804" d="M341.93,210.636l-2.32-2.048-.395,14.7a7.4,7.4,0,0,1-4.829,6.745h0a6.044,6.044,0,0,0-.938,10.9c6.26,3.611,14.757,7.14,23.2,6.416,9.007-.773,17.71-3.907,23.74-6.589a4.179,4.179,0,0,0-.049-7.65h0a7.412,7.412,0,0,1-4.467-6.605l-.535-20.013-33.413,4.146Z" transform="translate(-238.359 -36.636)" fill="#f3b2a7"/>
          <path id="Path_3805" data-name="Path 3805" d="M329.622,243.305s61.29-11.96,73.7,18.2,4.467,114.832,4.467,114.832l4.006,62.08s-13.3-11.533-41.088,0-79.033,37.312-88.953,6.21c-11.286-35.4-1.423-94.423,0-172.05.255-14.025-.025-39.023,47.866-29.267Z" transform="translate(-228.774 -42.753)" fill="#fff9e2"/>
          <path id="Path_3806" data-name="Path 3806" d="M326.45,248.056s24.924,10.208,49.355,6.112a13.09,13.09,0,0,0,8.176-4.648,10.457,10.457,0,0,0,2.311-5.651c.568-6.581-14.88,0-14.88,0l-44.962,4.179Z" transform="translate(-237.652 -42.749)" fill="#f9e4b9"/>
          <path id="Path_3807" data-name="Path 3807" d="M330.814,227.006c8.423-3.364,10.677,4.944,36.786-.247,5.478-1.086,14.074-2.427,17.151,3.7,1.514,3.011.518,10.726,3.093,12.248,3.973,2.344-8.308,4.228-12.446,4.8a153.013,153.013,0,0,1-41.8.263c-3.381-.477-14.954-1.234-12.6-4.228,7.724-9.854,2.492-13.614,9.83-16.542Z" transform="translate(-236.628 -40.067)" fill="#fff9e2"/>
          <path id="Path_3808" data-name="Path 3808" d="M348.569,217.444l-7.379,5s4.277,13.836,19.339,14.107c12.051.214,19.108-20.482,19.108-20.482l-31.069,1.382Z" transform="translate(-240.267 -38.336)" fill="#f9e4b9"/>
          <g id="Group_3493" data-name="Group 3493" transform="translate(88.658 109.174)">
            <path id="Path_3809" data-name="Path 3809" d="M326.634,164.159c1.958-18.006,12.174-33.273,33.4-31.258,32.648,3.093,30.189,57.72,12.462,74.279-10.751,10.044-28.412,8.448-35.971-1.818C328.838,194.915,325.054,178.653,326.634,164.159Z" transform="translate(-326.28 -132.722)" fill="#f3b2a7"/>
            <path id="Path_3810" data-name="Path 3810" d="M390.6,164.642c-1.407-7.082-2.673-13.967-6.21-19.372L367.342,153.1s-3.093,13.984-2.575,21.041c1.143,15.678,6.984,15.251,2.147,19.651-3.907,3.554,2.27,12.939-1.867,22.391,5.84-.749,14.922-5.791,17.677-10.693,7.058-12.536,11.039-24.973,7.88-40.849Z" transform="translate(-333.098 -134.948)" fill="#f3b2a7" opacity="0.33"/>
          </g>
          <path id="Path_3811" data-name="Path 3811" d="M378.681,146.037a50.551,50.551,0,0,1-24,5.947c-13.729-.14-19.4-4.574-23.172-8.119s-6.926-11.047-6.679-16.739.814-1.39,4.31,1.53,3.118-.864,1.234-4.319-1.892-7.765.378-6.375,6.671,6.252,9.822,6.112-2.649-2.64-1.514-4.31,3.652,4.031,12.47,4.31,19.9,0,25.566,5.141,1.588,16.83,1.588,16.83Z" transform="translate(-237.362 -20.882)" fill="#221e1f"/>
          <path id="Path_3812" data-name="Path 3812" d="M376.841,141.193a22.973,22.973,0,0,0,9.238,18.13c6.161,4.639,7.814,17.3,7.814,17.3l.888-1.382s3.373-1.941,3.373-9.131a51.534,51.534,0,0,0-1.086-11.483s2.048,6.227,2.048,4.294.962-3.455-1.563-7.889-1.81-4.31-1.81-4.31l3.011,3.06a74.018,74.018,0,0,0-4.532-9.69,14.521,14.521,0,0,0-14.017-7.37c-5.783.411-3.373,8.473-3.373,8.473Z" transform="translate(-246.503 -23.54)" fill="#221e1f"/>
          <path id="Path_3813" data-name="Path 3813" d="M340.937,141.366s-1.193,10.907-9.238,18.5a22.087,22.087,0,0,0-6.786,18.64L323,176.1s-3.373-1.974-3.373-9.32a53.57,53.57,0,0,1,1.086-11.722s-2.048,6.35-2.048,4.376-.962-3.529,1.563-8.045,1.81-4.393,1.81-4.393l-3.011,3.126a76.191,76.191,0,0,1,4.532-9.887c3.225-5.429,8.242-7.938,14.017-7.518s3.373,8.645,3.373,8.645Z" transform="translate(-236.238 -23.54)" fill="#221e1f"/>
          <path id="Path_3814" data-name="Path 3814" d="M330.1,176.34s-2.04-5.273-6.26-4.516c-6.062,1.086-7.461,18.607,4.615,18.607" transform="translate(-236.382 -30.473)" fill="#f3b2a7"/>
          <path id="Path_3815" data-name="Path 3815" d="M392.24,176.34s2.04-5.273,6.26-4.516c6.062,1.086,7.461,18.607-4.615,18.607" transform="translate(-249.325 -30.473)" fill="#f3b2a7"/>
          <path id="Path_3816" data-name="Path 3816" d="M392.24,176.34s2.04-5.273,6.26-4.516c6.062,1.086,7.461,18.607-4.615,18.607" transform="translate(-249.325 -30.473)" fill="#f3b2a7" opacity="0.33"/>
          <path id="Path_3817" data-name="Path 3817" d="M268.32,217.007l4.516-20.877,4.1,6.1Z" transform="translate(-227.338 -34.798)" fill="#f9e4b9"/>
          <path id="Path_3818" data-name="Path 3818" d="M239.908,268.238l37.7,44.107-3.29,22.95s-27.5-42-34.417-67.065Z" transform="translate(-222.296 -47.591)" fill="#f9e4b9"/>
          <path id="Path_3819" data-name="Path 3819" d="M427.883,447l4.68-67.352-14.107-72.6,6.309,72.321L413.85,445.218Z" transform="translate(-253.159 -54.478)" fill="#f9e4b9"/>
          <path id="Path_3820" data-name="Path 3820" d="M351.514,510.48s-2.2,15.2-2.953,20.268c-5.067,34.458-18.755,40.594-14.51,40.594h8.6L331.69,594.161h22.678l7.757-62.368L351.506,510.48Z" transform="translate(-238.582 -90.572)" fill="#288cd2" opacity="0.55"/>
        </g>
        <g id="Group_3499" data-name="Group 3499" transform="translate(315.942 51.227)">
          <path id="Path_3821" data-name="Path 3821" d="M494.418,251.357l-8.588-3.537s4.055-20.976,35.124-27.688c36.2-7.814,45.077-2.122,56.774,12.347" transform="translate(-402.141 -89.661)" fill="orange"/>
          <path id="Path_3822" data-name="Path 3822" d="M523.611,213.986l-2.492-1.834.938,14.675a7.412,7.412,0,0,1-4.2,7.156l-10.381,4.968s17.875,13.161,34.137,10.258,30.773-13.548,30.773-13.548l-8.472-2.78a7.4,7.4,0,0,1-5.042-6.169L556.53,206.83l-32.895,7.156Z" transform="translate(-405.983 -87.924)" fill="#f3b2a7"/>
          <path id="Path_3823" data-name="Path 3823" d="M526.684,214.8l-1.884,7.65s9.4,11.59,22.5,11.763,16.2-2.945,16.2-2.945-1.9-3.233-3.159-19.873L526.692,214.8Z" transform="translate(-409.056 -88.733)" fill="#f3b2a7" opacity="0.74"/>
          <path id="Path_3824" data-name="Path 3824" d="M537.291,136.2s18.763-10.94,23.509-2.254.625,9.032,5.108,14.231c3.562,4.129,4.68,9.558,1.6,16.057a16.433,16.433,0,0,0,.946,15.555,1.7,1.7,0,0,0,.123.206c7.847,8.95-2.353,21.2-7.9,20.7-10.545-.962-13.712,3.4-13.1,6.227s-22.794-1.826-22.794-1.826-10.644,2.969-15.555,2.583-11.656-2.065-11.779-8.769,7.395-10.011,1.9-14.3-13.63-15.456-7.025-24.579c7.666-10.595,20.877-15.012,20.877-15.012l24.093-8.818Z" transform="translate(-402.858 -74.398)" fill="#221e1f"/>
          <path id="Path_3825" data-name="Path 3825" d="M507.508,169.674c.3-17.036,8.563-32.22,28.634-32.154,30.863.107,33.232,51.51,18.031,68.553-9.213,10.332-25.9,10.348-33.865,1.374C512.205,198.317,507.27,183.395,507.508,169.674Z" transform="translate(-405.986 -75.627)" fill="#f3b2a7"/>
          <path id="Path_3826" data-name="Path 3826" d="M567.316,164.888c-1.925-6.523-3.693-12.857-7.477-17.628l-15.3,8.793s-1.7,13.375-.617,19.939c2.41,14.6,7.847,13.7,3.693,18.237-3.356,3.669,3.233,11.927.165,21.148,5.4-1.2,13.721-5.816,15.728-10.718,4.853-11.845,8.135-25.163,3.817-39.772Z" transform="translate(-412.384 -77.355)" fill="#f3b2a7" opacity="0.27"/>
          <g id="Group_3495" data-name="Group 3495" transform="translate(93.864 308.074)">
            <path id="Path_3827" data-name="Path 3827" d="M562.534,465.722v67.344l-14.107,48.022H501.811L498.2,475.815l5.635-36.407,32.59-2.608,19.783,11.376Z" transform="translate(-498.2 -436.8)" fill="#667ea2"/>
            <path id="Path_3828" data-name="Path 3828" d="M562.534,465.722v67.344l-14.107,48.022H501.811L498.2,475.815l5.635-36.407,32.59-2.608,19.783,11.376Z" transform="translate(-498.2 -436.8)" fill="#667ea2" opacity="0.09"/>
          </g>
          <path id="Path_3829" data-name="Path 3829" d="M551.963,134.563s-5.034,20.227-12.528,19.857-10.883-2.353-13.153.263-1.119,9.155-7.041,9.854-9.279-2.682-11.549,1.538-11.2,9.772-13.367,4.541-.222,5.182-.222,5.182-8.917-10.611-1.341-19.331c5.635-6.482,2.18-7.658,2.575-13.852s5.281-10.94,14.667-11.121,11.245-10.792,20.071-8.127,7.132,5.47,13.3,4.319,13.474-1.217,17.4,4.9-8.8,1.974-8.8,1.974Z" transform="translate(-402.83 -73.04)" fill="#221e1f"/>
          <path id="Path_3830" data-name="Path 3830" d="M616.416,414.56s13.276,27.869,15.143,67.344-3.307,95.238-3.307,95.238H574l-11.1-144.6-.1.313,53.615-18.294Z" transform="translate(-415.798 -124.781)" fill="#667ea2"/>
          <g id="Group_3496" data-name="Group 3496" transform="translate(144.334)">
            <path id="Path_3831" data-name="Path 3831" d="M614.326,123.923s-8.16-6.8-15.76-9.805-9.97-2.3-16.476-4.829-17.291-4.154-17.126-5.256,1.152-4.977,6.145-4.129,10.274,1.308,10.274,1.308L564.314,85.723s-6.778-6.029-4.154-8.464c2.673-2.484,14.9,11.31,16.073,10.414,1.686-1.283-5.61-9.813-5.61-9.813S562.43,68.983,565,66.5s15,14.107,15,14.107,2.566,2.295,2.69.016-10.726-14.708-8.859-17.4,9.879,8.909,9.879,8.909,3.734,7.263,5.478,4.993S584.056,63.6,586.26,62.386s7.008,7.913,8.374,11.549a32.779,32.779,0,0,0,7.453,11.286c3.15,2.928,7.239,6.926,7.049,11.8l12.125,8-6.934,18.895Z" transform="translate(-559.556 -62.277)" fill="#f3b2a7"/>
            <path id="Path_3832" data-name="Path 3832" d="M587.04,108.528s10.924-.872,14.716,1.415l-5.083-5.042S589.944,107.615,587.04,108.528Z" transform="translate(-564.432 -69.839)" fill="#f3b2a7" opacity="0.24"/>
          </g>
          <path id="Path_3833" data-name="Path 3833" d="M511.955,178.981s-2.723-8.785-8.39-3.389-.757,22.72,9.46,16.155" transform="translate(-404.864 -82.071)" fill="#f3b2a7"/>
          <path id="Path_3834" data-name="Path 3834" d="M570.88,172.937s.345-8.374-3.833-8.185c-5.289.239-6.136-3.751-5.832-8.275.5-7.543-7.165,3.044-15.119.411-4.911-1.629-3.142-10.932-3.142-10.932l4.9-6.836,16.517-1.061,8.867,12.972-2.353,21.9Z" transform="translate(-412.221 -75.723)" fill="#221e1f"/>
          <g id="Group_3497" data-name="Group 3497" transform="translate(153.747 87.984)">
            <path id="Path_3835" data-name="Path 3835" d="M571,174.3s1.053-7.79,6.589-4.039,3.833,19.026-5.692,14.946" transform="translate(-571 -169.239)" fill="#f3b2a7"/>
            <path id="Path_3836" data-name="Path 3836" d="M571,174.3s1.053-7.79,6.589-4.039,3.833,19.026-5.692,14.946" transform="translate(-571 -169.239)" fill="#f3b2a7" opacity="0.24"/>
          </g>
          <path id="Path_3837" data-name="Path 3837" d="M508.835,243.874s11.738,9.254,32.9,4.606,22.127-9.361,22.127-9.361l18.121,5.33,11.352,21.058s8.514,18.064,8.514,19.61S597.2,310.4,597.2,310.4l7.485,83.088s-13.293,17.751-47.932,22.4-56.207-8.464-56.207-8.464V257.776l-2.172-12.9,10.447-1Z" transform="translate(-404.368 -93.653)" fill="#fff9e2"/>
          <path id="Path_3838" data-name="Path 3838" d="M404.284,470.74l-16.122,19.026a11.927,11.927,0,0,0-2.772,6.614l-1.259,13.86a10.47,10.47,0,0,0,.732,4.87,60.577,60.577,0,0,0,3.907,8.242c.93,1.4,2.3.337,3.414-1.036a6.711,6.711,0,0,0,1.308-5.668l-1-4.648a3.641,3.641,0,0,1,.263-2.3l5.865-12.322a1.74,1.74,0,0,1,1.662-.987l2.007.115a1.74,1.74,0,0,1,1.44,2.542l-5.1,9.657a1.966,1.966,0,0,0,2.147,2.838l2.007-.428a5.731,5.731,0,0,0,2.632-1.333l8.867-7.938a9.118,9.118,0,0,0,2.945-5.487l2.262-15.58L404.276,470.74Z" transform="translate(-384.09 -134.748)" fill="#f3b2a7"/>
          <g id="Group_3498" data-name="Group 3498" transform="translate(94.012 145.467)" clip-path="url(#clip-path)">
            <path id="Path_3839" data-name="Path 3839" d="M492.75,270.611s31.34,11.426,95.016-3.611v33.421s-42.379,17.685-95.016,5.059V270.6Z" transform="translate(-497.381 -244.067)" fill="#288cd2"/>
            <path id="Path_3840" data-name="Path 3840" d="M496.51,337.681s31.34,11.426,95.016-3.611v33.421s-42.379,17.685-95.016,5.059V337.673Z" transform="translate(-498.048 -255.966)" fill="#288cd2"/>
            <path id="Path_3841" data-name="Path 3841" d="M500.27,406.641s31.34,11.426,95.016-3.611v33.421s-42.379,17.685-95.016,5.059V406.633Z" transform="translate(-498.715 -268.202)" fill="#288cd2"/>
          </g>
          <path id="Path_3843" data-name="Path 3843" d="M574.568,233.921s-2.344,3.109-.247,20.778-2.484,33.183-.625,51.279-5.519,36.2,3.126,59.036,8.909,81.015,8.909,81.015l3.619,7.757s36.629-.428,50.852-12.067c0,0,1.727-20.252-2.155-36.2S622.96,362,622.1,341.522s1.069-48,1.069-48l-14.856-44.871,7.757-23.863s-15.958,14.3-41.5,9.122Z" transform="translate(-417.522 -91.111)" fill="orange"/>
          <path id="Path_3844" data-name="Path 3844" d="M590.47,222.836l5.495-8.53c11.228-7.239,26.7-17.118,33.232-28.774l6-10.726-34.474-51.074s15.621-10.776,20.309-20.252c0,0,36.572,23.9,51.23,46.426l9.048,16.575s2.155,64.556-66.365,114.544l-24.48-58.173Z" transform="translate(-420.707 -69.587)" fill="orange"/>
          <path id="Path_3845" data-name="Path 3845" d="M501.645,245.866s6.992,6.967,10.866,22.909,9.484,35.766,9.912,57.745,0,58.173,0,69.376,5.339,66.793,5.339,66.793-37.657,1.727-43.267-6.893c0,0,4.738-42.231,5.174-53.435s.428-19.388.864-37.921-6.465-39.648-6.029-53.007-9.912-46.969-9.912-46.969,11.014-19.964,27.054-18.6Z" transform="translate(-400.147 -94.838)" fill="orange"/>
          <path id="Path_3846" data-name="Path 3846" d="M481.34,266.017,471,254.55s-13.976,5.429-17.43,28.7-13.786,74.55-13.786,74.55-9.048,11.2-12.931,18.96-24.562,57.317-24.562,57.317,15.941,12.067,24.134,12.495c0,0,45.192-51.715,54.915-70.676s0-109.888,0-109.888Z" transform="translate(-387.319 -96.391)" fill="orange"/>
          <path id="Path_3847" data-name="Path 3847" d="M586.644,238.549l7.37-2.649s-2.139,3.726-4.96,8.135A125.09,125.09,0,0,0,577.62,266.4l9.024-27.852Z" transform="translate(-418.427 -93.082)" fill="orange"/>
          <path id="Path_3848" data-name="Path 3848" d="M493.429,253.13l-7.609,1.843s7.716,4.524,11.886,8.637c2.871,2.83,8.966,7.609,15.867,17.027Z" transform="translate(-402.14 -96.139)" fill="orange"/>
          <path id="Path_3849" data-name="Path 3849" d="M516.338,236.674c-5.24,19.141-.658,33.643,1.547,43.325,0,0-14.247-24.11-32.064-29.489,0,0,35.017-30.287,30.518-13.836Z" transform="translate(-402.14 -92.351)" fill="orange"/>
          <path id="Path_3850" data-name="Path 3850" d="M570.922,231.15c4.072,13.688,3.43,39.985,3.43,39.985s5.947-21.412,9.468-26.7c6.507-9.772,8.917-10.43,8.917-10.43S566.5,216.3,570.922,231.15Z" transform="translate(-417.15 -91.187)" fill="orange"/>
          <path id="Path_3851" data-name="Path 3851" d="M523.645,227.76s-8.645,4.705-3.965,25.574c0,0-.239-14.008,2.418-17.373C522.1,235.961,525.06,232.062,523.645,227.76Z" transform="translate(-407.901 -91.638)" fill="orange"/>
          <path id="Path_3852" data-name="Path 3852" d="M569.21,224.81s.346,7.107,2.172,8.834l1.489,8.686s1.769-11.368-3.652-17.521Z" transform="translate(-416.935 -91.114)" fill="orange"/>
          <path id="Path_3853" data-name="Path 3853" d="M489.689,335.04v61.677l-18.549,25.13,12.075-36.489Z" transform="translate(-399.535 -110.672)" fill="orange"/>
          <path id="Path_3854" data-name="Path 3854" d="M660.555,269.85s-26.52,15.489-31.793,24.6c-7.107,12.273,2.69,49.149,2.69,49.149l1.242-42.058S651.293,284.27,660.555,269.85Z" transform="translate(-427.042 -99.105)" fill="orange"/>
          <path id="Path_3855" data-name="Path 3855" d="M653.383,207.627l-9.032-17.447-3.192,5.7Z" transform="translate(-429.701 -84.97)" fill="orange"/>
          <path id="Path_3856" data-name="Path 3856" d="M447.87,378.517l9.344-7.247-8.621,3.619Z" transform="translate(-395.406 -117.1)" fill="orange"/>
          <path id="Path_3857" data-name="Path 3857" d="M563.338,488.11l5.067,68.841-11.2,33.24H547.66Z" transform="translate(-413.112 -137.83)" fill="#667ea2" opacity="0.42"/>
        </g>
        <g id="Group_3504" data-name="Group 3504" transform="translate(58.739 33.268)">
          <path id="Path_3858" data-name="Path 3858" d="M243.58,207.658l3.907-24.488s16.994,33.133,3.833,66.423c0,0-5.643,26.347-4.96,31.044s-16.172,0-16.172,0l-17.817-6.811L210.2,229.621l33.372-21.963Z" transform="translate(-96.035 -65.766)" fill="#221e1f"/>
          <path id="Path_3859" data-name="Path 3859" d="M231.447,241.717l15.736-9.147s-2.024,18.385-4.236,29.448,1.349,36.309,1.349,36.309l-28.576-.666-.93-24.579" transform="translate(-96.849 -74.531)" fill="#221e1f"/>
          <path id="Path_3860" data-name="Path 3860" d="M217.936,260.086s-5.009,15.966-4.294,19.306,21.231,6.433,29.925,17.159-29.991,15.966-29.991,15.966L189.812,318,154.77,281.054l6.433-17.636,24.817,9.534,5.454-21.691,26.454,8.818Z" transform="translate(-86.2 -77.847)" fill="#f3b2a7"/>
          <path id="Path_3861" data-name="Path 3861" d="M225.592,261.08s-4.919,16.641-4.294,19.306,18.648,8.785,18.648,8.785-20.219,7.066-32.484-1.6-9.2-30.707-9.2-30.707Z" transform="translate(-93.857 -78.841)" fill="#f3b2a7" opacity="0.58"/>
          <path id="Path_3862" data-name="Path 3862" d="M197.9,196.272,184,186.36s-15.876,18.714-18.689,55.869l16.3,13.293,7.716.156,12.914-37.962L197.9,196.264Z" transform="translate(-88.07 -66.332)" fill="#221e1f"/>
          <path id="Path_3863" data-name="Path 3863" d="M193.436,206.713c4.985-15.1,16.567-26.347,34.441-20.721,27.482,8.654,15.341,55.129-2.928,66.1-11.08,6.655-25.96,2.04-30.567-8.168-4.689-10.389-4.952-25.056-.938-37.213Z" transform="translate(-92.563 -66.006)" fill="#f3b2a7"/>
          <path id="Path_3864" data-name="Path 3864" d="M247.332,218.6c.091-6.342.271-12.487-1.785-17.784l-16.073,3.595s-5.223,11.45-6.079,17.6c-1.9,13.679,3.2,14.387-1.769,17.274-4.006,2.336-.42,11.533-5.717,18.895,5.149.428,14.486-3.027,17.858-6.638,8.637-9.238,13.359-18.722,13.564-32.952Z" transform="translate(-97.048 -68.898)" fill="#f3b2a7" opacity="0.24"/>
          <g id="Group_3501" data-name="Group 3501" transform="translate(0 334.884)">
            <path id="Path_3865" data-name="Path 3865" d="M206.008,472.533S224.154,506.358,227.354,583H71.41S71.3,547.47,85.451,502.722s29.572-55.162,29.572-55.162" transform="translate(-71.41 -447.56)" fill="#a1b84e"/>
            <g id="Group_3500" data-name="Group 3500" transform="translate(22.094 21.996)">
              <path id="Path_3866" data-name="Path 3866" d="M116.794,474.3s-16.2,18.344-18.524,81.632c0,0,13.893-58.65,32.418-76.4" transform="translate(-98.27 -474.3)" fill="#a1b84e"/>
              <path id="Path_3867" data-name="Path 3867" d="M222.644,476.1s13.77,20.244,8.094,83.31c0,0-6.4-59.933-22.539-79.88" transform="translate(-117.774 -474.619)" fill="#a1b84e"/>
              <path id="Path_3868" data-name="Path 3868" d="M150.026,476.86s-11.853,21.42-.428,83.705c0,0,.88-60.27,15.119-81.608" transform="translate(-106.495 -474.754)" fill="#a1b84e"/>
              <path id="Path_3869" data-name="Path 3869" d="M176.729,477.36s-6.7,28.4,3.389,96.867c0,0,4.138-66.217,11.631-94.7" transform="translate(-111.803 -474.843)" fill="#a1b84e"/>
            </g>
          </g>
          <path id="Path_3870" data-name="Path 3870" d="M237.868,178.168s3.027,28.461-19.618,29.473-21.922-6.136-32.763,6.9c-5.684,6.844-7.806-11.763-6.145-19.479,2.887-13.375,33.964-41.482,58.526-16.9Z" transform="translate(-90.462 -63.15)" fill="#221e1f"/>
          <path id="Path_3871" data-name="Path 3871" d="M237.639,187.912s5.478,32.418,13.038,34.4c10.085,2.64,12.388-38-6.523-46.04-16.97-7.214-6.334,13.622-6.334,13.622l11.023,6.3" transform="translate(-100.351 -64.273)" fill="#221e1f"/>
          <path id="Path_3872" data-name="Path 3872" d="M221.369,344.084l24.036-31.719a1.666,1.666,0,0,1,1.826-.592c4.59,1.456,21.477,8.728,21.107,36.564a413.962,413.962,0,0,1-5.766,61.109,1.493,1.493,0,0,0,.016.633c.946,4.253,9.673,54,13.77,66.127,4.3,12.725,5.742,22.58,1.448,31.612s-14.132,11.779-14.757,10.06c-.551-1.53,4.977-7.428,5.075-12.2,0-.329.2-.617.156-.946l-.642-5.125a1.675,1.675,0,0,0-3.085-.674l-2.007,3.233s-.049.082-.066.115l-.979,1.908a1.673,1.673,0,0,1-3.159-.633c-.313-4.1.716-8.966.395-9.928-.461-1.39,1.81-8.16,3.233-10.669a1.661,1.661,0,0,0-.115-1.818c-3.784-5.067-22.769-30.822-26.018-41.26-3.422-11-13.7-86.609-14.782-94.572a1.647,1.647,0,0,1,.329-1.226Z" transform="translate(-97.958 -88.57)" fill="#f3b2a7"/>
          <path id="Path_3873" data-name="Path 3873" d="M139.571,261.611l5.955-14.091L122.1,180.094a14.931,14.931,0,0,1-1.5-5.635l-4.442-68.595L97.727,101.53,92.01,175.973a85.009,85.009,0,0,0,2.007,26.47l27.2,87.44,18.343-28.264Z" transform="translate(-75.015 -51.282)" fill="#f3b2a7"/>
          <path id="Path_3874" data-name="Path 3874" d="M242.937,296.138,214.78,333.3s11.08,82.323,15.8,103.348c16.583-23.781,30.74-30.386,30.74-30.386a462.283,462.283,0,0,0,6.531-68.817c.485-36.078-24.916-41.318-24.916-41.318Z" transform="translate(-96.847 -85.808)" fill="#6eb446"/>
          <g id="Group_3502" data-name="Group 3502" transform="translate(4.349)">
            <path id="Path_3875" data-name="Path 3875" d="M114.546,106.8s-1.843-9.748-.831-17.307,2.649-9.172,3.554-15.629,4.467-15.983,3.5-16.353-4.582-1.324-6.161,3.134-3.595,8.974-3.595,8.974l-4.87-20.951s-1.843-8.267-5.018-7.23c-3.241,1.053,2.451,17.282,1.185,17.842-1.81.79-5.454-9.032-5.454-9.032S93.34,39.528,90.14,40.506s4.689,18.631,4.689,18.631.707,3.134-1.209,2.2S86.5,45.911,83.461,46.207s2.772,12.108,2.772,12.108,4.228,6.342,1.588,6.737-8.7-10.34-10.685-9.089,3.266,9.312,5.618,12.075a30.738,30.738,0,0,1,5.816,11.2c.954,3.9,2.353,9.048,6.416,11.1L96,103.869l18.557,2.928Z" transform="translate(-76.697 -40.443)" fill="#f3b2a7"/>
            <path id="Path_3876" data-name="Path 3876" d="M116.137,76.55s-5.676,8.514-5.536,12.635l-1.8-6.433s5.273-4.253,7.329-6.2Z" transform="translate(-82.393 -46.849)" fill="#f3b2a7" opacity="0.24"/>
          </g>
          <path id="Path_3877" data-name="Path 3877" d="M122.249,195.825a14.932,14.932,0,0,1-1.5-5.635S110.469,205.679,92.57,209.3a85.585,85.585,0,0,0,1.6,8.867l23.871,100.626,21.675-41.45s15.933-19.38,11.9-24.751c-13.827-18.393-29.374-56.758-29.374-56.758Z" transform="translate(-75.164 -67.012)" fill="#6eb446"/>
          <path id="Path_3878" data-name="Path 3878" d="M196.761,294.813c8.152.313,18.294-.329,24.7-4.409,0,0,14.321,5.988,17.932,19.717s-15.275,31.167-17.932,52.793-6.638,54.5-6.638,54.5,6.737,34.022-2.229,39.048-21.247,1.843-31,0-25.648,6.515-40.462,2.7-21.313-13.211-30.707-13.211-18.788-1.81-16.254-11.919,18.064-49.856,18.426-61.775,4.7-52.028,4.7-52.028,13.671-53.459,29.284-56.33c6.046-1.11,15.308,8.448,15.308,8.448a29.813,29.813,0,0,0,4.442,7.321,40.527,40.527,0,0,0,30.444,15.144Z" transform="translate(-75.374 -80.074)" fill="#6eb446"/>
          <path id="Path_3879" data-name="Path 3879" d="M250.466,360.95s-10.315,59.711-9.525,73.7c.642,11.294.823,4.812.823,4.812l11.171-12.018s-3.817-26.643-2.468-66.5Z" transform="translate(-101.481 -97.309)" fill="#6eb446" opacity="0.65"/>
          <path id="Path_3880" data-name="Path 3880" d="M177.39,243.612s-9.394-19.067-13.367-1.069-.576,30.312.658,41.079c2.32,20.252-13.161,30.773-13.161,30.773s34.713,8.563,34.9-16.345c.2-25.426-2.739-19.791,1.012-37.978C188.4,255.35,172.693,254.848,177.39,243.612Z" transform="translate(-85.623 -74.929)" fill="#221e1f"/>
          <path id="Path_3881" data-name="Path 3881" d="M105.338,270.64,128,318.349,115.941,361.88s1.579-23.23,2.616-33.092c.773-7.337-13.227-58.14-13.227-58.14Z" transform="translate(-77.428 -81.286)" fill="#6eb446" opacity="0.65"/>
          <path id="Path_3882" data-name="Path 3882" d="M195.19,220.393s-1.1-8.514-7.181-4.45-4.31,20.77,6.128,16.361" transform="translate(-91.48 -71.386)" fill="#f3b2a7"/>
          <g id="Group_3503" data-name="Group 3503" transform="translate(142.141 153.735)">
            <path id="Path_3883" data-name="Path 3883" d="M246.628,230.819s3.225-6.589,7.025-1.637-2.2,17.99-9.443,11.557" transform="translate(-244.21 -227.338)" fill="#f3b2a7"/>
            <path id="Path_3884" data-name="Path 3884" d="M246.628,230.819s3.225-6.589,7.025-1.637-2.2,17.99-9.443,11.557" transform="translate(-244.21 -227.338)" fill="#f3b2a7" opacity="0.24"/>
          </g>
        </g>
        <g id="Group_3507" data-name="Group 3507" transform="translate(614.193 154.254)">
          <path id="Path_3885" data-name="Path 3885" d="M936.168,194.788s-5.659,5.215-1.275,1.966c9.04-6.712,30.69-3.71,34.951,23.2,3.455,21.806-.584,30.435,17.875,35.642,11.607,3.274,19.446,10.949,22.917,22.769s3.595,23.748,16.5,37.9-7.494,38.48-26.232,39.846-76.845-5.881-76.845-5.881l12.1-155.442Z" transform="translate(-778.146 -188.623)" fill="#221e1f"/>
          <path id="Path_3886" data-name="Path 3886" d="M927.158,192.522s.082-3.175-9-4.565c-19.643-2.994-32.138,9.912-37.394,29.094-5.273,19.265,3.027,24.776-13.482,34.91s-24.546,13-27.17,35.511,8.629,21.3,0,35.6,9.756,31.941,9.756,31.941l29.267-3.751,18.385-1.875,16.509-.378,10.883-41.647,2.237-114.84Z" transform="translate(-762.842 -187.526)" fill="#221e1f"/>
          <path id="Path_3887" data-name="Path 3887" d="M898.371,222.88s-13.03,10.258-5.355,35.363c0,0,4.1,6.688-7.757,12.1s-37.682,19.98-30.6,52.044,62.45,23.312,62.45,23.312l57.868-4.993s22.9,7.782,23.312-4.639-4.582-40.117-19.174-52.357c-12.766-10.71-32.886-14.88-31.439-25.467,2.64-19.232-14.338-27.787-14.338-27.787l-34.976-7.576Z" transform="translate(-765.618 -193.798)" fill="#221e1f"/>
          <path id="Path_3888" data-name="Path 3888" d="M887.805,498.58l-27.894,25.4-.781,68.068h59.9l20.655-81.929Z" transform="translate(-766.625 -242.714)" fill="#288cd2"/>
          <path id="Path_3889" data-name="Path 3889" d="M887.805,498.58l-27.894,25.4-.781,68.068h59.9l20.655-81.929Z" transform="translate(-766.625 -242.714)" fill="#288cd2" opacity="0.1"/>
          <path id="Path_3890" data-name="Path 3890" d="M926.809,512.868l-5.528,24.562a56.77,56.77,0,0,1-5.2,14.058c-5.306,10.052-14.477,27.968-11.771,26.767,2.912-1.291,7.37-4.845,9.213-6.367l-.23,1.028L900.98,594.575h25.475l14.568-47.668L926.8,512.86Z" transform="translate(-774.051 -245.248)" fill="#288cd2" opacity="0.36"/>
          <path id="Path_3891" data-name="Path 3891" d="M934.62,512.666,978.94,482.3c13.128-8.991,30.855.395,33.964,16,6.285,31.538-3.364,37.435-9.122,62.738l-7.921,27.5H938.478Z" transform="translate(-780.019 -239.205)" fill="#288cd2"/>
          <g id="Group_3505" data-name="Group 3505" transform="translate(0 64.211)">
            <path id="Path_3892" data-name="Path 3892" d="M794.339,326.995s-3.866-9.155-4.483-16.772.65-9.542.164-16.057.987-16.6-.041-16.748-4.763-.329-5.363,4.376-1.62,9.542-1.62,9.542l-9.213-19.487s-3.554-7.708-6.441-6.021c-2.945,1.719,6.062,16.4,4.944,17.217-1.6,1.16-7.255-7.691-7.255-7.691s-5.709-9.747-8.637-8.119,8.538,17.249,8.538,17.249,1.357,2.92-.716,2.418-10.241-13.605-13.153-12.668,5.281,11.269,5.281,11.269,5.478,5.314,2.978,6.26-10.71-8.275-12.388-6.638,5.174,8.423,8.053,10.636a30.593,30.593,0,0,1,8.061,9.739c1.76,3.619,4.228,8.366,8.629,9.517l3.858,13.03,18.788-1.061Z" transform="translate(-746.673 -265.587)" fill="#f3b2a7"/>
            <path id="Path_3893" data-name="Path 3893" d="M789.025,297.66s-3.751,9.534-2.739,13.548l-3.126-5.914S787.421,300.013,789.025,297.66Z" transform="translate(-753.147 -271.277)" fill="#f3b2a7" opacity="0.24"/>
          </g>
          <path id="Path_3894" data-name="Path 3894" d="M957.781,301.678s-19.355,3.948-51.608.979c-39.813-3.669-38.768,16.032-37.057,46.007s3.5,66.053,3.5,66.053-16.394,69.318-12.651,74.32,95.707,28.626,140.669-.1c0,0,7.543-12.429-13.72-62.7-17.315-40.931-6.416-82.3-6.416-82.3s8.744-44.181-22.7-42.247Z" transform="translate(-766.674 -207.77)" fill="#e65023"/>
          <path id="Path_3895" data-name="Path 3895" d="M875.07,303.218s-11.968-2.871-23.8,8.275c-11.812,11.129-27.244,63.462-27.244,63.462L795.8,319.941s-6.161,3.636-18.969,5.5c0,0,2.986,118.64,40.282,115.045,17.578-1.695,46.336-36.679,46.336-36.679l1.431-84.66L875.07,303.21Z" transform="translate(-752.023 -207.994)" fill="#e65023"/>
          <path id="Path_3896" data-name="Path 3896" d="M863.151,376.51l2.747,47.446s-24.068,28.371-40.109,29.6c0,0,15.423-7.831,21.412-18.771,5.684-10.389-.954-12.783,1.209-16.147C855.3,407.9,863.151,376.51,863.151,376.51Z" transform="translate(-760.71 -221.056)" fill="#bd262b"/>
          <path id="Path_3897" data-name="Path 3897" d="M970.212,352.31l15.867,57.769L948.15,465.134l30.328-56.9Z" transform="translate(-782.42 -216.763)" fill="#bd262b"/>
          <path id="Path_3898" data-name="Path 3898" d="M969.7,474.24,932.36,521.678l76.73-43.876-9.238-24.7Z" transform="translate(-779.618 -234.645)" fill="#bd262b"/>
          <path id="Path_3899" data-name="Path 3899" d="M909.134,524.379c-.683-1.653,1.555-2.575,7.222-4.935.214-.091,1.242-1.283,1.481-1.382.888-.469-7.091,3.109-7.913,1.629-1.094-1.966.444-3.06,7.617-6.1,4.623-1.966,9.04-3.521,9.451-5.24,1.053-4.425-11.532-2.986-6.794-5.577a51.653,51.653,0,0,1,7.913-2.879c4.146-1.135,3.529-1.234,11.409-1.514,12.371-.436,21.494-20.342,18.277-5.643-1.078,4.919-2.517,10.06-5.807,14.79-6.54,9.41-17.11,17.406-23.756,20.235-.428.181-.847.37-1.267.559-3.323,1.629-6.507,2.279-7.115,1.5-.93-1.184,3.027-3.4,6.128-4.656.888-.362-10.266,4.113-11.319,2.8-1.119-1.4,3.891-3.751,7.568-5.289,1.02-.428-12.051,4.244-13.087,1.719Z" transform="translate(-775.476 -240.719)" fill="#ea9883"/>
          <path id="Path_3900" data-name="Path 3900" d="M965.2,303.795h1.25s26.775-10.422,40.5,15.58c9.624,18.22,16.583,61.257,18.623,83.985a40.027,40.027,0,0,1-8.292,28.28c-10.332,13.2-32.335,32.261-56.93,48.483L946.42,461.976l39.344-60.871-21.716-57.161c-5.289-13.91-9.394-29.629,1.143-40.142Z" transform="translate(-782.113 -207.789)" fill="#e65023"/>
          <path id="Path_3901" data-name="Path 3901" d="M915.434,271.231l-2.4-1.974.132,14.765a7.445,7.445,0,0,1-4.6,6.943l-10.685,4.409s14.576,9.9,33.66,9.665c16.583-.206,31.6-9.394,31.6-9.394l-8.341-3.257a7.434,7.434,0,0,1-4.722-6.465l-1.259-20.063-33.38,5.371Z" transform="translate(-773.501 -201.424)" fill="#f3b2a7"/>
          <path id="Path_3902" data-name="Path 3902" d="M919.393,265.055l-3.833-3.735v14.7s6.663,19.215,25.385,20.6c18.919,1.39,26.931-.814,26.8-2.081,0,0-14.008-1.7-14.42-8.267s-1.382-21.206-1.382-21.206H919.385Z" transform="translate(-776.638 -200.619)" fill="#f3b2a7" opacity="0.69"/>
          <path id="Path_3903" data-name="Path 3903" d="M901.7,225.662c1.234-17.068,10.356-31.834,30.476-30.666,30.937,1.81,30.485,53.476,14.313,69.722-9.805,9.854-26.544,8.95-34.03-.485C904.833,254.633,900.712,239.4,901.7,225.662Z" transform="translate(-774.153 -188.84)" fill="#f3b2a7"/>
          <path id="Path_3904" data-name="Path 3904" d="M962.038,224.02c-1.571-6.646-3-13.1-6.531-18.08l-15.826,7.979s-2.443,13.318-1.719,19.964c1.612,14.773,7.115,14.165,2.7,18.483-3.57,3.5,2.591,12.141-1,21.214,5.487-.9,14.074-5.084,16.361-9.887,5.511-11.607,9.542-24.776,6.013-39.673Z" transform="translate(-780.588 -190.793)" fill="#f3b2a7" opacity="0.27"/>
          <path id="Path_3905" data-name="Path 3905" d="M839.473,408.33l-5.273-19.66,2.64-8.481Z" transform="translate(-762.202 -221.709)" fill="#bd262b"/>
          <path id="Path_3906" data-name="Path 3906" d="M891.284,221.777c.855-8.777,8.44-31.332,36.358-33.734,10.669-.921,10.414,17.727,2.83,27.671-4.935,6.465-10.4,6.646-18.36,9.139-15.292,4.787-12.38,27.194-12.38,27.194s-9.131-23.2-8.44-30.271Z" transform="translate(-772.325 -187.612)" fill="#221e1f"/>
          <path id="Path_3907" data-name="Path 3907" d="M939.351,207.528s1.563,13.186,12.783,14.148c18.845,1.612,4.648,35.14,14.872,35.14,4.327,0-.255-24.217-.255-24.217l-2.237-15.226-4.179-13.433-5.791-3.734-12.232-6.457-5.042,4.787,2.081,8.983Z" transform="translate(-780.489 -188.63)" fill="#221e1f"/>
          <path id="Path_3908" data-name="Path 3908" d="M908.051,240.825s-.518-7.049-6.737-4.754-5.849,19.635,5.626,18.162" transform="translate(-773.398 -196.057)" fill="#f3b2a7"/>
          <g id="Group_3506" data-name="Group 3506" transform="translate(176.687 39.176)">
            <path id="Path_3909" data-name="Path 3909" d="M961.47,240.365s.518-7.049,6.737-4.754,5.848,19.635-5.626,18.162" transform="translate(-961.47 -235.152)" fill="#f3b2a7"/>
            <path id="Path_3910" data-name="Path 3910" d="M961.47,240.365s.518-7.049,6.737-4.754,5.848,19.635-5.626,18.162" transform="translate(-961.47 -235.152)" fill="#f3b2a7" opacity="0.27"/>
          </g>
        </g>
      </g>
    </g>
  </g>
</svg>
