<svg xmlns="http://www.w3.org/2000/svg" xmlns:xlink="http://www.w3.org/1999/xlink" width="232.665" height="49" viewBox="0 0 232.665 49">
  <defs>
    <clipPath id="clip-path">
      <path id="Path_16" data-name="Path 16" d="M.219,26.892c-.669-1.817.288-3.061,2.1-3.493l2.727-.622c1.677-.381,2.536.335,3.54,1.867a5.513,5.513,0,0,0,4.929,2.248c2.3,0,3.925-.766,3.925-2.392,0-.813-.432-1.867-2.824-2.634L10.839,20.43c-1.626-.525-9.76-2.68-9.857-9.811C.981,4.162,6.439,0,13.76,0c5.17,0,8.8,2.058,10.958,5.886,1,1.723.191,3.159-1.677,3.684l-2.583.72c-1.626.478-2.536-.191-3.73-1.533a3.552,3.552,0,0,0-2.773-1.1c-1.626,0-3.159.669-3.159,2.1,0,.957.669,1.817,2.727,2.536l3.73,1.291c7.465,2.583,9.811,5.839,9.951,10.573,0,7.131-6.411,10.382-13.685,10.382-6.6,0-11.39-2.727-13.3-7.656Z" transform="translate(-0.005)" fill="none"/>
    </clipPath>
    <clipPath id="clip-path-2">
      <path id="Path_22" data-name="Path 22" d="M74.064,31.866V4.111A2.576,2.576,0,0,1,76.935,1.24h4.306a2.576,2.576,0,0,1,2.871,2.871v22.01H96.265a2.576,2.576,0,0,1,2.871,2.871v2.871a2.576,2.576,0,0,1-2.871,2.871H76.931a2.576,2.576,0,0,1-2.871-2.871Z" transform="translate(-74.06 -1.24)" fill="none"/>
    </clipPath>
    <clipPath id="clip-path-3">
      <path id="Path_24" data-name="Path 24" d="M145.6,31.866V4.111a2.576,2.576,0,0,1,2.871-2.871h4.306a2.576,2.576,0,0,1,2.871,2.871V31.862a2.576,2.576,0,0,1-2.871,2.871h-4.306a2.576,2.576,0,0,1-2.871-2.871Z" transform="translate(-145.6 -1.24)" fill="none"/>
    </clipPath>
    <clipPath id="clip-path-4">
      <path id="Path_27" data-name="Path 27" d="M211.34,13.155c0,6.411-4.209,11.339-11.962,11.339h-6.22v7.368a2.576,2.576,0,0,1-2.871,2.871h-4.306a2.576,2.576,0,0,1-2.871-2.871V4.111a2.576,2.576,0,0,1,2.871-2.871h13.4C207.178,1.24,211.34,6.745,211.34,13.155Zm-10.048.1a3.213,3.213,0,0,0-2.968-3.4h-5.17v6.652h5.17a3.172,3.172,0,0,0,2.968-3.252Z" transform="translate(-183.11 -1.24)" fill="none"/>
    </clipPath>
  </defs>
  <g id="Group_93" data-name="Group 93" transform="translate(-37 -34)">
    <g id="レイヤー_1" data-name="レイヤー 1" transform="translate(36.995 34)">
      <g id="横組み_カラー" data-name="横組み カラー" transform="translate(0.005)">
        <g id="Group_1" data-name="Group 1" transform="translate(133.522 4.529)">
          <path id="Path_1" data-name="Path 1" d="M344.629,14.712c.373.538-.279,1.541,1.16,1.7a1.788,1.788,0,0,0,2.066-1.122c.089-.563.144-2.511-2.549-3.51s-7.5-1.9-16.082.152-12.1,5.839-13.054,7.44-1.571,3.553.961,6.025,9.243,4.3,13.732,5.551,6.423,2.511,6.4,3.493-2.477,2.989-7.948,3.459-4.62-2.215-6.728-1.643-1.507,2.054.025,2.795,4.853,1.859,10.581.5,7.262-4.438,7.207-5.534-.936-2.659-3.51-3.654-10.751-3.311-13.219-4.387-5.568-2.32-5.081-5.136,7.478-5.814,9.658-6.343a34.865,34.865,0,0,1,10.116-1.516c4.277.152,5.729.948,6.267,1.719Z" transform="translate(-315.341 -10.697)"/>
          <path id="Path_2" data-name="Path 2" d="M460.431,60.93a10.409,10.409,0,0,0,5.852-.7,22.79,22.79,0,0,0,3.7-2.168c.313-.318.034-2.549-.8-1.766a13.757,13.757,0,0,1-4.044,2.871,4.726,4.726,0,0,1-3.912.055,2.476,2.476,0,0,1-1.592-3.125c.207-1.012-1.092-1.753-2.312-1.05s-2.3,2.634-4.48,3.438-5.949,1.55-7.219.318.605-4.171,2.1-5.191a11.35,11.35,0,0,1,3.536-1.821c1.55-.529,3.531-.2,3.663.618.025.157-.174,1.495,1.63,1.368A1.489,1.489,0,0,0,458,51.712c-.14-.453-.694-2.7-4.526-2.282a13.271,13.271,0,0,0-8.989,4.912c-1.973,2.312-3.739,5.75.152,7.054s8.706-.512,9.417-.86a18.119,18.119,0,0,0,2.621-1.6,7.6,7.6,0,0,0,3.747,2Z" transform="translate(-388.555 -32.999)"/>
          <path id="Path_3" data-name="Path 3" d="M520.724,49.864c-.91-3.155-8.231-4.666-14.087-.351a7.517,7.517,0,0,1,1.135-2.583c.428-.711,1.037-1.884-.364-1.944s-2.193.83-3.015,2.769a80.465,80.465,0,0,0-3.735,15.171c-1.046,6.864-.686,12.093,1.419,12.008s2.02-1.012,1.863-1.41-.923-1.85-.411-8.773,1.486-8.638,1.486-8.638a8.059,8.059,0,0,0,8.9,2.841c2.8-.758,5.255-2.193,6.593-5.022A5.592,5.592,0,0,0,520.724,49.864Zm-7.7,7.512c-5.585,1.249-7.668-2.879-7.262-3.692.58-1.156,2.943-3.159,5.606-3.951,3.828-1.143,7.533-.161,7.533,2.752,0,2.172-2.879,4.222-5.877,4.891Z" transform="translate(-421.863 -30.466)"/>
          <path id="Path_4" data-name="Path 4" d="M403.6,61.788c-2.85.559-3.256-2.206-5.454-4.3s-4.285-1.575-6.127-.258c-2.083,1.49-4.7,3.946-4.844,3.824a4.061,4.061,0,0,1-.792-2.172,14.055,14.055,0,0,1,.69-5.521c.381-1,.017-1.211-1.118-1.2s-1.554.991-1.99,2.926c-.2.885-1.228,5.1.635,7.092,2.638,2.82,4.158.377,7.042-2.032s3.527-1.27,4.438-.5,2.68,3.557,4.963,3.752a9.346,9.346,0,0,0,4.852-.923,22.483,22.483,0,0,0,3.7-2.168c.313-.318.034-2.549-.8-1.766a13.756,13.756,0,0,1-4.044,2.871,6.077,6.077,0,0,1-1.152.381h0Z" transform="translate(-354.644 -34.603)"/>
        </g>
        <g id="Group_2" data-name="Group 2" transform="translate(107.03 24.746)">
          <path id="Path_5" data-name="Path 5" d="M253.864,68.4c-.131.432-.813,2.49.423,3.472s3.235,1.186,6.589-.453-.233-.9-.233-.9a10.917,10.917,0,0,1-2.706,1.071,2,2,0,0,1-2.456-1.275,5.366,5.366,0,0,1,.449-2.757c.258-.5.008-.593-.741-.584s-1.033.487-1.325,1.431Z" transform="translate(-253.227 -63.359)"/>
          <path id="Path_6" data-name="Path 6" d="M272.041,70.245a5.263,5.263,0,0,1,.457-2.7c.25-.487.008-.593-.741-.584s-1.033.487-1.325,1.431c-.131.432-.817,2.494.423,3.472,1.757,1.38,2.769.186,4.687-1s2.346-.622,2.951-.246,1.766,1.753,3.282,1.85a15.544,15.544,0,0,0,4.81-.669c1.7-.445,1.922-.762,1.808-1.169s-.635-.326-1.385-.1a19.342,19.342,0,0,1-3.392.728c-1.9.275-2.291-.669-3.752-1.694a3.645,3.645,0,0,0-4.078-.127c-1.389.728-3.129,1.931-3.222,1.872a1.765,1.765,0,0,1-.529-1.063Z" transform="translate(-262.778 -63.353)"/>
          <path id="Path_7" data-name="Path 7" d="M254.543,60.1c-.3.042-1.393.169-1.656-.11s-.025-.6.313-.809a1.686,1.686,0,0,1,.953-.237,2.449,2.449,0,0,0,1.147-.152,1.937,1.937,0,0,1,1.478-.279c.55.195.085.817-.3.987a9.038,9.038,0,0,1-1.935.6Z" transform="translate(-252.775 -58.443)"/>
        </g>
        <g id="Group_9" data-name="Group 9">
          <path id="Path_8" data-name="Path 8" d="M.219,26.892c-.669-1.817.288-3.061,2.1-3.493l2.727-.622c1.677-.381,2.536.335,3.54,1.867a5.513,5.513,0,0,0,4.929,2.248c2.3,0,3.925-.766,3.925-2.392,0-.813-.432-1.867-2.824-2.634L10.839,20.43c-1.626-.525-9.76-2.68-9.857-9.811C.981,4.162,6.439,0,13.76,0c5.17,0,8.8,2.058,10.958,5.886,1,1.723.191,3.159-1.677,3.684l-2.583.72c-1.626.478-2.536-.191-3.73-1.533a3.552,3.552,0,0,0-2.773-1.1c-1.626,0-3.159.669-3.159,2.1,0,.957.669,1.817,2.727,2.536l3.73,1.291c7.465,2.583,9.811,5.839,9.951,10.573,0,7.131-6.411,10.382-13.685,10.382-6.6,0-11.39-2.727-13.3-7.656Z" transform="translate(-0.005)" fill="#e65023"/>
          <path id="Path_9" data-name="Path 9" d="M74.064,31.866V4.111A2.576,2.576,0,0,1,76.935,1.24h4.306a2.576,2.576,0,0,1,2.871,2.871v22.01H96.265a2.576,2.576,0,0,1,2.871,2.871v2.871a2.576,2.576,0,0,1-2.871,2.871H76.931a2.576,2.576,0,0,1-2.871-2.871Z" transform="translate(-42.703 -0.715)" fill="#6eb446"/>
          <path id="Path_10" data-name="Path 10" d="M145.6,31.866V4.111a2.576,2.576,0,0,1,2.871-2.871h4.306a2.576,2.576,0,0,1,2.871,2.871V31.862a2.576,2.576,0,0,1-2.871,2.871h-4.306a2.576,2.576,0,0,1-2.871-2.871Z" transform="translate(-83.951 -0.715)" fill="#288cd2"/>
          <path id="Path_11" data-name="Path 11" d="M211.34,13.155c0,6.411-4.209,11.339-11.962,11.339h-6.22v7.368a2.576,2.576,0,0,1-2.871,2.871h-4.306a2.576,2.576,0,0,1-2.871-2.871V4.111a2.576,2.576,0,0,1,2.871-2.871h13.4C207.178,1.24,211.34,6.745,211.34,13.155Zm-10.048.1a3.213,3.213,0,0,0-2.968-3.4h-5.17v6.652h5.17a3.172,3.172,0,0,0,2.968-3.252Z" transform="translate(-105.579 -0.715)" fill="orange"/>
          <g id="Group_5" data-name="Group 5" clip-path="url(#clip-path)">
            <path id="Path_12" data-name="Path 12" d="M12.214,33.892c-.61.525-1.838.771-2.261,2.452s.648,3.019,2.117,2.879,2.032-.491,2.6.631a3.045,3.045,0,0,0,3.506,1.4,3.206,3.206,0,0,0,2.244-3.3c-.25-1.186-.212-1.825,1.262-2.316a2.843,2.843,0,0,0,1.541-3.646,2.666,2.666,0,0,0-3.239-.775c-1.338.47-1.808-.487-2.159-.978a2.649,2.649,0,0,0-2.807-.771,2.209,2.209,0,0,0-1.893,2.384,2.187,2.187,0,0,1-.91,2.032Z" transform="translate(-5.687 -16.933)" fill="orange"/>
            <path id="Path_13" data-name="Path 13" d="M44.219,36.886s-.161-6.063,3.413-7.931,2.727,2.871,1.49,4.73a7.621,7.621,0,0,1-4.9,3.205Z" transform="translate(-25.497 -16.447)" fill="#6eb446"/>
            <path id="Path_14" data-name="Path 14" d="M23,69.584s-.279,3.646-3.506,4.958-2.151-2.57,0-3.929A6.263,6.263,0,0,1,23,69.584Z" transform="translate(-10.07 -40.118)" fill="#6eb446"/>
            <path id="Path_15" data-name="Path 15" d="M44.96,48.652c-.8-.135-3.366-.182-3.595,2.405-.284,3.26-.771,3.4-3.011,3.972-2.786.72-2.651,5.826.673,5.826s2.782-2.041,5.39-1.893c2.651.152,3.777-.212,4.222-2.248.584-2.676-2.426-1.507-1.706-4.764a2.5,2.5,0,0,0-1.977-3.3Z" transform="translate(-20.984 -28.022)" fill="orange"/>
            <g id="Group_3" data-name="Group 3" transform="translate(9.554 16.607)">
              <circle id="Ellipse_1" data-name="Ellipse 1" cx="0.432" cy="0.432" r="0.432" transform="translate(1.588)" fill="#e1e6f0"/>
              <circle id="Ellipse_2" data-name="Ellipse 2" cx="0.432" cy="0.432" r="0.432" transform="translate(1.321 1.321)" fill="#e1e6f0"/>
              <circle id="Ellipse_3" data-name="Ellipse 3" cx="0.432" cy="0.432" r="0.432" transform="translate(0 1.503)" fill="#e1e6f0"/>
              <circle id="Ellipse_4" data-name="Ellipse 4" cx="0.432" cy="0.432" r="0.432" transform="translate(0.305 0.203)" fill="#e1e6f0"/>
            </g>
            <g id="Group_4" data-name="Group 4" transform="translate(21.148 26.159)">
              <circle id="Ellipse_5" data-name="Ellipse 5" cx="0.432" cy="0.432" r="0.432" transform="translate(0.919)" fill="#e1e6f0"/>
              <circle id="Ellipse_6" data-name="Ellipse 6" cx="0.432" cy="0.432" r="0.432" transform="translate(1.44 1.397)" fill="#e1e6f0"/>
              <circle id="Ellipse_7" data-name="Ellipse 7" cx="0.432" cy="0.432" r="0.432" transform="translate(0 1.122)" fill="#e1e6f0"/>
            </g>
          </g>
          <g id="Group_6" data-name="Group 6" transform="translate(31.357 0.525)" clip-path="url(#clip-path-2)">
            <path id="Path_17" data-name="Path 17" d="M73.914,41.094H84.021V33.54a4.129,4.129,0,0,0-3.1,2.045c-1.249,1.986-4.023.432-4.467-.4a3.463,3.463,0,0,0-2.541-1.6v7.507Z" transform="translate(-73.974 -19.863)" fill="#9e9e9f"/>
            <path id="Path_18" data-name="Path 18" d="M74.064,43.57c1.728,0,2.85,2.947,4.9,2.947s2.655-2.947,5.145-2.947v6.961H99.135v8.613H74.06V43.57Z" transform="translate(-74.06 -25.646)" fill="#288cd2"/>
            <path id="Path_19" data-name="Path 19" d="M84.122,37.055V32.3c-2.494,0-3.091,2.714-5.149,2.714s-3.18-2.714-4.9-2.714v4.78c1.728,0,2.85,2.714,4.9,2.714s2.659-2.744,5.149-2.744Z" transform="translate(-74.066 -19.148)" fill="#5ab9dc"/>
            <path id="Path_20" data-name="Path 20" d="M88.878,46.1A3.915,3.915,0,0,1,85.8,44.452a2.457,2.457,0,0,0-4.26,0,3.683,3.683,0,0,1-6.144,0,2.693,2.693,0,0,0-2.13-1.232V41.95A3.9,3.9,0,0,1,76.34,43.6a2.457,2.457,0,0,0,4.26,0,3.687,3.687,0,0,1,6.148,0,2.7,2.7,0,0,0,2.13,1.232Z" transform="translate(-73.604 -24.712)" fill="#e1e6f0"/>
            <path id="Path_21" data-name="Path 21" d="M88.878,35.234A3.915,3.915,0,0,1,85.8,33.582a2.457,2.457,0,0,0-4.26,0,3.683,3.683,0,0,1-6.144,0,2.693,2.693,0,0,0-2.13-1.232V31.08a3.9,3.9,0,0,1,3.07,1.651,2.457,2.457,0,0,0,4.26,0,3.687,3.687,0,0,1,6.148,0,2.7,2.7,0,0,0,2.13,1.232Z" transform="translate(-73.604 -18.445)" fill="#e1e6f0"/>
          </g>
          <g id="Group_7" data-name="Group 7" transform="translate(61.649 0.525)" clip-path="url(#clip-path-3)">
            <rect id="Rectangle_1" data-name="Rectangle 1" width="4.349" height="16.831" transform="translate(2.951 14.269)" fill="#5ab9dc"/>
            <path id="Path_23" data-name="Path 23" d="M145.6,31.14V51.977h10.048V31.14Zm5.7,18.3h-1.351V47.616H151.3Zm0-4.653h-1.351V42.962H151.3Zm0-4.653h-1.351V38.309H151.3Zm0-4.653h-1.351V33.655H151.3Z" transform="translate(-145.6 -18.48)" fill="#e1e6f0"/>
          </g>
          <g id="Group_8" data-name="Group 8" transform="translate(77.531 0.525)" clip-path="url(#clip-path-4)">
            <path id="Path_25" data-name="Path 25" d="M172.139,31.08h-6.017L150.15,51.93h37.96Z" transform="translate(-164.106 -18.445)" fill="#288cd2"/>
            <path id="Path_26" data-name="Path 26" d="M191.879,38.325l-2.422,1.512-3.07-1.478-3.066,1.478-3.07-1.478-3.07,1.478-2.422-1.512,5.551-7.245h6.017Z" transform="translate(-178.296 -18.445)" fill="#e1e6f0"/>
          </g>
        </g>
      </g>
    </g>
  </g>
</svg>
