<svg xmlns="http://www.w3.org/2000/svg" width="195.204" height="186.495" viewBox="0 0 195.204 186.495">
  <g id="Layer_2" data-name="Layer 2" transform="translate(0.001 0)">
    <g id="Group_3646" data-name="Group 3646">
      <path id="Path_4523" data-name="Path 4523" d="M159.15,38.59c.01.1.03.19.03.28,0,0,.09-.16.25-.48.44-.29.76-1.51,1.58-1.43,2.36.21,3.01,1.24,3.01,5.14s-2.65,8-6.24,8.08c0,0-.37,2.09-1.76,8.12a16.971,16.971,0,0,1-3.67,6.71c-3.52,4.15-9.05,7.71-15.18,7.71a19.573,19.573,0,0,1-14.12-6.5,18.387,18.387,0,0,1-4.49-7.92,29.017,29.017,0,0,1-1.02-8.12s-6.83-.59-7.2-7.71c-.26-5.27,3.17-6.18,5.31-6.87a10.059,10.059,0,0,0,1.85,3.57c-.14-.39-.38-2.36,5.47-7.49,6.6-5.8,10.64-11.97,9.25-17.1,0,0,4.32-2.87,11.82,0,6.91,2.63,13.44,12.96,14.87,22.03h0" fill="#fcc0ab"/>
      <path id="Path_4524" data-name="Path 4524" d="M159.43,38.39a2.831,2.831,0,0,0-.28.2,17.436,17.436,0,0,0-.23-1.98h0c-1.44-9.09-7.97-19.41-14.87-22.04-7.5-2.87-11.82,0-11.82,0,1.39,5.13-2.65,11.31-9.25,17.1-5.85,5.13-5.61,7.1-5.47,7.49a16.013,16.013,0,0,1-2.18-4.55c-2.33-7.35-1.51-17.81,2.22-23.2,4.63-6.68,10.64-4.92,10.64-4.92S133.48.62,140.82.02c7.35-.58,20.86,11.9,21.52,22.11a32.7,32.7,0,0,1-2.9,16.26Z" fill="#666"/>
      <path id="Path_4525" data-name="Path 4525" d="M159.43,38.39a2.831,2.831,0,0,0-.28.2c.01.1.03.19.03.28,0,0,.09-.16.25-.48Z"/>
      <path id="Path_4526" data-name="Path 4526" d="M158.62,36.55h-4.24a7.619,7.619,0,0,0-14.64,2.96,5.44,5.44,0,0,0,.03.57h-4.08c.01-.19.03-.38.03-.57a7.619,7.619,0,0,0-14.64-2.96H118a.63.63,0,0,0,0,1.26h2.68a7.325,7.325,0,0,0-.2,1.7,7.612,7.612,0,0,0,15,1.83h4.3a.584.584,0,0,0,.18-.04,7.612,7.612,0,0,0,15.01-1.79,7.39,7.39,0,0,0-.2-1.7h3.84a.65.65,0,1,0,0-1.26Zm-30.51,9.31a6.35,6.35,0,1,1,6.35-6.35A6.359,6.359,0,0,1,128.11,45.86Zm19.26,0a6.35,6.35,0,1,1,6.35-6.35A6.359,6.359,0,0,1,147.37,45.86Z" fill="#e65023"/>
      <path id="Path_4527" data-name="Path 4527" d="M158.46,76.61l-.05,2.19-40.37.68-.03-1.8,4.06-3.18a2.583,2.583,0,0,0,.98-2.02V68.86c2.45,1.99,7.46,5.31,13.57,5.31s12.33-3.59,15.72-5.86V72.1a2.582,2.582,0,0,0,1.47,2.32l4.64,2.18Z" fill="#ffbca8"/>
      <path id="Path_4528" data-name="Path 4528" d="M152.35,64.99v3.33c-3.39,2.27-9.73,5.86-15.72,5.86s-11.13-3.31-13.57-5.31V66.2a19.535,19.535,0,0,0,14.12,6.5c6.13,0,11.66-3.57,15.18-7.71Z" fill="#ffa695"/>
      <path id="Path_4529" data-name="Path 4529" d="M141.44,150.46a60.336,60.336,0,0,1-3.05,8.77c-2.75-.76-6.2-1.65-8.52-2.05-1.03-.18-1.75-.33-2.31-.48-1.8-.47-1.88-.89-5.51-2.17-1.01-.35-1.84-.68-2.52-.98-2.55-1.12-3.1-1.88-3.1-1.88l-.29.35-1.06,1.26a3.6,3.6,0,0,1-2.72,1.25h-.35a3.56,3.56,0,0,1-3.24-2.07l-.82-1.78-1.31,1.65-2.05-.19a3.364,3.364,0,0,1-3.06-3.18l-.13-2.39a5.519,5.519,0,0,1,2.19-4.71l6.28-4.71a1.119,1.119,0,0,0,.45-.92,1.144,1.144,0,0,0-1.75-.97l-8.42,5.28a3.273,3.273,0,0,1-1.76.52,1.305,1.305,0,0,1-.34-.03l-1.64-5.97,11.65-8.82a4.172,4.172,0,0,1,5.33.25l5.14,4.7s.08.01.21.03c1.11.14,6.24.91,8.5,3.16a19.182,19.182,0,0,0,7.26,4.63,45.473,45.473,0,0,0,6.63,1.6,22.04,22.04,0,0,1,.32,9.86Z" fill="#ffbcac"/>
      <path id="Path_4530" data-name="Path 4530" d="M195.19,121.94c-.44-33.38-9.04-35.47-17.95-39.21s-18.73-7.93-18.73-7.93l-.05,1.81-.05,2.19-1.66,63.07-16.37-3.86a24.328,24.328,0,0,1,.76,2.58,22.04,22.04,0,0,1,.32,9.86,60.336,60.336,0,0,1-3.05,8.77c-.76,1.83-1.34,3.01-1.34,3.01l18.69,5.39-.91,16.74,29.77-.98v-8.92s11.02-19.16,10.57-52.53Z" fill="#288cd2"/>
      <path id="Path_4531" data-name="Path 4531" d="M156.75,141.88l-16.37-3.86a24.328,24.328,0,0,1,.76,2.58,45.473,45.473,0,0,1-6.63-1.6,18.939,18.939,0,0,1-7.26-4.63c-2.26-2.26-7.39-3.02-8.5-3.16l-.71-51.73,40.37-.68-1.66,63.07Z" fill="#fff"/>
      <path id="Path_4532" data-name="Path 4532" d="M116.77,183.07l-28.18.54s-1.99,3.2-8.04,2.86a18.27,18.27,0,0,1-11.46-4.4,50.623,50.623,0,0,1-5.22-4.75c-.39-.39-.62-.64-.62-.64s2.31-1,7.49-.77c5.18.21,7.49-.44,9.36-3.97,1.68-3.18.42-3.14-.09-7.44l24.31,2.48s5.79-2.58,12.01-5.34l.43,21.43Z" fill="#288cd2"/>
      <path id="Path_4533" data-name="Path 4533" d="M80.1,171.94c-1.88,3.53-4.18,4.18-9.36,3.97-5.18-.23-7.49.77-7.49.77s.23.25.62.64c-6.68-1.65-12.63-8.91-12.63-8.91a41.492,41.492,0,0,1-5.28-.44,18.145,18.145,0,0,1-9.25-3.74c-3.47-2.52-1.11-4.85-.9-5.05l1.05.11,6.35.76a57.776,57.776,0,0,1,1.21-11.44,26.473,26.473,0,0,1,2.1-5.77,3.243,3.243,0,0,1,2.92-1.76,2.271,2.271,0,0,1,.45.03,3.291,3.291,0,0,1,2.66,4.23,52.2,52.2,0,0,0-1.65,6.47,30.186,30.186,0,0,0,0,7.49l6.28,1.21a36.769,36.769,0,0,1,1-8.58c1.1-4.51,3.53-5.51,11.12-5.07s7.16,2.31,9.04,4.3,1.21,5.84,1.54,11.78c.04.59.08,1.11.14,1.59.5,4.3,1.76,4.26.09,7.44Z" fill="#febead"/>
      <path id="Path_4534" data-name="Path 4534" d="M116.2,154.86l-12.97,5.08-5.18-18.91a1.305,1.305,0,0,0,.34.03,3.19,3.19,0,0,0,1.76-.52l8.42-5.28a1.144,1.144,0,0,1,1.75.97,1.119,1.119,0,0,1-.45.92l-6.28,4.71a5.519,5.519,0,0,0-2.19,4.71l.13,2.39a3.364,3.364,0,0,0,3.06,3.18l2.05.19,1.31-1.65.82,1.78a3.56,3.56,0,0,0,3.24,2.07h.35a3.554,3.554,0,0,0,2.72-1.25l1.06-1.26.05,2.84Z" fill="#288cd2"/>
      <path id="Path_4535" data-name="Path 4535" d="M119.54,153.55l-3.34,1.31-.05-2.84.29-.35S116.99,152.43,119.54,153.55Z" fill="#fff"/>
      <path id="Path_4536" data-name="Path 4536" d="M127.57,156.7c-2.95,1.29-7.18,3.15-11.23,4.94-6.23,2.76-12.01,5.34-12.01,5.34L80.02,164.5c-.06-.48-.1-1-.14-1.59-.33-5.95.33-9.81-1.54-11.78-1.88-1.99-1.44-3.86-9.04-4.3s-10.02.55-11.12,5.07a36.769,36.769,0,0,0-1,8.58l-6.28-1.21a30.186,30.186,0,0,1,0-7.49,52.649,52.649,0,0,1,1.65-6.47,3.288,3.288,0,0,0-2.66-4.23,2.271,2.271,0,0,0-.45-.03,3.261,3.261,0,0,0-2.92,1.76,26.674,26.674,0,0,0-2.1,5.77,57.776,57.776,0,0,0-1.21,11.44l-6.35-.76-1.03-.13h-.01l-17.17-1.87L.09,102.15a1.743,1.743,0,0,1,1.76-2.29l76.59,4.84,7.88.49a2.706,2.706,0,0,1,2.43,1.97l7.65,27.91h-.03a3.355,3.355,0,0,0-.92,4.27,3.268,3.268,0,0,0,2.58,1.7l5.18,18.91,12.97-5.08,3.34-1.31c.68.3,1.51.63,2.52.98,3.63,1.27,3.71,1.7,5.51,2.17Z" fill="#e65023"/>
      <path id="Path_4537" data-name="Path 4537" d="M118.04,79.49h-.03v-1.8h0v-.26h0v-.75s-10.37,4.3-16.98,6.28-13.76,3.86-17.07,8.26-3.97,5.39-4.74,9.36c-.24,1.22-.5,2.68-.77,4.12l7.88.49a2.706,2.706,0,0,1,2.43,1.97l7.65,27.91,11.65-8.82a4.172,4.172,0,0,1,5.33.25l5.14,4.7s.08.01.21.03l-.71-51.73Z" fill="#288cd2"/>
    </g>
  </g>
</svg>
