<svg id="Layer_2" data-name="Layer 2" xmlns="http://www.w3.org/2000/svg" width="159.344" height="147.586" viewBox="0 0 159.344 147.586">
  <g id="Group_3647" data-name="Group 3647" transform="translate(0 0)">
    <path id="Path_4538" data-name="Path 4538" d="M32.96,7.23a9.619,9.619,0,0,0-.238,2.17V22.443H14.54V13.9A6.677,6.677,0,0,1,21.213,7.23H32.96Z" transform="translate(1.159 0.576)" fill="#bdbebf"/>
    <path id="Path_4539" data-name="Path 4539" d="M134.857,13.9v8.541h-18.28V9.4a9.618,9.618,0,0,0-.238-2.17h11.844A6.67,6.67,0,0,1,134.857,13.9Z" transform="translate(9.274 0.576)" fill="#bdbebf"/>
    <path id="Path_4540" data-name="Path 4540" d="M147.392,21.5h-21.54V40.265H33.881V21.5H11.952A11.958,11.958,0,0,0,0,33.452v66.586a11.958,11.958,0,0,0,11.952,11.952H34.378V66.751h91.473v45.24h21.54a11.958,11.958,0,0,0,11.952-11.952V33.452A11.958,11.958,0,0,0,147.392,21.5Zm-5.409,35.166a4.718,4.718,0,1,1,4.718-4.718A4.723,4.723,0,0,1,141.983,56.666Zm0-16.5A4.718,4.718,0,1,1,146.7,35.45,4.723,4.723,0,0,1,141.983,40.168Z" transform="translate(0 1.714)" fill="#288cd2"/>
    <path id="Path_4541" data-name="Path 4541" d="M123.35,9.977V41.99H31.38V9.977a9.619,9.619,0,0,1,.238-2.17A9.973,9.973,0,0,1,41.357,0h72.017a9.98,9.98,0,0,1,9.739,7.806A9.619,9.619,0,0,1,123.35,9.977Z" transform="translate(2.501 0)" fill="#eaebeb"/>
    <path id="Path_4542" data-name="Path 4542" d="M75.126,112.851c-9.156,9.113-20.558,20.655-26.572,26.766H41.568a9.739,9.739,0,0,1-9.728-9.739V114.557c3.207-3.261,6.932-7.061,8.2-8.433.119-.13.248-.259.378-.4A18.117,18.117,0,0,1,53.067,100c6.619-.292,10.668,1.479,13.529,4.243.389.378.907.885,1.5,1.479,1.943,1.943,4.751,4.8,7.018,7.126Z" transform="translate(2.538 7.969)" fill="#c64426"/>
    <path id="Path_4543" data-name="Path 4543" d="M109.061,63.411H31.84v54.072c3.207-3.261,6.932-7.061,8.2-8.433.119-.13.248-.259.378-.4a18.117,18.117,0,0,1,12.654-5.722c6.619-.292,10.668,1.479,13.529,4.243.389.378.907.885,1.5,1.479,1.943,1.943,4.751,4.8,7.018,7.126,2.656-2.645,5.118-5.075,7.212-7.126,2.861-2.8,5.021-4.859,6-5.679,5.237-4.394,7.9-5.582,13.14-5.582s11.056,2.861,14.317,5.528c2,1.63,4.718,4.071,6.543,5.722h.961V63.4H109.04M61.057,90.76a8.1,8.1,0,1,1,8.1-8.1,8.1,8.1,0,0,1-8.1,8.1Z" transform="translate(2.538 5.054)" fill="#fff"/>
    <path id="Path_4544" data-name="Path 4544" d="M122.079,107.006v23.279a9.739,9.739,0,0,1-9.728,9.739H47.32c6.014-6.1,17.416-17.653,26.572-26.766,2.656-2.645,5.118-5.075,7.213-7.126,2.861-2.8,5.021-4.859,6-5.679,5.237-4.394,7.9-5.582,13.14-5.582s11.056,2.861,14.317,5.528c2,1.63,4.718,4.071,6.543,5.722.356.324.691.615.961.864Z" transform="translate(3.772 7.563)" fill="#e65023"/>
    <path id="Path_4545" data-name="Path 4545" d="M67.616,81.838a8.1,8.1,0,1,1-8.1-8.1A8.1,8.1,0,0,1,67.616,81.838Z" transform="translate(4.099 5.878)" fill="#fad4b4"/>
    <circle id="Ellipse_39" data-name="Ellipse 39" cx="4.718" cy="4.718" r="4.718" transform="translate(137.264 32.445)" fill="#fff"/>
    <circle id="Ellipse_40" data-name="Ellipse 40" cx="4.718" cy="4.718" r="4.718" transform="translate(137.264 48.954)" fill="#fff"/>
  </g>
</svg>
