<svg id="Layer_2" data-name="Layer 2" xmlns="http://www.w3.org/2000/svg" width="165.877" height="165.877" viewBox="0 0 165.877 165.877">
  <g id="Group_3645" data-name="Group 3645" transform="translate(0 0)">
    <circle id="Ellipse_38" data-name="Ellipse 38" cx="82.939" cy="82.939" r="82.939" fill="#95ccef"/>
    <path id="Path_4511" data-name="Path 4511" d="M144.516,132.273a43.786,43.786,0,0,1-4.558,16.695L143.7,160.25s-.38.086-1.088.207a85.283,85.283,0,0,1-13.4,1.062c-6.958.035-10.687-.924-11.973-1.347a5.427,5.427,0,0,1-.527-.19s2.641-12.81,3.427-16.548a9.749,9.749,0,0,1-2.7-1.114c-1.735-.941-10.7-7.346-12.966-8.96A9.366,9.366,0,0,0,107.113,130a10.09,10.09,0,0,0,1.243-3.436l11.2,5.421.38-.19c.622-2.84,3.513-5.9,5.689-8.408q.3-.35.57-.673c.7-.837,1.286-1.459,1.8-1.96h0c2.555-.354,9.97-1.6,12.9-4.748a2.879,2.879,0,0,0,1.278.242c.121.345.311.906.527,1.649a45.485,45.485,0,0,1,1.813,14.39Z" transform="translate(-14.29 -15.867)" fill="#e65023"/>
    <path id="Path_4512" data-name="Path 4512" d="M106.112,126.622a10.214,10.214,0,0,1-1.243,3.436,9.276,9.276,0,0,1-2.633,3.358c-.112.078-.173.112-.173.112a9.508,9.508,0,0,1-5.818-2.382,12.415,12.415,0,0,1-6.181.76,1.226,1.226,0,0,1-.518-.466c-.483-.622-1.165-2.046-1.467-5.266a12.458,12.458,0,0,1,.06-3.082c.475-3.358,2.3-5.3,3.781-5.447a2.5,2.5,0,0,1,1.234.19,3.155,3.155,0,0,1,3.677-.768,4.442,4.442,0,0,1,5.507.906,4.03,4.03,0,0,1,1.252,2.218,3.9,3.9,0,0,1,2.5,3.375,15.932,15.932,0,0,1,.035,3.056Z" transform="translate(-12.038 -15.931)" fill="#fad4b4"/>
    <path id="Path_4513" data-name="Path 4513" d="M75.578,132.687c-2.607.829-4.092,1.321-5.516,1.752l3.513,17.912s-.829.129-2.348.311c-2.538.311-7.009.777-12.715,1.088a90.176,90.176,0,0,1-15.918-.777c-1.649-.224-2.641-.4-2.641-.4,2.244-5.369,4.8-12.948,4.8-12.948S39.789,128.8,38.839,118.6c-.691-7.45,1.537-11.723,2.78-13.484a.54.54,0,0,1-.069-.095l1.545-2.08s.043.043.147.129a25.267,25.267,0,0,0,15.78,5.456,22.481,22.481,0,0,1,2.365,2.408,16.173,16.173,0,0,1,2.046,3.272c1.64,3.418,3.323,7.9,3.928,9.547l14.053-2.5a12.891,12.891,0,0,0-.06,3.082c.3,3.22.984,4.644,1.467,5.266a45.277,45.277,0,0,1-7.234,3.09Z" transform="translate(-5.295 -14.08)" fill="#288cd2"/>
    <path id="Path_4514" data-name="Path 4514" d="M78.72,60.331c.138,7.873-3.936,10.877-5.62,11.792.147-1.157.293-2.236.388-3.116.259-2.4,0-8.33,0-8.33a14.551,14.551,0,0,1-6.63,3.4v-3.4c-2.011,3.66-8.546,5.758-8.546,5.758l.872-4.713c-4.005,4.618-11.334,9.236-11.334,9.236v6.8s-1.657-1.4-2.875-1.045-1.744,2.616-1.139,4.1a4.608,4.608,0,0,0,1.243,1.744c-4.057,2.1-5.818,7.4-6.181,8.615-8.5-2.805-15.081-10.661-15.46-24.395-.432-15.952,15.78-26.76,32.431-26.242s22.694,11.42,22.841,19.785Z" transform="translate(-3.205 -5.542)" fill="#666"/>
    <path id="Path_4515" data-name="Path 4515" d="M77.243,85.151S70.553,100.232,55.36,97.1a11.563,11.563,0,0,0,2.27,4.359,17.328,17.328,0,0,0,1.735,1.735,25.323,25.323,0,0,1-15.78-5.456L45.6,95.355a23.5,23.5,0,0,1-4.247-.967c.363-1.217,2.124-6.517,6.181-8.615a4.8,4.8,0,0,1-1.243-1.744c-.613-1.485-.086-3.746,1.139-4.1S50.3,80.973,50.3,80.973v-6.8s7.32-4.618,11.334-9.236l-.872,4.713s6.535-2.1,8.546-5.758v3.4a14.591,14.591,0,0,0,6.63-3.4s.259,5.93,0,8.33c-.095.88-.242,1.96-.388,3.116-.259,2.011-.544,4.256-.656,6.077a3.69,3.69,0,0,0,2.357,3.746Z" transform="translate(-5.656 -8.739)" fill="#fad4b4"/>
    <path id="Path_4516" data-name="Path 4516" d="M71.832,160.54c-.587,3.367-3.306,20.035-4.005,24.265a82.4,82.4,0,0,1-24.248-11.067l-.388-12.888a90.176,90.176,0,0,0,15.918.777c5.706-.311,10.177-.777,12.715-1.088Z" transform="translate(-5.907 -21.958)" fill="#435c88"/>
    <path id="Path_4517" data-name="Path 4517" d="M146.526,101.035c-.207,1.631-2.529,2.054-4.092,2.158-.2.009-.38.017-.544.017.423-1.554.837-3.211,1.2-4.713.673-.665,1.45-1.347,2-1.347.855,0,1.761,1.4,1.442,3.876Z" transform="translate(-19.407 -13.288)" fill="#fad4b4"/>
    <path id="Path_4518" data-name="Path 4518" d="M155.77,98.92c-1.355,2.391-1.217,3.9.095,4.722s2.391.872,3.332-1.019c0,0,.544,2.84-2.572,5.481s-5.689,2.823-7.579,2.141-2.659-3.289-2.659-3.289a6.5,6.5,0,0,1-3.289,1.295,3,3,0,0,1-1.278-.242,3.188,3.188,0,0,1-1.3-1.139,13.628,13.628,0,0,1-2.3-9.081c1.562-.1,3.885-.527,4.092-2.158.319-2.477-.587-3.876-1.442-3.876-.552,0-1.329.682-2,1.347-.363,1.493-.777,3.159-1.2,4.713-.337,1.209-.673,2.357-.993,3.323a33.485,33.485,0,0,1-3.375,7.294c.069-.363,1.278-6.267,2.029-12.387.768-6.319,1.088-8.572.855-11.956,0,0-1.6.561-4.42-1.26a7.824,7.824,0,0,1-3.634-4.938,10.776,10.776,0,0,1-8.1,2.477,10.216,10.216,0,0,1-4.989,2.581c.009.147.026.319.043.509,0,.121.017.242.026.371v.035c.009.138.017.293.035.44.026.3.043.622.069.958,0,.043.009.086.009.129.009.147.017.293.035.44.017.276.043.561.06.846-.889-1.424-4.256-7.122-4.169-12.007.086-5.637,13.216-17.817,28.875-17.057s23.143,15.616,22.383,25.724-5.283,13.216-6.638,15.607Z" transform="translate(-15.202 -7.876)" fill="#666"/>
    <path id="Path_4519" data-name="Path 4519" d="M145.888,174.411A82.426,82.426,0,0,1,114.95,187.17l3.738-20.01c1.286.423,5.007,1.381,11.973,1.347a84.3,84.3,0,0,0,13.4-1.062c.44,1.692,1.424,5.378,1.839,6.966Z" transform="translate(-15.722 -22.864)" fill="#bc391b"/>
    <path id="Path_4520" data-name="Path 4520" d="M131.881,113.1c.811-1.537.544-2.253.544-2.253C114.876,110.663,113.65,97.9,113.65,97.9a6.674,6.674,0,0,0,2.167-5.145c-.035-.932-.095-1.934-.155-2.883-.017-.285-.035-.57-.06-.846-.009-.147-.017-.293-.035-.44a.653.653,0,0,0-.009-.129c-.017-.337-.043-.665-.069-.958-.009-.155-.017-.3-.035-.44v-.035c-.009-.129-.017-.259-.026-.371-.017-.19-.035-.363-.043-.509a10.216,10.216,0,0,0,4.989-2.581,10.776,10.776,0,0,0,8.1-2.477,7.757,7.757,0,0,0,3.634,4.938c2.823,1.821,4.42,1.26,4.42,1.26.224,3.384-.086,5.645-.855,11.956-.742,6.12-1.951,12.025-2.029,12.387a33.243,33.243,0,0,0,3.375-7.294c.328-.967.665-2.115.993-3.323.164,0,.354-.009.544-.017a13.592,13.592,0,0,0,2.3,9.081,3.075,3.075,0,0,0,1.3,1.139c-2.926,3.151-10.341,4.394-12.9,4.739,1.295-1.278,2.037-1.752,2.616-2.857Z" transform="translate(-15.545 -11.09)" fill="#fad4b4"/>
    <g id="Group_3644" data-name="Group 3644" transform="translate(6.466 6.48)">
      <path id="Path_4521" data-name="Path 4521" d="M93.4,7.7S19.4.362,7.49,76.17c0,0,12.638-64.854,85.917-68.471Z" transform="translate(-7.49 -7.506)" fill="#fff"/>
      <path id="Path_4522" data-name="Path 4522" d="M171.14,104.32s-8.8,73.84-85.39,69.118C85.75,173.438,151.8,175.1,171.14,104.32Z" transform="translate(-18.194 -20.748)" fill="#fff"/>
    </g>
  </g>
</svg>
