<svg id="Group_154" data-name="Group 154" xmlns="http://www.w3.org/2000/svg" width="376.326" height="387.167" viewBox="0 0 376.326 387.167">
  <ellipse id="Ellipse_26" data-name="Ellipse 26" cx="26.165" cy="15.097" rx="26.165" ry="15.097" transform="translate(0 356.973)" fill="#575756" opacity="0.2"/>
  <ellipse id="Ellipse_27" data-name="Ellipse 27" cx="31.475" cy="18.169" rx="31.475" ry="18.169" transform="translate(68.485 167.164)" fill="#575756" opacity="0.2"/>
  <path id="Path_142" data-name="Path 142" d="M203.326,135.473c10.173,5.88,10.173,15.382,0,21.262s-26.653,5.88-36.826,0-10.173-15.382,0-21.262S193.153,129.593,203.326,135.473Z" transform="translate(164.369 135.62)" fill="#575756" opacity="0.2"/>
  <g id="Group_104" data-name="Group 104" transform="translate(73.31 57.188)">
    <g id="Group_102" data-name="Group 102" transform="translate(0 14.067)">
      <path id="Path_143" data-name="Path 143" d="M49.26,86.146l-1.648,5.005-1,7.243v6.653a2.312,2.312,0,0,1-1.18,2.38,7.449,7.449,0,0,1-6.653-1.322c-1.709-2.177-1.4-5.473-1.119-8.5l2.279-7.386,1.282-2.442,2.238-3.764,5.412,2.116h.387Z" transform="translate(-34.573 15.684)"/>
      <path id="Path_144" data-name="Path 144" d="M40.973,54.991,38.49,58.715l-1.831,3.52-.468,3.133c-.163.712.427,1.261.61.407l-.712,3.3c-.285.936.549,1.424.936.61l1.465-4.049L37.9,72c-.061.956.814,1.567,1.18.427l1.526-6.389v3.968l.488,2.971c.305,1.078,1.4,1.221,1.465.122L42.4,69.274s.488-2.625.814-3.825c.061-.183,1.648-1.913,1.648-1.913l2.787,4.354c.875.977,1.851.285,1.282-.977l-1.994-5.86s-1.526-2.767-1.668-3.032l-.142-.244.468-2.157L41.624,53.73l-.712,1.261Z" transform="translate(-36.031 -15.644)" fill="#fcaf75"/>
      <path id="Path_145" data-name="Path 145" d="M74.561,84.93l.61,4.354,3.906,3.54,10.071,3.561a2.393,2.393,0,0,1,0,3.561c-3.845,1.587-9.868.9-16.358-.264a10.473,10.473,0,0,1-7.915-.651,15.182,15.182,0,0,1,.855-7.243l.59-5.941,8.24-.916Z" transform="translate(-6.262 16.636)"/>
      <path id="Path_146" data-name="Path 146" d="M39.775,128.059c2.319,2.971,7.528,3.052,9.095.488,2.1-7.772,5.961-15.2,9.359-23.866L62.583,97.3c5.575-10.4,10.173-19.7,13.245-29.136l2.319.041C81.241,78.028,84.72,86.777,90.01,95.18c-.1,13.876-1.058,29.97,2.38,34.67a10.113,10.113,0,0,0,3.3.61c2.543,0,4.944-1.221,7.121-4.171l-.916-24.537a29.6,29.6,0,0,0,.081-12.391A121.894,121.894,0,0,0,90.01,55.2c-6.063,2.34-16.562,1.546-24.822-5.88-1.668,1.567-3.845,6.287-4.6,10.478-5.127,9.542-7.711,21.465-9.359,34.283-5.677,6.287-8.83,17.986-12.533,29.807A5.709,5.709,0,0,0,39.755,128Z" transform="translate(-33.308 -20.207)" fill="#3c3c3b"/>
      <path id="Path_147" data-name="Path 147" d="M51.783,64.165a7.992,7.992,0,0,0,1.16,1.933,1.425,1.425,0,0,0,.163.2,3.126,3.126,0,0,0,.346.387c.041.041.061.081.122.1.264.264.59.529.916.793a14.125,14.125,0,0,0,2.482,1.729c5.677,3.154,14.344,4.11,19.634.732l2.442-5.88a168.468,168.468,0,0,0,9.664-15.626l.977-9.481c-6.389-2.828-11.577-4.7-18.617-3.194-3.561-1.811-9.563-.427-13.123,1.282l-1.689,4.334L53.268,49.21c-.061.264-.142.57-.183.834A41.42,41.42,0,0,0,51.8,64.185Z" transform="translate(-19.903 -35.011)" fill="#ea4a49"/>
      <path id="Path_148" data-name="Path 148" d="M39.786,128.039c2.767-13.754,7.467-24.985,15.015-32.472-1.567-10.3,2.787-21.974,9.746-34.222.855-3.377,2.706-5.758,5.819-6.857a11.353,11.353,0,0,1-5.188-5.148c-1.668,1.567-3.845,6.287-4.6,10.478C55.452,69.361,52.868,81.283,51.22,94.1c-5.677,6.287-8.83,17.986-12.533,29.807a5.709,5.709,0,0,0,1.058,4.11Z" transform="translate(-33.318 -20.186)" fill="#3f668a" opacity="0.3"/>
      <path id="Path_149" data-name="Path 149" d="M59.229,61.456c3.093,9.827,6.572,18.576,11.862,26.979-.1,13.876-1.058,29.97,2.38,34.67a10.113,10.113,0,0,0,3.3.61c-3.337-6.511-3.377-21.872-3.418-37.274-5.9-11.109-10.071-21.73-8.2-30.6-2.543,1.953-5.087,2.971-7.609,2.238l-.59,3.3,2.319.041Z" transform="translate(-14.389 -13.461)" fill="#3f668a" opacity="0.3"/>
      <path id="Path_150" data-name="Path 150" d="M51.783,57.855a5.888,5.888,0,0,0,1.16,1.933,1.425,1.425,0,0,0,.163.2,5.19,5.19,0,0,0,.468.488A19.389,19.389,0,0,0,56.971,63c-1.465-8.627-.732-16.053,5.046-21.892l-8.932,2.6A41.42,41.42,0,0,0,51.8,57.855Z" transform="translate(-19.903 -28.701)" fill="#ea4a49" opacity="0.5"/>
      <path id="Path_151" data-name="Path 151" d="M71.8,36.03c-6.979,2.157-14.425,6.836-22.137,12.96-4.537,6.063-8,15.015-11.312,24.659.875,1.323,2.442,1.628,4.578,1.79,3.54-6.531,8.891-12.167,11.923-18.963,4.639-.183,11.577-4.456,18.332-7.732C81.545,45.674,79.49,37.8,71.819,36.03Z" transform="translate(-33.633 -33.957)" fill="#ea4a49"/>
    </g>
    <g id="Group_103" data-name="Group 103" transform="translate(48.628)">
      <path id="Path_152" data-name="Path 152" d="M60.6,37.128l3.357-3.438,9.786,4.191L70.1,43.212c-1.668,6.287-12.96-.834-9.522-6.083Z" transform="translate(-59.932 -22.311)" fill="#fcaf75"/>
      <path id="Path_153" data-name="Path 153" d="M70.278,39.145c.407,6.572.305,10.641-3.316,10.641-2.848.02-5.758-2.808-5.514-6.653l1.2-8.423Z" transform="translate(-58.378 -21.256)" opacity="0.1"/>
      <path id="Path_154" data-name="Path 154" d="M68.014,28.21c-4.517.041-7.1,2.258-7.284,7.121.122,5.127,1.241,9.99,5.229,12.777,1.933,1.648,3.235,2.5,5.534,2.38,2.747-.142,4.659-7.182,5.046-12.106.671-4.985-3.439-8.81-8.545-10.173Z" transform="translate(-59.106 -27.981)" fill="#fcaf75"/>
      <path id="Path_155" data-name="Path 155" d="M77.45,37.93c-1.017,2.482-6,2.991-10.4,1.017l-.509,4.069L64.591,42l-1.811,1.994-.671-.977c-2.686-4.029-2.971-11.516,2.747-14.3C71.59,26.048,79.77,32.579,77.43,37.93Z" transform="translate(-59.59 -28.097)"/>
      <path id="Path_156" data-name="Path 156" d="M62.735,37.653a3.831,3.831,0,0,1-1.1-1.323,1.854,1.854,0,0,1-.02-1.668,1.25,1.25,0,0,1,1.465-.631,1.4,1.4,0,0,1,.773.855,3.77,3.77,0,0,1,.183,1.18l.061,1.1a1.187,1.187,0,0,1-.142.712.656.656,0,0,1-.631.142,1.509,1.509,0,0,1-.59-.366Z" transform="translate(-58.385 -22.022)" fill="#fcaf75"/>
    </g>
  </g>
  <g id="Group_137" data-name="Group 137" transform="translate(29.619 35.713)">
    <path id="Path_157" data-name="Path 157" d="M306.182,170.519l-25.107-14.507-67.692-39.146c-5.555-9.522-13.184-17.844-21.587-22.686s-16.012-5.351-21.567-2.258l-8.444-4.883a23.989,23.989,0,0,0-11.78-2.889,25.431,25.431,0,0,0-9.217,1.668l-2.014-1.16V86.8c-.163.081-.366.163-.529.244l-37.294,21.689c-3.906,2.279-6.145,5.7-6.145,9.38,0,3.5,2.055,6.735,5.6,9.013L95.926,129.7a18.219,18.219,0,0,0-8.383,2.319l-6.287,3.622-45.7,14.588a39.161,39.161,0,0,1,14.181,1.648,7.367,7.367,0,0,1-3.072,9.868l-19.96,11.74a12.4,12.4,0,0,0-6.185,11.394,59.323,59.323,0,0,0,3.825,17.335,12.249,12.249,0,0,0,12.208,7.976l15.26-.956c7.264-.142,10.01,7.691,7.264,12.92l-7.243,10.01a10.489,10.489,0,0,0,.916,13.551,36.008,36.008,0,0,0,43.785,6.063l33.022-28.159,8.159-4.7a17.963,17.963,0,0,0,6.206-6.1l4.395-2.543c.468.326.936.631,1.465.936l62.544,36.114c8.79,5.066,23.154,5.066,31.943,0s8.79-13.367,0-18.454l-62.544-36.114a23.331,23.331,0,0,0-2.258-1.119,19.164,19.164,0,0,0,4.069-5.758l15.524-8.973a14.947,14.947,0,0,0,3.154-2.523l12.635,7.284c5.616,2.808,9.278,4.374,15.4.814l2.442-1.4,32.188,18.6a25.42,25.42,0,0,0,23.54,0l17.823-10.356c3.906-2.279,6.145-5.677,6.145-9.359,0-3.7-2.279-7.121-6.206-9.4Z" transform="translate(-8.412 51.371)" fill="#575756" opacity="0.2"/>
    <g id="Group_106" data-name="Group 106" transform="translate(90.932 46.903)">
      <path id="Path_158" data-name="Path 158" d="M119.78,42.884c-5.27-3.052-13.815-3.052-19.064,0L63.4,64.573c-2.6,1.526-3.927,3.5-3.906,5.493l-.244,89.218c0,2.014,1.323,4.029,3.988,5.555l17.945,10.356c5.27,3.052,13.815,3.052,19.064,0l9.97-5.8,19.207,11.089,36.826-21.4.244-89.238L119.78,42.884Z" transform="translate(-59.25 -40.595)" fill="#1d1d1b"/>
      <g id="Group_105" data-name="Group 105">
        <path id="Path_159" data-name="Path 159" d="M100.492,70.991c-5.249,3.052-13.774,3.052-19.064,0L63.482,60.634c-2.665-1.526-3.988-3.54-3.988-5.554l-.244,89.238c0,2.014,1.323,4.029,3.988,5.555l17.945,10.356c5.27,3.052,13.815,3.052,19.064,0l9.97-5.8.244-89.238-9.97,5.8Z" transform="translate(-59.25 -25.609)" fill="#1d1d1b"/>
        <path id="Path_160" data-name="Path 160" d="M103.751,71.139l-.244,89.238L84.3,149.288l.244-89.238Z" transform="translate(-33.333 -20.467)" fill="#2e2e2d"/>
        <path id="Path_161" data-name="Path 161" d="M130.811,54.98l-.244,89.238-36.826,21.4.244-89.238Z" transform="translate(-23.566 -25.712)" fill="#3c3c3b"/>
        <path id="Path_162" data-name="Path 162" d="M166.364,69.863l-36.826,21.4L110.331,80.178l-9.97,5.8c-5.249,3.052-13.774,3.052-19.064,0L63.351,75.621c-5.27-3.052-5.31-8-.061-11.048l37.315-21.689c5.249-3.052,13.774-3.052,19.064,0l46.715,26.959Z" transform="translate(-59.119 -40.595)" fill="#575756"/>
      </g>
    </g>
    <g id="Group_107" data-name="Group 107" transform="translate(143.282 60.613)">
      <path id="Path_163" data-name="Path 163" d="M203.354,86.106,137.473,48.059c-1.994-1.139-4.741-.977-7.772.773l-11.089,6.409C100.036,65.963,84.98,92.047,84.98,113.512v55.972c0,3.561,1.241,6.063,3.276,7.223l65.881,38.047L203.374,86.126Z" transform="translate(-84.98 -47.333)" fill="#3c3c3b"/>
      <path id="Path_164" data-name="Path 164" d="M161.918,175.337,128.51,194.625c-6.165,3.561-11.15.671-11.15-6.45V132.2c0-21.445,15.056-47.549,33.632-58.271l11.089-6.409c6.063-3.5,10.987-.671,10.987,6.348v82.137C173.068,163.129,168.083,171.776,161.918,175.337Z" transform="translate(-51.479 -27.997)" fill="#2e2e2d"/>
      <path id="Path_165" data-name="Path 165" d="M87.939,171.085c-.509-.305-1.119-1.4-1.119-3.52V111.593c0-20.061,14.12-44.538,31.5-54.568L129.4,50.616a6.087,6.087,0,0,1,2.767-.936,1.418,1.418,0,0,1,.712.163L189.12,82.315l-9.217,5.31c-20.061,11.577-35.789,38.8-35.789,61.974v53.877l-56.2-32.452Z" transform="translate(-83.076 -44.906)" fill="#3c3c3b"/>
    </g>
    <g id="Group_109" data-name="Group 109" transform="translate(223.446 112.265)">
      <path id="Path_166" data-name="Path 166" d="M200.759,99.068c.183-2.136-1.119-4.313-3.947-5.941L161.451,72.72l-36.826,21.4-.244,89.238,35.362,20.407c5.27,3.052,13.815,3.052,19.064,0l17.823-10.356c2.6-1.506,3.906-3.5,3.906-5.473L200.78,98.7a2.488,2.488,0,0,1-.041.387Z" transform="translate(-124.38 -72.72)" fill="#1d1d1b"/>
      <g id="Group_108" data-name="Group 108" transform="translate(0 0)">
        <path id="Path_167" data-name="Path 167" d="M196.873,93.291,179.05,103.647c-5.249,3.052-13.774,3.052-19.064,0L124.624,83.24l-.244,89.238,35.362,20.407c5.27,3.052,13.815,3.052,19.064,0l17.823-10.356c2.6-1.506,3.906-3.5,3.906-5.473l.244-89.238c0,1.994-1.3,3.967-3.906,5.473Z" transform="translate(-124.38 -61.836)" fill="#1d1d1b"/>
        <path id="Path_168" data-name="Path 168" d="M196.688,93.127c5.27,3.052,5.31,8,.061,11.048l-17.823,10.356c-5.249,3.052-13.774,3.052-19.064,0L124.5,94.124l36.826-21.4,35.362,20.407Z" transform="translate(-124.256 -72.72)" fill="#575756"/>
      </g>
    </g>
    <g id="Group_119" data-name="Group 119" transform="translate(0 124.543)">
      <path id="Path_169" data-name="Path 169" d="M30.188,109.658l12.35-.346c3.54,4.395,2.381,9.339-1.811,11.882l-19.96,11.74a12.4,12.4,0,0,0-6.185,11.394,59.322,59.322,0,0,0,3.825,17.335,12.258,12.258,0,0,0,12.228,7.976l15.26-.956c7.264-.142,10.01,7.691,7.264,12.92l-7.243,10.01a10.488,10.488,0,0,0,.916,13.55,36.008,36.008,0,0,0,43.785,6.063l19.329-23.276-38.068-78.9c-15.076-2.421-29.319-2.971-41.669.631Z" transform="translate(-14.558 -49.423)" fill="#878787"/>
      <g id="Group_113" data-name="Group 113" transform="translate(105.683)">
        <g id="Group_110" data-name="Group 110" transform="translate(22.849)">
          <path id="Path_170" data-name="Path 170" d="M125.721,163.161l11.964-6.918c5.575-3.215,9.013-10.112,9.013-19.939,0-19.634-13.795-43.52-30.8-53.348-8.5-4.9-16.2-5.371-21.77-2.157L82.16,87.718l43.561,75.443Z" transform="translate(-73.147 -78.754)" fill="#b2b2b2"/>
          <path id="Path_171" data-name="Path 171" d="M77.73,104.142c0-19.634,13.795-27.61,30.8-17.783s30.8,33.693,30.8,53.347c0,19.634-13.795,27.61-30.8,17.783S77.73,123.8,77.73,104.142Z" transform="translate(-77.73 -75.239)" fill="#1d1d1b"/>
        </g>
        <g id="Group_111" data-name="Group 111" transform="translate(0 7.803)">
          <path id="Path_172" data-name="Path 172" d="M115.507,172.8l19.207-11.089c5.7-3.276,9.217-10.336,9.217-20.366,0-20.061-14.079-44.436-31.455-54.467-8.688-5.005-16.541-5.493-22.238-2.2L71.03,95.775l44.477,77.03Z" transform="translate(-61.813 -82.59)" fill="#3c3c3b"/>
          <path id="Path_173" data-name="Path 173" d="M66.5,110.485c0-20.061,14.08-28.179,31.455-18.149S129.41,126.741,129.41,146.8s-14.08,28.179-31.455,18.149S66.5,130.546,66.5,110.485Z" transform="translate(-66.5 -76.954)" fill="#9d9d9c"/>
        </g>
        <g id="Group_112" data-name="Group 112" transform="translate(15.605 7.808)">
          <path id="Path_174" data-name="Path 174" d="M96.968,128.959,116.2,117.85a16.694,16.694,0,0,1-1.668,2.828L95.32,131.767a17.2,17.2,0,0,0,1.648-2.828Z" transform="translate(-52.288 -46.114)" fill="#1d1d1b"/>
          <path id="Path_175" data-name="Path 175" d="M97.31,126.369l19.227-11.109c-.163.753-.366,1.506-.59,2.2L96.74,128.546a19.318,19.318,0,0,0,.57-2.2Z" transform="translate(-50.819 -48.794)" fill="#1d1d1b"/>
          <path id="Path_176" data-name="Path 176" d="M97.463,124.079,116.67,112.99a15.815,15.815,0,0,1-.2,1.974L97.26,126.052C97.341,125.4,97.423,124.75,97.463,124.079Z" transform="translate(-50.281 -51.142)" fill="#1d1d1b"/>
          <path id="Path_177" data-name="Path 177" d="M97.41,121.959l19.207-11.089a12.017,12.017,0,0,1,.02,1.221v.631L97.43,123.81v-.631C97.43,122.772,97.43,122.366,97.41,121.959Z" transform="translate(-50.126 -53.336)" fill="#1d1d1b"/>
          <path id="Path_178" data-name="Path 178" d="M97.27,119.969l19.207-11.089q.122.885.183,1.77L97.453,121.739Q97.392,120.854,97.27,119.969Z" transform="translate(-50.27 -55.394)" fill="#1d1d1b"/>
          <path id="Path_179" data-name="Path 179" d="M96.98,118.049l19.207-11.089c.1.57.2,1.139.285,1.689L97.265,119.737C97.183,119.168,97.082,118.618,96.98,118.049Z" transform="translate(-50.57 -57.381)" fill="#1d1d1b"/>
          <path id="Path_180" data-name="Path 180" d="M96.57,116.2l19.207-11.089c.142.549.285,1.1.407,1.628L96.977,117.826C96.855,117.277,96.733,116.748,96.57,116.2Z" transform="translate(-50.995 -59.295)" fill="#1d1d1b"/>
          <path id="Path_181" data-name="Path 181" d="M96.06,114.409l19.207-11.089c.183.529.326,1.058.488,1.587L96.548,116C96.386,115.467,96.243,114.938,96.06,114.409Z" transform="translate(-51.522 -61.147)" fill="#1d1d1b"/>
          <path id="Path_182" data-name="Path 182" d="M95.45,112.679l19.207-11.089c.183.529.387,1.017.549,1.546L96,114.225C95.837,113.716,95.633,113.208,95.45,112.679Z" transform="translate(-52.153 -62.937)" fill="#1d1d1b"/>
          <path id="Path_183" data-name="Path 183" d="M94.76,110.989,113.967,99.9c.224.509.427,1,.631,1.485L95.391,112.474C95.187,111.986,94.963,111.477,94.76,110.989Z" transform="translate(-52.867 -64.685)" fill="#1d1d1b"/>
          <path id="Path_184" data-name="Path 184" d="M93.99,109.359,113.2,98.27c.244.488.488.977.712,1.465L94.7,110.824C94.478,110.335,94.234,109.867,93.99,109.359Z" transform="translate(-53.664 -66.372)" fill="#1d1d1b"/>
          <path id="Path_185" data-name="Path 185" d="M93.15,107.769,112.357,96.68c.264.468.529.936.773,1.4L93.923,109.173c-.244-.468-.509-.956-.773-1.424Z" transform="translate(-54.533 -68.017)" fill="#1d1d1b"/>
          <path id="Path_186" data-name="Path 186" d="M92.23,106.209,111.437,95.12c.285.448.57.916.834,1.384L93.064,107.592C92.8,107.124,92.515,106.656,92.23,106.209Z" transform="translate(-55.485 -69.631)" fill="#1d1d1b"/>
          <path id="Path_187" data-name="Path 187" d="M91.24,104.7,110.447,93.61c.305.448.61.875.9,1.343L92.135,106.041C91.83,105.574,91.545,105.146,91.24,104.7Z" transform="translate(-56.509 -71.193)" fill="#1d1d1b"/>
          <path id="Path_188" data-name="Path 188" d="M90.17,103.239,109.377,92.15c.326.427.651.855.977,1.3L91.147,104.541C90.821,104.093,90.5,103.666,90.17,103.239Z" transform="translate(-57.616 -72.703)" fill="#1d1d1b"/>
          <path id="Path_189" data-name="Path 189" d="M89.02,101.819,108.227,90.73c.366.407.712.814,1.058,1.261L90.078,103.08C89.732,102.653,89.386,102.226,89.02,101.819Z" transform="translate(-58.806 -74.173)" fill="#1d1d1b"/>
          <path id="Path_190" data-name="Path 190" d="M87.78,100.449,106.987,89.36c.387.387.753.793,1.139,1.221L88.919,101.669c-.366-.427-.753-.814-1.119-1.221Z" transform="translate(-60.089 -75.59)" fill="#1d1d1b"/>
          <path id="Path_191" data-name="Path 191" d="M86.45,99.139,105.657,88.05c.407.387.814.753,1.221,1.16L87.671,100.3Q87.06,99.688,86.45,99.139Z" transform="translate(-61.465 -76.945)" fill="#1d1d1b"/>
          <path id="Path_192" data-name="Path 192" d="M85.01,97.879,104.217,86.79c.427.366.875.712,1.3,1.1L86.312,98.977C85.885,98.591,85.437,98.225,85.01,97.879Z" transform="translate(-62.955 -78.249)" fill="#1d1d1b"/>
          <path id="Path_193" data-name="Path 193" d="M83.43,96.709,102.637,85.62c.488.326.956.671,1.445,1.038L84.875,97.746C84.407,97.38,83.918,97.034,83.43,96.709Z" transform="translate(-64.589 -79.459)" fill="#1d1d1b"/>
          <path id="Path_194" data-name="Path 194" d="M81.69,95.629,100.9,84.54a5.058,5.058,0,0,1,.57.305c.366.2.712.407,1.038.631L83.3,96.565c-.326-.224-.671-.427-1.038-.631A5.056,5.056,0,0,0,81.69,95.629Z" transform="translate(-66.39 -80.577)" fill="#1d1d1b"/>
          <path id="Path_195" data-name="Path 195" d="M79.74,94.679,98.947,83.59c.59.244,1.2.509,1.811.814L81.551,95.492C80.94,95.187,80.33,94.923,79.74,94.679Z" transform="translate(-68.407 -81.56)" fill="#1d1d1b"/>
          <path id="Path_196" data-name="Path 196" d="M77.41,93.939,96.617,82.85a21.964,21.964,0,0,1,2.2.59L79.587,94.549a17.581,17.581,0,0,0-2.2-.59Z" transform="translate(-70.839 -82.325)" fill="#1d1d1b"/>
          <path id="Path_197" data-name="Path 197" d="M74.17,93.778,93.377,82.69a17.75,17.75,0,0,1,3.3-.041L77.446,93.758a17.527,17.527,0,0,0-3.276.041Z" transform="translate(-74.17 -82.592)" fill="#1d1d1b"/>
        </g>
      </g>
      <g id="Group_114" data-name="Group 114" transform="translate(79.863 18.774)">
        <path id="Path_198" data-name="Path 198" d="M106.686,183.747l18.006-10.4c6.145-3.54,9.929-11.15,9.929-21.974,0-21.628-15.2-47.956-33.937-58.76C91.325,87.2,82.841,86.7,76.7,90.237l-18.006,10.4,47.976,83.114Z" transform="translate(-48.761 -87.982)" fill="#1d1d1b"/>
        <path id="Path_199" data-name="Path 199" d="M53.81,117.32c0-21.628,15.2-30.417,33.937-19.593s33.937,37.132,33.937,58.76-15.2,30.417-33.937,19.593S53.81,138.948,53.81,117.32Z" transform="translate(-53.81 -82.694)" fill="#1d1d1b"/>
      </g>
      <g id="Group_117" data-name="Group 117" transform="translate(63.688 30.9)">
        <g id="Group_115" data-name="Group 115">
          <path id="Path_200" data-name="Path 200" d="M98.736,186.92l13.184-7.609c6.144-3.54,9.929-11.15,9.929-21.974,0-21.628-15.2-47.956-33.937-58.76-9.359-5.412-17.844-5.921-23.988-2.38L50.74,103.806,98.716,186.92Z" transform="translate(-40.811 -93.942)" fill="#3c3c3b"/>
          <path id="Path_201" data-name="Path 201" d="M45.86,121.91c0-21.628,15.2-30.417,33.937-19.593s33.937,37.132,33.937,58.76-15.2,30.417-33.937,19.593S45.86,143.538,45.86,121.91Z" transform="translate(-45.86 -90.072)" fill="#1d1d1b"/>
        </g>
        <g id="Group_116" data-name="Group 116" transform="translate(16.806 0.013)">
          <path id="Path_202" data-name="Path 202" d="M78.72,139.62l13.2-7.63a18.515,18.515,0,0,1-1.79,3.052L76.95,142.651a19.185,19.185,0,0,0,1.79-3.032Z" transform="translate(-30.5 -54.589)" fill="#1d1d1b"/>
          <path id="Path_203" data-name="Path 203" d="M79.1,136.81l13.2-7.63a22.706,22.706,0,0,1-.631,2.38L78.49,139.17c.244-.773.448-1.546.631-2.38Z" transform="translate(-28.907 -57.497)" fill="#1d1d1b"/>
          <path id="Path_204" data-name="Path 204" d="M79.264,134.349l13.184-7.609a18.535,18.535,0,0,1-.224,2.136L79.04,136.486C79.142,135.794,79.2,135.082,79.264,134.349Z" transform="translate(-28.337 -60.021)" fill="#1d1d1b"/>
          <path id="Path_205" data-name="Path 205" d="M79.2,132.069l13.184-7.609c.02.427.041.855.041,1.3v.692l-13.184,7.609v-.692C79.241,132.924,79.241,132.5,79.2,132.069Z" transform="translate(-28.172 -62.38)" fill="#1d1d1b"/>
          <path id="Path_206" data-name="Path 206" d="M79.05,129.909,92.234,122.3q.122.946.183,1.892L79.233,131.8Q79.172,130.856,79.05,129.909Z" transform="translate(-28.327 -64.615)" fill="#1d1d1b"/>
          <path id="Path_207" data-name="Path 207" d="M78.74,127.839l13.184-7.609q.183.916.305,1.831l-13.184,7.609C78.964,129.06,78.842,128.45,78.74,127.839Z" transform="translate(-28.648 -66.756)" fill="#1d1d1b"/>
          <path id="Path_208" data-name="Path 208" d="M78.29,125.849l13.184-7.609q.244.885.427,1.77L78.717,127.62C78.575,127.03,78.453,126.439,78.29,125.849Z" transform="translate(-29.113 -68.815)" fill="#1d1d1b"/>
          <path id="Path_209" data-name="Path 209" d="M77.74,123.919l13.184-7.609c.183.57.366,1.139.529,1.709l-13.184,7.609C78.106,125.059,77.943,124.489,77.74,123.919Z" transform="translate(-29.682 -70.812)" fill="#1d1d1b"/>
          <path id="Path_210" data-name="Path 210" d="M77.09,122.049l13.184-7.609c.2.57.427,1.1.59,1.668L77.68,123.718C77.5,123.169,77.293,122.619,77.09,122.049Z" transform="translate(-30.355 -72.747)" fill="#1d1d1b"/>
          <path id="Path_211" data-name="Path 211" d="M76.34,120.229l13.184-7.609c.244.549.468,1.078.692,1.607l-13.184,7.609C76.808,121.308,76.584,120.779,76.34,120.229Z" transform="translate(-31.131 -74.63)" fill="#1d1d1b"/>
          <path id="Path_212" data-name="Path 212" d="M75.51,118.469l13.184-7.609c.264.529.529,1.038.773,1.567l-13.184,7.609C76.039,119.507,75.774,119,75.51,118.469Z" transform="translate(-31.99 -76.451)" fill="#1d1d1b"/>
          <path id="Path_213" data-name="Path 213" d="M74.6,116.749l13.184-7.609c.285.488.57,1.017.834,1.526l-13.184,7.609C75.17,117.767,74.885,117.238,74.6,116.749Z" transform="translate(-32.931 -78.23)" fill="#1d1d1b"/>
          <path id="Path_214" data-name="Path 214" d="M73.61,115.069l13.184-7.609c.305.488.61,1,.9,1.485l-13.184,7.609C74.22,116.066,73.915,115.558,73.61,115.069Z" transform="translate(-33.955 -79.968)" fill="#1d1d1b"/>
          <path id="Path_215" data-name="Path 215" d="M72.54,113.439l13.184-7.609c.326.468.651.956.977,1.445l-13.184,7.609C73.191,114.4,72.866,113.907,72.54,113.439Z" transform="translate(-35.062 -81.655)" fill="#1d1d1b"/>
          <path id="Path_216" data-name="Path 216" d="M71.39,111.859l13.184-7.609c.346.468.692.916,1.058,1.4l-13.184,7.609C72.082,112.8,71.736,112.327,71.39,111.859Z" transform="translate(-36.252 -83.289)" fill="#1d1d1b"/>
          <path id="Path_217" data-name="Path 217" d="M70.15,110.339l13.184-7.609c.387.427.773.875,1.139,1.343l-13.184,7.609C70.923,111.214,70.537,110.767,70.15,110.339Z" transform="translate(-37.535 -84.862)" fill="#1d1d1b"/>
          <path id="Path_218" data-name="Path 218" d="M68.82,108.849,82,101.24c.407.427.814.855,1.221,1.3l-13.184,7.609C69.634,109.7,69.227,109.277,68.82,108.849Z" transform="translate(-38.911 -86.404)" fill="#1d1d1b"/>
          <path id="Path_219" data-name="Path 219" d="M67.38,107.439,80.564,99.83c.448.407.875.814,1.3,1.261L68.682,108.7C68.255,108.274,67.807,107.846,67.38,107.439Z" transform="translate(-40.401 -87.862)" fill="#1d1d1b"/>
          <path id="Path_220" data-name="Path 220" d="M65.83,106.089,79.014,98.48c.468.387.956.773,1.4,1.2L67.234,107.29C66.766,106.883,66.3,106.5,65.83,106.089Z" transform="translate(-42.005 -89.259)" fill="#1d1d1b"/>
          <path id="Path_221" data-name="Path 221" d="M64.12,104.819,77.3,97.21c.529.366,1.038.732,1.546,1.119l-13.184,7.609C65.158,105.552,64.649,105.186,64.12,104.819Z" transform="translate(-43.774 -90.573)" fill="#1d1d1b"/>
          <path id="Path_222" data-name="Path 222" d="M62.24,103.659,75.424,96.05c.224.1.407.224.61.326.387.224.753.448,1.119.692l-13.184,7.609c-.366-.244-.732-.468-1.119-.692a5.8,5.8,0,0,0-.61-.326Z" transform="translate(-45.719 -91.773)" fill="#1d1d1b"/>
          <path id="Path_223" data-name="Path 223" d="M60.13,102.629,73.314,95.02c.631.265,1.3.549,1.953.875L62.083,103.5C61.412,103.179,60.761,102.894,60.13,102.629Z" transform="translate(-47.902 -92.839)" fill="#1d1d1b"/>
          <path id="Path_224" data-name="Path 224" d="M57.61,101.839,70.794,94.23a21.722,21.722,0,0,1,2.38.631l-13.2,7.63c-.793-.264-1.587-.468-2.36-.651Z" transform="translate(-50.509 -93.656)" fill="#1d1d1b"/>
          <path id="Path_225" data-name="Path 225" d="M54.12,101.663,67.3,94.054a18.843,18.843,0,0,1,3.561-.041l-13.2,7.63a18.63,18.63,0,0,0-3.54.041Z" transform="translate(-54.12 -93.948)" fill="#1d1d1b"/>
        </g>
      </g>
      <g id="Group_118" data-name="Group 118" transform="translate(44.156 39.686)">
        <path id="Path_226" data-name="Path 226" d="M91.523,194.721l12.513-7.223c6.409-3.7,10.4-11.658,10.4-22.971,0-22.625-15.87-50.133-35.463-61.425-9.786-5.656-18.657-6.185-25.087-2.482L41.37,107.843Z" transform="translate(-30.973 -98.26)" fill="#3c3c3b"/>
        <path id="Path_227" data-name="Path 227" d="M36.26,127.134c0-22.625,15.89-31.781,35.463-20.468,19.593,11.312,35.463,38.82,35.463,61.425,0,22.625-15.89,31.781-35.463,20.468C52.13,177.246,36.26,149.738,36.26,127.134Z" transform="translate(-36.26 -94.58)" fill="#1d1d1b"/>
      </g>
      <path id="Path_228" data-name="Path 228" d="M69.341,108.287c.142.081.305.163.448.244,17.5,10.112,31.7,34.69,31.7,54.894v.956c-.427,19.512-14.446,27.284-31.659,17.335-17.5-10.112-31.7-34.69-31.7-54.894,0-20.041,13.957-28.261,31.252-18.535Z" transform="translate(9.831 -52.425)" fill="#575756"/>
      <path id="Path_229" data-name="Path 229" d="M67.179,107.575c.142.081.305.163.448.244,17.5,10.112,31.7,34.69,31.7,54.894v.956c-1.526,16.379-14.161,22.544-29.482,13.693C53.486,167.9,40.22,144.93,40.22,126.049c0-17.884,11.882-25.7,27-18.495Z" transform="translate(11.993 -51.713)" fill="#1d1d1b"/>
      <path id="Path_230" data-name="Path 230" d="M52.857,109.791c3.215-.9,7.141-.427,11.373,1.607.122.061.224.122.346.183,13.367,7.732,24.212,26.511,24.212,41.954v.57c-.448,4.68-1.974,8.179-4.313,10.478-4.11,4.11-10.743,4.476-18.23.142C53.753,157.5,43.62,139.964,43.6,125.518c0-8.647,3.642-14.222,9.257-15.728Z" transform="translate(15.49 -47.093)" fill="#3c3c3b"/>
      <path id="Path_231" data-name="Path 231" d="M50.4,109.791c3.215-.9,7.141-.427,11.373,1.607.122.061.224.122.346.183,13.367,7.732,24.212,26.511,24.212,41.954v.57c-.448,4.68-1.974,8.179-4.313,10.478-3.744,1.038-8.362.244-13.388-2.645C56.133,154.715,46,137.177,45.98,122.731c0-5.8,1.628-10.193,4.415-12.92Z" transform="translate(17.952 -47.093)"/>
      <path id="Path_232" data-name="Path 232" d="M54.837,120.861c0,4.9-1.811,8.891-4.029,8.891s-4.029-3.988-4.029-8.891,1.811-8.891,4.029-8.891S54.837,115.958,54.837,120.861Z" transform="translate(18.78 -44.389)" fill="#fff"/>
      <path id="Path_233" data-name="Path 233" d="M52.368,124.861c.387,1.689-.142,3.255-1.18,3.5s-2.2-.936-2.584-2.625.142-3.255,1.18-3.5S51.982,123.172,52.368,124.861Z" transform="translate(20.537 -33.801)" fill="#fff"/>
      <path id="Path_234" data-name="Path 234" d="M21.96,115.8c15.85-1.058,29.136,7.406,41.3,19.939a19.216,19.216,0,0,0,13.062,5.819l13.367-1.139a10.881,10.881,0,0,1,10.743,6.1A11.224,11.224,0,0,1,98.5,159.237l-8.179,8.484a14.553,14.553,0,0,0-3.052,12.35q4.242,19.9-4.354,37.254l33.022-28.159c17.05-26.063-10.478-87.02-48.281-87.956L21.96,115.8Z" transform="translate(-6.899 -55.522)" fill="#b2b2b2"/>
    </g>
    <g id="Group_121" data-name="Group 121" transform="translate(91.705 128.8)">
      <g id="Group_120" data-name="Group 120">
        <path id="Path_235" data-name="Path 235" d="M70.081,100.549,74.9,97.761c1.221-.692,1.974-2.2,1.974-4.354a14.909,14.909,0,0,0-6.714-11.638c-1.851-1.078-3.54-1.18-4.741-.468L60.6,84.089l9.5,16.44Z" transform="translate(-58.626 -80.847)" fill="#3c3c3b"/>
        <path id="Path_236" data-name="Path 236" d="M59.63,87.02c0-4.273,3.011-6.022,6.714-3.886a14.846,14.846,0,0,1,6.714,11.638c0,4.293-3.011,6.022-6.714,3.886A14.846,14.846,0,0,1,59.63,87.02Z" transform="translate(-59.63 -79.424)" fill="#575756"/>
      </g>
      <path id="Path_237" data-name="Path 237" d="M61.36,86.742c0-2.035,1.424-2.869,3.194-1.852a7.049,7.049,0,0,1,3.194,5.534c0,2.035-1.424,2.869-3.194,1.852A7.049,7.049,0,0,1,61.36,86.742Z" transform="translate(-57.84 -77.111)" fill="#1d1d1b"/>
    </g>
    <g id="Group_122" data-name="Group 122" transform="translate(84.441 95.736)">
      <path id="Path_238" data-name="Path 238" d="M73.276,96.954l7.935-4.578c1.994-1.16,3.235-3.622,3.235-7.141,0-7.04-4.944-15.605-11.048-19.125-3.052-1.77-5.819-1.933-7.813-.773L57.65,69.914l15.626,27.06Z" transform="translate(-54.415 -64.596)" fill="#3c3c3b"/>
      <path id="Path_239" data-name="Path 239" d="M56.06,74.716c0-7.04,4.944-9.888,11.048-6.368S78.156,80.433,78.156,87.473s-4.944,9.888-11.048,6.368S56.06,81.755,56.06,74.716Z" transform="translate(-56.06 -62.276)" fill="#1d1d1b"/>
    </g>
    <path id="Path_240" data-name="Path 240" d="M129.381,94.826a6.631,6.631,0,0,1-2.991-5.188c0-1.913,1.343-2.686,2.991-1.729L151.4,100.6a6.631,6.631,0,0,1,2.991,5.188c0,1.913-1.343,2.686-2.991,1.729Z" transform="translate(101.146 54.835)" fill="#fff"/>
    <g id="Group_123" data-name="Group 123" transform="translate(279.377 153.812)">
      <path id="Path_241" data-name="Path 241" d="M174.495,95.88v7.65c0,1.933-1.282,3.845-3.8,5.31-5.087,2.93-13.327,2.93-18.413,0-.142-.081-.264-.163-.407-.244v-7.65l8.79-5.087h13.856Z" transform="translate(-151.87 -90.326)" fill="#3c3c3b"/>
      <path id="Path_242" data-name="Path 242" d="M174.495,98.694c0,1.933-1.261,3.845-3.8,5.331-5.087,2.93-13.327,2.93-18.413,0-.142-.081-.264-.163-.407-.244l8.79-5.087,9.6-5.554.427.244c2.543,1.465,3.8,3.4,3.8,5.31Z" transform="translate(-151.87 -93.14)" fill="#706f6f"/>
    </g>
    <g id="Group_126" data-name="Group 126" transform="translate(248.965 107.672)">
      <g id="Group_124" data-name="Group 124" transform="translate(0 10.453)">
        <path id="Path_243" data-name="Path 243" d="M136.93,80.11v4.822c0,2.34,1.546,4.7,4.659,6.49,6.206,3.581,16.277,3.581,22.482,0,3.113-1.79,4.659-4.13,4.659-6.49V80.11H136.95Z" transform="translate(-136.915 -70.934)" fill="#3c3c3b"/>
        <path id="Path_244" data-name="Path 244" d="M164.059,78.286c6.206,3.581,6.206,9.4,0,12.981s-16.277,3.581-22.482,0-6.206-9.4,0-12.981S157.854,74.7,164.059,78.286Z" transform="translate(-136.923 -75.6)" fill="#1d1d1b"/>
      </g>
      <g id="Group_125" data-name="Group 125" transform="translate(5.326 0)">
        <path id="Path_245" data-name="Path 245" d="M139.56,73.46V85.953c0,1.567,1.038,3.113,3.093,4.313a16.508,16.508,0,0,0,14.934,0c2.055-1.2,3.093-2.747,3.093-4.313V73.46H139.54Z" transform="translate(-139.54 -67.361)" fill="#3c3c3b"/>
        <path id="Path_246" data-name="Path 246" d="M157.579,72.248c4.13,2.381,4.13,6.246,0,8.627a16.508,16.508,0,0,1-14.934,0c-4.13-2.381-4.13-6.246,0-8.627A16.508,16.508,0,0,1,157.579,72.248Z" transform="translate(-139.532 -70.463)" fill="#1d1d1b"/>
      </g>
      <path id="Path_247" data-name="Path 247" d="M151.978,71.812c2.319,1.343,2.319,3.52,0,4.863a9.31,9.31,0,0,1-8.423,0c-2.319-1.343-2.319-3.52,0-4.863A9.31,9.31,0,0,1,151.978,71.812Z" transform="translate(-131.861 -70.108)" fill="#575756"/>
      <path id="Path_248" data-name="Path 248" d="M146.766,86.523a1.343,1.343,0,1,1-1.343-1.343A1.342,1.342,0,0,1,146.766,86.523Z" transform="translate(-129.517 -55.236)" fill="#fff"/>
      <path id="Path_249" data-name="Path 249" d="M140.076,84.963c0,.753-.346,1.343-.773,1.343s-.773-.61-.773-1.343.346-1.343.773-1.343S140.076,84.23,140.076,84.963Z" transform="translate(-135.259 -56.85)" fill="#fff"/>
      <path id="Path_250" data-name="Path 250" d="M151.606,84.963c0,.753-.346,1.343-.773,1.343s-.773-.61-.773-1.343.346-1.343.773-1.343S151.606,84.23,151.606,84.963Z" transform="translate(-123.33 -56.85)" fill="#fff"/>
    </g>
    <g id="Group_127" data-name="Group 127" transform="translate(100.408 55.149)">
      <path id="Path_251" data-name="Path 251" d="M100.658,47.629c3.642,2.1,3.642,5.514,0,7.609L79.8,67.284a14.568,14.568,0,0,1-13.164,0c-3.642-2.1-3.642-5.514,0-7.609L87.494,47.629a14.568,14.568,0,0,1,13.164,0Z" transform="translate(-63.908 -43.189)" fill="#1d1d1b"/>
      <path id="Path_252" data-name="Path 252" d="M100.658,46.219c3.642,2.1,3.642,5.514,0,7.609L79.8,65.874a14.568,14.568,0,0,1-13.164,0c-3.642-2.1-3.642-5.514,0-7.609L87.494,46.219a14.568,14.568,0,0,1,13.164,0Z" transform="translate(-63.908 -44.647)" fill="#3c3c3b"/>
    </g>
    <g id="Group_128" data-name="Group 128" transform="translate(142.626 58.267)">
      <path id="Path_253" data-name="Path 253" d="M84.66,49.36v6.49c0,1.668,1.1,3.316,3.3,4.578a17.584,17.584,0,0,0,15.87,0c2.2-1.261,3.3-2.93,3.3-4.578V49.36H84.68Z" transform="translate(-84.655 -42.89)" fill="#1d1d1b"/>
      <path id="Path_254" data-name="Path 254" d="M103.808,48.072c4.374,2.523,4.374,6.633,0,9.156a17.584,17.584,0,0,1-15.87,0c-4.374-2.523-4.374-6.633,0-9.156A17.584,17.584,0,0,1,103.808,48.072Z" transform="translate(-84.657 -46.18)" fill="#878787"/>
    </g>
    <g id="Group_129" data-name="Group 129" transform="translate(119.477 77.295)">
      <path id="Path_255" data-name="Path 255" d="M73.28,57.3v3.6a3.115,3.115,0,0,0,1.831,2.543,9.741,9.741,0,0,0,8.81,0A3.089,3.089,0,0,0,85.752,60.9V57.3H73.3Z" transform="translate(-73.28 -53.704)" fill="#1d1d1b"/>
      <path id="Path_256" data-name="Path 256" d="M83.921,56.585c2.442,1.4,2.442,3.683,0,5.087a9.741,9.741,0,0,1-8.81,0c-2.442-1.4-2.442-3.683,0-5.087A9.741,9.741,0,0,1,83.921,56.585Z" transform="translate(-73.28 -55.533)" fill="#1d1d1b"/>
    </g>
    <g id="Group_130" data-name="Group 130" transform="translate(164.137 94.198)">
      <path id="Path_257" data-name="Path 257" d="M135.678,99.039,95.23,75.681V63.84L135.678,87.2Z" transform="translate(-95.23 -63.84)" fill="#3c3c3b"/>
      <path id="Path_258" data-name="Path 258" d="M132.271,93.913,96.34,73.18V65.51l35.931,20.733Z" transform="translate(-94.082 -62.112)" fill="#878787"/>
    </g>
    <path id="Path_259" data-name="Path 259" d="M115.11,90.5V78.662l8.871-6.572C120.034,77.034,116.392,83.158,115.11,90.5Z" transform="translate(89.475 38.893)" fill="#575756"/>
    <g id="Group_136" data-name="Group 136" transform="translate(160.251)">
      <g id="Group_132" data-name="Group 132" transform="translate(22.95 12.61)">
        <g id="Group_131" data-name="Group 131" transform="translate(4.639 10.214)">
          <path id="Path_260" data-name="Path 260" d="M153.981,35.637l.163,60.733-22.482,13L106.88,28.76Z" transform="translate(-106.88 -28.76)" fill="#3c3c3b"/>
          <path id="Path_261" data-name="Path 261" d="M153.981,35.637l.163,60.733-22.482,13L106.88,28.76Z" transform="translate(-106.88 -28.76)" fill="#3c3c3b"/>
        </g>
        <path id="Path_262" data-name="Path 262" d="M134.02,109.371,104.6,92.281l4.639-63.521,29.4,17.091Z" transform="translate(-104.6 -18.546)" fill="#10100f"/>
        <path id="Path_263" data-name="Path 263" d="M136.28,51.044l-29.4-17.091L124.561,23.74l29.42,17.091Z" transform="translate(-102.241 -23.74)" fill="#191917"/>
      </g>
      <path id="Path_264" data-name="Path 264" d="M195.193,65.025c0-5.819-2.075-9.929-5.412-11.841.02,0-58.943-34.405-58.943-34.405-3.337-1.933-7.976-1.668-13.062,1.282L93.32,34.181,93.422,68,152.385,102.4l31.984-18.474a21.633,21.633,0,0,0,10.824-18.8v-.122Z" transform="translate(-93.32 -17.542)" fill="#3c3c3b"/>
      <g id="Group_135" data-name="Group 135" transform="translate(0)">
        <g id="Group_134" data-name="Group 134" transform="translate(0 16.638)">
          <path id="Path_265" data-name="Path 265" d="M152.385,93.941,93.4,59.535,93.32,25.72l58.963,34.405Z" transform="translate(-93.32 -25.72)" fill="#1d1d1b"/>
          <path id="Path_266" data-name="Path 266" d="M144.988,77.795v3.337L95.771,52.382,95.73,29.9l3.337,1.953,45.84,26.775Z" transform="translate(-90.827 -21.395)" fill="#878787"/>
          <path id="Path_267" data-name="Path 267" d="M143.291,76.8,97.451,50.026,97.37,30.86l45.84,26.775Z" transform="translate(-89.13 -20.402)" fill="#dadada"/>
          <g id="Group_133" data-name="Group 133" transform="translate(10.397 12.818)">
            <path id="Path_268" data-name="Path 268" d="M113.811,41,107.26,37.17V52.735l6.551,3.825Z" transform="translate(-89.294 -26.692)" fill="#fff"/>
            <path id="Path_269" data-name="Path 269" d="M116.3,58.015l6.653,3.886L122.912,46.3,116.3,42.45Z" transform="translate(-79.941 -21.229)" fill="#fff"/>
            <path id="Path_270" data-name="Path 270" d="M118.352,43.635,111.78,39.81V55.375l6.572,3.825Z" transform="translate(-84.618 -23.96)" fill="#fff"/>
            <path id="Path_271" data-name="Path 271" d="M102.73,50.074,109.3,53.92V38.355L102.73,34.53Z" transform="translate(-93.981 -29.423)" fill="#fff"/>
            <path id="Path_272" data-name="Path 272" d="M104.554,35.581,98.43,32.02l.061,15.585,6.063,3.54Z" transform="translate(-98.43 -32.02)" fill="#fff"/>
          </g>
        </g>
        <path id="Path_273" data-name="Path 273" d="M130.838,18.779c-3.337-1.933-7.976-1.668-13.062,1.282L93.32,34.181l58.963,34.405,24.456-14.12c5.107-2.95,9.725-3.215,13.062-1.282L130.838,18.758Z" transform="translate(-93.32 -17.542)" fill="#575756"/>
        <path id="Path_274" data-name="Path 274" d="M146.817,36.943c10.071-5.819,18.352-1.058,18.393,10.58v.346a21.248,21.248,0,0,1-10.641,18.474L122.4,84.919,122.3,51.1Z" transform="translate(-63.337 -0.04)" fill="#3c3c3b"/>
      </g>
    </g>
  </g>
  <g id="Group_139" data-name="Group 139" transform="translate(7.622 225.791)">
    <path id="Path_275" data-name="Path 275" d="M41.745,120.487l1.811-5.616c.427-1.119,1.668-.916,1.363.326l-.977,4.558,3.215-5.961c.671-.977,1.851-.387,1.4.671L46.12,120.12l3.906-5.026c.671-.916,1.75-.2.956,1.058L48.338,121.1l2.95-2.909c.855-.692,1.506.142.855.875l-3.581,4.049a12.889,12.889,0,0,1-2.584,7.08c-1.2,1.445-4.293,5.575-4.659,5.331l-2.828-2.584,2.136-3.967a3.474,3.474,0,0,1-.671-1.75c0-.1-.02-.224-.02-.326v-.753L40,125.96l.387-5.493c.081-1.4,1.241-1.119,1.363.081Z" transform="translate(32.2 -108.553)" fill="#fcaf75"/>
    <path id="Path_276" data-name="Path 276" d="M33.161,184.174c0-2.5-1.933-3.479-4.8-3.784-2.5,0-5.88,1.119-10.3,2.136l-5.046,2.767a11.228,11.228,0,0,0-.366,7.019,5.618,5.618,0,0,0,4.883,1.546l5.677-2.4.407-.814c4.517-.488,9.563-2.543,9.563-6.45Z" transform="translate(5.057 -39.137)" fill="#1d1d1b"/>
    <path id="Path_277" data-name="Path 277" d="M23.346,178.634c0-2.055-1.831-2.4-4.578-2.6-4.944,0-5.148,2.482-9.705,2.36L4.587,181.1a13.379,13.379,0,0,0-.2,7.508,6.357,6.357,0,0,0,4.964,1.2l4.6-2.706.387-.834c4.313-.651,8.973-3.845,8.973-7.67Z" transform="translate(-3.542 -43.648)" fill="#1d1d1b"/>
    <path id="Path_278" data-name="Path 278" d="M7.355,142.99l16.46,6.877a54.366,54.366,0,0,1-.326,7.711c-1.038,7.589-4.09,19.064-4.09,19.064-2.2,9.746-3.093,21.852-3.6,34.609-.081,4.6-6.918,8.627-11.292,4.273-1.261-15.565-1.261-30.682,2.4-40.692-1.75-7.915-.1-16.725.387-25.84-.427-.183.509-5.8.061-5.982Z" transform="translate(-3.746 -77.831)" fill="#256b94"/>
    <path id="Path_279" data-name="Path 279" d="M17.969,163.6c0,9.095-.1,16.44,2.1,24.354-3.113,10.01-2.258,24.883-.142,40.428a6.7,6.7,0,0,0,8.912,1.221,5.413,5.413,0,0,0,2.157-5.27l1.689-34.568a192.115,192.115,0,0,0,3.032-19.024c.61-7.569-2.055-24.9-2.055-24.9a31.366,31.366,0,0,1-4.415.875c-9.807,1.241-18.8-2.258-21.608-7.854-.142.407-.285.814-.407,1.241A39.6,39.6,0,0,0,5.395,150.62c-.326,8,7.528,10.946,12.594,13.021Z" transform="translate(-2.051 -82.104)" fill="#308dc2"/>
    <path id="Path_280" data-name="Path 280" d="M23.787,167.173A190.977,190.977,0,0,1,20.755,186.2l-1.668,34.568a5.436,5.436,0,0,1-2.177,5.29c1.506-14.547,2.177-28.179,0-38.719,3.255-11.963,4.72-24.517,1-33.754.041-3.683.448-7.019-.346-9.705a40.3,40.3,0,0,0,4.171-1.567s2.665,17.335,2.055,24.9Z" transform="translate(9.873 -78.535)" fill="#3f668a" opacity="0.3"/>
    <g id="Group_138" data-name="Group 138" transform="translate(24.545)">
      <path id="Path_281" data-name="Path 281" d="M15.81,126.6l6.429-9.4,10.7,4.72-4.9,7.752Z" transform="translate(-15.81 -104.514)" fill="#ffae80"/>
      <path id="Path_282" data-name="Path 282" d="M23.5,129.1a2.116,2.116,0,0,0,3.561.549c2.238-2.035,5.921-8.769,4.7-14.181s-10.3,1.933-10.3,1.933L23.5,129.1Z" transform="translate(-9.954 -108.36)" fill="#ffae80"/>
      <path id="Path_283" data-name="Path 283" d="M18.26,127.252a30.58,30.58,0,0,1,7.935,3.255,3.132,3.132,0,0,0,3.113-.326l1.241-1.485.468-2.1,2.177-.875-.163-2.238a7.143,7.143,0,0,0,3.255-2.34,6.279,6.279,0,0,0,.468-4.334C35.8,113.254,31.3,110.65,26.44,111c-8.464.468-10.56,9.542-8.2,16.277Z" transform="translate(-14.232 -110.965)"/>
      <path id="Path_284" data-name="Path 284" d="M25.785,118.9a1.978,1.978,0,0,0-.1-.773.982.982,0,0,0-.57-.57,1.184,1.184,0,0,0-1.384.59,2.433,2.433,0,0,0-.1,1.424c.041.346.1.692.142,1.038a1.9,1.9,0,0,0,.264.855.914.914,0,0,0,.855.387.841.841,0,0,0,.57-.407,1.339,1.339,0,0,0,.183-.631,15.481,15.481,0,0,0,.163-1.933Z" transform="translate(-7.779 -104.203)" fill="#ffae80"/>
    </g>
    <path id="Path_285" data-name="Path 285" d="M48.716,130.319a132.555,132.555,0,0,1-4.191,14.832c-.366,1.119-.712,2.136-1,2.971-.509,1.526-1.1,3.032-1.709,4.517-.122.285-.244.59-.366.875-.224.509-.468,1.038-.692,1.546-2.075,4.537-3.215,8.81-6.531,13.489-.427.61-.285,2.462-.712,3.052-.387-1.078-3.866-1.18-5.616-2.238-.326-.2-7.833-1.974-8.24-2.055-6.612-1.4-10.478-2.462-13.164-8.423-1.221-8.871,3.6-25.9,7.67-35.28,3.866-5.677,9.848-4.09,14.181-3.3,0,0,6.836,1.689,10.539,5.555.59.61,9.827,4.476,9.827,4.476Z" transform="translate(-1.099 -102.149)" fill="#fbb03b"/>
    <path id="Path_286" data-name="Path 286" d="M33.088,134.18c-.509,1.729-1.119,3.438-1.77,5.127-.305.794-.61,1.587-.936,2.381-.122.285-.244.59-.366.875-.224.509-.468,1.038-.692,1.546-2.279,4.842-3.52,9.217-6.531,13.49-.427.61-.142,3.581-.57,4.191-.468-1.261-2.543-1.709-4.863-2.95,7.955-6.918,10.743-17.131,11.679-28.749,1.058,3.52,2.95-.509,4.517,2.462-.142.549-.305,1.1-.468,1.648Z" transform="translate(10.339 -91.178)" fill="#9d9d9c" opacity="0.5"/>
    <path id="Path_287" data-name="Path 287" d="M62.572,123.8c0,6.083-7.528,14.324-12.452,17.07-6.511,3.255-15,2.747-25.168,2.4-7.06-1.058-4.7-17.4,4.842-16.114,6.145,2.5,10.987,2.218,17.091,3.6l11.984-9.766c1.75-.244,3.7,1.241,3.7,2.808Z" transform="translate(13.957 -100.617)" fill="#faeedf"/>
  </g>
  <g id="Group_141" data-name="Group 141" transform="translate(291.337 146.542)">
    <g id="Group_140" data-name="Group 140" transform="translate(36.012 4.255)">
      <path id="Path_288" data-name="Path 288" d="M190.563,107.138l-.264,3.276-.651,1.933-1.424,2.584c-.427.712-1.139.59-1.139-.081l-.692,1.221c-.631.956-1.526.142-1.058-.855l1.038-2.564-1.75,3.194c-.692.936-1.587.346-1.2-.936l1.4-3.561-1.546,2.787c-.468.631-1.526.244-1.221-.936l1.567-4.619a2.971,2.971,0,0,0-.163-1.75c-.305-.61-2.686.651-2.686.651-.834.488-1.587.916-2.157,1.241-.793.122-1.139-.081-1.017-.61l1.628-1.709,1.831-1.607.814-.712a10.372,10.372,0,0,1,3.581-1.668l.1-.346.2-.671,1.79.264,2.665.407-.122,2.035.163.956.326,2.035Z" transform="translate(-143.624 -45.866)" fill="#fcaf75"/>
      <path id="Path_289" data-name="Path 289" d="M180.7,104.364l3.6-.834,1.933,3.255-1.668,5.88c.061-1.567.122-3.438-.9-3.8l-1.79-.264,1.465-1-.224-1.465-3.113-.488.712-1.282Z" transform="translate(-141.108 -43.663)" fill="#fcaf75" opacity="0.3"/>
      <path id="Path_290" data-name="Path 290" d="M179.97,82.741l1.078,12.838.875,10.661c.793,6.185,1.668,11.17,1.119,14.405a2.556,2.556,0,0,0,.061.9,3.517,3.517,0,0,0,1.953,1.953,11.666,11.666,0,0,0,2.726,1.017c1.546-6.368,2.747-12.493,2.218-17.437l-1.038-12.594c-.285-7.2-1.994-12.676-8.973-11.76Z" transform="translate(-141.15 -65.296)" fill="#ea4a49"/>
      <path id="Path_291" data-name="Path 291" d="M179.3,104.466l6.429-.753a3.647,3.647,0,0,1-1.953-1.953l-.1.346a10.162,10.162,0,0,0-3.581,1.668l-.794.712Z" transform="translate(-141.843 -45.494)" fill="#fcaf75" opacity="0.3"/>
      <path id="Path_292" data-name="Path 292" d="M181.355,100.644c.794,6.185,1.668,11.17,1.119,14.405a2.555,2.555,0,0,0,.061.9,3.517,3.517,0,0,0,1.953,1.953c0-.793,0-1.587.041-2.36.407-11.943,4.008-21.974-.081-27.488L180.5,89.963l.875,10.661Z" transform="translate(-140.601 -59.679)" fill="#ea4a49" opacity="0.5"/>
      <path id="Path_293" data-name="Path 293" d="M189.407,139.58a13.3,13.3,0,0,1,0,5.453c-.977,1.689-2.319,2.319-4.537,1.933-1.506-.264-3.154-1.851-4.537-3.683-3.194-1.18-6.185-2.055-7.589-4.517-.916-1.546-1-3.479,1.058-4.456a10.95,10.95,0,0,1,8,1.587l1.139-3.357,6.022,1.078.448,5.961Z" transform="translate(-149.264 -13.649)"/>
      <path id="Path_294" data-name="Path 294" d="M173.81,117.115c.732,6.938,1.79,14.893,3.683,19.858l1.2,3.744V163c-.794,4.456,4.6,8.3,9.461,5.677,2.055-10.987,2.706-22.177,0-31.13l-.936-4.313c1.2-7.447,1.18-18.006.977-27.589L173.83,117.115Z" transform="translate(-147.523 -41.48)" fill="#1d1d1b"/>
      <path id="Path_295" data-name="Path 295" d="M181.806,144.272a13.386,13.386,0,0,1,.265,5.392c-.529,1.75-1.872,2.645-4.822,2.319a13.4,13.4,0,0,1-5.738-2.218c-5.453-1.322-10.621-3.113-10.621-7.325.59-2.279,2.787-3.5,5.636-2.442s5.249,1.261,7.772.122l.671-3.011,6.47,1.139.346,6.022Z" transform="translate(-160.89 -8.92)"/>
      <path id="Path_296" data-name="Path 296" d="M196.122,112.856c0,5.229-6.877,9.644-11.984,11.577-.448,8.4-2.625,16.6-4.72,24.069,2.625,8.342-.163,22.625-2.319,35.992a6.028,6.028,0,0,1-4.7,1.424c-3.439-.305-6.877-2.828-6.206-6.246,1.567-3.927,1.282-17.05,1.892-28.891l-.61-5.9s-.916-8.708-.407-13.978c.264-2.665.57-5.453.875-8.159,1.058-8.952,2.177-17.05,2.177-17.05,6.206,1.3,17.376,2.035,23.052-6.145,1.465,3.988,2.971,6.816,2.971,13.286Z" transform="translate(-155.491 -47.781)" fill="#3c3c3b"/>
      <path id="Path_297" data-name="Path 297" d="M176.712,104.015c-3.845,10.4-5.168,21.892-4.11,34.446l-.224,44.334c-3.438-.305-6.877-2.828-6.206-6.246,1.567-3.927,1.282-17.05,1.892-28.891l-.61-5.9s-.916-8.708-.407-13.978c.265-2.665,2.747-22.5,3.072-25.209l6.613,1.445Z" transform="translate(-155.512 -44.656)" fill="#3f668a" opacity="0.3"/>
      <path id="Path_298" data-name="Path 298" d="M198.81,94.145c-.732,6.45-2.828,13.978-6.45,22.869a17.68,17.68,0,0,1-16.5,7.528,27.54,27.54,0,0,1-6.531-1.363c-.916-5.921-1.811-11.78-2.218-17.03-.387-5.087-.427-11.618.529-15,9.217-1.526,16.216-6.45,25.9-8.464l5.29,11.475Z" transform="translate(-154.72 -65.224)" fill="#ea4a49"/>
      <path id="Path_299" data-name="Path 299" d="M171.18,84.086l1.2,6.9c4.171,1.851,11.15-.285,10.8-3.988l-2.3-5.636-9.725,2.726Z" transform="translate(-150.265 -66.6)" fill="#ffad73"/>
      <path id="Path_300" data-name="Path 300" d="M177.446,74.293c-4.273,1.038-7.386,3.194-7.732,8.1a25.987,25.987,0,0,0,.346,7.325,4.16,4.16,0,0,0,3.52,2.645l9.583-1.282c2.909-1.953,4.761-6.083,3.927-10.641-.814-4.395-4.151-6.409-9.624-6.124Z" transform="translate(-151.851 -73.918)" fill="#ffad73"/>
      <path id="Path_301" data-name="Path 301" d="M169.775,80.422c.224.936,1.017,3.642,3.215,4.863v2.726l1.953,1.139.224,1.363a1.883,1.883,0,0,0,1.261,1.506c1.709.61,5.107,1.343,7.548-1.1a10.27,10.27,0,0,0,3.5-8.973c-.244-4.761-4.863-8.037-9.135-7.833-5.066.244-7.772,2.3-8.545,5.656a1.645,1.645,0,0,0,0,.631Z" transform="translate(-151.708 -74.106)" fill="#1d1d1b"/>
      <path id="Path_302" data-name="Path 302" d="M172.877,80.371c.631-.041,1.119.549,1.3,1.139a2.491,2.491,0,0,1-.285,1.974,2.571,2.571,0,0,1-1.648,1.139.452.452,0,0,1-.326-.02c-.122-.081-.142-.265-.163-.427l-.061-1.4a4.017,4.017,0,0,1,.122-1.485,1.286,1.286,0,0,1,1.078-.916Z" transform="translate(-149.723 -67.625)" fill="#ffad73"/>
      <path id="Path_303" data-name="Path 303" d="M175.744,115.283a27.539,27.539,0,0,1-6.531-1.363C168.3,108,166.731,95.954,167,91.62l3.52,2.665c-.855,7.833.712,16.765,5.249,21Z" transform="translate(-154.604 -55.985)" fill="#ea4a49" opacity="0.5"/>
    </g>
    <path id="Path_304" data-name="Path 304" d="M158.938,83.155a14.034,14.034,0,0,0-1.078-2.971l.1.081-.163-.224a3.2,3.2,0,0,0-.244-.387l-.142-.122-3.3-4.313c-.834-1.1-1.526-.305-.956.753l-4.415-3.683c-.936-.712-1.709.081-.814.936l3.215,3.235-5.636-3.276c-1.017-.468-1.567.59-.671,1.241l4.883,3.4-5.616-2.177c-1-.407-1.384.712-.1,1.343l4.639,2.726-3.764-.916c-1-.142-1.017.855-.142,1.139l4.842,1.526c1.485,2.035,3.3,2.889,5.656,3.906,1.689.59,4.72,3.032,4.842,2.645l1.648-1.974-2.767-2.909Z" transform="translate(-143.19 -72.014)" fill="#fcaf75"/>
    <path id="Path_305" data-name="Path 305" d="M149.691,79.993l2.848-2.5,16.419,11.638c8.077,2.136,15.3,4.435,20.611,7.019l.773,14.405c-6.877-1.607-15.463-6.165-24.517-11.577-4.374-2.421-10.214-9.4-16.134-16.623a2.278,2.278,0,0,1,0-2.38Z" transform="translate(-136.812 -66.349)" fill="#ea4a49"/>
  </g>
  <g id="Group_142" data-name="Group 142" transform="translate(135.67 74.596)">
    <path id="Path_306" data-name="Path 306" d="M72.844,36.893a52.724,52.724,0,0,1,14.1,8.606l19.675,8.322c0,1.221-.936,1.953-2.95,2.116-4.985.265-11.251-.59-18.291-2.116a53.761,53.761,0,0,1-12.92-5.168c-9.461-2.319-5.819-13.388.387-11.76Z" transform="translate(-66.681 -36.574)" fill="#ea4a49"/>
    <path id="Path_307" data-name="Path 307" d="M72.92,36.809c-6.206-1.628-9.929,9.97-.488,12.289A45.755,45.755,0,0,0,80.9,52.557c-1.363-3.438,1.322-8.606,4.11-8.566A55.322,55.322,0,0,0,72.92,36.809Z" transform="translate(-66.656 -36.653)" fill="#ea4a49"/>
    <path id="Path_308" data-name="Path 308" d="M84.76,46.877l.732,3.174.387,2.523c.183.732,1.119.468,1.261-.387l.305-2.116,3.337.387L92.594,51.8l.916,1.363c.529.814,1.709.936,1.546-.061L96.4,54.568c.468.529,1.506.488,1.078-.305.61.814,1.648.651,1.261-.081l-3.3-3.561L91.068,47.1l-5.229-2.38L84.74,46.9Z" transform="translate(-47.997 -28.307)" fill="#fcaf75"/>
  </g>
  <g id="Group_150" data-name="Group 150" transform="translate(165.51 220.154)">
    <g id="Group_143" data-name="Group 143" transform="translate(16.597 58.975)">
      <path id="Path_309" data-name="Path 309" d="M129.064,158.128l3.561.631c1-.387,0-4.09,1.75-5.9,1.282-1.322,3.459-2.3,4.6-1.709,3.357,1.729,3.215,9.095,1.363,13.083a6.2,6.2,0,0,1-.407,5.9c-1.119,2.035-3.072,2.564-4.578,1.852l-3.764-2.848-4.517-4.842,1.974-6.185Z" transform="translate(-50.639 -122.909)" fill="#1d1d1b"/>
      <path id="Path_310" data-name="Path 310" d="M164.451,179.052c.163,1.384.427,2.828.692,4.049-11.19-6.022-21.323-7.06-28.607-15.3a8.869,8.869,0,0,0-4.293-2.238l-8.728-2.686-9.97-3.093-10.234-3.174L94.42,142.165l3.54-1.16,11.7-3.825c8.1,4.293,15.931,8.606,21.323,13.225a27.134,27.134,0,0,1,4.334,4.517l3.54,2.625c7.08,3.093,17.213,8.83,27.508,15.5-2.055.244-2.258,3.032-1.933,6Z" transform="translate(-84.419 -137.18)" fill="#308dc2"/>
      <path id="Path_311" data-name="Path 311" d="M128.991,155.9c-1.139-.59-2.828-.122-4.374.9-.956.631-1.567,2.564-2.177,4.252l6.877,6.022c1.465-4.151,2.421-9.746-.346-11.17Z" transform="translate(-55.429 -118.078)" fill="#1d1d1b"/>
      <path id="Path_312" data-name="Path 312" d="M133.052,164.322l-6.877-6.022c-.529,1.445-1.058,2.726-1.811,2.93L120.8,160.6l-1.974,6.185,4.517,4.842,3.764,2.848c1.506.712,3.439.183,4.578-1.851a6.191,6.191,0,0,0,.407-5.9c.326-.712.651-1.526.977-2.421Z" transform="translate(-59.164 -115.329)" fill="#1d1d1b"/>
      <path id="Path_313" data-name="Path 313" d="M153.382,188.178c.2,1.221.427,2.482.529,3.662-11.272-6.368-24.741-7.935-31.292-20.814-12.167-6.1-22.93-10.051-28.729-15.85-3.825-3.581-5.127-8.016-3.988-13.306l13.144-2.625,1.729-.346,8.281,8.586a49.45,49.45,0,0,1,10.6,8.1A62.75,62.75,0,0,1,128.6,161.1c1.2,1.506,2.38,3.072,3.54,4.741,8.606,7.06,16.928,13.571,22.706,15.463-2.462.509-2.014,3.561-1.465,6.9Z" transform="translate(-89.505 -135.4)" fill="#308dc2"/>
      <path id="Path_314" data-name="Path 314" d="M153.382,189.947c.2,1.221.427,2.482.529,3.662-11.272-6.368-24.741-7.935-31.292-20.814-12.167-6.1-22.93-10.051-28.729-15.85-3.825-3.581-5.127-8.016-3.988-13.306l13.144-2.625,11.7-3.825c8.1,4.293,15.931,8.606,21.323,13.225-3.154-1.078-7.325,1.709-9.583,5.229,1.689,4.6,7.325,6.348,14,7.365,4.395,6.938,21.974,15.972,29.034,16.033.163,1.384.427,2.828.692,4.049-11.19-6.022-21.323-7.06-28.607-15.3a8.869,8.869,0,0,0-4.293-2.238l-8.728-2.686-4.964-5.514a12.227,12.227,0,0,0-5.025,2.442,7.241,7.241,0,0,0-2.706,5.493,19.14,19.14,0,0,0,8.322,5.31c5.351,8.932,16.318,14.69,29.136,19.39Z" transform="translate(-89.505 -137.17)" fill="#3f668a" opacity="0.3"/>
      <path id="Path_315" data-name="Path 315" d="M128.991,155.9c-1.139-.59-2.828-.122-4.374.9-.956.631-1.567,2.564-2.177,4.252l6.877,6.022c1.465-4.151,2.421-9.746-.346-11.17Z" transform="translate(-55.429 -118.078)" fill="#1d1d1b"/>
    </g>
    <g id="Group_149" data-name="Group 149">
      <path id="Path_316" data-name="Path 316" d="M103.755,127.864l-.549-4.374L97.02,128.6l1.546,5.738,13.062,8.81L116,141.6c-4.924-5.371-8.5-10.641-12.248-13.734Z" transform="translate(-65.132 -92.369)" fill="#ffaa6d"/>
      <path id="Path_317" data-name="Path 317" d="M104.437,125.858c-.183-6.674-3.113-9.888-6.857-9.888l-2.4,6.429,3.744,13.957c3.194-1.058,5.371-2.686,6.185-5.107l-.671-5.412Z" transform="translate(-67.036 -100.149)" fill="#faeedf"/>
      <path id="Path_318" data-name="Path 318" d="M123.519,160.493a26.761,26.761,0,0,0-4.415,1.322c-9.2,3.622-17.5,11.373-23.5,5.575a86.705,86.705,0,0,0-6.348-21.811l-2.36-5.8L83.03,130.34a39.17,39.17,0,0,1,15-13.957c4.5-.936,8.688-1.221,12.126,0l4.273,10.377,1.852,7.386c1.953,8.993,1.384,18.352,7.243,26.348Z" transform="translate(-79.606 -100.562)" fill="#faeedf"/>
      <path id="Path_319" data-name="Path 319" d="M118.857,150.226l-1.709,1.038c-9.2,3.622-17.5,11.373-23.5,5.575A86.7,86.7,0,0,0,87.3,135.027l-2.36-5.8,2.279-3.459c2.645,7.65,5.493,14.914,10.132,19.085a18.616,18.616,0,0,0,9.99,4.8Z" transform="translate(-77.63 -90.01)" fill="#575756" opacity="0.2"/>
      <path id="Path_320" data-name="Path 320" d="M107.9,145.453c-1.282.1-18.963-7.3-18.678-7.772a24.74,24.74,0,0,0,1.363-4.659l-9.135-1.872c-.163,2.869-.122,5.921,0,9.054,1.892,7.2,14.2,8.057,24.9,9.4,0,0,1.913-4.151,1.567-4.11Z" transform="translate(-81.347 -84.444)" fill="#ffaa6d"/>
      <path id="Path_321" data-name="Path 321" d="M88.708,114.38l-1.078,6.938s3.8,5.717,7.548,5.331c5.168-.549,3.479-5.331,3.479-5.331l-.651-6.226-9.3-.692Z" transform="translate(-74.847 -101.794)" fill="#ffaa6d"/>
      <path id="Path_322" data-name="Path 322" d="M89.09,118l9.725-1.241s2.584,9.461-1.689,11.089c-6,2.279-8.037-9.848-8.037-9.848Z" transform="translate(-73.336 -99.332)" fill="#ffaa6d" opacity="0.3"/>
      <g id="Group_144" data-name="Group 144" transform="translate(11.7)">
        <path id="Path_323" data-name="Path 323" d="M90.033,123.3a7.405,7.405,0,0,0,.448,2.36,15.205,15.205,0,0,0,.855,1.892,17.015,17.015,0,0,0,6.226,3.6,2.392,2.392,0,0,0,2.218-.59c1.424-1.546,2.381-4.151,3.113-7.243l.692-3.947c-.183-5.9-2.177-10.3-8.545-11.028-4.029.773-6.714,3.032-7.548,7.3a12.8,12.8,0,0,0,.549,6.063l1.974,1.628Z" transform="translate(-86.854 -108.033)" fill="#ffaa6d"/>
        <path id="Path_324" data-name="Path 324" d="M88.3,124.564l1.567,1.058-.041-2.4,1.526.387.9-2.157c3.866,2.543,10.783,1.465,11.821-1.506a9.307,9.307,0,0,0-3.337-9.725c-1.811-1.363-3.581-2.34-6.328-1.933-4.069.61-6.551,3.377-7.284,7.548a31.824,31.824,0,0,0,1.18,8.749Z" transform="translate(-87.098 -108.194)" fill="#3c3c3b"/>
        <path id="Path_325" data-name="Path 325" d="M90.108,117.335a3.637,3.637,0,0,0-.407-2.075c-.285-.488-1.017-1.2-1.567-.732-.773.671-.183,3.439.59,3.886,1.18.692,1.384-.265,1.384-1.1Z" transform="translate(-86.4 -101.8)" fill="#ffaa6d"/>
      </g>
      <path id="Path_326" data-name="Path 326" d="M91.42,134.661c-.305-7.426-2.1-11.964-5.961-12.391-2.686,3.967-4.313,8.159-3.459,12.92a40.154,40.154,0,0,0-.59,5.148c2.055,1.384,5.331,1.831,9.135,1.872a57.358,57.358,0,0,0,.9-7.548Z" transform="translate(-81.282 -93.631)" fill="#faeedf"/>
      <g id="Group_146" data-name="Group 146" transform="translate(24.747 54.458)">
        <rect id="Rectangle_65" data-name="Rectangle 65" width="5.514" height="1.811" transform="translate(17.193 23.593) rotate(-30)" fill="#333332"/>
        <path id="Path_327" data-name="Path 327" d="M93.51,141.68,112,152.3c0,.834-.57,1.16-1.282.753l-15.931-9.135A2.82,2.82,0,0,1,93.51,141.7h0Z" transform="translate(-93.51 -128.007)" fill="#333332"/>
        <path id="Path_328" data-name="Path 328" d="M135.606,145.5,117.173,134.96,93.51,148.633l18.474,10.621Z" transform="translate(-93.51 -134.96)" fill="#575756"/>
        <g id="Group_145" data-name="Group 145" transform="translate(8.261 4.151)">
          <path id="Path_329" data-name="Path 329" d="M102.112,144.77l1.038.61-1.3.753-1.038-.61Z" transform="translate(-94.218 -128.961)" fill="#dadada"/>
          <path id="Path_330" data-name="Path 330" d="M104.68,144.5l-1.282.753-1.058-.61,1.3-.753Z" transform="translate(-92.635 -129.872)" fill="#dadada"/>
          <path id="Path_331" data-name="Path 331" d="M104.4,143.45l1.058.61-1.3.732-1.058-.59Z" transform="translate(-91.849 -130.327)" fill="#dadada"/>
          <path id="Path_332" data-name="Path 332" d="M105.172,143.01l1.038.59-1.282.753-1.058-.61Z" transform="translate(-91.052 -130.782)" fill="#dadada"/>
          <path id="Path_333" data-name="Path 333" d="M105.932,142.56l1.058.61-1.3.753-1.058-.61Z" transform="translate(-90.266 -131.248)" fill="#dadada"/>
          <path id="Path_334" data-name="Path 334" d="M108.52,142.29l-1.3.753-1.058-.61,1.3-.753Z" transform="translate(-88.683 -132.158)" fill="#dadada"/>
          <path id="Path_335" data-name="Path 335" d="M108.232,141.24l1.058.61-1.3.753-1.058-.61Z" transform="translate(-87.886 -132.613)" fill="#dadada"/>
          <path id="Path_336" data-name="Path 336" d="M108.992,140.8l1.058.59-1.3.753-1.058-.59Z" transform="translate(-87.1 -133.068)" fill="#dadada"/>
          <path id="Path_337" data-name="Path 337" d="M106.758,139.233l-1.038-.59,1.3-.753,1.038.61Z" transform="translate(-89.138 -136.079)" fill="#dadada"/>
          <path id="Path_338" data-name="Path 338" d="M107.538,138.793l-1.058-.61,1.3-.732,1.058.59Z" transform="translate(-88.352 -136.534)" fill="#dadada"/>
          <path id="Path_339" data-name="Path 339" d="M107.25,137.753l1.3-.753,1.038.61-1.3.753Z" transform="translate(-87.555 -137)" fill="#dadada"/>
          <path id="Path_340" data-name="Path 340" d="M98.628,144.143l-1.058-.61,1.3-.753,1.058.61Z" transform="translate(-97.57 -131.02)" fill="#dadada"/>
          <path id="Path_341" data-name="Path 341" d="M99.378,143.7l-1.038-.61,1.3-.753,1.038.61Z" transform="translate(-96.773 -131.475)" fill="#dadada"/>
          <path id="Path_342" data-name="Path 342" d="M107.686,140.74l-2.36,1.363-.509.285-.244.142-.651.387-.916.529-1.3.732-1.546.916-1.058-.61,4.273-2.462.142-.081,3.113-1.811Z" transform="translate(-95.987 -133.762)" fill="#dadada"/>
          <path id="Path_343" data-name="Path 343" d="M103.988,141.053l-1.058-.61,1.3-.753,1.038.61Z" transform="translate(-92.024 -134.217)" fill="#dadada"/>
          <path id="Path_344" data-name="Path 344" d="M104.748,140.613,103.69,140l1.3-.753,1.058.61Z" transform="translate(-91.238 -134.672)" fill="#dadada"/>
          <path id="Path_345" data-name="Path 345" d="M104.46,139.563l1.3-.753,1.038.59-1.282.753Z" transform="translate(-90.442 -135.127)" fill="#dadada"/>
          <path id="Path_346" data-name="Path 346" d="M106.36,139.013l1.3-.753,1.058.61-1.3.753Z" transform="translate(-88.476 -135.696)" fill="#dadada"/>
          <path id="Path_347" data-name="Path 347" d="M107.13,138.573l1.282-.753,1.058.61-1.3.732Z" transform="translate(-87.679 -136.152)" fill="#dadada"/>
          <path id="Path_348" data-name="Path 348" d="M107.89,138.112l1.3-.732,1.058.59-1.3.753Z" transform="translate(-86.893 -136.607)" fill="#dadada"/>
          <path id="Path_349" data-name="Path 349" d="M98.21,143.9l1.3-.753,1.058.61-1.3.753Z" transform="translate(-96.908 -130.637)" fill="#dadada"/>
          <path id="Path_350" data-name="Path 350" d="M101.34,143.32l-1.3.753-1.058-.61,1.3-.753Z" transform="translate(-96.111 -131.092)" fill="#dadada"/>
          <path id="Path_351" data-name="Path 351" d="M102.09,142.88l-1.3.753-1.038-.61,1.282-.753Z" transform="translate(-95.315 -131.548)" fill="#dadada"/>
          <path id="Path_352" data-name="Path 352" d="M102.87,142.44l-1.3.753-1.058-.61,1.3-.753Z" transform="translate(-94.528 -132.003)" fill="#dadada"/>
          <path id="Path_353" data-name="Path 353" d="M103.62,141.98l-1.3.753-1.038-.59,1.282-.753Z" transform="translate(-93.732 -132.458)" fill="#dadada"/>
          <path id="Path_354" data-name="Path 354" d="M104.4,141.55l-1.3.753-1.058-.61,1.3-.753Z" transform="translate(-92.945 -132.924)" fill="#dadada"/>
          <path id="Path_355" data-name="Path 355" d="M105.15,141.11l-1.3.753-1.038-.61,1.3-.753Z" transform="translate(-92.149 -133.379)" fill="#dadada"/>
          <path id="Path_356" data-name="Path 356" d="M105.93,140.67l-1.3.753-1.058-.61,1.3-.753Z" transform="translate(-91.362 -133.834)" fill="#dadada"/>
          <path id="Path_357" data-name="Path 357" d="M106.68,140.23l-1.3.753-1.038-.61,1.3-.753Z" transform="translate(-90.566 -134.289)" fill="#dadada"/>
          <path id="Path_358" data-name="Path 358" d="M107,139.383l1.3-.753,1.058.61-1.3.753Z" transform="translate(-87.814 -135.314)" fill="#dadada"/>
          <path id="Path_359" data-name="Path 359" d="M110.11,138.8l-1.3.753-1.038-.61,1.3-.753Z" transform="translate(-87.017 -135.769)" fill="#dadada"/>
          <path id="Path_360" data-name="Path 360" d="M108.53,138.5l1.3-.753,1.058.59-1.3.753Z" transform="translate(-86.231 -136.224)" fill="#dadada"/>
          <path id="Path_361" data-name="Path 361" d="M98.86,144.273l1.3-.753,1.038.61-1.3.753Z" transform="translate(-96.235 -130.254)" fill="#dadada"/>
          <path id="Path_362" data-name="Path 362" d="M101.98,143.69l-1.3.753-1.058-.61,1.3-.753Z" transform="translate(-95.449 -130.71)" fill="#dadada"/>
          <path id="Path_363" data-name="Path 363" d="M100.39,143.393l1.3-.753,1.038.61-1.3.753Z" transform="translate(-94.652 -131.165)" fill="#dadada"/>
          <path id="Path_364" data-name="Path 364" d="M101.15,142.953l1.3-.753,1.058.61-1.3.753Z" transform="translate(-93.866 -131.62)" fill="#dadada"/>
          <path id="Path_365" data-name="Path 365" d="M101.92,142.513l1.3-.753,1.038.61-1.282.753Z" transform="translate(-93.069 -132.075)" fill="#dadada"/>
          <path id="Path_366" data-name="Path 366" d="M102.68,142.052l1.3-.732,1.058.59-1.3.753Z" transform="translate(-92.283 -132.53)" fill="#dadada"/>
          <path id="Path_367" data-name="Path 367" d="M105.79,141.48l-1.282.753-1.058-.61,1.3-.753Z" transform="translate(-91.486 -132.996)" fill="#dadada"/>
          <path id="Path_368" data-name="Path 368" d="M104.21,141.183l1.3-.753,1.058.61-1.3.753Z" transform="translate(-90.7 -133.451)" fill="#dadada"/>
          <path id="Path_369" data-name="Path 369" d="M107.584,141.3l-1.546.9-1.058-.61,1.546-.9-1.3-.753,1.3-.753,1.3.753.427.244.631.366-.875.488Z" transform="translate(-89.904 -134.745)" fill="#dadada"/>
          <path id="Path_370" data-name="Path 370" d="M108.688,140.363l-1.038-.61,1.282-.753,1.058.61Z" transform="translate(-87.141 -134.931)" fill="#dadada"/>
          <path id="Path_371" data-name="Path 371" d="M109.712,138.56l1.058.61-1.3.753-1.058-.61Z" transform="translate(-86.355 -135.386)" fill="#dadada"/>
          <path id="Path_372" data-name="Path 372" d="M109.18,138.873l1.282-.753,1.058.61-1.3.732Z" transform="translate(-85.558 -135.841)" fill="#dadada"/>
          <path id="Path_373" data-name="Path 373" d="M99.5,144.632l1.3-.732,1.058.59-1.3.753Z" transform="translate(-95.573 -129.861)" fill="#dadada"/>
          <path id="Path_374" data-name="Path 374" d="M101.308,144.813l-1.038-.61,1.282-.753,1.058.61Z" transform="translate(-94.777 -130.327)" fill="#dadada"/>
          <path id="Path_375" data-name="Path 375" d="M101.03,143.763l1.3-.753,1.058.61-1.3.753Z" transform="translate(-93.99 -130.782)" fill="#dadada"/>
          <path id="Path_376" data-name="Path 376" d="M103.1,142.57l1.038.61-1.3.753-1.038-.61Z" transform="translate(-93.194 -131.237)" fill="#dadada"/>
          <path id="Path_377" data-name="Path 377" d="M102.56,142.883l1.3-.753,1.058.61-1.3.753Z" transform="translate(-92.407 -131.692)" fill="#dadada"/>
          <path id="Path_378" data-name="Path 378" d="M103.33,142.443l1.3-.753,1.038.61-1.3.732Z" transform="translate(-91.611 -132.148)" fill="#dadada"/>
          <path id="Path_379" data-name="Path 379" d="M105.148,142.593l-1.058-.61,1.3-.732,1.058.59Z" transform="translate(-90.824 -132.603)" fill="#dadada"/>
          <path id="Path_380" data-name="Path 380" d="M104.86,141.553l1.3-.753,1.038.61-1.3.753Z" transform="translate(-90.028 -133.068)" fill="#dadada"/>
          <path id="Path_381" data-name="Path 381" d="M107.187,140.673l.468-.285.834-.468,1.038.61-.814.468-.488.285-1.546.9-1.058-.61Z" transform="translate(-89.241 -133.979)" fill="#dadada"/>
          <path id="Path_382" data-name="Path 382" d="M111.29,140.35l-1.3.753-1.058-.61,1.3-.753Z" transform="translate(-85.817 -134.165)" fill="#dadada"/>
          <path id="Path_383" data-name="Path 383" d="M111,139.3l1.038.61-1.3.753-1.038-.61Z" transform="translate(-85.02 -134.62)" fill="#dadada"/>
          <path id="Path_384" data-name="Path 384" d="M111.762,138.86l1.058.61-1.3.753-1.058-.61Z" transform="translate(-84.234 -135.076)" fill="#dadada"/>
        </g>
        <path id="Path_385" data-name="Path 385" d="M99.094,140.843l3.113,1.811a.56.56,0,0,0,.509,0l4.7-2.726a.162.162,0,0,0,0-.305l-3.113-1.811a.56.56,0,0,0-.509,0l-4.7,2.726A.162.162,0,0,0,99.094,140.843Z" transform="translate(-87.843 -132.073)" fill="#878787"/>
      </g>
      <path id="Path_386" data-name="Path 386" d="M94.107,137.94l2.909.509h3.377l3.723,1.078,2.686,1.119c.732.265.732.651.387.855l2.6,1.16,2.136,1.241c.692.529.163,1.282-.732.936l-4.354-1.729-.814.122,2.177,1.424,2.991,2.136c.9.692.183,1.506-.732,1.078l-4.232-2.279,2.909,2.869c.794.956-.061,1.485-.855.977l-3.927-3.133-1.058-.224,2.136,2.869c.753.956-.183,1.241-.956.427l-2.869-2.747a16.1,16.1,0,0,1-3.927-1.709,9.562,9.562,0,0,1-2.442-2.6l-3.3-.468c-.122-2.136-.285-3.845,2.136-3.886Z" transform="translate(-70.438 -77.419)" fill="#ffaa6d"/>
      <path id="Path_387" data-name="Path 387" d="M109.34,133.311a13.258,13.258,0,0,1,3.316,3.337l4.069,4.252c.549.753-.142,1.2-.834.671l-1.343-1.241,1.872,2.625c.57.834-.2,1.424-.956.834l-3.581-3.662,2.36,4.5c.488,1-.509,1.424-1.139.57l-3.093-4.395h-.529l1.058,4.68c.285.916-.814,1.241-1.18.163l-2.075-5.148-1.241-1.017-1.058,2.1-.2,2.014a1.263,1.263,0,0,1-.631,1.139.53.53,0,0,1-.712-.244l.142-1.709-.142-2.747,1.546-5.188-.956-1.668,3.052-1.668,2.279,1.79Z" transform="translate(-58.49 -84.082)" fill="#ffaa6d"/>
      <g id="Group_148" data-name="Group 148" transform="translate(43.241 46.686)">
        <g id="Group_147" data-name="Group 147">
          <path id="Path_388" data-name="Path 388" d="M114.23,149.757l5.087-18.617a2.694,2.694,0,0,1,.916,2.36l-4.415,16.134c-.183.671-.9.732-1.587.122Z" transform="translate(-90.567 -131.14)" fill="#4a4a49"/>
          <path id="Path_389" data-name="Path 389" d="M107.076,144.8l-3.866,18.983,23.663-13.652,3.866-18.983Z" transform="translate(-101.969 -131.13)" fill="#4a4a49"/>
          <path id="Path_390" data-name="Path 390" d="M102.6,156.477l5.087-18.617a2.694,2.694,0,0,1,.916,2.36l-4.415,16.134c-.183.671-.9.732-1.587.122Z" transform="translate(-102.6 -124.187)" fill="#333332"/>
        </g>
        <path id="Path_391" data-name="Path 391" d="M110.022,140.746c-.142.794.366,1.139,1.119.732a3.418,3.418,0,0,0,1.587-2.177c.142-.814-.366-1.139-1.119-.732A3.418,3.418,0,0,0,110.022,140.746Z" transform="translate(-94.946 -123.635)" fill="#dadada"/>
      </g>
    </g>
  </g>
  <ellipse id="Ellipse_28" data-name="Ellipse 28" cx="26.043" cy="15.036" rx="26.043" ry="15.036" transform="translate(208.161 47.773)" fill="#575756" opacity="0.2"/>
  <g id="Group_153" data-name="Group 153" transform="translate(172.588)">
    <g id="Group_151" data-name="Group 151" transform="translate(24.382 43.948)">
      <path id="Path_392" data-name="Path 392" d="M115.244,48.984v2.462c-1.526,1.424-3.032,2.767-4.232,2.686-2.1,4.659-5.046,7.141-8.708,7.833-3.927.122-5.493-1.465-5.493-3.764.305-3.54,5.636-6.185,6.531-10.051l11.9.814Z" transform="translate(-96.81 5.889)" fill="#3c3c3b"/>
      <path id="Path_393" data-name="Path 393" d="M139.658,29.749c-.041.244-.081.529-.122.814C137.481,38.7,128.814,40.593,121.1,44.215a28.374,28.374,0,0,0-7.3,4.639c1.75,7,1.546,12.147.122,24.456A7.612,7.612,0,0,1,112.11,77.3a7.136,7.136,0,0,1-1.892,1.465,10.138,10.138,0,0,1-3.133,1.119c-4.049.061-7.752-.692-7.284-4.5,0,0,.509-5.941.855-12.228s0-17.6,0-17.6v-.142c-.081-1.546-.509-3.377,1.282-5.656.671-.671,1.3-1.322,1.913-1.913,12.126-12.126,15.076-14.059,20.468-16.257l2.828.1,11.129.387c.448,1.729.834,2.909,1.1,3.906a8.687,8.687,0,0,1,.326,3.764Z" transform="translate(-93.758 -21.59)" fill="#256b94"/>
      <path id="Path_394" data-name="Path 394" d="M124.345,53.1v2.848a8.243,8.243,0,0,1-3.418,3.459c-2.34,4.537-5.575,6.877-9.6,7.264-3.581.326-5.8-.916-6.063-3.113.346-4.883,6.836-6.49,7.609-10.478h11.475Z" transform="translate(-88.068 10.99)" fill="#3c3c3b"/>
      <path id="Path_395" data-name="Path 395" d="M115.07,90.278a10.65,10.65,0,0,0,2.462-.834,10.129,10.129,0,0,0,1.872-1.119,9.8,9.8,0,0,0,1.261-1.16,7.618,7.618,0,0,0,1.872-3.825c1.4-12.309,2.075-21.811.305-28.81,8.322-7.67,19.064-10.3,21.811-21.221.468-2.34.081-5.31-.61-8.545-.244-1.058-.488-2.1-.753-3.174h-.366l-13.266.509-2.991.1,1.75.855-1.953,4.313L121.6,29.83l-2.787,4.395-1.16,1.851-.61.936-4.537,7.182L110.9,46.738a7.725,7.725,0,0,0-1.2,4.5s.02.773.041,2.035c.081,3.54.224,10.926-.02,15.585-.326,6.287-1.607,16.053-1.607,16.053-.468,3.8,2.91,5.432,6.979,5.371Z" transform="translate(-85.162 -21.59)" fill="#308dc2"/>
    </g>
    <path id="Path_396" data-name="Path 396" d="M92.376,29.617c4.252-4.5,8.932-8.342,14.67-10.661a26.8,26.8,0,0,1,9.176-7.284,15.179,15.179,0,0,1,10.3-6L130.749,16.7l1.424,3.683.631,1.628c-.346-.305-.692-.631-1.038-.916-2.279-1.872-4.8-3.154-7.711-2.1-3.927,3.316-9.013,5.534-15.2,8a58.235,58.235,0,0,1-11.821,6.775c-.285.122-.549.244-.834.346-1.078.448-2.442,1.322-3.54,1.709L88.51,33.971c1.261-1.506,2.564-2.991,3.906-4.395Z" transform="translate(-81.015 5.887)" fill="#faeedf"/>
    <path id="Path_397" data-name="Path 397" d="M92.03,31.35l.509-.061c.285-.122.57-.224.834-.346a58.234,58.234,0,0,0,11.821-6.775c6.185-2.462,11.272-4.659,15.2-8,2.889-1.078,5.432.2,7.711,2.1l.427-.712.387-.692c-.753-1.2-1.323-2.157-1.811-3.011a17.4,17.4,0,0,1-2.1-5.412c-4.6,5.819-13.184,10.458-20.936,12.818-.936,2.828-5.656,5.961-10.56,9.115-.142.1-.285.183-.448.285l-1.058.692Z" transform="translate(-77.394 8.753)" fill="#3f668a" opacity="0.3"/>
    <path id="Path_398" data-name="Path 398" d="M105.738,14.6a30.892,30.892,0,0,0,5.493,16.419A36.967,36.967,0,0,0,115.4,36.09a1.781,1.781,0,0,0,.163.2,6.412,6.412,0,0,0,.488.61c2.686,3.072,6.836,4.822,12.615,5.127,6.165.468,11.068-1.282,14.425-5.778V36.09c-.224-1.851-.488-3.662-.773-5.432-.163-1.017-.326-2.035-.529-3.011s-.407-1.953-.651-2.889c-1.058-4.334-2.523-8.118-4.72-10.946A18.468,18.468,0,0,0,125.6,7.442c-10.641-5.514-16.684-2.686-20.9,1.3-.814,3.337.916,2.665,1.038,5.88Z" transform="translate(-64.489 4.542)" fill="#faeedf"/>
    <path id="Path_399" data-name="Path 399" d="M115.378,4.57c.163,0,2.828,1.994,2.828,1.994,3.886,2.2-.57,12.757-6.246,10.112l-5.29-3.683,8.708-8.423Z" transform="translate(-62.227 4.749)" fill="#fcaf75"/>
    <path id="Path_400" data-name="Path 400" d="M105.1,12.193a30.892,30.892,0,0,0,5.493,16.419c3.052-2.34,7.609-17.762,6.572-20.305L115.334,6.7,105.12,12.193Z" transform="translate(-63.851 6.953)" fill="#3f668a" opacity="0.3"/>
    <path id="Path_401" data-name="Path 401" d="M109.94,27.385a6.41,6.41,0,0,0,.488.61c2.686,3.072,6.836,4.822,12.615,5.127,6.165.468,11.068-1.282,14.425-5.778v-.163a46.429,46.429,0,0,0-.753-5.432c-.183-1.017-.366-2.035-.57-3.011s-.407-1.953-.651-2.889C127.906,14.3,121.5,13,121.5,13c9.766,19.471-5.6,16.7-11.577,14.425Z" transform="translate(-58.864 13.471)" fill="#3f668a" opacity="0.3"/>
    <path id="Path_402" data-name="Path 402" d="M112.322.15c4.761.041,7.467,2.279,7.65,7.243-.142,5.209-.346,9.97-4.537,12.818-2.035,1.668-3.4,2.543-5.819,2.421-2.889-.142-5.86-7.121-6.267-12.147-.712-5.066,3.622-8.952,8.973-10.336Z" transform="translate(-65.742 0.176)" fill="#fcaf75"/>
    <path id="Path_403" data-name="Path 403" d="M103.338,11c1.078,2.543,6.572,3.744,11.17,1.75l.427,3.235,1.892-1.79,1.892,2.035.712-1c2.828-4.11,3.133-11.7-2.889-14.547-7.691-3.093-15.626,4.863-13.184,10.3Z" transform="translate(-66.118 0.01)"/>
    <path id="Path_404" data-name="Path 404" d="M110.795,9.755a4.293,4.293,0,0,0,1.16-1.343,1.876,1.876,0,0,0,.02-1.709,1.3,1.3,0,0,0-1.526-.631,1.444,1.444,0,0,0-.814.875,4.784,4.784,0,0,0-.2,1.2l-.061,1.1a.991.991,0,0,0,.163.732.671.671,0,0,0,.671.142,1.879,1.879,0,0,0,.61-.366Z" transform="translate(-59.433 6.238)" fill="#fcaf75"/>
    <path id="Path_405" data-name="Path 405" d="M91.406,20.163c1.668-.549,1.668-1.506,3.439-.59,1.567.814,1.913,1.1,1.831,2.686-.061,1.078-1.485,5.982-2.482,6.511a6.437,6.437,0,0,0-1.465.692,3.278,3.278,0,0,0-.956,1.221c-.183.468-.671.936-1.139.753-.183-.081-.916-.855.448-3.133a33.377,33.377,0,0,0-4.639,6.022c-.346.549-1.729.773-1.607-.773a14.545,14.545,0,0,1,2.2-4.151,5.469,5.469,0,0,1-1.892-2.36c-.2-.936,1.16-4.374,1.851-5.107.549-.59,3.662-1.546,4.435-1.79Z" transform="translate(-84.826 19.878)" fill="#fcaf75"/>
    <path id="Path_406" data-name="Path 406" d="M112.74,34.9l.061,1.2.1,2.421,6.267-3.6,15.382-3.194c-1.729,6.633-10.58,14-20.916,21.506,2.808,5.819,1.729,20.855.936,35.1a9.8,9.8,0,0,0,1.261-1.16A7.618,7.618,0,0,0,117.7,83.34c1.4-12.309,2.075-21.811.305-28.81,8.322-7.67,19.064-10.3,21.811-21.221.468-2.34.081-5.31-.61-8.545-.244-1.058-.488-2.1-.753-3.174h-.366l-24.13,12.655Z" transform="translate(-55.946 22.358)" fill="#3f668a" opacity="0.3"/>
    <path id="Path_407" data-name="Path 407" d="M126.861,10.08c6.8,8.322,13.449,17.579,13.449,25.026-.855,3.215-5.107,4.72-10.743,7.406-6.246,2.36-7.223,2.95-12.045,3.8-2.177,0-4.456-2.36-2.564-4.13,5.473-3.927,10.031-8.688,13.327-11.089-3.947-2.543-7.772-6.836-11.536-11.882-2.482-7.345,5.88-13.306,10.153-9.135Z" transform="translate(-54.381 9.026)" fill="#faeedf"/>
    <g id="Group_152" data-name="Group 152" transform="translate(52.64 51.843)">
      <path id="Path_408" data-name="Path 408" d="M117.9,25.592l-4.863,1.424a6.392,6.392,0,0,0-2.116,1.79.81.81,0,0,0-.224.631l.488,3.581a1.291,1.291,0,0,0,.732,1.017,13.946,13.946,0,0,0,3.052.956c1.241,0,.9-1.485.773-2.95,1.709-.081,3.459-.305,4.313-2.909l.407-.305c.916-.936-.142-3.723-2.014-3.316l-.529.081Z" transform="translate(-110.698 -25.47)" fill="#ffbb7d"/>
      <path id="Path_409" data-name="Path 409" d="M117.9,25.592l-4.863,1.424a6.392,6.392,0,0,0-2.116,1.79.81.81,0,0,0-.224.631l.488,3.581a1.291,1.291,0,0,0,.732,1.017,13.946,13.946,0,0,0,3.052.956c1.241,0,.9-1.485.773-2.95,1.709-.081,3.459-.305,4.313-2.909l.407-.305c.916-.936-.142-3.723-2.014-3.316l-.529.081Z" transform="translate(-110.698 -25.47)" fill="#fcaf75"/>
    </g>
  </g>
</svg>
