<svg id="Layer_2" data-name="Layer 2" xmlns="http://www.w3.org/2000/svg" width="338.778" height="334.858" viewBox="0 0 338.778 334.858">
  <g id="Group_3466" data-name="Group 3466" transform="translate(57.796)">
    <g id="Group_3463" data-name="Group 3463" transform="translate(210.906 204.588)">
      <path id="Path_3696" data-name="Path 3696" d="M62.068,265.811,3.28,186.028V177.45l7.494,4.324,1.683,2.121,57.116,86.251Z" transform="translate(-3.28 -177.45)" fill="#754c29"/>
      <path id="Path_3697" data-name="Path 3697" d="M58.8,269.572,0,189.778V181.2l62.581,86.182Z" transform="translate(7.494 -176.876)" fill="#3c2415"/>
    </g>
    <g id="Group_3464" data-name="Group 3464" transform="translate(210.699 259.329)">
      <path id="Path_3698" data-name="Path 3698" d="M59.185,232.642,22.21,253.982v-5.407L56.383,228.86Z" transform="translate(-14.508 -224.329)" fill="#3c2415"/>
      <path id="Path_3699" data-name="Path 3699" d="M66.515,229.461,32.342,249.176l-7.7-4.485L58.871,224.93Z" transform="translate(-24.64 -224.93)" fill="#8c5b31"/>
    </g>
    <g id="Group_3465" data-name="Group 3465">
      <path id="Path_3700" data-name="Path 3700" d="M272.68,122.465V331.226l-6.283,3.632L54.28,3.632,60.564,0Z" transform="translate(-54.28)" fill="#60caff"/>
      <path id="Path_3701" data-name="Path 3701" d="M271.847,125.615V334.376L59.73,211.9V3.15Z" transform="translate(-59.73 0.482)" fill="#399fd4"/>
    </g>
  </g>
  <g id="Group_3467" data-name="Group 3467" transform="translate(0 99.587)">
    <path id="Path_3702" data-name="Path 3702" d="M235.6,246.744c0,6.145,12.544,11.114,28.028,11.114s28.028-4.969,28.028-11.114S279.1,235.63,263.628,235.63,235.6,240.611,235.6,246.744Z" transform="translate(-224.509 -63.552)" opacity="0.3"/>
    <path id="Path_3703" data-name="Path 3703" d="M260.642,117.872c6.618,25.33,4.727,61.105,4.727,61.105l-15.991-6.214-7.425-50.741,18.677-4.162Z" transform="translate(-205.797 -81.563)" fill="#255fa6"/>
    <path id="Path_3704" data-name="Path 3704" d="M246.363,104.09c9.6,3.655,10.192,14.573,10.192,14.573l-9.535-2.64-1.51-5.822.853-6.111Z" transform="translate(-200.834 -83.669)" fill="#367ec0"/>
    <path id="Path_3705" data-name="Path 3705" d="M281.189,115.316c-.576,1.556-1.188,3.955-1.188,3.955s3.666-3.286,4.37-4.531a53.635,53.635,0,0,1,3.344-4.45l8.935-1.58,1.614,4.266-11.7,17.767s-10.192,10.48-13.535,11.195-8.589-3.666-8.082-9.754,11.114-20.453,11.114-20.453,5.073,2.975,5.142,3.586Z" transform="translate(-264.91 -82.962)" fill="#fff"/>
    <path id="Path_3706" data-name="Path 3706" d="M266.677,238.466s-6.364,4.923-10.111,6.652c-1.5.692-1.245,4.658-.53,5.015,1.672.819,4.566.219,8.22-.9a40.014,40.014,0,0,0,8.474-4.416s7.506-.807,8.981-2.479c1.637-1.868-.231-6.71-.231-6.71l-14.8,2.836Z" transform="translate(-238.142 -63.552)" fill="#603913"/>
    <path id="Path_3707" data-name="Path 3707" d="M245.806,238.116s-4.3,7.206-5.246,8.451a4.917,4.917,0,0,0-.311,4.058c.254.369,7.483,3.966,11.575-.853,1.51-1.776,5.592-10.319,5.592-10.319l-2.606-1.683-8.993.334Z" transform="translate(-195.284 -63.224)" fill="#603913"/>
    <path id="Path_3708" data-name="Path 3708" d="M261.033,156.282s-6.8,45.518-4.5,57.162c1.314,6.652,9.2,25.03,8.785,36.94,6.087,2.975,14.25.311,15.507-3.09-2.513-10.169-2.513-22.886-9.281-34.934-.4-2.156,6.8-29.734,6.8-29.734l1.464-9.523L261.033,156.27Z" transform="translate(-237.272 -75.688)" fill="#255fa6"/>
    <path id="Path_3709" data-name="Path 3709" d="M270.078,158.7c8.047,8.082,5.43,17.513,5.511,23.923.081,7,1.038,20.937,1.453,23.093,3.643,19.093.6,37.782-.277,43.765s-14.458,4.347-14.1-.715c2.64-36.433-9.316-68.9-9.316-68.9s-15.207-8.324-16.395-23.6C241.692,157.042,268.21,157.619,270.078,158.7Z" transform="translate(-213.204 -75.688)" fill="#367ec0"/>
    <path id="Path_3710" data-name="Path 3710" d="M275.628,155.872l1.995,3.378s-3.436,5.05-12.106,5.073c-11.979.035-21.006-7.506-21.006-7.506l.646-4.128,30.472,3.171Z" transform="translate(-220.748 -76.236)" fill="#121214"/>
    <path id="Path_3711" data-name="Path 3711" d="M266.97,106.757a13.118,13.118,0,0,0,.911,4.785l1.925,3.724-.357,4.162-8.266,3.39-8.728,1.58-4.1-4.623v-8.117l7.413-6.087,8.831-.45a3.179,3.179,0,0,1,2.4,1.649Z" transform="translate(-217.359 -83.511)" fill="#c7a496"/>
    <path id="Path_3712" data-name="Path 3712" d="M279.2,142.538c-2.156,8.543-5.915,11.23-7.137,19.957-.623.623-3.943,4.462-10.964,4.462-10.146.023-19.519-7.632-19.519-7.632s-2.606-19.323-2.871-32.559c-.161-7.805,8.555-17.386,8.555-17.386s5.28,2.709,4.462,4.739,1.66,7.748,1.66,7.748,11.875-3.044,13.766-5.188.542-5.8.542-5.8,8.924,8.993,12.717,11.552c.749,1.9.2,14.538-1.222,20.1Z" transform="translate(-217.187 -82.86)" fill="#fff"/>
    <path id="Path_3713" data-name="Path 3713" d="M247.1,140.912c.346-.242-1.049-2.583-1.049-2.583l-5.569-5.5,5.43,11.333a19.376,19.376,0,0,0,1.188-3.251Z" transform="translate(-185.637 -79.273)" fill="#74b3d4"/>
    <path id="Path_3714" data-name="Path 3714" d="M286.666,111.1a13.285,13.285,0,0,1-4.185,3.551c-2.1.865-9.489,1.118-9.489,1.118l-5.142-3.586a5.368,5.368,0,0,1,2.006-3.274c1.591-.968,6.606-1.407,6.606-1.407l6.237-1.776,3.955,5.384Z" transform="translate(-256.701 -83.418)" fill="#f0c6b4"/>
    <path id="Path_3715" data-name="Path 3715" d="M277.89,112.742c-8.255-2.294-11.437,1.764-16.164-.819-2.571-1.4.346-4.531,3.493-6.41,5.442-3.251,16.014-3.032,16.014-3.032s-1.049,10.745-3.355,10.261Z" transform="translate(-243.072 -83.915)" fill="#367ec0"/>
    <path id="Path_3716" data-name="Path 3716" d="M248.909,98.77s-.38,2.825.646,4.243c-.922,2.375.876,13.028,1.222,14.031s2.905,1.948,4.554,1.833c3.124-.219,8.993-4.427,9.961-5.223s.7-3.447.7-3.447,1.891.473,3.724-1.879l1.015-1.13,1.556-6.26L264.762,95.6,252.3,94.85l-3.378,3.908Z" transform="translate(-220.409 -85.082)" fill="#f0c6b4"/>
    <path id="Path_3717" data-name="Path 3717" d="M268.4,103.859c-2.121-.4-3.378,2.848-3.793,3.609-.8-2.836-6.007-5.315-6.087-7.713-.046-1.476-10.688,2.2-11.61-.507-.876-2.56,3.62-9.708,9.27-11.944,7.978-3.148,11.6,2.744,11.6,2.744a8.377,8.377,0,0,1,5.765,9.558,20.928,20.928,0,0,1-3.643,9.546,1.68,1.68,0,0,1-1.222.5s1.833-5.373-.311-5.788Z" transform="translate(-219.414 -86.377)" fill="#35373a"/>
    <path id="Path_3718" data-name="Path 3718" d="M260.094,90.206c-.738-.738-7.206,7.287-7.206,7.287S260.832,90.956,260.094,90.206Z" transform="translate(-212.928 -85.799)" fill="#686b70"/>
    <path id="Path_3719" data-name="Path 3719" d="M252.771,170.877s-.7,5.891-2.156,7.84-9.523,6.4-11.6,4.658c-1.038-.876,2.364-7.736,2.364-7.736s-1.522-1.026-.058-4.831c.842-2.179,4.416-3.3,4.416-3.3l4.508.807,2.513,2.56Z" transform="translate(-189.337 -73.97)" fill="#f0c6b4"/>
    <path id="Path_3720" data-name="Path 3720" d="M225.072,121.672c7.033-5.915,13.731,8.22,13.731,8.22s12.786,19.692,13.086,24.557S231.6,178.5,231.6,178.5a6.73,6.73,0,0,1-7.506-3.966c5.984-6.595,14.515-20.591,14.515-20.591s-11.575-13.789-14.008-16.591-7.183-9.247.473-15.68Z" transform="translate(-167.795 -81.201)" fill="#fff"/>
    <path id="Path_3721" data-name="Path 3721" d="M282.537,112.49c1.084-2.121,4.1-4.808,3.424-5.546s-5.142,2.5-5.88,3.32c-4.4-1.626-7.909,1.752-7.909,1.752-.484,1.222,2.156,4.266,5.142,3.586.772-.357,4.462-1.6,5.234-3.113Z" transform="translate(-261.012 -83.249)" fill="#f0c6b4"/>
    <path id="Path_3722" data-name="Path 3722" d="M257.943,178.183s-1.856-5.649-8.8-10.423c-3.655,3.978-9.166,9.811-9.166,9.811l4.981,10.4L255.971,183l1.983-4.819Z" transform="translate(-195.858 -73.931)" fill="#367ec0"/>
    <path id="Path_3723" data-name="Path 3723" d="M248.462,177.26s-.565,6.226-7.932,7.263C246.813,181.157,248.462,177.26,248.462,177.26Z" transform="translate(-187 -72.478)" fill="#255fa6"/>
    <path id="Path_3724" data-name="Path 3724" d="M288.013,117.87s-2.191,14.585-7.263,17.086C285.027,128.027,288.013,117.87,288.013,117.87Z" transform="translate(-272.922 -81.561)" fill="#74b3d4"/>
  </g>
  <g id="Group_3468" data-name="Group 3468" transform="translate(57.586 134.778)">
    <path id="Path_3725" data-name="Path 3725" d="M185.99,261.368c-3.378,7.263,5.28,18.435,19.323,24.961s28.166,5.915,31.544-1.36-5.28-18.435-19.323-24.949S189.368,254.1,186,261.368Z" transform="translate(-169.984 -95.703)" opacity="0.3"/>
    <path id="Path_3726" data-name="Path 3726" d="M222.765,254.262c-2.329,3.171-11.795,7.655-12.475,8.174-1.222.911-1.2,3.62-.473,4.543s5.58.611,8.128-.138,5.88-2.975,7.817-3.551,4.22-.392,7.16-1.314c4.07-1.3.035-7.667.035-7.667s-9.327-1.626-10.192-.046Z" transform="translate(-194.872 -95.999)" fill="#fff"/>
    <path id="Path_3727" data-name="Path 3727" d="M226.358,264.786c1.326-17.248-3.182-26.483-5.177-30.714s-11.16-31.694-10.734-42.728c.865-2.675,4.969-5.211,7.068-5.984s9.062-.8,9.362-.127c2.041,6.249,3.92,43.512,4.911,46.244.98,2.709,3.736,4.4,4.923,10.065,1.222,5.788-1.43,13.9-.161,23.289a6.074,6.074,0,0,1-5.119,3.09,5,5,0,0,1-5.073-3.148Z" transform="translate(-198.465 -106.523)" fill="#255fa6"/>
    <path id="Path_3728" data-name="Path 3728" d="M198.994,266.82c2.364,3.989,1.833,5.084,1.222,9.154-.8,5.327-1.937,13.04-9.742,11.725-4.692-.8-.138-10.019.865-15.173a21.8,21.8,0,0,0,.092-4.323Z" transform="translate(-136.744 -93.972)" fill="#fff"/>
    <path id="Path_3729" data-name="Path 3729" d="M220.774,280.28c-.081-1.649-.231-3.044-.231-3.044-2.029-16.383-11.3-30.092-13.466-34.231s-14.481-27.5-17.04-44.146c-1.188-4.324,6.307-10.054,8.37-10.907s12.256,4.266,12.59,4.923c2.306,6.157,5.742,43.327,6.837,45.99s4.877,5.234,5.649,9.039c1.752,8.589.53,15.126,4.842,30.991,0,0,.1,2.721-3.7,3.171s-3.862-1.8-3.862-1.8Z" transform="translate(-166.087 -106.049)" fill="#367ec0"/>
    <path id="Path_3730" data-name="Path 3730" d="M231.4,153.392s-1.614,3.078-.15,5.407c2.975,4.727,12.163,17.836,12.163,17.836l2.5-4.623-2.1-13.178-10.9-5.453h-1.533Z" transform="translate(-230.64 -111.321)" fill="#f0c6b4"/>
    <path id="Path_3731" data-name="Path 3731" d="M225.934,154.729c2.156-2.214,5-4.8,6.376-6.572s5.119-10.757,11.99-6.572c6.422,3.908-4.785,12.671-4.785,12.671s-1.695.853-4.416,5.165c-3.355,5.292-12.613-1.13-9.166-4.681Z" transform="translate(-224.709 -113.293)" fill="#ff281b"/>
    <path id="Path_3732" data-name="Path 3732" d="M228.487,144.1l-4.058-6.952H215.4l-1.822,4.773,1.314,8.774,4.208,2.133,9.385-4.508Z" transform="translate(-193.539 -113.803)" fill="#c7a496"/>
    <path id="Path_3733" data-name="Path 3733" d="M241.263,151.515s-8.739-8.22-11.057-11.022c0,0,.184,3.47-.865,4.254a65.871,65.871,0,0,1-9.154,5.488s-1.176-5.845-.68-9.466c.311-.853-4.739-.945-4.9.738-2.029,9.177-11.875,19.127-9.638,25.872.772,2.329,3.6,4.312,3.6,4.312,1,7.436-.692,22.367-.692,22.367s.6,7.1,6.895,14.342a14.543,14.543,0,0,1,.922-5.384,26.432,26.432,0,0,1,1.4,6.007c8.439-2.928,11.7-9.662,15.288-10.515,3.712-.876,9.742,1.764,9.742,1.764a42.41,42.41,0,0,0-4.462-7.24l.646-17.813,2.963-23.727Z" transform="translate(-196.86 -113.341)" fill="#ff574d"/>
    <path id="Path_3734" data-name="Path 3734" d="M229.982,124.108c-4.162,11.195,1.706,17.248,1.706,17.248l3.539-3.8L232.61,124.3s-1.983-.761-2.629-.208Z" transform="translate(-217.469 -115.83)" fill="#35373a"/>
    <path id="Path_3735" data-name="Path 3735" d="M212.252,129.594a10.865,10.865,0,0,0,.4,3.009c-.911,2.364,1.049,11.541,1.384,12.555s2.905,1.948,4.554,1.833c3.124-.208,8.993-4.416,9.961-5.223s.7-3.436.7-3.436,1.891.473,3.724-1.879l1.015-1.13,1.556-6.26L222.1,121.65l-9.408,3.6-.438,4.358Z" transform="translate(-199.071 -116.174)" fill="#f0c6b4"/>
    <path id="Path_3736" data-name="Path 3736" d="M214.215,128.095c5.557-1.13,6.26,2.029,7.494,5.511a36.2,36.2,0,0,1,1.6,14.481s10.93.5,13.028-8.3-5.949-21.041-9.131-20.234c-3.413-6.918-16.706,1.407-18,5.615l1.049,1.43s2.11-.968,3.955,1.487Z" transform="translate(-196.699 -116.9)" fill="#35373a"/>
    <path id="Path_3737" data-name="Path 3737" d="M228.293,119.643c-.542-.473-9.742,5.58-9.742,5.58S229.112,120.358,228.293,119.643Z" transform="translate(-199.121 -116.485)" fill="#686b70"/>
    <path id="Path_3738" data-name="Path 3738" d="M225.151,173.676c-.692,4.7-1.326,9.166-1.533,10.8-.761,6.191-9.177,21.721-9.177,21.721s-.334,7.206-.911,7.863c-.922,1.015-3.8,1.891-5.027,1.487a5.038,5.038,0,0,1-2.905-2.444,9.577,9.577,0,0,1,0-4.058c.53-1.833,2.7-4.416,3.055-5.165,2.94-6.157,3.8-13.858,7.1-21.006.115-2.825.311-6.341.507-9.777l8.878.611Z" transform="translate(-180.748 -108.305)" fill="#f0c6b4"/>
    <path id="Path_3739" data-name="Path 3739" d="M202.813,176.625c.4-7.01.876-13.731.876-13.731s-1.487-12.509,6.226-13.051c7.506-.53,3.862,13.386,3.862,13.386s-1.084,7.252-2.075,14c0,0-.519,1.245-3.908,1.061-4.473-.254-4.969-1.66-4.969-1.66Z" transform="translate(-167.3 -111.864)" fill="#ff281b"/>
    <path id="Path_3740" data-name="Path 3740" d="M225.683,166.9c-.715,10.1-10.353,4.566-10.353,4.566S223.493,174.014,225.683,166.9Z" transform="translate(-192.753 -109.253)" fill="#ff281b"/>
    <path id="Path_3741" data-name="Path 3741" d="M232.388,148.9a37.4,37.4,0,0,1-2.721,5.845l-3.159,5.649a25.808,25.808,0,0,0-2.56,6,8.4,8.4,0,0,0-.219,3.309,5.605,5.605,0,0,0,1.51,3l-.069-.127a67.484,67.484,0,0,1,2.329,14.423c.2,2.444.3,4.888.357,7.333s.1,4.9.058,7.344A125.257,125.257,0,0,0,228,186.96c-.138-2.456-.369-4.9-.715-7.333a46.872,46.872,0,0,0-1.533-7.229l-.023-.069-.058-.046a4.94,4.94,0,0,1-1.372-2.686,7.786,7.786,0,0,1,.184-3.09,29.145,29.145,0,0,1,2.421-5.915c1.96-3.816,4.243-7.552,5.5-11.7Z" transform="translate(-209.061 -112.008)" fill="#ff281b"/>
    <path id="Path_3742" data-name="Path 3742" d="M236.18,180.263a8.889,8.889,0,0,0-1.038-3.447l.081-3.055a5.653,5.653,0,0,0-2.594,4.819c.012,2.248,1.061,5.28,2.052,5.476s1.453-2.387,1.5-3.8Z" transform="translate(-223.195 -108.204)" fill="#f0c6b4"/>
  </g>
</svg>
