<svg xmlns="http://www.w3.org/2000/svg" width="405.546" height="348.423" viewBox="0 0 405.546 348.423">
  <g id="レイヤー_1" data-name="レイヤー 1" transform="translate(-0.005)">
    <g id="縦組み_000000" data-name="縦組み #000000" transform="translate(0.005)">
      <g id="Group_3589" data-name="Group 3589" transform="translate(11.521 177.882)">
        <path id="Path_4278" data-name="Path 4278" d="M119.407,124.954c1.429,2.062-1.072,5.91,4.449,6.527,4.546.5,7.582-2.143,7.923-4.3.341-2.143.552-9.628-9.774-13.46s-28.755-7.29-61.666.585-46.4,22.39-50.057,28.527-6.024,13.622,3.686,23.1c9.693,9.482,35.444,16.5,52.655,21.286,17.194,4.79,24.631,9.628,24.55,13.4s-9.5,11.463-30.476,13.265-17.714-8.492-25.8-6.3-5.78,7.875.1,10.716,18.607,7.128,40.575,1.932c21.968-5.179,27.846-17.016,27.635-21.221-.195-4.221-3.588-10.2-13.46-14.012s-41.224-12.7-50.69-16.821-21.351-8.9-19.484-19.695S48.243,126.188,56.6,124.158c8.362-2.013,22.39-6.4,38.789-5.813s21.968,3.637,24.03,6.592Z" transform="translate(-7.101 -109.557)" fill="#fff"/>
        <path id="Path_4279" data-name="Path 4279" d="M203.532,192.545c8.264,2.159,18.493-1.039,22.439-2.679,3.945-1.624,13.005-7.1,14.207-8.313s.13-9.774-3.085-6.771-8.134,7.826-15.506,11.008a18.188,18.188,0,0,1-15,.211c-3.134-1.348-7.712-4.124-6.1-11.983.8-3.88-4.189-6.722-8.865-4.027s-8.833,10.1-17.178,13.184-22.812,5.943-27.683,1.218,2.322-15.993,8.037-19.906,7.615-4.968,13.557-6.982,13.541-.763,14.045,2.371c.1.6-.666,5.731,6.251,5.244,6.9-.487,6.1-6.186,5.569-7.923s-2.663-10.359-17.357-8.751c-16.448,1.818-26.9,9.969-34.47,18.834s-14.337,22.049.585,27.05,33.382-1.965,36.11-3.3a69.473,69.473,0,0,0,10.05-6.137c3.637,3.1,6.1,5.52,14.369,7.68Z" transform="translate(72.096 -85.428)" fill="#fff"/>
        <path id="Path_4280" data-name="Path 4280" d="M270.97,162.569c-3.491-12.1-31.564-17.893-54.019-1.348,0,0,.373-3.3,4.351-9.9,1.64-2.728,3.978-7.225-1.4-7.453s-8.41,3.182-11.56,10.619-10.31,31.856-14.321,58.175-2.63,46.371,5.439,46.047,7.745-3.881,7.144-5.407-3.54-7.1-1.575-33.642,5.7-33.122,5.7-33.122,11.3,17.081,34.145,10.895c10.749-2.906,20.149-8.41,25.28-19.257C272.578,173.057,272.48,167.8,270.97,162.569Zm-29.518,28.8c-21.416,4.79-29.4-11.041-27.846-14.158,2.224-4.433,11.284-12.112,21.5-15.149,14.678-4.384,28.885-.617,28.885,10.554C263.988,180.948,252.948,188.807,241.452,191.372Z" transform="translate(108.118 -88.168)" fill="#fff"/>
        <path id="Path_4281" data-name="Path 4281" d="M152.34,187.953c-10.927,2.143-12.486-8.459-20.913-16.5s-16.431-6.04-23.494-.99c-7.988,5.715-18.022,15.132-18.575,14.662-.877-.763-2.273-3.393-3.036-8.329-1.039-6.592,1.185-17.341,2.647-21.172,1.478-3.913.065-4.644-4.286-4.595s-5.959,3.8-7.631,11.219c-.763,3.393-4.709,19.549,2.435,27.2,10.115,10.814,15.944,1.445,27-7.794s13.525-4.871,17.016-1.916,10.278,13.639,19.029,14.386c7.988,1.1,15.2-2.143,18.607-3.54,3.945-1.624,13.005-7.1,14.207-8.313s.13-9.774-3.085-6.771-8.134,7.826-15.506,11.008a23.3,23.3,0,0,1-4.416,1.461h0Z" transform="translate(35.417 -83.693)" fill="#fff"/>
      </g>
      <g id="Group_3590" data-name="Group 3590" transform="translate(169.882 167.792)">
        <path id="Path_4282" data-name="Path 4282" d="M106.59,117.342c-.5,1.656-3.117,9.547,1.624,13.314s12.4,4.546,25.264-1.737-.893-3.458-.893-3.458a41.861,41.861,0,0,1-10.375,4.108c-4.838.958-8.719-1.656-9.417-4.887s.731-8.67,1.721-10.57.032-2.273-2.841-2.241-3.962,1.867-5.082,5.488Z" transform="translate(-104.147 -98.025)" fill="#fff"/>
        <path id="Path_4283" data-name="Path 4283" d="M129.342,124.46c-.682-3.231.8-8.492,1.754-10.359s.032-2.273-2.841-2.241-3.962,1.867-5.082,5.488c-.5,1.656-3.134,9.563,1.624,13.314,6.738,5.293,10.619.714,17.974-3.816s8.995-2.387,11.317-.942,6.771,6.722,12.583,7.1c5.829.357,11.934-.861,18.445-2.565,6.527-1.7,7.371-2.923,6.933-4.481s-2.435-1.25-5.309-.373a74.174,74.174,0,0,1-13.005,2.793c-7.274,1.055-8.784-2.565-14.386-6.495s-10.927-2.955-15.636-.487c-5.326,2.793-12,7.4-12.356,7.177-.585-.373-1.51-1.672-2.03-4.075Z" transform="translate(-93.809 -98.032)" fill="#fff"/>
        <path id="Path_4284" data-name="Path 4284" d="M111.414,109.687c-1.137.162-5.342.649-6.348-.422s-.1-2.306,1.2-3.1a6.467,6.467,0,0,1,3.653-.909,9.391,9.391,0,0,0,4.4-.585c1.737-.763,3.556-1.818,5.667-1.072s.325,3.134-1.137,3.783a34.656,34.656,0,0,1-7.42,2.306Z" transform="translate(-104.635 -103.343)" fill="#fff"/>
      </g>
      <g id="Group_3591" data-name="Group 3591">
        <path id="Path_4285" data-name="Path 4285" d="M.825,103.118c-2.565-6.965,1.1-11.739,8.07-13.4l10.456-2.387c6.43-1.461,9.726,1.283,13.574,7.16,3.848,5.683,10.083,8.622,18.9,8.622s15.051-2.939,15.051-9.174c0-3.117-1.656-7.16-10.83-10.1l-14.5-5.5c-6.235-2.013-37.425-10.278-37.8-37.62C3.747,15.96,24.676,0,52.749,0,72.574,0,86.5,7.891,94.769,22.569c3.848,6.608.731,12.112-6.43,14.126l-9.9,2.76c-6.235,1.835-9.726-.731-14.3-5.878-2.387-2.565-5.683-4.221-10.635-4.221-6.235,0-12.112,2.565-12.112,8.07,0,3.669,2.565,6.965,10.456,9.726l14.3,4.952c28.625,9.9,37.62,22.39,38.156,40.543,0,27.342-24.582,39.812-52.476,39.812C26.511,132.457,8.147,122,.808,103.1Z" transform="translate(-0.005)" fill="#fff"/>
        <path id="Path_4286" data-name="Path 4286" d="M74.076,118.679V12.248c0-7.16,3.848-11.008,11.008-11.008H101.6c7.16,0,11.008,3.848,11.008,11.008v84.4h46.6c7.16,0,11.008,3.848,11.008,11.008v11.008c0,7.16-3.848,11.008-11.008,11.008H85.068c-7.16,0-11.008-3.848-11.008-11.008Z" transform="translate(46.179 0.773)" fill="#fff"/>
        <path id="Path_4287" data-name="Path 4287" d="M145.6,118.679V12.248c0-7.16,3.848-11.008,11.008-11.008h16.513c7.16,0,11.008,3.848,11.008,11.008V118.662c0,7.16-3.848,11.008-11.008,11.008H156.608c-7.16,0-11.008-3.848-11.008-11.008Z" transform="translate(90.795 0.773)" fill="#fff"/>
        <path id="Path_4288" data-name="Path 4288" d="M291.359,46.929c0,24.582-16.139,43.481-45.868,43.481H221.639v28.251c0,7.16-3.848,11.008-11.008,11.008H194.118c-7.16,0-11.008-3.848-11.008-11.008V12.248c0-7.16,3.848-11.008,11.008-11.008h51.372C275.4,1.24,291.359,22.347,291.359,46.929Zm-38.529.373c0-6.787-4.774-13.022-11.382-13.022H221.623V59.789h19.825c6.608,0,11.382-6.235,11.382-12.47Z" transform="translate(114.188 0.773)" fill="#fff"/>
      </g>
    </g>
  </g>
</svg>
