<svg xmlns="http://www.w3.org/2000/svg" width="415.356" height="332.273" viewBox="0 0 415.356 332.273">
  <g id="Group_385" data-name="Group 385" transform="translate(-1021.077 -3315.782)">
    <g id="Group_4" data-name="Group 4" transform="translate(1944.859 2547.584)">
      <circle id="Ellipse_1" data-name="Ellipse 1" cx="92.718" cy="92.718" r="92.718" transform="translate(-693.861 768.198)" fill="#01abab"/>
      <g id="Ellipse_16" data-name="Ellipse 16" transform="translate(-688.313 773.746)" fill="#01abab" stroke="#fff" stroke-width="1">
        <circle cx="87.169" cy="87.169" r="87.169" stroke="none"/>
        <circle cx="87.169" cy="87.169" r="86.669" fill="none"/>
      </g>
      <path id="Path_734" data-name="Path 734" d="M10.594-9.1a.291.291,0,0,1,.125-.227A2.326,2.326,0,0,1,12.3-9.859a3.144,3.144,0,0,1,2.133.766A2.1,2.1,0,0,1,15.2-7.453q0,.734-.609.734a.89.89,0,0,1-.477-.141.835.835,0,0,0-.484-.211q-.3,0-.492.016a4.239,4.239,0,0,0-.609.109q-.375.078-.391.078-.125,0-.125-.078t.211-.211q.969-.672,1.063-.75a.31.31,0,0,0,.109-.211.362.362,0,0,0-.062-.219,1.892,1.892,0,0,0-1.7-.867,2.21,2.21,0,0,0-.672.1l-.156.055a.306.306,0,0,1-.1.023Q10.594-9.023,10.594-9.1ZM6.8-5.156a7.728,7.728,0,0,1,3.68-1.1,3.777,3.777,0,0,1,2.063.578A2.641,2.641,0,0,1,13.5-4.672a2.315,2.315,0,0,1,.3,1.133,2.375,2.375,0,0,1-1.039,2.016A3.348,3.348,0,0,1,10.734-.9,3.287,3.287,0,0,1,7.9-2.32a2.751,2.751,0,0,1-.477-.836q0-.078.094-.078a.274.274,0,0,1,.211.109,3.233,3.233,0,0,0,2.5,1.141,2.13,2.13,0,0,0,1.57-.531,1.913,1.913,0,0,0,.461-1.406,1.562,1.562,0,0,0-.766-1.453,2.535,2.535,0,0,0-1.281-.3,5.228,5.228,0,0,0-2.336.766q-.3.164-1.039.609.031.945.094,2.094.031.578.031.789A3.3,3.3,0,0,1,6.836-.4q-.3.75-.789.75-.406,0-.539-.531a2.874,2.874,0,0,0-.516-1.094,9.762,9.762,0,0,0-.93-.937,8.231,8.231,0,0,0-.734.688.852.852,0,0,1-.641.3,1.37,1.37,0,0,1-.7-.242,1.213,1.213,0,0,1-.7-1.055,1.083,1.083,0,0,1,.2-.617q.141-.211.234-.211t.133.125a1.431,1.431,0,0,0,.172.383.243.243,0,0,0,.18.07.829.829,0,0,0,.094-.008,7.715,7.715,0,0,0,1.664-.781q.531-.3,1.82-1.086,0-.508-.016-1.742Q5.75-7.258,5.742-7.7a14.314,14.314,0,0,1-1.727.2,1.855,1.855,0,0,1-1.5-.875,1.4,1.4,0,0,1-.352-.781q0-.211.109-.211.086,0,.3.273a1.489,1.489,0,0,0,1.219.57,10.17,10.17,0,0,0,1.961-.266v-1.734a2.536,2.536,0,0,0-.062-.766.383.383,0,0,0-.289-.367,1.332,1.332,0,0,0-.414-.078q-.367,0-.367-.133a.437.437,0,0,1,.258-.383,1.442,1.442,0,0,1,.7-.258,2,2,0,0,1,1.133.414q.687.5.688.883a.719.719,0,0,1-.141.43l-.117.133a1.174,1.174,0,0,0-.125.188,3.932,3.932,0,0,0-.172,1.281,4.238,4.238,0,0,0,1.1-.648,1.122,1.122,0,0,1,.766-.273,1.324,1.324,0,0,1,.758.18.41.41,0,0,1,.2.344.615.615,0,0,1-.086.352,1.425,1.425,0,0,1-.344.289A6.39,6.39,0,0,1,8.2-8.414a14.674,14.674,0,0,1-1.406.445Q6.789-6.016,6.8-5.156ZM5.8-3.648q-1.016.773-1.461,1.18.242.148.789.438a1.233,1.233,0,0,0,.531.172q.156,0,.156-.227Q5.813-3.141,5.8-3.648ZM29.039-4.4q-.594,0-1.234.031-.367.031-.477.031-.18,0-.18-.109,0-.086.141-.148,1.945-.766,1.945-1.117a2.461,2.461,0,0,0-.477-1.312,5.112,5.112,0,0,0-.852-1.016,4,4,0,0,0-.992-.617q-.289-.117-.289-.227,0-.156.242-.156l.109.016A4.59,4.59,0,0,1,29.57-7.7,4.483,4.483,0,0,1,30.633-6.25a3.834,3.834,0,0,1,.281,1.508.918.918,0,0,1-.258.7.69.69,0,0,1-.414.18h-.07a.775.775,0,0,1-.586-.258A.819.819,0,0,0,29.039-4.4ZM23.086-8.9a5.229,5.229,0,0,1,.836-.047,1.55,1.55,0,0,1,1.359.891,3.632,3.632,0,0,1,.461,1.891,10.652,10.652,0,0,1-.594,3.633A4.96,4.96,0,0,1,24.2-.82a2.446,2.446,0,0,1-1.562.961q-.812,0-.789-.719a1.475,1.475,0,0,0-.32-.852,9.889,9.889,0,0,0-.687-.859.392.392,0,0,1-.109-.2.11.11,0,0,1,.125-.125.381.381,0,0,1,.211.094,9.029,9.029,0,0,0,1.086.625,1.656,1.656,0,0,0,.609.172.734.734,0,0,0,.609-.289,5.814,5.814,0,0,0,.836-1.82,8.677,8.677,0,0,0,.383-2.539,3.631,3.631,0,0,0-.234-1.6.752.752,0,0,0-.711-.352,3.421,3.421,0,0,0-.836.125q-.242.523-.75,1.609Q21-4.32,20.563-3.422,19.672-1.6,18.977-.445a.755.755,0,0,1-.7.352A.593.593,0,0,1,17.828-.3a.634.634,0,0,1-.164-.43,1.648,1.648,0,0,1,.3-.867A54.577,54.577,0,0,0,21.5-7.773q-1.117.43-1.742.7a4.983,4.983,0,0,0-.461.227.578.578,0,0,1-.414.141,1.39,1.39,0,0,1-.9-.43,2.066,2.066,0,0,1-.445-.57,1.142,1.142,0,0,1-.164-.516q0-.578.242-.578.086,0,.2.18.437.555.82.555a7.46,7.46,0,0,0,1.375-.2q.062-.008,1.852-.445a9.162,9.162,0,0,0,.758-2.562.491.491,0,0,0-.242-.461A4.612,4.612,0,0,0,21.758-12q-.242-.094-.242-.164,0-.2.273-.289a2.5,2.5,0,0,1,.781-.125,1.971,1.971,0,0,1,.93.3,2.669,2.669,0,0,1,.758.617.7.7,0,0,1,.141.445.631.631,0,0,1-.367.516,1.089,1.089,0,0,0-.336.492q-.078.188-.289.633T23.086-8.9ZM44.43-12.516a3.483,3.483,0,0,1,1.313.594,1.209,1.209,0,0,1,.563.93q0,.563-.484.563a.607.607,0,0,1-.539-.367,6.707,6.707,0,0,0-1.008-1.414q-.18-.18-.18-.211a.094.094,0,0,1,.078-.094.524.524,0,0,1,.141-.016A.3.3,0,0,1,44.43-12.516Zm1.2-.969a3.509,3.509,0,0,1,1.484.523,1.012,1.012,0,0,1,.563.813q0,.563-.5.563a.62.62,0,0,1-.539-.352A4.464,4.464,0,0,0,45.523-13.2q-.2-.141-.2-.187a.1.1,0,0,1,.047-.1.315.315,0,0,1,.125-.023A.641.641,0,0,1,45.633-13.484ZM43.555-8.9a3.264,3.264,0,0,0,.8-.242,1.129,1.129,0,0,1,.523-.109,2.678,2.678,0,0,1,.391.031q.781.117.781.773,0,.375-.531.445-.109.016-.906.047-.523.023-1.055.094.016.914.016,2.578a6.7,6.7,0,0,1-.945,3.813A6.067,6.067,0,0,1,39.008.8,2.379,2.379,0,0,1,38.453.9q-.2,0-.2-.141,0-.086.289-.211a6.425,6.425,0,0,0,1.93-1.234,5.091,5.091,0,0,0,1.086-1.359,7.8,7.8,0,0,0,.719-3.727l.008-1.32v-.539l-.8.117-.469.078q-1.023.156-1.117.156a2.268,2.268,0,0,1-1.555-.7q-.3-.281-.3-.437,0-.125.109-.125a.622.622,0,0,1,.211.078,3.432,3.432,0,0,0,1.359.211,23.238,23.238,0,0,0,2.563-.352q0-.508-.031-1.883a2,2,0,0,0-.148-.8.825.825,0,0,0-.43-.273,4.633,4.633,0,0,0-.523-.125q-.164-.023-.164-.125,0-.125.242-.3a1.336,1.336,0,0,1,.8-.258,2.071,2.071,0,0,1,1.055.367q.852.516.852.961a.578.578,0,0,1-.164.4.774.774,0,0,0-.156.43Q43.555-9.5,43.555-8.9ZM35.6-3.219a.182.182,0,0,0,.156.117q.117,0,.2-.18.359-.8,1.117-2.7.094-.227.2-.227.078,0,.078.141a6.451,6.451,0,0,1-.141.789q-.086.367-.227,1-.117.547-.187.891a7.044,7.044,0,0,0-.211,1.219,3.467,3.467,0,0,0,.047.555,3.323,3.323,0,0,1,.047.469q0,.672-.5.672t-1.023-.781a5.881,5.881,0,0,1-.8-3.281,24.046,24.046,0,0,1,.32-3.539q.07-.414.133-.789.063-.32.078-.414a6.578,6.578,0,0,0,.125-1.133,1.949,1.949,0,0,0-.484-1.187.716.716,0,0,1-.125-.219q0-.164.211-.164a1.513,1.513,0,0,1,.789.328,3.526,3.526,0,0,1,.648.586,1.952,1.952,0,0,1,.563,1.2,1.022,1.022,0,0,1-.258.641A2.216,2.216,0,0,0,36-8.594a13.692,13.692,0,0,0-.687,3.586A4.425,4.425,0,0,0,35.6-3.219ZM56.484-9.391a12.528,12.528,0,0,0,1.266-.469,2.245,2.245,0,0,0,.648-.383,1.355,1.355,0,0,1,.914-.289q.93,0,.93.656,0,.391-.867.7-1.555.563-2.508.867a17.451,17.451,0,0,0,1.281,2.367,4.268,4.268,0,0,0,.914.992,1.52,1.52,0,0,1,.4,1.219q0,.766-.594.766-.344,0-.875-.578a3.886,3.886,0,0,0-1.609-.891A5.146,5.146,0,0,0,54.82-4.7a3.4,3.4,0,0,0-2.109.547,1.481,1.481,0,0,0-.641,1.18,1.612,1.612,0,0,0,1.172,1.492,8.046,8.046,0,0,0,2.844.4,3.15,3.15,0,0,0,.43-.031,1.452,1.452,0,0,1,.352-.039,2.043,2.043,0,0,1,1.125.3.812.812,0,0,1,.461.672q0,.758-1.453.758a8.794,8.794,0,0,1-4.242-.852,3.326,3.326,0,0,1-1.211-1.086,2.346,2.346,0,0,1-.406-1.312,2.183,2.183,0,0,1,.508-1.414,2.887,2.887,0,0,1,1.047-.8,5.388,5.388,0,0,1,2.328-.477,14.977,14.977,0,0,1,2.3.188,22.736,22.736,0,0,1-1.422-2.859,11.751,11.751,0,0,1-2.828.414,3.693,3.693,0,0,1-1.445-.227,3.548,3.548,0,0,1-1.258-1.039.582.582,0,0,1-.18-.3q0-.141.125-.141a2.522,2.522,0,0,1,.336.211,3.23,3.23,0,0,0,1.813.492,13.2,13.2,0,0,0,3.039-.461q-.063-.2-.2-.617-.3-.93-.5-1.508a.8.8,0,0,0-.414-.531,1.524,1.524,0,0,0-.469-.078h-.3q-.109,0-.109-.125a.7.7,0,0,1,.258-.437.957.957,0,0,1,.75-.3,2.33,2.33,0,0,1,1.453.477.691.691,0,0,1,.32.531.828.828,0,0,1-.078.289,1.511,1.511,0,0,0-.047.461A6.215,6.215,0,0,0,56.484-9.391ZM68.852-8.336q-.539.031-1.2.031a2.184,2.184,0,0,1-2.117-1.281.622.622,0,0,1-.078-.211.124.124,0,0,1,.141-.141q.055,0,.148.094a2.655,2.655,0,0,0,1.984.578,24.573,24.573,0,0,0,3.281-.367V-11.2q0-.656-.148-.8a.958.958,0,0,0-.445-.2,3.515,3.515,0,0,0-.375-.062q-.094,0-.094-.109t.2-.3a.861.861,0,0,1,.641-.273,2.46,2.46,0,0,1,1.234.4q.688.406.688.82a.647.647,0,0,1-.227.445,1,1,0,0,0-.3.609q-.008.133-.047.5-.023.227-.031.375.758-.117,1.57-.289a3.783,3.783,0,0,0,.906-.289,1.587,1.587,0,0,1,.789-.156,1.315,1.315,0,0,1,.836.289.7.7,0,0,1,.313.531.5.5,0,0,1-.242.492,2.75,2.75,0,0,1-.812.164q-2.125.188-3.406.367-.016.555-.016,1.172t.016,1.227a7.336,7.336,0,0,0,1.383-.336q.164-.07.164-.187a1.089,1.089,0,0,0-.1-.328,4.582,4.582,0,0,0-.352-.609.194.194,0,0,1-.023-.086.062.062,0,0,1,.07-.07.214.214,0,0,1,.125.055,10.249,10.249,0,0,0,.875.586.968.968,0,0,0,.477.148h.117q.75,0,.75.578a.487.487,0,0,1-.273.406,3.536,3.536,0,0,1-.586.266,12.608,12.608,0,0,1-2.594.648q.008.508.156,2.484a12.006,12.006,0,0,1,3.234,1.406q.961.57.961,1.266a.738.738,0,0,1-.187.508.541.541,0,0,1-.422.2.91.91,0,0,1-.594-.258,10.4,10.4,0,0,0-2.875-1.937v.211q0,2.172-2.5,2.172A3.38,3.38,0,0,1,67.828.281a1.675,1.675,0,0,1-.766-1.391,1.555,1.555,0,0,1,.8-1.281,3.8,3.8,0,0,1,1.523-.477,5.446,5.446,0,0,1,.8-.047q.391,0,.914.031,0-1.172-.047-2.2-.414.031-1.3.031-2.289,0-2.289-1.328a2.024,2.024,0,0,1,.609-1.328A6.024,6.024,0,0,1,68.852-8.336Zm.656.016a2.946,2.946,0,0,0-.914.672,1.48,1.48,0,0,0-.445.883q0,.7,1.281.7a14.575,14.575,0,0,0,1.6-.1q0-1.516-.016-2.367-.313.039-.781.109Zm1.6,6.4a6.441,6.441,0,0,0-1.477-.2q-.187,0-.359.016a3.151,3.151,0,0,0-1.234.3.775.775,0,0,0-.4.656.781.781,0,0,0,.508.719,3.121,3.121,0,0,0,1.375.211,1.708,1.708,0,0,0,1.328-.445A2.092,2.092,0,0,0,71.109-1.922ZM91.367-7.891a3.018,3.018,0,0,1,1.32.563,1.259,1.259,0,0,1,.594.953.573.573,0,0,1-.148.4.484.484,0,0,1-.375.164.612.612,0,0,1-.547-.367,6.681,6.681,0,0,0-1-1.406q-.18-.18-.18-.211a.094.094,0,0,1,.078-.094.439.439,0,0,1,.133-.016A.363.363,0,0,1,91.367-7.891Zm1.3-.977a3.573,3.573,0,0,1,1.516.5,1.026,1.026,0,0,1,.578.813.629.629,0,0,1-.164.453.45.45,0,0,1-.328.141.659.659,0,0,1-.594-.352,4.363,4.363,0,0,0-1.117-1.25q-.2-.148-.2-.2a.1.1,0,0,1,.047-.1.281.281,0,0,1,.125-.023A.938.938,0,0,1,92.664-8.867Zm-4.336-.594v-.078a36.85,36.85,0,0,0-4.656,1.484,2.68,2.68,0,0,0-.609.375.7.7,0,0,1-.469.172q-.492.023-1.211-.781a2.022,2.022,0,0,1-.594-1.156q0-.492.156-.492a.343.343,0,0,1,.258.156,3.385,3.385,0,0,0,.609.531.945.945,0,0,0,.453.094h.109a20.1,20.1,0,0,0,2.672-.531q2.594-.6,4.859-1.258a4.917,4.917,0,0,0,.883-.3,1.592,1.592,0,0,1,.609-.141,3.785,3.785,0,0,1,1.477.258q.508.242.508.625,0,.555-.594.57-.086.008-.633.023-.453.016-.945.063a5.377,5.377,0,0,0-3.672,1.727,4.5,4.5,0,0,0-1.148,3.1,2.7,2.7,0,0,0,1.172,2.383,5.133,5.133,0,0,0,2.555.836,3.45,3.45,0,0,1,1.234.219.932.932,0,0,1,.625.82q0,.766-1.039.766a7.24,7.24,0,0,1-3.109-.75,4.107,4.107,0,0,1-1.672-1.469,3.9,3.9,0,0,1-.68-2.211A5.8,5.8,0,0,1,86.1-7.117,6.865,6.865,0,0,1,88.328-9.461Z" transform="translate(-654.374 819.593)" fill="#fff"/>
      <path id="Path_733" data-name="Path 733" d="M7.595-7.978v1.791H8.928q.595-.7.766-.7a2.48,2.48,0,0,1,.772.492q.321.28.321.4,0,.137-.185.137H4.416a2.825,2.825,0,0,0-.6.082L3.664-6.3a2.548,2.548,0,0,0,.711.109H6.351V-7.978H4.881a2.753,2.753,0,0,0-.6.082l-.157-.513A2.569,2.569,0,0,0,4.84-8.3H6.351v-.588q0-.314-.068-1.107,1.7.15,1.7.41,0,.178-.39.362V-8.3h.882q.554-.656.725-.656a2.247,2.247,0,0,1,.731.458q.308.246.308.383t-.178.137Zm.7,6.453H5.578v.451a.448.448,0,0,1-.191.417,1.012,1.012,0,0,1-.506.1.683.683,0,0,1-.437-.1.513.513,0,0,1-.1-.369L4.4-3.7q0-.711-.041-1.422a7.987,7.987,0,0,1,1.285.684H8.224q.479-.547.629-.547a1.969,1.969,0,0,1,.7.438q.28.239.28.376,0,.1-.321.39v.4L9.55-1.4q0,.506-.738.506-.52,0-.52-.417Zm0-.321v-2.27H5.578v2.27Zm4.553-8.613q0,.164-.362.417v1.586l.041,8a1.863,1.863,0,0,1-.116.766A1.182,1.182,0,0,1,12.031.7a1.9,1.9,0,0,1-1.094.321q-.178,0-.226-.075a1.241,1.241,0,0,1-.1-.3A.969.969,0,0,0,10.2.014,4.687,4.687,0,0,0,9.037-.41q-.055-.007-.055-.082t.055-.082q.916.068,1.818.068.157,0,.2-.055a.3.3,0,0,0,.041-.185v-9.632H3.254v.656q0,2.967-.082,4.471a17.029,17.029,0,0,1-.335,2.707,6.592,6.592,0,0,1-.875,2.16A8.341,8.341,0,0,1,.643,1.135a.046.046,0,0,1-.034.014q-.109,0-.109-.1a.028.028,0,0,1,.007-.021A10.188,10.188,0,0,0,1.716-2.81a44.067,44.067,0,0,0,.212-5.045q0-2.03-.1-3.644.841.424,1.559.8h7.54q.656-.67.8-.67a2.54,2.54,0,0,1,.8.506Q12.845-10.6,12.845-10.459Zm9.276,7.212h2.55q.861-1.039,1.032-1.039a4,4,0,0,1,1.025.718q.444.369.444.5T27-2.926H22.121q.007.69.027,2.188.014.964.014,1.271,0,.6-.841.6-.615,0-.615-.492l.055-3.568H15.832a8.453,8.453,0,0,0-1.039.082l-.15-.513a6.584,6.584,0,0,0,1.148.109h1.23V-5.168q0-1.169-.055-2.1a13.463,13.463,0,0,1,1.47.67h2.324V-9.174H18.17A9.734,9.734,0,0,1,15.019-6.1a.04.04,0,0,1-.027.007q-.123,0-.123-.1a.046.046,0,0,1,.014-.034,10.028,10.028,0,0,0,1.436-1.941,12.884,12.884,0,0,0,.984-2.064,7.36,7.36,0,0,0,.451-1.613,12.779,12.779,0,0,1,1.538.52q.321.157.321.321,0,.232-.6.308-.308.643-.643,1.2h5.94q.82-.964.991-.964a3.933,3.933,0,0,1,.991.67q.437.355.438.479t-.185.137H22.107V-6.6h1.654q.786-.9.937-.9a3.274,3.274,0,0,1,.957.615q.4.321.4.465t-.212.137H22.107v.506Q22.107-4.088,22.121-3.247Zm-1.36,0V-6.275h-2.42v3.028Z" transform="translate(-566.591 901.375)" fill="#fff"/>
      <path id="Path_732" data-name="Path 732" d="M27.421-65Q28.807-65,28.807-64q-.042,2.31-.21,10.078-.126,5.165-.126,8.944v26.917q0,6.719.168,8.524a8.331,8.331,0,0,0,.8,2.9q.588,1.26,2.855,1.722.84.168,4.451.546.756.084.756,1.26,0,1.218-.756,1.218-6-.252-12.724-.252-6.971,0-13.06.252-.882,0-.882-1.218,0-1.176.882-1.26a36.249,36.249,0,0,0,4.913-.588,3.131,3.131,0,0,0,2.352-1.68q.882-1.806.882-11.422v-30.78q0-5.417-.882-6.593-.462-.8-2.016-.8a11.292,11.292,0,0,0-3.023.5L9.826-54.8a2.955,2.955,0,0,1-.63.126q-.63,0-.882-1.05a4.038,4.038,0,0,1-.126-.756q0-.5.924-.8Q17.763-60.427,27.421-65Zm39.977.42q9.532,0,14.7,9.784Q86.5-46.359,86.5-32.586q0,15.957-5.753,24.607Q75.712-.336,67.4-.336q-9.826,0-14.865-9.532-4.367-8.23-4.367-22.214,0-16.209,5.711-24.9Q58.915-64.584,67.4-64.584Zm0,2.646q-5.5,0-7.6,9.112-1.554,6.8-1.554,20.492,0,15.621,2.1,22.382Q62.526-2.981,67.4-2.981q5.375,0,7.475-9.028,1.554-6.8,1.554-20.324,0-15.747-2.058-22.55Q72.227-61.938,67.4-61.938Z" transform="translate(-657.487 906.005)" fill="#fff"/>
    </g>
    <g id="Asset_3" data-name="Asset 3" transform="translate(1021.4 3362.436)">
      <g id="Layer_3" data-name="Layer 3" transform="translate(0.39 1.136)">
        <path id="Path_548" data-name="Path 548" d="M105.2,322.572c-.031-.732-9.5,15.833-14.615,22.654s-8.039,10.475-14.86,7.307-13.156-5.358-15.1-8.039-20.95-31.179-20.95-31.179a78.847,78.847,0,0,1,8.771-5.358A49.745,49.745,0,0,0,58.67,300.65s14.374,20.464,16.564,21.682,5.844-2.922,7.793-9.011,4.872-20.95,8.039-24.844,1.95-4.385,8.28-8.039S116.4,274.1,116.4,274.1l8.039-2.922h30.447s14.129,3.654,19.972,6.335,6.821,6.335,9.257,12.425,3.654,16.81,4.872,27.28,10.229,47.744,11.693,52.369,5.117,10.715,5.117,11.447-14.615,9.011-19.972,9.5-5.844-2.19-5.844-1.464a53.066,53.066,0,0,0,.862,6.779c.277,2.086.779,4.255.847,6.356.052,1.547.084,3.6.084,3.6H96.362s2.42-15.326,3.225-20.882c1.626-11.181,3.1-22.393,4.208-33.641.941-9.508,1.8-19.157,1.4-28.722Z" transform="translate(-19.138 -130.093)" fill="#fff"/>
        <path id="Path_549" data-name="Path 549" d="M125.333,133.577s-10.715.732-17.782-2.19-16.564-9.743-19.972-16.319-6.335-14.374-3.654-24.117S93.182,51,98.539,41.5s20.213-30.453,33.615-35.57S166.741.576,175.512,2.039s21.922,9.5,33.129,22.9,19,37.023,21.922,49.934,4.14,23.386,3.408,28.743-4.14,15.592-7.553,20.464-9.989,7.307-15.1,8.525-21.19,2.19-21.19,2.19l-64.794-1.218Z" transform="translate(-39.761 -1.261)" fill="#7fd5d5"/>
        <path id="Path_550" data-name="Path 550" d="M130.811,126.232v10.229s-9.5,1.95-8.28,10.715,11.693,12.665,11.693,12.665,1.7,6.821,3.408,9.5,4.626,6.089,6.089,6.335,20.7,8.28,20.7,8.28,13.9,52.38,14.38,52.009,13.386-51.523,13.386-51.523a101.386,101.386,0,0,1,13.156-5.358c6.335-1.95,10.715-5.117,13.156-9.743a49.742,49.742,0,0,0,3.408-7.793s9.743-3.654,12.665-10.475-9.257-14.374-9.257-14.374l.972-8.771-10.715-1.7S180.5,135.233,163.449,94.07c0,0-6.288,29.606-32.643,32.151Z" transform="translate(-58.637 -45.559)" fill="#fff"/>
        <path id="Path_551" data-name="Path 551" d="M215.143,305.66h17.14L223.8,335.489Z" transform="translate(-104.215 -146.55)" fill="#01abab"/>
        <ellipse id="Ellipse_49" data-name="Ellipse 49" cx="10.475" cy="5.969" rx="10.475" ry="5.969" transform="translate(140.622 104.059)" fill="#f1fbfc"/>
        <ellipse id="Ellipse_50" data-name="Ellipse 50" cx="10.475" cy="5.969" rx="10.475" ry="5.969" transform="translate(80.987 104.059)" fill="#f1fbfc"/>
        <path id="Path_552" data-name="Path 552" d="M310.956,503.531a32.166,32.166,0,0,0,1.62,6.283,2.091,2.091,0,0,0,.795,1.176c.768.434,1.767-.251,2.033-1.092a6.353,6.353,0,0,0-.042-2.624,2.818,2.818,0,0,1,.632-2.462,2.249,2.249,0,0,1,3,.423,6.545,6.545,0,0,1,1.281,3.063c.261,1.145.523,2.295.779,3.439-1.939,1.03-4.919-.993-6.283.727a2.331,2.331,0,0,0,.125,2.718,6.915,6.915,0,0,0,2.274,1.8c1.014.591,2.028,1.176,3.042,1.767a7.71,7.71,0,0,0,3.283,1.281c1.934.12,3.643-1.218,4.966-2.634a14.778,14.778,0,0,0,4.119-7.814c.612-4.359-1.511-8.588-3.57-12.477a1.724,1.724,0,0,0-.711-.836,1.781,1.781,0,0,0-.967-.052c-5.1.7-17.709-.575-16.381,7.318Z" transform="translate(-148.574 -237.482)" fill="#fff"/>
        <path id="Path_553" data-name="Path 553" d="M14.712,311.687c-4.673-3.1-11.28-3.664-14.322-8.379a4.713,4.713,0,0,1,2.546-1.9,7.041,7.041,0,0,1-1.521-3.983c.073-1.443,1.516-2.88,2.87-2.378-.146-1.647-.3-3.288-.444-4.934,1.678.042,3.351.078,5.028.12-1.134-2.347,1.61-5.065,4.213-4.934s4.746,2.018,6.6,3.847,3.842,3.81,6.414,4.234a5.284,5.284,0,0,1,1.317-6.163c2.049,1.338,4.192,2.786,5.258,4.987a13.665,13.665,0,0,1,1.014,4.067q.972,6.884,1.95,13.763c-.141-.983-10.783,6.011-11.552,6.6-4.286,3.309-5.755-2.546-9.377-4.945Z" transform="translate(-0.39 -136.828)" fill="#fff"/>
      </g>
      <g id="Layer_2" data-name="Layer 2" transform="translate(0.711 1)">
        <path id="Path_554" data-name="Path 554" d="M138.8,158.72l4.647,34.624a20.514,20.514,0,0,0,14.7,17l20,5.7a28.8,28.8,0,0,0,15.807,0l20.2-5.76a20.524,20.524,0,0,0,14.672-16.732l5.034-34.1" transform="translate(-66.774 -76.279)" fill="none" stroke="#01abab" stroke-linecap="round" stroke-linejoin="round" stroke-width="2"/>
        <path id="Path_555" data-name="Path 555" d="M204.35,223.76h27.86s-4.02,9.68-13.93,9.68S204.35,223.76,204.35,223.76Z" transform="translate(-98.061 -107.323)" fill="none" stroke="#01abab" stroke-linecap="round" stroke-linejoin="round" stroke-width="2"/>
        <path id="Path_556" data-name="Path 556" d="M230.136,200.51s-2.467,2.284-1.918,4.2" transform="translate(-109.415 -96.226)" fill="none" stroke="#01abab" stroke-linecap="round" stroke-linejoin="round" stroke-width="2"/>
        <ellipse id="Ellipse_51" data-name="Ellipse 51" cx="5.572" cy="8.541" rx="5.572" ry="8.541" transform="translate(140.359 85.012)" fill="#01abab"/>
        <ellipse id="Ellipse_52" data-name="Ellipse 52" cx="5.572" cy="8.541" rx="5.572" ry="8.541" transform="translate(89.066 85.012)" fill="#01abab"/>
        <path id="Path_557" data-name="Path 557" d="M287.71,168.855a5.879,5.879,0,0,0,1.678-1.139,2.245,2.245,0,0,0,.659-1.856" transform="translate(-137.849 -79.687)" fill="none" stroke="#01abab" stroke-linecap="round" stroke-linejoin="round" stroke-width="2"/>
        <path id="Path_558" data-name="Path 558" d="M289.79,174.871a3.861,3.861,0,0,0,2.844-2.321" transform="translate(-138.842 -82.88)" fill="none" stroke="#01abab" stroke-linecap="round" stroke-linejoin="round" stroke-width="2"/>
        <path id="Path_559" data-name="Path 559" d="M169.528,165.29a1.574,1.574,0,0,0,.5,1.913c.538.481,1.228.753,1.767,1.223" transform="translate(-81.361 -79.415)" fill="none" stroke="#01abab" stroke-linecap="round" stroke-linejoin="round" stroke-width="2"/>
        <path id="Path_560" data-name="Path 560" d="M166.16,172.23a5.474,5.474,0,0,0,.972,1.265,6.014,6.014,0,0,0,2.289,1.082" transform="translate(-79.833 -82.728)" fill="none" stroke="#01abab" stroke-linecap="round" stroke-linejoin="round" stroke-width="2"/>
        <path id="Path_561" data-name="Path 561" d="M198.99,59.31s-3.925,39.187,31.148,50.514" transform="translate(-95.44 -28.831)" fill="none" stroke="#01abab" stroke-linecap="round" stroke-linejoin="round" stroke-width="2"/>
        <path id="Path_562" data-name="Path 562" d="M239.65,80.11s4.934,34.132,42.752,41.09" transform="translate(-114.91 -38.759)" fill="none" stroke="#01abab" stroke-linecap="round" stroke-linejoin="round" stroke-width="2"/>
        <path id="Path_563" data-name="Path 563" d="M270.41,130.65a16.592,16.592,0,0,1,13.977.915" transform="translate(-129.591 -62.354)" fill="none" stroke="#01abab" stroke-linecap="round" stroke-linejoin="round" stroke-width="2"/>
        <path id="Path_564" data-name="Path 564" d="M166.16,130.905s6.628-4.291,14.939.455" transform="translate(-79.833 -62.154)" fill="none" stroke="#01abab" stroke-linecap="round" stroke-linejoin="round" stroke-width="2"/>
        <path id="Path_565" data-name="Path 565" d="M167.7,95.13c-.324.272-2.608,26.673-34.122,31.791" transform="translate(-64.283 -45.928)" fill="none" stroke="#01abab" stroke-linecap="round" stroke-linejoin="round" stroke-width="2"/>
        <path id="Path_566" data-name="Path 566" d="M146.183,95.83a61.524,61.524,0,0,1-22.743,29.6" transform="translate(-59.443 -46.262)" fill="none" stroke="#01abab" stroke-linecap="round" stroke-linejoin="round" stroke-width="2"/>
        <path id="Path_567" data-name="Path 567" d="M125.656,134.059s-12.79-2.284-18.085-3.565-15.435-9.288-18.906-17.845-3.471-17.782-1.735-27.1S93.05,59.7,94.968,54.676s6.393-16.627,13.611-26.219S131.134-2.6,164.749,1.517c0,0,13.977-.366,24.117,3.654s19.732,13.7,25.853,22.743,9.226,11.416,16.35,45.4,4.108,37.452.915,45.214-12.451,15.252-38.288,17.171" transform="translate(-41.472 -1)" fill="none" stroke="#01abab" stroke-linecap="round" stroke-linejoin="round" stroke-width="2"/>
        <path id="Path_568" data-name="Path 568" d="M130.383,176.72s-9.4,2.844-9.215,10.245,6.393,11.6,12.561,15.069" transform="translate(-58.357 -84.871)" fill="none" stroke="#01abab" stroke-linecap="round" stroke-linejoin="round" stroke-width="2"/>
        <path id="Path_569" data-name="Path 569" d="M317.038,178.67s7.339.272,7.976,9.957S313.05,202.97,313.05,202.97" transform="translate(-149.943 -85.801)" fill="none" stroke="#01abab" stroke-linecap="round" stroke-linejoin="round" stroke-width="2"/>
        <path id="Path_570" data-name="Path 570" d="M203.009,268.538c-.12.366,14.134,50.185,14.134,50.185L230.78,267.44" transform="translate(-97.421 -128.171)" fill="none" stroke="#01abab" stroke-linecap="round" stroke-linejoin="round" stroke-width="2"/>
        <path id="Path_571" data-name="Path 571" d="M184.407,268.38s-4.548.612-11.316,10.109l9.67,8.039-3.408,6.455S188,309.914,196.4,316.735" transform="translate(-83.141 -128.62)" fill="none" stroke="#01abab" stroke-linecap="round" stroke-linejoin="round" stroke-width="2"/>
        <path id="Path_572" data-name="Path 572" d="M253.544,266.05s9.011,5.358,13.094,12.059l-9.5,6.21s4.082,8.646,3.716,8.646-10.961,16.319-17.3,22.654" transform="translate(-116.776 -127.508)" fill="none" stroke="#01abab" stroke-linecap="round" stroke-linejoin="round" stroke-width="2"/>
        <line id="Line_37" data-name="Line 37" x2="14.003" transform="translate(112.776 159.612)" fill="none" stroke="#01abab" stroke-linecap="round" stroke-linejoin="round" stroke-width="2"/>
        <path id="Path_573" data-name="Path 573" d="M276.17,272.34s11.081,5.117,17.171,9.623c0,0,5.055,9.989,6.487,16.319s5.452,35.931,8.128,49.327,12.059,34.467,12.059,34.467-11.693,11.327-27.891,8.771" transform="translate(-132.341 -130.51)" fill="none" stroke="#01abab" stroke-linecap="round" stroke-linejoin="round" stroke-width="2"/>
        <path id="Path_574" data-name="Path 574" d="M315.09,519.174a21.142,21.142,0,0,0,2.19-1.338,2.588,2.588,0,0,0,1.218-3.047c-.486-1.829.12-5.969.12-5.969s.246-1.1,1.829,1.1c.847,1.176,1.662,2.525,2.237,3.528a2.983,2.983,0,0,1,.037,2.9l-.936,1.735-2.5-1.218" transform="translate(-150.917 -243.25)" fill="none" stroke="#01abab" stroke-linecap="round" stroke-linejoin="round" stroke-width="2"/>
        <path id="Path_575" data-name="Path 575" d="M318.12,515.554l6.089,4.15a3.949,3.949,0,0,0,4.046.246l3.539-1.829a3.957,3.957,0,0,0,1.934-2.263l1.939-5.812a3.91,3.91,0,0,0,.094-2.164l-3.032-12.79" transform="translate(-152.363 -236.828)" fill="none" stroke="#01abab" stroke-linecap="round" stroke-linejoin="round" stroke-width="2"/>
        <circle id="Ellipse_53" data-name="Ellipse 53" cx="4.385" cy="4.385" r="4.385" transform="translate(115.332 205.04)" fill="none" stroke="#01abab" stroke-linecap="round" stroke-linejoin="round" stroke-width="2"/>
        <circle id="Ellipse_54" data-name="Ellipse 54" cx="4.385" cy="4.385" r="4.385" transform="translate(115.332 230.621)" fill="none" stroke="#01abab" stroke-linecap="round" stroke-linejoin="round" stroke-width="2"/>
        <path id="Path_576" data-name="Path 576" d="M303.266,435.944c-2.488-17.113-5.933-45.25-6.252-52.432-.486-10.961-1.95-40.556-1.218-48.961" transform="translate(-141.612 -160.203)" fill="none" stroke="#01abab" stroke-linecap="round" stroke-linejoin="round" stroke-width="2"/>
        <path id="Path_577" data-name="Path 577" d="M156.848,332.45c0,.366-.366,22.774-.852,43.358-.329,13.987-4.934,42.417-7.856,59.248" transform="translate(-71.232 -159.2)" fill="none" stroke="#01abab" stroke-linecap="round" stroke-linejoin="round" stroke-width="2"/>
        <path id="Path_578" data-name="Path 578" d="M109.451,278.4s-9.937,5.117-13.47,7.553-5.53,4.992-7.882,13.031-3.936,14.615-5.64,19.852S75.4,328.945,75.4,328.945L56.031,304.221s-4.626,5.237-8.645,7.307-8.645,5.117-8.645,5.117S57.254,344.783,61.148,348.8s10.6,6.576,13.763,8.159,6.576,2.07,10.841-2.436A85.584,85.584,0,0,0,104.3,325.292" transform="translate(-19.016 -133.402)" fill="none" stroke="#01abab" stroke-linecap="round" stroke-linejoin="round" stroke-width="2"/>
        <path id="Path_579" data-name="Path 579" d="M57.12,307.027s-4.14-16.319-4.506-18.268-1.95-2.681-3.533-1.829a5.793,5.793,0,0,0-3.047,5.358c0,2.8.732,3.654.732,3.654s-6.152,9.32,1.1,12.545" transform="translate(-21.684 -137.306)" fill="none" stroke="#01abab" stroke-linecap="round" stroke-linejoin="round" stroke-width="2"/>
        <path id="Path_580" data-name="Path 580" d="M32.692,289.47c-.366,0-9.743-5.483-11.327-6.335s-5.724,1.584-2.556,5.237" transform="translate(-8.948 -135.581)" fill="none" stroke="#01abab" stroke-linecap="round" stroke-linejoin="round" stroke-width="2"/>
        <path id="Path_581" data-name="Path 581" d="M22.22,298.284s-11.081-6.21-12.791-6.941-5.724,2.07-1.95,4.626" transform="translate(-3.348 -139.523)" fill="none" stroke="#01abab" stroke-linecap="round" stroke-linejoin="round" stroke-width="2"/>
        <path id="Path_582" data-name="Path 582" d="M16.383,306.846s-7.919-3.654-10.6-4.626S-.024,304.05,4.1,306.846" transform="translate(-1.531 -144.678)" fill="none" stroke="#01abab" stroke-linecap="round" stroke-linejoin="round" stroke-width="2"/>
        <path id="Path_583" data-name="Path 583" d="M13.422,317.989a42.1,42.1,0,0,0-8.645-3.471c-3.654-.789-5.692,2.373-1.2,5.42s8.75,5.483,11.431,7.062a33.591,33.591,0,0,1,5.724,4.751" transform="translate(-1.005 -150.583)" fill="none" stroke="#01abab" stroke-linecap="round" stroke-linejoin="round" stroke-width="2"/>
      </g>
    </g>
  </g>
</svg>
