<svg xmlns="http://www.w3.org/2000/svg" width="131.058" height="60.797" viewBox="0 0 131.058 60.797">
  <g id="Layer_2" data-name="Layer 2" transform="translate(0 0.04)">
    <g id="Group_356" data-name="Group 356" transform="translate(0 -0.04)">
      <g id="Group_353" data-name="Group 353" transform="translate(0.833 48.449)">
        <path id="Path_671" data-name="Path 671" d="M5.009,189.233A1.751,1.751,0,0,1,6.79,191.08v2.436H6.178V191.08a1.213,1.213,0,0,0-1.193-1.235,1.246,1.246,0,0,0-1.243,1.267v2.4H3.13v-4.224h.612v.623a1.438,1.438,0,0,1,1.267-.681Z" transform="translate(-3.13 -187.297)" fill="#01abab"/>
        <path id="Path_672" data-name="Path 672" d="M23.069,189.3h.6v4.224h-.6v-.8a2.029,2.029,0,0,1-1.571.857,2.171,2.171,0,0,1-.059-4.342,1.887,1.887,0,0,1,1.629.78Zm-1.637,3.687a1.575,1.575,0,1,0-1.528-1.579A1.548,1.548,0,0,0,21.432,192.985Z" transform="translate(-15.025 -187.305)" fill="#01abab"/>
        <path id="Path_673" data-name="Path 673" d="M41.407,183.971v.612h-.873V188.2h-.612v-3.612H39.2v-.612h.721V181.98h.612v1.991Z" transform="translate(-29.599 -181.977)" fill="#01abab"/>
        <path id="Path_674" data-name="Path 674" d="M54.139,189.46h.612v4.224h-.612v-.6a1.366,1.366,0,0,1-1.278.655A1.787,1.787,0,0,1,51.08,191.9V189.46h.612V191.9a1.213,1.213,0,0,0,1.193,1.235c1.251,0,1.251-1.336,1.251-1.336V189.46Z" transform="translate(-38.316 -187.466)" fill="#01abab"/>
        <path id="Path_675" data-name="Path 675" d="M71.439,189.24h.075l-.335.631a1.787,1.787,0,0,0-1.336,1.294v2.361H69.23V189.3h.612v.713a1.969,1.969,0,0,1,1.6-.772Z" transform="translate(-51.635 -187.305)" fill="#01abab"/>
        <path id="Path_676" data-name="Path 676" d="M83.369,189.3h.6v4.224h-.6v-.8a2.029,2.029,0,0,1-1.57.857,2.171,2.171,0,0,1-.059-4.342,1.887,1.887,0,0,1,1.629.78Zm-1.637,3.687a1.575,1.575,0,1,0-1.528-1.579A1.548,1.548,0,0,0,81.732,192.985Z" transform="translate(-59.274 -187.305)" fill="#01abab"/>
        <path id="Path_677" data-name="Path 677" d="M100.862,188.2h-.612V181.98h.612Z" transform="translate(-74.398 -181.977)" fill="#01abab"/>
        <path id="Path_678" data-name="Path 678" d="M118.779,189.3h.6v4.224h-.6v-.8a2.029,2.029,0,0,1-1.571.857,2.171,2.171,0,0,1-.059-4.342,1.887,1.887,0,0,1,1.629.78Zm-1.637,3.687a1.575,1.575,0,1,0-1.528-1.579A1.548,1.548,0,0,0,117.142,192.985Z" transform="translate(-85.258 -187.305)" fill="#01abab"/>
        <path id="Path_679" data-name="Path 679" d="M138.514,189.313h.6v3.865a2.217,2.217,0,0,1-4.283.892l.572-.176a1.428,1.428,0,0,0,1.512.99,1.512,1.512,0,0,0,1.605-1.672v-.453a1.888,1.888,0,0,1-1.672.841,2.171,2.171,0,0,1-.011-4.342,2.078,2.078,0,0,1,1.68.849v-.791ZM136.834,193a1.575,1.575,0,1,0-1.555-1.57A1.56,1.56,0,0,0,136.834,193Z" transform="translate(-99.685 -187.319)" fill="#01abab"/>
        <path id="Path_680" data-name="Path 680" d="M158.094,192.406l.437.413a2.629,2.629,0,0,1-1.757.756,2.127,2.127,0,0,1-2.124-2.135,2.075,2.075,0,1,1,4.142,0v.253h-3.511a1.52,1.52,0,0,0,1.5,1.278,1.829,1.829,0,0,0,1.318-.562Zm-1.344-2.6a1.41,1.41,0,0,0-1.469,1.31h2.88A1.358,1.358,0,0,0,156.75,189.8Z" transform="translate(-114.317 -187.297)" fill="#01abab"/>
        <path id="Path_681" data-name="Path 681" d="M174.24,183.181h-.62v-1.2h.62Zm0,5.015h-.62v-4.224h.62Z" transform="translate(-128.238 -181.977)" fill="#01abab"/>
        <path id="Path_682" data-name="Path 682" d="M181.249,189.233a1.751,1.751,0,0,1,1.781,1.847v2.436h-.612V191.08a1.213,1.213,0,0,0-1.193-1.235,1.246,1.246,0,0,0-1.243,1.267v2.4h-.612v-4.224h.612v.623a1.438,1.438,0,0,1,1.267-.681Z" transform="translate(-132.457 -187.297)" fill="#01abab"/>
        <path id="Path_683" data-name="Path 683" d="M199.394,189.313h.6v3.865a2.217,2.217,0,0,1-4.283.892l.572-.176a1.428,1.428,0,0,0,1.512.99,1.512,1.512,0,0,0,1.605-1.672v-.453a1.888,1.888,0,0,1-1.672.841,2.171,2.171,0,0,1-.011-4.342,2.078,2.078,0,0,1,1.68.849v-.791ZM197.714,193a1.575,1.575,0,1,0-1.555-1.57A1.56,1.56,0,0,0,197.714,193Z" transform="translate(-144.359 -187.319)" fill="#01abab"/>
        <path id="Path_684" data-name="Path 684" d="M227.827,183.895a2.175,2.175,0,0,1,.019,4.35,2.125,2.125,0,0,1-1.68-.881v.823h-.6V181.97h.6v2.8a1.951,1.951,0,0,1,1.664-.873Zm.016,3.756a1.579,1.579,0,1,0-1.563-1.578A1.567,1.567,0,0,0,227.843,187.65Z" transform="translate(-166.359 -181.97)" fill="#01abab"/>
        <path id="Path_685" data-name="Path 685" d="M247.994,192.406l.437.413a2.629,2.629,0,0,1-1.757.756,2.127,2.127,0,0,1-2.124-2.135,2.075,2.075,0,1,1,4.142,0v.253h-3.511a1.52,1.52,0,0,0,1.5,1.278,1.829,1.829,0,0,0,1.318-.562Zm-1.344-2.6a1.41,1.41,0,0,0-1.469,1.31h2.88A1.358,1.358,0,0,0,246.65,189.8Z" transform="translate(-180.287 -187.297)" fill="#01abab"/>
        <path id="Path_686" data-name="Path 686" d="M266.309,189.3h.6v4.224h-.6v-.8a2.029,2.029,0,0,1-1.57.857,2.171,2.171,0,0,1-.059-4.342,1.887,1.887,0,0,1,1.629.78Zm-1.637,3.687a1.575,1.575,0,1,0-1.528-1.579A1.548,1.548,0,0,0,264.672,192.985Z" transform="translate(-193.517 -187.305)" fill="#01abab"/>
        <path id="Path_687" data-name="Path 687" d="M286.239,189.46h.612v4.224h-.612v-.6a1.366,1.366,0,0,1-1.278.655,1.787,1.787,0,0,1-1.781-1.847V189.46h.612V191.9a1.213,1.213,0,0,0,1.193,1.235c1.251,0,1.251-1.336,1.251-1.336V189.46Z" transform="translate(-208.634 -187.466)" fill="#01abab"/>
        <path id="Path_688" data-name="Path 688" d="M302.787,183.971v.612h-.873V188.2H301.3v-3.612h-.721v-.612h.721V181.98h.612v1.991Z" transform="translate(-221.402 -181.977)" fill="#01abab"/>
        <path id="Path_689" data-name="Path 689" d="M314.436,189.46h.663l-2.782,6.2h-.663l.889-1.983-1.664-4.216h.663l1.352,3.437,1.536-3.437Z" transform="translate(-228.961 -187.466)" fill="#01abab"/>
      </g>
      <g id="Group_354" data-name="Group 354" transform="translate(88.188 47.925)">
        <path id="Path_690" data-name="Path 690" d="M341.836,184.339a1.915,1.915,0,0,0-.455.626,25.1,25.1,0,0,1-1.419,2.635c.54.439,2.01,1.555,2.01,2.854a.987.987,0,0,1-.895,1.014c-.423,0-.591-.253-1.03-.86-.373-.506-1.014-1.419-1.115-1.536a13.926,13.926,0,0,1-7.565,5.217l-.067-.136a20.753,20.753,0,0,0,6.516-6.282,18.408,18.408,0,0,0-3.716-2.481,11.171,11.171,0,0,1,4.408,1.3,16.2,16.2,0,0,0,1.419-3.41c0-.575-.945-.913-1.216-1a2.049,2.049,0,0,1,1.131-.354,2.99,2.99,0,0,1,2.481,1.823c0,.186-.117.272-.49.591Z" transform="translate(-331.3 -181.416)" fill="#01abab"/>
        <path id="Path_691" data-name="Path 691" d="M394.507,185.1a1.518,1.518,0,0,0-.708.338,25.449,25.449,0,0,1-3.192,2.228l-.1-.085a14.585,14.585,0,0,0,1.858-3.173c-1.4.389-2.9.878-4.339,1.35-.035.455-.117,2.06-.117,3.479,0,1.115.117,1.605,1.807,1.605a12.92,12.92,0,0,0,2.7-.338,2.436,2.436,0,0,1,.506-.066,2.8,2.8,0,0,1,1.435.4.677.677,0,0,1,.237.54c0,.86-1.334,1.03-3.277,1.03-4.9,0-4.879-.964-4.778-6.181a16.826,16.826,0,0,0-2.449,1.131,1.029,1.029,0,0,1-.524.186c-.658,0-1.637-1.115-1.637-2.127a2.506,2.506,0,0,1,.168-.929c.423.743.743,1.216,1.555,1.216a16.652,16.652,0,0,0,2.92-.626,22.544,22.544,0,0,0-.168-3.732c-.237-.524-1.065-.657-1.485-.727a2.366,2.366,0,0,1,1.5-.626c.524,0,2.228.322,2.228.98,0,.085-.2.777-.2.793a23.414,23.414,0,0,0-.338,2.888c1.435-.4,4.222-1.182,4.323-1.248.168-.1.474-.322.676-.474a.315.315,0,0,1,.2-.067,6.774,6.774,0,0,1,1.586,1.03c.237.186.474.354.474.642,0,.322-.085.354-.862.556Z" transform="translate(-368.453 -180)" fill="#01abab"/>
        <path id="Path_692" data-name="Path 692" d="M443.8,186.167c-.067.3-.354,2.38-.439,2.838a7.758,7.758,0,0,1-4.44,5.843l-.1-.1a11.614,11.614,0,0,0,3.277-8.526c0-1.065-.287-1.147-1.384-1.485a3.028,3.028,0,0,1,1.334-.474c.54,0,1.991.54,1.991,1.131,0,.136-.218.657-.237.777Zm4.863,6.282c-.322.253-1.706,1.334-1.975,1.571-.322.253-.389.269-.455.269-.423,0-1.283-1.485-1.283-1.89a10.131,10.131,0,0,1,.269-1c.085-.474.168-2.718.168-3.95a17.461,17.461,0,0,0-.221-3.5c-.237-.423-.945-.575-1.267-.657a2.138,2.138,0,0,1,1.166-.49c.591,0,2.247.607,2.247,1.232a10.111,10.111,0,0,1-.3,1.014c-.152.727-.354,5.217-.354,6.263,0,.136.035.253.152.253.641,0,4.019-2.414,6.146-5.066l.117.1a13.114,13.114,0,0,1-4.405,5.843Z" transform="translate(-410.199 -182.062)" fill="#01abab"/>
      </g>
      <g id="Group_355" data-name="Group 355" transform="translate(0 0)">
        <path id="Path_693" data-name="Path 693" d="M10.634,6.49l.642-.812c.128-.157.17-.186.229-.186.085,0,.157.072.272.17l.926.8a.318.318,0,0,1,.128.229c0,.128-.114.141-.213.141H6.082l.7.2c.128.043.285.085.285.272,0,.141-.072.186-.327.357a3.946,3.946,0,0,1-.17,1.067h3.942l.54-.711c.128-.157.17-.186.229-.186.043,0,.085,0,.285.17l.868.7a.319.319,0,0,1,.157.229c0,.128-.128.144-.213.144H6.908a6.3,6.3,0,0,0,5.34,2.547c.186,0,.327,0,.7-.029V11.7a2.386,2.386,0,0,0-1.323,1.424A6.259,6.259,0,0,1,6.567,9.066h-.1C5.287,12.311,2.611,12.812.248,12.982v-.114c2.547-.5,4.469-2.236,4.911-3.8H1.781a8.434,8.434,0,0,0-1.539.1L0,8.638c.868.085,1.879.085,2.036.085h3.2A6.249,6.249,0,0,0,5.452,7.27a2.821,2.821,0,0,0-.043-.442H1.893a8.434,8.434,0,0,0-1.539.1L.125,6.4c.868.085,1.866.085,2.02.085h3.33V4.762H3.17a8.434,8.434,0,0,0-1.539.1L1.4,4.333c.868.085,1.866.085,2.02.085h2.05V3.037H2.382a8.859,8.859,0,0,0-1.539.085L.615,2.609c.854.072,1.866.085,2.02.085h4.3a6.367,6.367,0,0,0,.9-2.734L9.354.9c.114.072.186.114.186.256,0,.186-.128.213-.484.285-.556.426-.684.514-1.807,1.254h2.776l.612-.769c.114-.141.144-.17.213-.17.1,0,.186.085.272.157l.825.74c.072.072.144.141.144.229,0,.128-.128.157-.229.157H6.679V4.419H8.885l.442-.6c.085-.128.128-.186.213-.186s.1.029.272.157l.769.612a.268.268,0,0,1,.144.213c0,.128-.114.141-.213.141H6.681V6.479h3.942ZM2.675.242c1.637.2,2.59.982,2.59,1.736a.645.645,0,0,1-.642.711c-.4,0-.5-.213-.812-.825A4.064,4.064,0,0,0,2.63.354L2.673.239Z" transform="translate(0 0.04)" fill="#01abab"/>
        <path id="Path_694" data-name="Path 694" d="M58.54,6.819H54.182c.013.668-.013,1.951-.072,2.675a8.424,8.424,0,0,0,2.279-2.521l1.038.783a.319.319,0,0,1,.157.229c0,.2-.3.213-.626.213A10.454,10.454,0,0,1,54.1,9.678a6.828,6.828,0,0,1-1.909,4.512l-.1-.043c.982-1.31.982-4.9.982-5.667a14.025,14.025,0,0,0-.2-2.577l1.453.57h1.453A7.339,7.339,0,0,0,56.336,4.3c0-.128-.013-.327-.029-.583l1.424.6c.186.072.271.128.271.272,0,.114-.013.186-.5.341a20.066,20.066,0,0,1-1.437,1.552h1.11l.426-.484q.157-.17.213-.17c.1,0,.229.114.272.144l.527.468c.013.013.144.144.144.229,0,.128-.114.157-.213.157Zm-.114-3.346h-4.1a7.339,7.339,0,0,0-1.539.1l-.242-.527c.868.085,1.879.085,2.036.085h.527a4.005,4.005,0,0,0-.357-1.85l1.467.37c.314.085.327.157.327.272,0,.1,0,.141-.327.357v.854h.8l.383-.5c.128-.17.17-.17.213-.17.072,0,.114.029.256.141l.626.5a.268.268,0,0,1,.144.213C58.638,3.457,58.524,3.473,58.425,3.473ZM58.1,11.259a9.656,9.656,0,0,1-4.6,2.263v-.1a13.631,13.631,0,0,0,3.146-2.292,8.342,8.342,0,0,0,.953-1.126l.969.783a.22.22,0,0,1,.1.2c0,.213-.085.229-.57.272ZM54.68,6.22c-.413,0-.54-.213-.668-.868a4.693,4.693,0,0,0-.468-1.424l.043-.085c.5.141,1.752.7,1.752,1.68a.629.629,0,0,1-.655.7ZM57.826,9.58A8.434,8.434,0,0,1,54.1,11.345v-.072a8.633,8.633,0,0,0,3.189-2.933l.926.74a.506.506,0,0,1,.157.272c0,.17-.186.2-.54.229Zm7-6.79H62.168a9.779,9.779,0,0,1-1.28,1.879h1.879l.484-.442c.085-.085.157-.157.242-.157a.556.556,0,0,1,.285.157l.6.455c.1.072.144.114.144.2,0,.114-.013.186-.383.527.013.357,0,.426.013,1.025.029,1.139.1,3.4.114,4.342a.676.676,0,0,1-.727.74c-.511,0-.527-.2-.527-.484h-2.9a.387.387,0,0,1-.029.213l1,.854a.372.372,0,0,1,.141.242c0,.17-.072.17-.612.157a10.3,10.3,0,0,1-4.256,1.552l-.013-.1a13.021,13.021,0,0,0,3.53-2.462.933.933,0,0,1-.471.128c-.442,0-.442-.186-.442-.357,0-.711.043-4.2.043-5a13.017,13.017,0,0,0-.144-2.249l1.408.655h.357A17.194,17.194,0,0,0,60.7,2.789h-.327a6.931,6.931,0,0,0-1.539.1L58.6,2.361c.668.056,1.339.085,2.02.085h2.521l.484-.642c.128-.157.17-.186.229-.186s.128.056.256.157l.8.642c.043.043.141.114.141.213,0,.144-.141.157-.229.157Zm-1.823,2.22H60.089V6.646h2.917Zm0,1.978H60.089V8.624h2.917Zm0,1.978H60.089v1.722h2.917Zm1.267,5.14c-.4,0-.54-.213-1.012-.9A10.468,10.468,0,0,0,61.7,11.515l.056-.072c1.994.314,3.117,1.254,3.117,2.079a.56.56,0,0,1-.6.583Z" transform="translate(-38.224 -0.929)" fill="#01abab"/>
        <path id="Path_695" data-name="Path 695" d="M106.874,23.467a1.254,1.254,0,1,1,1.254-1.254A1.247,1.247,0,0,1,106.874,23.467Z" transform="translate(-77.505 -15.37)" fill="#01abab"/>
        <path id="Path_696" data-name="Path 696" d="M123.4,2.134l.527-.341a.611.611,0,0,1,.256-.1.205.205,0,0,1,.17.1l.668.812a.586.586,0,0,1,.128.285c0,.256-.413.327-.612.37a17.936,17.936,0,0,1-2.547,3.117,8.068,8.068,0,0,1-3.673,2.135l-.029-.085a16.868,16.868,0,0,0,3.287-3.019c-.144,0-.327,0-.6-.4A6.24,6.24,0,0,0,119.8,3.572l.029-.114c.91.043,2.177.229,2.348,1.153A10.771,10.771,0,0,0,123.4,2.475H121.99a8.086,8.086,0,0,0-1.539.1l-.229-.527c.668.056,1.352.085,2.02.085H123.4Zm.668,7.573c-.357,3.061-2.036,4-4.685,4.485l-.056-.144c2.917-1.038,3.3-2.59,3.516-4.342h-1.382a8.86,8.86,0,0,0-1.539.085l-.229-.514c.854.072,1.866.085,2.02.085h1.169c0-.043.085-1.081.072-1.994a6.3,6.3,0,0,0-1.1.085l-.229-.527c.854.085,1.866.085,2.02.085h2.193l.668-.769c.141-.157.157-.17.213-.17.072,0,.144.043.271.141l.94.783c.072.056.144.114.144.213,0,.128-.114.144-.213.144h-1.254c0,.327.029,1.722.029,2.007h1.166l.612-.841c.056-.072.128-.186.213-.186s.1.029.272.157l1.067.841a.3.3,0,0,1,.141.213c0,.128-.128.157-.229.157h-3.245c.013.426-.013,2.364.056,2.675.056.272.072.357,1.552.357,1.067,0,1.2-.256,1.31-.484a17.074,17.074,0,0,0,.711-1.951h.128c.013,1.2.029,1.608.242,1.964.043.072.341.327.341.4a1.573,1.573,0,0,1-.527.812c-.327.314-.74.442-2.164.442-2.433,0-2.734-.327-2.79-1.408-.013-.341-.013-2.377-.013-2.806h-1.424Zm1.424-.341V7.36h-1.352a18.656,18.656,0,0,1-.029,2.007Zm4.413-5.638c.17.144.2.213.2.256,0,.2-.17.213-.626.2-.213.1-1.153.471-1.736.7a7.555,7.555,0,0,0,4.328,1.837v.114a2.747,2.747,0,0,0-1.48,1.28,7.756,7.756,0,0,1-3.33-2.478A9.448,9.448,0,0,1,125.03,1.6l.157-.056a6.624,6.624,0,0,0,1.123,1.823A5.1,5.1,0,0,0,127.45,1.28l1.153.884c.141.1.2.141.2.256,0,.17-.2.213-.3.213a.545.545,0,0,1-.2-.029,14.392,14.392,0,0,1-1.778,1.038,11.414,11.414,0,0,0,.953,1,4.237,4.237,0,0,0,1.254-1.85l1.182.94Z" transform="translate(-86.803 -0.929)" fill="#01abab"/>
        <path id="Path_697" data-name="Path 697" d="M175.549,5.842a8.469,8.469,0,0,0-1.509.256l-.3-.484c.783-.029,1.823-.114,2.02-.144L178.21,5.2,178.24,3a22.638,22.638,0,0,1-4.027.383c-.612,0-1.012-.029-1.352-.043V3.217a46.654,46.654,0,0,0,7.972-1.909c1.254-.4,1.352-.514,1.608-.8l1.081,1.038c.1.1.157.157.157.229,0,.2-.186.2-.242.2-.072,0-.383-.043-.455-.043-.841.2-1.837.426-2.42.556-.314.072-.884.2-1.11.242l-.056,2.334,2.577-.272.442-.783c.115-.2.141-.256.242-.256a.58.58,0,0,1,.271.141l.94.642c.1.072.17.114.17.229,0,.1-.1.128-.2.144l-4.456.5c-.029.969-.043,2.036-.056,2.891l3.745-.426.57-.884c.072-.114.128-.213.213-.213a.471.471,0,0,1,.271.128l1,.711c.1.072.157.128.157.229s-.128.141-.2.157l-5.766.642c-.013.514-.043,2.563-.043,2.947,0,.314.056.426.285.5.213.056,1.736.072,2.079.072,1.879,0,2.007-.17,2.279-.812a5.565,5.565,0,0,0,.469-1.608h.114a9.963,9.963,0,0,0,.455,1.752,3.1,3.1,0,0,1,.4.642,1.3,1.3,0,0,1-.655.8,10.356,10.356,0,0,1-3.287.37c-2.79,0-3.3-.242-3.3-1.65,0-.213.043-2.42.056-2.875l-3.487.383a7.929,7.929,0,0,0-1.523.272l-.285-.484c.812-.029,1.879-.128,2.02-.141l3.274-.37c0-.455.043-2.478.043-2.891l-2.649.3Z" transform="translate(-126.847 -0.364)" fill="#01abab"/>
      </g>
      <path id="Path_698" data-name="Path 698" d="M27.1,64.33A8.825,8.825,0,0,0,19.864,68.1,8.812,8.812,0,0,0,7,66.369v-.343H3.8V91.207H6.994V73.159a5.635,5.635,0,1,1,11.27,0V91.207h3.194V73.159a5.635,5.635,0,1,1,11.27,0V91.207h3.194V73.159a8.839,8.839,0,0,0-8.829-8.829Z" transform="translate(-2.788 -47.195)" fill="#01abab"/>
      <path id="Path_699" data-name="Path 699" d="M148.775,87.758a14.144,14.144,0,1,1,10-24.146l.724.769L141.857,82.12a12.256,12.256,0,0,0,6.918,2.476,10.909,10.909,0,0,0,7.765-3.216,6.008,6.008,0,0,0,.86-.966l3.17,1.1a21.609,21.609,0,0,1-1.794,2.1,14.048,14.048,0,0,1-10,4.142Zm0-25.128a10.983,10.983,0,0,0-10.983,10.98,10.306,10.306,0,0,0,1.954,6.428l15.391-15.383a10.177,10.177,0,0,0-6.362-2.028Z" transform="translate(-98.793 -43.629)" fill="#01abab"/>
      <path id="Path_700" data-name="Path 700" d="M245.6,50.055l-.266-.005a9.482,9.482,0,0,1-8.241-6l2.88-1.262a6.451,6.451,0,0,0,5.5,4.067A5.745,5.745,0,0,0,248.1,36.072l-7.682-4.206A13.3,13.3,0,0,1,233.5,20.2a12.109,12.109,0,0,1,24-2.292l.221,1.145-3.149,1.107-.208-1.65a8.915,8.915,0,0,0-17.67,1.688,10.1,10.1,0,0,0,5.252,8.864l7.682,4.206A8.941,8.941,0,0,1,245.6,50.044h0Z" transform="translate(-171.345 -5.926)" fill="#01abab"/>
      <path id="Path_701" data-name="Path 701" d="M353.224,11.294V8.1H332.4V50.062h20.824V46.868h-17.63V30.678h17.63V27.484h-17.63V11.294Z" transform="translate(-243.919 -5.933)" fill="#01abab"/>
      <path id="Path_702" data-name="Path 702" d="M439.721,49.321H420.88V46.127h15.647V7.09h3.194Z" transform="translate(-308.847 -5.192)" fill="#01abab"/>
    </g>
  </g>
</svg>
