<svg id="compagin_banner" data-name="compagin banner" xmlns="http://www.w3.org/2000/svg" xmlns:xlink="http://www.w3.org/1999/xlink" width="1000" height="350" viewBox="0 0 1000 350">
  <defs>
    <clipPath id="clip-path">
      <path id="Rectangle_47" data-name="Rectangle 47" d="M100,0h900a0,0,0,0,1,0,0V350a0,0,0,0,1,0,0H0a0,0,0,0,1,0,0V100A100,100,0,0,1,100,0Z" transform="translate(3389 10309)" fill="#f1fbfc"/>
    </clipPath>
  </defs>
  <path id="Rectangle_24" data-name="Rectangle 24" d="M100,0h900a0,0,0,0,1,0,0V350a0,0,0,0,1,0,0H0a0,0,0,0,1,0,0V100A100,100,0,0,1,100,0Z" fill="#f1fbfc"/>
  <g id="Mask_Group_1" data-name="Mask Group 1" transform="translate(-3389 -10309)" opacity="0.1" clip-path="url(#clip-path)">
    <g id="Group_45" data-name="Group 45" transform="translate(2951 -1010)">
      <path id="Path_286" data-name="Path 286" d="M937.928,11668.55l674.473-182.834v70.861Z" fill="#01abab"/>
      <path id="Path_287" data-name="Path 287" d="M937.928,11667.511l681.431-343.355-49.668-85.339Z" fill="#01abab"/>
      <path id="Path_288" data-name="Path 288" d="M1256.729,11229.779l-318.8,438.211,411.578-422.775Z" fill="#01abab"/>
      <path id="Path_289" data-name="Path 289" d="M1069.1,11196.188,938.967,11666.95l211.707-470.763Z" fill="#01abab"/>
    </g>
    <g id="Group_46" data-name="Group 46" transform="translate(3207.497 10186.188)">
      <path id="Path_286-2" data-name="Path 286" d="M1612.4,11668.55l-674.473-182.834v70.861Z" transform="translate(-930.969 -11196.188)" fill="#01abab"/>
      <path id="Path_287-2" data-name="Path 287" d="M1619.359,11667.511l-681.431-343.355,49.668-85.339Z" transform="translate(-937.928 -11196.188)" fill="#01abab"/>
      <path id="Path_288-2" data-name="Path 288" d="M1030.7,11229.779l318.8,438.211-411.578-422.775Z" transform="translate(-668.075 -11196.188)" fill="#01abab"/>
      <path id="Path_289-2" data-name="Path 289" d="M1020.547,11196.188l130.128,470.763-211.707-470.763Z" transform="translate(-470.283 -11196.188)" fill="#01abab"/>
    </g>
    <path id="Path_290" data-name="Path 290" d="M2541.5,11515.47c-.783-6.862,38.1-561.462,38.1-561.462h-74.134Z" transform="translate(1346.391 -856.92)" fill="#01abab"/>
  </g>
  <rect id="Rectangle_46" data-name="Rectangle 46" width="712" height="51" transform="translate(0 299)" fill="#d7f2f3"/>
  <path id="Path_706" data-name="Path 706" d="M9.35-33.45a12.679,12.679,0,0,0,1,2.6c.9,1.65,2.85,3.4,4.6,3.4a30.007,30.007,0,0,0,4.65-.75,6.14,6.14,0,0,1,1.3,3.5c.05.9.05,2.6,0,4.65a118.123,118.123,0,0,1-12.7,1.5c-1.55,0-2.6-.7-3.95-1.65l-.6.25a7.341,7.341,0,0,0,.25,3c.8,2,3.05,4.15,4.75,4.15,1.45,0,2.55-.9,5.35-1.8a53.063,53.063,0,0,1,6.85-1.65c-.05,3.6-.1,7.35-.05,9.5.15,4.5,2,6.75,9.75,6.75a49.963,49.963,0,0,0,10.2-.85c1.55-.4,2.65-1.05,2.65-2.6,0-1.45-2-3.1-5.3-3.1-.95,0-2.55,1-8.15,1-3.65,0-4.45-.8-4.55-3-.1-1.8,0-5.2.2-8.45a79.627,79.627,0,0,1,9.95-.9c2.9,0,6.6.7,8.6.65A2.08,2.08,0,0,0,46.3-19.6c0-2.2-4.5-3.6-6.4-3.6-.7,0-1.9.55-4.65,1.05-1.95.3-5.5.9-9.35,1.45a20.985,20.985,0,0,1,.35-2.4c.25-1.05,1-1.6,1-2.6,0-.85-1.6-2.2-4.05-3.05C27.5-29.25,34-30,36.3-30.3c2.35-.35,3.1-1.25,3.1-2.35,0-1.45-2.55-2.95-5.9-2.95-.7,0-2.85,1.15-7,2a79.931,79.931,0,0,1-12.3,1.5,6.465,6.465,0,0,1-4.25-1.65Zm79.85,5.5c0-1.85-4.05-3.55-6.85-3.55-.65,0-1.8,1.25-5.3,1.95a61.218,61.218,0,0,1-9.9,1.1c-2.15,0-3.75-.95-5.55-2.4l-.7.4a12.809,12.809,0,0,0,1.5,3.8c.95,1.5,2.85,3.2,4.3,3.2,2.3,0,13.7-1.55,20.1-2.1A2.361,2.361,0,0,0,89.2-27.95ZM54.25-9.4c.65,1.55,3.55,4.8,5.55,4.8,1.35,0,3.2-.85,5.6-1.5A71.346,71.346,0,0,1,81.5-8.05c7.25,0,11.35,1.7,13.3,1.7a2.27,2.27,0,0,0,2.35-2.4c0-2.05-4.95-5.2-7.55-5.2-.85,0-1.5.65-4.35.9-6.95.55-22.75,2.25-26,2.25a6.575,6.575,0,0,1-4.8-2.3l-.75.3A7.758,7.758,0,0,0,54.25-9.4Zm81-19.5a48.238,48.238,0,0,1-5.8,10.3A62.311,62.311,0,0,0,118-22.85a65.288,65.288,0,0,0,5.35-5.95,3.923,3.923,0,0,0,1.9.95,10.247,10.247,0,0,0,2.8-.65,37.274,37.274,0,0,1,6.55-1.35C135.25-29.85,135.5-29.6,135.25-28.9Zm-17.7-9.85c1.6.9,2.8,2.05,2.8,3,0,3.2-7.8,14.65-15.5,21.15l.65.85a47.906,47.906,0,0,0,11.5-8.1,31.818,31.818,0,0,1,9.8,6.65A69.394,69.394,0,0,1,105.4,2.1l.55.95a57.525,57.525,0,0,0,24-14.55c2.9,3.75,3.55,5.45,5.7,5.35a2.792,2.792,0,0,0,2.8-3.1c-.1-2.45-2.05-4.65-4.6-6.6A80.732,80.732,0,0,0,141.1-26.6c.65-1.2,2.7-1.85,2.7-3.1,0-2.05-4.7-5.05-6.15-5.05-1.15,0-2,1.25-3.25,1.65a68.26,68.26,0,0,1-8.9,1.4c.45-.65.9-1.3,1.3-1.95.85-1.3,1.5-1.55,1.5-2.6,0-1.3-3.8-3.35-7.15-3.5a10.21,10.21,0,0,0-3.5.3Zm36.7,16a8.127,8.127,0,0,0,.15,3.8c.9,2.45,4,5.7,5.95,5.7,1.9,0,2.65-1.2,6.25-1.55,3.85-.45,15.05-1.15,18.85-1.15,3.5,0,5.25.15,7.25.15,2.1,0,3.3-.7,3.3-2.15,0-2.15-2.6-3.7-5.6-3.7-1.2,0-3.45.4-6.8.7-3.05.25-18.15,1.25-23.5,1.25-2.65,0-3.5-1.35-5-3.35Zm56.6,22v-8.5h9.8v8.5Zm9.3-9.9H211.1l-5.7-2.3V4.4h.75c2.25,0,4.7-1.15,4.7-1.65V.7h9.8V3.8h.95c1.75,0,4.6-1,4.65-1.3V-8.3a3.549,3.549,0,0,0,2.05-1.05l-5.55-4.15Zm16.4-25.6c1.35-.2,1.7-.7,1.85-1.4l-7.15-.7v3.7l-4.45-4.3-2.65,2.6H218V-40.5c1.3-.2,1.7-.7,1.8-1.4l-7.45-.6v6.15h-5.6a9.494,9.494,0,0,0-.9-2.1h-.65a4.89,4.89,0,0,1-2.25,4.1C199.3-32.2,201.75-28,205-29.6c1.95-.9,2.55-2.95,2.15-5.3h17.3c-.2,1.3-.5,2.75-.7,3.75l-.7-.5-2.7,3.3h-2.5V-31.5c1.15-.2,1.55-.65,1.65-1.3l-7.15-.65v5.1h-8.7l.4,1.4h8.3v4.5H203.8l.4,1.45h8.15v4.95H201.7l.4,1.4h26.55c.7,0,1.25-.25,1.35-.8-1.95-1.65-5.05-3.95-5.05-3.95l-2.8,3.35h-4.3V-21h9c.7,0,1.15-.25,1.3-.8-1.8-1.6-4.75-3.85-4.75-3.85l-2.6,3.2h-2.95v-4.5h8.8c.7,0,1.25-.25,1.4-.8-1.1-1-2.65-2.15-3.7-2.95a36.446,36.446,0,0,0,5.2-3.25,2.966,2.966,0,0,0,1.7-.5V-6.5h.95c2.05,0,4.35-1.05,4.35-1.55Zm4.3-5.65V-2.65c0,.65-.25.9-1.1.9-1.05,0-6.05-.3-6.05-.3v.7c2.4.4,3.5,1,4.25,1.9a7.174,7.174,0,0,1,1.15,4c6.45-.55,7.3-2.8,7.3-6.75V-39.75c1.2-.2,1.7-.7,1.8-1.45Zm29.3,24.5h-10.2c.6-3.2,1.15-6.75,1.45-9.15h8.5v2.8h.95c1.85,0,4.7-1,4.75-1.35V-36.85a3.9,3.9,0,0,0,2.15-1.05l-5.7-4.25-2.65,2.9H253.5l.45,1.45H269.9v9.85h-7.3l-6.25-2.5c-.5,4.3-1.85,11.95-3.05,17.45,3.05.7,4.45.5,5.9-.25.15-.8.35-1.75.5-2.75h10.85c-.75,7.15-2.1,12.65-3.75,13.85a3.192,3.192,0,0,1-2,.5c-1.3,0-6-.35-8.9-.6l-.05.7c2.6.4,5.1,1.25,6.2,2.2A4.435,4.435,0,0,1,263.3,4.4c3.4.05,5.5-.55,7.25-1.85,2.95-2.1,4.8-8.55,5.7-17.6a3.615,3.615,0,0,0,2.15-.85l-5.25-4.35Zm17.3-24.65V4.35h1.1c2.3,0,4.8-1.4,4.8-2.05v-42c1.45-.2,1.85-.8,1.95-1.55ZM16.2,36.15c1.75.3,3.75.2,4.3,1.25.55,1,1.3,4.35,2,7.4a106.229,106.229,0,0,1-10.55,2.1c-1.15,0-1.85-.9-2.65-1.7l-.85.4a4.719,4.719,0,0,0,.8,2.2,6.92,6.92,0,0,0,3.9,2.3c.9,0,1.2-.55,2.6-1,1.95-.6,4.6-1.3,7.3-1.9.45,1.95,1.1,5.15,1.75,8.4-5,1.3-13.65,3.35-15.1,3.35-.75,0-1.5-.5-2.8-1.65l-.85.55A6.976,6.976,0,0,0,7,60.25c.8,1,2.9,2.25,3.95,2.2,1.1,0,1.6-.75,3.45-1.4,2.65-.95,7.3-2.25,10.85-3.15.5,2.5.9,4.85,1.2,6.6.5,2.8.85,5.9,1.1,6.75.3,1.3,1.45,2.85,2.5,2.85,1,0,1.35-.8,1.35-1.55a21.334,21.334,0,0,0-.95-4.7c-.5-1.95-1.4-5.9-2.45-10.6A104.333,104.333,0,0,1,43.2,54.5c1.3-.1,1.6-.75,1.6-1.4,0-1.1-2.05-1.9-4.3-1.75-.45.05-.7.3-2.1.7-1.7.55-7,1.95-10.95,2.85-.55-2.65-1.15-5.5-1.75-8.35,3.05-.7,7.8-1.7,10.55-2.25,1.25-.25,2-.7,2-1.55,0-1.2-2.3-1.65-3.75-1.55-.45.05-1.25.6-3.35,1.3-1.8.55-3.8,1.1-5.95,1.65-.4-2.1-.65-3.35-.85-4.95-.15-1.55.6-1.9.55-2.85-.05-1.05-2.8-2.25-4.95-2.25a14.88,14.88,0,0,0-3.9,1Zm49.75,9.7c1.65.2,2.65.45,3.1,1.45a47.188,47.188,0,0,1,2.1,6.7c-3.6.9-7.6,1.9-8.55,1.85-1.1-.05-1.75-.95-2.4-1.65l-.6.3a10.1,10.1,0,0,0,.35,2.2,5.2,5.2,0,0,0,3.55,2.55c.85,0,1.4-.85,2.85-1.4.85-.3,3.2-1.1,5.35-1.75,1.2,4.5,2.95,12.15,3.55,15.85.25,1.6,1,2.8,2.35,2.8,1.1,0,1.55-.65,1.55-1.8a15.481,15.481,0,0,0-.95-3.5c-.8-2.65-2.55-9.05-3.85-14.1C78,54.3,83.25,52.75,85,52.4c.5-.1.7-.05.45.5a44.529,44.529,0,0,1-5.8,8.55l.6.55a54.932,54.932,0,0,0,8.35-7.75c.65-.65,2-.75,2-1.5,0-1.1-2.5-3.45-3.85-3.45-.55,0-1.15.8-2,1.05-1.55.5-7.35,2.05-10.9,2.95-.45-1.85-.85-3.85-.95-4.65-.1-1.05.2-1.65.15-2.45,0-.85-2.55-1.75-4.2-1.75a10.726,10.726,0,0,0-3.05.65ZM109.8,38.9a33.666,33.666,0,0,1,8.7,7.55c1.3,1.55,1.95,2.1,2.75,2.1A1.708,1.708,0,0,0,123,46.7c0-3.85-6.9-7.25-12.6-8.85Zm4.95,27.55c-1.6,0-3.2-1.6-4.7-3.25l-.8.5a10.7,10.7,0,0,0,1.05,3.25c1,1.5,4,3.85,5.95,3.85,1.1,0,1.65-1.25,2.65-1.85,10.95-7,20.25-15,26.25-25.65L144,42.55C136.9,53.2,118.6,66.45,114.75,66.45ZM187.1,49.1a5.675,5.675,0,1,0-5.7-5.7A5.687,5.687,0,0,0,187.1,49.1Zm0-9.7a4.025,4.025,0,1,1-4.05,4A4.012,4.012,0,0,1,187.1,39.4ZM153.75,57.1a6.978,6.978,0,0,0,4.3,2.4c1.4,0,2.1-1.05,3.35-2.6,1.85-2.3,5.75-7.35,7.3-9.15.8-.9,1.35-1.15,1.9-1.15.65,0,1.25.35,2.2,1.25,3.8,3.8,11.9,12.35,15.05,15.4,3.35,3.2,5.8,5.25,7.2,5.25a1.406,1.406,0,0,0,1.5-1.55,4.265,4.265,0,0,0-2-3.4C188.35,59.4,180.7,52.1,174.4,45.8a5.214,5.214,0,0,0-3.95-1.95c-1.2,0-2.2.75-3.25,1.85-1.7,1.7-5.95,6.55-8.25,8.65-1,.9-1.65,1.35-2.35,1.35a5.854,5.854,0,0,1-3.2-1.8l-.8.7A6.408,6.408,0,0,0,153.75,57.1Zm51.3-5.95a8.872,8.872,0,0,0,.45,2.8c.7,1.7,3.05,4.15,4.45,4.15,1.45,0,2-.75,4.85-1.05,3.75-.45,17.8-1.2,20.95-1.2,3.05,0,4.8.1,6.55.1,1.7,0,2.2-.55,2.2-1.45,0-1.35-2.25-2.2-4.15-2.2-1.3,0-2.7.3-6.05.55-2.3.1-19.8,1.25-24.25,1.25-2.1,0-2.9-1.55-4-3.25ZM258.8,38.9a33.666,33.666,0,0,1,8.7,7.55c1.3,1.55,1.95,2.1,2.75,2.1A1.708,1.708,0,0,0,272,46.7c0-3.85-6.9-7.25-12.6-8.85Zm4.95,27.55c-1.6,0-3.2-1.6-4.7-3.25l-.8.5a10.7,10.7,0,0,0,1.05,3.25c1,1.5,4,3.85,5.95,3.85,1.1,0,1.65-1.25,2.65-1.85,10.95-7,20.25-15,26.25-25.65L293,42.55C285.9,53.2,267.6,66.45,263.75,66.45ZM341,37.65a50.552,50.552,0,0,1-2.25,4.9l.65.4a30.9,30.9,0,0,0,5.65-4.75c1-.05,1.55-.1,1.85-.45l-3.8-3.7L341,36.2H325.65V32c1.2-.2,1.7-.7,1.8-1.4l-5.15-.5v6.1H308.55a15.718,15.718,0,0,0-.55-2.75l-.9.05a7.984,7.984,0,0,1-3.75,7.65,2.344,2.344,0,0,0-1.35,2.8c.6,1.15,2.45,1.15,3.75.25,1.5-1,2.9-3.2,2.9-6.55Zm3.4,23.75c.7,0,1.2-.25,1.35-.8-1.7-1.55-4.35-3.55-4.35-3.55l-2.4,2.9H324.35a25.636,25.636,0,0,0,1.15-6.2H340c.7,0,1.25-.25,1.4-.75-1.7-1.45-4.3-3.4-4.3-3.4l-2.3,2.75h-9.25a13.1,13.1,0,0,0,.05-1.4v-4.2h14.9c.7,0,1.2-.25,1.35-.8-1.6-1.4-4.15-3.3-4.15-3.3l-2.25,2.6H325.6V41.9c1.2-.2,1.6-.7,1.7-1.3l-5-.55v5.2H307l.4,1.5h14.9v5.6H307.55l.4,1.4H322.2a25.163,25.163,0,0,1-1.1,6.2H302.2l.4,1.45h17.95c-2.4,5.65-7.7,10.35-19,13.55l.3.95c13.4-2.95,19.4-8.15,22-14.5h1.6c3.25,7.95,9.55,12.15,18.75,14.55a3.819,3.819,0,0,1,2.85-3l.05-.6C337.95,71,330.3,67.7,326.55,61.4Zm25.3-13.55a28.156,28.156,0,0,0,6.95-7.7h19.2c.7,0,1.15-.25,1.3-.8-1.65-1.6-4.4-3.7-4.4-3.7l-2.35,3H377.55a43.385,43.385,0,0,0,2.8-5.95c1.05.05,1.7-.35,1.9-.95l-5.15-1.6c-1.6,6.85-4.7,13.2-8.1,17.15Zm26.15,19.2h-.65a14.526,14.526,0,0,1-1.45,4.4c-.25.3-.55.4-1.2.45-.75.1-3.05.15-5.9.15h-6.3c-2.45,0-2.85-.4-2.85-1.5V54.2l5.4-1.95V68.4h.6c1.05,0,2.3-.7,2.3-1.1V51.2l5.95-2.15c-.05,8.4-.25,11.55-.9,12.3-.25.25-.55.3-1.15.3-.7,0-2.1-.1-3.05-.15v.85a3.916,3.916,0,0,1,2.1.85,3.157,3.157,0,0,1,.55,2.1,4.914,4.914,0,0,0,3.55-1.25c1.35-1.35,1.75-4.65,1.8-14.7,1-.15,1.55-.3,1.85-.7l-3.6-2.9-1.65,1.8-.2.1-5.25,1.9v-6c1.25-.2,1.65-.7,1.8-1.4l-4.7-.5V50.6l-5.4,1.95V46.9c1.1-.15,1.55-.65,1.65-1.3l-4.55-.55V53.6l-5.8,2.1c.1-1.55.15-3.2.2-5a2.879,2.879,0,0,0,2-.8l-3.7-3.05-1.85,2.05h-5c.15-2.5.2-5.05.25-7.6h10.7c.65,0,1.2-.25,1.3-.75-1.6-1.6-4.25-3.75-4.25-3.75l-2.35,3.05h-3.2v-7.6c1.1-.2,1.5-.65,1.6-1.3l-4.9-.5v9.4h-8.55l.35,1.45h5.8c-.1,11.65-.05,24.15-6.8,33.7l.85.8c6.7-7,8.55-16.05,9.15-25.5h5.55c-.4,12.4-1.25,19.4-2.65,20.75a2.126,2.126,0,0,1-1.75.55c-1,0-3.8-.25-5.5-.4l-.05.9a9.146,9.146,0,0,1,3.8,1.2,2.755,2.755,0,0,1,.75,2.25,6.334,6.334,0,0,0,4.9-1.85c1.8-1.85,2.85-7.3,3.35-17.65l.8,1,5-1.8V71.2c0,2.8,1.1,3.65,5.45,3.65h6.5c9.2,0,11-.5,11-2,0-.65-.4-1-1.55-1.35Zm29.65-11.8V42.05h14.55v13.2Zm-17.9,0V42.05h14.55v13.2ZM441.45,38.5l-1.9,2.1H425.5V32.05c1.3-.2,1.7-.7,1.8-1.4l-5.15-.6V40.6h-14.2l-3.6-1.7V61.45h.5c1.4,0,2.75-.75,2.75-1.1v-3.6h14.55V75.9h.65c1.25,0,2.7-.85,2.7-1.35V56.75h14.55V60.9h.55c1.1,0,2.8-.75,2.85-1.05V42.7a3.725,3.725,0,0,0,2.1-1Z" transform="translate(91 154)" fill="#01abab"/>
  <path id="Path_707" data-name="Path 707" d="M9.168-19.248H2.256v1.44H9.168Zm.888,3.144H1.008v1.464h9.048ZM7.656-5.016V-.984H3.648V-5.016ZM9.216-6.48H2.088V1.56h1.56V.456H9.216ZM2.136-8.256h7.1V-9.7h-7.1Zm0-3.192h7.1v-1.416h-7.1Zm20.88,5.712H17.352V-9.144h4.824v-1.608H17.352v-3.12H22.68v-1.656H19.536c.648-1.08,1.416-2.664,2.088-4.032l-1.752-.552a29.027,29.027,0,0,1-1.824,4.248l.864.336H14.088l.864-.36a16.277,16.277,0,0,0-1.872-4.056l-1.44.528a17.121,17.121,0,0,1,1.728,3.888h-2.76v1.656h5.016v3.12h-4.56v1.608h4.56v3.408H9.864V-4.1h5.76V1.824h1.728V-4.1h5.664ZM32.16-18.7l-2.424-.024a12.666,12.666,0,0,1,.192,2.448c0,2.52-.24,8.592-.24,12.144,0,3.912,2.376,5.352,5.832,5.352a12.063,12.063,0,0,0,10.032-5.3L44.184-5.712c-1.728,2.5-4.2,4.968-8.592,4.968-2.28,0-3.936-.936-3.936-3.576,0-3.576.168-9.24.288-11.952A20.664,20.664,0,0,1,32.16-18.7Zm32.736.984L63.12-19.3a11.364,11.364,0,0,1-1.368,1.608c-1.632,1.656-5.28,4.536-7.08,6.048-2.16,1.824-2.448,2.856-.168,4.752,2.232,1.848,5.88,4.968,7.56,6.7.6.576,1.152,1.176,1.656,1.752l1.7-1.584C62.88-2.568,58.632-6,56.448-7.776c-1.536-1.3-1.512-1.68-.072-2.9,1.776-1.488,5.232-4.224,6.864-5.664C63.648-16.68,64.392-17.3,64.9-17.712ZM82.7-2.88c0-1.176,1.272-1.944,3.072-1.944a8.167,8.167,0,0,1,2.448.384c.024.312.024.6.024.84,0,1.584-.6,2.616-2.616,2.616C83.9-.984,82.7-1.656,82.7-2.88Zm7.272-15.6h-2.16c.048.408.1,1.056.1,1.464v2.976c-.744.024-1.512.048-2.256.048-1.44,0-2.712-.072-4.08-.192v1.8c1.416.1,2.664.168,4.032.168.768,0,1.536-.024,2.3-.048.024,1.968.168,4.32.24,6.168a11.006,11.006,0,0,0-2.232-.216c-3.144,0-4.944,1.608-4.944,3.624,0,2.16,1.776,3.432,4.992,3.432,3.24,0,4.152-1.9,4.152-3.864v-.5A19.524,19.524,0,0,1,93.744-.84L94.8-2.448a15.819,15.819,0,0,0-4.752-3.1c-.1-2.016-.264-4.416-.288-6.84,1.44-.1,2.832-.24,4.152-.456v-1.848a40.526,40.526,0,0,1-4.152.552c.024-1.128.048-2.256.072-2.9Q89.868-17.76,89.976-18.48Zm-11.856.144L76.008-18.5a14.4,14.4,0,0,1-.144,1.7,71.412,71.412,0,0,0-1.1,10.1A28.988,28.988,0,0,0,75.672.888l1.68-.12C77.328.5,77.3.168,77.3-.072a4.3,4.3,0,0,1,.1-1.08c.24-1.176,1.128-3.624,1.7-5.3l-.984-.768c-.408.984-.984,2.448-1.368,3.528a22.514,22.514,0,0,1-.24-3.336,59.507,59.507,0,0,1,1.2-9.672A12.479,12.479,0,0,1,78.12-18.336Zm24.432,19.68,1.632-1.392a45.047,45.047,0,0,0-5.376-5.328l-1.56,1.368A39.985,39.985,0,0,1,102.552,1.344Zm35.064-13.032h-2.808v-4.056h2.808Zm0,5.688h-2.808v-4.1h2.808Zm-11.3-4.1h2.664V-6h-2.664Zm6.96,0V-6h-2.784v-4.1Zm-2.784-1.584v-4.056h2.784v4.056Zm-4.176-4.056h2.664v4.056h-2.664ZM124.7-11.688h-3.336V-10.1H124.7V-6h-2.952v1.608H142.32V-6H139.3v-4.1h3.36v-1.584H139.3v-4.056h2.472v-1.584H126.624a17.477,17.477,0,0,0,1.272-2.256l-1.7-.5a16.981,16.981,0,0,1-5.112,6.264,8.734,8.734,0,0,1,1.464,1.176,20.064,20.064,0,0,0,2.16-2.136ZM122.88,1.848a11.223,11.223,0,0,0,2.952-4.824l-1.656-.408A10.492,10.492,0,0,1,121.2,1.152Zm5.448-4.632a29.019,29.019,0,0,1,.5,4.392l1.7-.24a29.065,29.065,0,0,0-.576-4.32Zm4.848.024a28.461,28.461,0,0,1,1.464,4.392l1.728-.36a23.2,23.2,0,0,0-1.536-4.344Zm4.872-.168a28.3,28.3,0,0,1,3.12,4.8l1.776-.648a29.394,29.394,0,0,0-3.264-4.7Zm23.016-12.528a18.5,18.5,0,0,0-3.768-2.928l-.912,1.2a19.828,19.828,0,0,1,3.768,3.1ZM160.032-9.72A18.669,18.669,0,0,0,156-12.408l-.84,1.248a17.963,17.963,0,0,1,3.984,2.88ZM153.1-18.648a44.336,44.336,0,0,1-1.584,5.4l1.152.384a49.11,49.11,0,0,0,1.968-5.4ZM148.1-13.3a21.809,21.809,0,0,0-1.416-5.256l-1.3.312a23.175,23.175,0,0,1,1.3,5.328Zm2.616,2.9h3.912v-1.68H150.72v-7.92h-1.656v7.92h-3.84v1.68h3.36a24.68,24.68,0,0,1-3.744,7.464,10.759,10.759,0,0,1,.912,1.728,27.525,27.525,0,0,0,3.312-6.84V1.824h1.656v-9.84c.864,1.344,1.992,3.192,2.424,4.08l1.176-1.392c-.528-.816-2.928-3.984-3.6-4.728Zm16.368,4.92L166.824-7.1l-2.832.5V-20.064h-1.68V-6.288L154.584-4.92l.288,1.656,7.44-1.344V1.824h1.68V-4.92Zm13.1-13.416h-2.256A14.55,14.55,0,0,1,178.1-16.9c0,.864-.048,1.68-.1,2.448h-4.224a25.119,25.119,0,0,1-2.736-.144v2.04a25.609,25.609,0,0,1,2.76-.1h4.032c-.648,4.944-2.376,7.944-4.752,10.1a11.829,11.829,0,0,1-2.472,1.776L172.368.648c4.008-2.76,6.5-6.408,7.368-13.3h6.72c0,2.568-.312,8.472-1.224,10.3a1.3,1.3,0,0,1-1.392.792,29.2,29.2,0,0,1-3.576-.264L180.5.168c1.248.072,2.64.168,3.864.168a2.491,2.491,0,0,0,2.568-1.464c1.08-2.3,1.368-9.288,1.464-11.592a7.506,7.506,0,0,1,.12-1.176l-1.344-.672a8.649,8.649,0,0,1-1.536.12h-5.712c.048-.792.1-1.608.12-2.472C180.072-17.5,180.12-18.336,180.192-18.888Zm24.792-.336h-2.3a13.462,13.462,0,0,1,.12,1.8v2.232h-5.3a21.263,21.263,0,0,1-2.232-.1,16.069,16.069,0,0,1,.072,1.848v4.224c0,.456-.024,1.1-.072,1.536h2.088a9.261,9.261,0,0,1-.1-1.44v-4.3h13.416a17.678,17.678,0,0,1-2.28,7.008,12.8,12.8,0,0,1-6.5,4.824,12.781,12.781,0,0,1-2.5.672l1.56,1.8a15.252,15.252,0,0,0,9.5-6.792,22.37,22.37,0,0,0,2.352-7.224c.1-.456.24-1.08.36-1.44l-1.3-.816a4.717,4.717,0,0,1-1.656.192H204.84v-2.232A10.722,10.722,0,0,1,204.984-19.224Zm16.464,1.632-1.368,1.464a49.844,49.844,0,0,1,5.976,5.016l1.512-1.512A52.552,52.552,0,0,0,221.448-17.592Zm-2.064,16.08L220.656.456a26.307,26.307,0,0,0,9.432-3.72,23.979,23.979,0,0,0,8.064-8.544L237-13.848a22.609,22.609,0,0,1-8.016,8.832A24.781,24.781,0,0,1,219.384-1.512ZM247.344-3.1c0,2.376.816,3.528,5.28,3.528a51.6,51.6,0,0,0,7.536-.48l.1-2.064a38.553,38.553,0,0,1-7.488.7c-2.856,0-3.48-.528-3.48-2.184v-7.152c4.248-.864,8.664-1.752,9.072-1.824a22.6,22.6,0,0,1-4.272,5.712l1.68,1.008a36.531,36.531,0,0,0,4.92-6.984c.168-.312.408-.72.576-.96l-1.416-1.1a4.86,4.86,0,0,1-1.272.432c-1.008.216-5.208,1.08-9.288,1.872v-3.744a13.683,13.683,0,0,1,.168-2.208h-2.28a13.477,13.477,0,0,1,.168,2.208v4.1c-2.544.48-4.824.888-5.9,1.032l.36,1.992c.984-.216,3.12-.648,5.544-1.152Zm35.28-15.12h-2.256a17.22,17.22,0,0,1,.12,2.088v3.792c0,4.536-.288,6.48-1.992,8.472A11,11,0,0,1,272.76-.672L274.32.984a12.819,12.819,0,0,0,5.712-3.5c1.728-2.064,2.52-3.96,2.52-9.72v-3.888C282.552-16.944,282.576-17.616,282.624-18.216Zm-11.136.192H269.3c.048.456.1,1.3.1,1.728V-8.3a15.729,15.729,0,0,1-.12,1.848h2.208c-.048-.432-.1-1.224-.1-1.824V-16.3C271.392-16.872,271.44-17.568,271.488-18.024Zm21.96.432-1.368,1.464a49.846,49.846,0,0,1,5.976,5.016l1.512-1.512A52.552,52.552,0,0,0,293.448-17.592Zm-2.064,16.08L292.656.456a26.307,26.307,0,0,0,9.432-3.72,23.979,23.979,0,0,0,8.064-8.544L309-13.848a22.609,22.609,0,0,1-8.016,8.832A24.781,24.781,0,0,1,291.384-1.512ZM330.36-19.2l-1.272.552a27.149,27.149,0,0,1,1.944,3.312l1.3-.576A34.012,34.012,0,0,0,330.36-19.2Zm2.64-.96-1.272.552a24.942,24.942,0,0,1,1.992,3.288l1.3-.576A34.34,34.34,0,0,0,333-20.16Zm-9.1,2.112-2.208-.744a8.9,8.9,0,0,1-.744,1.92,20.1,20.1,0,0,1-7.536,8.112l1.656,1.224a23.158,23.158,0,0,0,6.1-5.9h8.088a19.487,19.487,0,0,1-3.816,7.488,19.221,19.221,0,0,1-9.6,6.024l1.752,1.584a21.363,21.363,0,0,0,9.552-6.528,23.475,23.475,0,0,0,4.248-8.28,7.542,7.542,0,0,1,.552-1.272l-1.584-.96a4.6,4.6,0,0,1-1.56.216h-6.5c.192-.336.384-.672.552-1.008C323.088-16.608,323.52-17.424,323.9-18.048ZM343.032-16.9v5.328h-3.48V-16.9Zm-3.48,12.432v-5.544h3.48v5.544Zm5.16-14.04H337.92V-.912h1.632V-2.856h5.16Zm1.968,13.44A18.512,18.512,0,0,1,349.728-.84l1.512-.96a16.968,16.968,0,0,0-3.12-4.08Zm12.384-5.952V-12.6h-6.192v-3.048h5.16v-1.584h-5.16v-2.856H351.12v2.856h-4.992v1.584h4.992V-12.6H345.1v1.584h9.192V-8.3h-9.072V-6.72h9.072V-.312c0,.36-.12.456-.528.48-.384.024-1.7.024-3.192-.024a5.449,5.449,0,0,1,.576,1.656,13.731,13.731,0,0,0,3.888-.288c.72-.264.984-.792.984-1.8V-6.72H358.8V-8.3h-2.784v-2.712Zm11.88-5.184v1.92a56.413,56.413,0,0,0,9.864,0v-1.944A41.062,41.062,0,0,1,370.944-16.2Zm.936,9.768L370.152-6.6a12.9,12.9,0,0,0-.408,2.832c0,2.256,1.8,3.6,5.832,3.6a32.524,32.524,0,0,0,6-.5l-.048-2.016a26.476,26.476,0,0,1-5.952.624c-3.264,0-4.056-1.056-4.056-2.16A8.382,8.382,0,0,1,371.88-6.432Zm-5.52-11.616-2.136-.192a10.5,10.5,0,0,1-.168,1.7,67.508,67.508,0,0,0-1.08,9.624,30.218,30.218,0,0,0,.888,7.7l1.728-.12c-.024-.24-.048-.576-.072-.84a4.632,4.632,0,0,1,.12-1.08,48.976,48.976,0,0,1,1.7-5.376l-1.008-.768c-.408.984-.984,2.424-1.392,3.5a26.32,26.32,0,0,1-.216-3.36,55.726,55.726,0,0,1,1.2-9.192C366.024-16.872,366.24-17.64,366.36-18.048Zm27.5-1.128h-2.136a12.657,12.657,0,0,1,.12,1.7c0,.432-.024,1.488-.024,2.736-.672.048-1.3.072-1.848.072a22.209,22.209,0,0,1-3.072-.192l.048,1.824a26.363,26.363,0,0,0,3.072.12c.5,0,1.1-.024,1.776-.072-.024,1.056-.024,2.184-.024,3.144v1.368c-2.76,1.176-5.256,3.264-5.256,5.256,0,2.136,3.12,3.984,4.992,3.984,1.3,0,2.112-.72,2.112-2.952,0-1.032-.048-3.168-.1-5.208a15.721,15.721,0,0,1,5.232-.936c2.28,0,4.128,1.1,4.128,3.144,0,2.208-1.92,3.336-4.032,3.744a12.274,12.274,0,0,1-2.808.168L396.72.672A18.2,18.2,0,0,0,399.7.336c3.288-.792,5.112-2.64,5.112-5.544,0-2.88-2.52-4.776-6.024-4.776a18.151,18.151,0,0,0-5.28.888v-.84c0-.96.024-2.112.048-3.24a44.06,44.06,0,0,0,5.04-.84l-.048-1.872a32.278,32.278,0,0,1-4.944.96c.024-1.08.072-2.016.1-2.592A15.388,15.388,0,0,1,393.864-19.176Zm7.44,2.664-.864,1.44a30.443,30.443,0,0,1,5.376,3.6l.984-1.536A43.625,43.625,0,0,0,401.3-16.512Zm-12.912,13.2c0-1.08,1.464-2.472,3.432-3.384.024,1.752.072,3.384.072,4.248,0,.792-.336,1.176-.888,1.176C390.072-1.272,388.392-2.208,388.392-3.312Zm28.8-14.3V-15.6h-5.16v-2.016Zm-5.16,5.52V-14.28h5.16V-12.1Zm6.864,1.44v-8.4H410.28v20.9h1.752v-12.5Zm3.816,3.648v3.96h-5.64v-3.96Zm1.656,5.472V-8.52H415.44V-.1h1.632v-1.44Zm-1.632-10.536V-14.28h5.328v2.208Zm5.328-5.568v2.04h-5.328v-2.04Zm1.8-1.416h-8.832v8.4h7.032V-.576c0,.456-.144.6-.576.6-.48.024-2.04.048-3.6-.024a8.627,8.627,0,0,1,.624,1.824,15.71,15.71,0,0,0,4.3-.312c.768-.312,1.056-.912,1.056-2.088ZM449.52-6.1V-.744H438.5V-6.1ZM436.752,1.848H438.5V.864H449.52v.984h1.824V-7.7H436.752ZM438-12.288V-10.7h12.024v-1.584Zm4.944-7.728a26.958,26.958,0,0,1-10.056,8.832,6.487,6.487,0,0,1,1.1,1.416,29.553,29.553,0,0,0,9.96-8.52A32.1,32.1,0,0,0,454.1-9.912a8.148,8.148,0,0,1,1.176-1.536,28.51,28.51,0,0,1-10.536-8.568ZM473.76-18.5h-2.04a13.576,13.576,0,0,1,.12,1.8v3.432c-2.568.216-5.352.48-7.7.7.024-1.272.024-2.448.024-3.24,0-.744.048-1.392.1-1.944h-2.088a14.575,14.575,0,0,1,.144,2.04c0,.408,0,1.728-.024,3.336-1.152.1-2.112.192-2.712.24a23.413,23.413,0,0,1-2.5.144l.216,1.968c.648-.1,1.68-.24,2.424-.336.624-.072,1.512-.168,2.568-.288,0,2.4,0,4.944.024,5.976.12,3.816.648,5.088,6.192,5.088,2.424,0,5.352-.216,6.96-.384l.072-2.04a45.608,45.608,0,0,1-7.128.576c-4.152,0-4.2-.912-4.272-3.5-.024-.936-.024-3.432,0-5.9,2.4-.24,5.208-.528,7.68-.72-.048,1.512-.144,3.144-.264,3.936-.072.552-.336.648-.912.648a12.418,12.418,0,0,1-2.4-.312l-.048,1.656a23.779,23.779,0,0,0,3.168.336c1.1,0,1.632-.312,1.848-1.368a35.861,35.861,0,0,0,.336-5.016c1.056-.072,1.968-.12,2.688-.144.6,0,1.512-.024,1.9,0V-13.7c-.576.024-1.248.072-1.872.12-.792.048-1.7.1-2.664.168.024-1.056.024-2.256.048-3.36C473.664-17.28,473.688-18.1,473.76-18.5Zm28.848,1.968v-1.776H481.416v1.776h9.168V1.8h1.9V-10.824a54.716,54.716,0,0,1,7.584,4.776l1.248-1.608a59.3,59.3,0,0,0-8.52-4.968l-.312.36v-4.272Zm13.968-.48c.168.552.408,1.272.7,2.16a50.148,50.148,0,0,1-9.48-.288l.048,1.92a61.662,61.662,0,0,0,10.08.048,32.064,32.064,0,0,0,2.9,5.472c-.864-.1-2.64-.24-3.984-.36L516.7-6.456a54.244,54.244,0,0,1,5.784.648l.984-1.344c-.36-.408-.72-.816-1.056-1.272a25.537,25.537,0,0,1-2.688-4.944,35.681,35.681,0,0,0,4.968-.984l-.216-1.872a30.824,30.824,0,0,1-5.352,1.176,28.68,28.68,0,0,1-1.1-4.1l-2.04.264C516.192-18.264,516.408-17.52,516.576-17.016Zm-5.088,9.528-1.872-.432a9.357,9.357,0,0,0-1.152,3.984c0,3.264,2.88,4.92,7.44,4.944A34.855,34.855,0,0,0,522.1.48l.1-1.92A26.752,26.752,0,0,1,516-.84c-3.552-.024-5.64-1.032-5.64-3.312A6.175,6.175,0,0,1,511.488-7.488Zm21.864-9.264-2.328-.048a10.823,10.823,0,0,1,.168,2.136c0,1.392.048,4.32.264,6.408C532.1-2.04,534.288.216,536.568.216c1.608,0,3.072-1.392,4.512-5.472l-1.512-1.7c-.624,2.4-1.752,4.9-2.976,4.9-1.7,0-2.88-2.664-3.264-6.672-.168-1.992-.192-4.176-.168-5.688A18.272,18.272,0,0,1,533.352-16.752Zm12.5.672-1.872.648c2.3,2.808,3.744,7.728,4.176,12.072l1.92-.792C549.72-8.208,547.992-13.3,545.856-16.08Zm10.8,10.224a3.662,3.662,0,0,0-3.648,3.648,3.667,3.667,0,0,0,3.648,3.672,3.657,3.657,0,0,0,3.672-3.672A3.652,3.652,0,0,0,556.656-5.856Zm0,6.1a2.438,2.438,0,0,1-2.424-2.448,2.448,2.448,0,0,1,2.424-2.424A2.438,2.438,0,0,1,559.1-2.208,2.428,2.428,0,0,1,556.656.24Z" transform="translate(14 335)" fill="#01abab"/>
  <g id="Group_44" data-name="Group 44" transform="translate(-731 -12689)">
    <circle id="Ellipse_5" data-name="Ellipse 5" cx="87.5" cy="87.5" r="87.5" transform="translate(1244 12738)" fill="#01abab"/>
    <path id="Path_708" data-name="Path 708" d="M-7.209-20.358v2.16H-19.6v-2.16ZM-19.6-15.12v-2.3H-7.209v2.3Zm0,.756H-7.209v1.134h.27a2.353,2.353,0,0,0,1.485-.54v-6.237a2.214,2.214,0,0,0,1.161-.54L-6.48-22.221l-1,1.08H-19.44l-1.89-.837v9.018h.243c.729,0,1.485-.4,1.485-.594Zm3.618,5.319h-4.59v-2.376h4.59Zm-4.59,4.077h4.59v2.133c-1.593.27-3.159.54-4.59.756Zm4.59-.783h-4.59V-8.235h4.59Zm14.2-5.67c.378,0,.594-.135.675-.432-.864-.837-2.376-2-2.376-2L-4.752-12.2H-25.839l.189.783h3.375v9.612c-1.512.243-2.781.432-3.564.513l1.08,2.214A.937.937,0,0,0-24.138.27c3.483-1,6.156-1.836,8.154-2.511V2.106h.27c.891,0,1.431-.4,1.431-.54V-11.421ZM-5.7-8.316A17.074,17.074,0,0,1-7.965-3.7a11.912,11.912,0,0,1-3.186-4.617Zm1.161-1.917L-5.7-9.126h-7.911l.243.81h1.647a14.734,14.734,0,0,0,2.889,5.7A16.608,16.608,0,0,1-13.77,1.3l.243.4A17.426,17.426,0,0,0-7.938-1.674,15.5,15.5,0,0,0-2.511,1.593,1.986,1.986,0,0,1-.918.081l.054-.3A17.6,17.6,0,0,1-6.831-2.781,16.718,16.718,0,0,0-3.618-8.127c.594-.027.864-.081,1.053-.351Zm29.7-3.645c.4,0,.648-.135.7-.432-1-.918-2.646-2.214-2.646-2.214l-1.485,1.863H13.959c.216-2.214.243-4.509.3-6.831.621-.108.837-.378.918-.783l-2.889-.3c0,2.754,0,5.4-.216,7.911H1.35l.243.783h10.4C11.286-7.857,8.964-2.592,1.08,1.62l.3.486c9.261-4.077,11.745-9.666,12.5-15.957C14.661-8.451,16.821-2,24.327,2.133A1.875,1.875,0,0,1,26.19.648l.054-.3C18.225-3.321,15.363-8.775,14.391-13.878Zm-89.73,41.792-.854-.466a12.565,12.565,0,0,1,3.882-5.577,8.768,8.768,0,0,1,5.253-1.617A7.366,7.366,0,0,1-51.807,21.5a5.251,5.251,0,0,1,2.51,4.192,6.814,6.814,0,0,1-1.281,3.8,19.14,19.14,0,0,1-4.49,4.3l.621-.026a8.037,8.037,0,0,1,3.895,1.022,7.148,7.148,0,0,1,2.963,3.183A10.194,10.194,0,0,1-46.5,42.613a11.5,11.5,0,0,1-3.662,8.553,12.835,12.835,0,0,1-9.329,3.558q-4.3,0-6.34-1.242a1.884,1.884,0,0,1-1.113-1.63,1.344,1.344,0,0,1,.453-.983,1.552,1.552,0,0,1,1.126-.44,3.678,3.678,0,0,1,2.07.932q2.873,2.2,4.995,2.2a7.547,7.547,0,0,0,5.693-2.7,9.692,9.692,0,0,0,2.484-6.819,8.974,8.974,0,0,0-1.669-5.6,5.113,5.113,0,0,0-4.231-2.187,6.186,6.186,0,0,0-3.985,1.812l-.621-1.035q1.294-1.113,2.329-1.889a20.173,20.173,0,0,0,4.71-4.529,5.182,5.182,0,0,0,1.113-2.821,4.635,4.635,0,0,0-1.449-3.455,5.223,5.223,0,0,0-3.8-1.41Q-61.615,22.919-64.566,27.914Zm40.035-3.8q-2.886.233-4.665.233-1.314,0-2.783-.078-.8-.052-.953-.052a19.358,19.358,0,0,0-3.376.129.323.323,0,0,0-.129.259q-.079.413-.683,9.213a9.6,9.6,0,0,1,2.245-.841,13.431,13.431,0,0,1,2.865-.246,6.672,6.672,0,0,1,1.755.155,18.928,18.928,0,0,1,3.536,1.451,9.4,9.4,0,0,1,2.439,2.124,12.145,12.145,0,0,1,1.742,3.5,10.644,10.644,0,0,1,.568,3.472,11.7,11.7,0,0,1-.556,3.666,10.226,10.226,0,0,1-1.385,2.837A11.82,11.82,0,0,1-26.368,52.3a11.825,11.825,0,0,1-3.843,1.878,15.314,15.314,0,0,1-2.963.674l-3.752-.336a9.577,9.577,0,0,1-2.717-.841A4.266,4.266,0,0,1-41.2,52.551a1.516,1.516,0,0,1-.233-.88,1.314,1.314,0,0,1,.582-.906,2.15,2.15,0,0,1,1.436-.492,1.932,1.932,0,0,1,.854.233l2.044,1.32a8.659,8.659,0,0,0,1.734,1.165,3.625,3.625,0,0,0,.776.181q1.5.207,1.63.207a7.154,7.154,0,0,0,1.941-.466A6.775,6.775,0,0,0-27.9,51.319a10.059,10.059,0,0,0,2.006-2.851,8.6,8.6,0,0,0,.841-3.823A8.548,8.548,0,0,0-27.4,38.45a7.6,7.6,0,0,0-5.667-2.436,7.42,7.42,0,0,0-2.73.492,3.821,3.821,0,0,0-1.7,1.087l-.388.155a1.374,1.374,0,0,1-.44.129l-.336-.078a4.671,4.671,0,0,1-.078-.7q0-.2.052-.7a19.345,19.345,0,0,0,.2-2.626,10.732,10.732,0,0,1,.28-2.445l-.064-1.241a12.867,12.867,0,0,0,.188-1.839q.08-5.974.508-6.857a.632.632,0,0,1,.621-.414,5.468,5.468,0,0,1,.6.052l.155.026,3.287-.026q2.226.129,3.287.129a18.229,18.229,0,0,0,3.908-.336,2.035,2.035,0,0,1,1.113-.673,5.51,5.51,0,0,1,.569.052l.078.311-.207,1.087-.129,1.734A5.57,5.57,0,0,1-24.531,24.11Zm10.066,30.773a3.835,3.835,0,0,1,.277-.488q.158-.237.409-.659.092-.145.983-1.483t1.22-1.879q5.9-9.993,8.537-13.566l.132-.013q.618.04.7.04l-5.765,9.031L-10.6,50.2l-3.034,4.654h-.092q-.066,0-.633.026Zm2.861-13.46a4.949,4.949,0,0,1-1.048,3.316,3.043,3.043,0,0,1-2.34,1.233,3,3,0,0,1-2.327-1.18,4.821,4.821,0,0,1-1.009-3.237,6.88,6.88,0,0,1,.514-2.663,3.572,3.572,0,0,1,1.187-1.5,2.821,2.821,0,0,1,1.7-.58,2.842,2.842,0,0,1,1.734.606,4.038,4.038,0,0,1,1.285,1.806A6.428,6.428,0,0,1-11.6,41.423Zm-1.477.25a18.672,18.672,0,0,0-.105-2.544,2.562,2.562,0,0,0-.633-1.424,1.554,1.554,0,0,0-1.107-.422,1.574,1.574,0,0,0-1.384.758,8.2,8.2,0,0,0-.5,3.685,5.969,5.969,0,0,0,.514,3.045,1.528,1.528,0,0,0,1.292.738,1.539,1.539,0,0,0,1.345-.633A6.088,6.088,0,0,0-13.081,41.673Zm15.1,7.989A4.909,4.909,0,0,1,.962,52.972,3.059,3.059,0,0,1-1.38,54.2,3,3,0,0,1-3.7,53.018a4.785,4.785,0,0,1-1.013-3.223,6.775,6.775,0,0,1,.526-2.676,3.534,3.534,0,0,1,1.171-1.5,2.792,2.792,0,0,1,1.7-.587,2.86,2.86,0,0,1,1.737.606A3.928,3.928,0,0,1,1.7,47.461,6.126,6.126,0,0,1,2.014,49.663ZM.538,49.9A16.541,16.541,0,0,0,.42,47.369a2.545,2.545,0,0,0-.631-1.43,1.559,1.559,0,0,0-1.1-.415,1.575,1.575,0,0,0-1.373.751q-.506.751-.506,3.678a6.025,6.025,0,0,0,.512,3.059,1.532,1.532,0,0,0,1.3.738,1.518,1.518,0,0,0,1.327-.633A6.025,6.025,0,0,0,.538,49.9Zm14.253,4.66c4.92,0,9.8-3.52,9.8-10.76,0-7.28-4.96-10.92-9.8-10.92-4.96,0-9.84,3.64-9.84,10.92C4.951,51.04,9.831,54.56,14.791,54.56Zm0-1.6c-4.04,0-6.44-3.16-6.44-9.16,0-5.96,2.4-9.32,6.44-9.32,4,0,6.44,3.36,6.44,9.32C21.231,49.8,18.791,52.96,14.791,52.96Zm29.44-19.52h-9.28c-.12-4.56.56-7,1.64-8.6a5.372,5.372,0,0,1,1.92-1.88l1.16.92a4.813,4.813,0,0,0,3,1.24,2.039,2.039,0,0,0,2.28-1.68c-.44-1.44-2-2.12-3.96-2.12a7.844,7.844,0,0,0-5.88,2.6c-1.88,1.96-2.8,4.56-3.08,9.4l-3.88.48v1.48h3.84v9.6c0,2.44-.04,4.88-.08,7.32l-3.72.52V54h11V52.72l-4.08-.52c-.04-2.44-.08-4.88-.08-7.32v-9.6h10.08v9.6c0,2.44-.04,4.88-.08,7.32l-3.72.52V54h11V52.72l-4.08-.52c-.04-2.44-.08-4.88-.08-7.32v-9.6h6.2V33.44h-6.24c-.16-4.68.52-7.12,1.56-8.72a5.045,5.045,0,0,1,1.88-1.8l1.16.96a4.867,4.867,0,0,0,3,1.24,2.039,2.039,0,0,0,2.28-1.68c-.44-1.44-2.04-2.12-3.96-2.12a7.707,7.707,0,0,0-5.84,2.6c-1.92,2-2.76,4.72-3.04,9.4Zm18.68,21.08a2.458,2.458,0,0,0,2.48-2.44,2.46,2.46,0,0,0-4.92,0A2.45,2.45,0,0,0,62.911,54.52Zm0-30.4c-1.24,0-2.04.72-2.04,2.32,0,1.8.44,5.72.96,11.68l.48,7.04h1.24l.48-7.04c.52-5.96.96-9.88.96-11.68C64.991,24.84,64.231,24.12,62.911,24.12Z" transform="translate(1332 12807)" fill="#fff"/>
  </g>
  <rect id="Rectangle_48" data-name="Rectangle 48" width="13" height="15" transform="translate(24.674 165.104) rotate(-41)" fill="#01abab"/>
  <rect id="Rectangle_60" data-name="Rectangle 60" width="13" height="15" transform="translate(990.158 158.925) rotate(-139)" fill="#01abab"/>
  <rect id="Rectangle_50" data-name="Rectangle 50" width="13" height="15" transform="translate(198.895 21.452) rotate(6)" fill="#13cf51"/>
  <rect id="Rectangle_59" data-name="Rectangle 59" width="13" height="15" transform="matrix(-0.995, 0.105, -0.105, -0.995, 590.139, 33.918)" fill="#13cf51"/>
  <rect id="Rectangle_51" data-name="Rectangle 51" width="13" height="15" transform="translate(385.68 246.271) rotate(16)" fill="#8989e1"/>
  <rect id="Rectangle_57" data-name="Rectangle 57" width="13" height="15" transform="translate(911.631 48.418) rotate(164)" fill="#8989e1"/>
  <rect id="Rectangle_54" data-name="Rectangle 54" width="13" height="15" transform="translate(517.295 274.933) rotate(16)" fill="#37dae6"/>
  <rect id="Rectangle_55" data-name="Rectangle 55" width="13" height="15" transform="translate(935 229.485) rotate(164)" fill="#37dae6"/>
  <rect id="Rectangle_52" data-name="Rectangle 52" width="13" height="15" transform="matrix(0.423, -0.906, 0.906, 0.423, 372, 53.023)" fill="#c86cda"/>
  <rect id="Rectangle_58" data-name="Rectangle 58" width="13" height="15" transform="translate(600.871 268.395) rotate(-115)" fill="#c86cda"/>
  <rect id="Rectangle_49" data-name="Rectangle 49" width="13" height="15" transform="translate(86.238 250.273) rotate(11)" fill="#e1ab42"/>
  <rect id="Rectangle_62" data-name="Rectangle 62" width="13" height="15" transform="translate(890.051 106.068) rotate(11)" fill="#e1ab42"/>
  <rect id="Rectangle_61" data-name="Rectangle 61" width="13" height="15" transform="translate(507.813 74.027) rotate(169)" fill="#e1ab42"/>
  <rect id="Rectangle_53" data-name="Rectangle 53" width="13" height="15" transform="matrix(0.839, 0.545, -0.545, 0.839, 273.467, 269.934)" fill="#dcdc41"/>
  <rect id="Rectangle_56" data-name="Rectangle 56" width="13" height="15" transform="matrix(-0.839, 0.545, -0.545, -0.839, 753.211, 262.854)" fill="#dcdc41"/>
  <g id="Layer_2" data-name="Layer 2" transform="translate(65.137 43.139)">
    <g id="Group_118" data-name="Group 118" transform="translate(0 -0.04)">
      <g id="Group_115" data-name="Group 115" transform="translate(0.68 39.536)">
        <path id="Path_421" data-name="Path 421" d="M4.664,189.232a1.429,1.429,0,0,1,1.453,1.507v1.988h-.5V190.74a.99.99,0,0,0-.973-1.008,1.017,1.017,0,0,0-1.014,1.034v1.959h-.5v-3.447h.5v.508a1.173,1.173,0,0,1,1.034-.556Z" transform="translate(-3.13 -187.653)" fill="#01abab"/>
        <path id="Path_422" data-name="Path 422" d="M22.383,189.288h.487v3.447h-.487v-.652a1.656,1.656,0,0,1-1.282.7,1.772,1.772,0,0,1-.048-3.543,1.54,1.54,0,0,1,1.329.636ZM21.047,192.3a1.285,1.285,0,1,0-1.247-1.288A1.263,1.263,0,0,0,21.047,192.3Z" transform="translate(-15.819 -187.661)" fill="#01abab"/>
        <path id="Path_423" data-name="Path 423" d="M41,183.6v.5h-.712v2.948h-.5V184.1H39.2v-.5h.589V181.98h.5V183.6Z" transform="translate(-31.365 -181.978)" fill="#01abab"/>
        <path id="Path_424" data-name="Path 424" d="M53.576,189.46h.5v3.447h-.5v-.487a1.115,1.115,0,0,1-1.043.534,1.459,1.459,0,0,1-1.453-1.507V189.46h.5v1.988a.99.99,0,0,0,.973,1.008c1.021,0,1.021-1.09,1.021-1.09v-1.9Z" transform="translate(-40.664 -187.833)" fill="#01abab"/>
        <path id="Path_425" data-name="Path 425" d="M71.033,189.24h.061l-.274.515a1.458,1.458,0,0,0-1.09,1.056v1.927h-.5V189.29h.5v.582a1.607,1.607,0,0,1,1.3-.63Z" transform="translate(-54.872 -187.661)" fill="#01abab"/>
        <path id="Path_426" data-name="Path 426" d="M82.683,189.288h.487v3.447h-.487v-.652a1.656,1.656,0,0,1-1.282.7,1.772,1.772,0,0,1-.048-3.543,1.54,1.54,0,0,1,1.329.636ZM81.347,192.3a1.285,1.285,0,1,0-1.247-1.288A1.263,1.263,0,0,0,81.347,192.3Z" transform="translate(-63.021 -187.661)" fill="#01abab"/>
        <path id="Path_427" data-name="Path 427" d="M100.75,187.052h-.5V181.98h.5Z" transform="translate(-79.154 -181.978)" fill="#01abab"/>
        <path id="Path_428" data-name="Path 428" d="M118.093,189.288h.487v3.447h-.487v-.652a1.655,1.655,0,0,1-1.282.7,1.772,1.772,0,0,1-.048-3.543,1.54,1.54,0,0,1,1.329.636Zm-1.336,3.008a1.285,1.285,0,1,0-1.247-1.288A1.263,1.263,0,0,0,116.757,192.3Z" transform="translate(-90.739 -187.661)" fill="#01abab"/>
        <path id="Path_429" data-name="Path 429" d="M137.814,189.3h.487v3.154a1.809,1.809,0,0,1-3.5.728l.467-.143a1.165,1.165,0,0,0,1.234.808,1.234,1.234,0,0,0,1.31-1.364v-.369a1.541,1.541,0,0,1-1.364.686,1.772,1.772,0,0,1-.009-3.543,1.7,1.7,0,0,1,1.371.693v-.645Zm-1.371,3.008a1.285,1.285,0,1,0-1.269-1.282A1.273,1.273,0,0,0,136.443,192.312Z" transform="translate(-106.129 -187.676)" fill="#01abab"/>
        <path id="Path_430" data-name="Path 430" d="M157.461,191.821l.356.337a2.146,2.146,0,0,1-1.434.617,1.735,1.735,0,0,1-1.733-1.742,1.693,1.693,0,1,1,3.38,0v.206h-2.865a1.24,1.24,0,0,0,1.221,1.043,1.493,1.493,0,0,0,1.075-.458Zm-1.1-2.124a1.15,1.15,0,0,0-1.2,1.069h2.35A1.108,1.108,0,0,0,156.364,189.7Z" transform="translate(-121.737 -187.653)" fill="#01abab"/>
        <path id="Path_431" data-name="Path 431" d="M174.126,182.96h-.506v-.98h.506Zm0,4.092h-.506V183.6h.506Z" transform="translate(-136.587 -181.978)" fill="#01abab"/>
        <path id="Path_432" data-name="Path 432" d="M180.9,189.232a1.429,1.429,0,0,1,1.453,1.507v1.988h-.5V190.74a.99.99,0,0,0-.973-1.008,1.017,1.017,0,0,0-1.014,1.034v1.959h-.5v-3.447h.5v.508a1.173,1.173,0,0,1,1.034-.556Z" transform="translate(-141.088 -187.653)" fill="#01abab"/>
        <path id="Path_433" data-name="Path 433" d="M198.694,189.3h.487v3.154a1.809,1.809,0,0,1-3.5.728l.467-.143a1.165,1.165,0,0,0,1.234.808,1.234,1.234,0,0,0,1.31-1.364v-.369a1.541,1.541,0,0,1-1.364.686,1.772,1.772,0,0,1-.009-3.543,1.7,1.7,0,0,1,1.371.693v-.645Zm-1.371,3.008a1.285,1.285,0,1,0-1.269-1.282A1.273,1.273,0,0,0,197.323,192.312Z" transform="translate(-153.784 -187.676)" fill="#01abab"/>
        <path id="Path_434" data-name="Path 434" d="M227.412,183.54a1.775,1.775,0,0,1,.015,3.549,1.734,1.734,0,0,1-1.371-.719v.671h-.487V181.97h.487v2.283a1.592,1.592,0,0,1,1.358-.712Zm.013,3.065a1.288,1.288,0,1,0-1.275-1.288A1.278,1.278,0,0,0,227.425,186.605Z" transform="translate(-177.252 -181.97)" fill="#01abab"/>
        <path id="Path_435" data-name="Path 435" d="M247.361,191.821l.356.337a2.146,2.146,0,0,1-1.434.617,1.735,1.735,0,0,1-1.733-1.742,1.693,1.693,0,1,1,3.38,0v.206h-2.865a1.24,1.24,0,0,0,1.221,1.043,1.493,1.493,0,0,0,1.075-.458Zm-1.1-2.124a1.15,1.15,0,0,0-1.2,1.069h2.35A1.108,1.108,0,0,0,246.264,189.7Z" transform="translate(-192.11 -187.653)" fill="#01abab"/>
        <path id="Path_436" data-name="Path 436" d="M265.623,189.288h.487v3.447h-.487v-.652a1.656,1.656,0,0,1-1.282.7,1.772,1.772,0,0,1-.048-3.543,1.54,1.54,0,0,1,1.329.636Zm-1.336,3.008a1.285,1.285,0,1,0-1.247-1.288A1.263,1.263,0,0,0,264.287,192.3Z" transform="translate(-206.223 -187.661)" fill="#01abab"/>
        <path id="Path_437" data-name="Path 437" d="M285.676,189.46h.5v3.447h-.5v-.487a1.115,1.115,0,0,1-1.043.534,1.459,1.459,0,0,1-1.453-1.507V189.46h.5v1.988a.99.99,0,0,0,.973,1.008c1.021,0,1.021-1.09,1.021-1.09v-1.9Z" transform="translate(-222.349 -187.833)" fill="#01abab"/>
        <path id="Path_438" data-name="Path 438" d="M302.381,183.6v.5h-.712v2.948h-.5V184.1h-.589v-.5h.589V181.98h.5V183.6Z" transform="translate(-235.969 -181.978)" fill="#01abab"/>
        <path id="Path_439" data-name="Path 439" d="M313.782,189.46h.541l-2.27,5.059h-.541l.726-1.618-1.358-3.441h.541l1.1,2.8,1.253-2.8Z" transform="translate(-244.032 -187.833)" fill="#01abab"/>
      </g>
      <g id="Group_116" data-name="Group 116" transform="translate(71.964 39.108)">
        <path id="Path_440" data-name="Path 440" d="M339.9,183.9a1.563,1.563,0,0,0-.371.51,20.478,20.478,0,0,1-1.158,2.15c.441.358,1.64,1.269,1.64,2.329a.806.806,0,0,1-.73.828c-.345,0-.482-.206-.841-.7-.3-.413-.828-1.158-.91-1.253a11.364,11.364,0,0,1-6.173,4.257l-.054-.111a16.934,16.934,0,0,0,5.317-5.126,15.022,15.022,0,0,0-3.032-2.024,9.116,9.116,0,0,1,3.6,1.06,13.219,13.219,0,0,0,1.158-2.783c0-.469-.771-.745-.993-.812a1.672,1.672,0,0,1,.923-.289,2.44,2.44,0,0,1,2.024,1.488c0,.152-.1.222-.4.482Z" transform="translate(-331.3 -181.511)" fill="#01abab"/>
        <path id="Path_441" data-name="Path 441" d="M392.194,184.162a1.238,1.238,0,0,0-.578.276,20.762,20.762,0,0,1-2.6,1.818l-.083-.07a11.9,11.9,0,0,0,1.516-2.589c-1.143.317-2.37.717-3.541,1.1-.028.371-.1,1.681-.1,2.839,0,.91.1,1.31,1.475,1.31a10.54,10.54,0,0,0,2.2-.276,1.986,1.986,0,0,1,.413-.054,2.283,2.283,0,0,1,1.171.33.553.553,0,0,1,.193.441c0,.7-1.088.841-2.674.841-3.995,0-3.982-.786-3.9-5.044a13.724,13.724,0,0,0-2,.923.84.84,0,0,1-.428.152c-.536,0-1.336-.91-1.336-1.736a2.043,2.043,0,0,1,.137-.758c.345.606.606.993,1.269.993a13.587,13.587,0,0,0,2.383-.51,18.4,18.4,0,0,0-.137-3.045c-.193-.428-.869-.537-1.212-.593A1.93,1.93,0,0,1,385.6,180c.428,0,1.818.263,1.818.8,0,.07-.165.634-.165.647a19.109,19.109,0,0,0-.276,2.357c1.171-.33,3.445-.964,3.528-1.019.137-.083.387-.263.552-.387a.257.257,0,0,1,.165-.054,5.528,5.528,0,0,1,1.295.841c.193.152.387.289.387.523,0,.263-.07.289-.7.454Z" transform="translate(-370.932 -180)" fill="#01abab"/>
        <path id="Path_442" data-name="Path 442" d="M442.884,185.549c-.054.248-.289,1.942-.358,2.316a6.331,6.331,0,0,1-3.623,4.768l-.083-.083a9.478,9.478,0,0,0,2.674-6.957c0-.869-.235-.936-1.13-1.212a2.472,2.472,0,0,1,1.088-.387c.441,0,1.625.441,1.625.923,0,.111-.178.537-.193.634Zm3.969,5.126c-.263.206-1.392,1.088-1.612,1.282-.263.206-.317.219-.371.219-.345,0-1.047-1.212-1.047-1.542a8.261,8.261,0,0,1,.219-.812c.07-.387.137-2.218.137-3.223a14.251,14.251,0,0,0-.18-2.852c-.193-.345-.771-.469-1.034-.537a1.745,1.745,0,0,1,.951-.4c.482,0,1.833.5,1.833,1.006a8.256,8.256,0,0,1-.248.828c-.124.593-.289,4.257-.289,5.111,0,.111.028.206.124.206.523,0,3.28-1.97,5.016-4.134l.1.083a10.7,10.7,0,0,1-3.595,4.768Z" transform="translate(-415.465 -182.2)" fill="#01abab"/>
      </g>
      <g id="Group_117" data-name="Group 117" transform="translate(0 0)">
        <path id="Path_443" data-name="Path 443" d="M8.678,5.288,9.2,4.626c.1-.128.139-.152.187-.152.07,0,.128.059.222.139l.756.649a.259.259,0,0,1,.1.187c0,.1-.093.115-.174.115H4.963l.569.163c.1.035.232.07.232.222,0,.115-.059.152-.267.291a3.22,3.22,0,0,1-.139.871H8.576l.441-.58c.1-.128.139-.152.187-.152s.07,0,.232.139l.708.569a.26.26,0,0,1,.128.187c0,.1-.1.117-.174.117H5.637A5.143,5.143,0,0,0,9.994,9.47c.152,0,.267,0,.569-.024v.093A1.947,1.947,0,0,0,9.484,10.7a5.107,5.107,0,0,1-4.125-3.31h-.08c-.964,2.648-3.147,3.056-5.076,3.2v-.093a5.181,5.181,0,0,0,4.008-3.1H1.453A6.882,6.882,0,0,0,.2,7.471L0,7.041c.708.07,1.534.07,1.662.07H4.275a5.1,5.1,0,0,0,.174-1.186,2.3,2.3,0,0,0-.035-.361H1.544a6.882,6.882,0,0,0-1.256.08L.1,5.214c.708.07,1.523.07,1.649.07H4.468V3.879H2.587a6.882,6.882,0,0,0-1.256.08l-.187-.43c.708.07,1.523.07,1.649.07H4.466V2.471H1.944a7.229,7.229,0,0,0-1.256.07L.5,2.121c.7.059,1.523.07,1.649.07H5.658A5.2,5.2,0,0,0,6.391-.04L7.633.727c.093.059.152.093.152.209,0,.152-.1.174-.4.232-.454.348-.558.419-1.475,1.023H8.18l.5-.628c.093-.115.117-.139.174-.139.083,0,.152.07.222.128l.673.6c.059.059.117.115.117.187,0,.1-.1.128-.187.128H5.45V3.6h1.8l.361-.489c.07-.1.1-.152.174-.152s.08.024.222.128l.628.5a.219.219,0,0,1,.117.174c0,.1-.093.115-.174.115H5.452V5.28H8.669ZM2.183.19C3.519.353,4.3.992,4.3,1.607a.526.526,0,0,1-.523.58c-.326,0-.406-.174-.663-.673A3.316,3.316,0,0,0,2.146.281L2.181.188Z" transform="translate(0 0.04)" fill="#01abab"/>
        <path id="Path_444" data-name="Path 444" d="M57.353,5.8H53.8c.011.545-.011,1.592-.059,2.183A6.874,6.874,0,0,0,55.6,5.926l.847.639a.26.26,0,0,1,.128.187c0,.163-.243.174-.51.174a8.531,8.531,0,0,1-2.335,1.208,5.572,5.572,0,0,1-1.557,3.682l-.08-.035c.8-1.069.8-4,.8-4.625a11.444,11.444,0,0,0-.163-2.1l1.186.465H55.1a5.989,5.989,0,0,0,.454-1.777c0-.1-.011-.267-.024-.476l1.162.489c.152.059.222.1.222.222,0,.093-.011.152-.406.278A16.375,16.375,0,0,1,55.335,5.52h.906l.348-.4q.128-.139.174-.139c.083,0,.187.093.222.117l.43.382c.011.011.117.117.117.187,0,.1-.093.128-.174.128ZM57.26,3.07H53.915a5.989,5.989,0,0,0-1.256.08l-.2-.43c.708.07,1.534.07,1.662.07h.43a3.268,3.268,0,0,0-.291-1.51l1.2.3c.256.07.267.128.267.222s0,.115-.267.291v.7h.652l.313-.406c.1-.139.139-.139.174-.139.059,0,.093.024.209.115l.51.406a.219.219,0,0,1,.117.174c0,.115-.093.128-.174.128Zm-.267,6.354a7.88,7.88,0,0,1-3.754,1.846v-.08a11.124,11.124,0,0,0,2.568-1.87,6.809,6.809,0,0,0,.778-.919l.791.639a.18.18,0,0,1,.08.163c0,.174-.07.187-.465.222ZM54.2,5.312c-.337,0-.441-.174-.545-.708a3.829,3.829,0,0,0-.382-1.162l.035-.07c.406.115,1.429.569,1.429,1.371a.513.513,0,0,1-.534.569Zm2.568,2.741a6.883,6.883,0,0,1-3.043,1.44V9.434a7.045,7.045,0,0,0,2.6-2.394l.756.6a.413.413,0,0,1,.128.222c0,.139-.152.163-.441.187Zm5.715-5.541H60.314a7.98,7.98,0,0,1-1.045,1.534H60.8l.4-.361c.07-.07.128-.128.2-.128a.454.454,0,0,1,.232.128l.489.371c.083.059.117.093.117.163,0,.093-.011.152-.313.43.011.291,0,.348.011.836.024.93.083,2.776.093,3.543a.552.552,0,0,1-.593.6c-.417,0-.43-.163-.43-.4h-2.37a.316.316,0,0,1-.024.174l.812.7a.3.3,0,0,1,.115.2c0,.139-.059.139-.5.128A8.4,8.4,0,0,1,55.563,11.7l-.011-.08a10.626,10.626,0,0,0,2.88-2.009.762.762,0,0,1-.384.1c-.361,0-.361-.152-.361-.291,0-.58.035-3.428.035-4.077a10.623,10.623,0,0,0-.117-1.835l1.149.534h.291a14.031,14.031,0,0,0,.07-1.534h-.267a5.656,5.656,0,0,0-1.256.08l-.187-.43c.545.046,1.093.07,1.649.07h2.057l.4-.523c.1-.128.139-.152.187-.152s.1.046.209.128l.652.523c.035.035.115.093.115.174,0,.117-.115.128-.187.128ZM61,4.323H58.617V5.659H61Zm0,1.614H58.617V7.273H61Zm0,1.614H58.617V8.956H61Zm1.034,4.194c-.326,0-.441-.174-.825-.732a8.543,8.543,0,0,0-1.277-1.381l.046-.059c1.627.256,2.544,1.023,2.544,1.7a.457.457,0,0,1-.489.476Z" transform="translate(-40.775 -0.993)" fill="#01abab"/>
        <path id="Path_445" data-name="Path 445" d="M106.643,23.006a1.023,1.023,0,1,1,1.023-1.023A1.018,1.018,0,0,1,106.643,23.006Z" transform="translate(-82.678 -16.398)" fill="#01abab"/>
        <path id="Path_446" data-name="Path 446" d="M122.463,1.977l.43-.278a.5.5,0,0,1,.209-.08.167.167,0,0,1,.139.08l.545.663a.478.478,0,0,1,.1.232c0,.209-.337.267-.5.3a14.636,14.636,0,0,1-2.079,2.544,6.584,6.584,0,0,1-3,1.742l-.024-.07a13.765,13.765,0,0,0,2.683-2.463c-.117,0-.267,0-.489-.326a5.093,5.093,0,0,0-.964-1.173l.024-.093c.743.035,1.777.187,1.916.941a8.789,8.789,0,0,0,1-1.742h-1.149a6.6,6.6,0,0,0-1.256.08l-.187-.43c.545.046,1.1.07,1.649.07h.941Zm.545,6.18c-.291,2.5-1.662,3.265-3.823,3.66l-.046-.117c2.381-.847,2.7-2.114,2.869-3.543h-1.127a7.229,7.229,0,0,0-1.256.07l-.187-.419c.7.059,1.523.07,1.649.07h.954c0-.035.07-.882.059-1.627a5.142,5.142,0,0,0-.895.07l-.187-.43c.7.07,1.523.07,1.649.07h1.79L125,5.331c.115-.128.128-.139.174-.139s.117.035.222.115l.767.639c.059.046.117.093.117.174,0,.1-.093.117-.174.117h-1.023c0,.267.024,1.405.024,1.638h.951l.5-.686c.046-.059.1-.152.174-.152s.08.024.222.128l.871.686a.244.244,0,0,1,.115.174c0,.1-.1.128-.187.128h-2.648c.011.348-.011,1.929.046,2.183.046.222.059.291,1.266.291.871,0,.975-.209,1.069-.4a13.941,13.941,0,0,0,.58-1.592h.1c.011.975.024,1.312.2,1.6.035.059.278.267.278.326a1.283,1.283,0,0,1-.43.663c-.267.256-.6.361-1.766.361-1.985,0-2.231-.267-2.276-1.149-.011-.278-.011-1.94-.011-2.289H123Zm1.162-.278V6.241h-1.1a15.221,15.221,0,0,1-.024,1.638Zm3.6-4.6c.139.117.163.174.163.209,0,.163-.139.174-.51.163-.174.08-.941.384-1.416.569a6.165,6.165,0,0,0,3.532,1.5v.093a2.241,2.241,0,0,0-1.208,1.045,6.329,6.329,0,0,1-2.717-2.022,7.71,7.71,0,0,1-1.825-3.289l.128-.046a5.406,5.406,0,0,0,.917,1.488,4.157,4.157,0,0,0,.93-1.707L126.7,2c.115.08.163.115.163.209,0,.139-.163.174-.243.174a.445.445,0,0,1-.163-.024,11.746,11.746,0,0,1-1.451.847,9.316,9.316,0,0,0,.778.812,3.457,3.457,0,0,0,1.023-1.51l.964.767Z" transform="translate(-92.595 -0.993)" fill="#01abab"/>
        <path id="Path_447" data-name="Path 447" d="M175.054,4.861a6.911,6.911,0,0,0-1.232.209l-.243-.4c.639-.024,1.488-.093,1.649-.117l2-.222.024-1.79a18.473,18.473,0,0,1-3.286.313c-.5,0-.825-.024-1.1-.035v-.1a38.072,38.072,0,0,0,6.506-1.557c1.023-.326,1.1-.419,1.312-.652l.882.847c.083.08.128.128.128.187,0,.163-.152.163-.2.163s-.313-.035-.371-.035c-.686.163-1.5.348-1.975.454-.256.059-.721.163-.906.2l-.046,1.9,2.1-.222.361-.639c.093-.163.115-.209.2-.209a.474.474,0,0,1,.222.115l.767.523c.08.059.139.093.139.187s-.08.1-.163.117l-3.636.406c-.024.791-.035,1.662-.046,2.359l3.056-.348.465-.721c.059-.093.1-.174.174-.174a.384.384,0,0,1,.222.1l.812.58c.08.059.128.1.128.187s-.1.115-.163.128l-4.7.523c-.011.419-.035,2.092-.035,2.4,0,.256.046.348.232.406s1.416.059,1.7.059c1.534,0,1.638-.139,1.859-.663a4.54,4.54,0,0,0,.382-1.312h.093a8.131,8.131,0,0,0,.371,1.429,2.532,2.532,0,0,1,.326.523,1.063,1.063,0,0,1-.534.652,8.45,8.45,0,0,1-2.683.3c-2.276,0-2.7-.2-2.7-1.347,0-.174.035-1.974.046-2.346l-2.846.313a6.471,6.471,0,0,0-1.242.222l-.232-.4c.663-.024,1.534-.1,1.649-.115l2.672-.3c0-.371.035-2.022.035-2.359l-2.161.243Z" transform="translate(-135.312 -0.391)" fill="#01abab"/>
      </g>
      <path id="Path_448" data-name="Path 448" d="M22.811,64.33a7.2,7.2,0,0,0-5.9,3.08,7.191,7.191,0,0,0-10.5-1.416v-.28H3.8V86.262H6.407V71.535a4.6,4.6,0,0,1,9.2,0V86.262H18.21V71.535a4.6,4.6,0,0,1,9.2,0V86.262h2.607V71.535a7.213,7.213,0,0,0-7.205-7.205Z" transform="translate(-2.975 -50.348)" fill="#01abab"/>
      <path id="Path_449" data-name="Path 449" d="M146.173,82.554a11.542,11.542,0,1,1,8.163-19.7l.591.628-14.4,14.475a10,10,0,0,0,5.645,2.02,8.9,8.9,0,0,0,6.336-2.624,4.9,4.9,0,0,0,.7-.788l2.587.9a17.634,17.634,0,0,1-1.464,1.714,11.463,11.463,0,0,1-8.161,3.38Zm0-20.505a8.963,8.963,0,0,0-8.962,8.96,8.41,8.41,0,0,0,1.594,5.246L151.364,63.7a8.3,8.3,0,0,0-5.191-1.655Z" transform="translate(-105.386 -46.543)" fill="#01abab"/>
      <path id="Path_450" data-name="Path 450" d="M243.375,42.334l-.217,0a7.737,7.737,0,0,1-6.725-4.9l2.35-1.03a5.264,5.264,0,0,0,4.486,3.319,4.688,4.688,0,0,0,2.142-8.8l-6.269-3.432a10.851,10.851,0,0,1-5.641-9.521,9.881,9.881,0,0,1,19.584-1.87l.18.934-2.57.9-.169-1.347a7.275,7.275,0,0,0-14.419,1.377,8.242,8.242,0,0,0,4.286,7.233l6.269,3.432a7.3,7.3,0,0,1-3.286,13.691h0Z" transform="translate(-182.78 -6.324)" fill="#01abab"/>
      <path id="Path_451" data-name="Path 451" d="M349.393,10.707V8.1H332.4V42.342h16.993V39.735H335.007V26.524h14.386V23.918H335.007V10.707Z" transform="translate(-260.197 -6.332)" fill="#01abab"/>
      <path id="Path_452" data-name="Path 452" d="M436.255,41.551H420.88V38.945h12.768V7.09h2.607Z" transform="translate(-329.458 -5.541)" fill="#01abab"/>
    </g>
  </g>
</svg>
