<svg xmlns="http://www.w3.org/2000/svg" width="220" height="220" viewBox="0 0 220 220">
  <g id="Group_346" data-name="Group 346" transform="translate(-587 -2872)">
    <g id="Ellipse_63" data-name="Ellipse 63" transform="translate(587 2872)" fill="#f1fbfc" stroke="#01abab" stroke-width="1">
      <circle cx="110" cy="110" r="110" stroke="none"/>
      <circle cx="110" cy="110" r="109.5" fill="none"/>
    </g>
    <path id="Path_716" data-name="Path 716" d="M-27-13.71h-3.78a17.245,17.245,0,0,1-2.67-.18v1.98c.72-.09,1.08-.12,1.8-.15a14.816,14.816,0,0,0,1.38,3.24,19.552,19.552,0,0,0,3.15,4.38A23.865,23.865,0,0,1-35.97.24a6.106,6.106,0,0,1,1.11,1.8,27.69,27.69,0,0,0,9.03-5.19,28.381,28.381,0,0,0,8.49,5.34A8.04,8.04,0,0,1-16.17.27a22.9,22.9,0,0,1-8.28-4.65,26.217,26.217,0,0,0,5.07-6.63,15.019,15.019,0,0,1,.93-1.68l-1.02-1.14a11.417,11.417,0,0,1-2.07.12h-3.63V-18.6h5.1a22.118,22.118,0,0,1,3.12.18v-2.07a22.416,22.416,0,0,1-3.12.18h-5.1v-1.5a17.988,17.988,0,0,1,.21-3.03h-2.25A18.969,18.969,0,0,1-27-21.81v1.5h-3.6a24.893,24.893,0,0,1-3.15-.15v2.01a26.169,26.169,0,0,1,3.18-.15H-27Zm6.09,1.65a20.1,20.1,0,0,1-4.86,6.45,16.213,16.213,0,0,1-4.02-6.45Zm-18.15-5.25v6.75a18.17,18.17,0,0,1-4.17,1.44l.6,2.04c.45-.24.75-.36,1.2-.57.87-.36,1.56-.63,2.37-.99V-.6c0,.69-.24.87-1.17.87A19.448,19.448,0,0,1-42.99.03a5.43,5.43,0,0,1,.45,1.89c.75.06,1.53.09,2.25.09,2.49,0,3.12-.42,3.12-2.13V-9.51c1.08-.51,1.08-.51,2.91-1.41l-.03-1.86c-1.35.69-1.83.93-2.88,1.41v-5.94h.63a18.37,18.37,0,0,1,2.28.12v-1.95a12.706,12.706,0,0,1-2.22.15h-.69V-21.9a17.85,17.85,0,0,1,.21-3h-2.31a19.224,19.224,0,0,1,.21,3.03v2.88h-1.62a14.485,14.485,0,0,1-2.46-.18v2.04a15.763,15.763,0,0,1,2.46-.18ZM.66-18.75v-3.09a19.078,19.078,0,0,1,.18-2.82H-1.32a19.96,19.96,0,0,1,.18,2.82v3.09H-3.06a14.786,14.786,0,0,1-2.61-.15v1.98a12.7,12.7,0,0,1,2.34-.15h2.19V-1.41a28.036,28.036,0,0,1-.18,3.36H.84A26.656,26.656,0,0,1,.66-1.41V-17.07H2.61a12.7,12.7,0,0,1,2.34.15V-18.9a14.823,14.823,0,0,1-2.58.15ZM8.79-15V-.78c0,.54-.21.66-.99.66A18.481,18.481,0,0,1,4.2-.45,7.24,7.24,0,0,1,4.59,1.5c.69.06,1.98.12,2.73.12a7.251,7.251,0,0,0,2.52-.33c.57-.24.84-.93.84-2.04V-15h.66a13.376,13.376,0,0,1,2.43.15v-2.01a13.176,13.176,0,0,1-2.43.15H7.26a11.443,11.443,0,0,1-2.28-.15v2.01A11.814,11.814,0,0,1,7.26-15ZM-8.22-24.99a16.842,16.842,0,0,1-5.52,6,4.381,4.381,0,0,1,1.17,1.47,27.244,27.244,0,0,0,4.83-4.83c.9-1.2.9-1.2,1.29-1.65Zm3.21,10.5A30.343,30.343,0,0,1-7.35-2.37a8.55,8.55,0,0,1,1.62.96c1.38-3.36,2.1-7.05,2.46-12.9Zm7.17.36A52.7,52.7,0,0,1,4.41-2.94l1.77-.63A66.926,66.926,0,0,0,3.75-14.61Zm-.78-9.3a17.02,17.02,0,0,1,2.49,3.81l1.41-.93a22.59,22.59,0,0,0-2.52-3.66Zm11.85.45a15.013,15.013,0,0,1-2.25.15H8.01a15.013,15.013,0,0,1-2.25-.15v2.01a16.154,16.154,0,0,1,2.22-.15h3a15.629,15.629,0,0,1,2.25.15ZM-10.5-1.5a21.558,21.558,0,0,1-.18,3.54h2.19a20.934,20.934,0,0,1-.18-3.51V-13.74c.45-.6,1.2-1.71,1.53-2.25.33-.6.69-1.14.99-1.62l-1.74-1.11a12.221,12.221,0,0,1-1.32,2.67,19.413,19.413,0,0,1-4.83,5.22,6.27,6.27,0,0,1,1.05,1.68,15.768,15.768,0,0,0,2.58-2.73c-.06,1.41-.09,2.31-.09,3.51ZM30.03-18.66c.15-2.61.15-2.61.15-4.02a20.651,20.651,0,0,1,.15-2.43H27.96a16.947,16.947,0,0,1,.18,2.91c0,1.23-.03,2.19-.12,3.54H22.05a25.941,25.941,0,0,1-3.72-.18v2.19a26.61,26.61,0,0,1,3.69-.18H27.9c-.69,6.42-2.37,10.29-5.85,13.44A18.5,18.5,0,0,1,17.01-.15,4.8,4.8,0,0,1,18.6,1.53c4.05-2.31,6.6-4.68,8.34-7.77a26.41,26.41,0,0,0,2.97-10.59h9.27a111.6,111.6,0,0,1-.66,11.67c-.45,3.63-.84,4.38-2.43,4.38a27.029,27.029,0,0,1-5.7-.75A9.432,9.432,0,0,1,30.9.72a37.3,37.3,0,0,0,5.34.48c2.4,0,3.3-.81,3.84-3.42a93.015,93.015,0,0,0,1.05-12.66c.06-2.85.06-2.85.15-3.93a24.285,24.285,0,0,1-3.51.15Z" transform="translate(697 3049)" fill="#01abab"/>
    <g id="Layer_2" data-name="Layer 2" transform="translate(658.004 2913.344)">
      <path id="Path_670" data-name="Path 670" d="M11.509,40.353H46.5S57.776,59.3,58.313,61.04s-1.2,7.053-5.1,6.825-46.283.44-48.217,0-4.86-4.892-2.91-8.89S11.509,40.353,11.509,40.353Z" transform="translate(0.135 11.999)" fill="#7fd5d5"/>
      <g id="Group_342" data-name="Group 342" transform="translate(0.996 1)">
        <rect id="Rectangle_152" data-name="Rectangle 152" width="26.764" height="6.668" transform="translate(15.208 13.48)" fill="none" stroke="#01abab" stroke-linecap="round" stroke-linejoin="round" stroke-width="2"/>
        <path id="Path_666" data-name="Path 666" d="M19.688,16.86V32.388l-18.2,35.65a4.416,4.416,0,0,0,3.941,6.42H54.137a4.416,4.416,0,0,0,3.941-6.42L39.888,32.4V16.873" transform="translate(-0.996 3.836)" fill="none" stroke="#01abab" stroke-linecap="round" stroke-linejoin="round" stroke-width="2"/>
        <line id="Line_54" data-name="Line 54" x2="36.224" transform="translate(10.497 51.596)" fill="none" stroke="#01abab" stroke-linecap="round" stroke-linejoin="round" stroke-width="2"/>
        <path id="Path_667" data-name="Path 667" d="M27.681,32.442a3.815,3.815,0,0,1-7.621,0c0-2,2.336-4.88,3.81-5.872,1.918,1.07,3.81,3.863,3.81,5.872Z" transform="translate(4.817 6.797)" fill="none" stroke="#01abab" stroke-linecap="round" stroke-linejoin="round" stroke-width="2"/>
        <path id="Path_668" data-name="Path 668" d="M50.108,1.44h-8.43L37.45,8.734l4.228,7.308h8.43l4.215-7.308Z" transform="translate(10.12 -0.866)" fill="none" stroke="#01abab" stroke-linecap="round" stroke-linejoin="round" stroke-width="2"/>
        <path id="Path_669" data-name="Path 669" d="M59.715,7.03h-8.43L47.07,14.338l4.215,7.308h8.43l4.215-7.308Z" transform="translate(13.053 0.839)" fill="none" stroke="#01abab" stroke-linecap="round" stroke-linejoin="round" stroke-width="2"/>
        <line id="Line_55" data-name="Line 55" y1="6.759" x2="4.476" transform="translate(59.862 22.484)" fill="none" stroke="#01abab" stroke-linecap="round" stroke-linejoin="round" stroke-width="2"/>
        <line id="Line_56" data-name="Line 56" x1="4.972" y1="4.463" transform="translate(60.123 34.358)" fill="none" stroke="#01abab" stroke-linecap="round" stroke-linejoin="round" stroke-width="2"/>
        <line id="Line_57" data-name="Line 57" x2="4.998" y2="2.753" transform="translate(42.572 5.115)" fill="none" stroke="#01abab" stroke-linecap="round" stroke-linejoin="round" stroke-width="2"/>
        <circle id="Ellipse_64" data-name="Ellipse 64" cx="3.419" cy="3.419" r="3.419" transform="translate(35.956)" fill="none" stroke="#01abab" stroke-linecap="round" stroke-linejoin="round" stroke-width="2"/>
        <circle id="Ellipse_65" data-name="Ellipse 65" cx="3.419" cy="3.419" r="3.419" transform="translate(54.603 28.591)" fill="none" stroke="#01abab" stroke-linecap="round" stroke-linejoin="round" stroke-width="2"/>
        <circle id="Ellipse_66" data-name="Ellipse 66" cx="3.419" cy="3.419" r="3.419" transform="translate(64.325 37.777)" fill="none" stroke="#01abab" stroke-linecap="round" stroke-linejoin="round" stroke-width="2"/>
      </g>
    </g>
  </g>
</svg>
