<svg xmlns="http://www.w3.org/2000/svg" width="340.001" height="91.002" viewBox="0 0 340.001 91.002">
  <g id="Union_3" data-name="Union 3" transform="translate(-546.002 -16137.998)" fill="#fff">
    <path d="M 716.4999389648438 16228.4228515625 L 697.7119750976562 16217.56640625 L 697.5958862304688 16217.4990234375 L 697.4617919921875 16217.4990234375 L 586.0028076171875 16217.4990234375 C 580.6701049804688 16217.4990234375 575.4971313476562 16216.455078125 570.6276245117188 16214.3955078125 C 565.9240112304688 16212.4052734375 561.6996459960938 16209.5576171875 558.0718383789062 16205.9296875 C 554.4440307617188 16202.3017578125 551.5958251953125 16198.0771484375 549.6063232421875 16193.3740234375 C 547.5467529296875 16188.5048828125 546.50244140625 16183.33203125 546.50244140625 16177.9990234375 C 546.50244140625 16172.666015625 547.5467529296875 16167.4931640625 549.6063232421875 16162.6240234375 C 551.5958251953125 16157.919921875 554.4440307617188 16153.6953125 558.0718383789062 16150.0673828125 C 561.6996459960938 16146.439453125 565.9240112304688 16143.591796875 570.6276245117188 16141.6025390625 C 575.4971313476562 16139.5419921875 580.6701049804688 16138.498046875 586.0028076171875 16138.498046875 L 846.0032348632812 16138.498046875 C 851.3359985351562 16138.498046875 856.5089111328125 16139.5419921875 861.37841796875 16141.6025390625 C 866.08203125 16143.591796875 870.306396484375 16146.439453125 873.9342041015625 16150.0673828125 C 877.56201171875 16153.6953125 880.4102172851562 16157.919921875 882.399658203125 16162.6240234375 C 884.4592895507812 16167.4931640625 885.5036010742188 16172.666015625 885.5036010742188 16177.9990234375 C 885.5036010742188 16183.33203125 884.4592895507812 16188.5048828125 882.399658203125 16193.3740234375 C 880.4102172851562 16198.0771484375 877.56201171875 16202.3017578125 873.9342041015625 16205.9296875 C 870.306396484375 16209.5576171875 866.08203125 16212.4052734375 861.37841796875 16214.3955078125 C 856.5089111328125 16216.455078125 851.3359985351562 16217.4990234375 846.0032348632812 16217.4990234375 L 735.54150390625 16217.4990234375 L 735.407470703125 16217.4990234375 L 735.2913818359375 16217.56640625 L 716.4999389648438 16228.4228515625 Z" stroke="none"/>
    <path d="M 716.5 16227.8447265625 L 735.2734375 16216.9990234375 L 846.0032348632812 16216.9990234375 C 851.2686767578125 16216.9990234375 856.3760986328125 16215.9677734375 861.1836547851562 16213.9345703125 C 865.82763671875 16211.970703125 869.9985961914062 16209.158203125 873.5806884765625 16205.576171875 C 877.1627197265625 16201.994140625 879.9749145507812 16197.8232421875 881.939208984375 16193.1787109375 C 883.9725952148438 16188.37109375 885.0036010742188 16183.2646484375 885.0036010742188 16177.9990234375 C 885.0036010742188 16172.7333984375 883.9725952148438 16167.6259765625 881.939208984375 16162.818359375 C 879.9749145507812 16158.1748046875 877.1626586914062 16154.0029296875 873.5806884765625 16150.4208984375 C 869.9985961914062 16146.8388671875 865.82763671875 16144.0263671875 861.1836547851562 16142.0625 C 856.3761596679688 16140.029296875 851.2686767578125 16138.998046875 846.0032348632812 16138.998046875 L 586.0028076171875 16138.998046875 C 580.7373657226562 16138.998046875 575.6299438476562 16140.029296875 570.8223876953125 16142.0625 C 566.1784057617188 16144.0263671875 562.0074462890625 16146.8388671875 558.4253540039062 16150.4208984375 C 554.8433837890625 16154.0029296875 552.0311279296875 16158.1748046875 550.06689453125 16162.818359375 C 548.033447265625 16167.6259765625 547.00244140625 16172.7333984375 547.00244140625 16177.9990234375 C 547.00244140625 16183.2646484375 548.033447265625 16188.37109375 550.06689453125 16193.1787109375 C 552.0311279296875 16197.8232421875 554.8433227539062 16201.994140625 558.4253540039062 16205.576171875 C 562.0074462890625 16209.158203125 566.1784057617188 16211.970703125 570.8223876953125 16213.9345703125 C 575.6299438476562 16215.9677734375 580.7373657226562 16216.9990234375 586.0028076171875 16216.9990234375 L 697.7299194335938 16216.9990234375 L 697.9620971679688 16217.1328125 L 716.5 16227.8447265625 M 716.4999389648438 16229 L 697.4617919921875 16217.9990234375 L 586.0028076171875 16217.9990234375 C 563.9111938476562 16217.9990234375 546.00244140625 16200.08984375 546.00244140625 16177.9990234375 C 546.00244140625 16155.9072265625 563.9111938476562 16137.998046875 586.0028076171875 16137.998046875 L 846.0032348632812 16137.998046875 C 868.0948486328125 16137.998046875 886.0036010742188 16155.9072265625 886.0036010742188 16177.9990234375 C 886.0036010742188 16200.08984375 868.0948486328125 16217.9990234375 846.0032348632812 16217.9990234375 L 735.54150390625 16217.9990234375 L 716.4999389648438 16229 Z" stroke="none" fill="#01abab"/>
  </g>
</svg>
