<svg xmlns="http://www.w3.org/2000/svg" width="204.36" height="67.62" viewBox="0 0 204.36 67.62">
  <g id="Group_192" data-name="Group 192" transform="translate(-865.2 -4691.58)">
    <path id="Path_736" data-name="Path 736" d="M-55.67-13.88v-.7h-5.96v.7l2.08.22c.04,1.88.04,3.8.04,5.72h-7.48c0-1.94,0-3.86.06-5.72l2.08-.22v-.7h-5.94v.7l2.08.22c.06,1.92.06,3.88.06,5.82v1.1c0,1.96,0,3.9-.06,5.8l-2.08.22V0h5.94V-.72l-2.08-.22c-.06-1.88-.06-3.84-.06-6.16h7.48c0,2.34,0,4.3-.04,6.18l-2.08.2V0h5.96V-.72l-2.1-.22c-.04-1.92-.04-3.88-.04-5.8v-1.1c0-1.98,0-3.92.04-5.82Zm12.3,9.96-.48,2.72a6.229,6.229,0,0,1-2.76.62c-3.18,0-5.44-2.4-5.44-6.72,0-4.28,2.4-6.72,5.58-6.72a5.01,5.01,0,0,1,2.42.62l.48,2.7h1.1l-.08-3.14a7.92,7.92,0,0,0-4.14-1.08c-4.22,0-7.32,3.2-7.32,7.62,0,4.48,2.96,7.62,7.32,7.62A8.48,8.48,0,0,0-42.35-.76l.06-3.16Zm6.9-3.66c0-2.32,0-4.26.06-6.18h2.06c2.38,0,3.46,1.08,3.46,2.98,0,1.84-1.26,3.2-3.6,3.2ZM-29.33-.9l-1.08-3.54c-.5-1.58-1.16-2.32-2.4-2.6,2.4-.44,3.66-1.96,3.66-3.72,0-2.44-1.9-3.82-5.16-3.82h-5.96v.7l2.08.22c.06,1.92.06,3.88.06,5.82v1.1c0,1.96,0,3.9-.06,5.8l-2.08.22V0h5.94V-.72l-2.08-.22c-.06-1.88-.06-3.78-.06-5.84h1.34c1.84,0,2.54.38,3,2.12l1,3.6c.24.9.76,1.26,2.06,1.26A5.75,5.75,0,0,0-27.53,0V-.72Zm10.68-13.78a7.336,7.336,0,0,1,1.28.28c.3.12.36.26.36.64a24.753,24.753,0,0,1-.5,3.26c-2.2.28-4.4.52-5.06.52-.54,0-.84-.68-1.12-1.22l-.4.1a2.983,2.983,0,0,0,.12,1.26c.16.46.96,1.44,1.48,1.44.4,0,.52-.28,1.14-.42.56-.14,2.32-.46,3.6-.68A17.383,17.383,0,0,1-24.93.48l.32.4A15.866,15.866,0,0,0-16.39-9.7a34.973,34.973,0,0,1,4-.42c.16,0,.24.08.24.22,0,1.28-.8,6.16-2.08,7.74-.28.34-.48.36-1.02.2-.4-.14-1.42-.6-2.26-.98l-.24.38c1.14.84,1.78,1.18,1.98,1.92.12.42.28.6.62.6a2.6,2.6,0,0,0,2.1-1.52,23.492,23.492,0,0,0,2.16-7.7c.08-.56.58-.5.58-.94,0-.42-1.18-1.36-1.6-1.36-.32,0-.48.44-1.02.5-.66.08-1.88.24-3.24.4.2-.82.36-1.72.46-2.24.14-.76.6-.76.6-1.2,0-.5-1.34-1.22-2.1-1.24a6.37,6.37,0,0,0-1.44.24ZM.59-15.04c.7.3,1.22.62,1.22.96,0,1.16-2.94,5.24-6.06,7.48l.3.42a18.484,18.484,0,0,0,5.92-5.2,1.643,1.643,0,0,0,.86.48,6.642,6.642,0,0,0,1.12-.26c.72-.14,2.76-.46,3.2-.46.18,0,.26.06.16.3C5.75-7.36,1.05-2.2-4.09.48l.3.44A25.1,25.1,0,0,0,8.65-10.52c.28-.52.94-.64.94-1.04,0-.52-1.26-1.34-1.74-1.34-.34,0-.48.34-1.02.46a38.553,38.553,0,0,1-3.98.38,2.55,2.55,0,0,1-.38-.02c.24-.34.46-.72.68-1.08.3-.5.58-.7.58-1.04,0-.36-1.06-.96-1.84-1.14a6.467,6.467,0,0,0-1.2-.08Zm17.82.78c.66,1.04,1.22,1.62,2.24,1.62a41.267,41.267,0,0,0,6.12-.76c.64-.12.86-.3.86-.6,0-.48-.66-.78-1.52-.78-.42,0-.68.32-1.86.58a17.858,17.858,0,0,1-3.6.46,3.079,3.079,0,0,1-1.94-.78Zm-3.1,4.1a3.092,3.092,0,0,0,.14.98c.22.56,1.12,1.36,1.58,1.34a7.951,7.951,0,0,0,1.6-.42c.6-.16,2.46-.46,4.12-.66a1.175,1.175,0,0,1,.34.8c0,1.08-1.12,5.64-5.94,8.78l.4.42A13.224,13.224,0,0,0,24.33-7c.22-.6.68-.68.68-1.08,0-.32-.46-.68-1-.98,1.84-.18,3.52-.22,4.42-.22.98,0,1.74.12,2.06.12.44,0,.56-.18.56-.5,0-.58-1.14-1.02-1.96-1.02-.3,0-.62.22-2.02.36-3.68.32-8.76,1.08-10.12,1.08-.52,0-.92-.52-1.3-1.06Zm25.1-2.82c1.02.1,1.56.28,1.58.78.12,1.92,0,7.3-.1,8.44-.06.8-.28.9-.28,1.28s.8,1.34,1.24,1.34c.4,0,.66-.56,1.12-.84a23.409,23.409,0,0,0,7.38-6.34l-.42-.34a23.337,23.337,0,0,1-7.54,5.4c-.2.06-.32.02-.32-.26,0-1.5.16-6.94.26-7.86.06-.62.46-.62.46-1.06,0-.48-1.3-1.2-2.1-1.2a3.629,3.629,0,0,0-1.32.24ZM37.95-9.86c0,2.42-2.02,6.58-5.2,9.06l.34.42a13.328,13.328,0,0,0,6.16-8.54c.1-.5.48-.64.48-1.06,0-.6-1.42-1.36-2.12-1.42a3.353,3.353,0,0,0-1.16.14v.42C36.93-10.72,37.95-10.48,37.95-9.86Zm23.54-1.36a9.414,9.414,0,0,1-.72,3.08c-.82,1.9-2.66,5.06-3.98,5.06-.82,0-1.7-1.46-1.7-3.38a6.436,6.436,0,0,1,2.06-4.62,7.608,7.608,0,0,1,3.78-1.98A3.491,3.491,0,0,1,61.49-11.22ZM61.15.08c6.54-.42,8.62-3.82,8.62-7.14,0-4.14-3.18-6.84-7.3-6.84a8.647,8.647,0,0,0-5.84,2.14,7.683,7.683,0,0,0-2.66,5.62c0,2.46,1.4,4.58,2.74,4.58,2.04,0,4.36-3.88,5.2-6.28a10.025,10.025,0,0,0,.62-3.22,3.732,3.732,0,0,0-.86-2.12c.24-.02.48-.04.72-.04a5.676,5.676,0,0,1,5.94,5.84c0,3.62-2.36,6.14-7.26,7Z" transform="translate(989 4707)" fill="#006385"/>
    <path id="Path_735" data-name="Path 735" d="M-91.16-45.18a12.019,12.019,0,0,1,2.34-6.3,9.111,9.111,0,0,1,7.74-3.42c7.38,0,10.26,4.95,10.26,10.26a9.516,9.516,0,0,1-5.04,8.91,13.309,13.309,0,0,1-6.84,1.26v5.94a15.468,15.468,0,0,1,6.84,1.26c4.59,2.07,5.94,6.66,5.94,10.08A11.911,11.911,0,0,1-81.71-5.04a11.108,11.108,0,0,1-9.27-4.5,13.471,13.471,0,0,1-2.16-6.03H-99.8a17.613,17.613,0,0,0,1.35,6.3C-95.21-1.53-87.92,1.08-81.71,1.08c10.26,0,18.45-6.84,18.45-18.09,0-10.35-6.57-13.68-8.64-14.49,6.12-3.06,7.74-9,7.74-13.32,0-8.28-5.58-16.2-16.92-16.2-3.6,0-9.99.81-13.95,7.02a18.571,18.571,0,0,0-2.79,8.82Zm39.2,25.98a5.832,5.832,0,0,0,.64,2.24,5.254,5.254,0,0,0,3.52,2.32c1.16,0,2.24-1.12,5.2-2.96,3-1.88,8.4-5.44,13.28-5.44,5.16,0,8.28,2.88,8.28,7.36,0,4.28-2.12,7.24-6.64,9.36-4,1.96-8.32,2.6-13.64,2.92l.08,1.08c6.24.32,12-.56,15.56-2.28,4.32-2.04,7.48-5.4,7.48-10.6,0-4.96-3.76-9.48-11.08-9.48-5.96,0-12.12,3.52-15.88,5.44C-47.28-18.12-47.92-18-48.72-18a4.054,4.054,0,0,1-2.68-1.56ZM4.88-22.44a18.828,18.828,0,0,1-1.44,6.16C1.8-12.48-1.88-6.16-4.52-6.16c-1.64,0-3.4-2.92-3.4-6.76A12.871,12.871,0,0,1-3.8-22.16a15.216,15.216,0,0,1,7.56-3.96A6.981,6.981,0,0,1,4.88-22.44ZM4.2.16C17.28-.68,21.44-7.48,21.44-14.12c0-8.28-6.36-13.68-14.6-13.68A17.294,17.294,0,0,0-4.84-23.52a15.365,15.365,0,0,0-5.32,11.24c0,4.92,2.8,9.16,5.48,9.16,4.08,0,8.72-7.76,10.4-12.56a20.051,20.051,0,0,0,1.24-6.44,7.464,7.464,0,0,0-1.72-4.24c.48-.04.96-.08,1.44-.08,6.6,0,11.88,4.56,11.88,11.68,0,7.24-4.72,12.28-14.52,14ZM41.96-26.48h7.92v6.08H39.56l.32,1.2H63.32a.957.957,0,0,0,1.04-.64c-1.24-1.28-3.44-3.04-3.44-3.04L59.08-20.4H52.44v-6.08h8.88c.56,0,.96-.2,1.08-.64-1.32-1.2-3.4-2.96-3.4-2.96l-1.84,2.4H52.44v-4.24c1-.12,1.36-.52,1.44-1.08l-4-.44v5.76H41.64Zm.24,9.6c-2,.68-4.04,1.36-5.92,2v-8h5.28c.56,0,.92-.2,1.04-.64-1.24-1.28-3.28-2.96-3.28-2.96l-1.84,2.4h-1.2V-32c1.04-.16,1.32-.56,1.4-1.12L33.8-33.6v9.52H30.88A48.872,48.872,0,0,0,32-29c.88-.04,1.28-.44,1.4-.92l-3.8-.76a50.948,50.948,0,0,1-2.48,13.4l.64.36a22.825,22.825,0,0,0,2.76-5.96H33.8v8.8c-3.04,1-5.56,1.76-6.96,2.12l1.64,3.32a1.621,1.621,0,0,0,.84-1.04c1.6-.76,3.08-1.48,4.48-2.16V3.08h.48c.96,0,2-.64,2-1.04V-13.08c2.44-1.24,4.48-2.36,6.12-3.24Zm.68,6.24c1.76,1.68,4,4.52,4.52,6.76,3,2,5.08-4.12-4.12-7.08Zm16.32-3H57.8v-3.68c.96-.16,1.32-.48,1.44-1l-4-.44v5.12H39.68L40-12.48H55.24V-.96c0,.56-.2.8-1,.8-.84,0-5.4-.32-5.4-.32V.16A8.649,8.649,0,0,1,52.52,1.2a2.3,2.3,0,0,1,.96,1.88c3.88-.4,4.32-1.68,4.32-3.84V-12.48h5.36a.957.957,0,0,0,1.04-.64c-1.2-1.2-3.24-2.92-3.24-2.92ZM73.76-33.48a43.392,43.392,0,0,1-6.56,9.92l.44.48a36.869,36.869,0,0,0,8.24-8.08c.92.2,1.28,0,1.48-.36Zm3.72,14.72h.44c.84,0,1.8-.48,1.8-.76V-21H88v1.36h.44c.84,0,1.84-.52,1.84-.8v-8.8c.92-.16,1.28-.48,1.36-1.04L88-30.68v8.56H84.84v-9.76c.88-.16,1.2-.48,1.28-1l-3.48-.4v11.16H79.72v-7.04c.92-.12,1.28-.48,1.4-1.04l-3.64-.4v6.64l-3-1.48A49.45,49.45,0,0,1,66.6-11.88l.52.48a36.042,36.042,0,0,0,4.28-4.28V3.12h.48a2.958,2.958,0,0,0,2.04-.8V-16.04a1.455,1.455,0,0,0,1.2-.76l-2.16-.8a49.359,49.359,0,0,0,3.8-5.52,2.468,2.468,0,0,0,.72.08Zm21.48-5a42.838,42.838,0,0,1-2.6,13.84,44.012,44.012,0,0,1-2.76-9.92,37.864,37.864,0,0,0,1.48-3.92Zm4.6,0c.52,0,.92-.2,1-.64-1.24-1.16-3.16-2.68-3.16-2.68l-1.68,2.16H95.44a58.923,58.923,0,0,0,1.64-6.6,1.454,1.454,0,0,0,1.4-.96l-3.96-.8a65.8,65.8,0,0,1-3.64,16.44c-1.12-1.08-2.6-2.24-2.6-2.24L86.64-17h-10l.32,1.2H82.2v5.24H77.28l.28,1.2H82.2v6.04c-2.68.56-4.88,1-6.2,1.2L77.2.92a1.422,1.422,0,0,0,.88-.96c5.76-1.8,10.12-3.44,13.36-4.6l-.16-.6c-2.28.48-4.56.96-6.64,1.4V-9.36h5.4a.909.909,0,0,0,1-.64c-1.08-1.12-2.92-2.6-2.92-2.6l-1.56,2.04H84.64V-15.8h5.84l-.32.76.6.28a27.641,27.641,0,0,0,2.2-3.72A55.923,55.923,0,0,0,95.32-7.76C93.2-3.72,89.84-.36,84.76,2.56l.36.56C90.28.84,93.8-1.96,96.28-5.36a23.449,23.449,0,0,0,6.2,8.56,3.382,3.382,0,0,1,1.8-2.68l.12-.36A20.079,20.079,0,0,1,97.56-7.4c2.48-4.44,3.52-9.8,4-16.36Z" transform="translate(965 4756)" fill="#006385"/>
  </g>
</svg>
