<svg xmlns="http://www.w3.org/2000/svg" width="230" height="263.677" viewBox="0 0 230 263.677">
  <g id="Group_203" data-name="Group 203" transform="translate(-1049 -3135.324)">
    <g id="Group_130" data-name="Group 130" transform="translate(-585 10322)">
      <circle id="Ellipse_19" data-name="Ellipse 19" cx="115" cy="115" r="115" transform="translate(1634 -7153)" fill="#f5f5f5"/>
      <path id="Subtraction_1" data-name="Subtraction 1" d="M115,230a115.846,115.846,0,0,1-23.177-2.336A114.367,114.367,0,0,1,50.7,210.36a115.336,115.336,0,0,1-41.665-50.6,114.42,114.42,0,0,1-6.7-21.587A115.8,115.8,0,0,1,5.8,78.83,114.528,114.528,0,0,1,21.971,47.38L115,115V0a115.844,115.844,0,0,1,23.176,2.336A114.373,114.373,0,0,1,179.3,19.64a115.338,115.338,0,0,1,41.665,50.6,114.419,114.419,0,0,1,6.7,21.587,116.118,116.118,0,0,1,0,46.353,114.369,114.369,0,0,1-17.3,41.121,115.339,115.339,0,0,1-50.6,41.665,114.414,114.414,0,0,1-21.587,6.7A115.844,115.844,0,0,1,115,230Z" transform="translate(1634 -7153)" fill="#01abab"/>
      <circle id="Ellipse_18" data-name="Ellipse 18" cx="100" cy="100" r="100" transform="translate(1649 -7138)" fill="#fff"/>
      <path id="Path_723" data-name="Path 723" d="M24.992-26.664a10,10,0,0,1,6.952,2.728,10.437,10.437,0,0,1,2.728,7.128,10.513,10.513,0,0,1-2.64,6.864,8.978,8.978,0,0,1-7.04,2.992,8.978,8.978,0,0,1-7.04-2.992,10.513,10.513,0,0,1-2.64-6.864,10.437,10.437,0,0,1,2.728-7.128A10,10,0,0,1,24.992-26.664Zm0-25.08a9.23,9.23,0,0,1,6.424,2.376,9.267,9.267,0,0,1,2.464,6.512A8.615,8.615,0,0,1,31.5-36.7a9.413,9.413,0,0,1-6.512,2.64A9.413,9.413,0,0,1,18.48-36.7a8.615,8.615,0,0,1-2.376-6.16,9.267,9.267,0,0,1,2.464-6.512A9.23,9.23,0,0,1,24.992-51.744Zm9.68,21.208a11.93,11.93,0,0,0,5.192-4.4,15.384,15.384,0,0,0,2.112-8.008,16.866,16.866,0,0,0-4.928-12.232,16.88,16.88,0,0,0-12.056-4.488,16.88,16.88,0,0,0-12.056,4.488A16.866,16.866,0,0,0,8.008-42.944a15.384,15.384,0,0,0,2.112,8.008,11.93,11.93,0,0,0,5.192,4.4,14.44,14.44,0,0,0-6.16,4.752,14.164,14.164,0,0,0-2.64,8.8,17.5,17.5,0,0,0,4.664,12.5C13.9-1.584,18.3.968,24.992.968S36.08-1.584,38.808-4.488a17.5,17.5,0,0,0,4.664-12.5,14.164,14.164,0,0,0-2.64-8.8A14.44,14.44,0,0,0,34.672-30.536Zm29.92-13.2a10.262,10.262,0,0,1,2.464-5.632,8.508,8.508,0,0,1,6.512-2.376,8.66,8.66,0,0,1,6.248,2.2,8.041,8.041,0,0,1,2.288,5.9A8.736,8.736,0,0,1,79.816-37.4c-1.32,1.32-3.7,2.552-7.48,2.552H71.1v7.568h1.76a10.436,10.436,0,0,1,7.568,2.64,9.3,9.3,0,0,1,2.64,6.952c0,3.96-1.408,6.688-3.08,8.272a10.641,10.641,0,0,1-6.864,2.464A10.018,10.018,0,0,1,66-9.592a11.418,11.418,0,0,1-3.168-6.336H54.208A21.451,21.451,0,0,0,59.224-3.96C63.008.088,67.848.968,72.336.968c4.576,0,10.12-.88,14.344-5.1A18.3,18.3,0,0,0,91.7-17.248a16.275,16.275,0,0,0-2.464-9.064,12.072,12.072,0,0,0-5.808-4.664A13.636,13.636,0,0,0,88.7-35.9a14.188,14.188,0,0,0,2.024-7.744A15.23,15.23,0,0,0,86.5-54.824c-3.784-3.96-8.184-4.84-12.672-4.84-3.872,0-8.8.616-12.848,4.488a17.284,17.284,0,0,0-5.016,11.44Zm42.166,20.181a5.6,5.6,0,0,0-5.635,5.5,5.6,5.6,0,0,0,5.635,5.5,5.6,5.6,0,0,0,5.635-5.5A5.6,5.6,0,0,0,106.758-23.555Zm0,8.47a2.9,2.9,0,0,1-2.9-2.975,2.9,2.9,0,0,1,2.9-2.975,2.9,2.9,0,0,1,2.9,2.975A2.9,2.9,0,0,1,106.758-15.085ZM106.653-.63,108.3.385l13.335-23.17-1.645-.945Zm14.875-10.115a5.6,5.6,0,0,0-5.635,5.5,5.6,5.6,0,0,0,5.635,5.5,5.6,5.6,0,0,0,5.635-5.5A5.6,5.6,0,0,0,121.528-10.745Zm0,8.47a2.9,2.9,0,0,1-2.9-2.975,2.9,2.9,0,0,1,2.9-2.975,2.9,2.9,0,0,1,2.905,2.975A2.9,2.9,0,0,1,121.528-2.275Z" transform="translate(1688 -6999)" fill="#01abab"/>
      <path id="Path_722" data-name="Path 722" d="M3.366-8.262a12.073,12.073,0,0,0-1.44-3.276l-.99.468A13.934,13.934,0,0,1,2.3-7.7Zm8.676,3.888H16.38v-1.17H12.042v-3.2h4.644v-1.17H6.048v1.17h4.7v8.46H8.118V-6.444H6.876V-.288H4.716V.9H17.244V-.288h-5.2Zm-1.458-8.6v-2.07H9.2v2.07H3.672v5.31c0,.522-.018,1.062-.054,1.638C2.5-5.454,1.44-4.9.648-4.554L1.116-3.33c.756-.414,1.566-.882,2.376-1.35A8.987,8.987,0,0,1,1.152.5a5.692,5.692,0,0,1,.954.9C4.572-1.062,4.95-4.878,4.95-7.65v-4.14H17.244v-1.188Zm23.922,1.62a20.362,20.362,0,0,0-2.2-3.1l-1.008.576a22.963,22.963,0,0,1,2.142,3.186ZM22.3-9.468a20.176,20.176,0,0,0-2.322-3.258l-1.044.648A19.921,19.921,0,0,1,21.2-8.748Zm.18,2.592C21.1-5.562,19.6-4.284,18.648-3.51L19.4-2.376c.918-.828,2.016-1.854,3.078-2.88V1.35H23.8V-15.084H22.482ZM35.064-8.46V-9.774H29.9c.018-.378.018-.738.018-1.1V-15.03H28.6v4.158c0,.36,0,.72-.018,1.1H24.408V-8.46h4.086A12.557,12.557,0,0,1,23.9.5a6.417,6.417,0,0,1,1.08.846,12.766,12.766,0,0,0,4.5-7.56c.99,3.384,2.574,6.066,4.986,7.56A5.221,5.221,0,0,1,35.442.234c-2.79-1.53-4.464-4.77-5.328-8.694Zm9.432-5.8-1.512-.036a7.855,7.855,0,0,1-.036.864c-.036.4-.09.864-.144,1.386-.414.018-.81.018-1.224.018a24.86,24.86,0,0,1-2.97-.234l.036,1.35c.738.054,2.142.126,2.916.126.36,0,.72,0,1.1-.018-.072.846-.162,1.746-.2,2.646-2.484,1.152-4.5,3.51-4.5,5.832A2.035,2.035,0,0,0,40.086-.054a6.2,6.2,0,0,0,3.06-.99c.09.36.18.7.288,1.008l1.3-.4q-.216-.675-.432-1.458a14.988,14.988,0,0,0,4.014-5.85A3.253,3.253,0,0,1,50.9-4.662c0,2.34-2.016,4.014-5.274,4.356L46.4.9C50.58.234,52.29-2,52.29-4.59a4.4,4.4,0,0,0-3.582-4.23c0-.036.018-.054.018-.072.09-.288.252-.774.36-1.026l-1.422-.36a4.873,4.873,0,0,1-.2,1.044c-.018.072-.036.126-.054.18-.216-.018-.432-.018-.666-.018a11.51,11.51,0,0,0-3.024.45c.054-.756.108-1.512.2-2.214a57.3,57.3,0,0,0,6.48-.684l-.018-1.332a35.877,35.877,0,0,1-6.318.774c.072-.522.144-.99.216-1.368A5.949,5.949,0,0,1,44.5-14.256Zm-.828,7.632c0-.252,0-.486.018-.738a8.8,8.8,0,0,1,3.042-.576h.306a11.933,11.933,0,0,1-3.06,4.608A19.307,19.307,0,0,1,43.668-6.624ZM39.33-2.556c0-1.476,1.332-3.258,3.078-4.248v.324a21.844,21.844,0,0,0,.432,4.086,4.509,4.509,0,0,1-2.484.954C39.672-1.44,39.33-1.818,39.33-2.556ZM60.1-14.2l-1.584-.054c-.036.486-.072,1.008-.144,1.548a47.565,47.565,0,0,0-.558,5.814,21.921,21.921,0,0,0,.2,2.862L59.4-4.14a8.39,8.39,0,0,1-.036-2.214c.216-2.358,2.3-5.634,4.554-5.634,1.89,0,2.862,2.052,2.862,4.9,0,4.518-3.06,6.12-6.966,6.7L60.66.9c4.464-.81,7.6-3.006,7.6-8.01,0-3.78-1.71-6.174-4.1-6.174-2.286,0-4.158,2.25-4.9,4.086A33.418,33.418,0,0,1,60.1-14.2Z" transform="translate(1713 -7082)" fill="#707070"/>
    </g>
    <path id="Path_721" data-name="Path 721" d="M3.366-8.262a12.073,12.073,0,0,0-1.44-3.276l-.99.468A13.934,13.934,0,0,1,2.3-7.7Zm8.676,3.888H16.38v-1.17H12.042v-3.2h4.644v-1.17H6.048v1.17h4.7v8.46H8.118V-6.444H6.876V-.288H4.716V.9H17.244V-.288h-5.2Zm-1.458-8.6v-2.07H9.2v2.07H3.672v5.31c0,.522-.018,1.062-.054,1.638C2.5-5.454,1.44-4.9.648-4.554L1.116-3.33c.756-.414,1.566-.882,2.376-1.35A8.987,8.987,0,0,1,1.152.5a5.692,5.692,0,0,1,.954.9C4.572-1.062,4.95-4.878,4.95-7.65v-4.14H17.244v-1.188Zm23.922,1.62a20.362,20.362,0,0,0-2.2-3.1l-1.008.576a22.963,22.963,0,0,1,2.142,3.186ZM22.3-9.468a20.176,20.176,0,0,0-2.322-3.258l-1.044.648A19.921,19.921,0,0,1,21.2-8.748Zm.18,2.592C21.1-5.562,19.6-4.284,18.648-3.51L19.4-2.376c.918-.828,2.016-1.854,3.078-2.88V1.35H23.8V-15.084H22.482ZM35.064-8.46V-9.774H29.9c.018-.378.018-.738.018-1.1V-15.03H28.6v4.158c0,.36,0,.72-.018,1.1H24.408V-8.46h4.086A12.557,12.557,0,0,1,23.9.5a6.417,6.417,0,0,1,1.08.846,12.766,12.766,0,0,0,4.5-7.56c.99,3.384,2.574,6.066,4.986,7.56A5.221,5.221,0,0,1,35.442.234c-2.79-1.53-4.464-4.77-5.328-8.694Zm9.054-5.832-1.584-.144a14.932,14.932,0,0,1-.558,3.114c-.7.054-1.386.09-2.034.09a16.979,16.979,0,0,1-2.2-.126l.09,1.35c.684.036,1.44.054,2.106.054.522,0,1.062-.018,1.6-.054a26.637,26.637,0,0,1-3.852,6.732l1.386.72A31.836,31.836,0,0,0,43-10.152a24.411,24.411,0,0,0,3.276-.666l-.036-1.35a17.4,17.4,0,0,1-2.826.666C43.7-12.546,43.956-13.644,44.118-14.292ZM43.128-1.8c0-.828.9-1.44,2.214-1.44a6.241,6.241,0,0,1,1.854.27c.018.306.018.576.018.81,0,.99-.5,1.782-2,1.782C43.812-.378,43.128-.954,43.128-1.8Zm5.238-6.93h-1.4c.036,1.278.126,3.06.2,4.536a8.033,8.033,0,0,0-1.764-.18c-2.034,0-3.6,1.044-3.6,2.7C41.8.108,43.416.918,45.4.918c2.232,0,3.15-1.17,3.15-2.61,0-.216,0-.468-.018-.756a13.454,13.454,0,0,1,2.916,2.07L52.218-1.6a12.35,12.35,0,0,0-3.744-2.232c-.036-1.116-.108-2.286-.126-2.952C48.33-7.434,48.33-7.992,48.366-8.73Zm3.6.486.81-1.188a27.189,27.189,0,0,0-4.194-2.394l-.738,1.1A21.078,21.078,0,0,1,51.966-8.244Zm8.154-5.778L58.3-14.04a9.5,9.5,0,0,1,.144,1.836c0,1.89-.18,6.444-.18,9.108,0,2.934,1.782,4.014,4.374,4.014A9.047,9.047,0,0,0,70.164-3.06L69.138-4.284A7.5,7.5,0,0,1,62.694-.558c-1.71,0-2.952-.7-2.952-2.682,0-2.682.126-6.93.216-8.964A15.5,15.5,0,0,1,60.12-14.022ZM83.48,0h2.072V-18.676H81.436l-1.092,1.96H83.48Zm6.776-.644L91.88.448l12.488-19.124H90.648v1.9h10.22Zm18.138-4.468c1.818,0,3.006-1.53,3.006-4.194,0-2.646-1.188-4.14-3.006-4.14-1.8,0-2.988,1.494-2.988,4.14C105.406-6.642,106.594-5.112,108.394-5.112Zm0-1.026c-1.026,0-1.746-1.062-1.746-3.168s.72-3.132,1.746-3.132c1.044,0,1.764,1.026,1.764,3.132S109.438-6.138,108.394-6.138Zm.4,6.372h1.1l7.29-13.68h-1.116Zm8.8,0c1.8,0,2.988-1.512,2.988-4.176,0-2.646-1.188-4.14-2.988-4.14s-3.006,1.494-3.006,4.14C114.586-1.278,115.792.234,117.592.234Zm0-1.008c-1.044,0-1.746-1.062-1.746-3.168s.7-3.132,1.746-3.132c1.026,0,1.746,1.026,1.746,3.132S118.618-.774,117.592-.774Z" transform="translate(1049 3154)" fill="#707070"/>
    <line id="Line_19" data-name="Line 19" x2="13" y2="22" transform="translate(1096.5 3161.5)" fill="none" stroke="#707070" stroke-width="1"/>
  </g>
</svg>
