<svg xmlns="http://www.w3.org/2000/svg" width="205.894" height="292.791" viewBox="0 0 205.894 292.791">
  <g id="Asset_5" data-name="Asset 5" transform="translate(7.087 0.012)">
    <g id="Layer_3" data-name="Layer 3" transform="translate(1.04 1.137)">
      <path id="Path_624" data-name="Path 624" d="M103,323.87c-.032-.75-9.737,16.233-14.984,23.226s-8.242,10.74-15.236,7.492S59.293,349.1,57.3,346.346,35.82,314.379,35.82,314.379a80.847,80.847,0,0,1,8.992-5.493A51,51,0,0,0,55.3,301.394s14.737,20.981,16.983,22.229,5.991-3,7.99-9.239,4.995-21.479,8.242-25.472,2-4.5,8.489-8.242,17.481-6.5,17.481-6.5l8.242-3h31.216s14.485,3.746,20.477,6.5,6.994,6.5,9.491,12.738,3.746,17.235,4.995,27.969,10.488,48.949,11.988,53.692,5.246,10.986,5.246,11.736-14.984,9.239-20.477,9.737-5.991-2.245-5.991-1.5a54.414,54.414,0,0,0,.884,6.951c.284,2.138.8,4.362.868,6.517.054,1.586.086,3.692.086,3.692H93.944s2.481-15.713,3.307-21.409c1.667-11.463,3.178-22.958,4.314-34.491.965-9.748,1.849-19.641,1.431-29.448Z" transform="translate(-17.204 -126.531)" fill="#fff"/>
      <path id="Path_625" data-name="Path 625" d="M122.555,136.92s-10.986.75-18.231-2.245-16.983-9.989-20.477-16.731-6.5-14.737-3.746-24.727,9.491-40.959,14.984-50.7S115.814,11.3,129.549,6.058,165.01.56,174,2.06s22.476,9.737,33.966,23.478,19.48,37.958,22.476,51.195,4.244,23.976,3.494,29.469-4.244,15.986-7.744,20.981-10.241,7.492-15.482,8.741-21.726,2.245-21.726,2.245Z" transform="translate(-37.257 -1.264)" fill="#7fd5d5"/>
      <path id="Path_626" data-name="Path 626" d="M127.173,127.049v10.488s-9.737,2-8.489,10.986,11.988,12.985,11.988,12.985,1.747,6.994,3.494,9.737,4.743,6.243,6.243,6.5S158.6,186.6,158.6,186.6s17.288,53.328,17.781,52.953,13.724-52.824,13.724-52.824a103.941,103.941,0,0,1,13.489-5.493c6.5-2,10.986-5.247,13.489-9.989a51.654,51.654,0,0,0,3.494-7.99s9.989-3.746,12.985-10.74-9.491-14.737-9.491-14.737l1-8.992-10.986-1.747s-35.965,9.239-53.446-32.963c0,0-6.447,30.354-33.467,32.963Z" transform="translate(-55.61 -44.339)" fill="#fff"/>
      <path id="Path_627" data-name="Path 627" d="M209.43,306.63l17.256.488-8.087,30.4Z" transform="translate(-97.776 -142.983)" fill="#7fd5d5"/>
      <ellipse id="Ellipse_55" data-name="Ellipse 55" cx="10.74" cy="6.12" rx="10.74" ry="6.12" transform="translate(141.74 106.686)" fill="#fef6f3"/>
      <ellipse id="Ellipse_56" data-name="Ellipse 56" cx="10.74" cy="6.12" rx="10.74" ry="6.12" transform="translate(80.604 106.686)" fill="#fef6f3"/>
      <path id="Path_628" data-name="Path 628" d="M307.109,503.717a32.977,32.977,0,0,0,1.661,6.442,2.143,2.143,0,0,0,.815,1.206c.788.445,1.811-.257,2.085-1.12a6.512,6.512,0,0,0-.043-2.69,2.906,2.906,0,0,1,.648-2.524,2.305,2.305,0,0,1,3.076.434,6.71,6.71,0,0,1,1.313,3.14c.268,1.174.536,2.353.8,3.526-1.988,1.056-5.043-1.018-6.442.745a2.389,2.389,0,0,0,.129,2.787,7.089,7.089,0,0,0,2.331,1.844c1.04.606,2.079,1.206,3.119,1.811a7.905,7.905,0,0,0,3.365,1.313c1.983.123,3.735-1.249,5.091-2.7a15.15,15.15,0,0,0,4.223-8.012c.627-4.469-1.549-8.8-3.66-12.792a1.767,1.767,0,0,0-.729-.857,1.826,1.826,0,0,0-.991-.054c-5.23.713-18.156-.589-16.8,7.5Z" transform="translate(-143.059 -230.949)" fill="#fef6f3"/>
      <path id="Path_629" data-name="Path 629" d="M36.585,297.22c1.393-1.7,1.774-3.982,2.1-6.152a13.332,13.332,0,0,0-.113-6.34c-.541-1.543-3.237-5.359-4.116-6.731-1.618-2.529-11.886-16.243-16.254-21.929a11.61,11.61,0,0,0-3.462-3.521c-1.468-.772-3.617-.568-4.394.895-.632,1.2-.145,2.653.423,3.88C13.2,262.6,16.9,267.3,18.557,272.864a3.5,3.5,0,0,0-4.48,2.572,3.464,3.464,0,0,0-4.046.113,5.589,5.589,0,0,0-2.042,3.708,5.263,5.263,0,0,0-6.833,3.837,10.12,10.12,0,0,0,.788,4.823,34.186,34.186,0,0,0,4.2,8.248c.986,1.452,1.667,3.242,2.867,4.057,2.819,1.908,7.283,3.3,10.193,5.07" transform="translate(-1.082 -117.679)" fill="#fef6f3"/>
      <circle id="Ellipse_57" data-name="Ellipse 57" cx="3.264" cy="3.264" r="3.264" transform="translate(117.865 122.007)" fill="#fef6f3"/>
    </g>
    <g id="Layer_2" data-name="Layer 2" transform="translate(0.991 0.99)">
      <path id="Path_630" data-name="Path 630" d="M134.95,158.72l4.764,35.5a21.032,21.032,0,0,0,15.075,17.428l20.509,5.847a29.531,29.531,0,0,0,16.206,0l20.713-5.906a21.042,21.042,0,0,0,15.043-17.154l5.161-34.962" transform="translate(-63.161 -74.192)" fill="none" stroke="#01abab" stroke-linecap="round" stroke-linejoin="round" stroke-width="2"/>
      <path id="Path_631" data-name="Path 631" d="M226.336,200.51s-2.529,2.342-1.967,4.309" transform="translate(-104.622 -93.586)" fill="none" stroke="#01abab" stroke-linecap="round" stroke-linejoin="round" stroke-width="2"/>
      <ellipse id="Ellipse_58" data-name="Ellipse 58" cx="5.713" cy="8.757" rx="5.713" ry="8.757" transform="translate(141.853 87.165)" fill="#01abab"/>
      <ellipse id="Ellipse_59" data-name="Ellipse 59" cx="5.713" cy="8.757" rx="5.713" ry="8.757" transform="translate(89.26 87.165)" fill="#01abab"/>
      <path id="Path_632" data-name="Path 632" d="M283.86,168.931a6.029,6.029,0,0,0,1.72-1.168,2.3,2.3,0,0,0,.675-1.9" transform="translate(-132.27 -77.505)" fill="none" stroke="#01abab" stroke-linecap="round" stroke-linejoin="round" stroke-width="2"/>
      <path id="Path_633" data-name="Path 633" d="M285.94,174.929a3.958,3.958,0,0,0,2.915-2.379" transform="translate(-133.235 -80.61)" fill="none" stroke="#01abab" stroke-linecap="round" stroke-linejoin="round" stroke-width="2"/>
      <path id="Path_634" data-name="Path 634" d="M165.692,165.29a1.613,1.613,0,0,0,.514,1.961c.552.488,1.259.772,1.811,1.254" transform="translate(-77.349 -77.241)" fill="none" stroke="#01abab" stroke-linecap="round" stroke-linejoin="round" stroke-width="2"/>
      <path id="Path_635" data-name="Path 635" d="M162.31,172.23a5.613,5.613,0,0,0,1,1.3,6.164,6.164,0,0,0,2.347,1.109" transform="translate(-75.859 -80.462)" fill="none" stroke="#01abab" stroke-linecap="round" stroke-linejoin="round" stroke-width="2"/>
      <path id="Path_636" data-name="Path 636" d="M195.143,59.31s-4.025,40.177,31.935,51.79" transform="translate(-91.034 -28.056)" fill="none" stroke="#01abab" stroke-linecap="round" stroke-linejoin="round" stroke-width="2"/>
      <path id="Path_637" data-name="Path 637" d="M235.8,80.11s5.059,34.995,43.832,42.127" transform="translate(-109.965 -37.709)" fill="none" stroke="#01abab" stroke-linecap="round" stroke-linejoin="round" stroke-width="2"/>
      <path id="Path_638" data-name="Path 638" d="M266.56,130.678a17.011,17.011,0,0,1,14.33.938" transform="translate(-124.241 -60.652)" fill="none" stroke="#01abab" stroke-linecap="round" stroke-linejoin="round" stroke-width="2"/>
      <path id="Path_639" data-name="Path 639" d="M162.31,130.95s6.8-4.4,15.316.466" transform="translate(-75.859 -60.457)" fill="none" stroke="#01abab" stroke-linecap="round" stroke-linejoin="round" stroke-width="2"/>
      <path id="Path_640" data-name="Path 640" d="M164.714,95.13c-.332.279-2.674,27.347-34.984,32.594" transform="translate(-60.738 -44.68)" fill="none" stroke="#01abab" stroke-linecap="round" stroke-linejoin="round" stroke-width="2"/>
      <path id="Path_641" data-name="Path 641" d="M142.917,95.83A63.078,63.078,0,0,1,119.6,126.173" transform="translate(-56.037 -45.005)" fill="none" stroke="#01abab" stroke-linecap="round" stroke-linejoin="round" stroke-width="2"/>
      <path id="Path_642" data-name="Path 642" d="M122.813,137.415s-13.114-2.342-18.542-3.655-15.825-9.523-19.384-18.3-3.558-18.231-1.779-27.781,6.275-26.506,8.242-31.656S97.9,38.98,105.305,29.146,128.44-2.7,162.9,1.52c0,0,14.33-.375,24.727,3.746s20.23,14.046,26.506,23.317,9.459,11.7,16.763,46.543,4.212,38.4.938,46.356-12.765,15.638-39.255,17.6" transform="translate(-38.559 -0.99)" fill="none" stroke="#01abab" stroke-linecap="round" stroke-linejoin="round" stroke-width="2"/>
      <path id="Path_643" data-name="Path 643" d="M126.766,176.72s-9.636,2.915-9.448,10.5,6.554,11.892,12.878,15.45" transform="translate(-54.977 -82.546)" fill="none" stroke="#01abab" stroke-linecap="round" stroke-linejoin="round" stroke-width="2"/>
      <path id="Path_644" data-name="Path 644" d="M313.289,178.67s7.524.279,8.178,10.209S309.2,203.584,309.2,203.584" transform="translate(-144.03 -83.451)" fill="none" stroke="#01abab" stroke-linecap="round" stroke-linejoin="round" stroke-width="2"/>
      <path id="Path_645" data-name="Path 645" d="M199.159,268.565c-.123.375,14.491,51.452,14.491,51.452l13.982-52.578" transform="translate(-92.96 -124.648)" fill="none" stroke="#01abab" stroke-linecap="round" stroke-linejoin="round" stroke-width="2"/>
      <path id="Path_646" data-name="Path 646" d="M180.842,268.38s-4.662.627-11.6,10.364l9.914,8.242-3.494,6.618s8.864,17.358,17.481,24.351" transform="translate(-79.075 -125.085)" fill="none" stroke="#01abab" stroke-linecap="round" stroke-linejoin="round" stroke-width="2"/>
      <path id="Path_647" data-name="Path 647" d="M249.946,266.05s9.239,5.493,13.424,12.363l-9.737,6.367s4.185,8.864,3.81,8.864-11.238,16.731-17.733,23.226" transform="translate(-111.78 -124.003)" fill="none" stroke="#01abab" stroke-linecap="round" stroke-linejoin="round" stroke-width="2"/>
      <line id="Line_50" data-name="Line 50" x2="14.362" transform="translate(113.568 163.649)" fill="none" stroke="#01abab" stroke-linecap="round" stroke-linejoin="round" stroke-width="2"/>
      <path id="Path_648" data-name="Path 648" d="M272.33,272.34s11.361,5.246,17.6,9.866c0,0,5.182,10.241,6.651,16.731s5.589,36.838,8.333,50.573,12.363,35.337,12.363,35.337-11.988,11.613-28.6,8.992" transform="translate(-126.918 -126.922)" fill="none" stroke="#01abab" stroke-linecap="round" stroke-linejoin="round" stroke-width="2"/>
      <path id="Path_649" data-name="Path 649" d="M311.24,519.443a21.673,21.673,0,0,0,2.245-1.372,2.653,2.653,0,0,0,1.249-3.124c-.5-1.876.123-6.12.123-6.12s.252-1.125,1.876,1.125c.868,1.206,1.7,2.588,2.294,3.617a3.059,3.059,0,0,1,.037,2.974l-.959,1.779-2.562-1.249" transform="translate(-144.976 -236.544)" fill="none" stroke="#01abab" stroke-linecap="round" stroke-linejoin="round" stroke-width="2"/>
      <path id="Path_650" data-name="Path 650" d="M314.27,516.071l6.243,4.255a4.049,4.049,0,0,0,4.148.252l3.628-1.876a4.057,4.057,0,0,0,1.983-2.32l1.988-5.959a4.008,4.008,0,0,0,.1-2.219l-3.108-13.114" transform="translate(-146.383 -230.3)" fill="none" stroke="#01abab" stroke-linecap="round" stroke-linejoin="round" stroke-width="2"/>
      <circle id="Ellipse_60" data-name="Ellipse 60" cx="4.496" cy="4.496" r="4.496" transform="translate(116.189 210.224)" fill="none" stroke="#01abab" stroke-linecap="round" stroke-linejoin="round" stroke-width="2"/>
      <circle id="Ellipse_61" data-name="Ellipse 61" cx="4.496" cy="4.496" r="4.496" transform="translate(116.189 236.452)" fill="none" stroke="#01abab" stroke-linecap="round" stroke-linejoin="round" stroke-width="2"/>
      <path id="Path_651" data-name="Path 651" d="M299.609,438.5c-2.551-17.546-6.083-46.393-6.409-53.757-.5-11.238-2-41.581-1.249-50.2" transform="translate(-135.929 -155.794)" fill="none" stroke="#01abab" stroke-linecap="round" stroke-linejoin="round" stroke-width="2"/>
      <path id="Path_652" data-name="Path 652" d="M153.218,332.45c0,.375-.375,23.349-.874,44.453-.338,14.341-5.059,43.489-8.055,60.745" transform="translate(-67.496 -154.819)" fill="none" stroke="#01abab" stroke-linecap="round" stroke-linejoin="round" stroke-width="2"/>
      <path id="Path_653" data-name="Path 653" d="M107.387,278.4s-10.188,5.246-13.81,7.744-5.67,5.118-8.081,13.36-4.035,14.984-5.782,20.354-7.24,10.364-7.24,10.364L52.618,304.874s-4.743,5.37-8.864,7.492-8.864,5.247-8.864,5.247,18.982,28.848,22.974,32.963,10.863,6.742,14.11,8.365,6.742,2.122,11.115-2.5a87.746,87.746,0,0,0,19.019-29.968" transform="translate(-16.723 -129.735)" fill="none" stroke="#01abab" stroke-linecap="round" stroke-linejoin="round" stroke-width="2"/>
      <g id="Group_336" data-name="Group 336" transform="translate(0 135.205)">
        <path id="Path_654" data-name="Path 654" d="M52.691,310.49c.086-.584.155-1.2.193-1.854a20.581,20.581,0,0,0-3.076-11.2c-1.629-2.438-3.339-4.582-3.339-4.582A3.971,3.971,0,0,0,44.1,291.76l-9.528,1.388c-1.056.252-1.667.863-1.533,1.752l.1.675a3.473,3.473,0,0,0,3.387,2.958l5.461.08,2.535,3.226s-7.079,3.033-6.618,9.084" transform="translate(-15.854 -271.14)" fill="none" stroke="#01abab" stroke-linecap="round" stroke-linejoin="round" stroke-width="2"/>
        <path id="Path_655" data-name="Path 655" d="M41.788,277.922,24.446,254.771a3.667,3.667,0,0,0-4.727-1.034h0a3.163,3.163,0,0,0-1.243,4.475l9.453,15.74" transform="translate(-8.884 -253.283)" fill="none" stroke="#01abab" stroke-linecap="round" stroke-linejoin="round" stroke-width="2"/>
        <path id="Path_656" data-name="Path 656" d="M30.2,289.056h0a3,3,0,0,0-2.931.016l-1.12.75a2.529,2.529,0,0,0-.707,3.489l5.932,9.041a3.381,3.381,0,0,0,4.652.991h0a3.389,3.389,0,0,0,1.222-4.325l-.686-1.409" transform="translate(-12.146 -269.712)" fill="none" stroke="#01abab" stroke-linecap="round" stroke-linejoin="round" stroke-width="2"/>
        <path id="Path_657" data-name="Path 657" d="M21.085,297.4l-1.463-1.8a3.19,3.19,0,0,0-3.9-.836h0c-1.758.884-2.658,3.376-1.5,4.968l6.243,8.6a3.157,3.157,0,0,0,3.864,1.018h0a3.159,3.159,0,0,0,1.6-4.1l-.616-1.458" transform="translate(-6.89 -272.378)" fill="none" stroke="#01abab" stroke-linecap="round" stroke-linejoin="round" stroke-width="2"/>
        <path id="Path_658" data-name="Path 658" d="M8.022,302.85c-.745-1.007-2.551-1.747-4.973.134s-2.262,3.676-1.731,7.053c.5,3.21,3.783,7.513,6.6,10.756,5.514,6.35,9.828,6.5,9.828,6.5" transform="translate(-0.991 -275.81)" fill="none" stroke="#01abab" stroke-linecap="round" stroke-linejoin="round" stroke-width="2"/>
        <path id="Path_659" data-name="Path 659" d="M9.59,314.78l3.821,5.284a2.8,2.8,0,0,0,3.537.836h0a2.674,2.674,0,0,0,.938-4" transform="translate(-4.982 -281.823)" fill="none" stroke="#01abab" stroke-linecap="round" stroke-linejoin="round" stroke-width="2"/>
      </g>
      <circle id="Ellipse_62" data-name="Ellipse 62" cx="3.264" cy="3.264" r="3.264" transform="translate(117.914 122.154)" fill="none" stroke="#01abab" stroke-linecap="round" stroke-linejoin="round" stroke-width="2"/>
      <line id="Line_51" data-name="Line 51" x1="2.262" y1="8.353" transform="translate(7.922 119.363)" fill="none" stroke="#e74b21" stroke-linecap="round" stroke-width="2"/>
      <line id="Line_52" data-name="Line 52" x1="9.877" y1="7.847" transform="translate(-6.078 124.363)" fill="none" stroke="#e74b21" stroke-linecap="round" stroke-width="2"/>
      <line id="Line_53" data-name="Line 53" x1="7" y2="0.001" transform="translate(-7.078 139.362)" fill="none" stroke="#e74b21" stroke-linecap="round" stroke-width="2"/>
    </g>
  </g>
</svg>
