<svg xmlns="http://www.w3.org/2000/svg" width="223.815" height="388.143" viewBox="0 0 223.815 388.143">
  <g id="nerse1" transform="translate(-0.023 -0.002)">
    <g id="Layer_3" data-name="Layer 3" transform="translate(0.921 1.482)">
      <path id="Path_475" data-name="Path 475" d="M187.656,243.157c-3.415-6.347-11.71-29.778-11.71-29.778s-20.99-8.055-21.723-8.055-16.591-6.6-16.591-6.6l-24.048,74.722L90.53,197.26s-30.019,11.469-35.874,14.884-11.469,14.884-13.428,20.99-19.764,52.716-19.764,60.037-3.415,22.7,11.961,31.726a260.436,260.436,0,0,0,26.845,13.909l-7.08,38.806H173.265l-.492-2.681c0-.733-6.829-37.581-6.829-37.581s16.109-8.547,24.4-13.669,12.935-10,12.695-19.283-11.961-54.915-15.376-61.263ZM49.032,296.114s9.27-21.231,10-21.472l3.415-3.666.974,34.166-14.4-9.029ZM164.718,302.7s-.974-28.552-.974-29.778l13.669,24.164L164.718,302.7Z" transform="translate(0.038 7.821)" fill="#fff"/>
      <path id="Path_476" data-name="Path 476" d="M56.82,195.334s-27.327-2.985-40.44-12.988S-1.887,158.727,2.4,130.416s19.67-68.333,32.03-85.175S58.244-.394,114.678,1.554s86.955,40.273,95.534,76.638,14.884,63.7,9.332,86.882-14.37,26.363-38.335,30.752S140.6,203.64,140.6,203.64l-83.782-8.3Z" transform="translate(-0.921 -1.46)" fill="#7fd5d5"/>
      <path id="Path_477" data-name="Path 477" d="M87.979,73.016c-.241.733-9.762,35.392-46.609,45.154l.974,15.617S24.287,140.374,29.168,151.6s19.764,17.324,19.764,18.057,1.466,8.3,5.373,13.428,2.44,9.029,17.324,13.669,24.164,5.122,31.244,6.829,13.375,2.545,24.593-.241,21.262-5.7,29.558-8.631,14.915-12.6,14.915-15.774,2.933-8.3,2.933-8.3,18.549-6.829,19.524-17.575-13.428-19.524-13.428-19.524l1.466-15.135-13.669-2.2s-32.459,11.228-56.382-11.469S89.928,69.35,89.928,69.35l-1.948,3.666Z" transform="translate(0.379 1.758)" fill="#fff"/>
      <path id="Path_478" data-name="Path 478" d="M88.54,198.67s22.393,76.638,22.184,75.905,20.529-75.905,20.529-75.905H88.54Z" transform="translate(3.233 7.888)" fill="#fff"/>
      <path id="Path_479" data-name="Path 479" d="M99.03,226.64H122.7l-11.836,40.021Z" transform="translate(3.73 9.214)" fill="#55b6b5"/>
      <path id="Path_480" data-name="Path 480" d="M91.424,319.141s-12.935,21.472-12.2,21.472,9.762,10.987,15.617,14.15,8.3,5.122,9.762,4.148c0,0,4.87,4,6.557,2.2,3.446-3.666,5.153-2.933,6.127-4.891s1.707-3.666,1.707-3.666l2.681-.241,13.176-15.617s-8.547-17.324-9.762-16.109-13.3,8.547-13.3,8.547-6.955-6.106-11.836-7.562-8.547-2.44-8.547-2.44Z" transform="translate(2.79 13.598)" fill="#fff5ea"/>
      <ellipse id="Ellipse_40" data-name="Ellipse 40" cx="14.507" cy="9.762" rx="14.507" ry="9.762" transform="translate(53.731 152.145)" fill="#fff5ea"/>
      <ellipse id="Ellipse_41" data-name="Ellipse 41" cx="14.507" cy="9.762" rx="14.507" ry="9.762" transform="translate(141.598 152.145)" fill="#fff5ea"/>
    </g>
    <g id="Layer_2" data-name="Layer 2" transform="translate(1.001 0.998)">
      <path id="Path_481" data-name="Path 481" d="M57.413,196.665c-12.16-.639-24.74-3.75-28.793-5.614S14.763,183.227,7.5,171.287.047,147.825,2.173,132.261,16.889,77.45,23.289,62.734s20.9-34.124,32.847-43.289S81.723-.173,116.7,1.1s52.244,10.024,69.1,33.485,26.017,37.748,32.627,76.555,5.122,51.825,0,62.7-11.731,16.423-22.184,19.408-38.6,8.316-38.6,8.316" transform="translate(-0.997 -0.998)" fill="none" stroke="#01abab" stroke-linecap="round" stroke-linejoin="round" stroke-width="2"/>
      <path id="Path_482" data-name="Path 482" d="M40.4,120.233s6.829,42.011,8.955,51.825a32.745,32.745,0,0,0,17.062,22.6c9.175,4.9,27.086,9.385,33.265,10.872s14.077,1.707,24.52,0,24.52-7.468,30.28-9.594,14.507-8.746,17.492-18.979S182,120.233,182,120.233s-50.967-8.316-61.42-59.073" transform="translate(0.871 1.854)" fill="none" stroke="#01abab" stroke-linecap="round" stroke-linejoin="round" stroke-width="2"/>
      <path id="Path_483" data-name="Path 483" d="M86.243,43.25S76.009,103.6,132.737,119.166" transform="translate(3.01 1.005)" fill="none" stroke="#01abab" stroke-linecap="round" stroke-linejoin="round" stroke-width="2"/>
      <path id="Path_484" data-name="Path 484" d="M87.823,70.12c-.346.639-4.829,41.372-50.673,47.772" transform="translate(0.717 2.278)" fill="none" stroke="#01abab" stroke-linecap="round" stroke-linejoin="round" stroke-width="2"/>
      <path id="Path_485" data-name="Path 485" d="M58.12,98.331s15.145-5.541,24.74,0" transform="translate(1.711 3.499)" fill="none" stroke="#01abab" stroke-linecap="round" stroke-linejoin="round" stroke-width="2"/>
      <path id="Path_486" data-name="Path 486" d="M62.844,71.55c.042.639-10.621,31.558-33.224,43.289" transform="translate(0.36 2.346)" fill="none" stroke="#01abab" stroke-linecap="round" stroke-linejoin="round" stroke-width="2"/>
      <path id="Path_487" data-name="Path 487" d="M134.47,98.344s10.453-6.18,24.31,0" transform="translate(5.33 3.486)" fill="none" stroke="#01abab" stroke-linecap="round" stroke-linejoin="round" stroke-width="2"/>
      <path id="Path_488" data-name="Path 488" d="M61.34,129.58s5.583,7.677,13.48,7.887,14.716-7.887,14.716-7.887" transform="translate(1.863 5.097)" fill="none" stroke="#01abab" stroke-linecap="round" stroke-linejoin="round" stroke-width="2"/>
      <path id="Path_489" data-name="Path 489" d="M59.74,137.289a7.4,7.4,0,0,0,3.8-3.949" transform="translate(1.788 5.275)" fill="none" stroke="#01abab" stroke-linecap="round" stroke-linejoin="round" stroke-width="2"/>
      <path id="Path_490" data-name="Path 490" d="M63.38,139.88s2.933-2.7,3.572-4.65" transform="translate(1.96 5.365)" fill="none" stroke="#01abab" stroke-linecap="round" stroke-linejoin="round" stroke-width="2"/>
      <path id="Path_491" data-name="Path 491" d="M130.6,129.107s4.912,8.421,13.428,7.96,13.543-8.327,13.543-8.327" transform="translate(5.146 5.057)" fill="none" stroke="#01abab" stroke-linecap="round" stroke-linejoin="round" stroke-width="2"/>
      <path id="Path_492" data-name="Path 492" d="M158.274,136.87s-2.744.1-3.844-3.53" transform="translate(6.276 5.275)" fill="none" stroke="#01abab" stroke-linecap="round" stroke-linejoin="round" stroke-width="2"/>
      <path id="Path_493" data-name="Path 493" d="M155.034,139.88a49.424,49.424,0,0,1-3.844-4.65" transform="translate(6.122 5.365)" fill="none" stroke="#01abab" stroke-linecap="round" stroke-linejoin="round" stroke-width="2"/>
      <path id="Path_494" data-name="Path 494" d="M112.95,150.33s-3.833,4.022-2.283,6.127" transform="translate(4.184 6.08)" fill="none" stroke="#01abab" stroke-linecap="round" stroke-linejoin="round" stroke-width="2"/>
      <path id="Path_495" data-name="Path 495" d="M95.8,168.41s5.855,6.41,14.737,6.682a17.239,17.239,0,0,0,13.731-6.316" transform="translate(3.497 6.937)" fill="none" stroke="#01abab" stroke-linecap="round" stroke-linejoin="round" stroke-width="2"/>
      <path id="Path_496" data-name="Path 496" d="M41.394,130.66S28.3,133.781,28.951,146.5,47.9,168.827,47.9,168.827" transform="translate(0.327 5.148)" fill="none" stroke="#01abab" stroke-linecap="round" stroke-linejoin="round" stroke-width="2"/>
      <path id="Path_497" data-name="Path 497" d="M175.076,131.45s13.731,5.394,12.537,18.256S168.76,168.79,168.76,168.79" transform="translate(6.955 5.185)" fill="none" stroke="#01abab" stroke-linecap="round" stroke-linejoin="round" stroke-width="2"/>
      <path id="Path_498" data-name="Path 498" d="M85.739,198.91s-24.645,12.443-30.752,15.868-13.417,10.987-16.1,18.79-16.6,48.568-18.8,57.6-2.44,23.189,14.643,33.684,47.1,22.938,47.1,22.938,5.122-15.135,14.884-24.164l-49.992-26.6,14.946-23.671" transform="translate(-0.142 8.383)" fill="none" stroke="#01abab" stroke-linecap="round" stroke-linejoin="round" stroke-width="2"/>
      <path id="Path_499" data-name="Path 499" d="M61.384,245.05s.3,42.462-.974,53.941" transform="translate(1.819 10.57)" fill="none" stroke="#01abab" stroke-linecap="round" stroke-linejoin="round" stroke-width="2"/>
      <line id="Line_34" data-name="Line 34" x1="5.719" y2="37.822" transform="translate(54.112 348.116)" fill="none" stroke="#01abab" stroke-linecap="round" stroke-linejoin="round" stroke-width="2"/>
      <path id="Path_500" data-name="Path 500" d="M80.986,198.91,67.81,214.286l13.176,9.521-4.881,12.684,23.43,31.244" transform="translate(2.17 8.383)" fill="none" stroke="#01abab" stroke-linecap="round" stroke-linejoin="round" stroke-width="2"/>
      <path id="Path_501" data-name="Path 501" d="M90.41,200.209,111.243,274.2l18.214-75.287" transform="translate(3.241 8.383)" fill="none" stroke="#01abab" stroke-linecap="round" stroke-linejoin="round" stroke-width="2"/>
      <path id="Path_502" data-name="Path 502" d="M135.222,197.05s11.385,7.814,17.523,16.842l-14.611,10.254,5.855,11.228s-11.951,22.2-25.379,34.166" transform="translate(4.578 8.295)" fill="none" stroke="#01abab" stroke-linecap="round" stroke-linejoin="round" stroke-width="2"/>
      <path id="Path_503" data-name="Path 503" d="M158.131,245.05s-.754,41.006-.681,44.661a44.284,44.284,0,0,0,1.781,9.27" transform="translate(6.419 10.57)" fill="none" stroke="#01abab" stroke-linecap="round" stroke-linejoin="round" stroke-width="2"/>
      <path id="Path_504" data-name="Path 504" d="M162.407,279.531s7.321,16.591,6.588,16.591-47.835,28.552-47.835,28.552,9.563,12.2,13.93,22.938c0,0,33.674-14.643,45.373-20.749s23.671-16.842,17.073-38.565c-5.237-17.272-18.927-51.972-24.31-65.473a18.168,18.168,0,0,0-7.531-8.861c-5.834-3.509-15.439-8.913-23.483-11.574" transform="translate(4.699 8.548)" fill="none" stroke="#01abab" stroke-linecap="round" stroke-linejoin="round" stroke-width="2"/>
      <circle id="Ellipse_42" data-name="Ellipse 42" cx="5.75" cy="5.75" r="5.75" transform="translate(107.529 303.424)" fill="none" stroke="#01abab" stroke-linecap="round" stroke-linejoin="round" stroke-width="2"/>
      <path id="Path_505" data-name="Path 505" d="M121.846,322.4A91.42,91.42,0,0,0,106.9,333.869" transform="translate(4.023 14.237)" fill="none" stroke="#01abab" stroke-linecap="round" stroke-linejoin="round" stroke-width="2"/>
      <path id="Path_506" data-name="Path 506" d="M132.215,337.78c-.126.608-10.736,14.276-17.575,18.79" transform="translate(4.39 14.966)" fill="none" stroke="#01abab" stroke-linecap="round" stroke-linejoin="round" stroke-width="2"/>
      <path id="Path_507" data-name="Path 507" d="M104.39,330.91s11.343,12.2,13.061,15.376-1.383,5.457-3.634,3.268" transform="translate(3.904 14.64)" fill="none" stroke="#01abab" stroke-linecap="round" stroke-linejoin="round" stroke-width="2"/>
      <path id="Path_508" data-name="Path 508" d="M103.924,336.97s10.767,12.695,12.967,15.742-1.1,7.08-4.514,3.907S98.1,341.977,98.1,341.977" transform="translate(3.606 14.928)" fill="none" stroke="#01abab" stroke-linecap="round" stroke-linejoin="round" stroke-width="2"/>
      <path id="Path_509" data-name="Path 509" d="M96.82,347.92s8.568,8.672,12.129,11.846,5.782-1.435,3.5-3.666" transform="translate(3.545 15.447)" fill="none" stroke="#01abab" stroke-linecap="round" stroke-linejoin="round" stroke-width="2"/>
      <path id="Path_510" data-name="Path 510" d="M81.32,342.09s10.495,10.862,14.517,13.543,6.955,3.907,8.055,3.048-.607-4.032-.607-4.032" transform="translate(2.811 15.17)" fill="none" stroke="#01abab" stroke-linecap="round" stroke-linejoin="round" stroke-width="2"/>
      <path id="Path_511" data-name="Path 511" d="M92.27,321.59s12.757,1.6,19.555,7.636" transform="translate(3.33 14.198)" fill="none" stroke="#01abab" stroke-linecap="round" stroke-linejoin="round" stroke-width="2"/>
      <line id="Line_35" data-name="Line 35" x2="19.764" transform="translate(103.413 236.086)" fill="none" stroke="#01abab" stroke-linecap="round" stroke-linejoin="round" stroke-width="2"/>
      <path id="Path_512" data-name="Path 512" d="M160.78,333.36s3.666,31.485,5.122,37.832" transform="translate(6.577 14.756)" fill="none" stroke="#01abab" stroke-linecap="round" stroke-linejoin="round" stroke-width="2"/>
    </g>
  </g>
</svg>
