<svg xmlns="http://www.w3.org/2000/svg" width="211.754" height="98.233" viewBox="0 0 211.754 98.233">
  <g id="Layer_2" data-name="Layer 2" transform="translate(0 0.04)">
    <g id="Group_114" data-name="Group 114" transform="translate(0 -0.04)">
      <g id="Group_111" data-name="Group 111" transform="translate(1.346 78.281)">
        <path id="Path_389" data-name="Path 389" d="M6.166,189.234a2.83,2.83,0,0,1,2.877,2.985v3.935H8.055v-3.935a1.959,1.959,0,0,0-1.927-2,2.013,2.013,0,0,0-2.009,2.047v3.879H3.13v-6.826h.989v1.006a2.323,2.323,0,0,1,2.047-1.1Z" transform="translate(-3.13 -186.108)" fill="#01abab"/>
        <path id="Path_390" data-name="Path 390" d="M25.366,189.335h.963v6.826h-.963v-1.29a3.278,3.278,0,0,1-2.538,1.385,3.508,3.508,0,0,1-.095-7.015,3.049,3.049,0,0,1,2.632,1.26Zm-2.645,5.957a2.545,2.545,0,1,0-2.469-2.55A2.5,2.5,0,0,0,22.721,195.291Z" transform="translate(-12.368 -186.113)" fill="#01abab"/>
        <path id="Path_391" data-name="Path 391" d="M42.765,185.2v.989H41.355v5.836h-.989v-5.836H39.2V185.2h1.166V181.98h.989V185.2Z" transform="translate(-23.687 -181.976)" fill="#01abab"/>
        <path id="Path_392" data-name="Path 392" d="M56.022,189.46h.989v6.826h-.989v-.963a2.207,2.207,0,0,1-2.064,1.058A2.888,2.888,0,0,1,51.08,193.4V189.46h.989V193.4a1.959,1.959,0,0,0,1.927,2c2.021,0,2.021-2.159,2.021-2.159V189.46Z" transform="translate(-30.457 -186.239)" fill="#01abab"/>
        <path id="Path_393" data-name="Path 393" d="M72.8,189.24h.12l-.542,1.019a2.887,2.887,0,0,0-2.159,2.09v3.815H69.23v-6.826h.989v1.153a3.181,3.181,0,0,1,2.581-1.247Z" transform="translate(-40.801 -186.113)" fill="#01abab"/>
        <path id="Path_394" data-name="Path 394" d="M85.666,189.335h.963v6.826h-.963v-1.29a3.278,3.278,0,0,1-2.538,1.385,3.508,3.508,0,0,1-.095-7.015,3.049,3.049,0,0,1,2.632,1.26Zm-2.645,5.957a2.545,2.545,0,1,0-2.469-2.55A2.5,2.5,0,0,0,83.021,195.291Z" transform="translate(-46.734 -186.113)" fill="#01abab"/>
        <path id="Path_395" data-name="Path 395" d="M101.239,192.023h-.989V181.98h.989Z" transform="translate(-58.48 -181.976)" fill="#01abab"/>
        <path id="Path_396" data-name="Path 396" d="M121.076,189.335h.963v6.826h-.963v-1.29a3.278,3.278,0,0,1-2.538,1.385,3.508,3.508,0,0,1-.095-7.015,3.049,3.049,0,0,1,2.632,1.26Zm-2.645,5.957a2.545,2.545,0,1,0-2.469-2.55A2.5,2.5,0,0,0,118.431,195.291Z" transform="translate(-66.914 -186.113)" fill="#01abab"/>
        <path id="Path_397" data-name="Path 397" d="M140.856,189.346h.963v6.245c0,1.776-.869,3.733-3.583,3.733a3.361,3.361,0,0,1-3.337-2.292l.925-.284a2.307,2.307,0,0,0,2.443,1.6,2.443,2.443,0,0,0,2.593-2.7v-.731a3.05,3.05,0,0,1-2.7,1.359,3.508,3.508,0,0,1-.017-7.015,3.358,3.358,0,0,1,2.714,1.372v-1.277Zm-2.714,5.957a2.544,2.544,0,1,0-2.512-2.538A2.52,2.52,0,0,0,138.142,195.3Z" transform="translate(-78.119 -186.125)" fill="#01abab"/>
        <path id="Path_398" data-name="Path 398" d="M160.215,194.361l.705.667a4.248,4.248,0,0,1-2.839,1.221,3.436,3.436,0,0,1-3.432-3.449,3.353,3.353,0,1,1,6.692,0v.409h-5.673a2.455,2.455,0,0,0,2.417,2.064,2.956,2.956,0,0,0,2.129-.907Zm-2.172-4.206a2.277,2.277,0,0,0-2.374,2.116h4.654A2.194,2.194,0,0,0,158.043,190.155Z" transform="translate(-89.483 -186.108)" fill="#01abab"/>
        <path id="Path_399" data-name="Path 399" d="M174.622,183.92h-1v-1.94h1Zm0,8.1h-1V185.2h1Z" transform="translate(-100.294 -181.976)" fill="#01abab"/>
        <path id="Path_400" data-name="Path 400" d="M182.406,189.234a2.83,2.83,0,0,1,2.877,2.985v3.935h-.989v-3.935a1.959,1.959,0,0,0-1.927-2,2.013,2.013,0,0,0-2.008,2.047v3.879h-.989v-6.826h.989v1.006a2.323,2.323,0,0,1,2.047-1.1Z" transform="translate(-103.571 -186.108)" fill="#01abab"/>
        <path id="Path_401" data-name="Path 401" d="M201.736,189.346h.963v6.245c0,1.776-.869,3.733-3.583,3.733a3.361,3.361,0,0,1-3.337-2.292l.925-.284a2.307,2.307,0,0,0,2.443,1.6,2.443,2.443,0,0,0,2.593-2.7v-.731a3.05,3.05,0,0,1-2.7,1.359,3.508,3.508,0,0,1-.017-7.015,3.358,3.358,0,0,1,2.714,1.372v-1.277Zm-2.714,5.957a2.544,2.544,0,1,0-2.512-2.538A2.52,2.52,0,0,0,199.022,195.3Z" transform="translate(-112.815 -186.125)" fill="#01abab"/>
        <path id="Path_402" data-name="Path 402" d="M229.217,185.08a3.515,3.515,0,0,1,.03,7.028,3.434,3.434,0,0,1-2.714-1.424v1.329h-.963V181.97h.963v4.52a3.152,3.152,0,0,1,2.688-1.411Zm.026,6.069a2.551,2.551,0,1,0-2.525-2.55A2.531,2.531,0,0,0,229.243,191.148Z" transform="translate(-129.901 -181.97)" fill="#01abab"/>
        <path id="Path_403" data-name="Path 403" d="M250.115,194.361l.705.667a4.248,4.248,0,0,1-2.839,1.221,3.436,3.436,0,0,1-3.432-3.449,3.353,3.353,0,1,1,6.692,0v.409h-5.673a2.455,2.455,0,0,0,2.417,2.064,2.956,2.956,0,0,0,2.129-.907Zm-2.172-4.206a2.277,2.277,0,0,0-2.374,2.116h4.654A2.194,2.194,0,0,0,247.943,190.155Z" transform="translate(-140.718 -186.108)" fill="#01abab"/>
        <path id="Path_404" data-name="Path 404" d="M268.606,189.335h.963v6.826h-.963v-1.29a3.278,3.278,0,0,1-2.538,1.385,3.508,3.508,0,0,1-.094-7.015,3.049,3.049,0,0,1,2.632,1.26Zm-2.645,5.957a2.545,2.545,0,1,0-2.469-2.55A2.5,2.5,0,0,0,265.961,195.291Z" transform="translate(-150.993 -186.113)" fill="#01abab"/>
        <path id="Path_405" data-name="Path 405" d="M288.122,189.46h.989v6.826h-.989v-.963a2.207,2.207,0,0,1-2.064,1.058,2.888,2.888,0,0,1-2.877-2.985V189.46h.989V193.4a1.959,1.959,0,0,0,1.927,2c2.021,0,2.021-2.159,2.021-2.159V189.46Z" transform="translate(-162.734 -186.239)" fill="#01abab"/>
        <path id="Path_406" data-name="Path 406" d="M304.145,185.2v.989h-1.411v5.836h-.989v-5.836H300.58V185.2h1.166V181.98h.989V185.2Z" transform="translate(-172.65 -181.976)" fill="#01abab"/>
        <path id="Path_407" data-name="Path 407" d="M316.626,189.46H317.7L313.2,199.477h-1.071l1.437-3.2-2.688-6.813h1.071l2.185,5.552,2.482-5.552Z" transform="translate(-178.52 -186.239)" fill="#01abab"/>
      </g>
      <g id="Group_112" data-name="Group 112" transform="translate(142.489 77.433)">
        <path id="Path_408" data-name="Path 408" d="M348.323,185.822a3.1,3.1,0,0,0-.735,1.011,40.522,40.522,0,0,1-2.292,4.258c.873.71,3.247,2.512,3.247,4.611a1.6,1.6,0,0,1-1.445,1.639c-.684,0-.955-.409-1.664-1.389-.6-.817-1.639-2.292-1.8-2.482a22.5,22.5,0,0,1-12.223,8.43l-.108-.219c2.839-1.475,7.613-5.647,10.529-10.15a29.74,29.74,0,0,0-6-4.008,18.049,18.049,0,0,1,7.122,2.1,26.173,26.173,0,0,0,2.292-5.509c0-.929-1.527-1.475-1.966-1.609a3.31,3.31,0,0,1,1.828-.572c1.884,0,4.008,2.1,4.008,2.946,0,.3-.189.439-.791.955Z" transform="translate(-331.3 -181.1)" fill="#01abab"/>
        <path id="Path_409" data-name="Path 409" d="M402.252,188.241a2.454,2.454,0,0,0-1.144.546,41.112,41.112,0,0,1-5.157,3.6l-.163-.138a23.562,23.562,0,0,0,3-5.127c-2.262.628-4.692,1.419-7.01,2.181-.056.735-.189,3.329-.189,5.621,0,1.8.189,2.593,2.92,2.593a20.87,20.87,0,0,0,4.365-.546,3.931,3.931,0,0,1,.817-.108,4.52,4.52,0,0,1,2.318.654,1.094,1.094,0,0,1,.383.873c0,1.389-2.155,1.664-5.294,1.664-7.909,0-7.884-1.557-7.72-9.987a27.177,27.177,0,0,0-3.957,1.828,1.662,1.662,0,0,1-.847.3c-1.062,0-2.645-1.8-2.645-3.436a4.045,4.045,0,0,1,.271-1.5c.684,1.2,1.2,1.965,2.512,1.965a26.905,26.905,0,0,0,4.718-1.011c0-.9.056-5.294-.271-6.03-.383-.847-1.72-1.062-2.4-1.174A3.822,3.822,0,0,1,389.19,180c.847,0,3.6.52,3.6,1.583,0,.138-.327,1.256-.327,1.282a37.836,37.836,0,0,0-.546,4.666c2.318-.654,6.821-1.91,6.985-2.017.271-.163.766-.52,1.092-.766a.508.508,0,0,1,.327-.108,10.948,10.948,0,0,1,2.563,1.664c.383.3.766.572.766,1.037,0,.52-.138.572-1.393.9Z" transform="translate(-360.155 -180)" fill="#01abab"/>
        <path id="Path_410" data-name="Path 410" d="M446.867,188.233c-.108.49-.572,3.845-.71,4.585a12.535,12.535,0,0,1-7.174,9.44l-.163-.163c3.712-3.548,5.294-8.649,5.294-13.776,0-1.72-.464-1.854-2.236-2.4a4.894,4.894,0,0,1,2.155-.766c.873,0,3.217.873,3.217,1.828,0,.219-.353,1.062-.383,1.256Zm7.858,10.15c-.52.409-2.757,2.155-3.191,2.538-.52.409-.628.434-.735.434-.684,0-2.073-2.4-2.073-3.054a16.378,16.378,0,0,1,.434-1.609c.138-.766.271-4.391.271-6.383,0-.955,0-5.045-.357-5.647-.383-.684-1.527-.929-2.047-1.062a3.455,3.455,0,0,1,1.884-.791c.955,0,3.63.981,3.63,1.991a16.331,16.331,0,0,1-.49,1.639c-.245,1.174-.572,8.43-.572,10.12,0,.219.056.409.245.409,1.037,0,6.494-3.9,9.931-8.185l.189.163a21.189,21.189,0,0,1-7.118,9.441Z" transform="translate(-392.577 -181.601)" fill="#01abab"/>
      </g>
      <g id="Group_113" data-name="Group 113" transform="translate(0 0)">
        <path id="Path_411" data-name="Path 411" d="M17.182,10.51,18.219,9.2c.206-.254.275-.3.37-.3.138,0,.254.116.439.275l1.5,1.286a.514.514,0,0,1,.206.37c0,.206-.185.228-.344.228H9.828l1.127.323c.206.069.46.138.46.439,0,.228-.116.3-.529.576a6.376,6.376,0,0,1-.275,1.725h6.37l.873-1.148c.206-.254.275-.3.37-.3.069,0,.138,0,.46.275l1.4,1.127a.515.515,0,0,1,.254.37c0,.206-.206.232-.344.232H11.161c1.312,2.254,4.74,4.116,8.628,4.116.3,0,.529,0,1.127-.047v.185a3.854,3.854,0,0,0-2.138,2.3,10.112,10.112,0,0,1-8.167-6.555h-.159C8.542,19.916,4.219,20.725.4,21v-.185c4.116-.8,7.221-3.613,7.935-6.142H2.877a13.627,13.627,0,0,0-2.486.159L0,13.981c1.4.138,3.036.138,3.29.138H8.464a10.1,10.1,0,0,0,.344-2.348,4.559,4.559,0,0,0-.069-.714H3.058a13.627,13.627,0,0,0-2.486.159L.2,10.364c1.4.138,3.015.138,3.264.138h5.38V7.719H5.122a13.627,13.627,0,0,0-2.486.159l-.37-.852c1.4.138,3.015.138,3.264.138H8.843V4.932H3.849a14.314,14.314,0,0,0-2.486.138l-.37-.83c1.381.116,3.015.138,3.264.138H11.2A10.288,10.288,0,0,0,12.653-.04l2.46,1.518c.185.116.3.185.3.413,0,.3-.206.344-.783.46-.9.688-1.105.83-2.92,2.026H16.2l.989-1.243c.185-.228.232-.275.344-.275.163,0,.3.138.439.254l1.333,1.2c.116.116.232.228.232.37,0,.206-.206.254-.37.254H10.791V7.164h3.565L15.07,6.2c.138-.206.206-.3.344-.3.116,0,.159.047.439.254l1.243.989a.433.433,0,0,1,.232.344c0,.206-.185.228-.344.228H10.8v2.783h6.37ZM4.322.416C6.967.738,8.507,2,8.507,3.22A1.042,1.042,0,0,1,7.471,4.368c-.645,0-.8-.344-1.312-1.333A6.566,6.566,0,0,0,4.249.6L4.318.412Z" transform="translate(0 0.04)" fill="#01abab"/>
        <path id="Path_412" data-name="Path 412" d="M62.511,10.23H55.471c.021,1.08-.022,3.153-.116,4.322.667-.508,3.29-2.761,3.682-4.073l1.677,1.264a.515.515,0,0,1,.254.37c0,.323-.482.344-1.011.344a16.89,16.89,0,0,1-4.623,2.391,11.032,11.032,0,0,1-3.084,7.29l-.159-.069c1.587-2.116,1.587-7.914,1.587-9.157a22.661,22.661,0,0,0-.323-4.163l2.348.92h2.348a11.858,11.858,0,0,0,.9-3.518c0-.206-.022-.529-.047-.942l2.3.968c.3.116.439.206.439.439,0,.185-.022.3-.8.551a32.423,32.423,0,0,1-2.322,2.507h1.793L61,8.893q.254-.275.344-.275c.163,0,.37.185.439.232l.852.757c.022.022.232.232.232.37,0,.206-.185.254-.344.254Zm-.185-5.406H55.7a11.858,11.858,0,0,0-2.486.159l-.391-.852c1.4.138,3.036.138,3.29.138h.852a6.472,6.472,0,0,0-.576-2.989l2.37.6c.508.138.529.254.529.439,0,.159,0,.228-.529.576V4.273h1.29l.619-.8c.206-.275.275-.275.344-.275.116,0,.185.047.413.228l1.011.8a.433.433,0,0,1,.232.344c0,.228-.185.254-.344.254ZM61.8,17.4a15.6,15.6,0,0,1-7.432,3.656V20.9a22.025,22.025,0,0,0,5.084-3.7,13.482,13.482,0,0,0,1.54-1.819l1.566,1.264a.356.356,0,0,1,.159.323c0,.344-.138.37-.92.439ZM56.275,9.262c-.667,0-.873-.344-1.08-1.4a7.582,7.582,0,0,0-.757-2.3l.069-.138c.8.228,2.83,1.127,2.83,2.714a1.016,1.016,0,0,1-1.058,1.127Zm5.084,5.428a13.628,13.628,0,0,1-6.026,2.851v-.116c2.946-1.862,4.92-3.888,5.152-4.74l1.5,1.2a.817.817,0,0,1,.254.439c0,.275-.3.323-.873.37ZM72.674,3.719h-4.3A15.8,15.8,0,0,1,66.3,6.755h3.036l.783-.714c.138-.138.254-.254.391-.254a.9.9,0,0,1,.46.254l.968.735c.163.116.232.185.232.323,0,.185-.021.3-.619.852.021.576,0,.688.021,1.656.047,1.841.163,5.5.185,7.015a1.093,1.093,0,0,1-1.174,1.2c-.826,0-.852-.323-.852-.783H65.044a.626.626,0,0,1-.047.344l1.609,1.381a.6.6,0,0,1,.228.391c0,.275-.116.275-.989.254a16.633,16.633,0,0,1-6.877,2.507l-.022-.159a21.039,21.039,0,0,0,5.7-3.978,1.508,1.508,0,0,1-.761.206c-.714,0-.714-.3-.714-.576,0-1.148.069-6.787.069-8.073A21.033,21.033,0,0,0,63.01,5.7l2.275,1.058h.576A27.778,27.778,0,0,0,66,3.719H65.47a11.2,11.2,0,0,0-2.486.159l-.37-.852c1.08.09,2.163.138,3.264.138h4.073l.783-1.037c.206-.254.275-.3.37-.3.116,0,.206.09.413.254l1.29,1.037c.069.069.228.185.228.344,0,.232-.228.254-.37.254ZM69.728,7.306H65.014V9.951h4.714Zm0,3.2H65.014v2.645h4.714Zm0,3.2H65.014v2.783h4.714ZM71.775,22c-.645,0-.873-.344-1.634-1.449a16.914,16.914,0,0,0-2.529-2.735l.09-.116c3.221.508,5.036,2.026,5.036,3.359a.9.9,0,0,1-.968.942Z" transform="translate(-29.687 -0.712)" fill="#01abab"/>
        <path id="Path_413" data-name="Path 413" d="M107.646,25.011a2.026,2.026,0,1,1,2.026-2.026A2.015,2.015,0,0,1,107.646,25.011Z" transform="translate(-60.194 -11.928)" fill="#01abab"/>
        <path id="Path_414" data-name="Path 414" d="M126.552,2.661l.852-.551a.987.987,0,0,1,.413-.159.331.331,0,0,1,.275.159l1.08,1.312a.946.946,0,0,1,.206.46c0,.413-.667.529-.989.6a28.979,28.979,0,0,1-4.116,5.036,13.036,13.036,0,0,1-5.935,3.449l-.047-.138A27.256,27.256,0,0,0,123.6,7.951c-.232,0-.529,0-.968-.645a10.083,10.083,0,0,0-1.91-2.322l.047-.185c1.471.069,3.518.37,3.793,1.862a17.4,17.4,0,0,0,1.978-3.449h-2.275a13.065,13.065,0,0,0-2.486.159l-.37-.852c1.08.09,2.185.138,3.264.138h1.862Zm1.08,12.236c-.576,4.946-3.29,6.464-7.57,7.247l-.09-.232c4.714-1.677,5.337-4.185,5.682-7.015h-2.232a14.314,14.314,0,0,0-2.486.138l-.37-.83c1.381.116,3.015.138,3.264.138h1.888c0-.069.138-1.746.116-3.221a10.181,10.181,0,0,0-1.772.138l-.37-.852c1.381.138,3.015.138,3.264.138H130.5L131.58,9.3c.228-.254.254-.275.344-.275.116,0,.232.069.439.228l1.518,1.264c.116.09.232.185.232.344,0,.206-.185.232-.344.232h-2.026c0,.529.047,2.783.047,3.243h1.884l.989-1.359c.09-.116.206-.3.344-.3.116,0,.159.047.439.254l1.725,1.359a.484.484,0,0,1,.228.344c0,.206-.206.254-.37.254h-5.243c.022.688-.022,3.819.09,4.322.09.439.116.576,2.507.576,1.725,0,1.931-.413,2.116-.783a27.605,27.605,0,0,0,1.148-3.153h.206c.021,1.931.047,2.6.391,3.174.069.116.551.529.551.645a2.541,2.541,0,0,1-.852,1.312c-.529.508-1.2.714-3.5.714-3.931,0-4.417-.529-4.507-2.275-.022-.551-.022-3.841-.022-4.533h-2.3Zm2.3-.551V11.1h-2.185a30.126,30.126,0,0,1-.047,3.243h2.232Zm7.131-9.109c.275.232.323.344.323.413,0,.323-.275.344-1.011.323-.344.159-1.862.761-2.8,1.127a12.207,12.207,0,0,0,6.993,2.968v.185a4.438,4.438,0,0,0-2.391,2.069,12.531,12.531,0,0,1-5.38-4A15.267,15.267,0,0,1,129.18,1.8l.254-.09a10.7,10.7,0,0,0,1.815,2.946,8.232,8.232,0,0,0,1.841-3.381l1.862,1.428c.228.159.323.228.323.413,0,.275-.323.344-.482.344a.881.881,0,0,1-.323-.047A23.255,23.255,0,0,1,131.6,5.095a18.442,18.442,0,0,0,1.54,1.609,6.845,6.845,0,0,0,2.026-2.989l1.91,1.518Z" transform="translate(-67.415 -0.712)" fill="#01abab"/>
        <path id="Path_415" data-name="Path 415" d="M177.2,9.125a13.683,13.683,0,0,0-2.439.413l-.482-.783c1.264-.047,2.946-.185,3.264-.232l3.957-.439.047-3.544a36.577,36.577,0,0,1-6.507.619c-.989,0-1.634-.047-2.185-.069V4.884A75.382,75.382,0,0,0,185.741,1.8c2.026-.645,2.185-.83,2.6-1.29l1.746,1.677c.163.159.254.254.254.37,0,.323-.3.323-.391.323-.116,0-.619-.069-.735-.069-1.359.323-2.968.688-3.91.9-.508.116-1.428.323-1.793.391l-.09,3.772,4.163-.439L188.3,6.17c.185-.323.228-.413.391-.413a.938.938,0,0,1,.439.228l1.518,1.037c.159.116.275.185.275.37,0,.159-.159.206-.323.232l-7.2.8c-.047,1.566-.069,3.29-.09,4.671l6.051-.688.92-1.428c.116-.185.206-.344.344-.344a.761.761,0,0,1,.439.206l1.609,1.148c.159.116.254.206.254.37,0,.185-.206.228-.323.254l-9.316,1.037c-.021.83-.069,4.142-.069,4.761,0,.508.09.688.46.8.344.09,2.8.116,3.359.116,3.036,0,3.243-.275,3.682-1.312a8.99,8.99,0,0,0,.757-2.6h.185a16.1,16.1,0,0,0,.735,2.83,5.013,5.013,0,0,1,.645,1.037,2.1,2.1,0,0,1-1.058,1.29c-1.08.551-4,.6-5.312.6-4.507,0-5.337-.391-5.337-2.667,0-.344.069-3.91.09-4.645l-5.634.619a12.813,12.813,0,0,0-2.46.439l-.46-.783c1.312-.047,3.036-.206,3.264-.228l5.29-.6c0-.735.069-4,.069-4.671l-4.279.482Z" transform="translate(-98.515 -0.273)" fill="#01abab"/>
      </g>
      <path id="Path_416" data-name="Path 416" d="M41.441,64.33a14.258,14.258,0,0,0-11.686,6.1,14.238,14.238,0,0,0-20.791-2.8V67.07H3.8v40.686H8.961V78.6a9.1,9.1,0,0,1,18.21,0v29.16h5.161V78.6a9.1,9.1,0,0,1,18.21,0v29.16H55.7V78.6A14.282,14.282,0,0,0,41.437,64.33Z" transform="translate(-2.166 -36.645)" fill="#01abab"/>
      <path id="Path_417" data-name="Path 417" d="M157.485,105.176a22.853,22.853,0,1,1,16.163-39.013l1.17,1.243L146.307,96.066a19.8,19.8,0,0,0,11.178,4,17.626,17.626,0,0,0,12.546-5.2,9.71,9.71,0,0,0,1.389-1.561l5.122,1.785a34.91,34.91,0,0,1-2.9,3.393,22.7,22.7,0,0,1-16.158,6.692Zm0-40.6a17.746,17.746,0,0,0-17.745,17.741A16.651,16.651,0,0,0,142.9,92.7l24.868-24.855a16.443,16.443,0,0,0-10.279-3.277Z" transform="translate(-76.727 -33.875)" fill="#01abab"/>
      <path id="Path_418" data-name="Path 418" d="M253.052,75.894l-.43-.009a15.32,15.32,0,0,1-13.316-9.694l4.654-2.039a10.423,10.423,0,0,0,8.881,6.572A9.283,9.283,0,0,0,257.082,53.3l-12.412-6.8A21.486,21.486,0,0,1,233.5,27.655a19.565,19.565,0,0,1,38.777-3.7l.357,1.849-5.088,1.789-.335-2.667a14.405,14.405,0,0,0-28.549,2.727,16.319,16.319,0,0,0,8.486,14.322l12.412,6.8a14.446,14.446,0,0,1-6.507,27.109h0Z" transform="translate(-133.074 -4.593)" fill="#01abab"/>
      <path id="Path_419" data-name="Path 419" d="M366.046,13.261V8.1H332.4V75.9h33.646V70.738H337.561V44.58h28.485V39.419H337.561V13.261Z" transform="translate(-189.438 -4.599)" fill="#01abab"/>
      <path id="Path_420" data-name="Path 420" d="M451.322,75.324H420.88V70.163h25.281V7.09h5.161Z" transform="translate(-239.864 -4.023)" fill="#01abab"/>
    </g>
  </g>
</svg>
