<svg xmlns="http://www.w3.org/2000/svg" width="259.588" height="120.422" viewBox="0 0 259.588 120.422">
  <g id="Layer_2" data-name="Layer 2" transform="translate(0 0.04)">
    <g id="Group_106" data-name="Group 106" transform="translate(0 -0.04)">
      <g id="Group_103" data-name="Group 103" transform="translate(1.65 95.963)">
        <path id="Path_325" data-name="Path 325" d="M6.852,189.235a3.469,3.469,0,0,1,3.527,3.659v4.824H9.167v-4.824A2.4,2.4,0,0,0,6.8,190.448a2.467,2.467,0,0,0-2.462,2.51v4.756H3.13v-8.367H4.343v1.234a2.848,2.848,0,0,1,2.51-1.35Z" transform="translate(-3.13 -185.402)" fill="#fff"/>
        <path id="Path_326" data-name="Path 326" d="M26.727,189.356h1.181v8.367H26.727v-1.582a4.018,4.018,0,0,1-3.111,1.7,4.3,4.3,0,0,1-.116-8.6,3.738,3.738,0,0,1,3.227,1.545v-1.429Zm-3.243,7.3a3.12,3.12,0,1,0-3.026-3.127,3.066,3.066,0,0,0,3.026,3.127Z" transform="translate(-10.793 -185.407)" fill="#fff"/>
        <path id="Path_327" data-name="Path 327" d="M43.571,185.924v1.213H41.841v7.155H40.629v-7.155H39.2v-1.213h1.429V181.98h1.213v3.944Z" transform="translate(-20.182 -181.975)" fill="#fff"/>
        <path id="Path_328" data-name="Path 328" d="M57.138,189.46h1.213v8.367H57.138v-1.181a2.705,2.705,0,0,1-2.531,1.3,3.54,3.54,0,0,1-3.527-3.659V189.46h1.213v4.824a2.4,2.4,0,0,0,2.362,2.446c2.478,0,2.478-2.647,2.478-2.647V189.46Z" transform="translate(-25.799 -185.511)" fill="#fff"/>
        <path id="Path_329" data-name="Path 329" d="M73.606,189.24h.148l-.664,1.25a3.539,3.539,0,0,0-2.647,2.562v4.677H69.23v-8.367h1.213v1.413a3.9,3.9,0,0,1,3.163-1.529Z" transform="translate(-34.379 -185.407)" fill="#fff"/>
        <path id="Path_330" data-name="Path 330" d="M87.027,189.356h1.181v8.367H87.027v-1.582a4.018,4.018,0,0,1-3.111,1.7,4.3,4.3,0,0,1-.116-8.6,3.738,3.738,0,0,1,3.227,1.545v-1.429Zm-3.243,7.3a3.12,3.12,0,1,0-3.026-3.127A3.066,3.066,0,0,0,83.784,196.658Z" transform="translate(-39.301 -185.407)" fill="#fff"/>
        <path id="Path_331" data-name="Path 331" d="M101.463,194.291H100.25V181.98h1.213Z" transform="translate(-49.044 -181.975)" fill="#fff"/>
        <path id="Path_332" data-name="Path 332" d="M122.437,189.356h1.181v8.367h-1.181v-1.582a4.018,4.018,0,0,1-3.111,1.7,4.3,4.3,0,0,1-.116-8.6,3.738,3.738,0,0,1,3.227,1.545v-1.429Zm-3.243,7.3a3.12,3.12,0,1,0-3.026-3.127A3.066,3.066,0,0,0,119.194,196.658Z" transform="translate(-56.041 -185.407)" fill="#fff"/>
        <path id="Path_333" data-name="Path 333" d="M142.244,189.365h1.181v7.656c0,2.178-1.065,4.576-4.392,4.576a4.12,4.12,0,0,1-4.091-2.81l1.134-.348a2.829,2.829,0,0,0,2.995,1.961,3,3,0,0,0,3.179-3.311v-.9a3.739,3.739,0,0,1-3.311,1.666,4.3,4.3,0,0,1-.021-8.6,4.116,4.116,0,0,1,3.327,1.682v-1.566Zm-3.327,7.3a3.119,3.119,0,1,0-3.079-3.111A3.09,3.09,0,0,0,138.917,196.668Z" transform="translate(-65.335 -185.416)" fill="#fff"/>
        <path id="Path_334" data-name="Path 334" d="M161.473,195.52l.865.817a5.208,5.208,0,0,1-3.48,1.5,4.212,4.212,0,0,1-4.207-4.228,4.111,4.111,0,1,1,8.2,0v.5H155.9a3.01,3.01,0,0,0,2.963,2.531,3.623,3.623,0,0,0,2.61-1.112Zm-2.663-5.156a2.792,2.792,0,0,0-2.91,2.594h5.7A2.69,2.69,0,0,0,158.81,190.364Z" transform="translate(-74.762 -185.402)" fill="#fff"/>
        <path id="Path_335" data-name="Path 335" d="M174.848,184.358H173.62V181.98h1.228Zm0,9.933H173.62v-8.367h1.228Z" transform="translate(-83.73 -181.975)" fill="#fff"/>
        <path id="Path_336" data-name="Path 336" d="M183.092,189.235a3.469,3.469,0,0,1,3.527,3.659v4.824h-1.213v-4.824a2.4,2.4,0,0,0-2.362-2.446,2.467,2.467,0,0,0-2.462,2.51v4.756H179.37v-8.367h1.213v1.234a2.848,2.848,0,0,1,2.51-1.35Z" transform="translate(-86.449 -185.402)" fill="#fff"/>
        <path id="Path_337" data-name="Path 337" d="M203.124,189.365h1.181v7.656c0,2.178-1.065,4.576-4.392,4.576a4.12,4.12,0,0,1-4.091-2.81l1.134-.348a2.829,2.829,0,0,0,2.995,1.961,3,3,0,0,0,3.179-3.311v-.9a3.739,3.739,0,0,1-3.311,1.666,4.3,4.3,0,0,1-.021-8.6,4.116,4.116,0,0,1,3.327,1.682v-1.566Zm-3.327,7.3a3.119,3.119,0,1,0-3.079-3.111A3.09,3.09,0,0,0,199.8,196.668Z" transform="translate(-94.117 -185.416)" fill="#fff"/>
        <path id="Path_338" data-name="Path 338" d="M230.041,185.782a4.308,4.308,0,0,1,.037,8.615,4.209,4.209,0,0,1-3.327-1.745v1.629H225.57V181.97h1.181v5.541a3.864,3.864,0,0,1,3.3-1.729Zm.032,7.439a3.127,3.127,0,1,0-3.095-3.127A3.1,3.1,0,0,0,230.073,193.221Z" transform="translate(-108.29 -181.97)" fill="#fff"/>
        <path id="Path_339" data-name="Path 339" d="M251.373,195.52l.865.817a5.208,5.208,0,0,1-3.48,1.5,4.212,4.212,0,0,1-4.207-4.228,4.111,4.111,0,1,1,8.2,0v.5H245.8a3.01,3.01,0,0,0,2.963,2.531,3.623,3.623,0,0,0,2.61-1.112Zm-2.663-5.156a2.792,2.792,0,0,0-2.91,2.594h5.7A2.69,2.69,0,0,0,248.71,190.364Z" transform="translate(-117.263 -185.402)" fill="#fff"/>
        <path id="Path_340" data-name="Path 340" d="M269.967,189.356h1.181v8.367h-1.181v-1.582a4.018,4.018,0,0,1-3.111,1.7,4.3,4.3,0,0,1-.116-8.6,3.738,3.738,0,0,1,3.227,1.545v-1.429Zm-3.243,7.3a3.12,3.12,0,1,0-3.026-3.127A3.066,3.066,0,0,0,266.724,196.658Z" transform="translate(-125.787 -185.407)" fill="#fff"/>
        <path id="Path_341" data-name="Path 341" d="M289.238,189.46h1.213v8.367h-1.213v-1.181a2.705,2.705,0,0,1-2.531,1.3,3.54,3.54,0,0,1-3.527-3.659V189.46h1.213v4.824a2.4,2.4,0,0,0,2.362,2.446c2.478,0,2.478-2.647,2.478-2.647V189.46Z" transform="translate(-135.526 -185.511)" fill="#fff"/>
        <path id="Path_342" data-name="Path 342" d="M304.951,185.924v1.213h-1.729v7.155h-1.213v-7.155H300.58v-1.213h1.429V181.98h1.213v3.944Z" transform="translate(-143.752 -181.975)" fill="#fff"/>
        <path id="Path_343" data-name="Path 343" d="M317.924,189.46h1.313l-5.51,12.279h-1.313l1.761-3.928-3.3-8.352h1.313l2.678,6.807,3.042-6.807Z" transform="translate(-148.621 -185.511)" fill="#fff"/>
      </g>
      <g id="Group_104" data-name="Group 104" transform="translate(174.676 94.925)">
        <path id="Path_344" data-name="Path 344" d="M352.168,186.7a3.8,3.8,0,0,0-.9,1.239,49.7,49.7,0,0,1-2.81,5.22c1.07.87,3.981,3.079,3.981,5.652a1.956,1.956,0,0,1-1.772,2.009c-.838,0-1.17-.5-2.04-1.7-.738-1-2.009-2.81-2.209-3.042a27.583,27.583,0,0,1-14.984,10.334l-.132-.269c3.48-1.808,9.332-6.923,12.907-12.443a36.461,36.461,0,0,0-7.36-4.914,22.127,22.127,0,0,1,8.731,2.573c.97-1.772,2.81-5.884,2.81-6.754,0-1.139-1.872-1.808-2.409-1.972a4.058,4.058,0,0,1,2.241-.7c2.309,0,4.914,2.573,4.914,3.612,0,.369-.232.538-.97,1.17Z" transform="translate(-331.3 -180.912)" fill="#fff"/>
        <path id="Path_345" data-name="Path 345" d="M406.842,190.1a3.007,3.007,0,0,0-1.4.67,50.406,50.406,0,0,1-6.322,4.413l-.2-.169a28.893,28.893,0,0,0,3.68-6.285c-2.773.77-5.752,1.74-8.594,2.673-.069.9-.232,4.081-.232,6.891,0,2.209.232,3.179,3.58,3.179a25.585,25.585,0,0,0,5.352-.67,4.824,4.824,0,0,1,1-.132,5.541,5.541,0,0,1,2.842.8,1.342,1.342,0,0,1,.469,1.07c0,1.7-2.641,2.04-6.49,2.04-9.7,0-9.664-1.909-9.464-12.243a33.316,33.316,0,0,0-4.851,2.241,2.037,2.037,0,0,1-1.039.369c-1.3,0-3.243-2.209-3.243-4.213a4.96,4.96,0,0,1,.332-1.84c.838,1.471,1.471,2.41,3.079,2.41a32.981,32.981,0,0,0,5.784-1.239c0-1.1.069-6.49-.332-7.392-.469-1.039-2.109-1.3-2.942-1.439A4.685,4.685,0,0,1,390.83,180c1.039,0,4.413.638,4.413,1.94,0,.169-.4,1.54-.4,1.571a46.381,46.381,0,0,0-.67,5.721c2.842-.8,8.362-2.341,8.562-2.473.332-.2.939-.638,1.339-.938a.623.623,0,0,1,.4-.132c.5,0,2.51,1.54,3.142,2.04.469.369.938.7.938,1.271,0,.638-.169.7-1.708,1.1Z" transform="translate(-355.236 -180)" fill="#fff"/>
        <path id="Path_346" data-name="Path 346" d="M448.685,189.459c-.132.6-.7,4.714-.87,5.62-1.471,7.255-6.084,10.4-8.794,11.573l-.2-.2c4.55-4.35,6.49-10.6,6.49-16.888,0-2.109-.569-2.272-2.742-2.942a6,6,0,0,1,2.642-.938c1.07,0,3.944,1.07,3.944,2.241,0,.269-.432,1.3-.469,1.54Zm9.633,12.443c-.638.5-3.38,2.641-3.912,3.111-.638.5-.77.533-.9.533-.838,0-2.541-2.942-2.541-3.743a20.066,20.066,0,0,1,.533-1.972c.169-.938.332-5.383.332-7.824,0-1.17,0-6.185-.438-6.923-.469-.838-1.872-1.139-2.51-1.3a4.235,4.235,0,0,1,2.309-.97c1.17,0,4.45,1.2,4.45,2.441a20.03,20.03,0,0,1-.6,2.009c-.3,1.439-.7,10.334-.7,12.406,0,.269.069.5.3.5,1.271,0,7.961-4.782,12.174-10.033l.232.2a25.974,25.974,0,0,1-8.726,11.573Z" transform="translate(-382.131 -181.328)" fill="#fff"/>
      </g>
      <g id="Group_105" data-name="Group 105">
        <path id="Path_347" data-name="Path 347" d="M21.063,12.893l1.271-1.608c.253-.311.337-.369.453-.369.169,0,.311.142.538.337L25.16,12.83a.63.63,0,0,1,.253.453c0,.253-.227.279-.422.279H12.047l1.381.4c.253.084.564.169.564.538,0,.279-.142.369-.649.707a7.817,7.817,0,0,1-.337,2.114h7.808l1.07-1.408c.253-.311.337-.369.453-.369.084,0,.169,0,.564.337l1.719,1.381a.631.631,0,0,1,.311.453c0,.253-.253.285-.422.285H13.682c1.608,2.763,5.81,5.046,10.576,5.046.369,0,.649,0,1.381-.058v.227a4.725,4.725,0,0,0-2.62,2.821A12.4,12.4,0,0,1,13.007,18h-.2C10.471,24.424,5.172,25.415.49,25.753v-.227C5.536,24.54,9.343,21.1,10.218,18H3.527a16.7,16.7,0,0,0-3.047.2L0,17.148c1.719.169,3.722.169,4.033.169h6.343a12.378,12.378,0,0,0,.422-2.879,5.588,5.588,0,0,0-.084-.875H3.749a16.7,16.7,0,0,0-3.047.2L.248,12.714c1.719.169,3.7.169,4,.169h6.6V9.471H6.279a16.7,16.7,0,0,0-3.047.2L2.779,8.623c1.719.169,3.7.169,4,.169h4.06V6.055H4.719a17.547,17.547,0,0,0-3.047.169L1.218,5.206c1.692.142,3.7.169,4,.169h8.515A12.611,12.611,0,0,0,15.511-.04l3.016,1.861c.227.142.369.227.369.506,0,.369-.253.422-.96.564-1.1.844-1.355,1.018-3.58,2.483h5.5l1.213-1.524c.227-.279.285-.337.422-.337.2,0,.369.169.538.311L23.663,5.29c.142.142.285.279.285.453,0,.253-.253.311-.453.311H13.229V8.791H17.6l.875-1.186c.169-.253.253-.369.422-.369.142,0,.2.058.538.311L20.958,8.76a.531.531,0,0,1,.285.422c0,.253-.227.279-.422.279H13.234v3.411h7.808ZM5.3.519c3.243.4,5.13,1.946,5.13,3.438A1.278,1.278,0,0,1,9.158,5.364c-.791,0-.986-.422-1.608-1.634A8.049,8.049,0,0,0,5.209.74L5.294.514Z" transform="translate(0 0.04)" fill="#fff"/>
        <path id="Path_348" data-name="Path 348" d="M64.865,12.252H56.234c.026,1.323-.026,3.865-.142,5.3.817-.622,4.033-3.385,4.513-4.993l2.056,1.55a.631.631,0,0,1,.311.453c0,.4-.591.422-1.239.422a20.706,20.706,0,0,1-5.668,2.931c-.2,2.315-.817,6.174-3.78,8.937l-.2-.084c1.946-2.594,1.946-9.7,1.946-11.225a27.78,27.78,0,0,0-.4-5.1l2.879,1.128H59.4a14.537,14.537,0,0,0,1.1-4.313c0-.253-.026-.649-.058-1.155l2.821,1.186c.369.142.538.253.538.538,0,.227-.026.369-.986.675a39.749,39.749,0,0,1-2.847,3.074h2.2l.844-.96q.311-.337.422-.337c.2,0,.453.227.538.285l1.044.928c.026.026.285.285.285.453,0,.253-.227.311-.422.311Zm-.227-6.627h-8.12a14.537,14.537,0,0,0-3.047.2l-.48-1.044c1.719.169,3.722.169,4.033.169h1.044a7.933,7.933,0,0,0-.707-3.664l2.905.733c.622.169.649.311.649.538,0,.2,0,.279-.649.707V4.95h1.582l.759-.986c.253-.337.337-.337.422-.337.142,0,.227.058.506.279l1.239.986a.531.531,0,0,1,.285.422c0,.279-.227.311-.422.311ZM63.99,21.046a19.126,19.126,0,0,1-9.111,4.482v-.2a27,27,0,0,0,6.232-4.54A16.526,16.526,0,0,0,63,18.563l1.919,1.55a.437.437,0,0,1,.2.4c0,.422-.169.453-1.128.538Zm-6.77-9.981c-.817,0-1.07-.422-1.323-1.719a9.294,9.294,0,0,0-.928-2.821l.084-.169c.986.279,3.469,1.381,3.469,3.327a1.245,1.245,0,0,1-1.3,1.381Zm6.232,6.654a16.706,16.706,0,0,1-7.387,3.5v-.142c3.612-2.283,6.032-4.766,6.316-5.81l1.835,1.466a1,1,0,0,1,.311.538c0,.337-.369.4-1.07.453ZM77.324,4.269H72.051a19.37,19.37,0,0,1-2.536,3.722h3.722l.96-.875c.169-.169.311-.311.48-.311a1.1,1.1,0,0,1,.564.311l1.186.9c.2.142.285.227.285.4,0,.227-.026.369-.759,1.044.026.707,0,.844.026,2.03.058,2.257.2,6.738.227,8.6a1.34,1.34,0,0,1-1.439,1.466c-1.012,0-1.044-.4-1.044-.96H67.971a.767.767,0,0,1-.058.422l1.972,1.692a.736.736,0,0,1,.279.48c0,.337-.142.337-1.213.311a20.391,20.391,0,0,1-8.431,3.074l-.026-.2A25.791,25.791,0,0,0,67.485,21.5a1.849,1.849,0,0,1-.933.253c-.875,0-.875-.369-.875-.707,0-1.408.084-8.32.084-9.9a25.785,25.785,0,0,0-.285-4.455l2.789,1.3h.706a34.055,34.055,0,0,0,.169-3.722h-.649a13.729,13.729,0,0,0-3.047.2l-.453-1.044c1.323.111,2.652.169,4,.169h4.993l.96-1.271c.253-.311.337-.369.453-.369.142,0,.253.111.506.311l1.582,1.271c.084.084.279.227.279.422,0,.285-.279.311-.453.311Zm-3.612,4.4H67.934v3.243h5.779Zm0,3.917H67.934v3.243h5.779Zm0,3.917H67.934v3.411h5.779Zm2.51,10.181c-.791,0-1.07-.422-2-1.777a20.735,20.735,0,0,0-3.1-3.353l.111-.142c3.949.622,6.174,2.483,6.174,4.118a1.109,1.109,0,0,1-1.186,1.155Z" transform="translate(-24.626 -0.584)" fill="#fff"/>
        <path id="Path_349" data-name="Path 349" d="M108.1,25.927a2.483,2.483,0,1,1,2.483-2.483,2.471,2.471,0,0,1-2.483,2.483Z" transform="translate(-49.933 -9.888)" fill="#fff"/>
        <path id="Path_350" data-name="Path 350" d="M128.418,2.972l1.044-.675a1.21,1.21,0,0,1,.506-.2.406.406,0,0,1,.337.2l1.323,1.608a1.16,1.16,0,0,1,.253.564c0,.506-.817.649-1.213.733a35.526,35.526,0,0,1-5.046,6.174,15.98,15.98,0,0,1-7.276,4.228l-.058-.169A33.412,33.412,0,0,0,124.8,9.458c-.285,0-.649,0-1.186-.791a12.361,12.361,0,0,0-2.341-2.847l.058-.227c1.8.084,4.313.453,4.65,2.283a21.332,21.332,0,0,0,2.425-4.228h-2.789a16.017,16.017,0,0,0-3.047.2L122.118,2.8c1.323.111,2.678.169,4,.169H128.4Zm1.323,15c-.706,6.063-4.033,7.924-9.279,8.884l-.111-.285c5.779-2.056,6.543-5.13,6.965-8.6H124.58a17.547,17.547,0,0,0-3.047.169l-.453-1.018c1.692.142,3.7.169,4,.169H127.4c0-.084.169-2.141.142-3.949a12.48,12.48,0,0,0-2.172.169l-.453-1.044c1.692.169,3.7.169,4,.169h4.344l1.323-1.524c.279-.311.311-.337.422-.337.142,0,.285.084.538.279l1.861,1.55c.142.111.285.227.285.422,0,.253-.227.285-.422.285h-2.483c0,.649.058,3.411.058,3.975h2.309l1.213-1.666c.111-.142.253-.369.422-.369.142,0,.2.058.538.311l2.114,1.666a.593.593,0,0,1,.279.422c0,.253-.253.311-.453.311h-6.427c.026.844-.026,4.682.111,5.3.111.538.142.707,3.074.707,2.114,0,2.367-.506,2.594-.96a33.837,33.837,0,0,0,1.408-3.865h.253c.026,2.367.058,3.185.48,3.891.084.142.675.649.675.791a3.115,3.115,0,0,1-1.044,1.608c-.649.622-1.466.875-4.286.875-4.819,0-5.415-.649-5.526-2.789-.026-.675-.026-4.708-.026-5.557h-2.821Zm2.821-.675V13.322h-2.678a36.941,36.941,0,0,1-.058,3.975h2.736ZM141.3,6.131c.337.285.4.422.4.506,0,.4-.337.422-1.239.4-.422.2-2.283.933-3.438,1.381a14.965,14.965,0,0,0,8.573,3.638v.227a5.441,5.441,0,0,0-2.931,2.536c-1.439-.564-3.612-1.466-6.6-4.909a18.715,18.715,0,0,1-4.429-7.982l.311-.111a13.121,13.121,0,0,0,2.225,3.612c.875-1.1,2.141-2.879,2.257-4.144l2.283,1.75c.279.2.4.279.4.506,0,.337-.4.422-.591.422a1.08,1.08,0,0,1-.4-.058A28.508,28.508,0,0,1,134.6,5.957a22.61,22.61,0,0,0,1.888,1.972,8.392,8.392,0,0,0,2.483-3.664l2.341,1.861Z" transform="translate(-55.922 -0.584)" fill="#fff"/>
        <path id="Path_351" data-name="Path 351" d="M178.185,11.071a16.775,16.775,0,0,0-2.989.506l-.59-.96c1.55-.058,3.612-.227,4-.285l4.851-.538.058-4.344a44.84,44.84,0,0,1-7.977.759c-1.213,0-2-.058-2.678-.084V5.872c4.176-.369,11.589-2.425,15.791-3.78,2.483-.791,2.678-1.018,3.185-1.582l2.141,2.056c.2.2.311.311.311.453,0,.4-.369.4-.48.4-.142,0-.759-.084-.9-.084-1.666.4-3.638.844-4.793,1.1-.622.142-1.75.4-2.2.48L185.8,9.536l5.1-.538.875-1.55c.227-.4.279-.506.48-.506a1.15,1.15,0,0,1,.538.279l1.861,1.271c.2.142.337.227.337.453,0,.2-.2.253-.4.285l-8.826.986c-.058,1.919-.084,4.033-.111,5.726l7.418-.844,1.128-1.75c.142-.227.253-.422.422-.422a.933.933,0,0,1,.538.253l1.972,1.408c.2.142.311.253.311.453,0,.227-.253.279-.4.311l-11.42,1.271c-.026,1.018-.084,5.077-.084,5.837,0,.622.111.844.564.986.422.111,3.438.142,4.118.142,3.722,0,3.975-.337,4.513-1.608a11.02,11.02,0,0,0,.928-3.185h.227a19.74,19.74,0,0,0,.9,3.469,6.144,6.144,0,0,1,.791,1.271,2.58,2.58,0,0,1-1.3,1.582c-1.323.675-4.909.733-6.511.733-5.525,0-6.543-.48-6.543-3.269,0-.422.084-4.793.111-5.694l-6.907.759a15.706,15.706,0,0,0-3.016.538l-.564-.96c1.608-.058,3.722-.253,4-.279l6.485-.733c0-.9.084-4.909.084-5.726l-5.246.591Z" transform="translate(-81.721 -0.22)" fill="#fff"/>
      </g>
      <path id="Path_352" data-name="Path 352" d="M49.944,64.33a17.479,17.479,0,0,0-14.325,7.476,17.454,17.454,0,0,0-25.487-3.438v-.68H3.8v49.877h6.327V81.819a11.162,11.162,0,1,1,22.323,0v35.747h6.327V81.819a11.162,11.162,0,1,1,22.323,0v35.747h6.327V81.819A17.508,17.508,0,0,0,49.939,64.33Z" transform="translate(-1.796 -30.391)" fill="#fff"/>
      <path id="Path_353" data-name="Path 353" d="M162.648,115.5a28.015,28.015,0,1,1,19.814-47.826L183.9,69.2l-34.951,35.135a24.275,24.275,0,0,0,13.7,4.9,21.607,21.607,0,0,0,15.38-6.369,11.9,11.9,0,0,0,1.7-1.914l6.279,2.188a42.8,42.8,0,0,1-3.554,4.16,27.825,27.825,0,0,1-19.809,8.2Zm0-49.772a21.754,21.754,0,0,0-21.754,21.749,20.413,20.413,0,0,0,3.87,12.733l30.485-30.469a20.158,20.158,0,0,0-12.6-4.018Z" transform="translate(-63.647 -28.094)" fill="#fff"/>
      <path id="Path_354" data-name="Path 354" d="M257.468,91.21l-.527-.011a18.78,18.78,0,0,1-16.323-11.884l5.7-2.5c1.54,4.313,6.327,7.951,10.888,8.056a11.38,11.38,0,0,0,5.2-21.359l-15.216-8.33A26.339,26.339,0,0,1,233.5,32.074a23.985,23.985,0,0,1,47.536-4.54l.438,2.267L275.237,32l-.411-3.269a17.659,17.659,0,0,0-35,3.343,20.006,20.006,0,0,0,10.4,17.557l15.216,8.33a17.709,17.709,0,0,1-7.977,33.232h0Z" transform="translate(-110.389 -3.804)" fill="#fff"/>
      <path id="Path_355" data-name="Path 355" d="M373.646,14.427V8.1H332.4V91.215h41.246V84.888H338.727V52.821h34.919V46.494H338.727V14.427Z" transform="translate(-157.145 -3.808)" fill="#fff"/>
      <path id="Path_356" data-name="Path 356" d="M458.2,90.737H420.88V84.41h30.991V7.09H458.2Z" transform="translate(-198.974 -3.331)" fill="#fff"/>
    </g>
  </g>
</svg>
