<svg xmlns="http://www.w3.org/2000/svg" width="200.537" height="200.537" viewBox="0 0 200.537 200.537">
  <g id="Group_4" data-name="Group 4" transform="translate(693.861 -768.198)">
    <circle id="Ellipse_1" data-name="Ellipse 1" cx="100.269" cy="100.269" r="100.269" transform="translate(-693.861 768.198)" fill="#01abab"/>
    <g id="Ellipse_16" data-name="Ellipse 16" transform="translate(-687.861 774.198)" fill="#01abab" stroke="#fff" stroke-width="1">
      <circle cx="94.269" cy="94.269" r="94.269" stroke="none"/>
      <circle cx="94.269" cy="94.269" r="93.769" fill="none"/>
    </g>
    <path id="Path_715" data-name="Path 715" d="M11.918-10.239a.327.327,0,0,1,.141-.255,2.617,2.617,0,0,1,1.784-.6,3.537,3.537,0,0,1,2.4.861A2.365,2.365,0,0,1,17.1-8.385q0,.826-.686.826a1,1,0,0,1-.536-.158.94.94,0,0,0-.545-.237q-.343,0-.554.018a4.769,4.769,0,0,0-.686.123q-.422.088-.439.088-.141,0-.141-.088t.237-.237q1.09-.756,1.2-.844a.348.348,0,0,0,.123-.237A.408.408,0,0,0,15-9.378a2.129,2.129,0,0,0-1.916-.976,2.486,2.486,0,0,0-.756.114l-.176.062a.344.344,0,0,1-.114.026Q11.918-10.151,11.918-10.239ZM7.655-5.8a8.7,8.7,0,0,1,4.14-1.239,4.249,4.249,0,0,1,2.32.65,2.971,2.971,0,0,1,1.072,1.134,2.6,2.6,0,0,1,.334,1.274,2.671,2.671,0,0,1-1.169,2.268,3.766,3.766,0,0,1-2.276.7,3.7,3.7,0,0,1-3.19-1.6,3.1,3.1,0,0,1-.536-.94q0-.088.105-.088a.309.309,0,0,1,.237.123A3.637,3.637,0,0,0,11.5-2.232a2.4,2.4,0,0,0,1.767-.6,2.153,2.153,0,0,0,.519-1.582,1.757,1.757,0,0,0-.861-1.635,2.852,2.852,0,0,0-1.441-.343,5.881,5.881,0,0,0-2.628.861q-.334.185-1.169.686.035,1.063.105,2.355.035.65.035.888A3.716,3.716,0,0,1,7.69-.448Q7.356.4,6.8.4,6.346.4,6.2-.2a3.234,3.234,0,0,0-.58-1.23A10.983,10.983,0,0,0,4.57-2.487a9.26,9.26,0,0,0-.826.773.959.959,0,0,1-.721.343,1.541,1.541,0,0,1-.791-.272A1.365,1.365,0,0,1,1.441-2.83a1.218,1.218,0,0,1,.22-.694q.158-.237.264-.237t.149.141a1.609,1.609,0,0,0,.193.431.274.274,0,0,0,.2.079.933.933,0,0,0,.105-.009A8.68,8.68,0,0,0,4.447-4q.6-.343,2.048-1.222,0-.571-.018-1.96-.009-.984-.018-1.477a16.1,16.1,0,0,1-1.942.229A2.087,2.087,0,0,1,2.83-9.413a1.57,1.57,0,0,1-.4-.879q0-.237.123-.237.1,0,.343.308a1.676,1.676,0,0,0,1.371.642,11.441,11.441,0,0,0,2.206-.3V-11.83a2.853,2.853,0,0,0-.07-.861.43.43,0,0,0-.325-.413,1.5,1.5,0,0,0-.466-.088q-.413,0-.413-.149a.492.492,0,0,1,.29-.431,1.622,1.622,0,0,1,.791-.29,2.249,2.249,0,0,1,1.274.466q.773.563.773.993a.809.809,0,0,1-.158.483l-.132.149a1.321,1.321,0,0,0-.141.211,4.424,4.424,0,0,0-.193,1.441,4.768,4.768,0,0,0,1.239-.729,1.262,1.262,0,0,1,.861-.308,1.489,1.489,0,0,1,.853.2.462.462,0,0,1,.229.387.692.692,0,0,1-.1.4,1.6,1.6,0,0,1-.387.325,7.189,7.189,0,0,1-1.187.58,16.508,16.508,0,0,1-1.582.5Q7.638-6.768,7.655-5.8ZM6.521-4.1q-1.143.87-1.644,1.327.272.167.888.492a1.388,1.388,0,0,0,.6.193q.176,0,.176-.255Q6.539-3.533,6.521-4.1Zm26.147-.844q-.668,0-1.389.035-.413.035-.536.035-.2,0-.2-.123,0-.1.158-.167,2.188-.861,2.188-1.257A2.769,2.769,0,0,0,32.353-7.9a5.751,5.751,0,0,0-.958-1.143,4.5,4.5,0,0,0-1.116-.694q-.325-.132-.325-.255,0-.176.272-.176l.123.018a5.164,5.164,0,0,1,2.918,1.494,5.043,5.043,0,0,1,1.2,1.626,4.313,4.313,0,0,1,.316,1.7,1.033,1.033,0,0,1-.29.791.776.776,0,0,1-.466.2h-.079a.871.871,0,0,1-.659-.29A.922.922,0,0,0,32.669-4.948Zm-6.7-5.062a5.882,5.882,0,0,1,.94-.053,1.744,1.744,0,0,1,1.529,1,4.086,4.086,0,0,1,.519,2.127,11.984,11.984,0,0,1-.668,4.087A5.58,5.58,0,0,1,27.229-.923,2.752,2.752,0,0,1,25.471.158q-.914,0-.888-.809a1.66,1.66,0,0,0-.36-.958,11.125,11.125,0,0,0-.773-.967.441.441,0,0,1-.123-.22.124.124,0,0,1,.141-.141.429.429,0,0,1,.237.105,10.157,10.157,0,0,0,1.222.7,1.863,1.863,0,0,0,.686.193.826.826,0,0,0,.686-.325,6.541,6.541,0,0,0,.94-2.048,9.761,9.761,0,0,0,.431-2.856,4.085,4.085,0,0,0-.264-1.8.846.846,0,0,0-.8-.4,3.849,3.849,0,0,0-.94.141q-.272.589-.844,1.811-1.2,2.549-1.687,3.56Q22.131-1.8,21.349-.5a.849.849,0,0,1-.791.4.667.667,0,0,1-.5-.237.713.713,0,0,1-.185-.483,1.854,1.854,0,0,1,.343-.976,61.4,61.4,0,0,0,3.973-6.943q-1.257.483-1.96.791a5.605,5.605,0,0,0-.519.255.65.65,0,0,1-.466.158,1.564,1.564,0,0,1-1.011-.483,2.324,2.324,0,0,1-.5-.642,1.285,1.285,0,0,1-.185-.58q0-.65.272-.65.1,0,.229.2.492.624.923.624a8.392,8.392,0,0,0,1.547-.22q.07-.009,2.083-.5a10.307,10.307,0,0,0,.853-2.883.553.553,0,0,0-.272-.519,5.188,5.188,0,0,0-.7-.308q-.272-.105-.272-.185,0-.229.308-.325a2.814,2.814,0,0,1,.879-.141,2.218,2.218,0,0,1,1.046.334,3,3,0,0,1,.853.694.788.788,0,0,1,.158.5.71.71,0,0,1-.413.58,1.225,1.225,0,0,0-.378.554q-.088.211-.325.712T25.972-10.011ZM49.983-14.08a3.918,3.918,0,0,1,1.477.668,1.36,1.36,0,0,1,.633,1.046q0,.633-.545.633a.683.683,0,0,1-.606-.413,7.545,7.545,0,0,0-1.134-1.591q-.2-.2-.2-.237a.105.105,0,0,1,.088-.105.59.59,0,0,1,.158-.018A.333.333,0,0,1,49.983-14.08Zm1.354-1.09a3.947,3.947,0,0,1,1.67.589,1.139,1.139,0,0,1,.633.914q0,.633-.562.633a.7.7,0,0,1-.606-.4,5.022,5.022,0,0,0-1.257-1.415q-.22-.158-.22-.211a.115.115,0,0,1,.053-.114.354.354,0,0,1,.141-.026A.721.721,0,0,1,51.337-15.17ZM49-10.011a3.672,3.672,0,0,0,.9-.272,1.27,1.27,0,0,1,.589-.123,3.013,3.013,0,0,1,.439.035q.879.132.879.87,0,.422-.6.5-.123.018-1.02.053Q49.6-8.921,49-8.842q.018,1.028.018,2.9a7.54,7.54,0,0,1-1.063,4.289A6.825,6.825,0,0,1,43.884.905a2.676,2.676,0,0,1-.624.105q-.22,0-.22-.158,0-.1.325-.237A7.228,7.228,0,0,0,45.536-.773,5.728,5.728,0,0,0,46.758-2.3,8.776,8.776,0,0,0,47.566-6.5l.009-1.485v-.606l-.9.132-.527.088q-1.151.176-1.257.176a2.551,2.551,0,0,1-1.749-.791Q42.8-9.3,42.8-9.475q0-.141.123-.141a.7.7,0,0,1,.237.088,3.861,3.861,0,0,0,1.529.237,26.142,26.142,0,0,0,2.883-.4q0-.571-.035-2.118a2.249,2.249,0,0,0-.167-.905.928.928,0,0,0-.483-.308,5.212,5.212,0,0,0-.589-.141q-.185-.026-.185-.141,0-.141.272-.343a1.5,1.5,0,0,1,.9-.29,2.33,2.33,0,0,1,1.187.413q.958.58.958,1.081a.65.65,0,0,1-.185.448.871.871,0,0,0-.176.483Q49-10.687,49-10.011Zm-8.947,6.39a.2.2,0,0,0,.176.132q.132,0,.22-.2.4-.905,1.257-3.041.105-.255.22-.255.088,0,.088.158a7.257,7.257,0,0,1-.158.888q-.1.413-.255,1.125-.132.615-.211,1a7.925,7.925,0,0,0-.237,1.371,3.9,3.9,0,0,0,.053.624,3.738,3.738,0,0,1,.053.527q0,.756-.562.756t-1.151-.879a6.616,6.616,0,0,1-.9-3.691,27.052,27.052,0,0,1,.36-3.981q.079-.466.149-.888.07-.36.088-.466a7.4,7.4,0,0,0,.141-1.274,2.192,2.192,0,0,0-.545-1.336A.805.805,0,0,1,38.7-13.3q0-.185.237-.185a1.7,1.7,0,0,1,.888.369,3.967,3.967,0,0,1,.729.659,2.2,2.2,0,0,1,.633,1.345,1.15,1.15,0,0,1-.29.721,2.493,2.493,0,0,0-.4.721,15.4,15.4,0,0,0-.773,4.034A4.978,4.978,0,0,0,40.052-3.621Zm23.493-6.943a14.094,14.094,0,0,0,1.424-.527,2.526,2.526,0,0,0,.729-.431,1.524,1.524,0,0,1,1.028-.325q1.046,0,1.046.738,0,.439-.976.791-1.749.633-2.821.976A19.633,19.633,0,0,0,65.417-6.68a4.8,4.8,0,0,0,1.028,1.116,1.71,1.71,0,0,1,.448,1.371q0,.861-.668.861-.387,0-.984-.65a4.372,4.372,0,0,0-1.811-1,5.789,5.789,0,0,0-1.758-.308,3.828,3.828,0,0,0-2.373.615,1.666,1.666,0,0,0-.721,1.327A1.814,1.814,0,0,0,59.9-1.67a9.052,9.052,0,0,0,3.2.448,3.544,3.544,0,0,0,.483-.035,1.634,1.634,0,0,1,.4-.044,2.3,2.3,0,0,1,1.266.343A.914.914,0,0,1,65.76-.2q0,.853-1.635.853a9.894,9.894,0,0,1-4.772-.958A3.742,3.742,0,0,1,57.99-1.529a2.64,2.64,0,0,1-.457-1.477A2.456,2.456,0,0,1,58.1-4.6a3.248,3.248,0,0,1,1.178-.9A6.062,6.062,0,0,1,61.9-6.029a16.85,16.85,0,0,1,2.593.211,25.578,25.578,0,0,1-1.6-3.217,13.22,13.22,0,0,1-3.182.466,4.154,4.154,0,0,1-1.626-.255,3.991,3.991,0,0,1-1.415-1.169.655.655,0,0,1-.2-.343q0-.158.141-.158a2.837,2.837,0,0,1,.378.237,3.634,3.634,0,0,0,2.039.554,14.855,14.855,0,0,0,3.419-.519q-.07-.22-.229-.694-.334-1.046-.562-1.7a.9.9,0,0,0-.466-.6,1.714,1.714,0,0,0-.527-.088h-.343q-.123,0-.123-.141a.792.792,0,0,1,.29-.492,1.076,1.076,0,0,1,.844-.343,2.621,2.621,0,0,1,1.635.536.778.778,0,0,1,.36.6.931.931,0,0,1-.088.325,1.7,1.7,0,0,0-.053.519A6.991,6.991,0,0,0,63.545-10.564ZM77.458-9.378q-.606.035-1.345.035a2.457,2.457,0,0,1-2.382-1.441.7.7,0,0,1-.088-.237.14.14,0,0,1,.158-.158q.062,0,.167.105a2.987,2.987,0,0,0,2.232.65,27.644,27.644,0,0,0,3.691-.413V-12.6q0-.738-.167-.9a1.077,1.077,0,0,0-.5-.22,3.954,3.954,0,0,0-.422-.07q-.105,0-.105-.123t.22-.343a.968.968,0,0,1,.721-.308,2.767,2.767,0,0,1,1.389.448q.773.457.773.923a.728.728,0,0,1-.255.5,1.13,1.13,0,0,0-.343.686q-.009.149-.053.563-.026.255-.035.422.853-.132,1.767-.325a4.255,4.255,0,0,0,1.02-.325,1.785,1.785,0,0,1,.888-.176,1.479,1.479,0,0,1,.94.325.782.782,0,0,1,.352.6.563.563,0,0,1-.272.554,3.094,3.094,0,0,1-.914.185q-2.391.211-3.832.413-.018.624-.018,1.318t.018,1.38a8.253,8.253,0,0,0,1.556-.378q.185-.079.185-.211a1.225,1.225,0,0,0-.114-.369,5.155,5.155,0,0,0-.4-.686.219.219,0,0,1-.026-.1.07.07,0,0,1,.079-.079.241.241,0,0,1,.141.062,11.529,11.529,0,0,0,.984.659,1.089,1.089,0,0,0,.536.167h.132q.844,0,.844.65a.547.547,0,0,1-.308.457,3.978,3.978,0,0,1-.659.3,14.184,14.184,0,0,1-2.918.729q.009.571.176,2.795a13.506,13.506,0,0,1,3.639,1.582q1.081.642,1.081,1.424A.83.83,0,0,1,85.781.5a.608.608,0,0,1-.475.22,1.024,1.024,0,0,1-.668-.29A11.7,11.7,0,0,0,81.4-1.749v.237Q81.4.932,78.592.932A3.8,3.8,0,0,1,76.307.316a1.884,1.884,0,0,1-.861-1.564,1.749,1.749,0,0,1,.9-1.441,4.27,4.27,0,0,1,1.714-.536,6.126,6.126,0,0,1,.9-.053q.439,0,1.028.035,0-1.318-.053-2.479-.466.035-1.459.035-2.575,0-2.575-1.494a2.278,2.278,0,0,1,.686-1.494A6.777,6.777,0,0,1,77.458-9.378Zm.738.018a3.314,3.314,0,0,0-1.028.756,1.665,1.665,0,0,0-.5.993q0,.791,1.441.791a16.4,16.4,0,0,0,1.8-.114q0-1.705-.018-2.663-.352.044-.879.123Zm1.8,7.2a7.246,7.246,0,0,0-1.661-.22q-.211,0-.4.018a3.545,3.545,0,0,0-1.389.343.872.872,0,0,0-.448.738.879.879,0,0,0,.571.809,3.511,3.511,0,0,0,1.547.237,1.922,1.922,0,0,0,1.494-.5A2.353,2.353,0,0,0,80-2.162Zm22.79-6.715a3.4,3.4,0,0,1,1.485.633,1.416,1.416,0,0,1,.668,1.072.644.644,0,0,1-.167.448.544.544,0,0,1-.422.185.688.688,0,0,1-.615-.413,7.516,7.516,0,0,0-1.125-1.582q-.2-.2-.2-.237a.105.105,0,0,1,.088-.105.494.494,0,0,1,.149-.018A.409.409,0,0,1,102.788-8.877Zm1.459-1.1a4.02,4.02,0,0,1,1.705.563,1.154,1.154,0,0,1,.65.914.708.708,0,0,1-.185.51.506.506,0,0,1-.369.158.741.741,0,0,1-.668-.4,4.908,4.908,0,0,0-1.257-1.406q-.22-.167-.22-.22a.115.115,0,0,1,.053-.114.317.317,0,0,1,.141-.026A1.055,1.055,0,0,1,104.247-9.976Zm-4.878-.668v-.088a41.457,41.457,0,0,0-5.238,1.67,3.016,3.016,0,0,0-.686.422.792.792,0,0,1-.527.193q-.554.026-1.362-.879a2.275,2.275,0,0,1-.668-1.3q0-.554.176-.554a.386.386,0,0,1,.29.176,3.809,3.809,0,0,0,.686.6,1.064,1.064,0,0,0,.51.105h.123a22.607,22.607,0,0,0,3.006-.6q2.918-.677,5.467-1.415a5.532,5.532,0,0,0,.993-.343,1.791,1.791,0,0,1,.686-.158,4.258,4.258,0,0,1,1.661.29q.571.272.571.7,0,.624-.668.642-.1.009-.712.026-.51.018-1.063.07a6.049,6.049,0,0,0-4.131,1.942,5.064,5.064,0,0,0-1.292,3.489,3.041,3.041,0,0,0,1.318,2.681,5.774,5.774,0,0,0,2.874.94,3.882,3.882,0,0,1,1.389.246,1.049,1.049,0,0,1,.7.923q0,.861-1.169.861a8.145,8.145,0,0,1-3.5-.844A4.62,4.62,0,0,1,96.926-2.5a4.383,4.383,0,0,1-.765-2.487,6.528,6.528,0,0,1,.7-3.023A7.723,7.723,0,0,1,99.369-10.644Z" transform="translate(-651.158 824.476)" fill="#fff"/>
    <path id="Path_714" data-name="Path 714" d="M8.68-9.117V-7.07H10.2q.68-.8.875-.8a2.834,2.834,0,0,1,.883.563q.367.32.367.453,0,.156-.211.156H5.047a3.228,3.228,0,0,0-.687.094L4.188-7.2A2.912,2.912,0,0,0,5-7.07H7.258V-9.117H5.578a3.146,3.146,0,0,0-.687.094l-.18-.586a2.936,2.936,0,0,0,.82.125H7.258v-.672q0-.359-.078-1.266,1.945.172,1.945.469,0,.2-.445.414v1.055H9.688q.633-.75.828-.75a2.568,2.568,0,0,1,.836.523q.352.281.352.438t-.2.156Zm.8,7.375h-3.1v.516a.511.511,0,0,1-.219.477,1.156,1.156,0,0,1-.578.109.781.781,0,0,1-.5-.109.586.586,0,0,1-.109-.422l.063-3.055q0-.812-.047-1.625a9.128,9.128,0,0,1,1.469.781H9.4q.547-.625.719-.625a2.25,2.25,0,0,1,.8.5q.32.273.32.43,0,.109-.367.445v.453L10.914-1.6q0,.578-.844.578-.594,0-.594-.477Zm0-.367V-4.7h-3.1v2.594Zm5.2-9.844q0,.188-.414.477v1.813l.047,9.148a2.129,2.129,0,0,1-.133.875A1.35,1.35,0,0,1,13.75.8a2.167,2.167,0,0,1-1.25.367q-.2,0-.258-.086a1.418,1.418,0,0,1-.109-.344,1.108,1.108,0,0,0-.477-.719,5.357,5.357,0,0,0-1.328-.484q-.063-.008-.062-.094t.063-.094q1.047.078,2.078.078.18,0,.227-.062a.339.339,0,0,0,.047-.211V-11.859H3.719v.75q0,3.391-.094,5.109a19.462,19.462,0,0,1-.383,3.094,7.533,7.533,0,0,1-1,2.469A9.533,9.533,0,0,1,.734,1.3.053.053,0,0,1,.7,1.313Q.57,1.313.57,1.2a.032.032,0,0,1,.008-.023A11.643,11.643,0,0,0,1.961-3.211,50.363,50.363,0,0,0,2.2-8.977q0-2.32-.117-4.164.961.484,1.781.914h8.617q.75-.766.914-.766a2.9,2.9,0,0,1,.914.578Q14.68-12.117,14.68-11.953Zm10.6,8.242H28.2Q29.18-4.9,29.375-4.9a4.574,4.574,0,0,1,1.172.82q.508.422.508.57,0,.164-.2.164h-5.57q.008.789.031,2.5.016,1.1.016,1.453,0,.687-.961.688-.7,0-.7-.562l.063-4.078H18.094a9.66,9.66,0,0,0-1.187.094l-.172-.586a7.524,7.524,0,0,0,1.313.125h1.406v-2.2q0-1.336-.062-2.4a15.386,15.386,0,0,1,1.68.766h2.656v-2.945H20.766a11.124,11.124,0,0,1-3.6,3.516.045.045,0,0,1-.031.008q-.141,0-.141-.117a.053.053,0,0,1,.016-.039,11.461,11.461,0,0,0,1.641-2.219A14.725,14.725,0,0,0,19.773-11.7a8.412,8.412,0,0,0,.516-1.844,14.605,14.605,0,0,1,1.758.594q.367.18.367.367,0,.266-.687.352-.352.734-.734,1.375h6.789q.938-1.1,1.133-1.1a4.494,4.494,0,0,1,1.133.766q.5.406.5.547,0,.156-.211.156h-5.07v2.945h1.891q.9-1.023,1.07-1.023a3.742,3.742,0,0,1,1.094.7q.461.367.461.531t-.242.156H25.266v.578Q25.266-4.672,25.281-3.711Zm-1.555,0V-7.172H20.961v3.461Z" transform="translate(-556.226 913.081)" fill="#fff"/>
    <path id="Path_713" data-name="Path 713" d="M29.972-71.051q1.515,0,1.515,1.1-.046,2.524-.229,11.016-.138,5.646-.138,9.776v29.421q0,7.344.184,9.317a9.106,9.106,0,0,0,.872,3.167Q32.817-5.875,35.3-5.37q.918.184,4.865.6.826.092.826,1.377,0,1.331-.826,1.331Q33.6-2.341,26.254-2.341q-7.619,0-14.274.275-.964,0-.964-1.331,0-1.285.964-1.377a39.621,39.621,0,0,0,5.37-.643,3.423,3.423,0,0,0,2.57-1.836q.964-1.974.964-12.484V-53.38q0-5.921-.964-7.206-.5-.872-2.2-.872a12.343,12.343,0,0,0-3.3.551L10.74-59.9a3.23,3.23,0,0,1-.688.138q-.688,0-.964-1.147a4.413,4.413,0,0,1-.138-.826q0-.551,1.01-.872Q19.415-66.048,29.972-71.051Zm43.7.459q10.419,0,16.064,10.694,4.819,9.226,4.819,24.28,0,17.441-6.288,26.9Q82.755-.367,73.667-.367q-10.74,0-16.248-10.419-4.773-9-4.773-24.28,0-17.717,6.242-27.218Q64.4-70.592,73.667-70.592Zm0,2.892q-6.013,0-8.308,9.96-1.7,7.436-1.7,22.4,0,17.074,2.295,24.464,2.387,7.619,7.711,7.619,5.875,0,8.17-9.868,1.7-7.436,1.7-22.215,0-17.212-2.249-24.647Q78.945-67.7,73.667-67.7Z" transform="translate(-654.524 918.387)" fill="#fff"/>
  </g>
</svg>
