<svg xmlns="http://www.w3.org/2000/svg" xmlns:xlink="http://www.w3.org/1999/xlink" width="328.001" height="431.057" viewBox="0 0 328.001 431.057">
  <defs>
    <filter id="Union_1" x="0" y="0" width="328.001" height="202.009" filterUnits="userSpaceOnUse">
      <feOffset dy="3" input="SourceAlpha"/>
      <feGaussianBlur stdDeviation="5" result="blur"/>
      <feFlood flood-color="#01abab" flood-opacity="0.161"/>
      <feComposite operator="in" in2="blur"/>
      <feComposite in="SourceGraphic"/>
    </filter>
  </defs>
  <g id="Group_360" data-name="Group 360" transform="translate(-1106 -10297)">
    <g id="Group_359" data-name="Group 359" transform="translate(0 923)">
      <g transform="matrix(1, 0, 0, 1, 1106, 9374)" filter="url(#Union_1)">
        <path id="Union_1-2" data-name="Union 1" d="M583.857,15954H571a50,50,0,0,1-50-50v-43a50,50,0,0,1,50-50H769a50,50,0,0,1,50,50v43a50,50,0,0,1-50,50H604.7l9.3,29Z" transform="translate(-506 -15799)" fill="#fff"/>
      </g>
      <text id="髪は健康のバロメーター_美しく健康な髪つくりの_お手伝いをさせて頂きます_" data-name="髪は健康のバロメーター
美しく健康な髪つくりの
お手伝いをさせて頂きます。" transform="translate(1147 9429)" fill="#01abab" font-size="20" font-family="NotoSansJP-Regular, Noto Sans JP"><tspan x="0" y="0">髪は健康のバロメーター</tspan><tspan x="0" y="30">美しく健康な髪つくりの</tspan><tspan x="0" y="60">お手伝いをさせて頂きます。</tspan></text>
    </g>
    <g id="Asset_3" data-name="Asset 3" transform="translate(1177.4 10442.436)">
      <g id="Layer_3" data-name="Layer 3" transform="translate(0.39 1.136)">
        <path id="Path_548" data-name="Path 548" d="M105.2,322.572c-.031-.732-9.5,15.833-14.615,22.654s-8.039,10.475-14.86,7.307-13.156-5.358-15.1-8.039-20.95-31.179-20.95-31.179a78.847,78.847,0,0,1,8.771-5.358A49.745,49.745,0,0,0,58.67,300.65s14.374,20.464,16.564,21.682,5.844-2.922,7.793-9.011,4.872-20.95,8.039-24.844,1.95-4.385,8.28-8.039S116.4,274.1,116.4,274.1l8.039-2.922h30.447s14.129,3.654,19.972,6.335,6.821,6.335,9.257,12.425,3.654,16.81,4.872,27.28,10.229,47.744,11.693,52.369,5.117,10.715,5.117,11.447-14.615,9.011-19.972,9.5-5.844-2.19-5.844-1.464a53.066,53.066,0,0,0,.862,6.779c.277,2.086.779,4.255.847,6.356.052,1.547.084,3.6.084,3.6H96.362s2.42-15.326,3.225-20.882c1.626-11.181,3.1-22.393,4.208-33.641.941-9.508,1.8-19.157,1.4-28.722Z" transform="translate(-19.138 -130.093)" fill="#fff"/>
        <path id="Path_549" data-name="Path 549" d="M125.333,133.577s-10.715.732-17.782-2.19-16.564-9.743-19.972-16.319-6.335-14.374-3.654-24.117S93.182,51,98.539,41.5s20.213-30.453,33.615-35.57S166.741.576,175.512,2.039s21.922,9.5,33.129,22.9,19,37.023,21.922,49.934,4.14,23.386,3.408,28.743-4.14,15.592-7.553,20.464-9.989,7.307-15.1,8.525-21.19,2.19-21.19,2.19l-64.794-1.218Z" transform="translate(-39.761 -1.261)" fill="#7fd5d5"/>
        <path id="Path_550" data-name="Path 550" d="M130.811,126.232v10.229s-9.5,1.95-8.28,10.715,11.693,12.665,11.693,12.665,1.7,6.821,3.408,9.5,4.626,6.089,6.089,6.335,20.7,8.28,20.7,8.28,13.9,52.38,14.38,52.009,13.386-51.523,13.386-51.523a101.386,101.386,0,0,1,13.156-5.358c6.335-1.95,10.715-5.117,13.156-9.743a49.742,49.742,0,0,0,3.408-7.793s9.743-3.654,12.665-10.475-9.257-14.374-9.257-14.374l.972-8.771-10.715-1.7S180.5,135.233,163.449,94.07c0,0-6.288,29.606-32.643,32.151Z" transform="translate(-58.637 -45.559)" fill="#fff"/>
        <path id="Path_551" data-name="Path 551" d="M215.143,305.66h17.14L223.8,335.489Z" transform="translate(-104.215 -146.55)" fill="#01abab"/>
        <ellipse id="Ellipse_49" data-name="Ellipse 49" cx="10.475" cy="5.969" rx="10.475" ry="5.969" transform="translate(140.622 104.059)" fill="#f1fbfc"/>
        <ellipse id="Ellipse_50" data-name="Ellipse 50" cx="10.475" cy="5.969" rx="10.475" ry="5.969" transform="translate(80.987 104.059)" fill="#f1fbfc"/>
        <path id="Path_552" data-name="Path 552" d="M310.956,503.531a32.166,32.166,0,0,0,1.62,6.283,2.091,2.091,0,0,0,.795,1.176c.768.434,1.767-.251,2.033-1.092a6.353,6.353,0,0,0-.042-2.624,2.818,2.818,0,0,1,.632-2.462,2.249,2.249,0,0,1,3,.423,6.545,6.545,0,0,1,1.281,3.063c.261,1.145.523,2.295.779,3.439-1.939,1.03-4.919-.993-6.283.727a2.331,2.331,0,0,0,.125,2.718,6.915,6.915,0,0,0,2.274,1.8c1.014.591,2.028,1.176,3.042,1.767a7.71,7.71,0,0,0,3.283,1.281c1.934.12,3.643-1.218,4.966-2.634a14.778,14.778,0,0,0,4.119-7.814c.612-4.359-1.511-8.588-3.57-12.477a1.724,1.724,0,0,0-.711-.836,1.781,1.781,0,0,0-.967-.052c-5.1.7-17.709-.575-16.381,7.318Z" transform="translate(-148.574 -237.482)" fill="#fff"/>
        <path id="Path_553" data-name="Path 553" d="M14.712,311.687c-4.673-3.1-11.28-3.664-14.322-8.379a4.713,4.713,0,0,1,2.546-1.9,7.041,7.041,0,0,1-1.521-3.983c.073-1.443,1.516-2.88,2.87-2.378-.146-1.647-.3-3.288-.444-4.934,1.678.042,3.351.078,5.028.12-1.134-2.347,1.61-5.065,4.213-4.934s4.746,2.018,6.6,3.847,3.842,3.81,6.414,4.234a5.284,5.284,0,0,1,1.317-6.163c2.049,1.338,4.192,2.786,5.258,4.987a13.665,13.665,0,0,1,1.014,4.067q.972,6.884,1.95,13.763c-.141-.983-10.783,6.011-11.552,6.6-4.286,3.309-5.755-2.546-9.377-4.945Z" transform="translate(-0.39 -136.828)" fill="#fff"/>
      </g>
      <g id="Layer_2" data-name="Layer 2" transform="translate(0.711 1)">
        <path id="Path_554" data-name="Path 554" d="M138.8,158.72l4.647,34.624a20.514,20.514,0,0,0,14.7,17l20,5.7a28.8,28.8,0,0,0,15.807,0l20.2-5.76a20.524,20.524,0,0,0,14.672-16.732l5.034-34.1" transform="translate(-66.774 -76.279)" fill="none" stroke="#01abab" stroke-linecap="round" stroke-linejoin="round" stroke-width="2"/>
        <path id="Path_555" data-name="Path 555" d="M204.35,223.76h27.86s-4.02,9.68-13.93,9.68S204.35,223.76,204.35,223.76Z" transform="translate(-98.061 -107.323)" fill="none" stroke="#01abab" stroke-linecap="round" stroke-linejoin="round" stroke-width="2"/>
        <path id="Path_556" data-name="Path 556" d="M230.136,200.51s-2.467,2.284-1.918,4.2" transform="translate(-109.415 -96.226)" fill="none" stroke="#01abab" stroke-linecap="round" stroke-linejoin="round" stroke-width="2"/>
        <ellipse id="Ellipse_51" data-name="Ellipse 51" cx="5.572" cy="8.541" rx="5.572" ry="8.541" transform="translate(140.359 85.012)" fill="#01abab"/>
        <ellipse id="Ellipse_52" data-name="Ellipse 52" cx="5.572" cy="8.541" rx="5.572" ry="8.541" transform="translate(89.066 85.012)" fill="#01abab"/>
        <path id="Path_557" data-name="Path 557" d="M287.71,168.855a5.879,5.879,0,0,0,1.678-1.139,2.245,2.245,0,0,0,.659-1.856" transform="translate(-137.849 -79.687)" fill="none" stroke="#01abab" stroke-linecap="round" stroke-linejoin="round" stroke-width="2"/>
        <path id="Path_558" data-name="Path 558" d="M289.79,174.871a3.861,3.861,0,0,0,2.844-2.321" transform="translate(-138.842 -82.88)" fill="none" stroke="#01abab" stroke-linecap="round" stroke-linejoin="round" stroke-width="2"/>
        <path id="Path_559" data-name="Path 559" d="M169.528,165.29a1.574,1.574,0,0,0,.5,1.913c.538.481,1.228.753,1.767,1.223" transform="translate(-81.361 -79.415)" fill="none" stroke="#01abab" stroke-linecap="round" stroke-linejoin="round" stroke-width="2"/>
        <path id="Path_560" data-name="Path 560" d="M166.16,172.23a5.474,5.474,0,0,0,.972,1.265,6.014,6.014,0,0,0,2.289,1.082" transform="translate(-79.833 -82.728)" fill="none" stroke="#01abab" stroke-linecap="round" stroke-linejoin="round" stroke-width="2"/>
        <path id="Path_561" data-name="Path 561" d="M198.99,59.31s-3.925,39.187,31.148,50.514" transform="translate(-95.44 -28.831)" fill="none" stroke="#01abab" stroke-linecap="round" stroke-linejoin="round" stroke-width="2"/>
        <path id="Path_562" data-name="Path 562" d="M239.65,80.11s4.934,34.132,42.752,41.09" transform="translate(-114.91 -38.759)" fill="none" stroke="#01abab" stroke-linecap="round" stroke-linejoin="round" stroke-width="2"/>
        <path id="Path_563" data-name="Path 563" d="M270.41,130.65a16.592,16.592,0,0,1,13.977.915" transform="translate(-129.591 -62.354)" fill="none" stroke="#01abab" stroke-linecap="round" stroke-linejoin="round" stroke-width="2"/>
        <path id="Path_564" data-name="Path 564" d="M166.16,130.905s6.628-4.291,14.939.455" transform="translate(-79.833 -62.154)" fill="none" stroke="#01abab" stroke-linecap="round" stroke-linejoin="round" stroke-width="2"/>
        <path id="Path_565" data-name="Path 565" d="M167.7,95.13c-.324.272-2.608,26.673-34.122,31.791" transform="translate(-64.283 -45.928)" fill="none" stroke="#01abab" stroke-linecap="round" stroke-linejoin="round" stroke-width="2"/>
        <path id="Path_566" data-name="Path 566" d="M146.183,95.83a61.524,61.524,0,0,1-22.743,29.6" transform="translate(-59.443 -46.262)" fill="none" stroke="#01abab" stroke-linecap="round" stroke-linejoin="round" stroke-width="2"/>
        <path id="Path_567" data-name="Path 567" d="M125.656,134.059s-12.79-2.284-18.085-3.565-15.435-9.288-18.906-17.845-3.471-17.782-1.735-27.1S93.05,59.7,94.968,54.676s6.393-16.627,13.611-26.219S131.134-2.6,164.749,1.517c0,0,13.977-.366,24.117,3.654s19.732,13.7,25.853,22.743,9.226,11.416,16.35,45.4,4.108,37.452.915,45.214-12.451,15.252-38.288,17.171" transform="translate(-41.472 -1)" fill="none" stroke="#01abab" stroke-linecap="round" stroke-linejoin="round" stroke-width="2"/>
        <path id="Path_568" data-name="Path 568" d="M130.383,176.72s-9.4,2.844-9.215,10.245,6.393,11.6,12.561,15.069" transform="translate(-58.357 -84.871)" fill="none" stroke="#01abab" stroke-linecap="round" stroke-linejoin="round" stroke-width="2"/>
        <path id="Path_569" data-name="Path 569" d="M317.038,178.67s7.339.272,7.976,9.957S313.05,202.97,313.05,202.97" transform="translate(-149.943 -85.801)" fill="none" stroke="#01abab" stroke-linecap="round" stroke-linejoin="round" stroke-width="2"/>
        <path id="Path_570" data-name="Path 570" d="M203.009,268.538c-.12.366,14.134,50.185,14.134,50.185L230.78,267.44" transform="translate(-97.421 -128.171)" fill="none" stroke="#01abab" stroke-linecap="round" stroke-linejoin="round" stroke-width="2"/>
        <path id="Path_571" data-name="Path 571" d="M184.407,268.38s-4.548.612-11.316,10.109l9.67,8.039-3.408,6.455S188,309.914,196.4,316.735" transform="translate(-83.141 -128.62)" fill="none" stroke="#01abab" stroke-linecap="round" stroke-linejoin="round" stroke-width="2"/>
        <path id="Path_572" data-name="Path 572" d="M253.544,266.05s9.011,5.358,13.094,12.059l-9.5,6.21s4.082,8.646,3.716,8.646-10.961,16.319-17.3,22.654" transform="translate(-116.776 -127.508)" fill="none" stroke="#01abab" stroke-linecap="round" stroke-linejoin="round" stroke-width="2"/>
        <line id="Line_37" data-name="Line 37" x2="14.003" transform="translate(112.776 159.612)" fill="none" stroke="#01abab" stroke-linecap="round" stroke-linejoin="round" stroke-width="2"/>
        <path id="Path_573" data-name="Path 573" d="M276.17,272.34s11.081,5.117,17.171,9.623c0,0,5.055,9.989,6.487,16.319s5.452,35.931,8.128,49.327,12.059,34.467,12.059,34.467-11.693,11.327-27.891,8.771" transform="translate(-132.341 -130.51)" fill="none" stroke="#01abab" stroke-linecap="round" stroke-linejoin="round" stroke-width="2"/>
        <path id="Path_574" data-name="Path 574" d="M315.09,519.174a21.142,21.142,0,0,0,2.19-1.338,2.588,2.588,0,0,0,1.218-3.047c-.486-1.829.12-5.969.12-5.969s.246-1.1,1.829,1.1c.847,1.176,1.662,2.525,2.237,3.528a2.983,2.983,0,0,1,.037,2.9l-.936,1.735-2.5-1.218" transform="translate(-150.917 -243.25)" fill="none" stroke="#01abab" stroke-linecap="round" stroke-linejoin="round" stroke-width="2"/>
        <path id="Path_575" data-name="Path 575" d="M318.12,515.554l6.089,4.15a3.949,3.949,0,0,0,4.046.246l3.539-1.829a3.957,3.957,0,0,0,1.934-2.263l1.939-5.812a3.91,3.91,0,0,0,.094-2.164l-3.032-12.79" transform="translate(-152.363 -236.828)" fill="none" stroke="#01abab" stroke-linecap="round" stroke-linejoin="round" stroke-width="2"/>
        <circle id="Ellipse_53" data-name="Ellipse 53" cx="4.385" cy="4.385" r="4.385" transform="translate(115.332 205.04)" fill="none" stroke="#01abab" stroke-linecap="round" stroke-linejoin="round" stroke-width="2"/>
        <circle id="Ellipse_54" data-name="Ellipse 54" cx="4.385" cy="4.385" r="4.385" transform="translate(115.332 230.621)" fill="none" stroke="#01abab" stroke-linecap="round" stroke-linejoin="round" stroke-width="2"/>
        <path id="Path_576" data-name="Path 576" d="M303.266,435.944c-2.488-17.113-5.933-45.25-6.252-52.432-.486-10.961-1.95-40.556-1.218-48.961" transform="translate(-141.612 -160.203)" fill="none" stroke="#01abab" stroke-linecap="round" stroke-linejoin="round" stroke-width="2"/>
        <path id="Path_577" data-name="Path 577" d="M156.848,332.45c0,.366-.366,22.774-.852,43.358-.329,13.987-4.934,42.417-7.856,59.248" transform="translate(-71.232 -159.2)" fill="none" stroke="#01abab" stroke-linecap="round" stroke-linejoin="round" stroke-width="2"/>
        <path id="Path_578" data-name="Path 578" d="M109.451,278.4s-9.937,5.117-13.47,7.553-5.53,4.992-7.882,13.031-3.936,14.615-5.64,19.852S75.4,328.945,75.4,328.945L56.031,304.221s-4.626,5.237-8.645,7.307-8.645,5.117-8.645,5.117S57.254,344.783,61.148,348.8s10.6,6.576,13.763,8.159,6.576,2.07,10.841-2.436A85.584,85.584,0,0,0,104.3,325.292" transform="translate(-19.016 -133.402)" fill="none" stroke="#01abab" stroke-linecap="round" stroke-linejoin="round" stroke-width="2"/>
        <path id="Path_579" data-name="Path 579" d="M57.12,307.027s-4.14-16.319-4.506-18.268-1.95-2.681-3.533-1.829a5.793,5.793,0,0,0-3.047,5.358c0,2.8.732,3.654.732,3.654s-6.152,9.32,1.1,12.545" transform="translate(-21.684 -137.306)" fill="none" stroke="#01abab" stroke-linecap="round" stroke-linejoin="round" stroke-width="2"/>
        <path id="Path_580" data-name="Path 580" d="M32.692,289.47c-.366,0-9.743-5.483-11.327-6.335s-5.724,1.584-2.556,5.237" transform="translate(-8.948 -135.581)" fill="none" stroke="#01abab" stroke-linecap="round" stroke-linejoin="round" stroke-width="2"/>
        <path id="Path_581" data-name="Path 581" d="M22.22,298.284s-11.081-6.21-12.791-6.941-5.724,2.07-1.95,4.626" transform="translate(-3.348 -139.523)" fill="none" stroke="#01abab" stroke-linecap="round" stroke-linejoin="round" stroke-width="2"/>
        <path id="Path_582" data-name="Path 582" d="M16.383,306.846s-7.919-3.654-10.6-4.626S-.024,304.05,4.1,306.846" transform="translate(-1.531 -144.678)" fill="none" stroke="#01abab" stroke-linecap="round" stroke-linejoin="round" stroke-width="2"/>
        <path id="Path_583" data-name="Path 583" d="M13.422,317.989a42.1,42.1,0,0,0-8.645-3.471c-3.654-.789-5.692,2.373-1.2,5.42s8.75,5.483,11.431,7.062a33.591,33.591,0,0,1,5.724,4.751" transform="translate(-1.005 -150.583)" fill="none" stroke="#01abab" stroke-linecap="round" stroke-linejoin="round" stroke-width="2"/>
      </g>
    </g>
  </g>
</svg>
