<svg id="japan-map" xmlns="http://www.w3.org/2000/svg" width="731.57" height="777.179" viewBox="0 0 731.57 777.179">
  <path id="path2460" d="M333.72,583.259l-7.065-3.117v9.7l-1.593,2.771h-3.6l-5.195,4.156v2.424h-8.658l-4.364-3.6v-3.325l-2.216-3.255,6.234-7.481V574.6h-4.017l-2.078,1.385h-4.849l-15.377,1.732L283.5,579.8v2.771h2.078l-3.6,4.5v1.939l2.424,1.732-2.286,2.563h-1.732v4.156l10.6,8.173,3.948,1.385v1.732h-2.216l-.208,1.524h2.078v4.017l11.429,5.333h3.671V621.7h2.909l6.442-7.966L327,597.112l5.888-2.424v-4.156l-2.078-1.385,2.909-2.424v-3.463" fill="#f4f4f4" stroke="#787878" stroke-linecap="round" stroke-linejoin="bevel" stroke-width="0.831"/>
  <path id="path3367" d="M65.927,670.1,62.3,674.945v3.125l3.75,1.5,1.25-1.031V670.1Zm9.188,5.875-3.094,2.563H68.4l-1.781,2.219v11.625l-1.75,1.406v3.656l5.063,4.5v7.406l-2.969,5.406H64.864L62.8,712.476l-2.219,1.594,1.875,2.781,2.063,4.969,10.25,2.094,2.219,4.375H80.8l3.688-2.094v-2.781l-4.375-3.656v-6.719h-1.75V710.6l4.719-6.094v-4.281l-1.719-3.687v-1.375l7.281-6.719h2.063V679.57l-4.719-2.219H82.9l-1.875,2.094h-3ZM49.708,689.289l-1.031,1.375,1.844,2.781h3.813l-2.406-4.156Zm-4.5,6.219-4.5,4.719v2.063l3.469-.687,3.781-6.094Z" fill="#f4f4f4" stroke="#787878" stroke-linecap="round" stroke-linejoin="bevel" stroke-width="0.831"/>
  <path id="path2702" d="M119.919,646.335h3.463V644.95h3.948v4.71h7.827v-2.771h6.58v4.849l-6.442,5.68h-2.217v4.156h1.385v3.117h-2.147l-11.775,27.568v6.372h1.385l-1.732,7.827a31.674,31.674,0,0,0-6.649,12.814l-.069.139-4.364-1.732-1.87-3.255,2.424-6.1-6.58-2.771-2.632-6.927H98.377l-2.563-1.524v-2.771h1.732v-3.325l-7.273-7v-4.433h10.736l2.771-2.216h2.771v-3.117l-1.732-1.939,2.563-2.424v-2.563l-3.463-1.939V659.5L106,657.279h1.732l10.113-13.507,2.078,2.563" fill="#f4f4f4" stroke="#787878" stroke-linecap="round" stroke-linejoin="bevel" stroke-width="0.831"/>
  <path id="path3592" d="M107.208,625.3l7.273,7.481,3.325,11.083-10.113,13.507h-1.732l-2.078,2.216v5.888l3.463,1.939v2.563l-2.563,2.424,1.732,1.939v3.117h-2.771l-2.771,2.216H90.238l-4.71-2.216H82.411l-1.87,2.078H77.562l-2.909-3.463v-3.117l4.641-3.117v-2.424l4.017-4.5v-4.156l4.156-3.325V653.7h-6.58v-1.732l5.68-3.463V644l-2.909-1.732v-2.216l-4.017-3.463,4.71-1.939,4.294-6.372h4.017l7.273,3.948h5.541v-5.195l1.732-1.732" fill="#f4f4f4" stroke="#787878" stroke-linecap="round" stroke-linejoin="bevel" stroke-width="0.831"/>
  <path id="path3594" d="M77.909,658.2v-3.463l-2.771,2.978H73.06l-3.463,2.7v3.533l1.939,1.039h4.294l3.463-5.056L77.909,658.2m-9.836,9.212.485-11.083H63.363l-5.333,6.927v3.117l3.255,2.216h-3.81v3.325l2.078,2.909,5.888-7.411h2.632" fill="#f4f4f4" stroke="#787878" stroke-linecap="round" stroke-linejoin="bevel" stroke-width="0.831"/>
  <path id="path6853" d="M90.6,684.232v4.438H88.507l-7.25,6.719v1.375l1.719,3.688h5.188l3.969,2.406v1.875l-1.875,4.375H88.163l-1.719-3H83.663v4.031h3.469v4.625l1.031,1.75,1.375.344v8.656H88.163v2.281l-5.187,5.531,2.063,2.906,1.531-2.187h3.344l8.656-5.562v-2.406h6.563v-1.75l-2.062-4.156h-1.937v-2.062l2.281-3.469h4.156l2.406-6.094-6.562-2.781-2.625-6.906H98.694l-2.562-1.531v-2.781h1.719v-3.312Zm6.906,63.438v2.781l-3.437,4.156v6.219l-5.344,5.406v1.531l1.375,1.594v2.781l3.25-.375,1.938-1.562v-5.687l5.563-10.406v-6.437H97.507ZM73.819,766.232l-5.406,2.906v3.813l2.781,3.688,6.094.125,3.469-3.812v-3.469l-3.469-3.25Z" fill="#f4f4f4" stroke="#787878" stroke-linecap="round" stroke-linejoin="bevel" stroke-width="0.831"/>
  <path id="path7744" d="M90.859,614.22l9,5.888v12.26l-7.273-3.948H88.573l-4.294,6.372-4.71,1.939v-6.58l-3.463-4.572a120.448,120.448,0,0,0,12.121-11.36h2.632" fill="#f4f4f4" stroke="#787878" stroke-linecap="round" stroke-linejoin="bevel" stroke-width="0.831"/>
  <path id="path1669" d="M458.594,441.672l4.364,1.385v4.364l2.216,1.385L463.1,450.33v8.52l4.017,1.385v2.078l-3.325,6.372v3.671l3.463,3.463h5.888l3.671,2.424-3.325,1.385h-4.849L454.784,475.4l-4.294,4.225v3.6h-3.117l-5.541,4.364h-2.978l-1.593,4.156-3.463-2.632v-2.771l-1.385-1.385V477l1.939-1.385v-2.563l-2.286-3.463h-6.372l-2.632-3.117v-3.463L425,460.235l3.81-3.117v-2.286h3.6l2.978-1.732v-1.87h5.888l2.078-4.017h3.117V439.94l6.026-4.156,4.364,5.888h1.732" fill="#f4f4f4" stroke="#787878" stroke-linecap="round" stroke-linejoin="bevel" stroke-width="0.831"/>
  <path id="path1629" d="M57.353,603.741l-2.219,4.375H52.009v2.438H55.6v3.781H52.134l-1.844-2.062H46.6L44.384,610.9,43.009,609.3v2.625H39.666l-4.969,9h3.25l3.656-3.312v-2.094l3.469-2.062v4.156l-2.062,2.406,5.688,3.813h2.969v3.813l.063.063,6.156,2.219,1.406,1.531v5.531l1.875,1.938v2.563H58.228v-2.219H53.041v-7.594H51.1v-2.312H47.634V631.3l-2.406,1.875,1.719,2.094v4.5l1.75,1.938h2.625l2.219,4.156-3.812,7.281h2.75l6.594-7.844h6.25v-1.375h4.125v3.813l-3.781,2.625V651.9l2.969,1.938h2.906v-1.75h2.438l4-4.156v-3.312l-3.125-4.5H71.041l-1.719,1.375H67.041l-1.375-1.719,3.656-2.437h1.531v-2.219l-2.562-4.844V626.8l3.125-1.594,1.844-2.562,3.469,3.063a120.669,120.669,0,0,0,12.125-11.375H80.884L69.666,608.46v-2.906l-4.156,1.875v2.063H62.884v-2.75l-2.906-3H57.353ZM22.916,614.21v2.219l3.125.344V614.21Zm-2.969,4.156,2.406,2.219v-2.219Zm4.344,3.125L22.228,625.3l-1.937,2.063v3.813H17.509l1.375,2.781v3.469l1.406,2.75,1.938-3.312V632.21h3.25v-3.469l-2.906,2.094v-3.687h1.719ZM13.572,635.116v2.656l-3-1.594V638.8l2.313,2.406,2.219-2.969v-3.125ZM1.228,638.585V643.3l1.594,2.063L.416,648.147H4.353l1.594,2.094v-3.469H9.072v1.719h3.094v-2.406l-2.406-2.437v-2.781l-1.937-1.937-1.406,2.094H3.853Z" fill="#f4f4f4" stroke="#787878" stroke-linecap="round" stroke-linejoin="bevel" stroke-width="0.831"/>
  <path id="path1635" fill="#fcf5e3" stroke="#787878" stroke-linejoin="bevel" stroke-width="0.831"/>
  <path id="path3402" d="M86.323,588.889l-2.771,3.6v2.978l-3.117,2.771v2.424L78.7,602.4H75.032L73.3,599.764H71.569l-2.563,2.771v5.749l11.221,5.888h10.6l9,5.888v-5.4l1.939-1.87-6.3-5.888v-3.463l5.888-10.251.554-3.6-2.771-3.671H94.288l-2.424,2.978H86.322" fill="#f4f4f4" stroke="#787878" stroke-linecap="round" stroke-linejoin="bevel" stroke-width="0.831"/>
  <path id="path5163" d="M108.322,598.754l2.078,3.671a24.9,24.9,0,0,1,12.121,4.987v5.056h1.732v3.948l-3.117,3.117h-2.978l-11.775-2.771-10.944-9.836v-3.463l5.888-10.251.554-3.6,6.442-3.325-1.385,4.156,1.385,8.312" fill="#f4f4f4" stroke="#787878" stroke-linecap="round" stroke-linejoin="bevel" stroke-width="0.831"/>
  <path id="path6051" d="M137.889,606.12v7.966l-4.849,4.294h-4.156l-1.732,2.286,2.563,3.255H137.2v1.593h6.927l-3.671,4.5,3.463,2.424v1.87h4.364v1.732h-3.325v4.71h5.195l-4.641,6.372-3.81,2.286v-2.424h-6.58v2.771h-7.827v-4.71h-3.948v1.385H119.88L117.8,643.87l-3.325-11.083-7.273-7.481-1.732,1.732v5.195H99.931V614.57l1.939-1.87,4.641,3.948,11.775,2.771h2.978l3.117-3.117v-3.948h-1.732V607.3h2.078l3.463-4.849,2.909-1.524h2.632l4.156,5.195" fill="#f4f4f4" stroke="#787878" stroke-linecap="round" stroke-linejoin="bevel" stroke-width="0.831"/>
  <path id="path9579" d="M52.673,586.713l-3.117,2.078v4.156l2.771,2.632,3.117-2.771v-3.117l-2.771-2.978" fill="#f4f4f4" stroke="#787878" stroke-linecap="round" stroke-linejoin="bevel" stroke-width="0.831"/>
  <path id="path10467" d="M42.162,544.542l-4,1.938v3.938l.563,2.781H36.068v5.531l-.625,1.063,4.781,3.094v-7.062l2.438-2.75h2.063V548.2l1.75-1.937v-1.719ZM32.63,561.854l-1.875,5.188V572.6l2.562,1.375,5.75-9.5Z" fill="#f4f4f4" stroke="#787878" stroke-linecap="round" stroke-linejoin="bevel" stroke-width="0.831"/>
  <path id="path11358" d="M216.81,613.668l-13.16,8.45-4.017,10.736-5.68,6.58h-2.978v7.273l-2.563,1.939v1.732l2.771,1.385v2.771H188.55l-2.078-3.117h-7.065l-4.364-1.732v-3.325h2.771V643.8l-1.385-3.325-2.078-9.351h4.156l7.134-5.888v-8.45h6.234q4.364-11.5,12.814-17.524h6.372l3.117,1.593,2.286-3.117,8.243-.346,8.312,3.117,1.732-1.385h2.978v5.888l5.333,2.771v3.81l1.732,3.117h3.117q-4.641,4.017-5.472,14.754L228.724,615.4l-11.914-1.732" fill="#f4f4f4" stroke="#787878" stroke-linecap="round" stroke-linejoin="bevel" stroke-width="0.831"/>
  <path id="path12246" d="M255.453,582.372H243.47l-6.927,4.987-2.909-2.771-10.251,4.225-2.217,2.216v6.58h3.6l8.312,3.117,1.732-1.385h2.978v5.888L243.124,608v3.81l1.732,3.117h3.117q4.433-6.234,13.922-11.983l3.948-1.732-3.463-2.078,1.939-2.078v-1.87l-1.939-3.325H260.3v-6.026l2.632-2.771-1.939-2.424h-5.541v1.732" fill="#f4f4f4" stroke="#787878" stroke-linecap="round" stroke-linejoin="bevel" stroke-width="0.831"/>
  <path id="path13134" d="M247.474,562.292l-2.062,2.094h-2.437l.344,2.281h2.094l1.531,1.719h4.688v-6.094Zm-16.125,7.156-2.281,2.063V573.6l-6.937,5.188-4.156-1.937,1.594,4.5v5.063l-2.562,2.281h6.5l10.25-4.25,2.906,2.781,6.938-4.969h12v-1.75l-7.281-3.312v-2.562l-1.375-1.125h-3.469l-.687-3.25-3,2.969h-2.75Z" fill="#f4f4f4" stroke="#787878" stroke-linecap="round" stroke-linejoin="bevel" stroke-width="0.831"/>
  <path id="path14025" d="M204.628,599.17q-8.45,6.026-12.814,17.524H185.58v8.45l-7.134,5.888H174.29l2.078,9.351,1.385,3.325h-7.065l-5.056-7.273,3.117-2.424-1.87-5.4h3.255v-2.216l-2.424-2.424,2.632-1.593h-4.849v-5.888l-2.078-2.216-6.927,4.294L154.9,620.5h-5.056l3.463-4.364h4.017l22.165-15.931V593.49H181.7l1.939-5.749,7.065-4.849,6.58,9.351h5.4l11.429-1.385,2.632-2.355h6.511l-2.217,2.216v6.58l-4.641.346-2.286,3.117L211,599.17h-6.372" fill="#f4f4f4" stroke="#787878" stroke-linecap="round" stroke-linejoin="bevel" stroke-width="0.831"/>
  <path id="path14913" d="M277.815,566.872l2.078-4.294-2.078-1.247-9.9,9.9v2.424l-2.771,1.87v2.978l1.939,3.117h4.294l1.732-2.078h2.424l1.385-2.078-2.771-2.286V570.2l3.671-3.325" fill="#f4f4f4" stroke="#787878" stroke-linecap="round" stroke-linejoin="bevel" stroke-width="0.831"/>
  <path id="path15801" d="M141.831,565.59l-1.939-2.563V552.083h-4.017L122.921,564.9H118.9v-2.563h-2.909v1.524h-4.71l-2.771-1.385v3.463H104.22v5.4h1.87v3.255l-2.909,2.771,1.87,2.978v6.372l3.948-3.6h3.533l3.81,3.948h5.333l2.286-2.909h2.216v2.216h2.771v-2.909l6.442-6.58v-3.671h4.294l3.394-3.186-1.247-1.316V565.59" fill="#f4f4f4" stroke="#787878" stroke-linecap="round" stroke-linejoin="bevel" stroke-width="0.831"/>
  <path id="path1689" d="M144.1,571.083l-1.178-1.316-3.394,3.186h-4.294v3.671l-6.442,6.58,2.978,2.771,4.294-2.286h5.541v6.1h2.286l2.424-2.078,8.312,6.026,4.849-5.541v-8.8l-6.58-10.044-3.463,1.732H144.1" fill="#f4f4f4" stroke="#787878" stroke-linecap="round" stroke-linejoin="bevel" stroke-width="0.831"/>
  <path id="path2577" d="M182.17,543.856l-6.234,3.117H163.815l-4.641,3.81-1.593,7.966-1.87,1.732V562.7l-2.632,2.078v4.71l6.58,10.044,1.732-6.1,6.719-5.056,3.671,2.286v1.87l3.255,4.364h6.58l5.888-5.4h6.927V568.03l-4.156-8.45-6.927-3.325v-2.771l3.117-3.255-4.294-6.372" fill="#f4f4f4" stroke="#787878" stroke-linecap="round" stroke-linejoin="bevel" stroke-width="0.831"/>
  <path id="path3465" d="M198.439,533.995l-1.593-1.385h-6.927l-7.758,8.8V543.9l4.294,6.372-3.117,3.255V556.3l6.927,3.325,4.156,8.45v3.463h2.84v-2.078H202.8l1.385-2.216h1.524v2.563h2.771l6.1-4.849v-3.81l-5.749-15.723V537.25l-5.4-4.918-1.385,1.662h-3.6" fill="#f4f4f4" stroke="#787878" stroke-linecap="round" stroke-linejoin="bevel" stroke-width="0.831"/>
  <path id="path4353" d="M216.425,529.24l-6.026,5.68-4.294.069,2.7,2.424v8.173l5.749,15.723v3.81h5.195l7.065-5.333v-6.1l-5.68-5.888V537.275l-4.71-8.035" fill="#f4f4f4" stroke="#787878" stroke-linecap="round" stroke-linejoin="bevel" stroke-width="0.831"/>
  <path id="path5241" d="M248.944,543.15,245,544.743l-23.9-.554v3.463l5.68,5.888v6.1l-3.533,2.7v2.978h3.394V567.6h2.424l4.641-1.593,4.71-5.68h4.294l7.481-7.273-1.247-4.71V543.15" fill="#f4f4f4" stroke="#787878" stroke-linecap="round" stroke-linejoin="bevel" stroke-width="0.831"/>
  <path id="path6129" d="M253.951,529.841v4.987l-5.056,5.195v3.117l-3.948,1.593-23.9-.554v-7.065l-4.71-8.035,6.1-5.818h14.546l1.316-1.247,3.671,1.039,5.4,6.788h6.58" fill="#f4f4f4" stroke="#787878" stroke-linecap="round" stroke-linejoin="bevel" stroke-width="0.831"/>
  <path id="path7017" d="M277.269,532.815l4.572,6.788L285.1,541.2l-3.6,19.533-13.368-9.143H264.87v1.385h-4.156v-2.078H256l-2.078,2.078h-3.948l-1.247-4.71v-8.312l5.056-5.195v-4.987l5.195-3.325v2.078l6.026-.346,2.424,2.424h9.9l-.069,2.216" fill="#f4f4f4" stroke="#787878" stroke-linecap="round" stroke-linejoin="bevel" stroke-width="0.831"/>
  <path id="path7905" d="M180.214,526.237l1.87,8.8V543.9l-6.234,3.117H163.729l-4.641,3.81-1.593,7.966-1.87,1.732v2.216l-2.632,2.078v4.71l-3.463,1.732H144.2l-2.424-2.632v-3.117l-1.939-2.563V552h3.325l14.684-13.853,7.619-5.333h2.078l1.593-1.593V529.7l3.255-4.5,4.156-2.078,3.671,3.117" fill="#f4f4f4" stroke="#787878" stroke-linecap="round" stroke-linejoin="bevel" stroke-width="0.831"/>
  <path id="path8793" d="M203.633,515.041h4.294l2.078,5.056v3.81l-7.966,10.044h-3.6l-1.593-1.385h-6.927l-7.758,8.8V534.99l-1.87-8.8-3.671-3.117,5.333-4.364v-2.286L180.083,514h5.195l3.81-3.463h6.026L201,505.552l2.424,3.117h6.442l-2.771,2.078H201.9l-1.732,1.524h-5.888L191.65,515.6h3.117l3.325-1.939h3.463l2.078,1.385" fill="#f4f4f4" stroke="#787878" stroke-linecap="round" stroke-linejoin="bevel" stroke-width="0.831"/>
  <path id="path9681" d="M225.389,512.25l-4.294-1.385h-4.849l-2.286,3.948h-1.87l-3.81-2.909h-2.286l1.87,3.255,2.078,5.056v3.81l-6.58,8.381,2.7,2.494,4.294-.069,12.122-11.5h14.546l2.563-2.424v-3.117l-3.81-5.541h-10.39" fill="#f4f4f4" stroke="#787878" stroke-linecap="round" stroke-linejoin="bevel" stroke-width="0.831"/>
  <path id="path10569" d="M208.693,467.667l-3.469,4.156v3.656l3.344,2.094,2.219.5,3.313-2.094v-3.937Zm-10.187,11.281-1.375.5v3.188l1.375,1.313Zm1.531.344v6.031l3.813-3.594Zm-4.281.625-1.406.438v2.75l1.406,1.313Zm2.406,5.406-1.031,1.031v.563h3.125Z" fill="#f4f4f4" stroke="#787878" stroke-linecap="round" stroke-linejoin="bevel" stroke-width="0.831"/>
  <path id="path11460" d="M256.445,512.33l2.771,7.481v6.719l-5.195,3.325h-6.58l-5.4-6.788-3.671-1.039,1.247-1.177v-3.117l-3.81-5.541,2.632-1.732,3.463,2.078,1.732-1.385h4.5L253.674,507h2.771v5.333" fill="#f4f4f4" stroke="#787878" stroke-linecap="round" stroke-linejoin="bevel" stroke-width="0.831"/>
  <path id="path12348" d="M274.882,512.837l4.5,2.078h3.81l1.732,2.563-7.273,5.888-.139,7.273h-9.9l-2.424-2.424-6.026.346v-8.8l-2.771-7.481v-5.333l4.294-1.939,2.078,1.385h12.121v6.442" fill="#f4f4f4" stroke="#787878" stroke-linecap="round" stroke-linejoin="bevel" stroke-width="0.831"/>
  <path id="path13236" d="M308.453,522.742v9.7l-7.065,13.022h-3.81l-4.849-4.156h-7.481l-3.255-1.593-4.572-6.788.069-2.216.139-7.273,7.273-5.888,4.017,5.4h2.216l7.619-5.056,9.7,4.849" fill="#f4f4f4" stroke="#787878" stroke-linecap="round" stroke-linejoin="bevel" stroke-width="0.831"/>
  <path id="path14124" d="M288.172,510.55l4.849,4.5,5.888-5.888,2.078,3.117-2.286,1.939v3.6l-7.619,5.056h-2.216l-5.749-7.966h-3.81l-4.5-2.078v-6.442h2.978l5.333-4.987h3.117V500.16h5.541l1.593,4.017-5.195,6.372" fill="#f4f4f4" stroke="#787878" stroke-linecap="round" stroke-linejoin="bevel" stroke-width="0.831"/>
  <path id="path15012" d="M301.25,545.31h-3.81l-4.849-4.156h-7.481l-3.746,19.82,7.966-4.641,4.646-.288,3.255,3.463v2.909h4.71l2.771-11.221v-3.671l-3.463-2.216" fill="#f4f4f4" stroke="#787878" stroke-linecap="round" stroke-linejoin="bevel" stroke-width="0.831"/>
  <path id="path15900" d="M302.057,562.416h-4.71v2.978l-4.849,5.333-11.567,6.927,15.377-1.732,4.5-7.411,1.247-6.1" fill="#f4f4f4" stroke="#787878" stroke-linecap="round" stroke-linejoin="bevel" stroke-width="0.831"/>
  <path id="path22124" d="M329.21,565.252h-5.68v-6.788l-1.593-1.385h-8.45l-3.671-1.385-4.294,6.927v3.117l1.732,1.732v14.2l-6.234,7.481,2.216,3.255v3.325l4.364,3.6h8.658v-2.424l5.195-4.156h3.6l1.593-2.771.139-13.645h-2.216v-4.71h1.87l4.156-2.771-1.385-3.6" fill="#f4f4f4" stroke="#787878" stroke-linecap="round" stroke-linejoin="bevel" stroke-width="0.831"/>
  <path id="path23012" d="M313.222,522.726h-4.849v9.7l-7.065,13.022,3.463,2.216,4.987,7.966,3.671,1.385h8.45l1.593,1.385v-2.771l.485-4.156h-1.385l-6.719-3.6-1.593-4.017V535.54h1.732V525.7l-2.771-2.978" fill="#f4f4f4" stroke="#787878" stroke-linecap="round" stroke-linejoin="bevel" stroke-width="0.831"/>
  <path id="path23921" d="M307.2,574.6l.191-7.117-1.66-1.886.04-3.2,4-6.516-4.7-7.39-.288,3.1-2.75,10.263-1.139,6.275-4.479,7.788,4.694.113,2.223-1.53,3.776.2" fill="#f4f4f4" stroke="#787878" stroke-linecap="round" stroke-linejoin="bevel" stroke-width="0.831"/>
  <path id="path30926" d="M323.992,515.3l-7.758,5.68h-2.978v1.732h-4.849l-9.7-4.849v-3.6L301,512.324l1.732,2.078h3.255v1.732h4.849l-1.87-2.909v-1.385h2.424l1.732,2.078,2.216-2.286v-3.255h2.978V509.9h5.68v5.4" fill="#f4f4f4" stroke="#787878" stroke-linecap="round" stroke-linejoin="bevel" stroke-width="0.831"/>
  <path id="path31814" d="M354.774,492.086l3.671,4.156V498.8l-3.463,2.286H338.358l-4.087,5.195h-4.364v4.5l-5.888,4.5v-5.4h-2.84v-7.065h2.84v3.948h3.117v-6.719l-4.71-3.463v-8.173L329.7,476.5l4.5-2.078,3.325,3.117v3.6l3.81,2.078h3.948l4.017,2.771h5.472v6.1" fill="#f4f4f4" stroke="#787878" stroke-linecap="round" stroke-linejoin="bevel" stroke-width="0.831"/>
  <path id="path1781" d="M360.177,445.507v3.325l-3.671,5.541v7.966h1.732v3.6l-2.216,1.732v7.273l1.87,1.385v4.364l-3.186,5.333h-5.472l-4.017-2.771h-3.948l-3.81-2.078v-3.6l-3.325-3.117,2.147-2.078V471h2.909l5.541-7.966,5.749-6.927,5.541-12.814,4.156,2.216" fill="#f4f4f4" stroke="#787878" stroke-linecap="round" stroke-linejoin="bevel" stroke-width="0.831"/>
  <path id="path2669" d="M370.687,424.684l-4.087,5.195-3.81-2.563L360.5,433v2.286l4.017,1.732,3.6-2.771v7.065h-4.156l-3.74,4.156-4.156-2.216V440.13l-2.286-2.771v-4.849l-1.247-.693v-4.71h1.385v-5.333l6.234-3.81h5.749l6.58-4.849h6.58l2.078,2.078v2.424h-4.017v3.533l-3.255,3.533h-3.186m-7.342,9.351v-2.078h3.81l-1.385,2.078h-2.424" fill="#f4f4f4" stroke="#787878" stroke-linecap="round" stroke-linejoin="bevel" stroke-width="0.831"/>
  <path id="path3557" d="M390.431,440.683h3.255l2.978,6.1v13.507l-6.788,11.221h-2.771l-4.641-2.771H372.283l-5.056,5.056L365.5,477.74h-2.632v-3.6H359.4l-2.424,1.524-.97-.693V467.7l2.217-1.732v-3.6h-1.732V454.4l3.671-5.541v-3.325l3.74-4.156h4.156v1.939L365.98,444.7v2.909l5.749,4.71h5.333l5.4-3.463V443.8l7.966-3.117" fill="#f4f4f4" stroke="#787878" stroke-linecap="round" stroke-linejoin="bevel" stroke-width="0.831"/>
  <path id="path4445" d="M468.186,359.714l-2.978,7.273-1.87,11.29-4.849,8.8-13.022,5.888-6.719,6.442-2.424,7.966-7.134,12.814-12.953,9v2.078h-6.58l-5.541,4.987-10.39,4.5,2.978,6.1V451.7l2.7-2.978v-4.294h6.927l2.078,3.117h9l7.827-9.559h3.948l2.632,1.732v4.017l2.078,2.216v5.4h7.273l2.078-4.017h3.117v-7.273l6.026-4.156,4.364,5.888h1.732v-6.026l-1.939-7.134h-1.732V422.4l1.732-.346v-7l1.732-1.108h4.5l2.078-2.078h6.58v-6.234l4.71-6.442-4.71-5.541,2.424-5.68V379.8l2.424-2.563h3.463l3.117-2.424-4.156-5.056H476.29v-5.333l-8.1-4.71" fill="#f4f4f4" stroke="#787878" stroke-linecap="round" stroke-linejoin="bevel" stroke-width="0.831"/>
  <path id="path5333" d="M423.916,380.253v4.017h4.156l1.385,1.385-2.771,5.68-4.156,4.017-4.5,2.909h-3.671v-2.078l3.117-2.424,1.939-3.81-1.732-2.424L415.4,389.6v-7.065l7.134-8.866,2.424-2.216h2.078v2.909l-3.117,5.888" fill="#f4f4f4" stroke="#787878" stroke-linecap="round" stroke-linejoin="bevel" stroke-width="0.831"/>
  <path id="path6236" d="M329.818,548.7h-4.5l-1.385,2.909-.485,4.156v9.559h5.68l1.385,3.6,2.078-8.1v-8.312l-2.771-3.81" fill="#f4f4f4" stroke="#787878" stroke-linecap="round" stroke-linejoin="bevel" stroke-width="0.831"/>
  <path id="path7124" d="M348.109,530.844l-1.87-1.939H343.26l-2.424,2.632v7.273l-6.58,9.7h-4.5l2.771,3.81v8.312l-2.078,8.1L326.29,571.5h-1.87v4.71h2.216l-.139,3.948,7.065,3.117v1.732l11.29-5.68,5.333-1.939,4.156-4.849v-5.195l-9.351-6.372v-3.255h-1.524v-2.632l6.927-9.7,2.909-6.234-3.6-4.364h-1.593v-3.948" fill="#f4f4f4" stroke="#787878" stroke-linecap="round" stroke-linejoin="bevel" stroke-width="0.831"/>
  <path id="path8012" d="M358.323,567.322h-4.017v5.195l-4.156,4.849h3.81v3.325h5.056v-5.541l1.87-2.286v-2.909h-2.563v-2.632" fill="#f4f4f4" stroke="#787878" stroke-linecap="round" stroke-linejoin="bevel" stroke-width="0.831"/>
  <path id="path8900" d="M376.113,527.806h-9.7v-4.5h-6.788l-5.888,2.424v2.563l-2.216,1.593.069,7.134,1.8,2.216h5.056v1.732l-1.593,1.385v5.888h1.732v6.58l3.463,2.424v-9.7l4.364-6.58,3.463-2.078V535.91l6.234-8.1" fill="#f4f4f4" stroke="#787878" stroke-linecap="round" stroke-linejoin="bevel" stroke-width="0.831"/>
  <path id="path9788" d="M388.852,527.393v4.5h5.056v-1.939h3.6l1.732,2.078v2.632l-8.45,14.892-4.849,2.216V558.7l-16.485,5.4h-4.5v-1.939l3.671-3.255h4.987l5.888-2.771v-2.771l-1.385-1.593h-4.987v1.385h-6.58l-4.5-3.255V547.48l4.364-6.58,3.463-2.078v-2.978l6.234-8.1,7.758,3.6,4.987-3.948" fill="#f4f4f4" stroke="#787878" stroke-linecap="round" stroke-linejoin="bevel" stroke-width="0.831"/>
  <path id="path10676" d="M411.537,523.057l-12.329,9v2.632l-8.45,14.892-4.849,2.216v6.927l2.909-5.68H391.8l-2.078,3.463,3.255,2.563H407.52l9,3.325V557.2l2.286-2.424h-3.325l-2.078-7.134V545.43h1.247v-15.1l-3.117-2.771v-4.5" fill="#f4f4f4" stroke="#787878" stroke-linecap="round" stroke-linejoin="bevel" stroke-width="0.831"/>
  <path id="path11564" d="M450.435,523.742l-7.134-3.81v1.385l-7.619,1.732-2.909-2.771h-2.424V530.53l-2.424,1.732h-2.632l-4.987-7.273h-3.463v-5.195h1.524v-5.056l-3.255-5.888-3.6,14.2v4.5l3.117,2.771v15.1h-1.247v2.216l2.078,7.134h3.325l4.641-9.212,5.333-3.948v-2.286l5.056-3.948h6.927l3.463,2.771,5.333-6.234-1.524-1.732v-2.771l2.424-3.671" fill="#f4f4f4" stroke="#787878" stroke-linecap="round" stroke-linejoin="bevel" stroke-width="0.831"/>
  <path id="path12452" d="M449.536,531.982l-5.333,6.234v2.078h-5.056v14.892h-1.524v2.771l3.948,3.6H444.9l3.948-3.948,4.5-9.559h1.732V543.2L453,541.125v-5.68l-3.463-3.463" fill="#f4f4f4" stroke="#787878" stroke-linecap="round" stroke-linejoin="bevel" stroke-width="0.831"/>
  <path id="path13340" d="M454.6,513.013l-11.29,6.927,7.134,3.81-2.424,3.671v2.771l4.987,5.195,1.939-2.078v-3.117l9.212-6.1h6.372l2.978,2.286,2.078,4.849v3.117h1.524V529.5l3.325-2.078v-1.593h-3.671v-4.849h-2.216l-7.827-8.1L454.6,506.641v6.372" fill="#f4f4f4" stroke="#787878" stroke-linecap="round" stroke-linejoin="bevel" stroke-width="0.831"/>
  <path id="path14228" d="M437.084,495.263l-2.424,2.563H432.1v-2.078h-5.4l-3.255-3.6h-1.593l-2.078,4.987H417.2l-2.078,4.156v7.619l3.255,5.888v5.056h-1.524v5.195h3.463l4.987,7.273h2.632l2.424-1.732V520.337h2.424l2.909,2.771,7.619-1.732v-1.385l11.29-6.927v-6.372l-7.134-3.117-4.156-6.1-6.234-2.216" fill="#f4f4f4" stroke="#787878" stroke-linecap="round" stroke-linejoin="bevel" stroke-width="0.831"/>
  <path id="path15116" d="M486.63,494.62v9.212l1.039,1.732v3.255H481.92v3.81l-4.987,3.671v4.641h-2.216l-7.827-8.1-19.256-9.351-4.156-6.1-6.234-2.216v-3.463l1.593-4.156h2.978l5.541-4.364h3.117v-3.6l4.294-4.225,13.853,4.225h4.849l3.325-1.385,7.411,16.416h2.424" fill="#f4f4f4" stroke="#787878" stroke-linecap="round" stroke-linejoin="bevel" stroke-width="0.831"/>
  <path id="path16004" d="M498.864,534.079l-7.758,5.195v3.81l-3.325,3.117h-3.463l-3.117-5.541h4.364l-2.632-2.771,1.385-2.771-1.732-1.385v-3.463l2.978-1.662v2.009h5.68V529.23h6.442l7.273,2.978-6.1,1.87" fill="#f4f4f4" stroke="#787878" stroke-linecap="round" stroke-linejoin="bevel" stroke-width="0.831"/>
  <path id="path16892" d="M503.449,510.855l-2.978,1.455h-5.264l-7.55,6.3v1.593l-4.71,3.6v2.978h2.632v3.948h5.68v-1.385H497.7l7.273,2.978,2.978-2.771,1.039-3.117v-4.364H507.6v-4.641l3.6-6.788,4.364-3.948-5.056-3.325h-3.6l-3.463,7.481" fill="#f4f4f4" stroke="#787878" stroke-linecap="round" stroke-linejoin="bevel" stroke-width="0.831"/>
  <path id="path17780" d="M476.8,478.235l7.411,16.416h2.424v9.212l1.039,1.732h3.117l5.195,4.5v1.524l-.762.623h5.264l2.978-1.455,3.463-7.481h3.6l5.056,3.325,4.5-2.978h7.065v-2.078l-15.723-7.619h-6.442l-10.736-4.849-3.117-3.117v-6.719l-7.065-4.71-7.273,3.671" fill="#f4f4f4" stroke="#787878" stroke-linecap="round" stroke-linejoin="bevel" stroke-width="0.831"/>
  <path id="path18668" d="M514.037,440.6l-4.312,3.25h-5.531l-3.812-3.187v2.844h1.031v20.625l-3.812,5-3.094-.344L484.1,474.667l7.063,4.719V486.1l3.125,3.125,10.719,4.844h6.469l13.906,6.719L513.537,480.2V472.26l1.875-1.531V463.1a41.559,41.559,0,0,1,7.813-16.125V444.2l-5.187-3.594h-4Zm-10.531,40.313,4.281,2.406,4.031,7.844-4.5-1.25-8.187-3.969V484.01l4.375,2.438,1.875-2.219-1.969-1.719.094-1.594Zm7.75.688,5.531,9,.219,2.781-2.094-1.75-3.656-6.219Z" fill="#f4f4f4" stroke="#787878" stroke-linecap="round" stroke-linejoin="bevel" stroke-width="0.831"/>
  <path id="path21305" d="M329.818,506.354v4.5L316.193,521.01h-3v1.75l2.781,2.969v9.844h-1.719v8.313l1.594,4,6.719,3.625h1.375l1.375-2.906h9.031l6.563-9.719v-7.25l-2.406-4.875,2.625-4.344v-5.344l-2.156-3.375-2.219-.094-.219-3.594-2.344-3.656h-4.375Zm.375,9.344v2.563l4,5.875v2.781l-4.5,2.063-5.062,4.156v1.938h-3.594l-3.469,7.625v-5.875l1.75-3.344v-2.75l4.844-5.344.125-5.875Z" fill="#f4f4f4" stroke="#787878" stroke-linecap="round" stroke-linejoin="bevel" stroke-width="0.831"/>
  <path id="path23942" d="M363.549,494.186l-5.541-5.541h-3.325v3.463l3.671,4.156v2.563l-3.463,2.286H338.267l-4.087,5.195,2.355,3.671.208,3.6,2.216.069,2.147,3.394v5.333l-2.632,4.364,2.424,4.849,2.424-2.632H346.3l1.87,1.939v3.948h1.593l1.8,2.147-.069-7.134,2.216-1.593V525.7l5.888-2.424h6.788v4.5h9.7l7.758,3.6,4.987-3.948,2.078-2.286,1.385-4.294v-6.1h-3.325l-1.732-2.563v-5.4l-4.017-2.771-8.589,4.156h-5.4l-2.216-1.87,3.6-3.671v-6.372l-1.524-2.078h-5.541" fill="#f4f4f4" stroke="#787878" stroke-linecap="round" stroke-linejoin="bevel" stroke-width="0.831"/>
  <path id="path24830" d="M389.96,476.8v-5.4h-2.771l-4.641-2.771H372.367l-5.056,5.056-1.732,3.948h-2.632v-3.6h-3.463l-2.424,1.524.9.693v4.364l-3.186,5.333v2.632H358.1l5.541,5.541h5.541L370.7,496.2v6.372l-3.6,3.671,2.216,1.87h5.4l8.589-4.156-3.948-2.771v-1.524l2.771-3.325H385.6l5.4-7.966-3.6-4.987,2.563-6.58" fill="#f4f4f4" stroke="#787878" stroke-linecap="round" stroke-linejoin="bevel" stroke-width="0.831"/>
  <path id="path25718" d="M425.254,437.917l-7.827,9.559h-9l-2.078-3.117h-6.927v4.294l-2.7,2.978v8.658l-6.788,11.221v5.4l-2.563,6.58,3.6,4.987-5.4,7.966H382.1l-2.771,3.325v1.524l7.966,5.541v5.4l1.732,2.563h3.325v6.1l-1.385,4.294-2.078,2.286v4.5h5.056V530.04h3.6l1.732,2.078,12.329-9,3.6-14.2v-7.619l2.078-4.156h2.563l2.078-4.987h1.593l3.255,3.6h5.4v2.078h2.563l2.424-2.563v-3.463l-3.463-2.632V486.4l-1.385-1.385v-7.966l1.939-1.385V473.1l-2.286-3.463H425.6l-2.632-3.117V463.06l1.939-2.771,3.81-3.117v-2.286h3.6l2.978-1.732v-1.87h-1.385v-5.4l-2.078-2.216v-4.017l-2.632-1.732h-3.948" fill="#f4f4f4" stroke="#787878" stroke-linecap="round" stroke-linejoin="bevel" stroke-width="0.831"/>
  <path id="path26606" d="M493.537,431.721q2.563,1.178,5.056,2.286l1.732,3.81v5.68h1.039v20.641l-3.81,4.987-3.117-.346-17.663,9.559-3.671-2.424h-5.888l-3.463-3.463v-3.671l3.325-6.372v-2.078l-4.017-1.385v-8.52l2.078-1.524-2.217-1.385V443.15l15.723-8.8h1.939l4.156-4.364h2.909l5.888,1.732" fill="#f4f4f4" stroke="#787878" stroke-linecap="round" stroke-linejoin="bevel" stroke-width="0.831"/>
  <path id="path27494" d="M517.019,201.736v5.325l-2.771,3.68v4.632l-2.424,3.333v5.671h5.888l6.407-1.732,3.81-5.325,2.771,2.771.216,11.169-4.329,7.966-2.208-3.074-3.42.087-.216-2.165-3.55-3.247-2.684,2.944v3.636l1.645-.13v1.862l-2.641,2.641L511,241.737a64.867,64.867,0,0,1-3.636-17.23l-3.247-3.636-2.078,3.247-2.857.043-5.065-6.277.216,6.883-2.294,2.165,3.55,5.411-3.03,10.044-5.022,3.42-5.974.043.13,2.9-4.286,3.42.043,2.554,3.853,3.68.043,4.805,7.23.043,2.078-1.991,6.494-.13,2.424,2.165,7.446-.13.476-.346-.476.39,3.117,2.424,1.732,7.056v6.58l2.9,7.619h2.208v.216l.087-.043v15.065l-4.719,9.351v8.658l3.333,4.5v13.29l-5.714,6.364,2.078,8.658-1.9,4.156v4.026l1.558,1.732v1.515L506.5,376.5l.52,7.013h0l-1.515,1.558h-2.771l-1.558,1.732v6.234h-.043l-4.372,7.273-1.862,1.732h-4.026l-9.524-2.944H476.2l-4.719,6.407v6.234H464.9l-2.078,2.078h-4.5l-1.732,1.126v7.013l-1.732.346v6.234h1.732l1.948,7.1V441.7l4.372,1.385,15.715-8.831h1.948l4.156-4.329h2.9l5.888,1.732,2.511,1.082h.043l2.554,1.169,1.732,3.81v2.857l3.81,3.16H509.7l4.286-3.247h4.026l5.195,3.593-.043-4.632h5.022v-8.658l2.771-6.8V409.1l-1.385-6.364-4.5-13.723v-7.619l-.043-.043,2.944-7.273,2.9-3.117V366.8h4.372v-2.9h6.234l4.675,4.286v3.463l2.424-1.732H551l-4.156-6.234v-4.978h1.9v-1.385l-1.558-1.6v-3.593h-2.424v-1.948l2.771-1.862v-4.5l4.329-4.156v-4.719l1.558-1.862H556.2L560.18,331v-4.5l3.636-4.069-1.6-1.732v-2.294l2.424-1.732h-3.117l2.078-5.541h1.732v-2.771l2.078-2.424v-2.9l-2.078-2.641h-3.247v-3.81h2.078v-8.1l-2.294-2.641v-4.5h-2.424l-2.554-2.424v-2.771h1.385v-2.208L555.5,272v-4.5l-7.143-9.134-.043.087-3.2-3.68H542l-4.675-9.7-.043-5.195-1.558-5.152-.216-8.312,1.732-2.165V213.641h1.255v-5.888h-1.9l-3.463,3.333h-5.368l-1.9-3.463-5.195-2.294-3.636-3.593Z" fill="#f4f4f4" stroke="#787878" stroke-linecap="round" stroke-linejoin="bevel" stroke-width="0.831"/>
  <path id="path29270" d="M490.914,261.088l-1.948,2.208h-7.749l2.9,3.117V276.8l-5.5,9.784H472.9v4.762l2.208,1.948h2.641v-2.078h5.195l2.208,2.9,1.6,9.914v4.978l-2.641,10.606-3.939,3.463v9l-1.472,6.017-1.385,7.143-9.134,10.736v3.593l8.1,4.719v5.325h2.424l4.156,5.065-3.117,2.424h-3.463l-2.424,2.554v8.182l-2.424,5.671,4.719,5.541h5.108l9.567,2.987h4.026l1.862-1.732,4.372-7.273v-6.234l1.515-1.732h2.771l1.6-1.515-.563-7.013,5.195-12.121v-1.515l-1.515-1.732v-4.026l1.862-4.156-2.078-8.658,5.758-6.364V324.6l-3.333-4.5v-8.658l4.719-9.351V286.846h-2.294l-2.9-7.619v-6.58l-1.732-7.056-3.117-2.424h-7.619l-1.732-2.078h-6.71Z" fill="#f4f4f4" stroke="#787878" stroke-linecap="round" stroke-linejoin="bevel" stroke-width="0.831"/>
  <g id="g36333" transform="translate(521.855 252.899)">
    <path id="path36339" fill="#fcf5e3" stroke="#787878" stroke-linejoin="bevel" stroke-width="0.014"/>
  </g>
  <path id="path3370" d="M518.713,261.505h-2.541l-.982-1.5,1.018-1.5,3.548,1.152Z" fill="#daf0fd" stroke="#27aaea" stroke-linejoin="bevel" stroke-width="0.831"/>
  <path id="path2340" d="M516.331,164.642c6.749-4.843,18.165-26.36,37.723-12.4.762,1.349,2.335,2.351,6.034,2.442,4.624,5.669,8.4,7.118,12.207,8.683,5.592,3.609,12.449,5.487,18.041,6.715,6.009,1.32,6.44,6.427,12.031,8.788,2.689-.737-1.352-4.791,2.034-5.573,1.877-.908.917-9.677-1.634-12.031,1.909-5.376,8.821-18.1,12.822-22.767,4.289-5,17.047-16.664,24.2-16.676,16.2-.263,10.9,4.579,16.343,2.057-6.766-8.71,11.922-10.388,1.542-5.063,1.694,2.4,4.877.825,6.963,1.261,4.722-5.121,1.761-10.022,7.211-7.339,1.18-.985-.21-5.8,11.246-3.623-3.689-6.05,11.234-8.506,8.652-12.383-7.854.557-8.38,7.122-13.247,6.54-2.353-.225-4.585,2.156-7.748-13.414,3.744.321,9.424-1.555-3.162-3.456-7.3-2.1-2.787-18.7.885-21.481,2.43-7.143,3.932-13.6,2.35-14.649-1.877,1.628-7.975,11.481-12.517,15.373-4.464,3.826-3.432,7.8-6.855,8.055-11.95,1.96-17.81-1.8-19.735-8.084-6.236-.4,2.465.959-1.845-.225,1.217,2.1-4.009,10.653-2.874-.1-1.077-2.492-.163.207-5.191-.688-2.142,5.75-14.753-.248-8.9-2.171-10.961-2.109-19.3-11.986-27.022-14.89C574.17,36.036,564.8,20.91,551.2,6.884c-2.751-3.664-5.936-6.17-9.949-6.468.791,4.815-6.319,1.686-10.534,14.139C537.291,31.771,541.2,40.56,539.082,47a16.2,16.2,0,0,1-3.335,13.319c-2.829,3.345,2.619,11.779.295,17.079,6.227-3.723,3.632,8.91-4.194,6.452-9.445,5.786-5.8,6.037-6.614,8.5.815,2.2.927,5.81,2.88,5.734-4.22,2.154,2.916,5.82,1.084,14.089-7.108,9.049-6.382,9.856-13.777,6.995,1.229-5.741-4.883-.015-8.942-.283-1.414-1.316-8.529-6.515-11.182-8.446-1.621.2,1.1,3.462-5.043,2.3-4.425,8.064,2.732,8.047,7.2,16.865-2.749,1.219-6.191,1.771-8.019,11.619-3.854.344-2.16-4.643-5.79-2.544.721,7.923-8.03,5.609-12.23,11.016,4.424,15.61-4.515,12.7-.838,18.867,2.036,3.115,4.816-.71,5.108,5.757,5.6,2.126,7.511,5.146,8.9,9.019,1.083,3.784-.857,6.3-1.884,8.977-4.181,6.809-2.713,12.81-1.119,18.794,7.857-2.441,8.912,3.159,7.831.45-1.071-10.238,9.581,1.38,7.311-15.576,3.8-.008,6.783-1.64,6.4-7.51l4.612,4.155c4.978-1.7,8.2.118,11.091,2.591a52.155,52.155,0,0,0,6.273-7.881l-8.292-4.623c-1.691-4.293-6.611-6.74-11.139-9.411l-5.19,1.317c-3.3-2.539-5.659-6.021-10.89-6.629.505-3.354,1.438-18.765,10.059-16.118,8.109-5.368,7.19,2.806,10.675,4.374,1.969,3.245,3.665,10.025,6.009,8.393Z" fill="#f4f4f4" stroke="#787878" stroke-linecap="round" stroke-linejoin="bevel" stroke-width="0.831"/>
  <g id="g2342" transform="translate(570.26 130.829)">
    <path id="path2346" fill="#f4f4f4" stroke="#787878" stroke-linejoin="bevel" stroke-width="0.014"/>
  </g>
  <path id="path3241" d="M693.472,49.626c1.39-4.413,1.383-8.921,5.641-11.285,3.005.261,3.537,2.171,4.074,4.078,15.957,1.679,7.052-4.466,12.023-2.55-3.036,11.121-3.148-.977-9.371,10.576-8.982-1.009-7.239,7.411-12.5,7.025-2.7,3.8-.109,8.7-4.226,7.128.042,9.1-3.269,5.181-5.506,7.469-4.222.174-.947,9.664-2.234,11.783-.674-2.527-2.2-3.775-5.4-2.516l-1.643-5.363c2.8-5.792,5.535-5.289,11.548-12.143-.044-1.339,1.083-5.784,3.442-7.861.619-3.075,1.831-3.351,4.15-6.34Z" fill="#f4f4f4" stroke="#787878" stroke-linecap="round" stroke-linejoin="bevel" stroke-width="0.831"/>
  <path id="path5015" d="M723.036,70.641c1.132-.334,2.746-3.271,4.585-3.271,1.97.486,1.47,3.083,3.77,4.185-2.039-.491-4.813,2.792-5.151,3.471-2.459,1.79-4.386,6.612-7.406.582a6.486,6.486,0,0,1-.433-2.538c0-1.615,3.256-1.74,4.635-2.43Z" fill="#f4f4f4" stroke="#787878" stroke-width="0.831" fill-rule="evenodd"/>
  <path id="path4249" d="M522.255,20.02c-1.2,2.115-11.979.712-5.15-6.225C521.612,13.273,522.995,16.572,522.255,20.02Z" fill="#f4f4f4" stroke="#787878" stroke-width="0.831" fill-rule="evenodd"/>
  <path id="path5136" d="M511.706,12.194c-1.2,2.115-4.7-8.619-.09-8.439C513.593,6.554,513.078,11.276,511.706,12.194Z" fill="#f4f4f4" stroke="#787878" stroke-width="0.831" fill-rule="evenodd"/>
  <path id="path9953" d="M702.337,92.111c1.132-.334-2.631-4.061-.792-4.061,1.97.486,4.791-.871,4.719.706-.53.655-.41,1.472.226,2.364-2.7,2.153-3.219-.754-3.927,3.745-1.432.49-3,1.474-2.963-.007.039-1.615,1.359-2.057,2.737-2.746Z" fill="#f4f4f4" stroke="#787878" stroke-width="0.831" fill-rule="evenodd"/>
  <path id="path10840" d="M697.152,95.2c-2.144.648-3.868-.74-3.358-2.221C697.674,91.983,696.968,94.547,697.152,95.2Z" fill="#f4f4f4" stroke="#787878" stroke-width="0.831" fill-rule="evenodd"/>
  <path id="path10842" d="M711.3,83.79c-1.432.253-3.394.051-2.884-1.431C710,80.417,711.747,82.586,711.3,83.79Z" fill="#f4f4f4" stroke="#787878" stroke-width="0.831" fill-rule="evenodd"/>
  <path id="path7264" d="M456.587,170.609c1.97.486,3.483-2.62,5.782-1.518,1.088,2.779-3.149.334-1.685,8.279-2.459,1.79-1.479,3.034-4.275,1.365C454.986,175.124,456.221,173.181,456.587,170.609Z" fill="#fcf5e3" stroke="#787878" stroke-width="0.831" fill-rule="evenodd"/>
</svg>
