<svg xmlns="http://www.w3.org/2000/svg" width="620.256" height="223.508" viewBox="0 0 620.256 223.508">
  <path id="Path_14747" data-name="Path 14747" d="M62.48-106.216c0-57.936,15.62-100.82,50.552-100.82,34.648,0,50.552,42.884,50.552,100.82,0,58.5-15.9,101.1-50.552,101.1C78.1-5.112,62.48-47.712,62.48-106.216Zm50.552-111.612c-53.108,0-100.82,38.34-100.82,111.612,0,74.124,47.428,111.9,100.82,111.9,53.676,0,100.536-38.056,100.536-111.9C213.568-179.772,166.424-217.828,113.032-217.828Zm332.564,5.68H367.212v9.656l37.772,3.976L406.4-63.332,298.768-212.148H230.324v9.656l20.164,2.272,5.4,7.952-1.7,178.636L228.052-9.656V0H307V-9.656l-38.056-4.26-1.7-162.164L392.488.568H417.48L419.468-198.8l26.128-3.692ZM631.9-58.788H616L602.932-11.076h-63.9c-.568-29.536-.568-59.64-.568-91.164v-.852h38.908l3.976,30.1h14.2V-144.84h-14.2l-4.26,31.524H538.464c0-30.1,0-59.356.568-87.756h57.652l13.064,45.44H626.22l.284-56.516H464.056v9.656l25.56,2.272c.852,29.252.852,58.5.852,88.04v12.5c0,29.536,0,58.788-.852,87.472l-25.56,2.556V0H632.468Z" transform="translate(-12.212 217.828)" fill="#fff"/>
</svg>
