<svg id="レイヤー_7" data-name="レイヤー 7" xmlns="http://www.w3.org/2000/svg" width="191.117" height="55.08" viewBox="0 0 191.117 55.08">
  <g id="Group_53" data-name="Group 53" transform="translate(27.038 29.288)">
    <path id="Path_135" data-name="Path 135" d="M65.44,78.446c0,2.249.93,2.307,1.86,2.307V81H61.181v-.244c.779,0,1.04-.651,1.04-1.917V70c0-1.151-.336-1.86-1.151-1.86V67.9h4.706c3.7,0,6.845.447,6.845,3.759S69.478,75.4,65.776,75.4H65.44v3.051Zm.336-3.294c2.289,0,3.161-.058,3.161-3.5s-.987-3.515-3.161-3.515H65.44v7.013Z" transform="translate(-61.07 -67.125)" fill="#333"/>
    <path id="Path_136" data-name="Path 136" d="M92.145,81.989c.075,2.324.987,3.161,2.231,3.44a2.4,2.4,0,0,0,2.754-1.47l.244.093c-.261,1.173-1.488,2.568-3.905,2.568a4.366,4.366,0,0,1-4.259-4.427,4.31,4.31,0,0,1,4.52-4.5c2.417,0,3.905,1.1,3.905,4.295H92.15Zm3.015-.244c0-2.342-.5-3.812-1.43-3.812-.987,0-1.581,2.028-1.581,3.812h3.015Z" transform="translate(-76.751 -72.581)" fill="#333"/>
    <path id="Path_137" data-name="Path 137" d="M121.079,85.281a2.3,2.3,0,0,1-2.289,1.337s-1.86,0-2.046-1.581a2.578,2.578,0,0,1-2.6,1.581c-.354,0-2.231-.151-2.231-1.895,0-1.935,1.545-2.214,4.817-3.015V80.535c0-1.935-1.08-2.922-2.36-2.267-.3.151-.558.447-.168.558a1.067,1.067,0,0,1,.686.558,1.184,1.184,0,0,1-2.1,1.1,1.185,1.185,0,0,1,.093-1.244,3.293,3.293,0,0,1,1.337-1.151A3.762,3.762,0,0,1,116,77.7c2.435,0,3.44,1.523,3.44,3.719v2.772s0,1.319.894,1.3c0,0,.429,0,.54-.314l.2.111Zm-6.322-1.023s0,1.226.965,1.226a1.149,1.149,0,0,0,1.005-.819v-2.7A2.141,2.141,0,0,0,114.757,84.258Z" transform="translate(-89.401 -72.583)" fill="#333"/>
    <path id="Path_138" data-name="Path 138" d="M142.855,80a1.321,1.321,0,0,1-1.656.855,1.281,1.281,0,0,1-.837-1.616,1.116,1.116,0,0,1,.633-.744c.186-.093-.128-.558-1.058-.558-.872,0-2.01,1.058-2.01,3.905,0,2.01.965,2.975,2.4,3.126a2.525,2.525,0,0,0,2.342-.947l.2.111c-.128,1.058-1.337,2.493-3.666,2.493a4.473,4.473,0,0,1-4.277-4.5c0-2.4,1.6-4.427,4.945-4.427a3.648,3.648,0,0,1,2.639.987A1.4,1.4,0,0,1,142.851,80Z" transform="translate(-102.229 -72.581)" fill="#333"/>
    <path id="Path_139" data-name="Path 139" d="M159.305,81.989c.075,2.324.987,3.161,2.231,3.44a2.4,2.4,0,0,0,2.754-1.47l.243.093c-.261,1.173-1.488,2.568-3.905,2.568a4.366,4.366,0,0,1-4.259-4.427,4.31,4.31,0,0,1,4.52-4.5c2.417,0,3.9,1.1,3.9,4.295H159.31Zm3.015-.244c0-2.342-.5-3.812-1.43-3.812-.987,0-1.581,2.028-1.581,3.812h3.015Z" transform="translate(-114.176 -72.581)" fill="#333"/>
    <path id="Path_140" data-name="Path 140" d="M196.31,78.446c0,2.249.93,2.307,1.86,2.307V81h-6.119v-.244c.779,0,1.04-.651,1.04-1.917V70c0-1.151-.336-1.86-1.151-1.86V67.9h4.706c3.7,0,6.845.447,6.845,3.759s-3.144,3.737-6.845,3.737h-.336Zm.336-3.294c2.289,0,3.161-.058,3.161-3.5s-.987-3.515-3.161-3.515h-.336v7.013Z" transform="translate(-133.998 -67.125)" fill="#333"/>
    <path id="Path_141" data-name="Path 141" d="M224.833,86.626a4.465,4.465,0,1,1,4.613-4.463A4.256,4.256,0,0,1,224.833,86.626Zm0-8.687c-1.173,0-1.359.854-1.359,4.224s.186,4.224,1.359,4.224,1.359-.854,1.359-4.224S226.007,77.939,224.833,77.939Z" transform="translate(-149.757 -72.586)" fill="#333"/>
    <path id="Path_142" data-name="Path 142" d="M248.043,80.021H243.8V79.8c.708-.2.744-.987.744-1.953V68.324c0-.651-.2-.93-.965-1.209v-.221l3.7-.744v11.7c0,1.023.093,1.767.762,1.953v.221Zm6.38,0H251.39c-1.284,0-1.43-.336-2.7-2.2-.558-.819-1.058-1.581-1.058-1.581l1.97-2.063c.407-.429,1.842-2.546.058-2.51v-.244h4.782v.244a7.935,7.935,0,0,0-4.928,3.015c1.377,1.935,2.958,3.923,2.958,3.923a2.51,2.51,0,0,0,1.953,1.173v.244Z" transform="translate(-162.775 -66.15)" fill="#333"/>
    <path id="Path_143" data-name="Path 143" d="M272.245,81.989c.075,2.324.987,3.161,2.231,3.44a2.4,2.4,0,0,0,2.754-1.47l.244.093c-.261,1.173-1.488,2.568-3.9,2.568a4.366,4.366,0,0,1-4.259-4.427,4.31,4.31,0,0,1,4.52-4.5c2.417,0,3.9,1.1,3.9,4.295H272.25Zm3.015-.244c0-2.342-.5-3.812-1.43-3.812-.987,0-1.581,2.028-1.581,3.812h3.015Z" transform="translate(-177.113 -72.581)" fill="#333"/>
    <path id="Path_144" data-name="Path 144" d="M296.856,80.441a1.347,1.347,0,0,1-.522-1.023c0-.221-.669-.075-1.395,1.058v3.794c0,1.023.093,1.767.762,1.952v.221h-4.259v-.221c.726-.221.744-1.005.744-1.952V79.937c0-.651-.2-.912-.965-1.244v-.244l3.719-.762v2.36c1.151-1.767,1.8-2.028,2.307-2.249a1.651,1.651,0,0,1,1.656.279,1.563,1.563,0,0,1-2.045,2.364Z" transform="translate(-189.322 -72.578)" fill="#333"/>
    <path id="Path_145" data-name="Path 145" d="M334.948,81l-7.571-10.1v5.636c0,.744.035,4.224,2.679,4.224V81h-5.782v-.244c2.7,0,2.865-3.48,2.865-4.224V70.618l-.8-1.08c-1.151-1.47-1.784-1.359-2.267-1.395V67.9h5.247l6.92,9.187V72.345c0-.854-.3-4.224-2.6-4.2V67.9h5.636v.244c-2.568-.018-2.789,3.347-2.789,4.2v8.647h-1.523Z" transform="translate(-207.628 -67.125)" fill="#333"/>
    <path id="Path_146" data-name="Path 146" d="M362.225,81.989c.075,2.324.987,3.161,2.232,3.44a2.4,2.4,0,0,0,2.754-1.47l.243.093c-.261,1.173-1.488,2.568-3.905,2.568a4.366,4.366,0,0,1-4.259-4.427,4.31,4.31,0,0,1,4.52-4.5c2.417,0,3.905,1.1,3.905,4.295H362.23Zm3.015-.244c0-2.342-.5-3.812-1.43-3.812-.987,0-1.581,2.028-1.581,3.812h3.015Z" transform="translate(-227.254 -72.581)" fill="#333"/>
    <path id="Path_147" data-name="Path 147" d="M395.177,78.07v.243c-.726,0-1.412.372-2.382,2.958l-2.045,5.561h-.615L387.548,81.2l-1.988,5.636h-.651c-1.638-3.573-3.476-7.549-3.476-7.549-.447-.872-.965-.947-1.284-.965v-.244h4.706v.244c-.948,0-.244,1.377-.244,1.377l1.842,3.887.965-2.661c-.279-.615-.762-1.638-.762-1.638-.447-.872-.726-.947-1.058-.965v-.244h4.538v.244c-1.04,0-.3,1.377-.3,1.377l1.824,3.887s.726-1.895.872-2.342.686-2.922-1.173-2.922v-.244h3.812Z" transform="translate(-238.879 -72.792)" fill="#333"/>
    <path id="Path_148" data-name="Path 148" d="M420.016,86.626a6.325,6.325,0,0,1-3.347-.744V83.5h.243c.337,1.226,1.395,2.882,3.108,2.882,1.319,0,1.581-1.6.168-2.528l-1.877-1.133c-1.784-1.133-2.249-2.807-1.173-4.109a3.314,3.314,0,0,1,2.679-.912,6.469,6.469,0,0,1,3.051.54v1.992h-.244a2.931,2.931,0,0,0-2.807-2.289c-1.209,0-1.749,1.319-.128,2.342l1.877,1.173c1.674,1.023,2.156,2.882,1.191,4.166a3.289,3.289,0,0,1-2.736,1.005Z" transform="translate(-259.171 -72.586)" fill="#333"/>
  </g>
  <g id="Group_56" data-name="Group 56" transform="translate(2.293 0)">
    <path id="Path_149" data-name="Path 149" d="M21.248,38.221a1.891,1.891,0,0,0-3.608.708c0,2.081,2.687,2.816,3.6,4.755l.013.027.013-.027c.908-1.939,3.6-2.674,3.6-4.755A1.891,1.891,0,0,0,21.248,38.221Z" transform="translate(-12.123 -20.688)" fill="#333"/>
    <path id="Path_150" data-name="Path 150" d="M56.208,9.94a7.9,7.9,0,0,0,1.058,2.054,7.792,7.792,0,0,0,1.9,1.873,6.242,6.242,0,0,0-2.958,3.927,6.163,6.163,0,0,0-2.958-3.927A7.741,7.741,0,0,0,56.208,9.94Z" transform="translate(-31.967 -5.539)" fill="#333" fill-rule="evenodd"/>
    <g id="Group_54" data-name="Group 54" transform="translate(13.101 8.434)">
      <circle id="Ellipse_5" data-name="Ellipse 5" cx="1.789" cy="1.789" r="1.789" transform="translate(3.396 2.271)" fill="#333"/>
      <circle id="Ellipse_6" data-name="Ellipse 6" cx="1.789" cy="1.789" r="1.789" transform="translate(0 2.271)" fill="#333"/>
      <circle id="Ellipse_7" data-name="Ellipse 7" cx="1.789" cy="1.789" r="1.789" transform="translate(1.696)" fill="#333"/>
      <path id="Path_151" data-name="Path 151" d="M40.643,30.7a6.137,6.137,0,0,1-.629-1.62,6.542,6.542,0,0,1-.686,1.651,7.417,7.417,0,0,1-1.408,1.74,7.112,7.112,0,0,1,2.125-.31,7.015,7.015,0,0,1,2.054.31A6.634,6.634,0,0,1,40.638,30.7Z" transform="translate(-36.525 -24.639)" fill="#333" fill-rule="evenodd"/>
    </g>
    <g id="Group_55" data-name="Group 55" transform="translate(28.562)">
      <path id="Path_152" data-name="Path 152" d="M73.254,5.419a1.868,1.868,0,0,0,3.564-.7c0-2.054-2.652-2.78-3.551-4.693L73.254,0l-.013.027C72.346,1.939,69.69,2.665,69.69,4.72a1.868,1.868,0,0,0,3.564.7Z" transform="translate(-69.69 0)" fill="#333"/>
      <path id="Path_153" data-name="Path 153" d="M76.224,13.192a4.536,4.536,0,0,1-.474-1.222,5,5,0,0,1-.518,1.249,5.47,5.47,0,0,1-1.063,1.311,5.409,5.409,0,0,1,3.152,0,4.918,4.918,0,0,1-1.1-1.337Z" transform="translate(-72.187 -6.67)" fill="#333" fill-rule="evenodd"/>
    </g>
    <path id="Path_154" data-name="Path 154" d="M5.18,49.46c.514.248,1.071.531,1.66.854C6.251,49.991,5.694,49.708,5.18,49.46Z" transform="translate(-5.18 -27.562)" fill="none"/>
  </g>
  <path id="Path_155" data-name="Path 155" d="M25.321,27.874a44.938,44.938,0,0,0-13.4,13.114.17.17,0,0,1-.261.022A36.739,36.739,0,0,0,0,33.5l.053,4.636h0a8.877,8.877,0,0,1,1.368.5,30.04,30.04,0,0,1,8.191,5.525.174.174,0,0,1,.027.217,49.981,49.981,0,0,0-3.312,6.309,23.056,23.056,0,0,0-1.669,4.578c-.447,2.054-1.333,6.646,1.249,9.643a7.529,7.529,0,0,0,11.569.164c2.4-2.577,2.608-6.57,2.3-9.338-.474-5.309-3.294-9.63-6.15-12.751a.174.174,0,0,1-.009-.226C18.445,36.526,28.2,30.5,38.674,31.235l-.053-8.585a41.467,41.467,0,0,0-13.309,5.22ZM14.2,51.42c.682,1.97,1.342,5.893-.266,8.147a5.1,5.1,0,0,1-1.8,1.842,3.7,3.7,0,0,1-3.028.159,4.053,4.053,0,0,1-1.966-2.488c-1.488-3.994,3.037-11.4,3.994-12.893a.178.178,0,0,1,.292-.009A15.853,15.853,0,0,1,14.2,51.42Z" transform="translate(0 -12.622)" fill="#333"/>
</svg>
