<svg xmlns="http://www.w3.org/2000/svg" width="506" height="506" viewBox="0 0 506 506">
  <g id="Group_33" data-name="Group 33" transform="translate(-1311 -1932)">
    <g id="Layer_1" data-name="Layer 1" transform="translate(1311 1932)">
      <path id="Path_91" data-name="Path 91" d="M253,1.587a251.477,251.477,0,0,1,97.863,483.07A251.48,251.48,0,0,1,155.137,21.343,249.784,249.784,0,0,1,253,1.587M253,0C113.269,0,0,113.269,0,253S113.269,506,253,506,506,392.731,506,253,392.723,0,253,0Z" fill="#0074db"/>
      <path id="Path_92" data-name="Path 92" d="M273.382,100.387a172.46,172.46,0,1,1-67.338,13.6,171.831,171.831,0,0,1,67.338-13.6m0-1.587A174.582,174.582,0,1,0,447.965,273.382,174.583,174.583,0,0,0,273.382,98.8h0Z" transform="translate(-20.382 -20.382)" fill="#0074db"/>
      <g id="Group_31" data-name="Group 31" transform="translate(22.898 22.978)">
        <path id="Path_93" data-name="Path 93" d="M28.89,327.44l-.04-8.231,28.851-.143-.087-17.834,6.707-.032.135,26.057L28.9,327.44Z" transform="translate(-28.85 -85.115)" fill="#0074db"/>
        <path id="Path_94" data-name="Path 94" d="M62.6,260.52l6.524,1.008-4.207,27.208L29.78,283.307l4.1-26.557,6.524,1.008L37.55,276.235l7.627,1.183L47.7,261.1l6.326.976L51.5,278.394l8.135,1.254,2.953-19.128Z" transform="translate(-29.042 -75.945)" fill="#0074db"/>
        <path id="Path_95" data-name="Path 95" d="M55.4,242.012c-9.953-3.548-14.556-13.929-10.786-24.5,3.754-10.524,13.858-15.715,23.859-12.152s14.541,13.977,10.786,24.5C75.485,240.441,65.349,245.56,55.4,242.012ZM65.666,213.2c-6.365-2.27-12.326.675-14.453,6.659s.619,12.033,6.985,14.3,12.326-.675,14.453-6.659-.619-12.033-6.985-14.3Z" transform="translate(-31.831 -65.112)" fill="#0074db"/>
        <path id="Path_96" data-name="Path 96" d="M85.532,173.364c-8.77-6.159-10.318-17.3-3.961-26.367,3.532-5.032,8.31-7.945,13.564-8.358l.952,7.127a11.47,11.47,0,0,0-8.548,4.921c-3.826,5.445-2.714,12,2.778,15.85s12.025,2.675,15.85-2.77a11.323,11.323,0,0,0,1.683-9.739l7.024-1.524c1.445,5.111.325,10.6-3.238,15.668-6.334,9.024-17.342,11.35-26.113,5.191Z" transform="translate(-38.926 -51.579)" fill="#0074db"/>
        <path id="Path_97" data-name="Path 97" d="M114.185,134.575c-7.334-7.612-6.834-18.954,1.254-26.74,8.048-7.754,19.406-7.905,26.772-.254s6.794,18.993-1.254,26.74C132.869,142.107,121.519,142.186,114.185,134.575Zm22.025-21.216c-4.691-4.865-11.334-4.881-15.906-.476s-4.8,11.048-.119,15.914,11.334,4.881,15.906.476S140.893,118.225,136.21,113.359Z" transform="translate(-45.387 -44.006)" fill="#0074db"/>
        <path id="Path_98" data-name="Path 98" d="M183.889,92.839l-13.914,8.889,1.445,8.12-7.1,4.54L158.53,75.893l6.85-4.373,32.542,21.406-7.278,4.651-6.754-4.723Zm-5.548-3.873-12.08-8.437,2.58,14.509Z" transform="translate(-55.603 -37.732)" fill="#0074db"/>
        <path id="Path_99" data-name="Path 99" d="M200.106,58.228l-10.469,4.461-2.627-6.167,28.5-12.152,2.627,6.167L207.67,55l11.31,26.541-7.572,3.23L200.1,58.228Z" transform="translate(-61.478 -32.131)" fill="#0074db"/>
        <path id="Path_100" data-name="Path 100" d="M255.92,61.153a6.35,6.35,0,1,1,12.421-2.643,6.35,6.35,0,1,1-12.421,2.635Z" transform="translate(-75.663 -34)" fill="#0074db"/>
        <path id="Path_101" data-name="Path 101" d="M299.1,29.109l8.231-.159.556,28.851,17.827-.349.127,6.707-26.057.508-.69-35.558Z" transform="translate(-84.6 -28.95)" fill="#0074db"/>
        <path id="Path_102" data-name="Path 102" d="M365.124,61.894l-.913,6.54L336.94,64.617,341.877,29.4l26.613,3.73-.913,6.54-18.517-2.6-1.072,7.643,16.35,2.294-.889,6.342L347.1,51.06l-1.143,8.151Z" transform="translate(-92.409 -29.043)" fill="#0074db"/>
        <path id="Path_103" data-name="Path 103" d="M381.683,54.4c3.4-10,13.715-14.755,24.343-11.136,10.58,3.6,15.914,13.628,12.493,23.676s-13.763,14.739-24.343,11.136C383.548,74.459,378.278,64.4,381.683,54.4Zm28.946,9.85c2.175-6.4-.857-12.31-6.865-14.358s-12.017.794-14.2,7.183.857,12.31,6.865,14.358,12.025-.794,14.2-7.191Z" transform="translate(-101.427 -31.654)" fill="#0074db"/>
        <path id="Path_104" data-name="Path 104" d="M450.962,83.547c6.032-8.858,17.152-10.564,26.3-4.334,5.08,3.461,8.064,8.2,8.548,13.445L478.7,93.715a11.425,11.425,0,0,0-5.048-8.477c-5.5-3.746-12.033-2.54-15.811,3a10.913,10.913,0,0,0,3,15.811,11.324,11.324,0,0,0,9.763,1.548l1.619,7.008c-5.088,1.516-10.588.476-15.707-3.016-9.112-6.207-11.6-17.176-5.564-26.033Z" transform="translate(-115.25 -38.553)" fill="#0074db"/>
        <path id="Path_105" data-name="Path 105" d="M490.409,111.617c7.6-7.35,18.938-6.881,26.748,1.191,7.77,8.032,7.953,19.382.318,26.771s-18.969,6.842-26.748-1.191C482.917,130.325,482.814,118.967,490.409,111.617Zm21.271,21.97c4.857-4.7,4.857-11.342.437-15.906S501.061,112.9,496.2,117.6s-4.857,11.342-.436,15.906S506.823,138.286,511.681,133.587Z" transform="translate(-122.91 -44.931)" fill="#0074db"/>
        <path id="Path_106" data-name="Path 106" d="M531.607,180.685,522.519,166.9l-8.1,1.564-4.643-7.04L548.2,155.08l4.476,6.786-20.938,32.851-4.754-7.207Zm3.794-5.6,8.262-12.2-14.469,2.786Z" transform="translate(-128.066 -54.971)" fill="#0074db"/>
        <path id="Path_107" data-name="Path 107" d="M567.145,196.432l-4.611-10.4,6.127-2.714,12.556,28.327-6.127,2.714-4.611-10.4L544.1,215.655l-3.334-7.524,26.375-11.691Z" transform="translate(-134.459 -60.796)" fill="#0074db"/>
        <path id="Path_108" data-name="Path 108" d="M572.131,252.264a6.35,6.35,0,1,1,2.826,12.382,6.346,6.346,0,1,1-2.818-12.374Z" transform="translate(-139.889 -74.984)" fill="#0074db"/>
        <path id="Path_109" data-name="Path 109" d="M598.814,294.95l.278,8.223-28.835.976.6,17.819-6.7.222-.881-26.041Z" transform="translate(-139.103 -83.826)" fill="#0074db"/>
        <path id="Path_110" data-name="Path 110" d="M566.208,361.575l-6.548-.825,3.429-27.319,35.28,4.429-3.349,26.66-6.548-.825,2.326-18.549-7.659-.96-2.056,16.382-6.35-.794,2.056-16.382-8.167-1.024-2.413,19.2Z" transform="translate(-138.356 -91.764)" fill="#0074db"/>
        <path id="Path_111" data-name="Path 111" d="M574.386,377.966c10.048,3.262,14.953,13.5,11.485,24.176-3.445,10.628-13.4,16.1-23.494,12.834S547.44,401.427,550.892,390.8C554.353,380.124,564.338,374.711,574.386,377.966Zm-9.437,29.089c6.429,2.087,12.294-1.032,14.255-7.072s-.96-12.009-7.389-14.088-12.294,1.032-14.255,7.072S558.52,404.975,564.949,407.055Z" transform="translate(-136.319 -100.758)" fill="#0074db"/>
        <path id="Path_112" data-name="Path 112" d="M546.106,447.624c8.945,5.905,10.818,16.993,4.715,26.24-3.389,5.127-8.08,8.183-13.318,8.739l-1.159-7.1a11.429,11.429,0,0,0,8.4-5.167c3.667-5.556,2.365-12.072-3.23-15.763s-12.1-2.326-15.763,3.23a11.333,11.333,0,0,0-1.4,9.786l-6.977,1.722c-1.587-5.064-.627-10.58,2.786-15.747,6.072-9.2,17.009-11.842,25.954-5.945Z" transform="translate(-129.477 -114.674)" fill="#0074db"/>
        <path id="Path_113" data-name="Path 113" d="M518.325,487.108c7.588,7.35,7.493,18.708-.318,26.772-7.77,8.032-19.12,8.572-26.748,1.191s-7.453-18.739.318-26.772c7.81-8.064,19.152-8.54,26.748-1.191Zm-21.271,21.97c4.857,4.7,11.5,4.484,15.914-.079s4.413-11.207-.437-15.906-11.493-4.484-15.914.079S492.2,504.379,497.054,509.078Z" transform="translate(-123.086 -122.395)" fill="#0074db"/>
        <path id="Path_114" data-name="Path 114" d="M449.643,529.627l13.652-9.286-1.683-8.072,6.969-4.738,6.9,38.312-6.723,4.572L435.61,529.96l7.143-4.857,6.889,4.532Zm5.659,3.707,12.318,8.08-2.992-14.422Z" transform="translate(-112.764 -127.681)" fill="#0074db"/>
        <path id="Path_115" data-name="Path 115" d="M436.237,565.47l10.334-4.762,2.81,6.088-28.145,12.969-2.81-6.088,10.334-4.762-12.08-26.2,7.477-3.445Z" transform="translate(-108.859 -134.229)" fill="#0074db"/>
        <path id="Path_116" data-name="Path 116" d="M385.592,571.172a6.351,6.351,0,1,1-12.342,3,6.348,6.348,0,1,1,12.334-3Z" transform="translate(-99.859 -139.788)" fill="#0074db"/>
        <path id="Path_117" data-name="Path 117" d="M339.5,598.442l-8.223.4L329.9,570.028l-17.811.857-.317-6.7L337.8,562.94l1.706,35.51Z" transform="translate(-87.216 -139.112)" fill="#0074db"/>
        <path id="Path_118" data-name="Path 118" d="M271.538,566.894l.73-6.564,27.359,3.04L295.7,598.705l-26.708-2.968.73-6.564,18.581,2.064.849-7.675-16.406-1.825.706-6.358,16.406,1.826.9-8.175-19.231-2.135Z" transform="translate(-78.391 -138.573)" fill="#0074db"/>
        <path id="Path_119" data-name="Path 119" d="M253.193,575.281c-3.119,10.1-13.287,15.144-24.009,11.834-10.675-3.294-16.295-13.16-13.167-23.3s13.334-15.128,24.009-11.834C250.749,555.287,256.3,565.185,253.193,575.281Zm-29.216-9.016c-1.992,6.453,1.206,12.279,7.27,14.152s11.993-1.135,13.985-7.588-1.206-12.279-7.27-14.152S225.969,559.812,223.977,566.264Z" transform="translate(-67.285 -136.642)" fill="#0074db"/>
        <path id="Path_120" data-name="Path 120" d="M183.327,548c-5.77,9.032-16.834,11.056-26.168,5.1-5.175-3.31-8.294-7.961-8.929-13.183l7.08-1.262a11.441,11.441,0,0,0,5.286,8.326c5.6,3.587,12.1,2.191,15.715-3.461s2.151-12.128-3.453-15.715a11.324,11.324,0,0,0-9.8-1.262l-1.826-6.953c5.04-1.659,10.564-.778,15.787,2.556,9.286,5.937,12.088,16.834,6.31,25.859Z" transform="translate(-53.478 -130)" fill="#0074db"/>
        <path id="Path_121" data-name="Path 121" d="M143.223,520.824c-7.294,7.643-18.644,7.619-26.772-.127-8.088-7.715-8.707-19.057-1.381-26.732s18.684-7.588,26.772.127c8.12,7.747,8.675,19.089,1.381,26.732ZM121.1,499.712c-4.667,4.889-4.4,11.524.19,15.914s11.239,4.334,15.906-.548,4.405-11.524-.191-15.914S125.77,494.831,121.1,499.712Z" transform="translate(-45.582 -123.704)" fill="#0074db"/>
        <path id="Path_122" data-name="Path 122" d="M98.769,452.739l9.477,13.517,8.048-1.794,4.842,6.905-38.209,7.445-4.667-6.651L98.237,438.73,103.2,445.8l-4.429,6.953Zm-3.627,5.707-7.905,12.437,14.382-3.2-6.477-9.231Z" transform="translate(-39.043 -113.487)" fill="#0074db"/>
        <path id="Path_123" data-name="Path 123" d="M63.259,439.784l4.913,10.263-6.048,2.9L48.75,425l6.048-2.9,4.913,10.263L85.736,419.91l3.548,7.421Z" transform="translate(-32.955 -109.605)" fill="#0074db"/>
        <path id="Path_124" data-name="Path 124" d="M64,389.227a6.349,6.349,0,1,1-3.175-12.294A6.35,6.35,0,1,1,64,389.227Z" transform="translate(-34.453 -100.693)" fill="#0074db"/>
      </g>
    </g>
    <g id="Group_32" data-name="Group 32" transform="translate(1478.1 2098.4)">
      <path id="Path_1" data-name="Path 1" d="M24.125,43.031a5.4,5.4,0,0,0,.862-1.508,1.668,1.668,0,0,0,.215-.646,4.849,4.849,0,0,0-3.017.215c-1.077.431-1.939,1.724-2.586,3.663A4.723,4.723,0,0,0,24.125,43.031Z" transform="translate(7.738 31.336)" fill="#0074db"/>
      <path id="Path_2" data-name="Path 2" d="M23.2,38.226A6.548,6.548,0,0,0,21.693,39.3a11.685,11.685,0,0,0-1.293,2.37,3.787,3.787,0,0,0,4.31-1.293,5.3,5.3,0,0,0,1.508-1.939A3.644,3.644,0,0,0,23.2,38.226Z" transform="translate(8.661 28.168)" fill="#0074db"/>
      <path id="Path_3" data-name="Path 3" d="M21.655,50.394c.215-.215.646-.431.862-.862.215-.215.431-.646.646-.862a14.849,14.849,0,0,1,.646-1.724c0-.215,0-.431.215-.431V46.3a3.974,3.974,0,0,0-2.8.862,3.865,3.865,0,0,0-1.077,1.508c-.215.431-.215.646-.431,1.077,0,.431-.215.862-.215,1.508A6.453,6.453,0,0,0,21.655,50.394Z" transform="translate(7.622 37.764)" fill="#0074db"/>
      <path id="Path_4" data-name="Path 4" d="M21.87,47.287a9.956,9.956,0,0,0,1.508-1.508,12.359,12.359,0,0,0,.862-1.508,1.668,1.668,0,0,0,.215-.646c-1.939-.215-4.094.215-4.956,4.525A7.719,7.719,0,0,0,21.87,47.287Z" transform="translate(7.622 34.622)" fill="#0074db"/>
      <path id="Path_5" data-name="Path 5" d="M23.5,54.286a6.028,6.028,0,0,0,.215-2.586,4,4,0,0,0-2.586,1.508,4.114,4.114,0,0,0-.646,1.724,5.174,5.174,0,0,0,0,2.586A3.847,3.847,0,0,0,23.5,54.286Z" transform="translate(8.575 44)" fill="#0074db"/>
      <path id="Path_6" data-name="Path 6" d="M22.07,53.194c.215-.215.431-.646.646-.862s.215-.646.431-.862a8.319,8.319,0,0,0,.431-2.37,4.538,4.538,0,0,0-2.8,1.077,3.246,3.246,0,0,0-.862,1.724,2.333,2.333,0,0,0-.215,1.293V54.7A6.419,6.419,0,0,0,22.07,53.194Z" transform="translate(7.853 40.998)" fill="#0074db"/>
      <path id="Path_7" data-name="Path 7" d="M25.249,59.47a4.2,4.2,0,0,0-.215-1.724.944.944,0,0,0-.215-.646,4.717,4.717,0,0,0-2.155,1.939,2.7,2.7,0,0,0-.215,1.939,7.45,7.45,0,0,0,.646,2.586A4.656,4.656,0,0,0,25.249,59.47Z" transform="translate(10.923 50.237)" fill="#0074db"/>
      <path id="Path_8" data-name="Path 8" d="M24.1,56.87V54.5a3.336,3.336,0,0,0-2.37,1.724,4.059,4.059,0,0,0-.431,1.724,6.405,6.405,0,0,0,.431,2.586C23.455,59.887,23.886,58.163,24.1,56.87Z" transform="translate(9.701 47.234)" fill="#0074db"/>
      <path id="Path_9" data-name="Path 9" d="M27.118,36.53a2.667,2.667,0,0,1,.431-.646c-1.724-.862-4.094-1.077-6.249,2.586a3.6,3.6,0,0,0,2.586.215c.431,0,.646-.215,1.077-.431a2.975,2.975,0,0,0,.862-.646A2.207,2.207,0,0,0,27.118,36.53Z" transform="translate(9.701 25.124)" fill="#0074db"/>
      <path id="Path_10" data-name="Path 10" d="M28.518,34.193l.431-.431a4.331,4.331,0,0,0-2.8-.862c-1.077.215-2.155.862-3.448,2.586a3.319,3.319,0,0,0,2.37.431,5.149,5.149,0,0,0,1.939-.646C27.656,34.839,28.087,34.408,28.518,34.193Z" transform="translate(11.318 22.289)" fill="#0074db"/>
      <path id="Path_11" data-name="Path 11" d="M30.349,31.677A3.569,3.569,0,0,0,27.763,30.6a6.661,6.661,0,0,0-1.724.431A11.842,11.842,0,0,0,24.1,32.539a3.592,3.592,0,0,0,4.094.215A5.237,5.237,0,0,0,30.349,31.677Z" transform="translate(12.934 19.633)" fill="#0074db"/>
      <path id="Path_12" data-name="Path 12" d="M29.017,31.086c.215,0,.646-.215.862-.215a3.508,3.508,0,0,0,1.293-.646c.431-.215.431-.431.431-.431A4.471,4.471,0,0,0,29.448,28.5a3.667,3.667,0,0,0-1.508.215A5.088,5.088,0,0,0,26,30.008a2.632,2.632,0,0,0,1.939.862A1.943,1.943,0,0,0,29.017,31.086Z" transform="translate(15.129 17.207)" fill="#0074db"/>
      <path id="Path_13" data-name="Path 13" d="M28.29,101.8l1.939,3.232.431-.215a58.541,58.541,0,0,1-7.973-20.256,61.545,61.545,0,0,1,0-21.764,58.1,58.1,0,0,1,7.758-20.256A54.2,54.2,0,0,1,43.374,28.323a6.375,6.375,0,0,0,2.155-.431,4.331,4.331,0,0,0,1.724-.862l.646-.646.646-.646a9.122,9.122,0,0,0,1.077-1.508,7.051,7.051,0,0,0-2.8.215,5.741,5.741,0,0,0-2.155,1.293,3.664,3.664,0,0,0-1.293,2.155c-.862.646-1.508,1.293-2.37,1.939.215-.215.215-.431.431-.646a3.063,3.063,0,0,0,.431-1.293,3.64,3.64,0,0,0-.646-2.155L41,25.953a.752.752,0,0,0-.215.431,3.313,3.313,0,0,0-.862,1.293,2.97,2.97,0,0,0,.215,3.232c-1.077,1.077-2.37,2.155-3.232,3.232.215-.431.431-.646.431-1.077a5.482,5.482,0,0,0,.431-1.508,3.087,3.087,0,0,0-1.077-2.37,2.667,2.667,0,0,0-.431.646A9.369,9.369,0,0,0,35.4,31.34a1.3,1.3,0,0,0-.215.862v1.077A2.66,2.66,0,0,0,36.047,35l-3.232,3.879c.215-.431.215-.862.431-1.293a5.355,5.355,0,0,0,.215-1.724,3.533,3.533,0,0,0-1.508-2.37,13.462,13.462,0,0,0-1.077,2.37,3.58,3.58,0,0,0,1.293,3.879,12.217,12.217,0,0,0-1.724,2.8c-.431.646-.646,1.077-1.077,1.724a5.726,5.726,0,0,0,.215-3.232,3.834,3.834,0,0,0-1.724-2.37,2.359,2.359,0,0,0-.431.862A4.3,4.3,0,0,0,27,41.468a7.331,7.331,0,0,0,.215,2.155,2.882,2.882,0,0,0,1.508,1.724,55.1,55.1,0,0,0-2.37,5.172c.646-3.448-.431-4.741-2.155-5.6a1.259,1.259,0,0,0-.215.862,5.35,5.35,0,0,0-.215,1.939v1.077a1.646,1.646,0,0,0,.431,1.077A4.411,4.411,0,0,0,25.919,51.6,48.49,48.49,0,0,0,24.2,56.767V55.043a6.292,6.292,0,0,0-.431-1.939,3.606,3.606,0,0,0-2.37-1.939,6.79,6.79,0,0,0-.215,2.8,4.089,4.089,0,0,0,2.8,3.663c-.431,1.724-.862,3.448-1.293,5.387a7.345,7.345,0,0,0-.862-3.448,4.289,4.289,0,0,0-2.586-1.724v.862a6.648,6.648,0,0,0,.215,1.939c.431,1.508,1.077,3.017,3.017,3.232-.215,1.724-.431,3.663-.646,5.387-.431-3.448-1.939-4.525-3.879-4.741v.862a8,8,0,0,0,.431,1.939,3.876,3.876,0,0,0,1.293,1.939,3.829,3.829,0,0,0,2.155.862,48.6,48.6,0,0,0,0,5.6c0-.215,0-.215-.215-.431-.215-.431-.215-.862-.431-1.077A2.749,2.749,0,0,0,20.1,72.713a3.568,3.568,0,0,0-2.8-1.077V72.5a4.091,4.091,0,0,0,.646,1.939c.215.431.431.646.646,1.077.215.215.431.646.862.862a3.871,3.871,0,0,0,2.37.646,21.709,21.709,0,0,0,.646,5.387c0-.215,0-.215-.215-.431a3.641,3.641,0,0,1-.431-1.077,9.372,9.372,0,0,0-1.293-1.508,4.947,4.947,0,0,0-3.017-.862,7.384,7.384,0,0,0,1.077,2.586,2.975,2.975,0,0,0,.646.862c.215.215.646.646.862.646a2.992,2.992,0,0,0,2.37.431c0,.431.215.862.215,1.293.215,1.293.646,2.586.862,3.879-.215-.431-.646-.862-.862-1.293a3.868,3.868,0,0,0-4.31-1.724A12.192,12.192,0,0,0,19.67,87.8a4.134,4.134,0,0,0,4.094,1.724,48.491,48.491,0,0,0,1.724,5.172c-.431-.431-.646-.862-1.077-1.293A3.3,3.3,0,0,0,22.9,92.323a4.849,4.849,0,0,0-3.017-.215l.431.862a6.548,6.548,0,0,0,1.077,1.508c1.077,1.077,2.586,1.939,4.31,1.077a51.783,51.783,0,0,0,2.37,4.956A5.713,5.713,0,0,1,27,99.218a7.559,7.559,0,0,0-1.724-1.077,3.644,3.644,0,0,0-3.017.215,2.667,2.667,0,0,1,.431.646,4.038,4.038,0,0,0,1.293,1.508A3.151,3.151,0,0,0,28.29,101.8Z" transform="translate(5.081 12.213)" fill="#0074db"/>
      <path id="Path_14" data-name="Path 14" d="M30.9,28.839a3.063,3.063,0,0,0,1.293-.431c.215,0,.215-.215.431-.215h.215A3.351,3.351,0,0,0,31.117,26.9H29.824c-.215,0-.431.215-.862.215-.215.215-.646.431-.862.646C28.746,29.055,29.824,29.055,30.9,28.839Z" transform="translate(17.554 15.36)" fill="#0074db"/>
      <path id="Path_15" data-name="Path 15" d="M75.062,41.308c-.646.862-.862,2.37-.862,4.525A4.12,4.12,0,0,0,77.432,42.6a6.648,6.648,0,0,0,.215-1.939V39.8A2.814,2.814,0,0,0,75.062,41.308Z" transform="translate(70.793 30.257)" fill="#0074db"/>
      <path id="Path_16" data-name="Path 16" d="M73.5,40.363a14.3,14.3,0,0,0,.215,2.8,4.089,4.089,0,0,0,2.8-3.663,6.79,6.79,0,0,0-.215-2.8,5.013,5.013,0,0,0-2.37,1.939A2.784,2.784,0,0,0,73.5,40.363Z" transform="translate(69.985 26.677)" fill="#0074db"/>
      <path id="Path_17" data-name="Path 17" d="M76.439,47.293A3.865,3.865,0,0,0,75.362,48.8c-.215.431-.215.646-.431,1.077a13.732,13.732,0,0,0-.431,1.508,4.6,4.6,0,0,0,2.586-.646c.215-.215.646-.431.862-.862a4.711,4.711,0,0,0,.646-1.077l.646-1.939V46A8.167,8.167,0,0,0,76.439,47.293Z" transform="translate(71.14 37.418)" fill="#0074db"/>
      <path id="Path_18" data-name="Path 18" d="M74.6,48.718a3.087,3.087,0,0,0,2.37-1.077A10.118,10.118,0,0,0,78.263,45.7a8,8,0,0,0,.431-1.939V42.9C76.539,43.115,74.815,44.408,74.6,48.718Z" transform="translate(71.255 33.837)" fill="#0074db"/>
      <path id="Path_19" data-name="Path 19" d="M76.186,53.146a3.659,3.659,0,0,0-1.293,1.293A11.684,11.684,0,0,0,73.6,56.81a3.671,3.671,0,0,0,4.31-1.724A12.191,12.191,0,0,0,79.2,52.5,5.479,5.479,0,0,0,76.186,53.146Z" transform="translate(70.1 44.924)" fill="#0074db"/>
      <path id="Path_20" data-name="Path 20" d="M76.455,50.183a9.373,9.373,0,0,0-1.293,1.508c-.215.431-.431.646-.431,1.077a3.115,3.115,0,0,0-.431,1.508,3.341,3.341,0,0,0,2.586-.431,2.975,2.975,0,0,0,.862-.646c.215-.215.431-.646.646-.862a7.384,7.384,0,0,0,1.077-2.586A2.608,2.608,0,0,0,76.455,50.183Z" transform="translate(70.909 41.423)" fill="#0074db"/>
      <path id="Path_21" data-name="Path 21" d="M74.748,58.769a5.406,5.406,0,0,0-1.724,1.077A6.246,6.246,0,0,0,71.3,62a3.541,3.541,0,0,0,4.525-.646,4.038,4.038,0,0,0,1.293-1.508,2.667,2.667,0,0,1,.431-.646A3.075,3.075,0,0,0,74.748,58.769Z" transform="translate(67.444 52.015)" fill="#0074db"/>
      <path id="Path_22" data-name="Path 22" d="M75.617,55.944a6.548,6.548,0,0,0-1.508,1.077A18.639,18.639,0,0,0,72.6,59.177,3.838,3.838,0,0,0,77.125,58.1c.431-.646.862-1.077,1.077-1.508l.431-.862A7.407,7.407,0,0,0,75.617,55.944Z" transform="translate(68.945 48.591)" fill="#0074db"/>
      <path id="Path_23" data-name="Path 23" d="M74.768,38.656c.215-.431.215-.646.431-1.077V36.5c0-.862-.215-1.508-.215-1.939a2.147,2.147,0,0,1-.215-.862c-1.939.862-3.017,2.586-1.939,6.68A3.876,3.876,0,0,0,74.768,38.656Z" transform="translate(68.717 23.213)" fill="#0074db"/>
      <path id="Path_24" data-name="Path 24" d="M73.414,35.756a7.331,7.331,0,0,0,.215-2.155,6.292,6.292,0,0,0-.431-1.939l-.431-.862a3.834,3.834,0,0,0-1.724,2.37,8.632,8.632,0,0,0,.646,4.31A4.411,4.411,0,0,0,73.414,35.756Z" transform="translate(67.054 19.864)" fill="#0074db"/>
      <path id="Path_25" data-name="Path 25" d="M70.393,34.865a3.474,3.474,0,0,0,1.293-4.094,13.461,13.461,0,0,0-1.077-2.37A4.529,4.529,0,0,0,69.1,30.77a5.355,5.355,0,0,0,.215,1.724A21,21,0,0,0,70.393,34.865Z" transform="translate(64.903 17.092)" fill="#0074db"/>
      <path id="Path_26" data-name="Path 26" d="M68.708,32.434a2.979,2.979,0,0,0,1.077-1.939V29.417c0-.431-.215-.646-.215-.862a3.473,3.473,0,0,0-.862-1.508,2.666,2.666,0,0,0-.431-.646A3.087,3.087,0,0,0,67.2,28.77a2.051,2.051,0,0,0,.431,1.508A19.929,19.929,0,0,0,68.708,32.434Z" transform="translate(62.709 14.782)" fill="#0074db"/>
      <path id="Path_27" data-name="Path 27" d="M66.162,29.325c.215.215.431.646.646.862a2.966,2.966,0,0,0,.431-3.448c-.215-.431-.646-.862-.862-1.293-.215-.215-.215-.215-.215-.431l-.215-.215a3.64,3.64,0,0,0-.646,2.155,3.063,3.063,0,0,0,.431,1.293A1.646,1.646,0,0,0,66.162,29.325Z" transform="translate(60.515 12.934)" fill="#0074db"/>
      <path id="Path_28" data-name="Path 28" d="M62.925,26.9a3.138,3.138,0,0,0,1.939,1.293,7.747,7.747,0,0,0,2.37.431c.862.646,1.508,1.293,2.37,1.939-.215,0-.431-.215-.646-.215a1.374,1.374,0,0,0-1.293,0,2.676,2.676,0,0,0-1.724,1.293h.215a.752.752,0,0,0,.431.215c.215.215.646.215,1.293.431a2.857,2.857,0,0,0,3.017-.862l3.232,3.232c-.431-.215-.646-.431-1.077-.431a4.207,4.207,0,0,0-1.508-.215,2.858,2.858,0,0,0-2.155,1.293l.431.431,1.293.646c.215,0,.646.215.862.215h.862a2.632,2.632,0,0,0,1.939-.862l3.232,3.879a3.783,3.783,0,0,0-1.077-.862,5.071,5.071,0,0,0-1.724-.431A3.976,3.976,0,0,0,72.622,39.4a4.242,4.242,0,0,0,1.939,1.293,3.637,3.637,0,0,0,3.879-.215,17.975,17.975,0,0,1,1.724,2.586,12.029,12.029,0,0,0,1.077,1.724c-1.077-1.077-1.939-1.724-2.8-1.724a3.393,3.393,0,0,0-2.8.862l.431.431c.215.215.862.646,1.293,1.077a3.476,3.476,0,0,0,1.939.646,5.052,5.052,0,0,0,2.37-.431l2.586,5.172c-1.939-2.8-4.094-2.586-5.6-1.724a2.667,2.667,0,0,1,.431.646,3.659,3.659,0,0,0,1.293,1.293c.215.215.646.431.862.646s.646.215,1.077.431a3.121,3.121,0,0,0,2.37-.215,48.492,48.492,0,0,1,1.724,5.172,4.726,4.726,0,0,0-2.37-2.37,3.707,3.707,0,0,0-3.017.215,5.3,5.3,0,0,0,1.508,1.939,4.377,4.377,0,0,0,4.094,1.293l1.293,5.172a4.479,4.479,0,0,0-2.155-2.586,4.735,4.735,0,0,0-3.017-.215,1.668,1.668,0,0,0,.215.646,9.369,9.369,0,0,1,.862,1.508A4.364,4.364,0,0,0,87.921,64.4c.215,1.724.431,3.663.646,5.387-.862-3.232-3.017-3.663-4.741-3.448a1.668,1.668,0,0,0,.215.646A5.4,5.4,0,0,0,84.9,68.49,5.035,5.035,0,0,0,86.413,70a3.871,3.871,0,0,0,2.37.646,44.893,44.893,0,0,1,0,5.387V75.6a1.646,1.646,0,0,0-.431-1.077,3.865,3.865,0,0,0-1.077-1.508,4.74,4.74,0,0,0-2.8-.862v.215c0,.215,0,.215.215.431a3.439,3.439,0,0,0,.646,1.724c.215.215.431.646.646.862s.431.646.862.862A3.829,3.829,0,0,0,89,77.11a23.011,23.011,0,0,1-.646,5.387v-.431c0-.431-.215-.862-.215-1.293a4.331,4.331,0,0,0-.862-1.724,3.309,3.309,0,0,0-2.8-1.077,8.319,8.319,0,0,0,.431,2.37c.215.215.215.646.431.862s.431.646.646.862a5.052,5.052,0,0,0,2.155,1.077c0,.431-.215.862-.215,1.293-.215,1.293-.646,2.586-.862,4.094V86.807a14.846,14.846,0,0,0-.646-1.724,4,4,0,0,0-2.586-1.508,6,6,0,0,0,.215,2.586,3.887,3.887,0,0,0,2.8,3.232,48.488,48.488,0,0,1-1.724,5.172c0-.646.215-1.077.215-1.724a4.06,4.06,0,0,0-.431-1.724,4.519,4.519,0,0,0-2.37-1.724v2.37a4.316,4.316,0,0,0,2.586,3.663,51.782,51.782,0,0,1-2.37,4.956,4.207,4.207,0,0,0,.215-1.508,5.966,5.966,0,0,0-.215-1.939,3.785,3.785,0,0,0-2.155-1.939,1.668,1.668,0,0,1-.215.646c0,.431-.215,1.077-.215,1.724a4.332,4.332,0,0,0,2.155,3.879l-1.939,3.232.431.215a58.541,58.541,0,0,0,7.973-20.256,61.546,61.546,0,0,0,0-21.764,58.1,58.1,0,0,0-7.757-20.256A54.2,54.2,0,0,0,68.1,28.194a8.734,8.734,0,0,0-1.077-1.939c-.431-.646-1.077-.862-1.508-1.293-.215-.215-.646-.215-.862-.431-.215,0-.646-.215-.862-.215-.646,0-1.293-.215-1.724-.215C61.416,24.746,61.847,25.824,62.925,26.9Z" transform="translate(56.425 12.126)" fill="#0074db"/>
      <path id="Path_29" data-name="Path 29" d="M60.2,74.479l2.37,4.31L66.449,70.6A71.322,71.322,0,0,1,60.2,74.479Z" transform="translate(54.625 65.827)" fill="#0074db"/>
      <path id="Path_30" data-name="Path 30" d="M34.579,78.9l2.37-4.31C34.794,73.3,32.855,72.008,30.7,70.5Z" transform="translate(20.557 65.712)" fill="#0074db"/>
      <path id="Path_31" data-name="Path 31" d="M55.924,72.717,54.2,69.7h0l.431,3.448Z" transform="translate(47.696 64.788)" fill="#0074db"/>
      <path id="Path_32" data-name="Path 32" d="M52.539,70.633c0-.215-.215-.431-.431-.646a.4.4,0,0,0-.646,0c-.215,0-.431.215-.646.431a.792.792,0,0,0-.215.646l.862,4.741c0,.215.215.431.431.646a.4.4,0,0,0,.646,0c.215,0,.431-.215.646-.431a.792.792,0,0,0,.215-.646Z" transform="translate(43.538 64.932)" fill="#0074db"/>
      <path id="Path_33" data-name="Path 33" d="M44.139,70a.792.792,0,0,0-.646.215c-.215.215-.215.431-.431.646L42.2,75.6c0,.215,0,.646.215.646a1.077,1.077,0,0,0,1.293,0c.215-.215.215-.431.431-.646L45,70.862c0-.215,0-.646-.215-.646A.792.792,0,0,0,44.139,70Z" transform="translate(33.837 65.134)" fill="#0074db"/>
      <path id="Path_34" data-name="Path 34" d="M86.165,13.6C45.869,13.6,12.9,46.354,12.9,86.65S45.869,159.7,86.165,159.7s73.265-32.754,73.265-73.05S126.461,13.6,86.165,13.6Zm0,144.807A71.757,71.757,0,1,1,157.922,86.65,71.732,71.732,0,0,1,86.165,158.407Z" transform="translate(0 0)" fill="#0074db"/>
      <path id="Path_35" data-name="Path 35" d="M35.272,61.131c-.215-.215-.215-.215-.431-.215a.752.752,0,0,1-.431-.215h-.646c-.215,0-.431.215-.646.431l-1.508,1.293L32.686,63.5l.646-.431-.431-.431.862-.862.431-.431c.215,0,.215,0,.431.215,0,.215.215.215.215.431s0,.215-.215.431l-2.37,2.155c-.215.215-.215.215-.431.215s-.215,0-.431-.215c0-.215-.215-.215-.215-.431s0-.215.215-.431l.215-.215-.646-.646-.215.215c-.215.215-.215.431-.431.646,0,.215-.215.431-.215.646v.431c0,.215.215.215.215.431.215.215.215.215.431.215a.752.752,0,0,1,.431.215h.646c.215,0,.431-.215.646-.431l2.37-2.155c.215-.215.215-.431.431-.646,0-.215.215-.431.215-.646v-.431A.211.211,0,0,0,35.272,61.131Z" transform="translate(19.864 54.394)" fill="#0074db"/>
      <path id="Path_36" data-name="Path 36" d="M32.994,58.8l-.862.431,1.077,1.293L28.9,63.756l.646.646L34.5,60.739Z" transform="translate(18.478 52.2)" fill="#0074db"/>
      <path id="Path_37" data-name="Path 37" d="M33.318,59.055l-1.293.431-.646-1.077,1.077-.862-.431-.646L27.5,61.21l.431.646L33.965,59.7Zm-4.094,1.724h0l1.724-1.508.431.646Z" transform="translate(16.861 50.006)" fill="#0074db"/>
      <path id="Path_38" data-name="Path 38" d="M29.632,58.117V57.039l.215-.215a.752.752,0,0,1,.431-.215c.215,0,.215,0,.431-.215h.431l.215.215v.431c0,.215-.215.215-.431.215l-.215.215.431.862.215-.215a.463.463,0,0,0,.431-.431C32,57.47,32,57.47,32,57.255v-.646a.792.792,0,0,0-.215-.646c-.215-.215-.215-.431-.431-.646a.667.667,0,0,0-.431-.215h-.646c-.215,0-.431.215-.646.215a.752.752,0,0,0-.431.215c-.215,0-.215.215-.431.215,0,.215-.215.215-.215.431v1.508l-.215.215a.211.211,0,0,0-.215.215h-.646l-.215-.215V57.47c0-.215.215-.215.431-.431h-.215l-.431.215c-.215,0-.215.215-.431.215-.215.215-.215.215-.215.431v.646a.792.792,0,0,0,.215.646.463.463,0,0,0,.431.431.667.667,0,0,0,.431.215h.646a.792.792,0,0,0,.646-.215,2.975,2.975,0,0,0,.862-.646S29.632,58.548,29.632,58.117Z" transform="translate(15.591 47.927)" fill="#0074db"/>
      <path id="Path_39" data-name="Path 39" d="M28.4,56.517c.215-.215.215-.431.431-.862V54.577a.211.211,0,0,0,.215-.215.667.667,0,0,0,.431-.215h.646a.211.211,0,0,1,.215.215l.215.215v.431c0,.215-.215.215-.431.215H29.91l.215.862h.215a.752.752,0,0,0,.431-.215l.431-.431a.752.752,0,0,1,.215-.431v-.646c0-.215-.215-.431-.431-.646s-.215-.215-.431-.215H29.91a.792.792,0,0,0-.646.215c-.215,0-.431.215-.646.215s-.215.215-.431.215-.215.215-.215.431v1.508a17213.92,17213.92,0,0,1-.431.431h-.646l-.215-.215V55.87c.215-.215.215-.215.431-.215h.215l-.215-.862-.431.215c-.215,0-.215.215-.431.215l-.431.431a.752.752,0,0,1-.215.431v.646c0,.215.215.431.431.646s.215.215.431.215h.646a.792.792,0,0,0,.646-.215C27.755,56.948,28.186,56.732,28.4,56.517Z" transform="translate(14.667 46.079)" fill="#0074db"/>
      <path id="Path_40" data-name="Path 40" d="M30.434,52.37l.431-.431c0-.215.215-.215.215-.431v-.431c0-.215,0-.431-.215-.431,0-.215-.215-.215-.431-.431-.215,0-.215-.215-.431-.215H28.925l.215.862h.646l.215.215v.215c0,.215,0,.431-.215.431s-.215.215-.431.215l-3.232.431h-.431c-.215,0-.215-.215-.215-.431s0-.215.215-.431.215-.215.431-.215h.215l-.215-.862h-.431a.792.792,0,0,0-.646.215c-.215,0-.215.215-.431.431s-.215.215-.215.431v.646c0,.215,0,.431.215.431,0,.215.215.215.431.431.215,0,.215.215.431.215h.646l3.448-.431C30,52.586,30.218,52.586,30.434,52.37Z" transform="translate(13.281 42.037)" fill="#0074db"/>
      <path id="Path_41" data-name="Path 41" d="M25.908,50.7l3.232-.215a.792.792,0,0,0,.646-.215.463.463,0,0,0,.431-.431c.215-.215.215-.215.215-.431v-.431c0-.215,0-.431-.215-.431,0-.215-.215-.215-.215-.431-.215-.215-.215-.215-.431-.215H25.693a.792.792,0,0,0-.646.215.463.463,0,0,0-.431.431c-.215.215-.215.215-.215.431v.431c0,.215,0,.431.215.431,0,.215.215.215.215.431.215.215.215.215.431.215A.792.792,0,0,0,25.908,50.7Zm-.646-1.939c0-.215.215-.215.431-.215l3.232-.215c.215,0,.431,0,.431.215s.215.215.215.431,0,.215-.215.431c0,.215-.215.215-.431.215l-3.232.215c-.215,0-.431,0-.431-.215s-.215-.215-.215-.431C25.262,49.193,25.262,48.977,25.262,48.762Z" transform="translate(13.281 39.612)" fill="#0074db"/>
      <path id="Path_42" data-name="Path 42" d="M30.434,48.086l-1.293-.431V46.577l1.293-.215V45.5L24.4,46.577v.646l6.034,1.724Zm-2.155-.431-2.155-.646h0l2.155-.215Z" transform="translate(13.281 36.84)" fill="#0074db"/>
      <path id="Path_43" data-name="Path 43" d="M25.577,45.439l5.172.862.215-.862-5.387-.862.215-.862-.862-.215L24.5,46.3l.862.215Z" transform="translate(13.396 34.53)" fill="#0074db"/>
      <path id="Path_44" data-name="Path 44" d="M31.149,43.493,25.115,42.2l-.215.862,6.034,1.293Z" transform="translate(13.858 33.029)" fill="#0074db"/>
      <path id="Path_45" data-name="Path 45" d="M31.334,43.679l-3.448-1.293h3.879l.215-.646L26.162,39.8l-.215.646,3.448,1.293H25.515L25.3,42.6l5.818,1.939Z" transform="translate(14.32 30.257)" fill="#0074db"/>
      <path id="Path_46" data-name="Path 46" d="M26.731,40.186a1.657,1.657,0,0,0,.646.431l3.017,1.293c.215,0,.431.215.646.215h.646c.215,0,.215-.215.431-.215.215-.215.215-.215.215-.431s.215-.215.215-.431v-.431a.752.752,0,0,0-.215-.431,1.657,1.657,0,0,0-.646-.431l-1.939-1.293L29.1,39.755l.646.431.215-.646,1.077.431c.215,0,.215.215.431.431v.431a.211.211,0,0,1-.215.215h-.431l-3.017-1.293c-.215,0-.215-.215-.431-.431v-.431a.211.211,0,0,1,.215-.215h.431l.215.215.431-.862-.215-.215c-.215,0-.431-.215-.646-.215h-.646c-.215,0-.215.215-.431.215-.215.215-.215.215-.215.431s-.215.215-.215.431v.431C26.515,39.755,26.515,39.97,26.731,40.186Z" transform="translate(15.475 27.717)" fill="#0074db"/>
      <path id="Path_47" data-name="Path 47" d="M67.07,41.563a.752.752,0,0,0,.431-.215c.215,0,.215-.215.431-.215,0-.215.215-.215.215-.431V39.193l.215-.215a.211.211,0,0,0,.215-.215h.646l.215.215v.431c0,.215-.215.215-.431.431h-.215l.431.862.431-.215c.215,0,.215-.215.431-.215.215-.215.215-.215.215-.431a.792.792,0,0,1,.215-.646.792.792,0,0,0-.215-.646.463.463,0,0,0-.431-.431.667.667,0,0,0-.431-.215h-.646a.792.792,0,0,0-.646.215,2.975,2.975,0,0,0-.862.646c-.215.215-.215.431-.215.862V40.7l-.215.215a.752.752,0,0,1-.431.215c-.215,0-.215,0-.431.215h-.431l-.215-.215V40.7c0-.215.215-.215.431-.215l.215-.215-.431-.862-.215.215a.463.463,0,0,0-.431.431c-.215.215-.215.215-.215.431v.646a.792.792,0,0,0,.215.646c.215.215.215.431.431.646a.667.667,0,0,0,.431.215h.646A1.486,1.486,0,0,1,67.07,41.563Z" transform="translate(59.822 28.063)" fill="#0074db"/>
      <path id="Path_48" data-name="Path 48" d="M70.9,42.317l.862-.215L70.9,39.3l-.862.431.431.862L65.3,42.317l.431.862,4.956-1.724Z" transform="translate(60.515 29.68)" fill="#0074db"/>
      <path id="Path_49" data-name="Path 49" d="M65.931,42.477l1.293-.215.215,1.077-1.293.646.215.862,5.6-2.8-.215-.646-6.249.431Zm4.525-.215h0L68.3,43.339l-.215-.862Z" transform="translate(60.746 32.105)" fill="#0074db"/>
      <path id="Path_50" data-name="Path 50" d="M66.315,44.939l2.586-.431v.431l-2.37,1.293.215.862L69.332,45.8c.215.215.431.431.646.431h.862c1.293-.215,1.724-.862,1.508-1.724L72.134,43,66.1,44.077Zm5.172-1.077v.862a.211.211,0,0,1-.215.215l-.215.215H69.979a.211.211,0,0,1-.215-.215.667.667,0,0,0-.215-.431v-.431Z" transform="translate(61.439 33.953)" fill="#0074db"/>
      <path id="Path_51" data-name="Path 51" d="M71.787,45.877l-5.387.431.215.862,5.172-.431L72,47.6h.862l-.431-2.8h-.646Z" transform="translate(61.785 36.032)" fill="#0074db"/>
      <path id="Path_52" data-name="Path 52" d="M66.5,47.777l6.249-.215V46.7l-6.249.215Z" transform="translate(61.901 38.226)" fill="#0074db"/>
      <path id="Path_53" data-name="Path 53" d="M66.5,48.662l3.663.215h0L66.5,49.955v.862l6.034.215V50.17l-3.663-.215h0l3.879-1.077v-.646L66.5,47.8Z" transform="translate(61.901 39.496)" fill="#0074db"/>
      <path id="Path_54" data-name="Path 54" d="M72.334,50.877c0-.215-.215-.215-.431-.431a.792.792,0,0,0-.646-.215L68.024,49.8h-.646a.752.752,0,0,0-.431.215l-.431.431c0,.215-.215.215-.215.431v.431a.752.752,0,0,0,.215.431c0,.215.215.215.431.431a.792.792,0,0,0,.646.215l1.939.215.215-1.508-.862-.215v.646l-1.077-.215a.752.752,0,0,1-.431-.215c0-.215-.215-.215,0-.431,0-.215,0-.215.215-.431.215,0,.215-.215.431,0l3.232.431a.752.752,0,0,1,.431.215c0,.215.215.215,0,.431,0,.215,0,.215-.215.431-.215,0-.215.215-.431,0h-.215l-.215.862h.862a.752.752,0,0,0,.431-.215l.431-.431c0-.215.215-.215.215-.431v-.431C72.334,51.308,72.334,51.093,72.334,50.877Z" transform="translate(61.67 41.806)" fill="#0074db"/>
      <path id="Path_55" data-name="Path 55" d="M65.7,53.462l6.034,1.508.215-.646L65.915,52.6Z" transform="translate(60.977 45.04)" fill="#0074db"/>
      <path id="Path_56" data-name="Path 56" d="M65.746,54.246l3.663,1.293H65.315l-.215.646,5.818,2.155.215-.646L67.686,56.4h3.879L72,55.539,66.177,53.6Z" transform="translate(60.284 46.195)" fill="#0074db"/>
      <path id="Path_57" data-name="Path 57" d="M69.818,59l-.431-.431-.431-.215L68.525,59l.431.215a.211.211,0,0,1,.215.215v.215a.211.211,0,0,1-.215.215H68.31c-.215,0-.215-.215-.431-.215l-.215-.215-1.939-2.8-.646-.431L64,58.355l.862.431.646-1.293,1.724,2.37a.211.211,0,0,0,.215.215l.215.215.215.215a.752.752,0,0,0,.431.215c.215,0,.431.215.646.215H69.6c.215,0,.431,0,.431-.215.215,0,.215-.215.431-.431,0-.215.215-.215.215-.431v-.431A2.358,2.358,0,0,1,69.818,59Z" transform="translate(59.014 49.197)" fill="#0074db"/>
      <path id="Path_58" data-name="Path 58" d="M68.687,60.486c0-.215-.215-.215-.431-.431l-3.017-1.939a.667.667,0,0,0-.431-.215h-.431c-.215,0-.215,0-.431.215-.215,0-.215.215-.431.431,0,.215-.215.215-.215.431v.431c0,.215,0,.215.215.431,0,.215.215.215.431.431l3.017,1.939c0,.215.215.215.431.215h.431c.215,0,.215,0,.431-.215.215,0,.215-.215.431-.431,0-.215.215-.215.215-.431v-.431C68.687,60.917,68.687,60.7,68.687,60.486Zm-.862.862-.215.215h-.431l-3.017-1.939-.215-.215v-.215l.215-.215h.431l3.017,1.939.215.215C68.041,61.132,68.041,61.348,67.825,61.348Z" transform="translate(58.205 51.16)" fill="#0074db"/>
      <path id="Path_59" data-name="Path 59" d="M67.041,61.77l-2.8-2.155a.667.667,0,0,0-.431-.215h-.431c-.215,0-.215,0-.431.215-.215,0-.215.215-.431.215,0,.215-.215.215-.215.431v.431c0,.215,0,.215.215.431,0,.215.215.215.431.431l2.8,2.155a.667.667,0,0,0,.431.215h.431c.215,0,.215,0,.431-.215.215,0,.215-.215.431-.215,0-.215.215-.215.215-.431v-.431c0-.215,0-.215-.215-.431A.463.463,0,0,0,67.041,61.77Zm-.431,1.293-.215.215h-.215l-2.8-2.155-.215-.215v-.215l.215-.215h.215l2.8,2.155.215.215C66.825,62.848,66.825,62.848,66.61,63.063Z" transform="translate(57.05 52.893)" fill="#0074db"/>
      <path id="Path_60" data-name="Path 60" d="M65.825,63.286l-2.586-2.37c-.215-.215-.215-.215-.431-.215h-.431c-.215,0-.215,0-.431.215-.215,0-.215.215-.431.215-.215.215-.215.215-.215.431v.431c0,.215,0,.431.215.431,0,.215.215.215.431.431l2.586,2.37c.215.215.215.215.431.215h.431c.215,0,.215,0,.431-.215.215,0,.215-.215.431-.215.215-.215.215-.215.215-.431v-.431c0-.215,0-.431-.215-.431A.463.463,0,0,1,65.825,63.286Zm-.646,1.293-.215.215c-.215,0-.215,0-.215-.215l-2.586-2.37-.215-.215c0-.215,0-.215.215-.215l.215-.215c.215,0,.215,0,.215.215l2.586,2.37.215.215A.211.211,0,0,1,65.179,64.579Z" transform="translate(55.895 54.394)" fill="#0074db"/>
      <path id="Path_61" data-name="Path 61" d="M42.817,70.392A10.61,10.61,0,0,0,46.48,69.1a4.2,4.2,0,0,0,1.077-2.8,3.021,3.021,0,0,0-1.724-2.37l-.862-.646c-.862-.646-1.077-.862-1.293-.862a.792.792,0,0,1-.215-.646A1.185,1.185,0,0,1,44.11,60.7a1.863,1.863,0,0,1,1.293-.646,2.634,2.634,0,0,1,1.939.646h.431c.215-.431.431-.646.431-.862s-.215-.431-.646-.646a1.822,1.822,0,0,0-1.508,0,5.476,5.476,0,0,0-2.8,1.077,2.992,2.992,0,0,0-1.077,2.155,2.707,2.707,0,0,0,1.508,2.155l.862.646c1.077.646,1.508,1.293,1.508,1.724a1.863,1.863,0,0,1-.646,1.293,2.447,2.447,0,0,1-1.724.646,2.322,2.322,0,0,1-1.724-.431,1.678,1.678,0,0,1-.646-1.508v-.215h-.215A3.426,3.426,0,0,0,39.8,68.668a1.182,1.182,0,0,0,.862,1.293,2.733,2.733,0,0,0,1.293.215C42.17,70.392,42.386,70.392,42.817,70.392Z" transform="translate(31.066 52.46)" fill="#0074db"/>
      <path id="Path_62" data-name="Path 62" d="M68.946,63.468a1.356,1.356,0,0,1-1.293,0c-.431-.431.431-1.293.862-1.939.431-.431.646-.646.431-.862l-.215-.215a12.14,12.14,0,0,0-2.8,0,1.609,1.609,0,0,0-.646.646h0a9.705,9.705,0,0,1-1.939,2.155A4.4,4.4,0,0,1,61.4,64.33h-.646a.792.792,0,0,1-.215-.646,6.453,6.453,0,0,0,2.155-.862,1.558,1.558,0,0,0,.862-1.293c0-.215-.215-.646-.431-.646a1.615,1.615,0,0,0-1.077-.215,2.263,2.263,0,0,0-1.939,1.077,2.632,2.632,0,0,0-.862,1.939,3.062,3.062,0,0,0,.431,1.293c.215.215.646.215.862.431h.431a3.725,3.725,0,0,0,2.586-1.293,6.335,6.335,0,0,0,2.155-2.586.86.86,0,0,1,.862-.431.944.944,0,0,1,.646.215l-.215.215a8.135,8.135,0,0,0-1.077,1.724c-.215.431,0,.646.215.862.431.431,1.724.215,2.586-.215.431-.215,1.293,0,1.293.215.215.215-.215.431-.646.646-1.077.431-4.31.862-8.835,1.508-.862,0-1.508.215-2.155.215-1.508.215-2.586.215-3.879.431l.431-1.293H55.8a2.992,2.992,0,0,0,2.155-1.077,2.632,2.632,0,0,0,.862-1.939,1.646,1.646,0,0,0-.431-1.077,3.063,3.063,0,0,0-1.293-.431,1.862,1.862,0,0,0-1.293.646l.215-1.077v-.215H55.8a3.114,3.114,0,0,1-1.508.431H53.216V61.1c0,.215.215.431.431.646a.792.792,0,0,0,.646.215h.431l-.215,1.293c-1.077,1.724-1.724,2.155-2.155,2.155h-.215a.944.944,0,0,1-.215-.646,1.943,1.943,0,0,1,.215-1.077V62.606c0-.215,0-.215-.215-.215h-.431a.792.792,0,0,0-.646.215h0c0,.431-.215.862-.862,1.939-.862,1.293-1.508,1.724-1.724,1.724h-.215v-.431a2.343,2.343,0,0,1,.215-1.077V64.33a2.884,2.884,0,0,0,.215-1.077c0-.215,0-.215-.215-.215H47.182v.215a.667.667,0,0,1-.215.431c-.215,1.077-.431,1.939-.431,2.155a1.12,1.12,0,0,0,.431.862.792.792,0,0,0,.646.215h.215c.431,0,.862-.431,1.293-.862s.646-.862,1.077-1.293h0a1.822,1.822,0,0,0,.431,1.293.792.792,0,0,0,.646.215,2.606,2.606,0,0,0,1.939-1.293l-.646,2.37a32.39,32.39,0,0,0-4.741,1.293c-5.818,1.508-6.465,2.37-7.327,3.017l-.215.215a.4.4,0,0,0,0,.646c.431.646,2.37,1.293,3.663,1.508H44.6c.431,0,.862-.431,1.508-.862A15.675,15.675,0,0,1,52.354,69.5l-.431,2.155c0,.431-.215.646-.215.862s0,.215.215.431h.431A.792.792,0,0,0,53,72.734h0V71.441l.646-2.37a24.159,24.159,0,0,1,4.525-.862c3.448-.431,11.205-1.724,12.067-2.37a1.217,1.217,0,0,0,.431-1.724,1.676,1.676,0,0,0-1.724-.431C69.377,63.253,69.162,63.253,68.946,63.468ZM61.189,61.96a1.185,1.185,0,0,1,1.077-.646H62.7v.215a1.155,1.155,0,0,1-.646.862l-1.293.646A.787.787,0,0,1,61.189,61.96ZM55.8,63.037a1.863,1.863,0,0,1,1.293-.646.792.792,0,0,1,.646.215c.215.215.215.431.215.862a3.063,3.063,0,0,1-.431,1.293,1.536,1.536,0,0,1-1.293.646c-.431,0-.646,0-.862-.215Z" transform="translate(31.441 53.996)" fill="#0074db"/>
      <path id="Path_63" data-name="Path 63" d="M122.294,107.189a51.052,51.052,0,0,0,5.387-16.161,54.547,54.547,0,0,0,.646-8.188h0V80.684h0a50.971,50.971,0,0,0-26.72-42.666l7.111-12.929a66.127,66.127,0,0,0-63.353-.215L52.476,37.8A51.18,51.18,0,0,0,25.541,80.468h0v2.155h0a50.428,50.428,0,0,0,.646,8.188,51.052,51.052,0,0,0,5.387,16.161l-.646,10.99L20.8,117.532l.646,1.077A65.573,65.573,0,0,0,44.5,140.374h0L39.547,129.6h0v-.215L44.5,122.7a2.975,2.975,0,0,0,.862.646l-4.525,6.034a58.768,58.768,0,0,0,72.188-.215l-4.525-6.034c.215-.215.646-.431.862-.646l4.956,6.465v.215h0v.215l-4.956,10.774a65.572,65.572,0,0,0,23.057-21.764l.646-1.077-10.128.431ZM94.5,25.95l2.8,1.077,1.939-2.37-.215,3.017,2.8,1.077-2.8.862-.215,2.8-1.724-2.37-2.8.862,1.939-2.37Zm-7.757-1.724,1.508-2.586.431,3.017,3.017.431-2.586,1.293L89.54,29.4l-2.155-2.155L84.8,28.536l1.508-2.586L84.153,23.8ZM75.964,23.58l.862-2.8.862,2.8h3.017L78.335,25.3l.862,2.8-2.37-1.724-2.37,1.724.862-2.8L73.163,23.58ZM65.406,24.658l.431-3.017,1.508,2.586,3.017-.431L68.207,25.95l1.508,2.586L67.13,27.243,64.975,29.4l.431-3.017L62.82,25.088Zm-13.36,4.094,2.8-1.077-.215-3.017,1.939,2.37,2.8-1.077-1.508,2.586,1.939,2.37-3.017-.862L55.062,32.63l-.215-3.017Zm-4.094,18.1,4.31-2.155A2.207,2.207,0,0,0,53.338,43.4l1.508-3.448a6.935,6.935,0,0,1,7.327-4.31l5.172.431a1.615,1.615,0,0,0,1.077-.215l5.172-3.232a.211.211,0,0,0,.215-.215h0a4.71,4.71,0,0,0,1.077-.646h3.879c.431.215.862.215,1.077.646h0a.211.211,0,0,1,.215.215l5.172,3.232a2.343,2.343,0,0,0,1.077.215l5.172-.431a7.583,7.583,0,0,1,7.327,4.31l1.508,3.448a2.207,2.207,0,0,0,1.077,1.293l4.31,2.155a7.227,7.227,0,0,1,3.663,7.758l-1.077,4.956c.431.646.862,1.077,1.293,1.724h-.215a37.931,37.931,0,0,1,5.387,12.5h-3.017c0,.215-.215.215-.215.431l-.215.431h3.879a12.611,12.611,0,0,1,.431,2.8H109.58l-.646.862h7.111a12.287,12.287,0,0,1,.215,2.8h-8.188v.215l.215.646h7.973v2.8h-7.327l.215.862h7.111c0,.862-.215,1.939-.215,2.8H109.58a1.3,1.3,0,0,1-.215.862h6.68c-.215.862-.431,1.939-.646,2.8h-7.327c-.215.215-.431.646-.862.862h7.973c-.215.862-.646,1.939-.862,2.8h-12.5a1.682,1.682,0,0,0-.862.862h13.145c-.431.862-.862,1.939-1.293,2.8H99.883c0,.215-.215.646-.215.862h12.714c-.431,1.077-1.077,1.939-1.508,2.8H97.3a5.4,5.4,0,0,1-1.508.862h14.438a31.521,31.521,0,0,1-1.939,2.8H95.574l-2.155-3.879a5.936,5.936,0,0,0,5.172-4.525l.215-1.293c0-.215,0-.431.215-.431a3.917,3.917,0,0,1,2.155-2.37l3.879-1.939a5.663,5.663,0,0,0,3.017-6.465l-1.508-4.094a4.247,4.247,0,0,1,.646-3.232l3.448-5.172a5.519,5.519,0,0,0,0-6.249l-3.017-4.31a3.74,3.74,0,0,1-.646-3.017l1.077-5.387a5.646,5.646,0,0,0-2.8-6.034l-4.31-2.155a4.228,4.228,0,0,1-1.939-1.939l-1.508-3.448a5.493,5.493,0,0,0-5.818-3.448l-5.172.431a5.966,5.966,0,0,1-1.939-.215l-5.172-3.448a4.983,4.983,0,0,0-5.6,0l-5.172,3.448A3.042,3.042,0,0,1,66.7,37.8l-5.172-.431a5.825,5.825,0,0,0-5.818,3.448L54.2,44.267a4.228,4.228,0,0,1-1.939,1.939l-4.31,2.155a5.359,5.359,0,0,0-2.8,6.034l1.077,5.387a3.74,3.74,0,0,1-.646,3.017l-3.017,4.31a5.519,5.519,0,0,0,0,6.249l3.448,5.172a4.247,4.247,0,0,1,.646,3.232L45.581,86.5A5.786,5.786,0,0,0,48.6,92.967l3.879,1.939a3.917,3.917,0,0,1,2.155,2.37c0,.215,0,.431.215.431L55.062,99a5.754,5.754,0,0,0,5.387,4.525L58.295,107.4H45.581c-.646-.862-1.293-1.939-1.939-2.8H58.079a3.473,3.473,0,0,1-1.508-.862H43.211a17.809,17.809,0,0,1-1.508-2.8H54.416a1.3,1.3,0,0,1-.215-.862H41.487c-.431-.862-.862-1.939-1.293-2.8H53.338c-.215-.431-.646-.646-.862-.862h-12.5a13.938,13.938,0,0,1-.862-2.8h7.973c-.215-.215-.646-.431-.862-.862H38.9a30.705,30.705,0,0,1-.646-3.448h6.68c0-.215-.215-.646-.215-.862H38.254a12.287,12.287,0,0,1-.215-2.8h6.9l.215-.862H37.823v-2.8H45.8l.215-.646v-.215H37.823c0-.862.215-1.939.215-2.8h6.9l-.646-.862H38.039c.215-.862.215-1.939.431-2.8h3.879l-.215-.431c0-.215-.215-.215-.215-.431H38.9a43.051,43.051,0,0,1,5.387-12.5h-.215c.431-.646.862-1.077,1.293-1.724L44.288,54.61A6.954,6.954,0,0,1,47.951,46.853Zm51.932,68.309L97.944,111.5h6.034c-1.293,1.293-2.586,2.37-4.094,3.663Zm-2.37-4.525L96,107.835h11.421a33.141,33.141,0,0,1-2.586,2.8ZM83.291,89.95a24.057,24.057,0,0,0,3.448-2.155,2.961,2.961,0,0,0,.862-2.586c1.724.862,2.37,2.586,2.8,4.956.646,4.094-.862,8.4-6.034,11.852l-.431.215A12.579,12.579,0,0,0,83.291,89.95Zm-5.387.431c-.215,0-.646.215-.862.215a1.3,1.3,0,0,1-.862-.215c-1.724-.646-6.034-2.155-7.758-3.879a1.428,1.428,0,0,1-.431-1.508l.646-1.724,7.542-1.724H77.9l7.542,1.724.646,1.724a1.332,1.332,0,0,1-.431,1.508C83.722,88.226,79.628,89.734,77.9,90.381Zm2.586,14.007-1.939,1.077a4.06,4.06,0,0,1-1.724.431,5.071,5.071,0,0,1-1.724-.431l-1.724-1.077c-5.172-5.818-1.508-11.421-.215-13.145a16.37,16.37,0,0,0,2.37.862,3.986,3.986,0,0,0,2.586,0,16.369,16.369,0,0,0,2.37-.862A9.492,9.492,0,0,1,80.49,104.387Zm-10.343-2.155-.431-.215c-5.172-3.232-6.68-7.758-6.034-11.852.431-2.586,1.077-4.094,2.8-4.956a2.961,2.961,0,0,0,.862,2.586,13.451,13.451,0,0,0,3.448,2.155A12.579,12.579,0,0,0,70.146,102.233Zm-13.36-5.387v-.431a22.051,22.051,0,0,1,1.939-16.592c1.508-2.8,4.525-4.31,6.68-4.956A10.9,10.9,0,0,1,67.345,80.9c-3.017,1.077-4.956,4.31-5.6,7.973a14.984,14.984,0,0,0,4.31,12.283l-4.741.431A3.85,3.85,0,0,1,57,98.354l-.215-1.293h0S56.786,96.845,56.786,96.845Zm-2.37-3.232c-.215-.215-.431-.215-.646-.431l-3.879-1.939a4.048,4.048,0,0,1-2.155-4.525l1.077-4.741h0c2.155-9.481,3.879-13.576,7.111-15.3a6.977,6.977,0,0,1,4.741-.646v.646a8.475,8.475,0,0,0,2.37,5.818,13.127,13.127,0,0,0-5.818,5.6A26.8,26.8,0,0,0,54.416,93.613ZM96.651,78.1a12.056,12.056,0,0,0-5.818-5.6c1.077-1.508,2.37-3.448,2.37-5.818v-.646a6.977,6.977,0,0,1,4.741.646c3.232,1.724,4.956,5.818,7.111,15.3h0l1.077,4.741a4.048,4.048,0,0,1-2.155,4.525L100.1,93.182c-.215.215-.431.215-.646.431C100.1,88.226,99.237,82.408,96.651,78.1ZM80.49,80.684h0l-2.37-.215H75.964l-2.37.215h0l-5.6-4.741-.646-1.293a7.9,7.9,0,0,0,4.094-1.724,5.83,5.83,0,0,0,5.6,3.879,5.572,5.572,0,0,0,5.6-3.879,7.9,7.9,0,0,0,4.094,1.724l-.646,1.293ZM85.446,78.1a13.043,13.043,0,0,0-.431,3.232l-2.586-.215ZM71.439,80.9l-2.586.215a16.633,16.633,0,0,0-.431-3.232Zm.646-16.592v2.37c0,4.31-2.155,6.465-6.249,6.465h0c-1.293-1.077-3.663-3.448-3.448-6.68,0-1.508.215-2.155.215-3.017a16.107,16.107,0,0,0,.431-4.31,4.519,4.519,0,0,0,2.37.862h.646a5.641,5.641,0,0,0,1.293,2.8A6.459,6.459,0,0,0,72.086,64.307Zm-4.31-4.094c3.448.431,4.31,1.508,4.31,2.8a3.975,3.975,0,0,1-3.663-.862A20.342,20.342,0,0,1,67.776,60.213ZM72.948,72.5a15.491,15.491,0,0,0,4.094.862,15.491,15.491,0,0,0,4.094-.862,4.287,4.287,0,0,1-8.188,0Zm8.835-5.818v-2.37A7.593,7.593,0,0,0,86.523,62.8,5.641,5.641,0,0,0,87.816,60h.646a3.241,3.241,0,0,0,2.37-.862c0,2.155.431,3.448.431,4.31a11.45,11.45,0,0,1,.215,3.017c0,3.232-2.155,5.387-3.448,6.68h0C83.937,73.142,81.783,70.987,81.783,66.677Zm0-3.663c0-1.293.862-2.586,4.31-2.8-.215.862-.431,1.724-.862,1.939C84.368,63.23,82.645,63.014,81.783,63.014Zm24.134,14.653-.215.215c-2.155-7.757-4.741-12.5-7.973-14.222a6.6,6.6,0,0,0-4.956-.646c-.215-.646-.215-1.077-.431-1.939,4.741-2.8,10.343-2.586,14.007,2.586l3.017,4.31a4.283,4.283,0,0,1,0,4.525Zm.862-23.7L105.7,59.351v.862c-3.879-3.663-8.619-4.525-13.145-2.155V56.549a9.564,9.564,0,0,0-.431-2.8c1.508-2.586,5.6-7.542,12.929-4.094A3.819,3.819,0,0,1,106.779,53.964Zm-17.023-2.8c-.215,0-.215-.215-.431-.215a10.962,10.962,0,0,0-4.741-.862,12.88,12.88,0,0,1,1.077-5.818c1.939-4.094,3.879-5.387,8.4-5.6a3.708,3.708,0,0,1,2.37,2.37l1.508,3.448a3.439,3.439,0,0,0,1.508,1.939A11.46,11.46,0,0,0,89.756,51.162Zm-8.4-.431a7.282,7.282,0,0,0-2.586,1.293L77.688,34.57A3.063,3.063,0,0,1,78.981,35l5.387,3.448a4.308,4.308,0,0,0,2.8.431H87.6C82.429,42.112,81.567,48.792,81.352,50.731Zm-2.155,2.8h0a11.767,11.767,0,0,1,6.249-1.939,6.883,6.883,0,0,1,3.017.646,4.224,4.224,0,0,1,2.155,4.094,2.217,2.217,0,0,1-2.37,2.155c-2.155,0-8.188,0-8.188,4.956v3.232a8.2,8.2,0,0,0,.862,4.094,13.794,13.794,0,0,1-4.094,1.508,13.794,13.794,0,0,1-4.094-1.508,8.2,8.2,0,0,0,.862-4.094V63.23c0-4.956-6.034-4.956-8.188-4.956a2.36,2.36,0,0,1-2.37-2.155c0-1.939.646-3.448,2.155-4.094a6.883,6.883,0,0,1,3.017-.646,11.767,11.767,0,0,1,6.249,1.939h0a4.344,4.344,0,0,0,2.37.646A2.992,2.992,0,0,0,79.2,53.533ZM75.1,52.024l-2.586-1.293c-.215-1.939-1.077-8.619-6.249-11.852H66.7a6.364,6.364,0,0,0,2.8-.431L74.887,35a3.063,3.063,0,0,1,1.293-.431Zm-6.68-7.758A12.881,12.881,0,0,1,69.5,50.085a7.011,7.011,0,0,0-4.741.862c-.215,0-.215.215-.431.215a11.9,11.9,0,0,0-9.481-4.741,11.843,11.843,0,0,0,1.508-1.939l1.508-3.448a4.269,4.269,0,0,1,2.37-2.37C64.544,38.88,66.483,40.173,68.422,44.267Zm-6.249,9.266a10.917,10.917,0,0,0-.431,2.8v1.508C57.217,55.472,52.476,56.334,48.6,60v-.862L47.52,53.748a3.664,3.664,0,0,1,2.155-4.31C56.571,45.991,60.665,50.947,62.173,53.533ZM47.52,63.661c3.663-5.172,9.266-5.387,14.007-2.586,0,.862-.215,1.508-.215,1.939a6.6,6.6,0,0,0-4.956.646c-3.232,1.724-5.818,6.465-7.973,14.222l-.215-.215L44.719,72.5a4.279,4.279,0,0,1,0-4.525ZM92.126,88.872c-.646-3.448-2.586-6.68-5.6-7.973a10.9,10.9,0,0,1,1.939-6.034,10.67,10.67,0,0,1,6.68,4.956,21.1,21.1,0,0,1,1.939,16.592v.646h0l-.215,1.293a4.172,4.172,0,0,1-4.31,3.232l-4.741-.431A14.311,14.311,0,0,0,92.126,88.872ZM49.244,110.637c-.862-.862-1.724-1.939-2.586-2.8H58.295l-1.508,2.8Zm7.111.862-1.939,3.448c-1.508-1.077-2.8-2.155-4.31-3.448Zm-6.9,7.111-3.232,4.31A50.234,50.234,0,0,1,33.514,57.842l9.05,4.094A39.852,39.852,0,0,0,37.177,89.3a41.539,41.539,0,0,0,16.592,26.72l-2.37,4.094A11.842,11.842,0,0,1,49.46,118.609Zm6.68,15.731-.646,1.293-3.448-1.508,3.663-8.188,1.077.431-3.232,7.111Zm8.4-3.879-2.37-.862-.862,2.586,2.155.646-.431,1.077-2.155-.646-.862,2.586,2.37.646v1.293l-3.663-1.077,2.586-8.619,3.663,1.077Zm6.249,1.939-.862,4.741A1.119,1.119,0,0,1,69.5,138l-.646.646a.792.792,0,0,1-.646.215h-.862c-.215,0-.431-.215-.646-.215-.215-.215-.431-.215-.646-.431s-.215-.431-.431-.862v-1.077l.862-4.741a1.12,1.12,0,0,1,.431-.862l.646-.646a.792.792,0,0,1,.646-.215h.862c.215,0,.431.215.646.215.215.215.431.215.646.431s.215.431.431.862Zm10.99,5.818c0,.215-.215.431-.431.646s-.431.431-.646.431c-.215.215-.431.215-.862.215H79.2c-.215,0-.431-.215-.646-.215-.215-.215-.431-.431-.431-.646a1.615,1.615,0,0,1-.215-1.077l-.215-4.956a1.3,1.3,0,0,1,.215-.862c0-.215.215-.431.431-.646s.431-.431.646-.431c.215-.215.431-.215.862-.215a1.3,1.3,0,0,1,.862.215c.215,0,.431.215.646.431s.431.431.431.646a1.3,1.3,0,0,1,.215.862v.431H80.705v-.431a.762.762,0,0,0-.862-.862c-.215,0-.431.215-.646.431,0,.215-.215.431-.215.862l.215,4.525a.762.762,0,0,0,.862.862h.215a.211.211,0,0,0,.215-.215l.215-.215v-.862H82v.646C81.783,137.788,81.783,138,81.783,138.219Zm7.327-1.077a1.634,1.634,0,0,1-.431.862c-.215.215-.431.431-.646.431a.792.792,0,0,1-.646.215h-.862c-.215,0-.431-.215-.862-.215l-.646-.646c-.215-.215-.215-.646-.431-.862l-.862-4.741v-1.077a1.634,1.634,0,0,1,.431-.862c.215-.215.431-.431.646-.431a.792.792,0,0,1,.646-.215h.862c.215,0,.431.215.862.215l.646.646c.215.215.215.646.431.862l.862,4.741C89.325,136.71,89.325,136.926,89.109,137.141Zm6.9-.646-.862-1.724-1.724.646.215,1.939-1.293.215-.862-9.266,1.077-.431,4.741,7.973Zm4.094-1.724-3.232-7.111-1.293.646-.431-1.077,3.879-1.724.431,1.077-1.293.646,3.232,7.111Zm-23.057-6.68a44.97,44.97,0,0,1-24.565-7.327l9.7-17.67,4.31-.431a5.738,5.738,0,0,1,2.586.646l5.6,3.448a5.495,5.495,0,0,0,5.172,0l5.6-3.448a5.119,5.119,0,0,1,2.586-.646l4.525.431,9.7,17.67A48.253,48.253,0,0,1,77.042,128.091Zm30.815-5.387-3.232-4.31c-.646.431-1.293,1.077-1.939,1.508l-2.37-4.094a40.205,40.205,0,0,0,16.592-26.72,41.065,41.065,0,0,0-5.387-27.367l9.05-4.094A50.8,50.8,0,0,1,126.819,90.6,51.528,51.528,0,0,1,107.856,122.7Z" transform="translate(9.123 3.811)" fill="#0074db"/>
    </g>
  </g>
</svg>
