<svg xmlns="http://www.w3.org/2000/svg" width="36" height="34.285" viewBox="0 0 36 34.285">
  <path id="Icon_simple-line" data-name="Icon simple-line" d="M29.048,14.795a.946.946,0,0,1,0,1.892H26.415v1.688h2.632a.944.944,0,1,1,0,1.889H25.469a.947.947,0,0,1-.941-.944V12.162a.948.948,0,0,1,.945-.945h3.579a.945.945,0,0,1,0,1.89H26.415v1.688h2.632Zm-5.782,4.524a.944.944,0,0,1-.648.894.969.969,0,0,1-.3.046.927.927,0,0,1-.765-.375l-3.664-4.976v4.41a.943.943,0,1,1-1.885,0V12.162a.94.94,0,0,1,.645-.892.873.873,0,0,1,.291-.05.97.97,0,0,1,.743.381L21.375,16.6V12.162a.945.945,0,1,1,1.89,0v7.157Zm-8.611,0a.944.944,0,1,1-1.887,0V12.162a.944.944,0,1,1,1.887,0Zm-3.7.944H7.376a.95.95,0,0,1-.945-.944V12.162a.945.945,0,0,1,1.89,0v6.212h2.634a.944.944,0,0,1,0,1.889M36,15.471C36,7.415,27.923.858,18,.858S0,7.415,0,15.471c0,7.217,6.405,13.263,15.052,14.412.587.123,1.385.387,1.587.885a3.664,3.664,0,0,1,.057,1.62l-.246,1.53c-.067.451-.36,1.779,1.573.967S28.4,28.768,32.178,24.423A12.934,12.934,0,0,0,36,15.471" transform="translate(0 -0.858)" fill="#fff"/>
</svg>
