<svg id="Group_390" data-name="Group 390" xmlns="http://www.w3.org/2000/svg" width="47.237" height="17.651" viewBox="0 0 47.237 17.651">
  <path id="Path_417" data-name="Path 417" d="M47.123,9.243a9.843,9.843,0,0,0-1.381-3.787c-.522-.757-1.4-.757-2.121-.875a32.127,32.127,0,0,1-4.444-1.919A22.2,22.2,0,0,0,32.395.811,71.4,71.4,0,0,0,24.7,0a30.317,30.317,0,0,0-3.3.135c-4.292.994-9.123,4.629-9.123,4.629A46.4,46.4,0,0,0,3.26,6.55C.8,7.291-.19,10.052.028,12.442a3.254,3.254,0,0,0,2.8,2.733,6.15,6.15,0,1,1,11.875.01H31.979a6.149,6.149,0,1,1,11.924-.2c.331-.11,1.323-.437,1.822-.672A2.979,2.979,0,0,0,47.038,12.9,10.439,10.439,0,0,0,47.123,9.243ZM24.6,5.153s-8.094.22-8.8.252-.337-.387-.337-.387A26.551,26.551,0,0,1,17.8,3.6a18.669,18.669,0,0,1,3.866-1.616H24.6Zm10.6-.353-8.634.218V2.09a45.346,45.346,0,0,1,9.223,1.464L35.205,4.8Z" transform="translate(0.002 0.002)" fill="#fff"/>
  <circle id="Ellipse_9" data-name="Ellipse 9" cx="4.074" cy="4.074" r="4.074" transform="translate(34.035 9.503)" fill="#fff"/>
  <circle id="Ellipse_10" data-name="Ellipse 10" cx="4.074" cy="4.074" r="4.074" transform="translate(4.893 9.503)" fill="#fff"/>
</svg>
