<svg id="Group_4" data-name="Group 4" xmlns="http://www.w3.org/2000/svg" width="366.502" height="121.413" viewBox="0 0 366.502 121.413">
  <g id="Group_2" data-name="Group 2" transform="translate(2.262)">
    <path id="Path_64" data-name="Path 64" d="M97.251,25.1h10.055V85.43h19.859V95.485H97V25.1Z" transform="translate(-97 -24.346)" fill="#fff"/>
    <path id="Path_65" data-name="Path 65" d="M116.7,25.1h30.165v9.552H127.006V55.265h17.345v9.552H127.006V85.43h19.859V95.485H116.7Z" transform="translate(-67.179 -24.346)" fill="#fff"/>
    <path id="Path_66" data-name="Path 66" d="M136.1,41.993a18.366,18.366,0,0,1,1.508-7.541,12.35,12.35,0,0,1,4.022-5.279,15.367,15.367,0,0,1,5.53-3.268,18.6,18.6,0,0,1,12.066,0,17.837,17.837,0,0,1,5.53,3.268,20.966,20.966,0,0,1,4.022,5.279,18.366,18.366,0,0,1,1.508,7.541V79.2a16.788,16.788,0,0,1-1.508,7.541,12.35,12.35,0,0,1-4.022,5.279,15.367,15.367,0,0,1-5.53,3.268,18.6,18.6,0,0,1-12.066,0,17.837,17.837,0,0,1-5.53-3.268,20.966,20.966,0,0,1-4.022-5.279A18.367,18.367,0,0,1,136.1,79.2Zm10.055,37.2c0,2.514.754,4.273,2.011,5.279a7.362,7.362,0,0,0,9.552,0,7.2,7.2,0,0,0,2.011-5.279v-37.2c0-2.514-.754-4.273-2.011-5.279a7.362,7.362,0,0,0-9.552,0,7.2,7.2,0,0,0-2.011,5.279Z" transform="translate(-37.813 -24.649)" fill="#fff"/>
    <path id="Path_67" data-name="Path 67" d="M198.179,80.1a17.5,17.5,0,0,1-1.257,6.284,14.974,14.974,0,0,1-3.519,5.279,16.607,16.607,0,0,1-5.027,3.519,13.418,13.418,0,0,1-6.284,1.257,22.822,22.822,0,0,1-5.782-.754,13.3,13.3,0,0,1-5.279-2.765,20.776,20.776,0,0,1-4.022-5.027,18.366,18.366,0,0,1-1.508-8.044V41.139a18.881,18.881,0,0,1,1.257-6.536,14.524,14.524,0,0,1,3.268-5.027A16.471,16.471,0,0,1,182.091,24.8a18.882,18.882,0,0,1,6.536,1.257,12.144,12.144,0,0,1,5.027,3.519,19.369,19.369,0,0,1,3.519,5.279,19.191,19.191,0,0,1,1.257,6.787v4.022H188.375V42.4a6.847,6.847,0,0,0-1.76-5.027,5.075,5.075,0,0,0-4.525-2.262c-2.514,0-4.273.754-5.027,2.262a13.108,13.108,0,0,0-1.257,5.782V79.1a9.9,9.9,0,0,0,1.257,5.027c1.005,1.508,2.514,2.011,4.776,2.011a5.535,5.535,0,0,0,2.011-.251,3.454,3.454,0,0,0,2.011-1.257,5.113,5.113,0,0,0,1.508-2.262,7.455,7.455,0,0,0,.5-3.519V75.326h10.055V80.1Z" transform="translate(6.691 -24.8)" fill="#fff"/>
    <path id="Path_68" data-name="Path 68" d="M186.5,41.993a18.366,18.366,0,0,1,1.508-7.541,12.349,12.349,0,0,1,4.022-5.279,15.367,15.367,0,0,1,5.53-3.268,18.6,18.6,0,0,1,12.066,0,17.837,17.837,0,0,1,5.53,3.268,20.966,20.966,0,0,1,4.022,5.279,18.367,18.367,0,0,1,1.508,7.541V79.2a16.789,16.789,0,0,1-1.508,7.541,12.35,12.35,0,0,1-4.022,5.279,15.367,15.367,0,0,1-5.53,3.268,18.6,18.6,0,0,1-12.066,0,17.838,17.838,0,0,1-5.53-3.268,20.967,20.967,0,0,1-4.022-5.279A18.366,18.366,0,0,1,186.5,79.2Zm10.055,37.2c0,2.514.754,4.273,2.011,5.279a7.362,7.362,0,0,0,9.552,0,7.2,7.2,0,0,0,2.011-5.279v-37.2c0-2.514-.754-4.273-2.011-5.279a7.362,7.362,0,0,0-9.552,0,7.2,7.2,0,0,0-2.011,5.279Z" transform="translate(38.479 -24.649)" fill="#fff"/>
    <path id="Path_69" data-name="Path 69" d="M222.536,25.1h8.3l15.837,70.385H236.613L233.6,80.4H219.771l-3.016,15.082H206.7Zm4.273,20.11h0L221.782,70.6h10.055Z" transform="translate(69.057 -24.346)" fill="#fff"/>
    <path id="Path_70" data-name="Path 70" d="M239.163,34.552H227.6V25h33.433v9.552H249.469V95.385H239.415V34.552Z" transform="translate(100.694 -24.497)" fill="#fff"/>
  </g>
  <g id="Group_3" data-name="Group 3" transform="translate(0 92.003)">
    <path id="Path_71" data-name="Path 71" d="M110.177,69.8h-4.022V68.79a4.247,4.247,0,0,0-.754-2.514,2.45,2.45,0,0,0-2.262-1.005,1.884,1.884,0,0,0-1.257.251c-.251.251-.754.5-.754.754-.251.251-.251.754-.5,1.257V70.3c0,.5.251.754.251,1.005l.754.754a5.5,5.5,0,0,0,1.257.754l3.016,1.257a4.861,4.861,0,0,1,2.262,1.257,4.509,4.509,0,0,1,1.257,1.76,5.019,5.019,0,0,1,.5,2.262c0,.754.251,1.76.251,2.765a13.28,13.28,0,0,1-.251,3.268,9.292,9.292,0,0,1-1.257,2.765,5.474,5.474,0,0,1-2.262,1.76,6.959,6.959,0,0,1-3.268.754,9.037,9.037,0,0,1-2.765-.5,5.936,5.936,0,0,1-2.262-1.508A8.773,8.773,0,0,1,96.6,86.386a9.037,9.037,0,0,1-.5-2.765V82.113h4.022v1.257a2.854,2.854,0,0,0,.754,2.011,3.186,3.186,0,0,0,2.262,1.005c.754,0,1.257,0,1.508-.251a3.47,3.47,0,0,0,1.006-.754c.251-.251.251-.754.5-1.257V80.6c0-.5-.251-.754-.251-1.257l-.754-.754a1.92,1.92,0,0,0-1.257-.5l-3.016-1.508a6.91,6.91,0,0,1-3.519-2.765,12.007,12.007,0,0,1-1.005-4.525,12.617,12.617,0,0,1,.5-3.016,7.862,7.862,0,0,1,1.257-2.514A5.474,5.474,0,0,1,100.373,62a6.377,6.377,0,0,1,3.016-.5,9.036,9.036,0,0,1,2.765.5,5.936,5.936,0,0,1,2.262,1.508,5.473,5.473,0,0,1,1.257,2.011,7.34,7.34,0,0,1,.5,2.262V69.8Z" transform="translate(-96.1 -61.249)" fill="#fff"/>
    <path id="Path_72" data-name="Path 72" d="M117.971,83.721a7.437,7.437,0,0,1-.5,2.514,3.909,3.909,0,0,1-1.508,2.011,13.943,13.943,0,0,1-2.011,1.508,8.931,8.931,0,0,1-2.514.5,7.437,7.437,0,0,1-2.514-.5,3.909,3.909,0,0,1-2.011-1.508,13.943,13.943,0,0,1-1.508-2.011,8.931,8.931,0,0,1-.5-2.514V61.6h4.022V83.218a3.073,3.073,0,0,0,.754,2.262,2.43,2.43,0,0,0,3.519,0,3.073,3.073,0,0,0,.754-2.262V61.6h4.022Z" transform="translate(-82.779 -61.097)" fill="#fff"/>
    <path id="Path_73" data-name="Path 73" d="M113.5,61.6h6.033a12.617,12.617,0,0,1,3.016.5,4.522,4.522,0,0,1,2.262,1.508,5.216,5.216,0,0,1,1.508,2.514,15.753,15.753,0,0,1,.5,4.022,13.282,13.282,0,0,1-.251,3.268,7.527,7.527,0,0,1-1.006,2.514,4.932,4.932,0,0,1-2.262,2.262,8.4,8.4,0,0,1-3.771.754h-2.011v11.06H113.5V61.6Zm4.273,13.323h2.011a4.9,4.9,0,0,0,2.011-.251,1.963,1.963,0,0,0,1.005-1.006c.251-.5.251-1.005.5-1.508V68.136c0-.5-.251-1.006-.251-1.508a1.963,1.963,0,0,0-1.005-1.006,3.633,3.633,0,0,0-1.76-.5h-2.011v9.8Z" transform="translate(-69.761 -61.097)" fill="#fff"/>
    <path id="Path_74" data-name="Path 74" d="M121.9,61.6h12.066v3.771h-8.044v8.3h7.038v3.771h-7.038v8.3h8.044v4.022H121.9Z" transform="translate(-57.046 -61.097)" fill="#fff"/>
    <path id="Path_75" data-name="Path 75" d="M129.7,61.6h6.536c4.776,0,7.29,2.765,7.29,8.3a10.833,10.833,0,0,1-.754,4.273,4.979,4.979,0,0,1-2.765,2.765l4.525,13.071h-4.273l-3.771-12.066h-2.514V90.005h-4.022V61.6Zm4.273,12.569h2.262a3.727,3.727,0,0,0,1.76-.251A3.469,3.469,0,0,0,139,73.163a1.92,1.92,0,0,0,.5-1.257V67.884a3.573,3.573,0,0,0-.5-1.508c-.251-.5-.5-.754-1.005-.754s-1.005-.251-1.76-.251h-2.011v8.8Z" transform="translate(-45.239 -61.097)" fill="#fff"/>
    <path id="Path_76" data-name="Path 76" d="M143.2,68.438a9.376,9.376,0,0,1,.5-3.016,17.639,17.639,0,0,1,1.508-2.262,10.19,10.19,0,0,1,2.262-1.257,6.536,6.536,0,0,1,5.027,0,10.188,10.188,0,0,1,2.262,1.257,3.661,3.661,0,0,1,1.508,2.262,6.377,6.377,0,0,1,.5,3.016v1.508h-4.022V68.438A3.073,3.073,0,0,0,152,66.176a3.058,3.058,0,0,0-4.022,0,3.073,3.073,0,0,0-.754,2.262V83.521a3.073,3.073,0,0,0,.754,2.262,3.058,3.058,0,0,0,4.022,0,3.073,3.073,0,0,0,.754-2.262V78.242h-3.268V74.723h7.29v9.049a9.376,9.376,0,0,1-.5,3.016l-1.508,2.262a10.189,10.189,0,0,1-2.262,1.257,6.536,6.536,0,0,1-5.027,0,10.188,10.188,0,0,1-2.262-1.257,3.661,3.661,0,0,1-1.508-2.262,5.894,5.894,0,0,1-.5-3.016Z" transform="translate(-24.803 -61.4)" fill="#fff"/>
    <path id="Path_77" data-name="Path 77" d="M152,61.6h4.022V85.983h8.044v4.022H152Z" transform="translate(-11.482 -61.097)" fill="#fff"/>
    <path id="Path_78" data-name="Path 78" d="M165.384,61.6H168.9l6.284,28.405h-4.022l-1.257-6.033h-5.53l-1.257,6.033H159.1Zm1.76,8.044h0L165.133,79.95h4.022Z" transform="translate(-0.735 -61.097)" fill="#fff"/>
    <path id="Path_79" data-name="Path 79" d="M181.877,69.644h-4.022V68.638a4.247,4.247,0,0,0-.754-2.514,2.45,2.45,0,0,0-2.262-1.005,1.884,1.884,0,0,0-1.257.251c-.251.251-.754.5-.754.754-.251.251-.251.754-.5,1.257v2.765c0,.5.251.754.251,1.005l.754.754a5.5,5.5,0,0,0,1.257.754l3.016,1.257a4.861,4.861,0,0,1,2.262,1.257,4.509,4.509,0,0,1,1.257,1.76,5.019,5.019,0,0,1,.5,2.262c0,.754.251,1.76.251,2.765a13.278,13.278,0,0,1-.251,3.268,9.292,9.292,0,0,1-1.257,2.765,5.474,5.474,0,0,1-2.262,1.76,6.959,6.959,0,0,1-3.268.754,9.037,9.037,0,0,1-2.765-.5,5.935,5.935,0,0,1-2.262-1.508,8.774,8.774,0,0,1-1.508-2.262,9.036,9.036,0,0,1-.5-2.765V81.961h4.022v1.257a2.854,2.854,0,0,0,.754,2.011,3.186,3.186,0,0,0,2.262,1.005c.754,0,1.257,0,1.508-.251a3.469,3.469,0,0,0,1.005-.754c.251-.251.251-.754.5-1.257V80.453c0-.5-.251-.754-.251-1.257l-.754-.754a1.92,1.92,0,0,0-1.257-.5l-3.016-1.257a6.91,6.91,0,0,1-3.519-2.765,12.007,12.007,0,0,1-1.005-4.525,12.619,12.619,0,0,1,.5-3.016,7.864,7.864,0,0,1,1.257-2.514,5.474,5.474,0,0,1,2.262-1.76,6.376,6.376,0,0,1,3.016-.5,9.036,9.036,0,0,1,2.765.5,5.935,5.935,0,0,1,2.262,1.508,5.474,5.474,0,0,1,1.257,2.011,7.34,7.34,0,0,1,.5,2.262v1.76Z" transform="translate(12.435 -61.097)" fill="#fff"/>
    <path id="Path_80" data-name="Path 80" d="M190.277,69.644h-4.022V68.638a4.247,4.247,0,0,0-.754-2.514,2.45,2.45,0,0,0-2.262-1.005,1.884,1.884,0,0,0-1.257.251c-.251.251-.754.5-.754.754-.251.251-.251.754-.5,1.257v2.765c0,.5.251.754.251,1.005l.754.754a5.5,5.5,0,0,0,1.257.754L186,73.917a4.861,4.861,0,0,1,2.262,1.257,4.509,4.509,0,0,1,1.257,1.76,5.019,5.019,0,0,1,.5,2.262c0,.754.251,1.76.251,2.765a13.278,13.278,0,0,1-.251,3.268,9.292,9.292,0,0,1-1.257,2.765,5.474,5.474,0,0,1-2.262,1.76,6.958,6.958,0,0,1-3.268.754,9.037,9.037,0,0,1-2.765-.5,5.935,5.935,0,0,1-2.262-1.508,8.774,8.774,0,0,1-1.508-2.262,9.036,9.036,0,0,1-.5-2.765V81.961h4.022v1.257a2.854,2.854,0,0,0,.754,2.011,3.186,3.186,0,0,0,2.262,1.005c.754,0,1.257,0,1.508-.251a3.47,3.47,0,0,0,1.005-.754c.251-.251.251-.754.5-1.257V80.453c0-.5-.251-.754-.251-1.257s-.5-.5-.754-.754a1.92,1.92,0,0,0-1.257-.5l-3.016-1.257a6.91,6.91,0,0,1-3.519-2.765,12.007,12.007,0,0,1-1.005-4.525,12.619,12.619,0,0,1,.5-3.016,7.864,7.864,0,0,1,1.257-2.514,5.474,5.474,0,0,1,2.262-1.76,6.376,6.376,0,0,1,3.016-.5,9.036,9.036,0,0,1,2.765.5,5.935,5.935,0,0,1,2.262,1.508,5.474,5.474,0,0,1,1.257,2.011,7.34,7.34,0,0,1,.5,2.262v1.76Z" transform="translate(25.15 -61.097)" fill="#fff"/>
    <path id="Path_81" data-name="Path 81" d="M202.72,83.569a7.438,7.438,0,0,1-.5,2.514,5.474,5.474,0,0,1-1.257,2.011,13.943,13.943,0,0,1-2.011,1.508,7.437,7.437,0,0,1-2.514.5,6.96,6.96,0,0,1-2.262-.251,8.928,8.928,0,0,1-2.262-1.006,3.909,3.909,0,0,1-1.508-2.011,6.407,6.407,0,0,1-.5-3.268V67.984a7.438,7.438,0,0,1,.5-2.514,5.273,5.273,0,0,1,3.268-3.268,9.037,9.037,0,0,1,2.765-.5,7.437,7.437,0,0,1,2.514.5,3.909,3.909,0,0,1,2.011,1.508,4.861,4.861,0,0,1,1.257,2.262,9.036,9.036,0,0,1,.5,2.765v1.508H198.7V68.99a2.854,2.854,0,0,0-.754-2.011,2.544,2.544,0,0,0-1.76-1.005c-1.005,0-1.76.251-2.011,1.005a6,6,0,0,0-.5,2.262v14.58a4.736,4.736,0,0,0,.5,2.011c.251.5,1.005.754,2.011.754a.924.924,0,0,0,.754-.251c.251,0,.5-.251.754-.5a1.306,1.306,0,0,0,.5-1.005c.251-.251.251-.754.251-1.508V81.81h4.022v1.76Z" transform="translate(45.888 -60.946)" fill="#fff"/>
    <path id="Path_82" data-name="Path 82" d="M198.1,68.438a9.376,9.376,0,0,1,.5-3.016,17.639,17.639,0,0,1,1.508-2.262,10.19,10.19,0,0,1,2.262-1.257,6.536,6.536,0,0,1,5.027,0,10.188,10.188,0,0,1,2.262,1.257,3.661,3.661,0,0,1,1.508,2.262,6.377,6.377,0,0,1,.5,3.016V83.521a9.376,9.376,0,0,1-.5,3.016L209.663,88.8a10.19,10.19,0,0,1-2.262,1.257,6.536,6.536,0,0,1-5.027,0,10.189,10.189,0,0,1-2.262-1.257,3.661,3.661,0,0,1-1.508-2.262,5.894,5.894,0,0,1-.5-3.016Zm4.022,15.082a3.073,3.073,0,0,0,.754,2.262,3.058,3.058,0,0,0,4.022,0,3.073,3.073,0,0,0,.754-2.262V68.438a3.073,3.073,0,0,0-.754-2.262,3.058,3.058,0,0,0-4.022,0,3.073,3.073,0,0,0-.754,2.262Z" transform="translate(58.301 -61.4)" fill="#fff"/>
    <path id="Path_83" data-name="Path 83" d="M212.484,61.6H216l6.284,28.405h-4.022l-1.257-6.033h-5.53l-1.257,6.033H206.2Zm1.76,8.044h0L212.233,79.95h4.022Z" transform="translate(70.562 -61.097)" fill="#fff"/>
    <path id="Path_84" data-name="Path 84" d="M219.176,65.371H214.4V61.6h13.574v3.771h-4.525V90.005h-4.022V65.371Z" transform="translate(82.975 -61.097)" fill="#fff"/>
    <path id="Path_85" data-name="Path 85" d="M222.5,61.6h4.022V90.005H222.5Z" transform="translate(95.236 -61.097)" fill="#fff"/>
    <path id="Path_86" data-name="Path 86" d="M227.6,61.6h4.022l6.284,17.093h0V61.6h4.022V90.005h-3.771l-6.284-17.093h0V90.005h-4.022V61.6Z" transform="translate(102.956 -61.097)" fill="#fff"/>
    <path id="Path_87" data-name="Path 87" d="M236.5,68.438a9.376,9.376,0,0,1,.5-3.016,17.642,17.642,0,0,1,1.508-2.262,10.191,10.191,0,0,1,2.262-1.257,6.536,6.536,0,0,1,5.027,0,10.189,10.189,0,0,1,2.262,1.257,3.661,3.661,0,0,1,1.508,2.262,6.377,6.377,0,0,1,.5,3.016v1.508h-4.022V68.438a3.073,3.073,0,0,0-.754-2.262,3.058,3.058,0,0,0-4.022,0,3.073,3.073,0,0,0-.754,2.262V83.521a3.073,3.073,0,0,0,.754,2.262,3.058,3.058,0,0,0,4.022,0,3.073,3.073,0,0,0,.754-2.262V78.242h-3.268V74.723h7.29v9.049a9.376,9.376,0,0,1-.5,3.016l-1.508,2.262a10.188,10.188,0,0,1-2.262,1.257,6.536,6.536,0,0,1-5.027,0,10.187,10.187,0,0,1-2.262-1.257A3.66,3.66,0,0,1,237,86.789a5.894,5.894,0,0,1-.5-3.016Z" transform="translate(116.428 -61.4)" fill="#fff"/>
  </g>
</svg>
