<svg xmlns="http://www.w3.org/2000/svg" width="68.195" height="51.156" viewBox="0 0 68.195 51.156">
  <g id="Group_26" data-name="Group 26" transform="translate(-959.726 -7648.283)">
    <rect id="Rectangle_20" data-name="Rectangle 20" width="37" height="35" transform="translate(978 7657)" fill="#fff"/>
    <path id="Icon_ionic-logo-youtube" data-name="Icon ionic-logo-youtube" d="M67.752,13.8c0-5.995-4.409-10.817-9.858-10.817C50.515,2.633,42.988,2.5,35.3,2.5H32.9c-7.673,0-15.213.133-22.593.48C4.876,2.98.467,7.828.467,13.823.134,18.565-.013,23.308,0,28.05q-.02,7.114.453,14.24c0,5.995,4.409,10.857,9.844,10.857,7.753.36,15.706.52,23.792.506q12.149.04,23.792-.506c5.448,0,9.858-4.862,9.858-10.857.32-4.756.466-9.5.453-14.254Q68.232,20.923,67.752,13.8ZM27.575,41.118V14.942L46.891,28.023Z" transform="translate(959.727 7645.783)" fill="#f03131"/>
  </g>
</svg>
