<svg xmlns="http://www.w3.org/2000/svg" width="31.432" height="31.424" viewBox="0 0 31.432 31.424">
  <path id="Icon_awesome-instagram" data-name="Icon awesome-instagram" d="M15.716,8.9a8.057,8.057,0,1,0,8.057,8.057A8.044,8.044,0,0,0,15.716,8.9Zm0,13.295a5.238,5.238,0,1,1,5.238-5.238A5.248,5.248,0,0,1,15.716,22.193ZM25.982,8.569A1.879,1.879,0,1,1,24.1,6.69,1.875,1.875,0,0,1,25.982,8.569Zm5.336,1.907A9.3,9.3,0,0,0,28.78,3.892,9.361,9.361,0,0,0,22.2,1.354c-2.594-.147-10.371-.147-12.965,0A9.348,9.348,0,0,0,2.646,3.885,9.33,9.33,0,0,0,.108,10.469C-.04,13.064-.04,20.84.108,23.435a9.3,9.3,0,0,0,2.538,6.584A9.373,9.373,0,0,0,9.23,32.557c2.594.147,10.371.147,12.965,0a9.3,9.3,0,0,0,6.584-2.538,9.361,9.361,0,0,0,2.538-6.584C31.465,20.84,31.465,13.071,31.318,10.476ZM27.966,26.218a5.3,5.3,0,0,1-2.987,2.987c-2.069.82-6.977.631-9.263.631s-7.2.182-9.263-.631a5.3,5.3,0,0,1-2.987-2.987c-.82-2.069-.631-6.977-.631-9.263s-.182-7.2.631-9.263A5.3,5.3,0,0,1,6.453,4.705c2.069-.82,6.977-.631,9.263-.631s7.2-.182,9.263.631a5.3,5.3,0,0,1,2.987,2.987c.82,2.069.631,6.977.631,9.263S28.787,24.157,27.966,26.218Z" transform="translate(0.003 -1.243)" fill="#4b4a48"/>
</svg>
