<svg xmlns="http://www.w3.org/2000/svg" width="130.2" height="63.28" viewBox="0 0 130.2 63.28">
  <path id="Path_284" data-name="Path 284" d="M51.87-4.06V.77H60.9a47.981,47.981,0,0,1-.28-6.09V-45.36c0-2.59.07-3.99.21-5.81-1.61.14-2.87.21-5.88.21H15.19c-2.8,0-4.27-.07-5.95-.21a46.489,46.489,0,0,1,.28,5.88V-5.18A46.778,46.778,0,0,1,9.24.84h9.03v-4.9Zm0-7.98H18.27V-43.05h33.6ZM87.71-49a47.053,47.053,0,0,1-9.03-.49v9.1a68.5,68.5,0,0,1,8.96-.35H118.3v30.52H86.45a45,45,0,0,1-8.75-.49v9.03a59.9,59.9,0,0,1,8.61-.35l31.92.07v4.2h9.38a45.7,45.7,0,0,1-.35-7.14V-46.69l4.13-1.82a36.285,36.285,0,0,0-5.88-9.66l-5.46,2.24A38.893,38.893,0,0,1,124.46-49H87.71Zm51.73-2.8a38.369,38.369,0,0,0-5.81-9.24l-5.32,2.17a43.387,43.387,0,0,1,5.67,9.45Z" transform="translate(-9.24 61.04)" fill="#e8536a"/>
</svg>
