<svg xmlns="http://www.w3.org/2000/svg" width="60" height="60" viewBox="0 0 60 60">
  <g id="Group_478" data-name="Group 478" transform="translate(-532 -908)">
    <circle id="Ellipse_27" data-name="Ellipse 27" cx="30" cy="30" r="30" transform="translate(532 908)" fill="#f4f4f4"/>
    <path id="Icon_awesome-user-tie" data-name="Icon awesome-user-tie" d="M8.75,10a5,5,0,1,0-5-5A5,5,0,0,0,8.75,10Zm3.742,1.273L10.625,18.75l-1.25-5.312,1.25-2.187H6.875l1.25,2.188L6.875,18.75,5.008,11.273A5.241,5.241,0,0,0,0,16.5v1.625A1.875,1.875,0,0,0,1.875,20h13.75A1.875,1.875,0,0,0,17.5,18.125V16.5A5.241,5.241,0,0,0,12.492,11.273Z" transform="translate(553 928)" fill="#e8536a"/>
  </g>
</svg>
