<svg xmlns="http://www.w3.org/2000/svg" width="495.738" height="50.119" viewBox="0 0 495.738 50.119">
  <path id="Path_285" data-name="Path 285" d="M34.524-17.856a3.712,3.712,0,0,0-2.412-2.664,11.418,11.418,0,0,0-2.736.5,46.613,46.613,0,0,0,.468-6.192c0-.468-.72-1.476-3.1-2.448L25.56-27.324c1.116.72,1.584,1.26,1.584,1.368a57.145,57.145,0,0,1-.468,6.732,9.05,9.05,0,0,1-1.764.4c-.324,0-.72-.108-1.656-.9l-.9,1.62c1.116,1.188,1.656,1.692,2.7,1.692a4.075,4.075,0,0,0,1.26-.288c-.972,6.264-2.844,13.32-5.8,17.1l.828.648c4.068-4.464,6.48-12.06,7.668-18.648a7.727,7.727,0,0,1,2.448-.468,1.106,1.106,0,0,1,.54.648c0,7.38-1.548,17.28-2.916,17.28-.4,0-.684-.432-3.528-3.168l-.612.72C28.836,1.3,28.512,2.916,29.2,2.916c3.492,0,5.112-11.736,5.112-19.4A6.977,6.977,0,0,1,34.524-17.856ZM23.472-21.2c0-.576-.576-1.08-2.952-1.08a11.461,11.461,0,0,0-2.808.4c-.072-.756-.5-1.08-2.016-1.44,2.628-1.116,4.428-2.052,4.428-2.808,0-.576-.864-1.62-2.2-2.376l-1.512.828c.648.828.72,1.08.72,1.224,0,.36-2.628,2.3-6.48,4.14l.4.864C12.42-22,13.716-22.5,14.9-23l-.792.936c1.08.36,1.26.54,1.3.864a29.952,29.952,0,0,1-4.5,1.44,3,3,0,0,1-1.584-.5L8.6-18.792a4.505,4.505,0,0,0,2.124,1.368c.9,0,2.628-.864,4.68-1.548v1.62c-1.224.432-2.448.864-3.24,1.08a5.142,5.142,0,0,0-.648-.54l-1.332,1.3c2.7,2.844.468,8.46,2.592,8.46.4,0,.72-.432.9-1.008q.756-.162,1.728-.432c0,.72-.072,1.368-.072,1.98-1.008.288-1.836.576-2.052.576h-.036c-.216,0-.576-.036-1.548-.72l-.468,1.584a3.7,3.7,0,0,0,1.944,1.332,12.956,12.956,0,0,0,1.98-.576,8.232,8.232,0,0,1-.972,3.168,10.624,10.624,0,0,1-1.728.576c-.144,0-.54-.468-1.332-1.836L9.792-.576c.9,1.836,1.584,2.772,2.232,2.772.684,0,5.22-2.52,9.9-6.012l-.36-1.044A41.436,41.436,0,0,1,16.812-2.3a10.036,10.036,0,0,0,.54-2.7,9.42,9.42,0,0,1,1.908-.4c1.224,0,2.2-.432,2.2-1.044,0-.648-.216-1.152-1.692-1.152a9.729,9.729,0,0,0-2.268.432c0-.54.108-1.152.108-1.836a18.8,18.8,0,0,1,2.556-.216c1.08,0,1.476-.36,1.476-.936a1.091,1.091,0,0,0-.5-.828,20.752,20.752,0,0,0,1.224-5.328c0-.936-1.764-2.2-2.52-2.2a7.461,7.461,0,0,0-2.088.4v-1.548a11.757,11.757,0,0,1,2.52-.288C23.184-19.944,23.472-20.592,23.472-21.2Zm-13.14-4.068v-.108c0-.5-.108-1.188-3.2-2.34l-1.62.972C7.38-25.74,7.452-25.38,7.452-25.056c0,1.368-3.384,11.232-7.02,14.76l1.548.36C5.724-13.572,10.332-23.616,10.332-25.272ZM8.46.576V-12.1c0-.756-.576-1.188-2.376-1.98L4.9-13.032c.972.576,1.332.828,1.332,1.368,0,10.98-.36,11.484-.36,12.132,0,1.3.792,2.16,1.188,2.16C7.524,2.628,8.46,2.088,8.46.576ZM20.3-15.912a15.746,15.746,0,0,1-.972,4.68,12.811,12.811,0,0,0-1.692.18c0-.432.036-.9.036-1.4a3.493,3.493,0,0,1,.612-.036c1.044,0,1.26-.432,1.26-1.044,0-.54-.756-.864-1.476-.864h-.36v-1.728a8.653,8.653,0,0,1,1.98-.4C19.872-16.524,20.3-16.128,20.3-15.912ZM15.444-13.9c-.72.216-1.4.468-2.052.684l-.144-1.3c.576-.18,1.368-.5,2.2-.792Zm0,3.348c-.648.18-1.224.36-1.728.468-.036-.36-.072-.756-.144-1.332.54-.18,1.188-.432,1.872-.612ZM60.66-.432a.772.772,0,0,0-.144-.432c-4.68-5.688-13.356-10.4-13.356-11.952,0-2.448,13-9.216,13-11.268,0-.756-1.008-1.584-2.556-2.52l-1.044.756a2.1,2.1,0,0,1,.72,1.152c0,1.512-12.24,8.676-12.24,11.808,0,3.312,7.776,6.552,13.536,13.428a1.293,1.293,0,0,0,.9.54C60.048,1.08,60.66.18,60.66-.432ZM107.5,1.188c0-.288-4.608-2.268-6.336-3.312-2.412-1.4-6.264-4.284-12.312-11.3,2.16-4.1,3.456-7.992,3.456-10.368,0-1.44-.648-2.34-3.708-4.752l-1.4,1.332c1.44,1.152,2.34,2.3,2.34,3.1,0,6.048-7.884,21.348-16.524,26.064l.612.828C79.164.72,84.564-5.8,88.128-12.132,96.948-.9,101.16,2.052,104.076,2.052,105.912,2.052,107.5,1.44,107.5,1.188Zm32-21.24a5.034,5.034,0,0,0-2.664-1.872c-1.224,0-9.108,2.736-10.476,2.736a2.193,2.193,0,0,1-1.08-.432c2.2-2.628,3.564-4.9,3.564-6.084,0-.9-.9-2.124-4-2.3l-1.224,1.224c1.44,0,2.16.468,2.16,1.008,0,1.836-6.3,11.556-15.228,17.532l.936.54a59.834,59.834,0,0,0,12.744-10.728,3.026,3.026,0,0,0,2.016,1.152c1.764,0,8.676-2.088,9.072-2.088.144,0,.432.108.432.216,0,1.152-5,9.036-9.756,12.24a27.935,27.935,0,0,0-4.176-2.88l-1.08,1.044c5.724,3.924,8.82,9.4,9,9.4a5.851,5.851,0,0,0,1.584-2.2c0-.324-1.98-2.556-4.572-4.788,4.824-2.736,10.512-9.324,11.916-12.348C138.96-19.3,139.5-19.692,139.5-20.052Zm38.052-4.14a5.476,5.476,0,0,0-3.312-2.88l-.9.936a7.516,7.516,0,0,1,3.132,3.2A4.094,4.094,0,0,0,177.552-24.192Zm-2.736,1.152-.288-.252c-.5.5-.72.576-1.044.576-.18,0-.72-.18-1.656-2.772l-1.188.972c1.044,2.88,2.2,3.636,2.628,3.636C173.628-20.88,173.628-21.636,174.816-23.04Zm1.08,11.2c0-2.988-3.816-8.856-8.46-10.872l-.468.576c2.7,1.476,6.84,8.1,6.84,10.152,0,.288-.18.468-.324.468-.36,0-1.368-.18-2.448-.288v.792c1.476.036,2.628,1.224,3.06,1.224C175.464-9.792,175.9-10.476,175.9-11.844Zm-13.824-4.248c0-2.124-1.728-4.1-3.384-4.1a27.608,27.608,0,0,0-3.564.792,28.068,28.068,0,0,0,1.008-2.808c0-.4-.5-1.116-2.376-1.836l-.612.54c.576.432.792.72.792,1.08a32.694,32.694,0,0,1-1.008,3.6,10.247,10.247,0,0,1-1.26.252,2.207,2.207,0,0,1-1.692-.612l-.432,1.116c.432.792,1.224,1.62,1.8,1.62a4.263,4.263,0,0,0,.9-.144c-1.26,4.032-2.736,8.748-2.736,9.036,0,.972.216,1.152,1.116,1.152a1.269,1.269,0,0,0,1.152-1.152,52.8,52.8,0,0,1,2.556-9.576,28.283,28.283,0,0,1,4.176-.936c.72,0,1.368.648,1.368,1.8,0,4.716-2.2,12.24-2.808,12.24-.792,0-1.548-1.224-2.376-2.844l-.468.972c1.44,2.988,2.448,4.68,3.168,4.68C159.912-1.224,162.072-12.276,162.072-16.092Zm49.14-9.4c0-.468-.936-1.26-1.98-1.26-.756,0-4.86.936-6.408,1.116a2.69,2.69,0,0,0,.72-1.584c0-.468-.612-1.368-3.312-2.268l-1.26,1.332c1.44.612,1.836,1.152,1.836,1.332,0,.864-1.8,2.952-4.608,5.508l1.332.684a49.545,49.545,0,0,0,3.78-3.312,4.546,4.546,0,0,0,1.98.54,4.7,4.7,0,0,0,.828-.108l-.432.468c1.224.612,1.512,1.044,1.512,1.224,0,.288-.792,1.3-4.176,4.14l.828.54c4.824-3.636,6.228-3.924,6.228-4.86,0-.4-.252-.972-2.124-1.836a21,21,0,0,1,3.06-.5C210.6-24.336,211.212-24.732,211.212-25.488Zm-14.076,1.224c0-.5-.864-1.224-1.908-1.224-.936,0-4,1.152-5.292,1.44a1.89,1.89,0,0,0,.252-.864c0-.468-.216-1.08-3.024-2.16l-1.152,1.4c1.26.5,1.44.828,1.44,1.044,0,.72-1.764,3.24-5.148,6.228l.9.576a33.73,33.73,0,0,0,5.364-4.464,4.122,4.122,0,0,0,1.152.5l-.432.432c1.692.756,1.908,1.188,1.908,3.888l2.268-.828c0-2.268-.18-3.024-1.908-3.852a21.009,21.009,0,0,1,3.384-.972C196.416-23.112,197.136-23.652,197.136-24.264Zm16.92,26.1c0-.612-3.384-1.44-5.94-2.844-3.312-1.836-6.84-5.472-8.964-8.1a42.077,42.077,0,0,1,5.8-.5c2.34,0,3.96.072,5.076.072,1.764,0,2.268-.144,2.268-.9,0-1.116-1.836-1.548-6.84-1.548a58.38,58.38,0,0,0-8.568.936,15.11,15.11,0,0,0,.216-2.592c0-.252-.18-.648-1.188-1.188,2.7-1.152,4.752-2.3,4.752-2.988,0-.432-.54-1.224-2.844-2.052l-2.016.864c1.26.576,1.44.864,1.44.936,0,.4-3.888,3.024-9.648,4.932l.9.936c1.62-.468,3.384-1.08,5.076-1.692.756.5.936.792.936.9a11.307,11.307,0,0,1-.252,2.448C190.116-9.792,186.372-9,184.968-9a5.121,5.121,0,0,1-2.34-.648l-.792,1.8a5.5,5.5,0,0,0,3.132,1.08,59.269,59.269,0,0,0,8.568-1.368A17.9,17.9,0,0,1,182.628,1.8l.864.972c6.48-1.8,11.088-6.048,12.816-11.412l1.3-.216c2.268,3.564,7.992,11.412,12.672,11.412C211.788,2.556,214.056,2.268,214.056,1.836Zm36.252-28.944c0-.54-1.368-1.3-2.124-1.3a53.129,53.129,0,0,0-12.708,1.944,3.837,3.837,0,0,1-1.62-1.08L232.7-26.208c1.44,1.62,2.232,2.052,2.7,2.052a36.042,36.042,0,0,0,3.672-.828,2.335,2.335,0,0,1,.972,1.224,7.662,7.662,0,0,1-2.16,3.384c-.18.036-.288.072-.324.072-.288,0-.72-.54-.936-.72L235.116-19.8c1.08,1.116,1.368,1.512,1.368,2.016,0,6.516-.36,11.16-.36,12.1,0,.648.288,1.512,1.152,1.512a1.581,1.581,0,0,0,1.188-1.044c2.268,0,6.12-.72,7.6-.72,0,1.152.648,1.728,1.188,1.728.648,0,1.26-.54,1.26-2.052V-18.756a8.193,8.193,0,0,1,.144-1.512A3.386,3.386,0,0,0,246.24-22.1a28.359,28.359,0,0,0-6.084,1.152c1.188-1.116,2.3-2.412,2.3-3.024a2.5,2.5,0,0,0-.936-1.44,47.406,47.406,0,0,1,6.7-.468C249.012-25.884,250.308-26.064,250.308-27.108Zm-17.172,2.3c0-.5-.648-1.08-1.656-1.08a16.806,16.806,0,0,0-3.528.612,8.435,8.435,0,0,0,.324-1.548c0-.648-.54-1.224-1.872-2.2l-1.368,1.26c.54.432,1.008.936,1.008,1.116a6.2,6.2,0,0,1-.36,1.944c-1.872.54-3.492,1.008-3.744,1.008a2.789,2.789,0,0,1-1.584-.72l-.972,1.476a3.762,3.762,0,0,0,2.556,1.512c.684,0,7.02-2.3,9.756-2.3C232.56-23.724,233.136-24.12,233.136-24.8ZM249.8.5c0-.36-3.132-3.42-5.328-4.716L243-2.88C245.736-.9,247.788,2.3,247.932,2.3A4.512,4.512,0,0,0,249.8.5Zm-9.072-2.448c0-.54-.252-1.116-2.2-2.2l-1.3,1.152c.612.5.864.864.864,1.044,0,.612-1.692,2.88-4.032,4.5l.828.792C237.312,2.3,240.732-.18,240.732-1.944ZM234.756-17.6c0-.612-.972-1.188-1.728-1.188a20.8,20.8,0,0,0-3.492.612,8.385,8.385,0,0,0,1.8-3.564c0-.432-1.044-.9-2.3-1.476L227.844-22.1c.648.324,1.044.756,1.044,1.008a12.171,12.171,0,0,1-1.512,3.456c-.576.144-1.152.288-1.692.432.288-.288.54-.54.54-.648a11.419,11.419,0,0,0-2.916-3.6l-1.224.936a11.786,11.786,0,0,1,2.34,3.636,32,32,0,0,1-3.276.756,3.046,3.046,0,0,1-1.728-.972l-1.044,1.656c1.08,1.152,1.872,1.584,2.772,1.584.252,0,3.672-.9,6.768-1.656l-.972,1.08a1.923,1.923,0,0,1,.9.972c0,.648-2.448,2.988-4.788,4.788a14.827,14.827,0,0,0,.108-1.728c0-.9-.72-1.8-2.556-2.7l-1.4,1.3c.972.648,1.548,1.224,1.548,1.512,0,3.348-1.188,8.6-4.068,11.34l.756,1.116a15.8,15.8,0,0,0,5.328-9.036c2.7-1.62,7.776-5.616,7.776-6.66,0-.468-.468-1.044-2.232-2.088a28,28,0,0,1,4.392-.828C233.928-16.452,234.756-16.7,234.756-17.6Zm-3.312,8.388c0-.576-.756-1.26-2.3-2.052l-1.152,1.188c.468.324.936.792.936,1.044,0,.792-3.924,4.14-6.408,5.76l.936.828C226.008-4,231.444-7.776,231.444-9.216Zm2.2,3.852c0-.648-.9-1.548-2.376-2.268L230.22-6.444c.4.288.864.792.864,1.08,0,.756-5.436,5.184-9.828,7.92l.9.828C227.2.684,233.64-4.176,233.64-5.364Zm12.636-14.148-.144,11.16c-1.188,0-5.148.756-7.524.756V-9.4c1.908-.324,4.464-.936,5.256-.936,1.368,0,1.98-.576,1.98-1.224,0-.576-1.3-1.224-1.764-1.224-.36,0-3.348.684-5.472,1.008l.036-1.908c1.872-.432,4.392-1.188,5.076-1.188,1.368,0,1.944-.612,1.944-1.188s-.9-1.26-1.764-1.26c-.288,0-3.2.828-5.256,1.26V-18.4a42.739,42.739,0,0,1,7.272-1.476C246.1-19.872,246.276-19.584,246.276-19.512Zm38.916.864a5.952,5.952,0,0,0-3.528-3.024l-.9.972a7.883,7.883,0,0,1,3.276,3.42A3.9,3.9,0,0,0,285.192-18.648Zm-2.88,1.08-.252-.36c-.756.72-1.188.864-1.368.864-.36,0-1.08-1.08-1.764-3.1L277.6-19.044c1.188,3.168,2.448,4.032,2.916,4.032C280.872-15.012,280.98-15.984,282.312-17.568ZM278.388-23.4a1.287,1.287,0,0,0-1.368-1.3c-.684,0-16.56,3.744-17.856,3.744a4.654,4.654,0,0,1-2.484-.864l-.648.9c1.008,1.26,1.98,2.376,3.492,2.376,1.044,0,13.86-3.636,14.868-3.636.18,0,.288.072.288.216s-.576,1.224-1.188,2.52c-2.016,4.32-4.068,11.124-4.068,13.86,0,1.944,6.48,4.284,7.236,4.284.252,0,.792-1.152.792-1.476s-6.12-1.62-6.12-3.024c0-3.024,2.7-9.612,4.464-13.284A22.329,22.329,0,0,1,278.388-23.4ZM318.852-9.216c0-1.872-3.348-10.764-7.2-10.764-1.116,0-2.268,1.008-3.456,2.2l.432.432c1.188-.864,1.728-1.08,2.3-1.08,1.872,0,5.364,6.984,5.364,9.432,0,1.368.324,1.908,1.008,1.908C317.952-7.092,318.852-8.136,318.852-9.216Zm-16.164-.108-.576-.468c-1.764,2.016-3.2,3.672-3.888,3.672-1.08,0-2.52-7.056-2.52-12.42a6.541,6.541,0,0,0-1.512-3.132l-.864.54c0,7.416,1.512,18.144,4.788,18.144C298.908-2.988,299.3-5.148,302.688-9.324ZM343.152-23.9c0-1.152-1.332-2.772-3.42-4.68l-1.476,1.26c1.44,1.584,2.628,2.88,2.628,3.456,0,.468-.576.864-1.332,1.044l.4.72C341.892-22.644,343.152-23.292,343.152-23.9Zm8.316,15.876c0-2.412-2.916-3.456-5.616-3.456A25.253,25.253,0,0,0,337.788-9.9a2.942,2.942,0,0,1-.252-1.188c0-1.224.108-7.164,1.44-9.972L337.068-22.1c-1.476,3.06-1.836,8.172-1.836,10.944,0,2.2.9,3.636,1.836,3.636.54,0,4.248-1.764,8.964-1.764,2.34,0,2.844.612,2.844,1.3,0,1.368-.972,3.708-8.64,9.5l.648.612C350.064-3.816,351.468-5.616,351.468-8.028ZM391.9-5.256c-4.1-.4-5.8-2.376-5.8-5.508,0-7.452.612-11.232.612-13.392,0-.72-.72-1.008-1.476-1.008-.576,0-8.82,8.028-13.932,13,.072-1.584.216-3.024.36-4.356a15.811,15.811,0,0,0,1.368-2.556,1,1,0,0,0-.864-1.08c.36-2.34.684-3.852.684-4.356,0-1.188-.972-2.268-2.016-3.492l-1.044.792a4.755,4.755,0,0,1,.72,2.7c0,.324-.216,2.376-.5,4.968-1.368.54-3.168,1.3-4.752,1.872l.72,2.016a34.368,34.368,0,0,1,3.78-1.656c-.072.612-.144,1.224-.216,1.872-1.44,3.348-5.364,9.612-5.364,9.972,0,.468.5,1.224.864,1.224.108,0,1.656-1.44,3.888-3.492,0,3.132.144,7.056.144,7.524,0,.828.5,1.62,1.26,1.62.828,0,1.08-.4,1.08-1.26,0-.36-.288-4.1-.288-7.6,0-.828.036-1.62.072-2.412,5.436-5.076,12.6-11.772,13.068-11.772.18,0,.252.18.252.648,0,1.188-.468,4.212-.468,10.368,0,3.132,1.332,6.012,7.56,6.48Zm-22.68-7.128c-.072.864-.144,1.728-.216,2.448-1.044,1.008-1.728,1.656-1.764,1.656-.18,0-.288-.072-.288-.216C366.948-8.6,367.992-10.368,369.216-12.384Zm53.136,3.42c0-2.988-2.412-4.428-5.688-4.428a18.264,18.264,0,0,0-8.208,1.908c4.1-6.552,10.368-13.536,10.368-14.184a1.878,1.878,0,0,0-1.476-1.512,18.93,18.93,0,0,0-1.908.72,39.336,39.336,0,0,1-5.184,1.116c-.612-.18-1.044-.216-1.044-1.3l-1.08.468c0,2.556.648,3.2,1.908,3.2a44.719,44.719,0,0,0,4.9-1.26c.072,0,.144.036.144.18,0,.432-10.26,14.328-10.26,14.976A1.215,1.215,0,0,0,406.044-7.7c.252,0,.72-.612,1.656-1.188a17.574,17.574,0,0,1,8.568-2.3c1.656,0,3.6.792,3.6,2.3,0,2.268-1.584,4.32-3.348,5.724a5.657,5.657,0,0,0-4.536-2.484c-2.016,0-3.744,1.224-3.744,3.06,0,1.512,1.332,3.2,4.608,3.2C416.16.612,422.352-3.708,422.352-8.964Zm-7.524,6.876a4.679,4.679,0,0,1-2.016.612c-2.016,0-2.7-.4-2.7-1.188a1.475,1.475,0,0,1,1.512-1.224A3.975,3.975,0,0,1,414.828-2.088ZM456.12-19.944c0-2.988-4.824-4.212-8.964-4.212a7.412,7.412,0,0,0-3.1.936v1.332a8.6,8.6,0,0,1,2.556-.36c3.42,0,6.912,1.548,6.912,2.412,0,.108-.18.468-2.268,1.368l.864.576C454.536-19.368,456.12-19.188,456.12-19.944Zm.864,17.928c0-.828-.9-1.512-2.124-1.512-3.132,0-10.728-2.412-10.728-4.644a7.961,7.961,0,0,1,.36-2.268l-.648-.324a6.711,6.711,0,0,0-1.152,2.88c0,4.464,8.28,6.876,12.168,6.876C456.516-1.008,456.984-1.044,456.984-2.016Zm38.34-17.82c0-.972-1.152-1.656-4.5-2.628l-.468.684c1.872.468,2.268,1.224,2.268,1.908,0,.4-1.476,1.152-4.464,3.06-1.26.828-2.448,1.62-3.6,2.448-.792-4.1-3.708-9.756-6.12-9.756a6.869,6.869,0,0,0-1.836.432v1.152a5.813,5.813,0,0,1,1.188-.216c1.116,0,4.536,5.184,4.68,9.972-3.024,2.412-5,4.788-5,6.876,0,3.024,2.7,3.888,11.088,3.888,2.232,0,5.364-.756,5.364-1.944,0-.72-.252-1.008-1.116-1.008a36.3,36.3,0,0,1-4.32.576c-6.732,0-8.748-.108-8.748-1.512,0-2.484,2.952-4.86,9.612-9C494.568-18.108,495.324-18.684,495.324-19.836Z" transform="matrix(0.999, -0.035, 0.035, 0.999, 0.597, 46.753)" fill="#e8536a"/>
</svg>
