<svg id="Component_11_1" data-name="Component 11 – 1" xmlns="http://www.w3.org/2000/svg" width="52" height="52" viewBox="0 0 52 52">
  <rect id="Rectangle_408" data-name="Rectangle 408" width="52" height="52" fill="none"/>
  <g id="Group_186" data-name="Group 186" transform="matrix(0.995, -0.105, 0.105, 0.995, 8.27, 3.518)">
    <g id="Rectangle_147" data-name="Rectangle 147" transform="translate(0 15.047)" fill="#fff" stroke="#5a4941" stroke-width="1">
      <rect width="30.095" height="21.317" stroke="none"/>
      <rect x="0.5" y="0.5" width="29.095" height="20.317" fill="none"/>
    </g>
    <g id="Polygon_2" data-name="Polygon 2" transform="translate(0 22.571)" fill="#fff">
      <path d="M 28.80911636352539 13.29331970214844 L 1.285399317741394 13.29331970214844 L 15.04725742340088 0.6782848238945007 L 28.80911636352539 13.29331970214844 Z" stroke="none"/>
      <path d="M 15.04725742340088 1.356559753417969 L 2.570791244506836 12.79331970214844 L 27.52372360229492 12.79331970214844 L 15.04725742340088 1.356559753417969 M 15.04725742340088 0 L 30.09451675415039 13.79331970214844 L -1.9073486328125e-06 13.79331970214844 L 15.04725742340088 0 Z" stroke="none" fill="#5a4941"/>
    </g>
    <g id="Path_277" data-name="Path 277" transform="translate(0 15.047) rotate(-45)" fill="#fff">
      <path d="M 20.07293701171875 20.78003692626953 L 2.364447593688965 20.78003692626953 C 1.336387515068054 20.78003692626953 0.4999974966049194 19.94364738464355 0.4999974966049194 18.91558837890625 L 0.4999974966049194 1.20709753036499 L 20.07293701171875 20.78003692626953 Z" stroke="none"/>
      <path d="M 0.9999980926513672 2.414216995239258 L 0.9999980926513672 18.91558837890625 C 0.9999980926513672 19.66794776916504 1.612087249755859 20.28003692626953 2.364446640014648 20.28003692626953 L 18.86581802368164 20.28003692626953 L 0.9999980926513672 2.414216995239258 M -1.9073486328125e-06 -1.9073486328125e-06 L 21.28003692626953 21.28003692626953 L 2.364446640014648 21.28003692626953 C 1.058597564697266 21.28003692626953 -1.9073486328125e-06 20.22143745422363 -1.9073486328125e-06 18.91558837890625 L -1.9073486328125e-06 -1.9073486328125e-06 Z" stroke="none" fill="#5a4941"/>
    </g>
  </g>
</svg>
