<svg xmlns="http://www.w3.org/2000/svg" viewBox="0 0 1366 278.58"><defs><style>.cls-1{fill:#f4f2ee;}</style></defs><g id="レイヤー_2" data-name="レイヤー 2"><g id="レイヤー_1-2" data-name="レイヤー 1"><path class="cls-1" d="M0,0V277.79c32.92-2.82,109.05-2.16,109.05-2.16s59.48.47,117,1c28.64.25,56.79-.41,76.84-.41,54.63,0,59.66-1.31,88.81-3.29,3.32-.23,5.87-.46,8.77-.7,0-2.94.65-6.58.81-10.91.79-21,3.34-57.43,5.28-108.42.67-17.59,4-116.53,4.69-137.29l3.7-.85c-.26,72.66,0,215.2-1.52,252.42a49,49,0,0,0,.74,7.94s60.17.43,87,.88c26,.43,58.34,2,84.57,2.12,31.33.11,64.52-1,97.31-1.21,34.53-.27,68.62.27,99.64.28,49.47,0,131.14-.29,154.36-1.37.3-3.2.92-7.57,1.28-13,1.74-26.62,3.76-158.71,5.6-224.19.2-7.07.84-16.1,1-23.43l4-2.13C948.76,43,951.11,159.38,950.84,185c-.3,27-.83,51.58-1.37,73.63-.11,4.78.06,9.58-.06,14.2,0,1.79-.37,3.56-.41,5.28,12.91-.33,22.5-.5,38.63-.79,35.16-.62,27-.67,42.65-.67,11.11,0,24.91.62,39.7.71,32.79.2,70.43,0,94.28.26,34.31.39,67.7.77,99.45.92,36.65.18,71.12.06,102.29-.72V0Z"/></g></g></svg>