<svg id="Component_8_1" data-name="Component 8 – 1" xmlns="http://www.w3.org/2000/svg" width="14.175" height="124.24" viewBox="0 0 14.175 124.24">
  <path id="Path_403" data-name="Path 403" d="M14.13,6.86q-.105.12-.247.308t-.248.323a12.7,12.7,0,0,1-.877,1.3A17.771,17.771,0,0,1,11.483,10.3,9.957,9.957,0,0,1,9.96,11.63l-1.245-1a6.693,6.693,0,0,0,.967-.683,10.8,10.8,0,0,0,.885-.832,10.508,10.508,0,0,0,.727-.847,4.79,4.79,0,0,0,.48-.743H3.555q-.45,0-.87.023t-.9.068V5.945q.42.045.87.09t.9.045H11.94q.165,0,.413-.007t.48-.038a3.307,3.307,0,0,0,.353-.06Zm-6.06,2q0,1.17-.06,2.22a11.754,11.754,0,0,1-.278,1.988,6.813,6.813,0,0,1-.668,1.755A6.275,6.275,0,0,1,5.85,16.355a8.293,8.293,0,0,1-1.95,1.32L2.52,16.55a5.254,5.254,0,0,0,.712-.292,4.708,4.708,0,0,0,.727-.443,5.479,5.479,0,0,0,1.305-1.14,4.421,4.421,0,0,0,.743-1.328,7.277,7.277,0,0,0,.345-1.538,14.973,14.973,0,0,0,.1-1.755q0-.3-.015-.585a4.89,4.89,0,0,0-.075-.615Z" transform="translate(-0.345 -5.945)" fill="#5a4941"/>
  <path id="Path_402" data-name="Path 402" d="M1.455,10.31l.623.038q.367.022.8.038t.817.015h8.16q.54,0,.975-.038t.7-.052v1.86l-.72-.045q-.465-.03-.96-.03H3.69q-.615,0-1.23.023t-1,.052Z" transform="translate(18.655 14.055) rotate(90)" fill="#5a4941"/>
  <path id="Path_401" data-name="Path 401" d="M4.905,15.62V6.95q0-.36-.03-.833A6.426,6.426,0,0,0,4.77,5.27H6.615q-.03.36-.068.825T6.51,6.95q0,.51,0,1.283t0,1.672q0,.9,0,1.815t0,1.718q0,.8,0,1.387t0,.8q0,.24.015.585t.045.7q.03.352.06.638H4.785q.06-.39.09-.937T4.905,15.62Zm1.26-6.435q.735.21,1.65.517t1.845.66q.93.353,1.77.7t1.425.63l-.675,1.635q-.63-.345-1.417-.7T9.15,11.945q-.825-.33-1.6-.6T6.165,10.88Zm6.2,12.85q-.12.225-.285.592t-.255.623q-.285.735-.683,1.6t-.9,1.747a13.454,13.454,0,0,1-1.132,1.673,19.868,19.868,0,0,1-1.59,1.845A20.139,20.139,0,0,1,5.49,31.935a17.156,17.156,0,0,1-2.565,1.65L1.605,32.4a15.794,15.794,0,0,0,3.578-2.28A19.043,19.043,0,0,0,7.83,27.33a12.834,12.834,0,0,0,1.5-2.378,23.15,23.15,0,0,0,.96-2.3q.09-.255.18-.608t.15-.622Zm-8.07,1.62q.57.36,1.208.8t1.29.885q.652.45,1.238.885t1.02.8q1.17.93,2.272,1.92t2,1.965l-1.2,1.32a26.68,26.68,0,0,0-1.973-2.055Q9.135,29.22,8,28.26q-.4-.345-.938-.765T5.9,26.625q-.623-.45-1.283-.908T3.3,24.855ZM1.14,43.4a24.974,24.974,0,0,0,3.638-1.252,22.562,22.562,0,0,0,2.9-1.507,14.926,14.926,0,0,0,1.552-1.08q.757-.6,1.432-1.245a16.674,16.674,0,0,0,1.185-1.245l1.26,1.2q-.66.675-1.425,1.335t-1.613,1.267q-.847.608-1.732,1.148-.825.51-1.875,1.027t-2.22.99q-1.17.472-2.37.847Zm6.27-1.98,1.665-.435v6.8q0,.3.007.653t.03.653a2.6,2.6,0,0,0,.068.465H7.32q.015-.165.045-.465t.037-.653q.008-.353.008-.653ZM13.26,55.64a2.507,2.507,0,0,0-.225.435q-.1.255-.195.48a13.3,13.3,0,0,1-.555,1.59,15.055,15.055,0,0,1-.885,1.778,13.063,13.063,0,0,1-1.2,1.732,12.834,12.834,0,0,1-2.467,2.31A15.624,15.624,0,0,1,4.2,65.81L2.805,64.565a14.422,14.422,0,0,0,2.558-1.013,11.61,11.61,0,0,0,1.95-1.268,11.369,11.369,0,0,0,1.507-1.47,8.926,8.926,0,0,0,1.028-1.432,14.538,14.538,0,0,0,.795-1.575A6.977,6.977,0,0,0,11.1,56.39H5.76l.57-1.35h4.575A4.954,4.954,0,0,0,11.52,55a2.428,2.428,0,0,0,.51-.112ZM8.3,53.33q-.225.33-.442.72t-.337.615A15.53,15.53,0,0,1,6.338,56.48,16.567,16.567,0,0,1,4.7,58.362a14.366,14.366,0,0,1-2.085,1.7l-1.32-.99A12.506,12.506,0,0,0,3.03,57.83,11.87,11.87,0,0,0,4.358,56.5a13.7,13.7,0,0,0,.968-1.282q.4-.615.675-1.11a4.92,4.92,0,0,0,.3-.623,6.119,6.119,0,0,0,.255-.728Zm-2.19,16.2H14.25V70.56H6.105Zm-.4,3.69h8.79v1.1H5.7Zm-.015,5.61H14.52v1.14H5.685ZM7.155,77H13.2v.915H7.155ZM6.39,71.34h7.56v1.035H6.39Zm1.41-3H9.075v5.37H7.8Zm3.375,0h1.29v5.37h-1.29Zm-1.71,5.415H10.65v5.73H9.465Zm2.955,1.29h1.3v5.88a1.835,1.835,0,0,1-.12.743.852.852,0,0,1-.465.412,2.606,2.606,0,0,1-.863.158q-.533.022-1.282.022a4.731,4.731,0,0,0-.143-.57,3.674,3.674,0,0,0-.217-.555q.51.015.952.022t.578.007a.328.328,0,0,0,.21-.067.294.294,0,0,0,.045-.187Zm-5.9,0H12.9V76.05H7.725v6.225h-1.2ZM1.17,72.99H5.22V74.1H1.17Zm.09-4.155H5.175v1.11H1.26ZM1.17,75.06H5.22v1.11H1.17ZM.525,70.875H5.64V72.03H.525Zm1.32,6.285H5.28v4.455H1.845V80.46H4.08V78.3H1.845Zm-.7,0H2.325v5.1H1.14Zm6.8,10.54h1.38v9.555H7.935ZM3.945,93.5h9.54V94.75H3.945Zm-.96,3.15H14.37v1.23H2.985ZM5.25,87.94l1.3.1a9.4,9.4,0,0,1-.8,2.872,5.805,5.805,0,0,1-1.6,2.048,2.46,2.46,0,0,0-.3-.277q-.195-.158-.4-.308t-.352-.24a4.407,4.407,0,0,0,1.47-1.755A7.918,7.918,0,0,0,5.25,87.94Zm-.3,2.43.78-.81q.375.3.78.683t.773.75a6.414,6.414,0,0,1,.592.668l-.825.93a6.758,6.758,0,0,0-.562-.682q-.353-.382-.758-.787T4.95,90.37ZM11.3,87.94l1.275.135a8.894,8.894,0,0,1-.863,2.76,5.993,5.993,0,0,1-1.613,1.98,1.549,1.549,0,0,0-.27-.293q-.18-.158-.383-.315t-.337-.247a4.609,4.609,0,0,0,1.455-1.687A7.829,7.829,0,0,0,11.3,87.94Zm-.465,2.415.825-.855q.465.36.983.8t1,.863a9.706,9.706,0,0,1,.78.75l-.855.975q-.3-.345-.765-.787t-.983-.908Q11.295,90.73,10.83,90.355ZM7.215,84.34h1.47V86.8H7.215ZM2.37,85.825H14.3V87.16H2.37Zm-.75,0H3V89.98q0,.87-.053,1.935t-.2,2.183a16.8,16.8,0,0,1-.435,2.167,8.646,8.646,0,0,1-.765,1.92,2.646,2.646,0,0,0-.345-.277q-.225-.158-.457-.3a3.792,3.792,0,0,0-.4-.217,8.222,8.222,0,0,0,.69-1.755,14.507,14.507,0,0,0,.382-1.943q.127-1,.165-1.95t.037-1.778Z" transform="translate(-0.345 26.055)" fill="#5a4941"/>
</svg>
