<svg id="primary_button" data-name="primary button" xmlns="http://www.w3.org/2000/svg" width="177" height="40" viewBox="0 0 177 40">
  <g id="Rectangle_4" data-name="Rectangle 4" fill="rgba(255,255,255,0)" stroke="#5a4941" stroke-width="1">
    <rect width="177" height="40" rx="20" stroke="none"/>
    <rect x="0.5" y="0.5" width="176" height="39" rx="19.5" fill="none"/>
  </g>
  <g id="Group_475" data-name="Group 475" transform="translate(-20 -1)">
    <path id="Path_408" data-name="Path 408" d="M-20.183-8.312l-1.832.5q-.424-1.777-1.935-1.777a2.046,2.046,0,0,0-1.4.431,1.259,1.259,0,0,0-.41.984,1.432,1.432,0,0,0,.472,1.162,4.312,4.312,0,0,0,1.524.656l.574.171a5.14,5.14,0,0,1,2.611,1.36,2.8,2.8,0,0,1,.567,1.846A2.879,2.879,0,0,1-21.133-.547a4.5,4.5,0,0,1-2.8.786,4.546,4.546,0,0,1-2.782-.793,3.612,3.612,0,0,1-1.319-2.023l1.8-.574a2.555,2.555,0,0,0,.882,1.518,2.161,2.161,0,0,0,1.374.444q2.078,0,2.078-1.552A1.429,1.429,0,0,0-22.357-3.9a4.714,4.714,0,0,0-1.661-.718l-.561-.164a5.006,5.006,0,0,1-2.488-1.374,2.914,2.914,0,0,1-.567-1.894,2.646,2.646,0,0,1,1.066-2.2A4.039,4.039,0,0,1-24-11.02,3.631,3.631,0,0,1-20.183-8.312Zm10.4.588-1.832.444q-.4-2.3-2.283-2.3a2.283,2.283,0,0,0-2.058,1.189,5.685,5.685,0,0,0-.67,2.98,5.228,5.228,0,0,0,.868,3.261A2.255,2.255,0,0,0-13.9-1.23q1.941,0,2.393-2.324l1.784.547A3.928,3.928,0,0,1-13.915.226,4.254,4.254,0,0,1-17.49-1.436a6.311,6.311,0,0,1-1.142-3.951,6.016,6.016,0,0,1,1.477-4.361,4.322,4.322,0,0,1,3.24-1.285,4.125,4.125,0,0,1,2.871,1A4.217,4.217,0,0,1-9.786-7.725Zm1.8-3.11h3.9q3.849,0,3.849,2.953A2.691,2.691,0,0,1-.858-6.063a3.139,3.139,0,0,1-1.524.943L.126.027H-1.9L-4.1-4.84l-.492.014H-6.135V.027H-7.981ZM-6.135-9.42v3.192h1.894q2.126,0,2.126-1.627,0-1.565-2.044-1.565Zm11.867-1.6A4.165,4.165,0,0,1,9.259-9.365,6.405,6.405,0,0,1,10.38-5.407,6.043,6.043,0,0,1,8.924-1.053,4.226,4.226,0,0,1,5.718.239,4.158,4.158,0,0,1,2.191-1.422,6.393,6.393,0,0,1,1.07-5.373,6.051,6.051,0,0,1,2.533-9.734,4.229,4.229,0,0,1,5.732-11.02Zm0,1.456A2.214,2.214,0,0,0,3.715-8.381a5.891,5.891,0,0,0-.643,2.994A5.365,5.365,0,0,0,3.9-2.126a2.187,2.187,0,0,0,1.832.909,2.206,2.206,0,0,0,2.01-1.189,5.911,5.911,0,0,0,.636-2.98,5.394,5.394,0,0,0-.82-3.268A2.169,2.169,0,0,0,5.732-9.563Zm8.559-1.271V-1.5h5.093V.027h-7V-10.835Zm8.736,0V-1.5H28.12V.027h-7V-10.835Z" transform="translate(75 26)" fill="#5a4941"/>
    <path id="Path_386" data-name="Path 386" d="M328.1,2380.691l5.043,5.043-5.043,5.043" transform="translate(-163 -2366.191)" fill="none" stroke="#5a4941" stroke-width="1"/>
    <line id="Line_598" data-name="Line 598" x2="44" transform="translate(125.5 19.5)" fill="none" stroke="#5a4941" stroke-width="1"/>
  </g>
</svg>
