<svg xmlns="http://www.w3.org/2000/svg" width="525.306" height="308.161" viewBox="0 0 525.306 308.161">
  <g id="グループ_112" data-name="グループ 112" transform="translate(-35 -2479)">
    <g id="グループ_112-2" data-name="グループ 112" transform="translate(35 2524.507)">
      <g id="グループ_108" data-name="グループ 108" transform="translate(0 150.089)">
        <g id="グループ_111" data-name="グループ 111" transform="translate(0 0)">
          <path id="パス_32" data-name="パス 32" d="M127.154,181.447c-14.884,1.443-85.077.035-127.154.9V69.778H131.093C131.093,129.555,127.118,172.7,127.154,181.447Z" transform="translate(0 -69.778)" fill="#fff"/>
          <path id="パス_33" data-name="パス 33" d="M582.143,181.995c-21.621.635-99.25-.363-128.281,0,1.541-19.142-.689-89.2-.689-112.213H584.641C584.641,102.373,582.548,169.062,582.143,181.995Z" transform="translate(-322.457 -69.777)" fill="#fff"/>
          <path id="パス_35" data-name="パス 35" d="M582.143,181.995c-21.621.635-99.25-.363-128.281,0,1.541-19.142-.689-89.2-.689-112.213H584.641C584.641,102.373,582.548,169.062,582.143,181.995Z" transform="translate(-59.335 -69.777)" fill="#fff"/>
          <path id="パス_34" data-name="パス 34" d="M1039.669,182.2c-35.635.56-81.557-.738-127.135,0-.419-23.585-1.162-112.42-1.162-112.42h131.093Z" transform="translate(-649.191 -69.778)" fill="#fff"/>
        </g>
      </g>
      <rect id="長方形_97" data-name="長方形 97" width="525" height="196" transform="translate(0 -45.507)" fill="#fff"/>
    </g>
  </g>
</svg>
