<svg xmlns="http://www.w3.org/2000/svg" width="1920" height="501.609" viewBox="0 0 1920 501.609">
  <path id="Path_49" data-name="Path 49" d="M0-110V390.452c46.271-3.964,153.277-3.036,153.277-3.036s83.6.661,164.451,1.406c40.255.351,79.822-.576,108-.576,76.786,0,83.856-1.841,124.828-4.624,4.667-.323,8.251-.647,12.327-.984,0-4.132.914-9.249,1.138-15.335,1.11-29.517,4.695-80.722,7.421-152.391.942-24.724,5.622-163.79,6.592-192.97l5.2-1.195c-.365,102.128,0,302.477-2.136,354.792a68.876,68.876,0,0,0,1.04,11.16s84.573.6,122.284,1.237c36.545.6,82,2.811,118.868,2.98,44.036.155,90.687-1.406,136.775-1.7,48.534-.379,96.45.379,140.05.394,69.533,0,184.326-.408,216.963-1.926.422-4.5,1.293-10.64,1.8-18.272,2.446-37.416,5.285-223.077,7.871-315.113.281-9.937,1.181-22.63,1.406-32.932l5.622-2.994c-.239,42.069,3.064,205.648,2.685,241.659-.422,37.95-1.167,72.5-1.926,103.492-.155,6.719.084,13.465-.084,19.959,0,2.516-.52,5-.576,7.421,18.146-.464,31.625-.7,54.3-1.11,49.42-.871,37.95-.942,59.947-.942,15.616,0,35.013.871,55.8,1,46.089.281,98.994,0,132.517.365,48.225.548,95.157,1.082,139.783,1.293,51.514.253,99.964.084,143.775-1.012V-110Z" transform="translate(0 110)" fill="#fff" opacity="0.95"/>
</svg>
