<svg xmlns="http://www.w3.org/2000/svg" width="60.437" height="60.45" viewBox="0 0 60.437 60.45">
  <path id="avatar" d="M54.273,14.169a7.051,7.051,0,1,0-8.11,1.162,5.006,5.006,0,0,0-1.792,3.82v8.058H41.349V19.151a7.058,7.058,0,0,0-6.215-7,7.051,7.051,0,1,0-9.731,0,7.058,7.058,0,0,0-6.215,7v8.058H16.167V19.151a5.006,5.006,0,0,0-1.792-3.82,7.051,7.051,0,1,0-8.11-1.162,7.058,7.058,0,0,0-6.215,7V36.275A7.051,7.051,0,0,0,4.08,42.636V60.45H6.094v-17.2c.331.047,7.051.081,7.051.081a1.007,1.007,0,0,1,1.007,1.007V60.45h8.058V41.311h7.051V58.435H25.233V60.45H35.305V58.435H31.276V41.311h7.051V60.45h8.058V44.333a1.007,1.007,0,0,1,1.007-1.007s6.72-.033,7.051-.081v17.2h2.015V42.636a7.051,7.051,0,0,0,4.029-6.361V21.166A7.058,7.058,0,0,0,54.273,14.169Zm-9.9-5.091a5.036,5.036,0,1,1,5.036,5.036A5.037,5.037,0,0,1,44.371,9.078ZM32.416,14.115l-2.147,3.224-2.147-3.224ZM25.233,7.064A5.036,5.036,0,1,1,30.269,12.1a5.037,5.037,0,0,1-5.036-5.036ZM21.2,19.151a5.026,5.026,0,0,1,4.533-4.985l4.533,6.8,4.533-6.8a5.025,5.025,0,0,1,4.533,4.988v8.058H35.305v6.044H25.233V27.209H21.2ZM6.094,9.078a5.036,5.036,0,1,1,5.036,5.036A5.037,5.037,0,0,1,6.094,9.078ZM20.2,58.435H16.167v-14.1a3.022,3.022,0,0,0-3.022-3.022H7.1a5.042,5.042,0,0,1-5.036-5.036V21.166A5.042,5.042,0,0,1,7.1,16.129h4.029a3.022,3.022,0,0,1,3.022,3.022V29.224h9.066v4.029H11.131a1.007,1.007,0,0,1-1.007-1.007V20.158H8.109V32.246a3.022,3.022,0,0,0,3.022,3.022H15.16A5.042,5.042,0,0,1,20.2,40.3ZM22.13,39.3a7.036,7.036,0,0,0-2.046-4.029H40.454A7.036,7.036,0,0,0,38.408,39.3Zm36.343-3.022a5.042,5.042,0,0,1-5.036,5.036H47.393a3.022,3.022,0,0,0-3.022,3.022v14.1H40.342V40.3a5.042,5.042,0,0,1,5.036-5.036h4.029a3.022,3.022,0,0,0,3.022-3.022V20.158H50.415V32.246a1.007,1.007,0,0,1-1.007,1.007H37.32V29.224h9.066V19.151a3.022,3.022,0,0,1,3.022-3.022h4.029a5.042,5.042,0,0,1,5.036,5.036Zm0,0" transform="translate(-0.051 0)" fill="#fe6148"/>
</svg>
