<svg id="b" xmlns="http://www.w3.org/2000/svg" width="62.447" height="63.428" viewBox="0 0 62.447 63.428">
  <g id="c" transform="translate(1 1)">
    <path id="Path_1980" data-name="Path 1980" d="M3.7,46.7,36.814,13.585a2.368,2.368,0,0,1,3.429,0L51.02,24.558a2.368,2.368,0,0,1,0,3.429L32.8,46.209" transform="translate(-1.055 -1.24)" fill="none" stroke="#fe6148" stroke-linecap="round" stroke-linejoin="round" stroke-width="2"/>
    <line id="Line_10" data-name="Line 10" x2="5.094" y2="5.094" transform="translate(33.506 14.696)" fill="none" stroke="#fe6148" stroke-linecap="round" stroke-linejoin="round" stroke-width="2"/>
    <line id="Line_11" data-name="Line 11" x2="2.939" y2="2.939" transform="translate(30.469 17.733)" fill="none" stroke="#fe6148" stroke-linecap="round" stroke-linejoin="round" stroke-width="2"/>
    <line id="Line_12" data-name="Line 12" x2="5.094" y2="5.192" transform="translate(27.53 20.574)" fill="none" stroke="#fe6148" stroke-linecap="round" stroke-linejoin="round" stroke-width="2"/>
    <line id="Line_13" data-name="Line 13" x2="3.037" y2="3.037" transform="translate(24.493 23.611)" fill="none" stroke="#fe6148" stroke-linecap="round" stroke-linejoin="round" stroke-width="2"/>
    <line id="Line_14" data-name="Line 14" x2="5.094" y2="5.094" transform="translate(21.554 26.55)" fill="none" stroke="#fe6148" stroke-linecap="round" stroke-linejoin="round" stroke-width="2"/>
    <line id="Line_15" data-name="Line 15" x2="3.037" y2="3.037" transform="translate(18.516 29.587)" fill="none" stroke="#fe6148" stroke-linecap="round" stroke-linejoin="round" stroke-width="2"/>
    <line id="Line_16" data-name="Line 16" x2="5.192" y2="5.094" transform="translate(15.577 32.526)" fill="none" stroke="#fe6148" stroke-linecap="round" stroke-linejoin="round" stroke-width="2"/>
    <line id="Line_17" data-name="Line 17" x2="2.939" y2="3.037" transform="translate(12.638 35.563)" fill="none" stroke="#fe6148" stroke-linecap="round" stroke-linejoin="round" stroke-width="2"/>
    <line id="Line_18" data-name="Line 18" x2="2.351" y2="2.351" transform="translate(9.699 38.503)" fill="none" stroke="#fe6148" stroke-linecap="round" stroke-linejoin="round" stroke-width="2"/>
    <path id="Path_1981" data-name="Path 1981" d="M9.621,46.1H52.827a8.634,8.634,0,0,1,8.621,8.621h0a8.634,8.634,0,0,1-8.621,8.621H9.621A8.634,8.634,0,0,1,1,54.721H1A8.634,8.634,0,0,1,9.621,46.1Z" transform="translate(-1 -1.915)" fill="none" stroke="#fe6148" stroke-linecap="round" stroke-linejoin="round" stroke-width="2"/>
    <circle id="Ellipse_10" data-name="Ellipse 10" cx="4.507" cy="4.507" r="4.507" transform="translate(3.625 48.398)" fill="none" stroke="#fe6148" stroke-linecap="round" stroke-linejoin="round" stroke-width="2"/>
    <circle id="Ellipse_11" data-name="Ellipse 11" cx="4.507" cy="4.507" r="4.507" transform="translate(47.516 48.398)" fill="none" stroke="#fe6148" stroke-linecap="round" stroke-linejoin="round" stroke-width="2"/>
    <path id="Path_1982" data-name="Path 1982" d="M1,53.9V17.851L10.307,1l9.6,16.851V29.8" transform="translate(-1 -1)" fill="none" stroke="#fe6148" stroke-linecap="round" stroke-linejoin="round" stroke-width="2"/>
    <path id="Path_1983" data-name="Path 1983" d="M14.723,8.8a6.914,6.914,0,0,1-4.409,1.568A6.053,6.053,0,0,1,6.2,8.9" transform="translate(-1.106 -1.158)" fill="none" stroke="#fe6148" stroke-linecap="round" stroke-linejoin="round" stroke-width="2"/>
    <path id="Path_1984" data-name="Path 1984" d="M1.5,17.594l4.6,4.017,4.115-3.527,4.6,3.527,4.6-4.311" transform="translate(-1.01 -1.331)" fill="none" stroke="#fe6148" stroke-linecap="round" stroke-linejoin="round" stroke-width="2"/>
    <line id="Line_19" data-name="Line 19" y2="12.932" transform="translate(13.618 20.574)" fill="none" stroke="#fe6148" stroke-linecap="round" stroke-linejoin="round" stroke-width="2"/>
    <line id="Line_20" data-name="Line 20" y2="5.976" transform="translate(5.094 37.131)" fill="none" stroke="#fe6148" stroke-linecap="round" stroke-linejoin="round" stroke-width="2"/>
    <line id="Line_21" data-name="Line 21" y2="13.324" transform="translate(5.094 20.28)" fill="none" stroke="#fe6148" stroke-linecap="round" stroke-linejoin="round" stroke-width="2"/>
  </g>
</svg>
