<svg xmlns="http://www.w3.org/2000/svg" width="86.002" height="54.686" viewBox="0 0 86.002 54.686">
  <g id="Layer_2" data-name="Layer 2" transform="translate(1.221 1.221)">
    <g id="Group_1214" data-name="Group 1214" transform="translate(0.18 0.178)">
      <rect id="Rectangle_39" data-name="Rectangle 39" width="15.794" height="27.093" rx="2.05" transform="translate(54.352 9.435) rotate(-36.68)" fill="none" stroke="#fe6148" stroke-linecap="round" stroke-linejoin="round" stroke-width="2"/>
      <rect id="Rectangle_40" data-name="Rectangle 40" width="15.794" height="27.093" rx="2.05" transform="translate(12.667 31.167) rotate(-143.32)" fill="none" stroke="#fe6148" stroke-linecap="round" stroke-linejoin="round" stroke-width="2"/>
      <path id="Path_1973" data-name="Path 1973" d="M48.156,10.085,41,8.587a6.737,6.737,0,0,0-3.618.243l-8.64,3.078a4.719,4.719,0,0,0-2.322,1.8l-3.456,3.712a2.364,2.364,0,0,0,1.917,3.969l3.658-.3a4.714,4.714,0,0,0,2.5-.958l2.254-1.741a4.779,4.779,0,0,1,5.724-.081l15.7,11.677,3-2.335a6.85,6.85,0,0,0,2-2.511l.3-.634" transform="translate(7.569 2.714)" fill="none" stroke="#fe6148" stroke-linecap="round" stroke-linejoin="round" stroke-width="2"/>
      <path id="Path_1974" data-name="Path 1974" d="M48.416,24.09h0a3.062,3.062,0,0,1,.567,4.279l-.108.121a3.069,3.069,0,0,1-4.32.229L37.63,22.97" transform="translate(12.925 7.797)" fill="none" stroke="#fe6148" stroke-linecap="round" stroke-linejoin="round" stroke-width="2"/>
      <path id="Path_1975" data-name="Path 1975" d="M45.716,27.69h0a3.062,3.062,0,0,1,.567,4.279l-.108.121a3.069,3.069,0,0,1-4.32.229L34.93,26.57" transform="translate(11.98 9.057)" fill="none" stroke="#fe6148" stroke-linecap="round" stroke-linejoin="round" stroke-width="2"/>
      <path id="Path_1976" data-name="Path 1976" d="M43.136,30.96h0A3.062,3.062,0,0,1,43.7,35.24l-.108.121a3.069,3.069,0,0,1-4.32.229L32.35,29.84" transform="translate(11.077 10.201)" fill="none" stroke="#fe6148" stroke-linecap="round" stroke-linejoin="round" stroke-width="2"/>
      <path id="Path_1977" data-name="Path 1977" d="M38.365,32.69h0a3.062,3.062,0,0,1,.567,4.279l-.108.121a3.069,3.069,0,0,1-4.32.229L30.67,34.134" transform="translate(10.489 11.199)" fill="none" stroke="#fe6148" stroke-linecap="round" stroke-linejoin="round" stroke-width="2"/>
      <path id="Path_1978" data-name="Path 1978" d="M29.5,11.618s-5.9-1.768-7.074-2A15.1,15.1,0,0,0,19.7,9.431" transform="translate(6.65 3.058)" fill="none" stroke="#fe6148" stroke-linecap="round" stroke-linejoin="round" stroke-width="2"/>
      <path id="Path_1979" data-name="Path 1979" d="M15.474,26.93s-4.428-4.009-4.914-5.94" transform="translate(3.452 7.104)" fill="none" stroke="#fe6148" stroke-linecap="round" stroke-linejoin="round" stroke-width="2"/>
      <rect id="Rectangle_41" data-name="Rectangle 41" width="13.081" height="5.791" rx="2.14" transform="matrix(0.691, -0.723, 0.723, 0.691, 17.595, 36.695)" fill="none" stroke="#fe6148" stroke-linecap="round" stroke-linejoin="round" stroke-width="2"/>
      <rect id="Rectangle_42" data-name="Rectangle 42" width="11.123" height="5.791" rx="2.14" transform="matrix(0.691, -0.723, 0.723, 0.691, 26.6, 44.174)" fill="none" stroke="#fe6148" stroke-linecap="round" stroke-linejoin="round" stroke-width="2"/>
      <rect id="Rectangle_43" data-name="Rectangle 43" width="9.396" height="5.791" rx="2.14" transform="matrix(0.691, -0.723, 0.723, 0.691, 31.066, 47.874)" fill="none" stroke="#fe6148" stroke-linecap="round" stroke-linejoin="round" stroke-width="2"/>
      <rect id="Rectangle_44" data-name="Rectangle 44" width="15.2" height="5.791" rx="2.14" transform="matrix(0.691, -0.723, 0.723, 0.691, 21.187, 41.516)" fill="none" stroke="#fe6148" stroke-linecap="round" stroke-linejoin="round" stroke-width="2"/>
    </g>
  </g>
</svg>
