<svg xmlns="http://www.w3.org/2000/svg" width="33.168" height="33.434" viewBox="0 0 33.168 33.434">
  <g id="Layer_x0020_1" transform="translate(-0.004 0.009)">
    <path id="Path_52" data-name="Path 52" d="M8.063,16.275a24.3,24.3,0,0,0,3.59,5.031,20.469,20.469,0,0,0,5.69,4.2.593.593,0,0,0,.493.027,2.128,2.128,0,0,0,.684-.5,7.651,7.651,0,0,0,.624-.764c.913-1.2,2.046-2.7,3.644-1.95.035.016.062.035.1.051l5.332,3.066c.014.008.035.027.05.035a2.4,2.4,0,0,1,1,2.074,5.622,5.622,0,0,1-.781,2.644,5.43,5.43,0,0,1-2.563,2.265,11.657,11.657,0,0,1-3.16.859,10.694,10.694,0,0,1-4.828-.4,21.473,21.473,0,0,1-4.856-2.343l-.127-.082c-.788-.491-1.64-1.019-2.475-1.641a31.009,31.009,0,0,1-8.21-9.318A15.13,15.13,0,0,1,.143,9.944,6.871,6.871,0,0,1,2.469,5.581,6.25,6.25,0,0,1,7.105,4.343a.661.661,0,0,1,.535.342l3.417,5.778a1.805,1.805,0,0,1,.29,1.931,3.77,3.77,0,0,1-1.308,1.466c-.184.157-.4.316-.633.483-.765.555-1.632,1.195-1.335,1.949Zm6.367-2.759a.987.987,0,0,1,.495-1.912,10.2,10.2,0,0,1,4.323,2.42A9.68,9.68,0,0,1,21.9,18.13a.989.989,0,0,1-1.889.589A7.678,7.678,0,0,0,17.9,15.472a8.2,8.2,0,0,0-3.471-1.956Zm.131-6.055a.99.99,0,0,1,.332-1.951,16.2,16.2,0,0,1,8.178,4.2,16.648,16.648,0,0,1,4.8,7.93.991.991,0,1,1-1.92.488,14.66,14.66,0,0,0-4.228-6.979,14.2,14.2,0,0,0-7.163-3.692Zm.636-5.5A.99.99,0,0,1,15.421,0,20.594,20.594,0,0,1,26.749,5.274a20.831,20.831,0,0,1,6.4,10.788.987.987,0,0,1-1.927.426,18.84,18.84,0,0,0-5.8-9.751A18.6,18.6,0,0,0,15.2,1.964Z" transform="translate(0)" fill="#ee782e"/>
  </g>
</svg>
