<svg xmlns="http://www.w3.org/2000/svg" width="125.2" height="50.2" viewBox="0 0 125.2 50.2">
  <g id="audemars-piguet" transform="translate(-337.8 -175)">
    <path id="Path_193" data-name="Path 193" d="M354.9,200c.7,0,1,.7,1,1.8v7.5c0,3.9-2,4-2.8,3.6-1-.5-1.2-2.2-1.2-3.7v-7.4c0-1.1.4-1.8,1.1-1.8v-.4h-4v.4c.7,0,1,.7,1,1.8V210c0,1.5.9,3.8,3,4,2.1.1,3.4-1.2,3.4-4.8v-7.4c0-1.1.4-1.8,1-1.8v-.4h-2.5v.4Z" fill="#254558" fill-rule="evenodd"/>
    <path id="Path_194" data-name="Path 194" d="M362.1,199.6h-3.8v.4c.7,0,1.1.7,1.1,1.8v9.6c0,1.1-.4,1.8-1.1,1.8v.4h4.1a3.591,3.591,0,0,0,2.7-1.6c1.4-1.9,1.8-5.9,1.1-8.4-.8-3.1-2.3-4-4.1-4Zm2,10.6c-.2,1-.5,2.8-2.3,2.8-.5,0-.5-.2-.5-1.3V201.5c0-1.1,0-1.2.5-1.2.7,0,1.2-.1,1.8,1.1,1,1.8,1,6.4.5,8.8Z" fill="#254558" fill-rule="evenodd"/>
    <path id="Path_195" data-name="Path 195" d="M393.7,192.4h-1.5l2-4.9H398v4.9h-1.8v.8h10.7v-.8h-1.8v-7.2h2.7a1.845,1.845,0,0,0,1.8-1.7v-6.9a1.868,1.868,0,0,0-1.9-1.6H396.2v.8h1.4l-6.4,16.5h-1.4v.8h3.8v-.7Zm11.5-16.5h1.3a.472.472,0,0,1,.5.5V184a.472.472,0,0,1-.5.5h-1.3v-8.6Zm-4.6,0h2.1v16.5h-2.1V175.9Zm-2.6,1.6v9.2h-3.6l3.6-9.2Z" fill="#254558" fill-rule="evenodd"/>
    <path id="Path_196" data-name="Path 196" d="M370.4,213c-.6-.1-.7-.4-.7-1.4v-4.7c1.4.1,1.7.5,2.1,3.1h.2v-6.8h-.2c-.4,2.6-.7,2.9-2.1,3.1v-4.7c0-1.1.1-1.3.5-1.2h1.1c2,.1,2.1,2.9,2.2,3.5h.3v-4.2h-7v.4c.6,0,1,.7,1,1.8v9.6c0,1.1-.4,1.8-1,1.8v.4h7.1l.5-4.2H374c-.9,2.8-1.9,3.7-3.6,3.5Z" fill="#254558" fill-rule="evenodd"/>
    <path id="Path_197" data-name="Path 197" d="M348,196.8l-4.1-.1v.8h1.3l-6,15.6h-1.4v.8h3.6V213h-1.5l1.9-4.6h3.6V213h-1.7v.8h5.8V213H348V196.8Zm-2.5,11h-3.3l3.3-8.7v8.7Z" fill="#254558" fill-rule="evenodd"/>
    <path id="Path_198" data-name="Path 198" d="M422.1,196.7h-6.5v.8h1.6V213h-1.8v.8h6V213h-1.7v-6.8h2.6a1.711,1.711,0,0,0,1.6-1.5v-6.6a1.693,1.693,0,0,0-1.8-1.4Zm-.7,8.3a.472.472,0,0,1-.5.5h-1.2v-8h1.2a.458.458,0,0,1,.5.4V205Z" fill="#254558" fill-rule="evenodd"/>
    <path id="Path_199" data-name="Path 199" d="M434.3,207.7c.7,0,1,.7,1,1.8v2.7a1.14,1.14,0,0,1-.5,1.1,1.8,1.8,0,0,1-1,.2.745.745,0,0,1-.7-.3c-.6-.4-.9-1.2-1.2-2.6a20.149,20.149,0,0,1-.3-3.8,19.17,19.17,0,0,1,.3-3.9c.3-1.4.6-2.2,1.2-2.6a1.08,1.08,0,0,1,.7-.3c.8,0,2.6,1.4,3.2,4.4h.3v-4.9H437c-.2.4-.2,1.1-.9.9a5.705,5.705,0,0,0-2.3-.9,3.427,3.427,0,0,0-2.5,1.3c-1.2,1.2-1.8,3.5-1.8,6,0,2.4.6,4.7,1.8,6a3.828,3.828,0,0,0,2.5,1.3,4.869,4.869,0,0,0,1.2-.1c.3-.1,2-.5,2.3-1v-3.4c0-1.1.4-1.8,1.1-1.8v-.4h-4l-.1.3Z" fill="#254558" fill-rule="evenodd"/>
    <path id="Path_200" data-name="Path 200" d="M444.3,200c.7,0,1,.7,1,1.8v7.5c0,3.9-2,4-2.8,3.6-1-.5-1.2-2.2-1.2-3.7v-7.4c0-1.1.4-1.8,1.1-1.8v-.4h-4v.4c.7,0,1,.7,1,1.8V210c0,1.5.9,3.8,3,4,2.1.1,3.4-1.2,3.4-4.8v-7.4c0-1.1.4-1.8,1-1.8v-.4h-2.5v.4Z" fill="#254558" fill-rule="evenodd"/>
    <path id="Path_201" data-name="Path 201" d="M451.5,213c-.7-.1-.7-.4-.7-1.4v-4.7c1.4.1,1.6.5,2,3.1h.3v-6.8h-.3c-.4,2.6-.6,2.9-2,3.1v-4.7c0-1.1.1-1.3.5-1.2h1.1c2,.1,2.1,2.9,2.2,3.5h.2v-4.2h-7v.4c.7,0,1.1.7,1.1,1.8v9.6c0,1.1-.4,1.8-1.1,1.8v.4h7.1l.6-4.2H455c-.9,2.8-1.8,3.7-3.5,3.5Z" fill="#254558" fill-rule="evenodd"/>
    <path id="Path_202" data-name="Path 202" d="M455.6,199.6v4.1h.3a7.172,7.172,0,0,1,.7-2.6,1.546,1.546,0,0,1,1.8-.9v11.1c0,1.1-.4,1.8-1,1.8v.4h3.9v-.4c-.6,0-1-.7-1-1.8V200.2a1.546,1.546,0,0,1,1.8.9,7.172,7.172,0,0,1,.7,2.6h.2v-4.1Z" fill="#254558" fill-rule="evenodd"/>
    <path id="Path_203" data-name="Path 203" d="M380.8,209.2l-2.6-9.5h-3.4v.4c.9,0,1.2.3,1.2,1.8v9.6c0,1.1-.3,1.8-1.1,1.8v.4h2.8v-.4c-.7,0-1.1-.7-1.1-1.8v-10l3.3,12.2h.3l3.4-12.2v10c0,1.1-.4,1.8-1.1,1.8v.4h4.3v-.4c-.7,0-1.1-.7-1.1-1.8v-9.6c0-1.1.4-1.8,1.1-1.8v-.4h-3.3l-2.7,9.5Z" fill="#254558" fill-rule="evenodd"/>
    <path id="Path_204" data-name="Path 204" d="M404.3,212.4l-2.4-5.7a2.969,2.969,0,0,0,1.7-1.9,4.839,4.839,0,0,0-.3-3.8,3.287,3.287,0,0,0-2.9-1.4h-3.8v.4c.6,0,1,.7,1,1.8v9.6c0,1.1-.4,1.8-1,1.8h.1v.4h3.8v-.4c-.6,0-1-.7-1-1.8v-4.3h.3l2.6,6.5h2.5v-.4c-.2,0-.3.1-.6-.8Zm-2.5-7.6c-.4,1.9-1.6,1.6-2.2,1.6v-5.2c0-.6.3-.9.5-.9,1-.2,1.4.5,1.6,1.3a8.2,8.2,0,0,1,.1,3.2Z" fill="#254558" fill-rule="evenodd"/>
    <path id="Path_205" data-name="Path 205" d="M395.1,212.2,392,199.6h-.3l-3.1,12.2c-.3,1.2-.6,1.4-.9,1.4v.4h2.5v-.4c-.9,0-1.2-.7-.9-1.8l.4-1.9h2.9l.6,2.4a1,1,0,0,1-1.1,1.3v.4h3.8v-.4h0c-.2,0-.6-.1-.8-1Zm-5.3-3.4,1.2-5.1,1.3,5.1Z" fill="#254558" fill-rule="evenodd"/>
    <path id="Path_206" data-name="Path 206" d="M424.9,200c.8,0,1.2.7,1.2,1.8v9.6c0,1.1-.4,1.8-1.2,1.8v.4h4.2v-.4c-.8,0-1.1-.7-1.1-1.8v-9.6c0-1.1.3-1.8,1.1-1.8v-.4h-4.2v.4Z" fill="#254558" fill-rule="evenodd"/>
    <path id="Path_207" data-name="Path 207" d="M409.3,205.1a3.207,3.207,0,0,1-2.1-2.8c0-.5.2-2.3,1.4-2.3,1.8,0,2.4,2.8,2.7,3.8h.3v-4.5h-.3c-.2.4-.2.7-.5.7-.7,0-1.3-.7-2.7-.7-1.2,0-2.6,1.1-2.6,3.8a4.694,4.694,0,0,0,2,4.1c2.2,1.6,3,2.2,3,3.3,0,.5-.2,2.6-2,2.6-1.3,0-2.2-2.1-2.3-2.9L406,209h-.3v5h.3c0-.4.1-.7.2-.7.7,0,1.9.7,2.7.7,3,0,3.4-2.7,3.4-4a5.283,5.283,0,0,0-3-4.9Z" fill="#254558" fill-rule="evenodd"/>
    <path id="Path_208" data-name="Path 208" d="M338.1,223.4c.6,0,.7-.2.8-.7l.7-3.3c0-.1.1-.2.1-.3,0-.3-.3-.4-.6-.4v-.2h2v.2c-.6,0-.7.2-.8.7l-.7,3.3v.3c0,.2.1.2.5.2h.5a.991.991,0,0,0,1.1-.8h.1l-.2,1.1-3.5-.1Z" fill="#254558" fill-rule="evenodd"/>
    <path id="Path_209" data-name="Path 209" d="M343.4,221.3c.1-.4.4-1,.9-1a.458.458,0,0,1,.5.4c0,.5-.4.6-.7.6Zm1.5,1.9a.9.9,0,0,1-.5.1c-.9,0-1.1-.5-1.1-1.1a1.949,1.949,0,0,1,.1-.8h.8c.6,0,1.2-.1,1.2-.7a.908.908,0,0,0-1-.8c-1.3,0-1.8,1.4-1.8,2.4a1.135,1.135,0,0,0,1.2,1.3,2.676,2.676,0,0,0,1.1-.2v-.2Z" fill="#254558" fill-rule="evenodd"/>
    <path id="Path_210" data-name="Path 210" d="M349.4,220.9v-.3a.1.1,0,0,0-.1-.1c-.1,0-.4.3-.6.5h-.1c.2-.3.8-1,1.1-1,.2,0,.3.2.3.4v.5l-.2,1v.1c.2-.6.8-2,1.6-2a.472.472,0,0,1,.5.5c0,.2-.1.3-.1.5l-.2.9v.1c.3-.6.9-2,1.7-2,.3,0,.4.2.4.5v.5l-.5,1.9v.2c0,.1,0,.1.1.1s.4-.3.6-.5l.1.1c-.2.2-.8.9-1.1.9a.265.265,0,0,1-.3-.3v-.5l.5-1.9v-.3c0-.1,0-.2-.2-.2-.5,0-1.5,2.4-1.6,3.1h-.6l.5-2.6v-.3c0-.1,0-.2-.1-.2-.5,0-1.3,1.5-1.7,3.1h-.6l.6-2.7Z" fill="#254558" fill-rule="evenodd"/>
    <path id="Path_211" data-name="Path 211" d="M355.3,222.6c0-.8.6-2.4,1.4-2.4.2,0,.3.3.3.5,0,.9-.7,2.5-1.3,2.5-.2,0-.4-.1-.4-.6Zm1.3.2v.5a.319.319,0,0,0,.3.3c.3,0,.9-.7,1.1-.9l-.1-.1c-.2.2-.5.5-.6.5s-.1,0-.1-.1v-.2l.6-2.8h-.6l-.1.4h0c-.1-.2-.2-.5-.6-.5-1.1,0-1.8,2-1.8,2.8,0,.4.1.9.7.9.7,0,1.1-.9,1.3-1.2h0l-.1.4Z" fill="#254558" fill-rule="evenodd"/>
    <path id="Path_212" data-name="Path 212" d="M359.7,218.6c.2-.2.3-.3.4-.3s.2.1.3.3l.4.9h-.3l-.5-.5-.8.5h-.3l.8-.9Zm.7,4.1c-.2.2-.8.9-1.1.9a.265.265,0,0,1-.3-.3v-.5l.4-2a.367.367,0,0,0,.1-.3.1.1,0,0,0-.1-.1,2.309,2.309,0,0,0-.7.5h-.1c.3-.3.8-1,1.2-1,.2,0,.3.2.3.4a1.087,1.087,0,0,1-.1.5l-.4,2v.2c0,.1,0,.1.1.1s.4-.3.7-.4Z" fill="#254558" fill-rule="evenodd"/>
    <path id="Path_213" data-name="Path 213" d="M363,222.7c-.3.3-.9.9-1.3.9a.265.265,0,0,1-.3-.3.749.749,0,0,1,.1-.5l.5-2.5h-.7l.1-.3c.7,0,1.1-.3,1.3-1.1h.2l-.3,1.1h1v.3h-1l-.5,2.5a.349.349,0,0,1-.1.2.1.1,0,0,0,.1.1c.2,0,.6-.3.9-.4Z" fill="#254558" fill-rule="evenodd"/>
    <path id="Path_214" data-name="Path 214" d="M364.7,220.9v-.3a.1.1,0,0,0-.1-.1c-.1,0-.4.3-.6.5h-.1c.2-.3.7-1,1.1-1,.2,0,.3.2.3.4v.5l-.1.5h0c.1-.3.5-1.4,1.1-1.4a.366.366,0,0,1,.4.4.43.43,0,0,1-.4.4c-.1,0-.2-.1-.3-.1-.2,0-.9.9-1.3,2.9h-.6l.6-2.7Z" fill="#254558" fill-rule="evenodd"/>
    <path id="Path_215" data-name="Path 215" d="M367.8,221.3a.977.977,0,0,1,.9-1,.458.458,0,0,1,.5.4c0,.5-.5.6-.8.6Zm1.5,1.9a1.087,1.087,0,0,1-.5.1c-1,0-1.2-.5-1.2-1.1,0-.3.1-.6.1-.8h.8c.6,0,1.3-.1,1.3-.7a.908.908,0,0,0-1-.8c-1.4,0-1.9,1.4-1.9,2.4a1.162,1.162,0,0,0,1.3,1.3,2.152,2.152,0,0,0,1-.2l.1-.2Z" fill="#254558" fill-rule="evenodd"/>
    <path id="Path_216" data-name="Path 216" d="M373.6,222.6c0-.7.5-2.4,1.3-2.4a.457.457,0,0,1,.4.5c0,.7-.7,2.5-1.4,2.5-.1,0-.3-.1-.3-.6Zm1.3.2a.749.749,0,0,0-.1.5.319.319,0,0,0,.3.3c.4,0,1-.7,1.2-.9l-.1-.1c-.2.2-.5.5-.7.5a.1.1,0,0,1-.1-.1.31.31,0,0,1,.1-.2l.9-4.5-1.3.1v.2c.3,0,.5,0,.5.3v.3l-.2,1.2a.72.72,0,0,0-.7-.4c-1,0-1.8,2-1.8,2.8,0,.4.1.9.7.9.7,0,1.2-1,1.3-1.3h.1l-.1.4Z" fill="#254558" fill-rule="evenodd"/>
    <path id="Path_217" data-name="Path 217" d="M377.8,221.3c.1-.4.4-1,1-1a.43.43,0,0,1,.4.4c0,.5-.4.6-.7.6Zm1.5,1.9a.749.749,0,0,1-.5.1c-.9,0-1.1-.5-1.1-1.1a1.949,1.949,0,0,1,.1-.8h.8c.6,0,1.2-.1,1.2-.7a.817.817,0,0,0-.9-.8c-1.4,0-1.9,1.4-1.9,2.4a1.135,1.135,0,0,0,1.2,1.3,2.676,2.676,0,0,0,1.1-.2v-.2Z" fill="#254558" fill-rule="evenodd"/>
    <path id="Path_218" data-name="Path 218" d="M384.6,222.7c-.2.2-.7.9-1.1.9a.265.265,0,0,1-.3-.3v-.5l.8-3.6v-.3c0-.3-.2-.3-.6-.3l.1-.2,1.2-.1-.9,4.5v.2c0,.1,0,.1.1.1s.4-.3.7-.4Z" fill="#254558" fill-rule="evenodd"/>
    <path id="Path_219" data-name="Path 219" d="M386.1,220.1a.935.935,0,0,0,.5-.7c0-.2-.3-.1-.3-.5a.453.453,0,1,1,.9.1c0,.5-.6.9-.8,1.1h-.3Z" fill="#254558" fill-rule="evenodd"/>
    <path id="Path_220" data-name="Path 220" d="M388.8,219.2v-.3c0-.3-.2-.3-.6-.3l.1-.2,1.3-.1-.8,3.7h0c.3-.7,1-2.1,1.7-2.1a.472.472,0,0,1,.5.5,4.331,4.331,0,0,0-.1.5l-.4,1.9a.349.349,0,0,1-.1.2.1.1,0,0,0,.1.1c.2,0,.5-.3.7-.5l.1.1c-.2.2-.8.9-1.2.9a.265.265,0,0,1-.3-.3.749.749,0,0,1,.1-.5l.4-1.9c0-.1.1-.2.1-.3a.215.215,0,0,0-.2-.2c-.6,0-1.5,2.3-1.7,3.1h-.6l.9-4.3Z" fill="#254558" fill-rule="evenodd"/>
    <path id="Path_221" data-name="Path 221" d="M392.8,222.5c0-.7.3-2.3,1.1-2.3.4,0,.5.3.5.8,0,.7-.3,2.4-1.1,2.4-.3,0-.5-.3-.5-.9Zm.5,1.1c1.2,0,1.8-1.3,1.8-2.3,0-.8-.3-1.4-1.2-1.4-1.2,0-1.8,1.4-1.8,2.4a1.181,1.181,0,0,0,1.2,1.3Z" fill="#254558" fill-rule="evenodd"/>
    <path id="Path_222" data-name="Path 222" d="M396.5,220.9c0-.1.1-.2.1-.3l-.1-.1c-.2,0-.5.3-.7.5h-.1c.2-.3.8-1,1.2-1,.2,0,.3.2.3.4a1.087,1.087,0,0,1-.1.5l-.1.5h0c.2-.3.6-1.4,1.2-1.4.2,0,.3.2.3.4s-.1.4-.3.4-.3-.1-.4-.1c-.2,0-.8.9-1.2,2.9H396l.5-2.7Z" fill="#254558" fill-rule="evenodd"/>
    <path id="Path_223" data-name="Path 223" d="M400.4,222.7c-.2.2-.7.9-1.1.9a.265.265,0,0,1-.3-.3v-.5l.8-3.6v-.3c0-.3-.2-.3-.6-.3l.1-.2,1.2-.1-.9,4.5v.2c0,.1,0,.1.1.1s.4-.3.7-.4Z" fill="#254558" fill-rule="evenodd"/>
    <path id="Path_224" data-name="Path 224" d="M401.9,222.5c0-.7.4-2.3,1.2-2.3.3,0,.5.3.5.8,0,.7-.3,2.4-1.1,2.4-.3,0-.6-.3-.6-.9Zm.5,1.1c1.1,0,1.8-1.3,1.8-2.3,0-.8-.4-1.4-1.2-1.4-1.2,0-1.8,1.4-1.8,2.4.1.7.4,1.3,1.2,1.3Z" fill="#254558" fill-rule="evenodd"/>
    <path id="Path_225" data-name="Path 225" d="M405.7,222.6c0-.8.6-2.4,1.3-2.4a.452.452,0,0,1,.4.5c0,.7-.7,2.5-1.4,2.5-.2,0-.3-.1-.3-.6Zm2.4-2.5h-.6v.3a.675.675,0,0,0-.6-.4c-1.1,0-1.9,2-1.9,2.8,0,.4.1.9.7.9.8,0,1.2-.9,1.3-1.3h.1l-.3,1.3c-.1.4-.3,1.3-.9,1.3-.5,0-.4-.6-.8-.6a.43.43,0,0,0-.4.4c0,.3.4.4.9.4a1.624,1.624,0,0,0,1.8-1.5l.7-3.6Z" fill="#254558" fill-rule="evenodd"/>
    <path id="Path_226" data-name="Path 226" d="M409.6,221.3c.1-.4.4-1,1-1a.43.43,0,0,1,.4.4c0,.5-.4.6-.7.6Zm1.5,1.9a.749.749,0,0,1-.5.1c-.9,0-1.1-.5-1.1-1.1a1.949,1.949,0,0,1,.1-.8h.8c.6,0,1.2-.1,1.2-.7a.817.817,0,0,0-.9-.8c-1.4,0-1.9,1.4-1.9,2.4a1.135,1.135,0,0,0,1.2,1.3,2.676,2.676,0,0,0,1.1-.2v-.2Z" fill="#254558" fill-rule="evenodd"/>
    <path id="Path_227" data-name="Path 227" d="M413.1,220.9v-.3a.1.1,0,0,0-.1-.1,2.309,2.309,0,0,0-.7.5h-.1c.3-.3.8-1,1.2-1,.2,0,.3.2.3.4a1.087,1.087,0,0,1-.1.5l-.1.5h0c.2-.3.6-1.4,1.2-1.4a.4.4,0,1,1,0,.8c-.2,0-.2-.1-.3-.1-.2,0-.9.9-1.3,2.9h-.6l.6-2.7Z" fill="#254558" fill-rule="evenodd"/>
    <path id="Path_228" data-name="Path 228" d="M417,222.7c-.2.2-.8.9-1.2.9a.265.265,0,0,1-.3-.3,4.331,4.331,0,0,1,.1-.5l.4-2v-.4c-.2,0-.5.3-.7.5h-.1c.2-.3.8-1,1.2-1a.446.446,0,0,1,.3.4,4.331,4.331,0,0,0-.1.5l-.4,2a.349.349,0,0,1-.1.2.1.1,0,0,0,.1.1c.2,0,.5-.3.8-.4Zm-.9-3.8a.458.458,0,0,1,.5-.4.4.4,0,1,1,0,.8.457.457,0,0,1-.5-.4Z" fill="#254558" fill-rule="evenodd"/>
    <path id="Path_229" data-name="Path 229" d="M418.7,221.3a.977.977,0,0,1,.9-1,.458.458,0,0,1,.5.4c0,.5-.5.6-.8.6Zm1.5,1.9a1.087,1.087,0,0,1-.5.1c-1,0-1.2-.5-1.2-1.1,0-.3.1-.6.1-.8h.8c.6,0,1.3-.1,1.3-.7a.908.908,0,0,0-1-.8c-1.4,0-1.9,1.4-1.9,2.4a1.162,1.162,0,0,0,1.3,1.3,2.152,2.152,0,0,0,1-.2l.1-.2Z" fill="#254558" fill-rule="evenodd"/>
    <path id="Path_230" data-name="Path 230" d="M424.5,222.6c0-.7.5-2.4,1.3-2.4a.457.457,0,0,1,.4.5c0,.7-.7,2.5-1.4,2.5-.1,0-.3-.1-.3-.6Zm1.3.2a.749.749,0,0,0-.1.5.319.319,0,0,0,.3.3c.4,0,.9-.7,1.2-.9l-.1-.1a2.309,2.309,0,0,1-.7.5.1.1,0,0,1-.1-.1.31.31,0,0,1,.1-.2l.9-4.5-1.3.1v.2c.3,0,.5,0,.5.3v.3l-.2,1.2a.72.72,0,0,0-.7-.4c-1,0-1.8,2-1.8,2.8,0,.4.1.9.7.9.7,0,1.2-1,1.3-1.3h.1l-.1.4Z" fill="#254558" fill-rule="evenodd"/>
    <path id="Path_231" data-name="Path 231" d="M428.7,221.3c.1-.4.4-1,.9-1a.458.458,0,0,1,.5.4c0,.5-.4.6-.7.6Zm1.5,1.9a.749.749,0,0,1-.5.1c-.9,0-1.1-.5-1.1-1.1a1.949,1.949,0,0,1,.1-.8h.8c.6,0,1.2-.1,1.2-.7a.817.817,0,0,0-.9-.8c-1.4,0-1.9,1.4-1.9,2.4a1.135,1.135,0,0,0,1.2,1.3,2.676,2.676,0,0,0,1.1-.2v-.2Z" fill="#254558" fill-rule="evenodd"/>
    <path id="Path_232" data-name="Path 232" d="M432.3,222.9c0-.9.7-2.6,1.4-2.6.2,0,.3.3.3.6,0,.9-.6,2.5-1.3,2.5-.3,0-.4-.3-.4-.5Zm-1.8,2.2h2V225c-.3,0-.6,0-.6-.4a.367.367,0,0,1,.1-.3l.1-1h.1c.1.2.2.3.6.3,1.1,0,1.9-1.8,1.9-2.8,0-.6-.3-.9-.7-.9-.7,0-1.3,1-1.4,1.2h0l.1-.3v-.5c0-.2-.1-.4-.3-.4-.4,0-.9.7-1.2,1h.2a1.333,1.333,0,0,1,.6-.5.1.1,0,0,1,.1.1v.3l-.7,3.4a.9.9,0,0,1-.9.9Z" fill="#254558" fill-rule="evenodd"/>
    <path id="Path_233" data-name="Path 233" d="M437.8,221.9h0c-.3.9-1,1.7-1.6,1.7-.3,0-.5-.2-.5-.6,0-.1.1-.4.1-.6l.4-1.6v-.4c-.2,0-.5.3-.7.5h-.1c.2-.3.8-1,1.2-1,.2,0,.3.2.3.4a4.331,4.331,0,0,0-.1.5l-.4,1.8a1.007,1.007,0,0,1-.1.3.215.215,0,0,0,.2.2c.5,0,1.6-1.7,1.7-3.1h.6l-.6,2.8v.2c0,.1,0,.1.1.1a2.309,2.309,0,0,0,.7-.5l.1.1c-.3.2-.8.9-1.2.9a.265.265,0,0,1-.3-.3.749.749,0,0,1,.1-.5l.1-.9Z" fill="#254558" fill-rule="evenodd"/>
    <path id="Path_234" data-name="Path 234" d="M441.5,222.7c-.3.2-.8.9-1.2.9a.265.265,0,0,1-.3-.3.749.749,0,0,1,.1-.5l.4-2v-.3a.1.1,0,0,0-.1-.1c-.1,0-.4.3-.6.5h-.1c.2-.3.8-1,1.1-1,.2,0,.3.2.3.4v.5l-.4,2a.31.31,0,0,0-.1.2.1.1,0,0,0,.1.1c.1,0,.5-.3.8-.4Zm-.9-3.8a.43.43,0,0,1,.4-.4.41.41,0,1,1,0,.8.43.43,0,0,1-.4-.4Z" fill="#254558" fill-rule="evenodd"/>
    <path id="Path_235" data-name="Path 235" d="M444.5,221a.632.632,0,0,0-.7-.7.576.576,0,0,0-.6.6c0,.7,1.3.6,1.3,1.6,0,.9-.7,1.2-1.6,1.2a5.383,5.383,0,0,1-.8-.1l.1-.9h.2c0,.3.1.8.7.8a.789.789,0,0,0,.8-.8c0-.7-1.3-.7-1.3-1.6a1.164,1.164,0,0,1,1.3-1.1,2,2,0,0,1,.9.2l-.1.8Z" fill="#254558" fill-rule="evenodd"/>
    <path id="Path_236" data-name="Path 236" d="M447.3,223.4c.6,0,.7-.2.9-.7l.5-2.5v-.6c0-.2-.1-.3-.4-.3H448v-.1l1.1-.3h.4l-.7,3.7a.367.367,0,0,0-.1.3c0,.3.3.4.5.4v.1Z" fill="#254558" fill-rule="evenodd"/>
    <path id="Path_237" data-name="Path 237" d="M451.7,220.3c0-.4.2-1.1.9-1.1.3,0,.6.2.6.7,0,.6-.3,1.1-.9,1.1-.4,0-.6-.2-.6-.7Zm.2,3.3a1.446,1.446,0,0,0,1.6-1.5.928.928,0,0,0-.7-1h0a1.168,1.168,0,0,0,1.1-1.3c0-.7-.5-1-1.2-1-1,0-1.7.5-1.7,1.3a1.054,1.054,0,0,0,.6,1h0a1.266,1.266,0,0,0-1.1,1.4c0,.8.5,1.1,1.4,1.1Zm-.7-1c0-.7.3-1.4.9-1.4a.789.789,0,0,1,.8.8c0,.7-.3,1.3-1,1.3a.632.632,0,0,1-.7-.7Z" fill="#254558" fill-rule="evenodd"/>
    <path id="Path_238" data-name="Path 238" d="M457.2,219.3h-1.4c-.6,0-.7.3-.8.7h-.2l.2-1h2.9v.3l-2.7,4.2h-.7l2.7-4.2Z" fill="#254558" fill-rule="evenodd"/>
    <path id="Path_239" data-name="Path 239" d="M458.9,221c.1-.1.3-.2.8-.2a1.1,1.1,0,0,1,1.2,1.2,1.739,1.739,0,0,1-1.9,1.7,8.793,8.793,0,0,1-1.4-.2l.1-.3a4.069,4.069,0,0,0,1,.2,1.394,1.394,0,0,0,1.5-1.4.818.818,0,0,0-.8-.9.983.983,0,0,0-.8.4h-.4l.6-2.5h2.4l-.1.3h-1.8l-.4,1.7Z" fill="#254558" fill-rule="evenodd"/>
  </g>
</svg>
