<svg xmlns="http://www.w3.org/2000/svg" width="109.7" height="50.2" viewBox="0 0 109.7 50.2">
  <g id="breitling" transform="translate(-345 -175.4)">
    <path id="Path_28" data-name="Path 28" d="M392.7,220.8a.215.215,0,0,0-.2.2v.1l.1.1-.2.1h0l-.1-.1h-.1a.215.215,0,0,0-.2.2v.8a.215.215,0,0,0,.2.2h.1a.215.215,0,0,0,.2-.2h0l.2-.1h0v3h0a.215.215,0,0,0-.2.2v.1a.215.215,0,0,0,.2.2h1a.215.215,0,0,0,.2-.2v-.1c0-.1-.1-.1-.2-.2h0v-3.8h0a.215.215,0,0,0,.2-.2V221a.215.215,0,0,0-.2-.2" fill="#254558"/>
    <path id="Path_29" data-name="Path 29" d="M384.4,206.4c-.1,0-.2.1-.3.2v.2h-9.6l-.2.1-.1.2v.5a.319.319,0,0,0,.3.3h.2v9.5h-.2a.319.319,0,0,0-.3.3v.5a.319.319,0,0,0,.3.3h9.6v.2c0,.1.1.2.3.2h.4a.319.319,0,0,0,.3-.3v-2.9a.319.319,0,0,0-.3-.3h-.4c-.1,0-.2.1-.3.2v.2h-6.6v-2.1h4.2v.3c0,.1.1.2.3.2h.4a.319.319,0,0,0,.3-.3V211a.319.319,0,0,0-.3-.3H382c-.1,0-.2.1-.3.2v.2h-4.2v-2h6.6v.2c0,.1.1.2.3.2h.4a.319.319,0,0,0,.3-.3v-2.9a.319.319,0,0,0-.3-.3" fill="#254558"/>
    <path id="Path_30" data-name="Path 30" d="M388.4,206.8a.319.319,0,0,0-.3.3v.5c0,.1.1.3.2.3h.2v9.5h-.2c-.1,0-.2.1-.2.3v.5a.319.319,0,0,0,.3.3h3.1a.319.319,0,0,0,.3-.3v-.5c0-.1-.1-.3-.2-.3h-.2v-9.5h.2c.1,0,.2-.1.2-.3v-.5a.319.319,0,0,0-.3-.3" fill="#254558"/>
    <path id="Path_31" data-name="Path 31" d="M420.7,206.8a.319.319,0,0,0-.3.3v.5c0,.1.1.3.2.3h.2v9.5h-.2c-.1,0-.2.1-.2.3v.5a.319.319,0,0,0,.3.3h3.1a.319.319,0,0,0,.3-.3v-.5c0-.1-.1-.3-.2-.3h-.2v-9.5h.2c.1,0,.2-.1.2-.3v-.5a.319.319,0,0,0-.3-.3" fill="#254558"/>
    <path id="Path_32" data-name="Path 32" d="M404.3,206.4c-.1,0-.2.1-.3.2v.2h-8.7v-.2c0-.1-.1-.2-.3-.2h-.4a.319.319,0,0,0-.3.3v2.9a.319.319,0,0,0,.3.3h.4c.1,0,.2-.1.3-.2v-.2h3v8H398a.319.319,0,0,0-.3.3v.5a.319.319,0,0,0,.3.3h3.3a.319.319,0,0,0,.3-.3v-.5a.319.319,0,0,0-.3-.3H401v-8h3v.2c0,.1.1.2.3.2h.4a.319.319,0,0,0,.3-.3v-2.9a.319.319,0,0,0-.3-.3" fill="#254558"/>
    <path id="Path_33" data-name="Path 33" d="M408.1,206.8l-.2.1-.1.2v.2c0,.3,0,.5.3.5h.2v9.5h-.2a.319.319,0,0,0-.3.3v.5a.319.319,0,0,0,.3.3h8.5l.1.1v.2c0,.1.1.2.3.2h.4a.319.319,0,0,0,.3-.3v-3a.319.319,0,0,0-.3-.3c-.6,0-.7,0-.7.2h0v.3h-5.6v-8h.2l.2-.1.1-.2V207a.319.319,0,0,0-.3-.3" fill="#254558"/>
    <path id="Path_34" data-name="Path 34" d="M436.3,206.8a.319.319,0,0,0-.3.3v.5c0,.1.1.3.2.3h.2v6.2c-1.7-2.1-4.3-5.2-5.2-6.3.1,0,.1-.1.1-.2v-.5a.319.319,0,0,0-.3-.3h-3.6a.319.319,0,0,0-.3.3v.5a.319.319,0,0,0,.3.3h.2v9.5h-.2c-.1,0-.2.1-.2.3v.5a.319.319,0,0,0,.3.3h2.9a.319.319,0,0,0,.3-.3v-.5a.319.319,0,0,0-.3-.3h-.2v-6.6c3,3.5,4.7,5.5,5.5,6.5a.349.349,0,0,1,.1.2.215.215,0,0,0-.2.2v.5a.319.319,0,0,0,.3.3h3.2a.319.319,0,0,0,.3-.3v-.5a.319.319,0,0,0-.3-.3h-.2v-9.5h.2a.319.319,0,0,0,.3-.3v-.5a.319.319,0,0,0-.3-.3" fill="#254558"/>
    <path id="Path_35" data-name="Path 35" d="M452.2,210.6h0m-8.5-1.9a5.606,5.606,0,0,0-1.7,4,5.946,5.946,0,0,0,1.6,4,6.962,6.962,0,0,0,4.9,1.9,9.431,9.431,0,0,0,6-2h0l.1-.2.1-.2-.1-.2-.3-.3v-2.6h.1a.215.215,0,0,0,.2-.2v-.5a.319.319,0,0,0-.3-.3h-5.2v-.2a.215.215,0,0,0-.2-.2h-.5a.319.319,0,0,0-.3.3v2.7a.319.319,0,0,0,.3.3h.5c.1,0,.2-.1.3-.2v-.2h2.4v.9a6.356,6.356,0,0,1-3.3.7,3.864,3.864,0,0,1-2.7-1.1,3.1,3.1,0,0,1-.9-2.2,3.692,3.692,0,0,1,4-3.6,6.071,6.071,0,0,1,3.4,1.2l.1.1a1.007,1.007,0,0,1-.1.3v.1c0,.1,0,.2.1.2l.4.2h.2l.2-.1,1.6-2.7v-.2l-.1-.2-.4-.2h-.3a1.438,1.438,0,0,0-.3.2l-.3-.1-.2-.1a9.561,9.561,0,0,0-4.4-1.3,6.632,6.632,0,0,0-4.9,2" fill="#254558"/>
    <path id="Path_36" data-name="Path 36" d="M353.6,215.5a1.6,1.6,0,0,1-1.1.4h-4.3v-2.2h3.7a2.575,2.575,0,0,1,1.8.5.844.844,0,0,1,.2.7.713.713,0,0,1-.3.6m-5.5-6.2h4.1a1.609,1.609,0,0,1,1.1.3.764.764,0,0,1,.2.5.908.908,0,0,1-.3.7,1.528,1.528,0,0,1-1,.4h-4.1v-1.9Zm7.2,3a2.665,2.665,0,0,0,.9-2,3.406,3.406,0,0,0-.9-2.4,3.62,3.62,0,0,0-2.7-1h-7.3a.319.319,0,0,0-.3.3v.5c0,.1.1.3.2.3h.2v9.5h-.2c-.1,0-.2.1-.2.3v.5a.319.319,0,0,0,.3.3h7.5c1.9,0,3.8-1.1,3.8-3.5a3.29,3.29,0,0,0-1.3-2.8" fill="#254558"/>
    <path id="Path_37" data-name="Path 37" d="M371,217.4h0m-2.7-6.2a1.33,1.33,0,0,1-.8.3h-4.4v-2.1h4.1a1.594,1.594,0,0,1,1.2.4.735.735,0,0,1,.2.6,1.136,1.136,0,0,1-.3.8m3.2,6.2h-.3c-.1,0-.2,0-.2-.1-.1-.1-1.8-3.2-2-3.7a3.175,3.175,0,0,0,2.4-3.3,2.964,2.964,0,0,0-1-2.4,4.331,4.331,0,0,0-3.1-1.1h-7a.319.319,0,0,0-.3.3v.5a.319.319,0,0,0,.3.3h.3v9.5h-.3a.319.319,0,0,0-.3.3v.5a.319.319,0,0,0,.3.3h3.1l.2-.1.1-.2v-.5c0-.1-.1-.3-.2-.3h-.2V214h2.9a11.6,11.6,0,0,1,.8,1.6c.4.7.7,1.4,1,1.9h-.1l-.1.2v.5a.319.319,0,0,0,.3.3h3.4a.319.319,0,0,0,.3-.3c-.2-.7-.2-.7-.3-.8" fill="#254558"/>
    <path id="Path_38" data-name="Path 38" d="M404.5,185.7a5.437,5.437,0,0,1-.8.4c-.6,0-.7-.1-.7-.3,0-.1.1-.3.7-.3.2.1.5.1.8.2m-3.6-3.8c2.1-1.1,4.3-1.6,5.4-.2.8.9.2,2.1-.7,3.1a4.013,4.013,0,0,0-1.5-.3c-1.7,0-2.4.9-2.4,1.5,0,.7.6,1.2,1.9,1.2a3.8,3.8,0,0,0,1.8-.6,2.86,2.86,0,0,1,.5,1.7c0,2.5-1.6,4.2-2.9,4.2a2.285,2.285,0,0,1-2-1.4Zm-2.2,8c-2,2.5-4.3,3.5-5.3,2.1-1-1.3-.5-4.4,4.4-8.1.3-.2.7-.5,1-.7Zm11.4,3a7.593,7.593,0,0,1-4,3.3c.2.3.4.7.7,1.1a9.449,9.449,0,0,1-4.3,2.3c-.2-.5-.7-.8-1.5-1l-.1-5.1a4.815,4.815,0,0,0,2.4.7,4.891,4.891,0,0,0,4.7-5,5.239,5.239,0,0,0-1.4-3.6c1.5-1.4,2.7-3.4,1.3-5-1.3-1.5-4-1.4-7.2,0v-1.4a2.062,2.062,0,0,0,1.1-1.8,2,2,0,1,0-4,0,1.889,1.889,0,0,0,1.1,1.8v2.4c-.3.2-.5.3-.8.5-7,4.4-8.3,9.6-6,11.8,1.9,1.8,4.6-.2,6.7-2.6l-.1,7.2a2.488,2.488,0,0,0-1.5,1,8.966,8.966,0,0,1-4.3-2.3,3.378,3.378,0,0,0,.7-1.1,7.593,7.593,0,0,1-4-3.3,8.218,8.218,0,0,0,1.3,6c.3-.2.6-.4,1-.7a10.277,10.277,0,0,0,6,3.5,2.857,2.857,0,0,1,1.9,1.8l.1.1.1-.1a2.662,2.662,0,0,1,1.9-1.8,10.5,10.5,0,0,0,6-3.5,6.07,6.07,0,0,0,1,.7,7.816,7.816,0,0,0,1.2-5.9" fill="#254558" fill-rule="evenodd"/>
    <path id="Path_39" data-name="Path 39" d="M414.2,191.3c-.2,0-.5-.1-.7-.1-.3,0-.4.1-.4.4a.51.51,0,0,0,.4.5.715.715,0,0,0,.9-.5c0-.2-.1-.3-.2-.3m1.3-1.2a11.134,11.134,0,0,0-1.7-.2c-.4,0-.7.7-.2.7a5.9,5.9,0,0,1,1.4.2c.6,0,.9-.6.5-.7m.9-1.1a5.609,5.609,0,0,0-2.1-.2c-.4.1-.5.5-.1.6.3,0,1.5.2,1.7.2.7.1.8-.6.5-.6m15.6.9a5.46,5.46,0,0,0,3.3-1.2c-6.7.9-14.3,0-18.9-.8-3.5-.6-5,.4-4.5,2.7a12.09,12.09,0,0,0,.5,1.8.863.863,0,0,0,1.1.6c1,0,1.9-.9,1.8-1.6a1.273,1.273,0,0,0,1.4-1.2c.8-.1,1.2-.7,1.1-1.2a11.475,11.475,0,0,0,1.4.2c.8.1.9.3.9.5s-.2.4-1,.3a4.4,4.4,0,0,1-1-.2,4.349,4.349,0,0,0-.6.7,5.159,5.159,0,0,0,1.1.2c.7.1.7.4.7.5,0,.2-.3.4-1.1.2a13.044,13.044,0,0,0-1.3-.3l-.6.6a6.889,6.889,0,0,1,.8.3c.6.2.7.4.6.6s-.4.4-1.1.1c-.2-.1-.6-.2-1-.4-.2.2-.4.3-.6.5.8.4,1.1.6.9.9s-.8.2-1.6-.3a2.092,2.092,0,0,1-.6.4,15.374,15.374,0,0,0,4.9,2,3.707,3.707,0,0,0,1.5-.4,14.384,14.384,0,0,1-3.7-1,.594.594,0,0,0,.5-.8,35.213,35.213,0,0,0,5.2,1.2,2.863,2.863,0,0,0,2.2-.6,25.062,25.062,0,0,1-6.2-1c.6-.1.7-.6.4-.9a53.11,53.11,0,0,0,6.8,1c1.7.1,2.7-.1,3.3-.8a39.178,39.178,0,0,1-8.8-.7c.6-.1.8-.6.4-.8a54.152,54.152,0,0,0,9.2.7,4.764,4.764,0,0,0,2.9-.9,47.5,47.5,0,0,1-11.3-.5c.6-.1.7-.6.2-.8a90.366,90.366,0,0,0,10.8.4m4.7-1.5c.2-.3.1-.6-.3-.6a67.89,67.89,0,0,1-20.3-.7c-3.9-.7-5.7,1-4.7,4.3.3,1,.5,1.5.8,2.5.7,2.5,2.7,3.5,5.1,2.3a3.978,3.978,0,0,0,3.9-1.1c2,.4,2.9.3,4.1-1.3,2.5.1,3.4-.3,4.3-1.7,1.8,0,3-.5,3.8-2a5.28,5.28,0,0,0,3.3-1.7m.2-2.3a72.346,72.346,0,0,1-20.1-.6,7.031,7.031,0,0,0-4.5.4c-.5.3-.5.7.2.4a7.874,7.874,0,0,1,3.6-.2c6.3,1,14.5,1.5,21,.5,1.3-.1,1.5-.8-.2-.5m-25.8,8.8a18.261,18.261,0,0,0-1.6-5.8c-.9-1.9-.7-3.5.4-4.6,1.4-1.3,2.7-1.3,8.6-.4a72.031,72.031,0,0,0,19.8.5c1.9-.3,2,1.9-.3,2.8.2,1.3-1.6,3.1-4,3.5a4.72,4.72,0,0,1-3.9,2.1c-1.2,1.4-2.2,1.8-4.4,1.7a4.313,4.313,0,0,1-4.3,1.4,4.6,4.6,0,0,1-3.8,1.1c-.7.5-5.9,2.6-6.5-2.3" fill="#254558" fill-rule="evenodd"/>
    <path id="Path_40" data-name="Path 40" d="M385.4,191.6a.715.715,0,0,0,.9.5.51.51,0,0,0,.4-.5c0-.3-.1-.4-.4-.4-.2,0-.5.1-.7.1s-.2.1-.2.3m-.7-.8a6.753,6.753,0,0,0,1.4-.2c.5,0,.3-.8-.2-.7-.2,0-1.4.2-1.7.2-.4.1,0,.7.5.7m-.8-1.3c.2,0,1.5-.2,1.7-.2.4,0,.3-.5-.1-.6a5.61,5.61,0,0,0-2.1.2c-.4.1-.2.8.5.6m-5.2-.1c-.5.3-.4.7.2.8a47.4,47.4,0,0,1-11.3.5,4.045,4.045,0,0,0,2.9.9,54.153,54.153,0,0,0,9.2-.7c-.4.3-.2.8.4.8a39.178,39.178,0,0,1-8.8.7c.7.7,1.6.9,3.3.8a53.11,53.11,0,0,0,6.8-1c-.3.3-.2.8.4.9a25.062,25.062,0,0,1-6.2,1,2.863,2.863,0,0,0,2.2.6,35.214,35.214,0,0,0,5.2-1.2.594.594,0,0,0,.5.8,16.958,16.958,0,0,1-3.7,1,2.6,2.6,0,0,0,1.5.4,14.1,14.1,0,0,0,4.9-2c-.2-.1-.4-.3-.6-.4-.9.5-1.5.6-1.6.3-.2-.3.1-.5.9-.9-.2-.2-.4-.3-.6-.5a5.135,5.135,0,0,0-1,.4c-.7.3-1,0-1.1-.1-.1-.2,0-.4.6-.6a6.891,6.891,0,0,1,.8-.3l-.6-.6c-.5.1-1.1.3-1.3.3-.7.2-1,0-1.1-.2,0-.2,0-.4.7-.5.3-.1.7-.1,1.1-.2-.2-.2-.4-.5-.6-.7a8.666,8.666,0,0,0-1,.2c-.9.1-1-.1-1-.3s.1-.4.9-.5c.3-.1.8-.1,1.4-.2-.1.5.3,1.1,1.1,1.2,0,.7.5,1.2,1.4,1.2-.1.7.8,1.6,1.8,1.6.6,0,.9-.1,1.1-.6a12.09,12.09,0,0,0,.5-1.8c.5-2.3-1-3.3-4.5-2.7-4.6.8-12.2,1.7-18.9.8a5.223,5.223,0,0,0,3.3,1.2,62.069,62.069,0,0,0,10.8-.4m-12.3.8c.8,1.5,2,2,3.8,2,.9,1.4,1.8,1.8,4.3,1.7,1.2,1.5,2.2,1.6,4.1,1.3a3.978,3.978,0,0,0,3.9,1.1c2.5,1.2,4.4.3,5.1-2.3.3-1.1.5-1.5.8-2.5,1-3.3-.8-5-4.7-4.3a67.89,67.89,0,0,1-20.3.7c-.4-.1-.6.2-.3.6a6.5,6.5,0,0,0,3.3,1.7m-3.7-3.5c6.5,1,14.7.5,21-.5a5.751,5.751,0,0,1,3.6.2c.7.3.7-.1.2-.4a7.031,7.031,0,0,0-4.5-.4c-6.7,1-14.3,1.4-20.1.6-1.7-.4-1.5.3-.2.5m19.6,10.4c-1.7.2-3.1-.2-3.8-1.1a4.061,4.061,0,0,1-4.3-1.4c-2.2.1-3.2-.3-4.4-1.7a4.72,4.72,0,0,1-3.9-2.1c-2.4-.4-4.3-2.1-4-3.5-2.3-.9-2.2-3.1-.3-2.8a72.031,72.031,0,0,0,19.8-.5c5.9-.9,7.2-.9,8.6.4,1.1,1.1,1.3,2.7.4,4.6a16.46,16.46,0,0,0-1.6,5.8c-.7,5-6,2.9-6.5,2.3" fill="#254558" fill-rule="evenodd"/>
    <path id="Path_41" data-name="Path 41" d="M396.5,224.6q-1.2,0-1.2-.6c0-.3.1-.6,1.2-.6,1.2,0,1.2.4,1.2.6,0,.4-.5.6-1.2.6m0-3.1c1.1,0,1.1.4,1.1.5s0,.5-1.1.5-1.1-.4-1.1-.5,0-.5,1.1-.5m1.4,1.4a1,1,0,0,0,.5-1c0-.7-.8-1.2-2-1.2-1.1,0-2,.5-2,1.2a1.1,1.1,0,0,0,.5,1,1.23,1.23,0,0,0-.7,1.1c0,.8.9,1.4,2.1,1.4,1.3,0,2.1-.6,2.1-1.4a.852.852,0,0,0-.5-1.1" fill="#254558"/>
    <path id="Path_42" data-name="Path 42" d="M401.1,224.6q-1.2,0-1.2-.6c0-.2,0-.6,1.2-.6s1.2.4,1.2.6q0,.6-1.2.6m0-3.1c1.1,0,1.1.4,1.1.5s0,.5-1.1.5-1.1-.4-1.1-.5c.1-.1.1-.5,1.1-.5m1.5,1.4a1,1,0,0,0,.5-1c0-.7-.8-1.2-2-1.2-1.1,0-2,.5-2,1.2a1.1,1.1,0,0,0,.5,1,1.23,1.23,0,0,0-.7,1.1c0,.8.9,1.4,2.1,1.4,1.3,0,2.1-.6,2.1-1.4a.852.852,0,0,0-.5-1.1" fill="#254558"/>
    <path id="Path_43" data-name="Path 43" d="M406.2,223.7h-1.4c.3-.3,1.1-1.3,1.4-1.7m1.5,1.5h0l-.2.1v.1h-.4v-2.5h0a.215.215,0,0,0,.2-.2v-.1a.215.215,0,0,0-.2-.2H406a.215.215,0,0,0-.2.2v.1l.1.1h0l-2.4,2.7v.6a.215.215,0,0,0,.2.2h.1l.2-.1h2.3v.4h0a.215.215,0,0,0-.2.2v.1a.215.215,0,0,0,.2.2h.9a.215.215,0,0,0,.2-.2v-.1c0-.1-.1-.1-.2-.2h0v-.4h.4v.1l.2.1h.1a.215.215,0,0,0,.2-.2v-.9a.756.756,0,0,0-.4-.1" fill="#254558"/>
  </g>
</svg>
