<svg xmlns="http://www.w3.org/2000/svg" width="157.153" height="43.549" viewBox="0 0 157.153 43.549">
  <path id="cartier" d="M208.937,134.455a2.5,2.5,0,0,0,2.316-2.676c0-.742-.383-1.473-1.192-1.473-1.282,0-2.518,1.675-2.518,2.9A1.239,1.239,0,0,0,208.937,134.455Zm46.168,4.137c-4.149,0-7.712,2.759-10.635,5.412l2.721-5.1h-3.732l-.888,1.536a21.673,21.673,0,0,1-2.54,3.337,59.822,59.822,0,0,1-7.723,7.531c-3.305,2.653-9.971,7.357-14.535,7.357a3.574,3.574,0,0,1-3.575-3.477,9.687,9.687,0,0,1,1.091-3.858,19.518,19.518,0,0,0,5.1-.573c3.339-.911,6.936-2.473,9.341-5.048a7.058,7.058,0,0,0,2.215-4.452c0-2.237-2.249-3.26-4.215-3.26-6.1,0-12.108,6.823-15.783,11.107l-6.655,5.788c-1.608,1.4-4.025,3.228-6.2,3.228a1.336,1.336,0,0,1-1.282-1.36,3.684,3.684,0,0,1,.54-1.839l9.162-16.016h-3.7l-1.7,2.727c-.618,1.012-1.237,2-1.934,2.966a40.714,40.714,0,0,1-4.429,5.012,59.655,59.655,0,0,1-6.992,6.154c-1.36.989-2.877,2.065-4.62,2.065-.777,0-1.889-.417-1.889-1.339a4.438,4.438,0,0,1,.72-2.057l9.262-16.051h5.52l.3-.524H192.5l4.777-8.382h-3.743l-2.766,4.648a25.426,25.426,0,0,1-8.521,8.485,4.043,4.043,0,0,1-1.911.79.814.814,0,0,1-.472-.177,3.427,3.427,0,0,0,1.315-2.568c0-1.462-1.315-2.071-2.619-2.071a13.234,13.234,0,0,0-6.61,2.229l1.09-1.908h-4l-2.372,4.312a38.174,38.174,0,0,1-10.555,11.689c-1.619,1.27-4.047,3.2-6.239,3.2a1.642,1.642,0,0,1-1.765-1.479,4.7,4.7,0,0,1,.787-2.259l8.836-15.466h-3.788l-2.013,3.458c-.09-3.069-1.551-4.611-4.721-4.611-6.015,0-11.612,4.709-15.063,9.239a22.594,22.594,0,0,0-2.676,4.671c-4.62,3.091-11.185,7.449-16.873,7.449-5.249,0-8.071-3.43-8.071-8.568a29.344,29.344,0,0,1,3.271-12.478c3.879-8.049,10.309-15.176,18.38-19.133a16.88,16.88,0,0,1,7.262-1.855c3.35,0,8.3,1.843,8.3,5.8a8.232,8.232,0,0,1-.4,2.338l.562.371c1.27-3.462,2.63-5.7,5.722-7.79l-.562-.584a7.811,7.811,0,0,1-4.474,1.956,2.954,2.954,0,0,1-1.45-.292l-2.293-1.248a10.97,10.97,0,0,0-5.284-1.113,17.816,17.816,0,0,0-4.148.506,34.791,34.791,0,0,0-13.7,6.969,48.45,48.45,0,0,0-12.433,15.49c-1.529,3.059-2.889,6.431-2.889,9.9,0,6.4,4.542,10.68,10.882,10.68,6.216,0,13.04-4.136,17.986-7.633a9.4,9.4,0,0,0-.506,2.676,4.925,4.925,0,0,0,5.171,4.822c4.249,0,8.094-3.012,10.9-5.947a7.461,7.461,0,0,0-.854,3.046c0,1.733,1.473,2.518,3.057,2.518,5.9,0,12.2-6.022,16.087-10.136L157.327,159.6h3.935l8.116-14.213a11.133,11.133,0,0,1,3.608-4.25,11.631,11.631,0,0,1,5.61-1.946c.663,0,1.652.472,1.652,1.259a2,2,0,0,1-.158.68,1.734,1.734,0,0,0-.877-.261,2.149,2.149,0,0,0-2.158,2.078,1.844,1.844,0,0,0,2,1.821c1.753,0,3.3-1.2,4.62-2.226,1.529-1.192,2.979-2.451,4.384-3.767l-7.813,13.715c-.719,1.26-1.708,2.709-1.708,4.216,0,1.809,1.708,2.754,3.315,2.754,2.53,0,4.879-1.317,6.892-2.744a62.322,62.322,0,0,0,9.858-9.071l-3.08,5.407c-.652,1.135-1.552,2.338-1.552,3.7,0,2.014,1.529,2.676,3.395,2.676,4.946,0,9.949-5.091,13.377-8.263a13.263,13.263,0,0,0-.506,3.1c0,3.563,3.047,5.418,6.34,5.418,3.44,0,6.689-1.561,9.566-3.282a60.878,60.878,0,0,0,7.948-5.711,51.332,51.332,0,0,0,6.093-6.1L231.542,159.6h3.833l5.329-9.232a25.231,25.231,0,0,1,8.6-9.208,11.332,11.332,0,0,1,5.5-1.934,1.7,1.7,0,0,1,1.708,1.045,5.7,5.7,0,0,0-.629-.051,2.265,2.265,0,0,0-2.3,2,1.527,1.527,0,0,0,1.45,1.415,2.851,2.851,0,0,0,2.507-2.8A2.232,2.232,0,0,0,255.1,138.591Zm-28.036.191c1.011,0,2.215.472,2.215,1.63,0,2.215-2.125,4.857-3.62,6.294a13.87,13.87,0,0,1-9.162,3.97c-.349,0-.685-.023-1.034-.035C217.637,147.023,222.347,138.783,227.068,138.783Zm-91.841,19.875c-1.979,0-3.058-1.687-3.058-3.509a10.277,10.277,0,0,1,1.3-4.518,27.639,27.639,0,0,1,8.318-9.96,9.774,9.774,0,0,1,5.756-2.361,3.364,3.364,0,0,1,3.62,3.35c0,2.822-2.249,6.171-3.9,8.386C144.659,153.543,139.825,158.658,135.227,158.658Z" transform="translate(-100.379 -116.513)" fill="#254558"/>
</svg>
