<svg xmlns="http://www.w3.org/2000/svg" width="53.218" height="50.174" viewBox="0 0 53.218 50.174">
  <g id="chanel" transform="translate(-271.83 -71.813)">
    <g id="Group_200" data-name="Group 200" transform="translate(271.83 71.813)">
      <path id="Path_384" data-name="Path 384" d="M298.438,108.326a19.112,19.112,0,0,1-9.554,2.537,19.561,19.561,0,0,1-16.865-9.715c0-.028-.026-.028-.026-.054s-.027-.028-.027-.055l2.753-1.43,2.752-1.4a.378.378,0,0,1,.08.109,13.32,13.32,0,0,0,11.333,6.341,14.106,14.106,0,0,0,4.346-.7,19.163,19.163,0,0,1-4.722-12.63A19.363,19.363,0,0,1,293.176,78.7a13.107,13.107,0,0,0-4.292-.7A13.381,13.381,0,0,0,277.391,84.6a.1.1,0,0,0-.028.082l-5.532-2.86a.687.687,0,0,1,.082-.135,19.554,19.554,0,0,1,16.972-9.877,18.861,18.861,0,0,1,9.554,2.563,18.869,18.869,0,0,1,9.554-2.563,19.554,19.554,0,0,1,16.974,9.877.675.675,0,0,1,.082.135l-5.532,2.86a.1.1,0,0,0-.028-.082,13.379,13.379,0,0,0-11.5-6.612,13.115,13.115,0,0,0-4.292.7,19.331,19.331,0,0,1-.053,25.259,14.1,14.1,0,0,0,4.344.7,13.321,13.321,0,0,0,11.334-6.341.421.421,0,0,1,.081-.109l2.753,1.4,2.752,1.43c0,.027-.026.027-.026.055s-.027.026-.027.054a19.561,19.561,0,0,1-16.866,9.715,19.119,19.119,0,0,1-9.554-2.537Zm0-7.746a13.5,13.5,0,0,1-3.722-9.256,12.988,12.988,0,0,1,3.722-9.147,12.98,12.98,0,0,1,3.726,9.147,13.5,13.5,0,0,1-3.726,9.256Z" transform="translate(-271.83 -71.813)" fill="#254558" fill-rule="evenodd"/>
    </g>
    <g id="Group_201" data-name="Group 201" transform="translate(272.035 113.686)">
      <path id="Path_385" data-name="Path 385" d="M280.444,282.465a.381.381,0,0,0-.026.056,4.031,4.031,0,0,1-3.551,2.167,4.152,4.152,0,0,1,0-8.3,4.023,4.023,0,0,1,3.557,2.2.369.369,0,0,1,.044.076c.007.007-1.289.941-1.3.922a.122.122,0,0,0-.026-.057,2.4,2.4,0,0,0-2.275-1.529,2.54,2.54,0,0,0,0,5.079,2.478,2.478,0,0,0,2.237-1.465c.019-.032.025-.057.038-.082l1.3.928Z" transform="translate(-272.831 -276.388)" fill="#254558" fill-rule="evenodd"/>
      <path id="Path_386" data-name="Path 386" d="M318.2,276.759h1.555v2.9h4.081v-2.9H325.4v8.067h-1.566v-3.544h-4.081v3.544H318.2v-8.067Z" transform="translate(-308.915 -276.683)" fill="#254558" fill-rule="evenodd"/>
      <path id="Path_387" data-name="Path 387" d="M460.549,284.826v-8.067h5.641v1.63h-4.068V280h3.759v1.611h-3.759v1.611h4.643v1.6Z" transform="translate(-422.126 -276.683)" fill="#254558" fill-rule="evenodd"/>
      <path id="Path_388" data-name="Path 388" d="M501.688,284.826v-8.067h1.58v6.463h4.384v1.6Z" transform="translate(-454.845 -276.683)" fill="#254558" fill-rule="evenodd"/>
      <path id="Path_389" data-name="Path 389" d="M412.99,284.826h-1.579v-8.067H413.6l3.456,4.852v-4.852h1.566v8.067h-1.251l-4.385-6.083v6.083Z" transform="translate(-383.046 -276.683)" fill="#254558" fill-rule="evenodd"/>
      <path id="Path_390" data-name="Path 390" d="M364.206,278.389l-1.378,3.222h2.818l-1.44-3.222Zm-2.085,4.833-.72,1.6h-1.87l3.576-8.067h2.186l3.6,8.067h-1.87l-.726-1.6Z" transform="translate(-341.785 -276.683)" fill="#254558" fill-rule="evenodd"/>
    </g>
  </g>
</svg>
