<svg xmlns="http://www.w3.org/2000/svg" width="96.302" height="49.9" viewBox="0 0 96.302 49.9">
  <g id="corum" transform="translate(-352.325 -175.1)">
    <path id="Path_132" data-name="Path 132" d="M400,190h0c-.1.1-.1.1-.1,0s.1-.1.1,0Z" fill="#254558" fill-rule="evenodd"/>
    <path id="Path_133" data-name="Path 133" d="M401.2,190h0c0-.1.1,0,0,0Z" fill="#254558" fill-rule="evenodd"/>
    <path id="Path_134" data-name="Path 134" d="M399.4,183.8h.2c.1,0,.1.1.1.2v2c-.1.2-.3.3-.3.6a1.493,1.493,0,0,0,.3.7c.1.1,0,.2-.1.3h-.1a3.333,3.333,0,0,0-2.1-.9h0a3.453,3.453,0,0,0-1.8.5,2.979,2.979,0,0,0-1.4,3,3.231,3.231,0,0,0,2.1,2.4.1.1,0,0,1,.1.1,1.113,1.113,0,0,0-.3,1,.9.9,0,0,0,.6.6h.1a.749.749,0,0,0,.5-.1h.1a1.7,1.7,0,0,0,.1.7,2.761,2.761,0,0,0,1.8,2.2c.1,0,.2.1.3.1a8.142,8.142,0,0,0,.9.2h.5a3.072,3.072,0,0,0,2.6-2.6,1.7,1.7,0,0,1,.1-.7c.1-.1.1,0,.2,0a1.163,1.163,0,0,0,1-.2,1.135,1.135,0,0,0,.3-.8c-.1-.3-.3-.4-.4-.6a.1.1,0,0,1,.1-.1,3.073,3.073,0,0,0,2.1-1.9,3.013,3.013,0,0,0-.4-2.6,3.316,3.316,0,0,0-2.1-1.3h-.2a3.458,3.458,0,0,0-2.1.5,2.652,2.652,0,0,0-.6.5h-.1c0-.1-.1-.2,0-.3h.1a.61.61,0,0,0,.3-.7c0-.3-.3-.3-.3-.6v-2.1a.1.1,0,0,1,.1-.1h.9c.1-.2,0-.5.1-.7h.4c.2.1.1.3.1.5,0,.1,0,.2.1.2h1.8c.1,0,.2,0,.2-.1v-1.2l-.1-.1c-.2-.1-.5,0-.8-.1a.6.6,0,0,1-.1-.4c.1-.2.5-.1.7-.1.1,0,.1-.1.1-.2v-1.2a.1.1,0,0,0-.1-.1h-1.9c-.1.2,0,.5-.1.7-.1.1-.3,0-.4,0-.2-.1,0-.5-.1-.7-.2-.1-.3,0-.5,0a.6.6,0,0,1-.1-.4c0-.2.4-.1.4-.1.4.1.1-.4.3-.6a.446.446,0,0,1,.5,0c.2.2,0,.5.2.7h1.9l.1-.1v-1.2l-.1-.1h-.7a.6.6,0,0,1-.1-.4c0-.1.1-.1.1-.2h.7c.1,0,.1,0,.1-.1v-1.3a.1.1,0,0,0-.1-.1h-1.8c-.2.1-.1.4-.1.6,0,.1-.2.1-.2.1h-.2c-.3,0-.1-.5-.2-.7h-.8c-.3-.1-.1-.5-.2-.7a1.069,1.069,0,0,0-.9-.6s-.3,0-.4.1a1.085,1.085,0,0,0-.5,1.1c0,.2-.4.2-.5.2h-.5c-.3,0-.1.5-.3.7-.1.1-.3,0-.4,0-.3-.1-.1-.5-.2-.7h-1.9a.1.1,0,0,0-.1.1v1.2l.1.1c.2.1.7,0,.8.1,0,.1.1.3,0,.4,0,.1-.2,0-.3,0-.2.1-.6-.1-.6.1v1.1c0,.1,0,.3.1.3H398c.1-.1,0-.4.1-.6a.446.446,0,0,1,.5,0c.2.1,0,.5.2.6.1,0,.4,0,.5.1s0,.3,0,.4c-.1.2-.3.1-.5.1-.2.1-.1.5-.2.7a.367.367,0,0,1-.3.1h0c-.4.1-.1-.6-.3-.7h-1.9c-.1,0-.1,0-.1.1v1.2c.1.1.4,0,.4.1h0a.749.749,0,0,1,.5.1v.4c-.2.1-.6,0-.8.1v1.3c0,.2.3.1.3.1h1.5c.4.1.2-.5.3-.7.1-.1.2,0,.3,0,.4,0,.1.6.3.8l.6-.3Zm5.4,6.8a1.12,1.12,0,0,1-.8.7,1.183,1.183,0,0,1-1,.1c-.1-.1-.2-.3-.3-.4v-.1c-.2.1-.1.5-.3.4a1.072,1.072,0,0,0-.6-.2,1,1,0,0,0-.5.4.778.778,0,0,0,.2.8v.1c-.1.2-.4.3-.4.6.1,0,.2-.1.4-.1h0a1.02,1.02,0,0,1,.8.5,1.377,1.377,0,0,1-.5,1.5,1.82,1.82,0,0,1-1.1.4h-.2A1.693,1.693,0,0,1,399,194c-.1-.4,0-.8.2-.9a.94.94,0,0,1,.9-.1.1.1,0,0,0,.1-.1c-.1-.2-.3-.3-.4-.4-.1-.2.1-.2.1-.4.1-.2.1-.5-.1-.6l-.2-.2c-.1,0-.3-.1-.4-.1s-.3.2-.4,0-.1-.3-.3-.4h0c-.1.1-.1.3-.2.4a.812.812,0,0,1-.8.4h0a1.234,1.234,0,0,1-.8-.4,1.536,1.536,0,0,1-.5-1.6,1.714,1.714,0,0,1,1.6-1.1h.2a1.326,1.326,0,0,1,1,.6.94.94,0,0,1-.1.9v.1s.2,0,.2-.1c.4-.1.6-.4.8-.8.1,0,.2.1.3.2a.454.454,0,0,0,.5,0c.1,0,.2-.1.3-.2.2,0,.2.2.3.3a1.578,1.578,0,0,0,.8.5h0a1.412,1.412,0,0,1-.1-.9c.2-.4.7-.5,1-.6a1.623,1.623,0,0,1,1.6.8,1.227,1.227,0,0,1,.2,1.3Z" fill="#254558" fill-rule="evenodd"/>
    <path id="Path_135" data-name="Path 135" d="M400.3,190.6h0c-.1-.1,0-.1,0,0Z" fill="#254558" fill-rule="evenodd"/>
    <path id="Path_136" data-name="Path 136" d="M398.8,192.2c0,.1-.1.1-.2.1a.1.1,0,0,1,0-.2c.2,0,.2.1.2.1Z" fill="#254558" fill-rule="evenodd"/>
    <path id="Path_137" data-name="Path 137" d="M402.6,192.2h0c0,.1-.1.1-.1,0-.1-.1.1-.1.1,0Z" fill="#254558" fill-rule="evenodd"/>
    <path id="Path_138" data-name="Path 138" d="M397.9,192.8a.215.215,0,0,1-.2.2.1.1,0,0,1-.1-.1v-.1c.1,0,.2-.1.3,0Z" fill="#254558" fill-rule="evenodd"/>
    <path id="Path_139" data-name="Path 139" d="M403.6,192.8a.349.349,0,0,1-.1.2c-.1,0-.1-.1-.2-.2v-.1c.1,0,.3,0,.3.1Z" fill="#254558" fill-rule="evenodd"/>
    <path id="Path_140" data-name="Path 140" d="M365.2,202.5c.3.1.8.4,1.1.1.1,0,.3-.2.5-.1a1.7,1.7,0,0,1,.1.7l.1,3.9c0,.2,0,.3-.2.4h-.2a11.049,11.049,0,0,0-3.3-3.1,11.364,11.364,0,0,0-4.4-1.2,4.379,4.379,0,0,0-4.3,2.7,6.823,6.823,0,0,0-.1,4,6.068,6.068,0,0,0,1.8,3,8.13,8.13,0,0,0,3.3,2.1,4.146,4.146,0,0,0,1.6.3h1.2a9.36,9.36,0,0,0,4.1-1.5,12.606,12.606,0,0,0,2-2c.2-.2.3-.4.6-.4.2.1.1.4,0,.6a8.248,8.248,0,0,1-5,5,9.807,9.807,0,0,1-3.1.7,13.917,13.917,0,0,1-1.7-.1,9.955,9.955,0,0,1-2.6-.9,8.048,8.048,0,0,1-3.7-4,8.162,8.162,0,0,1,0-6.5,8.812,8.812,0,0,1,3.3-3.8,9.629,9.629,0,0,1,3.7-1.3c-.1.2,2.6-.1,5.2,1.4Z" fill="#254558" fill-rule="evenodd"/>
    <path id="Path_141" data-name="Path 141" d="M418.8,218a6.86,6.86,0,0,1-6.8-4.8,10.9,10.9,0,0,1-.3-2.6V203c0-.6-.4-.8-.8-1v-.2c.1-.2.4-.1.5-.1h3.7a.367.367,0,0,1,.3.1c0,.2-.2.3-.4.4a1.267,1.267,0,0,0-.4.9V211c0,4.7,4.6,4.7,4.6,4.7a8.9,8.9,0,0,0,1.9-.3,5.259,5.259,0,0,0,2.8-2.3,7.045,7.045,0,0,0,.4-2.9v-7.1c0-.5-.4-.8-.7-1.1a.138.138,0,0,1,0-.2.6.6,0,0,1,.4-.1h1.5c.4,0,.7,0,.9.2,0,.3-.3.3-.4.5-.5.5-.3,1.3-.4,2v6.3a7.235,7.235,0,0,1-1.6,4.9,7.692,7.692,0,0,1-5.2,2.4Z" fill="#254558" fill-rule="evenodd"/>
    <path id="Path_142" data-name="Path 142" d="M447.8,201.6h0a1.2,1.2,0,0,1,.8.2c.1.2-.1.2-.2.3a1.174,1.174,0,0,0-.6,1v13.6c0,.4.4.7.6.9v.2c-.3.2-.6,0-1.1.1h-3.2c-.1,0-.1-.1-.1-.2.1-.3.5-.3.6-.6a3.645,3.645,0,0,0,.2-1.5v-9.7c0-.1,0-.2-.1-.2s-.1.1-.2.1c-.4.7-.7,1.4-1.1,2.2l-1.1,2.2c-1.2,2.2-2.3,4.5-3.4,6.7-.1.3-.2.7-.5.7a1.794,1.794,0,0,1-.5-.7l-4.2-7.8a10.907,10.907,0,0,1-.6-1.1,17.377,17.377,0,0,1-1-1.9c-.1-.1-.1-.1-.2-.1a.1.1,0,0,0-.1.1c-.1,1.3,0,2.7-.1,4.1v5c0,.8-.2,1.8.4,2.3.1.1.2.1.3.3,0,.1-.1.1-.1.2h-2.7a.215.215,0,0,1-.2-.2c.1-.2.4-.3.5-.4a1.135,1.135,0,0,0,.3-.8l.1-2.7V203.5c0-.4-.1-.9-.5-1-.1-.1-.4-.2-.3-.4.2-.2.6-.1,1-.2a20.34,20.34,0,0,1,2.2.1c.4.1.6.6.8,1,.5.8,4.5,8.5,5,9.2.2.3.3.8.6,1,.1.1.1,0,.2,0,.3-.4,5.2-10.4,5.3-10.6.2-.4.4-.8.9-.7l2.3-.3Z" fill="#254558" fill-rule="evenodd"/>
    <path id="Path_143" data-name="Path 143" d="M395.9,214.1v-3.5c0-.1.2-.2.3-.3a2.694,2.694,0,0,1,2,.3,10.614,10.614,0,0,1,2,1.7c1.1,1.2,2,2.8,3.2,3.9a5.981,5.981,0,0,0,3,1.4,1.268,1.268,0,0,1,.6.1h.5a12.033,12.033,0,0,0,1.9,0,.1.1,0,0,0,.1-.1c0-.1-.1-.1-.2-.1a5.275,5.275,0,0,1-2.5-1.2c-1.4-1-2.2-2.7-3.4-4a7.639,7.639,0,0,0-2.3-1.7c-.1,0-.1-.1-.1-.2s.1-.1.2-.1h1a13.053,13.053,0,0,0,1.7-.1,4.136,4.136,0,0,0,1.9-.5,4.569,4.569,0,0,0,1.6-1.1,4.731,4.731,0,0,0,.4-5,4.822,4.822,0,0,0-2.9-1.9h-.3c-.3,0-.6-.1-.9-.1h0c-.3-.1-1,0-1.1-.1H392.5c-.3.1-.2.2-.2.3a1.756,1.756,0,0,1,.5.4,1.628,1.628,0,0,1,.3.6v10l-.1,2.6v.8a1.235,1.235,0,0,1-.4.8c-.1.2-.4.2-.4.5.1.2.3.1.5.2h3.2a1.7,1.7,0,0,0,.7-.1v-.2a1.7,1.7,0,0,1-.6-.8l-.1-2.5Zm0-9.8a5.7,5.7,0,0,1,.1-1.3c.2-.3.8-.1,1.1-.2h4.3a4.1,4.1,0,0,1,1.1.1h0a2.708,2.708,0,0,1,2.3,1.8,3.583,3.583,0,0,1-.6,3.6,2.732,2.732,0,0,1-2.2.8h-5.4c-.2,0-.7,0-.8-.3v-4.5Z" fill="#254558" fill-rule="evenodd"/>
    <path id="Path_144" data-name="Path 144" d="M387.7,205.6a8.622,8.622,0,0,0-1.4-1.8,19.227,19.227,0,0,0-1.7-1.3,10.378,10.378,0,0,0-3.1-1.1c-.2,0-.7-.1-.9-.1h0a9.034,9.034,0,0,0-4.3.9,9.23,9.23,0,0,0-2.9,2.3,7.222,7.222,0,0,0-1.4,2.6,8.191,8.191,0,0,0,5.3,10.3,15.325,15.325,0,0,0,3.2.5,8.6,8.6,0,0,0,7.4-4.7,5.023,5.023,0,0,0,.5-1.3,7.29,7.29,0,0,0-.7-6.3Zm-1.8,8.2a4.422,4.422,0,0,1-1.3,1.4,5.306,5.306,0,0,1-1.7.8,3.083,3.083,0,0,1-1,.1s-1.7.3-4.7-1.8a9.883,9.883,0,0,1-3.3-5.7l-.1-.9a6.083,6.083,0,0,1,.8-2.7,4.634,4.634,0,0,1,4.2-1.7,1.268,1.268,0,0,1,.6.1,8.78,8.78,0,0,1,2.3.7c.3.2.7.3,1,.5a11.51,11.51,0,0,1,1.7,1.4,7.179,7.179,0,0,1,1.6,2.7,5.706,5.706,0,0,1-.1,5.1Z" fill="#254558" fill-rule="evenodd"/>
    <path id="Path_145" data-name="Path 145" d="M392.9,221.9c0,.1,0,.2-.1.2s-.1,0-.1-.2a.661.661,0,0,0-.7-.6.53.53,0,0,0-.6.6c0,.3.2.5.8.7.7.3.9.6.9,1.1,0,.7-.5,1.1-1.3,1.1a2.388,2.388,0,0,1-.9-.2c-.1,0-.1-.1-.1-.3v-.5c0-.1,0-.2.1-.2a.1.1,0,0,1,.1.1,1.055,1.055,0,0,0,.9.9.684.684,0,0,0,.7-.7c0-.4-.2-.6-.8-.9-.7-.3-.9-.6-.9-1.1a1.028,1.028,0,0,1,1.1-1c.3,0,.6.1.8.1.1,0,.1.1.1.3v.6Z" fill="#254558" fill-rule="evenodd"/>
    <path id="Path_146" data-name="Path 146" d="M397.1,223.8a1.222,1.222,0,0,1-.3.9,1.493,1.493,0,0,1-1,.3,1.8,1.8,0,0,1-1.1-.3.975.975,0,0,1-.4-.9v-1.9c0-.3-.1-.4-.3-.4s-.2,0-.2-.1,0-.1.1-.1h1.4c.1,0,.1,0,.1.1s0,.1-.2.1-.3.1-.3.4v1.8a1.69,1.69,0,0,0,.2.9.844.844,0,0,0,.7.2c.3,0,.7-.1.8-.3a1.072,1.072,0,0,0,.2-.6V222c0-.5,0-.6-.4-.6-.2,0-.2,0-.2-.1s0-.1.1-.1h1.1c.1,0,.1,0,.1.1s0,.1-.2.1c-.3,0-.3.1-.3.5l.1,1.9Z" fill="#254558" fill-rule="evenodd"/>
    <path id="Path_147" data-name="Path 147" d="M399.2,224.3c0,.3.1.4.3.4s.2,0,.2.1,0,.1-.1.1h-1.4c-.1,0-.1,0-.1-.1s0-.1.2-.1.3-.1.3-.4v-2.5c0-.3-.1-.4-.3-.4s-.2,0-.2-.1,0-.1.1-.1h1.5c.1,0,.1,0,.1.1s0,.1-.2.1-.3.1-.3.4l-.1,2.5Z" fill="#254558" fill-rule="evenodd"/>
    <path id="Path_148" data-name="Path 148" d="M402.5,221.9c0,.1,0,.2-.1.2s-.1,0-.1-.2a.661.661,0,0,0-.7-.6.53.53,0,0,0-.6.6c0,.3.2.5.8.7.7.3.9.6.9,1.1,0,.7-.5,1.1-1.3,1.1a2.388,2.388,0,0,1-.9-.2c-.1,0-.1-.1-.1-.3v-.5c0-.1,0-.2.1-.2a.1.1,0,0,1,.1.1,1.055,1.055,0,0,0,.9.9.684.684,0,0,0,.7-.7c0-.4-.2-.6-.8-.9-.7-.3-.9-.6-.9-1.1a1.028,1.028,0,0,1,1.1-1c.3,0,.6.1.8.1.1,0,.1.1.1.3v.6Z" fill="#254558" fill-rule="evenodd"/>
    <path id="Path_149" data-name="Path 149" d="M405.6,221.9c0,.1,0,.2-.1.2s-.1,0-.1-.2a.661.661,0,0,0-.7-.6.53.53,0,0,0-.6.6c0,.3.2.5.8.7.7.3.9.6.9,1.1,0,.7-.5,1.1-1.3,1.1a2.388,2.388,0,0,1-.9-.2c-.1,0-.1-.1-.1-.3v-.5c0-.1,0-.2.1-.2a.1.1,0,0,1,.1.1,1.055,1.055,0,0,0,.9.9.684.684,0,0,0,.7-.7c0-.4-.2-.6-.8-.9-.7-.3-.9-.6-.9-1.1a1.028,1.028,0,0,1,1.1-1c.3,0,.6.1.8.1.1,0,.1.1.1.3v.6Z" fill="#254558" fill-rule="evenodd"/>
    <path id="Path_150" data-name="Path 150" d="M407.6,224.2c0,.4.1.5.6.5a.874.874,0,0,0,.9-.5l.1-.2a.1.1,0,0,1,.2,0v.2a.367.367,0,0,1-.1.3c0,.3,0,.3-.3.3h-2.4c-.1,0-.1,0-.1-.1s0-.1.2-.1.3-.1.3-.4v-2.5c0-.3-.1-.4-.3-.4s-.2,0-.2-.1,0-.1.1-.1h2.5c.1,0,.1,0,.1.2v.5c0,.1,0,.1-.1.1a.1.1,0,0,1-.1-.1l-.1-.1c-.1-.3-.4-.4-1-.4-.3,0-.4,0-.4.4v1.1h.5c.4,0,.6-.1.7-.4,0-.1,0-.1.1-.1a.1.1,0,0,1,.1.1v1.2c0,.1,0,.1-.1.1s-.1,0-.1-.1c-.1-.4-.2-.5-.6-.5h-.5v1.1Z" fill="#254558" fill-rule="evenodd"/>
  </g>
</svg>
