<svg xmlns="http://www.w3.org/2000/svg" width="48" height="50" viewBox="0 0 48 50">
  <g id="layer1" transform="translate(-37.1 -208.3)">
    <path id="path855" d="M82.9,243.7a14.617,14.617,0,0,1-14.6,14.6,14.432,14.432,0,0,1-6.5-1.5,14.132,14.132,0,0,1-6.5,1.5,14.6,14.6,0,1,1,6.5-27.7,14.132,14.132,0,0,1,6.5-1.5A14.682,14.682,0,0,1,82.9,243.7Zm-2.8,0A11.715,11.715,0,0,0,68.4,232a13.448,13.448,0,0,0-3.5.5,14.943,14.943,0,0,1,4.7,7.3h-3a11.683,11.683,0,0,0-4.6-5.9,11.8,11.8,0,0,0-4.6,5.9h-3a14.7,14.7,0,0,1,4.7-7.3,10.236,10.236,0,0,0-3.5-.5,11.7,11.7,0,1,0,0,23.4,13.448,13.448,0,0,0,3.5-.5,14.37,14.37,0,0,1-5.1-10h6.9v2.9l-3.4.1a12.637,12.637,0,0,0,4.5,5.7,11.551,11.551,0,0,0,4.5-5.7l-3.4-.1v-2.9H70a14.573,14.573,0,0,1-5.1,10,13.5,13.5,0,0,0,3.5.6A11.867,11.867,0,0,0,80.1,243.7Z" fill="#254558" fill-rule="evenodd"/>
    <path id="Path_151" data-name="Path 151" d="M80.5,211.4h0a5.48,5.48,0,0,0-1.6-1.8,4.267,4.267,0,0,0-2.4-.7,3.653,3.653,0,0,0-1.5.3,3.805,3.805,0,0,0-1.3.9,6.706,6.706,0,0,0-.9,1.4,6.167,6.167,0,0,0,0,3.8,3.766,3.766,0,0,0,.9,1.5,3.805,3.805,0,0,0,1.3.9,4.013,4.013,0,0,0,1.5.3,5,5,0,0,0,2.3-.4,4.009,4.009,0,0,0,1.5-1.4h.1v1a2.407,2.407,0,0,1-.8.6,9.292,9.292,0,0,1-1,.5c-.3.1-.7.2-1.1.3a4.1,4.1,0,0,1-1.1.1,5.382,5.382,0,0,1-2.2-.4,5.244,5.244,0,0,1-1.8-1,10.1,10.1,0,0,1-1.3-1.6,5.091,5.091,0,0,1-.5-2.2,4.648,4.648,0,0,1,.5-2.1,5.155,5.155,0,0,1,1.3-1.7,4,4,0,0,1,1.8-1,7.8,7.8,0,0,1,2.2-.4,4.1,4.1,0,0,1,1.1.1c.4.1.7.2,1.1.3a4.672,4.672,0,0,1,1,.5,5.546,5.546,0,0,1,.8.6Z" fill="#254558"/>
    <path id="Path_152" data-name="Path 152" d="M47.6,214.2c-.1,0-.2.1-.3.2a.367.367,0,0,0-.1.3v1.8a5.48,5.48,0,0,1-1.8,1.6,5.135,5.135,0,0,1-2.5.6,5.382,5.382,0,0,1-2.2-.4,5.244,5.244,0,0,1-1.8-1,10.1,10.1,0,0,1-1.3-1.6,5.091,5.091,0,0,1-.5-2.2,4.648,4.648,0,0,1,.5-2.1,5.155,5.155,0,0,1,1.3-1.7,4,4,0,0,1,1.8-1,7.8,7.8,0,0,1,2.2-.4,4.1,4.1,0,0,1,1.1.1c.4.1.7.2,1.1.3a4.672,4.672,0,0,1,1,.5,5.546,5.546,0,0,1,.8.6l.1,1.6h-.1a3.353,3.353,0,0,0-1.5-1.8,4.267,4.267,0,0,0-2.4-.7,3.653,3.653,0,0,0-1.5.3,3.805,3.805,0,0,0-1.3.9,6.706,6.706,0,0,0-.9,1.4,6.167,6.167,0,0,0,0,3.8,3.765,3.765,0,0,0,.9,1.5,3.805,3.805,0,0,0,1.3.9,4.146,4.146,0,0,0,1.6.3,5.954,5.954,0,0,0,2.7-.6v-2.8c0-.1-.1-.2-.2-.3s-.2-.1-.3-.2V214h2c.2.2.2.2.3.2Z" fill="#254558"/>
    <path id="Path_153" data-name="Path 153" d="M58.4,208.6c-.1,0-.2.1-.3.2a.52.52,0,0,0-.2.4v5.3a8.806,8.806,0,0,1-.2,1.7,1.975,1.975,0,0,1-.6,1.1,1.779,1.779,0,0,1-.8.7,3.552,3.552,0,0,1-.9.4,2.353,2.353,0,0,1-.8.2H54a7.773,7.773,0,0,1-1.6-.2,3.694,3.694,0,0,1-1.4-.7,4,4,0,0,1-1-1.2,4.883,4.883,0,0,1-.4-1.9v-5.5c0-.2-.1-.4-.2-.4-.1-.1-.2-.1-.3-.2v-.1h2.6v.1c-.1,0-.2.1-.3.2s-.1.2-.1.4v5.4a3.293,3.293,0,0,0,.8,2.4,3.2,3.2,0,0,0,2.3.8,3.751,3.751,0,0,0,1-.1,1.905,1.905,0,0,0,1-.5,2.723,2.723,0,0,0,.8-1,3.985,3.985,0,0,0,.3-1.7v-5.2c0-.2-.1-.4-.2-.4-.1-.1-.2-.1-.3-.2v-.1a.756.756,0,0,1,.4.1h1Z" fill="#254558"/>
    <path id="Path_154" data-name="Path 154" d="M69.3,211.4h0a5.48,5.48,0,0,0-1.6-1.8,4.267,4.267,0,0,0-2.4-.7,4.013,4.013,0,0,0-1.5.3,3.805,3.805,0,0,0-1.3.9,6.706,6.706,0,0,0-.9,1.4,6.167,6.167,0,0,0,0,3.8,3.765,3.765,0,0,0,.9,1.5,3.805,3.805,0,0,0,1.3.9,4.013,4.013,0,0,0,1.5.3,5,5,0,0,0,2.3-.4,4.009,4.009,0,0,0,1.5-1.4h.1v1a2.407,2.407,0,0,1-.8.6,9.292,9.292,0,0,1-1,.5c-.3.1-.7.2-1.1.3a4.1,4.1,0,0,1-1.1.1,5.382,5.382,0,0,1-2.2-.4,5.244,5.244,0,0,1-1.8-1,10.1,10.1,0,0,1-1.3-1.6,5.091,5.091,0,0,1-.5-2.2,4.648,4.648,0,0,1,.5-2.1,5.155,5.155,0,0,1,1.3-1.7,4,4,0,0,1,1.8-1,7.8,7.8,0,0,1,2.2-.4,4.1,4.1,0,0,1,1.1.1c.4.1.7.2,1.1.3a4.672,4.672,0,0,1,1,.5,5.546,5.546,0,0,1,.8.6Z" fill="#254558"/>
    <path id="Path_155" data-name="Path 155" d="M85,218.5H82.3v-.1c.1,0,.2-.1.3-.2a.52.52,0,0,0,.2-.4v-8.5c0-.2-.1-.4-.2-.4-.1-.1-.2-.2-.3-.2v-.1h2.8v.1c-.1,0-.2.1-.3.2s-.1.2-.1.4v8.4a1.034,1.034,0,0,0,.1.4.52.52,0,0,0,.2.4Z" fill="#254558"/>
  </g>
</svg>
