<svg xmlns="http://www.w3.org/2000/svg" width="48.31" height="46.008" viewBox="0 0 48.31 46.008">
  <path id="Icon_simple-line" data-name="Icon simple-line" d="M38.98,19.179a1.269,1.269,0,0,1,0,2.538H35.448v2.265H38.98a1.267,1.267,0,1,1,0,2.534h-4.8a1.27,1.27,0,0,1-1.262-1.266v-9.6a1.272,1.272,0,0,1,1.268-1.268h4.8a1.268,1.268,0,0,1-.006,2.536H35.448v2.265ZM31.22,25.25a1.267,1.267,0,0,1-.87,1.2,1.3,1.3,0,0,1-.4.062,1.245,1.245,0,0,1-1.027-.5l-4.918-6.677V25.25a1.265,1.265,0,1,1-2.53,0v-9.6a1.261,1.261,0,0,1,.866-1.2,1.171,1.171,0,0,1,.391-.066,1.3,1.3,0,0,1,1,.511l4.956,6.7v-5.95a1.268,1.268,0,1,1,2.536,0Zm-11.556,0a1.266,1.266,0,1,1-2.532,0v-9.6a1.266,1.266,0,1,1,2.532,0ZM14.7,26.516H9.9A1.275,1.275,0,0,1,8.629,25.25v-9.6a1.268,1.268,0,0,1,2.536,0v8.336H14.7a1.267,1.267,0,0,1,0,2.534m33.61-6.429C48.31,9.275,37.471.477,24.155.477S0,9.275,0,20.087c0,9.684,8.6,17.8,20.2,19.34.787.165,1.858.519,2.13,1.188a4.917,4.917,0,0,1,.076,2.174l-.33,2.053c-.091.606-.483,2.387,2.112,1.3S38.109,37.931,43.181,32.1c3.47-3.8,5.129-7.7,5.129-12.013" transform="translate(0 -0.477)" fill="#fff"/>
</svg>
