<svg xmlns="http://www.w3.org/2000/svg" width="86.3" height="50.1" viewBox="0 0 86.3 50.1">
  <g id="hermes" transform="translate(-357.2 -175.3)">
    <path id="Path_102" data-name="Path 102" d="M357.2,200.2h5.2v1.9h-1.6v3.2h5.9v-3.2H365v-1.9h5.3v1.9h-1.7v9.3h1.7v1.9H365v-1.9h1.7v-4.3h-5.9v4.3h1.6v1.9h-5.2v-1.9h1.7v-9.3h-1.7Z" fill="#254558" fill-rule="evenodd"/>
    <path id="Path_103" data-name="Path 103" d="M419.3,200.2h10.6v3.7h-1.7v-1.8H423v3.1h4.4v1.9H423v4.3h5.1v-2.5H430v4.4H419.3v-1.9H421v-9.3h-1.7Z" fill="#254558" fill-rule="evenodd"/>
    <path id="Path_104" data-name="Path 104" d="M372.7,200.2h10.7v3.7h-1.8v-1.8h-5.2v3.1h4.4v1.9h-4.4v4.3h5.1v-2.5h1.9v4.4H372.7v-1.9h1.7v-9.3h-1.7Z" fill="#254558" fill-rule="evenodd"/>
    <path id="Path_105" data-name="Path 105" d="M422.4,198.5h3.8l1,1.1h-3.8Z" fill="#254558" fill-rule="evenodd"/>
    <path id="Path_106" data-name="Path 106" d="M440.4,205.8c-1.3-.3-2.2-.3-3.6-.7-1.2-.4-1.4-1.1-1.4-1.6s.5-1.8,2.4-1.8,3.2,1.3,3.2,2.4h1.8v-3.8H441v.8l.1.2h0l-.3-.3h0a4.627,4.627,0,0,0-3.2-1c-1.9,0-4.2,1.2-4.2,3.5s1.6,3,3,3.4,2.1.4,3.3.7c1.1.3,1.9,1,1.9,2,0,.9-.6,2.2-3.1,2.2a3.359,3.359,0,0,1-3.7-3.2h-1.7v4.6h1.8v-.8h0v-.2s0,.1.3.3h0a5.757,5.757,0,0,0,3.6,1.2c1.7,0,4.7-.9,4.7-4,0-2.3-1.2-3.3-3.1-3.9Z" fill="#254558" fill-rule="evenodd"/>
    <path id="Path_107" data-name="Path 107" d="M415.1,211.4v-9.3h1.7v-1.9h-4.7l-3.1,7.7-.1.4-.1-.4-3.1-7.7h-4.8v1.9h1.8v9.3h-1.8v1.9h5.4v-1.9h-1.7v-9.1l.2.4,3.6,8.7h1l3.7-8.7.1-.4v9.1h-1.6v1.9h5.2v-1.9Z" fill="#254558" fill-rule="evenodd"/>
    <path id="Path_108" data-name="Path 108" d="M377.1,195.2h-1.8v-.5h1.3a1.2,1.2,0,0,0,.5.5Z" fill="#254558" fill-rule="evenodd"/>
    <path id="Path_109" data-name="Path 109" d="M422.1,195.2a.664.664,0,0,1,.4-.5h.9v.5Z" fill="#254558" fill-rule="evenodd"/>
    <path id="Path_110" data-name="Path 110" d="M392.5,195.6a3.35,3.35,0,0,1-2.6,0h-9.4a3.417,3.417,0,0,1-2.8,0h-2.4v.9h48.2v-.9Z" fill="#254558" fill-rule="evenodd"/>
    <path id="Path_111" data-name="Path 111" d="M381.1,195.2c.1-.1.5-.4.5-.5h7.3c.1.1.3.4.5.5Z" fill="#254558" fill-rule="evenodd"/>
    <path id="Path_112" data-name="Path 112" d="M391.2,195a2.326,2.326,0,0,0,2.3-2.3,2.3,2.3,0,1,0-4.6,0,2.4,2.4,0,0,0,2.3,2.3v.5a2.75,2.75,0,1,1,2.7-2.7,2.712,2.712,0,0,1-2.7,2.7V195Z" fill="#254558" fill-rule="evenodd"/>
    <path id="Path_113" data-name="Path 113" d="M382.2,192.3a3.1,3.1,0,1,0-3.1,3.1,3.052,3.052,0,0,0,3.1-3.1h-.5a2.6,2.6,0,1,1-2.6-2.6,2.582,2.582,0,0,1,2.6,2.6Z" fill="#254558" fill-rule="evenodd"/>
    <path id="Path_114" data-name="Path 114" d="M392.7,194.3l-.9-1.1h0a.1.1,0,0,1,.1-.1h0l1.4.4a.1.1,0,0,1,.1.1.494.494,0,0,1,.1-.3h-.2l-1.3-.4h0v-.2h0l1.4-.5h.1l-.1-.3-.1.1h.1l-1.4.5h0a.1.1,0,0,0-.1-.1v-.1l.8-1.2a.349.349,0,0,1,.2-.1,1.438,1.438,0,0,1-.3-.2v.2l-.8,1.2h-.2v-1.4c0-.1,0-.2.1-.2h-.4a.349.349,0,0,1,.1.2v1.4h0a.1.1,0,0,0-.1.1h0L390,191v-.2s-.2.2-.3.2a.31.31,0,0,1,.2.1l.9,1.1h0l-.1.1h-.1l-1.3-.4a.1.1,0,0,1-.1-.1l-.1.3h.2l1.3.3h0v.2h0l-1.3.6h-.1a.494.494,0,0,0,.1.3l.1-.1,1.3-.6h0a.1.1,0,0,1,.1.1h0l-.8,1.2-.1.1s.2.2.3.2v-.2l.8-1.1h.1l.1,1.4a.1.1,0,0,1-.1.1h.4c-.1,0-.1-.1-.1-.2l-.1-1.4h0a.31.31,0,0,0,.2-.1h0l.9,1v.2l.2-.2c.2.4.1.4.1.4Z" fill="#254558" fill-rule="evenodd"/>
    <path id="Path_115" data-name="Path 115" d="M379,190.5a10.919,10.919,0,0,1,3.4.4c.1,0,.1.1,0,.1a15.478,15.478,0,0,1-3.3.3,17.766,17.766,0,0,1-3.4-.2c-.1,0-.1-.1,0-.1a19.378,19.378,0,0,1,3.3-.5v-.2a12.931,12.931,0,0,0-4,.8c-.1,0-.1.1,0,.1a13.941,13.941,0,0,0,4.1.3,13.721,13.721,0,0,0,4-.5c.2,0,.1-.1,0-.1a13.089,13.089,0,0,0-4.1-.6v.2Z" fill="#254558" fill-rule="evenodd"/>
    <path id="Path_116" data-name="Path 116" d="M393,189.7a5.273,5.273,0,0,1-1.2.3h-2.2c-1.1,0-1.2.2-1.2.1a4.58,4.58,0,0,0-.8-1.3,12.6,12.6,0,0,1-6.4-.7v-.3h.3c-.3-.5-.9-.6-1.2-1.1-.2-.1-.2-.4-.4-.6,0,.5-.4.9-.4,1.3a1.069,1.069,0,0,0,.8,0,.749.749,0,0,1,.5.1c.1,0,.2.1.4.1v.3c-.2,0-.3-.1-.5-.2-.2.1-.4,0-.5,0h-.7a1.716,1.716,0,0,0-1.6.8,1.1,1.1,0,0,0,0,.8c.1.1.5.8.8.9l-.4.1c-.6-.5-1-1-.9-1.6.3-1.3,1.5-1.1,1.8-1.7a4.26,4.26,0,0,0,0-2.5c-.8-.3-1.8-.8-2-1.7,0-.2,0-.5.3-.6a1.209,1.209,0,0,1,1,.3c.1-.1-.1-.4.2-.4.4,0,.7.8.8.9v.3c-.3-.1-1.3-.7-1.4-.7-.2-.1-.4-.2-.6,0s0,.5.2.8c2.2,2.3,5.9-.1,8.3,1.5,0-.1,0-.2-.1-.2-1.7-1.6-4.3-.8-6.4-1.3v-.3c2.6.7,6.1-.4,7.5,2.6.9,1.3,1.8,3.3,3.8,3.3a3.555,3.555,0,0,0,3.3-1.7c1-1.9,1.7-4.1,3.5-5.3.2-.1.3,0,.2,0a10.015,10.015,0,0,0-2.1,3.1c.7,2.7,2.3,2.1,2.6,2.1-.1-1,0-3.9,2.1-4.6a4.188,4.188,0,0,1,4.4-.5,11.54,11.54,0,0,0-3,5.3l-1.8.5a4.888,4.888,0,0,0,.1-1.3,4.453,4.453,0,0,0-.8.5c-.2,0,0-.2,0-.2,0-.1.5-.3.8-.5-.1-1.1-.2-2.5.7-3.4-1.8.6-1.3,4.5-1.1,5a3.863,3.863,0,0,1-1.2.2l-.1-.7c-.8.3-2.2.1-2.8-2-.5,1.4-1,3.6-2.6,4.2Z" fill="#254558" fill-rule="evenodd"/>
    <path id="Path_117" data-name="Path 117" d="M421.8,183.9c-.1-.1-.1-.1-.2-.1v-.1a.31.31,0,0,1,.2.1v.1Z" fill="#254558" fill-rule="evenodd"/>
    <path id="Path_118" data-name="Path 118" d="M379.6,193l1,1.1a.187.187,0,0,1,0,.3c.1,0,.3-.3.4-.4h-.3l-1-1.1v-.1h0l1.5.5.2.2a1.056,1.056,0,0,1,.2-.5s-.2.1-.3,0l-1.5-.5h0v-.1h0l1.5-.2c.2,0,.3,0,.3.1v-.5a.37.37,0,0,1-.3.2l-1.5.2h0a.1.1,0,0,0-.1-.1h0l1.2-1c.1-.1.3-.1.3,0l-.4-.4a.494.494,0,0,1-.1.3l-1.1.9h-.1l.5-1.5c0-.1.2-.2.2-.2-.1,0-.4-.2-.5-.2a1.007,1.007,0,0,1,.1.3l-.5,1.4h-.1l-.3-1.5a.438.438,0,0,1,.1-.3c-.1,0-.4,0-.5.1,0,0,.2.1.2.2l.3,1.5v.1h-.1l-1-1.1c-.1-.1-.1-.3,0-.3-.1,0-.3.2-.4.3a.494.494,0,0,1,.3.1l1,1.1h0l-.1.1h0l-1.4-.5c-.1,0-.2-.2-.2-.2-.1.1-.1.4-.2.5,0,0,.2-.1.3,0l1.4.5h0v.1h0l-1.5.3a1.007,1.007,0,0,1-.3-.1c0,.1,0,.5.1.6a.2.2,0,0,1,.2-.2l1.5-.3h0v.1h0l-1.2.9c-.1.1-.3.1-.3,0,0,.1.2.4.3.4a.494.494,0,0,1,.1-.3l1.2-.9h0l.1.1h0l-.5,1.4c0,.1-.2.2-.2.2.1,0,.4.2.5.2-.1,0-.1-.1-.1-.3l.5-1.5h.1l.3,1.5a.438.438,0,0,1-.1.3c.1,0,.4-.1.5-.1,0,0-.2-.1-.2-.2l-.3-1.5h0c.1.1.1,0,.3,0Z" fill="#254558" fill-rule="evenodd"/>
    <path id="Path_119" data-name="Path 119" d="M421.1,184.1V184c0-.1.1-.1.1-.3-.2-.2-.3-.6-.1-.7.1-.1.6,0,.6,0,.4-.3.6-.6.8-.7.3,0,1,.6,1,1-.1.1-.3.4-.7.8a.755.755,0,0,1-.1.8.31.31,0,0,1-.2-.1c0,.5.6.8.8,1.1,0,.8.8,1.7-.1,2.3a1,1,0,0,0-.5.4,21.043,21.043,0,0,0,.6,2.4h-.9c-.1.3-.4.8-.3,1.1h0a6.079,6.079,0,0,1,.1,1.9c0,.2.1.2,0,.5-.1,0-.5.3-.5.4-.2.2-.9.3-.9.2,0-.2.5-.5.6-.8a5.009,5.009,0,0,0-.6-3.2c-.2-.1-.4.2-.6.4a6.027,6.027,0,0,1,.6,2.3c0,.2.3.6.1.9l-.8.4h-2.7c-.1-.1-.3-.3-.2-.5h2.5c0-.1.2,0,.5-.4,0-1.1-1.2-2.8-1-3.3.2-.7.6-1.3.9-2.2h.2c-.4,1.4-1,2.1-.9,2.5a1.329,1.329,0,0,0,.3.7l.1.3a1.69,1.69,0,0,0,.3.6c.1,0,.2-.1.3-.1a1.421,1.421,0,0,0-.2-.6l-.4.1-.1-.3c.3,0,.5-.2.2-.3.7-.3-.1-.2.1-.4a1.612,1.612,0,0,0,.6-1.3c0-.1,0-.1.1-.1a12.088,12.088,0,0,0,.8,2.5v.2a1.268,1.268,0,0,0,.1.6c.4,0,.4,0,.3-.6h-.4v-.2h.3a1.483,1.483,0,0,1-.1-.7c0-.1.1-.4.2.2a3.94,3.94,0,0,0,.4-1.5c-.9.2,0-.8-.7-.9l.3-.6c0-.2-.1-.3-.4-.2l-.2-.2c-.1,0-.3-.3-.5-.4-.1.1-.4.4-.4.6,0,0,.1.1.1,0,.1-.1.2.1.5.1.1-.1.4-.1.3-.3l.2.2c-.2.1-.2.4-.2.7-.3.6-.2-.3-.6-.3-.2.1-.3-.2-.5-.2H420v-1.1a5.965,5.965,0,0,1,.7-2c0-.2.7-.6.7-.8a.349.349,0,0,1,.1.2c0,.2-.5.2-.5.8.3-.5,1.1-.5,1.1-1.1-.1-.4.2-.1.2-.5-.1-.1-.4-.4-.4-.5,0,0,.1-.3-.5-.3a4.708,4.708,0,0,1-.2.5l-.1.1c.1,0,.2,0,.2.2s0,.3.1.4c.4.2.7,0,.2.2v.1a1.439,1.439,0,0,0-.2-.3s-.3-.1-.2-.3a.367.367,0,0,0-.1-.3Z" fill="#254558" fill-rule="evenodd"/>
    <path id="Path_120" data-name="Path 120" d="M408.4,182.3c0,.3-.1.6-.1.9.3.8,0,1.4.1,2.2-.4-.2-.5-.8-.6-1.5a3.329,3.329,0,0,1,.1-1.4l.5-.2Z" fill="#254558" fill-rule="evenodd"/>
    <path id="Path_121" data-name="Path 121" d="M407.5,182.6a5.074,5.074,0,0,0,.5,3,37.919,37.919,0,0,1-5.4,1.9c.2-1.5,1.7-4.4,2.9-5.2a8.447,8.447,0,0,0,2,.3Z" fill="#254558" fill-rule="evenodd"/>
    <path id="Path_122" data-name="Path 122" d="M402.8,193.6c-.5.1-.5.4-.2.7a1.4,1.4,0,0,1,.4.4h-3c0,.1.1.2.2.5h16.7c.1-.2-.2-.5-.3-.8-1.2-.4-1.2-1.5-1.2-2.7a1.034,1.034,0,0,1-.1-.4,7.174,7.174,0,0,1-.6-3.7l.3-.5c.2-.3,0-.5.1-.9l3.5-.7v-.2h0l-3.4.6c.2-.8-.6-1.1-.2-1.8a7.76,7.76,0,0,0,2.4,1.6h.3a8.767,8.767,0,0,1-3.2-2.5c-.1,0-.2-.1-.3-.1a1.466,1.466,0,0,0,.2.4,1.635,1.635,0,0,1-1.6-.1c-.3.7-4,2.3-4,2.3a4.15,4.15,0,0,0,1.1,2.3c0,.1-.1-.1,0,0a6.6,6.6,0,0,0,2.6,1.1,28.236,28.236,0,0,1,.9,2.7c.1.3.2.3.2.3a2.471,2.471,0,0,1,.4.9l.1,1c0,.2.3,0,.4.3l-.1.6h.7c-.4-.3-.1-.9-.6-1.1a1.737,1.737,0,0,0-.3-1.2c-.2-.6-.8-2.1-1.2-3.4l.2-.3a3.635,3.635,0,0,1-2.8-.6c-.7-.3-.3,0,0-.2a3.836,3.836,0,0,0,2.5.3.85.85,0,0,1,.3.5l-.2.3c.2-.2.4-.1.6.6a13.14,13.14,0,0,1,.5,1.5,10.864,10.864,0,0,0,.5,1.4s.1,0,.2.2a5.439,5.439,0,0,1,.4,1.7c.1.4.6,0,.6.5H403.4c.2-.8-.2-1.4,0-2.1-.5-.8-1.7-1.3-1.5-2.4.6-.8,2.4-1.6,2-2.5,1.7-.8,2.5.6,4.1.4a8.808,8.808,0,0,0,1.7-.2,6.154,6.154,0,0,1-1.6-2,50.637,50.637,0,0,1-10,3.2l-.3-.1c-.3,0-5.7,1.3-5.5,1.5a14.306,14.306,0,0,0-4.9,1.3c-.2.1-.3.2,0,.3,2.2.6,4,.1,7.3-1.1l-.2-.2a21.99,21.99,0,0,1-4,1.2,10.968,10.968,0,0,1-2.6,0c-.1,0-.1,0,0-.1,2.1-.8,6.2-1.6,6.8-.9a2.177,2.177,0,0,1,.8.5c.2.2.6.1.8.1.4-.1.4-.4.4-.8h-.4a2.959,2.959,0,0,0-1,.2,4.7,4.7,0,0,0-.9-.6,17.069,17.069,0,0,1,2.6-.7c-.6.4-.3.9-.7,1h.4c0-.2,0-.3.1-.4.4-1,2.2-1.2,3.1-1.4a5.718,5.718,0,0,1-.8.8c-.1,1.5-.6,2.7-.7,4.2.4,0,.4.5.5.8-.1.2-.3,0-.5,0-.7-.3.1-.9-.4-1.4a15.278,15.278,0,0,0,.7-3.6c-.2,0-.2.2-.3.3a15.945,15.945,0,0,1-.8,3.3c.1.1.3.2.3.4-.4.2,0,.7-.1.9h-4.3l-.4.5h6.5v-.2c-.9-1-.6-2.5-.1-3.7l1.1-1.5c.9-.4,1.5-1.5,2.5-1.9,0,.5-.6.7-.9,1-.4.8-1.5.9-1.6,1.8a6.7,6.7,0,0,0,1.6,1.2c.5.3.4,1,.8,1.4,0-.2-.1,0-.2,0Z" fill="#254558" fill-rule="evenodd"/>
    <path id="Path_123" data-name="Path 123" d="M410,176.6c-.2.3-.6.5-.3,1a.6.6,0,0,0-.2.9.666.666,0,0,0,0,1c-.4.4.1.8.2.9a.966.966,0,0,0,0,.8h0c0,.3-.6.8-.8.9a8.39,8.39,0,0,0-.1,3.2,22.582,22.582,0,0,0,3.7-2.2c-.9-.6-1.6-2.1-2.6-2a6.144,6.144,0,0,1,.9-4.8c.2-.1.5-.1.6-.2-.6-.1-1.4.3-2,0,.1,0,.4.5.6.5Z" fill="#254558" fill-rule="evenodd"/>
    <path id="Path_124" data-name="Path 124" d="M413.2,176.1l.2.1s.2,0,.2-.1v-.2h-.3l-.1.2h0l-.8-.4.1-.1s.3-.3.4-.3a4.484,4.484,0,0,1,1.1.1,1.892,1.892,0,0,1,.4.6c.5.4,1.4.4,1.9.8-.1.1.1.4,0,.5h-.5v.3h-.2s.1-.3,0-.3-.3-.1-.4-.1v.2c0,.1.2.1.4.1h.4c-.1.2-.1.3-.5.2-.1.2.4.4.5.5,0,.1-.1.2-.5,0a14.123,14.123,0,0,1-2.2,1.7c-.8.4,0-.2,0-.2a8.848,8.848,0,0,0,2-1.7c0-.1-.1-.3-.1-.4a1.02,1.02,0,0,0-.9.2,13.141,13.141,0,0,1,.3,5.8l-.1-.1a13.282,13.282,0,0,0-.3-5.6c-.5.2-.8,0-1,.1-.1,1.9,1.5,2.2.9,4.8-1.7-.3-2.8-2.3-3.8-2.1,0-.3-.4-.9,0-1.1-.1-.3-.2-.7.2-.9-.1-.4-.2-.7.2-1-.1-.2,0-.8.5-.8a.875.875,0,0,1,.6-.9,1,1,0,0,1-.5-.6,1.814,1.814,0,0,0,1.3.3l.6.4Z" fill="#254558" fill-rule="evenodd"/>
    <path id="Path_125" data-name="Path 125" d="M397.2,211.4v-2.6a2.57,2.57,0,0,0-1.2-2.1c-.1,0-.4-.1-.6-.1a1.952,1.952,0,0,0,.7-.1h0a2.925,2.925,0,0,0,1.6-2.8,3.229,3.229,0,0,0-1.3-2.7,4.1,4.1,0,0,0-2.6-.7h-7.3v1.9h1.7v9.3h-1.7v1.8h5.2v-1.8H390v-4.1h3.6a1.528,1.528,0,0,1,1.7,1.5l.1,4.4h3.5v-1.8l-1.7-.1Zm-3.4-5.9h-4v-3.4h3.7a5.7,5.7,0,0,1,1.3.1,1.659,1.659,0,0,1,.9,1.6c.1,1-.8,1.7-1.9,1.7Z" fill="#254558" fill-rule="evenodd"/>
    <path id="Path_126" data-name="Path 126" d="M385.7,217.9c1.7,0,2.5.9,2.5,2.1s-.8,2.1-2.6,2.1h-1.2v3.3h-1.1v-7.5Zm-1.4,3.2h1.3c.8,0,1.4-.4,1.4-1.2,0-.6-.3-1.1-1.3-1.1h-1.4v2.3Z" fill="#254558" fill-rule="evenodd"/>
    <path id="Path_127" data-name="Path 127" d="M396.6,225.3h-1.2l-.9-2.2h-3.3l-.9,2.2h-1.2l3.3-7.5h.8l3.4,7.5Zm-5-3.2H394l-1.3-2.9-1.1,2.9Z" fill="#254558" fill-rule="evenodd"/>
    <path id="Path_128" data-name="Path 128" d="M409,225.3h-1.1v-7.4H409Z" fill="#254558" fill-rule="evenodd"/>
    <path id="Path_129" data-name="Path 129" d="M416.7,219.5a3,3,0,0,0-1.9-.8c-.7,0-1.3.3-1.3.8,0,1.5,3.5,1.4,3.5,3.8a2.09,2.09,0,0,1-2.3,2,3.891,3.891,0,0,1-2.3-.7v-1.4a2.948,2.948,0,0,0,2.2,1.1c.9,0,1.3-.5,1.3-.9,0-1.5-3.5-1.7-3.5-3.7,0-1.2,1-2,2.5-2a2.9,2.9,0,0,1,1.8.5v1.3Z" fill="#254558" fill-rule="evenodd"/>
    <path id="Path_130" data-name="Path 130" d="M404.4,224.4c-.1-.2-.3-.4-.4-.6a5.771,5.771,0,0,0-1.7-2,1.922,1.922,0,0,0,1.3-1.8c0-1.3-1-2.1-2.6-2.1h-2v7.5h1.1v-3.3h.5c.6,0,1,.2,2,1.7l1,1.6h1.3l-.5-1Zm-3.6-3.3h-.7v-2.4h.7c1.1,0,1.5.4,1.5,1.1.1.7-.2,1.3-1.5,1.3Z" fill="#254558" fill-rule="evenodd"/>
  </g>
</svg>
