<svg xmlns="http://www.w3.org/2000/svg" xmlns:xlink="http://www.w3.org/1999/xlink" width="202.609" height="38.799" viewBox="0 0 202.609 38.799">
  <defs>
    <clipPath id="clip-path">
      <path id="path243" d="M642.9-3080.969H440.3v38.8H642.9Z" transform="translate(-440.296 3080.969)" fill="#254558"/>
    </clipPath>
  </defs>
  <g id="layer1" transform="translate(1032.002 -94.742)">
    <g id="g237" transform="translate(-1032.002 94.741)">
      <g id="g239" transform="translate(0)" clip-path="url(#clip-path)">
        <g id="g245" transform="translate(0 0)">
          <path id="path247" d="M-501.62-119.887c.047-.328.327-1.075.795-1.214l.653,1.12A3.734,3.734,0,0,1-501.62-119.887Zm1.447-2.8h-.653c-1.168,1.54-1.775,3.315-3.269,4.716-.421.233-1.168.233-1.307.7a9.354,9.354,0,0,0,3.781-.14,2.609,2.609,0,0,1-1.213-.56,1.95,1.95,0,0,1,.654-1.214c1.12.233,2.895-.7,3.268.887.561.794-.886.607-.793,1.12l4.015-.093v-.233l-.887-.14Zm-88.291,2.382c.14-.468.327-1.121.888-1.261l.7,1.12Zm1.447-2.8h-.747c-1.354,1.447-1.775,3.315-3.362,4.716-.279.513-1.4-.139-1.26.654a10.492,10.492,0,0,0,3.828-.094c-.14-.747-1.54.094-1.261-1.026.233-1.634,2.194-.608,3.269-.888a2.993,2.993,0,0,1,.793,1.447c-.326.187-1.074.046-.887.654l4.015-.093v-.233a5.16,5.16,0,0,1-1.214-.327Zm76.1,1.775c-.093-.795.794-.514,1.12-.888a2.929,2.929,0,0,1,2.8,1.774A10.423,10.423,0,0,1-510.911-121.335Zm4.016,1.119c.793-.325.419-1.68.373-2.474-.56-.233-.42.607-.933.467-1.354-.654-3.689-.794-4.67.561-.374,2.428,2.895,1.681,4.342,2.475.374.187,1.027.7.467,1.12-.654.794-1.868.281-2.8.42a4.109,4.109,0,0,1-1.914-2.24c-.794.419-.374,1.867-.326,2.707.606-.233,1.073-.606,1.68-.093,1.54,0,3.641.607,4.716-1.027C-505.495-119.094-506.242-119.794-506.895-120.215Zm-73.724-1.68c.14-.42.607-.561,1.027-.654,1.214,0,2.521.141,3.034,1.448,0,.093-.046.28.094.326A13.421,13.421,0,0,1-580.618-121.9Zm4.389,1.354c.56-.654.28-1.775.233-2.569-.561-.281-.374.467-.794.42-1.494-.607-3.922-.887-5.042.7-.047,2.241,2.662,1.634,4.156,2.241.42.14,1.167.468.981,1.12a3.2,3.2,0,0,1-3.222.421c-1.12-.326-1.214-1.727-2.055-2.1a7.312,7.312,0,0,0,0,2.661h.374c.654-.934,1.494.374,2.428.14,1.4.093,2.8-.046,3.595-1.121A1.411,1.411,0,0,0-576.23-120.541Zm46.6,1.213c-.468,1.307-1.914,1.634-3.222,1.588-1.4.14-.654-1.588-.7-2.241,1.168-.468,1.541.887,2.147,1.214a10.658,10.658,0,0,0,0-2.989h-.233c-.187.047-.093.281-.093.421a1.344,1.344,0,0,1-1.821.794c0-.608-.467-1.215.14-1.682a4.049,4.049,0,0,1,3.127.467c.561.281.14,1.261.981,1.121a8.2,8.2,0,0,0-.093-2.148h-7.05v.468c.374-.28.793-.046,1.12.186a30.4,30.4,0,0,1-.139,4.156c-.327.187-1.074.047-1.121.56h7.424v-2.24C-529.493-119.748-529.493-119.515-529.633-119.328Zm-75.638-1.121c.747.281,1.681.654,1.12,1.682-.7.7-1.961.42-2.894.374-1.121-.607-.981-2.055-.795-3.176a1.876,1.876,0,0,1,1.355-1.214,3.7,3.7,0,0,1,2.475.561l.887,1.354C-603.777-120.588-604.944-121.055-605.271-120.449Zm2.475-.419a3.7,3.7,0,0,0-.233-2.568l-.561.56c-1.12-.28-2.381-.933-3.595-.374a3.69,3.69,0,0,0-2.568,3.034,3.883,3.883,0,0,0,2.941,2.476c1.54.654,3.175-1.354,4.249,0a6.432,6.432,0,0,0,.093-1.914c0-.795.934-.374,1.354-.654C-601.3-121.009-602.376-120.355-602.8-120.868Zm57.942-2.008-.14,2.335c1.214.325.374-1.495,1.587-1.775.327-.14.934-.28,1.214.093l.141,3.595c0,1.214-1.588.14-1.588,1.121a25.42,25.42,0,0,0,4.622,0v-.233c-.374-.094-.7-.327-1.121-.233-.84-.794-.326-2.476-.467-3.455-.047-.7.374-1.074,1.121-.887.887.374.933,1.587,1.681,1.867a4.272,4.272,0,0,0-.094-2.427Zm-9.1-.14-.093,2.476c.887,0,.513-1.262,1.354-1.682a1.19,1.19,0,0,1,1.447,0v3.69c-.093,1.167-1.633,0-1.587,1.026a34.4,34.4,0,0,0,4.389.093l.326-.326c-.42-.514-1.354.093-1.54-.654.047-1.354-.233-2.848.187-4.063a1.771,1.771,0,0,1,1.494.467c.561.374.187,1.588,1.12,1.448l-.139-2.335Zm-4.9.14v.326c.42.188,1.027,0,1.354.561.047,1.168.327,2.662-.233,3.689-.84.607-2.1.327-3.034.233-1.214-.747-.468-2.474-.654-3.689-.28-1.027.888-.513,1.308-.794v-.467h-4.109l-.139.467a2.9,2.9,0,0,1,1.26.234c.42,1.12.14,2.521.188,3.783,1.074,1.353,3.081,1.167,4.715,1.026,2.148-.28,1.074-2.709,1.354-4.156a1.139,1.139,0,0,1,1.447-.794v-.327A7.794,7.794,0,0,0-558.861-122.876Zm-6.49,0a16.531,16.531,0,0,0-4.3,0v.093c.233.421.7.14,1.027.233.794.141.327,1.027.467,1.541-.7.654-2.054.233-3.034.374-.607-.187-.233-.981-.327-1.495.234-.56,1.168-.186,1.448-.747a32.187,32.187,0,0,0-4.249-.14c-.233.7.56.374.888.467.793.934.279,2.616.419,3.922a1.088,1.088,0,0,1-1.307.654v.326h4.249c-.14-.56-1.121-.187-1.448-.747.047-.654-.233-1.4.187-1.914a10.064,10.064,0,0,1,3.175.233v1.774c-.42.374-1.167.187-1.494.561a12.048,12.048,0,0,0,4.3.093c-.094-.607-1.121-.046-1.261-.747l.139-3.922C-566.238-122.829-565.258-122.223-565.351-122.876Zm51.172-.374a65.644,65.644,0,0,0-4.341,6.3h.654a64.789,64.789,0,0,0,4.156-6.163C-513.806-123.3-514.039-123.2-514.179-123.25Zm-79.886,4.3c-.7,1.027-2.1.747-3.128.654-.42-1.121-.14-2.568-.234-3.829a1.815,1.815,0,0,1,1.588-.747v-.14a25.509,25.509,0,0,0-4.622,0v.14c.187.187.467.047.7.093,1.634.514.561,2.709.888,4.016-.094,1.168-1.495.046-1.588,1.027a49.232,49.232,0,0,0,7.424,0l-.14-2.241C-593.785-119.981-593.646-119.234-594.065-118.954Zm35.2-5.416c0,.233-.094.654.093.7.187.42.654.327,1.027.327.281-.187.747-.467.561-.887C-557.46-124.79-558.488-125.118-558.861-124.37Zm-2.241-.42a.813.813,0,0,0-.56.981,1.072,1.072,0,0,0,1.12.467.866.866,0,0,0,.561-1.027A1.163,1.163,0,0,0-561.1-124.79Zm42.115-.794a30.52,30.52,0,0,0-4.156-.093v.42c.513,0,1.074-.094,1.354.326v3.735c-.093.888-1.261.187-1.354.888l4.156-.141c-2.475.047-.794-2.707-1.448-4.014C-520.388-125.4-519.174-125.024-518.987-125.584Zm-126.95,0-3.035,1.681-.093-3.362a15.472,15.472,0,0,1,3.128,1.354Zm6.4.093-9.524-4.482-.888.561c-.28,3.455.607,6.677-.373,10.085-.374.795-1.495,1.121-1.307,2.055a45.648,45.648,0,0,0,5.462-3.268c-.7-.514-1.354.513-2.24.325-.84-.56-.7-1.867-.561-2.8,2.1-1.026,4.389-3.782,6.63-1.12.607.84-1.168,1.074-1.027,1.914,2.1-.7,4.2-2.381,6.163-3.455l-.326-.467A2.116,2.116,0,0,1-639.542-125.491Zm3.922-2.987a.989.989,0,0,0-.7,1.12c-.047.747.794.747,1.354.747.607-.281,1.12-.608.887-1.448C-634.266-128.665-635.059-128.432-635.619-128.478Zm175.787-3.176c-.233.888,1.448,1.121,1.354,2.148-1.214,2.007-2.334,4.014-3.689,5.929-.794.56-1.728-.047-2.475-.327a.356.356,0,0,0-.093.561c3.689,1.868,7.191,4.109,10.879,6.07l2.1-3.268c-.467-.608-.981.092-1.355.467-2.24,1.4-4.762-.094-6.583-1.354-.84-1.447.933-2.428,1.447-3.595.794.139,1.448.933,2.007,1.447.654.7-.233,1.494-.093,2.148l.561.094a33.31,33.31,0,0,0,2.568-4.249c-.747-.7-.84.794-1.588.794a3.672,3.672,0,0,1-2.8-.794c-.374-.933.607-1.821,1.261-2.568,1.588-.374,3.175.933,4.342,2.008,1.073,1.026.84,2.427.56,3.594l.468.094a22.1,22.1,0,0,0,1.914-2.895A103.222,103.222,0,0,0-459.832-131.654Zm-.887-.187v-.373l-5.6-2.662c-.513,1.027,1.167.98,1.447,1.914.094,1.821-1.214,3.735-2.334,4.9l-3.268-8.964-3.783-1.775-.233.42a3.944,3.944,0,0,1,1.775,1.82,28.834,28.834,0,0,1-3.362,5.93c-.84.326-1.775-.187-2.569,0v.326c1.774.841,3.5,1.775,5.277,2.475.093-.093.28-.186.233-.326-.888-.56-2.1-1.494-1.588-2.708l2.475-4.249c1.307,3.362,2.755,6.677,3.922,10.085h.794l3.221-5.93C-463.707-132.541-461.887-131.841-460.719-131.841Zm-160.007-5.416a4.022,4.022,0,0,1-1.448,4.063c-1.261.514-2.755,2.148-4.062.887l-2.568-6.164c.14-1.026,1.4-1.167,1.914-1.68l-.327-.328-6.723,2.8v.327a1.644,1.644,0,0,0,1.214-.233c.56-.14,1.307-.233,1.681.326a39.752,39.752,0,0,1,2.568,6.4c-.139.981-1.868.84-1.54,1.821,3.782-1.588,7.61-3.175,11.439-4.716-.374-1.214-1.074-2.288-1.495-3.5Zm7.517-6.023,2.8,2.008a14.236,14.236,0,0,1-3.362,1.121A19.222,19.222,0,0,1-613.208-143.28Zm.981,6.723c-.7.094-1.588.7-2.241,0a5.126,5.126,0,0,1,.467-2.708c1.588-.28,3.035-1.214,4.576-1.354.794.7,1.821,1.027,2.241,2.055-.42.654-1.354.467-1.541,1.214a28.863,28.863,0,0,0,6.817-2.147c-.747-.7-1.4.419-2.241-.094l-8.171-6.163c-.467-.328-.933.046-1.354.233l-1.914,8.5c-.327,1.167-1.727,2.1-2.428,2.8,2.1,0,3.969-1.307,6.023-1.775A.473.473,0,0,0-612.227-136.557Zm130.778,3.922c1.12-2.24,1.727-4.669,3.362-6.723.84-.28,1.354.467,2.008.233v-.467l-6.023-2.334h-.7c.188.747,1.308.7,1.821,1.447a4.982,4.982,0,0,1-1.12,2.9,27.373,27.373,0,0,1-5.37-2.1c.607-.84.42-2.148,1.54-2.708.747-.233,1.494.467,2.241.233v-.326l-6.723-2.615c-.327,1.214,1.914.794,1.681,2.24-1.074,1.914-1.448,4.109-2.661,5.978a2.873,2.873,0,0,1-2.615.092v.468l6.536,2.568.187-.233c-.233-.56-1.027-.7-1.54-1.12-.887-1.4.607-2.708,1.214-3.829l5.182,2.055c-.56,1.119-.56,2.52-1.587,3.455-.934.326-1.775-.654-2.334,0,2.24.793,4.482,2.1,6.816,2.474C-479.629-131.794-481.169-131.654-481.449-132.635Zm-16.341-6.723c-1.588.981-3.5.14-4.949-.56-1.26-.888-1.354-2.848-.793-4.156.56-1.168,1.073-2.475,2.381-3.128,2.055-.327,4.856.093,5.6,2.474C-495.6-142.626-496.157-140.479-497.791-139.358Zm4.249-4.622a10.875,10.875,0,0,0-2.895-3.128c-2.475-1.261-6.3-1.541-8.544.467a3.685,3.685,0,0,0-1.12,3.362c.513,2.334,2.708,4.015,4.809,4.809,2.521.607,5.836.561,7.423-1.68A3.977,3.977,0,0,0-493.542-143.98Zm-1.12-4.108a1.731,1.731,0,0,0,.793-1.028,1.56,1.56,0,0,0-1.447-1.026c-.794,0-.841.84-.794,1.493A1.69,1.69,0,0,0-494.662-148.088Zm-3.922-1.121a1.45,1.45,0,0,0,1.12-1.12c-.186-.794-1.026-.981-1.681-1.027a1.34,1.34,0,0,0-.794,1.12A2.151,2.151,0,0,0-498.584-149.209Zm-45.055.093a9.048,9.048,0,0,1,3.128-2.568,6.118,6.118,0,0,1,1.914,3.034c-1.4.747-2.755,1.821-4.576,1.214A1.144,1.144,0,0,1-543.64-149.116Zm2.241-5.369,3.829.327C-538.832-153.971-540.885-151.917-541.4-154.485Zm3.5,6.4,2.1,2.006a3.547,3.547,0,0,0,3.128.328l-.561-.794c-1.82.42-3.128-.888-4.015-2.241a4.217,4.217,0,0,1,2.708-1.447c1.261-.233.28,1.261,1.214,1.587a1.109,1.109,0,0,0,1.354-.373c.42-.7-.281-1.261-.7-1.681-1.868-.887-3.735.14-5.135,1.354-.607-.98-1.775-1.82-1.775-2.894a21.216,21.216,0,0,1,5.229-2.147c.093-.187-.093-.281-.187-.42-2.941-.14-5.976-.094-8.637-.934l-.14.467a7.364,7.364,0,0,1,2.241,2.708c-2.008,1.074-4.249,2.288-5.6,4.342a1.986,1.986,0,0,0,.467,2.008C-543.267-144.4-540.232-146.407-537.9-148.088Zm29.461,3.361c-1.775-3.034-5.649-2.8-8.171-4.949-.467-.607.28-1.075.654-1.354a5.676,5.676,0,0,1,5.836,1.914c.561.654.139,2.148,1.214,2.241a29.091,29.091,0,0,0,.793-3.688c-.607-.514-.793.607-1.354.56-2.055-1.4-4.9-2.474-7.61-1.587-.84.326-1.868,1.074-1.682,2.148,1.495,3.269,5.65,2.614,8.078,4.9a1.067,1.067,0,0,1-.233,1.354c-1.027.887-2.614.7-3.921.561a5.9,5.9,0,0,1-3.362-2.569c-.513-.793-.233-2.194-1.12-2.568a19.611,19.611,0,0,0-1.027,4.482c.84.42.981-.84,1.681-.56,2.475,1.774,6.07,2.755,8.965,1.354A2.231,2.231,0,0,0-508.436-144.728Zm-92.353-2.941a54.876,54.876,0,0,1,1.448,5.93c-.327.98-1.448,1.354-2.1,1.821l.232.326c1.915-.467,3.876-.888,5.79-1.354v-.419h-.747c-3.362.467-2.333-3.688-3.5-5.51l.327-.326,9.665,5.135.56-.233c-.42-2.615-1.447-5-1.681-7.7.281-1.167,1.681-1.027,2.1-1.82-2.147-.281-4.108.934-6.164,1.12l-.093.14c.467.607,1.494.233,2.241.326,1.587,1.168,1.727,3.456,1.914,5.276-2.941-1.587-5.929-3.127-8.731-4.715l-4.155,1.026C-603.216-147.808-601.442-148.789-600.789-147.669Zm26.894,2.941c0-1.26-.467-2.521-.327-3.922.514-.933,1.588-.467,2.241-1.026-1.214-.98-2.475.42-3.922.093-1.026.514-2.708-.093-3.361.794l1.774.139c1.074.421.794,1.682.7,2.568-1.307,1.635-3.828,1.962-5.742,1.448a4.489,4.489,0,0,1-2.241-3.688,4.087,4.087,0,0,1,1.261-3.829,5.962,5.962,0,0,1,6.163,0c.84.561,1.168,1.821,2.1,1.821l-.42-3.735-.326-.188-.794.982c-3.408-.747-7.377-.42-9.524,2.382a4.3,4.3,0,0,0-1.027,3.548,5.383,5.383,0,0,0,2.568,2.707,8.915,8.915,0,0,0,9.338-1.214,2.1,2.1,0,0,1,.98,1.214A1.016,1.016,0,0,0-573.9-144.728Zm5.183-8.637.187,6.584-.327.467c-.513.654-1.774.094-1.914.887,4.2,0,8.544-.373,12.793-.56a24.94,24.94,0,0,0-.233-3.783c-.233-.093-.374.14-.561.187a3.265,3.265,0,0,1-1.774,2.615c-1.728.467-3.5,1.307-5.276.326a7.29,7.29,0,0,1-.234-3.5c1.028-.14,2.289-.28,3.035.56.467.42-.14,1.962,1.027,1.354.047-1.681-.14-3.269-.233-4.9-1.027-.139-.327,1.261-1.027,1.681a3.973,3.973,0,0,1-3.034.42c.139-.98-.281-2.194.373-3.034,1.962-.467,4.622-.7,6.164.933.467.421.326,1.821,1.307,1.308-.561-1.121.887-3.829-1.214-3.548-3.548.561-7.75.28-11.532.654v.327c.7.42,1.914,0,2.475,1.026" transform="translate(651.655 155.746)" fill="#254558"/>
        </g>
      </g>
    </g>
  </g>
</svg>
