<svg xmlns="http://www.w3.org/2000/svg" width="144.64" height="35.996" viewBox="0 0 144.64 35.996">
  <g id="longines" transform="translate(-299.1 -182.232)">
    <path id="Path_324" data-name="Path 324" d="M393.5,183.588l.648-.72h1.8v6.988h-2.737a4.959,4.959,0,0,0-1.945-4.178,5.4,5.4,0,0,0-5.691,0c-2.521,1.729-3.242,4.682-2.882,7.636a6.985,6.985,0,0,0,3.89,5.547,5.1,5.1,0,0,0,5.691-1.225c.5-.288.432-1.657.432-2.449a1.2,1.2,0,0,0-.72-1.009,9.179,9.179,0,0,0-2.017-.144v-2.161h8.861v2.161c-.792,0-1.8-.144-2.089.72l-.144.576v6.051h-2.809l-.432-1.009c-2.593,2.017-7.06,1.8-9.869.288a9.143,9.143,0,0,1-4.9-9,10.068,10.068,0,0,1,6.339-8.645,9.719,9.719,0,0,1,8.573.576Z" transform="translate(-22.218 -0.011)" fill="#254558" fill-rule="evenodd"/>
    <path id="Path_325" data-name="Path 325" d="M491.27,184.171c.216-.432.5-.792.72-1.225h1.585v6.844h-2.233a5.061,5.061,0,0,0-2.737-4.178,5.337,5.337,0,0,0-4.9.144,2.122,2.122,0,0,0-.936,1.729,2.1,2.1,0,0,0,.936,1.657,5.391,5.391,0,0,0,2.305.72c2.882.648,6.627.72,7.852,4.106a6.455,6.455,0,0,1-1.225,6.123c-2.017,2.089-5.331,2.089-8,1.441a15.662,15.662,0,0,1-3.026-1.225l-.432,1.153h-1.8v-7.276h2.233a4.825,4.825,0,0,0,2.233,4.106c1.585,1.009,3.89,1.585,5.691.648a2.466,2.466,0,0,0,1.369-2.593c-.5-2.089-2.809-2.089-4.466-2.449-2.593-.576-5.979-.72-6.916-3.818a5.792,5.792,0,0,1,1.8-5.979,8.513,8.513,0,0,1,8.572-.72,5.216,5.216,0,0,1,1.369.792Z" transform="translate(-50.4 -0.089)" fill="#254558" fill-rule="evenodd"/>
    <path id="Path_326" data-name="Path 326" d="M308.969,185.133c-1.009.144-2.305-.36-2.882.72a2.136,2.136,0,0,0-.216,1.369v12.1c2.665-.144,6.339.72,7.348-2.377a10.414,10.414,0,0,0,.36-3.386h2.089v7.924H299.1v-2.161c.936,0,2.089.216,2.593-.72a3.238,3.238,0,0,0,.288-1.657V185.926a1.174,1.174,0,0,0-.936-.792c-.576-.072-1.3,0-1.945-.072V182.9h9.941l-.072,2.233Z" transform="translate(0 -0.187)" fill="#254558" fill-rule="evenodd"/>
    <path id="Path_327" data-name="Path 327" d="M365.272,195.13h0v-8.068a2.017,2.017,0,0,0-1.009-1.585,4.391,4.391,0,0,0-1.945-.216V183.1h8.356v2.161c-.72,0-1.585-.144-2.089.5a3.369,3.369,0,0,0-.576,2.233v13.615h-3.17L355.547,188.5h0v9.581a1.435,1.435,0,0,0,.792,1.3,7.133,7.133,0,0,0,2.161.144v2.161H350v-2.161c.864,0,2.017.144,2.377-.576a2.481,2.481,0,0,0,.288-1.441V187.134a2.043,2.043,0,0,0-.864-1.441,3,3,0,0,0-1.8-.288v-2.161h7.06l8.212,11.886Z" transform="translate(-14.233 -0.243)" fill="#254558" fill-rule="evenodd"/>
    <path id="Path_328" data-name="Path 328" d="M437.672,195.13h0v-8.068a2.017,2.017,0,0,0-1.009-1.585,4.391,4.391,0,0,0-1.945-.216V183.1h8.356v2.161c-.72,0-1.585-.144-2.089.5a3.369,3.369,0,0,0-.576,2.233v13.615h-3.17L427.947,188.5h0v9.581a1.435,1.435,0,0,0,.792,1.3,7.133,7.133,0,0,0,2.161.144v2.161h-8.5v-2.161c.864,0,2.017.144,2.377-.576a2.481,2.481,0,0,0,.288-1.441V187.134a2.043,2.043,0,0,0-.864-1.441,3,3,0,0,0-1.8-.288v-2.161h7.06l8.212,11.886Z" transform="translate(-34.477 -0.243)" fill="#254558" fill-rule="evenodd"/>
    <path id="Path_329" data-name="Path 329" d="M416.509,185.189c-.936,0-2.017-.144-2.593.72a5.128,5.128,0,0,0-.288,1.513V197.8a1.705,1.705,0,0,0,.792,1.369c.576.36,1.369.144,2.017.216v2.161H407v-2.161c.864,0,1.8.144,2.449-.5a2.177,2.177,0,0,0,.36-1.153v-10.95a1.819,1.819,0,0,0-.792-1.369,8.243,8.243,0,0,0-2.017-.144V183.1h9.509v2.089Z" transform="translate(-30.171 -0.243)" fill="#254558" fill-rule="evenodd"/>
    <path id="Path_330" data-name="Path 330" d="M470.105,190.808h-2.161c.144-2.017-.072-4.034-1.945-5.115a4.434,4.434,0,0,0-1.657-.5h-4.971v5.547c1.225,0,2.882.072,3.458-.864a5.766,5.766,0,0,0,.216-2.233h1.945v8.645h-2.017c-.072-1.081.144-2.305-.864-2.882a8.011,8.011,0,0,0-2.809-.288v6.339h5.835a2.827,2.827,0,0,0,2.521-1.513,11.826,11.826,0,0,0,.288-4.034h2.161v7.708H452.6v-2.161c1.009-.072,2.161.216,2.665-.72a4.2,4.2,0,0,0,.216-1.657V186.846a1.544,1.544,0,0,0-.792-1.369,6.429,6.429,0,0,0-2.089-.216V183.1h17.505v7.708Z" transform="translate(-42.922 -0.243)" fill="#254558" fill-rule="evenodd"/>
    <path id="Path_331" data-name="Path 331" d="M341.56,187.468a10.248,10.248,0,0,0-5.259-4.61,9.6,9.6,0,0,0-10.229,2.233,9.714,9.714,0,0,0-2.233,10.445,10.01,10.01,0,0,0,8.068,6.2,9.864,9.864,0,0,0,9.437-4.755A9.72,9.72,0,0,0,341.56,187.468Zm-4.034,8.572a5.07,5.07,0,0,1-4.682,3.17,4.884,4.884,0,0,1-4.178-2.521,9.579,9.579,0,0,1,0-9.437,4.818,4.818,0,0,1,8.284-.288A9.646,9.646,0,0,1,337.526,196.04Z" transform="translate(-6.73)" fill="#254558" fill-rule="evenodd"/>
    <g id="Group_106" data-name="Group 106" transform="translate(336.488 204.252)">
      <g id="Group_105" data-name="Group 105">
        <path id="Path_332" data-name="Path 332" d="M393.43,212.872l-1.369,2.233c-.5-.72-.936-1.513-1.369-2.233h-9.941l-1.369,2.233c-.5-.72-.936-1.513-1.441-2.233H351l3.746,2.665H360l2.521,1.8h4.9l2.593,1.945h4.971l2.449,1.8h4.106v5.691H389.9v-5.763h4.106l2.377-1.8h4.971l2.521-1.945h4.9l2.521-1.8h5.259l3.818-2.665H393.43Zm-11.166,13.255,1.009-1.441h4.754c.432.5.792,1.009,1.153,1.441Zm5.259-2.233h-3.6l1.729-2.593Zm-3.53-6.051h3.314l-1.585,2.305Zm2.161,2.882c.864-1.369,1.873-2.665,2.809-4.034v8Zm1.729-3.6h-4.394l-1.081-1.513h6.483Zm-2.593,3.6-3.026,4.25V216.69C383.273,218.059,384.281,219.355,385.29,220.724Zm30.688-5.979H401.643c-.288.288-.648.5-.936.792h8.861l-1.3,1.081H396.744l-.864.792h6.483l-1.441,1.081h-8.356l-.936.792h3.242l-1.369,1.009h-3.674v-5.331h-8.356v5.331H377.8c-.432-.36-.936-.648-1.369-1.009h3.17a10.778,10.778,0,0,0-.936-.792h-8.356c-.5-.36-1.009-.72-1.441-1.081h6.483a8.222,8.222,0,0,0-.792-.792H363.03c-.432-.36-.936-.72-1.3-1.081h8.861l-.936-.792H355.322l-2.017-1.153h24.061l1.8,3.026c.72-.937,1.3-2.017,2.017-3.026h8.861c.648,1.009,1.3,2.017,2.017,3.026l1.8-3.026H418Z" transform="translate(-351 -212.8)" fill="#254558" fill-rule="evenodd"/>
      </g>
    </g>
  </g>
</svg>
