<svg xmlns="http://www.w3.org/2000/svg" width="41.953" height="50.753" viewBox="0 0 41.953 50.753">
  <g id="louis-vuitton" transform="translate(-300.379 -78.403)">
    <path id="Path_391" data-name="Path 391" d="M343.043,296.851h.553v4.676l-3.38-3.539v3.365h-.569V296.63l3.4,3.554v-3.333Zm-15.891,0v2.859a1.772,1.772,0,0,1-.426,1.232,1.533,1.533,0,0,1-1.232.506,1.51,1.51,0,0,1-1.2-.506,1.708,1.708,0,0,1-.442-1.232v-2.859h.568v2.67c0,.932.348,1.406,1.074,1.406.742,0,1.106-.474,1.106-1.406v-2.67Zm1.738,0h2.7v.522h-1.074v3.981h-.537v-3.981h-1.09v-.522Zm-.979,0h.569v4.5h-.569v-4.5Zm-4.976,0h.616l-1.959,4.755-1.959-4.755h.616l1.343,3.333,1.343-3.333Zm15.67,2.259a1.755,1.755,0,0,1-.537,1.3,1.671,1.671,0,0,1-1.248.521,1.793,1.793,0,0,1-1.28-.521,1.756,1.756,0,0,1-.537-1.3,1.78,1.78,0,0,1,1.817-1.816,1.647,1.647,0,0,1,1.279.537,1.79,1.79,0,0,1,.506,1.28Zm-.126-1.658a2.346,2.346,0,0,0-3.333,0,2.345,2.345,0,0,0,0,3.333,2.313,2.313,0,0,0,1.675.664,2.335,2.335,0,0,0,1.659-4Zm-4.155-.6v.522h-1.059v3.981H332.7v-3.981h-1.074v-.522Zm-26.128.979a1.777,1.777,0,0,1,.49,1.28,1.8,1.8,0,0,1-.521,1.3,1.73,1.73,0,0,1-1.264.521,1.791,1.791,0,0,1-1.279-.521,1.869,1.869,0,0,1-.521-1.3,1.791,1.791,0,0,1,.505-1.28,1.7,1.7,0,0,1,1.295-.537,1.681,1.681,0,0,1,1.3.537Zm.364-.379a2.321,2.321,0,0,0-1.659-.695,2.357,2.357,0,1,0,2.354,2.353,2.209,2.209,0,0,0-.695-1.658Zm1.722,2.069c0,.932.363,1.406,1.09,1.406.711,0,1.09-.475,1.09-1.406v-2.669h.553v2.859a1.711,1.711,0,0,1-.442,1.232,1.511,1.511,0,0,1-1.2.506,1.489,1.489,0,0,1-1.2-.506,1.655,1.655,0,0,1-.458-1.232v-2.859h.569v2.669Zm-7.172-2.669v4h1.374v.506h-1.927v-4.5h.553Zm13.537,1.848c.758.3,1.122.742,1.122,1.343a1.323,1.323,0,0,1-.426,1.011,1.345,1.345,0,0,1-1,.4,1.324,1.324,0,0,1-.948-.364,1.46,1.46,0,0,1-.458-.9l.569-.126a.847.847,0,0,0,.253.632.858.858,0,0,0,.616.237.816.816,0,0,0,.6-.269.89.89,0,0,0,.221-.616c0-.348-.253-.632-.774-.853l-.316-.111c-.632-.3-.964-.679-.964-1.153a1.073,1.073,0,0,1,.395-.853,1.39,1.39,0,0,1,.932-.316,1.238,1.238,0,0,1,1.153.695l-.442.253a.821.821,0,0,0-.727-.411.848.848,0,0,0-.521.158.583.583,0,0,0-.237.474c0,.268.205.474.648.632l.3.142Zm-2.875-1.848h.569v4.5h-.569v-4.5Z" transform="translate(-1.72 -172.45)" fill="#254558" fill-rule="evenodd"/>
    <path id="Path_392" data-name="Path 392" d="M334.234,83.7l-10.9,25.715-3.006-6.6,5.552-15.111C326.3,86.544,327.763,86,330.226,86l.877-2.3H318.162l-.835,2.3c1.837,0,2.588.542,2.3,1.711l-2.755,7.681L311.441,83.7c-1-1.252-.5-1.878,1.461-1.878V79.113H300.379v2.714c2.338,0,3.8.626,4.425,1.878l9.184,19.537-4.3,11.48c-.084,1.544-2.5,2.3-7.181,2.3l-.876,2.3h35.733l4.968-10.562h-2.588c-2.422,5.468-5.218,8.265-8.349,8.265H314.989l2.421-6.47,2.087,4.175h4.676L337.364,83.7c.626-1.878,2.254-2.88,4.8-2.88V78.4h-10.77v2.422c3.256,0,4.174,1,2.839,2.88Z" fill="#254558" fill-rule="evenodd"/>
  </g>
</svg>
