<svg xmlns="http://www.w3.org/2000/svg" width="102.8" height="50.1" viewBox="0 0 102.8 50.1">
  <path id="omega" d="M398.6,176c5.9,0,9.6,4.9,9.6,10.2,0,5.2-2.9,9.4-7,12.4l.2.4h9.4l2-3.9h-1l-1.3,1.9h-4.8c3.3-2.4,6.1-6.1,6.1-10.7,0-7.3-6.6-11.6-13.3-11.6s-13.3,4.3-13.3,11.6c0,4.6,2.8,8.3,6.1,10.7h-4.8l-1.3-1.9h-1l2,3.9h9.4l.2-.4c-4-3-7-7.2-7-12.4.2-5.3,3.9-10.2,9.8-10.2m-49.8,38.5a10.1,10.1,0,1,0,10.1-10.1,10.072,10.072,0,0,0-10.1,10.1m23.9,9.7,3.7-11.7,5.3,12.3,5.3-12.3,3.7,11.7h3l-6.3-19.9-5.7,13.3L376,204.3l-6.3,19.9Zm-6.6-9.7a7.2,7.2,0,1,1-7.2-7.3,7.32,7.32,0,0,1,7.2,7.3m67.9,9.7,2-4h10.3l2,4h3.3l-10.4-20.5-10.4,20.5Zm-13.1-16.9a7.3,7.3,0,0,0,0,14.6,7.11,7.11,0,0,0,6.9-5.2H421v-2.8h9.9v.7a10.1,10.1,0,1,1-10.1-10.1,9.951,9.951,0,0,1,8.2,4.3l-2.3,1.7a6.592,6.592,0,0,0-5.8-3.2m-24.8-2.4v19.4h11.8v-2.8H399V216h8.6v-2.8H399v-5.4h8.9V205H396.1Zm45,5.2,3.7,7.3h-7.4Z" transform="translate(-348.8 -174.7)" fill="#254558"/>
</svg>
