<svg xmlns="http://www.w3.org/2000/svg" width="90.3" height="50.199" viewBox="0 0 90.3 50.199">
  <g id="rolex" transform="translate(-354.9 -168)">
    <path id="Path_372" data-name="Path 372" d="M400,191c2.8,0,5,.7,5,1.6s-2.2,1.6-5,1.6-5-.7-5-1.6,2.2-1.6,5-1.6m-10.9-14a.6.6,0,0,0,.4-.1l4.5,15.4c.5,1.7,3,3,6,3s5.5-1.3,6-3l4.5-15.4h.3a1.714,1.714,0,1,0-.7-.2L404.8,188l.8-15.2h0a1.6,1.6,0,1,0-1.6-1.6,1.625,1.625,0,0,0,1.1,1.5l-3.5,14.8-1.7-16.3a1.617,1.617,0,0,0,1.4-1.6,1.6,1.6,0,0,0-3.2,0,1.617,1.617,0,0,0,1.4,1.6l-1.7,16.3-3.5-14.8a1.458,1.458,0,1,0-.4.1h0l.8,15.2-5.3-11.3a1.693,1.693,0,0,0,.9-1.4,1.6,1.6,0,1,0-3.2,0,2.309,2.309,0,0,0,2,1.7" fill="#254558"/>
    <path id="Path_373" data-name="Path 373" d="M385.8,214.7a4.741,4.741,0,0,1-1,1,3.176,3.176,0,0,1-2,.8H382a3.678,3.678,0,0,1-2.1-.8,4.741,4.741,0,0,1-1-1,7.931,7.931,0,0,1-1.4-4.7,9.109,9.109,0,0,1,1.2-4.5,3.508,3.508,0,0,1,1.9-1.7h.1c.1,0,.2-.1.3-.1a3.7,3.7,0,0,1,2.4,0c.1,0,.2.1.3.1h.1a4.508,4.508,0,0,1,1.9,1.7,7.941,7.941,0,0,1,1.2,4.5,6.183,6.183,0,0,1-1.1,4.7m-3.4-12.9a8.2,8.2,0,1,0,8.3,8.2,8.259,8.259,0,0,0-8.3-8.2" fill="#254558"/>
    <path id="Path_374" data-name="Path 374" d="M407.1,211.7H406V214a2.54,2.54,0,0,1-2.5,2.5h-4.8V203.6h2.2v-1.2h-8v1.2h2.2v12.9h-2.2v1.2h14.3v-3.8h0v-2.2" fill="#254558"/>
    <path id="Path_375" data-name="Path 375" d="M424.6,202.4H409.5v1.2h2.2v12.9h-2.2v1.2h15.1v-5.5h-1.2V214h0a2.54,2.54,0,0,1-2.5,2.5h-5.7v-6.4H417a1.9,1.9,0,0,1,1.9,1.9h0v.8H420v-6.4h-1v.7h0a1.817,1.817,0,0,1-1.9,1.8h-1.8v-5.5H421a2.476,2.476,0,0,1,2.5,2.5h0v1.6h1.2l-.1-5.1h0" fill="#254558"/>
    <path id="Path_376" data-name="Path 376" d="M444.3,216.5c-1.1,0-1.4-.4-2.2-1.3l-5-6.3,3.3-4h0c.9-1,1.1-1.4,2.3-1.4h.9v-1.1h-6.1v1.1h1.4a.472.472,0,0,1,.5.5.367.367,0,0,1-.1.3l-3,3.5-2.3-2.9-.5-.6a.367.367,0,0,1-.1-.3.472.472,0,0,1,.5-.5h1.3v-1.1h-7.7v1.1h.4c1,0,1.3.4,2,1.3l4.5,5.6-4,4.8h0c-.9,1-1.1,1.4-2.3,1.4h-.9v1.1h6.6v-1.1H432a.472.472,0,0,1-.5-.5.367.367,0,0,1,.1-.3l3.6-4.3,3,3.7.5.6a.367.367,0,0,1,.1.3.472.472,0,0,1-.5.5h-1.4v1.1h8.3v-1.1h-.9" fill="#254558"/>
    <path id="Path_377" data-name="Path 377" d="M364.4,209.1h-3.7v-5.6h3.7a2.8,2.8,0,1,1,0,5.6m7.1,7.4-1-2.9A6.369,6.369,0,0,0,369,211a6.529,6.529,0,0,0-1.7-.8,3.925,3.925,0,0,0-.6-7.8H355v1.1h2.1v12.9h-2.2v1.2h7.9v-1.2h-2.2v-6.2h2.2a5.9,5.9,0,0,1,1.4.2,3.583,3.583,0,0,1,1.1.4,2.606,2.606,0,0,1,1.1,1.2c.1.2.2.3.3.5a24.557,24.557,0,0,1,1.5,5.1h5v-1.2l-1.7.1Z" fill="#254558"/>
  </g>
</svg>
