<svg xmlns="http://www.w3.org/2000/svg" width="107.7" height="50" viewBox="0 0 107.7 50">
  <g id="tagheuer" transform="translate(-346.7 -174.9)">
    <path id="Path_44" data-name="Path 44" d="M355.3,224.5V213.2h5v-2.7H346.7v2.7h5v11.3Z" fill="#254558" fill-rule="evenodd"/>
    <path id="Path_45" data-name="Path 45" d="M388.8,224.4c-2.7.6-6.2.8-8.8-.4a6.745,6.745,0,0,1-3.8-5.4,7.017,7.017,0,0,1,2.9-6.7c2.5-1.8,6.6-1.8,9.3-.5v2.8c-2.1-1-5.2-1.5-7.3,0a4.469,4.469,0,0,0-1.5,4.6,4.576,4.576,0,0,0,2.8,3.1,8,8,0,0,0,3.1.3v-2.3h-1.4v-2.7h4.5l.2,7.2Z" fill="#254558" fill-rule="evenodd"/>
    <path id="Path_46" data-name="Path 46" d="M402.5,218.1v6.5h1.3V210.7h-1.3V217h-8.7v-6.3h-1.3v13.9h1.3v-6.5Z" fill="#254558" fill-rule="evenodd"/>
    <path id="Path_47" data-name="Path 47" d="M428.3,221.1a4.149,4.149,0,0,1-3.9,2.7c-2.4,0-3.2-1.7-3.2-3.4v-7.8h-1.3v7.5c0,4.6,3.4,4.8,4.4,4.8a4.753,4.753,0,0,0,4.1-2.1v1.8h1.3V212.5h-1.3l-.1,8.6Z" fill="#254558" fill-rule="evenodd"/>
    <path id="Path_48" data-name="Path 48" d="M454.4,213.7a4.2,4.2,0,0,0-2.8-1.4c-2.1,0-4.2,3.2-4.2,3.2v-3H446v12.1h1.3v-7.7s1.9-3.3,3.7-3.3a4.132,4.132,0,0,1,2.5,1.3l.9-1.2Z" fill="#254558" fill-rule="evenodd"/>
    <path id="Path_49" data-name="Path 49" d="M364.4,221.9l-1.1,2.7h-3.8l5.7-14h4.1l6.2,14h-3.8l-1.1-2.7Zm5.2-2.5-2.2-5.2-2,5.2Z" fill="#254558" fill-rule="evenodd"/>
    <path id="Path_50" data-name="Path 50" d="M407.8,218.1v.4c0,2.9,1.9,5.1,4.8,5.1a7.215,7.215,0,0,0,4.5-1.8v1.4a7.076,7.076,0,0,1-4.6,1.6c-4.4,0-6.1-3.7-6.1-6.3,0-3.4,2.2-6.2,5.4-6.2,3.6,0,5.5,2.8,5.5,5.8Zm.2-1.1h7.7a3.832,3.832,0,0,0-3.9-3.5c-2,0-3.3,1.5-3.8,3.5Z" fill="#254558" fill-rule="evenodd"/>
    <path id="Path_51" data-name="Path 51" d="M433.9,218.1v.4c0,2.9,1.9,5.1,4.8,5.1a7.215,7.215,0,0,0,4.5-1.8v1.4a7.076,7.076,0,0,1-4.6,1.6c-4.4,0-6.1-3.7-6.1-6.3,0-3.4,2.2-6.2,5.4-6.2,3.6,0,5.5,2.8,5.5,5.8Zm.2-1.1h7.7a3.832,3.832,0,0,0-3.9-3.5c-2,0-3.3,1.5-3.8,3.5Z" fill="#254558" fill-rule="evenodd"/>
    <path id="Path_52" data-name="Path 52" d="M386.2,174.9V197l14.5,7.9,14.5-7.9V174.9Zm14.4,29L387,196.4V175.8h27.2v20.6Z" fill="#254558" fill-rule="evenodd"/>
    <path id="Path_53" data-name="Path 53" d="M400.6,202.6l-12.4-6.8v-6.2H413v6.2Zm-12.1-7.1,12.1,6.6,12.1-6.6v-5.7H388.5Zm24.5-6.3H388.2V177H413v12.2Zm-24.5-.3h24.2V177.3H388.5Z" fill="#254558"/>
    <path id="Path_54" data-name="Path 54" d="M397.2,198.3v.8l-2.4-1.3v-7h2.4v.8h-1.7v1.8l1.7.4v.8l-1.7-.4v3.2Z" fill="#254558" fill-rule="evenodd"/>
    <path id="Path_55" data-name="Path 55" d="M390.6,193.1v2.5l-.7-.4v-4.4h.7v1.6l2,.4v-2h.7V197l-.7-.4v-3Z" fill="#254558" fill-rule="evenodd"/>
    <path id="Path_56" data-name="Path 56" d="M404,199.1v-8.3h2.5v.8h-1.8v2.2l1.8-.3v.7l-1.8.4v3.3l1.8-.9v.8Z" fill="#254558" fill-rule="evenodd"/>
    <path id="Path_57" data-name="Path 57" d="M398.7,199.9v-9.1h.8v8.5l1.1.5,1.1-.5v-8.5h.9v9.1l-2,1Z" fill="#254558" fill-rule="evenodd"/>
    <path id="Path_58" data-name="Path 58" d="M410.2,193.5l.8-.2c.3-.1.3-.2.3-.4v-1.8c0-.2-.2-.3-.4-.3h-3V197l.7-.4v-2.8l.7-.2,1.8,1.6.7-.4-1.6-1.3Zm-1.6-.5v-1.5h1.9c.1,0,.1,0,.1.1v.9c0,.1,0,.1-.1.1l-1.9.4Z" fill="#254558" fill-rule="evenodd"/>
    <g id="Group_103" data-name="Group 103">
      <g id="Group_102" data-name="Group 102">
        <path id="Path_59" data-name="Path 59" d="M409.3,182.8h-4.5v-.4l2.8-2.3-3.7-2.6v1.3a4.284,4.284,0,0,0-1.6.5v-.5h-2.7l-1,1.5V179h-6.4v2.6h1.6v5.7l-.7,1.1h3.5l.8-1.2h2.1v1.2h2.8v-.3a3.994,3.994,0,0,0,2.2.5,4.908,4.908,0,0,0,4.9-4.9C409.4,183.4,409.3,183.1,409.3,182.8Zm-7.5,5.1H400v-1.2h-2.8l-.8,1.2h-2.3l.3-.4v-6.3h-1.7v-1.7h5.5v1.7h-1.8v3.5l3.6-5.2h1.9v.2a4.919,4.919,0,0,0-2.1,3.3l-1.5,2.1h1.6a5.428,5.428,0,0,0,1.9,2.8Zm-4-6.3-1,1.4v-1.4Zm1.9,3h-.5l.4-.6A2.142,2.142,0,0,0,399.7,184.6Zm4.9,3.5a4.3,4.3,0,0,1,0-8.6v-.8l2.3,1.6-2.3,1.9v-.9a2.582,2.582,0,0,0-2.6,2.6,2.647,2.647,0,0,0,2.6,2.6,2.526,2.526,0,0,0,2.3-1.5h-2.5v.7l-1.8-1.5,1.8-1.5v.7h4.5v.4A4.332,4.332,0,0,1,404.6,188.1Zm-.7-6.4v.5l-1.5,1.3A2.21,2.21,0,0,1,403.9,181.7Zm-1.2,3.2.9.7A1.848,1.848,0,0,1,402.7,184.9Zm2.1.9v-.4h1A3.52,3.52,0,0,1,404.8,185.8Z" fill="#254558" fill-rule="evenodd"/>
      </g>
    </g>
  </g>
</svg>
