<svg xmlns="http://www.w3.org/2000/svg" width="89.3" height="50.2" viewBox="0 0 89.3 50.2">
  <g id="tudor" transform="translate(-355.6 -175.5)">
    <path id="Path_60" data-name="Path 60" d="M407.4,184.8v-4.6a8.952,8.952,0,0,1-5.6-.2v4.8h5.6m-8.6,0V180a8.927,8.927,0,0,1-5.6.2v4.6Zm11,2.8a16.952,16.952,0,0,1-9.5,14.7,16.587,16.587,0,0,1-9.5-14.7v-12a6.342,6.342,0,0,0,8.9,1,4.35,4.35,0,0,1,.7-.6,6.309,6.309,0,0,0,8.9.2,4.349,4.349,0,0,0,.6-.7l-.1,12.1Zm-2.5,0h-14a14.326,14.326,0,0,0,7,11.8A14.465,14.465,0,0,0,407.3,187.6Z" fill="#254558"/>
    <path id="Path_61" data-name="Path 61" d="M381.3,223.3a4.869,4.869,0,0,0,1.2-.1,3.079,3.079,0,0,0,2.4-2.7V212a.675.675,0,0,0-.6-.4,5.852,5.852,0,0,0-1.3-.2h-.6v-1.6h7.2v1.6h-.4c-.4.1-.9.1-1.3.2a.822.822,0,0,0-.6.4v8.5a3.53,3.53,0,0,1-.3,1.4,5.216,5.216,0,0,1-3,3,9.291,9.291,0,0,1-2.9.5,7.1,7.1,0,0,1-2.9-.5,4.318,4.318,0,0,1-2.8-2.3,3.287,3.287,0,0,1-.4-1.7v-8.8a.675.675,0,0,0-.6-.4c-.5-.1-.9-.2-1.4-.3v-1.6h7.3v1.6a5.769,5.769,0,0,0-1.4.3.822.822,0,0,0-.6.4v8.6a2.672,2.672,0,0,0,2,2.6h1" fill="#254558"/>
    <path id="Path_62" data-name="Path 62" d="M358.6,225v-1.7h1.3c.3,0,.5-.1.8-.1a1,1,0,0,0,.4-.5v-11h-.8a1.949,1.949,0,0,0-.8.1,1.855,1.855,0,0,0-1.2.7,5.667,5.667,0,0,0-1.2,2.3h-1.5V210H370v4.8h-1.5a5.667,5.667,0,0,0-1.2-2.3,1.855,1.855,0,0,0-1.2-.7c-.3,0-.6-.1-.8-.1h-.8v11a.664.664,0,0,0,.4.5,2.2,2.2,0,0,0,.8.1H367V225h-8.4" fill="#254558"/>
    <path id="Path_63" data-name="Path 63" d="M399.7,209.8a13.41,13.41,0,0,1,4.4,1,7.324,7.324,0,0,1,3.5,9.6,8.812,8.812,0,0,1-7.1,4.6h-8v-1.5a4.869,4.869,0,0,0,1.2-.1.9.9,0,0,0,.5-.1c.1,0,.2-.1.3-.1a.9.9,0,0,0,.1-.5V212a.675.675,0,0,0-.4-.6c-.2-.1-.3-.1-.5-.2-.4-.1-.8-.1-1.2-.2v-1.3l7.2.1m-2,1.7a.749.749,0,0,0-.1.5v10.7a.749.749,0,0,0,.1.5.367.367,0,0,0,.3.1c.2,0,.3.1.5.1h1.2a4.213,4.213,0,0,0,4.1-2,8.091,8.091,0,0,0-.1-7.7,5.194,5.194,0,0,0-4-2.4h-1.2a.9.9,0,0,0-.5.1C397.9,211.4,397.8,211.5,397.7,211.5Z" fill="#254558"/>
    <path id="Path_64" data-name="Path 64" d="M418.7,209.3a8.2,8.2,0,1,1-8.2,8.2,8.237,8.237,0,0,1,8.2-8.2m3.5,12.6a7.856,7.856,0,0,0,1-4.5,8.747,8.747,0,0,0-1-4.5,4.067,4.067,0,0,0-3.5-1.9,4.194,4.194,0,0,0-3.5,1.9,7.856,7.856,0,0,0-1,4.5,8.747,8.747,0,0,0,1,4.5,4.067,4.067,0,0,0,3.5,1.9A4.194,4.194,0,0,0,422.2,221.9Z" fill="#254558"/>
    <path id="Path_65" data-name="Path 65" d="M439.1,216.5a2.347,2.347,0,0,0,1.8-2,2.417,2.417,0,0,0-2.1-2.8h-.1a14.918,14.918,0,0,0-2.1-.2h-3v5.2h3.9a8.752,8.752,0,0,0,1.6-.2m-3,1.9h-2.6v4.2a.52.52,0,0,0,.2.4.1.1,0,0,1,.1.1.9.9,0,0,0,.5.1,4.868,4.868,0,0,0,1.2.1V225h-7v-1.7c.4,0,.8-.1,1.2-.1a4.331,4.331,0,0,0,.5-.1.1.1,0,0,0,.1-.1.52.52,0,0,0,.2-.4V212.1c0-.2,0-.3-.2-.4l-.1-.1c-.2-.1-.3-.1-.5-.2-.4-.1-.9-.2-1.3-.3v-1.5h10.9a3.936,3.936,0,0,1,2.1.6,4.271,4.271,0,0,1,1.9,3.4,4.446,4.446,0,0,1-4.1,4.7l3,4a1.7,1.7,0,0,0,1,.6c.6.1,1.1.1,1.7.2v1.7h-4.3Z" fill="#254558"/>
  </g>
</svg>
