<svg xmlns="http://www.w3.org/2000/svg" width="38.026" height="38.025" viewBox="0 0 38.026 38.025">
  <path id="Icon_metro-warning" data-name="Icon metro-warning" d="M21.583,5.373,37.518,37.131H5.649L21.584,5.373Zm0-3.445a2.748,2.748,0,0,0-2.261,1.658L3.092,35.934c-1.243,2.211-.186,4.019,2.351,4.019H37.724c2.536,0,3.594-1.809,2.351-4.019h0L23.844,3.586a2.748,2.748,0,0,0-2.261-1.658Zm2.377,30.9a2.377,2.377,0,1,1-2.377-2.377A2.377,2.377,0,0,1,23.96,32.824Zm-2.377-4.753a2.377,2.377,0,0,1-2.377-2.377v-7.13a2.377,2.377,0,0,1,4.753,0v7.13A2.377,2.377,0,0,1,21.583,28.071Z" transform="translate(-2.571 -1.928)" fill="#254558"/>
</svg>
