<svg xmlns="http://www.w3.org/2000/svg" width="124.4" height="50.1" viewBox="0 0 124.4 50.1">
  <g id="zenith" transform="translate(-338.4 -174.1)">
    <rect id="Rectangle_42" data-name="Rectangle 42" width="2.1" height="13.8" transform="translate(416.6 193.2)" fill="#254558"/>
    <path id="Path_68" data-name="Path 68" d="M338.4,193.2v2.1h14.2l-14.2,9.6h0V207h18.5v-2.1H342.5l14.4-9.8v-1.9Z" fill="#254558"/>
    <path id="Path_69" data-name="Path 69" d="M408.6,193.2h-2.1v11.2l-13.4-11.2H391V207h2.1V196l13.2,11h2.3Z" fill="#254558"/>
    <path id="Path_70" data-name="Path 70" d="M460.7,193.2v5.4H448.8v-5.4h-2.1V207h2.1v-6.3h11.9V207h2.1V193.2Z" fill="#254558"/>
    <path id="Path_71" data-name="Path 71" d="M440.2,193.2H424.7v2.1h6.7V207h2.1V195.3h6.7Z" fill="#254558"/>
    <path id="Path_72" data-name="Path 72" d="M381.8,204.9H368.3V201h13v-2.1h-13v-3.6h13.4v-2.1H366.2V207h15.6Z" fill="#254558"/>
    <path id="Path_73" data-name="Path 73" d="M340.7,214a2.934,2.934,0,0,0-1-.3c-.3,0-.6.1-.6.5,0,.7,2,.8,2,2,0,.7-.6,1.1-1.5,1.1a2.332,2.332,0,0,1-1.1-.2v-.7a2.352,2.352,0,0,0,1.2.4c.5,0,.7-.3.7-.6,0-.9-2-.9-2-2.1,0-.7.6-1,1.4-1a7.721,7.721,0,0,1,1,.1v.8Z" fill="#254558"/>
    <path id="Path_74" data-name="Path 74" d="M343.1,213.3h.7l.5,3h.1l1-3h.6l1,3h.1l.5-3h.7l-.8,4h-.7l-1.1-2.9h0l-1.1,2.9h-.7Z" fill="#254558"/>
    <rect id="Rectangle_43" data-name="Rectangle 43" width="0.7" height="4" transform="translate(351.2 213.3)" fill="#254558"/>
    <path id="Path_75" data-name="Path 75" d="M357.3,214a2.934,2.934,0,0,0-1-.3c-.3,0-.6.1-.6.5,0,.7,2,.8,2,2,0,.7-.6,1.1-1.5,1.1a2.332,2.332,0,0,1-1.1-.2v-.7a2.352,2.352,0,0,0,1.2.4c.6,0,.7-.3.7-.6,0-.9-2-.9-2-2.1,0-.7.6-1,1.4-1a7.721,7.721,0,0,1,1,.1v.8Z" fill="#254558"/>
    <path id="Path_76" data-name="Path 76" d="M362.8,214a2.934,2.934,0,0,0-1-.3c-.3,0-.6.1-.6.5,0,.7,2,.8,2,2,0,.7-.6,1.1-1.5,1.1a2.332,2.332,0,0,1-1.1-.2v-.7a2.352,2.352,0,0,0,1.2.4c.6,0,.7-.3.7-.6,0-.9-2-.9-2-2.1,0-.7.6-1,1.4-1a7.721,7.721,0,0,1,1,.1v.8Z" fill="#254558"/>
    <path id="Path_77" data-name="Path 77" d="M368.3,213.3h.7l.6,3h0l1-3h.6l1,3h.1l.5-3h.7l-.8,4H372l-1.1-2.9h0l-1.1,2.9h-.7Z" fill="#254558"/>
    <path id="Path_78" data-name="Path 78" d="M376.6,215.7h1.1l-.6-1.7h0Zm.1-2.4h.8l1.4,4h-.7l-.4-1.1h-1.5l-.4,1.1h-.7Z" fill="#254558"/>
    <path id="Path_79" data-name="Path 79" d="M382.3,213.9h-1.1v-.6H384v.6h-1v3.4h-.7Z" fill="#254558"/>
    <path id="Path_80" data-name="Path 80" d="M389.4,217.2a2.676,2.676,0,0,1-1.1.2c-1.2,0-1.7-.8-1.7-2.1,0-1.2.4-2,1.6-2,1,0,1.4.5,1.4,1.2h-.8c0-.3-.1-.7-.6-.7-.7,0-.9.8-.9,1.5,0,1,.3,1.6,1.1,1.6a1.964,1.964,0,0,0,1-.3v.6Z" fill="#254558"/>
    <path id="Path_81" data-name="Path 81" d="M392.4,213.3h.7V215h1.5v-1.7h.7v4h-.7v-1.8h-1.5v1.8h-.7Z" fill="#254558"/>
    <path id="Path_82" data-name="Path 82" d="M401.2,213.3h.9l1.2,3.2h0l1.2-3.2h.9v4h-.6v-3.1h0l-1.2,3.1H403l-1.2-3.1h0v3.1h-.6Z" fill="#254558"/>
    <path id="Path_83" data-name="Path 83" d="M408.9,215.7H410l-.6-1.7h0Zm.2-2.4h.8l1.4,4h-.7l-.4-1.1h-1.5l-.4,1.1h-.7Z" fill="#254558"/>
    <path id="Path_84" data-name="Path 84" d="M414.1,213.3h.9l1.6,3h0v-3h.7v4h-.8l-1.7-3.1h0v3.1h-.7Z" fill="#254558"/>
    <path id="Path_85" data-name="Path 85" d="M423.3,216.1c0,.9-.5,1.3-1.4,1.3a1.236,1.236,0,0,1-1.4-1.3v-2.8h.7v2.8c0,.5.2.8.7.8s.7-.3.7-.8v-2.8h.7v2.8Z" fill="#254558"/>
    <path id="Path_86" data-name="Path 86" d="M426.5,213.3h2.4v.6h-1.7V215h1.6v.5h-1.6v1.8h-.7Z" fill="#254558"/>
    <path id="Path_87" data-name="Path 87" d="M432.6,215.7h1.1l-.6-1.7h0Zm.1-2.4h.8l1.4,4h-.7l-.4-1.1h-1.5l-.4,1.1h-.7Z" fill="#254558"/>
    <path id="Path_88" data-name="Path 88" d="M440.5,217.2a2.676,2.676,0,0,1-1.1.2c-1.2,0-1.7-.8-1.7-2.1,0-1.2.5-2,1.6-2,1,0,1.4.5,1.4,1.2h-.8c0-.3-.1-.7-.6-.7-.7,0-.9.8-.9,1.5,0,1,.3,1.6,1.1,1.6a1.964,1.964,0,0,0,1-.3v.6Z" fill="#254558"/>
    <path id="Path_89" data-name="Path 89" d="M444.1,213.9H443v-.6h2.8v.6h-1v3.4h-.7Z" fill="#254558"/>
    <path id="Path_90" data-name="Path 90" d="M451.4,216.1c0,.9-.5,1.3-1.4,1.3a1.236,1.236,0,0,1-1.4-1.3v-2.8h.7v2.8c0,.5.2.8.7.8s.7-.3.7-.8v-2.8h.7v2.8Z" fill="#254558"/>
    <path id="Path_91" data-name="Path 91" d="M455.3,215.1h.3c.4,0,.9-.1.9-.7a.53.53,0,0,0-.6-.6h-.5l-.1,1.3Zm-.7-1.8h1.2c.8,0,1.3.3,1.3,1a.882.882,0,0,1-.8.9h0c.6.1.6.5.7.9l.3,1.1h-.7l-.2-.9c-.1-.6-.2-.8-.9-.8h-.3v1.7h-.7v-3.9Z" fill="#254558"/>
    <path id="Path_92" data-name="Path 92" d="M460.3,213.3h2.5v.6H461V215h1.7v.5H461v1.3h1.8v.5h-2.5Z" fill="#254558"/>
    <path id="Path_93" data-name="Path 93" d="M381.5,221.8a1.445,1.445,0,0,0-.7-.2c-.2,0-.4.1-.4.3,0,.5,1.4.6,1.4,1.4,0,.5-.4.8-1.1.8a5.383,5.383,0,0,1-.8-.1v-.5a1.909,1.909,0,0,0,.8.3c.4,0,.5-.2.5-.4,0-.6-1.4-.6-1.4-1.4,0-.5.4-.7,1-.7a5.639,5.639,0,0,1,.7.1Z" fill="#254558"/>
    <rect id="Rectangle_44" data-name="Rectangle 44" width="0.5" height="2.8" transform="translate(384.4 221.4)" fill="#254558"/>
    <path id="Path_94" data-name="Path 94" d="M387.8,221.4h.6l1.2,2h0v-2h.4v2.7h-.5l-1.2-2.1h0v2.1h-.5Z" fill="#254558"/>
    <path id="Path_95" data-name="Path 95" d="M394.8,224a1.292,1.292,0,0,1-.8.2c-.8,0-1.2-.6-1.2-1.4s.3-1.4,1.1-1.4c.7,0,1,.4,1,.8h-.5c0-.2-.1-.5-.4-.5-.5,0-.6.6-.6,1,0,.7.2,1.1.8,1.1a3.1,3.1,0,0,0,.7-.2l-.1.4Z" fill="#254558"/>
    <path id="Path_96" data-name="Path 96" d="M397.6,221.4h1.7v.3h-1.2v.8h1.1v.4h-1.1v.9h1.2v.3h-1.7Z" fill="#254558"/>
    <path id="Path_97" data-name="Path 97" d="M406.3,221.9l-.5.3v-.3l.6-.4h.4v2.6h-.5Z" fill="#254558"/>
    <path id="Path_98" data-name="Path 98" d="M411.1,222.6a.4.4,0,1,0-.4-.4c.1.3.2.4.4.4m0,1.3c.3,0,.4-.2.4-.5a.4.4,0,0,0-.8,0,.457.457,0,0,0,.4.5m-.9-.4a.682.682,0,0,1,.5-.7.575.575,0,0,1-.4-.6c0-.5.4-.7.9-.7s.9.2.9.7a.575.575,0,0,1-.4.6.682.682,0,0,1,.5.7c0,.5-.4.7-.9.7-.7,0-1.1-.2-1.1-.7" fill="#254558"/>
    <path id="Path_99" data-name="Path 99" d="M415.8,223.9c.3,0,.4-.2.4-.5s-.1-.5-.4-.5-.4.2-.4.5c0,.2.2.5.4.5m.4-1.7a.319.319,0,0,0-.3-.3c-.4,0-.4.4-.4.9a.845.845,0,0,1,.6-.2.736.736,0,0,1,.8.8c0,.5-.3.8-.9.8-.8,0-1-.6-1-1.3,0-.8.2-1.3,1-1.3.6,0,.8.3.8.6Z" fill="#254558"/>
    <path id="Path_100" data-name="Path 100" d="M420.1,222.7c.1-.1.2-.1.5-.1a.736.736,0,0,1,.8.8c0,.6-.4.8-1,.8-.8,0-.9-.4-.9-.6h.6c0,.1.1.3.4.3s.4-.2.4-.5-.1-.5-.4-.5c-.2,0-.3.1-.3.2h-.5l.1-1.5h1.5v.3h-1.1Z" fill="#254558"/>
    <path id="Path_101" data-name="Path 101" d="M403.1,183.9l.8,1.3-1-1.2-2.4-3.2-2.4,3.2-1,1.2.8-1.3,2.4-3.2-3.8-1.2-1.5-.6,1.5.4,3.8,1.2v-4l.1-1.6.1,1.6v4l3.8-1.2,1.5-.4-1.5.6-3.8,1.2Zm3.6-5.3H402l-1.4-4.5-1.4,4.5h-4.7l3.8,2.8-1.4,4.5,3.8-2.8,3.8,2.8-1.4-4.5Z" fill="#254558"/>
  </g>
</svg>
